<svg width="218" height="152" viewBox="0 0 218 152" fill="none" xmlns="http://www.w3.org/2000/svg">
<path opacity="0.59" d="M109 152C169.199 152 218 147.04 218 140.921C218 134.802 169.199 129.842 109 129.842C48.801 129.842 0 134.802 0 140.921C0 147.04 48.801 152 109 152Z" fill="#CEEDFB"/>
<path d="M154.027 141.482C154.027 141.482 178.717 129.225 182.963 122.833C187.21 116.44 180.968 116.077 180.968 116.077C180.968 116.077 191.986 105.288 190.435 100.747C188.885 96.2048 183.178 100.371 183.178 100.371C183.178 100.371 190.262 84.4922 186.922 82.8963C180.7 79.923 171.971 97.0074 171.971 97.0074C171.971 97.0074 173.847 89.5854 169.562 89.8266C163.101 90.1901 163.367 106.979 163.367 106.979C163.367 106.979 162.638 100.542 158.743 102.633C151.756 106.384 154.026 141.483 154.026 141.483L154.027 141.482Z" fill="#007A18"/>
<path d="M157.337 100.036C160.377 98.3365 163.407 103.303 163.407 103.303C163.407 103.303 163.1 90.1909 169.561 89.8266C173.845 89.5854 171.97 97.0074 171.97 97.0074C171.97 97.0074 180.699 79.923 186.921 82.8963L153.998 141.211C153.765 137.138 151.313 103.403 157.337 100.037L157.337 100.036Z" fill="#32B353"/>
<path d="M154.665 141.634C154.665 141.634 174.858 144.159 180.086 141.909C185.314 139.659 181.567 136.88 181.567 136.88C181.567 136.88 192.793 134.658 193.66 131.191C194.526 127.724 189.347 128 189.347 128C189.347 128 200.112 120.982 198.672 118.62C195.991 114.22 183.652 121.305 183.652 121.305C183.652 121.305 187.818 117.443 185.047 115.84C180.87 113.424 174.261 124.004 174.261 124.004C174.261 124.004 174.672 121.396 171.399 121.108C165.527 120.589 154.664 141.635 154.664 141.635L154.665 141.634Z" fill="#007A18"/>
<path d="M171.267 119.212C174.54 119.501 174.263 124.004 174.263 124.004C174.263 124.004 180.991 111.461 185.168 113.878C187.938 115.481 184.661 120.744 184.661 120.744C184.661 120.744 195.992 114.219 198.673 118.619L154.604 141.522C156.102 138.887 165.783 118.728 171.267 119.212Z" fill="#32B353"/>
<path d="M58.9908 141.482C58.9908 141.482 34.3009 129.225 30.0546 122.833C25.8083 116.44 32.0504 116.077 32.0504 116.077C32.0504 116.077 21.0323 105.288 22.5827 100.747C24.1331 96.2048 29.8404 100.371 29.8404 100.371C29.8404 100.371 22.7556 84.4922 26.096 82.8963C32.3178 79.923 41.0466 97.0074 41.0466 97.0074C41.0466 97.0074 39.1706 89.5854 43.4557 89.8266C49.9171 90.1901 49.6505 106.979 49.6505 106.979C49.6505 106.979 50.3802 100.542 54.2747 102.633C61.2624 106.384 58.9917 141.483 58.9917 141.483L58.9908 141.482Z" fill="#007A18"/>
<path d="M55.6826 100.036C52.6417 98.3365 49.6126 103.303 49.6126 103.303C49.6126 103.303 49.9197 90.1909 43.4583 89.8266C39.1741 89.5854 41.0492 97.0074 41.0492 97.0074C41.0492 97.0074 32.3204 79.923 26.0986 82.8963L59.0213 141.211C59.2541 137.138 61.7062 103.403 55.6818 100.037L55.6826 100.036Z" fill="#32B353"/>
<path d="M58.3536 141.634C58.3536 141.634 38.1605 144.159 32.9323 141.909C27.7042 139.659 31.4511 136.88 31.4511 136.88C31.4511 136.88 20.2247 134.658 19.3584 131.191C18.4921 127.724 23.6713 128 23.6713 128C23.6713 128 12.9063 120.982 14.3462 118.62C17.0269 114.22 29.3659 121.305 29.3659 121.305C29.3659 121.305 25.2006 117.443 27.9707 115.84C32.1479 113.424 38.7569 124.004 38.7569 124.004C38.7569 124.004 38.3461 121.396 41.6189 121.108C47.4915 120.589 58.3544 141.635 58.3544 141.635L58.3536 141.634Z" fill="#007A18"/>
<path d="M41.7508 119.212C38.4779 119.501 38.7554 124.004 38.7554 124.004C38.7554 124.004 32.0267 111.461 27.8504 113.878C25.0803 115.481 28.3573 120.744 28.3573 120.744C28.3573 120.744 17.0263 114.219 14.3447 118.619L58.4146 141.522C56.9165 138.887 47.2354 118.728 41.7508 119.212Z" fill="#32B353"/>
<path d="M66.4439 62.4116C71.6907 62.4119 75.9486 66.6895 75.9488 71.9722C75.9488 77.255 71.6908 81.5335 66.4439 81.5337C61.1968 81.5337 56.9381 77.2552 56.9381 71.9722C56.9383 66.6894 61.197 62.4116 66.4439 62.4116Z" fill="#AFAFAF" stroke="#C6C4C4"/>
<path d="M61.749 73.7134L61.0683 73.4002C61.0683 73.2757 61.1004 73.1472 61.1647 73.0146C61.2289 72.8781 61.3193 72.7416 61.4357 72.605C61.5562 72.4685 61.6968 72.34 61.8574 72.2195L62.5923 71.6894C62.6847 71.6252 62.769 71.5509 62.8453 71.4665C62.9256 71.3822 62.9899 71.2939 63.0381 71.2015C63.0863 71.1051 63.1103 71.0107 63.1103 70.9184C63.1103 70.8019 63.0802 70.6955 63.02 70.5991C62.9638 70.5027 62.8814 70.4264 62.773 70.3702C62.6686 70.314 62.5401 70.2859 62.3875 70.2859C62.251 70.2859 62.1285 70.314 62.02 70.3702C61.9156 70.4224 61.8293 70.4927 61.761 70.581C61.6928 70.6694 61.6446 70.7658 61.6165 70.8702L60.8996 70.7377C60.9398 70.5449 61.0241 70.3662 61.1526 70.2015C61.2851 70.0329 61.4538 69.8984 61.6586 69.798C61.8674 69.6976 62.1044 69.6474 62.3694 69.6474C62.6666 69.6474 62.9236 69.7016 63.1405 69.81C63.3613 69.9184 63.53 70.069 63.6465 70.2618C63.7669 70.4505 63.8272 70.6674 63.8272 70.9124C63.8272 71.1613 63.7589 71.3862 63.6224 71.587C63.4898 71.7838 63.3031 71.9725 63.0622 72.1532L62.3875 72.6532C62.2751 72.7335 62.1686 72.8259 62.0682 72.9303C61.9719 73.0307 61.8935 73.1452 61.8333 73.2737C61.7771 73.4022 61.749 73.5488 61.749 73.7134ZM61.0683 73.9363V73.4002L61.5863 73.3158H63.8814V73.9363H61.0683ZM64.5578 73.9363V70.9244H65.1903L65.2325 71.4786V73.9363H64.5578ZM66.5998 73.9363V72.3942L67.2745 72.2135V73.9363H66.5998ZM66.5998 72.3942C66.5998 72.1532 66.5717 71.9685 66.5155 71.84C66.4633 71.7075 66.387 71.6151 66.2866 71.5629C66.1902 71.5107 66.0758 71.4846 65.9433 71.4846C65.7184 71.4806 65.5437 71.5549 65.4192 71.7075C65.2947 71.8601 65.2325 72.079 65.2325 72.3641H64.9795C64.9795 72.0468 65.0256 71.7758 65.118 71.5509C65.2104 71.322 65.3429 71.1493 65.5156 71.0328C65.6882 70.9124 65.8931 70.8521 66.13 70.8521C66.4954 70.8521 66.7765 70.9646 66.9733 71.1894C67.1741 71.4103 67.2745 71.7517 67.2745 72.2135L66.5998 72.3942ZM70.1325 73.9363L70.1024 73.3761V69.7196H70.771V73.9363H70.1325ZM69.1506 74.0086C68.8775 74.0086 68.6386 73.9443 68.4338 73.8158C68.233 73.6833 68.0744 73.4986 67.9579 73.2616C67.8455 73.0247 67.7893 72.7476 67.7893 72.4303C67.7893 72.1091 67.8455 71.832 67.9579 71.5991C68.0744 71.3621 68.233 71.1794 68.4338 71.0509C68.6386 70.9184 68.8775 70.8521 69.1506 70.8521C69.4036 70.8521 69.6205 70.9184 69.8012 71.0509C69.9859 71.1794 70.1265 71.3621 70.2229 71.5991C70.3192 71.832 70.3674 72.1091 70.3674 72.4303C70.3674 72.7476 70.3192 73.0247 70.2229 73.2616C70.1265 73.4986 69.9859 73.6833 69.8012 73.8158C69.6205 73.9443 69.4036 74.0086 69.1506 74.0086ZM69.3193 73.3941C69.4719 73.3941 69.6064 73.354 69.7229 73.2737C69.8434 73.1893 69.9357 73.0749 70 72.9303C70.0682 72.7857 70.1024 72.6191 70.1024 72.4303C70.1024 72.2416 70.0682 72.0749 70 71.9304C69.9357 71.7858 69.8434 71.6734 69.7229 71.593C69.6064 71.5127 69.4699 71.4726 69.3133 71.4726C69.1526 71.4726 69.0101 71.5127 68.8856 71.593C68.7611 71.6734 68.6627 71.7858 68.5904 71.9304C68.5221 72.0749 68.486 72.2416 68.482 72.4303C68.486 72.6191 68.5221 72.7857 68.5904 72.9303C68.6627 73.0749 68.7611 73.1893 68.8856 73.2737C69.0141 73.354 69.1587 73.3941 69.3193 73.3941Z" fill="white"/>
<path d="M141.4 78.4832C146.646 78.4834 150.904 82.761 150.905 88.0437C150.905 93.3266 146.647 97.605 141.4 97.6052C136.153 97.6052 131.894 93.3267 131.894 88.0437C131.894 82.7609 136.153 78.4832 141.4 78.4832Z" fill="#9F5A44" stroke="#E58F6C"/>
<path d="M138.547 90.0794C138.32 90.0794 138.113 90.0455 137.925 89.9776C137.737 89.9098 137.58 89.814 137.452 89.6903C137.324 89.5666 137.233 89.427 137.177 89.2713L137.799 89.0379C137.831 89.0938 137.875 89.1556 137.931 89.2235C137.987 89.2913 138.061 89.3511 138.152 89.403C138.244 89.4509 138.362 89.4748 138.506 89.4748C138.733 89.4748 138.913 89.411 139.044 89.2833C139.18 89.1516 139.248 88.986 139.248 88.7865C139.248 88.6428 139.21 88.5191 139.134 88.4154C139.062 88.3116 138.949 88.2318 138.793 88.176C138.641 88.1201 138.45 88.0922 138.218 88.0922H138.027V87.6013H138.2C138.444 87.6013 138.669 87.6293 138.877 87.6851C139.088 87.741 139.274 87.8248 139.433 87.9365C139.597 88.0443 139.723 88.176 139.81 88.3316C139.902 88.4872 139.948 88.6628 139.948 88.8583C139.948 89.1097 139.882 89.3272 139.751 89.5108C139.623 89.6943 139.453 89.836 139.242 89.9357C139.03 90.0315 138.799 90.0794 138.547 90.0794ZM138.027 87.9844V87.5175H138.218C138.526 87.5175 138.759 87.4657 138.919 87.3619C139.078 87.2582 139.158 87.1125 139.158 86.925C139.158 86.8172 139.13 86.7215 139.074 86.6377C139.022 86.5499 138.947 86.48 138.847 86.4282C138.747 86.3763 138.629 86.3503 138.494 86.3503C138.406 86.3503 138.32 86.3643 138.236 86.3922C138.152 86.4202 138.075 86.4641 138.003 86.5239C137.931 86.5838 137.871 86.6616 137.823 86.7574L137.219 86.5359C137.279 86.3683 137.374 86.2266 137.506 86.1109C137.638 85.9912 137.791 85.9014 137.967 85.8416C138.142 85.7777 138.326 85.7458 138.518 85.7458C138.773 85.7458 139 85.7937 139.2 85.8895C139.403 85.9852 139.563 86.1189 139.679 86.2905C139.798 86.4581 139.858 86.6516 139.858 86.8711C139.858 87.0547 139.812 87.2163 139.721 87.3559C139.633 87.4956 139.511 87.6133 139.356 87.7091C139.2 87.8009 139.022 87.8707 138.823 87.9186C138.627 87.9625 138.418 87.9844 138.194 87.9844H138.027ZM141.006 88.4154C141.006 88.0922 141.068 87.8268 141.192 87.6193C141.316 87.4118 141.475 87.2582 141.671 87.1584C141.87 87.0547 142.078 87.0028 142.293 87.0028V87.6432C142.11 87.6432 141.936 87.6692 141.772 87.7211C141.613 87.7689 141.483 87.8488 141.383 87.9605C141.284 88.0722 141.234 88.2199 141.234 88.4034L141.006 88.4154ZM140.563 90.0076V87.0148H141.234V90.0076H140.563ZM144.899 90.0076L144.869 89.4509V85.8176H145.533V90.0076H144.899ZM143.923 90.0794C143.652 90.0794 143.414 90.0155 143.211 89.8879C143.011 89.7562 142.854 89.5726 142.738 89.3372C142.626 89.1017 142.57 88.8264 142.57 88.5112C142.57 88.1919 142.626 87.9166 142.738 87.6851C142.854 87.4497 143.011 87.2681 143.211 87.1405C143.414 87.0088 143.652 86.9429 143.923 86.9429C144.174 86.9429 144.39 87.0088 144.569 87.1405C144.753 87.2681 144.893 87.4497 144.988 87.6851C145.084 87.9166 145.132 88.1919 145.132 88.5112C145.132 88.8264 145.084 89.1017 144.988 89.3372C144.893 89.5726 144.753 89.7562 144.569 89.8879C144.39 90.0155 144.174 90.0794 143.923 90.0794ZM144.091 89.4689C144.242 89.4689 144.376 89.429 144.492 89.3491C144.611 89.2653 144.703 89.1516 144.767 89.008C144.835 88.8643 144.869 88.6987 144.869 88.5112C144.869 88.3236 144.835 88.158 144.767 88.0144C144.703 87.8707 144.611 87.759 144.492 87.6792C144.376 87.5993 144.24 87.5594 144.085 87.5594C143.925 87.5594 143.783 87.5993 143.66 87.6792C143.536 87.759 143.438 87.8707 143.366 88.0144C143.298 88.158 143.263 88.3236 143.259 88.5112C143.263 88.6987 143.298 88.8643 143.366 89.008C143.438 89.1516 143.536 89.2653 143.66 89.3491C143.787 89.429 143.931 89.4689 144.091 89.4689Z" fill="white"/>
<path d="M88.9328 62.1414C88.9328 59.1652 91.3455 56.7524 94.3218 56.7524H114.328C117.304 56.7524 119.717 59.1652 119.717 62.1414V137.351C119.717 140.327 117.304 142.74 114.328 142.74H94.3218C91.3455 142.74 88.9328 140.327 88.9328 137.351V62.1414Z" fill="#1D478E"/>
<path d="M126.559 108.575C126.559 105.598 128.971 103.186 131.948 103.186H151.954C154.93 103.186 157.343 105.598 157.343 108.575V137.351C157.343 140.327 154.93 142.74 151.954 142.74H131.948C128.971 142.74 126.559 140.327 126.559 137.351V108.575Z" fill="#1D478E"/>
<path d="M51.3079 93.0967C51.3079 90.1205 53.7206 87.7078 56.6969 87.7078H76.7034C79.6796 87.7078 82.0923 90.1205 82.0923 93.0967V137.351C82.0923 140.327 79.6796 142.74 76.7034 142.74H56.6969C53.7206 142.74 51.3079 140.327 51.3079 137.351V93.0967Z" fill="#1D478E"/>
<path d="M103.919 15.759C104.035 15.4004 104.542 15.4004 104.659 15.759L107.249 23.7445C107.301 23.9052 107.451 24.0138 107.62 24.0134L116.056 23.9951C116.434 23.9943 116.59 24.4791 116.283 24.6998L109.452 29.6111C109.314 29.7102 109.257 29.8872 109.31 30.0485L111.933 38.0163C112.051 38.3747 111.641 38.6743 111.336 38.4527L104.517 33.5053C104.381 33.4065 104.196 33.4065 104.06 33.5053L97.2417 38.4527C96.9362 38.6743 96.5258 38.3747 96.6439 38.0163L99.2675 30.0485C99.3206 29.8872 99.263 29.7102 99.1251 29.6111L92.2939 24.6998C91.9868 24.4791 92.1435 23.9943 92.5217 23.9951L100.957 24.0134C101.126 24.0138 101.276 23.9052 101.328 23.7445L103.919 15.759Z" fill="#463913"/>
<path d="M104.892 15.759C105.008 15.4004 105.515 15.4004 105.632 15.759L108.222 23.7445C108.275 23.9052 108.424 24.0138 108.593 24.0134L117.029 23.9951C117.407 23.9943 117.564 24.4791 117.257 24.6998L110.425 29.6111C110.287 29.7102 110.23 29.8872 110.283 30.0485L112.907 38.0163C113.025 38.3747 112.614 38.6743 112.309 38.4527L105.49 33.5053C105.354 33.4065 105.17 33.4065 105.033 33.5053L98.2149 38.4527C97.9094 38.6743 97.499 38.3747 97.6171 38.0163L100.241 30.0485C100.294 29.8872 100.236 29.7102 100.098 29.6111L93.267 24.6998C92.96 24.4791 93.1167 23.9943 93.4949 23.9951L101.93 24.0134C102.099 24.0138 102.249 23.9052 102.301 23.7445L104.892 15.759Z" fill="#AF8E2F"/>
<path d="M112.555 17.9523C113.736 18.5238 114.547 19.401 115.101 20.5009C115.655 19.401 116.47 18.5205 117.65 17.949C116.47 17.3775 115.655 16.5002 115.101 15.4004C114.547 16.5002 113.736 17.3808 112.555 17.9523Z" fill="#FFD325"/>
<path d="M116.628 21.119C117.387 21.4864 117.909 22.0504 118.265 22.7574C118.621 22.0504 119.145 21.4843 119.904 21.1169C119.145 20.7495 118.621 20.1856 118.265 19.4785C117.909 20.1856 117.387 20.7516 116.628 21.119Z" fill="#AF8E2F"/>
<path d="M118.568 17.0734C119.033 17.2982 119.352 17.6433 119.57 18.0759C119.787 17.6433 120.108 17.2969 120.572 17.0721C120.108 16.8473 119.787 16.5022 119.57 16.0696C119.352 16.5022 119.033 16.8486 118.568 17.0734Z" fill="#FFD325"/>
<path d="M101.921 30.1396L101.928 26.1556L101.996 25.7685H102.627L102.621 30.1396H101.921ZM100.979 27.0486V26.3929C101.074 26.3971 101.183 26.37 101.303 26.3117C101.428 26.2493 101.551 26.1681 101.672 26.0682C101.792 25.9683 101.901 25.8663 101.996 25.7622L102.446 26.2306C102.3 26.3846 102.148 26.5261 101.99 26.6552C101.832 26.7842 101.668 26.8842 101.497 26.9549C101.33 27.0257 101.158 27.0569 100.979 27.0486ZM104.794 30.2146C104.585 30.2146 104.394 30.1834 104.219 30.1209C104.044 30.0585 103.894 29.971 103.77 29.8586C103.645 29.7421 103.549 29.6068 103.482 29.4527L104.088 29.1842C104.15 29.3008 104.242 29.3986 104.363 29.4777C104.488 29.5568 104.625 29.5964 104.775 29.5964C104.937 29.5964 105.066 29.5693 105.162 29.5152C105.262 29.4569 105.312 29.3778 105.312 29.2779C105.312 29.1822 105.274 29.1093 105.2 29.0593C105.125 29.0052 105.018 28.9615 104.881 28.9282L104.588 28.847C104.292 28.7721 104.061 28.6534 103.894 28.4911C103.728 28.3246 103.645 28.1352 103.645 27.9228C103.645 27.6106 103.745 27.3692 103.944 27.1985C104.148 27.0278 104.44 26.9424 104.819 26.9424C105.01 26.9424 105.185 26.9716 105.343 27.0299C105.505 27.084 105.645 27.1631 105.762 27.2672C105.878 27.3671 105.959 27.4857 106.005 27.6231L105.424 27.8854C105.383 27.7813 105.304 27.7022 105.187 27.6481C105.07 27.5898 104.941 27.5607 104.8 27.5607C104.658 27.5607 104.548 27.5919 104.469 27.6543C104.39 27.7126 104.35 27.7959 104.35 27.9041C104.35 27.9665 104.386 28.0248 104.456 28.0789C104.527 28.1289 104.629 28.1705 104.762 28.2038L105.131 28.2913C105.335 28.3412 105.501 28.4203 105.63 28.5286C105.759 28.6326 105.855 28.7513 105.918 28.8845C105.98 29.0135 106.011 29.1447 106.011 29.2779C106.011 29.4652 105.957 29.6297 105.849 29.7712C105.745 29.9128 105.601 30.0231 105.418 30.1022C105.235 30.1771 105.027 30.2146 104.794 30.2146ZM107.809 30.2146C107.48 30.2146 107.228 30.1334 107.053 29.971C106.882 29.8045 106.797 29.5672 106.797 29.2592V26.0432H107.49V29.128C107.49 29.2737 107.523 29.3841 107.59 29.459C107.661 29.5339 107.763 29.5714 107.896 29.5714C107.938 29.5714 107.983 29.5631 108.033 29.5464C108.083 29.5298 108.14 29.4985 108.202 29.4527L108.458 29.9835C108.35 30.0585 108.242 30.1147 108.133 30.1521C108.025 30.1938 107.917 30.2146 107.809 30.2146ZM106.279 27.6169V27.0174H108.333V27.6169H106.279Z" fill="white"/>
<path opacity="0.52" d="M126.819 31.774C129.42 19.4653 121.613 7.36343 109.382 4.7436C97.1501 2.12378 85.1261 9.97811 82.5253 22.2867C79.9245 34.5954 87.7317 46.6973 99.9632 49.3171C112.195 51.9369 124.219 44.0826 126.819 31.774Z" fill="#FFD325"/>
<path opacity="0.46" d="M107.328 4.23633C107.003 4.88769 106.634 5.52616 106.233 6.13238C103.843 9.73745 99.9442 13.091 95.5263 13.278C93.5676 13.3619 91.6715 12.6525 90.2385 11.2724C89.9256 10.9692 89.644 10.6339 89.3812 10.2856C87.3725 12.201 85.6892 14.4711 84.4502 17.025C86.0021 20.3399 88.7179 23.113 92.0032 24.4222C94.3498 25.3573 96.8842 25.4669 99.2433 24.5254C101.177 23.7515 102.973 22.7712 104.65 21.5136C107.829 19.1403 110.47 16.1221 113.367 13.4135C115.057 11.8334 116.89 10.2985 118.924 9.20863C115.67 6.52578 111.69 4.74581 107.328 4.23633Z" fill="#FFD325"/>
<path opacity="0.32" d="M115.387 29.3693C112.146 33.0318 109.223 36.9857 105.683 40.3566C102.565 43.322 99.0189 45.6982 95.2229 47.5294C98.0913 48.9424 101.301 49.7344 104.689 49.7344C116.913 49.7344 126.824 39.4442 126.824 26.7524C126.824 24.7121 126.561 22.7288 126.079 20.8469C121.948 22.8556 118.469 25.8843 115.381 29.3693H115.387Z" fill="#FFD325"/>
</svg>
