<svg width="24" height="25" viewBox="0 0 24 25" fill="none" xmlns="http://www.w3.org/2000/svg">
<circle cx="12" cy="12.738" r="12" fill="#5BC4F0" fill-opacity="0.2"/>
<mask id="mask0_2_37711" style="mask-type:alpha" maskUnits="userSpaceOnUse" x="4" y="4" width="16" height="17">
<rect x="4" y="4.73804" width="16" height="16" fill="#D9D9D9"/>
</mask>
<g mask="url(#mask0_2_37711)">
<path d="M16.6667 18.4046C16.2676 18.4046 15.915 18.2796 15.609 18.0296C15.303 17.7796 15.1132 17.4602 15.0397 17.0713H11.3334C10.6855 17.0713 10.1346 16.8443 9.68085 16.3905C9.22696 15.9367 9.00002 15.3858 9.00002 14.738C9.00002 14.0901 9.22696 13.5392 9.68085 13.0855C10.1346 12.6316 10.6855 12.4046 11.3334 12.4046H12.6667C13.125 12.4046 13.5174 12.2412 13.8437 11.9143C14.1701 11.5874 14.3334 11.1945 14.3334 10.7355C14.3334 10.2765 14.1701 9.88434 13.8437 9.55912C13.5174 9.2339 13.125 9.07129 12.6667 9.07129H8.96035C8.88424 9.46018 8.69385 9.77962 8.38919 10.0296C8.08441 10.2796 7.73246 10.4046 7.33335 10.4046C6.87035 10.4046 6.47685 10.2427 6.15285 9.91896C5.82874 9.59518 5.66669 9.20201 5.66669 8.73946C5.66669 8.2769 5.82874 7.88323 6.15285 7.55846C6.47685 7.23368 6.87035 7.07129 7.33335 7.07129C7.73246 7.07129 8.08441 7.19629 8.38919 7.44629C8.69385 7.69629 8.88424 8.01573 8.96035 8.40462H12.6667C13.3146 8.40462 13.8654 8.63157 14.3192 9.08546C14.7731 9.53923 15 10.0901 15 10.738C15 11.3858 14.7731 11.9367 14.3192 12.3905C13.8654 12.8443 13.3146 13.0713 12.6667 13.0713H11.3334C10.875 13.0713 10.4827 13.2347 10.1564 13.5616C9.82991 13.8885 9.66669 14.2815 9.66669 14.7405C9.66669 15.1995 9.82991 15.5916 10.1564 15.9168C10.4827 16.242 10.875 16.4046 11.3334 16.4046H15.0397C15.1158 16.0157 15.3062 15.6963 15.6109 15.4463C15.9156 15.1963 16.2676 15.0713 16.6667 15.0713C17.1297 15.0713 17.5232 15.2332 17.8472 15.557C18.1713 15.8807 18.3334 16.2739 18.3334 16.7365C18.3334 17.199 18.1713 17.5927 17.8472 17.9175C17.5232 18.2422 17.1297 18.4046 16.6667 18.4046ZM7.33335 9.73796C7.60769 9.73796 7.84296 9.6399 8.03919 9.44379C8.2353 9.24757 8.33335 9.01229 8.33335 8.73796C8.33335 8.46362 8.2353 8.22835 8.03919 8.03212C7.84296 7.83601 7.60769 7.73796 7.33335 7.73796C7.05902 7.73796 6.82374 7.83601 6.62752 8.03212C6.43141 8.22835 6.33335 8.46362 6.33335 8.73796C6.33335 9.01229 6.43141 9.24757 6.62752 9.44379C6.82374 9.6399 7.05902 9.73796 7.33335 9.73796Z" fill="#1D478E"/>
</g>
</svg>
