<svg width="270" height="183" viewBox="0 0 270 183" fill="none" xmlns="http://www.w3.org/2000/svg">
<g clip-path="url(#clip0_282_38453)">
<rect width="270" height="183" fill="white"/>
<path d="M140.719 112.5C140.719 137.629 119.802 158 94 158C68.1979 158 47.2812 137.629 47.2812 112.5C47.2812 87.371 68.1979 67 94 67C119.802 67 140.719 87.371 140.719 112.5Z" fill="#5BC4F0" fill-opacity="0.1"/>
<g clip-path="url(#clip1_282_38453)">
<path d="M91.1837 145.601C91.1837 145.601 91.1714 145.601 91.1641 145.601C91.0685 145.591 90.9999 145.505 91.0122 145.409C91.0195 145.346 91.7449 138.922 93.4407 132.239C95.7271 123.226 98.6016 118.055 101.981 116.876C103.366 116.391 104.61 116.513 105.674 117.234C108.48 119.135 109.32 124.662 109.558 127.071C110.092 124.85 111.47 119.603 113.702 114.249C116.415 107.742 120.985 99.7405 127.347 98.5691C137.529 96.6992 141.982 108.215 143.195 112.158C143.2 110.541 143.298 107.673 143.817 104.789C144.864 98.971 147.145 95.7238 150.417 95.3954C152.578 95.1749 154.551 97.0276 156.114 100.745C156.854 102.507 157.345 104.311 157.604 105.397C158.087 101.625 160.141 88.8618 166.083 86.5753C168.485 85.6514 171.232 86.5753 174.246 89.325C174.317 89.3887 174.322 89.499 174.258 89.5676C174.195 89.6387 174.084 89.6436 174.013 89.5799C171.102 86.9258 168.475 86.0239 166.206 86.8964C162.751 88.2247 160.658 93.4569 159.511 97.6133C158.259 102.145 157.832 106.414 157.83 106.458C157.822 106.544 157.751 106.61 157.666 106.612C157.577 106.622 157.504 106.556 157.489 106.473C157.467 106.36 155.328 95.2582 150.454 95.741C142.911 96.4958 143.553 113.313 143.56 113.482C143.565 113.57 143.499 113.648 143.411 113.661C143.32 113.675 143.239 113.614 143.219 113.528C143.21 113.487 142.234 109.257 139.796 105.36C136.546 100.167 132.38 97.9956 127.411 98.9122C115.493 101.106 109.7 127.978 109.644 128.25C109.627 128.335 109.553 128.394 109.46 128.387C109.374 128.379 109.306 128.308 109.301 128.223C109.296 128.139 108.889 119.831 105.48 117.523C104.51 116.866 103.37 116.758 102.096 117.204C94.2837 119.932 91.3871 145.194 91.3577 145.449C91.3479 145.537 91.2719 145.603 91.1862 145.603L91.1837 145.601Z" fill="#32B353"/>
<path d="M89.4735 146.084C89.4735 146.084 87.0337 102.817 98.2048 109.363C98.2048 109.363 98.2607 86.772 104.302 86.772C110.343 86.772 110.785 114.563 110.785 114.563C110.785 114.563 110.387 96.911 116.063 97.1908C124.683 97.6153 123.026 134.293 123.026 134.293C123.026 134.293 127.021 122.174 136.209 128.184C142.6 132.364 140.175 146.142 140.175 146.142L89.476 146.087L89.4735 146.084Z" fill="#32B353"/>
<path d="M174.528 146.99H89.3704C89.1793 146.99 89.0249 146.836 89.0249 146.644V71.7042C89.0249 71.513 89.1793 71.3586 89.3704 71.3586H174.528C174.719 71.3586 174.874 71.513 174.874 71.7042V146.644C174.874 146.836 174.719 146.99 174.528 146.99ZM89.716 146.299H174.183V72.0497H89.716V146.299Z" fill="#161742"/>
<path d="M131.949 146.99C131.758 146.99 131.604 146.836 131.604 146.645V71.7044C131.604 71.5133 131.758 71.3589 131.949 71.3589C132.14 71.3589 132.295 71.5133 132.295 71.7044V146.645C132.295 146.836 132.14 146.99 131.949 146.99Z" fill="#161742"/>
<path d="M174.528 102.245H89.3704C89.1793 102.245 89.0249 102.09 89.0249 101.899C89.0249 101.708 89.1793 101.554 89.3704 101.554H174.528C174.719 101.554 174.874 101.708 174.874 101.899C174.874 102.09 174.719 102.245 174.528 102.245Z" fill="#161742"/>
<path d="M118.958 167.436C123.565 162.339 123.155 154.484 118.042 149.891C112.93 145.299 105.051 145.708 100.444 150.805C95.8371 155.902 96.2473 163.757 101.36 168.349C106.473 172.942 114.352 172.533 118.958 167.436Z" fill="#AF8E2F"/>
<path d="M121.19 162.006C122.793 155.678 118.946 149.253 112.599 147.655C106.251 146.057 99.8067 149.892 98.204 156.22C96.6014 162.548 100.448 168.973 106.795 170.571C113.143 172.169 119.588 168.334 121.19 162.006Z" fill="#FFD840"/>
<path d="M118.905 161.032C119.969 155.96 116.707 150.99 111.62 149.929C106.534 148.869 101.547 152.12 100.484 157.192C99.4201 162.263 102.682 167.234 107.769 168.295C112.856 169.355 117.842 166.103 118.905 161.032Z" fill="#FFD325"/>
<path d="M107.784 159.868L106.082 159.071L106.747 157.696L108.449 158.493C109.252 158.868 110.239 158.489 110.647 157.642C111.054 156.796 110.735 155.8 109.932 155.424L108.149 154.589L108.814 153.214L110.597 154.049C112.118 154.762 112.725 156.646 111.953 158.251C111.177 159.856 109.31 160.58 107.788 159.864L107.784 159.868Z" fill="#AF8E2F"/>
<path d="M113.141 159.653L107.077 156.811L107.738 155.436L113.805 158.278L113.141 159.653Z" fill="#AF8E2F"/>
<path d="M114.212 157.432L108.149 154.589L108.814 153.214L114.877 156.056L114.212 157.432Z" fill="#AF8E2F"/>
<path d="M108.879 164.223L107.507 158.635L106.089 159.075L107.154 163.415L108.879 164.223Z" fill="#AF8E2F"/>
<g style="mix-blend-mode:screen" opacity="0.23">
<path d="M121.732 162.358L116.841 148.931C115.823 148.223 114.678 147.652 113.429 147.261C113.31 147.223 113.191 147.196 113.071 147.166L119.984 166.135C120.664 165.143 121.217 164.036 121.594 162.829C121.644 162.672 121.686 162.511 121.728 162.354L121.732 162.358Z" fill="#FFD325"/>
</g>
<g style="mix-blend-mode:screen" opacity="0.23">
<path d="M100.952 150.272L108.687 171.498C110.862 171.678 112.998 171.276 114.912 170.398L106.435 147.135C104.376 147.694 102.482 148.77 100.952 150.272Z" fill="#FFD325"/>
</g>
<path d="M115.43 134.655C115.43 134.655 126.085 134.873 132.028 136.456C137.971 138.037 153.978 155.535 157.392 162.72C161.94 172.293 158.516 179.341 146.286 179.503C133.41 179.674 99.8838 179.123 99.8838 179.123C99.8838 179.123 74.0669 180.569 71.4595 175.489C67.7444 168.252 70.7978 162.051 76.7478 151.746C82.3597 142.029 90.5667 131.356 99.0188 134.28C107.471 137.201 115.428 134.657 115.428 134.657L115.43 134.655Z" fill="#1D478E"/>
<path d="M129.668 146.685C129.648 146.685 129.626 146.681 129.607 146.673C129.519 146.639 129.472 146.541 129.506 146.45L132.913 137.432C132.947 137.343 133.045 137.299 133.136 137.331C133.224 137.365 133.27 137.463 133.236 137.554L129.83 146.573C129.803 146.641 129.739 146.685 129.668 146.685Z" fill="#161742"/>
<path d="M99.0439 145.298C99.0261 145.306 99.004 145.311 98.9832 145.313C98.8887 145.318 98.8053 145.249 98.7984 145.152L98.1058 135.537C98.0999 135.442 98.1704 135.361 98.2661 135.352C98.3606 135.346 98.444 135.416 98.4509 135.512L99.1434 145.128C99.1477 145.201 99.1084 145.268 99.0439 145.298Z" fill="#161742"/>
<path d="M114.032 140.703C113.944 140.724 113.854 140.674 113.828 140.585C113.799 140.494 113.851 140.396 113.943 140.369C117.287 139.327 116.692 135.131 116.687 135.087C116.672 134.992 116.74 134.908 116.831 134.891C116.926 134.876 117.015 134.94 117.027 135.036C117.033 135.082 117.67 139.571 114.044 140.7C114.04 140.701 114.037 140.701 114.032 140.703Z" fill="#161742"/>
<path d="M142.142 165.289C142.095 165.289 142.046 165.269 142.012 165.23L133.952 156.099C133.888 156.028 133.895 155.917 133.966 155.856C134.038 155.792 134.148 155.8 134.209 155.871L142.269 165.002C142.333 165.073 142.325 165.183 142.254 165.245C142.222 165.274 142.181 165.289 142.139 165.289H142.142Z" fill="#161742"/>
<path d="M217.922 176.97H51.3455C51.1544 176.97 51 176.815 51 176.624C51 176.433 51.1544 176.279 51.3455 176.279H217.922C218.113 176.279 218.267 176.433 218.267 176.624C218.267 176.815 218.113 176.97 217.922 176.97Z" fill="#161742"/>
<path d="M170.989 149.829C170.877 149.212 170.708 148.6 170.517 147.996L171.505 153.366C171.346 152.185 171.202 151.001 170.989 149.829Z" fill="#32B353"/>
<path d="M173.929 161.46L172.482 153.611C172.568 154.228 172.658 154.843 172.747 155.451C172.61 154.687 172.501 153.919 172.399 153.152L171.386 147.655C171.013 146.483 170.551 145.328 170.191 144.16C168.904 139.999 167.53 135.864 166.064 131.761C165.494 130.166 164.888 128.536 163.783 127.257C163.575 128.989 163.719 130.478 163.728 131.134C163.744 132.519 163.798 133.903 163.894 135.285C164.041 137.446 164.359 139.585 164.662 141.728C164.955 143.803 164.888 145.955 165.111 148.065C165.086 148.002 165.057 147.941 165.032 147.881L168.598 160.655C169.028 160.776 169.484 160.843 169.923 160.903C171.259 161.088 172.594 161.276 173.929 161.46Z" fill="#32B353"/>
<path d="M170.727 163.142C170.622 163.142 170.533 163.062 170.523 162.957C170.023 157.555 168.793 152.166 167.604 146.952C166.464 141.948 165.281 136.775 164.743 131.586C164.73 131.475 164.813 131.373 164.924 131.364C165.036 131.351 165.138 131.434 165.147 131.545C165.683 136.708 166.862 141.871 168 146.863C169.191 152.089 170.425 157.495 170.928 162.922C170.938 163.033 170.855 163.132 170.743 163.145C170.737 163.145 170.731 163.145 170.724 163.145L170.727 163.142Z" fill="#161742"/>
<path d="M159.465 140.989C161.546 144.892 163.28 148.979 164.644 153.187C165.004 154.295 165.332 155.415 165.746 156.504C166.094 157.427 167.117 158.78 167.088 159.694C167.161 159.751 167.244 159.808 167.327 159.865C167.407 159.92 167.483 159.977 167.556 160.037C167.917 160.343 168.347 160.531 168.802 160.658L165.236 147.884C164.061 145.079 162.024 142.641 159.469 140.992L159.465 140.989Z" fill="#32B353"/>
<path d="M166.742 157.109C166.659 157.109 166.579 157.058 166.55 156.972L162.749 146.286C162.71 146.181 162.768 146.063 162.873 146.025C162.978 145.987 163.096 146.044 163.134 146.149L166.936 156.835C166.974 156.94 166.917 157.058 166.812 157.096C166.789 157.106 166.767 157.109 166.745 157.109H166.742Z" fill="#161742"/>
<path d="M180.73 156.558L181.441 152.487C181.122 153.83 180.886 155.189 180.73 156.558Z" fill="#32B353"/>
<path d="M180.957 116.007C177.063 127.568 175.31 139.846 175.814 152.034C175.772 151.589 175.728 151.14 175.686 150.694L176.39 161.941C176.986 162.023 177.582 162.106 178.175 162.189C178.704 162.262 179.255 162.329 179.807 162.364L180.779 156.787C181.209 150.08 182.34 143.43 182.853 136.723C183.385 129.761 183.22 122.615 180.957 116.007Z" fill="#32B353"/>
<path d="M176.597 168.546C176.575 168.546 176.556 168.543 176.534 168.537C176.425 168.502 176.368 168.387 176.403 168.279C177.78 164.004 178.051 159.442 178.312 155.033L180.198 123.24C180.205 123.128 180.304 123.039 180.415 123.049C180.527 123.055 180.613 123.15 180.606 123.265L178.72 155.059C178.455 159.493 178.184 164.08 176.792 168.406C176.763 168.492 176.684 168.546 176.597 168.546Z" fill="#161742"/>
<path d="M176.112 150.695C174.863 137.694 173.356 124.548 168.445 112.461C167.476 115.625 167.789 119.022 168.133 122.313C169.188 132.433 170.465 143.434 171.909 153.611L173.356 161.46C174.509 161.619 175.663 161.782 176.82 161.941L176.115 150.695H176.112Z" fill="#32B353"/>
<path d="M177.874 172.945C177.813 172.945 177.756 172.92 177.715 172.872C176.309 171.163 175.975 168.795 175.704 166.894L168.989 119.671C168.973 119.56 169.05 119.458 169.161 119.442C169.273 119.426 169.375 119.503 169.391 119.614L176.105 166.837C176.37 168.689 176.695 170.994 178.03 172.614C178.1 172.7 178.087 172.831 178.001 172.901C177.963 172.933 177.919 172.949 177.871 172.949L177.874 172.945Z" fill="#161742"/>
<path d="M184.307 153.588C184.371 153.321 184.431 153.054 184.495 152.786L181.21 162.116C181.649 161.97 182.064 161.76 182.436 161.454C183.096 160.913 183.53 160.149 183.941 159.401C186.452 154.839 188.8 150.189 190.986 145.465C191.777 143.752 192.561 141.976 192.634 140.095C188.893 143.892 186.022 148.546 184.31 153.595L184.307 153.588Z" fill="#32B353"/>
<path d="M182.41 162.743C182.388 162.743 182.362 162.74 182.34 162.731C182.235 162.692 182.18 162.575 182.219 162.47C184.513 156.202 187.174 149.985 190.119 143.994C190.17 143.892 190.291 143.851 190.393 143.902C190.495 143.953 190.536 144.074 190.485 144.176C187.544 150.154 184.892 156.358 182.601 162.613C182.572 162.696 182.493 162.747 182.41 162.747V162.743Z" fill="#161742"/>
<path d="M188.012 139.315C186.215 140.105 185.032 141.843 184.099 143.568C182.62 146.299 181.508 149.228 180.791 152.249L180.064 156.419C180.023 156.797 179.982 157.179 179.953 157.561C179.969 157.304 179.985 157.046 180.001 156.785L179.029 162.362C179.918 162.416 180.804 162.374 181.6 162.11L184.886 152.78C185.928 148.292 186.973 143.8 188.015 139.312L188.012 139.315Z" fill="#32B353"/>
<path d="M181.181 161.005C181.181 161.005 181.162 161.005 181.152 161.005C181.041 160.989 180.964 160.888 180.977 160.776C181.825 154.623 183.462 148.594 185.843 142.858C185.888 142.753 186.005 142.705 186.111 142.747C186.216 142.791 186.264 142.909 186.222 143.014C183.854 148.718 182.226 154.715 181.382 160.834C181.369 160.935 181.28 161.009 181.181 161.009V161.005Z" fill="#161742"/>
<path d="M187.575 157.236L186.913 167.098L186.798 168.779L186.259 176.794H164.332L163.901 168.349L163.831 166.964L163.305 156.686L187.575 157.236Z" fill="#161742"/>
<g style="mix-blend-mode:multiply">
<path d="M187.573 157.236L187.439 159.236L164.96 158.72L164.259 175.46L163.303 156.686L187.573 157.236Z" fill="#1D478E"/>
</g>
</g>
<path d="M126.38 161.728C130.986 156.631 130.576 148.775 125.464 144.183C120.351 139.59 112.472 139.999 107.865 145.096C103.258 150.193 103.669 158.048 108.781 162.641C113.894 167.234 121.773 166.825 126.38 161.728Z" fill="#AF8E2F"/>
<path d="M128.611 156.297C130.214 149.969 126.368 143.544 120.02 141.946C113.673 140.349 107.228 144.183 105.625 150.511C104.023 156.84 107.869 163.265 114.216 164.862C120.564 166.46 127.009 162.625 128.611 156.297Z" fill="#FFD840"/>
<path d="M126.327 155.323C127.39 150.252 124.129 145.281 119.042 144.22C113.955 143.16 108.969 146.412 107.905 151.483C106.841 156.555 110.103 161.525 115.19 162.586C120.277 163.646 125.263 160.395 126.327 155.323Z" fill="#FFD325"/>
<path d="M115.205 154.159L113.503 153.363L114.168 151.987L115.87 152.784C116.673 153.16 117.661 152.78 118.068 151.934C118.475 151.087 118.156 150.091 117.353 149.716L115.57 148.881L116.235 147.506L118.018 148.341C119.539 149.053 120.147 150.938 119.374 152.543C118.598 154.148 116.731 154.872 115.209 154.156L115.205 154.159Z" fill="#AF8E2F"/>
<path d="M120.562 153.945L114.498 151.103L115.159 149.728L121.226 152.57L120.562 153.945Z" fill="#AF8E2F"/>
<path d="M121.633 151.723L115.57 148.881L116.235 147.506L122.298 150.348L121.633 151.723Z" fill="#AF8E2F"/>
<path d="M116.3 158.515L114.928 152.926L113.511 153.367L114.575 157.707L116.3 158.515Z" fill="#AF8E2F"/>
<g style="mix-blend-mode:screen" opacity="0.23">
<path d="M129.153 156.649L124.262 143.223C123.244 142.514 122.099 141.943 120.85 141.553C120.731 141.514 120.612 141.487 120.493 141.457L127.405 160.426C128.085 159.434 128.639 158.327 129.015 157.12C129.065 156.963 129.107 156.802 129.15 156.645L129.153 156.649Z" fill="#FFD325"/>
</g>
<g style="mix-blend-mode:screen" opacity="0.23">
<path d="M108.374 144.564L116.108 165.79C118.283 165.97 120.42 165.567 122.333 164.69L113.857 141.427C111.797 141.986 109.903 143.062 108.374 144.564Z" fill="#FFD325"/>
</g>
<path d="M139.602 169.598C142.56 166.325 142.297 161.281 139.014 158.332C135.731 155.384 130.672 155.646 127.714 158.919C124.756 162.192 125.02 167.235 128.303 170.184C131.585 173.133 136.644 172.87 139.602 169.598Z" fill="#AF8E2F"/>
<path d="M141.035 166.111C142.064 162.048 139.594 157.922 135.519 156.896C131.443 155.871 127.305 158.333 126.276 162.396C125.247 166.459 127.717 170.585 131.792 171.61C135.868 172.636 140.006 170.174 141.035 166.111Z" fill="#FFD840"/>
<path d="M139.568 165.486C140.251 162.229 138.157 159.038 134.891 158.357C131.624 157.676 128.423 159.764 127.74 163.02C127.057 166.276 129.151 169.468 132.418 170.149C135.684 170.83 138.885 168.742 139.568 165.486Z" fill="#FFD325"/>
<path d="M132.427 164.738L131.334 164.227L131.761 163.344L132.854 163.855C133.37 164.096 134.004 163.853 134.265 163.309C134.527 162.766 134.322 162.126 133.807 161.885L132.662 161.349L133.089 160.466L134.233 161.002C135.21 161.46 135.6 162.67 135.104 163.7C134.606 164.731 133.407 165.196 132.43 164.736L132.427 164.738Z" fill="#AF8E2F"/>
<path d="M135.867 164.6L131.974 162.775L132.398 161.892L136.293 163.717L135.867 164.6Z" fill="#AF8E2F"/>
<path d="M136.555 163.174L132.662 161.349L133.089 160.466L136.982 162.291L136.555 163.174Z" fill="#AF8E2F"/>
<path d="M133.13 167.535L132.25 163.946L131.339 164.229L132.023 167.016L133.13 167.535Z" fill="#AF8E2F"/>
<g style="mix-blend-mode:screen" opacity="0.23">
<path d="M141.383 166.337L138.243 157.716C137.589 157.261 136.854 156.895 136.052 156.644C135.975 156.619 135.899 156.602 135.822 156.583L140.261 168.763C140.697 168.125 141.053 167.415 141.294 166.64C141.326 166.539 141.354 166.436 141.381 166.335L141.383 166.337Z" fill="#FFD325"/>
</g>
<g style="mix-blend-mode:screen" opacity="0.23">
<path d="M128.041 158.577L133.007 172.206C134.404 172.321 135.775 172.063 137.004 171.5L131.561 156.563C130.239 156.922 129.023 157.613 128.041 158.577Z" fill="#FFD325"/>
</g>
<path d="M104.687 162.869C109.294 157.772 108.883 149.917 103.771 145.324C98.658 140.732 90.7789 141.141 86.1722 146.238C81.5655 151.335 81.9757 159.19 87.0884 163.783C92.201 168.375 100.08 167.966 104.687 162.869Z" fill="#AF8E2F"/>
<path d="M106.918 157.439C108.521 151.111 104.675 144.686 98.3272 143.088C91.9797 141.49 85.5349 145.325 83.9323 151.653C82.3297 157.981 86.1761 164.406 92.5236 166.004C98.871 167.602 105.316 163.767 106.918 157.439Z" fill="#FFD840"/>
<path d="M104.634 156.465C105.697 151.393 102.436 146.422 97.3488 145.362C92.2618 144.302 87.2757 147.553 86.212 152.625C85.1484 157.696 88.4099 162.667 93.4969 163.727C98.5839 164.788 103.57 161.536 104.634 156.465Z" fill="#FFD325"/>
<path d="M93.5125 155.301L91.8103 154.504L92.475 153.129L94.1772 153.926C94.9803 154.301 95.9678 153.922 96.3751 153.075C96.7823 152.229 96.4634 151.233 95.6604 150.858L93.8775 150.022L94.5422 148.647L96.3251 149.482C97.8467 150.195 98.4538 152.079 97.6815 153.685C96.9053 155.29 95.0379 156.014 93.5163 155.297L93.5125 155.301Z" fill="#AF8E2F"/>
<path d="M98.8688 155.086L92.8055 152.244L93.4664 150.869L99.5336 153.711L98.8688 155.086Z" fill="#AF8E2F"/>
<path d="M99.9405 152.865L93.8772 150.022L94.5419 148.647L100.605 151.49L99.9405 152.865Z" fill="#AF8E2F"/>
<path d="M94.6072 159.657L93.2355 154.068L91.8176 154.508L92.882 158.848L94.6072 159.657Z" fill="#AF8E2F"/>
<g style="mix-blend-mode:screen" opacity="0.23">
<path d="M107.461 157.791L102.569 144.365C101.551 143.656 100.406 143.085 99.1571 142.694C99.038 142.656 98.9189 142.629 98.7998 142.599L105.712 161.568C106.392 160.576 106.946 159.469 107.322 158.262C107.372 158.105 107.414 157.944 107.457 157.787L107.461 157.791Z" fill="#FFD325"/>
</g>
<g style="mix-blend-mode:screen" opacity="0.23">
<path d="M86.6808 145.705L94.4155 166.931C96.5903 167.111 98.7267 166.709 100.64 165.832L92.1639 142.568C90.1043 143.127 88.2101 144.204 86.6808 145.705Z" fill="#FFD325"/>
</g>
<path d="M124.096 173.145C128.703 168.048 128.293 160.192 123.18 155.6C118.067 151.007 110.188 151.416 105.582 156.513C100.975 161.61 101.385 169.465 106.498 174.058C111.61 178.651 119.49 178.242 124.096 173.145Z" fill="#AF8E2F"/>
<path d="M126.328 167.715C127.931 161.386 124.084 154.961 117.737 153.364C111.389 151.766 104.944 155.601 103.342 161.929C101.739 168.257 105.586 174.682 111.933 176.28C118.28 177.877 124.725 174.043 126.328 167.715Z" fill="#FFD840"/>
<path d="M124.043 166.74C125.107 161.669 121.845 156.698 116.758 155.638C111.671 154.577 106.685 157.829 105.621 162.9C104.558 167.972 107.819 172.943 112.906 174.003C117.993 175.063 122.979 171.812 124.043 166.74Z" fill="#FFD325"/>
<path d="M112.922 165.576L111.22 164.78L111.884 163.404L113.587 164.201C114.39 164.577 115.377 164.197 115.784 163.351C116.192 162.504 115.873 161.508 115.07 161.133L113.287 160.298L113.952 158.923L115.734 159.758C117.256 160.47 117.863 162.355 117.091 163.96C116.315 165.565 114.447 166.289 112.926 165.573L112.922 165.576Z" fill="#AF8E2F"/>
<path d="M118.278 165.362L112.215 162.519L112.876 161.144L118.943 163.987L118.278 165.362Z" fill="#AF8E2F"/>
<path d="M119.35 163.14L113.287 160.298L113.951 158.923L120.015 161.765L119.35 163.14Z" fill="#AF8E2F"/>
<path d="M114.017 169.932L112.645 164.343L111.227 164.784L112.291 169.124L114.017 169.932Z" fill="#AF8E2F"/>
<g style="mix-blend-mode:screen" opacity="0.23">
<path d="M126.87 168.067L121.979 154.64C120.96 153.932 119.815 153.361 118.567 152.97C118.447 152.932 118.328 152.905 118.209 152.875L125.122 171.844C125.802 170.852 126.355 169.745 126.732 168.538C126.782 168.381 126.824 168.22 126.866 168.063L126.87 168.067Z" fill="#FFD325"/>
</g>
<g style="mix-blend-mode:screen" opacity="0.23">
<path d="M106.09 155.981L113.825 177.207C116 177.387 118.136 176.985 120.05 176.107L111.573 152.844C109.514 153.403 107.619 154.479 106.09 155.981Z" fill="#FFD325"/>
</g>
<path d="M99.8455 174.255C103.328 170.402 103.018 164.464 99.1529 160.992C95.2879 157.52 89.3316 157.829 85.8491 161.683C82.3666 165.536 82.6767 171.474 86.5417 174.946C90.4067 178.418 96.363 178.109 99.8455 174.255Z" fill="#AF8E2F"/>
<path d="M101.533 170.15C102.744 165.366 99.8363 160.509 95.0379 159.301C90.2394 158.094 85.3673 160.993 84.1558 165.776C82.9443 170.56 85.8521 175.417 90.6505 176.625C95.449 177.833 100.321 174.934 101.533 170.15Z" fill="#FFD840"/>
<path d="M99.8055 169.414C100.61 165.58 98.144 161.822 94.2984 161.02C90.4528 160.219 86.6835 162.677 85.8794 166.511C85.0753 170.345 87.5409 174.102 91.3865 174.904C95.2321 175.706 99.0014 173.248 99.8055 169.414Z" fill="#FFD325"/>
<path d="M91.398 168.534L90.1112 167.932L90.6137 166.892L91.9005 167.494C92.5076 167.778 93.2541 167.491 93.562 166.852C93.8699 166.212 93.6288 165.459 93.0217 165.175L91.6739 164.544L92.1765 163.504L93.5242 164.135C94.6745 164.674 95.1335 166.099 94.5496 167.312C93.9629 168.525 92.5512 169.073 91.4009 168.531L91.398 168.534Z" fill="#AF8E2F"/>
<path d="M95.4474 168.372L90.8638 166.223L91.3634 165.184L95.9499 167.332L95.4474 168.372Z" fill="#AF8E2F"/>
<path d="M96.2576 166.692L91.674 164.544L92.1765 163.504L96.7601 165.653L96.2576 166.692Z" fill="#AF8E2F"/>
<path d="M92.2258 171.827L91.1888 167.602L90.1169 167.935L90.9215 171.216L92.2258 171.827Z" fill="#AF8E2F"/>
<g style="mix-blend-mode:screen" opacity="0.23">
<path d="M101.942 170.417L98.2447 160.267C97.4749 159.731 96.6093 159.299 95.6653 159.004C95.5752 158.975 95.4852 158.955 95.3951 158.932L100.621 173.272C101.135 172.522 101.553 171.685 101.838 170.773C101.876 170.654 101.908 170.532 101.939 170.414L101.942 170.417Z" fill="#FFD325"/>
</g>
<g style="mix-blend-mode:screen" opacity="0.23">
<path d="M86.2334 161.28L92.0806 177.326C93.7247 177.462 95.3397 177.158 96.7862 176.495L90.3784 158.908C88.8215 159.331 87.3895 160.145 86.2334 161.28Z" fill="#FFD325"/>
</g>
<path d="M113.035 174.585C113.729 170.494 110.972 166.624 106.877 165.942C102.782 165.26 98.8993 168.024 98.2052 172.116C97.5111 176.208 100.268 180.077 104.363 180.759C108.458 181.441 112.341 178.677 113.035 174.585Z" fill="#AF8E2F"/>
<path d="M112.411 171.094C111.175 167.35 107.131 165.323 103.378 166.568C99.625 167.813 97.5847 171.858 98.8207 175.602C100.057 179.347 104.101 181.373 107.854 180.128C111.607 178.884 113.647 174.839 112.411 171.094Z" fill="#FFD840"/>
<path d="M110.931 171.339C109.827 168.41 106.553 166.934 103.617 168.044C100.68 169.154 99.1944 172.428 100.297 175.358C101.4 178.287 104.675 179.762 107.611 178.653C110.547 177.543 112.034 174.268 110.931 171.339Z" fill="#FFD325"/>
<path d="M104.886 174.354L103.76 174.5L103.652 173.583L104.778 173.437C105.309 173.368 105.69 172.855 105.622 172.291C105.555 171.727 105.07 171.323 104.539 171.393L103.359 171.545L103.252 170.629L104.431 170.476C105.438 170.346 106.359 171.109 106.486 172.178C106.611 173.247 105.894 174.222 104.886 174.351L104.886 174.354Z" fill="#AF8E2F"/>
<path d="M107.546 172.507L103.534 173.025L103.425 172.11L107.438 171.59L107.546 172.507Z" fill="#AF8E2F"/>
<path d="M107.371 171.027L103.359 171.545L103.252 170.629L107.264 170.11L107.371 171.027Z" fill="#AF8E2F"/>
<path d="M106.856 176.218L104.344 173.815L103.765 174.499L105.715 176.366L106.856 176.218Z" fill="#AF8E2F"/>
<g style="mix-blend-mode:screen" opacity="0.23">
<path d="M112.801 171.098L105.953 165.842C105.205 165.812 104.436 165.892 103.673 166.098C103.6 166.117 103.53 166.142 103.46 166.165L113.135 173.59C113.16 172.863 113.083 172.12 112.883 171.383C112.858 171.287 112.827 171.191 112.798 171.097L112.801 171.098Z" fill="#FFD325"/>
</g>
<g style="mix-blend-mode:screen" opacity="0.23">
<path d="M98.2916 171.68L109.118 179.987C110.285 179.373 111.243 178.476 111.934 177.408L100.068 168.302C99.2 169.256 98.5838 170.419 98.2916 171.68Z" fill="#FFD325"/>
</g>
<path d="M118.397 121.414C118.972 116.485 114.545 111.951 108.51 111.284C102.475 110.62 97.4308 115.679 97.2605 121.555C97.1161 126.513 101.979 134.515 109.374 132.693C117.828 130.611 118.282 122.41 118.397 121.414Z" fill="#161742"/>
<path d="M115.596 127.088L115.495 136.955C115.495 136.955 114.317 140.611 110.664 140.345C107.569 140.12 106.937 136.814 106.937 136.814L106.509 129.589L115.596 127.091V127.088Z" fill="#E27B60"/>
<path d="M115.553 131.382C112.974 133.758 108.926 135.214 106.879 135.838L106.509 129.589L115.596 127.091L115.553 131.382Z" fill="#161742"/>
<path d="M115.98 117.752C112.995 113.331 105.9 112 101.58 114.917C97.2635 117.833 97.3559 123.894 100.342 128.312C103.327 132.733 109.53 134.377 113.849 131.46C118.166 128.543 118.966 122.17 115.98 117.749V117.752Z" fill="#E27B60"/>
<path d="M111.375 116.684C111.222 116.418 110.468 116.562 109.694 117.01C108.92 117.458 108.418 118.035 108.571 118.304C108.724 118.569 109.478 118.425 110.251 117.977C111.025 117.53 111.528 116.952 111.375 116.684Z" fill="#161742"/>
<path d="M104.676 120.955C104.508 120.698 103.763 120.882 103.015 121.373C102.267 121.861 101.797 122.468 101.964 122.725C102.132 122.982 102.877 122.797 103.625 122.306C104.372 121.818 104.843 121.212 104.676 120.955Z" fill="#161742"/>
<path d="M103.861 123.349C103.52 123.789 103.601 124.423 104.041 124.765C104.481 125.106 105.114 125.025 105.456 124.585C105.798 124.145 105.717 123.511 105.276 123.17C104.836 122.828 104.203 122.909 103.861 123.349Z" fill="#161742"/>
<path d="M101.609 114.457C105.608 111.656 111.958 112.612 115.299 116.366C114.577 116.594 108.144 116.479 106.209 112.872C106.209 112.872 102.862 122.445 99.8247 122.904C99.8247 122.904 101.476 125.217 99.2328 127.328C96.4954 122.089 98.2482 116.814 101.612 114.457H101.609Z" fill="#161742"/>
<path d="M113.785 119.23C113.505 117.449 114.545 115.817 116.107 115.586C117.669 115.355 119.165 116.611 119.445 118.393C119.725 120.175 118.685 121.806 117.123 122.037C115.561 122.268 114.065 121.012 113.785 119.23Z" fill="#E27B60"/>
<path d="M116.11 120.157C116.092 120.157 116.072 120.157 116.055 120.149C115.948 120.12 115.884 120.007 115.913 119.898L116.733 116.967C116.765 116.857 116.878 116.796 116.985 116.825C117.091 116.854 117.155 116.967 117.126 117.076L116.306 120.007C116.28 120.097 116.199 120.155 116.11 120.155V120.157Z" fill="#161742"/>
<path d="M117.952 119.612C117.952 119.612 117.923 119.612 117.909 119.606L116.502 119.303C116.393 119.28 116.323 119.17 116.346 119.06C116.37 118.95 116.479 118.884 116.589 118.904L117.995 119.207C118.105 119.231 118.174 119.34 118.151 119.45C118.131 119.545 118.047 119.612 117.952 119.612Z" fill="#161742"/>
<path d="M102.729 127.476C101.513 126.142 99.5898 125.934 98.4348 127.011C97.2769 128.085 97.3231 130.037 98.5388 131.371C99.7544 132.705 101.677 132.913 102.832 131.836C103.99 130.762 103.944 128.81 102.729 127.476Z" fill="#E27B60"/>
<path d="M101.998 129.87C101.998 129.87 102.018 129.841 102.027 129.821C102.07 129.717 102.024 129.598 101.92 129.555L99.1191 128.365C99.0152 128.322 98.8968 128.371 98.8535 128.472C98.8102 128.576 98.8564 128.694 98.9603 128.738L101.761 129.927C101.848 129.965 101.943 129.936 102.001 129.867L101.998 129.87Z" fill="#161742"/>
<path d="M100.419 130.964C100.419 130.964 100.436 130.941 100.442 130.926L101.083 129.638C101.132 129.537 101.091 129.416 100.99 129.364C100.889 129.315 100.768 129.358 100.716 129.456L100.075 130.744C100.026 130.845 100.066 130.967 100.167 131.019C100.254 131.062 100.358 131.036 100.416 130.964H100.419Z" fill="#161742"/>
<path d="M111.369 120.908C111.918 120.908 112.363 120.464 112.363 119.915C112.363 119.367 111.918 118.922 111.369 118.922C110.821 118.922 110.376 119.367 110.376 119.915C110.376 120.464 110.821 120.908 111.369 120.908Z" fill="#161742"/>
<path d="M109.965 129.004C109.819 129.004 109.704 128.881 109.704 128.727C109.704 128.572 109.819 128.449 109.965 128.449C112.273 128.449 113.222 125.854 113.229 125.83C113.282 125.683 113.431 125.612 113.569 125.667C113.704 125.723 113.775 125.881 113.722 126.028C113.677 126.151 112.632 129.012 109.965 129.012V129.004Z" fill="#161742"/>
<path d="M99.4205 117.752C98.0402 119.958 94.965 120.524 92.554 119.014C90.14 117.504 89.3026 114.492 90.6829 112.286C92.0631 110.08 95.1383 109.514 97.5494 111.024C99.9633 112.534 100.801 115.546 99.4205 117.752Z" fill="#161742"/>
<path d="M96.5417 119.944C96.4348 119.944 96.3424 119.86 96.3395 119.75L95.9064 110.394C95.9006 110.282 95.9873 110.186 96.0999 110.181C96.2067 110.163 96.3078 110.262 96.3135 110.374L96.7467 119.73C96.7524 119.843 96.6658 119.938 96.5532 119.944C96.5503 119.944 96.5474 119.944 96.5445 119.944H96.5417Z" fill="white"/>
<path d="M96.3395 115.624C96.3395 115.624 96.3279 115.624 96.3193 115.624L90.0043 115.038C89.8917 115.026 89.8108 114.928 89.8195 114.815C89.831 114.703 89.9292 114.622 90.0418 114.631L96.3568 115.217C96.4694 115.228 96.5503 115.326 96.5416 115.439C96.533 115.546 96.4434 115.624 96.3395 115.624Z" fill="white"/>
<path d="M109.362 124.976C109.258 124.976 109.19 124.965 109.183 124.965C109.086 124.949 109.018 124.851 109.033 124.748C109.047 124.645 109.14 124.573 109.237 124.588C109.24 124.588 109.645 124.649 109.863 124.429C109.985 124.307 110.032 124.11 110.01 123.84C110 123.738 110.071 123.643 110.171 123.631C110.264 123.624 110.358 123.696 110.368 123.802C110.404 124.193 110.318 124.497 110.11 124.706C109.881 124.934 109.563 124.976 109.366 124.976H109.362Z" fill="#161742"/>
<path d="M93.5591 155.122C96.671 154.583 99.7971 154.117 102.93 153.723C104.497 153.526 106.066 153.346 107.637 153.184C108.791 153.067 109.795 152.653 110.894 152.423C111.127 152.372 112.591 156.876 112.722 157.292C113.049 158.328 113.344 159.374 113.605 160.429C113.747 161.011 114.516 162.34 114.341 162.919C114.222 163.306 112.753 163.907 112.378 164.116C111.559 164.575 110.714 164.984 109.859 165.373C108.198 166.133 106.498 166.808 104.846 167.596C101.262 169.308 97.4567 170.656 93.7585 172.084C92.1705 172.697 90.5184 173.12 88.9352 173.745C87.4516 174.331 85.9277 174.814 84.3658 175.132C82.3197 175.547 80.2617 175.903 78.1966 176.211C77.4299 176.326 76.6585 176.432 75.8846 176.389C74.1495 176.293 71.9609 175.348 71.3034 173.632C70.9972 172.831 70.6934 172.038 70.4014 171.24C70.1237 170.476 69.8412 169.69 69.8389 168.873C69.8389 168.397 69.9291 167.928 70.024 167.464C70.4442 165.359 71.0376 163.368 72.4404 161.7C73.7507 160.145 75.4692 158.931 77.3041 158.1C79.768 156.985 82.6378 156.643 85.3034 156.391C88.0783 156.129 90.7866 155.6 93.5567 155.122H93.5591Z" fill="#1D478E"/>
<path d="M74.4843 176.956C74.4353 176.924 74.4034 176.867 74.4059 176.804C74.4108 176.708 74.4917 176.635 74.5848 176.639C86.0119 177.147 112.157 164.205 114.252 163.156L110.905 152.787L78.9346 157.36C78.8415 157.372 78.7532 157.308 78.7385 157.213C78.7238 157.12 78.79 157.031 78.8856 157.017L111 152.424C111.084 152.412 111.165 152.461 111.189 152.542L114.625 163.192C114.652 163.273 114.615 163.361 114.539 163.401C114.26 163.543 86.5069 177.517 74.5676 176.985C74.5358 176.985 74.5064 176.973 74.4819 176.958L74.4843 176.956Z" fill="#161742"/>
<path d="M118.86 162.101L113.567 163.591C112.687 163.84 111.792 163.28 111.582 162.347C111.365 161.389 111.956 160.424 112.875 160.238L118.251 159.146C119.042 158.985 119.794 159.54 119.923 160.375C120.042 161.149 119.581 161.899 118.863 162.101H118.86Z" fill="#E27B60"/>
<path d="M117.999 155.941L111.586 157.342C110.89 157.494 110.384 158.145 110.371 158.906V159.063C110.351 160.099 111.239 160.872 112.186 160.643L118.601 159.088C119.371 158.902 119.881 158.11 119.769 157.275C119.646 156.366 118.84 155.762 117.999 155.945V155.941Z" fill="#E27B60"/>
<path d="M117.694 154.757C117.766 155.446 117.325 156.086 116.66 156.259L112.426 157.353C111.741 157.53 111.033 157.156 110.785 156.487L110.662 156.154C110.36 155.332 110.87 154.437 111.725 154.287L116.083 153.526C116.873 153.387 117.611 153.953 117.694 154.757Z" fill="#E27B60"/>
<path d="M116.264 152.507C116.233 153.056 115.87 153.523 115.387 153.64L111.875 154.473C111.302 154.609 110.754 154.208 110.642 153.575L110.572 153.174C110.451 152.478 110.904 151.8 111.539 151.722L115.12 151.287C115.765 151.209 116.302 151.784 116.262 152.505L116.264 152.507Z" fill="#E27B60"/>
<path d="M111.844 160.74C111.844 160.74 111.846 160.744 111.848 160.746C111.895 160.802 111.98 160.809 112.036 160.762C112.222 160.601 112.647 160.424 112.9 160.373L118.578 159.148C118.623 159.137 119.509 158.889 119.885 158.184C120.08 157.821 120.103 157.407 119.953 156.953C119.402 155.269 117.009 155.93 116.859 155.972L113.464 156.648C113.209 156.7 111.833 157.042 111.488 157.154C111.418 157.176 111.38 157.252 111.403 157.324C111.425 157.396 111.499 157.434 111.571 157.411C111.911 157.302 113.267 156.964 113.518 156.912L116.92 156.236C116.92 156.236 116.929 156.236 116.933 156.234C116.956 156.227 119.218 155.558 119.704 157.04C119.83 157.42 119.814 157.765 119.655 158.058C119.333 158.663 118.529 158.886 118.52 158.889L112.851 160.111C112.56 160.169 112.094 160.364 111.868 160.561C111.815 160.608 111.806 160.688 111.848 160.744L111.844 160.74Z" fill="#161742"/>
<path d="M111.094 154.468C111.127 154.513 111.186 154.533 111.239 154.515C111.575 154.405 113.663 154.007 114.015 153.953C114.344 153.904 115.411 153.703 115.456 153.694C115.476 153.689 117.466 153.34 117.705 154.636C117.79 155.093 117.605 155.469 117.152 155.753C116.794 155.979 116.4 156.059 116.398 156.062C116.327 156.077 116.28 156.147 116.293 156.221C116.306 156.294 116.378 156.341 116.45 156.326C117.063 156.203 118.171 155.679 117.967 154.587C117.737 153.338 116.192 153.284 115.407 153.429C115.396 153.429 114.299 153.638 113.974 153.687C113.643 153.736 111.523 154.139 111.156 154.258C111.087 154.28 111.049 154.356 111.071 154.428C111.076 154.443 111.083 154.457 111.091 154.468H111.094Z" fill="#161742"/>
<path d="M113.312 163.786C113.343 163.828 113.397 163.849 113.451 163.835C113.484 163.826 116.873 162.958 118.247 162.591C119.697 162.203 120.409 161.344 120.203 160.229C119.957 158.895 118.565 158.88 118.551 158.88C118.477 158.88 118.417 158.94 118.417 159.014C118.417 159.088 118.475 159.148 118.549 159.148C118.598 159.148 119.733 159.166 119.941 160.279C120.123 161.25 119.496 161.98 118.18 162.331C116.806 162.698 113.419 163.567 113.386 163.573C113.314 163.591 113.271 163.665 113.289 163.737C113.294 163.755 113.303 163.77 113.312 163.786Z" fill="#161742"/>
<rect x="122.359" y="164.981" width="26.26" height="11.4174" fill="#1D478E"/>
<path d="M122.531 176.97C122.435 176.97 122.359 176.906 122.359 176.829V165.122C122.359 165.043 122.435 164.981 122.531 164.981H149.017C149.113 164.981 149.189 165.045 149.189 165.122C149.189 165.198 149.111 165.262 149.017 165.262H122.703V176.829C122.703 176.908 122.624 176.97 122.531 176.97Z" fill="#161742"/>
<path d="M120.606 164.692L126.265 165.041C127.207 165.098 127.887 165.947 127.774 166.926C127.659 167.931 126.757 168.67 125.797 168.538L120.193 167.775C119.37 167.662 118.825 166.868 118.985 166.012C119.132 165.218 119.836 164.646 120.604 164.692H120.606Z" fill="#E27B60"/>
<path d="M119.351 170.979L126.067 171.798C126.796 171.886 127.511 171.424 127.781 170.691L127.836 170.541C128.206 169.537 127.603 168.483 126.605 168.386L119.834 167.719C119.019 167.638 118.253 168.236 118.08 169.087C117.891 170.012 118.47 170.875 119.351 170.984V170.979Z" fill="#E27B60"/>
<path d="M119.243 172.234C119.409 171.538 120.055 171.067 120.761 171.125L125.253 171.498C125.979 171.558 126.542 172.163 126.554 172.899L126.561 173.266C126.574 174.168 125.774 174.867 124.89 174.721L120.392 173.981C119.577 173.847 119.049 173.046 119.243 172.234Z" fill="#E27B60"/>
<path d="M119.87 174.908C120.087 174.385 120.599 174.052 121.109 174.105L124.81 174.488C125.414 174.551 125.811 175.127 125.705 175.78L125.638 176.193C125.52 176.911 124.849 177.418 124.203 177.278L120.572 176.482C119.919 176.339 119.589 175.598 119.875 174.908H119.87Z" fill="#E27B60"/>
<path d="M126.969 168.402C126.969 168.402 126.969 168.398 126.967 168.395C126.939 168.324 126.86 168.289 126.789 168.317C126.554 168.409 126.081 168.439 125.815 168.402L119.875 167.662C119.829 167.657 118.881 167.597 118.276 168.155C117.965 168.444 117.801 168.838 117.792 169.33C117.757 171.155 120.309 171.325 120.468 171.335L124.002 171.833C124.267 171.87 125.723 172.004 126.099 172.013C126.175 172.013 126.238 171.953 126.24 171.877C126.24 171.801 126.182 171.736 126.106 171.736C125.737 171.727 124.304 171.595 124.041 171.558L120.502 171.06C120.502 171.06 120.493 171.06 120.489 171.06C120.463 171.06 118.034 170.94 118.066 169.334C118.073 168.921 118.207 168.594 118.461 168.358C118.98 167.881 119.838 167.934 119.847 167.936L125.781 168.677C126.083 168.718 126.602 168.686 126.89 168.573C126.96 168.545 126.994 168.469 126.971 168.4L126.969 168.402Z" fill="#161742"/>
<path d="M125.566 174.761C125.548 174.707 125.499 174.666 125.439 174.666C125.075 174.659 122.909 174.338 122.549 174.269C122.212 174.205 121.105 174.038 121.058 174.031C121.038 174.029 118.982 173.692 119.19 172.35C119.264 171.877 119.573 171.574 120.108 171.452C120.532 171.355 120.943 171.408 120.948 171.408C121.024 171.418 121.093 171.364 121.102 171.291C121.114 171.215 121.061 171.145 120.987 171.136C120.348 171.048 119.093 171.18 118.918 172.31C118.719 173.605 120.203 174.181 121.015 174.308C121.026 174.308 122.164 174.481 122.496 174.546C122.835 174.611 125.033 174.94 125.433 174.947C125.509 174.947 125.571 174.887 125.573 174.811C125.573 174.795 125.573 174.779 125.566 174.765V174.761Z" fill="#161742"/>
<path d="M126.577 164.939C126.561 164.889 126.514 164.849 126.459 164.845C126.422 164.842 122.83 164.536 121.368 164.425C119.826 164.307 118.839 164.902 118.661 166.058C118.449 167.44 119.796 167.927 119.81 167.934C119.882 167.959 119.96 167.92 119.986 167.849C120.011 167.777 119.974 167.699 119.903 167.673C119.856 167.657 118.756 167.253 118.934 166.1C119.088 165.092 119.944 164.596 121.344 164.702C122.807 164.812 126.397 165.119 126.434 165.122C126.51 165.128 126.577 165.071 126.584 164.995C126.584 164.976 126.584 164.958 126.577 164.939Z" fill="#161742"/>
<path d="M71.5826 32.2809C73.1158 34.3226 76.9889 34.1771 81.2462 32.2273L74.3761 23.0566C71.2945 26.5732 70.0534 30.2391 71.5826 32.2809Z" fill="#AF8E2F"/>
<path d="M76.8853 20.5935L84.3279 30.5226C84.8006 30.22 85.2693 29.902 85.7381 29.5573L78.2147 19.5171C77.7536 19.8657 77.3118 20.2258 76.8891 20.5897L76.8853 20.5935Z" fill="#AF8E2F"/>
<path d="M91.0917 14.5462L70.0449 30.2261L71.8896 32.687L92.9364 17.0072L91.0917 14.5462Z" fill="#AF8E2F"/>
<path d="M92.6277 16.602C91.3827 14.9433 88.5932 14.7288 85.3041 15.7515L91.3674 23.8419C93.2847 20.9881 93.8687 18.2606 92.6277 16.5981V16.602Z" fill="#AF8E2F"/>
<path d="M74.3722 23.0567L81.2424 32.2273C82.2568 31.7638 83.2904 31.1892 84.324 30.5265L76.8813 20.5974C75.9514 21.3942 75.1061 22.2216 74.3722 23.0605V23.0567Z" fill="#D6B11E"/>
<path d="M78.3412 19.4213C78.2951 19.4558 78.2567 19.4903 78.2106 19.5209L85.734 29.5611C85.7801 29.5266 85.8223 29.4998 85.8684 29.4653C88.2008 27.7262 90.0835 25.7611 91.3707 23.8457L85.3074 15.7554C83.1019 16.4411 80.6774 17.686 78.3451 19.4213H78.3412Z" fill="#D6B11E"/>
<path d="M84.7485 27.9657C90.5604 23.6358 93.5862 17.8768 91.5067 15.1026C89.4273 12.3283 83.03 13.5895 77.2181 17.9193C71.4062 22.2492 68.3804 28.0082 70.4599 30.7825C72.5394 33.5567 78.9366 32.2956 84.7485 27.9657Z" fill="#AF8E2F"/>
<path d="M84.4674 27.5912C90.2793 23.2613 93.3051 17.5023 91.2256 14.7281C89.1461 11.9538 82.7489 13.2149 76.937 17.5448C71.1251 21.8747 68.0993 27.6337 70.1788 30.408C72.2582 33.1822 78.6555 31.9211 84.4674 27.5912Z" fill="#FFD840"/>
<path d="M83.6001 26.4344C88.2221 22.991 90.6714 18.4686 89.0709 16.3333C87.4703 14.1979 82.4259 15.2583 77.8039 18.7017C73.1819 22.1451 70.7326 26.6676 72.3331 28.8029C73.9337 30.9382 78.9781 29.8778 83.6001 26.4344Z" fill="#FFD325"/>
<path d="M78.5602 24.7154L76.7312 24.9988L77.3575 23.7041L79.1865 23.4206C80.051 23.2865 81.0654 22.5281 81.4535 21.7313C81.8416 20.9345 81.4535 20.3944 80.589 20.5285L78.6755 20.8234L79.3018 19.5287L81.2153 19.2337C82.8483 18.9809 83.586 20.0037 82.8521 21.5168C82.1182 23.0261 80.1932 24.4626 78.5602 24.7154Z" fill="#AF8E2F"/>
<path d="M84.174 21.9112L77.6611 22.9187L78.2874 21.6239L84.8003 20.6165L84.174 21.9112Z" fill="#AF8E2F"/>
<path d="M85.1885 19.8158L78.6757 20.8271L79.302 19.5324L85.8148 18.5249L85.1885 19.8158Z" fill="#AF8E2F"/>
<path d="M79.9319 27.2398L78.2067 23.9875L76.7389 24.9988L78.076 27.5233L79.9319 27.2398Z" fill="#AF8E2F"/>
<path d="M60.069 97.1939C58.4692 99.1791 59.5806 102.887 62.5382 106.519L69.7244 97.6036C65.5386 95.4994 61.6738 95.2066 60.0726 97.1953L60.069 97.1939Z" fill="#AF8E2F"/>
<path d="M72.7381 99.4164L64.9583 109.069C65.3693 109.447 65.7974 109.823 66.2453 110.191L74.111 100.432C73.6554 100.074 73.1966 99.7347 72.7381 99.4164Z" fill="#AF8E2F"/>
<path d="M82.1627 111.644L61.6801 95.2004L59.7519 97.5934L80.2345 114.037L82.1627 111.644Z" fill="#AF8E2F"/>
<path d="M80.5486 113.64C81.8509 112.025 81.3574 109.274 79.5435 106.353L73.2043 114.222C76.4526 115.366 79.2498 115.256 80.5521 113.641L80.5486 113.64Z" fill="#AF8E2F"/>
<path d="M69.7212 97.602L62.5349 106.517C63.2382 107.38 64.0571 108.242 64.9574 109.073L72.7372 99.4201C71.7293 98.7201 70.7165 98.1085 69.7199 97.6056L69.7212 97.602Z" fill="#D6B11E"/>
<path d="M74.2453 100.532C74.2005 100.499 74.1593 100.467 74.1145 100.433L66.2488 110.192C66.2922 110.229 66.3321 110.265 66.3733 110.297C68.6426 112.122 71.026 113.453 73.202 114.217L79.5412 106.348C78.3231 104.387 76.5124 102.352 74.2417 100.531L74.2453 100.532Z" fill="#D6B11E"/>
<path d="M81.7175 112.182C83.8911 109.485 81.068 103.617 75.4119 99.076C69.7557 94.5352 63.4085 93.0409 61.2349 95.7385C59.0614 98.436 61.8845 104.304 67.5406 108.845C73.1967 113.386 79.544 114.88 81.7175 112.182Z" fill="#AF8E2F"/>
<path d="M82.0147 111.817C84.1882 109.119 81.3651 103.251 75.709 98.7103C70.0529 94.1695 63.7056 92.6752 61.532 95.3727C59.3585 98.0703 62.1816 103.938 67.8377 108.479C73.4939 113.02 79.8411 114.514 82.0147 111.817Z" fill="#FFD840"/>
<path d="M79.9186 110.136C78.2469 112.213 73.2435 110.969 68.7448 107.356C64.2497 103.744 61.9564 99.1352 63.633 97.0564C65.3047 94.9798 70.3081 96.2232 74.8068 99.8364C79.302 103.448 81.5952 108.057 79.9186 110.136Z" fill="#FFD325"/>
<path d="M69.1574 102.057L68.4268 100.36L69.8398 100.644L70.5704 102.341C70.9152 103.141 71.9034 103.936 72.7738 104.112C73.6443 104.288 74.0727 103.779 73.7279 102.979L72.9617 101.203L74.3747 101.488L75.1409 103.264C75.7963 104.781 74.9856 105.742 73.3349 105.412C71.6843 105.082 69.8114 103.577 69.156 102.06L69.1574 102.057Z" fill="#AF8E2F"/>
<path d="M73.2837 106.787L70.6781 100.742L72.0911 101.027L74.6967 107.071L73.2837 106.787Z" fill="#AF8E2F"/>
<path d="M75.571 107.249L72.9618 101.203L74.3748 101.488L76.984 107.533L75.571 107.249Z" fill="#AF8E2F"/>
<path d="M67.0521 104.009L69.7749 101.538L68.4278 100.368L66.3091 102.291L67.0521 104.009Z" fill="#AF8E2F"/>
<path d="M149.583 90.5346C152.013 91.305 155.065 88.924 157.376 84.8498L146.461 81.3887C146.019 86.0528 147.149 89.7604 149.583 90.5308L149.583 90.5346Z" fill="#AF8E2F"/>
<path d="M147.057 77.9227L158.875 81.6694C159.078 81.1492 159.273 80.6137 159.453 80.063L147.505 76.2749C147.336 76.8294 147.187 77.3799 147.057 77.9227Z" fill="#AF8E2F"/>
<path d="M155.031 64.7035L147.141 89.7571L150.071 90.6854L157.96 65.6318L155.031 64.7035Z" fill="#AF8E2F"/>
<path d="M157.476 65.4833C155.499 64.8557 153.115 66.3136 151.05 69.0641L160.684 72.1156C160.571 68.6735 159.453 66.107 157.476 65.4794L157.476 65.4833Z" fill="#AF8E2F"/>
<path d="M146.461 81.3924L157.377 84.8535C157.925 83.8852 158.431 82.8095 158.879 81.669L147.061 77.9222C146.774 79.1154 146.572 80.2811 146.465 81.3924L146.461 81.3924Z" fill="#D6B11E"/>
<path d="M147.55 76.1132C147.535 76.1671 147.52 76.2171 147.505 76.271L159.453 80.0591C159.472 80.0052 159.491 79.9551 159.506 79.905C160.382 77.1283 160.758 74.4244 160.68 72.1195L151.047 69.068C149.662 70.9146 148.423 73.3404 147.55 76.117L147.55 76.1132Z" fill="#D6B11E"/>
<path d="M155.694 64.9229C152.392 63.8763 147.948 68.6364 145.769 75.5548C143.591 82.4731 144.502 88.9299 147.804 89.9765C151.106 91.023 155.55 86.2629 157.729 79.3445C159.907 72.4262 158.996 65.9694 155.694 64.9229Z" fill="#AF8E2F"/>
<path d="M155.245 64.7788C151.943 63.7323 147.499 68.4924 145.321 75.4107C143.142 82.3291 144.053 88.7859 147.355 89.8324C150.658 90.8789 155.101 86.1189 157.28 79.2005C159.458 72.2821 158.548 65.8253 155.245 64.7788Z" fill="#FFD840"/>
<path d="M154.44 67.3417C156.982 68.1458 157.639 73.2593 155.904 78.7626C154.17 84.262 150.707 88.0715 148.162 87.2635C145.62 86.4594 144.963 81.3459 146.697 75.8426C148.432 70.3432 151.894 66.5337 154.44 67.3417Z" fill="#FFD325"/>
<path d="M150.816 80.301L149.5 81.5976L149.253 80.1777L150.569 78.8811C151.189 78.2695 151.571 77.0603 151.419 76.1853C151.267 75.3103 150.638 75.0957 150.018 75.7073L148.64 77.0658L148.393 75.6458L149.77 74.2873C150.945 73.1262 152.136 73.5327 152.427 75.1906C152.719 76.8484 151.996 79.1399 150.82 80.301L150.816 80.301Z" fill="#AF8E2F"/>
<path d="M153.727 74.7395L149.04 79.3609L148.792 77.9409L153.479 73.3196L153.727 74.7395Z" fill="#AF8E2F"/>
<path d="M153.327 72.4408L148.641 77.0659L148.393 75.646L153.079 71.0208L153.327 72.4408Z" fill="#AF8E2F"/>
<path d="M153.4 81.5546L150.109 79.9142L149.508 81.5938L152.068 82.8705L153.4 81.5546Z" fill="#AF8E2F"/>
<path d="M175.956 26.9769C174.356 28.962 175.468 32.6695 178.425 36.302L185.611 27.3865C181.426 25.2823 177.561 24.9896 175.96 26.9783L175.956 26.9769Z" fill="#AF8E2F"/>
<path d="M188.625 29.1997L180.845 38.8522C181.256 39.2303 181.684 39.6067 182.132 39.9742L189.998 30.215C189.542 29.8568 189.083 29.5179 188.625 29.1997Z" fill="#AF8E2F"/>
<path d="M198.049 41.4272L177.567 24.9834L175.639 27.3763L196.121 43.8201L198.049 41.4272Z" fill="#AF8E2F"/>
<path d="M196.436 43.4226C197.738 41.8078 197.244 39.0574 195.43 36.1356L189.091 44.0048C192.34 45.1489 195.137 45.0387 196.439 43.4239L196.436 43.4226Z" fill="#AF8E2F"/>
<path d="M185.608 27.3852L178.422 36.3006C179.125 37.1632 179.944 38.0247 180.844 38.8558L188.624 29.2033C187.616 28.5033 186.603 27.8917 185.606 27.3888L185.608 27.3852Z" fill="#D6B11E"/>
<path d="M190.132 30.3155C190.087 30.282 190.046 30.2499 190.001 30.2164L182.136 39.9756C182.179 40.0127 182.219 40.0484 182.26 40.0805C184.529 41.905 186.913 43.2359 189.089 43.9999L195.428 36.1308C194.21 34.17 192.399 32.135 190.129 30.3141L190.132 30.3155Z" fill="#D6B11E"/>
<path d="M197.604 41.9654C199.778 39.2679 196.955 33.4 191.299 28.8592C185.643 24.3184 179.295 22.8241 177.122 25.5217C174.948 28.2192 177.771 34.0871 183.427 38.6279C189.084 43.1687 195.431 44.663 197.604 41.9654Z" fill="#AF8E2F"/>
<path d="M197.902 41.5995C200.075 38.9019 197.252 33.0341 191.596 28.4933C185.94 23.9524 179.592 22.4582 177.419 25.1557C175.245 27.8533 178.068 33.7211 183.725 38.2619C189.381 42.8027 195.728 44.297 197.902 41.5995Z" fill="#FFD840"/>
<path d="M195.805 39.9191C194.134 41.9957 189.13 40.7524 184.632 37.1391C180.136 33.5272 177.843 28.9182 179.52 26.8393C181.192 24.7627 186.195 26.0061 190.694 29.6194C195.189 33.2313 197.482 37.8403 195.805 39.9191Z" fill="#FFD325"/>
<path d="M185.044 31.8398L184.314 30.1428L185.727 30.4273L186.457 32.1243C186.802 32.924 187.79 33.7189 188.661 33.895C189.531 34.071 189.96 33.5621 189.615 32.7623L188.849 30.9862L190.262 31.2707L191.028 33.0469C191.683 34.5635 190.872 35.5253 189.222 35.1953C187.571 34.8653 185.698 33.36 185.043 31.8433L185.044 31.8398Z" fill="#AF8E2F"/>
<path d="M189.171 36.5697L186.565 30.5256L187.978 30.8102L190.584 36.8543L189.171 36.5697Z" fill="#AF8E2F"/>
<path d="M191.458 37.0316L188.849 30.9861L190.262 31.2706L192.871 37.3161L191.458 37.0316Z" fill="#AF8E2F"/>
<path d="M182.939 33.792L185.662 31.3207L184.315 30.1512L182.196 32.0738L182.939 33.792Z" fill="#AF8E2F"/>
<path d="M152.278 2.77081L150.26 0.341553L146.198 3.7259L148.215 6.15516L152.278 2.77081Z" fill="#AF8E2F"/>
<path d="M148.216 6.15582L146.198 3.72656L142.109 7.13298L144.127 9.56224L148.216 6.15582Z" fill="#D6B11E"/>
<path d="M144.125 9.56311L142.107 7.13335L136.757 11.5922L138.808 13.9904L144.125 9.56311Z" fill="#AF8E2F"/>
<path d="M136.758 11.5921L131.822 15.7042L133.836 18.1321L138.808 13.9903L136.758 11.5921Z" fill="#D6B11E"/>
<path d="M187.463 126.904C192.069 121.807 191.659 113.952 186.547 109.36C181.434 104.767 173.555 105.176 168.948 110.273C164.341 115.37 164.752 123.225 169.864 127.818C174.977 132.41 182.856 132.001 187.463 126.904Z" fill="#AF8E2F"/>
<path d="M189.694 121.474C191.297 115.146 187.45 108.721 181.103 107.123C174.755 105.526 168.311 109.36 166.708 115.688C165.105 122.017 168.952 128.442 175.299 130.039C181.647 131.637 188.092 127.802 189.694 121.474Z" fill="#FFD840"/>
<path d="M187.41 120.5C188.473 115.429 185.212 110.458 180.125 109.397C175.038 108.337 170.052 111.589 168.988 116.66C167.924 121.732 171.186 126.702 176.273 127.763C181.36 128.823 186.346 125.572 187.41 120.5Z" fill="#FFD325"/>
<path d="M176.288 119.336L174.586 118.539L175.251 117.164L176.953 117.961C177.756 118.336 178.744 117.957 179.151 117.111C179.558 116.264 179.239 115.268 178.436 114.893L176.653 114.058L177.318 112.682L179.101 113.517C180.622 114.23 181.23 116.115 180.457 117.72C179.681 119.325 177.814 120.049 176.292 119.332L176.288 119.336Z" fill="#AF8E2F"/>
<path d="M181.645 119.122L175.581 116.279L176.242 114.904L182.309 117.746L181.645 119.122Z" fill="#AF8E2F"/>
<path d="M182.716 116.9L176.653 114.058L177.318 112.682L183.381 115.525L182.716 116.9Z" fill="#AF8E2F"/>
<path d="M177.383 123.692L176.011 118.103L174.594 118.543L175.658 122.883L177.383 123.692Z" fill="#AF8E2F"/>
<g style="mix-blend-mode:screen" opacity="0.23">
<path d="M190.236 121.827L185.345 108.4C184.327 107.692 183.182 107.121 181.933 106.73C181.814 106.692 181.695 106.665 181.576 106.634L188.488 125.604C189.168 124.612 189.722 123.505 190.098 122.298C190.148 122.141 190.19 121.98 190.233 121.823L190.236 121.827Z" fill="#FFD325"/>
</g>
<g style="mix-blend-mode:screen" opacity="0.23">
<path d="M169.457 109.741L177.191 130.967C179.366 131.147 181.502 130.744 183.416 129.867L174.94 106.604C172.88 107.163 170.986 108.239 169.457 109.741Z" fill="#FFD325"/>
</g>
<path d="M93.5443 54.233L90.9608 56.0444L94.0113 60.3684L96.5947 58.5569L93.5443 54.233Z" fill="#AF8E2F"/>
<path d="M96.5985 58.5579L94.015 60.3694L97.0854 64.7215L99.6688 62.91L96.5985 58.5579Z" fill="#D6B11E"/>
<path d="M99.6708 62.9053L97.0887 64.7172L101.108 70.4134L103.663 68.5632L99.6708 62.9053Z" fill="#AF8E2F"/>
<path d="M101.108 70.4134L104.816 75.6691L107.398 73.8572L103.663 68.5632L101.108 70.4134Z" fill="#D6B11E"/>
</g>
<defs>
<clipPath id="clip0_282_38453">
<rect width="270" height="183" fill="white"/>
</clipPath>
<clipPath id="clip1_282_38453">
<rect width="167.265" height="105.611" fill="white" transform="translate(51 71.3589)"/>
</clipPath>
</defs>
</svg>
