<svg width="24" height="25" viewBox="0 0 24 25" fill="none" xmlns="http://www.w3.org/2000/svg">
<circle cx="12" cy="12.738" r="12" fill="#5BC4F0" fill-opacity="0.2"/>
<mask id="mask0_2_37687" style="mask-type:alpha" maskUnits="userSpaceOnUse" x="4" y="4" width="16" height="17">
<rect x="4" y="4.73804" width="16" height="16" fill="#D9D9D9"/>
</mask>
<g mask="url(#mask0_2_37687)">
<path d="M15.0738 18.738C14.6315 18.738 14.2564 18.5835 13.9487 18.2744C13.641 17.9653 13.4872 17.5899 13.4872 17.1484C13.4872 17.0817 13.5167 16.9133 13.5757 16.6432L8.777 13.7944C8.63333 13.961 8.45711 14.0916 8.24833 14.186C8.03944 14.2805 7.81567 14.3277 7.577 14.3277C7.13889 14.3277 6.76656 14.1718 6.46 13.8599C6.15333 13.5479 6 13.1739 6 12.738C6 12.3021 6.15333 11.9282 6.46 11.6162C6.76656 11.3043 7.13889 11.1484 7.577 11.1484C7.81567 11.1484 8.03944 11.1956 8.24833 11.29C8.45711 11.3845 8.63333 11.515 8.777 11.6817L13.5757 8.8457C13.5449 8.75937 13.5224 8.6737 13.5083 8.5887C13.4942 8.50359 13.4872 8.41659 13.4872 8.3277C13.4872 7.88615 13.642 7.51082 13.9517 7.2017C14.2614 6.89259 14.6376 6.73804 15.08 6.73804C15.5224 6.73804 15.8975 6.89287 16.2052 7.20254C16.5128 7.51231 16.6667 7.88843 16.6667 8.33087C16.6667 8.7732 16.5121 9.14826 16.203 9.45604C15.8939 9.7637 15.5186 9.91754 15.077 9.91754C14.8359 9.91754 14.6137 9.86815 14.4103 9.76937C14.2069 9.6707 14.0333 9.53804 13.8897 9.37137L9.091 12.22C9.12178 12.3064 9.14422 12.3921 9.15833 12.4772C9.17244 12.5622 9.1795 12.6491 9.1795 12.738C9.1795 12.8269 9.17244 12.9139 9.15833 12.9989C9.14422 13.084 9.12178 13.1697 9.091 13.256L13.8897 16.1047C14.0333 15.938 14.2069 15.8054 14.4103 15.7067C14.6137 15.6079 14.8359 15.5585 15.077 15.5585C15.5186 15.5585 15.8939 15.7134 16.203 16.023C16.5121 16.3328 16.6667 16.7089 16.6667 17.1514C16.6667 17.5938 16.5118 17.9689 16.2022 18.2765C15.8924 18.5842 15.5163 18.738 15.0738 18.738ZM15.077 18.0714C15.3384 18.0714 15.5577 17.9829 15.7347 17.806C15.9116 17.629 16 17.4098 16 17.1484C16 16.8868 15.9116 16.6675 15.7347 16.4905C15.5577 16.3136 15.3384 16.2252 15.077 16.2252C14.8154 16.2252 14.5962 16.3136 14.4192 16.4905C14.2423 16.6675 14.1538 16.8868 14.1538 17.1484C14.1538 17.4098 14.2423 17.629 14.4192 17.806C14.5962 17.9829 14.8154 18.0714 15.077 18.0714ZM7.577 13.661C7.84211 13.661 8.06433 13.5726 8.24367 13.3957C8.42311 13.2188 8.51283 12.9996 8.51283 12.738C8.51283 12.4765 8.42311 12.2573 8.24367 12.0804C8.06433 11.9035 7.84211 11.815 7.577 11.815C7.319 11.815 7.10278 11.9035 6.92833 12.0804C6.75389 12.2573 6.66667 12.4765 6.66667 12.738C6.66667 12.9996 6.75389 13.2188 6.92833 13.3957C7.10278 13.5726 7.319 13.661 7.577 13.661ZM15.077 9.25087C15.3384 9.25087 15.5577 9.16243 15.7347 8.98554C15.9116 8.80854 16 8.58926 16 8.3277C16 8.06626 15.9116 7.84704 15.7347 7.67004C15.5577 7.49315 15.3384 7.4047 15.077 7.4047C14.8154 7.4047 14.5962 7.49315 14.4192 7.67004C14.2423 7.84704 14.1538 8.06626 14.1538 8.3277C14.1538 8.58926 14.2423 8.80854 14.4192 8.98554C14.5962 9.16243 14.8154 9.25087 15.077 9.25087Z" fill="#1D478E"/>
</g>
</svg>
