<svg width="270" height="183" viewBox="0 0 270 183" fill="none" xmlns="http://www.w3.org/2000/svg">
<rect width="270" height="183" fill="white"/>
<g clip-path="url(#clip0_282_39254)">
<path d="M101.855 101.651L101.987 101.379C83.8106 92.8287 80.568 85.6745 75.661 74.8463C73.9231 71.0118 71.9575 66.6738 69.054 61.6346C76.3734 62.1982 82.917 64.3072 88.5086 67.9056C93.0404 70.8221 96.962 74.7178 100.163 79.4857C105.62 87.6108 107.11 95.5576 107.124 95.6369L107.423 95.5817C107.408 95.5016 105.91 87.5033 100.423 79.3276C97.1984 74.5232 93.2478 70.597 88.6809 67.6567C82.9722 63.9816 76.2805 61.8475 68.7916 61.3139L68.5056 61.2932L68.6486 61.5393C71.6231 66.6715 73.6214 71.081 75.3848 74.9715C80.3192 85.8604 83.5794 93.054 101.856 101.652L101.855 101.651Z" fill="#1D478E"/>
<path d="M103.276 97.8449L103.526 97.6725C103.399 97.4907 90.7106 79.3469 79.9698 70.6426L79.7766 70.8762C90.4856 79.5542 103.149 97.6629 103.276 97.8449Z" fill="#1D478E"/>
<path d="M87.8203 78.4712L88.1013 78.3558C88.0848 78.3159 86.4748 74.3275 87.1693 69.6596L86.8693 69.6179C86.1628 74.3708 87.8038 78.4313 87.8205 78.4717L87.8203 78.4712Z" fill="#1D478E"/>
<path d="M93.878 85.5166L94.0044 85.2429C89.8781 83.3884 85.5838 83.9321 85.5412 83.9375L85.5798 84.2356C85.6217 84.2298 89.8333 83.6991 93.878 85.5166Z" fill="#1D478E"/>
<path d="M94.9918 113.976L94.916 113.685C89.5792 115.084 84.1386 113.215 78.2841 107.969C73.0975 103.321 68.2725 96.7156 63.6064 90.3281C60.5815 86.1868 57.7199 82.2702 54.868 79.0171C71.0454 77.2012 81.4868 86.5538 81.5912 86.649L81.7974 86.4274C81.6912 86.3305 71.0304 76.7752 54.5467 78.7521L54.2602 78.7866L54.4497 79.0011C57.3554 82.2857 60.2722 86.2788 63.3602 90.5063C68.0352 96.9062 72.8697 103.524 78.0799 108.192C84.016 113.512 89.5479 115.403 94.9913 113.976L94.9918 113.976Z" fill="#1D478E"/>
<path d="M93.6943 106.588L93.9121 106.378C93.754 106.217 78.0037 90.2365 68.6684 87.3487L68.5763 87.6357C72.4031 88.8195 77.957 92.47 84.6391 98.1919C89.6953 102.522 93.6545 106.549 93.6943 106.588Z" fill="#1D478E"/>
<path d="M77.6208 92.5326L77.8815 92.3774C77.8694 92.3577 76.6646 90.334 74.3666 85.218L74.0895 85.3423C76.3966 90.4779 77.6086 92.5128 77.6208 92.5326Z" fill="#1D478E"/>
<path d="M85.4958 98.9076L85.5714 98.6157C85.5222 98.6036 80.5803 97.3976 74.955 98.1459L74.9936 98.444C80.5617 97.703 85.4472 98.8953 85.4956 98.9071L85.4958 98.9076Z" fill="#1D478E"/>
</g>
<path d="M169.164 40.9453C169.164 52.5131 159.552 61.8906 147.695 61.8906C135.839 61.8906 126.227 52.5131 126.227 40.9453C126.227 29.3775 135.839 20 147.695 20C159.552 20 169.164 29.3775 169.164 40.9453Z" fill="#5BC4F0" fill-opacity="0.1"/>
<path d="M129.616 112.545C129.616 135.072 110.898 153.333 87.8079 153.333C64.718 153.333 46 135.072 46 112.545C46 90.0186 64.718 71.7571 87.8079 71.7571C110.898 71.7571 129.616 90.0186 129.616 112.545Z" fill="#5BC4F0" fill-opacity="0.1"/>
<g clip-path="url(#clip1_282_39254)">
<path d="M178.8 44.8667H99.457C96.7112 44.8667 94.4854 47.0972 94.4854 49.8486V166.062C94.4854 168.813 96.7112 171.044 99.457 171.044H178.8C181.546 171.044 183.772 168.813 183.772 166.062V49.8486C183.772 47.0972 181.546 44.8667 178.8 44.8667Z" fill="#1D478E"/>
<path d="M154.864 50.4177H123.394V55.7118H154.864V50.4177Z" fill="#5BC4F0" fill-opacity="0.5"/>
<path d="M174.868 63.7812H103.394V79.6655H174.868V63.7812Z" fill="#5BC4F0" fill-opacity="0.5"/>
<path d="M171.738 65.9541H106.519V77.493H171.738V65.9541Z" fill="#FFF3EB"/>
<path d="M156.225 87.033H151.369C149.911 87.033 148.73 88.2172 148.73 89.678V90.8025C148.73 92.2633 149.911 93.4475 151.369 93.4475H156.225C157.683 93.4475 158.864 92.2633 158.864 90.8025V89.678C158.864 88.2172 157.683 87.033 156.225 87.033Z" fill="#5BC4F0" fill-opacity="0.5"/>
<path d="M172.228 87.033H167.372C165.914 87.033 164.733 88.2172 164.733 89.678V90.8025C164.733 92.2633 165.914 93.4475 167.372 93.4475H172.228C173.686 93.4475 174.867 92.2633 174.867 90.8025V89.678C174.867 88.2172 173.686 87.033 172.228 87.033Z" fill="#5BC4F0" fill-opacity="0.5"/>
<path d="M173.607 101.199H163.854C163.16 101.199 162.597 101.763 162.597 102.459V108.314C162.597 109.009 163.16 109.574 163.854 109.574H173.607C174.301 109.574 174.864 109.009 174.864 108.314V102.459C174.864 101.763 174.301 101.199 173.607 101.199Z" fill="#5BC4F0" fill-opacity="0.5"/>
<path d="M154.036 101.199H144.283C143.588 101.199 143.026 101.763 143.026 102.459V108.314C143.026 109.009 143.588 109.574 144.283 109.574H154.036C154.73 109.574 155.293 109.009 155.293 108.314V102.459C155.293 101.763 154.73 101.199 154.036 101.199Z" fill="#5BC4F0" fill-opacity="0.5"/>
<path d="M134.462 101.199H124.709C124.015 101.199 123.452 101.763 123.452 102.459V108.314C123.452 109.009 124.015 109.574 124.709 109.574H134.462C135.157 109.574 135.719 109.009 135.719 108.314V102.459C135.719 101.763 135.157 101.199 134.462 101.199Z" fill="#5BC4F0" fill-opacity="0.5"/>
<path d="M114.891 101.199H105.138C104.444 101.199 103.881 101.763 103.881 102.459V108.314C103.881 109.009 104.444 109.574 105.138 109.574H114.891C115.585 109.574 116.148 109.009 116.148 108.314V102.459C116.148 101.763 115.585 101.199 114.891 101.199Z" fill="#5BC4F0" fill-opacity="0.5"/>
<path d="M173.607 116.344H163.854C163.16 116.344 162.597 116.908 162.597 117.604V123.458C162.597 124.154 163.16 124.718 163.854 124.718H173.607C174.301 124.718 174.864 124.154 174.864 123.458V117.604C174.864 116.908 174.301 116.344 173.607 116.344Z" fill="#5BC4F0" fill-opacity="0.5"/>
<path d="M154.036 116.344H144.283C143.588 116.344 143.026 116.908 143.026 117.604V123.458C143.026 124.154 143.588 124.718 144.283 124.718H154.036C154.73 124.718 155.293 124.154 155.293 123.458V117.604C155.293 116.908 154.73 116.344 154.036 116.344Z" fill="#5BC4F0" fill-opacity="0.5"/>
<path d="M134.462 116.344H124.709C124.015 116.344 123.452 116.908 123.452 117.604V123.458C123.452 124.154 124.015 124.718 124.709 124.718H134.462C135.157 124.718 135.719 124.154 135.719 123.458V117.604C135.719 116.908 135.157 116.344 134.462 116.344Z" fill="#5BC4F0" fill-opacity="0.5"/>
<path d="M114.891 116.344H105.138C104.444 116.344 103.881 116.908 103.881 117.604V123.458C103.881 124.154 104.444 124.718 105.138 124.718H114.891C115.585 124.718 116.148 124.154 116.148 123.458V117.604C116.148 116.908 115.585 116.344 114.891 116.344Z" fill="#5BC4F0" fill-opacity="0.5"/>
<path d="M173.607 131.489H163.854C163.16 131.489 162.597 132.053 162.597 132.749V138.603C162.597 139.299 163.16 139.863 163.854 139.863H173.607C174.301 139.863 174.864 139.299 174.864 138.603V132.749C174.864 132.053 174.301 131.489 173.607 131.489Z" fill="#5BC4F0" fill-opacity="0.5"/>
<path d="M154.036 131.489H144.283C143.588 131.489 143.026 132.053 143.026 132.749V138.603C143.026 139.299 143.588 139.863 144.283 139.863H154.036C154.73 139.863 155.293 139.299 155.293 138.603V132.749C155.293 132.053 154.73 131.489 154.036 131.489Z" fill="#5BC4F0" fill-opacity="0.5"/>
<path d="M134.462 131.489H124.709C124.015 131.489 123.452 132.053 123.452 132.749V138.603C123.452 139.299 124.015 139.863 124.709 139.863H134.462C135.157 139.863 135.719 139.299 135.719 138.603V132.749C135.719 132.053 135.157 131.489 134.462 131.489Z" fill="#5BC4F0" fill-opacity="0.5"/>
<path d="M114.891 131.489H105.138C104.444 131.489 103.881 132.053 103.881 132.749V138.603C103.881 139.299 104.444 139.863 105.138 139.863H114.891C115.585 139.863 116.148 139.299 116.148 138.603V132.749C116.148 132.053 115.585 131.489 114.891 131.489Z" fill="#5BC4F0" fill-opacity="0.5"/>
<path d="M173.607 147.167H163.854C163.16 147.167 162.597 147.732 162.597 148.427V154.282C162.597 154.978 163.16 155.542 163.854 155.542H173.607C174.301 155.542 174.864 154.978 174.864 154.282V148.427C174.864 147.732 174.301 147.167 173.607 147.167Z" fill="#FFD325"/>
<path d="M154.036 147.167H144.283C143.588 147.167 143.026 147.732 143.026 148.427V154.282C143.026 154.978 143.588 155.542 144.283 155.542H154.036C154.73 155.542 155.293 154.978 155.293 154.282V148.427C155.293 147.732 154.73 147.167 154.036 147.167Z" fill="#5BC4F0" fill-opacity="0.5"/>
<path d="M134.462 147.167H124.709C124.015 147.167 123.452 147.732 123.452 148.427V154.282C123.452 154.978 124.015 155.542 124.709 155.542H134.462C135.157 155.542 135.719 154.978 135.719 154.282V148.427C135.719 147.732 135.157 147.167 134.462 147.167Z" fill="#5BC4F0" fill-opacity="0.5"/>
<path d="M114.891 147.167H105.138C104.444 147.167 103.881 147.732 103.881 148.427V154.282C103.881 154.978 104.444 155.542 105.138 155.542H114.891C115.585 155.542 116.148 154.978 116.148 154.282V148.427C116.148 147.732 115.585 147.167 114.891 147.167Z" fill="#5BC4F0" fill-opacity="0.5"/>
<path d="M205.923 100.786L202.967 109.883L202.748 110.555L201.377 114.78L201.367 114.809L196.948 114.711L179.989 114.327L178.749 110.77L178.541 110.176L175.259 100.787C185.44 104.32 193.831 96.5972 205.923 100.787V100.786Z" fill="#FFD325"/>
<path d="M202.746 110.555L201.375 114.779L196.946 114.711L179.988 114.326L178.748 110.769C184.577 110.667 194.608 110.531 202.746 110.555Z" fill="#AF8E2F"/>
<path d="M221.693 161.923C220.823 164.71 219.097 167.049 216.866 168.695C214.629 170.342 211.888 171.288 208.975 171.288H170.567C165.015 171.288 160.144 167.57 158.665 162.201C157.814 159.097 157.357 155.95 157.285 152.817C157.28 152.515 157.275 152.213 157.275 151.911C157.275 151.553 157.279 151.197 157.289 150.841C157.603 139.486 163.14 128.911 172.026 121.86L181.214 114.57L202.241 115.057L213.799 126.14C215.425 127.699 216.873 129.442 218.036 131.373C219.429 133.687 220.557 136.129 221.411 138.652C223.935 146.088 224.1 154.234 221.693 161.922V161.923Z" fill="#FFD325"/>
<path d="M205.723 113.066H175.978C174.743 113.066 173.741 114.069 173.741 115.307V116.261C173.741 117.499 174.743 118.503 175.978 118.503H205.723C206.958 118.503 207.96 117.499 207.96 116.261V115.307C207.96 114.069 206.958 113.066 205.723 113.066Z" fill="#AF8E2F"/>
<path opacity="0.4" d="M221.693 161.923C220.823 164.709 219.097 167.049 216.865 168.695C214.629 170.342 211.887 171.287 208.975 171.287H170.567C165.015 171.287 160.143 167.57 158.665 162.201C157.814 159.097 157.357 155.95 157.284 152.817C163.638 158.887 171.125 166.825 188.628 167.068C210.363 167.37 219.729 157.163 221.411 138.653C223.935 146.089 224.1 154.235 221.693 161.923Z" fill="#AF8E2F"/>
<path d="M201.053 135.831C200.939 135.716 200.801 135.65 200.621 135.644L197.366 135.538C197.184 134.475 196.811 133.538 196.234 132.741L200.672 132.888C200.852 132.887 200.996 132.839 201.116 132.73C201.236 132.615 201.296 132.476 201.302 132.295L201.366 130.342C201.372 130.161 201.318 130.016 201.209 129.895C201.095 129.774 200.951 129.714 200.777 129.708L184.935 129.192C184.76 129.186 184.61 129.234 184.49 129.349C184.376 129.458 184.31 129.603 184.305 129.785L184.223 132.335C184.217 132.499 184.271 132.65 184.392 132.77C184.506 132.897 184.65 132.964 184.812 132.964L187.575 133.051C190.253 133.14 191.929 133.918 192.609 135.386L184.742 135.127C184.568 135.128 184.418 135.176 184.298 135.285C184.178 135.394 184.118 135.539 184.112 135.72L184.048 137.673C184.048 137.854 184.096 137.999 184.205 138.12C184.313 138.241 184.457 138.301 184.637 138.307L192.768 138.577C192.451 139.617 191.773 140.391 190.735 140.906C189.696 141.421 188.34 141.652 186.664 141.593L184.532 141.522C184.364 141.523 184.22 141.577 184.094 141.692C183.968 141.813 183.902 141.952 183.896 142.115L183.814 144.551C183.809 144.721 183.863 144.859 183.971 144.98C186.328 147.668 189.364 151.418 193.098 156.238C193.206 156.395 193.362 156.473 193.566 156.485L197.278 156.608C197.542 156.62 197.734 156.511 197.842 156.282C197.974 156.052 197.962 155.834 197.787 155.623C194.234 150.924 191.426 147.409 189.382 145.06C191.549 144.876 193.32 144.228 194.707 143.126C196.093 142.019 196.956 140.555 197.309 138.724L200.509 138.829C200.684 138.829 200.834 138.781 200.948 138.672C201.068 138.563 201.128 138.418 201.133 138.236L201.198 136.284C201.197 136.103 201.149 135.958 201.041 135.837L201.053 135.831Z" fill="#DCB414"/>
</g>
<path d="M86.6514 62.1694C88.2223 62.9106 89.3021 64.0481 90.0389 65.4744C90.7757 64.0481 91.8601 62.9062 93.431 62.1651C91.8601 61.4239 90.7757 60.2864 90.0389 58.8601C89.3021 60.2864 88.2223 61.4283 86.6514 62.1694Z" fill="#FFD325"/>
<path d="M142.046 64.5932C143.355 65.2108 144.255 66.1588 144.869 67.3474C145.483 66.1588 146.386 65.2072 147.696 64.5896C146.386 63.972 145.483 63.024 144.869 61.8354C144.255 63.024 143.355 63.9756 142.046 64.5932Z" fill="#AF8E2F"/>
<path d="M50.5459 62.2911C52.6405 63.2793 54.0802 64.796 55.0626 66.6977C56.045 64.796 57.4908 63.2735 59.5854 62.2853C57.4908 61.2971 56.045 59.7804 55.0626 57.8787C54.0802 59.7804 52.6405 61.3029 50.5459 62.2911Z" fill="#FFD325"/>
<path d="M58.4297 143.469C59.477 143.963 60.1968 144.721 60.688 145.672C61.1792 144.721 61.9022 143.96 62.9495 143.466C61.9022 142.972 61.1792 142.213 60.688 141.262C60.1968 142.213 59.477 142.975 58.4297 143.469Z" fill="#AF8E2F"/>
<path d="M58.4297 108.192C59.477 108.686 60.1968 109.445 60.688 110.396C61.1792 109.445 61.9022 108.684 62.9495 108.189C61.9022 107.695 61.1792 106.937 60.688 105.986C60.1968 106.937 59.477 107.698 58.4297 108.192Z" fill="#AF8E2F"/>
<defs>
<clipPath id="clip0_282_39254">
<rect width="44.4537" height="58.5981" fill="white" transform="matrix(-0.937933 0.346817 0.346817 0.937933 91.9756 52.6143)"/>
</clipPath>
<clipPath id="clip1_282_39254">
<rect width="128.788" height="128.788" fill="white" transform="translate(94.4854 41.2122)"/>
</clipPath>
</defs>
</svg>
