<svg width="270" height="183" viewBox="0 0 270 183" fill="none" xmlns="http://www.w3.org/2000/svg">
<rect width="270" height="183" fill="white"/>
<path d="M115.719 112.5C115.719 137.629 94.802 158 69 158C43.1979 158 22.2812 137.629 22.2812 112.5C22.2812 87.371 43.1979 67 69 67C94.802 67 115.719 87.371 115.719 112.5Z" fill="#5BC4F0" fill-opacity="0.1"/>
<g clip-path="url(#clip0_282_34932)">
<path d="M108.298 122.643H46.4414V169.573H108.298V122.643Z" fill="#8CD6F5"/>
<path d="M111.529 169.529H43.2108V174.187H111.529V169.529Z" fill="#8CD6F5"/>
<path d="M108.298 122.643H46.4414V127.902H108.298V122.643Z" fill="#8CD6F5"/>
<path d="M77.3693 95L42.5117 110.485V111.819H77.3693H112.226V110.485L77.3693 95Z" fill="#8CD6F5"/>
<path d="M77.3706 96.6812L46.3408 110.485H48.9216L77.3706 97.5609L105.819 110.485H108.4L77.3706 96.6812Z" fill="#8CD6F5"/>
<path d="M77.3702 97.5623L48.9211 110.486H77.3702H105.819L77.3702 97.5623Z" fill="#EFF9FD"/>
<path d="M77.3693 111.819H42.5117L43.9037 113.443H77.3693H110.835L112.226 111.819H77.3693Z" fill="#8CD6F5"/>
<path d="M77.3693 121.301H42.5117L43.9037 122.925H77.3693H110.835L112.226 121.301H77.3693Z" fill="#134A9C"/>
<path d="M110.837 113.444H43.9053V120.172H110.837V113.444Z" fill="#134A9C"/>
<path d="M112.149 120.171H42.5898V121.301H112.149V120.171Z" fill="#8CD6F5"/>
<path d="M110.837 122.924H43.9053V124.625H110.837V122.924Z" fill="#8CD6F5"/>
<path d="M54.6704 131.177H46.3809V163.022H54.6704V131.177Z" fill="#134A9C"/>
<path d="M54.6721 131.177H50.5204V163.022H54.6721V131.177Z" fill="#134A9C"/>
<path d="M56.0812 124.625H44.959V125.307H56.0812V124.625Z" fill="#134A9C"/>
<path d="M56.0819 124.625H50.5205V125.307H56.0819V124.625Z" fill="#134A9C"/>
<path d="M55.3309 129.132H45.7217V129.814H55.3309V129.132Z" fill="#8CD6F5"/>
<path d="M55.3317 129.132H50.5204V129.814H55.3317V129.132Z" fill="#8CD6F5"/>
<path d="M50.5198 125.307H44.959L45.7219 126.669H50.5198H55.3177L56.0812 125.307H50.5198Z" fill="#134A9C"/>
<path d="M50.527 129.815H45.7227L46.3822 131.177H50.527H54.6717L55.3313 129.815H50.527Z" fill="#134A9C"/>
<path d="M55.3174 126.669H45.7227V129.133H55.3174V126.669Z" fill="#8CD6F5"/>
<path d="M55.3177 126.669H50.5204V129.133H55.3177V126.669Z" fill="#8CD6F5"/>
<path d="M50.5198 125.307H44.959L45.7219 126.669H50.5198V125.307Z" fill="#134A9C"/>
<path d="M50.5205 125.307V126.669H55.3184L56.0819 125.307H50.5205Z" fill="#134A9C"/>
<path d="M50.527 129.815H45.7227L46.3822 131.177H50.527V129.815Z" fill="#134A9C"/>
<path d="M50.5273 129.815V131.177H54.6721L55.3317 129.815H50.5273Z" fill="#134A9C"/>
<path d="M56.0812 168.89H44.959V169.572H56.0812V168.89Z" fill="#134A9C"/>
<path d="M56.0818 168.89H50.5204V169.572H56.0818V168.89Z" fill="#134A9C"/>
<path d="M55.3309 164.383H45.7217V165.065H55.3309V164.383Z" fill="#8CD6F5"/>
<path d="M55.3318 164.383H50.5205V165.065H55.3318V164.383Z" fill="#8CD6F5"/>
<path d="M50.5198 168.89H44.959L45.7219 167.528H50.5198H55.3177L56.0812 168.89H50.5198Z" fill="#134A9C"/>
<path d="M50.5272 164.383H45.7229L46.3824 163.021H50.5272H54.672L55.3315 164.383H50.5272Z" fill="#134A9C"/>
<path d="M55.3174 165.064H45.7227V167.528H55.3174V165.064Z" fill="#8CD6F5"/>
<path d="M55.3177 165.064H50.5204V167.528H55.3177V165.064Z" fill="#8CD6F5"/>
<path d="M50.5198 168.89H44.959L45.7219 167.528H50.5198V168.89Z" fill="#134A9C"/>
<path d="M50.5205 168.89V167.528H55.3184L56.0819 168.89H50.5205Z" fill="#134A9C"/>
<path d="M50.5272 164.383H45.7229L46.3824 163.021H50.5272V164.383Z" fill="#134A9C"/>
<path d="M50.5276 164.383V163.021H54.6724L55.3319 164.383H50.5276Z" fill="#134A9C"/>
<path d="M72.4019 131.179H64.1144V163.024H72.4019V131.179Z" fill="#134A9C"/>
<path d="M72.4018 131.179H68.2511V163.024H72.4018V131.179Z" fill="#134A9C"/>
<path d="M73.8101 124.626H62.6906V125.308H73.8101V124.626Z" fill="#134A9C"/>
<path d="M73.8102 124.626H68.2501V125.308H73.8102V124.626Z" fill="#134A9C"/>
<path d="M73.0612 129.133H63.4543V129.815H73.0612V129.133Z" fill="#8CD6F5"/>
<path d="M73.0612 129.133H68.2511V129.815H73.0612V129.133Z" fill="#8CD6F5"/>
<path d="M68.2506 125.308H68.25H62.6906L63.4538 126.67H68.25H68.2506H73.0468L73.8101 125.308H68.2506Z" fill="#134A9C"/>
<path d="M68.2575 129.815H68.2569H63.4543L64.1137 131.177H68.2569H68.2575H72.4007L73.0601 129.815H68.2575Z" fill="#134A9C"/>
<path d="M73.0467 126.67H63.4543V129.134H73.0467V126.67Z" fill="#8CD6F5"/>
<path d="M73.0473 126.67H68.2511V129.134H73.0473V126.67Z" fill="#8CD6F5"/>
<path d="M68.25 125.308H62.6906L63.4538 126.67H68.25H68.2506V125.308H68.25Z" fill="#134A9C"/>
<path d="M68.2501 125.308V126.67H73.0463L73.8096 125.308H68.2501Z" fill="#134A9C"/>
<path d="M68.2569 129.815H63.4543L64.1137 131.177H68.2569H68.2575V129.815H68.2569Z" fill="#134A9C"/>
<path d="M68.2581 129.815V131.177H72.4012L73.0606 129.815H68.2581Z" fill="#134A9C"/>
<path d="M73.8101 168.892H62.6906V169.574H73.8101V168.892Z" fill="#134A9C"/>
<path d="M73.8111 168.892H68.2511V169.574H73.8111V168.892Z" fill="#134A9C"/>
<path d="M73.0611 164.385H63.4542V165.066H73.0611V164.385Z" fill="#8CD6F5"/>
<path d="M73.0602 164.385H68.2501V165.066H73.0602V164.385Z" fill="#8CD6F5"/>
<path d="M68.2506 168.891H68.25H62.6906L63.4538 167.53H68.25H68.2506H73.0468L73.8101 168.891H68.2506Z" fill="#134A9C"/>
<path d="M68.2574 164.385H68.2568H63.4542L64.1136 163.023H68.2568H68.2574H72.4006L73.0599 164.385H68.2574Z" fill="#134A9C"/>
<path d="M73.0467 165.065H63.4543V167.529H73.0467V165.065Z" fill="#8CD6F5"/>
<path d="M73.0473 165.065H68.2511V167.529H73.0473V165.065Z" fill="#8CD6F5"/>
<path d="M68.25 168.891H62.6906L63.4538 167.53H68.25H68.2506V168.891H68.25Z" fill="#134A9C"/>
<path d="M68.2501 168.891V167.53H73.0463L73.8096 168.891H68.2501Z" fill="#134A9C"/>
<path d="M68.2568 164.385H63.4542L64.1136 163.023H68.2568H68.2574V164.385H68.2568Z" fill="#134A9C"/>
<path d="M68.2579 164.385V163.023H72.4011L73.0605 164.385H68.2579Z" fill="#134A9C"/>
<path d="M90.2297 131.179H81.9402V163.024H90.2297V131.179Z" fill="#134A9C"/>
<path d="M90.2296 131.179H86.0779V163.024H90.2296V131.179Z" fill="#134A9C"/>
<path d="M91.6386 124.626H80.5164V125.308H91.6386V124.626Z" fill="#134A9C"/>
<path d="M91.6393 124.626H86.0779V125.308H91.6393V124.626Z" fill="#134A9C"/>
<path d="M90.8894 129.133H81.2802V129.815H90.8894V129.133Z" fill="#8CD6F5"/>
<path d="M90.8892 129.133H86.0779V129.815H90.8892V129.133Z" fill="#8CD6F5"/>
<path d="M86.0778 125.308H86.0772H80.5164L81.2798 126.67H86.0772H86.0778H90.8751L91.6386 125.308H86.0778Z" fill="#134A9C"/>
<path d="M86.0851 129.815H86.0845H81.2808L81.9403 131.177H86.0845H86.0851H90.2299L90.8888 129.815H86.0851Z" fill="#134A9C"/>
<path d="M90.8755 126.67H81.2808V129.134H90.8755V126.67Z" fill="#8CD6F5"/>
<path d="M90.8752 126.67H86.0779V129.134H90.8752V126.67Z" fill="#8CD6F5"/>
<path d="M86.0772 125.308H80.5164L81.2798 126.67H86.0772H86.0778V125.308H86.0772Z" fill="#134A9C"/>
<path d="M86.0779 125.308V126.67H90.8752L91.6387 125.308H86.0779Z" fill="#134A9C"/>
<path d="M86.0845 129.815H81.2808L81.9403 131.177H86.0845H86.0851V129.815H86.0845Z" fill="#134A9C"/>
<path d="M86.0853 129.815V131.177H90.2301L90.8891 129.815H86.0853Z" fill="#134A9C"/>
<path d="M91.6386 168.892H80.5164V169.574H91.6386V168.892Z" fill="#134A9C"/>
<path d="M91.6393 168.892H86.0779V169.574H91.6393V168.892Z" fill="#134A9C"/>
<path d="M90.8891 164.385H81.2799V165.066H90.8891V164.385Z" fill="#8CD6F5"/>
<path d="M90.8892 164.385H86.0779V165.066H90.8892V164.385Z" fill="#8CD6F5"/>
<path d="M86.0778 168.891H86.0772H80.5164L81.2798 167.53H86.0772H86.0778H90.8751L91.6386 168.891H86.0778Z" fill="#134A9C"/>
<path d="M86.0843 164.385H86.0838H81.28L81.9396 163.023H86.0838H86.0843H90.2291L90.8881 164.385H86.0843Z" fill="#134A9C"/>
<path d="M90.8755 165.065H81.2808V167.529H90.8755V165.065Z" fill="#8CD6F5"/>
<path d="M90.8752 165.065H86.0779V167.529H90.8752V165.065Z" fill="#8CD6F5"/>
<path d="M86.0772 168.891H80.5164L81.2798 167.53H86.0772H86.0778V168.891H86.0772Z" fill="#134A9C"/>
<path d="M86.0779 168.891V167.53H90.8752L91.6387 168.891H86.0779Z" fill="#134A9C"/>
<path d="M86.0838 164.385H81.28L81.9396 163.023H86.0838H86.0843V164.385H86.0838Z" fill="#134A9C"/>
<path d="M86.0847 164.385V163.023H90.2295L90.8885 164.385H86.0847Z" fill="#134A9C"/>
<path d="M108.056 131.179H99.7666V163.024H108.056V131.179Z" fill="#134A9C"/>
<path d="M108.056 131.179H103.904V163.024H108.056V131.179Z" fill="#134A9C"/>
<path d="M109.465 124.626H98.3428V125.308H109.465V124.626Z" fill="#134A9C"/>
<path d="M109.466 124.626H103.904V125.308H109.466V124.626Z" fill="#134A9C"/>
<path d="M108.716 129.133H99.1066V129.815H108.716V129.133Z" fill="#8CD6F5"/>
<path d="M108.715 129.133H103.904V129.815H108.715V129.133Z" fill="#8CD6F5"/>
<path d="M103.904 125.308H98.3428L99.1062 126.67H103.904H108.702L109.465 125.308H103.904Z" fill="#134A9C"/>
<path d="M103.911 129.815H99.1066L99.7661 131.177H103.911H108.056L108.715 129.815H103.911Z" fill="#134A9C"/>
<path d="M108.701 126.67H99.1066V129.134H108.701V126.67Z" fill="#8CD6F5"/>
<path d="M108.702 126.67H103.904V129.134H108.702V126.67Z" fill="#8CD6F5"/>
<path d="M103.904 125.308H98.3428L99.1062 126.67H103.904V125.308Z" fill="#134A9C"/>
<path d="M103.904 125.308V126.67H108.702L109.465 125.308H103.904Z" fill="#134A9C"/>
<path d="M103.911 129.815H99.1066L99.7661 131.177H103.911V129.815Z" fill="#134A9C"/>
<path d="M103.911 129.815V131.177H108.056L108.715 129.815H103.911Z" fill="#134A9C"/>
<path d="M109.465 168.892H98.3428V169.574H109.465V168.892Z" fill="#134A9C"/>
<path d="M109.466 168.892H103.904V169.574H109.466V168.892Z" fill="#134A9C"/>
<path d="M108.716 164.385H99.1067V165.066H108.716V164.385Z" fill="#8CD6F5"/>
<path d="M108.716 164.385H103.904V165.066H108.716V164.385Z" fill="#8CD6F5"/>
<path d="M103.904 168.891H98.3428L99.1062 167.53H103.904H108.702L109.465 168.891H103.904Z" fill="#134A9C"/>
<path d="M103.911 164.385H99.1064L99.766 163.023H103.911H108.056L108.715 164.385H103.911Z" fill="#134A9C"/>
<path d="M108.701 165.065H99.1066V167.529H108.701V165.065Z" fill="#8CD6F5"/>
<path d="M108.702 165.065H103.904V167.529H108.702V165.065Z" fill="#8CD6F5"/>
<path d="M103.904 168.891H98.3428L99.1062 167.53H103.904V168.891Z" fill="#134A9C"/>
<path d="M103.904 168.891V167.53H108.702L109.465 168.891H103.904Z" fill="#134A9C"/>
<path d="M103.911 164.385H99.1064L99.766 163.023H103.911V164.385Z" fill="#134A9C"/>
<path d="M103.911 164.385V163.023H108.056L108.715 164.385H103.911Z" fill="#134A9C"/>
</g>
<path d="M213.263 130.322C204.414 117.251 191.132 107.148 175.442 101.93C167.79 99.3817 159.565 98 150.999 98C142.432 98 134.26 99.3755 126.63 101.905C110.937 107.106 97.6539 117.188 88.791 130.241C81.329 141.224 77 154.312 77 168.359C77 170.292 77.1046 172.171 77.3094 174H121.465C121.081 172.175 120.881 170.29 120.881 168.359C120.881 163.591 122.107 159.093 124.275 155.139C127.63 149.015 133.247 144.193 140.068 141.664C140.082 141.657 140.097 141.655 140.112 141.649C143.487 140.404 147.162 139.72 151.001 139.72C154.84 139.72 158.565 140.412 161.962 141.676C168.803 144.218 174.426 149.069 177.773 155.226C179.912 159.16 181.121 163.626 181.121 168.359C181.121 170.29 180.921 172.175 180.535 174H224.675C224.889 172.171 225 170.29 225 168.359C225 154.345 220.693 141.289 213.266 130.322H213.263Z" fill="#161742"/>
<path d="M140.068 141.666C133.247 144.195 127.63 149.017 124.275 155.141L88.791 130.243C97.6517 117.191 110.937 107.109 126.63 101.907L140.066 141.666H140.068Z" fill="#1D478E"/>
<path d="M175.441 101.929L161.96 141.678C158.565 140.414 154.868 139.722 150.999 139.722C147.129 139.722 143.487 140.406 140.11 141.651C140.097 141.657 140.081 141.659 140.066 141.665L126.628 101.907C134.258 99.3772 142.456 98.0017 150.996 98.0017C159.537 98.0017 167.788 99.3834 175.439 101.931L175.441 101.929Z" fill="#186BCC"/>
<path d="M224.999 168.359C224.999 170.29 224.888 172.171 224.674 174H180.534C180.92 172.175 181.12 170.29 181.12 168.359C181.12 163.626 179.911 159.16 177.771 155.226L213.264 130.32C220.691 141.287 224.999 154.343 224.999 168.357V168.359Z" fill="#ADE1F7"/>
<path d="M213.264 130.322L177.771 155.228C174.426 149.071 168.801 144.22 161.96 141.678L175.442 101.93C191.132 107.148 204.414 117.251 213.264 130.322Z" fill="#37BDF7"/>
<path d="M150.999 154.851C143.175 154.851 136.833 160.881 136.833 168.32C136.833 170.35 137.308 172.272 138.153 174H163.842C164.687 172.274 165.162 170.35 165.162 168.32C165.162 160.881 158.82 154.851 150.997 154.851H150.999Z" fill="#1D478E"/>
<path d="M150.974 168.35L195.95 153.94L153.788 163.076L150.974 168.35Z" fill="#161742"/>
<path d="M150.948 168.277L195.925 153.867L156.547 170.856L150.948 168.277Z" fill="#161742"/>
<path d="M153.71 170.937C155.208 169.514 155.208 167.205 153.71 165.781C152.213 164.358 149.785 164.358 148.288 165.781C146.79 167.205 146.79 169.514 148.288 170.937C149.785 172.361 152.213 172.361 153.71 170.937Z" fill="#186BCC"/>
<path d="M152.425 169.716C153.213 168.967 153.213 167.752 152.425 167.003C151.637 166.254 150.36 166.254 149.572 167.003C148.784 167.752 148.784 168.967 149.572 169.716C150.36 170.465 151.637 170.465 152.425 169.716Z" fill="#161742"/>
<path d="M191.659 88.8735C193.688 91.5748 198.812 91.3822 204.444 88.8026L195.355 76.6697C191.278 81.3221 189.636 86.1723 191.659 88.8735Z" fill="#AF8E2F"/>
<path d="M198.675 73.4109L208.521 86.5473C209.147 86.1469 209.767 85.7263 210.387 85.2702L200.433 71.9868C199.823 72.448 199.239 72.9244 198.68 73.4059L198.675 73.4109Z" fill="#AF8E2F"/>
<path d="M217.47 65.4102L189.625 86.155L192.066 89.4109L219.911 68.6661L217.47 65.4102Z" fill="#AF8E2F"/>
<path d="M219.502 68.13C217.855 65.9355 214.164 65.6517 209.813 67.0049L217.835 77.7086C220.371 73.9329 221.144 70.3244 219.502 68.1249V68.13Z" fill="#AF8E2F"/>
<path d="M195.35 76.6695L204.439 88.8024C205.781 88.1891 207.149 87.4289 208.516 86.5521L198.669 73.4158C197.439 74.4699 196.321 75.5646 195.35 76.6745V76.6695Z" fill="#D6B11E"/>
<path d="M200.601 71.8601C200.54 71.9057 200.489 71.9514 200.428 71.9919L210.382 85.2752C210.443 85.2296 210.498 85.1942 210.559 85.1485C213.645 82.8476 216.136 80.2477 217.839 77.7137L209.817 67.01C206.899 67.9172 203.692 69.5643 200.606 71.8601H200.601Z" fill="#D6B11E"/>
<path d="M209.078 83.1645C216.767 77.436 220.77 69.8167 218.019 66.1463C215.268 62.476 206.804 64.1444 199.115 69.873C191.426 75.6015 187.423 83.2208 190.174 86.8911C192.925 90.5615 201.389 88.893 209.078 83.1645Z" fill="#AF8E2F"/>
<path d="M208.706 82.6689C216.395 76.9404 220.398 69.3211 217.647 65.6507C214.896 61.9804 206.432 63.6488 198.743 69.3774C191.054 75.1059 187.051 82.7252 189.802 86.3955C192.553 90.0659 201.017 88.3974 208.706 82.6689Z" fill="#FFD840"/>
<path d="M207.559 81.1382C213.674 76.5826 216.914 70.5993 214.797 67.7742C212.679 64.9491 206.006 66.352 199.891 70.9077C193.776 75.4634 190.535 81.4467 192.653 84.2718C194.77 87.0968 201.444 85.6939 207.559 81.1382Z" fill="#FFD325"/>
<path d="M200.891 78.8639L198.471 79.239L199.3 77.526L201.719 77.1509C202.863 76.9736 204.205 75.9701 204.719 74.9159C205.232 73.8618 204.719 73.1472 203.575 73.3246L201.043 73.7148L201.872 72.0018L204.403 71.6116C206.564 71.2771 207.54 72.6302 206.569 74.6321C205.598 76.6289 203.051 78.5295 200.891 78.8639Z" fill="#AF8E2F"/>
<path d="M208.318 75.1542L199.701 76.4871L200.53 74.7741L209.147 73.4412L208.318 75.1542Z" fill="#AF8E2F"/>
<path d="M209.66 72.382L201.043 73.72L201.872 72.007L210.489 70.6741L209.66 72.382Z" fill="#AF8E2F"/>
<path d="M202.705 82.2039L200.423 77.9011L198.481 79.2391L200.25 82.5789L202.705 82.2039Z" fill="#AF8E2F"/>
<path d="M157.903 56.5143C166.536 55.778 172.935 48.2043 172.197 39.5981C171.458 30.9918 163.861 24.6119 155.229 25.3482C146.596 26.0845 140.196 33.6582 140.935 42.2645C141.674 50.8707 149.27 57.2506 157.903 56.5143Z" fill="#D6B11E"/>
<path d="M170.664 45.8105C173.367 38.05 169.248 29.5743 161.464 26.8794C153.679 24.1845 145.178 28.291 142.475 36.0514C139.771 43.8119 143.89 52.2877 151.675 54.9826C159.459 57.6775 167.961 53.571 170.664 45.8105Z" fill="#FFD840"/>
<path d="M157.2 52.7162C163.732 52.3681 168.744 46.8065 168.395 40.2942C168.046 33.7818 162.467 28.7847 155.935 29.1328C149.403 29.481 144.391 35.0425 144.74 41.5549C145.089 48.0673 150.667 53.0644 157.2 52.7162Z" fill="#FFD325"/>
<path d="M154.154 41.8721L152.014 40.8686L152.847 39.1404L154.988 40.1439C155.999 40.6203 157.24 40.1388 157.753 39.0695C158.266 38.0052 157.865 36.7534 156.853 36.277L154.611 35.2228L155.445 33.4946L157.687 34.5488C159.603 35.4458 160.366 37.8177 159.395 39.8398C158.419 41.8569 156.07 42.7691 154.154 41.8721Z" fill="#AF8E2F"/>
<path d="M160.895 41.6036L153.26 38.0256L154.099 36.2974L161.729 39.8754L160.895 41.6036Z" fill="#AF8E2F"/>
<path d="M162.247 38.806L154.611 35.228L155.445 33.4998L163.081 37.0778L162.247 38.806Z" fill="#AF8E2F"/>
<path d="M155.531 47.3608L153.808 40.3213L152.019 40.8737L153.361 46.3421L155.531 47.3608Z" fill="#AF8E2F"/>
<g style="mix-blend-mode:screen" opacity="0.23">
<path d="M171.706 45.0092L165.55 28.1124C164.269 27.2204 162.831 26.5007 161.255 26.0142C161.107 25.9686 160.955 25.9331 160.807 25.8926L169.505 49.7732C170.364 48.5265 171.056 47.1327 171.534 45.6123C171.595 45.4147 171.651 45.212 171.706 45.0143V45.0092Z" fill="#FFD325"/>
</g>
<g style="mix-blend-mode:screen" opacity="0.23">
<path d="M145.552 29.7949L155.287 56.5137C158.022 56.7417 160.716 56.2349 163.121 55.1301L152.455 25.8469C149.863 26.5514 147.479 27.9096 145.557 29.7949H145.552Z" fill="#FFD325"/>
</g>
<path d="M102.418 50.3443L99 52.741L103.036 58.4616L106.454 56.065L102.418 50.3443Z" fill="#AF8E2F"/>
<path d="M106.459 56.0668L103.041 58.4634L107.103 64.2213L110.521 61.8247L106.459 56.0668Z" fill="#D6B11E"/>
<path d="M110.523 61.8184L107.107 64.2156L112.425 71.7517L115.805 69.3039L110.523 61.8184Z" fill="#AF8E2F"/>
<path d="M112.425 71.7518L117.33 78.7052L120.746 76.308L115.805 69.304L112.425 71.7518Z" fill="#D6B11E"/>
<defs>
<clipPath id="clip0_282_34932">
<rect width="80.7399" height="79.6913" fill="white" transform="translate(37 95)"/>
</clipPath>
</defs>
</svg>
