<svg width="148" height="88" viewBox="0 0 148 88" fill="none" xmlns="http://www.w3.org/2000/svg">
<path d="M115.788 22.2659L92.2012 33.283L115.788 37.9751V22.2659Z" fill="#CEEDFB"/>
<path d="M28.8276 25.1631L53.7173 31.5697L28.8276 37.9751V25.1631Z" fill="#CEEDFB"/>
<path d="M95.651 2.27197L88.0947 14.1056L110.348 2.28779L95.651 2.27197Z" fill="#CEEDFB"/>
<path d="M58.7334 2.42651L64.5367 11.5126L47.4473 2.43868L58.7334 2.42651Z" fill="#CEEDFB"/>
<path d="M44.5291 2.42651L52.7948 15.3699L28.4507 2.44355L44.5291 2.42651Z" fill="#CEEDFB"/>
<path d="M84.5683 2.36182L82.2998 8.27805L89.6408 2.2876L84.5683 2.36182Z" fill="#CEEDFB"/>
<path d="M64.1489 2.2876L71.1646 9.01057L69.5355 2.2876H64.1489Z" fill="#CEEDFB"/>
<path d="M74.1711 2.28788L75.5538 8.34282L80.3047 2.22339L74.1711 2.28788Z" fill="#CEEDFB"/>
<path d="M115.788 2.68066L93.4761 22.2655L115.788 18.3899V2.68066Z" fill="#CEEDFB"/>
<path d="M28.647 5.57666L50.9591 25.1627L28.647 21.2859V5.57666Z" fill="#CEEDFB"/>
<path d="M115.788 61.0564L92.2012 50.0392L115.788 45.3471V61.0564Z" fill="#CEEDFB"/>
<path d="M28.8276 58.1592L53.7173 51.7526L28.8276 45.3472V58.1592Z" fill="#CEEDFB"/>
<path d="M95.651 81.0503L88.0947 69.2166L110.348 81.0345L95.651 81.0503Z" fill="#CEEDFB"/>
<path d="M58.7334 80.8955L64.5367 71.8094L47.4473 80.8833L58.7334 80.8955Z" fill="#CEEDFB"/>
<path d="M44.5291 80.8955L52.7948 67.9521L28.4507 80.8785L44.5291 80.8955Z" fill="#CEEDFB"/>
<path d="M84.5683 80.96L82.2998 75.0437L89.6408 81.0342L84.5683 80.96Z" fill="#CEEDFB"/>
<path d="M64.1489 81.0342L71.1646 74.3112L69.5355 81.0342H64.1489Z" fill="#CEEDFB"/>
<path d="M74.1711 81.0344L75.5538 74.9794L80.3047 81.0989L74.1711 81.0344Z" fill="#CEEDFB"/>
<path d="M115.788 80.6411L93.4761 61.0563L115.788 64.9319V80.6411Z" fill="#CEEDFB"/>
<path d="M28.647 77.7456L50.9591 58.1595L28.647 62.0363V77.7456Z" fill="#CEEDFB"/>
<path d="M120.285 81.2487L93.4897 72.1005C91.8426 71.5381 90.9738 69.7773 91.5491 68.1676L109.901 16.8371C110.476 15.2274 112.278 14.3785 113.925 14.9407L140.72 24.0889C142.367 24.6513 143.236 26.4121 142.66 28.0218L124.309 79.3523C123.734 80.9622 121.932 81.8111 120.285 81.2487Z" fill="#1D478E"/>
<path d="M120.788 82.0592C120.541 82.0248 120.296 81.9667 120.055 81.8844L93.2602 72.736C91.2571 72.0522 90.1967 69.9032 90.8967 67.9455L109.248 16.615C109.587 15.6666 110.284 14.9041 111.21 14.4678C112.135 14.0315 113.179 13.9734 114.15 14.305L140.945 23.4532C142.948 24.1372 144.009 26.2862 143.309 28.2437L124.958 79.5747C124.619 80.523 123.922 81.2855 122.996 81.7218C122.3 82.0499 121.536 82.1638 120.788 82.0592ZM120.51 80.6133C121.131 80.825 121.803 80.7889 122.397 80.5088C122.992 80.2284 123.439 79.7391 123.657 79.1305L142.008 27.8002C142.226 27.1915 142.188 26.5363 141.901 25.9553C141.615 25.3746 141.114 24.9376 140.491 24.7248L113.696 15.5766C112.41 15.1367 110.998 15.8026 110.549 17.0592L92.1976 68.3897C91.98 68.9984 92.0178 69.6536 92.3046 70.2341C92.5912 70.8151 93.0922 71.2521 93.7153 71.4649L120.51 80.6133Z" fill="#1D478E"/>
<mask id="mask0_271_3261" style="mask-type:luminance" maskUnits="userSpaceOnUse" x="91" y="14" width="52" height="68">
<mask id="mask1_271_3261" style="mask-type:luminance" maskUnits="userSpaceOnUse" x="91" y="14" width="52" height="68">
<path d="M120.284 81.2487L93.489 72.1005C91.8418 71.5381 90.9731 69.7773 91.5484 68.1676L109.9 16.8371C110.475 15.2274 112.277 14.3785 113.925 14.9407L140.719 24.0889C142.367 24.6513 143.235 26.4121 142.66 28.0218L124.308 79.3523C123.733 80.9622 121.931 81.8111 120.284 81.2487Z" fill="white"/>
</mask>
<g mask="url(#mask1_271_3261)">
<path d="M120.787 82.0592C120.541 82.0248 120.296 81.9667 120.055 81.8844L93.26 72.736C91.2569 72.0522 90.1964 69.9032 90.8964 67.9455L109.248 16.615C109.587 15.6666 110.283 14.9041 111.209 14.4678C112.135 14.0315 113.179 13.9734 114.15 14.305L140.945 23.4532C142.948 24.1372 144.008 26.2862 143.309 28.2437L124.957 79.5747C124.618 80.523 123.922 81.2855 122.996 81.7218C122.299 82.0499 121.536 82.1638 120.787 82.0592ZM120.51 80.6133C121.131 80.825 121.803 80.7889 122.397 80.5088C122.992 80.2284 123.439 79.7391 123.657 79.1305L142.008 27.8002C142.225 27.1915 142.188 26.5363 141.901 25.9553C141.614 25.3746 141.113 24.9376 140.491 24.7248L113.696 15.5766C112.41 15.1367 110.998 15.8026 110.549 17.0592L92.1974 68.3897C91.9798 68.9984 92.0176 69.6536 92.3043 70.2341C92.591 70.8151 93.092 71.2521 93.715 71.4649L120.51 80.6133Z" fill="white"/>
</g>
</mask>
<g mask="url(#mask0_271_3261)">
<g opacity="0.4">
<path fill-rule="evenodd" clip-rule="evenodd" d="M139.265 14.8697C139.347 14.8456 139.257 15.027 139.233 15.0577C139.116 15.4846 139.226 14.889 139.265 14.8697Z" fill="black"/>
<path fill-rule="evenodd" clip-rule="evenodd" d="M141.053 20.6314C141.02 20.7666 140.968 20.7611 140.935 20.8965C140.874 20.873 140.991 20.5958 141.053 20.6314Z" fill="black"/>
<path fill-rule="evenodd" clip-rule="evenodd" d="M142.996 23.4477C143.05 23.5066 142.876 23.85 142.866 24.0522C142.829 23.958 142.966 23.5295 142.996 23.4477Z" fill="black"/>
<path fill-rule="evenodd" clip-rule="evenodd" d="M142.508 24.5527C142.568 24.6074 142.484 24.8391 142.438 25.0243C142.376 25.047 142.493 24.7042 142.396 24.8681C142.363 24.7947 142.484 24.672 142.508 24.5527Z" fill="black"/>
<path fill-rule="evenodd" clip-rule="evenodd" d="M140.786 32.9881C140.877 32.9943 140.716 33.3106 140.795 33.3325C140.751 33.4379 140.707 33.5389 140.649 33.5417C140.64 33.3734 140.783 33.1145 140.786 32.9881Z" fill="black"/>
<path fill-rule="evenodd" clip-rule="evenodd" d="M141.493 33.8922C141.598 33.7361 141.471 34.1146 141.442 34.2219C141.422 34.226 141.428 34.1996 141.435 34.1713C141.421 34.168 141.408 34.1646 141.394 34.1611C141.415 34.0576 141.527 33.9287 141.493 33.8922Z" fill="black"/>
<path fill-rule="evenodd" clip-rule="evenodd" d="M141.158 34.6916C141.183 34.7694 141.218 34.8353 141.147 35.031C141.163 34.9031 141.128 34.8368 141.158 34.6916Z" fill="black"/>
<path fill-rule="evenodd" clip-rule="evenodd" d="M135.558 35.7351C135.589 35.8056 135.598 35.9032 135.58 36.0334C135.544 36.051 135.582 35.8436 135.533 35.9731C135.514 35.9272 135.522 35.8477 135.558 35.7351Z" fill="black"/>
<path fill-rule="evenodd" clip-rule="evenodd" d="M134.902 36.4571C134.911 36.4852 134.921 36.5126 134.95 36.5175C134.818 36.7324 134.843 36.7676 134.759 37.1072C134.701 36.9639 134.812 36.6422 134.902 36.4571Z" fill="black"/>
<path fill-rule="evenodd" clip-rule="evenodd" d="M135.567 36.9108C135.61 36.9959 135.5 37.2699 135.45 37.4697C135.432 37.3391 135.499 37.1928 135.567 36.9108Z" fill="black"/>
<path fill-rule="evenodd" clip-rule="evenodd" d="M134.693 37.1886C134.819 37.1928 134.581 37.4821 134.688 37.4321C134.736 37.4492 134.649 37.5844 134.629 37.5644C134.464 38.2034 134.523 37.7568 134.622 37.5137C134.634 37.4691 134.608 37.4727 134.595 37.4582C134.62 37.3148 134.668 37.3322 134.693 37.1886Z" fill="black"/>
<path fill-rule="evenodd" clip-rule="evenodd" d="M142.701 39.5134C142.577 39.6369 142.594 39.8354 142.59 39.9759C142.583 39.9361 142.559 39.916 142.523 39.9109C142.577 39.7559 142.588 39.6525 142.607 39.5401C142.635 39.5084 142.667 39.5019 142.701 39.5134Z" fill="black"/>
<path fill-rule="evenodd" clip-rule="evenodd" d="M142.915 39.6637C142.845 40.0081 142.907 40.3643 142.741 40.6483C142.698 40.6319 142.788 40.4524 142.799 40.3692C142.74 40.3614 142.708 40.5512 142.667 40.6793C142.674 40.4766 142.793 39.8926 142.915 39.6637Z" fill="black"/>
<path fill-rule="evenodd" clip-rule="evenodd" d="M134.419 38.1494C134.475 38.17 134.401 38.3493 134.367 38.4795C134.339 38.4255 134.375 38.2932 134.419 38.1494Z" fill="black"/>
<path fill-rule="evenodd" clip-rule="evenodd" d="M134.281 38.5557C134.35 38.5499 134.317 38.6691 134.276 38.799C134.242 38.7615 134.22 38.7099 134.281 38.5557Z" fill="black"/>
<path fill-rule="evenodd" clip-rule="evenodd" d="M134.231 38.8862C134.329 38.9077 133.955 39.4725 134.148 39.4038C134.102 39.4629 134.024 39.5034 134.014 39.4207C134.114 39.1572 134.132 39.1601 134.231 38.8862Z" fill="black"/>
<path fill-rule="evenodd" clip-rule="evenodd" d="M142.492 41.3701C142.512 41.375 142.532 41.3802 142.552 41.3851C142.488 41.4824 142.429 41.6198 142.381 41.8325C142.324 41.8343 142.473 41.5813 142.373 41.6353C142.414 41.5581 142.463 41.5324 142.492 41.3701Z" fill="black"/>
<path fill-rule="evenodd" clip-rule="evenodd" d="M139.105 40.6013C139.056 40.7593 139.012 40.9551 138.94 40.9528C138.989 40.7912 139.031 40.5808 139.105 40.6013Z" fill="black"/>
<path fill-rule="evenodd" clip-rule="evenodd" d="M142.279 41.8078C142.307 41.8865 142.289 41.913 142.367 41.8778C142.297 41.9612 142.294 42.093 142.342 42.116C142.311 42.2633 142.237 42.1095 142.209 42.2802C142.235 42.1197 142.223 42.0058 142.279 41.8078Z" fill="black"/>
<path fill-rule="evenodd" clip-rule="evenodd" d="M142.663 42.0479C142.698 42.0949 142.641 42.3703 142.564 42.3173C142.603 42.2686 142.633 42.1609 142.663 42.0479Z" fill="black"/>
<path fill-rule="evenodd" clip-rule="evenodd" d="M142.156 42.3166C142.171 42.4226 142.166 42.5527 142.091 42.6921C142.077 42.6102 142.107 42.4758 142.156 42.3166Z" fill="black"/>
<path fill-rule="evenodd" clip-rule="evenodd" d="M142.049 42.3884C142.104 42.46 142.061 42.5584 141.991 42.6675C141.948 42.6514 142.038 42.4715 142.049 42.3884Z" fill="black"/>
<path fill-rule="evenodd" clip-rule="evenodd" d="M142.408 43.0128C142.45 42.9478 142.332 43.4426 142.298 43.4752C142.27 43.4008 142.381 43.1549 142.408 43.0128Z" fill="black"/>
<path fill-rule="evenodd" clip-rule="evenodd" d="M133.769 41.0244C133.811 41.0419 133.779 41.1503 133.744 41.2624C133.673 41.2809 133.684 41.1983 133.636 41.188C133.677 41.1118 133.732 41.1305 133.769 41.0244Z" fill="black"/>
<path fill-rule="evenodd" clip-rule="evenodd" d="M141.693 43.183C141.78 43.1369 141.641 43.7281 141.596 43.7468C141.579 43.7539 141.698 43.2568 141.693 43.183Z" fill="black"/>
<path fill-rule="evenodd" clip-rule="evenodd" d="M133.889 41.8838C133.904 41.9452 133.968 41.9453 133.917 42.0874C133.875 42.0599 133.831 42.0349 133.889 41.8838Z" fill="black"/>
<path fill-rule="evenodd" clip-rule="evenodd" d="M133.719 42.4787C133.78 42.4918 133.723 42.6515 133.701 42.7678C133.639 42.7546 133.696 42.5954 133.719 42.4787Z" fill="black"/>
<path fill-rule="evenodd" clip-rule="evenodd" d="M141.516 44.7049C141.535 44.7906 141.543 44.707 141.597 44.7246C141.554 44.7869 141.521 44.9253 141.464 44.8884C141.481 44.8271 141.499 44.7658 141.516 44.7049Z" fill="black"/>
<path fill-rule="evenodd" clip-rule="evenodd" d="M141.182 45.357C141.143 45.3658 141.154 45.3123 141.167 45.2558C141.146 45.2427 141.129 45.2575 141.114 45.2919C141.089 45.1195 141.257 45.1546 141.182 45.357Z" fill="black"/>
<path fill-rule="evenodd" clip-rule="evenodd" d="M142.199 45.5539C142.179 45.8257 142.06 45.8729 142.049 46.1533C141.94 46.137 142.133 45.6096 142.199 45.5539Z" fill="black"/>
<path fill-rule="evenodd" clip-rule="evenodd" d="M141.061 45.6214C141.111 45.6692 141.084 45.8112 141.084 45.92C141.073 45.8877 141.04 45.7955 141.01 45.9514C140.974 45.9691 141.012 45.7612 140.963 45.8911C140.929 45.7167 141.082 45.8129 141.061 45.6214Z" fill="black"/>
<path fill-rule="evenodd" clip-rule="evenodd" d="M141.304 45.6801C141.375 45.8005 141.17 46.1634 141.12 46.3204C141.132 46.0398 141.28 45.9525 141.304 45.6801Z" fill="black"/>
<path fill-rule="evenodd" clip-rule="evenodd" d="M133.16 43.9091C133.177 44.0456 133.033 44.203 132.996 44.4075C132.978 44.2701 133.11 44.026 133.16 43.9091Z" fill="black"/>
<path fill-rule="evenodd" clip-rule="evenodd" d="M141.622 47.4195C141.641 47.3668 141.67 47.3899 141.695 47.3885C141.639 47.529 141.674 47.7086 141.711 47.6369C141.695 47.8694 141.573 48.0578 141.534 48.3278C141.527 48.2873 141.503 48.2677 141.467 48.2624C141.656 47.9115 141.558 47.7441 141.622 47.4195Z" fill="black"/>
<path fill-rule="evenodd" clip-rule="evenodd" d="M140.675 47.5816C140.684 47.7039 140.594 48.0825 140.543 47.892C140.636 47.8519 140.59 47.6848 140.675 47.5816Z" fill="black"/>
<path fill-rule="evenodd" clip-rule="evenodd" d="M141.681 48.2647C141.762 48.2096 141.657 48.5779 141.615 48.4932C141.637 48.4172 141.659 48.3408 141.681 48.2647Z" fill="black"/>
<path fill-rule="evenodd" clip-rule="evenodd" d="M140.571 48.0944C140.625 48.0294 140.483 48.4578 140.48 48.5617C140.404 48.4815 140.511 48.2906 140.571 48.0944Z" fill="black"/>
<path fill-rule="evenodd" clip-rule="evenodd" d="M140.499 48.1263C140.459 48.4001 140.262 48.7556 140.142 48.9202C140.153 48.7061 140.385 48.4399 140.499 48.1263Z" fill="black"/>
<path fill-rule="evenodd" clip-rule="evenodd" d="M141.447 48.4046C141.552 48.4716 141.299 48.6518 141.409 48.6886C141.385 48.7494 141.347 48.7145 141.315 48.7152C141.387 48.5538 141.402 48.5163 141.447 48.4046Z" fill="black"/>
<path fill-rule="evenodd" clip-rule="evenodd" d="M140.672 48.413C140.718 48.4158 140.635 48.5775 140.627 48.6462C140.574 48.5994 140.597 48.6051 140.526 48.6217C140.57 48.5193 140.628 48.5159 140.672 48.413Z" fill="black"/>
<path fill-rule="evenodd" clip-rule="evenodd" d="M140.734 48.7211C140.771 48.7802 140.781 48.9287 140.709 48.96C140.69 48.9135 140.699 48.8342 140.734 48.7211Z" fill="black"/>
<path fill-rule="evenodd" clip-rule="evenodd" d="M140.463 49.1448C140.472 49.2839 140.441 49.6111 140.347 49.7037C140.329 49.6119 140.389 49.5331 140.292 49.5925C140.361 49.5285 140.412 49.3361 140.463 49.1448Z" fill="black"/>
<path fill-rule="evenodd" clip-rule="evenodd" d="M135.841 49.1038C135.86 49.0511 135.889 49.074 135.915 49.0728C135.89 49.2229 135.842 49.2066 135.809 49.2916C135.742 49.2625 135.903 49.0981 135.841 49.1038Z" fill="black"/>
<path fill-rule="evenodd" clip-rule="evenodd" d="M140.06 50.4157C140.189 50.3644 139.912 51.2782 139.823 51.0925C139.842 51.0394 139.871 51.0625 139.896 51.0611C139.907 50.8696 140.065 50.6216 140.06 50.4157Z" fill="black"/>
<path fill-rule="evenodd" clip-rule="evenodd" d="M135.371 49.9201C135.373 49.9994 135.408 50.0837 135.346 50.1585C135.326 50.1537 135.305 50.1488 135.285 50.1437C135.309 50.0363 135.339 49.9688 135.371 49.9201Z" fill="black"/>
<path fill-rule="evenodd" clip-rule="evenodd" d="M135.528 50.4961C135.564 50.4637 135.474 50.8387 135.424 51.0092C135.403 50.9073 135.47 50.6959 135.528 50.4961Z" fill="black"/>
<path fill-rule="evenodd" clip-rule="evenodd" d="M131.183 49.9348C131.144 50.0709 131.086 50.0778 131.044 50.1945C131.02 50.1399 131.134 49.9182 131.183 49.9348Z" fill="black"/>
<path fill-rule="evenodd" clip-rule="evenodd" d="M134.999 51.2968C135.029 51.3773 135.076 51.4393 135.008 51.6416C134.992 51.5421 134.959 51.4634 134.999 51.2968Z" fill="black"/>
<path fill-rule="evenodd" clip-rule="evenodd" d="M139.512 52.9247C139.551 52.9554 139.455 53.1522 139.44 53.2496C139.404 53.1881 139.45 53.0529 139.512 52.9247Z" fill="black"/>
<path fill-rule="evenodd" clip-rule="evenodd" d="M134.956 51.9712C134.994 51.9939 134.926 52.146 134.964 52.1683C134.957 52.2083 134.944 52.2095 134.931 52.2092C134.917 52.1968 134.907 52.2226 134.898 52.2501C134.87 52.2019 134.901 52.0365 134.956 51.9712Z" fill="black"/>
<path fill-rule="evenodd" clip-rule="evenodd" d="M130.587 51.7957C130.607 51.8005 130.627 51.8054 130.647 51.8102C130.59 51.9183 130.391 52.743 130.536 52.1256C130.547 52.0225 130.528 51.957 130.587 51.7957Z" fill="black"/>
<path fill-rule="evenodd" clip-rule="evenodd" d="M129.81 51.8041C129.848 51.877 129.78 52.0615 129.726 52.175C129.69 52.1303 129.791 51.9164 129.81 51.8041Z" fill="black"/>
<path fill-rule="evenodd" clip-rule="evenodd" d="M134.489 53.9118C134.564 53.9425 134.396 54.3831 134.352 54.4654C134.344 54.3856 134.498 54.0629 134.489 53.9118Z" fill="black"/>
<path fill-rule="evenodd" clip-rule="evenodd" d="M129.477 52.8971C129.455 53.0288 129.5 53.1345 129.419 53.1765C129.403 53.0684 129.393 52.9882 129.477 52.8971Z" fill="black"/>
<path fill-rule="evenodd" clip-rule="evenodd" d="M129.293 53.2437C129.313 53.2485 129.333 53.2534 129.354 53.2583C129.31 53.3208 129.277 53.4594 129.22 53.4225C129.241 53.3401 129.273 53.3319 129.293 53.2437Z" fill="black"/>
<path fill-rule="evenodd" clip-rule="evenodd" d="M138.653 56.2379C138.685 56.2871 138.692 56.3678 138.635 56.5266C138.594 56.4886 138.639 56.3434 138.653 56.2379Z" fill="black"/>
<path fill-rule="evenodd" clip-rule="evenodd" d="M129.921 54.2753C130.018 54.1115 129.901 54.4547 129.962 54.4322C129.934 54.5112 129.898 54.5278 129.856 54.5041C129.862 54.3846 129.969 54.3289 129.921 54.2753Z" fill="black"/>
<path fill-rule="evenodd" clip-rule="evenodd" d="M129.139 54.2337C129.22 54.2647 129.083 54.3939 129.101 54.5175C129.08 54.5126 129.06 54.5078 129.04 54.5029C129.066 54.3597 129.114 54.377 129.139 54.2337Z" fill="black"/>
<path fill-rule="evenodd" clip-rule="evenodd" d="M129.296 54.5154C129.377 54.3895 129.19 54.8416 129.311 54.7637C129.207 54.978 129.209 54.7139 129.296 54.5154Z" fill="black"/>
<path fill-rule="evenodd" clip-rule="evenodd" d="M128.828 54.9412C128.847 54.947 128.828 55.0009 128.822 55.0375C128.811 55.0903 128.835 55.0676 128.842 55.0424C128.866 55.0633 128.826 55.1613 128.81 55.2296C128.73 55.2392 128.787 55.08 128.828 54.9412Z" fill="black"/>
<path fill-rule="evenodd" clip-rule="evenodd" d="M128.987 55.664C129.014 55.6702 129.04 55.6769 129.067 55.6831C129.022 55.7356 128.99 55.8771 128.955 55.999C128.891 55.9793 128.972 55.7811 128.987 55.664Z" fill="black"/>
<path fill-rule="evenodd" clip-rule="evenodd" d="M128.219 56.7007C128.203 56.8586 128.193 57.0087 128.169 57.1773C128.121 57.0983 128.148 56.927 128.219 56.7007Z" fill="black"/>
<path fill-rule="evenodd" clip-rule="evenodd" d="M137.916 59.043C137.973 59.1214 137.794 59.4314 137.746 59.638C137.689 59.6398 137.839 59.3859 137.738 59.4399C137.845 59.3407 137.832 59.253 137.916 59.043Z" fill="black"/>
<path fill-rule="evenodd" clip-rule="evenodd" d="M126.933 61.2805C126.96 61.2868 126.987 61.2935 127.014 61.2999C126.965 61.2706 126.85 61.5504 126.955 61.4324C127.002 61.517 126.881 61.5341 126.869 61.6563C126.855 61.5745 126.884 61.4396 126.933 61.2805Z" fill="black"/>
<path fill-rule="evenodd" clip-rule="evenodd" d="M126.228 63.7505C126.257 63.8043 126.222 63.9368 126.177 64.0802C126.185 63.9507 126.157 63.8858 126.228 63.7505Z" fill="black"/>
<path fill-rule="evenodd" clip-rule="evenodd" d="M136.569 66.5414C136.607 66.5633 136.517 66.7435 136.544 66.7798C136.572 66.7505 136.598 66.7038 136.623 66.6523C136.66 66.7476 136.542 66.8931 136.49 66.8157C136.552 66.6616 136.508 66.6135 136.569 66.5414Z" fill="black"/>
<path fill-rule="evenodd" clip-rule="evenodd" d="M126.454 64.6859C126.464 64.7178 126.474 64.7492 126.494 64.6956C126.507 64.8083 126.427 64.7698 126.416 64.9698C126.366 64.9522 126.42 64.8072 126.454 64.6859Z" fill="black"/>
<path fill-rule="evenodd" clip-rule="evenodd" d="M126.195 64.7695C126.216 64.8425 126.109 65.1635 126.064 65.2271C126.043 65.1539 126.151 64.8327 126.195 64.7695Z" fill="black"/>
<path fill-rule="evenodd" clip-rule="evenodd" d="M126.402 65.0154C126.384 65.1587 126.319 65.3081 126.258 65.5188C126.238 65.4251 126.358 65.1593 126.349 65.0515C126.371 65.0643 126.388 65.0497 126.402 65.0154Z" fill="black"/>
<path fill-rule="evenodd" clip-rule="evenodd" d="M124.981 67.0672C125.005 67.1894 124.869 67.3368 124.883 67.4839C124.771 67.4525 124.939 67.2162 124.981 67.0672Z" fill="black"/>
<path fill-rule="evenodd" clip-rule="evenodd" d="M125.18 67.1161C125.261 67.0754 125.153 67.268 125.234 67.2273C125.21 67.3338 125.162 67.2633 125.135 67.3497C125.079 67.2915 125.149 67.262 125.18 67.1161Z" fill="black"/>
<path fill-rule="evenodd" clip-rule="evenodd" d="M124.821 67.1788C124.776 67.2304 124.747 67.3916 124.702 67.4434C124.681 67.3335 124.736 67.1602 124.821 67.1788Z" fill="black"/>
<path fill-rule="evenodd" clip-rule="evenodd" d="M124.946 67.9398C124.961 68.0842 124.851 68.5481 124.77 68.6307C124.74 68.5895 124.752 68.4957 124.776 68.3877C124.775 68.5885 124.966 68.0147 124.834 68.1081C124.862 67.9858 124.922 68.091 124.946 67.9398Z" fill="black"/>
<path fill-rule="evenodd" clip-rule="evenodd" d="M124.596 69.6159C124.616 69.6207 124.636 69.6256 124.656 69.6306C124.628 69.8058 124.56 69.6845 124.53 69.8442C124.486 69.8213 124.576 69.6406 124.596 69.6159Z" fill="black"/>
<path fill-rule="evenodd" clip-rule="evenodd" d="M124.16 70.3901C124.256 70.4553 124.096 70.6511 124.102 70.8163C124.042 70.7723 124.165 70.5024 124.16 70.3901Z" fill="black"/>
<path fill-rule="evenodd" clip-rule="evenodd" d="M123.68 70.4215C123.701 70.4263 123.721 70.4312 123.741 70.4361C123.686 70.4585 123.669 70.7568 123.602 70.6958C123.628 70.6045 123.654 70.5128 123.68 70.4215Z" fill="black"/>
<path fill-rule="evenodd" clip-rule="evenodd" d="M133.877 75.5243C133.924 75.5545 133.86 75.7437 133.819 75.9505C133.79 75.9255 133.771 75.9768 133.753 76.0321C133.749 75.9137 133.869 75.7071 133.877 75.5243Z" fill="black"/>
<path fill-rule="evenodd" clip-rule="evenodd" d="M122.448 73.1568C122.47 73.2287 122.379 73.4398 122.384 73.5323C122.323 73.4821 122.4 73.2632 122.448 73.1568Z" fill="black"/>
<path fill-rule="evenodd" clip-rule="evenodd" d="M132.53 80.2358C132.561 80.2768 132.549 80.3707 132.525 80.4791C132.429 80.5178 132.496 80.357 132.53 80.2358Z" fill="black"/>
<path fill-rule="evenodd" clip-rule="evenodd" d="M130.698 51.4806C130.805 51.2787 130.838 50.9966 130.887 50.7438C130.97 50.8064 130.893 50.6184 130.967 50.6164C131.014 50.7402 130.744 51.3148 130.799 51.5051C130.83 51.4975 130.848 51.3943 130.871 51.3268C130.936 51.2837 130.767 51.7183 130.706 51.6779C130.758 51.499 130.793 51.4157 130.698 51.4806Z" fill="black"/>
<path fill-rule="evenodd" clip-rule="evenodd" d="M139.847 54.9127C139.821 55.0036 139.885 54.9839 139.834 55.1052C139.742 55.2934 139.666 55.5438 139.705 55.7101C139.666 55.8022 139.646 55.7989 139.632 55.7407C139.542 56.2924 139.378 56.6793 139.347 57.1881C139.305 57.0521 139.169 57.6278 139.276 57.5129C139.039 58.1199 138.787 59.0941 138.762 59.6871C138.797 59.4545 138.987 59.0641 138.957 58.8538C139.015 58.9803 139.028 58.6559 139.002 58.6205C139.022 58.6253 139.042 58.6302 139.062 58.635C139.611 56.6641 140.195 54.4767 140.714 52.7748C140.698 52.5691 140.975 51.9692 140.881 51.7396C140.997 51.4978 141.039 51.415 141.071 51.1498C141.154 51.281 141.162 50.872 141.237 50.9453C141.255 50.7235 141.42 50.5038 141.374 50.3917C141.272 50.6686 141.277 50.8656 141.157 50.9257C141.256 50.6644 141.284 50.3638 141.426 50.2086C141.46 49.9914 141.502 49.5756 141.628 49.4259C141.542 49.3799 141.717 49.1842 141.692 49.0501C141.663 49.0238 141.622 49.1056 141.632 49.0359C141.641 48.8458 141.791 48.6471 141.789 48.4871C141.77 48.5419 141.752 48.5938 141.722 48.5686C141.748 48.425 141.795 48.4427 141.821 48.2989C141.758 48.2657 141.731 48.4888 141.682 48.5588C141.718 48.6697 141.573 49.1945 141.506 49.2495C141.516 49.0848 141.483 49.0208 141.591 48.8787C141.545 48.8326 141.524 48.9603 141.484 48.951C141.441 49.1034 141.505 49.1233 141.453 49.2856C141.408 49.2428 141.414 49.136 141.385 49.0739C141.332 49.2372 141.429 49.2167 141.387 49.3675C141.337 49.4027 141.359 49.2142 141.306 49.3483C141.339 49.4555 141.211 49.581 141.175 49.6585C141.301 49.6548 141.099 49.8839 141.144 49.9931C141.158 49.8458 141.275 49.7475 141.263 49.8757C141.165 49.9644 141.187 50.0614 141.099 50.2273C141.079 50.2218 141.064 50.2583 141.045 50.2629C141.105 50.0493 140.988 50.0556 141.038 50.2125C140.938 50.4932 140.826 50.7947 140.756 50.9758C140.781 50.9242 140.807 50.8771 140.835 50.8479C140.763 51.1268 140.696 51.0579 140.777 51.1273C140.727 51.3213 140.641 51.2665 140.578 51.3729C140.664 51.3461 140.537 51.5826 140.607 51.5754C140.64 51.491 140.658 51.2931 140.712 51.3564C140.614 51.6519 140.603 51.6878 140.562 51.9558C140.527 51.9361 140.503 51.9967 140.469 51.982C140.536 51.8515 140.593 51.6572 140.533 51.6062C140.434 51.8577 140.44 51.9994 140.457 52.1746C140.358 52.2729 140.357 52.454 140.398 52.4543C140.329 52.5787 140.308 52.4913 140.278 52.425C140.221 52.6961 140.198 52.7865 140.081 52.9645C140.095 52.8986 140.052 52.901 140.047 52.8582C140.045 53.0539 140.014 53.0734 139.923 53.2194C139.944 53.3957 139.83 54.0024 139.662 54.2811C139.691 54.4812 139.617 54.6468 139.521 55.0782C139.591 55.1641 139.599 54.8046 139.659 54.8182C139.708 54.892 139.676 55.2239 139.555 55.3313C139.502 55.3375 139.626 55.1258 139.535 55.1794C139.445 55.7171 139.754 55.1369 139.847 54.9127ZM141.178 50.0998C141.198 50.1047 141.218 50.1095 141.238 50.1143C141.22 50.2642 141.175 50.2179 141.146 50.288C141.123 50.2667 141.162 50.1688 141.178 50.0998ZM140.993 50.4463C141.016 50.6149 141.053 50.8409 140.904 51.0604C140.877 51.0541 140.85 51.0479 140.823 51.041C140.834 50.9566 140.936 50.8654 140.888 50.8123C140.952 50.6653 140.913 50.8731 140.936 50.8726C141.018 50.7694 140.894 50.6695 140.993 50.4463ZM140.386 52.6469C140.41 52.7629 140.304 53.1565 140.209 53.1907C140.269 53.0115 140.316 52.748 140.386 52.6469ZM140.167 52.8877C140.204 52.9506 140.136 53.1427 140.09 53.3091C140.037 53.2224 140.1 53.0579 140.167 52.8877ZM140.183 53.2825C140.196 53.3459 140.176 53.4491 140.145 53.5667C140.058 53.5876 140.133 53.3446 140.183 53.2825ZM139.97 53.4266C140.027 53.4255 140.018 53.5057 139.979 53.6244C139.921 53.6252 139.931 53.5451 139.97 53.4266ZM140.092 53.6026C140.198 53.7234 139.907 54.1892 139.868 54.0868C139.973 53.9462 140.038 53.8054 140.092 53.6026ZM140.055 54.0338C140.095 53.9721 140.007 54.2293 139.97 54.4044C139.9 54.3282 139.99 54.1306 140.055 54.0338ZM139.782 54.1629C139.847 54.1263 139.837 54.3255 139.902 54.1922C139.835 54.4048 139.807 54.4483 139.692 54.7777C139.642 54.672 139.69 54.4435 139.782 54.1629Z" fill="black"/>
<path fill-rule="evenodd" clip-rule="evenodd" d="M142.268 31.6336C142.251 31.758 142.196 31.9443 142.124 32.1371C142.142 32.0174 142.19 31.789 142.268 31.6336Z" fill="black"/>
<path fill-rule="evenodd" clip-rule="evenodd" d="M135.417 36.2389C135.394 36.6443 135.076 37.2641 135.125 37.6353C135.063 37.6587 135.026 37.8546 134.959 37.8398C135.141 37.4002 135.076 37.1995 135.254 36.8843C135.221 36.7264 135.367 36.4021 135.417 36.2389Z" fill="black"/>
<path fill-rule="evenodd" clip-rule="evenodd" d="M143.008 39.784C142.974 39.8696 142.944 39.979 142.895 39.9524C142.975 39.755 142.926 39.7166 142.96 39.5769C142.94 39.5734 142.928 39.6286 142.913 39.6636C142.866 39.4077 143.089 38.9682 143.241 38.6665C143.278 38.69 143.269 38.7714 143.283 38.8232C143.142 38.842 143.015 39.5964 143.008 39.784Z" fill="black"/>
<path fill-rule="evenodd" clip-rule="evenodd" d="M134.987 38.0418C135.058 37.9822 134.886 38.2474 134.862 38.4026C134.823 38.3321 134.881 38.1424 134.92 37.9765C134.931 38.0415 134.913 38.2142 134.987 38.0418Z" fill="black"/>
<path fill-rule="evenodd" clip-rule="evenodd" d="M142.53 41.0859C142.555 40.995 142.491 41.0143 142.541 40.8935C142.595 40.857 142.65 40.835 142.694 40.7348C142.713 40.7513 142.682 40.8288 142.708 40.8361C142.585 40.8859 142.588 41.1508 142.443 41.1634C142.468 41.1088 142.495 41.0757 142.53 41.0859Z" fill="black"/>
<path fill-rule="evenodd" clip-rule="evenodd" d="M142.489 41.2233C142.565 41.2057 142.494 41.3214 142.463 41.3145C142.442 41.3792 142.423 41.443 142.444 41.4566C142.393 41.5643 142.381 41.3788 142.403 41.3C142.438 41.3254 142.468 41.306 142.489 41.2233Z" fill="black"/>
<path fill-rule="evenodd" clip-rule="evenodd" d="M134.261 39.3822C134.25 39.4351 134.274 39.4128 134.281 39.3871C134.298 39.5042 134.156 39.8178 134.164 39.9459C134.152 39.9468 134.181 39.2803 134.307 39.2959C134.295 39.3491 134.28 39.3757 134.261 39.3822Z" fill="black"/>
<path fill-rule="evenodd" clip-rule="evenodd" d="M134.038 40.0133C134.003 39.9405 133.883 40.2426 133.812 40.3504C133.876 40.3521 133.707 40.8362 133.617 41.1834C133.602 41.0026 133.8 40.122 133.964 40.0447C134.05 39.7976 134.046 39.7712 134.128 39.5462C134.113 39.881 133.905 40.5775 133.809 40.8874C133.769 40.7947 133.981 40.2453 134.038 40.0133Z" fill="black"/>
<path fill-rule="evenodd" clip-rule="evenodd" d="M141.968 43.0533C142.049 42.8804 141.989 43.0674 142.048 43.0725C142.026 43.1488 142.005 43.2251 141.983 43.3012C141.967 43.1998 141.937 43.3123 141.889 43.3274C141.845 43.4708 141.996 43.374 141.904 43.5759C141.852 43.59 141.9 43.4815 141.87 43.4698C141.873 43.6382 141.819 43.827 141.726 43.9727C141.689 43.8855 141.75 43.7959 141.804 43.698C141.779 43.6503 141.782 43.5673 141.743 43.5368C141.77 43.4998 141.794 43.4383 141.816 43.3584C141.837 43.3718 141.809 43.4462 141.796 43.5008C141.825 43.4208 142.021 43.1203 141.968 43.0533Z" fill="black"/>
<path fill-rule="evenodd" clip-rule="evenodd" d="M133.665 41.3904C133.625 41.4285 133.59 41.5027 133.553 41.5587C133.529 41.5379 133.569 41.4401 133.585 41.3708C133.596 41.4437 133.639 41.4211 133.672 41.2941C133.665 41.4103 133.743 41.4232 133.694 41.5928C133.598 41.6317 133.677 41.4548 133.665 41.3904Z" fill="black"/>
<path fill-rule="evenodd" clip-rule="evenodd" d="M133.669 41.9778C133.696 42.0996 133.575 42.2322 133.585 42.3487C133.524 42.2932 133.641 42.0742 133.669 41.9778Z" fill="black"/>
<path fill-rule="evenodd" clip-rule="evenodd" d="M141.693 44.1605C141.669 44.2664 141.64 44.3316 141.601 44.3342C141.58 44.4712 141.616 44.3928 141.669 44.3987C141.651 44.4599 141.634 44.521 141.616 44.582C141.62 44.3345 141.558 44.6561 141.489 44.6496C141.579 44.4656 141.571 44.239 141.693 44.1605Z" fill="black"/>
<path fill-rule="evenodd" clip-rule="evenodd" d="M141.367 45.3044C141.435 45.1341 141.418 45.0045 141.472 44.9384C141.493 44.9609 141.48 45.0264 141.506 45.0445C141.446 45.1536 141.343 45.449 141.307 45.2901C141.334 45.2242 141.327 45.3143 141.367 45.3044Z" fill="black"/>
<path fill-rule="evenodd" clip-rule="evenodd" d="M137.979 44.9255C137.912 44.9303 138.069 44.3489 138.03 44.5958C137.987 44.7372 138.056 44.7414 137.979 44.9255Z" fill="black"/>
<path fill-rule="evenodd" clip-rule="evenodd" d="M137.897 44.9064C137.924 45.0211 137.8 45.2317 137.766 45.364C137.741 45.2683 137.87 45.1007 137.897 44.9064Z" fill="black"/>
<path fill-rule="evenodd" clip-rule="evenodd" d="M140.768 46.5783C140.81 46.551 140.84 46.4402 140.888 46.4601C140.803 46.7881 140.754 46.8992 140.712 47.1511C140.694 47.0386 140.669 47.098 140.637 47.0352C140.65 46.9899 140.663 46.9441 140.676 46.8983C140.698 46.9115 140.669 46.986 140.657 47.04C140.74 47.0183 140.826 46.6104 140.768 46.5783Z" fill="black"/>
<path fill-rule="evenodd" clip-rule="evenodd" d="M141.141 47.4505C141.123 47.6095 141.023 47.7479 140.984 47.999C140.972 47.8386 141.06 47.6218 141.141 47.4505Z" fill="black"/>
<path fill-rule="evenodd" clip-rule="evenodd" d="M141.82 48.1518C141.846 48.0073 141.905 48.1129 141.926 47.9329C141.969 47.9889 141.915 48.164 141.981 48.1906C141.877 48.3018 141.958 47.9471 141.82 48.1518Z" fill="black"/>
<path fill-rule="evenodd" clip-rule="evenodd" d="M140.837 47.9145C140.77 47.9956 140.72 48.1927 140.659 48.3118C140.672 48.315 140.685 48.318 140.699 48.3215C140.568 48.5062 140.755 47.857 140.837 47.9145Z" fill="black"/>
<path fill-rule="evenodd" clip-rule="evenodd" d="M141.331 48.8158C141.379 48.8068 141.375 48.8605 141.398 48.8814C141.357 48.9835 141.235 48.9298 141.239 49.1365C141.178 49.2729 141.234 49.0288 141.205 49.0303C141.247 48.9647 141.297 48.951 141.331 48.8158Z" fill="black"/>
<path fill-rule="evenodd" clip-rule="evenodd" d="M140.542 48.7236C140.609 48.8057 140.453 49.0195 140.405 49.1302C140.395 49.1024 140.385 49.0749 140.357 49.0698C140.353 49.2636 140.277 49.1828 140.218 49.3302C140.209 49.3809 140.249 49.3706 140.232 49.431C140.201 49.5765 140.156 49.631 140.099 49.5945C140.2 49.3683 140.185 49.3941 140.23 49.1374C140.25 49.1422 140.271 49.1471 140.291 49.1519C140.315 49.044 140.344 48.9771 140.376 48.9281C140.318 48.9396 140.288 48.9718 140.289 48.8583C140.246 48.828 140.24 49.0692 140.189 48.9804C140.235 48.8916 140.282 48.8093 140.328 48.7209C140.297 48.9292 140.371 48.8237 140.456 48.8005C140.393 48.8787 140.421 48.915 140.391 49.0292C140.462 49.0789 140.498 48.8694 140.542 48.7236Z" fill="black"/>
<path fill-rule="evenodd" clip-rule="evenodd" d="M141.333 49.11C141.273 49.2228 141.249 49.2375 141.234 49.3797C141.2 49.3697 141.172 49.4009 141.148 49.4567C141.148 49.4458 141.265 49.0958 141.333 49.11Z" fill="black"/>
<path fill-rule="evenodd" clip-rule="evenodd" d="M140.213 49.573C140.246 49.7277 140.103 49.8046 140.054 49.8281C140.053 49.8775 140.086 49.8862 140.055 49.9751C139.947 49.8381 140.154 49.7294 140.213 49.573Z" fill="black"/>
<path fill-rule="evenodd" clip-rule="evenodd" d="M130.368 50.0805C130.367 50.1706 130.231 50.4911 130.177 50.6704C130.172 50.5284 130.311 50.2338 130.368 50.0805Z" fill="black"/>
<path fill-rule="evenodd" clip-rule="evenodd" d="M134.969 51.9256C135.003 51.8398 135.002 51.7571 134.975 51.8294C135.028 51.5859 135.095 51.5557 135.089 51.8077C135.078 51.8551 134.975 51.8793 135.029 51.9402C135.002 52.0061 135.009 51.916 134.969 51.9256Z" fill="black"/>
<path fill-rule="evenodd" clip-rule="evenodd" d="M134.526 53.4805C134.546 53.4947 134.524 53.5289 134.513 53.5262C134.52 53.5868 134.546 53.6232 134.488 53.7643C134.447 53.7278 134.455 53.5675 134.526 53.4805Z" fill="black"/>
<path fill-rule="evenodd" clip-rule="evenodd" d="M129.683 52.5554C129.712 52.6998 129.617 52.8449 129.552 53.0131C129.532 52.9484 129.655 52.7375 129.683 52.5554Z" fill="black"/>
<path fill-rule="evenodd" clip-rule="evenodd" d="M128.073 57.5943C128.082 57.5635 128.09 57.533 128.099 57.5027C128.114 57.5156 128.124 57.4895 128.132 57.4618C128.123 57.592 128.143 57.6864 128.108 57.8475C128.039 57.8432 128.149 57.6482 128.073 57.5943Z" fill="black"/>
<path fill-rule="evenodd" clip-rule="evenodd" d="M127.656 59.3519C127.63 59.2539 127.826 58.9175 127.682 59.1134C127.862 58.7432 127.974 58.4142 128.035 58.0254C127.945 58.3324 127.889 58.3434 127.811 58.5092C127.843 58.1838 128.038 58.0446 128.007 57.8227C127.982 57.893 127.954 57.8441 127.947 57.8081C127.912 57.9293 127.881 58.0805 127.828 58.0734C127.806 58.0131 127.984 57.7064 127.906 57.6516C127.604 58.8101 127.324 59.7131 126.991 60.8537C127.041 60.7896 127.079 60.6465 127.13 60.5938C127.124 60.6308 127.105 60.6843 127.124 60.6901C127.138 60.6561 127.15 60.6002 127.17 60.6032C127.103 60.7669 127.072 61.0375 127.139 60.938C127.095 60.8452 127.199 60.6529 127.257 60.5262C127.252 60.402 127.125 60.5971 127.163 60.4061C127.316 60.1324 127.323 59.6196 127.484 59.5058C127.49 59.6814 127.229 60.1442 127.342 60.3028C127.418 60.0425 127.461 59.7132 127.604 59.5347C127.596 59.4851 127.589 59.4344 127.583 59.3828C127.666 59.2232 127.609 59.4301 127.656 59.3519ZM127.798 58.555C127.866 58.5574 127.814 58.773 127.76 58.8389C127.737 58.7881 127.756 58.6851 127.798 58.555Z" fill="black"/>
<path fill-rule="evenodd" clip-rule="evenodd" d="M128.837 58.0722C128.88 58.089 128.79 58.2684 128.779 58.3515C128.769 58.3191 128.759 58.2876 128.739 58.3418C128.704 58.3053 128.817 58.1761 128.837 58.0722Z" fill="black"/>
<path fill-rule="evenodd" clip-rule="evenodd" d="M127.605 60.9536C127.596 61.1038 127.587 61.3739 127.474 61.5578C127.481 61.4025 127.575 61.1383 127.605 60.9536Z" fill="black"/>
<path fill-rule="evenodd" clip-rule="evenodd" d="M127.394 61.2451C127.419 61.1843 127.456 61.2191 127.488 61.2185C127.446 61.3378 127.449 61.6418 127.343 61.5748C127.4 61.432 127.515 61.2734 127.394 61.2451Z" fill="black"/>
<path fill-rule="evenodd" clip-rule="evenodd" d="M126.436 62.8717C126.457 62.8848 126.474 62.8704 126.489 62.8356C126.503 63.0108 126.409 63.1892 126.325 63.3341C126.314 63.2149 126.421 63.0557 126.436 62.8717Z" fill="black"/>
<path fill-rule="evenodd" clip-rule="evenodd" d="M136.719 65.9427C136.743 65.8217 136.865 65.6989 136.859 65.8288C136.89 65.8368 136.78 65.8621 136.719 65.9427Z" fill="black"/>
<path fill-rule="evenodd" clip-rule="evenodd" d="M126.769 63.7345C126.79 63.6524 126.821 63.644 126.841 63.5564C126.884 63.6787 126.834 63.7392 126.797 63.9372C126.738 64.0451 126.853 63.6932 126.769 63.7345Z" fill="black"/>
<path fill-rule="evenodd" clip-rule="evenodd" d="M126.316 64.9452C126.327 65.1453 126.154 65.5039 126.174 65.7427C126.1 65.5795 126.258 65.2102 126.316 64.9452Z" fill="black"/>
<path fill-rule="evenodd" clip-rule="evenodd" d="M126.053 65.4198C126.023 65.3945 126.004 65.4465 125.986 65.5016C125.943 65.4778 125.975 65.3679 126.018 65.3135C126.065 65.3109 126.107 65.5444 126.026 65.5116C126.035 65.4814 126.044 65.4507 126.053 65.4198Z" fill="black"/>
<path fill-rule="evenodd" clip-rule="evenodd" d="M136.147 68.3955C136.215 68.3412 136.008 68.6885 136.03 68.8073C136.008 68.6705 135.925 68.8816 135.877 68.966C135.831 68.8592 135.928 68.7325 135.974 68.5493C135.963 68.7715 136.089 68.4968 136.147 68.3955Z" fill="black"/>
<path fill-rule="evenodd" clip-rule="evenodd" d="M137.923 69.4606C137.877 69.4581 137.96 69.2965 137.968 69.2271C138.062 69.2701 138.03 69.467 137.991 69.6727C137.936 69.5056 137.939 69.5062 137.923 69.4606Z" fill="black"/>
<path fill-rule="evenodd" clip-rule="evenodd" d="M125.105 67.3899C125.173 67.4641 125.037 67.6163 125 67.756C124.968 67.6985 125.086 67.5522 125.105 67.3899Z" fill="black"/>
<path fill-rule="evenodd" clip-rule="evenodd" d="M134.498 74.5492C134.474 74.5222 134.522 74.493 134.537 74.4123C134.548 74.4837 134.538 74.5687 134.59 74.3762C134.634 74.349 134.559 74.6496 134.506 74.7471C134.476 74.7307 134.582 74.4013 134.498 74.5492Z" fill="black"/>
<path fill-rule="evenodd" clip-rule="evenodd" d="M132.894 79.6388C132.925 79.5074 132.86 79.9653 132.89 80.0289C132.841 80.063 132.714 80.244 132.738 80.3346C132.607 80.3898 132.814 80.0966 132.869 79.877C132.824 79.8803 132.793 79.9898 132.756 80.0458C132.732 79.9526 132.872 79.86 132.894 79.6388Z" fill="black"/>
<path fill-rule="evenodd" clip-rule="evenodd" d="M132.275 81.054C132.308 80.9701 132.326 80.7721 132.38 80.8355C132.282 81.0983 132.381 81.1743 132.469 81.0521C132.481 81.0869 132.46 81.1626 132.503 81.1587C132.387 81.3128 132.361 81.0996 132.275 81.054Z" fill="black"/>
<path fill-rule="evenodd" clip-rule="evenodd" d="M140.919 48.0813C140.914 48.1566 140.963 48.1651 140.927 48.279C140.843 48.231 140.796 48.4574 140.742 48.6255C140.655 48.6233 140.801 48.3351 140.82 48.2042C140.852 48.1599 140.897 48.2074 140.919 48.0813Z" fill="black"/>
</g>
</g>
<path d="M118.575 80.6659L93.4053 72.0726C91.8037 71.5258 90.9591 69.8137 91.5186 68.2487L109.928 16.7567C110.487 15.1918 112.239 14.3662 113.841 14.913L139.01 23.5063C140.612 24.0531 141.456 25.7652 140.897 27.3302L122.488 78.8222C121.928 80.3874 120.176 81.2129 118.575 80.6659Z" fill="white"/>
<path d="M129.007 21.5595L120.84 18.7775C120.454 18.6462 120.251 18.2344 120.385 17.8575C120.52 17.4806 120.63 17.2461 120.63 17.2461L130.175 20.513C130.175 20.513 130.083 20.7381 129.949 21.115C129.814 21.4919 129.393 21.6908 129.007 21.5595Z" fill="#1D478E"/>
<path d="M138.414 39.2857C138.377 39.2806 138.341 39.2719 138.305 39.2599C138.006 39.1576 137.848 38.8376 137.952 38.545L139.897 33.1043C140.002 32.8117 140.329 32.6584 140.629 32.7596C140.928 32.8619 141.086 33.1819 140.981 33.4745L139.036 38.9152C138.944 39.1726 138.68 39.3229 138.414 39.2857Z" fill="#1D478E"/>
<path d="M135.741 46.7639C135.705 46.7588 135.668 46.7501 135.632 46.738C135.333 46.6357 135.175 46.3158 135.28 46.0232L137.225 40.5824C137.329 40.2899 137.656 40.136 137.956 40.2378C138.255 40.3401 138.413 40.6601 138.309 40.9526L136.364 46.3934C136.272 46.6507 136.007 46.801 135.741 46.7639Z" fill="#1D478E"/>
<path d="M109.313 72.5778C108.784 74.0573 107.128 74.8377 105.614 74.3207C104.1 73.8038 103.301 72.1854 103.83 70.7059C104.359 69.2265 106.015 68.446 107.529 68.9631C109.043 69.4799 109.842 71.0984 109.313 72.5778Z" fill="#1D478E"/>
<g clip-path="url(#clip0_271_3261)">
<path d="M125.455 41.6645C125.455 41.6645 122.363 41.1249 123.429 38.888C123.429 38.888 120.39 39.3045 120.877 40.9263C120.877 40.9263 119.052 42.2028 118.853 43.1107L121.243 43.7618L125.455 41.6645Z" fill="#1D478E"/>
<path d="M119.55 52.4505L117.435 58.5353L122.366 61.2762L124.637 53.8784L119.55 52.4505Z" fill="#F9957A"/>
<path d="M125.108 55.6106L118.521 55.4306L119.608 52.0838L122.577 53.2768L125.368 55.1122L125.108 55.6106Z" fill="#161742"/>
<path d="M128.732 53.3267C131.528 50.192 131.249 45.5127 128.116 42.8799C124.979 40.2388 120.171 40.6387 117.376 43.7735C114.581 46.9083 114.038 50.916 117.178 53.5516C120.314 56.1927 125.937 56.4615 128.732 53.3267Z" fill="#F9957A"/>
<path d="M116.444 45.7778C116.568 45.4686 116.46 45.1185 116.184 44.934C115.649 44.5763 114.937 45.0531 115.071 45.6793C115.219 46.3648 116.18 46.4338 116.444 45.7778Z" fill="#F9957A"/>
<path d="M122.312 45.5383C122.44 45.6015 122.607 45.573 122.734 45.4508C122.897 45.2908 122.924 45.036 122.792 44.8876C121.366 43.1752 119.866 43.1103 119.804 43.1071C119.6 43.0988 119.412 43.2746 119.377 43.4978C119.346 43.7136 119.482 43.901 119.686 43.9094C119.686 43.9094 120.98 43.9838 122.214 45.4626C122.245 45.4962 122.28 45.5226 122.318 45.5415L122.312 45.5383Z" fill="#161742"/>
<ellipse cx="0.655522" cy="0.645113" rx="0.655522" ry="0.645113" transform="matrix(-0.895675 -0.442114 -0.459716 0.889403 120.575 45.4016)" fill="#161742"/>
<path d="M120.951 41.8238L123.235 40.8206C125.045 40.933 126.966 41.9844 128.026 42.8841C130.308 44.8326 131.221 47.7833 130.294 50.5726C129.513 52.9339 128.264 53.9955 127.256 54.683C126.051 55.4994 123.71 55.5906 123.71 55.5906L126.692 50.7126C126.692 50.7126 122.434 48.0832 125.726 44.7832L124.039 45.1631L120.957 41.8265L120.951 41.8238Z" fill="#1D478E"/>
<path d="M128.171 51.2064C128.435 49.9975 127.696 48.8275 126.535 48.5926C125.373 48.3578 124.215 49.1471 123.951 50.3559C123.688 51.5647 124.426 52.7347 125.588 52.9696C126.75 53.2045 127.908 52.4152 128.171 51.2064Z" fill="#F9957A"/>
<path d="M124.49 51.1916C124.583 51.2373 124.692 51.2375 124.783 51.1813L126.97 49.8899C127.116 49.807 127.163 49.6221 127.074 49.4773C126.99 49.3351 126.801 49.2893 126.652 49.3776L124.466 50.669C124.32 50.7519 124.272 50.9368 124.362 51.0816C124.391 51.1299 124.432 51.1701 124.487 51.197L124.49 51.1916Z" fill="#161742"/>
<path d="M125.65 52.0302C125.743 52.0759 125.853 52.0761 125.947 52.0145C126.093 51.9315 126.136 51.7438 126.051 51.6015L125.435 50.6054C125.348 50.4685 125.162 50.4172 125.013 50.5056C124.867 50.5885 124.824 50.7762 124.909 50.9185L125.525 51.9147C125.555 51.963 125.596 52.0033 125.645 52.0275L125.65 52.0302Z" fill="#161742"/>
<path d="M116.711 50.6953C117.532 51.1006 118.436 50.7417 118.473 50.7242C118.634 50.6539 118.719 50.4752 118.659 50.3102C118.6 50.1452 118.423 50.0722 118.262 50.1425C118.262 50.1425 117.577 50.4103 117.004 50.1275C116.85 50.0513 116.664 50.1164 116.582 50.2754C116.5 50.4344 116.571 50.6049 116.716 50.698L116.711 50.6953Z" fill="#161742"/>
<path d="M89.2837 43.4674C89.2837 43.4674 78.9552 41.5958 73.7481 36.9396C73.4047 36.6313 72.814 36.5826 72.3792 36.8271C71.9564 37.0643 71.8099 37.5045 72.0374 37.8633C72.7253 38.9447 75.0478 41.0511 77.8148 43.1591C82.6979 46.88 90.3212 45.315 90.3212 45.315L89.2837 43.4674Z" fill="#F9957A"/>
<path d="M83.5494 39.3674C83.5494 39.3674 80.0426 37.961 77.7857 30.2793C77.6677 29.8768 77.185 29.5981 76.7357 29.6138C76.2968 29.6292 75.9956 29.9233 76.0277 30.3087C76.1262 31.4749 76.5081 34.0233 77.9876 36.8332C79.5456 39.7891 83.491 42.7907 83.491 42.7907L83.5511 39.3656L83.5494 39.3674Z" fill="#F9957A"/>
<path d="M79.7189 37.6027C79.7189 37.6027 77.7207 35.2569 76.1541 29.0016C76.0499 28.5887 75.6114 28.2527 75.1351 28.2244C74.6711 28.1975 74.3171 28.4669 74.3007 28.8599C74.2533 30.0491 74.3245 32.6644 75.5163 35.6502C76.7711 38.7926 77.9506 39.5787 77.9506 39.5787L79.7171 37.6027L79.7189 37.6027Z" fill="#F9957A"/>
<path d="M84.3845 42.2654C84.3845 42.2654 76.8523 35.2227 75.1959 28.6142C75.0874 28.1787 74.6217 27.8223 74.1204 27.7926C73.6314 27.7645 73.2548 28.0481 73.2389 28.4637C73.1881 29.7208 73.7611 33.073 74.8521 36.2829C76.7782 41.9475 84.1864 44.3388 84.1864 44.3388L84.3862 42.2654L84.3845 42.2654Z" fill="#F9957A"/>
<path d="M83.487 43.6101C83.487 43.6101 75.9549 36.5674 74.2984 29.9589C74.1882 29.5217 73.7243 29.167 73.2213 29.1374C72.7323 29.1092 72.3556 29.3928 72.3397 29.8084C72.2889 31.0655 73.0112 34.0372 74.104 37.2471C76.03 42.9117 83.2873 45.6835 83.2873 45.6835L83.487 43.6101Z" fill="#F9957A"/>
<path d="M75.8841 30.2939C75.8795 30.1039 75.9447 29.9244 76.07 29.7849C76.224 29.6139 76.4546 29.515 76.7186 29.5063C76.7899 29.5048 76.8503 29.5602 76.8537 29.6303C76.8677 29.7037 76.7995 29.7616 76.7283 29.763C76.5355 29.7686 76.372 29.8387 76.2653 29.9556C76.1756 30.0551 76.1352 30.1827 76.1472 30.3195C76.2525 31.5833 76.772 33.8751 77.6611 35.9247C77.6888 35.9893 77.6593 36.0652 77.5922 36.0923C77.5268 36.1193 77.4496 36.09 77.4201 36.0238C76.5199 33.9469 75.9926 31.621 75.8852 30.3385C75.8848 30.323 75.8844 30.3076 75.884 30.2922L75.8841 30.2939Z" fill="#161742"/>
<path d="M74.3038 29.3944C74.2945 29.0075 74.3355 28.6897 74.4415 28.4718C74.5293 28.2919 74.6604 28.1779 74.8261 28.1317C74.8952 28.1132 74.9674 28.1528 74.9865 28.2227C75.0055 28.2891 74.9655 28.3619 74.8947 28.3804C74.8014 28.4046 74.73 28.4711 74.6754 28.5835C74.1386 29.6786 75.547 34.0885 76.4856 36.2501C76.5133 36.3146 76.4838 36.3906 76.4167 36.4177C76.3513 36.4447 76.2741 36.4154 76.2447 36.3492C75.6759 35.0383 74.3491 31.3428 74.302 29.391L74.3038 29.3944Z" fill="#161742"/>
<path d="M73.0149 29.2865C73.0132 29.218 73.0658 29.1604 73.1352 29.1556C73.2064 29.1508 73.2702 29.2043 73.2754 29.2744C73.3581 30.3897 74.3399 34.6066 75.2367 36.6718C75.266 36.7363 75.2348 36.8123 75.1677 36.8393C75.1023 36.8663 75.025 36.8371 74.9956 36.7708C74.0731 34.6445 73.1004 30.4497 73.015 29.2899C73.0149 29.2882 73.0149 29.2865 73.0148 29.2831L73.0149 29.2865Z" fill="#161742"/>
<path d="M77.2432 38.6195C77.2417 38.5594 77.2823 38.5054 77.343 38.4922C77.4142 38.4753 77.4833 38.5186 77.5008 38.5887C77.5085 38.6195 78.2765 41.6355 81.2183 42.7082C81.287 42.7326 81.3202 42.8075 81.2957 42.8733C81.2712 42.9407 81.1952 42.9731 81.1282 42.9487C78.0525 41.8254 77.2551 38.6776 77.2474 38.6452C77.2454 38.6366 77.2434 38.6264 77.2432 38.6178L77.2432 38.6195Z" fill="#161742"/>
<path d="M73.9489 37.2529C73.9478 37.2066 73.9728 37.1598 74.0175 37.1366C74.0812 37.1045 74.1602 37.1269 74.1949 37.1914L75.7275 40.0329C75.7604 40.0957 75.7379 40.1733 75.6743 40.2072C75.6106 40.2393 75.5316 40.2168 75.4969 40.1523L73.9643 37.3109C73.9551 37.2922 73.9494 37.2734 73.9489 37.2529Z" fill="#161742"/>
<path d="M105.713 96.5012C105.713 96.5012 93.94 107.352 88.0491 118.227C83.9065 125.874 114.635 131.384 114.635 131.384L114.35 119.208L106.686 117.59C106.686 117.59 123.959 104.675 128.251 99.4386C132.543 94.2024 132.984 84.3466 133.238 79.8486C133.491 75.3523 137.495 71.6443 121.309 60.0514C105.123 48.4585 84.9462 36.5396 84.9462 36.5396L77.1231 46.676L104.491 65.0419L94.0548 85.2587L82.7511 93.6463L105.714 96.4995L105.713 96.5012Z" fill="#32B353"/>
<path d="M84.2147 27.8085C84.3867 27.8903 84.5046 28.0165 84.5846 28.1751C84.6663 28.0157 84.786 27.8879 84.9588 27.8044C84.7868 27.7226 84.6684 27.5964 84.5884 27.4379C84.5067 27.5972 84.3875 27.7251 84.2147 27.8085Z" fill="#AF8E2F"/>
<path d="M56.6848 21.2849C56.9513 21.4108 57.1344 21.6041 57.2594 21.8465C57.3844 21.6041 57.5683 21.4101 57.8348 21.2842C57.5683 21.1583 57.3844 20.965 57.2594 20.7227C57.1344 20.965 56.9513 21.159 56.6848 21.2849Z" fill="#FFD325"/>
<path d="M82.157 22.9166C82.2253 22.9003 82.2999 22.9089 82.3436 22.9443C82.4046 22.995 82.388 23.0784 82.2998 23.133L78.4162 25.5445C78.3301 25.5969 78.2104 25.6009 78.1469 25.5508C78.0859 25.5001 78.1025 25.4167 78.1907 25.362L82.0744 22.9505C82.1001 22.9356 82.1267 22.9239 82.157 22.9166Z" fill="#8CD6F5"/>
<path d="M83.8636 26.5279C83.9301 26.5502 83.9881 26.5968 84.0054 26.6497C84.0287 26.7245 83.9686 26.7859 83.8642 26.7854L79.2629 26.765C79.1615 26.7636 79.0586 26.7038 79.0328 26.6281C79.0095 26.5533 79.0696 26.4919 79.174 26.4924L83.7753 26.5128C83.8053 26.5138 83.8341 26.518 83.8636 26.5279Z" fill="#8CD6F5"/>
</g>
<path d="M15.3079 77.7921L43.5631 75.1627C45.3001 75.001 46.5741 73.4939 46.4088 71.7965L41.134 17.6683C40.9685 15.9709 39.4263 14.726 37.6893 14.8874L9.4341 17.5168C7.69713 17.6785 6.42318 19.1857 6.58864 20.8831L11.8633 75.0112C12.0287 76.7089 13.5709 77.9538 15.3079 77.7921Z" fill="#1D478E"/>
<path d="M14.6185 78.461C14.8664 78.4852 15.1186 78.486 15.3726 78.4622L43.6278 75.8326C45.7401 75.6361 47.2951 73.7968 47.0938 71.7324L41.8192 17.6042C41.7219 16.6042 41.2316 15.7011 40.4392 15.0614C39.6467 14.4216 38.6477 14.1217 37.6233 14.2169L9.36804 16.8463C7.25572 17.043 5.70077 18.8823 5.90202 20.9465L11.1764 75.0751C11.2737 76.0751 11.764 76.9782 12.5564 77.6179C13.1525 78.099 13.8659 78.3878 14.6185 78.461ZM15.2416 77.1218C14.5862 77.1823 13.9429 76.9905 13.4341 76.5797C12.9253 76.1687 12.6107 75.5892 12.548 74.9473L7.27336 20.8194C7.21088 20.1775 7.40772 19.5501 7.82808 19.0529C8.24841 18.5559 8.84169 18.2484 9.49851 18.1871L37.7538 15.5577C39.1099 15.4307 40.3181 16.4068 40.4474 17.732L45.722 71.8601C45.7845 72.502 45.5876 73.1294 45.1673 73.6262C44.747 74.1234 44.1537 74.4309 43.4966 74.4921L15.2416 77.1218Z" fill="#1D478E"/>
<mask id="mask2_271_3261" style="mask-type:luminance" maskUnits="userSpaceOnUse" x="6" y="14" width="41" height="64">
<mask id="mask3_271_3261" style="mask-type:luminance" maskUnits="userSpaceOnUse" x="6" y="14" width="41" height="64">
<path d="M15.3079 77.7919L43.5631 75.1625C45.3001 75.0008 46.5741 73.4937 46.4088 71.7963L41.134 17.6681C40.9685 15.9707 39.4263 14.7257 37.6893 14.8872L9.4341 17.5166C7.69713 17.6783 6.42318 19.1854 6.58864 20.8828L11.8633 75.011C12.0287 76.7086 13.5709 77.9536 15.3079 77.7919Z" fill="white"/>
</mask>
<g mask="url(#mask3_271_3261)">
<path d="M14.6192 78.4608C14.8671 78.4849 15.1193 78.4858 15.3733 78.462L43.6286 75.8323C45.7409 75.6359 47.2958 73.7966 47.0946 71.7321L41.82 17.604C41.7226 16.604 41.2323 15.7009 40.4399 15.0611C39.6475 14.4213 38.6485 14.1214 37.624 14.2166L9.36877 16.8461C7.25645 17.0427 5.7015 18.882 5.90276 20.9462L11.1771 75.0748C11.2744 76.0748 11.7647 76.9779 12.5572 77.6177C13.1532 78.0988 13.8667 78.3876 14.6192 78.4608ZM15.2423 77.1215C14.587 77.1821 13.9437 76.9903 13.4349 76.5795C12.9261 76.1685 12.6115 75.5889 12.5487 74.9471L7.2741 20.8191C7.21161 20.1773 7.40845 19.5498 7.82881 19.0526C8.24914 18.5556 8.84242 18.2482 9.49924 18.1869L37.7545 15.5575C39.1106 15.4305 40.3188 16.4066 40.4481 17.7317L45.7227 71.8599C45.7852 72.5017 45.5884 73.1292 45.168 73.626C44.7477 74.1232 44.1544 74.4306 43.4974 74.4919L15.2423 77.1215Z" fill="white"/>
</g>
</mask>
<g mask="url(#mask2_271_3261)">
<g opacity="0.4">
<path fill-rule="evenodd" clip-rule="evenodd" d="M7.35804 15.6514C7.2985 15.7178 7.31365 15.9691 7.33003 16.0788C7.36233 15.9845 7.34332 15.7823 7.35804 15.6514Z" fill="black"/>
<path fill-rule="evenodd" clip-rule="evenodd" d="M7.38035 16.3628C7.31332 16.4072 7.3984 16.7813 7.35871 16.98C7.4174 16.8971 7.38916 16.4491 7.38035 16.3628Z" fill="black"/>
<path fill-rule="evenodd" clip-rule="evenodd" d="M7.58243 17.55C7.51085 17.5891 7.53571 17.8337 7.53529 18.0242C7.58946 18.0606 7.55969 17.7005 7.61387 17.8824C7.66454 17.819 7.57654 17.6715 7.58243 17.55Z" fill="black"/>
<path fill-rule="evenodd" clip-rule="evenodd" d="M7.1929 26.143C7.10278 26.1277 7.18136 26.4723 7.09957 26.4752C7.11635 26.5878 7.13494 26.6963 7.19047 26.7125C7.24002 26.5511 7.1646 26.2664 7.1929 26.143Z" fill="black"/>
<path fill-rule="evenodd" clip-rule="evenodd" d="M11.5986 30.0308C11.5515 30.092 11.5184 30.1846 11.5042 30.3153C11.5349 30.3408 11.5485 30.1305 11.5648 30.2677C11.5946 30.2276 11.6059 30.1485 11.5986 30.0308Z" fill="black"/>
<path fill-rule="evenodd" clip-rule="evenodd" d="M12.0597 30.8847C12.0437 30.9098 12.0275 30.9342 11.9988 30.9323C12.074 31.1716 12.0412 31.2 12.0395 31.5492C12.1307 31.4237 12.102 31.0855 12.0597 30.8847Z" fill="black"/>
<path fill-rule="evenodd" clip-rule="evenodd" d="M11.3033 31.1701C11.2404 31.2427 11.2804 31.5344 11.28 31.74C11.3293 31.6174 11.3009 31.4599 11.3033 31.1701Z" fill="black"/>
<path fill-rule="evenodd" clip-rule="evenodd" d="M12.0834 31.6439C11.9598 31.6185 12.1207 31.9551 12.0286 31.8814C11.9778 31.8869 12.0293 32.0385 12.0537 32.0237C12.0577 32.6826 12.1097 32.2353 12.0731 31.9762C12.0723 31.9301 12.0972 31.9398 12.1129 31.9287C12.1236 31.7835 12.0727 31.7892 12.0834 31.6439Z" fill="black"/>
<path fill-rule="evenodd" clip-rule="evenodd" d="M12.1145 32.6407C12.0554 32.6478 12.083 32.839 12.0839 32.9733C12.1244 32.9274 12.1226 32.7908 12.1145 32.6407Z" fill="black"/>
<path fill-rule="evenodd" clip-rule="evenodd" d="M12.1484 33.0677C12.083 33.046 12.0855 33.1693 12.0941 33.3051C12.1359 33.2765 12.1701 33.2316 12.1484 33.0677Z" fill="black"/>
<path fill-rule="evenodd" clip-rule="evenodd" d="M12.1168 33.4007C12.0161 33.3986 12.2421 34.0345 12.0713 33.9227C12.1012 33.9908 12.1675 34.0484 12.1973 33.9704C12.1639 33.6911 12.1462 33.6898 12.1168 33.4007Z" fill="black"/>
<path fill-rule="evenodd" clip-rule="evenodd" d="M6.96498 33.9277C6.97412 34.0926 6.96922 34.293 7.03905 34.3075C7.03142 34.1392 7.04189 33.925 6.96498 33.9277Z" fill="black"/>
<path fill-rule="evenodd" clip-rule="evenodd" d="M12.0422 35.5838C11.9973 35.5909 12.0016 35.7036 12.0086 35.8208C12.0729 35.8552 12.0825 35.7725 12.1314 35.7737C12.1098 35.69 12.0526 35.6954 12.0422 35.5838Z" fill="black"/>
<path fill-rule="evenodd" clip-rule="evenodd" d="M11.7163 36.3911C11.6872 36.4471 11.6248 36.4323 11.6395 36.5813C11.6868 36.5645 11.7354 36.5505 11.7163 36.3911Z" fill="black"/>
<path fill-rule="evenodd" clip-rule="evenodd" d="M11.7354 37.0082C11.6724 37.0066 11.689 37.175 11.6823 37.2931C11.7453 37.2947 11.7286 37.1268 11.7354 37.0082Z" fill="black"/>
<path fill-rule="evenodd" clip-rule="evenodd" d="M11.9298 38.5278C11.8792 38.6562 11.981 38.8427 11.9669 39.0499C12.018 38.9207 11.9492 38.6528 11.9298 38.5278Z" fill="black"/>
<path fill-rule="evenodd" clip-rule="evenodd" d="M8.05761 42.9463C8.05239 42.8908 8.01865 42.9062 7.99393 42.8991C7.98127 43.0507 8.0315 43.0459 8.04312 43.1362C8.11543 43.1237 7.99902 42.9264 8.05761 42.9463Z" fill="black"/>
<path fill-rule="evenodd" clip-rule="evenodd" d="M8.31324 43.8485C8.29179 43.925 8.23663 43.9985 8.27933 44.0858C8.29992 44.0858 8.32075 44.0858 8.3416 44.0856C8.34446 43.9757 8.33241 43.9033 8.31324 43.8485Z" fill="black"/>
<path fill-rule="evenodd" clip-rule="evenodd" d="M8.0198 44.3708C7.99284 44.331 7.98903 44.7163 7.99509 44.8932C8.04123 44.7994 8.02715 44.5784 8.0198 44.3708Z" fill="black"/>
<path fill-rule="evenodd" clip-rule="evenodd" d="M12.3758 44.8408C12.3808 44.9821 12.4348 45.0022 12.447 45.1253C12.4844 45.078 12.4274 44.8361 12.3758 44.8408Z" fill="black"/>
<path fill-rule="evenodd" clip-rule="evenodd" d="M8.33715 45.2729C8.28756 45.3439 8.22765 45.3933 8.24401 45.6055C8.28357 45.5126 8.33456 45.4438 8.33715 45.2729Z" fill="black"/>
<path fill-rule="evenodd" clip-rule="evenodd" d="M8.21394 45.9376C8.17165 45.9509 8.2001 46.1143 8.15762 46.1271C8.15511 46.1676 8.16719 46.1717 8.17986 46.1746C8.19717 46.1659 8.20017 46.1932 8.20209 46.222C8.24068 46.1816 8.25152 46.0139 8.21394 45.9376Z" fill="black"/>
<path fill-rule="evenodd" clip-rule="evenodd" d="M12.5004 46.7865C12.4796 46.7865 12.459 46.7866 12.4384 46.7866C12.4673 46.9049 12.4588 47.752 12.4696 47.1189C12.4837 47.0161 12.5182 46.957 12.5004 46.7865Z" fill="black"/>
<path fill-rule="evenodd" clip-rule="evenodd" d="M13.2527 46.9755C13.1976 47.0374 13.2194 47.2326 13.2441 47.3554C13.2898 47.3204 13.2437 47.089 13.2527 46.9755Z" fill="black"/>
<path fill-rule="evenodd" clip-rule="evenodd" d="M8.19402 47.9295C8.11359 47.9417 8.16927 48.4088 8.19158 48.4989C8.21896 48.4233 8.14849 48.0741 8.19402 47.9295Z" fill="black"/>
<path fill-rule="evenodd" clip-rule="evenodd" d="M13.3099 48.1153C13.2991 48.2484 13.2298 48.3406 13.2982 48.4002C13.34 48.299 13.3696 48.2235 13.3099 48.1153Z" fill="black"/>
<path fill-rule="evenodd" clip-rule="evenodd" d="M13.4027 48.4953C13.3818 48.4953 13.3613 48.4953 13.3404 48.4954C13.3672 48.5662 13.3652 48.7085 13.4295 48.686C13.4294 48.601 13.4009 48.5858 13.4027 48.4953Z" fill="black"/>
<path fill-rule="evenodd" clip-rule="evenodd" d="M12.543 49.35C12.4889 49.1683 12.5183 49.5288 12.4646 49.4927C12.4723 49.5759 12.5038 49.6006 12.5503 49.5873C12.5738 49.47 12.4836 49.3909 12.543 49.35Z" fill="black"/>
<path fill-rule="evenodd" clip-rule="evenodd" d="M13.3105 49.4919C13.2244 49.5031 13.3253 49.6603 13.2783 49.7763C13.2991 49.7763 13.3197 49.7763 13.3408 49.7763C13.3507 49.6312 13.3001 49.6369 13.3105 49.4919Z" fill="black"/>
<path fill-rule="evenodd" clip-rule="evenodd" d="M13.0906 49.7296C13.0429 49.5885 13.1139 50.0711 13.015 49.9672C13.0638 50.1995 13.1263 49.9426 13.0906 49.7296Z" fill="black"/>
<path fill-rule="evenodd" clip-rule="evenodd" d="M13.4392 50.2513C13.4192 50.2525 13.425 50.3094 13.4214 50.3462C13.4194 50.4001 13.4017 50.3725 13.4006 50.3462C13.373 50.3611 13.3873 50.4655 13.386 50.5354C13.4613 50.5635 13.4449 50.3956 13.4392 50.2513Z" fill="black"/>
<path fill-rule="evenodd" clip-rule="evenodd" d="M13.1077 50.9163C13.0799 50.9161 13.0526 50.9164 13.025 50.9162C13.0556 50.9776 13.0522 51.1225 13.0562 51.2489C13.1238 51.2449 13.0937 51.0336 13.1077 50.9163Z" fill="black"/>
<path fill-rule="evenodd" clip-rule="evenodd" d="M13.6002 52.1029C13.5773 52.2599 13.55 52.4079 13.5327 52.5774C13.5982 52.5118 13.6141 52.3392 13.6002 52.1029Z" fill="black"/>
<path fill-rule="evenodd" clip-rule="evenodd" d="M13.7295 56.8494C13.7018 56.8492 13.674 56.8494 13.6464 56.8495C13.7012 56.8325 13.7451 57.1311 13.6717 56.992C13.6054 57.0631 13.7185 57.108 13.7001 57.2293C13.7338 57.1532 13.7383 57.0154 13.7295 56.8494Z" fill="black"/>
<path fill-rule="evenodd" clip-rule="evenodd" d="M13.8107 59.413C13.7699 59.4586 13.7715 59.5955 13.7799 59.7451C13.804 59.6176 13.847 59.5611 13.8107 59.413Z" fill="black"/>
<path fill-rule="evenodd" clip-rule="evenodd" d="M13.3624 60.2681C13.3449 60.2968 13.3274 60.3248 13.3209 60.2681C13.2814 60.3747 13.368 60.3558 13.3304 60.5527C13.383 60.5473 13.3662 60.394 13.3624 60.2681Z" fill="black"/>
<path fill-rule="evenodd" clip-rule="evenodd" d="M13.5933 60.4105C13.5549 60.4764 13.581 60.8132 13.6088 60.8854C13.6471 60.8192 13.6209 60.4822 13.5933 60.4105Z" fill="black"/>
<path fill-rule="evenodd" clip-rule="evenodd" d="M13.3334 60.6003C13.316 60.7437 13.3428 60.9039 13.3503 61.1228C13.3927 61.0364 13.3417 60.7505 13.3765 60.6478C13.3521 60.6552 13.3392 60.637 13.3334 60.6003Z" fill="black"/>
<path fill-rule="evenodd" clip-rule="evenodd" d="M14.2132 62.9253C14.1595 63.0383 14.2554 63.2131 14.206 63.3527C14.3229 63.3485 14.2169 63.0797 14.2132 62.9253Z" fill="black"/>
<path fill-rule="evenodd" clip-rule="evenodd" d="M14.0063 62.9255C13.9373 62.867 13.9955 63.0793 13.9265 63.0207C13.9237 63.1298 13.9881 63.0727 13.9932 63.1629C14.0613 63.1193 14.0006 63.0744 14.0063 62.9255Z" fill="black"/>
<path fill-rule="evenodd" clip-rule="evenodd" d="M14.3413 63.0679C14.3719 63.1284 14.361 63.2918 14.3916 63.3525C14.4395 63.2508 14.4279 63.0696 14.3413 63.0679Z" fill="black"/>
<path fill-rule="evenodd" clip-rule="evenodd" d="M14.0325 63.7798C13.9831 63.9166 13.9763 64.3928 14.0345 64.4918C14.0745 64.4589 14.0856 64.3651 14.089 64.2547C14.0407 64.4498 13.9948 63.8479 14.1007 63.9696C14.1028 63.8442 14.0188 63.9323 14.0325 63.7798Z" fill="black"/>
<path fill-rule="evenodd" clip-rule="evenodd" d="M13.9637 65.4887C13.9429 65.4887 13.9221 65.4887 13.9015 65.489C13.8854 65.6654 13.9818 65.5637 13.9715 65.7256C14.0197 65.7136 13.9763 65.5172 13.9637 65.4887Z" fill="black"/>
<path fill-rule="evenodd" clip-rule="evenodd" d="M14.1977 66.3432C14.0882 66.3839 14.1954 66.6113 14.1491 66.7703C14.2185 66.7417 14.1652 66.451 14.1977 66.3432Z" fill="black"/>
<path fill-rule="evenodd" clip-rule="evenodd" d="M14.6548 66.4851C14.634 66.4851 14.6132 66.4851 14.5923 66.4851C14.6406 66.5198 14.5837 66.8133 14.6638 66.7697C14.6609 66.675 14.6579 66.5798 14.6548 66.4851Z" fill="black"/>
<path fill-rule="evenodd" clip-rule="evenodd" d="M15.183 69.4276C15.1444 69.4924 15.1811 69.7186 15.1538 69.8073C15.2247 69.7727 15.2032 69.5421 15.183 69.4276Z" fill="black"/>
<path fill-rule="evenodd" clip-rule="evenodd" d="M12.4703 46.4546C12.416 46.2337 12.4528 45.9519 12.4667 45.6951C12.3712 45.7365 12.4912 45.5718 12.4205 45.5528C12.3445 45.662 12.4656 46.2827 12.3666 46.4548C12.3378 46.4401 12.3454 46.3357 12.3396 46.2648C12.2873 46.2078 12.345 46.6693 12.4138 46.6441C12.4074 46.4584 12.3934 46.3693 12.4703 46.4546Z" fill="black"/>
<path fill-rule="evenodd" clip-rule="evenodd" d="M11.6144 30.5535C11.5372 30.9524 11.695 31.6286 11.5567 31.9775C11.6108 32.0146 11.5993 32.2135 11.6679 32.2148C11.5986 31.7455 11.7107 31.5658 11.615 31.2182C11.6856 31.0726 11.6224 30.7234 11.6144 30.5535Z" fill="black"/>
<path fill-rule="evenodd" clip-rule="evenodd" d="M11.59 32.4045C11.5353 32.33 11.6379 32.6277 11.6229 32.7839C11.6781 32.7246 11.6685 32.527 11.6713 32.3567C11.6448 32.4173 11.6201 32.5892 11.59 32.4045Z" fill="black"/>
<path fill-rule="evenodd" clip-rule="evenodd" d="M11.9679 33.8751C11.9655 33.929 11.9479 33.9018 11.9469 33.875C11.9014 33.9847 11.9631 34.3225 11.9238 34.445C11.9352 34.4486 12.0701 33.7948 11.944 33.7805C11.9424 33.8349 11.9512 33.8644 11.9679 33.8751Z" fill="black"/>
<path fill-rule="evenodd" clip-rule="evenodd" d="M12.0295 34.5398C12.0808 34.4771 12.124 34.7986 12.1666 34.9198C12.104 34.9065 12.1496 35.4159 12.1525 35.7741C12.211 35.6021 12.2342 34.7009 12.0935 34.5875C12.0704 34.3274 12.0808 34.3027 12.0559 34.0651C11.9886 34.3937 12.0204 35.1185 12.0377 35.4418C12.0996 35.3612 12.0275 34.7782 12.0295 34.5398Z" fill="black"/>
<path fill-rule="evenodd" clip-rule="evenodd" d="M12.0552 35.9641C12.0848 36.0105 12.1009 36.0907 12.1234 36.1537C12.1512 36.1391 12.1369 36.0349 12.1381 35.9638C12.1099 36.0321 12.0736 36.0001 12.0728 35.8691C12.0505 35.9835 11.9717 35.9778 11.9783 36.154C12.0622 36.2142 12.0281 36.0239 12.0552 35.9641Z" fill="black"/>
<path fill-rule="evenodd" clip-rule="evenodd" d="M11.9076 36.5336C11.8519 36.6457 11.9369 36.8026 11.899 36.9134C11.972 36.8739 11.9119 36.6339 11.9076 36.5336Z" fill="black"/>
<path fill-rule="evenodd" clip-rule="evenodd" d="M7.00198 38.3903C7.06567 38.4104 7.05536 37.8093 7.03279 38.0581C7.03979 38.2054 6.97179 38.1934 7.00198 38.3903Z" fill="black"/>
<path fill-rule="evenodd" clip-rule="evenodd" d="M7.08584 38.3898C7.03139 38.4948 7.09977 38.7281 7.10114 38.8647C7.14822 38.7775 7.0637 38.5845 7.08584 38.3898Z" fill="black"/>
<path fill-rule="evenodd" clip-rule="evenodd" d="M13.1328 45.1722C13.1119 45.2599 13.1651 45.6027 13.1735 45.7894C13.2135 45.6528 13.1508 45.3343 13.1328 45.1722Z" fill="black"/>
<path fill-rule="evenodd" clip-rule="evenodd" d="M8.21299 45.8901C8.2012 45.799 8.22165 45.7187 8.23051 45.7953C8.23827 45.5464 8.18125 45.5016 8.1254 45.7476C8.12461 45.7963 8.21795 45.8437 8.15071 45.8902C8.16158 45.9607 8.17645 45.8715 8.21299 45.8901Z" fill="black"/>
<path fill-rule="evenodd" clip-rule="evenodd" d="M8.26382 47.5037C8.2407 47.5127 8.2539 47.5512 8.26547 47.5512C8.24391 47.6084 8.20903 47.6374 8.23162 47.7881C8.27984 47.7622 8.31159 47.6048 8.26382 47.5037Z" fill="black"/>
<path fill-rule="evenodd" clip-rule="evenodd" d="M13.194 47.7355C13.1306 47.8689 13.1865 48.0318 13.2093 48.2104C13.2444 48.1522 13.1765 47.9187 13.194 47.7355Z" fill="black"/>
<path fill-rule="evenodd" clip-rule="evenodd" d="M13.5254 53.0051C13.5245 52.9732 13.5236 52.9416 13.5224 52.9101C13.5052 52.9193 13.502 52.8917 13.5001 52.8626C13.4775 52.9912 13.4349 53.0782 13.4295 53.2428C13.4977 53.2548 13.4383 53.0397 13.5254 53.0051Z" fill="black"/>
<path fill-rule="evenodd" clip-rule="evenodd" d="M13.4997 54.8092C13.5496 54.7202 13.4408 54.3477 13.5334 54.5716C13.4485 54.17 13.4204 53.8245 13.456 53.4326C13.4689 53.7519 13.5203 53.7756 13.5551 53.9546C13.6035 53.6312 13.4488 53.4506 13.5326 53.2423C13.5402 53.3165 13.5788 53.2754 13.5947 53.2422C13.5992 53.368 13.5918 53.522 13.645 53.5274C13.6818 53.4742 13.5832 53.1346 13.6729 53.0998C13.6831 54.2952 13.7344 55.2375 13.7782 56.4227C13.7461 56.3489 13.7436 56.201 13.7073 56.1379C13.7037 56.1752 13.7095 56.2317 13.6898 56.233C13.6838 56.1965 13.6859 56.1394 13.6658 56.1377C13.6907 56.3122 13.6549 56.5823 13.6142 56.4701C13.68 56.3903 13.6253 56.1791 13.6007 56.0427C13.6357 55.9232 13.7115 56.1424 13.7216 55.9481C13.639 55.6464 13.7577 55.1469 13.6297 54.9989C13.5808 55.168 13.7214 55.6783 13.5724 55.8059C13.5628 55.5355 13.6012 55.2056 13.5055 54.9988C13.5253 54.9524 13.5444 54.9049 13.563 54.8562C13.5214 54.6819 13.5264 54.8961 13.4997 54.8092ZM13.5567 54.0022C13.49 53.9887 13.4882 54.2102 13.5245 54.2868C13.5592 54.2428 13.5657 54.1384 13.5567 54.0022Z" fill="black"/>
<path fill-rule="evenodd" clip-rule="evenodd" d="M12.666 53.2903C12.6204 53.2967 12.6635 53.4917 12.6543 53.5751C12.6718 53.5459 12.6895 53.5177 12.6957 53.5751C12.7383 53.5477 12.6603 53.3959 12.666 53.2903Z" fill="black"/>
<path fill-rule="evenodd" clip-rule="evenodd" d="M13.1576 56.3758C13.1296 56.5238 13.0714 56.7879 13.1362 56.9928C13.1681 56.8406 13.1414 56.5621 13.1576 56.3758Z" fill="black"/>
<path fill-rule="evenodd" clip-rule="evenodd" d="M13.2926 56.7082C13.2839 56.6435 13.2394 56.6687 13.2081 56.6605C13.2196 56.7861 13.1422 57.0806 13.2618 57.0403C13.2416 56.8884 13.169 56.7077 13.2926 56.7082Z" fill="black"/>
<path fill-rule="evenodd" clip-rule="evenodd" d="M13.8232 58.5108C13.7993 58.5186 13.7863 58.5007 13.7804 58.4634C13.7238 58.6302 13.7715 58.8254 13.8179 58.9857C13.8574 58.8725 13.7928 58.693 13.8232 58.5108Z" fill="black"/>
<path fill-rule="evenodd" clip-rule="evenodd" d="M13.2902 59.271C13.29 59.1865 13.2617 59.1711 13.2637 59.0813C13.1922 59.19 13.226 59.2605 13.2134 59.4614C13.2442 59.5798 13.2185 59.2113 13.2902 59.271Z" fill="black"/>
<path fill-rule="evenodd" clip-rule="evenodd" d="M13.4334 60.5525C13.3738 60.7442 13.4542 61.1327 13.3762 61.3599C13.488 61.2188 13.425 60.8234 13.4334 60.5525Z" fill="black"/>
<path fill-rule="evenodd" clip-rule="evenodd" d="M13.5731 61.0749C13.6079 61.0574 13.6135 61.112 13.6178 61.1694C13.6654 61.1565 13.6615 61.043 13.6322 60.9802C13.5875 60.9668 13.4904 61.1827 13.5761 61.1697C13.5752 61.1385 13.5742 61.1068 13.5731 61.0749Z" fill="black"/>
<path fill-rule="evenodd" clip-rule="evenodd" d="M14.0142 63.2097C13.93 63.2658 14.0242 63.4453 14.0264 63.5896C14.0712 63.5412 13.9924 63.3716 14.0142 63.2097Z" fill="black"/>
</g>
</g>
<path d="M17.1089 77.6248L43.6503 75.1548C45.3393 74.9977 46.5778 73.5322 46.417 71.882L41.1256 17.5835C40.9648 15.9332 39.4652 14.7226 37.7765 14.8798L11.2354 17.3498C9.5464 17.5069 8.30785 18.9723 8.46864 20.6226L13.7598 74.9211C13.9206 76.5716 15.4202 77.7822 17.1089 77.6248Z" fill="white"/>
<path d="M20.1163 17.8878L28.7265 17.0866C29.1331 17.0488 29.4312 16.6962 29.3925 16.2988C29.3538 15.9015 29.3036 15.648 29.3036 15.648L19.2371 16.5997C19.2371 16.5997 19.2715 16.8397 19.3102 17.237C19.3489 17.6343 19.7097 17.9256 20.1163 17.8878Z" fill="#1D478E"/>
<path d="M7.95767 32.8119C7.99424 32.8155 8.03162 32.8155 8.06957 32.8122C8.38506 32.7827 8.61673 32.5089 8.58677 32.2004L8.02776 26.4631C7.99757 26.1546 7.71704 25.9293 7.40166 25.9577C7.08617 25.9872 6.8545 26.261 6.88447 26.5695L7.44346 32.3068C7.47005 32.5782 7.69031 32.7859 7.95767 32.8119Z" fill="#1D478E"/>
<path d="M8.72695 40.6973C8.76351 40.7009 8.80091 40.7009 8.83886 40.6976C9.15435 40.6681 9.38601 40.3943 9.35604 40.0857L8.79705 34.3485C8.76685 34.04 8.48706 33.8143 8.17095 33.8431C7.85546 33.8726 7.62379 34.1464 7.65376 34.4549L8.21274 40.1922C8.23956 40.4636 8.45958 40.6713 8.72695 40.6973Z" fill="#1D478E"/>
<g clip-path="url(#clip1_271_3261)">
<path d="M51.6796 40.4773C51.6796 40.4773 62.3148 37.123 67.2859 31.5996C67.2224 31.3529 67.7184 30.6163 68.2125 30.8166C68.7809 31.0469 68.0364 33.2658 67.8386 33.6694C67.2401 34.8862 65.6701 37.2668 64.4063 38.4503C60.6026 42.0119 55.4337 42.0406 55.4337 42.0406L51.6796 40.4773Z" fill="#E27755"/>
<path d="M55.2355 36.924C55.2355 36.924 57.9975 34.906 59.8797 31.8483C60.8851 30.4875 61.7667 28.8804 63.1548 25.6678C63.4068 25.1734 63.6412 24.675 64.1207 24.6913C64.5891 24.7074 64.9097 25.0211 64.8743 25.4325C64.7658 26.6778 63.396 27.7638 62.7638 32.4008C61.0925 35.5584 56.8732 38.7673 56.8732 38.7673L57.1099 36.7932L55.2355 36.924Z" fill="#E27755"/>
<path d="M60.9224 33.2305C60.9224 33.2305 63.0582 30.7252 64.745 24.048C64.8572 23.6073 65.3254 23.2482 65.8329 23.2175C66.3274 23.1884 66.7038 23.4755 66.7203 23.8949C66.7674 25.164 66.6841 27.9551 65.4058 31.1427C64.0599 34.4974 62.8009 35.3375 62.8009 35.3375L60.9243 33.2306L60.9224 33.2305Z" fill="#E27755"/>
<path d="M55.9313 38.2091C55.9313 38.2091 63.9846 30.6855 65.7698 23.6308C65.8867 23.166 66.3845 22.7852 66.9192 22.753C67.4408 22.7225 67.8418 23.0249 67.8575 23.4684C67.9082 24.81 67.2876 28.3882 66.1151 31.815C64.0449 37.8625 56.1368 40.4217 56.1368 40.4217L55.9295 38.209L55.9313 38.2091Z" fill="#E27755"/>
<path d="M56.8894 39.6451C56.8894 39.6451 64.9427 32.1215 66.7279 25.0668C66.8467 24.6002 67.3426 24.2212 67.8791 24.1891C68.4008 24.1585 68.8017 24.4609 68.8175 24.9044C68.8682 26.246 68.0894 29.4183 66.915 32.8451C64.8449 38.8926 57.0967 41.8577 57.0967 41.8577L56.8894 39.6451Z" fill="#E27755"/>
<path d="M65.0234 25.4266C65.0288 25.2238 64.9601 25.0323 64.8274 24.8835C64.6642 24.7012 64.4195 24.5959 64.1391 24.5869C64.0634 24.5854 63.999 24.6445 63.9952 24.7194C63.9802 24.7977 64.0524 24.8594 64.1281 24.8609C64.3329 24.8667 64.5063 24.9413 64.6194 25.066C64.7144 25.172 64.7569 25.3081 64.7438 25.4541C64.6284 26.803 64.0699 29.2495 63.1195 31.4379C63.0899 31.5068 63.121 31.5878 63.1923 31.6166C63.2617 31.6454 63.3438 31.614 63.3752 31.5433C64.3375 29.3259 64.9043 26.8431 65.0221 25.4741C65.0226 25.4577 65.023 25.4412 65.0235 25.4248L65.0234 25.4266Z" fill="#161742"/>
<path d="M66.7098 24.4671C66.7208 24.0541 66.6782 23.7151 66.5662 23.4825C66.4735 23.2906 66.3346 23.1691 66.1586 23.12C66.0853 23.1003 66.0085 23.1427 65.988 23.2173C65.9676 23.2882 66.0099 23.3658 66.0851 23.3855C66.1841 23.4112 66.2597 23.4821 66.3175 23.6021C66.8845 24.7703 65.376 29.4781 64.3727 31.786C64.3432 31.8549 64.3743 31.936 64.4455 31.9648C64.5149 31.9935 64.597 31.9622 64.6284 31.8915C65.2363 30.4919 66.6562 26.5465 66.7117 24.4634L66.7098 24.4671Z" fill="#161742"/>
<path d="M68.0892 24.3539C68.0912 24.2808 68.0355 24.2194 67.9618 24.2144C67.8861 24.2092 67.8181 24.2665 67.8124 24.3413C67.7214 25.5317 66.6659 30.0331 65.707 32.238C65.6756 32.3069 65.7085 32.3879 65.7798 32.4167C65.8492 32.4455 65.9314 32.4142 65.9629 32.3435C66.9494 30.0732 67.995 25.5955 68.0891 24.3576C68.0892 24.3558 68.0892 24.3539 68.0893 24.3503L68.0892 24.3539Z" fill="#161742"/>
<path d="M63.5671 34.3113C63.5689 34.2472 63.5257 34.1895 63.4609 34.1755C63.385 34.1576 63.3111 34.2039 63.2923 34.2787C63.2839 34.3115 62.456 37.5317 59.3136 38.6795C59.2402 38.7056 59.2045 38.7856 59.2305 38.8557C59.2565 38.9277 59.3375 38.9622 59.409 38.9361C62.6945 37.7342 63.5542 34.3734 63.5626 34.3387C63.5647 34.3296 63.5669 34.3186 63.5672 34.3095L63.5671 34.3113Z" fill="#161742"/>
<path d="M33.096 96.0938C33.096 96.0938 45.6026 107.673 51.8455 119.285C56.2357 127.451 23.4968 133.367 23.4968 133.367L23.8344 120.359L32.0006 118.624C32.0006 118.624 13.6424 104.844 9.08666 99.2543C4.53087 93.6648 4.08834 83.1364 3.83092 78.3315C3.57346 73.5284 -0.679853 69.5711 16.5889 57.1703C33.8576 44.7694 55.3777 32.0163 55.3777 32.0163L63.6803 42.8371L34.4845 62.4847L35.4562 83.8304L57.556 93.0209L33.0942 96.0919L33.096 96.0938Z" fill="#1D478E"/>
<path d="M48.2325 28.1272C48.4769 28.3295 48.6172 28.5819 48.6843 28.8714C48.8772 28.6462 49.1189 28.4875 49.4287 28.4223C49.1843 28.22 49.0431 27.9674 48.9761 27.6779C48.7832 27.9031 48.5423 28.062 48.2325 28.1272Z" fill="#AF8E2F"/>
<path d="M26.9777 49.9899L20.4057 54.3733L19.0484 48.2724L26.1264 47.6899" fill="#161742"/>
<path d="M14.346 47.0915C11.5246 43.4146 13.4302 39.5013 16.3774 37.3192C20.423 34.3239 25.4542 35.432 25.749 38.6609C26.1009 42.5047 22.9192 43.5261 19.7207 45.1018C15.9325 46.9672 16.6471 50.0891 14.346 47.0915Z" fill="#161742"/>
<path d="M24.5177 48.5687L24.5735 51.625L19.8824 54.7829L19.4121 47.9485L24.5177 48.5687Z" fill="#E27755"/>
<path d="M19.436 49.5811L24.6536 51.1171L24.5242 48.5689L19.4167 47.9485L19.436 49.5811Z" fill="#161742"/>
<path d="M16.0249 47.698C13.7757 44.4483 14.4189 40.1802 17.4624 38.1627C20.506 36.1452 24.2313 35.3442 27.0456 40.3941C28.9657 43.8396 29.4389 47.4972 26.1501 49.1064C22.2555 51.0118 18.2742 50.9478 16.0249 47.698Z" fill="#E27755"/>
<path d="M22.6412 40.9134C22.5832 40.9329 22.5162 40.9239 22.4629 40.8851C22.3766 40.822 22.3596 40.7029 22.4226 40.6187C23.607 39.0567 25.1427 39.2138 25.2077 39.2209C25.3129 39.2335 25.3897 39.3274 25.3783 39.4309C25.3668 39.5344 25.2739 39.6097 25.1676 39.5975C25.111 39.5926 23.7808 39.4648 22.7301 40.8482C22.7066 40.8788 22.6749 40.9008 22.6397 40.9126L22.6412 40.9134Z" fill="#161742"/>
<path d="M20.5143 38.0724C22.2589 37.4355 23.9966 37.4548 25.1459 37.7419C22.6524 35.2576 19.5803 36.517 17.3516 37.9942C14.2379 40.0582 13.5794 44.4249 15.8812 47.7491C16.208 48.2218 16.5745 48.6209 16.9672 48.9649L17.527 49.1397L17.4359 44.249C20.9906 41.8926 20.5155 38.0721 20.5155 38.0721L20.5143 38.0724Z" fill="#161742"/>
<path d="M13.6624 46.1636C13.6624 46.1636 15.7335 49.1208 16.5915 52.7307C17.45 56.3418 15.5796 60.1422 15.5796 60.1422L18.845 59.4983L20.6605 55.839L20.3857 59.194L22.5204 58.7731C22.5204 58.7731 24.356 54.5207 19.535 47.5526L13.6631 46.1621L13.6624 46.1636Z" fill="#161742"/>
<path d="M9.39857 42.7595C7.93123 41.9172 7.32682 40.2249 8.05007 38.979C8.77331 37.7332 10.5484 37.4055 12.0158 38.2478C13.4831 39.09 14.0875 40.7823 13.3643 42.0282C12.641 43.274 10.8659 43.6017 9.39857 42.7595Z" fill="#161742"/>
<mask id="mask4_271_3261" style="mask-type:luminance" maskUnits="userSpaceOnUse" x="7" y="37" width="7" height="7">
<path d="M9.40347 42.7586C7.93553 41.9126 7.32784 40.2178 8.04763 38.9725C8.76741 37.7272 10.5402 37.403 12.0081 38.2489C13.4761 39.0949 14.0838 40.7897 13.364 42.035C12.6442 43.2803 10.8714 43.6045 9.40347 42.7586Z" fill="white"/>
</mask>
<g mask="url(#mask4_271_3261)">
<path d="M10.9353 44.0905C10.8768 44.11 10.8078 44.1004 10.7551 44.059C10.6713 43.9941 10.6561 43.8749 10.7204 43.7946C13.2281 40.6243 11.067 37.1383 11.0458 37.104C10.9887 37.0151 11.0151 36.8997 11.1037 36.8451C11.1912 36.7908 11.3097 36.8191 11.3669 36.9079C11.3904 36.9452 13.6962 40.6514 11.0234 44.031C10.9999 44.0602 10.9694 44.0804 10.9368 44.0913L10.9353 44.0905Z" fill="#161742"/>
<path d="M12.0653 41.7562C12.0022 41.7772 11.9292 41.7638 11.8744 41.7168L8.05122 38.3191C7.97165 38.2489 7.964 38.1297 8.03338 38.0526C8.10276 37.9755 8.22336 37.9705 8.30293 38.0407L12.1261 41.4384C12.2057 41.5086 12.2133 41.6278 12.1439 41.7049C12.1214 41.73 12.0946 41.7464 12.0653 41.7562Z" fill="#161742"/>
</g>
<path d="M16.015 45.3207C15.2667 45.572 14.3987 45.7163 13.3927 45.6918C13.2863 45.6898 13.2016 45.6024 13.2024 45.4977C13.2043 45.3927 13.2909 45.3107 13.3974 45.3127C17.3523 45.4064 19.0506 42.8354 19.6477 41.559C18.6689 42.2627 16.4834 43.3603 12.9715 42.6497C12.867 42.6282 12.7985 42.5292 12.8192 42.4266C12.8398 42.324 12.9424 42.2581 13.0442 42.2793C17.677 43.2149 19.9379 40.8173 19.9611 40.7931C20.0206 40.7279 20.1183 40.7127 20.1972 40.7554C20.2762 40.7981 20.3152 40.8894 20.2904 40.9732C20.2789 41.0123 19.319 44.2099 16.0157 45.3192L16.015 45.3207Z" fill="#1D478E"/>
<path d="M19.5164 44.0615C18.5335 43.2287 17.154 43.2371 16.4359 44.0801C15.7179 44.9231 15.9337 46.2823 16.9166 47.1151C17.8996 47.9479 19.279 47.9396 19.9971 47.0966C20.7152 46.2535 20.4994 44.8943 19.5164 44.0615Z" fill="#E27755"/>
<path d="M19.1669 45.8971C19.1306 45.9092 19.0907 45.9112 19.0508 45.8994L16.9564 45.2923C16.8541 45.2623 16.7949 45.1575 16.8225 45.0576C16.8513 44.9574 16.9578 44.9004 17.0585 44.9297L19.153 45.5367C19.2553 45.5667 19.3145 45.6716 19.2869 45.7714C19.2695 45.8326 19.2236 45.8782 19.1658 45.8975L19.1669 45.8971Z" fill="#161742"/>
<path d="M18.1481 46.7841C18.1085 46.7974 18.0644 46.7983 18.0208 46.7827C17.9205 46.7471 17.8677 46.6391 17.9022 46.5409L18.2367 45.5913C18.2711 45.4931 18.3799 45.4429 18.4802 45.4785C18.5805 45.5141 18.6332 45.6221 18.5988 45.7203L18.2643 46.67C18.2449 46.7254 18.2002 46.7667 18.147 46.7845L18.1481 46.7841Z" fill="#161742"/>
<path d="M27.5777 43.1411C27.6122 43.1522 27.6513 43.148 27.6824 43.125L28.3739 42.6101C28.405 42.5872 28.4225 42.5512 28.4213 42.5126C28.4202 42.4741 28.4012 42.4389 28.3696 42.418L27.7644 42.023C27.7112 41.988 27.6408 42.0039 27.6058 42.0583C27.5708 42.1128 27.5864 42.1842 27.6396 42.2193L28.1045 42.5241L27.5481 42.9386C27.4971 42.9769 27.4854 43.05 27.5229 43.1016C27.5378 43.1217 27.5567 43.1355 27.5786 43.1433L27.5777 43.1411Z" fill="#161742"/>
<path d="M27.4798 43.1288C27.4266 43.0548 27.4427 42.9514 27.5157 42.8968L28.0148 42.524L27.6102 42.2594C27.5339 42.2095 27.512 42.1062 27.5613 42.0281C27.5856 41.9899 27.6231 41.9635 27.667 41.9551C27.7109 41.9467 27.7545 41.9548 27.7907 41.9779L28.395 42.3744C28.4412 42.4042 28.4696 42.4551 28.4704 42.5101C28.4723 42.5648 28.4467 42.6173 28.4033 42.6482L27.7121 43.1644C27.6679 43.1967 27.6115 43.2055 27.5594 43.1877C27.5276 43.177 27.4983 43.1553 27.4783 43.1281L27.4798 43.1288ZM27.6904 42.0554C27.6726 42.0589 27.6583 42.0686 27.6476 42.0848C27.6285 42.1163 27.6358 42.1579 27.6655 42.1769L28.131 42.4802C28.1445 42.4895 28.154 42.5052 28.1547 42.5213C28.1554 42.5374 28.1481 42.5524 28.1354 42.5629L27.5779 42.9779C27.5479 43.0005 27.5416 43.0428 27.5623 43.0724C27.5823 43.0996 27.6223 43.1051 27.6497 43.0859L28.3408 42.5697C28.3581 42.5577 28.3679 42.5356 28.3674 42.5131C28.3674 42.4917 28.3567 42.4727 28.3386 42.4611L27.7332 42.065C27.7332 42.065 27.7251 42.0602 27.7205 42.0579C27.7101 42.0539 27.6987 42.0539 27.6881 42.0562L27.6904 42.0554Z" fill="#161742"/>
<path d="M23.8537 41.5562C24.2377 41.7078 24.6584 41.7767 25.037 41.5816C25.3627 41.4131 25.5896 41.0537 25.7029 40.7187C25.7413 40.6051 25.7166 40.4788 25.5965 40.421C25.4965 40.3728 25.3336 40.4086 25.2952 40.5222C25.2072 40.782 25.0565 41.0516 24.8218 41.1895C24.7229 41.2479 24.5841 41.2694 24.447 41.26C24.3199 41.2499 24.1719 41.2065 24.0475 41.1576C23.9334 41.1129 23.8013 41.1459 23.7461 41.2589C23.6961 41.3612 23.7385 41.5118 23.8525 41.5566L23.8537 41.5562Z" fill="#161742"/>
<path d="M27.8286 46.1184C26.919 46.5455 26.1211 45.7019 26.4681 45.4448C26.7827 45.2111 27.8779 44.4278 28.2172 44.1633C28.4671 44.0794 28.6332 45.7391 27.8294 46.1169L27.8286 46.1184Z" fill="#161742"/>
<path d="M56.3559 21.441C56.2876 21.4247 56.213 21.4333 56.1693 21.4687C56.1083 21.5194 56.1249 21.6028 56.2131 21.6575L60.0968 24.0689C60.1828 24.1213 60.3025 24.1253 60.366 24.0752C60.427 24.0245 60.4104 23.9411 60.3222 23.8864L56.4385 21.475C56.4128 21.46 56.3862 21.4483 56.3559 21.441Z" fill="#8CD6F5"/>
<path d="M54.652 25.0523C54.5855 25.0746 54.5275 25.1212 54.5103 25.1741C54.4869 25.2489 54.547 25.3104 54.6514 25.3098L59.2527 25.2894C59.3541 25.2881 59.457 25.2282 59.4828 25.1526C59.5061 25.0777 59.446 25.0163 59.3416 25.0168L54.7403 25.0372C54.7104 25.0382 54.6816 25.0424 54.652 25.0523Z" fill="#8CD6F5"/>
<path d="M68.782 39.9433C68.9533 40.0263 69.0712 40.1534 69.1518 40.3127C69.2318 40.1538 69.3497 40.0266 69.5207 39.9443C69.3494 39.8613 69.231 39.7342 69.1504 39.5749C69.0704 39.7339 68.953 39.861 68.782 39.9433Z" fill="#AF8E2F"/>
</g>
<path d="M80.1636 17.0914C80.3365 17.175 80.4554 17.3034 80.5365 17.4643C80.6176 17.3034 80.737 17.1746 80.9099 17.0909C80.737 17.0073 80.6176 16.879 80.5365 16.718C80.4554 16.879 80.3365 17.0078 80.1636 17.0914Z" fill="#AF8E2F"/>
<path d="M84.9485 8.48465C85.2367 8.62402 85.4348 8.83796 85.57 9.10618C85.7052 8.83796 85.9041 8.62321 86.1924 8.48383C85.9041 8.34446 85.7052 8.13053 85.57 7.8623C85.4348 8.13053 85.2367 8.34527 84.9485 8.48465Z" fill="#AF8E2F"/>
<path d="M55.2495 11.4354C55.4224 11.519 55.5413 11.6474 55.6224 11.8083C55.7035 11.6474 55.8229 11.5186 55.9958 11.4349C55.8229 11.3513 55.7035 11.2229 55.6224 11.062C55.5413 11.2229 55.4224 11.3518 55.2495 11.4354Z" fill="#AF8E2F"/>
<path d="M64.8152 14.6326C65.1034 14.772 65.3015 14.9859 65.4367 15.2541C65.5719 14.9859 65.7708 14.7712 66.0591 14.6318C65.7708 14.4924 65.5719 14.2785 65.4367 14.0103C65.3015 14.2785 65.1034 14.4932 64.8152 14.6326Z" fill="#FFD325"/>
<path d="M71.6016 21.2729C72.0098 21.4658 72.2903 21.7619 72.4818 22.1331C72.6732 21.7619 72.955 21.4647 73.3632 21.2718C72.955 21.0789 72.6732 20.7828 72.4818 20.4116C72.2903 20.7828 72.0098 21.08 71.6016 21.2729Z" fill="#FFD325"/>
<defs>
<clipPath id="clip0_271_3261">
<rect width="57.3486" height="75.3071" rx="2.01973" transform="matrix(-0.332494 0.942285 -0.948352 -0.31957 140.627 27.5737)" fill="white"/>
</clipPath>
<clipPath id="clip1_271_3261">
<rect width="57.1901" height="75.5073" rx="2.01973" transform="matrix(0.0928275 0.995371 0.996353 -0.0887357 8.66992 20.9216)" fill="white"/>
</clipPath>
</defs>
</svg>
