<svg width="108" height="105" viewBox="0 0 108 105" fill="none" xmlns="http://www.w3.org/2000/svg">
<path d="M107.571 52.0179C107.571 80.7465 83.5867 104.036 54 104.036C24.4133 104.036 0.428589 80.7465 0.428589 52.0179C0.428589 23.2893 24.4133 0.00012207 54 0.00012207C83.5867 0.00012207 107.571 23.2893 107.571 52.0179Z" fill="#5BC4F0" fill-opacity="0.1"/>
<path d="M50.7172 85.058C54.9296 85.058 58.3444 81.4365 58.3444 76.9691C58.3444 72.5017 54.9296 68.8801 50.7172 68.8801C46.5048 68.8801 43.09 72.5017 43.09 76.9691C43.09 81.4365 46.5048 85.058 50.7172 85.058Z" fill="#AF8E2F"/>
<path d="M56.274 21.36C64.2236 24.1457 70.0153 32.9303 70.0153 45.0599V48.6657C70.0153 57.8405 74.3475 62.704 77.1887 64.9073C78.7032 66.0811 79.6058 67.9449 79.6058 69.9349C79.6058 70.9696 79.2506 71.9268 78.6537 72.6655C78.0574 73.4036 77.2201 73.9238 76.2559 74.0846C72.36 74.733 64.6097 75.5807 50.7167 75.5807C36.8231 75.5807 29.0735 74.733 25.1769 74.0846C24.2133 73.9238 23.3754 73.4036 22.7791 72.6655C22.1829 71.9268 21.8277 70.9696 21.8277 69.9349C21.8277 67.9449 22.7302 66.0811 24.2448 64.9073C27.086 62.704 31.4181 57.8405 31.4181 48.6657V45.0599C31.4181 32.9303 37.2098 24.1457 45.1588 21.36C48.8144 20.5035 52.6184 20.5035 56.274 21.36Z" fill="#FFD325"/>
<path d="M68.0935 65.2449C68.0935 65.5025 67.9217 65.7242 67.6827 65.7735C66.1157 66.0948 60.1236 67.1808 50.7159 67.1808C41.3082 67.1808 35.3162 66.0948 33.7491 65.7735C33.5101 65.7243 33.3384 65.5026 33.3384 65.2449C33.3384 64.944 33.5687 64.7063 33.8443 64.7063C33.8655 64.7063 33.8871 64.7076 33.9087 64.7105C35.9892 64.9881 43.4265 65.8172 50.716 65.8172C58.0055 65.8172 65.4428 64.9881 67.5232 64.7105C67.5448 64.7076 67.5664 64.7063 67.5877 64.7063C67.8631 64.7064 68.0935 64.944 68.0935 65.2449Z" fill="#AF8E2F"/>
<path d="M76.6531 29.8761C78.559 30.9136 79.8238 32.4102 80.6401 34.2421C81.6618 32.5163 83.0965 31.1701 85.1092 30.3588C83.2032 29.3214 81.9326 27.8245 81.1163 25.9925C80.0947 27.7184 78.6658 29.0649 76.6531 29.8761Z" fill="#AF8E2F"/>
<path d="M77.4104 16.7556C78.7652 17.433 79.6671 18.4047 80.2524 19.5915C80.9703 18.4799 81.9824 17.6152 83.4061 17.0982C82.0513 16.4209 81.1453 15.449 80.56 14.2622C79.8421 15.3737 78.8341 16.2387 77.4104 16.7556Z" fill="#FFD325"/>
<path d="M66.0512 22.8032C69.1008 24.4632 71.1245 26.8577 72.4306 29.7888C74.0652 27.0274 76.3607 24.8736 79.5811 23.5755C76.5315 21.9156 74.4985 19.5205 73.1925 16.5894C71.5578 19.3508 69.2715 21.5051 66.0512 22.8032Z" fill="#FFD325"/>
</svg>
