<svg width="24" height="24" viewBox="0 0 24 24" fill="none" xmlns="http://www.w3.org/2000/svg">
<circle cx="12" cy="12" r="12" fill="#E8F6FD"/>
<mask id="mask0_264_2381" style="mask-type:alpha" maskUnits="userSpaceOnUse" x="4" y="4" width="16" height="16">
<rect x="4" y="4" width="16" height="16" fill="#D9D9D9"/>
</mask>
<g mask="url(#mask0_264_2381)">
<path d="M14.4128 14.436C14.2573 14.436 14.1197 14.3762 14 14.2565C13.8803 14.1369 13.8205 13.9994 13.8205 13.8438V12.0027C13.8205 11.8471 13.8803 11.7095 14 11.5898C14.1197 11.4703 14.2573 11.4105 14.4128 11.4105H14.5V10.7438C14.5 10.4113 14.6134 10.1316 14.8403 9.90466C15.0673 9.67777 15.3471 9.56433 15.6795 9.56433C16.0119 9.56433 16.2917 9.67777 16.5187 9.90466C16.7456 10.1316 16.859 10.4113 16.859 10.7438V11.4105H16.9462C17.1017 11.4105 17.2351 11.4703 17.3462 11.5898C17.4573 11.7095 17.5128 11.8471 17.5128 12.0027V13.8438C17.5128 13.9994 17.453 14.1369 17.3333 14.2565C17.2137 14.3762 17.0761 14.436 16.9205 14.436H14.4128ZM15.0128 11.4105H16.3462V10.7438C16.3462 10.5549 16.2823 10.3966 16.1545 10.2688C16.0267 10.1411 15.8684 10.0772 15.6795 10.0772C15.4906 10.0772 15.3323 10.1411 15.2045 10.2688C15.0767 10.3966 15.0128 10.5549 15.0128 10.7438V11.4105ZM9.077 18.6668C8.77867 18.6668 8.52456 18.5619 8.31467 18.3522C8.10489 18.1423 8 17.8882 8 17.5898V6.4105C8 6.11216 8.10489 5.85805 8.31467 5.64816C8.52456 5.43839 8.77867 5.3335 9.077 5.3335H14.923C15.2213 5.3335 15.4754 5.43839 15.6853 5.64816C15.8951 5.85805 16 6.11216 16 6.4105V8.28216C16 8.37705 15.9682 8.45633 15.9045 8.52C15.8408 8.58366 15.7616 8.6155 15.6667 8.6155C15.5718 8.6155 15.4925 8.58366 15.4288 8.52C15.3652 8.45633 15.3333 8.37705 15.3333 8.28216V7.66683H8.66667V16.3335H15.3333V15.7182C15.3333 15.6233 15.3652 15.544 15.4288 15.4803C15.4925 15.4167 15.5718 15.3848 15.6667 15.3848C15.7616 15.3848 15.8408 15.4167 15.9045 15.4803C15.9682 15.544 16 15.6233 16 15.7182V17.5898C16 17.8882 15.8951 18.1423 15.6853 18.3522C15.4754 18.5619 15.2213 18.6668 14.923 18.6668H9.077ZM8.66667 17.0002V17.5898C8.66667 17.6925 8.70939 17.7866 8.79483 17.872C8.88028 17.9574 8.97433 18.0002 9.077 18.0002H14.923C15.0257 18.0002 15.1197 17.9574 15.2052 17.872C15.2906 17.7866 15.3333 17.6925 15.3333 17.5898V17.0002H8.66667ZM8.66667 7.00016H15.3333V6.4105C15.3333 6.30783 15.2906 6.21377 15.2052 6.12833C15.1197 6.04289 15.0257 6.00016 14.923 6.00016H9.077C8.97433 6.00016 8.88028 6.04289 8.79483 6.12833C8.70939 6.21377 8.66667 6.30783 8.66667 6.4105V7.00016Z" fill="#1D478E"/>
</g>
</svg>
