<svg width="24" height="24" viewBox="0 0 24 24" fill="none" xmlns="http://www.w3.org/2000/svg">
<circle cx="12" cy="12" r="12" fill="#E8F6FD"/>
<mask id="mask0_264_2373" style="mask-type:alpha" maskUnits="userSpaceOnUse" x="4" y="4" width="16" height="16">
<rect x="4" y="4" width="16" height="16" fill="#D9D9D9"/>
</mask>
<g mask="url(#mask0_264_2373)">
<path d="M11.1718 14.1283C11.3786 14.3352 11.644 14.4294 11.968 14.411C12.2919 14.3927 12.5282 14.2762 12.677 14.0617L15.238 10.4888C15.3289 10.3571 15.3211 10.2379 15.2147 10.1315C15.1083 10.0252 14.9891 10.0172 14.8568 10.1077L11.2718 12.6565C11.0487 12.8053 10.9246 13.0361 10.8993 13.3488C10.8741 13.6617 10.9649 13.9216 11.1718 14.1283ZM12 7.3335C12.4769 7.3335 12.9205 7.37966 13.3308 7.472C13.7411 7.56433 14.1423 7.70405 14.5347 7.89116C14.6269 7.93216 14.7068 7.9995 14.7743 8.09316C14.8419 8.18672 14.8547 8.27411 14.8128 8.35533C14.7709 8.43655 14.6884 8.48994 14.5653 8.5155C14.4423 8.54116 14.3334 8.5335 14.2385 8.4925C13.8923 8.32405 13.5369 8.19989 13.1725 8.12C12.8079 8.04011 12.4171 8.00016 12 8.00016C10.5222 8.00016 9.26389 8.51961 8.225 9.5585C7.18611 10.5974 6.66667 11.8557 6.66667 13.3335C6.66667 13.8002 6.73056 14.2613 6.85833 14.7168C6.98611 15.1724 7.16667 15.6002 7.4 16.0002H16.6C16.8556 15.5779 17.0417 15.1391 17.1583 14.6835C17.275 14.2279 17.3333 13.7557 17.3333 13.2668C17.3333 12.9266 17.2955 12.5642 17.2198 12.1797C17.1442 11.795 17.0222 11.4309 16.8538 11.0873C16.8128 10.9924 16.8017 10.8988 16.8205 10.8065C16.8393 10.7143 16.8888 10.6406 16.969 10.5855C17.0436 10.5355 17.1242 10.5242 17.2108 10.5515C17.2976 10.5788 17.3615 10.6361 17.4025 10.7232C17.6205 11.1719 17.7739 11.5991 17.8628 12.0047C17.9517 12.4102 17.9974 12.8284 18 13.2592C18.0026 13.8326 17.9389 14.3677 17.809 14.8643C17.6791 15.3609 17.4769 15.8617 17.2025 16.3668C17.1487 16.4557 17.0676 16.5279 16.959 16.5835C16.8504 16.6391 16.7308 16.6668 16.6 16.6668H7.4C7.27778 16.6668 7.16456 16.6369 7.06033 16.5772C6.956 16.5173 6.86839 16.4301 6.7975 16.3155C6.57694 15.9266 6.38889 15.4879 6.23333 14.9995C6.07778 14.5111 6 13.9557 6 13.3335C6 12.5138 6.15544 11.7403 6.46633 11.0128C6.77722 10.2853 7.20156 9.64805 7.73933 9.10116C8.27722 8.55438 8.91328 8.12305 9.6475 7.80716C10.3816 7.49138 11.1658 7.3335 12 7.3335Z" fill="#1D478E"/>
</g>
</svg>
