<svg width="294" height="294" viewBox="0 0 294 294" fill="none" xmlns="http://www.w3.org/2000/svg">
<g opacity="0.88">
<g opacity="0.54">
<path d="M165.576 148.578C165.938 148.578 166.231 148.285 166.231 147.923C166.231 147.561 165.938 147.268 165.576 147.268C165.214 147.268 164.921 147.561 164.921 147.923C164.921 148.285 165.214 148.578 165.576 148.578Z" fill="#161742"/>
<path d="M186.775 149.519C187.199 149.519 187.543 149.174 187.543 148.749C187.543 148.324 187.199 147.98 186.775 147.98C186.35 147.98 186.006 148.324 186.006 148.749C186.006 149.174 186.35 149.519 186.775 149.519Z" fill="#161742"/>
<path d="M147.18 177.996C147.5 177.996 147.76 177.736 147.76 177.416C147.76 177.095 147.5 176.835 147.18 176.835C146.859 176.835 146.6 177.095 146.6 177.416C146.6 177.736 146.859 177.996 147.18 177.996Z" fill="#161742"/>
<path d="M178.236 167.521C178.601 167.521 178.896 167.225 178.896 166.86C178.896 166.495 178.601 166.199 178.236 166.199C177.871 166.199 177.575 166.495 177.575 166.86C177.575 167.225 177.871 167.521 178.236 167.521Z" fill="#161742"/>
<path d="M163.858 174.329C164.2 174.329 164.477 174.052 164.477 173.71C164.477 173.368 164.2 173.091 163.858 173.091C163.516 173.091 163.239 173.368 163.239 173.71C163.239 174.052 163.516 174.329 163.858 174.329Z" fill="#161742"/>
<path d="M147.972 150.339C148.411 150.339 148.766 149.983 148.766 149.545C148.766 149.106 148.411 148.75 147.972 148.75C147.534 148.75 147.179 149.106 147.179 149.545C147.179 149.983 147.534 150.339 147.972 150.339Z" fill="#161742"/>
<path d="M156.71 144.492C157.234 144.492 157.659 144.067 157.659 143.543C157.659 143.018 157.234 142.593 156.71 142.593C156.186 142.593 155.761 143.018 155.761 143.543C155.761 144.067 156.186 144.492 156.71 144.492Z" fill="#161742"/>
<path d="M180.412 154.958C180.694 154.958 180.923 154.729 180.923 154.447C180.923 154.164 180.694 153.936 180.412 153.936C180.13 153.936 179.901 154.164 179.901 154.447C179.901 154.729 180.13 154.958 180.412 154.958Z" fill="#161742"/>
<path d="M153.597 122.616C153.968 122.616 154.269 122.315 154.269 121.944C154.269 121.572 153.968 121.271 153.597 121.271C153.226 121.271 152.926 121.572 152.926 121.944C152.926 122.315 153.226 122.616 153.597 122.616Z" fill="#161742"/>
<path d="M169.243 125.304C169.529 125.304 169.762 125.072 169.762 124.785C169.762 124.498 169.529 124.266 169.243 124.266C168.956 124.266 168.724 124.498 168.724 124.785C168.724 125.072 168.956 125.304 169.243 125.304Z" fill="#161742"/>
<path d="M145.014 133.763C145.264 133.763 145.466 133.56 145.466 133.31C145.466 133.06 145.264 132.857 145.014 132.857C144.764 132.857 144.562 133.06 144.562 133.31C144.562 133.56 144.764 133.763 145.014 133.763Z" fill="#161742"/>
<path d="M172.406 170.865C172.844 170.865 173.2 170.509 173.2 170.07C173.2 169.632 172.844 169.276 172.406 169.276C171.968 169.276 171.612 169.632 171.612 170.07C171.612 170.509 171.968 170.865 172.406 170.865Z" fill="#161742"/>
<path d="M154.361 174.328C154.782 174.328 155.124 173.986 155.124 173.565C155.124 173.143 154.782 172.801 154.361 172.801C153.939 172.801 153.598 173.143 153.598 173.565C153.598 173.986 153.939 174.328 154.361 174.328Z" fill="#161742"/>
<path d="M142.614 166.908C142.984 166.908 143.283 166.608 143.283 166.239C143.283 165.869 142.984 165.569 142.614 165.569C142.245 165.569 141.945 165.869 141.945 166.239C141.945 166.608 142.245 166.908 142.614 166.908Z" fill="#161742"/>
</g>
<g opacity="0.54">
<path d="M204.784 135.492C205.104 135.492 205.364 135.232 205.364 134.912C205.364 134.591 205.104 134.331 204.784 134.331C204.464 134.331 204.204 134.591 204.204 134.912C204.204 135.232 204.464 135.492 204.784 135.492Z" fill="#161742"/>
<path d="M221.466 131.821C221.807 131.821 222.084 131.544 222.084 131.202C222.084 130.86 221.807 130.583 221.466 130.583C221.124 130.583 220.847 130.86 220.847 131.202C220.847 131.544 221.124 131.821 221.466 131.821Z" fill="#161742"/>
<path d="M211.965 131.823C212.387 131.823 212.729 131.481 212.729 131.059C212.729 130.637 212.387 130.295 211.965 130.295C211.544 130.295 211.202 130.637 211.202 131.059C211.202 131.481 211.544 131.823 211.965 131.823Z" fill="#161742"/>
<path d="M200.221 124.404C200.59 124.404 200.889 124.104 200.889 123.734C200.889 123.365 200.59 123.065 200.221 123.065C199.851 123.065 199.552 123.365 199.552 123.734C199.552 124.104 199.851 124.404 200.221 124.404Z" fill="#161742"/>
</g>
<g opacity="0.54">
<path d="M15.1056 265.529C15.7674 265.529 16.3039 264.992 16.3039 264.329C16.3039 263.667 15.7674 263.129 15.1056 263.129C14.4437 263.129 13.9072 263.667 13.9072 264.329C13.9072 264.992 14.4437 265.529 15.1056 265.529Z" fill="#161742"/>
<path d="M44.4154 170.426C44.9884 170.426 45.4528 169.961 45.4528 169.387C45.4528 168.814 44.9884 168.349 44.4154 168.349C43.8424 168.349 43.3779 168.814 43.3779 169.387C43.3779 169.961 43.8424 170.426 44.4154 170.426Z" fill="#161742"/>
<path d="M16.8517 168.062C17.4461 168.062 17.928 167.58 17.928 166.985C17.928 166.39 17.4461 165.907 16.8517 165.907C16.2573 165.907 15.7754 166.39 15.7754 166.985C15.7754 167.58 16.2573 168.062 16.8517 168.062Z" fill="#161742"/>
<path d="M15.7773 143.423C16.1467 143.423 16.4461 143.123 16.4461 142.753C16.4461 142.384 16.1467 142.084 15.7773 142.084C15.4079 142.084 15.1084 142.384 15.1084 142.753C15.1084 143.123 15.4079 143.423 15.7773 143.423Z" fill="#161742"/>
</g>
<g opacity="0.54">
<path d="M190.093 179.074C190.455 179.074 190.748 178.78 190.748 178.418C190.748 178.056 190.455 177.763 190.093 177.763C189.732 177.763 189.438 178.056 189.438 178.418C189.438 178.78 189.732 179.074 190.093 179.074Z" fill="#161742"/>
<path d="M214.591 168.776C215.016 168.776 215.36 168.432 215.36 168.007C215.36 167.582 215.016 167.238 214.591 167.238C214.166 167.238 213.822 167.582 213.822 168.007C213.822 168.432 214.166 168.776 214.591 168.776Z" fill="#161742"/>
<path d="M171.698 208.492C172.019 208.492 172.278 208.232 172.278 207.912C172.278 207.591 172.019 207.331 171.698 207.331C171.378 207.331 171.118 207.591 171.118 207.912C171.118 208.232 171.378 208.492 171.698 208.492Z" fill="#161742"/>
<path d="M190.093 193.022C190.458 193.022 190.754 192.726 190.754 192.361C190.754 191.996 190.458 191.7 190.093 191.7C189.728 191.7 189.433 191.996 189.433 192.361C189.433 192.726 189.728 193.022 190.093 193.022Z" fill="#161742"/>
<path d="M188.377 204.825C188.719 204.825 188.996 204.547 188.996 204.205C188.996 203.863 188.719 203.586 188.377 203.586C188.035 203.586 187.758 203.863 187.758 204.205C187.758 204.547 188.035 204.825 188.377 204.825Z" fill="#161742"/>
<path d="M172.49 180.834C172.928 180.834 173.284 180.479 173.284 180.04C173.284 179.601 172.928 179.246 172.49 179.246C172.052 179.246 171.696 179.601 171.696 180.04C171.696 180.479 172.052 180.834 172.49 180.834Z" fill="#161742"/>
<path d="M204.929 185.453C205.211 185.453 205.439 185.224 205.439 184.942C205.439 184.66 205.211 184.431 204.929 184.431C204.647 184.431 204.418 184.66 204.418 184.942C204.418 185.224 204.647 185.453 204.929 185.453Z" fill="#161742"/>
<path d="M178.113 153.111C178.484 153.111 178.785 152.81 178.785 152.439C178.785 152.068 178.484 151.767 178.113 151.767C177.742 151.767 177.441 152.068 177.441 152.439C177.441 152.81 177.742 153.111 178.113 153.111Z" fill="#161742"/>
<path d="M193.759 155.799C194.046 155.799 194.278 155.567 194.278 155.28C194.278 154.993 194.046 154.761 193.759 154.761C193.473 154.761 193.24 154.993 193.24 155.28C193.24 155.567 193.473 155.799 193.759 155.799Z" fill="#161742"/>
<path d="M206.679 153.342C207.177 153.342 207.581 152.938 207.581 152.439C207.581 151.941 207.177 151.537 206.679 151.537C206.181 151.537 205.777 151.941 205.777 152.439C205.777 152.938 206.181 153.342 206.679 153.342Z" fill="#161742"/>
<path d="M169.531 164.258C169.781 164.258 169.984 164.055 169.984 163.805C169.984 163.555 169.781 163.353 169.531 163.353C169.282 163.353 169.079 163.555 169.079 163.805C169.079 164.055 169.282 164.258 169.531 164.258Z" fill="#161742"/>
<path d="M196.925 201.36C197.363 201.36 197.718 201.004 197.718 200.565C197.718 200.127 197.363 199.771 196.925 199.771C196.486 199.771 196.131 200.127 196.131 200.565C196.131 201.004 196.486 201.36 196.925 201.36Z" fill="#161742"/>
<path d="M178.877 204.823C179.298 204.823 179.64 204.481 179.64 204.059C179.64 203.637 179.298 203.295 178.877 203.295C178.455 203.295 178.113 203.637 178.113 204.059C178.113 204.481 178.455 204.823 178.877 204.823Z" fill="#161742"/>
<path d="M167.132 197.403C167.501 197.403 167.801 197.103 167.801 196.734C167.801 196.364 167.501 196.064 167.132 196.064C166.762 196.064 166.463 196.364 166.463 196.734C166.463 197.103 166.762 197.403 167.132 197.403Z" fill="#161742"/>
</g>
</g>
<path d="M141.286 294C218.702 294 281.461 287.654 281.461 279.825C281.461 271.996 218.702 265.65 141.286 265.65C63.8693 265.65 1.11084 271.996 1.11084 279.825C1.11084 287.654 63.8693 294 141.286 294Z" fill="#CEEDFB"/>
<circle cx="144.663" cy="149.464" r="114.972" fill="#EFF9FD"/>
<path d="M180.697 79H103.007C96.0526 79 90.4146 84.6199 90.4146 91.5523V261.464C90.4146 268.397 96.0526 274.017 103.007 274.017H180.697C187.652 274.017 193.29 268.397 193.29 261.464V91.5523C193.29 84.6199 187.652 79 180.697 79Z" fill="#161742"/>
<path d="M181.447 83.8281H102.264C98.1852 83.8281 94.8789 87.1238 94.8789 91.1892V261.812C94.8789 265.878 98.1852 269.173 102.264 269.173H181.447C185.526 269.173 188.832 265.878 188.832 261.812V91.1892C188.832 87.1238 185.526 83.8281 181.447 83.8281Z" fill="white"/>
<path d="M119.612 81.4141H164.464V88.0198C164.464 91.8632 161.336 94.9884 157.473 94.9884H126.232C122.376 94.9884 119.241 91.8706 119.241 88.0198V81.7843C119.241 81.577 119.404 81.4141 119.612 81.4141Z" fill="#161742"/>
<path d="M177.465 156.308C172.438 148.5 164.893 142.465 155.98 139.347C151.633 137.825 146.961 137 142.095 137C137.228 137 132.586 137.822 128.252 139.333C119.337 142.44 111.791 148.463 106.756 156.26C102.517 162.821 100.058 170.639 100.058 179.03C100.058 180.185 100.118 181.307 100.234 182.4H125.317C125.099 181.31 124.986 180.184 124.986 179.03C124.986 176.182 125.682 173.495 126.914 171.133C128.82 167.475 132.01 164.594 135.886 163.083C135.893 163.08 135.902 163.078 135.91 163.075C137.827 162.331 139.915 161.922 142.096 161.922C144.277 161.922 146.393 162.336 148.323 163.091C152.209 164.609 155.403 167.507 157.304 171.185C158.52 173.535 159.206 176.203 159.206 179.03C159.206 180.184 159.093 181.31 158.874 182.4H183.948C184.07 181.307 184.133 180.184 184.133 179.03C184.133 170.659 181.686 162.859 177.467 156.308H177.465Z" fill="#161742"/>
<path d="M135.886 163.085C132.011 164.596 128.82 167.476 126.914 171.134L106.756 156.261C111.79 148.464 119.337 142.441 128.252 139.334L135.884 163.085H135.886Z" fill="#1D478E"/>
<path d="M155.98 139.348L148.321 163.092C146.393 162.337 144.293 161.924 142.095 161.924C139.897 161.924 137.827 162.332 135.909 163.076C135.902 163.08 135.893 163.081 135.884 163.085L128.25 139.334C132.585 137.823 137.242 137.001 142.094 137.001C146.945 137.001 151.632 137.827 155.979 139.349L155.98 139.348Z" fill="#186BCC"/>
<path d="M184.131 179.03C184.131 180.183 184.068 181.307 183.947 182.4H158.872C159.091 181.31 159.205 180.183 159.205 179.03C159.205 176.203 158.518 173.535 157.303 171.185L177.465 156.307C181.684 162.858 184.131 170.657 184.131 179.029V179.03Z" fill="#ADE1F7"/>
<path d="M177.465 156.308L157.303 171.186C155.403 167.509 152.207 164.61 148.321 163.092L155.98 139.348C164.893 142.465 172.438 148.5 177.465 156.308Z" fill="#37BDF7"/>
<path d="M142.095 170.961C137.65 170.961 134.047 174.563 134.047 179.007C134.047 180.22 134.317 181.368 134.797 182.4H149.39C149.871 181.369 150.14 180.22 150.14 179.007C150.14 174.563 146.538 170.961 142.093 170.961H142.095Z" fill="#1D478E"/>
<path d="M142.081 179.024L167.631 170.417L143.68 175.874L142.081 179.024Z" fill="#161742"/>
<path d="M142.066 178.981L167.616 170.373L145.247 180.521L142.066 178.981Z" fill="#161742"/>
<path d="M143.635 180.571C144.486 179.72 144.486 178.341 143.635 177.491C142.785 176.64 141.406 176.64 140.555 177.491C139.704 178.341 139.704 179.72 140.555 180.571C141.406 181.421 142.785 181.421 143.635 180.571Z" fill="#186BCC"/>
<path d="M142.905 179.841C143.353 179.394 143.353 178.668 142.905 178.22C142.458 177.773 141.732 177.773 141.285 178.22C140.837 178.668 140.837 179.394 141.285 179.841C141.732 180.289 142.458 180.289 142.905 179.841Z" fill="#161742"/>
<path d="M21.8347 73.9157C14.5811 73.7173 8.54225 79.438 8.34387 86.6941C8.1455 93.9477 13.8662 99.9892 21.1224 100.185C28.3759 100.383 34.4174 94.6626 34.6132 87.4065C34.8116 80.1529 29.0909 74.114 21.8347 73.9157ZM32.0523 87.3369C31.975 90.1606 30.8028 92.7845 28.7508 94.7271C26.7013 96.6696 24.0181 97.6988 21.1919 97.6215C15.3643 97.4618 10.7501 92.5913 10.9099 86.7611C10.9872 83.9375 12.1568 81.3135 14.2088 79.371C16.1874 77.4967 18.7573 76.4739 21.4727 76.4739C21.5719 76.4739 21.6685 76.4765 21.7677 76.4791C27.5013 76.6337 32.0562 81.3496 32.0562 87.0471C32.0562 87.1437 32.0562 87.2403 32.0536 87.3356L32.0523 87.3369Z" fill="#FFD325"/>
<path d="M32.4278 87.0482C32.4278 87.1482 32.4278 87.2482 32.4251 87.3469C32.3451 90.2702 31.1313 92.9868 29.0066 94.9992C26.8846 97.0103 24.1063 98.0758 21.18 97.9958C15.146 97.8305 10.3684 92.7881 10.5324 86.7521C10.6124 83.8289 11.8235 81.1123 13.9482 79.0999C15.9969 77.1595 18.6578 76.1006 21.4694 76.1006C21.5721 76.1006 21.6722 76.1033 21.7749 76.1059C27.7128 76.266 32.4278 81.1483 32.4278 87.0482Z" fill="#AF8E2F"/>
<path d="M24.8631 85.1652C24.8206 85.1228 24.7691 85.0982 24.702 85.0961L23.489 85.057C23.4215 84.6635 23.2824 84.3171 23.0673 84.0222L24.7211 84.0765C24.7882 84.0764 24.8419 84.0584 24.8867 84.0182C24.9314 83.9756 24.9537 83.9242 24.9559 83.8571L24.9798 83.1349C24.982 83.0678 24.9618 83.0141 24.9214 82.9695C24.8789 82.9248 24.8252 82.9025 24.7603 82.9003L18.8567 82.7092C18.7918 82.7071 18.7359 82.725 18.6912 82.7675C18.6487 82.8078 18.6241 82.8615 18.6219 82.9286L18.5915 83.8722C18.5894 83.9326 18.6095 83.9885 18.6543 84.0331C18.6969 84.08 18.7506 84.1046 18.8111 84.1045L19.8405 84.1371C20.8386 84.1696 21.4632 84.4575 21.7166 85.0006L18.785 84.905C18.7201 84.9051 18.6642 84.923 18.6194 84.9633C18.5747 85.0036 18.5524 85.0573 18.5502 85.1244L18.5263 85.8466C18.5264 85.9137 18.5443 85.9673 18.5847 86.012C18.625 86.0567 18.6787 86.079 18.7458 86.0812L21.7759 86.1811C21.6577 86.5658 21.4051 86.8523 21.0182 87.0427C20.6312 87.2331 20.1255 87.3186 19.5012 87.2968L18.7067 87.2708C18.6441 87.2708 18.5904 87.291 18.5434 87.3335C18.4965 87.3783 18.4719 87.4297 18.4697 87.4901L18.4393 88.3912C18.4371 88.4538 18.4573 88.5053 18.4976 88.5499C19.3758 89.5441 20.5072 90.9315 21.8986 92.7145C21.939 92.7726 21.9972 92.8016 22.0733 92.806L23.4563 92.8516C23.5548 92.856 23.6263 92.8157 23.6665 92.7306C23.7157 92.6456 23.7111 92.5651 23.6462 92.4869C22.3219 90.7487 21.2756 89.4483 20.5139 88.5793C21.3217 88.5114 21.9816 88.2715 22.4981 87.8641C23.0147 87.4544 23.3364 86.913 23.4678 86.2354L24.6606 86.2745C24.7255 86.2744 24.7814 86.2565 24.8239 86.2162C24.8686 86.1759 24.8909 86.1222 24.8931 86.0551L24.917 85.3329C24.917 85.2658 24.899 85.2121 24.8587 85.1675L24.8631 85.1652Z" fill="#CCA91E"/>
<path d="M58.414 19.7207C42.0934 19.2744 28.506 32.1459 28.0596 48.4723C27.6133 64.7929 40.4848 78.3861 56.8112 78.8267C73.1318 79.273 86.725 66.4015 87.1655 50.0751C87.6119 33.7545 74.7403 20.1671 58.414 19.7207ZM81.4036 49.9186C81.2297 56.2718 78.5922 62.1757 73.9752 66.5464C69.3639 70.9171 63.3267 73.2329 56.9677 73.059C43.8556 72.6996 33.4737 61.7409 33.8331 48.623C34.007 42.2699 36.6387 36.3659 41.2558 31.9952C45.7076 27.7781 51.4898 25.4769 57.5995 25.4769C57.8227 25.4769 58.0401 25.4826 58.2633 25.4884C71.1638 25.8362 81.4123 36.4471 81.4123 49.2665C81.4123 49.4838 81.4123 49.7012 81.4065 49.9157L81.4036 49.9186Z" fill="#FFD325"/>
<path d="M82.2493 49.2689C82.2493 49.4939 82.2493 49.719 82.2433 49.941C82.0633 56.5184 79.3323 62.6306 74.5517 67.1586C69.7771 71.6835 63.526 74.081 56.9418 73.901C43.3653 73.5289 32.6157 62.1835 32.9848 48.6027C33.1649 42.0253 35.8898 35.9131 40.6704 31.3851C45.2799 27.0192 51.2669 24.6367 57.5931 24.6367C57.8241 24.6367 58.0492 24.6427 58.2803 24.6487C71.6408 25.0088 82.2493 35.9941 82.2493 49.2689Z" fill="#AF8E2F"/>
<path d="M65.2277 45.0318C65.132 44.9363 65.0161 44.8811 64.8651 44.8762L62.1359 44.7883C61.984 43.903 61.6711 43.1235 61.1871 42.4599L64.9081 42.582C65.0592 42.5819 65.18 42.5415 65.2806 42.4509C65.3812 42.3552 65.4315 42.2394 65.4363 42.0885L65.4902 40.4635C65.4951 40.3125 65.4496 40.1918 65.3589 40.0913C65.2631 39.9908 65.1422 39.9406 64.9962 39.9357L51.7132 39.5058C51.5672 39.501 51.4414 39.5413 51.3408 39.637C51.2452 39.7277 51.1899 39.8485 51.185 39.9994L51.1166 42.1225C51.1117 42.2583 51.1571 42.3841 51.2579 42.4846C51.3537 42.5901 51.4746 42.6454 51.6105 42.6452L53.9268 42.7185C56.1725 42.7917 57.5779 43.4394 58.148 44.6613L51.5519 44.4464C51.4058 44.4465 51.28 44.4869 51.1794 44.5775C51.0788 44.6682 51.0285 44.789 51.0236 44.9399L50.9698 46.5649C50.97 46.7159 51.0104 46.8366 51.1011 46.9371C51.1919 47.0376 51.3127 47.0878 51.4638 47.0927L58.2815 47.3175C58.0155 48.1831 57.4472 48.8276 56.5765 49.2561C55.7059 49.6845 54.5681 49.8768 53.1633 49.8279L51.3757 49.7692C51.2348 49.7694 51.114 49.8148 51.0083 49.9105C50.9027 50.0112 50.8474 50.1269 50.8425 50.2628L50.774 52.2903C50.7691 52.4312 50.8145 52.5469 50.9052 52.6474C52.8812 54.8842 55.4269 58.006 58.5576 62.0176C58.6483 62.1483 58.7793 62.2136 58.9505 62.2235L62.0623 62.3261C62.2839 62.336 62.4449 62.2453 62.5353 62.054C62.6459 61.8627 62.6357 61.6816 62.4895 61.5057C59.51 57.5945 57.1557 54.6688 55.4419 52.7134C57.2594 52.5607 58.7443 52.021 59.9065 51.1042C61.0687 50.1824 61.7926 48.9643 62.0882 47.4396L64.772 47.5276C64.918 47.5274 65.0438 47.4871 65.1394 47.3964C65.24 47.3058 65.2902 47.185 65.2951 47.034L65.3489 45.409C65.3488 45.2581 65.3084 45.1374 65.2177 45.0368L65.2277 45.0318Z" fill="#CCA91E"/>
<path d="M232.391 66.3396C227.649 61.3834 227.304 59.6573 234.705 52.3948C242.106 45.1324 240.949 35.1053 240.949 35.1053L226.729 34.8332V34.8188H226.319H225.91V34.8332L211.69 35.1053C211.69 35.1053 210.533 45.1324 217.934 52.3948C225.335 59.6573 224.99 61.3834 220.248 66.3396C215.505 71.2958 209.031 76.1375 209.261 85.2406H243.37C243.6 76.1375 237.126 71.2958 232.384 66.3396H232.391Z" fill="#CEEDFB"/>
<path d="M243.657 87.7112H208.988C207.932 87.7112 207.077 86.8589 207.077 85.806C207.077 84.7532 207.932 83.9009 208.988 83.9009H243.657C244.713 83.9009 245.569 84.7532 245.569 85.806C245.569 86.8589 244.713 87.7112 243.657 87.7112Z" fill="#32B353"/>
<path d="M243.657 36.6594H208.988C207.932 36.6594 207.077 35.8071 207.077 34.7543C207.077 33.7014 207.932 32.8491 208.988 32.8491H243.657C244.713 32.8491 245.569 33.7014 245.569 34.7543C245.569 35.8071 244.713 36.6594 243.657 36.6594Z" fill="#32B353"/>
<path d="M219.737 49.7734H233.195C233.648 49.7734 233.892 50.2748 233.605 50.6043L227.49 57.4871C227.411 57.5802 227.368 57.6948 227.368 57.8094V78.6227C227.368 78.902 227.605 79.124 227.9 79.124H239.339C239.569 79.124 239.777 79.2673 239.849 79.475L240.618 81.7669C240.725 82.0892 240.467 82.4258 240.107 82.4258H212.588C212.236 82.4258 211.984 82.1107 212.07 81.7955L212.71 79.4893C212.774 79.2673 212.983 79.1169 213.227 79.1097L225.04 79.0667C225.334 79.0667 225.572 78.8376 225.572 78.5654V57.9168C225.572 57.8022 225.528 57.6876 225.449 57.5945L219.342 50.5971C219.054 50.2676 219.306 49.7734 219.751 49.7734H219.737Z" fill="#32B353"/>
<path d="M45.4071 125.583C45.4071 124.258 44.3293 123.184 43 123.184H7.46129C6.132 123.184 5.0542 124.258 5.0542 125.583V144.721C5.0542 146.046 6.132 147.12 7.46129 147.12H36.7488L39.5079 150.866C40.363 152.033 41.8503 151.926 42.533 150.644L44.9185 146.16C45.2275 145.759 45.4143 145.265 45.4143 144.721V125.583H45.4071Z" fill="#32B353"/>
<path d="M38.6597 131.765H11.4632C11.0392 131.765 10.6943 131.421 10.6943 130.998C10.6943 130.576 11.0392 130.232 11.4632 130.232H38.6597C39.0836 130.232 39.4285 130.576 39.4285 130.998C39.4285 131.421 39.0836 131.765 38.6597 131.765Z" fill="white"/>
<path d="M30.3966 135.353H11.4632C11.0392 135.353 10.6943 135.009 10.6943 134.586C10.6943 134.164 11.0392 133.82 11.4632 133.82H30.3894C30.8133 133.82 31.1582 134.164 31.1582 134.586C31.1582 135.009 30.8133 135.353 30.3894 135.353H30.3966Z" fill="white"/>
<path d="M34.988 139.02H11.4632C11.0392 139.02 10.6943 138.676 10.6943 138.253C10.6943 137.831 11.0392 137.487 11.4632 137.487H34.988C35.4119 137.487 35.7568 137.831 35.7568 138.253C35.7568 138.676 35.4119 139.02 34.988 139.02Z" fill="white"/>
<g clip-path="url(#clip0_264_2425)">
<path d="M280.326 143.644H238.496V175.38H280.326V143.644Z" fill="#ADE1F7"/>
<path d="M282.511 175.351H236.311V178.501H282.511V175.351Z" fill="#ADE1F7"/>
<path d="M280.326 143.644H238.496V147.2H280.326V143.644Z" fill="#ADE1F7"/>
<path d="M259.411 124.95L235.838 135.422V136.324H259.411H282.983V135.422L259.411 124.95Z" fill="#ADE1F7"/>
<path d="M259.411 126.088L238.427 135.422H240.172L259.411 126.683L278.649 135.422H280.395L259.411 126.088Z" fill="#ADE1F7"/>
<path d="M259.411 126.683L240.172 135.422H259.411H278.649L259.411 126.683Z" fill="#EFF9FD"/>
<path d="M259.411 136.324H235.838L236.78 137.422H259.411H282.042L282.983 136.324H259.411Z" fill="#ADE1F7"/>
<path d="M259.411 142.735H235.838L236.78 143.834H259.411H282.042L282.983 142.735H259.411Z" fill="#CEEDFB"/>
<path d="M282.042 137.423H236.78V141.972H282.042V137.423Z" fill="#CEEDFB"/>
<path d="M282.93 141.972H235.891V142.735H282.93V141.972Z" fill="#ADE1F7"/>
<path d="M282.042 143.834H236.78V144.984H282.042V143.834Z" fill="#ADE1F7"/>
<path d="M244.06 149.415H238.455V170.95H244.06V149.415Z" fill="#CEEDFB"/>
<path d="M244.061 149.415H241.253V170.95H244.061V149.415Z" fill="#CEEDFB"/>
<path d="M245.014 144.984H237.493V145.446H245.014V144.984Z" fill="#CEEDFB"/>
<path d="M245.014 144.984H241.253V145.446H245.014V144.984Z" fill="#CEEDFB"/>
<path d="M244.506 148.032H238.008V148.493H244.506V148.032Z" fill="#ADE1F7"/>
<path d="M244.507 148.032H241.253V148.493H244.507V148.032Z" fill="#ADE1F7"/>
<path d="M241.253 145.445H237.493L238.009 146.366H241.253H244.498L245.014 145.445H241.253Z" fill="#CEEDFB"/>
<path d="M241.258 148.494H238.009L238.455 149.415H241.258H244.061L244.507 148.494H241.258Z" fill="#CEEDFB"/>
<path d="M244.498 146.367H238.009V148.033H244.498V146.367Z" fill="#ADE1F7"/>
<path d="M244.498 146.367H241.253V148.033H244.498V146.367Z" fill="#ADE1F7"/>
<path d="M241.253 145.445H237.493L238.009 146.366H241.253V145.445Z" fill="#CEEDFB"/>
<path d="M241.253 145.445V146.366H244.498L245.014 145.445H241.253Z" fill="#CEEDFB"/>
<path d="M241.258 148.494H238.009L238.455 149.415H241.258V148.494Z" fill="#CEEDFB"/>
<path d="M241.258 148.494V149.415H244.061L244.507 148.494H241.258Z" fill="#CEEDFB"/>
<path d="M245.014 174.919H237.493V175.38H245.014V174.919Z" fill="#CEEDFB"/>
<path d="M245.014 174.919H241.253V175.38H245.014V174.919Z" fill="#CEEDFB"/>
<path d="M244.506 171.871H238.008V172.332H244.506V171.871Z" fill="#ADE1F7"/>
<path d="M244.507 171.871H241.253V172.332H244.507V171.871Z" fill="#ADE1F7"/>
<path d="M241.253 174.919H237.493L238.009 173.998H241.253H244.498L245.014 174.919H241.253Z" fill="#CEEDFB"/>
<path d="M241.258 171.871H238.009L238.455 170.95H241.258H244.061L244.507 171.871H241.258Z" fill="#CEEDFB"/>
<path d="M244.498 172.332H238.009V173.998H244.498V172.332Z" fill="#ADE1F7"/>
<path d="M244.498 172.332H241.253V173.998H244.498V172.332Z" fill="#ADE1F7"/>
<path d="M241.253 174.919H237.493L238.009 173.998H241.253V174.919Z" fill="#CEEDFB"/>
<path d="M241.253 174.919V173.998H244.498L245.014 174.919H241.253Z" fill="#CEEDFB"/>
<path d="M241.258 171.871H238.009L238.455 170.95H241.258V171.871Z" fill="#CEEDFB"/>
<path d="M241.258 171.871V170.95H244.061L244.507 171.871H241.258Z" fill="#CEEDFB"/>
<path d="M256.051 149.416H250.447V170.951H256.051V149.416Z" fill="#CEEDFB"/>
<path d="M256.051 149.416H253.244V170.951H256.051V149.416Z" fill="#CEEDFB"/>
<path d="M257.003 144.985H249.484V145.446H257.003V144.985Z" fill="#CEEDFB"/>
<path d="M257.004 144.985H253.244V145.446H257.004V144.985Z" fill="#CEEDFB"/>
<path d="M256.497 148.033H250V148.494H256.497V148.033Z" fill="#ADE1F7"/>
<path d="M256.496 148.033H253.244V148.494H256.496V148.033Z" fill="#ADE1F7"/>
<path d="M253.244 145.446H253.243H249.484L250 146.367H253.243H253.244H256.487L257.003 145.446H253.244Z" fill="#CEEDFB"/>
<path d="M253.249 148.495H253.248H250L250.446 149.416H253.248H253.249H256.05L256.496 148.495H253.249Z" fill="#CEEDFB"/>
<path d="M256.487 146.368H250V148.034H256.487V146.368Z" fill="#ADE1F7"/>
<path d="M256.487 146.368H253.244V148.034H256.487V146.368Z" fill="#ADE1F7"/>
<path d="M253.243 145.446H249.484L250 146.367H253.243H253.244V145.446H253.243Z" fill="#CEEDFB"/>
<path d="M253.244 145.446V146.367H256.487L257.003 145.446H253.244Z" fill="#CEEDFB"/>
<path d="M253.248 148.495H250L250.446 149.416H253.248H253.249V148.495H253.248Z" fill="#CEEDFB"/>
<path d="M253.249 148.495V149.416H256.05L256.496 148.495H253.249Z" fill="#CEEDFB"/>
<path d="M257.003 174.92H249.484V175.381H257.003V174.92Z" fill="#CEEDFB"/>
<path d="M257.004 174.92H253.244V175.381H257.004V174.92Z" fill="#CEEDFB"/>
<path d="M256.497 171.872H250V172.333H256.497V171.872Z" fill="#ADE1F7"/>
<path d="M256.496 171.872H253.244V172.333H256.496V171.872Z" fill="#ADE1F7"/>
<path d="M253.244 174.92H253.243H249.484L250 173.999H253.243H253.244H256.487L257.003 174.92H253.244Z" fill="#CEEDFB"/>
<path d="M253.249 171.872H253.248H250L250.446 170.951H253.248H253.249H256.05L256.496 171.872H253.249Z" fill="#CEEDFB"/>
<path d="M256.487 172.333H250V173.999H256.487V172.333Z" fill="#ADE1F7"/>
<path d="M256.487 172.333H253.244V173.999H256.487V172.333Z" fill="#ADE1F7"/>
<path d="M253.243 174.92H249.484L250 173.999H253.243H253.244V174.92H253.243Z" fill="#CEEDFB"/>
<path d="M253.244 174.92V173.999H256.487L257.003 174.92H253.244Z" fill="#CEEDFB"/>
<path d="M253.248 171.872H250L250.446 170.951H253.248H253.249V171.872H253.248Z" fill="#CEEDFB"/>
<path d="M253.249 171.872V170.951H256.05L256.496 171.872H253.249Z" fill="#CEEDFB"/>
<path d="M268.107 149.416H262.501V170.951H268.107V149.416Z" fill="#CEEDFB"/>
<path d="M268.107 149.416H265.299V170.951H268.107V149.416Z" fill="#CEEDFB"/>
<path d="M269.06 144.985H261.539V145.446H269.06V144.985Z" fill="#CEEDFB"/>
<path d="M269.06 144.985H265.299V145.446H269.06V144.985Z" fill="#CEEDFB"/>
<path d="M268.553 148.033H262.055V148.494H268.553V148.033Z" fill="#ADE1F7"/>
<path d="M268.553 148.033H265.299V148.494H268.553V148.033Z" fill="#ADE1F7"/>
<path d="M265.299 145.446H265.299H261.539L262.055 146.367H265.299H265.299H268.544L269.06 145.446H265.299Z" fill="#CEEDFB"/>
<path d="M265.304 148.495H265.304H262.055L262.501 149.416H265.304H265.304H268.107L268.553 148.495H265.304Z" fill="#CEEDFB"/>
<path d="M268.544 146.368H262.055V148.034H268.544V146.368Z" fill="#ADE1F7"/>
<path d="M268.544 146.368H265.299V148.034H268.544V146.368Z" fill="#ADE1F7"/>
<path d="M265.299 145.446H261.539L262.055 146.367H265.299H265.299V145.446H265.299Z" fill="#CEEDFB"/>
<path d="M265.299 145.446V146.367H268.544L269.06 145.446H265.299Z" fill="#CEEDFB"/>
<path d="M265.304 148.495H262.055L262.501 149.416H265.304H265.304V148.495H265.304Z" fill="#CEEDFB"/>
<path d="M265.304 148.495V149.416H268.107L268.553 148.495H265.304Z" fill="#CEEDFB"/>
<path d="M269.06 174.92H261.539V175.381H269.06V174.92Z" fill="#CEEDFB"/>
<path d="M269.06 174.92H265.299V175.381H269.06V174.92Z" fill="#CEEDFB"/>
<path d="M268.553 171.872H262.055V172.333H268.553V171.872Z" fill="#ADE1F7"/>
<path d="M268.553 171.872H265.299V172.333H268.553V171.872Z" fill="#ADE1F7"/>
<path d="M265.299 174.92H265.299H261.539L262.055 173.999H265.299H265.299H268.544L269.06 174.92H265.299Z" fill="#CEEDFB"/>
<path d="M265.304 171.872H265.304H262.055L262.501 170.951H265.304H265.304H268.107L268.553 171.872H265.304Z" fill="#CEEDFB"/>
<path d="M268.544 172.333H262.055V173.999H268.544V172.333Z" fill="#ADE1F7"/>
<path d="M268.544 172.333H265.299V173.999H268.544V172.333Z" fill="#ADE1F7"/>
<path d="M265.299 174.92H261.539L262.055 173.999H265.299H265.299V174.92H265.299Z" fill="#CEEDFB"/>
<path d="M265.299 174.92V173.999H268.544L269.06 174.92H265.299Z" fill="#CEEDFB"/>
<path d="M265.304 171.872H262.055L262.501 170.951H265.304H265.304V171.872H265.304Z" fill="#CEEDFB"/>
<path d="M265.304 171.872V170.951H268.107L268.553 171.872H265.304Z" fill="#CEEDFB"/>
<path d="M280.162 149.416H274.556V170.951H280.162V149.416Z" fill="#CEEDFB"/>
<path d="M280.162 149.416H277.354V170.951H280.162V149.416Z" fill="#CEEDFB"/>
<path d="M281.115 144.985H273.593V145.446H281.115V144.985Z" fill="#CEEDFB"/>
<path d="M281.115 144.985H277.354V145.446H281.115V144.985Z" fill="#CEEDFB"/>
<path d="M280.608 148.033H274.11V148.494H280.608V148.033Z" fill="#ADE1F7"/>
<path d="M280.608 148.033H277.354V148.494H280.608V148.033Z" fill="#ADE1F7"/>
<path d="M277.354 145.446H273.593L274.11 146.367H277.354H280.599L281.115 145.446H277.354Z" fill="#CEEDFB"/>
<path d="M277.359 148.495H274.11L274.556 149.416H277.359H280.162L280.608 148.495H277.359Z" fill="#CEEDFB"/>
<path d="M280.598 146.368H274.11V148.034H280.598V146.368Z" fill="#ADE1F7"/>
<path d="M280.598 146.368H277.354V148.034H280.598V146.368Z" fill="#ADE1F7"/>
<path d="M277.354 145.446H273.593L274.11 146.367H277.354V145.446Z" fill="#CEEDFB"/>
<path d="M277.354 145.446V146.367H280.599L281.114 145.446H277.354Z" fill="#CEEDFB"/>
<path d="M277.359 148.495H274.11L274.556 149.416H277.359V148.495Z" fill="#CEEDFB"/>
<path d="M277.359 148.495V149.416H280.162L280.608 148.495H277.359Z" fill="#CEEDFB"/>
<path d="M281.115 174.92H273.593V175.381H281.115V174.92Z" fill="#CEEDFB"/>
<path d="M281.115 174.92H277.354V175.381H281.115V174.92Z" fill="#CEEDFB"/>
<path d="M280.608 171.872H274.11V172.333H280.608V171.872Z" fill="#ADE1F7"/>
<path d="M280.608 171.872H277.354V172.333H280.608V171.872Z" fill="#ADE1F7"/>
<path d="M277.354 174.92H273.593L274.11 173.999H277.354H280.599L281.115 174.92H277.354Z" fill="#CEEDFB"/>
<path d="M277.359 171.872H274.11L274.556 170.951H277.359H280.162L280.608 171.872H277.359Z" fill="#CEEDFB"/>
<path d="M280.598 172.333H274.11V173.999H280.598V172.333Z" fill="#ADE1F7"/>
<path d="M280.598 172.333H277.354V173.999H280.598V172.333Z" fill="#ADE1F7"/>
<path d="M277.354 174.92H273.593L274.11 173.999H277.354V174.92Z" fill="#CEEDFB"/>
<path d="M277.354 174.92V173.999H280.599L281.114 174.92H277.354Z" fill="#CEEDFB"/>
<path d="M277.359 171.872H274.11L274.556 170.951H277.359V171.872Z" fill="#CEEDFB"/>
<path d="M277.359 171.872V170.951H280.162L280.608 171.872H277.359Z" fill="#CEEDFB"/>
</g>
<path d="M193.554 119.005C186.3 118.807 180.261 124.527 180.063 131.783C179.865 139.037 185.585 145.079 192.842 145.274C200.095 145.473 206.137 139.752 206.332 132.496C206.531 125.242 200.81 119.203 193.554 119.005ZM203.772 132.426C203.694 135.25 202.522 137.874 200.47 139.816C198.421 141.759 195.737 142.788 192.911 142.711C187.084 142.551 182.469 137.681 182.629 131.85C182.706 129.027 183.876 126.403 185.928 124.46C187.907 122.586 190.477 121.563 193.192 121.563C193.291 121.563 193.388 121.566 193.487 121.568C199.221 121.723 203.775 126.439 203.775 132.136C203.775 132.233 203.775 132.33 203.773 132.425L203.772 132.426Z" fill="#FFD325"/>
<path d="M203.709 132.138C203.709 132.234 203.709 132.33 203.707 132.424C203.63 135.231 202.465 137.839 200.425 139.771C198.388 141.701 195.721 142.724 192.912 142.647C187.119 142.489 182.532 137.648 182.69 131.853C182.767 129.047 183.929 126.439 185.969 124.507C187.936 122.644 190.49 121.628 193.189 121.628C193.288 121.628 193.384 121.63 193.483 121.633C199.183 121.787 203.709 126.474 203.709 132.138Z" fill="#AF8E2F"/>
<path d="M196.591 130.259C196.549 130.216 196.497 130.192 196.43 130.19L195.216 130.151C195.149 129.757 195.01 129.41 194.795 129.115L196.449 129.17C196.516 129.17 196.57 129.152 196.615 129.111C196.659 129.069 196.682 129.017 196.684 128.95L196.708 128.228C196.71 128.161 196.69 128.107 196.649 128.062C196.607 128.018 196.553 127.995 196.488 127.993L190.582 127.802C190.518 127.8 190.462 127.818 190.417 127.86C190.374 127.901 190.35 127.954 190.348 128.021L190.317 128.965C190.315 129.026 190.335 129.082 190.38 129.126C190.423 129.173 190.476 129.198 190.537 129.198L191.567 129.23C192.565 129.263 193.19 129.551 193.443 130.094L190.511 129.999C190.446 129.999 190.39 130.017 190.345 130.057C190.3 130.097 190.278 130.151 190.276 130.218L190.252 130.941C190.252 131.008 190.27 131.061 190.31 131.106C190.351 131.151 190.404 131.173 190.472 131.175L193.503 131.275C193.384 131.66 193.132 131.947 192.745 132.137C192.358 132.328 191.852 132.413 191.227 132.391L190.432 132.365C190.37 132.365 190.316 132.385 190.269 132.428C190.222 132.473 190.197 132.524 190.195 132.585L190.165 133.486C190.163 133.549 190.183 133.6 190.223 133.645C191.102 134.639 192.234 136.027 193.626 137.811C193.666 137.869 193.724 137.898 193.8 137.903L195.184 137.948C195.282 137.953 195.354 137.912 195.394 137.827C195.443 137.742 195.439 137.662 195.374 137.583C194.049 135.844 193.002 134.544 192.24 133.674C193.048 133.606 193.709 133.366 194.225 132.959C194.742 132.549 195.064 132.007 195.195 131.329L196.388 131.369C196.453 131.368 196.509 131.351 196.552 131.31C196.597 131.27 196.619 131.216 196.621 131.149L196.645 130.427C196.645 130.36 196.627 130.306 196.587 130.261L196.591 130.259Z" fill="#CCA91E"/>
<g clip-path="url(#clip1_264_2425)">
<path d="M71.4702 186.9H31.938C30.57 186.9 29.4609 188.011 29.4609 189.382V247.284C29.4609 248.655 30.57 249.766 31.938 249.766H71.4702C72.8382 249.766 73.9472 248.655 73.9472 247.284V189.382C73.9472 188.011 72.8382 186.9 71.4702 186.9Z" fill="#CEEDFB"/>
<path d="M59.544 189.666H43.8643V192.303H59.544V189.666Z" fill="#ADE1F7"/>
<path d="M69.5098 196.324H33.8984V204.238H69.5098V196.324Z" fill="#ADE1F7"/>
<path d="M67.9518 197.406H35.457V203.155H67.9518V197.406Z" fill="white"/>
<path d="M60.2217 207.91H57.8024C57.0761 207.91 56.4873 208.5 56.4873 209.228V209.788C56.4873 210.516 57.0761 211.106 57.8024 211.106H60.2217C60.9481 211.106 61.5369 210.516 61.5369 209.788V209.228C61.5369 208.5 60.9481 207.91 60.2217 207.91Z" fill="#ADE1F7"/>
<path d="M68.1944 207.91H65.7751C65.0488 207.91 64.46 208.5 64.46 209.228V209.788C64.46 210.516 65.0488 211.106 65.7751 211.106H68.1944C68.9207 211.106 69.5095 210.516 69.5095 209.788V209.228C69.5095 208.5 68.9207 207.91 68.1944 207.91Z" fill="#ADE1F7"/>
<path d="M68.8831 214.967H64.0239C63.6779 214.967 63.3975 215.248 63.3975 215.595V218.512C63.3975 218.858 63.6779 219.139 64.0239 219.139H68.8831C69.2291 219.139 69.5095 218.858 69.5095 218.512V215.595C69.5095 215.248 69.2291 214.967 68.8831 214.967Z" fill="#ADE1F7"/>
<path d="M59.1311 214.967H54.2719C53.926 214.967 53.6455 215.248 53.6455 215.595V218.512C53.6455 218.858 53.926 219.139 54.2719 219.139H59.1311C59.4771 219.139 59.7576 218.858 59.7576 218.512V215.595C59.7576 215.248 59.4771 214.967 59.1311 214.967Z" fill="#ADE1F7"/>
<path d="M49.3802 214.967H44.521C44.175 214.967 43.8945 215.248 43.8945 215.595V218.512C43.8945 218.858 44.175 219.139 44.521 219.139H49.3802C49.7261 219.139 50.0066 218.858 50.0066 218.512V215.595C50.0066 215.248 49.7261 214.967 49.3802 214.967Z" fill="#ADE1F7"/>
<path d="M39.6282 214.967H34.769C34.423 214.967 34.1426 215.248 34.1426 215.595V218.512C34.1426 218.858 34.423 219.139 34.769 219.139H39.6282C39.9742 219.139 40.2546 218.858 40.2546 218.512V215.595C40.2546 215.248 39.9742 214.967 39.6282 214.967Z" fill="#ADE1F7"/>
<path d="M68.8831 222.514H64.0239C63.6779 222.514 63.3975 222.795 63.3975 223.141V226.059C63.3975 226.405 63.6779 226.686 64.0239 226.686H68.8831C69.2291 226.686 69.5095 226.405 69.5095 226.059V223.141C69.5095 222.795 69.2291 222.514 68.8831 222.514Z" fill="#ADE1F7"/>
<path d="M59.1311 222.514H54.2719C53.926 222.514 53.6455 222.795 53.6455 223.141V226.059C53.6455 226.405 53.926 226.686 54.2719 226.686H59.1311C59.4771 226.686 59.7576 226.405 59.7576 226.059V223.141C59.7576 222.795 59.4771 222.514 59.1311 222.514Z" fill="#ADE1F7"/>
<path d="M49.3802 222.514H44.521C44.175 222.514 43.8945 222.795 43.8945 223.141V226.059C43.8945 226.405 44.175 226.686 44.521 226.686H49.3802C49.7261 226.686 50.0066 226.405 50.0066 226.059V223.141C50.0066 222.795 49.7261 222.514 49.3802 222.514Z" fill="#ADE1F7"/>
<path d="M39.6282 222.514H34.769C34.423 222.514 34.1426 222.795 34.1426 223.141V226.059C34.1426 226.405 34.423 226.686 34.769 226.686H39.6282C39.9742 226.686 40.2546 226.405 40.2546 226.059V223.141C40.2546 222.795 39.9742 222.514 39.6282 222.514Z" fill="#ADE1F7"/>
<path d="M68.8831 230.059H64.0239C63.6779 230.059 63.3975 230.34 63.3975 230.686V233.603C63.3975 233.95 63.6779 234.231 64.0239 234.231H68.8831C69.2291 234.231 69.5095 233.95 69.5095 233.603V230.686C69.5095 230.34 69.2291 230.059 68.8831 230.059Z" fill="#ADE1F7"/>
<path d="M59.1311 230.059H54.2719C53.926 230.059 53.6455 230.34 53.6455 230.686V233.603C53.6455 233.95 53.926 234.231 54.2719 234.231H59.1311C59.4771 234.231 59.7576 233.95 59.7576 233.603V230.686C59.7576 230.34 59.4771 230.059 59.1311 230.059Z" fill="#ADE1F7"/>
<path d="M49.3802 230.059H44.521C44.175 230.059 43.8945 230.34 43.8945 230.686V233.603C43.8945 233.95 44.175 234.231 44.521 234.231H49.3802C49.7261 234.231 50.0066 233.95 50.0066 233.603V230.686C50.0066 230.34 49.7261 230.059 49.3802 230.059Z" fill="#ADE1F7"/>
<path d="M39.6282 230.059H34.769C34.423 230.059 34.1426 230.34 34.1426 230.686V233.603C34.1426 233.95 34.423 234.231 34.769 234.231H39.6282C39.9742 234.231 40.2546 233.95 40.2546 233.603V230.686C40.2546 230.34 39.9742 230.059 39.6282 230.059Z" fill="#ADE1F7"/>
<path d="M68.8831 237.87H64.0239C63.6779 237.87 63.3975 238.151 63.3975 238.498V241.415C63.3975 241.762 63.6779 242.043 64.0239 242.043H68.8831C69.2291 242.043 69.5095 241.762 69.5095 241.415V238.498C69.5095 238.151 69.2291 237.87 68.8831 237.87Z" fill="#ADE1F7"/>
<path d="M59.1311 237.87H54.2719C53.926 237.87 53.6455 238.151 53.6455 238.498V241.415C53.6455 241.762 53.926 242.043 54.2719 242.043H59.1311C59.4771 242.043 59.7576 241.762 59.7576 241.415V238.498C59.7576 238.151 59.4771 237.87 59.1311 237.87Z" fill="#ADE1F7"/>
<path d="M49.3802 237.87H44.521C44.175 237.87 43.8945 238.151 43.8945 238.498V241.415C43.8945 241.762 44.175 242.043 44.521 242.043H49.3802C49.7261 242.043 50.0066 241.762 50.0066 241.415V238.498C50.0066 238.151 49.7261 237.87 49.3802 237.87Z" fill="#ADE1F7"/>
<path d="M39.6282 237.87H34.769C34.423 237.87 34.1426 238.151 34.1426 238.498V241.415C34.1426 241.762 34.423 242.043 34.769 242.043H39.6282C39.9742 242.043 40.2546 241.762 40.2546 241.415V238.498C40.2546 238.151 39.9742 237.87 39.6282 237.87Z" fill="#ADE1F7"/>
</g>
<g clip-path="url(#clip2_264_2425)">
<path d="M178.788 13.7988L148.826 7.36629C148.068 7.20346 147.322 7.69141 147.161 8.45591L137.983 51.941C137.821 52.7054 138.305 53.4574 139.063 53.62L172.509 60.8004C173.267 60.9632 174.013 60.4753 174.174 59.7108L182.611 19.7394L178.788 13.7985L178.788 13.7988Z" fill="#ADE1F7"/>
<path d="M178.046 17.3127C177.885 18.0772 178.369 18.8292 179.127 18.9917L182.611 19.7397L178.788 13.7988L178.046 17.3125V17.3127Z" fill="#ADE1F7"/>
<path d="M177.12 21.482L159.486 17.6964C159.028 17.5981 158.736 17.1441 158.834 16.682C158.931 16.2202 159.381 15.9255 159.839 16.0238L177.473 19.8094C177.931 19.9076 178.223 20.3617 178.126 20.8237C178.028 21.2855 177.578 21.5802 177.12 21.482Z" fill="#CEEDFB"/>
<path d="M176.214 25.775L158.58 21.9893C158.122 21.8911 157.83 21.437 157.927 20.975C158.025 20.5132 158.475 20.2185 158.933 20.3167L176.566 24.1024C177.024 24.2006 177.316 24.6546 177.219 25.1167C177.122 25.5785 176.671 25.8732 176.213 25.775H176.214Z" fill="#CEEDFB"/>
<path d="M175.307 30.0678L148.918 24.4024C148.46 24.3042 148.168 23.8501 148.265 23.3881C148.363 22.9263 148.813 22.6316 149.271 22.7298L175.66 28.3952C176.118 28.4934 176.41 28.9475 176.313 29.4095C176.216 29.8713 175.765 30.166 175.307 30.0678Z" fill="#CEEDFB"/>
<path d="M174.402 34.3607L148.013 28.6954C147.555 28.5972 147.263 28.1431 147.36 27.681C147.457 27.2193 147.908 26.9246 148.366 27.0228L174.755 32.6881C175.213 32.7864 175.505 33.2404 175.408 33.7025C175.31 34.1643 174.86 34.459 174.402 34.3607Z" fill="#CEEDFB"/>
<path d="M166.752 37.2049L147.106 32.9874C146.649 32.8891 146.356 32.4351 146.454 31.973C146.551 31.5112 147.001 31.2166 147.46 31.3148L167.105 35.5323C167.563 35.6305 167.855 36.0846 167.757 36.5466C167.66 37.0084 167.21 37.3031 166.752 37.2049Z" fill="#CEEDFB"/>
<path d="M172.589 42.9457L146.2 37.2803C145.742 37.1821 145.45 36.7281 145.548 36.266C145.645 35.8042 146.095 35.5095 146.553 35.6078L172.942 41.2731C173.4 41.3713 173.693 41.8254 173.595 42.2875C173.498 42.7492 173.048 43.0439 172.589 42.9457Z" fill="#CEEDFB"/>
<path d="M171.683 47.2377L145.294 41.5723C144.836 41.4741 144.544 41.0201 144.641 40.558C144.739 40.0962 145.189 39.8015 145.647 39.8997L172.036 45.5651C172.494 45.6633 172.786 46.1174 172.689 46.5794C172.592 47.0412 172.141 47.3359 171.683 47.2377Z" fill="#CEEDFB"/>
<path d="M170.777 51.5307L144.388 45.8653C143.93 45.7671 143.638 45.313 143.735 44.851C143.832 44.3892 144.283 44.0945 144.741 44.1927L171.13 49.8581C171.588 49.9563 171.88 50.4104 171.783 50.8724C171.685 51.3342 171.235 51.6289 170.777 51.5307Z" fill="#CEEDFB"/>
<path d="M169.871 55.8236L143.481 50.1583C143.024 50.06 142.731 49.606 142.829 49.1439C142.926 48.6821 143.376 48.3875 143.835 48.4857L170.224 54.151C170.682 54.2493 170.974 54.7033 170.876 55.1654C170.779 55.6272 170.329 55.9219 169.871 55.8236Z" fill="#CEEDFB"/>
<path d="M149.559 20.0524L154.847 21.1877C155.158 21.2544 155.464 21.0542 155.531 20.7401L156.55 15.9121C156.616 15.5981 156.417 15.2893 156.106 15.2223L150.818 14.087C150.506 14.0203 150.2 14.2205 150.134 14.5347L149.115 19.3627C149.049 19.6766 149.247 19.9854 149.559 20.0524Z" fill="#CEEDFB"/>
<path d="M178.998 18.9639L182.399 20.7414L182.61 19.7396L178.998 18.9639Z" fill="#ADE1F7"/>
<path d="M165.942 55.077L126.121 59.1111C125.219 59.2027 124.414 58.5388 124.323 57.6283L119.166 5.85638C119.075 4.94614 119.734 4.13414 120.636 4.04258L160.456 0.00843959C161.359 -0.083118 162.164 0.580741 162.255 1.49098L167.412 53.2632C167.503 54.1734 166.844 54.9857 165.942 55.077Z" fill="#CEEDFB"/>
<path d="M157.168 9.59379L136.174 11.7207C135.629 11.776 135.142 11.375 135.088 10.8251C135.033 10.2753 135.43 9.78491 135.976 9.72966L156.969 7.60275C157.515 7.54749 158.001 7.94842 158.056 8.4983C158.11 9.04818 157.713 9.53854 157.168 9.59379Z" fill="#E8F6FD"/>
<path d="M157.677 14.7041L136.684 16.8311C136.138 16.8863 135.652 16.4854 135.597 15.9355C135.543 15.3856 135.94 14.8953 136.485 14.84L157.479 12.7131C158.024 12.6578 158.511 13.0588 158.565 13.6087C158.62 14.1585 158.223 14.6489 157.677 14.7041Z" fill="#E8F6FD"/>
<path d="M158.186 19.8145L126.768 22.9974C126.222 23.0526 125.736 22.6517 125.681 22.1018C125.627 21.552 126.024 21.0616 126.569 21.0063L157.988 17.8234C158.533 17.7682 159.019 18.1691 159.074 18.719C159.129 19.2689 158.731 19.7592 158.186 19.8145Z" fill="#E8F6FD"/>
<path d="M158.695 24.9248L127.276 28.1077C126.731 28.163 126.245 27.7621 126.19 27.2122C126.135 26.6623 126.533 26.1719 127.078 26.1167L158.496 22.9338C159.042 22.8785 159.528 23.2795 159.583 23.8294C159.637 24.3792 159.24 24.8696 158.695 24.9248Z" fill="#E8F6FD"/>
<path d="M151.175 30.8496L127.786 33.2192C127.241 33.2745 126.755 32.8735 126.7 32.3236C126.645 31.7738 127.043 31.2834 127.588 31.2282L150.977 28.8586C151.522 28.8034 152.008 29.2043 152.063 29.7542C152.118 30.304 151.72 30.7944 151.175 30.8496Z" fill="#E8F6FD"/>
<path d="M159.713 35.1465L128.295 38.3294C127.75 38.3847 127.263 37.9837 127.209 37.4339C127.154 36.884 127.551 36.3936 128.097 36.3384L159.515 33.1555C160.06 33.1002 160.546 33.5012 160.601 34.051C160.656 34.6009 160.258 35.0913 159.713 35.1465Z" fill="#E8F6FD"/>
<path d="M160.222 40.2569L128.804 43.4398C128.258 43.495 127.772 43.0941 127.717 42.5442C127.663 41.9943 128.06 41.504 128.605 41.4487L160.024 38.2658C160.569 38.2106 161.055 38.6115 161.11 39.1614C161.165 39.7113 160.767 40.2016 160.222 40.2569Z" fill="#E8F6FD"/>
<path d="M160.731 45.3682L129.312 48.5511C128.767 48.6064 128.281 48.2054 128.226 47.6555C128.171 47.1057 128.569 46.6153 129.114 46.5601L160.532 43.3772C161.078 43.3219 161.564 43.7228 161.619 44.2727C161.673 44.8226 161.276 45.3129 160.731 45.3682Z" fill="#E8F6FD"/>
<path d="M161.24 50.4786L129.822 53.6615C129.277 53.7167 128.791 53.3158 128.736 52.7659C128.681 52.216 129.079 51.7257 129.624 51.6704L161.042 48.4875C161.587 48.4323 162.074 48.8332 162.128 49.3831C162.183 49.9329 161.786 50.4233 161.24 50.4786Z" fill="#E8F6FD"/>
<path d="M131.532 10.1785L125.236 10.8167C124.865 10.8543 124.595 11.1879 124.632 11.5618L125.205 17.3095C125.243 17.6834 125.573 17.956 125.944 17.9184L132.24 17.2802C132.611 17.2426 132.881 16.909 132.844 16.5351L132.271 10.7874C132.234 10.4135 131.903 10.1409 131.532 10.1785Z" fill="white"/>
<path d="M127.14 36.2821C130.27 33.1254 130.27 28.0074 127.14 24.8507C124.01 21.694 118.936 21.694 115.806 24.8507C112.676 28.0074 112.676 33.1254 115.806 36.2821C118.936 39.4388 124.01 39.4388 127.14 36.2821Z" fill="#32B353"/>
<path d="M120.474 34.3786C120.377 34.3946 120.276 34.3882 120.177 34.3559L118.128 33.6856C117.796 33.5773 117.614 33.2182 117.722 32.8838C117.829 32.5493 118.185 32.3662 118.517 32.4746L120.056 32.978L123.75 25.7484C123.91 25.4358 124.291 25.3131 124.6 25.4743C124.91 25.6352 125.032 26.0194 124.872 26.3317L120.933 34.042C120.838 34.2262 120.666 34.3468 120.474 34.3786H120.474Z" fill="white"/>
</g>
<path d="M0.126953 42.7069C2.41045 43.8112 3.97994 45.5061 5.05096 47.6311C6.12198 45.5061 7.6982 43.8048 9.9817 42.7005C7.6982 41.5963 6.12198 39.9014 5.05096 37.7764C3.97994 39.9014 2.41045 41.6027 0.126953 42.7069Z" fill="#FFD325"/>
<path d="M247.861 236.159C249.764 237.079 251.072 238.491 251.964 240.262C252.857 238.491 254.17 237.073 256.073 236.153C254.17 235.233 252.857 233.821 251.964 232.05C251.072 233.821 249.764 235.238 247.861 236.159Z" fill="#AF8E2F"/>
<path d="M285.661 108.059C287.564 108.979 288.871 110.392 289.764 112.162C290.657 110.392 291.97 108.974 293.873 108.054C291.97 107.133 290.657 105.721 289.764 103.95C288.871 105.721 287.564 107.139 285.661 108.059Z" fill="#AF8E2F"/>
<path d="M182.439 68.9877C185.484 70.46 187.577 72.7199 189.005 75.5532C190.433 72.7199 192.534 70.4514 195.579 68.9791C192.534 67.5068 190.433 65.2469 189.005 62.4136C187.577 65.2469 185.484 67.5154 182.439 68.9877Z" fill="#FFD325"/>
<path d="M67.2607 187.174C70.3054 188.647 72.3981 190.906 73.8261 193.74C75.2541 190.906 77.3557 188.638 80.4004 187.166C77.3557 185.693 75.2541 183.433 73.8261 180.6C72.3981 183.433 70.3054 185.702 67.2607 187.174Z" fill="#FFD325"/>
<path d="M1.76953 197.097C3.29187 197.833 4.33819 198.963 5.0522 200.38C5.76622 198.963 6.81703 197.829 8.33936 197.093C6.81703 196.357 5.76622 195.227 5.0522 193.81C4.33819 195.227 3.29187 196.361 1.76953 197.097Z" fill="#AF8E2F"/>
<path d="M257.993 18.892C260.657 20.1803 262.488 22.1577 263.737 24.6369C264.987 22.1577 266.826 20.1728 269.49 18.8845C266.826 17.5962 264.987 15.6188 263.737 13.1396C262.488 15.6188 260.657 17.6037 257.993 18.892Z" fill="#AF8E2F"/>
<path d="M44.4731 103.477C45.9955 104.213 47.0418 105.343 47.7558 106.76C48.4698 105.343 49.5206 104.209 51.043 103.473C49.5206 102.737 48.4698 101.607 47.7558 100.19C47.0418 101.607 45.9955 102.741 44.4731 103.477Z" fill="#AF8E2F"/>
<path d="M187.6 264.673C188.205 264.9 188.864 264.888 189.798 264.631C191.217 264.244 192.594 263.63 193.845 262.759C197.528 260.201 200.246 255.282 200.288 250.22C200.312 247.197 200.144 244.067 201.144 241.247C202.599 237.139 206.246 234.456 208.174 230.592C209.449 228.046 209.862 225.017 209.443 222.162C209 219.133 207.629 216.95 207.641 213.784C207.659 208.871 209.946 204.364 212.012 200.006C214.083 195.647 216.047 190.853 215.377 186C210.802 187.33 206.24 190.692 203.162 194.961C200.102 199.207 199.659 205.312 196.57 209.533C193.151 214.196 187.451 217.123 185.918 222.871C184.822 226.985 186.427 231.111 184.577 234.986C183.834 236.549 182.864 237.95 182.08 239.482C179.954 243.656 179.319 248.819 180.343 253.517C181.17 257.292 183.062 260.732 185.63 263.224C186.391 263.963 186.96 264.452 187.594 264.685L187.6 264.673Z" fill="#007A18"/>
<path d="M186.736 251.352C193.224 245.923 196.823 237.76 198.817 229.56C200.816 221.357 201.432 212.88 203.166 204.618" stroke="#161742" stroke-width="0.4" stroke-linecap="round" stroke-linejoin="round"/>
<path d="M191.629 262.806C191.001 263.003 190.318 262.991 189.348 262.759C187.875 262.413 186.456 261.858 185.157 261.077C181.349 258.788 178.558 254.405 178.546 249.916C178.535 247.233 178.732 244.454 177.714 241.95C176.229 238.295 172.463 235.892 170.481 232.458C169.176 230.192 168.763 227.503 169.218 224.964C169.697 222.274 171.128 220.349 171.134 217.534C171.14 213.17 168.799 209.157 166.679 205.282C164.56 201.406 162.548 197.137 163.272 192.833C168.014 194.037 172.727 197.048 175.894 200.852C179.043 204.638 179.463 210.058 182.648 213.82C186.163 217.976 192.066 220.599 193.623 225.715C194.737 229.376 193.042 233.025 194.94 236.471C195.707 237.86 196.701 239.106 197.503 240.472C199.683 244.186 200.311 248.771 199.222 252.939C198.341 256.29 196.359 259.33 193.677 261.525C192.881 262.174 192.288 262.61 191.629 262.812V262.806Z" fill="#32B353"/>
<path d="M186.189 260.15C188.772 252.112 187.448 243.296 184.746 235.299C182.046 227.297 178.03 219.798 175.075 211.887" stroke="#161742" stroke-width="0.4" stroke-linecap="round" stroke-linejoin="round"/>
<path d="M183.48 245.546C181.516 243.852 179.247 242.57 177.175 241.014C175.337 239.631 173.93 237.878 172.236 236.358C169.254 233.687 167.571 229.131 163.23 228.291C161.44 227.945 159.602 228.368 157.782 228.553C155.692 228.768 153.567 228.66 151.507 228.249C150.136 227.975 147.214 226.329 146.058 226.752C147.417 228.094 148.357 229.495 149.034 231.308C149.788 233.329 150.411 235.517 151.992 236.99C153.327 238.236 155.141 238.778 156.848 239.44C160.817 240.972 161.74 244.007 163.195 247.722C163.769 249.195 164.476 250.846 165.751 251.854C167.158 252.963 169.02 252.545 170.421 253.464C171.463 254.149 171.649 255.324 172.194 256.367C173.008 257.935 174.146 259.229 175.661 260.165C177.678 261.411 180.049 261.972 182.403 262.282C185.085 262.634 187.815 262.872 190.504 262.997C190.186 260.63 189.941 258.078 189.264 255.777C188.51 253.201 187.426 250.691 186.001 248.408C185.331 247.334 184.456 246.404 183.474 245.552L183.48 245.546Z" fill="#007A18"/>
<path d="M193.069 270.488C191.263 262.242 185.683 255.272 179.323 249.697C172.962 244.117 165.714 239.629 159.178 234.255" stroke="#161742" stroke-width="0.4" stroke-linecap="round" stroke-linejoin="round"/>
<path d="M192.57 245.6C194.408 243.769 196.587 242.338 198.539 240.639C200.276 239.13 201.557 237.288 203.144 235.648C205.928 232.775 207.293 228.112 211.562 226.979C213.329 226.508 215.191 226.8 217.017 226.86C219.118 226.931 221.226 226.675 223.256 226.121C224.603 225.751 227.399 223.903 228.585 224.248C227.321 225.679 226.483 227.14 225.932 229C225.322 231.069 224.855 233.293 223.382 234.873C222.136 236.209 220.364 236.877 218.711 237.652C214.861 239.458 214.149 242.547 212.963 246.351C212.49 247.859 211.903 249.553 210.7 250.65C209.377 251.848 207.491 251.562 206.155 252.581C205.161 253.339 205.06 254.519 204.593 255.598C203.892 257.22 202.844 258.591 201.395 259.629C199.467 261.012 197.144 261.74 194.815 262.211C192.162 262.747 189.456 263.176 186.786 263.487C186.935 261.102 187.001 258.544 187.516 256.201C188.091 253.577 188.995 251.001 190.252 248.622C190.845 247.502 191.654 246.518 192.576 245.6H192.57Z" fill="#268E3A"/>
<path d="M188.581 260.793C194.001 258.336 197.982 253.486 200.885 248.31C203.791 243.132 205.813 237.509 208.552 232.242" stroke="#161742" stroke-width="0.4" stroke-linecap="round" stroke-linejoin="round"/>
<path d="M200.3 266.628L200.15 267.445L197.354 282.906H178.026L175.224 267.445L175.08 266.628H200.3Z" fill="#E8F6FD"/>
<path d="M202.659 260.398H172.715V266.629H202.659V260.398Z" fill="#E8F6FD"/>
<path d="M200.3 266.628L200.15 267.445H175.224L175.08 266.628H200.3Z" fill="#AF8E2F"/>
<defs>
<clipPath id="clip0_264_2425">
<rect width="54.6" height="53.8909" fill="white" transform="translate(232.111 124.95)"/>
</clipPath>
<clipPath id="clip1_264_2425">
<rect width="66.15" height="63" fill="white" transform="translate(29.4609 186.9)"/>
</clipPath>
<clipPath id="clip2_264_2425">
<rect width="69.1543" height="67.743" fill="white" transform="translate(113.457)"/>
</clipPath>
</defs>
</svg>
