<svg width="36" height="36" viewBox="0 0 36 36" fill="none" xmlns="http://www.w3.org/2000/svg">
<circle cx="18" cy="18" r="18" fill="white"/>
<mask id="mask0_0_4171" style="mask-type:alpha" maskUnits="userSpaceOnUse" x="6" y="6" width="24" height="24">
<rect x="6" y="6" width="24" height="24" fill="#D9D9D9"/>
</mask>
<g mask="url(#mask0_0_4171)">
<path d="M16.5365 18L12.2962 13.7537C12.2026 13.6602 12.1516 13.5465 12.1432 13.4125C12.1349 13.2785 12.1859 13.1564 12.2962 13.0462C12.4026 12.9397 12.5205 12.8865 12.65 12.8865C12.7795 12.8865 12.8974 12.9397 13.0037 13.0462L17.3922 17.4345C17.4794 17.5218 17.5407 17.611 17.576 17.702C17.6112 17.793 17.6287 17.8923 17.6287 18C17.6287 18.1076 17.6112 18.207 17.576 18.298C17.5407 18.389 17.4794 18.4781 17.3922 18.5655L13.0037 22.9537C12.9102 23.0474 12.7965 23.0984 12.6625 23.1067C12.5285 23.1151 12.4064 23.0641 12.2962 22.9537C12.1897 22.8474 12.1365 22.7295 12.1365 22.6C12.1365 22.4705 12.1897 22.3526 12.2962 22.2462L16.5365 18ZM22.6365 18L18.3962 13.7537C18.3026 13.6602 18.2516 13.5465 18.2432 13.4125C18.2349 13.2785 18.2859 13.1564 18.3962 13.0462C18.5026 12.9397 18.6205 12.8865 18.75 12.8865C18.8795 12.8865 18.9974 12.9397 19.1037 13.0462L23.4922 17.4345C23.5794 17.5218 23.6407 17.611 23.676 17.702C23.7112 17.793 23.7287 17.8923 23.7287 18C23.7287 18.1076 23.7112 18.207 23.676 18.298C23.6407 18.389 23.5794 18.4781 23.4922 18.5655L19.1037 22.9537C19.0102 23.0474 18.8965 23.0984 18.7625 23.1067C18.6285 23.1151 18.5064 23.0641 18.3962 22.9537C18.2897 22.8474 18.2365 22.7295 18.2365 22.6C18.2365 22.4705 18.2897 22.3526 18.3962 22.2462L22.6365 18Z" fill="#161742"/>
</g>
</svg>
