<svg width="36" height="36" viewBox="0 0 36 36" fill="none" xmlns="http://www.w3.org/2000/svg">
<circle cx="18" cy="18" r="18" fill="white"/>
<mask id="mask0_0_4176" style="mask-type:alpha" maskUnits="userSpaceOnUse" x="6" y="6" width="24" height="24">
<rect x="6" y="6" width="24" height="24" fill="#D9D9D9"/>
</mask>
<g mask="url(#mask0_0_4176)">
<path d="M15.55 21.8806L24.352 13.0786C24.4493 12.9813 24.5641 12.9294 24.6963 12.9229C24.8283 12.9165 24.9493 12.9685 25.0595 13.0786C25.1698 13.189 25.225 13.3079 25.225 13.4354C25.225 13.563 25.1698 13.682 25.0595 13.7921L16.1155 22.7421C15.9538 22.9036 15.7653 22.9844 15.55 22.9844C15.3347 22.9844 15.1462 22.9036 14.9845 22.7421L10.9345 18.6921C10.8372 18.5948 10.7863 18.4791 10.7818 18.3451C10.7773 18.2111 10.8302 18.089 10.9405 17.9786C11.0507 17.8685 11.1695 17.8134 11.297 17.8134C11.4247 17.8134 11.5436 17.8685 11.6538 17.9786L15.55 21.8806Z" fill="#309E47"/>
</g>
</svg>
