<svg width="344" height="242" viewBox="0 0 344 242" fill="none" xmlns="http://www.w3.org/2000/svg">
<g opacity="0.5">
<path d="M267.026 0C267.026 0 266.759 3.56269 270.341 5.54171L274.088 4.70217C274.088 4.70217 271.556 3.84508 270.341 0.00381544L267.026 0Z" fill="#AF8E2F"/>
<path d="M42.2986 121.33C42.2986 121.33 46.6261 119.759 47.2163 116.489L44.376 114.482C44.376 114.482 44.56 116.522 40.6924 119.201L42.2986 121.33Z" fill="#AF8E2F"/>
<path d="M340.427 94.3334C340.427 94.3334 338.245 97.516 333.806 97.903L331.125 95.7911C331.125 95.7911 333.888 95.9438 337.571 93.1122L340.427 94.3334Z" fill="#AF8E2F"/>
<path d="M264.976 166.079C264.976 166.079 262.794 169.261 258.355 169.648L255.675 167.533C255.675 167.533 258.438 167.686 262.121 164.854L264.976 166.079Z" fill="#AF8E2F"/>
<path d="M7.61853 205.766C7.61853 205.766 9.80969 208.948 14.2489 209.335L16.9196 207.221C16.9196 207.221 14.1569 207.373 10.4743 204.542L7.61853 205.766Z" fill="#AF8E2F"/>
<path d="M289.782 81.9143C289.782 81.9143 291.964 85.0901 296.413 85.477L299.083 83.3622C299.083 83.3622 295.814 83.7361 292.149 80.9008L289.782 81.9143Z" fill="#AF8E2F"/>
<path d="M94.3156 47.3193C94.3156 47.3193 91.341 50.128 92.7497 53.2625L96.4788 54.1532C95.6913 52.3 95.717 50.3105 96.5522 48.4687L94.3156 47.3193Z" fill="#AF8E2F"/>
<path d="M203.109 20.9365C203.109 20.9365 202.261 24.4473 198.155 25.7578L194.775 24.3023C197.169 23.5002 199.158 22.1604 200.46 20.474L203.109 20.9365Z" fill="#AF8E2F"/>
<path d="M331.597 53.7097C331.597 53.7097 326.808 54.1516 323.89 51.6697L324.811 48.8458C324.811 48.8458 326.182 50.634 331.413 51.2881L331.597 53.7097Z" fill="#5BC4F0"/>
<path d="M344 223.144C344 223.144 339.212 223.585 336.293 221.103L337.214 218.28C337.214 218.28 338.585 220.068 343.816 220.722L344 223.144Z" fill="#5BC4F0"/>
<path d="M107.313 14.7858C107.313 14.7858 102.525 15.2277 99.606 12.7457L100.48 9.9218C100.48 9.9218 101.852 11.71 107.083 12.3641L107.313 14.7858Z" fill="#5BC4F0"/>
<path d="M324.362 140.716C324.362 140.716 319.574 141.158 316.655 138.676L317.529 135.852C317.529 135.852 318.901 137.64 324.132 138.3L324.362 140.716Z" fill="#5BC4F0"/>
<path d="M16.9209 64.3948C16.9209 64.3948 21.7094 64.8298 24.6282 62.3547L23.7073 59.5308C23.7073 59.5308 22.3358 61.3121 17.1049 61.9731L16.9209 64.3948Z" fill="#5BC4F0"/>
<path d="M7.61853 13.2593C7.61853 13.2593 12.407 13.7012 15.3258 11.2193L14.4049 8.39537C14.4049 8.39537 13.0334 10.1836 7.81182 10.843L7.61853 13.2593Z" fill="#5BC4F0"/>
<path d="M0 104.288C0 104.288 4.78852 104.723 7.70731 102.248L6.7864 99.4237C6.7864 99.4237 5.41486 101.205 0.193277 101.866L0 104.288Z" fill="#5BC4F0"/>
<path d="M313.058 178.811C319.259 179.178 318.15 187.882 313.131 189.058C312.824 189.141 312.498 189.176 312.172 189.163C311.846 189.15 311.527 189.088 311.234 188.982C310.86 188.781 310.559 188.514 310.36 188.205C310.162 187.896 310.071 187.556 310.098 187.214C310.696 185.718 314.038 187.609 314.472 188.194C315.121 188.957 315.426 189.853 315.341 190.752C315.257 191.652 314.788 192.508 314.002 193.198C311.442 195.238 306.571 195.339 303.376 194.15C303.202 194.089 303.17 194.32 303.294 194.374C306.728 196.006 312.502 195.768 315.034 193.191C317.078 191.151 315.669 185.663 311.222 186.147C307.078 186.605 309.942 190.083 313.064 189.622C316.185 189.16 317.337 186.086 317.668 184.182C318.046 181.782 317.079 178.538 313.064 178.593C312.925 178.593 312.944 178.804 313.064 178.811L313.058 178.811Z" fill="#5BC4F0"/>
<path d="M157.766 8.41827C162.425 8.07864 168.715 13.8173 164.166 16.5778C161.643 18.1042 156.127 17.441 156.183 14.5789C156.195 14.4997 156.242 14.4256 156.317 14.3679C156.391 14.3102 156.489 14.2721 156.596 14.2592C160.28 13.6402 163.88 14.8033 163.253 17.9516C162.916 19.2984 161.972 20.5214 160.574 21.422C159.177 22.3226 157.408 22.8479 155.555 22.9125C155.334 22.9125 155.417 22.627 155.555 22.5996C158.742 22.1035 161.757 20.6412 162.37 18.1256C162.514 17.6808 162.528 17.2183 162.41 16.7692C162.293 16.32 162.047 15.8947 161.688 15.5215C161.255 15.1328 160.675 14.8487 160.021 14.7056C159.478 14.5767 157.508 14.3454 157.084 14.6713C156.219 15.3513 158.557 16.4389 159.248 16.616C159.935 16.8009 160.669 16.8707 161.397 16.8201C162.125 16.7696 162.829 16.6 163.457 16.3236C165.391 15.3238 164.912 13.4402 163.982 12.1077C163.425 11.186 162.545 10.3907 161.433 9.80392C160.321 9.21711 159.017 8.85997 157.655 8.76935C157.398 8.76935 157.526 8.40911 157.729 8.39537L157.766 8.41827Z" fill="#5BC4F0"/>
<path d="M262.606 59.5476C257.955 59.8872 251.667 54.1486 256.216 51.388C258.739 49.8509 264.255 50.518 264.199 53.38C264.187 53.4593 264.14 53.5333 264.065 53.591C263.99 53.6487 263.892 53.6869 263.786 53.6998C260.102 54.3188 256.502 53.1656 257.129 50.0074C257.455 48.6564 258.394 47.4276 259.791 46.523C261.188 45.6184 262.961 45.0917 264.817 45.0297C265.038 45.0297 264.965 45.3083 264.817 45.335C261.631 45.8311 258.616 47.2934 258.003 49.8089C257.858 50.2538 257.844 50.7163 257.962 51.1654C258.079 51.6146 258.326 52.04 258.684 52.413C259.119 52.8015 259.699 53.0875 260.351 53.2358C260.895 53.3579 262.856 53.5892 263.289 53.2358C264.154 52.5558 261.815 51.4682 261.124 51.2911C260.437 51.1079 259.703 51.0392 258.976 51.0897C258.248 51.1402 257.545 51.3088 256.916 51.5834C254.982 52.5832 255.46 54.4668 256.391 55.7994C256.946 56.7219 257.826 57.5179 258.938 58.1048C260.05 58.6918 261.355 59.0484 262.717 59.1377C262.974 59.1377 262.846 59.498 262.634 59.5117L262.606 59.5476Z" fill="#5BC4F0"/>
<path d="M47.7346 25.9999C51.0492 27.3599 52.9096 32.5635 48.9501 34.1052C45.5796 35.4111 40.0459 34.0373 42.0438 30.7936C42.065 30.7566 42.0993 30.7244 42.1431 30.7005C42.1869 30.6766 42.2387 30.6619 42.2929 30.6578C46.2204 30.6578 46.455 34.0579 45.0091 36.043C42.7621 39.1302 38.2681 38.3212 35.5612 36.043C35.4692 35.9667 35.5612 35.7507 35.7266 35.8324C38.0749 37.2672 41.528 38.77 43.9404 36.5124C45.2199 35.3225 45.9475 33.1123 44.5946 31.7522C44.253 31.3802 43.7329 31.1178 43.1393 31.018C41.8691 30.9157 41.7678 31.943 42.2742 32.691C43.0753 33.8808 45.3501 34.1594 46.9615 34.051C52.4869 33.5885 50.5159 28.088 47.6157 26.1495C47.5237 26.0884 47.6157 25.9045 47.7356 25.9594L47.7346 25.9999Z" fill="#5BC4F0"/>
<path d="M15.9044 148.283C9.76294 149.065 11.9448 157.66 17.0827 158.482C17.3991 158.546 17.73 158.562 18.0548 158.527C18.3795 158.492 18.6911 158.409 18.9699 158.281C19.3197 158.056 19.5873 157.771 19.7483 157.45C19.9092 157.129 19.9582 156.783 19.8909 156.445C19.1177 154.989 16.0232 157.125 15.6532 157.709C15.1028 158.514 14.9114 159.428 15.1065 160.318C15.3017 161.208 15.8733 162.03 16.7395 162.666C19.5022 164.557 24.4096 164.305 27.44 162.904C27.6054 162.828 27.6612 163.057 27.5506 163.122C24.328 164.971 18.5586 165.121 15.709 162.727C13.4249 160.81 14.1587 155.248 18.6464 155.459C22.8272 155.629 20.4035 159.294 17.2191 159.046C14.0347 158.798 12.5319 155.809 11.9975 153.932C11.3164 151.566 11.8869 148.274 15.9023 148.064C16.0315 148.064 16.0501 148.261 15.9023 148.274L15.9044 148.283Z" fill="#5BC4F0"/>
<path d="M42.1834 239.743C46.4334 243.109 54.9766 237.054 53.0949 233.429C52.9943 233.198 52.8302 232.986 52.6131 232.804C52.3959 232.622 52.1304 232.476 51.833 232.373C51.3871 232.28 50.9166 232.271 50.4649 232.348C50.0132 232.424 49.5947 232.583 49.248 232.81C48.0223 234.085 52.1367 234.827 53.0018 234.736C54.2156 234.635 55.3551 234.253 56.2571 233.645C57.1591 233.036 57.7774 232.233 58.0235 231.35C58.6525 228.607 55.6794 225.713 52.4329 224.608C52.2558 224.548 52.4847 224.388 52.6187 224.421C56.4791 225.399 59.8084 228.881 58.6571 231.953C57.7358 234.414 51.0314 237.007 48.8122 234.119C46.7153 231.443 52.1954 230.933 53.6584 233.036C55.1214 235.14 52.558 237.705 50.7242 239.063C48.4164 240.78 44.3742 242.23 41.9364 239.864C41.8656 239.785 42.0785 239.665 42.1751 239.749L42.1834 239.743Z" fill="#5BC4F0"/>
</g>
</svg>
