<svg width="303" height="455" viewBox="0 0 303 455" fill="none" xmlns="http://www.w3.org/2000/svg">
<path d="M236.083 353.28C235.762 351.507 235.277 349.752 234.729 348.016L237.565 363.433C237.107 360.042 236.696 356.643 236.083 353.28Z" fill="#32B353"/>
<path d="M244.524 386.672L240.37 364.137C240.617 365.909 240.873 367.673 241.129 369.419C240.736 367.225 240.425 365.023 240.132 362.821L237.223 347.038C236.153 343.675 234.826 340.358 233.792 337.004C230.096 325.06 226.153 313.188 221.945 301.409C220.307 296.83 218.569 292.151 215.394 288.478C214.799 293.449 215.211 297.726 215.238 299.608C215.284 303.584 215.44 307.559 215.714 311.525C216.135 317.73 217.05 323.872 217.919 330.022C218.761 335.98 218.569 342.158 219.209 348.217C219.136 348.034 219.054 347.861 218.98 347.687L229.218 384.36C230.453 384.708 231.761 384.9 233.024 385.073C236.857 385.603 240.69 386.142 244.524 386.672Z" fill="#32B353"/>
<path d="M235.333 391.498C235.031 391.498 234.774 391.269 234.747 390.968C233.311 375.459 229.779 359.988 226.367 345.018C223.091 330.652 219.697 315.802 218.151 300.906C218.115 300.586 218.352 300.294 218.673 300.266C218.993 300.23 219.286 300.467 219.313 300.787C220.85 315.61 224.235 330.433 227.501 344.763C230.923 359.768 234.463 375.286 235.909 390.867C235.936 391.187 235.698 391.47 235.378 391.507C235.36 391.507 235.342 391.507 235.323 391.507L235.333 391.498Z" fill="#161742"/>
<path d="M203 327.901C208.974 339.105 213.951 350.839 217.867 362.92C218.901 366.1 219.843 369.317 221.032 372.442C222.029 375.093 224.966 378.977 224.884 381.599C225.094 381.764 225.332 381.928 225.57 382.093C225.799 382.248 226.018 382.413 226.229 382.586C227.262 383.464 228.498 384.003 229.806 384.368L219.568 347.695C216.192 339.644 210.346 332.644 203.009 327.91L203 327.901Z" fill="#32B353"/>
<path d="M223.889 374.179C223.651 374.179 223.423 374.033 223.34 373.786L212.426 343.108C212.316 342.806 212.481 342.468 212.783 342.358C213.084 342.249 213.423 342.413 213.533 342.715L224.447 373.393C224.557 373.695 224.392 374.033 224.09 374.142C224.026 374.17 223.962 374.179 223.898 374.179H223.889Z" fill="#161742"/>
<path d="M264.049 372.597L266.089 360.909C265.174 364.766 264.497 368.668 264.049 372.597Z" fill="#32B353"/>
<path d="M264.7 256.179C253.521 289.37 248.489 324.618 249.934 359.61C249.815 358.331 249.687 357.042 249.568 355.763L251.59 388.05C253.301 388.287 255.012 388.525 256.714 388.762C258.232 388.973 259.815 389.165 261.398 389.265L264.188 373.254C265.423 353.999 268.671 334.908 270.144 315.653C271.672 295.667 271.196 275.151 264.7 256.179Z" fill="#32B353"/>
<path d="M252.184 407.014C252.12 407.014 252.065 407.005 252.001 406.987C251.69 406.886 251.526 406.558 251.626 406.247C255.578 393.974 256.356 380.878 257.106 368.221L262.522 276.944C262.541 276.624 262.824 276.368 263.144 276.396C263.465 276.414 263.712 276.688 263.693 277.017L258.277 368.294C257.518 381.024 256.74 394.193 252.742 406.612C252.66 406.859 252.431 407.014 252.184 407.014Z" fill="#161742"/>
<path d="M250.791 355.764C247.205 318.442 242.878 280.699 228.779 246C225.998 255.084 226.895 264.835 227.883 274.284C230.911 303.336 234.58 334.919 238.724 364.135L242.878 386.671C246.19 387.128 249.501 387.594 252.822 388.051L250.801 355.764H250.791Z" fill="#32B353"/>
<path d="M255.849 419.644C255.675 419.644 255.51 419.57 255.391 419.433C251.357 414.526 250.396 407.727 249.618 402.271L230.342 266.699C230.296 266.379 230.516 266.087 230.836 266.041C231.156 265.995 231.449 266.215 231.495 266.535L250.771 402.107C251.53 407.425 252.464 414.042 256.297 418.693C256.498 418.94 256.462 419.315 256.215 419.516C256.105 419.607 255.977 419.653 255.839 419.653L255.849 419.644Z" fill="#161742"/>
<path d="M274.318 364.072C274.501 363.304 274.675 362.537 274.858 361.769L265.426 388.554C266.688 388.134 267.877 387.531 268.948 386.654C270.842 385.1 272.086 382.907 273.266 380.759C280.475 367.664 287.218 354.312 293.494 340.75C295.763 335.834 298.013 330.734 298.224 325.333C287.483 336.236 279.24 349.596 274.327 364.09L274.318 364.072Z" fill="#32B353"/>
<path d="M268.871 390.355C268.807 390.355 268.734 390.345 268.67 390.318C268.368 390.208 268.213 389.87 268.322 389.569C274.909 371.575 282.549 353.727 291.002 336.528C291.148 336.235 291.496 336.117 291.789 336.263C292.082 336.409 292.201 336.756 292.054 337.049C283.61 354.211 275.998 372.022 269.42 389.98C269.338 390.217 269.109 390.364 268.871 390.364V390.355Z" fill="#161742"/>
<path d="M284.954 323.095C279.794 325.361 276.4 330.351 273.72 335.304C269.475 343.145 266.282 351.553 264.223 360.225L262.137 372.197C262.018 373.285 261.9 374.381 261.817 375.478C261.863 374.738 261.909 373.997 261.954 373.248L259.164 389.259C261.717 389.414 264.26 389.295 266.547 388.537L275.979 361.752C278.971 348.866 281.972 335.971 284.964 323.086L284.954 323.095Z" fill="#32B353"/>
<path d="M265.343 385.365C265.343 385.365 265.289 385.365 265.261 385.365C264.941 385.32 264.721 385.027 264.758 384.707C267.191 367.042 271.894 349.734 278.728 333.266C278.856 332.964 279.195 332.827 279.496 332.946C279.798 333.074 279.936 333.412 279.817 333.714C273.019 350.09 268.344 367.307 265.92 384.872C265.883 385.164 265.627 385.374 265.343 385.374V385.365Z" fill="#161742"/>
<path d="M283.701 374.545L281.798 402.856L281.469 407.682L279.923 430.693H216.97L215.735 406.448L215.534 402.473L214.024 372.964L283.701 374.545Z" fill="#161742"/>
<g style="mix-blend-mode:multiply">
<path d="M281.519 374.929L281.179 380.015L223.981 378.703L222.197 421.299L219.765 373.527L281.519 374.929Z" fill="#161742"/>
</g>
<path d="M77.4551 230.432L86.5973 195.977L95.7422 230.432L77.4551 230.432Z" fill="#FFD325"/>
<path d="M45.0003 189.033L57.9688 181L45.0159 204.657L45.0003 189.033Z" fill="#FFD325"/>
<path d="M45.0013 208.699L63.4766 197.254L45.0248 230.956L45.0013 208.699Z" fill="#FFD325"/>
<path d="M49.4978 230.689L77.4551 199.799L71.9196 230.689L49.4978 230.689Z" fill="#FFD325"/>
<path d="M120 80.5C120 111.704 94.7041 137 63.5 137C32.2959 137 7 111.704 7 80.5C7 49.2959 32.2959 24 63.5 24C94.7041 24 120 49.2959 120 80.5Z" fill="#E8F6FD"/>
<g opacity="0.88">
<g opacity="0.54">
<path d="M37.0989 368.939C37.4253 368.939 37.69 368.674 37.69 368.347C37.69 368.019 37.4253 367.754 37.0989 367.754C36.7724 367.754 36.5078 368.019 36.5078 368.347C36.5078 368.674 36.7724 368.939 37.0989 368.939Z" fill="#161742"/>
<path d="M28.184 379C28.5672 379 28.8778 378.688 28.8778 378.304C28.8778 377.92 28.5672 377.608 28.184 377.608C27.8008 377.608 27.4902 377.92 27.4902 378.304C27.4902 378.688 27.8008 379 28.184 379Z" fill="#161742"/>
<path d="M40.8253 380.621C41.1546 380.621 41.4214 380.354 41.4214 380.024C41.4214 379.694 41.1546 379.426 40.8253 379.426C40.4961 379.426 40.2292 379.694 40.2292 380.024C40.2292 380.354 40.4961 380.621 40.8253 380.621Z" fill="#161742"/>
<path d="M46.9087 396.017C47.3043 396.017 47.625 395.695 47.625 395.298C47.625 394.902 47.3043 394.58 46.9087 394.58C46.5131 394.58 46.1924 394.902 46.1924 395.298C46.1924 395.695 46.5131 396.017 46.9087 396.017Z" fill="#161742"/>
<path d="M28.152 362.696C28.4868 362.696 28.7581 362.424 28.7581 362.088C28.7581 361.753 28.4868 361.48 28.152 361.48C27.8173 361.48 27.5459 361.753 27.5459 362.088C27.5459 362.424 27.8173 362.696 28.152 362.696Z" fill="#161742"/>
<path d="M44.6021 357.939C44.8608 357.939 45.0705 357.729 45.0705 357.47C45.0705 357.21 44.8608 357 44.6021 357C44.3435 357 44.1338 357.21 44.1338 357.47C44.1338 357.729 44.3435 357.939 44.6021 357.939Z" fill="#161742"/>
<path d="M15.4083 383.611C15.6337 383.611 15.8165 383.427 15.8165 383.201C15.8165 382.975 15.6337 382.792 15.4083 382.792C15.1828 382.792 15 382.975 15 383.201C15 383.427 15.1828 383.611 15.4083 383.611Z" fill="#161742"/>
<path d="M31.127 393.094C31.4604 393.094 31.7307 392.823 31.7307 392.489C31.7307 392.155 31.4604 391.884 31.127 391.884C30.7937 391.884 30.5234 392.155 30.5234 392.489C30.5234 392.823 30.7937 393.094 31.127 393.094Z" fill="#161742"/>
</g>
<g opacity="0.54">
<path d="M58.1093 329.336C58.7069 329.336 59.1913 328.85 59.1913 328.251C59.1913 327.652 58.7069 327.166 58.1093 327.166C57.5118 327.166 57.0273 327.652 57.0273 328.251C57.0273 328.85 57.5118 329.336 58.1093 329.336Z" fill="#161742"/>
<path d="M81.9367 194.878C82.4541 194.878 82.8734 194.458 82.8734 193.939C82.8734 193.421 82.4541 193 81.9367 193C81.4194 193 81 193.421 81 193.939C81 194.458 81.4194 194.878 81.9367 194.878Z" fill="#161742"/>
<path d="M43.9718 225.949C44.5085 225.949 44.9436 225.513 44.9436 224.974C44.9436 224.436 44.5085 224 43.9718 224C43.4351 224 43 224.436 43 224.974C43 225.513 43.4351 225.949 43.9718 225.949Z" fill="#161742"/>
<path d="M224.485 217.743C225.083 217.743 225.567 217.258 225.567 216.659C225.567 216.059 225.083 215.574 224.485 215.574C223.888 215.574 223.403 216.059 223.403 216.659C223.403 217.258 223.888 217.743 224.485 217.743Z" fill="#161742"/>
<path d="M287.689 337.381C288.069 337.381 288.378 337.072 288.378 336.691C288.378 336.309 288.069 336 287.689 336C287.308 336 287 336.309 287 336.691C287 337.072 287.308 337.381 287.689 337.381Z" fill="#161742"/>
<path d="M43.6036 196.21C43.937 196.21 44.2072 195.94 44.2072 195.605C44.2072 195.271 43.937 195 43.6036 195C43.2702 195 43 195.271 43 195.605C43 195.94 43.2702 196.21 43.6036 196.21Z" fill="#161742"/>
</g>
<g opacity="0.54">
<path d="M75.7656 338.263C76.3631 338.263 76.8476 337.777 76.8476 337.178C76.8476 336.579 76.3631 336.093 75.7656 336.093C75.168 336.093 74.6836 336.579 74.6836 337.178C74.6836 337.777 75.168 338.263 75.7656 338.263Z" fill="#161742"/>
<path d="M94.4358 342.968C94.7623 342.968 95.0269 342.702 95.0269 342.375C95.0269 342.048 94.7623 341.782 94.4358 341.782C94.1094 341.782 93.8447 342.048 93.8447 342.375C93.8447 342.702 94.1094 342.968 94.4358 342.968Z" fill="#161742"/>
<path d="M89.8537 348.56C90.3711 348.56 90.7904 348.14 90.7904 347.621C90.7904 347.102 90.3711 346.682 89.8537 346.682C89.3364 346.682 88.917 347.102 88.917 347.621C88.917 348.14 89.3364 348.56 89.8537 348.56Z" fill="#161742"/>
<path d="M96.3363 375.145C96.7195 375.145 97.0301 374.834 97.0301 374.449C97.0301 374.065 96.7195 373.754 96.3363 373.754C95.9532 373.754 95.6426 374.065 95.6426 374.449C95.6426 374.834 95.9532 375.145 96.3363 375.145Z" fill="#161742"/>
<path d="M87.2647 361.045C87.5538 361.045 87.7881 360.81 87.7881 360.52C87.7881 360.23 87.5538 359.995 87.2647 359.995C86.9756 359.995 86.7412 360.23 86.7412 360.52C86.7412 360.81 86.9756 361.045 87.2647 361.045Z" fill="#161742"/>
<path d="M76.8329 348.859C77.1414 348.859 77.3915 348.609 77.3915 348.299C77.3915 347.99 77.1414 347.739 76.8329 347.739C76.5245 347.739 76.2744 347.99 76.2744 348.299C76.2744 348.609 76.5245 348.859 76.8329 348.859Z" fill="#161742"/>
<path d="M86.4634 329.229C86.859 329.229 87.1797 328.908 87.1797 328.511C87.1797 328.115 86.859 327.793 86.4634 327.793C86.0678 327.793 85.7471 328.115 85.7471 328.511C85.7471 328.908 86.0678 329.229 86.4634 329.229Z" fill="#161742"/>
<path d="M94.6759 334.283C95.149 334.283 95.5325 333.899 95.5325 333.424C95.5325 332.95 95.149 332.565 94.6759 332.565C94.2028 332.565 93.8193 332.95 93.8193 333.424C93.8193 333.899 94.2028 334.283 94.6759 334.283Z" fill="#161742"/>
<path d="M82.9442 358.874C83.1988 358.874 83.4051 358.667 83.4051 358.412C83.4051 358.157 83.1988 357.95 82.9442 357.95C82.6897 357.95 82.4834 358.157 82.4834 358.412C82.4834 358.667 82.6897 358.874 82.9442 358.874Z" fill="#161742"/>
<path d="M111.196 323.31C111.531 323.31 111.802 323.038 111.802 322.703C111.802 322.367 111.531 322.095 111.196 322.095C110.861 322.095 110.59 322.367 110.59 322.703C110.59 323.038 110.861 323.31 111.196 323.31Z" fill="#161742"/>
<path d="M114.773 337.116C115.032 337.116 115.241 336.906 115.241 336.647C115.241 336.387 115.032 336.177 114.773 336.177C114.514 336.177 114.305 336.387 114.305 336.647C114.305 336.906 114.514 337.116 114.773 337.116Z" fill="#161742"/>
<path d="M109.698 345.815C110.147 345.815 110.512 345.45 110.512 344.999C110.512 344.548 110.147 344.183 109.698 344.183C109.248 344.183 108.884 344.548 108.884 344.999C108.884 345.45 109.248 345.815 109.698 345.815Z" fill="#161742"/>
<path d="M98.6485 320.348C98.874 320.348 99.0567 320.165 99.0567 319.939C99.0567 319.713 98.874 319.529 98.6485 319.529C98.423 319.529 98.2402 319.713 98.2402 319.939C98.2402 320.165 98.423 320.348 98.6485 320.348Z" fill="#161742"/>
<path d="M93.1302 365.658C93.5106 365.658 93.8189 365.349 93.8189 364.968C93.8189 364.586 93.5106 364.277 93.1302 364.277C92.7498 364.277 92.4414 364.586 92.4414 364.968C92.4414 365.349 92.7498 365.658 93.1302 365.658Z" fill="#161742"/>
<path d="M70.7618 331.014C71.0952 331.014 71.3654 330.743 71.3654 330.409C71.3654 330.075 71.0952 329.804 70.7618 329.804C70.4284 329.804 70.1582 330.075 70.1582 330.409C70.1582 330.743 70.4284 331.014 70.7618 331.014Z" fill="#161742"/>
</g>
</g>
<path d="M293 194.503C295.317 195.511 296.91 197.059 297.997 199C299.083 197.059 300.683 195.506 303 194.497C300.683 193.489 299.083 191.941 297.997 190C296.91 191.941 295.317 193.494 293 194.503Z" fill="#AF8E2F"/>
<path d="M214 49.0039C216.549 50.3485 218.301 52.4124 219.496 55C220.692 52.4124 222.451 50.3407 225 48.9961C222.451 47.6515 220.692 45.5876 219.496 43C218.301 45.5876 216.549 47.6593 214 49.0039Z" fill="#AF8E2F"/>
<g opacity="0.54">
<path d="M242.677 62.4353C243.132 62.4353 243.501 62.0653 243.501 61.6088C243.501 61.1523 243.132 60.7822 242.677 60.7822C242.222 60.7822 241.853 61.1523 241.853 61.6088C241.853 62.0653 242.222 62.4353 242.677 62.4353Z" fill="#161742"/>
<path d="M203.472 112.579C203.875 112.579 204.202 112.251 204.202 111.847C204.202 111.443 203.875 111.115 203.472 111.115C203.069 111.115 202.742 111.443 202.742 111.847C202.742 112.251 203.069 112.579 203.472 112.579Z" fill="#161742"/>
<path d="M242.677 80.0245C243.136 80.0245 243.508 79.6513 243.508 79.191C243.508 78.7306 243.136 78.3574 242.677 78.3574C242.218 78.3574 241.846 78.7306 241.846 79.191C241.846 79.6513 242.218 80.0245 242.677 80.0245Z" fill="#161742"/>
<path d="M240.514 94.9085C240.944 94.9085 241.293 94.5588 241.293 94.1274C241.293 93.6961 240.944 93.3464 240.514 93.3464C240.084 93.3464 239.735 93.6961 239.735 94.1274C239.735 94.5588 240.084 94.9085 240.514 94.9085Z" fill="#161742"/>
<path d="M197.186 82.7143C197.737 82.7143 198.185 82.2658 198.185 81.7126C198.185 81.1594 197.737 80.7109 197.186 80.7109C196.634 80.7109 196.187 81.1594 196.187 81.7126C196.187 82.2658 196.634 82.7143 197.186 82.7143Z" fill="#161742"/>
<path d="M261.358 70.4803C261.712 70.4803 262 70.1918 262 69.8358C262 69.4799 261.712 69.1914 261.358 69.1914C261.003 69.1914 260.715 69.4799 260.715 69.8358C260.715 70.1918 261.003 70.4803 261.358 70.4803Z" fill="#161742"/>
<path d="M227.59 29.6951C228.057 29.6951 228.436 29.3157 228.436 28.8476C228.436 28.3795 228.057 28 227.59 28C227.124 28 226.745 28.3795 226.745 28.8476C226.745 29.3157 227.124 29.6951 227.59 29.6951Z" fill="#161742"/>
<path d="M247.291 33.0853C247.652 33.0853 247.944 32.792 247.944 32.4303C247.944 32.0686 247.652 31.7754 247.291 31.7754C246.93 31.7754 246.638 32.0686 246.638 32.4303C246.638 32.792 246.93 33.0853 247.291 33.0853Z" fill="#161742"/>
<path d="M187.363 143.468C187.678 143.468 187.933 143.212 187.933 142.897C187.933 142.582 187.678 142.326 187.363 142.326C187.049 142.326 186.794 142.582 186.794 142.897C186.794 143.212 187.049 143.468 187.363 143.468Z" fill="#161742"/>
<path d="M251.276 90.5385C251.828 90.5385 252.275 90.09 252.275 89.5368C252.275 88.9836 251.828 88.5352 251.276 88.5352C250.725 88.5352 250.277 88.9836 250.277 89.5368C250.277 90.09 250.725 90.5385 251.276 90.5385Z" fill="#161742"/>
<path d="M188.973 106.176C189.504 106.176 189.934 105.745 189.934 105.213C189.934 104.681 189.504 104.25 188.973 104.25C188.443 104.25 188.013 104.681 188.013 105.213C188.013 105.745 188.443 106.176 188.973 106.176Z" fill="#161742"/>
<path d="M163.842 113.424C164.307 113.424 164.684 113.046 164.684 112.58C164.684 112.114 164.307 111.736 163.842 111.736C163.377 111.736 163 112.114 163 112.58C163 113.046 163.377 113.424 163.842 113.424Z" fill="#161742"/>
</g>
<path d="M259 151.5C259 182.152 234.152 207 203.5 207C172.848 207 148 182.152 148 151.5C148 120.848 172.848 96 203.5 96C234.152 96 259 120.848 259 151.5Z" fill="#E8F6FD"/>
<path d="M161.175 454.35C238.592 454.35 301.35 448.004 301.35 440.175C301.35 432.346 238.592 426 161.175 426C83.7585 426 21 432.346 21 440.175C21 448.004 83.7585 454.35 161.175 454.35Z" fill="#CEEDFB"/>
<path d="M149.98 60.6587L135.584 60.3779L135.185 80.7192L149.582 80.9999L149.98 60.6587Z" fill="#E58F6C"/>
<path d="M149.402 67.7787L149.486 63.5494L146.221 62.2094L135.655 62L135.486 70.3051C138.387 71.7428 148.099 70.9751 149.402 67.7647V67.7787Z" fill="#161742"/>
<path d="M160.776 48.9731C161 37.5225 152.782 28.076 142.419 27.874C132.056 27.6719 123.474 36.7907 123.249 48.2414C123.025 59.692 131.243 69.1384 141.606 69.3405C151.969 69.5426 160.551 60.4238 160.776 48.9731Z" fill="#E58F6C"/>
<path d="M145.372 46.8619C145.23 46.8395 145.099 46.7644 145.001 46.6483C144.787 46.3879 144.827 46.0002 145.089 45.785C148.793 42.7427 153.163 45.8953 153.207 45.9269C153.477 46.1263 153.535 46.5086 153.334 46.7826C153.133 47.0538 152.751 47.1134 152.477 46.9157C152.329 46.8097 148.822 44.2992 145.863 46.7323C145.721 46.8498 145.541 46.8915 145.373 46.8657L145.372 46.8619Z" fill="#161742"/>
<path d="M130.096 46.784C129.944 46.7576 129.801 46.6786 129.705 46.5412C129.508 46.2681 129.565 45.8864 129.84 45.6854C131.267 44.6342 134.654 43.3423 137.255 45.9654C137.492 46.2059 137.492 46.5926 137.25 46.8332C137.008 47.0711 136.623 47.0704 136.385 46.8327C133.876 44.3079 130.694 46.574 130.562 46.6732C130.423 46.7732 130.255 46.8096 130.1 46.7822L130.096 46.784Z" fill="#161742"/>
<path d="M136.334 49.6255C136.45 49.6484 136.553 49.7229 136.623 49.8411C136.763 50.0815 136.698 50.4167 136.477 50.5901C135.327 51.5006 132.659 52.61 130.787 50.2851C130.615 50.071 130.638 49.733 130.834 49.5257C131.03 49.3184 131.327 49.3219 131.5 49.5332C133.304 51.7715 135.865 49.8039 135.971 49.7171C136.083 49.6295 136.212 49.6007 136.331 49.6245L136.334 49.6255Z" fill="#161742"/>
<path d="M151.057 49.5474C151.173 49.5702 151.277 49.6447 151.346 49.763C151.487 50.0033 151.422 50.3386 151.2 50.5119C150.051 51.4224 147.383 52.5319 145.51 50.2069C145.339 49.9929 145.361 49.6549 145.558 49.4476C145.754 49.2403 146.051 49.2438 146.224 49.4551C148.028 51.6933 150.589 49.7258 150.695 49.639C150.807 49.5514 150.936 49.5226 151.054 49.5464L151.057 49.5474Z" fill="#161742"/>
<path d="M141.61 64.2915C140.263 64.2928 138.909 63.9148 137.576 63.1636C137.235 62.9701 137.151 62.5909 137.389 62.3112C137.626 62.0343 138.096 61.9626 138.44 62.1571C139.789 62.9171 141.128 63.2058 142.421 63.0076C144.665 62.669 146.08 61.0214 146.093 61.004C146.328 60.7234 146.798 60.6517 147.143 60.8434C147.485 61.0342 147.574 61.4153 147.336 61.695C147.266 61.7788 145.547 63.7826 142.689 64.2131C142.33 64.2686 141.969 64.2953 141.609 64.2942L141.61 64.2915Z" fill="#161742"/>
<path d="M139.943 57.4582C141.047 58.3957 142.684 57.9618 143.383 56.7498C143.72 56.1625 142.863 55.5538 142.523 56.1429C142.097 56.885 141.246 57.1824 140.553 56.5948C140.036 56.1574 139.43 57.0256 139.943 57.4582Z" fill="#161742"/>
<path d="M123.763 39.5113C125.621 32.3537 128.614 31.6072 130.944 32.1341C133.275 32.6611 127.401 38.6331 126.299 43.5951C125.007 49.3768 126.708 55.4952 124.377 54.9682C122.046 54.4413 121.905 46.6689 123.763 39.5113Z" fill="#161742"/>
<path d="M155.198 40.9283C151.872 36.6386 141.718 32.9533 145.205 30.2114C148.693 27.4695 154.304 29.666 157.63 33.9557C160.956 38.2454 164.546 46.6332 161.059 49.375C157.572 52.1169 158.524 45.2033 155.198 40.9136V40.9283Z" fill="#161742"/>
<path d="M123.555 33.6543C122.618 28.5297 131.512 28.7493 137.956 27.5341C144.4 26.3188 149.474 26.9191 150.411 32.0584C151.348 37.183 143.347 39.5257 136.918 40.741C130.474 41.9562 124.492 38.779 123.555 33.6543Z" fill="#161742"/>
<path d="M126.244 51.9983C126.244 51.9983 122.123 49.4424 119.75 53.16C117.377 56.8776 121.06 61.089 124.86 60.0724C126.768 59.5642 127.991 56.5727 127.991 56.5727L126.229 51.9983H126.244Z" fill="#E58F6C"/>
<path d="M126.127 56.3404C125.952 56.3404 125.777 56.2678 125.661 56.1226C125.632 56.0936 123.579 53.6394 121.613 54.4235C121.293 54.5542 120.944 54.3945 120.813 54.0895C120.682 53.7701 120.842 53.4215 121.148 53.2908C123.957 52.1727 126.491 55.2077 126.593 55.3384C126.811 55.5998 126.767 55.9774 126.505 56.1952C126.389 56.2969 126.243 56.3404 126.112 56.3259L126.127 56.3404Z" fill="#161742"/>
<path d="M123.433 58.3733C123.331 58.3733 123.229 58.3443 123.127 58.2862C122.836 58.1119 122.749 57.7344 122.924 57.4439L124.627 54.6267C124.802 54.3363 125.18 54.2491 125.472 54.4234C125.763 54.5977 125.85 54.9752 125.675 55.2657L123.972 58.0829C123.855 58.2717 123.652 58.3879 123.433 58.3733Z" fill="#161742"/>
<path d="M157.153 45.5079C157.153 45.5079 160.152 41.7032 163.646 44.4043C167.155 47.0908 165.131 52.2896 161.186 52.6382C159.22 52.8124 157.051 50.4163 157.051 50.4163L157.138 45.5225L157.153 45.5079Z" fill="#E58F6C"/>
<path d="M158.507 49.6028C158.507 49.6028 158.376 49.6028 158.317 49.5738C157.997 49.4576 157.837 49.1091 157.939 48.8041C157.997 48.6444 159.336 44.9268 162.365 45.0284C162.7 45.0284 162.962 45.3188 162.962 45.6528C162.962 45.9869 162.671 46.2483 162.336 46.2483C162.336 46.2483 162.307 46.2483 162.292 46.2483C160.195 46.2047 159.118 49.1817 159.103 49.2107C159.016 49.4721 158.769 49.6173 158.521 49.6173L158.507 49.6028Z" fill="#161742"/>
<path d="M161.725 50.6051C161.594 50.6051 161.463 50.5615 161.346 50.4744L158.784 48.4123C158.522 48.1944 158.478 47.8169 158.696 47.5555C158.915 47.2941 159.293 47.2505 159.555 47.4683L162.118 49.5304C162.38 49.7483 162.424 50.1258 162.205 50.3872C162.089 50.5324 161.9 50.6196 161.71 50.6196L161.725 50.6051Z" fill="#161742"/>
<path d="M159.289 376.083L162 419.498L132.568 418.928L130 375.498L159.289 376.083Z" fill="#E58F6C"/>
<path d="M158.929 376.086L130 375.498L130.986 392.394L160 393.498L158.929 376.086Z" fill="#0F0F19"/>
<path d="M227.409 373.498L237 416.434L207.432 420.498L198 377.534L227.409 373.498Z" fill="#E58F6C"/>
<path d="M226.796 373.498L198 377.34L201.187 391.498L228 378.712L226.796 373.498Z" fill="#0F0F19"/>
<path d="M136.569 163.218L191.003 383.942L230.297 375.483L174 157L136.569 163.218Z" fill="#1D478E"/>
<path d="M146.312 164.498L153.349 218.281L145.672 218.817L162 386.097L118.731 388.498L103 171.051L146.312 164.498Z" fill="#1D478E"/>
<path d="M152.67 73.9047L153.156 79.8097L173.247 78.7903C179.641 78.467 185.873 80.829 190.447 85.2919L236.924 130.742C241.61 135.316 243.218 142.179 241.049 148.357C239.03 154.125 234.032 158.364 228 159.421L193 166L186.5 146.5L206.438 139.705L183.891 123.979L175.503 149.637L178.931 177.36L102.442 182.767L102.866 116.035C102.866 116.035 84.2826 108.974 73.9378 105.046C58.8445 99.3023 44.2247 92.9497 52.4631 74.7252C55.5416 67.9127 59.1934 78.6162 62.6459 71.9902C62.6459 71.9902 106.555 81.6495 113.709 81.4009C118.657 81.2268 133.501 82.2462 133.501 82.2462L133.214 75.3716L152.683 73.9295L152.67 73.9047Z" fill="#32B353"/>
<path d="M144.729 414.681L129.277 406.287C129.277 406.287 119.608 418.047 111.307 419.428C93.5401 422.357 96.1323 439.146 96.1323 439.146L168 440.498C168 440.498 164.316 414.639 162.801 405.498L144.729 414.681Z" fill="#1D478E"/>
<path d="M218.597 414.236L202 408.911L208.482 441.498L293 431.229L292.537 420.668C292.291 414.907 288.095 410.078 282.452 409.087L258.07 407.365C256.363 407.059 254.742 406.432 253.281 405.484L235.758 396.498L218.582 414.236H218.597Z" fill="#1D478E"/>
<path d="M206.546 140.608C206.305 140.608 206.092 140.449 206.025 140.209C205.932 139.916 206.105 139.597 206.412 139.517L224.359 134.273C224.652 134.193 224.972 134.353 225.052 134.659C225.146 134.952 224.972 135.271 224.665 135.351L206.719 140.595C206.719 140.595 206.612 140.622 206.546 140.622V140.608Z" fill="#161742"/>
<path d="M207.987 137.84C207.84 137.84 207.693 137.774 207.587 137.667C207.373 137.441 207.387 137.082 207.613 136.882L217.06 128.152C217.287 127.939 217.647 127.952 217.847 128.178C218.061 128.405 218.048 128.764 217.821 128.964L208.374 137.694C208.267 137.801 208.12 137.84 207.987 137.84Z" fill="#161742"/>
<path d="M177.549 120.304C177.549 120.304 177.523 120.304 177.509 120.304C177.202 120.278 176.975 119.998 177.002 119.692L179.791 89.5079C179.818 89.2018 180.084 88.9755 180.405 89.0021C180.711 89.0287 180.938 89.3082 180.912 89.6143L178.123 119.798C178.096 120.091 177.843 120.318 177.549 120.304Z" fill="#161742"/>
<path d="M75 40.4638L78.476 28.955C78.476 28.955 78.2761 26.8947 78.9757 24.5575C79.6754 22.2203 83.2402 12.9822 83.2402 12.9822L99.8317 19.5507C99.8317 19.5507 93.2573 31.7906 90.8918 34.0725C88.5153 36.3543 86.9938 44.9721 86.9938 44.9721L75.0111 40.4527L75 40.4638Z" fill="#E58F6C"/>
<path d="M87.3604 33.5187C87.3604 33.5187 97.1664 32.5772 101.02 29.6418C104.307 27.1385 106.417 24.8012 108.072 23.5385C108.527 23.1951 108.572 22.5748 108.172 22.0653C107.428 21.1127 106.051 20.7028 105.007 21.1127C103.541 21.6887 101.542 22.608 100.165 23.7711C98.7989 24.9231 93.4128 24.192 93.4128 24.192L87.3604 33.5409V33.5187Z" fill="#E58F6C"/>
<path d="M99.4537 20.2268L107.672 6.79062C108.238 5.8934 107.805 4.66387 106.728 4.08787C105.706 3.54511 104.462 3.77772 103.918 4.63064L95.2559 18.0447L99.4537 20.2268Z" fill="#E58F6C"/>
<path d="M95.19 18.1886L102.264 3.0576C102.753 2.02746 102.209 0.764697 101.076 0.288393C100.01 -0.165757 98.7881 0.244086 98.3217 1.21885L90.9033 16.66L95.1789 18.1775L95.19 18.1886Z" fill="#E58F6C"/>
<path d="M91.036 16.1945L96.8219 2.71398C97.2217 1.79461 96.5998 0.642615 95.467 0.188464C94.3898 -0.243532 93.2459 0.0887728 92.8572 0.963843L86.7715 14.7102L91.036 16.1945Z" fill="#E58F6C"/>
<path d="M86.5497 14.9317L87.8046 3.77735C87.8935 3.01304 87.1716 2.2709 86.2054 2.1269C85.2948 1.99397 84.5174 2.4592 84.4286 3.1792L83.0071 14.5994L86.5497 14.9428V14.9317Z" fill="#E58F6C"/>
<path d="M83.4179 29.9965C83.218 29.8857 83.1292 29.6309 83.218 29.4205C85.5391 23.8377 92.0912 22.9738 92.3689 22.9405C92.6243 22.9073 92.8575 23.0845 92.8908 23.3504C92.9241 23.6051 92.7465 23.8377 92.491 23.871C92.4244 23.871 86.2054 24.7128 84.0843 29.786C83.9843 30.0186 83.7178 30.1405 83.4735 30.0408C83.4512 30.0408 83.4401 30.0186 83.4179 30.0186V29.9965Z" fill="#161742"/>
<path d="M73.7105 85L93 40.7093L70.9762 31L51 78.548L73.7105 85Z" fill="#32B353"/>
<path d="M166.377 434.498L97.5938 432.922C97.261 432.922 96.9861 432.583 97.0005 432.193C97.015 431.804 97.2899 431.482 97.6227 431.499L166.406 433.074C166.739 433.074 167.014 433.413 166.999 433.803C166.985 434.193 166.71 434.514 166.377 434.498Z" fill="white"/>
<path d="M206.599 433.498C206.295 433.498 206.048 433.277 206.005 432.986C205.961 432.667 206.208 432.376 206.541 432.335L293.314 422.503C293.647 422.461 293.952 422.697 293.995 423.015C294.039 423.334 293.792 423.625 293.459 423.666L206.686 433.498C206.686 433.498 206.628 433.498 206.599 433.498Z" fill="white"/>
<path d="M64.6588 81.0604C64.3919 81.0604 64.1517 80.8874 64.045 80.6345C63.9116 80.2885 64.085 79.9026 64.4319 79.7828L77.0011 75.0449C77.348 74.9118 77.7349 75.0848 77.855 75.4308C77.9884 75.7769 77.815 76.1628 77.4681 76.2826L64.8989 81.0205C64.8189 81.0471 64.7388 81.0604 64.6454 81.0604H64.6588Z" fill="#161742"/>
<path d="M69.7032 85.6125C69.5163 85.6125 69.3429 85.5326 69.2095 85.3729C68.9693 85.0935 69.0093 84.6676 69.2895 84.4413L77.2553 77.6539C77.5355 77.4143 77.9491 77.4409 78.2027 77.7337C78.4428 78.0132 78.4028 78.4391 78.1226 78.6654L70.1568 85.4528C70.0234 85.5593 69.8633 85.6125 69.7165 85.6125H69.7032Z" fill="#161742"/>
<path d="M56 380.5C56 390.165 48.165 398 38.5 398C28.835 398 21 390.165 21 380.5C21 370.835 28.835 363 38.5 363C48.165 363 56 370.835 56 380.5Z" fill="#E8F6FD"/>
<path d="M0 67.0046C3.24402 68.5733 5.47369 70.9811 6.99522 74C8.51675 70.9811 10.756 68.5641 14 66.9954C10.756 65.4267 8.51675 63.0189 6.99522 60C5.47369 63.0189 3.24402 65.4358 0 67.0046Z" fill="#FFD325"/>
<path d="M24 332.503C26.3172 333.511 27.9098 335.059 28.9966 337C30.0834 335.059 31.6828 333.506 34 332.497C31.6828 331.489 30.0834 329.941 28.9966 328C27.9098 329.941 26.3172 331.494 24 332.503Z" fill="#AF8E2F"/>
<path d="M129.976 447.703C128.966 447.703 128.147 446.822 128.147 445.735V183.783C128.147 182.696 128.966 181.815 129.976 181.815C130.987 181.815 131.806 182.696 131.806 183.783V445.735C131.806 446.822 130.987 447.703 129.976 447.703Z" fill="#161742"/>
<path d="M195.533 447.7C194.545 447.7 193.655 447.062 193.448 446.138L133.479 179.642C133.241 178.582 133.98 177.546 135.136 177.327C136.289 177.108 137.416 177.788 137.654 178.85L197.624 445.346C197.862 446.406 197.122 447.443 195.97 447.661C195.825 447.69 195.678 447.703 195.536 447.703L195.533 447.7Z" fill="#161742"/>
<path d="M70.7427 448C70.6248 448 70.5068 447.987 70.3889 447.958C69.4478 447.739 68.842 446.702 69.0362 445.641L117.989 178.85C118.183 177.789 119.106 177.109 120.044 177.325C120.986 177.544 121.591 178.582 121.397 179.643L72.4445 446.433C72.2734 447.361 71.5497 447.997 70.7427 447.997V448Z" fill="#161742"/>
<path d="M162.249 83H104V97.5743H162.249V83Z" fill="#161742"/>
<path d="M212 96H55V220H212V96Z" fill="#161742"/>
<path d="M210 98H57V218H210V98Z" fill="white"/>
<path d="M204.047 139.324L213.626 137.065C215.219 136.689 216.776 137.983 217.082 139.936C217.401 141.948 216.268 143.843 214.617 144.09L204.92 145.514C203.492 145.726 202.194 144.467 202.017 142.713C201.864 141.101 202.737 139.619 204.047 139.313V139.324Z" fill="#E58F6C"/>
<path d="M205.132 152.174L216.705 150.279C217.956 150.068 218.911 148.808 218.994 147.243V146.926C219.112 144.784 217.578 143.054 215.879 143.384L204.294 145.608C202.902 145.879 201.935 147.432 202.076 149.173C202.23 151.068 203.622 152.444 205.144 152.197L205.132 152.174Z" fill="#E58F6C"/>
<path d="M205.592 154.668C205.509 153.232 206.347 151.985 207.55 151.726L215.206 150.114C216.445 149.855 217.684 150.738 218.073 152.162L218.274 152.868C218.757 154.609 217.778 156.386 216.233 156.563L208.387 157.457C206.96 157.622 205.686 156.339 205.592 154.668Z" fill="#E58F6C"/>
<path d="M207.987 159.54C208.081 158.41 208.766 157.504 209.639 157.339L215.974 156.162C217.012 155.974 217.956 156.88 218.109 158.21L218.203 159.045C218.368 160.504 217.507 161.834 216.363 161.893L209.922 162.234C208.766 162.293 207.845 161.022 207.963 159.54H207.987Z" fill="#E58F6C"/>
<path d="M204.4 146.079C204.223 146.09 204.07 145.973 204.034 145.796C204.011 145.62 204.129 145.443 204.306 145.42L214.546 143.772C214.982 143.713 215.737 143.408 216.067 143.125C216.209 143.007 216.41 143.019 216.539 143.16C216.657 143.302 216.645 143.502 216.504 143.631C216.067 144.008 215.194 144.349 214.652 144.431L204.412 146.079C204.412 146.079 204.4 146.079 204.388 146.079H204.4Z" fill="#161742"/>
<path d="M207.161 152.35C206.984 152.362 206.831 152.245 206.796 152.068C206.772 151.891 206.902 151.715 207.079 151.691L213.213 150.821C213.662 150.75 216.104 150.268 216.717 150.091C216.894 150.044 217.083 150.138 217.13 150.315C217.177 150.491 217.083 150.68 216.906 150.727C216.257 150.915 213.791 151.397 213.32 151.468L207.185 152.339C207.185 152.339 207.185 152.339 207.173 152.339L207.161 152.35Z" fill="#161742"/>
<path d="M209.579 157.822C209.402 157.834 209.237 157.716 209.214 157.539C209.19 157.363 209.32 157.186 209.497 157.163C209.579 157.163 211.502 156.904 212.104 156.845C212.729 156.798 216.481 156.292 217.082 156.116C217.259 156.069 217.448 156.163 217.495 156.339C217.543 156.516 217.448 156.704 217.271 156.751C216.599 156.939 212.765 157.445 212.163 157.504C211.585 157.551 209.615 157.81 209.591 157.81L209.579 157.822Z" fill="#161742"/>
</svg>
