<svg width="287" height="91" viewBox="0 0 287 91" fill="none" xmlns="http://www.w3.org/2000/svg">
<path d="M275.5 3L276.492 7.50828L281 8.5L276.492 9.49172L275.5 14L274.508 9.49172L270 8.5L274.508 7.50828L275.5 3Z" fill="#CCA91E"/>
<path d="M6 79L7.08187 83.9181L12 85L7.08187 86.0819L6 91L4.91813 86.0819L0 85L4.91813 83.9181L6 79Z" fill="#CCA91E"/>
<path d="M284 75L284.541 77.4591L287 78L284.541 78.5409L284 81L283.459 78.5409L281 78L283.459 77.4591L284 75Z" fill="#CCA91E"/>
<path d="M48.283 4.5769L45.2759 8.78685L47.8354 13.283L43.6254 10.2759L39.1292 12.8354L42.1363 8.62541L39.5769 4.12923L43.7868 7.13631L48.283 4.5769Z" fill="#CCA91E"/>
<path d="M235.283 54.5769L232.276 58.7868L234.835 63.283L230.625 60.2759L226.129 62.8354L229.136 58.6254L226.577 54.1292L230.787 57.1363L235.283 54.5769Z" fill="#CCA91E"/>
</svg>
