<svg width="24" height="24" viewBox="0 0 24 24" fill="none" xmlns="http://www.w3.org/2000/svg">
<mask id="mask0_264_14482" style="mask-type:alpha" maskUnits="userSpaceOnUse" x="0" y="0" width="24" height="24">
<rect y="24" width="24" height="24" transform="rotate(-90 0 24)" fill="#D9D9D9"/>
</mask>
<g mask="url(#mask0_264_14482)">
<path d="M14.3785 12.0012C14.3785 12.1088 14.3609 12.2082 14.3257 12.2992C14.2904 12.3902 14.2291 12.4793 14.142 12.5667L9.75348 16.9549C9.65998 17.0486 9.54523 17.0986 9.40923 17.1049C9.2734 17.1114 9.15231 17.0614 9.04598 16.9549C8.93948 16.8486 8.88623 16.7307 8.88623 16.6012C8.88623 16.4717 8.93948 16.3537 9.04598 16.2474L13.292 12.0012L9.04598 7.75491C8.95231 7.66141 8.90231 7.54666 8.89598 7.41066C8.88948 7.27482 8.93948 7.15374 9.04598 7.04741C9.15231 6.94091 9.27023 6.88766 9.39973 6.88766C9.52923 6.88766 9.64715 6.94091 9.75348 7.04741L14.142 11.4357C14.2291 11.523 14.2904 11.6122 14.3257 11.7032C14.3609 11.7942 14.3785 11.8935 14.3785 12.0012Z" fill="#707070"/>
</g>
</svg>
