<svg width="28" height="28" viewBox="0 0 28 28" fill="none" xmlns="http://www.w3.org/2000/svg">
<circle cx="14" cy="14" r="14" fill="#161742"/>
<mask id="mask0_2989_2290" style="mask-type:alpha" maskUnits="userSpaceOnUse" x="2" y="2" width="24" height="24">
<rect x="2" y="2" width="24" height="24" fill="#D9D9D9"/>
</mask>
<g mask="url(#mask0_2989_2290)">
<path d="M5.35382 18.8943C5.24366 18.784 5.19274 18.665 5.20107 18.5375C5.20941 18.41 5.26032 18.2995 5.35382 18.2058L10.1673 13.3365C10.4738 13.0174 10.8527 12.8578 11.3038 12.8578C11.7552 12.8578 12.1404 13.0174 12.4596 13.3365L14.8808 15.7635C14.9962 15.8789 15.1372 15.9365 15.3038 15.9365C15.4705 15.9365 15.618 15.8789 15.7463 15.7635L21.3308 10.248H18.5001C18.3577 10.248 18.2388 10.2003 18.1433 10.1048C18.0478 10.0093 18.0001 9.89038 18.0001 9.74805C18.0001 9.60571 18.0478 9.4868 18.1433 9.3913C18.2388 9.2958 18.3577 9.24805 18.5001 9.24805H22.1923C22.4245 9.24805 22.6172 9.32471 22.7703 9.47805C22.9235 9.63121 23.0001 9.8238 23.0001 10.0558V13.748C23.0001 13.8904 22.9523 14.0093 22.8568 14.1048C22.7613 14.2003 22.6424 14.248 22.5001 14.248C22.3577 14.248 22.2388 14.2035 22.1433 14.1145C22.0478 14.0254 22.0001 13.9096 22.0001 13.7673V10.9558L16.4406 16.5155C16.1341 16.8219 15.7552 16.975 15.3038 16.975C14.8527 16.975 14.4738 16.8219 14.1673 16.5155L11.7463 14.0943C11.6308 13.979 11.4833 13.9213 11.3038 13.9213C11.1243 13.9213 10.9769 13.979 10.8616 14.0943L6.06157 18.8943C5.95524 19.0006 5.83732 19.0538 5.70782 19.0538C5.57832 19.0538 5.46032 19.0006 5.35382 18.8943Z" fill="#5BC275"/>
</g>
</svg>
