<svg width="28" height="28" viewBox="0 0 28 28" fill="none" xmlns="http://www.w3.org/2000/svg">
<rect width="28" height="28" rx="14" fill="#161742"/>
<mask id="mask0_2995_2295" style="mask-type:alpha" maskUnits="userSpaceOnUse" x="2" y="2" width="24" height="24">
<rect width="24" height="24" transform="matrix(1 -8.74228e-08 -8.74228e-08 -1 2 26)" fill="#D9D9D9"/>
</mask>
<g mask="url(#mask0_2995_2295)">
<path d="M5.35382 9.1057C5.24366 9.21604 5.19274 9.33495 5.20107 9.46245C5.20941 9.58995 5.26032 9.70054 5.35382 9.7942L10.1673 14.6635C10.4738 14.9826 10.8527 15.1422 11.3038 15.1422C11.7552 15.1422 12.1404 14.9826 12.4596 14.6635L14.8808 12.2365C14.9962 12.1211 15.1372 12.0635 15.3038 12.0635C15.4705 12.0635 15.618 12.1211 15.7463 12.2365L21.3308 17.752L18.5001 17.752C18.3577 17.752 18.2388 17.7997 18.1433 17.8952C18.0478 17.9907 18.0001 18.1096 18.0001 18.252C18.0001 18.3943 18.0478 18.5132 18.1433 18.6087C18.2388 18.7042 18.3577 18.752 18.5001 18.752L22.1923 18.752C22.4245 18.752 22.6172 18.6753 22.7703 18.522C22.9235 18.3688 23.0001 18.1762 23.0001 17.9442L23.0001 14.252C23.0001 14.1096 22.9523 13.9907 22.8568 13.8952C22.7613 13.7997 22.6424 13.752 22.5001 13.752C22.3577 13.752 22.2388 13.7965 22.1433 13.8855C22.0478 13.9746 22.0001 14.0904 22.0001 14.2327L22.0001 17.0442L16.4406 11.4845C16.1341 11.1781 15.7552 11.025 15.3038 11.025C14.8527 11.025 14.4738 11.1781 14.1673 11.4845L11.7463 13.9057C11.6308 14.021 11.4833 14.0787 11.3038 14.0787C11.1243 14.0787 10.9769 14.021 10.8616 13.9057L6.06157 9.1057C5.95524 8.99937 5.83732 8.9462 5.70782 8.9462C5.57832 8.9462 5.46032 8.99937 5.35382 9.1057Z" fill="#FF919A"/>
</g>
</svg>
