<svg width="128" height="175" viewBox="0 0 128 175" fill="none" xmlns="http://www.w3.org/2000/svg">
<g clip-path="url(#clip0_741_3680)">
<path d="M50.7718 147.398L50.8881 147.157C34.8021 139.59 31.9324 133.259 27.5897 123.676C26.0517 120.282 24.3121 116.443 21.7425 111.983C28.2202 112.482 34.0113 114.348 38.9598 117.533C42.9704 120.114 46.4411 123.562 49.2744 127.781C54.1031 134.972 55.4219 142.005 55.4348 142.075L55.6989 142.026C55.6862 141.956 54.3603 134.877 49.5037 127.641C46.6503 123.39 43.154 119.915 39.1123 117.313C34.0602 114.06 28.138 112.172 21.5103 111.699L21.2571 111.681L21.3837 111.899C24.0162 116.441 25.7847 120.343 27.3453 123.786C31.7122 133.423 34.5975 139.789 50.7725 147.398L50.7718 147.398Z" fill="#1D478E"/>
<path d="M52.0299 144.03L52.2513 143.877C52.1387 143.716 40.9098 127.659 31.4042 119.956L31.2332 120.163C40.7107 127.843 51.9179 143.869 52.0299 144.03Z" fill="#1D478E"/>
<path d="M38.3522 126.884L38.6009 126.782C38.5862 126.747 37.1614 123.217 37.776 119.086L37.5105 119.049C36.8853 123.256 38.3375 126.849 38.3524 126.885L38.3522 126.884Z" fill="#1D478E"/>
<path d="M43.7123 133.119L43.8241 132.877C40.1724 131.236 36.3719 131.717 36.3342 131.722L36.3684 131.986C36.4055 131.98 40.1328 131.511 43.7123 133.119Z" fill="#1D478E"/>
<path d="M44.6965 158.305L44.6295 158.047C39.9064 159.286 35.0914 157.631 29.9103 152.989C25.3201 148.875 21.05 143.03 16.9204 137.377C14.2434 133.712 11.7109 130.246 9.18696 127.367C23.5039 125.759 32.7446 134.036 32.837 134.121L33.0195 133.925C32.9255 133.839 23.4907 125.382 8.9026 127.132L8.6491 127.163L8.81675 127.352C11.3883 130.259 13.9697 133.793 16.7026 137.534C20.84 143.198 25.1185 149.055 29.7295 153.187C34.9829 157.894 39.8787 159.568 44.696 158.305L44.6965 158.305Z" fill="#1D478E"/>
<path d="M43.5485 151.768L43.7413 151.582C43.6014 151.439 29.6624 137.296 21.4006 134.741L21.3191 134.995C24.7058 136.042 29.6211 139.273 35.5347 144.337C40.0094 148.169 43.5133 151.733 43.5485 151.768Z" fill="#1D478E"/>
<path d="M29.3241 139.328L29.5549 139.19C29.5441 139.173 28.4779 137.382 26.4442 132.854L26.199 132.964C28.2407 137.509 29.3133 139.31 29.3241 139.328Z" fill="#1D478E"/>
<path d="M36.2936 144.97L36.3605 144.712C36.317 144.701 31.9434 143.634 26.965 144.296L26.9992 144.56C31.9269 143.904 36.2506 144.959 36.2934 144.969L36.2936 144.97Z" fill="#1D478E"/>
<path d="M15 117.001C15.9269 117.45 16.5639 118.137 16.9986 119C17.4334 118.137 18.0731 117.447 19 116.999C18.0731 116.55 17.4334 115.863 16.9986 115C16.5639 115.863 15.9269 116.553 15 117.001Z" fill="#AF8E2F"/>
</g>
<path d="M74 158.625C74 179.06 57.4345 195.625 37 195.625C16.5655 195.625 0 179.06 0 158.625C0 138.19 16.5655 121.625 37 121.625C57.4345 121.625 74 138.19 74 158.625Z" fill="#5BC4F0" fill-opacity="0.1"/>
<g clip-path="url(#clip1_741_3680)">
<path d="M50.8769 169C60.5507 169 68.3929 166.182 68.3929 162.705C68.3929 159.228 60.5507 156.41 50.8769 156.41C41.203 156.41 33.3608 159.228 33.3608 162.705C33.3608 166.182 41.203 169 50.8769 169Z" fill="#5BC4F0" fill-opacity="0.3"/>
<path d="M83.9965 169C93.6703 169 101.513 166.182 101.513 162.705C101.513 159.228 93.6703 156.41 83.9965 156.41C74.3227 156.41 66.4805 159.228 66.4805 162.705C66.4805 166.182 74.3227 169 83.9965 169Z" fill="#5BC4F0" fill-opacity="0.3"/>
<path d="M113.516 168.59C123.19 168.59 131.032 165.772 131.032 162.295C131.032 158.818 123.19 156 113.516 156C103.842 156 96 158.818 96 162.295C96 165.772 103.842 168.59 113.516 168.59Z" fill="#5BC4F0" fill-opacity="0.3"/>
<path d="M73.0474 161.142C73.0474 163.804 76.379 166.091 81.1579 167.114V155.171C76.379 156.194 73.0474 158.48 73.0474 161.142Z" fill="#AF8E2F"/>
<path d="M84.8022 154.675V167.609C85.3876 167.649 85.9809 167.677 86.5823 167.681V154.607C85.9769 154.611 85.3836 154.639 84.8022 154.679V154.675Z" fill="#AF8E2F"/>
<path d="M100.462 158.472H73.0474V161.678H100.462V158.472Z" fill="#AF8E2F"/>
<path d="M100.462 161.142C100.462 158.98 98.2608 157.061 94.873 155.874V166.414C98.2608 165.223 100.462 163.308 100.462 161.146V161.142Z" fill="#AF8E2F"/>
<path d="M81.1621 155.171V167.114C82.3007 167.358 83.5275 167.521 84.8024 167.609V154.675C83.5235 154.763 82.3007 154.927 81.1621 155.171Z" fill="#D6B11E"/>
<path d="M86.7549 154.599C86.6988 154.599 86.6427 154.599 86.5825 154.599V167.673C86.6386 167.673 86.6948 167.673 86.7549 167.673C89.7939 167.673 92.6003 167.202 94.8735 166.402V155.862C92.6003 155.063 89.7939 154.591 86.7549 154.591V154.599Z" fill="#D6B11E"/>
<path d="M86.7547 165.739C94.325 165.739 100.462 162.809 100.462 159.196C100.462 155.582 94.325 152.653 86.7547 152.653C79.1843 152.653 73.0474 155.582 73.0474 159.196C73.0474 162.809 79.1843 165.739 86.7547 165.739Z" fill="#AF8E2F"/>
<path d="M86.7547 165.251C94.325 165.251 100.462 162.322 100.462 158.708C100.462 155.094 94.325 152.165 86.7547 152.165C79.1843 152.165 73.0474 155.094 73.0474 158.708C73.0474 162.322 79.1843 165.251 86.7547 165.251Z" fill="#FFD840"/>
<path d="M86.7549 163.744C92.7753 163.744 97.6558 161.489 97.6558 158.708C97.6558 155.927 92.7753 153.672 86.7549 153.672C80.7345 153.672 75.854 155.927 75.854 158.708C75.854 161.489 80.7345 163.744 86.7549 163.744Z" fill="#FFD325"/>
<path d="M83.6234 159.163L81.9155 158.26L83.2506 157.569L84.9585 158.472C85.7643 158.896 87.0874 158.896 87.9092 158.472C88.7311 158.044 88.7471 157.353 87.9413 156.929L86.1572 155.986L87.4923 155.294L89.2763 156.238C90.7998 157.045 90.7718 158.356 89.2162 159.163C87.6566 159.971 85.1509 159.971 83.6234 159.163Z" fill="#AF8E2F"/>
<path d="M90.074 160.315L83.9961 157.101L85.3311 156.41L91.405 159.623L90.074 160.315Z" fill="#AF8E2F"/>
<path d="M92.2312 159.196L86.1533 155.982L87.4884 155.291L93.5663 158.504L92.2312 159.196Z" fill="#AF8E2F"/>
<path d="M83.1864 162.125L83.7838 158.336L81.9236 158.264L81.4585 161.21L83.1864 162.125Z" fill="#AF8E2F"/>
<path d="M73.0474 157.089C73.0474 159.751 76.379 162.037 81.1579 163.061V151.118C76.379 152.141 73.0474 154.427 73.0474 157.089Z" fill="#AF8E2F"/>
<path d="M84.8022 150.622V163.556C85.3876 163.596 85.9809 163.624 86.5823 163.628V150.554C85.9769 150.558 85.3836 150.586 84.8022 150.626V150.622Z" fill="#AF8E2F"/>
<path d="M100.462 154.419H73.0474V157.624H100.462V154.419Z" fill="#AF8E2F"/>
<path d="M100.462 157.089C100.462 154.926 98.2608 153.008 94.873 151.821V162.361C98.2608 161.17 100.462 159.255 100.462 157.093V157.089Z" fill="#AF8E2F"/>
<path d="M81.1621 151.118V163.061C82.3007 163.304 83.5275 163.468 84.8024 163.556V150.622C83.5235 150.71 82.3007 150.874 81.1621 151.118Z" fill="#D6B11E"/>
<path d="M86.7549 150.546C86.6988 150.546 86.6427 150.546 86.5825 150.546V163.62C86.6386 163.62 86.6948 163.62 86.7549 163.62C89.7939 163.62 92.6003 163.148 94.8735 162.349V151.809C92.6003 151.01 89.7939 150.538 86.7549 150.538V150.546Z" fill="#D6B11E"/>
<path d="M86.7547 161.686C94.325 161.686 100.462 158.756 100.462 155.143C100.462 151.529 94.325 148.6 86.7547 148.6C79.1843 148.6 73.0474 151.529 73.0474 155.143C73.0474 158.756 79.1843 161.686 86.7547 161.686Z" fill="#AF8E2F"/>
<path d="M86.7547 161.198C94.325 161.198 100.462 158.268 100.462 154.655C100.462 151.041 94.325 148.112 86.7547 148.112C79.1843 148.112 73.0474 151.041 73.0474 154.655C73.0474 158.268 79.1843 161.198 86.7547 161.198Z" fill="#FFD840"/>
<path d="M86.7549 159.691C92.7753 159.691 97.6558 157.436 97.6558 154.655C97.6558 151.873 92.7753 149.619 86.7549 149.619C80.7345 149.619 75.854 151.873 75.854 154.655C75.854 157.436 80.7345 159.691 86.7549 159.691Z" fill="#FFD325"/>
<path d="M83.6234 155.11L81.9155 154.207L83.2506 153.515L84.9585 154.419C85.7643 154.842 87.0874 154.842 87.9092 154.419C88.7311 153.991 88.7471 153.3 87.9413 152.876L86.1572 151.933L87.4923 151.241L89.2763 152.184C90.7998 152.992 90.7718 154.303 89.2162 155.11C87.6566 155.918 85.1509 155.918 83.6234 155.11Z" fill="#AF8E2F"/>
<path d="M90.074 156.261L83.9961 153.048L85.3311 152.356L91.405 155.57L90.074 156.261Z" fill="#AF8E2F"/>
<path d="M92.2312 155.142L86.1533 151.929L87.4884 151.237L93.5663 154.451L92.2312 155.142Z" fill="#AF8E2F"/>
<path d="M83.1864 158.072L83.7838 154.283L81.9236 154.211L81.4585 157.157L83.1864 158.072Z" fill="#AF8E2F"/>
<path d="M73.0474 153.036C73.0474 155.698 76.379 157.985 81.1579 159.008V147.065C76.379 148.088 73.0474 150.374 73.0474 153.036Z" fill="#AF8E2F"/>
<path d="M84.8022 146.569V159.503C85.3876 159.543 85.9809 159.571 86.5823 159.575V146.501C85.9769 146.505 85.3836 146.533 84.8022 146.573V146.569Z" fill="#AF8E2F"/>
<path d="M100.462 150.366H73.0474V153.572H100.462V150.366Z" fill="#AF8E2F"/>
<path d="M100.462 153.036C100.462 150.874 98.2608 148.955 94.873 147.764V158.304C98.2608 157.113 100.462 155.198 100.462 153.036Z" fill="#AF8E2F"/>
<path d="M81.1621 147.065V159.008C82.3007 159.252 83.5275 159.416 84.8024 159.503V146.569C83.5235 146.657 82.3007 146.821 81.1621 147.065Z" fill="#D6B11E"/>
<path d="M86.7549 146.493C86.6988 146.493 86.6427 146.493 86.5825 146.493V159.567C86.6386 159.567 86.6948 159.567 86.7549 159.567C89.7939 159.567 92.6003 159.096 94.8735 158.296V147.756C92.6003 146.957 89.7939 146.485 86.7549 146.485V146.493Z" fill="#D6B11E"/>
<path d="M86.7547 157.633C94.325 157.633 100.462 154.703 100.462 151.09C100.462 147.476 94.325 144.547 86.7547 144.547C79.1843 144.547 73.0474 147.476 73.0474 151.09C73.0474 154.703 79.1843 157.633 86.7547 157.633Z" fill="#AF8E2F"/>
<path d="M86.7547 157.145C94.325 157.145 100.462 154.216 100.462 150.602C100.462 146.988 94.325 144.059 86.7547 144.059C79.1843 144.059 73.0474 146.988 73.0474 150.602C73.0474 154.216 79.1843 157.145 86.7547 157.145Z" fill="#FFD840"/>
<path d="M86.7549 155.638C92.7753 155.638 97.6558 153.383 97.6558 150.602C97.6558 147.821 92.7753 145.566 86.7549 145.566C80.7345 145.566 75.854 147.821 75.854 150.602C75.854 153.383 80.7345 155.638 86.7549 155.638Z" fill="#FFD325"/>
<path d="M83.6234 151.058L81.9155 150.154L83.2506 149.463L84.9585 150.366C85.7643 150.79 87.0874 150.79 87.9092 150.366C88.7311 149.938 88.7471 149.247 87.9413 148.823L86.1572 147.88L87.4923 147.188L89.2763 148.132C90.7998 148.939 90.7718 150.25 89.2162 151.058C87.6566 151.865 85.1509 151.865 83.6234 151.058Z" fill="#AF8E2F"/>
<path d="M90.074 152.209L83.9961 148.995L85.3311 148.304L91.405 151.517L90.074 152.209Z" fill="#AF8E2F"/>
<path d="M92.2312 151.09L86.1533 147.876L87.4884 147.185L93.5663 150.398L92.2312 151.09Z" fill="#AF8E2F"/>
<path d="M83.1864 154.019L83.7838 150.23L81.9236 150.158L81.4585 153.104L83.1864 154.019Z" fill="#AF8E2F"/>
<path d="M73.0474 148.984C73.0474 151.646 76.379 153.932 81.1579 154.955V143.012C76.379 144.035 73.0474 146.322 73.0474 148.984Z" fill="#AF8E2F"/>
<path d="M84.8022 142.516V155.45C85.3876 155.49 85.9809 155.518 86.5823 155.522V142.448C85.9769 142.452 85.3836 142.48 84.8022 142.52V142.516Z" fill="#AF8E2F"/>
<path d="M100.462 146.313H73.0474V149.519H100.462V146.313Z" fill="#AF8E2F"/>
<path d="M100.462 148.983C100.462 146.821 98.2608 144.902 94.873 143.715V154.255C98.2608 153.064 100.462 151.15 100.462 148.987V148.983Z" fill="#AF8E2F"/>
<path d="M81.1621 143.012V154.955C82.3007 155.199 83.5275 155.363 84.8024 155.451V142.517C83.5235 142.605 82.3007 142.768 81.1621 143.012Z" fill="#D6B11E"/>
<path d="M86.7549 142.441C86.6988 142.441 86.6427 142.441 86.5825 142.441V155.515C86.6386 155.515 86.6948 155.515 86.7549 155.515C89.7939 155.515 92.6003 155.043 94.8735 154.244V143.704C92.6003 142.904 89.7939 142.433 86.7549 142.433V142.441Z" fill="#D6B11E"/>
<path d="M86.7547 153.58C94.325 153.58 100.462 150.651 100.462 147.037C100.462 143.424 94.325 140.494 86.7547 140.494C79.1843 140.494 73.0474 143.424 73.0474 147.037C73.0474 150.651 79.1843 153.58 86.7547 153.58Z" fill="#AF8E2F"/>
<path d="M86.7547 153.092C94.325 153.092 100.462 150.163 100.462 146.549C100.462 142.936 94.325 140.006 86.7547 140.006C79.1843 140.006 73.0474 142.936 73.0474 146.549C73.0474 150.163 79.1843 153.092 86.7547 153.092Z" fill="#FFD840"/>
<path d="M86.7549 151.585C92.7753 151.585 97.6558 149.331 97.6558 146.549C97.6558 143.768 92.7753 141.513 86.7549 141.513C80.7345 141.513 75.854 143.768 75.854 146.549C75.854 149.331 80.7345 151.585 86.7549 151.585Z" fill="#FFD325"/>
<path d="M83.6234 147.005L81.9155 146.101L83.2506 145.41L84.9585 146.313C85.7643 146.737 87.0874 146.737 87.9092 146.313C88.7311 145.886 88.7471 145.194 87.9413 144.77L86.1572 143.827L87.4923 143.136L89.2763 144.079C90.7998 144.886 90.7718 146.197 89.2162 147.005C87.6566 147.812 85.1509 147.812 83.6234 147.005Z" fill="#AF8E2F"/>
<path d="M90.074 148.156L83.9961 144.942L85.3311 144.251L91.405 147.465L90.074 148.156Z" fill="#AF8E2F"/>
<path d="M92.2312 147.037L86.1533 143.823L87.4884 143.132L93.5663 146.345L92.2312 147.037Z" fill="#AF8E2F"/>
<path d="M83.1864 149.967L83.7838 146.173L81.9236 146.105L81.4585 149.051L83.1864 149.967Z" fill="#AF8E2F"/>
<path d="M73.0474 144.93C73.0474 147.592 76.379 149.879 81.1579 150.902V138.959C76.379 139.982 73.0474 142.268 73.0474 144.93Z" fill="#AF8E2F"/>
<path d="M84.8022 138.463V151.398C85.3876 151.438 85.9809 151.465 86.5823 151.469V138.396C85.9769 138.4 85.3836 138.427 84.8022 138.467V138.463Z" fill="#AF8E2F"/>
<path d="M100.462 142.26H73.0474V145.466H100.462V142.26Z" fill="#AF8E2F"/>
<path d="M100.462 144.93C100.462 142.768 98.2608 140.849 94.873 139.662V150.202C98.2608 149.011 100.462 147.096 100.462 144.934V144.93Z" fill="#AF8E2F"/>
<path d="M81.1621 138.959V150.902C82.3007 151.146 83.5275 151.31 84.8024 151.397V138.463C83.5235 138.551 82.3007 138.715 81.1621 138.959Z" fill="#D6B11E"/>
<path d="M86.7549 138.387C86.6988 138.387 86.6427 138.387 86.5825 138.387V151.461C86.6386 151.461 86.6948 151.461 86.7549 151.461C89.7939 151.461 92.6003 150.99 94.8735 150.19V139.65C92.6003 138.851 89.7939 138.379 86.7549 138.379V138.387Z" fill="#D6B11E"/>
<path d="M86.7547 149.527C94.325 149.527 100.462 146.597 100.462 142.984C100.462 139.37 94.325 136.441 86.7547 136.441C79.1843 136.441 73.0474 139.37 73.0474 142.984C73.0474 146.597 79.1843 149.527 86.7547 149.527Z" fill="#AF8E2F"/>
<path d="M86.7547 149.039C94.325 149.039 100.462 146.11 100.462 142.496C100.462 138.883 94.325 135.953 86.7547 135.953C79.1843 135.953 73.0474 138.883 73.0474 142.496C73.0474 146.11 79.1843 149.039 86.7547 149.039Z" fill="#FFD840"/>
<path d="M86.7549 147.532C92.7753 147.532 97.6558 145.277 97.6558 142.496C97.6558 139.715 92.7753 137.46 86.7549 137.46C80.7345 137.46 75.854 139.715 75.854 142.496C75.854 145.277 80.7345 147.532 86.7549 147.532Z" fill="#FFD325"/>
<path d="M83.6234 142.952L81.9155 142.048L83.2506 141.357L84.9585 142.26C85.7643 142.684 87.0874 142.684 87.9092 142.26C88.7311 141.836 88.7471 141.141 87.9413 140.717L86.1572 139.774L87.4923 139.083L89.2763 140.026C90.7998 140.833 90.7718 142.144 89.2162 142.952C87.6566 143.759 85.1509 143.759 83.6234 142.952Z" fill="#AF8E2F"/>
<path d="M90.074 144.103L83.9961 140.889L85.3311 140.198L91.405 143.411L90.074 144.103Z" fill="#AF8E2F"/>
<path d="M92.2312 142.984L86.1533 139.77L87.4884 139.079L93.5663 142.292L92.2312 142.984Z" fill="#AF8E2F"/>
<path d="M83.1864 145.909L83.7838 142.12L81.9236 142.052L81.4585 144.998L83.1864 145.909Z" fill="#AF8E2F"/>
<path d="M40.9463 161.142C40.9463 163.804 44.2779 166.091 49.0568 167.114V155.171C44.2779 156.194 40.9463 158.48 40.9463 161.142Z" fill="#AF8E2F"/>
<path d="M52.6973 154.675V167.609C53.2826 167.649 53.876 167.677 54.4773 167.681V154.607C53.872 154.611 53.2786 154.639 52.6973 154.679V154.675Z" fill="#AF8E2F"/>
<path d="M68.361 158.472H40.9463V161.678H68.361V158.472Z" fill="#AF8E2F"/>
<path d="M68.3607 161.142C68.3607 158.98 66.1597 157.061 62.772 155.874V166.414C66.1597 165.223 68.3607 163.308 68.3607 161.146V161.142Z" fill="#AF8E2F"/>
<path d="M49.0566 155.171V167.114C50.1952 167.358 51.422 167.521 52.697 167.609V154.675C51.418 154.763 50.1952 154.927 49.0566 155.171Z" fill="#D6B11E"/>
<path d="M54.6538 154.599C54.5977 154.599 54.5416 154.599 54.4814 154.599V167.673C54.5376 167.673 54.5937 167.673 54.6538 167.673C57.6928 167.673 60.4992 167.202 62.7724 166.402V155.862C60.4992 155.063 57.6928 154.591 54.6538 154.591V154.599Z" fill="#D6B11E"/>
<path d="M54.6536 165.739C62.224 165.739 68.361 162.809 68.361 159.196C68.361 155.582 62.224 152.653 54.6536 152.653C47.0833 152.653 40.9463 155.582 40.9463 159.196C40.9463 162.809 47.0833 165.739 54.6536 165.739Z" fill="#AF8E2F"/>
<path d="M54.6536 165.251C62.224 165.251 68.361 162.322 68.361 158.708C68.361 155.094 62.224 152.165 54.6536 152.165C47.0833 152.165 40.9463 155.094 40.9463 158.708C40.9463 162.322 47.0833 165.251 54.6536 165.251Z" fill="#FFD840"/>
<path d="M54.6538 163.744C60.6743 163.744 65.5548 161.489 65.5548 158.708C65.5548 155.927 60.6743 153.672 54.6538 153.672C48.6334 153.672 43.7529 155.927 43.7529 158.708C43.7529 161.489 48.6334 163.744 54.6538 163.744Z" fill="#FFD325"/>
<path d="M51.5185 159.163L49.8105 158.26L51.1456 157.569L52.8535 158.472C53.6593 158.896 54.9824 158.896 55.8042 158.472C56.6261 158.044 56.6422 157.353 55.8363 156.929L54.0522 155.986L55.3873 155.294L57.1714 156.238C58.6949 157.045 58.6668 158.356 57.1112 159.163C55.5517 159.971 53.0459 159.971 51.5185 159.163Z" fill="#AF8E2F"/>
<path d="M57.969 160.315L51.8911 157.101L53.2262 156.41L59.3041 159.623L57.969 160.315Z" fill="#AF8E2F"/>
<path d="M60.1301 159.196L54.0522 155.982L55.3873 155.291L61.4612 158.504L60.1301 159.196Z" fill="#AF8E2F"/>
<path d="M51.0854 162.125L51.6787 158.336L49.8185 158.264L49.3574 161.21L51.0854 162.125Z" fill="#AF8E2F"/>
<path d="M40.9463 157.089C40.9463 159.751 44.2779 162.037 49.0568 163.061V151.118C44.2779 152.141 40.9463 154.427 40.9463 157.089Z" fill="#AF8E2F"/>
<path d="M52.6973 150.622V163.556C53.2826 163.596 53.876 163.624 54.4773 163.628V150.554C53.872 150.558 53.2786 150.586 52.6973 150.626V150.622Z" fill="#AF8E2F"/>
<path d="M68.361 154.419H40.9463V157.624H68.361V154.419Z" fill="#AF8E2F"/>
<path d="M68.3607 157.089C68.3607 154.926 66.1597 153.008 62.772 151.821V162.361C66.1597 161.17 68.3607 159.255 68.3607 157.093V157.089Z" fill="#AF8E2F"/>
<path d="M49.0566 151.118V163.061C50.1952 163.304 51.422 163.468 52.697 163.556V150.622C51.418 150.71 50.1952 150.874 49.0566 151.118Z" fill="#D6B11E"/>
<path d="M54.6538 150.546C54.5977 150.546 54.5416 150.546 54.4814 150.546V163.62C54.5376 163.62 54.5937 163.62 54.6538 163.62C57.6928 163.62 60.4992 163.148 62.7724 162.349V151.809C60.4992 151.01 57.6928 150.538 54.6538 150.538V150.546Z" fill="#D6B11E"/>
<path d="M54.6536 161.686C62.224 161.686 68.361 158.756 68.361 155.143C68.361 151.529 62.224 148.6 54.6536 148.6C47.0833 148.6 40.9463 151.529 40.9463 155.143C40.9463 158.756 47.0833 161.686 54.6536 161.686Z" fill="#AF8E2F"/>
<path d="M54.6536 161.198C62.224 161.198 68.361 158.268 68.361 154.655C68.361 151.041 62.224 148.112 54.6536 148.112C47.0833 148.112 40.9463 151.041 40.9463 154.655C40.9463 158.268 47.0833 161.198 54.6536 161.198Z" fill="#FFD840"/>
<path d="M54.6538 159.691C60.6743 159.691 65.5548 157.436 65.5548 154.655C65.5548 151.873 60.6743 149.619 54.6538 149.619C48.6334 149.619 43.7529 151.873 43.7529 154.655C43.7529 157.436 48.6334 159.691 54.6538 159.691Z" fill="#FFD325"/>
<path d="M51.5185 155.11L49.8105 154.207L51.1456 153.515L52.8535 154.419C53.6593 154.842 54.9824 154.842 55.8042 154.419C56.6261 153.991 56.6422 153.3 55.8363 152.876L54.0522 151.933L55.3873 151.241L57.1714 152.184C58.6949 152.992 58.6668 154.303 57.1112 155.11C55.5517 155.918 53.0459 155.918 51.5185 155.11Z" fill="#AF8E2F"/>
<path d="M57.969 156.261L51.8911 153.048L53.2262 152.356L59.3041 155.57L57.969 156.261Z" fill="#AF8E2F"/>
<path d="M60.1301 155.142L54.0522 151.929L55.3873 151.237L61.4612 154.451L60.1301 155.142Z" fill="#AF8E2F"/>
<path d="M51.0854 158.072L51.6787 154.283L49.8185 154.211L49.3574 157.157L51.0854 158.072Z" fill="#AF8E2F"/>
<path d="M105.081 161.142C105.081 163.804 108.412 166.091 113.191 167.114V155.171C108.412 156.194 105.081 158.48 105.081 161.142Z" fill="#AF8E2F"/>
<path d="M116.835 154.675V167.609C117.421 167.649 118.014 167.677 118.616 167.681V154.607C118.01 154.611 117.417 154.639 116.835 154.679V154.675Z" fill="#AF8E2F"/>
<path d="M132.495 158.472H105.081V161.678H132.495V158.472Z" fill="#AF8E2F"/>
<path d="M132.499 161.142C132.499 158.98 130.298 157.061 126.911 155.874V166.414C130.298 165.223 132.499 163.308 132.499 161.146V161.142Z" fill="#AF8E2F"/>
<path d="M113.195 155.171V167.114C114.334 167.358 115.561 167.521 116.836 167.609V154.675C115.557 154.763 114.334 154.927 113.195 155.171Z" fill="#D6B11E"/>
<path d="M118.792 154.599C118.736 154.599 118.68 154.599 118.62 154.599V167.673C118.676 167.673 118.732 167.673 118.792 167.673C121.831 167.673 124.637 167.202 126.911 166.402V155.862C124.637 155.063 121.831 154.591 118.792 154.591V154.599Z" fill="#D6B11E"/>
<path d="M118.792 165.739C126.362 165.739 132.499 162.809 132.499 159.196C132.499 155.582 126.362 152.653 118.792 152.653C111.221 152.653 105.084 155.582 105.084 159.196C105.084 162.809 111.221 165.739 118.792 165.739Z" fill="#AF8E2F"/>
<path d="M118.792 165.251C126.362 165.251 132.499 162.322 132.499 158.708C132.499 155.094 126.362 152.165 118.792 152.165C111.221 152.165 105.084 155.094 105.084 158.708C105.084 162.322 111.221 165.251 118.792 165.251Z" fill="#FFD840"/>
<path d="M118.792 163.744C124.812 163.744 129.693 161.489 129.693 158.708C129.693 155.927 124.812 153.672 118.792 153.672C112.772 153.672 107.891 155.927 107.891 158.708C107.891 161.489 112.772 163.744 118.792 163.744Z" fill="#FFD325"/>
<path d="M115.657 159.163L113.949 158.26L115.284 157.569L116.992 158.472C117.798 158.896 119.121 158.896 119.942 158.472C120.764 158.044 120.78 157.353 119.975 156.929L118.19 155.986L119.525 155.294L121.31 156.238C122.833 157.045 122.805 158.356 121.249 159.163C119.694 159.971 117.184 159.971 115.657 159.163Z" fill="#AF8E2F"/>
<path d="M122.107 160.315L116.029 157.101L117.364 156.41L123.442 159.623L122.107 160.315Z" fill="#AF8E2F"/>
<path d="M124.264 159.196L118.187 155.982L119.522 155.291L125.599 158.504L124.264 159.196Z" fill="#AF8E2F"/>
<path d="M115.224 162.125L115.817 158.336L113.957 158.264L113.492 161.21L115.224 162.125Z" fill="#AF8E2F"/>
<path d="M105.081 157.089C105.081 159.751 108.412 162.037 113.191 163.061V151.118C108.412 152.141 105.081 154.427 105.081 157.089Z" fill="#AF8E2F"/>
<path d="M116.835 150.622V163.556C117.421 163.596 118.014 163.624 118.616 163.628V150.554C118.01 150.558 117.417 150.586 116.835 150.626V150.622Z" fill="#AF8E2F"/>
<path d="M132.495 154.419H105.081V157.624H132.495V154.419Z" fill="#AF8E2F"/>
<path d="M132.499 157.089C132.499 154.926 130.298 153.008 126.911 151.821V162.361C130.298 161.17 132.499 159.255 132.499 157.093V157.089Z" fill="#AF8E2F"/>
<path d="M113.195 151.118V163.061C114.334 163.304 115.561 163.468 116.836 163.556V150.622C115.557 150.71 114.334 150.874 113.195 151.118Z" fill="#D6B11E"/>
<path d="M118.792 150.546C118.736 150.546 118.68 150.546 118.62 150.546V163.62C118.676 163.62 118.732 163.62 118.792 163.62C121.831 163.62 124.637 163.148 126.911 162.349V151.809C124.637 151.01 121.831 150.538 118.792 150.538V150.546Z" fill="#D6B11E"/>
<path d="M118.792 161.686C126.362 161.686 132.499 158.756 132.499 155.143C132.499 151.529 126.362 148.6 118.792 148.6C111.221 148.6 105.084 151.529 105.084 155.143C105.084 158.756 111.221 161.686 118.792 161.686Z" fill="#AF8E2F"/>
<path d="M118.792 161.198C126.362 161.198 132.499 158.268 132.499 154.655C132.499 151.041 126.362 148.112 118.792 148.112C111.221 148.112 105.084 151.041 105.084 154.655C105.084 158.268 111.221 161.198 118.792 161.198Z" fill="#FFD840"/>
<path d="M118.792 159.691C124.812 159.691 129.693 157.436 129.693 154.655C129.693 151.873 124.812 149.619 118.792 149.619C112.772 149.619 107.891 151.873 107.891 154.655C107.891 157.436 112.772 159.691 118.792 159.691Z" fill="#FFD325"/>
<path d="M115.657 155.11L113.949 154.207L115.284 153.515L116.992 154.419C117.798 154.842 119.121 154.842 119.942 154.419C120.764 153.991 120.78 153.3 119.975 152.876L118.19 151.933L119.525 151.241L121.31 152.184C122.833 152.992 122.805 154.303 121.249 155.11C119.694 155.918 117.184 155.918 115.657 155.11Z" fill="#AF8E2F"/>
<path d="M122.107 156.261L116.029 153.048L117.364 152.356L123.442 155.57L122.107 156.261Z" fill="#AF8E2F"/>
<path d="M124.264 155.142L118.187 151.929L119.522 151.237L125.599 154.451L124.264 155.142Z" fill="#AF8E2F"/>
<path d="M115.224 158.072L115.817 154.283L113.957 154.211L113.492 157.157L115.224 158.072Z" fill="#AF8E2F"/>
<path d="M40.9463 153.036C40.9463 155.698 44.2779 157.985 49.0568 159.008V147.065C44.2779 148.088 40.9463 150.374 40.9463 153.036Z" fill="#AF8E2F"/>
<path d="M52.6973 146.569V159.503C53.2826 159.543 53.876 159.571 54.4773 159.575V146.501C53.872 146.505 53.2786 146.533 52.6973 146.573V146.569Z" fill="#AF8E2F"/>
<path d="M68.361 150.366H40.9463V153.572H68.361V150.366Z" fill="#AF8E2F"/>
<path d="M68.3607 153.036C68.3607 150.874 66.1597 148.955 62.772 147.764V158.304C66.1597 157.113 68.3607 155.198 68.3607 153.036Z" fill="#AF8E2F"/>
<path d="M49.0566 147.065V159.008C50.1952 159.252 51.422 159.416 52.697 159.503V146.569C51.418 146.657 50.1952 146.821 49.0566 147.065Z" fill="#D6B11E"/>
<path d="M54.6538 146.493C54.5977 146.493 54.5416 146.493 54.4814 146.493V159.567C54.5376 159.567 54.5937 159.567 54.6538 159.567C57.6928 159.567 60.4992 159.096 62.7724 158.296V147.756C60.4992 146.957 57.6928 146.485 54.6538 146.485V146.493Z" fill="#D6B11E"/>
<path d="M54.6536 157.633C62.224 157.633 68.361 154.703 68.361 151.09C68.361 147.476 62.224 144.547 54.6536 144.547C47.0833 144.547 40.9463 147.476 40.9463 151.09C40.9463 154.703 47.0833 157.633 54.6536 157.633Z" fill="#AF8E2F"/>
<path d="M54.6536 157.145C62.224 157.145 68.361 154.216 68.361 150.602C68.361 146.988 62.224 144.059 54.6536 144.059C47.0833 144.059 40.9463 146.988 40.9463 150.602C40.9463 154.216 47.0833 157.145 54.6536 157.145Z" fill="#FFD840"/>
<path d="M54.6538 155.638C60.6743 155.638 65.5548 153.383 65.5548 150.602C65.5548 147.821 60.6743 145.566 54.6538 145.566C48.6334 145.566 43.7529 147.821 43.7529 150.602C43.7529 153.383 48.6334 155.638 54.6538 155.638Z" fill="#FFD325"/>
<path d="M51.5185 151.058L49.8105 150.154L51.1456 149.463L52.8535 150.366C53.6593 150.79 54.9824 150.79 55.8042 150.366C56.6261 149.938 56.6422 149.247 55.8363 148.823L54.0522 147.88L55.3873 147.188L57.1714 148.132C58.6949 148.939 58.6668 150.25 57.1112 151.058C55.5517 151.865 53.0459 151.865 51.5185 151.058Z" fill="#AF8E2F"/>
<path d="M57.969 152.209L51.8911 148.995L53.2262 148.304L59.3041 151.517L57.969 152.209Z" fill="#AF8E2F"/>
<path d="M60.1301 151.09L54.0522 147.876L55.3873 147.185L61.4612 150.398L60.1301 151.09Z" fill="#AF8E2F"/>
<path d="M51.0854 154.019L51.6787 150.23L49.8185 150.158L49.3574 153.104L51.0854 154.019Z" fill="#AF8E2F"/>
<path d="M40.9463 148.984C40.9463 151.646 44.2779 153.932 49.0568 154.955V143.012C44.2779 144.035 40.9463 146.322 40.9463 148.984Z" fill="#AF8E2F"/>
<path d="M52.6973 142.516V155.45C53.2826 155.49 53.876 155.518 54.4773 155.522V142.448C53.872 142.452 53.2786 142.48 52.6973 142.52V142.516Z" fill="#AF8E2F"/>
<path d="M68.361 146.313H40.9463V149.519H68.361V146.313Z" fill="#AF8E2F"/>
<path d="M68.3607 148.983C68.3607 146.821 66.1597 144.902 62.772 143.715V154.255C66.1597 153.064 68.3607 151.15 68.3607 148.987V148.983Z" fill="#AF8E2F"/>
<path d="M49.0566 143.012V154.955C50.1952 155.199 51.422 155.363 52.697 155.451V142.517C51.418 142.605 50.1952 142.768 49.0566 143.012Z" fill="#D6B11E"/>
<path d="M54.6538 142.441C54.5977 142.441 54.5416 142.441 54.4814 142.441V155.515C54.5376 155.515 54.5937 155.515 54.6538 155.515C57.6928 155.515 60.4992 155.043 62.7724 154.244V143.704C60.4992 142.904 57.6928 142.433 54.6538 142.433V142.441Z" fill="#D6B11E"/>
<path d="M54.6536 153.58C62.224 153.58 68.361 150.651 68.361 147.037C68.361 143.424 62.224 140.494 54.6536 140.494C47.0833 140.494 40.9463 143.424 40.9463 147.037C40.9463 150.651 47.0833 153.58 54.6536 153.58Z" fill="#AF8E2F"/>
<path d="M54.6536 153.092C62.224 153.092 68.361 150.163 68.361 146.549C68.361 142.936 62.224 140.006 54.6536 140.006C47.0833 140.006 40.9463 142.936 40.9463 146.549C40.9463 150.163 47.0833 153.092 54.6536 153.092Z" fill="#FFD840"/>
<path d="M54.6538 151.585C60.6743 151.585 65.5548 149.331 65.5548 146.549C65.5548 143.768 60.6743 141.513 54.6538 141.513C48.6334 141.513 43.7529 143.768 43.7529 146.549C43.7529 149.331 48.6334 151.585 54.6538 151.585Z" fill="#FFD325"/>
<path d="M51.5185 147.005L49.8105 146.101L51.1456 145.41L52.8535 146.313C53.6593 146.737 54.9824 146.737 55.8042 146.313C56.6261 145.886 56.6422 145.194 55.8363 144.77L54.0522 143.827L55.3873 143.136L57.1714 144.079C58.6949 144.886 58.6668 146.197 57.1112 147.005C55.5517 147.812 53.0459 147.812 51.5185 147.005Z" fill="#AF8E2F"/>
<path d="M57.969 148.156L51.8911 144.942L53.2262 144.251L59.3041 147.465L57.969 148.156Z" fill="#AF8E2F"/>
<path d="M60.1301 147.037L54.0522 143.823L55.3873 143.132L61.4612 146.345L60.1301 147.037Z" fill="#AF8E2F"/>
<path d="M51.0854 149.967L51.6787 146.173L49.8185 146.105L49.3574 149.051L51.0854 149.967Z" fill="#AF8E2F"/>
<path d="M40.9463 144.93C40.9463 147.592 44.2779 149.879 49.0568 150.902V138.959C44.2779 139.982 40.9463 142.268 40.9463 144.93Z" fill="#AF8E2F"/>
<path d="M52.6973 138.463V151.398C53.2826 151.438 53.876 151.465 54.4773 151.469V138.396C53.872 138.4 53.2786 138.427 52.6973 138.467V138.463Z" fill="#AF8E2F"/>
<path d="M68.361 142.26H40.9463V145.466H68.361V142.26Z" fill="#AF8E2F"/>
<path d="M68.3607 144.93C68.3607 142.768 66.1597 140.849 62.772 139.662V150.202C66.1597 149.011 68.3607 147.096 68.3607 144.934V144.93Z" fill="#AF8E2F"/>
<path d="M49.0566 138.959V150.902C50.1952 151.146 51.422 151.31 52.697 151.397V138.463C51.418 138.551 50.1952 138.715 49.0566 138.959Z" fill="#D6B11E"/>
<path d="M54.6538 138.387C54.5977 138.387 54.5416 138.387 54.4814 138.387V151.461C54.5376 151.461 54.5937 151.461 54.6538 151.461C57.6928 151.461 60.4992 150.99 62.7724 150.19V139.65C60.4992 138.851 57.6928 138.379 54.6538 138.379V138.387Z" fill="#D6B11E"/>
<path d="M54.6536 149.527C62.224 149.527 68.361 146.597 68.361 142.984C68.361 139.37 62.224 136.441 54.6536 136.441C47.0833 136.441 40.9463 139.37 40.9463 142.984C40.9463 146.597 47.0833 149.527 54.6536 149.527Z" fill="#AF8E2F"/>
<path d="M54.6536 149.039C62.224 149.039 68.361 146.11 68.361 142.496C68.361 138.883 62.224 135.953 54.6536 135.953C47.0833 135.953 40.9463 138.883 40.9463 142.496C40.9463 146.11 47.0833 149.039 54.6536 149.039Z" fill="#FFD840"/>
<path d="M54.6538 147.532C60.6743 147.532 65.5548 145.277 65.5548 142.496C65.5548 139.715 60.6743 137.46 54.6538 137.46C48.6334 137.46 43.7529 139.715 43.7529 142.496C43.7529 145.277 48.6334 147.532 54.6538 147.532Z" fill="#FFD325"/>
<path d="M51.5185 142.952L49.8105 142.048L51.1456 141.357L52.8535 142.26C53.6593 142.684 54.9824 142.684 55.8042 142.26C56.6261 141.832 56.6422 141.141 55.8363 140.717L54.0522 139.774L55.3873 139.083L57.1714 140.026C58.6949 140.833 58.6668 142.144 57.1112 142.952C55.5517 143.759 53.0459 143.759 51.5185 142.952Z" fill="#AF8E2F"/>
<path d="M57.969 144.103L51.8911 140.889L53.2262 140.198L59.3041 143.411L57.969 144.103Z" fill="#AF8E2F"/>
<path d="M60.1301 142.984L54.0522 139.77L55.3873 139.079L61.4612 142.292L60.1301 142.984Z" fill="#AF8E2F"/>
<path d="M51.0854 145.909L51.6787 142.12L49.8185 142.052L49.3574 144.998L51.0854 145.909Z" fill="#AF8E2F"/>
<path d="M73.0474 140.878C73.0474 143.54 76.379 145.826 81.1579 146.849V134.906C76.379 135.929 73.0474 138.216 73.0474 140.878Z" fill="#AF8E2F"/>
<path d="M84.8022 134.411V147.345C85.3876 147.385 85.9809 147.413 86.5823 147.417V134.343C85.9769 134.347 85.3836 134.375 84.8022 134.415V134.411Z" fill="#AF8E2F"/>
<path d="M100.462 138.208H73.0474V141.413H100.462V138.208Z" fill="#AF8E2F"/>
<path d="M100.462 140.877C100.462 138.715 98.2608 136.796 94.873 135.609V146.149C98.2608 144.958 100.462 143.044 100.462 140.877Z" fill="#AF8E2F"/>
<path d="M81.1621 134.906V146.849C82.3007 147.093 83.5275 147.257 84.8024 147.345V134.411C83.5235 134.499 82.3007 134.662 81.1621 134.906Z" fill="#D6B11E"/>
<path d="M86.7549 134.335C86.6988 134.335 86.6427 134.335 86.5825 134.335V147.409C86.6386 147.409 86.6948 147.409 86.7549 147.409C89.7939 147.409 92.6003 146.937 94.8735 146.138V135.598C92.6003 134.798 89.7939 134.327 86.7549 134.327V134.335Z" fill="#D6B11E"/>
<path d="M86.7547 145.474C94.325 145.474 100.462 142.545 100.462 138.931C100.462 135.318 94.325 132.388 86.7547 132.388C79.1843 132.388 73.0474 135.318 73.0474 138.931C73.0474 142.545 79.1843 145.474 86.7547 145.474Z" fill="#AF8E2F"/>
<path d="M86.7547 144.986C94.325 144.986 100.462 142.057 100.462 138.443C100.462 134.83 94.325 131.9 86.7547 131.9C79.1843 131.9 73.0474 134.83 73.0474 138.443C73.0474 142.057 79.1843 144.986 86.7547 144.986Z" fill="#FFD840"/>
<path d="M86.7549 143.48C92.7753 143.48 97.6558 141.225 97.6558 138.443C97.6558 135.662 92.7753 133.407 86.7549 133.407C80.7345 133.407 75.854 135.662 75.854 138.443C75.854 141.225 80.7345 143.48 86.7549 143.48Z" fill="#FFD325"/>
<path d="M83.6234 138.899L81.9155 137.996L83.2506 137.304L84.9585 138.207C85.7643 138.631 87.0874 138.631 87.9092 138.207C88.7311 137.78 88.7471 137.088 87.9413 136.665L86.1572 135.721L87.4923 135.03L89.2763 135.973C90.7998 136.78 90.7718 138.091 89.2162 138.899C87.6566 139.706 85.1509 139.706 83.6234 138.899Z" fill="#AF8E2F"/>
<path d="M90.074 140.05L83.9961 136.836L85.3311 136.145L91.405 139.359L90.074 140.05Z" fill="#AF8E2F"/>
<path d="M92.2312 138.931L86.1533 135.717L87.4884 135.026L93.5663 138.239L92.2312 138.931Z" fill="#AF8E2F"/>
<path d="M83.1864 141.857L83.7838 138.067L81.9236 138L81.4585 140.945L83.1864 141.857Z" fill="#AF8E2F"/>
<path d="M73.0474 136.825C73.0474 139.487 76.379 141.773 81.1579 142.796V130.854C76.379 131.877 73.0474 134.163 73.0474 136.825Z" fill="#AF8E2F"/>
<path d="M84.8022 130.358V143.292C85.3876 143.332 85.9809 143.36 86.5823 143.364V130.29C85.9769 130.294 85.3836 130.322 84.8022 130.362V130.358Z" fill="#AF8E2F"/>
<path d="M100.462 134.155H73.0474V137.36H100.462V134.155Z" fill="#AF8E2F"/>
<path d="M100.462 136.825C100.462 134.662 98.2608 132.744 94.873 131.557V142.097C98.2608 140.905 100.462 138.991 100.462 136.829V136.825Z" fill="#AF8E2F"/>
<path d="M81.1621 130.854V142.796C82.3007 143.04 83.5275 143.204 84.8024 143.292V130.358C83.5235 130.446 82.3007 130.61 81.1621 130.854Z" fill="#D6B11E"/>
<path d="M86.7549 130.282C86.6988 130.282 86.6427 130.282 86.5825 130.282V143.356C86.6386 143.356 86.6948 143.356 86.7549 143.356C89.7939 143.356 92.6003 142.884 94.8735 142.085V131.545C92.6003 130.746 89.7939 130.274 86.7549 130.274V130.282Z" fill="#D6B11E"/>
<path d="M86.7547 141.421C94.325 141.421 100.462 138.492 100.462 134.878C100.462 131.265 94.325 128.335 86.7547 128.335C79.1843 128.335 73.0474 131.265 73.0474 134.878C73.0474 138.492 79.1843 141.421 86.7547 141.421Z" fill="#AF8E2F"/>
<path d="M86.7547 140.934C94.325 140.934 100.462 138.004 100.462 134.391C100.462 130.777 94.325 127.848 86.7547 127.848C79.1843 127.848 73.0474 130.777 73.0474 134.391C73.0474 138.004 79.1843 140.934 86.7547 140.934Z" fill="#FFD840"/>
<path d="M86.7549 139.427C92.7753 139.427 97.6558 137.172 97.6558 134.391C97.6558 131.609 92.7753 129.354 86.7549 129.354C80.7345 129.354 75.854 131.609 75.854 134.391C75.854 137.172 80.7345 139.427 86.7549 139.427Z" fill="#FFD325"/>
<path d="M83.6234 134.846L81.9155 133.943L83.2506 133.251L84.9585 134.155C85.7643 134.578 87.0874 134.578 87.9092 134.155C88.7311 133.727 88.7471 133.035 87.9413 132.612L86.1572 131.669L87.4923 130.977L89.2763 131.92C90.7998 132.728 90.7718 134.039 89.2162 134.846C87.6566 135.653 85.1509 135.653 83.6234 134.846Z" fill="#AF8E2F"/>
<path d="M90.074 135.997L83.9961 132.784L85.3311 132.092L91.405 135.306L90.074 135.997Z" fill="#AF8E2F"/>
<path d="M92.2312 134.878L86.1533 131.665L87.4884 130.973L93.5663 134.187L92.2312 134.878Z" fill="#AF8E2F"/>
<path d="M83.1864 137.804L83.7838 134.015L81.9236 133.947L81.4585 136.893L83.1864 137.804Z" fill="#AF8E2F"/>
<path d="M73.0474 132.772C73.0474 135.434 76.379 137.72 81.1579 138.743V126.8C76.379 127.824 73.0474 130.11 73.0474 132.772Z" fill="#AF8E2F"/>
<path d="M84.8022 126.304V139.238C85.3876 139.278 85.9809 139.306 86.5823 139.31V126.236C85.9769 126.24 85.3836 126.268 84.8022 126.308V126.304Z" fill="#AF8E2F"/>
<path d="M100.462 130.102H73.0474V133.307H100.462V130.102Z" fill="#AF8E2F"/>
<path d="M100.462 132.771C100.462 130.609 98.2608 128.691 94.873 127.503V138.043C98.2608 136.852 100.462 134.938 100.462 132.771Z" fill="#AF8E2F"/>
<path d="M81.1621 126.8V138.743C82.3007 138.987 83.5275 139.151 84.8024 139.239V126.305C83.5235 126.393 82.3007 126.556 81.1621 126.8Z" fill="#D6B11E"/>
<path d="M86.7549 126.229C86.6988 126.229 86.6427 126.229 86.5825 126.229V139.303C86.6386 139.303 86.6948 139.303 86.7549 139.303C89.7939 139.303 92.6003 138.831 94.8735 138.032V127.492C92.6003 126.692 89.7939 126.221 86.7549 126.221V126.229Z" fill="#D6B11E"/>
<path d="M86.7547 137.368C94.325 137.368 100.462 134.439 100.462 130.825C100.462 127.212 94.325 124.282 86.7547 124.282C79.1843 124.282 73.0474 127.212 73.0474 130.825C73.0474 134.439 79.1843 137.368 86.7547 137.368Z" fill="#AF8E2F"/>
<path d="M86.7547 136.88C94.325 136.88 100.462 133.951 100.462 130.337C100.462 126.724 94.325 123.794 86.7547 123.794C79.1843 123.794 73.0474 126.724 73.0474 130.337C73.0474 133.951 79.1843 136.88 86.7547 136.88Z" fill="#FFD840"/>
<path d="M86.7549 135.374C92.7753 135.374 97.6558 133.119 97.6558 130.337C97.6558 127.556 92.7753 125.301 86.7549 125.301C80.7345 125.301 75.854 127.556 75.854 130.337C75.854 133.119 80.7345 135.374 86.7549 135.374Z" fill="#FFD325"/>
<path d="M83.6234 130.793L81.9155 129.89L83.2506 129.198L84.9585 130.101C85.7643 130.525 87.0874 130.525 87.9092 130.101C88.7311 129.674 88.7471 128.982 87.9413 128.559L86.1572 127.615L87.4923 126.924L89.2763 127.867C90.7998 128.674 90.7718 129.985 89.2162 130.793C87.6566 131.6 85.1509 131.6 83.6234 130.793Z" fill="#AF8E2F"/>
<path d="M90.074 131.944L83.9961 128.731L85.3311 128.039L91.405 131.253L90.074 131.944Z" fill="#AF8E2F"/>
<path d="M92.2312 130.825L86.1533 127.611L87.4884 126.92L93.5663 130.133L92.2312 130.825Z" fill="#AF8E2F"/>
<path d="M83.1864 133.751L83.7838 129.962L81.9236 129.894L81.4585 132.839L83.1864 133.751Z" fill="#AF8E2F"/>
<path d="M106.394 132.556C107.993 134.687 112.034 134.535 116.477 132.5L109.308 122.932C106.093 126.601 104.798 130.426 106.394 132.556Z" fill="#AF8E2F"/>
<path d="M111.926 120.361L119.692 130.721C120.185 130.406 120.674 130.074 121.163 129.714L113.313 119.238C112.832 119.602 112.371 119.978 111.93 120.357L111.926 120.361Z" fill="#AF8E2F"/>
<path d="M126.749 114.052L104.789 130.412L106.714 132.98L128.674 116.619L126.749 114.052Z" fill="#AF8E2F"/>
<path d="M128.352 116.197C127.053 114.466 124.142 114.242 120.71 115.309L127.037 123.751C129.037 120.773 129.647 117.927 128.352 116.193V116.197Z" fill="#AF8E2F"/>
<path d="M109.304 122.931L116.473 132.5C117.531 132.016 118.609 131.417 119.688 130.725L111.922 120.365C110.952 121.197 110.07 122.06 109.304 122.935V122.931Z" fill="#D6B11E"/>
<path d="M113.445 119.139C113.397 119.175 113.357 119.21 113.309 119.242L121.159 129.718C121.207 129.682 121.251 129.654 121.299 129.619C123.733 127.804 125.697 125.753 127.04 123.755L120.714 115.313C118.413 116.029 115.883 117.328 113.449 119.139H113.445Z" fill="#D6B11E"/>
<path d="M120.131 128.054C126.195 123.536 129.352 117.527 127.182 114.632C125.013 111.738 118.338 113.053 112.274 117.571C106.209 122.089 103.052 128.098 105.222 130.993C107.392 133.887 114.067 132.571 120.131 128.054Z" fill="#AF8E2F"/>
<path d="M119.837 127.663C125.902 123.145 129.059 117.136 126.889 114.241C124.719 111.346 118.044 112.662 111.98 117.18C105.916 121.698 102.759 127.707 104.929 130.602C107.098 133.496 113.773 132.18 119.837 127.663Z" fill="#FFD840"/>
<path d="M118.933 126.455C123.755 122.863 126.311 118.144 124.641 115.916C122.971 113.688 117.708 114.794 112.885 118.387C108.062 121.98 105.507 126.699 107.177 128.927C108.847 131.155 114.11 130.048 118.933 126.455Z" fill="#FFD325"/>
<path d="M113.674 124.662L111.766 124.958L112.419 123.607L114.327 123.311C115.23 123.171 116.288 122.38 116.693 121.548C117.098 120.717 116.693 120.153 115.791 120.293L113.794 120.601L114.448 119.25L116.444 118.942C118.148 118.679 118.918 119.746 118.152 121.325C117.386 122.899 115.378 124.398 113.674 124.662Z" fill="#AF8E2F"/>
<path d="M119.531 121.736L112.736 122.787L113.389 121.436L120.185 120.385L119.531 121.736Z" fill="#AF8E2F"/>
<path d="M120.59 119.55L113.794 120.605L114.448 119.254L121.243 118.203L120.59 119.55Z" fill="#AF8E2F"/>
<path d="M115.105 127.296L113.305 123.903L111.773 124.958L113.169 127.592L115.105 127.296Z" fill="#AF8E2F"/>
<path d="M47.8891 83.4914C46.2198 85.5627 47.3795 89.4311 50.4654 93.2212L57.9636 83.9188C53.5961 81.7233 49.5635 81.4178 47.8928 83.4928L47.8891 83.4914Z" fill="#AF8E2F"/>
<path d="M61.108 85.8106L52.9904 95.8822C53.4193 96.2767 53.8659 96.6694 54.3333 97.0529L62.5404 86.8701C62.0651 86.4964 61.5863 86.1427 61.108 85.8106Z" fill="#AF8E2F"/>
<path d="M70.9415 98.5691L49.5698 81.4116L47.558 83.9084L68.9297 101.066L70.9415 98.5691Z" fill="#AF8E2F"/>
<path d="M69.2575 100.651C70.6164 98.9662 70.1015 96.0965 68.2089 93.0479L61.5945 101.259C64.9838 102.452 67.9024 102.337 69.2613 100.653L69.2575 100.651Z" fill="#AF8E2F"/>
<path d="M57.96 83.9174L50.4617 93.2199C51.1956 94.1199 52.0499 95.0188 52.9894 95.886L61.1069 85.8144C60.0552 85.0841 58.9985 84.446 57.9585 83.9212L57.96 83.9174Z" fill="#D6B11E"/>
<path d="M62.6807 86.9751C62.6339 86.9402 62.5909 86.9067 62.5442 86.8718L54.337 97.0546C54.3824 97.0933 54.4239 97.1305 54.4669 97.164C56.8347 99.0677 59.3216 100.456 61.5921 101.254L68.2064 93.0428C66.9355 90.997 65.0462 88.8736 62.6769 86.9737L62.6807 86.9751Z" fill="#D6B11E"/>
<path d="M70.4772 99.1305C72.7451 96.3159 69.7994 90.1933 63.8978 85.4554C57.9961 80.7175 51.3734 79.1584 49.1055 81.973C46.8375 84.7876 49.7832 90.9102 55.6849 95.6481C61.5865 100.386 68.2092 101.945 70.4772 99.1305Z" fill="#AF8E2F"/>
<path d="M70.7872 98.7492C73.0551 95.9345 70.1094 89.812 64.2078 85.0741C58.3062 80.3361 51.6835 78.777 49.4155 81.5916C47.1476 84.4063 50.0933 90.5288 55.9949 95.2667C61.8966 100.005 68.5193 101.564 70.7872 98.7492Z" fill="#FFD840"/>
<path d="M68.6001 96.9954C66.8559 99.1621 61.6353 97.8648 56.9413 94.0947C52.2511 90.326 49.8583 85.5169 51.6077 83.3479C53.352 81.1811 58.5725 82.4785 63.2665 86.2486C67.9567 90.0172 70.3496 94.8263 68.6001 96.9954Z" fill="#FFD325"/>
<path d="M57.3718 88.5658L56.6095 86.7951L58.0839 87.092L58.8462 88.8626C59.206 89.6971 60.2371 90.5265 61.1453 90.7102C62.0535 90.8939 62.5006 90.3628 62.1408 89.5284L61.3413 87.6751L62.8156 87.972L63.6151 89.8253C64.299 91.4078 63.453 92.4113 61.7307 92.0669C60.0084 91.7226 58.0543 90.152 57.3704 88.5695L57.3718 88.5658Z" fill="#AF8E2F"/>
<path d="M61.6773 93.5009L58.9586 87.1944L60.4329 87.4913L63.1517 93.7978L61.6773 93.5009Z" fill="#AF8E2F"/>
<path d="M64.0639 93.9828L61.3414 87.6749L62.8158 87.9718L65.5382 94.2797L64.0639 93.9828Z" fill="#AF8E2F"/>
<path d="M55.1752 90.6028L58.0161 88.0243L56.6106 86.8041L54.3999 88.8101L55.1752 90.6028Z" fill="#AF8E2F"/>
<path d="M113.071 50.8916L110.966 48.3569L106.728 51.8882L108.833 54.4229L113.071 50.8916Z" fill="#AF8E2F"/>
<path d="M108.833 54.4234L106.728 51.8887L102.462 55.443L104.567 57.9777L108.833 54.4234Z" fill="#D6B11E"/>
<path d="M104.565 57.9784L102.459 55.4431L96.8769 60.0956L99.0167 62.5978L104.565 57.9784Z" fill="#AF8E2F"/>
<path d="M96.8772 60.0958L91.7274 64.3864L93.8286 66.9196L99.017 62.5981L96.8772 60.0958Z" fill="#D6B11E"/>
<path d="M138.021 80.983C142.828 75.6647 142.4 67.4686 137.066 62.6766C131.731 57.8846 123.51 58.3113 118.703 63.6296C113.897 68.9479 114.325 77.144 119.659 81.936C124.994 86.728 133.215 86.3013 138.021 80.983Z" fill="#AF8E2F"/>
<path d="M140.35 75.3175C142.022 68.7147 138.009 62.0107 131.386 60.3436C124.763 58.6765 118.038 62.6777 116.366 69.2805C114.694 75.8832 118.707 82.5873 125.33 84.2544C131.953 85.9214 138.678 81.9203 140.35 75.3175Z" fill="#FFD840"/>
<path d="M137.966 74.301C139.076 69.0093 135.673 63.8227 130.365 62.7163C125.057 61.6098 119.855 65.0026 118.745 70.2942C117.635 75.5858 121.038 80.7724 126.346 81.8789C131.654 82.9853 136.856 79.5926 137.966 74.301Z" fill="#FFD325"/>
<path d="M126.362 73.0862L124.586 72.2549L125.28 70.82L127.056 71.6513C127.893 72.043 128.924 71.6473 129.349 70.764C129.774 69.8807 129.441 68.8415 128.603 68.4498L126.743 67.5785L127.436 66.1436L129.297 67.0149C130.884 67.7583 131.518 69.7248 130.712 71.3995C129.902 73.0742 127.954 73.8297 126.366 73.0822L126.362 73.0862Z" fill="#AF8E2F"/>
<path d="M131.951 72.8625L125.625 69.8968L126.314 68.4619L132.645 71.4276L131.951 72.8625Z" fill="#AF8E2F"/>
<path d="M133.069 70.5442L126.743 67.5785L127.436 66.1436L133.763 69.1093L133.069 70.5442Z" fill="#AF8E2F"/>
<path d="M127.504 77.6308L126.073 71.7993L124.594 72.259L125.704 76.7875L127.504 77.6308Z" fill="#AF8E2F"/>
<g style="mix-blend-mode:screen" opacity="0.23">
<path d="M119.234 63.0743L127.304 85.2213C129.574 85.4092 131.803 84.9895 133.799 84.0742L124.955 59.8008C122.806 60.3843 120.83 61.5075 119.234 63.0743Z" fill="#FFD325"/>
</g>
<path d="M72.0279 54.2198C78.836 53.6391 83.8829 47.6661 83.3005 40.8787C82.718 34.0913 76.7267 29.0598 69.9186 29.6405C63.1104 30.2212 58.0635 36.1942 58.646 42.9816C59.2284 49.7689 65.2197 54.8005 72.0279 54.2198Z" fill="#D6B11E"/>
<path d="M82.0915 45.7783C84.2234 39.6579 80.9749 32.9735 74.8358 30.8481C68.6968 28.7228 61.9919 31.9614 59.86 38.0817C57.7282 44.2021 60.9767 50.8865 67.1158 53.0118C73.2548 55.1372 79.9597 51.8986 82.0915 45.7783Z" fill="#FFD840"/>
<path d="M71.4728 51.2246C76.6245 50.95 80.5776 46.5639 80.3022 41.4279C80.0268 36.2919 75.6272 32.3509 70.4755 32.6254C65.3238 32.9 61.3707 37.2861 61.6461 42.4221C61.9215 47.5582 66.3211 51.4992 71.4728 51.2246Z" fill="#FFD325"/>
<path d="M69.0707 42.6724L67.3828 41.881L68.0403 40.518L69.7282 41.3094C70.526 41.6851 71.5042 41.3054 71.9092 40.4621C72.3141 39.6227 71.9974 38.6355 71.1995 38.2597L69.4315 37.4284L70.089 36.0654L71.857 36.8968C73.3685 37.6043 73.9699 39.4748 73.2041 41.0696C72.4344 42.6604 70.5821 43.3798 69.0707 42.6724Z" fill="#AF8E2F"/>
<path d="M74.387 42.4607L68.3652 39.6388L69.0267 38.2759L75.0445 41.0977L74.387 42.4607Z" fill="#AF8E2F"/>
<path d="M75.4534 40.2541L69.4316 37.4323L70.0891 36.0693L76.1109 38.8912L75.4534 40.2541Z" fill="#AF8E2F"/>
<path d="M70.1571 47.001L68.7979 41.4492L67.3867 41.8849L68.4451 46.1976L70.1571 47.001Z" fill="#AF8E2F"/>
<g style="mix-blend-mode:screen" opacity="0.23">
<path d="M82.914 45.1463L78.0589 31.8205C77.0486 31.117 75.914 30.5495 74.6712 30.1658C74.5549 30.1298 74.4346 30.1018 74.3184 30.0698L81.178 48.9034C81.8556 47.9202 82.4008 46.821 82.7777 45.6219C82.8258 45.466 82.8699 45.3062 82.914 45.1503V45.1463Z" fill="#FFD325"/>
</g>
<g style="mix-blend-mode:screen" opacity="0.23">
<path d="M62.2871 33.1478L69.9647 54.2197C72.1216 54.3995 74.2464 53.9998 76.1428 53.1285L67.7316 30.0342C65.6869 30.5898 63.8066 31.6609 62.2911 33.1478H62.2871Z" fill="#FFD325"/>
</g>
</g>
<path d="M66 118.002C67.3903 118.674 68.3459 119.706 68.998 121C69.65 119.706 70.6097 118.67 72 117.998C70.6097 117.326 69.65 116.294 68.998 115C68.3459 116.294 67.3903 117.33 66 118.002Z" fill="#FFD325"/>
<path d="M98 89.5016C99.1586 90.0619 99.9549 90.9218 100.498 92C101.042 90.9218 101.841 90.0586 103 89.4984C101.841 88.9381 101.042 88.0782 100.498 87C99.9549 88.0782 99.1586 88.9414 98 89.5016Z" fill="#AF8E2F"/>
<path d="M106 5.99999C106.927 6.44842 107.562 7.13453 108 8C108.438 7.13901 109.073 6.44842 110 5.99999C109.073 5.55156 108.433 4.86547 108 4C107.562 4.86099 106.927 5.55156 106 5.99999Z" fill="#AF8E2F"/>
<defs>
<clipPath id="clip0_741_3680">
<rect width="39.3416" height="51.8593" fill="white" transform="matrix(-0.937933 0.346817 0.346817 0.937933 42.0293 104)"/>
</clipPath>
<clipPath id="clip1_741_3680">
<rect width="106" height="179" fill="white" transform="translate(24 -10)"/>
</clipPath>
</defs>
</svg>
