<svg width="130" height="39" viewBox="0 0 130 39" fill="none" xmlns="http://www.w3.org/2000/svg">
<rect x="0.144531" width="129.711" height="38.6309" fill="url(#paint0_radial_1_4667)"/>
<path d="M15.456 27.288C13.792 27.288 12.32 26.92 11.04 26.184C9.76 25.448 8.752 24.424 8.016 23.112C7.296 21.8 6.936 20.296 6.936 18.6C6.936 16.904 7.296 15.408 8.016 14.112C8.752 12.8 9.752 11.776 11.016 11.04C12.28 10.288 13.736 9.912 15.384 9.912C17.048 9.912 18.512 10.288 19.776 11.04C21.056 11.776 22.048 12.8 22.752 14.112C23.472 15.408 23.832 16.904 23.832 18.6C23.832 20.296 23.472 21.8 22.752 23.112C22.048 24.424 21.064 25.448 19.8 26.184C18.552 26.92 17.104 27.288 15.456 27.288ZM15.456 24.744C16.544 24.744 17.504 24.48 18.336 23.952C19.168 23.424 19.816 22.704 20.28 21.792C20.76 20.864 21 19.8 21 18.6C21 17.416 20.76 16.36 20.28 15.432C19.8 14.504 19.136 13.784 18.288 13.272C17.456 12.744 16.488 12.48 15.384 12.48C14.296 12.48 13.328 12.744 12.48 13.272C11.648 13.784 10.984 14.504 10.488 15.432C10.008 16.344 9.768 17.4 9.768 18.6C9.768 19.8 10.008 20.864 10.488 21.792C10.984 22.704 11.656 23.424 12.504 23.952C13.368 24.48 14.352 24.744 15.456 24.744ZM27.4849 27V13.728C27.4849 12.464 27.7969 11.496 28.4209 10.824C29.0609 10.136 30.0209 9.792 31.3009 9.792C31.7169 9.792 32.1569 9.864 32.6209 10.008C33.1009 10.136 33.5569 10.312 33.9889 10.536L33.0049 12.528C32.7009 12.384 32.4289 12.28 32.1889 12.216C31.9649 12.152 31.7649 12.12 31.5889 12.12C31.1089 12.12 30.7489 12.28 30.5089 12.6C30.2849 12.904 30.1729 13.408 30.1729 14.112V27H27.4849ZM25.4209 17.208V15H33.3169V17.208H25.4209ZM36.6958 27V13.728C36.6958 12.464 37.0078 11.496 37.6318 10.824C38.2718 10.136 39.2318 9.792 40.5118 9.792C40.9278 9.792 41.3678 9.864 41.8318 10.008C42.3118 10.136 42.7678 10.312 43.1998 10.536L42.2158 12.528C41.9118 12.384 41.6398 12.28 41.3998 12.216C41.1758 12.152 40.9758 12.12 40.7998 12.12C40.3198 12.12 39.9598 12.28 39.7198 12.6C39.4958 12.904 39.3838 13.408 39.3838 14.112V27H36.6958ZM34.6318 17.208V15H42.5278V17.208H34.6318ZM49.8478 27.288C48.6798 27.288 47.6398 27.024 46.7278 26.496C45.8318 25.952 45.1198 25.208 44.5918 24.264C44.0798 23.32 43.8238 22.232 43.8238 21C43.8238 19.768 44.0878 18.68 44.6158 17.736C45.1438 16.792 45.8638 16.056 46.7758 15.528C47.7038 14.984 48.7598 14.712 49.9438 14.712C51.0158 14.712 51.9758 14.992 52.8238 15.552C53.6878 16.096 54.3758 16.888 54.8878 17.928C55.3998 18.968 55.6558 20.208 55.6558 21.648H52.9438C52.9438 20.608 52.8158 19.752 52.5598 19.08C52.3198 18.408 51.9678 17.912 51.5038 17.592C51.0558 17.256 50.5038 17.088 49.8478 17.088C49.1598 17.088 48.5678 17.24 48.0718 17.544C47.5758 17.848 47.1998 18.296 46.9438 18.888C46.6878 19.464 46.5598 20.192 46.5598 21.072C46.5598 21.856 46.7118 22.528 47.0158 23.088C47.3358 23.648 47.7598 24.08 48.2878 24.384C48.8318 24.672 49.4318 24.816 50.0878 24.816C50.8078 24.816 51.3998 24.656 51.8638 24.336C52.3278 24 52.6878 23.576 52.9438 23.064L55.4158 24.12C55.0798 24.76 54.6478 25.32 54.1198 25.8C53.6078 26.28 52.9918 26.648 52.2718 26.904C51.5678 27.16 50.7598 27.288 49.8478 27.288ZM45.5998 21.648V19.512H54.2398V21.648H45.5998ZM59.4906 20.616C59.4906 19.32 59.7386 18.256 60.2346 17.424C60.7306 16.592 61.3706 15.976 62.1546 15.576C62.9546 15.16 63.7866 14.952 64.6506 14.952V17.52C63.9146 17.52 63.2186 17.624 62.5626 17.832C61.9226 18.024 61.4026 18.344 61.0026 18.792C60.6026 19.24 60.4026 19.832 60.4026 20.568L59.4906 20.616ZM57.7146 27V15H60.4026V27H57.7146ZM74.9584 24.864L71.7184 24.408L81.7744 12.36L84.9904 12.792L74.9584 24.864ZM71.7184 27V24.408H84.9184V27H71.7184ZM71.7904 12.792V10.2H84.9904V12.792H71.7904ZM92.9768 27.288C91.7768 27.288 90.7048 27.024 89.7608 26.496C88.8328 25.952 88.1048 25.208 87.5768 24.264C87.0488 23.32 86.7848 22.232 86.7848 21C86.7848 19.768 87.0408 18.68 87.5527 17.736C88.0808 16.792 88.8088 16.056 89.7368 15.528C90.6648 14.984 91.7288 14.712 92.9288 14.712C94.1288 14.712 95.1928 14.984 96.1208 15.528C97.0488 16.056 97.7688 16.792 98.2808 17.736C98.8088 18.68 99.0728 19.768 99.0728 21C99.0728 22.232 98.8168 23.32 98.3047 24.264C97.7928 25.208 97.0728 25.952 96.1448 26.496C95.2168 27.024 94.1608 27.288 92.9768 27.288ZM92.9768 24.816C93.6328 24.816 94.2168 24.656 94.7288 24.336C95.2408 24 95.6408 23.552 95.9288 22.992C96.2168 22.416 96.3608 21.752 96.3608 21C96.3608 20.248 96.2088 19.592 95.9048 19.032C95.6168 18.456 95.2168 18.008 94.7048 17.688C94.1928 17.352 93.6008 17.184 92.9288 17.184C92.2568 17.184 91.6648 17.344 91.1528 17.664C90.6408 17.984 90.2408 18.432 89.9528 19.008C89.6648 19.584 89.5208 20.248 89.5208 21C89.5208 21.752 89.6648 22.416 89.9528 22.992C90.2568 23.552 90.6648 24 91.1768 24.336C91.7048 24.656 92.3048 24.816 92.9768 24.816ZM101.402 27V15H103.922L104.09 17.208V27H101.402ZM109.538 27V20.856L112.226 20.136V27H109.538ZM109.538 20.856C109.538 19.896 109.426 19.16 109.202 18.648C108.994 18.12 108.69 17.752 108.29 17.544C107.906 17.336 107.45 17.232 106.922 17.232C106.026 17.216 105.33 17.512 104.834 18.12C104.338 18.728 104.09 19.6 104.09 20.736H103.082C103.082 19.472 103.266 18.392 103.634 17.496C104.002 16.584 104.53 15.896 105.218 15.432C105.906 14.952 106.722 14.712 107.666 14.712C109.122 14.712 110.242 15.16 111.026 16.056C111.826 16.936 112.226 18.296 112.226 20.136L109.538 20.856ZM120.301 27.288C119.133 27.288 118.093 27.024 117.181 26.496C116.285 25.952 115.573 25.208 115.045 24.264C114.533 23.32 114.277 22.232 114.277 21C114.277 19.768 114.541 18.68 115.069 17.736C115.597 16.792 116.317 16.056 117.229 15.528C118.157 14.984 119.213 14.712 120.397 14.712C121.469 14.712 122.429 14.992 123.277 15.552C124.141 16.096 124.829 16.888 125.341 17.928C125.853 18.968 126.109 20.208 126.109 21.648H123.397C123.397 20.608 123.269 19.752 123.013 19.08C122.773 18.408 122.421 17.912 121.957 17.592C121.509 17.256 120.957 17.088 120.301 17.088C119.613 17.088 119.021 17.24 118.525 17.544C118.029 17.848 117.653 18.296 117.397 18.888C117.141 19.464 117.013 20.192 117.013 21.072C117.013 21.856 117.165 22.528 117.469 23.088C117.789 23.648 118.213 24.08 118.741 24.384C119.285 24.672 119.885 24.816 120.541 24.816C121.261 24.816 121.853 24.656 122.317 24.336C122.781 24 123.141 23.576 123.397 23.064L125.869 24.12C125.533 24.76 125.101 25.32 124.573 25.8C124.061 26.28 123.445 26.648 122.725 26.904C122.021 27.16 121.213 27.288 120.301 27.288ZM116.053 21.648V19.512H124.693V21.648H116.053Z" fill="#E2E2E2"/>
<path d="M13.456 26.288C11.792 26.288 10.32 25.92 9.04 25.184C7.76 24.448 6.752 23.424 6.016 22.112C5.296 20.8 4.936 19.296 4.936 17.6C4.936 15.904 5.296 14.408 6.016 13.112C6.752 11.8 7.752 10.776 9.016 10.04C10.28 9.288 11.736 8.912 13.384 8.912C15.048 8.912 16.512 9.288 17.776 10.04C19.056 10.776 20.048 11.8 20.752 13.112C21.472 14.408 21.832 15.904 21.832 17.6C21.832 19.296 21.472 20.8 20.752 22.112C20.048 23.424 19.064 24.448 17.8 25.184C16.552 25.92 15.104 26.288 13.456 26.288ZM13.456 23.744C14.544 23.744 15.504 23.48 16.336 22.952C17.168 22.424 17.816 21.704 18.28 20.792C18.76 19.864 19 18.8 19 17.6C19 16.416 18.76 15.36 18.28 14.432C17.8 13.504 17.136 12.784 16.288 12.272C15.456 11.744 14.488 11.48 13.384 11.48C12.296 11.48 11.328 11.744 10.48 12.272C9.648 12.784 8.984 13.504 8.488 14.432C8.008 15.344 7.768 16.4 7.768 17.6C7.768 18.8 8.008 19.864 8.488 20.792C8.984 21.704 9.656 22.424 10.504 22.952C11.368 23.48 12.352 23.744 13.456 23.744ZM25.4849 26V12.728C25.4849 11.464 25.7969 10.496 26.4209 9.824C27.0609 9.136 28.0209 8.792 29.3009 8.792C29.7169 8.792 30.1569 8.864 30.6209 9.008C31.1009 9.136 31.5569 9.312 31.9889 9.536L31.0049 11.528C30.7009 11.384 30.4289 11.28 30.1889 11.216C29.9649 11.152 29.7649 11.12 29.5889 11.12C29.1089 11.12 28.7489 11.28 28.5089 11.6C28.2849 11.904 28.1729 12.408 28.1729 13.112V26H25.4849ZM23.4209 16.208V14H31.3169V16.208H23.4209ZM34.6958 26V12.728C34.6958 11.464 35.0078 10.496 35.6318 9.824C36.2718 9.136 37.2318 8.792 38.5118 8.792C38.9278 8.792 39.3678 8.864 39.8318 9.008C40.3118 9.136 40.7678 9.312 41.1998 9.536L40.2158 11.528C39.9118 11.384 39.6398 11.28 39.3998 11.216C39.1758 11.152 38.9758 11.12 38.7998 11.12C38.3198 11.12 37.9598 11.28 37.7198 11.6C37.4958 11.904 37.3838 12.408 37.3838 13.112V26H34.6958ZM32.6318 16.208V14H40.5278V16.208H32.6318ZM47.8478 26.288C46.6798 26.288 45.6398 26.024 44.7278 25.496C43.8318 24.952 43.1198 24.208 42.5918 23.264C42.0798 22.32 41.8238 21.232 41.8238 20C41.8238 18.768 42.0878 17.68 42.6158 16.736C43.1438 15.792 43.8638 15.056 44.7758 14.528C45.7038 13.984 46.7598 13.712 47.9438 13.712C49.0158 13.712 49.9758 13.992 50.8238 14.552C51.6878 15.096 52.3758 15.888 52.8878 16.928C53.3998 17.968 53.6558 19.208 53.6558 20.648H50.9438C50.9438 19.608 50.8158 18.752 50.5598 18.08C50.3198 17.408 49.9678 16.912 49.5038 16.592C49.0558 16.256 48.5038 16.088 47.8478 16.088C47.1598 16.088 46.5678 16.24 46.0718 16.544C45.5758 16.848 45.1998 17.296 44.9438 17.888C44.6878 18.464 44.5598 19.192 44.5598 20.072C44.5598 20.856 44.7118 21.528 45.0158 22.088C45.3358 22.648 45.7598 23.08 46.2878 23.384C46.8318 23.672 47.4318 23.816 48.0878 23.816C48.8078 23.816 49.3998 23.656 49.8638 23.336C50.3278 23 50.6878 22.576 50.9438 22.064L53.4158 23.12C53.0798 23.76 52.6478 24.32 52.1198 24.8C51.6078 25.28 50.9918 25.648 50.2718 25.904C49.5678 26.16 48.7598 26.288 47.8478 26.288ZM43.5998 20.648V18.512H52.2398V20.648H43.5998ZM57.4906 19.616C57.4906 18.32 57.7386 17.256 58.2346 16.424C58.7306 15.592 59.3706 14.976 60.1546 14.576C60.9546 14.16 61.7866 13.952 62.6506 13.952V16.52C61.9146 16.52 61.2186 16.624 60.5626 16.832C59.9226 17.024 59.4026 17.344 59.0026 17.792C58.6026 18.24 58.4026 18.832 58.4026 19.568L57.4906 19.616ZM55.7146 26V14H58.4026V26H55.7146ZM72.9584 23.864L69.7184 23.408L79.7744 11.36L82.9904 11.792L72.9584 23.864ZM69.7184 26V23.408H82.9184V26H69.7184ZM69.7904 11.792V9.2H82.9904V11.792H69.7904ZM90.9768 26.288C89.7768 26.288 88.7048 26.024 87.7608 25.496C86.8328 24.952 86.1048 24.208 85.5768 23.264C85.0488 22.32 84.7848 21.232 84.7848 20C84.7848 18.768 85.0408 17.68 85.5527 16.736C86.0808 15.792 86.8088 15.056 87.7368 14.528C88.6648 13.984 89.7288 13.712 90.9288 13.712C92.1288 13.712 93.1928 13.984 94.1208 14.528C95.0488 15.056 95.7688 15.792 96.2808 16.736C96.8088 17.68 97.0728 18.768 97.0728 20C97.0728 21.232 96.8168 22.32 96.3047 23.264C95.7928 24.208 95.0728 24.952 94.1448 25.496C93.2168 26.024 92.1608 26.288 90.9768 26.288ZM90.9768 23.816C91.6328 23.816 92.2168 23.656 92.7288 23.336C93.2408 23 93.6408 22.552 93.9288 21.992C94.2168 21.416 94.3608 20.752 94.3608 20C94.3608 19.248 94.2088 18.592 93.9048 18.032C93.6168 17.456 93.2168 17.008 92.7048 16.688C92.1928 16.352 91.6008 16.184 90.9288 16.184C90.2568 16.184 89.6648 16.344 89.1528 16.664C88.6408 16.984 88.2408 17.432 87.9528 18.008C87.6648 18.584 87.5208 19.248 87.5208 20C87.5208 20.752 87.6648 21.416 87.9528 21.992C88.2568 22.552 88.6648 23 89.1768 23.336C89.7048 23.656 90.3048 23.816 90.9768 23.816ZM99.4021 26V14H101.922L102.09 16.208V26H99.4021ZM107.538 26V19.856L110.226 19.136V26H107.538ZM107.538 19.856C107.538 18.896 107.426 18.16 107.202 17.648C106.994 17.12 106.69 16.752 106.29 16.544C105.906 16.336 105.45 16.232 104.922 16.232C104.026 16.216 103.33 16.512 102.834 17.12C102.338 17.728 102.09 18.6 102.09 19.736H101.082C101.082 18.472 101.266 17.392 101.634 16.496C102.002 15.584 102.53 14.896 103.218 14.432C103.906 13.952 104.722 13.712 105.666 13.712C107.122 13.712 108.242 14.16 109.026 15.056C109.826 15.936 110.226 17.296 110.226 19.136L107.538 19.856ZM118.301 26.288C117.133 26.288 116.093 26.024 115.181 25.496C114.285 24.952 113.573 24.208 113.045 23.264C112.533 22.32 112.277 21.232 112.277 20C112.277 18.768 112.541 17.68 113.069 16.736C113.597 15.792 114.317 15.056 115.229 14.528C116.157 13.984 117.213 13.712 118.397 13.712C119.469 13.712 120.429 13.992 121.277 14.552C122.141 15.096 122.829 15.888 123.341 16.928C123.853 17.968 124.109 19.208 124.109 20.648H121.397C121.397 19.608 121.269 18.752 121.013 18.08C120.773 17.408 120.421 16.912 119.957 16.592C119.509 16.256 118.957 16.088 118.301 16.088C117.613 16.088 117.021 16.24 116.525 16.544C116.029 16.848 115.653 17.296 115.397 17.888C115.141 18.464 115.013 19.192 115.013 20.072C115.013 20.856 115.165 21.528 115.469 22.088C115.789 22.648 116.213 23.08 116.741 23.384C117.285 23.672 117.885 23.816 118.541 23.816C119.261 23.816 119.853 23.656 120.317 23.336C120.781 23 121.141 22.576 121.397 22.064L123.869 23.12C123.533 23.76 123.101 24.32 122.573 24.8C122.061 25.28 121.445 25.648 120.725 25.904C120.021 26.16 119.213 26.288 118.301 26.288ZM114.053 20.648V18.512H122.693V20.648H114.053Z" fill="#161742"/>
<defs>
<radialGradient id="paint0_radial_1_4667" cx="0" cy="0" r="1" gradientUnits="userSpaceOnUse" gradientTransform="translate(65 19.3154) scale(64.8555 19.3154)">
<stop offset="0.195" stop-color="white"/>
<stop offset="0.635" stop-color="white" stop-opacity="0.48"/>
<stop offset="1" stop-color="white" stop-opacity="0"/>
</radialGradient>
</defs>
</svg>
