<svg width="159" height="180" viewBox="0 0 159 180" fill="none" xmlns="http://www.w3.org/2000/svg">
<path d="M138.005 53.2032C138.13 53.2449 138.251 53.2926 138.367 53.3468C134.428 53.7195 134.708 53.8212 132.918 54.5388L132.908 54.543C131.853 54.9667 130.942 55.3324 130.551 55.9981C129.797 57.2777 130.543 58.2919 131.171 58.945L131.351 59.1308L131.353 59.1329C132.948 60.783 134.596 62.4878 131.905 68.2933C132.927 67.4328 135.134 65.3461 137.402 61.727C139.763 57.9601 141.216 52.877 141.722 46.617C141.899 44.4192 141.882 41.2762 141.242 39.6539L141.572 39.5239C142.423 41.6869 142.141 45.8352 142.075 46.6462C141.564 52.9636 140.093 58.1016 137.702 61.9171C134.607 66.8572 131.607 68.9872 131.517 69.0511L131.515 69.0524L130.952 69.4419L131.256 68.8272C134.295 62.6837 132.742 61.0778 131.097 59.3781L130.917 59.1923L130.916 59.1919C130.509 58.7673 129.271 57.4771 130.248 55.819C130.704 55.0465 131.67 54.659 132.79 54.2106C135.515 53.1196 133.173 52.9576 138.005 53.2032Z" fill="#161742"/>
<path d="M155.378 1.41719C161.605 7.61432 164.365 16.1906 155.006 28.7934C155.006 28.7934 150.258 35.5784 141.968 38.6758C142.096 38.5392 150.43 29.6061 155.117 16.8686C159.782 4.19875 150.642 -1.78104 150.405 -1.93446C151.534 -1.46772 152.695 -0.82273 153.836 0.0592354C153.93 0.132863 154.027 0.208438 154.121 0.285774C154.36 0.478331 154.598 0.682013 154.834 0.896727C154.889 0.947875 154.946 0.999118 155.001 1.05212C155.127 1.16825 155.252 1.28994 155.376 1.41339L155.378 1.41719Z" fill="#E5BE23"/>
<path d="M150.406 -1.9304C150.643 -1.77698 159.781 4.20272 155.118 16.8727C150.431 29.6102 142.097 38.5414 141.97 38.6799L141.968 38.6798L143.306 40.4308C143.306 40.4308 140.688 41.4794 139.94 39.5987C139.94 39.5987 140.81 38.92 141.367 38.1657C141.367 38.1657 133.149 32.3688 130.407 20.5082C130.246 19.8121 130.104 19.0946 129.984 18.356C129.829 17.4017 129.708 16.4139 129.631 15.3892C129.035 7.50927 132.226 2.93335 135.464 0.347294C137.669 -1.41406 139.895 -2.2503 140.962 -2.58057C141.373 -2.70828 141.614 -2.75921 141.614 -2.75921C141.614 -2.75921 145.736 -3.86291 150.4 -1.93069C150.4 -1.93069 150.404 -1.9305 150.406 -1.92855L150.406 -1.9304ZM139.631 33.9105C139.546 33.7983 134.443 27.0414 133.505 17.4223C133.437 16.7217 133.39 16.0072 133.37 15.2792C133.37 15.2792 132.697 8.24312 137.996 3.1484C137.996 3.1484 138.678 2.51768 138.142 1.73733C137.609 0.957065 136.349 1.6289 135.747 2.14659C135.615 2.25883 135.358 2.4874 135.031 2.83133C133.867 4.05655 131.827 6.77265 131.435 11.1812C131.326 12.4064 131.357 13.6573 131.471 14.8605C131.609 16.3066 131.871 17.6883 132.157 18.8872C132.728 21.2869 133.4 22.9574 133.4 22.9574C133.4 22.9574 136.144 30.157 139.631 33.9142L139.631 33.9105Z" fill="#FFD325"/>
<path d="M133.506 17.4219C134.443 27.041 139.546 33.7979 139.632 33.9101C136.144 30.1547 133.401 22.9533 133.401 22.9533C133.401 22.9533 132.729 21.2828 132.157 18.8831C131.872 17.6842 131.61 16.3025 131.472 14.8564C131.357 13.6532 131.327 12.4023 131.436 11.1771C131.83 6.76864 133.87 4.05254 135.032 2.82723C135.359 2.4833 135.616 2.25658 135.748 2.14249C136.352 1.6249 137.609 0.952957 138.143 1.73322C138.677 2.51348 137.997 3.1443 137.997 3.1443C132.698 8.23901 133.37 15.2751 133.37 15.2751C133.391 16.0031 133.438 16.7194 133.506 17.4182L133.506 17.4219Z" fill="#FFF3EB"/>
<path d="M131.918 109.937C133.343 106.696 133.436 104.051 132.304 99.0536C131.244 94.3748 134.573 91.1765 136.053 90.0179C137.724 88.7083 137.212 86.4105 137.19 86.3131L136.833 86.3954C136.837 86.418 137.313 88.5644 135.827 89.7281C134.291 90.9304 130.841 94.2509 131.947 99.1339C133.058 104.041 132.97 106.631 131.583 109.789L131.918 109.937Z" fill="#161742"/>
<path d="M129.133 52.9437C124.261 57.3299 122.065 63.9636 127.371 74.7102C127.371 74.7102 130.378 81.2571 136.99 85.2024C136.902 85.0665 131.16 76.1211 129.131 64.4955C127.084 52.7775 136.089 49.1466 136.089 49.1466C134.577 49.4718 132.949 50.1075 131.309 51.2354C131.131 51.3584 130.954 51.4833 130.779 51.6116C130.202 52.0315 129.652 52.4741 129.131 52.9441L129.133 52.9437Z" fill="#161742"/>
<path d="M129.131 64.4956C131.161 76.1231 136.902 85.0666 136.99 85.2025L135.574 86.4918C135.574 86.4918 137.652 87.7985 138.582 86.3071C138.582 86.3071 137.943 85.5907 137.584 84.8573C137.584 84.8573 147.795 80.1267 151.166 67.2082C154.537 54.2916 143.736 49.8104 143.736 49.8104C143.736 49.8104 140.381 48.2227 136.089 49.1467C136.089 49.1467 127.084 52.7776 129.131 64.4956ZM139.74 81.4798C140.023 81.2201 146.084 75.5304 147.985 66.531C147.985 66.531 149.655 60.6163 145.913 55.4306C145.913 55.4306 145.428 54.7851 146.007 54.2007C146.586 53.6163 147.559 54.3875 147.992 54.9235C148.427 55.4592 150.724 58.4158 150.277 63.3251C149.831 68.2343 146.765 73.0899 146.765 73.0899C146.765 73.0899 143.306 78.8093 139.739 81.4779L139.74 81.4798Z" fill="#1D478E"/>
<path d="M147.986 66.5328C146.084 75.5322 140.023 81.2219 139.74 81.4816C143.307 78.813 146.765 73.0936 146.765 73.0936C146.765 73.0936 149.832 68.238 150.278 63.3288C150.725 58.4195 148.429 55.4648 147.993 54.9272C147.558 54.3916 146.585 53.6185 146.008 54.2044C145.429 54.7888 145.914 55.4343 145.914 55.4343C149.656 60.62 147.986 66.5347 147.986 66.5347L147.986 66.5328Z" fill="#2559B0"/>
<path d="M152.791 128.732L152.835 128.414C151.528 128.236 147.141 125.071 141.583 119.557C137.972 115.973 131.253 108.764 126.824 100.74C121.584 91.2454 119.29 73.5501 119.026 63.9722L118.705 63.9815C118.97 73.5904 121.276 91.3508 126.543 100.896C130.991 108.955 137.733 116.19 141.358 119.785C146.359 124.748 151.169 128.512 152.793 128.732L152.791 128.732Z" fill="#161742"/>
<path d="M108.041 45.5529C110.794 55.8141 119.219 62.363 119.351 62.4641C114.534 59.3979 109.795 52.9109 109.795 52.9109C109.795 52.9109 105.609 47.4095 104.919 41.9157C104.229 36.4201 107.239 33.176 107.811 32.5861C108.381 31.9959 109.667 31.1578 110.449 31.8252C111.232 32.4925 110.598 33.2019 110.598 33.2019C105.7 38.9052 108.041 45.5529 108.041 45.5529Z" fill="#3AC75E"/>
<path d="M119.181 27.2554C119.408 27.346 128.186 30.8961 126.35 42.4572C124.505 54.0798 118.918 63.0778 118.832 63.2171L118.831 63.2173L120.263 64.4818C120.263 64.4818 118.213 65.8138 117.26 64.3399C117.26 64.3399 117.886 63.6162 118.233 62.8811C118.233 62.8811 110.269 59.3317 105.942 49.7041C105.688 49.1391 105.447 48.5526 105.22 47.9445C104.928 47.1589 104.659 46.3389 104.421 45.4803C102.589 38.8778 104.535 34.4489 106.854 31.7048C108.433 29.836 110.186 28.7505 111.039 28.29C111.367 28.1123 111.563 28.0286 111.563 28.0286C111.563 28.0286 114.883 26.3968 119.176 27.2561C119.176 27.2561 119.179 27.2556 119.181 27.257L119.181 27.2554ZM116.04 59.5552C115.949 59.4741 110.472 54.5846 108.057 46.5602C107.881 45.9756 107.721 45.3758 107.582 44.76C107.582 44.76 105.827 38.8881 109.477 33.6636C109.477 33.6636 109.951 33.0125 109.365 32.4388C108.779 31.8648 107.821 32.648 107.396 33.1896C107.303 33.3072 107.123 33.5448 106.902 33.8925C106.118 35.1302 104.84 37.7835 105.247 41.5994C105.36 42.6599 105.597 43.7188 105.897 44.723C106.257 45.9298 106.712 47.0612 107.156 48.0329C108.046 49.978 108.898 51.2859 108.898 51.2859C108.898 51.2859 112.442 56.9487 116.04 59.5584L116.04 59.5552Z" fill="#32B353"/>
<path d="M123.973 29.2693C130.312 33.4937 134.101 40.3247 128.26 52.6181C128.26 52.6181 125.361 59.1877 118.831 63.2161C118.917 63.0784 124.503 54.0788 126.349 42.4562C128.187 30.8949 119.407 27.345 119.18 27.2544C120.218 27.4616 121.314 27.8151 122.433 28.3734C122.526 28.4201 122.621 28.4682 122.714 28.5181C122.95 28.6418 123.187 28.7749 123.423 28.9179C123.479 28.9522 123.536 28.9862 123.591 29.0221C123.718 29.0997 123.845 29.1821 123.971 29.2663L123.973 29.2693Z" fill="#207739"/>
<path d="M91.5279 29.1263C92.7112 29.1263 93.6705 28.1656 93.6705 26.9805C93.6705 25.7954 92.7112 24.8347 91.5279 24.8347C90.3445 24.8347 89.3853 25.7954 89.3853 26.9805C89.3853 28.1656 90.3445 29.1263 91.5279 29.1263Z" fill="#1D478E"/>
<path d="M67.9199 95.8362L68.9621 96.4065L67.9199 96.9781L67.3505 98.0218L66.7797 96.9781L65.7375 96.4065L66.7797 95.8362L67.3505 94.7924L67.9199 95.8362Z" fill="#AF8E2F"/>
<path d="M90.4947 84.7132L89.2218 82.3442C89.2218 82.3442 98.3691 72.739 102.037 72.2652C105.488 71.813 108.315 77.1109 106.028 79.7383C103.59 82.495 90.4947 84.7347 90.4947 84.7347V84.7132Z" fill="#32B353"/>
<path d="M90.4728 83.7657L89.653 82.5381C89.653 82.5381 97.5058 74.4835 100.397 73.4067C103.137 72.373 104.992 75.1081 102.986 77.2617C100.893 79.5446 90.4728 83.7657 90.4728 83.7657Z" fill="white"/>
<path d="M88.4239 81.7623L87.151 84.1313C87.151 84.1313 74.0557 81.8485 71.6395 79.0703C69.3526 76.4428 72.2004 71.1665 75.6522 71.6187C79.2982 72.1141 88.4239 81.7623 88.4239 81.7623Z" fill="#32B353"/>
<path d="M87.6466 82.3024L87.0857 83.6592C87.0857 83.6592 76.0184 81.5917 73.5158 79.8042C71.1427 78.1028 72.394 75.0447 75.2849 75.5185C78.3483 76.0138 87.6466 82.3024 87.6466 82.3024Z" fill="white"/>
<path d="M92.1541 82.6892L87.0626 82.7539C87.0626 82.7539 78.9725 70.2628 81.4103 66.7739C83.7187 63.5004 95.0881 63.3712 97.4612 66.6016C99.9638 70.0259 92.1541 82.6892 92.1541 82.6892Z" fill="#32B353"/>
<path d="M89.4187 82.4963C88.7931 82.6901 88.1243 82.4532 87.8007 81.9364C86.1611 79.352 81.5658 71.8574 81.6306 69.0577C81.6953 65.8057 86.4199 64.3628 88.2969 67.0117C89.9365 69.3161 90.3679 78.0814 90.4758 81.1395C90.4758 81.7641 90.0659 82.324 89.4403 82.5178L89.4187 82.4963Z" fill="white"/>
<path d="M123.889 163.299C123.889 164.721 122.746 165.905 121.322 165.927L59.7072 166.573C58.2618 166.573 57.0968 165.431 57.0752 163.988L56.9673 153.716L56.6869 128.281L56.277 89.0852L123.091 88.3745L123.522 128.066L123.803 153.5L123.911 163.278L123.889 163.299Z" fill="#1D478E"/>
<g style="mix-blend-mode:multiply" opacity="0.66">
<path d="M123.203 98.112L56.3713 98.8223L56.4508 106.273L123.283 105.563L123.203 98.112Z" fill="#1D478E"/>
</g>
<path d="M127.343 85.1018L127.473 98.2174C127.473 99.8542 126.631 101.211 125.596 101.211L54.0141 101.965C52.957 101.965 52.094 100.651 52.0724 98.9927L51.943 85.8771C51.943 84.2404 52.7628 82.8836 53.8199 82.8836L125.402 82.1298C126.437 82.1298 127.322 83.4435 127.343 85.1018Z" fill="#161742"/>
<g style="mix-blend-mode:multiply" opacity="0.66">
<path d="M60.1818 107.29L60.1123 107.291C59.363 107.299 58.7621 107.913 58.7701 108.662C58.778 109.412 59.3919 110.013 60.1412 110.005L60.2106 110.004C60.9599 109.996 61.5609 109.382 61.5529 108.633C61.5449 107.883 60.931 107.282 60.1818 107.29Z" fill="#161742"/>
<path d="M60.2415 114.785L60.172 114.785C59.4227 114.793 58.8218 115.407 58.8298 116.156C58.8378 116.906 59.4517 117.507 60.201 117.499L60.2704 117.498C61.0197 117.49 61.6206 116.876 61.6126 116.127C61.6046 115.378 60.9908 114.777 60.2415 114.785Z" fill="#161742"/>
<path d="M60.3184 122.257L60.2489 122.258C59.4996 122.266 58.8987 122.88 58.9067 123.629C58.9147 124.378 59.5286 124.979 60.2779 124.971L60.3473 124.971C61.0966 124.963 61.6975 124.349 61.6895 123.599C61.6816 122.85 61.0677 122.249 60.3184 122.257Z" fill="#161742"/>
<path d="M60.3975 129.749L60.328 129.75C59.5787 129.758 58.9778 130.372 58.9858 131.121C58.9938 131.87 59.6077 132.471 60.357 132.463L60.4264 132.463C61.1757 132.455 61.7766 131.841 61.7686 131.092C61.7606 130.342 61.1468 129.741 60.3975 129.749Z" fill="#161742"/>
<path d="M60.4995 137.222L60.4301 137.223C59.6808 137.231 59.0798 137.844 59.0878 138.594C59.0958 139.343 59.7097 139.944 60.459 139.936L60.5285 139.935C61.2777 139.927 61.8787 139.313 61.8707 138.564C61.8627 137.815 61.2488 137.214 60.4995 137.222Z" fill="#161742"/>
<path d="M60.5591 144.694L60.4896 144.695C59.7404 144.703 59.1394 145.317 59.1474 146.066C59.1554 146.816 59.7692 147.417 60.5185 147.409L60.588 147.408C61.3373 147.4 61.9382 146.786 61.9302 146.037C61.9223 145.287 61.3084 144.686 60.5591 144.694Z" fill="#161742"/>
<path d="M60.6379 152.187L60.5685 152.187C59.8192 152.195 59.2183 152.809 59.2263 153.558C59.2343 154.308 59.8482 154.909 60.5974 154.901L60.6669 154.9C61.4162 154.892 62.0171 154.278 62.0091 153.529C62.0011 152.78 61.3872 152.179 60.6379 152.187Z" fill="#161742"/>
<path d="M60.74 159.659L60.6706 159.66C59.9213 159.668 59.3203 160.282 59.3283 161.031C59.3363 161.78 59.9502 162.381 60.6995 162.373L60.7689 162.373C61.5182 162.365 62.1192 161.751 62.1112 161.001C62.1032 160.252 61.4893 159.651 60.74 159.659Z" fill="#161742"/>
<path d="M67.4948 107.213L67.4253 107.214C66.676 107.222 66.0751 107.836 66.0831 108.585C66.0911 109.334 66.705 109.935 67.4543 109.927L67.5237 109.927C68.273 109.919 68.8739 109.305 68.8659 108.556C68.8579 107.806 68.244 107.205 67.4948 107.213Z" fill="#161742"/>
<path d="M67.5757 114.686L67.5062 114.687C66.757 114.694 66.156 115.308 66.164 116.058C66.172 116.807 66.7859 117.408 67.5352 117.4L67.6046 117.399C68.3539 117.391 68.9549 116.777 68.9469 116.028C68.9389 115.279 68.325 114.678 67.5757 114.686Z" fill="#161742"/>
<path d="M67.6333 122.18L67.5639 122.181C66.8146 122.189 66.2136 122.802 66.2216 123.552C66.2296 124.301 66.8435 124.902 67.5928 124.894L67.6622 124.893C68.4115 124.885 69.0125 124.271 69.0045 123.522C68.9965 122.773 68.3826 122.172 67.6333 122.18Z" fill="#161742"/>
<path d="M67.7352 129.651L67.6658 129.651C66.9165 129.659 66.3156 130.273 66.3236 131.022C66.3315 131.772 66.9454 132.373 67.6947 132.365L67.7642 132.364C68.5135 132.356 69.1144 131.742 69.1064 130.993C69.0984 130.244 68.4845 129.643 67.7352 129.651Z" fill="#161742"/>
<path d="M67.8143 137.123L67.7449 137.124C66.9956 137.132 66.3947 137.746 66.4027 138.495C66.4106 139.244 67.0245 139.845 67.7738 139.837L67.8433 139.837C68.5926 139.829 69.1935 139.215 69.1855 138.465C69.1775 137.716 68.5636 137.115 67.8143 137.123Z" fill="#161742"/>
<path d="M67.8721 144.638L67.8026 144.639C67.0533 144.647 66.4524 145.261 66.4604 146.01C66.4684 146.759 67.0823 147.36 67.8316 147.352L67.901 147.352C68.6503 147.344 69.2512 146.73 69.2433 145.981C69.2353 145.231 68.6214 144.63 67.8721 144.638Z" fill="#161742"/>
<path d="M67.9509 152.109L67.8815 152.11C67.1322 152.118 66.5313 152.731 66.5393 153.481C66.5472 154.23 67.1611 154.831 67.9104 154.823L67.9799 154.822C68.7292 154.814 69.3301 154.2 69.3221 153.451C69.3141 152.702 68.7002 152.101 67.9509 152.109Z" fill="#161742"/>
<path d="M68.053 159.582L67.9835 159.583C67.2343 159.591 66.6333 160.204 66.6413 160.954C66.6493 161.703 67.2632 162.304 68.0125 162.296L68.0819 162.295C68.8312 162.287 69.4322 161.674 69.4242 160.924C69.4162 160.175 68.8023 159.574 68.053 159.582Z" fill="#161742"/>
<path d="M74.8058 107.135L74.7363 107.136C73.9871 107.144 73.3861 107.758 73.3941 108.507C73.4021 109.256 74.0159 109.857 74.7652 109.849L74.8347 109.849C75.584 109.841 76.1849 109.227 76.1769 108.477C76.169 107.728 75.5551 107.127 74.8058 107.135Z" fill="#161742"/>
<path d="M74.8847 114.629L74.8152 114.629C74.0659 114.637 73.465 115.251 73.4729 116.001C73.4809 116.75 74.0948 117.351 74.8441 117.343L74.9135 117.342C75.6628 117.334 76.2638 116.72 76.2558 115.971C76.2478 115.222 75.6339 114.621 74.8847 114.629Z" fill="#161742"/>
<path d="M74.9443 122.101L74.8749 122.102C74.1256 122.11 73.5247 122.724 73.5327 123.473C73.5406 124.222 74.1545 124.823 74.9038 124.815L74.9733 124.815C75.7226 124.807 76.3235 124.193 76.3155 123.444C76.3075 122.694 75.6936 122.093 74.9443 122.101Z" fill="#161742"/>
<path d="M75.0463 129.572L74.9768 129.573C74.2275 129.581 73.6266 130.195 73.6346 130.944C73.6426 131.693 74.2565 132.294 75.0058 132.286L75.0752 132.285C75.8245 132.277 76.4254 131.664 76.4175 130.914C76.4095 130.165 75.7956 129.564 75.0463 129.572Z" fill="#161742"/>
<path d="M75.1272 137.066L75.0578 137.067C74.3085 137.075 73.7075 137.689 73.7155 138.438C73.7235 139.187 74.3374 139.788 75.0867 139.78L75.1561 139.779C75.9054 139.771 76.5064 139.158 76.4984 138.408C76.4904 137.659 75.8765 137.058 75.1272 137.066Z" fill="#161742"/>
<path d="M75.181 144.537L75.1116 144.537C74.3623 144.545 73.7613 145.159 73.7693 145.909C73.7773 146.658 74.3912 147.259 75.1405 147.251L75.2099 147.25C75.9592 147.242 76.5602 146.628 76.5522 145.879C76.5442 145.13 75.9303 144.529 75.181 144.537Z" fill="#161742"/>
<path d="M75.2849 152.009L75.2155 152.01C74.4662 152.018 73.8652 152.632 73.8732 153.381C73.8812 154.13 74.4951 154.731 75.2444 154.723L75.3139 154.723C76.0631 154.715 76.6641 154.101 76.6561 153.352C76.6481 152.602 76.0342 152.001 75.2849 152.009Z" fill="#161742"/>
<path d="M75.3659 159.503L75.2964 159.504C74.5471 159.512 73.9462 160.126 73.9542 160.875C73.9622 161.624 74.5761 162.225 75.3253 162.217L75.3948 162.217C76.1441 162.209 76.745 161.595 76.737 160.846C76.729 160.096 76.1151 159.495 75.3659 159.503Z" fill="#161742"/>
<path d="M82.1171 107.058L82.0476 107.059C81.2983 107.067 80.6974 107.68 80.7054 108.43C80.7133 109.179 81.3272 109.78 82.0765 109.772L82.146 109.771C82.8953 109.763 83.4962 109.149 83.4882 108.4C83.4802 107.651 82.8664 107.05 82.1171 107.058Z" fill="#161742"/>
<path d="M82.1962 114.552L82.1267 114.553C81.3774 114.561 80.7765 115.174 80.7845 115.924C80.7925 116.673 81.4064 117.274 82.1557 117.266L82.2251 117.265C82.9744 117.257 83.5753 116.643 83.5674 115.894C83.5594 115.145 82.9455 114.544 82.1962 114.552Z" fill="#161742"/>
<path d="M82.2537 122.024L82.1842 122.025C81.4349 122.033 80.834 122.647 80.842 123.396C80.85 124.146 81.4639 124.747 82.2132 124.739L82.2826 124.738C83.0319 124.73 83.6328 124.116 83.6248 123.367C83.6169 122.617 83.003 122.016 82.2537 122.024Z" fill="#161742"/>
<path d="M82.3596 129.516L82.2902 129.517C81.5409 129.525 80.94 130.139 80.9479 130.888C80.9559 131.637 81.5698 132.238 82.3191 132.23L82.3886 132.23C83.1379 132.222 83.7388 131.608 83.7308 130.859C83.7228 130.109 83.1089 129.508 82.3596 129.516Z" fill="#161742"/>
<path d="M82.4367 136.989L82.3672 136.99C81.6179 136.998 81.017 137.612 81.025 138.361C81.033 139.11 81.6469 139.711 82.3961 139.703L82.4656 139.703C83.2149 139.695 83.8158 139.081 83.8078 138.332C83.7998 137.582 83.1859 136.981 82.4367 136.989Z" fill="#161742"/>
<path d="M82.5155 144.46L82.4461 144.461C81.6968 144.469 81.0958 145.082 81.1038 145.832C81.1118 146.581 81.7257 147.182 82.475 147.174L82.5444 147.173C83.2937 147.165 83.8947 146.551 83.8867 145.802C83.8787 145.053 83.2648 144.452 82.5155 144.46Z" fill="#161742"/>
<path d="M82.5944 151.954L82.5249 151.954C81.7756 151.962 81.1747 152.576 81.1827 153.325C81.1907 154.075 81.8046 154.676 82.5539 154.668L82.6233 154.667C83.3726 154.659 83.9735 154.045 83.9655 153.296C83.9576 152.547 83.3437 151.946 82.5944 151.954Z" fill="#161742"/>
<path d="M82.6771 159.426L82.6077 159.427C81.8584 159.435 81.2575 160.049 81.2654 160.798C81.2734 161.547 81.8873 162.148 82.6366 162.14L82.7061 162.139C83.4554 162.132 84.0563 161.518 84.0483 160.768C84.0403 160.019 83.4264 159.418 82.6771 159.426Z" fill="#161742"/>
<path d="M89.4281 106.978L89.3587 106.979C88.6094 106.987 88.0084 107.601 88.0164 108.35C88.0244 109.099 88.6383 109.7 89.3876 109.692L89.457 109.692C90.2063 109.684 90.8073 109.07 90.7993 108.321C90.7913 107.571 90.1774 106.97 89.4281 106.978Z" fill="#161742"/>
<path d="M89.5068 114.472L89.4374 114.473C88.6881 114.481 88.0872 115.095 88.0951 115.844C88.1031 116.594 88.717 117.194 89.4663 117.187L89.5357 117.186C90.285 117.178 90.886 116.564 90.878 115.815C90.87 115.065 90.2561 114.464 89.5068 114.472Z" fill="#161742"/>
<path d="M89.5879 121.945L89.5185 121.946C88.7692 121.954 88.1682 122.568 88.1762 123.317C88.1842 124.066 88.7981 124.667 89.5473 124.659L89.6168 124.658C90.3661 124.65 90.967 124.036 90.9591 123.287C90.9511 122.538 90.3372 121.937 89.5879 121.945Z" fill="#161742"/>
<path d="M89.6686 129.416L89.5991 129.416C88.8499 129.424 88.2489 130.038 88.2569 130.787C88.2649 131.537 88.8788 132.138 89.6281 132.13L89.6975 132.129C90.4468 132.121 91.0478 131.507 91.0398 130.758C91.0318 130.009 90.4179 129.408 89.6686 129.416Z" fill="#161742"/>
<path d="M89.7455 136.888L89.676 136.889C88.9268 136.897 88.3258 137.511 88.3338 138.26C88.3418 139.009 88.9557 139.61 89.705 139.602L89.7744 139.602C90.5237 139.594 91.1247 138.98 91.1167 138.23C91.1087 137.481 90.4948 136.88 89.7455 136.888Z" fill="#161742"/>
<path d="M89.8264 144.38L89.757 144.381C89.0077 144.389 88.4067 145.003 88.4147 145.752C88.4227 146.502 89.0366 147.102 89.7859 147.095L89.8554 147.094C90.6046 147.086 91.2056 146.472 91.1976 145.723C91.1896 144.973 90.5757 144.372 89.8264 144.38Z" fill="#161742"/>
<path d="M89.9072 151.853L89.8378 151.854C89.0885 151.862 88.4876 152.476 88.4955 153.225C88.5035 153.974 89.1174 154.575 89.8667 154.567L89.9362 154.566C90.6855 154.558 91.2864 153.945 91.2784 153.195C91.2704 152.446 90.6565 151.845 89.9072 151.853Z" fill="#161742"/>
<path d="M89.9882 159.347L89.9187 159.348C89.1694 159.356 88.5685 159.97 88.5765 160.719C88.5845 161.468 89.1984 162.069 89.9477 162.061L90.0171 162.06C90.7664 162.052 91.3673 161.439 91.3593 160.689C91.3514 159.94 90.7375 159.339 89.9882 159.347Z" fill="#161742"/>
<path d="M96.7426 106.923L96.6731 106.924C95.9238 106.932 95.3229 107.546 95.3309 108.295C95.3388 109.044 95.9527 109.645 96.702 109.637L96.7714 109.636C97.5207 109.628 98.1217 109.015 98.1137 108.265C98.1057 107.516 97.4918 106.915 96.7426 106.923Z" fill="#161742"/>
<path d="M96.8235 114.396L96.754 114.397C96.0048 114.405 95.4038 115.019 95.4118 115.768C95.4198 116.517 96.0337 117.118 96.783 117.11L96.8524 117.11C97.6017 117.102 98.2027 116.488 98.1947 115.738C98.1867 114.989 97.5728 114.388 96.8235 114.396Z" fill="#161742"/>
<path d="M96.9235 121.846L96.854 121.846C96.1047 121.854 95.5038 122.468 95.5118 123.218C95.5198 123.967 96.1337 124.568 96.883 124.56L96.9524 124.559C97.7017 124.551 98.3026 123.937 98.2946 123.188C98.2866 122.439 97.6728 121.838 96.9235 121.846Z" fill="#161742"/>
<path d="M96.983 129.36L96.9136 129.361C96.1643 129.369 95.5634 129.983 95.5714 130.732C95.5793 131.482 96.1932 132.083 96.9425 132.075L97.012 132.074C97.7613 132.066 98.3622 131.452 98.3542 130.703C98.3462 129.953 97.7323 129.352 96.983 129.36Z" fill="#161742"/>
<path d="M97.0621 136.833L96.9927 136.834C96.2434 136.842 95.6425 137.456 95.6505 138.205C95.6584 138.955 96.2723 139.556 97.0216 139.548L97.0911 139.547C97.8404 139.539 98.4413 138.925 98.4333 138.176C98.4253 137.426 97.8114 136.825 97.0621 136.833Z" fill="#161742"/>
<path d="M97.141 144.304L97.0716 144.305C96.3223 144.313 95.7213 144.927 95.7293 145.676C95.7373 146.425 96.3512 147.026 97.1005 147.018L97.1699 147.018C97.9192 147.01 98.5202 146.396 98.5122 145.646C98.5042 144.897 97.8903 144.296 97.141 144.304Z" fill="#161742"/>
<path d="M97.2198 151.777L97.1504 151.777C96.4011 151.785 95.8002 152.399 95.8082 153.149C95.8162 153.898 96.4301 154.499 97.1793 154.491L97.2488 154.49C97.9981 154.482 98.599 153.868 98.591 153.119C98.583 152.37 97.9691 151.769 97.2198 151.777Z" fill="#161742"/>
<path d="M97.3008 159.271L97.2313 159.271C96.4821 159.279 95.8811 159.893 95.8891 160.643C95.8971 161.392 96.511 161.993 97.2603 161.985L97.3297 161.984C98.079 161.976 98.68 161.362 98.672 160.613C98.664 159.864 98.0501 159.263 97.3008 159.271Z" fill="#161742"/>
<path d="M104.054 106.824L103.984 106.825C103.235 106.833 102.634 107.447 102.642 108.196C102.65 108.945 103.264 109.546 104.013 109.538L104.083 109.538C104.832 109.53 105.433 108.916 105.425 108.167C105.417 107.417 104.803 106.816 104.054 106.824Z" fill="#161742"/>
<path d="M104.133 114.297L104.063 114.298C103.314 114.306 102.713 114.92 102.721 115.669C102.729 116.418 103.343 117.019 104.092 117.011L104.162 117.011C104.911 117.003 105.512 116.389 105.504 115.64C105.496 114.89 104.882 114.289 104.133 114.297Z" fill="#161742"/>
<path d="M104.235 121.791L104.165 121.792C103.416 121.8 102.815 122.413 102.823 123.163C102.831 123.912 103.445 124.513 104.194 124.505L104.263 124.504C105.013 124.496 105.614 123.882 105.606 123.133C105.598 122.384 104.984 121.783 104.235 121.791Z" fill="#161742"/>
<path d="M104.294 129.262L104.225 129.262C103.476 129.27 102.875 129.884 102.883 130.633C102.891 131.383 103.505 131.984 104.254 131.976L104.323 131.975C105.073 131.967 105.673 131.353 105.665 130.604C105.658 129.855 105.044 129.254 104.294 129.262Z" fill="#161742"/>
<path d="M104.371 136.756L104.302 136.756C103.553 136.764 102.952 137.378 102.96 138.128C102.968 138.877 103.582 139.478 104.331 139.47L104.4 139.469C105.15 139.461 105.751 138.847 105.743 138.098C105.735 137.349 105.121 136.748 104.371 136.756Z" fill="#161742"/>
<path d="M104.452 144.249L104.383 144.25C103.634 144.258 103.033 144.872 103.041 145.621C103.049 146.37 103.662 146.971 104.412 146.963L104.481 146.963C105.23 146.955 105.831 146.341 105.823 145.592C105.815 144.842 105.202 144.241 104.452 144.249Z" fill="#161742"/>
<path d="M104.554 151.699L104.485 151.7C103.735 151.708 103.135 152.321 103.143 153.071C103.151 153.82 103.764 154.421 104.514 154.413L104.583 154.412C105.332 154.404 105.933 153.79 105.925 153.041C105.917 152.292 105.303 151.691 104.554 151.699Z" fill="#161742"/>
<path d="M104.614 159.193L104.544 159.194C103.795 159.202 103.194 159.816 103.202 160.565C103.21 161.314 103.824 161.915 104.573 161.907L104.643 161.906C105.392 161.898 105.993 161.285 105.985 160.535C105.977 159.786 105.363 159.185 104.614 159.193Z" fill="#161742"/>
<path d="M111.39 106.746L111.321 106.747C110.571 106.755 109.97 107.369 109.978 108.118C109.986 108.867 110.6 109.468 111.349 109.46L111.419 109.46C112.168 109.452 112.769 108.838 112.761 108.089C112.753 107.339 112.139 106.738 111.39 106.746Z" fill="#161742"/>
<path d="M111.45 114.24L111.38 114.24C110.631 114.248 110.03 114.862 110.038 115.612C110.046 116.361 110.66 116.962 111.409 116.954L111.479 116.953C112.228 116.945 112.829 116.331 112.821 115.582C112.813 114.833 112.199 114.232 111.45 114.24Z" fill="#161742"/>
<path d="M111.55 121.712L111.48 121.713C110.731 121.721 110.13 122.335 110.138 123.084C110.146 123.833 110.76 124.434 111.509 124.426L111.579 124.426C112.328 124.418 112.929 123.804 112.921 123.055C112.913 122.305 112.299 121.704 111.55 121.712Z" fill="#161742"/>
<path d="M111.63 129.183L111.561 129.184C110.812 129.192 110.211 129.806 110.219 130.555C110.227 131.305 110.841 131.906 111.59 131.898L111.659 131.897C112.409 131.889 113.01 131.275 113.002 130.526C112.994 129.776 112.38 129.175 111.63 129.183Z" fill="#161742"/>
<path d="M111.688 136.677L111.619 136.678C110.87 136.686 110.269 137.3 110.277 138.049C110.285 138.798 110.898 139.399 111.648 139.391L111.717 139.39C112.466 139.383 113.067 138.769 113.059 138.019C113.051 137.27 112.438 136.669 111.688 136.677Z" fill="#161742"/>
<path d="M111.767 144.148L111.698 144.148C110.948 144.156 110.347 144.77 110.355 145.52C110.363 146.269 110.977 146.87 111.727 146.862L111.796 146.861C112.545 146.853 113.146 146.239 113.138 145.49C113.13 144.741 112.516 144.14 111.767 144.148Z" fill="#161742"/>
<path d="M111.869 151.621L111.8 151.622C111.05 151.629 110.449 152.243 110.457 152.993C110.465 153.742 111.079 154.343 111.829 154.335L111.898 154.334C112.647 154.326 113.248 153.712 113.24 152.963C113.232 152.214 112.618 151.613 111.869 151.621Z" fill="#161742"/>
<path d="M111.927 159.114L111.857 159.115C111.108 159.123 110.507 159.737 110.515 160.486C110.523 161.236 111.137 161.836 111.886 161.829L111.956 161.828C112.705 161.82 113.306 161.206 113.298 160.457C113.29 159.707 112.676 159.106 111.927 159.114Z" fill="#161742"/>
<path d="M118.699 106.69L118.629 106.69C117.88 106.698 117.279 107.312 117.287 108.061C117.295 108.811 117.909 109.412 118.658 109.404L118.728 109.403C119.477 109.395 120.078 108.781 120.07 108.032C120.062 107.283 119.448 106.682 118.699 106.69Z" fill="#161742"/>
<path d="M118.759 114.163L118.689 114.163C117.94 114.171 117.339 114.785 117.347 115.534C117.355 116.284 117.969 116.885 118.718 116.877L118.787 116.876C119.537 116.868 120.138 116.254 120.13 115.505C120.122 114.756 119.508 114.155 118.759 114.163Z" fill="#161742"/>
<path d="M118.859 121.635L118.789 121.636C118.04 121.644 117.439 122.258 117.447 123.007C117.455 123.756 118.069 124.357 118.818 124.349L118.888 124.348C119.637 124.341 120.238 123.727 120.23 122.977C120.222 122.228 119.608 121.627 118.859 121.635Z" fill="#161742"/>
<path d="M118.939 129.127L118.87 129.128C118.121 129.136 117.52 129.749 117.528 130.499C117.536 131.248 118.15 131.849 118.899 131.841L118.968 131.84C119.718 131.832 120.319 131.218 120.311 130.469C120.303 129.72 119.689 129.119 118.939 129.127Z" fill="#161742"/>
<path d="M118.997 136.599L118.928 136.6C118.178 136.608 117.578 137.222 117.586 137.971C117.594 138.721 118.207 139.322 118.957 139.314L119.026 139.313C119.775 139.305 120.376 138.691 120.368 137.942C120.36 137.192 119.746 136.591 118.997 136.599Z" fill="#161742"/>
<path d="M119.097 144.071L119.028 144.071C118.279 144.079 117.678 144.693 117.686 145.442C117.694 146.192 118.308 146.793 119.057 146.785L119.126 146.784C119.876 146.776 120.476 146.162 120.468 145.413C120.46 144.664 119.847 144.063 119.097 144.071Z" fill="#161742"/>
<path d="M119.178 151.564L119.109 151.565C118.359 151.573 117.758 152.187 117.766 152.936C117.774 153.685 118.388 154.286 119.137 154.278L119.207 154.278C119.956 154.27 120.557 153.656 120.549 152.906C120.541 152.157 119.927 151.556 119.178 151.564Z" fill="#161742"/>
<path d="M119.234 159.037L119.164 159.037C118.415 159.045 117.814 159.659 117.822 160.409C117.83 161.158 118.444 161.759 119.193 161.751L119.263 161.75C120.012 161.742 120.613 161.128 120.605 160.379C120.597 159.63 119.983 159.029 119.234 159.037Z" fill="#161742"/>
</g>
<g style="mix-blend-mode:multiply">
<path d="M123.605 135.451L56.7734 136.161L56.8276 141.243L123.659 140.533L123.605 135.451Z" fill="#FFF3EB"/>
</g>
<path d="M123.576 134.698L56.7446 135.409L56.7988 140.491L123.631 139.78L123.576 134.698Z" fill="#161742"/>
<g style="mix-blend-mode:multiply">
<path d="M92.8131 82.4774L86.4276 82.5453L86.6311 101.625L93.0166 101.557L92.8131 82.4774Z" fill="#FFF3EB"/>
</g>
<path d="M92.1441 82.4818L87.053 82.5359L87.9462 166.286L93.0373 166.232L92.1441 82.4818Z" fill="#161742"/>
<path d="M137.165 116.143L136.307 114.494C136.307 114.494 142.673 107.91 145.196 107.591C147.589 107.291 149.51 110.954 147.908 112.766C146.224 114.673 137.165 116.143 137.165 116.143Z" fill="#1D478E"/>
<path d="M137.164 115.487L136.606 114.647C136.606 114.647 142.059 109.118 144.064 108.375C145.967 107.664 147.222 109.572 145.832 111.047C144.378 112.61 137.164 115.487 137.164 115.487Z" fill="white"/>
<path d="M135.755 114.102L134.867 115.736C134.867 115.736 125.85 114.101 124.185 112.186C122.614 110.354 124.596 106.729 126.984 107.062C129.495 107.424 135.735 114.109 135.735 114.109L135.755 114.102Z" fill="#1D478E"/>
<path d="M135.217 114.475L134.832 115.408C134.832 115.408 127.204 113.946 125.473 112.684C123.836 111.505 124.713 109.401 126.713 109.721C128.814 110.076 135.211 114.454 135.211 114.454L135.217 114.475Z" fill="white"/>
<path d="M138.337 114.758L134.816 114.781C134.816 114.781 129.314 106.126 131.007 103.743C132.603 101.48 140.462 101.448 142.074 103.696C143.792 106.068 138.343 114.779 138.343 114.779L138.337 114.758Z" fill="#1D478E"/>
<path d="M136.456 114.605C136.024 114.741 135.563 114.569 135.337 114.211C134.209 112.421 131.088 107.239 131.129 105.285C131.196 103.051 134.461 102.07 135.738 103.904C136.849 105.496 137.104 111.557 137.175 113.656C137.195 114.079 136.888 114.469 136.456 114.605Z" fill="white"/>
<path d="M154.134 116.733L153.693 125.473L153.432 145.537L153.432 148.985L153.432 165.736L119.19 165.932L119.19 157.361L119.19 125.639L118.684 116.904L154.134 116.733Z" fill="#207739"/>
<mask id="mask0_1_3465" style="mask-type:luminance" maskUnits="userSpaceOnUse" x="118" y="114" width="36" height="52">
<path d="M153.431 165.736L119.176 165.736L118.237 114.687L153.94 114.527L153.431 165.736Z" fill="white"/>
</mask>
<g mask="url(#mask0_1_3465)">
<g style="mix-blend-mode:multiply">
<path d="M151.802 114.629L151.011 115.425L151.807 116.213L152.598 115.418L151.802 114.629Z" fill="#207739"/>
<path d="M151.82 117.409L151.03 118.205L151.826 118.993L152.616 118.197L151.82 117.409Z" fill="#207739"/>
<path d="M151.816 120.208L151.026 121.004L151.822 121.792L152.612 120.996L151.816 120.208Z" fill="#207739"/>
<path d="M151.811 122.996L151.021 123.791L151.817 124.58L152.607 123.784L151.811 122.996Z" fill="#207739"/>
<path d="M151.838 125.797L151.048 126.593L151.844 127.381L152.634 126.586L151.838 125.797Z" fill="#207739"/>
<path d="M151.843 128.591L151.053 129.387L151.849 130.175L152.639 129.38L151.843 128.591Z" fill="#207739"/>
<path d="M151.847 131.357L151.056 132.152L151.852 132.941L152.643 132.145L151.847 131.357Z" fill="#207739"/>
<path d="M151.871 134.157L151.081 134.952L151.877 135.741L152.667 134.945L151.871 134.157Z" fill="#207739"/>
<path d="M151.875 136.953L151.085 137.749L151.881 138.537L152.671 137.742L151.875 136.953Z" fill="#207739"/>
<path d="M151.902 139.753L151.111 140.548L151.907 141.337L152.698 140.541L151.902 139.753Z" fill="#207739"/>
<path d="M151.905 142.518L151.115 143.314L151.911 144.102L152.701 143.306L151.905 142.518Z" fill="#207739"/>
<path d="M151.909 145.315L151.118 146.11L151.914 146.898L152.705 146.103L151.909 145.315Z" fill="#207739"/>
<path d="M151.913 148.121L151.123 148.917L151.919 149.705L152.709 148.909L151.913 148.121Z" fill="#207739"/>
<path d="M151.932 150.901L151.142 151.697L151.938 152.485L152.728 151.69L151.932 150.901Z" fill="#207739"/>
<path d="M151.926 153.701L151.136 154.497L151.932 155.285L152.722 154.489L151.926 153.701Z" fill="#207739"/>
<path d="M151.945 156.483L151.155 157.279L151.951 158.067L152.741 157.271L151.945 156.483Z" fill="#207739"/>
<path d="M151.967 159.285L151.176 160.08L151.972 160.869L152.763 160.073L151.967 159.285Z" fill="#207739"/>
<path d="M151.977 162.077L151.187 162.873L151.983 163.661L152.773 162.866L151.977 162.077Z" fill="#207739"/>
<path d="M151.979 164.844L151.189 165.64L151.985 166.428L152.775 165.632L151.979 164.844Z" fill="#207739"/>
<path d="M148.998 114.655L148.208 115.451L149.004 116.239L149.794 115.443L148.998 114.655Z" fill="#207739"/>
<path d="M149.002 117.422L148.212 118.217L149.008 119.006L149.798 118.21L149.002 117.422Z" fill="#207739"/>
<path d="M149.027 120.222L148.236 121.017L149.032 121.805L149.823 121.01L149.027 120.222Z" fill="#207739"/>
<path d="M149.028 123.018L148.237 123.813L149.033 124.602L149.824 123.806L149.028 123.018Z" fill="#207739"/>
<path d="M149.055 125.819L148.265 126.614L149.061 127.403L149.851 126.607L149.055 125.819Z" fill="#207739"/>
<path d="M149.059 128.583L148.268 129.379L149.064 130.167L149.855 129.372L149.059 128.583Z" fill="#207739"/>
<path d="M149.062 131.379L148.271 132.174L149.067 132.963L149.858 132.167L149.062 131.379Z" fill="#207739"/>
<path d="M149.086 134.179L148.296 134.975L149.092 135.763L149.882 134.967L149.086 134.179Z" fill="#207739"/>
<path d="M149.087 136.967L148.297 137.762L149.093 138.551L149.883 137.755L149.087 136.967Z" fill="#207739"/>
<path d="M149.081 139.766L148.291 140.562L149.087 141.35L149.877 140.554L149.081 139.766Z" fill="#207739"/>
<path d="M149.1 142.547L148.31 143.342L149.106 144.13L149.896 143.335L149.1 142.547Z" fill="#207739"/>
<path d="M149.118 145.326L148.328 146.122L149.124 146.91L149.915 146.114L149.118 145.326Z" fill="#207739"/>
<path d="M149.128 148.143L148.338 148.939L149.134 149.727L149.924 148.932L149.128 148.143Z" fill="#207739"/>
<path d="M149.134 150.907L148.344 151.703L149.14 152.491L149.93 151.695L149.134 150.907Z" fill="#207739"/>
<path d="M149.157 153.708L148.366 154.504L149.162 155.292L149.953 154.497L149.157 153.708Z" fill="#207739"/>
<path d="M149.16 156.505L148.37 157.301L149.166 158.089L149.956 157.293L149.16 156.505Z" fill="#207739"/>
<path d="M149.164 159.27L148.374 160.065L149.17 160.854L149.96 160.058L149.164 159.27Z" fill="#207739"/>
<path d="M149.19 162.069L148.4 162.865L149.196 163.653L149.987 162.857L149.19 162.069Z" fill="#207739"/>
<path d="M149.175 164.872L148.385 165.668L149.181 166.456L149.972 165.66L149.175 164.872Z" fill="#207739"/>
<path d="M146.213 114.647L145.423 115.442L146.219 116.231L147.009 115.435L146.213 114.647Z" fill="#207739"/>
<path d="M146.217 117.444L145.427 118.239L146.223 119.028L147.013 118.232L146.217 117.444Z" fill="#207739"/>
<path d="M146.244 120.243L145.453 121.039L146.249 121.827L147.04 121.032L146.244 120.243Z" fill="#207739"/>
<path d="M146.262 123.023L145.472 123.819L146.268 124.607L147.058 123.811L146.262 123.023Z" fill="#207739"/>
<path d="M146.251 125.804L145.46 126.6L146.256 127.388L147.047 126.593L146.251 125.804Z" fill="#207739"/>
<path d="M146.253 128.612L145.463 129.408L146.259 130.196L147.049 129.4L146.253 128.612Z" fill="#207739"/>
<path d="M146.272 131.392L145.482 132.187L146.278 132.976L147.068 132.18L146.272 131.392Z" fill="#207739"/>
<path d="M146.283 134.207L145.493 135.002L146.289 135.791L147.079 134.995L146.283 134.207Z" fill="#207739"/>
<path d="M146.287 136.973L145.497 137.769L146.293 138.557L147.083 137.761L146.287 136.973Z" fill="#207739"/>
<path d="M146.306 139.753L145.515 140.548L146.311 141.337L147.102 140.541L146.306 139.753Z" fill="#207739"/>
<path d="M146.313 142.569L145.523 143.365L146.319 144.153L147.109 143.357L146.313 142.569Z" fill="#207739"/>
<path d="M146.319 145.333L145.528 146.128L146.324 146.917L147.115 146.121L146.319 145.333Z" fill="#207739"/>
<path d="M146.346 148.134L145.556 148.93L146.352 149.718L147.142 148.923L146.346 148.134Z" fill="#207739"/>
<path d="M146.349 150.929L145.558 151.725L146.354 152.513L147.145 151.717L146.349 150.929Z" fill="#207739"/>
<path d="M146.347 153.716L145.557 154.511L146.353 155.3L147.143 154.504L146.347 153.716Z" fill="#207739"/>
<path d="M146.356 156.503L145.565 157.299L146.361 158.087L147.152 157.291L146.356 156.503Z" fill="#207739"/>
<path d="M146.36 159.297L145.57 160.093L146.366 160.881L147.156 160.085L146.36 159.297Z" fill="#207739"/>
<path d="M146.385 162.097L145.595 162.893L146.391 163.681L147.181 162.886L146.385 162.097Z" fill="#207739"/>
<path d="M146.404 164.878L145.614 165.673L146.41 166.462L147.2 165.666L146.404 164.878Z" fill="#207739"/>
<path d="M143.426 114.67L142.636 115.465L143.432 116.254L144.222 115.458L143.426 114.67Z" fill="#207739"/>
<path d="M143.427 117.455L142.636 118.251L143.433 119.039L144.223 118.244L143.427 117.455Z" fill="#207739"/>
<path d="M143.436 120.272L142.646 121.068L143.442 121.856L144.233 121.06L143.436 120.272Z" fill="#207739"/>
<path d="M143.442 123.036L142.651 123.832L143.447 124.62L144.238 123.825L143.442 123.036Z" fill="#207739"/>
<path d="M143.46 125.816L142.67 126.612L143.466 127.4L144.256 126.604L143.46 125.816Z" fill="#207739"/>
<path d="M143.47 128.634L142.68 129.429L143.476 130.218L144.266 129.422L143.47 128.634Z" fill="#207739"/>
<path d="M143.474 131.398L142.683 132.193L143.48 132.982L144.27 132.186L143.474 131.398Z" fill="#207739"/>
<path d="M143.498 134.198L142.708 134.994L143.504 135.782L144.295 134.986L143.498 134.198Z" fill="#207739"/>
<path d="M143.506 137.014L142.716 137.809L143.512 138.598L144.302 137.802L143.506 137.014Z" fill="#207739"/>
<path d="M143.521 139.775L142.73 140.571L143.527 141.359L144.317 140.564L143.521 139.775Z" fill="#207739"/>
<path d="M143.51 142.566L142.72 143.362L143.516 144.15L144.306 143.354L143.51 142.566Z" fill="#207739"/>
<path d="M143.515 145.36L142.725 146.156L143.521 146.944L144.311 146.149L143.515 145.36Z" fill="#207739"/>
<path d="M143.541 148.163L142.75 148.959L143.546 149.747L144.337 148.951L143.541 148.163Z" fill="#207739"/>
<path d="M143.559 150.943L142.769 151.738L143.565 152.527L144.355 151.731L143.559 150.943Z" fill="#207739"/>
<path d="M143.547 153.722L142.757 154.518L143.553 155.306L144.343 154.511L143.547 153.722Z" fill="#207739"/>
<path d="M143.574 156.522L142.784 157.317L143.58 158.106L144.37 157.31L143.574 156.522Z" fill="#207739"/>
<path d="M143.593 159.304L142.802 160.1L143.599 160.888L144.389 160.092L143.593 159.304Z" fill="#207739"/>
<path d="M143.6 162.119L142.81 162.915L143.606 163.703L144.396 162.908L143.6 162.119Z" fill="#207739"/>
<path d="M143.606 164.884L142.815 165.679L143.611 166.468L144.402 165.672L143.606 164.884Z" fill="#207739"/>
<path d="M140.623 114.697L139.833 115.493L140.629 116.281L141.419 115.486L140.623 114.697Z" fill="#207739"/>
<path d="M140.626 117.462L139.836 118.258L140.632 119.046L141.422 118.25L140.626 117.462Z" fill="#207739"/>
<path d="M140.641 120.274L139.851 121.069L140.647 121.858L141.437 121.062L140.641 120.274Z" fill="#207739"/>
<path d="M140.655 123.059L139.865 123.854L140.661 124.643L141.451 123.847L140.655 123.059Z" fill="#207739"/>
<path d="M140.675 125.838L139.885 126.634L140.681 127.422L141.471 126.626L140.675 125.838Z" fill="#207739"/>
<path d="M140.67 128.64L139.88 129.435L140.676 130.224L141.466 129.428L140.67 128.64Z" fill="#207739"/>
<path d="M140.689 131.42L139.899 132.216L140.695 133.004L141.485 132.209L140.689 131.42Z" fill="#207739"/>
<path d="M140.687 134.206L139.897 135.002L140.693 135.79L141.483 134.994L140.687 134.206Z" fill="#207739"/>
<path d="M140.712 137.007L139.922 137.802L140.718 138.591L141.508 137.795L140.712 137.007Z" fill="#207739"/>
<path d="M140.702 139.787L139.912 140.583L140.708 141.371L141.498 140.576L140.702 139.787Z" fill="#207739"/>
<path d="M140.727 142.588L139.937 143.383L140.733 144.172L141.523 143.376L140.727 142.588Z" fill="#207739"/>
<path d="M140.745 145.368L139.955 146.164L140.751 146.952L141.541 146.156L140.745 145.368Z" fill="#207739"/>
<path d="M140.749 148.163L139.958 148.959L140.755 149.747L141.545 148.951L140.749 148.163Z" fill="#207739"/>
<path d="M140.759 150.95L139.969 151.745L140.765 152.534L141.555 151.738L140.759 150.95Z" fill="#207739"/>
<path d="M140.782 153.748L139.991 154.544L140.787 155.332L141.577 154.537L140.782 153.748Z" fill="#207739"/>
<path d="M140.785 156.546L139.995 157.341L140.791 158.13L141.581 157.334L140.785 156.546Z" fill="#207739"/>
<path d="M140.773 159.317L139.983 160.113L140.779 160.901L141.569 160.105L140.773 159.317Z" fill="#207739"/>
<path d="M140.789 162.097L139.999 162.893L140.795 163.681L141.585 162.886L140.789 162.097Z" fill="#207739"/>
<path d="M140.8 164.912L140.01 165.707L140.806 166.496L141.597 165.7L140.8 164.912Z" fill="#207739"/>
<path d="M137.825 114.703L137.035 115.499L137.831 116.287L138.621 115.492L137.825 114.703Z" fill="#207739"/>
<path d="M137.843 117.483L137.053 118.279L137.849 119.067L138.639 118.271L137.843 117.483Z" fill="#207739"/>
<path d="M137.862 120.263L137.072 121.059L137.868 121.847L138.658 121.051L137.862 120.263Z" fill="#207739"/>
<path d="M137.85 123.087L137.06 123.883L137.856 124.671L138.646 123.876L137.85 123.087Z" fill="#207739"/>
<path d="M137.855 125.851L137.065 126.647L137.861 127.435L138.651 126.639L137.855 125.851Z" fill="#207739"/>
<path d="M137.88 128.651L137.09 129.447L137.886 130.235L138.676 129.44L137.88 128.651Z" fill="#207739"/>
<path d="M137.884 131.448L137.093 132.244L137.889 133.032L138.68 132.237L137.884 131.448Z" fill="#207739"/>
<path d="M137.904 134.228L137.114 135.024L137.91 135.812L138.7 135.016L137.904 134.228Z" fill="#207739"/>
<path d="M137.914 137.012L137.123 137.808L137.919 138.596L138.71 137.801L137.914 137.012Z" fill="#207739"/>
<path d="M137.917 139.809L137.127 140.605L137.923 141.393L138.713 140.598L137.917 139.809Z" fill="#207739"/>
<path d="M137.944 142.609L137.154 143.404L137.95 144.193L138.74 143.397L137.944 142.609Z" fill="#207739"/>
<path d="M137.946 145.374L137.155 146.17L137.951 146.958L138.742 146.163L137.946 145.374Z" fill="#207739"/>
<path d="M137.928 148.176L137.138 148.972L137.934 149.76L138.724 148.964L137.928 148.176Z" fill="#207739"/>
<path d="M137.954 150.978L137.164 151.773L137.96 152.562L138.75 151.766L137.954 150.978Z" fill="#207739"/>
<path d="M137.972 153.758L137.182 154.554L137.978 155.342L138.768 154.546L137.972 153.758Z" fill="#207739"/>
<path d="M137.969 156.559L137.179 157.354L137.975 158.143L138.765 157.347L137.969 156.559Z" fill="#207739"/>
<path d="M137.987 159.339L137.197 160.134L137.993 160.923L138.784 160.127L137.987 159.339Z" fill="#207739"/>
<path d="M138.006 162.119L137.216 162.915L138.012 163.703L138.802 162.907L138.006 162.119Z" fill="#207739"/>
<path d="M138.018 164.934L137.227 165.729L138.023 166.518L138.814 165.722L138.018 164.934Z" fill="#207739"/>
<path d="M135.029 114.696L134.239 115.492L135.035 116.28L135.825 115.485L135.029 114.696Z" fill="#207739"/>
<path d="M135.038 117.511L134.248 118.307L135.044 119.095L135.834 118.3L135.038 117.511Z" fill="#207739"/>
<path d="M135.056 120.292L134.266 121.087L135.062 121.876L135.852 121.08L135.056 120.292Z" fill="#207739"/>
<path d="M135.067 123.078L134.277 123.874L135.073 124.662L135.863 123.867L135.067 123.078Z" fill="#207739"/>
<path d="M135.07 125.874L134.28 126.669L135.076 127.457L135.866 126.662L135.07 125.874Z" fill="#207739"/>
<path d="M135.089 128.653L134.298 129.449L135.094 130.237L135.885 129.441L135.089 128.653Z" fill="#207739"/>
<path d="M135.1 131.435L134.31 132.231L135.105 133.019L135.896 132.224L135.1 131.435Z" fill="#207739"/>
<path d="M135.102 134.235L134.312 135.031L135.108 135.819L135.898 135.023L135.102 134.235Z" fill="#207739"/>
<path d="M135.109 137.041L134.318 137.837L135.115 138.625L135.905 137.829L135.109 137.041Z" fill="#207739"/>
<path d="M135.127 139.821L134.337 140.616L135.133 141.405L135.923 140.609L135.127 139.821Z" fill="#207739"/>
<path d="M135.115 142.603L134.325 143.398L135.121 144.187L135.911 143.391L135.115 142.603Z" fill="#207739"/>
<path d="M135.142 145.402L134.352 146.198L135.148 146.986L135.938 146.191L135.142 145.402Z" fill="#207739"/>
<path d="M135.161 148.182L134.371 148.978L135.167 149.766L135.957 148.97L135.161 148.182Z" fill="#207739"/>
<path d="M135.169 151L134.379 151.795L135.175 152.584L135.965 151.788L135.169 151Z" fill="#207739"/>
<path d="M135.174 153.764L134.384 154.559L135.18 155.348L135.97 154.552L135.174 153.764Z" fill="#207739"/>
<path d="M135.193 156.544L134.402 157.34L135.199 158.128L135.989 157.332L135.193 156.544Z" fill="#207739"/>
<path d="M135.202 159.359L134.412 160.155L135.208 160.943L135.998 160.147L135.202 159.359Z" fill="#207739"/>
<path d="M135.201 162.147L134.411 162.943L135.207 163.731L135.997 162.936L135.201 162.147Z" fill="#207739"/>
<path d="M135.211 164.932L134.421 165.728L135.217 166.516L136.007 165.721L135.211 164.932Z" fill="#207739"/>
<path d="M132.242 114.717L131.451 115.513L132.247 116.301L133.038 115.506L132.242 114.717Z" fill="#207739"/>
<path d="M132.256 117.499L131.466 118.294L132.262 119.083L133.052 118.287L132.256 117.499Z" fill="#207739"/>
<path d="M132.257 120.3L131.467 121.096L132.263 121.884L133.053 121.088L132.257 120.3Z" fill="#207739"/>
<path d="M132.284 123.099L131.494 123.895L132.29 124.683L133.08 123.888L132.284 123.099Z" fill="#207739"/>
<path d="M132.303 125.88L131.512 126.675L132.308 127.464L133.099 126.668L132.303 125.88Z" fill="#207739"/>
<path d="M132.272 128.665L131.482 129.461L132.278 130.249L133.068 129.454L132.272 128.665Z" fill="#207739"/>
<path d="M132.3 131.483L131.51 132.278L132.306 133.067L133.096 132.271L132.3 131.483Z" fill="#207739"/>
<path d="M132.314 134.248L131.524 135.043L132.32 135.832L133.11 135.036L132.314 134.248Z" fill="#207739"/>
<path d="M132.324 137.063L131.533 137.859L132.329 138.647L133.12 137.851L132.324 137.063Z" fill="#207739"/>
<path d="M132.328 139.83L131.538 140.625L132.334 141.414L133.124 140.618L132.328 139.83Z" fill="#207739"/>
<path d="M132.346 142.607L131.555 143.403L132.351 144.191L133.142 143.396L132.346 142.607Z" fill="#207739"/>
<path d="M132.357 145.424L131.567 146.22L132.363 147.008L133.153 146.212L132.357 145.424Z" fill="#207739"/>
<path d="M132.378 148.204L131.588 148.999L132.384 149.788L133.174 148.992L132.378 148.204Z" fill="#207739"/>
<path d="M132.386 150.989L131.595 151.785L132.391 152.573L133.182 151.777L132.386 150.989Z" fill="#207739"/>
<path d="M132.369 153.792L131.579 154.588L132.375 155.376L133.165 154.58L132.369 153.792Z" fill="#207739"/>
<path d="M132.388 156.572L131.597 157.368L132.393 158.156L133.184 157.361L132.388 156.572Z" fill="#207739"/>
<path d="M132.399 159.357L131.609 160.152L132.405 160.941L133.195 160.145L132.399 159.357Z" fill="#207739"/>
<path d="M132.401 162.154L131.611 162.949L132.407 163.738L133.197 162.942L132.401 162.154Z" fill="#207739"/>
<path d="M132.426 164.954L131.636 165.75L132.432 166.538L133.222 165.743L132.426 164.954Z" fill="#207739"/>
<path d="M129.446 114.724L128.656 115.52L129.452 116.308L130.242 115.513L129.446 114.724Z" fill="#207739"/>
<path d="M129.448 117.532L128.658 118.327L129.454 119.116L130.244 118.32L129.448 117.532Z" fill="#207739"/>
<path d="M129.469 120.311L128.679 121.107L129.475 121.895L130.265 121.1L129.469 120.311Z" fill="#207739"/>
<path d="M129.472 123.108L128.682 123.904L129.478 124.692L130.269 123.896L129.472 123.108Z" fill="#207739"/>
<path d="M129.482 125.893L128.692 126.688L129.488 127.477L130.278 126.681L129.482 125.893Z" fill="#207739"/>
<path d="M129.501 128.673L128.711 129.469L129.507 130.257L130.297 129.461L129.501 128.673Z" fill="#207739"/>
<path d="M129.512 131.488L128.722 132.283L129.518 133.072L130.308 132.276L129.512 131.488Z" fill="#207739"/>
<path d="M129.531 134.269L128.741 135.065L129.537 135.853L130.327 135.058L129.531 134.269Z" fill="#207739"/>
<path d="M129.534 137.034L128.744 137.83L129.54 138.618L130.331 137.822L129.534 137.034Z" fill="#207739"/>
<path d="M129.544 139.849L128.754 140.645L129.55 141.433L130.34 140.637L129.544 139.849Z" fill="#207739"/>
<path d="M129.561 142.625L128.771 143.421L129.567 144.209L130.357 143.414L129.561 142.625Z" fill="#207739"/>
<path d="M129.553 145.422L128.762 146.218L129.558 147.006L130.349 146.21L129.553 145.422Z" fill="#207739"/>
<path d="M129.56 148.236L128.769 149.032L129.565 149.82L130.356 149.025L129.56 148.236Z" fill="#207739"/>
<path d="M129.574 150.997L128.784 151.793L129.58 152.581L130.37 151.785L129.574 150.997Z" fill="#207739"/>
<path d="M129.601 153.799L128.811 154.594L129.607 155.383L130.397 154.587L129.601 153.799Z" fill="#207739"/>
<path d="M129.59 156.578L128.799 157.374L129.595 158.162L130.386 157.367L129.59 156.578Z" fill="#207739"/>
<path d="M129.614 159.379L128.824 160.174L129.62 160.963L130.41 160.167L129.614 159.379Z" fill="#207739"/>
<path d="M129.633 162.159L128.843 162.954L129.639 163.743L130.429 162.947L129.633 162.159Z" fill="#207739"/>
<path d="M129.638 164.955L128.848 165.75L129.644 166.539L130.434 165.743L129.638 164.955Z" fill="#207739"/>
<path d="M126.641 114.753L125.85 115.549L126.647 116.337L127.437 115.541L126.641 114.753Z" fill="#207739"/>
<path d="M126.659 117.533L125.869 118.328L126.665 119.117L127.455 118.321L126.659 117.533Z" fill="#207739"/>
<path d="M126.684 120.333L125.894 121.129L126.69 121.917L127.48 121.122L126.684 120.333Z" fill="#207739"/>
<path d="M126.671 123.115L125.881 123.911L126.677 124.699L127.467 123.903L126.671 123.115Z" fill="#207739"/>
<path d="M126.698 125.915L125.907 126.71L126.703 127.499L127.494 126.703L126.698 125.915Z" fill="#207739"/>
<path d="M126.716 128.689L125.926 129.484L126.722 130.273L127.512 129.477L126.716 128.689Z" fill="#207739"/>
<path d="M126.692 131.502L125.902 132.298L126.698 133.086L127.488 132.29L126.692 131.502Z" fill="#207739"/>
<path d="M126.711 134.282L125.921 135.078L126.717 135.866L127.507 135.071L126.711 134.282Z" fill="#207739"/>
<path d="M126.729 137.062L125.939 137.858L126.735 138.646L127.525 137.85L126.729 137.062Z" fill="#207739"/>
<path d="M126.741 139.877L125.95 140.673L126.746 141.461L127.537 140.666L126.741 139.877Z" fill="#207739"/>
<path d="M126.744 142.641L125.954 143.437L126.75 144.225L127.54 143.43L126.744 142.641Z" fill="#207739"/>
<path d="M126.769 145.444L125.979 146.239L126.775 147.028L127.565 146.232L126.769 145.444Z" fill="#207739"/>
<path d="M126.786 148.224L125.996 149.019L126.792 149.808L127.582 149.012L126.786 148.224Z" fill="#207739"/>
<path d="M126.791 151.019L126.001 151.815L126.797 152.603L127.587 151.807L126.791 151.019Z" fill="#207739"/>
<path d="M126.8 153.806L126.01 154.602L126.806 155.39L127.596 154.594L126.8 153.806Z" fill="#207739"/>
<path d="M126.82 156.585L126.03 157.381L126.826 158.169L127.616 157.374L126.82 156.585Z" fill="#207739"/>
<path d="M126.809 159.407L126.019 160.203L126.815 160.991L127.605 160.195L126.809 159.407Z" fill="#207739"/>
<path d="M126.829 162.186L126.039 162.982L126.835 163.77L127.625 162.975L126.829 162.186Z" fill="#207739"/>
<path d="M126.833 164.953L126.043 165.749L126.839 166.537L127.629 165.741L126.833 164.953Z" fill="#207739"/>
<path d="M123.87 114.758L123.08 115.554L123.876 116.342L124.666 115.546L123.87 114.758Z" fill="#207739"/>
<path d="M123.859 117.54L123.069 118.335L123.865 119.124L124.655 118.328L123.859 117.54Z" fill="#207739"/>
<path d="M123.886 120.339L123.096 121.135L123.892 121.923L124.682 121.127L123.886 120.339Z" fill="#207739"/>
<path d="M123.882 123.126L123.092 123.922L123.888 124.71L124.678 123.914L123.882 123.126Z" fill="#207739"/>
<path d="M123.894 125.943L123.104 126.738L123.9 127.527L124.69 126.731L123.894 125.943Z" fill="#207739"/>
<path d="M123.898 128.707L123.108 129.503L123.904 130.291L124.694 129.495L123.898 128.707Z" fill="#207739"/>
<path d="M123.916 131.488L123.126 132.283L123.922 133.072L124.712 132.276L123.916 131.488Z" fill="#207739"/>
<path d="M123.926 134.304L123.136 135.1L123.932 135.888L124.722 135.093L123.926 134.304Z" fill="#207739"/>
<path d="M123.946 137.084L123.156 137.88L123.952 138.668L124.742 137.872L123.946 137.084Z" fill="#207739"/>
<path d="M123.954 139.869L123.164 140.665L123.96 141.453L124.75 140.657L123.954 139.869Z" fill="#207739"/>
<path d="M123.96 142.665L123.169 143.461L123.965 144.249L124.756 143.454L123.96 142.665Z" fill="#207739"/>
<path d="M123.977 145.444L123.187 146.239L123.983 147.028L124.774 146.232L123.977 145.444Z" fill="#207739"/>
<path d="M123.983 148.252L123.193 149.048L123.989 149.836L124.779 149.04L123.983 148.252Z" fill="#207739"/>
<path d="M123.971 151.032L123.18 151.827L123.976 152.616L124.767 151.82L123.971 151.032Z" fill="#207739"/>
<path d="M123.991 153.83L123.201 154.625L123.996 155.414L124.787 154.618L123.991 153.83Z" fill="#207739"/>
<path d="M124.015 156.614L123.224 157.41L124.021 158.198L124.811 157.402L124.015 156.614Z" fill="#207739"/>
<path d="M124.018 159.409L123.228 160.205L124.024 160.993L124.814 160.197L124.018 159.409Z" fill="#207739"/>
<path d="M124.029 162.193L123.239 162.989L124.035 163.777L124.825 162.981L124.029 162.193Z" fill="#207739"/>
<path d="M124.046 164.974L123.256 165.769L124.052 166.558L124.842 165.762L124.046 164.974Z" fill="#207739"/>
<path d="M121.05 114.771L120.26 115.567L121.056 116.355L121.846 115.559L121.05 114.771Z" fill="#207739"/>
<path d="M121.069 117.551L120.279 118.346L121.075 119.135L121.865 118.339L121.069 117.551Z" fill="#207739"/>
<path d="M121.081 120.367L120.29 121.163L121.086 121.951L121.877 121.156L121.081 120.367Z" fill="#207739"/>
<path d="M121.101 123.147L120.311 123.942L121.107 124.731L121.897 123.935L121.101 123.147Z" fill="#207739"/>
<path d="M121.116 125.949L120.326 126.744L121.122 127.532L121.912 126.737L121.116 125.949Z" fill="#207739"/>
<path d="M121.114 128.729L120.324 129.524L121.12 130.313L121.91 129.517L121.114 128.729Z" fill="#207739"/>
<path d="M121.131 131.509L120.341 132.305L121.137 133.093L121.927 132.297L121.131 131.509Z" fill="#207739"/>
<path d="M121.158 134.309L120.367 135.104L121.163 135.892L121.954 135.097L121.158 134.309Z" fill="#207739"/>
<path d="M121.124 137.097L120.334 137.893L121.13 138.681L121.92 137.885L121.124 137.097Z" fill="#207739"/>
<path d="M121.147 139.892L120.357 140.688L121.153 141.476L121.943 140.681L121.147 139.892Z" fill="#207739"/>
<path d="M121.168 142.677L120.377 143.473L121.173 144.261L121.964 143.466L121.168 142.677Z" fill="#207739"/>
<path d="M121.158 145.459L120.368 146.254L121.164 147.043L121.954 146.247L121.158 145.459Z" fill="#207739"/>
<path d="M121.183 148.258L120.393 149.054L121.189 149.842L121.979 149.047L121.183 148.258Z" fill="#207739"/>
<path d="M121.203 151.038L120.413 151.834L121.209 152.622L121.999 151.826L121.203 151.038Z" fill="#207739"/>
<path d="M121.206 153.833L120.416 154.629L121.212 155.417L122.002 154.622L121.206 153.833Z" fill="#207739"/>
<path d="M121.216 156.62L120.426 157.416L121.222 158.204L122.013 157.408L121.216 156.62Z" fill="#207739"/>
<path d="M121.235 159.4L120.445 160.195L121.241 160.984L122.031 160.188L121.235 159.4Z" fill="#207739"/>
<path d="M121.224 162.221L120.434 163.017L121.23 163.805L122.02 163.009L121.224 162.221Z" fill="#207739"/>
<path d="M121.243 165.002L120.453 165.797L121.249 166.586L122.039 165.79L121.243 165.002Z" fill="#207739"/>
</g>
</g>
<g style="mix-blend-mode:multiply" opacity="0.77">
<path d="M153.815 116.733L153.374 125.473L118.871 125.639L118.365 116.904L153.815 116.733Z" fill="#207739"/>
</g>
<path d="M156.898 114.524L156.45 123.243L115.78 123.429L115.259 114.721L156.898 114.524Z" fill="#32B353"/>
<g style="mix-blend-mode:multiply" opacity="0.77">
<path d="M134.447 114.614L134.479 123.338L138.729 123.318L138.697 114.594L134.447 114.614Z" fill="#207739"/>
</g>
<path d="M134.806 114.487L134.995 165.859L138.511 165.842L138.322 114.471L134.806 114.487Z" fill="#1D478E"/>
<path d="M74.375 170.211C74.375 170.914 69.2176 171.485 62.8597 171.485C56.5018 171.485 51.3444 170.914 51.3444 170.211C51.3444 170.199 51.3469 170.186 51.3494 170.173V166.734H74.3674V170.166C74.3725 170.181 74.375 170.196 74.375 170.211Z" fill="#AF8E2F"/>
<path d="M62.858 168.038C69.2177 168.038 74.3733 167.468 74.3733 166.765C74.3733 166.061 69.2177 165.491 62.858 165.491C56.4982 165.491 51.3427 166.061 51.3427 166.765C51.3427 167.468 56.4982 168.038 62.858 168.038Z" fill="#FFD325"/>
<path d="M77.0946 166.059C77.0946 166.762 71.9372 167.333 65.5793 167.333C59.2214 167.333 54.064 166.762 54.064 166.059C54.064 166.047 54.0665 166.034 54.069 166.021V162.582H77.087V166.014C77.0921 166.029 77.0946 166.044 77.0946 166.059Z" fill="#AF8E2F"/>
<path d="M65.5777 163.888C71.9375 163.888 77.093 163.318 77.093 162.615C77.093 161.912 71.9375 161.342 65.5777 161.342C59.218 161.342 54.0624 161.912 54.0624 162.615C54.0624 163.318 59.218 163.888 65.5777 163.888Z" fill="#FFD325"/>
<path d="M76.4648 161.372C76.4648 162.074 71.3073 162.645 64.9494 162.645C58.5915 162.645 53.4341 162.074 53.4341 161.372C53.4341 161.359 53.4366 161.346 53.4392 161.334V157.894H76.4571V161.326C76.4622 161.341 76.4648 161.356 76.4648 161.372Z" fill="#AF8E2F"/>
<path d="M64.9494 159.199C71.3092 159.199 76.4648 158.629 76.4648 157.925C76.4648 157.222 71.3092 156.652 64.9494 156.652C58.5897 156.652 53.4341 157.222 53.4341 157.925C53.4341 158.629 58.5897 159.199 64.9494 159.199Z" fill="#FFD325"/>
<path d="M77.6508 157.223C77.6508 157.926 72.4934 158.496 66.1355 158.496C59.7775 158.496 54.6201 157.926 54.6201 157.223C54.6201 157.21 54.6226 157.198 54.6252 157.185V153.746H77.6432V157.177C77.6482 157.193 77.6508 157.208 77.6508 157.223Z" fill="#AF8E2F"/>
<path d="M66.1355 155.049C72.4952 155.049 77.6508 154.479 77.6508 153.776C77.6508 153.073 72.4952 152.502 66.1355 152.502C59.7757 152.502 54.6201 153.073 54.6201 153.776C54.6201 154.479 59.7757 155.049 66.1355 155.049Z" fill="#FFD325"/>
<path d="M74.0939 153.07C74.0939 153.773 68.9365 154.344 62.5786 154.344C56.2206 154.344 51.0632 153.773 51.0632 153.07C51.0632 153.058 51.0658 153.045 51.0683 153.032V149.593H74.0863V153.025C74.0914 153.04 74.0939 153.055 74.0939 153.07Z" fill="#AF8E2F"/>
<path d="M62.5784 150.899C68.9382 150.899 74.0938 150.329 74.0938 149.626C74.0938 148.923 68.9382 148.353 62.5784 148.353C56.2187 148.353 51.0631 148.923 51.0631 149.626C51.0631 150.329 56.2187 150.899 62.5784 150.899Z" fill="#FFD325"/>
<path d="M74.9308 148.78C74.9308 149.483 69.7734 150.053 63.4155 150.053C57.0576 150.053 51.9001 149.483 51.9001 148.78C51.9001 148.767 51.9027 148.755 51.9052 148.742V145.303H74.9232V148.734C74.9283 148.75 74.9308 148.765 74.9308 148.78Z" fill="#AF8E2F"/>
<path d="M63.4155 146.609C69.7752 146.609 74.9308 146.039 74.9308 145.336C74.9308 144.632 69.7752 144.062 63.4155 144.062C57.0557 144.062 51.9001 144.632 51.9001 145.336C51.9001 146.039 57.0557 146.609 63.4155 146.609Z" fill="#FFD325"/>
<path d="M73.8145 144.039C73.8145 144.741 68.6571 145.312 62.2991 145.312C55.9412 145.312 50.7838 144.741 50.7838 144.039C50.7838 144.026 50.7864 144.013 50.7889 144.001V140.561H73.8069V143.993C73.812 144.008 73.8145 144.023 73.8145 144.039Z" fill="#AF8E2F"/>
<path d="M62.2991 141.867C68.6589 141.867 73.8145 141.297 73.8145 140.594C73.8145 139.891 68.6589 139.321 62.2991 139.321C55.9394 139.321 50.7838 139.891 50.7838 140.594C50.7838 141.297 55.9394 141.867 62.2991 141.867Z" fill="#FFD325"/>
<path d="M136.724 25.1142L139.658 24.8342L140.176 26.6432L136.681 26.9663L136.724 25.1142Z" fill="#FFD325"/>
<path d="M41.1476 121.676L44.0817 121.396L44.5995 123.205L41.1045 123.528L41.1476 121.676Z" fill="#FFD325"/>
<path d="M49.54 71.1443L44.0603 72.6303L50.9423 77.0237L49.54 71.1443Z" fill="#5BC4F0"/>
<path d="M39.6869 139.132L34.2072 140.618L41.0892 145.011L39.6869 139.132Z" fill="#5BC4F0"/>
<path d="M155.657 94.3516L153.877 88.96L149.861 96.0692L155.657 94.3516Z" fill="#5BC4F0"/>
<path d="M31.6665 97.2745C32.2705 96.6499 33.3061 96.5853 33.9749 97.1452C34.6437 97.7052 34.7084 98.6528 34.1043 99.2773C33.5002 99.9019 32.4647 99.9665 31.7959 99.4065C31.1271 98.8466 31.0624 97.899 31.6665 97.2745Z" fill="#5BC4F0"/>
<path d="M66.7229 51.4051L77.143 42.0799L67.7584 37.6434L66.7229 51.4051Z" fill="#FFDF38"/>
<path d="M95.5063 48.9893L91.1641 54.2751L92.0508 56.5868L98.2205 49.0609L95.5063 48.9893Z" fill="#FFD325"/>
</svg>
