<svg width="293" height="232" viewBox="0 0 293 232" fill="none" xmlns="http://www.w3.org/2000/svg">
<g opacity="0.88">
<g opacity="0.54">
<path d="M237.534 82.1944C237.945 82.1944 238.278 81.8609 238.278 81.4496C238.278 81.0383 237.945 80.7048 237.534 80.7048C237.123 80.7048 236.79 81.0383 236.79 81.4496C236.79 81.8609 237.123 82.1944 237.534 82.1944Z" fill="#161742"/>
<path d="M216.674 115.534C217.037 115.534 217.331 115.239 217.331 114.876C217.331 114.512 217.037 114.218 216.674 114.218C216.31 114.218 216.016 114.512 216.016 114.876C216.016 115.239 216.31 115.534 216.674 115.534Z" fill="#161742"/>
<path d="M251.885 103.662C252.299 103.662 252.635 103.326 252.635 102.911C252.635 102.496 252.299 102.159 251.885 102.159C251.47 102.159 251.134 102.496 251.134 102.911C251.134 103.326 251.47 103.662 251.885 103.662Z" fill="#161742"/>
<path d="M235.584 111.377C235.972 111.377 236.286 111.062 236.286 110.674C236.286 110.286 235.972 109.971 235.584 109.971C235.196 109.971 234.882 110.286 234.882 110.674C234.882 111.062 235.196 111.377 235.584 111.377Z" fill="#161742"/>
<path d="M217.575 84.1906C218.073 84.1906 218.476 83.7868 218.476 83.2886C218.476 82.7904 218.073 82.3865 217.575 82.3865C217.077 82.3865 216.674 82.7904 216.674 83.2886C216.674 83.7868 217.077 84.1906 217.575 84.1906Z" fill="#161742"/>
<path d="M223.95 52.7703C224.371 52.7703 224.713 52.4282 224.713 52.0062C224.713 51.5843 224.371 51.2422 223.95 51.2422C223.528 51.2422 223.186 51.5843 223.186 52.0062C223.186 52.4282 223.528 52.7703 223.95 52.7703Z" fill="#161742"/>
<path d="M214.22 65.3959C214.501 65.3959 214.73 65.1673 214.73 64.8854C214.73 64.6035 214.501 64.375 214.22 64.375C213.938 64.375 213.71 64.6035 213.71 64.8854C213.71 65.1673 213.938 65.3959 214.22 65.3959Z" fill="#161742"/>
<path d="M224.816 111.374C225.294 111.374 225.681 110.986 225.681 110.507C225.681 110.029 225.294 109.641 224.816 109.641C224.337 109.641 223.95 110.029 223.95 110.507C223.95 110.986 224.337 111.374 224.816 111.374Z" fill="#161742"/>
<path d="M211.498 102.966C211.916 102.966 212.254 102.626 212.254 102.208C212.254 101.79 211.916 101.45 211.498 101.45C211.08 101.45 210.741 101.79 210.741 102.208C210.741 102.626 211.08 102.966 211.498 102.966Z" fill="#161742"/>
</g>
<g opacity="0.54">
<path d="M185.923 82.1944C186.334 82.1944 186.667 81.8609 186.667 81.4496C186.667 81.0383 186.334 80.7048 185.923 80.7048C185.512 80.7048 185.179 81.0383 185.179 81.4496C185.179 81.8609 185.512 82.1944 185.923 82.1944Z" fill="#161742"/>
<path d="M209.958 83.2568C210.438 83.2568 210.827 82.8673 210.827 82.3868C210.827 81.9063 210.438 81.5168 209.958 81.5168C209.478 81.5168 209.089 81.9063 209.089 82.3868C209.089 82.8673 209.478 83.2568 209.958 83.2568Z" fill="#161742"/>
<path d="M165.066 115.534C165.429 115.534 165.724 115.239 165.724 114.876C165.724 114.512 165.429 114.218 165.066 114.218C164.703 114.218 164.409 114.512 164.409 114.876C164.409 115.239 164.703 115.534 165.066 115.534Z" fill="#161742"/>
<path d="M200.274 103.662C200.688 103.662 201.024 103.326 201.024 102.911C201.024 102.496 200.688 102.159 200.274 102.159C199.859 102.159 199.523 102.496 199.523 102.911C199.523 103.326 199.859 103.662 200.274 103.662Z" fill="#161742"/>
<path d="M183.976 111.377C184.364 111.377 184.679 111.062 184.679 110.674C184.679 110.286 184.364 109.971 183.976 109.971C183.588 109.971 183.274 110.286 183.274 110.674C183.274 111.062 183.588 111.377 183.976 111.377Z" fill="#161742"/>
<path d="M165.964 84.1906C166.461 84.1906 166.865 83.7868 166.865 83.2886C166.865 82.7904 166.461 82.3865 165.964 82.3865C165.466 82.3865 165.062 82.7904 165.062 83.2886C165.062 83.7868 165.466 84.1906 165.964 84.1906Z" fill="#161742"/>
<path d="M175.866 77.5601C176.46 77.5601 176.941 77.0786 176.941 76.4846C176.941 75.8907 176.46 75.4092 175.866 75.4092C175.273 75.4092 174.792 75.8907 174.792 76.4846C174.792 77.0786 175.273 77.5601 175.866 77.5601Z" fill="#161742"/>
<path d="M202.743 89.4247C203.064 89.4247 203.323 89.1645 203.323 88.8436C203.323 88.5227 203.064 88.2626 202.743 88.2626C202.422 88.2626 202.163 88.5227 202.163 88.8436C202.163 89.1645 202.422 89.4247 202.743 89.4247Z" fill="#161742"/>
<path d="M172.339 52.7703C172.76 52.7703 173.102 52.4282 173.102 52.0062C173.102 51.5843 172.76 51.2422 172.339 51.2422C171.917 51.2422 171.575 51.5843 171.575 52.0062C171.575 52.4282 171.917 52.7703 172.339 52.7703Z" fill="#161742"/>
<path d="M190.079 55.8192C190.405 55.8192 190.669 55.5547 190.669 55.2285C190.669 54.9023 190.405 54.6378 190.079 54.6378C189.753 54.6378 189.489 54.9023 189.489 55.2285C189.489 55.5547 189.753 55.8192 190.079 55.8192Z" fill="#161742"/>
<path d="M162.609 65.3959C162.891 65.3959 163.119 65.1673 163.119 64.8854C163.119 64.6035 162.891 64.375 162.609 64.375C162.327 64.375 162.099 64.6035 162.099 64.8854C162.099 65.1673 162.327 65.3959 162.609 65.3959Z" fill="#161742"/>
<path d="M193.664 107.449C194.162 107.449 194.565 107.045 194.565 106.547C194.565 106.049 194.162 105.645 193.664 105.645C193.167 105.645 192.763 106.049 192.763 106.547C192.763 107.045 193.167 107.449 193.664 107.449Z" fill="#161742"/>
<path d="M173.204 111.374C173.682 111.374 174.07 110.986 174.07 110.507C174.07 110.029 173.682 109.641 173.204 109.641C172.726 109.641 172.338 110.029 172.338 110.507C172.338 110.986 172.726 111.374 173.204 111.374Z" fill="#161742"/>
<path d="M159.887 102.966C160.305 102.966 160.644 102.626 160.644 102.208C160.644 101.79 160.305 101.45 159.887 101.45C159.469 101.45 159.13 101.79 159.13 102.208C159.13 102.626 159.469 102.966 159.887 102.966Z" fill="#161742"/>
</g>
<g opacity="0.54">
<path d="M30.7039 168.091C31.4549 168.091 32.0637 167.482 32.0637 166.73C32.0637 165.978 31.4549 165.369 30.7039 165.369C29.953 165.369 29.3442 165.978 29.3442 166.73C29.3442 167.482 29.953 168.091 30.7039 168.091Z" fill="#161742"/>
<path d="M46.4115 148.879C46.8224 148.879 47.1555 148.546 47.1555 148.134C47.1555 147.723 46.8224 147.39 46.4115 147.39C46.0006 147.39 45.6675 147.723 45.6675 148.134C45.6675 148.546 46.0006 148.879 46.4115 148.879Z" fill="#161742"/>
<path d="M49.9777 157.292C50.6277 157.292 51.1546 156.764 51.1546 156.113C51.1546 155.463 50.6277 154.935 49.9777 154.935C49.3277 154.935 48.8008 155.463 48.8008 156.113C48.8008 156.764 49.3277 157.292 49.9777 157.292Z" fill="#161742"/>
<path d="M83.9028 163.636C84.3827 163.636 84.7718 163.247 84.7718 162.766C84.7718 162.286 84.3827 161.896 83.9028 161.896C83.4228 161.896 83.0337 162.286 83.0337 162.766C83.0337 163.247 83.4228 163.636 83.9028 163.636Z" fill="#161742"/>
<path d="M63.2956 166.483C63.6587 166.483 63.953 166.188 63.953 165.825C63.953 165.461 63.6587 165.167 63.2956 165.167C62.9325 165.167 62.6382 165.461 62.6382 165.825C62.6382 166.188 62.9325 166.483 63.2956 166.483Z" fill="#161742"/>
<path d="M43.9167 172.038C44.3045 172.038 44.619 171.724 44.619 171.335C44.619 170.947 44.3045 170.632 43.9167 170.632C43.5288 170.632 43.2144 170.947 43.2144 171.335C43.2144 171.724 43.5288 172.038 43.9167 172.038Z" fill="#161742"/>
<path d="M26.4524 150.879C26.9501 150.879 27.3535 150.475 27.3535 149.977C27.3535 149.479 26.9501 149.075 26.4524 149.075C25.9547 149.075 25.5513 149.479 25.5513 149.977C25.5513 150.475 25.9547 150.879 26.4524 150.879Z" fill="#161742"/>
<path d="M36.3551 144.248C36.9484 144.248 37.4294 143.767 37.4294 143.173C37.4294 142.579 36.9484 142.097 36.3551 142.097C35.7617 142.097 35.2808 142.579 35.2808 143.173C35.2808 143.767 35.7617 144.248 36.3551 144.248Z" fill="#161742"/>
<path d="M58.6298 170.235C58.9503 170.235 59.2102 169.975 59.2102 169.654C59.2102 169.333 58.9503 169.073 58.6298 169.073C58.3092 169.073 58.0493 169.333 58.0493 169.654C58.0493 169.975 58.3092 170.235 58.6298 170.235Z" fill="#161742"/>
<path d="M32.8271 119.459C33.2486 119.459 33.5903 119.117 33.5903 118.695C33.5903 118.273 33.2486 117.931 32.8271 117.931C32.4056 117.931 32.0638 118.273 32.0638 118.695C32.0638 119.117 32.4056 119.459 32.8271 119.459Z" fill="#161742"/>
<path d="M50.5678 122.504C50.8937 122.504 51.1578 122.24 51.1578 121.914C51.1578 121.587 50.8937 121.323 50.5678 121.323C50.2419 121.323 49.9777 121.587 49.9777 121.914C49.9777 122.24 50.2419 122.504 50.5678 122.504Z" fill="#161742"/>
<path d="M57.4078 133.108C57.9727 133.108 58.4307 132.65 58.4307 132.084C58.4307 131.519 57.9727 131.06 57.4078 131.06C56.8428 131.06 56.3848 131.519 56.3848 132.084C56.3848 132.65 56.8428 133.108 57.4078 133.108Z" fill="#161742"/>
<path d="M23.0973 132.084C23.3789 132.084 23.6072 131.856 23.6072 131.574C23.6072 131.292 23.3789 131.063 23.0973 131.063C22.8157 131.063 22.5874 131.292 22.5874 131.574C22.5874 131.856 22.8157 132.084 23.0973 132.084Z" fill="#161742"/>
<path d="M71.4342 162.323C71.9124 162.323 72.3001 161.935 72.3001 161.457C72.3001 160.978 71.9124 160.59 71.4342 160.59C70.956 160.59 70.5684 160.978 70.5684 161.457C70.5684 161.935 70.956 162.323 71.4342 162.323Z" fill="#161742"/>
<path d="M20.375 169.654C20.793 169.654 21.1318 169.315 21.1318 168.896C21.1318 168.478 20.793 168.139 20.375 168.139C19.957 168.139 19.6182 168.478 19.6182 168.896C19.6182 169.315 19.957 169.654 20.375 169.654Z" fill="#161742"/>
</g>
<g opacity="0.54">
<path d="M252.08 153.941C252.491 153.941 252.824 153.629 252.824 153.244C252.824 152.859 252.491 152.547 252.08 152.547C251.67 152.547 251.336 152.859 251.336 153.244C251.336 153.629 251.67 153.941 252.08 153.941Z" fill="#161742"/>
<path d="M279.851 143.019C280.331 143.019 280.721 142.654 280.721 142.204C280.721 141.753 280.331 141.388 279.851 141.388C279.372 141.388 278.982 141.753 278.982 142.204C278.982 142.654 279.372 143.019 279.851 143.019Z" fill="#161742"/>
<path d="M231.22 185.133C231.583 185.133 231.877 184.857 231.877 184.516C231.877 184.176 231.583 183.9 231.22 183.9C230.857 183.9 230.562 184.176 230.562 184.516C230.562 184.857 230.857 185.133 231.22 185.133Z" fill="#161742"/>
<path d="M252.08 168.73C252.494 168.73 252.83 168.415 252.83 168.027C252.83 167.638 252.494 167.324 252.08 167.324C251.666 167.324 251.33 167.638 251.33 168.027C251.33 168.415 251.666 168.73 252.08 168.73Z" fill="#161742"/>
<path d="M250.131 181.243C250.518 181.243 250.833 180.949 250.833 180.585C250.833 180.222 250.518 179.927 250.131 179.927C249.743 179.927 249.428 180.222 249.428 180.585C249.428 180.949 249.743 181.243 250.131 181.243Z" fill="#161742"/>
<path d="M232.121 155.809C232.619 155.809 233.022 155.431 233.022 154.964C233.022 154.498 232.619 154.12 232.121 154.12C231.623 154.12 231.22 154.498 231.22 154.964C231.22 155.431 231.623 155.809 232.121 155.809Z" fill="#161742"/>
<path d="M268.9 160.706C269.221 160.706 269.481 160.464 269.481 160.164C269.481 159.864 269.221 159.621 268.9 159.621C268.58 159.621 268.32 159.864 268.32 160.164C268.32 160.464 268.58 160.706 268.9 160.706Z" fill="#161742"/>
<path d="M238.493 126.411C238.914 126.411 239.256 126.092 239.256 125.698C239.256 125.304 238.914 124.985 238.493 124.985C238.071 124.985 237.729 125.304 237.729 125.698C237.729 126.092 238.071 126.411 238.493 126.411Z" fill="#161742"/>
<path d="M256.237 129.264C256.563 129.264 256.827 129.016 256.827 128.711C256.827 128.406 256.563 128.159 256.237 128.159C255.911 128.159 255.647 128.406 255.647 128.711C255.647 129.016 255.911 129.264 256.237 129.264Z" fill="#161742"/>
<path d="M270.882 126.654C271.447 126.654 271.905 126.226 271.905 125.698C271.905 125.169 271.447 124.741 270.882 124.741C270.317 124.741 269.859 125.169 269.859 125.698C269.859 126.226 270.317 126.654 270.882 126.654Z" fill="#161742"/>
<path d="M228.763 138.224C229.044 138.224 229.273 138.01 229.273 137.746C229.273 137.481 229.044 137.267 228.763 137.267C228.481 137.267 228.253 137.481 228.253 137.746C228.253 138.01 228.481 138.224 228.763 138.224Z" fill="#161742"/>
<path d="M259.822 177.568C260.319 177.568 260.723 177.19 260.723 176.724C260.723 176.258 260.319 175.88 259.822 175.88C259.324 175.88 258.92 176.258 258.92 176.724C258.92 177.19 259.324 177.568 259.822 177.568Z" fill="#161742"/>
<path d="M239.359 181.243C239.837 181.243 240.224 180.88 240.224 180.431C240.224 179.983 239.837 179.619 239.359 179.619C238.88 179.619 238.493 179.983 238.493 180.431C238.493 180.88 238.88 181.243 239.359 181.243Z" fill="#161742"/>
<path d="M226.044 173.374C226.462 173.374 226.801 173.056 226.801 172.664C226.801 172.272 226.462 171.955 226.044 171.955C225.626 171.955 225.287 172.272 225.287 172.664C225.287 173.056 225.626 173.374 226.044 173.374Z" fill="#161742"/>
</g>
<g opacity="0.54">
<path d="M92.2591 186.172C92.67 186.172 93.0031 185.839 93.0031 185.428C93.0031 185.016 92.67 184.683 92.2591 184.683C91.8482 184.683 91.5151 185.016 91.5151 185.428C91.5151 185.839 91.8482 186.172 92.2591 186.172Z" fill="#161742"/>
<path d="M92.2597 201.982C92.6741 201.982 93.0101 201.646 93.0101 201.231C93.0101 200.816 92.6741 200.479 92.2597 200.479C91.8452 200.479 91.5093 200.816 91.5093 201.231C91.5093 201.646 91.8452 201.982 92.2597 201.982Z" fill="#161742"/>
<path d="M90.3097 215.359C90.6976 215.359 91.012 215.044 91.012 214.656C91.012 214.267 90.6976 213.953 90.3097 213.953C89.9219 213.953 89.6074 214.267 89.6074 214.656C89.6074 215.044 89.9219 215.359 90.3097 215.359Z" fill="#161742"/>
<path d="M109.08 193.407C109.401 193.407 109.66 193.146 109.66 192.826C109.66 192.505 109.401 192.245 109.08 192.245C108.759 192.245 108.5 192.505 108.5 192.826C108.5 193.146 108.759 193.407 109.08 193.407Z" fill="#161742"/>
<path d="M78.672 156.752C79.0936 156.752 79.4353 156.41 79.4353 155.988C79.4353 155.566 79.0936 155.224 78.672 155.224C78.2505 155.224 77.9088 155.566 77.9088 155.988C77.9088 156.41 78.2505 156.752 78.672 156.752Z" fill="#161742"/>
<path d="M96.4153 159.798C96.7411 159.798 97.0053 159.533 97.0053 159.207C97.0053 158.881 96.7411 158.616 96.4153 158.616C96.0894 158.616 95.8252 158.881 95.8252 159.207C95.8252 159.533 96.0894 159.798 96.4153 159.798Z" fill="#161742"/>
<path d="M100.001 211.431C100.499 211.431 100.902 211.027 100.902 210.529C100.902 210.03 100.499 209.626 100.001 209.626C99.5035 209.626 99.1001 210.03 99.1001 210.529C99.1001 211.027 99.5035 211.431 100.001 211.431Z" fill="#161742"/>
<path d="M21.2724 232C21.6904 232 22.0293 231.661 22.0293 231.242C22.0293 230.824 21.6904 230.484 21.2724 230.484C20.8545 230.484 20.5156 230.824 20.5156 231.242C20.5156 231.661 20.8545 232 21.2724 232Z" fill="#161742"/>
</g>
<g opacity="0.54">
<path d="M118.665 48.4151C119.076 48.4151 119.409 48.0817 119.409 47.6703C119.409 47.259 119.076 46.9255 118.665 46.9255C118.254 46.9255 117.921 47.259 117.921 47.6703C117.921 48.0817 118.254 48.4151 118.665 48.4151Z" fill="#161742"/>
<path d="M102.794 62.1869C103.274 62.1869 103.663 61.7974 103.663 61.3169C103.663 60.8364 103.274 60.4469 102.794 60.4469C102.314 60.4469 101.925 60.8364 101.925 61.3169C101.925 61.7974 102.314 62.1869 102.794 62.1869Z" fill="#161742"/>
<path d="M118.666 64.2246C119.08 64.2246 119.416 63.8882 119.416 63.4734C119.416 63.0585 119.08 62.7222 118.666 62.7222C118.251 62.7222 117.915 63.0585 117.915 63.4734C117.915 63.8882 118.251 64.2246 118.666 64.2246Z" fill="#161742"/>
<path d="M126.307 83.5196C126.805 83.5196 127.208 83.1157 127.208 82.6175C127.208 82.1193 126.805 81.7155 126.307 81.7155C125.809 81.7155 125.406 82.1193 125.406 82.6175C125.406 83.1157 125.809 83.5196 126.307 83.5196Z" fill="#161742"/>
<path d="M107.252 45.796C107.673 45.796 108.015 45.454 108.015 45.032C108.015 44.61 107.673 44.2679 107.252 44.2679C106.83 44.2679 106.488 44.61 106.488 45.032C106.488 45.454 106.83 45.796 107.252 45.796Z" fill="#161742"/>
<path d="M123.411 35.7989C123.737 35.7989 124.001 35.5345 124.001 35.2082C124.001 34.882 123.737 34.6176 123.411 34.6176C123.085 34.6176 122.821 34.882 122.821 35.2082C122.821 35.5345 123.085 35.7989 123.411 35.7989Z" fill="#161742"/>
<path d="M86.7502 67.9669C87.0318 67.9669 87.2601 67.7384 87.2601 67.4565C87.2601 67.1746 87.0318 66.946 86.7502 66.946C86.4686 66.946 86.2403 67.1746 86.2403 67.4565C86.2403 67.7384 86.4686 67.9669 86.7502 67.9669Z" fill="#161742"/>
<path d="M106.489 79.8544C106.907 79.8544 107.246 79.5152 107.246 79.0967C107.246 78.6783 106.907 78.3391 106.489 78.3391C106.071 78.3391 105.732 78.6783 105.732 79.0967C105.732 79.5152 106.071 79.8544 106.489 79.8544Z" fill="#161742"/>
</g>
<g opacity="0.54">
<path d="M203.182 144.791C203.593 144.791 203.926 144.457 203.926 144.046C203.926 143.635 203.593 143.301 203.182 143.301C202.771 143.301 202.438 143.635 202.438 144.046C202.438 144.457 202.771 144.791 203.182 144.791Z" fill="#161742"/>
<path d="M227.217 145.853C227.697 145.853 228.086 145.464 228.086 144.983C228.086 144.503 227.697 144.113 227.217 144.113C226.737 144.113 226.348 144.503 226.348 144.983C226.348 145.464 226.737 145.853 227.217 145.853Z" fill="#161742"/>
<path d="M182.321 178.13C182.685 178.13 182.979 177.836 182.979 177.472C182.979 177.109 182.685 176.814 182.321 176.814C181.958 176.814 181.664 177.109 181.664 177.472C181.664 177.836 181.958 178.13 182.321 178.13Z" fill="#161742"/>
<path d="M217.533 166.258C217.947 166.258 218.283 165.922 218.283 165.507C218.283 165.092 217.947 164.756 217.533 164.756C217.118 164.756 216.782 165.092 216.782 165.507C216.782 165.922 217.118 166.258 217.533 166.258Z" fill="#161742"/>
<path d="M201.232 173.974C201.619 173.974 201.934 173.659 201.934 173.271C201.934 172.882 201.619 172.568 201.232 172.568C200.844 172.568 200.529 172.882 200.529 173.271C200.529 173.659 200.844 173.974 201.232 173.974Z" fill="#161742"/>
<path d="M183.222 146.787C183.72 146.787 184.124 146.383 184.124 145.885C184.124 145.387 183.72 144.983 183.222 144.983C182.725 144.983 182.321 145.387 182.321 145.885C182.321 146.383 182.725 146.787 183.222 146.787Z" fill="#161742"/>
<path d="M193.125 140.156C193.718 140.156 194.199 139.675 194.199 139.081C194.199 138.487 193.718 138.006 193.125 138.006C192.532 138.006 192.051 138.487 192.051 139.081C192.051 139.675 192.532 140.156 193.125 140.156Z" fill="#161742"/>
<path d="M220.002 152.021C220.322 152.021 220.582 151.761 220.582 151.44C220.582 151.119 220.322 150.859 220.002 150.859C219.681 150.859 219.421 151.119 219.421 151.44C219.421 151.761 219.681 152.021 220.002 152.021Z" fill="#161742"/>
<path d="M189.594 115.367C190.016 115.367 190.358 115.025 190.358 114.603C190.358 114.181 190.016 113.839 189.594 113.839C189.173 113.839 188.831 114.181 188.831 114.603C188.831 115.025 189.173 115.367 189.594 115.367Z" fill="#161742"/>
<path d="M207.338 118.415C207.664 118.415 207.928 118.151 207.928 117.825C207.928 117.498 207.664 117.234 207.338 117.234C207.012 117.234 206.748 117.498 206.748 117.825C206.748 118.151 207.012 118.415 207.338 118.415Z" fill="#161742"/>
<path d="M179.864 127.992C180.146 127.992 180.374 127.764 180.374 127.482C180.374 127.2 180.146 126.971 179.864 126.971C179.583 126.971 179.354 127.2 179.354 127.482C179.354 127.764 179.583 127.992 179.864 127.992Z" fill="#161742"/>
<path d="M210.923 170.046C211.421 170.046 211.824 169.642 211.824 169.144C211.824 168.645 211.421 168.242 210.923 168.242C210.425 168.242 210.022 168.645 210.022 169.144C210.022 169.642 210.425 170.046 210.923 170.046Z" fill="#161742"/>
<path d="M190.464 173.97C190.942 173.97 191.329 173.582 191.329 173.104C191.329 172.625 190.942 172.237 190.464 172.237C189.985 172.237 189.598 172.625 189.598 173.104C189.598 173.582 189.985 173.97 190.464 173.97Z" fill="#161742"/>
<path d="M177.145 165.562C177.563 165.562 177.902 165.223 177.902 164.805C177.902 164.386 177.563 164.047 177.145 164.047C176.728 164.047 176.389 164.386 176.389 164.805C176.389 165.223 176.728 165.562 177.145 165.562Z" fill="#161742"/>
</g>
</g>
<rect x="80.1484" y="31.9985" width="149.124" height="131.638" fill="white"/>
<path d="M83.3909 162.043C83.3909 162.043 83.3694 162.043 83.3565 162.043C83.1891 162.026 83.0689 161.876 83.0904 161.708C83.1033 161.597 84.3739 150.345 87.3445 138.639C91.3496 122.85 96.3849 113.793 102.305 111.728C104.73 110.878 106.911 111.092 108.774 112.355C113.689 115.686 115.161 125.366 115.578 129.586C116.514 125.696 118.926 116.506 122.837 107.126C127.589 95.7287 135.595 81.7129 146.739 79.661C164.575 76.3856 172.375 96.5572 174.5 103.464C174.508 100.631 174.68 95.6086 175.59 90.556C177.423 80.365 181.42 74.6771 187.15 74.1019C190.937 73.7155 194.392 76.9609 197.131 83.473C198.427 86.5594 199.286 89.7189 199.741 91.6206C200.587 85.014 204.184 62.6574 214.594 58.6523C218.801 57.0339 223.613 58.6523 228.893 63.4688C229.017 63.5804 229.026 63.7735 228.914 63.8937C228.803 64.0182 228.609 64.0268 228.485 63.9152C223.385 59.2662 218.783 57.6864 214.808 59.2146C208.756 61.5413 205.09 70.7063 203.081 77.9868C200.887 85.9241 200.14 93.4021 200.136 93.4793C200.123 93.6296 199.998 93.7455 199.848 93.7498C199.694 93.767 199.565 93.6511 199.539 93.5051C199.501 93.3076 195.753 73.8615 187.215 74.7072C174.002 76.0293 175.126 105.486 175.139 105.782C175.148 105.937 175.032 106.074 174.877 106.096C174.719 106.121 174.577 106.014 174.543 105.864C174.525 105.791 172.817 98.3817 168.546 91.5562C162.854 82.4599 155.556 78.6565 146.85 80.262C125.975 84.104 115.827 131.174 115.728 131.65C115.698 131.801 115.569 131.904 115.406 131.891C115.256 131.878 115.136 131.753 115.127 131.603C115.118 131.457 114.406 116.905 108.435 112.861C106.735 111.711 104.739 111.522 102.506 112.303C88.8212 117.081 83.7472 161.331 83.6956 161.777C83.6785 161.931 83.5454 162.047 83.3952 162.047L83.3909 162.043Z" fill="#32B353"/>
<path d="M80.395 162.891C80.395 162.891 76.1212 87.1031 95.6897 98.5685C95.6897 98.5685 95.7876 58.9973 106.37 58.9973C116.952 58.9973 117.727 107.677 117.727 107.677C117.727 107.677 117.029 76.7572 126.973 77.2473C142.072 77.9908 139.169 142.237 139.169 142.237C139.169 142.237 146.167 121.009 162.262 131.537C173.457 138.858 169.209 162.993 169.209 162.993L80.3993 162.895L80.395 162.891Z" fill="#32B353"/>
<path d="M229.386 164.477H80.2142C79.8793 164.477 79.6089 164.207 79.6089 163.872V32.6038C79.6089 32.269 79.8793 31.9985 80.2142 31.9985H229.386C229.721 31.9985 229.992 32.269 229.992 32.6038V163.872C229.992 164.207 229.721 164.477 229.386 164.477ZM80.8194 163.266H228.781V33.2091H80.8194V163.266Z" fill="#161742"/>
<path d="M154.8 164.477C154.465 164.477 154.195 164.207 154.195 163.872V32.6038C154.195 32.269 154.465 31.9985 154.8 31.9985C155.135 31.9985 155.406 32.269 155.406 32.6038V163.872C155.406 164.207 155.135 164.477 154.8 164.477Z" fill="#161742"/>
<path d="M229.386 86.1004H80.2142C79.8793 86.1004 79.6089 85.8299 79.6089 85.4951C79.6089 85.1602 79.8793 84.8898 80.2142 84.8898H229.386C229.721 84.8898 229.992 85.1602 229.992 85.4951C229.992 85.8299 229.721 86.1004 229.386 86.1004Z" fill="#161742"/>
<path d="M223.186 169.451C222.99 168.369 222.694 167.298 222.359 166.239L224.09 175.646C223.811 173.577 223.56 171.503 223.186 169.451Z" fill="#32B353"/>
<path d="M228.336 189.825L225.802 176.075C225.953 177.156 226.109 178.232 226.265 179.297C226.025 177.959 225.835 176.615 225.657 175.272L223.882 165.642C223.228 163.59 222.419 161.566 221.788 159.52C219.533 152.232 217.127 144.989 214.559 137.802C213.56 135.009 212.499 132.154 210.562 129.912C210.199 132.946 210.451 135.555 210.467 136.704C210.495 139.129 210.59 141.555 210.758 143.975C211.014 147.761 211.573 151.508 212.103 155.26C212.617 158.896 212.499 162.665 212.89 166.362C212.845 166.25 212.795 166.144 212.751 166.038L218.997 188.414C219.751 188.626 220.549 188.743 221.319 188.849C223.658 189.172 225.997 189.501 228.336 189.825Z" fill="#32B353"/>
<path d="M222.728 192.769C222.544 192.769 222.387 192.63 222.371 192.446C221.494 182.984 219.339 173.544 217.257 164.41C215.259 155.645 213.188 146.585 212.244 137.496C212.222 137.301 212.367 137.122 212.563 137.106C212.758 137.083 212.937 137.228 212.953 137.423C213.891 146.467 215.957 155.511 217.95 164.254C220.037 173.41 222.198 182.878 223.08 192.384C223.096 192.58 222.951 192.752 222.756 192.775C222.745 192.775 222.733 192.775 222.722 192.775L222.728 192.769Z" fill="#1D478E"/>
<path d="M203 153.966C206.645 160.802 209.682 167.961 212.071 175.333C212.702 177.273 213.277 179.236 214.003 181.143C214.611 182.759 216.403 185.129 216.353 186.729C216.481 186.83 216.626 186.93 216.771 187.031C216.911 187.125 217.045 187.226 217.173 187.332C217.804 187.867 218.558 188.196 219.356 188.419L213.109 166.043C211.05 161.131 207.483 156.86 203.006 153.972L203 153.966Z" fill="#32B353"/>
<path d="M215.746 182.203C215.601 182.203 215.461 182.114 215.411 181.963L208.751 163.244C208.684 163.06 208.785 162.854 208.969 162.787C209.153 162.72 209.36 162.821 209.427 163.005L216.086 181.723C216.153 181.907 216.053 182.114 215.869 182.181C215.83 182.197 215.791 182.203 215.751 182.203H215.746Z" fill="#1D478E"/>
<path d="M240.25 181.238L241.495 174.106C240.937 176.459 240.524 178.84 240.25 181.238Z" fill="#32B353"/>
<path d="M240.647 110.206C233.826 130.458 230.755 151.964 231.637 173.313C231.565 172.533 231.487 171.747 231.414 170.966L232.648 190.665C233.692 190.81 234.735 190.955 235.774 191.1C236.7 191.229 237.666 191.346 238.632 191.407L240.334 181.638C241.088 169.89 243.07 158.242 243.968 146.494C244.901 134.299 244.61 121.782 240.647 110.206Z" fill="#32B353"/>
<path d="M233.011 202.236C232.972 202.236 232.938 202.231 232.899 202.219C232.709 202.158 232.609 201.957 232.67 201.768C235.082 194.279 235.556 186.289 236.014 178.567L239.319 122.875C239.33 122.68 239.503 122.524 239.698 122.541C239.894 122.552 240.044 122.719 240.033 122.92L236.729 178.611C236.265 186.379 235.791 194.413 233.351 201.991C233.301 202.141 233.162 202.236 233.011 202.236Z" fill="#1D478E"/>
<path d="M232.161 170.967C229.972 148.195 227.332 125.167 218.73 103.995C217.033 109.538 217.58 115.487 218.183 121.253C220.03 138.978 222.269 158.248 224.798 176.074L227.332 189.824C229.353 190.103 231.373 190.387 233.4 190.666L232.166 170.967H232.161Z" fill="#32B353"/>
<path d="M235.247 209.942C235.141 209.942 235.04 209.897 234.968 209.813C232.506 206.819 231.92 202.671 231.445 199.342L219.683 116.625C219.655 116.43 219.789 116.251 219.985 116.223C220.18 116.195 220.359 116.329 220.387 116.524L232.148 199.242C232.612 202.487 233.181 206.524 235.52 209.362C235.643 209.512 235.621 209.741 235.47 209.864C235.403 209.919 235.325 209.947 235.241 209.947L235.247 209.942Z" fill="#1D478E"/>
<path d="M246.516 176.036C246.627 175.567 246.734 175.099 246.845 174.63L241.09 190.973C241.86 190.717 242.586 190.349 243.239 189.813C244.395 188.866 245.154 187.527 245.874 186.217C250.273 178.227 254.387 170.081 258.216 161.806C259.601 158.806 260.974 155.695 261.102 152.4C254.549 159.052 249.519 167.203 246.521 176.047L246.516 176.036Z" fill="#32B353"/>
<path d="M243.192 192.072C243.153 192.072 243.109 192.066 243.07 192.049C242.885 191.982 242.79 191.776 242.857 191.592C246.877 180.613 251.538 169.724 256.696 159.23C256.785 159.052 256.997 158.979 257.176 159.068C257.354 159.158 257.427 159.369 257.338 159.548C252.185 170.019 247.541 180.887 243.527 191.843C243.477 191.988 243.337 192.077 243.192 192.077V192.072Z" fill="#1D478E"/>
<path d="M253.006 151.034C249.857 152.417 247.786 155.461 246.151 158.483C243.561 163.267 241.612 168.397 240.356 173.689L239.084 180.993C239.011 181.657 238.939 182.326 238.888 182.995C238.916 182.543 238.944 182.091 238.972 181.634L237.27 191.403C238.827 191.498 240.379 191.425 241.774 190.963L247.53 174.62C249.355 166.758 251.186 158.89 253.011 151.029L253.006 151.034Z" fill="#32B353"/>
<path d="M241.039 189.027C241.039 189.027 241.006 189.027 240.989 189.027C240.794 189 240.66 188.821 240.682 188.626C242.167 177.848 245.036 167.287 249.206 157.24C249.284 157.056 249.491 156.972 249.675 157.045C249.859 157.123 249.943 157.329 249.87 157.513C245.723 167.505 242.87 178.01 241.391 188.726C241.369 188.905 241.212 189.033 241.039 189.033V189.027Z" fill="#1D478E"/>
<path d="M252.241 182.425L251.08 199.699L250.879 202.643L249.935 216.683H211.524L210.77 201.891L210.648 199.465L209.727 181.461L252.241 182.425Z" fill="#1D478E"/>
<g style="mix-blend-mode:multiply">
<path d="M252.237 182.425L252.002 185.927L212.625 185.024L211.397 214.347L209.723 181.461L252.237 182.425Z" fill="#1D478E"/>
</g>
<path d="M132.927 146.482C131.045 144.12 127.596 141.994 124.599 141.625C111.83 140.054 79.2295 136.184 67.8401 136.184C57.9312 136.184 55.0458 141.757 50.6987 149.936L49.8193 151.761C49.4829 152.536 49.1837 153.329 48.9229 154.14L30.4551 216.199H93.4438L175.973 210.503C186.151 210.503 144.805 161.383 132.927 146.482Z" fill="#1D478E"/>
<path d="M65.3113 193.265L99.6014 166.063L83.2912 145.654L50.48 171.795L65.3113 193.265Z" fill="#1D478E"/>
<path d="M50.48 171.795L73.4212 205.005" stroke="#1D1D1B" stroke-width="0.5" stroke-miterlimit="10"/>
<path d="M52.6748 183.004L61.0719 187.51" stroke="#1D1D1B" stroke-width="0.5" stroke-miterlimit="10"/>
<path d="M131.367 197.475C131.405 197.487 131.448 197.493 131.489 197.495C131.724 197.498 131.916 197.309 131.919 197.075L132.187 177.195C132.19 176.96 132.001 176.768 131.767 176.765C131.533 176.762 131.34 176.951 131.338 177.185L131.069 197.066C131.068 197.259 131.192 197.419 131.367 197.475Z" fill="#161742"/>
<path d="M112.533 125.208L109.101 139.47C109.101 139.47 106.177 144.375 100.973 142.774C96.5627 141.417 96.7474 136.416 96.7474 136.416L98.534 125.805L112.532 125.212L112.533 125.208Z" fill="#E27B60"/>
<path d="M111.04 131.415C106.513 134 100.163 134.761 96.9887 134.983L98.534 125.806L112.532 125.212L111.04 131.415Z" fill="#161742"/>
<path d="M123.549 104.546C126.318 93.8438 117.93 82.4913 104.815 79.1816C91.6992 75.8783 79.0262 85.5065 76.8608 98.4223C75.0323 109.32 83.3265 128.458 100.201 126.689C119.493 124.669 122.991 106.71 123.549 104.546Z" fill="#161742"/>
<path d="M124.264 104.219C123.177 92.3843 110.753 82.1749 99.1905 83.2352C87.6333 84.2986 81.3116 96.2314 82.4014 108.06C83.4882 119.894 93.8354 129.755 105.398 128.695C116.955 127.632 125.354 116.047 124.267 104.213L124.264 104.219Z" fill="#E27B60"/>
<path d="M120.38 98.8865C120.637 98.2537 119.351 97.1275 117.504 96.3811C115.658 95.6347 113.955 95.5432 113.693 96.1799C113.436 96.8127 114.722 97.9389 116.568 98.6853C118.415 99.4316 120.118 99.5232 120.38 98.8865Z" fill="#161742"/>
<path d="M101.741 96.1408C101.425 95.5348 99.7332 95.7838 97.969 96.7109C96.2055 97.6316 95.031 98.8746 95.3469 99.4806C95.6628 100.087 97.3545 99.8376 99.1187 98.9105C100.882 97.9898 102.057 96.7467 101.741 96.1408Z" fill="#161742"/>
<path d="M100.702 101.91C99.563 102.403 99.0417 103.727 99.5348 104.866C100.028 106.006 101.351 106.527 102.491 106.034C103.63 105.541 104.152 104.217 103.659 103.078C103.165 101.938 101.842 101.417 100.702 101.91Z" fill="#161742"/>
<path d="M92.2865 85.224C101.965 80.2606 115.687 84.3034 121.916 93.6047C120.254 93.8883 106.091 91.6744 102.92 83.1263C102.92 83.1263 92.6197 103.231 85.7763 103.32C85.7763 103.32 88.7169 108.927 83.1228 112.902C78.677 100.509 84.1516 89.4003 92.2928 85.2249L92.2865 85.224Z" fill="#161742"/>
<path d="M87.9597 108.988C87.0174 105.079 83.4857 102.61 80.075 103.474C76.6619 104.329 74.6579 108.19 75.6002 112.099C76.5425 116.008 80.0742 118.476 83.4849 117.612C86.898 116.757 88.902 112.896 87.9597 108.988Z" fill="#E27B60"/>
<path d="M83.9647 112.878C83.9647 112.878 84.0351 112.843 84.0737 112.813C84.2698 112.656 84.3066 112.375 84.1502 112.179L79.9578 106.852C79.8013 106.656 79.5175 106.625 79.3245 106.776C79.1284 106.932 79.0916 107.213 79.2481 107.409L83.4405 112.736C83.5693 112.903 83.7863 112.948 83.9734 112.875L83.9647 112.878Z" fill="#161742"/>
<path d="M79.7071 113.32C79.7071 113.32 79.7657 113.293 79.7924 113.271L82.4257 111.444C82.6299 111.3 82.6811 111.019 82.5396 110.81C82.3949 110.605 82.1116 110.56 81.9048 110.696L79.2716 112.523C79.0673 112.667 79.0162 112.947 79.1577 113.157C79.2804 113.335 79.5112 113.396 79.7014 113.317L79.7071 113.32Z" fill="#161742"/>
<path d="M114.197 105.273C115.268 105.861 116.613 105.47 117.201 104.399C117.79 103.328 117.399 101.983 116.328 101.395C115.257 100.806 113.912 101.197 113.323 102.268C112.735 103.339 113.126 104.684 114.197 105.273Z" fill="#161742"/>
<path d="M113.33 117.824C113.59 118.017 113.634 118.391 113.429 118.667C113.224 118.943 112.854 119.01 112.593 118.816C108.464 115.752 103.321 119.136 103.276 119.169C102.988 119.362 102.626 119.291 102.452 119.008C102.285 118.73 102.369 118.353 102.657 118.16C102.9 117.999 108.57 114.269 113.34 117.81L113.33 117.824Z" fill="#161742"/>
<path d="M91.9315 86.4555C86.8699 89.2823 80.2584 87.0885 77.171 81.5534C74.078 76.0153 75.6741 69.2366 80.7358 66.4098C85.7974 63.583 92.4089 65.7768 95.4962 71.3118C98.5893 76.85 96.9931 83.6287 91.9315 86.4555Z" fill="#161742"/>
<path d="M83.9588 87.6467C83.7502 87.5321 83.6596 87.2694 83.7717 87.0521L92.9631 68.3204C93.0727 68.0944 93.344 68.0012 93.5701 68.1108C93.7973 68.1915 93.8893 68.4917 93.7797 68.7177L84.5883 87.4494C84.4788 87.6755 84.2074 87.7686 83.9813 87.6591C83.9757 87.656 83.9701 87.6529 83.9644 87.6498L83.9588 87.6467Z" fill="#FFF3EB"/>
<path d="M88.1998 78.9951C88.1998 78.9951 88.1773 78.9827 88.1604 78.9734L76.4594 71.0547C76.2519 70.9113 76.1994 70.6329 76.3371 70.4223C76.4805 70.2148 76.7589 70.1623 76.9695 70.3L88.6705 78.2187C88.878 78.3621 88.9305 78.6405 88.7928 78.8511C88.6612 79.0504 88.4028 79.1066 88.1998 78.9951Z" fill="#FFF3EB"/>
<path d="M108.214 111.585C108.011 111.474 107.89 111.379 107.876 111.371C107.704 111.238 107.677 110.972 107.815 110.787C107.953 110.602 108.212 110.561 108.385 110.694C108.392 110.698 109.116 111.251 109.779 111.055C110.147 110.948 110.45 110.612 110.697 110.063C110.786 109.851 111.028 109.742 111.236 109.828C111.426 109.913 111.53 110.154 111.437 110.373C111.087 111.175 110.594 111.676 109.964 111.861C109.272 112.061 108.605 111.8 108.221 111.589L108.214 111.585Z" fill="#161742"/>
<path d="M107.932 198.853L107.926 198.852C107.949 199.212 107.965 199.575 107.966 199.94C107.966 209.187 100.469 216.683 91.2218 216.683C81.9745 216.683 71.1763 206.491 71.1763 197.244C71.1763 194.475 76.1919 192.228 76.1919 192.228L86.7382 139.218L103.591 132.509C107.109 135.28 107.594 137.41 107.927 141.876L107.932 198.853Z" fill="#E27B60" stroke="#161742" stroke-width="0.5" stroke-miterlimit="10"/>
<path d="M107.695 199.208L107.689 199.207C107.712 199.572 107.728 199.938 107.729 200.309C107.689 208.323 100.964 216.478 91.6065 216.478C82.8065 216.668 74.9923 208.705 71.9462 202.331C71.6171 201.297 70.2287 199.001 70.199 198.067C68.6453 196.893 73.8131 192.35 73.8131 192.35L84.8274 146.794L107.689 147.523L107.695 199.208Z" fill="#1D478E"/>
<path d="M78.1659 131.117C79.0211 133.829 87.0668 137.838 86.7552 139.465L96.8796 138.524L103.558 132.791C98.7373 129.272 97.592 127.011 96.8797 125.943C95.6063 124.034 96.3077 119.812 96.2015 115.728C96.168 114.331 94.3207 112.631 92.8873 113.321C92.7088 113.406 92.0408 113.84 92.0672 114.091C91.9916 113.373 91.8225 112.652 91.4487 112.033C91.0749 111.413 90.4739 110.909 89.7639 110.773C89.2246 110.671 88.6431 110.79 88.1907 111.1C87.5601 111.533 87.2989 112.521 86.8878 113.096C86.4598 112.422 85.8981 111.729 85.1075 111.608C84.3135 111.489 83.3583 111.998 82.7775 112.513C82.4554 112.798 82.345 112.977 82.2376 113.44C82.2156 113.529 82.0718 114.518 82.1297 114.517C82.0139 114.519 81.9311 114.411 81.9012 114.299C81.8712 114.187 81.8892 114.07 81.8797 113.958C81.8526 113.586 81.556 113.274 81.2049 113.145C80.177 112.769 78.7597 113.714 78.102 114.464C77.3893 115.277 77.0387 116.335 76.8417 117.381C76.2794 120.39 76.7059 123.589 76.9827 126.605C77.1251 128.186 77.6935 129.619 78.1659 131.117Z" fill="#E27B60"/>
<path d="M86.7569 123.977C86.7569 123.977 86.7502 123.972 86.7468 123.974C86.6501 123.917 86.5901 123.876 86.6124 123.722C86.6124 123.304 86.6008 123.142 86.6124 122.736L86.9612 113.613C86.9672 113.543 87.1159 112.097 88.0818 111.298C88.577 110.889 89.1925 110.726 89.9094 110.814C92.5683 111.146 92.1742 115.04 92.1465 115.282L91.9827 120.729C91.9692 121.141 91.9827 123.344 91.9827 123.937C91.9682 124.052 91.8631 124.133 91.7494 124.122C91.6392 124.11 91.563 124.006 91.5775 123.891C91.5756 123.329 91.5624 121.138 91.5756 120.735L91.7397 115.279C91.7397 115.279 91.7419 115.266 91.7422 115.257C91.7469 115.221 92.1832 111.522 89.8446 111.232C89.2413 111.155 88.7326 111.286 88.3286 111.621C87.5032 112.305 87.368 113.616 87.3692 113.628L86.9885 122.736C86.9713 123.203 86.9612 123.812 86.9612 123.812C86.9612 123.939 86.8831 123.977 86.7569 123.977Z" fill="#161742"/>
<path d="M98.013 128.014C95.9138 126.784 95.9803 119.718 95.9686 119.159C95.9607 118.636 95.9949 116.928 95.9958 116.857C95.9986 116.826 96.0241 113.648 94.0227 113.677C93.3174 113.688 92.8021 114.09 92.487 114.877C92.2393 115.499 92.2126 116.129 92.2123 116.138C92.2063 116.253 92.1144 116.345 92.002 116.346C91.8896 116.347 91.8011 116.254 91.8071 116.138C91.84 115.154 92.3483 113.285 94.033 113.258C95.9595 113.23 96.4254 115.596 96.4063 116.85C96.4057 116.867 96.3697 118.626 96.3779 119.14C96.3874 119.666 96.3202 126.147 98.4024 128.019C98.3879 128.134 98.4706 128.131 98.4706 128.231C98.4706 128.31 98.2306 128.168 98.2089 128.157L98.013 128.014Z" fill="#161742"/>
<path d="M81.7559 123.694C81.6856 123.659 81.6425 123.583 81.6491 123.496C81.6529 123.44 81.6856 117.425 81.8891 115.189C82.1054 112.835 83.2183 111.468 84.937 111.443C86.9964 111.413 87.365 113.555 87.3694 113.574C87.3873 113.687 87.3118 113.797 87.2019 113.822C87.0904 113.843 86.9875 113.773 86.9679 113.657C86.9553 113.583 86.6454 111.835 84.9301 111.859C83.4311 111.881 82.4934 113.072 82.2987 115.208C82.0936 117.44 82.0609 123.455 82.0571 123.511C82.0477 123.628 81.9492 123.715 81.8387 123.711C81.8097 123.712 81.7845 123.702 81.7628 123.691L81.7559 123.694Z" fill="#161742"/>
<path d="M76.8569 124.53C76.7877 124.497 76.746 124.424 76.7538 124.34C76.7584 124.286 76.5163 119.662 76.7516 117.496C77.0015 115.215 78.9043 113.18 80.6118 113.13C82.6577 113.07 82.2781 115.067 82.2822 115.085C82.2984 115.195 82.2217 115.302 82.1122 115.327C82.0012 115.35 81.8999 115.283 81.8823 115.171C81.8708 115.1 82.3028 113.484 80.5988 113.533C79.1096 113.576 77.3832 115.439 77.1581 117.508C76.9213 119.67 77.1635 124.294 77.1589 124.348C77.1478 124.462 77.0486 124.547 76.9389 124.545C76.9101 124.546 76.8852 124.537 76.8638 124.527L76.8569 124.53Z" fill="#161742"/>
<path d="M130.536 210.885L131.204 197.027C131.231 196.455 131.968 196.243 132.295 196.713L140.966 209.157C141.221 209.521 141.003 210.026 140.564 210.093L131.225 211.507C130.85 211.564 130.518 211.263 130.536 210.885Z" fill="white"/>
<path d="M85.0972 146.835L77.3669 186.452" stroke="#1D1D1B" stroke-width="0.5" stroke-miterlimit="10"/>
<path d="M96.8845 207.819H173.018C173.405 207.819 173.719 208.133 173.719 208.52V215.08C173.719 215.467 173.405 215.78 173.018 215.78H96.8845C96.4976 215.78 96.1841 215.467 96.1841 215.08V208.52C96.1841 208.133 96.4976 207.819 96.8845 207.819Z" fill="#161742"/>
<path d="M230.151 156.433H168.729C166.632 156.433 164.718 157.639 163.816 159.534L137.027 215.78H210.504L235.065 164.213C236.783 160.603 234.151 156.433 230.151 156.433Z" fill="#161742"/>
<path d="M186.546 185.549C184.286 190.051 185.481 195.221 189.214 197.094C192.95 198.972 197.81 196.842 200.07 192.34C202.33 187.838 201.135 182.668 197.402 180.794C193.665 178.917 188.806 181.047 186.546 185.549Z" fill="white"/>
<path d="M191.149 178.993H169.424C169.424 178.993 165 176.203 165 168.993C165 163.649 167.49 158.993 167.49 158.993H189.216C189.216 158.993 186.725 163.748 186.725 168.993C186.725 175.705 191.149 178.993 191.149 178.993Z" fill="#FFD325"/>
<path d="M179.781 172.075C180.329 172.075 180.746 171.817 180.958 171.35C181.523 170.109 180.549 167.517 179.181 165.589C179.355 164.768 179.546 164.04 179.688 163.562C179.749 163.356 179.633 163.139 179.427 163.078C179.224 163.014 179.007 163.133 178.943 163.339C178.891 163.513 178.734 164.055 178.56 164.791C178.549 164.777 178.537 164.765 178.526 164.754C177.314 163.362 176.064 162.765 175.02 163.081C174.319 163.289 173.817 163.745 173.53 164.4C173.359 164.22 173.173 164.107 172.976 164.081C172.248 163.977 171.892 164.933 171.776 165.247C171.466 166.099 171.254 166.618 171.109 166.925C171.074 166.708 171.039 166.398 171.002 165.945C170.984 165.731 170.796 165.574 170.581 165.592C170.367 165.609 170.207 165.797 170.227 166.012C170.349 167.473 170.477 168.004 170.949 168.065C171.448 168.131 171.729 167.653 172.509 165.513C172.724 164.925 172.889 164.852 172.889 164.849C172.999 164.875 173.138 165.064 173.286 165.357C173.214 165.971 173.263 166.688 173.443 167.491C173.597 168.178 174.026 169.772 174.672 169.665C174.869 169.636 175.098 169.491 175.055 168.964C175.006 168.343 174.672 166.505 174.089 165.27C174.104 165.189 174.121 165.107 174.142 165.029C174.31 164.388 174.672 163.994 175.243 163.823C176.238 163.527 177.363 164.597 177.943 165.264C178.082 165.426 178.218 165.592 178.349 165.763C177.954 167.72 177.662 170.306 178.514 171.451C178.821 171.863 179.259 172.078 179.781 172.078V172.075ZM178.975 166.676C180.051 168.421 180.578 170.309 180.251 171.028C180.19 171.161 180.085 171.298 179.781 171.298C179.5 171.298 179.297 171.199 179.134 170.982C178.569 170.225 178.682 168.395 178.972 166.673L178.975 166.676Z" fill="#161742"/>
<path d="M170.612 174.666H182.106C182.32 174.666 182.494 174.492 182.494 174.278C182.494 174.063 182.32 173.889 182.106 173.889H170.612C170.398 173.889 170.224 174.063 170.224 174.278C170.224 174.492 170.398 174.666 170.612 174.666Z" fill="#161742"/>
<path d="M292.399 216.99H0.605274C0.270442 216.99 0 216.72 0 216.385C0 216.05 0.270442 215.78 0.605274 215.78H292.399C292.734 215.78 293.004 216.05 293.004 216.385C293.004 216.72 292.734 216.99 292.399 216.99Z" fill="#161742"/>
<mask id="mask0_741_15892" style="mask-type:alpha" maskUnits="userSpaceOnUse" x="173" y="0" width="49" height="49">
<rect x="173" width="49" height="48.9978" fill="#D9D9D9"/>
</mask>
<g mask="url(#mask0_741_15892)">
<path d="M181.423 40.8315C181.106 40.8315 180.824 40.756 180.58 40.6049C180.335 40.4538 180.144 40.2546 180.009 40.0073C179.86 39.7636 179.779 39.4999 179.764 39.2161C179.749 38.932 179.828 38.6457 180.002 38.3572L196.073 10.6407C196.247 10.3522 196.456 10.1424 196.701 10.0114C196.946 9.88076 197.212 9.81543 197.5 9.81543C197.788 9.81543 198.054 9.88076 198.299 10.0114C198.544 10.1424 198.753 10.3522 198.927 10.6407L214.998 38.3572C215.172 38.6457 215.251 38.932 215.236 39.2161C215.222 39.4999 215.14 39.7636 214.991 40.0073C214.856 40.2546 214.665 40.4538 214.42 40.6049C214.176 40.756 213.894 40.8315 213.577 40.8315H181.423ZM197.5 35.9634C197.856 35.9634 198.154 35.843 198.395 35.602C198.636 35.3611 198.757 35.0627 198.757 34.7068C198.757 34.3509 198.636 34.0525 198.395 33.8116C198.154 33.5707 197.856 33.4502 197.5 33.4502C197.144 33.4502 196.846 33.5707 196.605 33.8116C196.364 34.0525 196.243 34.3509 196.243 34.7068C196.243 35.0627 196.364 35.3611 196.605 35.602C196.846 35.843 197.144 35.9634 197.5 35.9634ZM197.502 31.4087C197.791 31.4087 198.033 31.3108 198.228 31.1152C198.423 30.9195 198.521 30.6771 198.521 30.3879V22.2216C198.521 21.9323 198.423 21.6899 198.227 21.4943C198.031 21.2986 197.788 21.2008 197.498 21.2008C197.209 21.2008 196.967 21.2986 196.772 21.4943C196.577 21.6899 196.479 21.9323 196.479 22.2216V30.3879C196.479 30.6771 196.577 30.9195 196.773 31.1152C196.969 31.3108 197.212 31.4087 197.502 31.4087Z" fill="#EE3D4B"/>
</g>
</svg>
