<svg width="117" height="108" viewBox="0 0 117 108" fill="none" xmlns="http://www.w3.org/2000/svg">
<g clip-path="url(#clip0_163_3788)">
<path d="M133 37.5C133 47.7173 124.717 56 114.5 56C104.283 56 96 47.7173 96 37.5C96 27.2827 104.283 19 114.5 19C124.717 19 133 27.2827 133 37.5Z" fill="white"/>
<path opacity="0.5" d="M75 72C75 88.5685 61.5685 102 45 102C28.4315 102 15 88.5685 15 72C15 55.4315 28.4315 42 45 42C61.5685 42 75 55.4315 75 72Z" fill="white"/>
<path d="M35.3395 18.0313C36.3991 18.5436 37.1273 19.3301 37.6243 20.3161C38.1213 19.3301 38.8526 18.5407 39.9122 18.0283C38.8526 17.5159 38.1213 16.7295 37.6243 15.7434C37.1273 16.7295 36.3991 17.5189 35.3395 18.0313Z" fill="#FFD325"/>
<path d="M97.0715 54.2325C97.9545 54.6595 98.5614 55.3148 98.9755 56.1365C99.3897 55.3148 99.9992 54.657 100.882 54.23C99.9992 53.803 99.3897 53.1476 98.9755 52.3259C98.5614 53.1476 97.9545 53.8055 97.0715 54.2325Z" fill="#AF8E2F"/>
<path d="M103.843 63.9907H50.3259C49.015 63.9907 47.9524 65.0527 47.9524 66.3626V102.771C47.9524 104.081 49.015 105.143 50.3259 105.143H103.843C105.154 105.143 106.216 104.081 106.216 102.771V66.3626C106.216 65.0527 105.154 63.9907 103.843 63.9907Z" fill="#1D478E"/>
<path d="M104.45 68.2625V100.874C104.45 102.253 103.331 103.374 101.948 103.374H98.1725V67.8777H51.1679C50.5842 67.8777 50.1119 67.4058 50.1119 66.8225C50.1119 66.2392 50.5842 65.7672 51.1679 65.7672H101.948C103.329 65.7672 104.45 66.8854 104.45 68.2674V68.2625Z" fill="#161742"/>
<path d="M95.7568 64.0661C95.8077 64.129 95.861 64.1919 95.9094 64.2573C97.3674 66.1427 98.0044 68.4855 97.7016 70.8526C97.3989 73.2172 96.1952 75.3229 94.3061 76.7823C90.4092 79.7932 84.788 79.0743 81.7751 75.1777C80.3171 73.2922 79.6777 70.9518 79.9805 68.5848C80.2735 66.3024 81.407 64.2597 83.1822 62.8099C83.2476 62.7567 83.3106 62.7083 83.3784 62.655C87.2123 59.6926 92.7101 60.3412 95.7593 64.0661H95.7568Z" fill="#AF8E2F"/>
<path d="M92.1274 66.5069C92.086 66.4656 92.0359 66.4418 91.9706 66.4396L90.7904 66.4016C90.7247 66.0188 90.5894 65.6817 90.38 65.3947L91.9892 65.4475C92.0546 65.4475 92.1068 65.43 92.1503 65.3908C92.1938 65.3494 92.2155 65.2994 92.2177 65.2341L92.2409 64.5313C92.243 64.4661 92.2234 64.4139 92.1842 64.3704C92.1427 64.3269 92.0905 64.3052 92.0273 64.3031L86.283 64.1172C86.2199 64.1151 86.1655 64.1326 86.122 64.1739C86.0806 64.2131 86.0567 64.2654 86.0546 64.3306L86.025 65.2488C86.0229 65.3075 86.0425 65.3619 86.0861 65.4054C86.1275 65.451 86.1798 65.4749 86.2386 65.4749L87.2403 65.5065C88.2115 65.5382 88.8192 65.8183 89.0658 66.3467L86.2133 66.2538C86.1501 66.2538 86.0957 66.2713 86.0522 66.3105C86.0087 66.3497 85.9869 66.4019 85.9848 66.4672L85.9616 67.1699C85.9616 67.2352 85.9791 67.2874 86.0183 67.3309C86.0576 67.3744 86.1098 67.3961 86.1752 67.3982L89.1235 67.4954C89.0085 67.8697 88.7627 68.1484 88.3862 68.3337C88.0097 68.519 87.5176 68.6022 86.9101 68.581L86.1371 68.5557C86.0761 68.5557 86.0239 68.5754 85.9782 68.6167C85.9325 68.6603 85.9086 68.7103 85.9065 68.7691L85.8769 69.6459C85.8747 69.7068 85.8944 69.7568 85.9336 69.8003C86.7881 70.7677 87.889 72.1177 89.2429 73.8525C89.2822 73.909 89.3388 73.9373 89.4128 73.9415L90.7585 73.9859C90.8543 73.9902 90.924 73.951 90.9631 73.8683C91.0109 73.7855 91.0065 73.7072 90.9433 73.6311C89.6548 71.9397 88.6367 70.6745 87.8955 69.8289C88.6815 69.7628 89.3236 69.5294 89.8262 69.133C90.3288 68.7344 90.6419 68.2075 90.7697 67.5482L91.9303 67.5862C91.9935 67.5862 92.0479 67.5687 92.0892 67.5295C92.1327 67.4903 92.1545 67.4381 92.1566 67.3728L92.1798 66.6701C92.1798 66.6048 92.1623 66.5526 92.1231 66.5091L92.1274 66.5069Z" fill="#F0C61C"/>
<path d="M91.649 58.9863C85.7202 57.4349 79.6533 60.9806 78.1008 66.908C76.5484 72.8328 80.0965 78.8957 86.0277 80.4471C91.9566 81.9985 98.0235 78.4528 99.576 72.5255C101.128 66.6006 97.5803 60.5377 91.649 58.9863ZM97.4834 71.9785C96.8779 74.285 95.4127 76.2188 93.3516 77.4217C91.293 78.627 88.888 78.9586 86.5775 78.3535C81.8136 77.1071 78.9509 72.2181 80.1982 67.4549C80.8037 65.1484 82.2665 63.2146 84.3276 62.0093C86.3135 60.8475 88.624 60.499 90.8595 61.0169C90.9418 61.0363 91.0193 61.0557 91.1017 61.0774C95.7905 62.3021 98.6338 67.0507 97.5415 71.7364C97.5222 71.8163 97.5052 71.8938 97.4834 71.9736V71.9785Z" fill="#FFD325"/>
<path d="M66.9892 50.8054C60.8617 50.6384 55.7611 55.4668 55.5916 61.5926C55.4245 67.716 60.2562 72.8156 66.3861 72.9826C72.5135 73.1496 77.6165 68.3211 77.7836 62.1953C77.9507 56.0719 73.119 50.9748 66.9892 50.8054ZM75.6184 62.1348C75.5531 64.5188 74.5625 66.7334 72.8284 68.3743C71.0967 70.0153 68.8298 70.8842 66.4442 70.8188C61.5205 70.6833 57.6236 66.5736 57.7568 61.6507C57.8222 59.2667 58.8103 57.0521 60.5444 55.4112C62.2156 53.8283 64.3856 52.9643 66.6816 52.9643C66.7663 52.9643 66.8463 52.9643 66.931 52.9691C71.7749 53.0998 75.6209 57.0812 75.6209 61.8903C75.6209 61.9726 75.6209 62.0525 75.6209 62.1348H75.6184Z" fill="#FFD325"/>
<path d="M73.6011 56.2392C73.6519 56.3021 73.7052 56.365 73.7537 56.4304C75.2116 58.3158 75.8486 60.6586 75.5459 63.0257C75.2431 65.3903 74.0394 67.496 72.1503 68.9554C68.2535 71.9663 62.6322 71.2474 59.6193 67.3508C58.1613 65.4653 57.522 63.1249 57.8247 60.7579C58.1178 58.4755 59.2512 56.4328 61.0265 54.983C61.0919 54.9298 61.1548 54.8814 61.2227 54.8281C65.0566 51.8657 70.5543 52.5143 73.6035 56.2392H73.6011Z" fill="#AF8E2F"/>
<path d="M100.118 67.9189H50.2532C48.9825 67.9189 47.9524 68.9484 47.9524 70.2182V106.252C47.9524 107.522 48.9825 108.551 50.2532 108.551H100.118C101.389 108.551 102.419 107.522 102.419 106.252V70.2182C102.419 68.9484 101.389 67.9189 100.118 67.9189Z" fill="#1D478E"/>
<path d="M68.7483 106.951H52.3664C51.1337 106.951 50.131 105.949 50.131 104.717V101.566H50.3901V104.717C50.3901 105.806 51.2765 106.692 52.3664 106.692H68.7483V106.951Z" fill="#161742"/>
<path d="M100.243 76.0923H99.9835V71.7479C99.9835 70.6587 99.0971 69.7729 98.0072 69.7729H76.6168V69.5139H98.0072C99.24 69.5139 100.243 70.5159 100.243 71.7479V76.0923Z" fill="#161742"/>
<path d="M50.3901 91.9891H50.131V98.1222H50.3901V91.9891Z" fill="#161742"/>
<path d="M106.149 79.8903V91.3722C106.149 92.8147 104.981 93.9837 103.535 93.9837H93.5959C90.4184 93.9837 87.8414 91.4085 87.8414 88.233C87.8414 86.6453 88.4857 85.2077 89.5271 84.1669C90.5685 83.1262 92.0071 82.4824 93.5959 82.4824H103.535C103.608 82.4824 103.681 82.4848 103.753 82.4921C105.095 82.3808 106.146 81.2577 106.146 79.8903H106.149Z" fill="#161742"/>
<path d="M94.971 90.1344C96.0199 89.0862 96.0199 87.3867 94.971 86.3385C93.9221 85.2903 92.2214 85.2903 91.1725 86.3385C90.1236 87.3867 90.1236 89.0862 91.1725 90.1344C92.2215 91.1826 93.9221 91.1826 94.971 90.1344Z" fill="white"/>
<path d="M52.0315 94.2113C46.1002 95.753 42.54 101.809 44.0828 107.738C45.6255 113.666 51.6852 117.226 57.6189 115.682C63.5501 114.14 67.1128 108.084 65.5676 102.155C64.0248 96.2274 57.9652 92.6696 52.0315 94.2113ZM63.4726 102.699C64.0733 105.006 63.7366 107.412 62.5281 109.466C61.3196 111.524 59.3844 112.986 57.0739 113.586C52.3076 114.823 47.4202 111.957 46.1802 107.191C45.5795 104.885 45.9137 102.481 47.1223 100.424C48.2872 98.4396 50.1327 97.0068 52.3367 96.3702C52.4166 96.346 52.4965 96.3267 52.5764 96.3049C57.2653 95.085 62.0679 97.8418 63.4048 102.462C63.4266 102.54 63.4508 102.619 63.4702 102.697L63.4726 102.699Z" fill="#FFD325"/>
<path d="M63.407 102.464C63.4288 102.541 63.453 102.621 63.4724 102.699C64.073 105.005 63.7364 107.411 62.5278 109.466C61.3193 111.523 59.3842 112.985 57.0737 113.585C52.3073 114.822 47.4199 111.956 46.1799 107.191C45.5793 104.884 45.9135 102.481 47.122 100.424C48.287 98.439 50.1325 97.0062 52.3364 96.3696C52.4163 96.3454 52.4963 96.3261 52.5762 96.3043C57.265 95.0844 62.0677 97.8412 63.4046 102.462L63.407 102.464Z" fill="#AF8E2F"/>
<path d="M51.344 52.6429C51.8211 52.885 52.1481 53.2553 52.3733 53.7224C52.5985 53.2577 52.9255 52.885 53.4026 52.6429C52.9255 52.4009 52.5961 52.0306 52.3733 51.5635C52.1481 52.0282 51.8211 52.4009 51.344 52.6429Z" fill="#AF8E2F"/>
<path d="M48.8251 94.4618C49.6461 94.8781 50.2104 95.5171 50.5955 96.3182C50.9806 95.5171 51.5473 94.8757 52.3683 94.4594C51.5473 94.0431 50.9806 93.4041 50.5955 92.603C50.2104 93.4041 49.6461 94.0455 48.8251 94.4618Z" fill="white"/>
<path d="M69.9674 60.5061C69.926 60.4648 69.8759 60.4409 69.8106 60.4388L68.6303 60.4008C68.5647 60.0179 68.4293 59.6808 68.22 59.3938L69.8292 59.4467C69.8945 59.4466 69.9468 59.4292 69.9903 59.39C70.0338 59.3486 70.0555 59.2985 70.0576 59.2332L70.0809 58.5305C70.083 58.4652 70.0634 58.413 70.0241 58.3695C69.9827 58.3261 69.9304 58.3044 69.8673 58.3023L64.123 58.1164C64.0599 58.1142 64.0054 58.1317 63.9619 58.1731C63.9206 58.2123 63.8967 58.2645 63.8946 58.3298L63.865 59.2479C63.8629 59.3067 63.8825 59.3611 63.9261 59.4045C63.9675 59.4502 64.0198 59.4741 64.0786 59.474L65.0802 59.5057C66.0514 59.5374 66.6592 59.8174 66.9058 60.3459L64.0532 60.2529C63.9901 60.253 63.9356 60.2704 63.8921 60.3096C63.8486 60.3488 63.8269 60.4011 63.8248 60.4663L63.8015 61.1691C63.8016 61.2344 63.8191 61.2866 63.8583 61.33C63.8975 61.3735 63.9498 61.3952 64.0151 61.3973L66.9635 61.4946C66.8484 61.8689 66.6027 62.1476 66.2261 62.3329C65.8496 62.5182 65.3576 62.6013 64.7501 62.5802L63.9771 62.5548C63.9161 62.5549 63.8639 62.5745 63.8182 62.6159C63.7725 62.6594 63.7486 62.7095 63.7465 62.7682L63.7168 63.645C63.7147 63.706 63.7343 63.756 63.7736 63.7995C64.6281 64.7668 65.729 66.1168 67.0829 67.8517C67.1221 67.9082 67.1788 67.9364 67.2528 67.9407L68.5985 67.9851C68.6943 67.9893 68.7639 67.9501 68.8031 67.8674C68.8509 67.7847 68.8465 67.7064 68.7832 67.6303C67.4947 65.9389 66.4766 64.6736 65.7355 63.828C66.5215 63.762 67.1636 63.5286 67.6662 63.1321C68.1688 62.7335 68.4818 62.2067 68.6097 61.5474L69.7703 61.5854C69.8334 61.5853 69.8879 61.5679 69.9292 61.5287C69.9727 61.4895 69.9944 61.4372 69.9965 61.372L70.0198 60.6692C70.0198 60.6039 70.0023 60.5517 69.963 60.5083L69.9674 60.5061Z" fill="#F0C61C"/>
<path d="M94.6883 9.18239C91.5891 9.20122 88.2142 12.1269 87.1516 15.7178C86.0891 19.3074 87.7402 22.2032 90.8407 22.184C93.9399 22.1652 97.3148 19.2395 98.3774 15.6486C99.44 12.059 97.7888 9.1632 94.6883 9.18239ZM97.2836 15.6555C96.8693 17.0531 96.0115 18.3698 94.8651 19.3628C93.7198 20.3567 92.4246 20.9084 91.2168 20.9155C88.7266 20.9307 87.3943 18.5958 88.2481 15.7101C88.6623 14.3126 89.5188 12.9963 90.6654 12.0019C91.7702 11.0436 93.0157 10.4966 94.1869 10.4516C94.23 10.4501 94.2706 10.4493 94.3136 10.4492C96.7647 10.433 98.0922 12.6914 97.3242 15.5097C97.3107 15.5579 97.2986 15.6043 97.2838 15.6528L97.2836 15.6555Z" fill="#CCA91E"/>
<path d="M96.1731 10.8615C96.1984 10.8902 96.225 10.9185 96.2488 10.949C96.9699 11.8188 97.2231 13.082 96.9611 14.5054C96.6991 15.9273 95.9547 17.3386 94.8614 18.4807C92.6062 20.8367 89.5592 21.292 88.069 19.4943C87.3479 18.6246 87.0933 17.3631 87.3553 15.9397C87.6086 14.5672 88.3121 13.2033 89.3426 12.0846C89.3806 12.0435 89.417 12.0056 89.4563 11.9641C91.6751 9.64597 94.6574 9.16904 96.1744 10.8611L96.1731 10.8615Z" fill="#AF8E2F"/>
<path d="M94.0823 8.72133C90.983 8.74016 87.6082 11.6658 86.5455 15.2568C85.483 18.8464 87.1341 21.7422 90.2346 21.723C93.3338 21.7042 96.7087 18.7785 97.7714 15.1875C98.8339 11.598 97.1827 8.70214 94.0823 8.72133ZM96.6775 15.1945C96.2633 16.5921 95.4055 17.9087 94.259 18.9017C93.1137 19.8957 91.8185 20.4474 90.6107 20.4544C88.1205 20.4696 86.7882 18.1347 87.642 15.2491C88.0562 13.8515 88.9127 12.5352 90.0593 11.5409C91.1641 10.5826 92.4096 10.0356 93.5808 9.99055C93.624 9.98905 93.6645 9.98829 93.7075 9.98816C96.1586 9.97199 97.4862 12.2303 96.7181 15.0487C96.7046 15.0968 96.6925 15.1432 96.6777 15.1917L96.6775 15.1945Z" fill="#FFD325"/>
<path d="M93.8332 15.2897C93.8276 15.2601 93.8135 15.2361 93.7868 15.2181L93.3045 14.893C93.386 14.7014 93.4253 14.5124 93.4195 14.327L94.0768 14.7707C94.1041 14.7877 94.1309 14.7934 94.1602 14.7868C94.1902 14.7793 94.2135 14.7622 94.2329 14.7329L94.4425 14.4186C94.462 14.3894 94.4686 14.3605 94.4646 14.3304C94.4597 14.2998 94.444 14.2763 94.4182 14.2589L92.0712 12.6762C92.0455 12.6588 92.0178 12.6526 91.9878 12.6601C91.9594 12.6672 91.9345 12.6848 91.9151 12.714L91.6416 13.1248C91.624 13.1511 91.6167 13.181 91.6226 13.2122C91.6269 13.2438 91.6419 13.2683 91.6665 13.2836L92.076 13.5592C92.4727 13.8269 92.6469 14.1131 92.5996 14.4183L91.4343 13.6321C91.4079 13.6157 91.3802 13.6094 91.3509 13.6159C91.3216 13.6225 91.2976 13.6406 91.2782 13.6698L91.0686 13.9842C91.05 14.0139 91.0425 14.0423 91.0465 14.0723C91.0505 14.1024 91.0662 14.1259 91.0929 14.1439L92.297 14.9571C92.1425 15.0977 91.9605 15.1607 91.7505 15.147C91.5405 15.1333 91.3113 15.0429 91.0635 14.8748L90.7477 14.6617C90.7223 14.6458 90.6948 14.6411 90.664 14.6481C90.6325 14.656 90.6083 14.6726 90.5907 14.6989L90.3289 15.0909C90.3107 15.1181 90.3047 15.146 90.3087 15.1761C90.3905 15.8399 90.4665 16.7425 90.5386 17.8864C90.5389 17.9224 90.5546 17.9501 90.5843 17.9713L91.1339 18.3425C91.1727 18.3694 91.2129 18.3697 91.2528 18.3422C91.2963 18.3169 91.3167 18.2801 91.312 18.2289C91.2548 17.1218 91.1893 16.2795 91.1202 15.7007C91.4674 15.8755 91.802 15.9366 92.1248 15.8869C92.4482 15.8362 92.7288 15.6777 92.9697 15.4104L93.4438 15.7304C93.4702 15.7468 93.4979 15.7531 93.5263 15.746C93.5557 15.7394 93.5796 15.7213 93.599 15.6921L93.8087 15.3778C93.8272 15.348 93.8348 15.3196 93.8307 15.2896L93.8332 15.2897Z" fill="#F0C61C"/>
<path d="M57.6323 103.502C57.5909 103.461 57.5408 103.437 57.4755 103.435L56.2953 103.397C56.2296 103.014 56.0942 102.677 55.8849 102.39L57.4941 102.443C57.5594 102.442 57.6117 102.425 57.6552 102.386C57.6987 102.344 57.7204 102.294 57.7225 102.229L57.7458 101.526C57.7479 101.461 57.7283 101.409 57.689 101.365C57.6476 101.322 57.5953 101.3 57.5322 101.298L51.7879 101.112C51.7248 101.11 51.6704 101.128 51.6268 101.169C51.5855 101.208 51.5616 101.26 51.5595 101.326L51.5299 102.244C51.5278 102.303 51.5474 102.357 51.591 102.4C51.6324 102.446 51.6847 102.47 51.7435 102.47L52.7452 102.502C53.7163 102.533 54.3241 102.813 54.5707 103.342L51.7181 103.249C51.655 103.249 51.6006 103.266 51.5571 103.305C51.5135 103.345 51.4918 103.397 51.4897 103.462L51.4664 104.165C51.4665 104.23 51.484 104.282 51.5232 104.326C51.5624 104.369 51.6147 104.391 51.68 104.393L54.6284 104.49C54.5134 104.865 54.2676 105.143 53.8911 105.329C53.5145 105.514 53.0225 105.597 52.415 105.576L51.642 105.551C51.581 105.551 51.5288 105.57 51.4831 105.612C51.4374 105.655 51.4135 105.705 51.4114 105.764L51.3817 106.641C51.3796 106.702 51.3993 106.752 51.4385 106.795C52.293 107.763 53.3939 109.113 54.7478 110.848C54.787 110.904 54.8437 110.932 54.9177 110.937L56.2634 110.981C56.3592 110.985 56.4289 110.946 56.468 110.863C56.5158 110.781 56.5114 110.702 56.4482 110.626C55.1596 108.935 54.1416 107.669 53.4004 106.824C54.1864 106.758 54.8285 106.524 55.3311 106.128C55.8337 105.729 56.1468 105.203 56.2746 104.543L57.4352 104.581C57.4984 104.581 57.5528 104.564 57.5941 104.525C57.6376 104.485 57.6593 104.433 57.6615 104.368L57.6847 103.665C57.6847 103.6 57.6672 103.548 57.628 103.504L57.6323 103.502Z" fill="#F0C61C"/>
<path d="M54.7658 25.1129L53.1615 26.8649L56.099 29.5467L57.7034 27.7948L54.7658 25.1129Z" fill="#AF8E2F"/>
<path d="M57.7033 27.7948L56.099 29.5468L59.0557 32.2461L60.66 30.4941L57.7033 27.7948Z" fill="#CCA91E"/>
<path d="M60.6609 30.4956L59.0564 32.2487L62.9263 35.78L64.5041 34.0065L60.6609 30.4956Z" fill="#AF8E2F"/>
<path d="M62.9267 35.7788L66.4959 39.0371L68.0995 37.288L64.5045 34.0053L62.9267 35.7788Z" fill="#CCA91E"/>
</g>
<defs>
<clipPath id="clip0_163_3788">
<rect width="130.001" height="108" fill="white"/>
</clipPath>
</defs>
</svg>
