<svg width="128" height="206" viewBox="0 0 128 206" fill="none" xmlns="http://www.w3.org/2000/svg">
<g clip-path="url(#clip0_1_5635)">
<path d="M50.7718 157.398L50.888 157.157C34.802 149.59 31.9324 143.258 27.5897 133.675C26.0516 130.282 24.312 126.443 21.7424 121.983C28.2201 122.482 34.0112 124.348 38.9598 127.533C42.9704 130.114 46.441 133.562 49.2743 137.781C54.103 144.972 55.4218 152.005 55.4348 152.075L55.6988 152.026C55.6862 151.955 54.3602 144.877 49.5036 137.641C46.6502 133.389 43.154 129.915 39.1122 127.313C34.0601 124.06 28.1379 122.171 21.5102 121.699L21.2571 121.681L21.3837 121.899C24.0161 126.441 25.7846 130.343 27.3453 133.786C31.7122 143.423 34.5974 149.789 50.7724 157.398L50.7718 157.398Z" fill="#1D478E"/>
<path d="M52.03 154.029L52.2514 153.877C52.1388 153.716 40.9098 137.659 31.4042 129.955L31.2332 130.162C40.7107 137.842 51.9179 153.868 52.03 154.029Z" fill="#1D478E"/>
<path d="M38.3521 136.884L38.6007 136.781C38.5861 136.746 37.1612 133.216 37.7758 129.085L37.5104 129.048C36.8852 133.255 38.3374 136.848 38.3522 136.884L38.3521 136.884Z" fill="#1D478E"/>
<path d="M43.7122 143.119L43.8241 142.876C40.1723 141.235 36.3719 141.716 36.3341 141.721L36.3683 141.985C36.4054 141.98 40.1327 141.51 43.7122 143.119Z" fill="#1D478E"/>
<path d="M44.6968 168.305L44.6297 168.047C39.9066 169.286 35.0917 167.631 29.9105 162.989C25.3203 158.875 21.0502 153.03 16.9207 147.377C14.2436 143.712 11.7111 140.246 9.18721 137.367C23.5042 135.759 32.7449 144.036 32.8372 144.121L33.0198 143.925C32.9258 143.839 23.4909 135.382 8.90285 137.132L8.64934 137.163L8.81699 137.352C11.3886 140.259 13.97 143.793 16.7028 147.534C20.8402 153.198 25.1187 159.055 29.7298 163.187C34.9831 167.894 39.8789 169.568 44.6963 168.305L44.6968 168.305Z" fill="#1D478E"/>
<path d="M43.5484 161.768L43.7412 161.582C43.6012 161.439 29.6622 147.296 21.4005 144.74L21.319 144.994C24.7057 146.042 29.6209 149.273 35.5346 154.337C40.0093 158.168 43.5132 161.732 43.5484 161.768Z" fill="#1D478E"/>
<path d="M29.324 149.328L29.5549 149.191C29.5441 149.173 28.4779 147.382 26.4441 142.855L26.1989 142.964C28.2407 147.509 29.3133 149.31 29.324 149.328Z" fill="#1D478E"/>
<path d="M36.2936 154.97L36.3606 154.712C36.3171 154.701 31.9435 153.634 26.9651 154.296L26.9993 154.56C31.927 153.904 36.2506 154.959 36.2935 154.969L36.2936 154.97Z" fill="#1D478E"/>
<path d="M15 127.001C15.9269 127.45 16.5639 128.137 16.9986 129C17.4334 128.137 18.0731 127.447 19 126.999C18.0731 126.55 17.4334 125.863 16.9986 125C16.5639 125.863 15.9269 126.553 15 127.001Z" fill="#AF8E2F"/>
</g>
<path d="M74 168.625C74 189.059 57.4345 205.625 37 205.625C16.5655 205.625 0 189.059 0 168.625C0 148.19 16.5655 131.625 37 131.625C57.4345 131.625 74 148.19 74 168.625Z" fill="#5BC4F0" fill-opacity="0.1"/>
<g clip-path="url(#clip1_1_5635)">
<path d="M50.8769 179C60.5507 179 68.3929 176.182 68.3929 172.705C68.3929 169.228 60.5507 166.41 50.8769 166.41C41.203 166.41 33.3608 169.228 33.3608 172.705C33.3608 176.182 41.203 179 50.8769 179Z" fill="#5BC4F0" fill-opacity="0.3"/>
<path d="M83.9965 179C93.6703 179 101.513 176.182 101.513 172.705C101.513 169.228 93.6703 166.41 83.9965 166.41C74.3227 166.41 66.4805 169.228 66.4805 172.705C66.4805 176.182 74.3227 179 83.9965 179Z" fill="#5BC4F0" fill-opacity="0.3"/>
<path d="M113.516 178.59C123.19 178.59 131.032 175.772 131.032 172.295C131.032 168.818 123.19 166 113.516 166C103.842 166 96 168.818 96 172.295C96 175.772 103.842 178.59 113.516 178.59Z" fill="#5BC4F0" fill-opacity="0.3"/>
<path d="M73.0474 171.142C73.0474 173.804 76.379 176.09 81.1579 177.113V165.171C76.379 166.194 73.0474 168.48 73.0474 171.142Z" fill="#AF8E2F"/>
<path d="M84.8022 164.675V177.609C85.3876 177.649 85.9809 177.677 86.5823 177.681V164.607C85.9769 164.611 85.3836 164.639 84.8022 164.679V164.675Z" fill="#AF8E2F"/>
<path d="M100.462 168.472H73.0474V171.678H100.462V168.472Z" fill="#AF8E2F"/>
<path d="M100.462 171.142C100.462 168.98 98.2608 167.061 94.873 165.874V176.414C98.2608 175.223 100.462 173.308 100.462 171.146V171.142Z" fill="#AF8E2F"/>
<path d="M81.1621 165.171V177.114C82.3007 177.357 83.5275 177.521 84.8024 177.609V164.675C83.5235 164.763 82.3007 164.927 81.1621 165.171Z" fill="#D6B11E"/>
<path d="M86.7549 164.599C86.6988 164.599 86.6427 164.599 86.5825 164.599V177.673C86.6386 177.673 86.6948 177.673 86.7549 177.673C89.7939 177.673 92.6003 177.201 94.8735 176.402V165.862C92.6003 165.063 89.7939 164.591 86.7549 164.591V164.599Z" fill="#D6B11E"/>
<path d="M86.7547 175.739C94.325 175.739 100.462 172.809 100.462 169.196C100.462 165.582 94.325 162.653 86.7547 162.653C79.1843 162.653 73.0474 165.582 73.0474 169.196C73.0474 172.809 79.1843 175.739 86.7547 175.739Z" fill="#AF8E2F"/>
<path d="M86.7547 175.251C94.325 175.251 100.462 172.321 100.462 168.708C100.462 165.094 94.325 162.165 86.7547 162.165C79.1843 162.165 73.0474 165.094 73.0474 168.708C73.0474 172.321 79.1843 175.251 86.7547 175.251Z" fill="#FFD840"/>
<path d="M86.7549 173.744C92.7753 173.744 97.6558 171.489 97.6558 168.708C97.6558 165.927 92.7753 163.672 86.7549 163.672C80.7345 163.672 75.854 165.927 75.854 168.708C75.854 171.489 80.7345 173.744 86.7549 173.744Z" fill="#FFD325"/>
<path d="M83.6234 169.164L81.9155 168.26L83.2506 167.569L84.9585 168.472C85.7643 168.896 87.0874 168.896 87.9092 168.472C88.7311 168.044 88.7471 167.353 87.9413 166.929L86.1572 165.986L87.4923 165.295L89.2763 166.238C90.7998 167.045 90.7718 168.356 89.2162 169.164C87.6566 169.971 85.1509 169.971 83.6234 169.164Z" fill="#AF8E2F"/>
<path d="M90.074 170.315L83.9961 167.101L85.3311 166.41L91.405 169.623L90.074 170.315Z" fill="#AF8E2F"/>
<path d="M92.2312 169.196L86.1533 165.982L87.4884 165.291L93.5663 168.504L92.2312 169.196Z" fill="#AF8E2F"/>
<path d="M83.1864 172.125L83.7838 168.336L81.9236 168.264L81.4585 171.21L83.1864 172.125Z" fill="#AF8E2F"/>
<path d="M73.0474 167.089C73.0474 169.751 76.379 172.037 81.1579 173.061V161.118C76.379 162.141 73.0474 164.427 73.0474 167.089Z" fill="#AF8E2F"/>
<path d="M84.8022 160.622V173.556C85.3876 173.596 85.9809 173.624 86.5823 173.628V160.554C85.9769 160.558 85.3836 160.586 84.8022 160.626V160.622Z" fill="#AF8E2F"/>
<path d="M100.462 164.419H73.0474V167.625H100.462V164.419Z" fill="#AF8E2F"/>
<path d="M100.462 167.089C100.462 164.927 98.2608 163.008 94.873 161.821V172.361C98.2608 171.17 100.462 169.256 100.462 167.093V167.089Z" fill="#AF8E2F"/>
<path d="M81.1621 161.118V173.061C82.3007 173.304 83.5275 173.468 84.8024 173.556V160.622C83.5235 160.71 82.3007 160.874 81.1621 161.118Z" fill="#D6B11E"/>
<path d="M86.7549 160.546C86.6988 160.546 86.6427 160.546 86.5825 160.546V173.62C86.6386 173.62 86.6948 173.62 86.7549 173.62C89.7939 173.62 92.6003 173.149 94.8735 172.349V161.809C92.6003 161.01 89.7939 160.538 86.7549 160.538V160.546Z" fill="#D6B11E"/>
<path d="M86.7547 171.686C94.325 171.686 100.462 168.756 100.462 165.143C100.462 161.529 94.325 158.6 86.7547 158.6C79.1843 158.6 73.0474 161.529 73.0474 165.143C73.0474 168.756 79.1843 171.686 86.7547 171.686Z" fill="#AF8E2F"/>
<path d="M86.7547 171.198C94.325 171.198 100.462 168.269 100.462 164.655C100.462 161.041 94.325 158.112 86.7547 158.112C79.1843 158.112 73.0474 161.041 73.0474 164.655C73.0474 168.269 79.1843 171.198 86.7547 171.198Z" fill="#FFD840"/>
<path d="M86.7549 169.691C92.7753 169.691 97.6558 167.436 97.6558 164.655C97.6558 161.874 92.7753 159.619 86.7549 159.619C80.7345 159.619 75.854 161.874 75.854 164.655C75.854 167.436 80.7345 169.691 86.7549 169.691Z" fill="#FFD325"/>
<path d="M83.6234 165.111L81.9155 164.207L83.2506 163.516L84.9585 164.419C85.7643 164.843 87.0874 164.843 87.9092 164.419C88.7311 163.992 88.7471 163.3 87.9413 162.876L86.1572 161.933L87.4923 161.242L89.2763 162.185C90.7998 162.992 90.7718 164.303 89.2162 165.111C87.6566 165.918 85.1509 165.918 83.6234 165.111Z" fill="#AF8E2F"/>
<path d="M90.074 166.262L83.9961 163.048L85.3311 162.357L91.405 165.57L90.074 166.262Z" fill="#AF8E2F"/>
<path d="M92.2312 165.143L86.1533 161.929L87.4884 161.238L93.5663 164.451L92.2312 165.143Z" fill="#AF8E2F"/>
<path d="M83.1864 168.072L83.7838 164.283L81.9236 164.211L81.4585 167.157L83.1864 168.072Z" fill="#AF8E2F"/>
<path d="M73.0474 163.036C73.0474 165.698 76.379 167.984 81.1579 169.008V157.065C76.379 158.088 73.0474 160.374 73.0474 163.036Z" fill="#AF8E2F"/>
<path d="M84.8022 156.569V169.503C85.3876 169.543 85.9809 169.571 86.5823 169.575V156.501C85.9769 156.505 85.3836 156.533 84.8022 156.573V156.569Z" fill="#AF8E2F"/>
<path d="M100.462 160.366H73.0474V163.572H100.462V160.366Z" fill="#AF8E2F"/>
<path d="M100.462 163.036C100.462 160.874 98.2608 158.955 94.873 157.764V168.304C98.2608 167.113 100.462 165.199 100.462 163.036Z" fill="#AF8E2F"/>
<path d="M81.1621 157.065V169.008C82.3007 169.251 83.5275 169.415 84.8024 169.503V156.569C83.5235 156.657 82.3007 156.821 81.1621 157.065Z" fill="#D6B11E"/>
<path d="M86.7549 156.493C86.6988 156.493 86.6427 156.493 86.5825 156.493V169.567C86.6386 169.567 86.6948 169.567 86.7549 169.567C89.7939 169.567 92.6003 169.096 94.8735 168.296V157.756C92.6003 156.957 89.7939 156.485 86.7549 156.485V156.493Z" fill="#D6B11E"/>
<path d="M86.7547 167.633C94.325 167.633 100.462 164.703 100.462 161.09C100.462 157.476 94.325 154.547 86.7547 154.547C79.1843 154.547 73.0474 157.476 73.0474 161.09C73.0474 164.703 79.1843 167.633 86.7547 167.633Z" fill="#AF8E2F"/>
<path d="M86.7547 167.145C94.325 167.145 100.462 164.216 100.462 160.602C100.462 156.988 94.325 154.059 86.7547 154.059C79.1843 154.059 73.0474 156.988 73.0474 160.602C73.0474 164.216 79.1843 167.145 86.7547 167.145Z" fill="#FFD840"/>
<path d="M86.7549 165.638C92.7753 165.638 97.6558 163.383 97.6558 160.602C97.6558 157.821 92.7753 155.566 86.7549 155.566C80.7345 155.566 75.854 157.821 75.854 160.602C75.854 163.383 80.7345 165.638 86.7549 165.638Z" fill="#FFD325"/>
<path d="M83.6234 161.058L81.9155 160.154L83.2506 159.463L84.9585 160.366C85.7643 160.79 87.0874 160.79 87.9092 160.366C88.7311 159.939 88.7471 159.247 87.9413 158.823L86.1572 157.88L87.4923 157.189L89.2763 158.132C90.7998 158.939 90.7718 160.25 89.2162 161.058C87.6566 161.865 85.1509 161.865 83.6234 161.058Z" fill="#AF8E2F"/>
<path d="M90.074 162.209L83.9961 158.995L85.3311 158.304L91.405 161.517L90.074 162.209Z" fill="#AF8E2F"/>
<path d="M92.2312 161.09L86.1533 157.876L87.4884 157.185L93.5663 160.398L92.2312 161.09Z" fill="#AF8E2F"/>
<path d="M83.1864 164.019L83.7838 160.23L81.9236 160.158L81.4585 163.104L83.1864 164.019Z" fill="#AF8E2F"/>
<path d="M73.0474 158.983C73.0474 161.645 76.379 163.932 81.1579 164.955V153.012C76.379 154.035 73.0474 156.321 73.0474 158.983Z" fill="#AF8E2F"/>
<path d="M84.8022 152.516V165.45C85.3876 165.49 85.9809 165.518 86.5823 165.522V152.448C85.9769 152.452 85.3836 152.48 84.8022 152.52V152.516Z" fill="#AF8E2F"/>
<path d="M100.462 156.313H73.0474V159.519H100.462V156.313Z" fill="#AF8E2F"/>
<path d="M100.462 158.983C100.462 156.821 98.2608 154.902 94.873 153.715V164.255C98.2608 163.064 100.462 161.15 100.462 158.987V158.983Z" fill="#AF8E2F"/>
<path d="M81.1621 153.012V164.955C82.3007 165.199 83.5275 165.363 84.8024 165.45V152.516C83.5235 152.604 82.3007 152.768 81.1621 153.012Z" fill="#D6B11E"/>
<path d="M86.7549 152.44C86.6988 152.44 86.6427 152.44 86.5825 152.44V165.514C86.6386 165.514 86.6948 165.514 86.7549 165.514C89.7939 165.514 92.6003 165.043 94.8735 164.243V153.703C92.6003 152.904 89.7939 152.432 86.7549 152.432V152.44Z" fill="#D6B11E"/>
<path d="M86.7547 163.58C94.325 163.58 100.462 160.65 100.462 157.037C100.462 153.423 94.325 150.494 86.7547 150.494C79.1843 150.494 73.0474 153.423 73.0474 157.037C73.0474 160.65 79.1843 163.58 86.7547 163.58Z" fill="#AF8E2F"/>
<path d="M86.7547 163.092C94.325 163.092 100.462 160.163 100.462 156.549C100.462 152.936 94.325 150.006 86.7547 150.006C79.1843 150.006 73.0474 152.936 73.0474 156.549C73.0474 160.163 79.1843 163.092 86.7547 163.092Z" fill="#FFD840"/>
<path d="M86.7549 161.585C92.7753 161.585 97.6558 159.331 97.6558 156.549C97.6558 153.768 92.7753 151.513 86.7549 151.513C80.7345 151.513 75.854 153.768 75.854 156.549C75.854 159.331 80.7345 161.585 86.7549 161.585Z" fill="#FFD325"/>
<path d="M83.6234 157.005L81.9155 156.102L83.2506 155.41L84.9585 156.313C85.7643 156.737 87.0874 156.737 87.9092 156.313C88.7311 155.886 88.7471 155.194 87.9413 154.771L86.1572 153.827L87.4923 153.136L89.2763 154.079C90.7998 154.887 90.7718 156.198 89.2162 157.005C87.6566 157.812 85.1509 157.812 83.6234 157.005Z" fill="#AF8E2F"/>
<path d="M90.074 158.156L83.9961 154.942L85.3311 154.251L91.405 157.465L90.074 158.156Z" fill="#AF8E2F"/>
<path d="M92.2312 157.037L86.1533 153.823L87.4884 153.132L93.5663 156.345L92.2312 157.037Z" fill="#AF8E2F"/>
<path d="M83.1864 159.967L83.7838 156.174L81.9236 156.106L81.4585 159.051L83.1864 159.967Z" fill="#AF8E2F"/>
<path d="M73.0474 154.931C73.0474 157.592 76.379 159.879 81.1579 160.902V148.959C76.379 149.982 73.0474 152.269 73.0474 154.931Z" fill="#AF8E2F"/>
<path d="M84.8022 148.463V161.398C85.3876 161.438 85.9809 161.465 86.5823 161.469V148.396C85.9769 148.4 85.3836 148.427 84.8022 148.467V148.463Z" fill="#AF8E2F"/>
<path d="M100.462 152.26H73.0474V155.466H100.462V152.26Z" fill="#AF8E2F"/>
<path d="M100.462 154.931C100.462 152.768 98.2608 150.85 94.873 149.663V160.203C98.2608 159.011 100.462 157.097 100.462 154.935V154.931Z" fill="#AF8E2F"/>
<path d="M81.1621 148.959V160.902C82.3007 161.146 83.5275 161.31 84.8024 161.397V148.463C83.5235 148.551 82.3007 148.715 81.1621 148.959Z" fill="#D6B11E"/>
<path d="M86.7549 148.388C86.6988 148.388 86.6427 148.388 86.5825 148.388V161.462C86.6386 161.462 86.6948 161.462 86.7549 161.462C89.7939 161.462 92.6003 160.99 94.8735 160.19V149.651C92.6003 148.851 89.7939 148.38 86.7549 148.38V148.388Z" fill="#D6B11E"/>
<path d="M86.7547 159.527C94.325 159.527 100.462 156.598 100.462 152.984C100.462 149.37 94.325 146.441 86.7547 146.441C79.1843 146.441 73.0474 149.37 73.0474 152.984C73.0474 156.598 79.1843 159.527 86.7547 159.527Z" fill="#AF8E2F"/>
<path d="M86.7547 159.039C94.325 159.039 100.462 156.11 100.462 152.496C100.462 148.883 94.325 145.953 86.7547 145.953C79.1843 145.953 73.0474 148.883 73.0474 152.496C73.0474 156.11 79.1843 159.039 86.7547 159.039Z" fill="#FFD840"/>
<path d="M86.7549 157.532C92.7753 157.532 97.6558 155.278 97.6558 152.496C97.6558 149.715 92.7753 147.46 86.7549 147.46C80.7345 147.46 75.854 149.715 75.854 152.496C75.854 155.278 80.7345 157.532 86.7549 157.532Z" fill="#FFD325"/>
<path d="M83.6234 152.952L81.9155 152.049L83.2506 151.357L84.9585 152.261C85.7643 152.684 87.0874 152.684 87.9092 152.261C88.7311 151.837 88.7471 151.141 87.9413 150.718L86.1572 149.774L87.4923 149.083L89.2763 150.026C90.7998 150.834 90.7718 152.145 89.2162 152.952C87.6566 153.759 85.1509 153.759 83.6234 152.952Z" fill="#AF8E2F"/>
<path d="M90.074 154.103L83.9961 150.89L85.3311 150.198L91.405 153.412L90.074 154.103Z" fill="#AF8E2F"/>
<path d="M92.2312 152.984L86.1533 149.77L87.4884 149.079L93.5663 152.293L92.2312 152.984Z" fill="#AF8E2F"/>
<path d="M83.1864 155.91L83.7838 152.121L81.9236 152.053L81.4585 154.998L83.1864 155.91Z" fill="#AF8E2F"/>
<path d="M40.9463 171.142C40.9463 173.804 44.2779 176.09 49.0568 177.113V165.171C44.2779 166.194 40.9463 168.48 40.9463 171.142Z" fill="#AF8E2F"/>
<path d="M52.6973 164.675V177.609C53.2826 177.649 53.876 177.677 54.4773 177.681V164.607C53.872 164.611 53.2786 164.639 52.6973 164.679V164.675Z" fill="#AF8E2F"/>
<path d="M68.361 168.472H40.9463V171.678H68.361V168.472Z" fill="#AF8E2F"/>
<path d="M68.3607 171.142C68.3607 168.98 66.1597 167.061 62.772 165.874V176.414C66.1597 175.223 68.3607 173.308 68.3607 171.146V171.142Z" fill="#AF8E2F"/>
<path d="M49.0566 165.171V177.114C50.1952 177.357 51.422 177.521 52.697 177.609V164.675C51.418 164.763 50.1952 164.927 49.0566 165.171Z" fill="#D6B11E"/>
<path d="M54.6538 164.599C54.5977 164.599 54.5416 164.599 54.4814 164.599V177.673C54.5376 177.673 54.5937 177.673 54.6538 177.673C57.6928 177.673 60.4992 177.201 62.7724 176.402V165.862C60.4992 165.063 57.6928 164.591 54.6538 164.591V164.599Z" fill="#D6B11E"/>
<path d="M54.6536 175.739C62.224 175.739 68.361 172.809 68.361 169.196C68.361 165.582 62.224 162.653 54.6536 162.653C47.0833 162.653 40.9463 165.582 40.9463 169.196C40.9463 172.809 47.0833 175.739 54.6536 175.739Z" fill="#AF8E2F"/>
<path d="M54.6536 175.251C62.224 175.251 68.361 172.321 68.361 168.708C68.361 165.094 62.224 162.165 54.6536 162.165C47.0833 162.165 40.9463 165.094 40.9463 168.708C40.9463 172.321 47.0833 175.251 54.6536 175.251Z" fill="#FFD840"/>
<path d="M54.6538 173.744C60.6743 173.744 65.5548 171.489 65.5548 168.708C65.5548 165.927 60.6743 163.672 54.6538 163.672C48.6334 163.672 43.7529 165.927 43.7529 168.708C43.7529 171.489 48.6334 173.744 54.6538 173.744Z" fill="#FFD325"/>
<path d="M51.5185 169.164L49.8105 168.26L51.1456 167.569L52.8535 168.472C53.6593 168.896 54.9824 168.896 55.8042 168.472C56.6261 168.044 56.6422 167.353 55.8363 166.929L54.0522 165.986L55.3873 165.295L57.1714 166.238C58.6949 167.045 58.6668 168.356 57.1112 169.164C55.5517 169.971 53.0459 169.971 51.5185 169.164Z" fill="#AF8E2F"/>
<path d="M57.969 170.315L51.8911 167.101L53.2262 166.41L59.3041 169.623L57.969 170.315Z" fill="#AF8E2F"/>
<path d="M60.1301 169.196L54.0522 165.982L55.3873 165.291L61.4612 168.504L60.1301 169.196Z" fill="#AF8E2F"/>
<path d="M51.0854 172.125L51.6787 168.336L49.8185 168.264L49.3574 171.21L51.0854 172.125Z" fill="#AF8E2F"/>
<path d="M40.9463 167.089C40.9463 169.751 44.2779 172.037 49.0568 173.061V161.118C44.2779 162.141 40.9463 164.427 40.9463 167.089Z" fill="#AF8E2F"/>
<path d="M52.6973 160.622V173.556C53.2826 173.596 53.876 173.624 54.4773 173.628V160.554C53.872 160.558 53.2786 160.586 52.6973 160.626V160.622Z" fill="#AF8E2F"/>
<path d="M68.361 164.419H40.9463V167.625H68.361V164.419Z" fill="#AF8E2F"/>
<path d="M68.3607 167.089C68.3607 164.927 66.1597 163.008 62.772 161.821V172.361C66.1597 171.17 68.3607 169.256 68.3607 167.093V167.089Z" fill="#AF8E2F"/>
<path d="M49.0566 161.118V173.061C50.1952 173.304 51.422 173.468 52.697 173.556V160.622C51.418 160.71 50.1952 160.874 49.0566 161.118Z" fill="#D6B11E"/>
<path d="M54.6538 160.546C54.5977 160.546 54.5416 160.546 54.4814 160.546V173.62C54.5376 173.62 54.5937 173.62 54.6538 173.62C57.6928 173.62 60.4992 173.149 62.7724 172.349V161.809C60.4992 161.01 57.6928 160.538 54.6538 160.538V160.546Z" fill="#D6B11E"/>
<path d="M54.6536 171.686C62.224 171.686 68.361 168.756 68.361 165.143C68.361 161.529 62.224 158.6 54.6536 158.6C47.0833 158.6 40.9463 161.529 40.9463 165.143C40.9463 168.756 47.0833 171.686 54.6536 171.686Z" fill="#AF8E2F"/>
<path d="M54.6536 171.198C62.224 171.198 68.361 168.269 68.361 164.655C68.361 161.041 62.224 158.112 54.6536 158.112C47.0833 158.112 40.9463 161.041 40.9463 164.655C40.9463 168.269 47.0833 171.198 54.6536 171.198Z" fill="#FFD840"/>
<path d="M54.6538 169.691C60.6743 169.691 65.5548 167.436 65.5548 164.655C65.5548 161.874 60.6743 159.619 54.6538 159.619C48.6334 159.619 43.7529 161.874 43.7529 164.655C43.7529 167.436 48.6334 169.691 54.6538 169.691Z" fill="#FFD325"/>
<path d="M51.5185 165.111L49.8105 164.207L51.1456 163.516L52.8535 164.419C53.6593 164.843 54.9824 164.843 55.8042 164.419C56.6261 163.992 56.6422 163.3 55.8363 162.876L54.0522 161.933L55.3873 161.242L57.1714 162.185C58.6949 162.992 58.6668 164.303 57.1112 165.111C55.5517 165.918 53.0459 165.918 51.5185 165.111Z" fill="#AF8E2F"/>
<path d="M57.969 166.262L51.8911 163.048L53.2262 162.357L59.3041 165.57L57.969 166.262Z" fill="#AF8E2F"/>
<path d="M60.1301 165.143L54.0522 161.929L55.3873 161.238L61.4612 164.451L60.1301 165.143Z" fill="#AF8E2F"/>
<path d="M51.0854 168.072L51.6787 164.283L49.8185 164.211L49.3574 167.157L51.0854 168.072Z" fill="#AF8E2F"/>
<path d="M105.081 171.142C105.081 173.804 108.412 176.09 113.191 177.113V165.171C108.412 166.194 105.081 168.48 105.081 171.142Z" fill="#AF8E2F"/>
<path d="M116.835 164.675V177.609C117.421 177.649 118.014 177.677 118.616 177.681V164.607C118.01 164.611 117.417 164.639 116.835 164.679V164.675Z" fill="#AF8E2F"/>
<path d="M132.495 168.472H105.081V171.678H132.495V168.472Z" fill="#AF8E2F"/>
<path d="M132.499 171.142C132.499 168.98 130.298 167.061 126.911 165.874V176.414C130.298 175.223 132.499 173.308 132.499 171.146V171.142Z" fill="#AF8E2F"/>
<path d="M113.195 165.171V177.114C114.334 177.357 115.561 177.521 116.836 177.609V164.675C115.557 164.763 114.334 164.927 113.195 165.171Z" fill="#D6B11E"/>
<path d="M118.792 164.599C118.736 164.599 118.68 164.599 118.62 164.599V177.673C118.676 177.673 118.732 177.673 118.792 177.673C121.831 177.673 124.637 177.201 126.911 176.402V165.862C124.637 165.063 121.831 164.591 118.792 164.591V164.599Z" fill="#D6B11E"/>
<path d="M118.792 175.739C126.362 175.739 132.499 172.809 132.499 169.196C132.499 165.582 126.362 162.653 118.792 162.653C111.221 162.653 105.084 165.582 105.084 169.196C105.084 172.809 111.221 175.739 118.792 175.739Z" fill="#AF8E2F"/>
<path d="M118.792 175.251C126.362 175.251 132.499 172.321 132.499 168.708C132.499 165.094 126.362 162.165 118.792 162.165C111.221 162.165 105.084 165.094 105.084 168.708C105.084 172.321 111.221 175.251 118.792 175.251Z" fill="#FFD840"/>
<path d="M118.792 173.744C124.812 173.744 129.693 171.489 129.693 168.708C129.693 165.927 124.812 163.672 118.792 163.672C112.772 163.672 107.891 165.927 107.891 168.708C107.891 171.489 112.772 173.744 118.792 173.744Z" fill="#FFD325"/>
<path d="M115.657 169.164L113.949 168.26L115.284 167.569L116.992 168.472C117.798 168.896 119.121 168.896 119.942 168.472C120.764 168.044 120.78 167.353 119.975 166.929L118.19 165.986L119.525 165.295L121.31 166.238C122.833 167.045 122.805 168.356 121.249 169.164C119.694 169.971 117.184 169.971 115.657 169.164Z" fill="#AF8E2F"/>
<path d="M122.107 170.315L116.029 167.101L117.364 166.41L123.442 169.623L122.107 170.315Z" fill="#AF8E2F"/>
<path d="M124.264 169.196L118.187 165.982L119.522 165.291L125.599 168.504L124.264 169.196Z" fill="#AF8E2F"/>
<path d="M115.224 172.125L115.817 168.336L113.957 168.264L113.492 171.21L115.224 172.125Z" fill="#AF8E2F"/>
<path d="M105.081 167.089C105.081 169.751 108.412 172.037 113.191 173.061V161.118C108.412 162.141 105.081 164.427 105.081 167.089Z" fill="#AF8E2F"/>
<path d="M116.835 160.622V173.556C117.421 173.596 118.014 173.624 118.616 173.628V160.554C118.01 160.558 117.417 160.586 116.835 160.626V160.622Z" fill="#AF8E2F"/>
<path d="M132.495 164.419H105.081V167.625H132.495V164.419Z" fill="#AF8E2F"/>
<path d="M132.499 167.089C132.499 164.927 130.298 163.008 126.911 161.821V172.361C130.298 171.17 132.499 169.256 132.499 167.093V167.089Z" fill="#AF8E2F"/>
<path d="M113.195 161.118V173.061C114.334 173.304 115.561 173.468 116.836 173.556V160.622C115.557 160.71 114.334 160.874 113.195 161.118Z" fill="#D6B11E"/>
<path d="M118.792 160.546C118.736 160.546 118.68 160.546 118.62 160.546V173.62C118.676 173.62 118.732 173.62 118.792 173.62C121.831 173.62 124.637 173.149 126.911 172.349V161.809C124.637 161.01 121.831 160.538 118.792 160.538V160.546Z" fill="#D6B11E"/>
<path d="M118.792 171.686C126.362 171.686 132.499 168.756 132.499 165.143C132.499 161.529 126.362 158.6 118.792 158.6C111.221 158.6 105.084 161.529 105.084 165.143C105.084 168.756 111.221 171.686 118.792 171.686Z" fill="#AF8E2F"/>
<path d="M118.792 171.198C126.362 171.198 132.499 168.269 132.499 164.655C132.499 161.041 126.362 158.112 118.792 158.112C111.221 158.112 105.084 161.041 105.084 164.655C105.084 168.269 111.221 171.198 118.792 171.198Z" fill="#FFD840"/>
<path d="M118.792 169.691C124.812 169.691 129.693 167.436 129.693 164.655C129.693 161.874 124.812 159.619 118.792 159.619C112.772 159.619 107.891 161.874 107.891 164.655C107.891 167.436 112.772 169.691 118.792 169.691Z" fill="#FFD325"/>
<path d="M115.657 165.111L113.949 164.207L115.284 163.516L116.992 164.419C117.798 164.843 119.121 164.843 119.942 164.419C120.764 163.992 120.78 163.3 119.975 162.876L118.19 161.933L119.525 161.242L121.31 162.185C122.833 162.992 122.805 164.303 121.249 165.111C119.694 165.918 117.184 165.918 115.657 165.111Z" fill="#AF8E2F"/>
<path d="M122.107 166.262L116.029 163.048L117.364 162.357L123.442 165.57L122.107 166.262Z" fill="#AF8E2F"/>
<path d="M124.264 165.143L118.187 161.929L119.522 161.238L125.599 164.451L124.264 165.143Z" fill="#AF8E2F"/>
<path d="M115.224 168.072L115.817 164.283L113.957 164.211L113.492 167.157L115.224 168.072Z" fill="#AF8E2F"/>
<path d="M40.9463 163.036C40.9463 165.698 44.2779 167.984 49.0568 169.008V157.065C44.2779 158.088 40.9463 160.374 40.9463 163.036Z" fill="#AF8E2F"/>
<path d="M52.6973 156.569V169.503C53.2826 169.543 53.876 169.571 54.4773 169.575V156.501C53.872 156.505 53.2786 156.533 52.6973 156.573V156.569Z" fill="#AF8E2F"/>
<path d="M68.361 160.366H40.9463V163.572H68.361V160.366Z" fill="#AF8E2F"/>
<path d="M68.3607 163.036C68.3607 160.874 66.1597 158.955 62.772 157.764V168.304C66.1597 167.113 68.3607 165.199 68.3607 163.036Z" fill="#AF8E2F"/>
<path d="M49.0566 157.065V169.008C50.1952 169.251 51.422 169.415 52.697 169.503V156.569C51.418 156.657 50.1952 156.821 49.0566 157.065Z" fill="#D6B11E"/>
<path d="M54.6538 156.493C54.5977 156.493 54.5416 156.493 54.4814 156.493V169.567C54.5376 169.567 54.5937 169.567 54.6538 169.567C57.6928 169.567 60.4992 169.096 62.7724 168.296V157.756C60.4992 156.957 57.6928 156.485 54.6538 156.485V156.493Z" fill="#D6B11E"/>
<path d="M54.6536 167.633C62.224 167.633 68.361 164.703 68.361 161.09C68.361 157.476 62.224 154.547 54.6536 154.547C47.0833 154.547 40.9463 157.476 40.9463 161.09C40.9463 164.703 47.0833 167.633 54.6536 167.633Z" fill="#AF8E2F"/>
<path d="M54.6536 167.145C62.224 167.145 68.361 164.216 68.361 160.602C68.361 156.988 62.224 154.059 54.6536 154.059C47.0833 154.059 40.9463 156.988 40.9463 160.602C40.9463 164.216 47.0833 167.145 54.6536 167.145Z" fill="#FFD840"/>
<path d="M54.6538 165.638C60.6743 165.638 65.5548 163.383 65.5548 160.602C65.5548 157.821 60.6743 155.566 54.6538 155.566C48.6334 155.566 43.7529 157.821 43.7529 160.602C43.7529 163.383 48.6334 165.638 54.6538 165.638Z" fill="#FFD325"/>
<path d="M51.5185 161.058L49.8105 160.154L51.1456 159.463L52.8535 160.366C53.6593 160.79 54.9824 160.79 55.8042 160.366C56.6261 159.939 56.6422 159.247 55.8363 158.823L54.0522 157.88L55.3873 157.189L57.1714 158.132C58.6949 158.939 58.6668 160.25 57.1112 161.058C55.5517 161.865 53.0459 161.865 51.5185 161.058Z" fill="#AF8E2F"/>
<path d="M57.969 162.209L51.8911 158.995L53.2262 158.304L59.3041 161.517L57.969 162.209Z" fill="#AF8E2F"/>
<path d="M60.1301 161.09L54.0522 157.876L55.3873 157.185L61.4612 160.398L60.1301 161.09Z" fill="#AF8E2F"/>
<path d="M51.0854 164.019L51.6787 160.23L49.8185 160.158L49.3574 163.104L51.0854 164.019Z" fill="#AF8E2F"/>
<path d="M40.9463 158.983C40.9463 161.645 44.2779 163.932 49.0568 164.955V153.012C44.2779 154.035 40.9463 156.321 40.9463 158.983Z" fill="#AF8E2F"/>
<path d="M52.6973 152.516V165.45C53.2826 165.49 53.876 165.518 54.4773 165.522V152.448C53.872 152.452 53.2786 152.48 52.6973 152.52V152.516Z" fill="#AF8E2F"/>
<path d="M68.361 156.313H40.9463V159.519H68.361V156.313Z" fill="#AF8E2F"/>
<path d="M68.3607 158.983C68.3607 156.821 66.1597 154.902 62.772 153.715V164.255C66.1597 163.064 68.3607 161.15 68.3607 158.987V158.983Z" fill="#AF8E2F"/>
<path d="M49.0566 153.012V164.955C50.1952 165.199 51.422 165.363 52.697 165.45V152.516C51.418 152.604 50.1952 152.768 49.0566 153.012Z" fill="#D6B11E"/>
<path d="M54.6538 152.44C54.5977 152.44 54.5416 152.44 54.4814 152.44V165.514C54.5376 165.514 54.5937 165.514 54.6538 165.514C57.6928 165.514 60.4992 165.043 62.7724 164.243V153.703C60.4992 152.904 57.6928 152.432 54.6538 152.432V152.44Z" fill="#D6B11E"/>
<path d="M54.6536 163.58C62.224 163.58 68.361 160.65 68.361 157.037C68.361 153.423 62.224 150.494 54.6536 150.494C47.0833 150.494 40.9463 153.423 40.9463 157.037C40.9463 160.65 47.0833 163.58 54.6536 163.58Z" fill="#AF8E2F"/>
<path d="M54.6536 163.092C62.224 163.092 68.361 160.163 68.361 156.549C68.361 152.936 62.224 150.006 54.6536 150.006C47.0833 150.006 40.9463 152.936 40.9463 156.549C40.9463 160.163 47.0833 163.092 54.6536 163.092Z" fill="#FFD840"/>
<path d="M54.6538 161.585C60.6743 161.585 65.5548 159.331 65.5548 156.549C65.5548 153.768 60.6743 151.513 54.6538 151.513C48.6334 151.513 43.7529 153.768 43.7529 156.549C43.7529 159.331 48.6334 161.585 54.6538 161.585Z" fill="#FFD325"/>
<path d="M51.5185 157.005L49.8105 156.102L51.1456 155.41L52.8535 156.313C53.6593 156.737 54.9824 156.737 55.8042 156.313C56.6261 155.886 56.6422 155.194 55.8363 154.771L54.0522 153.827L55.3873 153.136L57.1714 154.079C58.6949 154.887 58.6668 156.198 57.1112 157.005C55.5517 157.812 53.0459 157.812 51.5185 157.005Z" fill="#AF8E2F"/>
<path d="M57.969 158.156L51.8911 154.942L53.2262 154.251L59.3041 157.465L57.969 158.156Z" fill="#AF8E2F"/>
<path d="M60.1301 157.037L54.0522 153.823L55.3873 153.132L61.4612 156.345L60.1301 157.037Z" fill="#AF8E2F"/>
<path d="M51.0854 159.967L51.6787 156.174L49.8185 156.106L49.3574 159.051L51.0854 159.967Z" fill="#AF8E2F"/>
<path d="M40.9463 154.931C40.9463 157.592 44.2779 159.879 49.0568 160.902V148.959C44.2779 149.982 40.9463 152.269 40.9463 154.931Z" fill="#AF8E2F"/>
<path d="M52.6973 148.463V161.398C53.2826 161.438 53.876 161.465 54.4773 161.469V148.396C53.872 148.4 53.2786 148.427 52.6973 148.467V148.463Z" fill="#AF8E2F"/>
<path d="M68.361 152.26H40.9463V155.466H68.361V152.26Z" fill="#AF8E2F"/>
<path d="M68.3607 154.931C68.3607 152.768 66.1597 150.85 62.772 149.663V160.203C66.1597 159.011 68.3607 157.097 68.3607 154.935V154.931Z" fill="#AF8E2F"/>
<path d="M49.0566 148.959V160.902C50.1952 161.146 51.422 161.31 52.697 161.397V148.463C51.418 148.551 50.1952 148.715 49.0566 148.959Z" fill="#D6B11E"/>
<path d="M54.6538 148.388C54.5977 148.388 54.5416 148.388 54.4814 148.388V161.462C54.5376 161.462 54.5937 161.462 54.6538 161.462C57.6928 161.462 60.4992 160.99 62.7724 160.19V149.651C60.4992 148.851 57.6928 148.38 54.6538 148.38V148.388Z" fill="#D6B11E"/>
<path d="M54.6536 159.527C62.224 159.527 68.361 156.598 68.361 152.984C68.361 149.37 62.224 146.441 54.6536 146.441C47.0833 146.441 40.9463 149.37 40.9463 152.984C40.9463 156.598 47.0833 159.527 54.6536 159.527Z" fill="#AF8E2F"/>
<path d="M54.6536 159.039C62.224 159.039 68.361 156.11 68.361 152.496C68.361 148.883 62.224 145.953 54.6536 145.953C47.0833 145.953 40.9463 148.883 40.9463 152.496C40.9463 156.11 47.0833 159.039 54.6536 159.039Z" fill="#FFD840"/>
<path d="M54.6538 157.532C60.6743 157.532 65.5548 155.278 65.5548 152.496C65.5548 149.715 60.6743 147.46 54.6538 147.46C48.6334 147.46 43.7529 149.715 43.7529 152.496C43.7529 155.278 48.6334 157.532 54.6538 157.532Z" fill="#FFD325"/>
<path d="M51.5185 152.952L49.8105 152.049L51.1456 151.357L52.8535 152.261C53.6593 152.684 54.9824 152.684 55.8042 152.261C56.6261 151.833 56.6422 151.141 55.8363 150.718L54.0522 149.774L55.3873 149.083L57.1714 150.026C58.6949 150.834 58.6668 152.145 57.1112 152.952C55.5517 153.759 53.0459 153.759 51.5185 152.952Z" fill="#AF8E2F"/>
<path d="M57.969 154.103L51.8911 150.89L53.2262 150.198L59.3041 153.412L57.969 154.103Z" fill="#AF8E2F"/>
<path d="M60.1301 152.984L54.0522 149.77L55.3873 149.079L61.4612 152.293L60.1301 152.984Z" fill="#AF8E2F"/>
<path d="M51.0854 155.91L51.6787 152.121L49.8185 152.053L49.3574 154.998L51.0854 155.91Z" fill="#AF8E2F"/>
<path d="M73.0474 150.878C73.0474 153.54 76.379 155.826 81.1579 156.849V144.906C76.379 145.929 73.0474 148.216 73.0474 150.878Z" fill="#AF8E2F"/>
<path d="M84.8022 144.41V157.345C85.3876 157.385 85.9809 157.413 86.5823 157.417V144.343C85.9769 144.347 85.3836 144.375 84.8022 144.414V144.41Z" fill="#AF8E2F"/>
<path d="M100.462 148.208H73.0474V151.413H100.462V148.208Z" fill="#AF8E2F"/>
<path d="M100.462 150.878C100.462 148.715 98.2608 146.797 94.873 145.61V156.15C98.2608 154.958 100.462 153.044 100.462 150.878Z" fill="#AF8E2F"/>
<path d="M81.1621 144.906V156.849C82.3007 157.093 83.5275 157.257 84.8024 157.344V144.41C83.5235 144.498 82.3007 144.662 81.1621 144.906Z" fill="#D6B11E"/>
<path d="M86.7549 144.335C86.6988 144.335 86.6427 144.335 86.5825 144.335V157.409C86.6386 157.409 86.6948 157.409 86.7549 157.409C89.7939 157.409 92.6003 156.937 94.8735 156.137V145.598C92.6003 144.798 89.7939 144.327 86.7549 144.327V144.335Z" fill="#D6B11E"/>
<path d="M86.7547 155.474C94.325 155.474 100.462 152.545 100.462 148.931C100.462 145.317 94.325 142.388 86.7547 142.388C79.1843 142.388 73.0474 145.317 73.0474 148.931C73.0474 152.545 79.1843 155.474 86.7547 155.474Z" fill="#AF8E2F"/>
<path d="M86.7547 154.986C94.325 154.986 100.462 152.057 100.462 148.443C100.462 144.83 94.325 141.9 86.7547 141.9C79.1843 141.9 73.0474 144.83 73.0474 148.443C73.0474 152.057 79.1843 154.986 86.7547 154.986Z" fill="#FFD840"/>
<path d="M86.7549 153.48C92.7753 153.48 97.6558 151.225 97.6558 148.443C97.6558 145.662 92.7753 143.407 86.7549 143.407C80.7345 143.407 75.854 145.662 75.854 148.443C75.854 151.225 80.7345 153.48 86.7549 153.48Z" fill="#FFD325"/>
<path d="M83.6234 148.899L81.9155 147.996L83.2506 147.304L84.9585 148.208C85.7643 148.631 87.0874 148.631 87.9092 148.208C88.7311 147.78 88.7471 147.088 87.9413 146.665L86.1572 145.722L87.4923 145.03L89.2763 145.973C90.7998 146.781 90.7718 148.092 89.2162 148.899C87.6566 149.706 85.1509 149.706 83.6234 148.899Z" fill="#AF8E2F"/>
<path d="M90.074 150.05L83.9961 146.837L85.3311 146.145L91.405 149.359L90.074 150.05Z" fill="#AF8E2F"/>
<path d="M92.2312 148.931L86.1533 145.717L87.4884 145.026L93.5663 148.24L92.2312 148.931Z" fill="#AF8E2F"/>
<path d="M83.1864 151.857L83.7838 148.068L81.9236 148L81.4585 150.945L83.1864 151.857Z" fill="#AF8E2F"/>
<path d="M73.0474 146.825C73.0474 149.487 76.379 151.773 81.1579 152.796V140.853C76.379 141.876 73.0474 144.163 73.0474 146.825Z" fill="#AF8E2F"/>
<path d="M84.8022 140.358V153.292C85.3876 153.332 85.9809 153.36 86.5823 153.364V140.29C85.9769 140.294 85.3836 140.322 84.8022 140.362V140.358Z" fill="#AF8E2F"/>
<path d="M100.462 144.155H73.0474V147.36H100.462V144.155Z" fill="#AF8E2F"/>
<path d="M100.462 146.825C100.462 144.662 98.2608 142.744 94.873 141.557V152.097C98.2608 150.905 100.462 148.991 100.462 146.829V146.825Z" fill="#AF8E2F"/>
<path d="M81.1621 140.853V152.796C82.3007 153.04 83.5275 153.204 84.8024 153.292V140.358C83.5235 140.446 82.3007 140.609 81.1621 140.853Z" fill="#D6B11E"/>
<path d="M86.7549 140.282C86.6988 140.282 86.6427 140.282 86.5825 140.282V153.356C86.6386 153.356 86.6948 153.356 86.7549 153.356C89.7939 153.356 92.6003 152.884 94.8735 152.085V141.545C92.6003 140.745 89.7939 140.274 86.7549 140.274V140.282Z" fill="#D6B11E"/>
<path d="M86.7547 151.421C94.325 151.421 100.462 148.492 100.462 144.878C100.462 141.265 94.325 138.335 86.7547 138.335C79.1843 138.335 73.0474 141.265 73.0474 144.878C73.0474 148.492 79.1843 151.421 86.7547 151.421Z" fill="#AF8E2F"/>
<path d="M86.7547 150.934C94.325 150.934 100.462 148.004 100.462 144.391C100.462 140.777 94.325 137.848 86.7547 137.848C79.1843 137.848 73.0474 140.777 73.0474 144.391C73.0474 148.004 79.1843 150.934 86.7547 150.934Z" fill="#FFD840"/>
<path d="M86.7549 149.427C92.7753 149.427 97.6558 147.172 97.6558 144.391C97.6558 141.609 92.7753 139.354 86.7549 139.354C80.7345 139.354 75.854 141.609 75.854 144.391C75.854 147.172 80.7345 149.427 86.7549 149.427Z" fill="#FFD325"/>
<path d="M83.6234 144.846L81.9155 143.943L83.2506 143.251L84.9585 144.155C85.7643 144.578 87.0874 144.578 87.9092 144.155C88.7311 143.727 88.7471 143.036 87.9413 142.612L86.1572 141.669L87.4923 140.977L89.2763 141.92C90.7998 142.728 90.7718 144.039 89.2162 144.846C87.6566 145.654 85.1509 145.654 83.6234 144.846Z" fill="#AF8E2F"/>
<path d="M90.074 145.997L83.9961 142.784L85.3311 142.092L91.405 145.306L90.074 145.997Z" fill="#AF8E2F"/>
<path d="M92.2312 144.878L86.1533 141.665L87.4884 140.973L93.5663 144.187L92.2312 144.878Z" fill="#AF8E2F"/>
<path d="M83.1864 147.804L83.7838 144.015L81.9236 143.947L81.4585 146.893L83.1864 147.804Z" fill="#AF8E2F"/>
<path d="M73.0474 142.772C73.0474 145.434 76.379 147.72 81.1579 148.743V136.8C76.379 137.824 73.0474 140.11 73.0474 142.772Z" fill="#AF8E2F"/>
<path d="M84.8022 136.305V149.239C85.3876 149.279 85.9809 149.307 86.5823 149.311V136.237C85.9769 136.241 85.3836 136.269 84.8022 136.309V136.305Z" fill="#AF8E2F"/>
<path d="M100.462 140.102H73.0474V143.307H100.462V140.102Z" fill="#AF8E2F"/>
<path d="M100.462 142.772C100.462 140.61 98.2608 138.691 94.873 137.504V148.044C98.2608 146.853 100.462 144.938 100.462 142.772Z" fill="#AF8E2F"/>
<path d="M81.1621 136.8V148.743C82.3007 148.987 83.5275 149.151 84.8024 149.239V136.305C83.5235 136.393 82.3007 136.556 81.1621 136.8Z" fill="#D6B11E"/>
<path d="M86.7549 136.229C86.6988 136.229 86.6427 136.229 86.5825 136.229V149.303C86.6386 149.303 86.6948 149.303 86.7549 149.303C89.7939 149.303 92.6003 148.831 94.8735 148.032V137.492C92.6003 136.692 89.7939 136.221 86.7549 136.221V136.229Z" fill="#D6B11E"/>
<path d="M86.7547 147.368C94.325 147.368 100.462 144.439 100.462 140.825C100.462 137.212 94.325 134.282 86.7547 134.282C79.1843 134.282 73.0474 137.212 73.0474 140.825C73.0474 144.439 79.1843 147.368 86.7547 147.368Z" fill="#AF8E2F"/>
<path d="M86.7547 146.881C94.325 146.881 100.462 143.951 100.462 140.338C100.462 136.724 94.325 133.795 86.7547 133.795C79.1843 133.795 73.0474 136.724 73.0474 140.338C73.0474 143.951 79.1843 146.881 86.7547 146.881Z" fill="#FFD840"/>
<path d="M86.7549 145.374C92.7753 145.374 97.6558 143.119 97.6558 140.338C97.6558 137.556 92.7753 135.302 86.7549 135.302C80.7345 135.302 75.854 137.556 75.854 140.338C75.854 143.119 80.7345 145.374 86.7549 145.374Z" fill="#FFD325"/>
<path d="M83.6234 140.793L81.9155 139.89L83.2506 139.199L84.9585 140.102C85.7643 140.526 87.0874 140.526 87.9092 140.102C88.7311 139.674 88.7471 138.983 87.9413 138.559L86.1572 137.616L87.4923 136.924L89.2763 137.868C90.7998 138.675 90.7718 139.986 89.2162 140.793C87.6566 141.601 85.1509 141.601 83.6234 140.793Z" fill="#AF8E2F"/>
<path d="M90.074 141.944L83.9961 138.731L85.3311 138.039L91.405 141.253L90.074 141.944Z" fill="#AF8E2F"/>
<path d="M92.2312 140.825L86.1533 137.612L87.4884 136.92L93.5663 140.134L92.2312 140.825Z" fill="#AF8E2F"/>
<path d="M83.1864 143.751L83.7838 139.962L81.9236 139.894L81.4585 142.84L83.1864 143.751Z" fill="#AF8E2F"/>
<path d="M106.394 142.556C107.993 144.686 112.034 144.535 116.477 142.5L109.308 132.931C106.093 136.601 104.798 140.426 106.394 142.556Z" fill="#AF8E2F"/>
<path d="M111.926 130.361L119.692 140.721C120.185 140.406 120.674 140.074 121.163 139.714L113.313 129.238C112.832 129.602 112.371 129.978 111.93 130.357L111.926 130.361Z" fill="#AF8E2F"/>
<path d="M126.749 124.052L104.789 140.412L106.714 142.98L128.674 126.619L126.749 124.052Z" fill="#AF8E2F"/>
<path d="M128.352 126.197C127.053 124.466 124.142 124.242 120.71 125.309L127.037 133.751C129.037 130.773 129.647 127.927 128.352 126.193V126.197Z" fill="#AF8E2F"/>
<path d="M109.304 132.931L116.473 142.5C117.531 142.016 118.609 141.417 119.688 140.725L111.922 130.365C110.952 131.197 110.07 132.06 109.304 132.935V132.931Z" fill="#D6B11E"/>
<path d="M113.445 129.138C113.397 129.174 113.357 129.21 113.309 129.242L121.159 139.718C121.207 139.682 121.251 139.654 121.299 139.618C123.733 137.804 125.697 135.753 127.04 133.755L120.714 125.313C118.413 126.029 115.883 127.328 113.449 129.138H113.445Z" fill="#D6B11E"/>
<path d="M120.131 138.054C126.195 133.536 129.352 127.527 127.182 124.632C125.013 121.738 118.338 123.053 112.274 127.571C106.209 132.089 103.052 138.098 105.222 140.993C107.392 143.887 114.067 142.571 120.131 138.054Z" fill="#AF8E2F"/>
<path d="M119.837 137.663C125.902 133.145 129.059 127.136 126.889 124.241C124.719 121.347 118.044 122.662 111.98 127.18C105.916 131.698 102.759 137.707 104.929 140.602C107.098 143.496 113.773 142.181 119.837 137.663Z" fill="#FFD840"/>
<path d="M118.933 136.456C123.755 132.863 126.311 128.144 124.641 125.916C122.971 123.688 117.708 124.794 112.885 128.387C108.062 131.98 105.507 136.699 107.177 138.927C108.847 141.155 114.11 140.048 118.933 136.456Z" fill="#FFD325"/>
<path d="M113.674 134.662L111.766 134.958L112.419 133.607L114.327 133.311C115.23 133.171 116.288 132.38 116.693 131.548C117.098 130.717 116.693 130.153 115.791 130.293L113.794 130.601L114.448 129.25L116.444 128.942C118.148 128.679 118.918 129.746 118.152 131.325C117.386 132.899 115.378 134.398 113.674 134.662Z" fill="#AF8E2F"/>
<path d="M119.531 131.736L112.736 132.788L113.389 131.437L120.185 130.385L119.531 131.736Z" fill="#AF8E2F"/>
<path d="M120.59 129.55L113.794 130.605L114.448 129.254L121.243 128.203L120.59 129.55Z" fill="#AF8E2F"/>
<path d="M115.105 137.296L113.305 133.903L111.773 134.958L113.169 137.592L115.105 137.296Z" fill="#AF8E2F"/>
<path d="M47.8891 93.4916C46.2198 95.5629 47.3795 99.4314 50.4654 103.221L57.9636 93.919C53.5961 91.7235 49.5635 91.418 47.8928 93.4931L47.8891 93.4916Z" fill="#AF8E2F"/>
<path d="M61.108 95.8109L52.9904 105.882C53.4193 106.277 53.8659 106.67 54.3333 107.053L62.5404 96.8703C62.0651 96.4966 61.5863 96.143 61.108 95.8109Z" fill="#AF8E2F"/>
<path d="M70.9415 108.569L49.5698 91.4117L47.558 93.9085L68.9297 111.066L70.9415 108.569Z" fill="#AF8E2F"/>
<path d="M69.2575 110.651C70.6164 108.966 70.1015 106.097 68.2089 103.048L61.5945 111.259C64.9838 112.453 67.9024 112.338 69.2613 110.653L69.2575 110.651Z" fill="#AF8E2F"/>
<path d="M57.96 93.9176L50.4617 103.22C51.1956 104.12 52.0499 105.019 52.9894 105.886L61.1069 95.8146C60.0552 95.0842 58.9985 94.4461 57.9585 93.9213L57.96 93.9176Z" fill="#D6B11E"/>
<path d="M62.6807 96.975C62.6339 96.9401 62.5909 96.9066 62.5442 96.8716L54.337 107.054C54.3824 107.093 54.4239 107.13 54.4669 107.164C56.8347 109.068 59.3216 110.456 61.5921 111.253L68.2064 103.043C66.9355 100.997 65.0462 98.8735 62.6769 96.9736L62.6807 96.975Z" fill="#D6B11E"/>
<path d="M70.4772 109.131C72.7451 106.316 69.7994 100.193 63.8978 95.4555C57.9961 90.7176 51.3734 89.1585 49.1055 91.9731C46.8375 94.7877 49.7832 100.91 55.6849 105.648C61.5865 110.386 68.2092 111.945 70.4772 109.131Z" fill="#AF8E2F"/>
<path d="M70.7872 108.749C73.0551 105.934 70.1094 99.8117 64.2078 95.0738C58.3062 90.3359 51.6835 88.7768 49.4155 91.5914C47.1476 94.406 50.0933 100.529 55.9949 105.267C61.8966 110.004 68.5193 111.564 70.7872 108.749Z" fill="#FFD840"/>
<path d="M68.6001 106.996C66.8559 109.162 61.6353 107.865 56.9413 104.095C52.2511 100.326 49.8583 95.5172 51.6077 93.3481C53.352 91.1814 58.5725 92.4787 63.2665 96.2488C67.9567 100.017 70.3496 104.827 68.6001 106.996Z" fill="#FFD325"/>
<path d="M57.3718 98.5656L56.6095 96.795L58.0839 97.0919L58.8462 98.8625C59.206 99.6969 60.2371 100.526 61.1453 100.71C62.0535 100.894 62.5006 100.363 62.1408 99.5283L61.3413 97.675L62.8156 97.9719L63.6151 99.8251C64.299 101.408 63.453 102.411 61.7307 102.067C60.0084 101.722 58.0543 100.152 57.3704 98.5694L57.3718 98.5656Z" fill="#AF8E2F"/>
<path d="M61.6773 103.501L58.9586 97.1944L60.4329 97.4913L63.1517 103.798L61.6773 103.501Z" fill="#AF8E2F"/>
<path d="M64.0639 103.983L61.3414 97.675L62.8158 97.9719L65.5382 104.28L64.0639 103.983Z" fill="#AF8E2F"/>
<path d="M55.1752 100.603L58.0161 98.0241L56.6106 96.8038L54.3999 98.8098L55.1752 100.603Z" fill="#AF8E2F"/>
<path d="M113.071 60.8914L110.966 58.3567L106.728 61.8879L108.833 64.4226L113.071 60.8914Z" fill="#AF8E2F"/>
<path d="M108.833 64.4233L106.728 61.8885L102.462 65.4428L104.567 67.9775L108.833 64.4233Z" fill="#D6B11E"/>
<path d="M104.565 67.9785L102.459 65.4433L96.8769 70.0957L99.0167 72.598L104.565 67.9785Z" fill="#AF8E2F"/>
<path d="M96.8772 70.0957L91.7274 74.3863L93.8286 76.9195L99.017 72.5979L96.8772 70.0957Z" fill="#D6B11E"/>
<path d="M138.021 90.983C142.828 85.6647 142.4 77.4686 137.066 72.6766C131.731 67.8846 123.51 68.3113 118.703 73.6296C113.897 78.9479 114.325 87.144 119.659 91.936C124.994 96.728 133.215 96.3013 138.021 90.983Z" fill="#AF8E2F"/>
<path d="M140.35 85.3173C142.022 78.7145 138.009 72.0104 131.386 70.3434C124.763 68.6763 118.038 72.6774 116.366 79.2802C114.694 85.883 118.707 92.587 125.33 94.2541C131.953 95.9212 138.678 91.92 140.35 85.3173Z" fill="#FFD840"/>
<path d="M137.966 84.3007C139.076 79.0091 135.673 73.8225 130.365 72.716C125.057 71.6096 119.855 75.0023 118.745 80.2939C117.635 85.5855 121.038 90.7722 126.346 91.8786C131.654 92.9851 136.856 89.5923 137.966 84.3007Z" fill="#FFD325"/>
<path d="M126.362 83.0865L124.586 82.2551L125.28 80.8202L127.056 81.6516C127.893 82.0433 128.924 81.6476 129.349 80.7643C129.774 79.8809 129.441 78.8417 128.603 78.45L126.743 77.5787L127.436 76.1438L129.297 77.0151C130.884 77.7586 131.518 79.7251 130.712 81.3998C129.902 83.0745 127.954 83.8299 126.366 83.0825L126.362 83.0865Z" fill="#AF8E2F"/>
<path d="M131.951 82.8627L125.625 79.8969L126.314 78.462L132.645 81.4278L131.951 82.8627Z" fill="#AF8E2F"/>
<path d="M133.069 80.5444L126.743 77.5787L127.436 76.1438L133.763 79.1095L133.069 80.5444Z" fill="#AF8E2F"/>
<path d="M127.504 87.631L126.073 81.7994L124.594 82.2591L125.704 86.7876L127.504 87.631Z" fill="#AF8E2F"/>
<g style="mix-blend-mode:screen" opacity="0.23">
<path d="M119.234 73.0742L127.304 95.2212C129.574 95.409 131.803 94.9894 133.799 94.0741L124.955 69.8007C122.806 70.3842 120.83 71.5074 119.234 73.0742Z" fill="#FFD325"/>
</g>
<path d="M72.0279 64.2198C78.836 63.6391 83.8829 57.6661 83.3005 50.8787C82.718 44.0913 76.7267 39.0598 69.9186 39.6405C63.1104 40.2212 58.0635 46.1942 58.646 52.9816C59.2284 59.7689 65.2197 64.8005 72.0279 64.2198Z" fill="#D6B11E"/>
<path d="M82.0915 55.7784C84.2234 49.658 80.9749 42.9736 74.8358 40.8483C68.6968 38.7229 61.9919 41.9615 59.86 48.0818C57.7282 54.2022 60.9767 60.8866 67.1158 63.012C73.2548 65.1373 79.9597 61.8987 82.0915 55.7784Z" fill="#FFD840"/>
<path d="M71.4728 61.2245C76.6245 60.9499 80.5776 56.5638 80.3022 51.4278C80.0268 46.2917 75.6272 42.3507 70.4755 42.6253C65.3238 42.8999 61.3707 47.286 61.6461 52.422C61.9215 57.558 66.3211 61.499 71.4728 61.2245Z" fill="#FFD325"/>
<path d="M69.0707 52.6722L67.3828 51.8809L68.0403 50.5179L69.7282 51.3093C70.526 51.685 71.5042 51.3053 71.9092 50.4619C72.3141 49.6226 71.9974 48.6353 71.1995 48.2596L69.4315 47.4283L70.089 46.0653L71.857 46.8967C73.3685 47.6041 73.9699 49.4747 73.2041 51.0695C72.4344 52.6603 70.5821 53.3797 69.0707 52.6722Z" fill="#AF8E2F"/>
<path d="M74.387 52.4604L68.3652 49.6386L69.0267 48.2756L75.0445 51.0975L74.387 52.4604Z" fill="#AF8E2F"/>
<path d="M75.4534 50.2541L69.4316 47.4323L70.0891 46.0693L76.1109 48.8912L75.4534 50.2541Z" fill="#AF8E2F"/>
<path d="M70.1571 57.001L68.7979 51.4492L67.3867 51.8849L68.4451 56.1976L70.1571 57.001Z" fill="#AF8E2F"/>
<g style="mix-blend-mode:screen" opacity="0.23">
<path d="M82.914 55.1463L78.0589 41.8205C77.0486 41.117 75.914 40.5495 74.6712 40.1658C74.5549 40.1298 74.4346 40.1018 74.3184 40.0698L81.178 58.9034C81.8556 57.9202 82.4008 56.821 82.7777 55.6219C82.8258 55.466 82.8699 55.3062 82.914 55.1503V55.1463Z" fill="#FFD325"/>
</g>
<g style="mix-blend-mode:screen" opacity="0.23">
<path d="M62.2871 43.1476L69.9647 64.2194C72.1216 64.3993 74.2464 63.9996 76.1428 63.1282L67.7316 40.0339C65.6869 40.5895 63.8066 41.6607 62.2911 43.1476H62.2871Z" fill="#FFD325"/>
</g>
</g>
<path d="M66 128.002C67.3903 128.674 68.3459 129.706 68.998 131C69.65 129.706 70.6097 128.67 72 127.998C70.6097 127.326 69.65 126.294 68.998 125C68.3459 126.294 67.3903 127.33 66 128.002Z" fill="#FFD325"/>
<path d="M98 99.5016C99.1586 100.062 99.9549 100.922 100.498 102C101.042 100.922 101.841 100.059 103 99.4984C101.841 98.9381 101.042 98.0782 100.498 97C99.9549 98.0782 99.1586 98.9414 98 99.5016Z" fill="#AF8E2F"/>
<path d="M24 64.5C25.6224 65.2847 26.7341 66.4854 27.5 68C28.2659 66.4933 29.3776 65.2847 31 64.5C29.3776 63.7152 28.2576 62.5146 27.5 61C26.7341 62.5067 25.6224 63.7152 24 64.5Z" fill="#AF8E2F"/>
<path d="M106 16C106.927 16.4484 107.562 17.1345 108 18C108.438 17.139 109.073 16.4484 110 16C109.073 15.5516 108.433 14.8655 108 14C107.562 14.861 106.927 15.5516 106 16Z" fill="#AF8E2F"/>
<defs>
<clipPath id="clip0_1_5635">
<rect width="39.3416" height="51.8593" fill="white" transform="matrix(-0.937933 0.346817 0.346817 0.937933 42.0293 114)"/>
</clipPath>
<clipPath id="clip1_1_5635">
<rect width="106" height="179" fill="white" transform="translate(24)"/>
</clipPath>
</defs>
</svg>
