<svg width="20" height="20" viewBox="0 0 20 20" fill="none" xmlns="http://www.w3.org/2000/svg">
<path d="M10 0.4C15.3019 0.400001 19.6 4.69807 19.6 10C19.6 15.3019 15.3019 19.6 10 19.6C4.69807 19.6 0.4 15.3019 0.400001 10C0.400001 4.69807 4.69807 0.4 10 0.4Z" stroke="#161742" stroke-width="0.8"/>
<path fill-rule="evenodd" clip-rule="evenodd" d="M13.8326 12.317C14.0558 12.0729 14.0558 11.6771 13.8326 11.4331L10.4041 7.6831C10.1809 7.43897 9.81909 7.43897 9.59595 7.6831L6.16737 11.4331C5.94421 11.6771 5.94421 12.0729 6.16737 12.317C6.39052 12.561 6.75233 12.561 6.97549 12.317L10 9.00892L13.0245 12.317C13.2477 12.561 13.6095 12.561 13.8326 12.317Z" fill="#161742"/>
</svg>
