<svg width="20" height="20" viewBox="0 0 20 20" fill="none" xmlns="http://www.w3.org/2000/svg">
<path d="M10 19.6C4.69807 19.6 0.4 15.3019 0.4 10C0.4 4.69807 4.69807 0.4 10 0.4C15.3019 0.4 19.6 4.69807 19.6 10C19.6 15.3019 15.3019 19.6 10 19.6Z" stroke="#161742" stroke-width="0.8"/>
<path fill-rule="evenodd" clip-rule="evenodd" d="M6.16736 7.68305C5.94421 7.92711 5.94421 8.32287 6.16736 8.56693L9.59594 12.3169C9.81908 12.561 10.1809 12.561 10.4041 12.3169L13.8326 8.56693C14.0558 8.32287 14.0558 7.92711 13.8326 7.68305C13.6095 7.43898 13.2477 7.43898 13.0245 7.68305L9.99999 10.9911L6.97547 7.68305C6.75233 7.43898 6.3905 7.43898 6.16736 7.68305Z" fill="#161742"/>
</svg>
