<svg width="101" height="110" viewBox="0 0 101 110" fill="none" xmlns="http://www.w3.org/2000/svg">
<path d="M85 89.5484C85 109.734 68.4345 126.097 48 126.097C27.5655 126.097 11 109.734 11 89.5484C11 69.3633 27.5655 53 48 53C68.4345 53 85 69.3633 85 89.5484Z" fill="white" fill-opacity="0.9"/>
<path d="M62.9912 83.6789C57.3726 77.8068 56.964 75.7618 65.7324 67.1574C74.5009 58.5529 73.1303 46.673 73.1303 46.673L56.2829 46.3506V46.3336H55.7977H55.3124V46.3506L38.4651 46.673C38.4651 46.673 37.0944 58.5529 45.8629 67.1574C54.6314 75.7618 54.2228 77.8068 48.6041 83.6789C42.9855 89.5509 35.3152 95.2872 35.5876 106.072H75.9992C76.2716 95.2872 68.6013 89.5509 62.9827 83.6789H62.9912Z" fill="#1D478E"/>
<path d="M76.3401 109H35.2645C34.013 109 33 107.99 33 106.743C33 105.495 34.013 104.485 35.2645 104.485H76.3401C77.5915 104.485 78.6046 105.495 78.6046 106.743C78.6046 107.99 77.5915 109 76.3401 109Z" fill="#161742"/>
<path d="M76.3401 48.5144H35.2645C34.013 48.5144 33 47.5046 33 46.2572C33 45.0098 34.013 44 35.2645 44H76.3401C77.5915 44 78.6046 45.0098 78.6046 46.2572C78.6046 47.5046 77.5915 48.5144 76.3401 48.5144Z" fill="#161742"/>
<path d="M48.0006 64.0518H63.9456C64.4819 64.0518 64.7714 64.6458 64.4309 65.0361L57.1862 73.1908C57.0926 73.3011 57.0415 73.4369 57.0415 73.5726V98.2319C57.0415 98.5628 57.3224 98.8259 57.6715 98.8259H71.2243C71.4967 98.8259 71.7436 98.9956 71.8287 99.2417L72.7396 101.957C72.8673 102.339 72.5608 102.738 72.1352 102.738H39.5301C39.113 102.738 38.815 102.364 38.9172 101.991L39.6748 99.2586C39.7514 98.9956 39.9983 98.8174 40.2878 98.8089L54.2833 98.758C54.6323 98.758 54.9132 98.4865 54.9132 98.164V73.6999C54.9132 73.5642 54.8622 73.4284 54.7685 73.3181L47.5324 65.0276C47.1919 64.6373 47.4898 64.0518 48.0176 64.0518H48.0006Z" fill="#FFF3EB"/>
<path d="M86.9413 98.4485C87.2753 98.5737 87.639 98.5671 88.1549 98.4255C88.9386 98.2114 89.6991 97.8723 90.3902 97.3915C92.4239 95.9789 93.9251 93.2624 93.9483 90.4668C93.9615 88.7973 93.8689 87.0686 94.4211 85.5111C95.2247 83.2424 97.2385 81.7606 98.3033 79.6269C99.0076 78.2208 99.2358 76.5481 99.0043 74.9709C98.7596 73.2981 98.0023 72.0929 98.009 70.3445C98.0189 67.6312 99.2821 65.1418 100.423 62.7348C101.567 60.3278 102.652 57.6803 102.281 55C99.7549 55.7343 97.2352 57.5914 95.5355 59.9491C93.8458 62.2936 93.6011 65.6654 91.8948 67.9967C90.0066 70.5717 86.8586 72.1884 86.0121 75.3627C85.407 77.6347 86.2932 79.9133 85.2714 82.0537C84.8614 82.9164 84.3257 83.6902 83.8925 84.5364C82.7186 86.8414 82.3681 89.693 82.9335 92.2877C83.3899 94.372 84.4348 96.272 85.8534 97.6484C86.2733 98.0567 86.5875 98.3267 86.938 98.4551L86.9413 98.4485Z" fill="#207739"/>
<path d="M86.4645 91.0919C90.0475 88.0934 92.035 83.5856 93.1363 79.057C94.2401 74.5262 94.5804 69.8447 95.5381 65.2822" stroke="#161742" stroke-width="0.4" stroke-linecap="round" stroke-linejoin="round"/>
<path d="M89.1677 97.4179C88.8205 97.5266 88.4436 97.52 87.9079 97.3916C87.0944 97.2006 86.3107 96.8943 85.5931 96.463C83.4901 95.1985 81.9491 92.7783 81.9425 90.2989C81.9359 88.8171 82.045 87.2826 81.4829 85.8997C80.6628 83.8812 78.5829 82.5542 77.4883 80.6575C76.7675 79.4063 76.5393 77.9212 76.7906 76.5185C77.0551 75.0334 77.8455 73.9698 77.8488 72.4156C77.8521 70.0053 76.5591 67.7893 75.3886 65.6489C74.218 63.5086 73.1069 61.151 73.507 58.7736C76.126 59.4387 78.7284 61.1016 80.4776 63.2024C82.217 65.2933 82.4484 68.2865 84.2076 70.3642C86.1487 72.6593 89.4091 74.1081 90.2689 76.9334C90.8839 78.9552 89.9481 80.9704 90.9964 82.8736C91.4196 83.6408 91.9685 84.329 92.4116 85.0831C93.6153 87.1345 93.9625 89.6666 93.3607 91.9683C92.8746 93.8189 91.7801 95.4982 90.2986 96.7099C89.8588 97.0689 89.5315 97.3092 89.1677 97.4212V97.4179Z" fill="#32B353"/>
<path d="M86.1628 95.9509C87.5894 91.512 86.8582 86.643 85.3661 82.2268C83.8749 77.8074 81.6569 73.6657 80.0251 69.297" stroke="#161742" stroke-width="0.4" stroke-linecap="round" stroke-linejoin="round"/>
<path d="M84.6671 87.885C83.5825 86.9499 82.3293 86.2419 81.1851 85.3825C80.17 84.6186 79.3929 83.6505 78.4571 82.8108C76.8103 81.3357 75.8811 78.82 73.4837 78.3557C72.495 78.1647 71.4798 78.3985 70.4746 78.5005C69.3205 78.6191 68.1467 78.5598 67.0091 78.3326C66.2519 78.1811 64.6382 77.2723 64 77.5061C64.7506 78.247 65.2698 79.0208 65.6434 80.0218C66.0601 81.1381 66.404 82.3465 67.277 83.1599C68.0144 83.8481 69.0163 84.1477 69.9587 84.5132C72.1511 85.3595 72.6603 87.0355 73.4639 89.0869C73.7813 89.9002 74.1715 90.8123 74.8759 91.3688C75.6529 91.9813 76.6813 91.7508 77.4551 92.2579C78.0305 92.6366 78.133 93.2852 78.4339 93.8615C78.8836 94.7275 79.5119 95.442 80.3485 95.959C81.4629 96.6472 82.7724 96.9567 84.0719 97.1279C85.5533 97.3222 87.0612 97.4539 88.5459 97.5231C88.3707 96.2158 88.2351 94.8065 87.8614 93.5355C87.4448 92.113 86.8463 90.7267 86.0593 89.4656C85.6889 88.8729 85.2061 88.3592 84.6638 87.8883L84.6671 87.885Z" fill="#207739"/>
<path d="M89.9634 101.66C88.9659 97.1068 85.8843 93.257 82.3719 90.1786C78.8586 87.0969 74.8558 84.618 71.2463 81.6504" stroke="#161742" stroke-width="0.4" stroke-linecap="round" stroke-linejoin="round"/>
<path d="M89.687 87.9146C90.7022 86.9037 91.9058 86.1134 92.9838 85.175C93.9428 84.3419 94.6504 83.3244 95.5267 82.4189C97.0643 80.8318 97.8183 78.2568 100.176 77.6311C101.151 77.371 102.18 77.5324 103.188 77.5653C104.349 77.6048 105.513 77.4632 106.634 77.157C107.378 76.9528 108.922 75.9321 109.577 76.123C108.879 76.9133 108.416 77.72 108.112 78.7474C107.775 79.89 107.517 81.1182 106.703 81.9908C106.016 82.7284 105.037 83.0972 104.124 83.5253C101.998 84.523 101.604 86.2287 100.95 88.3295C100.689 89.1625 100.364 90.0977 99.6998 90.7036C98.969 91.3654 97.9274 91.2074 97.19 91.7704C96.6411 92.1886 96.5848 92.8406 96.3269 93.4366C95.94 94.3322 95.3614 95.0896 94.5611 95.6625C93.4963 96.4265 92.2133 96.8282 90.927 97.0883C89.4621 97.3847 87.9675 97.6218 86.4927 97.793C86.5753 96.4759 86.6117 95.0633 86.8961 93.7692C87.2135 92.3203 87.7129 90.8978 88.4073 89.584C88.7346 88.965 89.1811 88.4217 89.6903 87.9146H89.687Z" fill="#32B353"/>
<path d="M87.4836 96.3052C90.4769 94.9481 92.6758 92.2698 94.2788 89.4111C95.884 86.5513 97.0007 83.4461 98.5129 80.5374" stroke="#161742" stroke-width="0.4" stroke-linecap="round" stroke-linejoin="round"/>
<path d="M93.9558 99.5286L93.8731 99.9797L92.3289 108.518H81.6547L80.1072 99.9797L80.0278 99.5286H93.9558Z" fill="#FFD325"/>
<path d="M95.2587 96.0876H78.7217V99.5286H95.2587V96.0876Z" fill="#FFD325"/>
<path d="M93.9558 99.5286L93.8731 99.9797H80.1072L80.0278 99.5286H93.9558Z" fill="#CC8F66"/>
<g clip-path="url(#clip0_1_8718)">
<path d="M46.6045 90.2471L46.6749 90.1015C36.946 85.5248 35.2105 81.6955 32.584 75.8997C31.6538 73.8473 30.6016 71.5254 29.0476 68.8281C32.9653 69.1298 36.4677 70.2586 39.4606 72.1847C41.8863 73.7457 43.9853 75.8309 45.6989 78.3829C48.6193 82.7319 49.4169 86.9854 49.4247 87.0279L49.5844 86.9983C49.5768 86.9554 48.7749 82.6744 45.8376 78.2983C44.1118 75.7268 41.9973 73.6253 39.5528 72.0515C36.4973 70.0844 32.9155 68.9421 28.9071 68.6565L28.754 68.6454L28.8306 68.7772C30.4227 71.5241 31.4923 73.8843 32.4361 75.9667C35.0773 81.795 36.8223 85.6454 46.6049 90.2472L46.6045 90.2471Z" fill="#1D478E"/>
<path d="M47.3653 88.2097L47.4992 88.1174C47.4311 88.0201 40.6398 78.3086 34.8908 73.6496L34.7874 73.7747C40.5194 78.4196 47.2975 88.1122 47.3653 88.2097Z" fill="#1D478E"/>
<path d="M39.0928 77.8399L39.2432 77.7781C39.2344 77.7567 38.3726 75.622 38.7443 73.1235L38.5838 73.1012C38.2056 75.6452 39.084 77.8185 39.0929 77.8401L39.0928 77.8399Z" fill="#1D478E"/>
<path d="M42.3349 81.6111L42.4025 81.4645C40.1939 80.4719 37.8954 80.7629 37.8726 80.7658L37.8933 80.9254C37.9157 80.9223 40.17 80.6382 42.3349 81.6111Z" fill="#1D478E"/>
<path d="M42.93 96.8436L42.8894 96.6878C40.0329 97.4369 37.1208 96.4362 33.9872 93.6283C31.2111 91.1406 28.6285 87.6051 26.1309 84.1862C24.5119 81.9696 22.9802 79.8732 21.4537 78.132C30.1127 77.1601 35.7015 82.166 35.7573 82.217L35.8677 82.0984C35.8109 82.0465 30.1047 76.932 21.2818 77.9902L21.1284 78.0086L21.2298 78.1234C22.7851 79.8815 24.3463 82.0188 25.9992 84.2816C28.5015 87.7072 31.0891 91.2492 33.8779 93.7481C37.0552 96.5952 40.0161 97.6077 42.9297 96.8437L42.93 96.8436Z" fill="#1D478E"/>
<path d="M42.2355 92.8901L42.3521 92.7776C42.2674 92.6913 33.8371 84.1377 28.8404 82.592L28.7911 82.7456C30.8394 83.3792 33.8121 85.3331 37.3887 88.3958C40.095 90.7133 42.2142 92.8688 42.2355 92.8901Z" fill="#1D478E"/>
<path d="M33.6326 85.3665L33.7721 85.2834C33.7656 85.2729 33.1208 84.1897 31.8908 81.4514L31.7425 81.5179C32.9773 84.2667 33.626 85.3559 33.6326 85.3665Z" fill="#1D478E"/>
<path d="M37.8479 88.7788L37.8883 88.6225C37.862 88.616 35.2169 87.9705 32.2059 88.371L32.2266 88.5306C35.2069 88.1339 37.8218 88.7722 37.8478 88.7785L37.8479 88.7788Z" fill="#1D478E"/>
<path d="M24.9697 71.8632C25.5303 72.1343 25.9156 72.5504 26.1785 73.072C26.4414 72.5504 26.8284 72.1327 27.3889 71.8616C26.8284 71.5906 26.4414 71.1745 26.1785 70.6528C25.9156 71.1745 25.5303 71.5921 24.9697 71.8632Z" fill="#AF8E2F"/>
</g>
<path d="M74 1.81559C74.8409 2.2222 75.4188 2.84631 75.8132 3.62881C76.2075 2.84631 76.788 2.21984 77.6288 1.81322C76.788 1.4066 76.2075 0.782499 75.8132 0C75.4188 0.782499 74.8409 1.40897 74 1.81559Z" fill="#FFD325"/>
<path d="M88.7554 44.7116C89.4561 45.0504 89.9377 45.5705 90.2663 46.2226C90.595 45.5705 91.0787 45.0485 91.7794 44.7096C91.0787 44.3708 90.595 43.8507 90.2663 43.1986C89.9377 43.8507 89.4561 44.3727 88.7554 44.7116Z" fill="#AF8E2F"/>
<path d="M44 23.5426C44.9812 24.0172 45.6536 24.7434 46.1168 25.6594C46.58 24.7481 47.2524 24.0172 48.2336 23.5426C47.2524 23.068 46.575 22.3418 46.1168 21.4258C45.6536 22.3371 44.9812 23.068 44 23.5426Z" fill="#AF8E2F"/>
<path d="M18 42.2096C18.5607 42.4808 18.9449 42.8958 19.2096 43.4192C19.4743 42.8985 19.8585 42.4808 20.4192 42.2096C19.8585 41.9384 19.4714 41.5234 19.2096 41C18.9449 41.5207 18.5607 41.9384 18 42.2096Z" fill="#FFD325"/>
<mask id="mask0_1_8718" style="mask-type:alpha" maskUnits="userSpaceOnUse" x="17" y="33" width="28" height="28">
<rect x="17" y="33" width="28" height="28" fill="#D9D9D9"/>
</mask>
<g mask="url(#mask0_1_8718)">
<path d="M31 52.2051C31.2034 52.2051 31.3739 52.1362 31.5116 51.9986C31.6493 51.8611 31.7181 51.6907 31.7181 51.4873C31.7181 51.2837 31.6493 51.1132 31.5116 50.9757C31.3739 50.838 31.2034 50.7692 31 50.7692C30.7966 50.7692 30.6261 50.838 30.4884 50.9757C30.3507 51.1132 30.2819 51.2837 30.2819 51.4873C30.2819 51.6907 30.3507 51.8611 30.4884 51.9986C30.6261 52.1362 30.7966 52.2051 31 52.2051ZM31.0009 48.346C31.1663 48.346 31.3048 48.2901 31.4162 48.1783C31.5276 48.0665 31.5833 47.928 31.5833 47.7627V41.9294C31.5833 41.7641 31.5273 41.6256 31.4153 41.5138C31.3033 41.4019 31.1646 41.346 30.9991 41.346C30.8337 41.346 30.6952 41.4019 30.5838 41.5138C30.4724 41.6256 30.4167 41.7641 30.4167 41.9294V47.7627C30.4167 47.928 30.4727 48.0665 30.5847 48.1783C30.6967 48.2901 30.8354 48.346 31.0009 48.346ZM31.0038 57.5C29.5519 57.5 28.1868 57.2245 26.9085 56.6734C25.6304 56.1224 24.5186 55.3745 23.573 54.4299C22.6274 53.4853 21.8789 52.3744 21.3275 51.0973C20.7758 49.8204 20.5 48.4559 20.5 47.0038C20.5 45.5519 20.7755 44.1868 21.3266 42.9085C21.8776 41.6304 22.6255 40.5186 23.5701 39.573C24.5147 38.6274 25.6256 37.8789 26.9027 37.3275C28.1796 36.7758 29.5441 36.5 30.9962 36.5C32.4481 36.5 33.8132 36.7755 35.0915 37.3266C36.3696 37.8776 37.4814 38.6255 38.427 39.5701C39.3726 40.5147 40.1211 41.6256 40.6725 42.9027C41.2242 44.1796 41.5 45.5441 41.5 46.9962C41.5 48.4481 41.2245 49.8132 40.6734 51.0915C40.1224 52.3696 39.3745 53.4814 38.4299 54.427C37.4853 55.3726 36.3744 56.1211 35.0973 56.6725C33.8204 57.2242 32.4559 57.5 31.0038 57.5Z" fill="#EE3D4B"/>
</g>
<path d="M15.8941 109.987C24.6722 109.987 31.7882 107.429 31.7882 104.275C31.7882 101.12 24.6722 98.5623 15.8941 98.5623C7.11604 98.5623 1.86201e-08 101.12 4.15892e-08 104.275C6.45583e-08 107.429 7.11604 109.987 15.8941 109.987Z" fill="#5BC4F0" fill-opacity="0.3"/>
<path d="M6.8833 102.857C6.8833 105.273 9.90642 107.347 14.2428 108.276L14.2428 97.4386C9.90642 98.3671 6.8833 100.442 6.8833 102.857Z" fill="#AF8E2F"/>
<path d="M17.5459 96.9889L17.5459 108.725C18.077 108.762 18.6154 108.787 19.1611 108.791L19.1611 96.9272C18.6118 96.9309 18.0734 96.9563 17.5459 96.9925L17.5459 96.9889Z" fill="#AF8E2F"/>
<path d="M31.7595 100.434L6.8833 100.434L6.8833 103.343L31.7595 103.343L31.7595 100.434Z" fill="#AF8E2F"/>
<path d="M31.7593 102.857C31.7593 100.895 29.762 99.1538 26.688 98.0767L26.688 107.641C29.762 106.56 31.7593 104.823 31.7593 102.86L31.7593 102.857Z" fill="#AF8E2F"/>
<path d="M14.2427 97.4385L14.2427 108.275C15.2758 108.497 16.3891 108.645 17.5459 108.725L17.5459 96.9888C16.3854 97.0686 15.2758 97.2173 14.2427 97.4385Z" fill="#D6B11E"/>
<path d="M19.3215 96.9198C19.2705 96.9198 19.2196 96.9198 19.165 96.9198L19.165 108.783C19.216 108.783 19.2669 108.783 19.3215 108.783C22.079 108.783 24.6256 108.355 26.6883 107.63L26.6883 98.0659C24.6256 97.3406 22.079 96.9126 19.3215 96.9126L19.3215 96.9198Z" fill="#D6B11E"/>
<path d="M19.3214 107.028C26.1907 107.028 31.7595 104.37 31.7595 101.091C31.7595 97.8117 26.1907 95.1536 19.3214 95.1536C12.452 95.1536 6.8833 97.8117 6.8833 101.091C6.8833 104.37 12.452 107.028 19.3214 107.028Z" fill="#AF8E2F"/>
<path d="M19.3214 106.585C26.1907 106.585 31.7595 103.927 31.7595 100.648C31.7595 97.3692 26.1907 94.7111 19.3214 94.7111C12.452 94.7111 6.8833 97.3692 6.8833 100.648C6.8833 103.927 12.452 106.585 19.3214 106.585Z" fill="#FFD840"/>
<path d="M19.3212 105.218C24.7842 105.218 29.2127 103.172 29.2127 100.648C29.2127 98.1241 24.7842 96.0781 19.3212 96.0781C13.8583 96.0781 9.42969 98.1241 9.42969 100.648C9.42969 103.172 13.8583 105.218 19.3212 105.218Z" fill="#FFD325"/>
<path d="M16.476 101.061L14.9263 100.242L16.1377 99.6143L17.6875 100.434C18.4187 100.818 19.6192 100.818 20.365 100.434C21.1108 100.046 21.1253 99.4185 20.3941 99.034L18.7752 98.1781L19.9866 97.5507L21.6055 98.4066C22.9879 99.1392 22.9625 100.329 21.5509 101.061C20.1358 101.794 17.8621 101.794 16.476 101.061Z" fill="#AF8E2F"/>
<path d="M22.3291 102.106L16.814 99.1898L18.0254 98.5624L23.5405 101.478L22.3291 102.106Z" fill="#AF8E2F"/>
<path d="M24.2905 101.09L18.7754 98.1744L19.9868 97.547L25.4983 100.463L24.2905 101.09Z" fill="#AF8E2F"/>
<path d="M16.0831 103.749L16.6215 100.31L14.9335 100.245L14.5151 102.918L16.0831 103.749Z" fill="#AF8E2F"/>
<path d="M6.8833 99.1796C6.8833 101.595 9.90642 103.67 14.2428 104.598L14.2428 93.7611C9.90642 94.6896 6.8833 96.7641 6.8833 99.1796Z" fill="#AF8E2F"/>
<path d="M17.5459 93.3114L17.5459 105.048C18.077 105.084 18.6154 105.11 19.1611 105.113L19.1611 93.2498C18.6118 93.2534 18.0734 93.2788 17.5459 93.315L17.5459 93.3114Z" fill="#AF8E2F"/>
<path d="M31.7595 96.7566L6.8833 96.7566L6.8833 99.6653L31.7595 99.6653L31.7595 96.7566Z" fill="#AF8E2F"/>
<path d="M31.7593 99.1793C31.7593 97.2172 29.762 95.4763 26.688 94.3992L26.688 103.963C29.762 102.882 31.7593 101.145 31.7593 99.183L31.7593 99.1793Z" fill="#AF8E2F"/>
<path d="M14.2427 93.761L14.2427 104.598C15.2758 104.819 16.3891 104.968 17.5459 105.048L17.5459 93.3113C16.3854 93.3911 15.2758 93.5398 14.2427 93.761Z" fill="#D6B11E"/>
<path d="M19.3215 93.2424C19.2705 93.2424 19.2196 93.2424 19.165 93.2424L19.165 105.106C19.216 105.106 19.2669 105.106 19.3215 105.106C22.079 105.106 24.6256 104.678 26.6883 103.952L26.6883 94.3884C24.6256 93.6631 22.079 93.2351 19.3215 93.2351L19.3215 93.2424Z" fill="#D6B11E"/>
<path d="M19.3214 103.35C26.1907 103.35 31.7595 100.692 31.7595 97.4133C31.7595 94.1343 26.1907 91.4762 19.3214 91.4762C12.452 91.4762 6.8833 94.1343 6.8833 97.4133C6.8833 100.692 12.452 103.35 19.3214 103.35Z" fill="#AF8E2F"/>
<path d="M19.3214 102.908C26.1907 102.908 31.7595 100.25 31.7595 96.9706C31.7595 93.6916 26.1907 91.0334 19.3214 91.0334C12.452 91.0334 6.8833 93.6916 6.8833 96.9706C6.8833 100.25 12.452 102.908 19.3214 102.908Z" fill="#FFD840"/>
<path d="M19.3212 101.54C24.7842 101.54 29.2127 99.4943 29.2127 96.9705C29.2127 94.4466 24.7842 92.4006 19.3212 92.4006C13.8583 92.4006 9.42969 94.4466 9.42969 96.9705C9.42969 99.4943 13.8583 101.54 19.3212 101.54Z" fill="#FFD325"/>
<path d="M16.476 97.3841L14.9263 96.5644L16.1377 95.937L17.6875 96.7566C18.4187 97.1411 19.6192 97.1411 20.365 96.7566C21.1108 96.3686 21.1253 95.7411 20.3941 95.3567L18.7752 94.5007L19.9866 93.8733L21.6055 94.7292C22.9879 95.4619 22.9625 96.6514 21.5509 97.3841C20.1358 98.1167 17.8621 98.1167 16.476 97.3841Z" fill="#AF8E2F"/>
<path d="M22.3291 98.4284L16.814 95.5124L18.0254 94.885L23.5405 97.801L22.3291 98.4284Z" fill="#AF8E2F"/>
<path d="M24.2905 97.4131L18.7754 94.4971L19.9868 93.8696L25.4983 96.7856L24.2905 97.4131Z" fill="#AF8E2F"/>
<path d="M16.0831 100.071L16.6215 96.633L14.9335 96.5677L14.5151 99.2407L16.0831 100.071Z" fill="#AF8E2F"/>
<path d="M6.8833 95.5011C6.8833 97.9166 9.90642 99.9912 14.2428 100.92L14.2428 90.0826C9.90642 91.0111 6.8833 93.0857 6.8833 95.5011Z" fill="#AF8E2F"/>
<path d="M17.5459 89.6329L17.5459 101.369C18.077 101.406 18.6154 101.431 19.1611 101.435L19.1611 89.5713C18.6118 89.5749 18.0734 89.6003 17.5459 89.6366L17.5459 89.6329Z" fill="#AF8E2F"/>
<path d="M31.7595 93.0782L6.8833 93.0782L6.8833 95.987L31.7595 95.987L31.7595 93.0782Z" fill="#AF8E2F"/>
<path d="M31.7593 95.5008C31.7593 93.5387 29.762 91.7978 26.688 90.717L26.688 100.281C29.762 99.2002 31.7593 97.4629 31.7593 95.5008Z" fill="#AF8E2F"/>
<path d="M14.2427 90.0825L14.2427 100.92C15.2758 101.141 16.3891 101.289 17.5459 101.369L17.5459 89.6328C16.3854 89.7126 15.2758 89.8613 14.2427 90.0825Z" fill="#D6B11E"/>
<path d="M19.3215 89.5639C19.2705 89.5639 19.2196 89.5639 19.165 89.5639L19.165 101.427C19.216 101.427 19.2669 101.427 19.3215 101.427C22.079 101.427 24.6256 100.999 26.6883 100.274L26.6883 90.71C24.6256 89.9846 22.079 89.5566 19.3215 89.5566L19.3215 89.5639Z" fill="#D6B11E"/>
<path d="M19.3214 99.672C26.1907 99.672 31.7595 97.0138 31.7595 93.7349C31.7595 90.4559 26.1907 87.7977 19.3214 87.7977C12.452 87.7977 6.8833 90.4559 6.8833 93.7349C6.8833 97.0138 12.452 99.672 19.3214 99.672Z" fill="#AF8E2F"/>
<path d="M19.3214 99.2294C26.1907 99.2294 31.7595 96.5712 31.7595 93.2922C31.7595 90.0132 26.1907 87.3551 19.3214 87.3551C12.452 87.3551 6.8833 90.0132 6.8833 93.2922C6.8833 96.5712 12.452 99.2294 19.3214 99.2294Z" fill="#FFD840"/>
<path d="M19.3212 97.8619C24.7842 97.8619 29.2127 95.8159 29.2127 93.2921C29.2127 90.7683 24.7842 88.7223 19.3212 88.7223C13.8583 88.7223 9.42969 90.7683 9.42969 93.2921C9.42969 95.8159 13.8583 97.8619 19.3212 97.8619Z" fill="#FFD325"/>
<path d="M16.476 93.7055L14.9263 92.8858L16.1377 92.2584L17.6875 93.078C18.4187 93.4625 19.6192 93.4625 20.365 93.078C21.1108 92.69 21.1253 92.0625 20.3941 91.6781L18.7752 90.8221L19.9866 90.1947L21.6055 91.0506C22.9879 91.7833 22.9625 92.9729 21.5509 93.7055C20.1358 94.4381 17.8621 94.4381 16.476 93.7055Z" fill="#AF8E2F"/>
<path d="M22.3291 94.7498L16.814 91.8339L18.0254 91.2064L23.5405 94.1224L22.3291 94.7498Z" fill="#AF8E2F"/>
<path d="M24.2905 93.7345L18.7754 90.8185L19.9868 90.191L25.4983 93.107L24.2905 93.7345Z" fill="#AF8E2F"/>
<path d="M16.0831 96.3927L16.6215 92.9544L14.9335 92.8892L14.5151 95.5621L16.0831 96.3927Z" fill="#AF8E2F"/>
<path d="M6.8833 91.8234C6.8833 94.2389 9.90642 96.3134 14.2428 97.2419L14.2428 86.4049C9.90642 87.3334 6.8833 89.4079 6.8833 91.8234Z" fill="#AF8E2F"/>
<path d="M17.5459 85.9552L17.5459 97.6917C18.077 97.7279 18.6154 97.7533 19.1611 97.7569L19.1611 85.8936C18.6118 85.8972 18.0734 85.9226 17.5459 85.9588L17.5459 85.9552Z" fill="#AF8E2F"/>
<path d="M31.7595 89.4004L6.8833 89.4004L6.8833 92.3091L31.7595 92.3091L31.7595 89.4004Z" fill="#AF8E2F"/>
<path d="M31.7593 91.8231C31.7593 89.861 29.762 88.1201 26.688 87.043L26.688 96.6069C29.762 95.5261 31.7593 93.7889 31.7593 91.8268L31.7593 91.8231Z" fill="#AF8E2F"/>
<path d="M14.2427 86.4048L14.2427 97.2418C15.2758 97.463 16.3891 97.6117 17.5459 97.6915L17.5459 85.9551C16.3854 86.0349 15.2758 86.1836 14.2427 86.4048Z" fill="#D6B11E"/>
<path d="M19.3215 85.8862C19.2705 85.8862 19.2196 85.8862 19.165 85.8862L19.165 97.7495C19.216 97.7495 19.2669 97.7495 19.3215 97.7495C22.079 97.7495 24.6256 97.3216 26.6883 96.5962L26.6883 87.0322C24.6256 86.3069 22.079 85.8789 19.3215 85.8789L19.3215 85.8862Z" fill="#D6B11E"/>
<path d="M19.3214 95.9941C26.1907 95.9941 31.7595 93.336 31.7595 90.057C31.7595 86.778 26.1907 84.1199 19.3214 84.1199C12.452 84.1199 6.8833 86.778 6.8833 90.057C6.8833 93.336 12.452 95.9941 19.3214 95.9941Z" fill="#AF8E2F"/>
<path d="M19.3214 95.5519C26.1907 95.5519 31.7595 92.8937 31.7595 89.6147C31.7595 86.3358 26.1907 83.6776 19.3214 83.6776C12.452 83.6776 6.8833 86.3358 6.8833 89.6147C6.8833 92.8937 12.452 95.5519 19.3214 95.5519Z" fill="#FFD840"/>
<path d="M19.3212 94.1841C24.7842 94.1841 29.2127 92.1381 29.2127 89.6142C29.2127 87.0904 24.7842 85.0444 19.3212 85.0444C13.8583 85.0444 9.42969 87.0904 9.42969 89.6142C9.42969 92.1381 13.8583 94.1841 19.3212 94.1841Z" fill="#FFD325"/>
<path d="M16.476 90.028L14.9263 89.2083L16.1377 88.5809L17.6875 89.4006C18.4187 89.785 19.6192 89.785 20.365 89.4006C21.1108 89.0125 21.1253 88.385 20.3941 88.0006L18.7752 87.1447L19.9866 86.5172L21.6055 87.3732C22.9879 88.1058 22.9625 89.2954 21.5509 90.028C20.1358 90.7606 17.8621 90.7606 16.476 90.028Z" fill="#AF8E2F"/>
<path d="M22.3291 91.0723L16.814 88.1564L18.0254 87.5289L23.5405 90.4449L22.3291 91.0723Z" fill="#AF8E2F"/>
<path d="M24.2905 90.057L18.7754 87.141L19.9868 86.5135L25.4983 89.4295L24.2905 90.057Z" fill="#AF8E2F"/>
<path d="M16.0831 92.7152L16.6215 89.2733L14.9335 89.2117L14.5151 91.8846L16.0831 92.7152Z" fill="#AF8E2F"/>
<path d="M6.8833 88.1459C6.8833 90.5614 9.90642 92.6359 14.2428 93.5644L14.2428 82.7274C9.90642 83.6559 6.8833 85.7304 6.8833 88.1459Z" fill="#AF8E2F"/>
<path d="M17.5459 82.2777L17.5459 94.0142C18.077 94.0504 18.6154 94.0758 19.1611 94.0794L19.1611 82.2161C18.6118 82.2197 18.0734 82.2451 17.5459 82.2813L17.5459 82.2777Z" fill="#AF8E2F"/>
<path d="M31.7595 85.7229L6.8833 85.7229L6.8833 88.6316L31.7595 88.6316L31.7595 85.7229Z" fill="#AF8E2F"/>
<path d="M31.7593 88.1456C31.7593 86.1835 29.762 84.4426 26.688 83.3655L26.688 92.9294C29.762 91.8486 31.7593 90.1114 31.7593 88.1493L31.7593 88.1456Z" fill="#AF8E2F"/>
<path d="M14.2427 82.7273L14.2427 93.5643C15.2758 93.7855 16.3891 93.9342 17.5459 94.014L17.5459 82.2776C16.3854 82.3574 15.2758 82.5061 14.2427 82.7273Z" fill="#D6B11E"/>
<path d="M19.3215 82.2087C19.2705 82.2087 19.2196 82.2087 19.165 82.2087L19.165 94.0721C19.216 94.0721 19.2669 94.0721 19.3215 94.0721C22.079 94.0721 24.6256 93.6441 26.6883 92.9187L26.6883 83.3547C24.6256 82.6294 22.079 82.2014 19.3215 82.2014L19.3215 82.2087Z" fill="#D6B11E"/>
<path d="M19.3214 92.3168C26.1907 92.3168 31.7595 89.6586 31.7595 86.3796C31.7595 83.1006 26.1907 80.4425 19.3214 80.4425C12.452 80.4425 6.8833 83.1006 6.8833 86.3796C6.8833 89.6586 12.452 92.3168 19.3214 92.3168Z" fill="#AF8E2F"/>
<path d="M19.3214 91.8743C26.1907 91.8743 31.7595 89.2161 31.7595 85.9371C31.7595 82.6581 26.1907 80 19.3214 80C12.452 80 6.8833 82.6581 6.8833 85.9371C6.8833 89.2161 12.452 91.8743 19.3214 91.8743Z" fill="#FFD840"/>
<path d="M19.3212 90.5066C24.7842 90.5066 29.2127 88.4606 29.2127 85.9368C29.2127 83.4129 24.7842 81.3669 19.3212 81.3669C13.8583 81.3669 9.42969 83.4129 9.42969 85.9368C9.42969 88.4606 13.8583 90.5066 19.3212 90.5066Z" fill="#FFD325"/>
<path d="M16.476 86.3501L14.9263 85.5305L16.1377 84.903L17.6875 85.7227C18.4187 86.1071 19.6192 86.1071 20.365 85.7227C21.1108 85.3346 21.1253 84.7072 20.3941 84.3227L18.7752 83.4668L19.9866 82.8394L21.6055 83.6953C22.9879 84.4279 22.9625 85.6175 21.5509 86.3501C20.1358 87.0828 17.8621 87.0828 16.476 86.3501Z" fill="#AF8E2F"/>
<path d="M22.3291 87.3945L16.814 84.4785L18.0254 83.8511L23.5405 86.7671L22.3291 87.3945Z" fill="#AF8E2F"/>
<path d="M24.2905 86.3791L18.7754 83.4631L19.9868 82.8357L25.4983 85.7517L24.2905 86.3791Z" fill="#AF8E2F"/>
<path d="M16.0831 89.0337L16.6215 85.5955L14.9335 85.5338L14.5151 88.2068L16.0831 89.0337Z" fill="#AF8E2F"/>
<path d="M122 23.5C122 34.2696 113.046 43 102 43C90.9543 43 82 34.2696 82 23.5C82 12.7304 90.9543 4 102 4C113.046 4 122 12.7304 122 23.5Z" fill="white" fill-opacity="0.8"/>
<defs>
<clipPath id="clip0_1_8718">
<rect width="23.7939" height="31.3646" fill="white" transform="matrix(-0.937933 0.346817 0.346817 0.937933 41.3169 64)"/>
</clipPath>
</defs>
</svg>
