<svg width="16" height="16" viewBox="0 0 16 16" fill="none" xmlns="http://www.w3.org/2000/svg">
<mask id="mask0_137_64758" style="mask-type:alpha" maskUnits="userSpaceOnUse" x="0" y="0" width="16" height="16">
<rect width="16" height="16" fill="#D9D9D9"/>
</mask>
<g mask="url(#mask0_137_64758)">
<path d="M7.02415 8.00006L4.19732 5.16923C4.13488 5.1069 4.10088 5.03106 4.09532 4.94173C4.08976 4.8524 4.12376 4.77101 4.19732 4.69756C4.26821 4.62656 4.34682 4.59106 4.43315 4.59106C4.51949 4.59106 4.5981 4.62656 4.66899 4.69756L7.59465 7.62306C7.65277 7.68129 7.6936 7.74073 7.71715 7.8014C7.7406 7.86206 7.75232 7.92829 7.75232 8.00006C7.75232 8.07184 7.7406 8.13806 7.71715 8.19873C7.6936 8.2594 7.65277 8.31884 7.59465 8.37706L4.66899 11.3026C4.60665 11.365 4.53082 11.399 4.44149 11.4046C4.35215 11.4101 4.27076 11.3761 4.19732 11.3026C4.12632 11.2317 4.09082 11.1531 4.09082 11.0667C4.09082 10.9804 4.12632 10.9018 4.19732 10.8309L7.02415 8.00006ZM11.0908 8.00006L8.26399 5.16923C8.20154 5.1069 8.16754 5.03106 8.16199 4.94173C8.15643 4.8524 8.19043 4.77101 8.26399 4.69756C8.33488 4.62656 8.41349 4.59106 8.49982 4.59106C8.58615 4.59106 8.66477 4.62656 8.73565 4.69756L11.6613 7.62306C11.7194 7.68129 11.7603 7.74073 11.7838 7.8014C11.8073 7.86206 11.819 7.92829 11.819 8.00006C11.819 8.07184 11.8073 8.13806 11.7838 8.19873C11.7603 8.2594 11.7194 8.31884 11.6613 8.37706L8.73565 11.3026C8.67332 11.365 8.59749 11.399 8.50815 11.4046C8.41882 11.4101 8.33743 11.3761 8.26399 11.3026C8.19299 11.2317 8.15749 11.1531 8.15749 11.0667C8.15749 10.9804 8.19299 10.9018 8.26399 10.8309L11.0908 8.00006Z" fill="#161742"/>
</g>
</svg>
