<svg width="59" height="53" viewBox="0 0 59 53" fill="none" xmlns="http://www.w3.org/2000/svg">
<path d="M47 6.0039C49.5489 7.34853 51.3008 9.41238 52.4962 12C53.6917 9.41238 55.4511 7.3407 58 5.99608C55.4511 4.65145 53.6917 2.58762 52.4962 0C51.3008 2.58762 49.5489 4.65928 47 6.0039Z" fill="#F0C61C"/>
<path d="M52 49.5023C53.622 50.2866 54.7368 51.4906 55.4976 53C56.2584 51.4906 57.378 50.2821 59 49.4977C57.378 48.7133 56.2584 47.5094 55.4976 46C54.7368 47.5094 53.622 48.7179 52 49.5023Z" fill="#F0C61C"/>
<path d="M0 34.5023C1.62201 35.2866 2.73684 36.4906 3.49761 38C4.25838 36.4906 5.37799 35.2821 7 34.4977C5.37799 33.7133 4.25838 32.5094 3.49761 31C2.73684 32.5094 1.62201 33.7179 0 34.5023Z" fill="#F0C61C"/>
</svg>
