<svg width="62" height="62" viewBox="0 0 62 62" fill="none" xmlns="http://www.w3.org/2000/svg">
<g filter="url(#filter0_d_140_12276)">
<circle cx="31" cy="31" r="27" fill="#0E2E6B"/>
</g>
<path d="M27.9539 28.832V20.3945C27.954 20.282 27.9271 20.1711 27.8754 20.0712C27.8237 19.9712 27.7488 19.8852 27.6569 19.8202C27.5651 19.7552 27.459 19.7132 27.3475 19.6977C27.2361 19.6822 27.1225 19.6937 27.0164 19.7313C24.3321 20.6801 22.0746 22.5559 20.6502 25.0212C19.2259 27.4864 18.7283 30.379 19.2469 33.1785C19.2673 33.2892 19.314 33.3934 19.383 33.4824C19.452 33.5713 19.5414 33.6423 19.6436 33.6895C19.7458 33.7367 19.8579 33.7587 19.9703 33.7536C20.0828 33.7485 20.1924 33.7164 20.2899 33.6602L27.6024 29.4414C27.7093 29.3797 27.7981 29.2908 27.8598 29.1838C27.9216 29.0769 27.954 28.9555 27.9539 28.832ZM26.5477 28.4219L20.4938 31.9141C20.4672 31.6102 20.4539 31.3055 20.4539 31C20.4555 28.992 21.0295 27.026 22.1089 25.3327C23.1882 23.6394 24.728 22.289 26.5477 21.4398V28.4219ZM31.0008 19.0469C30.8143 19.0469 30.6355 19.121 30.5036 19.2528C30.3718 19.3847 30.2977 19.5635 30.2977 19.75V30.6484L20.9461 36.093C20.8662 36.1396 20.7963 36.2015 20.7404 36.2752C20.6845 36.3489 20.6437 36.4328 20.6203 36.5223C20.5969 36.6118 20.5913 36.705 20.604 36.7967C20.6167 36.8883 20.6473 36.9765 20.6942 37.0562C21.7553 38.8618 23.2721 40.3569 25.0928 41.3917C26.9135 42.4266 28.9741 42.965 31.0683 42.9529C33.1625 42.9409 35.2168 42.3788 37.0254 41.323C38.8341 40.2672 40.3336 38.7548 41.3738 36.9372C42.414 35.1195 42.9585 33.0605 42.9525 30.9663C42.9466 28.872 42.3906 26.8161 41.3401 25.0044C40.2897 23.1926 38.7816 21.6887 36.9671 20.6431C35.1525 19.5976 33.0951 19.0471 31.0008 19.0469ZM31.0008 41.5469C29.2835 41.5423 27.593 41.1207 26.0746 40.3182C24.5563 39.5158 23.2556 38.3566 22.2844 36.9402L31.3524 31.6574C31.4592 31.5958 31.5478 31.5071 31.6096 31.4004C31.6713 31.2936 31.7038 31.1725 31.7039 31.0492V20.4766C34.4342 20.6589 36.9868 21.8952 38.8225 23.9244C40.6583 25.9537 41.6335 28.6169 41.5422 31.3518C41.4509 34.0866 40.3004 36.6789 38.3334 38.5812C36.3665 40.4836 33.7372 41.547 31.0008 41.5469Z" fill="#ADE1F7"/>
<defs>
<filter id="filter0_d_140_12276" x="0" y="0" width="62" height="62" filterUnits="userSpaceOnUse" color-interpolation-filters="sRGB">
<feFlood flood-opacity="0" result="BackgroundImageFix"/>
<feColorMatrix in="SourceAlpha" type="matrix" values="0 0 0 0 0 0 0 0 0 0 0 0 0 0 0 0 0 0 127 0" result="hardAlpha"/>
<feOffset/>
<feGaussianBlur stdDeviation="2"/>
<feComposite in2="hardAlpha" operator="out"/>
<feColorMatrix type="matrix" values="0 0 0 0 0.678431 0 0 0 0 0.882353 0 0 0 0 0.968627 0 0 0 1 0"/>
<feBlend mode="normal" in2="BackgroundImageFix" result="effect1_dropShadow_140_12276"/>
<feBlend mode="normal" in="SourceGraphic" in2="effect1_dropShadow_140_12276" result="shape"/>
</filter>
</defs>
</svg>
