<svg width="62" height="62" viewBox="0 0 62 62" fill="none" xmlns="http://www.w3.org/2000/svg">
<g filter="url(#filter0_d_140_10143)">
<circle cx="31" cy="31" r="27" fill="#0E2E6B"/>
<path d="M36.625 22.7969H25.375C25.1885 22.7969 25.0097 22.871 24.8778 23.0028C24.746 23.1347 24.6719 23.3135 24.6719 23.5V29.125C24.6719 29.3115 24.746 29.4903 24.8778 29.6222C25.0097 29.754 25.1885 29.8281 25.375 29.8281H36.625C36.8115 29.8281 36.9903 29.754 37.1222 29.6222C37.254 29.4903 37.3281 29.3115 37.3281 29.125V23.5C37.3281 23.3135 37.254 23.1347 37.1222 23.0028C36.9903 22.871 36.8115 22.7969 36.625 22.7969ZM35.9219 28.4219H26.0781V24.2031H35.9219V28.4219ZM39.4375 19.0469H22.5625C22.1274 19.0469 21.7101 19.2197 21.4024 19.5274C21.0947 19.8351 20.9219 20.2524 20.9219 20.6875V41.3125C20.9219 41.7476 21.0947 42.1649 21.4024 42.4726C21.7101 42.7803 22.1274 42.9531 22.5625 42.9531H39.4375C39.8726 42.9531 40.2899 42.7803 40.5976 42.4726C40.9053 42.1649 41.0781 41.7476 41.0781 41.3125V20.6875C41.0781 20.2524 40.9053 19.8351 40.5976 19.5274C40.2899 19.2197 39.8726 19.0469 39.4375 19.0469ZM39.6719 41.3125C39.6719 41.3747 39.6472 41.4343 39.6032 41.4782C39.5593 41.5222 39.4997 41.5469 39.4375 41.5469H22.5625C22.5003 41.5469 22.4407 41.5222 22.3968 41.4782C22.3528 41.4343 22.3281 41.3747 22.3281 41.3125V20.6875C22.3281 20.6253 22.3528 20.5657 22.3968 20.5218C22.4407 20.4778 22.5003 20.4531 22.5625 20.4531H39.4375C39.4997 20.4531 39.5593 20.4778 39.6032 20.5218C39.6472 20.5657 39.6719 20.6253 39.6719 20.6875V41.3125ZM27.4844 33.3438C27.4844 33.5755 27.4156 33.8021 27.2869 33.9948C27.1581 34.1875 26.9751 34.3377 26.761 34.4264C26.5468 34.5151 26.3112 34.5383 26.0839 34.4931C25.8566 34.4479 25.6477 34.3363 25.4839 34.1724C25.32 34.0085 25.2084 33.7997 25.1631 33.5724C25.1179 33.345 25.1411 33.1094 25.2298 32.8953C25.3185 32.6812 25.4687 32.4981 25.6614 32.3694C25.8542 32.2406 26.0807 32.1719 26.3125 32.1719C26.6233 32.1719 26.9214 32.2953 27.1411 32.5151C27.3609 32.7349 27.4844 33.0329 27.4844 33.3438ZM32.1719 33.3438C32.1719 33.5755 32.1031 33.8021 31.9744 33.9948C31.8456 34.1875 31.6626 34.3377 31.4485 34.4264C31.2343 34.5151 30.9987 34.5383 30.7714 34.4931C30.5441 34.4479 30.3352 34.3363 30.1714 34.1724C30.0075 34.0085 29.8959 33.7997 29.8506 33.5724C29.8054 33.345 29.8286 33.1094 29.9173 32.8953C30.006 32.6812 30.1562 32.4981 30.3489 32.3694C30.5417 32.2406 30.7682 32.1719 31 32.1719C31.3108 32.1719 31.6089 32.2953 31.8286 32.5151C32.0484 32.7349 32.1719 33.0329 32.1719 33.3438ZM36.8594 33.3438C36.8594 33.5755 36.7906 33.8021 36.6619 33.9948C36.5331 34.1875 36.3501 34.3377 36.136 34.4264C35.9218 34.5151 35.6862 34.5383 35.4589 34.4931C35.2316 34.4479 35.0227 34.3363 34.8589 34.1724C34.695 34.0085 34.5834 33.7997 34.5381 33.5724C34.4929 33.345 34.5161 33.1094 34.6048 32.8953C34.6935 32.6812 34.8437 32.4981 35.0364 32.3694C35.2292 32.2406 35.4557 32.1719 35.6875 32.1719C35.9983 32.1719 36.2964 32.2953 36.5161 32.5151C36.7359 32.7349 36.8594 33.0329 36.8594 33.3438ZM27.4844 38.0312C27.4844 38.263 27.4156 38.4896 27.2869 38.6823C27.1581 38.875 26.9751 39.0252 26.761 39.1139C26.5468 39.2026 26.3112 39.2258 26.0839 39.1806C25.8566 39.1354 25.6477 39.0238 25.4839 38.8599C25.32 38.696 25.2084 38.4872 25.1631 38.2599C25.1179 38.0325 25.1411 37.7969 25.2298 37.5828C25.3185 37.3687 25.4687 37.1856 25.6614 37.0569C25.8542 36.9281 26.0807 36.8594 26.3125 36.8594C26.6233 36.8594 26.9214 36.9828 27.1411 37.2026C27.3609 37.4224 27.4844 37.7204 27.4844 38.0312ZM32.1719 38.0312C32.1719 38.263 32.1031 38.4896 31.9744 38.6823C31.8456 38.875 31.6626 39.0252 31.4485 39.1139C31.2343 39.2026 30.9987 39.2258 30.7714 39.1806C30.5441 39.1354 30.3352 39.0238 30.1714 38.8599C30.0075 38.696 29.8959 38.4872 29.8506 38.2599C29.8054 38.0325 29.8286 37.7969 29.9173 37.5828C30.006 37.3687 30.1562 37.1856 30.3489 37.0569C30.5417 36.9281 30.7682 36.8594 31 36.8594C31.3108 36.8594 31.6089 36.9828 31.8286 37.2026C32.0484 37.4224 32.1719 37.7204 32.1719 38.0312ZM36.8594 38.0312C36.8594 38.263 36.7906 38.4896 36.6619 38.6823C36.5331 38.875 36.3501 39.0252 36.136 39.1139C35.9218 39.2026 35.6862 39.2258 35.4589 39.1806C35.2316 39.1354 35.0227 39.0238 34.8589 38.8599C34.695 38.696 34.5834 38.4872 34.5381 38.2599C34.4929 38.0325 34.5161 37.7969 34.6048 37.5828C34.6935 37.3687 34.8437 37.1856 35.0364 37.0569C35.2292 36.9281 35.4557 36.8594 35.6875 36.8594C35.9983 36.8594 36.2964 36.9828 36.5161 37.2026C36.7359 37.4224 36.8594 37.7204 36.8594 38.0312Z" fill="#ADE1F7"/>
</g>
<defs>
<filter id="filter0_d_140_10143" x="0" y="0" width="62" height="62" filterUnits="userSpaceOnUse" color-interpolation-filters="sRGB">
<feFlood flood-opacity="0" result="BackgroundImageFix"/>
<feColorMatrix in="SourceAlpha" type="matrix" values="0 0 0 0 0 0 0 0 0 0 0 0 0 0 0 0 0 0 127 0" result="hardAlpha"/>
<feOffset/>
<feGaussianBlur stdDeviation="2"/>
<feComposite in2="hardAlpha" operator="out"/>
<feColorMatrix type="matrix" values="0 0 0 0 0.678431 0 0 0 0 0.882353 0 0 0 0 0.968627 0 0 0 1 0"/>
<feBlend mode="normal" in2="BackgroundImageFix" result="effect1_dropShadow_140_10143"/>
<feBlend mode="normal" in="SourceGraphic" in2="effect1_dropShadow_140_10143" result="shape"/>
</filter>
</defs>
</svg>
