<svg width="112" height="151" viewBox="0 0 112 151" fill="none" xmlns="http://www.w3.org/2000/svg">
<path d="M77 101.187C77 121.372 60.4345 137.735 40 137.735C19.5655 137.735 3 121.372 3 101.187C3 81.0015 19.5655 64.6382 40 64.6382C60.4345 64.6382 77 81.0015 77 101.187Z" fill="white" fill-opacity="0.9"/>
<path d="M98 21.4711C99.1586 22.0245 99.9549 22.874 100.498 23.939C101.042 22.874 101.841 22.0213 103 21.4679C101.841 20.9145 101.042 20.065 100.498 19C99.9549 20.065 99.1586 20.9177 98 21.4711Z" fill="#FFD325"/>
<path d="M111 2.57021C112.159 3.12364 112.955 3.97308 113.498 5.0381C114.042 3.97308 114.841 3.12042 116 2.56699C114.841 2.01357 114.042 1.16414 113.498 0.0991211C112.955 1.16414 112.159 2.01679 111 2.57021Z" fill="#AF8E2F"/>
<path d="M0 103.84C1.62235 104.615 2.73412 105.801 3.5 107.297C4.26588 105.809 5.37765 104.615 7 103.84C5.37765 103.065 4.25765 101.879 3.5 100.383C2.73412 101.871 1.62235 103.065 0 103.84Z" fill="#AF8E2F"/>
<path d="M68 59.5C69.1588 60.0605 69.9529 60.9182 70.5 62C71.0471 60.9238 71.8412 60.0605 73 59.5C71.8412 58.9394 71.0412 58.0818 70.5 57C69.9529 58.0762 69.1588 58.9394 68 59.5Z" fill="#AF8E2F"/>
<path d="M31.7879 59.9038C30.4308 61.5878 31.3736 64.7327 33.8824 67.814L39.9784 60.2513C36.4276 58.4664 33.1492 58.218 31.791 59.905L31.7879 59.9038Z" fill="#AF8E2F"/>
<path d="M42.5352 61.789L35.9358 69.977C36.2844 70.2977 36.6476 70.617 37.0275 70.9288L43.6998 62.6503C43.3133 62.3465 42.9241 62.059 42.5352 61.789Z" fill="#AF8E2F"/>
<path d="M50.5296 72.1622L33.1548 58.2134L31.5192 60.2432L48.8941 74.192L50.5296 72.1622Z" fill="#AF8E2F"/>
<path d="M49.1605 73.8546C50.2653 72.4848 49.8467 70.1517 48.308 67.6733L42.9306 74.3485C45.6861 75.319 48.0588 75.2255 49.1636 73.8558L49.1605 73.8546Z" fill="#AF8E2F"/>
<path d="M39.9759 60.2502L33.8799 67.8129C34.4765 68.5446 35.1711 69.2754 35.9348 69.9804L42.5343 61.7924C41.6793 61.1987 40.8201 60.6799 39.9747 60.2532L39.9759 60.2502Z" fill="#D6B11E"/>
<path d="M43.8132 62.7359C43.7752 62.7075 43.7403 62.6802 43.7022 62.6518L37.03 70.9303C37.0668 70.9618 37.1006 70.992 37.1356 71.0193C39.0606 72.5669 41.0823 73.6959 42.9282 74.344L48.3055 67.6688C47.2723 66.0056 45.7363 64.2793 43.8102 62.7347L43.8132 62.7359Z" fill="#D6B11E"/>
<path d="M50.1516 72.6181C51.9954 70.3298 49.6005 65.3523 44.8026 61.5004C40.0047 57.6485 34.6205 56.381 32.7767 58.6693C30.9329 60.9575 33.3277 65.935 38.1257 69.7869C42.9236 73.6388 48.3078 74.9063 50.1516 72.6181Z" fill="#AF8E2F"/>
<path d="M50.404 72.3076C52.2478 70.0194 49.853 65.0418 45.0551 61.19C40.2571 57.3381 34.8729 56.0706 33.0291 58.3588C31.1854 60.6471 33.5802 65.6246 38.3781 69.4765C43.176 73.3283 48.5602 74.5959 50.404 72.3076Z" fill="#FFD840"/>
<path d="M48.6262 70.8821C47.2081 72.6437 42.9639 71.5889 39.1477 68.5239C35.3346 65.4601 33.3893 61.5503 34.8116 59.7869C36.2296 58.0254 40.4739 59.0801 44.29 62.1451C48.1031 65.209 50.0484 69.1187 48.6262 70.8821Z" fill="#FFD325"/>
<path d="M39.4979 64.0293L38.8781 62.5898L40.0768 62.8312L40.6965 64.2707C40.989 64.9491 41.8273 65.6234 42.5656 65.7727C43.304 65.9221 43.6675 65.4903 43.3749 64.8119L42.725 63.3053L43.9236 63.5466L44.5736 65.0533C45.1295 66.3398 44.4418 67.1557 43.0416 66.8757C41.6414 66.5958 40.0527 65.3189 39.4967 64.0324L39.4979 64.0293Z" fill="#AF8E2F"/>
<path d="M42.9986 68.0415L40.7883 62.9144L41.987 63.1558L44.1972 68.2829L42.9986 68.0415Z" fill="#AF8E2F"/>
<path d="M44.9387 68.4329L42.7253 63.3047L43.924 63.5461L46.1373 68.6743L44.9387 68.4329Z" fill="#AF8E2F"/>
<path d="M37.7119 65.685L40.0215 63.5887L38.8789 62.5966L37.0816 64.2275L37.7119 65.685Z" fill="#AF8E2F"/>
<path d="M91.78 33.424L90.0686 31.3633L86.6226 34.2341L88.334 36.2948L91.78 33.424Z" fill="#AF8E2F"/>
<path d="M88.3344 36.2951L86.623 34.2344L83.1546 37.1239L84.866 39.1846L88.3344 36.2951Z" fill="#D6B11E"/>
<path d="M84.8649 39.185L83.1523 37.1239L78.6144 40.9062L80.3541 42.9406L84.8649 39.185Z" fill="#AF8E2F"/>
<path d="M78.6147 40.9068L74.428 44.395L76.1363 46.4545L80.3544 42.9411L78.6147 40.9068Z" fill="#D6B11E"/>
<path d="M121.781 60.9368C125.689 56.6131 125.341 49.9499 121.004 46.0541C116.667 42.1582 109.984 42.5051 106.076 46.8288C102.168 51.1525 102.516 57.8158 106.853 61.7116C111.19 65.6074 117.874 65.2606 121.781 60.9368Z" fill="#AF8E2F"/>
<path d="M123.674 56.3307C125.034 50.9627 121.771 45.5125 116.387 44.1571C111.002 42.8018 105.535 46.0547 104.176 51.4227C102.816 56.7906 106.079 62.2409 111.464 63.5962C116.848 64.9515 122.315 61.6986 123.674 56.3307Z" fill="#FFD840"/>
<path d="M121.736 55.5046C122.639 51.2026 119.872 46.986 115.557 46.0864C111.242 45.1869 107.012 47.9452 106.11 52.2472C105.208 56.5492 107.974 60.7658 112.289 61.6653C116.604 62.5649 120.834 59.8066 121.736 55.5046Z" fill="#FFD325"/>
<path d="M112.302 54.5172L110.858 53.8413L111.422 52.6748L112.866 53.3507C113.547 53.6691 114.385 53.3474 114.73 52.6293C115.076 51.9112 114.805 51.0663 114.124 50.7479L112.611 50.0395L113.175 48.8729L114.688 49.5813C115.978 50.1857 116.493 51.7844 115.838 53.1459C115.18 54.5075 113.596 55.1216 112.305 54.514L112.302 54.5172Z" fill="#AF8E2F"/>
<path d="M116.845 54.335L111.702 51.9239L112.263 50.7573L117.409 53.1684L116.845 54.335Z" fill="#AF8E2F"/>
<path d="M113.231 58.2116L112.067 53.4707L110.864 53.8444L111.767 57.526L113.231 58.2116Z" fill="#AF8E2F"/>
<g style="mix-blend-mode:screen" opacity="0.23">
<path d="M106.507 46.3768L113.068 64.382C114.913 64.5347 116.725 64.1935 118.348 63.4494L111.158 43.7155C109.411 44.1899 107.804 45.103 106.507 46.3768Z" fill="#FFD325"/>
</g>
<g clip-path="url(#clip0_1_8124)">
<path d="M107 88.5228V95.5275H25.436V88.5228C25.436 85.695 28.1355 83.4021 31.4603 83.4021H100.97C104.299 83.4021 106.998 85.695 106.998 88.5228H107Z" fill="#1D478E"/>
<path d="M107 120.972V145.258C107 147.876 104.3 150 100.972 150H31.462C28.1354 150 25.4377 147.875 25.4377 145.258V95.4374H107.002V120.972H107Z" fill="#FFF3EB"/>
<path d="M48.4769 90.9471C49.6005 90.9471 50.5114 89.9818 50.5114 88.7911C50.5114 87.6004 49.6005 86.6351 48.4769 86.6351C47.3533 86.6351 46.4424 87.6004 46.4424 88.7911C46.4424 89.9818 47.3533 90.9471 48.4769 90.9471Z" fill="#D7E4F9"/>
<path d="M48.4912 79H48.4606C47.746 79 47.1667 79.579 47.1667 80.2932V88.4399C47.1667 89.1541 47.746 89.7331 48.4606 89.7331H48.4912C49.2058 89.7331 49.7851 89.1541 49.7851 88.4399V80.2932C49.7851 79.579 49.2058 79 48.4912 79Z" fill="#161742"/>
<path d="M37.9205 90.9471C39.0441 90.9471 39.955 89.9818 39.955 88.7911C39.955 87.6004 39.0441 86.6351 37.9205 86.6351C36.7969 86.6351 35.886 87.6004 35.886 88.7911C35.886 89.9818 36.7969 90.9471 37.9205 90.9471Z" fill="#D7E4F9"/>
<path d="M37.9331 79H37.906C37.1904 79 36.6104 79.5798 36.6104 80.295V88.4381C36.6104 89.1533 37.1904 89.7331 37.906 89.7331H37.9331C38.6486 89.7331 39.2287 89.1533 39.2287 88.4381V80.295C39.2287 79.5798 38.6486 79 37.9331 79Z" fill="#161742"/>
<path d="M59.9864 90.9471C61.11 90.9471 62.0209 89.9818 62.0209 88.7911C62.0209 87.6004 61.11 86.6351 59.9864 86.6351C58.8628 86.6351 57.9519 87.6004 57.9519 88.7911C57.9519 89.9818 58.8628 90.9471 59.9864 90.9471Z" fill="#D7E4F9"/>
<path d="M59.999 79H59.9719C59.2564 79 58.6763 79.5798 58.6763 80.295V88.4381C58.6763 89.1533 59.2564 89.7331 59.9719 89.7331H59.999C60.7145 89.7331 61.2946 89.1533 61.2946 88.4381V80.295C61.2946 79.5798 60.7145 79 59.999 79Z" fill="#161742"/>
<path d="M71.4962 90.9471C72.6198 90.9471 73.5307 89.9818 73.5307 88.7911C73.5307 87.6004 72.6198 86.6351 71.4962 86.6351C70.3725 86.6351 69.4617 87.6004 69.4617 88.7911C69.4617 89.9818 70.3725 90.9471 71.4962 90.9471Z" fill="#D7E4F9"/>
<path d="M71.5105 79H71.4799C70.7653 79 70.186 79.579 70.186 80.2932V88.4399C70.186 89.1541 70.7653 89.7331 71.4799 89.7331H71.5105C72.2251 89.7331 72.8044 89.1541 72.8044 88.4399V80.2932C72.8044 79.579 72.2251 79 71.5105 79Z" fill="#161742"/>
<path d="M83.0059 90.9471C84.1296 90.9471 85.0404 89.9818 85.0404 88.7911C85.0404 87.6004 84.1296 86.6351 83.0059 86.6351C81.8823 86.6351 80.9714 87.6004 80.9714 88.7911C80.9714 89.9818 81.8823 90.9471 83.0059 90.9471Z" fill="#D7E4F9"/>
<path d="M83.0223 79H82.9916C82.277 79 81.6978 79.579 81.6978 80.2932V88.4399C81.6978 89.1541 82.277 89.7331 82.9916 89.7331H83.0223C83.7368 89.7331 84.3161 89.1541 84.3161 88.4399V80.2932C84.3161 79.579 83.7368 79 83.0223 79Z" fill="#161742"/>
<path d="M94.5152 90.9471C95.6388 90.9471 96.5497 89.9818 96.5497 88.7911C96.5497 87.6004 95.6388 86.6351 94.5152 86.6351C93.3916 86.6351 92.4807 87.6004 92.4807 88.7911C92.4807 89.9818 93.3916 90.9471 94.5152 90.9471Z" fill="#D7E4F9"/>
<path d="M94.5297 79H94.5027C93.7871 79 93.207 79.5798 93.207 80.295V88.4381C93.207 89.1533 93.7871 89.7331 94.5027 89.7331H94.5297C95.2453 89.7331 95.8254 89.1533 95.8254 88.4381V80.295C95.8254 79.5798 95.2453 79 94.5297 79Z" fill="#161742"/>
<path d="M51.6314 105H43.9998V111.236H51.6314V105Z" fill="#5BC4F0" fill-opacity="0.15"/>
<path d="M51.6314 114.908H43.9998V121.144H51.6314V114.908Z" fill="#1D478E"/>
<path d="M51.6314 124.816H43.9998V131.052H51.6314V124.816Z" fill="#5BC4F0" fill-opacity="0.15"/>
<path d="M51.6314 134.725H43.9998V140.96H51.6314V134.725Z" fill="#5BC4F0" fill-opacity="0.15"/>
<path d="M38.6314 105H30.9998V111.236H38.6314V105Z" fill="#5BC4F0" fill-opacity="0.15"/>
<path d="M38.6314 114.908H30.9998V121.144H38.6314V114.908Z" fill="#5BC4F0" fill-opacity="0.15"/>
<path d="M38.6314 124.816H30.9998V131.052H38.6314V124.816Z" fill="#5BC4F0" fill-opacity="0.15"/>
<path d="M38.6314 134.725H30.9998V140.96H38.6314V134.725Z" fill="#5BC4F0" fill-opacity="0.15"/>
<path d="M64.6314 105H56.9998V111.236H64.6314V105Z" fill="#5BC4F0" fill-opacity="0.15"/>
<path d="M64.6314 114.908H56.9998V121.144H64.6314V114.908Z" fill="#5BC4F0" fill-opacity="0.15"/>
<path d="M64.6314 124.816H56.9998V131.052H64.6314V124.816Z" fill="#5BC4F0" fill-opacity="0.15"/>
<path d="M64.6314 134.725H56.9998V140.96H64.6314V134.725Z" fill="#5BC4F0" fill-opacity="0.15"/>
<path d="M77.6314 105.171H69.9998V111.407H77.6314V105.171Z" fill="#5BC4F0" fill-opacity="0.15"/>
<path d="M77.6314 115.08H69.9998V121.315H77.6314V115.08Z" fill="#5BC4F0" fill-opacity="0.15"/>
<path d="M77.6314 124.988H69.9998V131.223H77.6314V124.988Z" fill="#5BC4F0" fill-opacity="0.15"/>
<path d="M77.6314 134.896H69.9998V141.132H77.6314V134.896Z" fill="#5BC4F0" fill-opacity="0.15"/>
<g opacity="0.2">
<path d="M90.4429 124.816H82.8113V131.052H90.4429V124.816Z" fill="#5BC4F0"/>
<path d="M90.4429 105H82.8113V111.236H90.4429V105Z" fill="#5BC4F0"/>
<path d="M90.4429 114.908H82.8113V121.144H90.4429V114.908Z" fill="#5BC4F0"/>
<path d="M90.4429 134.725H82.8113V140.96H90.4429V134.725Z" fill="#5BC4F0"/>
</g>
<g opacity="0.2">
<path d="M102.631 134.896H94.9998V141.132H102.631V134.896Z" fill="#5BC4F0"/>
<path d="M102.631 105.171H94.9998V111.407H102.631V105.171Z" fill="#5BC4F0"/>
<path d="M102.631 115.08H94.9998V121.315H102.631V115.08Z" fill="#5BC4F0"/>
<path d="M102.631 124.988H94.9998V131.223H102.631V124.988Z" fill="#5BC4F0"/>
</g>
</g>
<path d="M33.1589 132.703C33.1589 132.703 31.6799 123.291 38.8304 120.163C45.983 117.034 33.1589 132.703 33.1589 132.703Z" fill="#32B353"/>
<path d="M24.1483 132.638C24.1483 132.638 25.1654 124.574 20.4384 124.384C15.7115 124.193 24.1483 132.638 24.1483 132.638Z" fill="#32B353"/>
<path d="M29.6975 126.847C29.6975 126.847 28.349 113.238 34.468 112.341C40.9888 111.383 29.6975 126.847 29.6975 126.847Z" fill="#32B353"/>
<path d="M32.5461 138.732L32.1318 138.722C32.1339 138.635 32.4053 129.946 36.5978 125.755L36.8919 126.046C32.8133 130.122 32.5482 138.648 32.5461 138.732Z" fill="#161742"/>
<path d="M25.6891 138.745C25.6373 138.452 24.4028 131.545 22.1636 129.142L22.4681 128.862C24.7901 131.353 26.0454 138.376 26.0972 138.675L25.6891 138.745Z" fill="#161742"/>
<path d="M29.0017 138.741C28.9851 138.619 27.4025 126.382 33.4096 117.254L33.7555 117.481C27.8334 126.481 29.3952 138.565 29.4118 138.687L29.0017 138.743V138.741Z" fill="#161742"/>
<path d="M26.897 129.65C26.897 129.65 22.7852 119.884 28.4816 115.833C34.178 111.782 26.897 129.65 26.897 129.65Z" fill="#32B353"/>
<path d="M27.9512 138.755C27.9264 138.664 25.3972 129.51 27.9512 120.473L28.351 120.584C25.828 129.512 28.3262 138.553 28.351 138.644L27.9512 138.755Z" fill="#161742"/>
<path d="M29.7517 121.884L29.354 121.769C30.1411 119.094 30.4664 117.228 30.3255 116.223L30.7356 116.165C30.8868 117.228 30.5554 119.154 29.7517 121.884Z" fill="white"/>
<path d="M32.3205 152.298H24.9649C24.9649 152.298 22.3881 143.379 22.8894 137.126H34.3982C34.9305 143.436 32.3226 152.298 32.3226 152.298H32.3205Z" fill="#1D478E"/>
<path d="M34.4589 139.534H22.8403V139.946H34.4589V139.534Z" fill="white"/>
<path d="M34.3894 140.848H22.9097V141.26H34.3894V140.848Z" fill="white"/>
<path d="M109 124.386C109.966 124.87 110.629 125.612 111.082 126.543C111.535 125.612 112.201 124.867 113.167 124.384C112.201 123.9 111.535 123.158 111.082 122.227C110.629 123.158 109.966 123.903 109 124.386Z" fill="#FFD325"/>
<path d="M98.0416 149.626C98.0416 150.384 92.4344 150.999 85.522 150.999C78.6096 150.999 73.0024 150.384 73.0024 149.626C73.0024 149.612 73.0052 149.599 73.0079 149.585V145.875H98.0333V149.577C98.0388 149.593 98.0416 149.609 98.0416 149.626Z" fill="#AF8E2F"/>
<path d="M85.5196 147.281C92.4339 147.281 98.0391 146.667 98.0391 145.908C98.0391 145.149 92.4339 144.535 85.5196 144.535C78.6052 144.535 73 145.149 73 145.908C73 146.667 78.6052 147.281 85.5196 147.281Z" fill="#FFD325"/>
<path d="M101 145.147C101 145.905 95.3929 146.521 88.4805 146.521C81.5681 146.521 75.9609 145.905 75.9609 145.147C75.9609 145.134 75.9637 145.12 75.9665 145.106V141.396H100.992V145.098C100.997 145.114 101 145.131 101 145.147Z" fill="#AF8E2F"/>
<path d="M88.4776 142.805C95.3919 142.805 100.997 142.191 100.997 141.432C100.997 140.673 95.3919 140.059 88.4776 140.059C81.5632 140.059 75.958 140.673 75.958 141.432C75.958 142.191 81.5632 142.805 88.4776 142.805Z" fill="#FFD325"/>
<path d="M98.6446 140.091C98.6446 140.849 93.0374 141.465 86.125 141.465C79.2126 141.465 73.6055 140.849 73.6055 140.091C73.6055 140.078 73.6082 140.064 73.611 140.05V136.34H98.6363V140.042C98.6419 140.058 98.6446 140.075 98.6446 140.091Z" fill="#AF8E2F"/>
<path d="M86.125 137.747C93.0394 137.747 98.6446 137.132 98.6446 136.373C98.6446 135.615 93.0394 135 86.125 135C79.2107 135 73.6055 135.615 73.6055 136.373C73.6055 137.132 79.2107 137.747 86.125 137.747Z" fill="#FFD325"/>
<path d="M91.8476 135.223C96.603 132.352 98.1353 126.182 95.2702 121.442C92.4051 116.703 86.2274 115.188 81.472 118.059C76.7166 120.931 75.1842 127.101 78.0494 131.84C80.9145 136.58 87.0922 138.094 91.8476 135.223Z" fill="#D6B11E"/>
<path d="M96.1506 125.449C95.5044 120.22 90.7323 116.514 85.4919 117.172C80.2514 117.829 76.5269 122.602 77.1731 127.831C77.8192 133.06 82.5913 136.766 87.8318 136.108C93.0723 135.451 96.7967 130.679 96.1506 125.449Z" fill="#FFD840"/>
<path d="M90.3663 133.239C94.024 131.186 95.3293 126.567 93.2818 122.921C91.2343 119.275 86.6094 117.983 82.9517 120.036C79.294 122.088 77.9887 126.708 80.0362 130.354C82.0836 134 86.7086 135.291 90.3663 133.239Z" fill="#FFD325"/>
<path d="M85.5398 127.866L84.0246 127.896L84.014 126.666L85.5292 126.636C86.246 126.623 86.8228 125.995 86.8148 125.234C86.8083 124.477 86.2224 123.871 85.5055 123.883L83.9175 123.913L83.9068 122.683L85.4949 122.653C86.8514 122.626 87.9624 123.773 87.9775 125.211C87.9882 126.648 86.8963 127.839 85.5398 127.866Z" fill="#AF8E2F"/>
<path d="M89.3405 125.8L83.9351 125.908L83.9274 124.676L89.3299 124.57L89.3405 125.8Z" fill="#AF8E2F"/>
<path d="M89.3244 123.808L83.919 123.915L83.9084 122.685L89.3138 122.578L89.3244 123.808Z" fill="#AF8E2F"/>
<path d="M87.8882 130.632L84.9011 127.072L84.0287 127.897L86.3511 130.661L87.8882 130.632Z" fill="#AF8E2F"/>
<g style="mix-blend-mode:screen" opacity="0.23">
<path d="M96.5228 124.693L88.1914 116.722C87.2018 116.573 86.1704 116.567 85.1262 116.734C85.0285 116.749 84.9307 116.772 84.8345 116.791L96.6079 128.057C96.7484 127.096 96.7508 126.099 96.5944 125.089C96.5735 124.958 96.5481 124.826 96.5242 124.696L96.5228 124.693Z" fill="#FFD325"/>
</g>
<g style="mix-blend-mode:screen" opacity="0.23">
<path d="M77.1688 123.361L90.3434 135.965C91.9808 135.32 93.3864 134.265 94.4559 132.948L80.0192 119.133C78.728 120.273 77.7422 121.73 77.1718 123.359L77.1688 123.361Z" fill="#FFD325"/>
</g>
<defs>
<clipPath id="clip0_1_8124">
<rect width="96" height="71" fill="white" transform="translate(11 79)"/>
</clipPath>
</defs>
</svg>
