<svg width="112" height="188" viewBox="0 0 112 188" fill="none" xmlns="http://www.w3.org/2000/svg">
<path d="M132 81C132 91.4934 123.493 100 113 100C102.507 100 94 91.4934 94 81C94 70.5066 102.507 62 113 62C123.493 62 132 70.5066 132 81Z" fill="#5BC4F0" fill-opacity="0.1"/>
<path d="M74 151C74 171.435 57.4345 188 37 188C16.5655 188 0 171.435 0 151C0 130.565 16.5655 114 37 114C57.4345 114 74 130.565 74 151Z" fill="#5BC4F0" fill-opacity="0.1"/>
<g clip-path="url(#clip0_1_6681)">
<path d="M53.0903 136.109L52.9575 135.723C54.5427 135.178 59.2307 130.152 64.7991 121.908C68.4167 116.55 75.0146 105.906 78.5567 94.8118C82.7463 81.6843 81.2428 59.0604 79.2104 47.056L79.6128 46.9885C81.6514 59.0318 83.1569 81.7395 78.9448 94.9366C75.3885 106.08 68.7681 116.761 65.1361 122.137C60.1254 129.557 55.0574 135.434 53.0883 136.109H53.0903Z" fill="#161742"/>
<path d="M69.1779 21.9308C70.7689 35.337 80.1689 45.1093 80.3157 45.2604C74.8181 40.526 70.0415 31.5037 70.0415 31.5037C70.0415 31.5037 65.7812 23.822 65.9154 16.7874C66.0502 9.75054 70.428 6.22023 71.255 5.58271C72.0793 4.94451 73.8488 4.12509 74.711 5.10702C75.5733 6.08895 74.6475 6.86558 74.6475 6.86558C67.4475 13.1442 69.1779 21.9308 69.1779 21.9308Z" fill="#3AC75E"/>
<path d="M86.5253 0.95327C86.7949 1.10875 97.1862 7.17437 92.7678 21.3779C88.327 35.6572 79.6598 45.9534 79.527 46.113H79.5249L81.0958 47.9644C81.0958 47.9644 78.2748 49.2655 77.3454 47.2382C77.3454 47.2382 78.2646 46.4424 78.8345 45.5811C78.8345 45.5811 69.4667 39.6648 65.7816 26.7685C65.5651 26.0116 65.369 25.2301 65.1954 24.4241C64.9707 23.3828 64.7827 22.3026 64.6398 21.1795C63.5408 12.5424 66.7948 7.3278 70.2123 4.3001C72.5389 2.238 74.9411 1.19262 76.0973 0.769153C76.5426 0.605494 76.8041 0.535939 76.8041 0.535939C76.8041 0.535939 81.2776 -0.9104 86.5192 0.95327C86.5192 0.95327 86.5232 0.95327 86.5253 0.955316V0.95327ZM76.6835 40.9987C76.5834 40.88 70.5881 33.7322 69.0152 23.2007C68.9008 22.4335 68.8089 21.65 68.7456 20.8501C68.7456 20.8501 67.6098 13.1459 73.1537 7.24188C73.1537 7.24188 73.8687 6.5095 73.2355 5.68098C72.6043 4.85245 71.2561 5.66257 70.6228 6.26606C70.4839 6.39699 70.2143 6.66293 69.8732 7.05981C68.6618 8.47341 66.5701 11.5768 66.3863 16.4498C66.3352 17.804 66.4394 19.1788 66.6334 20.4962C66.8663 22.0796 67.2319 23.5853 67.6139 24.8884C68.3779 27.4968 69.2113 29.297 69.2113 29.297C69.2113 29.297 72.6349 37.0647 76.6835 41.0027V40.9987Z" fill="#32B353"/>
<path d="M92.1835 4.35938C99.3841 10.828 102.904 20.1095 93.3152 34.5034C93.3152 34.5034 88.4719 42.2363 79.5249 46.1109C79.6577 45.9534 88.3249 35.6551 92.7657 21.3758C97.1861 7.17227 86.7928 1.10665 86.5232 0.951172C87.7917 1.40123 89.1052 2.04564 90.4105 2.95191C90.5187 3.0276 90.629 3.10534 90.7373 3.18512C91.011 3.38356 91.2847 3.59427 91.5564 3.81725C91.6198 3.87044 91.6851 3.92363 91.7484 3.97887C91.8935 4.09957 92.0385 4.2264 92.1815 4.35528L92.1835 4.35938Z" fill="#207739"/>
<path d="M55.5577 147.246C53.4313 144.129 52.8164 141.375 53.0248 135.917C53.2209 130.807 49.1069 128.106 47.3297 127.182C45.3218 126.136 45.4096 123.628 45.4137 123.522L45.8038 123.538C45.8038 123.563 45.7242 125.905 47.5095 126.834C49.354 127.793 53.6192 130.598 53.4149 135.931C53.2107 141.291 53.8092 143.987 55.8805 147.025L55.5577 147.246Z" fill="#161742"/>
<path d="M59.4206 111.99C59.6024 99.0609 47.671 86.9154 47.6465 86.8029L48.3308 86.5144C48.4309 87.0054 62.0435 102.068 59.6515 114.253C58.9263 117.947 56.1298 119.079 54.0687 120.03C52.9269 120.558 51.9402 121.012 51.546 121.769C50.7882 123.219 51.6665 124.293 52.3937 124.976L52.6021 125.171C54.4507 126.897 56.3627 128.679 53.7276 135.221C54.8041 134.217 57.1144 131.797 59.4063 127.687C61.7922 123.409 63.1057 117.734 63.3099 110.818C63.3814 108.39 63.1853 104.932 62.3907 103.183L62.7462 103.021C63.8043 105.354 63.7267 109.934 63.7001 110.83C63.4938 117.81 62.164 123.546 59.7475 127.879C56.5874 133.548 53.3722 136.054 53.3415 136.079L52.743 136.539L53.0433 135.845C56.042 128.914 54.2424 127.235 52.3365 125.457L52.1282 125.263C51.6563 124.819 50.2203 123.469 51.2028 121.589C51.6604 120.713 52.7022 120.232 53.9094 119.676C55.897 118.759 58.8385 117.71 59.2776 114.156C59.3675 113.434 59.4145 112.712 59.4247 111.992" fill="#161742"/>
<path d="M44.7275 140.821C44.6192 140.821 44.513 140.819 44.4088 140.812C41.6164 140.681 39.8413 138.677 39.5901 136.856C39.3266 134.949 40.5072 133.362 42.7481 132.613C48.5821 130.663 53.5295 136.119 53.5785 136.175L53.7664 136.385L53.5969 136.61C52.2875 138.337 48.1551 140.821 44.7316 140.821H44.7275ZM45.328 132.877C44.5641 132.877 43.7735 132.992 42.9626 133.264C41.0588 133.9 40.0497 135.209 40.2642 136.764C40.4786 138.31 42.0148 140.017 44.4394 140.131C47.4606 140.268 51.4071 138.09 52.8656 136.422C52.0771 135.633 49.058 132.877 45.326 132.877H45.328Z" fill="#32B353"/>
<path d="M63.2077 142.247C62.6501 142.247 62.0495 142.157 61.4102 141.96C56.8488 140.555 53.2271 136.799 53.0759 136.639L52.792 136.341L53.1372 136.115C53.3578 135.972 58.5912 132.627 63.9349 134.307C66.999 135.271 67.7916 137.658 67.2298 139.468C66.7539 141.001 65.2893 142.247 63.2077 142.247ZM53.8767 136.473C54.8429 137.4 57.96 140.184 61.6103 141.31C64.3271 142.146 66.09 140.837 66.5762 139.268C67.0399 137.77 66.3474 135.784 63.7286 134.962C59.4737 133.624 55.1431 135.762 53.8767 136.473Z" fill="#32B353"/>
<path d="M58.7567 144.798C54.9164 143.104 53.6357 139.284 53.219 137.255C52.8125 139.297 51.6114 143.157 48.2062 144.793L48.0366 144.44C52.5449 142.271 53.0208 135.97 53.0249 135.907H53.4151C53.4191 135.972 53.8052 142.181 58.914 144.435L58.7567 144.793V144.798Z" fill="#161742"/>
<path d="M53.7014 156.179C53.4971 161.539 54.0956 164.236 56.1669 167.274L55.8442 167.494C53.7177 164.377 53.1028 161.623 53.3112 156.165" fill="#161742"/>
<path d="M59.0434 165.046C55.2031 163.352 53.9223 159.532 53.5056 157.503C53.0991 159.545 51.898 163.405 48.4928 165.042L48.3232 164.688C52.8315 162.519 53.3074 156.218 53.3115 156.155H53.7017C53.7058 156.22 54.0918 162.429 59.2006 164.684L59.0434 165.042V165.046Z" fill="#161742"/>
<path d="M75.7929 60.3146C82.9934 66.7832 86.513 76.0647 76.9246 90.4586C76.9246 90.4586 72.0813 98.1915 63.1343 102.066C63.2671 101.909 71.9342 91.6103 76.3751 77.331C80.7955 63.1275 70.4022 57.0618 70.1326 56.9064C71.4011 57.3564 72.7146 58.0008 74.0198 58.9071C74.1281 58.9828 74.2384 59.0605 74.3467 59.1403C74.6204 59.3388 74.8941 59.5495 75.1658 59.7725C75.2291 59.8256 75.2945 59.8788 75.3578 59.9341C75.5029 60.0548 75.6479 60.1816 75.7909 60.3105L75.7929 60.3146Z" fill="#E5BE23"/>
<path d="M70.1347 56.9104C70.4043 57.0659 80.7955 63.1315 76.3772 77.3351C71.9363 91.6144 63.2691 101.911 63.1364 102.07H63.1343L64.7052 103.922C64.7052 103.922 61.8842 105.223 60.9548 103.195C60.9548 103.195 61.874 102.4 62.4439 101.538C62.4439 101.538 53.076 95.622 49.391 82.7256C49.1745 81.9687 48.9784 81.1872 48.8047 80.3812C48.58 79.3399 48.3921 78.2598 48.2491 77.1367C47.1502 68.4995 50.4042 63.2849 53.8216 60.2573C56.1483 58.1951 58.5505 57.1498 59.7067 56.7263C60.152 56.5626 60.4134 56.4931 60.4134 56.4931C60.4134 56.4931 64.887 55.0468 70.1285 56.9104C70.1285 56.9104 70.1326 56.9104 70.1347 56.9125V56.9104ZM60.295 96.9538C60.1949 96.8351 54.1995 89.6873 52.6266 79.1558C52.5123 78.3887 52.4203 77.6051 52.357 76.8053C52.357 76.8053 51.2213 69.101 56.7652 63.197C56.7652 63.197 57.4801 62.4646 56.8469 61.6361C56.2157 60.8076 54.8675 61.6177 54.2343 62.2212C54.0953 62.3521 53.8257 62.618 53.4846 63.0149C52.2733 64.4285 50.1815 67.5319 49.9977 72.4049C49.9466 73.7591 50.0508 75.1339 50.2449 76.4513C50.4777 78.0347 50.8434 79.5404 51.2253 80.8435C51.9893 83.4519 52.8227 85.2521 52.8227 85.2521C52.8227 85.2521 56.2463 93.0198 60.295 96.9579V96.9538Z" fill="#FFD325"/>
<path d="M59.7067 56.7243C58.5485 57.1478 56.1463 58.1932 53.8217 60.2553C53.8748 59.7479 53.9198 59.2406 53.9586 58.7251C55.0739 44.2146 43.6797 40.8494 43.6797 40.8494C45.559 41.0683 47.618 41.6513 49.7465 42.8337C54.9391 45.7141 58.9755 49.9856 59.7088 56.7243H59.7067Z" fill="#207739"/>
<path d="M52.6267 79.1559C54.1996 89.6874 60.1949 96.8352 60.295 96.9538C56.2464 93.0178 52.8228 85.2481 52.8228 85.2481C52.8228 85.2481 51.9894 83.4479 51.2254 80.8395C50.8434 79.5364 50.4778 78.0307 50.2449 76.4473C50.0509 75.1299 49.9467 73.7551 49.9978 72.4009C50.1837 67.5279 52.2754 64.4245 53.4847 63.0109C53.8258 62.614 54.0954 62.3501 54.2343 62.2172C54.8696 61.6137 56.2158 60.8036 56.847 61.6321C57.4782 62.4606 56.7652 63.193 56.7652 63.193C51.2213 69.097 52.3571 76.8013 52.3571 76.8013C52.4204 77.6011 52.5123 78.3867 52.6267 79.1518V79.1559Z" fill="#FFF3EB"/>
<path d="M43.6798 40.8493C43.6798 40.8493 55.074 44.2166 53.9587 58.725C53.9199 59.2385 53.8749 59.7479 53.8218 60.2552C50.4023 63.2829 47.1504 68.4975 48.2493 77.1347C48.3923 78.2578 48.5782 79.34 48.805 80.3792C47.7019 83.1573 46.8583 84.798 46.8256 84.8635L48.7028 86.2689C48.7028 86.2689 48.1002 86.7353 47.3322 86.9767C46.6948 86.586 46.031 86.23 45.3446 85.9027C45.5734 85.5406 45.8696 85.0251 46.0596 84.5116C46.0596 84.5116 33.068 79.9475 27.4444 64.6127C21.8208 49.2758 34.4488 42.5534 34.4488 42.5534C34.4488 42.5534 38.3463 40.2254 43.6819 40.8473L43.6798 40.8493ZM43.0486 80.6656C42.9199 80.5695 34.6633 74.3238 31.2357 63.418C31.2357 63.418 28.5086 56.4113 32.4551 49.6563C32.4551 49.6563 32.9679 48.8134 32.1957 48.169C31.4236 47.5246 30.3287 48.5782 29.863 49.2839C29.3972 49.9897 26.946 53.8562 28.0674 59.7827C29.1889 65.7092 33.4928 71.2634 33.4928 71.2634C33.4928 71.2634 38.3892 77.8363 43.0486 80.6656Z" fill="#32B353"/>
<path d="M47.3298 86.9788C53.2924 90.6222 56.8917 97.1441 53.4334 109.443C53.4334 109.443 51.5622 116.892 45.4055 122.319C45.4709 122.159 49.7381 111.663 49.591 99.0834C49.444 86.4039 39.2979 84.3602 39.2979 84.3602C40.9463 84.4052 42.7766 84.753 44.7151 85.6143C44.9255 85.7084 45.1359 85.8045 45.3443 85.9048C46.0306 86.2321 46.6945 86.588 47.3318 86.9788H47.3298Z" fill="#161742"/>
<path d="M49.5912 99.0834C49.7382 111.665 45.471 122.159 45.4056 122.319L47.1419 123.393C47.1419 123.393 45.2198 125.169 43.9533 123.788C43.9533 123.788 44.4823 122.912 44.7152 122.073C44.7152 122.073 33.0902 119.113 27.0315 106.235C20.9729 93.3594 31.4152 86.5511 31.4152 86.5511C31.4152 86.5511 34.6202 84.2313 39.298 84.3602C39.298 84.3602 49.4441 86.4039 49.5912 99.0834ZM41.7962 118.956C41.4489 118.739 33.9849 113.962 30.2324 104.903C30.2324 104.903 27.3257 99.0322 30.2324 92.8664C30.2324 92.8664 30.6144 92.0951 29.8934 91.5959C29.1723 91.0968 28.3041 92.0951 27.9548 92.7416C27.6035 93.388 25.7753 96.9353 27.2031 101.992C28.631 107.049 32.794 111.538 32.794 111.538C32.794 111.538 37.5372 116.855 41.7962 118.954V118.956Z" fill="#1D478E"/>
<path d="M31.2375 63.418C34.6652 74.3259 42.9218 80.5695 43.0505 80.6657C38.3911 77.8364 33.4947 71.2634 33.4947 71.2634C33.4947 71.2634 29.1907 65.7072 28.0693 59.7827C26.9478 53.8562 29.397 49.9898 29.8648 49.284C30.3306 48.5782 31.4254 47.5247 32.1976 48.1691C32.9697 48.8135 32.457 49.6563 32.457 49.6563C28.5105 56.4114 31.2375 63.418 31.2375 63.418Z" fill="#3AC75E"/>
<path d="M30.2326 104.906C33.985 113.964 41.449 118.741 41.7963 118.958C37.5373 116.859 32.7941 111.542 32.7941 111.542C32.7941 111.542 28.6311 107.054 27.2032 101.996C25.7754 96.9394 27.6036 93.3941 27.9549 92.7456C28.3063 92.0992 29.1744 91.0988 29.8935 91.6C30.6145 92.0992 30.2326 92.8704 30.2326 92.8704C27.3258 99.0363 30.2326 104.908 30.2326 104.908V104.906Z" fill="#2559B0"/>
<path d="M112.045 85.3852C113.771 92.1648 111.8 99.3494 100.747 105.732C100.747 105.732 94.2121 109.754 86.0229 109.333C86.1823 109.263 96.5551 104.738 105.222 95.6302C113.959 86.4531 108.123 77.8937 108.123 77.8937C109.271 79.0782 110.339 80.6084 111.126 82.5805C111.212 82.7953 111.293 83.0121 111.373 83.2269C111.634 83.9409 111.863 84.661 112.047 85.3852H112.045Z" fill="#161742"/>
<path d="M105.222 95.6303C96.5528 104.736 86.1799 109.263 86.0226 109.333L86.517 111.315C86.517 111.315 83.9044 111.241 83.9595 109.365C83.9595 109.365 84.9482 109.11 85.6999 108.672C85.6999 108.672 79.4451 98.4227 84.0882 84.9678C88.7313 71.5151 100.953 73.9474 100.953 73.9474C100.953 73.9474 104.865 74.5284 108.123 77.8937C108.123 77.8937 113.959 86.4531 105.222 95.6303ZM85.7836 104.4C85.6876 104.003 83.6756 95.3623 87.3075 86.2546C87.3075 86.2546 89.3216 80.0192 95.703 77.64C95.703 77.64 96.514 77.3556 96.3465 76.4944C96.179 75.6331 94.8614 75.7395 94.1587 75.9584C93.456 76.1753 89.6729 77.4354 87.1686 82.0527C84.6642 86.6699 84.5131 92.7949 84.5131 92.7949C84.5131 92.7949 84.1985 99.9181 85.7836 104.4Z" fill="#1D478E"/>
<path d="M87.3076 86.2546C83.6757 95.3622 85.6857 104.001 85.7838 104.4C84.1986 99.9181 84.5132 92.7948 84.5132 92.7948C84.5132 92.7948 84.6643 86.6699 87.1687 82.0526C89.6731 77.4354 93.4541 76.1752 94.1588 75.9584C94.8615 75.7395 96.1791 75.6331 96.3466 76.4944C96.5141 77.3556 95.7031 77.64 95.7031 77.64C89.3217 80.0192 87.3076 86.2546 87.3076 86.2546Z" fill="#2559B0"/>
<path d="M53.5909 136.381L53.5664 135.972C57.1493 135.751 62.2397 134.102 64.9545 131.001C65.6429 130.213 66.2067 129.299 66.7521 128.415C67.0646 127.908 67.3873 127.384 67.7326 126.885C68.9847 125.075 70.1879 123.986 71.7567 123.242C72.9782 122.663 74.2835 122.258 75.5459 121.867C76.0116 121.724 76.4917 121.574 76.9595 121.419C78.8469 120.795 81.196 119.833 82.6239 117.937C83.7249 116.474 84.115 114.576 84.4909 112.741C84.6216 112.1 84.7585 111.436 84.9219 110.814L85.3162 110.918C85.1548 111.532 85.0261 112.16 84.8892 112.825C84.5032 114.705 84.1048 116.648 82.9466 118.187C81.4514 120.173 79.0287 121.167 77.0841 121.812C76.6122 121.967 76.1301 122.118 75.6623 122.262C74.4142 122.648 73.1212 123.047 71.9262 123.614C70.4269 124.326 69.2728 125.373 68.0635 127.12C67.7244 127.611 67.4037 128.129 67.0952 128.632C66.5417 129.53 65.9677 130.461 65.2568 131.273C62.4501 134.479 57.372 136.15 53.5868 136.383L53.5909 136.381Z" fill="#161742"/>
<path d="M22.6928 81.4552C24.5181 81.4552 25.9979 79.9733 25.9979 78.1452C25.9979 76.3171 24.5181 74.8352 22.6928 74.8352C20.8674 74.8352 19.3877 76.3171 19.3877 78.1452C19.3877 79.9733 20.8674 81.4552 22.6928 81.4552Z" fill="#1D478E"/>
<path d="M89.3444 64.0746C90.9452 64.0746 92.243 62.7749 92.243 61.1717C92.243 59.5685 90.9452 58.2688 89.3444 58.2688C87.7435 58.2688 86.4458 59.5685 86.4458 61.1717C86.4458 62.7749 87.7435 64.0746 89.3444 64.0746Z" fill="#AF8E2F"/>
<path d="M80.5041 133.876C81.7124 133.876 82.6919 132.895 82.6919 131.685C82.6919 130.475 81.7124 129.494 80.5041 129.494C79.2959 129.494 78.3164 130.475 78.3164 131.685C78.3164 132.895 79.2959 133.876 80.5041 133.876Z" fill="#32B353"/>
<path d="M23.2098 119.107L24.1535 119.623L23.2098 120.14L22.693 121.087L22.1762 120.14L21.2324 119.623L22.1762 119.107L22.693 118.16L23.2098 119.107Z" fill="#AF8E2F"/>
<path d="M73.6892 116.943L75.0312 117.677L73.6892 118.412L72.9538 119.758L72.2205 118.412L70.8784 117.677L72.2205 116.943L72.9538 115.599L73.6892 116.943Z" fill="#FFD325"/>
<path d="M63.8698 38.0344L65.2119 38.7708L63.8698 39.5052L63.1365 40.8493L62.4011 39.5052L61.0591 38.7708L62.4011 38.0344L63.1365 36.6903L63.8698 38.0344Z" fill="#FFD325"/>
<path d="M20.2682 47.1809L21.8758 48.0606L20.2682 48.9423L19.3899 50.5523L18.5095 48.9423L16.9019 48.0606L18.5095 47.1809L19.3899 45.5709L20.2682 47.1809Z" fill="#AF8E2F"/>
<path d="M103.526 114.931L104.196 115.299L103.526 115.667L103.158 116.338L102.793 115.667L102.121 115.299L102.793 114.931L103.158 114.26L103.526 114.931Z" fill="#AF8E2F"/>
<path d="M112.095 32.0924L112.765 32.4606L112.095 32.8289L111.728 33.4999L111.362 32.8289L110.69 32.4606L111.362 32.0924L111.728 31.4214L112.095 32.0924Z" fill="#AF8E2F"/>
<path d="M46.3961 22.0947L47.0661 22.4629L46.3961 22.8312L46.0284 23.5022L45.6628 22.8312L44.9907 22.4629L45.6628 22.0947L46.0284 21.4237L46.3961 22.0947Z" fill="#AF8E2F"/>
<path d="M104.931 0.391902L106.273 1.12837L104.931 1.86279L104.198 3.20684L103.463 1.86279L102.121 1.12837L103.463 0.391902L104.198 -0.952148L104.931 0.391902Z" fill="#FFD325"/>
</g>
<path d="M7.81076 108.939L9.15282 109.675L7.81076 110.41L7.07743 111.754L6.34206 110.41L5 109.675L6.34206 108.939L7.07743 107.595L7.81076 108.939Z" fill="#FFD325"/>
<path d="M96.8523 144.132L69.7126 143.362C69.7126 143.362 61.5638 136.242 53.508 137.926C45.4542 139.612 51.0756 142.526 51.0756 142.526C51.0756 142.526 54.2404 155.401 58.1737 157.564C59.4905 158.288 66.2712 155.766 69.0795 155.885C70.9617 155.964 91.4591 158.056 91.4591 158.056L96.8523 144.132Z" fill="#E5906E"/>
<path d="M48.5429 141.763L56.6311 139.768C57.9761 139.435 59.3059 140.316 59.5868 141.724C59.8745 143.172 58.9363 144.59 57.5335 144.83L49.3383 146.223C48.1354 146.429 47.0171 145.563 46.8576 144.305C46.7097 143.137 47.4418 142.034 48.5429 141.763Z" fill="#E5906E"/>
<path d="M49.8141 151.039L59.5939 149.231C60.6554 149.035 61.4521 148.078 61.5033 146.939L61.5139 146.706C61.5842 145.152 60.2714 143.95 58.8289 144.251L49.0386 146.294C47.8637 146.539 47.0549 147.703 47.188 148.961C47.3333 150.328 48.5305 151.274 49.8139 151.037L49.8141 151.039Z" fill="#E5906E"/>
<path d="M49.4846 153.124C49.4062 152.086 50.1028 151.146 51.118 150.919L57.5819 149.469C58.6296 149.234 59.6846 149.826 60.0297 150.842L60.2022 151.35C60.6243 152.596 59.8109 153.917 58.5087 154.103L51.8724 155.046C50.6702 155.215 49.5746 154.335 49.4846 153.124Z" fill="#E5906E"/>
<path d="M51.9153 156.345C51.986 155.522 52.5552 154.838 53.2931 154.687L58.6496 153.597C59.525 153.42 60.3395 154.045 60.4796 155.001L60.5675 155.604C60.7214 156.653 60.0058 157.652 59.0376 157.737L53.5914 158.224C52.6111 158.311 51.8214 157.426 51.9136 156.345L51.9153 156.345Z" fill="#E5906E"/>
<path d="M56.2505 150.307C56.3966 150.265 56.4828 150.114 56.4444 149.965C56.4058 149.815 56.2517 149.726 56.1017 149.764C55.7798 149.85 51.9167 150.651 49.9195 151.062C49.7668 151.094 49.6696 151.242 49.7015 151.395C49.7334 151.548 49.8814 151.645 50.0323 151.613C50.2692 151.565 55.8279 150.418 56.2453 150.308C56.2471 150.308 56.2505 150.307 56.2523 150.307L56.2505 150.307Z" fill="#161742"/>
<path d="M55.4021 145.737C55.5482 145.695 55.6344 145.543 55.5943 145.395C55.5539 145.245 55.3998 145.156 55.25 145.196C54.8941 145.291 50.4151 146.124 48.0975 146.55C47.9462 146.578 47.8435 146.725 47.8717 146.876C47.9001 147.029 48.0469 147.13 48.1983 147.102C48.4735 147.051 54.9269 145.863 55.3934 145.738C55.3951 145.738 55.3969 145.737 55.4003 145.737L55.4021 145.737Z" fill="#161742"/>
<path d="M57.5596 154.422C57.709 154.378 57.7947 154.223 57.7511 154.075C57.7073 153.926 57.5519 153.84 57.4026 153.884C56.9865 154.004 53.6806 154.592 51.9905 154.884C51.8387 154.909 51.736 155.056 51.7627 155.209C51.7894 155.363 51.9345 155.464 52.0878 155.437C52.2894 155.402 57.0111 154.581 57.5596 154.422Z" fill="#161742"/>
<path d="M57.0767 139.954C57.3365 139.878 57.5318 139.712 57.5236 139.565C57.514 139.408 57.2702 139.334 56.981 139.399L49.8172 141.021C49.5279 141.087 49.301 141.267 49.3108 141.426C49.3204 141.584 49.5642 141.658 49.8534 141.593L57.0172 139.97C57.0378 139.966 57.0581 139.959 57.0787 139.955L57.0767 139.954Z" fill="#161742"/>
<path d="M74.2095 142.217L72.9107 158.518L96.5624 160.982L102.153 141.097L74.2095 142.217Z" fill="#161742"/>
<path d="M77.6241 141.736L76.2121 159.489L158.73 165.532L155.442 136.398L77.6241 141.736Z" fill="#1D478E"/>
<defs>
<clipPath id="clip0_1_6681">
<rect width="95.6925" height="170.913" fill="white" transform="translate(16.9019)"/>
</clipPath>
</defs>
</svg>
