<svg width="113" height="108" viewBox="0 0 113 108" fill="none" xmlns="http://www.w3.org/2000/svg">
<path d="M76 56.5484C76 76.7336 59.4345 93.0969 39 93.0969C18.5655 93.0969 2 76.7336 2 56.5484C2 36.3633 18.5655 20 39 20C59.4345 20 76 36.3633 76 56.5484Z" fill="white" fill-opacity="0.9"/>
<path d="M131 19.5C131 30.2696 122.046 39 111 39C99.9543 39 91 30.2696 91 19.5C91 8.73045 99.9543 0 111 0C122.046 0 131 8.73045 131 19.5Z" fill="white" fill-opacity="0.8"/>
<path d="M88.7152 94.8301L91.1315 104.26C91.5753 105.993 90.3202 107.693 88.5976 107.693C87.7569 107.693 86.9677 107.273 86.4738 106.565L81.2298 99.0346C80.3465 97.7671 80.6669 95.9876 81.9309 95.1382L84.7601 93.2384C86.2563 92.2335 88.2581 93.0389 88.7167 94.8286L88.7152 94.8301Z" fill="#161742"/>
<path d="M46.2764 94.8301L43.8602 104.26C43.4163 105.993 44.6715 107.693 46.394 107.693C47.2347 107.693 48.024 107.273 48.5178 106.565L53.7618 99.0346C54.6452 97.7671 54.3248 95.9876 53.0608 95.1382L50.2315 93.2384C48.7353 92.2335 46.7335 93.0389 46.275 94.8286L46.2764 94.8301Z" fill="#161742"/>
<path d="M74.7734 45.6509C74.1958 46.4783 78.9724 50.7972 85.4437 55.2951C91.915 59.7931 97.6294 62.7682 98.207 61.9393C98.7846 61.1119 94.0079 56.793 87.5366 52.2951C81.0654 47.7972 75.351 44.822 74.7734 45.6509Z" fill="#161742"/>
<path d="M59.8452 45.6509C60.4228 46.4783 55.6461 50.7972 49.1748 55.2951C42.7036 59.7931 36.9892 62.7682 36.4116 61.9393C35.834 61.1119 40.6106 56.793 47.0819 52.2951C53.5532 47.7972 59.2675 44.822 59.8452 45.6509Z" fill="#161742"/>
<path d="M55.2713 64.1927C54.5658 64.6827 53.5061 64.3805 52.905 63.5179L39.1849 43.8523C38.8248 43.3359 38.7102 42.7374 38.8263 42.2327C38.9042 41.8938 39.0879 41.599 39.3716 41.4024C40.0771 40.9124 41.1367 41.2146 41.7379 42.0772L55.4579 61.7428C56.0605 62.6054 55.9767 63.7027 55.2713 64.1927Z" fill="#1D478E"/>
<path d="M59.8466 45.6494H59.8452C59.2676 44.8235 53.5532 47.7972 47.0819 52.2951C40.7165 56.7196 35.9898 60.9711 36.3881 61.8953C32.3522 55.9759 29.9888 50.8178 40.8061 43.2992C52.2099 35.3729 55.7402 39.7505 59.8466 45.6494Z" fill="#1D478E"/>
<path d="M48.4533 51.5483C50.6006 50.1547 52.7523 48.761 54.9598 47.4641C55.6991 47.0299 56.4458 46.6044 57.2144 46.2201C57.7186 45.9678 58.2374 45.7198 58.7812 45.5629C59.0413 45.488 59.4749 45.3707 59.6836 45.5511C59.7571 45.6142 59.8952 45.5276 59.8276 45.4396C59.0207 44.379 58.2212 43.308 57.335 42.3134C56.5486 41.4317 55.6815 40.6014 54.6644 39.9896C53.6474 39.3779 52.5715 39.0551 51.4222 39.0067C49.9627 38.9451 48.5136 39.3236 47.1673 39.859C45.1405 40.6659 43.2636 41.8263 41.4794 43.0689C41.1957 43.2669 40.9135 43.4679 40.6343 43.6704C40.5402 43.7393 40.6313 43.8978 40.7269 43.8288C42.5626 42.4968 44.4835 41.238 46.5603 40.3109C47.9345 39.6977 49.416 39.2209 50.9313 39.1842C52.0865 39.1563 53.2211 39.416 54.2411 39.9588C55.2611 40.5016 56.1195 41.2703 56.8984 42.1051C57.7847 43.0542 58.5739 44.0914 59.3603 45.1242C59.4631 45.2606 59.5675 45.3956 59.6704 45.532L59.8144 45.4205C59.591 45.2254 59.2559 45.265 58.9884 45.3208C58.4814 45.425 57.9934 45.6465 57.5275 45.8651C55.7697 46.691 54.1118 47.7414 52.4672 48.7668C51.09 49.6265 49.7246 50.5053 48.3636 51.3884C48.2652 51.453 48.3563 51.6114 48.4562 51.5469L48.4533 51.5483Z" fill="#161742"/>
<path d="M79.3471 64.1927C80.0526 64.6827 81.1123 64.3805 81.7134 63.5179L95.4335 43.8523C95.7936 43.3359 95.9082 42.7374 95.7921 42.2327C95.7142 41.8938 95.5305 41.599 95.2468 41.4024C94.5413 40.9124 93.4817 41.2146 92.8805 42.0772L79.1605 61.7428C78.5579 62.6054 78.6417 63.7027 79.3471 64.1927Z" fill="#1D478E"/>
<path d="M74.772 45.6494H74.7734C75.3511 44.8235 81.0654 47.7972 87.5367 52.2951C93.9021 56.7196 98.6288 60.9711 98.2305 61.8953C102.266 55.9759 104.63 50.8178 93.8125 43.2992C82.4088 35.3729 78.8784 39.7505 74.772 45.6494Z" fill="#1D478E"/>
<path d="M88.8652 53.347C90.9434 54.8668 93.0011 56.4292 94.9367 58.1295C95.5731 58.6884 96.1992 59.265 96.7842 59.8782C97.1722 60.286 97.5573 60.7115 97.8571 61.1883C98.0085 61.4303 98.2304 61.7941 98.1143 62.0714C98.0717 62.1726 98.2275 62.2225 98.2819 62.1418C99.0403 61.0298 99.7781 59.8987 100.389 58.6972C100.933 57.6307 101.38 56.4996 101.574 55.3143C101.768 54.1289 101.695 52.9494 101.346 51.8154C100.919 50.4305 100.123 49.1879 99.196 48.0833C97.8674 46.5033 96.2566 45.1698 94.5913 43.9595C94.34 43.7761 94.0872 43.5971 93.8315 43.4196C93.7345 43.3521 93.6419 43.5105 93.7389 43.578C95.4893 44.7971 97.1869 46.1321 98.6273 47.7121C99.6281 48.8109 100.516 50.052 101.032 51.4545C101.439 52.5636 101.584 53.7445 101.448 54.9167C101.311 56.0889 100.908 57.2126 100.398 58.2689C99.8339 59.4396 99.1373 60.5428 98.4127 61.621C98.3171 61.7633 98.2201 61.9056 98.1231 62.0479L98.2907 62.1184C98.4009 61.8514 98.2583 61.5315 98.1334 61.2968C97.8865 60.8347 97.5338 60.4239 97.184 60.0381C95.8744 58.5931 94.34 57.3402 92.8188 56.1255C91.5549 55.1162 90.263 54.1421 88.9578 53.1885C88.8623 53.1181 88.7712 53.278 88.8652 53.347Z" fill="#161742"/>
<path d="M68.8575 45.8915H66.2605V58.084H68.8575V45.8915Z" fill="#161742"/>
<path d="M67.4422 102.538C81.7325 102.538 93.317 90.9748 93.317 76.7109C93.317 62.447 81.7325 50.8838 67.4422 50.8838C53.1519 50.8838 41.5674 62.447 41.5674 76.7109C41.5674 90.9748 53.1519 102.538 67.4422 102.538Z" fill="#1D478E"/>
<path d="M67.4423 99.4278C80.0117 99.4278 90.2013 89.2571 90.2013 76.7109C90.2013 64.1646 80.0117 53.9939 67.4423 53.9939C54.8729 53.9939 44.6833 64.1646 44.6833 76.7109C44.6833 89.2571 54.8729 99.4278 67.4423 99.4278Z" fill="#161742"/>
<path d="M67.4422 98.1398C79.2989 98.1398 88.9107 88.5458 88.9107 76.7109C88.9107 64.876 79.2989 55.282 67.4422 55.282C55.5854 55.282 45.9736 64.876 45.9736 76.7109C45.9736 88.5458 55.5854 98.1398 67.4422 98.1398Z" fill="#FFF3EB"/>
<path d="M72.3379 47.8587H62.5479C61.647 47.8587 60.9165 47.1296 60.9165 46.2303C60.9165 45.7433 61.1311 45.3061 61.4691 45.0083C61.7572 44.756 62.1349 44.6019 62.5479 44.6019H72.3379C73.2388 44.6019 73.9693 45.331 73.9693 46.2303C73.9693 47.1296 73.2388 47.8587 72.3379 47.8587Z" fill="#1D478E"/>
<path d="M75.7598 93.3983C75.4364 92.8438 75.6245 92.1308 76.1801 91.808C76.7371 91.4853 77.45 91.6731 77.7733 92.2276C78.0966 92.7822 77.9085 93.4951 77.353 93.8179C76.7974 94.1406 76.0831 93.9528 75.7598 93.3983Z" fill="#FFD325"/>
<path d="M57.1116 61.4274C56.7882 60.8728 56.9763 60.1598 57.5319 59.8371C58.0875 59.5144 58.8018 59.7021 59.1251 60.2567C59.4484 60.8112 59.2603 61.5242 58.7048 61.8469C58.1492 62.1697 57.4349 61.9819 57.1116 61.4274Z" fill="#FFD325"/>
<path d="M84.0446 68.5249C83.489 68.8477 82.7747 68.6599 82.4514 68.1053C82.1281 67.5508 82.3162 66.8378 82.8717 66.5151C83.4273 66.1923 84.1416 66.3801 84.465 66.9346C84.7883 67.4907 84.6002 68.2022 84.0446 68.5249Z" fill="#FFD325"/>
<path d="M52.0146 87.14C51.459 87.4628 50.7447 87.275 50.4214 86.7205C50.098 86.1644 50.2862 85.4529 50.8417 85.1302C51.3973 84.8074 52.1116 84.9952 52.4349 85.5498C52.7583 86.1058 52.5701 86.8173 52.0146 87.14Z" fill="#FFD325"/>
<path d="M82.9248 87.0592C82.3663 86.7394 82.1752 86.0279 82.4956 85.4705C82.816 84.913 83.5288 84.7223 84.0873 85.0421C84.6458 85.3619 84.8369 86.0734 84.5165 86.6309C84.1961 87.1883 83.4833 87.3791 82.9248 87.0592Z" fill="#FFD325"/>
<path d="M50.799 68.6114C50.2405 68.2916 50.0495 67.5801 50.3699 67.0226C50.6903 66.4651 51.4031 66.2744 51.9616 66.5942C52.5201 66.914 52.7112 67.6255 52.3908 68.183C52.0704 68.7405 51.3576 68.9312 50.799 68.6114Z" fill="#FFD325"/>
<path d="M77.6952 61.3731C77.3748 61.9305 76.662 62.1212 76.1035 61.8014C75.545 61.4816 75.3539 60.7701 75.6743 60.2126C75.9947 59.6552 76.7076 59.4645 77.2661 59.7843C77.8246 60.1041 78.0156 60.8156 77.6952 61.3731Z" fill="#FFD325"/>
<path d="M59.2118 93.4409C58.8914 93.9984 58.1786 94.1891 57.6201 93.8693C57.0616 93.5495 56.8705 92.838 57.1909 92.2805C57.5113 91.723 58.2242 91.5323 58.7827 91.8521C59.3412 92.172 59.5322 92.8835 59.2118 93.4409Z" fill="#FFD325"/>
<path d="M85.9743 77.9902C85.3306 77.9902 84.8088 77.4694 84.8088 76.8268C84.8088 76.1842 85.3306 75.6635 85.9743 75.6635C86.6181 75.6635 87.1398 76.1842 87.1398 76.8268C87.1398 77.4694 86.6181 77.9902 85.9743 77.9902Z" fill="#FFD325"/>
<path d="M48.9104 77.9902C48.2666 77.9902 47.7449 77.4694 47.7449 76.8268C47.7449 76.1842 48.2666 75.6635 48.9104 75.6635C49.5541 75.6635 50.0759 76.1842 50.0759 76.8268C50.0759 77.4694 49.5541 77.9902 48.9104 77.9902Z" fill="#FFD325"/>
<path d="M68.6076 58.329C68.6076 58.9716 68.0859 59.4924 67.4421 59.4924C66.7984 59.4924 66.2766 58.9716 66.2766 58.329C66.2766 57.6864 66.7984 57.1656 67.4421 57.1656C68.0859 57.1656 68.6076 57.6864 68.6076 58.329Z" fill="#FFD325"/>
<path d="M68.6076 95.3246C68.6076 95.9672 68.0859 96.488 67.4421 96.488C66.7984 96.488 66.2766 95.9672 66.2766 95.3246C66.2766 94.6821 66.7984 94.1613 67.4421 94.1613C68.0859 94.1613 68.6076 94.6821 68.6076 95.3246Z" fill="#FFD325"/>
<path d="M68.0816 77.4268C68.2433 77.4268 68.4005 77.3432 68.4858 77.1935C68.6136 76.9705 68.5372 76.6859 68.3138 76.5583L54.0941 68.4148C53.8707 68.2872 53.5855 68.3635 53.4577 68.5865C53.3298 68.8095 53.4062 69.0941 53.6296 69.2217L67.8494 77.3652C67.9229 77.4077 68.0022 77.4268 68.0816 77.4268Z" fill="#161742"/>
<path d="M68.5474 79.1315C68.5474 78.5011 68.0355 77.9901 67.404 77.9901C66.7724 77.9901 66.2605 78.5011 66.2605 79.1315V90.5068C66.2605 91.1372 66.7724 91.6482 67.404 91.6482C68.0355 91.6482 68.5474 91.1372 68.5474 90.5068V79.1315Z" fill="#32B353"/>
<path d="M64.4381 75.9925L57.2076 81.3231C56.4019 81.9171 56.2312 83.0506 56.8263 83.8549C57.4214 84.6591 58.557 84.8295 59.3627 84.2355L66.5932 78.9048C67.3989 78.3108 67.5696 77.1773 66.9745 76.3731C66.3794 75.5689 65.2438 75.3985 64.4381 75.9925Z" fill="#FFD325"/>
<path d="M68.8752 51.1625C71.5574 51.2828 74.2133 51.8153 76.7295 52.7542C79.2457 53.6931 81.4326 54.9357 83.4682 56.5216C85.4876 58.0957 87.2719 59.972 88.7373 62.0699C90.2026 64.1677 91.3622 66.5003 92.1397 68.9488C92.9172 71.3973 93.342 74.123 93.3287 76.7754C93.3155 79.4278 92.8805 82.1565 92.0309 84.715C91.1814 87.2735 90.0262 89.4857 88.5153 91.5807C87.0044 93.6756 85.1937 95.5182 83.1419 97.06C81.0902 98.6019 78.8106 99.8371 76.3944 100.703C73.9781 101.568 71.265 102.098 68.6121 102.184C67.9507 102.206 67.2878 102.2 66.6264 102.173C66.3898 102.162 66.3898 102.529 66.6264 102.539C69.3411 102.654 72.0689 102.353 74.688 101.628C77.3071 100.904 79.6307 99.843 81.8309 98.4214C84.0311 96.9999 85.9918 95.2658 87.6614 93.2707C89.331 91.2755 90.7008 89.0266 91.7076 86.6221C92.7144 84.2176 93.3846 81.486 93.6065 78.7999C93.8284 76.1138 93.6271 73.3323 92.998 70.6799C92.369 68.0275 91.3901 65.6685 90.0439 63.4166C88.6976 61.1647 87.05 59.1681 85.1232 57.4341C83.1963 55.7 80.9858 54.2345 78.6151 53.1445C76.2444 52.0545 73.5592 51.2843 70.8872 50.9601C70.2185 50.8794 69.5454 50.8251 68.8722 50.7943C68.6356 50.784 68.6371 51.1508 68.8722 51.161L68.8752 51.1625Z" fill="#161742"/>
<path d="M67.3292 78.0825C67.9494 78.0825 68.3786 78.5975 68.3816 79.1902C68.3816 79.4117 68.3816 79.6317 68.3816 79.8533C68.3816 80.8156 68.3816 81.778 68.3816 82.7404C68.3816 83.9815 68.3816 85.2241 68.3816 86.4652C68.3816 87.4833 68.3816 88.5029 68.3816 89.521V90.3499C68.3816 90.7504 68.2801 91.1288 67.9274 91.3724C67.7525 91.4927 67.5423 91.5587 67.3292 91.5587C67.2116 91.5587 67.2102 91.7421 67.3292 91.7421C68.0215 91.7421 68.555 91.1699 68.5653 90.4936C68.5682 90.3044 68.5653 90.1137 68.5653 89.9244C68.5653 88.9503 68.5653 87.9777 68.5653 87.0036C68.5653 85.7038 68.5653 84.4054 68.5653 83.1057C68.5653 82.0611 68.5653 81.0166 68.5653 79.9721V79.2166C68.5653 78.7178 68.3404 78.2542 67.876 78.0268C67.7069 77.9432 67.5188 77.8992 67.3292 77.8992C67.2116 77.8992 67.2102 78.0825 67.3292 78.0825Z" fill="#161742"/>
<path d="M67.4423 79.0376C68.7297 79.0376 69.7734 77.9959 69.7734 76.7109C69.7734 75.4259 68.7297 74.3842 67.4423 74.3842C66.155 74.3842 65.1113 75.4259 65.1113 76.7109C65.1113 77.9959 66.155 79.0376 67.4423 79.0376Z" fill="#1D478E"/>
<mask id="mask0_1_8340" style="mask-type:alpha" maskUnits="userSpaceOnUse" x="0" y="68" width="28" height="28">
<rect y="68" width="28" height="28" fill="#D9D9D9"/>
</mask>
<g mask="url(#mask0_1_8340)">
<path d="M14 87.2051C14.2034 87.2051 14.3739 87.1362 14.5116 86.9986C14.6493 86.8611 14.7181 86.6907 14.7181 86.4873C14.7181 86.2837 14.6493 86.1132 14.5116 85.9757C14.3739 85.838 14.2034 85.7692 14 85.7692C13.7966 85.7692 13.6261 85.838 13.4884 85.9757C13.3507 86.1132 13.2819 86.2837 13.2819 86.4873C13.2819 86.6907 13.3507 86.8611 13.4884 86.9986C13.6261 87.1362 13.7966 87.2051 14 87.2051ZM14.0009 83.346C14.1663 83.346 14.3048 83.2901 14.4162 83.1783C14.5276 83.0665 14.5833 82.928 14.5833 82.7627V76.9294C14.5833 76.7641 14.5273 76.6256 14.4153 76.5138C14.3033 76.4019 14.1646 76.346 13.9991 76.346C13.8337 76.346 13.6952 76.4019 13.5838 76.5138C13.4724 76.6256 13.4167 76.7641 13.4167 76.9294V82.7627C13.4167 82.928 13.4727 83.0665 13.5847 83.1783C13.6967 83.2901 13.8354 83.346 14.0009 83.346ZM14.0038 92.5C12.5519 92.5 11.1868 92.2245 9.9085 91.6734C8.63042 91.1224 7.51858 90.3745 6.573 89.4299C5.62742 88.4853 4.8789 87.3744 4.32746 86.0973C3.77582 84.8204 3.5 83.4559 3.5 82.0038C3.5 80.5519 3.77553 79.1868 4.32658 77.9085C4.87764 76.6304 5.62547 75.5186 6.57008 74.573C7.51469 73.6274 8.62556 72.8789 9.90267 72.3275C11.1796 71.7758 12.5441 71.5 13.9962 71.5C15.4481 71.5 16.8132 71.7755 18.0915 72.3266C19.3696 72.8776 20.4814 73.6255 21.427 74.5701C22.3726 75.5147 23.1211 76.6256 23.6725 77.9027C24.2242 79.1796 24.5 80.5441 24.5 81.9962C24.5 83.4481 24.2245 84.8132 23.6734 86.0915C23.1224 87.3696 22.3745 88.4814 21.4299 89.427C20.4853 90.3726 19.3744 91.1211 18.0973 91.6725C16.8204 92.2242 15.4559 92.5 14.0038 92.5Z" fill="#EE3D4B"/>
</g>
</svg>
