<svg width="134" height="161" viewBox="0 0 134 161" fill="none" xmlns="http://www.w3.org/2000/svg">
<g clip-path="url(#clip0_1_5068)">
<path d="M69.6424 101.871L69.7586 101.631C53.6726 94.1029 50.803 87.8041 46.4603 78.2705C44.9223 74.8944 43.1826 71.075 40.613 66.6383C47.0908 67.1345 52.8818 68.9913 57.8304 72.1595C61.841 74.7273 65.3116 78.1573 68.1449 82.3552C72.9736 89.5088 74.2924 96.5055 74.3054 96.5754L74.5694 96.5267C74.5568 96.4562 73.2308 89.4142 68.3742 82.2159C65.5208 77.986 62.0246 74.5292 57.9828 71.9404C52.9307 68.7047 47.0085 66.8258 40.3808 66.3559L40.1277 66.3377L40.2543 66.5544C42.8868 71.073 44.6552 74.9553 46.2159 78.3806C50.5828 87.9677 53.468 94.3013 69.643 101.871L69.6424 101.871Z" fill="#1D478E"/>
<path d="M70.9006 98.5197L71.122 98.3679C71.0094 98.2079 59.7805 82.2333 50.2748 74.5696L50.1038 74.7754C59.5813 82.4158 70.7885 98.3595 70.9006 98.5197Z" fill="#1D478E"/>
<path d="M57.2227 81.4622L57.4714 81.3606C57.4567 81.3255 56.0318 77.814 56.6465 73.7042L56.381 73.6675C55.7558 77.8521 57.208 81.4271 57.2228 81.4627L57.2227 81.4622Z" fill="#1D478E"/>
<path d="M62.5828 87.6652L62.6947 87.4242C59.0429 85.7914 55.2425 86.2701 55.2047 86.2749L55.2389 86.5373C55.276 86.5322 59.0033 86.065 62.5828 87.6652Z" fill="#1D478E"/>
<path d="M63.5674 112.722L63.5003 112.465C58.7772 113.698 53.9623 112.051 48.7811 107.433C44.191 103.341 39.9208 97.525 35.7913 91.9012C33.1142 88.255 30.5817 84.8067 28.0578 81.9425C42.3748 80.3437 51.6155 88.5781 51.7078 88.6619L51.8904 88.4669C51.7964 88.3815 42.3615 79.9686 27.7735 81.7092L27.5199 81.7396L27.6876 81.9284C30.2592 84.8203 32.8406 88.336 35.5734 92.0581C39.7108 97.6929 43.9893 103.519 48.6004 107.63C53.8538 112.313 58.7495 113.978 63.5669 112.722L63.5674 112.722Z" fill="#1D478E"/>
<path d="M62.419 106.218L62.6118 106.033C62.4718 105.891 48.5328 91.8209 40.2711 89.2783L40.1896 89.5311C43.5763 90.5733 48.4915 93.7873 54.4052 98.8252C58.8799 102.637 62.3838 106.183 62.419 106.218Z" fill="#1D478E"/>
<path d="M48.1947 93.8422L48.4255 93.7056C48.4147 93.6883 47.3485 91.9065 45.3147 87.4022L45.0695 87.5116C47.1113 92.0332 48.1839 93.8249 48.1947 93.8422Z" fill="#1D478E"/>
<path d="M55.1643 99.4552L55.2312 99.1982C55.1877 99.1876 50.8141 98.1258 45.8357 98.7846L45.8699 99.047C50.7976 98.3946 55.1212 99.4444 55.1641 99.4548L55.1643 99.4552Z" fill="#1D478E"/>
<path d="M33.8706 71.6307C34.7975 72.0766 35.4345 72.761 35.8692 73.6191C36.304 72.761 36.9437 72.074 37.8706 71.6281C36.9437 71.1822 36.304 70.4978 35.8692 69.6397C35.4345 70.4978 34.7975 71.1848 33.8706 71.6307Z" fill="#AF8E2F"/>
</g>
<path d="M80 112.045C80 132.375 63.4345 148.855 43 148.855C22.5655 148.855 6 132.375 6 112.045C6 91.7159 22.5655 75.2357 43 75.2357C63.4345 75.2357 80 91.7159 80 112.045Z" fill="#5BC4F0" fill-opacity="0.1"/>
<path d="M139 58.6962C139 69.1356 130.493 77.5984 120 77.5984C109.507 77.5984 101 69.1356 101 58.6962C101 48.2569 109.507 39.7941 120 39.7941C130.493 39.7941 139 48.2569 139 58.6962Z" fill="#5BC4F0" fill-opacity="0.1"/>
<path d="M119.162 46.7581H73.4152C69.3199 46.7581 66 50.0503 66 54.1114V153.647C66 157.708 69.3199 161 73.4152 161H119.162C123.257 161 126.577 157.708 126.577 153.647V54.1114C126.577 50.0503 123.257 46.7581 119.162 46.7581Z" fill="#1C004F"/>
<path d="M119.604 49.5867H72.9779C70.5763 49.5867 68.6294 51.5173 68.6294 53.8988V153.851C68.6294 156.232 70.5763 158.163 72.9779 158.163H119.604C122.006 158.163 123.953 156.232 123.953 153.851V53.8988C123.953 51.5173 122.006 49.5867 119.604 49.5867Z" fill="white"/>
<path d="M83.1929 48.1724H109.603V52.042C109.603 54.2936 107.761 56.1243 105.487 56.1243H87.0908C84.8203 56.1243 82.9741 54.2979 82.9741 52.042V48.3893C82.9741 48.2678 83.0704 48.1724 83.1929 48.1724Z" fill="#1C004F"/>
<path d="M117.989 159.039C117.989 160.003 110.878 160.786 102.112 160.786C93.3461 160.786 86.2354 160.003 86.2354 159.039C86.2354 159.022 86.2388 159.004 86.2423 158.987V154.269H117.978V158.977C117.985 158.998 117.989 159.018 117.989 159.039Z" fill="#AF8E2F"/>
<path d="M102.109 156.058C110.877 156.058 117.985 155.276 117.985 154.311C117.985 153.347 110.877 152.565 102.109 152.565C93.3402 152.565 86.2319 153.347 86.2319 154.311C86.2319 155.276 93.3402 156.058 102.109 156.058Z" fill="#FFD325"/>
<path d="M121.74 153.344C121.74 154.308 114.63 155.09 105.864 155.09C97.0976 155.09 89.9868 154.308 89.9868 153.344C89.9868 153.327 89.9903 153.309 89.9938 153.292V148.574H121.73V153.281C121.737 153.302 121.74 153.323 121.74 153.344Z" fill="#AF8E2F"/>
<path d="M105.86 150.366C114.629 150.366 121.737 149.584 121.737 148.619C121.737 147.655 114.629 146.873 105.86 146.873C97.0917 146.873 89.9834 147.655 89.9834 148.619C89.9834 149.584 97.0917 150.366 105.86 150.366Z" fill="#FFD325"/>
<path d="M118.754 146.915C118.754 147.878 111.643 148.661 102.877 148.661C94.1108 148.661 87 147.878 87 146.915C87 146.897 87.0035 146.88 87.007 146.862V142.145H118.743V146.852C118.75 146.873 118.754 146.894 118.754 146.915Z" fill="#AF8E2F"/>
<path d="M102.877 143.933C111.645 143.933 118.754 143.151 118.754 142.187C118.754 141.222 111.645 140.44 102.877 140.44C94.1083 140.44 87 141.222 87 142.187C87 143.151 94.1083 143.933 102.877 143.933Z" fill="#FFD325"/>
<path d="M122.505 141.223C122.505 142.187 115.394 142.97 106.628 142.97C97.8622 142.97 90.7515 142.187 90.7515 141.223C90.7515 141.206 90.7549 141.188 90.7584 141.171V136.453H122.495V141.161C122.502 141.181 122.505 141.202 122.505 141.223Z" fill="#AF8E2F"/>
<path d="M106.628 138.241C115.397 138.241 122.505 137.46 122.505 136.495C122.505 135.53 115.397 134.748 106.628 134.748C97.8597 134.748 90.7515 135.53 90.7515 136.495C90.7515 137.46 97.8597 138.241 106.628 138.241Z" fill="#FFD325"/>
<path d="M118.754 135.528C118.754 136.491 111.643 137.274 102.877 137.274C94.1108 137.274 87 136.491 87 135.528C87 135.51 87.0035 135.493 87.007 135.475V130.758H118.743V135.465C118.75 135.486 118.754 135.507 118.754 135.528Z" fill="#AF8E2F"/>
<path d="M102.877 132.55C111.645 132.55 118.754 131.768 118.754 130.803C118.754 129.839 111.645 129.057 102.877 129.057C94.1083 129.057 87 129.839 87 130.803C87 131.768 94.1083 132.55 102.877 132.55Z" fill="#FFD325"/>
<path d="M124.381 129.836C124.381 130.8 117.27 131.583 108.504 131.583C99.7377 131.583 92.627 130.8 92.627 129.836C92.627 129.819 92.6304 129.801 92.6339 129.784V125.066H124.37V129.774C124.377 129.794 124.381 129.815 124.381 129.836Z" fill="#AF8E2F"/>
<path d="M108.504 126.855C117.272 126.855 124.381 126.073 124.381 125.108C124.381 124.144 117.272 123.362 108.504 123.362C99.7352 123.362 92.627 124.144 92.627 125.108C92.627 126.073 99.7352 126.855 108.504 126.855Z" fill="#FFD325"/>
<path d="M121.438 125.108C121.438 125.755 115.646 126.28 108.507 126.28C101.369 126.28 95.5771 125.755 95.5771 125.108C95.5771 124.461 101.369 123.936 108.507 123.936C115.646 123.936 121.438 124.461 121.438 125.108Z" fill="#AF8E2F"/>
<path d="M80.7031 108.752H17.7659C16.2243 108.752 14.9746 109.995 14.9746 111.527V154.124C14.9746 155.657 16.2243 156.899 17.7659 156.899H80.7031C82.2447 156.899 83.4944 155.657 83.4944 154.124V111.527C83.4944 109.995 82.2447 108.752 80.7031 108.752Z" fill="#1D478E"/>
<path d="M81.4155 113.75V151.904C81.4155 153.518 80.0996 154.829 78.4733 154.829H74.0329V113.3H18.7545C18.0681 113.3 17.5127 112.748 17.5127 112.065C17.5127 111.383 18.0681 110.831 18.7545 110.831H78.4733C80.0967 110.831 81.4155 112.139 81.4155 113.756V113.75Z" fill="#161742"/>
<path d="M71.1925 108.84C71.2523 108.913 71.315 108.987 71.3719 109.063C73.0866 111.269 73.8356 114.01 73.4796 116.78C73.1236 119.546 71.708 122.01 69.4864 123.717C64.9036 127.24 58.2929 126.399 54.7497 121.84C53.0351 119.634 52.2831 116.896 52.6392 114.126C52.9838 111.456 54.3168 109.066 56.4045 107.37C56.4814 107.308 56.5555 107.251 56.6352 107.189C61.144 103.723 67.6094 104.482 71.1953 108.84H71.1925Z" fill="#AF8E2F"/>
<path d="M66.9247 111.696C66.876 111.647 66.8171 111.619 66.7402 111.617L65.3523 111.572C65.275 111.125 65.1159 110.73 64.8697 110.394L66.7621 110.456C66.839 110.456 66.9004 110.436 66.9516 110.39C67.0027 110.341 67.0283 110.283 67.0308 110.206L67.0582 109.384C67.0606 109.308 67.0375 109.247 66.9914 109.196C66.9427 109.145 66.8812 109.12 66.8069 109.117L60.0515 108.9C59.9773 108.897 59.9133 108.918 59.8621 108.966C59.8135 109.012 59.7854 109.073 59.7829 109.149L59.7481 110.224C59.7456 110.292 59.7687 110.356 59.82 110.407C59.8687 110.46 59.9302 110.488 59.9993 110.488L61.1773 110.525C62.3194 110.562 63.0342 110.89 63.3241 111.508L59.9695 111.399C59.8952 111.4 59.8312 111.42 59.78 111.466C59.7289 111.512 59.7033 111.573 59.7008 111.649L59.6735 112.471C59.6736 112.548 59.6941 112.609 59.7402 112.66C59.7864 112.711 59.8479 112.736 59.9247 112.738L63.392 112.852C63.2567 113.29 62.9677 113.616 62.5249 113.833C62.0821 114.05 61.5035 114.147 60.789 114.122L59.8799 114.093C59.8082 114.093 59.7468 114.116 59.6931 114.164C59.6393 114.215 59.6112 114.274 59.6087 114.342L59.5739 115.368C59.5714 115.439 59.5945 115.498 59.6406 115.549C60.6455 116.681 61.9402 118.26 63.5324 120.29C63.5786 120.356 63.6452 120.389 63.7323 120.394L65.3148 120.446C65.4275 120.451 65.5094 120.405 65.5554 120.308C65.6116 120.211 65.6064 120.12 65.5321 120.031C64.0168 118.052 62.8195 116.572 61.9479 115.582C62.8722 115.505 63.6274 115.232 64.2184 114.768C64.8095 114.302 65.1776 113.685 65.328 112.914L66.6929 112.958C66.7671 112.958 66.8311 112.938 66.8797 112.892C66.9309 112.846 66.9565 112.785 66.959 112.709L66.9863 111.887C66.9862 111.81 66.9657 111.749 66.9196 111.698L66.9247 111.696Z" fill="#DCB414"/>
<path d="M66.3618 102.896C59.3893 101.081 52.2545 105.23 50.4288 112.164C48.6031 119.096 52.7757 126.19 59.751 128.005C66.7235 129.82 73.8583 125.671 75.684 118.737C77.5097 111.805 73.3371 104.711 66.3618 102.896ZM73.2231 118.097C72.5111 120.795 70.7879 123.058 68.3641 124.465C65.9431 125.875 63.1148 126.263 60.3976 125.555C54.7951 124.097 51.4285 118.377 52.8953 112.804C53.6074 110.106 55.3277 107.843 57.7516 106.433C60.0871 105.074 62.8043 104.666 65.4332 105.272C65.5301 105.295 65.6212 105.317 65.718 105.343C71.2322 106.776 74.576 112.331 73.2915 117.813C73.2687 117.907 73.2488 117.998 73.2231 118.091V118.097Z" fill="#FFD325"/>
<path d="M37.3618 93.3253C30.1558 93.1299 24.1574 98.7791 23.9581 105.946C23.7615 113.11 29.4438 119.076 36.6526 119.272C43.8586 119.467 49.8598 113.818 50.0564 106.651C50.2529 99.487 44.5707 93.5235 37.3618 93.3253ZM47.51 106.58C47.4331 109.37 46.2682 111.961 44.2289 113.88C42.1924 115.8 39.5265 116.817 36.721 116.74C30.9305 116.582 26.3477 111.774 26.5044 106.014C26.5813 103.225 27.7434 100.634 29.7827 98.714C31.748 96.862 34.3 95.8511 37.0001 95.8511C37.0998 95.8511 37.1938 95.8511 37.2935 95.8568C42.9899 96.0097 47.5129 100.668 47.5129 106.294C47.5129 106.391 47.5129 106.484 47.5129 106.58H47.51Z" fill="#FFD325"/>
<path d="M45.1373 99.6823C45.1971 99.7559 45.2598 99.8295 45.3168 99.906C47.0314 102.112 47.7805 104.853 47.4244 107.622C47.0684 110.389 45.6528 112.852 43.4312 114.56C38.8484 118.082 32.2377 117.241 28.6945 112.682C26.9799 110.477 26.2279 107.738 26.584 104.969C26.9286 102.299 28.2616 99.9088 30.3493 98.2126C30.4262 98.1503 30.5003 98.0937 30.58 98.0314C35.0888 94.5654 41.5542 95.3243 45.1402 99.6823H45.1373Z" fill="#AF8E2F"/>
<path d="M76.3225 113.348H17.6804C16.186 113.348 14.9746 114.552 14.9746 116.038V158.196C14.9746 159.682 16.186 160.886 17.6804 160.886H76.3225C77.8169 160.886 79.0284 159.682 79.0284 158.196V116.038C79.0284 114.552 77.8169 113.348 76.3225 113.348Z" fill="#1D478E"/>
<path d="M39.4295 159.014H20.1641C18.7143 159.014 17.5352 157.842 17.5352 156.401V152.714H17.8399V156.401C17.8399 157.675 18.8824 158.711 20.1641 158.711H39.4295V159.014Z" fill="#161742"/>
<path d="M76.468 122.911H76.1633V117.828C76.1633 116.553 75.1208 115.517 73.8391 115.517H48.6836V115.214H73.8391C75.2889 115.214 76.468 116.386 76.468 117.828V122.911Z" fill="#161742"/>
<path d="M17.8399 141.509H17.5352V148.684H17.8399V141.509Z" fill="#161742"/>
<path d="M83.4145 127.353V140.787C83.4145 142.475 82.0417 143.842 80.3413 143.842H68.6522C64.9153 143.842 61.8848 140.829 61.8848 137.114C61.8848 135.257 62.6424 133.575 63.8671 132.357C65.0919 131.139 66.7837 130.386 68.6522 130.386H80.3413C80.4267 130.386 80.5122 130.389 80.5976 130.397C82.1755 130.267 83.4117 128.953 83.4117 127.353H83.4145Z" fill="#161742"/>
<path d="M70.2689 139.338C71.5025 138.112 71.5025 136.124 70.2689 134.897C69.0354 133.671 67.0354 133.671 65.8019 134.897C64.5683 136.124 64.5683 138.112 65.8019 139.338C67.0354 140.565 69.0354 140.565 70.2689 139.338Z" fill="white"/>
<path d="M19.7711 135.192C12.7958 136.995 8.6089 144.08 10.4232 151.018C12.2375 157.953 19.3638 162.118 26.342 160.311C33.3173 158.508 37.507 151.423 35.6898 144.485C33.8755 137.55 26.7492 133.388 19.7711 135.192ZM33.2261 145.122C33.9325 147.821 33.5366 150.635 32.1153 153.04C30.694 155.446 28.4183 157.157 25.7011 157.859C20.0958 159.306 14.3481 155.953 12.8898 150.378C12.1834 147.679 12.5765 144.867 13.9977 142.46C15.3677 140.138 17.5381 138.462 20.13 137.717C20.224 137.689 20.318 137.666 20.4119 137.641C25.9261 136.214 31.5741 139.439 33.1464 144.845C33.172 144.935 33.2005 145.029 33.2233 145.119L33.2261 145.122Z" fill="#FFD325"/>
<path d="M33.1491 144.848C33.1747 144.938 33.2032 145.032 33.226 145.122C33.9323 147.821 33.5364 150.635 32.1152 153.04C30.6939 155.446 28.4182 157.157 25.701 157.859C20.0957 159.306 14.3479 155.953 12.8896 150.378C12.1833 147.679 12.5763 144.867 13.9976 142.46C15.3676 140.138 17.5379 138.462 20.1298 137.717C20.2238 137.689 20.3178 137.666 20.4118 137.641C25.926 136.214 31.574 139.439 33.1462 144.845L33.1491 144.848Z" fill="#AF8E2F"/>
<path d="M16 135.485C16.9655 135.972 17.6292 136.72 18.0821 137.657C18.5349 136.72 19.2014 135.969 20.167 135.482C19.2014 134.995 18.5349 134.248 18.0821 133.31C17.6292 134.248 16.9655 134.998 16 135.485Z" fill="#FFF3EB"/>
<path d="M46 113.598C46.9655 114.085 47.6292 114.833 48.0821 115.77C48.5349 114.833 49.2014 114.082 50.167 113.595C49.2014 113.108 48.5349 112.361 48.0821 111.423C47.6292 112.361 46.9655 113.111 46 113.598Z" fill="#FFF3EB"/>
<path d="M67 105.723C67.5611 106.006 67.9456 106.439 68.2105 106.986C68.4754 106.442 68.8599 106.006 69.421 105.723C68.8599 105.439 68.4725 105.006 68.2105 104.46C67.9456 105.003 67.5611 105.439 67 105.723Z" fill="#FFF3EB"/>
<path d="M40.8641 104.674C40.8154 104.626 40.7565 104.598 40.6797 104.596L39.2917 104.551C39.2145 104.103 39.0553 103.709 38.8092 103.373L40.7016 103.435C40.7784 103.435 40.8399 103.414 40.891 103.369C40.9422 103.32 40.9677 103.262 40.9702 103.185L40.9976 102.363C41.0001 102.287 40.977 102.226 40.9308 102.175C40.8821 102.124 40.8207 102.098 40.7464 102.096L33.991 101.879C33.9167 101.876 33.8527 101.896 33.8016 101.945C33.753 101.991 33.7249 102.052 33.7224 102.128L33.6876 103.202C33.6851 103.271 33.7082 103.335 33.7594 103.386C33.8081 103.439 33.8696 103.467 33.9388 103.467L35.1167 103.504C36.2589 103.541 36.9736 103.869 37.2636 104.487L33.9089 104.378C33.8347 104.378 33.7707 104.399 33.7195 104.445C33.6683 104.49 33.6428 104.552 33.6403 104.628L33.6129 105.45C33.613 105.526 33.6336 105.588 33.6797 105.638C33.7258 105.689 33.7873 105.715 33.8641 105.717L37.3315 105.831C37.1962 106.269 36.9071 106.595 36.4643 106.812C36.0215 107.029 35.4429 107.126 34.7285 107.101L33.8194 107.071C33.7477 107.071 33.6862 107.094 33.6325 107.143C33.5788 107.194 33.5507 107.252 33.5482 107.321L33.5133 108.347C33.5108 108.418 33.5339 108.477 33.5801 108.528C34.585 109.659 35.8797 111.239 37.4719 113.268C37.518 113.335 37.5846 113.368 37.6717 113.373L39.2543 113.425C39.367 113.43 39.4489 113.384 39.4949 113.287C39.5511 113.19 39.5459 113.098 39.4715 113.009C37.9562 111.031 36.7589 109.55 35.8873 108.561C36.8117 108.484 37.5668 108.211 38.1579 107.747C38.749 107.28 39.1171 106.664 39.2674 105.893L40.6323 105.937C40.7066 105.937 40.7706 105.917 40.8192 105.871C40.8704 105.825 40.8959 105.764 40.8984 105.687L40.9258 104.865C40.9257 104.789 40.9052 104.728 40.859 104.677L40.8641 104.674Z" fill="#DCB414"/>
<path d="M26.3573 146.062C26.3086 146.013 26.2497 145.985 26.1729 145.983L24.7849 145.938C24.7076 145.49 24.5485 145.096 24.3023 144.76L26.1948 144.822C26.2716 144.822 26.333 144.802 26.3842 144.756C26.4354 144.707 26.4609 144.649 26.4634 144.572L26.4908 143.75C26.4933 143.674 26.4701 143.613 26.424 143.562C26.3753 143.511 26.3138 143.486 26.2396 143.483L19.4842 143.266C19.4099 143.263 19.3459 143.284 19.2947 143.332C19.2461 143.378 19.218 143.439 19.2155 143.515L19.1807 144.59C19.1782 144.658 19.2013 144.722 19.2526 144.773C19.3013 144.826 19.3628 144.854 19.4319 144.854L20.6099 144.891C21.752 144.928 22.4668 145.256 22.7567 145.874L19.4021 145.765C19.3278 145.765 19.2638 145.786 19.2127 145.832C19.1615 145.878 19.1359 145.939 19.1335 146.015L19.1061 146.837C19.1062 146.914 19.1267 146.975 19.1729 147.026C19.219 147.076 19.2805 147.102 19.3573 147.104L22.8246 147.218C22.6893 147.656 22.4003 147.982 21.9575 148.199C21.5147 148.416 20.9361 148.513 20.2216 148.488L19.3125 148.458C19.2408 148.459 19.1794 148.481 19.1257 148.53C19.0719 148.581 19.0438 148.639 19.0413 148.708L19.0065 149.734C19.004 149.805 19.0271 149.864 19.0732 149.915C20.0781 151.046 21.3728 152.626 22.965 154.656C23.0112 154.722 23.0778 154.755 23.1649 154.76L24.7474 154.812C24.8601 154.817 24.942 154.771 24.988 154.674C25.0443 154.577 25.039 154.486 24.9647 154.397C23.4494 152.418 22.2521 150.937 21.3805 149.948C22.3048 149.871 23.06 149.598 23.651 149.134C24.2421 148.668 24.6103 148.051 24.7606 147.28L26.1255 147.324C26.1998 147.324 26.2638 147.304 26.3124 147.258C26.3635 147.212 26.3891 147.151 26.3916 147.075L26.4189 146.252C26.4189 146.176 26.3983 146.115 26.3522 146.064L26.3573 146.062Z" fill="#DCB414"/>
<g opacity="0.3">
<mask id="mask0_1_5068" style="mask-type:alpha" maskUnits="userSpaceOnUse" x="81" y="76" width="32" height="33">
<rect x="81" y="76.6036" width="32" height="31.8352" fill="#D9D9D9"/>
</mask>
<g mask="url(#mask0_1_5068)">
<path d="M96.9998 105.786C94.2886 105.786 91.8588 105.069 89.7101 103.635C87.5614 102.202 85.9485 100.273 84.8714 97.85V101.552C84.8714 101.74 84.8078 101.898 84.6804 102.025C84.5531 102.151 84.3945 102.215 84.2048 102.215C84.0152 102.215 83.8566 102.151 83.7291 102.025C83.6018 101.898 83.5381 101.74 83.5381 101.552V96.6539C83.5381 96.3459 83.6403 96.0904 83.8448 95.8872C84.049 95.684 84.3058 95.5824 84.6151 95.5824H89.5381C89.7279 95.5824 89.8864 95.6458 90.0138 95.7724C90.1411 95.8991 90.2048 96.0569 90.2048 96.2457C90.2048 96.4345 90.1411 96.5922 90.0138 96.7189C89.8864 96.8456 89.7279 96.9089 89.5381 96.9089H85.9304C86.792 99.1809 88.236 101.007 90.2624 102.388C92.2891 103.769 94.5349 104.459 96.9998 104.459C100.065 104.459 102.721 103.463 104.968 101.47C107.215 99.4767 108.528 96.9487 108.907 93.8859C108.935 93.6854 109.013 93.5183 109.143 93.3848C109.273 93.2513 109.439 93.1845 109.641 93.1845C109.831 93.1845 109.986 93.258 110.107 93.405C110.229 93.5523 110.276 93.7236 110.248 93.919C110.076 95.5941 109.613 97.1506 108.859 98.5885C108.105 100.026 107.137 101.28 105.954 102.349C104.771 103.417 103.415 104.258 101.886 104.869C100.357 105.48 98.728 105.786 96.9998 105.786ZM96.9998 80.5831C94.0373 80.5831 91.4112 81.5498 89.1214 83.4834C86.8319 85.4169 85.4888 87.9662 85.0921 91.1311C85.0648 91.3317 84.9861 91.503 84.8561 91.6451C84.7263 91.7871 84.5605 91.858 84.3588 91.858C84.1519 91.858 83.992 91.7845 83.8791 91.6375C83.7664 91.4903 83.7238 91.3104 83.7511 91.098C83.958 89.3548 84.4511 87.76 85.2304 86.3137C86.01 84.8672 86.9912 83.6223 88.1741 82.5791C89.357 81.5358 90.7044 80.7212 92.2164 80.1354C93.7284 79.5495 95.3229 79.2566 96.9998 79.2566C99.6595 79.2566 102.089 79.9776 104.289 81.4197C106.489 82.8618 108.102 84.82 109.128 87.2943V83.491C109.128 83.3022 109.192 83.1445 109.319 83.0178C109.446 82.8911 109.605 82.8278 109.795 82.8278C109.984 82.8278 110.143 82.8911 110.27 83.0178C110.398 83.1445 110.461 83.3022 110.461 83.491V88.3887C110.461 88.6966 110.359 88.9522 110.155 89.1554C109.951 89.3585 109.694 89.4601 109.384 89.4601H104.461C104.272 89.4601 104.113 89.3968 103.986 89.2701C103.858 89.1434 103.795 88.9857 103.795 88.7969C103.795 88.6081 103.858 88.4503 103.986 88.3237C104.113 88.197 104.272 88.1336 104.461 88.1336H108.069C107.259 85.9297 105.836 84.1203 103.801 82.7054C101.766 81.2905 99.4989 80.5831 96.9998 80.5831Z" fill="#5BC4F0"/>
<path d="M100.646 89.008C101.03 89.008 101.305 89.3811 101.19 89.7482C101.115 89.986 100.895 90.1479 100.646 90.1479H93.3519C92.9684 90.1479 92.6943 89.7768 92.8071 89.4103C92.8808 89.1711 93.1017 89.008 93.3519 89.008H100.646ZM98.3074 99.036C98.1084 99.0631 97.909 98.9892 97.7758 98.8389L92.8362 93.2678C92.7409 93.1603 92.6872 93.0222 92.6847 92.8785C92.6791 92.5421 92.9502 92.2662 93.2867 92.2662H94.995C95.696 92.2662 96.2939 92.1686 96.7888 91.9741C97.2836 91.776 97.6612 91.4825 97.9215 91.0935C98.1871 90.7052 98.3199 90.2236 98.3199 89.6493C98.3199 88.8029 98.0432 88.1382 97.4898 87.6543C96.9416 87.1663 96.1545 86.9226 95.1299 86.9226H93.3367C92.9621 86.9226 92.6955 86.5585 92.8086 86.2014C92.8815 85.9712 93.0952 85.8148 93.3367 85.8148H95.1299C96.1188 85.8148 96.9459 85.9786 97.6113 86.3071C98.2812 86.6348 98.7849 87.0886 99.1217 87.6671C99.4637 88.2414 99.6343 88.9018 99.6343 89.6492C99.6343 90.3488 99.4704 90.9786 99.1425 91.54C98.8183 92.0972 98.3168 92.5396 97.638 92.868C96.9636 93.1922 96.1031 93.3539 95.0555 93.3539C94.8671 93.3539 94.767 93.5765 94.892 93.7175L98.8396 98.1698C99.1252 98.4919 98.9049 99.001 98.4745 99.0133L98.3074 99.036ZM100.698 85.8147C101.081 85.8147 101.355 86.1852 101.242 86.5511C101.169 86.7908 100.947 86.9539 100.696 86.9527L94.7071 86.9259C94.3376 86.9242 94.0727 86.5692 94.1762 86.2146C94.2454 85.9776 94.4627 85.8147 94.7095 85.8147L100.698 85.8147Z" fill="#5BC4F0"/>
</g>
</g>
<path d="M47 15.9195C48.3903 16.5884 49.3459 17.615 49.998 18.9022C50.65 17.615 51.6097 16.5845 53 15.9156C51.6097 15.2468 50.65 14.2202 49.998 12.933C49.3459 14.2202 48.3903 15.2507 47 15.9195Z" fill="#FFD325"/>
<path d="M90 31.3395C91.1586 31.8968 91.9549 32.7523 92.4983 33.825C93.0417 32.7523 93.8414 31.8936 95 31.3362C93.8414 30.7788 93.0417 29.9233 92.4983 28.8507C91.9549 29.9233 91.1586 30.7821 90 31.3395Z" fill="#FFD325"/>
<path d="M121 2.48874C122.159 3.04612 122.955 3.90163 123.498 4.97426C124.042 3.90163 124.841 3.04288 126 2.4855C124.841 1.92813 124.042 1.07262 123.498 0C122.955 1.07262 122.159 1.93137 121 2.48874Z" fill="#AF8E2F"/>
<path d="M0 85.0597C1.62235 85.8404 2.73412 87.0349 3.5 88.5417C4.26588 87.0427 5.37765 85.8404 7 85.0597C5.37765 84.279 4.25765 83.0845 3.5 81.5778C2.73412 83.0767 1.62235 84.279 0 85.0597Z" fill="#AF8E2F"/>
<defs>
<clipPath id="clip0_1_5068">
<rect width="39.3172" height="51.6245" fill="white" transform="matrix(-0.938513 0.345244 0.348394 0.937348 60.8999 58.6964)"/>
</clipPath>
</defs>
</svg>
