<svg width="117" height="101" viewBox="0 0 117 101" fill="none" xmlns="http://www.w3.org/2000/svg">
<path d="M104 0.341797H11V101.342H104V0.341797Z" fill="#1D478E"/>
<path d="M60.7196 46.8789H17.8042V80.1571H60.7196V46.8789Z" fill="#161742"/>
<mask id="mask0_351_5610" style="mask-type:luminance" maskUnits="userSpaceOnUse" x="20" y="48" width="39" height="31">
<path d="M58.5176 48.5879H20.0063V78.4508H58.5176V48.5879Z" fill="white"/>
</mask>
<g mask="url(#mask0_351_5610)">
<path d="M58.5176 48.5879H20.0063V78.4508H58.5176V48.5879Z" fill="#FEE5D4" fill-opacity="0.3"/>
<g opacity="0.4">
<path d="M53.5485 32.5419L37.3818 39.5703L57.2614 85.1961L73.428 78.1677L53.5485 32.5419Z" fill="white" fill-opacity="0.3"/>
<path d="M35.8333 40.607L32.3955 42.1016L52.9954 89.3807L56.4332 87.8861L35.8333 40.607Z" fill="white" fill-opacity="0.3"/>
<path d="M28.8772 40.6066L27.1592 41.3535L47.759 88.6326L49.4771 87.8857L28.8772 40.6066Z" fill="white" fill-opacity="0.3"/>
</g>
</g>
<path d="M97.7153 46.8789H74.2661V100.919H97.7153V46.8789Z" fill="#161742"/>
<mask id="mask1_351_5610" style="mask-type:luminance" maskUnits="userSpaceOnUse" x="75" y="49" width="22" height="32">
<path d="M96.0107 49.6523H75.9731V80.1565H96.0107V49.6523Z" fill="white"/>
</mask>
<g mask="url(#mask1_351_5610)">
<path d="M96.0107 49.6523H75.9731V80.1565H96.0107V49.6523Z" fill="#FFF3EB" fill-opacity="0.3"/>
<g opacity="0.4">
<path d="M101.557 33.663L85.3906 40.6914L105.27 86.3172L121.437 79.2888L101.557 33.663Z" fill="white" fill-opacity="0.3"/>
<path d="M83.8416 41.7261L80.4038 43.2207L101.004 90.4998L104.441 89.0052L83.8416 41.7261Z" fill="white" fill-opacity="0.3"/>
<path d="M76.8865 41.7257L75.1685 42.4727L95.7683 89.7518L97.4864 89.0049L76.8865 41.7257Z" fill="white" fill-opacity="0.3"/>
</g>
</g>
<path d="M77.6462 84.8438C78.2261 84.8438 78.6962 84.3742 78.6962 83.795C78.6962 83.2157 78.2261 82.7461 77.6462 82.7461C77.0663 82.7461 76.5962 83.2157 76.5962 83.795C76.5962 84.3742 77.0663 84.8438 77.6462 84.8438Z" fill="#FEE5D4"/>
<path d="M90.6713 60.6602H81.876V66.5364H90.6713V60.6602Z" fill="#FFD325"/>
<path d="M84.2284 65.3529C84.1708 65.3065 84.1226 65.2417 84.0799 65.162C84.0039 65.0212 83.9482 64.8303 83.913 64.5857C83.887 64.417 83.8666 64.2225 83.8536 64.0019L83.8499 63.7962V63.5868C83.8481 63.5201 83.8462 63.4367 83.8462 63.3422C83.8462 63.1866 83.8518 63.0494 83.8666 62.929C83.8777 62.8048 83.9037 62.6807 83.9445 62.5584C83.9853 62.4527 84.0465 62.3768 84.1245 62.3323C84.1708 62.3119 84.2172 62.3008 84.2655 62.3008C84.4027 62.3008 84.5122 62.3545 84.592 62.4639C84.681 62.5862 84.7385 62.7214 84.7682 62.8734C84.809 63.055 84.8331 63.2292 84.8387 63.396C84.8498 63.5794 84.8535 63.7536 84.8535 63.9186V64.1409C84.8535 64.1854 84.8461 64.2688 84.8331 64.3892C84.822 64.4856 84.8183 64.5671 84.8183 64.6339V64.6487C84.8035 64.721 84.7942 64.8062 84.7942 64.9063C84.7942 64.9785 84.7793 65.0545 84.7478 65.1323C84.7163 65.2102 84.6717 65.2769 84.6161 65.3306C84.5586 65.3936 84.4936 65.4233 84.4213 65.4233C84.3489 65.4233 84.2877 65.3992 84.2302 65.3529H84.2284ZM84.5604 65.0638C84.592 64.9785 84.6142 64.8729 84.6291 64.7506C84.6439 64.6283 84.655 64.4875 84.6662 64.3318C84.6717 64.2651 84.6736 64.178 84.6736 64.0705L84.6699 63.7129C84.6643 63.572 84.6495 63.3978 84.6235 63.1866C84.6031 63.0068 84.5641 62.8493 84.5066 62.7122C84.4807 62.6473 84.4473 62.5973 84.4083 62.5602C84.3693 62.5232 84.3285 62.5065 84.284 62.5065C84.2191 62.5065 84.1708 62.5565 84.1393 62.6584C84.1004 62.7641 84.0744 62.8808 84.0614 63.0087C84.0465 63.1458 84.0373 63.2774 84.0336 63.4015L84.0299 63.5294C84.028 63.5665 84.0261 63.6146 84.0261 63.6776V63.6925C84.0261 63.8667 84.0447 64.0798 84.0799 64.3355C84.1208 64.6802 84.182 64.9266 84.2636 65.0712C84.3155 65.162 84.3693 65.2083 84.4269 65.2083C84.4788 65.2083 84.5233 65.1601 84.5586 65.0638H84.5604Z" fill="white"/>
<path d="M85.356 65.2954C85.3393 65.2713 85.3301 65.2398 85.3301 65.2046L85.3375 64.5504C85.3449 64.2335 85.3486 63.9889 85.3486 63.8147C85.3486 63.2106 85.3152 62.7473 85.2466 62.4249C85.2855 62.3656 85.3356 62.3359 85.395 62.3359C85.4915 62.3359 85.5787 62.3582 85.6584 62.4008C85.7382 62.4434 85.8031 62.5009 85.8551 62.5731C85.9571 62.7232 86.0072 62.8919 86.0072 63.079C86.0072 63.2662 85.9664 63.4478 85.8829 63.6016C85.7994 63.7554 85.6788 63.874 85.5211 63.9593L85.5286 64.3521L85.536 64.5578C85.5378 64.6023 85.5397 64.6653 85.5397 64.7487C85.5471 64.9229 85.5508 65.0637 85.5508 65.1731C85.5508 65.2231 85.5397 65.262 85.5193 65.2898C85.4989 65.3176 85.4655 65.3324 85.421 65.3324C85.3931 65.3324 85.369 65.3195 85.3523 65.2954H85.356ZM85.7382 63.47C85.7864 63.3644 85.8105 63.2458 85.8105 63.1142V63.1105C85.8105 63.0512 85.8031 62.9753 85.7901 62.8845C85.7827 62.853 85.7679 62.8215 85.7475 62.7918C85.7271 62.7603 85.7141 62.7418 85.7122 62.7381C85.6937 62.7121 85.6454 62.6714 85.5675 62.6176L85.4655 62.5435C85.4655 62.6751 85.4729 62.8808 85.4896 63.1587L85.5137 63.774C85.6158 63.6776 85.69 63.5775 85.7382 63.4719V63.47Z" fill="white"/>
<path d="M86.5084 65.3173C86.4639 65.3044 86.4416 65.2673 86.4416 65.208V62.9454C86.4416 62.9009 86.4342 62.8342 86.4175 62.7471C86.3989 62.6674 86.3896 62.6007 86.3896 62.5488V62.5377C86.4342 62.4654 86.4657 62.4191 86.4861 62.3968C86.5232 62.3968 86.5715 62.3913 86.6308 62.382C86.6846 62.3709 86.7329 62.3672 86.7755 62.3672C86.8182 62.3672 86.8571 62.3802 86.8961 62.4042C86.9351 62.4283 86.9555 62.458 86.9555 62.4913C86.9555 62.5692 86.8961 62.6081 86.7755 62.6081H86.7217C86.7069 62.6062 86.6883 62.6044 86.6679 62.6044C86.6438 62.6044 86.6308 62.6044 86.6253 62.6081C86.6253 62.697 86.6308 62.8027 86.6401 62.9268L86.6475 63.0362L86.6549 63.2511C86.6549 63.3012 86.6512 63.3753 86.6438 63.4772L86.6364 63.6959L86.6902 63.6847C86.7421 63.6699 86.7848 63.6607 86.8182 63.6607C86.846 63.6607 86.872 63.6718 86.8961 63.694C86.9202 63.7163 86.9314 63.7422 86.9314 63.77C86.9314 63.8015 86.9221 63.8293 86.9017 63.8534C86.8813 63.8775 86.859 63.8904 86.8293 63.8904L86.7829 63.8867H86.7328C86.6939 63.8867 86.6661 63.896 86.6512 63.9145V65.1172L86.8701 65.1061C87.0185 65.1061 87.0927 65.1394 87.0927 65.208V65.2228C87.0779 65.2543 87.0482 65.2784 87.0074 65.2988C86.9666 65.3192 86.9258 65.3303 86.8868 65.3359L86.7588 65.3396H86.6382C86.5881 65.3396 86.5455 65.3322 86.5102 65.3211L86.5084 65.3173Z" fill="white"/>
<path d="M88.1405 64.5695C87.9587 63.9432 87.801 63.3687 87.6693 62.8443V64.1211C87.6693 64.2304 87.6804 64.4157 87.7008 64.677C87.7194 64.9624 87.7287 65.1459 87.7287 65.2293C87.7287 65.2533 87.7138 65.2719 87.686 65.2904C87.6582 65.3071 87.6248 65.3164 87.5877 65.3164C87.5339 65.3164 87.506 65.296 87.506 65.2533L87.5135 65.1403C87.519 65.0569 87.5209 65.0032 87.5209 64.9772C87.5209 64.8401 87.5135 64.6214 87.4968 64.3231C87.4819 64.0192 87.4727 63.8357 87.4727 63.7709V63.2724C87.4727 63.1927 87.4764 63.0722 87.4838 62.9147C87.4949 62.7776 87.4986 62.6571 87.4986 62.5571V62.533C87.4986 62.4033 87.5265 62.3384 87.584 62.3384C87.6174 62.3384 87.66 62.3958 87.712 62.5089C87.7973 62.696 87.9068 63.0315 88.0385 63.5133C88.1145 63.7931 88.2017 64.1544 88.3038 64.5955C88.3019 64.5844 88.3223 64.6752 88.3668 64.8642L88.3706 64.8827C88.3706 64.6307 88.3724 64.4046 88.378 64.2045L88.3854 63.5262V62.3736C88.3965 62.3087 88.4373 62.2754 88.5097 62.2754C88.582 62.2754 88.6154 62.3254 88.6154 62.4273V62.4514C88.6006 62.4829 88.5913 62.52 88.5913 62.5645C88.5913 62.722 88.5876 62.961 88.5802 63.2816C88.5728 63.6041 88.5691 63.845 88.5691 64.0062V65.194C88.5691 65.2348 88.5579 65.2756 88.5357 65.3126C88.5134 65.3497 88.4874 65.3682 88.4559 65.3682C88.4039 65.3682 88.2982 65.1014 88.1368 64.5658L88.1405 64.5695Z" fill="white"/>
<path d="M87.866 60.7114C87.8493 60.7114 87.8308 60.7022 87.8215 60.6855L86.3634 58.219L84.7234 60.6873C84.7086 60.7114 84.677 60.717 84.6529 60.7022C84.6288 60.6873 84.6232 60.6558 84.6381 60.6318L86.3226 58.0967C86.3318 58.0819 86.3485 58.0726 86.3671 58.0745C86.3838 58.0745 86.4005 58.0837 86.4097 58.0985L87.9106 60.6336C87.9254 60.6577 87.9161 60.6892 87.892 60.704C87.8846 60.7096 87.8753 60.7114 87.866 60.7114Z" fill="#161742"/>
<g style="mix-blend-mode:multiply" opacity="0.5">
<path d="M104.385 2.89258H11.1333V4.53444H104.385V2.89258Z" fill="#1D478E"/>
</g>
<path d="M105.779 0H9.73779V3.75256H105.779V0Z" fill="#161742"/>
<path d="M14.3462 38.8281H0.050293C0.050293 38.8281 6.57674 44.9267 14.3462 38.8281Z" fill="#32B353"/>
<path d="M115.443 38.8281H101.147C101.147 38.8281 107.674 44.9267 115.443 38.8281Z" fill="#32B353"/>
<path d="M25.2306 38.8281H14.3223C14.3223 38.8281 19.3015 44.9267 25.2306 38.8281Z" fill="#32B353"/>
<path d="M36.1408 38.8281H25.2324C25.2324 38.8281 30.2117 44.9267 36.1408 38.8281Z" fill="#32B353"/>
<path d="M46.1525 38.8281H35.2441C35.2441 38.8281 40.2234 44.9267 46.1525 38.8281Z" fill="#32B353"/>
<path d="M57.2858 38.8281H46.3774C46.3774 38.8281 51.3567 44.9267 57.2858 38.8281Z" fill="#32B353"/>
<path d="M68.9977 38.8281H58.0894C58.0894 38.8281 63.0686 44.9267 68.9977 38.8281Z" fill="#32B353"/>
<path d="M80.2247 38.8281H69.3164C69.3164 38.8281 74.2957 44.9267 80.2247 38.8281Z" fill="#32B353"/>
<path d="M90.6398 38.8281H79.7314C79.7314 38.8281 84.7107 44.9267 90.6398 38.8281Z" fill="#32B353"/>
<path d="M101.147 38.8281H90.2388C90.2388 38.8281 95.218 44.9267 101.147 38.8281Z" fill="#32B353"/>
<path d="M115.519 31.4023H0.050293V38.8296H115.519V31.4023Z" fill="#32B353"/>
<path d="M14.7448 15.0625H100.425L115.469 31.4033H0L14.7448 15.0625Z" fill="#4CCE6D"/>
<path d="M25.2305 39.0513C25.1081 39.0513 25.0098 38.9531 25.0098 38.8308V31.7945C25.0098 31.7593 25.019 31.7241 25.0339 31.6926L33.7012 14.9627C33.7568 14.8552 33.8904 14.8126 33.998 14.8682C34.1056 14.9238 34.1483 15.0572 34.0926 15.1647L25.4494 31.8483V38.8308C25.4494 38.9531 25.3511 39.0513 25.2287 39.0513H25.2305Z" fill="white"/>
<path d="M35.4932 39.6726C35.3708 39.6726 35.2725 39.5744 35.2725 39.4521V31.795C35.2725 31.7691 35.2762 31.7432 35.2854 31.7191L41.3629 14.9891C41.4038 14.8743 41.5318 14.815 41.6449 14.8576C41.7599 14.8983 41.8193 15.0262 41.7766 15.1392L35.7121 31.834V39.4521C35.7121 39.5744 35.6138 39.6726 35.4914 39.6726H35.4932Z" fill="white"/>
<path d="M46.1529 39.0504C46.0305 39.0504 45.9321 38.9522 45.9321 38.8299V31.7936C45.9321 31.7769 45.9321 31.7621 45.9377 31.7454L49.6239 15.0155C49.6499 14.8969 49.7686 14.8209 49.8873 14.8469C50.0061 14.8728 50.0821 14.9914 50.0561 15.11L46.3755 31.8177V38.8299C46.3755 38.9522 46.2772 39.0504 46.1547 39.0504H46.1529Z" fill="white"/>
<path d="M101.147 39.0501C101.025 39.0501 100.926 38.9519 100.926 38.8296V31.8267L88.9141 15.2321C88.8417 15.1338 88.864 14.9949 88.9641 14.9244C89.0625 14.854 89.2016 14.8744 89.2721 14.9745L101.327 31.6266C101.355 31.6636 101.37 31.71 101.37 31.7563V38.8315C101.37 38.9538 101.271 39.052 101.149 39.052L101.147 39.0501Z" fill="white"/>
<path d="M90.239 39.446C90.1165 39.446 90.0182 39.3478 90.0182 39.2255V31.8483L81.375 15.1647C81.3194 15.0572 81.362 14.9238 81.4696 14.8682C81.5772 14.8126 81.7108 14.8552 81.7665 14.9627L90.4338 31.6926C90.4505 31.7241 90.4579 31.7593 90.4579 31.7945V39.2255C90.4579 39.3478 90.3596 39.446 90.2371 39.446H90.239Z" fill="white"/>
<path d="M79.9761 39.3217C79.8537 39.3217 79.7553 39.2234 79.7553 39.1011V31.8332L73.6908 15.1385C73.65 15.0236 73.7075 14.8976 73.8225 14.8568C73.9376 14.8161 74.0637 14.8735 74.1045 14.9884L80.182 31.7183C80.1913 31.7424 80.195 31.7684 80.195 31.7943V39.1011C80.195 39.2234 80.0967 39.3217 79.9743 39.3217H79.9761Z" fill="white"/>
<path d="M69.3162 39.0505C69.1938 39.0505 69.0955 38.9523 69.0955 38.83V31.8178L65.4148 15.1101C65.3889 14.9915 65.4631 14.8729 65.5837 14.847C65.7024 14.821 65.8211 14.8951 65.8471 15.0156L69.5333 31.7455C69.537 31.7603 69.5389 31.777 69.5389 31.7937V38.83C69.5389 38.9523 69.4405 39.0505 69.3181 39.0505H69.3162Z" fill="white"/>
<path d="M57.8086 39.0676C57.6862 39.0676 57.5879 38.9693 57.5879 38.847V15.0623C57.5879 14.94 57.6862 14.8418 57.8086 14.8418C57.9311 14.8418 58.0294 14.94 58.0294 15.0623V38.847C58.0294 38.9693 57.9311 39.0676 57.8086 39.0676Z" fill="white"/>
<path d="M14.3218 39.0699C14.1994 39.0699 14.1011 38.9717 14.1011 38.8494V31.7538C14.1011 31.7075 14.1159 31.663 14.1437 31.6241L26.1986 14.972C26.2691 14.8738 26.4082 14.8515 26.5065 14.922C26.6048 14.9942 26.6271 15.1314 26.5566 15.2296L14.5445 31.8242V38.8475C14.5445 38.9698 14.4461 39.068 14.3237 39.068L14.3218 39.0699Z" fill="white"/>
<path d="M104.384 15.9829H11.1331C10.6451 15.9829 10.25 15.5882 10.25 15.1008C10.25 14.6135 10.6451 14.2188 11.1331 14.2188H104.384C104.872 14.2188 105.268 14.6135 105.268 15.1008C105.268 15.5882 104.872 15.9829 104.384 15.9829Z" fill="#161742"/>
<path d="M104.612 87.1143C104.547 86.7548 104.449 86.399 104.337 86.0469L104.913 89.1731C104.82 88.4856 104.736 87.7962 104.612 87.1143Z" fill="#32B353"/>
<path d="M106.325 93.8863L105.482 89.3166C105.533 89.6761 105.584 90.0337 105.636 90.3876C105.557 89.9429 105.494 89.4963 105.434 89.0497L104.844 85.8494C104.627 85.1674 104.358 84.4947 104.149 83.8147C103.399 81.3926 102.6 78.9854 101.746 76.5968C101.414 75.6684 101.062 74.7196 100.418 73.9746C100.297 74.9827 100.381 75.85 100.386 76.2317C100.396 77.0378 100.427 77.8439 100.483 78.6482C100.568 79.9064 100.754 81.1517 100.93 82.3989C101.101 83.6071 101.062 84.8598 101.191 86.0884C101.177 86.0514 101.16 86.0162 101.145 85.9809L103.221 93.4175C103.471 93.4879 103.737 93.5268 103.993 93.562C104.77 93.6695 105.547 93.7789 106.325 93.8863Z" fill="#32B353"/>
<path d="M104.462 94.8656C104.401 94.8656 104.349 94.8193 104.343 94.7582C104.052 91.6134 103.336 88.4761 102.644 85.4407C101.98 82.5276 101.291 79.5163 100.978 76.4957C100.97 76.4308 101.019 76.3715 101.084 76.366C101.148 76.3586 101.208 76.4068 101.213 76.4716C101.525 79.4774 102.211 82.4831 102.874 85.3888C103.568 88.4316 104.286 91.5782 104.579 94.7378C104.584 94.8026 104.536 94.8601 104.471 94.8675C104.467 94.8675 104.464 94.8675 104.46 94.8675L104.462 94.8656Z" fill="#161742"/>
<path d="M97.9043 81.9688C99.1157 84.2407 100.125 86.6201 100.919 89.0699C101.129 89.7148 101.32 90.3671 101.561 91.0008C101.763 91.5382 102.359 92.3258 102.342 92.8577C102.385 92.891 102.433 92.9244 102.481 92.9577C102.527 92.9892 102.572 93.0226 102.615 93.0578C102.824 93.2357 103.075 93.345 103.34 93.4191L101.264 85.9826C100.579 84.35 99.394 82.9305 97.9062 81.9706L97.9043 81.9688Z" fill="#32B353"/>
<path d="M102.141 91.354C102.093 91.354 102.046 91.3243 102.03 91.2743L99.8165 85.0534C99.7942 84.9922 99.8276 84.9237 99.8888 84.9014C99.9501 84.8792 100.019 84.9126 100.041 84.9737L102.254 91.1946C102.276 91.2558 102.243 91.3243 102.182 91.3466C102.169 91.3521 102.156 91.354 102.143 91.354H102.141Z" fill="#161742"/>
<path d="M110.283 91.0322L110.697 88.6621C110.511 89.4441 110.374 90.2354 110.283 91.0322Z" fill="#32B353"/>
<path d="M110.416 67.4258C108.149 74.1563 107.128 81.3038 107.421 88.3993C107.397 88.1399 107.371 87.8786 107.347 87.6192L107.757 94.1662C108.104 94.2144 108.451 94.2626 108.796 94.3108C109.104 94.3534 109.425 94.3923 109.746 94.4127L110.312 91.166C110.562 87.2615 111.221 83.3904 111.519 79.4859C111.829 75.4331 111.733 71.2728 110.416 67.4258Z" fill="#32B353"/>
<path d="M107.877 98.0104C107.864 98.0104 107.853 98.0086 107.84 98.0049C107.777 97.9845 107.744 97.9178 107.764 97.8548C108.566 95.366 108.723 92.7105 108.876 90.1439L109.974 71.635C109.977 71.5702 110.035 71.5183 110.1 71.5238C110.165 71.5276 110.215 71.5832 110.211 71.6499L109.113 90.1588C108.959 92.7402 108.801 95.4105 107.991 97.9289C107.974 97.9789 107.928 98.0104 107.877 98.0104Z" fill="#161742"/>
<path d="M107.595 87.6191C106.868 80.051 105.991 72.3976 103.132 65.3613C102.568 67.2033 102.75 69.1806 102.95 71.0967C103.564 76.9878 104.308 83.3921 105.148 89.3165L105.991 93.8863C106.662 93.979 107.334 94.0735 108.007 94.1661L107.597 87.6191H107.595Z" fill="#32B353"/>
<path d="M108.619 100.572C108.584 100.572 108.551 100.557 108.526 100.53C107.708 99.5345 107.514 98.1557 107.356 97.0494L103.447 69.5585C103.438 69.4936 103.482 69.4343 103.547 69.425C103.612 69.4158 103.671 69.4603 103.681 69.5251L107.59 97.0161C107.744 98.0946 107.933 99.4362 108.71 100.379C108.751 100.43 108.744 100.505 108.693 100.546C108.671 100.565 108.645 100.574 108.617 100.574L108.619 100.572Z" fill="#161742"/>
<path d="M112.365 89.3026C112.402 89.147 112.438 88.9913 112.475 88.8356L110.562 94.2671C110.818 94.1819 111.059 94.0596 111.276 93.8817C111.66 93.5666 111.913 93.1219 112.152 92.6864C113.614 90.0309 114.981 87.3235 116.254 84.5735C116.714 83.5765 117.17 82.5425 117.213 81.4473C115.035 83.658 113.363 86.3673 112.367 89.3063L112.365 89.3026Z" fill="#32B353"/>
<path d="M111.262 94.6336C111.249 94.6336 111.234 94.6318 111.221 94.6262C111.159 94.604 111.128 94.5354 111.15 94.4742C112.486 90.8255 114.035 87.2063 115.749 83.7188C115.779 83.6595 115.849 83.6354 115.909 83.665C115.968 83.6947 115.992 83.7651 115.962 83.8244C114.25 87.3046 112.707 90.9163 111.373 94.5576C111.356 94.6058 111.31 94.6355 111.262 94.6355V94.6336Z" fill="#161742"/>
<path d="M114.523 80.994C113.476 81.4536 112.788 82.4654 112.245 83.4698C111.384 85.0598 110.736 86.7646 110.319 88.5232L109.896 90.9508C109.872 91.1713 109.848 91.3937 109.831 91.6161C109.84 91.466 109.85 91.3159 109.859 91.1639L109.293 94.4106C109.811 94.4421 110.326 94.418 110.79 94.2642L112.703 88.8327C113.309 86.2198 113.918 83.6051 114.525 80.9922L114.523 80.994Z" fill="#32B353"/>
<path d="M110.545 93.6205C110.545 93.6205 110.534 93.6205 110.529 93.6205C110.464 93.6113 110.419 93.552 110.427 93.4871C110.92 89.905 111.874 86.3952 113.259 83.0559C113.285 82.9948 113.354 82.967 113.415 82.9911C113.476 83.017 113.504 83.0856 113.48 83.1467C112.102 86.4675 111.154 89.9588 110.662 93.5205C110.655 93.5798 110.603 93.6224 110.545 93.6224V93.6205Z" fill="#161742"/>
<path d="M114.269 91.428L113.883 97.169L113.816 98.1474L113.502 102.814H100.737L100.487 97.8972L100.446 97.0911L100.14 91.1074L114.269 91.428Z" fill="#FFD325"/>
<g style="mix-blend-mode:multiply" opacity="0.5">
<path d="M113.882 97.1696L113.815 98.1481L100.486 97.8979L100.445 97.0918L113.882 97.1696Z" fill="#AF8E2F"/>
</g>
<g style="mix-blend-mode:multiply" opacity="0.5">
<path d="M113.968 95.9077L114.033 94.9274L100.331 94.8496L100.371 95.6539L113.968 95.9077Z" fill="#AF8E2F"/>
</g>
<g style="mix-blend-mode:multiply">
<path d="M114.269 91.428L114.191 92.5918L101.104 92.2916L100.696 102.037L100.14 91.1074L114.269 91.428Z" fill="#FFD325"/>
</g>
<path d="M61.5875 85.9494L61.6331 85.9773V86.0529L61.6793 85.9784C62.3166 84.9517 63.4842 84.202 65.2529 83.6951L65.2529 83.695C65.6623 83.5766 66.0866 83.473 66.4967 83.3729L66.4967 83.3729C67.4887 83.1302 68.5194 82.8776 69.4463 82.4035C71.5394 81.3339 72.9768 79.1301 73.1071 76.7844L73.1085 76.7594L73.0835 76.758L73.0149 76.7543L72.99 76.753L72.9886 76.7779C72.8592 79.0817 71.447 81.2475 69.392 82.2978L69.392 82.2979C68.4828 82.763 67.4668 83.0124 66.4817 83.2543L66.4682 83.2576C66.0582 83.3577 65.6329 83.4634 65.2206 83.5803L65.2205 83.5803C63.4291 84.0945 62.2351 84.8587 61.5793 85.9149L61.5661 85.9363L61.5875 85.9494Z" fill="#161742" stroke="black" stroke-width="0.05"/>
<path d="M73.7632 77.2187C73.7947 76.774 73.7632 76.3033 73.5183 75.9308C73.2734 75.5583 72.7633 75.3323 72.3644 75.5305C71.9711 75.7251 71.8375 76.2236 71.858 76.6609C71.8802 77.1613 72.1455 78.2157 72.6872 78.4307C73.3922 78.7105 73.7261 77.745 73.7632 77.2187Z" fill="#32B353"/>
<path d="M71.2607 79.8196C71.283 79.3878 71.1605 78.9283 70.8396 78.6392C70.5187 78.3501 69.9751 78.2964 69.6597 78.591C69.4519 78.7856 69.3759 79.0876 69.3833 79.3712C69.3963 79.9456 69.7488 80.4849 70.2367 80.7758C71.0529 81.2632 71.2218 80.5775 71.2607 79.8178V79.8196Z" fill="#32B353"/>
<path d="M71.555 82.171C71.9928 82.3081 72.3824 82.7158 72.3379 83.1717C72.3026 83.5349 71.9891 83.8351 71.6311 83.9148C71.273 83.9945 70.8927 83.8722 70.6033 83.6516C69.3919 82.7251 70.3176 81.7874 71.555 82.1729V82.171Z" fill="#32B353"/>
<path d="M74.6162 78.7175C74.9668 78.7379 75.3824 78.8972 75.4288 79.2456C75.4566 79.455 75.3249 79.6626 75.1468 79.7775C74.9687 79.8924 74.7516 79.9294 74.5401 79.9442C73.9725 79.985 73.3862 79.8831 72.8687 79.644C73.2842 78.938 73.735 78.6637 74.6162 78.7175Z" fill="#32B353"/>
<path d="M65.9061 82.7951C66.0823 82.619 66.2437 82.4226 66.3309 82.1891C66.4181 81.9556 66.42 81.6813 66.2901 81.4701C66.086 81.1402 65.5907 81.0661 65.2586 81.2681C64.9266 81.4701 64.7615 81.8815 64.7837 82.2706C64.8338 83.1601 65.2846 83.4214 65.908 82.7951H65.9061Z" fill="#32B353"/>
<path d="M68.7464 83.7048C69.0507 83.9105 69.3067 84.2163 69.3716 84.5776C69.4365 84.939 69.2696 85.3522 68.9319 85.5005C68.6054 85.645 68.2028 85.5079 67.9598 85.2447C67.7168 84.9834 67.6073 84.6239 67.5591 84.27C67.4237 83.2878 67.9914 83.1952 68.7464 83.7048Z" fill="#32B353"/>
<path d="M72.7999 78.3801C72.9965 77.8131 73.0318 77.1793 72.9001 76.5938L72.8333 76.6086C72.9631 77.1812 72.9298 77.802 72.7368 78.3579L72.8017 78.3801H72.7999Z" fill="#161742"/>
<path d="M74.0897 79.4285L72.1958 79.7207L72.2063 79.7885L74.1002 79.4963L74.0897 79.4285Z" fill="#161742"/>
<path d="M70.8618 81.2863L70.9305 81.2788C70.8655 80.6469 70.6967 80.0354 70.424 79.4609L70.3628 79.4906C70.6318 80.0576 70.7988 80.6618 70.8618 81.2863Z" fill="#161742"/>
<path d="M71.3997 83.1376L71.4145 83.0709C70.7652 82.9357 70.1419 82.6521 69.615 82.25L69.5742 82.3037C70.1104 82.7114 70.743 82.9987 71.4016 83.1376H71.3997Z" fill="#161742"/>
<path d="M65.7428 81.6276L65.1011 83.623L65.1664 83.644L65.8082 81.6486L65.7428 81.6276Z" fill="#161742"/>
<path d="M68.5317 84.8811L68.5929 84.8514C68.2683 84.1713 67.7822 83.569 67.1849 83.1113L67.144 83.1651C67.734 83.6172 68.2145 84.2102 68.5336 84.8811H68.5317Z" fill="#161742"/>
<path d="M60.8717 103.423C60.7716 103.423 60.6899 103.341 60.6899 103.241V90.375C60.6899 90.2749 60.7716 90.1934 60.8717 90.1934C60.9719 90.1934 61.0536 90.2749 61.0536 90.375V103.241C61.0536 103.341 60.9719 103.423 60.8717 103.423Z" fill="#161742"/>
<path d="M53.5625 85.9473V88.3619H54.4697L54.7331 89.5645L55.631 93.6748H65.1906L66.3538 88.3619H67.2591V85.9473H53.5625Z" fill="#FFD325"/>
<path d="M66.281 103.423C66.1809 103.423 66.0992 103.341 66.0992 103.241V90.5566H54.8236V103.241C54.8236 103.341 54.7419 103.423 54.6418 103.423C54.5416 103.423 54.46 103.341 54.46 103.241V90.375C54.46 90.2749 54.5416 90.1934 54.6418 90.1934H66.2792C66.3794 90.1934 66.461 90.2749 66.461 90.375V103.241C66.461 103.341 66.3794 103.423 66.2792 103.423H66.281Z" fill="#161742"/>
<g style="mix-blend-mode:multiply">
<path d="M54.4688 88.3613L54.7322 89.564L66.2008 88.3613H54.4688Z" fill="#FFD325"/>
</g>
<path d="M54.4325 81.3315C54.2766 80.7904 53.8685 80.3141 53.3324 80.1362C52.7981 79.9583 52.1506 80.1158 51.8019 80.5569C51.4531 80.9998 51.4698 81.7058 51.8798 82.0931C52.1265 82.3266 52.4697 82.4267 52.7981 82.5175C53.1524 82.6157 54.5178 83.1309 54.5178 83.1309C54.5178 83.1309 54.5178 81.6428 54.4325 81.3315Z" fill="#32B353"/>
<path d="M50.0322 89.1008C50.4793 89.4974 50.765 90.07 50.8114 90.6648C50.8373 90.9984 50.7872 91.3449 50.611 91.6303C50.4348 91.9138 50.1194 92.1233 49.7854 92.1177C49.2846 92.1084 48.5072 91.6507 48.305 91.1948C48.0379 90.5963 48.075 88.3633 48.075 88.3633C48.075 88.3633 49.5851 88.708 50.0322 89.1045V89.1008Z" fill="#32B353"/>
<path d="M57.7661 83.3631C57.831 83.037 57.792 82.6775 57.5917 82.4106C57.3913 82.1438 57.0073 82.0104 56.7068 82.1549C56.3098 82.3458 56.2448 82.9221 56.4582 83.3057C56.8496 84.0099 57.5713 84.3397 57.7661 83.3613V83.3631Z" fill="#32B353"/>
<path d="M50.6926 82.7271C50.6926 82.7271 49.9413 81.6041 49.5721 81.2891C49.2029 80.9759 48.4961 80.8147 47.9451 80.9852C47.216 81.2112 47.0955 81.8932 47.4869 82.349C48.2067 83.1848 50.6908 82.7252 50.6908 82.7252L50.6926 82.7271Z" fill="#32B353"/>
<path d="M53.4491 84.8696C53.6828 85.735 53.8628 86.7339 53.0038 87.2676C52.5363 87.5566 51.9334 87.5733 51.5086 87.2249C51.0689 86.8636 51.0652 86.2947 51.247 85.8295C51.4362 85.344 51.8073 84.8196 52.1857 84.4582C52.3935 84.26 52.6328 84.0858 52.8944 83.9634C52.9927 83.9171 53.2877 83.8801 53.4954 83.8356C53.5585 83.8226 53.6012 83.8912 53.5659 83.9449C53.3841 84.2192 53.3489 84.4916 53.4509 84.8696H53.4491Z" fill="#32B353"/>
<path d="M48.2288 95.4357C48.4644 96.2808 48.6406 97.2685 47.6184 97.7206C47.0953 97.9523 46.3792 97.7577 46.1454 97.2462C46.0118 96.9534 46.0452 96.6088 46.164 96.3086C46.3402 95.8657 46.6871 95.3876 47.0415 95.0596C47.2362 94.8779 47.4589 94.7204 47.7056 94.6092C47.8447 94.5462 48.3994 94.5018 48.4681 94.4258C48.1842 94.7353 48.11 95.0151 48.2269 95.4357H48.2288Z" fill="#32B353"/>
<path d="M45.4587 83.9519C44.9764 84.0205 44.431 84.2187 44.3326 84.7302C44.2677 85.0638 44.4384 85.3955 44.7129 85.5937C45.147 85.9069 45.7073 85.8717 46.2045 85.7346C46.5291 85.6456 47.594 84.6857 47.991 84.3207C48.0504 84.2651 48.0188 84.165 47.9372 84.1557C47.3732 84.0853 45.8112 83.9019 45.4587 83.9519Z" fill="#32B353"/>
<path d="M46.9779 98.236C46.6236 98.299 46.2303 98.4658 46.0986 98.8754C45.965 99.2923 46.1914 99.7852 46.5179 99.9817C46.8444 100.178 47.2321 100.137 47.5827 100.019C47.9074 99.9075 49.1503 98.666 49.1503 98.666C49.1503 98.666 47.3304 98.173 46.9798 98.236H46.9779Z" fill="#32B353"/>
<path d="M44.9761 89.1734C44.3769 89.3439 43.7331 89.6404 43.5791 90.276C43.4845 90.6614 43.6237 91.0765 43.9261 91.3341C44.4566 91.7863 45.2061 91.5899 45.6847 91.1673C45.9797 90.9061 46.7756 89.7182 47.1132 89.203C47.1781 89.103 47.1039 88.9714 46.9852 88.9788C46.4528 89.0066 45.3304 89.0752 44.9779 89.1734H44.9761Z" fill="#32B353"/>
<path d="M47.388 91.8709C47.3008 92.3045 47.1561 92.7437 46.8648 93.0773C46.5735 93.4108 46.1079 93.6202 45.6775 93.509C45.1321 93.3682 44.8149 92.7307 44.9076 92.1767C45.0022 91.6207 45.4233 91.1649 45.915 90.8887C46.1561 90.7535 47.1635 90.2476 47.4269 90.4051C47.6829 90.5589 47.4399 91.6096 47.388 91.8709Z" fill="#32B353"/>
<path d="M51.2229 95.1627C51.5624 95.4555 51.8741 95.8521 51.8462 96.3005C51.8091 96.9176 51.0819 97.3308 50.4808 97.1844C49.6182 96.9732 49.019 95.8002 49.2026 94.9533C49.4475 93.8247 50.6719 94.6902 51.2211 95.1646L51.2229 95.1627Z" fill="#32B353"/>
<path d="M50.7198 99.2096C51.1409 99.5488 51.1316 100.522 50.692 100.837C50.4193 101.031 49.7904 100.863 49.5974 100.588C49.4787 100.42 49.475 100.197 49.4768 99.9917C49.4787 99.7026 49.6401 98.6426 49.6401 98.6426C49.6401 98.6426 50.4916 99.0262 50.7198 99.2115V99.2096Z" fill="#32B353"/>
<path d="M61.975 81.4802C62.3423 81.4524 62.7393 81.5247 63.0027 81.7822C63.2662 82.0398 63.3329 82.5105 63.0714 82.7718C62.8228 83.0201 62.4146 82.9868 62.0714 82.9071C61.7579 82.8348 60.5354 82.5958 60.5539 82.177C60.5743 81.7545 61.6726 81.5043 61.9731 81.482L61.975 81.4802Z" fill="#32B353"/>
<path d="M59.1903 78.2825C58.925 78.1788 58.6171 78.1417 58.3555 78.2547C58.0939 78.3678 57.8973 78.6587 57.9585 78.9385C58.029 79.261 58.3741 79.4315 58.6783 79.5556C59.1718 79.7576 60.3331 80.56 60.2775 79.6538C60.2422 79.0683 59.7098 78.4901 59.1903 78.2825Z" fill="#32B353"/>
<path d="M63.1251 79.3361C63.281 79.4232 63.4275 79.5418 63.5054 79.7011C63.5834 79.8605 63.5815 80.0699 63.4665 80.207C63.2698 80.4387 62.9007 80.3553 62.615 80.2515C62.1846 80.0958 60.936 79.9217 61.5334 79.375C61.8989 79.0396 62.7337 79.0933 63.1251 79.3361Z" fill="#32B353"/>
<path d="M58.4688 82.6991C58.3037 82.94 58.4131 83.2902 58.6339 83.4811C58.8547 83.672 59.1533 83.7442 59.439 83.7998C59.7043 83.8536 59.9028 83.974 60.1588 83.9332C60.2126 83.4774 58.8231 82.1821 58.4688 82.6972V82.6991Z" fill="#32B353"/>
<path d="M60.6337 95.0657C60.3146 95.3325 59.8304 95.4345 59.4705 95.2251C59.1106 95.0157 58.9771 94.4579 59.2702 94.1595C59.5002 93.926 59.8713 93.9223 60.1959 93.9631C60.4909 94.0002 61.0604 93.8853 61.1624 94.2096C61.2366 94.4431 60.7933 94.9341 60.6337 95.0657Z" fill="#32B353"/>
<path d="M66.1807 85.4145C66.3736 85.459 66.5665 85.522 66.7187 85.6498C66.8689 85.7777 66.9673 85.9815 66.9227 86.1743C66.8467 86.4949 66.4441 86.6097 66.1157 86.5857C65.6965 86.5542 64.7578 86.2725 64.6761 85.761C64.5648 85.0754 65.7762 85.3218 66.1825 85.4163L66.1807 85.4145Z" fill="#32B353"/>
<path d="M64.7429 89.0167C64.947 89.2428 65.0936 89.5356 65.0787 89.8395C65.0657 90.1434 64.8617 90.4473 64.5649 90.5159C64.2736 90.5826 63.9601 90.4084 63.8117 90.149C63.6614 89.8895 63.6558 89.5689 63.7263 89.278C63.9174 88.5108 64.2068 88.4237 64.7429 89.0167Z" fill="#32B353"/>
<path d="M44.7468 86.0263C44.5205 86.1708 44.309 86.3524 44.1828 86.5878C44.0567 86.825 44.0289 87.127 44.1643 87.3587C44.3127 87.6126 44.6281 87.7349 44.923 87.72C45.218 87.7071 45.4944 87.5792 45.7523 87.4365C46.1326 87.2215 47.7652 86.1338 47.4609 85.6927C47.0379 85.0793 45.1846 85.7465 44.7487 86.0281L44.7468 86.0263Z" fill="#32B353"/>
<path d="M60.0922 90.9818C59.7824 90.9595 59.4651 90.9855 59.1813 91.1096C58.8974 91.2338 58.6507 91.4654 58.5598 91.7619C58.4689 92.0584 58.5542 92.4142 58.8028 92.5977C59.0681 92.7941 59.4336 92.7663 59.7564 92.6941C60.2072 92.594 61.3333 92.3049 61.5689 91.8546C61.8843 91.2523 60.4725 91.0096 60.0922 90.9818Z" fill="#32B353"/>
<path d="M63.2981 94.4053C63.4391 94.4275 63.5838 94.4553 63.7044 94.5332C63.825 94.611 63.9196 94.7444 63.9085 94.8871C63.8918 95.1336 63.5987 95.2596 63.3519 95.2688C62.9902 95.2818 62.2481 95.0724 62.1201 94.6647C61.9513 94.1199 62.9828 94.3608 63.2981 94.409V94.4053Z" fill="#32B353"/>
<path d="M59.8311 85.9454C59.7736 85.8806 59.7142 85.8231 59.6957 85.8083C55.9315 82.9415 53.2026 82.7692 51.5775 83.1305C50.175 83.4419 48.6408 84.7057 48.0824 86.0066C47.4646 87.4464 47.5128 89.8388 47.8727 91.3602C48.0211 91.9847 48.1955 92.6148 48.3644 93.2226C48.6482 94.2437 48.9432 95.2999 49.112 96.3599C49.4292 98.339 49.2381 100.012 48.5406 101.336C48.5146 101.386 48.5332 101.445 48.5833 101.471C48.5981 101.478 48.6148 101.482 48.6296 101.482C48.6667 101.482 48.7001 101.463 48.7187 101.428C49.4366 100.066 49.6351 98.3502 49.3105 96.3266C49.1379 95.2555 48.843 94.1936 48.5573 93.167C48.3885 92.561 48.2141 91.9328 48.0675 91.312C47.715 89.824 47.665 87.4854 48.266 86.0844C48.8003 84.8373 50.2733 83.6253 51.6202 83.327C54.6218 82.6598 57.8609 84.6686 59.5435 85.9454H59.8311Z" fill="#161742"/>
<path d="M61.168 85.9462C61.1605 85.8906 61.1494 85.8424 61.142 85.8276C60.0363 83.6446 60.0345 80.9317 61.1346 78.7468C61.4536 78.1131 62.1512 77.042 63.2402 76.9753C63.281 76.9734 63.3144 76.9364 63.3107 76.8956C63.3088 76.8548 63.2736 76.8178 63.2309 76.8252C62.0658 76.8974 61.3331 78.0186 60.9991 78.6801C59.8768 80.9076 59.8805 83.6724 61.0066 85.8962C61.0103 85.9036 61.0195 85.9221 61.0325 85.9462H61.168Z" fill="#161742"/>
<path d="M62.0123 85.9467C62.0531 85.741 62.1793 85.5539 62.3704 85.4112C62.6171 85.2277 62.9325 85.1499 63.2163 85.2036C63.7302 85.3018 64.1773 85.7799 64.3053 86.3655C64.4426 86.9974 64.2348 87.6219 64.0345 88.0352C63.823 88.4725 63.5317 88.8765 63.2516 89.2675C63.1941 89.349 63.1347 89.4306 63.0772 89.5121C62.426 90.4313 61.6543 91.6691 61.4706 93.0849C61.2833 94.534 61.8175 95.9294 62.8323 96.6392C62.8453 96.6484 62.8601 96.6522 62.875 96.6522C62.8991 96.6522 62.9232 96.641 62.9362 96.6207C62.9603 96.5873 62.951 96.5391 62.9176 96.515C61.9474 95.8368 61.4391 94.4988 61.619 93.1034C61.799 91.721 62.5577 90.5054 63.1978 89.5992C63.2553 89.5177 63.3128 89.4361 63.3722 89.3564C63.6579 88.9599 63.951 88.5503 64.168 88.1019C64.3777 87.6664 64.5984 87.0085 64.45 86.334C64.3072 85.6817 63.8211 85.1684 63.2423 85.0572C62.9195 84.9942 62.5578 85.0813 62.2776 85.2907C62.0476 85.463 61.8992 85.6928 61.8565 85.9467H62.0105H62.0123Z" fill="#161742"/>
<path d="M60.4134 80.3841C60.4134 80.3841 60.4226 80.3841 60.4264 80.3803C60.4375 80.3729 60.4412 80.3581 60.4338 80.3451C60.0869 79.7892 59.5971 79.3333 59.0146 79.0276C59.0016 79.022 58.9868 79.0276 58.9812 79.0387C58.9756 79.0517 58.9812 79.0665 58.9923 79.072C59.5656 79.3741 60.0498 79.8226 60.3911 80.3711C60.3967 80.3785 60.4041 80.3822 60.4134 80.3822V80.3841Z" fill="#161742"/>
<path d="M54.5376 83.2437C54.5376 83.2437 54.5432 83.2437 54.5469 83.2437C54.5599 83.2382 54.5655 83.2233 54.5599 83.2104C54.2686 82.4951 53.7882 81.8687 53.1704 81.4017C53.1593 81.3925 53.1426 81.3962 53.1351 81.4073C53.1259 81.4184 53.1296 81.4332 53.1407 81.4425C53.7511 81.9039 54.2241 82.5229 54.5135 83.2308C54.5172 83.24 54.5265 83.2456 54.5376 83.2456V83.2437Z" fill="#161742"/>
<path d="M51.8998 83.1557C51.9109 83.1557 51.9202 83.1483 51.9239 83.1391C51.9276 83.1261 51.9202 83.1113 51.9072 83.1076C51.3637 82.9334 50.8016 82.7425 50.258 82.559C49.7126 82.3737 49.1468 82.1829 48.6013 82.0068C48.5884 82.0031 48.5735 82.0105 48.5698 82.0235C48.5661 82.0365 48.5735 82.0513 48.5865 82.055C49.1338 82.231 49.6977 82.4219 50.2432 82.6072C50.7867 82.7907 51.3488 82.9816 51.8943 83.1576C51.8961 83.1576 51.8998 83.1576 51.9017 83.1576L51.8998 83.1557Z" fill="#161742"/>
<path d="M46.2677 84.7229C46.2677 84.7229 46.2733 84.7229 46.2752 84.7229C47.3289 84.3708 48.4253 84.2078 49.5365 84.2374C49.5495 84.2374 49.5607 84.2263 49.5625 84.2133C49.5625 84.1985 49.5514 84.1874 49.5384 84.1874C48.4234 84.1559 47.3196 84.3208 46.2603 84.6748C46.2473 84.6785 46.2399 84.6933 46.2436 84.7063C46.2473 84.7174 46.2566 84.7229 46.2677 84.7229Z" fill="#161742"/>
<path d="M45.7571 86.6685C45.7571 86.6685 45.7664 86.6685 45.772 86.6648C46.5678 86.1144 47.488 85.7179 48.4341 85.5177C48.4471 85.5159 48.4564 85.5011 48.4527 85.4881C48.4489 85.4751 48.4378 85.4659 48.423 85.4696C47.4694 85.6716 46.5437 86.07 45.7423 86.6241C45.7311 86.6315 45.7274 86.6482 45.7367 86.6593C45.7423 86.6667 45.7497 86.6704 45.7571 86.6704V86.6685Z" fill="#161742"/>
<path d="M49.6232 90.904C49.6232 90.904 49.6306 90.904 49.6343 90.9022C49.6473 90.8966 49.6529 90.8818 49.6473 90.8688C49.1409 89.7421 48.4934 88.6821 47.7217 87.7167C47.7124 87.7056 47.6975 87.7037 47.6864 87.713C47.6753 87.7222 47.6734 87.7371 47.6827 87.7482C48.4526 88.7099 49.0982 89.7662 49.6028 90.8892C49.6065 90.8985 49.6158 90.904 49.625 90.904H49.6232Z" fill="#161742"/>
<path d="M44.5605 90.6095C44.5605 90.6095 44.5716 90.6095 44.5753 90.604C45.5289 89.9091 46.5696 89.3365 47.6697 88.9028C47.6827 88.8973 47.6883 88.8824 47.6846 88.8695C47.679 88.8565 47.6642 88.8509 47.6512 88.8546C46.5474 89.2901 45.5029 89.8627 44.5457 90.5614C44.5345 90.5688 44.5327 90.5855 44.5401 90.5966C44.5457 90.604 44.5531 90.6077 44.5605 90.6077V90.6095Z" fill="#161742"/>
<path d="M45.6423 92.5449C45.6423 92.5449 45.659 92.5412 45.6627 92.5338C46.2397 91.6425 46.9409 90.8364 47.7442 90.1415C47.7554 90.1322 47.7554 90.1174 47.7461 90.1062C47.7368 90.0951 47.722 90.0951 47.7108 90.1044C46.902 90.803 46.1989 91.6128 45.6201 92.5079C45.6127 92.519 45.6164 92.5357 45.6275 92.5431C45.6312 92.5449 45.6368 92.5468 45.6405 92.5468L45.6423 92.5449Z" fill="#161742"/>
<path d="M50.3953 95.9784C50.3953 95.9784 50.4083 95.9765 50.412 95.9709C50.4231 95.9617 50.4231 95.945 50.412 95.9357L48.7423 94.1327C48.7331 94.1234 48.7164 94.1215 48.7071 94.1327C48.6959 94.1419 48.6959 94.1586 48.7071 94.1679L50.3767 95.9709C50.3767 95.9709 50.3879 95.9784 50.3953 95.9784Z" fill="#161742"/>
<path d="M47.0263 99.2257C47.0263 99.2257 47.03 99.2257 47.0319 99.2257L49.2989 98.629C49.3119 98.6253 49.3211 98.6123 49.3174 98.5975C49.3137 98.5845 49.3007 98.5752 49.2859 98.5789L47.0189 99.1756C47.0059 99.1794 46.9966 99.1923 47.0003 99.2071C47.004 99.2183 47.0133 99.2257 47.0245 99.2257H47.0263Z" fill="#161742"/>
<path d="M46.8886 96.6841C46.8997 96.6841 46.9108 96.6748 46.9127 96.6637C47.1056 95.6593 47.8032 94.7717 48.7326 94.3473C48.7456 94.3417 48.7511 94.3269 48.7456 94.3139C48.74 94.301 48.7252 94.2954 48.7122 94.301C47.766 94.7328 47.0592 95.6334 46.8626 96.6544C46.8607 96.6674 46.8682 96.6804 46.883 96.6841C46.883 96.6841 46.8867 96.6841 46.8886 96.6841Z" fill="#161742"/>
<path d="M50.1204 100.213C50.1204 100.213 50.126 100.213 50.1297 100.213C50.1427 100.209 50.1501 100.194 50.1445 100.181L49.434 98.2003C49.4284 98.1873 49.4154 98.1799 49.4025 98.1855C49.3895 98.191 49.382 98.204 49.3876 98.217L50.0981 100.198C50.1018 100.209 50.1111 100.215 50.1223 100.215L50.1204 100.213Z" fill="#161742"/>
<path d="M60.2334 82.5595C60.2334 82.5595 60.2445 82.5595 60.2482 82.5539C60.9216 82.0629 61.8306 81.9239 62.6209 82.1907C62.6339 82.1963 62.6488 82.1889 62.6525 82.1759C62.6562 82.1629 62.6506 82.1481 62.6376 82.1444C61.8325 81.872 60.9049 82.0128 60.2185 82.515C60.2074 82.5224 60.2055 82.5391 60.2129 82.5502C60.2185 82.5576 60.2259 82.5614 60.2334 82.5614V82.5595Z" fill="#161742"/>
<path d="M60.56 80.022C60.56 80.022 60.5674 80.022 60.5692 80.0202C61.289 79.7144 62.1072 79.631 62.8733 79.7867C62.8882 79.7904 62.9012 79.7811 62.903 79.7663C62.9049 79.7533 62.8975 79.7385 62.8826 79.7366C62.1072 79.581 61.2779 79.6644 60.5488 79.9738C60.5358 79.9794 60.5303 79.9942 60.5358 80.0072C60.5396 80.0164 60.5488 80.022 60.56 80.022Z" fill="#161742"/>
<path d="M66.2548 85.9642C66.2659 85.9642 66.2752 85.9568 66.2789 85.9456C66.2826 85.9327 66.2752 85.9179 66.2622 85.9141C65.6574 85.7344 64.741 85.5361 63.9859 85.5176C63.9729 85.5176 63.9618 85.5287 63.96 85.5417C63.96 85.5546 63.9711 85.5676 63.9841 85.5676C64.7336 85.5861 65.6444 85.7844 66.2474 85.9623C66.2492 85.9623 66.2529 85.9623 66.2548 85.9623V85.9642Z" fill="#161742"/>
<path d="M64.389 90.1963C64.389 90.1963 64.389 90.1963 64.3909 90.1963C64.4038 90.1963 64.415 90.1834 64.4131 90.1685C64.3797 89.8239 64.3055 89.4606 64.2332 89.1086C64.1608 88.7583 64.0885 88.3951 64.0532 88.0541C64.0532 88.0412 64.0402 88.0282 64.0254 88.0319C64.0124 88.0319 64.0013 88.0449 64.0031 88.0597C64.0365 88.4044 64.1107 88.7676 64.1831 89.1197C64.2536 89.4699 64.3278 89.8313 64.363 90.1741C64.363 90.1871 64.376 90.1963 64.389 90.1963Z" fill="#161742"/>
<path d="M59.5192 94.7135C59.5192 94.7135 59.5229 94.7135 59.5266 94.7135L61.5413 94.1631C61.5543 94.1594 61.5617 94.1464 61.558 94.1316C61.5543 94.1186 61.5413 94.1094 61.5265 94.1149L59.5118 94.6653C59.4988 94.669 59.4914 94.682 59.4951 94.6968C59.4988 94.7079 59.5081 94.7153 59.5192 94.7153V94.7135Z" fill="#161742"/>
<path d="M51.9759 86.6255C51.987 86.6255 51.9981 86.6181 52 86.6051C52.3339 84.9225 53.3134 83.7013 54.6213 83.3362C54.6343 83.3325 54.6417 83.3196 54.638 83.3047C54.6343 83.2918 54.6195 83.2844 54.6065 83.2881C53.28 83.6587 52.2857 84.8947 51.948 86.5959C51.9462 86.6088 51.9536 86.6237 51.9684 86.6255C51.9684 86.6255 51.9722 86.6255 51.974 86.6255H51.9759Z" fill="#161742"/>
<path d="M57.6303 84.6638C57.6303 84.6638 57.6359 84.6638 57.6378 84.6638C57.6508 84.6601 57.6582 84.6452 57.6545 84.6323L57.0868 82.7754C57.0831 82.7625 57.0682 82.7551 57.0552 82.7588C57.0423 82.7625 57.0348 82.7773 57.0386 82.7903L57.6062 84.6471C57.6099 84.6582 57.6192 84.6656 57.6303 84.6656V84.6638Z" fill="#161742"/>
<path d="M60.3614 84.1603C60.3614 84.1603 60.3744 84.1584 60.3799 84.1529C60.3892 84.1436 60.3892 84.1269 60.3799 84.1177C60.0887 83.8267 59.8234 83.684 59.5173 83.5173C59.393 83.4506 59.2668 83.382 59.124 83.2967C59.1129 83.2893 59.0962 83.293 59.0887 83.306C59.0813 83.3171 59.085 83.3338 59.098 83.3412C59.2409 83.4265 59.3689 83.495 59.4932 83.5617C59.7956 83.7248 60.0571 83.8675 60.3447 84.1529C60.3502 84.1584 60.3558 84.1603 60.3632 84.1603H60.3614Z" fill="#161742"/>
<path d="M63.5468 94.8656C63.5579 94.8656 63.569 94.8581 63.5709 94.847C63.5746 94.8341 63.5653 94.8192 63.5523 94.8174L61.5803 94.3597C61.5655 94.3578 61.5525 94.3652 61.5506 94.3782C61.5469 94.3912 61.5562 94.406 61.5692 94.4078L63.5412 94.8656C63.5412 94.8656 63.5449 94.8656 63.5468 94.8656Z" fill="#161742"/>
<path d="M59.8124 91.9369C59.8124 91.9369 59.8143 91.9369 59.8161 91.9369L61.9329 91.646C61.9458 91.6441 61.957 91.6311 61.9551 91.6182C61.9533 91.6033 61.9421 91.5941 61.9273 91.5959L59.8105 91.8869C59.7976 91.8887 59.7864 91.9017 59.7883 91.9147C59.7883 91.9276 59.8013 91.9369 59.8124 91.9369Z" fill="#161742"/>
<path d="M48.1395 102.897C47.8872 103.123 47.5458 103.308 47.2175 103.219C46.7704 103.099 46.5979 102.504 46.7741 102.078C46.9503 101.651 47.3622 101.37 47.774 101.16C48.3565 100.864 49.1376 100.156 49.0059 101.231C48.9279 101.863 48.6144 102.472 48.1395 102.897Z" fill="#32B353"/>
<path d="M64.2427 96.5857C64.3688 97.0119 64.0757 97.4974 63.6546 97.6382C63.2335 97.7809 62.7419 97.6049 62.458 97.262C61.2243 95.7795 63.8717 95.32 64.2427 96.5838V96.5857Z" fill="#32B353"/>
<path d="M64.8545 77.2129C65.2626 77.1035 65.7116 76.8534 65.7468 76.4327C65.7654 76.2066 65.6504 75.9824 65.476 75.836C65.3035 75.6896 65.079 75.6136 64.8545 75.5821C64.3425 75.5099 63.8045 75.6618 63.4056 75.9898C63.1496 76.2011 62.5281 76.896 62.2795 77.1758C62.2387 77.2221 62.2703 77.2963 62.3333 77.2963C62.8546 77.3 64.5057 77.3074 64.8564 77.2129H64.8545Z" fill="#32B353"/>
<path d="M47.5664 102.663C47.5664 102.663 47.5775 102.663 47.5812 102.658C48.3066 102.126 48.8483 101.36 49.108 100.501C49.1117 100.488 49.1043 100.473 49.0913 100.469C49.0765 100.467 49.0635 100.473 49.0598 100.486C48.8038 101.334 48.2676 102.092 47.5515 102.617C47.5404 102.624 47.5385 102.641 47.546 102.652C47.5515 102.659 47.5589 102.663 47.5664 102.663Z" fill="#161742"/>
<path d="M63.6429 97.1185C63.6541 97.1185 63.6634 97.113 63.6671 97.1019C63.6726 97.0889 63.6652 97.0741 63.6522 97.0704C63.0827 96.8647 62.5985 96.4662 62.2868 95.9474C62.2794 95.9362 62.2646 95.9325 62.2516 95.9381C62.2404 95.9455 62.2367 95.9603 62.2423 95.9733C62.5595 96.5014 63.053 96.9073 63.6337 97.1167C63.6374 97.1167 63.6392 97.1167 63.6429 97.1167V97.1185Z" fill="#161742"/>
<path d="M62.1518 77.3531C62.1518 77.3531 62.1629 77.3531 62.1667 77.3475C62.8419 76.8416 63.6304 76.4654 64.4466 76.2579C64.4596 76.2542 64.4689 76.2412 64.4652 76.2264C64.4615 76.2134 64.4485 76.2041 64.4355 76.2079C63.6118 76.4173 62.8178 76.7971 62.137 77.3068C62.1258 77.3142 62.124 77.3308 62.1314 77.342C62.137 77.3475 62.1444 77.3512 62.1518 77.3512V77.3531Z" fill="#161742"/>
</svg>
