<svg width="128" height="180" viewBox="0 0 128 180" fill="none" xmlns="http://www.w3.org/2000/svg">
<g clip-path="url(#clip0_906_5272)">
<path d="M50.7718 147.398L50.888 147.157C34.802 139.59 31.9324 133.259 27.5897 123.676C26.0516 120.282 24.312 116.443 21.7424 111.983C28.2201 112.482 34.0112 114.348 38.9598 117.533C42.9704 120.114 46.441 123.562 49.2743 127.781C54.103 134.972 55.4218 142.005 55.4348 142.075L55.6988 142.026C55.6862 141.956 54.3602 134.877 49.5036 127.641C46.6502 123.39 43.154 119.915 39.1122 117.313C34.0601 114.06 28.1379 112.172 21.5102 111.699L21.2571 111.681L21.3837 111.899C24.0161 116.441 25.7846 120.343 27.3453 123.786C31.7122 133.423 34.5974 139.789 50.7724 147.398L50.7718 147.398Z" fill="#1D478E"/>
<path d="M52.03 144.029L52.2514 143.876C52.1388 143.715 40.9098 127.658 31.4042 119.955L31.2332 120.162C40.7107 127.842 51.9179 143.868 52.03 144.029Z" fill="#1D478E"/>
<path d="M38.3521 126.884L38.6007 126.782C38.5861 126.746 37.1612 123.217 37.7758 119.086L37.5104 119.049C36.8852 123.255 38.3374 126.849 38.3522 126.884L38.3521 126.884Z" fill="#1D478E"/>
<path d="M43.7122 133.119L43.8241 132.877C40.1723 131.235 36.3719 131.716 36.3341 131.721L36.3683 131.985C36.4054 131.98 40.1327 131.51 43.7122 133.119Z" fill="#1D478E"/>
<path d="M44.6968 158.303L44.6297 158.046C39.9066 159.284 35.0917 157.63 29.9105 152.987C25.3203 148.874 21.0502 143.028 16.9207 137.375C14.2436 133.71 11.7111 130.244 9.18721 127.365C23.5042 125.758 32.7449 134.035 32.8372 134.119L33.0198 133.923C32.9258 133.837 23.4909 125.381 8.90285 127.131L8.64934 127.161L8.81699 127.351C11.3886 130.258 13.97 133.792 16.7028 137.533C20.8402 143.197 25.1187 149.053 29.7298 153.185C34.9831 157.893 39.8789 159.567 44.6963 158.304L44.6968 158.303Z" fill="#1D478E"/>
<path d="M43.5484 151.767L43.7412 151.581C43.6012 151.438 29.6622 137.295 21.4005 134.74L21.319 134.994C24.7057 136.041 29.6209 139.272 35.5346 144.336C40.0093 148.168 43.5132 151.732 43.5484 151.767Z" fill="#1D478E"/>
<path d="M29.324 139.327L29.5549 139.189C29.5441 139.172 28.4779 137.381 26.4441 132.853L26.1989 132.963C28.2407 137.508 29.3133 139.309 29.324 139.327Z" fill="#1D478E"/>
<path d="M36.2936 144.969L36.3606 144.711C36.3171 144.7 31.9435 143.633 26.9651 144.295L26.9993 144.559C31.927 143.903 36.2506 144.959 36.2935 144.969L36.2936 144.969Z" fill="#1D478E"/>
<path d="M15 117.001C15.9269 117.45 16.5639 118.137 16.9986 119C17.4334 118.137 18.0731 117.447 19 116.999C18.0731 116.55 17.4334 115.863 16.9986 115C16.5639 115.863 15.9269 116.553 15 117.001Z" fill="#AF8E2F"/>
</g>
<path d="M74 158.625C74 179.06 57.4345 195.625 37 195.625C16.5655 195.625 0 179.06 0 158.625C0 138.19 16.5655 121.625 37 121.625C57.4345 121.625 74 138.19 74 158.625Z" fill="#5BC4F0" fill-opacity="0.1"/>
<g clip-path="url(#clip1_906_5272)">
<path d="M50.8769 169.001C60.5507 169.001 68.3929 166.182 68.3929 162.705C68.3929 159.229 60.5507 156.41 50.8769 156.41C41.203 156.41 33.3608 159.229 33.3608 162.705C33.3608 166.182 41.203 169.001 50.8769 169.001Z" fill="#5BC4F0" fill-opacity="0.3"/>
<path d="M83.9965 169.001C93.6703 169.001 101.513 166.182 101.513 162.705C101.513 159.229 93.6703 156.41 83.9965 156.41C74.3227 156.41 66.4805 159.229 66.4805 162.705C66.4805 166.182 74.3227 169.001 83.9965 169.001Z" fill="#5BC4F0" fill-opacity="0.3"/>
<path d="M113.516 168.59C123.19 168.59 131.032 165.772 131.032 162.295C131.032 158.818 123.19 156 113.516 156C103.842 156 96 158.818 96 162.295C96 165.772 103.842 168.59 113.516 168.59Z" fill="#5BC4F0" fill-opacity="0.3"/>
<path d="M73.0474 161.141C73.0474 163.803 76.379 166.09 81.1579 167.113V155.17C76.379 156.193 73.0474 158.479 73.0474 161.141Z" fill="#AF8E2F"/>
<path d="M84.8022 154.673V167.608C85.3876 167.647 85.9809 167.675 86.5823 167.679V154.605C85.9769 154.609 85.3836 154.637 84.8022 154.677V154.673Z" fill="#AF8E2F"/>
<path d="M100.462 158.471H73.0474V161.676H100.462V158.471Z" fill="#AF8E2F"/>
<path d="M100.462 161.141C100.462 158.979 98.2608 157.06 94.873 155.873V166.413C98.2608 165.222 100.462 163.307 100.462 161.145V161.141Z" fill="#AF8E2F"/>
<path d="M81.1621 155.169V167.112C82.3007 167.356 83.5275 167.52 84.8024 167.608V154.674C83.5235 154.762 82.3007 154.926 81.1621 155.169Z" fill="#D6B11E"/>
<path d="M86.7549 154.598C86.6988 154.598 86.6427 154.598 86.5825 154.598V167.672C86.6386 167.672 86.6948 167.672 86.7549 167.672C89.7939 167.672 92.6003 167.2 94.8735 166.401V155.861C92.6003 155.061 89.7939 154.59 86.7549 154.59V154.598Z" fill="#D6B11E"/>
<path d="M86.7547 165.738C94.325 165.738 100.462 162.809 100.462 159.195C100.462 155.582 94.325 152.652 86.7547 152.652C79.1843 152.652 73.0474 155.582 73.0474 159.195C73.0474 162.809 79.1843 165.738 86.7547 165.738Z" fill="#AF8E2F"/>
<path d="M86.7547 165.25C94.325 165.25 100.462 162.321 100.462 158.707C100.462 155.093 94.325 152.164 86.7547 152.164C79.1843 152.164 73.0474 155.093 73.0474 158.707C73.0474 162.321 79.1843 165.25 86.7547 165.25Z" fill="#FFD840"/>
<path d="M86.7549 163.744C92.7753 163.744 97.6558 161.489 97.6558 158.708C97.6558 155.927 92.7753 153.672 86.7549 153.672C80.7345 153.672 75.854 155.927 75.854 158.708C75.854 161.489 80.7345 163.744 86.7549 163.744Z" fill="#FFD325"/>
<path d="M83.6234 159.162L81.9155 158.259L83.2506 157.567L84.9585 158.471C85.7643 158.894 87.0874 158.894 87.9092 158.471C88.7311 158.043 88.7471 157.351 87.9413 156.928L86.1572 155.984L87.4923 155.293L89.2763 156.236C90.7998 157.044 90.7718 158.355 89.2162 159.162C87.6566 159.969 85.1509 159.969 83.6234 159.162Z" fill="#AF8E2F"/>
<path d="M90.074 160.313L83.9961 157.1L85.3311 156.408L91.405 159.622L90.074 160.313Z" fill="#AF8E2F"/>
<path d="M92.2312 159.194L86.1533 155.981L87.4884 155.289L93.5663 158.503L92.2312 159.194Z" fill="#AF8E2F"/>
<path d="M83.1864 162.125L83.7838 158.336L81.9236 158.264L81.4585 161.209L83.1864 162.125Z" fill="#AF8E2F"/>
<path d="M73.0474 157.089C73.0474 159.751 76.379 162.037 81.1579 163.06V151.117C76.379 152.14 73.0474 154.427 73.0474 157.089Z" fill="#AF8E2F"/>
<path d="M84.8022 150.621V163.555C85.3876 163.595 85.9809 163.623 86.5823 163.627V150.553C85.9769 150.557 85.3836 150.585 84.8022 150.625V150.621Z" fill="#AF8E2F"/>
<path d="M100.462 154.418H73.0474V157.624H100.462V154.418Z" fill="#AF8E2F"/>
<path d="M100.462 157.088C100.462 154.926 98.2608 153.007 94.873 151.82V162.36C98.2608 161.169 100.462 159.255 100.462 157.092V157.088Z" fill="#AF8E2F"/>
<path d="M81.1621 151.117V163.06C82.3007 163.303 83.5275 163.467 84.8024 163.555V150.621C83.5235 150.709 82.3007 150.873 81.1621 151.117Z" fill="#D6B11E"/>
<path d="M86.7549 150.545C86.6988 150.545 86.6427 150.545 86.5825 150.545V163.619C86.6386 163.619 86.6948 163.619 86.7549 163.619C89.7939 163.619 92.6003 163.147 94.8735 162.348V151.808C92.6003 151.009 89.7939 150.537 86.7549 150.537V150.545Z" fill="#D6B11E"/>
<path d="M86.7547 161.686C94.325 161.686 100.462 158.756 100.462 155.143C100.462 151.529 94.325 148.6 86.7547 148.6C79.1843 148.6 73.0474 151.529 73.0474 155.143C73.0474 158.756 79.1843 161.686 86.7547 161.686Z" fill="#AF8E2F"/>
<path d="M86.7547 161.197C94.325 161.197 100.462 158.268 100.462 154.654C100.462 151.041 94.325 148.111 86.7547 148.111C79.1843 148.111 73.0474 151.041 73.0474 154.654C73.0474 158.268 79.1843 161.197 86.7547 161.197Z" fill="#FFD840"/>
<path d="M86.7549 159.689C92.7753 159.689 97.6558 157.435 97.6558 154.653C97.6558 151.872 92.7753 149.617 86.7549 149.617C80.7345 149.617 75.854 151.872 75.854 154.653C75.854 157.435 80.7345 159.689 86.7549 159.689Z" fill="#FFD325"/>
<path d="M83.6234 155.109L81.9155 154.206L83.2506 153.514L84.9585 154.418C85.7643 154.841 87.0874 154.841 87.9092 154.418C88.7311 153.99 88.7471 153.299 87.9413 152.875L86.1572 151.932L87.4923 151.24L89.2763 152.184C90.7998 152.991 90.7718 154.302 89.2162 155.109C87.6566 155.917 85.1509 155.917 83.6234 155.109Z" fill="#AF8E2F"/>
<path d="M90.074 156.26L83.9961 153.047L85.3311 152.355L91.405 155.569L90.074 156.26Z" fill="#AF8E2F"/>
<path d="M92.2312 155.141L86.1533 151.928L87.4884 151.236L93.5663 154.45L92.2312 155.141Z" fill="#AF8E2F"/>
<path d="M83.1864 158.072L83.7838 154.283L81.9236 154.211L81.4585 157.157L83.1864 158.072Z" fill="#AF8E2F"/>
<path d="M73.0474 153.036C73.0474 155.698 76.379 157.984 81.1579 159.007V147.064C76.379 148.088 73.0474 150.374 73.0474 153.036Z" fill="#AF8E2F"/>
<path d="M84.8022 146.568V159.502C85.3876 159.542 85.9809 159.57 86.5823 159.574V146.5C85.9769 146.504 85.3836 146.532 84.8022 146.572V146.568Z" fill="#AF8E2F"/>
<path d="M100.462 150.365H73.0474V153.571H100.462V150.365Z" fill="#AF8E2F"/>
<path d="M100.462 153.036C100.462 150.873 98.2608 148.955 94.873 147.764V158.304C98.2608 157.113 100.462 155.198 100.462 153.036Z" fill="#AF8E2F"/>
<path d="M81.1621 147.064V159.007C82.3007 159.251 83.5275 159.415 84.8024 159.502V146.568C83.5235 146.656 82.3007 146.82 81.1621 147.064Z" fill="#D6B11E"/>
<path d="M86.7549 146.492C86.6988 146.492 86.6427 146.492 86.5825 146.492V159.566C86.6386 159.566 86.6948 159.566 86.7549 159.566C89.7939 159.566 92.6003 159.095 94.8735 158.295V147.755C92.6003 146.956 89.7939 146.484 86.7549 146.484V146.492Z" fill="#D6B11E"/>
<path d="M86.7547 157.633C94.325 157.633 100.462 154.703 100.462 151.09C100.462 147.476 94.325 144.547 86.7547 144.547C79.1843 144.547 73.0474 147.476 73.0474 151.09C73.0474 154.703 79.1843 157.633 86.7547 157.633Z" fill="#AF8E2F"/>
<path d="M86.7547 157.145C94.325 157.145 100.462 154.215 100.462 150.602C100.462 146.988 94.325 144.059 86.7547 144.059C79.1843 144.059 73.0474 146.988 73.0474 150.602C73.0474 154.215 79.1843 157.145 86.7547 157.145Z" fill="#FFD840"/>
<path d="M86.7549 155.639C92.7753 155.639 97.6558 153.384 97.6558 150.603C97.6558 147.821 92.7753 145.566 86.7549 145.566C80.7345 145.566 75.854 147.821 75.854 150.603C75.854 153.384 80.7345 155.639 86.7549 155.639Z" fill="#FFD325"/>
<path d="M83.6234 151.057L81.9155 150.153L83.2506 149.462L84.9585 150.365C85.7643 150.789 87.0874 150.789 87.9092 150.365C88.7311 149.937 88.7471 149.246 87.9413 148.822L86.1572 147.879L87.4923 147.188L89.2763 148.131C90.7998 148.938 90.7718 150.249 89.2162 151.057C87.6566 151.864 85.1509 151.864 83.6234 151.057Z" fill="#AF8E2F"/>
<path d="M90.074 152.208L83.9961 148.994L85.3311 148.303L91.405 151.516L90.074 152.208Z" fill="#AF8E2F"/>
<path d="M92.2312 151.089L86.1533 147.875L87.4884 147.184L93.5663 150.397L92.2312 151.089Z" fill="#AF8E2F"/>
<path d="M83.1864 154.019L83.7838 150.23L81.9236 150.158L81.4585 153.104L83.1864 154.019Z" fill="#AF8E2F"/>
<path d="M73.0474 148.983C73.0474 151.645 76.379 153.931 81.1579 154.955V143.012C76.379 144.035 73.0474 146.321 73.0474 148.983Z" fill="#AF8E2F"/>
<path d="M84.8022 142.515V155.449C85.3876 155.489 85.9809 155.517 86.5823 155.521V142.447C85.9769 142.451 85.3836 142.479 84.8022 142.519V142.515Z" fill="#AF8E2F"/>
<path d="M100.462 146.312H73.0474V149.518H100.462V146.312Z" fill="#AF8E2F"/>
<path d="M100.462 148.983C100.462 146.82 98.2608 144.902 94.873 143.715V154.255C98.2608 153.064 100.462 151.149 100.462 148.987V148.983Z" fill="#AF8E2F"/>
<path d="M81.1621 143.011V154.954C82.3007 155.198 83.5275 155.362 84.8024 155.45V142.516C83.5235 142.604 82.3007 142.767 81.1621 143.011Z" fill="#D6B11E"/>
<path d="M86.7549 142.44C86.6988 142.44 86.6427 142.44 86.5825 142.44V155.514C86.6386 155.514 86.6948 155.514 86.7549 155.514C89.7939 155.514 92.6003 155.042 94.8735 154.243V143.703C92.6003 142.903 89.7939 142.432 86.7549 142.432V142.44Z" fill="#D6B11E"/>
<path d="M86.7547 153.58C94.325 153.58 100.462 150.651 100.462 147.037C100.462 143.424 94.325 140.494 86.7547 140.494C79.1843 140.494 73.0474 143.424 73.0474 147.037C73.0474 150.651 79.1843 153.58 86.7547 153.58Z" fill="#AF8E2F"/>
<path d="M86.7547 153.092C94.325 153.092 100.462 150.162 100.462 146.549C100.462 142.935 94.325 140.006 86.7547 140.006C79.1843 140.006 73.0474 142.935 73.0474 146.549C73.0474 150.162 79.1843 153.092 86.7547 153.092Z" fill="#FFD840"/>
<path d="M86.7549 151.584C92.7753 151.584 97.6558 149.329 97.6558 146.548C97.6558 143.766 92.7753 141.512 86.7549 141.512C80.7345 141.512 75.854 143.766 75.854 146.548C75.854 149.329 80.7345 151.584 86.7549 151.584Z" fill="#FFD325"/>
<path d="M83.6234 147.004L81.9155 146.1L83.2506 145.409L84.9585 146.312C85.7643 146.736 87.0874 146.736 87.9092 146.312C88.7311 145.885 88.7471 145.193 87.9413 144.77L86.1572 143.826L87.4923 143.135L89.2763 144.078C90.7998 144.885 90.7718 146.196 89.2162 147.004C87.6566 147.811 85.1509 147.811 83.6234 147.004Z" fill="#AF8E2F"/>
<path d="M90.074 148.155L83.9961 144.941L85.3311 144.25L91.405 147.464L90.074 148.155Z" fill="#AF8E2F"/>
<path d="M92.2312 147.036L86.1533 143.822L87.4884 143.131L93.5663 146.344L92.2312 147.036Z" fill="#AF8E2F"/>
<path d="M83.1864 149.967L83.7838 146.173L81.9236 146.105L81.4585 149.051L83.1864 149.967Z" fill="#AF8E2F"/>
<path d="M73.0474 144.93C73.0474 147.592 76.379 149.879 81.1579 150.902V138.959C76.379 139.982 73.0474 142.268 73.0474 144.93Z" fill="#AF8E2F"/>
<path d="M84.8022 138.462V151.397C85.3876 151.437 85.9809 151.465 86.5823 151.469V138.395C85.9769 138.399 85.3836 138.427 84.8022 138.466V138.462Z" fill="#AF8E2F"/>
<path d="M100.462 142.26H73.0474V145.465H100.462V142.26Z" fill="#AF8E2F"/>
<path d="M100.462 144.93C100.462 142.768 98.2608 140.849 94.873 139.662V150.202C98.2608 149.011 100.462 147.096 100.462 144.934V144.93Z" fill="#AF8E2F"/>
<path d="M81.1621 138.959V150.901C82.3007 151.145 83.5275 151.309 84.8024 151.397V138.463C83.5235 138.551 82.3007 138.715 81.1621 138.959Z" fill="#D6B11E"/>
<path d="M86.7549 138.387C86.6988 138.387 86.6427 138.387 86.5825 138.387V151.461C86.6386 151.461 86.6948 151.461 86.7549 151.461C89.7939 151.461 92.6003 150.989 94.8735 150.19V139.65C92.6003 138.851 89.7939 138.379 86.7549 138.379V138.387Z" fill="#D6B11E"/>
<path d="M86.7547 149.527C94.325 149.527 100.462 146.598 100.462 142.984C100.462 139.371 94.325 136.441 86.7547 136.441C79.1843 136.441 73.0474 139.371 73.0474 142.984C73.0474 146.598 79.1843 149.527 86.7547 149.527Z" fill="#AF8E2F"/>
<path d="M86.7547 149.039C94.325 149.039 100.462 146.11 100.462 142.496C100.462 138.883 94.325 135.953 86.7547 135.953C79.1843 135.953 73.0474 138.883 73.0474 142.496C73.0474 146.11 79.1843 149.039 86.7547 149.039Z" fill="#FFD840"/>
<path d="M86.7549 147.533C92.7753 147.533 97.6558 145.278 97.6558 142.497C97.6558 139.716 92.7753 137.461 86.7549 137.461C80.7345 137.461 75.854 139.716 75.854 142.497C75.854 145.278 80.7345 147.533 86.7549 147.533Z" fill="#FFD325"/>
<path d="M83.6234 142.951L81.9155 142.048L83.2506 141.356L84.9585 142.26C85.7643 142.683 87.0874 142.683 87.9092 142.26C88.7311 141.836 88.7471 141.14 87.9413 140.717L86.1572 139.773L87.4923 139.082L89.2763 140.025C90.7998 140.833 90.7718 142.144 89.2162 142.951C87.6566 143.758 85.1509 143.758 83.6234 142.951Z" fill="#AF8E2F"/>
<path d="M90.074 144.102L83.9961 140.889L85.3311 140.197L91.405 143.411L90.074 144.102Z" fill="#AF8E2F"/>
<path d="M92.2312 142.983L86.1533 139.77L87.4884 139.078L93.5663 142.292L92.2312 142.983Z" fill="#AF8E2F"/>
<path d="M83.1864 145.91L83.7838 142.121L81.9236 142.053L81.4585 144.998L83.1864 145.91Z" fill="#AF8E2F"/>
<path d="M40.9463 161.141C40.9463 163.803 44.2779 166.09 49.0568 167.113V155.17C44.2779 156.193 40.9463 158.479 40.9463 161.141Z" fill="#AF8E2F"/>
<path d="M52.6973 154.673V167.608C53.2826 167.647 53.876 167.675 54.4773 167.679V154.605C53.872 154.609 53.2786 154.637 52.6973 154.677V154.673Z" fill="#AF8E2F"/>
<path d="M68.361 158.471H40.9463V161.676H68.361V158.471Z" fill="#AF8E2F"/>
<path d="M68.3607 161.141C68.3607 158.979 66.1597 157.06 62.772 155.873V166.413C66.1597 165.222 68.3607 163.307 68.3607 161.145V161.141Z" fill="#AF8E2F"/>
<path d="M49.0566 155.169V167.112C50.1952 167.356 51.422 167.52 52.697 167.608V154.674C51.418 154.762 50.1952 154.926 49.0566 155.169Z" fill="#D6B11E"/>
<path d="M54.6538 154.598C54.5977 154.598 54.5416 154.598 54.4814 154.598V167.672C54.5376 167.672 54.5937 167.672 54.6538 167.672C57.6928 167.672 60.4992 167.2 62.7724 166.401V155.861C60.4992 155.061 57.6928 154.59 54.6538 154.59V154.598Z" fill="#D6B11E"/>
<path d="M54.6536 165.738C62.224 165.738 68.361 162.809 68.361 159.195C68.361 155.582 62.224 152.652 54.6536 152.652C47.0833 152.652 40.9463 155.582 40.9463 159.195C40.9463 162.809 47.0833 165.738 54.6536 165.738Z" fill="#AF8E2F"/>
<path d="M54.6536 165.25C62.224 165.25 68.361 162.321 68.361 158.707C68.361 155.093 62.224 152.164 54.6536 152.164C47.0833 152.164 40.9463 155.093 40.9463 158.707C40.9463 162.321 47.0833 165.25 54.6536 165.25Z" fill="#FFD840"/>
<path d="M54.6538 163.744C60.6743 163.744 65.5548 161.489 65.5548 158.708C65.5548 155.927 60.6743 153.672 54.6538 153.672C48.6334 153.672 43.7529 155.927 43.7529 158.708C43.7529 161.489 48.6334 163.744 54.6538 163.744Z" fill="#FFD325"/>
<path d="M51.5185 159.162L49.8105 158.259L51.1456 157.567L52.8535 158.471C53.6593 158.894 54.9824 158.894 55.8042 158.471C56.6261 158.043 56.6422 157.351 55.8363 156.928L54.0522 155.984L55.3873 155.293L57.1714 156.236C58.6949 157.044 58.6668 158.355 57.1112 159.162C55.5517 159.969 53.0459 159.969 51.5185 159.162Z" fill="#AF8E2F"/>
<path d="M57.969 160.313L51.8911 157.1L53.2262 156.408L59.3041 159.622L57.969 160.313Z" fill="#AF8E2F"/>
<path d="M60.1301 159.194L54.0522 155.981L55.3873 155.289L61.4612 158.503L60.1301 159.194Z" fill="#AF8E2F"/>
<path d="M51.0854 162.125L51.6787 158.336L49.8185 158.264L49.3574 161.209L51.0854 162.125Z" fill="#AF8E2F"/>
<path d="M40.9463 157.089C40.9463 159.751 44.2779 162.037 49.0568 163.06V151.117C44.2779 152.14 40.9463 154.427 40.9463 157.089Z" fill="#AF8E2F"/>
<path d="M52.6973 150.621V163.555C53.2826 163.595 53.876 163.623 54.4773 163.627V150.553C53.872 150.557 53.2786 150.585 52.6973 150.625V150.621Z" fill="#AF8E2F"/>
<path d="M68.361 154.418H40.9463V157.624H68.361V154.418Z" fill="#AF8E2F"/>
<path d="M68.3607 157.088C68.3607 154.926 66.1597 153.007 62.772 151.82V162.36C66.1597 161.169 68.3607 159.255 68.3607 157.092V157.088Z" fill="#AF8E2F"/>
<path d="M49.0566 151.117V163.06C50.1952 163.303 51.422 163.467 52.697 163.555V150.621C51.418 150.709 50.1952 150.873 49.0566 151.117Z" fill="#D6B11E"/>
<path d="M54.6538 150.545C54.5977 150.545 54.5416 150.545 54.4814 150.545V163.619C54.5376 163.619 54.5937 163.619 54.6538 163.619C57.6928 163.619 60.4992 163.147 62.7724 162.348V151.808C60.4992 151.009 57.6928 150.537 54.6538 150.537V150.545Z" fill="#D6B11E"/>
<path d="M54.6536 161.686C62.224 161.686 68.361 158.756 68.361 155.143C68.361 151.529 62.224 148.6 54.6536 148.6C47.0833 148.6 40.9463 151.529 40.9463 155.143C40.9463 158.756 47.0833 161.686 54.6536 161.686Z" fill="#AF8E2F"/>
<path d="M54.6536 161.197C62.224 161.197 68.361 158.268 68.361 154.654C68.361 151.041 62.224 148.111 54.6536 148.111C47.0833 148.111 40.9463 151.041 40.9463 154.654C40.9463 158.268 47.0833 161.197 54.6536 161.197Z" fill="#FFD840"/>
<path d="M54.6538 159.689C60.6743 159.689 65.5548 157.435 65.5548 154.653C65.5548 151.872 60.6743 149.617 54.6538 149.617C48.6334 149.617 43.7529 151.872 43.7529 154.653C43.7529 157.435 48.6334 159.689 54.6538 159.689Z" fill="#FFD325"/>
<path d="M51.5185 155.109L49.8105 154.206L51.1456 153.514L52.8535 154.418C53.6593 154.841 54.9824 154.841 55.8042 154.418C56.6261 153.99 56.6422 153.299 55.8363 152.875L54.0522 151.932L55.3873 151.24L57.1714 152.184C58.6949 152.991 58.6668 154.302 57.1112 155.109C55.5517 155.917 53.0459 155.917 51.5185 155.109Z" fill="#AF8E2F"/>
<path d="M57.969 156.26L51.8911 153.047L53.2262 152.355L59.3041 155.569L57.969 156.26Z" fill="#AF8E2F"/>
<path d="M60.1301 155.141L54.0522 151.928L55.3873 151.236L61.4612 154.45L60.1301 155.141Z" fill="#AF8E2F"/>
<path d="M51.0854 158.072L51.6787 154.283L49.8185 154.211L49.3574 157.157L51.0854 158.072Z" fill="#AF8E2F"/>
<path d="M105.081 161.141C105.081 163.803 108.412 166.09 113.191 167.113V155.17C108.412 156.193 105.081 158.479 105.081 161.141Z" fill="#AF8E2F"/>
<path d="M116.835 154.673V167.608C117.421 167.647 118.014 167.675 118.616 167.679V154.605C118.01 154.609 117.417 154.637 116.835 154.677V154.673Z" fill="#AF8E2F"/>
<path d="M132.495 158.471H105.081V161.676H132.495V158.471Z" fill="#AF8E2F"/>
<path d="M132.499 161.141C132.499 158.979 130.298 157.06 126.911 155.873V166.413C130.298 165.222 132.499 163.307 132.499 161.145V161.141Z" fill="#AF8E2F"/>
<path d="M113.195 155.169V167.112C114.334 167.356 115.561 167.52 116.836 167.608V154.674C115.557 154.762 114.334 154.926 113.195 155.169Z" fill="#D6B11E"/>
<path d="M118.792 154.598C118.736 154.598 118.68 154.598 118.62 154.598V167.672C118.676 167.672 118.732 167.672 118.792 167.672C121.831 167.672 124.637 167.2 126.911 166.401V155.861C124.637 155.061 121.831 154.59 118.792 154.59V154.598Z" fill="#D6B11E"/>
<path d="M118.792 165.738C126.362 165.738 132.499 162.809 132.499 159.195C132.499 155.582 126.362 152.652 118.792 152.652C111.221 152.652 105.084 155.582 105.084 159.195C105.084 162.809 111.221 165.738 118.792 165.738Z" fill="#AF8E2F"/>
<path d="M118.792 165.25C126.362 165.25 132.499 162.321 132.499 158.707C132.499 155.093 126.362 152.164 118.792 152.164C111.221 152.164 105.084 155.093 105.084 158.707C105.084 162.321 111.221 165.25 118.792 165.25Z" fill="#FFD840"/>
<path d="M118.792 163.744C124.812 163.744 129.693 161.489 129.693 158.708C129.693 155.927 124.812 153.672 118.792 153.672C112.772 153.672 107.891 155.927 107.891 158.708C107.891 161.489 112.772 163.744 118.792 163.744Z" fill="#FFD325"/>
<path d="M115.657 159.162L113.949 158.259L115.284 157.567L116.992 158.471C117.798 158.894 119.121 158.894 119.942 158.471C120.764 158.043 120.78 157.351 119.975 156.928L118.19 155.984L119.525 155.293L121.31 156.236C122.833 157.044 122.805 158.355 121.249 159.162C119.694 159.969 117.184 159.969 115.657 159.162Z" fill="#AF8E2F"/>
<path d="M122.107 160.313L116.029 157.1L117.364 156.408L123.442 159.622L122.107 160.313Z" fill="#AF8E2F"/>
<path d="M124.264 159.194L118.187 155.981L119.522 155.289L125.599 158.503L124.264 159.194Z" fill="#AF8E2F"/>
<path d="M115.224 162.125L115.817 158.336L113.957 158.264L113.492 161.209L115.224 162.125Z" fill="#AF8E2F"/>
<path d="M105.081 157.089C105.081 159.751 108.412 162.037 113.191 163.06V151.117C108.412 152.14 105.081 154.427 105.081 157.089Z" fill="#AF8E2F"/>
<path d="M116.835 150.621V163.555C117.421 163.595 118.014 163.623 118.616 163.627V150.553C118.01 150.557 117.417 150.585 116.835 150.625V150.621Z" fill="#AF8E2F"/>
<path d="M132.495 154.418H105.081V157.624H132.495V154.418Z" fill="#AF8E2F"/>
<path d="M132.499 157.088C132.499 154.926 130.298 153.007 126.911 151.82V162.36C130.298 161.169 132.499 159.255 132.499 157.092V157.088Z" fill="#AF8E2F"/>
<path d="M113.195 151.117V163.06C114.334 163.303 115.561 163.467 116.836 163.555V150.621C115.557 150.709 114.334 150.873 113.195 151.117Z" fill="#D6B11E"/>
<path d="M118.792 150.545C118.736 150.545 118.68 150.545 118.62 150.545V163.619C118.676 163.619 118.732 163.619 118.792 163.619C121.831 163.619 124.637 163.147 126.911 162.348V151.808C124.637 151.009 121.831 150.537 118.792 150.537V150.545Z" fill="#D6B11E"/>
<path d="M118.792 161.686C126.362 161.686 132.499 158.756 132.499 155.143C132.499 151.529 126.362 148.6 118.792 148.6C111.221 148.6 105.084 151.529 105.084 155.143C105.084 158.756 111.221 161.686 118.792 161.686Z" fill="#AF8E2F"/>
<path d="M118.792 161.197C126.362 161.197 132.499 158.268 132.499 154.654C132.499 151.041 126.362 148.111 118.792 148.111C111.221 148.111 105.084 151.041 105.084 154.654C105.084 158.268 111.221 161.197 118.792 161.197Z" fill="#FFD840"/>
<path d="M118.792 159.689C124.812 159.689 129.693 157.435 129.693 154.653C129.693 151.872 124.812 149.617 118.792 149.617C112.772 149.617 107.891 151.872 107.891 154.653C107.891 157.435 112.772 159.689 118.792 159.689Z" fill="#FFD325"/>
<path d="M115.657 155.109L113.949 154.206L115.284 153.514L116.992 154.418C117.798 154.841 119.121 154.841 119.942 154.418C120.764 153.99 120.78 153.299 119.975 152.875L118.19 151.932L119.525 151.24L121.31 152.184C122.833 152.991 122.805 154.302 121.249 155.109C119.694 155.917 117.184 155.917 115.657 155.109Z" fill="#AF8E2F"/>
<path d="M122.107 156.26L116.029 153.047L117.364 152.355L123.442 155.569L122.107 156.26Z" fill="#AF8E2F"/>
<path d="M124.264 155.141L118.187 151.928L119.522 151.236L125.599 154.45L124.264 155.141Z" fill="#AF8E2F"/>
<path d="M115.224 158.072L115.817 154.283L113.957 154.211L113.492 157.157L115.224 158.072Z" fill="#AF8E2F"/>
<path d="M40.9463 153.036C40.9463 155.698 44.2779 157.984 49.0568 159.007V147.064C44.2779 148.088 40.9463 150.374 40.9463 153.036Z" fill="#AF8E2F"/>
<path d="M52.6973 146.568V159.502C53.2826 159.542 53.876 159.57 54.4773 159.574V146.5C53.872 146.504 53.2786 146.532 52.6973 146.572V146.568Z" fill="#AF8E2F"/>
<path d="M68.361 150.365H40.9463V153.571H68.361V150.365Z" fill="#AF8E2F"/>
<path d="M68.3607 153.036C68.3607 150.873 66.1597 148.955 62.772 147.764V158.304C66.1597 157.113 68.3607 155.198 68.3607 153.036Z" fill="#AF8E2F"/>
<path d="M49.0566 147.064V159.007C50.1952 159.251 51.422 159.415 52.697 159.502V146.568C51.418 146.656 50.1952 146.82 49.0566 147.064Z" fill="#D6B11E"/>
<path d="M54.6538 146.492C54.5977 146.492 54.5416 146.492 54.4814 146.492V159.566C54.5376 159.566 54.5937 159.566 54.6538 159.566C57.6928 159.566 60.4992 159.095 62.7724 158.295V147.755C60.4992 146.956 57.6928 146.484 54.6538 146.484V146.492Z" fill="#D6B11E"/>
<path d="M54.6536 157.633C62.224 157.633 68.361 154.703 68.361 151.09C68.361 147.476 62.224 144.547 54.6536 144.547C47.0833 144.547 40.9463 147.476 40.9463 151.09C40.9463 154.703 47.0833 157.633 54.6536 157.633Z" fill="#AF8E2F"/>
<path d="M54.6536 157.145C62.224 157.145 68.361 154.215 68.361 150.602C68.361 146.988 62.224 144.059 54.6536 144.059C47.0833 144.059 40.9463 146.988 40.9463 150.602C40.9463 154.215 47.0833 157.145 54.6536 157.145Z" fill="#FFD840"/>
<path d="M54.6538 155.639C60.6743 155.639 65.5548 153.384 65.5548 150.603C65.5548 147.821 60.6743 145.566 54.6538 145.566C48.6334 145.566 43.7529 147.821 43.7529 150.603C43.7529 153.384 48.6334 155.639 54.6538 155.639Z" fill="#FFD325"/>
<path d="M51.5185 151.057L49.8105 150.153L51.1456 149.462L52.8535 150.365C53.6593 150.789 54.9824 150.789 55.8042 150.365C56.6261 149.937 56.6422 149.246 55.8363 148.822L54.0522 147.879L55.3873 147.188L57.1714 148.131C58.6949 148.938 58.6668 150.249 57.1112 151.057C55.5517 151.864 53.0459 151.864 51.5185 151.057Z" fill="#AF8E2F"/>
<path d="M57.969 152.208L51.8911 148.994L53.2262 148.303L59.3041 151.516L57.969 152.208Z" fill="#AF8E2F"/>
<path d="M60.1301 151.089L54.0522 147.875L55.3873 147.184L61.4612 150.397L60.1301 151.089Z" fill="#AF8E2F"/>
<path d="M51.0854 154.019L51.6787 150.23L49.8185 150.158L49.3574 153.104L51.0854 154.019Z" fill="#AF8E2F"/>
<path d="M40.9463 148.983C40.9463 151.645 44.2779 153.931 49.0568 154.955V143.012C44.2779 144.035 40.9463 146.321 40.9463 148.983Z" fill="#AF8E2F"/>
<path d="M52.6973 142.515V155.449C53.2826 155.489 53.876 155.517 54.4773 155.521V142.447C53.872 142.451 53.2786 142.479 52.6973 142.519V142.515Z" fill="#AF8E2F"/>
<path d="M68.361 146.312H40.9463V149.518H68.361V146.312Z" fill="#AF8E2F"/>
<path d="M68.3607 148.983C68.3607 146.82 66.1597 144.902 62.772 143.715V154.255C66.1597 153.064 68.3607 151.149 68.3607 148.987V148.983Z" fill="#AF8E2F"/>
<path d="M49.0566 143.011V154.954C50.1952 155.198 51.422 155.362 52.697 155.45V142.516C51.418 142.604 50.1952 142.767 49.0566 143.011Z" fill="#D6B11E"/>
<path d="M54.6538 142.44C54.5977 142.44 54.5416 142.44 54.4814 142.44V155.514C54.5376 155.514 54.5937 155.514 54.6538 155.514C57.6928 155.514 60.4992 155.042 62.7724 154.243V143.703C60.4992 142.903 57.6928 142.432 54.6538 142.432V142.44Z" fill="#D6B11E"/>
<path d="M54.6536 153.58C62.224 153.58 68.361 150.651 68.361 147.037C68.361 143.424 62.224 140.494 54.6536 140.494C47.0833 140.494 40.9463 143.424 40.9463 147.037C40.9463 150.651 47.0833 153.58 54.6536 153.58Z" fill="#AF8E2F"/>
<path d="M54.6536 153.092C62.224 153.092 68.361 150.162 68.361 146.549C68.361 142.935 62.224 140.006 54.6536 140.006C47.0833 140.006 40.9463 142.935 40.9463 146.549C40.9463 150.162 47.0833 153.092 54.6536 153.092Z" fill="#FFD840"/>
<path d="M54.6538 151.584C60.6743 151.584 65.5548 149.329 65.5548 146.548C65.5548 143.766 60.6743 141.512 54.6538 141.512C48.6334 141.512 43.7529 143.766 43.7529 146.548C43.7529 149.329 48.6334 151.584 54.6538 151.584Z" fill="#FFD325"/>
<path d="M51.5185 147.004L49.8105 146.1L51.1456 145.409L52.8535 146.312C53.6593 146.736 54.9824 146.736 55.8042 146.312C56.6261 145.885 56.6422 145.193 55.8363 144.77L54.0522 143.826L55.3873 143.135L57.1714 144.078C58.6949 144.885 58.6668 146.196 57.1112 147.004C55.5517 147.811 53.0459 147.811 51.5185 147.004Z" fill="#AF8E2F"/>
<path d="M57.969 148.155L51.8911 144.941L53.2262 144.25L59.3041 147.464L57.969 148.155Z" fill="#AF8E2F"/>
<path d="M60.1301 147.036L54.0522 143.822L55.3873 143.131L61.4612 146.344L60.1301 147.036Z" fill="#AF8E2F"/>
<path d="M51.0854 149.967L51.6787 146.173L49.8185 146.105L49.3574 149.051L51.0854 149.967Z" fill="#AF8E2F"/>
<path d="M40.9463 144.93C40.9463 147.592 44.2779 149.879 49.0568 150.902V138.959C44.2779 139.982 40.9463 142.268 40.9463 144.93Z" fill="#AF8E2F"/>
<path d="M52.6973 138.462V151.397C53.2826 151.437 53.876 151.465 54.4773 151.469V138.395C53.872 138.399 53.2786 138.427 52.6973 138.466V138.462Z" fill="#AF8E2F"/>
<path d="M68.361 142.26H40.9463V145.465H68.361V142.26Z" fill="#AF8E2F"/>
<path d="M68.3607 144.93C68.3607 142.768 66.1597 140.849 62.772 139.662V150.202C66.1597 149.011 68.3607 147.096 68.3607 144.934V144.93Z" fill="#AF8E2F"/>
<path d="M49.0566 138.959V150.901C50.1952 151.145 51.422 151.309 52.697 151.397V138.463C51.418 138.551 50.1952 138.715 49.0566 138.959Z" fill="#D6B11E"/>
<path d="M54.6538 138.387C54.5977 138.387 54.5416 138.387 54.4814 138.387V151.461C54.5376 151.461 54.5937 151.461 54.6538 151.461C57.6928 151.461 60.4992 150.989 62.7724 150.19V139.65C60.4992 138.851 57.6928 138.379 54.6538 138.379V138.387Z" fill="#D6B11E"/>
<path d="M54.6536 149.527C62.224 149.527 68.361 146.598 68.361 142.984C68.361 139.371 62.224 136.441 54.6536 136.441C47.0833 136.441 40.9463 139.371 40.9463 142.984C40.9463 146.598 47.0833 149.527 54.6536 149.527Z" fill="#AF8E2F"/>
<path d="M54.6536 149.039C62.224 149.039 68.361 146.11 68.361 142.496C68.361 138.883 62.224 135.953 54.6536 135.953C47.0833 135.953 40.9463 138.883 40.9463 142.496C40.9463 146.11 47.0833 149.039 54.6536 149.039Z" fill="#FFD840"/>
<path d="M54.6538 147.533C60.6743 147.533 65.5548 145.278 65.5548 142.497C65.5548 139.716 60.6743 137.461 54.6538 137.461C48.6334 137.461 43.7529 139.716 43.7529 142.497C43.7529 145.278 48.6334 147.533 54.6538 147.533Z" fill="#FFD325"/>
<path d="M51.5185 142.951L49.8105 142.048L51.1456 141.356L52.8535 142.26C53.6593 142.683 54.9824 142.683 55.8042 142.26C56.6261 141.832 56.6422 141.14 55.8363 140.717L54.0522 139.773L55.3873 139.082L57.1714 140.025C58.6949 140.833 58.6668 142.144 57.1112 142.951C55.5517 143.758 53.0459 143.758 51.5185 142.951Z" fill="#AF8E2F"/>
<path d="M57.969 144.102L51.8911 140.889L53.2262 140.197L59.3041 143.411L57.969 144.102Z" fill="#AF8E2F"/>
<path d="M60.1301 142.983L54.0522 139.77L55.3873 139.078L61.4612 142.292L60.1301 142.983Z" fill="#AF8E2F"/>
<path d="M51.0854 145.91L51.6787 142.121L49.8185 142.053L49.3574 144.998L51.0854 145.91Z" fill="#AF8E2F"/>
<path d="M73.0474 140.878C73.0474 143.54 76.379 145.826 81.1579 146.849V134.906C76.379 135.929 73.0474 138.216 73.0474 140.878Z" fill="#AF8E2F"/>
<path d="M84.8022 134.41V147.344C85.3876 147.384 85.9809 147.412 86.5823 147.416V134.342C85.9769 134.346 85.3836 134.374 84.8022 134.414V134.41Z" fill="#AF8E2F"/>
<path d="M100.462 138.207H73.0474V141.413H100.462V138.207Z" fill="#AF8E2F"/>
<path d="M100.462 140.877C100.462 138.715 98.2608 136.796 94.873 135.609V146.149C98.2608 144.958 100.462 143.044 100.462 140.877Z" fill="#AF8E2F"/>
<path d="M81.1621 134.906V146.849C82.3007 147.092 83.5275 147.256 84.8024 147.344V134.41C83.5235 134.498 82.3007 134.662 81.1621 134.906Z" fill="#D6B11E"/>
<path d="M86.7549 134.334C86.6988 134.334 86.6427 134.334 86.5825 134.334V147.408C86.6386 147.408 86.6948 147.408 86.7549 147.408C89.7939 147.408 92.6003 146.937 94.8735 146.137V135.597C92.6003 134.798 89.7939 134.326 86.7549 134.326V134.334Z" fill="#D6B11E"/>
<path d="M86.7547 145.475C94.325 145.475 100.462 142.545 100.462 138.932C100.462 135.318 94.325 132.389 86.7547 132.389C79.1843 132.389 73.0474 135.318 73.0474 138.932C73.0474 142.545 79.1843 145.475 86.7547 145.475Z" fill="#AF8E2F"/>
<path d="M86.7547 144.986C94.325 144.986 100.462 142.057 100.462 138.443C100.462 134.83 94.325 131.9 86.7547 131.9C79.1843 131.9 73.0474 134.83 73.0474 138.443C73.0474 142.057 79.1843 144.986 86.7547 144.986Z" fill="#FFD840"/>
<path d="M86.7549 143.479C92.7753 143.479 97.6558 141.224 97.6558 138.442C97.6558 135.661 92.7753 133.406 86.7549 133.406C80.7345 133.406 75.854 135.661 75.854 138.442C75.854 141.224 80.7345 143.479 86.7549 143.479Z" fill="#FFD325"/>
<path d="M83.6234 138.898L81.9155 137.995L83.2506 137.304L84.9585 138.207C85.7643 138.631 87.0874 138.631 87.9092 138.207C88.7311 137.779 88.7471 137.088 87.9413 136.664L86.1572 135.721L87.4923 135.029L89.2763 135.973C90.7998 136.78 90.7718 138.091 89.2162 138.898C87.6566 139.706 85.1509 139.706 83.6234 138.898Z" fill="#AF8E2F"/>
<path d="M90.074 140.05L83.9961 136.836L85.3311 136.145L91.405 139.358L90.074 140.05Z" fill="#AF8E2F"/>
<path d="M92.2312 138.93L86.1533 135.717L87.4884 135.025L93.5663 138.239L92.2312 138.93Z" fill="#AF8E2F"/>
<path d="M83.1864 141.857L83.7838 138.068L81.9236 138L81.4585 140.946L83.1864 141.857Z" fill="#AF8E2F"/>
<path d="M73.0474 136.825C73.0474 139.487 76.379 141.773 81.1579 142.796V130.854C76.379 131.877 73.0474 134.163 73.0474 136.825Z" fill="#AF8E2F"/>
<path d="M84.8022 130.357V143.291C85.3876 143.331 85.9809 143.359 86.5823 143.363V130.289C85.9769 130.293 85.3836 130.321 84.8022 130.361V130.357Z" fill="#AF8E2F"/>
<path d="M100.462 134.154H73.0474V137.36H100.462V134.154Z" fill="#AF8E2F"/>
<path d="M100.462 136.825C100.462 134.662 98.2608 132.744 94.873 131.557V142.097C98.2608 140.905 100.462 138.991 100.462 136.829V136.825Z" fill="#AF8E2F"/>
<path d="M81.1621 130.853V142.796C82.3007 143.04 83.5275 143.204 84.8024 143.292V130.357C83.5235 130.445 82.3007 130.609 81.1621 130.853Z" fill="#D6B11E"/>
<path d="M86.7549 130.281C86.6988 130.281 86.6427 130.281 86.5825 130.281V143.355C86.6386 143.355 86.6948 143.355 86.7549 143.355C89.7939 143.355 92.6003 142.884 94.8735 142.084V131.544C92.6003 130.745 89.7939 130.273 86.7549 130.273V130.281Z" fill="#D6B11E"/>
<path d="M86.7547 141.422C94.325 141.422 100.462 138.493 100.462 134.879C100.462 131.265 94.325 128.336 86.7547 128.336C79.1843 128.336 73.0474 131.265 73.0474 134.879C73.0474 138.493 79.1843 141.422 86.7547 141.422Z" fill="#AF8E2F"/>
<path d="M86.7547 140.934C94.325 140.934 100.462 138.004 100.462 134.391C100.462 130.777 94.325 127.848 86.7547 127.848C79.1843 127.848 73.0474 130.777 73.0474 134.391C73.0474 138.004 79.1843 140.934 86.7547 140.934Z" fill="#FFD840"/>
<path d="M86.7549 139.428C92.7753 139.428 97.6558 137.173 97.6558 134.392C97.6558 131.61 92.7753 129.355 86.7549 129.355C80.7345 129.355 75.854 131.61 75.854 134.392C75.854 137.173 80.7345 139.428 86.7549 139.428Z" fill="#FFD325"/>
<path d="M83.6234 134.846L81.9155 133.942L83.2506 133.251L84.9585 134.154C85.7643 134.578 87.0874 134.578 87.9092 134.154C88.7311 133.726 88.7471 133.035 87.9413 132.611L86.1572 131.668L87.4923 130.977L89.2763 131.92C90.7998 132.727 90.7718 134.038 89.2162 134.846C87.6566 135.653 85.1509 135.653 83.6234 134.846Z" fill="#AF8E2F"/>
<path d="M90.074 135.997L83.9961 132.783L85.3311 132.092L91.405 135.305L90.074 135.997Z" fill="#AF8E2F"/>
<path d="M92.2312 134.878L86.1533 131.664L87.4884 130.973L93.5663 134.186L92.2312 134.878Z" fill="#AF8E2F"/>
<path d="M83.1864 137.804L83.7838 134.015L81.9236 133.947L81.4585 136.893L83.1864 137.804Z" fill="#AF8E2F"/>
<path d="M73.0474 132.772C73.0474 135.434 76.379 137.72 81.1579 138.744V126.801C76.379 127.824 73.0474 130.11 73.0474 132.772Z" fill="#AF8E2F"/>
<path d="M84.8022 126.304V139.238C85.3876 139.278 85.9809 139.306 86.5823 139.31V126.236C85.9769 126.24 85.3836 126.268 84.8022 126.308V126.304Z" fill="#AF8E2F"/>
<path d="M100.462 130.102H73.0474V133.307H100.462V130.102Z" fill="#AF8E2F"/>
<path d="M100.462 132.772C100.462 130.61 98.2608 128.691 94.873 127.504V138.044C98.2608 136.853 100.462 134.938 100.462 132.772Z" fill="#AF8E2F"/>
<path d="M81.1621 126.8V138.743C82.3007 138.987 83.5275 139.151 84.8024 139.239V126.305C83.5235 126.393 82.3007 126.556 81.1621 126.8Z" fill="#D6B11E"/>
<path d="M86.7549 126.229C86.6988 126.229 86.6427 126.229 86.5825 126.229V139.303C86.6386 139.303 86.6948 139.303 86.7549 139.303C89.7939 139.303 92.6003 138.831 94.8735 138.032V127.492C92.6003 126.692 89.7939 126.221 86.7549 126.221V126.229Z" fill="#D6B11E"/>
<path d="M86.7547 137.369C94.325 137.369 100.462 134.44 100.462 130.826C100.462 127.213 94.325 124.283 86.7547 124.283C79.1843 124.283 73.0474 127.213 73.0474 130.826C73.0474 134.44 79.1843 137.369 86.7547 137.369Z" fill="#AF8E2F"/>
<path d="M86.7547 136.881C94.325 136.881 100.462 133.952 100.462 130.338C100.462 126.724 94.325 123.795 86.7547 123.795C79.1843 123.795 73.0474 126.724 73.0474 130.338C73.0474 133.952 79.1843 136.881 86.7547 136.881Z" fill="#FFD840"/>
<path d="M86.7549 135.373C92.7753 135.373 97.6558 133.118 97.6558 130.337C97.6558 127.556 92.7753 125.301 86.7549 125.301C80.7345 125.301 75.854 127.556 75.854 130.337C75.854 133.118 80.7345 135.373 86.7549 135.373Z" fill="#FFD325"/>
<path d="M83.6234 130.793L81.9155 129.89L83.2506 129.198L84.9585 130.101C85.7643 130.525 87.0874 130.525 87.9092 130.101C88.7311 129.674 88.7471 128.982 87.9413 128.559L86.1572 127.615L87.4923 126.924L89.2763 127.867C90.7998 128.674 90.7718 129.985 89.2162 130.793C87.6566 131.6 85.1509 131.6 83.6234 130.793Z" fill="#AF8E2F"/>
<path d="M90.074 131.944L83.9961 128.731L85.3311 128.039L91.405 131.253L90.074 131.944Z" fill="#AF8E2F"/>
<path d="M92.2312 130.825L86.1533 127.611L87.4884 126.92L93.5663 130.133L92.2312 130.825Z" fill="#AF8E2F"/>
<path d="M83.1864 133.752L83.7838 129.962L81.9236 129.895L81.4585 132.84L83.1864 133.752Z" fill="#AF8E2F"/>
<path d="M106.394 132.556C107.993 134.687 112.034 134.535 116.477 132.5L109.308 122.932C106.093 126.601 104.798 130.426 106.394 132.556Z" fill="#AF8E2F"/>
<path d="M111.926 120.361L119.692 130.721C120.185 130.406 120.674 130.074 121.163 129.714L113.313 119.238C112.832 119.602 112.371 119.978 111.93 120.357L111.926 120.361Z" fill="#AF8E2F"/>
<path d="M126.749 114.052L104.789 130.412L106.714 132.98L128.674 116.619L126.749 114.052Z" fill="#AF8E2F"/>
<path d="M128.352 116.197C127.053 114.466 124.142 114.242 120.71 115.309L127.037 123.751C129.037 120.773 129.647 117.927 128.352 116.193V116.197Z" fill="#AF8E2F"/>
<path d="M109.304 122.931L116.473 132.5C117.531 132.016 118.609 131.417 119.688 130.725L111.922 120.365C110.952 121.197 110.07 122.06 109.304 122.935V122.931Z" fill="#D6B11E"/>
<path d="M113.445 119.138C113.397 119.174 113.357 119.21 113.309 119.241L121.159 129.717C121.207 129.681 121.251 129.654 121.299 129.618C123.733 127.803 125.697 125.753 127.04 123.754L120.714 115.312C118.413 116.028 115.883 117.327 113.449 119.138H113.445Z" fill="#D6B11E"/>
<path d="M120.131 128.054C126.195 123.536 129.352 117.527 127.182 114.633C125.013 111.738 118.338 113.054 112.274 117.572C106.209 122.09 103.052 128.099 105.222 130.993C107.392 133.888 114.067 132.572 120.131 128.054Z" fill="#AF8E2F"/>
<path d="M119.837 127.664C125.902 123.146 129.059 117.137 126.889 114.242C124.719 111.347 118.044 112.663 111.98 117.181C105.916 121.699 102.759 127.708 104.929 130.603C107.098 133.497 113.773 132.181 119.837 127.664Z" fill="#FFD840"/>
<path d="M118.933 126.455C123.755 122.863 126.311 118.144 124.641 115.916C122.971 113.688 117.708 114.794 112.885 118.387C108.062 121.98 105.507 126.699 107.177 128.927C108.847 131.155 114.11 130.048 118.933 126.455Z" fill="#FFD325"/>
<path d="M113.674 124.662L111.766 124.958L112.419 123.607L114.327 123.311C115.23 123.171 116.288 122.38 116.693 121.548C117.098 120.717 116.693 120.153 115.791 120.293L113.794 120.601L114.448 119.25L116.444 118.942C118.148 118.679 118.918 119.746 118.152 121.325C117.386 122.899 115.378 124.398 113.674 124.662Z" fill="#AF8E2F"/>
<path d="M119.531 121.736L112.736 122.787L113.389 121.436L120.185 120.385L119.531 121.736Z" fill="#AF8E2F"/>
<path d="M120.59 119.55L113.794 120.605L114.448 119.254L121.243 118.203L120.59 119.55Z" fill="#AF8E2F"/>
<path d="M115.105 127.296L113.305 123.902L111.773 124.958L113.169 127.592L115.105 127.296Z" fill="#AF8E2F"/>
<path d="M47.8891 83.4914C46.2198 85.5627 47.3795 89.4311 50.4654 93.2212L57.9636 83.9188C53.5961 81.7233 49.5635 81.4178 47.8928 83.4928L47.8891 83.4914Z" fill="#AF8E2F"/>
<path d="M61.108 85.8106L52.9904 95.8822C53.4193 96.2767 53.8659 96.6694 54.3333 97.0529L62.5404 86.8701C62.0651 86.4964 61.5863 86.1427 61.108 85.8106Z" fill="#AF8E2F"/>
<path d="M70.9415 98.5696L49.5698 81.4121L47.558 83.9089L68.9297 101.066L70.9415 98.5696Z" fill="#AF8E2F"/>
<path d="M69.2575 100.652C70.6164 98.9667 70.1015 96.097 68.2089 93.0484L61.5945 101.259C64.9838 102.453 67.9024 102.338 69.2613 100.653L69.2575 100.652Z" fill="#AF8E2F"/>
<path d="M57.96 83.9169L50.4617 93.2194C51.1956 94.1194 52.0499 95.0183 52.9894 95.8855L61.1069 85.814C60.0552 85.0836 58.9985 84.4455 57.9585 83.9207L57.96 83.9169Z" fill="#D6B11E"/>
<path d="M62.6807 86.9747C62.6339 86.9397 62.5909 86.9062 62.5442 86.8713L54.337 97.0541C54.3824 97.0928 54.4239 97.13 54.4669 97.1635C56.8347 99.0672 59.3216 100.456 61.5921 101.253L68.2064 93.0423C66.9355 90.9965 65.0462 88.8732 62.6769 86.9732L62.6807 86.9747Z" fill="#D6B11E"/>
<path d="M70.4772 99.1315C72.7451 96.3169 69.7994 90.1943 63.8978 85.4564C57.9961 80.7185 51.3734 79.1593 49.1055 81.974C46.8375 84.7886 49.7832 90.9112 55.6849 95.6491C61.5865 100.387 68.2092 101.946 70.4772 99.1315Z" fill="#AF8E2F"/>
<path d="M70.7872 98.7487C73.0551 95.934 70.1094 89.8115 64.2078 85.0736C58.3062 80.3357 51.6835 78.7765 49.4155 81.5912C47.1476 84.4058 50.0933 90.5283 55.9949 95.2663C61.8966 100.004 68.5193 101.563 70.7872 98.7487Z" fill="#FFD840"/>
<path d="M68.6001 96.9964C66.8559 99.1631 61.6353 97.8658 56.9413 94.0957C52.2511 90.327 49.8583 85.5179 51.6077 83.3488C53.352 81.1821 58.5725 82.4794 63.2665 86.2495C67.9567 90.0182 70.3496 94.8273 68.6001 96.9964Z" fill="#FFD325"/>
<path d="M57.3718 88.5667L56.6095 86.7961L58.0839 87.0929L58.8462 88.8636C59.206 89.698 60.2371 90.5274 61.1453 90.7111C62.0535 90.8949 62.5006 90.3638 62.1408 89.5294L61.3413 87.6761L62.8156 87.973L63.6151 89.8262C64.299 91.4087 63.453 92.4122 61.7307 92.0679C60.0084 91.7235 58.0543 90.153 57.3704 88.5705L57.3718 88.5667Z" fill="#AF8E2F"/>
<path d="M61.6773 93.5009L58.9586 87.1944L60.4329 87.4913L63.1517 93.7978L61.6773 93.5009Z" fill="#AF8E2F"/>
<path d="M64.0639 93.9828L61.3414 87.6749L62.8158 87.9718L65.5382 94.2797L64.0639 93.9828Z" fill="#AF8E2F"/>
<path d="M55.1752 90.6023L58.0161 88.0238L56.6106 86.8036L54.3999 88.8096L55.1752 90.6023Z" fill="#AF8E2F"/>
<path d="M113.071 50.8921L110.966 48.3574L106.728 51.8887L108.833 54.4234L113.071 50.8921Z" fill="#AF8E2F"/>
<path d="M108.833 54.4234L106.728 51.8887L102.462 55.443L104.567 57.9777L108.833 54.4234Z" fill="#D6B11E"/>
<path d="M104.565 57.9784L102.459 55.4431L96.8769 60.0956L99.0167 62.5978L104.565 57.9784Z" fill="#AF8E2F"/>
<path d="M96.8772 60.0963L91.7274 64.3869L93.8286 66.9201L99.017 62.5985L96.8772 60.0963Z" fill="#D6B11E"/>
<path d="M138.021 80.9835C142.828 75.6651 142.4 67.4691 137.066 62.6771C131.731 57.8851 123.51 58.3118 118.703 63.6301C113.897 68.9484 114.325 77.1444 119.659 81.9364C124.994 86.7284 133.215 86.3018 138.021 80.9835Z" fill="#AF8E2F"/>
<path d="M140.35 75.318C142.022 68.7152 138.009 62.0112 131.386 60.3441C124.763 58.677 118.038 62.6782 116.366 69.281C114.694 75.8837 118.707 82.5878 125.33 84.2548C131.953 85.9219 138.678 81.9208 140.35 75.318Z" fill="#FFD840"/>
<path d="M137.966 74.3005C139.076 69.0089 135.673 63.8222 130.365 62.7158C125.057 61.6093 119.855 65.0021 118.745 70.2937C117.635 75.5853 121.038 80.7719 126.346 81.8784C131.654 82.9848 136.856 79.5921 137.966 74.3005Z" fill="#FFD325"/>
<path d="M126.362 73.0872L124.586 72.2558L125.28 70.8209L127.056 71.6523C127.893 72.044 128.924 71.6483 129.349 70.765C129.774 69.8817 129.441 68.8425 128.603 68.4508L126.743 67.5794L127.436 66.1445L129.297 67.0159C130.884 67.7593 131.518 69.7258 130.712 71.4005C129.902 73.0752 127.954 73.8306 126.366 73.0832L126.362 73.0872Z" fill="#AF8E2F"/>
<path d="M131.951 72.8635L125.625 69.8978L126.314 68.4629L132.645 71.4286L131.951 72.8635Z" fill="#AF8E2F"/>
<path d="M133.069 70.5452L126.743 67.5794L127.436 66.1445L133.763 69.1103L133.069 70.5452Z" fill="#AF8E2F"/>
<path d="M127.504 77.6323L126.073 71.8008L124.594 72.2604L125.704 76.789L127.504 77.6323Z" fill="#AF8E2F"/>
<g style="mix-blend-mode:screen" opacity="0.23">
<path d="M119.234 63.0743L127.304 85.2213C129.574 85.4092 131.803 84.9895 133.799 84.0742L124.955 59.8008C122.806 60.3843 120.83 61.5075 119.234 63.0743Z" fill="#FFD325"/>
</g>
<path d="M72.0279 54.2193C78.836 53.6386 83.8829 47.6656 83.3005 40.8782C82.718 34.0908 76.7267 29.0593 69.9186 29.64C63.1104 30.2207 58.0635 36.1937 58.646 42.9811C59.2284 49.7685 65.2197 54.8 72.0279 54.2193Z" fill="#D6B11E"/>
<path d="M82.0915 45.7787C84.2234 39.6584 80.9749 32.974 74.8358 30.8486C68.6968 28.7233 61.9919 31.9619 59.86 38.0822C57.7282 44.2025 60.9767 50.887 67.1158 53.0123C73.2548 55.1377 79.9597 51.8991 82.0915 45.7787Z" fill="#FFD840"/>
<path d="M71.4728 51.2251C76.6245 50.9505 80.5776 46.5644 80.3022 41.4284C80.0268 36.2923 75.6272 32.3513 70.4755 32.6259C65.3238 32.9005 61.3707 37.2866 61.6461 42.4226C61.9215 47.5587 66.3211 51.4996 71.4728 51.2251Z" fill="#FFD325"/>
<path d="M69.0707 42.6714L67.3828 41.88L68.0403 40.517L69.7282 41.3084C70.526 41.6841 71.5042 41.3044 71.9092 40.4611C72.3141 39.6217 71.9974 38.6345 71.1995 38.2588L69.4315 37.4274L70.089 36.0645L71.857 36.8958C73.3685 37.6033 73.9699 39.4738 73.2041 41.0686C72.4344 42.6594 70.5821 43.3789 69.0707 42.6714Z" fill="#AF8E2F"/>
<path d="M74.387 42.4602L68.3652 39.6383L69.0267 38.2754L75.0445 41.0972L74.387 42.4602Z" fill="#AF8E2F"/>
<path d="M75.4534 40.2532L69.4316 37.4313L70.0891 36.0684L76.1109 38.8902L75.4534 40.2532Z" fill="#AF8E2F"/>
<path d="M70.1571 47.001L68.7979 41.4492L67.3867 41.8849L68.4451 46.1976L70.1571 47.001Z" fill="#AF8E2F"/>
<g style="mix-blend-mode:screen" opacity="0.23">
<path d="M82.914 45.1468L78.0589 31.821C77.0486 31.1175 75.914 30.5499 74.6712 30.1662C74.5549 30.1303 74.4346 30.1023 74.3184 30.0703L81.178 48.9039C81.8556 47.9206 82.4008 46.8215 82.7777 45.6224C82.8258 45.4665 82.8699 45.3066 82.914 45.1508V45.1468Z" fill="#FFD325"/>
</g>
<g style="mix-blend-mode:screen" opacity="0.23">
<path d="M62.2871 33.1468L69.9647 54.2187C72.1216 54.3985 74.2464 53.9988 76.1428 53.1275L67.7316 30.0332C65.6869 30.5888 63.8066 31.66 62.2911 33.1468H62.2871Z" fill="#FFD325"/>
</g>
</g>
<path d="M66 118.002C67.3903 118.674 68.3459 119.706 68.998 121C69.65 119.706 70.6097 118.67 72 117.998C70.6097 117.326 69.65 116.294 68.998 115C68.3459 116.294 67.3903 117.33 66 118.002Z" fill="#FFD325"/>
<path d="M98 89.5016C99.1586 90.0619 99.9549 90.9218 100.498 92C101.042 90.9218 101.841 90.0586 103 89.4984C101.841 88.9381 101.042 88.0782 100.498 87C99.9549 88.0782 99.1586 88.9414 98 89.5016Z" fill="#AF8E2F"/>
<path d="M24 54.5C25.6224 55.2847 26.7341 56.4854 27.5 58C28.2659 56.4933 29.3776 55.2847 31 54.5C29.3776 53.7152 28.2576 52.5146 27.5 51C26.7341 52.5067 25.6224 53.7152 24 54.5Z" fill="#AF8E2F"/>
<path d="M106 5.99999C106.927 6.44842 107.562 7.13453 108 8C108.438 7.13901 109.073 6.44842 110 5.99999C109.073 5.55156 108.433 4.86547 108 4C107.562 4.86099 106.927 5.55156 106 5.99999Z" fill="#AF8E2F"/>
<defs>
<clipPath id="clip0_906_5272">
<rect width="39.3416" height="51.8593" fill="white" transform="matrix(-0.937933 0.346817 0.346817 0.937933 42.0293 104)"/>
</clipPath>
<clipPath id="clip1_906_5272">
<rect width="106" height="179" fill="white" transform="translate(24 -10)"/>
</clipPath>
</defs>
</svg>
