<svg width="24" height="24" viewBox="0 0 24 24" fill="none" xmlns="http://www.w3.org/2000/svg">
<circle cx="12" cy="12" r="12" fill="#5BC4F0" fill-opacity="0.2"/>
<path d="M16.1111 8.33333H14.5117L13.7222 7.14833C13.6917 7.10263 13.6504 7.06518 13.602 7.0393C13.5535 7.01342 13.4994 6.99992 13.4444 7H9.88889C9.83395 6.99992 9.77984 7.01342 9.73138 7.0393C9.68292 7.06518 9.6416 7.10263 9.61111 7.14833L8.82111 8.33333H7.22222C6.89807 8.33333 6.58719 8.4621 6.35798 8.69131C6.12877 8.92053 6 9.2314 6 9.55556V15.7778C6 16.1019 6.12877 16.4128 6.35798 16.642C6.58719 16.8712 6.89807 17 7.22222 17H16.1111C16.4353 17 16.7461 16.8712 16.9754 16.642C17.2046 16.4128 17.3333 16.1019 17.3333 15.7778V9.55556C17.3333 9.2314 17.2046 8.92053 16.9754 8.69131C16.7461 8.4621 16.4353 8.33333 16.1111 8.33333ZM16.6667 15.7778C16.6667 15.9251 16.6081 16.0664 16.5039 16.1706C16.3998 16.2748 16.2585 16.3333 16.1111 16.3333H7.22222C7.07488 16.3333 6.93357 16.2748 6.82939 16.1706C6.7252 16.0664 6.66667 15.9251 6.66667 15.7778V9.55556C6.66667 9.40821 6.7252 9.26691 6.82939 9.16272C6.93357 9.05853 7.07488 9 7.22222 9H9C9.05494 9.00008 9.10905 8.98658 9.15751 8.9607C9.20597 8.93482 9.24729 8.89737 9.27778 8.85167L10.0672 7.66667H13.2656L14.0556 8.85167C14.086 8.89737 14.1274 8.93482 14.1758 8.9607C14.2243 8.98658 14.2784 9.00008 14.3333 9H16.1111C16.2585 9 16.3998 9.05853 16.5039 9.16272C16.6081 9.26691 16.6667 9.40821 16.6667 9.55556V15.7778ZM11.6667 10.1111C11.2052 10.1111 10.7541 10.248 10.3703 10.5043C9.98662 10.7607 9.68755 11.1252 9.51095 11.5515C9.33434 11.9779 9.28814 12.447 9.37817 12.8997C9.4682 13.3523 9.69043 13.768 10.0168 14.0944C10.3431 14.4207 10.7588 14.6429 11.2115 14.7329C11.6641 14.823 12.1332 14.7768 12.5596 14.6002C12.986 14.4236 13.3504 14.1245 13.6068 13.7408C13.8632 13.3571 14 12.9059 14 12.4444C14 11.8256 13.7542 11.2321 13.3166 10.7945C12.879 10.3569 12.2855 10.1111 11.6667 10.1111ZM11.6667 14.1111C11.337 14.1111 11.0148 14.0134 10.7407 13.8302C10.4666 13.6471 10.253 13.3868 10.1269 13.0823C10.0007 12.7777 9.96772 12.4426 10.032 12.1193C10.0963 11.796 10.2551 11.499 10.4882 11.2659C10.7212 11.0328 11.0182 10.8741 11.3415 10.8098C11.6648 10.7455 11.9999 10.7785 12.3045 10.9046C12.609 11.0308 12.8693 11.2444 13.0524 11.5185C13.2356 11.7926 13.3333 12.1148 13.3333 12.4444C13.3333 12.8865 13.1577 13.3104 12.8452 13.623C12.5326 13.9355 12.1087 14.1111 11.6667 14.1111Z" fill="#1D478E"/>
</svg>
