<svg width="80" height="79" viewBox="0 0 80 79" fill="none" xmlns="http://www.w3.org/2000/svg">
<path d="M61 7.00195C62.3903 7.67426 63.3459 8.70619 63.998 10C64.65 8.70619 65.6097 7.67035 67 6.99804C65.6097 6.32573 64.65 5.29381 63.998 4C63.3459 5.29381 62.3903 6.32964 61 7.00195Z" fill="#FFD325"/>
<path d="M59 77.0013C59.9269 77.4495 60.5639 78.1375 60.9986 79C61.4334 78.1375 62.0731 77.4469 63 76.9987C62.0731 76.5505 61.4334 75.8625 60.9986 75C60.5639 75.8625 59.9269 76.5531 59 77.0013Z" fill="#AF8E2F"/>
<g clip-path="url(#clip0_517_759)">
<path d="M33.3246 31.6327L33.4095 31.4573C21.6648 25.9415 19.5696 21.3265 16.3989 14.3415C15.2759 11.868 14.0058 9.06959 12.1297 5.81895C16.8592 6.1825 21.0874 7.54296 24.7004 9.86422C27.6286 11.7455 30.1626 14.2586 32.2313 17.3342C35.7568 22.5755 36.7197 27.7018 36.7292 27.753L36.922 27.7173C36.9127 27.6657 35.9446 22.5062 32.3987 17.2322C30.3154 14.1331 27.7627 11.6004 24.8117 9.70364C21.123 7.33297 16.7991 5.95632 11.9601 5.61209L11.7753 5.59872L11.8677 5.7575C13.7897 9.06811 15.0809 11.9126 16.2204 14.4222C19.4088 21.4464 21.5154 26.0868 33.3251 31.6329L33.3246 31.6327Z" fill="#1D478E"/>
<path d="M34.2431 29.1783L34.4048 29.0671C34.3226 28.9499 26.1241 17.2458 19.1838 11.6308L19.059 11.7816C25.9787 17.3795 34.1613 29.0609 34.2431 29.1783Z" fill="#1D478E"/>
<path d="M24.2565 16.6808L24.4381 16.6064C24.4273 16.5807 23.387 14.0079 23.8358 10.9967L23.642 10.9699C23.1855 14.0358 24.2458 16.6551 24.2566 16.6812L24.2565 16.6808Z" fill="#1D478E"/>
<path d="M28.1703 21.2264L28.252 21.0499C25.5858 19.8536 22.811 20.2043 22.7834 20.2078L22.8084 20.4001C22.8354 20.3963 25.5568 20.054 28.1703 21.2264Z" fill="#1D478E"/>
<path d="M28.8887 39.5815L28.8397 39.3938C25.3913 40.2966 21.8758 39.0905 18.0929 35.7065C14.7416 32.7084 11.6238 28.4474 8.60877 24.3271C6.65421 21.6556 4.80515 19.1291 2.9624 17.0306C13.4155 15.8592 20.1624 21.8923 20.2298 21.9537L20.3631 21.8108C20.2944 21.7483 13.4059 15.5844 2.75478 16.8597L2.56969 16.8819L2.6921 17.0203C4.56966 19.1391 6.45438 21.7149 8.44971 24.442C11.4705 28.5704 14.5943 32.8393 17.961 35.8509C21.7966 39.2822 25.3711 40.5024 28.8884 39.5816L28.8887 39.5815Z" fill="#1D478E"/>
<path d="M28.0505 34.8176L28.1913 34.6821C28.0891 34.578 17.912 24.2694 11.8799 22.4065L11.8204 22.5917C14.2931 23.3553 17.8818 25.7101 22.1995 29.4012C25.4666 32.1942 28.0248 34.7919 28.0505 34.8176Z" fill="#1D478E"/>
<path d="M17.6652 25.7501L17.8337 25.65C17.8258 25.6373 17.0473 24.3318 15.5625 21.0317L15.3834 21.1118C16.8742 24.4247 17.6573 25.7374 17.6652 25.7501Z" fill="#1D478E"/>
<path d="M22.7539 29.8623L22.8028 29.674C22.771 29.6662 19.5778 28.8882 15.9429 29.3709L15.9679 29.5632C19.5657 29.0852 22.7225 29.8544 22.7538 29.862L22.7539 29.8623Z" fill="#1D478E"/>
</g>
<path d="M79.9999 38.1426C79.9999 58.4985 63.4705 75.0001 43.0805 75.0001C22.6905 75.0001 6.16113 58.4985 6.16113 38.1426C6.16113 17.7868 22.6905 1.28516 43.0805 1.28516C63.4705 1.28516 79.9999 17.7868 79.9999 38.1426Z" fill="#5BC4F0" fill-opacity="0.1"/>
<path d="M56.162 53.0496C51.8725 58.4238 46.8547 61.3021 43.9154 62.646C43.7297 62.7317 43.5294 62.7666 43.3291 62.7539C43.1805 62.746 43.0336 62.7095 42.8947 62.646C39.9554 61.3021 34.9375 58.4238 30.6497 53.0496C25.0213 46.0013 22.4599 36.9078 23.0268 26.0103C23.0478 25.5755 23.3143 25.1867 23.7148 24.9995L42.8882 16.052C43.0287 15.9854 43.1773 15.9489 43.3291 15.9409C43.531 15.9251 43.7361 15.9647 43.9235 16.052L63.0969 24.9979C63.4974 25.1852 63.7607 25.5755 63.7833 26.0087C64.3501 36.9079 61.7887 46.0013 56.1636 53.0496H56.162Z" fill="#161742"/>
<g opacity="0.3">
<path d="M56.1729 53.0484C51.8801 58.4225 46.8584 61.3007 43.9168 62.6446C43.7309 62.7303 43.5305 62.7652 43.3301 62.7525V15.9409C43.5321 15.9251 43.7374 15.9647 43.9249 16.052L63.1131 24.9976C63.5139 25.1849 63.7774 25.5752 63.8 26.0084C64.3673 36.9072 61.8039 46.0004 56.1745 53.0484H56.1729Z" fill="#1D478E"/>
</g>
<path d="M50.796 36.0721C50.4929 35.3961 49.8215 34.9254 49.0416 34.9254H48.6445V31.1853C48.6445 28.3211 46.3566 26 43.5352 26H43.4321C40.6099 26 38.3228 28.3211 38.3228 31.1853V34.9254H37.9249C36.8624 34.9254 36 35.7998 36 36.8789V46.9579C36 48.0362 36.8617 48.9114 37.9249 48.9114H49.0424C50.1057 48.9114 50.9673 48.0369 50.9673 46.9579V36.8789C50.9673 36.5912 50.9059 36.3182 50.796 36.0729V36.0721ZM39.818 31.1853C39.818 29.1625 41.439 27.5182 43.4314 27.5182H43.5344C45.5268 27.5182 47.1478 29.1633 47.1478 31.1853V34.9254H39.8172V31.1853H39.818ZM44.2688 41.8157L44.6909 45.2997C44.7121 45.4759 44.5772 45.6312 44.4022 45.6312H42.5644C42.3893 45.6312 42.2544 45.4759 42.2757 45.2997L42.6978 41.8157C42.0256 41.4981 41.5701 40.7867 41.6216 39.973C41.6815 39.037 42.4265 38.2763 43.3488 38.211C44.4393 38.1333 45.3487 39.0085 45.3487 40.0991C45.3487 40.8597 44.9061 41.515 44.2688 41.8165V41.8157Z" fill="white"/>
<path d="M61.9906 57.93C65.3026 54.6291 65.3026 49.2772 61.9906 45.9762C58.6787 42.6753 53.3089 42.6753 49.9969 45.9762C46.6849 49.2772 46.6849 54.6291 49.9969 57.93C53.3089 61.231 58.6787 61.231 61.9906 57.93Z" fill="#32B353"/>
<path d="M60.5662 47.2371C60.3702 47.0635 60.1331 46.9727 59.8801 46.9727C59.5541 46.9727 59.2479 47.129 59.042 47.4L54.8005 52.9039L52.7186 51.2174C52.4633 51.0103 52.1434 50.935 51.8182 51.0128C51.6639 51.0496 51.5181 51.1258 51.395 51.233C50.822 51.734 50.8669 52.6378 51.4162 53.0832L54.8233 55.8429C55.011 55.9952 55.2762 55.9608 55.4259 55.7668L60.7174 48.8802C61.0966 48.3824 61.0282 47.6456 60.5662 47.2371Z" fill="white"/>
<defs>
<clipPath id="clip0_517_759">
<rect width="28.7183" height="37.8078" fill="white" transform="matrix(-0.938122 0.346305 0.347329 0.937743 26.9414 0)"/>
</clipPath>
</defs>
</svg>
