<svg width="360" height="100" viewBox="0 0 360 100" fill="none" xmlns="http://www.w3.org/2000/svg">
<rect opacity="0.1" width="360" height="100" fill="#5BC4F0"/>
<path d="M224 83.0026C225.854 83.899 227.128 85.2749 227.997 87C228.867 85.2749 230.146 83.8938 232 82.9974C230.146 82.101 228.867 80.7251 227.997 79C227.128 80.7251 225.854 82.1062 224 83.0026Z" fill="#FFD325"/>
<path d="M332 19.0026C333.854 19.899 335.128 21.2749 335.997 23C336.867 21.2749 338.146 19.8938 340 18.9974C338.146 18.101 336.867 16.7251 335.997 15C335.128 16.7251 333.854 18.1062 332 19.0026Z" fill="#FFD325"/>
<path d="M344 10.0013C344.927 10.4495 345.564 11.1375 345.999 12C346.433 11.1375 347.073 10.4469 348 9.99869C347.073 9.55048 346.433 8.86254 345.999 8C345.564 8.86254 344.927 9.55309 344 10.0013Z" fill="#AF8E2F"/>
</svg>
