<svg width="24" height="24" viewBox="0 0 24 24" fill="none" xmlns="http://www.w3.org/2000/svg">
<circle cx="12" cy="12" r="12" fill="#5BC4F0" fill-opacity="0.2"/>
<path d="M17.265 8.235L14.765 5.735C14.6947 5.66465 14.5994 5.62509 14.5 5.625H9.5C9.26794 5.625 9.04538 5.71719 8.88128 5.88128C8.71719 6.04538 8.625 6.26794 8.625 6.5V7.625H7.5C7.26794 7.625 7.04538 7.71719 6.88128 7.88128C6.71719 8.04538 6.625 8.26794 6.625 8.5V17.5C6.625 17.7321 6.71719 17.9546 6.88128 18.1187C7.04538 18.2828 7.26794 18.375 7.5 18.375H14.5C14.7321 18.375 14.9546 18.2828 15.1187 18.1187C15.2828 17.9546 15.375 17.7321 15.375 17.5V16.375H16.5C16.7321 16.375 16.9546 16.2828 17.1187 16.1187C17.2828 15.9546 17.375 15.7321 17.375 15.5V8.5C17.3749 8.40058 17.3353 8.30526 17.265 8.235ZM14.625 17.5C14.625 17.5332 14.6118 17.5649 14.5884 17.5884C14.5649 17.6118 14.5332 17.625 14.5 17.625H7.5C7.46685 17.625 7.43505 17.6118 7.41161 17.5884C7.38817 17.5649 7.375 17.5332 7.375 17.5V8.5C7.375 8.46685 7.38817 8.43505 7.41161 8.41161C7.43505 8.38817 7.46685 8.375 7.5 8.375H12.3444L14.625 10.6556V17.5ZM16.625 15.5C16.625 15.5332 16.6118 15.5649 16.5884 15.5884C16.5649 15.6118 16.5332 15.625 16.5 15.625H15.375V10.5C15.3749 10.4006 15.3353 10.3053 15.265 10.235L12.765 7.735C12.6947 7.66465 12.5994 7.62509 12.5 7.625H9.375V6.5C9.375 6.46685 9.38817 6.43505 9.41161 6.41161C9.43505 6.38817 9.46685 6.375 9.5 6.375H14.3444L16.625 8.65562V15.5ZM12.875 13.5C12.875 13.5995 12.8355 13.6948 12.7652 13.7652C12.6948 13.8355 12.5995 13.875 12.5 13.875H9.5C9.40054 13.875 9.30516 13.8355 9.23484 13.7652C9.16451 13.6948 9.125 13.5995 9.125 13.5C9.125 13.4005 9.16451 13.3052 9.23484 13.2348C9.30516 13.1645 9.40054 13.125 9.5 13.125H12.5C12.5995 13.125 12.6948 13.1645 12.7652 13.2348C12.8355 13.3052 12.875 13.4005 12.875 13.5ZM12.875 15.5C12.875 15.5995 12.8355 15.6948 12.7652 15.7652C12.6948 15.8355 12.5995 15.875 12.5 15.875H9.5C9.40054 15.875 9.30516 15.8355 9.23484 15.7652C9.16451 15.6948 9.125 15.5995 9.125 15.5C9.125 15.4005 9.16451 15.3052 9.23484 15.2348C9.30516 15.1645 9.40054 15.125 9.5 15.125H12.5C12.5995 15.125 12.6948 15.1645 12.7652 15.2348C12.8355 15.3052 12.875 15.4005 12.875 15.5Z" fill="#1D478E"/>
</svg>
