<svg width="24" height="24" viewBox="0 0 24 24" fill="none" xmlns="http://www.w3.org/2000/svg">
<circle cx="12" cy="12" r="12" fill="#5BC4F0" fill-opacity="0.2"/>
<mask id="mask0_906_3848" style="mask-type:alpha" maskUnits="userSpaceOnUse" x="4" y="4" width="16" height="16">
<rect x="4" y="4" width="16" height="16" fill="#D9D9D9"/>
</mask>
<g mask="url(#mask0_906_3848)">
<path d="M11.9999 17.118C13.2529 16.0273 14.2435 14.9181 14.9717 13.7903C15.6999 12.6626 16.064 11.6872 16.064 10.8642C16.064 9.6445 15.6779 8.63783 14.9057 7.84417C14.1335 7.05061 13.1649 6.65383 11.9999 6.65383C10.8349 6.65383 9.86627 7.05061 9.09404 7.84417C8.32182 8.63783 7.93571 9.6445 7.93571 10.8642C7.93571 11.6872 8.29982 12.6626 9.02804 13.7903C9.75627 14.9181 10.7469 16.0273 11.9999 17.118ZM11.9999 17.7038C11.8957 17.7038 11.7914 17.6867 11.687 17.6525C11.5828 17.6184 11.4867 17.5628 11.3985 17.4858C10.9242 17.0499 10.4434 16.5645 9.95621 16.0295C9.4691 15.4945 9.0266 14.9404 8.62871 14.3673C8.23082 13.7942 7.90477 13.2092 7.65054 12.6122C7.39621 12.0152 7.26904 11.4325 7.26904 10.8642C7.26904 9.45383 7.72827 8.29056 8.64671 7.37433C9.56504 6.45811 10.6828 6 11.9999 6C13.317 6 14.4347 6.45811 15.353 7.37433C16.2715 8.29056 16.7307 9.45383 16.7307 10.8642C16.7307 11.4325 16.6035 12.0131 16.3492 12.6058C16.095 13.1985 15.771 13.7835 15.3774 14.3608C14.9838 14.9383 14.5434 15.4923 14.0562 16.023C13.5691 16.5538 13.0884 17.0371 12.614 17.473C12.529 17.55 12.4325 17.6077 12.3244 17.6462C12.2162 17.6846 12.108 17.7038 11.9999 17.7038ZM12.0022 11.8205C12.299 11.8205 12.5523 11.7148 12.762 11.5035C12.9719 11.2922 13.0769 11.0381 13.0769 10.7413C13.0769 10.4446 12.9712 10.1912 12.7597 9.98133C12.5484 9.77156 12.2943 9.66667 11.9975 9.66667C11.7008 9.66667 11.4475 9.77233 11.2377 9.98367C11.0278 10.195 10.9229 10.4491 10.9229 10.7458C10.9229 11.0426 11.0286 11.2959 11.24 11.5058C11.4514 11.7156 11.7054 11.8205 12.0022 11.8205Z" fill="#1D478E"/>
</g>
</svg>
