<svg width="24" height="24" viewBox="0 0 24 24" fill="none" xmlns="http://www.w3.org/2000/svg">
<circle cx="12" cy="12" r="12" fill="#5BC4F0" fill-opacity="0.2"/>
<path d="M12.5882 11.5623C12.5882 11.678 12.5537 11.7911 12.4891 11.8873C12.4245 11.9835 12.3326 12.0584 12.2251 12.1027C12.1176 12.147 11.9993 12.1586 11.8852 12.136C11.7711 12.1134 11.6663 12.0577 11.5841 11.9759C11.5018 11.8941 11.4458 11.7899 11.4231 11.6764C11.4004 11.563 11.412 11.4454 11.4565 11.3385C11.5011 11.2316 11.5765 11.1403 11.6732 11.076C11.7699 11.0117 11.8837 10.9774 12 10.9774C12.156 10.9774 12.3056 11.039 12.4159 11.1487C12.5263 11.2584 12.5882 11.4072 12.5882 11.5623ZM9.41176 10.9774C9.29542 10.9774 9.18169 11.0117 9.08496 11.076C8.98822 11.1403 8.91283 11.2316 8.86831 11.3385C8.82378 11.4454 8.81213 11.563 8.83483 11.6764C8.85753 11.7899 8.91355 11.8941 8.99582 11.9759C9.07809 12.0577 9.1829 12.1134 9.29701 12.136C9.41111 12.1586 9.52939 12.147 9.63687 12.1027C9.74436 12.0584 9.83623 11.9835 9.90086 11.8873C9.9655 11.7911 10 11.678 10 11.5623C10 11.4072 9.93803 11.2584 9.82771 11.1487C9.71739 11.039 9.56777 10.9774 9.41176 10.9774ZM14.5882 10.9774C14.4719 10.9774 14.3582 11.0117 14.2614 11.076C14.1647 11.1403 14.0893 11.2316 14.0448 11.3385C14.0003 11.4454 13.9886 11.563 14.0113 11.6764C14.034 11.7899 14.09 11.8941 14.1723 11.9759C14.2546 12.0577 14.3594 12.1134 14.4735 12.136C14.5876 12.1586 14.7059 12.147 14.8133 12.1027C14.9208 12.0584 15.0127 11.9835 15.0773 11.8873C15.142 11.7911 15.1765 11.678 15.1765 11.5623C15.1765 11.4072 15.1145 11.2584 15.0042 11.1487C14.8939 11.039 14.7442 10.9774 14.5882 10.9774ZM18 7.81888V15.3058C18 15.5229 17.9132 15.7312 17.7588 15.8848C17.6044 16.0384 17.3949 16.1246 17.1765 16.1246H13.5535L12.7153 17.5869C12.6433 17.7124 12.5392 17.8167 12.4136 17.8892C12.288 17.9618 12.1453 18 12 18C11.8547 18 11.712 17.9618 11.5864 17.8892C11.4608 17.8167 11.3567 17.7124 11.2847 17.5869L10.4465 16.1246H6.82353C6.60512 16.1246 6.39565 16.0384 6.24121 15.8848C6.08676 15.7312 6 15.5229 6 15.3058V7.81888C6 7.6017 6.08676 7.39341 6.24121 7.23984C6.39565 7.08627 6.60512 7 6.82353 7H17.1765C17.3949 7 17.6044 7.08627 17.7588 7.23984C17.9132 7.39341 18 7.6017 18 7.81888ZM17.2941 7.81888C17.2941 7.78785 17.2817 7.7581 17.2597 7.73616C17.2376 7.71422 17.2077 7.7019 17.1765 7.7019H6.82353C6.79233 7.7019 6.7624 7.71422 6.74034 7.73616C6.71828 7.7581 6.70588 7.78785 6.70588 7.81888V15.3058C6.70588 15.3368 6.71828 15.3665 6.74034 15.3885C6.7624 15.4104 6.79233 15.4227 6.82353 15.4227H10.6512C10.7133 15.4226 10.7743 15.4388 10.8281 15.4696C10.8819 15.5004 10.9266 15.5448 10.9576 15.5982L11.8988 17.236C11.9091 17.254 11.924 17.269 11.9419 17.2794C11.9599 17.2898 11.9804 17.2953 12.0012 17.2953C12.022 17.2953 12.0424 17.2898 12.0604 17.2794C12.0784 17.269 12.0933 17.254 12.1035 17.236L13.0447 15.5982C13.0758 15.5448 13.1204 15.5004 13.1742 15.4696C13.2281 15.4388 13.2891 15.4226 13.3512 15.4227H17.1765C17.2077 15.4227 17.2376 15.4104 17.2597 15.3885C17.2817 15.3665 17.2941 15.3368 17.2941 15.3058V7.81888Z" fill="#1D478E"/>
</svg>
