<svg width="341" height="416" viewBox="0 0 341 416" fill="none" xmlns="http://www.w3.org/2000/svg">
<g clip-path="url(#clip0_10_5498)">
<path opacity="0.3" d="M169.941 419.287C228.745 419.287 276.415 414.136 276.415 407.782C276.415 401.428 228.745 396.276 169.941 396.276C111.137 396.276 63.4668 401.428 63.4668 407.782C63.4668 414.136 111.137 419.287 169.941 419.287Z" fill="#5BC4F0"/>
<g opacity="0.88">
<g opacity="0.54">
<path d="M263.092 64.0989C263.493 64.0989 263.819 63.7744 263.819 63.3742C263.819 62.974 263.493 62.6495 263.092 62.6495C262.691 62.6495 262.366 62.974 262.366 63.3742C262.366 63.7744 262.691 64.0989 263.092 64.0989Z" fill="#161742"/>
<path d="M242.672 96.6277C243.028 96.6277 243.316 96.3404 243.316 95.9859C243.316 95.6315 243.028 95.3441 242.672 95.3441C242.317 95.3441 242.029 95.6315 242.029 95.9859C242.029 96.3404 242.317 96.6277 242.672 96.6277Z" fill="#161742"/>
<path d="M277.14 85.0419C277.545 85.0419 277.873 84.7147 277.873 84.3111C277.873 83.9075 277.545 83.5803 277.14 83.5803C276.735 83.5803 276.407 83.9075 276.407 84.3111C276.407 84.7147 276.735 85.0419 277.14 85.0419Z" fill="#161742"/>
<path d="M261.183 92.5699C261.562 92.5699 261.869 92.2633 261.869 91.8852C261.869 91.507 261.562 91.2004 261.183 91.2004C260.803 91.2004 260.496 91.507 260.496 91.8852C260.496 92.2633 260.803 92.5699 261.183 92.5699Z" fill="#161742"/>
<path d="M243.557 66.0488C244.043 66.0488 244.437 65.6556 244.437 65.1706C244.437 64.6856 244.043 64.2924 243.557 64.2924C243.07 64.2924 242.676 64.6856 242.676 65.1706C242.676 65.6556 243.07 66.0488 243.557 66.0488Z" fill="#161742"/>
<path d="M249.794 35.3946C250.205 35.3946 250.539 35.0619 250.539 34.6515C250.539 34.2411 250.205 33.9084 249.794 33.9084C249.382 33.9084 249.049 34.2411 249.049 34.6515C249.049 35.0619 249.382 35.3946 249.794 35.3946Z" fill="#161742"/>
<path d="M240.267 47.7186C240.544 47.7186 240.769 47.4945 240.769 47.2181C240.769 46.9416 240.544 46.7176 240.267 46.7176C239.99 46.7176 239.765 46.9416 239.765 47.2181C239.765 47.4945 239.99 47.7186 240.267 47.7186Z" fill="#161742"/>
<path d="M250.64 92.5714C251.107 92.5714 251.486 92.1933 251.486 91.727C251.486 91.2606 251.107 90.8825 250.64 90.8825C250.172 90.8825 249.793 91.2606 249.793 91.727C249.793 92.1933 250.172 92.5714 250.64 92.5714Z" fill="#161742"/>
<path d="M237.605 84.3682C238.015 84.3682 238.347 84.0369 238.347 83.6282C238.347 83.2195 238.015 82.8882 237.605 82.8882C237.195 82.8882 236.863 83.2195 236.863 83.6282C236.863 84.0369 237.195 84.3682 237.605 84.3682Z" fill="#161742"/>
</g>
<g opacity="0.54">
<path d="M38.0623 213.994C38.7968 213.994 39.3922 213.4 39.3922 212.668C39.3922 211.935 38.7968 211.341 38.0623 211.341C37.3278 211.341 36.7324 211.935 36.7324 212.668C36.7324 213.4 37.3278 213.994 38.0623 213.994Z" fill="#161742"/>
<path d="M70.5888 108.846C71.2247 108.846 71.7402 108.332 71.7402 107.698C71.7402 107.064 71.2247 106.55 70.5888 106.55C69.953 106.55 69.4375 107.064 69.4375 107.698C69.4375 108.332 69.953 108.846 70.5888 108.846Z" fill="#161742"/>
<path d="M39.9982 106.234C40.6578 106.234 41.1926 105.7 41.1926 105.042C41.1926 104.384 40.6578 103.851 39.9982 103.851C39.3385 103.851 38.8037 104.384 38.8037 105.042C38.8037 105.7 39.3385 106.234 39.9982 106.234Z" fill="#161742"/>
<path d="M279.183 16.1887C279.917 16.1887 280.513 15.5948 280.513 14.8622C280.513 14.1296 279.917 13.5357 279.183 13.5357C278.448 13.5357 277.853 14.1296 277.853 14.8622C277.853 15.5948 278.448 16.1887 279.183 16.1887Z" fill="#161742"/>
<path d="M302.612 224.592C303.08 224.592 303.459 224.214 303.459 223.748C303.459 223.282 303.08 222.904 302.612 222.904C302.145 222.904 301.766 223.282 301.766 223.748C301.766 224.214 302.145 224.592 302.612 224.592Z" fill="#161742"/>
<path d="M38.8039 78.9915C39.2137 78.9915 39.5458 78.6602 39.5458 78.2515C39.5458 77.8428 39.2137 77.5115 38.8039 77.5115C38.3942 77.5115 38.062 77.8428 38.062 78.2515C38.062 78.6602 38.3942 78.9915 38.8039 78.9915Z" fill="#161742"/>
</g>
<g opacity="0.54">
<path d="M76.7483 92.8536C77.4828 92.8536 78.0782 92.2597 78.0782 91.5271C78.0782 90.7945 77.4828 90.2006 76.7483 90.2006C76.0139 90.2006 75.4185 90.7945 75.4185 91.5271C75.4185 92.2597 76.0139 92.8536 76.7483 92.8536Z" fill="#161742"/>
<path d="M99.6977 98.6057C100.099 98.6057 100.424 98.2813 100.424 97.8811C100.424 97.4808 100.099 97.1564 99.6977 97.1564C99.2965 97.1564 98.9712 97.4808 98.9712 97.8811C98.9712 98.2813 99.2965 98.6057 99.6977 98.6057Z" fill="#161742"/>
<path d="M94.0644 105.445C94.7003 105.445 95.2158 104.931 95.2158 104.296C95.2158 103.662 94.7003 103.148 94.0644 103.148C93.4286 103.148 92.9131 103.662 92.9131 104.296C92.9131 104.931 93.4286 105.445 94.0644 105.445Z" fill="#161742"/>
<path d="M102.032 137.95C102.503 137.95 102.885 137.569 102.885 137.099C102.885 136.629 102.503 136.248 102.032 136.248C101.561 136.248 101.179 136.629 101.179 137.099C101.179 137.569 101.561 137.95 102.032 137.95Z" fill="#161742"/>
<path d="M90.8827 120.71C91.238 120.71 91.5261 120.422 91.5261 120.068C91.5261 119.713 91.238 119.426 90.8827 119.426C90.5273 119.426 90.2393 119.713 90.2393 120.068C90.2393 120.422 90.5273 120.71 90.8827 120.71Z" fill="#161742"/>
<path d="M78.063 105.81C78.4421 105.81 78.7495 105.504 78.7495 105.125C78.7495 104.747 78.4421 104.441 78.063 104.441C77.6838 104.441 77.3765 104.747 77.3765 105.125C77.3765 105.504 77.6838 105.81 78.063 105.81Z" fill="#161742"/>
<path d="M89.8975 81.8079C90.3838 81.8079 90.778 81.4147 90.778 80.9297C90.778 80.4447 90.3838 80.0515 89.8975 80.0515C89.4113 80.0515 89.0171 80.4447 89.0171 80.9297C89.0171 81.4147 89.4113 81.8079 89.8975 81.8079Z" fill="#161742"/>
<path d="M99.9923 87.9877C100.574 87.9877 101.045 87.5175 101.045 86.9376C101.045 86.3576 100.574 85.8874 99.9923 85.8874C99.4108 85.8874 98.9395 86.3576 98.9395 86.9376C98.9395 87.5175 99.4108 87.9877 99.9923 87.9877Z" fill="#161742"/>
<path d="M85.5733 118.055C85.8861 118.055 86.1397 117.802 86.1397 117.49C86.1397 117.178 85.8861 116.925 85.5733 116.925C85.2604 116.925 85.0068 117.178 85.0068 117.49C85.0068 117.802 85.2604 118.055 85.5733 118.055Z" fill="#161742"/>
<path d="M120.297 74.5713C120.708 74.5713 121.042 74.2386 121.042 73.8282C121.042 73.4178 120.708 73.0851 120.297 73.0851C119.885 73.0851 119.552 73.4178 119.552 73.8282C119.552 74.2386 119.885 74.5713 120.297 74.5713Z" fill="#161742"/>
<path d="M124.694 91.4515C125.012 91.4515 125.27 91.1944 125.27 90.8773C125.27 90.5602 125.012 90.3031 124.694 90.3031C124.376 90.3031 124.119 90.5602 124.119 90.8773C124.119 91.1944 124.376 91.4515 124.694 91.4515Z" fill="#161742"/>
<path d="M118.457 102.088C119.009 102.088 119.457 101.641 119.457 101.09C119.457 100.539 119.009 100.092 118.457 100.092C117.904 100.092 117.456 100.539 117.456 101.09C117.456 101.641 117.904 102.088 118.457 102.088Z" fill="#161742"/>
<path d="M104.875 70.9492C105.152 70.9492 105.377 70.7251 105.377 70.4487C105.377 70.1722 105.152 69.9482 104.875 69.9482C104.598 69.9482 104.374 70.1722 104.374 70.4487C104.374 70.7251 104.598 70.9492 104.875 70.9492Z" fill="#161742"/>
<path d="M98.0927 126.35C98.5602 126.35 98.9392 125.972 98.9392 125.506C98.9392 125.039 98.5602 124.661 98.0927 124.661C97.6251 124.661 97.2461 125.039 97.2461 125.506C97.2461 125.972 97.6251 126.35 98.0927 126.35Z" fill="#161742"/>
<path d="M70.5988 83.9902C71.0086 83.9902 71.3408 83.6589 71.3408 83.2502C71.3408 82.8415 71.0086 82.5102 70.5988 82.5102C70.1891 82.5102 69.8569 82.8415 69.8569 83.2502C69.8569 83.6589 70.1891 83.9902 70.5988 83.9902Z" fill="#161742"/>
</g>
<g opacity="0.54">
<path d="M226.366 144.812C226.767 144.812 227.092 144.488 227.092 144.088C227.092 143.687 226.767 143.363 226.366 143.363C225.964 143.363 225.639 143.687 225.639 144.088C225.639 144.488 225.964 144.812 226.366 144.812Z" fill="#161742"/>
<path d="M253.552 133.428C254.023 133.428 254.405 133.047 254.405 132.577C254.405 132.107 254.023 131.727 253.552 131.727C253.081 131.727 252.699 132.107 252.699 132.577C252.699 133.047 253.081 133.428 253.552 133.428Z" fill="#161742"/>
<path d="M205.951 177.337C206.306 177.337 206.594 177.05 206.594 176.696C206.594 176.341 206.306 176.054 205.951 176.054C205.595 176.054 205.307 176.341 205.307 176.696C205.307 177.05 205.595 177.337 205.951 177.337Z" fill="#161742"/>
<path d="M226.368 160.234C226.773 160.234 227.101 159.907 227.101 159.503C227.101 159.1 226.773 158.772 226.368 158.772C225.963 158.772 225.635 159.1 225.635 159.503C225.635 159.907 225.963 160.234 226.368 160.234Z" fill="#161742"/>
<path d="M224.463 173.283C224.842 173.283 225.149 172.977 225.149 172.598C225.149 172.22 224.842 171.914 224.463 171.914C224.084 171.914 223.776 172.22 223.776 172.598C223.776 172.977 224.084 173.283 224.463 173.283Z" fill="#161742"/>
<path d="M206.831 146.759C207.317 146.759 207.711 146.365 207.711 145.88C207.711 145.395 207.317 145.002 206.831 145.002C206.344 145.002 205.95 145.395 205.95 145.88C205.95 146.365 206.344 146.759 206.831 146.759Z" fill="#161742"/>
<path d="M242.829 151.866C243.142 151.866 243.396 151.613 243.396 151.301C243.396 150.989 243.142 150.736 242.829 150.736C242.516 150.736 242.263 150.989 242.263 151.301C242.263 151.613 242.516 151.866 242.829 151.866Z" fill="#161742"/>
<path d="M213.072 116.108C213.483 116.108 213.817 115.775 213.817 115.365C213.817 114.954 213.483 114.622 213.072 114.622C212.66 114.622 212.327 114.954 212.327 115.365C212.327 115.775 212.66 116.108 213.072 116.108Z" fill="#161742"/>
<path d="M230.434 119.08C230.752 119.08 231.01 118.823 231.01 118.506C231.01 118.189 230.752 117.932 230.434 117.932C230.116 117.932 229.858 118.189 229.858 118.506C229.858 118.823 230.116 119.08 230.434 119.08Z" fill="#161742"/>
<path d="M244.774 116.363C245.326 116.363 245.774 115.916 245.774 115.365C245.774 114.814 245.326 114.367 244.774 114.367C244.221 114.367 243.773 114.814 243.773 115.365C243.773 115.916 244.221 116.363 244.774 116.363Z" fill="#161742"/>
<path d="M203.548 128.432C203.825 128.432 204.049 128.208 204.049 127.931C204.049 127.655 203.825 127.431 203.548 127.431C203.271 127.431 203.046 127.655 203.046 127.931C203.046 128.208 203.271 128.432 203.548 128.432Z" fill="#161742"/>
<path d="M233.946 169.452C234.433 169.452 234.827 169.059 234.827 168.574C234.827 168.089 234.433 167.696 233.946 167.696C233.46 167.696 233.066 168.089 233.066 168.574C233.066 169.059 233.46 169.452 233.946 169.452Z" fill="#161742"/>
<path d="M213.918 173.281C214.385 173.281 214.764 172.903 214.764 172.437C214.764 171.97 214.385 171.592 213.918 171.592C213.45 171.592 213.071 171.97 213.071 172.437C213.071 172.903 213.45 173.281 213.918 173.281Z" fill="#161742"/>
<path d="M200.884 165.078C201.293 165.078 201.625 164.747 201.625 164.338C201.625 163.929 201.293 163.598 200.884 163.598C200.474 163.598 200.142 163.929 200.142 164.338C200.142 164.747 200.474 165.078 200.884 165.078Z" fill="#161742"/>
</g>
<g opacity="0.54">
<path d="M86.7465 166.993C87.1478 166.993 87.4731 166.669 87.4731 166.269C87.4731 165.868 87.1478 165.544 86.7465 165.544C86.3453 165.544 86.02 165.868 86.02 166.269C86.02 166.669 86.3453 166.993 86.7465 166.993Z" fill="#161742"/>
<path d="M52.1927 210.957C52.5481 210.957 52.8361 210.67 52.8361 210.315C52.8361 209.961 52.5481 209.674 52.1927 209.674C51.8374 209.674 51.5493 209.961 51.5493 210.315C51.5493 210.67 51.8374 210.957 52.1927 210.957Z" fill="#161742"/>
<path d="M86.7439 182.415C87.1485 182.415 87.4766 182.088 87.4766 181.684C87.4766 181.281 87.1485 180.953 86.7439 180.953C86.3393 180.953 86.0112 181.281 86.0112 181.684C86.0112 182.088 86.3393 182.415 86.7439 182.415Z" fill="#161742"/>
<path d="M84.8393 195.464C85.2185 195.464 85.5258 195.158 85.5258 194.78C85.5258 194.401 85.2185 194.095 84.8393 194.095C84.4602 194.095 84.1528 194.401 84.1528 194.78C84.1528 195.158 84.4602 195.464 84.8393 195.464Z" fill="#161742"/>
<path d="M46.6529 184.773C47.1392 184.773 47.5333 184.38 47.5333 183.895C47.5333 183.41 47.1392 183.017 46.6529 183.017C46.1666 183.017 45.7725 183.41 45.7725 183.895C45.7725 184.38 46.1666 184.773 46.6529 184.773Z" fill="#161742"/>
<path d="M103.208 174.047C103.521 174.047 103.774 173.794 103.774 173.482C103.774 173.17 103.521 172.917 103.208 172.917C102.895 172.917 102.642 173.17 102.642 173.482C102.642 173.794 102.895 174.047 103.208 174.047Z" fill="#161742"/>
<path d="M73.4481 138.289C73.8596 138.289 74.1931 137.956 74.1931 137.546C74.1931 137.135 73.8596 136.803 73.4481 136.803C73.0367 136.803 72.7031 137.135 72.7031 137.546C72.7031 137.956 73.0367 138.289 73.4481 138.289Z" fill="#161742"/>
<path d="M90.8125 141.261C91.1304 141.261 91.3882 141.004 91.3882 140.687C91.3882 140.37 91.1304 140.113 90.8125 140.113C90.4946 140.113 90.2368 140.37 90.2368 140.687C90.2368 141.004 90.4946 141.261 90.8125 141.261Z" fill="#161742"/>
<path d="M37.994 238.038C38.2711 238.038 38.4958 237.814 38.4958 237.538C38.4958 237.261 38.2711 237.037 37.994 237.037C37.7168 237.037 37.4922 237.261 37.4922 237.538C37.4922 237.814 37.7168 238.038 37.994 238.038Z" fill="#161742"/>
<path d="M94.3228 191.633C94.8091 191.633 95.2033 191.24 95.2033 190.755C95.2033 190.27 94.8091 189.877 94.3228 189.877C93.8366 189.877 93.4424 190.27 93.4424 190.755C93.4424 191.24 93.8366 191.633 94.3228 191.633Z" fill="#161742"/>
<path d="M39.414 205.343C39.8815 205.343 40.2605 204.965 40.2605 204.498C40.2605 204.032 39.8815 203.654 39.414 203.654C38.9464 203.654 38.5674 204.032 38.5674 204.498C38.5674 204.965 38.9464 205.343 39.414 205.343Z" fill="#161742"/>
<path d="M17.2644 211.698C17.6741 211.698 18.0063 211.366 18.0063 210.958C18.0063 210.549 17.6741 210.218 17.2644 210.218C16.8546 210.218 16.5225 210.549 16.5225 210.958C16.5225 211.366 16.8546 211.698 17.2644 211.698Z" fill="#161742"/>
</g>
<g opacity="0.54">
<path d="M121.279 31.0233C121.68 31.0233 122.005 30.6988 122.005 30.2986C122.005 29.8984 121.68 29.5739 121.279 29.5739C120.878 29.5739 120.552 29.8984 120.552 30.2986C120.552 30.6988 120.878 31.0233 121.279 31.0233Z" fill="#161742"/>
<path d="M105.741 44.4622C106.212 44.4622 106.594 44.0814 106.594 43.6117C106.594 43.1419 106.212 42.7611 105.741 42.7611C105.27 42.7611 104.888 43.1419 104.888 43.6117C104.888 44.0814 105.27 44.4622 105.741 44.4622Z" fill="#161742"/>
<path d="M121.279 46.4447C121.683 46.4447 122.011 46.1175 122.011 45.7139C122.011 45.3103 121.683 44.9831 121.279 44.9831C120.874 44.9831 120.546 45.3103 120.546 45.7139C120.546 46.1175 120.874 46.4447 121.279 46.4447Z" fill="#161742"/>
<path d="M128.756 65.2682C129.242 65.2682 129.636 64.875 129.636 64.39C129.636 63.905 129.242 63.5118 128.756 63.5118C128.27 63.5118 127.875 63.905 127.875 64.39C127.875 64.875 128.27 65.2682 128.756 65.2682Z" fill="#161742"/>
<path d="M110.104 28.4671C110.515 28.4671 110.849 28.1345 110.849 27.7241C110.849 27.3137 110.515 26.981 110.104 26.981C109.692 26.981 109.359 27.3137 109.359 27.7241C109.359 28.1345 109.692 28.4671 110.104 28.4671Z" fill="#161742"/>
<path d="M125.921 18.7113C126.239 18.7113 126.497 18.4543 126.497 18.1371C126.497 17.82 126.239 17.5629 125.921 17.5629C125.603 17.5629 125.345 17.82 125.345 18.1371C125.345 18.4543 125.603 18.7113 125.921 18.7113Z" fill="#161742"/>
<path d="M90.0374 50.0995C90.3146 50.0995 90.5392 49.8755 90.5392 49.599C90.5392 49.3226 90.3146 49.0985 90.0374 49.0985C89.7603 49.0985 89.5356 49.3226 89.5356 49.599C89.5356 49.8755 89.7603 50.0995 90.0374 50.0995Z" fill="#161742"/>
<path d="M109.358 61.6958C109.768 61.6958 110.1 61.3645 110.1 60.9558C110.1 60.5471 109.768 60.2158 109.358 60.2158C108.948 60.2158 108.616 60.5471 108.616 60.9558C108.616 61.3645 108.948 61.6958 109.358 61.6958Z" fill="#161742"/>
</g>
<g opacity="0.54">
<path d="M164.622 142.565C165.023 142.565 165.348 142.241 165.348 141.841C165.348 141.441 165.023 141.116 164.622 141.116C164.22 141.116 163.895 141.441 163.895 141.841C163.895 142.241 164.22 142.565 164.622 142.565Z" fill="#161742"/>
<path d="M188.148 143.605C188.619 143.605 189.001 143.224 189.001 142.755C189.001 142.285 188.619 141.904 188.148 141.904C187.677 141.904 187.295 142.285 187.295 142.755C187.295 143.224 187.677 143.605 188.148 143.605Z" fill="#161742"/>
<path d="M144.206 175.091C144.561 175.091 144.849 174.803 144.849 174.449C144.849 174.094 144.561 173.807 144.206 173.807C143.851 173.807 143.562 174.094 143.562 174.449C143.562 174.803 143.851 175.091 144.206 175.091Z" fill="#161742"/>
<path d="M178.67 163.509C179.074 163.509 179.402 163.182 179.402 162.778C179.402 162.374 179.074 162.047 178.67 162.047C178.265 162.047 177.937 162.374 177.937 162.778C177.937 163.182 178.265 163.509 178.67 163.509Z" fill="#161742"/>
<path d="M162.714 171.036C163.093 171.036 163.401 170.73 163.401 170.352C163.401 169.973 163.093 169.667 162.714 169.667C162.335 169.667 162.028 169.973 162.028 170.352C162.028 170.73 162.335 171.036 162.714 171.036Z" fill="#161742"/>
<path d="M145.086 144.512C145.572 144.512 145.966 144.119 145.966 143.634C145.966 143.149 145.572 142.755 145.086 142.755C144.6 142.755 144.206 143.149 144.206 143.634C144.206 144.119 144.6 144.512 145.086 144.512Z" fill="#161742"/>
<path d="M154.781 138.049C155.362 138.049 155.834 137.578 155.834 136.998C155.834 136.418 155.362 135.948 154.781 135.948C154.199 135.948 153.728 136.418 153.728 136.998C153.728 137.578 154.199 138.049 154.781 138.049Z" fill="#161742"/>
<path d="M181.085 149.619C181.398 149.619 181.651 149.366 181.651 149.054C181.651 148.742 181.398 148.489 181.085 148.489C180.772 148.489 180.519 148.742 180.519 149.054C180.519 149.366 180.772 149.619 181.085 149.619Z" fill="#161742"/>
<path d="M151.328 113.861C151.739 113.861 152.072 113.528 152.072 113.118C152.072 112.708 151.739 112.375 151.328 112.375C150.916 112.375 150.583 112.708 150.583 113.118C150.583 113.528 150.916 113.861 151.328 113.861Z" fill="#161742"/>
<path d="M168.69 116.834C169.008 116.834 169.266 116.576 169.266 116.259C169.266 115.942 169.008 115.685 168.69 115.685C168.372 115.685 168.114 115.942 168.114 116.259C168.114 116.576 168.372 116.834 168.69 116.834Z" fill="#161742"/>
<path d="M141.804 126.185C142.081 126.185 142.305 125.961 142.305 125.685C142.305 125.408 142.081 125.184 141.804 125.184C141.526 125.184 141.302 125.408 141.302 125.685C141.302 125.961 141.526 126.185 141.804 126.185Z" fill="#161742"/>
<path d="M172.202 167.205C172.688 167.205 173.083 166.812 173.083 166.327C173.083 165.842 172.688 165.449 172.202 165.449C171.716 165.449 171.322 165.842 171.322 166.327C171.322 166.812 171.716 167.205 172.202 167.205Z" fill="#161742"/>
<path d="M152.173 171.034C152.641 171.034 153.02 170.656 153.02 170.19C153.02 169.723 152.641 169.345 152.173 169.345C151.706 169.345 151.327 169.723 151.327 170.19C151.327 170.656 151.706 171.034 152.173 171.034Z" fill="#161742"/>
<path d="M139.139 162.831C139.549 162.831 139.881 162.5 139.881 162.091C139.881 161.682 139.549 161.351 139.139 161.351C138.73 161.351 138.397 161.682 138.397 162.091C138.397 162.5 138.73 162.831 139.139 162.831Z" fill="#161742"/>
</g>
</g>
<g clip-path="url(#clip1_10_5498)">
<path d="M64.812 369.902C57.9497 365.07 53.3344 357.191 52.4752 348.864C51.8143 342.464 53.3895 335.879 56.76 330.4C57.465 329.25 56.0881 327.935 54.9866 328.724C50.4484 331.945 46.8906 336.536 44.996 341.752C42.4185 348.864 42.9803 357.049 46.5161 363.755L40.8544 355.274C37.3186 362.319 39.6868 371.754 46.1196 376.334C45.2604 373.43 40.579 371.995 38.8497 376.192C38.5963 376.805 38.4972 377.463 38.5633 378.12C39.07 382.876 42.4075 387.248 46.8906 388.968C51.5169 390.743 57.1346 389.614 60.7034 386.185C62.3997 380.706 64.1071 375.238 64.812 369.902Z" fill="#FFD325"/>
<path d="M91.5791 298.163C97.9457 291.819 103.332 290.734 111.703 293.758C113.102 294.262 119.469 292.432 123.236 291.26C124.988 290.712 126.849 291.545 127.631 293.188C129.911 298.031 132.72 307.871 121.331 312.824C119.844 313.471 122.707 348.644 122.707 348.644V373.068C122.707 373.068 139.12 378.646 128.733 398.961L130.341 399.322C132.643 399.848 134.262 401.875 134.262 404.22C134.262 405.732 133.029 406.96 131.508 406.96L53.4892 407.036C53.4892 407.036 52.9164 372.498 67.6765 361.114C72.2037 357.618 85.2234 325.82 86.7325 320.823C86.7325 320.823 84.199 305.472 91.557 298.152L91.5791 298.163Z" fill="#FFD325"/>
<path d="M111.902 298.24C111.175 296.794 110.052 295.895 109.391 296.224C108.73 296.552 108.785 297.988 109.523 299.434C110.261 300.881 111.373 301.779 112.034 301.45C112.695 301.122 112.64 299.686 111.902 298.24Z" fill="#161742"/>
<path d="M79.0443 407.387H79.0553L84.7391 407.234C86.6997 407.113 87.7241 406.029 87.7241 404.089C87.7241 401.448 86.1269 399.125 83.6486 398.161L81.4566 397.306C83.1198 394.819 88.9027 384.826 83.7477 373.069C81.798 368.62 79.1875 365.957 75.9711 365.146C71.3338 363.985 67.2362 367.141 67.06 367.283C66.8176 367.469 66.7846 367.809 66.9719 368.05C67.1591 368.291 67.5116 368.335 67.7429 368.138C67.787 368.105 71.6092 365.179 75.7178 366.209C78.5817 366.932 80.9389 369.387 82.7453 373.496C88.4071 386.426 80.2559 397.109 80.1788 397.219C80.0687 397.35 80.0356 397.537 80.0797 397.701C80.1238 397.865 80.2449 398.008 80.4102 398.063L83.252 399.169C85.3008 399.969 86.6226 401.887 86.6226 404.078C86.6226 405.448 86.0609 406.04 84.695 406.127L79.0333 406.281C78.7249 406.281 78.4935 406.544 78.4935 406.839C78.4935 407.135 78.7469 407.376 79.0443 407.376V407.387Z" fill="#161742"/>
<path d="M116.529 407.387C117.598 407.387 118.611 406.927 119.316 406.127C120.054 405.284 120.363 404.177 120.164 403.081L119.823 401.185C119.426 398.906 119.294 396.561 119.426 394.238L121.123 365.552C121.145 365.245 120.913 364.993 120.605 364.971C120.307 364.971 120.043 365.179 120.021 365.486L118.314 394.173C118.171 396.583 118.314 399.005 118.721 401.372L119.063 403.267C119.195 404.034 118.986 404.812 118.468 405.404C117.95 405.996 117.19 406.325 116.43 406.292L112.916 406.171C110.075 406.073 107.827 403.695 107.916 400.857L108.984 366.889C108.984 366.582 108.753 366.33 108.455 366.319C108.18 366.275 107.894 366.549 107.883 366.845L106.814 400.813C106.704 404.243 109.425 407.135 112.872 407.256L116.386 407.376C116.386 407.376 116.474 407.376 116.518 407.376L116.529 407.387Z" fill="#161742"/>
<path d="M98.6406 407.387C99.7091 407.387 100.722 406.927 101.427 406.127C102.165 405.284 102.474 404.177 102.276 403.081L101.934 401.185C101.538 398.895 101.405 396.561 101.538 394.238L103.234 365.552C103.256 365.245 103.025 364.993 102.716 364.971C102.408 364.971 102.154 365.179 102.132 365.486L100.436 394.173C100.293 396.572 100.436 398.994 100.844 401.372L101.185 403.267C101.317 404.034 101.108 404.812 100.59 405.404C100.073 405.996 99.3346 406.314 98.5525 406.292L95.0387 406.171C92.1969 406.073 89.9498 403.695 90.0379 400.857L91.1064 366.889C91.1064 366.582 90.8751 366.33 90.5777 366.319C90.3023 366.275 90.0159 366.549 90.0049 366.845L88.9364 400.813C88.8263 404.243 91.547 407.135 94.9947 407.256L98.5085 407.376C98.5085 407.376 98.5966 407.376 98.6406 407.376V407.387Z" fill="#161742"/>
<path d="M128.095 294.657C123.105 294.953 121.629 291.83 121.629 291.83L121.607 291.742C122.179 291.567 122.741 291.402 123.237 291.249C124.988 290.701 126.85 291.534 127.632 293.178C127.841 293.627 128.05 294.109 128.26 294.635C128.205 294.635 128.161 294.646 128.095 294.657Z" fill="#161742"/>
<path d="M85.4325 407.135C85.7189 407.135 85.9612 406.916 85.9832 406.631C86.3578 401.865 82.5686 400.692 82.5355 400.681C82.2492 400.594 81.9407 400.758 81.8526 401.054C81.7645 401.339 81.9297 401.646 82.2271 401.733C82.3593 401.777 85.1902 402.687 84.8928 406.555C84.8707 406.861 85.091 407.124 85.3994 407.146C85.4105 407.146 85.4325 407.146 85.4435 407.146L85.4325 407.135Z" fill="#161742"/>
<path d="M99.4209 407.289C99.6963 407.289 99.9387 407.081 99.9717 406.796C100.28 403.519 99.454 401.372 99.4209 401.284C99.3108 400.999 98.9914 400.857 98.705 400.977C98.4186 401.087 98.2864 401.405 98.3855 401.689C98.3855 401.711 99.1456 403.706 98.8702 406.697C98.8372 406.993 99.0685 407.267 99.3659 407.289C99.3879 407.289 99.3989 407.289 99.4209 407.289Z" fill="#161742"/>
<path d="M96.0176 407.289C96.293 407.289 96.5353 407.081 96.5684 406.796C96.8768 403.519 96.0507 401.372 96.0176 401.284C95.9075 400.999 95.5991 400.857 95.3017 400.977C95.0153 401.087 94.8831 401.405 94.9822 401.689C94.9822 401.711 95.7423 403.706 95.4669 406.697C95.4338 406.993 95.6651 407.267 95.9626 407.289C95.9846 407.289 95.9956 407.289 96.0176 407.289Z" fill="#161742"/>
<path d="M116.892 407.289C117.168 407.289 117.41 407.081 117.443 406.796C117.751 403.519 116.925 401.372 116.892 401.284C116.782 400.999 116.463 400.857 116.176 400.977C115.89 401.087 115.758 401.405 115.857 401.689C115.857 401.711 116.617 403.706 116.341 406.697C116.308 406.993 116.54 407.267 116.837 407.289C116.859 407.289 116.87 407.289 116.892 407.289Z" fill="#161742"/>
<path d="M113.488 407.289C113.764 407.289 114.006 407.081 114.039 406.796C114.348 403.519 113.521 401.372 113.488 401.284C113.378 400.999 113.07 400.857 112.772 400.977C112.486 401.087 112.354 401.405 112.453 401.689C112.453 401.711 113.213 403.706 112.938 406.697C112.905 406.993 113.136 407.267 113.433 407.289C113.455 407.289 113.466 407.289 113.488 407.289Z" fill="#161742"/>
<path d="M121.65 315.816L121.859 320.834C121.87 321.108 121.65 321.338 121.375 321.349L95.3794 322.522L96.7342 315.75L121.132 315.334C121.408 315.334 121.639 315.542 121.65 315.805V315.816Z" fill="#1D478E"/>
<path d="M54.7457 390.929C55.0321 390.929 55.2744 390.71 55.2965 390.425C56.4971 374.186 63.1061 366.921 63.1722 366.856C63.3815 366.637 63.3704 366.286 63.1391 366.078C62.9188 365.87 62.5663 365.88 62.3571 366.1C62.0707 366.395 55.4176 373.682 54.1839 390.338C54.1619 390.644 54.3932 390.907 54.6906 390.929C54.7016 390.929 54.7237 390.929 54.7347 390.929H54.7457Z" fill="#161742"/>
<path d="M126.629 301.483C127.642 301.483 128.38 301.155 128.854 300.497C130.297 298.492 128.259 294.219 128.028 293.736C127.895 293.463 127.554 293.353 127.29 293.484C127.014 293.616 126.904 293.945 127.036 294.219C127.818 295.807 128.766 298.744 127.961 299.862C127.642 300.3 127.014 300.464 126.089 300.344C125.813 300.311 125.516 300.519 125.472 300.815C125.439 301.111 125.648 301.385 125.946 301.429C126.188 301.462 126.408 301.472 126.629 301.472V301.483Z" fill="#161742"/>
<path d="M102.628 304.847C101.857 308.014 101.823 311.312 101.548 314.556C101.273 317.799 100.7 321.119 98.9926 323.902C97.2853 326.686 94.2231 328.844 90.9517 328.669C87.6802 328.494 84.607 325.415 85.1688 322.204C86.2593 315.947 87.3387 309.68 88.4292 303.423C89.0571 299.818 93.0115 297.155 96.6023 297.911C100.193 298.667 103.134 302.765 102.628 304.847Z" fill="#FFD325"/>
<path d="M91.3046 329.228C94.3999 329.228 97.5612 327.288 99.4668 324.187C101.317 321.163 101.835 317.646 102.099 314.599C102.165 313.778 102.221 312.956 102.276 312.134C102.43 309.756 102.595 307.302 103.168 304.979C103.234 304.683 103.058 304.387 102.76 304.321C102.452 304.245 102.165 304.431 102.099 304.727C101.516 307.148 101.339 309.647 101.185 312.068C101.13 312.89 101.075 313.701 101.009 314.512C100.756 317.427 100.26 320.801 98.5305 323.628C96.7681 326.51 93.805 328.296 90.9852 328.132C88.0552 327.979 85.9073 324.385 85.8853 324.352C85.731 324.089 85.4006 324.001 85.1362 324.154C84.8719 324.308 84.7838 324.647 84.938 324.9C85.0371 325.064 87.4053 329.03 90.9301 329.217C91.0623 329.217 91.1835 329.217 91.3157 329.217L91.3046 329.228Z" fill="#161742"/>
</g>
</g>
<g clip-path="url(#clip2_10_5498)">
<path d="M248.044 48.1943L237.246 88.6759L226.446 48.1943L248.044 48.1943Z" fill="#FFD325"/>
<path d="M286.375 96.8338L271.058 106.272L286.356 78.4779L286.375 96.8338Z" fill="#FFD325"/>
<path d="M286.373 73.7287L264.553 87.1756L286.345 47.579L286.373 73.7287Z" fill="#FFD325"/>
<path d="M281.062 47.8936L248.043 84.1859L254.581 47.8936L281.062 47.8936Z" fill="#FFD325"/>
<path d="M193.574 66.4125L205.908 63.7348V47.041H221.913V62.9538L236.167 66.9564L213.911 91.7252L193.574 66.4125Z" fill="#E27755"/>
<path d="M221.913 53.7911V47.055H205.921V57.1521C211.191 61.2245 218.156 56.8453 221.913 53.7911Z" fill="#161742"/>
<path d="M257.835 254.953C257.835 254.953 256.181 288.034 256.994 304.393C257.806 320.766 256.139 368.672 253.658 384.138L235.228 383.455C235.228 383.455 228.024 277.518 223.076 253.935L257.835 254.953Z" fill="#E27755"/>
<path d="M233.896 364.767C234.722 376.063 235.227 383.455 235.227 383.455L253.657 384.138C254.358 379.773 254.989 372.842 255.521 364.767H233.896Z" fill="#E27755"/>
<path d="M253.658 384.529C253.658 384.529 253.658 384.529 253.644 384.529L235.213 383.846C235.017 383.846 234.849 383.678 234.835 383.483C234.835 383.413 234.316 375.966 233.503 364.795C233.503 364.683 233.531 364.586 233.602 364.502C233.672 364.418 233.784 364.376 233.882 364.376H255.508C255.62 364.376 255.718 364.418 255.788 364.502C255.858 364.586 255.9 364.683 255.886 364.795C255.311 373.4 254.667 380.108 254.008 384.194C253.98 384.375 253.812 384.515 253.63 384.515L253.658 384.529ZM235.592 383.078L253.335 383.734C253.966 379.703 254.569 373.302 255.115 365.143H234.316C235.017 374.739 235.494 381.503 235.592 383.065V383.078Z" fill="#161742"/>
<path d="M200.959 246.823C200.959 246.823 196.979 279.359 198.212 296.737C199.446 314.114 187.729 363.149 185.248 379.174L164.393 376.468C164.393 376.468 167.771 263.21 169.621 245.581L200.959 246.809V246.823Z" fill="#E27755"/>
<path d="M164.956 358.491C164.605 369.383 164.395 376.468 164.395 376.468L185.25 379.173C185.895 375.031 187.142 368.7 188.628 361.266L164.956 358.477V358.491Z" fill="#E27755"/>
<path d="M185.25 379.564C185.25 379.564 185.222 379.564 185.194 379.564L164.339 376.858C164.143 376.831 163.988 376.663 164.002 376.468C164.002 376.398 164.213 369.258 164.563 358.491C164.563 358.379 164.619 358.282 164.703 358.212C164.787 358.142 164.899 358.115 164.997 358.115L188.67 360.904C188.782 360.904 188.88 360.974 188.936 361.057C189.006 361.141 189.02 361.252 189.006 361.364C187.534 368.7 186.259 375.101 185.628 379.243C185.6 379.438 185.432 379.564 185.25 379.564ZM164.801 376.133L184.927 378.741C185.572 374.655 186.777 368.56 188.179 361.601L165.348 358.909C165.054 368.114 164.857 374.585 164.815 376.119L164.801 376.133Z" fill="#161742"/>
<path d="M159.671 387.625C159.671 387.625 166.496 374.376 159.222 368.086C154.289 363.832 166.72 366.217 166.076 372.019C165.431 377.876 159.671 387.625 159.671 387.625Z" fill="#1D478E"/>
<path d="M159.671 388.016C159.671 388.016 159.545 388.002 159.489 387.974C159.307 387.876 159.237 387.639 159.335 387.458C159.349 387.43 161.031 384.138 161.802 380.136C162.825 374.85 161.872 370.889 158.971 368.393C157.849 367.417 157.457 366.678 157.779 366.092C158.34 365.116 160.456 365.701 161.087 365.897C162.502 366.343 163.862 367.138 164.829 368.058C166.062 369.244 166.623 370.624 166.469 372.061C165.824 377.932 160.246 387.43 160.008 387.834C159.938 387.96 159.812 388.029 159.671 388.029V388.016ZM159.125 366.301C158.732 366.301 158.508 366.385 158.466 366.454C158.424 366.524 158.494 366.929 159.489 367.793C162.573 370.457 163.638 374.78 162.573 380.289C162.446 380.945 162.292 381.586 162.124 382.186C163.68 378.978 165.376 374.934 165.698 371.963C165.978 369.439 163.385 367.417 160.849 366.622C160.092 366.385 159.517 366.301 159.125 366.301Z" fill="white"/>
<path d="M234.529 373.595C234.529 373.595 232.244 408.614 234.291 412.449C234.291 412.449 252.959 413.663 263.695 413.788C263.695 413.788 265.545 400.567 260.724 398.001C255.552 395.24 253.674 395.1 253.674 391.07C253.674 387.039 254.809 374.097 254.809 374.097L234.529 373.609V373.595Z" fill="#1D478E"/>
<path d="M263.694 414.165C253.07 414.039 234.458 412.84 234.262 412.826C234.121 412.826 234.009 412.742 233.939 412.617C231.865 408.74 234.037 374.99 234.135 373.567C234.135 373.358 234.332 373.204 234.528 373.204L254.808 373.693C254.92 373.693 255.019 373.748 255.089 373.818C255.159 373.888 255.201 373.999 255.187 374.111C255.187 374.236 254.051 387.081 254.051 391.042C254.051 394.166 255.201 394.751 258.592 396.453C259.265 396.788 260.036 397.178 260.891 397.638C265.895 400.302 264.143 413.272 264.073 413.816C264.044 414.011 263.876 414.151 263.694 414.151V414.165ZM234.542 412.073C236.7 412.212 253.351 413.244 263.344 413.384C263.456 412.449 263.736 409.744 263.624 406.843C263.498 403.635 262.867 399.563 260.527 398.322C259.686 397.875 258.915 397.485 258.242 397.15C254.724 395.379 253.267 394.654 253.267 391.042C253.267 387.43 254.178 376.691 254.374 374.446L234.878 373.971C234.107 385.923 233.098 408.447 234.528 412.059L234.542 412.073Z" fill="#1D478E"/>
<path d="M186.96 370.555C186.96 370.555 185.517 377.765 185.517 384.013C185.517 390.261 187.128 413.802 187.128 413.802H117.668L116.322 406.48C115.537 402.227 118.509 398.196 122.811 397.666C132.538 396.453 148.291 394.124 152.945 391.223C161.452 385.924 164.633 372.535 164.633 368.853L186.96 370.555Z" fill="#1D478E"/>
<path d="M187.113 414.193H117.667C117.484 414.193 117.316 414.053 117.288 413.872L115.943 406.55C115.55 404.389 116.041 402.227 117.344 400.456C118.648 398.684 120.568 397.555 122.768 397.29C131.976 396.146 148.108 393.789 152.747 390.902C157.26 388.085 160.077 383.037 161.633 379.299C163.567 374.669 164.268 370.527 164.268 368.867C164.268 368.756 164.31 368.658 164.394 368.588C164.478 368.518 164.576 368.477 164.688 368.491L187.015 370.192C187.127 370.192 187.225 370.262 187.295 370.345C187.365 370.429 187.393 370.541 187.365 370.652C187.351 370.722 185.922 377.904 185.922 384.027C185.922 390.149 187.52 413.565 187.534 413.788C187.534 413.9 187.506 413.998 187.435 414.081C187.365 414.165 187.253 414.207 187.155 414.207L187.113 414.193ZM117.989 413.426H186.707C186.496 410.246 185.123 389.745 185.123 384.013C185.123 378.671 186.188 372.563 186.496 370.903L165.011 369.272C164.913 371.196 164.156 375.185 162.334 379.578C160.736 383.427 157.835 388.629 153.14 391.544C150.645 393.106 143.357 395.491 122.852 398.043C120.876 398.294 119.138 399.298 117.961 400.902C116.784 402.506 116.335 404.458 116.685 406.411L117.975 413.426H117.989Z" fill="#161742"/>
<path d="M244.731 397.471C244.731 397.471 241.451 396.551 240.652 388.741C240.19 384.236 240.526 378.727 240.877 374.864C241.129 372.186 243.442 370.164 246.147 370.276L251.262 370.248C253.014 370.317 254.878 371.866 254.864 373.609C254.864 373.609 253.939 382.158 253.939 393.134C253.939 394.375 256.742 397.206 256.742 397.206L244.731 397.471Z" fill="#1D478E"/>
<path d="M244.731 397.848C244.731 397.848 244.661 397.848 244.619 397.834C244.479 397.792 241.087 396.746 240.26 388.769C239.798 384.222 240.12 378.671 240.485 374.808C240.751 371.921 243.232 369.76 246.147 369.871L251.248 369.843C251.248 369.843 251.248 369.843 251.262 369.843C252.216 369.885 253.197 370.304 253.967 371.001C254.78 371.726 255.243 372.674 255.229 373.595C255.229 373.595 255.229 373.623 255.229 373.637C255.229 373.72 254.304 382.297 254.304 393.134C254.304 393.915 255.958 395.881 256.995 396.941C257.107 397.053 257.135 397.22 257.079 397.359C257.023 397.499 256.883 397.597 256.728 397.597L244.717 397.862L244.731 397.848ZM245.937 370.652C243.526 370.652 241.494 372.479 241.269 374.892C240.919 378.713 240.583 384.208 241.045 388.699C241.746 395.588 244.409 396.927 244.801 397.081L255.874 396.83C254.991 395.853 253.561 394.138 253.561 393.12C253.561 382.507 254.43 374.041 254.486 373.567C254.486 372.005 252.734 370.68 251.276 370.61L246.175 370.638C246.175 370.638 246.175 370.638 246.161 370.638C246.091 370.638 246.035 370.638 245.965 370.638L245.937 370.652Z" fill="white"/>
<path d="M260.722 397.987C258.171 396.62 256.419 395.895 255.298 395.031C248.739 394.431 239.601 394.626 238.311 400.107C237.26 404.57 236.826 407.457 236.658 409.214H233.658C233.798 410.776 234.065 413.272 234.345 413.802C234.345 413.802 252.915 413.663 263.679 413.774C263.679 413.774 263.777 413.133 263.876 411.696C264.17 407.694 264.254 399.87 260.708 397.987H260.722Z" fill="#161742"/>
<path d="M234.359 414.193C234.219 414.193 234.079 414.109 234.023 413.984C233.686 413.356 233.42 410.734 233.28 409.242C233.28 409.13 233.308 409.033 233.378 408.949C233.448 408.865 233.56 408.823 233.658 408.823H236.307C236.489 407.136 236.924 404.305 237.933 400.009C238.662 396.899 242.278 393.455 255.326 394.64C255.396 394.64 255.466 394.668 255.536 394.724C256.251 395.282 257.246 395.784 258.606 396.467C259.278 396.802 260.049 397.192 260.89 397.638C264.576 399.605 264.59 407.303 264.268 411.724C264.17 413.161 264.072 413.802 264.072 413.83C264.044 414.025 263.876 414.165 263.693 414.165C253.056 414.053 234.555 414.193 234.359 414.193ZM234.093 409.604C234.261 411.417 234.457 412.854 234.625 413.426C236.924 413.412 253.378 413.3 263.357 413.398C263.399 413.077 263.455 412.505 263.511 411.682C263.763 408.28 263.974 400.163 260.54 398.336C259.699 397.889 258.942 397.499 258.269 397.164C256.966 396.509 255.929 395.993 255.158 395.407C249.496 394.905 239.951 394.877 238.704 400.191C237.625 404.751 237.218 407.638 237.064 409.256C237.05 409.451 236.882 409.604 236.672 409.604H234.093Z" fill="#161742"/>
<path d="M186.89 409.214H137.121L135.033 395.923C130.716 396.634 126.357 397.234 122.811 397.666C118.509 398.196 115.537 402.227 116.322 406.48L116.827 409.214L117.668 413.802H187.114C187.114 413.802 187.016 411.25 186.876 409.214H186.89Z" fill="#161742"/>
<path d="M187.113 414.193H117.667C117.484 414.193 117.316 414.053 117.288 413.872L115.943 406.55C115.55 404.388 116.041 402.227 117.344 400.456C118.648 398.684 120.568 397.555 122.768 397.29C127.183 396.746 131.29 396.146 134.976 395.546C135.074 395.533 135.186 395.547 135.27 395.616C135.354 395.672 135.41 395.77 135.424 395.867L137.47 408.837H186.903C187.113 408.837 187.281 408.991 187.295 409.2C187.435 411.222 187.534 413.774 187.534 413.802C187.534 413.914 187.492 414.011 187.421 414.081C187.351 414.151 187.253 414.193 187.141 414.193H187.113ZM117.989 413.426H186.721C186.693 412.687 186.623 411.055 186.524 409.604H137.12C136.924 409.604 136.77 409.465 136.742 409.284L134.709 396.369C131.121 396.955 127.141 397.527 122.852 398.057C120.876 398.308 119.138 399.312 117.961 400.916C116.784 402.52 116.335 404.472 116.685 406.425L117.975 413.44L117.989 413.426Z" fill="#161742"/>
<path d="M295.439 213.585C298.399 217.163 304.4 225.078 308.099 227.542C308.901 228.074 309.949 228.033 310.719 227.45C311.439 226.898 311.583 225.886 311.038 225.16C308.777 222.143 303.331 214.781 302.406 212.685C301.79 211.294 299.498 211.355 297.464 211.713C295.778 212.02 294.36 212.266 295.449 213.585H295.439Z" fill="#E27755"/>
<path d="M297.954 213.268C297.954 213.268 308.641 222.542 314.622 225.088C315.577 225.497 316.697 225.241 317.376 224.464C317.93 223.83 317.879 222.879 317.252 222.317C314.509 219.843 306.689 213.288 305.353 211.396C303.678 209.024 297.954 213.257 297.954 213.257V213.268Z" fill="#E27755"/>
<path d="M299.064 210.343C299.064 210.343 310.142 218.299 315.927 220.088C316.739 220.344 317.623 220.068 318.157 219.413C318.702 218.748 318.578 217.767 317.89 217.256C315.043 215.129 308.251 210.016 306.895 208.421C305.158 206.386 299.064 210.354 299.064 210.354V210.343Z" fill="#E27755"/>
<path d="M317.232 213.39C314.746 211.836 308.118 207.634 306.772 206.325C303.535 203.165 297.482 197.235 297.482 197.235C297.482 197.235 286.282 198.155 285.346 198.666C285.141 198.779 285.501 199.699 286.22 201.049C286.497 202.828 287.402 208.278 288.676 211.581C290.207 215.568 291.502 218.063 292.18 220.078C292.868 222.082 295.53 222.828 296.342 220.221C296.855 218.554 296.157 216.069 295.437 213.585C296.013 214.116 296.568 214.546 297.071 214.853C298.52 215.722 302.795 209.178 302.795 209.178C302.795 209.178 310.245 214.444 315.095 215.732C315.989 215.967 316.945 215.64 317.5 214.894C317.859 214.413 317.726 213.728 317.222 213.411L317.232 213.39Z" fill="#E27755"/>
<path d="M308.601 221.785C308.529 221.785 308.468 221.755 308.416 221.693C306.156 218.677 302.734 213.81 302.189 212.777C302.128 212.665 302.179 212.532 302.282 212.47C302.395 212.409 302.528 212.46 302.59 212.562C303.124 213.575 306.526 218.411 308.776 221.417C308.848 221.52 308.827 221.663 308.725 221.734C308.684 221.765 308.632 221.775 308.591 221.775L308.601 221.785Z" fill="#161742"/>
<path d="M314.622 220.016C314.622 220.016 314.53 220.006 314.478 219.965C309.741 216.335 305.107 210.885 305.066 210.834C304.983 210.742 304.994 210.599 305.096 210.517C305.189 210.435 305.333 210.446 305.415 210.548C305.456 210.599 310.06 216.018 314.756 219.618C314.858 219.689 314.879 219.832 314.797 219.935C314.756 219.996 314.684 220.027 314.612 220.027L314.622 220.016Z" fill="#161742"/>
<path d="M316.37 216.121C316.37 216.121 316.277 216.11 316.236 216.08C315.774 215.732 315.24 215.343 314.674 214.924C311.807 212.808 307.882 209.914 306.731 208.564C306.649 208.472 306.659 208.329 306.762 208.247C306.854 208.165 306.998 208.176 307.08 208.278C308.201 209.597 312.105 212.47 314.952 214.566C315.517 214.986 316.051 215.374 316.514 215.722C316.616 215.793 316.637 215.937 316.555 216.039C316.514 216.1 316.442 216.131 316.37 216.131V216.121Z" fill="#161742"/>
<path d="M297.493 197.245C297.493 197.245 286.292 198.165 285.357 198.677C285.152 198.789 285.511 199.709 286.231 201.059C286.333 201.703 286.508 202.818 286.765 204.137L300.792 200.476C298.942 198.656 297.493 197.245 297.493 197.245Z" fill="#161742"/>
<path d="M237.206 133.648C262.083 177.579 291.277 364.474 291.277 364.474L225.685 368.839L216.911 218.135L213.211 219.069L199.112 366.775L144.003 363.958C144.003 363.958 170.268 180.034 190.296 133.829C190.296 133.829 230.787 122.282 237.206 133.634V133.648Z" fill="#161742"/>
<path d="M207.52 193.018C207.31 193.018 207.128 192.85 207.128 192.627V145.502C207.128 145.293 207.296 145.112 207.52 145.112H218.102C218.312 145.112 218.494 145.279 218.494 145.502V174.176C218.494 174.385 218.326 174.566 218.102 174.566C217.878 174.566 217.71 174.399 217.71 174.176V145.893H207.913V192.627C207.913 192.836 207.745 193.018 207.52 193.018Z" fill="white"/>
<path d="M185.739 145.614H242.824C241.016 140.984 239.222 136.911 237.442 133.508H190.07C188.654 136.939 187.21 141.012 185.753 145.614H185.739Z" fill="#E27755"/>
<path d="M212.692 53.3449C224.187 53.3449 233.505 43.4482 233.505 31.2399C233.505 19.0317 224.187 9.13495 212.692 9.13495C201.198 9.13495 191.879 19.0317 191.879 31.2399C191.879 43.4482 201.198 53.3449 212.692 53.3449Z" fill="#E27755"/>
<path d="M192.706 32.6207C192.706 32.6207 188.151 28.9389 186.427 34.629C184.773 40.0541 191.234 42.4389 192.888 41.6858C195.958 40.2912 196.28 37.1393 192.706 32.6207Z" fill="#E27755"/>
<path d="M192.65 37.5576C192.496 37.5576 192.327 37.4739 192.243 37.3345C190.758 34.7823 187.885 34.4476 187.857 34.4336C187.604 34.4057 187.422 34.1826 187.45 33.9176C187.478 33.6526 187.702 33.4853 187.969 33.5132C188.109 33.5271 191.318 33.9037 193.056 36.8603C193.182 37.0834 193.112 37.3623 192.888 37.4879C192.818 37.5297 192.734 37.5576 192.65 37.5576Z" fill="#161742"/>
<path d="M189.159 136.395C188.36 138.32 187.561 140.44 186.748 142.727H241.801C240.792 140.426 239.783 138.306 238.773 136.395H189.159Z" fill="#161742"/>
<path d="M190.308 39.6635C190.224 39.6635 190.14 39.6356 190.07 39.5938C189.846 39.4682 189.776 39.1754 189.916 38.9522L191.556 36.2466C191.682 36.0235 191.976 35.9538 192.201 36.0932C192.425 36.2187 192.495 36.5116 192.355 36.7348L190.715 39.4403C190.631 39.5798 190.477 39.6635 190.308 39.6635Z" fill="#161742"/>
<path d="M232.523 66.1058C232.523 66.1058 254.598 70.6663 261.676 77.7092C268.753 84.7521 303.96 195.653 303.96 195.653L282.39 206.685L249.286 122.798V139.519L174.373 139.938L173.462 118.502C173.462 118.502 165.095 136.577 157.709 149.449C154.121 155.697 144.562 156.757 139.881 155.181C135.172 153.591 129.496 146.995 129.58 141.04L126.202 116.954L148.347 116.257L154.724 95.2537C154.724 95.2537 164.759 78.532 169.23 74.7246C173.042 71.4751 197.877 65.3109 197.877 65.3109C197.877 65.3109 197.849 75.7288 214.275 75.7288C230.701 75.7288 232.523 66.1197 232.523 66.1197V66.1058Z" fill="#1D478E"/>
<path d="M210.042 195.877C209.79 195.877 209.579 195.681 209.579 195.43L208.178 149.728C208.178 149.477 208.374 149.254 208.626 149.254C208.879 149.254 209.103 149.449 209.103 149.7L210.504 195.402C210.504 195.654 210.308 195.877 210.056 195.877C210.056 195.877 210.056 195.877 210.042 195.877Z" fill="#161742"/>
<path d="M175.704 182.781C175.494 182.781 175.312 182.614 175.312 182.391C175.312 182.167 175.48 182 175.704 182C178.829 182 181.689 180.954 184.197 178.89C186.23 177.216 188.038 174.887 189.579 171.959C192.228 166.938 193.181 161.834 193.195 161.792C193.237 161.583 193.434 161.443 193.644 161.485C193.854 161.527 193.994 161.722 193.952 161.931C193.952 161.987 192.971 167.189 190.266 172.307C186.664 179.155 181.618 182.781 175.704 182.781Z" fill="white"/>
<path d="M254.99 181.275C249.075 181.275 243.988 177.858 240.274 171.387C237.499 166.533 236.447 161.624 236.433 161.568C236.391 161.359 236.517 161.15 236.728 161.108C236.938 161.066 237.148 161.192 237.19 161.401C237.19 161.443 238.227 166.268 240.96 171.01C242.544 173.772 244.394 175.975 246.44 177.551C248.991 179.503 251.864 180.494 254.99 180.494C255.2 180.494 255.382 180.661 255.382 180.884C255.382 181.107 255.214 181.275 254.99 181.275Z" fill="white"/>
<path d="M180.357 162.238C180.147 162.238 179.964 162.071 179.964 161.847C179.964 161.638 180.133 161.457 180.357 161.457L249.033 161.094C249.243 161.094 249.425 161.262 249.425 161.485C249.425 161.694 249.257 161.875 249.033 161.875L180.357 162.238Z" fill="white"/>
<path d="M206.09 216.42C205.921 216.42 205.767 216.308 205.711 216.141C205.655 215.931 205.781 215.722 205.977 215.666L223.02 211.036C223.23 210.98 223.441 211.106 223.497 211.301C223.553 211.51 223.427 211.72 223.23 211.775L206.188 216.406C206.188 216.406 206.118 216.406 206.09 216.406V216.42Z" fill="white"/>
<path d="M217.428 27.1675C217.316 27.1675 217.203 27.1256 217.105 27.0419C216.923 26.8746 216.909 26.5678 217.077 26.3865C217.203 26.247 220.343 22.9975 226.72 25.7589C226.958 25.8565 227.07 26.1354 226.958 26.3725C226.86 26.6096 226.58 26.7212 226.342 26.6096C220.567 24.1132 217.778 27.0001 217.75 27.028C217.652 27.1256 217.54 27.1814 217.414 27.1814L217.428 27.1675Z" fill="#161742"/>
<path d="M208.935 27.307C208.809 27.307 208.683 27.2512 208.598 27.1536C208.486 27.0281 205.739 24.2527 200.007 26.7352C199.769 26.8328 199.502 26.7352 199.39 26.4981C199.292 26.261 199.39 25.996 199.629 25.8845C206.006 23.1231 209.145 26.3726 209.271 26.512C209.439 26.6933 209.439 26.9862 209.243 27.1675C209.159 27.2512 209.033 27.293 208.921 27.293L208.935 27.307Z" fill="#161742"/>
<path d="M200.836 29.1339C200.934 29.1339 201.032 29.1758 201.102 29.2734C201.2 29.3849 203.33 31.9371 207.787 29.6499C207.969 29.5523 208.18 29.6499 208.264 29.8731C208.348 30.0823 208.264 30.3472 208.082 30.4309C203.12 32.9692 200.681 29.9707 200.583 29.8452C200.443 29.6778 200.457 29.3989 200.597 29.2455C200.667 29.1758 200.751 29.1339 200.85 29.1339H200.836Z" fill="#161742"/>
<path d="M218.45 29.1339C218.548 29.1339 218.646 29.1758 218.717 29.2734C218.815 29.3849 220.945 31.9371 225.402 29.6499C225.584 29.5523 225.794 29.6499 225.878 29.8731C225.963 30.0823 225.878 30.3472 225.696 30.4309C220.735 32.9692 218.296 29.9707 218.198 29.8452C218.058 29.6778 218.072 29.3989 218.212 29.2455C218.282 29.1758 218.366 29.1339 218.464 29.1339H218.45Z" fill="#161742"/>
<path d="M212.692 9.1489C204.129 9.1489 191.935 16.4428 191.935 29.6082L199.545 18.8834C201.129 25.3685 203.091 12.3426 203.091 12.3426C221.998 26.6516 221.914 15.9547 221.914 15.9547C221.914 15.9547 227.983 28.8272 231.178 23.5136C231.178 23.5136 232.51 31.5328 233.505 31.2539C234.178 15.7037 221.788 9.1489 212.692 9.1489Z" fill="#161742"/>
<path d="M232.874 32.4672C232.874 32.4672 237.429 28.7854 239.153 34.4755C240.807 39.9006 234.346 42.2854 232.692 41.5323C229.623 40.1377 229.3 36.9858 232.874 32.4672Z" fill="#E27755"/>
<path d="M232.929 37.4042C232.845 37.4042 232.775 37.3903 232.691 37.3345C232.467 37.209 232.397 36.9161 232.523 36.7069C234.261 33.7503 237.47 33.3737 237.61 33.3598C237.863 33.3319 238.101 33.5132 238.129 33.7782C238.157 34.0292 237.975 34.2663 237.722 34.2942C237.694 34.2942 234.835 34.6429 233.336 37.195C233.252 37.3484 233.097 37.4182 232.929 37.4182V37.4042Z" fill="#161742"/>
<path d="M235.271 39.4961C235.117 39.4961 234.962 39.4124 234.864 39.273L233.224 36.5674C233.098 36.3442 233.168 36.0653 233.379 35.9259C233.603 35.8003 233.883 35.8701 234.023 36.0793L235.663 38.7849C235.789 39.008 235.719 39.2869 235.509 39.4264C235.439 39.4682 235.355 39.4961 235.271 39.4961Z" fill="#161742"/>
<path d="M215.422 156.101C215.422 157.538 214.259 158.695 212.815 158.695C211.372 158.695 210.208 157.538 210.208 156.101C210.208 154.665 211.372 153.507 212.815 153.507C214.259 153.507 215.422 154.665 215.422 156.101Z" fill="#161742"/>
<path d="M212.816 159.086C211.162 159.086 209.817 157.747 209.817 156.102C209.817 154.456 211.162 153.117 212.816 153.117C214.47 153.117 215.816 154.456 215.816 156.102C215.816 157.747 214.47 159.086 212.816 159.086ZM212.816 153.898C211.597 153.898 210.602 154.888 210.602 156.102C210.602 157.315 211.597 158.305 212.816 158.305C214.036 158.305 215.031 157.315 215.031 156.102C215.031 154.888 214.036 153.898 212.816 153.898Z" fill="white"/>
<mask id="mask0_10_5498" style="mask-type:luminance" maskUnits="userSpaceOnUse" x="124" y="65" width="180" height="142">
<path d="M232.523 66.1058C232.523 66.1058 254.597 70.6662 261.675 77.7091C268.753 84.752 303.96 195.653 303.96 195.653L282.39 206.685L249.285 122.798V139.519L174.373 139.938L173.462 118.502C173.462 118.502 165.095 136.577 157.708 149.449C154.12 155.697 144.562 156.757 139.881 155.181C135.172 153.591 129.495 146.995 129.579 141.039L124.029 113.398L147.505 110.358C147.505 110.358 152.747 98.9494 154.723 95.2676C157.694 89.7309 164.758 78.5459 169.229 74.7386C173.041 71.4891 197.877 65.3248 197.877 65.3248C197.877 65.3248 197.849 75.7427 214.275 75.7427C230.701 75.7427 232.523 66.1337 232.523 66.1337V66.1058Z" fill="white"/>
</mask>
<g mask="url(#mask0_10_5498)">
<path d="M249.452 114.123C249.452 114.123 249.424 114.123 249.41 114.123C249.158 114.095 248.961 113.872 248.989 113.621C248.989 113.551 249.69 106.634 251.947 98.4892C254.035 90.9442 257.959 80.7633 264.701 75.129C264.897 74.9617 265.191 74.9896 265.36 75.1848C265.528 75.3801 265.5 75.6729 265.303 75.8403C258.744 81.3212 254.918 91.3068 252.858 98.7262C250.615 106.801 249.929 113.649 249.929 113.719C249.9 113.956 249.704 114.137 249.466 114.137L249.452 114.123Z" fill="#161742"/>
<path d="M173.517 105.393C173.293 105.393 173.097 105.239 173.055 105.016L168.177 78.5878C168.135 78.3368 168.303 78.0997 168.556 78.0439C168.808 78.002 169.046 78.1694 169.102 78.4204L173.98 104.849C174.022 105.1 173.854 105.337 173.601 105.393C173.573 105.393 173.545 105.393 173.517 105.393Z" fill="#161742"/>
<path d="M160.973 125.977C160.833 125.977 160.679 125.908 160.595 125.782L155.409 118.377C155.269 118.168 155.311 117.875 155.521 117.735C155.731 117.582 156.026 117.638 156.166 117.847L161.351 125.252C161.492 125.461 161.449 125.754 161.239 125.894C161.155 125.95 161.071 125.977 160.973 125.977Z" fill="#161742"/>
</g>
<path d="M211.514 34.9636C211.542 35.9259 212.145 36.7208 213.042 37.0834C213.939 37.446 215.046 37.2368 215.691 36.4837C216.097 36.0096 216.322 35.4099 216.308 34.7823C216.308 34.3778 215.663 34.3778 215.677 34.7823C215.691 35.3262 215.467 35.8561 215.06 36.2327C214.724 36.5395 214.247 36.6511 213.799 36.6232C212.916 36.5674 212.173 35.8561 212.145 34.9636C212.145 34.5591 211.5 34.5591 211.514 34.9636Z" fill="#161742"/>
<path d="M223.454 39.6077C223.454 39.6077 223.58 39.6495 223.623 39.7053C223.763 39.8587 223.777 40.1516 223.637 40.3468C223.594 40.4166 222.543 41.9925 220.315 43.4011C218.283 44.6981 214.821 46.1067 209.901 45.4791C209.719 45.4512 209.593 45.2281 209.621 44.977C209.649 44.726 209.831 44.5447 210.014 44.5726C214.751 45.1862 218.072 43.8474 220.007 42.6201C222.109 41.2952 223.118 39.8029 223.118 39.775C223.202 39.6495 223.314 39.5937 223.426 39.6077H223.454Z" fill="#161742"/>
<path d="M237.566 132.407L122.448 116.165C118.097 115.551 114.07 118.563 113.453 122.893L99.1506 223.267C98.5337 227.597 101.561 231.604 105.911 232.218L221.029 248.459C225.38 249.073 229.407 246.061 230.024 241.732L244.327 141.358C244.944 137.028 241.917 133.021 237.566 132.407Z" fill="#32B353"/>
<path d="M194.52 204.292C207.134 191.719 207.134 171.336 194.52 158.764C181.906 146.192 161.454 146.192 148.84 158.764C136.226 171.336 136.226 191.719 148.84 204.292C161.454 216.864 181.906 216.864 194.52 204.292Z" fill="#32B353"/>
<path d="M189.565 163.565C188.818 162.904 187.915 162.558 186.951 162.558C185.71 162.558 184.544 163.153 183.759 164.186L167.605 185.148L159.676 178.725C158.703 177.936 157.485 177.649 156.247 177.945C155.659 178.086 155.103 178.376 154.635 178.784C152.453 180.692 152.623 184.135 154.716 185.831L167.692 196.342C168.407 196.922 169.417 196.791 169.987 196.052L190.141 169.823C191.585 167.927 191.324 165.121 189.565 163.565Z" fill="white"/>
<path d="M147.631 125.406L148.359 116.243C148.486 114.723 147.056 113.468 145.192 113.468C143.272 113.468 141.674 114.779 141.688 116.341L141.758 125.49C141.758 126.828 143.132 127.86 144.771 127.763C146.299 127.679 147.547 126.661 147.645 125.406H147.631Z" fill="#E27755"/>
<path d="M135.535 126.243L135.634 115.295C135.634 114.109 136.685 113.049 138.128 112.743L138.423 112.687C140.399 112.282 142.221 113.454 142.165 115.072L141.758 126.075C141.716 127.4 140.399 128.516 138.759 128.641C136.979 128.767 135.493 127.679 135.507 126.243H135.535Z" fill="#E27755"/>
<path d="M133.153 126.173C134.499 126.034 135.536 125.085 135.606 123.942L135.998 116.648C136.068 115.462 135.059 114.458 133.686 114.291L132.999 114.207C131.317 114.012 129.803 115.169 129.859 116.62L130.154 123.983C130.21 125.322 131.583 126.312 133.153 126.159V126.173Z" fill="#E27755"/>
<path d="M128.288 124.667C129.325 124.416 130.068 123.663 130.096 122.826L130.278 116.815C130.307 115.839 129.325 115.086 128.078 115.127L127.293 115.155C125.92 115.211 124.798 116.187 124.911 117.261L125.513 123.244C125.625 124.318 126.929 124.988 128.288 124.667Z" fill="#E27755"/>
<path d="M141.308 126.033C141.308 126.201 141.449 126.326 141.617 126.326C141.785 126.326 141.925 126.187 141.925 126.019L141.981 116.341C141.981 115.922 142.149 115.197 142.36 114.848C142.458 114.709 142.416 114.514 142.262 114.416C142.121 114.318 141.925 114.36 141.827 114.514C141.533 114.974 141.35 115.825 141.35 116.341L141.294 126.019C141.294 126.019 141.294 126.019 141.294 126.033H141.308Z" fill="#161742"/>
<path d="M135.086 124.388C135.086 124.555 135.24 124.681 135.394 124.681C135.563 124.681 135.703 124.541 135.703 124.374L135.633 118.586C135.633 118.154 135.731 115.839 135.801 115.253C135.829 115.086 135.703 114.932 135.535 114.904C135.366 114.876 135.212 115.002 135.184 115.169C135.1 115.797 135.002 118.14 135.002 118.586L135.072 124.374L135.086 124.388Z" fill="#161742"/>
<path d="M129.649 122.937C129.649 123.105 129.803 123.23 129.971 123.23C130.139 123.23 130.279 123.091 130.279 122.909C130.279 122.826 130.237 121.027 130.195 120.469C130.153 119.883 130.083 116.355 130.153 115.769C130.167 115.602 130.055 115.448 129.887 115.42C129.719 115.392 129.565 115.518 129.536 115.685C129.452 116.327 129.536 119.939 129.579 120.497C129.621 121.041 129.663 122.895 129.663 122.909L129.649 122.937Z" fill="#161742"/>
<path d="M219.988 11.8404C219.988 11.8404 216.162 0 225.37 0C234.578 0 240.17 11.4778 240.17 15.1457C240.17 18.8136 232.364 20.8916 229.378 20.6406C226.393 20.3896 219.974 11.8404 219.974 11.8404H219.988Z" fill="#161742"/>
</g>
<defs>
<clipPath id="clip0_10_5498">
<rect width="340.364" height="414.193" fill="white" transform="translate(0 1.80734)"/>
</clipPath>
<clipPath id="clip1_10_5498">
<rect width="95.7204" height="116.303" fill="white" transform="matrix(-1 0 0 1 134.273 291.085)"/>
</clipPath>
<clipPath id="clip2_10_5498">
<rect width="240.127" height="414.193" fill="white" transform="translate(88.1211)"/>
</clipPath>
</defs>
</svg>
