<svg width="347" height="258" viewBox="0 0 347 258" fill="none" xmlns="http://www.w3.org/2000/svg">
<g opacity="0.88">
<g opacity="0.54">
<path d="M39.884 150.328C40.6892 150.328 41.3419 149.674 41.3419 148.867C41.3419 148.06 40.6892 147.406 39.884 147.406C39.0788 147.406 38.426 148.06 38.426 148.867C38.426 149.674 39.0788 150.328 39.884 150.328Z" fill="#161742"/>
<path d="M75.5428 34.5118C76.2399 34.5118 76.805 33.9455 76.805 33.2469C76.805 32.5483 76.2399 31.9819 75.5428 31.9819C74.8457 31.9819 74.2806 32.5483 74.2806 33.2469C74.2806 33.9455 74.8457 34.5118 75.5428 34.5118Z" fill="#161742"/>
<path d="M42.0068 31.6302C42.73 31.6302 43.3162 31.0427 43.3162 30.3179C43.3162 29.5931 42.73 29.0056 42.0068 29.0056C41.2836 29.0056 40.6973 29.5931 40.6973 30.3179C40.6973 31.0427 41.2836 31.6302 42.0068 31.6302Z" fill="#161742"/>
<path d="M329.907 162.003C330.419 162.003 330.835 161.587 330.835 161.073C330.835 160.56 330.419 160.143 329.907 160.143C329.394 160.143 328.979 160.56 328.979 161.073C328.979 161.587 329.394 162.003 329.907 162.003Z" fill="#161742"/>
<path d="M40.6973 1.63021C41.1465 1.63021 41.5107 1.26528 41.5107 0.815107C41.5107 0.364936 41.1465 0 40.6973 0C40.2481 0 39.884 0.364936 39.884 0.815107C39.884 1.26528 40.2481 1.63021 40.6973 1.63021Z" fill="#161742"/>
</g>
<g opacity="0.54">
<path d="M273.476 100.908C274.281 100.908 274.934 100.253 274.934 99.4465C274.934 98.6395 274.281 97.9854 273.476 97.9854C272.67 97.9854 272.018 98.6395 272.018 99.4465C272.018 100.253 272.67 100.908 273.476 100.908Z" fill="#161742"/>
<path d="M290.33 80.2628C290.77 80.2628 291.126 79.9054 291.126 79.4646C291.126 79.0237 290.77 78.6664 290.33 78.6664C289.89 78.6664 289.533 79.0237 289.533 79.4646C289.533 79.9054 289.89 80.2628 290.33 80.2628Z" fill="#161742"/>
<path d="M294.157 89.3033C294.854 89.3033 295.419 88.737 295.419 88.0384C295.419 87.3398 294.854 86.7734 294.157 86.7734C293.46 86.7734 292.895 87.3398 292.895 88.0384C292.895 88.737 293.46 89.3033 294.157 89.3033Z" fill="#161742"/>
<path d="M330.562 96.1218C331.078 96.1218 331.496 95.7023 331.496 95.1849C331.496 94.6675 331.078 94.248 330.562 94.248C330.045 94.248 329.627 94.6675 329.627 95.1849C329.627 95.7023 330.045 96.1218 330.562 96.1218Z" fill="#161742"/>
<path d="M308.446 99.1793C308.836 99.1793 309.151 98.8628 309.151 98.4724C309.151 98.082 308.836 97.7655 308.446 97.7655C308.056 97.7655 307.741 98.082 307.741 98.4724C307.741 98.8628 308.056 99.1793 308.446 99.1793Z" fill="#161742"/>
<path d="M287.653 105.146C288.069 105.146 288.406 104.808 288.406 104.391C288.406 103.975 288.069 103.637 287.653 103.637C287.238 103.637 286.901 103.975 286.901 104.391C286.901 104.808 287.238 105.146 287.653 105.146Z" fill="#161742"/>
<path d="M268.913 82.4104C269.446 82.4104 269.878 81.9774 269.878 81.4431C269.878 80.9089 269.446 80.4758 268.913 80.4758C268.38 80.4758 267.948 80.9089 267.948 81.4431C267.948 81.9774 268.38 82.4104 268.913 82.4104Z" fill="#161742"/>
<path d="M279.54 75.291C280.178 75.291 280.694 74.7731 280.694 74.1342C280.694 73.4954 280.178 72.9775 279.54 72.9775C278.903 72.9775 278.386 73.4954 278.386 74.1342C278.386 74.7731 278.903 75.291 279.54 75.291Z" fill="#161742"/>
<path d="M303.441 103.211C303.784 103.211 304.062 102.932 304.062 102.589C304.062 102.245 303.784 101.966 303.441 101.966C303.098 101.966 302.82 102.245 302.82 102.589C302.82 102.932 303.098 103.211 303.441 103.211Z" fill="#161742"/>
<path d="M275.75 48.6494C276.201 48.6494 276.567 48.283 276.567 47.8309C276.567 47.3789 276.201 47.0125 275.75 47.0125C275.299 47.0125 274.934 47.3789 274.934 47.8309C274.934 48.283 275.299 48.6494 275.75 48.6494Z" fill="#161742"/>
<path d="M294.788 51.9234C295.136 51.9234 295.419 51.6402 295.419 51.2909C295.419 50.9416 295.136 50.6584 294.788 50.6584C294.439 50.6584 294.157 50.9416 294.157 51.2909C294.157 51.6402 294.439 51.9234 294.788 51.9234Z" fill="#161742"/>
<path d="M302.128 63.3179C302.734 63.3179 303.225 62.8258 303.225 62.2187C303.225 61.6116 302.734 61.1195 302.128 61.1195C301.523 61.1195 301.031 61.6116 301.031 62.2187C301.031 62.8258 301.523 63.3179 302.128 63.3179Z" fill="#161742"/>
<path d="M265.312 62.2188C265.616 62.2188 265.862 61.972 265.862 61.6675C265.862 61.363 265.616 61.1162 265.312 61.1162C265.008 61.1162 264.762 61.363 264.762 61.6675C264.762 61.972 265.008 62.2188 265.312 62.2188Z" fill="#161742"/>
<path d="M317.18 94.7114C317.693 94.7114 318.108 94.295 318.108 93.7813C318.108 93.2676 317.693 92.8512 317.18 92.8512C316.668 92.8512 316.252 93.2676 316.252 93.7813C316.252 94.295 316.668 94.7114 317.18 94.7114Z" fill="#161742"/>
<path d="M262.389 102.589C262.838 102.589 263.202 102.224 263.202 101.773C263.202 101.323 262.838 100.958 262.389 100.958C261.94 100.958 261.576 101.323 261.576 101.773C261.576 102.224 261.94 102.589 262.389 102.589Z" fill="#161742"/>
</g>
<g opacity="0.54">
<path d="M228.043 37.1095C228.483 37.1095 228.84 36.7521 228.84 36.3113C228.84 35.8704 228.483 35.5131 228.043 35.5131C227.603 35.5131 227.247 35.8704 227.247 36.3113C227.247 36.7521 227.603 37.1095 228.043 37.1095Z" fill="#161742"/>
<path d="M253.834 38.2559C254.35 38.2559 254.769 37.8365 254.769 37.3191C254.769 36.8017 254.35 36.3822 253.834 36.3822C253.318 36.3822 252.899 36.8017 252.899 37.3191C252.899 37.8365 253.318 38.2559 253.834 38.2559Z" fill="#161742"/>
<path d="M205.661 72.9335C206.051 72.9335 206.366 72.617 206.366 72.2267C206.366 71.8363 206.051 71.5198 205.661 71.5198C205.271 71.5198 204.956 71.8363 204.956 72.2267C204.956 72.617 205.271 72.9335 205.661 72.9335Z" fill="#161742"/>
<path d="M243.443 60.176C243.886 60.176 244.246 59.8156 244.246 59.371C244.246 58.9264 243.886 58.566 243.443 58.566C242.999 58.566 242.639 58.9264 242.639 59.371C242.639 59.8156 242.999 60.176 243.443 60.176Z" fill="#161742"/>
<path d="M225.954 68.469C226.37 68.469 226.707 68.1314 226.707 67.7148C226.707 67.2983 226.37 66.9606 225.954 66.9606C225.538 66.9606 225.201 67.2983 225.201 67.7148C225.201 68.1314 225.538 68.469 225.954 68.469Z" fill="#161742"/>
<path d="M217.254 32.1342C217.891 32.1342 218.408 31.6163 218.408 30.9775C218.408 30.3387 217.891 29.8208 217.254 29.8208C216.616 29.8208 216.099 30.3387 216.099 30.9775C216.099 31.6163 216.616 32.1342 217.254 32.1342Z" fill="#161742"/>
<path d="M246.092 44.8817C246.435 44.8817 246.713 44.6031 246.713 44.2594C246.713 43.9157 246.435 43.6371 246.092 43.6371C245.749 43.6371 245.471 43.9157 245.471 44.2594C245.471 44.6031 245.749 44.8817 246.092 44.8817Z" fill="#161742"/>
<path d="M202.478 36.46C202.93 36.46 203.295 36.0935 203.295 35.6415C203.295 35.1894 202.93 34.823 202.478 34.823C202.027 34.823 201.662 35.1894 201.662 35.6415C201.662 36.0935 202.027 36.46 202.478 36.46Z" fill="#161742"/>
<path d="M232.501 8.77006C232.85 8.77006 233.132 8.4869 233.132 8.1376C233.132 7.78829 232.85 7.50513 232.501 7.50513C232.153 7.50513 231.87 7.78829 231.87 8.1376C231.87 8.4869 232.153 8.77006 232.501 8.77006Z" fill="#161742"/>
<path d="M203.025 19.0655C203.329 19.0655 203.575 18.8187 203.575 18.5142C203.575 18.2097 203.329 17.9629 203.025 17.9629C202.721 17.9629 202.475 18.2097 202.475 18.5142C202.475 18.8187 202.721 19.0655 203.025 19.0655Z" fill="#161742"/>
<path d="M236.352 64.2481C236.885 64.2481 237.317 63.815 237.317 63.2808C237.317 62.7466 236.885 62.3135 236.352 62.3135C235.819 62.3135 235.387 62.7466 235.387 63.2808C235.387 63.815 235.819 64.2481 236.352 64.2481Z" fill="#161742"/>
<path d="M214.395 68.4657C214.908 68.4657 215.323 68.0493 215.323 67.5356C215.323 67.0219 214.908 66.6055 214.395 66.6055C213.883 66.6055 213.467 67.0219 213.467 67.5356C213.467 68.0493 213.883 68.4657 214.395 68.4657Z" fill="#161742"/>
</g>
<g opacity="0.54">
<path d="M14.8964 216.362C15.7016 216.362 16.3544 215.708 16.3544 214.901C16.3544 214.094 15.7016 213.44 14.8964 213.44C14.0912 213.44 13.4385 214.094 13.4385 214.901C13.4385 215.708 14.0912 216.362 14.8964 216.362Z" fill="#161742"/>
<path d="M31.7505 195.721C32.1904 195.721 32.547 195.363 32.547 194.922C32.547 194.482 32.1904 194.124 31.7505 194.124C31.3106 194.124 30.9541 194.482 30.9541 194.922C30.9541 195.363 31.3106 195.721 31.7505 195.721Z" fill="#161742"/>
<path d="M13.4418 185.012C14.2452 185.012 14.8964 184.36 14.8964 183.555C14.8964 182.75 14.2452 182.097 13.4418 182.097C12.6385 182.097 11.9873 182.75 11.9873 183.555C11.9873 184.36 12.6385 185.012 13.4418 185.012Z" fill="#161742"/>
<path d="M35.5776 204.758C36.2747 204.758 36.8398 204.191 36.8398 203.493C36.8398 202.794 36.2747 202.228 35.5776 202.228C34.8805 202.228 34.3154 202.794 34.3154 203.493C34.3154 204.191 34.8805 204.758 35.5776 204.758Z" fill="#161742"/>
<path d="M27.3531 172.948C28.2105 172.948 28.9055 172.252 28.9055 171.392C28.9055 170.533 28.2105 169.837 27.3531 169.837C26.4957 169.837 25.8006 170.533 25.8006 171.392C25.8006 172.252 26.4957 172.948 27.3531 172.948Z" fill="#161742"/>
<path d="M57.5413 196.867C58.0576 196.867 58.4761 196.448 58.4761 195.93C58.4761 195.413 58.0576 194.993 57.5413 194.993C57.025 194.993 56.6064 195.413 56.6064 195.93C56.6064 196.448 57.025 196.867 57.5413 196.867Z" fill="#161742"/>
<path d="M9.36839 231.545C9.75794 231.545 10.0737 231.228 10.0737 230.838C10.0737 230.447 9.75794 230.131 9.36839 230.131C8.97884 230.131 8.66304 230.447 8.66304 230.838C8.66304 231.228 8.97884 231.545 9.36839 231.545Z" fill="#161742"/>
<path d="M47.1501 218.787C47.5937 218.787 47.9533 218.427 47.9533 217.982C47.9533 217.538 47.5937 217.177 47.1501 217.177C46.7064 217.177 46.3468 217.538 46.3468 217.982C46.3468 218.427 46.7064 218.787 47.1501 218.787Z" fill="#161742"/>
<path d="M29.6615 227.08C30.0771 227.08 30.4141 226.742 30.4141 226.326C30.4141 225.909 30.0771 225.572 29.6615 225.572C29.2458 225.572 28.9089 225.909 28.9089 226.326C28.9089 226.742 29.2458 227.08 29.6615 227.08Z" fill="#161742"/>
<path d="M10.3336 197.865C10.8667 197.865 11.2988 197.432 11.2988 196.897C11.2988 196.363 10.8667 195.93 10.3336 195.93C9.80052 195.93 9.36838 196.363 9.36838 196.897C9.36838 197.432 9.80052 197.865 10.3336 197.865Z" fill="#161742"/>
<path d="M20.9611 190.745C21.5985 190.745 22.1153 190.227 22.1153 189.589C22.1153 188.95 21.5985 188.432 20.9611 188.432C20.3236 188.432 19.8069 188.95 19.8069 189.589C19.8069 190.227 20.3236 190.745 20.9611 190.745Z" fill="#161742"/>
<path d="M49.7993 203.489C50.1423 203.489 50.4203 203.211 50.4203 202.867C50.4203 202.523 50.1423 202.245 49.7993 202.245C49.4564 202.245 49.1783 202.523 49.1783 202.867C49.1783 203.211 49.4564 203.489 49.7993 203.489Z" fill="#161742"/>
<path d="M17.1745 164.104C17.6255 164.104 17.9912 163.737 17.9912 163.285C17.9912 162.833 17.6255 162.467 17.1745 162.467C16.7234 162.467 16.3577 162.833 16.3577 163.285C16.3577 163.737 16.7234 164.104 17.1745 164.104Z" fill="#161742"/>
<path d="M36.2087 167.378C36.5573 167.378 36.8398 167.095 36.8398 166.745C36.8398 166.396 36.5573 166.113 36.2087 166.113C35.8602 166.113 35.5776 166.396 35.5776 166.745C35.5776 167.095 35.8602 167.378 36.2087 167.378Z" fill="#161742"/>
<path d="M43.5524 178.772C44.1582 178.772 44.6493 178.28 44.6493 177.673C44.6493 177.066 44.1582 176.574 43.5524 176.574C42.9467 176.574 42.4556 177.066 42.4556 177.673C42.4556 178.28 42.9467 178.772 43.5524 178.772Z" fill="#161742"/>
<path d="M6.73261 177.677C7.03643 177.677 7.28272 177.43 7.28272 177.125C7.28272 176.821 7.03643 176.574 6.73261 176.574C6.4288 176.574 6.18251 176.821 6.18251 177.125C6.18251 177.43 6.4288 177.677 6.73261 177.677Z" fill="#161742"/>
<path d="M40.0595 222.859C40.5925 222.859 41.0247 222.426 41.0247 221.892C41.0247 221.358 40.5925 220.925 40.0595 220.925C39.5264 220.925 39.0942 221.358 39.0942 221.892C39.0942 222.426 39.5264 222.859 40.0595 222.859Z" fill="#161742"/>
<path d="M18.1025 227.077C18.6151 227.077 19.0306 226.66 19.0306 226.147C19.0306 225.633 18.6151 225.217 18.1025 225.217C17.59 225.217 17.1745 225.633 17.1745 226.147C17.1745 226.66 17.59 227.077 18.1025 227.077Z" fill="#161742"/>
<path d="M3.81334 218.043C4.26254 218.043 4.62669 217.678 4.62669 217.228C4.62669 216.778 4.26254 216.413 3.81334 216.413C3.36415 216.413 3 216.778 3 217.228C3 217.678 3.36415 218.043 3.81334 218.043Z" fill="#161742"/>
</g>
</g>
<path d="M326.367 149.811L282.321 173.662L326.367 183.822V149.811Z" fill="#FFD325"/>
<path d="M288.761 106.525L274.65 132.142L316.205 106.559L288.761 106.525Z" fill="#FFD325"/>
<path d="M268.069 106.718L263.834 119.527L277.543 106.559L268.069 106.718Z" fill="#FFD325"/>
<path d="M248.654 106.559L251.235 119.669L260.108 106.421L248.654 106.559Z" fill="#FFD325"/>
<path d="M326.367 107.408L284.701 149.811L326.367 141.419V107.408Z" fill="#FFD325"/>
<path opacity="0.27" d="M323.024 233.536C323.191 226.886 251.982 219.698 163.974 217.481C75.967 215.264 4.48762 218.857 4.32083 225.507C4.15403 232.156 75.3629 239.344 163.37 241.561C251.378 243.779 322.857 240.185 323.024 233.536Z" fill="#FFD325"/>
<path d="M31.6867 187.874C31.6867 187.874 33.3842 197.936 40.0023 199.417C46.6205 200.899 97.1659 201.254 97.1659 201.254L95.7215 180.612L31.6867 187.874Z" fill="#161742"/>
<path d="M246.423 186.937L92.9878 184.512L90.9224 201.166C90.9224 201.166 214.453 203.422 235.519 201.23C256.578 199.045 246.423 186.937 246.423 186.937Z" fill="#161742"/>
<path d="M135.174 130.194C135.258 130.197 135.349 130.204 135.434 130.207L135.42 130.221C135.42 130.221 109.012 130.113 87.0514 128.97C82.4953 128.729 78.7593 127.59 74.6622 124.312C74.8782 105.917 76.1505 87.5277 78.459 69.2706C78.7121 67.2954 79.0867 65.1071 80.6493 63.8659C81.7731 62.973 83.2749 62.7701 84.6957 62.5942C101 60.6156 117.304 58.6404 137.067 61.9144C134.597 81.6596 133.601 108.521 135.174 130.197V130.194Z" fill="#161742"/>
<path d="M143.219 136.103C143.067 132.835 140.405 130.245 137.141 130.235C136.625 130.235 136.078 130.241 135.434 130.204L135.42 130.218C135.42 130.218 109.012 130.109 87.0514 128.966C82.4953 128.726 78.7593 127.586 74.6622 124.309C74.426 143.807 75.3676 163.326 77.487 182.716C98.9512 184.397 118.417 184.989 142.339 185.29C143.26 165.599 143.918 150.934 143.216 136.099L143.219 136.103Z" fill="#1D478E"/>
<path d="M134.404 187.495C134.404 187.495 104.014 200.09 97.581 200.012C92.7482 199.955 91.1215 174.386 90.6153 161.648C90.4364 157.414 90.3959 154.6 90.3959 154.6C90.3959 154.6 130.996 153.714 133.628 157.005C133.78 157.197 133.915 157.475 134.043 157.826C136.051 163.6 134.404 187.495 134.404 187.495Z" fill="#1D478E"/>
<path d="M134.033 157.826C133.021 157.062 131.583 157.214 130.283 157.201C126.598 157.153 100.797 160.363 90.6119 161.648C90.433 157.414 90.3925 154.6 90.3925 154.6C90.3925 154.6 130.992 153.714 133.625 157.005C133.776 157.197 133.911 157.475 134.033 157.826Z" fill="#161742"/>
<path d="M312.739 208.836C312.601 219.994 304.95 232.86 287.347 231.994C286.408 231.984 285.477 231.92 284.572 231.795C272.963 230.266 264.063 220.245 264.222 208.221C264.37 196.404 273.206 186.741 284.559 185.236C285.666 185.087 286.797 185.019 287.944 185.039C305.834 185.276 312.871 198.632 312.739 208.836Z" fill="#161742"/>
<path d="M306.931 208.779C306.806 218.892 299.027 230.391 284.569 231.805C272.96 230.276 264.06 220.255 264.219 208.231C264.367 196.414 273.202 186.751 284.556 185.246C299.604 187.282 307.056 199.383 306.934 208.779H306.931Z" fill="#FFF3EB"/>
<path d="M285.355 225.605C294.785 225.605 302.429 217.945 302.429 208.495C302.429 199.045 294.785 191.384 285.355 191.384C275.926 191.384 268.282 199.045 268.282 208.495C268.282 217.945 275.926 225.605 285.355 225.605Z" fill="#1D478E"/>
<path d="M284.012 217.874C289.188 217.874 293.384 213.669 293.384 208.481C293.384 203.294 289.188 199.089 284.012 199.089C278.836 199.089 274.64 203.294 274.64 208.481C274.64 213.669 278.836 217.874 284.012 217.874Z" fill="#1D478E"/>
<path d="M271.336 182.76L280.604 209.858C281.167 211.508 283.047 212.293 284.613 211.529C285.902 210.9 286.54 209.425 286.111 208.048L278.079 182.192" fill="#161742"/>
<path d="M312.206 189.852C302.871 182.997 289.733 183.507 279.743 186.873C278.468 187.306 277.3 187.779 276.223 188.3C268.886 191.834 265.92 197.344 262.359 204.335C257.84 198.264 257.651 186.612 266.028 178.377C272.565 171.944 282.126 168.46 291.16 169.938C291.211 169.945 291.252 169.955 291.302 169.962C291.808 170.039 292.308 170.144 292.801 170.249C300.229 171.961 306.752 177.149 310.144 183.879C310.144 183.886 310.151 183.886 310.151 183.886C311.103 185.767 311.808 187.766 312.206 189.849V189.852Z" fill="#32B353"/>
<path d="M291.164 169.938C287.38 170.713 283.823 172.499 281.187 175.14C277.674 178.654 275.933 183.558 276.223 188.307C268.886 191.834 265.926 197.351 262.359 204.335C257.84 198.264 257.644 186.612 266.021 178.377C272.565 171.944 282.126 168.467 291.16 169.938H291.164Z" fill="#31A048"/>
<path d="M310.144 183.883C308.345 182.483 306.266 181.383 304.123 180.663C298.69 178.82 292.841 178.847 287.127 178.272C285.845 178.147 284.275 177.747 283.975 176.479C283.746 175.505 284.448 174.575 285.156 173.861C286.898 172.133 289.017 170.814 291.315 169.952C291.822 170.029 292.321 170.134 292.814 170.239C300.235 171.957 306.766 177.145 310.151 183.879L310.144 183.883Z" fill="#32B353"/>
<path d="M199.208 55.9423L198.165 139.121L201.861 139.167L202.904 55.9888L199.208 55.9423Z" fill="#161742"/>
<path d="M197.396 125.909L196.529 192.095L226.029 191.516C226.029 191.516 226.056 145.451 225.37 143.699C225.07 142.928 203.603 142.762 203.603 142.762L203.272 125.865L197.393 125.905L197.396 125.909Z" fill="#1D478E"/>
<path d="M159.263 147.156L156.547 138.227L198.176 133.532L200.596 155.324L160.637 158.699L159.263 147.156Z" fill="#1D478E"/>
<path d="M216.549 190.468L182.813 199.637L162.497 199.306L160.789 163.769L159.699 159.379C159.699 159.379 163.995 158.696 169.425 157.88C177.572 156.656 188.301 155.127 190.974 155.158C195.422 155.212 216.228 154.772 216.684 156.352C216.731 156.504 216.761 156.917 216.798 157.546C217.146 163.38 216.549 190.464 216.549 190.464V190.468Z" fill="#1D478E"/>
<path d="M216.927 160.738L180.498 164.672L173.931 165.298L169.432 157.88C177.579 156.656 188.308 155.127 190.981 155.158C195.429 155.212 216.235 154.772 216.69 156.352C216.738 156.504 216.889 160.103 216.927 160.738Z" fill="#161742"/>
<path d="M157.985 66.4511L156.942 149.629L160.637 149.676L161.68 66.4976L157.985 66.4511Z" fill="#1D478E"/>
<path d="M156.169 136.417L155.683 201.213C161.548 201.518 178.109 201.927 184.808 201.298C184.808 201.298 184.825 155.963 184.136 154.214C183.836 153.443 162.368 153.277 162.368 153.277L162.038 136.38L156.165 136.414L156.169 136.417Z" fill="#31A048"/>
<path d="M287.671 148.265C287.789 156.507 287.721 163.102 287.721 163.102C287.721 163.102 274.562 170.242 266.702 182.377C258.836 194.503 258.019 199.951 253.382 201.957C252.595 202.295 250.085 202.606 246.359 202.87C228.155 204.193 180.836 204.686 162.52 204.453C140.459 204.176 88.6949 202.529 84.2029 201.872C79.711 201.223 79.0428 186.003 55.341 184.657C36.4013 183.582 29.5773 197.52 28.3758 201.609L21.1502 199.373C21.1502 199.373 21.2515 196.644 22.0209 193.373C21.3088 191.327 20.5664 187.955 20.2221 182.472C19.9758 178.576 20.5799 167.476 21.7543 153.575C22.2909 147.253 22.9423 140.344 23.6814 133.275C54.7403 135.828 90.8548 135.311 100.936 135.084H100.942C102.711 135.051 103.673 135.023 103.673 135.023L103.774 134.902C104.496 134.946 108.758 135.402 110.503 139.982C111.965 143.81 111.664 176.452 111.431 191.675C111.415 192.622 111.404 193.498 111.398 194.296C111.344 197.492 111.3 199.441 111.3 199.441C139.483 201.906 194.872 201.683 228.965 200.405C229.798 196.018 230.497 191.361 231.057 186.538C233.295 167.743 233.72 146.195 233.403 126.74C233.392 126.054 233.379 125.388 233.362 124.725C232.775 94.1937 230.402 69.3245 230.402 69.3245L229.886 69.3177L230.267 68.9491C231.084 67.3797 232.13 65.7732 233.335 64.2546C236.474 60.3177 240.675 56.9863 244.58 56.391C247.726 57.9671 249.605 59.6649 251.019 61.3594C251.323 61.7213 251.596 62.0731 251.866 62.435C252.025 62.648 252.17 62.8544 252.325 63.0607C253.169 64.2444 253.918 65.4147 254.867 66.5003C257.941 70.0821 272.808 91.9141 281.039 108.372C281.238 108.757 281.424 109.14 281.609 109.518C281.721 109.755 281.832 109.989 281.943 110.219C284.1 114.7 285.689 118.677 286.294 121.66C286.381 122.107 286.456 122.533 286.51 122.942C286.51 123.02 286.526 123.101 286.53 123.179C286.557 123.375 286.574 123.571 286.601 123.764C286.847 126.125 287.026 128.902 287.181 131.848C287.444 137.131 287.579 143.019 287.66 148.258L287.671 148.265Z" fill="#32B353"/>
<path d="M111.442 191.675C111.425 192.622 111.415 193.498 111.408 194.297C110.308 193.975 109.218 193.654 108.124 193.343C109.373 179.303 109.481 165.162 108.435 151.109C108.107 146.773 107.594 142.221 105.016 138.724C103.912 137.225 102.518 136.038 100.952 135.091C102.721 135.058 103.683 135.03 103.683 135.03L103.784 134.909C104.506 134.953 108.769 135.409 110.513 139.989C111.965 143.811 111.668 176.452 111.435 191.675H111.442Z" fill="#31A048"/>
<path d="M287.721 163.103C287.721 163.103 274.563 170.242 266.696 182.371C258.832 194.503 258.012 199.955 253.385 201.95C252.599 202.289 250.088 202.6 246.362 202.87C228.158 204.193 180.839 204.687 162.524 204.453C140.452 204.176 88.6983 202.529 84.2064 201.873C79.7144 201.223 79.0462 186.003 55.3445 184.657C36.4047 183.582 29.5807 197.513 28.3725 201.602L21.1537 199.373C21.1537 199.373 21.2482 196.644 22.0176 193.373C21.3055 191.327 20.5631 187.955 20.2188 182.472C19.9725 178.576 20.5833 167.476 21.751 153.575C23.101 154.904 24.6028 156.091 26.1924 157.069C33.3302 161.462 41.926 162.666 50.2552 163.59C58.5844 164.513 67.1498 165.311 74.6555 169.065C83.7406 173.611 90.3588 182.039 99.1841 187.069C103.089 189.294 107.189 190.769 111.438 191.675C111.371 196.393 111.307 199.434 111.307 199.434C139.49 201.9 194.879 201.67 228.971 200.398C229.805 196.011 230.497 191.361 231.064 186.531C237.334 185.225 243.419 183.267 249.268 180.328C268.201 170.817 280.836 152.395 287.174 131.854C287.88 145.481 287.718 163.099 287.718 163.099L287.721 163.103Z" fill="#32B353"/>
<path d="M287.671 148.265C281.805 159.128 273.358 168.605 263.115 175.471C266.648 166.759 270.185 158.036 273.726 149.317C267.604 148.41 263.402 147.592 259.528 145.968C258.218 145.431 256.713 144.287 257.158 142.935C257.476 141.988 258.589 141.622 259.555 141.379C263.554 140.388 267.539 139.397 271.539 138.406C272.308 132.247 272.484 127.059 271.967 121.951C267.857 99.2164 255.468 77.4419 237.473 62.1544C236.042 62.4859 234.651 63.2401 233.349 64.248C236.487 60.3111 240.689 56.9797 244.594 56.3844C247.739 57.9605 249.619 59.6584 251.033 61.3528C251.337 61.7147 251.61 62.0665 251.88 62.4284C252.039 62.6414 252.184 62.8478 252.339 63.0541C253.183 64.2378 253.932 65.4081 254.88 66.4938C257.955 70.0755 272.821 91.9075 281.052 108.365C281.252 108.751 281.437 109.133 281.623 109.512C281.734 109.749 281.846 109.982 281.957 110.212C284.113 114.693 285.703 118.671 286.307 121.654C286.395 122.1 286.469 122.526 286.523 122.936C286.523 123.013 286.54 123.095 286.543 123.172C286.57 123.369 286.587 123.565 286.614 123.758C286.861 126.118 287.039 128.895 287.195 131.841C287.451 137.137 287.59 143.026 287.667 148.265H287.671Z" fill="#31A048"/>
<path d="M287.721 163.103C287.721 163.103 274.563 170.242 266.696 182.371C258.832 194.503 258.012 199.955 253.385 201.95C252.599 202.289 250.088 202.6 246.362 202.87C262.538 192.196 284.076 154.299 283.651 124.248C284.478 124.079 285.467 123.714 286.537 123.183C287.971 136.211 287.721 163.106 287.721 163.106V163.103Z" fill="#31A048"/>
<path d="M286.601 123.775C283.411 125.31 279.578 125.682 276.048 125.888C262.855 126.653 249.484 126.947 236.251 126.781C235.306 126.771 234.364 126.754 233.42 126.741C233.409 126.061 233.396 125.388 233.379 124.725C247.506 124.979 261.822 124.694 275.929 123.883C279.476 123.68 283.33 123.298 286.3 121.661C286.395 122.114 286.462 122.54 286.51 122.942C286.52 123.027 286.526 123.101 286.53 123.186C286.557 123.375 286.574 123.572 286.601 123.771V123.775Z" fill="#161742"/>
<path d="M273.442 129.156C273.243 129.034 273.02 128.865 272.781 128.675C272.123 128.168 271.292 127.938 270.462 128.036C265.508 128.604 260.213 128.817 255.046 128.986C253.571 129.034 252.353 130.194 252.272 131.669C252.194 133.184 252.278 134.743 252.501 136.231C252.704 137.564 253.807 138.572 255.147 138.666C261.158 139.099 266.989 138.947 272.855 137.625C273.628 137.449 274.262 136.877 274.512 136.123C275.308 133.769 275.852 130.579 273.442 129.152V129.156Z" fill="#161742"/>
<path d="M253.183 135.058C253.159 134.239 253.159 133.397 253.189 132.507C253.243 130.894 254.536 129.592 256.153 129.575C261.33 129.518 266.53 129.166 271.829 128.658C273.489 128.503 274.974 129.731 275.113 131.398C275.177 132.21 275.227 133.035 275.258 133.86C275.319 135.345 274.313 136.667 272.858 136.958C268.073 137.902 260.786 138.267 256.031 138.003C254.462 137.905 253.22 136.623 253.183 135.054V135.058Z" fill="#FFF3EB"/>
<path d="M254.266 134.797C254.215 134.239 254.185 133.664 254.178 133.096C254.148 131.486 255.468 130.35 257.074 130.333C259.541 130.309 262.011 130.123 264.458 130.18C263.189 134.445 265.785 135.994 268.076 136.793C264.624 137.293 260.965 137.547 257.54 137.554C255.856 137.557 254.421 136.468 254.263 134.79L254.266 134.797Z" fill="#E2E2E2"/>
<path d="M271.596 129.626C268.235 129.893 264.88 130.16 261.515 130.417C261.306 130.437 261.09 130.458 260.918 130.573C260.506 130.864 260.665 131.56 261.077 131.844C261.488 132.129 262.035 132.112 262.531 132.085C265.282 131.953 268.025 131.824 270.776 131.685C271.201 131.669 271.65 131.641 272.035 131.455C272.423 131.269 272.747 130.884 272.713 130.448C272.69 130.035 272.19 129.67 271.593 129.622L271.596 129.626Z" fill="#707070"/>
<path d="M281.616 109.519C280.86 109.742 280.091 109.952 279.318 110.154C277.715 110.577 276.095 110.956 274.468 111.281C267.661 112.671 260.692 113.239 253.75 112.972C253.247 112.952 252.758 112.935 252.251 112.901H252.245L251.742 112.874C250.692 112.566 249.791 112.143 249.001 111.633C247.763 110.848 246.801 109.857 245.967 108.758C245.184 106.201 244.452 103.62 243.787 101.033C241.438 92.0294 239.801 82.9042 238.924 73.6878C239.356 71.3236 240.358 69.3755 241.772 67.8027C242.636 66.3653 243.936 65.3337 245.444 64.5558C246.754 63.8828 248.201 63.389 249.653 62.9967C249.724 62.9797 249.778 62.9662 249.848 62.9425C250.513 62.7701 251.188 62.6043 251.87 62.4386C252.029 62.6517 252.174 62.858 252.319 63.0711C252.768 63.7035 253.193 64.3292 253.635 64.9414C254.02 65.4758 254.418 66.0068 254.86 66.5141C255.171 66.876 255.599 67.4206 256.126 68.1274V68.1342C259.811 73.035 268.346 85.6945 275.447 98.0429C277.04 100.816 278.562 103.563 279.939 106.207C280.317 106.941 280.685 107.658 281.046 108.379C281.245 108.758 281.437 109.14 281.616 109.519Z" fill="#E2E2E2"/>
<path opacity="0.28" d="M249.011 111.632C247.773 110.848 246.811 109.857 245.977 108.758C245.194 106.201 244.462 103.62 243.797 101.033C245.356 89.1003 245.907 76.965 245.454 64.549C246.764 63.8759 248.212 63.3821 249.663 62.9898C249.734 62.9729 249.788 62.9593 249.859 62.9357C250.814 79.1566 250.527 95.452 249.015 111.629L249.011 111.632Z" fill="#E2E2E2"/>
<path opacity="0.28" d="M253.76 112.975C253.257 112.955 252.768 112.938 252.261 112.904C254.587 97.0417 255.052 80.9087 253.649 64.938C254.033 65.4724 254.431 66.0034 254.874 66.5107C255.184 66.8726 255.613 67.4171 256.139 68.124V68.1308C256.386 83.1172 255.586 98.1105 253.76 112.979V112.975Z" fill="#E2E2E2"/>
<path opacity="0.28" d="M279.945 106.204C279.756 107.526 279.547 108.842 279.318 110.151C277.715 110.574 276.095 110.953 274.468 111.277C275.258 106.911 275.585 102.47 275.454 98.0293C277.046 100.809 278.569 103.556 279.945 106.201V106.204Z" fill="#E2E2E2"/>
<path d="M281.95 110.219C272.271 112.667 261.843 114.051 253.446 113.963H253.419C249.173 113.912 245.424 111.007 244.293 106.891C241.82 97.8771 239.704 87.673 237.999 76.5592C237.253 71.6821 239.602 66.8252 243.858 64.4543C246.166 63.1657 248.569 62.1341 251.023 61.3596C251.505 61.9278 251.927 62.4994 252.329 63.0676C249.757 63.8185 247.24 64.8737 244.83 66.2131C241.31 68.1713 239.366 72.2131 239.984 76.2582C241.674 87.2942 243.764 97.4171 246.224 106.36C247.122 109.613 250.085 111.91 253.436 111.95H253.456C261.576 112.032 271.647 110.712 281.042 108.379C281.366 108.994 281.67 109.617 281.954 110.219H281.95Z" fill="#161742"/>
<path d="M244.59 56.398C242.029 56.7903 239.353 58.3461 236.919 60.4803C234.209 62.858 231.816 65.9628 230.271 68.956L229.896 69.3247L104.607 68.2356C104.601 68.2695 104.601 68.3067 104.597 68.3337C104.574 68.5502 104.547 68.7836 104.523 69C100.217 104.418 103.669 134.899 103.669 134.899C103.669 134.899 103.71 134.899 103.774 134.909L103.673 135.037C103.673 135.037 60.1908 136.289 23.6781 133.278C26.4691 106.519 30.5493 77.4149 34.3967 68.4859C34.4743 68.3168 34.5418 68.1511 34.6127 67.9887C34.6532 67.9109 34.6835 67.8264 34.7308 67.7486C35.804 65.513 37.0561 63.4532 38.4566 61.5457C44.7879 52.9583 54.1667 47.6956 63.7007 45.4837C75.4283 42.761 206.704 48.1488 228.489 51.7982C236.116 53.0699 241.121 54.6562 244.587 56.398H244.59Z" fill="#FFD325"/>
<path d="M244.59 56.398C242.029 56.7903 239.353 58.3461 236.919 60.4803C234.786 58.6742 231.182 58.2108 228.168 57.9842C182.054 54.5513 137.479 54.345 91.6682 52.8568C79.8292 52.4713 66.927 52.7587 55.3445 55.2379C49.4722 56.4893 43.6674 58.5592 38.4566 61.5457C44.7879 52.9583 54.1667 47.6956 63.7007 45.4837C75.4283 42.761 206.704 48.1488 228.489 51.7982C236.116 53.0699 241.121 54.6562 244.587 56.398H244.59Z" fill="#ECBE25"/>
<path d="M34.7342 67.7453C38.8852 67.1432 43.249 67.1974 47.535 67.2447L48.4024 67.2616C53.6334 67.3293 59.3032 67.3496 64.7908 67.3766C79.4512 67.4476 94.5605 67.5221 104.594 68.327C104.57 68.5435 104.543 68.7768 104.52 68.9933C94.5166 68.1782 79.4276 68.1139 64.7874 68.0395C59.3066 68.0192 53.6301 67.9922 48.3923 67.9245L47.5249 67.9076C43.1207 67.8535 38.6288 67.7926 34.3967 68.4758" fill="#161742"/>
<path d="M79.2182 200.036C76.1875 188.848 65.6782 177.791 49.4079 183.01C48.5338 183.25 47.6766 183.548 46.8599 183.893C36.3775 188.297 30.647 200.577 33.9206 212.635C37.1301 224.486 47.9196 232.025 58.9487 230.736C60.0253 230.614 61.1018 230.398 62.1717 230.097C78.8705 225.45 81.9923 210.274 79.2182 200.033V200.036Z" fill="#161742"/>
<path d="M73.7915 201.531C71.0444 191.388 60.7713 181.742 46.8533 183.89C36.371 188.293 30.6404 200.574 33.9141 212.631C37.1236 224.483 47.913 232.021 58.9421 230.733C72.5158 224.976 76.3429 210.957 73.7915 201.531Z" fill="#FFF3EB"/>
<path d="M57.6554 224.474C66.5518 222.404 71.9676 212.972 69.7517 203.406C67.5359 193.841 58.5276 187.765 49.6311 189.835C40.7347 191.904 35.3189 201.337 37.5348 210.902C39.7506 220.467 48.7589 226.544 57.6554 224.474Z" fill="#1D478E"/>
<path d="M54.5986 217.004C59.4826 215.868 62.4557 210.69 61.2392 205.439C60.0228 200.187 55.0774 196.852 50.1934 197.988C45.3094 199.124 42.3363 204.302 43.5528 209.554C44.7692 214.805 49.7146 218.141 54.5986 217.004Z" fill="#1D478E"/>
<path d="M94.5132 204.741C92.8663 204.842 91.2261 204.927 89.5724 205.022C88.8941 205.062 88.2191 205.099 87.5408 205.14C83.8892 205.336 80.5784 203.31 79.2959 200.185C78.1789 197.429 76.7715 194.74 75.1482 192.081C64.001 189.666 52.4117 188.936 40.2116 189.606C35.9356 192.852 33.3673 196.833 31.1534 201.321C30.3502 202.942 28.4535 203.868 26.5299 203.591C23.2664 203.111 20.5327 202.597 18.2344 202.072C19.959 196.028 22.6251 190.204 26.162 184.749C28.0755 181.789 30.6067 179.276 33.553 177.298C38.001 174.305 43.4143 172.546 49.128 172.37C56.4278 172.15 63.8323 172.705 71.2233 174.068C78.6851 175.434 85.0332 179.858 88.4081 186.078C91.5332 191.821 93.5851 198.149 94.5132 204.744V204.741Z" fill="#31A048"/>
<path d="M94.5132 204.741C92.8663 204.842 91.2261 204.927 89.5724 205.021C88.2562 197.401 86.1199 189.758 80.4603 184.728C74.8074 179.712 66.8596 178.434 59.3808 177.413C50.8424 176.249 41.7606 175.265 33.553 177.281C38.001 174.287 43.4143 172.529 49.128 172.353C56.4278 172.133 63.8323 172.688 71.2233 174.051C78.6851 175.417 85.0332 179.841 88.4081 186.061C91.5332 191.817 93.5851 198.145 94.5132 204.741Z" fill="#32B353"/>
</svg>
