<svg width="313" height="361" viewBox="0 0 313 361" fill="none" xmlns="http://www.w3.org/2000/svg">
<path opacity="0.27" d="M185.207 380.239C269.821 380.239 338.414 368.769 338.414 354.62C338.414 340.47 269.821 329 185.207 329C100.593 329 32 340.47 32 354.62C32 368.769 100.593 380.239 185.207 380.239Z" fill="#FFD325"/>
<g opacity="0.88">
<g opacity="0.54">
<path d="M263.383 63.8756C263.801 63.8756 264.14 63.5261 264.14 63.0949C264.14 62.6636 263.801 62.3141 263.383 62.3141C262.965 62.3141 262.627 62.6636 262.627 63.0949C262.627 63.5261 262.965 63.8756 263.383 63.8756Z" fill="#161741"/>
<path d="M242.125 98.9207C242.495 98.9207 242.795 98.6112 242.795 98.2293C242.795 97.8474 242.495 97.5378 242.125 97.5378C241.755 97.5378 241.455 97.8474 241.455 98.2293C241.455 98.6112 241.755 98.9207 242.125 98.9207Z" fill="#161741"/>
<path d="M278.009 86.4384C278.431 86.4384 278.772 86.0859 278.772 85.651C278.772 85.2162 278.431 84.8636 278.009 84.8636C277.588 84.8636 277.246 85.2162 277.246 85.651C277.246 86.0859 277.588 86.4384 278.009 86.4384Z" fill="#161741"/>
<path d="M261.396 94.5505C261.791 94.5505 262.111 94.2202 262.111 93.8127C262.111 93.4052 261.791 93.075 261.396 93.075C261.001 93.075 260.681 93.4052 260.681 93.8127C260.681 94.2202 261.001 94.5505 261.396 94.5505Z" fill="#161741"/>
<path d="M243.042 65.9765C243.548 65.9765 243.959 65.5529 243.959 65.0303C243.959 64.5077 243.548 64.0841 243.042 64.0841C242.536 64.0841 242.125 64.5077 242.125 65.0303C242.125 65.5529 242.536 65.9765 243.042 65.9765Z" fill="#161741"/>
<path d="M249.536 32.9494C249.964 32.9494 250.312 32.5909 250.312 32.1488C250.312 31.7066 249.964 31.3481 249.536 31.3481C249.108 31.3481 248.76 31.7066 248.76 32.1488C248.76 32.5909 249.108 32.9494 249.536 32.9494Z" fill="#161741"/>
<path d="M239.622 46.2257C239.91 46.2257 240.144 45.9843 240.144 45.6865C240.144 45.3887 239.91 45.1472 239.622 45.1472C239.333 45.1472 239.099 45.3887 239.099 45.6865C239.099 45.9843 239.333 46.2257 239.622 46.2257Z" fill="#161741"/>
<path d="M250.421 94.5504C250.908 94.5504 251.302 94.1431 251.302 93.6406C251.302 93.1382 250.908 92.7308 250.421 92.7308C249.934 92.7308 249.539 93.1382 249.539 93.6406C249.539 94.1431 249.934 94.5504 250.421 94.5504Z" fill="#161741"/>
<path d="M236.846 85.7139C237.273 85.7139 237.619 85.3569 237.619 84.9166C237.619 84.4762 237.273 84.1193 236.846 84.1193C236.419 84.1193 236.074 84.4762 236.074 84.9166C236.074 85.3569 236.419 85.7139 236.846 85.7139Z" fill="#161741"/>
</g>
<g opacity="0.54">
<path d="M210.783 63.8756C211.201 63.8756 211.54 63.5261 211.54 63.0949C211.54 62.6636 211.201 62.3141 210.783 62.3141C210.365 62.3141 210.027 62.6636 210.027 63.0949C210.027 63.5261 210.365 63.8756 210.783 63.8756Z" fill="#161741"/>
<path d="M235.279 64.9971C235.769 64.9971 236.167 64.5868 236.167 64.0807C236.167 63.5746 235.769 63.1643 235.279 63.1643C234.788 63.1643 234.391 63.5746 234.391 64.0807C234.391 64.5868 234.788 64.9971 235.279 64.9971Z" fill="#161741"/>
<path d="M189.525 98.9207C189.895 98.9207 190.195 98.6112 190.195 98.2293C190.195 97.8474 189.895 97.5378 189.525 97.5378C189.155 97.5378 188.855 97.8474 188.855 98.2293C188.855 98.6112 189.155 98.9207 189.525 98.9207Z" fill="#161741"/>
<path d="M225.409 86.4384C225.831 86.4384 226.172 86.0859 226.172 85.651C226.172 85.2162 225.831 84.8636 225.409 84.8636C224.988 84.8636 224.646 85.2162 224.646 85.651C224.646 86.0859 224.988 86.4384 225.409 86.4384Z" fill="#161741"/>
<path d="M208.799 94.5505C209.194 94.5505 209.514 94.2202 209.514 93.8127C209.514 93.4052 209.194 93.075 208.799 93.075C208.404 93.075 208.084 93.4052 208.084 93.8127C208.084 94.2202 208.404 94.5505 208.799 94.5505Z" fill="#161741"/>
<path d="M190.442 65.9765C190.948 65.9765 191.359 65.5529 191.359 65.0303C191.359 64.5077 190.948 64.0841 190.442 64.0841C189.936 64.0841 189.525 64.5077 189.525 65.0303C189.525 65.5529 189.936 65.9765 190.442 65.9765Z" fill="#161741"/>
<path d="M200.536 59.0091C201.141 59.0091 201.632 58.5025 201.632 57.8777C201.632 57.2528 201.141 56.7462 200.536 56.7462C199.93 56.7462 199.44 57.2528 199.44 57.8777C199.44 58.5025 199.93 59.0091 200.536 59.0091Z" fill="#161741"/>
<path d="M227.926 71.4782C228.251 71.4782 228.515 71.2057 228.515 70.8695C228.515 70.5333 228.251 70.2607 227.926 70.2607C227.6 70.2607 227.336 70.5333 227.336 70.8695C227.336 71.2057 227.6 71.4782 227.926 71.4782Z" fill="#161741"/>
<path d="M196.939 32.9494C197.368 32.9494 197.715 32.5909 197.715 32.1488C197.715 31.7066 197.368 31.3481 196.939 31.3481C196.511 31.3481 196.164 31.7066 196.164 32.1488C196.164 32.5909 196.511 32.9494 196.939 32.9494Z" fill="#161741"/>
<path d="M215.021 36.1552C215.352 36.1552 215.62 35.8782 215.62 35.5365C215.62 35.1948 215.352 34.9178 215.021 34.9178C214.69 34.9178 214.421 35.1948 214.421 35.5365C214.421 35.8782 214.69 36.1552 215.021 36.1552Z" fill="#161741"/>
<path d="M187.022 46.2257C187.31 46.2257 187.544 45.9843 187.544 45.6865C187.544 45.3887 187.31 45.1472 187.022 45.1472C186.733 45.1472 186.499 45.3887 186.499 45.6865C186.499 45.9843 186.733 46.2257 187.022 46.2257Z" fill="#161741"/>
<path d="M218.675 90.4217C219.181 90.4217 219.592 89.998 219.592 89.4755C219.592 88.9529 219.181 88.5293 218.675 88.5293C218.169 88.5293 217.758 88.9529 217.758 89.4755C217.758 89.998 218.169 90.4217 218.675 90.4217Z" fill="#161741"/>
<path d="M197.821 94.5504C198.308 94.5504 198.702 94.1431 198.702 93.6406C198.702 93.1382 198.308 92.7308 197.821 92.7308C197.334 92.7308 196.939 93.1382 196.939 93.6406C196.939 94.1431 197.334 94.5504 197.821 94.5504Z" fill="#161741"/>
<path d="M184.249 85.7139C184.676 85.7139 185.022 85.3569 185.022 84.9166C185.022 84.4762 184.676 84.1193 184.249 84.1193C183.823 84.1193 183.477 84.4762 183.477 84.9166C183.477 85.3569 183.823 85.7139 184.249 85.7139Z" fill="#161741"/>
</g>
<g opacity="0.54">
<path d="M49.6657 240.415C50.4305 240.415 51.0504 239.775 51.0504 238.985C51.0504 238.196 50.4305 237.556 49.6657 237.556C48.901 237.556 48.281 238.196 48.281 238.985C48.281 239.775 48.901 240.415 49.6657 240.415Z" fill="#161741"/>
<path d="M83.5304 127.127C84.1924 127.127 84.7292 126.574 84.7292 125.89C84.7292 125.207 84.1924 124.653 83.5304 124.653C82.8683 124.653 82.3315 125.207 82.3315 125.89C82.3315 126.574 82.8683 127.127 83.5304 127.127Z" fill="#161741"/>
<path d="M51.6819 124.309C52.3688 124.309 52.9256 123.734 52.9256 123.025C52.9256 122.316 52.3688 121.742 51.6819 121.742C50.995 121.742 50.4382 122.316 50.4382 123.025C50.4382 123.734 50.995 124.309 51.6819 124.309Z" fill="#161741"/>
<path d="M300.726 27.2987C301.49 27.2987 302.11 26.6588 302.11 25.8695C302.11 25.0802 301.49 24.4403 300.726 24.4403C299.961 24.4403 299.341 25.0802 299.341 25.8695C299.341 26.6588 299.961 27.2987 300.726 27.2987Z" fill="#161741"/>
<path d="M50.435 94.964C50.8617 94.964 51.2075 94.607 51.2075 94.1667C51.2075 93.7264 50.8617 93.3694 50.435 93.3694C50.0084 93.3694 49.6625 93.7264 49.6625 94.1667C49.6625 94.607 50.0084 94.964 50.435 94.964Z" fill="#161741"/>
</g>
<g opacity="0.54">
<path d="M115.328 173.166C115.745 173.166 116.084 172.817 116.084 172.385C116.084 171.954 115.745 171.605 115.328 171.605C114.91 171.605 114.571 171.954 114.571 172.385C114.571 172.817 114.91 173.166 115.328 173.166Z" fill="#161741"/>
<path d="M79.3506 220.535C79.7206 220.535 80.0205 220.225 80.0205 219.844C80.0205 219.462 79.7206 219.152 79.3506 219.152C78.9806 219.152 78.6807 219.462 78.6807 219.844C78.6807 220.225 78.9806 220.535 79.3506 220.535Z" fill="#161741"/>
<path d="M115.328 189.781C115.749 189.781 116.09 189.428 116.09 188.993C116.09 188.558 115.749 188.206 115.328 188.206C114.906 188.206 114.565 188.558 114.565 188.993C114.565 189.428 114.906 189.781 115.328 189.781Z" fill="#161741"/>
<path d="M113.34 203.841C113.735 203.841 114.055 203.511 114.055 203.103C114.055 202.696 113.735 202.366 113.34 202.366C112.946 202.366 112.625 202.696 112.625 203.103C112.625 203.511 112.946 203.841 113.34 203.841Z" fill="#161741"/>
<path d="M73.5777 192.322C74.084 192.322 74.4944 191.898 74.4944 191.375C74.4944 190.853 74.084 190.429 73.5777 190.429C73.0714 190.429 72.6609 190.853 72.6609 191.375C72.6609 191.898 73.0714 192.322 73.5777 192.322Z" fill="#161741"/>
<path d="M132.467 180.769C132.792 180.769 133.056 180.496 133.056 180.16C133.056 179.824 132.792 179.551 132.467 179.551C132.141 179.551 131.877 179.824 131.877 180.16C131.877 180.496 132.141 180.769 132.467 180.769Z" fill="#161741"/>
<path d="M101.48 142.24C101.909 142.24 102.256 141.882 102.256 141.439C102.256 140.997 101.909 140.639 101.48 140.639C101.052 140.639 100.705 140.997 100.705 141.439C100.705 141.882 101.052 142.24 101.48 142.24Z" fill="#161741"/>
<path d="M119.562 145.443C119.893 145.443 120.161 145.166 120.161 144.824C120.161 144.482 119.893 144.205 119.562 144.205C119.231 144.205 118.962 144.482 118.962 144.824C118.962 145.166 119.231 145.443 119.562 145.443Z" fill="#161741"/>
<path d="M64.5675 249.714C64.856 249.714 65.0899 249.473 65.0899 249.175C65.0899 248.877 64.856 248.636 64.5675 248.636C64.2789 248.636 64.045 248.877 64.045 249.175C64.045 249.473 64.2789 249.714 64.5675 249.714Z" fill="#161741"/>
<path d="M123.216 199.712C123.722 199.712 124.133 199.289 124.133 198.766C124.133 198.244 123.722 197.82 123.216 197.82C122.71 197.82 122.299 198.244 122.299 198.766C122.299 199.289 122.71 199.712 123.216 199.712Z" fill="#161741"/>
<path d="M66.0419 214.484C66.5288 214.484 66.9234 214.077 66.9234 213.574C66.9234 213.072 66.5288 212.664 66.0419 212.664C65.5551 212.664 65.1605 213.072 65.1605 213.574C65.1605 214.077 65.5551 214.484 66.0419 214.484Z" fill="#161741"/>
<path d="M42.9793 221.336C43.406 221.336 43.7518 220.979 43.7518 220.538C43.7518 220.098 43.406 219.741 42.9793 219.741C42.5527 219.741 42.2068 220.098 42.2068 220.538C42.2068 220.979 42.5527 221.336 42.9793 221.336Z" fill="#161741"/>
</g>
<g opacity="0.54">
<path d="M252.732 232.041C253.15 232.041 253.488 231.692 253.488 231.26C253.488 230.829 253.15 230.48 252.732 230.48C252.314 230.48 251.975 230.829 251.975 231.26C251.975 231.692 252.314 232.041 252.732 232.041Z" fill="#161741"/>
<path d="M277.227 233.163C277.718 233.163 278.115 232.752 278.115 232.246C278.115 231.74 277.718 231.33 277.227 231.33C276.737 231.33 276.339 231.74 276.339 232.246C276.339 232.752 276.737 233.163 277.227 233.163Z" fill="#161741"/>
<path d="M231.474 267.086C231.844 267.086 232.144 266.777 232.144 266.395C232.144 266.013 231.844 265.703 231.474 265.703C231.104 265.703 230.804 266.013 230.804 266.395C230.804 266.777 231.104 267.086 231.474 267.086Z" fill="#161741"/>
<path d="M267.358 254.604C267.779 254.604 268.121 254.252 268.121 253.817C268.121 253.382 267.779 253.029 267.358 253.029C266.937 253.029 266.595 253.382 266.595 253.817C266.595 254.252 266.937 254.604 267.358 254.604Z" fill="#161741"/>
<path d="M250.745 262.716C251.139 262.716 251.459 262.386 251.459 261.978C251.459 261.571 251.139 261.241 250.745 261.241C250.35 261.241 250.03 261.571 250.03 261.978C250.03 262.386 250.35 262.716 250.745 262.716Z" fill="#161741"/>
<path d="M232.391 234.139C232.897 234.139 233.307 233.715 233.307 233.193C233.307 232.67 232.897 232.246 232.391 232.246C231.884 232.246 231.474 232.67 231.474 233.193C231.474 233.715 231.884 234.139 232.391 234.139Z" fill="#161741"/>
<path d="M242.481 227.175C243.087 227.175 243.577 226.668 243.577 226.043C243.577 225.418 243.087 224.912 242.481 224.912C241.876 224.912 241.385 225.418 241.385 226.043C241.385 226.668 241.876 227.175 242.481 227.175Z" fill="#161741"/>
<path d="M269.874 239.644C270.2 239.644 270.464 239.371 270.464 239.035C270.464 238.699 270.2 238.426 269.874 238.426C269.548 238.426 269.284 238.699 269.284 239.035C269.284 239.371 269.548 239.644 269.874 239.644Z" fill="#161741"/>
<path d="M238.885 201.115C239.313 201.115 239.66 200.757 239.66 200.314C239.66 199.872 239.313 199.514 238.885 199.514C238.456 199.514 238.109 199.872 238.109 200.314C238.109 200.757 238.456 201.115 238.885 201.115Z" fill="#161741"/>
<path d="M256.966 204.321C257.297 204.321 257.566 204.044 257.566 203.702C257.566 203.36 257.297 203.083 256.966 203.083C256.635 203.083 256.367 203.36 256.367 203.702C256.367 204.044 256.635 204.321 256.966 204.321Z" fill="#161741"/>
<path d="M228.97 214.391C229.259 214.391 229.493 214.15 229.493 213.852C229.493 213.554 229.259 213.313 228.97 213.313C228.682 213.313 228.448 213.554 228.448 213.852C228.448 214.15 228.682 214.391 228.97 214.391Z" fill="#161741"/>
<path d="M260.62 258.587C261.127 258.587 261.537 258.164 261.537 257.641C261.537 257.119 261.127 256.695 260.62 256.695C260.114 256.695 259.703 257.119 259.703 257.641C259.703 258.164 260.114 258.587 260.62 258.587Z" fill="#161741"/>
<path d="M239.769 262.716C240.256 262.716 240.651 262.309 240.651 261.806C240.651 261.304 240.256 260.897 239.769 260.897C239.283 260.897 238.888 261.304 238.888 261.806C238.888 262.309 239.283 262.716 239.769 262.716Z" fill="#161741"/>
<path d="M226.195 253.88C226.621 253.88 226.967 253.523 226.967 253.082C226.967 252.642 226.621 252.285 226.195 252.285C225.768 252.285 225.422 252.642 225.422 253.082C225.422 253.523 225.768 253.88 226.195 253.88Z" fill="#161741"/>
</g>
</g>
<path d="M314.438 130.353L267.635 153.045L314.438 162.712V130.353Z" fill="#FFD325"/>
<path d="M141.897 136.318L191.282 149.515L141.897 162.712V136.318Z" fill="#FFD325"/>
<path d="M274.479 89.1678L259.486 113.54L303.64 89.2009L274.479 89.1678Z" fill="#FFD325"/>
<path d="M201.232 89.4822L212.743 108.201L178.838 89.5087L201.232 89.4822Z" fill="#FFD325"/>
<path d="M173.046 89.4822L189.45 116.147L141.15 89.5186L173.046 89.4822Z" fill="#FFD325"/>
<path d="M252.493 89.3498L247.989 101.538L262.556 89.2009L252.493 89.3498Z" fill="#FFD325"/>
<path d="M211.976 89.2009L225.897 103.046L222.664 89.2009H211.976Z" fill="#FFD325"/>
<path d="M231.861 89.201L234.606 101.67L244.029 89.0653L231.861 89.201Z" fill="#FFD325"/>
<path d="M314.438 90.0082L270.167 130.353L314.438 122.367V90.0082Z" fill="#FFD325"/>
<path d="M141.535 95.9731L185.805 136.318L141.535 128.332V95.9731Z" fill="#FFD325"/>
<path d="M263.157 210.774H256.894L284.048 153.298H290.311L263.157 210.774Z" fill="#1D478E"/>
<path d="M287.573 164.861C293.979 164.861 299.173 159.684 299.173 153.298C299.173 146.912 293.979 141.735 287.573 141.735C281.166 141.735 275.972 146.912 275.972 153.298C275.972 159.684 281.166 164.861 287.573 164.861Z" fill="#161742"/>
<path d="M158.977 52.7085H215.189C245.682 52.7085 270.436 77.3853 270.436 107.776V296.651C270.436 319.198 252.071 337.503 229.452 337.503H144.711C122.091 337.503 103.727 319.198 103.727 296.651V107.776C103.727 77.382 128.484 52.7085 158.973 52.7085H158.977Z" fill="#FFF3EB"/>
<path d="M270.439 339.273H103.73C102.751 339.273 101.958 338.482 101.958 337.506V103.316C101.958 74.4342 125.53 50.9385 154.503 50.9385H219.667C248.639 50.9385 272.212 74.4342 272.212 103.316V337.503C272.212 338.479 271.418 339.269 270.439 339.269V339.273ZM105.502 335.739H268.667V103.316C268.667 76.3828 246.684 54.4718 219.667 54.4718H154.503C127.482 54.4718 105.499 76.3828 105.499 103.316V335.736L105.502 335.739Z" fill="#1D478E"/>
<path d="M178.002 3.56311H195.703C220.931 3.56311 241.417 23.9788 241.417 49.1287C241.417 49.2346 241.331 49.3206 241.224 49.3206H132.48C132.374 49.3206 132.288 49.2346 132.288 49.1287C132.288 23.9821 152.77 3.56311 178.002 3.56311Z" fill="#32B353"/>
<path d="M241.341 49.6084H132.606C130.894 49.6084 129.5 48.4505 129.5 47.0313C129.5 22.7746 153.281 3.04041 182.513 3.04041H191.438C220.669 3.04041 244.451 22.7746 244.451 47.0313C244.451 48.4538 243.057 49.6084 241.344 49.6084H241.341ZM133.552 45.5789H240.398C239.897 24.1045 218.127 6.75897 191.438 6.75897H182.513C155.824 6.75897 134.053 24.1045 133.552 45.5789Z" fill="#1D478E"/>
<path d="M289.989 217.896H84.1837V337.506H289.989V217.896Z" fill="#FFF3EB"/>
<path d="M289.989 339.273H84.1837C83.2046 339.273 82.4113 338.482 82.4113 337.506V217.897C82.4113 216.921 83.2046 216.13 84.1837 216.13H289.989C290.968 216.13 291.761 216.921 291.761 217.897V337.506C291.761 338.482 290.968 339.273 289.989 339.273ZM85.9561 335.739H288.217V219.663H85.9561V335.739Z" fill="#1D478E"/>
<path d="M104.042 191.04H270.131L289.989 217.897H84.1837L104.042 191.04Z" fill="#FFF3EB"/>
<path d="M289.989 219.663H84.1837C83.5166 219.663 82.9026 219.289 82.6005 218.694C82.2985 218.098 82.3582 217.387 82.7565 216.848L102.615 189.991C102.947 189.541 103.478 189.273 104.042 189.273H270.134C270.698 189.273 271.226 189.541 271.561 189.991L291.419 216.848C291.818 217.384 291.878 218.098 291.576 218.694C291.273 219.289 290.663 219.663 289.992 219.663H289.989ZM87.692 216.13H286.481L269.238 192.806H104.938L87.692 216.13Z" fill="#1D478E"/>
<path d="M236.345 203.571C236.345 207.025 233.302 209.828 229.545 209.828C225.787 209.828 222.744 207.025 222.744 203.571C222.744 200.118 225.787 197.315 229.545 197.315C233.302 197.315 236.345 200.118 236.345 203.571Z" fill="#E5B313"/>
<path d="M236.345 202.738C236.345 206.192 233.302 208.994 229.545 208.994C225.787 208.994 222.744 206.192 222.744 202.738C222.744 199.284 225.787 196.482 229.545 196.482C233.302 196.482 236.345 199.284 236.345 202.738Z" fill="#FFD325"/>
<path d="M193.983 203.667C193.754 207.115 190.615 209.715 186.974 209.474C183.332 209.232 180.564 206.241 180.793 202.794C181.022 199.347 184.162 196.746 187.803 196.988C191.444 197.229 194.212 200.22 193.983 203.667Z" fill="#E5B313"/>
<path d="M193.997 202.242C193.997 205.695 191.036 208.498 187.388 208.498C183.741 208.498 180.78 205.695 180.78 202.242C180.78 198.788 183.741 195.985 187.388 195.985C191.036 195.985 193.997 198.788 193.997 202.242Z" fill="#FFD325"/>
<path d="M153.178 203.78C153.178 207.234 150.072 210.036 146.241 210.036C142.411 210.036 139.304 207.234 139.304 203.78C139.304 200.326 142.411 197.524 146.241 197.524C150.072 197.524 153.178 200.326 153.178 203.78Z" fill="#E5B313"/>
<path d="M153.178 202.529C153.178 205.983 150.072 208.785 146.241 208.785C142.411 208.785 139.304 205.983 139.304 202.529C139.304 199.075 142.411 196.273 146.241 196.273C150.072 196.273 153.178 199.075 153.178 202.529Z" fill="#FFD325"/>
<path d="M164.586 83.9424H159.757C160.606 84.6835 161.22 85.7455 161.396 87.2309H164.586V88.8421H161.423C161.131 92.1305 158.758 94.2247 155.01 94.3537C157.294 96.964 159.783 100.252 162.243 103.571H159.431C157.148 100.54 155.01 97.7382 152.259 94.5158V92.5176H153.869C157.032 92.5176 158.728 91.0686 158.934 88.8454H152.259V87.2342H158.847C158.439 85.365 156.886 84.4321 154.34 84.4321H152.262V82.3379H164.589V83.949L164.586 83.9424Z" fill="#32B353"/>
<path d="M164.214 104.56H158.934L158.635 104.163C156.338 101.116 154.214 98.3336 151.499 95.1543L151.26 94.8764V91.5218H153.865C155.289 91.5218 156.965 91.2009 157.646 89.8345H151.26V86.2384H157.214C156.73 85.7984 155.873 85.4212 154.333 85.4212H151.26V81.342H165.578V84.9382H161.752C161.951 85.3418 162.11 85.7752 162.223 86.2417H165.578V89.8378H162.279C161.722 92.5573 159.783 94.453 156.952 95.1047C158.944 97.4999 161.041 100.286 163.039 102.982L164.211 104.563L164.214 104.56ZM159.926 102.575H160.261C158.243 99.8753 156.169 97.1889 154.257 95.0021L153.251 93.8508V94.1453C155.77 97.1128 157.789 99.7397 159.926 102.572V102.575ZM159.989 88.2201L159.923 88.928C159.717 91.1612 158.293 92.6962 156.003 93.2619C158.612 92.8583 160.205 91.2538 160.427 88.7494L160.487 88.0745L160.401 87.3434C160.268 86.2218 159.83 85.3286 159.093 84.6868L157.53 83.3204H153.251V83.4296H154.333C158.419 83.4296 159.521 85.676 159.816 87.0125L159.999 87.8429H160.022L160.016 87.919L160.082 88.2167H159.989V88.2201Z" fill="#32B353"/>
<path d="M221.804 83.9424H216.975C217.825 84.6835 218.439 85.7455 218.615 87.2309H221.804V88.8421H218.641C218.349 92.1305 215.976 94.2247 212.229 94.3537C214.512 96.964 217.002 100.252 219.461 103.571H216.65C214.366 100.54 212.229 97.7382 209.477 94.5158V92.5176H211.087C214.25 92.5176 215.946 91.0686 216.152 88.8454H209.477V87.2342H216.066C215.657 85.365 214.104 84.4321 211.558 84.4321H209.48V82.3379H221.808V83.949L221.804 83.9424Z" fill="#32B353"/>
<path d="M221.436 104.56H216.155L215.856 104.163C213.56 101.116 211.439 98.3336 208.72 95.1543L208.481 94.8764V91.5218H211.087C212.511 91.5218 214.187 91.2009 214.867 89.8345H208.481V86.2384H214.436C213.951 85.7984 213.095 85.4212 211.555 85.4212H208.481V81.342H222.8V84.9382H218.973C219.172 85.3418 219.332 85.7752 219.444 86.2417H222.8V89.8378H219.501C218.94 92.5573 217.005 94.453 214.174 95.1047C216.168 97.5032 218.266 100.286 220.261 102.982L221.433 104.563L221.436 104.56ZM217.151 102.575H217.486C215.468 99.8786 213.397 97.1922 211.482 95.0021L210.476 93.8508V94.1453C212.999 97.1128 215.013 99.7397 217.151 102.572V102.575ZM217.214 88.2201L217.148 88.928C216.942 91.1612 215.518 92.6962 213.228 93.2619C215.837 92.8583 217.43 91.2538 217.652 88.7494L217.712 88.0745L217.626 87.3434C217.493 86.2218 217.055 85.3286 216.318 84.6868L214.755 83.3204H210.476V83.4296H211.558C215.644 83.4296 216.746 85.676 217.041 87.0125L217.224 87.8429H217.247L217.241 87.919L217.307 88.2167H217.214V88.2201Z" fill="#32B353"/>
<path d="M195.945 77.951H189.237C190.415 78.9799 191.268 80.4554 191.514 82.5165H195.945V84.753H191.554C191.146 89.3185 187.853 92.2265 182.649 92.4051C185.818 96.0311 189.277 100.593 192.689 105.202H188.786C185.616 100.997 182.645 97.103 178.825 92.6268V89.8511H181.062C185.453 89.8511 187.81 87.8363 188.095 84.7497H178.825V82.5132H187.973C187.405 79.9162 185.248 78.6193 181.713 78.6193H178.825V75.7113H195.942V77.9477L195.945 77.951Z" fill="#32B353"/>
<path d="M194.664 106.194H188.291L187.992 105.797C184.799 101.563 181.849 97.6951 178.068 93.2686L177.829 92.9906V88.8585H181.062C184.189 88.8585 186.213 87.7635 186.884 85.7421H177.833V81.5207H186.529C185.735 80.2404 184.146 79.6118 181.716 79.6118H177.833V74.7188H196.941V78.9402H191.361C191.826 79.7044 192.161 80.5679 192.36 81.5207H196.941V85.7421H192.427C191.73 89.722 188.862 92.4382 184.637 93.1925C187.521 96.6199 190.581 100.683 193.492 104.613L194.664 106.194ZM189.284 104.209H190.714C187.763 100.252 184.71 96.2692 181.899 93.0568L180.524 91.4854L182.616 91.4126C187.299 91.2505 190.193 88.7924 190.561 84.6636L190.641 83.7604H194.946V83.509H190.625L190.522 82.6323C190.326 80.9781 189.672 79.6515 188.577 78.6987L186.585 76.9585H194.946V76.7071H179.821V77.6301H181.713C186.844 77.6301 188.48 80.1709 188.945 82.3047L189.211 83.509H179.821V83.7604H189.187L189.088 84.8422C188.743 88.6005 185.742 90.8469 181.062 90.8469H179.821V92.2628C183.405 96.4743 186.25 100.19 189.284 104.209Z" fill="#32B353"/>
<path d="M161.825 128.714H127.777C126.846 128.714 126.091 129.466 126.091 130.395V169.208C126.091 170.136 126.846 170.888 127.777 170.888H161.825C162.756 170.888 163.511 170.136 163.511 169.208V130.395C163.511 129.466 162.756 128.714 161.825 128.714Z" fill="white"/>
<path d="M157.503 172.066H132.099C128.135 172.066 124.909 168.851 124.909 164.9V134.702C124.909 130.752 128.135 127.536 132.099 127.536H157.503C161.466 127.536 164.692 130.752 164.692 134.702V164.9C164.692 168.851 161.466 172.066 157.503 172.066ZM132.099 129.892C129.437 129.892 127.273 132.049 127.273 134.702V164.9C127.273 167.554 129.437 169.711 132.099 169.711H157.503C160.165 169.711 162.329 167.554 162.329 164.9V134.702C162.329 132.049 160.165 129.892 157.503 129.892H132.099Z" fill="#161742"/>
<path d="M170.063 128.714H204.107C205.039 128.714 205.793 129.468 205.793 130.395V169.205C205.793 170.134 205.036 170.885 204.107 170.885H170.063C169.13 170.885 168.376 170.131 168.376 169.205V130.395C168.376 129.465 169.133 128.714 170.063 128.714Z" fill="white"/>
<path d="M199.789 172.066H174.384C170.421 172.066 167.195 168.851 167.195 164.9V134.702C167.195 130.752 170.421 127.536 174.384 127.536H199.789C203.752 127.536 206.978 130.752 206.978 134.702V164.9C206.978 168.851 203.752 172.066 199.789 172.066ZM174.384 129.892C171.722 129.892 169.558 132.049 169.558 134.702V164.9C169.558 167.554 171.722 169.711 174.384 169.711H199.789C202.451 169.711 204.615 167.554 204.615 164.9V134.702C204.615 132.049 202.451 129.892 199.789 129.892H174.384Z" fill="#161742"/>
<path d="M246.392 128.714H212.345C211.414 128.714 210.659 129.466 210.659 130.395V169.208C210.659 170.136 211.414 170.888 212.345 170.888H246.392C247.324 170.888 248.078 170.136 248.078 169.208V130.395C248.078 129.466 247.324 128.714 246.392 128.714Z" fill="white"/>
<path d="M242.071 172.066H216.666C212.703 172.066 209.477 168.851 209.477 164.9V134.702C209.477 130.752 212.703 127.536 216.666 127.536H242.071C246.034 127.536 249.26 130.752 249.26 134.702V164.9C249.26 168.851 246.034 172.066 242.071 172.066ZM216.666 129.892C214.004 129.892 211.84 132.049 211.84 134.702V164.9C211.84 167.554 214.004 169.711 216.666 169.711H242.071C244.733 169.711 246.897 167.554 246.897 164.9V134.702C246.897 132.049 244.733 129.892 242.071 129.892H216.666Z" fill="#161742"/>
<path d="M156.189 142.437L146.815 165.714H137.442L146.898 143.545H136.291V135.757H156.189V142.437Z" fill="#1D478E"/>
<path d="M197.336 142.437L187.963 165.714H178.589L188.046 143.545H177.438V135.757H197.336V142.437Z" fill="#1D478E"/>
<path d="M239.495 142.437L230.122 165.714H220.749L230.205 143.545H219.597V135.757H239.495V142.437Z" fill="#1D478E"/>
<path d="M225.668 40.8017C224.991 40.8017 224.34 40.5701 223.809 40.1334C223.208 39.6372 222.837 38.9391 222.764 38.165C222.691 37.3908 222.926 36.6365 223.424 36.0377C224.453 34.8004 226.298 34.6284 227.536 35.654C228.137 36.1502 228.509 36.8483 228.582 37.6224C228.655 38.3966 228.423 39.1542 227.921 39.7497C227.424 40.3485 226.723 40.719 225.947 40.7918C225.854 40.8017 225.761 40.805 225.668 40.805V40.8017ZM225.674 35.8922C225.097 35.8922 224.523 36.1403 224.128 36.6167C223.786 37.0269 223.627 37.5496 223.676 38.079C223.726 38.6116 223.982 39.0913 224.393 39.4321C225.25 40.1368 226.514 40.0177 227.221 39.1674C227.563 38.7572 227.726 38.2345 227.673 37.7051C227.623 37.1725 227.367 36.6928 226.952 36.352C226.577 36.0444 226.126 35.8922 225.674 35.8922Z" fill="#FFD325"/>
<path d="M149.627 39.6571C148.97 39.6571 148.309 39.4387 147.768 38.9888C147.167 38.4925 146.796 37.7945 146.723 37.0203C146.65 36.2462 146.882 35.4919 147.38 34.8931C147.878 34.2943 148.578 33.9237 149.355 33.851C150.141 33.7815 150.891 34.0131 151.492 34.506C152.73 35.5283 152.906 37.3677 151.877 38.605C151.3 39.2998 150.467 39.6571 149.627 39.6571ZM149.633 34.7475C149.57 34.7475 149.507 34.7475 149.441 34.7574C148.907 34.8071 148.425 35.0618 148.083 35.472C147.742 35.8823 147.579 36.4017 147.632 36.9343C147.682 37.467 147.937 37.9467 148.352 38.2874C149.205 38.9888 150.473 38.873 151.18 38.0228C151.884 37.1725 151.764 35.9087 150.915 35.2074C150.549 34.9063 150.105 34.7475 149.637 34.7475H149.633Z" fill="#FFD325"/>
<path d="M142.789 20.6573C141.913 20.6738 141.18 20.3628 140.586 19.7243C139.978 19.0726 139.716 18.3183 139.799 17.4548C139.882 16.5913 140.323 15.8007 141.123 15.0761C141.91 14.3648 142.743 14.0075 143.626 13.9976C144.509 13.9877 145.252 14.3086 145.86 14.9603C146.454 15.5988 146.706 16.3432 146.616 17.2001C146.527 18.0569 146.089 18.8377 145.302 19.549C144.502 20.2702 143.666 20.6407 142.789 20.6573ZM162.943 7.9963C162.2 7.63239 161.712 7.03358 161.479 6.20319C161.24 5.35626 161.337 4.56226 161.771 3.8245C162.203 3.08674 162.907 2.56734 163.882 2.26297C164.842 1.96522 165.691 2.00492 166.438 2.37876C167.182 2.7526 167.676 3.36464 167.912 4.21158C168.144 5.04197 168.045 5.82273 167.61 6.55056C167.175 7.28171 166.478 7.7945 165.519 8.09225C164.543 8.3933 163.683 8.36353 162.943 7.99961V7.9963ZM185.722 5.09821C185.095 4.4994 184.803 3.76495 184.843 2.90148C184.886 2.01815 185.248 1.30355 185.928 0.754372C186.608 0.205189 187.491 -0.0429355 188.577 0.00668949C189.642 0.0563144 190.488 0.387147 191.116 0.99588C191.743 1.60461 192.035 2.35229 191.992 3.23562C191.952 4.09909 191.59 4.80377 190.907 5.34302C190.226 5.88228 189.353 6.1271 188.288 6.07747C187.203 6.02785 186.35 5.70032 185.722 5.10152V5.09821ZM211.054 7.5563C210.728 6.75568 210.765 5.97161 211.16 5.19746C211.565 4.40677 212.189 3.89728 213.042 3.66901C213.892 3.44074 214.801 3.56645 215.773 4.04616C216.726 4.51594 217.363 5.15776 217.685 5.96499C218.007 6.77222 217.964 7.56953 217.559 8.36022C217.164 9.13437 216.544 9.63062 215.697 9.84897C214.851 10.0706 213.951 9.94491 212.999 9.47182C212.03 8.99211 211.382 8.3536 211.057 7.55299L211.054 7.5563ZM229.086 19.0329C229.15 18.1727 229.535 17.4846 230.232 16.9586C230.945 16.4226 231.735 16.234 232.605 16.3962C233.471 16.5583 234.231 17.0611 234.892 17.9114C235.539 18.7451 235.824 19.5953 235.755 20.4588C235.682 21.3223 235.29 22.0236 234.573 22.5563C233.873 23.0823 233.093 23.2609 232.236 23.0922C231.377 22.9268 230.627 22.4239 229.979 21.5902C229.322 20.74 229.023 19.8864 229.09 19.0296L229.086 19.0329ZM240.013 32.6434C240.557 31.9685 241.268 31.6079 242.147 31.5648C243.043 31.5185 243.803 31.7997 244.431 32.4118C245.055 33.0238 245.397 33.8641 245.453 34.9294C245.509 35.9782 245.261 36.8383 244.71 37.5132C244.155 38.1881 243.432 38.5487 242.532 38.595C241.653 38.6414 240.906 38.3568 240.292 37.7448C239.678 37.1328 239.343 36.3024 239.283 35.2536C239.226 34.1883 239.469 33.3183 240.013 32.6434ZM233.474 45.0331C234.208 45.5028 234.636 46.1678 234.765 47.0247C234.895 47.8981 234.679 48.6689 234.118 49.3372C233.554 50.0055 232.738 50.4157 231.662 50.5712C230.607 50.7234 229.71 50.558 228.977 50.0783C228.243 49.5985 227.812 48.9203 227.679 48.0469C227.553 47.1901 227.769 46.4325 228.333 45.7741C228.897 45.1158 229.707 44.7088 230.763 44.56C231.838 44.4045 232.741 44.56 233.471 45.0331H233.474ZM210.659 46.2472C211.316 46.8162 211.641 47.5341 211.641 48.4009C211.641 49.2677 211.313 50.0154 210.659 50.5977C210.005 51.1766 209.135 51.4678 208.047 51.4678C206.958 51.4678 206.118 51.1766 205.464 50.5977C204.81 50.0187 204.482 49.2876 204.482 48.4009C204.482 47.5143 204.81 46.8162 205.464 46.2472C206.118 45.6749 206.981 45.3904 208.047 45.3904C209.112 45.3904 210.005 45.6749 210.659 46.2472ZM187.388 45.5359C188.046 46.1049 188.371 46.8229 188.371 47.6896C188.371 48.5564 188.042 49.3041 187.388 49.8864C186.735 50.4653 185.865 50.7565 184.776 50.7565C183.688 50.7565 182.848 50.4653 182.194 49.8864C181.54 49.3074 181.212 48.5763 181.212 47.6896C181.212 46.803 181.54 46.1049 182.194 45.5359C182.848 44.9636 183.711 44.6791 184.776 44.6791C185.842 44.6791 186.735 44.9636 187.388 45.5359ZM166.315 45.8767C166.973 46.4457 167.298 47.1636 167.298 48.0304C167.298 48.8972 166.969 49.6449 166.315 50.2271C165.661 50.8061 164.792 51.0972 163.703 51.0972C162.615 51.0972 161.775 50.8061 161.121 50.2271C160.467 49.6482 160.138 48.917 160.138 48.0304C160.138 47.1438 160.467 46.4457 161.121 45.8767C161.775 45.3043 162.638 45.0198 163.703 45.0198C164.769 45.0198 165.658 45.3043 166.315 45.8767ZM146.049 47.683C146.182 48.5333 145.966 49.2909 145.402 49.9558C144.827 50.6341 144.097 50.9914 143.218 51.0244C142.338 51.0575 141.478 50.7333 140.645 50.0485C139.825 49.3769 139.354 48.6127 139.228 47.7525C139.102 46.8956 139.328 46.1248 139.902 45.4466C140.466 44.7816 141.183 44.4376 142.059 44.4111C142.935 44.3846 143.782 44.7088 144.602 45.3804C145.435 46.0653 145.919 46.8328 146.049 47.683ZM133.333 37.5926C132.547 37.9698 131.747 37.9896 130.934 37.6588C130.104 37.3213 129.543 36.7424 129.251 35.9219C128.959 35.1048 129.018 34.2016 129.437 33.2157C129.845 32.2464 130.449 31.5781 131.246 31.2042C132.042 30.8337 132.855 30.8172 133.685 31.1546C134.498 31.4854 135.046 32.0611 135.331 32.8749C135.617 33.6888 135.554 34.582 135.142 35.5514C134.724 36.5373 134.123 37.2188 133.337 37.5926H133.333Z" fill="#FFD325"/>
<g opacity="0.27">
<path d="M289.989 232.744H84.1837V254.235H289.989V232.744Z" fill="#FFD325"/>
<path d="M289.989 266.953H84.1837V288.443H289.989V266.953Z" fill="#FFD325"/>
<path d="M289.989 301.164H84.1837V322.655H289.989V301.164Z" fill="#FFD325"/>
</g>
<path d="M289.989 339.273H84.1837C83.2046 339.273 82.4113 338.482 82.4113 337.506V217.897C82.4113 216.921 83.2046 216.13 84.1837 216.13H289.989C290.968 216.13 291.761 216.921 291.761 217.897V337.506C291.761 338.482 290.968 339.273 289.989 339.273ZM85.9561 335.739H288.217V219.663H85.9561V335.739Z" fill="#1D478E"/>
<path d="M80.6423 308.886L82.1591 353.915L108.314 351.947L107.474 302.845L80.6423 308.886Z" fill="#F3AD97"/>
<path d="M81.2397 326.651L80.6423 308.882L107.474 302.841L107.849 324.818C101.619 326.334 91.456 328.067 81.2397 326.651Z" fill="#161742"/>
<path d="M80.2572 335.193L76.5697 361.571L137.877 361.286L138.03 351.715C138.113 346.392 134.751 341.664 130.114 340.593L108.719 335.637C108.719 335.637 95.8803 341.168 88.8704 340.331C81.8604 339.494 80.2606 335.193 80.2606 335.193H80.2572Z" fill="#32B353"/>
<path d="M137.744 357.693H137.741L78.0036 357.29C77.6783 357.29 77.4128 357.022 77.4161 356.698C77.4161 356.373 77.6816 356.112 78.0069 356.112H78.0102L137.748 356.516C138.073 356.516 138.339 356.784 138.335 357.108C138.335 357.432 138.07 357.693 137.744 357.693Z" fill="#161742"/>
<path d="M124.179 342.177C124.133 342.177 124.086 342.171 124.036 342.161L105.283 337.499C104.968 337.42 104.776 337.102 104.852 336.785C104.932 336.47 105.247 336.278 105.569 336.355L124.319 341.016C124.634 341.095 124.826 341.413 124.75 341.731C124.684 341.999 124.441 342.177 124.176 342.177H124.179Z" fill="#161742"/>
<path d="M122.45 357.591C122.427 357.591 122.403 357.591 122.383 357.587C122.058 357.551 121.826 357.26 121.862 356.936L123.854 339.216C123.89 338.892 124.189 338.657 124.508 338.697C124.833 338.733 125.065 339.024 125.029 339.349L123.037 357.068C123.004 357.369 122.749 357.591 122.45 357.591Z" fill="#161742"/>
<path d="M156.122 296.446L181.686 331.796L201.627 316.164L174.401 277.182L156.122 296.446Z" fill="#F3AD97"/>
<path d="M166.209 310.394L156.122 296.446L174.404 277.182L186.589 294.627C182.406 299.189 175.181 306.044 166.212 310.391L166.209 310.394Z" fill="#161742"/>
<path d="M172.366 318.622L186.605 340.778L229.246 299.712L222.93 292.923C219.418 289.148 213.895 288.089 209.935 290.428L191.663 301.227C191.663 301.227 186.406 313.65 180.946 317.739C175.486 321.828 172.363 318.622 172.363 318.622H172.366Z" fill="#32B353"/>
<path d="M184.348 337.006C184.192 337.006 184.033 336.944 183.92 336.821C183.698 336.586 183.707 336.212 183.943 335.987L225.95 296.446C226.189 296.221 226.564 296.235 226.786 296.469C227.009 296.704 226.999 297.078 226.763 297.303L184.756 336.844C184.643 336.953 184.494 337.006 184.351 337.006H184.348Z" fill="#161742"/>
<path d="M190.236 304.912C190.03 304.912 189.831 304.806 189.722 304.614C189.559 304.333 189.659 303.973 189.941 303.811L206.168 294.567C206.447 294.405 206.812 294.501 206.975 294.785C207.137 295.067 207.038 295.427 206.755 295.589L190.528 304.833C190.435 304.886 190.336 304.909 190.236 304.909V304.912Z" fill="#161742"/>
<path d="M215.598 307.592C215.418 307.592 215.246 307.513 215.126 307.36L204.628 293.654C204.429 293.396 204.482 293.025 204.737 292.83C204.996 292.635 205.365 292.681 205.567 292.943L216.066 306.649C216.265 306.907 216.212 307.278 215.956 307.473C215.85 307.556 215.724 307.592 215.598 307.592Z" fill="#161742"/>
<path d="M56.7711 31.4061L51.4771 10.5934C51.2747 9.79275 50.4383 9.32297 49.645 9.56779C48.9181 9.79275 48.4899 10.5371 48.6625 11.2749L50.2955 18.2654L53.7408 32.0049L56.7744 31.4061H56.7711Z" fill="#F3AD97"/>
<path d="M53.9134 28.6273L47.2818 8.37699C47.0461 7.56314 46.1964 7.08674 45.3766 7.3117C44.5502 7.53667 44.0623 8.3836 44.2813 9.20738L46.1135 16.0689L50.0665 29.8977L53.9101 28.6306L53.9134 28.6273Z" fill="#F3AD97"/>
<path d="M51.0291 30.6154L43.6275 8.43968C43.4051 7.60598 42.572 7.08327 41.7223 7.24537C40.793 7.42072 40.2021 8.33712 40.4245 9.25353L42.094 16.0852L45.8181 30.2019L51.0291 30.6154Z" fill="#F3AD97"/>
<path d="M49.7313 30.9859L40.6369 11.5362C40.2818 10.7786 39.3989 10.4279 38.6189 10.729C37.7759 11.0565 37.3776 12.0159 37.7427 12.843L40.5009 19.0958L46.4388 31.9188L49.7313 30.9826V30.9859Z" fill="#F3AD97"/>
<path d="M48.0186 34.4597C48.0186 34.4597 43.4383 30.6651 41.4236 28.8257C40.149 27.6644 37.9484 25.61 36.5013 24.2535C35.7213 23.5224 35.7114 22.2917 36.4781 21.5506C37.2315 20.8195 38.4065 20.7335 39.2595 21.3455L44.4074 25.0376L47.6735 30.2118L54.5208 27.5156L55.9314 33.1298L48.0153 34.4564L48.0186 34.4597Z" fill="#F3AD97"/>
<path d="M44.3909 20.5283C44.2216 20.5283 44.0556 20.429 43.9826 20.2636L40.9523 13.2698C40.856 13.0448 40.9589 12.7868 41.1846 12.6875C41.407 12.5916 41.6692 12.6942 41.7688 12.9191L44.7991 19.9129C44.8954 20.1379 44.7925 20.396 44.5668 20.4952C44.5103 20.5184 44.4506 20.5316 44.3909 20.5316V20.5283Z" fill="#161742"/>
<path d="M47.0229 19.6781C46.8304 19.6781 46.6511 19.5523 46.5947 19.3571L45.3335 14.8843C45.2671 14.6494 45.4065 14.4046 45.6388 14.3384C45.8778 14.2722 46.1201 14.4079 46.1865 14.6428L47.4477 19.1156C47.5141 19.3505 47.3747 19.5953 47.1424 19.6615C47.1026 19.6714 47.0627 19.6781 47.0229 19.6781Z" fill="#161742"/>
<path d="M50.2922 18.7088C50.0898 18.7088 49.9072 18.5698 49.8608 18.368L49.2036 15.5394C49.1471 15.3012 49.2965 15.0663 49.5355 15.0101C49.7811 14.9538 50.0134 15.1027 50.0665 15.3409L50.7237 18.1695C50.7802 18.4077 50.6308 18.6426 50.3918 18.6988C50.3586 18.7055 50.3221 18.7088 50.2922 18.7088Z" fill="#161742"/>
<path d="M64.0201 33.4803L98.0079 110.862H73.9509L44.8323 39.5743C43.5312 36.385 45.0746 32.7525 48.2742 31.4622L53.7607 29.2556C57.7636 27.6444 62.324 29.5236 64.0168 33.4803H64.0201Z" fill="#32B353"/>
<path d="M90.822 104.772L91.3597 116.688L77.5887 112.989L78.0003 102.767L90.822 104.772Z" fill="#F3AD97"/>
<path d="M90.822 104.772L87.068 104.183L80.5294 106.386L91.0643 110.108L90.822 104.772Z" fill="#161742"/>
<path d="M22.0333 58.3127C22.0333 58.3127 23.6464 39.1442 17.7549 27.6908C17.3666 26.9332 17.5624 25.8679 18.213 25.2162C18.8469 24.5843 19.7132 24.538 20.2476 25.1103C21.8673 26.8472 24.5458 31.9685 27.0153 37.8771C31.3733 48.305 24.8645 61.0321 24.8645 61.0321L22.03 58.3094L22.0333 58.3127Z" fill="#F3AD97"/>
<path d="M19.7763 49.9526C19.7763 49.9526 17.4828 41.2252 3.07782 37.1395C2.32438 36.9244 1.79996 36.0411 1.82983 35.214C1.85638 34.4068 2.41067 33.8477 3.13424 33.9039C5.32154 34.0759 10.1011 34.7542 15.3718 37.4504C20.9181 40.289 26.5473 47.521 26.5473 47.521L19.7763 49.9493V49.9526Z" fill="#F3AD97"/>
<path d="M18.4088 39.8192C18.4088 39.8192 14.0906 36.0643 2.4173 32.9743C1.64726 32.7692 1.03655 31.952 1.00003 31.0753C0.966844 30.2217 1.48795 29.5766 2.22479 29.5601C4.45856 29.5105 9.36089 29.7288 14.9138 32.0215C20.7554 34.4333 22.186 36.6333 22.186 36.6333L18.4055 39.8192H18.4088Z" fill="#F3AD97"/>
<path d="M22.956 51.8217C22.956 51.8217 13.855 35.0551 2.68614 28.9248C1.9493 28.5212 1.53109 27.5254 1.72028 26.6189C1.90615 25.7356 2.60316 25.2062 3.36324 25.3783C5.66339 25.8977 11.4586 28.5311 16.7426 32.0181C26.0693 38.1716 26.8062 52.4669 26.8062 52.4669L22.9527 51.8184L22.956 51.8217Z" fill="#F3AD97"/>
<path d="M23.9086 51.2925C23.9086 51.2925 17.2305 33.4308 7.02758 25.8117C6.35379 25.3089 6.07831 24.2667 6.39362 23.3933C6.69898 22.5464 7.4657 22.1163 8.19259 22.3942C10.3998 23.2246 15.0034 26.6123 19.7498 30.7974C28.1272 38.1816 27.6327 52.4669 27.6327 52.4669L23.9086 51.2925Z" fill="#F3AD97"/>
<path d="M14.8607 37.0964C14.7876 37.0964 14.7113 37.0766 14.6416 37.0402C11.8037 35.439 7.43579 34.6152 7.39264 34.6086C7.15035 34.5622 6.99435 34.334 7.0375 34.0925C7.08396 33.8543 7.31962 33.6955 7.55528 33.7385C7.74115 33.7716 12.1157 34.5986 15.0797 36.2693C15.2921 36.3884 15.3685 36.6597 15.2457 36.8715C15.166 37.0137 15.0133 37.0964 14.8607 37.0964Z" fill="#161742"/>
<path d="M16.0124 35.1777C15.9162 35.1777 15.8199 35.1479 15.7403 35.0817C12.4046 32.4648 4.78054 29.8777 4.7042 29.8546C4.47186 29.7752 4.34905 29.527 4.42539 29.2954C4.50505 29.0639 4.75731 28.9415 4.98633 29.0175C5.30496 29.1267 12.8294 31.6774 16.2846 34.387C16.4771 34.5391 16.5103 34.817 16.3609 35.0089C16.2746 35.1181 16.1419 35.1777 16.0124 35.1777Z" fill="#161742"/>
<path d="M17.3733 33.1793C17.277 33.1793 17.1808 33.1496 17.1011 33.0834C13.8284 30.5194 11.0802 28.8057 9.14849 28.1374C8.91615 28.058 8.79666 27.8066 8.87632 27.575C8.9593 27.3434 9.21487 27.2243 9.44057 27.3037C11.4918 28.0183 14.2566 29.7287 17.6488 32.3886C17.8413 32.5408 17.8745 32.8187 17.7251 33.0106C17.6388 33.1198 17.506 33.1793 17.3766 33.1793H17.3733Z" fill="#161742"/>
<path d="M24.048 44.6427C23.8289 44.6427 23.6364 44.4806 23.6099 44.2556C23.0722 40.0044 18.7009 37.8077 18.6577 37.7845C18.4387 37.6754 18.3491 37.4107 18.4553 37.1923C18.5648 36.974 18.8303 36.8847 19.0461 36.9905C19.2419 37.0865 23.8854 39.4122 24.4861 44.1431C24.516 44.3846 24.3467 44.6063 24.1011 44.6361C24.0812 44.6361 24.0646 44.6394 24.0447 44.6394L24.048 44.6427Z" fill="#161742"/>
<path d="M20.8019 32.5177C20.6691 32.5177 20.5363 32.4582 20.45 32.3457L18.5017 29.8214C18.3524 29.6296 18.3889 29.3517 18.5814 29.2028C18.7772 29.0572 19.0527 29.0903 19.2021 29.2855L21.1504 31.8097C21.2997 32.0016 21.2632 32.2795 21.0707 32.4284C20.9911 32.4913 20.8948 32.521 20.8019 32.521V32.5177Z" fill="#161742"/>
<path d="M114.371 150.582L193.31 298.653L164.649 322.135L93.0956 190.543L89.9325 154.089L114.371 150.582Z" fill="#1D478E"/>
<path d="M76.5697 159.872L75.4412 336.338H114.65L107.514 178.974L114.195 175.12L107.69 151.108L76.5697 159.872Z" fill="#1D478E"/>
<path d="M85.0069 323.452C84.6849 323.452 84.4227 323.197 84.4161 322.876L80.8978 158.833C80.8912 158.509 81.1501 158.237 81.4754 158.231H81.4886C81.8106 158.231 82.0728 158.486 82.0794 158.806L85.5977 322.85C85.6043 323.174 85.3454 323.445 85.0202 323.452H85.0069Z" fill="#161742"/>
<path d="M110.073 221.618C109.761 221.618 109.502 221.377 109.482 221.066L106.923 179.011C106.91 178.789 107.023 178.577 107.215 178.465L113.896 174.61C114.175 174.448 114.54 174.541 114.703 174.825C114.866 175.107 114.769 175.467 114.487 175.629L108.121 179.302L110.657 220.993C110.677 221.317 110.428 221.599 110.103 221.615C110.089 221.615 110.08 221.615 110.066 221.615L110.073 221.618Z" fill="#161742"/>
<path d="M80.9974 85.3649C80.1245 85.7023 79.4806 86.182 78.6939 86.6452C77.9173 87.1017 77.1041 87.4921 76.3573 88.0016C71.5844 91.2636 70.9073 96.7852 74.1833 102.658C77.4592 108.53 86.0823 108.861 91.1406 106.058C96.199 103.256 95.9998 98.2541 92.5048 92.5076C91.8675 91.4555 91.2302 90.2083 90.1615 89.54C89.0927 88.8717 88.326 87.4326 87.5593 86.4368C87.2075 85.9769 86.7528 85.4377 86.2449 85.1399C85.6508 84.7892 84.7712 84.8554 84.1074 84.8256C83.583 84.8025 83.0553 84.8025 82.5408 84.8918C82.0097 84.9844 81.5019 85.1697 81.0007 85.3616L80.9974 85.3649Z" fill="#F3AD97"/>
<path d="M84.436 92.6333C84.3796 92.6333 84.3231 92.6233 84.27 92.6035C84.0344 92.5109 83.9182 92.2462 84.0078 92.0113C84.9073 89.7219 87.0448 89.1827 88.0903 89.229C88.3426 89.2389 88.5384 89.4507 88.5285 89.7021C88.5185 89.9535 88.3459 90.1619 88.0538 90.1421C87.9609 90.1454 85.7404 90.0991 84.8575 92.3454C84.7878 92.5241 84.6152 92.6366 84.4294 92.6366L84.436 92.6333Z" fill="#161742"/>
<path d="M88.7409 91.3001C88.784 91.3001 88.8272 91.3067 88.8703 91.3232C89.0562 91.396 89.1458 91.6044 89.0728 91.7864C88.3691 93.5795 86.6963 94.003 85.8732 93.9666C85.674 93.96 85.5213 93.7945 85.528 93.596C85.5346 93.4009 85.6707 93.2387 85.8997 93.252C85.9727 93.2487 87.712 93.2851 88.4023 91.525C88.4588 91.3828 88.5915 91.2968 88.7376 91.2968L88.7409 91.3001Z" fill="#161742"/>
<path d="M94.9111 98.1053C94.951 98.145 94.9842 98.1913 95.0074 98.2443C95.1103 98.4758 95.0074 98.7438 94.7717 98.8464C92.5147 99.8356 90.6195 98.714 89.9092 97.9432C89.7366 97.7579 89.7466 97.4701 89.9325 97.2981C90.115 97.126 90.3872 97.1029 90.5797 97.3179C90.6494 97.3808 92.1861 98.9787 94.4033 98.006C94.5825 97.9267 94.7817 97.973 94.9111 98.102V98.1053Z" fill="#161742"/>
<path d="M89.4645 93.6919C89.5342 93.4702 89.6603 93.2453 89.7267 93.0501C89.8429 92.7027 89.8163 92.2594 89.8628 91.8889C89.8893 91.6738 90.2743 89.616 90.2279 89.5962C90.905 89.8708 91.4891 90.2909 92.1331 90.6119C92.8135 90.9526 93.5337 91.2636 94.2307 91.5779C94.3004 91.611 94.3701 91.6407 94.4299 91.6904C94.8381 92.041 93.9619 92.7722 93.703 92.9872C93.4076 93.232 93.0425 93.4107 92.6608 93.4173C92.5845 93.4173 92.5081 93.414 92.4318 93.4008C92.2625 93.3776 92.0965 93.3346 91.9306 93.3048C91.4327 93.2056 90.7822 93.1096 90.3009 93.2784C90.1217 93.3412 89.5309 93.4868 89.4678 93.6886L89.4645 93.6919Z" fill="#F3AD97"/>
<path d="M86.693 86.374C86.693 86.374 83.0719 88.3954 79.4407 86.8471C79.4407 86.8471 80.2207 90.2712 78.1231 92.6896C78.1231 92.6896 81.9832 98.4295 75.8893 102.29L70.9438 94.9525C70.9438 94.9525 68.7366 90.1058 75.5209 87.1746C75.5209 87.1746 75.3284 81.8813 78.0467 80.9318C80.7651 79.9823 79.6963 84.9845 79.6963 84.9845C79.6963 84.9845 84.2136 79.936 87.0216 82.2452C89.8296 84.5544 86.693 86.3707 86.693 86.3707V86.374Z" fill="#161742"/>
<path d="M78.8732 99.9911C77.1273 98.5983 74.7608 98.7141 73.5858 100.246C72.4108 101.778 72.8722 104.15 74.618 105.539C76.3639 106.932 78.7304 106.816 79.9054 105.284C81.0804 103.753 80.619 101.381 78.8732 99.9911Z" fill="#F3AD97"/>
<path d="M78.2724 103.514C78.226 103.514 78.1762 103.508 78.1297 103.498L74.4986 102.585C74.18 102.505 73.9908 102.185 74.0704 101.87C74.1501 101.556 74.4687 101.364 74.7874 101.443L78.4185 102.357C78.7371 102.436 78.9263 102.757 78.8466 103.071C78.7803 103.339 78.538 103.514 78.2758 103.514H78.2724Z" fill="#161742"/>
<path d="M76.5929 105.152C76.5365 105.152 76.4801 105.146 76.4236 105.129C76.1116 105.036 75.9324 104.709 76.0287 104.395L76.5365 102.704C76.6294 102.393 76.9613 102.218 77.27 102.31C77.582 102.403 77.7612 102.73 77.665 103.045L77.1572 104.735C77.0808 104.99 76.8452 105.155 76.5929 105.155V105.152Z" fill="#161742"/>
<path d="M124.494 162.866C121.945 165.39 118.613 167.216 114.773 168.791C110.372 170.594 106.272 172.301 101.699 173.558C93.2848 175.871 85.4715 178.587 76.5464 177.704C75.5773 177.608 74.5483 177.475 73.7982 176.86C73.0813 176.271 72.746 175.348 72.454 174.468C69.4966 165.546 67.1533 156.669 64.3553 147.717C61.3482 138.096 59.4463 128.016 54.5307 119.1C50.7801 112.291 17.5524 58.316 17.5524 51.395C17.5524 44.4739 29.0001 40.322 32.4818 42.8462C38.7583 47.3985 74.4388 99.1176 82.4545 111.782C82.4545 111.782 87.4962 116.506 91.1373 112.364L91.0211 109.188C91.0178 109.086 94.619 108.192 94.9045 108.163C97.2079 107.921 97.1681 107.957 99.1961 109.651C102.993 112.827 107.245 115.203 111.132 118.207C115.974 121.955 121.082 125.67 124.634 130.742C129.171 137.22 130.91 145.838 129.374 153.576C128.587 157.529 126.887 160.507 124.498 162.872L124.494 162.866Z" fill="#32B353"/>
<path d="M64.4217 127.97C64.1396 127.97 63.8907 127.768 63.8409 127.48C63.7845 127.159 64.0002 126.855 64.3221 126.798C76.3307 124.721 79.6565 114.131 79.6897 114.022C79.7826 113.711 80.1145 113.539 80.4232 113.628C80.7352 113.721 80.9144 114.051 80.8182 114.362C80.785 114.475 77.2402 125.756 64.5213 127.96C64.4881 127.966 64.4516 127.97 64.4184 127.97H64.4217Z" fill="#161742"/>
<path d="M82.4545 112.367C82.2586 112.367 82.0695 112.272 81.9566 112.093C77.6716 105.35 61.3582 81.3849 61.1922 81.1434C61.0097 80.8755 61.0794 80.5082 61.3482 80.3263C61.6204 80.1443 61.9855 80.2138 62.1713 80.4818C62.334 80.7233 78.6574 104.705 82.9557 111.461C83.1316 111.736 83.0486 112.099 82.7731 112.275C82.6735 112.338 82.564 112.367 82.4578 112.367H82.4545Z" fill="#161742"/>
<path d="M90.4934 94.8598C89.4777 95.5016 88.8006 96.5437 88.1103 97.5263C87.4199 98.5088 86.6399 99.5046 85.5313 99.9711C86.2615 100.133 87.0282 99.8487 87.6522 99.4319C88.2762 99.015 88.8006 98.4724 89.4014 98.0258C90.9879 96.8481 92.6541 96.719 94.5427 96.7488C94.8282 95.9813 94.2772 94.7969 93.5105 94.4958C92.5844 94.1319 91.3099 94.3437 90.4934 94.8598Z" fill="#161742"/>
<path d="M185.082 20.0229C183.817 24.5487 182.755 29.0613 181.879 33.6797C180.266 33.822 179.459 33.9212 177.856 34.1727C176.435 30.8114 175.659 29.1473 173.979 25.8655C173.634 29.541 173.531 31.3804 173.461 35.0361C171.875 35.41 171.088 35.625 169.525 36.108C166.976 32.1612 164.294 28.3831 161.42 24.6645C163.089 24.036 163.936 23.7481 165.632 23.2221C167.377 26.0739 169.034 29.015 170.567 31.9892C170.534 28.6048 170.653 25.1806 170.916 21.8094C172.688 21.4058 173.578 21.2338 175.367 20.9427C176.847 23.9764 178.211 27.1061 179.423 30.2556C179.715 26.9241 180.13 23.5794 180.664 20.2777C182.426 20.1222 183.309 20.0726 185.078 20.0229H185.082Z" fill="#FFD325"/>
<path d="M193.167 20.2512C192.789 24.7208 192.41 29.1903 192.032 33.6599C190.698 33.5474 190.03 33.511 188.693 33.4746C188.816 28.9918 188.942 24.509 189.065 20.0262C190.708 20.0726 191.527 20.1156 193.167 20.2545V20.2512Z" fill="#FFD325"/>
<path d="M207.957 37.2527C206.686 36.773 206.045 36.5547 204.754 36.1511C203.801 32.9155 202.517 29.6337 201.027 26.6099C200.336 29.8586 199.991 31.483 199.304 34.7285C197.99 34.4506 197.329 34.3315 196.002 34.1297C196.682 29.6965 197.362 25.2634 198.043 20.8302C199.672 21.0783 200.482 21.2239 202.099 21.5646C203.662 24.7473 205.162 27.9001 206.291 31.268C207.293 28.0854 207.794 26.4941 208.793 23.3114C210.38 23.8077 211.167 24.079 212.73 24.6679C211.14 28.8628 209.55 33.0578 207.957 37.2527Z" fill="#FFD325"/>
</svg>
