<svg width="68" height="48" viewBox="0 0 68 48" fill="none" xmlns="http://www.w3.org/2000/svg">
<path d="M62.0672 0H5.93282C2.65621 0 0 2.67498 0 5.97473V42.0253C0 45.325 2.65621 48 5.93282 48H62.0672C65.3438 48 68 45.325 68 42.0253V5.97473C68 2.67498 65.3438 0 62.0672 0Z" fill="#004097"/>
<path d="M3.06824 3.42358H65.1413V44.4411H3.06824V3.42358Z" fill="white"/>
<path d="M65.1414 4.80958V41.7972C65.1414 43.258 61.9337 44.442 57.9765 44.442H12.5993C10.5452 44.5194 8.50134 44.1151 6.62892 43.261H3.21558C3.21558 0.442051 32.2172 37.6666 43.8485 36.8879C44.1243 36.9526 44.8739 25.9591 48.6323 19.362C54.1231 9.73873 63.2063 4.66021 63.5029 4.80958C64.469 5.26864 65.1493 4.22903 65.1414 4.80958Z" fill="#F7F7F7"/>
<path d="M39.6638 22.2241H56.6366V25.6437H39.6638V22.2241Z" fill="#91CAFB"/>
<path d="M39.6649 28.3281H56.6377V31.7477H39.6649V28.3281Z" fill="#202C5E"/>
<path d="M39.6649 16.1199H56.6377V19.5394H39.6649V16.1199Z" fill="#202C5E"/>
<path d="M27.5203 29.7302V36.0037C27.5203 36.3235 27.3942 36.6303 27.1696 36.8564C26.9451 37.0826 26.6405 37.2096 26.3229 37.2096H10.7552C10.5978 37.2096 10.4419 37.1784 10.2965 37.1176C10.1511 37.0569 10.019 36.9679 9.90776 36.8557C9.79654 36.7435 9.70838 36.6104 9.64832 36.4638C9.58826 36.3173 9.55748 36.1603 9.55774 36.0017V29.1119L10.7552 24.9714C12.5143 22.935 16.1718 20.2205 18.8525 20.32C21.2217 20.465 23.4444 21.5237 25.0586 23.2762C26.6728 25.0287 27.5545 27.3401 27.5203 29.7302Z" fill="#D75E72"/>
<path d="M10.0897 29.7302V36.0037C10.0897 36.1621 10.1207 36.3189 10.1808 36.4652C10.241 36.6115 10.3292 36.7444 10.4404 36.8564C10.5516 36.9684 10.6836 37.0572 10.8289 37.1178C10.9742 37.1784 11.1299 37.2096 11.2871 37.2096H26.8558C27.1734 37.2096 27.478 37.0826 27.7026 36.8564C27.9271 36.6303 28.0533 36.3235 28.0533 36.0037V29.1119L26.8558 24.9714C25.0968 22.935 21.4392 20.2205 18.7605 20.32C16.3908 20.4643 14.1674 21.5227 12.5525 23.2752C10.9377 25.0278 10.0556 27.3397 10.0897 29.7302Z" fill="#D75E72"/>
<path d="M26.8222 13.5645C26.8222 13.7935 26.8084 14.0226 26.7945 14.2396L12.0139 14.6957C13.7631 13.4012 22.693 8.80064 23.6818 7.60669C24.6675 8.24642 25.4738 9.13005 26.0236 10.1731C26.5734 11.2162 26.8484 12.3839 26.8222 13.5645Z" fill="#A56A43"/>
<path d="M26.7955 14.2387C26.5335 18.3144 23.8202 22.0058 19.247 22.0058C14.8527 22.0058 12.1662 18.5813 11.74 14.6977C14.5868 14.3715 17.2941 13.2802 19.5782 11.5381L26.7955 14.2387Z" fill="#F9C795"/>
<path d="M23.928 31.2308V37.2603H21.5331V31.2308C21.5331 30.911 21.6592 30.6043 21.8838 30.3781C22.1084 30.152 22.4129 30.0249 22.7305 30.0249C23.0481 30.0249 23.3527 30.152 23.5772 30.3781C23.8018 30.6043 23.928 30.911 23.928 31.2308Z" fill="#802D40"/>
<path d="M15.5459 31.2308V37.2603H13.151V31.2308C13.151 30.911 13.2772 30.6043 13.5017 30.3781C13.7263 30.152 14.0309 30.0249 14.3484 30.0249C14.666 30.0249 14.9706 30.152 15.1952 30.3781C15.4197 30.6043 15.5459 30.911 15.5459 31.2308Z" fill="#802D40"/>
<path d="M23.6808 7.60573C22.4753 9.07729 21.0982 10.3973 19.5792 11.5371C17.2938 13.2779 14.5854 14.3675 11.738 14.6918C11.6942 14.3169 11.6711 13.9399 11.6688 13.5625C11.6688 9.23384 15.0575 6.32714 19.245 6.32714C20.8156 6.31001 22.3571 6.75434 23.6808 7.60573Z" fill="#CB8252"/>
</svg>
