<svg width="316" height="333" viewBox="0 0 316 333" fill="none" xmlns="http://www.w3.org/2000/svg">
<g clip-path="url(#clip0_684_2645)">
<path opacity="0.27" d="M62.2364 320.512L51.2385 314.158C22.4872 297.532 22.4872 270.576 51.2385 253.951L100.609 225.403C129.36 208.777 175.976 208.777 204.728 225.403L215.725 231.757C244.477 248.382 244.477 275.338 215.725 291.964L166.359 320.512C137.601 337.162 90.9842 337.162 62.2364 320.512Z" fill="#FFD325"/>
<g opacity="0.88">
<g opacity="0.54">
<path d="M236.874 51.7545C237.321 51.7545 237.683 51.3918 237.683 50.9445C237.683 50.4972 237.321 50.1345 236.874 50.1345C236.428 50.1345 236.065 50.4972 236.065 50.9445C236.065 51.3918 236.428 51.7545 236.874 51.7545Z" fill="#161742"/>
<path d="M214.199 88.0217C214.593 88.0217 214.913 87.7013 214.913 87.306C214.913 86.9107 214.593 86.5903 214.199 86.5903C213.804 86.5903 213.484 86.9107 213.484 87.306C213.484 87.7013 213.804 88.0217 214.199 88.0217Z" fill="#161742"/>
<path d="M252.473 75.1075C252.924 75.1075 253.289 74.7417 253.289 74.2906C253.289 73.8394 252.924 73.4736 252.473 73.4736C252.023 73.4736 251.658 73.8394 251.658 74.2906C251.658 74.7417 252.023 75.1075 252.473 75.1075Z" fill="#161742"/>
<path d="M234.755 83.5005C235.176 83.5005 235.518 83.1582 235.518 82.7359C235.518 82.3136 235.176 81.9713 234.755 81.9713C234.333 81.9713 233.991 82.3136 233.991 82.7359C233.991 83.1582 234.333 83.5005 234.755 83.5005Z" fill="#161742"/>
<path d="M215.178 53.926C215.719 53.926 216.158 53.4868 216.158 52.945C216.158 52.4032 215.719 51.9639 215.178 51.9639C214.637 51.9639 214.199 52.4032 214.199 52.945C214.199 53.4868 214.637 53.926 215.178 53.926Z" fill="#161742"/>
<path d="M222.108 19.7466C222.566 19.7466 222.938 19.3746 222.938 18.9157C222.938 18.4567 222.566 18.0847 222.108 18.0847C221.65 18.0847 221.278 18.4567 221.278 18.9157C221.278 19.3746 221.65 19.7466 222.108 19.7466Z" fill="#161742"/>
<path d="M211.532 33.4812C211.838 33.4812 212.086 33.2327 212.086 32.9261C212.086 32.6195 211.838 32.371 211.532 32.371C211.226 32.371 210.978 32.6195 210.978 32.9261C210.978 33.2327 211.226 33.4812 211.532 33.4812Z" fill="#161742"/>
<path d="M223.049 83.497C223.569 83.497 223.991 83.075 223.991 82.5544C223.991 82.0338 223.569 81.6117 223.049 81.6117C222.53 81.6117 222.108 82.0338 222.108 82.5544C222.108 83.075 222.53 83.497 223.049 83.497Z" fill="#161742"/>
<path d="M208.573 74.3499C209.027 74.3499 209.395 73.981 209.395 73.526C209.395 73.0709 209.027 72.702 208.573 72.702C208.118 72.702 207.75 73.0709 207.75 73.526C207.75 73.981 208.118 74.3499 208.573 74.3499Z" fill="#161742"/>
</g>
<g opacity="0.54">
<path d="M180.773 51.7545C181.219 51.7545 181.582 51.3918 181.582 50.9445C181.582 50.4972 181.219 50.1345 180.773 50.1345C180.326 50.1345 179.964 50.4972 179.964 50.9445C179.964 51.3918 180.326 51.7545 180.773 51.7545Z" fill="#161742"/>
<path d="M206.899 52.9101C207.421 52.9101 207.844 52.4865 207.844 51.9639C207.844 51.4414 207.421 51.0178 206.899 51.0178C206.378 51.0178 205.955 51.4414 205.955 51.9639C205.955 52.4865 206.378 52.9101 206.899 52.9101Z" fill="#161742"/>
<path d="M158.101 88.0217C158.495 88.0217 158.815 87.7013 158.815 87.306C158.815 86.9107 158.495 86.5903 158.101 86.5903C157.706 86.5903 157.386 86.9107 157.386 87.306C157.386 87.7013 157.706 88.0217 158.101 88.0217Z" fill="#161742"/>
<path d="M196.372 75.1075C196.823 75.1075 197.188 74.7417 197.188 74.2906C197.188 73.8394 196.823 73.4736 196.372 73.4736C195.922 73.4736 195.556 73.8394 195.556 74.2906C195.556 74.7417 195.922 75.1075 196.372 75.1075Z" fill="#161742"/>
<path d="M178.657 83.5005C179.079 83.5005 179.42 83.1582 179.42 82.7359C179.42 82.3136 179.079 81.9713 178.657 81.9713C178.235 81.9713 177.894 82.3136 177.894 82.7359C177.894 83.1582 178.235 83.5005 178.657 83.5005Z" fill="#161742"/>
<path d="M159.077 53.926C159.618 53.926 160.056 53.4868 160.056 52.945C160.056 52.4032 159.618 51.9639 159.077 51.9639C158.536 51.9639 158.097 52.4032 158.097 52.945C158.097 53.4868 158.536 53.926 159.077 53.926Z" fill="#161742"/>
<path d="M169.841 46.7131C170.486 46.7131 171.009 46.1894 171.009 45.5435C171.009 44.8976 170.486 44.3739 169.841 44.3739C169.196 44.3739 168.673 44.8976 168.673 45.5435C168.673 46.1894 169.196 46.7131 169.841 46.7131Z" fill="#161742"/>
<path d="M199.056 59.6203C199.405 59.6203 199.687 59.3374 199.687 58.9884C199.687 58.6394 199.405 58.3564 199.056 58.3564C198.708 58.3564 198.425 58.6394 198.425 58.9884C198.425 59.3374 198.708 59.6203 199.056 59.6203Z" fill="#161742"/>
<path d="M166.007 19.7466C166.465 19.7466 166.836 19.3746 166.836 18.9157C166.836 18.4567 166.465 18.0847 166.007 18.0847C165.549 18.0847 165.177 18.4567 165.177 18.9157C165.177 19.3746 165.549 19.7466 166.007 19.7466Z" fill="#161742"/>
<path d="M185.291 23.0633C185.645 23.0633 185.932 22.7757 185.932 22.4209C185.932 22.0661 185.645 21.7785 185.291 21.7785C184.936 21.7785 184.649 22.0661 184.649 22.4209C184.649 22.7757 184.936 23.0633 185.291 23.0633Z" fill="#161742"/>
<path d="M155.431 33.4812C155.737 33.4812 155.985 33.2327 155.985 32.9261C155.985 32.6195 155.737 32.371 155.431 32.371C155.125 32.371 154.876 32.6195 154.876 32.9261C154.876 33.2327 155.125 33.4812 155.431 33.4812Z" fill="#161742"/>
<path d="M189.188 79.2272C189.729 79.2272 190.167 78.788 190.167 78.2461C190.167 77.7043 189.729 77.2651 189.188 77.2651C188.647 77.2651 188.208 77.7043 188.208 78.2461C188.208 78.788 188.647 79.2272 189.188 79.2272Z" fill="#161742"/>
<path d="M166.948 83.497C167.468 83.497 167.889 83.075 167.889 82.5544C167.889 82.0338 167.468 81.6117 166.948 81.6117C166.428 81.6117 166.007 82.0338 166.007 82.5544C166.007 83.075 166.428 83.497 166.948 83.497Z" fill="#161742"/>
<path d="M152.471 74.3499C152.926 74.3499 153.294 73.981 153.294 73.526C153.294 73.0709 152.926 72.702 152.471 72.702C152.017 72.702 151.649 73.0709 151.649 73.526C151.649 73.981 152.017 74.3499 152.471 74.3499Z" fill="#161742"/>
</g>
<g opacity="0.54">
<path d="M12.0506 145.195C12.8669 145.195 13.5286 144.532 13.5286 143.714C13.5286 142.897 12.8669 142.234 12.0506 142.234C11.2344 142.234 10.5726 142.897 10.5726 143.714C10.5726 144.532 11.2344 145.195 12.0506 145.195Z" fill="#161742"/>
<path d="M29.1243 124.296C29.5709 124.296 29.933 123.933 29.933 123.486C29.933 123.039 29.5709 122.676 29.1243 122.676C28.6776 122.676 28.3156 123.039 28.3156 123.486C28.3156 123.933 28.6776 124.296 29.1243 124.296Z" fill="#161742"/>
<path d="M33.0006 133.446C33.7072 133.446 34.2799 132.873 34.2799 132.165C34.2799 131.458 33.7072 130.884 33.0006 130.884C32.2941 130.884 31.7213 131.458 31.7213 132.165C31.7213 132.873 32.2941 133.446 33.0006 133.446Z" fill="#161742"/>
<path d="M69.8774 140.349C70.3991 140.349 70.8221 139.925 70.8221 139.403C70.8221 138.88 70.3991 138.456 69.8774 138.456C69.3557 138.456 68.9327 138.88 68.9327 139.403C68.9327 139.925 69.3557 140.349 69.8774 140.349Z" fill="#161742"/>
<path d="M47.4773 143.445C47.872 143.445 48.1919 143.125 48.1919 142.73C48.1919 142.334 47.872 142.014 47.4773 142.014C47.0826 142.014 46.7627 142.334 46.7627 142.73C46.7627 143.125 47.0826 143.445 47.4773 143.445Z" fill="#161742"/>
<path d="M26.4123 149.489C26.8339 149.489 27.1757 149.146 27.1757 148.724C27.1757 148.302 26.8339 147.96 26.4123 147.96C25.9907 147.96 25.6489 148.302 25.6489 148.724C25.6489 149.146 25.9907 149.489 26.4123 149.489Z" fill="#161742"/>
<path d="M7.42838 126.471C7.96935 126.471 8.4079 126.032 8.4079 125.49C8.4079 124.948 7.96935 124.509 7.42838 124.509C6.8874 124.509 6.44885 124.948 6.44885 125.49C6.44885 126.032 6.8874 126.471 7.42838 126.471Z" fill="#161742"/>
<path d="M18.1927 119.258C18.8376 119.258 19.3604 118.734 19.3604 118.088C19.3604 117.442 18.8376 116.919 18.1927 116.919C17.5477 116.919 17.0249 117.442 17.0249 118.088C17.0249 118.734 17.5477 119.258 18.1927 119.258Z" fill="#161742"/>
<path d="M42.4054 147.527C42.7538 147.527 43.0363 147.244 43.0363 146.895C43.0363 146.546 42.7538 146.263 42.4054 146.263C42.0569 146.263 41.7744 146.546 41.7744 146.895C41.7744 147.244 42.0569 147.527 42.4054 147.527Z" fill="#161742"/>
<path d="M14.3582 92.2915C14.8164 92.2915 15.1878 91.9195 15.1878 91.4606C15.1878 91.0017 14.8164 90.6296 14.3582 90.6296C13.9 90.6296 13.5286 91.0017 13.5286 91.4606C13.5286 91.9195 13.9 92.2915 14.3582 92.2915Z" fill="#161742"/>
<path d="M33.642 95.6047C33.9962 95.6047 34.2834 95.3171 34.2834 94.9623C34.2834 94.6075 33.9962 94.3199 33.642 94.3199C33.2878 94.3199 33.0006 94.6075 33.0006 94.9623C33.0006 95.3171 33.2878 95.6047 33.642 95.6047Z" fill="#161742"/>
<path d="M41.0773 107.14C41.6915 107.14 42.1893 106.641 42.1893 106.026C42.1893 105.411 41.6915 104.912 41.0773 104.912C40.4632 104.912 39.9653 105.411 39.9653 106.026C39.9653 106.641 40.4632 107.14 41.0773 107.14Z" fill="#161742"/>
<path d="M3.78216 106.026C4.08826 106.026 4.33641 105.778 4.33641 105.471C4.33641 105.164 4.08826 104.916 3.78216 104.916C3.47605 104.916 3.22791 105.164 3.22791 105.471C3.22791 105.778 3.47605 106.026 3.78216 106.026Z" fill="#161742"/>
<path d="M56.3244 138.921C56.8442 138.921 57.2655 138.499 57.2655 137.978C57.2655 137.458 56.8442 137.035 56.3244 137.035C55.8046 137.035 55.3832 137.458 55.3832 137.978C55.3832 138.499 55.8046 138.921 56.3244 138.921Z" fill="#161742"/>
<path d="M0.822661 146.895C1.277 146.895 1.64532 146.526 1.64532 146.071C1.64532 145.616 1.277 145.247 0.822661 145.247C0.368318 145.247 0 145.616 0 146.071C0 146.526 0.368318 146.895 0.822661 146.895Z" fill="#161742"/>
</g>
<g opacity="0.54">
<path d="M252.686 129.802C253.133 129.802 253.495 129.462 253.495 129.044C253.495 128.626 253.133 128.286 252.686 128.286C252.239 128.286 251.877 128.626 251.877 129.044C251.877 129.462 252.239 129.802 252.686 129.802Z" fill="#161742"/>
<path d="M282.873 117.921C283.395 117.921 283.818 117.524 283.818 117.034C283.818 116.544 283.395 116.147 282.873 116.147C282.352 116.147 281.929 116.544 281.929 117.034C281.929 117.524 282.352 117.921 282.873 117.921Z" fill="#161742"/>
<path d="M230.011 163.733C230.405 163.733 230.725 163.433 230.725 163.063C230.725 162.693 230.405 162.393 230.011 162.393C229.616 162.393 229.296 162.693 229.296 163.063C229.296 163.433 229.616 163.733 230.011 163.733Z" fill="#161742"/>
<path d="M252.686 145.889C253.136 145.889 253.502 145.547 253.502 145.125C253.502 144.702 253.136 144.36 252.686 144.36C252.235 144.36 251.87 144.702 251.87 145.125C251.87 145.547 252.235 145.889 252.686 145.889Z" fill="#161742"/>
<path d="M250.567 159.502C250.988 159.502 251.33 159.181 251.33 158.786C251.33 158.391 250.988 158.07 250.567 158.07C250.145 158.07 249.803 158.391 249.803 158.786C249.803 159.181 250.145 159.502 250.567 159.502Z" fill="#161742"/>
<path d="M230.99 131.834C231.531 131.834 231.97 131.422 231.97 130.915C231.97 130.408 231.531 129.997 230.99 129.997C230.449 129.997 230.01 130.408 230.01 130.915C230.01 131.422 230.449 131.834 230.99 131.834Z" fill="#161742"/>
<path d="M270.969 137.161C271.318 137.161 271.6 136.897 271.6 136.571C271.6 136.245 271.318 135.981 270.969 135.981C270.621 135.981 270.338 136.245 270.338 136.571C270.338 136.897 270.621 137.161 270.969 137.161Z" fill="#161742"/>
<path d="M237.916 99.8536C238.375 99.8536 238.746 99.5066 238.746 99.0785C238.746 98.6505 238.375 98.3035 237.916 98.3035C237.458 98.3035 237.087 98.6505 237.087 99.0785C237.087 99.5066 237.458 99.8536 237.916 99.8536Z" fill="#161742"/>
<path d="M257.204 102.957C257.558 102.957 257.845 102.688 257.845 102.357C257.845 102.025 257.558 101.756 257.204 101.756C256.849 101.756 256.562 102.025 256.562 102.357C256.562 102.688 256.849 102.957 257.204 102.957Z" fill="#161742"/>
<path d="M273.123 100.119C273.738 100.119 274.235 99.6531 274.235 99.0785C274.235 98.5039 273.738 98.0381 273.123 98.0381C272.509 98.0381 272.011 98.5039 272.011 99.0785C272.011 99.6531 272.509 100.119 273.123 100.119Z" fill="#161742"/>
<path d="M227.34 112.705C227.646 112.705 227.895 112.472 227.895 112.185C227.895 111.897 227.646 111.665 227.34 111.665C227.034 111.665 226.786 111.897 226.786 112.185C226.786 112.472 227.034 112.705 227.34 112.705Z" fill="#161742"/>
<path d="M261.101 155.504C261.642 155.504 262.08 155.093 262.08 154.586C262.08 154.079 261.642 153.668 261.101 153.668C260.56 153.668 260.121 154.079 260.121 154.586C260.121 155.093 260.56 155.504 261.101 155.504Z" fill="#161742"/>
<path d="M238.858 159.502C239.377 159.502 239.799 159.106 239.799 158.618C239.799 158.131 239.377 157.735 238.858 157.735C238.338 157.735 237.916 158.131 237.916 158.618C237.916 159.106 238.338 159.502 238.858 159.502Z" fill="#161742"/>
<path d="M224.384 150.941C224.839 150.941 225.207 150.596 225.207 150.17C225.207 149.744 224.839 149.398 224.384 149.398C223.93 149.398 223.562 149.744 223.562 150.17C223.562 150.596 223.93 150.941 224.384 150.941Z" fill="#161742"/>
</g>
<g opacity="0.54">
<path d="M78.9616 164.864C79.4082 164.864 79.7703 164.502 79.7703 164.054C79.7703 163.607 79.4082 163.244 78.9616 163.244C78.5149 163.244 78.1528 163.607 78.1528 164.054C78.1528 164.502 78.5149 164.864 78.9616 164.864Z" fill="#161742"/>
<path d="M78.9616 182.062C79.4121 182.062 79.7773 181.697 79.7773 181.245C79.7773 180.794 79.4121 180.428 78.9616 180.428C78.5111 180.428 78.1459 180.794 78.1459 181.245C78.1459 181.697 78.5111 182.062 78.9616 182.062Z" fill="#161742"/>
<path d="M76.8421 196.614C77.2638 196.614 77.6055 196.272 77.6055 195.849C77.6055 195.427 77.2638 195.085 76.8421 195.085C76.4205 195.085 76.0787 195.427 76.0787 195.849C76.0787 196.272 76.4205 196.614 76.8421 196.614Z" fill="#161742"/>
<path d="M97.2448 172.734C97.5933 172.734 97.8758 172.451 97.8758 172.102C97.8758 171.753 97.5933 171.47 97.2448 171.47C96.8964 171.47 96.6139 171.753 96.6139 172.102C96.6139 172.451 96.8964 172.734 97.2448 172.734Z" fill="#161742"/>
<path d="M64.1921 132.86C64.6502 132.86 65.0217 132.488 65.0217 132.029C65.0217 131.57 64.6502 131.198 64.1921 131.198C63.7339 131.198 63.3624 131.57 63.3624 132.029C63.3624 132.488 63.7339 132.86 64.1921 132.86Z" fill="#161742"/>
<path d="M83.4793 136.173C83.8335 136.173 84.1207 135.886 84.1207 135.531C84.1207 135.176 83.8335 134.888 83.4793 134.888C83.1251 134.888 82.8379 135.176 82.8379 135.531C82.8379 135.886 83.1251 136.173 83.4793 136.173Z" fill="#161742"/>
<path d="M87.3764 192.341C87.9174 192.341 88.3559 191.901 88.3559 191.36C88.3559 190.818 87.9174 190.378 87.3764 190.378C86.8354 190.378 86.3969 190.818 86.3969 191.36C86.3969 191.901 86.8354 192.341 87.3764 192.341Z" fill="#161742"/>
<path d="M1.79874 214.716C2.25308 214.716 2.6214 214.347 2.6214 213.892C2.6214 213.437 2.25308 213.068 1.79874 213.068C1.34439 213.068 0.976074 213.437 0.976074 213.892C0.976074 214.347 1.34439 214.716 1.79874 214.716Z" fill="#161742"/>
</g>
<g opacity="0.54">
<path d="M107.664 15.0089C108.111 15.0089 108.473 14.6463 108.473 14.199C108.473 13.7516 108.111 13.389 107.664 13.389C107.217 13.389 106.855 13.7516 106.855 14.199C106.855 14.6463 107.217 15.0089 107.664 15.0089Z" fill="#161742"/>
<path d="M90.4126 29.9899C90.9343 29.9899 91.3572 29.5663 91.3572 29.0438C91.3572 28.5213 90.9343 28.0977 90.4126 28.0977C89.8908 28.0977 89.4679 28.5213 89.4679 29.0438C89.4679 29.5663 89.8908 29.9899 90.4126 29.9899Z" fill="#161742"/>
<path d="M107.664 32.2069C108.115 32.2069 108.48 31.8411 108.48 31.3899C108.48 30.9387 108.115 30.573 107.664 30.573C107.214 30.573 106.848 30.9387 106.848 31.3899C106.848 31.8411 107.214 32.2069 107.664 32.2069Z" fill="#161742"/>
<path d="M115.971 53.1963C116.512 53.1963 116.95 52.7571 116.95 52.2153C116.95 51.6735 116.512 51.2343 115.971 51.2343C115.43 51.2343 114.991 51.6735 114.991 52.2153C114.991 52.7571 115.43 53.1963 115.971 53.1963Z" fill="#161742"/>
<path d="M95.2578 12.1601C95.716 12.1601 96.0875 11.7881 96.0875 11.3292C96.0875 10.8702 95.716 10.4982 95.2578 10.4982C94.7997 10.4982 94.4282 10.8702 94.4282 11.3292C94.4282 11.7881 94.7997 12.1601 95.2578 12.1601Z" fill="#161742"/>
<path d="M112.823 1.28478C113.177 1.28478 113.464 0.997175 113.464 0.642392C113.464 0.287609 113.177 0 112.823 0C112.469 0 112.182 0.287609 112.182 0.642392C112.182 0.997175 112.469 1.28478 112.823 1.28478Z" fill="#161742"/>
<path d="M72.9728 36.2777C73.2789 36.2777 73.5271 36.0292 73.5271 35.7226C73.5271 35.416 73.2789 35.1675 72.9728 35.1675C72.6667 35.1675 72.4186 35.416 72.4186 35.7226C72.4186 36.0292 72.6667 36.2777 72.9728 36.2777Z" fill="#161742"/>
<path d="M94.4283 49.2093C94.8826 49.2093 95.2509 48.8404 95.2509 48.3854C95.2509 47.9304 94.8826 47.5615 94.4283 47.5615C93.9739 47.5615 93.6056 47.9304 93.6056 48.3854C93.6056 48.8404 93.9739 49.2093 94.4283 49.2093Z" fill="#161742"/>
</g>
<g opacity="0.54">
<path d="M199.534 119.848C199.98 119.848 200.342 119.485 200.342 119.038C200.342 118.591 199.98 118.228 199.534 118.228C199.087 118.228 198.725 118.591 198.725 119.038C198.725 119.485 199.087 119.848 199.534 119.848Z" fill="#161742"/>
<path d="M225.66 121.004C226.182 121.004 226.605 120.58 226.605 120.057C226.605 119.535 226.182 119.111 225.66 119.111C225.139 119.111 224.716 119.535 224.716 120.057C224.716 120.58 225.139 121.004 225.66 121.004Z" fill="#161742"/>
<path d="M176.858 156.115C177.253 156.115 177.573 155.795 177.573 155.4C177.573 155.004 177.253 154.684 176.858 154.684C176.464 154.684 176.144 155.004 176.144 155.4C176.144 155.795 176.464 156.115 176.858 156.115Z" fill="#161742"/>
<path d="M215.133 143.201C215.583 143.201 215.949 142.835 215.949 142.384C215.949 141.933 215.583 141.567 215.133 141.567C214.682 141.567 214.317 141.933 214.317 142.384C214.317 142.835 214.682 143.201 215.133 143.201Z" fill="#161742"/>
<path d="M197.414 151.594C197.836 151.594 198.178 151.252 198.178 150.829C198.178 150.407 197.836 150.065 197.414 150.065C196.993 150.065 196.651 150.407 196.651 150.829C196.651 151.252 196.993 151.594 197.414 151.594Z" fill="#161742"/>
<path d="M177.838 122.02C178.379 122.02 178.817 121.58 178.817 121.039C178.817 120.497 178.379 120.057 177.838 120.057C177.297 120.057 176.858 120.497 176.858 121.039C176.858 121.58 177.297 122.02 177.838 122.02Z" fill="#161742"/>
<path d="M188.602 114.807C189.247 114.807 189.77 114.283 189.77 113.637C189.77 112.991 189.247 112.467 188.602 112.467C187.957 112.467 187.434 112.991 187.434 113.637C187.434 114.283 187.957 114.807 188.602 114.807Z" fill="#161742"/>
<path d="M217.817 127.714C218.165 127.714 218.448 127.431 218.448 127.082C218.448 126.733 218.165 126.45 217.817 126.45C217.469 126.45 217.186 126.733 217.186 127.082C217.186 127.431 217.469 127.714 217.817 127.714Z" fill="#161742"/>
<path d="M184.764 87.8401C185.222 87.8401 185.594 87.4681 185.594 87.0092C185.594 86.5503 185.222 86.1783 184.764 86.1783C184.306 86.1783 183.935 86.5503 183.935 87.0092C183.935 87.4681 184.306 87.8401 184.764 87.8401Z" fill="#161742"/>
<path d="M204.051 91.1568C204.406 91.1568 204.693 90.8692 204.693 90.5144C204.693 90.1596 204.406 89.872 204.051 89.872C203.697 89.872 203.41 90.1596 203.41 90.5144C203.41 90.8692 203.697 91.1568 204.051 91.1568Z" fill="#161742"/>
<path d="M174.188 101.575C174.494 101.575 174.742 101.326 174.742 101.02C174.742 100.713 174.494 100.465 174.188 100.465C173.882 100.465 173.634 100.713 173.634 101.02C173.634 101.326 173.882 101.575 174.188 101.575Z" fill="#161742"/>
<path d="M207.949 147.321C208.489 147.321 208.928 146.882 208.928 146.34C208.928 145.798 208.489 145.359 207.949 145.359C207.408 145.359 206.969 145.798 206.969 146.34C206.969 146.882 207.408 147.321 207.949 147.321Z" fill="#161742"/>
<path d="M185.709 151.591C186.229 151.591 186.65 151.169 186.65 150.648C186.65 150.127 186.229 149.705 185.709 149.705C185.189 149.705 184.768 150.127 184.768 150.648C184.768 151.169 185.189 151.591 185.709 151.591Z" fill="#161742"/>
<path d="M171.232 142.443C171.686 142.443 172.055 142.075 172.055 141.62C172.055 141.164 171.686 140.796 171.232 140.796C170.778 140.796 170.409 141.164 170.409 141.62C170.409 142.075 170.778 142.443 171.232 142.443Z" fill="#161742"/>
</g>
</g>
<path d="M13.2498 178.585L65.3179 203.956L13.2498 214.761V178.585Z" fill="#FFD325"/>
<path d="M46.2119 126.426L62.8917 153.675L13.7656 126.464L46.2119 126.426Z" fill="#FFD325"/>
<path d="M66.294 126.597L71.3032 140.22L55.094 126.426L66.294 126.597Z" fill="#FFD325"/>
<path d="M89.2483 126.576L86.1947 140.516L75.7092 126.426L89.2483 126.576Z" fill="#FFD325"/>
<path d="M13.2498 133.419L62.5049 178.522L13.2498 169.595V133.419Z" fill="#FFD325"/>
<path d="M180.804 155.005C189.902 153.563 194.566 149.129 197.655 143.655C199.91 139.654 200.764 132.699 199.746 127.574C199.185 124.701 198.188 121.929 196.787 119.359C198.387 115.184 197.372 110.509 195.33 106.504C192.722 101.393 187.762 97.6017 181.77 98.3977C180.801 98.5269 181.508 99.466 182.303 99.8186C189.177 102.943 191.29 108.163 191.903 113.41C191.426 113.026 190.924 112.666 190.404 112.342C185.5 109.214 177.538 108.442 172.156 110.659C166.774 112.876 165.906 118.2 169.629 122.452C174.652 128.196 184.025 129.732 190.638 126.139C191.373 128.559 191.673 131.09 191.523 133.618C191.23 138.376 188.745 142.618 184.147 145.404C182.589 146.35 179.072 147.136 177.252 147.007C174.115 146.752 173.024 146.591 170.235 145.404C168.949 144.87 167.669 145.868 167.248 147.09C164.734 154.418 175.907 155.784 180.804 155.005ZM188.044 120.77C185.378 122.18 181.494 122.906 178.685 121.796C176.872 121.098 175.485 120.393 174.558 119.174C172.958 117.038 175.23 116.001 177.758 116.018C181.892 116.039 185.538 117.498 188.044 120.773V120.77Z" fill="#1D478E" stroke="#161742" stroke-width="1.5" stroke-miterlimit="10"/>
<path d="M196.783 119.363C197.854 121.321 198.687 123.406 199.262 125.563C196.735 128.887 193.033 129.976 191.478 130.301C191.342 128.883 191.067 127.483 190.655 126.118C194.612 123.828 195.678 121.786 196.783 119.363Z" fill="#161742"/>
<path d="M188.044 120.77C187.738 120.368 187.403 119.984 187.047 119.621C188.191 118.965 189.205 118.106 190.038 117.083C191.802 114.985 191.921 113.41 191.921 113.41C192.07 115.98 190.328 119.509 188.044 120.77Z" fill="#161742"/>
<path d="M110.899 266.313V266.16L110.871 265.996C110.338 262.365 112.471 258.608 117.271 255.773C125.965 250.62 140.152 250.463 148.957 255.431C153.799 258.161 156.002 261.841 155.56 265.514V265.678C155.56 265.727 164.849 264.369 164.849 264.369L162.716 266.649C157.031 272.765 153.325 280.463 152.088 288.727L150.91 296.614V296.694C150.537 298.915 148.895 301.09 145.97 302.825C139.204 306.83 128.171 306.955 121.322 303.087C118.362 301.422 116.671 299.285 116.25 297.068V296.949L110.895 266.31L110.899 266.313Z" fill="#161742"/>
<path d="M110.899 266.313V266.16L110.871 265.996C110.338 262.365 112.471 258.608 117.271 255.773C125.965 250.62 140.152 250.463 148.957 255.431C153.799 258.161 156.002 261.841 155.56 265.514V265.678C155.56 265.727 164.849 264.369 164.849 264.369L162.716 266.649C157.031 272.765 153.325 280.463 152.088 288.727L150.91 296.614V296.694C150.537 298.915 148.895 301.09 145.97 302.825C139.204 306.83 128.171 306.955 121.322 303.087C118.362 301.422 116.671 299.285 116.25 297.068V296.949L110.895 266.31L110.899 266.313Z" fill="#161742"/>
<path d="M157.466 238.708C157.466 238.656 157.466 238.6 157.439 238.554L157.407 238.39C156.874 234.759 159.07 231.111 163.807 228.168C167.147 226.084 184.604 225.899 194.737 225.787C200.743 225.724 204.037 225.082 203.595 228.723V228.887C203.595 228.936 210.186 220.581 210.186 220.581C205.059 230.996 201.549 242.133 199.781 253.609L197.463 269.012V269.092C197.083 271.313 195.441 273.488 192.52 275.223C185.758 279.228 174.725 279.353 167.872 275.485C164.919 273.82 163.229 271.683 162.8 269.466V269.347L157.466 238.708Z" fill="#161742"/>
<path d="M105.506 248.833V248.679L105.534 248.515C105.977 244.874 103.715 241.274 98.939 238.432C95.5577 236.425 78.0936 236.617 68.009 236.721C62.0029 236.784 58.6983 236.215 59.2142 239.85V240.16L66.1476 279.999V280.079C66.5729 282.296 68.2809 284.433 71.2195 286.098C78.0657 289.96 89.1054 289.838 95.868 285.833C98.7891 284.101 100.431 281.93 100.811 279.706V279.587L105.51 248.836L105.506 248.833Z" fill="#161742"/>
<path d="M105.506 248.833V248.679L105.534 248.515C105.977 244.874 103.715 241.274 98.939 238.432C95.5577 236.425 78.0936 236.617 68.009 236.721C62.0029 236.784 58.6983 236.215 59.2142 239.85V240.16L66.1476 279.999V280.079C66.5729 282.296 68.2809 284.433 71.2195 286.098C78.0657 289.96 89.1054 289.838 95.868 285.833C98.7891 284.101 100.431 281.93 100.811 279.706V279.587L105.51 248.836L105.506 248.833Z" fill="#161742"/>
<path d="M106.615 134.092C116.497 129.679 129.97 127.853 141.526 127.728C180.965 127.302 213.285 158.975 213.714 198.478C213.996 224.76 200.28 249.412 180.891 264.372C171.563 271.568 157.864 278.98 149.323 282.457C134.76 288.375 125.581 289.01 112.394 289.153C72.9554 289.579 40.6381 257.906 40.2128 218.406C40.0141 200.273 46.7348 184.143 57.4678 171.236C61.9087 165.894 68.9955 157.704 74.6077 153.553C85.5498 145.467 95.6378 138.998 106.615 134.096V134.092Z" fill="#161742"/>
<path d="M106.615 134.092C116.497 129.679 129.97 127.853 141.526 127.728C180.965 127.302 213.285 158.975 213.714 198.478C213.996 224.76 200.28 249.412 180.891 264.372C171.563 271.568 157.864 278.98 149.323 282.457C134.76 288.375 125.581 289.01 112.394 289.153C72.9554 289.579 40.6381 257.906 40.2128 218.406C40.0141 200.273 46.7348 184.143 57.4678 171.236C61.9087 165.894 68.9955 157.704 74.6077 153.553C85.5498 145.467 95.6378 138.998 106.615 134.096V134.092Z" fill="#1D478E" stroke="#161742" stroke-width="1.5" stroke-miterlimit="10"/>
<path d="M112.729 259.54C119.935 259.54 125.776 253.69 125.776 246.473C125.776 239.255 119.935 233.405 112.729 233.405C105.523 233.405 99.6814 239.255 99.6814 246.473C99.6814 253.69 105.523 259.54 112.729 259.54Z" fill="#275DA9"/>
<path d="M49.7676 214.283C49.7676 209.284 46.9161 204.721 42.4229 202.532C41.1854 207.922 40.5893 213.442 40.6521 218.972C40.673 221.514 40.8298 224.052 41.1227 226.576C46.3026 224.712 49.7606 219.796 49.7676 214.28V214.283Z" fill="#275DA9"/>
<path d="M169.615 249.967C196.923 227.347 212.951 177.768 190.565 147.034C204.811 160.361 212.986 178.955 213.174 198.478C213.456 224.76 199.739 249.412 180.351 264.372C171.023 271.568 157.324 278.98 148.783 282.457C134.219 288.375 125.041 289.01 111.854 289.153C91.8 289.391 72.5755 281.151 58.9005 266.46C58.6704 266.209 58.4404 265.964 58.2173 265.713C98.6009 294.163 142.286 272.58 169.608 249.967H169.615Z" fill="#183F77"/>
<path d="M94.742 159.903L83.7825 166.404C72.7218 163.332 59.5558 165.416 51.2804 179.755C51.2804 179.755 48.042 146.389 52.1971 137.112C52.1971 137.112 54.4699 135.772 55.3972 135.22C56.7845 134.386 59.0329 134.12 61.7275 134.557C75.3467 136.802 87.7598 147.998 94.742 159.9V159.903Z" fill="#2F6BC0" stroke="#161742" stroke-width="1.5" stroke-miterlimit="10"/>
<path d="M83.7824 166.404C69.466 162.885 58.6285 167.472 51.2803 179.755C51.2803 179.755 38.2363 131.889 58.6459 136.376C72.4673 139.42 83.7824 166.4 83.7824 166.4V166.404Z" fill="#161742"/>
<path d="M83.7824 166.177C69.466 162.599 58.6285 167.263 51.2803 179.755C51.2803 179.755 38.2363 131.086 58.6459 135.646C72.4673 138.743 83.7824 166.177 83.7824 166.177Z" fill="#275DA9"/>
<path d="M63.08 161.841C76.2984 156.82 83.8069 166.401 83.8069 166.401C69.4905 162.881 58.653 167.469 51.3048 179.751C51.2769 179.758 49.8338 166.858 63.08 161.837V161.841Z" fill="#161742"/>
<path d="M105.977 178.917C118.177 189.795 129.179 203.649 137.353 224.492L147.87 218.312C151.788 214.248 161.733 179.912 141.717 167.371C128.332 158.996 105.977 178.917 105.977 178.917Z" fill="#2F6BC0" stroke="#161742" stroke-width="1.5" stroke-miterlimit="10"/>
<path d="M105.695 179.381C120.119 191.991 130.315 207.276 137.133 224.67C137.133 224.67 158.944 186.217 138.737 169.522C126.934 159.771 105.695 179.384 105.695 179.384V179.381Z" fill="#275DA9"/>
<path d="M105.566 178.917C105.566 178.917 118.111 178.784 128.729 193.018C138.653 206.334 137.259 224.851 137.259 224.851C130.455 207.35 119.987 191.611 105.566 178.92V178.917Z" fill="#161742"/>
<path d="M53.4835 215.418C57.7502 212.908 63.7912 213.281 70.5467 217.08C83.5734 224.422 94.2505 241.791 94.4039 255.882C94.4736 262.606 92.1311 267.357 88.2514 269.7C86.3795 270.828 79.0418 275.185 77.1489 276.284C72.8823 278.753 66.8692 278.379 60.145 274.588C47.1183 267.246 36.4202 249.877 36.2808 235.786C36.2111 229.044 38.5536 224.314 42.4229 221.974C44.2983 220.843 51.6116 216.521 53.4835 215.421V215.418Z" fill="#161742"/>
<path d="M42.4228 221.971C44.2982 220.84 51.6115 216.518 53.473 215.418C57.7397 212.908 63.7807 213.281 70.5362 217.08C75.9637 220.141 80.9833 224.945 85.0025 230.528L42.2834 255.85C38.6163 249.339 36.347 242.21 36.2773 235.786C36.2076 229.044 38.55 224.314 42.4193 221.974L42.4228 221.971Z" fill="#2F6BC0"/>
<path d="M91.8766 243.264L50.9562 267.406C47.5714 263.95 44.6572 260.064 42.2869 255.85L85.006 230.528C87.8539 234.449 90.1685 238.732 91.8801 243.268L91.8766 243.264Z" fill="#275DA9"/>
<path d="M59.5837 223.573C46.5605 216.231 36.1204 221.695 36.2808 235.782C36.4411 249.87 47.1183 267.239 60.1379 274.584C73.1611 281.926 83.6012 276.459 83.4409 262.375C83.2805 248.292 72.6103 230.919 59.5837 223.573Z" fill="#1D478E" stroke="#161742" stroke-width="1.5" stroke-miterlimit="10"/>
<path d="M68.2704 262.955C69.8705 263.852 71.1288 262.871 71.1079 260.759L70.9894 250.013C70.9894 247.904 69.6613 245.467 68.0717 244.57C66.4717 243.68 65.2134 244.661 65.2343 246.766L65.3528 257.515C65.3737 259.621 66.6809 262.054 68.2704 262.951V262.955Z" fill="#161742"/>
<path d="M70.9894 250.013L71.108 260.759C71.1149 261.181 71.0557 261.604 70.9337 262.009C70.7141 261.949 70.5014 261.862 70.3027 261.747C68.7027 260.85 67.406 258.42 67.3851 256.311L67.2665 245.565C67.2596 245.142 67.3188 244.72 67.4408 244.315C67.6604 244.374 67.8696 244.462 68.0718 244.57C69.6613 245.467 70.9685 247.904 70.9894 250.013Z" fill="#161742"/>
<path d="M70.9894 250.013L71.108 260.759C71.1149 261.181 71.0557 261.604 70.9337 262.009C70.7141 261.949 70.5014 261.862 70.3027 261.747C68.7027 260.85 67.406 258.42 67.3851 256.311L67.2665 245.565C67.2596 245.142 67.3188 244.72 67.4408 244.315C67.6604 244.374 67.8696 244.462 68.0718 244.57C69.6613 245.467 70.9685 247.904 70.9894 250.013Z" fill="#161742"/>
<path d="M51.6464 253.577C53.2464 254.475 54.5048 253.493 54.4838 251.381L54.3653 240.635C54.3653 238.526 53.0372 236.097 51.4477 235.199C49.8477 234.302 48.5893 235.283 48.6172 237.395L48.7287 248.141C48.7566 250.25 50.0603 252.687 51.6464 253.577Z" fill="#161742"/>
<path d="M54.3688 240.635L54.4873 251.381C54.4978 251.804 54.4385 252.226 54.313 252.631C54.0969 252.572 53.8843 252.485 53.6891 252.376C52.0891 251.479 50.7923 249.042 50.7714 246.933L50.6529 236.187C50.6355 235.758 50.6912 235.328 50.8167 234.917C51.0363 234.976 51.2455 235.063 51.4407 235.178C53.0407 236.097 54.3479 238.526 54.3688 240.635Z" fill="#161742"/>
<path d="M54.3688 240.635L54.4873 251.381C54.4978 251.804 54.4385 252.226 54.313 252.631C54.0969 252.572 53.8843 252.485 53.6891 252.376C52.0891 251.479 50.7923 249.042 50.7714 246.933L50.6529 236.187C50.6355 235.758 50.6912 235.328 50.8167 234.917C51.0363 234.976 51.2455 235.063 51.4407 235.178C53.0407 236.097 54.3479 238.526 54.3688 240.635Z" fill="#161742"/>
<path d="M77.1977 270.611C82.8483 262.574 78.979 245.903 72.5092 235.845C77.989 243.491 81.562 252.635 81.6491 260.689C81.792 274.452 71.6935 279.797 59.0817 272.622C54.7627 270.066 50.9178 266.771 47.7213 262.881C55.7353 272.36 71.1672 279.196 77.2012 270.611H77.1977Z" fill="#275DA9"/>
<path d="M95.237 219.007C95.0592 219.562 94.9651 220.159 94.979 220.791C95.0104 222.578 96.2653 224.191 97.8479 225.022C105.447 229.027 108.978 217.425 101.745 215.505C98.9111 214.754 96.0945 216.364 95.2405 219.007H95.237Z" fill="#161742"/>
<path d="M62.4002 197.399C58.9318 195.148 53.6402 198.045 53.832 202.301C54.0028 206.103 59.6359 208.959 62.693 206.571C65.9767 204.008 65.7501 199.571 62.4002 197.396V197.399Z" fill="#161742"/>
<path d="M113.82 161.233L138.472 146.616L132.926 143.487L108.271 158.105L113.82 161.233Z" fill="#161742"/>
<path d="M113.82 161.233L138.472 146.616L132.926 143.487L108.271 158.105L113.82 161.233Z" fill="#161742"/>
<path d="M132.926 143.487L132.957 146.675L111.049 159.669L108.271 158.105L132.926 143.487Z" fill="#275DA9"/>
<path d="M132.926 143.487L132.957 146.675L135.739 148.246L138.472 146.616L132.926 143.487Z" fill="#161742"/>
<path opacity="0.39" d="M240.231 284.332C252.312 284.332 262.105 278.669 262.105 271.683C262.105 264.697 252.312 259.034 240.231 259.034C228.151 259.034 218.357 264.697 218.357 271.683C218.357 278.669 228.151 284.332 240.231 284.332Z" fill="#FFD325"/>
<path d="M258.926 264.177H217.172V269.665H258.926V264.177Z" fill="#E4AD43"/>
<path d="M238.049 280.429C226.518 280.429 217.172 275.607 217.172 269.665C217.172 263.719 226.518 259.697 238.049 259.697C249.58 259.697 258.926 263.719 258.926 269.665C258.926 275.611 249.58 280.429 238.049 280.429Z" fill="#AF8E2F"/>
<path d="M238.049 275.328C226.518 275.328 217.172 270.513 217.172 264.575C217.172 258.636 226.518 253.822 238.049 253.822C249.58 253.822 258.926 258.636 258.926 264.575C258.926 270.513 249.58 275.328 238.049 275.328Z" fill="#C29A43"/>
<path d="M228.069 261.726C230.052 262.637 232.078 263.653 234.159 264.233C241.587 266.306 249.779 264.337 255.485 258.661C251.752 255.745 245.338 253.822 238.052 253.822C231.074 253.822 224.9 255.585 221.111 258.294C223.401 259.516 225.73 260.651 228.072 261.726H228.069Z" fill="#D7AE4D"/>
<path d="M238.049 272.622C229.4 272.622 222.39 269.138 222.39 264.837C222.39 260.535 229.4 257.051 238.049 257.051C246.697 257.051 253.707 260.539 253.707 264.837C253.707 269.134 246.697 272.622 238.049 272.622Z" fill="#AF8E2F"/>
<path d="M231.339 260.413V263.091C231.977 262.602 232.89 262.225 234.162 262.075V260.204L235.546 260.102V262.009C238.37 262.085 240.168 263.576 240.28 266.038C242.521 264.557 245.345 262.805 248.196 260.912V263.011C245.596 264.69 243.187 266.139 240.419 267.853L238.704 267.738V266.708C238.704 264.69 237.46 263.615 235.55 263.506V267.528L234.166 267.438V263.573C232.559 263.821 231.757 264.69 231.757 266.114V267.277L229.958 267.158V260.518L231.342 260.417L231.339 260.413Z" fill="#DEA041"/>
<path d="M230.987 260.665V263.325C231.625 262.843 232.538 262.47 233.81 262.33V260.469L235.194 260.371V262.264C238.018 262.354 239.816 263.845 239.928 266.289C242.169 264.83 244.993 263.101 247.844 261.23V263.318C245.244 264.976 242.835 266.404 240.067 268.094L238.352 267.972V266.949C238.352 264.941 237.108 263.87 235.198 263.751V267.745L233.814 267.647V263.81C232.207 264.048 231.405 264.91 231.405 266.324V267.479L229.606 267.35V260.762L230.99 260.665H230.987Z" fill="#FFD325"/>
<path d="M255.858 256.828H214.104V262.316H255.858V256.828Z" fill="#E4AD43"/>
<path d="M234.981 273.083C223.45 273.083 214.104 268.262 214.104 262.319C214.104 256.374 223.45 252.352 234.981 252.352C246.512 252.352 255.858 256.374 255.858 262.319C255.858 268.265 246.512 273.083 234.981 273.083Z" fill="#AF8E2F"/>
<path d="M234.981 267.982C223.45 267.982 214.104 263.168 214.104 257.229C214.104 251.291 223.45 246.476 234.981 246.476C246.512 246.476 255.858 251.291 255.858 257.229C255.858 263.168 246.512 267.982 234.981 267.982Z" fill="#C29A43"/>
<path d="M225.001 254.38C226.985 255.292 229.01 256.307 231.091 256.887C238.519 258.961 246.711 256.992 252.417 251.315C248.684 248.4 242.27 246.476 234.985 246.476C228.006 246.476 221.833 248.239 218.043 250.948C220.334 252.17 222.662 253.305 225.005 254.38H225.001Z" fill="#D7AE4D"/>
<path d="M234.981 265.277C226.333 265.277 219.323 261.792 219.323 257.491C219.323 253.19 226.333 249.705 234.981 249.705C243.63 249.705 250.64 253.193 250.64 257.491C250.64 261.789 243.63 265.277 234.981 265.277Z" fill="#AF8E2F"/>
<path d="M228.271 253.064V255.742C228.909 255.253 229.822 254.876 231.095 254.726V252.855L232.478 252.753V254.66C235.302 254.736 237.101 256.227 237.212 258.689C239.454 257.208 242.277 255.456 245.129 253.563V255.662C242.528 257.341 240.119 258.79 237.352 260.504L235.637 260.389V259.359C235.637 257.341 234.392 256.266 232.482 256.157V260.179L231.098 260.089V256.224C229.491 256.472 228.689 257.341 228.689 258.765V259.928L226.891 259.809V253.169L228.274 253.068L228.271 253.064Z" fill="#DEA041"/>
<path d="M227.919 253.315V255.976C228.557 255.494 229.47 255.12 230.743 254.981V253.12L232.126 253.022V254.914C234.95 255.005 236.749 256.496 236.86 258.94C239.102 257.481 241.925 255.752 244.777 253.881V255.969C242.176 257.627 239.767 259.055 237 260.745L235.285 260.623V259.6C235.285 257.592 234.04 256.52 232.13 256.402V260.396L230.746 260.298V256.461C229.139 256.698 228.337 257.561 228.337 258.975V260.13L226.539 260.001V253.413L227.922 253.315H227.919Z" fill="#FFD325"/>
<path d="M257.901 249.887H216.147V255.375H257.901V249.887Z" fill="#E4AD43"/>
<path d="M237.028 266.139C225.496 266.139 216.151 261.317 216.151 255.375C216.151 249.43 225.496 245.408 237.028 245.408C248.559 245.408 257.904 249.43 257.904 255.375C257.904 261.321 248.559 266.139 237.028 266.139Z" fill="#AF8E2F"/>
<path d="M237.028 261.038C225.496 261.038 216.151 256.224 216.151 250.285C216.151 244.346 225.496 239.532 237.028 239.532C248.559 239.532 257.904 244.346 257.904 250.285C257.904 256.224 248.559 261.038 237.028 261.038Z" fill="#C29A43"/>
<path d="M227.044 247.436C229.027 248.347 231.053 249.363 233.134 249.943C240.562 252.017 248.754 250.048 254.46 244.371C250.727 241.456 244.313 239.532 237.027 239.532C230.049 239.532 223.875 241.295 220.086 244.004C222.376 245.226 224.705 246.361 227.047 247.436H227.044Z" fill="#D7AE4D"/>
<path d="M237.027 258.332C228.379 258.332 221.369 254.848 221.369 250.547C221.369 246.246 228.379 242.761 237.027 242.761C245.676 242.761 252.686 246.249 252.686 250.547C252.686 254.845 245.676 258.332 237.027 258.332Z" fill="#AF8E2F"/>
<path d="M230.314 246.12V248.798C230.952 248.309 231.865 247.932 233.137 247.782V245.91L234.521 245.809V247.715C237.345 247.792 239.143 249.283 239.255 251.744C241.496 250.264 244.32 248.511 247.171 246.619V248.717C244.571 250.397 242.162 251.846 239.394 253.56L237.679 253.445V252.415C237.679 250.397 236.435 249.321 234.525 249.213V253.235L233.141 253.144V249.28C231.534 249.527 230.732 250.397 230.732 251.821V252.984L228.933 252.865V246.225L230.317 246.123L230.314 246.12Z" fill="#DEA041"/>
<path d="M229.962 246.375V249.035C230.6 248.553 231.513 248.18 232.785 248.04V246.179L234.169 246.082V247.974C236.993 248.065 238.791 249.555 238.903 251.999C241.144 250.54 243.968 248.812 246.819 246.94V249.028C244.219 250.687 241.81 252.114 239.042 253.804L237.327 253.682V252.659C237.327 250.652 236.083 249.58 234.173 249.461V253.455L232.789 253.357V249.52C231.182 249.758 230.38 250.62 230.38 252.034V253.19L228.581 253.061V246.473L229.965 246.375H229.962Z" fill="#FFD325"/>
<path d="M254.408 242.765H212.654V248.253H254.408V242.765Z" fill="#E4AD43"/>
<path d="M233.535 259.017C222.004 259.017 212.658 254.195 212.658 248.253C212.658 242.308 222.004 238.286 233.535 238.286C245.066 238.286 254.412 242.308 254.412 248.253C254.412 254.199 245.066 259.017 233.535 259.017Z" fill="#AF8E2F"/>
<path d="M233.535 253.916C222.004 253.916 212.658 249.102 212.658 243.163C212.658 237.224 222.004 232.41 233.535 232.41C245.066 232.41 254.412 237.224 254.412 243.163C254.412 249.102 245.066 253.916 233.535 253.916Z" fill="#C29A43"/>
<path d="M223.551 240.314C225.535 241.225 227.56 242.241 229.641 242.821C237.069 244.895 245.261 242.925 250.967 237.249C247.234 234.333 240.82 232.41 233.535 232.41C226.556 232.41 220.383 234.173 216.593 236.882C218.884 238.104 221.212 239.239 223.555 240.314H223.551Z" fill="#D7AE4D"/>
<path d="M233.535 251.21C224.886 251.21 217.876 247.726 217.876 243.425C217.876 239.123 224.886 235.639 233.535 235.639C242.183 235.639 249.193 239.127 249.193 243.425C249.193 247.722 242.183 251.21 233.535 251.21Z" fill="#AF8E2F"/>
<path d="M226.821 239.001V241.679C227.459 241.19 228.372 240.813 229.644 240.663V238.792L231.028 238.691V240.597C233.852 240.674 235.651 242.164 235.762 244.626C238.004 243.145 240.827 241.393 243.679 239.501V241.599C241.078 243.278 238.669 244.727 235.902 246.441L234.187 246.326V245.296C234.187 243.278 232.942 242.203 231.032 242.095V246.116L229.648 246.026V242.161C228.041 242.409 227.239 243.278 227.239 244.703V245.865L225.441 245.746V239.106L226.824 239.005L226.821 239.001Z" fill="#DEA041"/>
<path d="M226.469 239.253V241.913C227.107 241.431 228.02 241.058 229.292 240.918V239.057L230.676 238.959V240.852C233.5 240.942 235.299 242.433 235.41 244.877C237.652 243.418 240.475 241.69 243.326 239.818V241.906C240.726 243.564 238.317 244.992 235.55 246.682L233.835 246.56V245.537C233.835 243.529 232.59 242.458 230.68 242.339V246.333L229.296 246.235V242.398C227.689 242.636 226.887 243.498 226.887 244.912V246.068L225.089 245.938V239.35L226.472 239.253H226.469Z" fill="#FFD325"/>
<path d="M257.869 235.342H216.116V240.831H257.869V235.342Z" fill="#E4AD43"/>
<path d="M236.993 251.598C225.461 251.598 216.116 246.776 216.116 240.834C216.116 234.889 225.461 230.867 236.993 230.867C248.524 230.867 257.869 234.889 257.869 240.834C257.869 246.78 248.524 251.598 236.993 251.598Z" fill="#AF8E2F"/>
<path d="M236.993 246.497C225.461 246.497 216.116 241.683 216.116 235.744C216.116 229.805 225.461 224.991 236.993 224.991C248.524 224.991 257.869 229.805 257.869 235.744C257.869 241.683 248.524 246.497 236.993 246.497Z" fill="#C29A43"/>
<path d="M227.009 232.895C228.993 233.806 231.018 234.822 233.099 235.402C240.527 237.476 248.719 235.507 254.425 229.83C250.692 226.915 244.278 224.991 236.993 224.991C230.014 224.991 223.841 226.754 220.051 229.463C222.342 230.685 224.67 231.82 227.013 232.895H227.009Z" fill="#D7AE4D"/>
<path d="M236.993 243.791C228.344 243.791 221.334 240.307 221.334 236.006C221.334 231.705 228.344 228.22 236.993 228.22C245.641 228.22 252.651 231.708 252.651 236.006C252.651 240.304 245.641 243.791 236.993 243.791Z" fill="#AF8E2F"/>
<path d="M230.279 231.579V234.257C230.917 233.768 231.83 233.391 233.102 233.241V231.369L234.486 231.268V233.174C237.31 233.251 239.108 234.742 239.22 237.203C241.461 235.723 244.285 233.97 247.136 232.078V234.176C244.536 235.856 242.127 237.305 239.359 239.019L237.644 238.904V237.874C237.644 235.856 236.4 234.78 234.49 234.672V238.694L233.106 238.603V234.738C231.499 234.986 230.697 235.856 230.697 237.28V238.443L228.898 238.324V231.684L230.282 231.582L230.279 231.579Z" fill="#DEA041"/>
<path d="M229.927 231.83V234.491C230.565 234.009 231.478 233.635 232.75 233.496V231.635L234.134 231.537V233.429C236.958 233.52 238.756 235.011 238.868 237.455C241.109 235.995 243.933 234.267 246.784 232.396V234.484C244.184 236.142 241.775 237.57 239.007 239.26L237.292 239.137V238.115C237.292 236.107 236.048 235.035 234.138 234.916V238.91L232.754 238.813V234.976C231.147 235.213 230.345 236.076 230.345 237.49V238.645L228.546 238.516V231.928L229.93 231.83H229.927Z" fill="#FFD325"/>
<path opacity="0.39" d="M212.881 326.154C227.372 326.154 239.119 319.359 239.119 310.977C239.119 302.595 227.372 295.801 212.881 295.801C198.39 295.801 186.643 302.595 186.643 310.977C186.643 319.359 198.39 326.154 212.881 326.154Z" fill="#FFD325"/>
<path d="M236.013 302.071H185.921V308.655H236.013V302.071Z" fill="#E4AD43"/>
<path d="M210.967 321.57C197.135 321.57 185.921 315.788 185.921 308.655C185.921 301.523 197.135 296.698 210.967 296.698C224.799 296.698 236.013 301.523 236.013 308.655C236.013 315.788 224.799 321.57 210.967 321.57Z" fill="#AF8E2F"/>
<path d="M210.967 315.449C197.135 315.449 185.921 309.675 185.921 302.549C185.921 295.424 197.135 289.649 210.967 289.649C224.799 289.649 236.013 295.424 236.013 302.549C236.013 309.675 224.799 315.449 210.967 315.449Z" fill="#C29A43"/>
<path d="M198.993 299.131C201.371 300.224 203.8 301.442 206.3 302.141C215.21 304.63 225.04 302.266 231.882 295.455C227.403 291.96 219.71 289.649 210.967 289.649C202.598 289.649 195.19 291.765 190.641 295.015C193.388 296.481 196.18 297.84 198.993 299.131Z" fill="#D7AE4D"/>
<path d="M210.967 312.203C200.593 312.203 192.182 308.02 192.182 302.863C192.182 297.707 200.593 293.524 210.967 293.524C221.341 293.524 229.753 297.707 229.753 302.863C229.753 308.02 221.341 312.203 210.967 312.203Z" fill="#AF8E2F"/>
<path d="M202.915 297.553V300.765C203.678 300.179 204.773 299.725 206.303 299.547V297.302L207.962 297.18V299.466C211.351 299.561 213.508 301.348 213.641 304.298C216.332 302.525 219.717 300.42 223.136 298.15V300.667C220.017 302.682 217.127 304.417 213.805 306.477L211.745 306.341V305.108C211.745 302.685 210.249 301.397 207.959 301.264V306.089L206.3 305.978V301.341C204.376 301.638 203.41 302.682 203.41 304.393V305.786L201.252 305.643V297.679L202.911 297.557L202.915 297.553Z" fill="#DEA041"/>
<path d="M202.493 297.857V301.048C203.257 300.468 204.351 300.025 205.881 299.854V297.623L207.541 297.508V299.777C210.929 299.885 213.087 301.673 213.219 304.606C215.91 302.853 219.295 300.779 222.715 298.538V301.045C219.595 303.031 216.705 304.745 213.383 306.774L211.323 306.627V305.402C211.323 302.996 209.827 301.708 207.537 301.565V306.358L205.878 306.24V301.635C203.954 301.921 202.988 302.954 202.988 304.647V306.034L200.83 305.88V297.976L202.49 297.86L202.493 297.857Z" fill="#FFD325"/>
<path d="M231.823 293.528H181.731V300.112H231.823V293.528Z" fill="#E4AD43"/>
<path d="M206.777 313.026C192.945 313.026 181.731 307.245 181.731 300.112C181.731 292.98 192.945 288.155 206.777 288.155C220.609 288.155 231.823 292.98 231.823 300.112C231.823 307.245 220.609 313.026 206.777 313.026Z" fill="#AF8E2F"/>
<path d="M206.777 306.906C192.945 306.906 181.731 301.132 181.731 294.006C181.731 286.88 192.945 281.106 206.777 281.106C220.609 281.106 231.823 286.88 231.823 294.006C231.823 301.132 220.609 306.906 206.777 306.906Z" fill="#C29A43"/>
<path d="M194.803 290.588C197.181 291.681 199.61 292.899 202.11 293.598C211.02 296.087 220.85 293.723 227.692 286.912C223.213 283.417 215.52 281.106 206.777 281.106C198.408 281.106 191 283.222 186.451 286.472C189.198 287.938 191.99 289.296 194.803 290.588Z" fill="#D7AE4D"/>
<path d="M206.777 303.659C196.403 303.659 187.992 299.477 187.992 294.32C187.992 289.164 196.403 284.981 206.777 284.981C217.151 284.981 225.563 289.164 225.563 294.32C225.563 299.477 217.151 303.659 206.777 303.659Z" fill="#AF8E2F"/>
<path d="M198.725 289.01V292.222C199.488 291.636 200.583 291.182 202.113 291.004V288.759L203.772 288.637V290.923C207.161 291.018 209.318 292.805 209.451 295.755C212.142 293.982 215.527 291.876 218.946 289.607V292.124C215.826 294.139 212.937 295.874 209.615 297.934L207.555 297.798V296.565C207.555 294.142 206.059 292.854 203.769 292.721V297.546L202.11 297.435V292.798C200.185 293.095 199.22 294.139 199.22 295.849V297.243L197.062 297.099V289.136L198.721 289.014L198.725 289.01Z" fill="#DEA041"/>
<path d="M198.303 289.314V292.505C199.067 291.925 200.161 291.482 201.691 291.311V289.08L203.351 288.965V291.234C206.739 291.342 208.897 293.13 209.029 296.062C211.72 294.31 215.105 292.236 218.525 289.995V292.501C215.405 294.488 212.515 296.202 209.193 298.231L207.133 298.084V296.858C207.133 294.453 205.637 293.165 203.347 293.022V297.815L201.688 297.696V293.091C199.764 293.378 198.798 294.411 198.798 296.104V297.49L196.64 297.337V289.433L198.3 289.317L198.303 289.314Z" fill="#FFD325"/>
<path d="M235.971 284.625H185.88V291.21H235.971V284.625Z" fill="#E4AD43"/>
<path d="M210.926 304.12C197.094 304.12 185.88 298.339 185.88 291.206C185.88 284.073 197.094 279.249 210.926 279.249C224.757 279.249 235.971 284.073 235.971 291.206C235.971 298.339 224.757 304.12 210.926 304.12Z" fill="#AF8E2F"/>
<path d="M210.926 298.004C197.094 298.004 185.88 292.229 185.88 285.103C185.88 277.978 197.094 272.203 210.926 272.203C224.757 272.203 235.971 277.978 235.971 285.103C235.971 292.229 224.757 298.004 210.926 298.004Z" fill="#C29A43"/>
<path d="M198.952 281.685C201.329 282.778 203.759 283.997 206.258 284.695C215.168 287.184 224.998 284.821 231.841 278.009C227.361 274.514 219.668 272.203 210.925 272.203C202.556 272.203 195.149 274.319 190.599 277.569C193.346 279.036 196.138 280.394 198.952 281.685Z" fill="#D7AE4D"/>
<path d="M210.926 294.757C200.552 294.757 192.14 290.574 192.14 285.418C192.14 280.261 200.552 276.078 210.926 276.078C221.299 276.078 229.711 280.261 229.711 285.418C229.711 290.574 221.299 294.757 210.926 294.757Z" fill="#AF8E2F"/>
<path d="M202.873 280.107V283.319C203.637 282.733 204.731 282.279 206.261 282.101V279.856L207.921 279.734V282.021C211.309 282.115 213.467 283.902 213.599 286.853C216.29 285.079 219.675 282.974 223.095 280.704V283.222C219.975 285.236 217.085 286.971 213.763 289.031L211.703 288.895V287.662C211.703 285.24 210.207 283.951 207.917 283.819V288.644L206.258 288.532V283.895C204.334 284.192 203.368 285.236 203.368 286.947V288.34L201.21 288.197V280.233L202.87 280.111L202.873 280.107Z" fill="#DEA041"/>
<path d="M202.451 280.411V283.602C203.215 283.023 204.309 282.579 205.84 282.408V280.177L207.499 280.062V282.331C210.887 282.44 213.045 284.227 213.177 287.16C215.868 285.407 219.253 283.333 222.673 281.092V283.599C219.553 285.585 216.663 287.299 213.341 289.328L211.281 289.181V287.956C211.281 285.55 209.786 284.262 207.495 284.119V288.912L205.836 288.794V284.189C203.912 284.475 202.946 285.508 202.946 287.202V288.588L200.789 288.434V280.53L202.448 280.415L202.451 280.411Z" fill="#FFD325"/>
<path d="M122.049 111.301L117.009 111.375L117.653 155.336L122.693 155.262L122.049 111.301Z" fill="#E4AD43"/>
<path d="M107.437 133.506C107.615 145.645 112.185 155.42 117.644 155.34C123.103 155.26 126.655 145.366 126.477 133.227C126.299 121.087 122.461 111.301 117.003 111.382C111.544 111.462 107.26 121.367 107.437 133.506Z" fill="#AF8E2F"/>
<path d="M112.122 133.436C112.3 145.575 116.863 155.351 122.319 155.27C127.774 155.19 132.051 145.285 131.873 133.146C131.695 121.007 127.132 111.232 121.677 111.312C116.222 111.392 111.945 121.297 112.122 133.436Z" fill="#C29A43"/>
<path d="M124.769 143.763C123.901 141.689 122.939 139.57 122.374 137.385C120.356 129.592 122.04 120.941 127.164 114.859C129.897 118.752 131.765 125.476 131.877 133.15C131.985 140.495 130.458 147.021 128.028 151.046C126.871 148.651 125.794 146.218 124.769 143.763Z" fill="#D7AE4D"/>
<path d="M114.608 133.401C114.74 142.506 118.048 149.838 121.998 149.782C125.947 149.723 129.039 142.297 128.907 133.192C128.774 124.086 125.463 116.755 121.517 116.811C117.567 116.87 114.475 124.296 114.608 133.401Z" fill="#AF8E2F"/>
<path d="M125.086 124.816L123.305 125.431C123.615 126.069 123.563 126.96 123.539 128.499L124.891 128.157L124.783 129.952L123.441 130.179C123.099 133.558 121.956 135.559 120.359 135.524C121.154 137.975 121.994 141.305 122.817 144.947L121.869 145.736C121.102 142.489 120.136 138.401 119.181 135.541L119.314 133.928H119.997C121.339 133.928 122.155 132.542 122.388 130.36L119.558 130.887L119.666 129.526L122.458 128.775C122.409 126.967 122.071 125.982 120.994 126.44L119.875 126.813L120.182 124.848L125.173 123.304L125.086 124.816Z" fill="#DEA041"/>
<path d="M125.107 124.429L122.995 125.116C123.305 125.738 123.413 126.59 123.389 128.119L124.741 127.749L124.633 129.533L123.291 129.788C122.949 133.15 121.806 135.161 120.21 135.157C121.004 137.573 121.844 140.858 122.667 144.458L121.614 145.292C120.848 142.098 119.986 138.017 119.031 135.206L119.164 133.604L119.847 133.586C121.189 133.558 122.005 132.165 122.238 129.997L119.408 130.587L119.516 129.236L122.308 128.423C122.259 126.632 122.015 125.458 120.935 125.947L119.732 126.412L119.882 124.422L125.184 122.851L125.107 124.432V124.429Z" fill="#FFD325"/>
<path d="M114.897 117.75C115.403 116.517 115.995 115.316 116.64 114.14C116.633 114.15 115.974 114.133 115.891 114.15C115.434 114.248 114.953 114.36 114.489 114.472C114.047 114.576 113.607 114.698 113.172 114.828C112.684 114.971 112.244 115.18 111.756 115.316C111.659 115.344 111.561 115.372 111.485 115.435C111.254 115.634 111.091 116.13 110.972 116.406C110.833 116.73 110.721 117.069 110.575 117.39C110.251 118.099 109.972 118.829 109.714 119.565C109.456 120.302 109.024 120.951 108.8 121.712C108.727 121.957 108.644 122.229 108.612 122.48C108.637 122.288 109.268 122.089 109.435 122.006C110.129 121.657 110.885 121.464 111.624 121.255C112.004 121.147 112.384 121.049 112.767 120.958C112.99 120.906 113.259 120.92 113.485 120.829C113.789 120.707 113.848 120.463 113.97 120.183C114.116 119.855 114.245 119.513 114.364 119.171C114.531 118.689 114.712 118.214 114.904 117.743L114.897 117.75Z" fill="#926C1F"/>
<path d="M116.4 37.36C111.195 39.8353 86.8152 40.0448 75.5524 38.2363C75.5524 38.2363 69.1175 46.1929 83.4722 49.4921C97.827 52.7879 110.278 52.5958 110.278 52.5958L116.4 37.36Z" fill="#844B38"/>
<path d="M118.198 39.5176C113.325 42.74 88.8927 50.337 76.87 51.6009C64.8507 52.8647 49.1958 52.121 49.1958 52.121C49.1958 52.121 48.4393 62.0118 59.7893 63.3455C71.1392 64.6826 95.7563 63.9599 95.7563 63.9599L118.198 39.5176Z" fill="#844B38"/>
<path d="M121.391 32.5106C121.2 32.7026 121.008 32.8947 120.816 33.0867C118.39 35.5096 115.922 37.8906 113.43 40.2438C109.435 44.0108 105.37 47.7011 101.173 51.2377C99.277 52.8332 97.4051 54.4637 95.3554 55.8637C93.2848 57.2811 91.155 58.6113 88.9624 59.8297C86.9162 60.9679 84.8281 62.0432 82.6669 62.9474C81.1575 63.5794 79.7527 64.4801 78.2329 65.0527C77.0547 65.4961 75.873 65.9394 74.6913 66.3759C72.171 67.3115 69.6473 68.2367 67.12 69.1549C62.1492 70.9599 57.1679 72.7439 52.1866 74.514C49.9348 75.3135 47.6829 76.1095 45.431 76.902C45.431 76.902 46.7068 86.2167 58.6529 84.2895C70.5989 82.3623 102.46 73.512 102.46 73.512L121.395 32.5071L121.391 32.5106Z" fill="#844B38"/>
<path d="M110.589 110.401C110.449 107.293 110.432 104.179 110.484 101.069C110.561 96.6032 110.292 91.4291 111.596 87.1C113.074 82.1948 117.369 77.3279 120.346 73.2781C124.529 67.5943 130.367 63.6876 131.828 56.5584C132.396 53.7829 132.846 50.9829 133.219 48.1759C133.71 44.5066 134.073 40.8198 134.313 37.1261C134.359 36.4243 134.397 35.7086 134.376 35.0034C134.352 34.155 134.24 33.3206 133.947 32.5246C133.02 30.0004 130.664 29.4977 128.258 29.5221C126.923 29.5361 125.567 29.6129 124.299 30.0388C122.319 30.6987 121.099 32.0114 119.92 33.6558C117.606 36.8782 115.197 39.8981 113.175 43.3196C111.16 46.7305 109.316 50.2358 107.396 53.6991C104.917 58.1644 102.421 62.6507 100.239 67.2696C98.1023 71.7943 94.6026 75.9943 94.0797 81.1195C93.7485 84.3524 94.5642 87.3967 95.2126 90.5354C95.9586 94.1488 96.7045 97.7658 97.4505 101.379C98.559 106.742 100.469 111.895 101.693 117.23C102.045 118.759 102.007 123.315 103.976 123.741C105.642 124.1 107.831 121.81 108.595 120.661C110.568 117.701 110.742 113.84 110.589 110.394V110.401Z" fill="#161742"/>
<path d="M111.167 118.232C111.76 116.269 111.941 113.267 111.132 110.579C110.711 112.778 110.111 115.627 109.689 117.823C109.386 119.398 108.351 121.513 107.218 122.714C108.779 122.086 110.599 120.113 111.167 118.228V118.232Z" fill="#161742"/>
<path d="M114.601 123.667C114.521 123.695 114.42 123.667 114.308 123.556C114.13 123.381 114.183 123.196 114.179 122.98C114.158 122.278 114.061 121.58 114.061 120.874C114.057 119.307 114.28 117.739 114.817 116.266C115.678 113.885 117.494 112.059 119.349 110.418C119.579 110.216 119.816 110.01 120.077 109.849C120.37 109.664 120.687 109.318 121.043 109.262C121.527 109.182 121.433 109.636 121.259 109.968C121.011 110.432 120.698 110.858 120.328 111.232C119.544 112.021 118.927 112.904 118.265 113.798C117.512 114.814 116.863 115.906 116.333 117.052C115.884 118.026 115.532 119.031 115.246 120.064C114.946 121.136 114.97 122.226 114.817 123.318C114.793 123.5 114.719 123.636 114.611 123.674L114.601 123.667Z" fill="#161742"/>
<path d="M253.115 32.1196C244.853 32.1301 236.595 32.179 228.337 32.343C217.887 32.5525 207.436 32.8772 196.982 32.7131C186.312 32.542 175.642 32.4373 164.978 32.0777C159.276 31.8857 153.576 31.6238 147.884 31.2433C142.338 30.8697 136.848 30.0772 131.361 29.4837C128.983 29.2288 126.355 28.9426 124.117 29.9864C122.698 30.6463 121.52 31.7321 120.635 33.0169C116.752 38.6657 113.367 44.6812 110.003 50.6477C106.925 56.1116 103.819 61.6033 101.138 67.2731C97.1995 75.6172 93.6892 77.3768 95.2927 87.3304C96.8927 97.2805 102.592 124.359 102.596 124.387C102.787 125.305 107.873 122.452 108.281 122.082C111.366 119.282 111.662 114.196 111.491 110.401C111.352 107.293 111.335 104.179 111.387 101.069C111.464 96.6032 111.195 91.4291 112.499 87.1C113.524 83.696 126.644 64.6931 129.667 64.0297C132.689 63.3664 142.941 69.7729 141.404 83.5005C140.243 93.887 132.194 100.65 124.344 106.504C120.785 109.158 117.445 112.171 115.326 116.133C114.346 117.963 114.203 120.581 114.402 122.61C114.465 123.252 115.814 128.953 116.71 128.66C116.717 128.66 137.879 121.733 142.376 118.926C153.06 112.255 162.542 102.388 172.096 94.2396C178.42 88.8491 184.461 82.4496 191.966 78.8362C210.95 69.6891 229.996 71.3474 250.187 73.4911C263.719 74.926 277.069 77.6561 290.364 80.491C299.201 82.3763 307.647 83.5249 316.651 84.6526C319.803 85.0471 321.922 85.1449 325 85.0401C324.407 85.0611 323.818 85.0995 323.226 85.0995V31.9939C308.86 31.9939 294.471 32.151 280.095 32.151C271.105 32.151 262.108 32.1091 253.115 32.1196Z" fill="#844B38"/>
<path d="M129.395 124.701C129.395 124.701 129.489 120.201 125.383 119.761C121.276 119.321 114.946 121.904 114.256 122.194C113.566 122.484 115.695 128.388 116.664 128.845C117.634 129.306 128.534 125.497 129.398 124.697L129.395 124.701Z" fill="#E48E6C"/>
<path d="M99.7756 111.647C99.7756 111.647 100.908 111.354 102.076 113.403C103.244 115.453 104.973 121.608 105.308 123.905C105.308 123.905 102.819 125.092 102.432 124.764C102.045 124.436 99.6814 112.195 99.7756 111.651V111.647Z" fill="#E48E6C"/>
<path d="M56.2477 73.0686C56.2477 73.0686 57.2551 75.0586 53.8215 76.6751C50.388 78.2915 46.4141 79.6881 45.8877 79.7718C45.3614 79.8556 44.6677 77.2826 44.835 76.9195C44.9988 76.5564 55.1566 73.4352 56.2512 73.0651L56.2477 73.0686Z" fill="#E48E6C"/>
<path d="M61.3545 52.334C61.3545 52.334 60.6817 54.4497 57.4608 54.6348C54.2398 54.8198 49.8721 54.8338 49.4119 54.7395C48.9518 54.6452 48.8542 52.0617 49.025 52.0931C49.1958 52.1245 61.3545 52.334 61.3545 52.334Z" fill="#E48E6C"/>
<path d="M84.4447 39.1266C84.3053 39.4862 84.0229 39.8108 83.7406 40.0622C83.507 40.2682 83.2282 40.3974 82.9807 40.5824C82.7088 40.7849 82.4055 40.942 82.0848 41.0502C81.5968 41.2143 81.0739 41.2562 80.558 41.2737C79.5785 41.3086 78.592 41.2632 77.6194 41.1375C77.0094 41.0572 76.4133 40.949 75.8033 40.9071C75.5523 40.8896 75.3013 40.7919 75.0504 40.7675C74.8447 40.7465 74.3358 40.7605 74.1824 40.5824C73.9244 40.2787 75.0782 38.0792 75.4477 38.0198C75.8138 37.9605 84.4482 39.1335 84.4482 39.1335L84.4447 39.1266Z" fill="#E48E6C"/>
<path d="M126.962 105.258C134.54 99.4556 141.222 92.3788 141.832 82.3623C142.094 78.096 141.268 73.7354 139.044 70.0556C137.252 67.0881 134.554 64.1659 130.967 63.6527C130.639 63.6073 130.496 64.11 130.828 64.1589C134.519 64.6861 137.228 67.8422 138.95 70.9389C140.971 74.5768 141.616 78.8501 141.264 82.9663C140.445 92.494 133.926 99.267 126.697 104.804C126.432 105.007 126.693 105.461 126.962 105.258Z" fill="#161742"/>
<path d="M83.6221 39.9121C81.7816 41.9091 77.6927 40.9281 75.3223 40.5789C74.9946 40.53 74.8517 41.0363 75.1829 41.0852C77.7624 41.4622 81.9315 42.5131 83.9916 40.2822C84.2182 40.0343 83.8522 39.6642 83.6221 39.9121Z" fill="#161742"/>
<path d="M49.5514 55.0467C51.9043 55.0537 54.2399 55.3086 56.5963 55.2248C58.0185 55.1759 59.2944 55.0816 60.4238 54.146C60.6817 53.9295 60.3122 53.5629 60.0543 53.7759C58.6564 54.935 56.4952 54.75 54.7767 54.7325C53.0582 54.715 51.2943 54.53 49.5479 54.523C49.2098 54.523 49.2098 55.0467 49.5479 55.0467H49.5514Z" fill="#161742"/>
<path d="M46.6232 79.8521C48.6381 79.0631 50.7226 78.487 52.72 77.6422C54.1945 77.0172 55.5854 76.4656 56.4185 75.0237C56.5858 74.7304 56.1361 74.4686 55.9653 74.7584C54.9858 76.4516 52.7688 77.115 51.0363 77.7574C49.5304 78.316 47.9827 78.7559 46.4838 79.3459C46.1736 79.4681 46.3095 79.9743 46.6232 79.8521Z" fill="#161742"/>
<path d="M127.725 120.148C124.417 118.389 119.715 119.841 116.448 121C116.135 121.112 116.271 121.618 116.588 121.506C119.725 120.393 124.288 118.916 127.46 120.602C127.756 120.759 128.021 120.309 127.725 120.148Z" fill="#161742"/>
<path d="M105.635 123.496C104.527 119.426 103.878 115.665 101.414 112.139C101.222 111.867 100.769 112.125 100.961 112.405C103.408 115.903 104.039 119.614 105.13 123.636C105.217 123.961 105.722 123.825 105.635 123.496Z" fill="#161742"/>
</g>
<defs>
<clipPath id="clip0_684_2645">
<rect width="325" height="333" fill="white"/>
</clipPath>
</defs>
</svg>
