<svg width="24" height="24" viewBox="0 0 24 24" fill="none" xmlns="http://www.w3.org/2000/svg">
<mask id="mask0_114_978" style="mask-type:alpha" maskUnits="userSpaceOnUse" x="0" y="0" width="24" height="24">
<rect width="24" height="24" fill="#D9D9D9"/>
</mask>
<g mask="url(#mask0_114_978)">
<path d="M9.09618 15.0771L8.17493 18.7366C8.1506 18.8508 8.09993 18.936 8.02293 18.9923C7.9461 19.0488 7.84868 19.0771 7.73068 19.0771C7.58068 19.0771 7.45693 19.0162 7.35943 18.8943C7.2621 18.7725 7.23585 18.6385 7.28068 18.4923L8.13443 15.0771H5.15943C4.99276 15.0771 4.85751 15.0152 4.75368 14.8913C4.64984 14.7677 4.62043 14.6244 4.66543 14.4616C4.70259 14.3436 4.76476 14.25 4.85193 14.1808C4.9391 14.1117 5.0416 14.0771 5.15943 14.0771H8.38443L9.42293 9.9231H6.44793C6.28126 9.9231 6.14601 9.86126 6.04218 9.7376C5.93835 9.61393 5.90884 9.47068 5.95368 9.30785C5.99084 9.18985 6.05309 9.09626 6.14043 9.0271C6.22759 8.95776 6.3301 8.9231 6.44793 8.9231H9.67293L10.5942 5.2636C10.6185 5.14943 10.6692 5.06418 10.7462 5.00785C10.823 4.95135 10.9204 4.9231 11.0384 4.9231C11.1884 4.9231 11.3121 4.98401 11.4094 5.10585C11.5069 5.22768 11.5333 5.36168 11.4884 5.50785L10.6344 8.9231H14.9037L15.8249 5.2636C15.8493 5.14943 15.8999 5.06418 15.9769 5.00785C16.0538 4.95135 16.1512 4.9231 16.2692 4.9231C16.4192 4.9231 16.5429 4.98401 16.6404 5.10585C16.7378 5.22768 16.764 5.36168 16.7192 5.50785L15.8654 8.9231H18.8404C19.0071 8.9231 19.1423 8.98501 19.2462 9.10885C19.35 9.23251 19.3794 9.37576 19.3344 9.5386C19.2973 9.6566 19.2351 9.75018 19.1479 9.81935C19.0608 9.88851 18.9583 9.9231 18.8404 9.9231H15.6154L14.5769 14.0771H17.5519C17.7186 14.0771 17.8538 14.1389 17.9577 14.2626C18.0615 14.3863 18.091 14.5295 18.0462 14.6923C18.009 14.8103 17.9468 14.9039 17.8594 14.9731C17.7723 15.0424 17.6698 15.0771 17.5519 15.0771H14.3269L13.4057 18.7366C13.3813 18.8508 13.3307 18.936 13.2537 18.9923C13.1768 19.0488 13.0794 19.0771 12.9614 19.0771C12.8114 19.0771 12.6878 19.0162 12.5904 18.8943C12.4929 18.7725 12.4666 18.6385 12.5114 18.4923L13.3654 15.0771H9.09618ZM9.34618 14.0771H13.6154L14.6537 9.9231H10.3844L9.34618 14.0771Z" fill="#1D478E"/>
</g>
</svg>
