<svg width="20" height="20" viewBox="0 0 20 20" fill="none" xmlns="http://www.w3.org/2000/svg">
<path d="M10 0.4375C8.10872 0.4375 6.25991 0.998331 4.68736 2.04907C3.11482 3.09981 1.88917 4.59327 1.16541 6.34059C0.441643 8.08791 0.252274 10.0106 0.621245 11.8656C0.990216 13.7205 1.90096 15.4244 3.2383 16.7617C4.57564 18.099 6.27951 19.0098 8.13445 19.3788C9.9894 19.7477 11.9121 19.5584 13.6594 18.8346C15.4067 18.1108 16.9002 16.8852 17.9509 15.3126C19.0017 13.7401 19.5625 11.8913 19.5625 10C19.5595 7.46478 18.5511 5.03425 16.7584 3.24158C14.9658 1.44891 12.5352 0.440477 10 0.4375ZM10 18.4375C8.33122 18.4375 6.69992 17.9426 5.31238 17.0155C3.92484 16.0884 2.84338 14.7706 2.20477 13.2289C1.56616 11.6871 1.39907 9.99064 1.72463 8.35393C2.05019 6.71721 2.85379 5.21379 4.03379 4.03379C5.2138 2.85378 6.71722 2.05019 8.35393 1.72462C9.99064 1.39906 11.6871 1.56615 13.2289 2.20477C14.7706 2.84338 16.0884 3.92484 17.0155 5.31238C17.9427 6.69992 18.4375 8.33122 18.4375 10C18.435 12.237 17.5453 14.3817 15.9635 15.9635C14.3817 17.5453 12.237 18.435 10 18.4375ZM14.3125 10C14.3125 10.1492 14.2532 10.2923 14.1478 10.3977C14.0423 10.5032 13.8992 10.5625 13.75 10.5625H10.5625V13.75C10.5625 13.8992 10.5032 14.0423 10.3978 14.1477C10.2923 14.2532 10.1492 14.3125 10 14.3125C9.85082 14.3125 9.70775 14.2532 9.60226 14.1477C9.49677 14.0423 9.4375 13.8992 9.4375 13.75V10.5625H6.25C6.10082 10.5625 5.95775 10.5032 5.85226 10.3977C5.74677 10.2923 5.6875 10.1492 5.6875 10C5.6875 9.85082 5.74677 9.70774 5.85226 9.60225C5.95775 9.49676 6.10082 9.4375 6.25 9.4375H9.4375V6.25C9.4375 6.10082 9.49677 5.95774 9.60226 5.85225C9.70775 5.74676 9.85082 5.6875 10 5.6875C10.1492 5.6875 10.2923 5.74676 10.3978 5.85225C10.5032 5.95774 10.5625 6.10082 10.5625 6.25V9.4375H13.75C13.8992 9.4375 14.0423 9.49676 14.1478 9.60225C14.2532 9.70774 14.3125 9.85082 14.3125 10Z" fill="#1D478E"/>
</svg>
