<svg width="20" height="20" viewBox="0 0 20 20" fill="none" xmlns="http://www.w3.org/2000/svg">
<path d="M19.7 10C19.7 15.3572 15.3572 19.7 10 19.7C4.64284 19.7 0.3 15.3572 0.3 10C0.3 4.64284 4.64284 0.3 10 0.3C15.3572 0.3 19.7 4.64284 19.7 10Z" fill="#FFF3EB" fill-opacity="0.2" stroke="#FFF3EB" stroke-width="0.6"/>
<path fill-rule="evenodd" clip-rule="evenodd" d="M7.68305 13.8326C7.92711 14.0558 8.32287 14.0558 8.56693 13.8326L12.3169 10.4041C12.561 10.1809 12.561 9.81909 12.3169 9.59595L8.56693 6.16737C8.32287 5.94421 7.92711 5.94421 7.68305 6.16737C7.43898 6.39052 7.43898 6.75233 7.68305 6.97549L10.9911 10L7.68305 13.0245C7.43898 13.2477 7.43898 13.6095 7.68305 13.8326Z" fill="#FFF3EB"/>
</svg>
