<svg width="294" height="378" viewBox="0 0 294 378" fill="none" xmlns="http://www.w3.org/2000/svg">
<g clip-path="url(#clip0_906_20441)">
<path opacity="0.3" d="M126.22 380.633C179.913 380.633 223.44 376.014 223.44 370.317C223.44 364.619 179.913 360 126.22 360C72.5269 360 29 364.619 29 370.317C29 376.014 72.5269 380.633 126.22 380.633Z" fill="#5BC4F0"/>
<path d="M50.5905 312.494C50.3622 311.229 50.0164 309.978 49.625 308.74L51.6473 319.733C51.3211 317.316 51.0276 314.892 50.5905 312.494Z" fill="#32B353"/>
<path d="M56.6079 336.304L53.6463 320.235C53.8224 321.499 54.005 322.757 54.1877 324.001C53.9072 322.437 53.6854 320.867 53.4767 319.296L51.4022 308.043C50.639 305.645 49.6931 303.28 48.956 300.888C46.3205 292.371 43.5089 283.907 40.5082 275.508C39.3405 272.243 38.101 268.907 35.8374 266.287C35.4134 269.832 35.7069 272.882 35.7265 274.224C35.7591 277.058 35.87 279.893 36.0657 282.721C36.3658 287.145 37.0181 291.524 37.6379 295.91C38.238 300.158 38.101 304.563 38.5577 308.884C38.5055 308.753 38.4468 308.629 38.3946 308.506L45.6943 334.655C46.5749 334.903 47.5078 335.04 48.408 335.163C51.1413 335.541 53.8746 335.926 56.6079 336.304Z" fill="#32B353"/>
<path d="M50.0583 339.745C49.843 339.745 49.6604 339.582 49.6408 339.367C48.6166 328.309 46.0986 317.277 43.6653 306.604C41.33 296.36 38.9098 285.772 37.8073 275.15C37.7812 274.922 37.9509 274.714 38.1792 274.694C38.4075 274.668 38.6163 274.837 38.6358 275.065C39.7318 285.635 42.1454 296.204 44.4743 306.421C46.914 317.121 49.4385 328.186 50.4692 339.296C50.4888 339.524 50.3192 339.726 50.0909 339.752C50.0779 339.752 50.0648 339.752 50.0518 339.752L50.0583 339.745Z" fill="#161742"/>
<path d="M27 294.398C31.2598 302.387 34.8085 310.754 37.6005 319.369C38.3377 321.636 39.0096 323.93 39.8576 326.158C40.5687 328.048 42.6627 330.818 42.6039 332.688C42.754 332.805 42.9236 332.922 43.0932 333.04C43.2563 333.15 43.4129 333.268 43.5629 333.391C44.3 334.017 45.1807 334.401 46.1135 334.662L38.8139 308.513C36.4067 302.772 32.2383 297.78 27.0065 294.405L27 294.398Z" fill="#32B353"/>
<path d="M41.8974 327.397C41.7278 327.397 41.5647 327.293 41.506 327.117L33.7236 305.242C33.6453 305.027 33.7627 304.786 33.978 304.708C34.1932 304.63 34.4346 304.747 34.5129 304.962L42.2953 326.837C42.3736 327.052 42.2561 327.293 42.0409 327.371C41.9952 327.391 41.9496 327.397 41.9039 327.397H41.8974Z" fill="#161742"/>
<path d="M70.5273 326.27L71.9821 317.936C71.3297 320.685 70.847 323.468 70.5273 326.27Z" fill="#32B353"/>
<path d="M70.9928 243.26C63.0212 266.927 59.4333 292.06 60.464 317.01C60.3792 316.098 60.2879 315.179 60.2031 314.267L61.6448 337.289C62.8646 337.458 64.0845 337.627 65.2979 337.797C66.3808 337.947 67.5093 338.084 68.6379 338.155L70.6275 326.739C71.5082 313.009 73.824 299.397 74.8742 285.667C75.9636 271.416 75.6244 256.787 70.9928 243.26Z" fill="#32B353"/>
<path d="M62.0713 350.809C62.0256 350.809 61.9865 350.803 61.9408 350.79C61.719 350.718 61.6016 350.484 61.6734 350.262C64.4915 341.511 65.046 332.173 65.5809 323.148L69.4427 258.064C69.4558 257.836 69.658 257.654 69.8863 257.673C70.1146 257.686 70.2908 257.882 70.2777 258.116L66.4159 323.2C65.8744 332.277 65.3199 341.667 62.4692 350.523C62.4105 350.699 62.2474 350.809 62.0713 350.809Z" fill="#161742"/>
<path d="M61.0775 314.266C58.5203 287.654 55.4347 260.742 45.3822 236C43.3991 242.477 44.0384 249.43 44.7429 256.168C46.9022 276.883 49.518 299.403 52.4731 320.235L55.4348 336.304C57.7962 336.63 60.1577 336.962 62.5257 337.288L61.084 314.266H61.0775Z" fill="#32B353"/>
<path d="M64.6798 359.814C64.5559 359.814 64.4384 359.762 64.3536 359.664C61.4768 356.165 60.7919 351.317 60.2374 347.427L46.4926 250.759C46.46 250.531 46.6165 250.322 46.8448 250.289C47.0731 250.257 47.2819 250.413 47.3145 250.641L61.0593 347.309C61.6008 351.102 62.2661 355.819 64.9994 359.136C65.143 359.312 65.1169 359.579 64.9408 359.723C64.8625 359.788 64.7711 359.82 64.6733 359.82L64.6798 359.814Z" fill="#161742"/>
<path d="M77.8525 320.189C77.9829 319.641 78.1069 319.094 78.2374 318.547L71.5117 337.646C72.4119 337.346 73.26 336.916 74.0232 336.29C75.3736 335.182 76.2608 333.619 77.1023 332.087C82.2427 322.749 87.0505 313.229 91.5255 303.559C93.1433 300.054 94.7481 296.417 94.8981 292.566C87.2396 300.34 81.3621 309.867 77.859 320.202L77.8525 320.189Z" fill="#32B353"/>
<path d="M73.9673 338.93C73.9216 338.93 73.8694 338.924 73.8238 338.904C73.6085 338.826 73.4976 338.585 73.5759 338.37C78.2727 325.54 83.7197 312.813 89.7474 300.55C89.8517 300.341 90.0996 300.257 90.3084 300.361C90.5171 300.465 90.6019 300.713 90.4976 300.921C84.4765 313.159 79.049 325.859 74.3587 338.663C74.3 338.833 74.1369 338.937 73.9673 338.937V338.93Z" fill="#161742"/>
<path d="M85.4363 290.971C81.7571 292.587 79.3369 296.145 77.4256 299.677C74.3987 305.268 72.1221 311.263 70.6543 317.447L69.167 325.983C69.0822 326.758 68.9974 327.54 68.9387 328.322C68.9713 327.794 69.0039 327.267 69.0365 326.732L67.0469 338.149C68.8669 338.259 70.6804 338.175 72.3113 337.634L79.0369 318.535C81.17 309.347 83.3097 300.153 85.4429 290.965L85.4363 290.971Z" fill="#32B353"/>
<path d="M71.4516 335.372C71.4516 335.372 71.4124 335.372 71.3929 335.372C71.1645 335.34 71.008 335.131 71.0341 334.903C72.7693 322.307 76.1223 309.965 80.9953 298.223C81.0866 298.008 81.328 297.911 81.5433 297.995C81.7585 298.086 81.8564 298.328 81.7716 298.543C76.9247 310.22 73.5913 322.496 71.8626 335.02C71.8365 335.229 71.6538 335.379 71.4516 335.379V335.372Z" fill="#161742"/>
<path d="M84.5416 327.657L83.1847 347.844L82.9499 351.284L81.8474 367.692H36.9599L36.0792 350.405L35.9358 347.57L34.8594 326.529L84.5416 327.657Z" fill="#FFD325"/>
<g style="mix-blend-mode:multiply" opacity="0.5">
<path d="M83.1825 347.844L82.9477 351.285L36.0771 350.405L35.9336 347.57L83.1825 347.844Z" fill="#AF8E2F"/>
</g>
<g style="mix-blend-mode:multiply" opacity="0.5">
<path d="M83.4847 343.406L83.713 339.959L35.5312 339.686L35.6747 342.514L83.4847 343.406Z" fill="#AF8E2F"/>
</g>
<g style="mix-blend-mode:multiply">
<path d="M84.5416 327.657L84.2676 331.749L38.2515 330.693L36.8164 364.962L34.8594 326.529L84.5416 327.657Z" fill="#FFD325"/>
</g>
<g opacity="0.88">
<g opacity="0.54">
<path d="M223.851 56.8481C224.215 56.8481 224.511 56.552 224.511 56.1867C224.511 55.8215 224.215 55.5254 223.851 55.5254C223.487 55.5254 223.191 55.8215 223.191 56.1867C223.191 56.552 223.487 56.8481 223.851 56.8481Z" fill="#161742"/>
<path d="M205.311 86.5347C205.633 86.5347 205.895 86.2724 205.895 85.949C205.895 85.6255 205.633 85.3633 205.311 85.3633C204.988 85.3633 204.727 85.6255 204.727 85.949C204.727 86.2724 204.988 86.5347 205.311 86.5347Z" fill="#161742"/>
<path d="M236.603 75.9609C236.97 75.9609 237.268 75.6623 237.268 75.2939C237.268 74.9256 236.97 74.627 236.603 74.627C236.235 74.627 235.938 74.9256 235.938 75.2939C235.938 75.6623 236.235 75.9609 236.603 75.9609Z" fill="#161742"/>
<path d="M222.119 82.8299C222.464 82.8299 222.743 82.5501 222.743 82.205C222.743 81.8599 222.464 81.5801 222.119 81.5801C221.775 81.5801 221.496 81.8599 221.496 82.205C221.496 82.5501 221.775 82.8299 222.119 82.8299Z" fill="#161742"/>
<path d="M206.116 58.6264C206.557 58.6264 206.915 58.2675 206.915 57.8249C206.915 57.3823 206.557 57.0234 206.116 57.0234C205.674 57.0234 205.316 57.3823 205.316 57.8249C205.316 58.2675 205.674 58.6264 206.116 58.6264Z" fill="#161742"/>
<path d="M211.778 30.6512C212.151 30.6512 212.454 30.3476 212.454 29.9731C212.454 29.5985 212.151 29.2949 211.778 29.2949C211.404 29.2949 211.102 29.5985 211.102 29.9731C211.102 30.3476 211.404 30.6512 211.778 30.6512Z" fill="#161742"/>
<path d="M203.131 41.8979C203.383 41.8979 203.587 41.6934 203.587 41.4412C203.587 41.1889 203.383 40.9844 203.131 40.9844C202.88 40.9844 202.676 41.1889 202.676 41.4412C202.676 41.6934 202.88 41.8979 203.131 41.8979Z" fill="#161742"/>
<path d="M212.546 82.8323C212.97 82.8323 213.314 82.4873 213.314 82.0617C213.314 81.636 212.97 81.291 212.546 81.291C212.121 81.291 211.777 81.636 211.777 82.0617C211.777 82.4873 212.121 82.8323 212.546 82.8323Z" fill="#161742"/>
<path d="M200.713 75.3449C201.085 75.3449 201.386 75.0425 201.386 74.6695C201.386 74.2965 201.085 73.9941 200.713 73.9941C200.341 73.9941 200.039 74.2965 200.039 74.6695C200.039 75.0425 200.341 75.3449 200.713 75.3449Z" fill="#161742"/>
</g>
<g opacity="0.54">
<path d="M19.555 193.646C20.2218 193.646 20.7624 193.104 20.7624 192.435C20.7624 191.767 20.2218 191.225 19.555 191.225C18.8882 191.225 18.3477 191.767 18.3477 192.435C18.3477 193.104 18.8882 193.646 19.555 193.646Z" fill="#161742"/>
<path d="M49.0843 97.686C49.6616 97.686 50.1296 97.2167 50.1296 96.6379C50.1296 96.0591 49.6616 95.5898 49.0843 95.5898C48.507 95.5898 48.0391 96.0591 48.0391 96.6379C48.0391 97.2167 48.507 97.686 49.0843 97.686Z" fill="#161742"/>
<path d="M21.3148 95.3016C21.9137 95.3016 22.3992 94.8148 22.3992 94.2143C22.3992 93.6138 21.9137 93.127 21.3148 93.127C20.716 93.127 20.2305 93.6138 20.2305 94.2143C20.2305 94.8148 20.716 95.3016 21.3148 95.3016Z" fill="#161742"/>
<path d="M238.457 13.1243C239.124 13.1243 239.665 12.5823 239.665 11.9137C239.665 11.2451 239.124 10.7031 238.457 10.7031C237.791 10.7031 237.25 11.2451 237.25 11.9137C237.25 12.5823 237.791 13.1243 238.457 13.1243Z" fill="#161742"/>
<path d="M259.73 203.317C260.154 203.317 260.498 202.972 260.498 202.546C260.498 202.12 260.154 201.775 259.73 201.775C259.305 201.775 258.961 202.12 258.961 202.546C258.961 202.972 259.305 203.317 259.73 203.317Z" fill="#161742"/>
<path d="M20.2282 70.4386C20.6002 70.4386 20.9018 70.1362 20.9018 69.7633C20.9018 69.3903 20.6002 69.0879 20.2282 69.0879C19.8562 69.0879 19.5547 69.3903 19.5547 69.7633C19.5547 70.1362 19.8562 70.4386 20.2282 70.4386Z" fill="#161742"/>
</g>
<g opacity="0.54">
<path d="M54.68 83.0892C55.3468 83.0892 55.8874 82.5472 55.8874 81.8786C55.8874 81.21 55.3468 80.668 54.68 80.668C54.0132 80.668 53.4727 81.21 53.4727 81.8786C53.4727 82.5472 54.0132 83.0892 54.68 83.0892Z" fill="#161742"/>
<path d="M75.5111 88.3383C75.8754 88.3383 76.1707 88.0422 76.1707 87.677C76.1707 87.3117 75.8754 87.0156 75.5111 87.0156C75.1469 87.0156 74.8516 87.3117 74.8516 87.677C74.8516 88.0422 75.1469 88.3383 75.5111 88.3383Z" fill="#161742"/>
<path d="M70.4007 94.5805C70.978 94.5805 71.446 94.1113 71.446 93.5325C71.446 92.9536 70.978 92.4844 70.4007 92.4844C69.8234 92.4844 69.3555 92.9536 69.3555 93.5325C69.3555 94.1113 69.8234 94.5805 70.4007 94.5805Z" fill="#161742"/>
<path d="M77.6335 124.244C78.0611 124.244 78.4077 123.896 78.4077 123.468C78.4077 123.039 78.0611 122.691 77.6335 122.691C77.206 122.691 76.8594 123.039 76.8594 123.468C76.8594 123.896 77.206 124.244 77.6335 124.244Z" fill="#161742"/>
<path d="M67.5099 108.511C67.8325 108.511 68.094 108.249 68.094 107.926C68.094 107.602 67.8325 107.34 67.5099 107.34C67.1873 107.34 66.9258 107.602 66.9258 107.926C66.9258 108.249 67.1873 108.511 67.5099 108.511Z" fill="#161742"/>
<path d="M55.8693 94.9139C56.2135 94.9139 56.4926 94.6341 56.4926 94.289C56.4926 93.9438 56.2135 93.6641 55.8693 93.6641C55.5251 93.6641 55.2461 93.9438 55.2461 94.289C55.2461 94.6341 55.5251 94.9139 55.8693 94.9139Z" fill="#161742"/>
<path d="M66.6157 73.0092C67.0572 73.0092 67.415 72.6504 67.415 72.2077C67.415 71.7651 67.0572 71.4062 66.6157 71.4062C66.1743 71.4062 65.8164 71.7651 65.8164 72.2077C65.8164 72.6504 66.1743 73.0092 66.6157 73.0092Z" fill="#161742"/>
<path d="M75.78 78.6492C76.3079 78.6492 76.7359 78.2201 76.7359 77.6908C76.7359 77.1615 76.3079 76.7324 75.78 76.7324C75.2522 76.7324 74.8242 77.1615 74.8242 77.6908C74.8242 78.2201 75.2522 78.6492 75.78 78.6492Z" fill="#161742"/>
<path d="M62.69 106.088C62.974 106.088 63.2043 105.857 63.2043 105.572C63.2043 105.287 62.974 105.057 62.69 105.057C62.406 105.057 62.1758 105.287 62.1758 105.572C62.1758 105.857 62.406 106.088 62.69 106.088Z" fill="#161742"/>
<path d="M94.2154 66.4052C94.5889 66.4052 94.8917 66.1015 94.8917 65.727C94.8917 65.3525 94.5889 65.0488 94.2154 65.0488C93.8419 65.0488 93.5391 65.3525 93.5391 65.727C93.5391 66.1015 93.8419 66.4052 94.2154 66.4052Z" fill="#161742"/>
<path d="M98.2062 81.8098C98.4949 81.8098 98.7288 81.5752 98.7288 81.2858C98.7288 80.9963 98.4949 80.7617 98.2062 80.7617C97.9176 80.7617 97.6836 80.9963 97.6836 81.2858C97.6836 81.5752 97.9176 81.8098 98.2062 81.8098Z" fill="#161742"/>
<path d="M92.5411 91.5168C93.0428 91.5168 93.4494 91.1091 93.4494 90.6061C93.4494 90.1031 93.0428 89.6953 92.5411 89.6953C92.0395 89.6953 91.6328 90.1031 91.6328 90.6061C91.6328 91.1091 92.0395 91.5168 92.5411 91.5168Z" fill="#161742"/>
<path d="M80.2134 63.0991C80.465 63.0991 80.6689 62.8946 80.6689 62.6423C80.6689 62.3901 80.465 62.1855 80.2134 62.1855C79.9618 62.1855 79.7578 62.3901 79.7578 62.6423C79.7578 62.8946 79.9618 63.0991 80.2134 63.0991Z" fill="#161742"/>
<path d="M74.0537 113.658C74.4782 113.658 74.8223 113.313 74.8223 112.888C74.8223 112.462 74.4782 112.117 74.0537 112.117C73.6293 112.117 73.2852 112.462 73.2852 112.888C73.2852 113.313 73.6293 113.658 74.0537 113.658Z" fill="#161742"/>
<path d="M49.0954 75.0011C49.4674 75.0011 49.769 74.6987 49.769 74.3258C49.769 73.9528 49.4674 73.6504 49.0954 73.6504C48.7234 73.6504 48.4219 73.9528 48.4219 74.3258C48.4219 74.6987 48.7234 75.0011 49.0954 75.0011Z" fill="#161742"/>
</g>
<g opacity="0.54">
<path d="M190.507 130.51C190.871 130.51 191.167 130.214 191.167 129.849C191.167 129.484 190.871 129.188 190.507 129.188C190.143 129.188 189.848 129.484 189.848 129.849C189.848 130.214 190.143 130.51 190.507 130.51Z" fill="#161742"/>
<path d="M215.188 120.119C215.616 120.119 215.962 119.771 215.962 119.343C215.962 118.914 215.616 118.566 215.188 118.566C214.761 118.566 214.414 118.914 214.414 119.343C214.414 119.771 214.761 120.119 215.188 120.119Z" fill="#161742"/>
<path d="M171.975 160.193C172.297 160.193 172.559 159.931 172.559 159.607C172.559 159.284 172.297 159.021 171.975 159.021C171.652 159.021 171.391 159.284 171.391 159.607C171.391 159.931 171.652 160.193 171.975 160.193Z" fill="#161742"/>
<path d="M190.509 144.584C190.876 144.584 191.174 144.285 191.174 143.917C191.174 143.549 190.876 143.25 190.509 143.25C190.142 143.25 189.844 143.549 189.844 143.917C189.844 144.285 190.142 144.584 190.509 144.584Z" fill="#161742"/>
<path d="M188.779 156.492C189.124 156.492 189.403 156.212 189.403 155.867C189.403 155.522 189.124 155.242 188.779 155.242C188.435 155.242 188.156 155.522 188.156 155.867C188.156 156.212 188.435 156.492 188.779 156.492Z" fill="#161742"/>
<path d="M172.772 132.285C173.213 132.285 173.571 131.926 173.571 131.483C173.571 131.04 173.213 130.682 172.772 130.682C172.331 130.682 171.973 131.04 171.973 131.483C171.973 131.926 172.331 132.285 172.772 132.285Z" fill="#161742"/>
<path d="M205.456 136.945C205.74 136.945 205.97 136.714 205.97 136.43C205.97 136.145 205.74 135.914 205.456 135.914C205.172 135.914 204.941 136.145 204.941 136.43C204.941 136.714 205.172 136.945 205.456 136.945Z" fill="#161742"/>
<path d="M178.438 104.313C178.812 104.313 179.114 104.01 179.114 103.635C179.114 103.261 178.812 102.957 178.438 102.957C178.065 102.957 177.762 103.261 177.762 103.635C177.762 104.01 178.065 104.313 178.438 104.313Z" fill="#161742"/>
<path d="M194.202 107.027C194.491 107.027 194.725 106.792 194.725 106.503C194.725 106.213 194.491 105.979 194.202 105.979C193.914 105.979 193.68 106.213 193.68 106.503C193.68 106.792 193.914 107.027 194.202 107.027Z" fill="#161742"/>
<path d="M207.217 104.546C207.719 104.546 208.125 104.138 208.125 103.635C208.125 103.132 207.719 102.725 207.217 102.725C206.715 102.725 206.309 103.132 206.309 103.635C206.309 104.138 206.715 104.546 207.217 104.546Z" fill="#161742"/>
<path d="M169.791 115.56C170.043 115.56 170.247 115.356 170.247 115.103C170.247 114.851 170.043 114.646 169.791 114.646C169.54 114.646 169.336 114.851 169.336 115.103C169.336 115.356 169.54 115.56 169.791 115.56Z" fill="#161742"/>
<path d="M197.389 152.996C197.831 152.996 198.188 152.637 198.188 152.194C198.188 151.751 197.831 151.393 197.389 151.393C196.948 151.393 196.59 151.751 196.59 152.194C196.59 152.637 196.948 152.996 197.389 152.996Z" fill="#161742"/>
<path d="M179.206 156.49C179.631 156.49 179.975 156.145 179.975 155.72C179.975 155.294 179.631 154.949 179.206 154.949C178.782 154.949 178.438 155.294 178.438 155.72C178.438 156.145 178.782 156.49 179.206 156.49Z" fill="#161742"/>
<path d="M167.373 149.005C167.745 149.005 168.046 148.703 168.046 148.33C168.046 147.957 167.745 147.654 167.373 147.654C167.001 147.654 166.699 147.957 166.699 148.33C166.699 148.703 167.001 149.005 167.373 149.005Z" fill="#161742"/>
</g>
<g opacity="0.54">
<path d="M63.7533 150.752C64.1176 150.752 64.4129 150.456 64.4129 150.091C64.4129 149.726 64.1176 149.43 63.7533 149.43C63.389 149.43 63.0938 149.726 63.0938 150.091C63.0938 150.456 63.389 150.752 63.7533 150.752Z" fill="#161742"/>
<path d="M32.3849 190.874C32.7075 190.874 32.969 190.612 32.969 190.289C32.969 189.965 32.7075 189.703 32.3849 189.703C32.0623 189.703 31.8008 189.965 31.8008 190.289C31.8008 190.612 32.0623 190.874 32.3849 190.874Z" fill="#161742"/>
<path d="M63.7511 164.826C64.1185 164.826 64.4163 164.527 64.4163 164.159C64.4163 163.791 64.1185 163.492 63.7511 163.492C63.3837 163.492 63.0859 163.791 63.0859 164.159C63.0859 164.527 63.3837 164.826 63.7511 164.826Z" fill="#161742"/>
<path d="M62.0217 176.734C62.3659 176.734 62.6449 176.454 62.6449 176.109C62.6449 175.764 62.3659 175.484 62.0217 175.484C61.6775 175.484 61.3984 175.764 61.3984 176.109C61.3984 176.454 61.6775 176.734 62.0217 176.734Z" fill="#161742"/>
<path d="M27.354 166.978C27.7954 166.978 28.1533 166.619 28.1533 166.176C28.1533 165.734 27.7954 165.375 27.354 165.375C26.9126 165.375 26.5547 165.734 26.5547 166.176C26.5547 166.619 26.9126 166.978 27.354 166.978Z" fill="#161742"/>
<path d="M78.6978 157.189C78.9818 157.189 79.2121 156.959 79.2121 156.674C79.2121 156.389 78.9818 156.158 78.6978 156.158C78.4138 156.158 78.1836 156.389 78.1836 156.674C78.1836 156.959 78.4138 157.189 78.6978 157.189Z" fill="#161742"/>
<path d="M51.6802 124.556C52.0538 124.556 52.3566 124.252 52.3566 123.877C52.3566 123.503 52.0538 123.199 51.6802 123.199C51.3067 123.199 51.0039 123.503 51.0039 123.877C51.0039 124.252 51.3067 124.556 51.6802 124.556Z" fill="#161742"/>
<path d="M67.4445 127.269C67.7331 127.269 67.9671 127.034 67.9671 126.745C67.9671 126.455 67.7331 126.221 67.4445 126.221C67.1559 126.221 66.9219 126.455 66.9219 126.745C66.9219 127.034 67.1559 127.269 67.4445 127.269Z" fill="#161742"/>
<path d="M19.4946 215.589C19.7462 215.589 19.9502 215.385 19.9502 215.133C19.9502 214.88 19.7462 214.676 19.4946 214.676C19.243 214.676 19.0391 214.88 19.0391 215.133C19.0391 215.385 19.243 215.589 19.4946 215.589Z" fill="#161742"/>
<path d="M70.6313 173.238C71.0728 173.238 71.4306 172.879 71.4306 172.436C71.4306 171.994 71.0728 171.635 70.6313 171.635C70.1899 171.635 69.832 171.994 69.832 172.436C69.832 172.879 70.1899 173.238 70.6313 173.238Z" fill="#161742"/>
<path d="M20.7803 185.75C21.2048 185.75 21.5489 185.405 21.5489 184.98C21.5489 184.554 21.2048 184.209 20.7803 184.209C20.3558 184.209 20.0117 184.554 20.0117 184.98C20.0117 185.405 20.3558 185.75 20.7803 185.75Z" fill="#161742"/>
<path d="M0.673543 191.55C1.04553 191.55 1.34709 191.248 1.34709 190.875C1.34709 190.502 1.04553 190.199 0.673543 190.199C0.301556 190.199 0 190.502 0 190.875C0 191.248 0.301556 191.55 0.673543 191.55Z" fill="#161742"/>
</g>
<g opacity="0.54">
<path d="M95.101 26.6625C95.4652 26.6625 95.7605 26.3664 95.7605 26.0012C95.7605 25.6359 95.4652 25.3398 95.101 25.3398C94.7367 25.3398 94.4414 25.6359 94.4414 26.0012C94.4414 26.3664 94.7367 26.6625 95.101 26.6625Z" fill="#161742"/>
<path d="M80.9968 38.9275C81.4244 38.9275 81.771 38.58 81.771 38.1512C81.771 37.7225 81.4244 37.375 80.9968 37.375C80.5693 37.375 80.2227 37.7225 80.2227 38.1512C80.2227 38.58 80.5693 38.9275 80.9968 38.9275Z" fill="#161742"/>
<path d="M95.1027 40.7362C95.47 40.7362 95.7678 40.4376 95.7678 40.0693C95.7678 39.7009 95.47 39.4023 95.1027 39.4023C94.7353 39.4023 94.4375 39.7009 94.4375 40.0693C94.4375 40.4376 94.7353 40.7362 95.1027 40.7362Z" fill="#161742"/>
<path d="M101.893 57.9154C102.335 57.9154 102.692 57.5566 102.692 57.114C102.692 56.6713 102.335 56.3125 101.893 56.3125C101.452 56.3125 101.094 56.6713 101.094 57.114C101.094 57.5566 101.452 57.9154 101.893 57.9154Z" fill="#161742"/>
<path d="M84.9576 24.3309C85.3311 24.3309 85.6339 24.0273 85.6339 23.6528C85.6339 23.2782 85.3311 22.9746 84.9576 22.9746C84.5841 22.9746 84.2812 23.2782 84.2812 23.6528C84.2812 24.0273 84.5841 24.3309 84.9576 24.3309Z" fill="#161742"/>
<path d="M99.3156 15.427C99.6042 15.427 99.8382 15.1924 99.8382 14.9029C99.8382 14.6135 99.6042 14.3789 99.3156 14.3789C99.027 14.3789 98.793 14.6135 98.793 14.9029C98.793 15.1924 99.027 15.427 99.3156 15.427Z" fill="#161742"/>
<path d="M66.7407 44.0718C66.9923 44.0718 67.1963 43.8673 67.1963 43.615C67.1963 43.3627 66.9923 43.1582 66.7407 43.1582C66.4891 43.1582 66.2852 43.3627 66.2852 43.615C66.2852 43.8673 66.4891 44.0718 66.7407 44.0718Z" fill="#161742"/>
<path d="M84.2829 54.6554C84.6549 54.6554 84.9565 54.353 84.9565 53.98C84.9565 53.6071 84.6549 53.3047 84.2829 53.3047C83.9109 53.3047 83.6094 53.6071 83.6094 53.98C83.6094 54.353 83.9109 54.6554 84.2829 54.6554Z" fill="#161742"/>
</g>
<g opacity="0.54">
<path d="M134.453 128.459C134.817 128.459 135.112 128.163 135.112 127.798C135.112 127.433 134.817 127.137 134.453 127.137C134.088 127.137 133.793 127.433 133.793 127.798C133.793 128.163 134.088 128.459 134.453 128.459Z" fill="#161742"/>
<path d="M155.809 129.408C156.237 129.408 156.583 129.06 156.583 128.632C156.583 128.203 156.237 127.855 155.809 127.855C155.382 127.855 155.035 128.203 155.035 128.632C155.035 129.06 155.382 129.408 155.809 129.408Z" fill="#161742"/>
<path d="M115.92 158.142C116.243 158.142 116.504 157.88 116.504 157.556C116.504 157.233 116.243 156.971 115.92 156.971C115.597 156.971 115.336 157.233 115.336 157.556C115.336 157.88 115.597 158.142 115.92 158.142Z" fill="#161742"/>
<path d="M147.204 147.572C147.572 147.572 147.869 147.274 147.869 146.905C147.869 146.537 147.572 146.238 147.204 146.238C146.837 146.238 146.539 146.537 146.539 146.905C146.539 147.274 146.837 147.572 147.204 147.572Z" fill="#161742"/>
<path d="M132.721 154.441C133.065 154.441 133.344 154.161 133.344 153.816C133.344 153.471 133.065 153.191 132.721 153.191C132.377 153.191 132.098 153.471 132.098 153.816C132.098 154.161 132.377 154.441 132.721 154.441Z" fill="#161742"/>
<path d="M116.717 130.236C117.159 130.236 117.517 129.877 117.517 129.434C117.517 128.992 117.159 128.633 116.717 128.633C116.276 128.633 115.918 128.992 115.918 129.434C115.918 129.877 116.276 130.236 116.717 130.236Z" fill="#161742"/>
<path d="M125.518 124.337C126.046 124.337 126.474 123.908 126.474 123.378C126.474 122.849 126.046 122.42 125.518 122.42C124.99 122.42 124.562 122.849 124.562 123.378C124.562 123.908 124.99 124.337 125.518 124.337Z" fill="#161742"/>
<path d="M149.401 134.896C149.685 134.896 149.915 134.666 149.915 134.381C149.915 134.096 149.685 133.865 149.401 133.865C149.117 133.865 148.887 134.096 148.887 134.381C148.887 134.666 149.117 134.896 149.401 134.896Z" fill="#161742"/>
<path d="M122.383 102.263C122.757 102.263 123.06 101.959 123.06 101.584C123.06 101.21 122.757 100.906 122.383 100.906C122.01 100.906 121.707 101.21 121.707 101.584C121.707 101.959 122.01 102.263 122.383 102.263Z" fill="#161742"/>
<path d="M138.148 104.976C138.436 104.976 138.67 104.741 138.67 104.452C138.67 104.162 138.436 103.928 138.148 103.928C137.859 103.928 137.625 104.162 137.625 104.452C137.625 104.741 137.859 104.976 138.148 104.976Z" fill="#161742"/>
<path d="M113.737 113.509C113.988 113.509 114.192 113.305 114.192 113.052C114.192 112.8 113.988 112.596 113.737 112.596C113.485 112.596 113.281 112.8 113.281 113.052C113.281 113.305 113.485 113.509 113.737 113.509Z" fill="#161742"/>
<path d="M141.334 150.945C141.776 150.945 142.134 150.586 142.134 150.143C142.134 149.701 141.776 149.342 141.334 149.342C140.893 149.342 140.535 149.701 140.535 150.143C140.535 150.586 140.893 150.945 141.334 150.945Z" fill="#161742"/>
<path d="M123.151 154.44C123.576 154.44 123.92 154.095 123.92 153.669C123.92 153.243 123.576 152.898 123.151 152.898C122.727 152.898 122.383 153.243 122.383 153.669C122.383 154.095 122.727 154.44 123.151 154.44Z" fill="#161742"/>
<path d="M111.318 146.954C111.69 146.954 111.992 146.652 111.992 146.279C111.992 145.906 111.69 145.604 111.318 145.604C110.946 145.604 110.645 145.906 110.645 146.279C110.645 146.652 110.946 146.954 111.318 146.954Z" fill="#161742"/>
</g>
</g>
<path d="M102.57 113.377L137.583 96.5155L102.57 89.3359V113.377Z" fill="#FFD325"/>
<path d="M231.651 108.944L194.707 99.1413L231.651 89.3359V108.944Z" fill="#FFD325"/>
<path d="M132.465 143.979L143.683 125.867L110.648 143.956L132.465 143.979Z" fill="#FFD325"/>
<path d="M187.262 143.743L178.648 129.838L204.014 143.726L187.262 143.743Z" fill="#FFD325"/>
<path d="M208.35 143.741L196.078 123.932L232.215 143.716L208.35 143.741Z" fill="#FFD325"/>
<path d="M148.915 143.844L152.282 134.787L141.383 143.956L148.915 143.844Z" fill="#FFD325"/>
<path d="M179.226 143.956L168.812 133.666L171.23 143.956H179.226Z" fill="#FFD325"/>
<path d="M164.348 143.957L162.293 134.689L155.242 144.055L164.348 143.957Z" fill="#FFD325"/>
<path d="M102.57 143.353L135.691 113.377L102.57 119.312V143.353Z" fill="#FFD325"/>
<path d="M231.926 138.92L198.805 108.943L231.926 114.879V138.92Z" fill="#FFD325"/>
<path d="M98.1771 313.63L88.0711 356.747L72.9653 357.263L71.3359 351.605L78.2838 305.156L98.1771 313.63Z" fill="#E27755"/>
<path d="M146.562 313.479L147.074 353.897L162.029 360.407L165.721 354.869L166.995 307.277L146.562 313.479Z" fill="#E27755"/>
<path d="M79.0442 135.882C79.0442 135.882 75.6765 152.354 67.9517 160.512C67.4403 161.05 67.3425 161.994 67.7253 162.7C68.097 163.387 68.8069 163.639 69.3966 163.289C71.1741 162.229 74.6676 158.592 78.1778 154.243C84.3739 146.567 82.0766 134.293 82.0766 134.293L79.0442 135.882Z" fill="#E27755"/>
<path d="M72.164 144.895C72.164 144.895 69.7605 150.478 57.1728 153.801C56.5132 153.975 56.0437 154.74 56.0549 155.463C56.0661 156.169 56.5356 156.665 57.1644 156.629C59.0677 156.517 63.2319 156.004 67.8573 153.737C72.723 151.349 77.7396 145.125 77.7396 145.125L72.1612 144.893L72.164 144.895Z" fill="#E27755"/>
<path d="M69.1491 150.961C69.1491 150.961 65.2616 154.083 55.0159 156.355C54.3395 156.507 53.7778 157.199 53.7163 157.964C53.6576 158.709 54.0852 159.289 54.7252 159.331C56.662 159.455 60.9269 159.444 65.8317 157.644C70.9937 155.75 72.3128 153.884 72.3128 153.884L69.1491 150.964V150.961Z" fill="#E27755"/>
<path d="M76.9038 143.665C76.9038 143.665 65.1937 155.488 54.3778 157.887C53.6652 158.044 53.0699 158.778 53.0056 159.582C52.9441 160.367 53.3941 160.983 54.0704 161.025C56.1162 161.157 61.594 160.37 66.8566 158.744C76.1436 155.875 80.2743 144.066 80.2743 144.066L76.9038 143.662V143.665Z" fill="#E27755"/>
<path d="M79.0679 145.148C79.0679 145.148 67.3577 156.971 56.5419 159.37C55.8264 159.53 55.2339 160.261 55.1697 161.068C55.1082 161.853 55.5581 162.47 56.2345 162.512C58.2803 162.643 63.1432 161.601 68.4058 159.973C77.6928 157.103 82.4384 145.552 82.4384 145.552L79.0679 145.148Z" fill="#E27755"/>
<path d="M57.1014 156.846C56.7912 156.846 56.5005 156.734 56.2769 156.526C56.0031 156.271 55.8493 155.896 55.8438 155.47C55.8438 155.355 55.936 155.26 56.0506 155.257C56.1707 155.237 56.263 155.349 56.263 155.464C56.2658 155.775 56.3748 156.041 56.562 156.218C56.7213 156.366 56.9281 156.437 57.1517 156.423C59.2171 156.302 62.9732 155.554 66.3466 154.2C66.4528 154.158 66.5757 154.209 66.6177 154.318C66.6596 154.424 66.6093 154.548 66.5003 154.593C63.0822 155.963 59.2702 156.722 57.1741 156.846C57.1489 156.846 57.1238 156.846 57.0986 156.846H57.1014Z" fill="#161742"/>
<path d="M55.5767 159.34C54.945 159.34 54.428 159.261 54.0759 159.082C53.7852 158.933 53.6035 158.718 53.5337 158.449C53.5057 158.336 53.5728 158.222 53.6874 158.194C53.7964 158.165 53.9138 158.233 53.9417 158.348C53.978 158.499 54.0842 158.617 54.2659 158.709C56.035 159.617 63.2763 157.518 66.8341 156.089C66.9403 156.047 67.0632 156.097 67.1051 156.207C67.1471 156.313 67.0968 156.436 66.9878 156.481C64.8302 157.347 58.7571 159.342 55.5711 159.342L55.5767 159.34Z" fill="#161742"/>
<path d="M55.3583 161.391C55.2465 161.391 55.1543 161.304 55.1487 161.192C55.1431 161.077 55.2325 160.976 55.3471 160.97C57.1693 160.881 64.0808 159.463 67.4793 158.098C67.5855 158.053 67.7085 158.106 67.7504 158.216C67.7923 158.322 67.742 158.445 67.633 158.49C64.1339 159.894 57.2587 161.298 55.3639 161.391C55.3611 161.391 55.3583 161.391 55.3527 161.391H55.3583Z" fill="#161742"/>
<path d="M70.7676 154.978C70.6698 154.978 70.5831 154.911 70.5636 154.812C70.5384 154.698 70.6111 154.588 70.7257 154.563C70.776 154.552 75.7088 153.439 77.5477 148.759C77.5897 148.65 77.7126 148.6 77.8188 148.642C77.9278 148.684 77.9781 148.807 77.9362 148.914C76.0106 153.806 70.8626 154.961 70.8095 154.972C70.7955 154.975 70.7788 154.978 70.7648 154.978H70.7676Z" fill="#161742"/>
<path d="M68.4082 160.185C68.3328 160.185 68.2573 160.143 68.221 160.07C68.1707 159.966 68.2098 159.84 68.316 159.787L72.9945 157.436C73.0979 157.386 73.2236 157.425 73.2767 157.528C73.327 157.632 73.2879 157.758 73.1817 157.811L68.5032 160.163C68.4725 160.177 68.4418 160.185 68.4082 160.185Z" fill="#161742"/>
<path d="M262.266 15.3348C262.048 15.3348 261.833 15.2367 261.69 15.0517C261.444 14.7323 261.506 14.2755 261.822 14.0289L272.009 6.15156C272.324 5.90496 272.783 5.96661 273.026 6.28327C273.272 6.60273 273.21 7.05951 272.895 7.30612L262.708 15.1835C262.576 15.2843 262.42 15.3348 262.266 15.3348Z" fill="#1D478E"/>
<path d="M266.406 23.5203C266.109 23.5203 265.83 23.3382 265.724 23.0411C265.587 22.6628 265.78 22.2453 266.157 22.108L278.242 17.6887C278.616 17.5514 279.035 17.7447 279.172 18.1231C279.309 18.5014 279.116 18.9189 278.739 19.0562L266.654 23.4755C266.573 23.5063 266.49 23.5203 266.406 23.5203Z" fill="#1D478E"/>
<path d="M280.217 32.1042H280.212L267.35 31.9893C266.948 31.9865 266.626 31.6558 266.629 31.2551C266.632 30.8515 266.948 30.5124 267.361 30.5321L280.223 30.647C280.625 30.6498 280.947 30.9804 280.944 31.3812C280.941 31.7819 280.617 32.1042 280.217 32.1042Z" fill="#1D478E"/>
<path d="M211.621 65.4303L205.017 67.2043C204.663 67.2997 204.452 67.6654 204.547 68.0212L211.672 94.6835C211.767 95.0393 212.132 95.2505 212.487 95.1551L219.09 93.3811C219.445 93.2857 219.655 92.92 219.56 92.5642L212.435 65.9019C212.34 65.5461 211.975 65.3349 211.621 65.4303Z" fill="#1D478E"/>
<path d="M208.947 66.1506L211.787 65.3876C212.084 65.3078 212.389 65.4842 212.468 65.7819L219.649 92.6527C219.729 92.9504 219.553 93.2559 219.256 93.3357L216.416 94.0987C216.119 94.1785 215.814 94.0021 215.735 93.7044L208.554 66.8336C208.475 66.5358 208.65 66.2304 208.947 66.1506Z" fill="#161742"/>
<path d="M190.949 59.294C189.769 54.8831 192.215 50.3966 196.407 49.2701C200.599 48.1436 204.953 50.8058 206.133 55.2138C207.312 59.6219 204.867 64.1112 200.675 65.2377C196.482 66.3643 192.128 63.7021 190.949 59.294Z" fill="#32B353"/>
<path d="M244.881 62.6735C243.008 62.6735 240.96 61.4097 238.998 59.0193C236.731 56.2534 234.831 52.2881 233.646 47.852C231.13 38.4418 232.584 30.1526 236.949 28.9784C239.084 28.4039 241.541 29.6537 243.869 32.4981C246.136 35.264 248.036 39.2293 249.224 43.6654C251.736 53.0756 250.286 61.3649 245.918 62.539C245.579 62.6287 245.233 62.6763 244.878 62.6763L244.881 62.6735ZM237.994 29.5697C237.701 29.5697 237.419 29.6061 237.139 29.6818C233.229 30.7326 231.977 38.7977 234.347 47.6615C235.507 51.9995 237.357 55.8695 239.559 58.5569C241.697 61.1659 243.894 62.326 245.73 61.8356C249.637 60.7848 250.892 52.7197 248.522 43.8559C247.362 39.5179 245.512 35.6479 243.31 32.9633C241.493 30.7466 239.638 29.5753 237.994 29.5753V29.5697Z" fill="#161742"/>
<path d="M199.151 43.4318L222.968 37.0312L229.781 62.524L205.964 68.9245C201.778 70.0146 196.876 65.2282 195 58.2084C193.125 51.1886 194.984 44.5863 199.151 43.4318Z" fill="#1D478E"/>
<path d="M222.97 37.0281L244.476 17.2129L258.287 68.899L229.781 62.5209C225.594 63.611 220.692 58.8246 218.817 51.8048C216.941 44.785 218.8 38.1827 222.967 37.0281H222.97Z" fill="#32B353"/>
<path d="M258.255 68.9129C264.716 67.1768 266.863 54.202 263.05 39.9327C259.237 25.6635 250.908 15.5033 244.446 17.2394C237.984 18.9754 235.837 31.9503 239.65 46.2196C243.464 60.4888 251.793 70.649 258.255 68.9129Z" fill="#478B4D"/>
<path d="M257.487 66.0351C263.227 64.4929 265.134 52.9646 261.745 40.286C258.357 27.6074 250.958 18.5795 245.218 20.1217C239.477 21.6639 237.571 33.1921 240.959 45.8708C244.347 58.5494 251.747 67.5773 257.487 66.0351Z" fill="#32B353"/>
<path d="M241.244 37.8988C240.643 38.0613 240.078 38.2911 239.559 38.5769C239.827 40.9169 240.288 43.3689 240.956 45.8658C241.621 48.357 242.443 50.7082 243.376 52.866C243.972 52.852 244.575 52.7679 245.176 52.6082C249.226 51.5209 251.629 47.3454 250.545 43.2848C249.461 39.2243 245.296 36.8143 241.247 37.9016L241.244 37.8988Z" fill="#161742"/>
<path d="M210.237 100.63C210.237 100.63 206.078 95.1317 206.078 92.2901C206.078 89.4486 209.482 85.9961 209.482 85.9961L212.431 96.5356L210.237 100.63Z" fill="#E27755"/>
<path d="M218.202 100.627C218.202 100.627 220.133 95.8517 221.276 92.9149C222.302 90.2807 221.863 85.4859 220.393 84.1072C218.923 82.7284 216.676 81.6523 216.676 81.6523L217.204 83.7008L209.859 88.6133L210.231 100.627H218.196H218.202Z" fill="#E27755"/>
<path d="M208.55 89.4476C208.441 89.4476 208.332 89.3915 208.271 89.2906C208.176 89.1365 208.226 88.9347 208.38 88.8395L217.359 83.3329C217.513 83.2404 217.714 83.2852 217.809 83.4422C217.904 83.5963 217.854 83.7981 217.7 83.8933L208.721 89.3999C208.668 89.4335 208.609 89.4476 208.55 89.4476Z" fill="#161742"/>
<path d="M90.1544 352.126L94.3902 346.164C95.6809 344.345 94.5443 341.844 92.2912 341.547L86.0347 340.721C84.0191 340.455 82.304 342.146 82.6097 344.099L84.0065 353.073L90.1519 352.128L90.1544 352.126Z" fill="#1D478E"/>
<path d="M75.0694 326.658L94.1243 331.164L87.7382 358.168L72.1712 361.09L69.8516 357.262L75.0694 326.658Z" fill="#161742"/>
<path d="M162.07 352.156L160.886 344.989C160.525 342.803 162.541 340.998 164.604 341.654L170.338 343.481C172.185 344.07 172.963 346.314 171.892 347.965L166.975 355.548L162.07 352.156Z" fill="#1D478E"/>
<path d="M166.559 330.875L146.809 332.994L147.071 353.896L162.026 360.406L165.318 356.449L166.559 330.875Z" fill="#161742"/>
<path d="M136.32 195.31L109.898 319.56L68.3203 310.113C68.3203 310.113 92.2353 206.959 103.345 180.73C114.451 154.5 122.598 136.781 122.598 136.781L144.308 136.576L136.32 195.313V195.31Z" fill="#161742"/>
<path d="M158.189 148.151C158.189 148.151 167.49 176.309 172.49 213.877C177.489 251.445 174.158 319.039 174.158 319.039L135.305 319.757L130.062 199.058L121.594 195.297L129.81 140.705L158.189 148.151Z" fill="#161742"/>
<path d="M116.015 178.099C115.99 178.099 115.962 178.096 115.937 178.09C115.742 178.045 115.619 177.852 115.661 177.656L123.967 140.25C124.009 140.054 124.204 139.931 124.4 139.973C124.595 140.018 124.718 140.211 124.677 140.407L116.37 177.813C116.334 177.984 116.183 178.099 116.015 178.099Z" fill="#FFF3EB"/>
<path d="M163.972 318.448C163.793 318.448 163.648 318.302 163.648 318.12C163.648 317.411 163.824 246.871 162.625 223.256C161.426 199.652 152.276 143.555 152.184 142.992C152.156 142.815 152.273 142.647 152.452 142.616C152.625 142.585 152.796 142.706 152.827 142.885C152.919 143.448 162.077 199.582 163.276 223.222C164.475 246.854 164.302 317.411 164.302 318.12C164.302 318.299 164.157 318.445 163.978 318.445L163.972 318.448Z" fill="#FFF3EB"/>
<path d="M166.325 111.612C166.325 111.612 183.636 130.867 201.188 140.706C213.529 147.625 223.568 98.6345 223.568 98.6345H203.683L200.782 110.844C200.782 110.844 180.288 82.706 171.887 75.6386C163.486 68.5711 147.413 67.495 140.08 66.9205C132.749 66.3461 126.832 59.797 107.358 85.2758C87.8842 110.755 67.7422 142.611 67.7422 142.611L84.0218 155.516L114.932 112.388V146.274L160.884 148.266L166.323 111.609L166.325 111.612Z" fill="#1D478E"/>
<path d="M208.039 120.084C207.93 120.084 207.823 120.034 207.751 119.941L194.165 102.191C194.042 102.031 194.073 101.804 194.232 101.681C194.389 101.558 194.618 101.589 194.741 101.748L208.326 119.498C208.449 119.658 208.419 119.885 208.259 120.008C208.192 120.059 208.114 120.084 208.039 120.084Z" fill="#161742"/>
<path d="M115.301 123.155C115.301 123.155 115.293 123.155 115.29 123.155C115.089 123.149 114.932 122.981 114.938 122.779C115.312 111.267 119.409 83.6419 119.451 83.3645C119.482 83.1655 119.666 83.0282 119.865 83.059C120.063 83.0898 120.2 83.2748 120.169 83.4738C120.128 83.7512 116.039 111.334 115.664 122.804C115.659 123.001 115.497 123.157 115.301 123.157V123.155Z" fill="#161742"/>
<path d="M167.675 100.988C167.675 100.988 167.647 100.996 167.633 100.999C167.437 101.041 167.244 100.915 167.202 100.719C163.812 84.5997 171.179 79.0343 171.492 78.8073C171.652 78.6896 171.881 78.7261 171.998 78.8886C172.116 79.0511 172.079 79.2781 171.917 79.3986C171.844 79.4519 164.626 84.95 167.909 100.57C167.949 100.752 167.842 100.932 167.669 100.991L167.675 100.988Z" fill="#161742"/>
<path d="M162.678 132.479C162.569 132.479 162.46 132.429 162.39 132.337L153.52 120.67C153.397 120.511 153.43 120.281 153.59 120.16C153.746 120.04 153.975 120.068 154.098 120.228L162.969 131.894C163.092 132.053 163.058 132.283 162.899 132.404C162.835 132.454 162.757 132.479 162.678 132.479Z" fill="#161742"/>
<path d="M203.471 99.6831C203.32 99.6831 203.194 99.5234 203.191 99.3244C203.191 99.1226 203.312 98.9573 203.465 98.9573L223.652 98.6406C223.8 98.649 223.932 98.8004 223.934 98.9993C223.934 99.2011 223.814 99.3664 223.66 99.3664L203.474 99.6831H203.471Z" fill="#161742"/>
<path d="M87.5996 151.364C87.541 151.364 87.4823 151.342 87.432 151.297L71.5716 136.745C71.4542 136.635 71.4346 136.439 71.5268 136.302C71.6191 136.165 71.7895 136.142 71.9069 136.249L87.7673 150.801C87.8847 150.91 87.9043 151.107 87.8121 151.244C87.759 151.322 87.6779 151.364 87.5996 151.364Z" fill="#161742"/>
<path d="M130.983 220.72C130.81 220.72 130.665 220.582 130.659 220.409L129.742 199.276L121.459 195.597C121.294 195.524 121.221 195.331 121.294 195.168C121.366 195.003 121.559 194.93 121.721 195.003L130.19 198.764C130.301 198.814 130.377 198.923 130.382 199.047L131.31 220.381C131.319 220.56 131.179 220.711 131 220.72C130.994 220.72 130.992 220.72 130.986 220.72H130.983Z" fill="#FFF3EB"/>
<path d="M146.252 349.195L141.297 373.567L198.111 373.705L198.216 365.99C198.287 360.714 194.567 356.117 189.312 354.99L167.377 350.291L154.269 353.914L146.25 349.195H146.252Z" fill="#1D478E"/>
<path d="M198.19 368.051H142.824C142.653 368.051 142.516 367.913 142.516 367.741C142.516 367.57 142.653 367.432 142.824 367.432H198.19C198.361 367.432 198.499 367.57 198.499 367.741C198.499 367.913 198.361 368.051 198.19 368.051Z" fill="#161742"/>
<path d="M64.3807 350.07L58.6797 372.161H114.669L116.293 366.024C116.987 358.133 111.547 352.398 103.194 351.161L89.7509 349.91L80.364 353.373L73.4622 348.038C71.0659 346.188 67.5053 346.505 65.5371 348.748L64.3781 350.068L64.3807 350.07Z" fill="#1D478E"/>
<path d="M109.456 366.839H61.0854C60.8975 366.839 60.7461 366.699 60.7461 366.524C60.7461 366.35 60.8975 366.209 61.0854 366.209H109.456C109.643 366.209 109.795 366.35 109.795 366.524C109.795 366.699 109.643 366.839 109.456 366.839Z" fill="#161742"/>
<path d="M166.313 72.1934L147.945 67.9198L149.007 55.4551L165.016 59.4568" fill="#161742"/>
<path d="M139.553 49.1774C136.244 38.8593 143.505 31.5536 151.693 28.8914C162.934 25.2372 173.116 31.4779 171.226 38.9041C168.979 47.7454 161.187 47.6418 152.923 48.7627C143.136 50.0882 142.253 57.59 139.553 49.1774Z" fill="#161742"/>
<path d="M160.811 60.2026L157.859 70.1396L145.602 68.1864L150.073 54.9902L160.811 60.2026Z" fill="#E27755"/>
<path d="M148.832 58.6501L159.092 65.9894L160.81 60.2026L150.073 54.9902L148.832 58.6501Z" fill="#161742"/>
<path d="M142.757 51.8336C140.367 42.8886 145.138 33.837 153.416 31.612C161.694 29.387 170.515 30.3902 172.731 43.7797C174.243 52.9153 172.407 61.4399 163.911 62.5693C153.849 63.906 145.146 60.7786 142.757 51.8336Z" fill="#E27755"/>
<path d="M162.591 41.6256C162.448 41.6256 162.308 41.5556 162.222 41.4294C162.082 41.2249 162.138 40.9474 162.342 40.8073C166.162 38.2208 169.407 39.7172 169.544 39.7817C169.765 39.8882 169.86 40.1544 169.754 40.3758C169.647 40.5972 169.385 40.6952 169.161 40.5888C169.041 40.5355 166.224 39.2576 162.837 41.5471C162.761 41.5976 162.674 41.6228 162.588 41.6228L162.591 41.6256Z" fill="#161742"/>
<path d="M160.193 33.6822C164.528 33.5673 168.332 34.9124 170.632 36.4145C167.105 28.9995 159.363 29.5095 153.304 31.1377C144.839 33.4132 139.959 42.6693 142.404 51.816C142.751 53.1163 143.243 54.2821 143.835 55.3442L144.928 56.154L148.572 45.1661C158.237 42.5684 160.196 33.6822 160.196 33.6822H160.193Z" fill="#161742"/>
<path d="M138.879 46.6473C138.879 46.6473 141.113 54.8161 140.16 63.5341C139.206 72.255 132.094 79.3505 132.094 79.3505L139.793 80.3621L146.674 73.5412L143.427 80.8385L148.46 81.4999C148.46 81.4999 155.852 73.3675 150.721 54.1632L138.882 46.6445L138.879 46.6473Z" fill="#161742"/>
<path d="M132.11 35.7084C129.544 32.7379 129.552 28.5148 132.132 26.2758C134.712 24.0367 138.881 24.628 141.447 27.5985C144.013 30.5689 144.004 34.792 141.425 37.0311C138.845 39.2702 134.675 38.6789 132.11 35.7084Z" fill="#161742"/>
<mask id="mask0_906_20441" style="mask-type:luminance" maskUnits="userSpaceOnUse" x="130" y="24" width="14" height="15">
<path d="M132.11 35.7084C129.544 32.7379 129.552 28.5148 132.132 26.2758C134.712 24.0367 138.881 24.628 141.447 27.5985C144.013 30.5689 144.004 34.792 141.425 37.0311C138.845 39.2702 134.675 38.6789 132.11 35.7084Z" fill="white"/>
</mask>
<g mask="url(#mask0_906_20441)">
<path d="M134.407 39.8413C134.261 39.8413 134.116 39.7685 134.032 39.6368C133.898 39.4294 133.959 39.1519 134.166 39.0202C142.266 33.8051 140.256 24.4089 140.237 24.3164C140.181 24.0754 140.332 23.8372 140.572 23.7812C140.809 23.7252 141.05 23.8765 141.106 24.1175C141.128 24.2184 143.283 34.2143 134.65 39.7741C134.574 39.8217 134.49 39.8441 134.409 39.8441L134.407 39.8413Z" fill="#161742"/>
<path d="M138.788 35.4441C138.632 35.4441 138.481 35.3601 138.397 35.2143L132.642 24.7897C132.522 24.5739 132.6 24.3021 132.816 24.1816C133.031 24.0611 133.302 24.1395 133.422 24.3553L139.177 34.78C139.297 34.9958 139.218 35.2676 139.003 35.3881C138.933 35.4273 138.861 35.4441 138.788 35.4441Z" fill="#161742"/>
</g>
<path d="M144.646 46.4546C142.807 46.4546 140.789 46.1267 138.601 45.3197C138.369 45.2356 138.252 44.9778 138.336 44.7452C138.422 44.5126 138.677 44.3949 138.909 44.479C147.514 47.6456 153.257 43.1899 155.568 40.7939C152.869 41.629 147.212 42.4389 140.063 38.2298C139.85 38.1037 139.778 37.8319 139.904 37.6189C140.029 37.4059 140.306 37.3359 140.513 37.4592C149.945 43.0078 156.787 39.3591 156.857 39.3227C157.038 39.2218 157.265 39.261 157.404 39.4152C157.544 39.5693 157.558 39.8019 157.438 39.97C157.382 40.0485 152.768 46.4518 144.649 46.4518L144.646 46.4546Z" fill="#1D478E"/>
<path d="M153.356 46.3138C151.849 43.7245 148.803 42.7157 146.553 44.0608C144.303 45.4059 143.702 48.5977 145.209 51.1871C146.715 53.7764 149.762 54.7853 152.011 53.4401C154.261 52.095 154.862 48.9032 153.356 46.3138Z" fill="#E27755"/>
<path d="M151.129 50.1396C151.039 50.1396 150.95 50.1144 150.872 50.0584L146.744 47.1496C146.543 47.0066 146.495 46.7292 146.635 46.5274C146.777 46.3257 147.057 46.278 147.255 46.4182L151.383 49.327C151.584 49.4699 151.632 49.7473 151.492 49.9491C151.405 50.0724 151.268 50.1396 151.126 50.1396H151.129Z" fill="#161742"/>
<path d="M148.189 51.3724C148.091 51.3724 147.994 51.3416 147.91 51.2743C147.717 51.1202 147.686 50.84 147.84 50.6466L149.33 48.7774C149.483 48.5841 149.763 48.5533 149.956 48.7074C150.148 48.8615 150.179 49.1417 150.025 49.3351L148.536 51.2043C148.449 51.3135 148.318 51.3724 148.186 51.3724H148.189Z" fill="#161742"/>
<path d="M171.671 50.365C171.738 50.4154 171.827 50.435 171.914 50.407L173.845 49.7737C173.932 49.7457 173.999 49.6784 174.027 49.5915C174.055 49.5047 174.041 49.4122 173.987 49.3421L172.967 48.011C172.878 47.8933 172.71 47.8765 172.59 47.9718C172.47 48.0671 172.448 48.238 172.537 48.3557L173.319 49.3814L171.766 49.8914C171.623 49.939 171.539 50.0931 171.581 50.2361C171.598 50.2921 171.629 50.337 171.671 50.3706V50.365Z" fill="#161742"/>
<path d="M171.468 50.2657C171.41 50.0612 171.527 49.8426 171.731 49.7753L173.126 49.3157L172.444 48.4246C172.315 48.2565 172.349 48.0099 172.519 47.8725C172.603 47.8053 172.706 47.7745 172.81 47.7885C172.913 47.8025 173.003 47.8529 173.064 47.9314L174.081 49.2653C174.16 49.3662 174.182 49.5007 174.14 49.624C174.101 49.7473 174.003 49.8454 173.883 49.8818L171.952 50.5179C171.829 50.5572 171.697 50.5347 171.597 50.4563C171.535 50.4086 171.488 50.3386 171.465 50.2629L171.468 50.2657ZM172.782 48.0295C172.74 48.0239 172.701 48.0351 172.664 48.0631C172.597 48.1191 172.581 48.2172 172.631 48.2817L173.416 49.3045C173.439 49.3354 173.447 49.3774 173.436 49.4138C173.425 49.4502 173.397 49.4783 173.36 49.4923L171.804 50.0023C171.72 50.0303 171.672 50.12 171.695 50.2013C171.717 50.2769 171.801 50.319 171.876 50.2966L173.807 49.6604C173.855 49.6464 173.894 49.6044 173.911 49.5539C173.928 49.5063 173.919 49.4559 173.889 49.4166L172.868 48.0827C172.868 48.0827 172.854 48.0659 172.846 48.0575C172.827 48.0407 172.801 48.0323 172.776 48.0295H172.782Z" fill="#161742"/>
<path d="M164.753 43.9946C165.476 44.6195 166.346 45.0875 167.329 44.9362C168.176 44.8045 168.956 44.1739 169.467 43.5126C169.641 43.2884 169.685 42.9886 169.467 42.77C169.286 42.5878 168.9 42.5458 168.727 42.77C168.33 43.2828 167.788 43.7704 167.164 43.9021C166.902 43.9582 166.58 43.9021 166.287 43.7788C166.016 43.6611 165.725 43.4537 165.49 43.252C165.275 43.067 164.959 43.0418 164.75 43.252C164.56 43.4425 164.535 43.8096 164.75 43.9946H164.753Z" fill="#161742"/>
<path d="M169.92 57.2222C167.586 57.494 166.496 55.0139 167.46 54.7001C168.335 54.4142 171.356 53.4867 172.309 53.1504C172.924 53.1504 171.985 56.9784 169.922 57.2194L169.92 57.2222Z" fill="#161742"/>
</g>
<defs>
<clipPath id="clip0_906_20441">
<rect width="294" height="378" fill="white"/>
</clipPath>
</defs>
</svg>
