<svg width="10" height="10" viewBox="0 0 10 10" fill="none" xmlns="http://www.w3.org/2000/svg">
<g clip-path="url(#clip0_151_2442)">
<path d="M6.44162 6.94872C6.44162 6.65529 6.44162 5.76211 7.2892 5.76211H8.98436V4.74501C8.98436 4.27766 8.60414 3.89743 8.13678 3.89743H0.847582C0.380225 3.89743 0 4.27766 0 4.74501V9.15244C0 9.61979 0.380225 10 0.847582 10H8.13678C8.60414 10 8.98436 9.61979 8.98436 9.15244V8.13534H7.2892C6.44162 8.13534 6.44162 7.24216 6.44162 6.94872Z" fill="#32B353"/>
<path d="M6.78067 3.5584V2.53079C6.78067 2.35568 6.68931 2.19685 6.53623 2.10599C6.37757 2.01174 6.18601 2.00851 6.02412 2.09683L3.09302 3.5584H6.78067Z" fill="#32B353"/>
<path d="M7.79777 7.28775C7.98502 7.28775 8.13681 7.13596 8.13681 6.94871C8.13681 6.76147 7.98502 6.60968 7.79777 6.60968C7.61053 6.60968 7.45874 6.76147 7.45874 6.94871C7.45874 7.13596 7.61053 7.28775 7.79777 7.28775Z" fill="#32B353"/>
<path d="M5.25494 2.10156V1.37993C5.25494 1.1221 5.09627 0.958345 4.94794 0.891047C4.76792 0.80934 4.5706 0.839514 4.42007 0.971567L1.46777 3.55839H2.33332L5.25494 2.10156Z" fill="#32B353"/>
<path d="M9.32351 6.10114H7.28931C6.98401 6.10114 6.78076 6.24539 6.78076 6.94872C6.78076 7.65204 6.98401 7.7963 7.28931 7.7963H9.32351C9.60389 7.7963 9.83206 7.56813 9.83206 7.28775V6.60968C9.83206 6.3293 9.60389 6.10114 9.32351 6.10114ZM7.79786 7.62678C7.42391 7.62678 7.11979 7.32267 7.11979 6.94872C7.11979 6.57476 7.42391 6.27065 7.79786 6.27065C8.17181 6.27065 8.47592 6.57476 8.47592 6.94872C8.47592 7.32267 8.17181 7.62678 7.79786 7.62678Z" fill="#32B353"/>
</g>
<defs>
<clipPath id="clip0_151_2442">
<rect width="10" height="10" fill="white"/>
</clipPath>
</defs>
</svg>