<svg xmlns="http://www.w3.org/2000/svg" width="122.955" height="125" viewBox="0 0 122.955 125">
  <g id="Group_5336" data-name="Group 5336" transform="translate(-40.135 -154.5)">
    <g id="Group_5335" data-name="Group 5335" transform="translate(128.48 221.195)">
      <path id="Path_5801" data-name="Path 5801" d="M1050.33,319.427h32.518l1.046-20.634h-34.61Z" transform="translate(-1049.284 -298.793)" fill="#ebebeb"/>
      <g id="Group_5220" data-name="Group 5220" transform="translate(2.282 2.409)">
        <path id="Path_5802" data-name="Path 5802" d="M1058.275,308.283H1087.5l-.444,6.91h-28.4Z" transform="translate(-1058.275 -308.283)" fill="none" stroke="#dbdbdb" stroke-width="1"/>
        <path id="Path_5803" data-name="Path 5803" d="M1061.8,343.5l.309,6.212H1089.3l.388-6.212Z" transform="translate(-1060.906 -334.557)" fill="none" stroke="#dbdbdb" stroke-width="1"/>
        <path id="Path_5804" data-name="Path 5804" d="M1110.5,320.121h-5.848l-.19-1.474h6.228Z" transform="translate(-1092.736 -316.016)" fill="none" stroke="#dbdbdb" stroke-width="1"/>
        <path id="Path_5805" data-name="Path 5805" d="M1110.5,354.3h-5.848l-.19-1.474h6.228Z" transform="translate(-1092.736 -341.522)" fill="none" stroke="#dbdbdb" stroke-width="1"/>
      </g>
      <g id="Group_5221" data-name="Group 5221" transform="translate(3.363 20.634)">
        <path id="Path_5806" data-name="Path 5806" d="M1064.725,380.081l-.316,2.248-.635,4.517h-1.242v-6.764Z" transform="translate(-1062.532 -380.081)" fill="#ebebeb"/>
        <path id="Path_5807" data-name="Path 5807" d="M1064.725,380.081l-.316,2.248h-1.877v-2.248Z" transform="translate(-1062.532 -380.081)" fill="#dbdbdb"/>
      </g>
      <g id="Group_5222" data-name="Group 5222" transform="translate(29.054 20.634)">
        <path id="Path_5808" data-name="Path 5808" d="M1163.746,380.081l.316,2.248.635,4.517h1.242v-6.764Z" transform="translate(-1163.746 -380.081)" fill="#ebebeb"/>
        <path id="Path_5809" data-name="Path 5809" d="M1163.746,380.081l.316,2.248h1.877v-2.248Z" transform="translate(-1163.746 -380.081)" fill="#dbdbdb"/>
      </g>
    </g>
    <g id="Group_5329" data-name="Group 5329" transform="translate(62.221 155)">
      <rect id="Rectangle_2036" data-name="Rectangle 2036" width="6.204" height="2.621" transform="translate(3.461 60.81)" fill="none" stroke="#e2e2e2" stroke-width="1"/>
      <rect id="Rectangle_2037" data-name="Rectangle 2037" width="6.204" height="2.621" transform="translate(0 64.116)" fill="none" stroke="#e2e2e2" stroke-width="1"/>
      <rect id="Rectangle_2038" data-name="Rectangle 2038" width="6.204" height="2.621" transform="translate(79.344 31.628)" fill="none" stroke="#e2e2e2" stroke-width="1"/>
      <rect id="Rectangle_2039" data-name="Rectangle 2039" width="6.204" height="2.621" transform="translate(75.884 34.934)" fill="none" stroke="#e2e2e2" stroke-width="1"/>
      <rect id="Rectangle_2040" data-name="Rectangle 2040" width="6.204" height="2.621" transform="translate(72.437 31.628)" fill="none" stroke="#e2e2e2" stroke-width="1"/>
      <rect id="Rectangle_2041" data-name="Rectangle 2041" width="6.204" height="2.621" transform="translate(91.563 64.116)" fill="none" stroke="#e2e2e2" stroke-width="1"/>
      <rect id="Rectangle_2042" data-name="Rectangle 2042" width="6.204" height="2.621" transform="translate(88.102)" fill="none" stroke="#e2e2e2" stroke-width="1"/>
      <rect id="Rectangle_2043" data-name="Rectangle 2043" width="6.204" height="2.621" transform="translate(91.563 3.306)" fill="none" stroke="#e2e2e2" stroke-width="1"/>
      <rect id="Rectangle_2044" data-name="Rectangle 2044" width="6.204" height="2.621" transform="translate(3.461)" fill="none" stroke="#e2e2e2" stroke-width="1"/>
    </g>
    <g id="Group_5328" data-name="Group 5328" transform="translate(53.03 155.94)">
      <g id="Group_5226" data-name="Group 5226">
        <rect id="Rectangle_2045" data-name="Rectangle 2045" width="0.257" height="24.414" transform="translate(3.45)" fill="#d5d2d2"/>
        <g id="Group_5225" data-name="Group 5225" transform="translate(2.864 23.269)">
          <rect id="Rectangle_2046" data-name="Rectangle 2046" width="1.428" height="0.965" fill="#d5d2d2"/>
          <rect id="Rectangle_2047" data-name="Rectangle 2047" width="1.428" height="0.644" transform="translate(0 0.321)" fill="#d5d2d2"/>
        </g>
        <path id="Path_5810" data-name="Path 5810" d="M792.13,139.249a1.1,1.1,0,1,0,1.1-1.1A1.1,1.1,0,0,0,792.13,139.249Z" transform="translate(-789.652 -108.626)" fill="#d5d2d2"/>
        <path id="Path_5811" data-name="Path 5811" d="M780.534,119.157h7.155l-1.3-2.3-1.057-4.263h-2.449l-1.057,4.263Z" transform="translate(-780.534 -88.534)" fill="#d5d2d2"/>
      </g>
      <g id="Group_5228" data-name="Group 5228" transform="translate(8.41)">
        <rect id="Rectangle_2048" data-name="Rectangle 2048" width="0.257" height="20.018" transform="translate(3.449)" fill="#d5d2d2"/>
        <g id="Group_5227" data-name="Group 5227" transform="translate(2.864 18.874)">
          <rect id="Rectangle_2049" data-name="Rectangle 2049" width="1.428" height="0.965" fill="#d5d2d2"/>
          <rect id="Rectangle_2050" data-name="Rectangle 2050" width="1.428" height="0.644" transform="translate(0 0.321)" fill="#d5d2d2"/>
        </g>
        <path id="Path_5812" data-name="Path 5812" d="M831.481,118.683a1.1,1.1,0,1,0,1.1-1.1A1.1,1.1,0,0,0,831.481,118.683Z" transform="translate(-829.003 -92.455)" fill="#d5d2d2"/>
        <path id="Path_5813" data-name="Path 5813" d="M819.885,98.591h7.155l-1.3-2.3-1.057-4.263h-2.449l-1.057,4.263Z" transform="translate(-819.885 -72.363)" fill="#d5d2d2"/>
      </g>
      <g id="Group_5230" data-name="Group 5230" transform="translate(16.277)">
        <rect id="Rectangle_2051" data-name="Rectangle 2051" width="0.257" height="15.522" transform="translate(3.45)" fill="#d5d2d2"/>
        <g id="Group_5229" data-name="Group 5229" transform="translate(2.864 14.378)">
          <rect id="Rectangle_2052" data-name="Rectangle 2052" width="1.428" height="0.965" fill="#d5d2d2"/>
          <rect id="Rectangle_2053" data-name="Rectangle 2053" width="1.428" height="0.644" transform="translate(0 0.321)" fill="#d5d2d2"/>
        </g>
        <path id="Path_5814" data-name="Path 5814" d="M868.295,97.645a1.1,1.1,0,1,0,1.1-1.1A1.1,1.1,0,0,0,868.295,97.645Z" transform="translate(-865.817 -75.913)" fill="#d5d2d2"/>
        <path id="Path_5815" data-name="Path 5815" d="M856.7,77.553h7.155l-1.3-2.3L861.5,70.993h-2.449l-1.057,4.263Z" transform="translate(-856.699 -55.821)" fill="#d5d2d2"/>
      </g>
    </g>
    <g id="Group_5330" data-name="Group 5330" transform="translate(135.787 166.275)">
      <g id="Group_5232" data-name="Group 5232">
        <rect id="Rectangle_2054" data-name="Rectangle 2054" width="11.798" height="14.311" fill="#ebebeb"/>
        <rect id="Rectangle_2055" data-name="Rectangle 2055" width="9.102" height="11.698" transform="translate(1.348 1.306)" fill="#fff"/>
        <rect id="Rectangle_2056" data-name="Rectangle 2056" width="0.355" height="11.698" transform="translate(1.348 1.306)" fill="#c7c7c7"/>
        <rect id="Rectangle_2057" data-name="Rectangle 2057" width="0.355" height="14.311" transform="translate(11.798)" fill="#c7c7c7"/>
        <rect id="Rectangle_2058" data-name="Rectangle 2058" width="2.146" height="6.394" transform="translate(8.248 10.405) rotate(180)" fill="#ebebeb"/>
        <rect id="Rectangle_2059" data-name="Rectangle 2059" width="5.723" height="3.133" transform="translate(9.185 6.052) rotate(180)" fill="none" stroke="#ebebeb" stroke-width="1"/>
      </g>
      <g id="Group_5233" data-name="Group 5233" transform="translate(0 35.267)">
        <rect id="Rectangle_2060" data-name="Rectangle 2060" width="11.798" height="14.311" fill="#ebebeb"/>
        <rect id="Rectangle_2061" data-name="Rectangle 2061" width="9.102" height="11.698" transform="translate(1.348 1.306)" fill="#fff"/>
        <rect id="Rectangle_2062" data-name="Rectangle 2062" width="0.355" height="11.698" transform="translate(1.348 1.306)" fill="#c7c7c7"/>
        <rect id="Rectangle_2063" data-name="Rectangle 2063" width="0.355" height="14.311" transform="translate(11.798)" fill="#c7c7c7"/>
        <rect id="Rectangle_2064" data-name="Rectangle 2064" width="2.146" height="6.394" transform="translate(4.398 4.011)" fill="#ebebeb"/>
        <rect id="Rectangle_2065" data-name="Rectangle 2065" width="5.723" height="3.133" transform="translate(3.462 2.919)" fill="none" stroke="#ebebeb" stroke-width="1"/>
      </g>
      <g id="Group_5234" data-name="Group 5234" transform="translate(0 17.698)">
        <rect id="Rectangle_2066" data-name="Rectangle 2066" width="11.798" height="14.311" fill="#ebebeb"/>
        <rect id="Rectangle_2067" data-name="Rectangle 2067" width="9.102" height="11.698" transform="translate(1.348 1.306)" fill="#fff"/>
        <rect id="Rectangle_2068" data-name="Rectangle 2068" width="0.355" height="11.698" transform="translate(1.348 1.306)" fill="#c7c7c7"/>
        <rect id="Rectangle_2069" data-name="Rectangle 2069" width="0.355" height="14.311" transform="translate(11.798)" fill="#c7c7c7"/>
        <rect id="Rectangle_2070" data-name="Rectangle 2070" width="1.839" height="4.649" transform="translate(5.018 4.33)" fill="#ebebeb"/>
        <rect id="Rectangle_2071" data-name="Rectangle 2071" width="4.939" height="3.205" transform="translate(3.853 7.155)" fill="none" stroke="#dbdbdb" stroke-width="1"/>
      </g>
    </g>
    <g id="Shadow" transform="translate(41.541 262.109)">
      <g id="Group_5236" data-name="Group 5236" transform="translate(0 0)">
        <path id="Path_5816" data-name="Path 5816" d="M892.594,437.308c0,4.8-24.89,8.7-55.594,8.7s-55.594-3.893-55.594-8.7,24.891-8.7,55.594-8.7S892.594,432.506,892.594,437.308Z" transform="translate(-781.405 -428.613)" fill="#ddd"/>
      </g>
    </g>
    <path id="Path_6010" data-name="Path 6010" d="M928.619,52.69h-45.9a4.67,4.67,0,0,0-4.642,4.7v93.864a4.673,4.673,0,0,0,4.642,4.7h45.9a4.678,4.678,0,0,0,4.648-4.7V57.388A4.674,4.674,0,0,0,928.619,52.69Zm1.743,95.66a4.321,4.321,0,0,1-4.159,4.469H885.144a4.322,4.322,0,0,1-4.164-4.469v-87.4c0-5.033,1.862-5.278,4.164-5.278h8.226c.478,0,.869.539.869,1.208v.289c0,1.567.863,1.572,1.922,1.572h19.02c1.07,0,1.927-.005,1.927-1.572v-.289c0-.669.385-1.208.871-1.208H926.2c2.3,0,4.159.669,4.159,5.278Z" transform="translate(-801.877 106.426)" fill="#455a64"/>
    <path id="Path_6011" data-name="Path 6011" d="M938.578,69.031v87.784a4.348,4.348,0,0,1-4.2,4.489H892.961a4.349,4.349,0,0,1-4.2-4.489V69.031c0-5.055,1.879-5.3,4.2-5.3h8.3c.482,0,.876.542.876,1.214v.29c0,1.574.871,1.579,1.939,1.579h19.188c1.079,0,1.945-.005,1.945-1.579v-.29c0-.672.389-1.214.879-1.214h8.3C936.7,63.73,938.578,64.4,938.578,69.031Z" transform="translate(-809.651 98.157)" fill="#fff"/>
    <g id="Group_5332" data-name="Group 5332" transform="translate(85.017 177.241)">
      <path id="Path_5867" data-name="Path 5867" d="M973.555,198.512l-4.54-4.6,1.525-1.507,2.652,2.684,5.51-8.638,1.808,1.153Z" transform="translate(-956.32 -180.615)" fill="#33a344"/>
      <path id="Path_5868" data-name="Path 5868" d="M969.491,199.322a11.869,11.869,0,1,1,11.869-11.868A11.882,11.882,0,0,1,969.491,199.322Zm0-22.125a10.257,10.257,0,1,0,10.257,10.257A10.268,10.268,0,0,0,969.491,177.2Z" transform="translate(-951.049 -175.585)" fill="#33a344"/>
      <g id="Group_5252" data-name="Group 5252" transform="translate(0 4.126)">
        <g id="Group_5250" data-name="Group 5250" transform="translate(0 0)">
          <rect id="Rectangle_2074" data-name="Rectangle 2074" width="3.525" height="0.537" transform="translate(0 7.474)" fill="#33a344"/>
          <rect id="Rectangle_2075" data-name="Rectangle 2075" width="0.537" height="3.525" transform="matrix(0.707, -0.707, 0.707, 0.707, 1.924, 0.38)" fill="#33a344"/>
          <rect id="Rectangle_2076" data-name="Rectangle 2076" width="3.525" height="0.537" transform="translate(1.924 14.988) rotate(-45)" fill="#33a344"/>
        </g>
        <g id="Group_5251" data-name="Group 5251" transform="translate(32.09 0)">
          <rect id="Rectangle_2077" data-name="Rectangle 2077" width="3.525" height="0.537" transform="translate(1.271 7.474)" fill="#33a344"/>
          <rect id="Rectangle_2078" data-name="Rectangle 2078" width="3.525" height="0.537" transform="translate(0 2.493) rotate(-45)" fill="#33a344"/>
          <rect id="Rectangle_2079" data-name="Rectangle 2079" width="0.537" height="3.525" transform="matrix(0.707, -0.707, 0.707, 0.707, 0, 12.875)" fill="#33a344"/>
        </g>
      </g>
    </g>
    <g id="Group_5334" data-name="Group 5334" transform="translate(128.611 221.723)">
      <path id="Path_5998" data-name="Path 5998" d="M1144.9,286.975s2.948-10.58,5.3-14.173a48.123,48.123,0,0,1,6.742-7.54S1156.839,281.574,1144.9,286.975Z" transform="translate(-1131.58 -255.888)" fill="#4fbbc4"/>
      <path id="Path_5999" data-name="Path 5999" d="M1145.565,297.084a50.668,50.668,0,0,0,2.687-5.126,35.85,35.85,0,0,1,1.464-5.564.028.028,0,0,1,.052.019c-.391,1.672-.846,3.328-1.26,4.995,1.19-2.575,2.321-5.183,3.738-7.617a16.253,16.253,0,0,1,1.366-3.385c.015-.031.067-.014.052.019a21.667,21.667,0,0,0-.92,2.54,25.334,25.334,0,0,1,2.24-3.094c.052-.06.155.006.1.072a37.255,37.255,0,0,0-4.448,7.955,42.294,42.294,0,0,0,3.7-4.623.016.016,0,0,1,.026.018,37.967,37.967,0,0,1-3.961,5.135c-.907,2.041-1.8,4.09-2.881,6.031a34.972,34.972,0,0,0,5.469-6.471.049.049,0,0,1,.081.056,26.881,26.881,0,0,1-5.719,6.713,26.257,26.257,0,0,1-1.582,2.472A.126.126,0,0,1,1145.565,297.084Z" transform="translate(-1132.036 -266.177)" fill="#263238"/>
      <path id="Path_6000" data-name="Path 6000" d="M1133.876,265.468s5.3-9.756,3.759-19.214-3.187-12.826-3.187-12.826A37.645,37.645,0,0,0,1133.876,265.468Z" transform="translate(-1121.473 -233.428)" fill="#4fbbc4"/>
      <g id="Group_5319" data-name="Group 5319" transform="translate(10.182 4.644)">
        <path id="Path_6001" data-name="Path 6001" d="M1134.3,261.258a46.187,46.187,0,0,0,2.045,7.877c.015-3.471.081-6.943.174-10.413a26.846,26.846,0,0,1-1-6.464c0-.064.094-.06.1,0a36.868,36.868,0,0,0,.928,5.562q.121-4.3.28-8.588a.037.037,0,0,1,.075,0c0,4.473,0,8.946-.03,13.419a35.784,35.784,0,0,0,1.527-5.314.016.016,0,0,1,.031,0,20.8,20.8,0,0,1-1.564,6.047c-.021,2.859-.052,5.719-.115,8.577a45.116,45.116,0,0,0,2.113-9.2.034.034,0,0,1,.067,0,34.276,34.276,0,0,1-2.152,10.469.193.193,0,0,1-.059.084q-.04,1.567-.091,3.134a.116.116,0,0,1-.233,0q-.062-3.206-.052-6.414a28.727,28.727,0,0,1-2.089-8.781C1134.248,261.237,1134.293,261.231,1134.3,261.258Z" transform="translate(-1134.251 -249.198)" fill="#263238"/>
        <path id="Path_6002" data-name="Path 6002" d="M1135.362,284.927a18.235,18.235,0,0,1,.37,2.577c0,.029-.043.033-.051.006a18.3,18.3,0,0,1-.436-2.569C1135.238,284.874,1135.349,284.862,1135.362,284.927Z" transform="translate(-1134.953 -274.376)" fill="#263238"/>
        <path id="Path_6003" data-name="Path 6003" d="M1145.472,260.769c0-.029.05-.02.05.008a6.607,6.607,0,0,1-.266,1.778c-.013.047-.081.025-.072-.021C1145.3,261.946,1145.372,261.357,1145.472,260.769Z" transform="translate(-1141.965 -257.349)" fill="#263238"/>
      </g>
      <path id="Path_6004" data-name="Path 6004" d="M1110.143,289.938s.216-10.183-2.706-15.245a21.951,21.951,0,0,0-7.767-7.641S1101.625,285,1110.143,289.938Z" transform="translate(-1099.671 -257.151)" fill="#4fbbc4"/>
      <g id="Group_5321" data-name="Group 5321" transform="translate(1.713 13.551)">
        <path id="Path_6005" data-name="Path 6005" d="M1111.549,289.974a37.844,37.844,0,0,0,3.953,5.011q-.874-3.123-2.022-6.141a17.18,17.18,0,0,1-4.267-4.889.028.028,0,0,1,.048-.028,20.48,20.48,0,0,0,4.045,4.472,78.805,78.805,0,0,0-4.066-8.855.065.065,0,0,1,.112-.065,48.433,48.433,0,0,1,2.55,4.648c-.274-1.089-.492-2.2-.773-3.282a.024.024,0,0,1,.046-.013,18.45,18.45,0,0,1,1.2,4.319,51.838,51.838,0,0,1,2.572,6.968c-.075-1.526-.171-3.046-.328-4.569,0-.029.045-.035.051-.007a24.715,24.715,0,0,1,.443,5.129q.632,2.277,1.06,4.6c.008.042-.054.06-.064.018-.158-.649-.331-1.292-.507-1.933-.011,0-.023,0-.033-.013a20.686,20.686,0,0,1-4.033-5.36A.009.009,0,0,1,1111.549,289.974Z" transform="translate(-1108.114 -279.447)" fill="#263238"/>
        <path id="Path_6006" data-name="Path 6006" d="M1105.537,287.037c.325.352.624.721.938,1.083a8.259,8.259,0,0,1,.841.982.017.017,0,0,1-.023.023,4.965,4.965,0,0,1-.971-.959,8.208,8.208,0,0,1-.832-1.094A.03.03,0,0,1,1105.537,287.037Z" transform="translate(-1105.486 -284.796)" fill="#263238"/>
      </g>
      <g id="Group_5324" data-name="Group 5324" transform="translate(6.517 31.544)">
        <path id="Path_6007" data-name="Path 6007" d="M1134.437,340.549l-.368,4.824-1.11,14.581h-9.677l-1.11-14.581-.369-4.824h12.633Z" transform="translate(-1121.804 -340.549)" fill="#455a64"/>
        <path id="Path_6008" data-name="Path 6008" d="M1134.437,340.549l-.368,4.824h-11.9l-.369-4.824h12.633Z" transform="translate(-1121.804 -340.549)" fill="#37474f"/>
      </g>
      <rect id="Rectangle_2081" data-name="Rectangle 2081" width="14.353" height="3.698" transform="translate(20.01 32.875) rotate(180)" fill="#455a64"/>
    </g>
    <text id="Caption" transform="translate(85.138 215.751)" fill="#0e9823" font-size="5" font-family="Overpass-SemiBold, Overpass" font-weight="600" letter-spacing="0.008em"><tspan x="0" y="0">Congratulations!</tspan></text>
    <text id="Caption-2" data-name="Caption" transform="translate(103.775 228.256)" fill="#5e6066" font-size="3" font-family="Overpass-Regular, Overpass" letter-spacing="0.008em"><tspan x="-13" y="0">You are eligible for </tspan><tspan x="-10" y="5">credit line upto</tspan></text>
    <g id="Group_5333" data-name="Group 5333" transform="translate(40.135 209.537)">
      <line id="Line_198" data-name="Line 198" x1="0.141" transform="translate(28.858 47.38)" fill="none"/>
      <g id="Group_5260" data-name="Group 5260" transform="translate(24.388 38.217)">
        <g id="Group_5259" data-name="Group 5259" transform="translate(0 0)">
          <path id="Path_5926" data-name="Path 5926" d="M870.1,349.735l.586,3.516,3.972,21.451h.64l-2.888-21.451-.427-3.516Z" transform="translate(-870.104 -349.735)" fill="#dbdbdb"/>
        </g>
      </g>
      <path id="Path_5927" data-name="Path 5927" d="M871.988,349.735H870.1l.586,3.516h1.724Z" transform="translate(-845.716 -311.518)" fill="#a6a6a6"/>
      <g id="Group_5263" data-name="Group 5263" transform="translate(11.914 38.217)">
        <g id="Group_5262" data-name="Group 5262" transform="translate(0 0)">
          <path id="Path_5928" data-name="Path 5928" d="M819.619,374.7h.64l3.972-21.451.586-3.516h-1.884l-.427,3.516Z" transform="translate(-819.619 -349.735)" fill="#dbdbdb"/>
        </g>
      </g>
      <path id="Path_5929" data-name="Path 5929" d="M831.737,349.735l-.427,3.516h1.724l.586-3.516Z" transform="translate(-816.507 -311.518)" fill="#a6a6a6"/>
      <g id="Group_5266" data-name="Group 5266" transform="translate(0 38.217)">
        <g id="Group_5265" data-name="Group 5265" transform="translate(0 0)">
          <path id="Path_5930" data-name="Path 5930" d="M771.4,374.7h.64l3.972-21.451.586-3.516h-1.883l-.427,3.516Z" transform="translate(-771.399 -349.735)" fill="#dbdbdb"/>
        </g>
      </g>
      <path id="Path_5931" data-name="Path 5931" d="M783.089,353.251h1.724l.586-3.516h-1.883Z" transform="translate(-780.201 -311.518)" fill="#a6a6a6"/>
      <path id="Path_5932" data-name="Path 5932" d="M775.509,298.4h29.107v-3.067h-10.9l-3.662-15.973H776.618Z" transform="translate(-774.493 -258.534)" fill="#dbdbdb"/>
      <path id="Path_5933" data-name="Path 5933" d="M775.509,298.4H777.1l1.034-19.04h-1.511Z" transform="translate(-774.493 -258.534)" fill="#a6a6a6"/>
      <path id="Path_5934" data-name="Path 5934" d="M851.881,410.679c-.548.187-16.685.191-17.284-.188-.072-.043-.067-2.006-.114-3.5-.073-2.283,2.984-12.45,2.984-12.45l10.013.488-2.792,10.247s2.306,1.022,4.209,1.916c0,0,0,0,0,0a22.786,22.786,0,0,1,2.426,1.236C851.939,408.918,852.43,410.5,851.881,410.679Z" transform="translate(-818.895 -345.254)" fill="#ffbe9d"/>
      <path id="Path_5935" data-name="Path 5935" d="M851.885,448.618c-.548.187-16.685.191-17.284-.188a26.871,26.871,0,0,1-.114-3.5c4,.827,14.647,2.1,14.946,1.262.118-.335-.141-.711-.526-1.056a22.752,22.752,0,0,1,2.426,1.236C851.943,446.856,852.433,448.434,851.885,448.618Z" transform="translate(-818.899 -383.194)" fill="#344d68"/>
      <path id="Path_5936" data-name="Path 5936" d="M801.591,299.745c1.975,1.965,10.442,6.017,11.086,7.438.567,1.253-3.352,14.743-3.352,14.743l9.69,1.852s5.817-15.78,4.337-20.653c-1.374-4.522-16.859-13.368-16.859-13.368h-6.216S797.7,295.877,801.591,299.745Z" transform="translate(-792.512 -266.36)" fill="#ffbe9d"/>
      <path id="Path_5937" data-name="Path 5937" d="M821.268,300.194c-3.567,1.278-8.462,3.364-11.948,4.475-2.8-1.7-6.508-3.711-7.73-4.928-3.893-3.867-1.316-9.988-1.316-9.988h6.217S816.691,295.58,821.268,300.194Z" transform="translate(-792.51 -266.357)" fill="#344d68" opacity="0.1"/>
      <path id="Path_5938" data-name="Path 5938" d="M923.823,393.389c-.568.112-16.56-2.05-17.1-2.506a26.876,26.876,0,0,1,.356-3.484l-2.834-12.08,10.532,1.293,3.314,10.377a25.432,25.432,0,0,0,3.246,2.544s0,0,0,.005a22.74,22.74,0,0,1,2.238,1.55C924.117,391.651,924.391,393.28,923.823,393.389Z" transform="translate(-871.42 -330.782)" fill="#ffbe9d"/>
      <path id="Path_5939" data-name="Path 5939" d="M931.329,430.2c-.568.112-16.56-2.05-17.1-2.506a26.88,26.88,0,0,1,.356-3.484c3.852,1.356,14.233,4.049,14.642,3.256.162-.316-.044-.724-.38-1.117a22.713,22.713,0,0,1,2.238,1.55C931.623,428.461,931.9,430.091,931.329,430.2Z" transform="translate(-878.926 -367.592)" fill="#344d68"/>
      <path id="Path_5940" data-name="Path 5940" d="M836.3,319.089l-10.39,1.818-4.3-13.134c.129-4.483-.53-6.108-3.052-6.889-4.292-1.33-14.783,3.581-19.533.286-3.857-2.676-.78-11.423-.78-11.423H809.4a10.17,10.17,0,0,1,1.595,2.6s13.813-1.064,16.9,2.855C832.041,300.457,836.3,319.089,836.3,319.089Z" transform="translate(-790.74 -266.352)" fill="#ffbe9d"/>
      <path id="Path_5941" data-name="Path 5941" d="M863.615,334.34s3.938-.69,5.821.211c1.693.81,2.4,1.974,2.268,6.607" transform="translate(-840.83 -299.737)" fill="none" stroke="#263238" stroke-width="1"/>
      <path id="Path_5942" data-name="Path 5942" d="M797.682,289.747s-3.034,7.922,0,10.84,6.6,2.413,15.1.589c0,0,4.346-5.5,6.928-6.622a15.136,15.136,0,0,1,4.936-1.207s-4.94-1.6-14.155-1.263a8.8,8.8,0,0,0-1.653-2.338Z" transform="translate(-790.172 -266.352)" fill="#455a64"/>
      <path id="Path_5943" data-name="Path 5943" d="M807.639,212.614a9.649,9.649,0,0,1-1.856,1.154c1.007-1.7.854-5.539.732-4.991-.589,2.618-2.236,5.485-2.862,5.626l-.011,0a7.227,7.227,0,0,1-4.485-.948.019.019,0,0,1,0-.009c1.3-1.922,1.246-5.826,1.158-5.588-.953,2.546-2.924,4.034-3.264,4.03h0c-1.264-1.209-1.934-2.416-1.753-2.538,1.311-.891,2.427-3.188,3.435-5.616v0c1-2.394,1.5-4.671,2.9-6.808a3.941,3.941,0,0,1,5.291-1.326C810.727,198.223,808.45,211.979,807.639,212.614Z" transform="translate(-789.373 -195.062)" fill="#263238"/>
      <path id="Path_5944" data-name="Path 5944" d="M802.187,197.657a4.464,4.464,0,0,0-2.473,2.108,40.567,40.567,0,0,0-1.824,3.786A26.361,26.361,0,0,1,793.3,210.3a.046.046,0,0,0,.063.068,16.767,16.767,0,0,0,4.6-6.026c.587-1.162,1.048-2.379,1.6-3.555a7.894,7.894,0,0,1,1.123-1.807,4.874,4.874,0,0,1,1.573-1.146A.1.1,0,0,0,802.187,197.657Z" transform="translate(-787.876 -197.013)" fill="#263238"/>
      <g id="Group_5277" data-name="Group 5277" transform="translate(25.798 4.478)">
        <path id="Path_5945" data-name="Path 5945" d="M878.535,213.485l-2.682,6.593a.247.247,0,0,0,.174.4l3.527.5a.576.576,0,0,0,.54-.295l2.682-6.593a.247.247,0,0,0-.174-.4l-3.527-.5A.576.576,0,0,0,878.535,213.485Z" transform="translate(-875.809 -213.186)" fill="#37474f"/>
        <path id="Path_5946" data-name="Path 5946" d="M880.232,213.708,877.55,220.3a.247.247,0,0,0,.174.4l3.527.5a.577.577,0,0,0,.54-.295l2.682-6.593a.247.247,0,0,0-.174-.4l-3.527-.5A.576.576,0,0,0,880.232,213.708Z" transform="translate(-877.087 -213.354)" fill="#455a64"/>
        <path id="Path_5947" data-name="Path 5947" d="M890.443,215.359a.3.3,0,1,1-.25-.347A.3.3,0,0,1,890.443,215.359Z" transform="translate(-886.374 -214.558)" fill="#263238"/>
      </g>
      <path id="Path_5948" data-name="Path 5948" d="M833.993,239.535c1.359,4.543,5.01,10.724,6.859,11.025.879.143,2.421.589,3.728-.251a18.54,18.54,0,0,0,6.384-8.1c.281-.837-3.625-3.326-4.348-2.718-1.692,1.424-3.855,4.391-4.109,4.334-.937-.214-4.182-3.853-6.444-6.413C833.318,234.308,833.451,237.724,833.993,239.535Z" transform="translate(-818.291 -226.005)" fill="#ffbe9d"/>
      <path id="Path_5949" data-name="Path 5949" d="M899.288,226.884c-.182-1.813-.507-2.25.152-3.861.432-1.057-.057-1.787-.967-1.023a5.531,5.531,0,0,0-1.595,4.491Z" transform="translate(-865.847 -215.106)" fill="#ffbe9d"/>
      <g id="Group_5278" data-name="Group 5278" transform="translate(26.829 5.999)">
        <path id="Path_5950" data-name="Path 5950" d="M885.512,230.268A11.647,11.647,0,0,0,886.653,226a7.081,7.081,0,0,0-3.8-6.325c-.823-.484-2.34-.59-1.282.689.751.908,1.5,1.258,1.843,1.866,0,0-1.945.094-2.4.937a17.643,17.643,0,0,0-1.026,2.289,3.734,3.734,0,0,0,.411.23,2.862,2.862,0,0,0,.048,2.094Z" transform="translate(-879.985 -219.34)" fill="#ffbe9d"/>
      </g>
      <path id="Path_5951" data-name="Path 5951" d="M881.88,230.744a10.6,10.6,0,0,0-2.611-2.266c-1.265-.692-3.889-1.683-4.39-.744-.367.689.6,1.155.6,1.155s-1.171-.181-1.366.513c-.178.633.592.949.592.949s-.729.012-.783.655c-.065.773,1.473.621,2.084,1.461C876.144,232.657,881.88,230.744,881.88,230.744Z" transform="translate(-848.591 -219.372)" fill="#ffbe9d"/>
      <g id="Group_5279" data-name="Group 5279" transform="translate(26.884 9.5)">
        <path id="Path_5952" data-name="Path 5952" d="M883.494,234.575a5.744,5.744,0,0,0-3.255-1.063c-.03,0-.045.023-.018.029a14.138,14.138,0,0,1,3.266,1.047C883.494,234.591,883.5,234.58,883.494,234.575Z" transform="translate(-880.206 -233.511)" fill="#263238"/>
      </g>
      <g id="Group_5280" data-name="Group 5280" transform="translate(26.092 10.947)">
        <path id="Path_5953" data-name="Path 5953" d="M880.346,240.241a6.449,6.449,0,0,0-3.313-.867c-.029,0-.043.026-.016.03a15.156,15.156,0,0,1,3.323.85C880.347,240.257,880.352,240.245,880.346,240.241Z" transform="translate(-877.002 -239.367)" fill="#263238"/>
      </g>
      <path id="Path_5954" data-name="Path 5954" d="M849.919,243.973s-4.448,6.256-6.557,6.742a6.9,6.9,0,0,1-4-.091,2.024,2.024,0,0,1-.727-.5c-1.795-1.735-4.631-7.349-5.663-10.419-.774-2.308-.361-4.23,1.206-3.357a5.64,5.64,0,0,1,1.386,1.21,46.227,46.227,0,0,0,6.03,5.923c.181-.061,2.356-2.58,2.356-2.58Z" transform="translate(-817.471 -225.987)" fill="#4fbbc4"/>
      <path id="Path_5955" data-name="Path 5955" d="M881.961,263.108c-.208-.16-2.233-1.32-2.678-1.562s-2.256-1.251-2.736-1.463a.018.018,0,0,0-.018.032c.431.3,2.255,1.319,2.7,1.576s2.476,1.359,2.715,1.449C881.968,263.147,881.975,263.119,881.961,263.108Z" transform="translate(-850.547 -244.016)" fill="#263238"/>
      <path id="Path_5956" data-name="Path 5956" d="M844.86,249.824a4.045,4.045,0,0,1-1.5.894,6.894,6.894,0,0,1-4-.091,1.976,1.976,0,0,1-.729-.5c-1.794-1.734-4.63-7.348-5.663-10.419-.7-2.093-.428-3.867.8-3.528C836.558,239.6,841.868,246.135,844.86,249.824Z" transform="translate(-817.47 -225.991)" opacity="0.1"/>
      <path id="Path_5957" data-name="Path 5957" d="M809.378,244.16l.461,4.657-13.893.277s3.222-11.7,5.74-14.3c1.7-1.754,3.644-1.567,4.849-.278.3.326,3.479,4.193,3.823,6.092A5.71,5.71,0,0,1,809.378,244.16Z" transform="translate(-789.881 -224.016)" fill="#4fbbc4"/>
      <g id="Group_5285" data-name="Group 5285" transform="translate(14.241 19.598)">
        <path id="Path_5958" data-name="Path 5958" d="M832.667,274.379a12.46,12.46,0,0,0-1.825.242c-.3.066-.591.147-.884.233-.146.043-.293.081-.44.119a1.964,1.964,0,0,1-.471.073.011.011,0,0,0,0,.022,3.346,3.346,0,0,0,.451.006,3.2,3.2,0,0,0,.432-.067c.3-.064.6-.143.905-.211.61-.136,1.22-.273,1.838-.365C832.7,274.425,832.7,274.377,832.667,274.379Z" transform="translate(-829.037 -274.379)" fill="#263238"/>
        <path id="Path_5959" data-name="Path 5959" d="M840.75,276.155a8.473,8.473,0,0,0-1.2-.108,5.632,5.632,0,0,0-.6.027c-.1.009-.192.02-.288.033s-.21.045-.315.057c-.011,0-.012.023,0,.022.1-.007.2.006.3.006h.3c.2,0,.4,0,.6,0,.4-.005.8-.006,1.2.006C840.771,276.2,840.771,276.159,840.75,276.155Z" transform="translate(-836.039 -275.635)" fill="#263238"/>
      </g>
      <g id="Group_5288" data-name="Group 5288" transform="translate(2 9.799)">
        <path id="Path_5960" data-name="Path 5960" d="M789.7,235.067c-4.9,2.488-10.529,8.107-10.2,9.977.367,2.083,7.411-1.436,7.339-1.749-.061-.266,1.419-2.5,3.535-5.707C792.532,234.329,790.917,234.451,789.7,235.067Z" transform="translate(-779.492 -234.722)" fill="#4fbbc4"/>
      </g>
      <path id="Path_5961" data-name="Path 5961" d="M779.509,269.948c.43,1.454,2.6,2.429,7.828,5.394.724.41,4.994-3.918,4.244-4.4-.945-.6-4.743-2.734-5.04-2.855C784.033,267.073,779.218,268.961,779.509,269.948Z" transform="translate(-777.496 -249.827)" fill="#d3766a"/>
      <path id="Path_5962" data-name="Path 5962" d="M808.075,277.991a17.459,17.459,0,0,1,3.246,2.121,8.929,8.929,0,0,1,2.165,3.686c.451,1.494.507,5.418-.62,5.631-1.02.193-.875-3.821-.875-3.821s.527,4.117-.744,4.123-.838-4.643-.838-4.643.447,4.242-.865,4.041c-.991-.151-.836-4.385-.836-4.385s.359,3.649-.668,3.537c-1.134-.124-1.236-4.04-1.236-4.04a5.832,5.832,0,0,1-4.024-3.185C802.648,280.8,808.075,277.991,808.075,277.991Z" transform="translate(-795.024 -257.501)" fill="#ffbe9d"/>
      <g id="Group_5289" data-name="Group 5289" transform="translate(13.557 26.574)">
        <path id="Path_5963" data-name="Path 5963" d="M839.643,302.986c.079.481.163.968.2,1.455s.056.975.047,1.463a8.322,8.322,0,0,1-.216,1.9,17.978,17.978,0,0,0,.035-3.353c-.036-.486-.048-.973-.084-1.46C839.624,302.974,839.641,302.974,839.643,302.986Z" transform="translate(-836.325 -302.887)" fill="#263238"/>
        <path id="Path_5964" data-name="Path 5964" d="M832.531,303.393c.075.619.172,1.231.219,1.853s.038,1.211.042,1.833c0,.048-.025.032-.028-.016-.029-.62-.1-1.192-.141-1.812s-.049-1.242-.108-1.858C832.515,303.384,832.53,303.384,832.531,303.393Z" transform="translate(-830.972 -303.196)" fill="#263238"/>
        <path id="Path_5965" data-name="Path 5965" d="M826.3,302.625a13.941,13.941,0,0,1,.119,2.859c0,.047-.033.024-.034-.025-.022-.951-.032-1.7-.118-2.829C826.267,302.613,826.3,302.606,826.3,302.625Z" transform="translate(-826.268 -302.614)" fill="#263238"/>
      </g>
      <path id="Path_5966" data-name="Path 5966" d="M791.7,270.41s-6.022,4.587-6.086,4.563-5.979-3.5-6.074-5.057,4.8-2.728,7.027-1.867S791.7,270.41,791.7,270.41Z" transform="translate(-777.531 -249.795)" fill="#4fbbc4"/>
      <path id="Path_5967" data-name="Path 5967" d="M805.218,275.8c-.236.142-2.137,1.673-2.543,2.015s-2.079,1.723-2.468,2.109a.019.019,0,0,0,.024.03c.454-.307,2.145-1.7,2.566-2.035s2.268-1.9,2.447-2.094C805.259,275.806,805.234,275.788,805.218,275.8Z" transform="translate(-793.084 -255.847)" fill="#263238"/>
      <g id="Group_5294" data-name="Group 5294" transform="translate(6.344 13.456)">
        <path id="Path_5968" data-name="Path 5968" d="M797.126,267.79a5.545,5.545,0,0,1,3.093.378c.013.006.007.023-.007.018a9.479,9.479,0,0,0-3.082-.378C797.117,267.809,797.113,267.792,797.126,267.79Z" transform="translate(-797.108 -263.224)" fill="#263238"/>
        <g id="Group_5293" data-name="Group 5293" transform="translate(3.024 0)">
          <path id="Path_5969" data-name="Path 5969" d="M813.75,256.963l.372-.283a51.15,51.15,0,0,0-4.8-2.311,46.276,46.276,0,0,1,3-4.847" transform="translate(-809.317 -249.521)" fill="none" stroke="#263238" stroke-width="0.75"/>
          <path id="Path_5970" data-name="Path 5970" d="M816.564,253.707c.038-.016,1-.991,1-.991" transform="translate(-814.773 -251.927)" fill="none" stroke="#263238" stroke-width="0.5"/>
        </g>
        <path id="Path_5971" data-name="Path 5971" d="M797.077,292.595s1.031.663,1.387.871" transform="translate(-797.077 -281.952)" fill="none" stroke="#263238" stroke-width="0.5"/>
      </g>
      <path id="Path_5972" data-name="Path 5972" d="M827.7,223.937c.065.366.931,2.025,2.047,1.988.573-.019.585-2.028.585-2.028l.028-.148.4-2.067-2.815-1.667S827.681,223.833,827.7,223.937Z" transform="translate(-813.789 -213.85)" fill="#ffbe9d"/>
      <path id="Path_5973" data-name="Path 5973" d="M828.293,221.439a4.227,4.227,0,0,0,2.515,2.309l.4-2.067-2.816-1.667S828.343,220.666,828.293,221.439Z" transform="translate(-814.236 -213.848)" fill="#9b674d"/>
      <path id="Path_5974" data-name="Path 5974" d="M831.425,200.847c.323,3.68-1.844,4.289-2.638,4.357-.72.063-3.181.184-3.883-3.443s.907-4.94,2.547-5.17S831.1,197.167,831.425,200.847Z" transform="translate(-811.557 -196.186)" fill="#ffbe9d"/>
      <g id="Group_5307" data-name="Group 5307" transform="translate(12.747 0)">
        <g id="Group_5306" data-name="Group 5306" transform="translate(0 0)">
          <path id="Path_5987" data-name="Path 5987" d="M823.8,200.535c.688.1.891-1.478.891-1.478s2.946-.449,3.235-2.837a4.046,4.046,0,0,0,2,2.249s-.059-2.624-2.129-3.168c0,0-2.564-.982-4.049,1.041S823.336,200.468,823.8,200.535Z" transform="translate(-822.992 -195.062)" fill="#263238"/>
        </g>
        <path id="Path_5988" data-name="Path 5988" d="M834.875,199.033a2.6,2.6,0,0,1-.149,1.09,2.712,2.712,0,0,1-.571.957,2.326,2.326,0,0,1-.2.2l-.1.095c-.037.029-.075.055-.114.082-.077.053-.152.109-.231.158s-.165.087-.248.128c-.042.02-.082.043-.125.062l-.13.048-.26.095c-.178.046-.358.084-.537.118.17-.071.344-.123.51-.195l.245-.114.122-.057c.039-.021.077-.046.115-.07.076-.047.152-.094.229-.138s.142-.107.213-.16l.106-.08.1-.092a2.254,2.254,0,0,0,.188-.187,3.111,3.111,0,0,0,.575-.89,3.243,3.243,0,0,0,.173-.509A3.148,3.148,0,0,0,834.875,199.033Z" transform="translate(-829.929 -198.052)" fill="#263238"/>
      </g>
      <path id="Path_5989" data-name="Path 5989" d="M823.371,213.907s-.807-1.152-1.33-.864.085,1.959.7,2.187a.624.624,0,0,0,.837-.337Z" transform="translate(-809.379 -208.565)" fill="#ffbe9d"/>
      <path id="Path_5990" data-name="Path 5990" d="M823.373,215.1a.009.009,0,0,0,0,.017,1.578,1.578,0,0,1,.817.987.345.345,0,0,0-.516-.094c-.011.008,0,.026.012.023a.384.384,0,0,1,.423.134,1.856,1.856,0,0,1,.2.342c.02.038.09.018.075-.027l0-.01C824.39,215.927,823.962,215.159,823.373,215.1Z" transform="translate(-810.525 -210.152)" fill="#895940"/>
      <g id="Group_5309" data-name="Group 5309" transform="translate(13.426 6.327)">
        <path id="Path_5991" data-name="Path 5991" d="M825.742,220.869a.159.159,0,1,0,.112-.195A.158.158,0,0,0,825.742,220.869Z" transform="translate(-825.736 -220.668)" fill="#455a64"/>
        <path id="Path_5992" data-name="Path 5992" d="M826.077,221.1a.075.075,0,1,0,.053-.092A.075.075,0,0,0,826.077,221.1Z" transform="translate(-825.991 -220.923)" fill="#263238"/>
      </g>
      <path id="Path_5993" data-name="Path 5993" d="M824.623,220.266a.112.112,0,1,0,.079-.138A.112.112,0,0,0,824.623,220.266Z" transform="translate(-811.47 -213.932)" fill="#455a64"/>
      <path id="Path_5994" data-name="Path 5994" d="M820.058,234.241s1.808,2.823,3.852,2.784c1.623-.031,1.744-1.949,1.744-1.949a3.973,3.973,0,0,0-3-1.575A4.425,4.425,0,0,0,820.058,234.241Z" transform="translate(-808.035 -223.999)" fill="#ffbe9d"/>
      <path id="Path_6009" data-name="Path 6009" d="M2291.284,16274.259l7.192-2.819-9.294,1.681Z" transform="translate(-2275.716 -16236.756)" fill="#455a64"/>
    </g>
    <rect id="States_Light_Primary_Container_100_Overlay" data-name="States/Light 🌕/Primary Container 100%/Overlay" width="31.005" height="7.516" rx="3.758" transform="translate(88.715 243.004)" fill="#004097"/>
    <text id="Caption-3" data-name="Caption" transform="translate(104.989 247.944)" fill="#fdfdfd" font-size="4" font-family="Overpass-Regular, Overpass" letter-spacing="0.008em"><tspan x="-5" y="0">DONE</tspan></text>
    <g id="Group_5331" data-name="Group 5331" transform="translate(80.633 163.851)">
      <path id="Path_5820" data-name="Path 5820" d="M924.5,70.039l-.085.084-.048.048a1.15,1.15,0,0,0-1.629,0l-.046-.048-.083-.084h0v0l.006-.005c.035-.032.07-.064.107-.095a1.239,1.239,0,0,1,.247-.157,1.255,1.255,0,0,1,.327-.11c.054-.01.109-.015.164-.022.019,0,.14,0,.143,0,.037,0,.075,0,.112.008a1.266,1.266,0,0,1,.3.072,1.33,1.33,0,0,1,.2.1,1.292,1.292,0,0,1,.194.136c.03.026.06.054.089.081Z" transform="translate(-916.262 -69.646)" fill="#c6c7c7"/>
      <path id="Path_5821" data-name="Path 5821" d="M923.666,71.363l-.134-.133a.942.942,0,0,1,.543-.273.954.954,0,0,1,.818.271l-.134.134a.773.773,0,0,0-1.093,0Z" transform="translate(-916.918 -70.572)" fill="#c6c7c7"/>
      <path id="Path_5822" data-name="Path 5822" d="M925.285,72.423l-.133.133a.395.395,0,0,0-.56,0l-.133-.133A.58.58,0,0,1,925.285,72.423Z" transform="translate(-917.577 -71.499)" fill="#c6c7c7"/>
      <path id="Path_5823" data-name="Path 5823" d="M925.713,73.43a.12.12,0,1,1-.12-.12A.12.12,0,0,1,925.713,73.43Z" transform="translate(-918.298 -72.252)" fill="#c6c7c7"/>
      <path id="Path_5824" data-name="Path 5824" d="M900.624,71.036a.348.348,0,1,1,.348.348A.348.348,0,0,1,900.624,71.036Z" transform="translate(-900.624 -70.387)" fill="#c6c7c7"/>
      <path id="Path_5825" data-name="Path 5825" d="M904.421,71.036a.348.348,0,1,1,.348.348A.348.348,0,0,1,904.421,71.036Z" transform="translate(-903.325 -70.387)" fill="#c6c7c7"/>
      <path id="Path_5826" data-name="Path 5826" d="M908.218,71.036a.348.348,0,1,1,.348.348A.348.348,0,0,1,908.218,71.036Z" transform="translate(-906.025 -70.387)" fill="#c6c7c7"/>
      <path id="Path_5827" data-name="Path 5827" d="M912.016,71.036a.348.348,0,1,1,.348.348A.348.348,0,0,1,912.016,71.036Z" transform="translate(-908.727 -70.387)" fill="#c6c7c7"/>
      <path id="Path_5828" data-name="Path 5828" d="M915.813,71.036a.348.348,0,1,1,.348.348A.348.348,0,0,1,915.813,71.036Z" transform="translate(-911.427 -70.387)" fill="#c6c7c7"/>
      <path id="Path_5829" data-name="Path 5829" d="M1050.037,71.292H1047.2V69.979h2.833Zm-2.689-.144h2.545V70.123h-2.545Z" transform="translate(-1004.881 -69.883)" fill="#c6c7c7"/>
      <rect id="Rectangle_2072" data-name="Rectangle 2072" width="1.827" height="0.867" transform="translate(42.558 0.319)" fill="#c6c7c7"/>
      <rect id="Rectangle_2073" data-name="Rectangle 2073" width="0.252" height="0.702" transform="translate(45.158 0.401)" fill="#c6c7c7"/>
    </g>
  </g>
</svg>
