<svg id="Bank" xmlns="http://www.w3.org/2000/svg" width="20.413" height="20.427" viewBox="0 0 20.413 20.427">
  <path id="Path_6256" data-name="Path 6256" d="M11.52,30.048v4.7a1.056,1.056,0,0,1,.7.993v.7a.352.352,0,0,1-.352.352H8.352A.352.352,0,0,1,8,36.447v-.7a1.056,1.056,0,0,1,.7-.993v-4.7a1.056,1.056,0,0,1-.7-.993v-.7A.352.352,0,0,1,8.352,28h3.52a.352.352,0,0,1,.352.352v.7a1.056,1.056,0,0,1-.7.993Z" transform="translate(-6.24 -19.188)" fill="#96a1c3"/>
  <path id="Path_6257" data-name="Path 6257" d="M14.109,30.048v4.7a1.056,1.056,0,0,1,.7.993v.7a.352.352,0,0,1-.352.352H12a.077.077,0,0,1,0-.028v-.76a1.147,1.147,0,0,1,.7-1.056V29.862a1.147,1.147,0,0,1-.7-1.073v-.76A.077.077,0,0,1,12,28h2.464a.352.352,0,0,1,.352.352v.7A1.056,1.056,0,0,1,14.109,30.048Z" transform="translate(-8.83 -19.188)" fill="#ccd3eb"/>
  <path id="Path_6258" data-name="Path 6258" d="M29.52,30.048v4.7a1.056,1.056,0,0,1,.7.993v.7a.352.352,0,0,1-.352.352h-3.52A.352.352,0,0,1,26,36.447v-.7a1.056,1.056,0,0,1,.7-.993v-4.7a1.056,1.056,0,0,1-.7-.993v-.7A.352.352,0,0,1,26.352,28h3.52a.352.352,0,0,1,.352.352v.7A1.056,1.056,0,0,1,29.52,30.048Z" transform="translate(-17.905 -19.188)" fill="#96a1c3"/>
  <path id="Path_6259" data-name="Path 6259" d="M32.109,30.048v4.7a1.056,1.056,0,0,1,.7.993v.7a.352.352,0,0,1-.352.352H30a.077.077,0,0,1,0-.028v-.76a1.147,1.147,0,0,1,.7-1.056V29.862a1.147,1.147,0,0,1-.7-1.073v-.76A.077.077,0,0,1,30,28h2.464a.352.352,0,0,1,.352.352v.7A1.056,1.056,0,0,1,32.109,30.048Z" transform="translate(-20.495 -19.188)" fill="#ccd3eb"/>
  <path id="Path_6260" data-name="Path 6260" d="M47.52,30.048v4.7a1.056,1.056,0,0,1,.7.993v.7a.352.352,0,0,1-.352.352h-3.52A.352.352,0,0,1,44,36.447v-.7a1.056,1.056,0,0,1,.7-.993v-4.7a1.056,1.056,0,0,1-.7-.993v-.7A.352.352,0,0,1,44.352,28h3.52a.352.352,0,0,1,.352.352v.7A1.056,1.056,0,0,1,47.52,30.048Z" transform="translate(-29.57 -19.188)" fill="#96a1c3"/>
  <path id="Path_6261" data-name="Path 6261" d="M23.543,13.847v4.7a1.056,1.056,0,0,1,.7.993v.7a.352.352,0,0,1-.352.352H21.431a.077.077,0,0,1,0-.028v-.76a1.147,1.147,0,0,1,.7-1.056V13.661a1.147,1.147,0,0,1-.7-1.073v-.76a.077.077,0,0,1,0-.028H23.9a.352.352,0,0,1,.352.352v.7A1.056,1.056,0,0,1,23.543,13.847ZM24.6,9.687a.352.352,0,0,1-.352.352H7.353a.351.351,0,0,1-.222-.623l.1-.081,3.361-2.749,3.741-3.062a2.214,2.214,0,0,1,.507-.313,1.96,1.96,0,0,1,.373-.134,2.3,2.3,0,0,1,1.183,0,1.57,1.57,0,0,1,.257.084l.116.049a2.288,2.288,0,0,1,.4.232l.106.081,3.168,2.594,1.084.887.26.218,1.088.89,1.056.862.433.352.1.081A.352.352,0,0,1,24.6,9.687Z" transform="translate(-5.594 -2.986)" fill="#ccd3eb"/>
  <path id="Path_6262" data-name="Path 6262" d="M29.773,9.281H16.353a.351.351,0,0,1-.222-.623l.1-.081,3.361-2.749L22.481,3.46l.116.049a2.288,2.288,0,0,1,.4.232l.106.081,3.168,2.594,1.084.887.26.218,1.088.89Z" transform="translate(-11.426 -3.285)" fill="#f5f7ff"/>
  <rect id="Rectangle_2181" data-name="Rectangle 2181" width="19.709" height="3.168" rx="1.584" transform="translate(0.352 6.348)" fill="#ccd3eb"/>
  <path id="Path_6263" data-name="Path 6263" d="M29.984,8.76h-.352a.176.176,0,0,1,0-.352h.922a.352.352,0,0,0,0-.7H30.2V7.352a.352.352,0,1,0-.7,0V7.7a.882.882,0,0,0,.134,1.76h.352a.176.176,0,1,1,0,.352h-.838a.352.352,0,0,0,0,.7H29.5v.352a.352.352,0,1,0,.7,0v-.384a.876.876,0,0,0-.218-1.728Z" transform="translate(-19.644 -5.579)" fill="#f5f7ff"/>
  <path id="Path_6264" data-name="Path 6264" d="M21.653,51H4.76A1.76,1.76,0,0,0,3,52.76v1.408a.352.352,0,0,0,.352.352H23.061a.352.352,0,0,0,.352-.352V52.76A1.76,1.76,0,0,0,21.653,51Z" transform="translate(-3 -34.093)" fill="#96a1c3"/>
  <path id="Path_6265" data-name="Path 6265" d="M47.578,14.99a.352.352,0,0,1-.271.13.331.331,0,0,1-.222-.081l-.275-.225a.352.352,0,0,1,.443-.542l.26.218a.352.352,0,0,1,.063.5Z" transform="translate(-31.325 -10.254)" fill="#033c59"/>
  <path id="Path_6267" data-name="Path 6267" d="M21.653,19.869v-.352a1.056,1.056,0,0,0-.7-.993v-4.7a1.056,1.056,0,0,0,.7-.993v-.352h.352a1.056,1.056,0,0,0,1.056-1.056V10.366a1.056,1.056,0,0,0-1.056-1.056H21.78L20.291,8.1a.352.352,0,1,0-.443.542l.82.672H5.745l6.434-5.279A1.679,1.679,0,0,1,14,3.873a1.724,1.724,0,0,1,.236.158L17.4,6.622a.352.352,0,0,0,.443-.542l-3.168-2.59a1.249,1.249,0,0,0-.109-.081,1.974,1.974,0,0,0-.4-.236,2.316,2.316,0,0,0-2.436.317L7.994,6.562,4.633,9.311H4.408a1.056,1.056,0,0,0-1.056,1.056v1.056a1.056,1.056,0,0,0,1.056,1.056H4.76v.352a1.056,1.056,0,0,0,.7.993v4.7a1.056,1.056,0,0,0-.7.993v.352A1.76,1.76,0,0,0,3,21.629v1.408a.352.352,0,0,0,.352.352H23.061a.352.352,0,0,0,.352-.352V21.629A1.76,1.76,0,0,0,21.653,19.869Zm-.7-7.039a.352.352,0,0,1-.352.352H18.486a.352.352,0,0,1-.352-.352v-.352H20.95Zm-6.335,5.695v-4.7a1.056,1.056,0,0,0,.7-.993v-.352H17.43v.352a1.056,1.056,0,0,0,.7.993v4.7a1.056,1.056,0,0,0-.7.993v.352H15.318v-.352A1.056,1.056,0,0,0,14.614,18.525Zm-6.335,0v-4.7a1.056,1.056,0,0,0,.7-.993v-.352h2.112v.352a1.056,1.056,0,0,0,.7.993v4.7a1.056,1.056,0,0,0-.7.993v.352H8.983v-.352A1.056,1.056,0,0,0,8.279,18.525ZM5.816,13.182a.352.352,0,0,1-.352-.352v-.352H8.279v.352a.352.352,0,0,1-.352.352Zm1.76.7v4.575H6.168V13.886ZM11.8,19.517a.352.352,0,0,1,.352-.352h2.112a.352.352,0,0,1,.352.352v.352H11.8Zm.7-1.056V13.886h1.408v4.575Zm1.76-5.279H12.151a.352.352,0,0,1-.352-.352v-.352h2.816v.352A.352.352,0,0,1,14.262,13.182Zm3.871,6.335a.352.352,0,0,1,.352-.352H20.6a.352.352,0,0,1,.352.352v.352H18.134Zm.7-1.056V13.886h1.408v4.575ZM4.408,11.774a.352.352,0,0,1-.352-.352V10.366a.352.352,0,0,1,.352-.352h17.6a.352.352,0,0,1,.352.352v1.056a.352.352,0,0,1-.352.352Zm1.056,7.743a.352.352,0,0,1,.352-.352H7.927a.352.352,0,0,1,.352.352v.352H5.464Zm17.246,3.168H3.7V21.629A1.056,1.056,0,0,1,4.76,20.573H21.653a1.056,1.056,0,0,1,1.056,1.056Z" transform="translate(-3 -2.962)" fill="#033c59"/>
</svg>
