<svg width="24" height="24" viewBox="0 0 24 24" fill="none" xmlns="http://www.w3.org/2000/svg">
<mask id="mask0_114_1006" style="mask-type:alpha" maskUnits="userSpaceOnUse" x="0" y="0" width="24" height="24">
<rect width="24" height="24" fill="#D9D9D9"/>
</mask>
<g mask="url(#mask0_114_1006)">
<path d="M6.50007 16.5001V9.50007C6.50007 9.35841 6.54807 9.23966 6.64407 9.14383C6.74007 9.04799 6.85899 9.00007 7.00082 9.00007C7.14266 9.00007 7.26132 9.04799 7.35682 9.14383C7.45232 9.23966 7.50007 9.35841 7.50007 9.50007V16.5001C7.50007 16.6417 7.45207 16.7605 7.35607 16.8563C7.26007 16.9522 7.14116 17.0001 6.99932 17.0001C6.85749 17.0001 6.73882 16.9522 6.64332 16.8563C6.54782 16.7605 6.50007 16.6417 6.50007 16.5001ZM11.5001 16.5001V9.50007C11.5001 9.35841 11.5481 9.23966 11.6441 9.14383C11.7401 9.04799 11.859 9.00007 12.0008 9.00007C12.1427 9.00007 12.2613 9.04799 12.3568 9.14383C12.4523 9.23966 12.5001 9.35841 12.5001 9.50007V16.5001C12.5001 16.6417 12.4521 16.7605 12.3561 16.8563C12.2601 16.9522 12.1412 17.0001 11.9993 17.0001C11.8575 17.0001 11.7388 16.9522 11.6433 16.8563C11.5478 16.7605 11.5001 16.6417 11.5001 16.5001ZM4.03857 20.0001C3.89691 20.0001 3.77816 19.9521 3.68232 19.8561C3.58649 19.7601 3.53857 19.6412 3.53857 19.4993C3.53857 19.3575 3.58649 19.2388 3.68232 19.1433C3.77816 19.0478 3.89691 19.0001 4.03857 19.0001H19.9616C20.1032 19.0001 20.222 19.0481 20.3178 19.1441C20.4137 19.2401 20.4616 19.359 20.4616 19.5008C20.4616 19.6427 20.4137 19.7613 20.3178 19.8568C20.222 19.9523 20.1032 20.0001 19.9616 20.0001H4.03857ZM16.5001 16.5001V9.50007C16.5001 9.35841 16.5481 9.23966 16.6441 9.14383C16.7401 9.04799 16.859 9.00007 17.0008 9.00007C17.1427 9.00007 17.2613 9.04799 17.3568 9.14383C17.4523 9.23966 17.5001 9.35841 17.5001 9.50007V16.5001C17.5001 16.6417 17.4521 16.7605 17.3561 16.8563C17.2601 16.9522 17.1412 17.0001 16.9993 17.0001C16.8575 17.0001 16.7388 16.9522 16.6433 16.8563C16.5478 16.7605 16.5001 16.6417 16.5001 16.5001ZM20.0386 7.00007H3.91932C3.81349 7.00007 3.72357 6.96333 3.64957 6.88983C3.57557 6.81616 3.53857 6.72682 3.53857 6.62182V6.39057C3.53857 6.31357 3.55799 6.24749 3.59682 6.19232C3.63549 6.13716 3.68657 6.09232 3.75007 6.05782L11.3116 2.45007C11.5276 2.34241 11.7562 2.28857 11.9976 2.28857C12.2389 2.28857 12.4692 2.34241 12.6886 2.45007L20.2193 6.03282C20.2873 6.07766 20.3447 6.13216 20.3913 6.19632C20.4382 6.26032 20.4616 6.33316 20.4616 6.41483V6.58183C20.4616 6.70816 20.4234 6.80941 20.3471 6.88557C20.2709 6.96191 20.1681 7.00007 20.0386 7.00007ZM6.18082 6.00007H17.8193L12.2693 3.36557C12.1795 3.32707 12.0897 3.30782 12.0001 3.30782C11.9104 3.30782 11.8207 3.32707 11.7308 3.36557L6.18082 6.00007Z" fill="#1D478E"/>
</g>
</svg>
