<svg width="22" height="22" viewBox="0 0 22 22" fill="none" xmlns="http://www.w3.org/2000/svg">
<g clip-path="url(#clip0_906_18014)">
<path d="M11 0C4.93457 0 0 4.93457 0 11C0 17.0654 4.93457 22 11 22C17.0654 22 22 17.0654 22 11C22 4.93457 17.0654 0 11 0Z" fill="#161742"/>
<mask id="mask0_906_18014" style="mask-type:alpha" maskUnits="userSpaceOnUse" x="3" y="3" width="16" height="16">
<rect x="3" y="3" width="16" height="16" fill="#D9D9D9"/>
</mask>
<g mask="url(#mask0_906_18014)">
<path d="M7.33322 13.9997V9.33306C7.33322 9.23861 7.36522 9.15945 7.42922 9.09556C7.49322 9.03167 7.5725 8.99972 7.66705 8.99972C7.76161 8.99972 7.84072 9.03167 7.90439 9.09556C7.96805 9.15945 7.99989 9.23861 7.99989 9.33306V13.9997C7.99989 14.0942 7.96789 14.1733 7.90389 14.2372C7.83989 14.3011 7.76061 14.3331 7.66605 14.3331C7.5715 14.3331 7.49239 14.3011 7.42872 14.2372C7.36505 14.1733 7.33322 14.0942 7.33322 13.9997ZM10.6666 13.9997V9.33306C10.6666 9.23861 10.6986 9.15945 10.7626 9.09556C10.8266 9.03167 10.9058 8.99972 11.0004 8.99972C11.0949 8.99972 11.1741 9.03167 11.2377 9.09556C11.3014 9.15945 11.3332 9.23861 11.3332 9.33306V13.9997C11.3332 14.0942 11.3012 14.1733 11.2372 14.2372C11.1732 14.3011 11.0939 14.3331 10.9994 14.3331C10.9048 14.3331 10.8257 14.3011 10.7621 14.2372C10.6984 14.1733 10.6666 14.0942 10.6666 13.9997ZM5.69222 16.3331C5.59778 16.3331 5.51861 16.3011 5.45472 16.2371C5.39083 16.1731 5.35889 16.0938 5.35889 15.9992C5.35889 15.9047 5.39083 15.8256 5.45472 15.7619C5.51861 15.6982 5.59778 15.6664 5.69222 15.6664H16.3076C16.402 15.6664 16.4812 15.6984 16.5451 15.7624C16.6089 15.8264 16.6409 15.9057 16.6409 16.0002C16.6409 16.0948 16.6089 16.1739 16.5451 16.2376C16.4812 16.3012 16.402 16.3331 16.3076 16.3331H5.69222ZM13.9999 13.9997V9.33306C13.9999 9.23861 14.0319 9.15945 14.0959 9.09556C14.1599 9.03167 14.2392 8.99972 14.3337 8.99972C14.4283 8.99972 14.5074 9.03167 14.5711 9.09556C14.6347 9.15945 14.6666 9.23861 14.6666 9.33306V13.9997C14.6666 14.0942 14.6346 14.1733 14.5706 14.2372C14.5066 14.3011 14.4273 14.3331 14.3327 14.3331C14.2382 14.3331 14.1591 14.3011 14.0954 14.2372C14.0317 14.1733 13.9999 14.0942 13.9999 13.9997ZM16.3589 7.66639H5.61272C5.54216 7.66639 5.48222 7.64189 5.43289 7.59289C5.38355 7.54378 5.35889 7.48422 5.35889 7.41422V7.26006C5.35889 7.20872 5.37183 7.16467 5.39772 7.12789C5.4235 7.09111 5.45755 7.06122 5.49989 7.03822L10.5409 4.63306C10.6849 4.56128 10.8373 4.52539 10.9982 4.52539C11.1591 4.52539 11.3127 4.56128 11.4589 4.63306L16.4794 7.02156C16.5247 7.05145 16.5629 7.08778 16.5941 7.13056C16.6253 7.17322 16.6409 7.22178 16.6409 7.27622V7.38756C16.6409 7.47178 16.6154 7.53928 16.5646 7.59006C16.5138 7.64095 16.4452 7.66639 16.3589 7.66639ZM7.12039 6.99972H14.8794L11.1794 5.24339C11.1195 5.21772 11.0597 5.20489 10.9999 5.20489C10.9401 5.20489 10.8803 5.21772 10.8204 5.24339L7.12039 6.99972Z" fill="url(#paint0_linear_906_18014)"/>
</g>
</g>
<defs>
<linearGradient id="paint0_linear_906_18014" x1="5.35889" y1="10.4292" x2="16.6409" y2="10.4292" gradientUnits="userSpaceOnUse">
<stop stop-color="#8FD1EC"/>
<stop offset="1" stop-color="#229ACE"/>
</linearGradient>
<clipPath id="clip0_906_18014">
<rect width="22" height="22" fill="white"/>
</clipPath>
</defs>
</svg>
