<svg width="227" height="240" viewBox="0 0 227 240" fill="none" xmlns="http://www.w3.org/2000/svg">
<g clip-path="url(#clip0_66_74)">
<g opacity="0.88">
<g opacity="0.54">
<path d="M78.8543 90.2051C79.7035 90.2051 80.3918 89.5166 80.3918 88.6673C80.3918 87.8179 79.7035 87.1294 78.8543 87.1294C78.0051 87.1294 77.3167 87.8179 77.3167 88.6673C77.3167 89.5166 78.0051 90.2051 78.8543 90.2051Z" fill="#151842"/>
<path d="M96.6087 68.5039C97.0734 68.5039 97.4501 68.1271 97.4501 67.6623C97.4501 67.1976 97.0734 66.8208 96.6087 66.8208C96.144 66.8208 95.7673 67.1976 95.7673 67.6623C95.7673 68.1271 96.144 68.5039 96.6087 68.5039Z" fill="#151842"/>
<path d="M100.641 78.0029C101.375 78.0029 101.97 77.4078 101.97 76.6736C101.97 75.9394 101.375 75.3442 100.641 75.3442C99.9066 75.3442 99.3115 75.9394 99.3115 76.6736C99.3115 77.4078 99.9066 78.0029 100.641 78.0029Z" fill="#151842"/>
<path d="M138.983 85.1707C139.525 85.1707 139.965 84.7306 139.965 84.1876C139.965 83.6447 139.525 83.2046 138.983 83.2046C138.44 83.2046 138 83.6447 138 84.1876C138 84.7306 138.44 85.1707 138.983 85.1707Z" fill="#151842"/>
<path d="M115.688 88.3879C116.1 88.3879 116.433 88.0545 116.433 87.6432C116.433 87.2319 116.1 86.8984 115.688 86.8984C115.277 86.8984 114.944 87.2319 114.944 87.6432C114.944 88.0545 115.277 88.3879 115.688 88.3879Z" fill="#151842"/>
<path d="M93.7867 94.6624C94.2247 94.6624 94.5797 94.3073 94.5797 93.8693C94.5797 93.4313 94.2247 93.0762 93.7867 93.0762C93.3488 93.0762 92.9938 93.4313 92.9938 93.8693C92.9938 94.3073 93.3488 94.6624 93.7867 94.6624Z" fill="#151842"/>
<path d="M74.0481 70.7567C74.6094 70.7567 75.0644 70.3016 75.0644 69.7402C75.0644 69.1788 74.6094 68.7236 74.0481 68.7236C73.4867 68.7236 73.0317 69.1788 73.0317 69.7402C73.0317 70.3016 73.4867 70.7567 74.0481 70.7567Z" fill="#151842"/>
<path d="M52.5335 46.6871C53.2038 46.6871 53.7472 46.1436 53.7472 45.4732C53.7472 44.8028 53.2038 44.2593 52.5335 44.2593C51.8633 44.2593 51.3199 44.8028 51.3199 45.4732C51.3199 46.1436 51.8633 46.6871 52.5335 46.6871Z" fill="#151842"/>
<path d="M110.417 92.6257C110.779 92.6257 111.072 92.3323 111.072 91.9703C111.072 91.6084 110.779 91.3149 110.417 91.3149C110.055 91.3149 109.762 91.6084 109.762 91.9703C109.762 92.3323 110.055 92.6257 110.417 92.6257Z" fill="#151842"/>
<path d="M81.2518 35.2667C81.7268 35.2667 82.1118 34.8816 82.1118 34.4066C82.1118 33.9315 81.7268 33.5464 81.2518 33.5464C80.7769 33.5464 80.3918 33.9315 80.3918 34.4066C80.3918 34.8816 80.7769 35.2667 81.2518 35.2667Z" fill="#151842"/>
<path d="M86.4564 1.33306C86.8244 1.33306 87.1228 1.03465 87.1228 0.666532C87.1228 0.298417 86.8244 0 86.4564 0C86.0884 0 85.79 0.298417 85.79 0.666532C85.79 1.03465 86.0884 1.33306 86.4564 1.33306Z" fill="#151842"/>
<path d="M109.036 50.6861C109.673 50.6861 110.19 50.1693 110.19 49.5318C110.19 48.8943 109.673 48.3774 109.036 48.3774C108.398 48.3774 107.882 48.8943 107.882 49.5318C107.882 50.1693 108.398 50.6861 109.036 50.6861Z" fill="#151842"/>
<path d="M70.2544 49.5318C70.5731 49.5318 70.8315 49.2734 70.8315 48.9546C70.8315 48.6358 70.5731 48.3774 70.2544 48.3774C69.9358 48.3774 69.6774 48.6358 69.6774 48.9546C69.6774 49.2734 69.9358 49.5318 70.2544 49.5318Z" fill="#151842"/>
<path d="M124.891 83.6925C125.432 83.6925 125.871 83.2541 125.871 82.7132C125.871 82.1723 125.432 81.7339 124.891 81.7339C124.351 81.7339 123.912 82.1723 123.912 82.7132C123.912 83.2541 124.351 83.6925 124.891 83.6925Z" fill="#151842"/>
<path d="M61.1073 86.3662C61.5802 86.3662 61.9636 85.9828 61.9636 85.5098C61.9636 85.0368 61.5802 84.6533 61.1073 84.6533C60.6344 84.6533 60.2511 85.0368 60.2511 85.5098C60.2511 85.9828 60.6344 86.3662 61.1073 86.3662Z" fill="#151842"/>
</g>
<g opacity="0.54">
<path d="M58.5832 160.094C59.0479 160.094 59.4246 159.717 59.4246 159.253C59.4246 158.788 59.0479 158.411 58.5832 158.411C58.1185 158.411 57.7419 158.788 57.7419 159.253C57.7419 159.717 58.1185 160.094 58.5832 160.094Z" fill="#151842"/>
<path d="M11.2654 200.414C11.6766 200.414 12.01 200.08 12.01 199.669C12.01 199.258 11.6766 198.924 11.2654 198.924C10.8542 198.924 10.5208 199.258 10.5208 199.669C10.5208 200.08 10.8542 200.414 11.2654 200.414Z" fill="#151842"/>
<path d="M58.5832 177.953C59.052 177.953 59.432 177.573 59.432 177.104C59.432 176.635 59.052 176.255 58.5832 176.255C58.1144 176.255 57.7344 176.635 57.7344 177.104C57.7344 177.573 58.1144 177.953 58.5832 177.953Z" fill="#151842"/>
<path d="M56.383 193.06C56.8209 193.06 57.176 192.705 57.176 192.267C57.176 191.829 56.8209 191.474 56.383 191.474C55.945 191.474 55.59 191.829 55.59 192.267C55.59 192.705 55.945 193.06 56.383 193.06Z" fill="#151842"/>
<path d="M12.2855 180.683C12.8468 180.683 13.3019 180.227 13.3019 179.666C13.3019 179.105 12.8468 178.649 12.2855 178.649C11.7242 178.649 11.2692 179.105 11.2692 179.666C11.2692 180.227 11.7242 180.683 12.2855 180.683Z" fill="#151842"/>
<path d="M77.596 168.264C77.9578 168.264 78.2512 167.97 78.2512 167.608C78.2512 167.247 77.9578 166.953 77.596 166.953C77.2341 166.953 76.9407 167.247 76.9407 167.608C76.9407 167.97 77.2341 168.264 77.596 168.264Z" fill="#151842"/>
<path d="M43.2301 126.857C43.705 126.857 44.0901 126.472 44.0901 125.997C44.0901 125.522 43.705 125.137 43.2301 125.137C42.7551 125.137 42.3701 125.522 42.3701 125.997C42.3701 126.472 42.7551 126.857 43.2301 126.857Z" fill="#151842"/>
<path d="M63.2815 130.301C63.6495 130.301 63.9479 130.003 63.9479 129.635C63.9479 129.267 63.6495 128.968 63.2815 128.968C62.9135 128.968 62.6151 129.267 62.6151 129.635C62.6151 130.003 62.9135 130.301 63.2815 130.301Z" fill="#151842"/>
<path d="M21.991 224.082C22.3097 224.082 22.5681 223.823 22.5681 223.504C22.5681 223.186 22.3097 222.927 21.991 222.927C21.6724 222.927 21.414 223.186 21.414 223.504C21.414 223.823 21.6724 224.082 21.991 224.082Z" fill="#151842"/>
<path d="M67.3357 188.625C67.897 188.625 68.3521 188.17 68.3521 187.608C68.3521 187.047 67.897 186.592 67.3357 186.592C66.7744 186.592 66.3194 187.047 66.3194 187.608C66.3194 188.17 66.7744 188.625 67.3357 188.625Z" fill="#151842"/>
<path d="M31.4248 166.976C31.9656 166.976 32.4039 166.537 32.4039 165.996C32.4039 165.456 31.9656 165.017 31.4248 165.017C30.8841 165.017 30.4457 165.456 30.4457 165.996C30.4457 166.537 30.8841 166.976 31.4248 166.976Z" fill="#151842"/>
<path d="M0.856262 168.789C1.32916 168.789 1.71252 168.406 1.71252 167.933C1.71252 167.46 1.32916 167.076 0.856262 167.076C0.383362 167.076 0 167.46 0 167.933C0 168.406 0.383362 168.789 0.856262 168.789Z" fill="#151842"/>
</g>
<g opacity="0.54">
<path d="M172.064 202.335C172.529 202.335 172.905 201.959 172.905 201.494C172.905 201.029 172.529 200.652 172.064 200.652C171.599 200.652 171.223 201.029 171.223 201.494C171.223 201.959 171.599 202.335 172.064 202.335Z" fill="#151842"/>
<path d="M199.23 203.538C199.773 203.538 200.213 203.098 200.213 202.555C200.213 202.012 199.773 201.572 199.23 201.572C198.687 201.572 198.247 202.012 198.247 202.555C198.247 203.098 198.687 203.538 199.23 203.538Z" fill="#151842"/>
<path d="M148.487 240C148.898 240 149.232 239.667 149.232 239.255C149.232 238.844 148.898 238.511 148.487 238.511C148.076 238.511 147.742 238.844 147.742 239.255C147.742 239.667 148.076 240 148.487 240Z" fill="#151842"/>
<path d="M188.285 226.588C188.753 226.588 189.133 226.208 189.133 225.739C189.133 225.27 188.753 224.89 188.285 224.89C187.816 224.89 187.436 225.27 187.436 225.739C187.436 226.208 187.816 226.588 188.285 226.588Z" fill="#151842"/>
<path d="M169.864 235.301C170.302 235.301 170.657 234.946 170.657 234.508C170.657 234.07 170.302 233.715 169.864 233.715C169.426 233.715 169.071 234.07 169.071 234.508C169.071 234.946 169.426 235.301 169.864 235.301Z" fill="#151842"/>
<path d="M149.503 204.588C150.065 204.588 150.52 204.133 150.52 203.572C150.52 203.01 150.065 202.555 149.503 202.555C148.942 202.555 148.487 203.01 148.487 203.572C148.487 204.133 148.942 204.588 149.503 204.588Z" fill="#151842"/>
<path d="M160.698 197.104C161.368 197.104 161.912 196.56 161.912 195.89C161.912 195.219 161.368 194.676 160.698 194.676C160.028 194.676 159.484 195.219 159.484 195.89C159.484 196.56 160.028 197.104 160.698 197.104Z" fill="#151842"/>
<path d="M191.077 210.505C191.439 210.505 191.732 210.212 191.732 209.85C191.732 209.488 191.439 209.194 191.077 209.194C190.715 209.194 190.422 209.488 190.422 209.85C190.422 210.212 190.715 210.505 191.077 210.505Z" fill="#151842"/>
<path d="M156.707 169.098C157.182 169.098 157.567 168.713 157.567 168.238C157.567 167.763 157.182 167.378 156.707 167.378C156.232 167.378 155.847 167.763 155.847 168.238C155.847 168.713 156.232 169.098 156.707 169.098Z" fill="#151842"/>
<path d="M176.762 172.543C177.13 172.543 177.429 172.244 177.429 171.876C177.429 171.508 177.13 171.209 176.762 171.209C176.394 171.209 176.096 171.508 176.096 171.876C176.096 172.244 176.394 172.543 176.762 172.543Z" fill="#151842"/>
<path d="M145.713 183.363C146.032 183.363 146.291 183.105 146.291 182.786C146.291 182.467 146.032 182.209 145.713 182.209C145.395 182.209 145.136 182.467 145.136 182.786C145.136 183.105 145.395 183.363 145.713 183.363Z" fill="#151842"/>
<path d="M180.817 230.866C181.378 230.866 181.833 230.411 181.833 229.85C181.833 229.288 181.378 228.833 180.817 228.833C180.255 228.833 179.8 229.288 179.8 229.85C179.8 230.411 180.255 230.866 180.817 230.866Z" fill="#151842"/>
<path d="M157.686 235.301C158.227 235.301 158.665 234.862 158.665 234.322C158.665 233.781 158.227 233.342 157.686 233.342C157.146 233.342 156.707 233.781 156.707 234.322C156.707 234.862 157.146 235.301 157.686 235.301Z" fill="#151842"/>
<path d="M142.635 225.802C143.108 225.802 143.491 225.418 143.491 224.945C143.491 224.472 143.108 224.089 142.635 224.089C142.162 224.089 141.778 224.472 141.778 224.945C141.778 225.418 142.162 225.802 142.635 225.802Z" fill="#151842"/>
</g>
</g>
<path d="M188.024 191.205L167.042 148.063L158.103 191.205H188.024Z" fill="#FFD327"/>
<path d="M226.102 154.371L203.567 140.552L226.072 181.252L226.102 154.371Z" fill="#FFD327"/>
<path d="M225.934 130.383L214.665 126.231L226.072 139.659L225.934 130.383Z" fill="#FFD327"/>
<path d="M226.072 111.363L214.542 113.895L226.195 122.582L226.072 111.363Z" fill="#FFD327"/>
<path d="M225.327 191.205L188.024 150.398L195.407 191.205H225.327Z" fill="#FFD327"/>
<path d="M44.9947 73.7021L88.128 94.6886L44.9947 103.625V73.7021Z" fill="#FFD327"/>
<path d="M81.8214 35.6133L95.6371 58.1562L54.946 35.6431L81.8214 35.6133Z" fill="#FFD327"/>
<path d="M105.804 35.7846L109.955 47.0523L96.5305 35.6431L105.804 35.7846Z" fill="#FFD327"/>
<path d="M124.821 35.6429L122.289 47.175L113.604 35.52L124.821 35.6429Z" fill="#FFD327"/>
<path d="M44.9947 36.3911L85.7938 73.702L44.9947 66.318V36.3911Z" fill="#FFD327"/>
<path d="M104.959 40.5581C105.536 39.9214 106.534 39.3703 107.193 39.9176C107.435 40.1187 107.561 40.4203 107.673 40.7145C108.533 42.9785 109.549 46.0356 109.214 48.4932C108.969 50.288 107.014 53.3712 104.799 51.7737C101.337 49.2752 102.536 43.2429 104.963 40.5581H104.959Z" fill="#1E3B6E"/>
<path d="M98.2877 52.6488C97.8968 52.2578 97.5767 51.5987 97.9489 51.1891C98.0867 51.0402 98.284 50.9694 98.4739 50.9061C99.9593 50.4258 101.955 49.8709 103.526 50.1688C104.672 50.3848 106.59 51.7402 105.491 53.1142C103.775 55.2591 99.9332 54.2946 98.2877 52.6451V52.6488Z" fill="#1E3B6E"/>
<path d="M147.311 44.736C146.175 43.6599 144.883 42.7029 143.383 41.8986C140.65 40.4315 137.657 39.5155 134.66 38.7745C130.051 37.6351 125.174 38.0186 120.74 39.3032C107.111 43.2466 98.9243 56.5735 94.8329 69.2488C94.7435 69.5243 94.6542 69.8185 94.7398 70.094C95.0414 71.0696 96.4672 71.6505 97.0443 72.4623C97.558 73.1847 97.6809 74.0262 98.1314 74.7747C99.1887 76.5248 101.084 77.5935 102.964 78.2414C106.575 79.4813 110.443 79.1351 114.129 79.9431C123.629 81.9092 133.29 82.5571 142.78 84.512C145.758 85.1264 148.863 85.7333 151.759 84.687C155.11 83.4768 160.088 80.4644 161.45 76.1487C161.852 74.8752 161.942 73.4826 161.577 71.9931C161.052 69.8408 159.965 67.9604 158.9 66.1246C154.816 59.1019 153.223 50.3252 147.314 44.7286L147.311 44.736Z" fill="#1E3B6E"/>
<path d="M126.656 74.7893C134.321 74.7893 140.535 67.854 140.535 59.299C140.535 50.7439 134.321 43.8086 126.656 43.8086C118.991 43.8086 112.777 50.7439 112.777 59.299C112.777 67.854 118.991 74.7893 126.656 74.7893Z" fill="#161742"/>
<path d="M126.656 72.9199C133.396 72.9199 138.86 66.8215 138.86 59.2988C138.86 51.7761 133.396 45.6777 126.656 45.6777C119.916 45.6777 114.452 51.7761 114.452 59.2988C114.452 66.8215 119.916 72.9199 126.656 72.9199Z" fill="#F5F5F5"/>
<path d="M123.596 64.5008C127.289 64.5008 130.282 61.5066 130.282 57.8131C130.282 54.1197 127.289 51.1255 123.596 51.1255C119.903 51.1255 116.91 54.1197 116.91 57.8131C116.91 61.5066 119.903 64.5008 123.596 64.5008Z" fill="#161742"/>
<path d="M118.395 58.5764C119.386 58.5764 120.189 57.7729 120.189 56.7816C120.189 55.7904 119.386 54.9868 118.395 54.9868C117.404 54.9868 116.601 55.7904 116.601 56.7816C116.601 57.7729 117.404 58.5764 118.395 58.5764Z" fill="#F5F5F5"/>
<path d="M149.961 72.123C150.181 72.1677 150.445 72.1677 150.769 72.1118C151.45 71.9927 152.065 71.6427 152.66 71.3001C154.187 70.4213 155.717 69.5388 157.243 68.66C157.683 68.4068 158.137 68.1424 158.446 67.7328C159.886 65.83 157.522 59.027 154.54 59.8164C152.404 60.3786 151.339 64.2996 150.605 66.0646C150.062 67.3716 147.944 71.7134 149.965 72.1267L149.961 72.123Z" fill="#161742"/>
<path d="M149.946 73.4414C152.217 75.9064 158.081 77.4182 160.497 78.014C161.733 78.3194 167.295 79.3099 168.2 77.8353C168.3 77.6715 168.211 77.4629 168.121 77.2954C165.486 72.3206 162.053 68.7868 158.315 64.7392C158.1 64.5084 157.869 64.2663 157.567 64.1807C156.063 63.7562 152.619 66.7426 151.54 67.6809C149.827 69.1704 148.003 71.3301 149.95 73.4414H149.946Z" fill="#FFD327"/>
<path d="M150.784 215.834C152.381 215.875 154.012 215.923 155.508 216.474C155.084 215.398 154.604 214.341 154.079 213.309C153.893 212.944 153.695 212.576 153.39 212.304C153.133 212.073 152.809 211.924 152.478 211.816C149.373 210.837 146.998 213.536 145.632 215.938C147.348 215.968 149.068 215.789 150.784 215.834Z" fill="#E3B829"/>
<path d="M112.074 204.786C111.969 206.052 112.04 207.329 112.282 208.577C112.327 208.807 112.386 209.053 112.565 209.202C112.766 209.373 113.056 209.377 113.321 209.373C114.322 209.355 115.32 209.336 116.321 209.314C116.772 207.757 117.058 206.153 117.174 204.533C115.648 204.522 114.125 204.514 112.598 204.503" fill="#E3B829"/>
<path d="M121.444 203.963C121.34 205.724 121.411 207.504 121.653 209.239C121.697 209.559 121.757 209.902 121.935 210.11C122.137 210.349 122.427 210.356 122.691 210.349C123.693 210.323 124.69 210.297 125.692 210.267C126.142 208.1 126.429 205.862 126.544 203.613C125.018 203.598 123.495 203.587 121.969 203.572" fill="#E3B829"/>
<path d="M103.187 212.773C102.643 213.395 102.238 214.117 102.375 214.97C102.729 217.144 104.494 217.353 106.299 216.5C108.648 215.387 110.625 213.961 113.254 213.588C116.068 213.19 118.432 213.853 121.139 214.556C123.194 215.093 125.256 215.61 127.308 216.173C128.361 216.463 129.411 216.765 130.457 217.085C131.127 217.29 132.337 218.109 133.007 217.636C134.139 216.839 130.1 214.121 133.104 214.538C135.256 214.839 137.359 215.733 139.37 216.638C140.431 217.115 141.492 217.591 142.545 218.086C143.394 218.489 144.611 219.416 145.583 219.218C146.629 219.003 146.168 217.926 146.25 217.07C146.324 216.303 146.428 215.54 146.704 214.813C147.247 213.391 148.573 212.479 150.062 212.289C152.828 211.939 154.015 213.7 154.995 215.953C155.27 216.59 156.424 216.995 156.793 216.173C157.083 215.532 156.011 213.741 155.695 213.201C155.006 212.024 154.004 211.03 152.753 210.464C152.068 210.151 151.309 209.976 150.572 209.846C149.124 209.589 147.646 209.567 146.179 209.504C143.547 209.392 140.915 209.507 138.283 209.537C133.074 209.593 127.948 209.85 122.751 209.924C120.863 209.95 118.875 209.76 117.282 208.651C117.107 208.528 116.928 208.39 116.72 208.334C116.556 208.29 116.385 208.301 116.217 208.308C114.702 208.39 112.576 208.085 111.299 208.949C110.815 209.276 110.331 209.604 109.847 209.928C108.157 211.071 105.864 211.373 103.98 212.151C103.704 212.263 103.433 212.486 103.183 212.769L103.187 212.773Z" fill="#FFD327"/>
<path d="M190.254 122.56C191.345 130.391 192.294 138.144 190.809 145.93C189.61 152.215 188.154 158.493 185.712 164.425C183.236 170.435 179.755 175.994 175.429 180.846C171.07 185.739 166.487 190.394 160.776 193.726C156.372 196.296 151.875 199.103 147.054 200.835C142.233 202.566 137.233 202.998 132.542 203.78C122.423 205.471 111.984 205.597 101.847 203.981C84.7737 201.259 62.1125 192.103 53.2148 173.95C45.2255 157.652 46.9827 135.612 51.2305 118.308C55.7017 100.099 67.5963 85.1599 82.1751 76.3982C87.5547 73.1623 93.4778 70.5632 99.5386 68.8913C112.68 65.2682 126.682 64.9331 140.021 67.6699C149.555 69.6249 158.959 73.3969 166.532 79.6154C179.454 90.224 187.953 106.057 190.247 122.556L190.254 122.56Z" fill="#1E488E" stroke="#171844" stroke-width="0.75" stroke-miterlimit="10"/>
<path d="M187.529 106.217C185.425 106.649 183.277 109.505 181.758 110.871C176.841 115.295 172.049 119.76 167.005 124.217C161.342 129.221 133.056 153.559 133.354 154.282C133.573 154.814 134.549 154.97 134.91 155.425C135.442 156.102 136.008 156.762 136.6 157.413C137.147 158.016 136.942 161.096 137.248 161.792C138.197 161.074 138.938 160.411 139.776 159.699C142.787 157.38 145.319 155.097 148.022 152.77C154.094 147.538 160.78 139.908 166.711 134.688C171.528 130.447 176.334 126.194 181.137 121.938C184.23 119.194 190.127 116.252 188.899 111.512C188.441 109.747 187.983 107.982 187.525 106.217H187.529Z" fill="#25C4F0"/>
<path d="M145.933 183.661C145.036 184.872 141.831 185.188 140.479 185.542C137.292 186.376 134.039 186.908 130.788 187.441C129.742 187.612 128.696 187.783 127.65 187.955C125.792 188.26 123.938 188.562 122.081 188.867C118.894 189.388 118.365 186.439 117.569 183.996C116.902 181.952 115.878 179.893 115.193 177.946C114.769 176.735 114.374 176.169 115.67 175.615C116.515 175.253 117.319 174.866 118.12 174.363C124.333 170.454 130.587 166.875 136.202 162.15C137.088 161.401 137.992 160.653 138.841 159.864C139.061 159.659 141.183 158.128 141.272 158.415C141.633 159.625 141.883 160.865 142.102 162.109C142.21 162.731 142.27 163.382 142.419 163.997C142.56 164.581 142.739 165.136 142.821 165.751C142.843 165.926 142.866 166.101 142.892 166.276C142.944 166.678 142.973 167.102 143.07 167.497C143.152 167.84 143.349 168.16 143.405 168.506C143.48 168.979 143.483 169.359 143.64 169.832C143.837 170.424 143.886 170.997 143.997 171.604C144.098 172.155 144.258 172.695 144.373 173.243C144.481 173.742 144.474 174.233 144.593 174.728C144.693 175.149 144.805 175.574 144.883 176.002C145.043 176.873 145.27 177.744 145.401 178.616C145.457 178.992 145.479 179.364 145.55 179.748C145.728 180.701 145.844 181.665 146.116 182.596C146.238 183.017 146.157 183.367 145.937 183.665L145.933 183.661Z" fill="#25C4F0"/>
<path d="M150.382 177.402L146.041 183.46L141.272 158.415L146.871 153.768L150.382 177.402Z" fill="#00A7CA"/>
<path d="M131.176 182.537L106.124 175.879L141.272 158.415L131.176 182.537Z" fill="#67CCEC"/>
<path d="M135.464 164.678C128.979 172.602 120.874 179.074 112.155 184.38C103.362 189.731 88.8465 199.688 78.1321 196.191C72.3318 194.3 70.1949 191.094 64.1229 195.547C59.8378 198.69 54.8566 204.625 49.6111 206.011C43.2636 207.686 45.0506 202.797 45.4526 198.619C40.3746 200.853 34.8015 202.831 29.1129 201.583C14.6756 198.411 22.5458 184.35 28.413 177.13C32.3146 172.33 37.2362 167.456 38.2079 161.055C39.537 152.297 38.4425 143.338 39.9912 134.64C41.8303 124.292 46.428 114.282 52.5038 105.755C58.1253 97.8686 64.9791 89.3935 72.8046 83.6219C79.2117 78.8966 91.9588 76.0703 99.9854 75.6756C110.328 75.1655 122.036 78.3529 130.476 84.3703C140.319 91.3894 146.41 102.344 148.491 114.141C152.083 134.487 146.432 151.277 135.461 164.682L135.464 164.678Z" fill="#1E3B6E"/>
<path d="M46.5583 190.047C45.3819 187.716 47.5263 185.441 47.4965 182.95C47.4593 179.513 45.6015 176.68 44.0714 173.727C37.1432 160.385 39.0195 139.655 42.8652 125.528C47.0758 110.071 56.0517 96.2339 68.9924 86.6902C75.3995 81.9649 88.1429 79.1387 96.1731 78.744C110.216 78.0514 123.763 84.3555 131.66 96.1111C144.909 115.843 142.516 146.79 126.429 163.93C120.539 170.204 113.358 175.391 105.674 179.256C92.8002 185.728 78.5714 188.86 64.3537 190.587C60.2622 191.086 49.9871 195 46.8413 190.509C46.7333 190.353 46.6402 190.2 46.562 190.044L46.5583 190.047Z" fill="#1E488E"/>
<path d="M137.538 91.207C141.637 94.7706 144.332 100.211 146.212 105.279C147.59 108.991 148.558 112.849 149.083 116.774C149.578 120.471 150.062 124.522 149.898 128.235" stroke="#231F20" stroke-width="0.75" stroke-miterlimit="10"/>
<path d="M77.9459 196.53C81.7656 197.211 85.6932 196.843 89.4236 195.849C94.2596 194.56 98.9467 192.68 103.25 190.148C113.444 184.156 122.836 178.295 131.217 169.403" stroke="#231F20" stroke-width="0.75" stroke-miterlimit="10"/>
<path d="M40.423 161.208C40.7469 165.248 42.5711 168.99 44.1236 172.736C45.676 176.482 47.0014 180.548 46.2568 184.532C45.9999 185.91 45.4973 187.266 45.5904 188.662C45.6984 190.334 46.7296 191.92 48.2113 192.698C49.693 193.48 51.5805 193.428 53.0213 192.572" stroke="#231F20" stroke-width="0.75" stroke-miterlimit="10"/>
<path d="M172.738 129.095C174.752 127.546 176.714 125.926 178.654 124.284C182.596 120.944 186.442 117.488 190.44 114.215" stroke="#171844" stroke-width="0.75" stroke-miterlimit="10"/>
<path d="M99.6429 182.064C102.744 181.528 105.588 180.131 108.287 178.56C109.568 177.815 113.41 177.126 114.248 176.125C115.085 175.123 115.13 172.84 113.187 173.805C109.058 175.86 104.233 176.005 101.955 171.556C97.5134 162.891 101.687 152.342 100.294 142.705C100.198 142.038 100.067 141.353 99.6838 140.798C98.6749 139.339 96.4821 139.432 94.8069 140.016C91.5717 141.141 88.8837 143.431 85.8422 145.01C82.8006 146.589 78.9102 147.374 76.0659 145.46C74.3645 144.314 73.3556 142.414 72.4175 140.59C70.1391 136.166 67.8569 131.743 65.5785 127.319C63.1586 122.62 59.9421 117.38 54.1232 117.06C51.413 116.911 48.9484 116.558 46.8003 118.416C44.4586 120.438 43.2859 123.431 42.4408 126.325C41.1043 130.897 40.0545 135.377 39.7529 140.128C39.7045 140.888 39.6487 141.64 39.604 142.4C39.47 144.53 40.0135 146.332 41.2607 148.1C42.6903 150.134 45.3223 151.467 47.7124 150.793C51.3646 149.761 53.2819 144.675 57.0755 144.79C60.0612 144.88 61.8333 148.294 61.9971 151.28C62.1572 154.263 61.3866 157.331 62.213 160.202C63.7506 165.531 71.4569 167.784 75.6191 164.116C77.5513 162.414 79.0293 159.644 81.6055 159.554C84.2599 159.461 86.0097 162.466 86.1214 165.118C86.2331 167.769 85.347 170.413 85.6299 173.053C86.2926 179.249 93.5076 183.136 99.6466 182.075L99.6429 182.064Z" fill="#1E3B6E"/>
<path d="M175.441 125.029H132.255C130.966 125.029 129.921 126.074 129.921 127.364V154.829C129.921 156.119 130.966 157.164 132.255 157.164H175.441C176.73 157.164 177.775 156.119 177.775 154.829V127.364C177.775 126.074 176.73 125.029 175.441 125.029Z" fill="#FFF4EC"/>
<path d="M155.594 142.228H174.115V128.879H155.594V142.228Z" fill="#EBE1DB"/>
<path d="M152.027 129.073H136.399C135.852 129.073 135.409 129.516 135.409 130.063V130.383C135.409 130.931 135.852 131.374 136.399 131.374H152.027C152.574 131.374 153.018 130.931 153.018 130.383V130.063C153.018 129.516 152.574 129.073 152.027 129.073Z" fill="#EBE1DB"/>
<path d="M152.027 134.636H136.399C135.852 134.636 135.409 135.079 135.409 135.626V135.946C135.409 136.493 135.852 136.937 136.399 136.937H152.027C152.574 136.937 153.018 136.493 153.018 135.946V135.626C153.018 135.079 152.574 134.636 152.027 134.636Z" fill="#EBE1DB"/>
<path d="M152.027 139.808H136.399C135.852 139.808 135.409 140.251 135.409 140.798V141.118C135.409 141.665 135.852 142.109 136.399 142.109H152.027C152.574 142.109 153.018 141.665 153.018 141.118V140.798C153.018 140.251 152.574 139.808 152.027 139.808Z" fill="#EBE1DB"/>
<path d="M173.121 145.163H136.399C135.852 145.163 135.409 145.606 135.409 146.153V146.473C135.409 147.02 135.852 147.464 136.399 147.464H173.121C173.668 147.464 174.112 147.02 174.112 146.473V146.153C174.112 145.606 173.668 145.163 173.121 145.163Z" fill="#EBE1DB"/>
<path d="M173.121 150.133H136.399C135.852 150.133 135.409 150.577 135.409 151.124V151.444C135.409 151.991 135.852 152.435 136.399 152.435H173.121C173.668 152.435 174.112 151.991 174.112 151.444V151.124C174.112 150.577 173.668 150.133 173.121 150.133Z" fill="#EBE1DB"/>
<path d="M203.697 76.8264C211.288 76.8264 217.442 70.6714 217.442 63.0787C217.442 55.4861 211.288 49.3311 203.697 49.3311C196.106 49.3311 189.953 55.4861 189.953 63.0787C189.953 70.6714 196.106 76.8264 203.697 76.8264Z" fill="#EF3E4D"/>
<path d="M207.699 57.7951C205.239 60.2564 202.778 62.7177 200.317 65.1791C199.967 65.5291 199.617 65.8791 199.267 66.2291C198.75 66.7467 198.712 67.6925 199.267 68.2027C199.822 68.7128 200.689 68.7538 201.24 68.2027C203.701 65.7413 206.162 63.28 208.623 60.8187C208.973 60.4687 209.323 60.1186 209.673 59.7686C210.19 59.251 210.227 58.3052 209.673 57.7951C209.118 57.2849 208.25 57.244 207.699 57.7951Z" fill="#FFF4EC"/>
<path d="M199.155 59.8133C201.59 62.2486 204.025 64.6838 206.46 67.1191C206.806 67.4654 207.152 67.8117 207.498 68.158C208.016 68.6756 208.962 68.7128 209.472 68.158C209.982 67.6032 210.023 66.7356 209.472 66.1845C207.037 63.7492 204.602 61.3139 202.167 58.8787C201.821 58.5324 201.475 58.1861 201.129 57.8398C200.611 57.3222 199.666 57.285 199.155 57.8398C198.645 58.3946 198.604 59.2622 199.155 59.8133Z" fill="#FFF4EC"/>
<path d="M165.307 150.737C165.084 150.435 164.864 150.115 164.782 149.747C164.7 149.378 164.793 148.95 165.095 148.723C165.448 148.454 165.955 148.551 166.364 148.723C167.213 149.076 168.095 149.445 168.967 149.739C170.865 150.38 172.891 150.73 174.893 150.458C173.937 150.588 171.483 148.425 170.724 147.866C168.501 146.231 165.162 143.457 164.302 140.761C163.959 139.685 164.246 139.063 164.812 138.833C165.378 138.602 166.26 138.773 167.057 139.291C170.083 141.264 172.909 141.041 176.208 139.693C176.993 139.369 177.764 139.008 178.516 138.605C178.516 138.449 180.098 137.704 180.303 137.503C180.939 136.878 181.643 136.334 182.343 135.783C182.92 135.325 183.441 134.8 183.947 134.264C184.45 133.735 184.971 133.225 185.466 132.685C187.108 130.883 187.875 128.548 188.266 126.187C188.53 124.59 188.422 123.003 188.553 121.395C188.609 120.687 188.4 119.928 188.367 119.213C188.329 118.419 188.24 117.63 188.121 116.844C187.875 115.269 187.495 113.717 187.09 112.179C186.572 110.216 186.025 108.247 185.228 106.377C184.264 104.11 183.277 101.883 182.302 99.6263C182.041 99.0193 181.833 98.3863 181.565 97.7756C181.524 97.6825 181.297 96.9788 181.256 96.9713C181.58 97.0421 182.16 97.0011 182.514 96.9899C183.81 96.949 185.109 96.867 186.408 96.9639C187.901 97.0756 189.383 97.3325 190.835 97.6937C193.694 98.4049 196.449 99.4997 199.1 100.769C199.152 100.795 199.215 100.818 199.267 100.851C206.054 104.132 212.517 108.362 217.331 114.16C222.148 119.957 225.197 127.464 224.598 134.979C224.028 142.12 220.223 148.726 215.134 153.768C209.207 159.64 201.181 162.887 192.916 163.487C188.757 163.788 184.528 163.587 180.452 162.697C177.473 162.046 173.114 161.316 170.795 159.208C168.118 156.78 174.596 157.752 175.377 157.752C172.001 156.713 167.422 153.582 165.311 150.741L165.307 150.737Z" fill="#1E488E"/>
<path d="M209.297 110.622C209.39 110.875 209.475 111.132 209.553 111.389C211.061 116.42 210.212 122.039 207.833 126.66C205.842 130.536 202.03 133.344 198.236 135.299C192.92 138.039 187.235 139.316 181.297 139.666C180.56 139.711 179.819 139.73 179.078 139.693C178.65 139.67 177.276 139.249 176.948 139.413C180.258 137.764 182.823 135.377 185.437 132.796C187.771 130.491 188.378 126.462 188.504 123.29C188.534 122.575 188.597 121.86 188.623 121.141C188.642 120.642 188.642 120.143 188.601 119.641C188.493 118.375 188.221 117.094 188.072 115.854C187.972 115.031 187.823 114.212 187.57 113.422C187.365 112.789 187.306 112.152 187.104 111.523C186.881 110.834 186.576 110.179 186.36 109.486C186.081 108.585 185.876 107.684 185.519 106.805C185.157 105.912 184.748 105.037 184.361 104.154C184.167 103.707 183.974 103.26 183.732 102.836C183.486 102.408 183.352 101.898 183.151 101.447C182.805 100.684 182.551 99.8756 182.19 99.1123C181.933 98.5649 181.461 97.7718 181.327 97.2095C181.304 97.0903 185.615 96.9972 185.95 96.9972C188.322 96.9861 190.652 97.5223 192.886 98.2707C195.187 99.0415 197.454 99.9278 199.651 100.963C202.286 102.199 204.818 103.532 206.597 105.897C207.688 107.349 208.667 108.902 209.297 110.611V110.622Z" fill="#1E3B6E"/>
<path d="M192.149 137.98C193.984 137.332 195.887 136.825 197.633 135.95C199.379 135.075 201.106 133.865 202.674 132.625C205.704 130.22 207.994 127.062 209.11 123.338C210.19 119.741 210.462 115.906 209.49 112.249C208.749 109.472 207.271 106.228 205.004 104.221" stroke="#231F20" stroke-width="0.75" stroke-miterlimit="10"/>
<path d="M193.113 163.334C191.319 163.468 189.521 163.561 187.719 163.579C184.387 163.617 181.01 163.427 177.764 162.641C176.226 162.269 174.715 161.759 173.307 161.029C172.537 160.63 169.707 159.379 170.247 158.169C170.381 157.871 170.739 157.752 171.059 157.681C171.897 157.499 172.742 157.614 173.579 157.692C174.231 157.752 174.841 157.726 175.5 157.841C174.555 157.26 173.602 156.858 172.604 156.393C171.669 155.957 170.768 155.443 169.879 154.926C168.081 153.883 166.483 152.535 165.266 150.841C164.816 150.212 164.462 149.404 165.043 148.89" stroke="#231F20" stroke-width="0.75" stroke-miterlimit="10"/>
<path d="M115.581 173.22C109.121 177.484 102.07 174.564 100.399 167.098C99.8104 164.473 99.829 161.755 99.8476 159.063C99.8849 154.129 100.652 149.117 100.246 144.191C99.9928 141.1 97.2826 137.447 93.9804 140.232" stroke="#231F20" stroke-width="0.75" stroke-miterlimit="10"/>
<g opacity="0.17">
<path d="M60.0761 111.11C62.7417 104.068 67.6857 97.9018 73.8992 93.6717C80.7232 89.0246 88.947 86.8947 97.1746 87.4682C101.91 87.7996 106.593 89.0433 110.852 91.1471C111.303 91.3705 111.861 91.27 112.126 90.812C112.368 90.4024 112.245 89.7619 111.791 89.5385C103.727 85.5505 94.3489 84.493 85.589 86.5224C77.6258 88.3656 70.3848 92.8898 65.0908 99.1083C62.1795 102.53 59.8713 106.41 58.2817 110.614C58.103 111.084 58.479 111.635 58.9332 111.761C59.4544 111.906 59.9011 111.582 60.0798 111.11H60.0761Z" fill="#FFF4EC"/>
</g>
</g>
<defs>
<clipPath id="clip0_66_74">
<rect width="226.195" height="240" fill="white"/>
</clipPath>
</defs>
</svg>
