<svg width="32" height="32" viewBox="0 0 32 32" fill="none" xmlns="http://www.w3.org/2000/svg">
<g clip-path="url(#clip0_0_7677)">
<path d="M30.6192 13.7081H1.38067C1.26599 13.7081 1.156 13.6625 1.0749 13.5815C0.993802 13.5004 0.948242 13.3904 0.948242 13.2757V10.1215C0.948241 10.0471 0.967467 9.97385 1.00406 9.909C1.04065 9.84415 1.09337 9.78985 1.15711 9.75135L15.7733 0.927136C15.8407 0.886478 15.918 0.86499 15.9967 0.86499C16.0754 0.86499 16.1526 0.886478 16.22 0.927136L30.8423 9.75135C30.906 9.78985 30.9588 9.84415 30.9953 9.909C31.0319 9.97385 31.0512 10.0471 31.0512 10.1215V13.2757C31.0512 13.3903 31.0057 13.5002 30.9247 13.5813C30.8437 13.6624 30.7338 13.708 30.6192 13.7081ZM1.81354 12.8432H30.1867V10.3654L15.9973 1.80238L1.81354 10.3645V12.8432Z" fill="white"/>
<path d="M16 10.5137C15.4884 10.5137 14.9884 10.362 14.563 10.0778C14.1377 9.79362 13.8062 9.38969 13.6105 8.91709C13.4147 8.44449 13.3635 7.92445 13.4633 7.42274C13.5631 6.92104 13.8094 6.46019 14.1711 6.09848C14.5328 5.73676 14.9937 5.49044 15.4954 5.39064C15.9971 5.29084 16.5171 5.34206 16.9897 5.53782C17.4623 5.73358 17.8663 6.06508 18.1504 6.49041C18.4346 6.91573 18.5863 7.41578 18.5863 7.92732C18.5855 8.61303 18.3128 9.27042 17.8279 9.75528C17.343 10.2401 16.6857 10.5129 16 10.5137ZM16 6.20538C15.6595 6.20538 15.3266 6.30634 15.0435 6.4955C14.7604 6.68467 14.5398 6.95353 14.4095 7.26809C14.2792 7.58266 14.2451 7.9288 14.3115 8.26274C14.3779 8.59668 14.5419 8.90343 14.7827 9.14418C15.0234 9.38494 15.3302 9.5489 15.6641 9.61532C15.998 9.68175 16.3442 9.64766 16.6587 9.51736C16.9733 9.38706 17.2422 9.16641 17.4313 8.88331C17.6205 8.60021 17.7215 8.26737 17.7215 7.92689C17.7209 7.47049 17.5393 7.03295 17.2166 6.71023C16.8939 6.38751 16.4564 6.20595 16 6.20538Z" fill="white"/>
<path d="M28.0961 16.4398H23.4946C23.2469 16.4395 23.0095 16.3409 22.8344 16.1657C22.6592 15.9905 22.5608 15.753 22.5605 15.5053V13.2757C22.5605 13.161 22.6061 13.051 22.6872 12.9699C22.7683 12.8888 22.8783 12.8433 22.993 12.8433H28.5977C28.7124 12.8433 28.8224 12.8888 28.9035 12.9699C28.9846 13.051 29.0302 13.161 29.0302 13.2757V15.5066C29.0296 15.7541 28.931 15.9912 28.7559 16.1662C28.5808 16.3411 28.3436 16.4395 28.0961 16.4398ZM23.4258 13.7068V15.5053C23.4258 15.5237 23.4331 15.5413 23.4461 15.5544C23.459 15.5674 23.4766 15.5748 23.495 15.5749H28.0961C28.1145 15.5748 28.1321 15.5674 28.1451 15.5544C28.158 15.5413 28.1653 15.5237 28.1653 15.5053V13.7081L23.4258 13.7068Z" fill="white"/>
<path d="M27.7032 25.1745H23.8865C23.7718 25.1745 23.6619 25.1289 23.5808 25.0478C23.4997 24.9667 23.4541 24.8567 23.4541 24.742V16.0069C23.4541 15.8922 23.4997 15.7822 23.5808 15.7011C23.6619 15.62 23.7718 15.5745 23.8865 15.5745H27.7032C27.8179 15.5745 27.9279 15.62 28.009 15.7011C28.0901 15.7822 28.1356 15.8922 28.1356 16.0069V24.742C28.1356 24.8567 28.0901 24.9667 28.009 25.0478C27.9279 25.1289 27.8179 25.1745 27.7032 25.1745ZM24.319 24.3096H27.2708V16.4393H24.319V24.3096Z" fill="white"/>
<path d="M28.5977 27.9074H22.993C22.8783 27.9074 22.7683 27.8618 22.6872 27.7808C22.6061 27.6997 22.5605 27.5897 22.5605 27.475V25.2441C22.5608 24.9964 22.6592 24.7589 22.8344 24.5837C23.0095 24.4085 23.2469 24.3099 23.4946 24.3096H28.0961C28.3438 24.3099 28.5813 24.4085 28.7564 24.5837C28.9315 24.7589 29.0299 24.9964 29.0302 25.2441V27.475C29.0302 27.5897 28.9846 27.6997 28.9035 27.7808C28.8224 27.8618 28.7124 27.9074 28.5977 27.9074ZM23.4254 27.0425H28.1653V25.2441C28.1653 25.2257 28.158 25.208 28.1451 25.195C28.1321 25.1819 28.1145 25.1745 28.0961 25.1744H23.4946C23.4762 25.1745 23.4586 25.1819 23.4456 25.195C23.4327 25.208 23.4254 25.2257 23.4254 25.2441V27.0425Z" fill="white"/>
<path d="M18.3008 16.4398H13.6997C13.452 16.4395 13.2145 16.3409 13.0394 16.1657C12.8643 15.9905 12.7659 15.753 12.7656 15.5053V13.2757C12.7656 13.161 12.8112 13.051 12.8923 12.9699C12.9734 12.8888 13.0834 12.8433 13.1981 12.8433H18.8024C18.9171 12.8433 19.0271 12.8888 19.1082 12.9699C19.1893 13.051 19.2348 13.161 19.2348 13.2757V15.5066C19.2342 15.7541 19.1356 15.9912 18.9606 16.1662C18.7855 16.3411 18.5482 16.4395 18.3008 16.4398ZM13.6305 13.7081V15.5066C13.6305 15.525 13.6378 15.5426 13.6507 15.5557C13.6637 15.5687 13.6813 15.5761 13.6997 15.5762H18.3008C18.3191 15.5761 18.3367 15.5687 18.3497 15.5557C18.3627 15.5426 18.3699 15.525 18.3699 15.5066V13.7081H13.6305Z" fill="white"/>
<path d="M17.9029 25.1745H14.0975C13.9828 25.1745 13.8728 25.1289 13.7917 25.0478C13.7106 24.9667 13.665 24.8567 13.665 24.742V16.0069C13.665 15.8922 13.7106 15.7822 13.7917 15.7011C13.8728 15.62 13.9828 15.5745 14.0975 15.5745H17.9029C18.0176 15.5745 18.1276 15.62 18.2087 15.7011C18.2897 15.7822 18.3353 15.8922 18.3353 16.0069V24.742C18.3353 24.8567 18.2897 24.9667 18.2087 25.0478C18.1276 25.1289 18.0176 25.1745 17.9029 25.1745ZM14.5299 24.3096H17.4704V16.4393H14.5299V24.3096Z" fill="white"/>
<path d="M18.8024 27.9074H13.1981C13.0834 27.9074 12.9734 27.8618 12.8923 27.7808C12.8112 27.6997 12.7656 27.5897 12.7656 27.475V25.2441C12.7659 24.9964 12.8643 24.7589 13.0394 24.5837C13.2145 24.4085 13.452 24.3099 13.6997 24.3096H18.3008C18.5485 24.3099 18.7859 24.4085 18.961 24.5837C19.1361 24.7589 19.2346 24.9964 19.2348 25.2441V27.475C19.2348 27.5897 19.1893 27.6997 19.1082 27.7808C19.0271 27.8618 18.9171 27.9074 18.8024 27.9074ZM13.6301 27.0425H18.3699V25.2441C18.3699 25.2257 18.3627 25.208 18.3497 25.195C18.3367 25.1819 18.3191 25.1745 18.3008 25.1744H13.6997C13.6813 25.1745 13.6637 25.1819 13.6507 25.195C13.6378 25.208 13.6305 25.2257 13.6305 25.2441L13.6301 27.0425Z" fill="white"/>
<path d="M8.93791 16.4398H4.3364C4.0887 16.4395 3.85126 16.3409 3.67615 16.1657C3.50104 15.9905 3.40257 15.753 3.40234 15.5053V13.2757C3.40234 13.161 3.4479 13.051 3.529 12.9699C3.6101 12.8888 3.72009 12.8433 3.83478 12.8433H9.43953C9.55422 12.8433 9.66421 12.8888 9.74531 12.9699C9.82641 13.051 9.87197 13.161 9.87197 13.2757V15.5066C9.87139 15.7541 9.77277 15.9912 9.5977 16.1662C9.42263 16.3411 9.18538 16.4395 8.93791 16.4398ZM4.26721 13.7081V15.5066C4.26721 15.525 4.27448 15.5426 4.28745 15.5557C4.30041 15.5687 4.31801 15.5761 4.3364 15.5762H8.93791C8.9563 15.5761 8.9739 15.5687 8.98686 15.5557C8.99983 15.5426 9.0071 15.525 9.0071 15.5066V13.7081H4.26721Z" fill="white"/>
<path d="M8.56233 25.1745H4.71368C4.59899 25.1745 4.489 25.1289 4.40791 25.0478C4.32681 24.9667 4.28125 24.8567 4.28125 24.742V16.0069C4.28125 15.8922 4.32681 15.7822 4.40791 15.7011C4.489 15.62 4.59899 15.5745 4.71368 15.5745H8.56233C8.67702 15.5745 8.78701 15.62 8.86811 15.7011C8.9492 15.7822 8.99476 15.8922 8.99476 16.0069V24.742C8.99476 24.8567 8.9492 24.9667 8.86811 25.0478C8.78701 25.1289 8.67702 25.1745 8.56233 25.1745ZM5.14611 24.3096H8.1299V16.4393H5.14611V24.3096Z" fill="white"/>
<path d="M9.43953 27.9074H3.83478C3.72009 27.9074 3.6101 27.8618 3.529 27.7808C3.4479 27.6997 3.40234 27.5897 3.40234 27.475V25.2441C3.40257 24.9964 3.50104 24.7589 3.67615 24.5837C3.85126 24.4085 4.0887 24.3099 4.3364 24.3096H8.93791C9.18561 24.3099 9.42305 24.4085 9.59816 24.5837C9.77327 24.7589 9.87174 24.9964 9.87197 25.2441V27.475C9.87197 27.5897 9.82641 27.6997 9.74531 27.7808C9.66421 27.8618 9.55422 27.9074 9.43953 27.9074ZM4.26721 27.0425H9.0071V25.2441C9.0071 25.2257 8.99983 25.208 8.98686 25.195C8.9739 25.1819 8.9563 25.1745 8.93791 25.1744H4.3364C4.31801 25.1745 4.30041 25.1819 4.28745 25.195C4.27448 25.208 4.26721 25.2257 4.26721 25.2441V27.0425Z" fill="white"/>
<path d="M30.7026 31.1351H1.29718C1.18249 31.1351 1.0725 31.0896 0.991403 31.0085C0.910306 30.9274 0.864746 30.8174 0.864746 30.7027V27.475C0.864746 27.3603 0.910306 27.2504 0.991403 27.1693C1.0725 27.0882 1.18249 27.0426 1.29718 27.0426H30.7026C30.8173 27.0426 30.9273 27.0882 31.0084 27.1693C31.0895 27.2504 31.135 27.3603 31.135 27.475V30.7027C31.135 30.8174 31.0895 30.9274 31.0084 31.0085C30.9273 31.0896 30.8173 31.1351 30.7026 31.1351ZM1.72961 30.2703H30.2702V27.9075H1.72961V30.2703Z" fill="white"/>
</g>
<defs>
<clipPath id="clip0_0_7677">
<rect width="32" height="32" fill="white"/>
</clipPath>
</defs>
</svg>
