<svg width="24" height="24" viewBox="0 0 24 24" fill="none" xmlns="http://www.w3.org/2000/svg">
<mask id="mask0_61_1642" style="mask-type:luminance" maskUnits="userSpaceOnUse" x="0" y="0" width="24" height="24">
<path d="M23.5 23.5V0.5H0.5V23.5H23.5Z" fill="white" stroke="white"/>
</mask>
<g mask="url(#mask0_61_1642)">
<path d="M10.5569 12.9631H8.84016C8.47894 12.9631 8.18335 13.2587 8.18335 13.6199V14.496C8.18335 14.8572 8.47894 15.1528 8.84016 15.1528H10.5569C10.9181 15.1528 11.2136 14.8572 11.2136 14.496V13.6199C11.2136 13.2587 10.9181 12.9631 10.5569 12.9631Z" stroke="#AF8E2F" stroke-miterlimit="10" stroke-linecap="round" stroke-linejoin="round"/>
<path d="M3.00366 5.55111V6.34536C3.00366 6.82714 3.39783 7.22131 3.87962 7.22131H15.5173C15.9991 7.22131 16.3933 6.82714 16.3933 6.34536V5.55111H3.00366Z" stroke="#AF8E2F" stroke-miterlimit="10" stroke-linecap="round" stroke-linejoin="round"/>
<path d="M10.2512 19.6504L13.7381 14.0578H11.2136V14.4959C11.2136 14.8571 10.9181 15.1527 10.5569 15.1527H8.84016C8.47894 15.1527 8.18339 14.8571 8.18339 14.4959V14.0578H1.57448C0.901875 14.0578 0.351562 13.5075 0.351562 12.8349V19.1409C0.351562 19.8135 0.901875 20.3639 1.57448 20.3639H9.96722C10.017 20.1167 10.111 19.8754 10.2512 19.6504Z" stroke="#AF8E2F" stroke-miterlimit="10" stroke-linecap="round" stroke-linejoin="round"/>
<path d="M5.54188 5.5509V3.47631C5.54188 2.94319 5.97561 2.50946 6.50867 2.50946H12.8885C13.4217 2.50946 13.8554 2.94319 13.8554 3.47631V5.5509H15.2633V3.47631C15.2633 2.1669 14.198 1.10161 12.8885 1.10161H6.50867C5.19931 1.10161 4.13403 2.1669 4.13403 3.47631V5.5509H5.54188Z" stroke="#AF8E2F" stroke-miterlimit="10" stroke-linecap="round" stroke-linejoin="round"/>
<path d="M16.7869 19.4687C16.3174 19.4687 15.9368 19.8493 15.9368 20.3189C15.9368 20.7884 16.3174 21.1691 16.7869 21.1691C17.2565 21.1691 17.6372 20.7884 17.6372 20.3189C17.6372 19.8493 17.2565 19.4687 16.7869 19.4687Z" stroke="#AF8E2F" stroke-miterlimit="10" stroke-linecap="round" stroke-linejoin="round"/>
<path d="M16.7869 13.9598C16.3174 13.9598 15.9368 14.3404 15.9368 14.81V17.3182C15.9368 17.7877 16.3174 18.1683 16.7869 18.1683C17.2565 18.1683 17.6372 17.7877 17.6372 17.3182V14.81C17.6372 14.3404 17.2565 13.9598 16.7869 13.9598Z" stroke="#AF8E2F" stroke-miterlimit="10" stroke-linecap="round" stroke-linejoin="round"/>
<path d="M17.6071 22.8984H21.52C22.303 22.8984 22.9973 22.4896 23.3773 21.805C23.7572 21.1203 23.7368 20.3149 23.3225 19.6504L18.5893 12.059C18.1987 11.4326 17.5249 11.0587 16.7868 11.0587C16.0487 11.0587 15.3749 11.4327 14.9843 12.059L10.2512 19.6504C9.8369 20.3149 9.81647 21.1203 10.1964 21.805C10.5764 22.4896 11.2707 22.8984 12.0537 22.8984H15.9665" stroke="#AF8E2F" stroke-miterlimit="10" stroke-linecap="round" stroke-linejoin="round"/>
<path d="M19.0455 8.00805V6.77388C19.0455 6.10126 18.4952 5.5509 17.8225 5.5509H1.57453C0.901922 5.5509 0.351562 6.10126 0.351562 6.77388V12.8351C0.351562 13.5077 0.901922 14.058 1.57453 14.058H8.18339V13.62C8.18339 13.2588 8.47898 12.9632 8.8402 12.9632H10.5569C10.9181 12.9632 11.2137 13.2588 11.2137 13.62V14.058H13.7381L14.9844 12.0591H14.9844C15.3749 11.4328 16.0487 11.0588 16.7869 11.0588C17.525 11.0588 18.1988 11.4328 18.5894 12.0591L19.0455 12.7907V9.64868" stroke="#AF8E2F" stroke-miterlimit="10" stroke-linecap="round" stroke-linejoin="round"/>
</g>
</svg>
