<?xml version="1.0" encoding="UTF-8" standalone="no"?>
<svg
   width="366"
   height="384"
   version="1.1"
   id="svg72"
   sodipodi:docname="Bg + Confetti (2).svg"
   xmlns:inkscape="http://www.inkscape.org/namespaces/inkscape"
   xmlns:sodipodi="http://sodipodi.sourceforge.net/DTD/sodipodi-0.dtd"
   xmlns="http://www.w3.org/2000/svg"
   xmlns:svg="http://www.w3.org/2000/svg">
  <sodipodi:namedview
     id="namedview74"
     pagecolor="#ffffff"
     bordercolor="#000000"
     borderopacity="0.25"
     inkscape:showpageshadow="2"
     inkscape:pageopacity="0.0"
     inkscape:pagecheckerboard="0"
     inkscape:deskcolor="#d1d1d1" />
  <defs
     id="defs20">
    <linearGradient
       id="b"
       x1=".5"
       x2=".5"
       y2="1"
       gradientUnits="objectBoundingBox">
      <stop
         offset="0"
         stop-color="#151742"
         id="stop2" />
      <stop
         offset=".626"
         stop-color="#1c468b"
         id="stop4" />
      <stop
         offset="1"
         stop-color="#1c478d"
         id="stop6" />
    </linearGradient>
    <filter
       id="a"
       x="0"
       y="0"
       width="366"
       height="384"
       filterUnits="userSpaceOnUse">
      <feOffset
         dy="1"
         id="feOffset9" />
      <feGaussianBlur
         stdDeviation="1"
         result="blur"
         id="feGaussianBlur11" />
      <feFlood
         flood-opacity=".251"
         id="feFlood13" />
      <feComposite
         operator="in"
         in2="blur"
         id="feComposite15"
         result="result1" />
      <feComposite
         in="SourceGraphic"
         in2="result1"
         id="feComposite17" />
    </filter>
  </defs>
  <g
     data-name="Group 7311"
     id="g70">
    <g
       filter="url(#a)"
       id="g24">
      <path
         data-name="Rectangle 55"
         transform="translate(3 2)"
         fill="url(#b)"
         d="M0 0h360v378H0z"
         id="path22" />
    </g>
    <g
       data-name="50th birthday-amico"
       opacity=".32"
       id="g68">
      <g
         data-name="freepik--confetti--inject-5"
         id="g66">
        <path
           data-name="Path 8074"
           d="M274.986 13.6s-.258 4.668 3.207 7.261l3.626-1.1s-2.45-1.123-3.626-6.156Z"
           fill="#af8e2f"
           id="path26" />
        <path
           data-name="Path 8075"
           d="M268.471 144.781s4.187-2.058 4.758-6.343l-2.748-2.629s.178 2.673-3.564 6.183Z"
           fill="#af8e2f"
           id="path28" />
        <path
           data-name="Path 8076"
           d="M344.614 106.387s-2.111 4.17-6.406 4.677l-2.594-2.767s2.673.2 6.237-3.51Z"
           fill="#af8e2f"
           id="path30" />
        <path
           data-name="Path 8077"
           d="M327.657 249.162s-2.111 4.17-6.406 4.677l-2.593-2.771s2.673.2 6.237-3.51Z"
           fill="#af8e2f"
           id="path32" />
        <path
           data-name="Path 8078"
           d="M23.546 287.691s2.12 4.17 6.415 4.677l2.584-2.771s-2.673.2-6.236-3.51Z"
           fill="#af8e2f"
           id="path34" />
        <path
           data-name="Path 8079"
           d="M255.213 100.115s2.111 4.161 6.415 4.668l2.584-2.771s-3.163.49-6.709-3.225Z"
           fill="#af8e2f"
           id="path36" />
        <path
           data-name="Path 8080"
           d="M117.652 61.737s-2.878 3.68-1.515 7.787l3.608 1.167a12.072 12.072 0 0 1 .071-7.448Z"
           fill="#af8e2f"
           id="path38" />
        <path
           data-name="Path 8081"
           d="M213.144 41.032s-.82 4.6-4.793 6.317l-3.27-1.907a12.072 12.072 0 0 0 5.5-5.016Z"
           fill="#af8e2f"
           id="path40" />
        <path
           data-name="Path 8082"
           d="M313.608 84.028s-4.633.579-7.457-2.673l.891-3.7s1.327 2.343 6.388 3.2Z"
           fill="#f39cc0"
           id="path42" />
        <path
           data-name="Path 8083"
           d="M346.697 280.985s-4.633.579-7.457-2.673l.891-3.7s1.327 2.343 6.388 3.2Z"
           fill="#f39cc0"
           id="path44" />
        <path
           data-name="Path 8084"
           d="M188.522 23.685s-4.633.579-7.457-2.673l.846-3.7s1.327 2.343 6.388 3.2Z"
           fill="#f39cc0"
           id="path46" />
        <path
           data-name="Path 8085"
           d="M351.395 165.512s-4.633.579-7.457-2.673l.846-3.7s1.327 2.343 6.388 3.207Z"
           fill="#f39cc0"
           id="path48" />
        <path
           data-name="Path 8086"
           d="M36.642 110.756s4.633.57 7.457-2.673l-.891-3.7s-1.327 2.334-6.388 3.2Z"
           fill="#f39cc0"
           id="path50" />
        <path
           data-name="Path 8087"
           d="M94.769 50.512s4.633.579 7.457-2.673l-.891-3.7s-1.327 2.343-6.379 3.207Z"
           fill="#f39cc0"
           id="path52" />
        <path
           data-name="Path 8088"
           d="M16.632 150.242s4.633.57 7.457-2.673l-.891-3.7s-1.327 2.334-6.379 3.2Z"
           fill="#f39cc0"
           id="path54" />
        <path
           data-name="Path 8089"
           d="M347.204 210.914c6 .481 4.927 11.885.071 13.426a2.343 2.343 0 0 1-1.835-.1 2.673 2.673 0 0 1-1.1-2.316c.579-1.96 3.813.517 4.232 1.283a5.577 5.577 0 0 1-.454 6.557c-2.477 2.673-7.19 2.806-10.281 1.247-.169-.08-.2.223-.08.294 3.323 2.138 8.909 1.826 11.359-1.55 1.978-2.673.615-9.863-3.688-9.23-4.009.6-1.238 5.158 1.782 4.553s4.134-4.633 4.455-7.127c.365-3.145-.57-7.395-4.455-7.323-.134 0-.116.276 0 .285Z"
           fill="#f39cc0"
           id="path56" />
        <path
           data-name="Path 8090"
           d="M155.178 34.386c4.508-.445 10.593 7.074 6.192 10.691-2.441 2-7.778 1.131-7.724-2.619a.481.481 0 0 1 .4-.419c3.564-.811 7.047.713 6.441 4.838a7.956 7.956 0 0 1-7.448 6.5c-.214 0-.134-.374 0-.41 3.083-.65 6-2.566 6.593-5.862a4.205 4.205 0 0 0-.659-3.412 3.305 3.305 0 0 0-1.613-1.069c-.526-.169-2.432-.472-2.842-.045-.837.891 1.425 2.316 2.094 2.548a4.766 4.766 0 0 0 4.072-.383c1.871-1.31 1.408-3.778.508-5.524a7.434 7.434 0 0 0-6.121-4.374c-.249 0-.125-.472.071-.49Z"
           fill="#f39cc0"
           id="path58" />
        <path
           data-name="Path 8091"
           d="M277.446 77.069c-4.5.445-10.584-7.074-6.183-10.691 2.441-2.014 7.778-1.14 7.724 2.61a.481.481 0 0 1-.4.419c-3.564.811-7.047-.7-6.441-4.838a7.92 7.92 0 0 1 7.439-6.522c.214 0 .143.365 0 .4-3.083.65-6 2.566-6.593 5.862a4.2 4.2 0 0 0 .659 3.412 3.385 3.385 0 0 0 1.613 1.078c.526.16 2.423.463 2.842 0 .837-.891-1.426-2.316-2.094-2.548a4.8 4.8 0 0 0-4.072.383c-1.871 1.31-1.408 3.778-.508 5.524a7.417 7.417 0 0 0 6.121 4.374c.249 0 .125.472-.08.49Z"
           fill="#f39cc0"
           id="path60" />
        <path
           data-name="Path 8092"
           d="M26.816 80.482c3.207 1.782 5.007 8.6 1.176 10.62-3.261 1.711-8.615-.089-6.682-4.339a.294.294 0 0 1 .241-.178c3.8 0 4.027 4.455 2.628 7.056-2.174 4.045-6.522 2.985-9.141 0-.089-.1 0-.383.16-.276 2.272 1.88 5.613 3.849 7.947.891 1.238-1.559 1.942-4.455.633-6.237a2.325 2.325 0 0 0-1.408-.962c-1.229-.134-1.327 1.212-.837 2.192.775 1.559 2.976 1.924 4.535 1.782 5.346-.606 3.439-7.813.633-10.353-.089-.08 0-.321.116-.249Z"
           fill="#f39cc0"
           id="path62" />
        <path
           data-name="Path 8093"
           d="M27.582 219.035c-5.942 1.025-3.831 12.286 1.14 13.364a2.307 2.307 0 0 0 1.826-.264 2.673 2.673 0 0 0 .891-2.406c-.748-1.907-3.742.891-4.1 1.657a5.6 5.6 0 0 0 1.051 6.495c2.673 2.477 7.421 2.147 10.353.312.16-.1.214.2.107.285-3.118 2.423-8.7 2.619-11.457-.517-2.21-2.512-1.5-9.8 2.842-9.524 4.045.223 1.7 5.025-1.381 4.7s-4.535-4.241-5.052-6.7c-.659-3.1-.107-7.413 3.778-7.689.125 0 .143.258 0 .276Z"
           fill="#f39cc0"
           id="path64" />
      </g>
    </g>
  </g>
</svg>
