<svg width="228" height="241" viewBox="0 0 228 241" fill="none" xmlns="http://www.w3.org/2000/svg">
<g clip-path="url(#clip0_190_185)">
<g opacity="0.88">
<g opacity="0.54">
<path d="M79.4837 90.5811C80.3396 90.5811 81.0335 89.8897 81.0335 89.0369C81.0335 88.184 80.3396 87.4926 79.4837 87.4926C78.6277 87.4926 77.9338 88.184 77.9338 89.0369C77.9338 89.8897 78.6277 90.5811 79.4837 90.5811Z" fill="#151842"/>
<path d="M97.3798 68.7893C97.8482 68.7893 98.2279 68.411 98.2279 67.9443C98.2279 67.4776 97.8482 67.0992 97.3798 67.0992C96.9114 67.0992 96.5317 67.4776 96.5317 67.9443C96.5317 68.411 96.9114 68.7893 97.3798 68.7893Z" fill="#151842"/>
<path d="M101.444 78.3279C102.184 78.3279 102.784 77.7303 102.784 76.993C102.784 76.2558 102.184 75.6581 101.444 75.6581C100.704 75.6581 100.104 76.2558 100.104 76.993C100.104 77.7303 100.704 78.3279 101.444 78.3279Z" fill="#151842"/>
<path d="M140.092 85.5258C140.639 85.5258 141.082 85.0838 141.082 84.5386C141.082 83.9935 140.639 83.5515 140.092 83.5515C139.545 83.5515 139.101 83.9935 139.101 84.5386C139.101 85.0838 139.545 85.5258 140.092 85.5258Z" fill="#151842"/>
<path d="M116.612 88.7564C117.026 88.7564 117.362 88.4216 117.362 88.0086C117.362 87.5956 117.026 87.2607 116.612 87.2607C116.197 87.2607 115.861 87.5956 115.861 88.0086C115.861 88.4216 116.197 88.7564 116.612 88.7564Z" fill="#151842"/>
<path d="M94.5353 95.0569C94.9767 95.0569 95.3346 94.7003 95.3346 94.2604C95.3346 93.8206 94.9767 93.464 94.5353 93.464C94.0939 93.464 93.736 93.8206 93.736 94.2604C93.736 94.7003 94.0939 95.0569 94.5353 95.0569Z" fill="#151842"/>
<path d="M74.6391 71.0515C75.2049 71.0515 75.6635 70.5945 75.6635 70.0307C75.6635 69.4669 75.2049 69.0099 74.6391 69.0099C74.0733 69.0099 73.6146 69.4669 73.6146 70.0307C73.6146 70.5945 74.0733 71.0515 74.6391 71.0515Z" fill="#151842"/>
<path d="M52.9528 46.8816C53.6285 46.8816 54.1762 46.3358 54.1762 45.6626C54.1762 44.9894 53.6285 44.4436 52.9528 44.4436C52.2772 44.4436 51.7295 44.9894 51.7295 45.6626C51.7295 46.3358 52.2772 46.8816 52.9528 46.8816Z" fill="#151842"/>
<path d="M111.298 93.0116C111.663 93.0116 111.959 92.7169 111.959 92.3535C111.959 91.99 111.663 91.6954 111.298 91.6954C110.933 91.6954 110.638 91.99 110.638 92.3535C110.638 92.7169 110.933 93.0116 111.298 93.0116Z" fill="#151842"/>
<path d="M81.9003 35.4136C82.3791 35.4136 82.7672 35.0269 82.7672 34.5498C82.7672 34.0728 82.3791 33.6861 81.9003 33.6861C81.4216 33.6861 81.0335 34.0728 81.0335 34.5498C81.0335 35.0269 81.4216 35.4136 81.9003 35.4136Z" fill="#151842"/>
<path d="M87.1464 1.33862C87.5174 1.33862 87.8182 1.03896 87.8182 0.669309C87.8182 0.29966 87.5174 0 87.1464 0C86.7755 0 86.4747 0.29966 86.4747 0.669309C86.4747 1.03896 86.7755 1.33862 87.1464 1.33862Z" fill="#151842"/>
<path d="M109.906 50.8974C110.548 50.8974 111.069 50.3785 111.069 49.7383C111.069 49.0981 110.548 48.5791 109.906 48.5791C109.263 48.5791 108.743 49.0981 108.743 49.7383C108.743 50.3785 109.263 50.8974 109.906 50.8974Z" fill="#151842"/>
<path d="M70.8152 49.7383C71.1364 49.7383 71.3968 49.4788 71.3968 49.1587C71.3968 48.8386 71.1364 48.5791 70.8152 48.5791C70.4939 48.5791 70.2335 48.8386 70.2335 49.1587C70.2335 49.4788 70.4939 49.7383 70.8152 49.7383Z" fill="#151842"/>
<path d="M125.888 84.0413C126.433 84.0413 126.875 83.601 126.875 83.0579C126.875 82.5148 126.433 82.0745 125.888 82.0745C125.343 82.0745 124.901 82.5148 124.901 83.0579C124.901 83.601 125.343 84.0413 125.888 84.0413Z" fill="#151842"/>
<path d="M61.5951 86.726C62.0717 86.726 62.4582 86.341 62.4582 85.866C62.4582 85.3911 62.0717 85.006 61.5951 85.006C61.1184 85.006 60.732 85.3911 60.732 85.866C60.732 86.341 61.1184 86.726 61.5951 86.726Z" fill="#151842"/>
</g>
<g opacity="0.54">
<path d="M59.0508 160.761C59.5192 160.761 59.8989 160.383 59.8989 159.916C59.8989 159.45 59.5192 159.071 59.0508 159.071C58.5824 159.071 58.2027 159.45 58.2027 159.916C58.2027 160.383 58.5824 160.761 59.0508 160.761Z" fill="#151842"/>
<path d="M11.3553 201.249C11.7698 201.249 12.1059 200.914 12.1059 200.501C12.1059 200.088 11.7698 199.753 11.3553 199.753C10.9408 199.753 10.6048 200.088 10.6048 200.501C10.6048 200.914 10.9408 201.249 11.3553 201.249Z" fill="#151842"/>
<path d="M59.0508 178.694C59.5233 178.694 59.9064 178.313 59.9064 177.842C59.9064 177.371 59.5233 176.989 59.0508 176.989C58.5783 176.989 58.1952 177.371 58.1952 177.842C58.1952 178.313 58.5783 178.694 59.0508 178.694Z" fill="#151842"/>
<path d="M56.833 193.864C57.2745 193.864 57.6323 193.508 57.6323 193.068C57.6323 192.628 57.2745 192.271 56.833 192.271C56.3916 192.271 56.0337 192.628 56.0337 193.068C56.0337 193.508 56.3916 193.864 56.833 193.864Z" fill="#151842"/>
<path d="M12.3836 181.435C12.9494 181.435 13.408 180.978 13.408 180.414C13.408 179.851 12.9494 179.394 12.3836 179.394C11.8178 179.394 11.3591 179.851 11.3591 180.414C11.3591 180.978 11.8178 181.435 12.3836 181.435Z" fill="#151842"/>
<path d="M78.2153 168.965C78.58 168.965 78.8757 168.67 78.8757 168.307C78.8757 167.944 78.58 167.649 78.2153 167.649C77.8505 167.649 77.5548 167.944 77.5548 168.307C77.5548 168.67 77.8505 168.965 78.2153 168.965Z" fill="#151842"/>
<path d="M43.5751 127.386C44.0538 127.386 44.442 126.999 44.442 126.522C44.442 126.045 44.0538 125.658 43.5751 125.658C43.0964 125.658 42.7083 126.045 42.7083 126.522C42.7083 126.999 43.0964 127.386 43.5751 127.386Z" fill="#151842"/>
<path d="M63.7866 130.844C64.1575 130.844 64.4583 130.545 64.4583 130.175C64.4583 129.805 64.1575 129.506 63.7866 129.506C63.4156 129.506 63.1149 129.805 63.1149 130.175C63.1149 130.545 63.4156 130.844 63.7866 130.844Z" fill="#151842"/>
<path d="M22.1666 225.015C22.4878 225.015 22.7482 224.756 22.7482 224.436C22.7482 224.115 22.4878 223.856 22.1666 223.856C21.8453 223.856 21.5849 224.115 21.5849 224.436C21.5849 224.756 21.8453 225.015 22.1666 225.015Z" fill="#151842"/>
<path d="M67.8731 189.411C68.4389 189.411 68.8976 188.954 68.8976 188.39C68.8976 187.826 68.4389 187.369 67.8731 187.369C67.3073 187.369 66.8487 187.826 66.8487 188.39C66.8487 188.954 67.3073 189.411 67.8731 189.411Z" fill="#151842"/>
<path d="M31.6756 167.671C32.2207 167.671 32.6626 167.231 32.6626 166.688C32.6626 166.145 32.2207 165.705 31.6756 165.705C31.1306 165.705 30.6887 166.145 30.6887 166.688C30.6887 167.231 31.1306 167.671 31.6756 167.671Z" fill="#151842"/>
<path d="M0.863096 169.492C1.33977 169.492 1.72619 169.107 1.72619 168.632C1.72619 168.157 1.33977 167.772 0.863096 167.772C0.386421 167.772 0 168.157 0 168.632C0 169.107 0.386421 169.492 0.863096 169.492Z" fill="#151842"/>
</g>
<g opacity="0.54">
<path d="M173.437 203.178C173.906 203.178 174.285 202.8 174.285 202.333C174.285 201.867 173.906 201.488 173.437 201.488C172.969 201.488 172.589 201.867 172.589 202.333C172.589 202.8 172.969 203.178 173.437 203.178Z" fill="#151842"/>
<path d="M200.82 204.386C201.367 204.386 201.811 203.944 201.811 203.399C201.811 202.854 201.367 202.412 200.82 202.412C200.273 202.412 199.829 202.854 199.829 203.399C199.829 203.944 200.273 204.386 200.82 204.386Z" fill="#151842"/>
<path d="M149.672 241C150.087 241 150.423 240.665 150.423 240.252C150.423 239.839 150.087 239.504 149.672 239.504C149.258 239.504 148.922 239.839 148.922 240.252C148.922 240.665 149.258 241 149.672 241Z" fill="#151842"/>
<path d="M189.787 227.532C190.26 227.532 190.643 227.15 190.643 226.679C190.643 226.208 190.26 225.826 189.787 225.826C189.315 225.826 188.932 226.208 188.932 226.679C188.932 227.15 189.315 227.532 189.787 227.532Z" fill="#151842"/>
<path d="M171.22 236.281C171.661 236.281 172.019 235.925 172.019 235.485C172.019 235.045 171.661 234.688 171.22 234.688C170.778 234.688 170.42 235.045 170.42 235.485C170.42 235.925 170.778 236.281 171.22 236.281Z" fill="#151842"/>
<path d="M150.697 205.441C151.262 205.441 151.721 204.984 151.721 204.42C151.721 203.856 151.262 203.399 150.697 203.399C150.131 203.399 149.672 203.856 149.672 204.42C149.672 204.984 150.131 205.441 150.697 205.441Z" fill="#151842"/>
<path d="M161.981 197.925C162.656 197.925 163.204 197.379 163.204 196.706C163.204 196.033 162.656 195.487 161.981 195.487C161.305 195.487 160.757 196.033 160.757 196.706C160.757 197.379 161.305 197.925 161.981 197.925Z" fill="#151842"/>
<path d="M192.602 211.382C192.967 211.382 193.262 211.087 193.262 210.724C193.262 210.361 192.967 210.066 192.602 210.066C192.237 210.066 191.941 210.361 191.941 210.724C191.941 211.087 192.237 211.382 192.602 211.382Z" fill="#151842"/>
<path d="M157.958 169.803C158.437 169.803 158.825 169.416 158.825 168.939C158.825 168.462 158.437 168.075 157.958 168.075C157.479 168.075 157.091 168.462 157.091 168.939C157.091 169.416 157.479 169.803 157.958 169.803Z" fill="#151842"/>
<path d="M178.173 173.261C178.544 173.261 178.845 172.962 178.845 172.592C178.845 172.222 178.544 171.923 178.173 171.923C177.802 171.923 177.501 172.222 177.501 172.592C177.501 172.962 177.802 173.261 178.173 173.261Z" fill="#151842"/>
<path d="M146.876 184.127C147.198 184.127 147.458 183.868 147.458 183.548C147.458 183.228 147.198 182.968 146.876 182.968C146.555 182.968 146.295 183.228 146.295 183.548C146.295 183.868 146.555 184.127 146.876 184.127Z" fill="#151842"/>
<path d="M182.26 231.828C182.825 231.828 183.284 231.371 183.284 230.807C183.284 230.243 182.825 229.786 182.26 229.786C181.694 229.786 181.235 230.243 181.235 230.807C181.235 231.371 181.694 231.828 182.26 231.828Z" fill="#151842"/>
<path d="M158.945 236.281C159.49 236.281 159.932 235.841 159.932 235.298C159.932 234.755 159.49 234.314 158.945 234.314C158.4 234.314 157.958 234.755 157.958 235.298C157.958 235.841 158.4 236.281 158.945 236.281Z" fill="#151842"/>
<path d="M143.773 226.743C144.25 226.743 144.636 226.358 144.636 225.883C144.636 225.408 144.25 225.023 143.773 225.023C143.296 225.023 142.91 225.408 142.91 225.883C142.91 226.358 143.296 226.743 143.773 226.743Z" fill="#151842"/>
</g>
</g>
<path d="M189.525 192.002L168.375 148.68L159.365 192.002H189.525Z" fill="#FFD327"/>
<path d="M227.906 155.014L205.192 141.138L227.876 182.007L227.906 155.014Z" fill="#FFD327"/>
<path d="M227.737 130.927L216.378 126.757L227.876 140.241L227.737 130.927Z" fill="#FFD327"/>
<path d="M227.876 111.827L216.254 114.37L228 123.093L227.876 111.827Z" fill="#FFD327"/>
<path d="M227.126 192.002L189.525 151.025L196.966 192.002H227.126Z" fill="#FFD327"/>
<path d="M45.3538 74.0092L88.8314 95.0831L45.3538 104.057V74.0092Z" fill="#FFD327"/>
<path d="M82.4745 35.7613L96.4003 58.3982L55.3845 35.7912L82.4745 35.7613Z" fill="#FFD327"/>
<path d="M106.649 35.9333L110.833 47.248L97.301 35.7912L106.649 35.9333Z" fill="#FFD327"/>
<path d="M125.817 35.7912L123.265 47.3714L114.51 35.6678L125.817 35.7912Z" fill="#FFD327"/>
<path d="M45.3538 36.5428L86.4785 74.0092L45.3538 66.5944V36.5428Z" fill="#FFD327"/>
<path d="M105.797 40.7269C106.378 40.0875 107.384 39.5341 108.048 40.0838C108.292 40.2857 108.42 40.5886 108.532 40.884C109.399 43.1574 110.424 46.2272 110.086 48.6951C109.838 50.4973 107.868 53.5934 105.635 51.9893C102.146 49.4803 103.354 43.4228 105.801 40.7269H105.797Z" fill="#1E3B6E"/>
<path d="M99.0722 52.868C98.6782 52.4753 98.3554 51.8135 98.7307 51.4022C98.8695 51.2526 99.0684 51.1816 99.2598 51.118C100.757 50.6357 102.768 50.0785 104.352 50.3777C105.508 50.5945 107.44 51.9556 106.333 53.3354C104.603 55.4891 100.731 54.5207 99.0722 52.8642V52.868Z" fill="#1E3B6E"/>
<path d="M148.486 44.9223C147.342 43.8416 146.04 42.8807 144.527 42.073C141.773 40.5998 138.756 39.68 135.735 38.9359C131.089 37.7917 126.173 38.1768 121.704 39.4668C107.966 43.4266 99.7139 56.809 95.5898 69.5371C95.4997 69.8138 95.4097 70.1092 95.496 70.3859C95.7999 71.3656 97.2372 71.9489 97.8188 72.764C98.3367 73.4894 98.4605 74.3345 98.9146 75.086C99.9803 76.8434 101.89 77.9166 103.785 78.5672C107.425 79.8123 111.324 79.4646 115.039 80.276C124.616 82.2503 134.354 82.9009 143.919 84.8639C146.921 85.4809 150.051 86.0904 152.971 85.0397C156.348 83.8245 161.365 80.7995 162.739 76.4658C163.144 75.187 163.234 73.7886 162.866 72.2929C162.337 70.1317 161.241 68.2434 160.168 66.4C156.052 59.3479 154.445 50.5347 148.49 44.9148L148.486 44.9223Z" fill="#1E3B6E"/>
<path d="M127.667 75.101C135.393 75.101 141.657 68.1368 141.657 59.5461C141.657 50.9554 135.393 43.9912 127.667 43.9912C119.941 43.9912 113.677 50.9554 113.677 59.5461C113.677 68.1368 119.941 75.101 127.667 75.101Z" fill="#161742"/>
<path d="M127.667 73.2239C134.461 73.2239 139.968 67.1002 139.968 59.5461C139.968 51.992 134.461 45.8683 127.667 45.8683C120.873 45.8683 115.366 51.992 115.366 59.5461C115.366 67.1002 120.873 73.2239 127.667 73.2239Z" fill="#F5F5F5"/>
<path d="M124.582 64.7697C128.305 64.7697 131.322 61.7631 131.322 58.0542C131.322 54.3453 128.305 51.3387 124.582 51.3387C120.86 51.3387 117.843 54.3453 117.843 58.0542C117.843 61.7631 120.86 64.7697 124.582 64.7697Z" fill="#161742"/>
<path d="M119.34 58.8207C120.339 58.8207 121.149 58.0138 121.149 57.0184C121.149 56.0231 120.339 55.2162 119.34 55.2162C118.341 55.2162 117.531 56.0231 117.531 57.0184C117.531 58.0138 118.341 58.8207 119.34 58.8207Z" fill="#F5F5F5"/>
<path d="M151.158 72.4238C151.38 72.4686 151.646 72.4686 151.972 72.4125C152.659 72.2929 153.278 71.9414 153.879 71.5974C155.417 70.715 156.96 69.8288 158.498 68.9463C158.941 68.6921 159.399 68.4266 159.71 68.0153C161.163 66.1046 158.78 59.2731 155.774 60.0658C153.62 60.6304 152.547 64.5678 151.807 66.3401C151.259 67.6526 149.124 72.0124 151.162 72.4275L151.158 72.4238Z" fill="#161742"/>
<path d="M151.143 73.7474C153.432 76.2227 159.343 77.7408 161.778 78.3391C163.024 78.6457 168.63 79.6403 169.542 78.1596C169.643 77.9951 169.553 77.7857 169.463 77.6174C166.806 72.6219 163.347 69.0735 159.579 65.009C159.361 64.7772 159.129 64.5341 158.825 64.4481C157.309 64.0219 153.838 67.0207 152.749 67.9629C151.023 69.4586 149.184 71.6273 151.147 73.7474H151.143Z" fill="#FFD327"/>
<path d="M151.987 216.733C153.597 216.774 155.241 216.823 156.75 217.376C156.322 216.295 155.838 215.233 155.309 214.198C155.121 213.831 154.922 213.461 154.614 213.188C154.355 212.956 154.029 212.807 153.695 212.698C150.565 211.715 148.171 214.426 146.794 216.838C148.524 216.867 150.258 216.688 151.987 216.733Z" fill="#E3B829"/>
<path d="M112.968 205.639C112.863 206.91 112.934 208.193 113.178 209.445C113.223 209.677 113.283 209.924 113.463 210.073C113.666 210.245 113.959 210.249 114.225 210.245C115.235 210.227 116.24 210.208 117.25 210.186C117.704 208.623 117.993 207.011 118.109 205.385C116.571 205.373 115.036 205.366 113.497 205.355" fill="#E3B829"/>
<path d="M122.413 204.812C122.308 206.581 122.38 208.368 122.623 210.111C122.668 210.432 122.729 210.776 122.909 210.986C123.111 211.225 123.404 211.233 123.67 211.225C124.68 211.199 125.686 211.173 126.695 211.143C127.149 208.967 127.438 206.719 127.554 204.461C126.016 204.446 124.481 204.435 122.942 204.42" fill="#E3B829"/>
<path d="M104.011 213.659C103.463 214.284 103.054 215.009 103.193 215.865C103.549 218.049 105.328 218.258 107.148 217.402C109.516 216.284 111.508 214.852 114.158 214.478C116.995 214.078 119.377 214.744 122.106 215.45C124.177 215.989 126.256 216.509 128.324 217.073C129.386 217.365 130.444 217.668 131.498 217.989C132.174 218.195 133.393 219.017 134.069 218.543C135.21 217.742 131.138 215.013 134.166 215.432C136.335 215.735 138.456 216.632 140.482 217.541C141.552 218.019 142.621 218.498 143.683 218.995C144.539 219.399 145.766 220.33 146.745 220.132C147.8 219.915 147.334 218.834 147.417 217.974C147.492 217.204 147.597 216.437 147.875 215.708C148.423 214.28 149.758 213.364 151.259 213.173C154.048 212.822 155.245 214.59 156.232 216.853C156.509 217.492 157.673 217.899 158.044 217.073C158.337 216.43 157.256 214.631 156.937 214.089C156.243 212.908 155.233 211.909 153.973 211.341C153.282 211.027 152.517 210.851 151.774 210.72C150.314 210.462 148.824 210.44 147.346 210.376C144.692 210.264 142.039 210.38 139.386 210.41C134.136 210.466 128.969 210.724 123.73 210.799C121.828 210.825 119.824 210.634 118.218 209.52C118.042 209.397 117.861 209.258 117.651 209.202C117.486 209.157 117.314 209.169 117.145 209.176C115.617 209.258 113.475 208.952 112.188 209.819C111.7 210.148 111.212 210.477 110.724 210.803C109.02 211.95 106.709 212.253 104.81 213.035C104.532 213.147 104.258 213.371 104.007 213.656L104.011 213.659Z" fill="#FFD327"/>
<path d="M191.772 123.071C192.872 130.934 193.829 138.719 192.332 146.538C191.123 152.849 189.656 159.154 187.194 165.11C184.699 171.145 181.19 176.728 176.83 181.6C172.435 186.513 167.816 191.187 162.059 194.533C157.62 197.113 153.087 199.933 148.227 201.671C143.368 203.41 138.328 203.844 133.6 204.629C123.4 206.327 112.878 206.454 102.66 204.831C85.4503 202.098 62.6082 192.903 53.6396 174.675C45.5865 158.308 47.3577 136.176 51.6394 118.801C56.1463 100.516 68.1358 85.5145 82.831 76.7163C88.2535 73.467 94.2238 70.857 100.333 69.1782C113.58 65.54 127.693 65.2034 141.139 67.9517C150.749 69.9148 160.228 73.7025 167.861 79.9469C180.886 90.5998 189.453 106.499 191.765 123.067L191.772 123.071Z" fill="#1E488E" stroke="#171844" stroke-width="0.75" stroke-miterlimit="10"/>
<path d="M189.026 106.659C186.905 107.093 184.74 109.961 183.209 111.333C178.252 115.776 173.422 120.259 168.338 124.735C162.63 129.76 134.118 154.199 134.418 154.925C134.639 155.459 135.622 155.616 135.986 156.072C136.523 156.753 137.093 157.415 137.69 158.069C138.242 158.675 138.035 161.767 138.343 162.466C139.3 161.745 140.047 161.079 140.891 160.365C143.927 158.036 146.479 155.743 149.203 153.406C155.324 148.153 162.063 140.491 168.041 135.249C172.897 130.99 177.742 126.72 182.582 122.446C185.701 119.69 191.645 116.737 190.407 111.977C189.945 110.204 189.483 108.432 189.022 106.659H189.026Z" fill="#25C4F0"/>
<path d="M147.098 184.427C146.193 185.642 142.962 185.96 141.6 186.315C138.388 187.152 135.108 187.687 131.832 188.222C130.778 188.394 129.723 188.566 128.669 188.738C126.796 189.044 124.928 189.347 123.055 189.654C119.843 190.177 119.31 187.216 118.507 184.763C117.835 182.71 116.803 180.642 116.113 178.687C115.685 177.472 115.287 176.903 116.593 176.346C117.445 175.983 118.255 175.595 119.062 175.09C125.325 171.164 131.63 167.57 137.289 162.825C138.182 162.074 139.094 161.322 139.949 160.53C140.171 160.324 142.31 158.787 142.4 159.075C142.764 160.29 143.015 161.535 143.236 162.784C143.345 163.409 143.405 164.063 143.555 164.68C143.698 165.267 143.878 165.824 143.961 166.441C143.983 166.617 144.006 166.793 144.032 166.968C144.085 167.372 144.115 167.798 144.212 168.195C144.295 168.539 144.494 168.86 144.55 169.208C144.625 169.683 144.629 170.064 144.786 170.539C144.985 171.134 145.034 171.71 145.147 172.319C145.248 172.873 145.409 173.415 145.526 173.964C145.634 174.465 145.627 174.959 145.747 175.456C145.848 175.879 145.961 176.305 146.04 176.735C146.201 177.61 146.43 178.485 146.561 179.36C146.618 179.738 146.64 180.112 146.711 180.497C146.891 181.454 147.008 182.422 147.282 183.357C147.406 183.78 147.323 184.131 147.102 184.43L147.098 184.427Z" fill="#25C4F0"/>
<path d="M151.582 178.141L147.207 184.225L142.4 159.075L148.044 154.409L151.582 178.141Z" fill="#00A7CA"/>
<path d="M132.223 183.297L106.971 176.612L142.4 159.075L132.223 183.297Z" fill="#67CCEC"/>
<path d="M136.546 165.364C130.009 173.321 121.839 179.82 113.051 185.148C104.187 190.521 89.5556 200.52 78.7556 197.009C72.9091 195.109 70.7551 191.89 64.6346 196.362C60.3154 199.518 55.2944 205.478 50.007 206.869C43.6089 208.552 45.4101 203.642 45.8154 199.447C40.6968 201.69 35.0792 203.676 29.3453 202.423C14.7927 199.237 22.7257 185.118 28.6398 177.868C32.5725 173.048 37.5334 168.154 38.5128 161.726C39.8525 152.932 38.7493 143.935 40.3103 135.2C42.1641 124.809 46.7986 114.759 52.9228 106.196C58.5892 98.2763 65.4977 89.766 73.3857 83.9703C79.8439 79.2253 92.6928 76.3873 100.783 75.9909C111.208 75.4787 123.01 78.6794 131.517 84.7219C141.439 91.7702 147.578 102.771 149.676 114.616C153.297 135.047 147.601 151.907 136.542 165.368L136.546 165.364Z" fill="#1E3B6E"/>
<path d="M46.9299 190.839C45.7441 188.498 47.9056 186.214 47.8756 183.712C47.8381 180.261 45.9655 177.416 44.4232 174.45C37.4396 161.053 39.3309 140.237 43.2074 126.051C47.4515 110.53 56.499 96.6348 69.5431 87.0514C76.0013 82.3064 88.8464 79.4683 96.9407 79.072C111.095 78.3765 124.751 84.7069 132.71 96.5114C146.066 116.325 143.653 147.401 127.438 164.613C121.501 170.913 114.263 176.122 106.517 180.003C93.5409 186.502 79.1985 189.646 64.8673 191.381C60.7432 191.882 50.3861 195.812 47.2151 191.303C47.1063 191.146 47.0125 190.993 46.9337 190.835L46.9299 190.839Z" fill="#1E488E"/>
<path d="M138.636 91.587C142.767 95.1653 145.484 100.628 147.379 105.717C148.768 109.445 149.743 113.319 150.273 117.26C150.772 120.973 151.259 125.041 151.094 128.769" stroke="#231F20" stroke-width="0.75" stroke-miterlimit="10"/>
<path d="M78.568 197.349C82.4182 198.033 86.3772 197.663 90.1373 196.665C95.0119 195.371 99.7364 193.483 104.074 190.94C114.349 184.924 123.817 179.038 132.264 170.109" stroke="#231F20" stroke-width="0.75" stroke-miterlimit="10"/>
<path d="M40.7456 161.879C41.0721 165.936 42.9109 169.694 44.4757 173.456C46.0405 177.217 47.3765 181.301 46.6259 185.301C46.367 186.685 45.8604 188.046 45.9542 189.448C46.0631 191.127 47.1025 192.72 48.5961 193.501C50.0896 194.287 51.9922 194.234 53.4444 193.374" stroke="#231F20" stroke-width="0.75" stroke-miterlimit="10"/>
<path d="M174.117 129.633C176.147 128.077 178.124 126.451 180.079 124.802C184.053 121.448 187.93 117.978 191.96 114.691" stroke="#171844" stroke-width="0.75" stroke-miterlimit="10"/>
<path d="M100.438 182.822C103.564 182.284 106.431 180.882 109.152 179.304C110.443 178.556 114.315 177.864 115.16 176.858C116.004 175.853 116.049 173.561 114.09 174.529C109.928 176.593 105.065 176.739 102.768 172.271C98.2916 163.569 102.498 152.976 101.095 143.3C100.997 142.63 100.866 141.942 100.479 141.385C99.4625 139.919 97.2522 140.013 95.5635 140.6C92.3025 141.729 89.5931 144.029 86.5273 145.614C83.4614 147.199 79.5399 147.988 76.673 146.066C74.958 144.915 73.9411 143.008 72.9954 141.176C70.6988 136.734 68.3985 132.291 66.1019 127.849C63.6627 123.13 60.4205 117.869 54.5552 117.548C51.8233 117.398 49.3391 117.043 47.1738 118.909C44.8135 120.939 43.6314 123.946 42.7795 126.851C41.4324 131.443 40.3741 135.941 40.0702 140.712C40.0214 141.475 39.9651 142.23 39.9201 142.993C39.785 145.132 40.3329 146.941 41.59 148.718C43.031 150.759 45.6841 152.098 48.0932 151.421C51.7745 150.385 53.7071 145.278 57.531 145.393C60.5406 145.483 62.3268 148.912 62.4919 151.911C62.6533 154.906 61.8765 157.987 62.7096 160.87C64.2594 166.221 72.0272 168.483 76.2226 164.8C78.1702 163.091 79.66 160.309 82.2568 160.219C84.9324 160.126 86.6961 163.143 86.8087 165.806C86.9213 168.468 86.0282 171.123 86.3134 173.774C86.9813 179.996 94.2539 183.899 100.442 182.834L100.438 182.822Z" fill="#1E3B6E"/>
<path d="M176.841 125.55H133.311C132.011 125.55 130.958 126.599 130.958 127.894V155.474C130.958 156.769 132.011 157.819 133.311 157.819H176.841C178.14 157.819 179.194 156.769 179.194 155.474V127.894C179.194 126.599 178.14 125.55 176.841 125.55Z" fill="#FFF4EC"/>
<path d="M156.836 142.821H175.505V129.416H156.836V142.821Z" fill="#EBE1DB"/>
<path d="M153.241 129.61H137.487C136.936 129.61 136.489 130.056 136.489 130.605V130.927C136.489 131.476 136.936 131.921 137.487 131.921H153.241C153.792 131.921 154.239 131.476 154.239 130.927V130.605C154.239 130.056 153.792 129.61 153.241 129.61Z" fill="#EBE1DB"/>
<path d="M153.241 135.197H137.487C136.936 135.197 136.489 135.642 136.489 136.191V136.513C136.489 137.062 136.936 137.508 137.487 137.508H153.241C153.792 137.508 154.239 137.062 154.239 136.513V136.191C154.239 135.642 153.792 135.197 153.241 135.197Z" fill="#EBE1DB"/>
<path d="M153.241 140.39H137.487C136.936 140.39 136.489 140.836 136.489 141.385V141.707C136.489 142.256 136.936 142.701 137.487 142.701H153.241C153.792 142.701 154.239 142.256 154.239 141.707V141.385C154.239 140.836 153.792 140.39 153.241 140.39Z" fill="#EBE1DB"/>
<path d="M174.503 145.767H137.487C136.936 145.767 136.489 146.213 136.489 146.762V147.084C136.489 147.633 136.936 148.078 137.487 148.078H174.503C175.054 148.078 175.501 147.633 175.501 147.084V146.762C175.501 146.213 175.054 145.767 174.503 145.767Z" fill="#EBE1DB"/>
<path d="M174.503 150.759H137.487C136.936 150.759 136.489 151.204 136.489 151.754V152.075C136.489 152.625 136.936 153.07 137.487 153.07H174.503C175.054 153.07 175.501 152.625 175.501 152.075V151.754C175.501 151.204 175.054 150.759 174.503 150.759Z" fill="#EBE1DB"/>
<path d="M205.323 77.1463C212.975 77.1463 219.178 70.9656 219.178 63.3413C219.178 55.7171 212.975 49.5364 205.323 49.5364C197.671 49.5364 191.469 55.7171 191.469 63.3413C191.469 70.9656 197.671 77.1463 205.323 77.1463Z" fill="#EF3E4D"/>
<path d="M203.426 64.5096L203.374 62.9896L204.675 62.9002C205.284 62.8645 205.782 62.6856 206.169 62.3638C206.568 62.0419 206.767 61.571 206.767 60.9511C206.767 60.4266 206.585 59.9915 206.222 59.6458C205.859 59.3 205.384 59.1272 204.798 59.1272C204.388 59.1272 204.03 59.2345 203.725 59.4491C203.432 59.6517 203.227 59.908 203.11 60.218L201 59.61C201.234 58.8232 201.68 58.1914 202.336 57.7145C203.004 57.2377 203.825 56.9993 204.798 56.9993C205.618 56.9993 206.345 57.1721 206.978 57.5178C207.611 57.8516 208.103 58.3166 208.455 58.9126C208.818 59.4967 209 60.1762 209 60.9511C209 61.6664 208.83 62.2923 208.49 62.8287C208.15 63.3652 207.675 63.7824 207.066 64.0804C206.456 64.3665 205.747 64.5096 204.938 64.5096H203.426ZM204.569 69.9993C204.182 69.9993 203.848 69.8622 203.567 69.588C203.297 69.3019 203.163 68.9562 203.163 68.5508C203.163 68.1575 203.297 67.8237 203.567 67.5495C203.848 67.2634 204.182 67.1203 204.569 67.1203C204.956 67.1203 205.284 67.2634 205.554 67.5495C205.835 67.8237 205.976 68.1575 205.976 68.5508C205.976 68.9562 205.835 69.3019 205.554 69.588C205.284 69.8622 204.956 69.9993 204.569 69.9993ZM203.462 66.1368L203.409 63.4724H205.73L205.677 66.1368H203.462Z" fill="white"/>
<path d="M166.626 151.365C166.401 151.062 166.18 150.74 166.097 150.37C166.015 150 166.108 149.57 166.412 149.342C166.769 149.073 167.279 149.17 167.692 149.342C168.548 149.697 169.437 150.067 170.315 150.363C172.229 151.006 174.27 151.357 176.289 151.084C175.325 151.215 172.852 149.043 172.086 148.482C169.846 146.84 166.48 144.055 165.613 141.348C165.268 140.267 165.557 139.643 166.127 139.411C166.698 139.179 167.587 139.351 168.39 139.871C171.441 141.852 174.289 141.628 177.614 140.275C178.406 139.949 179.183 139.587 179.941 139.183C179.941 139.026 181.535 138.278 181.742 138.076C182.383 137.448 183.093 136.902 183.798 136.348C184.38 135.888 184.905 135.361 185.416 134.823C185.922 134.292 186.448 133.78 186.947 133.237C188.602 131.428 189.375 129.083 189.769 126.713C190.035 125.108 189.926 123.516 190.058 121.9C190.114 121.19 189.904 120.427 189.87 119.709C189.832 118.913 189.742 118.12 189.622 117.331C189.375 115.749 188.992 114.19 188.583 112.646C188.061 110.675 187.51 108.697 186.706 106.82C185.735 104.543 184.74 102.307 183.757 100.041C183.494 99.4317 183.284 98.796 183.014 98.1828C182.973 98.0893 182.744 97.3826 182.702 97.3752C183.029 97.4462 183.614 97.4051 183.971 97.3939C185.277 97.3527 186.586 97.2705 187.896 97.3677C189.401 97.4798 190.894 97.7378 192.358 98.1005C195.24 98.8147 198.017 99.914 200.689 101.189C200.741 101.215 200.805 101.238 200.858 101.271C207.698 104.566 214.213 108.813 219.065 114.635C223.921 120.457 226.994 127.995 226.39 135.541C225.816 142.712 221.981 149.346 216.851 154.409C210.877 160.305 202.786 163.566 194.456 164.168C190.264 164.471 186.001 164.269 181.892 163.375C178.89 162.721 174.496 161.988 172.158 159.871C169.46 157.434 175.989 158.409 176.777 158.409C173.374 157.366 168.758 154.222 166.63 151.369L166.626 151.365Z" fill="#1E488E"/>
<path d="M210.967 111.083C211.061 111.337 211.147 111.595 211.226 111.853C212.746 116.905 211.89 122.547 209.492 127.187C207.485 131.08 203.642 133.899 199.818 135.862C194.459 138.614 188.729 139.897 182.744 140.248C182.001 140.293 181.254 140.312 180.507 140.275C180.076 140.252 178.691 139.83 178.361 139.994C181.697 138.338 184.282 135.941 186.917 133.35C189.269 131.035 189.881 126.989 190.009 123.804C190.039 123.086 190.103 122.368 190.129 121.646C190.148 121.145 190.148 120.644 190.106 120.139C189.997 118.868 189.724 117.582 189.573 116.336C189.472 115.51 189.322 114.687 189.067 113.895C188.86 113.259 188.8 112.62 188.598 111.988C188.373 111.296 188.065 110.638 187.847 109.942C187.566 109.038 187.359 108.133 186.999 107.25C186.635 106.353 186.222 105.474 185.832 104.588C185.637 104.139 185.442 103.691 185.198 103.264C184.95 102.834 184.815 102.322 184.613 101.87C184.264 101.103 184.008 100.292 183.644 99.5252C183.385 98.9755 182.909 98.1791 182.774 97.6145C182.751 97.4948 187.097 97.4013 187.434 97.4013C189.825 97.3901 192.174 97.9286 194.426 98.6801C196.745 99.4541 199.03 100.344 201.244 101.384C203.901 102.625 206.453 103.964 208.246 106.338C209.346 107.796 210.333 109.355 210.967 111.072V111.083Z" fill="#1E3B6E"/>
<path d="M193.683 138.555C195.533 137.904 197.45 137.395 199.21 136.517C200.97 135.638 202.711 134.423 204.291 133.178C207.346 130.762 209.654 127.591 210.779 123.852C211.868 120.24 212.142 116.389 211.162 112.717C210.415 109.928 208.926 106.671 206.64 104.655" stroke="#231F20" stroke-width="0.75" stroke-miterlimit="10"/>
<path d="M194.654 164.014C192.846 164.149 191.033 164.243 189.217 164.261C185.858 164.299 182.455 164.108 179.183 163.319C177.633 162.945 176.109 162.433 174.691 161.7C173.914 161.3 171.062 160.043 171.606 158.828C171.741 158.529 172.101 158.409 172.424 158.338C173.268 158.155 174.12 158.271 174.965 158.35C175.621 158.409 176.237 158.383 176.901 158.499C175.948 157.916 174.987 157.512 173.981 157.045C173.04 156.607 172.131 156.091 171.235 155.571C169.422 154.524 167.812 153.171 166.585 151.47C166.131 150.838 165.774 150.026 166.36 149.51" stroke="#231F20" stroke-width="0.75" stroke-miterlimit="10"/>
<path d="M116.503 173.942C109.992 178.223 102.885 175.292 101.2 167.795C100.607 165.159 100.626 162.429 100.645 159.726C100.682 154.771 101.455 149.738 101.046 144.791C100.791 141.688 98.059 138.02 94.7304 140.817" stroke="#231F20" stroke-width="0.75" stroke-miterlimit="10"/>
<g opacity="0.17">
<path d="M60.5556 111.573C63.2424 104.502 68.2259 98.31 74.4889 94.0623C81.3674 89.3958 89.6569 87.257 97.9501 87.8328C102.723 88.1656 107.444 89.4145 111.737 91.5271C112.191 91.7515 112.754 91.6505 113.021 91.1906C113.264 90.7793 113.141 90.1362 112.683 89.9118C104.555 85.9072 95.1019 84.8452 86.2721 86.8831C78.2453 88.734 70.9465 93.277 65.6103 99.5214C62.6758 102.958 60.3492 106.854 58.7468 111.075C58.5667 111.547 58.9457 112.1 59.4035 112.227C59.9289 112.373 60.3792 112.048 60.5593 111.573H60.5556Z" fill="#FFF4EC"/>
</g>
</g>
<defs>
<clipPath id="clip0_190_185">
<rect width="228" height="241" fill="white"/>
</clipPath>
</defs>
</svg>
