<svg width="24" height="24" viewBox="0 0 24 24" fill="none" xmlns="http://www.w3.org/2000/svg">
<g id="Group 8748">
<circle id="Ellipse 278" cx="12" cy="12" r="12" fill="#AF8E2F"/>
<g id="Group 8749">
<path id="Vector" d="M12 14.52C13.3918 14.52 14.52 13.3918 14.52 12C14.52 10.6082 13.3918 9.48 12 9.48C10.6083 9.48 9.48001 10.6082 9.48001 12C9.48001 13.3918 10.6083 14.52 12 14.52Z" fill="#161742"/>
<path id="Vector_2" d="M12 0C5.37259 0 0 5.37259 0 12C0 18.6274 5.37259 24 12 24C18.6274 24 24 18.6274 24 12C24 5.37259 18.6274 0 12 0ZM19.414 15.0499C19.3564 16.1908 19.0358 17.3158 18.2044 18.1384C17.3649 18.9688 16.2346 19.2782 15.0827 19.3352H8.91734C7.76534 19.2782 6.63514 18.969 5.79566 18.1384C4.96421 17.3158 4.64366 16.1908 4.58606 15.0499V8.95008C4.64366 7.80922 4.96426 6.68419 5.79566 5.86157C6.63514 5.03117 7.76549 4.72176 8.91734 4.66478H15.0827C16.2347 4.72176 17.3649 5.03102 18.2043 5.86157C19.0358 6.68419 19.3563 7.80922 19.4139 8.95008L19.414 15.0499Z" fill="#161742"/>
<path id="Vector_3" d="M15.0049 6.05463C13.5032 6.01345 10.4974 6.01345 8.99571 6.05463C8.21422 6.07609 7.32828 6.27063 6.77148 6.86535C6.19289 7.48354 5.97425 8.23042 5.95208 9.06596C5.9131 10.5325 5.95208 14.9341 5.95208 14.9341C5.97747 15.7695 6.19289 16.5165 6.77148 17.1347C7.32828 17.7296 8.21422 17.9239 8.99571 17.9454C10.4974 17.9866 13.5032 17.9866 15.0049 17.9454C15.7864 17.9239 16.6723 17.7294 17.2291 17.1347C17.8077 16.5165 18.0264 15.7696 18.0486 14.9341V9.06596C18.0264 8.23042 17.8077 7.48354 17.2291 6.86535C16.6722 6.27044 15.7862 6.07609 15.0049 6.05463ZM12.0001 15.906C11.2276 15.906 10.4724 15.6769 9.83007 15.2477C9.18773 14.8185 8.68709 14.2085 8.39145 13.4948C8.09582 12.781 8.01846 11.9957 8.16918 11.238C8.31989 10.4803 8.6919 9.78431 9.23817 9.23805C9.78443 8.69178 10.4804 8.31977 11.2381 8.16906C11.9958 8.01835 12.7812 8.0957 13.4949 8.39133C14.2086 8.68697 14.8186 9.18761 15.2478 9.82995C15.677 10.4723 15.9061 11.2275 15.9061 12C15.9061 13.0359 15.4946 14.0294 14.7621 14.762C14.0296 15.4945 13.0361 15.906 12.0001 15.906ZM15.9227 8.90026C15.7682 8.90022 15.6172 8.85438 15.4888 8.76851C15.3603 8.68265 15.2602 8.56063 15.2011 8.41788C15.142 8.27513 15.1266 8.11807 15.1568 7.96654C15.1869 7.81502 15.2613 7.67584 15.3706 7.5666C15.4799 7.45737 15.6191 7.38299 15.7706 7.35286C15.9221 7.32273 16.0792 7.33821 16.2219 7.39735C16.3647 7.45648 16.4867 7.55661 16.5725 7.68507C16.6583 7.81353 16.7041 7.96456 16.7041 8.11906C16.7041 8.22167 16.6839 8.32327 16.6446 8.41806C16.6054 8.51285 16.5478 8.59898 16.4752 8.67152C16.4027 8.74407 16.3165 8.8016 16.2217 8.84085C16.1269 8.8801 16.0253 8.90029 15.9227 8.90026Z" fill="#161742"/>
</g>
</g>
</svg>
