<svg width="24" height="24" viewBox="0 0 24 24" fill="none" xmlns="http://www.w3.org/2000/svg">
<g id="Layer 2">
<circle id="Ellipse 278" cx="12" cy="12" r="12" fill="#AF8E2F"/>
<path id="Subtract" fill-rule="evenodd" clip-rule="evenodd" d="M12 24C18.6274 24 24 18.6274 24 12C24 5.37258 18.6274 0 12 0C5.37258 0 0 5.37258 0 12C0 18.6274 5.37258 24 12 24ZM12 22C17.5228 22 22 17.5228 22 12C22 6.47715 17.5228 2 12 2C6.47715 2 2 6.47715 2 12C2 17.5228 6.47715 22 12 22Z" fill="#161742"/>
<g id="icon">
<path id="Vector" d="M15.4579 8.54204L15.4329 8.51704C14.6158 7.69958 13.5337 7.20053 12.3814 7.10964C11.2291 7.01876 10.0822 7.342 9.14695 8.02125C8.21171 8.70049 7.54952 9.69114 7.27948 10.815C7.00945 11.9389 7.14929 13.1223 7.67385 14.1523L7.88749 14.5727L7.48976 16.5045L7.48408 16.5295L9.4034 16.075L9.8409 16.2966C10.7512 16.7488 11.7804 16.9043 12.7836 16.7412C13.7869 16.5782 14.7138 16.1047 15.4341 15.3875C16.34 14.4815 16.851 13.254 16.8557 11.9728C16.8604 10.6915 16.3584 9.46036 15.4591 8.54772L15.4579 8.54204ZM15.2625 13.9648C15.0273 14.3352 14.6557 14.7875 14.1886 14.9C13.3704 15.0989 12.1148 14.9068 10.5523 13.4511L10.5329 13.433C9.15908 12.1602 8.80226 11.1 8.88862 10.2591C8.93635 9.78068 9.33408 9.35 9.66931 9.06704C9.7224 9.02204 9.78525 8.99004 9.85287 8.97357C9.92049 8.95711 9.99102 8.95663 10.0589 8.97218C10.1267 8.98773 10.19 9.01889 10.2437 9.06317C10.2974 9.10745 10.34 9.16363 10.3682 9.22727L10.8739 10.3705C10.907 10.4441 10.9193 10.5254 10.9095 10.6055C10.8996 10.6856 10.8681 10.7615 10.8182 10.825L10.5625 11.1568C10.5089 11.2249 10.4766 11.3072 10.4696 11.3934C10.4625 11.4797 10.481 11.5662 10.5227 11.642C10.6659 11.892 11.0091 12.2614 11.3898 12.6045C11.817 12.9898 12.2909 13.3432 12.5909 13.4648C12.6714 13.497 12.7596 13.5045 12.8443 13.4865C12.9291 13.4685 13.0066 13.4258 13.067 13.3636L13.3636 13.0648C13.4209 13.0083 13.492 12.9681 13.5699 12.9481C13.6477 12.9282 13.7295 12.9292 13.8068 12.9511L15.0079 13.292C15.0744 13.3123 15.1353 13.3475 15.186 13.395C15.2366 13.4425 15.2758 13.501 15.3004 13.5659C15.3249 13.6309 15.3343 13.7006 15.3277 13.7697C15.3212 13.8389 15.2988 13.9056 15.2625 13.9648Z" fill="#161742"/>
<path id="Vector_2" d="M12 2C10.0222 2 8.08879 2.58649 6.4443 3.6853C4.79981 4.78412 3.51809 6.3459 2.76121 8.17316C2.00433 10.0004 1.8063 12.0111 2.19215 13.9509C2.578 15.8907 3.53041 17.6725 4.92894 19.0711C6.32746 20.4696 8.10929 21.422 10.0491 21.8078C11.9889 22.1937 13.9996 21.9957 15.8268 21.2388C17.6541 20.4819 19.2159 19.2002 20.3147 17.5557C21.4135 15.9112 22 13.9778 22 12C22 9.34783 20.9464 6.8043 19.0711 4.92893C17.1957 3.05357 14.6522 2 12 2ZM18.1966 12.1477C18.1631 13.1859 17.8693 14.199 17.3422 15.0941C16.8152 15.9891 16.0717 16.7375 15.1801 17.2704C14.2885 17.8033 13.2773 18.1037 12.2394 18.144C11.2015 18.1843 10.17 17.9633 9.23978 17.5011L6.10909 18.2432C6.06164 18.2542 6.01196 18.2507 5.96655 18.2331C5.92113 18.2154 5.8821 18.1845 5.85455 18.1443C5.83595 18.1177 5.82303 18.0875 5.81658 18.0556C5.81013 18.0237 5.81029 17.9909 5.81705 17.9591L6.475 14.7648C6.04584 13.9221 5.81514 12.9924 5.80056 12.0468C5.78597 11.1012 5.98789 10.1648 6.39085 9.30929C6.79382 8.45375 7.38716 7.70173 8.12547 7.11077C8.86377 6.51981 9.72748 6.10558 10.6505 5.89977C11.5735 5.69396 12.5314 5.70202 13.4508 5.92334C14.3702 6.14467 15.2269 6.57338 15.9551 7.17668C16.6834 7.77999 17.264 8.54189 17.6525 9.40409C18.041 10.2663 18.2271 11.2059 18.1966 12.1511V12.1477Z" fill="#161742"/>
</g>
</g>
</svg>
