<svg width="8" height="9" viewBox="0 0 8 9" fill="none" xmlns="http://www.w3.org/2000/svg">
<path d="M1.82312 6.32299L5.39656 2.74986L2.75 2.74986C2.6837 2.74986 2.62011 2.72352 2.57322 2.67664C2.52634 2.62975 2.5 2.56616 2.5 2.49986C2.5 2.43356 2.52634 2.36997 2.57322 2.32308C2.62011 2.2762 2.6837 2.24986 2.75 2.24986L6 2.24986C6.0663 2.24986 6.12989 2.2762 6.17678 2.32308C6.22366 2.36997 6.25 2.43356 6.25 2.49986L6.25 5.74986C6.25 5.81617 6.22366 5.87975 6.17678 5.92664C6.12989 5.97352 6.0663 5.99986 6 5.99986C5.9337 5.99986 5.87011 5.97352 5.82322 5.92664C5.77634 5.87975 5.75 5.81617 5.75 5.74986L5.75 3.1033L2.17688 6.67674C2.15365 6.69996 2.12607 6.71839 2.09572 6.73096C2.06538 6.74353 2.03285 6.75 2 6.75C1.96715 6.75 1.93462 6.74353 1.90428 6.73096C1.87393 6.71839 1.84635 6.69996 1.82312 6.67674C1.7999 6.65351 1.78147 6.62593 1.7689 6.59558C1.75633 6.56524 1.74986 6.53271 1.74986 6.49986C1.74986 6.46701 1.75633 6.43448 1.7689 6.40414C1.78147 6.37379 1.7999 6.34621 1.82312 6.32299Z" fill="#1D478E"/>
</svg>
