<svg width="42" height="42" viewBox="0 0 42 42" fill="none" xmlns="http://www.w3.org/2000/svg">
<path d="M39.9739 20.4559C39.7978 20.8013 39.7978 21.1983 39.9739 21.5437L41.6068 24.7486C42.5155 26.5327 41.7957 28.6589 39.9671 29.5899L36.6835 31.2617C36.3287 31.4422 36.0859 31.7629 36.0166 32.1419L35.3746 35.6552C35.0164 37.6116 33.1322 38.9257 31.0822 38.6477L27.4019 38.1481C27.0052 38.0948 26.612 38.217 26.3239 38.4844L23.6523 40.9642C22.9086 41.654 21.9537 41.9994 20.9996 41.9994C20.0447 41.9994 19.0906 41.654 18.3469 40.9634L15.6753 38.4836C15.3872 38.2162 14.994 38.0931 14.5973 38.1473L10.917 38.6468C10.7332 38.6714 10.5511 38.6837 10.3707 38.6837C8.54127 38.6837 6.95031 37.4353 6.6246 35.6544L5.98257 32.1411C5.91333 31.7621 5.66968 31.4413 5.31576 31.2609L2.03212 29.5891C0.203502 28.6589 -0.516317 26.5319 0.392433 24.7477L2.02528 21.5437C2.20139 21.1983 2.20139 20.8013 2.02528 20.4559L0.393288 17.2519C-0.515462 15.4677 0.204357 13.3415 2.03297 12.4105L5.31661 10.7387C5.67054 10.5582 5.91333 10.2375 5.98257 9.85853L6.6246 6.3452C6.98194 4.38879 8.86784 3.07468 10.917 3.35276L14.5973 3.85232C14.994 3.90564 15.3872 3.78341 15.6753 3.516L18.3469 1.03542C19.8344 -0.34514 22.1648 -0.34514 23.6523 1.03542L26.3239 3.51518C26.612 3.78259 27.0044 3.90564 27.4019 3.8515L31.0822 3.35194C33.1314 3.07386 35.0173 4.38797 35.3746 6.34438L36.0166 9.85771C36.0868 10.2367 36.3295 10.5574 36.6835 10.7379L39.9671 12.4097C41.7957 13.3399 42.5155 15.4669 41.6068 17.251L39.9739 20.4559Z" fill="#161742"/>
<path d="M20.8166 21.9771L27.963 14.8299C28.3284 14.4644 28.3284 13.8719 27.963 13.5064C27.5975 13.1409 27.0051 13.1409 26.6396 13.5064L13.0085 27.1389C12.643 27.5044 12.643 28.097 13.0085 28.4625C13.3739 28.8279 13.9664 28.8279 14.3318 28.4625L20.8166 21.9771Z" stroke="#AF8E2F" stroke-width="0.6" stroke-miterlimit="10" stroke-linecap="round" stroke-linejoin="round"/>
<path d="M19.5174 15.7591C19.5174 17.8352 17.8346 19.5182 15.7587 19.5182C13.6828 19.5182 12 17.8352 12 15.7591C12 13.683 13.6828 12 15.7587 12C17.8346 12 19.5174 13.683 19.5174 15.7591Z" stroke="#AF8E2F" stroke-width="0.6" stroke-miterlimit="10" stroke-linecap="round" stroke-linejoin="round"/>
<path d="M17.6464 15.7591C17.6464 16.8015 16.8015 17.6465 15.7592 17.6465C14.717 17.6465 13.8721 16.8015 13.8721 15.7591C13.8721 14.7168 14.717 13.8718 15.7592 13.8718C16.8015 13.8718 17.6464 14.7168 17.6464 15.7591Z" stroke="#AF8E2F" stroke-width="0.6" stroke-miterlimit="10" stroke-linecap="round" stroke-linejoin="round"/>
<path d="M29 26.2409C29 28.317 27.3172 30 25.2413 30C23.1654 30 21.4826 28.317 21.4826 26.2409C21.4826 24.1648 23.1654 22.4818 25.2413 22.4818C27.3172 22.4818 29 24.1648 29 26.2409Z" stroke="#AF8E2F" stroke-width="0.6" stroke-miterlimit="10" stroke-linecap="round" stroke-linejoin="round"/>
<path d="M27.1298 26.2408C27.1298 27.2832 26.2849 28.1282 25.2426 28.1282C24.2004 28.1282 23.3555 27.2832 23.3555 26.2408C23.3555 25.1985 24.2004 24.3535 25.2426 24.3535C26.2849 24.3535 27.1298 25.1985 27.1298 26.2408Z" stroke="#AF8E2F" stroke-width="0.6" stroke-miterlimit="10" stroke-linecap="round" stroke-linejoin="round"/>
</svg>
