<svg xmlns="http://www.w3.org/2000/svg" width="22" height="23.092" viewBox="0 0 22 23.092">
  <g id="building" transform="translate(0 0.132)">
    <path id="Path_6397" data-name="Path 6397" d="M8.891,7V9.209H6.682v5.155H3V25.41H22.146V13.628H19.937V9.946H15.519V7Z" transform="translate(-1.527 -2.582)" fill="#576d7e"/>
    <path id="Path_6398" data-name="Path 6398" d="M6.05,1021.362a1.5,1.5,0,0,0-1.21.619.916.916,0,0,0-1.427.885.574.574,0,0,0-.918.337H2.483a.921.921,0,0,0,0,1.841h4.6a.919.919,0,0,0,.395-1.75,1.494,1.494,0,0,0-1.43-1.932Z" transform="translate(-1.148 -1021.362)" fill="#cad1d8"/>
    <rect id="Rectangle_2269" data-name="Rectangle 2269" width="5" height="12" transform="translate(4 10.5)" fill="#60c5b8"/>
    <rect id="Rectangle_2270" data-name="Rectangle 2270" width="5.891" height="1.473" transform="translate(3.682 9.573)" fill="#25b39e"/>
    <path id="Path_6399" data-name="Path 6399" d="M22,1031.571v-2.209" transform="translate(-6.536 -1023.47)" fill="none" stroke="#4bbfeb" stroke-width="1"/>
    <path id="Path_6400" data-name="Path 6400" d="M8.5,1037.862h2.209M8.5,1039.335h2.209M8.5,1040.808h2.209M8.5,1042.281h2.209M8.5,1043.753h2.209M8.5,1045.226h2.209M8.5,1046.7h2.209" transform="translate(-2.977 -1025.711)" fill="none" stroke="#34485c" stroke-width="1"/>
    <path id="Path_6401" data-name="Path 6401" d="M27.515,1021.934a1.026,1.026,0,0,0-.83.424.628.628,0,0,0-.979.607.394.394,0,0,0-.63.231h-.008a.631.631,0,0,0,0,1.262h3.156a.63.63,0,0,0,.271-1.2,1.025,1.025,0,0,0-.981-1.325Z" transform="translate(-7.178 -1021.512)" fill="#cad1d8"/>
    <path id="Path_6402" data-name="Path 6402" d="M4.883,1026.649H7.092m-2.946,0H3.41m-.736,0H1.938m9.573-3.314h.736m.736,0h.736m.736,0h.736m-1.473-1.473h2.946m.736,0h.736" transform="translate(-1.247 -1021.494)" fill="none" stroke="#cad1d8" stroke-width="1"/>
    <path id="Path_6403" data-name="Path 6403" d="M20.062,1034.024v-1.662h2.946v1.662" transform="translate(-6.025 -1024.261)" fill="#4bbfeb"/>
    <rect id="Rectangle_2271" data-name="Rectangle 2271" width="4.418" height="12.887" transform="translate(13.255 9.573)" fill="#78c8f0"/>
    <path id="Path_6404" data-name="Path 6404" d="M21,1035.362v.736m0,.736v.736m0,.736v.736m0,.736v.736m0,.736v.736m0,.736v.736m0,.736v.736m0,.736v.736m1.473-11.046v.736m0,.736v.736m0,.736v.736m0,.736v.736m0,.736v.736m0,.736v.736m0,.736v.736m0,.736v.736" transform="translate(-6.272 -1025.052)" fill="#4bbfeb" stroke="#34485c" stroke-width="1"/>
    <path id="Path_6405" data-name="Path 6405" d="M1,1051.862H23" transform="translate(-1 -1029.402)" fill="none" stroke="#2b4255" stroke-width="1"/>
  </g>
</svg>
