<svg xmlns="http://www.w3.org/2000/svg" width="20.9" height="24" viewBox="0 0 20.9 24">
  <g id="Group_6144" data-name="Group 6144" transform="translate(-48.379 -45.826)">
    <path id="Path_5035" data-name="Path 5035" d="M118.415,91.359a5.626,5.626,0,0,1,1.7-2.6,6.823,6.823,0,0,0,2.451-5.246,6.9,6.9,0,1,0-11.354,5.246,5.361,5.361,0,0,1,1.751,2.6Z" transform="translate(-56.835 -27.196)" fill="#ffda86"/>
    <path id="Path_5036" data-name="Path 5036" d="M201.067,224.828h.45l-2-7.445h.15a.986.986,0,0,0,.7-.3.483.483,0,0,1,.7,0,.854.854,0,0,0,1.3,0,.454.454,0,0,1,.35-.15.54.54,0,0,1,.35.15.907.907,0,0,0,.7.3h.15l-1.949,7.445h.45l2.049-7.795c0-.1,0-.2-.1-.25a.22.22,0,0,0-.25.05.432.432,0,0,1-.3.15.664.664,0,0,1-.4-.15.854.854,0,0,0-1.3,0,.483.483,0,0,1-.7,0,.806.806,0,0,0-.65-.3h0a.806.806,0,0,0-.65.3.567.567,0,0,1-.4.15.356.356,0,0,1-.3-.15.22.22,0,0,0-.25-.05.182.182,0,0,0-.1.25Z" transform="translate(-142.887 -160.554)" fill="#fff"/>
    <g id="Group_5124" data-name="Group 5124" transform="translate(56.131 64.13)">
      <path id="Path_5037" data-name="Path 5037" d="M222.933,489.6a1.668,1.668,0,0,0,3.1,0Z" transform="translate(-221.784 -484.953)" fill="#363840"/>
      <path id="Path_5038" data-name="Path 5038" d="M202.947,395.1H199.3a.9.9,0,0,1-.9-.9v-3.8h5.446v3.8A.9.9,0,0,1,202.947,395.1Z" transform="translate(-198.4 -390.4)" fill="#363840"/>
    </g>
    <g id="Group_5125" data-name="Group 5125" transform="translate(55.582 64.93)">
      <path id="Path_5039" data-name="Path 5039" d="M192.613,408.566h-5.4a.554.554,0,0,1-.55-.55h0a.555.555,0,0,1,.55-.55h5.4a.555.555,0,0,1,.55.55h0A.554.554,0,0,1,192.613,408.566Z" transform="translate(-186.667 -407.467)" fill="#707070"/>
      <path id="Path_5040" data-name="Path 5040" d="M192.613,445.9h-5.4a.554.554,0,0,1-.55-.55h0a.554.554,0,0,1,.55-.55h5.4a.554.554,0,0,1,.55.55h0A.555.555,0,0,1,192.613,445.9Z" transform="translate(-186.667 -443.052)" fill="#707070"/>
    </g>
    <g id="Group_5126" data-name="Group 5126" transform="translate(48.379 45.826)">
      <path id="Path_5041" data-name="Path 5041" d="M245.833,0a.5.5,0,0,0-.5.5V2.2a.5.5,0,0,0,.5.5.472.472,0,0,0,.5-.5V.5A.5.5,0,0,0,245.833,0Z" transform="translate(-235.383)" fill="#ffda86"/>
      <path id="Path_5042" data-name="Path 5042" d="M95.784,62.017a.495.495,0,0,0-.7.7l1.2,1.2a.495.495,0,0,0,.7-.7Z" transform="translate(-92.036 -58.966)" fill="#ffda86"/>
      <path id="Path_5043" data-name="Path 5043" d="M35.265,212.267h-1.7a.5.5,0,0,0-.5.5h0a.5.5,0,0,0,.5.5h1.7a.5.5,0,0,0,.5-.5h0A.537.537,0,0,0,35.265,212.267Z" transform="translate(-33.066 -202.314)" fill="#ffda86"/>
      <path id="Path_5044" data-name="Path 5044" d="M96.282,337.217l-1.2,1.2a.495.495,0,0,0,.7.7l1.2-1.2a.495.495,0,1,0-.7-.7Z" transform="translate(-92.035 -321.262)" fill="#ffda86"/>
      <path id="Path_5045" data-name="Path 5045" d="M370.982,337.217a.495.495,0,0,0-.7.7l1.2,1.2a.495.495,0,0,0,.7-.7Z" transform="translate(-354.329 -321.261)" fill="#ffda86"/>
      <path id="Path_5046" data-name="Path 5046" d="M423.532,212.267h-1.7a.5.5,0,0,0-.5.5h0a.5.5,0,0,0,.5.5h1.7a.5.5,0,0,0,.5-.5h0A.5.5,0,0,0,423.532,212.267Z" transform="translate(-403.131 -202.314)" fill="#ffda86"/>
      <path id="Path_5047" data-name="Path 5047" d="M371.482,62.017l-1.2,1.2a.495.495,0,0,0,.7.7l1.2-1.2a.495.495,0,0,0-.7-.7Z" transform="translate(-354.329 -58.966)" fill="#ffda86"/>
    </g>
  </g>
</svg>
