<svg width="30" height="30" viewBox="0 0 30 30" fill="none" xmlns="http://www.w3.org/2000/svg">
<path d="M29.5 11.5L28 0.45C27.95 0.2 27.75 0 27.5 0H2.5C2.25 0 2.05 0.2 2 0.45L0.5 11.45V11.5C0.5 12.75 1.1 13.9 2 14.6V24.5H0V30H2H13H18H26H28V14.6C28.9 13.9 29.45 12.8 29.5 11.6C29.5 11.55 29.5 11.55 29.5 11.5ZM28.4 11H22.45L21.55 1H27.05L28.4 11ZM15.5 1H20.55L21.45 11H15.5V1ZM14.5 11H8.55L9.45 1H14.5V11ZM14.45 12C14.2 13.4 13 14.5 11.5 14.5C10 14.5 8.8 13.4 8.55 12H14.45ZM21.45 12C21.2 13.4 20 14.5 18.5 14.5C17 14.5 15.8 13.4 15.55 12H21.45ZM2.95 1H8.45L7.55 11H1.55L2.95 1ZM1.55 12H7.45C7.2 13.4 6 14.5 4.5 14.5C3 14.5 1.8 13.4 1.55 12ZM5 29H1V25.5H12V29H5ZM19 29V19C19 18.15 19.65 17.5 20.5 17.5H23.5C24.35 17.5 25 18.15 25 19V29H19ZM27 29H26V19C26 17.6 24.9 16.5 23.5 16.5H20.5C19.1 16.5 18 17.6 18 19V29H13V24.5H3V15.2C3.45 15.4 3.95 15.5 4.5 15.5C6 15.5 7.3 14.65 8 13.45C8.7 14.7 10 15.5 11.5 15.5C13 15.5 14.3 14.65 15 13.45C15.7 14.7 17 15.5 18.5 15.5C20 15.5 21.3 14.65 22 13.45C22.7 14.7 24 15.5 25.5 15.5C26.05 15.5 26.55 15.4 27 15.2V29ZM25.5 14.5C24 14.5 22.8 13.4 22.55 12H28.45C28.2 13.4 27 14.5 25.5 14.5Z" fill="#707070"/>
<path d="M20.5 24.5C20.7761 24.5 21 24.2761 21 24C21 23.7239 20.7761 23.5 20.5 23.5C20.2239 23.5 20 23.7239 20 24C20 24.2761 20.2239 24.5 20.5 24.5Z" fill="#707070"/>
</svg>
