<svg width="20" height="18" viewBox="0 0 20 18" fill="none" xmlns="http://www.w3.org/2000/svg">
<path d="M3.12101 17.5C2.66067 17.5 2.27634 17.3458 1.96801 17.0375C1.65967 16.7292 1.50551 16.3448 1.50551 15.8845V7.85775C1.08367 7.54625 0.775006 7.13792 0.579506 6.63275C0.384006 6.12758 0.379839 5.5885 0.567006 5.0155L1.54026 1.80775C1.67359 1.40008 1.88859 1.08017 2.18526 0.848C2.48209 0.616 2.84909 0.5 3.28626 0.5H16.6863C17.1234 0.5 17.4894 0.608666 17.7843 0.825999C18.0793 1.04333 18.2953 1.35775 18.4325 1.76925L19.444 5.0155C19.6312 5.5885 19.627 6.13208 19.4315 6.64625C19.236 7.16025 18.9273 7.57692 18.5055 7.89625V15.8845C18.5055 16.3448 18.3513 16.7292 18.043 17.0375C17.7347 17.3458 17.3504 17.5 16.8903 17.5H3.12101ZM12.2055 7.5C12.8478 7.5 13.3273 7.32017 13.644 6.9605C13.9607 6.601 14.094 6.22958 14.044 5.84625L13.3785 1.5H10.5055V5.7C10.5055 6.191 10.6734 6.61375 11.0093 6.96825C11.3453 7.32275 11.744 7.5 12.2055 7.5ZM7.70551 7.5C8.24267 7.5 8.67701 7.32275 9.00851 6.96825C9.33984 6.61375 9.50551 6.191 9.50551 5.7V1.5H6.63251L5.96701 5.923C5.92601 6.23333 6.06159 6.57375 6.37376 6.94425C6.68592 7.31475 7.12984 7.5 7.70551 7.5ZM3.25551 7.5C3.69651 7.5 4.07117 7.35 4.37951 7.05C4.68784 6.75 4.87984 6.37567 4.95551 5.927L5.58251 1.5H3.28626C3.06826 1.5 2.89517 1.54808 2.76701 1.64425C2.63884 1.74042 2.54267 1.88467 2.47851 2.077L1.55551 5.2345C1.39134 5.76017 1.46151 6.26917 1.76601 6.7615C2.07051 7.25383 2.56701 7.5 3.25551 7.5ZM16.7555 7.5C17.3542 7.5 17.8324 7.26667 18.1903 6.8C18.5479 6.33333 18.6363 5.8115 18.4555 5.2345L17.4825 2.0385C17.4183 1.84617 17.3222 1.70833 17.194 1.625C17.0658 1.54167 16.8928 1.5 16.6748 1.5H14.4285L15.0555 5.927C15.1312 6.37567 15.3232 6.75 15.6315 7.05C15.9398 7.35 16.3145 7.5 16.7555 7.5ZM3.12101 16.5H16.8903C17.0696 16.5 17.217 16.4423 17.3325 16.327C17.4478 16.2115 17.5055 16.064 17.5055 15.8845V8.373C17.3708 8.41917 17.2429 8.45192 17.1218 8.47125C17.0008 8.49042 16.8787 8.5 16.7555 8.5C16.3055 8.5 15.9097 8.41217 15.568 8.2365C15.2263 8.06083 14.9017 7.78075 14.594 7.39625C14.3325 7.72175 14.0101 7.98708 13.6268 8.19225C13.2434 8.39742 12.7773 8.5 12.2285 8.5C11.8298 8.5 11.4507 8.40708 11.091 8.22125C10.7315 8.03525 10.3697 7.76025 10.0055 7.39625C9.67084 7.76025 9.30001 8.03525 8.89301 8.22125C8.48601 8.40708 8.09784 8.5 7.72851 8.5C7.30934 8.5 6.90076 8.41983 6.50276 8.2595C6.10459 8.09933 5.75551 7.81158 5.45551 7.39625C4.96451 7.88725 4.53534 8.19392 4.16801 8.31625C3.80067 8.43875 3.49651 8.5 3.25551 8.5C3.13251 8.5 3.00851 8.49042 2.88351 8.47125C2.75851 8.45192 2.63251 8.41917 2.50551 8.373V15.8845C2.50551 16.064 2.56317 16.2115 2.67851 16.327C2.79401 16.4423 2.94151 16.5 3.12101 16.5Z" fill="#1D478E"/>
</svg>
