<svg width="24" height="24" viewBox="0 0 24 24" fill="none" xmlns="http://www.w3.org/2000/svg">
<mask id="mask0_351_8396" style="mask-type:alpha" maskUnits="userSpaceOnUse" x="0" y="0" width="24" height="24">
<rect width="24" height="24" fill="#D9D9D9"/>
</mask>
<g mask="url(#mask0_351_8396)">
<path d="M17.7308 12.4615C17.8731 12.4615 17.992 12.4138 18.0875 12.3183C18.183 12.2228 18.2308 12.1038 18.2308 11.9615C18.2308 11.8192 18.183 11.7003 18.0875 11.6048C17.992 11.5093 17.8731 11.4615 17.7308 11.4615H14.6538C14.5116 11.4615 14.3927 11.5093 14.297 11.6048C14.2015 11.7003 14.1538 11.8192 14.1538 11.9615C14.1538 12.1038 14.2015 12.2228 14.297 12.3183C14.3927 12.4138 14.5116 12.4615 14.6538 12.4615H17.7308ZM17.7308 9.69225C17.8731 9.69225 17.992 9.6445 18.0875 9.549C18.183 9.4535 18.2308 9.33458 18.2308 9.19225C18.2308 9.04992 18.183 8.931 18.0875 8.8355C17.992 8.74 17.8731 8.69225 17.7308 8.69225H14.6538C14.5116 8.69225 14.3927 8.74 14.297 8.8355C14.2015 8.931 14.1538 9.04992 14.1538 9.19225C14.1538 9.33458 14.2015 9.4535 14.297 9.549C14.3927 9.6445 14.5116 9.69225 14.6538 9.69225H17.7308ZM9.077 13.3077C8.52817 13.3077 8.06342 13.3458 7.68275 13.422C7.30192 13.4983 6.96025 13.6212 6.65775 13.7905C6.39742 13.9302 6.20125 14.083 6.06925 14.249C5.93725 14.415 5.87125 14.5922 5.87125 14.7808C5.87125 14.9294 5.93017 15.0544 6.048 15.1558C6.166 15.2571 6.31408 15.3077 6.49225 15.3077H11.6615C11.8397 15.3077 11.9878 15.2529 12.1058 15.1433C12.2238 15.0336 12.2828 14.9025 12.2828 14.75C12.2828 14.582 12.2199 14.4192 12.0942 14.2615C11.9686 14.1038 11.7692 13.9468 11.4963 13.7905C11.1936 13.6212 10.8519 13.4983 10.4713 13.422C10.0904 13.3458 9.62567 13.3077 9.077 13.3077ZM9.077 11.6923C9.49867 11.6923 9.85408 11.5478 10.1433 11.2588C10.4324 10.9696 10.577 10.6141 10.577 10.1923C10.577 9.77042 10.4324 9.415 10.1433 9.126C9.85408 8.83683 9.49867 8.69225 9.077 8.69225C8.65517 8.69225 8.29967 8.83683 8.0105 9.126C7.7215 9.415 7.577 9.77042 7.577 10.1923C7.577 10.6141 7.7215 10.9696 8.0105 11.2588C8.29967 11.5478 8.65517 11.6923 9.077 11.6923ZM4.6155 19C4.15517 19 3.77083 18.8458 3.4625 18.5375C3.15417 18.2292 3 17.8448 3 17.3845V6.6155C3 6.15517 3.15417 5.77083 3.4625 5.4625C3.77083 5.15417 4.15517 5 4.6155 5H19.3845C19.8448 5 20.2292 5.15417 20.5375 5.4625C20.8458 5.77083 21 6.15517 21 6.6155V17.3845C21 17.8448 20.8458 18.2292 20.5375 18.5375C20.2292 18.8458 19.8448 19 19.3845 19H4.6155ZM4.6155 18H19.3845C19.5385 18 19.6796 17.9359 19.8078 17.8077C19.9359 17.6796 20 17.5385 20 17.3845V6.6155C20 6.4615 19.9359 6.32042 19.8078 6.19225C19.6796 6.06408 19.5385 6 19.3845 6H4.6155C4.4615 6 4.32042 6.06408 4.19225 6.19225C4.06408 6.32042 4 6.4615 4 6.6155V17.3845C4 17.5385 4.06408 17.6796 4.19225 17.8077C4.32042 17.9359 4.4615 18 4.6155 18Z" fill="#1D478E"/>
</g>
</svg>
