<svg width="30" height="30" viewBox="0 0 30 30" fill="none" xmlns="http://www.w3.org/2000/svg">
<g id="Chinese coin" clip-path="url(#clip0_211_28720)">
<g id="Group">
<path id="Vector" d="M15 0C6.72896 0 0 6.72896 0 15C0 23.271 6.72896 30 15 30C23.271 30 30 23.271 30 15C30 6.72896 23.271 0 15 0Z" fill="#FFF3EB"/>
</g>
<g id="Group_2">
<path id="Vector_2" d="M15 0C6.72896 0 0 6.72896 0 15C0 23.271 6.72896 30 15 30C23.271 30 30 23.271 30 15C30 6.72896 23.271 0 15 0Z" fill="#FFF3EB"/>
</g>
<path id="&#226;&#130;&#185;" d="M15.1957 21L12 15.916V15.2381H12.372C13.2738 15.2381 13.9614 15.12 14.4348 14.8838C14.9195 14.6475 15.2013 14.2213 15.2802 13.605H12V12.619H15.2633C15.1506 12.0439 14.8519 11.6279 14.3671 11.3711C13.8937 11.1144 13.2287 10.986 12.372 10.986H12V10H19V10.986H15.8043C16.3454 11.3866 16.6667 11.9309 16.7681 12.619H19V13.605H16.8019C16.723 14.3548 16.4074 14.9402 15.8551 15.3613C15.314 15.7722 14.5926 16.0341 13.6908 16.1471L16.9203 21H15.1957Z" fill="#AF8E2F"/>
<circle id="Ellipse 290" cx="15" cy="15" r="12.6571" stroke="#AF8E2F" stroke-width="0.4"/>
</g>
<defs>
<clipPath id="clip0_211_28720">
<rect width="30" height="30" fill="white"/>
</clipPath>
</defs>
</svg>
