<svg id="city" xmlns="http://www.w3.org/2000/svg" width="24.936" height="19.744" viewBox="0 0 24.936 19.744">
  <path id="Path_6392" data-name="Path 6392" d="M-134,1285.869v2.359" transform="translate(151.143 -1275.082)" fill="none" stroke="#ee6276" stroke-linejoin="round" stroke-width="1"/>
  <path id="Path_6393" data-name="Path 6393" d="M-156,1291.732v-18.9h2.494v4.826h3.137v-2.413h1.609v-.8h2.413v.8h1.609v4.837h4.022v-8.055h4.022v7.239h2.413v-5.631h3.217v18.1" transform="translate(156 -1272.025)" fill="#d2dce9"/>
  <path id="Path_6394" data-name="Path 6394" d="M-156,1293.609l.039-7.829h1.87v1.558h2.377v-3.507h1.879v-1.558h2.554v1.558h1.412v-3.47h3.117v3.9h3.117v-2.338h2.338v1.911h3.117v1.559h3.117v8.218" transform="translate(156 -1273.866)" fill="#f0f4f7"/>
  <path id="Path_6395" data-name="Path 6395" d="M-144.5,1289.362h8.572v6.234H-144.5Z" transform="translate(153.461 -1275.852)" fill="#ee6276"/>
  <path id="Path_6396" data-name="Path 6396" d="M-140.435,1283.362l5.065,4.675H-145.5Z" transform="translate(153.682 -1274.528)" fill="#0c5286"/>
  <rect id="Rectangle_2268" data-name="Rectangle 2268" width="2.338" height="3.117" transform="translate(12.078 16.626)" fill="#0c5286"/>
</svg>
