<svg width="24" height="24" viewBox="0 0 24 24" fill="none" xmlns="http://www.w3.org/2000/svg">
<mask id="mask0_0_11964" style="mask-type:alpha" maskUnits="userSpaceOnUse" x="0" y="0" width="24" height="24">
<rect width="24" height="24" fill="#D9D9D9"/>
</mask>
<g mask="url(#mask0_0_11964)">
<path d="M2.73047 19.3463V4.32701C2.73047 4.18984 2.76064 4.06643 2.82097 3.95676C2.88114 3.84709 2.96505 3.74868 3.07272 3.66151L6.76522 1.08451C6.90655 0.989677 7.0608 0.942261 7.22797 0.942261C7.39497 0.942261 7.55097 0.989677 7.69597 1.08451L11.3882 3.66151C11.4959 3.74868 11.5799 3.84709 11.6402 3.95676C11.7004 4.06643 11.7305 4.18984 11.7305 4.32701V7.15376H20.4612C20.6901 7.15376 20.8819 7.23118 21.0367 7.38601C21.1916 7.54084 21.269 7.73268 21.269 7.96151V19.3463C21.269 19.5751 21.1916 19.7669 21.0367 19.9218C20.8819 20.0764 20.6901 20.1538 20.4612 20.1538H3.53822C3.30939 20.1538 3.11755 20.0764 2.96272 19.9218C2.80789 19.7669 2.73047 19.5751 2.73047 19.3463ZM3.73047 19.1538H6.73047V16.1538H3.73047V19.1538ZM3.73047 15.1538H6.73047V12.1538H3.73047V15.1538ZM3.73047 11.1538H6.73047V8.15376H3.73047V11.1538ZM3.73047 7.15376H6.73047V4.15376H3.73047V7.15376ZM7.73047 7.15376H10.7305V4.15376H7.73047V7.15376ZM7.73047 19.1538H20.269V8.15376H7.73047V19.1538ZM14.6152 11.1538H16.9997C17.1414 11.1538 17.2601 11.2018 17.356 11.2978C17.4518 11.3938 17.4997 11.5127 17.4997 11.6545C17.4997 11.7963 17.4518 11.915 17.356 12.0105C17.2601 12.106 17.1414 12.1538 16.9997 12.1538H14.6152C14.4736 12.1538 14.3548 12.1058 14.259 12.01C14.1631 11.914 14.1152 11.7951 14.1152 11.6533C14.1152 11.5114 14.1631 11.3927 14.259 11.297C14.3548 11.2015 14.4736 11.1538 14.6152 11.1538ZM14.6152 15.1538H16.9997C17.1414 15.1538 17.2601 15.2018 17.356 15.2978C17.4518 15.3938 17.4997 15.5127 17.4997 15.6545C17.4997 15.7963 17.4518 15.915 17.356 16.0105C17.2601 16.106 17.1414 16.1538 16.9997 16.1538H14.6152C14.4736 16.1538 14.3548 16.1058 14.259 16.01C14.1631 15.914 14.1152 15.7951 14.1152 15.6533C14.1152 15.5114 14.1631 15.3927 14.259 15.297C14.3548 15.2015 14.4736 15.1538 14.6152 15.1538ZM11.7305 11.6545C11.7305 11.7963 11.6825 11.915 11.5865 12.0105C11.4906 12.106 11.3717 12.1538 11.2297 12.1538C11.0879 12.1538 10.9692 12.1058 10.8737 12.01C10.7782 11.914 10.7305 11.7951 10.7305 11.6533C10.7305 11.5114 10.7785 11.3927 10.8745 11.297C10.9705 11.2015 11.0894 11.1538 11.2312 11.1538C11.3731 11.1538 11.4917 11.2018 11.5872 11.2978C11.6827 11.3938 11.7305 11.5127 11.7305 11.6545ZM11.2297 16.1538C11.0879 16.1538 10.9692 16.1058 10.8737 16.01C10.7782 15.914 10.7305 15.7951 10.7305 15.6533C10.7305 15.5114 10.7785 15.3927 10.8745 15.297C10.9705 15.2015 11.0894 15.1538 11.2312 15.1538C11.3731 15.1538 11.4917 15.2018 11.5872 15.2978C11.6827 15.3938 11.7305 15.5127 11.7305 15.6545C11.7305 15.7963 11.6825 15.915 11.5865 16.0105C11.4906 16.106 11.3717 16.1538 11.2297 16.1538Z" fill="#1D478E"/>
</g>
</svg>
