<svg id="CKYC_missing" data-name="CKYC missing" xmlns="http://www.w3.org/2000/svg" width="252.316" height="253.209" viewBox="0 0 252.316 253.209">
  <g id="arranging-files" transform="translate(8.447 9.882)">
    <path id="Path_6884" data-name="Path 6884" d="M383.538,547.728q-10.568,1.223-21.161,2.132a3.766,3.766,0,0,0,.253.456c.746,1.109,2.254,1.325,3.489,1.842s2.4,2.018,1.585,3.081a2.687,2.687,0,0,1-1.777.787l-7.292,1.223c-8.877,1.484-18.251,2.926-26.668-.273-3.481-1.329-3.725-3.33-2.511-5.017-45.119,1.956-90.446.465-135.626-1.031-3.668,0-7.768-.982-8.751-4.683,23.281-10.463,45.861-10.532,71.065-11.2l88.64-2.356a7.966,7.966,0,0,1,4.439.746c1.3.8,2.038,2.327,3.126,3.456,3.261,3.4,8.714,2.678,13.405,2.331a51.62,51.62,0,0,1,20.228,2.572,3.874,3.874,0,0,1,2.315,1.516C389.537,545.572,386.1,547.427,383.538,547.728Z" transform="translate(-170.259 -315.568)" fill="#1d2741" opacity="0.18"/>
    <path id="Path_6885" data-name="Path 6885" d="M258.024.874C244.29,3.482,232.23,10.913,221.749,19.389S202,37.516,191.347,45.8C174.839,58.66,153.672,70.167,149.5,89.54c-3.357,15.545,5.7,31.076,6.112,46.911.263,11.976-4.392,23.6-5.412,35.554-.983,11.771,1.961,24.243,10.476,33.168,12.145,12.736,32.913,15.72,51.3,13.321s35.677-9.219,53.8-12.834c21.835-4.358,44.517-4,66.766-1.852,13.607,1.319,27.825,3.231,40.619-1.182a41.824,41.824,0,0,0,24.666-23.048c4.326-10.325,4.166-21.964.47-32.476-5.111-14.559-16.456-26.582-23.683-40.381-6.15-11.733-9.23-24.559-12.615-37.184-2.243-8.361-4.819-17.021-11.03-23.522-7.123-7.461-17.867-10.943-27.421-15.681C300.491,18.894,288.181-4.845,258.024.874Z" transform="translate(-157.204 -9.881)" fill="#d9d9d9" opacity="0.18"/>
    <path id="Path_6886" data-name="Path 6886" d="M101.021,36.49h70.662V254.442H101.021A12.871,12.871,0,0,1,88.15,241.571V49.361A12.871,12.871,0,0,1,101.021,36.49Z" transform="translate(-52.212 -21.618)" fill="#68e1fd"/>
    <path id="Path_6887" data-name="Path 6887" d="M101.021,36.49h70.662V254.442H101.021A12.871,12.871,0,0,1,88.15,241.571V49.361A12.871,12.871,0,0,1,101.021,36.49Z" transform="translate(-52.212 -21.618)" fill="#72a2c1" style="mix-blend-mode: normal;isolation: isolate"/>
    <rect id="Rectangle_2337" data-name="Rectangle 2337" width="123.525" height="217.952" rx="37.29" transform="translate(41.436 14.872)" fill="#3e8fc2"/>
    <path id="Path_6888" data-name="Path 6888" d="M378.65,57.4v181.29a7.779,7.779,0,0,1-7.859,7.7h-99.25a7.774,7.774,0,0,1-7.851-7.7V57.4a7.778,7.778,0,0,1,7.855-7.7h19.624v2.421a7.824,7.824,0,0,0,7.9,7.744h44.038a7.824,7.824,0,0,0,7.9-7.744V49.7h19.778A7.783,7.783,0,0,1,378.65,57.4Z" transform="translate(-216.829 -29.444)" fill="#fff"/>
    <rect id="Rectangle_2338" data-name="Rectangle 2338" width="24.341" height="2.246" rx="1.123" transform="translate(91.03 20.928)" fill="#72a2c1"/>
    <path id="Path_6889" data-name="Path 6889" d="M363.615,49.7l12.46,181.32a15.171,15.171,0,0,1-14.969,15.364H263.69V58.219a8.629,8.629,0,0,1,2.43-6.025,8.188,8.188,0,0,1,5.87-2.494h20.734v2.679a8.46,8.46,0,0,0,8.348,8.568h42.464c4.1,0,6.265-4.235,7.778-8.568.071-.166,0-2.158,0-2.679h12.3Z" transform="translate(-216.829 -29.444)" fill="#fff"/>
    <rect id="Rectangle_2339" data-name="Rectangle 2339" width="129.284" height="43.093" rx="18.32" transform="translate(61.64 92.528)" fill="#68e1fd"/>
    <rect id="Rectangle_2340" data-name="Rectangle 2340" width="129.284" height="43.093" rx="18.32" transform="translate(61.64 92.528)" fill="#72a2c1" style="mix-blend-mode: normal;isolation: isolate"/>
    <rect id="Rectangle_2341" data-name="Rectangle 2341" width="129.284" height="43.093" rx="18.32" transform="translate(63.881 89.833)" fill="#fff"/>
    <rect id="Rectangle_2342" data-name="Rectangle 2342" width="19.336" height="19.336" transform="translate(58.371 41.91)" fill="#cedcff"/>
    <rect id="Rectangle_2343" data-name="Rectangle 2343" width="27.295" height="27.295" rx="9.49" transform="translate(71.695 97.736)" fill="#2b478b"/>
    <rect id="Rectangle_2344" data-name="Rectangle 2344" width="19.336" height="19.336" transform="translate(58.371 65.872)" fill="#cedcff"/>
    <rect id="Rectangle_2345" data-name="Rectangle 2345" width="19.336" height="19.336" transform="translate(58.371 142.069)" fill="#cedcff"/>
    <rect id="Rectangle_2346" data-name="Rectangle 2346" width="19.336" height="19.336" transform="translate(58.371 166.03)" fill="#cedcff"/>
    <path id="Path_6890" data-name="Path 6890" d="M351.9,266.532v3.627a3.868,3.868,0,0,1-3.868,3.868H328.468a3.868,3.868,0,0,1-3.868-3.868v-3.627a26.876,26.876,0,0,1,10.813-4.2,5.784,5.784,0,1,1,5.576.049A33.356,33.356,0,0,1,351.9,266.532Z" transform="translate(-252.914 -149)" fill="#fff" opacity="0.38"/>
    <path id="Path_6891" data-name="Path 6891" d="M489.934,247.955H416.163a1.223,1.223,0,0,1-1.223-1.223h0a1.223,1.223,0,0,1,1.223-1.223h73.772a1.223,1.223,0,0,1,1.223,1.223h0A1.223,1.223,0,0,1,489.934,247.955Z" transform="translate(-306.433 -145.446)" fill="#7e96a5"/>
    <rect id="Rectangle_2347" data-name="Rectangle 2347" width="71.424" height="2.311" rx="1.155" transform="translate(83.763 46.96)" fill="#7e96a5"/>
    <path id="Path_6892" data-name="Path 6892" d="M424.486,136.431H355.378a1.158,1.158,0,0,1-1.158-1.158h0a1.157,1.157,0,0,1,1.158-1.153h69.109a1.157,1.157,0,0,1,1.158,1.153h0A1.158,1.158,0,0,1,424.486,136.431Zm0,15.574H355.378a1.157,1.157,0,0,1-1.158-1.158h0a1.158,1.158,0,0,1,1.158-1.153h69.109a1.158,1.158,0,0,1,1.158,1.153h0A1.158,1.158,0,0,1,424.486,152Zm0,6.542H355.378a1.157,1.157,0,0,1-1.158-1.158h0a1.158,1.158,0,0,1,1.158-1.153h69.109a1.158,1.158,0,0,1,1.158,1.153h0A1.158,1.158,0,0,1,424.486,158.546Zm0,70.527H355.378a1.157,1.157,0,0,1-1.158-1.158h0a1.158,1.158,0,0,1,1.158-1.158h69.109a1.158,1.158,0,0,1,1.158,1.158h0A1.158,1.158,0,0,1,424.486,229.073Zm0,6.554H355.378a1.157,1.157,0,0,1-1.158-1.158h0a1.158,1.158,0,0,1,1.158-1.158h69.109a1.158,1.158,0,0,1,1.158,1.158h0A1.158,1.158,0,0,1,424.486,235.627Zm0,17.408H355.378a1.157,1.157,0,0,1-1.158-1.158h0a1.157,1.157,0,0,1,1.158-1.158h69.109a1.158,1.158,0,0,1,1.158,1.158h0A1.158,1.158,0,0,1,424.486,253.035Zm0,6.57H355.378a1.157,1.157,0,0,1-1.158-1.158h0a1.158,1.158,0,0,1,1.158-1.158h69.109a1.158,1.158,0,0,1,1.158,1.158h0A1.158,1.158,0,0,1,424.486,259.605Z" transform="translate(-270.461 -79.456)" fill="#7e96a5"/>
    <path id="Path_6893" data-name="Path 6893" d="M489.934,267.245H416.163a1.223,1.223,0,0,1-1.223-1.223h0a1.223,1.223,0,0,1,1.223-1.223h73.772a1.223,1.223,0,0,1,1.223,1.223h0A1.223,1.223,0,0,1,489.934,267.245Zm0,7.866H416.163a1.223,1.223,0,0,1-1.223-1.223h0a1.223,1.223,0,0,1,1.223-1.223h73.772a1.223,1.223,0,0,1,1.223,1.223h0A1.223,1.223,0,0,1,489.934,275.112Z" transform="translate(-306.433 -156.874)" fill="#7e96a5"/>
    <path id="Path_6894" data-name="Path 6894" d="M557.64,420.85,553,454.679a8.968,8.968,0,0,0,.432,4.227l8.294,24.455,4.85-1.5-3.668-24.32a3.518,3.518,0,0,1,.094-1.5l6.3-21.752,2.739,49.068h4.483l3.86-48.449A28.767,28.767,0,0,0,579.3,420.85Z" transform="translate(-388.171 -249.322)" fill="#3e3e49"/>
    <path id="Path_6895" data-name="Path 6895" d="M553.711,328.61v23.232c0,2.853-.465,5.156-3.314,5.156h-19.89c-2.853,0-2.943-2.286-2.963-5.119l-.159-15.814s-4.292,7.667-7.715,6.929-13.581-14.746-13.581-14.746L511.144,324l8.527,8.559a89.422,89.422,0,0,0,3.358-10.083,9.223,9.223,0,0,1,8.465-7h17.3C555.036,315.45,553.711,328.61,553.711,328.61Z" transform="translate(-360.432 -186.892)" fill="#6caf4c"/>
    <path id="Path_6896" data-name="Path 6896" d="M615.665,290.1s6.313,12.957,6.648,17.387-6.419,10.45-6.419,10.45l-5.034-17.526h4.805Z" transform="translate(-422.5 -171.862)" fill="#68e1fd"/>
    <path id="Path_6897" data-name="Path 6897" d="M615.665,290.1s6.313,12.957,6.648,17.387-6.419,10.45-6.419,10.45l-5.034-17.526h4.805Z" transform="translate(-422.5 -171.862)" fill="#6caf4c" style="mix-blend-mode: normal;isolation: isolate"/>
    <path id="Path_6898" data-name="Path 6898" d="M614.051,322.464s4.117-11.314,3.668-13.919-3.9-10.8-3.9-10.8v7.206l-6.073.126Z" transform="translate(-420.658 -176.389)" fill="#6caf4c"/>
    <rect id="Rectangle_2348" data-name="Rectangle 2348" width="21.667" height="1.581" transform="translate(169.468 169.947)" fill="#a1cb8e"/>
    <rect id="Rectangle_2349" data-name="Rectangle 2349" width="6.252" height="15.9" transform="translate(176.85 112.784)" fill="#fec096"/>
    <path id="Path_6899" data-name="Path 6899" d="M580.82,272.44v17.644h-3.3v-1.076a2.38,2.38,0,0,0-2.384-2.38h-.187A5.926,5.926,0,0,1,569,280.7V272.44Z" transform="translate(-397.701 -161.4)" fill="#fec096"/>
    <path id="Path_6900" data-name="Path 6900" d="M569.075,257.8a9.39,9.39,0,0,1,4.422-.86l3.236-.094a10.809,10.809,0,0,1,2.148.082,5.3,5.3,0,0,1,4.031,7.21,2.446,2.446,0,0,0-.24.815,3.9,3.9,0,0,0,.448,1.268c.448,1.2-.281,2.515-1.1,3.509s-1.781,2.005-1.9,3.285a2.152,2.152,0,0,1-.273,1.223,1.027,1.027,0,0,1-1.288.09,3.024,3.024,0,0,1-.9-1.06c.033.6-.815.937-1.345.656a2.144,2.144,0,0,1-.913-1.508,4.862,4.862,0,0,0-.546-1.72c-.277-.408-.717-.7-.864-1.162-.257-.815.55-1.728.245-2.539a1.375,1.375,0,0,0-1.814-.575,3.982,3.982,0,0,0-1.512,1.455c.6-.815.106-2.213-.514-2.873-1.015-1.084-2.543-.167-3.391-.946C565.395,262.564,567.64,258.619,569.075,257.8Z" transform="translate(-396.191 -152.152)"/>
    <path id="Path_6901" data-name="Path 6901" d="M561.888,315.514s-2.425,3.175-5.788,3.175-13.177,9.6-13.817,12.509-2.853,1.308-2.853,1.308a89.427,89.427,0,0,0,3.358-10.083,9.223,9.223,0,0,1,8.465-7h8.787Z" transform="translate(-380.184 -186.863)" fill="#6caf4c" style="mix-blend-mode: normal;isolation: isolate"/>
    <path id="Path_6902" data-name="Path 6902" d="M569.3,569.56l1.712,4.2-6.9,3.261-6.395.465s-1.092-4.2,1.9-4.577a10.19,10.19,0,0,0,4.826-1.867Zm5.478,1.9h0a5.176,5.176,0,0,0-3.179,4.263l-.179,1.773h7.838v-6.036Z" transform="translate(-390.902 -337.421)" fill="#6caf4c"/>
    <path id="Path_6903" data-name="Path 6903" d="M501.819,326.761l-3.3-4.076s-1.125-4.349-1.757-1.655c-.355,1.512-1.361,4.247-1.361,4.247H490.35s3.546,3.746,5.054,4.43a8.42,8.42,0,0,0,2.16.624Z" transform="translate(-351.108 -189.665)" fill="#fec096"/>
  </g>
  <g id="Group_5510" data-name="Group 5510" transform="translate(60.958 82.259)">
    <circle id="Ellipse_122" data-name="Ellipse 122" cx="18.918" cy="18.918" r="18.918" fill="#d11313"/>
    <path id="Path_4410" data-name="Path 4410" d="M83.474,64.558A18.973,18.973,0,0,1,64.556,83.476a18.615,18.615,0,0,1-14.779-7.094A18.664,18.664,0,0,0,61.6,80.52,18.973,18.973,0,0,0,80.518,61.6,18.665,18.665,0,0,0,76.38,49.779,18.615,18.615,0,0,1,83.474,64.558Z" transform="translate(-45.639 -45.641)" fill="#b70707"/>
    <path id="Path_4411" data-name="Path 4411" d="M135.129,135.129a1.856,1.856,0,0,1-2.6,0l-6.03-6.03-6.03,6.03a1.839,1.839,0,0,1-2.6-2.6l6.03-6.03-6.03-6.03a1.839,1.839,0,0,1,2.6-2.6l6.03,6.03,6.03-6.03a1.839,1.839,0,0,1,2.6,2.6l-6.03,6.03,6.03,6.03A1.856,1.856,0,0,1,135.129,135.129Z" transform="translate(-107.58 -107.58)" fill="#fff"/>
  </g>
</svg>
