<svg width="140" height="109" viewBox="0 0 140 109" fill="none" xmlns="http://www.w3.org/2000/svg">
<path d="M121.223 106.055C121.223 107.435 111.097 108.557 98.6135 108.557C86.1301 108.557 76.0039 107.435 76.0039 106.055C76.0039 106.03 76.0089 106.005 76.0139 105.98V99.2225H121.208V105.965C121.218 105.995 121.223 106.025 121.223 106.055Z" fill="#AF8E2F"/>
<path d="M98.6096 101.785C111.097 101.785 121.219 100.665 121.219 99.2833C121.219 97.9016 111.097 96.7816 98.6096 96.7816C86.1227 96.7816 76 97.9016 76 99.2833C76 100.665 86.1227 101.785 98.6096 101.785Z" fill="#FFD325"/>
<path d="M126.564 97.8982C126.564 99.2787 116.437 100.4 103.954 100.4C91.4706 100.4 81.3444 99.2787 81.3444 97.8982C81.3444 97.8733 81.3494 97.8484 81.3543 97.8235V91.0658H126.549V97.8085C126.559 97.8384 126.564 97.8683 126.564 97.8982Z" fill="#AF8E2F"/>
<path d="M103.95 93.632C116.437 93.632 126.56 92.5119 126.56 91.1303C126.56 89.7486 116.437 88.6285 103.95 88.6285C91.4631 88.6285 81.3405 89.7486 81.3405 91.1303C81.3405 92.5119 91.4631 93.632 103.95 93.632Z" fill="#FFD325"/>
<path d="M122.359 88.6873C122.359 90.0677 112.233 91.189 99.7493 91.189C87.2659 91.189 77.1397 90.0677 77.1397 88.6873C77.1397 88.6624 77.1447 88.6375 77.1497 88.6125V81.8549H122.344V88.5976C122.354 88.6275 122.359 88.6574 122.359 88.6873Z" fill="#AF8E2F"/>
<path d="M99.7493 84.4174C112.236 84.4174 122.359 83.2973 122.359 81.9156C122.359 80.534 112.236 79.4139 99.7493 79.4139C87.2623 79.4139 77.1396 80.534 77.1396 81.9156C77.1396 83.2973 87.2623 84.4174 99.7493 84.4174Z" fill="#FFD325"/>
<ellipse opacity="0.4" cx="99.9747" cy="81.6235" rx="10.6746" ry="1.23254" fill="#AF8E2F"/>
<path d="M94.9541 46.5694C85.569 49.0106 79.9357 58.5992 82.3768 67.9884C84.8179 77.3738 94.4061 83.0111 103.795 80.5661C113.18 78.1249 118.817 68.5364 116.372 59.1472C113.931 49.7618 104.343 44.1282 94.9541 46.5694ZM113.058 60.0095C114.008 63.6617 113.475 67.471 111.563 70.7247C109.651 73.9822 106.589 76.2969 102.933 77.2473C95.391 79.2056 87.6576 74.6682 85.6955 67.1223C84.7451 63.4701 85.274 59.6645 87.1862 56.4071C89.0295 53.2645 91.9497 50.9958 95.437 49.9879C95.5635 49.9496 95.6899 49.9189 95.8164 49.8844C103.236 47.9529 110.835 52.3179 112.95 59.6339C112.985 59.7565 113.023 59.883 113.054 60.0056L113.058 60.0095Z" fill="#FFD325"/>
<path d="M112.953 59.6387C112.987 59.7614 113.026 59.8878 113.056 60.0105C114.007 63.6627 113.474 67.472 111.562 70.7257C109.649 73.9832 106.587 76.2979 102.932 77.2483C95.3897 79.2067 87.6563 74.6692 85.6942 67.1233C84.7438 63.4711 85.2727 59.6656 87.185 56.4081C89.0283 53.2655 91.9484 50.9968 95.4357 49.9889C95.5622 49.9506 95.6886 49.9199 95.8151 49.8854C103.234 47.9539 110.834 52.3189 112.949 59.6349L112.953 59.6387Z" fill="#AF8E2F"/>
<path d="M108 54.8778C109.332 55.5223 110.247 56.5116 110.872 57.7519C111.497 56.5116 112.416 55.5186 113.748 54.874C112.416 54.2295 111.497 53.2403 110.872 52C110.247 53.2403 109.332 54.2333 108 54.8778Z" fill="#FFF3EB"/>
<path d="M103.818 61.2809C103.752 61.2155 103.673 61.1777 103.57 61.1743L101.702 61.1141C101.598 60.5079 101.384 59.9742 101.053 59.5198L103.599 59.6034C103.703 59.6033 103.785 59.5757 103.854 59.5136C103.923 59.4481 103.957 59.3688 103.961 59.2655L103.998 58.1527C104.001 58.0494 103.97 57.9667 103.908 57.8979C103.842 57.829 103.759 57.7947 103.66 57.7913L94.5703 57.497C94.4704 57.4936 94.3843 57.5213 94.3154 57.5868C94.25 57.6489 94.2122 57.7316 94.2089 57.8349L94.162 59.2887C94.1587 59.3817 94.1898 59.4678 94.2588 59.5367C94.3243 59.609 94.407 59.6468 94.5 59.6467L96.085 59.6968C97.6217 59.747 98.5834 60.1905 98.9735 61.0272L94.4599 60.88C94.36 60.8801 94.2739 60.9077 94.205 60.9698C94.1362 61.0319 94.1018 61.1146 94.0985 61.218L94.0616 62.3307C94.0617 62.4341 94.0894 62.5167 94.1515 62.5856C94.2135 62.6544 94.2963 62.6888 94.3996 62.6921L99.0648 62.8461C98.8828 63.4388 98.4939 63.8801 97.8981 64.1735C97.3024 64.4669 96.5238 64.5985 95.5625 64.565L94.3394 64.5249C94.2429 64.525 94.1603 64.556 94.088 64.6216C94.0157 64.6905 93.9779 64.7698 93.9745 64.8628L93.9276 66.2512C93.9243 66.3476 93.9553 66.4268 94.0174 66.4957C95.3695 68.0274 97.1115 70.165 99.2537 72.912C99.3158 73.0015 99.4055 73.0462 99.5226 73.053L101.652 73.1232C101.804 73.13 101.914 73.0679 101.976 72.9369C102.051 72.8059 102.044 72.6819 101.944 72.5614C99.9054 69.8832 98.2945 67.8798 97.1218 66.5409C98.3654 66.4363 99.3815 66.0668 100.177 65.439C100.972 64.8078 101.467 63.9737 101.67 62.9297L103.506 62.9899C103.606 62.9898 103.692 62.9621 103.757 62.9001C103.826 62.838 103.861 62.7553 103.864 62.6519L103.901 61.5392C103.901 61.4358 103.873 61.3532 103.811 61.2843L103.818 61.2809Z" fill="#DCB414"/>
<path d="M81.9557 92.0978L84.9462 103.769C85.4955 105.913 83.9421 108.018 81.8102 108.018C80.7697 108.018 79.7929 107.498 79.1817 106.621L72.6915 97.3015C71.5983 95.7328 71.9948 93.5304 73.5592 92.4791L77.0608 90.1279C78.9125 88.8841 81.39 89.8809 81.9576 92.096L81.9557 92.0978Z" fill="#161742"/>
<path d="M29.4316 92.0978L26.4411 103.769C25.8918 105.913 27.4452 108.018 29.5771 108.018C30.6176 108.018 31.5944 107.498 32.2056 106.621L38.6959 97.3015C39.7891 95.7328 39.3925 93.5304 37.8282 92.4791L34.3266 90.1279C32.4748 88.8841 29.9973 89.8809 29.4298 92.096L29.4316 92.0978Z" fill="#161742"/>
<path d="M64.7 31.2313C63.9851 32.2553 69.8969 37.6006 77.9061 43.1675C85.9152 48.7343 92.9875 52.4164 93.7024 51.3906C94.4173 50.3666 88.5055 45.0212 80.4963 39.4544C72.4872 33.8876 65.4149 30.2055 64.7 31.2313Z" fill="#161742"/>
<path d="M46.2247 31.2315C46.9396 32.2555 41.0278 37.6008 33.0187 43.1676C25.0095 48.7344 17.9372 52.4166 17.2223 51.3907C16.5075 50.3667 22.4193 45.0214 30.4284 39.4546C38.4375 33.8878 45.5099 30.2056 46.2247 31.2315Z" fill="#161742"/>
<path d="M40.5645 54.1793C39.6913 54.7857 38.3798 54.4117 37.6358 53.3441L20.6553 29.0052C20.2097 28.3661 20.0678 27.6253 20.2115 27.0007C20.3079 26.5813 20.5353 26.2163 20.8863 25.973C21.7595 25.3666 23.071 25.7406 23.815 26.8082L40.7955 51.1472C41.5413 52.2148 41.4376 53.5729 40.5645 54.1793Z" fill="#1D478E"/>
<path d="M46.2266 31.2296H46.2248C45.5099 30.2074 38.4375 33.8877 30.4284 39.4546C22.5502 44.9306 16.7003 50.1924 17.1932 51.3363C12.1982 44.0101 9.27323 37.6262 22.6612 28.3209C36.775 18.5109 41.1442 23.9288 46.2266 31.2296Z" fill="#1D478E"/>
<path d="M32.1255 38.5304C34.7831 36.8055 37.4462 35.0806 40.1783 33.4756C41.0933 32.9382 42.0173 32.4116 42.9687 31.9359C43.5926 31.6236 44.2347 31.3168 44.9078 31.1225C45.2297 31.0299 45.7663 30.8847 46.0246 31.108C46.1156 31.1861 46.2866 31.0789 46.2029 30.97C45.2043 29.6573 44.2147 28.3318 43.1179 27.1008C42.1447 26.0096 41.0715 24.9819 39.8127 24.2248C38.5539 23.4677 37.2224 23.0682 35.7999 23.0083C33.9937 22.9321 32.2001 23.4005 30.5339 24.0632C28.0255 25.0618 25.7026 26.498 23.4943 28.0359C23.1432 28.281 22.794 28.5297 22.4484 28.7803C22.3319 28.8656 22.4447 29.0617 22.563 28.9764C24.8349 27.3278 27.2124 25.7699 29.7826 24.6224C31.4834 23.8635 33.317 23.2734 35.1924 23.228C36.6221 23.1935 38.0264 23.5149 39.2888 24.1867C40.5512 24.8585 41.6135 25.8099 42.5776 26.843C43.6745 28.0177 44.6513 29.3014 45.6245 30.5796C45.7518 30.7485 45.8809 30.9155 46.0083 31.0844L46.1865 30.9464C45.91 30.7049 45.4953 30.7539 45.1642 30.8229C44.5367 30.9518 43.9328 31.226 43.3561 31.4965C41.1806 32.5187 39.1287 33.8188 37.0933 35.0879C35.3888 36.1519 33.699 37.2395 32.0146 38.3325C31.8927 38.4124 32.0055 38.6085 32.1292 38.5286L32.1255 38.5304Z" fill="#161742"/>
<path d="M70.361 54.1793C71.2341 54.7857 72.5456 54.4117 73.2896 53.3441L90.2701 29.0052C90.7158 28.3661 90.8577 27.6253 90.714 27.0007C90.6176 26.5813 90.3902 26.2163 90.0391 25.973C89.166 25.3666 87.8545 25.7406 87.1105 26.8082L70.13 51.1472C69.3842 52.2148 69.4879 53.5729 70.361 54.1793Z" fill="#1D478E"/>
<path d="M64.6982 31.2296H64.7001C65.4149 30.2074 72.4873 33.8877 80.4964 39.4546C88.3746 44.9306 94.2245 50.1924 93.7316 51.3363C98.7266 44.0101 101.652 37.6262 88.2636 28.3209C74.1499 18.5109 69.7806 23.9288 64.6982 31.2296Z" fill="#1D478E"/>
<path d="M82.1408 40.7564C84.7129 42.6374 87.2595 44.5711 89.6552 46.6755C90.4428 47.3672 91.2177 48.0808 91.9417 48.8397C92.4219 49.3445 92.8985 49.871 93.2695 50.4611C93.4569 50.7607 93.7316 51.211 93.5879 51.5541C93.5351 51.6794 93.7279 51.7412 93.7952 51.6413C94.7339 50.265 95.647 48.8652 96.4037 47.3781C97.0767 46.0581 97.6297 44.6583 97.8698 43.1912C98.1099 41.7242 98.019 40.2644 97.5879 38.8609C97.0586 37.1469 96.0745 35.609 94.9267 34.2418C93.2823 32.2864 91.2886 30.6359 89.2277 29.138C88.9166 28.911 88.6038 28.6895 88.2873 28.4698C88.1672 28.3863 88.0526 28.5824 88.1727 28.6659C90.3391 30.1747 92.4401 31.827 94.2227 33.7825C95.4615 35.1424 96.5601 36.6784 97.1986 38.4142C97.7025 39.7868 97.8826 41.2485 97.7134 42.6992C97.5442 44.1499 97.0458 45.5407 96.4146 46.848C95.7161 48.2969 94.8539 49.6622 93.9571 50.9967C93.8389 51.1729 93.7188 51.349 93.5988 51.5251L93.8062 51.6122C93.9426 51.2818 93.7661 50.886 93.6115 50.5955C93.3059 50.0235 92.8694 49.5152 92.4364 49.0376C90.8157 47.2492 88.9166 45.6986 87.034 44.1953C85.4696 42.9461 83.8707 41.7405 82.2554 40.5603C82.1372 40.4732 82.0244 40.6711 82.1408 40.7564Z" fill="#161742"/>
<path d="M57.379 31.5292H54.1648V46.6192H57.379V31.5292Z" fill="#161742"/>
<path d="M55.6273 101.637C73.3135 101.637 87.6511 87.3263 87.6511 69.6726C87.6511 52.019 73.3135 37.7079 55.6273 37.7079C37.941 37.7079 23.6035 52.019 23.6035 69.6726C23.6035 87.3263 37.941 101.637 55.6273 101.637Z" fill="#1D478E"/>
<path d="M55.6276 97.7878C71.1841 97.7878 83.7951 85.2001 83.7951 69.6723C83.7951 54.1446 71.1841 41.5568 55.6276 41.5568C40.0711 41.5568 27.4601 54.1446 27.4601 69.6723C27.4601 85.2001 40.0711 97.7878 55.6276 97.7878Z" fill="#161742"/>
<path d="M55.6273 96.194C70.3017 96.194 82.1977 84.32 82.1977 69.6726C82.1977 55.0253 70.3017 43.1513 55.6273 43.1513C40.9529 43.1513 29.0569 55.0253 29.0569 69.6726C29.0569 84.32 40.9529 96.194 55.6273 96.194Z" fill="#FFF3EB"/>
<path d="M61.6869 33.9641H49.5704C48.4553 33.9641 47.5513 33.0617 47.5513 31.9487C47.5513 31.3459 47.8168 30.8049 48.2352 30.4363C48.5917 30.124 49.0592 29.9333 49.5704 29.9333H61.6869C62.8019 29.9333 63.706 30.8357 63.706 31.9487C63.706 33.0617 62.8019 33.9641 61.6869 33.9641Z" fill="#1D478E"/>
<path d="M65.9223 90.326C65.5222 89.6397 65.755 88.7573 66.4426 88.3578C67.132 87.9584 68.0142 88.1908 68.4144 88.8771C68.8146 89.5634 68.5817 90.4458 67.8942 90.8453C67.2066 91.2447 66.3225 91.0123 65.9223 90.326Z" fill="#FFD325"/>
<path d="M42.8422 50.7571C42.442 50.0708 42.6749 49.1884 43.3624 48.7889C44.05 48.3895 44.9341 48.6219 45.3343 49.3082C45.7344 49.9945 45.5016 50.8769 44.814 51.2764C44.1264 51.6758 43.2424 51.4434 42.8422 50.7571Z" fill="#FFD325"/>
<path d="M76.1757 59.5413C75.4881 59.9407 74.6041 59.7083 74.2039 59.022C73.8037 58.3357 74.0366 57.4533 74.7241 57.0538C75.4117 56.6544 76.2958 56.8868 76.696 57.5731C77.0961 58.2612 76.8633 59.1418 76.1757 59.5413Z" fill="#FFD325"/>
<path d="M36.5339 82.5802C35.8463 82.9797 34.9622 82.7473 34.5621 82.0609C34.1619 81.3728 34.3947 80.4922 35.0823 80.0928C35.7699 79.6933 36.6539 79.9257 37.0541 80.612C37.4543 81.3002 37.2215 82.1808 36.5339 82.5802Z" fill="#FFD325"/>
<path d="M74.7896 82.48C74.0984 82.0842 73.8619 81.2036 74.2585 80.5136C74.655 79.8237 75.5372 79.5876 76.2285 79.9835C76.9197 80.3793 77.1562 81.2599 76.7596 81.9498C76.3631 82.6398 75.4809 82.8758 74.7896 82.48Z" fill="#FFD325"/>
<path d="M35.0291 59.6483C34.3379 59.2524 34.1014 58.3719 34.498 57.6819C34.8945 56.992 35.7767 56.7559 36.468 57.1517C37.1592 57.5475 37.3957 58.4281 36.9991 59.1181C36.6026 59.808 35.7204 60.0441 35.0291 59.6483Z" fill="#FFD325"/>
<path d="M68.3171 50.6898C67.9206 51.3798 67.0383 51.6158 66.3471 51.22C65.6559 50.8242 65.4194 49.9436 65.816 49.2536C66.2125 48.5637 67.0947 48.3276 67.786 48.7234C68.4772 49.1193 68.7137 49.9999 68.3171 50.6898Z" fill="#FFD325"/>
<path d="M45.4412 90.3783C45.0447 91.0683 44.1624 91.3043 43.4712 90.9085C42.78 90.5127 42.5435 89.6321 42.94 88.9422C43.3366 88.2522 44.2188 88.0162 44.91 88.412C45.6013 88.8078 45.8377 89.6884 45.4412 90.3783Z" fill="#FFD325"/>
<path d="M78.5643 71.2558C77.7676 71.2558 77.1218 70.6112 77.1218 69.816C77.1218 69.0207 77.7676 68.3762 78.5643 68.3762C79.361 68.3762 80.0068 69.0207 80.0068 69.816C80.0068 70.6112 79.361 71.2558 78.5643 71.2558Z" fill="#FFD325"/>
<path d="M32.6917 71.2558C31.895 71.2558 31.2492 70.6112 31.2492 69.816C31.2492 69.0207 31.895 68.3762 32.6917 68.3762C33.4884 68.3762 34.1342 69.0207 34.1342 69.816C34.1342 70.6112 33.4884 71.2558 32.6917 71.2558Z" fill="#FFD325"/>
<path d="M57.0704 46.9223C57.0704 47.7175 56.4247 48.3621 55.628 48.3621C54.8312 48.3621 54.1855 47.7175 54.1855 46.9223C54.1855 46.127 54.8312 45.4825 55.628 45.4825C56.4247 45.4825 57.0704 46.127 57.0704 46.9223Z" fill="#FFD325"/>
<path d="M57.0704 92.7097C57.0704 93.5049 56.4247 94.1495 55.628 94.1495C54.8312 94.1495 54.1855 93.5049 54.1855 92.7097C54.1855 91.9144 54.8312 91.2698 55.628 91.2698C56.4247 91.2698 57.0704 91.9144 57.0704 92.7097Z" fill="#FFD325"/>
<path d="M56.4182 70.5587C56.6183 70.5587 56.8129 70.4552 56.9184 70.27C57.0767 69.994 56.9821 69.6418 56.7056 69.4838L39.1066 59.4051C38.8301 59.2471 38.4772 59.3415 38.319 59.6175C38.1607 59.8935 38.2553 60.2457 38.5318 60.4037L56.1308 70.4824C56.2218 70.5351 56.32 70.5587 56.4182 70.5587Z" fill="#161742"/>
<path d="M56.9952 72.6684C56.9952 71.8883 56.3616 71.2559 55.58 71.2559C54.7984 71.2559 54.1648 71.8883 54.1648 72.6684V86.7471C54.1648 87.5272 54.7984 88.1597 55.58 88.1597C56.3616 88.1597 56.9952 87.5272 56.9952 86.7471V72.6684Z" fill="#32B353"/>
<path d="M51.9095 68.7832L42.9608 75.3806C41.9636 76.1158 41.7523 77.5187 42.4888 78.514C43.2253 79.5094 44.6308 79.7203 45.628 78.9851L54.5767 72.3876C55.5739 71.6525 55.7852 70.2496 55.0487 69.2543C54.3122 68.2589 52.9067 68.048 51.9095 68.7832Z" fill="#FFD325"/>
<path d="M57.4008 38.0529C60.7205 38.2018 64.0075 38.8609 67.1216 40.0229C70.2358 41.1849 72.9425 42.7228 75.4618 44.6855C77.9612 46.6337 80.1695 48.9559 81.983 51.5523C83.7966 54.1487 85.2318 57.0356 86.194 60.066C87.1563 63.0963 87.682 66.4698 87.6656 69.7525C87.6493 73.0352 87.1108 76.4124 86.0594 79.5789C85.008 82.7454 83.5783 85.4834 81.7083 88.0762C79.8384 90.6689 77.5974 92.9494 75.058 94.8577C72.5187 96.7659 69.6974 98.2947 66.7069 99.3659C63.7164 100.437 60.3585 101.093 57.0752 101.2C56.2567 101.227 55.4363 101.22 54.6177 101.185C54.3249 101.173 54.3249 101.626 54.6177 101.639C57.9774 101.781 61.3535 101.409 64.595 100.512C67.8365 99.6147 70.7124 98.302 73.4355 96.5426C76.1585 94.7832 78.5851 92.6371 80.6515 90.1678C82.7179 87.6985 84.4132 84.9151 85.6593 81.9392C86.9053 78.9634 87.7348 75.5826 88.0094 72.2581C88.2841 68.9337 88.0349 65.4912 87.2564 62.2084C86.4778 58.9257 85.2664 56.0061 83.6001 53.2191C81.9339 50.4321 79.8948 47.9609 77.5101 45.8148C75.1253 43.6687 72.3895 41.8549 69.4554 40.5058C66.5214 39.1568 63.198 38.2036 59.891 37.8023C59.0634 37.7025 58.2303 37.6353 57.3972 37.5972C57.1043 37.5844 57.1061 38.0384 57.3972 38.0511L57.4008 38.0529Z" fill="#161742"/>
<path d="M55.4872 71.3703C56.2548 71.3703 56.786 72.0076 56.7896 72.7411C56.7896 73.0153 56.7896 73.2876 56.7896 73.5618C56.7896 74.7528 56.7896 75.9439 56.7896 77.135C56.7896 78.671 56.7896 80.2089 56.7896 81.745C56.7896 83.005 56.7896 84.2669 56.7896 85.527V86.5528C56.7896 87.0485 56.6641 87.5169 56.2275 87.8183C56.0111 87.9672 55.751 88.0489 55.4872 88.0489C55.3417 88.0489 55.3399 88.2759 55.4872 88.2759C56.344 88.2759 57.0043 87.5678 57.017 86.7308C57.0206 86.4965 57.017 86.2605 57.017 86.0263C57.017 84.8207 57.017 83.6169 57.017 82.4113C57.017 80.8026 57.017 79.1958 57.017 77.5871C57.017 76.2943 57.017 75.0016 57.017 73.7088V72.7738C57.017 72.1564 56.7387 71.5827 56.1639 71.3013C55.9547 71.1978 55.7219 71.1433 55.4872 71.1433C55.3417 71.1433 55.3399 71.3703 55.4872 71.3703Z" fill="#161742"/>
<path d="M55.6273 72.5522C57.2206 72.5522 58.5122 71.263 58.5122 69.6726C58.5122 68.0822 57.2206 66.793 55.6273 66.793C54.0339 66.793 52.7423 68.0822 52.7423 69.6726C52.7423 71.263 54.0339 72.5522 55.6273 72.5522Z" fill="#1D478E"/>
<path d="M10 108H130" stroke="#161742" stroke-width="0.523404"/>
<mask id="mask0_197_52" style="mask-type:alpha" maskUnits="userSpaceOnUse" x="102" y="18" width="20" height="20">
<rect x="102" y="18" width="20" height="20" fill="#D9D9D9"/>
</mask>
<g mask="url(#mask0_197_52)">
<path d="M112 31.7179C112.145 31.7179 112.267 31.6687 112.365 31.5704C112.464 31.4722 112.513 31.3505 112.513 31.2052C112.513 31.0598 112.464 30.938 112.365 30.8398C112.267 30.7415 112.145 30.6923 112 30.6923C111.855 30.6923 111.733 30.7415 111.635 30.8398C111.536 30.938 111.487 31.0598 111.487 31.2052C111.487 31.3505 111.536 31.4722 111.635 31.5704C111.733 31.6687 111.855 31.7179 112 31.7179ZM112.001 28.9615C112.119 28.9615 112.218 28.9215 112.297 28.8417C112.377 28.7618 112.417 28.6628 112.417 28.5448V24.3781C112.417 24.2601 112.377 24.1611 112.297 24.0813C112.217 24.0014 112.118 23.9615 111.999 23.9615C111.881 23.9615 111.782 24.0014 111.703 24.0813C111.623 24.1611 111.583 24.2601 111.583 24.3781V28.5448C111.583 28.6628 111.623 28.7618 111.703 28.8417C111.783 28.9215 111.882 28.9615 112.001 28.9615ZM112.003 35.5C110.966 35.5 109.991 35.3032 109.077 34.9096C108.165 34.516 107.37 33.9818 106.695 33.3071C106.02 32.6324 105.485 31.8389 105.091 30.9267C104.697 30.0146 104.5 29.0399 104.5 28.0027C104.5 26.9656 104.697 25.9906 105.09 25.0775C105.484 24.1646 106.018 23.3704 106.693 22.695C107.368 22.0196 108.161 21.4849 109.073 21.091C109.985 20.697 110.96 20.5 111.997 20.5C113.034 20.5 114.009 20.6968 114.923 21.0904C115.835 21.484 116.63 22.0182 117.305 22.6929C117.98 23.3676 118.515 24.1611 118.909 25.0733C119.303 25.9854 119.5 26.9601 119.5 27.9973C119.5 29.0344 119.303 30.0094 118.91 30.9225C118.516 31.8354 117.982 32.6296 117.307 33.305C116.632 33.9804 115.839 34.5151 114.927 34.909C114.015 35.303 113.04 35.5 112.003 35.5Z" fill="#EE3D4B"/>
</g>
</svg>
