<svg width="86" height="80" viewBox="0 0 86 80" fill="none" xmlns="http://www.w3.org/2000/svg">
<path d="M97 22C97 34.1503 86.9264 44 74.5 44C62.0736 44 52 34.1503 52 22C52 9.84974 62.0736 0 74.5 0C86.9264 0 97 9.84974 97 22Z" fill="#E8F6FD"/>
<path d="M17 61C17 65.4183 13.1944 69 8.5 69C3.80558 69 0 65.4183 0 61C0 56.5817 3.80558 53 8.5 53C13.1944 53 17 56.5817 17 61Z" fill="#E8F6FD"/>
<path d="M79.0001 47.5345L64.4165 54.5144L79.0001 57.4863L79.0001 47.5345Z" fill="#FFD325"/>
<path d="M23.2347 49.3697L38.6227 53.4274L23.2347 57.4863L23.2347 49.3697Z" fill="#FFD325"/>
<path d="M65.549 34.8672L60.8764 42.3644L74.6358 34.8765L65.549 34.8672Z" fill="#FFD325"/>
<path d="M42.7234 34.9636L46.3111 40.7196L35.7459 34.9706L42.7234 34.9636Z" fill="#FFD325"/>
<path d="M33.9412 34.9653L39.0527 43.1654L24.0012 34.9757L33.9412 34.9653Z" fill="#FFD325"/>
<path d="M58.6976 34.9214L57.2949 38.6705L61.8348 34.8749L58.6976 34.9214Z" fill="#FFD325"/>
<path d="M79.0001 35.1265L65.2046 47.5351L79.0001 45.0782L79.0001 35.1265Z" fill="#FFD325"/>
<path d="M23.1211 36.9624L36.9166 49.3711L23.1211 46.9142L23.1211 36.9624Z" fill="#FFD325"/>
<g opacity="0.5">
<mask id="mask0_1_56" style="mask-type:alpha" maskUnits="userSpaceOnUse" x="22" y="22" width="58" height="58">
<rect x="22" y="22" width="58" height="58" fill="#D9D9D9"/>
</mask>
<g mask="url(#mask0_1_56)">
<path d="M31.9705 70.3333C31.5943 70.3333 31.2614 70.2439 30.9718 70.0651C30.6818 69.8862 30.4565 69.6504 30.2957 69.3576C30.1201 69.0692 30.0235 68.757 30.0057 68.4211C29.9884 68.0848 30.0825 67.7459 30.2879 67.4043L49.3113 34.5956C49.5167 34.2541 49.7644 34.0058 50.0544 33.8507C50.344 33.696 50.6592 33.6187 50.9999 33.6187C51.3407 33.6187 51.6559 33.696 51.9455 33.8507C52.2355 34.0058 52.4832 34.2541 52.6886 34.5956L71.712 67.4043C71.9174 67.7459 72.0114 68.0848 71.9941 68.4211C71.9764 68.757 71.8797 69.0692 71.7041 69.3576C71.5434 69.6504 71.3181 69.8862 71.0281 70.0651C70.7385 70.2439 70.4056 70.3333 70.0294 70.3333H31.9705ZM50.9999 64.5708C51.4212 64.5708 51.7745 64.4282 52.0596 64.143C52.3448 63.8579 52.4874 63.5046 52.4874 63.0833C52.4874 62.662 52.3448 62.3088 52.0596 62.0236C51.7745 61.7384 51.4212 61.5959 50.9999 61.5959C50.5786 61.5959 50.2254 61.7384 49.9402 62.0236C49.6551 62.3088 49.5125 62.662 49.5125 63.0833C49.5125 63.5046 49.6551 63.8579 49.9402 64.143C50.2254 64.4282 50.5786 64.5708 50.9999 64.5708ZM51.0017 59.1792C51.3445 59.1792 51.6313 59.0634 51.8621 58.8318C52.0929 58.6002 52.2083 58.3132 52.2083 57.9709V48.3042C52.2083 47.9618 52.0923 47.6748 51.8603 47.4432C51.6283 47.2117 51.3409 47.0959 50.9981 47.0959C50.6554 47.0959 50.3686 47.2117 50.1378 47.4432C49.907 47.6748 49.7916 47.9618 49.7916 48.3042V57.9709C49.7916 58.3132 49.9076 58.6002 50.1396 58.8318C50.3716 59.0634 50.659 59.1792 51.0017 59.1792Z" fill="#FD707B"/>
</g>
</g>
</svg>
