<svg width="99" height="194" viewBox="0 0 99 194" fill="none" xmlns="http://www.w3.org/2000/svg">
<g opacity="0.8">
<g opacity="0.4">
<path d="M28.5532 29.8949L25.3842 33.3674L27.4396 34.2974C28.4157 39.6482 35.8235 47.6235 49.2896 56.7881C69.6031 70.6298 97.7432 83.1532 119.514 88.6788C125.682 90.2362 131.312 91.2391 136.164 91.5588C142.22 91.9756 146.348 91.2231 148.585 89.6064L150.212 90.3498L150.608 86.1341C150.993 80.8329 143.527 72.1875 128.65 62.0427C108.336 48.2011 80.1961 35.6777 58.4255 30.1521C52.2568 28.5947 46.627 27.5918 41.7752 27.2721C34.9392 26.8318 30.5607 27.8024 28.5532 29.8949Z" fill="url(#paint0_linear_1247_33)"/>
<path d="M18.4554 48.7412L40.374 58.8636C42.08 60.1563 43.899 61.4438 45.8467 62.7786C66.5256 76.8829 95.1545 89.6034 117.33 95.2367C118.691 95.5729 120.019 95.8906 121.338 96.1821L143.154 106.249L149.908 91.2436C152.233 86.105 144.725 76.5554 127.968 65.1127C107.29 51.0083 78.6607 38.2879 56.4853 32.6546C50.222 31.0683 44.4713 30.0444 39.5591 29.7142C31.1723 29.1664 26.3945 30.7154 25.1625 33.8642L18.437 48.7753L18.4554 48.7412Z" fill="url(#paint1_linear_1247_33)"/>
<path d="M18.1703 49.8002L18.1492 49.9211C18.0915 50.3968 18.068 50.8909 18.139 51.4139L18.1157 53.3404L18.715 53.6189C20.837 58.9695 28.1501 66.3429 40.4333 74.7167C61.1122 88.8211 89.7411 101.542 111.916 107.175C118.18 108.761 123.931 109.785 128.843 110.115C133.668 110.443 137.274 110.048 139.708 109.088L140.136 109.275L141.429 108.142C141.757 107.9 142.078 107.632 142.338 107.353L142.364 107.345C146.64 102.595 139.315 92.4175 121.189 80.0394C100.51 65.935 71.8811 53.2146 49.7058 47.5813C43.4425 45.995 37.6917 44.9711 32.7795 44.6409C23.5439 44.0329 18.7451 45.9892 18.1282 49.7555L18.1703 49.8002Z" fill="url(#paint2_linear_1247_33)"/>
<path d="M26.0612 54.9939C29.3372 47.679 56.117 52.6176 85.8289 65.987C115.549 79.3827 136.972 96.1572 133.688 103.446C130.412 110.761 103.632 105.822 73.9202 92.4528C44.2004 79.0571 22.7773 62.2826 26.0612 54.9939Z" fill="url(#paint3_linear_1247_33)"/>
<path d="M32.095 56.1039C35.0531 49.5433 59.0969 53.9568 85.8018 65.9943C112.507 78.0318 131.759 93.1088 128.801 99.6694C125.842 106.23 101.799 101.817 75.0937 89.7791C48.3887 77.7416 29.1368 62.6645 32.095 56.1039Z" fill="url(#paint4_radial_1247_33)"/>
<path d="M55.6648 56.6488C72.8778 61.0215 95.0645 70.8916 111.099 81.8351C131.667 95.858 134.313 106.294 117.038 105.149C113.235 104.887 108.761 104.11 103.92 102.87C86.7067 98.4973 64.5201 88.6273 48.4859 77.6838C27.9174 63.6609 25.2452 53.2326 42.547 54.37C46.35 54.6321 50.8234 55.4092 55.6911 56.6409L55.6648 56.6488ZM110.35 109.019C116.518 110.576 122.148 111.579 127 111.899C148.919 113.34 145.558 100.139 119.478 82.3565C99.1641 68.5149 71.0503 55.9836 49.2534 50.4658C43.0847 48.9085 37.4549 47.9055 32.6031 47.5858C10.6835 46.1444 14.0449 59.3453 40.1254 77.1282C60.4389 90.9698 88.5789 103.493 110.35 109.019Z" fill="url(#paint5_linear_1247_33)"/>
<path style="mix-blend-mode:screen" d="M50.8639 55.5407C52.4172 55.8479 54.0205 56.2261 55.6921 56.6411C72.9052 61.0138 95.0918 70.8838 111.126 81.8273C131.694 95.8502 134.34 106.286 117.065 105.141C115.688 105.039 114.234 104.874 112.678 104.653C116.942 107.212 121.063 109.585 124.948 111.742C125.658 111.815 126.333 111.87 127.009 111.925C148.928 113.367 145.567 100.166 119.486 82.3829C99.173 68.5413 71.0592 56.01 49.2624 50.4922C47.9272 50.1482 46.634 49.8488 45.3751 49.5678C47.1731 51.5492 49.0133 53.5752 50.8981 55.5591L50.8639 55.5407Z" fill="url(#paint6_linear_1247_33)"/>
</g>
<g opacity="0.4">
<path d="M69.5258 166.233C64.5433 158.005 57.6136 150.885 49.3095 146.151C28.5396 134.315 7.08245 142.008 1.39363 163.332C-2.02347 176.122 1.03092 190.936 8.5142 203.287C13.4967 211.515 20.4263 218.635 28.7305 223.37C49.5004 235.205 70.9575 227.512 76.6273 206.189C80.0444 193.398 76.99 178.584 69.5067 166.252L69.5258 166.233Z" fill="url(#paint7_linear_1247_33)"/>
<path d="M64.6194 225.011L71.32 220.926L70.7855 220.047C74.2407 216.363 76.9133 211.61 78.4405 205.864C81.9149 192.844 78.8032 177.782 71.2054 165.221C66.1466 156.86 59.0833 149.605 50.6264 144.795C40.8333 139.22 30.8874 137.903 22.4687 140.251L21.9151 139.354L15.4627 143.268C9.08664 147.143 4.1996 153.595 1.88972 162.262C-1.58466 175.281 1.527 190.343 9.12482 202.924C14.1837 211.285 21.247 218.539 29.7038 223.35C42.2841 230.509 55.0935 230.642 64.6385 225.011H64.6194Z" fill="url(#paint8_linear_1247_33)"/>
<path d="M77.6764 161.289C72.6176 152.927 65.5543 145.673 57.0974 140.863C35.9457 128.817 14.1259 136.644 8.34162 158.33C4.86724 171.349 7.97891 186.411 15.5767 198.992C20.6356 207.353 27.6989 214.607 36.1557 219.418C57.2883 231.464 79.1273 223.637 84.9115 201.931C88.3859 188.912 85.2742 173.85 77.6764 161.289Z" fill="url(#paint9_linear_1247_33)"/>
<path d="M73.4211 163.885C69.4122 157.261 63.8188 151.515 57.1183 147.697C40.3573 138.152 23.0808 144.356 18.4992 161.537C15.7503 171.845 18.2129 183.777 24.2262 193.742C28.2351 200.366 33.8285 206.112 40.5291 209.93C57.271 219.475 74.5665 213.271 79.1481 196.09C81.8971 185.781 79.4344 173.85 73.4211 163.885Z" fill="url(#paint10_linear_1247_33)"/>
<path d="M70.8806 165.411C66.9289 158.883 61.4119 153.213 54.8068 149.452C38.294 140.041 21.2466 146.15 16.7223 163.102C14.0115 173.277 16.4359 185.036 22.3729 194.867C26.3246 201.396 31.8416 207.066 38.4467 210.826C54.9595 220.238 72.0069 214.129 76.5312 197.177C79.242 187.002 76.8176 175.243 70.8806 165.431V165.411Z" fill="url(#paint11_radial_1247_33)"/>
<path style="mix-blend-mode:multiply" d="M70.8806 165.411C66.9289 158.883 61.4119 153.213 54.8068 149.452C38.294 140.041 21.2466 146.15 16.7223 163.102C14.0115 173.277 16.4359 185.036 22.3729 194.867C26.3246 201.396 31.8416 207.066 38.4467 210.826C54.9595 220.238 72.0069 214.129 76.5312 197.177C79.242 187.002 76.8176 175.243 70.8806 165.431V165.411Z" fill="url(#paint12_radial_1247_33)"/>
<path d="M23.5194 194.18C17.5825 184.368 15.158 172.59 17.8688 162.434C22.3931 145.482 39.4405 139.373 55.9533 148.784C62.5585 152.545 68.0755 158.215 72.0271 164.744C77.9641 174.556 80.3885 186.315 77.6777 196.49C73.1534 213.442 56.106 219.551 39.5932 210.14C32.9881 206.379 27.4711 200.709 23.5194 194.18ZM78.4986 160.811C73.4779 152.526 66.491 145.348 58.1296 140.595C37.1879 128.683 15.5971 136.414 9.87011 157.89C6.43391 170.776 9.5074 185.685 17.0289 198.132C22.0495 206.417 29.0364 213.595 37.3979 218.348C58.3205 230.26 79.9303 222.529 85.6573 201.053C89.0935 188.167 86.02 173.258 78.4986 160.811Z" fill="url(#paint13_linear_1247_33)"/>
<g style="mix-blend-mode:screen">
<path d="M29.532 146.971C33.2355 144.948 37.5307 144.051 41.7496 144.241C45.9876 144.432 50.1492 145.616 53.9481 147.468C61.6032 151.171 67.8647 157.394 72.2745 164.591C73.3626 166.424 74.3362 168.295 75.1953 170.242C76.0352 172.189 76.7606 174.174 77.3524 176.217C77.9251 178.26 78.3642 180.341 78.6506 182.44C78.9178 184.54 79.0323 186.659 78.9751 188.778C78.8033 193.016 77.9633 197.235 76.1688 201.091C74.3744 204.928 71.6063 208.326 68.0938 210.655C71.5491 208.231 74.2217 204.795 75.9207 200.977C77.6388 197.14 78.4215 192.959 78.536 188.778C78.7078 180.379 76.1116 172.075 71.7782 164.916C67.4638 157.757 61.2787 151.629 53.7572 147.888C50.0156 146.017 45.9303 144.795 41.7305 144.547C37.5498 144.26 33.2737 145.043 29.5129 146.99L29.532 146.971Z" fill="url(#paint14_linear_1247_33)"/>
</g>
</g>
<g opacity="0.4" clip-path="url(#clip0_1247_33)">
<path d="M136.375 130.701C134.985 166.637 146.656 196.276 162.423 196.865C178.167 197.465 192.066 168.803 193.421 132.854C194.777 96.9055 183.106 67.2659 167.362 66.6659C151.595 66.0772 137.719 94.728 136.364 130.677L136.375 130.701Z" fill="url(#paint15_linear_1247_33)"/>
<path d="M149.181 73.8738C140.127 85.0161 133.5 106.14 132.583 130.548C131.677 154.98 136.639 176.519 144.842 188.329L144.495 197.299L159.664 197.851C159.664 197.851 159.758 197.865 159.817 197.866C159.864 197.844 159.934 197.869 159.969 197.881L160.145 197.885C176.039 198.065 189.968 169.098 191.331 132.797C192.705 96.5199 181.029 66.5629 165.19 65.5144L149.505 64.9157L149.158 73.8851L149.181 73.8738Z" fill="url(#paint16_linear_1247_33)"/>
<path d="M118.002 130.008C116.61 166.556 128.482 196.681 144.495 197.299C160.509 197.916 174.641 168.766 176.033 132.219C177.414 95.6477 165.542 65.522 149.54 64.9282C133.503 64.3219 119.393 93.4611 118.013 130.032L118.002 130.008Z" fill="url(#paint17_linear_1247_33)"/>
<path d="M146.636 74.7586C159.738 75.2426 169.406 100.832 168.215 131.908C167.036 162.949 155.465 187.749 142.352 187.241C129.249 186.758 119.582 161.168 120.773 130.092C121.94 99.0271 133.522 74.251 146.636 74.7586Z" fill="url(#paint18_linear_1247_33)"/>
<path d="M148.303 79.6946C160.372 80.1443 169.288 103.532 168.215 131.908C167.141 160.284 156.487 182.907 144.406 182.433C132.337 181.984 123.421 158.596 124.495 130.22C125.568 101.844 136.223 79.2211 148.292 79.6708L148.303 79.6946Z" fill="url(#paint19_radial_1247_33)"/>
<path d="M167.499 131.869C166.425 160.245 155.453 182.873 143.021 182.392C130.588 181.91 121.378 158.516 122.463 130.164C123.537 101.788 134.509 79.1604 146.941 79.6415C159.374 80.1226 168.584 103.517 167.51 131.893L167.499 131.869ZM116.452 129.928C115.073 165.888 126.744 195.527 142.512 196.116C158.255 196.716 172.154 168.054 173.51 132.105C174.865 96.1565 163.194 66.5169 147.45 65.9169C131.683 65.3282 117.808 93.979 116.452 129.928Z" fill="url(#paint20_linear_1247_33)"/>
<path style="mix-blend-mode:screen" d="M168.804 91.2075C167.41 94.7727 165.957 98.3955 164.458 101.982C166.764 110.48 167.927 120.798 167.486 131.904C166.425 160.245 155.453 182.873 143.021 182.391C135.507 182.111 129.185 173.479 125.578 160.452C123.451 162.098 121.411 163.499 119.48 164.761C123.862 183.233 132.333 195.731 142.512 196.116C158.255 196.716 172.154 168.054 173.51 132.105C174.102 116.714 172.284 102.492 168.804 91.2075Z" fill="url(#paint21_linear_1247_33)"/>
</g>
</g>
<defs>
<linearGradient id="paint0_linear_1247_33" x1="149.281" y1="87.5866" x2="26.4417" y2="32.2516" gradientUnits="userSpaceOnUse">
<stop offset="0.16" stop-color="#DE8200"/>
<stop offset="0.21" stop-color="#E08702"/>
<stop offset="0.27" stop-color="#E79708"/>
<stop offset="0.34" stop-color="#F3B213"/>
<stop offset="0.37" stop-color="#F8BD18"/>
<stop offset="0.43" stop-color="#F5AD1A"/>
<stop offset="0.47" stop-color="#F49F1C"/>
<stop offset="0.54" stop-color="#9F4000"/>
<stop offset="0.61" stop-color="#A04701"/>
<stop offset="0.71" stop-color="#FEC423"/>
<stop offset="1" stop-color="#B66300"/>
</linearGradient>
<linearGradient id="paint1_linear_1247_33" x1="149.144" y1="92.9715" x2="23.903" y2="36.5546" gradientUnits="userSpaceOnUse">
<stop stop-color="#EBAB00"/>
<stop offset="0.08" stop-color="#FFC524"/>
<stop offset="0.15" stop-color="#FFD759"/>
<stop offset="0.41" stop-color="#FFF4A5"/>
<stop offset="0.42" stop-color="#FEF09F"/>
<stop offset="0.44" stop-color="#FDE68F"/>
<stop offset="0.46" stop-color="#FBD574"/>
<stop offset="0.48" stop-color="#F8BE4E"/>
<stop offset="0.5" stop-color="#F4A11F"/>
<stop offset="0.52" stop-color="#F28E00"/>
<stop offset="0.56" stop-color="#CA4E00"/>
<stop offset="0.61" stop-color="#A14D00"/>
<stop offset="0.65" stop-color="#EBA500"/>
<stop offset="0.66" stop-color="#EFB016"/>
<stop offset="0.67" stop-color="#F6C136"/>
<stop offset="0.68" stop-color="#FBCD4E"/>
<stop offset="0.69" stop-color="#FFD761"/>
<stop offset="0.73" stop-color="#FFD65F"/>
<stop offset="0.75" stop-color="#FFD558"/>
<stop offset="0.76" stop-color="#FFCF3B"/>
<stop offset="0.77" stop-color="#FFCB29"/>
<stop offset="0.78" stop-color="#FCC424"/>
<stop offset="0.8" stop-color="#F3B317"/>
<stop offset="0.82" stop-color="#E8A215"/>
<stop offset="0.83" stop-color="#F4C64B"/>
<stop offset="0.84" stop-color="#FBDB6B"/>
<stop offset="0.85" stop-color="#FDE072"/>
<stop offset="0.86" stop-color="#FEE275"/>
<stop offset="0.94" stop-color="#FEE47E"/>
<stop offset="1" stop-color="#FED94B"/>
</linearGradient>
<linearGradient id="paint2_linear_1247_33" x1="144.319" y1="107.02" x2="16.3009" y2="49.3518" gradientUnits="userSpaceOnUse">
<stop offset="0.16" stop-color="#FFF8C7"/>
<stop offset="0.2" stop-color="#FEF5C1"/>
<stop offset="0.25" stop-color="#FEEFB1"/>
<stop offset="0.3" stop-color="#FEE596"/>
<stop offset="0.36" stop-color="#FDD870"/>
<stop offset="0.42" stop-color="#FCC641"/>
<stop offset="0.47" stop-color="#FCB717"/>
<stop offset="0.54" stop-color="#B45D05"/>
<stop offset="0.56" stop-color="#9F4200"/>
<stop offset="0.61" stop-color="#A04701"/>
<stop offset="0.65" stop-color="#DA9414"/>
<stop offset="0.66" stop-color="#FEC220"/>
<stop offset="0.81" stop-color="#E89A04"/>
<stop offset="0.82" stop-color="#EBA412"/>
<stop offset="0.83" stop-color="#F2B92F"/>
<stop offset="0.84" stop-color="#F7C946"/>
<stop offset="0.86" stop-color="#FBD456"/>
<stop offset="0.88" stop-color="#FDDB5F"/>
<stop offset="0.9" stop-color="#FEDE63"/>
<stop offset="1" stop-color="#FCC643"/>
</linearGradient>
<linearGradient id="paint3_linear_1247_33" x1="127.662" y1="101.773" x2="32.6182" y2="58.9585" gradientUnits="userSpaceOnUse">
<stop offset="0.16" stop-color="#D27B00"/>
<stop offset="0.25" stop-color="#CD7500"/>
<stop offset="0.37" stop-color="#BF6500"/>
<stop offset="0.5" stop-color="#A84A00"/>
<stop offset="0.54" stop-color="#9F4000"/>
<stop offset="0.61" stop-color="#A04701"/>
<stop offset="0.71" stop-color="#FEBB00"/>
<stop offset="1" stop-color="#9F5800"/>
</linearGradient>
<radialGradient id="paint4_radial_1247_33" cx="0" cy="0" r="1" gradientUnits="userSpaceOnUse" gradientTransform="translate(49.338 147.294) rotate(-155.75) scale(52.272 12.5453)">
<stop stop-color="#FEE799"/>
<stop offset="1" stop-color="#FABA35"/>
</radialGradient>
<linearGradient id="paint5_linear_1247_33" x1="99.4172" y1="60.6136" x2="57.0737" y2="100.46" gradientUnits="userSpaceOnUse">
<stop stop-color="#FFE48C"/>
<stop offset="0.41" stop-color="#FFF4A5"/>
<stop offset="0.46" stop-color="#FFF29F"/>
<stop offset="0.53" stop-color="#FFEC8F"/>
<stop offset="0.61" stop-color="#FFE374"/>
<stop offset="0.7" stop-color="#FFD74F"/>
<stop offset="0.77" stop-color="#FFCB29"/>
<stop offset="0.86" stop-color="#FEE275"/>
<stop offset="0.94" stop-color="#FEE47E"/>
</linearGradient>
<linearGradient id="paint6_linear_1247_33" x1="108.139" y1="66.6142" x2="93.5793" y2="79.2262" gradientUnits="userSpaceOnUse">
<stop stop-color="#B7B7B7"/>
<stop offset="1"/>
</linearGradient>
<linearGradient id="paint7_linear_1247_33" x1="0.888965" y1="188.237" x2="76.9866" y2="181.914" gradientUnits="userSpaceOnUse">
<stop offset="0.16" stop-color="#FFF8C7"/>
<stop offset="0.2" stop-color="#FEF5C1"/>
<stop offset="0.25" stop-color="#FEEFB1"/>
<stop offset="0.3" stop-color="#FEE596"/>
<stop offset="0.36" stop-color="#FDD870"/>
<stop offset="0.42" stop-color="#FCC641"/>
<stop offset="0.47" stop-color="#FCB717"/>
<stop offset="0.54" stop-color="#B45D05"/>
<stop offset="0.56" stop-color="#9F4200"/>
<stop offset="0.61" stop-color="#A04701"/>
<stop offset="0.65" stop-color="#DA9414"/>
<stop offset="0.66" stop-color="#FEC220"/>
<stop offset="0.81" stop-color="#E89A04"/>
<stop offset="0.82" stop-color="#EBA412"/>
<stop offset="0.83" stop-color="#F2B92F"/>
<stop offset="0.84" stop-color="#F7C946"/>
<stop offset="0.86" stop-color="#FBD456"/>
<stop offset="0.88" stop-color="#FDDB5F"/>
<stop offset="0.9" stop-color="#FEDE63"/>
<stop offset="1" stop-color="#FCC643"/>
</linearGradient>
<linearGradient id="paint8_linear_1247_33" x1="15.8178" y1="144.064" x2="65.2338" y2="225.659" gradientUnits="userSpaceOnUse">
<stop stop-color="#EBAB00"/>
<stop offset="0.08" stop-color="#FFC524"/>
<stop offset="0.15" stop-color="#FFD759"/>
<stop offset="0.41" stop-color="#FFF4A5"/>
<stop offset="0.42" stop-color="#FEF09F"/>
<stop offset="0.44" stop-color="#FDE68F"/>
<stop offset="0.46" stop-color="#FBD574"/>
<stop offset="0.48" stop-color="#F8BE4E"/>
<stop offset="0.5" stop-color="#F4A11F"/>
<stop offset="0.52" stop-color="#F28E00"/>
<stop offset="0.56" stop-color="#CA4E00"/>
<stop offset="0.61" stop-color="#A14D00"/>
<stop offset="0.65" stop-color="#EBA500"/>
<stop offset="0.66" stop-color="#EFB016"/>
<stop offset="0.67" stop-color="#F6C136"/>
<stop offset="0.68" stop-color="#FBCD4E"/>
<stop offset="0.69" stop-color="#FFD761"/>
<stop offset="0.73" stop-color="#FFD65F"/>
<stop offset="0.75" stop-color="#FFD558"/>
<stop offset="0.76" stop-color="#FFCF3B"/>
<stop offset="0.77" stop-color="#FFCB29"/>
<stop offset="0.78" stop-color="#FCC424"/>
<stop offset="0.8" stop-color="#F3B317"/>
<stop offset="0.82" stop-color="#E8A215"/>
<stop offset="0.83" stop-color="#F4C64B"/>
<stop offset="0.84" stop-color="#FBDB6B"/>
<stop offset="0.85" stop-color="#FDE072"/>
<stop offset="0.86" stop-color="#FEE275"/>
<stop offset="0.94" stop-color="#FEE47E"/>
<stop offset="1" stop-color="#FED94B"/>
</linearGradient>
<linearGradient id="paint9_linear_1247_33" x1="7.82672" y1="183.676" x2="85.2561" y2="177.242" gradientUnits="userSpaceOnUse">
<stop offset="0.16" stop-color="#DE8200"/>
<stop offset="0.21" stop-color="#E08702"/>
<stop offset="0.27" stop-color="#E79708"/>
<stop offset="0.34" stop-color="#F3B213"/>
<stop offset="0.37" stop-color="#F8BD18"/>
<stop offset="0.43" stop-color="#F5AD1A"/>
<stop offset="0.47" stop-color="#F49F1C"/>
<stop offset="0.54" stop-color="#9F4000"/>
<stop offset="0.61" stop-color="#A04701"/>
<stop offset="0.71" stop-color="#FEC423"/>
<stop offset="1" stop-color="#B66300"/>
</linearGradient>
<linearGradient id="paint10_linear_1247_33" x1="18.0654" y1="181.695" x2="79.4002" y2="176.598" gradientUnits="userSpaceOnUse">
<stop offset="0.16" stop-color="#D27B00"/>
<stop offset="0.23" stop-color="#CD7500"/>
<stop offset="0.31" stop-color="#BF6500"/>
<stop offset="0.4" stop-color="#A84A00"/>
<stop offset="0.43" stop-color="#9F4000"/>
<stop offset="0.61" stop-color="#A04701"/>
<stop offset="1" stop-color="#BB5100"/>
</linearGradient>
<radialGradient id="paint11_radial_1247_33" cx="0" cy="0" r="1" gradientUnits="userSpaceOnUse" gradientTransform="translate(46.5416 180.458) rotate(-4.75) scale(33.1211 33.1211)">
<stop stop-color="#DE9F0F"/>
<stop offset="1" stop-color="#CA7606"/>
</radialGradient>
<radialGradient id="paint12_radial_1247_33" cx="0" cy="0" r="1" gradientUnits="userSpaceOnUse" gradientTransform="translate(55.7159 178.955) rotate(-149.4) scale(45.4151 45.4151)">
<stop stop-color="white"/>
<stop offset="0.66" stop-color="white"/>
<stop offset="0.77" stop-color="white"/>
<stop offset="0.85" stop-color="#FEFDFD"/>
<stop offset="0.88" stop-color="#FCF9F6"/>
<stop offset="0.91" stop-color="#F9F2EA"/>
<stop offset="0.92" stop-color="#F4E8D9"/>
<stop offset="0.94" stop-color="#EFDBC3"/>
<stop offset="0.95" stop-color="#E7CAA7"/>
<stop offset="0.97" stop-color="#DFB787"/>
<stop offset="0.98" stop-color="#D4A061"/>
<stop offset="0.99" stop-color="#C98735"/>
<stop offset="1" stop-color="#BB6700"/>
</radialGradient>
<linearGradient id="paint13_linear_1247_33" x1="44.0848" y1="136.355" x2="51.2459" y2="222.536" gradientUnits="userSpaceOnUse">
<stop stop-color="#EFA611"/>
<stop offset="0.41" stop-color="#FFC500"/>
<stop offset="0.53" stop-color="#FCBF00"/>
<stop offset="0.7" stop-color="#F5AF00"/>
<stop offset="0.88" stop-color="#EA9400"/>
<stop offset="1" stop-color="#E17F00"/>
</linearGradient>
<linearGradient id="paint14_linear_1247_33" x1="41.6254" y1="140.687" x2="80.1831" y2="204.353" gradientUnits="userSpaceOnUse">
<stop stop-color="#FFAA00"/>
<stop offset="0.5" stop-color="#FFEF7F"/>
<stop offset="0.57" stop-color="#FDEA79"/>
<stop offset="0.67" stop-color="#F7DD69"/>
<stop offset="0.78" stop-color="#EEC74E"/>
<stop offset="0.89" stop-color="#E1A829"/>
<stop offset="1" stop-color="#D48700"/>
</linearGradient>
<linearGradient id="paint15_linear_1247_33" x1="151.988" y1="69.4771" x2="176.558" y2="194.563" gradientUnits="userSpaceOnUse">
<stop offset="0.16" stop-color="#DE8200"/>
<stop offset="0.21" stop-color="#E08702"/>
<stop offset="0.27" stop-color="#E79708"/>
<stop offset="0.34" stop-color="#F3B213"/>
<stop offset="0.37" stop-color="#F8BD18"/>
<stop offset="0.43" stop-color="#F5AD1A"/>
<stop offset="0.47" stop-color="#F49F1C"/>
<stop offset="0.54" stop-color="#9F4000"/>
<stop offset="0.61" stop-color="#A04701"/>
<stop offset="0.71" stop-color="#FEC423"/>
<stop offset="1" stop-color="#B66300"/>
</linearGradient>
<linearGradient id="paint16_linear_1247_33" x1="159.09" y1="198.165" x2="164.124" y2="65.7681" gradientUnits="userSpaceOnUse">
<stop stop-color="#EBAB00"/>
<stop offset="0.08" stop-color="#FFC524"/>
<stop offset="0.15" stop-color="#FFD759"/>
<stop offset="0.41" stop-color="#FFF4A5"/>
<stop offset="0.42" stop-color="#FEF09F"/>
<stop offset="0.44" stop-color="#FDE68F"/>
<stop offset="0.46" stop-color="#FBD574"/>
<stop offset="0.48" stop-color="#F8BE4E"/>
<stop offset="0.5" stop-color="#F4A11F"/>
<stop offset="0.52" stop-color="#F28E00"/>
<stop offset="0.56" stop-color="#CA4E00"/>
<stop offset="0.61" stop-color="#A14D00"/>
<stop offset="0.65" stop-color="#EBA500"/>
<stop offset="0.66" stop-color="#EFB016"/>
<stop offset="0.67" stop-color="#F6C136"/>
<stop offset="0.68" stop-color="#FBCD4E"/>
<stop offset="0.69" stop-color="#FFD761"/>
<stop offset="0.73" stop-color="#FFD65F"/>
<stop offset="0.75" stop-color="#FFD558"/>
<stop offset="0.76" stop-color="#FFCF3B"/>
<stop offset="0.77" stop-color="#FFCB29"/>
<stop offset="0.78" stop-color="#FCC424"/>
<stop offset="0.8" stop-color="#F3B317"/>
<stop offset="0.82" stop-color="#E8A215"/>
<stop offset="0.83" stop-color="#F4C64B"/>
<stop offset="0.84" stop-color="#FBDB6B"/>
<stop offset="0.85" stop-color="#FDE072"/>
<stop offset="0.86" stop-color="#FEE275"/>
<stop offset="0.94" stop-color="#FEE47E"/>
<stop offset="1" stop-color="#FED94B"/>
</linearGradient>
<linearGradient id="paint17_linear_1247_33" x1="133.897" y1="67.7303" x2="158.887" y2="194.955" gradientUnits="userSpaceOnUse">
<stop offset="0.16" stop-color="#FFF8C7"/>
<stop offset="0.2" stop-color="#FEF5C1"/>
<stop offset="0.25" stop-color="#FEEFB1"/>
<stop offset="0.3" stop-color="#FEE596"/>
<stop offset="0.36" stop-color="#FDD870"/>
<stop offset="0.42" stop-color="#FCC641"/>
<stop offset="0.47" stop-color="#FCB717"/>
<stop offset="0.56" stop-color="#B45D05"/>
<stop offset="0.58" stop-color="#9F4200"/>
<stop offset="0.63" stop-color="#A04701"/>
<stop offset="0.68" stop-color="#DA9414"/>
<stop offset="0.7" stop-color="#FEC220"/>
<stop offset="0.81" stop-color="#E89A04"/>
<stop offset="0.82" stop-color="#EBA412"/>
<stop offset="0.83" stop-color="#F2B92F"/>
<stop offset="0.85" stop-color="#F7C946"/>
<stop offset="0.86" stop-color="#FBD456"/>
<stop offset="0.88" stop-color="#FDDB5F"/>
<stop offset="0.9" stop-color="#FEDE63"/>
<stop offset="1" stop-color="#FCC643"/>
</linearGradient>
<linearGradient id="paint18_linear_1247_33" x1="142.3" y1="171.866" x2="146.573" y2="59.4854" gradientUnits="userSpaceOnUse">
<stop offset="0.16" stop-color="#D27B00"/>
<stop offset="0.25" stop-color="#CD7500"/>
<stop offset="0.37" stop-color="#BF6500"/>
<stop offset="0.5" stop-color="#A84A00"/>
<stop offset="0.54" stop-color="#9F4000"/>
<stop offset="0.61" stop-color="#A04701"/>
<stop offset="0.71" stop-color="#FEBB00"/>
<stop offset="1" stop-color="#9F5800"/>
</linearGradient>
<radialGradient id="paint19_radial_1247_33" cx="0" cy="0" r="1" gradientUnits="userSpaceOnUse" gradientTransform="translate(145.451 149.838) rotate(-87.8226) scale(51.4778 21.8093)">
<stop stop-color="#FEDE6D"/>
<stop offset="1" stop-color="#F2AC1A"/>
</radialGradient>
<linearGradient id="paint20_linear_1247_33" x1="175.066" y1="125.229" x2="112.948" y2="137.43" gradientUnits="userSpaceOnUse">
<stop stop-color="#FFD651"/>
<stop offset="0.41" stop-color="#FFEC60"/>
<stop offset="0.48" stop-color="#FFE95A"/>
<stop offset="0.58" stop-color="#FFE04A"/>
<stop offset="0.69" stop-color="#FFD32F"/>
<stop offset="0.77" stop-color="#FFC718"/>
<stop offset="0.86" stop-color="#FED844"/>
<stop offset="0.94" stop-color="#FED949"/>
</linearGradient>
<linearGradient id="paint21_linear_1247_33" x1="173.459" y1="172.136" x2="148.54" y2="139.645" gradientUnits="userSpaceOnUse">
<stop stop-color="#B7B7B7"/>
<stop offset="1"/>
</linearGradient>
<clipPath id="clip0_1247_33">
<rect width="127.817" height="96.3225" fill="white" transform="translate(138.727 209.734) rotate(-115.323)"/>
</clipPath>
</defs>
</svg>
