<svg width="96" height="96" viewBox="0 0 96 96" fill="none" xmlns="http://www.w3.org/2000/svg">
<g opacity="0.8">
<path d="M84.9994 48.2424C84.8724 68.6746 68.202 85.1274 47.7673 84.9951C27.3327 84.8627 10.8688 68.1879 11.0006 47.7576C11.1275 27.3253 27.798 10.8725 48.2327 11.0049C68.6673 11.1372 85.1264 27.8101 84.9975 48.2472L84.9994 48.2424Z" fill="#C39B43"/>
<path d="M76.459 24.372C69.7234 16.27 59.594 11.0764 48.2345 11.0001C27.7998 10.8678 11.1294 27.3206 11.0024 47.7529C10.9781 52.0446 11.6904 56.1671 13.0096 60.0141C33.9522 47.7694 55.0877 35.8498 76.4638 24.3739L76.459 24.372Z" fill="#D8AF4D"/>
<path d="M52.0525 84.7736C60.548 83.8546 68.1875 80.0627 73.9661 74.3746C68.1709 77.111 62.3902 79.8808 56.6037 82.6373C55.0905 83.3583 53.5686 84.0593 52.0506 84.7784L52.0525 84.7736Z" fill="#D8AF4D"/>
<path d="M76.3351 48.7799C76.2396 64.1045 63.7368 76.4476 48.4122 76.3462C33.0876 76.2448 20.7396 63.7372 20.8351 48.4126C20.9306 33.088 33.4333 20.7449 48.758 20.8463C64.0826 20.9477 76.4306 33.4553 76.3303 48.778L76.3351 48.7799Z" fill="#AF8E2F"/>
<path d="M60.639 32.8822L51.594 32.8206C53.173 34.2237 54.3104 36.2277 54.6246 39.0143L60.5991 39.0557L60.5808 42.0821L54.6617 42.0405C54.0757 48.209 49.6095 52.1116 42.5946 52.3078C46.838 57.2358 51.4584 63.4418 56.0217 69.7083L50.7598 69.6711C46.5227 63.954 42.5499 58.6621 37.4386 52.5781L37.4617 48.8228L40.4767 48.8433C46.3957 48.8849 49.5923 46.1814 50.0015 42.008L37.5044 41.9252L37.5227 38.8987L49.8534 38.9824C49.1068 35.4661 46.2116 33.6937 41.4471 33.6588L37.555 33.6302L37.5809 29.6988L60.6525 29.8538L60.6342 32.8803L60.639 32.8822Z" fill="#DEA041"/>
<path d="M59.8711 32.1038L50.8261 32.0423C52.4051 33.4453 53.5473 35.4512 53.8567 38.236L59.8312 38.2773L59.8129 41.3038L53.8938 41.2622C53.3078 47.4307 48.8416 51.3332 41.8267 51.5295C46.0701 56.4575 50.6905 62.6635 55.2538 68.93L49.9919 68.8928C45.7548 63.1756 41.782 57.8837 36.6707 51.7997L36.6919 48.0492L39.7069 48.0697C45.6259 48.1113 48.8225 45.4078 49.2317 41.2345L36.7346 41.1516L36.7529 38.1252L49.0836 38.2088C48.337 34.6926 45.4418 32.9201 40.6773 32.8852L36.7852 32.8566L36.8111 28.9252L59.8828 29.0803L59.8644 32.1067L59.8711 32.1038Z" fill="#FFD325"/>
<path d="M71.8437 6.39996C71.7694 13.3874 72.0119 20.121 81.702 21.6861C71.4422 21.5502 72.235 28.2742 71.7408 36.7052C71.4605 28.2802 70.7523 22.2356 62.7691 21.8375C71.0326 20.4023 70.8084 16.4246 71.8437 6.39996Z" fill="#FFD325"/>
</g>
</svg>
