<svg width="219" height="98" viewBox="0 0 219 98" fill="none" xmlns="http://www.w3.org/2000/svg">
<path d="M29.4908 49.4713C24.2454 45.439 16.6627 46.3976 13.2407 52.0626C7.17901 62.0975 2.79202 73.0558 0.253435 84.5036C-1.17969 90.9664 3.64352 96.9006 10.2194 97.6096L13.1961 97.9305C19.772 98.6395 25.5898 93.84 27.261 87.4348C28.9744 80.8683 31.5066 74.5431 34.7975 68.6093C38.0076 62.8213 37.1108 55.3287 31.8653 51.2965L29.4908 49.4713Z" fill="#EE3D4B"/>
<path d="M78.7735 9.75771C77.8233 6.93458 74.7606 5.40412 71.9911 6.49503C56.9645 12.414 43.4573 21.6382 32.4708 33.4839C30.4459 35.6672 30.7526 39.0798 33.0323 40.9949C35.3121 42.91 38.7006 42.6012 40.7376 40.4292C50.4355 30.0887 62.2807 21.9995 75.437 16.7325C78.2005 15.6262 79.7236 12.5808 78.7735 9.75771Z" fill="#FF919A"/>
<path d="M139.749 9.10131C140.543 6.23006 138.862 3.2448 135.958 2.59527C120.198 -0.928846 103.847 -0.863119 88.1156 2.78758C85.2162 3.46044 83.56 6.45911 84.3763 9.32388C85.1926 12.1887 88.1722 13.8331 91.0752 13.1764C104.896 10.0498 119.236 9.99216 133.082 13.0075C135.99 13.6409 138.956 11.9725 139.749 9.10131Z" fill="#FFD325"/>
<path d="M189.895 41.0024C192.175 39.0875 192.482 35.6749 190.458 33.4915C179.472 21.6447 165.966 12.4192 150.94 6.49882C148.171 5.40764 145.108 6.93781 144.157 9.76085C143.207 12.5839 144.73 15.6294 147.493 16.736C160.649 22.0042 172.493 30.0945 182.19 40.436C184.227 42.6082 187.616 42.9174 189.895 41.0024Z" fill="#5BC275"/>
<path d="M214.28 97.0842C217.24 96.7704 219.399 94.1114 218.938 91.1684C216.437 75.2003 210.381 59.9972 201.221 46.686C199.533 44.2327 196.139 43.7896 193.775 45.5999C191.411 47.4102 190.975 50.7878 192.65 53.2505C200.622 64.9752 205.932 78.3076 208.205 92.3067C208.682 95.2472 211.32 97.398 214.28 97.0842Z" fill="#268E3A"/>
</svg>
