<svg width="30" height="30" viewBox="0 0 30 30" fill="none" xmlns="http://www.w3.org/2000/svg">
<circle cx="15" cy="15" r="15" fill="#FFF3EB"/>
<circle cx="14.857" cy="14.857" r="12.6571" stroke="#AF8E2F" stroke-width="0.4"/>
<g clip-path="url(#clip0_13_1409)">
<path d="M21.4131 15.643L20.4409 10.1295C20.3551 9.64277 19.9318 9.30029 19.454 9.30029C19.3962 9.30029 10.9406 10.7859 10.9406 10.7859C10.3949 10.8821 10.0305 11.4025 10.1267 11.9482L10.2205 12.4797H17.8517C18.8198 12.4797 19.6075 13.2673 19.6075 14.2355V14.939V16.6459V16.9801L20.5993 16.8052C21.1449 16.709 21.5093 16.1887 21.4131 15.643Z" fill="#AF8E2F"/>
<path d="M18.8551 16.7701H8.57141V19.6964C8.57141 20.2505 9.02061 20.6997 9.57469 20.6997H17.8518C18.4059 20.6997 18.8551 20.2505 18.8551 19.6964V16.7701ZM11.5584 19.7958H9.85153C9.64375 19.7958 9.4753 19.6273 9.4753 19.4195C9.4753 19.2118 9.64375 19.0433 9.85153 19.0433H11.5584C11.7661 19.0433 11.9346 19.2118 11.9346 19.4195C11.9346 19.6273 11.7662 19.7958 11.5584 19.7958Z" fill="#AF8E2F"/>
<path d="M8.57263 14.1867H18.8538C18.8283 13.6553 18.3894 13.2323 17.8517 13.2323H9.57469C9.037 13.2323 8.59815 13.6553 8.57263 14.1867Z" fill="#AF8E2F"/>
<path d="M8.57141 14.182H18.8551V15.9738H8.57141V14.182Z" fill="#AF8E2F"/>
</g>
<defs>
<clipPath id="clip0_13_1409">
<rect width="12.8571" height="12.8571" fill="white" transform="translate(8.57141 8.57141)"/>
</clipPath>
</defs>
</svg>
