<svg width="219" height="98" viewBox="0 0 219 98" fill="none" xmlns="http://www.w3.org/2000/svg">
<path d="M26.0133 45.8701C23.587 44.0391 20.097 44.4801 18.3571 46.9528C8.91728 60.3689 2.66554 75.6997 0.0653272 91.8089C-0.413914 94.7779 1.80048 97.465 4.84221 97.787C7.88394 98.1089 10.5996 95.9432 11.0956 92.9768C13.4572 78.8541 18.9396 65.4098 27.1562 53.5925C28.882 51.1103 28.4397 47.7012 26.0133 45.8701Z" fill="#EE3D4B"/>
<path d="M75.886 10.8547C74.9093 8.00579 71.7611 6.46138 68.9143 7.56223C53.4684 13.5351 39.5843 22.8434 28.2911 34.7971C26.2097 37.0003 26.525 40.444 28.8683 42.3766C31.2117 44.3092 34.6948 43.9975 36.7886 41.8058C46.7572 31.371 58.9329 23.208 72.4564 17.8931C75.297 16.7767 76.8626 13.7035 75.886 10.8547Z" fill="#FF919A"/>
<path d="M137.538 9.18428C138.353 6.28686 136.626 3.27438 133.64 2.61893C117.441 -0.937314 100.633 -0.870988 84.4629 2.813C81.4827 3.49198 79.7803 6.518 80.6193 9.40889C81.4584 12.2998 84.5212 13.9592 87.5052 13.2965C101.712 10.1414 116.452 10.0833 130.684 13.1261C133.673 13.7652 136.722 12.0817 137.538 9.18428Z" fill="#FFD325"/>
<path d="M189.026 39.6047C194.234 35.3105 194.956 27.6236 190.036 23.0139C181.319 14.8486 171.305 8.1335 160.39 3.13461C154.228 0.312553 147.207 3.77571 145.036 10.1063L144.053 12.972C141.882 19.3026 145.403 26.0862 151.454 29.1306C157.658 32.2516 163.438 36.1276 168.658 40.6666C173.749 45.094 181.461 45.8427 186.669 41.5485L189.026 39.6047Z" fill="#5BC275"/>
<path d="M214.148 97.9693C217.191 97.6527 219.41 94.9694 218.936 91.9995C216.365 75.8859 210.141 60.5442 200.725 47.1117C198.99 44.6359 195.501 44.1888 193.071 46.0156C190.641 47.8424 190.193 51.2508 191.914 53.736C200.109 65.5676 205.568 79.0215 207.904 93.1483C208.394 96.1155 211.106 98.286 214.148 97.9693Z" fill="#268E3A"/>
</svg>
