<svg width="318" height="343" viewBox="0 0 318 343" fill="none" xmlns="http://www.w3.org/2000/svg">
<path opacity="0.27" d="M178.325 343C255.204 343 317.526 335.261 317.526 325.713C317.526 316.166 255.204 308.427 178.325 308.427C101.446 308.427 39.1233 316.166 39.1233 325.713C39.1233 335.261 101.446 343 178.325 343Z" fill="#FFD325"/>
<path d="M308.827 112.229L266.245 132.874L308.827 141.669V112.229Z" fill="#FFD325"/>
<path d="M151.846 117.656L196.778 129.662L151.846 141.669V117.656Z" fill="#FFD325"/>
<path d="M272.471 74.7576L258.831 96.932L299.003 74.7877L272.471 74.7576Z" fill="#FFD325"/>
<path d="M205.831 75.0437L216.303 92.0741L185.456 75.0678L205.831 75.0437Z" fill="#FFD325"/>
<path d="M180.187 75.0437L195.111 99.304L151.167 75.0768L180.187 75.0437Z" fill="#FFD325"/>
<path d="M252.468 74.923L248.371 86.0118L261.624 74.7876L252.468 74.923Z" fill="#FFD325"/>
<path d="M215.606 74.7876L228.271 87.3843L225.33 74.7876H215.606Z" fill="#FFD325"/>
<path d="M233.698 74.7877L236.195 86.1323L244.768 74.6643L233.698 74.7877Z" fill="#FFD325"/>
<path d="M308.827 75.5222L268.549 112.229L308.827 104.963V75.5222Z" fill="#FFD325"/>
<path d="M151.517 80.9492L191.795 117.656L151.517 110.39V80.9492Z" fill="#FFD325"/>
<path d="M250.88 191.765H245.182L269.887 139.472H275.585L250.88 191.765Z" fill="#1D478E"/>
<path d="M273.094 149.992C278.923 149.992 283.648 145.282 283.648 139.472C283.648 133.663 278.923 128.953 273.094 128.953C267.265 128.953 262.54 133.663 262.54 139.472C262.54 145.282 267.265 149.992 273.094 149.992Z" fill="#161742"/>
<path d="M156.095 47.9543H207.238C234.981 47.9543 257.503 70.4057 257.503 98.0552V269.897C257.503 290.41 240.794 307.064 220.214 307.064H143.116C122.537 307.064 105.828 290.41 105.828 269.897V98.0552C105.828 70.4027 128.353 47.9543 156.092 47.9543H156.095Z" fill="#FFF3EB"/>
<path d="M257.506 308.675H105.831C104.94 308.675 104.219 307.955 104.219 307.067V93.9978C104.219 67.7208 125.665 46.344 152.025 46.344H211.312C237.672 46.344 259.118 67.7208 259.118 93.9978V307.064C259.118 307.952 258.396 308.672 257.506 308.672V308.675ZM107.444 305.46H255.893V93.9978C255.893 69.4936 235.893 49.5586 211.312 49.5586H152.025C127.441 49.5586 107.441 69.4936 107.441 93.9978V305.457L107.444 305.46Z" fill="#1D478E"/>
<path d="M172.579 1.42651H190.072C215.006 1.42651 235.251 21.6032 235.251 46.4586C235.251 46.5632 235.166 46.6482 235.061 46.6482H127.59C127.485 46.6482 127.4 46.5632 127.4 46.4586C127.4 21.6064 147.642 1.42651 172.579 1.42651Z" fill="#32B353"/>
<path d="M235.176 46.9327H127.715C126.022 46.9327 124.645 45.7883 124.645 44.3857C124.645 20.413 148.148 0.909912 177.037 0.909912H185.857C214.747 0.909912 238.25 20.413 238.25 44.3857C238.25 45.7916 236.872 46.9327 235.179 46.9327H235.176ZM128.65 42.9503H234.244C233.749 21.7274 212.234 4.58493 185.857 4.58493H177.037C150.66 4.58493 129.145 21.7274 128.65 42.9503Z" fill="#1D478E"/>
<path d="M275.292 198.245H88.0479V307.067H275.292V198.245Z" fill="#FFF3EB"/>
<path d="M275.292 308.675H88.0479C87.157 308.675 86.4353 307.955 86.4353 307.067V198.245C86.4353 197.357 87.157 196.638 88.0479 196.638H275.292C276.183 196.638 276.905 197.357 276.905 198.245V307.067C276.905 307.955 276.183 308.675 275.292 308.675ZM89.6604 305.46H273.68V199.852H89.6604V305.46Z" fill="#1D478E"/>
<path d="M106.115 173.81H257.225L275.292 198.245H88.0479L106.115 173.81Z" fill="#FFF3EB"/>
<path d="M275.292 199.852H88.0477C87.4407 199.852 86.882 199.512 86.6072 198.97C86.3324 198.428 86.3868 197.781 86.7492 197.291L104.817 172.856C105.118 172.446 105.602 172.203 106.115 172.203H257.228C257.741 172.203 258.221 172.446 258.526 172.856L276.594 197.291C276.956 197.778 277.01 198.428 276.736 198.97C276.461 199.512 275.905 199.852 275.295 199.852H275.292ZM91.2396 196.638H272.1L256.413 175.417H106.93L91.2396 196.638Z" fill="#1D478E"/>
<path d="M226.487 185.212C226.487 188.354 223.717 190.904 220.299 190.904C216.881 190.904 214.112 188.354 214.112 185.212C214.112 182.069 216.881 179.52 220.299 179.52C223.717 179.52 226.487 182.069 226.487 185.212Z" fill="#E5B313"/>
<path d="M226.487 184.453C226.487 187.596 223.717 190.145 220.299 190.145C216.881 190.145 214.112 187.596 214.112 184.453C214.112 181.311 216.881 178.761 220.299 178.761C223.717 178.761 226.487 181.311 226.487 184.453Z" fill="#FFD325"/>
<path d="M187.945 185.299C187.737 188.435 184.88 190.801 181.567 190.582C178.255 190.362 175.736 187.641 175.944 184.504C176.153 181.368 179.01 179.002 182.322 179.222C185.635 179.442 188.153 182.163 187.945 185.299Z" fill="#E5B313"/>
<path d="M187.957 184.002C187.957 187.144 185.263 189.694 181.945 189.694C178.626 189.694 175.932 187.144 175.932 184.002C175.932 180.859 178.626 178.31 181.945 178.31C185.263 178.31 187.957 180.859 187.957 184.002Z" fill="#FFD325"/>
<path d="M150.82 185.402C150.82 188.544 147.993 191.093 144.509 191.093C141.024 191.093 138.197 188.544 138.197 185.402C138.197 182.259 141.024 179.71 144.509 179.71C147.993 179.71 150.82 182.259 150.82 185.402Z" fill="#E5B313"/>
<path d="M150.82 184.264C150.82 187.406 147.993 189.955 144.509 189.955C141.024 189.955 138.197 187.406 138.197 184.264C138.197 181.121 141.024 178.572 144.509 178.572C147.993 178.572 150.82 181.121 150.82 184.264Z" fill="#FFD325"/>
<path d="M141.368 18.7938C140.571 18.8089 139.903 18.526 139.363 17.945C138.81 17.3521 138.572 16.6658 138.647 15.8802C138.723 15.0946 139.124 14.3752 139.852 13.716C140.568 13.0689 141.326 12.7438 142.129 12.7348C142.932 12.7258 143.609 13.0177 144.161 13.6107C144.702 14.1916 144.931 14.8689 144.85 15.6484C144.768 16.428 144.37 17.1384 143.654 17.7855C142.926 18.4417 142.165 18.7788 141.368 18.7938ZM159.704 7.27471C159.028 6.94361 158.584 6.39881 158.372 5.64331C158.155 4.87276 158.243 4.15036 158.638 3.47914C159.031 2.80792 159.671 2.33536 160.559 2.05844C161.431 1.78754 162.204 1.82366 162.884 2.16379C163.56 2.50391 164.01 3.06076 164.225 3.83131C164.436 4.58681 164.345 5.29716 163.95 5.95935C163.554 6.62456 162.92 7.0911 162.047 7.362C161.16 7.6359 160.377 7.60881 159.704 7.27772V7.27471ZM180.429 4.63798C179.858 4.09317 179.592 3.42496 179.629 2.63936C179.668 1.8357 179.997 1.18555 180.616 0.685894C181.235 0.18624 182.038 -0.0395075 183.026 0.00564194C183.995 0.0507914 184.765 0.351788 185.336 0.905622C185.907 1.45946 186.172 2.13971 186.133 2.94337C186.097 3.72897 185.768 4.37009 185.146 4.86072C184.527 5.35134 183.732 5.57408 182.763 5.52893C181.776 5.48378 181 5.18579 180.429 4.64099V4.63798ZM203.476 6.87438C203.18 6.14597 203.213 5.43261 203.572 4.72828C203.941 4.0089 204.509 3.54536 205.285 3.33767C206.058 3.12999 206.885 3.24436 207.77 3.68081C208.637 4.10822 209.216 4.69216 209.509 5.42659C209.802 6.16102 209.763 6.88642 209.395 7.6058C209.035 8.31014 208.471 8.76163 207.7 8.96029C206.93 9.16196 206.112 9.04758 205.245 8.61715C204.364 8.18071 203.775 7.59978 203.479 6.87137L203.476 6.87438ZM219.882 17.316C219.94 16.5334 220.29 15.9073 220.924 15.4287C221.573 14.9411 222.292 14.7695 223.083 14.917C223.871 15.0645 224.563 15.522 225.164 16.2956C225.753 17.0541 226.012 17.8276 225.949 18.6132C225.883 19.3988 225.526 20.037 224.874 20.5216C224.237 21.0001 223.527 21.1627 222.748 21.0092C221.966 20.8587 221.283 20.4012 220.695 19.6427C220.097 18.8691 219.825 18.0925 219.885 17.3129L219.882 17.316ZM229.823 29.6989C230.319 29.0849 230.965 28.7568 231.765 28.7177C232.58 28.6756 233.272 28.9314 233.843 29.4883C234.41 30.0451 234.721 30.8096 234.773 31.7788C234.824 32.733 234.598 33.5156 234.096 34.1296C233.592 34.7437 232.934 35.0717 232.115 35.1139C231.315 35.156 230.636 34.8972 230.077 34.3403C229.518 33.7835 229.213 33.028 229.159 32.0738C229.108 31.1046 229.328 30.313 229.823 29.6989ZM223.874 40.9713C224.542 41.3987 224.931 42.0037 225.049 42.7833C225.167 43.5779 224.971 44.2792 224.46 44.8872C223.947 45.4953 223.204 45.8685 222.226 46.01C221.265 46.1484 220.45 45.9979 219.783 45.5615C219.115 45.125 218.723 44.508 218.602 43.7133C218.487 42.9338 218.683 42.2445 219.197 41.6455C219.71 41.0465 220.447 40.6763 221.407 40.5408C222.386 40.3994 223.207 40.5408 223.871 40.9713H223.874ZM203.116 42.0759C203.714 42.5936 204.01 43.2468 204.01 44.0354C204.01 44.824 203.711 45.5043 203.116 46.034C202.522 46.5608 201.73 46.8257 200.74 46.8257C199.749 46.8257 198.985 46.5608 198.391 46.034C197.796 45.5073 197.497 44.8421 197.497 44.0354C197.497 43.2287 197.796 42.5936 198.391 42.0759C198.985 41.5552 199.771 41.2963 200.74 41.2963C201.709 41.2963 202.522 41.5552 203.116 42.0759ZM181.945 41.4288C182.543 41.9465 182.839 42.5997 182.839 43.3883C182.839 44.1769 182.54 44.8571 181.945 45.3869C181.35 45.9136 180.559 46.1785 179.568 46.1785C178.578 46.1785 177.814 45.9136 177.219 45.3869C176.624 44.8601 176.325 44.1949 176.325 43.3883C176.325 42.5816 176.624 41.9465 177.219 41.4288C177.814 40.9081 178.599 40.6492 179.568 40.6492C180.538 40.6492 181.35 40.9081 181.945 41.4288ZM162.772 41.7388C163.37 42.2565 163.666 42.9097 163.666 43.6983C163.666 44.4869 163.367 45.1672 162.772 45.6969C162.177 46.2237 161.386 46.4885 160.396 46.4885C159.405 46.4885 158.641 46.2237 158.046 45.6969C157.451 45.1702 157.152 44.505 157.152 43.6983C157.152 42.8916 157.451 42.2565 158.046 41.7388C158.641 41.2181 159.426 40.9592 160.396 40.9592C161.365 40.9592 162.174 41.2181 162.772 41.7388ZM144.333 43.3823C144.454 44.1558 144.258 44.8451 143.745 45.4501C143.222 46.0671 142.558 46.3922 141.758 46.4223C140.957 46.4524 140.175 46.1574 139.417 45.5344C138.671 44.9234 138.242 44.2281 138.128 43.4455C138.013 42.6659 138.218 41.9646 138.741 41.3475C139.254 40.7425 139.906 40.4295 140.704 40.4054C141.501 40.3813 142.271 40.6763 143.017 41.2873C143.775 41.9104 144.216 42.6087 144.333 43.3823ZM132.765 34.2019C132.049 34.545 131.321 34.5631 130.581 34.2621C129.826 33.955 129.316 33.4283 129.05 32.6818C128.785 31.9384 128.839 31.1166 129.219 30.2197C129.591 29.3378 130.14 28.7297 130.865 28.3896C131.59 28.0525 132.33 28.0374 133.085 28.3445C133.825 28.6455 134.323 29.1692 134.583 29.9096C134.842 30.6501 134.785 31.4628 134.41 32.3447C134.03 33.2417 133.483 33.8617 132.768 34.2019H132.765Z" fill="#FFD325"/>
<g opacity="0.27">
<path d="M275.292 211.754H88.0479V231.306H275.292V211.754Z" fill="#FFD325"/>
<path d="M275.292 242.877H88.0479V262.429H275.292V242.877Z" fill="#FFD325"/>
<path d="M275.292 274.003H88.0479V293.556H275.292V274.003Z" fill="#FFD325"/>
</g>
<path d="M275.292 308.675H88.0479C87.157 308.675 86.4353 307.955 86.4353 307.067V198.245C86.4353 197.357 87.157 196.638 88.0479 196.638H275.292C276.183 196.638 276.905 197.357 276.905 198.245V307.067C276.905 307.955 276.183 308.675 275.292 308.675ZM89.6604 305.46H273.68V199.852H89.6604V305.46Z" fill="#1D478E"/>
<path d="M72.4609 279.013L73.841 319.981L97.6369 318.19L96.8728 273.516L72.4609 279.013Z" fill="#F3AD97"/>
<path d="M73.0045 295.176L72.4609 279.009L96.8728 273.513L97.2141 293.508C91.546 294.887 82.2994 296.464 73.0045 295.176Z" fill="#161742"/>
<path d="M72.1106 302.948L68.7556 326.946L124.534 326.687L124.673 317.979C124.748 313.136 121.689 308.835 117.471 307.86L98.0052 303.351C98.0052 303.351 86.3247 308.383 79.9469 307.622C73.5691 306.86 72.1136 302.948 72.1136 302.948H72.1106Z" fill="#32B353"/>
<path d="M124.413 323.418H124.41L70.0602 323.051C69.7642 323.051 69.5226 322.807 69.5257 322.512C69.5257 322.217 69.7672 321.979 70.0632 321.979H70.0662L124.416 322.347C124.712 322.347 124.954 322.591 124.951 322.885C124.951 323.18 124.709 323.418 124.413 323.418Z" fill="#161742"/>
<path d="M112.071 309.301C112.029 309.301 111.987 309.295 111.941 309.286L94.8797 305.045C94.5928 304.973 94.4177 304.684 94.4871 304.395C94.5596 304.109 94.8465 303.935 95.1394 304.004L112.198 308.245C112.485 308.317 112.66 308.606 112.591 308.895C112.53 309.139 112.31 309.301 112.068 309.301H112.071Z" fill="#161742"/>
<path d="M110.498 323.325C110.477 323.325 110.456 323.325 110.438 323.322C110.142 323.289 109.93 323.024 109.964 322.729L111.776 306.608C111.809 306.313 112.08 306.099 112.37 306.135C112.666 306.168 112.878 306.433 112.845 306.728L111.033 322.849C111.002 323.123 110.77 323.325 110.498 323.325Z" fill="#161742"/>
<path d="M141.134 267.695L164.392 299.856L182.535 285.634L157.764 250.168L141.134 267.695Z" fill="#F3AD97"/>
<path d="M150.311 280.385L141.134 267.695L157.767 250.168L168.852 266.04C165.047 270.19 158.473 276.427 150.314 280.382L150.311 280.385Z" fill="#161742"/>
<path d="M155.913 287.871L168.868 308.029L207.663 270.666L201.916 264.489C198.721 261.055 193.696 260.092 190.094 262.22L173.47 272.044C173.47 272.044 168.686 283.347 163.719 287.067C158.751 290.787 155.91 287.871 155.91 287.871H155.913Z" fill="#32B353"/>
<path d="M166.814 304.597C166.672 304.597 166.527 304.54 166.424 304.429C166.222 304.215 166.231 303.875 166.446 303.67L204.664 267.695C204.881 267.491 205.223 267.503 205.425 267.716C205.627 267.93 205.618 268.27 205.404 268.475L167.185 304.45C167.083 304.549 166.947 304.597 166.817 304.597H166.814Z" fill="#161742"/>
<path d="M172.171 275.398C171.984 275.398 171.803 275.301 171.703 275.127C171.555 274.871 171.646 274.543 171.902 274.395L186.666 265.985C186.92 265.838 187.252 265.925 187.4 266.184C187.548 266.44 187.457 266.768 187.201 266.915L172.437 275.325C172.352 275.373 172.262 275.395 172.171 275.395V275.398Z" fill="#161742"/>
<path d="M195.245 277.836C195.082 277.836 194.925 277.763 194.817 277.625L185.265 265.155C185.084 264.92 185.132 264.583 185.365 264.405C185.6 264.228 185.935 264.27 186.12 264.508L195.671 276.978C195.852 277.213 195.804 277.55 195.572 277.727C195.475 277.803 195.36 277.836 195.245 277.836Z" fill="#161742"/>
<path d="M50.7428 26.5575L45.9263 7.62185C45.7421 6.89344 44.9811 6.46602 44.2594 6.68876C43.598 6.89344 43.2085 7.57068 43.3655 8.2419L44.8512 14.602L47.9858 27.1023L50.7458 26.5575H50.7428Z" fill="#F3AD97"/>
<path d="M48.1428 24.0293L42.1093 5.60536C41.8949 4.8649 41.1218 4.43147 40.376 4.63615C39.624 4.84082 39.1801 5.61138 39.3794 6.36086L41.0464 12.6035L44.6429 25.1852L48.1398 24.0324L48.1428 24.0293Z" fill="#F3AD97"/>
<path d="M45.5185 25.8382L38.7844 5.66245C38.5821 4.90394 37.8241 4.42836 37.051 4.57585C36.2055 4.73538 35.668 5.56914 35.8703 6.4029L37.3893 12.6185L40.7775 25.462L45.5185 25.8382Z" fill="#F3AD97"/>
<path d="M44.3378 26.1753L36.0636 8.47973C35.7405 7.79044 34.9372 7.47139 34.2276 7.7453C33.4605 8.04328 33.0982 8.91617 33.4303 9.66866L35.9398 15.3575L41.3422 27.0241L44.3378 26.1723V26.1753Z" fill="#F3AD97"/>
<path d="M42.7797 29.3358C42.7797 29.3358 38.6124 25.8833 36.7794 24.2098C35.6198 23.1533 33.6177 21.2841 32.301 20.05C31.5914 19.3848 31.5823 18.2651 32.2799 17.5909C32.9654 16.9257 34.0344 16.8474 34.8105 17.4043L39.4942 20.7634L42.4656 25.471L48.6954 23.0179L49.9788 28.1258L42.7767 29.3328L42.7797 29.3358Z" fill="#F3AD97"/>
<path d="M39.4789 16.6609C39.3249 16.6609 39.1739 16.5706 39.1075 16.4201L36.3504 10.0571C36.2629 9.8524 36.3565 9.61762 36.5618 9.52732C36.7641 9.44003 37.0027 9.53334 37.0933 9.73802L39.8504 16.1011C39.9379 16.3058 39.8443 16.5405 39.639 16.6308C39.5876 16.6519 39.5333 16.664 39.4789 16.664V16.6609Z" fill="#161742"/>
<path d="M41.8737 15.8872C41.6985 15.8872 41.5355 15.7729 41.4841 15.5953L40.3366 11.5258C40.2762 11.3121 40.403 11.0894 40.6144 11.0292C40.8319 10.969 41.0523 11.0924 41.1127 11.3061L42.2602 15.3755C42.3206 15.5893 42.1938 15.812 41.9824 15.8722C41.9461 15.8812 41.9099 15.8872 41.8737 15.8872Z" fill="#161742"/>
<path d="M44.848 15.0053C44.6638 15.0053 44.4977 14.8789 44.4554 14.6953L43.8575 12.1218C43.8062 11.9051 43.9421 11.6914 44.1595 11.6402C44.383 11.589 44.5944 11.7245 44.6427 11.9412L45.2406 14.5147C45.2919 14.7314 45.156 14.9451 44.9386 14.9963C44.9084 15.0023 44.8752 15.0053 44.848 15.0053Z" fill="#161742"/>
<path d="M57.3379 28.4449L88.2604 98.848H66.373L39.8805 33.9893C38.6967 31.0877 40.1009 27.7827 43.012 26.6088L48.0037 24.6012C51.6456 23.1353 55.7947 24.845 57.3348 28.4449H57.3379Z" fill="#32B353"/>
<path d="M81.7227 93.3065L82.2119 104.148L69.6829 100.783L70.0573 91.4824L81.7227 93.3065Z" fill="#F3AD97"/>
<path d="M81.7227 93.3065L78.3074 92.7708L72.3584 94.7754L81.9432 98.1616L81.7227 93.3065Z" fill="#161742"/>
<path d="M19.1377 51.0377C19.1377 51.0377 20.6053 33.5979 15.2452 23.1774C14.8919 22.4882 15.07 21.519 15.6619 20.926C16.2387 20.3511 17.0269 20.3089 17.513 20.8297C18.9867 22.4099 21.4237 27.0693 23.6704 32.4451C27.6354 41.9325 21.7136 53.5119 21.7136 53.5119L19.1347 51.0347L19.1377 51.0377Z" fill="#F3AD97"/>
<path d="M17.0842 43.4315C17.0842 43.4315 14.9975 35.4913 1.89167 31.7739C1.20618 31.5783 0.729053 30.7746 0.756231 30.0221C0.78039 29.2877 1.28469 28.779 1.94301 28.8302C3.93304 28.9867 8.28153 29.6038 13.0769 32.0569C18.123 34.6394 23.2445 41.2192 23.2445 41.2192L17.0842 43.4285V43.4315Z" fill="#F3AD97"/>
<path d="M15.8401 34.2121C15.8401 34.2121 11.9114 30.7957 1.29081 27.9844C0.590222 27.7978 0.0345822 27.0544 0.00136457 26.2567C-0.0288332 25.4801 0.445272 24.8932 1.11566 24.8782C3.14798 24.833 7.60819 25.0317 12.6603 27.1176C17.9751 29.3118 19.2766 31.3135 19.2766 31.3135L15.8371 34.2121H15.8401Z" fill="#F3AD97"/>
<path d="M19.9773 45.1322C19.9773 45.1322 11.6971 29.8777 1.5355 24.3003C0.865105 23.9331 0.484613 23.0271 0.656741 22.2023C0.825848 21.3987 1.46 20.9171 2.15153 21.0736C4.24424 21.5462 9.51678 23.9421 14.3243 27.1146C22.8099 32.7131 23.4802 45.7192 23.4802 45.7192L19.9743 45.1292L19.9773 45.1322Z" fill="#F3AD97"/>
<path d="M20.8438 44.6506C20.8438 44.6506 14.768 28.3998 5.48522 21.4678C4.8722 21.0103 4.62156 20.0622 4.90844 19.2676C5.18626 18.497 5.88383 18.1057 6.54516 18.3586C8.55331 19.1141 12.7418 22.1963 17.06 26.0039C24.682 32.7221 24.232 45.7191 24.232 45.7191L20.8438 44.6506Z" fill="#F3AD97"/>
<path d="M12.6119 31.7348C12.5455 31.7348 12.476 31.7168 12.4126 31.6837C9.83071 30.2269 5.85668 29.4774 5.81743 29.4714C5.59698 29.4292 5.45505 29.2215 5.49431 29.0018C5.53659 28.7851 5.75099 28.6406 5.96539 28.6797C6.1345 28.7098 10.1146 29.4623 12.8112 30.9824C13.0045 31.0907 13.074 31.3375 12.9622 31.5302C12.8898 31.6596 12.7508 31.7348 12.6119 31.7348Z" fill="#161742"/>
<path d="M13.6598 29.9891C13.5722 29.9891 13.4847 29.962 13.4122 29.9018C10.3773 27.5209 3.44087 25.1671 3.37141 25.1461C3.16003 25.0738 3.0483 24.8481 3.11775 24.6374C3.19023 24.4267 3.41973 24.3153 3.62809 24.3845C3.91799 24.4839 10.7638 26.8045 13.9074 29.2697C14.0826 29.4082 14.1128 29.661 13.9769 29.8356C13.8984 29.9349 13.7776 29.9891 13.6598 29.9891Z" fill="#161742"/>
<path d="M14.8981 28.171C14.8105 28.171 14.7229 28.1439 14.6505 28.0837C11.6729 25.751 9.17257 24.1918 7.41506 23.5838C7.20367 23.5116 7.09496 23.2828 7.16743 23.0721C7.24293 22.8614 7.47545 22.7531 7.6808 22.8253C9.54702 23.4755 12.0625 25.0316 15.1487 27.4516C15.3239 27.5901 15.3541 27.8429 15.2182 28.0175C15.1397 28.1168 15.0189 28.171 14.9011 28.171H14.8981Z" fill="#161742"/>
<path d="M20.9707 38.6007C20.7714 38.6007 20.5963 38.4532 20.5721 38.2485C20.0829 34.3807 16.1059 32.3821 16.0666 32.361C15.8673 32.2617 15.7858 32.0209 15.8824 31.8222C15.9821 31.6236 16.2236 31.5423 16.4199 31.6386C16.5981 31.7259 20.8228 33.8419 21.3693 38.1462C21.3965 38.3659 21.2425 38.5676 21.019 38.5946C21.0009 38.5946 20.9858 38.5977 20.9677 38.5977L20.9707 38.6007Z" fill="#161742"/>
<path d="M18.0173 27.5692C17.8965 27.5692 17.7757 27.515 17.6972 27.4126L15.9246 25.116C15.7887 24.9415 15.8219 24.6886 15.997 24.5532C16.1752 24.4207 16.4259 24.4508 16.5617 24.6284L18.3344 26.925C18.4702 27.0996 18.437 27.3524 18.2619 27.4879C18.1894 27.5451 18.1018 27.5722 18.0173 27.5722V27.5692Z" fill="#161742"/>
<path d="M103.148 134.986L174.968 269.703L148.892 291.067L83.7914 171.343L80.9136 138.176L103.148 134.986Z" fill="#1D478E"/>
<path d="M68.7557 143.438L67.729 303.989H103.402L96.9091 160.817L102.988 157.31L97.0692 135.464L68.7557 143.438Z" fill="#1D478E"/>
<path d="M76.432 292.265C76.139 292.265 75.9005 292.033 75.8944 291.742L72.6935 142.492C72.6874 142.197 72.923 141.951 73.2189 141.945H73.231C73.5239 141.945 73.7625 142.176 73.7685 142.468L76.9695 291.717C76.9755 292.012 76.74 292.259 76.444 292.265H76.432Z" fill="#161742"/>
<path d="M99.2373 199.616C98.9535 199.616 98.7179 199.396 98.6998 199.113L96.3716 160.85C96.3595 160.649 96.4622 160.456 96.6373 160.354L102.716 156.847C102.97 156.7 103.302 156.784 103.45 157.043C103.598 157.299 103.51 157.627 103.254 157.774L97.4617 161.115L99.7688 199.047C99.7869 199.342 99.5604 199.598 99.2645 199.613C99.2524 199.613 99.2434 199.613 99.2313 199.613L99.2373 199.616Z" fill="#161742"/>
<path d="M72.7842 75.6501C71.99 75.9572 71.4041 76.3936 70.6885 76.815C69.9818 77.2304 69.242 77.5856 68.5625 78.0491C64.2201 81.0169 63.6041 86.0405 66.5846 91.3832C69.5651 96.7259 77.4105 97.0269 82.0126 94.4775C86.6148 91.928 86.4336 87.377 83.2538 82.1487C82.674 81.1915 82.0942 80.0567 81.1218 79.4487C80.1494 78.8407 79.4519 77.5314 78.7543 76.6254C78.4342 76.207 78.0205 75.7164 77.5585 75.4455C77.0179 75.1264 76.2177 75.1866 75.6137 75.1595C75.1366 75.1385 74.6565 75.1385 74.1884 75.2197C73.7052 75.304 73.2432 75.4726 72.7872 75.6471L72.7842 75.6501Z" fill="#F3AD97"/>
<path d="M75.9127 82.263C75.8613 82.263 75.81 82.254 75.7617 82.2359C75.5473 82.1517 75.4416 81.9109 75.5231 81.6971C76.3415 79.6143 78.2862 79.1236 79.2374 79.1658C79.4669 79.1748 79.6451 79.3674 79.636 79.5962C79.627 79.825 79.47 80.0146 79.2042 79.9965C79.1197 79.9995 77.0994 79.9574 76.2962 82.0012C76.2328 82.1637 76.0757 82.266 75.9066 82.266L75.9127 82.263Z" fill="#161742"/>
<path d="M79.8293 81.0499C79.8686 81.0499 79.9079 81.0559 79.9471 81.071C80.1162 81.1372 80.1978 81.3268 80.1313 81.4924C79.4911 83.1238 77.9692 83.509 77.2203 83.4759C77.0391 83.4699 76.9002 83.3194 76.9062 83.1388C76.9122 82.9612 77.036 82.8137 77.2444 82.8258C77.3108 82.8228 78.8932 82.8559 79.5213 81.2546C79.5727 81.1251 79.6935 81.0469 79.8263 81.0469L79.8293 81.0499Z" fill="#161742"/>
<path d="M85.4431 87.2415C85.4793 87.2776 85.5095 87.3198 85.5307 87.3679C85.6243 87.5786 85.5306 87.8224 85.3162 87.9157C83.2628 88.8157 81.5385 87.7953 80.8923 87.094C80.7352 86.9254 80.7443 86.6636 80.9134 86.5071C81.0795 86.3506 81.3271 86.3295 81.5023 86.5251C81.5657 86.5823 82.9638 88.0361 84.9811 87.1512C85.1441 87.079 85.3253 87.1211 85.4431 87.2385V87.2415Z" fill="#161742"/>
<path d="M80.4875 83.2261C80.551 83.0244 80.6657 82.8197 80.7261 82.6422C80.8318 82.3261 80.8076 81.9228 80.8499 81.5857C80.8741 81.39 81.2244 79.5178 81.1821 79.4998C81.7981 79.7496 82.3296 80.1319 82.9155 80.4238C83.5345 80.7338 84.1898 81.0168 84.824 81.3027C84.8874 81.3328 84.9508 81.3599 85.0051 81.4051C85.3766 81.7241 84.5793 82.3893 84.3438 82.585C84.075 82.8077 83.7429 82.9702 83.3956 82.9763C83.3261 82.9763 83.2567 82.9733 83.1872 82.9612C83.0332 82.9401 82.8822 82.901 82.7312 82.8739C82.2783 82.7836 81.6864 82.6963 81.2485 82.8498C81.0855 82.907 80.5479 83.0395 80.4906 83.2231L80.4875 83.2261Z" fill="#F3AD97"/>
<path d="M77.9661 76.5683C77.9661 76.5683 74.6715 78.4074 71.3679 76.9987C71.3679 76.9987 72.0775 80.114 70.169 82.3143C70.169 82.3143 73.681 87.5366 68.1367 91.0492L63.6372 84.3731C63.6372 84.3731 61.6291 79.9635 67.8015 77.2967C67.8015 77.2967 67.6264 72.4807 70.0996 71.6169C72.5728 70.753 71.6004 75.3041 71.6004 75.3041C71.6004 75.3041 75.7103 70.7109 78.2651 72.8118C80.8198 74.9128 77.9661 76.5653 77.9661 76.5653V76.5683Z" fill="#161742"/>
<path d="M70.8514 88.9572C69.263 87.69 67.1099 87.7954 66.0409 89.189C64.9719 90.5826 65.3917 92.7407 66.9801 94.0049C68.5685 95.2721 70.7216 95.1668 71.7906 93.7732C72.8596 92.3795 72.4398 90.2214 70.8514 88.9572Z" fill="#F3AD97"/>
<path d="M70.3047 92.1628C70.2624 92.1628 70.2171 92.1567 70.1748 92.1477L66.8712 91.3169C66.5813 91.2447 66.4092 90.9528 66.4816 90.6668C66.5541 90.3809 66.844 90.2063 67.1339 90.2785L70.4375 91.1093C70.7274 91.1815 70.8996 91.4735 70.8271 91.7594C70.7667 92.0032 70.5463 92.1628 70.3077 92.1628H70.3047Z" fill="#161742"/>
<path d="M68.7768 93.6528C68.7255 93.6528 68.6741 93.6467 68.6228 93.6317C68.3389 93.5474 68.1759 93.2494 68.2634 92.9635L68.7255 91.4254C68.81 91.1424 69.112 90.9829 69.3928 91.0672C69.6767 91.1515 69.8398 91.4495 69.7522 91.7354L69.2902 93.2735C69.2207 93.5053 69.0063 93.6558 68.7768 93.6558V93.6528Z" fill="#161742"/>
<path d="M112.358 146.162C110.039 148.458 107.007 150.12 103.513 151.552C99.5092 153.193 95.7798 154.746 91.6185 155.89C83.9634 157.994 76.8548 160.465 68.7346 159.661C67.8529 159.574 66.9167 159.454 66.2342 158.894C65.582 158.358 65.277 157.518 65.0112 156.718C62.3206 148.6 60.1886 140.524 57.643 132.379C54.907 123.626 53.1767 114.455 48.7044 106.343C45.2921 100.148 15.061 51.0407 15.061 44.7438C15.061 38.447 25.4763 34.6695 28.644 36.9661C34.3544 41.1078 66.8171 88.1626 74.1098 99.6848C74.1098 99.6848 78.6969 103.983 82.0096 100.215L81.9039 97.3249C81.9009 97.2316 85.1773 96.4189 85.437 96.3918C87.5328 96.1721 87.4965 96.2052 89.3416 97.7463C92.7962 100.636 96.6646 102.797 100.201 105.53C104.607 108.94 109.254 112.321 112.485 116.935C116.613 122.828 118.196 130.669 116.797 137.71C116.082 141.307 114.536 144.016 112.361 146.168L112.358 146.162Z" fill="#32B353"/>
<path d="M57.7034 114.412C57.4467 114.412 57.2202 114.229 57.1749 113.967C57.1236 113.675 57.3199 113.398 57.6128 113.347C68.5383 111.457 71.5642 101.822 71.5944 101.722C71.6789 101.439 71.9809 101.283 72.2617 101.364C72.5456 101.448 72.7087 101.749 72.6211 102.032C72.5909 102.135 69.3658 112.399 57.794 114.403C57.7638 114.409 57.7305 114.412 57.7004 114.412H57.7034Z" fill="#161742"/>
<path d="M74.1099 100.217C73.9317 100.217 73.7596 100.13 73.6569 99.9676C69.7584 93.8333 54.9162 72.0291 54.7652 71.8094C54.5991 71.5656 54.6625 71.2315 54.9071 71.0659C55.1547 70.9004 55.4869 70.9636 55.656 71.2074C55.804 71.4271 70.6553 93.2463 74.5659 99.3927C74.7259 99.6425 74.6504 99.9736 74.3998 100.133C74.3092 100.19 74.2096 100.217 74.1129 100.217H74.1099Z" fill="#161742"/>
<path d="M81.4238 84.2887C80.4997 84.8726 79.8837 85.8207 79.2556 86.7147C78.6274 87.6086 77.9178 88.5146 76.9092 88.939C77.5735 89.0865 78.2711 88.8277 78.8388 88.4484C79.4065 88.0692 79.8837 87.5755 80.4302 87.1692C81.8737 86.0976 83.3896 85.9803 85.1079 86.0073C85.3676 85.309 84.8663 84.2315 84.1687 83.9576C83.3262 83.6265 82.1666 83.8191 81.4238 84.2887Z" fill="#161742"/>
<path d="M150.549 31V19.8H152.117V31H150.549ZM151.861 31V29.56H157.317V31H151.861ZM151.861 25.976V24.568H156.773V25.976H151.861ZM151.861 21.24V19.8H157.285V21.24H151.861ZM158.738 31L162.018 26.408L164.306 23H166.098L163.01 27.368L160.562 31H158.738ZM164.482 31L162.066 27.368L158.946 23H160.738L163.042 26.408L166.29 31H164.482ZM171.016 31.192C170.217 31.192 169.507 31.016 168.889 30.664C168.27 30.3013 167.785 29.8053 167.433 29.176C167.091 28.5467 166.921 27.8213 166.921 27C166.921 26.1787 167.091 25.4533 167.433 24.824C167.785 24.1947 168.265 23.704 168.873 23.352C169.491 22.9893 170.195 22.808 170.985 22.808C171.763 22.808 172.462 22.9893 173.081 23.352C173.71 23.7147 174.179 24.232 174.489 24.904L173.113 25.48C172.91 25.0853 172.617 24.776 172.233 24.552C171.859 24.328 171.427 24.216 170.937 24.216C170.457 24.216 170.03 24.3333 169.657 24.568C169.283 24.8027 168.99 25.1333 168.777 25.56C168.563 25.976 168.457 26.456 168.457 27C168.457 27.544 168.563 28.024 168.777 28.44C168.99 28.856 169.289 29.1867 169.673 29.432C170.057 29.6667 170.489 29.784 170.969 29.784C171.459 29.784 171.897 29.6613 172.281 29.416C172.665 29.16 172.953 28.8187 173.145 28.392L174.536 28.952C174.227 29.656 173.758 30.2053 173.129 30.6C172.51 30.9947 171.806 31.192 171.016 31.192ZM179.576 31.192C178.798 31.192 178.11 31.016 177.512 30.664C176.915 30.3013 176.446 29.8053 176.104 29.176C175.763 28.5467 175.592 27.8213 175.592 27C175.592 26.1787 175.763 25.4533 176.104 24.824C176.446 24.1947 176.915 23.704 177.512 23.352C178.12 22.9893 178.814 22.808 179.592 22.808C180.318 22.808 180.958 22.9947 181.512 23.368C182.078 23.7307 182.515 24.2533 182.824 24.936C183.144 25.608 183.304 26.4027 183.304 27.32H181.784C181.795 26.6373 181.71 26.0613 181.528 25.592C181.358 25.1227 181.102 24.7707 180.76 24.536C180.43 24.2907 180.03 24.168 179.56 24.168C179.059 24.168 178.627 24.2853 178.264 24.52C177.902 24.744 177.619 25.0693 177.416 25.496C177.224 25.912 177.128 26.424 177.128 27.032C177.128 27.5973 177.24 28.088 177.464 28.504C177.688 28.9093 177.992 29.2293 178.376 29.464C178.76 29.688 179.198 29.8 179.688 29.8C180.211 29.8 180.643 29.6773 180.984 29.432C181.336 29.1867 181.614 28.872 181.816 28.488L183.176 29.112C182.963 29.528 182.686 29.896 182.344 30.216C182.003 30.5253 181.598 30.7653 181.128 30.936C180.67 31.1067 180.152 31.192 179.576 31.192ZM176.584 27.32L176.6 26.072H182.456V27.32H176.584ZM184.806 31V19.8H186.326V31H184.806ZM188.431 31V19.8H189.951V31H188.431ZM195.592 31.192C194.813 31.192 194.125 31.016 193.528 30.664C192.931 30.3013 192.461 29.8053 192.12 29.176C191.779 28.5467 191.608 27.8213 191.608 27C191.608 26.1787 191.779 25.4533 192.12 24.824C192.461 24.1947 192.931 23.704 193.528 23.352C194.136 22.9893 194.829 22.808 195.608 22.808C196.333 22.808 196.973 22.9947 197.528 23.368C198.093 23.7307 198.531 24.2533 198.84 24.936C199.16 25.608 199.32 26.4027 199.32 27.32H197.8C197.811 26.6373 197.725 26.0613 197.544 25.592C197.373 25.1227 197.117 24.7707 196.776 24.536C196.445 24.2907 196.045 24.168 195.576 24.168C195.075 24.168 194.643 24.2853 194.28 24.52C193.917 24.744 193.635 25.0693 193.432 25.496C193.24 25.912 193.144 26.424 193.144 27.032C193.144 27.5973 193.256 28.088 193.48 28.504C193.704 28.9093 194.008 29.2293 194.392 29.464C194.776 29.688 195.213 29.8 195.704 29.8C196.227 29.8 196.659 29.6773 197 29.432C197.352 29.1867 197.629 28.872 197.832 28.488L199.192 29.112C198.979 29.528 198.701 29.896 198.36 30.216C198.019 30.5253 197.613 30.7653 197.144 30.936C196.685 31.1067 196.168 31.192 195.592 31.192ZM192.6 27.32L192.616 26.072H198.472V27.32H192.6ZM200.822 31V23H202.246L202.342 24.472V31H200.822ZM206.358 31V26.904L207.878 26.424V31H206.358ZM206.358 26.904C206.358 26.1787 206.272 25.6293 206.102 25.256C205.942 24.872 205.712 24.6053 205.414 24.456C205.126 24.3067 204.79 24.2267 204.406 24.216C203.755 24.216 203.248 24.4453 202.886 24.904C202.523 25.3627 202.342 26.008 202.342 26.84H201.686C201.686 25.9973 201.808 25.2773 202.054 24.68C202.299 24.072 202.651 23.608 203.11 23.288C203.579 22.968 204.139 22.808 204.79 22.808C205.75 22.808 206.502 23.1067 207.046 23.704C207.6 24.2907 207.878 25.1973 207.878 26.424L206.358 26.904ZM212.878 31.192C212.078 31.192 211.46 30.9893 211.022 30.584C210.585 30.168 210.366 29.576 210.366 28.808V20.504H211.886V28.584C211.886 28.9787 211.982 29.2827 212.174 29.496C212.377 29.6987 212.665 29.8 213.038 29.8C213.145 29.8 213.262 29.7787 213.39 29.736C213.518 29.6933 213.673 29.608 213.854 29.48L214.43 30.664C214.153 30.8453 213.886 30.9787 213.63 31.064C213.385 31.1493 213.134 31.192 212.878 31.192ZM209.006 24.312V23H214.158V24.312H209.006Z" fill="white"/>
<path d="M126 82C126 75.3726 131.373 70 138 70H225C231.627 70 237 75.3726 237 82V82H126V82Z" fill="#FFEAB6"/>
<path d="M238 138C238 144.627 232.627 150 226 150L138 150C131.373 150 126 144.627 126 138V138L238 138V138Z" fill="#FFEAB6"/>
</svg>
