<svg width="30" height="30" viewBox="0 0 30 30" fill="none" xmlns="http://www.w3.org/2000/svg">
<circle cx="15" cy="15" r="15" fill="#FFF3EB"/>
<path d="M20.2857 11.5032H9.21698C9.15943 11.5032 9.10424 11.5234 9.06355 11.5593C9.02286 11.5953 9 11.644 9 11.6949V12.393C9 12.4439 9.02286 12.4926 9.06355 12.5286C9.10424 12.5645 9.15943 12.5847 9.21698 12.5847H20.283C20.3406 12.5847 20.3958 12.5645 20.4364 12.5286C20.4771 12.4926 20.5 12.4439 20.5 12.393V11.6953C20.5001 11.6448 20.4777 11.5963 20.4376 11.5603C20.3975 11.5243 20.3429 11.5038 20.2857 11.5032Z" fill="#AF8E2F"/>
<path d="M15.3425 8.17389C15.1723 8.06102 14.9653 8 14.7526 8C14.5398 8 14.3328 8.06102 14.1626 8.17389L9.54529 11.234H19.9604L15.3425 8.17389ZM14.7528 10.5545C14.6016 10.5544 14.4539 10.5147 14.3282 10.4404C14.2026 10.3661 14.1047 10.2606 14.047 10.1372C13.9892 10.0137 13.9743 9.87793 14.0039 9.74697C14.0335 9.616 14.1065 9.49574 14.2135 9.4014C14.3205 9.30706 14.4568 9.24288 14.6051 9.21697C14.7535 9.19107 14.9071 9.2046 15.0467 9.25587C15.1864 9.30713 15.3056 9.39382 15.3894 9.50497C15.4733 9.61612 15.5179 9.74673 15.5177 9.88029C15.5171 10.0592 15.4363 10.2306 15.2929 10.357C15.1496 10.4834 14.9554 10.5544 14.7528 10.5545Z" fill="#AF8E2F"/>
<path d="M20.2852 18.417H9.21698C9.15943 18.417 9.10424 18.4372 9.06355 18.4731C9.02286 18.5091 9 18.5578 9 18.6087V19.3083C9 19.3591 9.02286 19.4079 9.06355 19.4438C9.10424 19.4798 9.15943 19.5 9.21698 19.5H20.283C20.3406 19.5 20.3958 19.4798 20.4364 19.4438C20.4771 19.4079 20.5 19.3591 20.5 19.3083V18.6087C20.5 18.5582 20.4774 18.5097 20.4372 18.4738C20.397 18.4379 20.3424 18.4175 20.2852 18.417Z" fill="#AF8E2F"/>
<path d="M9.94179 17.3133C9.82957 17.3133 9.72195 17.3527 9.6426 17.4228C9.56325 17.4929 9.51868 17.588 9.51868 17.6871V18.1471H12.168V17.6866C12.1682 17.5877 12.1239 17.4928 12.0448 17.4227C11.9658 17.3526 11.8585 17.3131 11.7465 17.3128H11.7406V13.6854H11.7444C11.8566 13.6854 11.9642 13.646 12.0435 13.5759C12.1229 13.5058 12.1675 13.4107 12.1675 13.3116V12.8516H9.51868V13.3116C9.51868 13.4107 9.56325 13.5058 9.6426 13.5759C9.72195 13.646 9.82957 13.6854 9.94179 13.6854H9.94776V17.3133H9.94179Z" fill="#AF8E2F"/>
<path d="M17.7581 17.3133C17.6459 17.3133 17.5382 17.3527 17.4589 17.4228C17.3795 17.4929 17.335 17.588 17.335 17.6871V18.1471H19.9848V17.6866C19.985 17.5877 19.9407 17.4928 19.8616 17.4227C19.7826 17.3526 19.6753 17.3131 19.5634 17.3128H19.5558V13.6854H19.5617C19.6739 13.6854 19.7816 13.646 19.8609 13.5759C19.9403 13.5058 19.9848 13.4107 19.9848 13.3116V12.8516H17.335V13.3116C17.3348 13.4105 17.3791 13.5054 17.4582 13.5755C17.5372 13.6456 17.6445 13.6851 17.7564 13.6854H17.7657V17.3133H17.7581Z" fill="#AF8E2F"/>
<path d="M13.8488 17.3133C13.7366 17.3133 13.6289 17.3527 13.5496 17.4228C13.4702 17.4929 13.4257 17.588 13.4257 17.6871V18.1471H16.0777V17.6866C16.0777 17.5875 16.0331 17.4924 15.9538 17.4223C15.8744 17.3522 15.7668 17.3128 15.6546 17.3128H15.6486V13.6854H15.6546C15.7668 13.6854 15.8744 13.646 15.9538 13.5759C16.0331 13.5058 16.0777 13.4107 16.0777 13.3116V12.8516H13.4257V13.3116C13.4257 13.4107 13.4702 13.5058 13.5496 13.5759C13.6289 13.646 13.7366 13.6854 13.8488 13.6854H13.8569V17.3133H13.8488Z" fill="#AF8E2F"/>
<circle cx="14.8571" cy="14.8571" r="12.6571" stroke="#AF8E2F" stroke-width="0.4"/>
</svg>
