<svg width="219" height="98" viewBox="0 0 219 98" fill="none" xmlns="http://www.w3.org/2000/svg">
<path d="M25.5388 45.3809C23.1567 43.5694 19.7304 44.0057 18.0223 46.4521C8.75461 59.7251 2.61691 74.8924 0.0641355 90.8297C-0.406363 93.7671 1.76763 96.4255 4.75388 96.7441C7.74012 97.0626 10.4063 94.92 10.8932 91.9852C13.2117 78.0132 18.5941 64.7122 26.6608 53.0209C28.3552 50.5652 27.9209 47.1924 25.5388 45.3809Z" fill="#EE3D4B"/>
<path d="M74.5017 9.74166C73.5429 6.92317 70.4521 5.39523 67.6572 6.48434C52.493 12.3935 38.8622 21.6026 27.7751 33.4288C25.7316 35.6085 26.0411 39.0154 28.3417 40.9274C30.6423 42.8394 34.0619 42.5311 36.1175 40.3627C45.9043 30.0391 57.8579 21.9633 71.1347 16.705C73.9234 15.6005 75.4605 12.5601 74.5017 9.74166Z" fill="#FF919A"/>
<path d="M135.029 9.08633C135.829 6.21981 134.134 3.23946 131.202 2.591C115.298 -0.927318 98.7972 -0.861699 82.9222 2.78299C79.9963 3.45474 78.3249 6.44848 79.1487 9.30854C79.9725 12.1686 82.9794 13.8103 85.909 13.1547C99.8567 10.0333 114.327 9.97572 128.3 12.9861C131.235 13.6184 134.228 11.9528 135.029 9.08633Z" fill="#FFD325"/>
<path d="M185.634 40.935C187.935 39.0232 188.245 35.6162 186.201 33.4364C175.115 21.6091 161.485 12.3988 146.322 6.48812C143.527 5.39874 140.436 6.9264 139.477 9.74479C138.518 12.5632 140.055 15.6037 142.843 16.7084C156.12 21.968 168.073 30.045 177.858 40.3695C179.914 42.5381 183.333 42.8467 185.634 40.935Z" fill="#5BC275"/>
<path d="M208.668 97.6177C215.305 96.9216 220.183 91.0057 218.748 84.551C216.207 73.1175 211.799 62.1695 205.7 52.1405C202.257 46.4787 194.607 45.5083 189.306 49.5246L186.906 51.3426C181.606 55.3589 180.687 62.8375 183.916 68.6217C187.227 74.5515 189.771 80.8708 191.488 87.4295C193.163 93.8271 199.026 98.629 205.663 97.9329L208.668 97.6177Z" fill="#268E3A"/>
</svg>
