<svg width="84" height="84" viewBox="0 0 84 84" fill="none" xmlns="http://www.w3.org/2000/svg">
<mask id="mask0_39_905" style="mask-type:luminance" maskUnits="userSpaceOnUse" x="0" y="0" width="84" height="84">
<path d="M41.7154 83.8719C18.6766 83.8719 -5.34058e-05 65.0965 -5.34058e-05 41.9359C-5.34058e-05 18.7754 18.6766 0 41.7154 0C64.7543 0 83.4309 18.7754 83.4309 41.9359C83.4309 65.0965 64.7543 83.8719 41.7154 83.8719Z" fill="white"/>
</mask>
<g mask="url(#mask0_39_905)">
<path d="M-8.69016 22.7908L17.0944 35.2404L-8.69016 40.5427V22.7908Z" fill="#FFD325"/>
<path d="M86.3693 26.064L59.1619 33.3033L86.3693 40.5427V26.064Z" fill="#FFD325"/>
<path d="M13.3251 0.197754L21.5854 13.5688L-2.74143 0.216391L13.3251 0.197754Z" fill="#FFD325"/>
<path d="M53.6789 0.371582L47.3362 10.6395L66.0167 0.38556L53.6789 0.371582Z" fill="#FFD325"/>
<path d="M69.2079 0.371582L60.1712 14.9983L86.7819 0.391384L69.2079 0.371582Z" fill="#FFD325"/>
<path d="M25.4378 0.299255L27.9186 6.98417L19.8923 0.216553L25.4378 0.299255Z" fill="#FFD325"/>
<path d="M47.7592 0.216553L40.0909 7.81352L41.8718 0.216553H47.7592Z" fill="#FFD325"/>
<path d="M36.8047 0.216694L35.2926 7.0577L30.0993 0.143311L36.8047 0.216694Z" fill="#FFD325"/>
<path d="M-8.69029 0.65918L15.7003 22.7908L-8.69029 18.4111V0.65918Z" fill="#FFD325"/>
<path d="M86.5699 3.93237L62.1793 26.064L86.5699 21.6843V3.93237Z" fill="#FFD325"/>
<path d="M91.6106 61.406L65.8261 48.9575L91.6106 43.6553V61.406Z" fill="#FFD325"/>
<path d="M-3.44899 58.1329L23.7584 50.8946L-3.44899 43.6553V58.1329Z" fill="#FFD325"/>
<path d="M69.5953 83.9987L61.335 70.6277L85.6619 83.9812L69.5953 83.9987Z" fill="#FFD325"/>
<path d="M29.241 83.8253L35.5837 73.5586L16.9032 83.8114L29.241 83.8253Z" fill="#FFD325"/>
<path d="M13.7132 83.8252L22.7488 69.1985L-3.8619 83.8054L13.7132 83.8252Z" fill="#FFD325"/>
<path d="M57.4832 83.8987L55.0024 77.2126L63.0276 83.9814L57.4832 83.8987Z" fill="#FFD325"/>
<path d="M35.1611 83.9815L42.8293 76.3845L41.0496 83.9815H35.1611Z" fill="#FFD325"/>
<path d="M46.1152 83.9814L47.6273 77.1404L52.8206 84.0536L46.1152 83.9814Z" fill="#FFD325"/>
<path d="M91.6106 83.5376L67.22 61.406L91.6106 65.7869V83.5376Z" fill="#FFD325"/>
<path d="M-3.64964 80.2642L20.741 58.1326L-3.64964 62.5135V80.2642Z" fill="#FFD325"/>
<path d="M48.2585 45.1718L21.6687 51.5213V28.5452L48.2585 34.8946V45.1718Z" fill="#161742"/>
<path d="M65.0209 43.7589C64.9305 43.5317 67.1448 49.3931 67.1448 49.3931L73.4724 47.0763L71.6197 41.0332L65.0209 43.7601V43.7589Z" fill="#E6A190"/>
<path d="M71.179 41.2148L65.0205 43.7588C64.9672 43.626 65.7041 45.5794 66.3252 47.2218L71.179 41.2148Z" fill="#161742"/>
<path d="M57.8497 35.0951C57.8497 30.5919 62.0511 27.4841 66.292 27.4841C70.5328 27.4841 74.5222 30.5919 74.5222 35.0951C74.5222 39.5983 73.0171 41.3758 68.913 42.4521C61.6421 44.3601 57.8485 39.5983 57.8485 35.0951H57.8497Z" fill="#161742"/>
<path d="M57.849 36.5545C57.849 32.0513 60.426 28.5452 64.6679 28.5452C68.9099 28.5452 73.4729 31.4735 73.4729 35.9767C73.4729 40.4799 70.2436 43.7531 66.1395 44.8294C58.8687 46.7374 57.849 41.0565 57.849 36.5533V36.5545Z" fill="#E6A190"/>
<path d="M52.0663 81.1707L45.4444 180.795L65.7297 181.26L76.0769 80.8318L52.0663 81.1707Z" fill="#161742"/>
<path d="M81.789 81.5003C81.789 81.5003 89.3797 113.659 104.026 177.549L82.592 182.397L65.3112 109.946L61.5605 103.45L60.4887 78.4019L81.7879 81.4991L81.789 81.5003Z" fill="#161742"/>
<path d="M84.6152 99.7018C84.6998 99.7018 84.7763 99.6424 84.7937 99.555C84.8145 99.456 84.7508 99.3582 84.6523 99.3384C76.9145 97.7251 76.2656 83.0728 76.2598 82.9249C76.2564 82.8235 76.159 82.7548 76.0698 82.7478C75.969 82.7513 75.8902 82.8375 75.8937 82.9388C75.8948 82.9761 76.0501 86.7373 77.1822 90.6535C78.6919 95.8765 81.2492 99.0041 84.577 99.6983C84.5897 99.7006 84.6025 99.7018 84.6141 99.7018H84.6152Z" fill="white"/>
<path d="M66.512 97.0774C66.6128 97.0774 66.6939 96.9958 66.6951 96.8945L66.7634 82.4821C66.7634 82.3808 66.6823 82.2981 66.5815 82.2981C66.4946 82.2981 66.3984 82.3796 66.3973 82.481L66.3289 96.8933C66.3289 96.9947 66.41 97.0774 66.5108 97.0774H66.512Z" fill="white"/>
<path d="M62.7493 97.0774C62.8501 97.0774 62.9312 96.9958 62.9324 96.8945L63.0007 82.4821C63.0007 82.3808 62.9196 82.2981 62.8188 82.2981C62.7111 82.2981 62.6357 82.3796 62.6346 82.481L62.5662 96.8933C62.5662 96.9947 62.6473 97.0774 62.7481 97.0774H62.7493Z" fill="white"/>
<path d="M84.3967 83.7846C84.3967 83.7846 86.4418 85.9908 82.0909 85.6565C73.8038 85.0193 56.7096 84.8434 53.0527 84.8434C50.1027 84.8434 48.2314 82.7607 48.3855 79.8265C48.4422 78.7362 48.2916 77.6297 48.2789 76.5417C48.2823 76.8434 46.3207 78.2552 45.9974 78.4637C45.0901 79.0484 43.7437 79.533 42.6893 79.7648C40.4484 80.2377 37.6744 80.6931 35.5876 79.4584C31.9713 77.3163 31.5079 71.6122 31.9412 67.9511C32.5692 62.657 36.8668 58.0537 40.1981 54.0781C42.2687 51.6075 44.4158 49.187 46.6741 46.8865L52.9449 48.7572C59.823 45.6681 62.7846 48.169 62.7846 48.169L65.8783 46.035L67.2943 49.0065L73.1909 47.0344C75.2024 46.2785 77.3831 45.8149 79.5162 45.6134C80.9785 45.4759 82.603 45.1952 83.6771 46.2668C84.9285 47.5143 85.7396 49.2721 86.5368 50.8259C87.7766 53.2429 89.0152 55.6599 90.255 58.077C93.5469 64.4963 96.9187 71.441 95.6372 78.9238C95.2456 81.2115 94.1158 82.8422 91.9525 83.7112C90.7788 84.1829 89.5135 84.388 88.254 84.3868C87.4313 84.3868 84.9957 84.4264 84.3978 83.7823L84.3967 83.7846Z" fill="#32B353"/>
<path d="M78.4519 56.6733C78.4519 56.6733 78.46 56.6733 78.4635 56.6733C78.5643 56.6664 78.6396 56.5802 78.6326 56.4788C78.2503 50.5394 82.4586 46.6733 82.5015 46.6349C82.5757 46.5674 82.5826 46.452 82.5154 46.3775C82.4482 46.3029 82.3335 46.2971 82.2593 46.3635C82.2153 46.4031 77.876 50.3821 78.2699 56.5033C78.2757 56.6 78.3557 56.6745 78.4507 56.6745L78.4519 56.6733Z" fill="#161742"/>
<path d="M48.639 77.7775C48.7213 77.7775 48.7954 77.7204 48.8151 77.6365C50.6482 69.8369 52.1545 59.4583 52.1696 59.3547C52.1846 59.2545 52.1151 59.1625 52.0155 59.1473C51.9158 59.1345 51.8243 59.2021 51.8092 59.3022C51.7942 59.4059 50.289 69.7693 48.4606 77.5527C48.4374 77.6505 48.4977 77.7495 48.5962 77.7728C48.6101 77.7763 48.624 77.7775 48.6379 77.7775H48.639Z" fill="#161742"/>
<path d="M37.7007 72.4566C37.7482 72.4566 37.7957 72.4379 37.8305 72.4018C37.9197 72.3098 46.8035 62.9854 48.6423 48.5335C48.6551 48.4333 48.5844 48.3424 48.4847 48.3296C48.3839 48.3168 48.2935 48.3879 48.282 48.488C46.4593 62.8153 37.659 72.0571 37.5709 72.1491C37.5014 72.2213 37.5026 72.3366 37.5744 72.4077C37.6092 72.4426 37.6555 72.4589 37.7007 72.4589V72.4566Z" fill="#161742"/>
<path d="M40.6997 73.166H40.7031C40.8039 73.1636 40.8827 73.0809 40.8816 72.9796L40.7935 68.5463C40.7912 68.4449 40.702 68.3576 40.6081 68.3669C40.5073 68.3692 40.4285 68.4519 40.4297 68.5533L40.5177 72.9866C40.5201 73.0856 40.6012 73.166 40.6997 73.166Z" fill="#161742"/>
<path d="M61.6955 84.7281C61.7117 84.7281 61.7291 84.7257 61.7453 84.7211C61.8415 84.6931 61.8983 84.5918 61.8705 84.4951C59.2866 75.3547 61.4811 66.4998 62.0118 64.6104L64.605 68.5044C62.8797 80.2155 63.9017 83.4305 64.6652 84.3052C64.941 84.6221 65.1751 84.6407 65.2261 84.6337C65.3269 84.6314 65.4068 84.5487 65.4045 84.4473C65.4022 84.3495 65.3245 84.2703 65.2284 84.268C65.2156 84.2656 65.0766 84.2423 64.897 84.0117C64.3362 83.2965 63.2227 80.3518 64.9769 68.487C64.9839 68.4415 64.9735 68.3961 64.948 68.3588L62.0999 64.0828C62.0605 64.0245 61.9921 63.9954 61.9238 64.0035C61.8542 64.0129 61.7975 64.0618 61.7754 64.1282C61.743 64.2284 58.5925 74.2307 61.5217 84.5941C61.5449 84.6745 61.6167 84.7269 61.6967 84.7269L61.6955 84.7281Z" fill="#161742"/>
<path d="M77.0442 46.0163L72.9296 43.7192L67.3204 48.5696L69.5451 53.421L77.0442 46.0163Z" fill="#32B353"/>
<path d="M62.4123 41.9706L62.4192 41.9706C63.9614 42.3143 64.9174 41.5828 64.9568 41.5525C65.046 41.4826 65.0622 41.3521 64.9927 41.2624C64.922 41.1716 64.7934 41.1564 64.7042 41.2263C64.6694 41.2531 63.8525 41.867 62.5084 41.5688C62.3972 41.5443 62.2871 41.6154 62.2628 41.726C62.2385 41.8355 62.3057 41.9439 62.4134 41.9718L62.4123 41.9706Z" fill="#161742"/>
<path d="M27.4973 40.0477C27.4973 47.1776 24.3132 52.4799 19.0956 52.7501C18.7862 52.7664 15.8072 52.7501 15.8072 52.7501C15.8072 52.7501 6.29081 46.8002 6.29081 40.0477C6.29081 33.2952 15.8072 27.1392 15.8072 27.1392H18.6159C22.9251 27.1392 27.4973 32.919 27.4973 40.0477Z" fill="#161742"/>
<path d="M15.8071 52.7501C10.5513 52.7501 6.2907 47.0166 6.2907 39.944C6.2907 32.8714 10.5513 27.1379 15.8071 27.1379C21.0629 27.1379 25.3235 32.8714 25.3235 39.944C25.3235 47.0166 21.0629 52.7501 15.8071 52.7501Z" fill="#1D478E"/>
<path d="M15.8072 51.1425C11.2534 51.1425 7.56189 46.1751 7.56189 40.0476C7.56189 33.92 11.2534 28.9526 15.8072 28.9526C20.3609 28.9526 24.0525 33.92 24.0525 40.0476C24.0525 46.1751 20.3609 51.1425 15.8072 51.1425Z" fill="#D9E4F4"/>
<path d="M17.0387 50.4788C13.1646 50.4788 10.0239 45.8389 10.0239 40.1154C10.0239 34.3918 13.1646 29.752 17.0387 29.752C20.9128 29.752 24.0535 34.3918 24.0535 40.1154C24.0535 45.8389 20.9128 50.4788 17.0387 50.4788Z" fill="#FFF3EB"/>
<path d="M64.6686 28.5452C61.8831 28.5452 59.8218 30.0629 58.7303 32.3763C62.7626 33.6087 67.3672 31.3605 67.3672 31.3605C67.3672 31.3605 67.4101 32.8748 68.4889 35.4805C69.5676 38.0862 73.3206 37.3023 73.3206 37.3023L73.3704 37.279C73.4319 36.8562 73.4724 36.424 73.4724 35.9767C73.4724 31.4735 68.9095 28.5452 64.6675 28.5452H64.6686Z" fill="#161742"/>
<path d="M70.7342 37.0995C71.4167 35.923 72.7967 35.4653 73.8164 36.0768C74.836 36.6883 75.1083 38.1374 74.4247 39.3127C73.7422 40.4891 72.3622 40.9469 71.3426 40.3354C70.3229 39.7239 70.0506 38.2748 70.7342 37.0995Z" fill="#E6A190"/>
<path d="M71.7432 38.841C71.7838 38.841 71.8255 38.8293 71.8614 38.8037L73.7315 37.4816C73.8242 37.4152 73.8474 37.2871 73.7814 37.1928C73.7165 37.0996 73.5879 37.0763 73.494 37.1427L71.6239 38.4647C71.5312 38.5311 71.508 38.6593 71.574 38.7525C71.6146 38.8095 71.6783 38.841 71.7432 38.841Z" fill="#161742"/>
<path d="M73.0745 39.4013C73.1197 39.4013 73.1648 39.3862 73.2031 39.3559C73.2923 39.2849 73.3062 39.1544 73.2355 39.0647L72.5612 38.2155C72.4905 38.1259 72.3607 38.1119 72.2715 38.1829C72.1823 38.254 72.1684 38.3844 72.239 38.4741L72.9134 39.3233C72.954 39.3745 73.0142 39.4013 73.0745 39.4013Z" fill="#161742"/>
<path d="M69.0901 53.1869C69.1376 53.1869 69.1828 53.1682 69.2175 53.1344L75.8314 46.6033C75.9032 46.5322 75.9044 46.4169 75.8337 46.3447C75.763 46.2725 75.6483 46.2713 75.5765 46.3424L69.1468 52.6906L67.2918 48.6475C67.264 48.5858 67.2049 48.545 67.1377 48.5416C67.0739 48.5346 67.0067 48.5707 66.972 48.6277L65.972 50.2608C65.9199 50.3459 65.9465 50.4588 66.0311 50.5124C66.1168 50.566 66.2292 50.5392 66.2814 50.453L67.1041 49.11L68.9255 53.0785C68.9499 53.1333 68.9997 53.1717 69.0576 53.1822C69.068 53.1845 69.0796 53.1845 69.0901 53.1845V53.1869Z" fill="#161742"/>
<path d="M63.0403 39.9441C63.0403 37.7426 62.0322 35.9057 60.6893 35.4747V35.4724L36.812 28.5452V51.5213L60.6893 44.5941V44.4135C62.0311 43.9826 63.0403 42.1456 63.0403 39.9441Z" fill="#161742"/>
<path d="M58.3763 41.8729C58.3763 41.8729 58.3635 38.87 57.1666 37.2055C56.2721 35.9615 55.0149 34.3761 54.2513 33.6924C54.0196 33.4839 53.3012 33.5701 53.0822 33.7926C52.7496 34.1304 52.6975 34.6545 52.957 35.0517L55.4621 38.1606L56.5328 46.6009L59.0159 48.3948L58.3751 41.8729H58.3763Z" fill="#E6A190"/>
<path d="M57.5237 43.5595C57.5237 43.5595 57.5109 40.5566 56.314 38.8921C55.445 37.683 54.4809 35.9183 53.6942 35.2089C53.4254 34.9678 52.4219 35.2846 52.1682 35.5421C51.8715 35.8426 51.8252 36.3108 52.0569 36.6649L53.8077 39.3475L57.0382 46.1617L57.5225 43.5595H57.5237Z" fill="#E6A190"/>
<path d="M56.2699 37.5677L54.4682 34.8071C54.2666 34.4984 54.3071 34.0907 54.5655 33.8286C54.861 33.5281 55.3395 33.513 55.6535 33.7937C56.4785 34.531 57.9755 36.0173 58.6708 37.6434C59.6568 39.9509 59.9303 42.4879 59.9453 43.8601C59.9592 45.0668 59.2107 46.5135 59.556 47.6516C59.9198 48.8525 60.9627 49.7133 61.7796 50.6044C62.2384 51.1053 60.812 52.2177 60.5177 52.4821C60.074 52.8816 59.6406 53.1728 59.2119 53.5968C58.7241 54.0779 58.0833 54.3924 57.672 54.927C57.8863 54.6487 57.132 53.923 56.9768 53.7482C56.4936 53.2066 56.1575 52.6475 55.7184 52.0849C54.8065 50.9154 53.3187 49.4559 54.014 47.8193C54.1727 47.4442 54.5238 47.1903 54.8783 46.9934C55.8053 46.4809 56.8562 46.2445 57.8284 45.8251C58.7032 45.4477 57.9709 44.2689 57.7855 43.5397C57.5434 42.5869 57.3012 41.6329 57.0602 40.6801C56.8702 39.9323 56.6801 39.1845 56.4901 38.4367C56.4298 38.1967 56.4067 37.7797 56.2699 37.5689V37.5677Z" fill="#E6A190"/>
<path d="M56.1366 43.9964C56.1366 43.9964 57.3266 39.9964 53.3975 37.6504C53.0012 37.414 52.489 37.5712 52.2932 37.9905C52.2932 37.9905 52.0835 38.5578 52.5331 39.0797C53.1854 39.8368 53.5446 40.6463 54.0649 43.3278C54.3128 44.6067 53.7856 47.1402 53.7949 48.651C53.8007 49.6283 55.4715 51.4955 55.4715 51.4955L59.0183 48.3959L56.1378 43.9975L56.1366 43.9964Z" fill="#E6A190"/>
<path d="M55.7439 41.6224C55.7532 41.6224 55.7636 41.6224 55.7729 41.6201C55.8632 41.6038 55.9235 41.5176 55.9073 41.4267C55.8899 41.3289 55.46 39.0062 53.4972 37.5176C52.649 36.8746 52.2075 37.3697 52.189 37.3906C52.1288 37.4605 52.1369 37.5654 52.2064 37.6259C52.2759 37.6865 52.3802 37.6783 52.4404 37.6085C52.4486 37.5991 52.7093 37.3371 53.2967 37.7832C55.1553 39.1926 55.5759 41.4605 55.5794 41.4838C55.5933 41.5654 55.6639 41.6213 55.7427 41.6213L55.7439 41.6224Z" fill="#161742"/>
<path d="M56.8264 40.7615C56.8426 40.7615 56.8588 40.7592 56.8762 40.7546C56.9642 40.7266 57.0129 40.6334 56.9851 40.5449C56.9387 40.3935 55.8055 36.8081 53.0525 34.9141C52.9772 34.8617 52.8729 34.8815 52.8219 34.9572C52.7698 35.0329 52.7894 35.1378 52.8648 35.189C55.5205 37.0178 56.656 40.6078 56.6676 40.6439C56.6896 40.7149 56.7557 40.7615 56.8264 40.7615Z" fill="#161742"/>
<path d="M58.1205 39.7866C58.1356 39.7866 58.1507 39.7843 58.1657 39.7796C58.2538 39.754 58.3048 39.662 58.2804 39.5734C58.2364 39.4174 57.1704 35.733 54.6688 33.6981C54.5981 33.6398 54.4926 33.6515 54.4347 33.7225C54.3768 33.7948 54.3884 33.8996 54.459 33.9578C56.8772 35.9264 57.949 39.6282 57.9595 39.6655C57.9803 39.7389 58.0464 39.7866 58.1194 39.7866H58.1205Z" fill="#161742"/>
<path d="M84.7001 83.8777C84.7928 83.8777 84.8716 83.8078 84.8809 83.7135C84.8913 83.6133 84.8183 83.5236 84.7186 83.5143C84.641 83.5061 76.8406 82.6337 69.9441 74.8131C63.4055 67.399 57.7418 56.876 57.0686 55.6063L64.4403 49.0391L88.1716 71.1264C88.2457 71.1951 88.3604 71.1905 88.4288 71.1159C88.4972 71.0414 88.4925 70.9261 88.4195 70.8573L64.5665 48.6582C64.4982 48.5941 64.3927 48.5929 64.3221 48.6558L56.7198 55.4281C56.6573 55.484 56.641 55.5749 56.6793 55.6494C56.7384 55.7636 62.708 67.159 69.6718 75.0554C76.668 82.9878 84.6028 83.8684 84.6816 83.8766C84.6874 83.8766 84.6943 83.8766 84.7001 83.8766V83.8777Z" fill="#161742"/>
<path d="M46.1592 40.0512C46.1592 46.4064 42.3703 51.5212 36.6776 51.5212C30.9849 51.5212 25.5414 46.4064 25.5414 40.0512C25.5414 33.6959 31.3094 29.1484 37.0032 29.1484C42.697 29.1484 46.1604 33.6959 46.1604 40.0512H46.1592Z" fill="#1D478E"/>
<path d="M36.6766 51.7286C42.2905 51.7286 46.3645 46.8177 46.3645 40.0512C46.3645 33.2848 42.6022 28.9412 37.0011 28.9412C34.1263 28.9412 31.2099 30.0792 28.9979 32.0617C26.6353 34.1805 25.333 37.018 25.333 40.0512C25.333 46.2714 30.6328 51.7286 36.6755 51.7286H36.6766ZM37.0022 29.3558C42.44 29.3558 45.9532 33.5539 45.9532 40.0512C45.9532 46.5486 42.0518 51.3139 36.6766 51.3139C30.8542 51.3139 25.7466 46.0512 25.7466 40.0512C25.7466 34.8853 30.269 29.3558 37.0022 29.3558Z" fill="#FFF3EB"/>
<path d="M43.6626 40.0511C43.6626 47.4454 40.3603 52.9445 34.9492 53.2241C34.6282 53.2404 31.5391 53.2241 31.5391 53.2241C31.5391 53.2241 21.6705 47.0529 21.6705 40.0511C21.6705 33.0494 31.5391 26.6638 31.5391 26.6638H34.4521C38.9212 26.6638 43.6626 32.658 43.6626 40.0511Z" fill="#161742"/>
<path d="M31.5388 53.2241C26.0885 53.2241 21.6702 47.2784 21.6702 39.944C21.6702 32.6095 26.0885 26.6638 31.5388 26.6638C36.9891 26.6638 41.4075 32.6095 41.4075 39.944C41.4075 47.2784 36.9891 53.2241 31.5388 53.2241Z" fill="#1D478E"/>
<path d="M31.5389 51.5574C26.8162 51.5574 22.9877 46.4059 22.9877 40.0513C22.9877 33.6966 26.8162 28.5452 31.5389 28.5452C36.2616 28.5452 40.0901 33.6966 40.0901 40.0513C40.0901 46.4059 36.2616 51.5574 31.5389 51.5574Z" fill="#D9E4F4"/>
<path d="M32.6398 51.0251C28.5257 51.0251 25.1906 46.2126 25.1906 40.2761C25.1906 34.3396 28.5257 29.5271 32.6398 29.5271C36.754 29.5271 40.0891 34.3396 40.0891 40.2761C40.0891 46.2126 36.754 51.0251 32.6398 51.0251Z" fill="#FFF3EB"/>
<path d="M64.9292 35.2697C64.9883 35.2615 65.0416 35.2242 65.0694 35.166C65.1134 35.074 65.0752 34.9621 64.9825 34.9179C63.2607 34.0839 62.0185 34.8957 61.9664 34.9307C61.8818 34.9878 61.8586 35.1031 61.9154 35.1881C61.9722 35.2731 62.0869 35.2964 62.1715 35.2405C62.2167 35.2114 63.2966 34.516 64.8226 35.2533C64.8562 35.2696 64.8944 35.2755 64.9292 35.2697Z" fill="#161742"/>
<path d="M64.1643 36.3972C63.9221 36.6779 63.5954 36.9156 63.2119 36.9179C62.8283 36.9202 62.4633 36.6954 62.198 36.4392C61.9964 36.2446 62.3034 35.936 62.505 36.1305C62.6059 36.2283 62.709 36.3029 62.8376 36.3716C62.9569 36.4357 63.0879 36.4811 63.2107 36.4811C63.3335 36.4811 63.4424 36.438 63.5525 36.3681C63.6626 36.2982 63.7622 36.198 63.8561 36.0885C63.9326 35.9989 64.0844 36.0093 64.1631 36.0885C64.2512 36.1771 64.2408 36.3075 64.1631 36.3972H64.1643Z" fill="#161742"/>
</g>
</svg>
