<svg width="219" height="98" viewBox="0 0 219 98" fill="none" xmlns="http://www.w3.org/2000/svg">
<path d="M26.0133 45.8701C23.587 44.0391 20.097 44.4801 18.3571 46.9528C8.91728 60.3689 2.66554 75.6997 0.0653272 91.8089C-0.413914 94.7779 1.80048 97.465 4.84221 97.787C7.88394 98.1089 10.5996 95.9432 11.0956 92.9768C13.4572 78.8541 18.9396 65.4098 27.1562 53.5925C28.882 51.1103 28.4397 47.7012 26.0133 45.8701Z" fill="#EE3D4B"/>
<path d="M73.9441 11.1113C71.7738 4.78053 64.7528 1.31671 58.5905 4.13819C47.6747 9.13605 37.66 15.8502 28.9429 24.0147C24.0219 28.6239 24.7435 36.3109 29.951 40.6056L32.3082 42.5496C37.5156 46.8443 45.2278 46.0963 50.3192 41.6694C55.5388 37.1309 61.3194 33.2555 67.5236 30.135C73.5754 27.0912 77.0969 20.3079 74.9265 13.9771L73.9441 11.1113Z" fill="#FF919A"/>
<path d="M137.538 9.18428C138.353 6.28686 136.626 3.27438 133.64 2.61893C117.441 -0.937314 100.633 -0.870988 84.4629 2.813C81.4827 3.49198 79.7803 6.518 80.6193 9.40889C81.4584 12.2998 84.5212 13.9592 87.5052 13.2965C101.712 10.1414 116.452 10.0833 130.684 13.1261C133.673 13.7652 136.722 12.0817 137.538 9.18428Z" fill="#FFD325"/>
<path d="M189.083 41.3762C191.427 39.4439 191.742 36.0002 189.661 33.7968C178.369 21.842 164.486 12.5324 149.041 6.55807C146.194 5.45694 143.046 7.00106 142.069 9.84984C141.092 12.6986 142.657 15.7719 145.497 16.8886C159.021 22.2048 171.195 30.3689 181.163 40.8046C183.257 42.9966 186.74 43.3086 189.083 41.3762Z" fill="#5BC275"/>
<path d="M214.148 97.9693C217.191 97.6527 219.41 94.9694 218.936 91.9995C216.365 75.8859 210.141 60.5442 200.725 47.1117C198.99 44.6359 195.501 44.1888 193.071 46.0156C190.641 47.8424 190.193 51.2508 191.914 53.736C200.109 65.5676 205.568 79.0215 207.904 93.1483C208.394 96.1155 211.106 98.286 214.148 97.9693Z" fill="#268E3A"/>
</svg>
