<?xml version="1.0" encoding="utf-8"?>
<!-- Generator: Adobe Illustrator 28.3.0, SVG Export Plug-In . SVG Version: 6.00 Build 0)  -->
<svg version="1.1" id="Layer_1" xmlns="http://www.w3.org/2000/svg" xmlns:xlink="http://www.w3.org/1999/xlink" x="0px" y="0px"
	 viewBox="0 0 48 13" style="enable-background:new 0 0 48 13;" xml:space="preserve">
<style type="text/css">
	.st0{fill:#161742;stroke:#161742;stroke-width:0.2;}
</style>
<path class="st0" d="M1.4,8.3L1.4,8.3C1.1,8.3,1,8.6,0.9,8.8c0,0.2,0,0.4,0.1,0.6c0.1,0.2,0.3,0.3,0.5,0.4C1.8,9.9,2,9.9,2.3,9.7
	l0,0l2.8-1.7v3.2c0,0.3,0.1,0.5,0.3,0.6C5.5,12,5.8,12.1,6,12.1c0.2,0,0.5-0.1,0.6-0.2c0.2-0.1,0.3-0.4,0.3-0.6V8.1l1.8,1l0,0l0,0
	c0.3,0.2,0.7,0.4,1,0.6l0,0c0.2,0.1,0.5,0.2,0.7,0.1c0.2-0.1,0.4-0.2,0.5-0.4c0.1-0.2,0.2-0.4,0.1-0.6c0-0.2-0.2-0.4-0.4-0.6
	L7.8,6.5l1.8-1.1l0,0l0,0c0.3-0.2,0.7-0.4,1-0.6c0.2-0.1,0.4-0.4,0.4-0.6c0-0.2,0-0.4-0.1-0.6c-0.1-0.2-0.3-0.3-0.5-0.4
	C10.2,3.1,10,3.1,9.7,3.3h0L6.9,4.9V1.8c0-0.3-0.1-0.5-0.3-0.6C6.5,1,6.2,0.9,6,0.9C5.8,0.9,5.5,1,5.4,1.1C5.2,1.3,5.1,1.5,5.1,1.8
	v3.2l-1.8-1l0,0C3,3.7,2.6,3.5,2.3,3.3l0,0C2,3.1,1.8,3.1,1.5,3.2C1.3,3.3,1.2,3.4,1,3.6C0.9,3.8,0.9,4,0.9,4.2
	c0,0.2,0.2,0.4,0.4,0.6c0,0,0,0,0,0l2.9,1.7L2.4,7.6h0l0,0C2,7.8,1.7,8,1.4,8.3L1.4,8.3z M1.4,8.3c0.3-0.2,0.7-0.4,1-0.6L5.1,8
	L2.2,9.6C1.3,10.2,0.5,8.8,1.4,8.3z M27.7,3.3L27.7,3.3l-2.8,1.7V1.8c0-0.3-0.1-0.5-0.3-0.6C24.5,1,24.2,0.9,24,0.9
	c-0.2,0-0.5,0.1-0.6,0.2c-0.2,0.1-0.3,0.4-0.3,0.6v3.2l-1.8-1v0c-0.3-0.2-0.7-0.4-1-0.6v0c-0.2-0.1-0.5-0.2-0.7-0.1
	c-0.2,0.1-0.4,0.2-0.5,0.4c-0.1,0.2-0.2,0.4-0.1,0.6c0,0.2,0.2,0.4,0.4,0.6l2.9,1.7l-1.8,1.1l0,0l0,0c-0.3,0.2-0.7,0.4-1,0.6
	c-0.2,0.1-0.4,0.4-0.4,0.6c0,0.2,0,0.4,0.1,0.6c0.1,0.2,0.3,0.3,0.5,0.4c0.2,0.1,0.5,0.1,0.7-0.1l0,0l2.8-1.7v3.2
	c0,0.3,0.1,0.5,0.3,0.6c0.2,0.1,0.4,0.2,0.6,0.2c0.2,0,0.5-0.1,0.6-0.2c0.2-0.1,0.3-0.4,0.3-0.6V8.1l1.8,1v0c0.3,0.2,0.7,0.4,1,0.6
	v0c0.2,0.1,0.5,0.2,0.7,0.1c0.2-0.1,0.4-0.2,0.5-0.4c0.1-0.2,0.2-0.4,0.1-0.6c0-0.2-0.2-0.4-0.4-0.6l-2.9-1.7l1.8-1.1c0,0,0,0,0,0
	c0.3-0.2,0.7-0.4,1-0.6c0.2-0.1,0.4-0.4,0.4-0.6c0-0.2,0-0.4-0.1-0.6c-0.1-0.2-0.3-0.3-0.5-0.4C28.2,3.1,28,3.1,27.7,3.3z M9.7,3.3
	L9.7,3.3L6.9,4.9V1.8c0-0.3-0.1-0.5-0.3-0.6C6.5,1,6.2,0.9,6,0.9C5.8,0.9,5.5,1,5.4,1.1C5.2,1.3,5.1,1.5,5.1,1.8v3.2l-1.8-1v0
	C3,3.7,2.6,3.5,2.3,3.3v0C2,3.1,1.8,3.1,1.5,3.2C1.3,3.3,1.2,3.4,1,3.6C0.9,3.8,0.9,4,0.9,4.2c0,0.2,0.2,0.4,0.4,0.6l2.9,1.7
	L2.4,7.6l0,0l0,0C2,7.8,1.7,8,1.3,8.2C1.1,8.3,1,8.6,0.9,8.8c0,0.2,0,0.4,0.1,0.6c0.1,0.2,0.3,0.3,0.5,0.4C1.8,9.9,2,9.9,2.3,9.7
	l0,0l2.8-1.7v3.2c0,0.3,0.1,0.5,0.3,0.6C5.5,12,5.8,12.1,6,12.1c0.2,0,0.5-0.1,0.6-0.2c0.2-0.1,0.3-0.4,0.3-0.6V8.1l1.8,1v0
	c0.3,0.2,0.7,0.4,1,0.6v0c0.2,0.1,0.5,0.2,0.7,0.1c0.2-0.1,0.4-0.2,0.5-0.4c0.1-0.2,0.2-0.4,0.1-0.6c0-0.2-0.2-0.4-0.4-0.6L7.8,6.5
	l1.8-1.1c0,0,0,0,0,0c0.3-0.2,0.7-0.4,1-0.6c0.2-0.1,0.4-0.4,0.4-0.6c0-0.2,0-0.4-0.1-0.6c-0.1-0.2-0.3-0.3-0.5-0.4
	C10.2,3.1,10,3.1,9.7,3.3z M38.3,9.7l2.8-1.7v3.2c0,0.3,0.1,0.5,0.3,0.6c0.2,0.1,0.4,0.2,0.6,0.2c0.2,0,0.5-0.1,0.6-0.2
	c0.2-0.1,0.3-0.4,0.3-0.6V8.1l1.8,1L44.7,9l-0.1,0.1c0.3,0.2,0.7,0.4,1,0.6v0c0.2,0.1,0.5,0.2,0.7,0.1c0.2-0.1,0.4-0.2,0.5-0.4
	c0.1-0.2,0.2-0.4,0.1-0.6c0-0.2-0.2-0.4-0.4-0.6v0l-2.9-1.7l1.8-1.1c0.3-0.2,0.7-0.4,1-0.6c0.2-0.1,0.4-0.4,0.4-0.6
	c0-0.2,0-0.4-0.1-0.6c-0.1-0.2-0.3-0.3-0.5-0.4c-0.2-0.1-0.5-0.1-0.7,0.1l0.1,0.1l-0.1-0.1l-2.8,1.7V1.8c0-0.3-0.1-0.5-0.3-0.6
	C42.5,1,42.2,0.9,42,0.9c-0.2,0-0.5,0.1-0.6,0.2c-0.2,0.1-0.3,0.4-0.3,0.6v3.2l-1.8-1L39.3,4l0.1-0.1c-0.3-0.2-0.7-0.4-1-0.6v0
	c-0.2-0.1-0.5-0.2-0.7-0.1c-0.2,0.1-0.4,0.2-0.5,0.4c-0.1,0.2-0.2,0.4-0.1,0.6c0,0.2,0.2,0.4,0.4,0.6v0l2.9,1.7l-1.8,1.1l0,0
	c-0.3,0.2-0.7,0.4-1,0.6c-0.2,0.1-0.4,0.4-0.4,0.6c0,0.2,0,0.4,0.1,0.6c0.1,0.2,0.3,0.3,0.5,0.4C37.8,9.9,38,9.9,38.3,9.7L38.3,9.7
	L38.3,9.7z"/>
</svg>
