<svg width="86" height="39" viewBox="0 0 86 39" fill="none" xmlns="http://www.w3.org/2000/svg">
<path d="M9.96154 17.9224C9.03106 17.2056 7.69065 17.3781 7.02413 18.3451C3.41129 23.5872 1.01903 29.5773 0.0248112 35.8715C-0.157798 37.0275 0.689234 38.0736 1.85284 38.1993C3.01748 38.3251 4.05746 37.4811 4.2467 36.3251C5.1505 30.8039 7.25058 25.548 10.3985 20.9288C11.0573 19.9622 10.8883 18.6362 9.96154 17.9224Z" fill="#FD707B"/>
<path d="M29.4377 3.85019C29.0635 2.7359 27.8535 2.13185 26.7602 2.56362C20.8498 4.89786 15.5373 8.5347 11.2163 13.2047C10.4218 14.0634 10.5423 15.4029 11.4373 16.1563C12.336 16.9128 13.674 16.791 14.4769 15.9334C18.2911 11.8593 22.9493 8.67205 28.1229 6.59646C29.2111 6.1599 29.811 4.96165 29.4377 3.85019Z" fill="#F68D2B"/>
<path d="M53.4251 3.58462C53.7368 2.454 53.0749 1.27895 51.9304 1.02257C45.7319 -0.365993 39.3008 -0.340079 33.1136 1.09839C31.9713 1.36397 31.3189 2.54424 31.6397 3.67229C31.9611 4.80283 33.1381 5.45177 34.2844 5.1922C39.7162 3.96225 45.3512 3.93956 50.7926 5.12572C51.941 5.37605 53.1127 4.71768 53.4251 3.58462Z" fill="#FFD325"/>
<path d="M73.7638 17.1593C74.6588 16.406 74.7795 15.0664 73.985 14.2077C69.6645 9.53728 64.3523 5.89993 58.4421 3.56512C57.3489 3.13323 56.1389 3.73718 55.7645 4.85142C55.3911 5.96286 55.9909 7.16115 57.079 7.59782C62.2525 9.67391 66.9104 12.8616 70.7242 16.9361C71.527 17.7937 72.865 17.9157 73.7638 17.1593Z" fill="#48DA5A"/>
<path d="M83.2542 38.1934C84.418 38.0698 85.2669 37.0252 85.0863 35.8688C84.1032 29.573 81.7215 23.5785 78.118 18.3301C77.4532 17.3618 76.1131 17.187 75.1813 17.9021C74.2534 18.6143 74.082 19.94 74.739 20.9078C77.8788 25.5325 79.9696 30.7922 80.8636 36.315C81.0508 37.4713 82.0893 38.3172 83.2542 38.1934Z" fill="#32B353"/>
</svg>
