<svg xmlns="http://www.w3.org/2000/svg" width="14.147" height="16.012" viewBox="0 0 14.147 16.012">
  <g id="bank" transform="translate(-5.727 -2.001)">
    <path id="Path_7458" data-name="Path 7458" d="M19.608,21.493H5.995a.267.267,0,0,0-.267.267v.972A.267.267,0,0,0,5.995,23H19.608a.267.267,0,0,0,.267-.267V21.76A.267.267,0,0,0,19.608,21.493Z" transform="translate(0 -14.615)" fill="#a8a8a8"/>
    <path id="Path_7459" data-name="Path 7459" d="M15.536,2.244a1.208,1.208,0,0,0-1.451,0L8.406,6.5H21.215ZM14.81,5.558a.94.94,0,1,1,.941-.939A.941.941,0,0,1,14.81,5.558Z" transform="translate(-2.008)" fill="#a8a8a8"/>
    <path id="Path_7460" data-name="Path 7460" d="M19.608,59.972H5.995a.267.267,0,0,0-.267.267v.974a.267.267,0,0,0,.267.267H19.608a.267.267,0,0,0,.267-.267v-.974A.267.267,0,0,0,19.608,59.972Z" transform="translate(0 -43.467)" fill="#a8a8a8"/>
    <path id="Path_7461" data-name="Path 7461" d="M8.8,35.221a.52.52,0,0,0-.521.521v.641h3.259v-.641a.52.52,0,0,0-.518-.521h-.007V30.17h0a.52.52,0,0,0,.521-.521v-.641H8.276v.641a.52.52,0,0,0,.521.521H8.8v5.051Z" transform="translate(-1.91 -20.254)" fill="#a8a8a8"/>
    <path id="Path_7462" data-name="Path 7462" d="M47.226,35.221a.52.52,0,0,0-.521.521v.641h3.259v-.641a.52.52,0,0,0-.518-.521h-.01V30.17h.008a.52.52,0,0,0,.521-.521v-.641H46.706v.641a.52.52,0,0,0,.518.521h.01v5.051Z" transform="translate(-30.728 -20.254)" fill="#a8a8a8"/>
    <path id="Path_7463" data-name="Path 7463" d="M28.006,35.221a.52.52,0,0,0-.521.521v.641h3.261v-.641a.52.52,0,0,0-.521-.521h-.008V30.17h.008a.52.52,0,0,0,.521-.521v-.641H27.486v.641a.52.52,0,0,0,.521.521h.01v5.051Z" transform="translate(-16.315 -20.254)" fill="#a8a8a8"/>
  </g>
</svg>
