<svg width="24" height="24" viewBox="0 0 24 24" fill="none" xmlns="http://www.w3.org/2000/svg">
<mask id="mask0_351_8973" style="mask-type:alpha" maskUnits="userSpaceOnUse" x="0" y="0" width="24" height="24">
<rect width="24" height="24" fill="#D9D9D9"/>
</mask>
<g mask="url(#mask0_351_8973)">
<path d="M4.6155 20C4.15517 20 3.77083 19.8458 3.4625 19.5375C3.15417 19.2292 3 18.8448 3 18.3845V8.6155C3 8.15517 3.15417 7.77083 3.4625 7.4625C3.77083 7.15417 4.15517 7 4.6155 7H9V5.61525C9 5.15508 9.15417 4.77083 9.4625 4.4625C9.77083 4.15417 10.1552 4 10.6155 4H13.3845C13.8448 4 14.2292 4.15417 14.5375 4.4625C14.8458 4.77083 15 5.15508 15 5.61525V7H19.3845C19.8448 7 20.2292 7.15417 20.5375 7.4625C20.8458 7.77083 21 8.15517 21 8.6155V18.3845C21 18.8448 20.8458 19.2292 20.5375 19.5375C20.2292 19.8458 19.8448 20 19.3845 20H4.6155ZM10 7H14V5.61525C14 5.46142 13.9359 5.32042 13.8077 5.19225C13.6796 5.06408 13.5385 5 13.3845 5H10.6155C10.4615 5 10.3204 5.06408 10.1923 5.19225C10.0641 5.32042 10 5.46142 10 5.61525V7ZM20 14.5H14V15.1923C14 15.4244 13.9234 15.6171 13.7703 15.7703C13.6171 15.9234 13.4244 16 13.1923 16H10.8078C10.5756 16 10.3829 15.9234 10.2298 15.7703C10.0766 15.6171 10 15.4244 10 15.1923V14.5H4V18.3845C4 18.5385 4.06408 18.6796 4.19225 18.8077C4.32042 18.9359 4.4615 19 4.6155 19H19.3845C19.5385 19 19.6796 18.9359 19.8078 18.8077C19.9359 18.6796 20 18.5385 20 18.3845V14.5ZM11 15H13V13H11V15ZM4 13.5H10V12.8077C10 12.5756 10.0766 12.3829 10.2298 12.2298C10.3829 12.0766 10.5756 12 10.8078 12H13.1923C13.4244 12 13.6171 12.0766 13.7703 12.2298C13.9234 12.3829 14 12.5756 14 12.8077V13.5H20V8.6155C20 8.4615 19.9359 8.32042 19.8078 8.19225C19.6796 8.06408 19.5385 8 19.3845 8H4.6155C4.4615 8 4.32042 8.06408 4.19225 8.19225C4.06408 8.32042 4 8.4615 4 8.6155V13.5Z" fill="#1D478E"/>
</g>
</svg>
