<svg width="129" height="57" viewBox="0 0 129 57" fill="none" xmlns="http://www.w3.org/2000/svg">
<path d="M120 1H8C3.58172 1 0 4.58172 0 9V49C0 53.4183 3.58172 57 8 57H120C124.418 57 128 53.4183 128 49V9C128 4.58172 124.418 1 120 1Z" fill="#707070"/>
<path opacity="0.224" d="M120 56.998H39.7729C39.3006 51.9641 37.7669 47.0877 35.2729 42.6895C33.743 40.0196 31.8566 37.5701 29.6659 35.4092C27.4787 33.2743 25.0074 31.4515 22.3219 29.9922C19.5845 28.4996 16.6648 27.3693 13.636 26.6294C10.4814 25.8716 7.24724 25.4948 4.00293 25.5073C2.64593 25.5073 1.30293 25.5695 0.00292969 25.6895V8.99805C0.0053118 6.87705 0.84898 4.84401 2.34875 3.34424C3.84853 1.84446 5.88193 1.00043 8.00293 0.998047H120.003C122.124 1.00043 124.157 1.84446 125.657 3.34424C127.157 4.84401 128.001 6.87705 128.003 8.99805V48.998C128.001 51.1196 127.157 53.1535 125.656 54.6533C124.156 56.1532 122.122 56.9965 120 56.998ZM21.5 56.998H8.00488C5.88388 56.9957 3.85048 56.1521 2.35071 54.6523C0.850933 53.1526 0.00726492 51.119 0.00488281 48.998V41.2773C1.23952 41.0359 2.49492 40.9164 3.75293 40.9204C6.15246 40.897 8.53244 41.3534 10.7529 42.2632C12.9466 43.1994 14.9286 44.569 16.58 46.29C19.3269 49.2393 21.0538 52.9931 21.506 56.998H21.5Z" fill="#DDDDDD"/>
</svg>
