<svg xmlns="http://www.w3.org/2000/svg" width="23.029" height="24" viewBox="0 0 23.029 24">
  <g id="discount" transform="translate(-10.359 0.002)">
    <g id="Group_7105" data-name="Group 7105" transform="translate(10.359 -0.002)">
      <g id="Group_7104" data-name="Group 7104" transform="translate(0 0)">
        <path id="Path_8779" data-name="Path 8779" d="M32.277,12.309a.7.7,0,0,1,0-.622l.9-1.831a2.083,2.083,0,0,0-.9-2.767l-1.8-.955a.7.7,0,0,1-.365-.5l-.352-2.008A2.084,2.084,0,0,0,27.4,1.914L25.384,2.2a.7.7,0,0,1-.591-.192L23.328.59a2.083,2.083,0,0,0-2.909,0L18.954,2.007a.7.7,0,0,1-.591.192l-2.018-.285a2.083,2.083,0,0,0-2.353,1.71l-.352,2.007a.7.7,0,0,1-.365.5l-1.8.955a2.083,2.083,0,0,0-.9,2.767l.9,1.831a.7.7,0,0,1,0,.622l-.9,1.831a2.083,2.083,0,0,0,.9,2.767l1.8.955a.7.7,0,0,1,.365.5l.352,2.008A2.082,2.082,0,0,0,16.045,22.1a2.14,2.14,0,0,0,.3-.021l2.018-.285a.7.7,0,0,1,.591.192l1.465,1.417a2.083,2.083,0,0,0,2.909,0l1.465-1.417a.7.7,0,0,1,.591-.192l2.018.285a2.083,2.083,0,0,0,2.353-1.71l.352-2.007a.7.7,0,0,1,.365-.5l1.8-.955a2.083,2.083,0,0,0,.9-2.767ZM19.1,5.769a2.538,2.538,0,1,1-2.538,2.538A2.541,2.541,0,0,1,19.1,5.769ZM17.8,17.055a.692.692,0,1,1-.979-.979l9.135-9.135a.692.692,0,0,1,.979.979Zm6.847,1.172a2.538,2.538,0,1,1,2.538-2.538A2.541,2.541,0,0,1,24.642,18.227Z" transform="translate(-10.359 0.002)" fill="#fff3eb"/>
      </g>
    </g>
    <g id="Group_7107" data-name="Group 7107" transform="translate(23.488 14.535)">
      <g id="Group_7106" data-name="Group 7106">
        <path id="Path_8780" data-name="Path 8780" d="M291.606,310.141a1.154,1.154,0,1,0,1.154,1.154A1.155,1.155,0,0,0,291.606,310.141Z" transform="translate(-290.452 -310.141)" fill="#fff3eb"/>
      </g>
    </g>
    <g id="Group_7109" data-name="Group 7109" transform="translate(17.951 7.153)">
      <g id="Group_7108" data-name="Group 7108">
        <path id="Path_8781" data-name="Path 8781" d="M173.487,152.646a1.154,1.154,0,1,0,1.154,1.154A1.155,1.155,0,0,0,173.487,152.646Z" transform="translate(-172.333 -152.646)" fill="#fff3eb"/>
      </g>
    </g>
  </g>
</svg>
