<svg width="10" height="12" viewBox="0 0 10 12" fill="none" xmlns="http://www.w3.org/2000/svg">
<path d="M3.00065 9.66667H7.00065C7.09554 9.66667 7.17482 9.63483 7.23848 9.57117C7.30215 9.5075 7.33398 9.42822 7.33398 9.33333C7.33398 9.23844 7.30215 9.15917 7.23848 9.0955C7.17482 9.03183 7.09554 9 7.00065 9H3.00065C2.90576 9 2.82648 9.03183 2.76282 9.0955C2.69915 9.15917 2.66732 9.23844 2.66732 9.33333C2.66732 9.42822 2.69915 9.5075 2.76282 9.57117C2.82648 9.63483 2.90576 9.66667 3.00065 9.66667ZM3.00065 7H7.00065C7.09554 7 7.17482 6.96817 7.23848 6.9045C7.30215 6.84083 7.33398 6.76156 7.33398 6.66667C7.33398 6.57178 7.30215 6.4925 7.23848 6.42883C7.17482 6.36517 7.09554 6.33333 7.00065 6.33333H3.00065C2.90576 6.33333 2.82648 6.36517 2.76282 6.42883C2.69915 6.4925 2.66732 6.57178 2.66732 6.66667C2.66732 6.76156 2.69915 6.84083 2.76282 6.9045C2.82648 6.96817 2.90576 7 3.00065 7ZM1.41098 12C1.1041 12 0.847873 11.8972 0.642318 11.6917C0.436762 11.4861 0.333984 11.2299 0.333984 10.923V1.077C0.333984 0.770111 0.436762 0.513889 0.642318 0.308333C0.847873 0.102778 1.1041 0 1.41098 0H6.21982C6.36348 0 6.50304 0.0290552 6.63848 0.0871663C6.77393 0.145277 6.88993 0.222612 6.98649 0.319167L9.34815 2.68083C9.44471 2.77739 9.52204 2.89339 9.58015 3.02883C9.63826 3.16428 9.66732 3.30383 9.66732 3.4475V10.923C9.66732 11.2299 9.56454 11.4861 9.35898 11.6917C9.15343 11.8972 8.89721 12 8.59032 12H1.41098ZM6.33398 2.79483V0.666667H1.41098C1.30832 0.666667 1.21426 0.709389 1.12882 0.794833C1.04337 0.880278 1.00065 0.974333 1.00065 1.077V10.923C1.00065 11.0257 1.04337 11.1197 1.12882 11.2052C1.21426 11.2906 1.30832 11.3333 1.41098 11.3333H8.59032C8.69298 11.3333 8.78704 11.2906 8.87248 11.2052C8.95793 11.1197 9.00065 11.0257 9.00065 10.923V3.33333H6.87248C6.71771 3.33333 6.58926 3.28228 6.48715 3.18017C6.38504 3.07806 6.33398 2.94961 6.33398 2.79483Z" fill="#1D478E"/>
</svg>
