<svg xmlns="http://www.w3.org/2000/svg" xmlns:xlink="http://www.w3.org/1999/xlink" width="157.635" height="170.436" viewBox="0 0 157.635 170.436">
  <defs>
    <clipPath id="clip-path">
      <rect id="Rectangle_2514" data-name="Rectangle 2514" width="88.347" height="88.347" fill="none"/>
    </clipPath>
    <clipPath id="clip-path-2">
      <rect id="Rectangle_2515" data-name="Rectangle 2515" width="57.892" height="50.539" fill="none"/>
    </clipPath>
    <clipPath id="clip-path-3">
      <rect id="Rectangle_2516" data-name="Rectangle 2516" width="61.295" height="40.164" fill="#161742"/>
    </clipPath>
    <clipPath id="clip-path-4">
      <rect id="Rectangle_2517" data-name="Rectangle 2517" width="58.419" height="60.707" fill="none"/>
    </clipPath>
  </defs>
  <g id="Group_7417" data-name="Group 7417" transform="translate(-115.375 -162.139)">
    <g id="Asset_1" data-name="Asset 1" transform="matrix(0.999, -0.035, 0.035, 0.999, 115, 164.408)">
      <g id="Book" transform="translate(0 0)">
        <g id="Group_7324" data-name="Group 7324" transform="translate(0 0)">
          <g id="Group_7323" data-name="Group 7323">
            <path id="Path_8922" data-name="Path 8922" d="M117.156,10.272l-3.6,138.782-.313,6.875L5.932,148.185,0,141.784,11.5,6.582,110.968,0Z" transform="translate(0.165 12.347)" fill="#c1bdbd"/>
            <g id="Group_7318" data-name="Group 7318" transform="translate(104.503 12.347)" opacity="0.443">
              <path id="Path_8923" data-name="Path 8923" d="M8.908,155.929,0,145.474,6.63,0l6.021,7.711Z" transform="translate(0 0)"/>
            </g>
            <g id="Group_7319" data-name="Group 7319" transform="translate(0 10.753)" style="mix-blend-mode: normal;isolation: isolate">
              <path id="Path_8924" data-name="Path 8924" d="M110.968,1.47l-6.63,145.474L0,143.254,7.893,0Z" transform="translate(0.165 0.124)" fill="#fff"/>
              <path id="Path_8925" data-name="Path 8925" d="M111.133,1.594C110.112,1.582,70.623,1.063,8.058.248L8.182.13C5.986,40.161,3.265,89.751.319,143.384l-.148-.159c.543.018,1.133.041,1.724.059,36.714,1.3,71.562,2.538,102.614,3.642l-.142.136c4-85.907,6.712-144.222,6.765-145.468-.053,1.24-2.657,59.56-6.488,145.479v.136H104.5c-31.052-1.092-65.9-2.32-102.614-3.613-.59-.024-1.181-.041-1.724-.059H0l.006-.159C2.981,89.733,5.72,40.15,7.934.118V0h.124C70.617.968,110.106,1.582,111.127,1.594Z" transform="translate(0 0)" fill="#fff"/>
            </g>
            <rect id="Rectangle_2488" data-name="Rectangle 2488" width="39.223" height="4.138" rx="2.069" transform="translate(57.657 49.625) rotate(-178.32)" fill="#e0e0e0"/>
            <rect id="Rectangle_2489" data-name="Rectangle 2489" width="39.223" height="4.138" rx="2.069" transform="translate(57.294 59.995) rotate(-178.32)" fill="#e0e0e0"/>
            <rect id="Rectangle_2491" data-name="Rectangle 2491" width="39.223" height="4.138" rx="2.069" transform="translate(57.117 76.892) rotate(-178.32)" fill="#e0e0e0"/>
            <rect id="Rectangle_2493" data-name="Rectangle 2493" width="39.223" height="4.138" rx="2.069" transform="translate(56.333 87.247) rotate(-178.32)" fill="#e0e0e0"/>
            <rect id="Rectangle_2507" data-name="Rectangle 2507" width="39.223" height="4.138" rx="2.069" transform="translate(55.416 113.506) rotate(-178.32)" fill="#e0e0e0"/>
            <rect id="Rectangle_2511" data-name="Rectangle 2511" width="39.223" height="4.138" rx="2.069" transform="translate(55.324 128.244) rotate(-178.32)" fill="#e0e0e0"/>
            <rect id="Rectangle_2494" data-name="Rectangle 2494" width="39.223" height="4.138" rx="2.069" transform="translate(99.351 88.242) rotate(-178.32)" fill="#e0e0e0"/>
            <rect id="Rectangle_2534" data-name="Rectangle 2534" width="82.251" height="4.138" rx="2.069" transform="translate(97.416 143.655) rotate(-178.32)" fill="#e0e0e0"/>
            <rect id="Rectangle_2498" data-name="Rectangle 2498" width="39.223" height="4.138" rx="2.069" transform="translate(98.427 114.693) rotate(-178.32)" fill="#e0e0e0"/>
            <rect id="Rectangle_2500" data-name="Rectangle 2500" width="39.223" height="4.138" rx="2.069" transform="translate(98.441 129.75) rotate(-178.32)" fill="#e0e0e0"/>
            <rect id="Rectangle_2501" data-name="Rectangle 2501" width="27.351" height="4.138" rx="2.069" transform="translate(46.656 36.304) rotate(-178.32)" fill="#e0e0e0"/>
            <path id="Path_8927" data-name="Path 8927" d="M0,134.033s.171.018.508.03.844.035,1.494.065c1.322.047,3.265.124,5.774.218,5.036.177,12.332.437,21.43.756,18.206.614,43.6,1.47,72.383,2.444h.153l.006-.148c.272-5.75.561-11.783.85-17.923C104.143,86.48,105.542,56.62,106.552,35c.49-10.8.886-19.552,1.163-25.6.13-3.017.23-5.36.3-6.96.03-.791.053-1.393.071-1.812S108.1,0,108.1,0s-.024.207-.047.614-.059,1.021-.1,1.806c-.083,1.6-.2,3.944-.36,6.96-.3,6.051-.732,14.794-1.263,25.6-1.039,21.624-2.468,51.484-4.05,84.479-.289,6.14-.573,12.173-.85,17.923l.159-.148c-28.779-.933-54.176-1.753-72.383-2.338-9.1-.277-16.394-.508-21.43-.661-2.509-.071-4.451-.124-5.774-.165-.655-.018-1.151-.03-1.494-.035s-.508,0-.508,0Z" transform="translate(5.933 23.38)" fill="#263238"/>
            <path id="Path_8928" data-name="Path 8928" d="M.024,134.244s-.125-.041.194-.029.8.035,1.411.065c1.252.053,3.366.183,5.739.283,4.758.183,11.659.443,20.273.773,17.244.632,41.358,3.319,68.8,4.323h.153l.006-.148c.366-6.942.75-14.162,1.139-21.536,1.694-32.552,1.546-61.663,2.656-83,.543-10.662.852-19.74,1.153-25.709.142-2.975.254-5.29.331-6.872.035-.779.059-1.376.077-1.789s.018-.608.018-.608-.024.207-.047.608-.059,1-.112,1.783c-.089,1.576-.224,3.89-.39,6.866-.325,5.968-.669,15.047-1.254,25.7-1.133,21.335-1.015,50.441-2.75,83-.39,7.379-.767,14.6-1.133,21.536l.159-.148c-27.439-.962-51.553-3.609-68.8-4.217l-20.278-.679c-2.373-.071-4.2-.13-5.455-.171-.614-.018-1.086-.03-1.411-.035s-.478,0-.478,0Z" transform="translate(14.37 25.717)" fill="#263238"/>
            <g id="Group_7320" data-name="Group 7320" transform="translate(48.083 0)">
              <path id="Path_8929" data-name="Path 8929" d="M0,1.541,1.576,0,20.367.094l.909,1.718Z" transform="translate(0.874 8.946)" fill="#102759"/>
              <rect id="Rectangle_2502" data-name="Rectangle 2502" width="8.956" height="21.276" transform="translate(22.155 10.751) rotate(90.72)" fill="#e2e2e2"/>
              <rect id="Rectangle_2503" data-name="Rectangle 2503" width="1.789" height="22.752" rx="0.894" transform="translate(22.773 18.955) rotate(90.72)" fill="#e2e2e2"/>
              <path id="Path_8930" data-name="Path 8930" d="M10.188,17.453h-.012L.82,17.335a.829.829,0,0,1-.767-1.116L2.809,8.8A4.883,4.883,0,0,1,5.6,0a4.881,4.881,0,0,1,5.012,4.947A4.857,4.857,0,0,1,8.512,8.9l2.462,7.462a.823.823,0,0,1-.785,1.08ZM5.731.593H5.619a4.358,4.358,0,0,0-4.18,4.357,4.291,4.291,0,0,0,1.9,3.5l.195.13L.619,16.42a.226.226,0,0,0,.024.213.22.22,0,0,0,.189.1l9.357.118a.241.241,0,0,0,.195-.094.229.229,0,0,0,.035-.213l-2.6-7.9.195-.124a4.3,4.3,0,0,0,.744-6.7A4.247,4.247,0,0,0,5.737.581Z" transform="translate(5.929 0)" fill="#707070"/>
              <path id="Path_8931" data-name="Path 8931" d="M20.993.289A1.55,1.55,0,0,0,20.78.277c-.159,0-.36-.012-.608-.018C19.617.248,18.856.23,17.923.213,16,.183,13.389.136,10.5.089,7.615.059,5,.03,3.076.006,2.143.006,1.381.006.826,0,.579,0,.372,0,.213.006A.831.831,0,0,0,0,.018,1.178,1.178,0,0,0,.213.041c.159.006.36.018.614.024C1.381.083,2.143.1,3.076.13,4.977.177,7.6.224,10.5.266s5.526.065,7.421.071c.95,0,1.718,0,2.249-.012.266,0,.472-.006.614-.018a1.177,1.177,0,0,0,.213-.024Z" transform="translate(0.898 18.657)" fill="#455a64"/>
              <path id="Path_8932" data-name="Path 8932" d="M20.993.289A1.55,1.55,0,0,0,20.78.277c-.159,0-.36-.012-.608-.018C19.617.248,18.856.23,17.923.213,16,.183,13.389.136,10.5.089S5,.03,3.076.006C2.143.006,1.381.006.826,0,.579,0,.372,0,.213.006A.831.831,0,0,0,0,.018,1.178,1.178,0,0,0,.213.041c.159.006.36.018.614.024C1.381.083,2.143.1,3.076.13,4.977.177,7.6.224,10.5.266s5.526.065,7.421.071c.95,0,1.718,0,2.249-.012.266,0,.472-.006.614-.018a1.178,1.178,0,0,0,.213-.024Z" transform="translate(1.199 10.286)" fill="#455a64"/>
            </g>
            <g id="Group_7322" data-name="Group 7322" transform="translate(62.602 44.031)">
              <rect id="Rectangle_2505" data-name="Rectangle 2505" width="36.253" height="32.989" rx="8.92" transform="translate(0.967 0) rotate(1.68)" fill="#ebebeb"/>
              <path id="Path_8935" data-name="Path 8935" d="M.087,14.05,12.324,5.838a2.45,2.45,0,0,1,3.206.124l6.027,3.093,8.6-8.412a2.523,2.523,0,0,1,3.66.313l2.81,3.53-.118,12.687a5.867,5.867,0,0,1-6.051,5.809L5.683,22.2A5.869,5.869,0,0,1,0,16.116L.081,14.05Z" transform="translate(0.154 10.798)" fill="#e0e0e0"/>
              <path id="Path_8936" data-name="Path 8936" d="M7.241,3.457A3.623,3.623,0,1,1,3.457,0,3.619,3.619,0,0,1,7.241,3.457Z" transform="translate(10.503 5.575)" fill="#e0e0e0"/>
            </g>
          </g>
          <path id="Path_8937" data-name="Path 8937" d="M2.114,7.924a1.518,1.518,0,0,1-.478-.136,2.647,2.647,0,0,1-1.08-.915A3.051,3.051,0,0,1,.03,4.706,4.307,4.307,0,0,1,1.465,2.121,7.545,7.545,0,0,1,4.694.533,17.854,17.854,0,0,1,8.785,0a18.07,18.07,0,0,1,9.085,2.3A6.6,6.6,0,0,1,19.8,3.921a4.034,4.034,0,0,1,.862,2.3A3.075,3.075,0,0,1,19.8,8.426a5.017,5.017,0,0,1-1.919,1.2,13.052,13.052,0,0,1-4.079.661,23.949,23.949,0,0,1-3.589-.153A22.126,22.126,0,0,1,5.166,8.921c-.573-.213-1.015-.4-1.3-.537a2.234,2.234,0,0,1-.437-.224,2.69,2.69,0,0,1,.46.165c.3.118.744.289,1.322.478a24.306,24.306,0,0,0,5.024,1.116,23.7,23.7,0,0,0,3.554.118A12.818,12.818,0,0,0,17.77,9.37a4.816,4.816,0,0,0,1.806-1.139,2.756,2.756,0,0,0,.773-2,3.764,3.764,0,0,0-.8-2.119,6.412,6.412,0,0,0-1.842-1.541A17.937,17.937,0,0,0,8.779.291a17.746,17.746,0,0,0-4.032.49A7.342,7.342,0,0,0,1.6,2.28,4.146,4.146,0,0,0,.2,4.73,2.986,2.986,0,0,0,.65,6.808a2.717,2.717,0,0,0,1.009.927c.283.142.455.171.449.189Z" transform="translate(39.12 52.311)" fill="#263238"/>
          <path id="Path_8939" data-name="Path 8939" d="M2.114,7.924a1.518,1.518,0,0,1-.478-.136,2.647,2.647,0,0,1-1.08-.915A3.059,3.059,0,0,1,.03,4.706,4.307,4.307,0,0,1,1.465,2.121,7.512,7.512,0,0,1,4.694.533,17.853,17.853,0,0,1,8.785,0a18.07,18.07,0,0,1,9.085,2.3A6.6,6.6,0,0,1,19.8,3.921a4.034,4.034,0,0,1,.862,2.3A3.075,3.075,0,0,1,19.8,8.426a5.017,5.017,0,0,1-1.919,1.2,13.052,13.052,0,0,1-4.079.661,23.947,23.947,0,0,1-3.589-.153A22.445,22.445,0,0,1,5.166,8.921c-.573-.213-1.015-.4-1.3-.537a2.234,2.234,0,0,1-.437-.224,2.69,2.69,0,0,1,.46.165c.3.118.744.289,1.322.478a24.307,24.307,0,0,0,5.024,1.116,23.7,23.7,0,0,0,3.554.118A12.789,12.789,0,0,0,17.77,9.37a4.816,4.816,0,0,0,1.806-1.139,2.756,2.756,0,0,0,.773-2,3.764,3.764,0,0,0-.8-2.119,6.412,6.412,0,0,0-1.842-1.541A17.936,17.936,0,0,0,8.779.291a17.745,17.745,0,0,0-4.032.49A7.342,7.342,0,0,0,1.6,2.28,4.146,4.146,0,0,0,.2,4.73,2.986,2.986,0,0,0,.65,6.808a2.717,2.717,0,0,0,1.009.927c.283.142.455.171.449.189Z" transform="translate(11.379 119.682)" fill="#263238"/>
          <path id="Path_8940" data-name="Path 8940" d="M.508,0,8.625.2,12.5,5.189,8.33,10.272,0,10.03Z" transform="translate(111.629 58.109)" fill="#ee3d4b"/>
          <path id="Path_8941" data-name="Path 8941" d="M.508,0,8.625.2,12.5,5.189,8.33,10.278,0,10.03Z" transform="translate(112.396 43.87)" fill="#1d478e"/>
        </g>
      </g>
    </g>
    <g id="Group_7411" data-name="Group 7411" transform="translate(123.334 182.877)">
      <g id="Group_7415" data-name="Group 7415" transform="translate(0)">
        <g id="Group_7370" data-name="Group 7370" transform="translate(2.841 4.269)">
          <g id="Group_7416" data-name="Group 7416">
            <path id="Path_9007" data-name="Path 9007" d="M230.528,185.384l-58.515-41.877,6.185-8.643,58.515,41.877a5.314,5.314,0,1,1-6.186,8.643" transform="translate(-93.118 -73.007)" fill="#bcbdd8"/>
            <path id="Path_9008" data-name="Path 9008" d="M48.527,7.726a39.619,39.619,0,1,1-25.979,9.721A39.621,39.621,0,0,1,48.527,7.726Zm0-4.555a44.173,44.173,0,1,0,33.353,15.19A44.011,44.011,0,0,0,48.524,3.171" transform="translate(-2.365 -1.717)" fill="#161742"/>
            <path id="Path_9009" data-name="Path 9009" d="M236.11,190.8l-49.617-34.814,8.477-12.178,49.662,34.846A7.419,7.419,0,1,1,236.11,190.8" transform="translate(-100.956 -77.851)" fill="#1d478e"/>
            <g id="Group_7353" data-name="Group 7353" opacity="0.15">
              <g id="Group_7352" data-name="Group 7352">
                <g id="Group_7351" data-name="Group 7351" clip-path="url(#clip-path)">
                  <path id="Path_9010" data-name="Path 9010" d="M73.157,77.508A44.173,44.173,0,1,1,77.508,15.19a44.172,44.172,0,0,1-4.351,62.318" transform="translate(0 0)" fill="#fff"/>
                </g>
              </g>
            </g>
            <g id="Group_7356" data-name="Group 7356" transform="translate(7.266 6.416)" opacity="0.15">
              <g id="Group_7355" data-name="Group 7355">
                <g id="Group_7354" data-name="Group 7354" clip-path="url(#clip-path-2)">
                  <path id="Path_9011" data-name="Path 9011" d="M28.773,23.219A37.535,37.535,0,0,0,15.851,52.443a10.489,10.489,0,0,0,6.8,9.6A37.625,37.625,0,0,0,73.677,24.818a9.078,9.078,0,0,0-5.563-7.867,37.627,37.627,0,0,0-39.341,6.268" transform="translate(-15.842 -13.988)" fill="#fff"/>
                </g>
              </g>
            </g>
            <path id="Path_9012" data-name="Path 9012" d="M44.158,0V6.18a37.994,37.994,0,0,1,.034,75.988h0A37.994,37.994,0,0,1,44.155,6.18Zm0,0A44.173,44.173,0,1,0,77.508,15.19,44.011,44.011,0,0,0,44.155,0" transform="translate(0 0)" fill="#1d478e"/>
            <g id="Group_7359" data-name="Group 7359" transform="translate(85.537 74.135)" opacity="0.5" style="mix-blend-mode: multiply;isolation: isolate">
              <g id="Group_7358" data-name="Group 7358">
                <g id="Group_7357" data-name="Group 7357" clip-path="url(#clip-path-3)">
                  <path id="Path_9013" data-name="Path 9013" d="M246.461,198.617h0a7.415,7.415,0,0,0,.275-8.043,7.393,7.393,0,0,1-11.214,3.506l-46.242-32.446-2.787,4,49.617,34.814a7.419,7.419,0,0,0,10.35-1.835" transform="translate(-186.494 -161.634)" fill="#161742"/>
                </g>
              </g>
            </g>
            <g id="Group_7362" data-name="Group 7362" transform="translate(21.973 18.908)" opacity="0.13" style="mix-blend-mode: multiply;isolation: isolate">
              <g id="Group_7361" data-name="Group 7361">
                <g id="Group_7360" data-name="Group 7360" clip-path="url(#clip-path-4)">
                  <path id="Path_9014" data-name="Path 9014" d="M93.238,41.224A33.93,33.93,0,0,1,47.908,91.49a33.932,33.932,0,1,0,45.33-50.266" transform="translate(-47.908 -41.224)" fill="#00aeef"/>
                </g>
              </g>
            </g>
            <path id="Path_9015" data-name="Path 9015" d="M29.88,49.958S36.028,27.265,63.857,27.3" transform="translate(-15.516 -13.251)" fill="none" stroke="#def5fd" stroke-linecap="round" stroke-width="2"/>
          </g>
        </g>
      </g>
    </g>
  </g>
</svg>
