<svg width="24" height="24" viewBox="0 0 24 24" fill="none" xmlns="http://www.w3.org/2000/svg">
<circle cx="12" cy="12" r="12" fill="#5BC4F0" fill-opacity="0.2"/>
<mask id="mask0_351_7544" style="mask-type:alpha" maskUnits="userSpaceOnUse" x="4" y="4" width="17" height="16">
<rect x="4.00049" y="4" width="16" height="16" fill="#D9D9D9"/>
</mask>
<g mask="url(#mask0_351_7544)">
<path d="M10.0007 15.6667H14.0007C14.0955 15.6667 14.1748 15.6348 14.2385 15.5712C14.3022 15.5075 14.334 15.4282 14.334 15.3333C14.334 15.2384 14.3022 15.1592 14.2385 15.0955C14.1748 15.0318 14.0955 15 14.0007 15H10.0007C9.90576 15 9.82648 15.0318 9.76282 15.0955C9.69915 15.1592 9.66732 15.2384 9.66732 15.3333C9.66732 15.4282 9.69915 15.5075 9.76282 15.5712C9.82648 15.6348 9.90576 15.6667 10.0007 15.6667ZM10.0007 13H14.0007C14.0955 13 14.1748 12.9682 14.2385 12.9045C14.3022 12.8408 14.334 12.7616 14.334 12.6667C14.334 12.5718 14.3022 12.4925 14.2385 12.4288C14.1748 12.3652 14.0955 12.3333 14.0007 12.3333H10.0007C9.90576 12.3333 9.82648 12.3652 9.76282 12.4288C9.69915 12.4925 9.66732 12.5718 9.66732 12.6667C9.66732 12.7616 9.69915 12.8408 9.76282 12.9045C9.82648 12.9682 9.90576 13 10.0007 13ZM8.41098 18C8.1041 18 7.84787 17.8972 7.64232 17.6917C7.43676 17.4861 7.33398 17.2299 7.33398 16.923V7.077C7.33398 6.77011 7.43676 6.51389 7.64232 6.30833C7.84787 6.10278 8.1041 6 8.41098 6H13.2198C13.3635 6 13.503 6.02906 13.6385 6.08717C13.7739 6.14528 13.8899 6.22261 13.9865 6.31917L16.3482 8.68083C16.4447 8.77739 16.522 8.89339 16.5802 9.02883C16.6383 9.16428 16.6673 9.30383 16.6673 9.4475V16.923C16.6673 17.2299 16.5645 17.4861 16.359 17.6917C16.1534 17.8972 15.8972 18 15.5903 18H8.41098ZM13.334 8.79483V6.66667H8.41098C8.30832 6.66667 8.21426 6.70939 8.12882 6.79483C8.04337 6.88028 8.00065 6.97433 8.00065 7.077V16.923C8.00065 17.0257 8.04337 17.1197 8.12882 17.2052C8.21426 17.2906 8.30832 17.3333 8.41098 17.3333H15.5903C15.693 17.3333 15.787 17.2906 15.8725 17.2052C15.9579 17.1197 16.0007 17.0257 16.0007 16.923V9.33333H13.8725C13.7177 9.33333 13.5893 9.28228 13.4872 9.18017C13.385 9.07806 13.334 8.94961 13.334 8.79483Z" fill="#1D478E"/>
</g>
</svg>
