<svg id="dollar" xmlns="http://www.w3.org/2000/svg" width="26.76" height="26.214" viewBox="0 0 26.76 26.214">
  <circle id="Ellipse_192" data-name="Ellipse 192" cx="0.319" cy="0.319" r="0.319" transform="translate(0 23.347)" fill="#2d4356"/>
  <path id="Path_6361" data-name="Path 6361" d="M6.8,148.289H6.319a.319.319,0,0,0,0,.637H6.8a.319.319,0,0,0,0-.637Zm23.733,0h-.478a.319.319,0,0,0,0,.637h.478a.319.319,0,0,0,0-.637Z" transform="translate(-5.044 -124.942)" fill="#2d4356"/>
  <circle id="Ellipse_193" data-name="Ellipse 193" cx="0.319" cy="0.319" r="0.319" transform="translate(26.123 23.347)" fill="#2d4356"/>
  <path id="Path_6362" data-name="Path 6362" d="M44.882,54.562H43.559a.32.32,0,0,0,0,.637h1.323a.32.32,0,0,0,0-.637Zm-9.557,0H34a.32.32,0,0,0,0,.637h1.323a.32.32,0,0,0,0-.637Zm7.3,0H36.256a.319.319,0,1,0,0,.637H38.8v.319H37.531a.319.319,0,0,0,0,.637h3.982a.319.319,0,1,0,0-.637H40.089V55.2h2.539a.319.319,0,1,0,0-.637ZM39.442,35.289a8.442,8.442,0,1,0,8.442,8.442A8.442,8.442,0,0,0,39.442,35.289Zm0,16.247a7.8,7.8,0,1,1,7.8-7.8A7.8,7.8,0,0,1,39.442,51.536Z" transform="translate(-26.062 -29.941)" fill="#0bceb2"/>
  <path id="Path_6363" data-name="Path 6363" d="M63.774,52.756c-.6-.2-1.357-.446-1.357-.7,0-.355.639-.383.835-.383a2.039,2.039,0,0,1,1.365.505l.008.008a1.445,1.445,0,0,0,.99.456,1.33,1.33,0,0,0,1.335-1.322,1.379,1.379,0,0,0-.237-.767l-.01-.014A3.6,3.6,0,0,0,64.5,49.213V49a1.238,1.238,0,1,0-2.475,0v.2a2.857,2.857,0,0,0-2.376,2.862c0,2.211,1.868,2.828,3.233,3.279.895.3,1.481.515,1.481.854,0,.206,0,.551-1.106.551a2.3,2.3,0,0,1-1.667-.795,1.388,1.388,0,0,0-1.019-.471,1.331,1.331,0,0,0-1.121,2.035,4.171,4.171,0,0,0,2.575,1.728v.193a1.238,1.238,0,1,0,2.475,0v-.176a3.01,3.01,0,0,0,2.635-3.066C67.13,53.859,65.11,53.195,63.774,52.756Zm.084,5.956v.723a.6.6,0,1,1-1.2,0v-.723a3.7,3.7,0,0,1-2.673-1.537.694.694,0,0,1,.581-1.059.757.757,0,0,1,.568.284,2.961,2.961,0,0,0,2.118.982c1.175,0,1.743-.388,1.743-1.188,0-1.885-4.714-1.02-4.714-4.133a2.321,2.321,0,0,1,2.376-2.325V49a.6.6,0,1,1,1.2,0v.749a3.3,3.3,0,0,1,2.325,1.162.746.746,0,0,1,.129.413.692.692,0,0,1-.7.684.855.855,0,0,1-.555-.284,2.667,2.667,0,0,0-1.808-.684c-1.072,0-1.472.5-1.472,1.02,0,1.692,4.714.9,4.714,4.133C66.493,57.614,65.589,58.543,63.858,58.711Z" transform="translate(-49.807 -40.427)" fill="#2d4356"/>
  <path id="Path_6364" data-name="Path 6364" d="M36.619,25.059H29.543a10.194,10.194,0,1,0-7.1,0H15.363a.321.321,0,1,0,0,.637H36.619a.321.321,0,1,0,0-.637ZM16.434,15.5a9.557,9.557,0,1,1,9.557,9.557A9.557,9.557,0,0,1,16.434,15.5ZM23.491,2.759a.478.478,0,1,0-.478-.478A.478.478,0,0,0,23.491,2.759Zm0-.717a.239.239,0,1,1-.239.239A.239.239,0,0,1,23.491,2.042ZM34.255,6.1a.319.319,0,1,0,.319.319A.319.319,0,0,0,34.255,6.1Zm0,.478a.159.159,0,1,1,.159-.159A.159.159,0,0,1,34.255,6.582Zm0-4.87a.319.319,0,1,0,.319.319.319.319,0,0,0-.319-.319Zm0,.478a.159.159,0,1,1,.159-.159A.159.159,0,0,1,34.255,2.189ZM38.1,10.7a.319.319,0,1,0,.319.319A.319.319,0,0,0,38.1,10.7Zm0,.478a.159.159,0,1,1,.159-.159A.159.159,0,0,1,38.1,11.181ZM17.549,6.263a.319.319,0,1,0-.319.319A.319.319,0,0,0,17.549,6.263Zm-.478,0a.159.159,0,1,1,.159.159A.159.159,0,0,1,17.071,6.263Z" transform="translate(-12.611 -1.711)" fill="#2d4356"/>
  <path id="Path_6365" data-name="Path 6365" d="M8.2,67.209,8.44,66.9l-.15-.085-.152.349h0l-.155-.346-.152.087.234.3v0l-.367-.047v.169l.369-.047v.005l-.237.3.142.09.162-.352h0l.15.349.157-.09-.239-.3v0l.376.045v-.169l-.376.05Z" transform="translate(-6.469 -56.444)" fill="#0bceb2"/>
  <path id="Path_6366" data-name="Path 6366" d="M4.613,5.488l-.136.175.082.052.093-.2h0l.086.2.09-.052-.138-.172v0l.217.026v-.1l-.217.029v0l.136-.179-.086-.049-.088.2h0l-.089-.2-.088.05.135.175v0L4.4,5.414v.1l.212-.027Z" transform="translate(-3.7 -4.655)" fill="#0bceb2"/>
  <path id="Path_6367" data-name="Path 6367" d="M160.144,14.614v-.166l-.369.049v0l.232-.306-.147-.083-.149.342h-.005l-.151-.34-.149.086.23.3v0l-.359-.046v.166l.362-.046v0l-.232.3.139.088.159-.345h0l.147.342.154-.088-.235-.293v0Z" transform="translate(-133.906 -12.129)" fill="#0bceb2"/>
  <path id="Path_6368" data-name="Path 6368" d="M104.487,14.461l.2-.264-.126-.072-.129.3h0l-.131-.293-.129.074.2.257v0l-.31-.04v.143l.312-.04v0l-.2.257.12.076.137-.3h0l.127.3.133-.076-.2-.253v0l.318.038v-.143l-.318.042Z" transform="translate(-87.482 -12.149)" fill="#0bceb2"/>
</svg>
