<svg width="10" height="8" viewBox="0 0 10 8" fill="none" xmlns="http://www.w3.org/2000/svg">
<path opacity="0.6" fill-rule="evenodd" clip-rule="evenodd" d="M0.183063 7.83264C0.427139 8.05579 0.822873 8.05579 1.06695 7.83264L4.81691 4.40406C5.06103 4.18092 5.06103 3.81909 4.81691 3.59595L1.06695 0.167371C0.822873 -0.0557894 0.427139 -0.0557894 0.183063 0.167365C-0.0610199 0.39052 -0.0610199 0.752332 0.183057 0.975487L3.49108 4.00001L0.183057 7.02453C-0.0610199 7.24767 -0.0610199 7.6095 0.183063 7.83264Z" fill="#5BC4F0"/>
<path fill-rule="evenodd" clip-rule="evenodd" d="M5.18305 7.83264C5.42711 8.05579 5.82287 8.05579 6.06693 7.83264L9.8169 4.40406C10.061 4.18092 10.061 3.81909 9.8169 3.59595L6.06693 0.167371C5.82287 -0.0557894 5.42711 -0.0557894 5.18305 0.167365C4.93898 0.39052 4.93898 0.752332 5.18305 0.975487L8.49108 4.00001L5.18305 7.02453C4.93898 7.24767 4.93898 7.6095 5.18305 7.83264Z" fill="#5BC4F0"/>
</svg>
