<svg width="16" height="16" viewBox="0 0 16 16" fill="none" xmlns="http://www.w3.org/2000/svg">
<mask id="mask0_974_419" style="mask-type:alpha" maskUnits="userSpaceOnUse" x="0" y="0" width="16" height="16">
<rect width="16" height="16" fill="#D9D9D9"/>
</mask>
<g mask="url(#mask0_974_419)">
<path d="M8 10.1653C7.92822 10.1653 7.862 10.1535 7.80134 10.1301C7.74067 10.1065 7.68122 10.0657 7.623 10.0076L5.877 8.26142C5.812 8.19653 5.778 8.12003 5.775 8.03192C5.772 7.94392 5.806 7.86314 5.877 7.78959C5.95045 7.71614 6.02967 7.67875 6.11467 7.67742C6.19978 7.6762 6.27906 7.71231 6.3525 7.78575L7.66667 9.09992V3.66659C7.66667 3.5717 7.6985 3.49242 7.76217 3.42875C7.82584 3.36508 7.90511 3.33325 8 3.33325C8.09489 3.33325 8.17417 3.36508 8.23784 3.42875C8.3015 3.49242 8.33334 3.5717 8.33334 3.66659V9.09992L9.6475 7.78575C9.71239 7.72086 9.7895 7.68692 9.87884 7.68392C9.96817 7.68092 10.0496 7.71614 10.123 7.78959C10.194 7.86314 10.2301 7.94181 10.2313 8.02559C10.2327 8.10936 10.1966 8.18797 10.123 8.26142L8.377 10.0076C8.31878 10.0657 8.25934 10.1065 8.19867 10.1301C8.138 10.1535 8.07178 10.1653 8 10.1653ZM4.41034 12.6666C4.10345 12.6666 3.84722 12.5638 3.64167 12.3583C3.43611 12.1527 3.33334 11.8965 3.33334 11.5896V10.3076C3.33334 10.2127 3.36517 10.1334 3.42884 10.0698C3.4925 10.0061 3.57178 9.97425 3.66667 9.97425C3.76156 9.97425 3.84084 10.0061 3.9045 10.0698C3.96817 10.1334 4 10.2127 4 10.3076V11.5896C4 11.6923 4.04272 11.7863 4.12817 11.8718C4.21361 11.9572 4.30767 11.9999 4.41034 11.9999H11.5897C11.6923 11.9999 11.7864 11.9572 11.8718 11.8718C11.9573 11.7863 12 11.6923 12 11.5896V10.3076C12 10.2127 12.0318 10.1334 12.0955 10.0698C12.1592 10.0061 12.2384 9.97425 12.3333 9.97425C12.4282 9.97425 12.5075 10.0061 12.5712 10.0698C12.6348 10.1334 12.6667 10.2127 12.6667 10.3076V11.5896C12.6667 11.8965 12.5639 12.1527 12.3583 12.3583C12.1528 12.5638 11.8966 12.6666 11.5897 12.6666H4.41034Z" fill="#1D478E"/>
</g>
</svg>
