<svg xmlns="http://www.w3.org/2000/svg" width="15" height="14.735" viewBox="0 0 15 14.735">
  <g id="Due_Date" data-name="Due Date" transform="translate(0 -4.289)">
    <g id="_15" data-name="15" transform="translate(0 4.289)">
      <g id="Group_1492" data-name="Group 1492" transform="translate(0 0)">
        <path id="Path_2389" data-name="Path 2389" d="M100.008,8.2h.216a.593.593,0,0,0,.593-.593V5.355a.593.593,0,0,0-.593-.593h-.216a.593.593,0,0,0-.593.593V7.6A.593.593,0,0,0,100.008,8.2Z" transform="translate(-96.341 -4.747)" fill="rgba(111,110,110,0.87)"/>
        <path id="Path_2390" data-name="Path 2390" d="M344.874,7.724h.216a.593.593,0,0,0,.593-.593V4.882a.593.593,0,0,0-.593-.593h-.216a.593.593,0,0,0-.593.593V7.131A.593.593,0,0,0,344.874,7.724Z" transform="translate(-333.637 -4.289)" fill="rgba(111,110,110,0.87)"/>
        <path id="Path_2391" data-name="Path 2391" d="M14.04,43.558H12.525v1.769a.95.95,0,0,1-1.07.916H11.24a1.072,1.072,0,0,1-1.07-1.07V43.558H4.951v1.629a1.072,1.072,0,0,1-1.07,1.07H3.666a1.071,1.071,0,0,1-1.07-1.07V43.558H.96a.961.961,0,0,0-.96.96v11.6a.961.961,0,0,0,.96.96H14.04a.961.961,0,0,0,.96-.96v-11.6A.961.961,0,0,0,14.04,43.558Zm0,12.555H.96V47.357H14.04v8.757Z" transform="translate(0 -42.338)" fill="rgba(111,110,110,0.87)"/>
        <path id="Path_2392" data-name="Path 2392" d="M254.622,206.9h1.731a.124.124,0,0,0,.124-.124v-1.5a.124.124,0,0,0-.124-.124h-1.731a.124.124,0,0,0-.124.124v1.5A.124.124,0,0,0,254.622,206.9Z" transform="translate(-246.631 -198.946)" fill="rgba(111,110,110,0.87)"/>
        <path id="Path_2393" data-name="Path 2393" d="M345.567,206.9H347.3a.124.124,0,0,0,.124-.124v-1.5a.124.124,0,0,0-.124-.124h-1.731a.124.124,0,0,0-.124.124v1.5A.124.124,0,0,0,345.567,206.9Z" transform="translate(-334.765 -198.946)" fill="rgba(111,110,110,0.87)"/>
        <path id="Path_2394" data-name="Path 2394" d="M72.735,285.9h1.731a.124.124,0,0,0,.124-.124v-1.5a.124.124,0,0,0-.124-.124H72.735a.124.124,0,0,0-.124.124v1.5A.124.124,0,0,0,72.735,285.9Z" transform="translate(-70.355 -275.503)" fill="rgba(111,110,110,0.87)"/>
        <path id="Path_2395" data-name="Path 2395" d="M163.679,285.9h1.731a.124.124,0,0,0,.124-.124v-1.5a.124.124,0,0,0-.124-.124h-1.731a.124.124,0,0,0-.124.124v1.5A.124.124,0,0,0,163.679,285.9Z" transform="translate(-158.499 -275.503)" fill="rgba(111,110,110,0.87)"/>
        <path id="Path_2396" data-name="Path 2396" d="M254.623,285.9h1.731a.124.124,0,0,0,.124-.124v-1.5a.124.124,0,0,0-.124-.124h-1.731a.124.124,0,0,0-.124.124v1.5A.124.124,0,0,0,254.623,285.9Z" transform="translate(-246.632 -275.503)" fill="rgba(111,110,110,0.87)"/>
        <path id="Path_2397" data-name="Path 2397" d="M345.567,285.9H347.3a.124.124,0,0,0,.124-.124v-1.5a.124.124,0,0,0-.124-.124h-1.731a.124.124,0,0,0-.124.124v1.5A.124.124,0,0,0,345.567,285.9Z" transform="translate(-334.765 -275.503)" fill="rgba(111,110,110,0.87)"/>
        <path id="Path_2398" data-name="Path 2398" d="M74.467,363.154H72.736a.124.124,0,0,0-.124.124v1.5a.124.124,0,0,0,.124.124h1.731a.124.124,0,0,0,.124-.124v-1.5A.124.124,0,0,0,74.467,363.154Z" transform="translate(-70.356 -352.07)" fill="rgba(111,110,110,0.87)"/>
        <path id="Path_2399" data-name="Path 2399" d="M165.411,363.154H163.68a.124.124,0,0,0-.124.124v1.5a.124.124,0,0,0,.124.124h1.731a.124.124,0,0,0,.124-.124v-1.5A.124.124,0,0,0,165.411,363.154Z" transform="translate(-158.5 -352.07)" fill="rgba(111,110,110,0.87)"/>
        <path id="Path_2400" data-name="Path 2400" d="M256.355,363.154h-1.731a.124.124,0,0,0-.124.124v1.5a.124.124,0,0,0,.124.124h1.731a.124.124,0,0,0,.124-.124v-1.5A.124.124,0,0,0,256.355,363.154Z" transform="translate(-246.633 -352.07)" fill="rgba(111,110,110,0.87)"/>
        <path id="Path_2401" data-name="Path 2401" d="M347.3,363.154h-1.731a.124.124,0,0,0-.124.124v1.5a.124.124,0,0,0,.124.124H347.3a.124.124,0,0,0,.124-.124v-1.5A.124.124,0,0,0,347.3,363.154Z" transform="translate(-334.765 -352.07)" fill="rgba(111,110,110,0.87)"/>
      </g>
    </g>
  </g>
</svg>
