<svg width="195" height="135" viewBox="0 0 195 135" fill="none" xmlns="http://www.w3.org/2000/svg">
<g clip-path="url(#clip0_1_2716)">
<path d="M100.798 118.873L119.217 110.006L100.798 106.23V118.873Z" fill="#FFD325"/>
<path d="M168.705 116.542L149.268 111.387L168.705 106.233V116.542Z" fill="#FFD325"/>
<path d="M116.524 134.962L122.425 125.441L105.045 134.946L116.524 134.962Z" fill="#FFD325"/>
<path d="M145.351 134.838L140.819 127.527L154.165 134.829L145.351 134.838Z" fill="#FFD325"/>
<path d="M156.443 134.838L149.988 124.421L169 134.825L156.443 134.838Z" fill="#FFD325"/>
<path d="M125.176 134.889L126.947 130.128L121.214 134.949L125.176 134.889Z" fill="#FFD325"/>
<path d="M141.123 134.949L135.644 129.537L136.915 134.949H141.123Z" fill="#FFD325"/>
<path d="M133.295 134.949L132.218 130.077L128.507 135L133.295 134.949Z" fill="#FFD325"/>
<path d="M100.795 134.632L118.219 118.873L100.798 121.992L100.795 134.632Z" fill="#FFD325"/>
<path d="M168.848 132.304L151.423 116.542L168.848 119.661V132.304Z" fill="#FFD325"/>
<path d="M155.296 31.4763H57.2366V32.2862H155.296V31.4763Z" fill="#161742"/>
<path d="M163.438 21.2564V31.7463H41.6312V21.2564C41.6312 17.023 45.6625 13.5898 50.6287 13.5898H154.434C159.407 13.5898 163.435 17.023 163.435 21.2564H163.438Z" fill="#1D478E"/>
<path d="M163.676 31.9845H41.3936V21.2564C41.3936 16.8959 45.5358 13.3517 50.6287 13.3517H154.434C159.53 13.3517 163.673 16.8991 163.673 21.2564V31.9845H163.676ZM41.8721 31.5081H163.2V21.2564C163.2 17.1595 159.267 13.8281 154.437 13.8281H50.6287C45.7988 13.8281 41.8689 17.1595 41.8689 21.2564V31.5081H41.8721Z" fill="#161742"/>
<path d="M157.879 113.061C157.698 113.112 157.512 113.147 157.315 113.166C156.817 113.217 156.336 113.322 155.832 113.344C155.226 113.369 154.605 113.302 154.009 113.302C153.784 113.302 153.556 113.302 153.331 113.302H50.6097C45.653 113.302 41.6312 110.12 41.6312 106.201V31.6097H163.165V103.257C163.165 103.921 163.162 104.616 163.115 105.29C163.045 106.338 162.839 107.37 162.513 108.367C162.316 108.961 161.99 109.542 161.67 110.079C161.21 110.854 160.541 111.486 159.812 112.007C159.194 112.451 158.586 112.861 157.876 113.061H157.879Z" fill="#FFF3EB"/>
<path d="M76.0397 24.8865C77.7182 24.8865 79.079 23.4418 79.079 21.6598C79.079 19.8777 77.7182 18.4331 76.0397 18.4331C74.3611 18.4331 73.0004 19.8777 73.0004 21.6598C73.0004 23.4418 74.3611 24.8865 76.0397 24.8865Z" fill="#FFF3EB"/>
<path d="M77.9951 8.95951C77.9951 7.8773 77.1196 7 76.0397 7C74.9597 7 74.0842 7.8773 74.0842 8.95951V21.1104C74.0842 22.1926 74.9597 23.0699 76.0397 23.0699C77.1196 23.0699 77.9951 22.1926 77.9951 21.1104V8.95951Z" fill="#161742"/>
<path d="M60.2759 24.8865C61.9544 24.8865 63.3152 23.4418 63.3152 21.6598C63.3152 19.8777 61.9544 18.4331 60.2759 18.4331C58.5973 18.4331 57.2366 19.8777 57.2366 21.6598C57.2366 23.4418 58.5973 24.8865 60.2759 24.8865Z" fill="#FFF3EB"/>
<path d="M62.2313 8.95951C62.2313 7.8773 61.3558 7 60.2759 7C59.1959 7 58.3204 7.8773 58.3204 8.95951V21.1104C58.3204 22.1926 59.1959 23.0699 60.2759 23.0699C61.3558 23.0699 62.2313 22.1926 62.2313 21.1104V8.95951Z" fill="#161742"/>
<path d="M93.2266 24.8865C94.9051 24.8865 96.2659 23.4418 96.2659 21.6598C96.2659 19.8777 94.9051 18.4331 93.2266 18.4331C91.548 18.4331 90.1873 19.8777 90.1873 21.6598C90.1873 23.4418 91.548 24.8865 93.2266 24.8865Z" fill="#FFF3EB"/>
<path d="M95.182 8.95951C95.182 7.8773 94.3065 7 93.2265 7C92.1466 7 91.2711 7.8773 91.2711 8.95951V21.1104C91.2711 22.1926 92.1466 23.0699 93.2265 23.0699C94.3065 23.0699 95.182 22.1926 95.182 21.1104V8.95951Z" fill="#161742"/>
<path d="M110.417 24.8865C112.095 24.8865 113.456 23.4418 113.456 21.6598C113.456 19.8777 112.095 18.4331 110.417 18.4331C108.738 18.4331 107.377 19.8777 107.377 21.6598C107.377 23.4418 108.738 24.8865 110.417 24.8865Z" fill="#FFF3EB"/>
<path d="M112.372 8.95951C112.372 7.8773 111.496 7 110.416 7C109.337 7 108.461 7.8773 108.461 8.95951V21.1104C108.461 22.1926 109.337 23.0699 110.416 23.0699C111.496 23.0699 112.372 22.1926 112.372 21.1104V8.95951Z" fill="#161742"/>
<path d="M127.603 24.8865C129.282 24.8865 130.643 23.4418 130.643 21.6598C130.643 19.8777 129.282 18.4331 127.603 18.4331C125.925 18.4331 124.564 19.8777 124.564 21.6598C124.564 23.4418 125.925 24.8865 127.603 24.8865Z" fill="#FFF3EB"/>
<path d="M129.562 8.95951C129.562 7.8773 128.686 7 127.606 7C126.526 7 125.651 7.8773 125.651 8.95951V21.1104C125.651 22.1926 126.526 23.0699 127.606 23.0699C128.686 23.0699 129.562 22.1926 129.562 21.1104V8.95951Z" fill="#161742"/>
<path d="M144.793 24.8865C146.472 24.8865 147.833 23.4418 147.833 21.6598C147.833 19.8777 146.472 18.4331 144.793 18.4331C143.115 18.4331 141.754 19.8777 141.754 21.6598C141.754 23.4418 143.115 24.8865 144.793 24.8865Z" fill="#FFF3EB"/>
<path d="M146.749 8.95951C146.749 7.8773 145.873 7 144.793 7C143.713 7 142.838 7.8773 142.838 8.95951V21.1104C142.838 22.1926 143.713 23.0699 144.793 23.0699C145.873 23.0699 146.749 22.1926 146.749 21.1104V8.95951Z" fill="#161742"/>
<path d="M60.2759 45.6693H48.8793V55.0063H60.2759V45.6693Z" fill="white"/>
<path d="M60.2759 60.507H48.8793V69.844H60.2759V60.507Z" fill="white"/>
<path d="M60.2759 75.3414H48.8793V84.6785H60.2759V75.3414Z" fill="white"/>
<path d="M60.2759 90.1759H48.8793V99.5129H60.2759V90.1759Z" fill="white"/>
<path d="M76.2616 45.6693H64.865V55.0063H76.2616V45.6693Z" fill="white"/>
<path d="M76.2616 60.507H64.865V69.844H76.2616V60.507Z" fill="#EE3D4B"/>
<path d="M76.2616 75.3414H64.865V84.6785H76.2616V75.3414Z" fill="white"/>
<path d="M76.2616 90.1759H64.865V99.5129H76.2616V90.1759Z" fill="white"/>
<path d="M92.2472 45.6693H80.8506V55.0063H92.2472V45.6693Z" fill="white"/>
<path d="M92.2472 60.507H80.8506V69.844H92.2472V60.507Z" fill="white"/>
<path d="M92.2472 75.3414H80.8506V84.6785H92.2472V75.3414Z" fill="white"/>
<path d="M92.2472 90.1759H80.8506V99.5129H92.2472V90.1759Z" fill="white"/>
<path d="M108.233 45.6693H96.8363V55.0063H108.233V45.6693Z" fill="white"/>
<path d="M108.233 60.507H96.8363V69.844H108.233V60.507Z" fill="white"/>
<path d="M108.233 75.3414H96.8363V84.6785H108.233V75.3414Z" fill="white"/>
<path d="M108.233 90.1759H96.8363V99.5129H108.233V90.1759Z" fill="white"/>
<path d="M124.219 45.6693H112.822V55.0063H124.219V45.6693Z" fill="white"/>
<path d="M124.219 60.507H112.822V69.844H124.219V60.507Z" fill="white"/>
<path d="M124.219 75.3414H112.822V84.6785H124.219V75.3414Z" fill="white"/>
<path d="M124.219 90.1759H112.822V99.5129H124.219V90.1759Z" fill="white"/>
<path d="M140.204 75.3414H128.808V84.6785H140.204V75.3414Z" fill="#E1D1CB"/>
<path d="M140.204 45.6693H128.808V55.0063H140.204V45.6693Z" fill="#E1D1CB"/>
<path d="M140.204 60.507H128.808V69.844H140.204V60.507Z" fill="#E1D1CB"/>
<path d="M140.204 90.1759H128.808V99.5129H140.204V90.1759Z" fill="#E1D1CB"/>
<path d="M156.19 90.1759H144.793V99.5129H156.19V90.1759Z" fill="#E1D1CB"/>
<path d="M156.19 45.6693H144.793V55.0063H156.19V45.6693Z" fill="#E1D1CB"/>
<path d="M156.19 60.507H144.793V69.844H156.19V60.507Z" fill="#E1D1CB"/>
<path d="M156.19 75.3414H144.793V84.6785H156.19V75.3414Z" fill="#E1D1CB"/>
<path d="M72.3476 62.6697C71.8627 63.1556 71.381 63.6383 70.8961 64.1242C70.1259 64.896 69.3558 65.6677 68.5857 66.4394C68.4114 66.6141 68.2339 66.792 68.0596 66.9666C67.8726 67.154 67.8599 67.497 68.0596 67.6812C68.2592 67.8654 68.573 67.8813 68.7727 67.6812C69.2576 67.1953 69.7393 66.7126 70.2242 66.2266C70.9943 65.4549 71.7644 64.6832 72.5346 63.9114C72.7089 63.7368 72.8863 63.5589 73.0607 63.3842C73.2476 63.1969 73.2603 62.8539 73.0607 62.6697C72.8578 62.4855 72.5472 62.4696 72.3476 62.6697Z" fill="#FFF3EB"/>
<path d="M68.0849 63.4097C68.5635 63.8893 69.042 64.3688 69.5206 64.8484C70.2812 65.6106 71.0386 66.3696 71.7993 67.1318C71.9736 67.3065 72.1479 67.4812 72.3254 67.659C72.5123 67.8464 72.8546 67.8591 73.0384 67.659C73.2223 67.4589 73.2381 67.1445 73.0384 66.9444C72.5599 66.4649 72.0813 65.9853 71.6028 65.5058C70.8421 64.7436 70.0847 63.9845 69.3241 63.2223C69.1498 63.0477 68.9755 62.873 68.798 62.6951C68.611 62.5078 68.2687 62.4951 68.0849 62.6951C67.9011 62.8952 67.8852 63.2096 68.0849 63.4097Z" fill="#FFF3EB"/>
<path d="M54.8279 36.3132H5.00739C2.37314 36.3132 0.237671 38.4532 0.237671 41.0929V68.9262C0.237671 71.5659 2.37314 73.7058 5.00739 73.7058H54.8279C57.4622 73.7058 59.5976 71.5659 59.5976 68.9262V41.0929C59.5976 38.4532 57.4622 36.3132 54.8279 36.3132Z" fill="#2C7AFA"/>
<path d="M54.8279 36.3132H5.00739C2.37314 36.3132 0.237671 38.4532 0.237671 41.0929V68.9262C0.237671 71.5659 2.37314 73.7058 5.00739 73.7058H54.8279C57.4622 73.7058 59.5976 71.5659 59.5976 68.9262V41.0929C59.5976 38.4532 57.4622 36.3132 54.8279 36.3132Z" fill="#32B353"/>
<path d="M54.8248 73.9409H5.00741C2.24699 73.9409 0 71.6892 0 68.923V41.0929C0 38.3268 2.24699 36.0751 5.00741 36.0751H54.8248C57.5852 36.0751 59.8322 38.3268 59.8322 41.0929V68.923C59.8322 71.6892 57.5852 73.9409 54.8248 73.9409ZM5.00741 36.5483C2.50687 36.5483 0.475387 38.5872 0.475387 41.0898V68.9198C0.475387 71.4256 2.51004 73.4613 5.00741 73.4613H54.8248C57.3253 73.4613 59.3568 71.4224 59.3568 68.9198V41.0898C59.3568 38.584 57.3221 36.5483 54.8248 36.5483H5.00741Z" fill="#161742"/>
<path d="M15.767 49.3312H8.05941C6.9252 49.3312 6.00574 50.2526 6.00574 51.3891V55.9402C6.00574 57.0767 6.9252 57.9981 8.05941 57.9981H15.767C16.9012 57.9981 17.8207 57.0767 17.8207 55.9402V51.3891C17.8207 50.2526 16.9012 49.3312 15.767 49.3312Z" fill="#2C7AFA"/>
<path d="M17.8207 49.3312H6.00574V57.9981H17.8207V49.3312Z" fill="#7BB856"/>
<path d="M55.7344 39.2478H43.9194V43.5797H55.7344V39.2478Z" fill="#7BB856"/>
<path d="M22.8218 40.6897H6.95017C6.42858 40.6897 6.00574 41.1134 6.00574 41.6361C6.00574 42.1588 6.42858 42.5825 6.95017 42.5825H22.8218C23.3434 42.5825 23.7662 42.1588 23.7662 41.6361C23.7662 41.1134 23.3434 40.6897 22.8218 40.6897Z" fill="#2C7AFA"/>
<path d="M23.7662 40.6897H6.00574V42.5825H23.7662V40.6897Z" fill="#7BB856"/>
<path d="M15.9128 66.3697H6.00574V62.2982H15.9128V66.3697Z" fill="#7BB856"/>
<path d="M28.5517 62.2982H18.6447V66.3697H28.5517V62.2982Z" fill="#7BB856"/>
<path d="M41.1115 62.2982H31.3629C31.3192 62.2982 31.2837 62.3338 31.2837 62.3776V66.2903C31.2837 66.3341 31.3192 66.3697 31.3629 66.3697H41.1115C41.1553 66.3697 41.1908 66.3341 41.1908 66.2903V62.3776C41.1908 62.3338 41.1553 62.2982 41.1115 62.2982Z" fill="#7BB856"/>
<path d="M53.8265 62.2982H43.9194V66.3697H53.8265V62.2982Z" fill="#7BB856"/>
<path d="M163.165 31.6733C163.165 41.7535 163.165 51.8337 163.165 61.9139V92.2974C163.165 94.8349 163.121 97.3724 163.146 99.9099C163.172 102.298 163.508 104.798 162.947 107.148C162.516 108.948 161.514 110.657 159.98 111.73C159.137 112.318 158.167 112.702 157.147 112.826C155.974 112.972 154.786 112.906 153.607 112.893C148.546 112.842 143.478 112.893 138.417 112.893H89.2998C88.9733 112.893 88.9733 113.401 89.2998 113.401H150.701C151.981 113.401 153.258 113.395 154.535 113.42C155.692 113.442 156.893 113.465 158.022 113.182C159.758 112.747 161.226 111.61 162.211 110.127C163.365 108.386 163.736 106.338 163.748 104.28C163.758 103.092 163.685 101.908 163.663 100.723C163.638 99.4272 163.641 98.1314 163.65 96.8357C163.714 86.5903 163.669 76.3418 163.669 66.0965C163.669 55.8512 163.669 45.5804 163.669 35.3224V31.6765C163.669 31.3494 163.162 31.3494 163.162 31.6765L163.165 31.6733Z" fill="#161742"/>
<path d="M152.567 120.829H118.492V123.659H152.567V120.829Z" fill="#E4AD43"/>
<path d="M135.53 129.207C126.12 129.207 118.492 126.724 118.492 123.659C118.492 120.594 126.12 118.521 135.53 118.521C144.939 118.521 152.567 120.594 152.567 123.659C152.567 126.724 144.939 129.207 135.53 129.207Z" fill="#AF8E2F"/>
<path d="M135.53 126.578C126.12 126.578 118.492 124.097 118.492 121.036C118.492 117.974 126.12 115.494 135.53 115.494C144.939 115.494 152.567 117.974 152.567 121.036C152.567 124.097 144.939 126.578 135.53 126.578Z" fill="#C29A43"/>
<path d="M127.385 119.565C129.001 120.035 130.655 120.559 132.354 120.858C138.417 121.928 145.101 120.912 149.756 117.984C146.707 116.482 141.475 115.491 135.53 115.491C129.834 115.491 124.799 116.399 121.702 117.796C123.572 118.425 125.47 119.01 127.381 119.565H127.385Z" fill="#D7AE4D"/>
<path d="M135.53 125.183C128.472 125.183 122.751 123.386 122.751 121.169C122.751 118.952 128.472 117.155 135.53 117.155C142.588 117.155 148.308 118.952 148.308 121.169C148.308 123.386 142.588 125.183 135.53 125.183Z" fill="#AF8E2F"/>
<path d="M130.053 118.889V120.27C130.573 120.02 131.318 119.823 132.357 119.746V118.781L133.485 118.727V119.708C135.79 119.75 137.257 120.518 137.349 121.785C139.177 121.023 141.481 120.118 143.808 119.143V120.226C141.684 121.09 139.719 121.839 137.46 122.722L136.059 122.662V122.131C136.059 121.09 135.042 120.537 133.485 120.48V122.554L132.357 122.506V120.515C131.048 120.642 130.392 121.09 130.392 121.827V122.427L128.925 122.366V118.943L130.053 118.889Z" fill="#DEA041"/>
<path d="M129.765 119.019V120.391C130.284 120.143 131.029 119.95 132.069 119.877V118.918L133.197 118.867V119.842C135.501 119.889 136.968 120.655 137.06 121.916C138.889 121.163 141.193 120.27 143.519 119.308V120.385C141.396 121.239 139.431 121.976 137.171 122.846L135.77 122.783V122.255C135.77 121.22 134.753 120.667 133.197 120.607V122.665L132.069 122.614V120.636C130.76 120.76 130.104 121.201 130.104 121.931V122.525L128.636 122.459V119.064L129.765 119.013V119.019Z" fill="#FFD325"/>
<path d="M149.718 115.002H115.643V117.834H149.718V115.002Z" fill="#E4AD43"/>
<path d="M132.677 123.392C123.268 123.392 115.639 120.906 115.639 117.834C115.639 114.767 123.268 112.69 132.677 112.69C142.087 112.69 149.715 114.767 149.715 117.834C149.715 120.902 142.087 123.392 132.677 123.392Z" fill="#AF8E2F"/>
<path d="M132.677 120.759C123.268 120.759 115.639 118.273 115.639 115.208C115.639 112.143 123.268 109.657 132.677 109.657C142.087 109.657 149.715 112.143 149.715 115.208C149.715 118.273 142.087 120.759 132.677 120.759Z" fill="#C29A43"/>
<path d="M124.532 113.738C126.149 114.208 127.803 114.732 129.502 115.033C135.564 116.104 142.248 115.087 146.904 112.156C143.855 110.651 138.623 109.657 132.677 109.657C126.982 109.657 121.946 110.568 118.85 111.965C120.72 112.597 122.618 113.182 124.529 113.738H124.532Z" fill="#D7AE4D"/>
<path d="M132.677 119.362C125.619 119.362 119.899 117.561 119.899 115.345C119.899 113.125 125.619 111.324 132.677 111.324C139.735 111.324 145.456 113.125 145.456 115.345C145.456 117.565 139.735 119.362 132.677 119.362Z" fill="#AF8E2F"/>
<path d="M127.201 113.058V114.439C127.721 114.189 128.465 113.992 129.505 113.915V112.95L130.633 112.896V113.881C132.937 113.922 134.405 114.69 134.496 115.961C136.325 115.198 138.629 114.293 140.955 113.315V114.398C138.832 115.265 136.867 116.012 134.607 116.898L133.207 116.837V116.307C133.207 115.265 132.189 114.709 130.633 114.652V116.729L129.505 116.682V114.687C128.196 114.814 127.54 115.265 127.54 115.999V116.599L126.073 116.539V113.112L127.201 113.058Z" fill="#DEA041"/>
<path d="M126.916 113.188V114.56C127.435 114.312 128.18 114.119 129.22 114.046V113.087L130.348 113.036V114.014C132.652 114.062 134.119 114.83 134.211 116.091C136.04 115.338 138.344 114.446 140.67 113.48V114.557C138.547 115.411 136.582 116.151 134.322 117.021L132.921 116.958V116.431C132.921 115.395 131.904 114.84 130.348 114.779V116.84L129.22 116.79V114.808C127.911 114.932 127.255 115.376 127.255 116.104V116.701L125.787 116.634V113.233L126.916 113.182V113.188Z" fill="#FFD325"/>
<path d="M151.734 107.977H117.658V111.467H151.734V107.977Z" fill="#E4AD43"/>
<path d="M134.696 118.317C125.287 118.317 117.658 115.249 117.658 111.47C117.658 107.688 125.287 105.128 134.696 105.128C144.106 105.128 151.734 107.688 151.734 111.47C151.734 115.253 144.106 118.317 134.696 118.317Z" fill="#AF8E2F"/>
<path d="M134.696 115.071C125.287 115.071 117.658 112.01 117.658 108.231C117.658 104.451 125.287 101.39 134.696 101.39C144.106 101.39 151.734 104.451 151.734 108.231C151.734 112.01 144.106 115.071 134.696 115.071Z" fill="#C29A43"/>
<path d="M126.551 106.417C128.167 106.995 129.822 107.643 131.52 108.012C137.583 109.33 144.267 108.078 148.923 104.464C145.874 102.609 140.642 101.387 134.696 101.387C129.001 101.387 123.965 102.511 120.869 104.232C122.739 105.01 124.637 105.731 126.548 106.417H126.551Z" fill="#D7AE4D"/>
<path d="M134.696 113.35C127.638 113.35 121.918 111.133 121.918 108.396C121.918 105.661 127.638 103.442 134.696 103.442C141.754 103.442 147.475 105.658 147.475 108.396C147.475 111.13 141.754 113.35 134.696 113.35Z" fill="#AF8E2F"/>
<path d="M129.22 105.582V107.287C129.739 106.976 130.484 106.735 131.524 106.64V105.449L132.652 105.382V106.595C134.956 106.646 136.423 107.592 136.515 109.158C138.344 108.218 140.648 107.103 142.974 105.896V107.233C140.851 108.301 138.886 109.222 136.626 110.314L135.225 110.241V109.587C135.225 108.304 134.208 107.618 132.652 107.548V110.108L131.524 110.05V107.592C130.215 107.751 129.559 108.304 129.559 109.209V109.949L128.091 109.873V105.649L129.22 105.582Z" fill="#DEA041"/>
<path d="M128.931 105.741V107.434C129.451 107.126 130.196 106.891 131.235 106.798V105.617L132.364 105.557V106.76C134.668 106.817 136.135 107.767 136.227 109.32C138.055 108.393 140.36 107.291 142.686 106.103V107.43C140.562 108.485 138.597 109.393 136.338 110.47L134.937 110.393V109.742C134.937 108.466 133.92 107.783 132.364 107.707V110.247L131.235 110.184V107.742C129.926 107.894 129.27 108.44 129.27 109.339V110.073L127.803 109.99V105.798L128.931 105.738V105.741Z" fill="#FFD325"/>
<g clip-path="url(#clip1_1_2716)">
<path d="M167.5 60C177.165 60 185 52.165 185 42.5C185 32.835 177.165 25 167.5 25C157.835 25 150 32.835 150 42.5C150 52.165 157.835 60 167.5 60Z" fill="#EE3D4B"/>
<path d="M165.89 31.5725C165.89 33.2666 165.89 34.9652 165.89 36.6593V44.7352C165.89 45.3561 165.89 45.977 165.89 46.5934C165.89 47.2542 166.471 47.8884 167.154 47.8574C167.837 47.8263 168.418 47.2986 168.418 46.5934C168.418 44.8993 168.418 43.2008 168.418 41.5066C168.418 38.8147 168.418 36.1227 168.418 33.4307C168.418 32.8099 168.418 32.189 168.418 31.5725C168.418 30.9117 167.837 30.2775 167.154 30.3086C166.471 30.3396 165.89 30.8674 165.89 31.5725Z" fill="#FFF3EB" stroke="#FFF3EB" stroke-miterlimit="10"/>
<path d="M167.096 53.973C168.061 53.973 168.844 53.1906 168.844 52.2256C168.844 51.2606 168.061 50.4783 167.096 50.4783C166.131 50.4783 165.349 51.2606 165.349 52.2256C165.349 53.1906 166.131 53.973 167.096 53.973Z" fill="#FFF3EB" stroke="#FFF3EB" stroke-miterlimit="10"/>
</g>
</g>
<defs>
<clipPath id="clip0_1_2716">
<rect width="195" height="135" fill="white"/>
</clipPath>
<clipPath id="clip1_1_2716">
<rect width="35" height="35" fill="white" transform="translate(150 25)"/>
</clipPath>
</defs>
</svg>
