<svg width="289" height="360" viewBox="0 0 289 360" fill="none" xmlns="http://www.w3.org/2000/svg">
<g clip-path="url(#clip0_906_20211)">
<path opacity="0.3" d="M144 362.796C215.797 362.796 274 358.412 274 353.004C274 347.595 215.797 343.211 144 343.211C72.203 343.211 14 347.595 14 353.004C14 358.412 72.203 362.796 144 362.796Z" fill="#5BC4F0"/>
<g opacity="0.88">
<g opacity="0.54">
<path d="M222.76 60.4797C223.099 60.4797 223.375 60.2035 223.375 59.8629C223.375 59.5222 223.099 59.2461 222.76 59.2461C222.42 59.2461 222.145 59.5222 222.145 59.8629C222.145 60.2035 222.42 60.4797 222.76 60.4797Z" fill="#161742"/>
<path d="M205.471 88.1667C205.771 88.1667 206.015 87.9221 206.015 87.6205C206.015 87.3188 205.771 87.0742 205.471 87.0742C205.17 87.0742 204.926 87.3188 204.926 87.6205C204.926 87.9221 205.17 88.1667 205.471 88.1667Z" fill="#161742"/>
<path d="M234.652 78.3046C234.994 78.3046 235.272 78.0261 235.272 77.6826C235.272 77.339 234.994 77.0605 234.652 77.0605C234.309 77.0605 234.031 77.339 234.031 77.6826C234.031 78.0261 234.309 78.3046 234.652 78.3046Z" fill="#161742"/>
<path d="M221.144 84.7125C221.465 84.7125 221.725 84.4516 221.725 84.1297C221.725 83.8078 221.465 83.5469 221.144 83.5469C220.823 83.5469 220.562 83.8078 220.562 84.1297C220.562 84.4516 220.823 84.7125 221.144 84.7125Z" fill="#161742"/>
<path d="M206.218 62.1395C206.63 62.1395 206.964 61.8048 206.964 61.392C206.964 60.9792 206.63 60.6445 206.218 60.6445C205.806 60.6445 205.473 60.9792 205.473 61.392C205.473 61.8048 205.806 62.1395 206.218 62.1395Z" fill="#161742"/>
<path d="M211.498 36.0482C211.846 36.0482 212.129 35.765 212.129 35.4157C212.129 35.0664 211.846 34.7832 211.498 34.7832C211.15 34.7832 210.867 35.0664 210.867 35.4157C210.867 35.765 211.15 36.0482 211.498 36.0482Z" fill="#161742"/>
<path d="M203.433 46.5376C203.667 46.5376 203.858 46.3468 203.858 46.1116C203.858 45.8763 203.667 45.6855 203.433 45.6855C203.198 45.6855 203.008 45.8763 203.008 46.1116C203.008 46.3468 203.198 46.5376 203.433 46.5376Z" fill="#161742"/>
<path d="M212.217 84.7148C212.613 84.7148 212.934 84.393 212.934 83.9961C212.934 83.5991 212.613 83.2773 212.217 83.2773C211.821 83.2773 211.5 83.5991 211.5 83.9961C211.5 84.393 211.821 84.7148 212.217 84.7148Z" fill="#161742"/>
<path d="M201.179 77.7324C201.526 77.7324 201.807 77.4504 201.807 77.1025C201.807 76.7547 201.526 76.4727 201.179 76.4727C200.832 76.4727 200.551 76.7547 200.551 77.1025C200.551 77.4504 200.832 77.7324 201.179 77.7324Z" fill="#161742"/>
</g>
<g opacity="0.54">
<path d="M32.2276 188.063C32.8495 188.063 33.3536 187.557 33.3536 186.934C33.3536 186.31 32.8495 185.805 32.2276 185.805C31.6057 185.805 31.1016 186.31 31.1016 186.934C31.1016 187.557 31.6057 188.063 32.2276 188.063Z" fill="#161742"/>
<path d="M59.7678 98.5663C60.3062 98.5663 60.7427 98.1286 60.7427 97.5888C60.7427 97.049 60.3062 96.6113 59.7678 96.6113C59.2294 96.6113 58.793 97.049 58.793 97.5888C58.793 98.1286 59.2294 98.5663 59.7678 98.5663Z" fill="#161742"/>
<path d="M33.8668 96.3426C34.4253 96.3426 34.8781 95.8886 34.8781 95.3285C34.8781 94.7685 34.4253 94.3145 33.8668 94.3145C33.3083 94.3145 32.8555 94.7685 32.8555 95.3285C32.8555 95.8886 33.3083 96.3426 33.8668 96.3426Z" fill="#161742"/>
<path d="M236.384 19.7015C237.006 19.7015 237.51 19.196 237.51 18.5724C237.51 17.9489 237.006 17.4434 236.384 17.4434C235.762 17.4434 235.258 17.9489 235.258 18.5724C235.258 19.196 235.762 19.7015 236.384 19.7015Z" fill="#161742"/>
<path d="M256.221 197.084C256.617 197.084 256.937 196.762 256.937 196.365C256.937 195.968 256.617 195.646 256.221 195.646C255.825 195.646 255.504 195.968 255.504 196.365C255.504 196.762 255.825 197.084 256.221 197.084Z" fill="#161742"/>
<path d="M32.8547 73.1562C33.2017 73.1562 33.4829 72.8742 33.4829 72.5264C33.4829 72.1785 33.2017 71.8965 32.8547 71.8965C32.5078 71.8965 32.2266 72.1785 32.2266 72.5264C32.2266 72.8742 32.5078 73.1562 32.8547 73.1562Z" fill="#161742"/>
</g>
<g opacity="0.54">
<path d="M64.9815 84.9554C65.6034 84.9554 66.1075 84.4499 66.1075 83.8263C66.1075 83.2028 65.6034 82.6973 64.9815 82.6973C64.3596 82.6973 63.8555 83.2028 63.8555 83.8263C63.8555 84.4499 64.3596 84.9554 64.9815 84.9554Z" fill="#161742"/>
<path d="M84.4159 89.8508C84.7557 89.8508 85.0311 89.5746 85.0311 89.234C85.0311 88.8933 84.7557 88.6172 84.4159 88.6172C84.0762 88.6172 83.8008 88.8933 83.8008 89.234C83.8008 89.5746 84.0762 89.8508 84.4159 89.8508Z" fill="#161742"/>
<path d="M79.6467 95.6717C80.1851 95.6717 80.6216 95.2341 80.6216 94.6943C80.6216 94.1544 80.1851 93.7168 79.6467 93.7168C79.1083 93.7168 78.6719 94.1544 78.6719 94.6943C78.6719 95.2341 79.1083 95.6717 79.6467 95.6717Z" fill="#161742"/>
<path d="M86.39 123.339C86.7887 123.339 87.112 123.014 87.112 122.615C87.112 122.215 86.7887 121.891 86.39 121.891C85.9912 121.891 85.668 122.215 85.668 122.615C85.668 123.014 85.9912 123.339 86.39 123.339Z" fill="#161742"/>
<path d="M76.951 108.665C77.2519 108.665 77.4958 108.42 77.4958 108.118C77.4958 107.817 77.2519 107.572 76.951 107.572C76.6501 107.572 76.4062 107.817 76.4062 108.118C76.4062 108.42 76.6501 108.665 76.951 108.665Z" fill="#161742"/>
<path d="M66.0969 95.9821C66.4179 95.9821 66.6781 95.7211 66.6781 95.3992C66.6781 95.0773 66.4179 94.8164 66.0969 94.8164C65.7759 94.8164 65.5156 95.0773 65.5156 95.3992C65.5156 95.7211 65.7759 95.9821 66.0969 95.9821Z" fill="#161742"/>
<path d="M76.1166 75.5535C76.5283 75.5535 76.862 75.2189 76.862 74.8061C76.862 74.3933 76.5283 74.0586 76.1166 74.0586C75.7049 74.0586 75.3711 74.3933 75.3711 74.8061C75.3711 75.2189 75.7049 75.5535 76.1166 75.5535Z" fill="#161742"/>
<path d="M84.6649 80.8131C85.1572 80.8131 85.5563 80.4129 85.5563 79.9192C85.5563 79.4256 85.1572 79.0254 84.6649 79.0254C84.1725 79.0254 83.7734 79.4256 83.7734 79.9192C83.7734 80.4129 84.1725 80.8131 84.6649 80.8131Z" fill="#161742"/>
<path d="M72.4562 106.405C72.721 106.405 72.9358 106.19 72.9358 105.924C72.9358 105.659 72.721 105.443 72.4562 105.443C72.1913 105.443 71.9766 105.659 71.9766 105.924C71.9766 106.19 72.1913 106.405 72.4562 106.405Z" fill="#161742"/>
<path d="M101.857 69.3939C102.206 69.3939 102.488 69.1107 102.488 68.7614C102.488 68.4121 102.206 68.1289 101.857 68.1289C101.509 68.1289 101.227 68.4121 101.227 68.7614C101.227 69.1107 101.509 69.3939 101.857 69.3939Z" fill="#161742"/>
<path d="M105.581 83.7607C105.85 83.7607 106.069 83.5419 106.069 83.2719C106.069 83.002 105.85 82.7832 105.581 82.7832C105.312 82.7832 105.094 83.002 105.094 83.2719C105.094 83.5419 105.312 83.7607 105.581 83.7607Z" fill="#161742"/>
<path d="M100.296 92.8141C100.764 92.8141 101.143 92.4338 101.143 91.9646C101.143 91.4955 100.764 91.1152 100.296 91.1152C99.8285 91.1152 99.4492 91.4955 99.4492 91.9646C99.4492 92.4338 99.8285 92.8141 100.296 92.8141Z" fill="#161742"/>
<path d="M88.7999 66.311C89.0345 66.311 89.2247 66.1203 89.2247 65.885C89.2247 65.6497 89.0345 65.459 88.7999 65.459C88.5652 65.459 88.375 65.6497 88.375 65.885C88.375 66.1203 88.5652 66.311 88.7999 66.311Z" fill="#161742"/>
<path d="M83.0566 113.465C83.4525 113.465 83.7734 113.143 83.7734 112.746C83.7734 112.349 83.4525 112.027 83.0566 112.027C82.6608 112.027 82.3398 112.349 82.3398 112.746C82.3398 113.143 82.6608 113.465 83.0566 113.465Z" fill="#161742"/>
<path d="M59.7766 77.4101C60.1235 77.4101 60.4048 77.1281 60.4048 76.7803C60.4048 76.4324 60.1235 76.1504 59.7766 76.1504C59.4297 76.1504 59.1484 76.4324 59.1484 76.7803C59.1484 77.1281 59.4297 77.4101 59.7766 77.4101Z" fill="#161742"/>
</g>
<g opacity="0.54">
<path d="M191.662 129.179C192.002 129.179 192.277 128.903 192.277 128.562C192.277 128.221 192.002 127.945 191.662 127.945C191.322 127.945 191.047 128.221 191.047 128.562C191.047 128.903 191.322 129.179 191.662 129.179Z" fill="#161742"/>
<path d="M214.679 119.489C215.078 119.489 215.401 119.165 215.401 118.765C215.401 118.365 215.078 118.041 214.679 118.041C214.28 118.041 213.957 118.365 213.957 118.765C213.957 119.165 214.28 119.489 214.679 119.489Z" fill="#161742"/>
<path d="M174.377 156.862C174.678 156.862 174.922 156.617 174.922 156.316C174.922 156.014 174.678 155.77 174.377 155.77C174.076 155.77 173.832 156.014 173.832 156.316C173.832 156.617 174.076 156.862 174.377 156.862Z" fill="#161742"/>
<path d="M191.663 142.305C192.006 142.305 192.284 142.026 192.284 141.683C192.284 141.339 192.006 141.061 191.663 141.061C191.321 141.061 191.043 141.339 191.043 141.683C191.043 142.026 191.321 142.305 191.663 142.305Z" fill="#161742"/>
<path d="M190.05 153.412C190.371 153.412 190.631 153.151 190.631 152.829C190.631 152.507 190.371 152.246 190.05 152.246C189.729 152.246 189.469 152.507 189.469 152.829C189.469 153.151 189.729 153.412 190.05 153.412Z" fill="#161742"/>
<path d="M175.12 130.835C175.532 130.835 175.866 130.5 175.866 130.087C175.866 129.675 175.532 129.34 175.12 129.34C174.709 129.34 174.375 129.675 174.375 130.087C174.375 130.5 174.709 130.835 175.12 130.835Z" fill="#161742"/>
<path d="M205.601 135.182C205.866 135.182 206.08 134.967 206.08 134.702C206.08 134.436 205.866 134.221 205.601 134.221C205.336 134.221 205.121 134.436 205.121 134.702C205.121 134.967 205.336 135.182 205.601 135.182Z" fill="#161742"/>
<path d="M180.404 104.747C180.753 104.747 181.035 104.464 181.035 104.115C181.035 103.766 180.753 103.482 180.404 103.482C180.056 103.482 179.773 103.766 179.773 104.115C179.773 104.464 180.056 104.747 180.404 104.747Z" fill="#161742"/>
<path d="M195.105 107.276C195.374 107.276 195.592 107.057 195.592 106.788C195.592 106.518 195.374 106.299 195.105 106.299C194.835 106.299 194.617 106.518 194.617 106.788C194.617 107.057 194.835 107.276 195.105 107.276Z" fill="#161742"/>
<path d="M207.246 104.964C207.713 104.964 208.093 104.584 208.093 104.115C208.093 103.646 207.713 103.266 207.246 103.266C206.778 103.266 206.398 103.646 206.398 104.115C206.398 104.584 206.778 104.964 207.246 104.964Z" fill="#161742"/>
<path d="M172.343 115.237C172.577 115.237 172.768 115.046 172.768 114.811C172.768 114.575 172.577 114.385 172.343 114.385C172.108 114.385 171.918 114.575 171.918 114.811C171.918 115.046 172.108 115.237 172.343 115.237Z" fill="#161742"/>
<path d="M198.081 150.151C198.493 150.151 198.827 149.817 198.827 149.404C198.827 148.991 198.493 148.656 198.081 148.656C197.67 148.656 197.336 148.991 197.336 149.404C197.336 149.817 197.67 150.151 198.081 150.151Z" fill="#161742"/>
<path d="M181.123 153.41C181.519 153.41 181.84 153.088 181.84 152.691C181.84 152.294 181.519 151.973 181.123 151.973C180.727 151.973 180.406 152.294 180.406 152.691C180.406 153.088 180.727 153.41 181.123 153.41Z" fill="#161742"/>
<path d="M170.085 146.428C170.432 146.428 170.713 146.146 170.713 145.798C170.713 145.45 170.432 145.168 170.085 145.168C169.738 145.168 169.457 145.45 169.457 145.798C169.457 146.146 169.738 146.428 170.085 146.428Z" fill="#161742"/>
</g>
<g opacity="0.54">
<path d="M73.4472 148.058C73.7869 148.058 74.0623 147.782 74.0623 147.441C74.0623 147.1 73.7869 146.824 73.4472 146.824C73.1074 146.824 72.832 147.1 72.832 147.441C72.832 147.782 73.1074 148.058 73.4472 148.058Z" fill="#161742"/>
<path d="M44.1893 185.477C44.4902 185.477 44.7341 185.233 44.7341 184.931C44.7341 184.629 44.4902 184.385 44.1893 184.385C43.8884 184.385 43.6445 184.629 43.6445 184.931C43.6445 185.233 43.8884 185.477 44.1893 185.477Z" fill="#161742"/>
<path d="M73.4446 161.184C73.7872 161.184 74.0649 160.905 74.0649 160.561C74.0649 160.218 73.7872 159.939 73.4446 159.939C73.102 159.939 72.8242 160.218 72.8242 160.561C72.8242 160.905 73.102 161.184 73.4446 161.184Z" fill="#161742"/>
<path d="M71.8313 172.291C72.1523 172.291 72.4125 172.03 72.4125 171.708C72.4125 171.386 72.1523 171.125 71.8313 171.125C71.5102 171.125 71.25 171.386 71.25 171.708C71.25 172.03 71.5102 172.291 71.8313 172.291Z" fill="#161742"/>
<path d="M39.4994 163.19C39.9111 163.19 40.2448 162.856 40.2448 162.443C40.2448 162.03 39.9111 161.695 39.4994 161.695C39.0877 161.695 38.7539 162.03 38.7539 162.443C38.7539 162.856 39.0877 163.19 39.4994 163.19Z" fill="#161742"/>
<path d="M87.3859 154.061C87.6507 154.061 87.8655 153.846 87.8655 153.581C87.8655 153.315 87.6507 153.1 87.3859 153.1C87.121 153.1 86.9062 153.315 86.9062 153.581C86.9062 153.846 87.121 154.061 87.3859 154.061Z" fill="#161742"/>
<path d="M62.1855 123.626C62.5338 123.626 62.8162 123.343 62.8162 122.994C62.8162 122.644 62.5338 122.361 62.1855 122.361C61.8371 122.361 61.5547 122.644 61.5547 122.994C61.5547 123.343 61.8371 123.626 62.1855 123.626Z" fill="#161742"/>
<path d="M76.8898 126.157C77.159 126.157 77.3772 125.938 77.3772 125.668C77.3772 125.399 77.159 125.18 76.8898 125.18C76.6206 125.18 76.4023 125.399 76.4023 125.668C76.4023 125.938 76.6206 126.157 76.8898 126.157Z" fill="#161742"/>
<path d="M32.1671 208.528C32.4017 208.528 32.5919 208.337 32.5919 208.102C32.5919 207.867 32.4017 207.676 32.1671 207.676C31.9324 207.676 31.7422 207.867 31.7422 208.102C31.7422 208.337 31.9324 208.528 32.1671 208.528Z" fill="#161742"/>
<path d="M79.8627 169.03C80.2744 169.03 80.6081 168.695 80.6081 168.283C80.6081 167.87 80.2744 167.535 79.8627 167.535C79.4509 167.535 79.1172 167.87 79.1172 168.283C79.1172 168.695 79.4509 169.03 79.8627 169.03Z" fill="#161742"/>
<path d="M33.3691 180.699C33.765 180.699 34.0859 180.377 34.0859 179.98C34.0859 179.584 33.765 179.262 33.3691 179.262C32.9733 179.262 32.6523 179.584 32.6523 179.98C32.6523 180.377 32.9733 180.699 33.3691 180.699Z" fill="#161742"/>
<path d="M14.6165 186.107C14.9634 186.107 15.2446 185.825 15.2446 185.478C15.2446 185.13 14.9634 184.848 14.6165 184.848C14.2695 184.848 13.9883 185.13 13.9883 185.478C13.9883 185.825 14.2695 186.107 14.6165 186.107Z" fill="#161742"/>
</g>
<g opacity="0.54">
<path d="M102.685 32.3274C103.025 32.3274 103.301 32.0512 103.301 31.7106C103.301 31.3699 103.025 31.0938 102.685 31.0938C102.346 31.0938 102.07 31.3699 102.07 31.7106C102.07 32.0512 102.346 32.3274 102.685 32.3274Z" fill="#161742"/>
<path d="M89.5306 43.7663C89.9294 43.7663 90.2526 43.4421 90.2526 43.0423C90.2526 42.6425 89.9294 42.3184 89.5306 42.3184C89.1318 42.3184 88.8086 42.6425 88.8086 43.0423C88.8086 43.4421 89.1318 43.7663 89.5306 43.7663Z" fill="#161742"/>
<path d="M102.687 45.453C103.029 45.453 103.307 45.1745 103.307 44.831C103.307 44.4875 103.029 44.209 102.687 44.209C102.344 44.209 102.066 44.4875 102.066 44.831C102.066 45.1745 102.344 45.453 102.687 45.453Z" fill="#161742"/>
<path d="M109.015 61.4754C109.427 61.4754 109.76 61.1408 109.76 60.7279C109.76 60.3151 109.427 59.9805 109.015 59.9805C108.603 59.9805 108.27 60.3151 108.27 60.7279C108.27 61.1408 108.603 61.4754 109.015 61.4754Z" fill="#161742"/>
<path d="M93.2245 30.1517C93.5729 30.1517 93.8553 29.8685 93.8553 29.5192C93.8553 29.1699 93.5729 28.8867 93.2245 28.8867C92.8762 28.8867 92.5938 29.1699 92.5938 29.5192C92.5938 29.8685 92.8762 30.1517 93.2245 30.1517Z" fill="#161742"/>
<path d="M106.616 21.8486C106.886 21.8486 107.104 21.6298 107.104 21.3598C107.104 21.0899 106.886 20.8711 106.616 20.8711C106.347 20.8711 106.129 21.0899 106.129 21.3598C106.129 21.6298 106.347 21.8486 106.616 21.8486Z" fill="#161742"/>
<path d="M76.2335 48.5649C76.4681 48.5649 76.6583 48.3742 76.6583 48.1389C76.6583 47.9036 76.4681 47.7129 76.2335 47.7129C75.9988 47.7129 75.8086 47.9036 75.8086 48.1389C75.8086 48.3742 75.9988 48.5649 76.2335 48.5649Z" fill="#161742"/>
<path d="M92.593 58.4355C92.9399 58.4355 93.2212 58.1535 93.2212 57.8057C93.2212 57.4578 92.9399 57.1758 92.593 57.1758C92.2461 57.1758 91.9648 57.4578 91.9648 57.8057C91.9648 58.1535 92.2461 58.4355 92.593 58.4355Z" fill="#161742"/>
</g>
<g opacity="0.54">
<path d="M139.385 127.267C139.724 127.267 140 126.991 140 126.65C140 126.309 139.724 126.033 139.385 126.033C139.045 126.033 138.77 126.309 138.77 126.65C138.77 126.991 139.045 127.267 139.385 127.267Z" fill="#161742"/>
<path d="M159.304 128.151C159.703 128.151 160.026 127.827 160.026 127.427C160.026 127.027 159.703 126.703 159.304 126.703C158.905 126.703 158.582 127.027 158.582 127.427C158.582 127.827 158.905 128.151 159.304 128.151Z" fill="#161742"/>
<path d="M122.099 154.95C122.4 154.95 122.644 154.705 122.644 154.404C122.644 154.102 122.4 153.857 122.099 153.857C121.799 153.857 121.555 154.102 121.555 154.404C121.555 154.705 121.799 154.95 122.099 154.95Z" fill="#161742"/>
<path d="M151.277 145.092C151.619 145.092 151.897 144.813 151.897 144.47C151.897 144.126 151.619 143.848 151.277 143.848C150.934 143.848 150.656 144.126 150.656 144.47C150.656 144.813 150.934 145.092 151.277 145.092Z" fill="#161742"/>
<path d="M137.769 151.5C138.09 151.5 138.35 151.239 138.35 150.917C138.35 150.595 138.09 150.334 137.769 150.334C137.448 150.334 137.188 150.595 137.188 150.917C137.188 151.239 137.448 151.5 137.769 151.5Z" fill="#161742"/>
<path d="M122.843 128.923C123.255 128.923 123.589 128.588 123.589 128.175C123.589 127.762 123.255 127.428 122.843 127.428C122.431 127.428 122.098 127.762 122.098 128.175C122.098 128.588 122.431 128.923 122.843 128.923Z" fill="#161742"/>
<path d="M131.052 123.422C131.544 123.422 131.943 123.022 131.943 122.529C131.943 122.035 131.544 121.635 131.052 121.635C130.559 121.635 130.16 122.035 130.16 122.529C130.16 123.022 130.559 123.422 131.052 123.422Z" fill="#161742"/>
<path d="M153.323 133.27C153.588 133.27 153.803 133.055 153.803 132.789C153.803 132.524 153.588 132.309 153.323 132.309C153.058 132.309 152.844 132.524 152.844 132.789C152.844 133.055 153.058 133.27 153.323 133.27Z" fill="#161742"/>
<path d="M128.127 102.835C128.475 102.835 128.758 102.552 128.758 102.203C128.758 101.853 128.475 101.57 128.127 101.57C127.778 101.57 127.496 101.853 127.496 102.203C127.496 102.552 127.778 102.835 128.127 102.835Z" fill="#161742"/>
<path d="M142.827 105.366C143.096 105.366 143.315 105.147 143.315 104.877C143.315 104.607 143.096 104.389 142.827 104.389C142.558 104.389 142.34 104.607 142.34 104.877C142.34 105.147 142.558 105.366 142.827 105.366Z" fill="#161742"/>
<path d="M120.065 113.325C120.3 113.325 120.49 113.134 120.49 112.899C120.49 112.663 120.3 112.473 120.065 112.473C119.831 112.473 119.641 112.663 119.641 112.899C119.641 113.134 119.831 113.325 120.065 113.325Z" fill="#161742"/>
<path d="M145.804 148.239C146.216 148.239 146.55 147.904 146.55 147.492C146.55 147.079 146.216 146.744 145.804 146.744C145.392 146.744 145.059 147.079 145.059 147.492C145.059 147.904 145.392 148.239 145.804 148.239Z" fill="#161742"/>
<path d="M128.846 151.498C129.242 151.498 129.562 151.176 129.562 150.779C129.562 150.382 129.242 150.061 128.846 150.061C128.45 150.061 128.129 150.382 128.129 150.779C128.129 151.176 128.45 151.498 128.846 151.498Z" fill="#161742"/>
<path d="M117.808 144.516C118.155 144.516 118.436 144.234 118.436 143.886C118.436 143.538 118.155 143.256 117.808 143.256C117.461 143.256 117.18 143.538 117.18 143.886C117.18 144.234 117.461 144.516 117.808 144.516Z" fill="#161742"/>
</g>
</g>
<g clip-path="url(#clip1_906_20211)">
<path d="M54.875 320.762C49.0646 316.649 45.1569 309.944 44.4294 302.856C43.8698 297.409 45.2035 291.804 48.0574 287.141C48.6543 286.161 47.4885 285.042 46.5558 285.714C42.7134 288.456 39.7009 292.364 38.0968 296.803C35.9144 302.856 36.3901 309.823 39.3838 315.53L34.5901 308.312C31.5963 314.309 33.6015 322.339 39.0481 326.237C38.3206 323.766 34.3569 322.544 32.8927 326.116C32.6782 326.638 32.5942 327.198 32.6502 327.757C33.0792 331.805 35.9051 335.526 39.7009 336.99C43.618 338.501 48.3745 337.541 51.3963 334.621C52.8325 329.958 54.2781 325.304 54.875 320.762Z" fill="#FFD325"/>
<path d="M77.5399 259.702C82.9305 254.302 87.4911 253.379 94.5792 255.953C95.7637 256.382 101.154 254.824 104.344 253.826C105.827 253.36 107.403 254.069 108.065 255.468C109.996 259.59 112.374 267.965 102.73 272.181C101.471 272.731 103.896 302.669 103.896 302.669V323.457C103.896 323.457 117.793 328.205 108.998 345.496L110.359 345.803C112.309 346.251 113.68 347.977 113.68 349.972C113.68 351.259 112.635 352.304 111.348 352.304L45.2891 352.369C45.2891 352.369 44.8042 322.972 57.3015 313.282C61.1347 310.307 72.1585 283.242 73.4362 278.989C73.4362 278.989 71.2912 265.923 77.5212 259.693L77.5399 259.702Z" fill="#FFD325"/>
<path d="M94.7479 259.768C94.1323 258.537 93.181 257.772 92.6215 258.052C92.0619 258.332 92.1085 259.553 92.7334 260.784C93.3582 262.016 94.3002 262.78 94.8598 262.501C95.4194 262.221 95.3728 260.999 94.7479 259.768Z" fill="#161742"/>
<path d="M66.9281 352.667H66.9375L71.7499 352.537C73.41 352.434 74.2773 351.511 74.2773 349.86C74.2773 347.613 72.925 345.635 70.8266 344.815L68.9706 344.087C70.3789 341.97 75.2753 333.464 70.9105 323.457C69.2597 319.671 67.0494 317.404 64.3261 316.714C60.3996 315.726 56.9302 318.412 56.781 318.533C56.5758 318.691 56.5478 318.98 56.7064 319.186C56.8649 319.391 57.1634 319.428 57.3592 319.26C57.3965 319.232 60.6328 316.742 64.1116 317.619C66.5364 318.234 68.5323 320.324 70.0618 323.821C74.8556 334.826 67.954 343.919 67.8888 344.013C67.7955 344.125 67.7675 344.283 67.8048 344.423C67.8421 344.563 67.9447 344.684 68.0846 344.731L70.4908 345.673C72.2255 346.354 73.3447 347.986 73.3447 349.851C73.3447 351.017 72.8691 351.52 71.7126 351.595L66.9188 351.726C66.6577 351.726 66.4618 351.949 66.4618 352.201C66.4618 352.453 66.6763 352.658 66.9281 352.658V352.667Z" fill="#161742"/>
<path d="M98.6643 352.667C99.569 352.667 100.427 352.275 101.024 351.594C101.649 350.876 101.91 349.934 101.742 349.002L101.453 347.388C101.117 345.448 101.005 343.452 101.117 341.475L102.553 317.059C102.572 316.798 102.376 316.583 102.115 316.564C101.863 316.564 101.639 316.742 101.621 317.003L100.175 341.419C100.054 343.471 100.175 345.532 100.52 347.547L100.809 349.16C100.921 349.813 100.744 350.475 100.306 350.979C99.8675 351.483 99.2239 351.762 98.5804 351.734L95.6053 351.632C93.1991 351.548 91.2965 349.524 91.3711 347.108L92.2758 318.197C92.2758 317.935 92.0799 317.721 91.8281 317.712C91.5949 317.674 91.3524 317.907 91.3431 318.159L90.4385 347.071C90.3452 349.99 92.6488 352.452 95.568 352.555L98.5431 352.658C98.5431 352.658 98.6177 352.658 98.655 352.658L98.6643 352.667Z" fill="#161742"/>
<path d="M83.5198 352.667C84.4245 352.667 85.2825 352.275 85.8794 351.594C86.5043 350.876 86.7654 349.934 86.5975 349.002L86.3084 347.388C85.9727 345.439 85.8607 343.452 85.9727 341.475L87.4089 317.059C87.4276 316.798 87.2317 316.583 86.9706 316.564C86.7094 316.564 86.4949 316.742 86.4763 317.003L85.04 341.419C84.9188 343.462 85.04 345.523 85.3851 347.547L85.6742 349.16C85.7861 349.813 85.6089 350.475 85.1706 350.979C84.7322 351.483 84.1074 351.753 83.4452 351.734L80.4701 351.632C78.0639 351.548 76.1613 349.524 76.2359 347.108L77.1406 318.197C77.1406 317.935 76.9447 317.721 76.6929 317.712C76.4597 317.674 76.2172 317.907 76.2079 318.159L75.3032 347.071C75.21 349.99 77.5136 352.452 80.4328 352.555L83.4079 352.658C83.4079 352.658 83.4825 352.658 83.5198 352.658V352.667Z" fill="#161742"/>
<path d="M108.458 256.717C104.233 256.969 102.983 254.311 102.983 254.311L102.965 254.236C103.449 254.087 103.925 253.947 104.345 253.817C105.828 253.35 107.404 254.059 108.066 255.458C108.243 255.84 108.42 256.251 108.598 256.699C108.551 256.699 108.514 256.708 108.458 256.717Z" fill="#161742"/>
<path d="M72.3359 352.453C72.5783 352.453 72.7835 352.266 72.8022 352.024C73.1193 347.967 69.911 346.969 69.883 346.959C69.6405 346.885 69.3794 347.025 69.3048 347.277C69.2302 347.519 69.3701 347.78 69.6219 347.855C69.7338 347.892 72.1307 348.666 71.8789 351.958C71.8602 352.22 72.0467 352.443 72.3079 352.462C72.3172 352.462 72.3359 352.462 72.3452 352.462L72.3359 352.453Z" fill="#161742"/>
<path d="M84.1785 352.582C84.4117 352.582 84.6169 352.405 84.6448 352.163C84.906 349.374 84.2065 347.546 84.1785 347.472C84.0853 347.229 83.8148 347.108 83.5723 347.21C83.3298 347.304 83.2179 347.574 83.3018 347.817C83.3018 347.835 83.9454 349.533 83.7122 352.079C83.6842 352.331 83.8801 352.564 84.1319 352.582C84.1505 352.582 84.1599 352.582 84.1785 352.582Z" fill="#161742"/>
<path d="M81.2957 352.582C81.5289 352.582 81.7341 352.405 81.762 352.163C82.0232 349.374 81.3237 347.546 81.2957 347.472C81.2025 347.229 80.9413 347.108 80.6895 347.21C80.447 347.304 80.3351 347.574 80.419 347.817C80.419 347.835 81.0626 349.533 80.8294 352.079C80.8014 352.331 80.9973 352.564 81.2491 352.582C81.2677 352.582 81.2771 352.582 81.2957 352.582Z" fill="#161742"/>
<path d="M98.9715 352.582C99.2047 352.582 99.4098 352.405 99.4378 352.163C99.699 349.374 98.9995 347.546 98.9715 347.472C98.8782 347.229 98.6078 347.108 98.3653 347.21C98.1228 347.304 98.0109 347.574 98.0948 347.817C98.0948 347.835 98.7383 349.533 98.5052 352.079C98.4772 352.331 98.6731 352.564 98.9249 352.582C98.9435 352.582 98.9528 352.582 98.9715 352.582Z" fill="#161742"/>
<path d="M96.0887 352.582C96.3218 352.582 96.527 352.405 96.555 352.163C96.8161 349.374 96.1167 347.546 96.0887 347.472C95.9954 347.229 95.7343 347.108 95.4825 347.21C95.24 347.304 95.1281 347.574 95.212 347.817C95.212 347.835 95.8555 349.533 95.6224 352.079C95.5944 352.331 95.7902 352.564 96.0421 352.582C96.0607 352.582 96.07 352.582 96.0887 352.582Z" fill="#161742"/>
<path d="M102.998 274.727L103.175 278.998C103.185 279.231 102.998 279.427 102.765 279.437L80.7548 280.435L81.9019 274.671L102.56 274.316C102.793 274.316 102.989 274.494 102.998 274.717V274.727Z" fill="#1D478E"/>
<path d="M46.3523 338.66C46.5948 338.66 46.8 338.474 46.8186 338.231C47.8352 324.41 53.4311 318.226 53.487 318.17C53.6642 317.984 53.6549 317.685 53.459 317.508C53.2725 317.331 52.9741 317.34 52.7969 317.527C52.5544 317.779 46.9212 323.981 45.8767 338.157C45.858 338.418 46.0539 338.642 46.3057 338.66C46.315 338.66 46.3337 338.66 46.343 338.66H46.3523Z" fill="#161742"/>
<path d="M107.213 262.529C108.071 262.529 108.696 262.25 109.097 261.69C110.319 259.983 108.594 256.346 108.398 255.936C108.286 255.702 107.997 255.609 107.773 255.721C107.54 255.833 107.446 256.113 107.558 256.346C108.221 257.698 109.023 260.198 108.342 261.149C108.071 261.522 107.54 261.662 106.756 261.559C106.523 261.531 106.271 261.709 106.234 261.96C106.206 262.212 106.383 262.445 106.635 262.483C106.84 262.511 107.027 262.52 107.213 262.52V262.529Z" fill="#161742"/>
<path d="M86.8931 265.392C86.2403 268.088 86.2123 270.895 85.9791 273.655C85.746 276.416 85.261 279.242 83.8154 281.611C82.3698 283.98 79.7771 285.817 77.0071 285.668C74.2372 285.519 71.6351 282.898 72.1108 280.165C73.0341 274.84 73.9481 269.505 74.8714 264.18C75.403 261.111 78.7512 258.845 81.7916 259.489C84.832 260.132 87.3221 263.62 86.8931 265.392Z" fill="#FFD325"/>
<path d="M77.307 286.143C79.9277 286.143 82.6044 284.493 84.2179 281.853C85.7847 279.279 86.2231 276.285 86.4469 273.693C86.5029 272.993 86.5495 272.294 86.5961 271.594C86.7267 269.57 86.8666 267.481 87.3516 265.504C87.4075 265.252 87.2583 265 87.0065 264.944C86.7453 264.879 86.5029 265.038 86.4469 265.289C85.9526 267.351 85.8034 269.477 85.6728 271.538C85.6262 272.238 85.5795 272.928 85.5236 273.618C85.3091 276.099 84.8894 278.971 83.4251 281.378C81.9329 283.83 79.4241 285.351 77.0366 285.211C74.5557 285.08 72.7371 282.021 72.7184 281.993C72.5879 281.769 72.3081 281.695 72.0842 281.825C71.8604 281.956 71.7858 282.245 71.9164 282.459C72.0003 282.599 74.0055 285.975 76.9899 286.134C77.1018 286.134 77.2044 286.134 77.3163 286.134L77.307 286.143Z" fill="#161742"/>
</g>
</g>
<g clip-path="url(#clip2_906_20211)">
<path d="M210.021 41.0208L200.879 75.4766L191.734 41.0208L210.021 41.0208Z" fill="#FFD325"/>
<path d="M242.476 82.4198L229.508 90.4531L242.461 66.7962L242.476 82.4198Z" fill="#FFD325"/>
<path d="M242.471 62.7539L223.996 74.1992L242.448 40.4968L242.471 62.7539Z" fill="#FFD325"/>
<path d="M237.977 40.7643L210.02 71.6543L215.555 40.7643L237.977 40.7643Z" fill="#FFD325"/>
<path d="M163.902 56.527L174.345 54.2479V40.0391H187.897V53.5832L199.966 56.99L181.121 78.0717L163.902 56.527Z" fill="#E27755"/>
<path d="M187.896 45.7842V40.0508H174.355V48.6449C178.817 52.1111 184.715 48.3838 187.896 45.7842Z" fill="#161742"/>
<path d="M218.309 217.003C218.309 217.003 216.909 245.16 217.597 259.084C218.285 273.02 216.873 313.794 214.772 326.959L199.168 326.377C199.168 326.377 193.068 236.21 188.879 216.137L218.309 217.003Z" fill="#E27755"/>
<path d="M198.043 310.469C198.743 320.084 199.17 326.375 199.17 326.375L214.775 326.957C215.369 323.241 215.903 317.342 216.354 310.469H198.043Z" fill="#E27755"/>
<path d="M214.776 327.289C214.776 327.289 214.776 327.289 214.764 327.289L199.159 326.708C198.993 326.708 198.85 326.565 198.838 326.399C198.838 326.34 198.399 320.001 197.711 310.493C197.711 310.398 197.735 310.315 197.794 310.244C197.853 310.172 197.948 310.137 198.031 310.137H216.342C216.437 310.137 216.52 310.172 216.579 310.244C216.639 310.315 216.674 310.398 216.662 310.493C216.176 317.817 215.63 323.527 215.072 327.005C215.048 327.159 214.906 327.278 214.752 327.278L214.776 327.289ZM199.479 326.055L214.503 326.613C215.037 323.182 215.547 317.734 216.01 310.79H198.399C198.993 318.956 199.396 324.714 199.479 326.043V326.055Z" fill="#161742"/>
<path d="M170.152 210.082C170.152 210.082 166.782 237.775 167.826 252.566C168.871 267.356 158.95 309.093 156.849 322.732L139.191 320.429C139.191 320.429 142.051 224.03 143.618 209.025L170.152 210.07V210.082Z" fill="#E27755"/>
<path d="M139.67 305.127C139.373 314.398 139.195 320.428 139.195 320.428L156.853 322.731C157.399 319.205 158.455 313.816 159.713 307.489L139.67 305.115V305.127Z" fill="#E27755"/>
<path d="M156.854 323.063C156.854 323.063 156.831 323.063 156.807 323.063L139.149 320.76C138.983 320.737 138.852 320.594 138.864 320.428C138.864 320.369 139.042 314.291 139.339 305.127C139.339 305.032 139.386 304.949 139.457 304.89C139.529 304.83 139.624 304.807 139.707 304.807L159.75 307.181C159.845 307.181 159.928 307.24 159.975 307.311C160.035 307.383 160.046 307.477 160.035 307.572C158.789 313.816 157.709 319.265 157.175 322.79C157.151 322.956 157.009 323.063 156.854 323.063ZM139.54 320.143L156.581 322.363C157.127 318.885 158.148 313.698 159.334 307.774L140.003 305.483C139.754 313.318 139.588 318.826 139.552 320.131L139.54 320.143Z" fill="#161742"/>
<path d="M135.194 329.926C135.194 329.926 140.974 318.649 134.815 313.296C130.638 309.675 141.163 311.705 140.618 316.643C140.072 321.629 135.194 329.926 135.194 329.926Z" fill="#1D478E"/>
<path d="M135.194 330.258C135.194 330.258 135.087 330.246 135.04 330.222C134.886 330.139 134.826 329.937 134.909 329.783C134.921 329.759 136.345 326.958 136.998 323.551C137.864 319.052 137.057 315.681 134.601 313.556C133.652 312.725 133.319 312.096 133.592 311.597C134.067 310.767 135.859 311.265 136.393 311.431C137.591 311.811 138.742 312.488 139.561 313.271C140.606 314.28 141.08 315.455 140.95 316.678C140.404 321.675 135.681 329.759 135.479 330.103C135.42 330.21 135.313 330.27 135.194 330.27V330.258ZM134.731 311.776C134.399 311.776 134.209 311.847 134.174 311.906C134.138 311.965 134.197 312.31 135.04 313.046C137.651 315.313 138.553 318.993 137.651 323.681C137.544 324.239 137.413 324.785 137.271 325.296C138.588 322.566 140.024 319.123 140.297 316.595C140.534 314.446 138.339 312.725 136.191 312.049C135.55 311.847 135.064 311.776 134.731 311.776Z" fill="white"/>
<path d="M198.575 317.982C198.575 317.982 196.641 347.789 198.373 351.053C198.373 351.053 214.18 352.086 223.27 352.193C223.27 352.193 224.837 340.94 220.754 338.756C216.375 336.405 214.785 336.287 214.785 332.856C214.785 329.425 215.746 318.41 215.746 318.41L198.575 317.994V317.982Z" fill="#1D478E"/>
<path d="M223.271 352.514C214.275 352.407 198.516 351.386 198.35 351.374C198.231 351.374 198.136 351.303 198.077 351.196C196.321 347.896 198.16 319.17 198.243 317.959C198.243 317.781 198.409 317.65 198.576 317.65L215.747 318.066C215.842 318.066 215.925 318.113 215.984 318.173C216.044 318.232 216.079 318.327 216.067 318.422C216.067 318.529 215.106 329.461 215.106 332.833C215.106 335.492 216.079 335.99 218.951 337.438C219.521 337.723 220.173 338.056 220.897 338.447C225.134 340.715 223.65 351.754 223.591 352.217C223.567 352.383 223.425 352.502 223.271 352.502V352.514ZM198.587 350.733C200.415 350.852 214.513 351.73 222.974 351.849C223.069 351.054 223.306 348.751 223.211 346.282C223.104 343.552 222.57 340.085 220.589 339.029C219.877 338.649 219.224 338.317 218.654 338.032C215.676 336.524 214.442 335.907 214.442 332.833C214.442 329.758 215.213 320.618 215.379 318.707L198.872 318.303C198.22 328.476 197.365 347.647 198.576 350.721L198.587 350.733Z" fill="#1D478E"/>
<path d="M158.299 315.395C158.299 315.395 157.076 321.532 157.076 326.85C157.076 332.168 158.441 352.205 158.441 352.205H99.6286L98.4894 345.974C97.8249 342.353 100.341 338.923 103.984 338.471C112.219 337.439 125.558 335.456 129.498 332.987C136.701 328.477 139.395 317.081 139.395 313.947L158.299 315.395Z" fill="#1D478E"/>
<path d="M158.43 352.538H99.6296C99.4754 352.538 99.333 352.42 99.3092 352.265L98.17 346.033C97.8377 344.193 98.2531 342.353 99.3567 340.846C100.46 339.338 102.086 338.377 103.949 338.151C111.746 337.178 125.405 335.172 129.332 332.715C133.154 330.317 135.539 326.02 136.856 322.839C138.494 318.898 139.087 315.372 139.087 313.959C139.087 313.865 139.123 313.781 139.194 313.722C139.265 313.663 139.348 313.627 139.443 313.639L158.347 315.087C158.442 315.087 158.525 315.147 158.584 315.218C158.644 315.289 158.667 315.384 158.644 315.479C158.632 315.538 157.421 321.651 157.421 326.863C157.421 332.074 158.774 352.004 158.786 352.194C158.786 352.289 158.762 352.372 158.703 352.443C158.644 352.514 158.549 352.55 158.466 352.55L158.43 352.538ZM99.9026 351.885H158.086C157.908 349.179 156.745 331.729 156.745 326.851C156.745 322.304 157.647 317.105 157.908 315.693L139.716 314.304C139.633 315.942 138.992 319.337 137.449 323.076C136.097 326.352 133.64 330.78 129.665 333.261C127.552 334.59 121.382 336.62 104.02 338.792C102.347 339.006 100.876 339.861 99.8788 341.226C98.882 342.591 98.5023 344.253 98.799 345.915L99.8907 351.885H99.9026Z" fill="#161742"/>
<path d="M207.215 338.306C207.215 338.306 204.438 337.522 203.761 330.875C203.37 327.041 203.655 322.352 203.951 319.064C204.165 316.785 206.123 315.064 208.413 315.158L212.745 315.135C214.228 315.194 215.806 316.512 215.794 317.996C215.794 317.996 215.011 325.272 215.011 334.614C215.011 335.671 217.385 338.08 217.385 338.08L207.215 338.306Z" fill="#1D478E"/>
<path d="M207.214 338.627C207.214 338.627 207.155 338.627 207.119 338.615C207 338.579 204.128 337.689 203.428 330.899C203.037 327.029 203.31 322.305 203.618 319.017C203.844 316.56 205.944 314.72 208.412 314.815L212.732 314.791C212.732 314.791 212.732 314.791 212.744 314.791C213.551 314.827 214.381 315.183 215.034 315.776C215.722 316.394 216.114 317.201 216.102 317.984C216.102 317.984 216.102 318.008 216.102 318.02C216.102 318.091 215.319 325.391 215.319 334.615C215.319 335.279 216.719 336.953 217.597 337.855C217.692 337.95 217.716 338.093 217.669 338.211C217.621 338.33 217.502 338.413 217.372 338.413L207.202 338.639L207.214 338.627ZM208.234 315.479C206.193 315.479 204.473 317.035 204.283 319.088C203.986 322.341 203.701 327.017 204.093 330.84C204.686 336.704 206.941 337.843 207.273 337.974L216.648 337.76C215.9 336.929 214.69 335.469 214.69 334.603C214.69 325.569 215.426 318.364 215.473 317.96C215.473 316.631 213.99 315.503 212.756 315.444L208.436 315.468C208.436 315.468 208.436 315.468 208.424 315.468C208.365 315.468 208.317 315.468 208.258 315.468L208.234 315.479Z" fill="white"/>
<path d="M220.755 338.744C218.595 337.581 217.112 336.964 216.162 336.228C210.609 335.717 202.871 335.883 201.78 340.548C200.89 344.347 200.522 346.804 200.379 348.3H197.84C197.959 349.629 198.184 351.754 198.421 352.205C198.421 352.205 214.145 352.086 223.259 352.181C223.259 352.181 223.342 351.635 223.425 350.413C223.674 347.006 223.745 340.347 220.743 338.744H220.755Z" fill="#161742"/>
<path d="M198.433 352.537C198.315 352.537 198.196 352.466 198.148 352.359C197.864 351.825 197.638 349.593 197.52 348.323C197.52 348.228 197.543 348.145 197.603 348.074C197.662 348.003 197.757 347.967 197.84 347.967H200.083C200.237 346.531 200.605 344.121 201.459 340.465C202.076 337.818 205.138 334.886 216.186 335.895C216.245 335.895 216.305 335.919 216.364 335.966C216.969 336.441 217.812 336.868 218.963 337.45C219.533 337.735 220.185 338.067 220.897 338.447C224.018 340.121 224.03 346.673 223.757 350.436C223.674 351.659 223.591 352.205 223.591 352.229C223.567 352.395 223.425 352.514 223.271 352.514C214.264 352.419 198.599 352.537 198.433 352.537ZM198.208 348.632C198.35 350.175 198.516 351.398 198.659 351.884C200.605 351.873 214.537 351.778 222.986 351.861C223.021 351.588 223.069 351.101 223.116 350.401C223.33 347.504 223.508 340.596 220.601 339.041C219.889 338.661 219.248 338.328 218.678 338.044C217.575 337.486 216.696 337.046 216.044 336.548C211.25 336.121 203.168 336.097 202.112 340.619C201.198 344.501 200.854 346.958 200.724 348.335C200.712 348.501 200.569 348.632 200.391 348.632H198.208Z" fill="#161742"/>
<path d="M158.239 348.301H116.1L114.332 336.988C110.677 337.594 106.986 338.104 103.984 338.472C100.341 338.923 97.8249 342.354 98.4894 345.974L98.9166 348.301L99.6286 352.206H158.429C158.429 352.206 158.346 350.034 158.227 348.301H158.239Z" fill="#161742"/>
<path d="M158.43 352.539H99.6296C99.4754 352.539 99.333 352.42 99.3092 352.266L98.17 346.034C97.8377 344.194 98.2531 342.354 99.3567 340.847C100.46 339.339 102.086 338.378 103.949 338.152C107.687 337.689 111.164 337.179 114.285 336.668C114.368 336.656 114.463 336.668 114.534 336.728C114.606 336.775 114.653 336.858 114.665 336.941L116.398 347.981H158.252C158.43 347.981 158.573 348.111 158.584 348.289C158.703 350.011 158.786 352.183 158.786 352.207C158.786 352.301 158.751 352.385 158.691 352.444C158.632 352.503 158.549 352.539 158.454 352.539H158.43ZM99.9026 351.886H158.098C158.074 351.257 158.015 349.868 157.932 348.634H116.101C115.935 348.634 115.804 348.515 115.78 348.361L114.06 337.369C111.022 337.867 107.652 338.354 104.02 338.805C102.347 339.019 100.876 339.873 99.8788 341.238C98.882 342.603 98.5023 344.265 98.799 345.927L99.8907 351.898L99.9026 351.886Z" fill="#161742"/>
<path d="M250.147 181.791C252.653 184.837 257.734 191.574 260.866 193.671C261.545 194.124 262.432 194.089 263.085 193.593C263.694 193.123 263.815 192.261 263.354 191.643C261.44 189.076 256.829 182.81 256.046 181.025C255.524 179.842 253.584 179.894 251.861 180.199C250.434 180.46 249.233 180.669 250.156 181.791H250.147Z" fill="#E27755"/>
<path d="M252.277 181.522C252.277 181.522 261.326 189.415 266.39 191.582C267.199 191.931 268.147 191.713 268.721 191.052C269.191 190.512 269.148 189.703 268.617 189.224C266.294 187.118 259.673 181.539 258.542 179.929C257.124 177.91 252.277 181.513 252.277 181.513V181.522Z" fill="#E27755"/>
<path d="M253.219 179.033C253.219 179.033 262.598 185.804 267.496 187.327C268.184 187.544 268.932 187.309 269.384 186.752C269.846 186.187 269.741 185.351 269.158 184.916C266.748 183.106 260.997 178.754 259.849 177.397C258.378 175.665 253.219 179.041 253.219 179.041V179.033Z" fill="#E27755"/>
<path d="M268.601 181.626C266.496 180.303 260.884 176.726 259.744 175.612C257.003 172.923 251.879 167.875 251.879 167.875C251.879 167.875 242.395 168.658 241.603 169.093C241.429 169.189 241.734 169.972 242.343 171.121C242.578 172.636 243.343 177.274 244.422 180.086C245.719 183.48 246.815 185.603 247.389 187.318C247.972 189.024 250.226 189.659 250.913 187.44C251.348 186.021 250.756 183.906 250.147 181.791C250.634 182.244 251.104 182.609 251.531 182.871C252.757 183.61 256.377 178.04 256.377 178.04C256.377 178.04 262.685 182.522 266.791 183.619C267.548 183.819 268.358 183.541 268.827 182.905C269.132 182.496 269.019 181.913 268.593 181.643L268.601 181.626Z" fill="#E27755"/>
<path d="M261.292 188.771C261.231 188.771 261.178 188.745 261.135 188.693C259.221 186.126 256.324 181.983 255.862 181.104C255.81 181.008 255.854 180.895 255.941 180.843C256.036 180.791 256.15 180.834 256.202 180.921C256.654 181.783 259.534 185.899 261.439 188.458C261.5 188.545 261.483 188.667 261.396 188.728C261.361 188.754 261.318 188.763 261.283 188.763L261.292 188.771Z" fill="#161742"/>
<path d="M266.392 187.266C266.392 187.266 266.314 187.258 266.27 187.223C262.259 184.133 258.335 179.494 258.3 179.451C258.231 179.373 258.239 179.251 258.326 179.181C258.405 179.112 258.527 179.12 258.596 179.207C258.631 179.251 262.529 183.863 266.505 186.927C266.592 186.988 266.609 187.11 266.54 187.197C266.505 187.249 266.444 187.275 266.383 187.275L266.392 187.266Z" fill="#161742"/>
<path d="M267.872 183.949C267.872 183.949 267.793 183.94 267.759 183.914C267.367 183.618 266.915 183.288 266.436 182.931C264.009 181.129 260.685 178.666 259.71 177.517C259.641 177.439 259.65 177.317 259.737 177.248C259.815 177.178 259.937 177.187 260.006 177.274C260.955 178.396 264.261 180.842 266.671 182.626C267.149 182.983 267.602 183.314 267.993 183.61C268.08 183.671 268.098 183.792 268.028 183.879C267.993 183.932 267.933 183.958 267.872 183.958V183.949Z" fill="#161742"/>
<path d="M251.886 167.885C251.886 167.885 242.403 168.668 241.611 169.103C241.437 169.199 241.742 169.982 242.351 171.131C242.438 171.679 242.586 172.628 242.803 173.751L254.679 170.635C253.113 169.086 251.886 167.885 251.886 167.885Z" fill="#161742"/>
<path d="M200.845 113.754C221.908 151.146 246.627 310.22 246.627 310.22L191.09 313.936L183.661 185.665L180.528 186.46L168.59 312.179L121.93 309.781C121.93 309.781 144.168 153.235 161.126 113.908C161.126 113.908 195.409 104.08 200.845 113.742V113.754Z" fill="#161742"/>
<path d="M175.707 164.286C175.529 164.286 175.375 164.144 175.375 163.954V123.844C175.375 123.666 175.517 123.512 175.707 123.512H184.667C184.845 123.512 184.999 123.654 184.999 123.844V148.25C184.999 148.428 184.857 148.582 184.667 148.582C184.477 148.582 184.334 148.44 184.334 148.25V124.176H176.04V163.954C176.04 164.132 175.897 164.286 175.707 164.286Z" fill="white"/>
<path d="M157.266 123.938H205.599C204.069 119.997 202.55 116.531 201.043 113.635H160.932C159.734 116.555 158.512 120.021 157.277 123.938H157.266Z" fill="#E27755"/>
<path d="M180.087 45.4045C189.82 45.4045 197.71 36.9809 197.71 26.5899C197.71 16.1989 189.82 7.77539 180.087 7.77539C170.355 7.77539 162.465 16.1989 162.465 26.5899C162.465 36.9809 170.355 45.4045 180.087 45.4045Z" fill="#E27755"/>
<path d="M163.165 27.7648C163.165 27.7648 159.308 24.631 157.848 29.4741C156.448 34.0917 161.919 36.1215 163.319 35.4805C165.918 34.2935 166.191 31.6108 163.165 27.7648Z" fill="#E27755"/>
<path d="M163.12 31.9665C162.989 31.9665 162.847 31.8952 162.776 31.7765C161.518 29.6043 159.085 29.3194 159.061 29.3075C158.848 29.2838 158.694 29.0938 158.717 28.8683C158.741 28.6428 158.931 28.5003 159.156 28.5241C159.275 28.5359 161.993 28.8564 163.464 31.3729C163.571 31.5629 163.511 31.8003 163.322 31.9071C163.262 31.9427 163.191 31.9665 163.12 31.9665Z" fill="#161742"/>
<path d="M160.162 116.092C159.486 117.73 158.809 119.534 158.121 121.481H204.734C203.88 119.522 203.025 117.718 202.171 116.092H160.162Z" fill="#161742"/>
<path d="M161.136 33.7602C161.064 33.7602 160.993 33.7365 160.934 33.7009C160.744 33.594 160.685 33.3447 160.803 33.1548L162.192 30.852C162.299 30.662 162.548 30.6027 162.738 30.7214C162.928 30.8282 162.987 31.0775 162.868 31.2674L161.48 33.5703C161.409 33.689 161.278 33.7602 161.136 33.7602Z" fill="#161742"/>
<path d="M196.878 56.2665C196.878 56.2665 215.568 60.1481 221.561 66.1426C227.554 72.1371 257.363 166.53 257.363 166.53L239.1 175.92L211.071 104.52V118.752L147.642 119.108L146.871 100.863C146.871 100.863 139.786 116.247 133.532 127.204C130.494 132.522 122.401 133.424 118.438 132.083C114.45 130.729 109.644 125.115 109.715 120.046L106.855 99.5458L125.605 98.9523L131.005 81.0755C131.005 81.0755 139.501 66.843 143.287 63.6023C146.515 60.8366 167.543 55.5898 167.543 55.5898C167.543 55.5898 167.519 64.457 181.427 64.457C195.335 64.457 196.878 56.2783 196.878 56.2783V56.2665Z" fill="#1D478E"/>
<path d="M177.844 166.72C177.63 166.72 177.452 166.554 177.452 166.34L176.266 127.441C176.266 127.227 176.432 127.037 176.645 127.037C176.859 127.037 177.049 127.203 177.049 127.417L178.236 166.316C178.236 166.53 178.069 166.72 177.856 166.72C177.856 166.72 177.856 166.72 177.844 166.72Z" fill="#161742"/>
<path d="M148.77 155.574C148.592 155.574 148.438 155.431 148.438 155.241C148.438 155.051 148.58 154.909 148.77 154.909C151.416 154.909 153.837 154.019 155.961 152.262C157.682 150.838 159.213 148.855 160.518 146.362C162.761 142.089 163.568 137.744 163.58 137.709C163.615 137.531 163.781 137.412 163.959 137.448C164.137 137.483 164.256 137.65 164.22 137.828C164.22 137.875 163.39 142.303 161.099 146.659C158.05 152.487 153.778 155.574 148.77 155.574Z" fill="white"/>
<path d="M215.902 154.292C210.894 154.292 206.587 151.384 203.442 145.876C201.092 141.745 200.202 137.567 200.19 137.52C200.155 137.342 200.262 137.164 200.44 137.128C200.618 137.092 200.796 137.199 200.831 137.377C200.831 137.413 201.709 141.52 204.023 145.556C205.364 147.906 206.931 149.782 208.663 151.123C210.823 152.785 213.256 153.628 215.902 153.628C216.08 153.628 216.234 153.77 216.234 153.96C216.234 154.15 216.092 154.292 215.902 154.292Z" fill="white"/>
<path d="M152.711 138.089C152.533 138.089 152.379 137.946 152.379 137.756C152.379 137.578 152.521 137.424 152.711 137.424L210.859 137.115C211.037 137.115 211.191 137.258 211.191 137.448C211.191 137.626 211.049 137.78 210.859 137.78L152.711 138.089Z" fill="white"/>
<path d="M174.496 184.205C174.353 184.205 174.223 184.11 174.175 183.967C174.128 183.789 174.235 183.611 174.401 183.564L188.831 179.623C189.009 179.575 189.187 179.682 189.234 179.848C189.282 180.026 189.175 180.204 189.009 180.252L174.579 184.193C174.579 184.193 174.52 184.193 174.496 184.193V184.205Z" fill="white"/>
<path d="M184.1 23.123C184.005 23.123 183.91 23.0874 183.827 23.0162C183.672 22.8738 183.661 22.6126 183.803 22.4583C183.91 22.3396 186.568 19.5738 191.967 21.9241C192.169 22.0072 192.264 22.2446 192.169 22.4464C192.086 22.6482 191.849 22.7432 191.647 22.6482C186.758 20.5234 184.396 22.9806 184.373 23.0043C184.289 23.0874 184.195 23.1349 184.088 23.1349L184.1 23.123Z" fill="#161742"/>
<path d="M176.906 23.2423C176.799 23.2423 176.693 23.1949 176.621 23.1118C176.527 23.0049 174.201 20.6427 169.347 22.7557C169.145 22.8387 168.92 22.7557 168.825 22.5539C168.742 22.3521 168.825 22.1265 169.027 22.0316C174.426 19.6812 177.084 22.447 177.191 22.5657C177.333 22.72 177.333 22.9693 177.167 23.1236C177.096 23.1949 176.989 23.2305 176.894 23.2305L176.906 23.2423Z" fill="#161742"/>
<path d="M170.047 24.7969C170.13 24.7969 170.213 24.8325 170.272 24.9156C170.355 25.0105 172.159 27.1828 175.933 25.2361C176.087 25.153 176.265 25.2361 176.336 25.426C176.408 25.6041 176.336 25.8296 176.182 25.9008C171.981 28.0612 169.916 25.5091 169.833 25.4023C169.715 25.2598 169.726 25.0224 169.845 24.8918C169.904 24.8325 169.976 24.7969 170.059 24.7969H170.047Z" fill="#161742"/>
<path d="M184.965 24.7969C185.048 24.7969 185.131 24.8325 185.19 24.9156C185.273 25.0105 187.077 27.1828 190.851 25.2361C191.005 25.153 191.183 25.2361 191.254 25.426C191.326 25.6041 191.254 25.8296 191.1 25.9008C186.899 28.0612 184.834 25.5091 184.751 25.4023C184.633 25.2598 184.644 25.0224 184.763 24.8918C184.822 24.8325 184.894 24.7969 184.977 24.7969H184.965Z" fill="#161742"/>
<path d="M180.087 7.78711C172.836 7.78711 162.512 13.9953 162.512 25.201L168.955 16.0726C170.296 21.5924 171.958 10.5054 171.958 10.5054C187.966 22.6844 187.895 13.5799 187.895 13.5799C187.895 13.5799 193.033 24.5362 195.739 20.0136C195.739 20.0136 196.866 26.8391 197.709 26.6017C198.279 13.3662 187.788 7.78711 180.087 7.78711Z" fill="#161742"/>
<path d="M197.175 27.6339C197.175 27.6339 201.032 24.5001 202.491 29.3433C203.892 33.9608 198.421 35.9907 197.021 35.3497C194.422 34.1626 194.149 31.4799 197.175 27.6339Z" fill="#E27755"/>
<path d="M197.221 31.8374C197.15 31.8374 197.091 31.8255 197.019 31.778C196.829 31.6712 196.77 31.4219 196.877 31.2439C198.348 28.7274 201.066 28.4069 201.185 28.395C201.398 28.3712 201.6 28.5256 201.624 28.7511C201.647 28.9648 201.493 29.1666 201.28 29.1903C201.256 29.1903 198.835 29.4871 197.565 31.6593C197.494 31.7899 197.364 31.8493 197.221 31.8493V31.8374Z" fill="#161742"/>
<path d="M199.204 33.6174C199.073 33.6174 198.943 33.5462 198.86 33.4275L197.471 31.1246C197.364 30.9347 197.424 30.6973 197.602 30.5786C197.792 30.4718 198.029 30.5311 198.148 30.7092L199.536 33.012C199.643 33.2019 199.583 33.4394 199.405 33.5581C199.346 33.5937 199.275 33.6174 199.204 33.6174Z" fill="#161742"/>
<path d="M182.399 132.864C182.399 134.087 181.414 135.072 180.192 135.072C178.969 135.072 177.984 134.087 177.984 132.864C177.984 131.641 178.969 130.656 180.192 130.656C181.414 130.656 182.399 131.641 182.399 132.864Z" fill="#161742"/>
<path d="M180.192 135.405C178.792 135.405 177.652 134.265 177.652 132.864C177.652 131.464 178.792 130.324 180.192 130.324C181.592 130.324 182.731 131.464 182.731 132.864C182.731 134.265 181.592 135.405 180.192 135.405ZM180.192 130.989C179.159 130.989 178.317 131.832 178.317 132.864C178.317 133.897 179.159 134.74 180.192 134.74C181.224 134.74 182.067 133.897 182.067 132.864C182.067 131.832 181.224 130.989 180.192 130.989Z" fill="white"/>
<mask id="mask0_906_20211" style="mask-type:luminance" maskUnits="userSpaceOnUse" x="105" y="55" width="153" height="121">
<path d="M196.877 56.2663C196.877 56.2663 215.568 60.1479 221.56 66.1425C227.553 72.137 257.363 166.53 257.363 166.53L239.1 175.92L211.07 104.519V118.752L147.642 119.108L146.87 100.863C146.87 100.863 139.786 116.247 133.532 127.204C130.494 132.522 122.401 133.424 118.437 132.082C114.45 130.729 109.644 125.114 109.715 120.046L105.016 96.5187L124.893 93.931C124.893 93.931 129.331 84.221 131.004 81.0873C133.52 76.3747 139.501 66.8547 143.286 63.6141C146.514 60.8483 167.542 55.6016 167.542 55.6016C167.542 55.6016 167.519 64.4687 181.427 64.4687C195.335 64.4687 196.877 56.29 196.877 56.29V56.2663Z" fill="white"/>
</mask>
<g mask="url(#mask0_906_20211)">
<path d="M211.21 97.1366C211.21 97.1366 211.187 97.1366 211.175 97.1366C210.961 97.1129 210.795 96.923 210.819 96.7093C210.819 96.6499 211.412 90.7622 213.323 83.8299C215.091 77.4081 218.413 68.7427 224.121 63.947C224.288 63.8046 224.537 63.8283 224.679 63.9945C224.822 64.1607 224.798 64.41 224.632 64.5524C219.078 69.2175 215.838 77.7167 214.094 84.0317C212.195 90.9047 211.614 96.733 211.614 96.7924C211.59 96.9942 211.424 97.1485 211.222 97.1485L211.21 97.1366Z" fill="#161742"/>
<path d="M146.917 89.7051C146.727 89.7051 146.561 89.5746 146.526 89.3846L142.396 66.8903C142.36 66.6766 142.503 66.4748 142.716 66.4273C142.93 66.3917 143.132 66.5342 143.179 66.7478L147.309 89.2422C147.345 89.4559 147.202 89.6577 146.989 89.7051C146.965 89.7051 146.941 89.7051 146.917 89.7051Z" fill="#161742"/>
<path d="M136.296 107.226C136.177 107.226 136.047 107.167 135.976 107.06L131.585 100.757C131.466 100.579 131.502 100.33 131.68 100.211C131.858 100.08 132.107 100.128 132.226 100.306L136.616 106.609C136.735 106.787 136.699 107.037 136.521 107.155C136.45 107.203 136.379 107.226 136.296 107.226Z" fill="#161742"/>
</g>
<path d="M179.09 29.7602C179.114 30.5792 179.624 31.2558 180.384 31.5644C181.143 31.8731 182.08 31.695 182.626 31.054C182.971 30.6504 183.16 30.14 183.149 29.6058C183.149 29.2616 182.603 29.2616 182.615 29.6058C182.626 30.0688 182.436 30.5199 182.092 30.8404C181.808 31.1015 181.404 31.1965 181.024 31.1727C180.277 31.1252 179.648 30.5199 179.624 29.7602C179.624 29.4159 179.078 29.4159 179.09 29.7602Z" fill="#161742"/>
<path d="M189.2 33.7127C189.2 33.7127 189.307 33.7483 189.343 33.7958C189.461 33.9264 189.473 34.1757 189.355 34.3418C189.319 34.4012 188.429 35.7426 186.542 36.9415C184.821 38.0454 181.89 39.2443 177.725 38.7101C177.571 38.6864 177.464 38.4965 177.488 38.2828C177.511 38.0691 177.666 37.9148 177.82 37.9386C181.831 38.4609 184.643 37.3213 186.281 36.2767C188.061 35.149 188.915 33.8789 188.915 33.8552C188.987 33.7483 189.082 33.7008 189.177 33.7127H189.2Z" fill="#161742"/>
<path d="M201.148 112.698L103.678 98.8738C99.9942 98.3513 96.5844 100.915 96.0621 104.6L83.9523 190.033C83.43 193.718 85.9929 197.129 89.6768 197.651L187.147 211.475C190.831 211.998 194.241 209.434 194.763 205.749L206.873 120.316C207.395 116.631 204.832 113.22 201.148 112.698Z" fill="#32B353"/>
<path d="M125 106.737L125.617 98.9384C125.724 97.6445 124.514 96.5762 122.936 96.5762C121.31 96.5762 119.957 97.692 119.969 99.0215L120.028 106.808C120.028 107.948 121.191 108.826 122.58 108.743C123.873 108.672 124.929 107.806 125.012 106.737H125Z" fill="#E27755"/>
<path d="M114.758 107.45L114.841 98.1319C114.841 97.123 115.731 96.2208 116.954 95.9597L117.203 95.9122C118.876 95.568 120.419 96.5651 120.371 97.942L120.027 107.308C119.991 108.435 118.876 109.385 117.488 109.492C115.98 109.599 114.723 108.673 114.734 107.45H114.758Z" fill="#E27755"/>
<path d="M112.743 107.391C113.882 107.272 114.76 106.465 114.82 105.491L115.152 99.2832C115.211 98.2742 114.357 97.4195 113.194 97.2771L112.613 97.2058C111.189 97.0397 109.907 98.0249 109.954 99.2594L110.204 105.527C110.251 106.667 111.414 107.509 112.743 107.379V107.391Z" fill="#E27755"/>
<path d="M108.624 106.109C109.502 105.895 110.131 105.254 110.155 104.542L110.309 99.426C110.333 98.5951 109.502 97.9541 108.446 97.9897L107.782 98.0134C106.619 98.0609 105.669 98.8918 105.764 99.8059L106.275 104.898C106.37 105.812 107.473 106.382 108.624 106.109Z" fill="#E27755"/>
<path d="M119.649 107.273C119.649 107.415 119.767 107.522 119.91 107.522C120.052 107.522 120.171 107.403 120.171 107.261L120.218 99.0227C120.218 98.6665 120.361 98.0493 120.539 97.7525C120.622 97.6338 120.586 97.4676 120.456 97.3845C120.337 97.3015 120.171 97.3371 120.088 97.4676C119.838 97.8594 119.684 98.5834 119.684 99.0227L119.637 107.261C119.637 107.261 119.637 107.261 119.637 107.273H119.649Z" fill="#161742"/>
<path d="M114.38 105.872C114.38 106.014 114.51 106.121 114.641 106.121C114.783 106.121 114.902 106.003 114.902 105.86L114.843 100.934C114.843 100.566 114.926 98.5955 114.985 98.0969C115.009 97.9545 114.902 97.8239 114.76 97.8002C114.617 97.7764 114.487 97.8833 114.463 98.0257C114.392 98.5599 114.309 100.554 114.309 100.934L114.368 105.86L114.38 105.872Z" fill="#161742"/>
<path d="M109.778 104.638C109.778 104.78 109.908 104.887 110.051 104.887C110.193 104.887 110.312 104.768 110.312 104.614C110.312 104.543 110.276 103.012 110.241 102.537C110.205 102.038 110.146 99.035 110.205 98.5364C110.217 98.394 110.122 98.2634 109.979 98.2396C109.837 98.2159 109.707 98.3227 109.683 98.4652C109.612 99.0112 109.683 102.086 109.718 102.56C109.754 103.023 109.79 104.602 109.79 104.614L109.778 104.638Z" fill="#161742"/>
<path d="M150.793 139.159C150.403 139.159 150.013 139.105 149.61 138.998C147.257 138.352 145.885 135.918 146.531 133.564L150.094 120.705C150.739 118.351 153.173 116.979 155.527 117.624C157.88 118.27 159.251 120.705 158.606 123.058L155.042 135.918C154.505 137.868 152.73 139.159 150.793 139.159Z" fill="white"/>
<path d="M135.394 192.949C135.166 192.949 134.923 192.922 134.681 192.855C133.269 192.465 132.449 190.999 132.839 189.6L136.403 176.741C136.793 175.328 138.245 174.508 139.657 174.898C141.069 175.288 141.889 176.754 141.499 178.153L137.936 191.012C137.613 192.182 136.551 192.949 135.381 192.949H135.394Z" fill="white"/>
<path d="M164.142 146.503C163.685 146.503 163.228 146.261 162.985 145.83C162.622 145.198 162.851 144.391 163.483 144.028L175.088 137.45C175.72 137.087 176.527 137.316 176.89 137.948C177.253 138.58 177.024 139.387 176.392 139.75L164.787 146.328C164.586 146.449 164.357 146.503 164.142 146.503Z" fill="white"/>
<path d="M113.985 176.673C112.909 176.673 111.861 176.108 111.296 175.099C110.449 173.62 110.973 171.723 112.466 170.889L124.07 164.312C125.563 163.464 127.446 163.989 128.279 165.482C129.127 166.961 128.602 168.858 127.109 169.692L115.505 176.269C115.021 176.538 114.496 176.673 113.985 176.673Z" fill="white"/>
<path d="M179.071 167.339C178.909 167.339 178.762 167.312 178.6 167.272L165.745 163.708C164.804 163.452 164.252 162.47 164.508 161.528C164.763 160.587 165.745 160.035 166.686 160.291L179.541 163.855C180.483 164.111 181.034 165.093 180.779 166.035C180.563 166.815 179.851 167.326 179.084 167.326L179.071 167.339Z" fill="white"/>
<path d="M123.521 153.714C123.211 153.714 122.889 153.674 122.579 153.579L109.724 150.015C107.842 149.49 106.739 147.553 107.263 145.67C107.788 143.787 109.724 142.684 111.607 143.209L124.462 146.773C126.345 147.298 127.447 149.235 126.923 151.118C126.493 152.678 125.067 153.714 123.521 153.714Z" fill="white"/>
<path d="M162.354 189.197C161.588 189.197 160.834 188.793 160.431 188.08L153.855 176.472C153.25 175.409 153.627 174.064 154.689 173.459C155.752 172.854 157.096 173.23 157.701 174.293L164.277 185.901C164.882 186.964 164.506 188.309 163.443 188.914C163.094 189.103 162.731 189.197 162.354 189.197Z" fill="white"/>
<path d="M133.955 140.786C132.57 140.786 131.225 140.06 130.499 138.769L123.923 127.16C122.847 125.25 123.52 122.829 125.416 121.74C127.325 120.664 129.746 121.336 130.835 123.233L137.41 134.841C138.486 136.751 137.814 139.172 135.918 140.262C135.299 140.611 134.627 140.773 133.968 140.773L133.955 140.786Z" fill="white"/>
<path d="M186.265 10.0779C186.265 10.0779 183.025 0 190.822 0C198.618 0 203.353 9.76932 203.353 12.8912C203.353 16.0131 196.743 17.7818 194.216 17.5682C191.688 17.3545 186.253 10.0779 186.253 10.0779H186.265Z" fill="#161742"/>
</g>
<defs>
<clipPath id="clip0_906_20211">
<rect width="288.186" height="352.538" fill="white" transform="translate(0 7.46094)"/>
</clipPath>
<clipPath id="clip1_906_20211">
<rect width="81.0465" height="98.9905" fill="white" transform="matrix(-1 0 0 1 113.688 253.678)"/>
</clipPath>
<clipPath id="clip2_906_20211">
<rect width="203.316" height="352.538" fill="white" transform="translate(74.6133)"/>
</clipPath>
</defs>
</svg>
