<svg width="68" height="17" viewBox="0 0 68 17" fill="none" xmlns="http://www.w3.org/2000/svg">
<g clip-path="url(#clip0_478_65)">
<path d="M46.8716 12.4924C46.799 12.7553 46.6459 12.9764 46.4155 13.1567C46.182 13.3371 45.9351 13.425 45.6746 13.425H36.3355C36.0724 13.425 35.8776 13.3371 35.7494 13.1567C35.6205 12.9764 35.592 12.7553 35.6674 12.4924L37.7433 4.94844C37.8171 4.68345 37.9658 4.46031 38.1948 4.27571C38.4221 4.09221 38.6676 3.99998 38.9301 3.99998H48.2709C48.5404 3.99998 48.7416 4.08999 48.8692 4.26923C48.9967 4.44831 49.0244 4.67492 48.9486 4.94844L48.7014 5.84242H39.3618L37.7806 11.5825H47.1197L46.8716 12.4924Z" fill="#161742"/>
<path d="M22.4922 4.00949H20.6367L18.9487 10.1454L11.4944 4.02339L8.90784 13.411H10.7623L12.4417 7.31678L19.8954 13.4368L22.4922 4.00949Z" fill="#161742"/>
<path d="M60.3116 4.01167L59.2666 7.80614H51.7735L52.8172 4.01167H50.9514L48.3612 13.425H50.2247L51.2643 9.64668H58.7613L57.7195 13.425H59.5836L62.1768 4.01167H60.3116Z" fill="#161742"/>
<path d="M28.0044 9.73449L30.7746 7.25121L31.5091 9.73022L28.0044 9.73449ZM31.6825 4.01151L21.2252 13.425H23.9155L25.9792 11.5705H32.0533L32.6024 13.425H34.4698H34.4714L31.6825 4.01151Z" fill="#161742"/>
<path d="M65.6503 4.03952L68 8.7376L63.061 13.4324L65.6503 4.03952Z" fill="#088C44"/>
<path d="M64.006 4.03952L66.3531 8.7376L61.4119 13.4324L64.006 4.03952Z" fill="#F37A20"/>
</g>
<path d="M4.60488 6.244C5.45288 6.244 6.12488 6.48 6.62088 6.952C7.11688 7.416 7.36488 8.044 7.36488 8.836C7.36488 9.092 7.34488 9.32 7.30488 9.52C7.25688 9.76 7.20488 9.968 7.14888 10.144H2.28888C2.28088 10.2 2.27688 10.28 2.27688 10.384C2.27688 10.8 2.39688 11.128 2.63688 11.368C2.88488 11.6 3.20888 11.716 3.60888 11.716C3.94488 11.716 4.23288 11.644 4.47288 11.5C4.72088 11.348 4.92088 11.152 5.07288 10.912H6.88488C6.58888 11.552 6.12888 12.08 5.50488 12.496C4.88888 12.904 4.18888 13.108 3.40488 13.108C2.55688 13.108 1.87688 12.868 1.36488 12.388C0.852875 11.908 0.596875 11.256 0.596875 10.432C0.596875 10.192 0.620875 9.94 0.668875 9.676C0.788875 8.988 1.03288 8.384 1.40088 7.864C1.77688 7.344 2.24088 6.944 2.79288 6.664C3.34488 6.384 3.94888 6.244 4.60488 6.244ZM5.63688 9.124C5.65288 8.996 5.66088 8.904 5.66088 8.848C5.66088 8.464 5.53688 8.164 5.28888 7.948C5.04088 7.732 4.71688 7.624 4.31688 7.624C3.89288 7.624 3.51288 7.76 3.17688 8.032C2.84088 8.296 2.60488 8.66 2.46888 9.124H5.63688Z" fill="#161742"/>
<defs>
<clipPath id="clip0_478_65">
<rect width="60" height="12.8" fill="white" transform="translate(8 4)"/>
</clipPath>
</defs>
</svg>
