<svg width="339" height="275" viewBox="0 0 339 275" fill="none" xmlns="http://www.w3.org/2000/svg">
<g clip-path="url(#clip0_96_5479)">
<g opacity="0.88">
<g opacity="0.54">
<path d="M264.198 57.7849C264.698 57.7849 265.102 57.3809 265.102 56.8826C265.102 56.3843 264.698 55.9803 264.198 55.9803C263.699 55.9803 263.295 56.3843 263.295 56.8826C263.295 57.3809 263.699 57.7849 264.198 57.7849Z" fill="#161741"/>
<path d="M238.805 98.2848C239.247 98.2848 239.605 97.927 239.605 97.4857C239.605 97.0444 239.247 96.6866 238.805 96.6866C238.363 96.6866 238.005 97.0444 238.005 97.4857C238.005 97.927 238.363 98.2848 238.805 98.2848Z" fill="#161741"/>
<path d="M281.67 83.8595C282.173 83.8595 282.581 83.4522 282.581 82.9496C282.581 82.4471 282.173 82.0397 281.67 82.0397C281.166 82.0397 280.758 82.4471 280.758 82.9496C280.758 83.4522 281.166 83.8595 281.67 83.8595Z" fill="#161741"/>
<path d="M261.828 93.2342C262.3 93.2342 262.682 92.8525 262.682 92.3816C262.682 91.9108 262.3 91.5291 261.828 91.5291C261.357 91.5291 260.975 91.9108 260.975 92.3816C260.975 92.8525 261.357 93.2342 261.828 93.2342Z" fill="#161741"/>
<path d="M239.9 60.2127C240.505 60.2127 240.995 59.7231 240.995 59.1192C240.995 58.5153 240.505 58.0258 239.9 58.0258C239.295 58.0258 238.805 58.5153 238.805 59.1192C238.805 59.7231 239.295 60.2127 239.9 60.2127Z" fill="#161741"/>
<path d="M247.661 22.045C248.173 22.045 248.588 21.6307 248.588 21.1198C248.588 20.6088 248.173 20.1945 247.661 20.1945C247.15 20.1945 246.735 20.6088 246.735 21.1198C246.735 21.6307 247.15 22.045 247.661 22.045Z" fill="#161741"/>
<path d="M235.815 37.3877C236.159 37.3877 236.439 37.1087 236.439 36.7646C236.439 36.4204 236.159 36.1414 235.815 36.1414C235.47 36.1414 235.191 36.4204 235.191 36.7646C235.191 37.1087 235.47 37.3877 235.815 37.3877Z" fill="#161741"/>
<path d="M248.714 93.2342C249.296 93.2342 249.767 92.7635 249.767 92.1828C249.767 91.6021 249.296 91.1314 248.714 91.1314C248.133 91.1314 247.661 91.6021 247.661 92.1828C247.661 92.7635 248.133 93.2342 248.714 93.2342Z" fill="#161741"/>
<path d="M232.503 83.0223C233.012 83.0223 233.426 82.6097 233.426 82.1009C233.426 81.592 233.012 81.1794 232.503 81.1794C231.993 81.1794 231.58 81.592 231.58 82.1009C231.58 82.6097 231.993 83.0223 232.503 83.0223Z" fill="#161741"/>
</g>
<g opacity="0.54">
<path d="M201.37 57.7849C201.869 57.7849 202.274 57.3809 202.274 56.8826C202.274 56.3843 201.869 55.9803 201.37 55.9803C200.871 55.9803 200.466 56.3843 200.466 56.8826C200.466 57.3809 200.871 57.7849 201.37 57.7849Z" fill="#161741"/>
<path d="M230.63 59.081C231.216 59.081 231.691 58.6068 231.691 58.0219C231.691 57.437 231.216 56.9629 230.63 56.9629C230.045 56.9629 229.57 57.437 229.57 58.0219C229.57 58.6068 230.045 59.081 230.63 59.081Z" fill="#161741"/>
<path d="M175.977 98.2848C176.419 98.2848 176.777 97.927 176.777 97.4857C176.777 97.0444 176.419 96.6866 175.977 96.6866C175.535 96.6866 175.176 97.0444 175.176 97.4857C175.176 97.927 175.535 98.2848 175.977 98.2848Z" fill="#161741"/>
<path d="M218.841 83.8595C219.344 83.8595 219.752 83.4522 219.752 82.9496C219.752 82.4471 219.344 82.0397 218.841 82.0397C218.338 82.0397 217.93 82.4471 217.93 82.9496C217.93 83.4522 218.338 83.8595 218.841 83.8595Z" fill="#161741"/>
<path d="M198.996 93.2342C199.468 93.2342 199.85 92.8525 199.85 92.3816C199.85 91.9108 199.468 91.5291 198.996 91.5291C198.524 91.5291 198.142 91.9108 198.142 92.3816C198.142 92.8525 198.524 93.2342 198.996 93.2342Z" fill="#161741"/>
<path d="M177.072 60.2127C177.676 60.2127 178.167 59.7231 178.167 59.1192C178.167 58.5153 177.676 58.0258 177.072 58.0258C176.467 58.0258 175.977 58.5153 175.977 59.1192C175.977 59.7231 176.467 60.2127 177.072 60.2127Z" fill="#161741"/>
<path d="M189.129 52.1608C189.852 52.1608 190.438 51.5754 190.438 50.8533C190.438 50.1311 189.852 49.5457 189.129 49.5457C188.406 49.5457 187.819 50.1311 187.819 50.8533C187.819 51.5754 188.406 52.1608 189.129 52.1608Z" fill="#161741"/>
<path d="M221.847 66.5708C222.236 66.5708 222.551 66.2558 222.551 65.8673C222.551 65.4788 222.236 65.1638 221.847 65.1638C221.458 65.1638 221.142 65.4788 221.142 65.8673C221.142 66.2558 221.458 66.5708 221.847 66.5708Z" fill="#161741"/>
<path d="M184.829 22.045C185.341 22.045 185.756 21.6307 185.756 21.1198C185.756 20.6088 185.341 20.1945 184.829 20.1945C184.317 20.1945 183.902 20.6088 183.902 21.1198C183.902 21.6307 184.317 22.045 184.829 22.045Z" fill="#161741"/>
<path d="M206.428 25.7497C206.823 25.7497 207.144 25.4296 207.144 25.0348C207.144 24.6399 206.823 24.3198 206.428 24.3198C206.032 24.3198 205.712 24.6399 205.712 25.0348C205.712 25.4296 206.032 25.7497 206.428 25.7497Z" fill="#161741"/>
<path d="M172.986 37.3877C173.331 37.3877 173.61 37.1087 173.61 36.7646C173.61 36.4204 173.331 36.1414 172.986 36.1414C172.642 36.1414 172.362 36.4204 172.362 36.7646C172.362 37.1087 172.642 37.3877 172.986 37.3877Z" fill="#161741"/>
<path d="M210.793 88.4628C211.398 88.4628 211.888 87.9732 211.888 87.3693C211.888 86.7654 211.398 86.2759 210.793 86.2759C210.188 86.2759 209.698 86.7654 209.698 87.3693C209.698 87.9732 210.188 88.4628 210.793 88.4628Z" fill="#161741"/>
<path d="M185.886 93.2342C186.467 93.2342 186.939 92.7635 186.939 92.1828C186.939 91.6021 186.467 91.1314 185.886 91.1314C185.304 91.1314 184.833 91.6021 184.833 92.1828C184.833 92.7635 185.304 93.2342 185.886 93.2342Z" fill="#161741"/>
<path d="M169.67 83.0223C170.18 83.0223 170.593 82.6097 170.593 82.1009C170.593 81.592 170.18 81.1794 169.67 81.1794C169.161 81.1794 168.748 81.592 168.748 82.1009C168.748 82.6097 169.161 83.0223 169.67 83.0223Z" fill="#161741"/>
</g>
<g opacity="0.54">
<path d="M8.90604 261.802C9.81957 261.802 10.5601 261.063 10.5601 260.15C10.5601 259.238 9.81957 258.499 8.90604 258.499C7.99251 258.499 7.25195 259.238 7.25195 260.15C7.25195 261.063 7.99251 261.802 8.90604 261.802Z" fill="#161741"/>
<path d="M49.3585 130.882C50.1493 130.882 50.7905 130.242 50.7905 129.452C50.7905 128.662 50.1493 128.022 49.3585 128.022C48.5676 128.022 47.9265 128.662 47.9265 129.452C47.9265 130.242 48.5676 130.882 49.3585 130.882Z" fill="#161741"/>
<path d="M11.3144 127.624C12.1349 127.624 12.8 126.96 12.8 126.141C12.8 125.322 12.1349 124.658 11.3144 124.658C10.4939 124.658 9.82881 125.322 9.82881 126.141C9.82881 126.96 10.4939 127.624 11.3144 127.624Z" fill="#161741"/>
<path d="M308.805 15.5148C309.719 15.5148 310.459 14.7753 310.459 13.8631C310.459 12.951 309.719 12.2115 308.805 12.2115C307.892 12.2115 307.151 12.951 307.151 13.8631C307.151 14.7753 307.892 15.5148 308.805 15.5148Z" fill="#161741"/>
<path d="M337.947 275C338.529 275 339 274.529 339 273.949C339 273.368 338.529 272.897 337.947 272.897C337.366 272.897 336.894 273.368 336.894 273.949C336.894 274.529 337.366 275 337.947 275Z" fill="#161741"/>
<path d="M9.8288 93.7121C10.3384 93.7121 10.7516 93.2996 10.7516 92.7907C10.7516 92.2818 10.3384 91.8693 9.8288 91.8693C9.31917 91.8693 8.90604 92.2818 8.90604 92.7907C8.90604 93.2996 9.31917 93.7121 9.8288 93.7121Z" fill="#161741"/>
</g>
<g opacity="0.54">
<path d="M208.859 234.087C209.773 234.087 210.513 233.348 210.513 232.436C210.513 231.523 209.773 230.784 208.859 230.784C207.946 230.784 207.205 231.523 207.205 232.436C207.205 233.348 207.946 234.087 208.859 234.087Z" fill="#161741"/>
<path d="M227.981 210.754C228.48 210.754 228.884 210.35 228.884 209.852C228.884 209.353 228.48 208.949 227.981 208.949C227.482 208.949 227.077 209.353 227.077 209.852C227.077 210.35 227.482 210.754 227.981 210.754Z" fill="#161741"/>
<path d="M232.323 220.97C233.114 220.97 233.755 220.329 233.755 219.54C233.755 218.75 233.114 218.11 232.323 218.11C231.532 218.11 230.891 218.75 230.891 219.54C230.891 220.329 231.532 220.97 232.323 220.97Z" fill="#161741"/>
<path d="M273.625 228.681C274.211 228.681 274.686 228.207 274.686 227.622C274.686 227.037 274.211 226.563 273.625 226.563C273.039 226.563 272.565 227.037 272.565 227.622C272.565 228.207 273.039 228.681 273.625 228.681Z" fill="#161741"/>
<path d="M248.534 232.137C248.976 232.137 249.335 231.78 249.335 231.338C249.335 230.897 248.976 230.539 248.534 230.539C248.092 230.539 247.734 230.897 247.734 231.338C247.734 231.78 248.092 232.137 248.534 232.137Z" fill="#161741"/>
<path d="M224.945 238.882C225.416 238.882 225.798 238.5 225.798 238.029C225.798 237.558 225.416 237.176 224.945 237.176C224.473 237.176 224.091 237.558 224.091 238.029C224.091 238.5 224.473 238.882 224.945 238.882Z" fill="#161741"/>
<path d="M203.683 213.182C204.287 213.182 204.778 212.692 204.778 212.088C204.778 211.484 204.287 210.995 203.683 210.995C203.078 210.995 202.588 211.484 202.588 212.088C202.588 212.692 203.078 213.182 203.683 213.182Z" fill="#161741"/>
<path d="M215.74 205.13C216.463 205.13 217.049 204.544 217.049 203.822C217.049 203.1 216.463 202.515 215.74 202.515C215.017 202.515 214.43 203.1 214.43 203.822C214.43 204.544 215.017 205.13 215.74 205.13Z" fill="#161741"/>
<path d="M242.856 236.695C243.245 236.695 243.561 236.38 243.561 235.991C243.561 235.603 243.245 235.288 242.856 235.288C242.467 235.288 242.152 235.603 242.152 235.991C242.152 236.38 242.467 236.695 242.856 236.695Z" fill="#161741"/>
<path d="M211.444 175.018C211.956 175.018 212.37 174.603 212.37 174.092C212.37 173.581 211.956 173.167 211.444 173.167C210.932 173.167 210.517 173.581 210.517 174.092C210.517 174.603 210.932 175.018 211.444 175.018Z" fill="#161741"/>
<path d="M233.039 178.719C233.434 178.719 233.755 178.399 233.755 178.004C233.755 177.609 233.434 177.289 233.039 177.289C232.643 177.289 232.323 177.609 232.323 178.004C232.323 178.399 232.643 178.719 233.039 178.719Z" fill="#161741"/>
<path d="M241.371 191.599C242.058 191.599 242.615 191.043 242.615 190.357C242.615 189.67 242.058 189.114 241.371 189.114C240.683 189.114 240.126 189.67 240.126 190.357C240.126 191.043 240.683 191.599 241.371 191.599Z" fill="#161741"/>
<path d="M199.597 190.357C199.942 190.357 200.221 190.078 200.221 189.733C200.221 189.389 199.942 189.11 199.597 189.11C199.252 189.11 198.973 189.389 198.973 189.733C198.973 190.078 199.252 190.357 199.597 190.357Z" fill="#161741"/>
<path d="M258.444 227.087C259.025 227.087 259.497 226.616 259.497 226.035C259.497 225.455 259.025 224.984 258.444 224.984C257.862 224.984 257.391 225.455 257.391 226.035C257.391 226.616 257.862 227.087 258.444 227.087Z" fill="#161741"/>
<path d="M196.285 235.991C196.795 235.991 197.208 235.579 197.208 235.07C197.208 234.561 196.795 234.148 196.285 234.148C195.776 234.148 195.362 234.561 195.362 235.07C195.362 235.579 195.776 235.991 196.285 235.991Z" fill="#161741"/>
</g>
<g opacity="0.54">
<path d="M281.907 147.375C282.406 147.375 282.811 146.971 282.811 146.473C282.811 145.975 282.406 145.571 281.907 145.571C281.408 145.571 281.004 145.975 281.004 146.473C281.004 146.971 281.408 147.375 281.907 147.375Z" fill="#161741"/>
<path d="M315.72 133.199C316.306 133.199 316.781 132.725 316.781 132.14C316.781 131.555 316.306 131.081 315.72 131.081C315.135 131.081 314.66 131.555 314.66 132.14C314.66 132.725 315.135 133.199 315.72 133.199Z" fill="#161741"/>
<path d="M256.514 187.872C256.956 187.872 257.314 187.514 257.314 187.072C257.314 186.631 256.956 186.273 256.514 186.273C256.072 186.273 255.714 186.631 255.714 187.072C255.714 187.514 256.072 187.872 256.514 187.872Z" fill="#161741"/>
<path d="M281.907 166.576C282.41 166.576 282.818 166.169 282.818 165.666C282.818 165.163 282.41 164.756 281.907 164.756C281.404 164.756 280.996 165.163 280.996 165.666C280.996 166.169 281.404 166.576 281.907 166.576Z" fill="#161741"/>
<path d="M279.537 182.821C280.009 182.821 280.391 182.439 280.391 181.968C280.391 181.498 280.009 181.116 279.537 181.116C279.066 181.116 278.683 181.498 278.683 181.968C278.683 182.439 279.066 182.821 279.537 182.821Z" fill="#161741"/>
<path d="M257.609 149.799C258.214 149.799 258.704 149.31 258.704 148.706C258.704 148.102 258.214 147.612 257.609 147.612C257.004 147.612 256.514 148.102 256.514 148.706C256.514 149.31 257.004 149.799 257.609 149.799Z" fill="#161741"/>
<path d="M302.384 156.158C302.773 156.158 303.089 155.843 303.089 155.454C303.089 155.066 302.773 154.751 302.384 154.751C301.995 154.751 301.68 155.066 301.68 155.454C301.68 155.843 301.995 156.158 302.384 156.158Z" fill="#161741"/>
<path d="M265.37 111.636C265.882 111.636 266.297 111.221 266.297 110.71C266.297 110.199 265.882 109.785 265.37 109.785C264.858 109.785 264.444 110.199 264.444 110.71C264.444 111.221 264.858 111.636 265.37 111.636Z" fill="#161741"/>
<path d="M286.965 115.336C287.361 115.336 287.681 115.016 287.681 114.622C287.681 114.227 287.361 113.907 286.965 113.907C286.57 113.907 286.249 114.227 286.249 114.622C286.249 115.016 286.57 115.336 286.965 115.336Z" fill="#161741"/>
<path d="M304.8 111.953C305.487 111.953 306.045 111.397 306.045 110.71C306.045 110.024 305.487 109.468 304.8 109.468C304.113 109.468 303.556 110.024 303.556 110.71C303.556 111.397 304.113 111.953 304.8 111.953Z" fill="#161741"/>
<path d="M253.523 126.975C253.868 126.975 254.148 126.696 254.148 126.351C254.148 126.007 253.868 125.728 253.523 125.728C253.179 125.728 252.899 126.007 252.899 126.351C252.899 126.696 253.179 126.975 253.523 126.975Z" fill="#161741"/>
<path d="M291.334 178.05C291.939 178.05 292.429 177.56 292.429 176.956C292.429 176.352 291.939 175.863 291.334 175.863C290.729 175.863 290.239 176.352 290.239 176.956C290.239 177.56 290.729 178.05 291.334 178.05Z" fill="#161741"/>
<path d="M266.423 182.821C267.005 182.821 267.476 182.35 267.476 181.77C267.476 181.189 267.005 180.718 266.423 180.718C265.842 180.718 265.37 181.189 265.37 181.77C265.37 182.35 265.842 182.821 266.423 182.821Z" fill="#161741"/>
<path d="M250.211 172.609C250.721 172.609 251.134 172.197 251.134 171.688C251.134 171.179 250.721 170.766 250.211 170.766C249.702 170.766 249.289 171.179 249.289 171.688C249.289 172.197 249.702 172.609 250.211 172.609Z" fill="#161741"/>
</g>
<g opacity="0.54">
<path d="M87.3412 184.087C87.8403 184.087 88.2448 183.683 88.2448 183.184C88.2448 182.686 87.8403 182.282 87.3412 182.282C86.8422 182.282 86.4376 182.686 86.4376 183.184C86.4376 183.683 86.8422 184.087 87.3412 184.087Z" fill="#161741"/>
<path d="M44.3656 238.828C44.8075 238.828 45.1658 238.47 45.1658 238.029C45.1658 237.588 44.8075 237.23 44.3656 237.23C43.9236 237.23 43.5653 237.588 43.5653 238.029C43.5653 238.47 43.9236 238.828 44.3656 238.828Z" fill="#161741"/>
<path d="M87.3412 203.287C87.8445 203.287 88.2525 202.88 88.2525 202.377C88.2525 201.874 87.8445 201.467 87.3412 201.467C86.8379 201.467 86.4299 201.874 86.4299 202.377C86.4299 202.88 86.8379 203.287 87.3412 203.287Z" fill="#161741"/>
<path d="M84.9711 219.536C85.4427 219.536 85.825 219.154 85.825 218.683C85.825 218.212 85.4427 217.831 84.9711 217.831C84.4996 217.831 84.1173 218.212 84.1173 218.683C84.1173 219.154 84.4996 219.536 84.9711 219.536Z" fill="#161741"/>
<path d="M37.4735 206.223C38.0783 206.223 38.5686 205.734 38.5686 205.13C38.5686 204.526 38.0783 204.036 37.4735 204.036C36.8687 204.036 36.3784 204.526 36.3784 205.13C36.3784 205.734 36.8687 206.223 37.4735 206.223Z" fill="#161741"/>
<path d="M107.818 192.872C108.207 192.872 108.523 192.557 108.523 192.169C108.523 191.78 108.207 191.465 107.818 191.465C107.429 191.465 107.114 191.78 107.114 192.169C107.114 192.557 107.429 192.872 107.818 192.872Z" fill="#161741"/>
<path d="M70.8042 148.347C71.3159 148.347 71.7308 147.932 71.7308 147.421C71.7308 146.91 71.3159 146.496 70.8042 146.496C70.2924 146.496 69.8776 146.91 69.8776 147.421C69.8776 147.932 70.2924 148.347 70.8042 148.347Z" fill="#161741"/>
<path d="M92.3992 152.048C92.7946 152.048 93.1152 151.727 93.1152 151.333C93.1152 150.938 92.7946 150.618 92.3992 150.618C92.0038 150.618 91.6832 150.938 91.6832 151.333C91.6832 151.727 92.0038 152.048 92.3992 152.048Z" fill="#161741"/>
<path d="M26.7066 272.549C27.0513 272.549 27.3307 272.27 27.3307 271.926C27.3307 271.582 27.0513 271.303 26.7066 271.303C26.3619 271.303 26.0825 271.582 26.0825 271.926C26.0825 272.27 26.3619 272.549 26.7066 272.549Z" fill="#161741"/>
<path d="M96.768 214.764C97.3728 214.764 97.863 214.275 97.863 213.671C97.863 213.067 97.3728 212.578 96.768 212.578C96.1632 212.578 95.6729 213.067 95.6729 213.671C95.6729 214.275 96.1632 214.764 96.768 214.764Z" fill="#161741"/>
<path d="M28.4718 231.835C29.0533 231.835 29.5247 231.365 29.5247 230.784C29.5247 230.203 29.0533 229.733 28.4718 229.733C27.8902 229.733 27.4188 230.203 27.4188 230.784C27.4188 231.365 27.8902 231.835 28.4718 231.835Z" fill="#161741"/>
<path d="M0.922767 239.753C1.4324 239.753 1.84553 239.341 1.84553 238.832C1.84553 238.323 1.4324 237.911 0.922767 237.911C0.413137 237.911 0 238.323 0 238.832C0 239.341 0.413137 239.753 0.922767 239.753Z" fill="#161741"/>
</g>
<g opacity="0.54">
<path d="M119.489 16.7574C119.988 16.7574 120.392 16.3534 120.392 15.8551C120.392 15.3568 119.988 14.9528 119.489 14.9528C118.99 14.9528 118.585 15.3568 118.585 15.8551C118.585 16.3534 118.99 16.7574 119.489 16.7574Z" fill="#161741"/>
<path d="M100.168 33.4918C100.754 33.4918 101.229 33.0177 101.229 32.4328C101.229 31.8479 100.754 31.3737 100.168 31.3737C99.5823 31.3737 99.1075 31.8479 99.1075 32.4328C99.1075 33.0177 99.5823 33.4918 100.168 33.4918Z" fill="#161741"/>
<path d="M119.489 35.9578C119.992 35.9578 120.4 35.5504 120.4 35.0479C120.4 34.5453 119.992 34.1379 119.489 34.1379C118.985 34.1379 118.577 34.5453 118.577 35.0479C118.577 35.5504 118.985 35.9578 119.489 35.9578Z" fill="#161741"/>
<path d="M128.789 59.3983C129.394 59.3983 129.884 58.9087 129.884 58.3048C129.884 57.7009 129.394 57.2114 128.789 57.2114C128.184 57.2114 127.694 57.7009 127.694 58.3048C127.694 58.9087 128.184 59.3983 128.789 59.3983Z" fill="#161741"/>
<path d="M105.594 13.5764C106.105 13.5764 106.52 13.1622 106.52 12.6512C106.52 12.1402 106.105 11.726 105.594 11.726C105.082 11.726 104.667 12.1402 104.667 12.6512C104.667 13.1622 105.082 13.5764 105.594 13.5764Z" fill="#161741"/>
<path d="M125.267 1.4299C125.662 1.4299 125.983 1.10981 125.983 0.714951C125.983 0.320094 125.662 0 125.267 0C124.871 0 124.551 0.320094 124.551 0.714951C124.551 1.10981 124.871 1.4299 125.267 1.4299Z" fill="#161741"/>
<path d="M80.6368 40.5113C80.9815 40.5113 81.2609 40.2323 81.2609 39.8881C81.2609 39.544 80.9815 39.265 80.6368 39.265C80.2921 39.265 80.0127 39.544 80.0127 39.8881C80.0127 40.2323 80.2921 40.5113 80.6368 40.5113Z" fill="#161741"/>
<path d="M104.663 54.948C105.173 54.948 105.586 54.5355 105.586 54.0266C105.586 53.5177 105.173 53.1052 104.663 53.1052C104.154 53.1052 103.74 53.5177 103.74 54.0266C103.74 54.5355 104.154 54.948 104.663 54.948Z" fill="#161741"/>
</g>
<g opacity="0.54">
<path d="M222.379 133.818C222.878 133.818 223.283 133.414 223.283 132.916C223.283 132.418 222.878 132.014 222.379 132.014C221.88 132.014 221.475 132.418 221.475 132.916C221.475 133.414 221.88 133.818 222.379 133.818Z" fill="#161741"/>
<path d="M251.64 135.114C252.225 135.114 252.7 134.64 252.7 134.055C252.7 133.47 252.225 132.996 251.64 132.996C251.054 132.996 250.579 133.47 250.579 134.055C250.579 134.64 251.054 135.114 251.64 135.114Z" fill="#161741"/>
<path d="M196.986 174.318C197.428 174.318 197.786 173.96 197.786 173.519C197.786 173.078 197.428 172.72 196.986 172.72C196.544 172.72 196.186 173.078 196.186 173.519C196.186 173.96 196.544 174.318 196.986 174.318Z" fill="#161741"/>
<path d="M239.85 159.893C240.354 159.893 240.762 159.485 240.762 158.983C240.762 158.48 240.354 158.073 239.85 158.073C239.347 158.073 238.939 158.48 238.939 158.983C238.939 159.485 239.347 159.893 239.85 159.893Z" fill="#161741"/>
<path d="M220.005 169.268C220.477 169.268 220.859 168.886 220.859 168.415C220.859 167.944 220.477 167.562 220.005 167.562C219.534 167.562 219.151 167.944 219.151 168.415C219.151 168.886 219.534 169.268 220.005 169.268Z" fill="#161741"/>
<path d="M198.081 136.242C198.686 136.242 199.176 135.753 199.176 135.149C199.176 134.545 198.686 134.055 198.081 134.055C197.476 134.055 196.986 134.545 196.986 135.149C196.986 135.753 197.476 136.242 198.081 136.242Z" fill="#161741"/>
<path d="M210.138 128.194C210.861 128.194 211.448 127.609 211.448 126.887C211.448 126.164 210.861 125.579 210.138 125.579C209.415 125.579 208.829 126.164 208.829 126.887C208.829 127.609 209.415 128.194 210.138 128.194Z" fill="#161741"/>
<path d="M242.856 142.604C243.245 142.604 243.561 142.289 243.561 141.901C243.561 141.512 243.245 141.197 242.856 141.197C242.467 141.197 242.152 141.512 242.152 141.901C242.152 142.289 242.467 142.604 242.856 142.604Z" fill="#161741"/>
<path d="M205.842 98.0782C206.354 98.0782 206.769 97.664 206.769 97.153C206.769 96.642 206.354 96.2278 205.842 96.2278C205.33 96.2278 204.915 96.642 204.915 97.153C204.915 97.664 205.33 98.0782 205.842 98.0782Z" fill="#161741"/>
<path d="M227.437 101.783C227.833 101.783 228.153 101.463 228.153 101.068C228.153 100.673 227.833 100.353 227.437 100.353C227.042 100.353 226.721 100.673 226.721 101.068C226.721 101.463 227.042 101.783 227.437 101.783Z" fill="#161741"/>
<path d="M193.995 113.421C194.34 113.421 194.62 113.142 194.62 112.798C194.62 112.454 194.34 112.175 193.995 112.175C193.651 112.175 193.371 112.454 193.371 112.798C193.371 113.142 193.651 113.421 193.995 113.421Z" fill="#161741"/>
<path d="M231.806 164.496C232.411 164.496 232.901 164.007 232.901 163.403C232.901 162.799 232.411 162.309 231.806 162.309C231.201 162.309 230.711 162.799 230.711 163.403C230.711 164.007 231.201 164.496 231.806 164.496Z" fill="#161741"/>
<path d="M206.895 169.264C207.477 169.264 207.948 168.793 207.948 168.212C207.948 167.632 207.477 167.161 206.895 167.161C206.313 167.161 205.842 167.632 205.842 168.212C205.842 168.793 206.313 169.264 206.895 169.264Z" fill="#161741"/>
<path d="M190.683 159.056C191.193 159.056 191.606 158.643 191.606 158.134C191.606 157.625 191.193 157.213 190.683 157.213C190.174 157.213 189.761 157.625 189.761 158.134C189.761 158.643 190.174 159.056 190.683 159.056Z" fill="#161741"/>
</g>
<g opacity="0.54">
<path d="M150.541 222.464C151.455 222.464 152.195 221.725 152.195 220.813C152.195 219.901 151.455 219.161 150.541 219.161C149.628 219.161 148.887 219.901 148.887 220.813C148.887 221.725 149.628 222.464 150.541 222.464Z" fill="#161741"/>
<path d="M169.667 199.131C170.166 199.131 170.57 198.727 170.57 198.229C170.57 197.73 170.166 197.326 169.667 197.326C169.167 197.326 168.763 197.73 168.763 198.229C168.763 198.727 169.167 199.131 169.667 199.131Z" fill="#161741"/>
<path d="M148.891 187.03C149.802 187.03 150.541 186.293 150.541 185.383C150.541 184.472 149.802 183.735 148.891 183.735C147.979 183.735 147.241 184.472 147.241 185.383C147.241 186.293 147.979 187.03 148.891 187.03Z" fill="#161741"/>
<path d="M174.005 209.347C174.796 209.347 175.437 208.707 175.437 207.917C175.437 207.127 174.796 206.487 174.005 206.487C173.214 206.487 172.573 207.127 172.573 207.917C172.573 208.707 173.214 209.347 174.005 209.347Z" fill="#161741"/>
<path d="M164.674 173.393C165.646 173.393 166.435 172.605 166.435 171.634C166.435 170.663 165.646 169.875 164.674 169.875C163.701 169.875 162.912 170.663 162.912 171.634C162.912 172.605 163.701 173.393 164.674 173.393Z" fill="#161741"/>
<path d="M198.923 200.427C199.509 200.427 199.984 199.953 199.984 199.368C199.984 198.783 199.509 198.309 198.923 198.309C198.337 198.309 197.863 198.783 197.863 199.368C197.863 199.953 198.337 200.427 198.923 200.427Z" fill="#161741"/>
<path d="M144.269 239.631C144.711 239.631 145.07 239.273 145.07 238.832C145.07 238.391 144.711 238.033 144.269 238.033C143.827 238.033 143.469 238.391 143.469 238.832C143.469 239.273 143.827 239.631 144.269 239.631Z" fill="#161741"/>
<path d="M187.134 225.206C187.637 225.206 188.045 224.798 188.045 224.296C188.045 223.793 187.637 223.386 187.134 223.386C186.631 223.386 186.223 223.793 186.223 224.296C186.223 224.798 186.631 225.206 187.134 225.206Z" fill="#161741"/>
<path d="M167.293 234.58C167.764 234.58 168.146 234.199 168.146 233.728C168.146 233.257 167.764 232.875 167.293 232.875C166.821 232.875 166.439 233.257 166.439 233.728C166.439 234.199 166.821 234.58 167.293 234.58Z" fill="#161741"/>
<path d="M145.364 201.559C145.969 201.559 146.46 201.069 146.46 200.465C146.46 199.862 145.969 199.372 145.364 199.372C144.76 199.372 144.269 199.862 144.269 200.465C144.269 201.069 144.76 201.559 145.364 201.559Z" fill="#161741"/>
<path d="M157.422 193.507C158.145 193.507 158.731 192.922 158.731 192.199C158.731 191.477 158.145 190.892 157.422 190.892C156.698 190.892 156.112 191.477 156.112 192.199C156.112 192.922 156.698 193.507 157.422 193.507Z" fill="#161741"/>
<path d="M190.14 207.917C190.529 207.917 190.844 207.602 190.844 207.213C190.844 206.825 190.529 206.51 190.14 206.51C189.751 206.51 189.435 206.825 189.435 207.213C189.435 207.602 189.751 207.917 190.14 207.917Z" fill="#161741"/>
<path d="M153.126 163.391C153.637 163.391 154.052 162.977 154.052 162.466C154.052 161.955 153.637 161.541 153.126 161.541C152.614 161.541 152.199 161.955 152.199 162.466C152.199 162.977 152.614 163.391 153.126 163.391Z" fill="#161741"/>
<path d="M174.725 167.096C175.12 167.096 175.441 166.776 175.441 166.381C175.441 165.986 175.12 165.666 174.725 165.666C174.329 165.666 174.009 165.986 174.009 166.381C174.009 166.776 174.329 167.096 174.725 167.096Z" fill="#161741"/>
<path d="M183.052 179.977C183.74 179.977 184.297 179.42 184.297 178.734C184.297 178.048 183.74 177.491 183.052 177.491C182.365 177.491 181.808 178.048 181.808 178.734C181.808 179.42 182.365 179.977 183.052 179.977Z" fill="#161741"/>
<path d="M141.279 178.734C141.624 178.734 141.903 178.455 141.903 178.111C141.903 177.767 141.624 177.488 141.279 177.488C140.934 177.488 140.655 177.767 140.655 178.111C140.655 178.455 140.934 178.734 141.279 178.734Z" fill="#161741"/>
<path d="M179.089 229.809C179.694 229.809 180.185 229.319 180.185 228.716C180.185 228.112 179.694 227.622 179.089 227.622C178.485 227.622 177.994 228.112 177.994 228.716C177.994 229.319 178.485 229.809 179.089 229.809Z" fill="#161741"/>
<path d="M154.179 234.58C154.76 234.58 155.232 234.11 155.232 233.529C155.232 232.948 154.76 232.478 154.179 232.478C153.597 232.478 153.126 232.948 153.126 233.529C153.126 234.11 153.597 234.58 154.179 234.58Z" fill="#161741"/>
<path d="M137.967 224.368C138.477 224.368 138.89 223.956 138.89 223.447C138.89 222.938 138.477 222.526 137.967 222.526C137.457 222.526 137.044 222.938 137.044 223.447C137.044 223.956 137.457 224.368 137.967 224.368Z" fill="#161741"/>
</g>
</g>
</g>
<defs>
<clipPath id="clip0_96_5479">
<rect width="339" height="275" fill="white"/>
</clipPath>
</defs>
</svg>
