<svg id="E-sign_verified" data-name="E-sign verified" xmlns="http://www.w3.org/2000/svg" width="229.351" height="214" viewBox="0 0 229.351 214">
  <g id="signing-terms-of-services" transform="translate(-303 6.651)">
    <ellipse id="Ellipse_202" data-name="Ellipse 202" cx="114.676" cy="18.546" rx="114.676" ry="18.546" transform="translate(303 170.257)" opacity="0.1"/>
    <rect id="Rectangle_2296" data-name="Rectangle 2296" width="133.107" height="181.507" transform="translate(330.339)" fill="#dce7f0"/>
    <path id="Path_6751" data-name="Path 6751" d="M694.007,219.507H560.9V62.479L580.579,38H694.007Z" transform="translate(-208.386 -30.704)" fill="#f8fcff"/>
    <path id="Path_6752" data-name="Path 6752" d="M580.579,38V62.479H560.9Z" transform="translate(-208.386 -30.704)" fill="#f2f2f2"/>
    <rect id="Rectangle_2297" data-name="Rectangle 2297" width="72.38" height="2.822" transform="translate(375.054 49.034)" fill="#c6cbdb"/>
    <rect id="Rectangle_2298" data-name="Rectangle 2298" width="11.903" height="2.822" transform="translate(451.159 49.034)" fill="#c6cbdb"/>
    <rect id="Rectangle_2299" data-name="Rectangle 2299" width="24.248" height="2.822" transform="translate(375.054 80.77)" fill="#c6cbdb"/>
    <rect id="Rectangle_2300" data-name="Rectangle 2300" width="60.938" height="2.822" transform="translate(402.144 80.77)" fill="#c6cbdb"/>
    <rect id="Rectangle_2301" data-name="Rectangle 2301" width="24.248" height="2.822" transform="translate(375.054 64.912)" fill="#c6cbdb"/>
    <rect id="Rectangle_2302" data-name="Rectangle 2302" width="26.015" height="2.822" transform="translate(404.678 64.912)" fill="#c6cbdb"/>
    <rect id="Rectangle_2303" data-name="Rectangle 2303" width="29.797" height="2.822" transform="translate(433.265 64.912)" fill="#c6cbdb"/>
    <g id="Group_5487" data-name="Group 5487" transform="translate(375.076 112.503)">
      <rect id="Rectangle_2304" data-name="Rectangle 2304" width="72.38" height="2.822" transform="translate(87.989 2.822) rotate(180)" fill="#c6cbdb"/>
      <rect id="Rectangle_2305" data-name="Rectangle 2305" width="11.903" height="2.822" transform="translate(11.903 2.822) rotate(180)" fill="#c6cbdb"/>
    </g>
    <g id="Group_5488" data-name="Group 5488" transform="translate(375.076 128.361)">
      <rect id="Rectangle_2306" data-name="Rectangle 2306" width="72.38" height="2.822" transform="translate(87.989 2.822) rotate(180)" fill="#c6cbdb"/>
      <rect id="Rectangle_2307" data-name="Rectangle 2307" width="11.903" height="2.822" transform="translate(11.903 2.822) rotate(180)" fill="#c6cbdb"/>
    </g>
    <g id="Group_5489" data-name="Group 5489" transform="translate(375.075 96.626)">
      <rect id="Rectangle_2308" data-name="Rectangle 2308" width="24.248" height="2.822" transform="translate(87.994 2.822) rotate(180)" fill="#c6cbdb"/>
      <rect id="Rectangle_2309" data-name="Rectangle 2309" width="26.015" height="2.822" transform="translate(58.377 2.822) rotate(180)" fill="#c6cbdb"/>
      <rect id="Rectangle_2310" data-name="Rectangle 2310" width="29.797" height="2.822" transform="translate(29.797 2.822) rotate(180)" fill="#c6cbdb"/>
    </g>
    <g id="Group_5490" data-name="Group 5490" transform="translate(375.054 144.6)">
      <path id="Path_6753" data-name="Path 6753" d="M679.318,769.719l-1.018-2.035c.038-.019,2.707-1.344,5.74-3.149a9.686,9.686,0,0,1-1.056-1.651c-2.573-5.011-.48-7.507.538-8.332,2.5-2.054,7.18-1.8,10.214.576a2.718,2.718,0,0,1,1.094,2.458c-.134,1.248-1.018,3.341-6.988,7.257a10.349,10.349,0,0,0,4.838,1.267c4.646.154,8.889-1.881,9.561-3l2.016-3.379.1,3.936c.019.826.346,1.939.71,2.054.058.019,1.229.346,4.55-3.878l1.786,1.4c-2.976,3.782-5.222,5.261-7.065,4.646a3.191,3.191,0,0,1-1.862-2,18.461,18.461,0,0,1-9.887,2.515,11.871,11.871,0,0,1-6.854-2.227C682.428,768.164,679.452,769.643,679.318,769.719Zm8.544-14.3a4.537,4.537,0,0,0-2.9.883c-1.709,1.4-.691,4.07.058,5.529a7.6,7.6,0,0,0,.979,1.478c5.894-3.763,6.508-5.51,6.566-5.971.019-.1.019-.23-.23-.442A7.573,7.573,0,0,0,687.861,755.416Z" transform="translate(-678.3 -753.163)" fill="#707070"/>
    </g>
    <g id="Group_5491" data-name="Group 5491" transform="translate(410.188 27.607)">
      <path id="Path_6754" data-name="Path 6754" d="M1148.054,160.057s-5.414-6.163-3.686-10.195,7.3-3.456,8.063-4.992,10.195-1.862,10.924,1.978,6.24,12.633-1.785,15.59A13.307,13.307,0,0,1,1148.054,160.057Z" transform="translate(-1089.747 -143.795)" fill="#33143f"/>
      <path id="Path_6755" data-name="Path 6755" d="M1152.068,286.775s1.593,19.583-.307,24.863-8.236,24.978-8.236,24.978l-3.725-1.785s3.072-16.377,4.992-25.707c1.92-9.35,3.3-24.728,5.913-30.622Z" transform="translate(-1086.331 -252.638)" fill="#f4a28c"/>
      <path id="Path_6756" data-name="Path 6756" d="M1210.893,490.154s-2.093,25.4-2.093,29.816v51.473h5.568s5.952-40.721,6.144-46.289,5.049-29.01,5.049-29.01S1229.881,474.929,1210.893,490.154Z" transform="translate(-1142.083 -419.212)" fill="#4a4848"/>
      <path id="Path_6757" data-name="Path 6757" d="M1292.8,510.281s2,29.259,3.149,34.347S1314,588.69,1314,588.69h5.376s-9.657-39.07-11.961-43.39.883-39.3.883-39.3Z" transform="translate(-1209.956 -436.46)" fill="#4a4848"/>
      <path id="Path_6758" data-name="Path 6758" d="M1200,244.578s21.58-17.356,30.162,59.094H1197.5a33.83,33.83,0,0,0,1.786-16.8C1196.712,268.807,1188.053,245.941,1200,244.578Z" transform="translate(-1129.996 -223.861)" fill="#fcbc54"/>
      <path id="Path_6759" data-name="Path 6759" d="M1111.921,355.3l3.763,5.395L1034.7,421.21l-7.6-10.924Z" transform="translate(-995.268 -314.693)" fill="#002f7d"/>
      <path id="Path_6760" data-name="Path 6760" d="M1202.1,503.6" transform="translate(-1136.67 -434.521)" fill="#ffe3ca"/>
      <path id="Path_6761" data-name="Path 6761" d="M992.226,651.824l-8.179,5.7a5.049,5.049,0,0,1-7.027-1.248l-1.843-2.65a5.048,5.048,0,0,1,1.248-7.027l8.179-5.7Z" transform="translate(-952.58 -545.461)" fill="#002f7d"/>
      <path id="Path_6762" data-name="Path 6762" d="M871.571,704.832,861.3,720.211l7.968-5.549a7.921,7.921,0,0,1,2.5-3.11c2.054-1.44,4.128-2.016,4.627-1.306s-.768,2.457-2.822,3.9a7.83,7.83,0,0,1-3.782,1.267l-7.968,5.549,17.97-4.3s8.947-9.638,6.432-13.266C883.724,699.764,871.571,704.832,871.571,704.832Z" transform="translate(-861.3 -594.898)" fill="#3e8fc2"/>
      <path id="Path_6763" data-name="Path 6763" d="M1233.728,304.058l9.1-4.358s11.712,18.585,13.19,26.533-21.56,20.6-21.56,20.6l-1.44-1.4s13.4-15.359,16.972-18.316Zm-.71,41.374a4.251,4.251,0,0,0-2.611,0c-1.92.384-4.224,2.937-4.224,2.937s-1.306.864,3.456-.25c0,0-5.126,4.185-7.046,5.625s5.433,3.36,11.865-6.912Z" transform="translate(-1152.978 -269.768)" fill="#f4a28c"/>
      <path id="Path_6764" data-name="Path 6764" d="M1257.8,228.5" transform="translate(-1181.676 -212.237)" fill="#ffe3ca"/>
      <path id="Path_6765" data-name="Path 6765" d="M1196.919,263.675l9.119-6.3s-5.76-14.783-17.241-14.5C1186.859,242.94,1183.96,247.855,1196.919,263.675Zm-23.519,3.187,8.025,1.4-1.267-22.424a9.3,9.3,0,0,0-4.608,6.028C1174.629,256.111,1173.4,266.862,1173.4,266.862Z" transform="translate(-1113.48 -223.855)" fill="#ffbe55"/>
      <path id="Path_6766" data-name="Path 6766" d="M1204.734,229.286s5.241-.9,4.665-3.974l-3.341-6.912-4.358,2.63Z" transform="translate(-1136.347 -204.077)" fill="#f4a28c"/>
      <path id="Path_6767" data-name="Path 6767" d="M1158.177,187.052c.173,6.22,5.664,11.174,9.427,10.713a6.691,6.691,0,0,0,6.182-7.545,5.125,5.125,0,0,0,.979-3.245c-.173-2.784-1.939-2.553-1.939-.826,0,2.918-.5-.134-.883-2.4s-2.458,5.011-6.086,4.07C1158.37,185.92,1158,180.851,1158.177,187.052Z" transform="translate(-1101.156 -175.724)" fill="#f4a28c"/>
      <path id="Path_6768" data-name="Path 6768" d="M1160.823,936.7a3.591,3.591,0,0,1-2.88,2.553c-3.878.614-7.814.883-8.313,3.341-.518,2.457,0,1.92,0,1.92H1161.8s1.92-1.344,3.456,0h2.937s-.634-4.819-.768-5.587a9.25,9.25,0,0,0-1.018-2.227Zm37.188,0s.96,1.785-2.88,2.553c-3.84.787-7.814.883-8.313,3.341-.518,2.457,0,1.92,0,1.92h12.172s1.92-1.344,3.456,0h2.938s-.634-4.819-.768-5.587a9.249,9.249,0,0,0-1.018-2.227Z" transform="translate(-1094.088 -784.47)" fill="#ffbe55"/>
    </g>
  </g>
  <g id="Group_5492" data-name="Group 5492" transform="translate(-61.324 -320)">
    <g id="Group_3209" data-name="Group 3209" transform="translate(68.32 320)">
      <g id="Group_3202" data-name="Group 3202">
        <circle id="Ellipse_203" data-name="Ellipse 203" cx="45.5" cy="45.5" r="45.5" transform="translate(-0.32)" fill="#fff"/>
        <g id="Group_3201" data-name="Group 3201">
          <path id="Path_3677" data-name="Path 3677" d="M204.721,305.932a45.339,45.339,0,1,1,45.233,45.445A45.391,45.391,0,0,1,204.721,305.932Zm89.846.211a44.507,44.507,0,1,0-44.611,44.4A44.556,44.556,0,0,0,294.567,306.143Z" transform="translate(-204.721 -260.699)" fill="#0e9823"/>
        </g>
      </g>
      <g id="Group_3204" data-name="Group 3204" transform="translate(5.169 5.794)">
        <g id="Group_3203" data-name="Group 3203">
          <path id="Path_3678" data-name="Path 3678" d="M208.278,304.137a39.544,39.544,0,1,1,39.451,39.637A39.59,39.59,0,0,1,208.278,304.137Zm73.254.173a33.71,33.71,0,1,0-33.789,33.63A33.748,33.748,0,0,0,281.532,304.31Z" transform="translate(-208.278 -264.686)" fill="#0e9823"/>
        </g>
      </g>
      <g id="Group_3206" data-name="Group 3206" transform="translate(14.9 32.709)">
        <g id="Group_3205" data-name="Group 3205">
          <path id="Path_3679" data-name="Path 3679" d="M214.974,296.322a28.951,28.951,0,0,1,3.135-13.116l5.2,2.632a23.177,23.177,0,0,0-2.505,10.5,23.426,23.426,0,0,0,35.623,20.049l3.045,4.976a29.26,29.26,0,0,1-44.5-25.04Z" transform="translate(-214.974 -283.206)" fill="#0e9823"/>
        </g>
      </g>
      <g id="Group_3208" data-name="Group 3208" transform="translate(30.654 16.64)">
        <g id="Group_3207" data-name="Group 3207">
          <path id="Path_3680" data-name="Path 3680" d="M225.814,275.445a29.26,29.26,0,0,1,38.26,41.545l-4.934-3.113a23.428,23.428,0,0,0-30.631-33.26Z" transform="translate(-225.814 -272.149)" fill="#0e9823"/>
        </g>
      </g>
    </g>
  </g>
  <g id="Group_3236" data-name="Group 3236" transform="translate(24.031 156.817)">
    <path id="Path_3694" data-name="Path 3694" d="M34.314,282.005l36.454-3.451,8.777,4.013-7.006,7.881L35.51,294.44Z" transform="translate(-34.314 -278.554)" fill="#9f7738"/>
  </g>
  <text id="e_-_sign" data-name="e - sign" transform="matrix(0.995, -0.095, 0.095, 0.995, 27.93, 167.269)" fill="#fafafa" font-size="5" font-family="Montserrat-Bold, Montserrat" font-weight="700"><tspan x="0" y="0">e - sign</tspan></text>
  <text id="VERIFIED" transform="translate(72.865 115.373) rotate(-30)" fill="#0e9823" font-size="18" font-family="Montserrat-Bold, Montserrat" font-weight="700"><tspan x="0" y="17">VERIFIED</tspan></text>
  <path id="Path_6905" data-name="Path 6905" d="M1510.077,1324.97l11.128,15.5,14.944-32.2-16.608,21.125Z" transform="translate(-1472.735 -1277.277)" fill="#6caf4c"/>
</svg>
