<svg width="24" height="24" viewBox="0 0 24 24" fill="none" xmlns="http://www.w3.org/2000/svg">
<path d="M12 24C18.6274 24 24 18.6274 24 12C24 5.37258 18.6274 0 12 0C5.37258 0 0 5.37258 0 12C0 18.6274 5.37258 24 12 24Z" fill="#1D478E"/>
<path d="M6 17.0443V15.9078C6 15.6924 6.04358 15.4832 6.13075 15.28C6.21792 15.0767 6.33392 14.9026 6.47875 14.7578L14.9443 6.2925C15.0544 6.18217 15.1704 6.10583 15.2923 6.0635C15.4141 6.02117 15.5423 6 15.677 6C15.8027 6 15.9254 6.02117 16.0452 6.0635C16.1651 6.10583 16.2738 6.17575 16.3713 6.27325L17.4827 7.352C17.5891 7.46233 17.6698 7.58383 17.725 7.7165C17.7802 7.84917 17.8078 7.98283 17.8078 8.1175C17.8078 8.252 17.7875 8.37917 17.747 8.499C17.7067 8.619 17.6314 8.73408 17.5212 8.84425L8.998 17.3675C8.85317 17.5123 8.67917 17.6293 8.476 17.7183C8.27283 17.8074 8.0635 17.852 7.848 17.852H6.80775C6.57558 17.852 6.38292 17.7754 6.22975 17.6223C6.07658 17.4691 6 17.2764 6 17.0443ZM7 16.852H8.09225L14.7578 10.1865L14.2115 9.6405L13.602 9.05575L7 15.6578V16.852Z" fill="white"/>
</svg>
