<svg width="140" height="120" viewBox="0 0 140 120" fill="none" xmlns="http://www.w3.org/2000/svg">
<path d="M126.756 61.6808C121.854 61.815 117.992 65.7909 118.13 70.5617C118.268 75.3308 122.355 79.0892 127.259 78.9531C132.162 78.8189 136.026 74.8429 135.886 70.0721C135.747 65.3032 131.661 61.5464 126.756 61.6808ZM134.154 70.1203C134.208 71.9769 133.515 73.7427 132.203 75.0929C130.892 76.443 129.12 77.2163 127.21 77.2687C123.271 77.3764 119.974 74.3471 119.864 70.5134C119.81 68.6571 120.501 66.891 121.813 65.5409C123.078 64.2386 124.774 63.473 126.607 63.3741C126.674 63.3703 126.739 63.3686 126.806 63.3669C130.682 63.2591 133.932 66.1894 134.145 69.9305C134.149 69.9938 134.152 70.057 134.154 70.1203Z" fill="#FFA0A8"/>
<path d="M134.146 69.931C134.149 69.9941 134.153 70.0575 134.155 70.1208C134.208 71.9772 133.516 73.7432 132.203 75.0934C130.892 76.4435 129.12 77.217 127.21 77.2694C123.271 77.377 119.974 74.3476 119.864 70.5139C119.81 68.6576 120.501 66.8915 121.813 65.5412C123.078 64.2389 124.774 63.4732 126.607 63.3742C126.674 63.3706 126.739 63.3689 126.806 63.367C130.682 63.2592 133.932 66.1897 134.146 69.931Z" fill="#EE3D4B"/>
<path d="M128.005 67.0155L127.864 72.1352H126.833L126.692 67.0155H128.005ZM127.386 74.4258C127.162 74.4258 126.974 74.3519 126.822 74.2041C126.67 74.0563 126.594 73.8734 126.594 73.6552C126.594 73.4371 126.67 73.2541 126.822 73.1063C126.974 72.9585 127.162 72.8846 127.386 72.8846C127.603 72.8846 127.788 72.9585 127.94 73.1063C128.092 73.2541 128.168 73.4371 128.168 73.6552C128.168 73.8734 128.092 74.0563 127.94 74.2041C127.788 74.3519 127.603 74.4258 127.386 74.4258Z" fill="#FFF3EB"/>
<path d="M17.1452 8C17.1452 3.58172 20.7269 0 25.1452 0H105.423C109.841 0 113.423 3.58172 113.423 8V112C113.423 116.418 109.841 120 105.423 120H25.1452C20.7269 120 17.1452 116.418 17.1452 112V8Z" fill="#EAF8FD"/>
<path d="M36.0411 27.6964H94.5268C95.6311 27.6964 96.5262 27.5217 96.5262 27.3061V26.6232C96.5262 26.4077 95.6311 26.233 94.5268 26.233H36.0411C34.9367 26.233 34.0416 26.4077 34.0416 26.6232V27.3061C34.0414 27.5217 34.9367 27.6964 36.0411 27.6964Z" fill="#1D478E"/>
<path d="M136.587 87.0847H92.2144C90.3293 87.0847 88.8011 88.5712 88.8011 90.4051V116.304C88.8011 118.138 90.3293 119.624 92.2144 119.624H136.587C138.472 119.624 140 118.138 140 116.304V90.4051C140 88.5712 138.472 87.0847 136.587 87.0847Z" fill="#62DBFB"/>
<path d="M136.587 87.0847H131.125C133.011 87.0847 134.539 88.5712 134.539 90.4051V116.304C134.539 118.138 133.011 119.624 131.125 119.624H136.587C138.472 119.624 140 118.138 140 116.304V90.4051C140 88.5712 138.472 87.0847 136.587 87.0847Z" fill="#01D0FB"/>
<path d="M133.337 99.038H125.827C125.073 99.038 124.462 98.4434 124.462 97.7099V93.7253C124.462 92.9918 125.073 92.3972 125.827 92.3972H133.337C134.091 92.3972 134.702 92.9918 134.702 93.7253V97.7099C134.702 98.4434 134.091 99.038 133.337 99.038Z" fill="#FFD15B"/>
<path d="M100.102 112.188H95.3287C94.6494 112.188 94.0987 111.653 94.0987 110.992C94.0987 110.331 94.6494 109.795 95.3287 109.795H100.102C100.781 109.795 101.332 110.331 101.332 110.992C101.332 111.653 100.781 112.188 100.102 112.188Z" fill="#1D478E"/>
<path d="M111.225 112.188H106.452C105.773 112.188 105.222 111.653 105.222 110.992C105.222 110.331 105.773 109.795 106.452 109.795H111.225C111.904 109.795 112.455 110.331 112.455 110.992C112.455 111.653 111.904 112.188 111.225 112.188Z" fill="#1D478E"/>
<path d="M122.349 112.188H117.575C116.896 112.188 116.345 111.653 116.345 110.992C116.345 110.331 116.896 109.795 117.575 109.795H122.349C123.028 109.795 123.579 110.331 123.579 110.992C123.579 111.653 123.028 112.188 122.349 112.188Z" fill="#1D478E"/>
<path d="M133.472 112.188H128.699C128.02 112.188 127.469 111.653 127.469 110.992C127.469 110.331 128.02 109.795 128.699 109.795H133.472C134.151 109.795 134.702 110.331 134.702 110.992C134.702 111.653 134.151 112.188 133.472 112.188Z" fill="#1D478E"/>
<path d="M102.764 51.7442H55.6618C54.667 51.7442 53.8605 51.4167 53.8605 51.0125C53.8605 50.6083 54.667 50.2808 55.6618 50.2808H102.764C103.759 50.2808 104.565 50.6083 104.565 51.0125C104.565 51.4167 103.759 51.7442 102.764 51.7442Z" fill="#62DBFB"/>
<path d="M102.764 59.5247H55.6618C54.667 59.5247 53.8605 59.1972 53.8605 58.793C53.8605 58.3888 54.667 58.0613 55.6618 58.0613H102.764C103.759 58.0613 104.565 58.3888 104.565 58.793C104.565 59.1972 103.759 59.5247 102.764 59.5247Z" fill="#62DBFB"/>
<path d="M41.8006 51.7442H27.8041C26.8093 51.7442 26.0028 51.4167 26.0028 51.0125C26.0028 50.6083 26.8093 50.2808 27.8041 50.2808H41.8006C42.7954 50.2808 43.6019 50.6083 43.6019 51.0125C43.6019 51.4167 42.7954 51.7442 41.8006 51.7442Z" fill="#62DBFB"/>
<path d="M41.8006 59.5247H27.8041C26.8093 59.5247 26.0028 59.1972 26.0028 58.793C26.0028 58.3888 26.8093 58.0613 27.8041 58.0613H41.8006C42.7954 58.0613 43.6019 58.3888 43.6019 58.793C43.6019 59.1972 42.7954 59.5247 41.8006 59.5247Z" fill="#62DBFB"/>
<path d="M102.764 67.3052H55.6618C54.667 67.3052 53.8605 66.9776 53.8605 66.5734C53.8605 66.1692 54.667 65.8417 55.6618 65.8417H102.764C103.759 65.8417 104.565 66.1692 104.565 66.5734C104.565 66.9776 103.759 67.3052 102.764 67.3052Z" fill="#62DBFB"/>
<path d="M41.8006 67.3052H27.8041C26.8093 67.3052 26.0028 66.9776 26.0028 66.5734C26.0028 66.1692 26.8093 65.8417 27.8041 65.8417H41.8006C42.7954 65.8417 43.6019 66.1692 43.6019 66.5734C43.6019 66.9776 42.7954 67.3052 41.8006 67.3052Z" fill="#62DBFB"/>
<path d="M34.238 109.951L28.757 100.381V99.1052H29.395C30.4197 99.1052 31.28 99.0086 31.976 98.8152C32.6914 98.6219 33.252 98.3029 33.658 97.8582C34.064 97.4136 34.3057 96.8046 34.383 96.0312H28.757V94.1752H34.354C34.2187 93.4599 33.948 92.8799 33.542 92.4352C33.136 91.9712 32.585 91.6329 31.889 91.4202C31.2124 91.2076 30.381 91.1012 29.395 91.1012H28.757V89.2452H40.763V91.1012H35.282C35.7267 91.4686 36.094 91.9036 36.384 92.4062C36.674 92.9089 36.8577 93.4986 36.935 94.1752H40.763V96.0312H36.993C36.8577 97.4426 36.3164 98.5446 35.369 99.3372C34.441 100.111 33.2037 100.604 31.657 100.816L37.196 109.951H34.238Z" fill="#1D478E"/>
<path d="M12.7613 66.1858C5.5117 66.3843 -0.198776 72.2636 0.00530398 79.3185C0.209598 86.3708 6.25331 91.9287 13.5055 91.7274C20.755 91.5289 26.4684 85.6494 26.2615 78.5945C26.0571 71.5424 20.0137 65.9871 12.7613 66.1858ZM23.701 78.6659C23.7804 81.4112 22.7562 84.0225 20.8153 86.019C18.8769 88.0156 16.2565 89.1591 13.4321 89.2366C7.60704 89.3958 2.73229 84.9162 2.56861 79.2471C2.48897 76.502 3.5106 73.8905 5.45156 71.894C7.32219 69.9682 9.83026 68.8361 12.5406 68.6898C12.6394 68.6842 12.7358 68.6817 12.8347 68.6792C18.566 68.5197 23.372 72.8529 23.6878 78.3851C23.6929 78.4788 23.6984 78.5722 23.701 78.6659Z" fill="#FFA0A8"/>
<path d="M23.6885 78.3855C23.694 78.4789 23.6991 78.5726 23.7017 78.6663C23.7814 81.4113 22.757 84.0229 20.816 86.0194C18.8776 88.016 16.2573 89.1598 13.4326 89.2373C7.60758 89.3964 2.73243 84.9166 2.56885 79.2475C2.48918 76.5024 3.5108 73.8909 5.45201 71.8941C7.32246 69.9683 9.83074 68.836 12.5411 68.6896C12.6399 68.6843 12.7362 68.6818 12.8354 68.679C18.5667 68.5195 23.3728 72.853 23.6885 78.3855Z" fill="#EE3D4B"/>
<path d="M14.6077 74.0746L14.3991 81.6454H12.8747L12.6661 74.0746H14.6077ZM13.6931 85.0327C13.3615 85.0327 13.0833 84.9234 12.8587 84.7049C12.6341 84.4864 12.5217 84.2158 12.5217 83.8932C12.5217 83.5706 12.6341 83.3 12.8587 83.0815C13.0833 82.8629 13.3615 82.7537 13.6931 82.7537C14.014 82.7537 14.2868 82.8629 14.5115 83.0815C14.7361 83.3 14.8484 83.5706 14.8484 83.8932C14.8484 84.2158 14.7361 84.4864 14.5115 84.7049C14.2868 84.9234 14.014 85.0327 13.6931 85.0327Z" fill="#FFF3EB"/>
<path d="M113.502 7.6038C106.253 7.80229 100.542 13.6816 100.746 20.7364C100.951 27.7888 106.994 33.3467 114.246 33.1454C121.496 32.9469 127.209 27.0673 127.002 20.0125C126.798 12.9604 120.755 7.40504 113.502 7.6038ZM124.442 20.0838C124.521 22.8292 123.497 25.4404 121.556 27.437C119.618 29.4335 116.997 30.5771 114.173 30.6546C108.348 30.8137 103.473 26.3342 103.31 20.6651C103.23 17.92 104.252 15.3085 106.192 13.3119C108.063 11.3862 110.571 10.2541 113.282 10.1077C113.38 10.1022 113.477 10.0996 113.576 10.0971C119.307 9.93768 124.113 14.2709 124.429 19.8031C124.434 19.8968 124.439 19.9902 124.442 20.0838Z" fill="#FFA0A8"/>
<path d="M124.429 19.8035C124.435 19.8968 124.44 19.9905 124.443 20.0842C124.522 22.8292 123.498 25.4408 121.557 27.4373C119.619 29.4339 116.998 30.5777 114.173 30.6552C108.348 30.8144 103.473 26.3345 103.31 20.6654C103.23 17.9204 104.252 15.3088 106.193 13.312C108.063 11.3862 110.572 10.2539 113.282 10.1075C113.381 10.1022 113.477 10.0997 113.576 10.0969C119.308 9.93746 124.114 14.271 124.429 19.8035Z" fill="#EE3D4B"/>
<path d="M115.349 15.4926L115.14 23.0633H113.616L113.407 15.4926H115.349ZM114.434 26.4506C114.102 26.4506 113.824 26.3413 113.6 26.1228C113.375 25.9043 113.263 25.6337 113.263 25.3111C113.263 24.9885 113.375 24.7179 113.6 24.4994C113.824 24.2808 114.102 24.1716 114.434 24.1716C114.755 24.1716 115.028 24.2808 115.252 24.4994C115.477 24.7179 115.589 24.9885 115.589 25.3111C115.589 25.6337 115.477 25.9043 115.252 26.1228C115.028 26.3413 114.755 26.4506 114.434 26.4506Z" fill="#FFF3EB"/>
</svg>
