<svg xmlns="http://www.w3.org/2000/svg" width="139.596" height="123" viewBox="0 0 139.596 123">
  <g id="Group_7306" data-name="Group 7306" transform="translate(-108.904 -153)">
    <g id="bill" transform="translate(125.885 153)">
      <g id="Group_7174" data-name="Group 7174" transform="translate(0 0)">
        <rect id="Rectangle_2422" data-name="Rectangle 2422" width="96" height="123" rx="8" transform="translate(0.115)" fill="#eaf8fd"/>
      </g>
      <g id="Group_7176" data-name="Group 7176" transform="translate(16.963 26.889)">
        <g id="Group_7175" data-name="Group 7175">
          <path id="Path_8786" data-name="Path 8786" d="M69.637,134.657h58.317c1.1,0,1.994-.179,1.994-.4v-.7c0-.221-.893-.4-1.994-.4H69.637c-1.1,0-1.994.179-1.994.4v.7C67.643,134.478,68.536,134.657,69.637,134.657Z" transform="translate(-67.643 -133.157)" fill="#1d478e"/>
        </g>
      </g>
      <g id="Group_7180" data-name="Group 7180" transform="translate(71.564 89.262)">
        <g id="Group_7177" data-name="Group 7177" transform="translate(0 0)">
          <path id="Path_8787" data-name="Path 8787" d="M247.453,308.033H203.208a3.4,3.4,0,0,0-3.4,3.4v26.546a3.4,3.4,0,0,0,3.4,3.4h44.244a3.4,3.4,0,0,0,3.4-3.4V311.436A3.4,3.4,0,0,0,247.453,308.033Z" transform="translate(-199.805 -308.033)" fill="#62dbfb"/>
        </g>
        <g id="Group_7178" data-name="Group 7178" transform="translate(42.202 0)">
          <path id="Path_8788" data-name="Path 8788" d="M463.331,308.033h-5.445a3.4,3.4,0,0,1,3.4,3.4v26.546a3.4,3.4,0,0,1-3.4,3.4h5.445a3.4,3.4,0,0,0,3.4-3.4V311.436A3.4,3.4,0,0,0,463.331,308.033Z" transform="translate(-457.886 -308.033)" fill="#01d0fb"/>
        </g>
        <g id="Group_7179" data-name="Group 7179" transform="translate(35.558 5.445)">
          <path id="Path_8789" data-name="Path 8789" d="M426.1,348.14h-7.488a1.361,1.361,0,0,1-1.361-1.361v-4.084a1.361,1.361,0,0,1,1.361-1.361H426.1a1.361,1.361,0,0,1,1.361,1.361v4.084A1.361,1.361,0,0,1,426.1,348.14Z" transform="translate(-417.256 -341.333)" fill="#ffd15b"/>
        </g>
      </g>
      <g id="Group_7182" data-name="Group 7182" transform="translate(76.847 112.54)">
        <path id="Path_8794" data-name="Path 8794" d="M238.1,452.839h-4.759a1.226,1.226,0,1,1,0-2.453H238.1a1.226,1.226,0,1,1,0,2.453Z" transform="translate(-232.11 -450.386)" fill="#1d478e"/>
      </g>
      <g id="Group_7183" data-name="Group 7183" transform="translate(87.938 112.54)">
        <path id="Path_8795" data-name="Path 8795" d="M305.923,452.839h-4.759a1.226,1.226,0,0,1,0-2.453h4.759a1.226,1.226,0,0,1,0,2.453Z" transform="translate(-299.937 -450.386)" fill="#1d478e"/>
      </g>
      <g id="Group_7184" data-name="Group 7184" transform="translate(99.029 112.54)">
        <path id="Path_8796" data-name="Path 8796" d="M373.749,452.839h-4.759a1.226,1.226,0,0,1,0-2.453h4.759a1.226,1.226,0,1,1,0,2.453Z" transform="translate(-367.763 -450.386)" fill="#1d478e"/>
      </g>
      <g id="Group_7185" data-name="Group 7185" transform="translate(110.121 112.54)">
        <path id="Path_8797" data-name="Path 8797" d="M441.576,452.839h-4.759a1.226,1.226,0,1,1,0-2.453h4.759a1.226,1.226,0,1,1,0,2.453Z" transform="translate(-435.59 -450.386)" fill="#1d478e"/>
      </g>
      <g id="Group_7186" data-name="Group 7186" transform="translate(36.725 51.538)">
        <path id="Path_8799" data-name="Path 8799" d="M198.877,200H151.911c-.992,0-1.8-.336-1.8-.75s.8-.75,1.8-.75h46.966c.992,0,1.8.336,1.8.75S199.869,200,198.877,200Z" transform="translate(-150.115 -198.502)" fill="#62dbfb"/>
      </g>
      <g id="Group_7187" data-name="Group 7187" transform="translate(36.725 59.513)">
        <path id="Path_8800" data-name="Path 8800" d="M198.877,233.3H151.911c-.992,0-1.8-.336-1.8-.75s.8-.75,1.8-.75h46.966c.992,0,1.8.336,1.8.75S199.869,233.3,198.877,233.3Z" transform="translate(-150.115 -231.803)" fill="#62dbfb"/>
      </g>
      <g id="Group_7188" data-name="Group 7188" transform="translate(8.947 51.538)">
        <path id="Path_8801" data-name="Path 8801" d="M49.878,200H35.922c-.992,0-1.8-.336-1.8-.75s.8-.75,1.8-.75H49.878c.992,0,1.8.336,1.8.75S50.87,200,49.878,200Z" transform="translate(-34.126 -198.502)" fill="#62dbfb"/>
      </g>
      <g id="Group_7189" data-name="Group 7189" transform="translate(8.947 59.513)">
        <path id="Path_8802" data-name="Path 8802" d="M49.878,233.3H35.922c-.992,0-1.8-.336-1.8-.75s.8-.75,1.8-.75H49.878c.992,0,1.8.336,1.8.75S50.87,233.3,49.878,233.3Z" transform="translate(-34.126 -231.803)" fill="#62dbfb"/>
      </g>
      <g id="Group_7190" data-name="Group 7190" transform="translate(36.725 67.488)">
        <path id="Path_8803" data-name="Path 8803" d="M198.877,266.6H151.911c-.992,0-1.8-.336-1.8-.75s.8-.75,1.8-.75h46.966c.992,0,1.8.336,1.8.75S199.869,266.6,198.877,266.6Z" transform="translate(-150.115 -265.104)" fill="#62dbfb"/>
      </g>
      <g id="Group_7191" data-name="Group 7191" transform="translate(8.947 67.488)">
        <path id="Path_8804" data-name="Path 8804" d="M49.878,266.6H35.922c-.992,0-1.8-.336-1.8-.75s.8-.75,1.8-.75H49.878c.992,0,1.8.336,1.8.75S50.87,266.6,49.878,266.6Z" transform="translate(-34.126 -265.104)" fill="#62dbfb"/>
      </g>
      <text id="_" data-name="₹" transform="translate(18.115 113)" fill="#1d478e" font-size="29" font-family="Figtree-Medium, Figtree" font-weight="500" letter-spacing="0.016em"><tspan x="-8" y="0">₹</tspan></text>
    </g>
    <g id="Group_7301" data-name="Group 7301" transform="translate(-2723 -880.76)">
      <path id="Path_8857" data-name="Path 8857" d="M232.909,12.876a8.856,8.856,0,1,0,9.1,8.6,8.855,8.855,0,0,0-9.1-8.6m7.377,8.651a7.128,7.128,0,1,1-7.525-6.915c.067,0,.132-.006.2-.007a7.135,7.135,0,0,1,7.318,6.728c0,.065.007.13.009.195" transform="translate(2725.385 1084.107)" fill="#fcc659"/>
      <path id="Path_8858" data-name="Path 8858" d="M247.5,28.55c0,.065.007.13.009.195a7.128,7.128,0,1,1-7.526-6.915c.067,0,.132-.005.2-.007A7.136,7.136,0,0,1,247.5,28.55" transform="translate(2718.167 1076.89)" fill="#f49b51"/>
      <path id="Path_8859" data-name="Path 8859" d="M284.648,81.4a2.432,2.432,0,0,1,1.105,1.16A2.438,2.438,0,0,1,286.86,81.4a2.434,2.434,0,0,1-1.107-1.16,2.436,2.436,0,0,1-1.105,1.162" transform="translate(2676.702 1029.759)" fill="#ffe6a6"/>
      <path id="Path_8860" data-name="Path 8860" d="M275.118,93.413a.643.643,0,1,0,1.285,0,.643.643,0,1,0-1.285,0" transform="translate(2684.391 1019.674)" fill="#ffe6a6"/>
      <text id="_2" data-name="₹" transform="translate(2958.546 1109.157)" fill="#ffe6a6" font-size="8" font-family="Figtree-Medium, Figtree" font-weight="500" letter-spacing="0.016em"><tspan x="-2" y="0">₹</tspan></text>
    </g>
    <g id="Group_7302" data-name="Group 7302" transform="translate(-2840.786 -876.144)">
      <path id="Path_8857-2" data-name="Path 8857" d="M237.029,12.878A13.1,13.1,0,1,0,250.49,25.6a13.095,13.095,0,0,0-13.461-12.719M247.937,25.67a10.54,10.54,0,1,1-11.128-10.226c.1-.006.195-.008.293-.011a10.551,10.551,0,0,1,10.822,9.949c.005.1.011.192.013.288" transform="translate(2725.385 1084.107)" fill="#fcc659"/>
      <path id="Path_8858-2" data-name="Path 8858" d="M254.315,31.772c.005.1.011.192.013.288A10.54,10.54,0,1,1,243.2,21.834c.1-.005.195-.008.293-.011a10.552,10.552,0,0,1,10.822,9.949" transform="translate(2718.995 1077.717)" fill="#f49b51"/>
      <path id="Path_8859-2" data-name="Path 8859" d="M284.648,81.956a3.6,3.6,0,0,1,1.635,1.715,3.605,3.605,0,0,1,1.636-1.718,3.6,3.6,0,0,1-1.636-1.715,3.6,3.6,0,0,1-1.635,1.718" transform="translate(2682.285 1035.991)" fill="#ffe6a6"/>
      <path id="Path_8860-2" data-name="Path 8860" d="M275.118,93.736a2.089,2.089,0,0,1,.95,1,2.1,2.1,0,0,1,.951-1,2.091,2.091,0,0,1-.951-1,2.093,2.093,0,0,1-.95,1" transform="translate(2689.091 1027.062)" fill="#ffe6a6"/>
      <text id="_3" data-name="₹" transform="translate(2962.881 1114.479)" fill="#ffe6a6" font-size="12" font-family="Figtree-Medium, Figtree" font-weight="500" letter-spacing="0.016em"><tspan x="-3" y="0">₹</tspan></text>
    </g>
    <g id="Group_7303" data-name="Group 7303" transform="translate(-2740.335 -936.191)">
      <path id="Path_8857-3" data-name="Path 8857" d="M237.029,12.878A13.1,13.1,0,1,0,250.49,25.6a13.095,13.095,0,0,0-13.461-12.719M247.937,25.67a10.54,10.54,0,1,1-11.128-10.226c.1-.006.195-.008.293-.011a10.551,10.551,0,0,1,10.822,9.949c.005.1.011.192.013.288" transform="translate(2725.385 1084.107)" fill="#fcc659"/>
      <path id="Path_8858-3" data-name="Path 8858" d="M254.315,31.772c.005.1.011.192.013.288A10.54,10.54,0,1,1,243.2,21.834c.1-.005.195-.008.293-.011a10.552,10.552,0,0,1,10.822,9.949" transform="translate(2718.995 1077.717)" fill="#f49b51"/>
      <path id="Path_8859-3" data-name="Path 8859" d="M284.648,81.956a3.6,3.6,0,0,1,1.635,1.715,3.605,3.605,0,0,1,1.636-1.718,3.6,3.6,0,0,1-1.636-1.715,3.6,3.6,0,0,1-1.635,1.718" transform="translate(2682.285 1035.991)" fill="#ffe6a6"/>
      <path id="Path_8860-3" data-name="Path 8860" d="M275.118,93.736a2.089,2.089,0,0,1,.95,1,2.1,2.1,0,0,1,.951-1,2.091,2.091,0,0,1-.951-1,2.093,2.093,0,0,1-.95,1" transform="translate(2689.091 1027.062)" fill="#ffe6a6"/>
      <text id="_4" data-name="₹" transform="translate(2962.881 1114.479)" fill="#ffe6a6" font-size="12" font-family="Figtree-Medium, Figtree" font-weight="500" letter-spacing="0.016em"><tspan x="-3" y="0">₹</tspan></text>
    </g>
  </g>
</svg>
