<svg width="40" height="40" viewBox="0 0 40 40" fill="none" xmlns="http://www.w3.org/2000/svg">
<circle opacity="0.2" cx="20" cy="20" r="20" fill="url(#paint0_linear_762_137)"/>
<path d="M26.76 13.28H24.52V12.32C24.52 12.2351 24.4863 12.1537 24.4263 12.0937C24.3663 12.0337 24.2849 12 24.2 12C24.1151 12 24.0337 12.0337 23.9737 12.0937C23.9137 12.1537 23.88 12.2351 23.88 12.32V13.28H16.84V12.32C16.84 12.2351 16.8063 12.1537 16.7463 12.0937C16.6863 12.0337 16.6049 12 16.52 12C16.4351 12 16.3537 12.0337 16.2937 12.0937C16.2337 12.1537 16.2 12.2351 16.2 12.32V13.28H13.96C13.7054 13.28 13.4612 13.3811 13.2812 13.5612C13.1011 13.7412 13 13.9854 13 14.24V27.04C13 27.2946 13.1011 27.5388 13.2812 27.7188C13.4612 27.8989 13.7054 28 13.96 28H26.76C27.0146 28 27.2588 27.8989 27.4388 27.7188C27.6189 27.5388 27.72 27.2946 27.72 27.04V14.24C27.72 13.9854 27.6189 13.7412 27.4388 13.5612C27.2588 13.3811 27.0146 13.28 26.76 13.28ZM13.96 13.92H16.2V14.88C16.2 14.9649 16.2337 15.0463 16.2937 15.1063C16.3537 15.1663 16.4351 15.2 16.52 15.2C16.6049 15.2 16.6863 15.1663 16.7463 15.1063C16.8063 15.0463 16.84 14.9649 16.84 14.88V13.92H23.88V14.88C23.88 14.9649 23.9137 15.0463 23.9737 15.1063C24.0337 15.1663 24.1151 15.2 24.2 15.2C24.2849 15.2 24.3663 15.1663 24.4263 15.1063C24.4863 15.0463 24.52 14.9649 24.52 14.88V13.92H26.76C26.8449 13.92 26.9263 13.9537 26.9863 14.0137C27.0463 14.0737 27.08 14.1551 27.08 14.24V17.12H13.64V14.24C13.64 14.1551 13.6737 14.0737 13.7337 14.0137C13.7937 13.9537 13.8751 13.92 13.96 13.92ZM26.76 27.36H13.96C13.8751 27.36 13.7937 27.3263 13.7337 27.2663C13.6737 27.2063 13.64 27.1249 13.64 27.04V17.76H27.08V27.04C27.08 27.1249 27.0463 27.2063 26.9863 27.2663C26.9263 27.3263 26.8449 27.36 26.76 27.36Z" fill="#1D478E"/>
<path d="M23.5248 22.3143L20.6065 19.396C20.5894 19.379 20.5678 19.3674 20.5442 19.3627C20.5206 19.358 20.4961 19.3604 20.4739 19.3696C20.4516 19.3788 20.4326 19.3944 20.4193 19.4144C20.4059 19.4345 20.3988 19.458 20.3988 19.482V20.8196H19.5476C19.5154 20.8196 19.4845 20.8324 19.4617 20.8552C19.4388 20.878 19.426 20.9089 19.426 20.9412V23.8595C19.426 23.8917 19.4388 23.9227 19.4617 23.9455C19.4845 23.9683 19.5154 23.9811 19.5476 23.9811H20.3988V25.3186C20.3988 25.3427 20.4059 25.3663 20.4193 25.3863C20.4327 25.4063 20.4517 25.4219 20.4739 25.4311C20.4961 25.4403 20.5206 25.4427 20.5442 25.438C20.5678 25.4333 20.5895 25.4217 20.6065 25.4047L23.5248 22.4864C23.5361 22.4751 23.5451 22.4617 23.5512 22.4469C23.5573 22.4321 23.5605 22.4163 23.5605 22.4003C23.5605 22.3844 23.5573 22.3685 23.5512 22.3538C23.5451 22.339 23.5361 22.3256 23.5248 22.3143ZM20.642 25.025V23.8595C20.642 23.8272 20.6292 23.7963 20.6064 23.7735C20.5836 23.7507 20.5527 23.7379 20.5204 23.7379H19.6692V21.0628H20.5204C20.5527 21.0628 20.5836 21.05 20.6064 21.0272C20.6292 21.0044 20.642 20.9734 20.642 20.9412V19.7757L23.2667 22.4003L20.642 25.025ZM17.7237 20.9412V23.8595C17.7237 23.8917 17.7109 23.9227 17.688 23.9455C17.6652 23.9683 17.6343 23.9811 17.6021 23.9811C17.5698 23.9811 17.5389 23.9683 17.5161 23.9455C17.4933 23.9227 17.4805 23.8917 17.4805 23.8595V20.9412C17.4805 20.9089 17.4933 20.878 17.5161 20.8552C17.5389 20.8324 17.5698 20.8196 17.6021 20.8196C17.6343 20.8196 17.6652 20.8324 17.688 20.8552C17.7109 20.878 17.7237 20.9089 17.7237 20.9412ZM18.6964 20.9412V23.8595C18.6964 23.8917 18.6836 23.9227 18.6608 23.9455C18.638 23.9683 18.6071 23.9811 18.5749 23.9811C18.5426 23.9811 18.5117 23.9683 18.4889 23.9455C18.4661 23.9227 18.4533 23.8917 18.4533 23.8595V20.9412C18.4533 20.9089 18.4661 20.878 18.4889 20.8552C18.5117 20.8324 18.5426 20.8196 18.5749 20.8196C18.6071 20.8196 18.638 20.8324 18.6608 20.8552C18.6836 20.878 18.6964 20.9089 18.6964 20.9412Z" fill="#1D478E" stroke="#1D478E" stroke-width="0.3"/>
<defs>
<linearGradient id="paint0_linear_762_137" x1="0" y1="20" x2="40" y2="20" gradientUnits="userSpaceOnUse">
<stop stop-color="#8FD1EC"/>
<stop offset="1" stop-color="#229ACE"/>
</linearGradient>
</defs>
</svg>
