<svg width="20" height="18" viewBox="0 0 20 18" fill="none" xmlns="http://www.w3.org/2000/svg">
<path d="M7.28571 4.69109L7.28571 2.74519C8.15833 2.31017 9.12328 2.05591 10.1132 2C11.0617 2.04501 11.9843 2.30062 12.803 2.74519L12.803 4.69109" stroke="#676E87" stroke-width="2.00029"/>
<path d="M18.6667 5.07683L1.33333 5.07683C0.596954 5.07683 3.24973e-10 5.62786 7.25847e-10 6.30759L3.99216e-09 11.846C4.39304e-09 12.5258 0.596954 13.0768 1.33333 13.0768L18.6667 13.0768C19.403 13.0768 20 12.5258 20 11.846L20 6.30759C20 5.62786 19.403 5.07683 18.6667 5.07683Z" fill="#60B4ED"/>
<path d="M18.6667 4.46138L1.33333 4.46138C0.596954 4.46138 3.24973e-10 5.01241 7.25847e-10 5.69214L3.99216e-09 11.2306C4.39304e-09 11.9103 0.596954 12.4613 1.33333 12.4613L18.6667 12.4613C19.403 12.4613 20 11.9103 20 11.2306L20 5.69214C20 5.01241 19.403 4.46138 18.6667 4.46138Z" fill="#8CD0FF"/>
<path d="M0.548401 10.627L0.548401 16.3433C0.548401 16.3433 0.598409 17.3987 1.58974 17.3845C2.58108 17.3704 18.6871 17.3845 18.6871 17.3845C18.6871 17.3845 19.5385 17.3845 19.5432 16.3433C19.5479 15.3021 19.5432 10.627 19.5432 10.627C16.4732 11.7137 13.2289 12.3233 9.94293 12.4307C6.72169 12.3374 3.54279 11.727 0.548401 10.627Z" fill="#676E87"/>
<path d="M0.548401 11.2422L0.548401 16.9585C0.548401 16.9585 0.598409 18.0139 1.58974 17.9998C2.58108 17.9856 18.6871 17.9998 18.6871 17.9998C18.6871 17.9998 19.5385 17.9998 19.5432 16.9585C19.5479 15.9173 19.5432 11.2422 19.5432 11.2422C16.4732 12.329 13.2289 12.9385 9.94293 13.0459C6.72169 12.9526 3.54279 12.3423 0.548401 11.2422Z" fill="#60B4ED"/>
<path d="M8.87988 10.6529L11.1201 10.6529L11.1201 12.4065C11.1201 12.4065 10.5956 13.1602 9.993 13.1602C9.39042 13.1602 8.87988 12.4065 8.87988 12.4065L8.87988 10.6529Z" fill="#E4E4E4"/>
</svg>
