<svg xmlns="http://www.w3.org/2000/svg" xmlns:xlink="http://www.w3.org/1999/xlink" width="267.995" height="182.76" viewBox="0 0 267.995 182.76">
  <defs>
    <clipPath id="clip-path">
      <path id="Path_8920" data-name="Path 8920" d="M136.914,6.483c-24.538,9.061-42.973,7.1-58.85,5.13-14.842-1.838-27.45-3.675-40.718,3.494C-10.4,40.908,19.3,85.4,7.988,108.42c-11.187,22.759-15.6,58.317,20.956,68.3,33.748,9.221,113.03,6.079,164.149,2.331,43.939-3.222,53.937-2.364,65.53-19.961,12.254-18.6,12.985-47.738-.736-61.7-11.725-11.932,0-36.549-9.3-59.386C238.825,14.041,207.294,0,174.383,0a108.8,108.8,0,0,0-37.469,6.484" transform="translate(0 0.001)" fill="none"/>
    </clipPath>
  </defs>
  <g id="Group_7316" data-name="Group 7316" transform="translate(0 0.001)">
    <g id="Group_7315" data-name="Group 7315" transform="translate(0 -0.001)" clip-path="url(#clip-path)">
      <path id="Path_8883" data-name="Path 8883" d="M193.093,179.056c-51.119,3.748-130.4,6.89-164.149-2.331C-7.612,166.737-3.2,131.18,7.988,108.421,19.3,85.4-10.4,40.908,37.346,15.107,64.808.267,89.439,24.015,136.915,6.483c42.862-15.828,98.151-1.671,111.672,31.526,9.3,22.837-2.424,47.454,9.3,59.386,13.72,13.963,12.989,43.1.736,61.7-11.593,17.6-21.591,16.739-65.53,19.961" transform="translate(0 0.001)" fill="#fdfaed"/>
      <path id="Path_8884" data-name="Path 8884" d="M738.424,261.446l-88.4,24.777,33.6,115.636,87.943-27.788Z" transform="translate(-580.067 -233.309)" fill="#b8d0fc"/>
      <rect id="Rectangle_2485" data-name="Rectangle 2485" width="88.805" height="117.546" transform="translate(73.043 53.165) rotate(-16.446)" fill="#f0f5ff"/>
      <path id="Path_8885" data-name="Path 8885" d="M879.559,809.845l-22.014,6.5a.031.031,0,0,1-.039-.021l-.421-1.426a.031.031,0,0,1,.021-.039l22.014-6.5a.031.031,0,0,1,.039.021l.421,1.426a.031.031,0,0,1-.021.039" transform="translate(-764.846 -721.364)" fill="#b8d0fc"/>
      <path id="Path_8886" data-name="Path 8886" d="M1124.585,715.967l-30.814,9.1a.037.037,0,0,1-.046-.025l-.418-1.415a.037.037,0,0,1,.025-.046l30.814-9.1a.037.037,0,0,1,.046.025l.418,1.415a.037.037,0,0,1-.025.046" transform="translate(-975.646 -637.588)" fill="#b8d0fc"/>
      <path id="Path_8887" data-name="Path 8887" d="M905.087,591.092l-71.728,21.173a.066.066,0,0,1-.082-.045l-.4-1.36a.066.066,0,0,1,.045-.082l71.728-21.173a.066.066,0,0,1,.082.045l.4,1.359a.066.066,0,0,1-.045.082" transform="translate(-743.241 -526.151)" fill="#b8d0fc"/>
      <path id="Path_8888" data-name="Path 8888" d="M909.426,649.874l-64.545,19.052a.063.063,0,0,1-.078-.042l-.4-1.366a.063.063,0,0,1,.042-.078l64.545-19.052a.063.063,0,0,1,.078.042l.4,1.366a.063.063,0,0,1-.042.078" transform="translate(-753.525 -578.607)" fill="#b8d0fc"/>
      <path id="Path_8889" data-name="Path 8889" d="M935.212,737.232l-64.545,19.052a.063.063,0,0,1-.078-.042l-.4-1.366a.063.063,0,0,1,.042-.078l64.545-19.052a.063.063,0,0,1,.078.042l.4,1.366a.063.063,0,0,1-.042.078" transform="translate(-776.536 -656.563)" fill="#b8d0fc"/>
      <path id="Path_8890" data-name="Path 8890" d="M843.606,688.044l-22.014,6.5a.031.031,0,0,1-.039-.021l-.421-1.426a.031.031,0,0,1,.021-.038l22.014-6.5a.031.031,0,0,1,.039.021l.421,1.426a.031.031,0,0,1-.021.039" transform="translate(-732.763 -612.671)" fill="#b8d0fc"/>
      <path id="Path_8891" data-name="Path 8891" d="M1088.632,594.165l-30.814,9.1a.037.037,0,0,1-.046-.025l-.418-1.415a.037.037,0,0,1,.025-.046l30.814-9.1a.037.037,0,0,1,.046.025l.418,1.415a.037.037,0,0,1-.025.046" transform="translate(-943.562 -528.894)" fill="#b8d0fc"/>
      <path id="Path_8892" data-name="Path 8892" d="M886.569,440.689l-64.545,19.052c-.033.01-.076-.035-.095-.1l-.789-2.672c-.019-.065-.008-.125.025-.135l64.545-19.052c.033-.01.076.035.095.1l.789,2.672c.019.065.008.125-.025.135" transform="translate(-732.762 -390.667)" fill="#b8d0fc"/>
      <path id="Path_8893" data-name="Path 8893" d="M1594.288,855.8s-3.847,7.177-6.353,8.4-10.237,3.83-12.3,5.979c-.644.669-5.282,6.214-5.075,8.182.14,1.332,3.783,1.959,6.195-.816,4.193-4.824,8.265-5.353,11.009-6.01,4.682-1.121,7.263-2.091,5.5-.806,0,0-5.982,3.151-8.206,5.078-.6.521-4.594,5.406-4.1,7.1.268.917,3.128,2.4,7.073-1.7,2.593-2.69,5.738-2.369,8.677-2.572,2.544-.176,10.73,1.889,10.73,1.889l.49-10.8Z" transform="translate(-1401.529 -763.703)" fill="#e96f5f"/>
      <path id="Path_8894" data-name="Path 8894" d="M1531.894,855.476c-1.119-2.788-2.182-5.4-3.131-7.672-.532-1.266-1.027-2.429-1.476-3.456-.726-1.658-1.332-2.965-1.775-3.8-1.133-2.135-2.392-5.553-4.425-8.237h0a9.469,9.469,0,0,0-5.391-3.819c-5.665-1.291-16.465-10.389-23.806-18.891a67.939,67.939,0,0,0-12.688-10.733c-1.953-1.259-10.216-5.473-11.051-7.347-.49-1.1,2.354-4.222,4.122-4.77,3.787-1.176,8.981.966,17.021,5.515,7.659,4.335,16.14,3.564,13.55-.775-6.827-11.437-31.75-1.815-34.761-7.311-.81-1.478,4.524-4.335,9.461-6.257,2.03-.79,15.139-4.09,21.032-4.175,3.688-.054,27.641,4.334,35.161,9.678,3.462,2.46,15.642,28.437,15.909,29.283v0a98.635,98.635,0,0,0,5.411,13.557q1.01,2.082,2.124,4.112c.334.61.675,1.219,1.023,1.821a125.861,125.861,0,0,1-26.308,23.275" transform="translate(-1310.014 -690.476)" fill="#fdb386"/>
      <path id="Path_8895" data-name="Path 8895" d="M1979.991,1151.339l-10.017-16.255-30.9,20.3,8.927,15.573Z" transform="translate(-1730.39 -1012.928)" fill="#1d478e"/>
      <path id="Path_8896" data-name="Path 8896" d="M1995.712,1267.209s5.176,13.839,10.813,28.8a407.155,407.155,0,0,0,60.209,4.569q1.753.014,3.5-.034l-41.094-55.1-.926.6-.987.643-1.135.738h0l-.964.628v0l-26.809,17.458-.957.623h0l-.112.072-.4.259-.549.358-.005,0Z" transform="translate(-1780.937 -1111.409)" fill="#161742"/>
      <path id="Path_8897" data-name="Path 8897" d="M1998.97,1350.317a1.336,1.336,0,1,1-1.883.157,1.336,1.336,0,0,1,1.883-.157" transform="translate(-1781.882 -1204.716)" fill="#100259"/>
      <path id="Path_8898" data-name="Path 8898" d="M508.778,725.947a13.469,13.469,0,0,1-3.946,3.562c-.216.141-.434.282-.651.416a21.953,21.953,0,0,1-4.057,2.054c-2.712.891-19.456,16.841-22.1,19.738-2.209,2.413-8.934,9.065-11.108,11.209l-.686.674-27.285-9.714s.336-.752.821-1.881a84.367,84.367,0,0,0,3.084-8.052c1-3.449.333-21.349.867-26.446s-2.6-28.834,2.022-29.315,4.636,24.73,7.313,23.983,4.928-35.587,10.9-35.51c6.667.083-2.3,31.258.395,31.369s9.161-35.969,16.442-33.855c5.542,1.608-8.216,35.336-5.073,36.161s13.788-27.078,19.688-25.01c4.161,1.455-2.8,14.93-6.393,25.86-2.793,8.486-4.732,15.523-5.461,18.244a.491.491,0,0,0,.755.51c14.679-9.451,22.054-8.3,24.414-6.088a1.443,1.443,0,0,1,.281.35,1.7,1.7,0,0,1-.216,1.74" transform="translate(-391.703 -601.546)" fill="#fdb386"/>
      <path id="Path_8899" data-name="Path 8899" d="M655.276,712.193l-1.415-.265a.744.744,0,0,1-.609-.868l.384-1.885a1.455,1.455,0,0,1,1.7-1.1,1.4,1.4,0,0,1,1.147,1.635l-.4,1.961a.692.692,0,0,1-.811.524" transform="translate(-582.937 -631.848)" fill="#fcb7a9"/>
      <path id="Path_8900" data-name="Path 8900" d="M799.156,688.854l-1.589-.529a.857.857,0,0,1-.555-1.1l.534-1.479a1.717,1.717,0,0,1,2.155-1,1.615,1.615,0,0,1,1.046,2.069l-.564,1.564a.817.817,0,0,1-1.026.478" transform="translate(-711.194 -610.973)" fill="#fcb7a9"/>
      <path id="Path_8901" data-name="Path 8901" d="M931.665,793.68l-1.481-.766a.848.848,0,0,1-.365-1.169l.774-1.378a1.736,1.736,0,0,1,2.295-.66,1.6,1.6,0,0,1,.687,2.2l-.818,1.457a.826.826,0,0,1-1.092.314" transform="translate(-829.658 -704.546)" fill="#fcb7a9"/>
      <path id="Path_8902" data-name="Path 8902" d="M1046.893,1150.828a13.471,13.471,0,0,1-3.946,3.562l-.782-.958a.945.945,0,0,1,.171-1.36l1.958-1.474a1.962,1.962,0,0,1,2.6.23" transform="translate(-929.817 -1026.427)" fill="#fcb7a9"/>
      <path id="Path_8903" data-name="Path 8903" d="M494.1,818.551l-1.3.036a.679.679,0,0,1-.708-.642l-.047-1.552a1.272,1.272,0,0,1,1.259-1.281h.011a1.28,1.28,0,0,1,1.335,1.208l.049,1.62a.605.605,0,0,1-.6.61" transform="translate(-439.095 -727.391)" fill="#fcb7a9"/>
      <path id="Path_8904" data-name="Path 8904" d="M385.3,1343.62l7.5-17.557,33.565,15.509-6.526,16.721Z" transform="translate(-343.834 -1183.354)" fill="#1d478e"/>
      <path id="Path_8905" data-name="Path 8905" d="M158.973,1463.631s-3.073,14.452-6.436,30.08a407.121,407.121,0,0,1-58.872,13.421q-1.732.273-3.463.484l32.5-60.57,1,.461,1.071.49,1.232.562h0l1.046.478v0l29.1,13.3,1.038.474h0l.121.054.434.2.6.273.005,0Z" transform="translate(-80.495 -1291.316)" fill="#161742"/>
      <path id="Path_8906" data-name="Path 8906" d="M691.214,1506.847a1.336,1.336,0,1,0,1.885-.123,1.336,1.336,0,0,0-1.885.123" transform="translate(-616.53 -1344.276)" fill="#100259"/>
      <path id="Path_8907" data-name="Path 8907" d="M1408.326,832.281l.052,6.968,87.7,3.56.475-16.991Z" transform="translate(-1256.764 -736.945)" fill="#ee3d4b"/>
      <path id="Path_8908" data-name="Path 8908" d="M1359.2,890.687l4.235,2.074.422-6.889-4.707,2.578a1.26,1.26,0,0,0,.051,2.237" transform="translate(-1212.299 -790.536)" fill="#161742"/>
      <path id="Path_8909" data-name="Path 8909" d="M2169.986,833.858c-.233,4.7,2.349,8.639,5.767,8.808s6.377-3.5,6.611-8.194-2.349-8.639-5.767-8.808-6.378,3.5-6.611,8.194" transform="translate(-1936.442 -736.802)" fill="#161742"/>
      <path id="Path_8910" data-name="Path 8910" d="M2211.149,867.384c-.112,2.258,1.13,4.155,2.773,4.236s3.067-1.683,3.179-3.941-1.13-4.155-2.774-4.236-3.067,1.683-3.179,3.941" transform="translate(-1973.182 -770.518)" fill="#ee3d4b"/>
      <path id="Path_8911" data-name="Path 8911" d="M1386.335,889.11c-.1,1.927.977,3.546,2.4,3.617s2.646-1.435,2.742-3.362-.977-3.547-2.4-3.617-2.646,1.435-2.742,3.362" transform="translate(-1237.134 -790.423)" fill="#fb4848"/>
      <path id="Path_8912" data-name="Path 8912" d="M2243.943,863.477l-7.039-.01-.464,8.167,7.04.01Z" transform="translate(-1995.757 -770.542)" fill="#ee3d4b"/>
      <path id="Path_8913" data-name="Path 8913" d="M2280.2,868.148c-.112,2.258,1.129,4.155,2.773,4.236s3.067-1.683,3.18-3.941-1.129-4.155-2.773-4.236-3.067,1.683-3.179,3.941" transform="translate(-2034.804 -771.2)" fill="#ff5b61"/>
      <path id="Path_8914" data-name="Path 8914" d="M1774.262,920.747l36.291,1.011a.955.955,0,0,0,.981-.938l.032-1.872a.955.955,0,0,0-.978-.971l-36.323.861a.955.955,0,0,0,0,1.909" transform="translate(-1582.49 -819.185)" fill="#161742"/>
      <path id="Path_8915" data-name="Path 8915" d="M2101.4,904.674l.644-3.418s-.129-1.259-1.287-1.311-2.051-.163-2.273.171a6.693,6.693,0,0,0-.326,1.77Z" transform="translate(-1872.359 -803.04)" fill="#161742"/>
      <path id="Path_8916" data-name="Path 8916" d="M1514.124,932.85c-5.963-2.722-15.034-10.619-21.458-18.055a67.917,67.917,0,0,0-12.687-10.736c-1.952-1.256-10.217-5.471-11.053-7.346-.489-1.1,2.356-4.223,4.123-4.77,3.787-1.176,8.982.964,17.019,5.514,7.659,4.336,11.871,4.711,15.638,3.848,1.3-.3,8.344,12.314,12.1,3.757,1.888-4.3,16.6-2.827,17.134.079,4.435,24.057-20.82,27.709-20.82,27.709" transform="translate(-1310.793 -795.67)" fill="#fdb386"/>
      <path id="Path_8917" data-name="Path 8917" d="M1311.285,932.631a.826.826,0,0,1-.679-.09,1.368,1.368,0,0,1-.469-.543,2.384,2.384,0,0,1-.954.84,2.069,2.069,0,0,1-2.294-.439,6.461,6.461,0,0,1-.719.548c-.942.622-2.353.988-3.232-.025a1.926,1.926,0,0,1-.131-.169q-.3.249-.638.513c-1.694,1.3-3.427,1.486-4.636.492-1.354-1.114-1.946-3.795-.217-7.273,1.017-2.046,2.065-3.074,3.116-3.058,1.291.021,2.028,1.6,2.059,1.669l-.449.205.224-.1-.224.1c-.006-.014-.64-1.366-1.62-1.381-.832-.013-1.753.951-2.665,2.784-1.608,3.235-1.114,5.682.089,6.672,1.019.839,2.523.651,4.022-.5.261-.2.5-.392.71-.575a2.369,2.369,0,0,1,.551-2.261c.531-.6,1.079-.9,1.466-.791a.516.516,0,0,1,.375.416c.1.5-.347,1.461-1.788,2.76a1.325,1.325,0,0,0,.127.174c.439.506,1.35.755,2.589-.063a5.942,5.942,0,0,0,.671-.512l-.011-.017a1.566,1.566,0,0,1,.154-2.1c.481-.448.833-.412,1-.351a.667.667,0,0,1,.409.586,2.621,2.621,0,0,1-.877,1.909,1.579,1.579,0,0,0,1.737.332,2.149,2.149,0,0,0,.942-.983,2.94,2.94,0,0,1,.185-1.955c.075-.142.252-.474.531-.422.113.021.255.107.29.4a4.487,4.487,0,0,1-.481,2.039,1.181,1.181,0,0,0,.419.658c.3.184.631-.156.858-.474,1.02-1.428,1.778-2.044,2.538-2.059a1.97,1.97,0,0,1,1.558.942l-.389.3a1.532,1.532,0,0,0-1.159-.751c-.577.011-1.239.583-2.146,1.853a1.673,1.673,0,0,1-.84.7m-3.865-2.6a.994.994,0,0,0-.371.242,1.071,1.071,0,0,0-.12,1.4,2.162,2.162,0,0,0,.7-1.466c-.011-.1-.044-.164-.089-.18a.205.205,0,0,0-.122.007m-3.1-.294a2.032,2.032,0,0,0-.825.629,1.834,1.834,0,0,0-.5,1.564c1.3-1.211,1.535-1.955,1.493-2.169-.007-.032-.013-.034-.021-.036a.278.278,0,0,0-.142.013" transform="translate(-1156.747 -824.048)" fill="#2c2789"/>
      <path id="Path_8918" data-name="Path 8918" d="M962.871,970.215,933.439,978.9a.049.049,0,0,1-.061-.033l-.569-1.929a.05.05,0,0,1,.033-.061l29.432-8.688a.05.05,0,0,1,.061.033l.569,1.929a.049.049,0,0,1-.033.061" transform="translate(-832.419 -863.995)" fill="#b8d0fc"/>
      <path id="Path_8919" data-name="Path 8919" d="M969.782,1036.128l-22.513,6.645a.043.043,0,0,1-.054-.029l-.573-1.941a.043.043,0,0,1,.029-.054l22.513-6.645a.043.043,0,0,1,.054.029l.573,1.941a.043.043,0,0,1-.029.054" transform="translate(-844.765 -922.814)" fill="#b8d0fc"/>
    </g>
  </g>
</svg>
