<svg width="288" height="306" viewBox="0 0 288 306" fill="none" xmlns="http://www.w3.org/2000/svg">
<g clip-path="url(#clip0_94_4997)">
<path d="M265.571 61.209L202.143 92.0394L265.571 105.169V61.209Z" fill="#FFD325"/>
<path d="M31.7379 69.3159L98.6632 87.2443L31.7379 105.169V69.3159Z" fill="#FFD325"/>
<path d="M211.417 5.26086L191.098 38.375L250.938 5.30571L211.417 5.26086Z" fill="#FFD325"/>
<path d="M112.15 5.69208L127.753 31.1168L81.7999 5.72658L112.15 5.69208Z" fill="#FFD325"/>
<path d="M73.9517 5.69208L96.1807 41.911L30.7194 5.74037L73.9517 5.69208Z" fill="#FFD325"/>
<path d="M181.62 5.50926L175.519 22.0681L195.262 5.30573L181.62 5.50926Z" fill="#FFD325"/>
<path d="M126.71 5.30573L145.576 24.1172L141.195 5.30573H126.71Z" fill="#FFD325"/>
<path d="M153.659 5.30573L157.378 22.2475L170.153 5.12634L153.659 5.30573Z" fill="#FFD325"/>
<path d="M265.571 6.40277L205.572 61.209L265.571 50.363V6.40277Z" fill="#FFD325"/>
<path d="M31.2442 14.5096L91.2397 69.3159L31.2442 58.4698V14.5096Z" fill="#FFD325"/>
<path opacity="0.27" d="M148.187 306C225.401 306 287.997 300.063 287.997 292.739C287.997 285.415 225.401 279.478 148.187 279.478C70.9715 279.478 8.37645 285.415 8.37645 292.739C8.37645 300.063 70.9715 306 148.187 306Z" fill="#FFD325"/>
<path d="M285.766 291.221C285.272 291.221 284.875 290.824 284.875 290.331C284.723 290.041 282.154 286.871 242.292 284.211C215.464 282.421 180.318 281.434 143.328 281.434C98.1522 281.434 55.1202 282.949 28.2196 285.488C27.7224 285.543 27.2942 285.174 27.2494 284.684C27.2045 284.194 27.5636 283.759 28.0539 283.714C55.0097 281.168 98.1039 279.651 143.332 279.651C181.143 279.651 216.866 280.675 243.915 282.531C286.66 285.47 286.66 288.872 286.66 290.328C286.66 290.821 286.26 291.218 285.77 291.218L285.766 291.221Z" fill="#161742"/>
<path d="M156.425 249.662L155.386 276.336C155.33 277.726 155.455 279.113 155.752 280.482L159.664 298.497C151.197 298.407 142.731 298.314 134.265 298.224C127.491 298.152 120.716 298.079 113.942 298.007C110.682 297.972 107.071 299.28 104.205 297.379C100.182 294.712 100.669 290.045 102.606 286.461C106.743 278.802 115.357 277.753 123.168 277.015C131.876 276.191 137.41 273.141 136.64 264.13C136.133 258.197 135.052 252.26 134.265 246.357L156.425 249.669V249.662Z" fill="white"/>
<path d="M216.704 240.041L239.633 298.183H191.716L191.129 291.225C190.766 286.902 194.091 282.845 199.588 280.903L207.937 277.954L190.393 241.697L216.704 240.041Z" fill="white"/>
<path d="M151.422 287.037C151.422 287.037 151.453 287.037 151.467 287.037C151.653 287.013 151.781 286.84 151.757 286.654C150.389 276.57 151.436 250.663 151.449 250.4C151.456 250.214 151.311 250.055 151.125 250.048H151.111C150.931 250.048 150.78 250.19 150.773 250.373C150.762 250.635 149.709 276.601 151.087 286.743C151.111 286.913 151.256 287.037 151.422 287.037Z" fill="#161742"/>
<path d="M232.852 292.101C232.883 292.101 232.914 292.091 232.945 292.077C233.118 292.004 233.201 291.808 233.128 291.635L212.874 242.431C212.802 242.259 212.608 242.176 212.432 242.249C212.26 242.321 212.177 242.518 212.249 242.69L232.503 291.894C232.562 292.035 232.707 292.118 232.852 292.101Z" fill="#161742"/>
<path d="M138.992 89.0796C138.992 89.0796 129.241 123.132 127.812 145.914C126.382 168.696 127.977 271.982 127.977 271.982L161.045 273.8L159.722 142.941L194.285 275.149L232.645 269.698C232.645 269.698 181.844 101.709 172.732 87.0891L138.995 89.0796H138.992Z" fill="#32B353"/>
<path d="M160.534 146.97C160.558 146.97 160.582 146.97 160.61 146.96C160.793 146.918 160.907 146.739 160.865 146.556L157.033 129.707C156.991 129.524 156.815 129.407 156.629 129.452C156.446 129.493 156.332 129.676 156.373 129.856L160.206 146.704C160.24 146.863 160.382 146.966 160.537 146.966L160.534 146.97Z" fill="#161742"/>
<path d="M161.725 130.204C161.894 130.204 162.043 130.076 162.06 129.904C162.08 129.718 161.949 129.549 161.763 129.528L147.199 127.827C146.992 127.81 146.843 127.941 146.823 128.124C146.802 128.31 146.933 128.479 147.12 128.5L161.683 130.201C161.683 130.201 161.711 130.201 161.725 130.201V130.204Z" fill="#161742"/>
<path d="M148.093 120.183C148.28 120.183 148.428 120.034 148.432 119.848L148.77 95.8101C148.77 95.6238 148.622 95.4685 148.435 95.4651H148.432C148.245 95.4651 148.097 95.6134 148.093 95.7997L147.755 119.838C147.755 120.024 147.903 120.179 148.09 120.183H148.093Z" fill="#161742"/>
<path d="M155.099 115.108C155.282 115.108 155.434 114.96 155.437 114.777L155.776 95.8135C155.779 95.6272 155.631 95.472 155.444 95.4685C155.23 95.4685 155.102 95.6134 155.099 95.7997L154.761 114.763C154.757 114.949 154.906 115.105 155.092 115.108H155.099Z" fill="#161742"/>
<path d="M219.576 243.146C219.611 243.146 219.645 243.142 219.68 243.132C219.859 243.077 219.959 242.89 219.908 242.711C219.514 241.414 180.598 112.962 172.335 95.5478C172.256 95.3788 172.052 95.3063 171.883 95.3857C171.714 95.465 171.641 95.6686 171.721 95.8376C179.962 113.207 218.865 241.614 219.259 242.907C219.303 243.052 219.435 243.146 219.58 243.149L219.576 243.146Z" fill="#161742"/>
<path d="M113.213 293.053H157.937C158.124 293.053 158.276 292.901 158.276 292.715C158.276 292.529 158.124 292.377 157.937 292.377H113.213C113.027 292.377 112.875 292.529 112.875 292.715C112.875 292.901 113.027 293.053 113.213 293.053Z" fill="#161742"/>
<path d="M200.147 293.053H232.814C233.001 293.053 233.153 292.901 233.153 292.715C233.153 292.529 233.001 292.377 232.814 292.377H200.147C199.961 292.377 199.809 292.529 199.809 292.715C199.809 292.901 199.961 293.053 200.147 293.053Z" fill="#161742"/>
<path d="M137.845 14.6615C137.845 14.6615 132.38 2.37689 116.794 14.0267C102.123 24.99 102.292 41.8386 106.705 45.209C111.117 48.5794 137.845 14.6615 137.845 14.6615Z" fill="#1D478E"/>
<path d="M194.934 72.8623C201.56 69.102 208.928 66.0317 207.958 57.1762C207.612 54.0301 206.38 51.0495 204.923 48.2414C195.165 29.423 175.35 18.0733 154.764 15.0444C149.84 14.3199 142.006 12.1086 137.179 13.9922C134.807 14.9167 133.15 17.6766 130.84 19.0185C127.715 20.84 124.563 22.689 121.635 24.8141C116.777 28.3397 113.559 34.877 109.771 39.4479C103.249 48.3069 101.505 58.6872 99.958 69.4711C98.0314 82.8907 98.0728 96.7966 102.223 109.819C103.621 114.208 105.638 118.375 109.16 121.438C113.058 124.829 114.256 123.056 117.108 119.706C120.799 115.374 124.494 111.048 128.185 106.718C128.609 106.221 131.458 106.021 132.107 105.832C135.722 104.786 139.192 103.182 142.389 101.202C147.092 98.2904 149.467 94.4991 155.044 92.8777C156.2 92.5396 173.078 87.5548 173.209 88.6173C173.029 87.1891 171.5 84.3741 172.373 83.1149C173.012 82.1938 177.045 81.2348 178.174 80.8174C181.63 79.541 185.017 78.0748 188.322 76.4465C190.569 75.3392 192.752 74.1007 194.934 72.8623Z" fill="#1D478E"/>
<path d="M183.526 49.2797C183.443 49.2797 183.363 49.259 183.287 49.2107L165.702 38.106C165.495 37.9749 165.433 37.6989 165.564 37.4919C165.696 37.285 165.972 37.2229 166.179 37.354L183.764 48.4587C183.971 48.5898 184.033 48.8658 183.902 49.0728C183.816 49.2073 183.674 49.2797 183.526 49.2797Z" fill="#161742"/>
<path d="M81.4132 263.723L55.1858 252.905L150.189 22.965C150.897 21.2539 152.858 20.4398 154.567 21.147L174.597 29.4091C176.309 30.1163 177.124 32.0758 176.416 33.7834L81.4132 263.723Z" fill="#EE3D4B"/>
<path d="M63.7142 251.328C63.6486 251.328 63.5864 251.318 63.5243 251.29C63.2688 251.187 63.1479 250.894 63.2515 250.638L147.993 45.5505C148.1 45.2953 148.39 45.178 148.646 45.278C148.901 45.3849 149.022 45.6747 148.915 45.93L64.1769 251.018C64.0975 251.211 63.911 251.328 63.7142 251.328Z" fill="#161742"/>
<path d="M76.8313 256.737C76.7657 256.737 76.7036 256.727 76.6414 256.7C76.3859 256.596 76.2651 256.303 76.3686 256.048L161.107 50.9597C161.214 50.7044 161.504 50.5871 161.759 50.6872C162.015 50.7941 162.136 51.0839 162.029 51.3392L77.2905 256.427C77.2111 256.62 77.0247 256.737 76.8279 256.737H76.8313Z" fill="#161742"/>
<path d="M51.336 294.45L55.0546 253.222L66.4039 241.579C67.1221 240.841 68.4756 241.355 68.5343 242.387L69.4493 258.79L77.8568 251.039C78.575 250.376 79.8318 250.852 79.9388 251.825L81.282 264.037L54.8095 295.882C53.6424 297.286 51.1702 296.268 51.336 294.45Z" fill="#E98572"/>
<path d="M65.8515 282.807L52.7378 277.398L51.3152 294.495C51.1668 296.275 53.6355 297.293 54.7887 295.927L65.8515 282.807Z" fill="#161742"/>
<path d="M151.978 18.9314L177.999 29.663C178.666 29.9381 178.985 30.7039 178.709 31.3704L168.83 55.2829L140.39 43.5537L150.269 19.6411C150.545 18.9746 151.311 18.6563 151.978 18.9314Z" fill="#161742"/>
<path d="M170.347 53.3643L140.669 41.1244C140.159 40.9143 139.576 41.1566 139.366 41.6655L137.752 45.5718C137.542 46.0807 137.784 46.6636 138.293 46.8737L167.972 59.1137C168.481 59.3238 169.065 59.0815 169.275 58.5725L170.889 54.6663C171.099 54.1573 170.857 53.5744 170.347 53.3643Z" fill="#F39CC0"/>
<path d="M185.283 46.5613C185.121 46.5613 184.966 46.4716 184.886 46.3198C184.776 46.0991 184.862 45.8334 185.079 45.7196L194.568 40.8934C194.789 40.783 195.055 40.8692 195.168 41.0866C195.279 41.3073 195.193 41.573 194.975 41.6868L185.487 46.513C185.421 46.5441 185.352 46.5613 185.287 46.5613H185.283Z" fill="#161742"/>
<path d="M118.834 98.763C118.7 98.6388 118.651 98.4353 118.727 98.2594C118.803 98.0834 126.158 80.5552 111.242 66.8632C111.059 66.6976 111.048 66.4147 111.214 66.2353C111.38 66.0559 111.663 66.0421 111.843 66.2077C127.235 80.3379 119.622 98.4353 119.542 98.6147C119.446 98.8389 119.183 98.9424 118.955 98.8458C118.907 98.8251 118.865 98.7975 118.831 98.7665L118.834 98.763Z" fill="#161742"/>
<path d="M119.2 71.9446C118.955 71.9446 118.755 71.7997 118.755 71.6238V51.9464C118.755 51.767 118.955 51.6255 119.2 51.6255C119.446 51.6255 119.646 51.7704 119.646 51.9464V71.6238C119.646 71.8032 119.446 71.9446 119.2 71.9446Z" fill="#161742"/>
<path d="M123.579 106.884L115.554 102.799C114.218 102.12 112.602 102.72 111.963 104.131C111.304 105.583 111.943 107.305 113.362 107.901L121.645 111.382C122.86 111.893 124.252 111.258 124.728 109.971C125.17 108.781 124.673 107.439 123.579 106.884Z" fill="#EF9286"/>
<path d="M120.202 116.391L110.351 112.086C109.281 111.62 108.676 110.42 108.904 109.205L108.949 108.957C109.256 107.305 110.934 106.366 112.381 107.036L122.187 111.589C123.364 112.138 123.927 113.559 123.478 114.849C122.988 116.253 121.497 116.954 120.205 116.388L120.202 116.391Z" fill="#EF9286"/>
<path d="M119.332 118.175C119.67 117.102 119.169 115.943 118.154 115.453L111.704 112.338C110.658 111.834 109.401 112.196 108.79 113.183L108.483 113.673C107.734 114.88 108.262 116.471 109.588 116.985L116.341 119.606C117.564 120.083 118.935 119.424 119.328 118.171L119.332 118.175Z" fill="#EF9286"/>
<path d="M116.307 121.283C116.435 120.4 116.003 119.541 115.264 119.199L109.892 116.736C109.015 116.333 108.003 116.791 107.62 117.764L107.378 118.378C106.957 119.444 107.464 120.669 108.466 121L114.08 122.853C115.092 123.187 116.141 122.449 116.31 121.286L116.307 121.283Z" fill="#EF9286"/>
<path d="M111.863 106.77C111.863 106.77 111.87 106.766 111.874 106.763C111.967 106.687 112.105 106.704 112.181 106.801C112.429 107.118 113.051 107.536 113.445 107.701L122.173 111.486C122.242 111.52 123.585 112.2 123.962 113.442C124.155 114.08 124.058 114.746 123.672 115.422C122.242 117.916 118.61 116.091 118.386 115.974L113.148 113.8C112.754 113.635 110.655 112.645 110.133 112.355C110.03 112.296 109.992 112.162 110.051 112.058C110.109 111.955 110.244 111.917 110.347 111.976C110.858 112.262 112.927 113.238 113.313 113.4L118.562 115.577C118.562 115.577 118.575 115.584 118.582 115.587C118.617 115.605 122.035 117.402 123.295 115.208C123.62 114.642 123.703 114.094 123.547 113.573C123.223 112.507 122.004 111.889 121.994 111.886L113.279 108.105C112.83 107.915 112.146 107.456 111.846 107.073C111.773 106.98 111.787 106.853 111.874 106.777L111.863 106.77Z" fill="#161742"/>
<path d="M108.635 116.495C108.704 116.436 108.804 116.422 108.887 116.467C109.391 116.75 112.616 118.061 113.165 118.258C113.676 118.44 115.326 119.106 115.399 119.137C115.43 119.151 118.513 120.352 119.318 118.368C119.601 117.671 119.425 117.012 118.79 116.412C118.289 115.939 117.681 115.681 117.674 115.677C117.564 115.629 117.512 115.501 117.557 115.391C117.602 115.28 117.729 115.229 117.843 115.274C118.79 115.67 120.398 116.86 119.722 118.527C118.945 120.434 116.449 120.02 115.233 119.534C115.216 119.527 113.521 118.844 113.016 118.661C112.502 118.475 109.225 117.147 108.673 116.84C108.569 116.781 108.531 116.647 108.59 116.543C108.604 116.522 108.618 116.502 108.635 116.484V116.495Z" fill="#161742"/>
<path d="M115.209 102.406C115.271 102.351 115.368 102.334 115.447 102.375C115.499 102.399 120.661 104.879 122.753 105.907C124.956 106.991 125.826 108.591 125.132 110.292C124.304 112.331 122.063 111.903 122.042 111.9C121.925 111.876 121.849 111.762 121.873 111.644C121.897 111.527 122.011 111.451 122.128 111.475C122.208 111.489 124.038 111.831 124.728 110.13C125.333 108.643 124.563 107.284 122.56 106.301C120.471 105.273 115.309 102.796 115.257 102.772C115.15 102.72 115.102 102.589 115.154 102.482C115.168 102.454 115.185 102.43 115.206 102.413L115.209 102.406Z" fill="#161742"/>
<path d="M66.0483 299.442C66.0483 299.442 66.0206 299.442 66.0068 299.442C46.0739 298.559 29.5213 297.331 18.1409 295.895C2.19942 293.884 0 292.032 0 290.331C0 289.044 0 286.364 28.0504 283.718C28.5441 283.652 28.9757 284.032 29.0206 284.522C29.0655 285.011 28.7064 285.446 28.2161 285.491C5.14465 287.668 2.18216 289.793 1.8058 290.334C2.92105 292.077 17.5954 295.513 66.0828 297.665C66.5731 297.686 66.9564 298.103 66.9322 298.593C66.9115 299.073 66.5178 299.445 66.0414 299.445L66.0483 299.442Z" fill="#161742"/>
<path d="M155.748 76.6363C155.772 77.8299 155.658 79.0235 155.289 80.2171C155.265 80.2896 155.241 80.3689 155.178 80.4172C155.106 80.4724 155.006 80.4724 154.913 80.469C153.034 80.3896 151.256 79.8239 149.398 79.5962C147.983 79.4237 146.584 79.3547 145.224 78.8786C142.628 77.9748 139.824 77.1262 137.548 75.5324C136.758 74.977 136.015 74.2905 135.611 73.397C135.239 72.5725 134.99 71.0477 135.687 70.3405C135.926 70.099 136.295 69.9714 136.613 70.0887C136.709 70.1232 136.799 70.1818 136.903 70.1991C137.006 70.2163 137.127 70.1887 137.169 70.0921C137.148 70.1404 136.385 69.6506 136.319 69.5988C135.977 69.3366 135.87 69.1779 135.756 68.8054C135.549 68.1327 135.487 67.1529 135.884 66.5423C136.281 65.9352 137.065 65.7316 137.783 65.6316C137.462 65.0762 136.744 64.4897 136.623 63.8067C136.537 63.3168 136.658 62.7924 136.944 62.3854C137.324 61.8507 137.966 61.5436 138.619 61.4677C139.271 61.3918 139.931 61.5229 140.552 61.7299C140.335 61.6575 140.228 60.9434 140.224 60.764C140.193 59.322 142.293 58.4354 143.46 58.9322C146.874 60.3776 149.747 61.5609 152.554 64.0516C152.9 64.3586 154.381 65.3591 154.446 65.8558L154.464 65.9835C154.709 67.867 154.954 69.7506 155.199 71.6342C155.417 73.3004 155.71 74.9666 155.741 76.6294L155.748 76.6363Z" fill="#EF9286"/>
<path d="M115.416 34.8977L108.435 29.1677L112.467 16.7589L116.297 19.4187L115.416 34.8977Z" fill="#EF9286"/>
<path d="M111.625 31.786L113.517 17.4868L112.467 16.7589L108.435 29.1677L111.625 31.786Z" fill="#161742"/>
<path d="M84.2824 22.2164C84.2824 22.2164 78.7442 15.0927 86.6994 5.906C93.2148 -1.61446 104.008 -2.11812 109.598 5.36439C115.188 12.8504 112.502 18.1975 112.502 18.1975L84.279 22.2164H84.2824Z" fill="#161742"/>
<path d="M88.6847 26.8771C80.8987 21.0504 80.5431 13.1574 87.1897 6.08541C92.4103 0.527858 102.002 1.14191 108.224 7.35837C114.446 13.5748 114.011 21.5403 109.719 27.843C105.562 33.9491 99.8821 35.2565 88.6847 26.8771Z" fill="#EF9286"/>
<path d="M87.1862 5.87496C81.6652 11.8189 80.9954 18.3286 85.3804 23.7447C86.9031 21.4644 87.0861 16.0828 87.0861 16.0828C93.2976 19.6809 94.0987 5.92326 94.0987 5.92326C98.135 13.0401 105.793 5.75767 105.793 5.75767C105.793 5.75767 105.7 5.44374 105.548 4.94698C99.4988 0.827972 91.7059 1.00391 87.1828 5.87496H87.1862Z" fill="#161742"/>
<path d="M105.42 9.26259C104.274 7.1272 104.896 4.56748 106.808 3.5429C108.721 2.51833 111.2 3.41526 112.347 5.55066C113.493 7.68606 112.871 10.2458 110.959 11.2703C109.046 12.2949 106.567 11.398 105.42 9.26259Z" fill="#EF9286"/>
<path d="M108.735 9.542C108.5 9.542 108.303 9.35916 108.29 9.12113L108.058 5.01247C108.044 4.76754 108.231 4.55711 108.48 4.54331C108.725 4.52606 108.935 4.71925 108.949 4.96418L109.18 9.07283C109.194 9.31777 109.008 9.5282 108.759 9.542C108.752 9.542 108.742 9.542 108.735 9.542Z" fill="#161742"/>
<path d="M108.925 8.25524C108.707 8.25524 108.514 8.0931 108.483 7.87231C108.448 7.62738 108.618 7.40315 108.863 7.36865L110.807 7.09612C111.048 7.05817 111.276 7.23066 111.311 7.47559C111.345 7.72052 111.176 7.94476 110.931 7.97926L108.987 8.25179C108.966 8.25179 108.946 8.25524 108.925 8.25524Z" fill="#161742"/>
<path d="M95.314 21.5506C95.3796 21.2643 94.3645 20.6468 94.1297 20.9711C93.8949 21.2953 94.0158 22.5511 93.1491 23.862C92.2859 25.1729 90.7771 25.6558 90.7391 26.0767C90.7046 26.4976 94.1125 26.8253 95.3106 21.5472L95.314 21.5506Z" fill="#161742"/>
<path d="M98.3905 18.2251C98.1557 18.4045 97.1716 17.7387 97.3719 17.3937C97.5722 17.0453 98.7634 16.6313 99.5955 15.2997C100.428 13.9681 100.241 12.3985 100.607 12.188C100.977 11.9811 102.696 14.9409 98.3905 18.2251Z" fill="#161742"/>
<path d="M91.9752 19.674C88.3083 21.1194 88.6571 24.169 88.664 24.1966C88.6778 24.2863 88.7192 24.3656 88.7883 24.4243C88.8573 24.4829 88.9402 24.5105 89.0231 24.5002C89.0541 24.5002 89.0852 24.4898 89.1163 24.476C89.2406 24.4208 89.3131 24.2829 89.2924 24.138C89.2889 24.1138 88.992 21.5644 92.2307 20.3053H92.2411C92.3999 20.2294 92.4655 20.05 92.3964 19.8741C92.3274 19.6981 92.1375 19.6084 91.9787 19.6705L91.9752 19.674Z" fill="#161742"/>
<path d="M101.225 23.1789C101.298 22.8823 101.27 22.5718 101.18 22.282C101.125 22.0992 100.97 21.5989 100.714 21.6231C100.618 21.6334 100.531 21.7197 100.528 21.8197C100.528 21.8853 100.555 21.9508 100.58 22.0129C100.673 22.2268 100.742 22.4545 100.783 22.6856C100.89 23.2479 100.5 23.5826 99.9753 23.6171C99.7612 23.6309 99.5472 23.5929 99.34 23.5481C99.2295 23.5274 99.1087 23.5239 99.0154 23.586C98.7012 23.7895 99.0396 24.0517 99.2468 24.1069C99.4539 24.1621 99.6922 24.1897 99.9063 24.1759C100.376 24.1518 100.814 23.9689 101.066 23.5584C101.139 23.4377 101.191 23.31 101.222 23.1789H101.225Z" fill="#161742"/>
<path d="M105.952 24.583C105.407 27.2841 102.962 28.1121 102.858 28.1466C102.658 28.2121 102.544 28.4329 102.61 28.6364C102.675 28.84 102.893 28.9504 103.097 28.8848C103.152 28.8676 104.447 28.4398 105.489 27.2427C106.111 26.5286 106.522 25.6869 106.715 24.7382C106.736 24.6382 106.715 24.5347 106.66 24.445C106.601 24.3587 106.515 24.3001 106.415 24.2794C106.204 24.238 106 24.3725 105.956 24.583H105.952Z" fill="#161742"/>
<path d="M95.6179 15.1169C95.5972 15.2342 95.5765 15.3583 95.5592 15.4825C95.5488 15.5653 95.5696 15.6481 95.6213 15.7137C95.6731 15.7792 95.7456 15.8241 95.8285 15.8344C95.9148 15.8448 96.0012 15.8241 96.0668 15.7723C96.1324 15.7206 96.1703 15.6481 96.1807 15.5688C96.6468 12.1225 98.9291 11.7844 99.0258 11.7741C99.1604 11.7568 99.2709 11.6533 99.2951 11.5188C99.302 11.4877 99.302 11.4532 99.2951 11.4222C99.2744 11.2497 99.1156 11.1289 98.9464 11.1496C98.9188 11.1531 96.2739 11.5498 95.6179 15.1169Z" fill="#161742"/>
<path d="M104.108 20.2432C105.517 19.26 106.75 17.7697 106.736 16.0518C107.661 19.6326 105.959 23.7275 102.769 25.6041C102.686 25.6524 102.627 26.3355 102.593 26.4528C102.444 26.9737 102.227 27.4359 101.923 27.8775C101.401 28.6365 100.894 29.4023 100.327 30.1336C99.2261 31.5549 97.9002 32.9866 96.1807 33.6351C97.1164 33.0038 97.4858 31.8206 97.693 30.7098C97.983 29.1608 98.5044 26.608 99.8027 25.5627C100.618 24.9073 101.619 24.7624 101.926 23.6274C102.05 23.1755 102.075 22.7029 102.182 22.2475C102.427 21.185 103.28 20.8159 104.108 20.2363V20.2432Z" fill="#161742"/>
<path d="M114.729 43.5532C114.729 43.5532 114.701 43.5532 114.691 43.5532C114.446 43.5325 114.263 43.3151 114.287 43.0702L116.79 14.6615C116.811 14.4165 117.029 14.2372 117.274 14.2579C117.519 14.2785 117.702 14.4959 117.678 14.7408L115.174 43.1495C115.154 43.3807 114.96 43.5566 114.732 43.5566L114.729 43.5532Z" fill="#161742"/>
<path d="M119.187 52.312C119.114 52.312 119.045 52.2948 118.979 52.2603L106.96 45.9507C106.743 45.8369 106.66 45.5678 106.774 45.3505C106.888 45.1331 107.157 45.0503 107.375 45.1642L118.986 51.2599L137.117 13.5265C137.224 13.3057 137.486 13.2091 137.711 13.316C137.932 13.423 138.025 13.6886 137.921 13.9094L119.591 52.0602C119.539 52.1706 119.446 52.2534 119.328 52.2914C119.283 52.3052 119.235 52.3155 119.187 52.3155V52.312Z" fill="#161742"/>
<path d="M171.683 82.0938C171.683 82.0938 157.081 85.6678 154.108 79.986L153.832 64.4449C153.832 64.4449 169.466 47.5411 195.314 47.5411L171.683 82.0938Z" fill="#1D478E"/>
<path d="M171.241 82.4836C171.223 82.4836 171.206 82.4836 171.185 82.4836C170.844 82.4422 156.756 86.0162 153.711 80.193C153.68 80.1309 153.663 80.0654 153.659 79.9964L153.383 64.4552C153.383 64.3414 153.424 64.231 153.5 64.1447C153.659 63.9757 169.566 47.0961 195.31 47.0961C195.555 47.0961 195.755 47.2962 195.755 47.5411C195.755 47.786 195.555 47.9861 195.31 47.9861C171.147 47.9861 155.79 63.0719 154.277 64.6208L154.55 79.8687C157.416 85.1917 171.213 81.5867 171.293 81.5936C171.538 81.6246 171.71 81.8454 171.683 82.0904C171.655 82.3146 171.462 82.4836 171.241 82.4836Z" fill="#161742"/>
<path d="M146.971 70.4302C146.971 70.4302 146.964 70.4336 146.964 70.4371C146.881 70.4957 146.764 70.475 146.702 70.3888C146.495 70.1024 145.97 69.7023 145.638 69.5401L138.242 65.7661C138.187 65.7351 137.048 65.0693 136.751 63.9722C136.599 63.4099 136.696 62.8407 137.037 62.2819C138.312 60.212 141.381 61.999 141.571 62.1128L146.011 64.2931C146.346 64.4586 148.121 65.4349 148.563 65.7144C148.653 65.7696 148.68 65.8868 148.628 65.9765C148.577 66.0628 148.463 66.0869 148.373 66.0317C147.941 65.7558 146.191 64.7933 145.863 64.6311L141.416 62.4474C141.416 62.4474 141.405 62.4405 141.398 62.4371C141.371 62.4198 138.477 60.6708 137.359 62.4923C137.069 62.9615 136.986 63.4306 137.11 63.8894C137.365 64.8278 138.398 65.4315 138.408 65.4349L145.794 69.2021C146.174 69.3918 146.75 69.8265 147.002 70.1749C147.061 70.2577 147.047 70.3715 146.971 70.4302Z" fill="#161742"/>
<path d="M149.927 62.2336C149.868 62.2819 149.782 62.2853 149.713 62.2405C149.284 61.9679 146.553 60.6467 146.087 60.4466C145.652 60.2569 144.254 59.5876 144.195 59.56C144.171 59.5462 141.554 58.3319 140.825 59.9947C140.57 60.5811 140.708 61.1572 141.239 61.7127C141.661 62.1508 142.172 62.4095 142.179 62.4129C142.272 62.4612 142.313 62.5716 142.272 62.6648C142.23 62.7579 142.12 62.7959 142.027 62.7476C141.226 62.3509 139.872 61.2297 140.483 59.8291C141.184 58.2284 143.315 58.7321 144.344 59.2185C144.357 59.2254 145.797 59.9153 146.225 60.1016C146.664 60.2914 149.44 61.6264 149.906 61.9265C149.996 61.9817 150.023 62.099 149.972 62.1887C149.961 62.206 149.947 62.2232 149.93 62.237L149.927 62.2336Z" fill="#161742"/>
<path d="M144.026 74.0007C143.971 74.0455 143.891 74.0524 143.822 74.0145C143.777 73.9903 139.41 71.5514 137.638 70.544C135.774 69.4815 135.062 68.0499 135.687 66.6217C136.437 64.9106 138.346 65.4108 138.363 65.4142C138.463 65.4418 138.526 65.5453 138.505 65.6454C138.481 65.7454 138.384 65.8041 138.28 65.7765C138.215 65.7592 136.654 65.3591 136.029 66.7838C135.484 68.0292 136.116 69.2504 137.807 70.2129C139.575 71.2202 143.943 73.6592 143.988 73.6833C144.081 73.7351 144.116 73.8489 144.071 73.9386C144.06 73.9627 144.043 73.98 144.026 73.9938V74.0007Z" fill="#161742"/>
</g>
<defs>
<clipPath id="clip0_94_4997">
<rect width="288" height="306" fill="white"/>
</clipPath>
</defs>
</svg>
