<svg width="235" height="220" viewBox="0 0 235 220" fill="none" xmlns="http://www.w3.org/2000/svg">
<path d="M201.083 31.6949C201.083 49.1995 186.893 63.3898 169.388 63.3898C151.884 63.3898 137.693 49.1995 137.693 31.6949C137.693 14.1903 151.884 0 169.388 0C186.893 0 201.083 14.1903 201.083 31.6949Z" fill="#5BC4F0" fill-opacity="0.2"/>
<path d="M234.643 148.532C234.643 158.486 226.574 166.555 216.62 166.555C206.667 166.555 198.598 158.486 198.598 148.532C198.598 138.579 206.667 130.51 216.62 130.51C226.574 130.51 234.643 138.579 234.643 148.532Z" fill="#5BC4F0" fill-opacity="0.2"/>
<g opacity="0.54">
<path d="M8.7487 124.175C9.57749 124.175 10.2494 123.502 10.2494 122.671C10.2494 121.84 9.57749 121.166 8.7487 121.166C7.91991 121.166 7.24805 121.84 7.24805 122.671C7.24805 123.502 7.91991 124.175 8.7487 124.175Z" fill="#161742"/>
<path d="M34.6421 130.699C35.0948 130.699 35.4619 130.331 35.4619 129.877C35.4619 129.423 35.0948 129.055 34.6421 129.055C34.1893 129.055 33.8223 129.423 33.8223 129.877C33.8223 130.331 34.1893 130.699 34.6421 130.699Z" fill="#161742"/>
<path d="M28.2894 138.459C29.0069 138.459 29.5886 137.876 29.5886 137.156C29.5886 136.437 29.0069 135.854 28.2894 135.854C27.5719 135.854 26.9902 136.437 26.9902 137.156C26.9902 137.876 27.5719 138.459 28.2894 138.459Z" fill="#161742"/>
<path d="M37.2786 175.328C37.8101 175.328 38.2409 174.896 38.2409 174.363C38.2409 173.83 37.8101 173.398 37.2786 173.398C36.7472 173.398 36.3164 173.83 36.3164 174.363C36.3164 174.896 36.7472 175.328 37.2786 175.328Z" fill="#161742"/>
<path d="M24.6948 155.772C25.0957 155.772 25.4208 155.446 25.4208 155.044C25.4208 154.642 25.0957 154.316 24.6948 154.316C24.2938 154.316 23.9688 154.642 23.9688 155.044C23.9688 155.446 24.2938 155.772 24.6948 155.772Z" fill="#161742"/>
<path d="M10.2278 138.872C10.6556 138.872 11.0024 138.524 11.0024 138.095C11.0024 137.666 10.6556 137.318 10.2278 137.318C9.79994 137.318 9.45312 137.666 9.45312 138.095C9.45312 138.524 9.79994 138.872 10.2278 138.872Z" fill="#161742"/>
<path d="M23.5853 111.645C24.134 111.645 24.5788 111.199 24.5788 110.649C24.5788 110.098 24.134 109.652 23.5853 109.652C23.0366 109.652 22.5918 110.098 22.5918 110.649C22.5918 111.199 23.0366 111.645 23.5853 111.645Z" fill="#161742"/>
<path d="M34.9751 118.658C35.6313 118.658 36.1631 118.125 36.1631 117.467C36.1631 116.809 35.6313 116.275 34.9751 116.275C34.319 116.275 33.7871 116.809 33.7871 117.467C33.7871 118.125 34.319 118.658 34.9751 118.658Z" fill="#161742"/>
<path d="M18.7036 152.76C19.0566 152.76 19.3428 152.473 19.3428 152.119C19.3428 151.765 19.0566 151.479 18.7036 151.479C18.3506 151.479 18.0645 151.765 18.0645 152.119C18.0645 152.473 18.3506 152.76 18.7036 152.76Z" fill="#161742"/>
<path d="M57.8875 103.438C58.3518 103.438 58.7282 103.06 58.7282 102.595C58.7282 102.129 58.3518 101.752 57.8875 101.752C57.4232 101.752 57.0469 102.129 57.0469 102.595C57.0469 103.06 57.4232 103.438 57.8875 103.438Z" fill="#161742"/>
<path d="M62.8488 122.586C63.2076 122.586 63.4984 122.294 63.4984 121.935C63.4984 121.575 63.2076 121.283 62.8488 121.283C62.49 121.283 62.1992 121.575 62.1992 121.935C62.1992 122.294 62.49 122.586 62.8488 122.586Z" fill="#161742"/>
<path d="M55.8106 134.651C56.4341 134.651 56.9396 134.144 56.9396 133.519C56.9396 132.894 56.4341 132.387 55.8106 132.387C55.1871 132.387 54.6816 132.894 54.6816 133.519C54.6816 134.144 55.1871 134.651 55.8106 134.651Z" fill="#161742"/>
<path d="M40.4842 99.3289C40.7969 99.3289 41.0504 99.0747 41.0504 98.7611C41.0504 98.4476 40.7969 98.1934 40.4842 98.1934C40.1715 98.1934 39.918 98.4476 39.918 98.7611C39.918 99.0747 40.1715 99.3289 40.4842 99.3289Z" fill="#161742"/>
<path d="M32.8322 162.172C33.3598 162.172 33.7875 161.743 33.7875 161.214C33.7875 160.685 33.3598 160.256 32.8322 160.256C32.3046 160.256 31.877 160.685 31.877 161.214C31.877 161.743 32.3046 162.172 32.8322 162.172Z" fill="#161742"/>
<path d="M1.80788 114.122C2.27023 114.122 2.64505 113.746 2.64505 113.283C2.64505 112.819 2.27023 112.443 1.80788 112.443C1.34552 112.443 0.970703 112.819 0.970703 113.283C0.970703 113.746 1.34552 114.122 1.80788 114.122Z" fill="#161742"/>
</g>
<path d="M117.807 72.6723L90.1616 85.9856L117.807 91.6543L117.807 72.6723Z" fill="#FFD325"/>
<path d="M15.8868 76.1726L45.0566 83.9124L15.8868 91.6543L15.8868 76.1726Z" fill="#FFD325"/>
<path d="M94.2045 48.5124L85.3469 62.8125L111.43 48.5301L94.2045 48.5124Z" fill="#FFD325"/>
<path d="M50.9354 48.6968L57.7363 59.6758L37.7086 48.7101L50.9354 48.6968Z" fill="#FFD325"/>
<path d="M34.2871 48.6989L43.9766 64.3398L15.4444 48.7188L34.2871 48.6989Z" fill="#FFD325"/>
<path d="M81.2171 48.6164L78.5581 55.7676L87.1641 48.5279L81.2171 48.6164Z" fill="#FFD325"/>
<path d="M57.2819 48.5276L65.5039 56.6523L63.5952 48.5276L57.2819 48.5276Z" fill="#FFD325"/>
<path d="M69.0294 48.5266L70.6513 55.8437L76.2188 48.4492L69.0294 48.5266Z" fill="#FFD325"/>
<path d="M117.807 49.0055L91.6555 72.6738L117.807 67.9875L117.807 49.0055Z" fill="#FFD325"/>
<path d="M15.6711 52.5055L41.8223 76.1738L15.6711 71.4875L15.6711 52.5055Z" fill="#FFD325"/>
<path opacity="0.3" d="M116.563 220.001C177.657 220.001 227.184 214.714 227.184 208.193C227.184 201.671 177.657 196.385 116.563 196.385C55.4683 196.385 5.94141 201.671 5.94141 208.193C5.94141 214.714 55.4683 220.001 116.563 220.001Z" fill="#5BC4F0"/>
<g clip-path="url(#clip0_2547_3350)">
<path d="M192.373 92.8809H45.7285V204.14H192.373V92.8809Z" fill="#1D478E" fill-opacity="0.9"/>
<path d="M192.373 92.8809H45.7285V105.347H192.373V92.8809Z" fill="#0E2C5E"/>
<path d="M119.05 27.3457L36.4121 64.0572V67.2201H119.05H201.687V64.0572L119.05 27.3457Z" fill="#0E2C5E"/>
<path d="M119.051 31.332L45.4883 64.0564H51.6065L119.051 33.4176L186.495 64.0564H192.615L119.051 31.332Z" fill="#161742"/>
<path d="M119.05 33.418L51.6055 64.0568H119.05H186.494L119.05 33.418Z" fill="#32B353"/>
<path d="M119.05 67.2207H36.4121L39.7121 71.0706H119.05H198.388L201.687 67.2207H119.05Z" fill="#161742"/>
<path d="M119.05 89.6973H36.4121L39.7121 93.5472H119.05H198.388L201.687 89.6973H119.05Z" fill="#1D478E"/>
<path d="M198.389 71.0703H39.7129V87.0198H198.389V71.0703Z" fill="#1D478E"/>
<path d="M143.218 77.0625H93.6523V78.4763H143.218V77.0625Z" fill="#0E2C5E"/>
<path d="M143.218 79.9961H93.6523V81.4099H143.218V79.9961Z" fill="#0E2C5E"/>
<path d="M201.501 87.0195H36.5957V89.6971H201.501V87.0195Z" fill="#0E2C5E"/>
<path d="M198.389 93.5469H39.7129V97.5797H198.389V93.5469Z" fill="#32B353"/>
<path d="M65.2343 113.113H45.582V188.609H65.2343V113.113Z" fill="#161742"/>
<path d="M65.2352 113.113H55.3926V188.609H65.2352V113.113Z" fill="#161742"/>
<path d="M68.5767 97.5801H42.209V99.1967H68.5767V97.5801Z" fill="#161742"/>
<path d="M68.5771 97.5801H55.3926V99.1967H68.5771V97.5801Z" fill="#161742"/>
<path d="M66.7984 108.266H44.0176V109.882H66.7984V108.266Z" fill="#0E2C5E"/>
<path d="M66.7988 108.266H55.3926V109.882H66.7988V108.266Z" fill="#0E2C5E"/>
<path d="M55.3922 99.1973H42.209L44.0176 102.426H55.3922H66.7668L68.5767 99.1973H55.3922Z" fill="#1D478E"/>
<path d="M55.4093 109.885H44.0195L45.5831 113.113H55.4093H65.2354L66.799 109.885H55.4093Z" fill="#1D478E"/>
<path d="M66.766 102.428H44.0195V108.268H66.766V102.428Z" fill="#0E2C5E"/>
<path d="M66.7677 102.428H55.3945V108.268H66.7677V102.428Z" fill="#0E2C5E"/>
<path d="M55.3922 99.1973H42.209L44.0176 102.426H55.3922V99.1973Z" fill="#161742"/>
<path d="M55.3926 99.1973V102.426H66.7672L68.5771 99.1973H55.3926Z" fill="#161742"/>
<path d="M55.4093 109.885H44.0195L45.5831 113.113H55.4093V109.885Z" fill="#161742"/>
<path d="M55.4102 109.885V113.113H65.2363L66.7999 109.885H55.4102Z" fill="#161742"/>
<path d="M68.5767 202.521H42.209V204.138H68.5767V202.521Z" fill="#161742"/>
<path d="M68.5771 202.521H55.3926V204.138H68.5771V202.521Z" fill="#161742"/>
<path d="M66.7984 191.836H44.0176V193.453H66.7984V191.836Z" fill="#0E2C5E"/>
<path d="M66.7988 191.836H55.3926V193.453H66.7988V191.836Z" fill="#0E2C5E"/>
<path d="M55.3922 202.522H42.209L44.0176 199.293H55.3922H66.7668L68.5767 202.522H55.3922Z" fill="#1D478E"/>
<path d="M55.4093 191.836H44.0195L45.5831 188.607H55.4093H65.2354L66.799 191.836H55.4093Z" fill="#1D478E"/>
<path d="M66.766 193.451H44.0195V199.292H66.766V193.451Z" fill="#0E2C5E"/>
<path d="M66.7677 193.451H55.3945V199.292H66.7677V193.451Z" fill="#0E2C5E"/>
<path d="M55.3922 202.522H42.209L44.0176 199.293H55.3922V202.522Z" fill="#161742"/>
<path d="M55.3926 202.522V199.293H66.7672L68.5771 202.522H55.3926Z" fill="#161742"/>
<path d="M55.4093 191.836H44.0195L45.5831 188.607H55.4093V191.836Z" fill="#161742"/>
<path d="M55.4102 191.836V188.607H65.2363L66.7999 191.836H55.4102Z" fill="#161742"/>
<path d="M107.269 113.117H87.6211V188.613H107.269V113.117Z" fill="#161742"/>
<path d="M107.268 113.117H97.4277V188.613H107.268V113.117Z" fill="#161742"/>
<path d="M110.607 97.584H84.2461V99.2006H110.607V97.584Z" fill="#161742"/>
<path d="M110.609 97.584H97.4277V99.2006H110.609V97.584Z" fill="#161742"/>
<path d="M108.832 108.27H86.0566V109.886H108.832V108.27Z" fill="#0E2C5E"/>
<path d="M108.831 108.27H97.4277V109.886H108.831V108.27Z" fill="#0E2C5E"/>
<path d="M97.4275 99.2012H97.4261H84.2461L86.0556 102.43H97.4261H97.4275H108.798L110.607 99.2012H97.4275Z" fill="#1D478E"/>
<path d="M97.4436 109.889H97.4422H86.0566L87.6199 113.117H97.4422H97.4436H107.266L108.829 109.889H97.4436Z" fill="#1D478E"/>
<path d="M108.798 102.432H86.0566V108.272H108.798V102.432Z" fill="#0E2C5E"/>
<path d="M108.798 102.432H97.4277V108.272H108.798V102.432Z" fill="#0E2C5E"/>
<path d="M97.4261 99.2012H84.2461L86.0556 102.43H97.4261H97.4275V99.2012H97.4261Z" fill="#161742"/>
<path d="M97.4277 99.2012V102.43H108.798L110.608 99.2012H97.4277Z" fill="#161742"/>
<path d="M97.4422 109.889H86.0566L87.6199 113.117H97.4422H97.4436V109.889H97.4422Z" fill="#161742"/>
<path d="M97.4434 109.889V113.117H107.266L108.829 109.889H97.4434Z" fill="#161742"/>
<path d="M110.607 202.525H84.2461V204.142H110.607V202.525Z" fill="#161742"/>
<path d="M110.609 202.525H97.4277V204.142H110.609V202.525Z" fill="#161742"/>
<path d="M108.832 191.84H86.0566V193.456H108.832V191.84Z" fill="#0E2C5E"/>
<path d="M108.831 191.84H97.4277V193.456H108.831V191.84Z" fill="#0E2C5E"/>
<path d="M97.4275 202.525H97.4261H84.2461L86.0556 199.297H97.4261H97.4275H108.798L110.607 202.525H97.4275Z" fill="#1D478E"/>
<path d="M97.4436 191.84H97.4422H86.0566L87.6199 188.611H97.4422H97.4436H107.266L108.829 191.84H97.4436Z" fill="#1D478E"/>
<path d="M108.798 193.455H86.0566V199.296H108.798V193.455Z" fill="#0E2C5E"/>
<path d="M108.798 193.455H97.4277V199.296H108.798V193.455Z" fill="#0E2C5E"/>
<path d="M97.4261 202.525H84.2461L86.0556 199.297H97.4261H97.4275V202.525H97.4261Z" fill="#161742"/>
<path d="M97.4277 202.525V199.297H108.798L110.608 202.525H97.4277Z" fill="#161742"/>
<path d="M97.4422 191.84H86.0566L87.6199 188.611H97.4422H97.4436V191.84H97.4422Z" fill="#161742"/>
<path d="M97.4434 191.84V188.611H107.266L108.829 191.84H97.4434Z" fill="#161742"/>
<path d="M149.533 113.117H129.881V188.613H149.533V113.117Z" fill="#161742"/>
<path d="M149.534 113.117H139.691V188.613H149.534V113.117Z" fill="#161742"/>
<path d="M152.874 97.584H126.506V99.2006H152.874V97.584Z" fill="#161742"/>
<path d="M152.876 97.584H139.691V99.2006H152.876V97.584Z" fill="#161742"/>
<path d="M151.097 108.27H128.316V109.886H151.097V108.27Z" fill="#0E2C5E"/>
<path d="M151.098 108.27H139.691V109.886H151.098V108.27Z" fill="#0E2C5E"/>
<path d="M139.69 99.2012H139.689H126.506L128.316 102.43H139.689H139.69H151.064L152.874 99.2012H139.69Z" fill="#1D478E"/>
<path d="M139.708 109.889H139.707H128.318L129.882 113.117H139.707H139.708H149.534L151.096 109.889H139.708Z" fill="#1D478E"/>
<path d="M151.065 102.432H128.318V108.272H151.065V102.432Z" fill="#0E2C5E"/>
<path d="M151.065 102.432H139.691V108.272H151.065V102.432Z" fill="#0E2C5E"/>
<path d="M139.689 99.2012H126.506L128.316 102.43H139.689H139.69V99.2012H139.689Z" fill="#161742"/>
<path d="M139.691 99.2012V102.43H151.065L152.875 99.2012H139.691Z" fill="#161742"/>
<path d="M139.707 109.889H128.318L129.882 113.117H139.707H139.708V109.889H139.707Z" fill="#161742"/>
<path d="M139.707 109.889V113.117H149.533L151.095 109.889H139.707Z" fill="#161742"/>
<path d="M152.874 202.525H126.506V204.142H152.874V202.525Z" fill="#161742"/>
<path d="M152.876 202.525H139.691V204.142H152.876V202.525Z" fill="#161742"/>
<path d="M151.097 191.84H128.316V193.456H151.097V191.84Z" fill="#0E2C5E"/>
<path d="M151.098 191.84H139.691V193.456H151.098V191.84Z" fill="#0E2C5E"/>
<path d="M139.69 202.525H139.689H126.506L128.316 199.297H139.689H139.69H151.064L152.874 202.525H139.69Z" fill="#161742"/>
<path d="M139.708 191.84H139.707H128.318L129.882 188.611H139.707H139.708H149.534L151.096 191.84H139.708Z" fill="#161742"/>
<path d="M151.065 193.455H128.318V199.296H151.065V193.455Z" fill="#0E2C5E"/>
<path d="M151.065 193.455H139.691V199.296H151.065V193.455Z" fill="#0E2C5E"/>
<path d="M139.689 202.525H126.506L128.316 199.297H139.689H139.69V202.525H139.689Z" fill="#161742"/>
<path d="M139.691 202.525V199.297H151.065L152.875 202.525H139.691Z" fill="#161742"/>
<path d="M139.707 191.84H128.318L129.882 188.611H139.707H139.708V191.84H139.707Z" fill="#161742"/>
<path d="M139.707 191.84V188.611H149.533L151.095 191.84H139.707Z" fill="#161742"/>
<path d="M191.793 113.117H172.141V188.613H191.793V113.117Z" fill="#161742"/>
<path d="M191.794 113.117H181.951V188.613H191.794V113.117Z" fill="#161742"/>
<path d="M195.133 97.584H168.766V99.2006H195.133V97.584Z" fill="#161742"/>
<path d="M195.136 97.584H181.951V99.2006H195.136V97.584Z" fill="#161742"/>
<path d="M193.357 108.27H170.576V109.886H193.357V108.27Z" fill="#0E2C5E"/>
<path d="M193.357 108.27H181.951V109.886H193.357V108.27Z" fill="#0E2C5E"/>
<path d="M181.95 99.2012H168.766L170.576 102.43H181.95H193.325L195.133 99.2012H181.95Z" fill="#1D478E"/>
<path d="M181.966 109.889H170.576L172.14 113.117H181.966H191.792L193.356 109.889H181.966Z" fill="#1D478E"/>
<path d="M193.323 102.432H170.576V108.272H193.323V102.432Z" fill="#0E2C5E"/>
<path d="M193.324 102.432H181.951V108.272H193.324V102.432Z" fill="#0E2C5E"/>
<path d="M181.95 99.2012H168.766L170.576 102.43H181.95V99.2012Z" fill="#161742"/>
<path d="M181.951 99.2012V102.43H193.326L195.134 99.2012H181.951Z" fill="#161742"/>
<path d="M181.966 109.889H170.576L172.14 113.117H181.966V109.889Z" fill="#161742"/>
<path d="M181.967 109.889V113.117H191.793L193.357 109.889H181.967Z" fill="#161742"/>
<path d="M195.133 202.525H168.766V204.142H195.133V202.525Z" fill="#0E2C5E"/>
<path d="M195.136 202.525H181.951V204.142H195.136V202.525Z" fill="#161742"/>
<path d="M193.357 191.84H170.576V193.456H193.357V191.84Z" fill="#0E2C5E"/>
<path d="M193.357 191.84H181.951V193.456H193.357V191.84Z" fill="#0E2C5E"/>
<path d="M181.95 202.525H168.766L170.576 199.297H181.95H193.325L195.133 202.525H181.95Z" fill="#161742"/>
<path d="M181.966 191.84H170.576L172.14 188.611H181.966H191.792L193.356 191.84H181.966Z" fill="#161742"/>
<path d="M193.323 193.455H170.576V199.296H193.323V193.455Z" fill="#0E2C5E"/>
<path d="M193.324 193.455H181.951V199.296H193.324V193.455Z" fill="#0E2C5E"/>
<path d="M181.95 202.525H168.766L170.576 199.297H181.95V202.525Z" fill="#161742"/>
<path d="M181.951 202.525V199.297H193.326L195.134 202.525H181.951Z" fill="#161742"/>
<path d="M181.966 191.84H170.576L172.14 188.611H181.966V191.84Z" fill="#161742"/>
<path d="M181.967 191.84V188.611H191.793L193.357 191.84H181.967Z" fill="#161742"/>
<path d="M143.908 205.554C143.908 208.399 148.049 210.844 153.989 211.937V199.17C148.049 200.264 143.908 202.708 143.908 205.554Z" fill="#AF8E2F"/>
<path d="M158.514 198.641V212.468C159.241 212.511 159.979 212.541 160.726 212.545V198.568C159.974 198.573 159.236 198.603 158.514 198.645V198.641Z" fill="#AF8E2F"/>
<path d="M177.983 202.699H143.908V206.126H177.983V202.699Z" fill="#AF8E2F"/>
<path d="M177.984 205.554C177.984 203.242 175.248 201.191 171.037 199.922V211.19C175.248 209.916 177.984 207.87 177.984 205.558V205.554Z" fill="#AF8E2F"/>
<path d="M153.988 199.17V211.938C155.403 212.199 156.928 212.374 158.513 212.468V198.641C156.923 198.735 155.403 198.91 153.988 199.17Z" fill="#D6B11E"/>
<path d="M160.947 198.559C160.877 198.559 160.807 198.559 160.732 198.559V212.536C160.802 212.536 160.872 212.536 160.947 212.536C164.724 212.536 168.212 212.032 171.038 211.177V199.91C168.212 199.055 164.724 198.551 160.947 198.551V198.559Z" fill="#D6B11E"/>
<path d="M160.946 210.468C170.355 210.468 177.983 207.336 177.983 203.473C177.983 199.61 170.355 196.479 160.946 196.479C151.536 196.479 143.908 199.61 143.908 203.473C143.908 207.336 151.536 210.468 160.946 210.468Z" fill="#AF8E2F"/>
<path d="M160.946 209.947C170.355 209.947 177.983 206.815 177.983 202.952C177.983 199.089 170.355 195.957 160.946 195.957C151.536 195.957 143.908 199.089 143.908 202.952C143.908 206.815 151.536 209.947 160.946 209.947Z" fill="#FFD840"/>
<path d="M160.946 208.336C168.429 208.336 174.495 205.926 174.495 202.952C174.495 199.979 168.429 197.568 160.946 197.568C153.463 197.568 147.396 199.979 147.396 202.952C147.396 205.926 153.463 208.336 160.946 208.336Z" fill="#FFD325"/>
<path d="M157.049 203.439L154.926 202.473L156.585 201.734L158.708 202.7C159.71 203.153 161.354 203.153 162.376 202.7C163.397 202.243 163.417 201.503 162.415 201.05L160.198 200.042L161.857 199.303L164.075 200.311C165.968 201.174 165.934 202.576 164 203.439C162.062 204.302 158.947 204.302 157.049 203.439Z" fill="#AF8E2F"/>
<path d="M165.066 204.671L157.512 201.235L159.171 200.496L166.726 203.932L165.066 204.671Z" fill="#AF8E2F"/>
<path d="M167.754 203.473L160.199 200.038L161.859 199.299L169.408 202.734L167.754 203.473Z" fill="#AF8E2F"/>
<path d="M156.511 206.606L157.249 202.555L154.936 202.479L154.363 205.628L156.511 206.606Z" fill="#AF8E2F"/>
<path d="M143.908 201.22C143.908 204.065 148.049 206.51 153.989 207.603V194.836C148.049 195.93 143.908 198.374 143.908 201.22Z" fill="#AF8E2F"/>
<path d="M158.514 194.307V208.134C159.241 208.177 159.979 208.207 160.726 208.211V194.234C159.974 194.239 159.236 194.269 158.514 194.311V194.307Z" fill="#AF8E2F"/>
<path d="M177.983 198.365H143.908V201.792H177.983V198.365Z" fill="#AF8E2F"/>
<path d="M177.984 201.22C177.984 198.908 175.248 196.857 171.037 195.588V206.856C175.248 205.582 177.984 203.536 177.984 201.224V201.22Z" fill="#AF8E2F"/>
<path d="M153.988 194.836V207.604C155.403 207.865 156.928 208.04 158.513 208.134V194.307C156.923 194.401 155.403 194.576 153.988 194.836Z" fill="#D6B11E"/>
<path d="M160.947 194.225C160.877 194.225 160.807 194.225 160.732 194.225V208.202C160.802 208.202 160.872 208.202 160.947 208.202C164.724 208.202 168.212 207.698 171.038 206.843V195.576C168.212 194.721 164.724 194.217 160.947 194.217V194.225Z" fill="#D6B11E"/>
<path d="M160.946 206.134C170.355 206.134 177.983 203.002 177.983 199.139C177.983 195.276 170.355 192.145 160.946 192.145C151.536 192.145 143.908 195.276 143.908 199.139C143.908 203.002 151.536 206.134 160.946 206.134Z" fill="#AF8E2F"/>
<path d="M160.946 205.613C170.355 205.613 177.983 202.481 177.983 198.618C177.983 194.755 170.355 191.623 160.946 191.623C151.536 191.623 143.908 194.755 143.908 198.618C143.908 202.481 151.536 205.613 160.946 205.613Z" fill="#FFD840"/>
<path d="M160.946 204.002C168.429 204.002 174.495 201.592 174.495 198.618C174.495 195.645 168.429 193.234 160.946 193.234C153.463 193.234 147.396 195.645 147.396 198.618C147.396 201.592 153.463 204.002 160.946 204.002Z" fill="#FFD325"/>
<path d="M157.049 199.105L154.926 198.139L156.585 197.4L158.708 198.366C159.71 198.819 161.354 198.819 162.376 198.366C163.397 197.909 163.417 197.169 162.415 196.716L160.198 195.708L161.857 194.969L164.075 195.977C165.968 196.84 165.934 198.242 164 199.105C162.062 199.968 158.947 199.968 157.049 199.105Z" fill="#AF8E2F"/>
<path d="M165.066 200.335L157.512 196.899L159.171 196.16L166.726 199.596L165.066 200.335Z" fill="#AF8E2F"/>
<path d="M167.754 199.14L160.199 195.704L161.859 194.965L169.408 198.4L167.754 199.14Z" fill="#AF8E2F"/>
<path d="M156.511 202.272L157.249 198.221L154.936 198.145L154.363 201.294L156.511 202.272Z" fill="#AF8E2F"/>
<path d="M143.908 196.888C143.908 199.733 148.049 202.178 153.989 203.271V190.504C148.049 191.598 143.908 194.042 143.908 196.888Z" fill="#AF8E2F"/>
<path d="M158.514 189.975V203.802C159.241 203.845 159.979 203.875 160.726 203.879V189.902C159.974 189.907 159.236 189.937 158.514 189.979V189.975Z" fill="#AF8E2F"/>
<path d="M177.983 194.033H143.908V197.46H177.983V194.033Z" fill="#AF8E2F"/>
<path d="M177.984 196.888C177.984 194.576 175.248 192.525 171.037 191.252V202.52C175.248 201.246 177.984 199.2 177.984 196.888Z" fill="#AF8E2F"/>
<path d="M153.988 190.504V203.272C155.403 203.533 156.928 203.708 158.513 203.802V189.975C156.923 190.069 155.403 190.244 153.988 190.504Z" fill="#D6B11E"/>
<path d="M160.947 189.893C160.877 189.893 160.807 189.893 160.732 189.893V203.87C160.802 203.87 160.872 203.87 160.947 203.87C164.724 203.87 168.212 203.366 171.038 202.511V191.244C168.212 190.389 164.724 189.885 160.947 189.885V189.893Z" fill="#D6B11E"/>
<path d="M160.946 201.802C170.355 201.802 177.983 198.67 177.983 194.807C177.983 190.944 170.355 187.812 160.946 187.812C151.536 187.812 143.908 190.944 143.908 194.807C143.908 198.67 151.536 201.802 160.946 201.802Z" fill="#AF8E2F"/>
<path d="M160.946 201.281C170.355 201.281 177.983 198.149 177.983 194.286C177.983 190.423 170.355 187.291 160.946 187.291C151.536 187.291 143.908 190.423 143.908 194.286C143.908 198.149 151.536 201.281 160.946 201.281Z" fill="#FFD840"/>
<path d="M160.946 199.67C168.429 199.67 174.495 197.26 174.495 194.286C174.495 191.313 168.429 188.902 160.946 188.902C153.463 188.902 147.396 191.313 147.396 194.286C147.396 197.26 153.463 199.67 160.946 199.67Z" fill="#FFD325"/>
<path d="M157.049 194.773L154.926 193.807L156.585 193.068L158.708 194.034C159.71 194.487 161.354 194.487 162.376 194.034C163.397 193.576 163.417 192.837 162.415 192.384L160.198 191.376L161.857 190.637L164.075 191.645C165.968 192.508 165.934 193.91 164 194.773C162.062 195.636 158.947 195.636 157.049 194.773Z" fill="#AF8E2F"/>
<path d="M165.066 196.003L157.512 192.567L159.171 191.828L166.726 195.264L165.066 196.003Z" fill="#AF8E2F"/>
<path d="M167.754 194.807L160.199 191.372L161.859 190.633L169.408 194.068L167.754 194.807Z" fill="#AF8E2F"/>
<path d="M156.511 197.94L157.249 193.889L154.936 193.812L154.363 196.962L156.511 197.94Z" fill="#AF8E2F"/>
<path d="M143.908 192.554C143.908 195.399 148.049 197.844 153.989 198.937V186.17C148.049 187.264 143.908 189.708 143.908 192.554Z" fill="#AF8E2F"/>
<path d="M158.514 185.641V199.468C159.241 199.511 159.979 199.541 160.726 199.545V185.568C159.974 185.573 159.236 185.603 158.514 185.645V185.641Z" fill="#AF8E2F"/>
<path d="M177.983 189.699H143.908V193.126H177.983V189.699Z" fill="#AF8E2F"/>
<path d="M177.984 192.554C177.984 190.242 175.248 188.191 171.037 186.922V198.19C175.248 196.916 177.984 194.87 177.984 192.558V192.554Z" fill="#AF8E2F"/>
<path d="M153.988 186.17V198.938C155.403 199.199 156.928 199.374 158.513 199.468V185.641C156.923 185.735 155.403 185.91 153.988 186.17Z" fill="#D6B11E"/>
<path d="M160.947 185.559C160.877 185.559 160.807 185.559 160.732 185.559V199.536C160.802 199.536 160.872 199.536 160.947 199.536C164.724 199.536 168.212 199.032 171.038 198.177V186.91C168.212 186.055 164.724 185.551 160.947 185.551V185.559Z" fill="#D6B11E"/>
<path d="M160.946 197.468C170.355 197.468 177.983 194.336 177.983 190.473C177.983 186.61 170.355 183.479 160.946 183.479C151.536 183.479 143.908 186.61 143.908 190.473C143.908 194.336 151.536 197.468 160.946 197.468Z" fill="#AF8E2F"/>
<path d="M160.946 196.947C170.355 196.947 177.983 193.815 177.983 189.952C177.983 186.089 170.355 182.957 160.946 182.957C151.536 182.957 143.908 186.089 143.908 189.952C143.908 193.815 151.536 196.947 160.946 196.947Z" fill="#FFD840"/>
<path d="M160.946 195.336C168.429 195.336 174.495 192.926 174.495 189.952C174.495 186.979 168.429 184.568 160.946 184.568C153.463 184.568 147.396 186.979 147.396 189.952C147.396 192.926 153.463 195.336 160.946 195.336Z" fill="#FFD325"/>
<path d="M157.049 190.439L154.926 189.473L156.585 188.734L158.708 189.7C159.71 190.153 161.354 190.153 162.376 189.7C163.397 189.243 163.417 188.503 162.415 188.05L160.198 187.042L161.857 186.303L164.075 187.311C165.968 188.174 165.934 189.576 164 190.439C162.062 191.302 158.947 191.302 157.049 190.439Z" fill="#AF8E2F"/>
<path d="M165.066 191.671L157.512 188.235L159.171 187.496L166.726 190.932L165.066 191.671Z" fill="#AF8E2F"/>
<path d="M167.754 190.473L160.199 187.038L161.859 186.299L169.408 189.734L167.754 190.473Z" fill="#AF8E2F"/>
<path d="M156.511 193.606L157.249 189.551L154.936 189.479L154.363 192.628L156.511 193.606Z" fill="#AF8E2F"/>
<path d="M143.908 188.222C143.908 191.067 148.049 193.512 153.989 194.605V181.838C148.049 182.932 143.908 185.376 143.908 188.222Z" fill="#AF8E2F"/>
<path d="M158.514 181.309V195.136C159.241 195.179 159.979 195.209 160.726 195.213V181.236C159.974 181.241 159.236 181.271 158.514 181.313V181.309Z" fill="#AF8E2F"/>
<path d="M177.983 185.367H143.908V188.794H177.983V185.367Z" fill="#AF8E2F"/>
<path d="M177.984 188.222C177.984 185.91 175.248 183.859 171.037 182.59V193.858C175.248 192.584 177.984 190.538 177.984 188.226V188.222Z" fill="#AF8E2F"/>
<path d="M153.988 181.838V194.606C155.403 194.867 156.928 195.042 158.513 195.136V181.309C156.923 181.403 155.403 181.578 153.988 181.838Z" fill="#D6B11E"/>
<path d="M160.947 181.227C160.877 181.227 160.807 181.227 160.732 181.227V195.204C160.802 195.204 160.872 195.204 160.947 195.204C164.724 195.204 168.212 194.7 171.038 193.845V182.578C168.212 181.723 164.724 181.219 160.947 181.219V181.227Z" fill="#D6B11E"/>
<path d="M160.946 193.136C170.355 193.136 177.983 190.004 177.983 186.141C177.983 182.278 170.355 179.146 160.946 179.146C151.536 179.146 143.908 182.278 143.908 186.141C143.908 190.004 151.536 193.136 160.946 193.136Z" fill="#AF8E2F"/>
<path d="M160.946 192.615C170.355 192.615 177.983 189.483 177.983 185.62C177.983 181.757 170.355 178.625 160.946 178.625C151.536 178.625 143.908 181.757 143.908 185.62C143.908 189.483 151.536 192.615 160.946 192.615Z" fill="#FFD840"/>
<path d="M160.946 191.004C168.429 191.004 174.495 188.594 174.495 185.62C174.495 182.647 168.429 180.236 160.946 180.236C153.463 180.236 147.396 182.647 147.396 185.62C147.396 188.594 153.463 191.004 160.946 191.004Z" fill="#FFD325"/>
<path d="M157.049 186.107L154.926 185.141L156.585 184.402L158.708 185.368C159.71 185.821 161.354 185.821 162.376 185.368C163.397 184.91 163.417 184.171 162.415 183.718L160.198 182.71L161.857 181.971L164.075 182.979C165.968 183.842 165.934 185.244 164 186.107C162.062 186.97 158.947 186.97 157.049 186.107Z" fill="#AF8E2F"/>
<path d="M165.066 187.339L157.512 183.903L159.171 183.164L166.726 186.6L165.066 187.339Z" fill="#AF8E2F"/>
<path d="M167.754 186.141L160.199 182.706L161.859 181.967L169.408 185.402L167.754 186.141Z" fill="#AF8E2F"/>
<path d="M156.511 189.27L157.249 185.219L154.936 185.146L154.363 188.296L156.511 189.27Z" fill="#AF8E2F"/>
<path d="M179.953 205.876C179.953 208.722 184.094 211.166 190.034 212.26V199.492C184.094 200.586 179.953 203.03 179.953 205.876Z" fill="#AF8E2F"/>
<path d="M194.564 198.963V212.79C195.292 212.833 196.029 212.863 196.777 212.867V198.891C196.025 198.895 195.287 198.925 194.564 198.968V198.963Z" fill="#AF8E2F"/>
<path d="M214.028 203.021H179.953V206.448H214.028V203.021Z" fill="#AF8E2F"/>
<path d="M214.029 205.876C214.029 203.564 211.293 201.513 207.082 200.244V211.512C211.293 210.239 214.029 208.192 214.029 205.88V205.876Z" fill="#AF8E2F"/>
<path d="M190.039 199.493V212.26C191.454 212.521 192.979 212.696 194.564 212.79V198.963C192.974 199.057 191.454 199.232 190.039 199.493Z" fill="#D6B11E"/>
<path d="M196.992 198.882C196.922 198.882 196.852 198.882 196.777 198.882V212.858C196.847 212.858 196.917 212.858 196.992 212.858C200.769 212.858 204.257 212.354 207.082 211.5V200.232C204.257 199.377 200.769 198.873 196.992 198.873V198.882Z" fill="#D6B11E"/>
<path d="M196.99 210.79C206.4 210.79 214.028 207.659 214.028 203.796C214.028 199.932 206.4 196.801 196.99 196.801C187.581 196.801 179.953 199.932 179.953 203.796C179.953 207.659 187.581 210.79 196.99 210.79Z" fill="#AF8E2F"/>
<path d="M196.99 210.269C206.4 210.269 214.028 207.137 214.028 203.274C214.028 199.411 206.4 196.279 196.99 196.279C187.581 196.279 179.953 199.411 179.953 203.274C179.953 207.137 187.581 210.269 196.99 210.269Z" fill="#FFD840"/>
<path d="M196.991 208.658C204.474 208.658 210.54 206.248 210.54 203.275C210.54 200.301 204.474 197.891 196.991 197.891C189.508 197.891 183.441 200.301 183.441 203.275C183.441 206.248 189.508 208.658 196.991 208.658Z" fill="#FFD325"/>
<path d="M193.099 203.761L190.977 202.796L192.636 202.056L194.759 203.022C195.76 203.475 197.405 203.475 198.426 203.022C199.448 202.565 199.468 201.826 198.466 201.373L196.249 200.364L197.908 199.625L200.126 200.633C202.019 201.497 201.984 202.898 200.051 203.761C198.112 204.624 194.998 204.624 193.099 203.761Z" fill="#AF8E2F"/>
<path d="M201.117 204.993L193.562 201.558L195.222 200.818L202.771 204.254L201.117 204.993Z" fill="#AF8E2F"/>
<path d="M203.799 203.796L196.244 200.36L197.904 199.621L205.458 203.057L203.799 203.796Z" fill="#AF8E2F"/>
<path d="M192.556 206.928L193.298 202.878L190.986 202.801L190.408 205.95L192.556 206.928Z" fill="#AF8E2F"/>
<path d="M179.953 201.544C179.953 204.39 184.094 206.834 190.034 207.928V195.16C184.094 196.254 179.953 198.698 179.953 201.544Z" fill="#AF8E2F"/>
<path d="M194.564 194.631V208.458C195.292 208.501 196.029 208.531 196.777 208.535V194.559C196.025 194.563 195.287 194.593 194.564 194.636V194.631Z" fill="#AF8E2F"/>
<path d="M214.028 198.689H179.953V202.116H214.028V198.689Z" fill="#AF8E2F"/>
<path d="M214.029 201.544C214.029 199.232 211.293 197.181 207.082 195.912V207.18C211.293 205.907 214.029 203.86 214.029 201.548V201.544Z" fill="#AF8E2F"/>
<path d="M190.039 195.161V207.928C191.454 208.189 192.979 208.364 194.564 208.458V194.631C192.974 194.725 191.454 194.9 190.039 195.161Z" fill="#D6B11E"/>
<path d="M196.992 194.55C196.922 194.55 196.852 194.55 196.777 194.55V208.526C196.847 208.526 196.917 208.526 196.992 208.526C200.769 208.526 204.257 208.022 207.082 207.168V195.9C204.257 195.045 200.769 194.541 196.992 194.541V194.55Z" fill="#D6B11E"/>
<path d="M196.99 206.458C206.4 206.458 214.028 203.327 214.028 199.464C214.028 195.6 206.4 192.469 196.99 192.469C187.581 192.469 179.953 195.6 179.953 199.464C179.953 203.327 187.581 206.458 196.99 206.458Z" fill="#AF8E2F"/>
<path d="M196.99 205.937C206.4 205.937 214.028 202.805 214.028 198.942C214.028 195.079 206.4 191.947 196.99 191.947C187.581 191.947 179.953 195.079 179.953 198.942C179.953 202.805 187.581 205.937 196.99 205.937Z" fill="#FFD840"/>
<path d="M196.991 204.326C204.474 204.326 210.54 201.916 210.54 198.943C210.54 195.969 204.474 193.559 196.991 193.559C189.508 193.559 183.441 195.969 183.441 198.943C183.441 201.916 189.508 204.326 196.991 204.326Z" fill="#FFD325"/>
<path d="M193.099 199.429L190.977 198.463L192.636 197.724L194.759 198.69C195.76 199.143 197.405 199.143 198.426 198.69C199.448 198.233 199.468 197.494 198.466 197.041L196.249 196.032L197.908 195.293L200.126 196.301C202.019 197.165 201.984 198.566 200.051 199.429C198.112 200.292 194.998 200.292 193.099 199.429Z" fill="#AF8E2F"/>
<path d="M201.117 200.659L193.562 197.224L195.222 196.484L202.771 199.92L201.117 200.659Z" fill="#AF8E2F"/>
<path d="M203.799 199.464L196.244 196.028L197.904 195.289L205.458 198.725L203.799 199.464Z" fill="#AF8E2F"/>
<path d="M192.556 202.596L193.298 198.546L190.986 198.469L190.408 201.618L192.556 202.596Z" fill="#AF8E2F"/>
<path d="M179.953 197.21C179.953 200.056 184.094 202.5 190.034 203.594V190.826C184.094 191.92 179.953 194.364 179.953 197.21Z" fill="#AF8E2F"/>
<path d="M194.564 190.297V204.124C195.292 204.167 196.029 204.197 196.777 204.201V190.225C196.025 190.229 195.287 190.259 194.564 190.302V190.297Z" fill="#AF8E2F"/>
<path d="M214.028 194.355H179.953V197.782H214.028V194.355Z" fill="#AF8E2F"/>
<path d="M214.029 197.21C214.029 194.899 211.293 192.848 207.082 191.574V202.842C211.293 201.569 214.029 199.522 214.029 197.21Z" fill="#AF8E2F"/>
<path d="M190.039 190.827V203.594C191.454 203.855 192.979 204.03 194.564 204.124V190.297C192.974 190.391 191.454 190.566 190.039 190.827Z" fill="#D6B11E"/>
<path d="M196.992 190.216C196.922 190.216 196.852 190.216 196.777 190.216V204.192C196.847 204.192 196.917 204.192 196.992 204.192C200.769 204.192 204.257 203.688 207.082 202.834V191.566C204.257 190.711 200.769 190.207 196.992 190.207V190.216Z" fill="#D6B11E"/>
<path d="M196.99 202.124C206.4 202.124 214.028 198.993 214.028 195.13C214.028 191.266 206.4 188.135 196.99 188.135C187.581 188.135 179.953 191.266 179.953 195.13C179.953 198.993 187.581 202.124 196.99 202.124Z" fill="#AF8E2F"/>
<path d="M196.99 201.603C206.4 201.603 214.028 198.471 214.028 194.608C214.028 190.745 206.4 187.613 196.99 187.613C187.581 187.613 179.953 190.745 179.953 194.608C179.953 198.471 187.581 201.603 196.99 201.603Z" fill="#FFD840"/>
<path d="M196.991 199.992C204.474 199.992 210.54 197.582 210.54 194.609C210.54 191.635 204.474 189.225 196.991 189.225C189.508 189.225 183.441 191.635 183.441 194.609C183.441 197.582 189.508 199.992 196.991 199.992Z" fill="#FFD325"/>
<path d="M193.099 195.095L190.977 194.129L192.636 193.39L194.759 194.356C195.76 194.809 197.405 194.809 198.426 194.356C199.448 193.899 199.468 193.16 198.466 192.707L196.249 191.698L197.908 190.959L200.126 191.967C202.019 192.831 201.984 194.232 200.051 195.095C198.112 195.958 194.998 195.958 193.099 195.095Z" fill="#AF8E2F"/>
<path d="M201.117 196.325L193.562 192.89L195.222 192.15L202.771 195.586L201.117 196.325Z" fill="#AF8E2F"/>
<path d="M203.799 195.13L196.244 191.694L197.904 190.955L205.458 194.391L203.799 195.13Z" fill="#AF8E2F"/>
<path d="M192.556 198.262L193.298 194.212L190.986 194.135L190.408 197.284L192.556 198.262Z" fill="#AF8E2F"/>
<path d="M179.953 192.878C179.953 195.724 184.094 198.168 190.034 199.262V186.494C184.094 187.588 179.953 190.032 179.953 192.878Z" fill="#AF8E2F"/>
<path d="M194.564 185.965V199.792C195.292 199.835 196.029 199.865 196.777 199.869V185.893C196.025 185.897 195.287 185.927 194.564 185.969V185.965Z" fill="#AF8E2F"/>
<path d="M214.028 190.023H179.953V193.45H214.028V190.023Z" fill="#AF8E2F"/>
<path d="M214.029 192.878C214.029 190.566 211.293 188.515 207.082 187.246V198.514C211.293 197.241 214.029 195.194 214.029 192.882V192.878Z" fill="#AF8E2F"/>
<path d="M190.039 186.495V199.262C191.454 199.523 192.979 199.698 194.564 199.792V185.965C192.974 186.059 191.454 186.234 190.039 186.495Z" fill="#D6B11E"/>
<path d="M196.992 185.884C196.922 185.884 196.852 185.884 196.777 185.884V199.86C196.847 199.86 196.917 199.86 196.992 199.86C200.769 199.86 204.257 199.356 207.082 198.502V187.234C204.257 186.379 200.769 185.875 196.992 185.875V185.884Z" fill="#D6B11E"/>
<path d="M196.99 197.792C206.4 197.792 214.028 194.661 214.028 190.798C214.028 186.934 206.4 183.803 196.99 183.803C187.581 183.803 179.953 186.934 179.953 190.798C179.953 194.661 187.581 197.792 196.99 197.792Z" fill="#AF8E2F"/>
<path d="M196.99 197.271C206.4 197.271 214.028 194.139 214.028 190.276C214.028 186.413 206.4 183.281 196.99 183.281C187.581 183.281 179.953 186.413 179.953 190.276C179.953 194.139 187.581 197.271 196.99 197.271Z" fill="#FFD840"/>
<path d="M196.991 195.66C204.474 195.66 210.54 193.25 210.54 190.276C210.54 187.303 204.474 184.893 196.991 184.893C189.508 184.893 183.441 187.303 183.441 190.276C183.441 193.25 189.508 195.66 196.991 195.66Z" fill="#FFD325"/>
<path d="M193.099 190.763L190.977 189.797L192.636 189.058L194.759 190.024C195.76 190.477 197.405 190.477 198.426 190.024C199.448 189.567 199.468 188.828 198.466 188.375L196.249 187.366L197.908 186.627L200.126 187.635C202.019 188.499 201.984 189.9 200.051 190.763C198.112 191.626 194.998 191.626 193.099 190.763Z" fill="#AF8E2F"/>
<path d="M201.117 191.995L193.562 188.56L195.222 187.82L202.771 191.256L201.117 191.995Z" fill="#AF8E2F"/>
<path d="M203.799 190.798L196.244 187.362L197.904 186.623L205.458 190.058L203.799 190.798Z" fill="#AF8E2F"/>
<path d="M192.556 193.93L193.298 189.875L190.986 189.803L190.408 192.952L192.556 193.93Z" fill="#AF8E2F"/>
<path d="M179.953 188.546C179.953 191.392 184.094 193.836 190.034 194.93V182.162C184.094 183.256 179.953 185.7 179.953 188.546Z" fill="#AF8E2F"/>
<path d="M194.564 181.633V195.46C195.292 195.503 196.029 195.533 196.777 195.537V181.561C196.025 181.565 195.287 181.595 194.564 181.637V181.633Z" fill="#AF8E2F"/>
<path d="M214.028 185.691H179.953V189.118H214.028V185.691Z" fill="#AF8E2F"/>
<path d="M214.029 188.546C214.029 186.234 211.293 184.183 207.082 182.914V194.182C211.293 192.908 214.029 190.862 214.029 188.55V188.546Z" fill="#AF8E2F"/>
<path d="M190.039 182.163V194.93C191.454 195.191 192.979 195.366 194.564 195.46V181.633C192.974 181.727 191.454 181.902 190.039 182.163Z" fill="#D6B11E"/>
<path d="M196.992 181.552C196.922 181.552 196.852 181.552 196.777 181.552V195.528C196.847 195.528 196.917 195.528 196.992 195.528C200.769 195.528 204.257 195.024 207.082 194.17V182.902C204.257 182.047 200.769 181.543 196.992 181.543V181.552Z" fill="#D6B11E"/>
<path d="M196.99 193.46C206.4 193.46 214.028 190.329 214.028 186.466C214.028 182.602 206.4 179.471 196.99 179.471C187.581 179.471 179.953 182.602 179.953 186.466C179.953 190.329 187.581 193.46 196.99 193.46Z" fill="#AF8E2F"/>
<path d="M196.99 192.939C206.4 192.939 214.028 189.807 214.028 185.944C214.028 182.081 206.4 178.949 196.99 178.949C187.581 178.949 179.953 182.081 179.953 185.944C179.953 189.807 187.581 192.939 196.99 192.939Z" fill="#FFD840"/>
<path d="M196.991 191.328C204.474 191.328 210.54 188.918 210.54 185.944C210.54 182.971 204.474 180.561 196.991 180.561C189.508 180.561 183.441 182.971 183.441 185.944C183.441 188.918 189.508 191.328 196.991 191.328Z" fill="#FFD325"/>
<path d="M193.099 186.431L190.977 185.465L192.636 184.726L194.759 185.692C195.76 186.145 197.405 186.145 198.426 185.692C199.448 185.239 199.468 184.495 198.466 184.043L196.249 183.034L197.908 182.295L200.126 183.303C202.019 184.166 201.984 185.568 200.051 186.431C198.112 187.294 194.998 187.294 193.099 186.431Z" fill="#AF8E2F"/>
<path d="M201.117 187.663L193.562 184.228L195.222 183.488L202.771 186.924L201.117 187.663Z" fill="#AF8E2F"/>
<path d="M203.799 186.466L196.244 183.03L197.904 182.291L205.458 185.726L203.799 186.466Z" fill="#AF8E2F"/>
<path d="M192.556 189.594L193.298 185.543L190.986 185.471L190.408 188.62L192.556 189.594Z" fill="#AF8E2F"/>
<path d="M179.953 184.212C179.953 187.058 184.094 189.502 190.034 190.596V177.828C184.094 178.922 179.953 181.366 179.953 184.212Z" fill="#AF8E2F"/>
<path d="M194.564 177.299V191.126C195.292 191.169 196.029 191.199 196.777 191.203V177.227C196.025 177.231 195.287 177.261 194.564 177.303V177.299Z" fill="#AF8E2F"/>
<path d="M214.028 181.357H179.953V184.784H214.028V181.357Z" fill="#AF8E2F"/>
<path d="M214.029 184.212C214.029 181.9 211.293 179.849 207.082 178.58V189.848C211.293 188.574 214.029 186.528 214.029 184.212Z" fill="#AF8E2F"/>
<path d="M190.039 177.829V190.596C191.454 190.857 192.979 191.032 194.564 191.126V177.299C192.974 177.393 191.454 177.568 190.039 177.829Z" fill="#D6B11E"/>
<path d="M196.992 177.218C196.922 177.218 196.852 177.218 196.777 177.218V191.194C196.847 191.194 196.917 191.194 196.992 191.194C200.769 191.194 204.257 190.69 207.082 189.836V178.568C204.257 177.713 200.769 177.209 196.992 177.209V177.218Z" fill="#D6B11E"/>
<path d="M196.99 189.126C206.4 189.126 214.028 185.995 214.028 182.132C214.028 178.268 206.4 175.137 196.99 175.137C187.581 175.137 179.953 178.268 179.953 182.132C179.953 185.995 187.581 189.126 196.99 189.126Z" fill="#AF8E2F"/>
<path d="M196.99 188.605C206.4 188.605 214.028 185.473 214.028 181.61C214.028 177.747 206.4 174.615 196.99 174.615C187.581 174.615 179.953 177.747 179.953 181.61C179.953 185.473 187.581 188.605 196.99 188.605Z" fill="#FFD840"/>
<path d="M196.991 186.994C204.474 186.994 210.54 184.584 210.54 181.61C210.54 178.637 204.474 176.227 196.991 176.227C189.508 176.227 183.441 178.637 183.441 181.61C183.441 184.584 189.508 186.994 196.991 186.994Z" fill="#FFD325"/>
<path d="M193.099 182.097L190.977 181.131L192.636 180.392L194.759 181.358C195.76 181.811 197.405 181.811 198.426 181.358C199.448 180.901 199.468 180.161 198.466 179.709L196.249 178.7L197.908 177.961L200.126 178.969C202.019 179.832 201.984 181.234 200.051 182.097C198.112 182.96 194.998 182.96 193.099 182.097Z" fill="#AF8E2F"/>
<path d="M201.117 183.329L193.562 179.894L195.222 179.154L202.771 182.59L201.117 183.329Z" fill="#AF8E2F"/>
<path d="M203.799 182.132L196.244 178.696L197.904 177.957L205.458 181.392L203.799 182.132Z" fill="#AF8E2F"/>
<path d="M192.556 185.26L193.298 181.209L190.986 181.137L190.408 184.286L192.556 185.26Z" fill="#AF8E2F"/>
<path d="M179.953 179.88C179.953 182.726 184.094 185.17 190.034 186.264V173.496C184.094 174.59 179.953 177.034 179.953 179.88Z" fill="#AF8E2F"/>
<path d="M194.564 172.967V186.794C195.292 186.837 196.029 186.867 196.777 186.871V172.895C196.025 172.899 195.287 172.929 194.564 172.971V172.967Z" fill="#AF8E2F"/>
<path d="M214.028 177.025H179.953V180.452H214.028V177.025Z" fill="#AF8E2F"/>
<path d="M214.029 179.88C214.029 177.568 211.293 175.517 207.082 174.248V185.516C211.293 184.242 214.029 182.196 214.029 179.884V179.88Z" fill="#AF8E2F"/>
<path d="M190.039 173.497V186.264C191.454 186.525 192.979 186.7 194.564 186.794V172.967C192.974 173.061 191.454 173.236 190.039 173.497Z" fill="#D6B11E"/>
<path d="M196.992 172.885C196.922 172.885 196.852 172.885 196.777 172.885V186.862C196.847 186.862 196.917 186.862 196.992 186.862C200.769 186.862 204.257 186.358 207.082 185.503V174.236C204.257 173.381 200.769 172.877 196.992 172.877V172.885Z" fill="#D6B11E"/>
<path d="M196.99 184.794C206.4 184.794 214.028 181.663 214.028 177.799C214.028 173.936 206.4 170.805 196.99 170.805C187.581 170.805 179.953 173.936 179.953 177.799C179.953 181.663 187.581 184.794 196.99 184.794Z" fill="#AF8E2F"/>
<path d="M196.99 184.273C206.4 184.273 214.028 181.141 214.028 177.278C214.028 173.415 206.4 170.283 196.99 170.283C187.581 170.283 179.953 173.415 179.953 177.278C179.953 181.141 187.581 184.273 196.99 184.273Z" fill="#FFD840"/>
<path d="M196.991 182.662C204.474 182.662 210.54 180.252 210.54 177.278C210.54 174.305 204.474 171.895 196.991 171.895C189.508 171.895 183.441 174.305 183.441 177.278C183.441 180.252 189.508 182.662 196.991 182.662Z" fill="#FFD325"/>
<path d="M193.099 177.765L190.977 176.799L192.636 176.06L194.759 177.026C195.76 177.479 197.405 177.479 198.426 177.026C199.448 176.569 199.468 175.829 198.466 175.377L196.249 174.368L197.908 173.629L200.126 174.637C202.019 175.5 201.984 176.902 200.051 177.765C198.112 178.628 194.998 178.628 193.099 177.765Z" fill="#AF8E2F"/>
<path d="M201.117 178.995L193.562 175.56L195.222 174.82L202.771 178.256L201.117 178.995Z" fill="#AF8E2F"/>
<path d="M203.799 177.8L196.244 174.364L197.904 173.625L205.458 177.06L203.799 177.8Z" fill="#AF8E2F"/>
<path d="M192.556 180.926L193.298 176.875L190.986 176.803L190.408 179.952L192.556 180.926Z" fill="#AF8E2F"/>
<path d="M85.3876 109.262C87.3822 106.967 86.2445 102.492 82.9096 98.0216L73.9468 108.315C78.8125 111.025 83.3921 111.554 85.3876 109.262Z" fill="#AF8E2F"/>
<path d="M70.4528 106.008L80.1558 94.8585C79.6852 94.3838 79.1977 93.9173 78.6791 93.4576L68.8669 104.729C69.3881 105.179 69.9179 105.603 70.4474 106.005L70.4528 106.008Z" fill="#AF8E2F"/>
<path d="M59.859 90.9748L83.3809 111.566L85.7858 108.803L62.2639 88.2113L59.859 90.9748Z" fill="#AF8E2F"/>
<path d="M61.8683 88.6717C60.2478 90.5362 60.6953 93.8385 62.7086 97.4133L70.615 88.3297C66.8121 86.8101 63.4898 86.8117 61.8639 88.6727L61.8683 88.6717Z" fill="#AF8E2F"/>
<path d="M73.9481 108.319L82.9108 98.0254C82.1175 96.9599 81.1899 95.8998 80.1598 94.8618L70.4568 106.012C71.6172 106.895 72.7921 107.673 73.9525 108.318L73.9481 108.319Z" fill="#D6B11E"/>
<path d="M68.723 104.605C68.7747 104.65 68.8245 104.687 68.8717 104.733L78.6839 93.4611C78.6322 93.416 78.5904 93.3735 78.5387 93.3284C75.9303 91.0469 73.1711 89.3454 70.6187 88.3251L62.7123 97.4088C64.0622 99.806 66.1181 102.318 68.7221 104.601L68.723 104.605Z" fill="#D6B11E"/>
<path d="M77.0723 95.0089C70.5769 89.3227 63.1136 87.2385 60.4025 90.3537C57.6915 93.4689 60.7593 100.604 67.2547 106.29C73.7501 111.976 81.2134 114.061 83.9244 110.945C86.6355 107.83 83.5677 100.695 77.0723 95.0089Z" fill="#AF8E2F"/>
<path d="M76.7051 95.4288C70.2097 89.7426 62.7464 87.6584 60.0354 90.7736C57.3243 93.8888 60.3921 101.024 66.8875 106.71C73.3829 112.396 80.8462 114.48 83.5573 111.365C86.2683 108.25 83.2005 101.115 76.7051 95.4288Z" fill="#FFD840"/>
<path d="M75.5747 96.7286C70.4092 92.2065 64.5301 90.4845 62.4434 92.8823C60.3566 95.2801 62.8525 100.89 68.0181 105.412C73.1836 109.934 79.0627 111.656 81.1494 109.258C83.2361 106.86 80.7402 101.251 75.5747 96.7286Z" fill="#FFD325"/>
<path d="M74.8328 103.027L75.6201 105.086L73.9557 104.681L73.1684 102.621C72.7961 101.648 71.6592 100.656 70.6343 100.404C69.6094 100.151 69.0773 100.738 69.4496 101.711L70.2714 103.866L68.607 103.46L67.7851 101.305C67.0825 99.4668 68.0892 98.3519 70.0349 98.8284C71.976 99.3058 74.1302 101.189 74.8328 103.027Z" fill="#AF8E2F"/>
<path d="M70.1631 97.1911L72.9644 104.524L71.2999 104.118L68.4986 96.7854L70.1631 97.1911Z" fill="#AF8E2F"/>
<path d="M67.4692 96.5339L70.2749 103.866L68.6105 103.46L65.8092 96.1272L67.4692 96.5339Z" fill="#AF8E2F"/>
<path d="M77.4289 100.8L74.0725 103.623L75.6172 105.079L78.2229 102.891L77.4289 100.8Z" fill="#AF8E2F"/>
<path d="M175.072 127.386L172.455 124.676L167.187 128.451L169.803 131.161L175.072 127.386Z" fill="#AF8E2F"/>
<path d="M169.804 131.161L167.188 128.451L161.885 132.251L164.501 134.961L169.804 131.161Z" fill="#D6B11E"/>
<path d="M164.5 134.961L161.882 132.251L154.944 137.225L157.604 139.9L164.5 134.961Z" fill="#AF8E2F"/>
<path d="M154.943 137.226L148.542 141.813L151.154 144.521L157.603 139.901L154.943 137.226Z" fill="#D6B11E"/>
<path d="M155.857 49.0498C156.82 51.9275 161.144 52.6242 166.531 51.1744L162.209 38.2486C157.564 41.91 154.896 46.1652 155.861 49.0464L155.857 49.0498Z" fill="#AF8E2F"/>
<path d="M165.846 35.7713L170.526 49.7651C171.15 49.4965 171.784 49.2075 172.42 48.8911L167.689 34.7428C167.056 35.0729 166.441 35.4168 165.846 35.7713Z" fill="#AF8E2F"/>
<path d="M183.656 31.4978L154.895 46.1562L156.055 49.6248L184.816 34.9664L183.656 31.4978Z" fill="#AF8E2F"/>
<path d="M184.62 34.3954C183.837 32.0534 180.834 31.1588 176.848 31.6802L180.666 43.0848C183.79 39.9844 185.406 36.734 184.623 34.392L184.62 34.3954Z" fill="#AF8E2F"/>
<path d="M162.207 38.2522L166.529 51.178C167.809 50.8326 169.159 50.3548 170.53 49.7679L165.85 35.7741C164.541 36.5533 163.317 37.3849 162.209 38.2556L162.207 38.2522Z" fill="#D6B11E"/>
<path d="M167.87 34.6414C167.809 34.6748 167.752 34.7048 167.692 34.7382L172.423 48.8865C172.487 48.8566 172.546 48.83 172.603 48.8C175.792 47.1774 178.567 45.1629 180.658 43.0847L176.841 31.6802C174.166 32.031 171.052 33.0187 167.866 34.6447L167.87 34.6414Z" fill="#D6B11E"/>
<path d="M183.908 32.2891C182.6 28.3791 175.101 28.4907 167.159 32.5385C159.216 36.5863 153.839 43.0375 155.147 46.9475C156.455 50.8576 163.954 50.7459 171.896 46.6981C179.838 42.6503 185.216 36.1992 183.908 32.2891Z" fill="#AF8E2F"/>
<path d="M183.734 31.7579C182.426 27.8478 174.927 27.9595 166.985 32.0073C159.043 36.0551 153.665 42.5062 154.973 46.4163C156.281 50.3264 163.78 50.2147 171.722 46.1669C179.664 42.1191 185.042 35.668 183.734 31.7579Z" fill="#FFD840"/>
<path d="M180.792 33.2573C181.801 36.2656 177.497 41.3161 171.178 44.5348C164.863 47.7501 158.927 47.9242 157.919 44.9091C156.911 41.9009 161.215 36.8503 167.533 33.6317C173.848 30.4164 179.785 30.2422 180.792 33.2573Z" fill="#FFD325"/>
<path d="M166.232 41.2565L164.116 41.1908L165.266 39.7291L167.382 39.7948C168.379 39.8251 169.768 39.1188 170.477 38.2188C171.187 37.3188 170.951 36.5601 169.954 36.5298L167.738 36.4628L168.888 35.0011L171.104 35.0682C172.996 35.1241 173.44 36.559 172.099 38.2677C170.758 39.9764 168.127 41.3158 166.234 41.2599L166.232 41.2565Z" fill="#AF8E2F"/>
<path d="M173.416 39.0555L165.879 38.8255L167.029 37.3638L174.566 37.5938L173.416 39.0555Z" fill="#AF8E2F"/>
<path d="M175.279 36.6889L167.738 36.4622L168.888 35.0006L176.429 35.2272L175.279 36.6889Z" fill="#AF8E2F"/>
<path d="M166.85 44.6933L166.102 40.2765L164.124 41.1939L164.705 44.6306L166.85 44.6933Z" fill="#AF8E2F"/>
<path d="M89.2532 175.653C89.9404 177.718 93.0471 178.21 96.9221 177.158L93.8365 167.883C90.492 170.522 88.5666 173.583 89.2557 175.651L89.2532 175.653Z" fill="#AF8E2F"/>
<path d="M96.4541 166.096L99.7952 176.137C100.244 175.943 100.7 175.734 101.158 175.506L97.7803 165.354C97.3252 165.592 96.8823 165.84 96.4541 166.096Z" fill="#AF8E2F"/>
<path d="M109.262 162.99L88.5645 173.576L89.393 176.065L110.09 165.479L109.262 162.99Z" fill="#AF8E2F"/>
<path d="M109.951 165.07C109.392 163.389 107.235 162.753 104.369 163.135L107.094 171.319C109.345 169.086 110.512 166.748 109.953 165.067L109.951 165.07Z" fill="#AF8E2F"/>
<path d="M93.8337 167.884L96.9193 177.159C97.8399 176.909 98.8112 176.563 99.7973 176.138L96.4563 166.097C95.5148 166.659 94.6333 167.259 93.8356 167.887L93.8337 167.884Z" fill="#D6B11E"/>
<path d="M97.9111 165.281C97.8676 165.305 97.8266 165.327 97.7831 165.351L101.161 175.503C101.206 175.481 101.249 175.462 101.29 175.44C103.585 174.269 105.583 172.816 107.089 171.319L104.364 163.136C102.441 163.393 100.202 164.109 97.9085 165.283L97.9111 165.281Z" fill="#D6B11E"/>
<path d="M109.444 163.559C108.51 160.753 103.119 160.848 97.404 163.771C91.6886 166.695 87.8125 171.339 88.7464 174.144C89.6804 176.95 95.0707 176.855 100.786 173.932C106.502 171.008 110.378 166.364 109.444 163.559Z" fill="#AF8E2F"/>
<path d="M109.319 163.176C108.385 160.37 102.994 160.465 97.279 163.389C91.5636 166.312 87.6875 170.956 88.6214 173.762C89.5554 176.567 94.9457 176.472 100.661 173.549C106.377 170.626 110.253 165.981 109.319 163.176Z" fill="#FFD840"/>
<path d="M107.201 164.26C107.921 166.419 104.819 170.055 100.272 172.379C95.7278 174.701 91.4601 174.838 90.7411 172.675C90.0215 170.516 93.123 166.88 97.67 164.556C102.214 162.234 106.482 162.097 107.201 164.26Z" fill="#FFD325"/>
<path d="M96.723 170.034L95.2023 169.991L96.0313 168.939L97.552 168.982C98.2689 169.002 99.2686 168.491 99.7798 167.844C100.291 167.196 100.123 166.651 99.4061 166.632L97.8137 166.588L98.6427 165.536L100.235 165.579C101.595 165.616 101.912 166.646 100.946 167.875C99.9788 169.105 98.0852 170.073 96.725 170.036L96.723 170.034Z" fill="#AF8E2F"/>
<path d="M101.892 168.438L96.4742 168.288L97.3032 167.236L102.721 167.386L101.892 168.438Z" fill="#AF8E2F"/>
<path d="M103.232 166.737L97.8121 166.589L98.6411 165.537L104.061 165.685L103.232 166.737Z" fill="#AF8E2F"/>
<path d="M97.1624 172.502L96.6321 169.331L95.2089 169.994L95.6212 172.461L97.1624 172.502Z" fill="#AF8E2F"/>
</g>
<defs>
<clipPath id="clip0_2547_3350">
<rect width="191.412" height="188.927" fill="white" transform="translate(23.3438 27.3457)"/>
</clipPath>
</defs>
</svg>
