<svg width="18" height="18" viewBox="0 0 18 18" fill="none" xmlns="http://www.w3.org/2000/svg">
<path d="M10.3865 9L7.64625 11.7405C7.55258 11.8308 7.50575 11.9438 7.50575 12.0793C7.50575 12.2149 7.55258 12.3314 7.64625 12.4288C7.74358 12.5391 7.8625 12.591 8.003 12.5845C8.14333 12.5782 8.26217 12.5262 8.3595 12.4288L11.223 9.5655C11.3847 9.40383 11.4655 9.21533 11.4655 9C11.4655 8.78467 11.3847 8.59617 11.223 8.4345L8.35375 5.5655C8.25642 5.468 8.1385 5.417 8 5.4125C7.8615 5.408 7.74358 5.46092 7.64625 5.57125C7.55258 5.66858 7.508 5.7865 7.5125 5.925C7.517 6.0635 7.568 6.18142 7.6655 6.27875L10.3865 9ZM9.00325 18C7.75875 18 6.58867 17.7638 5.493 17.2915C4.3975 16.8192 3.4445 16.1782 2.634 15.3685C1.8235 14.5588 1.18192 13.6067 0.70925 12.512C0.236417 11.4175 0 10.2479 0 9.00325C0 7.75875 0.236167 6.58867 0.7085 5.493C1.18083 4.3975 1.82183 3.4445 2.6315 2.634C3.44117 1.8235 4.39333 1.18192 5.488 0.70925C6.5825 0.236417 7.75208 0 8.99675 0C10.2413 0 11.4113 0.236167 12.507 0.708501C13.6025 1.18083 14.5555 1.82183 15.366 2.6315C16.1765 3.44117 16.8181 4.39333 17.2908 5.488C17.7636 6.5825 18 7.75208 18 8.99675C18 10.2413 17.7638 11.4113 17.2915 12.507C16.8192 13.6025 16.1782 14.5555 15.3685 15.366C14.5588 16.1765 13.6067 16.8181 12.512 17.2908C11.4175 17.7636 10.2479 18 9.00325 18ZM9 17C11.2333 17 13.125 16.225 14.675 14.675C16.225 13.125 17 11.2333 17 9C17 6.76667 16.225 4.875 14.675 3.325C13.125 1.775 11.2333 1 9 1C6.76667 1 4.875 1.775 3.325 3.325C1.775 4.875 1 6.76667 1 9C1 11.2333 1.775 13.125 3.325 14.675C4.875 16.225 6.76667 17 9 17Z" fill="#161742"/>
</svg>
