<svg width="20" height="20" viewBox="0 0 20 20" fill="none" xmlns="http://www.w3.org/2000/svg">
<path d="M19.7 10C19.7 15.3572 15.3572 19.7 10 19.7C4.64284 19.7 0.3 15.3572 0.3 10C0.3 4.64284 4.64284 0.3 10 0.3C15.3572 0.3 19.7 4.64284 19.7 10Z" fill="white" fill-opacity="0.6" stroke="#161742" stroke-width="0.6"/>
<path d="M14.4693 9.60551L14.5411 9.5581C14.681 9.46138 14.7138 9.27042 14.617 9.1315C14.5194 8.99133 14.3274 8.9597 14.1904 9.0551C9.39898 12.405 5.91115 9.21996 5.76462 9.0831C5.64098 8.96738 5.44613 8.97325 5.331 9.09615C5.21528 9.21954 5.2209 9.41257 5.3433 9.5287C5.34991 9.53498 5.45902 9.63483 5.65816 9.7826L5.04439 10.7948C4.95684 10.9392 5.00276 11.1277 5.14722 11.216C5.19661 11.2457 5.2527 11.2606 5.30696 11.2606C5.41012 11.2606 5.51056 11.2082 5.56895 11.1138L6.16909 10.1249C6.50559 10.3297 6.93706 10.5534 7.45114 10.7424L7.15536 11.7312C7.10638 11.894 7.19798 12.0638 7.35979 12.1122L7.448 12.1253C7.57875 12.1253 7.70099 12.0394 7.7408 11.9065L8.03368 10.9312C8.50819 11.0609 9.03903 11.1486 9.61192 11.1694V12.1488C9.61192 12.3183 9.74878 12.4551 9.91826 12.4551C10.0876 12.4551 10.2245 12.3183 10.2245 12.1488V11.1639C10.7244 11.1365 11.2542 11.0505 11.8073 10.8928L12.1843 11.887C12.2313 12.0095 12.3478 12.0845 12.4708 12.0845L12.5792 12.0652C12.7373 12.0051 12.8175 11.8284 12.7574 11.6703L12.3903 10.7016C12.8939 10.5145 13.4145 10.2682 13.9522 9.94143L14.4485 10.6039C14.509 10.684 14.6013 10.7269 14.6934 10.7269C14.7577 10.7269 14.8219 10.7074 14.877 10.6654C15.0127 10.5638 15.0402 10.3718 14.9391 10.2365L14.4693 9.60551Z" fill="#363636"/>
</svg>
