<svg width="20" height="20" viewBox="0 0 20 20" fill="none" xmlns="http://www.w3.org/2000/svg">
<path d="M19.7 10C19.7 15.3572 15.3572 19.7 10 19.7C4.64284 19.7 0.3 15.3572 0.3 10C0.3 4.64284 4.64284 0.3 10 0.3C15.3572 0.3 19.7 4.64284 19.7 10Z" fill="white" fill-opacity="0.6" stroke="#161742" stroke-width="0.6"/>
<path d="M14.9364 9.80554C14.8471 9.68334 12.7185 6.81323 9.99995 6.81323C7.28137 6.81323 5.1527 9.68334 5.06346 9.80543C4.97885 9.92136 4.97885 10.0786 5.06346 10.1945C5.1527 10.3168 7.28137 13.1869 9.99995 13.1869C12.7185 13.1869 14.8471 10.3167 14.9364 10.1946C15.0212 10.0787 15.0212 9.92136 14.9364 9.80554ZM9.99995 12.5275C7.99743 12.5275 6.26303 10.6226 5.74961 9.99982C6.26237 9.37652 7.99313 7.47257 9.99995 7.47257C12.0024 7.47257 13.7367 9.37718 14.2503 10.0003C13.7375 10.6236 12.0068 12.5275 9.99995 12.5275Z" fill="#161742"/>
<path d="M10 8.02197C8.90934 8.02197 8.02197 8.90934 8.02197 10C8.02197 11.0907 8.90934 11.978 10 11.978C11.0907 11.978 11.978 11.0907 11.978 10C11.978 8.90934 11.0907 8.02197 10 8.02197ZM10 11.3187C9.27285 11.3187 8.68133 10.7271 8.68133 10C8.68133 9.27287 9.27287 8.68133 10 8.68133C10.7271 8.68133 11.3187 9.27287 11.3187 10C11.3187 10.7271 10.7272 11.3187 10 11.3187Z" fill="#161742"/>
</svg>
