<svg width="70" height="97" viewBox="0 0 70 97" fill="none" xmlns="http://www.w3.org/2000/svg">
<g opacity="0.2">
<path d="M24.9067 85V84.288H26.4187C26.7493 84.288 27.0053 84.2107 27.1867 84.056C27.3733 83.896 27.4667 83.6827 27.4667 83.416C27.4667 83.1173 27.36 82.8853 27.1467 82.72C26.9387 82.5547 26.6453 82.4747 26.2667 82.48H24.9067V81.832L25.8747 81.84C26.3653 81.84 26.7893 81.8987 27.1467 82.016C27.5093 82.1333 27.7867 82.312 27.9787 82.552C28.1707 82.792 28.2667 83.0933 28.2667 83.456C28.2667 83.7813 28.192 84.0613 28.0427 84.296C27.8987 84.5253 27.6933 84.7013 27.4267 84.824C27.16 84.9413 26.84 85 26.4667 85H24.9067ZM24.4347 85V79.4H25.2107V85H24.4347ZM24.8907 82.504V81.808H26.3627C26.6507 81.808 26.8773 81.7307 27.0427 81.576C27.2133 81.4213 27.2987 81.208 27.2987 80.936C27.2987 80.6533 27.2027 80.4347 27.0107 80.28C26.8187 80.1253 26.5493 80.0507 26.2027 80.056H24.8907V79.408L26.2347 79.392C26.6187 79.392 26.9467 79.4533 27.2187 79.576C27.496 79.6933 27.7093 79.8667 27.8587 80.096C28.0133 80.3253 28.0907 80.608 28.0907 80.944C28.0907 81.2427 28.0053 81.5067 27.8347 81.736C27.6693 81.9653 27.432 82.144 27.1227 82.272C26.8133 82.4 26.448 82.464 26.0267 82.464L24.8907 82.504ZM30.9093 85.096C30.5199 85.096 30.1759 85.008 29.8773 84.832C29.5786 84.6507 29.3439 84.4027 29.1733 84.088C29.0026 83.7733 28.9173 83.4107 28.9173 83C28.9173 82.5893 29.0026 82.2267 29.1733 81.912C29.3439 81.5973 29.5786 81.352 29.8773 81.176C30.1813 80.9947 30.5279 80.904 30.9173 80.904C31.2799 80.904 31.5999 80.9973 31.8773 81.184C32.1599 81.3653 32.3786 81.6267 32.5333 81.968C32.6933 82.304 32.7733 82.7013 32.7733 83.16H32.0133C32.0186 82.8187 31.9759 82.5307 31.8853 82.296C31.7999 82.0613 31.6719 81.8853 31.5013 81.768C31.3359 81.6453 31.1359 81.584 30.9013 81.584C30.6506 81.584 30.4346 81.6427 30.2533 81.76C30.0719 81.872 29.9306 82.0347 29.8293 82.248C29.7333 82.456 29.6853 82.712 29.6853 83.016C29.6853 83.2987 29.7413 83.544 29.8533 83.752C29.9653 83.9547 30.1173 84.1147 30.3093 84.232C30.5013 84.344 30.7199 84.4 30.9653 84.4C31.2266 84.4 31.4426 84.3387 31.6133 84.216C31.7893 84.0933 31.9279 83.936 32.0293 83.744L32.7093 84.056C32.6026 84.264 32.4639 84.448 32.2933 84.608C32.1226 84.7627 31.9199 84.8827 31.6853 84.968C31.4559 85.0533 31.1973 85.096 30.9093 85.096ZM29.4133 83.16L29.4213 82.536H32.3493V83.16H29.4133ZM35.0681 85.096C34.6681 85.096 34.3588 84.9947 34.1401 84.792C33.9214 84.584 33.8121 84.288 33.8121 83.904V79.752H34.5721V83.792C34.5721 83.9893 34.6201 84.1413 34.7161 84.248C34.8174 84.3493 34.9614 84.4 35.1481 84.4C35.2014 84.4 35.2601 84.3893 35.3241 84.368C35.3881 84.3467 35.4654 84.304 35.5561 84.24L35.8441 84.832C35.7054 84.9227 35.5721 84.9893 35.4441 85.032C35.3214 85.0747 35.1961 85.096 35.0681 85.096ZM33.1321 81.656V81H35.7081V81.656H33.1321ZM38.1384 85.096C37.7384 85.096 37.4291 84.9947 37.2104 84.792C36.9917 84.584 36.8824 84.288 36.8824 83.904V79.752H37.6424V83.792C37.6424 83.9893 37.6904 84.1413 37.7864 84.248C37.8877 84.3493 38.0317 84.4 38.2184 84.4C38.2717 84.4 38.3304 84.3893 38.3944 84.368C38.4584 84.3467 38.5357 84.304 38.6264 84.24L38.9144 84.832C38.7757 84.9227 38.6424 84.9893 38.5144 85.032C38.3917 85.0747 38.2664 85.096 38.1384 85.096ZM36.2024 81.656V81H38.7784V81.656H36.2024ZM41.4015 85.096C41.0121 85.096 40.6681 85.008 40.3695 84.832C40.0708 84.6507 39.8361 84.4027 39.6655 84.088C39.4948 83.7733 39.4095 83.4107 39.4095 83C39.4095 82.5893 39.4948 82.2267 39.6655 81.912C39.8361 81.5973 40.0708 81.352 40.3695 81.176C40.6735 80.9947 41.0201 80.904 41.4095 80.904C41.7721 80.904 42.0921 80.9973 42.3695 81.184C42.6521 81.3653 42.8708 81.6267 43.0255 81.968C43.1855 82.304 43.2655 82.7013 43.2655 83.16H42.5055C42.5108 82.8187 42.4681 82.5307 42.3775 82.296C42.2921 82.0613 42.1641 81.8853 41.9935 81.768C41.8281 81.6453 41.6281 81.584 41.3935 81.584C41.1428 81.584 40.9268 81.6427 40.7455 81.76C40.5641 81.872 40.4228 82.0347 40.3215 82.248C40.2255 82.456 40.1775 82.712 40.1775 83.016C40.1775 83.2987 40.2335 83.544 40.3455 83.752C40.4575 83.9547 40.6095 84.1147 40.8015 84.232C40.9935 84.344 41.2121 84.4 41.4575 84.4C41.7188 84.4 41.9348 84.3387 42.1055 84.216C42.2815 84.0933 42.4201 83.936 42.5215 83.744L43.2015 84.056C43.0948 84.264 42.9561 84.448 42.7855 84.608C42.6148 84.7627 42.4121 84.8827 42.1775 84.968C41.9481 85.0533 41.6895 85.096 41.4015 85.096ZM39.9055 83.16L39.9135 82.536H42.8415V83.16H39.9055ZM44.4803 82.848C44.4803 82.416 44.5629 82.064 44.7283 81.792C44.8936 81.52 45.1069 81.3173 45.3683 81.184C45.6296 81.0507 45.9043 80.984 46.1923 80.984V81.704C45.9523 81.704 45.7229 81.7413 45.5043 81.816C45.2909 81.8853 45.1149 82.0027 44.9763 82.168C44.8429 82.328 44.7763 82.5467 44.7763 82.824L44.4803 82.848ZM44.0163 85V81H44.7763V85H44.0163ZM10.5323 95V89.4H11.3163V95H10.5323ZM12.5592 95V91H13.2713L13.3193 91.736V95H12.5592ZM15.3273 95V92.952L16.0873 92.712V95H15.3273ZM15.3273 92.952C15.3273 92.5893 15.2846 92.3147 15.1993 92.128C15.1193 91.936 15.0046 91.8027 14.8553 91.728C14.7113 91.6533 14.5433 91.6133 14.3513 91.608C14.0259 91.608 13.7726 91.7227 13.5913 91.952C13.4099 92.1813 13.3193 92.504 13.3193 92.92H12.9913C12.9913 92.4987 13.0526 92.1387 13.1753 91.84C13.2979 91.536 13.4739 91.304 13.7033 91.144C13.9379 90.984 14.2179 90.904 14.5433 90.904C15.0233 90.904 15.3993 91.0533 15.6713 91.352C15.9486 91.6453 16.0873 92.0987 16.0873 92.712L15.3273 92.952ZM18.5876 95.096C18.1876 95.096 17.8783 94.9947 17.6596 94.792C17.441 94.584 17.3316 94.288 17.3316 93.904V89.752H18.0916V93.792C18.0916 93.9893 18.1396 94.1413 18.2356 94.248C18.337 94.3493 18.481 94.4 18.6676 94.4C18.721 94.4 18.7796 94.3893 18.8436 94.368C18.9076 94.3467 18.985 94.304 19.0756 94.24L19.3636 94.832C19.225 94.9227 19.0916 94.9893 18.9636 95.032C18.841 95.0747 18.7156 95.096 18.5876 95.096ZM16.6516 91.656V91H19.2276V91.656H16.6516ZM21.8507 95.096C21.4614 95.096 21.1174 95.008 20.8187 94.832C20.52 94.6507 20.2854 94.4027 20.1147 94.088C19.944 93.7733 19.8587 93.4107 19.8587 93C19.8587 92.5893 19.944 92.2267 20.1147 91.912C20.2854 91.5973 20.52 91.352 20.8187 91.176C21.1227 90.9947 21.4694 90.904 21.8587 90.904C22.2214 90.904 22.5414 90.9973 22.8187 91.184C23.1014 91.3653 23.32 91.6267 23.4747 91.968C23.6347 92.304 23.7147 92.7013 23.7147 93.16H22.9547C22.96 92.8187 22.9174 92.5307 22.8267 92.296C22.7414 92.0613 22.6134 91.8853 22.4427 91.768C22.2774 91.6453 22.0774 91.584 21.8427 91.584C21.592 91.584 21.376 91.6427 21.1947 91.76C21.0134 91.872 20.872 92.0347 20.7707 92.248C20.6747 92.456 20.6267 92.712 20.6267 93.016C20.6267 93.2987 20.6827 93.544 20.7947 93.752C20.9067 93.9547 21.0587 94.1147 21.2507 94.232C21.4427 94.344 21.6614 94.4 21.9067 94.4C22.168 94.4 22.384 94.3387 22.5547 94.216C22.7307 94.0933 22.8694 93.936 22.9707 93.744L23.6507 94.056C23.544 94.264 23.4054 94.448 23.2347 94.608C23.064 94.7627 22.8614 94.8827 22.6267 94.968C22.3974 95.0533 22.1387 95.096 21.8507 95.096ZM20.3547 93.16L20.3627 92.536H23.2907V93.16H20.3547ZM24.9295 92.848C24.9295 92.416 25.0122 92.064 25.1775 91.792C25.3428 91.52 25.5562 91.3173 25.8175 91.184C26.0788 91.0507 26.3535 90.984 26.6415 90.984V91.704C26.4015 91.704 26.1722 91.7413 25.9535 91.816C25.7402 91.8853 25.5642 92.0027 25.4255 92.168C25.2922 92.328 25.2255 92.5467 25.2255 92.824L24.9295 92.848ZM24.4655 95V91H25.2255V95H24.4655ZM29.0226 95.096C28.6332 95.096 28.2892 95.008 27.9906 94.832C27.6919 94.6507 27.4572 94.4027 27.2866 94.088C27.1159 93.7733 27.0306 93.4107 27.0306 93C27.0306 92.5893 27.1159 92.2267 27.2866 91.912C27.4572 91.5973 27.6919 91.352 27.9906 91.176C28.2946 90.9947 28.6412 90.904 29.0306 90.904C29.3932 90.904 29.7132 90.9973 29.9906 91.184C30.2732 91.3653 30.4919 91.6267 30.6466 91.968C30.8066 92.304 30.8866 92.7013 30.8866 93.16H30.1266C30.1319 92.8187 30.0892 92.5307 29.9986 92.296C29.9132 92.0613 29.7852 91.8853 29.6146 91.768C29.4492 91.6453 29.2492 91.584 29.0146 91.584C28.7639 91.584 28.5479 91.6427 28.3666 91.76C28.1852 91.872 28.0439 92.0347 27.9426 92.248C27.8466 92.456 27.7986 92.712 27.7986 93.016C27.7986 93.2987 27.8546 93.544 27.9666 93.752C28.0786 93.9547 28.2306 94.1147 28.4226 94.232C28.6146 94.344 28.8332 94.4 29.0786 94.4C29.3399 94.4 29.5559 94.3387 29.7266 94.216C29.9026 94.0933 30.0412 93.936 30.1426 93.744L30.8226 94.056C30.7159 94.264 30.5772 94.448 30.4066 94.608C30.2359 94.7627 30.0332 94.8827 29.7986 94.968C29.5692 95.0533 29.3106 95.096 29.0226 95.096ZM27.5266 93.16L27.5346 92.536H30.4626V93.16H27.5266ZM33.0694 95.096C32.7867 95.096 32.5334 95.0533 32.3094 94.968C32.0907 94.8827 31.904 94.768 31.7494 94.624C31.6 94.48 31.488 94.3173 31.4134 94.136L32.0694 93.848C32.1547 94.0133 32.2827 94.1493 32.4534 94.256C32.624 94.3627 32.8134 94.416 33.0214 94.416C33.2507 94.416 33.44 94.3733 33.5894 94.288C33.7387 94.2027 33.8134 94.0827 33.8134 93.928C33.8134 93.7787 33.7574 93.6613 33.6454 93.576C33.5334 93.4907 33.3707 93.4213 33.1574 93.368L32.7814 93.272C32.408 93.1707 32.1174 93.0187 31.9094 92.816C31.7067 92.6133 31.6054 92.384 31.6054 92.128C31.6054 91.7387 31.7307 91.4373 31.9814 91.224C32.232 91.0107 32.6027 90.904 33.0934 90.904C33.3334 90.904 33.552 90.9387 33.7494 91.008C33.952 91.0773 34.1227 91.176 34.2614 91.304C34.4054 91.432 34.5067 91.584 34.5654 91.76L33.9254 92.048C33.8614 91.888 33.752 91.7707 33.5974 91.696C33.4427 91.616 33.2614 91.576 33.0534 91.576C32.84 91.576 32.672 91.624 32.5494 91.72C32.4267 91.8107 32.3654 91.9387 32.3654 92.104C32.3654 92.1947 32.416 92.2827 32.5174 92.368C32.624 92.448 32.7787 92.5147 32.9814 92.568L33.4134 92.672C33.6747 92.736 33.8907 92.8347 34.0614 92.968C34.232 93.096 34.36 93.2427 34.4454 93.408C34.5307 93.568 34.5734 93.736 34.5734 93.912C34.5734 94.152 34.5067 94.3627 34.3734 94.544C34.2454 94.72 34.0667 94.856 33.8374 94.952C33.6134 95.048 33.3574 95.096 33.0694 95.096ZM36.9079 95.096C36.5079 95.096 36.1986 94.9947 35.9799 94.792C35.7613 94.584 35.6519 94.288 35.6519 93.904V89.752H36.4119V93.792C36.4119 93.9893 36.4599 94.1413 36.5559 94.248C36.6573 94.3493 36.8013 94.4 36.9879 94.4C37.0413 94.4 37.0999 94.3893 37.1639 94.368C37.2279 94.3467 37.3053 94.304 37.3959 94.24L37.6839 94.832C37.5453 94.9227 37.4119 94.9893 37.2839 95.032C37.1613 95.0747 37.0359 95.096 36.9079 95.096ZM34.9719 91.656V91H37.5479V91.656H34.9719ZM41.2994 92.856V92.136H42.5314C42.7234 92.136 42.894 92.0933 43.0434 92.008C43.198 91.9173 43.3207 91.7973 43.4114 91.648C43.5074 91.4933 43.5554 91.32 43.5554 91.128C43.5554 90.8293 43.4514 90.5867 43.2434 90.4C43.0354 90.2133 42.766 90.12 42.4354 90.12H41.2994V89.4L42.4594 89.392C42.8327 89.3867 43.1607 89.4587 43.4434 89.608C43.7314 89.7573 43.9554 89.9627 44.1154 90.224C44.2807 90.4853 44.3634 90.7867 44.3634 91.128C44.3634 91.464 44.2754 91.7627 44.0994 92.024C43.9287 92.2853 43.694 92.4907 43.3954 92.64C43.0967 92.784 42.7607 92.856 42.3874 92.856H41.2994ZM40.5714 95V89.4H41.3554V95H40.5714ZM43.6994 95L42.3714 92.712L42.9954 92.296L44.5874 95H43.6994ZM47.8823 95L47.8423 94.304V92.912C47.8423 92.6187 47.8076 92.376 47.7383 92.184C47.6743 91.9867 47.5729 91.8373 47.4343 91.736C47.3009 91.6347 47.1223 91.584 46.8983 91.584C46.6903 91.584 46.5063 91.6267 46.3463 91.712C46.1916 91.7973 46.0636 91.9307 45.9622 92.112L45.2743 91.856C45.3703 91.6747 45.4929 91.512 45.6423 91.368C45.7916 91.224 45.9703 91.112 46.1783 91.032C46.3916 90.9467 46.6369 90.904 46.9143 90.904C47.2876 90.904 47.5996 90.976 47.8503 91.12C48.1063 91.264 48.2956 91.48 48.4183 91.768C48.5463 92.0507 48.6076 92.4027 48.6023 92.824L48.5943 95H47.8823ZM46.7143 95.096C46.2396 95.096 45.8689 94.9893 45.6023 94.776C45.3409 94.5573 45.2103 94.256 45.2103 93.872C45.2103 93.4613 45.3463 93.1493 45.6183 92.936C45.8956 92.7173 46.2796 92.608 46.7703 92.608H47.8823V93.208H46.9783C46.6103 93.208 46.3516 93.2667 46.2023 93.384C46.0529 93.496 45.9783 93.6533 45.9783 93.856C45.9783 94.0427 46.0476 94.1893 46.1863 94.296C46.3303 94.3973 46.5276 94.448 46.7783 94.448C46.9969 94.448 47.1836 94.3973 47.3383 94.296C47.4983 94.1947 47.6209 94.0613 47.7063 93.896C47.7969 93.7253 47.8423 93.536 47.8423 93.328H48.2023C48.2023 93.872 48.0769 94.304 47.8263 94.624C47.5756 94.9387 47.2049 95.096 46.7143 95.096ZM51.1033 95.096C50.7033 95.096 50.3939 94.9947 50.1753 94.792C49.9566 94.584 49.8473 94.288 49.8473 93.904V89.752H50.6073V93.792C50.6073 93.9893 50.6553 94.1413 50.7513 94.248C50.8526 94.3493 50.9966 94.4 51.1833 94.4C51.2366 94.4 51.2953 94.3893 51.3593 94.368C51.4233 94.3467 51.5006 94.304 51.5913 94.24L51.8793 94.832C51.7406 94.9227 51.6073 94.9893 51.4793 95.032C51.3566 95.0747 51.2313 95.096 51.1033 95.096ZM49.1673 91.656V91H51.7433V91.656H49.1673ZM54.3663 95.096C53.977 95.096 53.633 95.008 53.3343 94.832C53.0356 94.6507 52.801 94.4027 52.6303 94.088C52.4596 93.7733 52.3743 93.4107 52.3743 93C52.3743 92.5893 52.4596 92.2267 52.6303 91.912C52.801 91.5973 53.0356 91.352 53.3343 91.176C53.6383 90.9947 53.985 90.904 54.3743 90.904C54.737 90.904 55.057 90.9973 55.3343 91.184C55.617 91.3653 55.8356 91.6267 55.9903 91.968C56.1503 92.304 56.2303 92.7013 56.2303 93.16H55.4703C55.4756 92.8187 55.433 92.5307 55.3423 92.296C55.257 92.0613 55.129 91.8853 54.9583 91.768C54.793 91.6453 54.593 91.584 54.3583 91.584C54.1076 91.584 53.8916 91.6427 53.7103 91.76C53.529 91.872 53.3876 92.0347 53.2863 92.248C53.1903 92.456 53.1423 92.712 53.1423 93.016C53.1423 93.2987 53.1983 93.544 53.3103 93.752C53.4223 93.9547 53.5743 94.1147 53.7663 94.232C53.9583 94.344 54.177 94.4 54.4223 94.4C54.6836 94.4 54.8996 94.3387 55.0703 94.216C55.2463 94.0933 55.385 93.936 55.4863 93.744L56.1663 94.056C56.0596 94.264 55.921 94.448 55.7503 94.608C55.5796 94.7627 55.377 94.8827 55.1423 94.968C54.913 95.0533 54.6543 95.096 54.3663 95.096ZM52.8703 93.16L52.8783 92.536H55.8063V93.16H52.8703ZM58.4131 95.096C58.1305 95.096 57.8771 95.0533 57.6531 94.968C57.4345 94.8827 57.2478 94.768 57.0931 94.624C56.9438 94.48 56.8318 94.3173 56.7571 94.136L57.4131 93.848C57.4985 94.0133 57.6265 94.1493 57.7971 94.256C57.9678 94.3627 58.1571 94.416 58.3651 94.416C58.5945 94.416 58.7838 94.3733 58.9331 94.288C59.0825 94.2027 59.1571 94.0827 59.1571 93.928C59.1571 93.7787 59.1011 93.6613 58.9891 93.576C58.8771 93.4907 58.7145 93.4213 58.5011 93.368L58.1251 93.272C57.7518 93.1707 57.4611 93.0187 57.2531 92.816C57.0505 92.6133 56.9491 92.384 56.9491 92.128C56.9491 91.7387 57.0745 91.4373 57.3251 91.224C57.5758 91.0107 57.9465 90.904 58.4371 90.904C58.6771 90.904 58.8958 90.9387 59.0931 91.008C59.2958 91.0773 59.4665 91.176 59.6051 91.304C59.7491 91.432 59.8505 91.584 59.9091 91.76L59.2691 92.048C59.2051 91.888 59.0958 91.7707 58.9411 91.696C58.7865 91.616 58.6051 91.576 58.3971 91.576C58.1838 91.576 58.0158 91.624 57.8931 91.72C57.7705 91.8107 57.7091 91.9387 57.7091 92.104C57.7091 92.1947 57.7598 92.2827 57.8611 92.368C57.9678 92.448 58.1225 92.5147 58.3251 92.568L58.7571 92.672C59.0185 92.736 59.2345 92.8347 59.4051 92.968C59.5758 93.096 59.7038 93.2427 59.7891 93.408C59.8745 93.568 59.9171 93.736 59.9171 93.912C59.9171 94.152 59.8505 94.3627 59.7171 94.544C59.5891 94.72 59.4105 94.856 59.1811 94.952C58.9571 95.048 58.7011 95.096 58.4131 95.096Z" fill="#1D478E"/>
<circle cx="35" cy="35" r="35" fill="#161742"/>
<mask id="mask0_599_93" style="mask-type:luminance" maskUnits="userSpaceOnUse" x="17" y="17" width="36" height="36">
<path d="M17 17H53V53H17V17Z" fill="white"/>
</mask>
<g mask="url(#mask0_599_93)">
<path fill-rule="evenodd" clip-rule="evenodd" d="M45.4651 40.199C45.8534 40.199 46.1682 39.8842 46.1682 39.4958V33.257H52.2967C52.5768 33.257 52.8302 33.0907 52.9417 32.8337C53.0532 32.5766 53.0014 32.2779 52.81 32.0734L40.8547 19.3011C40.7218 19.1591 40.536 19.0785 40.3414 19.0785C40.1469 19.0785 39.961 19.1591 39.8281 19.3011L32.5296 27.0981C32.2643 27.3816 32.279 27.8265 32.5625 28.0919C32.846 28.3573 33.2909 28.3426 33.5563 28.0591L40.3414 20.8105L50.6754 31.8508H45.4651C45.0768 31.8508 44.762 32.1656 44.762 32.5539V39.4958C44.762 39.8842 45.0768 40.199 45.4651 40.199Z" fill="#AF8E2F"/>
</g>
<path fill-rule="evenodd" clip-rule="evenodd" d="M34.5171 48.6118C34.5171 49.0001 34.8319 49.3149 35.2202 49.3149H45.4655C45.8538 49.3149 46.1686 49.0001 46.1686 48.6118V45.824C46.1686 45.4357 45.8538 45.1209 45.4655 45.1209C45.0771 45.1209 44.7623 45.4357 44.7623 45.824V47.9087H35.2202C34.8319 47.9087 34.5171 48.2235 34.5171 48.6118Z" fill="#AF8E2F"/>
<mask id="mask1_599_93" style="mask-type:luminance" maskUnits="userSpaceOnUse" x="17" y="17" width="36" height="36">
<path d="M17 17H53V53H17V17Z" fill="white"/>
</mask>
<g mask="url(#mask1_599_93)">
<path fill-rule="evenodd" clip-rule="evenodd" d="M29.3276 49.5154C23.3062 49.5154 18.4063 44.6155 18.4063 38.594C18.4063 32.5726 23.3062 27.6727 29.3276 27.6727C35.349 27.6727 40.249 32.5726 40.249 38.594C40.249 44.6155 35.349 49.5154 29.3276 49.5154ZM17 38.594C17 45.3921 22.5295 50.9216 29.3276 50.9216C36.1257 50.9216 41.6552 45.3921 41.6552 38.594C41.6552 31.7959 36.1257 26.2664 29.3276 26.2664C22.5295 26.2664 17 31.7959 17 38.594Z" fill="#AF8E2F"/>
<path fill-rule="evenodd" clip-rule="evenodd" d="M29.3279 46.6973C24.8525 46.6973 21.2246 43.0693 21.2246 38.594C21.2246 34.1186 24.8525 30.4906 29.3279 30.4906C33.8033 30.4906 37.4312 34.1186 37.4312 38.594C37.4312 43.0693 33.8033 46.6973 29.3279 46.6973ZM19.8184 38.594C19.8184 43.8459 24.0759 48.1035 29.3279 48.1035C34.5799 48.1035 38.8375 43.8459 38.8375 38.594C38.8375 33.342 34.5799 29.0844 29.3279 29.0844C24.0759 29.0844 19.8184 33.342 19.8184 38.594Z" fill="#AF8E2F"/>
<path fill-rule="evenodd" clip-rule="evenodd" d="M33.0668 35.878C32.7876 36.1556 32.3332 36.1556 32.0539 35.878C31.777 35.6026 31.777 35.1579 32.0539 34.8826C32.3332 34.605 32.7876 34.605 33.0668 34.8826M33.0669 35.878C33.3438 35.6026 33.3438 35.1579 33.0669 34.8826V35.878ZM31.0625 36.8752C31.8902 37.6982 33.2306 37.6982 34.0583 36.8752L34.0583 36.8752C34.8883 36.05 34.8883 34.7105 34.0583 33.8853L34.0583 33.8853C33.2306 33.0624 31.8902 33.0624 31.0625 33.8853C30.2324 34.7105 30.2324 36.0501 31.0625 36.8752Z" fill="#AF8E2F"/>
<path fill-rule="evenodd" clip-rule="evenodd" d="M27.2206 42.3912C26.9414 42.6688 26.487 42.6688 26.2077 42.3912C25.9308 42.1158 25.9308 41.6711 26.2077 41.3958C26.487 41.1182 26.9414 41.1182 27.2206 41.3957M27.2207 42.3912C27.4976 42.1158 27.4976 41.6711 27.2207 41.3958V42.3912ZM25.2163 43.3884C26.044 44.2113 27.3844 44.2113 28.2121 43.3884L28.2122 43.3884C29.0421 42.5632 29.0421 41.2237 28.2122 40.3985L28.2121 40.3985C27.3844 39.5756 26.044 39.5756 25.2163 40.3985C24.3862 41.2237 24.3862 42.5632 25.2163 43.3884Z" fill="#AF8E2F"/>
<path fill-rule="evenodd" clip-rule="evenodd" d="M33.5821 42.8236C33.8559 42.5482 33.8546 42.103 33.5792 41.8292L26.0675 34.3614C25.7921 34.0876 25.3469 34.0889 25.0731 34.3643C24.7994 34.6397 24.8007 35.0849 25.0761 35.3587L32.5877 42.8265C32.8631 43.1003 33.3083 43.099 33.5821 42.8236Z" fill="#AF8E2F"/>
<path d="M45.4653 41.9321C45.0771 41.9321 44.7622 42.2469 44.7622 42.6353C44.7622 43.0236 45.0771 43.3384 45.4653 43.3384C45.8537 43.3384 46.1685 43.0236 46.1685 42.6353C46.1685 42.2469 45.8537 41.9321 45.4653 41.9321Z" fill="#AF8E2F"/>
</g>
</g>
</svg>
