<svg width="70" height="97" viewBox="0 0 70 97" fill="none" xmlns="http://www.w3.org/2000/svg">
<g opacity="0.2">
<path d="M18.337 85V79.4H19.121V85H18.337ZM20.3639 85V81H21.0759L21.1239 81.736V85H20.3639ZM23.1319 85V82.952L23.8919 82.712V85H23.1319ZM25.8999 85V82.952L26.6519 82.712V85H25.8999ZM23.1319 82.952C23.1319 82.5893 23.0893 82.3147 23.0039 82.128C22.9239 81.936 22.8093 81.8027 22.6599 81.728C22.5159 81.6533 22.3479 81.6133 22.1559 81.608C21.8306 81.608 21.5773 81.7227 21.3959 81.952C21.2146 82.1813 21.1239 82.504 21.1239 82.92H20.7959C20.7959 82.4987 20.8573 82.1387 20.9799 81.84C21.1026 81.536 21.2786 81.304 21.5079 81.144C21.7426 80.984 22.0226 80.904 22.3479 80.904C22.8279 80.904 23.2039 81.0533 23.4759 81.352C23.7533 81.6453 23.8919 82.0987 23.8919 82.712L23.1319 82.952ZM25.8999 82.952C25.8999 82.5893 25.8573 82.3147 25.7719 82.128C25.6866 81.936 25.5719 81.8027 25.4279 81.728C25.2839 81.6533 25.1159 81.6133 24.9239 81.608C24.5986 81.608 24.3453 81.7227 24.1639 81.952C23.9826 82.1813 23.8919 82.504 23.8919 82.92H23.5639C23.5639 82.4987 23.6253 82.1387 23.7479 81.84C23.8706 81.536 24.0466 81.304 24.2759 81.144C24.5106 80.984 24.7906 80.904 25.1159 80.904C25.5959 80.904 25.9719 81.0533 26.2439 81.352C26.5213 81.6453 26.6573 82.0987 26.6519 82.712L25.8999 82.952ZM27.6618 86.6V81H28.3738L28.4218 81.736V86.6H27.6618ZM29.7338 85.096C29.3978 85.096 29.1044 85.008 28.8538 84.832C28.6084 84.656 28.4191 84.4107 28.2858 84.096C28.1524 83.7813 28.0858 83.416 28.0858 83C28.0858 82.5787 28.1524 82.2133 28.2858 81.904C28.4191 81.5893 28.6084 81.344 28.8538 81.168C29.1044 80.992 29.3978 80.904 29.7338 80.904C30.0911 80.904 30.4058 80.992 30.6778 81.168C30.9498 81.344 31.1604 81.5893 31.3098 81.904C31.4644 82.2133 31.5418 82.5787 31.5418 83C31.5418 83.416 31.4644 83.7813 31.3098 84.096C31.1604 84.4107 30.9498 84.656 30.6778 84.832C30.4058 85.008 30.0911 85.096 29.7338 85.096ZM29.5498 84.408C29.7898 84.408 30.0004 84.3493 30.1818 84.232C30.3631 84.1093 30.5044 83.944 30.6058 83.736C30.7124 83.5227 30.7658 83.2773 30.7658 83C30.7658 82.7227 30.7151 82.48 30.6138 82.272C30.5124 82.0587 30.3711 81.8933 30.1898 81.776C30.0084 81.6533 29.7978 81.592 29.5578 81.592C29.3391 81.592 29.1418 81.6533 28.9658 81.776C28.7951 81.8933 28.6618 82.0587 28.5658 82.272C28.4698 82.4853 28.4218 82.728 28.4218 83C28.4218 83.2773 28.4698 83.5227 28.5658 83.736C28.6618 83.944 28.7951 84.1093 28.9658 84.232C29.1364 84.3493 29.3311 84.408 29.5498 84.408ZM32.8358 82.848C32.8358 82.416 32.9184 82.064 33.0838 81.792C33.2491 81.52 33.4624 81.3173 33.7238 81.184C33.9851 81.0507 34.2598 80.984 34.5478 80.984V81.704C34.3078 81.704 34.0784 81.7413 33.8598 81.816C33.6464 81.8853 33.4704 82.0027 33.3318 82.168C33.1984 82.328 33.1318 82.5467 33.1318 82.824L32.8358 82.848ZM32.3717 85V81H33.1318V85H32.3717ZM36.9688 85.096C36.5688 85.096 36.2168 85.008 35.9128 84.832C35.6088 84.6507 35.3688 84.4027 35.1928 84.088C35.0221 83.7733 34.9368 83.4107 34.9368 83C34.9368 82.5893 35.0221 82.2267 35.1928 81.912C35.3635 81.5973 35.6008 81.352 35.9048 81.176C36.2088 80.9947 36.5581 80.904 36.9528 80.904C37.3475 80.904 37.6968 80.9947 38.0008 81.176C38.3048 81.352 38.5421 81.5973 38.7128 81.912C38.8835 82.2267 38.9688 82.5893 38.9688 83C38.9688 83.4107 38.8835 83.7733 38.7128 84.088C38.5421 84.4027 38.3048 84.6507 38.0008 84.832C37.7021 85.008 37.3581 85.096 36.9688 85.096ZM36.9688 84.4C37.2088 84.4 37.4221 84.3413 37.6088 84.224C37.7955 84.1013 37.9395 83.936 38.0408 83.728C38.1475 83.52 38.2008 83.2773 38.2008 83C38.2008 82.7227 38.1475 82.48 38.0408 82.272C37.9395 82.064 37.7928 81.9013 37.6008 81.784C37.4088 81.6613 37.1928 81.6 36.9528 81.6C36.7075 81.6 36.4915 81.6613 36.3048 81.784C36.1181 81.9013 35.9715 82.064 35.8648 82.272C35.7581 82.48 35.7048 82.7227 35.7048 83C35.7048 83.2773 35.7581 83.52 35.8648 83.728C35.9715 83.936 36.1208 84.1013 36.3128 84.224C36.5048 84.3413 36.7235 84.4 36.9688 84.4ZM40.9324 85L42.5324 81H43.3244L41.6524 85H40.9324ZM40.8844 85L39.2204 81H39.9964L41.5964 85H40.8844ZM45.5851 85.096C45.1957 85.096 44.8517 85.008 44.5531 84.832C44.2544 84.6507 44.0197 84.4027 43.8491 84.088C43.6784 83.7733 43.5931 83.4107 43.5931 83C43.5931 82.5893 43.6784 82.2267 43.8491 81.912C44.0197 81.5973 44.2544 81.352 44.5531 81.176C44.8571 80.9947 45.2037 80.904 45.5931 80.904C45.9557 80.904 46.2757 80.9973 46.5531 81.184C46.8357 81.3653 47.0544 81.6267 47.2091 81.968C47.3691 82.304 47.4491 82.7013 47.4491 83.16H46.6891C46.6944 82.8187 46.6517 82.5307 46.5611 82.296C46.4757 82.0613 46.3477 81.8853 46.1771 81.768C46.0117 81.6453 45.8117 81.584 45.5771 81.584C45.3264 81.584 45.1104 81.6427 44.9291 81.76C44.7477 81.872 44.6064 82.0347 44.5051 82.248C44.4091 82.456 44.3611 82.712 44.3611 83.016C44.3611 83.2987 44.4171 83.544 44.5291 83.752C44.6411 83.9547 44.7931 84.1147 44.9851 84.232C45.1771 84.344 45.3957 84.4 45.6411 84.4C45.9024 84.4 46.1184 84.3387 46.2891 84.216C46.4651 84.0933 46.6037 83.936 46.7051 83.744L47.3851 84.056C47.2784 84.264 47.1397 84.448 46.9691 84.608C46.7984 84.7627 46.5957 84.8827 46.3611 84.968C46.1317 85.0533 45.8731 85.096 45.5851 85.096ZM44.0891 83.16L44.0971 82.536H47.0251V83.16H44.0891ZM51.1279 85L51.0959 84.256V79.4H51.8479V85H51.1279ZM49.7839 85.096C49.4212 85.096 49.1039 85.008 48.8319 84.832C48.5652 84.656 48.3545 84.4107 48.1999 84.096C48.0505 83.7813 47.9759 83.416 47.9759 83C47.9759 82.5787 48.0505 82.2133 48.1999 81.904C48.3545 81.5893 48.5652 81.344 48.8319 81.168C49.1039 80.992 49.4212 80.904 49.7839 80.904C50.1199 80.904 50.4105 80.992 50.6559 81.168C50.9065 81.344 51.0985 81.5893 51.2319 81.904C51.3652 82.2133 51.4319 82.5787 51.4319 83C51.4319 83.416 51.3652 83.7813 51.2319 84.096C51.0985 84.4107 50.9065 84.656 50.6559 84.832C50.4105 85.008 50.1199 85.096 49.7839 85.096ZM49.9599 84.408C50.1839 84.408 50.3812 84.3493 50.5519 84.232C50.7225 84.1093 50.8559 83.944 50.9519 83.736C51.0479 83.5227 51.0959 83.2773 51.0959 83C51.0959 82.7227 51.0479 82.48 50.9519 82.272C50.8559 82.0587 50.7225 81.8933 50.5519 81.776C50.3812 81.6533 50.1812 81.592 49.9519 81.592C49.7172 81.592 49.5092 81.6533 49.3279 81.776C49.1465 81.8933 49.0052 82.0587 48.9039 82.272C48.8025 82.48 48.7519 82.7227 48.7519 83C48.7519 83.2773 48.8025 83.5227 48.9039 83.736C49.0105 83.944 49.1545 84.1093 49.3359 84.232C49.5172 84.3493 49.7252 84.408 49.9599 84.408ZM2.33844 92.856V92.136H3.57044C3.76244 92.136 3.9331 92.0933 4.08244 92.008C4.2371 91.9173 4.35977 91.7973 4.45044 91.648C4.54644 91.4933 4.59444 91.32 4.59444 91.128C4.59444 90.8293 4.49044 90.5867 4.28244 90.4C4.07444 90.2133 3.8051 90.12 3.47444 90.12H2.33844V89.4L3.49844 89.392C3.87177 89.3867 4.19977 89.4587 4.48244 89.608C4.77044 89.7573 4.99444 89.9627 5.15444 90.224C5.31977 90.4853 5.40244 90.7867 5.40244 91.128C5.40244 91.464 5.31444 91.7627 5.13844 92.024C4.96777 92.2853 4.7331 92.4907 4.43444 92.64C4.13577 92.784 3.79977 92.856 3.42644 92.856H2.33844ZM1.61044 95V89.4H2.39444V95H1.61044ZM4.73844 95L3.41044 92.712L4.03444 92.296L5.62644 95H4.73844ZM8.24131 95.096C7.85198 95.096 7.50798 95.008 7.20931 94.832C6.91065 94.6507 6.67598 94.4027 6.50531 94.088C6.33465 93.7733 6.24931 93.4107 6.24931 93C6.24931 92.5893 6.33465 92.2267 6.50531 91.912C6.67598 91.5973 6.91065 91.352 7.20931 91.176C7.51331 90.9947 7.85998 90.904 8.24931 90.904C8.61198 90.904 8.93198 90.9973 9.20931 91.184C9.49198 91.3653 9.71065 91.6267 9.86531 91.968C10.0253 92.304 10.1053 92.7013 10.1053 93.16H9.34531C9.35065 92.8187 9.30798 92.5307 9.21731 92.296C9.13198 92.0613 9.00398 91.8853 8.83331 91.768C8.66798 91.6453 8.46798 91.584 8.23331 91.584C7.98265 91.584 7.76665 91.6427 7.58531 91.76C7.40398 91.872 7.26265 92.0347 7.16131 92.248C7.06531 92.456 7.01731 92.712 7.01731 93.016C7.01731 93.2987 7.07331 93.544 7.18531 93.752C7.29731 93.9547 7.44931 94.1147 7.64131 94.232C7.83331 94.344 8.05198 94.4 8.29731 94.4C8.55865 94.4 8.77465 94.3387 8.94531 94.216C9.12131 94.0933 9.25998 93.936 9.36131 93.744L10.0413 94.056C9.93465 94.264 9.79598 94.448 9.62531 94.608C9.45465 94.7627 9.25198 94.8827 9.01731 94.968C8.78798 95.0533 8.52931 95.096 8.24131 95.096ZM6.74531 93.16L6.75331 92.536H9.68131V93.16H6.74531ZM10.8961 96.6V91H11.6081L11.6561 91.736V96.6H10.8961ZM12.9681 95.096C12.6321 95.096 12.3388 95.008 12.0881 94.832C11.8428 94.656 11.6535 94.4107 11.5201 94.096C11.3868 93.7813 11.3201 93.416 11.3201 93C11.3201 92.5787 11.3868 92.2133 11.5201 91.904C11.6535 91.5893 11.8428 91.344 12.0881 91.168C12.3388 90.992 12.6321 90.904 12.9681 90.904C13.3255 90.904 13.6401 90.992 13.9121 91.168C14.1841 91.344 14.3948 91.5893 14.5441 91.904C14.6988 92.2133 14.7761 92.5787 14.7761 93C14.7761 93.416 14.6988 93.7813 14.5441 94.096C14.3948 94.4107 14.1841 94.656 13.9121 94.832C13.6401 95.008 13.3255 95.096 12.9681 95.096ZM12.7841 94.408C13.0241 94.408 13.2348 94.3493 13.4161 94.232C13.5975 94.1093 13.7388 93.944 13.8401 93.736C13.9468 93.5227 14.0001 93.2773 14.0001 93C14.0001 92.7227 13.9495 92.48 13.8481 92.272C13.7468 92.0587 13.6055 91.8933 13.4241 91.776C13.2428 91.6533 13.0321 91.592 12.7921 91.592C12.5735 91.592 12.3761 91.6533 12.2001 91.776C12.0295 91.8933 11.8961 92.0587 11.8001 92.272C11.7041 92.4853 11.6561 92.728 11.6561 93C11.6561 93.2773 11.7041 93.5227 11.8001 93.736C11.8961 93.944 12.0295 94.1093 12.2001 94.232C12.3708 94.3493 12.5655 94.408 12.7841 94.408ZM18.0541 95L18.0141 94.304V92.912C18.0141 92.6187 17.9795 92.376 17.9101 92.184C17.8461 91.9867 17.7448 91.8373 17.6061 91.736C17.4728 91.6347 17.2941 91.584 17.0701 91.584C16.8621 91.584 16.6781 91.6267 16.5181 91.712C16.3635 91.7973 16.2355 91.9307 16.1341 92.112L15.4461 91.856C15.5421 91.6747 15.6648 91.512 15.8141 91.368C15.9635 91.224 16.1421 91.112 16.3501 91.032C16.5635 90.9467 16.8088 90.904 17.0861 90.904C17.4595 90.904 17.7715 90.976 18.0221 91.12C18.2781 91.264 18.4675 91.48 18.5901 91.768C18.7181 92.0507 18.7795 92.4027 18.7741 92.824L18.7661 95H18.0541ZM16.8861 95.096C16.4115 95.096 16.0408 94.9893 15.7741 94.776C15.5128 94.5573 15.3821 94.256 15.3821 93.872C15.3821 93.4613 15.5181 93.1493 15.7901 92.936C16.0675 92.7173 16.4515 92.608 16.9421 92.608H18.0541V93.208H17.1501C16.7821 93.208 16.5235 93.2667 16.3741 93.384C16.2248 93.496 16.1501 93.6533 16.1501 93.856C16.1501 94.0427 16.2195 94.1893 16.3581 94.296C16.5021 94.3973 16.6995 94.448 16.9501 94.448C17.1688 94.448 17.3555 94.3973 17.5101 94.296C17.6701 94.1947 17.7928 94.0613 17.8781 93.896C17.9688 93.7253 18.0141 93.536 18.0141 93.328H18.3741C18.3741 93.872 18.2488 94.304 17.9981 94.624C17.7475 94.9387 17.3768 95.096 16.8861 95.096ZM20.1488 96.696C20.0315 96.696 19.9008 96.6747 19.7568 96.632C19.6181 96.5893 19.4741 96.5333 19.3248 96.464L19.6048 95.84C19.7221 95.8933 19.8235 95.9333 19.9088 95.96C19.9995 95.9867 20.0715 96 20.1248 96C20.2581 96 20.3701 95.9627 20.4608 95.888C20.5568 95.8133 20.6341 95.7093 20.6928 95.576L21.1568 94.48L22.5808 91H23.3968L21.5008 95.496C21.3995 95.7413 21.2928 95.9547 21.1808 96.136C21.0688 96.3173 20.9301 96.456 20.7648 96.552C20.6048 96.648 20.3995 96.696 20.1488 96.696ZM20.9488 95L19.1968 91H20.0048L21.4528 94.472L21.6848 95H20.9488ZM23.9811 95V91H24.6931L24.7411 91.736V95H23.9811ZM26.7491 95V92.952L27.5091 92.712V95H26.7491ZM29.5171 95V92.952L30.2691 92.712V95H29.5171ZM26.7491 92.952C26.7491 92.5893 26.7065 92.3147 26.6211 92.128C26.5411 91.936 26.4265 91.8027 26.2771 91.728C26.1331 91.6533 25.9651 91.6133 25.7731 91.608C25.4478 91.608 25.1945 91.7227 25.0131 91.952C24.8318 92.1813 24.7411 92.504 24.7411 92.92H24.4131C24.4131 92.4987 24.4745 92.1387 24.5971 91.84C24.7198 91.536 24.8958 91.304 25.1251 91.144C25.3598 90.984 25.6398 90.904 25.9651 90.904C26.4451 90.904 26.8211 91.0533 27.0931 91.352C27.3705 91.6453 27.5091 92.0987 27.5091 92.712L26.7491 92.952ZM29.5171 92.952C29.5171 92.5893 29.4745 92.3147 29.3891 92.128C29.3038 91.936 29.1891 91.8027 29.0451 91.728C28.9011 91.6533 28.7331 91.6133 28.5411 91.608C28.2158 91.608 27.9625 91.7227 27.7811 91.952C27.5998 92.1813 27.5091 92.504 27.5091 92.92H27.1811C27.1811 92.4987 27.2425 92.1387 27.3651 91.84C27.4878 91.536 27.6638 91.304 27.8931 91.144C28.1278 90.984 28.4078 90.904 28.7331 90.904C29.2131 90.904 29.5891 91.0533 29.8611 91.352C30.1385 91.6453 30.2745 92.0987 30.2691 92.712L29.5171 92.952ZM33.0069 95.096C32.6176 95.096 32.2736 95.008 31.9749 94.832C31.6763 94.6507 31.4416 94.4027 31.2709 94.088C31.1003 93.7733 31.0149 93.4107 31.0149 93C31.0149 92.5893 31.1003 92.2267 31.2709 91.912C31.4416 91.5973 31.6763 91.352 31.9749 91.176C32.2789 90.9947 32.6256 90.904 33.0149 90.904C33.3776 90.904 33.6976 90.9973 33.9749 91.184C34.2576 91.3653 34.4763 91.6267 34.6309 91.968C34.7909 92.304 34.8709 92.7013 34.8709 93.16H34.1109C34.1163 92.8187 34.0736 92.5307 33.9829 92.296C33.8976 92.0613 33.7696 91.8853 33.5989 91.768C33.4336 91.6453 33.2336 91.584 32.9989 91.584C32.7483 91.584 32.5323 91.6427 32.3509 91.76C32.1696 91.872 32.0283 92.0347 31.9269 92.248C31.8309 92.456 31.7829 92.712 31.7829 93.016C31.7829 93.2987 31.8389 93.544 31.9509 93.752C32.0629 93.9547 32.2149 94.1147 32.4069 94.232C32.5989 94.344 32.8176 94.4 33.0629 94.4C33.3243 94.4 33.5403 94.3387 33.7109 94.216C33.8869 94.0933 34.0256 93.936 34.1269 93.744L34.8069 94.056C34.7003 94.264 34.5616 94.448 34.3909 94.608C34.2203 94.7627 34.0176 94.8827 33.7829 94.968C33.5536 95.0533 33.2949 95.096 33.0069 95.096ZM31.5109 93.16L31.5189 92.536H34.4469V93.16H31.5109ZM35.6217 95V91H36.3338L36.3818 91.736V95H35.6217ZM38.3898 95V92.952L39.1498 92.712V95H38.3898ZM38.3898 92.952C38.3898 92.5893 38.3471 92.3147 38.2618 92.128C38.1818 91.936 38.0671 91.8027 37.9178 91.728C37.7738 91.6533 37.6058 91.6133 37.4138 91.608C37.0884 91.608 36.8351 91.7227 36.6538 91.952C36.4724 92.1813 36.3818 92.504 36.3818 92.92H36.0538C36.0538 92.4987 36.1151 92.1387 36.2378 91.84C36.3604 91.536 36.5364 91.304 36.7658 91.144C37.0004 90.984 37.2804 90.904 37.6058 90.904C38.0858 90.904 38.4618 91.0533 38.7338 91.352C39.0111 91.6453 39.1498 92.0987 39.1498 92.712L38.3898 92.952ZM41.6501 95.096C41.2501 95.096 40.9408 94.9947 40.7221 94.792C40.5035 94.584 40.3941 94.288 40.3941 93.904V89.752H41.1541V93.792C41.1541 93.9893 41.2021 94.1413 41.2981 94.248C41.3995 94.3493 41.5435 94.4 41.7301 94.4C41.7835 94.4 41.8421 94.3893 41.9061 94.368C41.9701 94.3467 42.0475 94.304 42.1381 94.24L42.4261 94.832C42.2875 94.9227 42.1541 94.9893 42.0261 95.032C41.9035 95.0747 41.7781 95.096 41.6501 95.096ZM39.7141 91.656V91H42.2901V91.656H39.7141ZM46.4496 95V89.864H47.2416V95H46.4496ZM44.6976 90.12V89.4H48.9936V90.12H44.6976ZM50.8741 95.096C50.4848 95.096 50.1408 95.008 49.8421 94.832C49.5435 94.6507 49.3088 94.4027 49.1381 94.088C48.9675 93.7733 48.8821 93.4107 48.8821 93C48.8821 92.5893 48.9675 92.2267 49.1381 91.912C49.3088 91.5973 49.5435 91.352 49.8421 91.176C50.1461 90.9947 50.4928 90.904 50.8821 90.904C51.2448 90.904 51.5648 90.9973 51.8421 91.184C52.1248 91.3653 52.3435 91.6267 52.4981 91.968C52.6581 92.304 52.7381 92.7013 52.7381 93.16H51.9781C51.9835 92.8187 51.9408 92.5307 51.8501 92.296C51.7648 92.0613 51.6368 91.8853 51.4661 91.768C51.3008 91.6453 51.1008 91.584 50.8661 91.584C50.6155 91.584 50.3995 91.6427 50.2181 91.76C50.0368 91.872 49.8955 92.0347 49.7941 92.248C49.6981 92.456 49.6501 92.712 49.6501 93.016C49.6501 93.2987 49.7061 93.544 49.8181 93.752C49.9301 93.9547 50.0821 94.1147 50.2741 94.232C50.4661 94.344 50.6848 94.4 50.9301 94.4C51.1915 94.4 51.4075 94.3387 51.5781 94.216C51.7541 94.0933 51.8928 93.936 51.9941 93.744L52.6741 94.056C52.5675 94.264 52.4288 94.448 52.2581 94.608C52.0875 94.7627 51.8848 94.8827 51.6501 94.968C51.4208 95.0533 51.1621 95.096 50.8741 95.096ZM49.3781 93.16L49.3861 92.536H52.3141V93.16H49.3781ZM53.4889 95V91H54.2009L54.2489 91.736V95H53.4889ZM56.2569 95V92.952L57.0169 92.712V95H56.2569ZM56.2569 92.952C56.2569 92.5893 56.2143 92.3147 56.1289 92.128C56.0489 91.936 55.9343 91.8027 55.7849 91.728C55.6409 91.6533 55.4729 91.6133 55.2809 91.608C54.9556 91.608 54.7023 91.7227 54.5209 91.952C54.3396 92.1813 54.2489 92.504 54.2489 92.92H53.9209C53.9209 92.4987 53.9823 92.1387 54.1049 91.84C54.2276 91.536 54.4036 91.304 54.6329 91.144C54.8676 90.984 55.1476 90.904 55.4729 90.904C55.9529 90.904 56.3289 91.0533 56.6009 91.352C56.8783 91.6453 57.0169 92.0987 57.0169 92.712L56.2569 92.952ZM60.6933 95L60.6453 94.264V91H61.3973V95H60.6933ZM57.8773 93.288V91H58.6373V93.048L57.8773 93.288ZM58.6373 93.048C58.6373 93.4053 58.6773 93.68 58.7573 93.872C58.8426 94.064 58.96 94.1973 59.1093 94.272C59.2586 94.3467 59.4266 94.3867 59.6133 94.392C59.9386 94.392 60.192 94.2773 60.3733 94.048C60.5546 93.8187 60.6453 93.496 60.6453 93.08H60.9733C60.9733 93.5013 60.912 93.864 60.7893 94.168C60.6666 94.4667 60.488 94.696 60.2533 94.856C60.024 95.016 59.7466 95.096 59.4213 95.096C58.9413 95.096 58.5626 94.9467 58.2853 94.648C58.0133 94.3493 57.8773 93.896 57.8773 93.288L58.6373 93.048ZM62.9217 92.848C62.9217 92.416 63.0044 92.064 63.1697 91.792C63.335 91.52 63.5484 91.3173 63.8097 91.184C64.071 91.0507 64.3457 90.984 64.6337 90.984V91.704C64.3937 91.704 64.1644 91.7413 63.9457 91.816C63.7324 91.8853 63.5564 92.0027 63.4177 92.168C63.2844 92.328 63.2177 92.5467 63.2177 92.824L62.9217 92.848ZM62.4577 95V91H63.2177V95H62.4577ZM67.0148 95.096C66.6254 95.096 66.2814 95.008 65.9828 94.832C65.6841 94.6507 65.4494 94.4027 65.2788 94.088C65.1081 93.7733 65.0228 93.4107 65.0228 93C65.0228 92.5893 65.1081 92.2267 65.2788 91.912C65.4494 91.5973 65.6841 91.352 65.9828 91.176C66.2868 90.9947 66.6334 90.904 67.0228 90.904C67.3854 90.904 67.7054 90.9973 67.9828 91.184C68.2654 91.3653 68.4841 91.6267 68.6388 91.968C68.7988 92.304 68.8788 92.7013 68.8788 93.16H68.1188C68.1241 92.8187 68.0814 92.5307 67.9908 92.296C67.9054 92.0613 67.7774 91.8853 67.6068 91.768C67.4414 91.6453 67.2414 91.584 67.0068 91.584C66.7561 91.584 66.5401 91.6427 66.3588 91.76C66.1774 91.872 66.0361 92.0347 65.9348 92.248C65.8388 92.456 65.7908 92.712 65.7908 93.016C65.7908 93.2987 65.8468 93.544 65.9588 93.752C66.0708 93.9547 66.2228 94.1147 66.4148 94.232C66.6068 94.344 66.8254 94.4 67.0707 94.4C67.3321 94.4 67.5481 94.3387 67.7188 94.216C67.8948 94.0933 68.0334 93.936 68.1348 93.744L68.8148 94.056C68.7081 94.264 68.5694 94.448 68.3988 94.608C68.2281 94.7627 68.0254 94.8827 67.7908 94.968C67.5614 95.0533 67.3028 95.096 67.0148 95.096ZM65.5188 93.16L65.5268 92.536H68.4548V93.16H65.5188Z" fill="#1D478E"/>
<circle cx="35" cy="35" r="35" fill="#161742"/>
<path d="M29.6894 24.8551C29.3444 24.8551 29.0638 25.1351 29.0638 25.4801V26.7278H27.6728C26.5436 26.7278 25.625 27.6463 25.625 28.7755V31.8487V42.3275C25.625 43.4567 26.5436 44.3754 27.6728 44.3754H42.3274C43.4566 44.3754 44.3752 43.4567 44.3752 42.3275V31.8487V28.7755C44.3752 27.6463 43.4566 26.7278 42.3274 26.7278H40.9389V25.4801C40.9389 25.1351 40.6589 24.8551 40.3146 24.8551C39.9696 24.8551 39.6889 25.1351 39.6889 25.4801V26.7278H37.3977V25.4707C37.3977 25.1256 37.1171 24.8457 36.7727 24.8457C36.4277 24.8457 36.1477 25.1257 36.1477 25.4707V26.7278H33.8558V25.4707C33.8558 25.1256 33.5758 24.8457 33.2308 24.8457C32.8864 24.8457 32.6058 25.1257 32.6058 25.4707V26.7278H30.3139V25.4801C30.3138 25.1351 30.0338 24.8551 29.6894 24.8551ZM43.1252 42.3276C43.1252 42.7675 42.7673 43.1254 42.3274 43.1254H27.6728C27.2329 43.1254 26.875 42.7675 26.875 42.3276V32.4738H43.1252V42.3276ZM32.6057 27.9778V29.2114C32.6057 29.5558 32.8863 29.8364 33.2307 29.8364C33.5757 29.8364 33.8557 29.5558 33.8557 29.2114V27.9778H36.1475V29.2114C36.1475 29.5558 36.4276 29.8364 36.7726 29.8364C37.1169 29.8364 37.3976 29.5558 37.3976 29.2114V27.9778H39.6888V29.2208C39.6888 29.5652 39.9694 29.8458 40.3144 29.8458C40.6588 29.8458 40.9388 29.5652 40.9388 29.2208V27.9778H42.3273C42.7672 27.9778 43.1251 28.3357 43.1251 28.7755V31.2237H26.875V28.7755C26.875 28.3357 27.2329 27.9778 27.6728 27.9778H29.0638V29.2208C29.0638 29.5652 29.3444 29.8458 29.6894 29.8458C30.0338 29.8458 30.3138 29.5652 30.3138 29.2208V27.9778H32.6057Z" fill="#AF8E2F"/>
<mask id="path-4-inside-1_66_171" fill="white">
<path d="M29.375 35.7502H40.6251C40.9703 35.7502 41.2501 35.4704 41.2501 35.1252C41.2501 34.7801 40.9703 34.5002 40.6251 34.5002H29.375C29.0298 34.5002 28.75 34.7801 28.75 35.1252C28.75 35.4704 29.0298 35.7502 29.375 35.7502Z"/>
</mask>
<path d="M29.375 35.7502H40.6251C40.9703 35.7502 41.2501 35.4704 41.2501 35.1252C41.2501 34.7801 40.9703 34.5002 40.6251 34.5002H29.375C29.0298 34.5002 28.75 34.7801 28.75 35.1252C28.75 35.4704 29.0298 35.7502 29.375 35.7502Z" fill="#AF8E2F"/>
<path d="M29.375 42.7502H40.6251V28.7502H29.375V42.7502ZM40.6251 42.7502C44.8368 42.7502 48.2501 39.3359 48.2501 35.1252H34.2501C34.2501 31.6048 37.1039 28.7502 40.6251 28.7502V42.7502ZM48.2501 35.1252C48.2501 30.9141 44.8363 27.5002 40.6251 27.5002V41.5002C37.1043 41.5002 34.2501 38.6461 34.2501 35.1252H48.2501ZM40.6251 27.5002H29.375V41.5002H40.6251V27.5002ZM29.375 27.5002C25.1634 27.5002 21.75 30.9146 21.75 35.1252H35.75C35.75 38.6457 32.8963 41.5002 29.375 41.5002V27.5002ZM21.75 35.1252C21.75 39.3359 25.1634 42.7502 29.375 42.7502V28.7502C32.8963 28.7502 35.75 31.6048 35.75 35.1252H21.75Z" fill="#AF8E2F" mask="url(#path-4-inside-1_66_171)"/>
<mask id="path-6-inside-2_66_171" fill="white">
<path d="M29.375 38.3752H40.6251C40.9703 38.3752 41.2501 38.0954 41.2501 37.7502C41.2501 37.4051 40.9703 37.1252 40.6251 37.1252H29.375C29.0298 37.1252 28.75 37.4051 28.75 37.7502C28.75 38.0954 29.0298 38.3752 29.375 38.3752Z"/>
</mask>
<path d="M29.375 38.3752H40.6251C40.9703 38.3752 41.2501 38.0954 41.2501 37.7502C41.2501 37.4051 40.9703 37.1252 40.6251 37.1252H29.375C29.0298 37.1252 28.75 37.4051 28.75 37.7502C28.75 38.0954 29.0298 38.3752 29.375 38.3752Z" fill="#AF8E2F"/>
<path d="M29.375 45.3752H40.6251V31.3752H29.375V45.3752ZM40.6251 45.3752C44.8368 45.3752 48.2501 41.9609 48.2501 37.7502H34.2501C34.2501 34.2298 37.1039 31.3752 40.6251 31.3752V45.3752ZM48.2501 37.7502C48.2501 33.5396 44.8368 30.1252 40.6251 30.1252V44.1252C37.1039 44.1252 34.2501 41.2707 34.2501 37.7502H48.2501ZM40.6251 30.1252H29.375V44.1252H40.6251V30.1252ZM29.375 30.1252C25.1634 30.1252 21.75 33.5396 21.75 37.7502H35.75C35.75 41.2707 32.8963 44.1252 29.375 44.1252V30.1252ZM21.75 37.7502C21.75 41.9609 25.1634 45.3752 29.375 45.3752V31.3752C32.8963 31.3752 35.75 34.2298 35.75 37.7502H21.75Z" fill="#AF8E2F" mask="url(#path-6-inside-2_66_171)"/>
<mask id="path-8-inside-3_66_171" fill="white">
<path d="M29.375 41.0002H40.6251C40.9703 41.0002 41.2501 40.7204 41.2501 40.3752C41.2501 40.0301 40.9703 39.7502 40.6251 39.7502H29.375C29.0298 39.7502 28.75 40.0301 28.75 40.3752C28.75 40.7204 29.0298 41.0002 29.375 41.0002Z"/>
</mask>
<path d="M29.375 41.0002H40.6251C40.9703 41.0002 41.2501 40.7204 41.2501 40.3752C41.2501 40.0301 40.9703 39.7502 40.6251 39.7502H29.375C29.0298 39.7502 28.75 40.0301 28.75 40.3752C28.75 40.7204 29.0298 41.0002 29.375 41.0002Z" fill="#AF8E2F"/>
<path d="M29.375 48.0002H40.6251V34.0002H29.375V48.0002ZM40.6251 48.0002C44.8368 48.0002 48.2501 44.5859 48.2501 40.3752H34.2501C34.2501 36.8548 37.1039 34.0002 40.6251 34.0002V48.0002ZM48.2501 40.3752C48.2501 36.1646 44.8368 32.7502 40.6251 32.7502V46.7502C37.1039 46.7502 34.2501 43.8957 34.2501 40.3752H48.2501ZM40.6251 32.7502H29.375V46.7502H40.6251V32.7502ZM29.375 32.7502C25.1634 32.7502 21.75 36.1646 21.75 40.3752H35.75C35.75 43.8957 32.8963 46.7502 29.375 46.7502V32.7502ZM21.75 40.3752C21.75 44.5859 25.1634 48.0002 29.375 48.0002V34.0002C32.8963 34.0002 35.75 36.8548 35.75 40.3752H21.75Z" fill="#AF8E2F" mask="url(#path-8-inside-3_66_171)"/>
<path d="M43.2061 22.7397L41.9471 23.0165C41.61 23.0906 41.3967 23.424 41.4708 23.761C41.535 24.053 41.7936 24.252 42.0807 24.252C42.1251 24.252 44.7847 23.6726 44.7887 23.6717C45.1922 23.583 45.4191 23.118 45.2227 22.7513L44.6205 20.2575C44.5395 19.922 44.202 19.7157 43.8663 19.7966C43.5307 19.8776 43.3244 20.2153 43.4054 20.5509L43.6424 21.5325C40.8552 19.7408 37.5666 18.8556 34.2122 19.0192C30.2393 19.2138 26.5011 20.8711 23.6862 23.6861C20.8713 26.501 19.2139 30.2393 19.0194 34.2121C18.8262 38.1569 20.0841 42.0113 22.5616 45.0656C22.7703 45.3229 23.1764 45.3716 23.4407 45.1573C23.7088 44.9398 23.7498 44.5462 23.5323 44.2781C18.7654 38.4013 19.2115 29.9286 24.5701 24.57C29.6109 19.529 37.4071 18.8361 43.2061 22.7397Z" fill="#AF8E2F"/>
<path d="M47.4384 24.9346C47.221 24.6666 46.8275 24.6256 46.5593 24.843C46.2912 25.0605 46.2502 25.454 46.4677 25.7221C51.2347 31.5989 50.7885 40.0716 45.4299 45.4302C40.3864 50.4739 32.5847 51.1649 26.7847 47.2542L28.0198 46.9827C28.3569 46.9086 28.5702 46.5752 28.496 46.2382C28.422 45.9009 28.0884 45.6878 27.7514 45.7619C27.7514 45.7619 25.1824 46.3266 25.1782 46.3276C24.8424 46.4014 24.6242 46.7508 24.7048 47.0846C24.7048 47.0846 25.3453 49.7375 25.3463 49.7418C25.5347 50.522 26.7511 50.2336 26.5615 49.4484L26.3189 48.4438C28.8953 50.1105 31.9035 51.0004 34.9973 51.0004C35.2601 51.0004 35.5239 50.9939 35.7878 50.981C39.7607 50.7864 43.4989 49.1291 46.3138 46.3141C49.1287 43.4992 50.7861 39.761 50.9807 35.7881C51.1738 31.8434 49.9159 27.9889 47.4384 24.9346Z" fill="#AF8E2F"/>
</g>
</svg>
