<svg width="70" height="72" viewBox="0 0 70 72" fill="none" xmlns="http://www.w3.org/2000/svg">
<g opacity="0.2">
<path d="M20.4205 57.856V57.136H21.6525C21.8445 57.136 22.0151 57.0933 22.1645 57.008C22.3191 56.9173 22.4418 56.7973 22.5325 56.648C22.6285 56.4933 22.6765 56.32 22.6765 56.128C22.6765 55.8293 22.5725 55.5867 22.3645 55.4C22.1565 55.2133 21.8871 55.12 21.5565 55.12H20.4205V54.4L21.5805 54.392C21.9538 54.3867 22.2818 54.4587 22.5645 54.608C22.8525 54.7573 23.0765 54.9627 23.2365 55.224C23.4018 55.4853 23.4845 55.7867 23.4845 56.128C23.4845 56.464 23.3965 56.7627 23.2205 57.024C23.0498 57.2853 22.8151 57.4907 22.5165 57.64C22.2178 57.784 21.8818 57.856 21.5085 57.856H20.4205ZM19.6925 60V54.4H20.4765V60H19.6925ZM22.8205 60L21.4925 57.712L22.1165 57.296L23.7085 60H22.8205ZM26.3233 60.096C25.934 60.096 25.59 60.008 25.2913 59.832C24.9927 59.6507 24.758 59.4027 24.5873 59.088C24.4167 58.7733 24.3313 58.4107 24.3313 58C24.3313 57.5893 24.4167 57.2267 24.5873 56.912C24.758 56.5973 24.9927 56.352 25.2913 56.176C25.5953 55.9947 25.942 55.904 26.3313 55.904C26.694 55.904 27.014 55.9973 27.2913 56.184C27.574 56.3653 27.7927 56.6267 27.9473 56.968C28.1073 57.304 28.1873 57.7013 28.1873 58.16H27.4273C27.4327 57.8187 27.39 57.5307 27.2993 57.296C27.214 57.0613 27.086 56.8853 26.9153 56.768C26.75 56.6453 26.55 56.584 26.3153 56.584C26.0647 56.584 25.8487 56.6427 25.6673 56.76C25.486 56.872 25.3447 57.0347 25.2433 57.248C25.1473 57.456 25.0993 57.712 25.0993 58.016C25.0993 58.2987 25.1553 58.544 25.2673 58.752C25.3793 58.9547 25.5313 59.1147 25.7233 59.232C25.9153 59.344 26.134 59.4 26.3793 59.4C26.6407 59.4 26.8567 59.3387 27.0273 59.216C27.2033 59.0933 27.342 58.936 27.4433 58.744L28.1233 59.056C28.0167 59.264 27.878 59.448 27.7073 59.608C27.5367 59.7627 27.334 59.8827 27.0993 59.968C26.87 60.0533 26.6113 60.096 26.3233 60.096ZM24.8273 58.16L24.8353 57.536H27.7633V58.16H24.8273ZM31.8662 60L31.8342 59.256V54.4H32.5862V60H31.8662ZM30.5222 60.096C30.1595 60.096 29.8422 60.008 29.5702 59.832C29.3035 59.656 29.0928 59.4107 28.9382 59.096C28.7888 58.7813 28.7142 58.416 28.7142 58C28.7142 57.5787 28.7888 57.2133 28.9382 56.904C29.0928 56.5893 29.3035 56.344 29.5702 56.168C29.8422 55.992 30.1595 55.904 30.5222 55.904C30.8582 55.904 31.1488 55.992 31.3942 56.168C31.6448 56.344 31.8368 56.5893 31.9702 56.904C32.1035 57.2133 32.1702 57.5787 32.1702 58C32.1702 58.416 32.1035 58.7813 31.9702 59.096C31.8368 59.4107 31.6448 59.656 31.3942 59.832C31.1488 60.008 30.8582 60.096 30.5222 60.096ZM30.6982 59.408C30.9222 59.408 31.1195 59.3493 31.2902 59.232C31.4608 59.1093 31.5942 58.944 31.6902 58.736C31.7862 58.5227 31.8342 58.2773 31.8342 58C31.8342 57.7227 31.7862 57.48 31.6902 57.272C31.5942 57.0587 31.4608 56.8933 31.2902 56.776C31.1195 56.6533 30.9195 56.592 30.6902 56.592C30.4555 56.592 30.2475 56.6533 30.0662 56.776C29.8848 56.8933 29.7435 57.0587 29.6422 57.272C29.5408 57.48 29.4902 57.7227 29.4902 58C29.4902 58.2773 29.5408 58.5227 29.6422 58.736C29.7488 58.944 29.8928 59.1093 30.0742 59.232C30.2555 59.3493 30.4635 59.408 30.6982 59.408ZM36.3613 60L36.3133 59.264V56H37.0653V60H36.3613ZM33.5453 58.288V56H34.3053V58.048L33.5453 58.288ZM34.3053 58.048C34.3053 58.4053 34.3453 58.68 34.4253 58.872C34.5106 59.064 34.6279 59.1973 34.7773 59.272C34.9266 59.3467 35.0946 59.3867 35.2813 59.392C35.6066 59.392 35.8599 59.2773 36.0413 59.048C36.2226 58.8187 36.3133 58.496 36.3133 58.08H36.6413C36.6413 58.5013 36.5799 58.864 36.4573 59.168C36.3346 59.4667 36.1559 59.696 35.9213 59.856C35.6919 60.016 35.4146 60.096 35.0893 60.096C34.6093 60.096 34.2306 59.9467 33.9533 59.648C33.6813 59.3493 33.5453 58.896 33.5453 58.288L34.3053 58.048ZM39.9497 60.096C39.5497 60.096 39.195 60.008 38.8857 59.832C38.5763 59.6507 38.3337 59.4027 38.1577 59.088C37.987 58.7733 37.9017 58.4107 37.9017 58C37.9017 57.5893 37.987 57.2267 38.1577 56.912C38.3337 56.5973 38.5737 56.352 38.8777 56.176C39.187 55.9947 39.539 55.904 39.9337 55.904C40.323 55.904 40.6723 55.9947 40.9817 56.176C41.2963 56.3573 41.531 56.616 41.6857 56.952L40.9977 57.24C40.8963 57.0427 40.7497 56.888 40.5577 56.776C40.371 56.664 40.155 56.608 39.9097 56.608C39.6697 56.608 39.4563 56.6667 39.2697 56.784C39.083 56.9013 38.9363 57.0667 38.8297 57.28C38.723 57.488 38.6697 57.728 38.6697 58C38.6697 58.272 38.723 58.512 38.8297 58.72C38.9363 58.928 39.0857 59.0933 39.2777 59.216C39.4697 59.3333 39.6857 59.392 39.9257 59.392C40.171 59.392 40.3897 59.3307 40.5817 59.208C40.7737 59.08 40.9177 58.9093 41.0137 58.696L41.7097 58.976C41.555 59.328 41.3203 59.6027 41.0057 59.8C40.6963 59.9973 40.3443 60.096 39.9497 60.096ZM44.2296 60.096C43.8403 60.096 43.4963 60.008 43.1976 59.832C42.8989 59.6507 42.6643 59.4027 42.4936 59.088C42.3229 58.7733 42.2376 58.4107 42.2376 58C42.2376 57.5893 42.3229 57.2267 42.4936 56.912C42.6643 56.5973 42.8989 56.352 43.1976 56.176C43.5016 55.9947 43.8483 55.904 44.2376 55.904C44.6003 55.904 44.9203 55.9973 45.1976 56.184C45.4803 56.3653 45.6989 56.6267 45.8536 56.968C46.0136 57.304 46.0936 57.7013 46.0936 58.16H45.3336C45.3389 57.8187 45.2963 57.5307 45.2056 57.296C45.1203 57.0613 44.9923 56.8853 44.8216 56.768C44.6563 56.6453 44.4563 56.584 44.2216 56.584C43.9709 56.584 43.7549 56.6427 43.5736 56.76C43.3923 56.872 43.2509 57.0347 43.1496 57.248C43.0536 57.456 43.0056 57.712 43.0056 58.016C43.0056 58.2987 43.0616 58.544 43.1736 58.752C43.2856 58.9547 43.4376 59.1147 43.6296 59.232C43.8216 59.344 44.0403 59.4 44.2856 59.4C44.5469 59.4 44.7629 59.3387 44.9336 59.216C45.1096 59.0933 45.2483 58.936 45.3496 58.744L46.0296 59.056C45.9229 59.264 45.7843 59.448 45.6136 59.608C45.4429 59.7627 45.2403 59.8827 45.0056 59.968C44.7763 60.0533 44.5176 60.096 44.2296 60.096ZM42.7336 58.16L42.7416 57.536H45.6696V58.16H42.7336ZM49.7724 60L49.7404 59.256V54.4H50.4924V60H49.7724ZM48.4284 60.096C48.0657 60.096 47.7484 60.008 47.4764 59.832C47.2097 59.656 46.9991 59.4107 46.8444 59.096C46.6951 58.7813 46.6204 58.416 46.6204 58C46.6204 57.5787 46.6951 57.2133 46.8444 56.904C46.9991 56.5893 47.2097 56.344 47.4764 56.168C47.7484 55.992 48.0657 55.904 48.4284 55.904C48.7644 55.904 49.0551 55.992 49.3004 56.168C49.5511 56.344 49.7431 56.5893 49.8764 56.904C50.0097 57.2133 50.0764 57.5787 50.0764 58C50.0764 58.416 50.0097 58.7813 49.8764 59.096C49.7431 59.4107 49.5511 59.656 49.3004 59.832C49.0551 60.008 48.7644 60.096 48.4284 60.096ZM48.6044 59.408C48.8284 59.408 49.0257 59.3493 49.1964 59.232C49.3671 59.1093 49.5004 58.944 49.5964 58.736C49.6924 58.5227 49.7404 58.2773 49.7404 58C49.7404 57.7227 49.6924 57.48 49.5964 57.272C49.5004 57.0587 49.3671 56.8933 49.1964 56.776C49.0257 56.6533 48.8257 56.592 48.5964 56.592C48.3617 56.592 48.1537 56.6533 47.9724 56.776C47.7911 56.8933 47.6497 57.0587 47.5484 57.272C47.4471 57.48 47.3964 57.7227 47.3964 58C47.3964 58.2773 47.4471 58.5227 47.5484 58.736C47.6551 58.944 47.7991 59.1093 47.9804 59.232C48.1617 59.3493 48.3697 59.408 48.6044 59.408ZM9.22906 68V67.272H10.5331C10.8157 67.272 11.0477 67.1733 11.2291 66.976C11.4104 66.7733 11.5011 66.5147 11.5011 66.2C11.5011 65.9867 11.4531 65.8 11.3571 65.64C11.2611 65.4747 11.1277 65.3467 10.9571 65.256C10.7917 65.16 10.5997 65.1147 10.3811 65.12H9.22906V64.4L10.3891 64.392C10.7624 64.392 11.0904 64.4693 11.3731 64.624C11.6611 64.7787 11.8851 64.992 12.0451 65.264C12.2104 65.5307 12.2931 65.8427 12.2931 66.2C12.2931 66.5467 12.2184 66.856 12.0691 67.128C11.9197 67.4 11.7117 67.6133 11.4451 67.768C11.1837 67.9227 10.8824 68 10.5411 68H9.22906ZM8.50106 70V64.4H9.28506V70H8.50106ZM13.4373 67.848C13.4373 67.416 13.52 67.064 13.6853 66.792C13.8506 66.52 14.064 66.3173 14.3253 66.184C14.5866 66.0507 14.8613 65.984 15.1493 65.984V66.704C14.9093 66.704 14.68 66.7413 14.4613 66.816C14.248 66.8853 14.072 67.0027 13.9333 67.168C13.8 67.328 13.7333 67.5467 13.7333 67.824L13.4373 67.848ZM12.9733 70V66H13.7333V70H12.9733ZM17.5704 70.096C17.1704 70.096 16.8184 70.008 16.5144 69.832C16.2104 69.6507 15.9704 69.4027 15.7944 69.088C15.6237 68.7733 15.5384 68.4107 15.5384 68C15.5384 67.5893 15.6237 67.2267 15.7944 66.912C15.965 66.5973 16.2024 66.352 16.5064 66.176C16.8104 65.9947 17.1597 65.904 17.5544 65.904C17.949 65.904 18.2984 65.9947 18.6024 66.176C18.9064 66.352 19.1437 66.5973 19.3144 66.912C19.485 67.2267 19.5704 67.5893 19.5704 68C19.5704 68.4107 19.485 68.7733 19.3144 69.088C19.1437 69.4027 18.9064 69.6507 18.6024 69.832C18.3037 70.008 17.9597 70.096 17.5704 70.096ZM17.5704 69.4C17.8104 69.4 18.0237 69.3413 18.2104 69.224C18.397 69.1013 18.541 68.936 18.6424 68.728C18.749 68.52 18.8024 68.2773 18.8024 68C18.8024 67.7227 18.749 67.48 18.6424 67.272C18.541 67.064 18.3944 66.9013 18.2024 66.784C18.0104 66.6613 17.7944 66.6 17.5544 66.6C17.309 66.6 17.093 66.6613 16.9064 66.784C16.7197 66.9013 16.573 67.064 16.4664 67.272C16.3597 67.48 16.3064 67.7227 16.3064 68C16.3064 68.2773 16.3597 68.52 16.4664 68.728C16.573 68.936 16.7224 69.1013 16.9144 69.224C17.1064 69.3413 17.325 69.4 17.5704 69.4ZM22.227 70.096C21.827 70.096 21.4723 70.008 21.163 69.832C20.8537 69.6507 20.611 69.4027 20.435 69.088C20.2643 68.7733 20.179 68.4107 20.179 68C20.179 67.5893 20.2643 67.2267 20.435 66.912C20.611 66.5973 20.851 66.352 21.155 66.176C21.4643 65.9947 21.8163 65.904 22.211 65.904C22.6003 65.904 22.9497 65.9947 23.259 66.176C23.5737 66.3573 23.8083 66.616 23.963 66.952L23.275 67.24C23.1737 67.0427 23.027 66.888 22.835 66.776C22.6483 66.664 22.4323 66.608 22.187 66.608C21.947 66.608 21.7337 66.6667 21.547 66.784C21.3603 66.9013 21.2137 67.0667 21.107 67.28C21.0003 67.488 20.947 67.728 20.947 68C20.947 68.272 21.0003 68.512 21.107 68.72C21.2137 68.928 21.363 69.0933 21.555 69.216C21.747 69.3333 21.963 69.392 22.203 69.392C22.4483 69.392 22.667 69.3307 22.859 69.208C23.051 69.08 23.195 68.9093 23.291 68.696L23.987 68.976C23.8323 69.328 23.5977 69.6027 23.283 69.8C22.9737 69.9973 22.6217 70.096 22.227 70.096ZM26.5069 70.096C26.1176 70.096 25.7736 70.008 25.4749 69.832C25.1763 69.6507 24.9416 69.4027 24.7709 69.088C24.6003 68.7733 24.5149 68.4107 24.5149 68C24.5149 67.5893 24.6003 67.2267 24.7709 66.912C24.9416 66.5973 25.1763 66.352 25.4749 66.176C25.7789 65.9947 26.1256 65.904 26.5149 65.904C26.8776 65.904 27.1976 65.9973 27.4749 66.184C27.7576 66.3653 27.9763 66.6267 28.1309 66.968C28.2909 67.304 28.3709 67.7013 28.3709 68.16H27.6109C27.6163 67.8187 27.5736 67.5307 27.4829 67.296C27.3976 67.0613 27.2696 66.8853 27.0989 66.768C26.9336 66.6453 26.7336 66.584 26.4989 66.584C26.2483 66.584 26.0323 66.6427 25.8509 66.76C25.6696 66.872 25.5283 67.0347 25.4269 67.248C25.3309 67.456 25.2829 67.712 25.2829 68.016C25.2829 68.2987 25.3389 68.544 25.4509 68.752C25.5629 68.9547 25.7149 69.1147 25.9069 69.232C26.0989 69.344 26.3176 69.4 26.5629 69.4C26.8243 69.4 27.0403 69.3387 27.2109 69.216C27.3869 69.0933 27.5256 68.936 27.6269 68.744L28.3069 69.056C28.2003 69.264 28.0616 69.448 27.8909 69.608C27.7203 69.7627 27.5176 69.8827 27.2829 69.968C27.0536 70.0533 26.7949 70.096 26.5069 70.096ZM25.0109 68.16L25.0189 67.536H27.9469V68.16H25.0109ZM30.5538 70.096C30.2711 70.096 30.0178 70.0533 29.7938 69.968C29.5751 69.8827 29.3884 69.768 29.2338 69.624C29.0844 69.48 28.9724 69.3173 28.8978 69.136L29.5538 68.848C29.6391 69.0133 29.7671 69.1493 29.9378 69.256C30.1084 69.3627 30.2978 69.416 30.5058 69.416C30.7351 69.416 30.9244 69.3733 31.0738 69.288C31.2231 69.2027 31.2978 69.0827 31.2978 68.928C31.2978 68.7787 31.2418 68.6613 31.1298 68.576C31.0178 68.4907 30.8551 68.4213 30.6418 68.368L30.2658 68.272C29.8924 68.1707 29.6018 68.0187 29.3938 67.816C29.1911 67.6133 29.0898 67.384 29.0898 67.128C29.0898 66.7387 29.2151 66.4373 29.4658 66.224C29.7164 66.0107 30.0871 65.904 30.5778 65.904C30.8178 65.904 31.0364 65.9387 31.2338 66.008C31.4364 66.0773 31.6071 66.176 31.7458 66.304C31.8898 66.432 31.9911 66.584 32.0498 66.76L31.4098 67.048C31.3458 66.888 31.2364 66.7707 31.0818 66.696C30.9271 66.616 30.7458 66.576 30.5378 66.576C30.3244 66.576 30.1564 66.624 30.0338 66.72C29.9111 66.8107 29.8498 66.9387 29.8498 67.104C29.8498 67.1947 29.9004 67.2827 30.0018 67.368C30.1084 67.448 30.2631 67.5147 30.4658 67.568L30.8978 67.672C31.1591 67.736 31.3751 67.8347 31.5458 67.968C31.7164 68.096 31.8444 68.2427 31.9298 68.408C32.0151 68.568 32.0578 68.736 32.0578 68.912C32.0578 69.152 31.9911 69.3627 31.8578 69.544C31.7298 69.72 31.5511 69.856 31.3218 69.952C31.0978 70.048 30.8418 70.096 30.5538 70.096ZM34.2725 70.096C33.9898 70.096 33.7365 70.0533 33.5125 69.968C33.2938 69.8827 33.1072 69.768 32.9525 69.624C32.8032 69.48 32.6912 69.3173 32.6165 69.136L33.2725 68.848C33.3578 69.0133 33.4858 69.1493 33.6565 69.256C33.8272 69.3627 34.0165 69.416 34.2245 69.416C34.4538 69.416 34.6432 69.3733 34.7925 69.288C34.9418 69.2027 35.0165 69.0827 35.0165 68.928C35.0165 68.7787 34.9605 68.6613 34.8485 68.576C34.7365 68.4907 34.5738 68.4213 34.3605 68.368L33.9845 68.272C33.6112 68.1707 33.3205 68.0187 33.1125 67.816C32.9098 67.6133 32.8085 67.384 32.8085 67.128C32.8085 66.7387 32.9338 66.4373 33.1845 66.224C33.4352 66.0107 33.8058 65.904 34.2965 65.904C34.5365 65.904 34.7552 65.9387 34.9525 66.008C35.1552 66.0773 35.3258 66.176 35.4645 66.304C35.6085 66.432 35.7098 66.584 35.7685 66.76L35.1285 67.048C35.0645 66.888 34.9552 66.7707 34.8005 66.696C34.6458 66.616 34.4645 66.576 34.2565 66.576C34.0432 66.576 33.8752 66.624 33.7525 66.72C33.6298 66.8107 33.5685 66.9387 33.5685 67.104C33.5685 67.1947 33.6192 67.2827 33.7205 67.368C33.8272 67.448 33.9818 67.5147 34.1845 67.568L34.6165 67.672C34.8778 67.736 35.0938 67.8347 35.2645 67.968C35.4352 68.096 35.5632 68.2427 35.6485 68.408C35.7338 68.568 35.7765 68.736 35.7765 68.912C35.7765 69.152 35.7098 69.3627 35.5765 69.544C35.4485 69.72 35.2698 69.856 35.0405 69.952C34.8165 70.048 34.5605 70.096 34.2725 70.096ZM36.6151 70L36.6311 66H37.3831L37.3751 70H36.6151ZM36.9991 65.152C36.8764 65.152 36.7697 65.1067 36.6791 65.016C36.5884 64.92 36.5431 64.8107 36.5431 64.688C36.5431 64.56 36.5884 64.4533 36.6791 64.368C36.7697 64.2773 36.8764 64.232 36.9991 64.232C37.1271 64.232 37.2337 64.2773 37.3191 64.368C37.4097 64.4533 37.4551 64.56 37.4551 64.688C37.4551 64.8107 37.4097 64.92 37.3191 65.016C37.2337 65.1067 37.1271 65.152 36.9991 65.152ZM38.4889 70V66H39.2009L39.2489 66.736V70H38.4889ZM41.2569 70V67.952L42.0169 67.712V70H41.2569ZM41.2569 67.952C41.2569 67.5893 41.2143 67.3147 41.1289 67.128C41.0489 66.936 40.9343 66.8027 40.7849 66.728C40.6409 66.6533 40.4729 66.6133 40.2809 66.608C39.9556 66.608 39.7023 66.7227 39.5209 66.952C39.3396 67.1813 39.2489 67.504 39.2489 67.92H38.9209C38.9209 67.4987 38.9823 67.1387 39.1049 66.84C39.2276 66.536 39.4036 66.304 39.6329 66.144C39.8676 65.984 40.1476 65.904 40.4729 65.904C40.9529 65.904 41.3289 66.0533 41.6009 66.352C41.8783 66.6453 42.0169 67.0987 42.0169 67.712L41.2569 67.952ZM44.6293 71.704C44.3626 71.704 44.12 71.6773 43.9013 71.624C43.6826 71.576 43.4986 71.52 43.3493 71.456C43.2 71.392 43.088 71.336 43.0133 71.288L43.3013 70.672C43.3706 70.7147 43.4693 70.7627 43.5973 70.816C43.7253 70.8747 43.8746 70.9227 44.0453 70.96C44.216 71.0027 44.4053 71.024 44.6133 71.024C44.8586 71.024 45.0773 70.9733 45.2693 70.872C45.4613 70.776 45.6106 70.624 45.7173 70.416C45.8293 70.208 45.8853 69.9413 45.8853 69.616V66H46.6453V69.6C46.6453 70.0587 46.5573 70.4427 46.3813 70.752C46.2106 71.0667 45.9733 71.304 45.6693 71.464C45.3706 71.624 45.024 71.704 44.6293 71.704ZM44.5573 69.944C44.1946 69.944 43.8773 69.8613 43.6053 69.696C43.3386 69.5253 43.128 69.2907 42.9733 68.992C42.824 68.688 42.7493 68.3387 42.7493 67.944C42.7493 67.5333 42.824 67.176 42.9733 66.872C43.128 66.568 43.3386 66.3307 43.6053 66.16C43.8773 65.9893 44.1946 65.904 44.5573 65.904C44.888 65.904 45.176 65.9893 45.4213 66.16C45.672 66.3307 45.864 66.5707 45.9973 66.88C46.136 67.184 46.2053 67.5413 46.2053 67.952C46.2053 68.3467 46.136 68.696 45.9973 69C45.864 69.2987 45.672 69.5307 45.4213 69.696C45.176 69.8613 44.888 69.944 44.5573 69.944ZM44.7493 69.304C44.9733 69.304 45.168 69.2453 45.3333 69.128C45.4986 69.0053 45.6293 68.8427 45.7253 68.64C45.8213 68.432 45.8693 68.1947 45.8693 67.928C45.8693 67.6613 45.8213 67.4267 45.7253 67.224C45.6293 67.0213 45.496 66.864 45.3253 66.752C45.16 66.6347 44.9653 66.576 44.7413 66.576C44.5066 66.576 44.2986 66.6347 44.1173 66.752C43.9413 66.864 43.8026 67.0213 43.7013 67.224C43.6 67.4267 43.5493 67.6613 43.5493 67.928C43.5493 68.1947 43.6 68.432 43.7013 68.64C43.808 68.8427 43.9493 69.0053 44.1253 69.128C44.3066 69.2453 44.5146 69.304 44.7493 69.304ZM49.837 70V64.4H50.621V70H49.837ZM50.517 67.6V66.88H52.893V67.6H50.517ZM50.517 65.12V64.4H53.229V65.12H50.517ZM55.7413 70.096C55.352 70.096 55.008 70.008 54.7093 69.832C54.4106 69.6507 54.176 69.4027 54.0053 69.088C53.8346 68.7733 53.7493 68.4107 53.7493 68C53.7493 67.5893 53.8346 67.2267 54.0053 66.912C54.176 66.5973 54.4106 66.352 54.7093 66.176C55.0133 65.9947 55.36 65.904 55.7493 65.904C56.112 65.904 56.432 65.9973 56.7093 66.184C56.992 66.3653 57.2106 66.6267 57.3653 66.968C57.5253 67.304 57.6053 67.7013 57.6053 68.16H56.8453C56.8506 67.8187 56.808 67.5307 56.7173 67.296C56.632 67.0613 56.504 66.8853 56.3333 66.768C56.168 66.6453 55.968 66.584 55.7333 66.584C55.4826 66.584 55.2666 66.6427 55.0853 66.76C54.904 66.872 54.7626 67.0347 54.6613 67.248C54.5653 67.456 54.5173 67.712 54.5173 68.016C54.5173 68.2987 54.5733 68.544 54.6853 68.752C54.7973 68.9547 54.9493 69.1147 55.1413 69.232C55.3333 69.344 55.552 69.4 55.7973 69.4C56.0586 69.4 56.2746 69.3387 56.4453 69.216C56.6213 69.0933 56.76 68.936 56.8613 68.744L57.5413 69.056C57.4346 69.264 57.296 69.448 57.1253 69.608C56.9546 69.7627 56.752 69.8827 56.5173 69.968C56.288 70.0533 56.0293 70.096 55.7413 70.096ZM54.2453 68.16L54.2533 67.536H57.1813V68.16H54.2453ZM60.1241 70.096C59.7348 70.096 59.3908 70.008 59.0921 69.832C58.7935 69.6507 58.5588 69.4027 58.3881 69.088C58.2175 68.7733 58.1321 68.4107 58.1321 68C58.1321 67.5893 58.2175 67.2267 58.3881 66.912C58.5588 66.5973 58.7935 66.352 59.0921 66.176C59.3961 65.9947 59.7428 65.904 60.1321 65.904C60.4948 65.904 60.8148 65.9973 61.0921 66.184C61.3748 66.3653 61.5935 66.6267 61.7481 66.968C61.9081 67.304 61.9881 67.7013 61.9881 68.16H61.2281C61.2335 67.8187 61.1908 67.5307 61.1001 67.296C61.0148 67.0613 60.8868 66.8853 60.7161 66.768C60.5508 66.6453 60.3508 66.584 60.1161 66.584C59.8655 66.584 59.6495 66.6427 59.4681 66.76C59.2868 66.872 59.1455 67.0347 59.0441 67.248C58.9481 67.456 58.9001 67.712 58.9001 68.016C58.9001 68.2987 58.9561 68.544 59.0681 68.752C59.1801 68.9547 59.3321 69.1147 59.5241 69.232C59.7161 69.344 59.9348 69.4 60.1801 69.4C60.4415 69.4 60.6575 69.3387 60.8281 69.216C61.0041 69.0933 61.1428 68.936 61.2441 68.744L61.9241 69.056C61.8175 69.264 61.6788 69.448 61.5081 69.608C61.3375 69.7627 61.1348 69.8827 60.9001 69.968C60.6708 70.0533 60.4121 70.096 60.1241 70.096ZM58.6281 68.16L58.6361 67.536H61.5641V68.16H58.6281Z" fill="#1D478E"/>
<circle cx="35" cy="24" r="24" fill="#161742"/>
<path d="M46.9663 25.3587C46.9663 25.3586 46.9663 25.3585 46.9662 25.3584L42.4349 13.9807C42.3387 13.7389 42.0647 13.6209 41.823 13.7171C41.8228 13.7171 41.8226 13.7172 41.8224 13.7173L23.4396 21.0372C23.3646 21.0696 23.2996 21.1213 23.2511 21.187C23.0982 21.2665 23.0016 21.4237 23 21.596V33.8452C23 34.1054 23.2109 34.3164 23.4711 34.3164H43.2584C43.5186 34.3164 43.7296 34.1054 43.7296 33.8452V27.1553L46.7033 25.9708C46.945 25.8744 47.0627 25.6004 46.9663 25.3587ZM42.7873 33.3741H23.9423V22.0671H42.7873V33.3741ZM30.8607 21.1272L38.7493 17.9838C39.4533 18.7239 40.4288 19.1445 41.4502 19.1485L42.237 21.1272H30.8607ZM43.7296 26.1433V21.596C43.7296 21.3358 43.5186 21.1248 43.2584 21.1248H43.2509L42.2526 18.6175C42.2415 18.5966 42.2286 18.5767 42.2139 18.5581C42.1634 18.3312 41.9533 18.1764 41.7216 18.1954C40.7712 18.282 39.8415 17.8817 39.2515 17.1316C39.1047 16.9504 38.8466 16.9053 38.647 17.026C38.6247 17.0287 38.6025 17.0328 38.5806 17.0383L28.9499 20.8733C28.8333 20.919 28.7401 21.0096 28.6912 21.1248H25.7665L41.7339 14.767L45.917 25.2707L43.7296 26.1433Z" fill="#AF8E2F"/>
<path d="M25.2209 30.1936C26.1356 30.464 26.8514 31.1788 27.1228 32.0932C27.1824 32.2928 27.3659 32.4295 27.5742 32.4296C27.5986 32.428 27.6229 32.4244 27.6467 32.4187C27.6679 32.4247 27.6895 32.4292 27.7113 32.4319H39.0183C39.0377 32.4294 39.0569 32.4254 39.0758 32.4201C39.3112 32.4774 39.5484 32.333 39.6057 32.0977C39.6059 32.0968 39.6061 32.096 39.6063 32.0951C39.8771 31.1798 40.5929 30.4639 41.5082 30.1931C41.7302 30.1253 41.8681 29.9041 41.8314 29.6749C41.8377 29.652 41.8422 29.6287 41.8451 29.6052V25.8362C41.8423 25.8125 41.8376 25.7892 41.8309 25.7664C41.8679 25.5372 41.7299 25.3159 41.5077 25.2482C40.5925 24.9775 39.8768 24.2613 39.6067 23.3458C39.5386 23.1223 39.3152 22.984 39.0847 23.0226C39.063 23.0165 39.0407 23.0121 39.0183 23.0094H27.7113C27.6875 23.0122 27.664 23.0169 27.6411 23.0235C27.4119 22.987 27.1909 23.1249 27.1228 23.3467C26.8519 24.2618 26.1361 24.9775 25.2209 25.2482C24.9989 25.316 24.861 25.5372 24.8977 25.7664C24.8916 25.7893 24.8872 25.8126 24.8845 25.8362V29.6052C24.8872 29.6273 24.8916 29.6492 24.8977 29.6707C24.8591 29.9013 24.9973 30.125 25.2209 30.1936ZM25.8268 26.0274C26.7728 25.6475 27.5226 24.8977 27.9026 23.9517H38.8266C39.2067 24.8977 39.9567 25.6475 40.9028 26.0274V29.4139C39.9571 29.7943 39.2074 30.5439 38.827 31.4897H27.9026C27.5222 30.5439 26.7725 29.7943 25.8268 29.4139V26.0274Z" fill="#AF8E2F"/>
<path d="M33.3648 30.5473C34.926 30.5473 36.1915 29.2818 36.1915 27.7206C36.1915 26.1594 34.926 24.8938 33.3648 24.8938C31.8036 24.8938 30.538 26.1594 30.538 27.7206C30.5396 29.2811 31.8042 30.5458 33.3648 30.5473ZM33.3648 25.8361C34.4056 25.8361 35.2493 26.6798 35.2493 27.7206C35.2493 28.7613 34.4056 29.6051 33.3648 29.6051C32.324 29.6051 31.4803 28.7613 31.4803 27.7206C31.4803 26.6798 32.324 25.8361 33.3648 25.8361Z" fill="#AF8E2F"/>
<path d="M28.1824 28.4273C28.5727 28.4273 28.8891 28.1109 28.8891 27.7206C28.8891 27.3303 28.5727 27.0139 28.1824 27.0139C27.7921 27.0139 27.4757 27.3303 27.4757 27.7206C27.4757 28.1109 27.7921 28.4273 28.1824 28.4273ZM28.1824 27.485C28.3125 27.485 28.418 27.5905 28.418 27.7206C28.418 27.8507 28.3125 27.9562 28.1824 27.9562C28.0523 27.9562 27.9468 27.8507 27.9468 27.7206C27.9468 27.5905 28.0523 27.485 28.1824 27.485Z" fill="#AF8E2F"/>
<path d="M38.5471 28.4273C38.9374 28.4273 39.2538 28.1109 39.2538 27.7206C39.2538 27.3303 38.9374 27.0139 38.5471 27.0139C38.1569 27.0139 37.8405 27.3303 37.8405 27.7206C37.8405 28.1109 38.1569 28.4273 38.5471 28.4273ZM38.5471 27.485C38.6772 27.485 38.7827 27.5905 38.7827 27.7206C38.7827 27.8507 38.6772 27.9562 38.5471 27.9562C38.4171 27.9562 38.3116 27.8507 38.3116 27.7206C38.3116 27.5905 38.4171 27.485 38.5471 27.485Z" fill="#AF8E2F"/>
</g>
</svg>
