<svg width="14" height="18" viewBox="0 0 14 18" fill="none" xmlns="http://www.w3.org/2000/svg">
<path d="M1 4.20009L4.19999 1.00009C4.19999 1.00009 8.12237 1.00009 10.0667 1.00009C10.6557 1.00009 11.1333 1.47771 11.1333 2.06677C11.1333 4.64968 11.1333 11.2171 11.1333 13.8001C11.1333 14.3891 10.6558 14.8667 10.0667 14.8667C8.11999 14.8667 4.01335 14.8667 2.06668 14.8667C1.47762 14.8667 1 14.3891 1 13.8001C1 11.0985 1 4.20009 1 4.20009Z" stroke="#FFF3EB" stroke-width="0.8" stroke-miterlimit="10" stroke-linecap="round" stroke-linejoin="round"/>
<path d="M11.1333 3.13281C11.1333 3.13281 11.6666 3.13281 12.1999 3.13281C12.789 3.13281 13.2666 3.61043 13.2666 4.19949C13.2666 6.78241 13.2666 13.3499 13.2666 15.9328C13.2666 16.5218 12.789 16.9995 12.1999 16.9995C10.2533 16.9995 6.14662 16.9995 4.19994 16.9995C3.91701 16.9995 3.64582 16.8872 3.44582 16.6869C3.24556 16.4869 3.1333 16.2157 3.1333 15.9328C3.1333 15.3995 3.1333 14.8661 3.1333 14.8661" stroke="#FFF3EB" stroke-width="0.8" stroke-miterlimit="10" stroke-linecap="round" stroke-linejoin="round"/>
<path d="M1 4.73335C1 4.73335 2.5632 4.73335 3.66667 4.73335C4.25573 4.73335 4.73335 4.25573 4.73335 3.66667C4.73335 2.5632 4.73335 1 4.73335 1" stroke="#FFF3EB" stroke-width="0.8" stroke-miterlimit="10"/>
<path d="M3.66663 7.40039H8.46662" stroke="#FFF3EB" stroke-width="0.8" stroke-miterlimit="10" stroke-linecap="round" stroke-linejoin="round"/>
<path d="M3.66663 9.5332H8.46662" stroke="#FFF3EB" stroke-width="0.8" stroke-miterlimit="10" stroke-linecap="round" stroke-linejoin="round"/>
<path d="M3.66663 11.666H6.3333" stroke="#FFF3EB" stroke-width="0.8" stroke-miterlimit="10" stroke-linecap="round" stroke-linejoin="round"/>
</svg>
