<svg width="16" height="16" viewBox="0 0 16 16" fill="none" xmlns="http://www.w3.org/2000/svg">
<circle cx="8" cy="8" r="8" fill="#FFF3EB"/>
<g clip-path="url(#clip0_1_526)">
<path d="M11.9317 7.82182L9.53181 5.1553C9.48061 5.09877 9.40915 5.06677 9.33342 5.06677H7.7335C7.62844 5.06677 7.53298 5.12864 7.48978 5.22463C7.44712 5.32116 7.46472 5.43369 7.53512 5.51155L9.77446 7.99995L7.53512 10.4878C7.46472 10.5662 7.44659 10.6787 7.48978 10.7747C7.53298 10.8713 7.62844 10.9331 7.7335 10.9331H9.33342C9.40915 10.9331 9.48061 10.9006 9.53181 10.8451L11.9317 8.1786C12.0229 8.07728 12.0229 7.92262 11.9317 7.82182Z" fill="#161742"/>
<path d="M8.46512 7.82182L6.06525 5.1553C6.01406 5.09877 5.94259 5.06677 5.86687 5.06677H4.26695C4.16189 5.06677 4.06643 5.12864 4.02323 5.22463C3.98057 5.32116 3.99817 5.43369 4.06856 5.51155L6.30791 7.99995L4.06856 10.4878C3.99817 10.5662 3.98003 10.6787 4.02323 10.7747C4.06643 10.8713 4.16189 10.9331 4.26695 10.9331H5.86687C5.94259 10.9331 6.01406 10.9006 6.06525 10.8451L8.46512 8.1786C8.55632 8.07728 8.55632 7.92262 8.46512 7.82182Z" fill="#161742"/>
</g>
<defs>
<clipPath id="clip0_1_526">
<rect width="8" height="8" fill="white" transform="translate(4 4)"/>
</clipPath>
</defs>
</svg>
