<svg width="14" height="9" viewBox="0 0 14 9" fill="none" xmlns="http://www.w3.org/2000/svg">
<path d="M7.00252 7.10315C7.67997 7.10315 8.2548 6.86604 8.72702 6.39182C9.19924 5.9176 9.43536 5.34176 9.43536 4.66432C9.43536 3.98687 9.19824 3.41204 8.72402 2.93982C8.2498 2.4676 7.67397 2.23148 6.99652 2.23148C6.31908 2.23148 5.74424 2.4686 5.27202 2.94282C4.7998 3.41704 4.56369 3.99287 4.56369 4.67032C4.56369 5.34776 4.8008 5.9226 5.27502 6.39482C5.74924 6.86704 6.32508 7.10315 7.00252 7.10315ZM6.99952 6.46732C6.49952 6.46732 6.07452 6.29232 5.72452 5.94232C5.37452 5.59232 5.19952 5.16732 5.19952 4.66732C5.19952 4.16732 5.37452 3.74232 5.72452 3.39232C6.07452 3.04232 6.49952 2.86732 6.99952 2.86732C7.49952 2.86732 7.92452 3.04232 8.27452 3.39232C8.62452 3.74232 8.79952 4.16732 8.79952 4.66732C8.79952 5.16732 8.62452 5.59232 8.27452 5.94232C7.92452 6.29232 7.49952 6.46732 6.99952 6.46732ZM6.99952 9.00065C5.68152 9.00065 4.47274 8.65193 3.37319 7.95448C2.27363 7.25704 1.38541 6.34254 0.708521 5.21098C0.652965 5.11943 0.61341 5.02921 0.589854 4.94032C0.56641 4.85143 0.554688 4.76021 0.554688 4.66665C0.554688 4.5731 0.56641 4.4821 0.589854 4.39365C0.61341 4.30521 0.652965 4.21521 0.708521 4.12365C1.38541 2.9921 2.27363 2.0776 3.37319 1.38015C4.47274 0.682707 5.68152 0.333984 6.99952 0.333984C8.31752 0.333984 9.5263 0.682707 10.6259 1.38015C11.7254 2.0776 12.6136 2.9921 13.2905 4.12365C13.3461 4.21521 13.3856 4.30543 13.4092 4.39432C13.4326 4.48321 13.4444 4.57443 13.4444 4.66798C13.4444 4.76154 13.4326 4.85254 13.4092 4.94098C13.3856 5.02943 13.3461 5.11943 13.2905 5.21098C12.6136 6.34254 11.7254 7.25704 10.6259 7.95448C9.5263 8.65193 8.31752 9.00065 6.99952 9.00065ZM6.99952 8.33398C8.25508 8.33398 9.40786 8.00343 10.4579 7.34232C11.5079 6.68121 12.3106 5.78954 12.8662 4.66732C12.3106 3.5451 11.5079 2.65343 10.4579 1.99232C9.40786 1.33121 8.25508 1.00065 6.99952 1.00065C5.74397 1.00065 4.59119 1.33121 3.54119 1.99232C2.49119 2.65343 1.68841 3.5451 1.13285 4.66732C1.68841 5.78954 2.49119 6.68121 3.54119 7.34232C4.59119 8.00343 5.74397 8.33398 6.99952 8.33398Z" fill="#1C1B1F"/>
</svg>
