<svg width="10" height="12" viewBox="0 0 10 12" fill="none" xmlns="http://www.w3.org/2000/svg">
<path d="M2.07765 11.3331C1.78143 11.3331 1.52787 11.2277 1.31698 11.0168C1.1061 10.8059 1.00065 10.5524 1.00065 10.2561V1.99981H0.667318C0.572873 1.99981 0.493707 1.96781 0.429818 1.90381C0.365929 1.83981 0.333984 1.76053 0.333984 1.66598C0.333984 1.57142 0.365929 1.49231 0.429818 1.42865C0.493707 1.36498 0.572873 1.33315 0.667318 1.33315H3.00065C3.00065 1.19559 3.05171 1.0757 3.15382 0.973479C3.25593 0.871368 3.37582 0.820312 3.51348 0.820312H6.48782C6.62548 0.820312 6.74537 0.871368 6.84748 0.973479C6.9496 1.0757 7.00065 1.19559 7.00065 1.33315H9.33398C9.42843 1.33315 9.5076 1.36515 9.57148 1.42915C9.63537 1.49315 9.66732 1.57242 9.66732 1.66698C9.66732 1.76154 9.63537 1.84065 9.57148 1.90431C9.5076 1.96798 9.42843 1.99981 9.33398 1.99981H9.00065V10.2561C9.00065 10.5524 8.89521 10.8059 8.68432 11.0168C8.47343 11.2277 8.21987 11.3331 7.92365 11.3331H2.07765ZM8.33398 1.99981H1.66732V10.2561C1.66732 10.3758 1.70576 10.4741 1.78265 10.5511C1.85965 10.628 1.95798 10.6665 2.07765 10.6665H7.92365C8.04332 10.6665 8.14165 10.628 8.21865 10.5511C8.29554 10.4741 8.33398 10.3758 8.33398 10.2561V1.99981ZM3.87282 9.33315C3.96748 9.33315 4.04665 9.3012 4.11032 9.23731C4.17398 9.17342 4.20582 9.09426 4.20582 8.99981V3.66648C4.20582 3.57203 4.17382 3.49287 4.10982 3.42898C4.04582 3.36509 3.96654 3.33315 3.87198 3.33315C3.77743 3.33315 3.69832 3.36509 3.63465 3.42898C3.57098 3.49287 3.53915 3.57203 3.53915 3.66648V8.99981C3.53915 9.09426 3.57115 9.17342 3.63515 9.23731C3.69904 9.3012 3.77826 9.33315 3.87282 9.33315ZM6.12932 9.33315C6.22387 9.33315 6.30298 9.3012 6.36665 9.23731C6.43032 9.17342 6.46215 9.09426 6.46215 8.99981V3.66648C6.46215 3.57203 6.43015 3.49287 6.36615 3.42898C6.30226 3.36509 6.22304 3.33315 6.12848 3.33315C6.03382 3.33315 5.95465 3.36509 5.89098 3.42898C5.82732 3.49287 5.79548 3.57203 5.79548 3.66648V8.99981C5.79548 9.09426 5.82748 9.17342 5.89148 9.23731C5.95548 9.3012 6.03476 9.33315 6.12932 9.33315Z" fill="#161742"/>
</svg>
