<svg width="16" height="10" viewBox="0 0 16 10" fill="none" xmlns="http://www.w3.org/2000/svg">
<path d="M7.05775 10C6.91608 10 6.79733 9.952 6.7015 9.856C6.60567 9.76 6.55775 9.64108 6.55775 9.49925C6.55775 9.35742 6.60567 9.23875 6.7015 9.14325C6.79733 9.04775 6.91608 9 7.05775 9H8.923C9.06467 9 9.18342 9.048 9.27925 9.144C9.37508 9.24 9.423 9.35892 9.423 9.50075C9.423 9.64258 9.37508 9.76125 9.27925 9.85675C9.18342 9.95225 9.06467 10 8.923 10H7.05775ZM3.30775 5.5C3.16608 5.5 3.04733 5.452 2.9515 5.356C2.85567 5.26 2.80775 5.14108 2.80775 4.99925C2.80775 4.85742 2.85567 4.73875 2.9515 4.64325C3.04733 4.54775 3.16608 4.5 3.30775 4.5H12.673C12.8147 4.5 12.9334 4.548 13.0293 4.644C13.1251 4.74 13.173 4.85892 13.173 5.00075C13.173 5.14258 13.1251 5.26125 13.0293 5.35675C12.9334 5.45225 12.8147 5.5 12.673 5.5H3.30775ZM0.5 1C0.358333 1 0.239583 0.952 0.14375 0.856C0.0479167 0.76 0 0.641083 0 0.499249C0 0.357416 0.0479167 0.23875 0.14375 0.14325C0.239583 0.0477495 0.358333 0 0.5 0H15.5C15.6417 0 15.7604 0.0480002 15.8562 0.144C15.9521 0.24 16 0.358917 16 0.500751C16 0.642584 15.9521 0.76125 15.8562 0.85675C15.7604 0.95225 15.6417 1 15.5 1H0.5Z" fill="#161742"/>
</svg>
