<svg width="40" height="40" viewBox="0 0 40 40" fill="none" xmlns="http://www.w3.org/2000/svg">
<circle opacity="0.2" cx="20" cy="20" r="20" fill="url(#paint0_linear_762_145)"/>
<path d="M27 15.6667H13.6667C13.4015 15.6667 13.1471 15.5613 12.9596 15.3738C12.772 15.1862 12.6667 14.9319 12.6667 14.6667C12.6667 14.4015 12.772 14.1471 12.9596 13.9596C13.1471 13.772 13.4015 13.6667 13.6667 13.6667H25C25.0884 13.6667 25.1732 13.6315 25.2357 13.569C25.2982 13.5065 25.3333 13.4217 25.3333 13.3333C25.3333 13.2449 25.2982 13.1601 25.2357 13.0976C25.1732 13.0351 25.0884 13 25 13H13.6667C13.2246 13 12.8007 13.1756 12.4882 13.4882C12.1756 13.8007 12 14.2246 12 14.6667V25.3333C12 25.7754 12.1756 26.1993 12.4882 26.5118C12.8007 26.8244 13.2246 27 13.6667 27H27C27.2652 27 27.5196 26.8946 27.7071 26.7071C27.8946 26.5196 28 26.2652 28 26V16.6667C28 16.4015 27.8946 16.1471 27.7071 15.9596C27.5196 15.772 27.2652 15.6667 27 15.6667ZM27.3333 26C27.3333 26.0884 27.2982 26.1732 27.2357 26.2357C27.1732 26.2982 27.0884 26.3333 27 26.3333H13.6667C13.4015 26.3333 13.1471 26.228 12.9596 26.0404C12.772 25.8529 12.6667 25.5986 12.6667 25.3333V16C12.9548 16.2171 13.3059 16.3342 13.6667 16.3333H27C27.0884 16.3333 27.1732 16.3685 27.2357 16.431C27.2982 16.4935 27.3333 16.5783 27.3333 16.6667V26ZM24.6667 21C24.6667 21.1319 24.6276 21.2607 24.5543 21.3704C24.4811 21.48 24.3769 21.5655 24.2551 21.6159C24.1333 21.6664 23.9993 21.6796 23.8699 21.6539C23.7406 21.6281 23.6218 21.5646 23.5286 21.4714C23.4354 21.3782 23.3719 21.2594 23.3461 21.1301C23.3204 21.0007 23.3336 20.8667 23.3841 20.7449C23.4345 20.6231 23.52 20.5189 23.6296 20.4457C23.7393 20.3724 23.8681 20.3333 24 20.3333C24.1768 20.3333 24.3464 20.4036 24.4714 20.5286C24.5964 20.6536 24.6667 20.8232 24.6667 21Z" fill="#1D478E"/>
<defs>
<linearGradient id="paint0_linear_762_145" x1="0" y1="20" x2="40" y2="20" gradientUnits="userSpaceOnUse">
<stop stop-color="#8FD1EC"/>
<stop offset="1" stop-color="#229ACE"/>
</linearGradient>
</defs>
</svg>
