<svg xmlns="http://www.w3.org/2000/svg" width="14" height="16" viewBox="0 0 14 16">
  <path id="secure" d="M26.106,2.24a.52.52,0,0,0-.37-.432L19.434.02a.5.5,0,0,0-.275,0l-6.3,1.788a.52.52,0,0,0-.37.432c-.037.268-.87,6.605,1.268,9.758a10.05,10.05,0,0,0,5.421,3.988.5.5,0,0,0,.241,0A10.05,10.05,0,0,0,24.838,12C26.977,8.845,26.143,2.508,26.106,2.24Zm-2.746,3.7-4.3,4.386a.505.505,0,0,1-.725,0L15.679,7.614a.53.53,0,0,1,0-.739l.528-.538a.505.505,0,0,1,.725,0L18.7,8.14l3.409-3.478a.505.505,0,0,1,.725,0l.528.538A.53.53,0,0,1,23.361,5.939Z" transform="translate(-12.296 -0.001)" fill="#32b353"/>
</svg>
