<svg width="20" height="20" viewBox="0 0 20 20" fill="none" xmlns="http://www.w3.org/2000/svg">
<path d="M9.74086 12.6507C9.73856 12.6507 9.73625 12.6507 9.73394 12.6507C9.30925 12.6469 8.96766 12.2993 8.9715 11.874L8.97497 11.4891C8.97497 11.4671 8.97612 11.4448 8.97843 11.4229C9.08499 10.3032 9.8278 9.61689 10.4252 9.06532C10.6276 8.87826 10.8191 8.70159 10.9822 8.51722C11.1811 8.29282 11.4696 7.83325 11.1661 7.2786C10.8164 6.63812 9.96244 6.45683 9.29887 6.60887C8.60567 6.76745 8.35024 7.35981 8.25946 7.69853C8.14944 8.10922 7.72745 8.35287 7.31699 8.24317C6.90654 8.13309 6.66304 7.71085 6.77267 7.30015C7.07926 6.15429 7.87478 5.35562 8.95496 5.10813C10.4087 4.77595 11.8728 5.3637 12.5156 6.53958C13.0507 7.51878 12.9041 8.66772 12.1328 9.53837C11.9185 9.78009 11.6897 9.99179 11.4681 10.1962C10.9161 10.7062 10.571 11.0472 10.5125 11.5395L10.5095 11.8871C10.5064 12.3108 10.1625 12.6507 9.74086 12.6507Z" fill="#161742"/>
<path d="M9.74061 14.9588C9.54058 14.9588 9.34055 14.8779 9.19821 14.7355C9.05204 14.5931 8.97125 14.393 8.97125 14.189C8.97125 13.9888 9.05204 13.7887 9.19821 13.6462C9.48288 13.3614 9.99835 13.3614 10.283 13.6462C10.4292 13.7887 10.51 13.9888 10.51 14.189C10.51 14.393 10.4292 14.5893 10.2869 14.7355C10.1407 14.8779 9.94449 14.9588 9.74061 14.9588Z" fill="#161742"/>
<path d="M9.97253 20C9.09738 20 8.22993 19.8861 7.39401 19.6609C3.79187 18.6913 0.971388 15.7056 0.208566 12.054C-0.568874 8.33394 0.865985 4.42332 3.86457 2.09118C5.59794 0.742865 7.78408 0 10.0206 0C11.569 0 13.1065 0.36027 14.4675 1.04117C17.8285 2.72358 20 6.23853 20 9.99634C20 13.0625 18.554 16.0178 16.132 17.9015C14.3925 19.2548 12.2048 20 9.97253 20ZM10.021 1.53962C8.12491 1.53962 6.27383 2.16701 4.80935 3.30671C2.27161 5.2805 1.05679 8.59029 1.71498 11.7388C2.36047 14.8277 4.74664 17.3538 7.79408 18.174C8.49959 18.3638 9.23279 18.4604 9.97253 18.4604C11.8644 18.4604 13.7166 17.8303 15.188 16.686C17.238 15.0917 18.4617 12.591 18.4617 9.99634C18.4617 6.81665 16.624 3.84211 13.7797 2.41835C12.6311 1.84369 11.3316 1.53962 10.021 1.53962Z" fill="#161742"/>
</svg>
