<svg width="77" height="72" viewBox="0 0 77 72" fill="none" xmlns="http://www.w3.org/2000/svg">
<g clip-path="url(#clip0_3632_9606)">
<path d="M44.8944 18.3885L56.8893 3.66208C57.1642 3.32456 57.6824 3.33286 57.9463 3.67902L69.1756 18.4054C69.5134 18.8484 69.1975 19.4866 68.6404 19.4866H64.1016C63.7299 19.4866 63.4286 19.7879 63.4286 20.1596V57.327C63.4286 57.6987 63.1272 58 62.7555 58H51.8159C51.4442 58 51.1429 57.6987 51.1429 57.327V20.1596C51.1429 19.7879 50.8415 19.4866 50.4698 19.4866H45.4163C44.8492 19.4866 44.5363 18.8282 44.8944 18.3885Z" fill="#CEEDFB"/>
<path d="M30.0045 36.6085L43.4598 21.5789C43.7332 21.2735 44.2138 21.2813 44.4771 21.5955L57.0736 36.6251C57.4407 37.0631 57.1293 37.7304 56.5577 37.7304H51.3434C50.9717 37.7304 50.6703 38.0318 50.6703 38.4035V57.327C50.6703 57.6987 50.369 58 49.9973 58H37.6401C37.2684 58 36.967 57.6987 36.967 57.327V38.4035C36.967 38.0318 36.6657 37.7304 36.294 37.7304H30.5059C29.924 37.7304 29.6163 37.042 30.0045 36.6085Z" fill="#186BCC"/>
<path d="M28.427 68.9591C39.5164 68.9591 48.5061 68.0282 48.5061 66.8799C48.5061 65.7316 39.5164 64.8008 28.427 64.8008C17.3377 64.8008 8.34799 65.7316 8.34799 66.8799C8.34799 68.0282 17.3377 68.9591 28.427 68.9591Z" fill="#5BC4F0" fill-opacity="0.3"/>
<path d="M54.8663 70.8172C58.9526 70.8172 62.2651 69.6255 62.2651 68.1555C62.2651 66.6855 58.9526 65.4938 54.8663 65.4938C50.7801 65.4938 47.4675 66.6855 47.4675 68.1555C47.4675 69.6255 50.7801 70.8172 54.8663 70.8172Z" fill="#5BC4F0" fill-opacity="0.3"/>
<path d="M67.6754 70.4707C71.7616 70.4707 75.0742 69.279 75.0742 67.809C75.0742 66.339 71.7616 65.1473 67.6754 65.1473C63.5891 65.1473 60.2766 66.339 60.2766 67.809C60.2766 69.279 63.5891 70.4707 67.6754 70.4707Z" fill="#5BC4F0" fill-opacity="0.3"/>
<path d="M62.7887 66.6574C62.7887 67.7829 64.196 68.7495 66.2146 69.1822V64.1326C64.196 64.5652 62.7887 65.5319 62.7887 66.6574Z" fill="#AF8E2F"/>
<path d="M67.7541 63.923V69.3917C68.0013 69.4086 68.252 69.4205 68.506 69.4222V63.8943C68.2503 63.896 67.9996 63.9078 67.7541 63.9247V63.923Z" fill="#AF8E2F"/>
<path d="M74.3687 65.5285H62.7887V66.8838H74.3687V65.5285Z" fill="#AF8E2F"/>
<path d="M74.3706 66.6574C74.3706 65.7431 73.4409 64.9319 72.0099 64.43V68.8864C73.4409 68.3828 74.3706 67.5733 74.3706 66.6591V66.6574Z" fill="#AF8E2F"/>
<path d="M66.2164 64.1326V69.1822C66.6974 69.2853 67.2156 69.3545 67.7541 69.3917V63.923C67.2139 63.9602 66.6974 64.0295 66.2164 64.1326Z" fill="#D6B11E"/>
<path d="M68.5805 63.8909C68.5568 63.8909 68.5331 63.8909 68.5077 63.8909V69.4188C68.5314 69.4188 68.5551 69.4188 68.5805 69.4188C69.8641 69.4188 71.0496 69.2193 72.0098 68.8813V64.4249C71.0496 64.0869 69.8641 63.8875 68.5805 63.8875V63.8909Z" fill="#D6B11E"/>
<path d="M68.5804 68.6008C71.7781 68.6008 74.3704 67.3622 74.3704 65.8344C74.3704 64.3065 71.7781 63.0679 68.5804 63.0679C65.3826 63.0679 62.7904 64.3065 62.7904 65.8344C62.7904 67.3622 65.3826 68.6008 68.5804 68.6008Z" fill="#AF8E2F"/>
<path d="M68.5808 68.3946C71.7785 68.3946 74.3708 67.156 74.3708 65.6282C74.3708 64.1003 71.7785 62.8617 68.5808 62.8617C65.383 62.8617 62.7908 64.1003 62.7908 65.6282C62.7908 67.156 65.383 68.3946 68.5808 68.3946Z" fill="#FFD840"/>
<path d="M68.5805 67.7575C71.1236 67.7575 73.1851 66.8042 73.1851 65.6282C73.1851 64.4522 71.1236 63.4988 68.5805 63.4988C66.0375 63.4988 63.976 64.4522 63.976 65.6282C63.976 66.8042 66.0375 67.7575 68.5805 67.7575Z" fill="#FFD325"/>
<path d="M67.2561 65.8208L66.5347 65.4389L67.0986 65.1466L67.82 65.5285C68.1604 65.7076 68.7192 65.7076 69.0664 65.5285C69.4136 65.3477 69.4203 65.0553 69.08 64.8762L68.3264 64.4773L68.8903 64.185L69.6439 64.5838C70.2874 64.9252 70.2755 65.4795 69.6185 65.8208C68.9614 66.1622 67.9013 66.1622 67.2561 65.8208Z" fill="#AF8E2F"/>
<path d="M69.9808 66.3075L67.4135 64.9488L67.9775 64.6564L70.5448 66.0152L69.9808 66.3075Z" fill="#AF8E2F"/>
<path d="M70.8921 65.8343L68.3247 64.4756L68.8887 64.1833L71.456 65.542L70.8921 65.8343Z" fill="#AF8E2F"/>
<path d="M67.0733 67.0731L67.3239 65.471L66.5381 65.4406L66.3417 66.6861L67.0733 67.0731Z" fill="#AF8E2F"/>
<path d="M62.7887 64.9437C62.7887 66.0693 64.196 67.0359 66.2146 67.4686V62.4189C64.196 62.8516 62.7887 63.8182 62.7887 64.9437Z" fill="#AF8E2F"/>
<path d="M67.7541 62.2094V67.6781C68.0013 67.695 68.252 67.7068 68.506 67.7085V62.1806C68.2503 62.1823 67.9996 62.1942 67.7541 62.2111V62.2094Z" fill="#AF8E2F"/>
<path d="M74.3687 63.8148H62.7887V65.1702H74.3687V63.8148Z" fill="#AF8E2F"/>
<path d="M74.3706 64.9437C74.3706 64.0295 73.4409 63.2183 72.0099 62.7164V67.1728C73.4409 66.6692 74.3706 65.8597 74.3706 64.9454V64.9437Z" fill="#AF8E2F"/>
<path d="M66.2164 62.4189V67.4685C66.6974 67.5716 67.2156 67.6409 67.7541 67.6781V62.2094C67.2139 62.2466 66.6974 62.3158 66.2164 62.4189Z" fill="#D6B11E"/>
<path d="M68.5805 62.1773C68.5568 62.1773 68.5331 62.1773 68.5077 62.1773V67.7051C68.5314 67.7051 68.5551 67.7051 68.5805 67.7051C69.8641 67.7051 71.0496 67.5057 72.0098 67.1677V62.7113C71.0496 62.3733 69.8641 62.1739 68.5805 62.1739V62.1773Z" fill="#D6B11E"/>
<path d="M68.5804 66.8872C71.7781 66.8872 74.3704 65.6486 74.3704 64.1207C74.3704 62.5929 71.7781 61.3543 68.5804 61.3543C65.3826 61.3543 62.7904 62.5929 62.7904 64.1207C62.7904 65.6486 65.3826 66.8872 68.5804 66.8872Z" fill="#AF8E2F"/>
<path d="M68.5808 66.681C71.7785 66.681 74.3708 65.4424 74.3708 63.9146C74.3708 62.3867 71.7785 61.1481 68.5808 61.1481C65.383 61.1481 62.7908 62.3867 62.7908 63.9146C62.7908 65.4424 65.383 66.681 68.5808 66.681Z" fill="#FFD840"/>
<path d="M68.5805 66.0439C71.1236 66.0439 73.1851 65.0905 73.1851 63.9145C73.1851 62.7385 71.1236 61.7852 68.5805 61.7852C66.0375 61.7852 63.976 62.7385 63.976 63.9145C63.976 65.0905 66.0375 66.0439 68.5805 66.0439Z" fill="#FFD325"/>
<path d="M67.2561 64.1072L66.5347 63.7253L67.0986 63.4329L67.82 63.8149C68.1604 63.994 68.7192 63.994 69.0664 63.8149C69.4136 63.634 69.4203 63.3417 69.08 63.1625L68.3264 62.7637L68.8903 62.4713L69.6439 62.8702C70.2874 63.2115 70.2755 63.7659 69.6185 64.1072C68.9614 64.4486 67.9013 64.4486 67.2561 64.1072Z" fill="#AF8E2F"/>
<path d="M69.9808 64.5939L67.4135 63.2352L67.9775 62.9428L70.5448 64.3015L69.9808 64.5939Z" fill="#AF8E2F"/>
<path d="M70.8921 64.1207L68.3247 62.762L68.8887 62.4696L71.456 63.8284L70.8921 64.1207Z" fill="#AF8E2F"/>
<path d="M67.0733 65.3594L67.3239 63.7574L66.5381 63.7269L66.3417 64.9724L67.0733 65.3594Z" fill="#AF8E2F"/>
<path d="M49.2578 66.6574C49.2578 67.7829 50.6651 68.7495 52.6837 69.1822V64.1326C50.6651 64.5652 49.2578 65.5319 49.2578 66.6574Z" fill="#AF8E2F"/>
<path d="M54.2231 63.923V69.3917C54.4703 69.4086 54.7209 69.4205 54.975 69.4222V63.8943C54.7193 63.896 54.4686 63.9078 54.2231 63.9247V63.923Z" fill="#AF8E2F"/>
<path d="M60.8378 65.5285H49.2578V66.8838H60.8378V65.5285Z" fill="#AF8E2F"/>
<path d="M60.8377 66.6574C60.8377 65.7431 59.908 64.9319 58.477 64.43V68.8864C59.908 68.3828 60.8377 67.5733 60.8377 66.6591V66.6574Z" fill="#AF8E2F"/>
<path d="M52.6855 64.1326V69.1822C53.1664 69.2853 53.6846 69.3545 54.2231 69.3917V63.923C53.6829 63.9602 53.1664 64.0295 52.6855 64.1326Z" fill="#D6B11E"/>
<path d="M55.0478 63.8909C55.0241 63.8909 55.0004 63.8909 54.975 63.8909V69.4188C54.9987 69.4188 55.0224 69.4188 55.0478 69.4188C56.3315 69.4188 57.5169 69.2193 58.4771 68.8813V64.4249C57.5169 64.0869 56.3315 63.8875 55.0478 63.8875V63.8909Z" fill="#D6B11E"/>
<path d="M55.0478 68.6008C58.2455 68.6008 60.8378 67.3622 60.8378 65.8343C60.8378 64.3065 58.2455 63.0679 55.0478 63.0679C51.8501 63.0679 49.2578 64.3065 49.2578 65.8343C49.2578 67.3622 51.8501 68.6008 55.0478 68.6008Z" fill="#AF8E2F"/>
<path d="M55.0478 68.3946C58.2455 68.3946 60.8378 67.156 60.8378 65.6282C60.8378 64.1003 58.2455 62.8617 55.0478 62.8617C51.8501 62.8617 49.2578 64.1003 49.2578 65.6282C49.2578 67.156 51.8501 68.3946 55.0478 68.3946Z" fill="#FFD840"/>
<path d="M55.0479 67.7575C57.5909 67.7575 59.6524 66.8042 59.6524 65.6282C59.6524 64.4522 57.5909 63.4988 55.0479 63.4988C52.5048 63.4988 50.4433 64.4522 50.4433 65.6282C50.4433 66.8042 52.5048 67.7575 55.0479 67.7575Z" fill="#FFD325"/>
<path d="M53.7252 65.8208L53.0037 65.4389L53.5677 65.1466L54.2891 65.5285C54.6295 65.7076 55.1883 65.7076 55.5355 65.5285C55.8827 65.3477 55.8894 65.0553 55.549 64.8762L54.7954 64.4773L55.3594 64.185L56.113 64.5838C56.7565 64.9252 56.7446 65.4795 56.0876 65.8208C55.4288 66.1622 54.3704 66.1622 53.7252 65.8208Z" fill="#AF8E2F"/>
<path d="M56.4499 66.3075L53.8826 64.9488L54.4465 64.6564L57.0122 66.0152L56.4499 66.3075Z" fill="#AF8E2F"/>
<path d="M57.3611 65.8343L54.7938 64.4756L55.3578 64.1833L57.9251 65.542L57.3611 65.8343Z" fill="#AF8E2F"/>
<path d="M53.5406 67.0731L53.7929 65.471L53.0071 65.4406L52.8107 66.6861L53.5406 67.0731Z" fill="#AF8E2F"/>
<path d="M49.2578 64.9437C49.2578 66.0692 50.6651 67.0359 52.6837 67.4685V62.4189C50.6651 62.8515 49.2578 63.8182 49.2578 64.9437Z" fill="#AF8E2F"/>
<path d="M54.2231 62.2093V67.678C54.4703 67.6949 54.7209 67.7068 54.975 67.7085V62.1806C54.7193 62.1823 54.4686 62.1941 54.2231 62.211V62.2093Z" fill="#AF8E2F"/>
<path d="M60.8378 63.8148H49.2578V65.1701H60.8378V63.8148Z" fill="#AF8E2F"/>
<path d="M60.8377 64.9437C60.8377 64.0294 59.908 63.2182 58.477 62.7163V67.1727C59.908 66.6691 60.8377 65.8596 60.8377 64.9454V64.9437Z" fill="#AF8E2F"/>
<path d="M52.6855 62.4189V67.4685C53.1664 67.5716 53.6846 67.6409 54.2231 67.678V62.2093C53.6829 62.2465 53.1664 62.3158 52.6855 62.4189Z" fill="#D6B11E"/>
<path d="M55.0478 62.1772C55.0241 62.1772 55.0004 62.1772 54.975 62.1772V67.7051C54.9987 67.7051 55.0224 67.7051 55.0478 67.7051C56.3315 67.7051 57.5169 67.5057 58.4771 67.1677V62.7112C57.5169 62.3732 56.3315 62.1738 55.0478 62.1738V62.1772Z" fill="#D6B11E"/>
<path d="M55.0478 66.8872C58.2455 66.8872 60.8378 65.6486 60.8378 64.1207C60.8378 62.5928 58.2455 61.3542 55.0478 61.3542C51.8501 61.3542 49.2578 62.5928 49.2578 64.1207C49.2578 65.6486 51.8501 66.8872 55.0478 66.8872Z" fill="#AF8E2F"/>
<path d="M55.0478 66.681C58.2455 66.681 60.8378 65.4424 60.8378 63.9145C60.8378 62.3866 58.2455 61.148 55.0478 61.148C51.8501 61.148 49.2578 62.3866 49.2578 63.9145C49.2578 65.4424 51.8501 66.681 55.0478 66.681Z" fill="#FFD840"/>
<path d="M55.0479 66.0438C57.5909 66.0438 59.6524 65.0905 59.6524 63.9145C59.6524 62.7385 57.5909 61.7851 55.0479 61.7851C52.5048 61.7851 50.4433 62.7385 50.4433 63.9145C50.4433 65.0905 52.5048 66.0438 55.0479 66.0438Z" fill="#FFD325"/>
<path d="M53.7252 64.1072L53.0037 63.7253L53.5677 63.4329L54.2891 63.8148C54.6295 63.994 55.1883 63.994 55.5355 63.8148C55.8827 63.634 55.8894 63.3416 55.549 63.1625L54.7954 62.7637L55.3594 62.4713L56.113 62.8701C56.7565 63.2115 56.7446 63.7658 56.0876 64.1072C55.4288 64.4486 54.3704 64.4486 53.7252 64.1072Z" fill="#AF8E2F"/>
<path d="M56.4499 64.5939L53.8826 63.2351L54.4465 62.9428L57.0122 64.3015L56.4499 64.5939Z" fill="#AF8E2F"/>
<path d="M57.3611 64.1207L54.7938 62.762L55.3578 62.4696L57.9251 63.8283L57.3611 64.1207Z" fill="#AF8E2F"/>
<path d="M53.5406 65.3595L53.7929 63.7574L53.0071 63.727L52.8107 64.9725L53.5406 65.3595Z" fill="#AF8E2F"/>
<path d="M49.2578 63.2302C49.2578 64.3557 50.6651 65.3223 52.6837 65.755V60.7054C50.6651 61.138 49.2578 62.1046 49.2578 63.2302Z" fill="#AF8E2F"/>
<path d="M54.2231 60.4958V65.9645C54.4703 65.9814 54.7209 65.9932 54.975 65.9949V60.4671C54.7193 60.4688 54.4686 60.4806 54.2231 60.4975V60.4958Z" fill="#AF8E2F"/>
<path d="M60.8378 62.1013H49.2578V63.4566H60.8378V62.1013Z" fill="#AF8E2F"/>
<path d="M60.8377 63.2302C60.8377 62.3159 59.908 61.5047 58.477 61.0011V65.4575C59.908 64.9539 60.8377 64.1444 60.8377 63.2302Z" fill="#AF8E2F"/>
<path d="M52.6855 60.7053V65.7549C53.1664 65.858 53.6846 65.9273 54.2231 65.9645V60.4958C53.6829 60.533 53.1664 60.6023 52.6855 60.7053Z" fill="#D6B11E"/>
<path d="M55.0478 60.4637C55.0241 60.4637 55.0004 60.4637 54.975 60.4637V65.9915C54.9987 65.9915 55.0224 65.9915 55.0478 65.9915C56.3315 65.9915 57.5169 65.7921 58.4771 65.4541V60.9977C57.5169 60.6597 56.3315 60.4603 55.0478 60.4603V60.4637Z" fill="#D6B11E"/>
<path d="M55.0478 65.1736C58.2455 65.1736 60.8378 63.935 60.8378 62.4072C60.8378 60.8793 58.2455 59.6407 55.0478 59.6407C51.8501 59.6407 49.2578 60.8793 49.2578 62.4072C49.2578 63.935 51.8501 65.1736 55.0478 65.1736Z" fill="#AF8E2F"/>
<path d="M55.0478 64.9674C58.2455 64.9674 60.8378 63.7289 60.8378 62.201C60.8378 60.6731 58.2455 59.4345 55.0478 59.4345C51.8501 59.4345 49.2578 60.6731 49.2578 62.201C49.2578 63.7289 51.8501 64.9674 55.0478 64.9674Z" fill="#FFD840"/>
<path d="M55.0479 64.3303C57.5909 64.3303 59.6524 63.377 59.6524 62.2009C59.6524 61.0249 57.5909 60.0716 55.0479 60.0716C52.5048 60.0716 50.4433 61.0249 50.4433 62.2009C50.4433 63.377 52.5048 64.3303 55.0479 64.3303Z" fill="#FFD325"/>
<path d="M53.7252 62.3937L53.0037 62.0117L53.5677 61.7194L54.2891 62.1013C54.6295 62.2804 55.1883 62.2804 55.5355 62.1013C55.8827 61.9205 55.8894 61.6281 55.549 61.449L54.7954 61.0501L55.3594 60.7578L56.113 61.1566C56.7565 61.498 56.7446 62.0523 56.0876 62.3937C55.4288 62.735 54.3704 62.735 53.7252 62.3937Z" fill="#AF8E2F"/>
<path d="M56.4499 62.8803L53.8826 61.5216L54.4465 61.2292L57.0122 62.588L56.4499 62.8803Z" fill="#AF8E2F"/>
<path d="M57.3611 62.4072L54.7938 61.0484L55.3578 60.7561L57.9251 62.1148L57.3611 62.4072Z" fill="#AF8E2F"/>
<path d="M53.5406 63.6459L53.7929 62.0438L53.0071 62.0134L52.8107 63.2589L53.5406 63.6459Z" fill="#AF8E2F"/>
<path d="M49.2578 61.5165C49.2578 62.642 50.6651 63.6087 52.6837 64.0413V58.9917C50.6651 59.4243 49.2578 60.391 49.2578 61.5165Z" fill="#AF8E2F"/>
<path d="M54.2231 58.7821V64.2509C54.4703 64.2678 54.7209 64.2796 54.975 64.2813V58.7534C54.7193 58.7551 54.4686 58.7669 54.2231 58.7838V58.7821Z" fill="#AF8E2F"/>
<path d="M60.8378 60.3876H49.2578V61.743H60.8378V60.3876Z" fill="#AF8E2F"/>
<path d="M60.8377 61.5165C60.8377 60.6022 59.908 59.791 58.477 59.2891V63.7456C59.908 63.2419 60.8377 62.4325 60.8377 61.5182V61.5165Z" fill="#AF8E2F"/>
<path d="M52.6855 58.9917V64.0413C53.1664 64.1444 53.6846 64.2137 54.2231 64.2508V58.7821C53.6829 58.8193 53.1664 58.8886 52.6855 58.9917Z" fill="#D6B11E"/>
<path d="M55.0478 58.75C55.0241 58.75 55.0004 58.75 54.975 58.75V64.2779C54.9987 64.2779 55.0224 64.2779 55.0478 64.2779C56.3315 64.2779 57.5169 64.0785 58.4771 63.7405V59.2841C57.5169 58.9461 56.3315 58.7466 55.0478 58.7466V58.75Z" fill="#D6B11E"/>
<path d="M55.0478 63.4599C58.2455 63.4599 60.8378 62.2213 60.8378 60.6935C60.8378 59.1656 58.2455 57.927 55.0478 57.927C51.8501 57.927 49.2578 59.1656 49.2578 60.6935C49.2578 62.2213 51.8501 63.4599 55.0478 63.4599Z" fill="#AF8E2F"/>
<path d="M55.0478 63.2538C58.2455 63.2538 60.8378 62.0152 60.8378 60.4873C60.8378 58.9594 58.2455 57.7208 55.0478 57.7208C51.8501 57.7208 49.2578 58.9594 49.2578 60.4873C49.2578 62.0152 51.8501 63.2538 55.0478 63.2538Z" fill="#FFD840"/>
<path d="M55.0479 62.6166C57.5909 62.6166 59.6524 61.6633 59.6524 60.4873C59.6524 59.3113 57.5909 58.3579 55.0479 58.3579C52.5048 58.3579 50.4433 59.3113 50.4433 60.4873C50.4433 61.6633 52.5048 62.6166 55.0479 62.6166Z" fill="#FFD325"/>
<path d="M53.7252 60.68L53.0037 60.2981L53.5677 60.0057L54.2891 60.3876C54.6295 60.5668 55.1883 60.5668 55.5355 60.3876C55.8827 60.2068 55.8894 59.9144 55.549 59.7353L54.7954 59.3365L55.3594 59.0441L56.113 59.4429C56.7565 59.7843 56.7446 60.3386 56.0876 60.68C55.4288 61.0214 54.3704 61.0214 53.7252 60.68Z" fill="#AF8E2F"/>
<path d="M56.4499 61.1667L53.8826 59.8079L54.4465 59.5156L57.0122 60.8743L56.4499 61.1667Z" fill="#AF8E2F"/>
<path d="M57.3611 60.6935L54.7938 59.3348L55.3578 59.0424L57.9251 60.4011L57.3611 60.6935Z" fill="#AF8E2F"/>
<path d="M53.5406 61.9322L53.7929 60.3285L53.0071 60.2997L52.8107 61.5452L53.5406 61.9322Z" fill="#AF8E2F"/>
<path d="M49.2578 59.803C49.2578 60.9285 50.6651 61.8951 52.6837 62.3278V57.2782C50.6651 57.7108 49.2578 58.6775 49.2578 59.803Z" fill="#AF8E2F"/>
<path d="M54.2231 57.0686V62.5373C54.4703 62.5542 54.7209 62.5661 54.975 62.5678V57.0399C54.7193 57.0416 54.4686 57.0534 54.2231 57.0703V57.0686Z" fill="#AF8E2F"/>
<path d="M60.8378 58.6741H49.2578V60.0294H60.8378V58.6741Z" fill="#AF8E2F"/>
<path d="M60.8377 59.803C60.8377 58.8887 59.908 58.0775 58.477 57.5756V62.032C59.908 61.5284 60.8377 60.7189 60.8377 59.8047V59.803Z" fill="#AF8E2F"/>
<path d="M52.6855 57.2782V62.3278C53.1664 62.4309 53.6846 62.5001 54.2231 62.5373V57.0686C53.6829 57.1058 53.1664 57.1751 52.6855 57.2782Z" fill="#D6B11E"/>
<path d="M55.0478 57.0365C55.0241 57.0365 55.0004 57.0365 54.975 57.0365V62.5644C54.9987 62.5644 55.0224 62.5644 55.0478 62.5644C56.3315 62.5644 57.5169 62.3649 58.4771 62.0269V57.5705C57.5169 57.2325 56.3315 57.0331 55.0478 57.0331V57.0365Z" fill="#D6B11E"/>
<path d="M55.0478 61.7464C58.2455 61.7464 60.8378 60.5078 60.8378 58.9799C60.8378 57.4521 58.2455 56.2135 55.0478 56.2135C51.8501 56.2135 49.2578 57.4521 49.2578 58.9799C49.2578 60.5078 51.8501 61.7464 55.0478 61.7464Z" fill="#AF8E2F"/>
<path d="M55.0478 61.5402C58.2455 61.5402 60.8378 60.3016 60.8378 58.7738C60.8378 57.2459 58.2455 56.0073 55.0478 56.0073C51.8501 56.0073 49.2578 57.2459 49.2578 58.7738C49.2578 60.3016 51.8501 61.5402 55.0478 61.5402Z" fill="#FFD840"/>
<path d="M55.0479 60.9031C57.5909 60.9031 59.6524 59.9498 59.6524 58.7738C59.6524 57.5978 57.5909 56.6444 55.0479 56.6444C52.5048 56.6444 50.4433 57.5978 50.4433 58.7738C50.4433 59.9498 52.5048 60.9031 55.0479 60.9031Z" fill="#FFD325"/>
<path d="M53.7252 58.9664L53.0037 58.5845L53.5677 58.2921L54.2891 58.6741C54.6295 58.8532 55.1883 58.8532 55.5355 58.6741C55.8827 58.4949 55.8894 58.2009 55.549 58.0218L54.7954 57.6229L55.3594 57.3306L56.113 57.7294C56.7565 58.0708 56.7446 58.6251 56.0876 58.9664C55.4288 59.3078 54.3704 59.3078 53.7252 58.9664Z" fill="#AF8E2F"/>
<path d="M56.4499 59.4531L53.8826 58.0944L54.4465 57.802L57.0122 59.1608L56.4499 59.4531Z" fill="#AF8E2F"/>
<path d="M57.3611 58.9799L54.7938 57.6212L55.3578 57.3289L57.9251 58.6876L57.3611 58.9799Z" fill="#AF8E2F"/>
<path d="M53.5406 60.217L53.7929 58.6149L53.0071 58.5862L52.8107 59.8317L53.5406 60.217Z" fill="#AF8E2F"/>
<path d="M49.2578 58.0893C49.2578 59.2148 50.6651 60.1814 52.6837 60.6141V55.5645C50.6651 55.9971 49.2578 56.9637 49.2578 58.0893Z" fill="#AF8E2F"/>
<path d="M54.2231 55.3549V60.8236C54.4703 60.8405 54.7209 60.8523 54.975 60.854V55.3262C54.7193 55.3279 54.4686 55.3397 54.2231 55.3566V55.3549Z" fill="#AF8E2F"/>
<path d="M60.8378 56.9604H49.2578V58.3157H60.8378V56.9604Z" fill="#AF8E2F"/>
<path d="M60.8377 58.0892C60.8377 57.175 59.908 56.3638 58.477 55.8619V60.3183C59.908 59.8147 60.8377 59.0052 60.8377 58.0892Z" fill="#AF8E2F"/>
<path d="M52.6855 55.5644V60.614C53.1664 60.7171 53.6846 60.7864 54.2231 60.8236V55.3549C53.6829 55.3921 53.1664 55.4614 52.6855 55.5644Z" fill="#D6B11E"/>
<path d="M55.0478 55.3228C55.0241 55.3228 55.0004 55.3228 54.975 55.3228V60.8506C54.9987 60.8506 55.0224 60.8506 55.0478 60.8506C56.3315 60.8506 57.5169 60.6512 58.4771 60.3132V55.8568C57.5169 55.5188 56.3315 55.3194 55.0478 55.3194V55.3228Z" fill="#D6B11E"/>
<path d="M55.0478 60.0327C58.2455 60.0327 60.8378 58.7941 60.8378 57.2663C60.8378 55.7384 58.2455 54.4998 55.0478 54.4998C51.8501 54.4998 49.2578 55.7384 49.2578 57.2663C49.2578 58.7941 51.8501 60.0327 55.0478 60.0327Z" fill="#AF8E2F"/>
<path d="M55.0478 59.8265C58.2455 59.8265 60.8378 58.588 60.8378 57.0601C60.8378 55.5322 58.2455 54.2936 55.0478 54.2936C51.8501 54.2936 49.2578 55.5322 49.2578 57.0601C49.2578 58.588 51.8501 59.8265 55.0478 59.8265Z" fill="#FFD840"/>
<path d="M55.0479 59.1894C57.5909 59.1894 59.6524 58.2361 59.6524 57.06C59.6524 55.884 57.5909 54.9307 55.0479 54.9307C52.5048 54.9307 50.4433 55.884 50.4433 57.06C50.4433 58.2361 52.5048 59.1894 55.0479 59.1894Z" fill="#FFD325"/>
<path d="M53.7252 57.2527L53.0037 56.8708L53.5677 56.5784L54.2891 56.9604C54.6295 57.1395 55.1883 57.1395 55.5355 56.9604C55.8827 56.7795 55.8894 56.4872 55.549 56.308L54.7954 55.9092L55.3594 55.6169L56.113 56.0157C56.7565 56.3571 56.7446 56.9114 56.0876 57.2527C55.4288 57.5941 54.3704 57.5941 53.7252 57.2527Z" fill="#AF8E2F"/>
<path d="M56.4499 57.7394L53.8826 56.3807L54.4465 56.0883L57.0122 57.447L56.4499 57.7394Z" fill="#AF8E2F"/>
<path d="M57.3611 57.2662L54.7938 55.9075L55.3578 55.6151L57.9251 56.9739L57.3611 57.2662Z" fill="#AF8E2F"/>
<path d="M53.5406 58.5033L53.7929 56.9012L53.0071 56.8725L52.8107 58.118L53.5406 58.5033Z" fill="#AF8E2F"/>
<path d="M49.2578 56.3756C49.2578 57.5011 50.6651 58.4678 52.6837 58.9004V53.8508C50.6651 54.2834 49.2578 55.2501 49.2578 56.3756Z" fill="#AF8E2F"/>
<path d="M54.2231 53.6412V59.11C54.4703 59.1269 54.7209 59.1387 54.975 59.1404V53.6125C54.7193 53.6142 54.4686 53.626 54.2231 53.6429V53.6412Z" fill="#AF8E2F"/>
<path d="M60.8378 55.2467H49.2578V56.6021H60.8378V55.2467Z" fill="#AF8E2F"/>
<path d="M60.8377 56.3756C60.8377 55.4613 59.908 54.6501 58.477 54.1482V58.6047C59.908 58.101 60.8377 57.2916 60.8377 56.3773V56.3756Z" fill="#AF8E2F"/>
<path d="M52.6855 53.8508V58.9004C53.1664 59.0035 53.6846 59.0728 54.2231 59.11V53.6412C53.6829 53.6784 53.1664 53.7477 52.6855 53.8508Z" fill="#D6B11E"/>
<path d="M55.0478 53.6091C55.0241 53.6091 55.0004 53.6091 54.975 53.6091V59.137C54.9987 59.137 55.0224 59.137 55.0478 59.137C56.3315 59.137 57.5169 58.9376 58.4771 58.5996V54.1432C57.5169 53.8052 56.3315 53.6057 55.0478 53.6057V53.6091Z" fill="#D6B11E"/>
<path d="M55.0478 58.319C58.2455 58.319 60.8378 57.0804 60.8378 55.5526C60.8378 54.0247 58.2455 52.7861 55.0478 52.7861C51.8501 52.7861 49.2578 54.0247 49.2578 55.5526C49.2578 57.0804 51.8501 58.319 55.0478 58.319Z" fill="#AF8E2F"/>
<path d="M55.0478 58.1129C58.2455 58.1129 60.8378 56.8743 60.8378 55.3464C60.8378 53.8185 58.2455 52.5799 55.0478 52.5799C51.8501 52.5799 49.2578 53.8185 49.2578 55.3464C49.2578 56.8743 51.8501 58.1129 55.0478 58.1129Z" fill="#FFD840"/>
<path d="M55.0479 57.4757C57.5909 57.4757 59.6524 56.5224 59.6524 55.3464C59.6524 54.1704 57.5909 53.217 55.0479 53.217C52.5048 53.217 50.4433 54.1704 50.4433 55.3464C50.4433 56.5224 52.5048 57.4757 55.0479 57.4757Z" fill="#FFD325"/>
<path d="M53.7252 55.5391L53.0037 55.1571L53.5677 54.8648L54.2891 55.2467C54.6295 55.4259 55.1883 55.4259 55.5355 55.2467C55.8827 55.0659 55.8894 54.7735 55.549 54.5944L54.7954 54.1956L55.3594 53.9032L56.113 54.302C56.7565 54.6434 56.7446 55.1977 56.0876 55.5391C55.4288 55.8805 54.3704 55.8805 53.7252 55.5391Z" fill="#AF8E2F"/>
<path d="M56.4499 56.0258L53.8826 54.6671L54.4465 54.3747L57.0122 55.7335L56.4499 56.0258Z" fill="#AF8E2F"/>
<path d="M57.3611 55.5526L54.7938 54.1938L55.3578 53.9015L57.9251 55.2602L57.3611 55.5526Z" fill="#AF8E2F"/>
<path d="M53.5406 56.7897L53.7929 55.1876L53.0071 55.1588L52.8107 56.4043L53.5406 56.7897Z" fill="#AF8E2F"/>
<path d="M49.2578 54.6621C49.2578 55.7876 50.6651 56.7542 52.6837 57.1869V52.1373C50.6651 52.5699 49.2578 53.5366 49.2578 54.6621Z" fill="#AF8E2F"/>
<path d="M54.2231 51.9277V57.3964C54.4703 57.4133 54.721 57.4252 54.975 57.4269V51.899C54.7193 51.9007 54.4686 51.9125 54.2231 51.9294V51.9277Z" fill="#AF8E2F"/>
<path d="M60.8378 53.5332H49.2578V54.8885H60.8378V53.5332Z" fill="#AF8E2F"/>
<path d="M60.8377 54.6621C60.8377 53.7478 59.908 52.9366 58.477 52.4347V56.8911C59.908 56.3875 60.8377 55.578 60.8377 54.6621Z" fill="#AF8E2F"/>
<path d="M52.6855 52.1373V57.1869C53.1664 57.29 53.6846 57.3592 54.2231 57.3964V51.9277C53.6829 51.9649 53.1664 52.0342 52.6855 52.1373Z" fill="#D6B11E"/>
<path d="M55.0478 51.8956C55.0241 51.8956 55.0004 51.8956 54.975 51.8956V57.4235C54.9987 57.4235 55.0224 57.4235 55.0478 57.4235C56.3315 57.4235 57.5169 57.224 58.4771 56.8861V52.4296C57.5169 52.0916 56.3315 51.8922 55.0478 51.8922V51.8956Z" fill="#D6B11E"/>
<path d="M55.0478 56.6055C58.2455 56.6055 60.8378 55.3669 60.8378 53.839C60.8378 52.3112 58.2455 51.0726 55.0478 51.0726C51.8501 51.0726 49.2578 52.3112 49.2578 53.839C49.2578 55.3669 51.8501 56.6055 55.0478 56.6055Z" fill="#AF8E2F"/>
<path d="M55.0478 56.3993C58.2455 56.3993 60.8378 55.1607 60.8378 53.6329C60.8378 52.105 58.2455 50.8664 55.0478 50.8664C51.8501 50.8664 49.2578 52.105 49.2578 53.6329C49.2578 55.1607 51.8501 56.3993 55.0478 56.3993Z" fill="#FFD840"/>
<path d="M55.0479 55.7622C57.5909 55.7622 59.6524 54.8089 59.6524 53.6329C59.6524 52.4569 57.5909 51.5035 55.0479 51.5035C52.5048 51.5035 50.4433 52.4569 50.4433 53.6329C50.4433 54.8089 52.5048 55.7622 55.0479 55.7622Z" fill="#FFD325"/>
<path d="M53.7252 53.8255L53.0038 53.4436L53.5677 53.1513L54.2891 53.5332C54.6295 53.7123 55.1883 53.7123 55.5355 53.5332C55.8827 53.3524 55.8894 53.06 55.5491 52.8809L54.7955 52.482L55.3594 52.1897L56.113 52.5885C56.7565 52.9299 56.7446 53.4842 56.0876 53.8255C55.4288 54.1669 54.3704 54.1669 53.7252 53.8255Z" fill="#AF8E2F"/>
<path d="M56.4499 54.3122L53.8826 52.9535L54.4466 52.6611L57.0122 54.0199L56.4499 54.3122Z" fill="#AF8E2F"/>
<path d="M57.3612 53.8391L54.7938 52.4803L55.3578 52.188L57.9251 53.5467L57.3612 53.8391Z" fill="#AF8E2F"/>
<path d="M53.5406 55.0761L53.7929 53.474L53.0071 53.4453L52.8107 54.6908L53.5406 55.0761Z" fill="#AF8E2F"/>
<path d="M65.7502 55.0733C66.4259 55.974 68.1329 55.9098 70.0093 55.0496L66.9813 51.0038C65.6231 52.5552 65.0762 54.1725 65.7502 55.0733Z" fill="#AF8E2F"/>
<path d="M68.0872 49.9172L71.3675 54.2976C71.5758 54.1641 71.7824 54.0238 71.989 53.8717L68.6732 49.4423C68.4699 49.5961 68.2752 49.755 68.0889 49.9155L68.0872 49.9172Z" fill="#AF8E2F"/>
<path d="M74.3486 47.2493L65.0724 54.1668L65.8855 55.2525L75.1616 48.335L74.3486 47.2493Z" fill="#AF8E2F"/>
<path d="M75.0254 48.1563C74.4767 47.4245 73.2472 47.3299 71.7976 47.7811L74.4699 51.3503C75.315 50.0913 75.5724 48.888 75.0254 48.1546V48.1563Z" fill="#AF8E2F"/>
<path d="M66.9797 51.0038L70.0076 55.0496C70.4547 54.8451 70.9102 54.5916 71.3658 54.2993L68.0855 49.9189C67.6757 50.2704 67.3031 50.6354 66.9797 51.0055V51.0038Z" fill="#D6B11E"/>
<path d="M68.7289 49.4001C68.7086 49.4153 68.6917 49.4305 68.6713 49.444L71.9872 53.8734C72.0075 53.8582 72.0261 53.8464 72.0464 53.8312C73.0744 53.0639 73.9042 52.197 74.4715 51.352L71.7992 47.7828C70.8271 48.0853 69.7586 48.6345 68.7306 49.4001H68.7289Z" fill="#D6B11E"/>
<path d="M71.5529 53.1696C74.1144 51.2594 75.448 48.7187 74.5315 47.4948C73.615 46.2709 70.7955 46.8273 68.234 48.7375C65.6724 50.6477 64.3389 53.1884 65.2554 54.4123C66.1719 55.6362 68.9914 55.0798 71.5529 53.1696Z" fill="#AF8E2F"/>
<path d="M71.429 53.0043C73.9905 51.0941 75.3241 48.5534 74.4076 47.3295C73.4911 46.1056 70.6716 46.662 68.1101 48.5722C65.5485 50.4824 64.215 53.0231 65.1315 54.247C66.048 55.4709 68.8675 54.9145 71.429 53.0043Z" fill="#FFD840"/>
<path d="M71.0468 52.494C73.0838 50.9748 74.1634 48.9797 73.4579 48.0377C72.7525 47.0956 70.5293 47.5634 68.4922 49.0825C66.4551 50.6016 65.3756 52.5968 66.081 53.5388C66.7864 54.4809 69.0097 54.0131 71.0468 52.494Z" fill="#FFD325"/>
<path d="M68.8255 51.7356L68.0194 51.8606L68.2954 51.2894L69.1015 51.1644C69.4825 51.1052 69.9296 50.7706 70.1007 50.4191C70.2717 50.0676 70.1007 49.8293 69.7196 49.8885L68.8763 50.0186L69.1523 49.4474L69.9957 49.3173C70.7154 49.2057 71.0405 49.6569 70.7171 50.3245C70.3936 50.9903 69.5452 51.6241 68.8255 51.7356Z" fill="#AF8E2F"/>
<path d="M71.2997 50.4986L68.4292 50.943L68.7053 50.3718L71.5757 49.9274L71.2997 50.4986Z" fill="#AF8E2F"/>
<path d="M71.7469 49.5741L68.8764 50.0203L69.1525 49.4491L72.0229 49.0046L71.7469 49.5741Z" fill="#AF8E2F"/>
<path d="M69.43 52.8493L68.6696 51.4145L68.0227 51.8607L68.6121 52.9744L69.43 52.8493Z" fill="#AF8E2F"/>
<path d="M20.1321 19.4801L19.1935 20.5059L20.9113 22.0757L21.8499 21.0498L20.1321 19.4801Z" fill="#AF8E2F"/>
<path d="M21.8503 21.05L20.9117 22.0759L22.6408 23.6559L23.5793 22.63L21.8503 21.05Z" fill="#D6B11E"/>
<path d="M23.58 22.6309L22.6413 23.6574L24.9045 25.7243L25.8276 24.6858L23.58 22.6309Z" fill="#AF8E2F"/>
<path d="M24.9047 25.7247L26.992 27.6318L27.9302 26.6077L25.8277 24.6862L24.9047 25.7247Z" fill="#D6B11E"/>
</g>
<path d="M32.9002 48.2178C32.9002 56.8578 25.8096 63.8619 17.063 63.8619C8.31629 63.8619 1.22571 56.8578 1.22571 48.2178C1.22571 39.5778 8.31629 32.5736 17.063 32.5736C25.8096 32.5736 32.9002 39.5778 32.9002 48.2178Z" fill="#5BC4F0" fill-opacity="0.1"/>
<path d="M45.5417 42.4034H15.5364C14.8014 42.4034 14.2056 42.9915 14.2056 43.717V63.8812C14.2056 64.6067 14.8014 65.1948 15.5364 65.1948H45.5417C46.2766 65.1948 46.8724 64.6067 46.8724 63.8812V43.717C46.8724 42.9915 46.2766 42.4034 45.5417 42.4034Z" fill="#1D478E"/>
<path d="M45.8815 44.7693V62.8303C45.8815 63.5944 45.2541 64.215 44.4788 64.215H42.3618V44.5562H16.0079C15.6806 44.5562 15.4158 44.2948 15.4158 43.9717C15.4158 43.6487 15.6806 43.3873 16.0079 43.3873H44.4788C45.2528 43.3873 45.8815 44.0066 45.8815 44.772V44.7693Z" fill="#161742"/>
<path d="M24.1308 48.7775C27.0449 48.532 29.2051 46.0065 28.9558 43.1367C28.7065 40.2669 26.142 38.1395 23.2279 38.385C20.3138 38.6306 18.1535 41.156 18.4028 44.0258C18.6522 46.8956 21.2166 49.023 24.1308 48.7775Z" fill="#D6B11E"/>
<path d="M28.4384 45.2083C29.3509 42.6205 27.9604 39.7942 25.3327 38.8956C22.7049 37.997 19.835 39.3663 18.9225 41.9541C18.01 44.5419 19.4005 47.3681 22.0282 48.2668C24.6559 49.1654 27.5259 47.7961 28.4384 45.2083Z" fill="#FFD840"/>
<path d="M23.8932 47.5109C26.0983 47.3949 27.7904 45.5403 27.6725 43.3688C27.5546 41.1972 25.6714 39.5309 23.4663 39.647C21.2612 39.763 19.5692 41.6176 19.687 43.7891C19.8049 45.9607 21.6881 47.627 23.8932 47.5109Z" fill="#FFD325"/>
<path d="M22.865 43.895L22.1425 43.5604L22.424 42.9841L23.1464 43.3187C23.4879 43.4776 23.9066 43.317 24.0799 42.9604C24.2533 42.6055 24.1177 42.1881 23.7762 42.0293L23.0194 41.6777L23.3009 41.1015L24.0576 41.453C24.7046 41.7521 24.962 42.543 24.6342 43.2173C24.3048 43.8899 23.5119 44.1941 22.865 43.895Z" fill="#AF8E2F"/>
<path d="M25.1407 43.8054L22.5631 42.6123L22.8463 42.036L25.4221 43.2291L25.1407 43.8054Z" fill="#AF8E2F"/>
<path d="M25.5969 42.8726L23.0193 41.6795L23.3008 41.1032L25.8783 42.2963L25.5969 42.8726Z" fill="#AF8E2F"/>
<path d="M23.3299 45.7253L22.7482 43.378L22.1441 43.5622L22.5972 45.3856L23.3299 45.7253Z" fill="#AF8E2F"/>
<g style="mix-blend-mode:screen" opacity="0.23">
<path d="M28.7903 44.941L26.7122 39.3067C26.2797 39.0092 25.7941 38.7693 25.2621 38.607C25.2123 38.5918 25.1608 38.58 25.1111 38.5665L28.0472 46.5296C28.3373 46.1138 28.5706 45.6491 28.732 45.1421C28.7525 45.0762 28.7714 45.0086 28.7903 44.9427V44.941Z" fill="#FFD325"/>
</g>
<g style="mix-blend-mode:screen" opacity="0.23">
<path d="M19.9613 39.8677L23.2475 48.7772C24.1708 48.8533 25.0803 48.6843 25.892 48.3159L22.2917 38.5513C21.4165 38.7862 20.6117 39.2391 19.963 39.8677H19.9613Z" fill="#FFD325"/>
</g>
<path d="M43.4532 44.5788H15.4956C14.7832 44.5788 14.2056 45.149 14.2056 45.8522V65.8086C14.2056 66.5119 14.7832 67.0821 15.4956 67.0821H43.4532C44.1657 67.0821 44.7432 66.5119 44.7432 65.8086V45.8522C44.7432 45.149 44.1657 44.5788 43.4532 44.5788Z" fill="#1D478E"/>
<path d="M25.8649 66.1959H16.6801C15.9889 66.1959 15.4268 65.641 15.4268 64.9587V63.2134H15.5721V64.9587C15.5721 65.5619 16.069 66.0525 16.6801 66.0525H25.8649V66.1959Z" fill="#161742"/>
<path d="M43.5227 49.1053H43.3774V46.6993C43.3774 46.0961 42.8804 45.6055 42.2693 45.6055H30.2765V45.462H42.2693C42.9605 45.462 43.5227 46.017 43.5227 46.6993V49.1053Z" fill="#161742"/>
<path d="M15.5729 57.9091H15.4268V61.3058H15.5729V57.9091Z" fill="#161742"/>
<path d="M46.8341 51.2083V57.5673C46.8341 58.3662 46.1796 59.0137 45.3689 59.0137H39.7961C38.0146 59.0137 36.5698 57.5874 36.5698 55.8288C36.5698 54.9495 36.931 54.1533 37.5149 53.5769C38.0987 53.0005 38.9053 52.6439 39.7961 52.6439H45.3689C45.4096 52.6439 45.4504 52.6453 45.4911 52.6493C46.2434 52.5876 46.8327 51.9657 46.8327 51.2083H46.8341Z" fill="#161742"/>
<path d="M40.5667 56.8819C41.1548 56.3014 41.1548 55.3602 40.5667 54.7796C39.9786 54.1991 39.0251 54.1991 38.4371 54.7796C37.849 55.3602 37.849 56.3014 38.4371 56.8819C39.0251 57.4625 39.9786 57.4625 40.5667 56.8819Z" fill="white"/>
<path d="M16.6557 66.2598C19.2407 64.9084 20.2294 61.7497 18.8641 59.2046C17.4988 56.6595 14.2964 55.6918 11.7114 57.0432C9.12644 58.3946 8.13769 61.5533 9.503 64.0984C10.8683 66.6435 14.0707 67.6112 16.6557 66.2598Z" fill="#D6B11E"/>
<path d="M19.2075 61.3112C19.0232 58.577 16.6248 56.5126 13.8506 56.7003C11.0763 56.888 8.97679 59.2567 9.16112 61.9909C9.34545 64.7251 11.7438 66.7895 14.5181 66.6018C17.2923 66.414 19.3919 64.0454 19.2075 61.3112Z" fill="#FFD840"/>
<path d="M15.9357 65.1859C17.9194 64.2275 18.7427 61.8671 17.7747 59.9139C16.8067 57.9607 14.414 57.1543 12.4303 58.1127C10.4467 59.0712 9.6233 61.4315 10.5913 63.3847C11.5593 65.3379 13.9521 66.1444 15.9357 65.1859Z" fill="#FFD325"/>
<path d="M13.5583 62.2546L12.7609 62.2257L12.7919 61.5866L13.5893 61.6155C13.9665 61.6299 14.2883 61.3204 14.3067 60.9253C14.3258 60.5317 14.0358 60.1998 13.6586 60.1855L12.8229 60.1542L12.8539 59.5151L13.6895 59.5464C14.4034 59.5719 14.9533 60.2004 14.9185 60.9476C14.8815 61.6939 14.2722 62.2801 13.5583 62.2546Z" fill="#AF8E2F"/>
<path d="M15.6174 61.2935L12.7728 61.1907L12.8053 60.551L15.6483 60.6544L15.6174 61.2935Z" fill="#AF8E2F"/>
<path d="M15.6682 60.2586L12.8236 60.1559L12.8546 59.5168L15.6991 59.6196L15.6682 60.2586Z" fill="#AF8E2F"/>
<path d="M14.7106 63.7597L13.2461 61.8238L12.763 62.2267L13.9017 63.73L14.7106 63.7597Z" fill="#AF8E2F"/>
<g style="mix-blend-mode:screen" opacity="0.23">
<path d="M19.426 60.9293L15.2832 56.546C14.7675 56.4392 14.2255 56.4059 13.6717 56.462C13.6199 56.4672 13.5678 56.4762 13.5166 56.483L19.3708 62.6784C19.4732 62.1837 19.5041 61.6658 19.4519 61.1369C19.4447 61.0683 19.4354 60.9988 19.4266 60.9308L19.426 60.9293Z" fill="#FFD325"/>
</g>
<g style="mix-blend-mode:screen" opacity="0.23">
<path d="M9.2918 59.6695L15.8427 66.6007C16.7226 66.3142 17.4928 65.8074 18.0941 65.1548L10.9157 57.5578C10.2031 58.112 9.6416 58.8397 9.29338 59.6688L9.2918 59.6695Z" fill="#FFD325"/>
</g>
<defs>
<clipPath id="clip0_3632_9606">
<rect width="76.8266" height="71.0383" fill="white" transform="translate(0.17334)"/>
</clipPath>
</defs>
</svg>
