<svg width="16" height="17" viewBox="0 0 16 17" fill="none" xmlns="http://www.w3.org/2000/svg">
<path d="M11.1127 7H0.37165C0.166388 7 0 6.83361 0 6.62835V0.37165C0 0.166388 0.166388 0 0.37165 0H11.1127C11.318 0 11.4844 0.166388 11.4844 0.37165V6.62835C11.4844 6.83361 11.318 7 11.1127 7Z" fill="#AF8E2F"/>
<path d="M7.29123 14.0959C7.13038 14.0959 7 13.9879 7 13.8546V11.5376C7 11.02 7.46634 10.5749 8.08482 10.5023L14.8334 9.70935C15.1664 9.67023 15.4175 9.43057 15.4175 9.15188V7.8272C15.4175 7.60545 15.1998 7.42501 14.9322 7.42501H14.0274C13.8665 7.42501 13.7361 7.31698 13.7361 7.1837C13.7361 7.05041 13.8665 6.94238 14.0274 6.94238H14.9322C15.521 6.94238 16 7.33932 16 7.82716V9.15185C16 9.66941 15.5337 10.1145 14.9152 10.1871L8.16658 10.9801C7.83357 11.0192 7.58246 11.2589 7.58246 11.5375V13.8545C7.58246 13.9879 7.45208 14.0959 7.29123 14.0959Z" fill="#707070"/>
<path d="M13.2728 9.22322H2.68091C2.33572 9.22322 2.05591 8.94341 2.05591 8.59822V5.76941C2.05591 5.42422 2.33572 5.14441 2.68091 5.14441H3.30422L6.70531 5.64066L10.4642 5.14441H13.2728C13.618 5.14441 13.8978 5.42422 13.8978 5.76941V8.59822C13.8978 8.94341 13.618 9.22322 13.2728 9.22322Z" fill="#E2E2E2"/>
<path d="M13.4226 5.14441H12.9168V7.47413C12.9168 7.81932 12.6333 8.09913 12.2835 8.09913H2.05591V8.59822C2.05591 8.94341 2.33946 9.22322 2.68925 9.22322H13.4226C13.7724 9.22322 14.0559 8.94341 14.0559 8.59822V5.76941C14.0559 5.42422 13.7724 5.14441 13.4226 5.14441Z" fill="#E2E2E2"/>
<path d="M8.23304 11.7024H6.36089C6.27204 11.7024 6.20001 11.7744 6.20001 11.8633V12.3835C6.20001 12.6459 6.25489 12.9053 6.36111 13.1451C6.46732 13.3849 6.5222 13.6443 6.5222 13.9066V16.8392C6.5222 16.928 6.59423 17 6.68307 17H7.91086C7.9997 17 8.07173 16.928 8.07173 16.8392V13.9066C8.07173 13.6443 8.12661 13.3849 8.23282 13.1451C8.33904 12.9053 8.39392 12.6459 8.39392 12.3836V11.8633C8.39392 11.7744 8.32189 11.7024 8.23304 11.7024Z" fill="#707070"/>
<path d="M8.23291 11.7024H7.49144C7.58028 11.7024 7.65231 11.7744 7.65231 11.8633V12.3835C7.65231 12.6459 7.59744 12.9053 7.49122 13.1451C7.385 13.3849 7.33012 13.6443 7.33012 13.9066V16.8392C7.33012 16.928 7.25809 17.0001 7.16925 17.0001H7.91072C7.99956 17.0001 8.07159 16.928 8.07159 16.8392V13.9066C8.07159 13.6443 8.12647 13.3849 8.23269 13.145C8.33891 12.9052 8.39378 12.6458 8.39378 12.3835V11.8632C8.39378 11.7744 8.32175 11.7024 8.23291 11.7024Z" fill="#404040"/>
<path d="M3.3042 5.14441V6.51982C3.3042 6.9996 3.69314 7.3885 4.17289 7.3885C4.35648 7.3885 4.52667 7.33144 4.66692 7.23422C4.70929 7.20485 4.76717 7.23588 4.76717 7.28744V7.39838C4.76717 7.87816 5.15611 8.26707 5.63586 8.26707C6.11564 8.26707 6.50454 7.87813 6.50454 7.39838V6.72522C6.50454 6.68966 6.53336 6.66085 6.56892 6.66085H8.84548C9.13176 6.66085 9.38554 6.52228 9.54376 6.30866C9.56879 6.27488 9.62033 6.27488 9.64536 6.30866C9.80358 6.52228 10.0574 6.66085 10.3436 6.66085C10.4674 6.66085 10.5849 6.63485 10.6914 6.58819C10.7295 6.5715 10.7738 6.59647 10.7794 6.63766C10.8372 7.06135 11.2003 7.38788 11.6398 7.38788C12.1196 7.38788 12.5085 6.99894 12.5085 6.51919V5.14441H3.3042Z" fill="#FFD325"/>
<path d="M11.7485 5.14441V6.51916C11.7485 6.8626 11.5491 7.15944 11.2599 7.30044C11.3747 7.35641 11.5036 7.38788 11.6399 7.38788C12.1197 7.38788 12.5086 6.99894 12.5086 6.51919V5.14441H11.7485Z" fill="#AF8E2F"/>
<path d="M4.69022 11.2483C4.69022 11.6307 4.38029 11.9406 3.99798 11.9406C3.61566 11.9406 3.30573 11.6307 3.30573 11.2483C3.30573 10.9842 3.6361 10.4762 3.84038 10.1872C3.91738 10.0784 4.07857 10.0784 4.15554 10.1872C4.35985 10.4762 4.69022 10.9842 4.69022 11.2483Z" fill="#E2E2E2"/>
<path d="M4.15552 10.1872C4.07852 10.0784 3.91734 10.0784 3.84037 10.1872C3.83365 10.1967 3.82677 10.2065 3.81981 10.2165C3.96881 10.4617 4.10121 10.7266 4.10121 10.8938C4.10121 11.2762 3.79127 11.5861 3.40896 11.5861C3.40374 11.5861 3.39868 11.5854 3.39349 11.5853C3.51187 11.7972 3.73802 11.9406 3.99793 11.9406C4.38024 11.9406 4.69018 11.6307 4.69018 11.2483C4.69018 10.9842 4.35981 10.4761 4.15552 10.1872Z" fill="#FFD325"/>
</svg>
