<svg width="24" height="24" viewBox="0 0 24 24" fill="none" xmlns="http://www.w3.org/2000/svg">
<path d="M22.2292 14.0214C21.9922 13.8389 21.7161 13.7137 21.4227 13.6556C21.1292 13.5976 20.8263 13.6082 20.5377 13.6867L15.8623 14.7571C16.0642 14.4119 16.1706 14.0192 16.1705 13.6193C16.1705 13.0158 15.9307 12.437 15.504 12.0103C15.0772 11.5835 14.4984 11.3438 13.8949 11.3438H9.14845C8.79965 11.3428 8.45412 11.4109 8.13187 11.5444C7.80962 11.6779 7.51705 11.8739 7.2711 12.1213L5.01449 14.3779H2.13779C1.83603 14.3779 1.54663 14.4977 1.33325 14.7111C1.11987 14.9245 1 15.2139 1 15.5156V19.3083C1 19.61 1.11987 19.8994 1.33325 20.1128C1.54663 20.3262 1.83603 20.4461 2.13779 20.4461H11.9986C12.0306 20.4463 12.0624 20.4424 12.0934 20.4347L18.1616 18.9176C18.181 18.9126 18.2 18.9063 18.2185 18.8987L21.8992 17.3304L21.9201 17.3209C22.2167 17.1727 22.4706 16.9514 22.658 16.6779C22.8454 16.4044 22.9601 16.0877 22.9913 15.7577C23.0225 15.4276 22.9692 15.095 22.8364 14.7913C22.7035 14.4875 22.4956 14.2225 22.232 14.0214H22.2292ZM1.75852 19.3083V15.5156C1.75852 15.4151 1.79848 15.3186 1.86961 15.2475C1.94073 15.1763 2.0372 15.1364 2.13779 15.1364H4.79262V19.6875H2.13779C2.0372 19.6875 1.94073 19.6476 1.86961 19.5764C1.79848 19.5053 1.75852 19.4089 1.75852 19.3083ZM21.5873 16.6373L17.9454 18.1894L11.9521 19.6875H5.55114V14.9145L7.80775 12.6579C7.98336 12.4812 8.19229 12.3411 8.42242 12.2458C8.65256 12.1504 8.89933 12.1016 9.14845 12.1023H13.8949C14.2973 12.1023 14.6831 12.2621 14.9676 12.5466C15.2521 12.8311 15.412 13.217 15.412 13.6193C15.412 14.0217 15.2521 14.4076 14.9676 14.6921C14.6831 14.9766 14.2973 15.1364 13.8949 15.1364H11.2401C11.1395 15.1364 11.043 15.1763 10.9719 15.2475C10.9008 15.3186 10.8608 15.4151 10.8608 15.5156C10.8608 15.6162 10.9008 15.7127 10.9719 15.7838C11.043 15.855 11.1395 15.8949 11.2401 15.8949H14.2742C14.3029 15.895 14.3315 15.8919 14.3595 15.8854L20.7121 14.4243H20.7273C21.012 14.3488 21.3145 14.3812 21.5768 14.5151C21.8391 14.649 22.0426 14.8751 22.1484 15.1499C22.2542 15.4247 22.2548 15.729 22.15 16.0042C22.0452 16.2794 21.8424 16.5062 21.5807 16.6411L21.5873 16.6373ZM16.1705 9.06819C16.4503 9.06877 16.7289 9.03048 16.9982 8.95442C17.1273 9.54868 17.4319 10.0905 17.8727 10.5095C18.3134 10.9285 18.8699 11.2054 19.4699 11.3042C20.07 11.4031 20.6859 11.3194 21.2377 11.0639C21.7896 10.8085 22.252 10.3931 22.5649 9.87162C22.8778 9.35018 23.0267 8.74674 22.9925 8.13958C22.9582 7.53242 22.7423 6.94957 22.3727 6.46663C22.0032 5.98368 21.497 5.62294 20.9199 5.43118C20.3428 5.23943 19.7214 5.22551 19.1363 5.39125C19.015 4.83174 18.7379 4.31797 18.337 3.90929C17.936 3.50062 17.4277 3.21371 16.8706 3.08173C16.3135 2.94974 15.7304 2.97807 15.1888 3.16342C14.6471 3.34878 14.1689 3.68361 13.8095 4.12922C13.4501 4.57483 13.224 5.11305 13.1575 5.68167C13.091 6.2503 13.1868 6.82614 13.4337 7.34267C13.6806 7.85919 14.0686 8.29531 14.5529 8.60065C15.0372 8.90599 15.598 9.06808 16.1705 9.06819ZM22.2387 8.30967C22.2387 8.75974 22.1052 9.19969 21.8552 9.57391C21.6051 9.94813 21.2497 10.2398 20.8339 10.412C20.4181 10.5843 19.9606 10.6293 19.5192 10.5415C19.0777 10.4537 18.6723 10.237 18.354 9.91874C18.0358 9.6005 17.8191 9.19503 17.7313 8.75361C17.6434 8.31219 17.6885 7.85465 17.8607 7.43885C18.033 7.02304 18.3246 6.66764 18.6989 6.4176C19.0731 6.16756 19.513 6.0341 19.9631 6.0341C20.5666 6.0341 21.1454 6.27384 21.5722 6.7006C21.9989 7.12735 22.2387 7.70615 22.2387 8.30967ZM16.1705 3.75852C16.7159 3.75847 17.2432 3.9543 17.6563 4.31036C18.0694 4.66642 18.341 5.15902 18.4214 5.69845C17.9857 5.95483 17.621 6.31601 17.3603 6.74918C17.0997 7.18236 16.9514 7.67379 16.929 8.17882C16.6165 8.28964 16.2835 8.33082 15.9535 8.29948C15.6234 8.26815 15.3041 8.16506 15.018 7.99742C14.732 7.82979 14.486 7.60166 14.2973 7.32901C14.1086 7.05635 13.9818 6.74576 13.9257 6.41896C13.8696 6.09216 13.8856 5.75706 13.9726 5.4371C14.0596 5.11714 14.2155 4.82005 14.4293 4.56663C14.6431 4.31321 14.9098 4.10959 15.2105 3.97C15.5113 3.83041 15.8389 3.75824 16.1705 3.75852Z" fill="#707070"/>
</svg>
