<svg width="24" height="24" viewBox="0 0 24 24" fill="none" xmlns="http://www.w3.org/2000/svg">
<rect width="24" height="24" fill="white"/>
<path d="M12 14.2388C10.7574 14.2388 9.75 15.2461 9.75 16.4888V20.9888H14.25V16.4888C14.25 15.2461 13.2426 14.2388 12 14.2388Z" fill="#1D478E"/>
<path d="M15.75 16.4888V20.9888H18.75C19.9926 20.9888 21 19.9814 21 18.7388V11.8981C21.0002 11.5084 20.8488 11.134 20.5777 10.8541L14.2043 3.96378C13.0797 2.74702 11.1817 2.67232 9.96491 3.79689C9.90711 3.85033 9.85143 3.90598 9.79802 3.96378L3.43576 10.8518C3.15655 11.1329 2.99989 11.5131 3 11.9093V18.7388C3 19.9814 4.00737 20.9888 5.25 20.9888H8.24999V16.4888C8.26402 14.4437 9.9152 12.7736 11.9088 12.7255C13.9691 12.6758 15.7343 14.3743 15.75 16.4888Z" fill="#1D478E"/>
<path d="M12 14.2388C10.7574 14.2388 9.75 15.2461 9.75 16.4888V20.9888H14.25V16.4888C14.25 15.2461 13.2426 14.2388 12 14.2388Z" fill="#1D478E"/>
</svg>
