<svg width="14" height="14" viewBox="0 0 14 14" fill="none" xmlns="http://www.w3.org/2000/svg">
<circle cx="7" cy="7" r="7" fill="#5BC4F0"/>
<path d="M7.14352 3.39771C7.84422 3.39771 8.40581 3.59004 8.82828 3.97475C9.25076 4.35944 9.462 4.88496 9.462 5.5513C9.462 6.24513 9.24217 6.76723 8.80252 7.11757C8.36287 7.46792 7.77896 7.64309 7.05078 7.64309L7.00957 8.45714H5.98943L5.93791 6.83936H6.27796C6.9443 6.83936 7.45437 6.75005 7.80815 6.57144C8.16194 6.39284 8.33883 6.05278 8.33883 5.5513C8.33883 5.18723 8.23407 4.90213 8.02454 4.69604C7.81502 4.48996 7.52478 4.3869 7.15383 4.3869C6.78287 4.3869 6.49091 4.48653 6.27796 4.68575C6.065 4.88496 5.95852 5.16318 5.95852 5.52039H4.85596C4.85596 5.10823 4.9487 4.74069 5.13417 4.41783C5.31965 4.09496 5.58585 3.84422 5.93276 3.6656C6.27968 3.487 6.68326 3.39771 7.14352 3.39771ZM6.48404 10.7344C6.27109 10.7344 6.09248 10.6623 5.94822 10.518C5.80396 10.3737 5.73183 10.1951 5.73183 9.98218C5.73183 9.76923 5.80396 9.59061 5.94822 9.44636C6.09248 9.30209 6.27109 9.22996 6.48404 9.22996C6.69013 9.22996 6.8653 9.30209 7.00957 9.44636C7.15383 9.59061 7.22596 9.76923 7.22596 9.98218C7.22596 10.1951 7.15383 10.3737 7.00957 10.518C6.8653 10.6623 6.69013 10.7344 6.48404 10.7344Z" fill="white"/>
</svg>
