<svg width="24" height="24" viewBox="0 0 24 24" fill="none" xmlns="http://www.w3.org/2000/svg">
<mask id="mask0_0_10316" style="mask-type:alpha" maskUnits="userSpaceOnUse" x="0" y="0" width="24" height="24">
<rect width="24" height="24" fill="#D9D9D9"/>
</mask>
<g mask="url(#mask0_0_10316)">
<path d="M4.6155 19C4.15517 19 3.77083 18.8458 3.4625 18.5375C3.15417 18.2292 3 17.8448 3 17.3845V6.6155C3 6.15517 3.15417 5.77083 3.4625 5.4625C3.77083 5.15417 4.15517 5 4.6155 5H19.3845C19.8448 5 20.2292 5.15417 20.5375 5.4625C20.8458 5.77083 21 6.15517 21 6.6155V17.3845C21 17.8448 20.8458 18.2292 20.5375 18.5375C20.2292 18.8458 19.8448 19 19.3845 19H4.6155ZM4.6155 18H19.3845C19.564 18 19.7115 17.9423 19.827 17.827C19.9423 17.7115 20 17.564 20 17.3845V6.6155C20 6.436 19.9423 6.2885 19.827 6.173C19.7115 6.05767 19.564 6 19.3845 6H4.6155C4.436 6 4.2885 6.05767 4.173 6.173C4.05767 6.2885 4 6.436 4 6.6155V17.3845C4 17.564 4.05767 17.7115 4.173 17.827C4.2885 17.9423 4.436 18 4.6155 18ZM7.05575 14.8845C7.17108 14.8845 7.26692 14.8464 7.34325 14.7703C7.41958 14.6939 7.45775 14.5981 7.45775 14.4827V9.59225C7.45775 9.46025 7.41125 9.34775 7.31825 9.25475C7.22525 9.16192 7.11275 9.1155 6.98075 9.1155C6.91025 9.1155 6.84708 9.12475 6.79125 9.14325C6.73558 9.16192 6.68083 9.18983 6.627 9.227L5.4635 10.0655C5.3725 10.1232 5.31767 10.2026 5.299 10.3038C5.2805 10.4051 5.3065 10.5032 5.377 10.598C5.43467 10.693 5.51508 10.7497 5.61825 10.7682C5.72142 10.7869 5.8205 10.7673 5.9155 10.7095L6.65375 10.1923V14.4827C6.65375 14.5981 6.69192 14.6939 6.76825 14.7703C6.84458 14.8464 6.94042 14.8845 7.05575 14.8845ZM10.1385 14.8845H13C13.1077 14.8845 13.1987 14.8473 13.273 14.773C13.3473 14.6987 13.3845 14.6077 13.3845 14.5C13.3845 14.3923 13.3473 14.3013 13.273 14.227C13.1987 14.1527 13.1077 14.1155 13 14.1155H10.8808L10.8692 14.027C11.1679 13.7577 11.4394 13.4967 11.6838 13.2443C11.9279 12.9918 12.1743 12.7347 12.423 12.473C12.6973 12.1858 12.8967 11.9019 13.0212 11.6213C13.1456 11.3404 13.2078 11.0333 13.2078 10.7C13.2078 10.2423 13.0437 9.86383 12.7155 9.5645C12.3872 9.26517 11.9653 9.1155 11.45 9.1155C11.1552 9.1155 10.8673 9.18825 10.5865 9.33375C10.3058 9.47925 10.0738 9.67442 9.8905 9.91925C9.81983 10.0103 9.80825 10.1096 9.85575 10.2173C9.90325 10.3249 9.98083 10.3973 10.0885 10.4345C10.1833 10.4718 10.2846 10.4751 10.3923 10.4443C10.4999 10.4134 10.591 10.3544 10.6655 10.2673C10.7743 10.1454 10.8958 10.0532 11.0297 9.9905C11.1637 9.92767 11.3038 9.89625 11.45 9.89625C11.7385 9.89625 11.9715 9.9725 12.149 10.125C12.3267 10.2775 12.4155 10.4858 12.4155 10.75C12.4155 10.959 12.3758 11.1427 12.2963 11.301C12.2168 11.4593 12.0603 11.668 11.827 11.927C11.6538 12.1128 11.4878 12.2884 11.3287 12.4538C11.1699 12.6193 11.0052 12.7873 10.8345 12.9577L9.84625 13.9078C9.82575 13.9283 9.78217 14.0321 9.7155 14.2192V14.4615C9.7155 14.582 9.75583 14.6827 9.8365 14.7635C9.91733 14.8442 10.018 14.8845 10.1385 14.8845ZM17 14.8845C17.5358 14.8845 17.9711 14.7275 18.3057 14.4135C18.6404 14.0993 18.8077 13.6948 18.8077 13.2C18.8077 12.8358 18.7148 12.5403 18.5288 12.3135C18.3429 12.0865 18.0808 11.932 17.7423 11.85V11.8C18.0269 11.7308 18.2423 11.5985 18.3885 11.403C18.5347 11.2073 18.6077 10.9487 18.6077 10.627C18.6077 10.177 18.4552 9.81258 18.15 9.53375C17.8448 9.25492 17.4448 9.1155 16.95 9.1155C16.5782 9.1155 16.2698 9.19467 16.025 9.353C15.7802 9.51133 15.5853 9.68792 15.4405 9.88275C15.3827 9.96092 15.3743 10.0455 15.4155 10.1365C15.4565 10.2275 15.5244 10.2935 15.6193 10.3345C15.7141 10.3718 15.8122 10.3824 15.9135 10.3663C16.0148 10.3503 16.1027 10.2987 16.177 10.2115C16.2732 10.1025 16.3873 10.0208 16.5193 9.96625C16.6513 9.91175 16.7948 9.8845 16.95 9.8845C17.2052 9.8845 17.4132 9.95667 17.574 10.101C17.735 10.2452 17.8155 10.4282 17.8155 10.65C17.8155 10.909 17.7193 11.118 17.527 11.277C17.3347 11.436 17.0923 11.5155 16.8 11.5155C16.6923 11.5155 16.6013 11.5527 16.527 11.627C16.4527 11.7013 16.4155 11.7923 16.4155 11.9C16.4155 12.0077 16.4527 12.0987 16.527 12.173C16.6013 12.2473 16.6923 12.2845 16.8 12.2845C17.1718 12.2845 17.4673 12.3608 17.6865 12.5135C17.9058 12.666 18.0155 12.8782 18.0155 13.15C18.0155 13.4052 17.9142 13.6279 17.7115 13.8183C17.509 14.0086 17.2718 14.1038 17 14.1038C16.7743 14.1038 16.582 14.064 16.423 13.9845C16.264 13.9052 16.1217 13.7777 15.9962 13.602C15.9384 13.511 15.8598 13.451 15.7605 13.422C15.6612 13.3932 15.5641 13.3973 15.4693 13.4345C15.3706 13.4757 15.2975 13.5395 15.25 13.626C15.2025 13.7125 15.1993 13.8032 15.2405 13.898C15.4238 14.2057 15.6642 14.447 15.9615 14.622C16.259 14.797 16.6052 14.8845 17 14.8845Z" fill="#1D478E"/>
</g>
</svg>
