<svg width="20" height="20" viewBox="0 0 20 20" fill="none" xmlns="http://www.w3.org/2000/svg">
<path d="M10 15.5C10.2833 15.5 10.5208 15.4042 10.7125 15.2125C10.9042 15.0208 11 14.7833 11 14.5V9.5C11 9.21667 10.9042 8.97917 10.7125 8.7875C10.5208 8.59583 10.2833 8.5 10 8.5C9.71667 8.5 9.47917 8.59583 9.2875 8.7875C9.09583 8.97917 9 9.21667 9 9.5V14.5C9 14.7833 9.09583 15.0208 9.2875 15.2125C9.47917 15.4042 9.71667 15.5 10 15.5ZM10 6.5C10.2833 6.5 10.5208 6.40417 10.7125 6.2125C10.9042 6.02083 11 5.78333 11 5.5C11 5.21667 10.9042 4.97917 10.7125 4.7875C10.5208 4.59583 10.2833 4.5 10 4.5C9.71667 4.5 9.47917 4.59583 9.2875 4.7875C9.09583 4.97917 9 5.21667 9 5.5C9 5.78333 9.09583 6.02083 9.2875 6.2125C9.47917 6.40417 9.71667 6.5 10 6.5ZM10 20C8.61667 20 7.31667 19.7375 6.1 19.2125C4.88333 18.6875 3.825 17.975 2.925 17.075C2.025 16.175 1.3125 15.1167 0.7875 13.9C0.2625 12.6833 0 11.3833 0 10C0 8.61667 0.2625 7.31667 0.7875 6.1C1.3125 4.88333 2.025 3.825 2.925 2.925C3.825 2.025 4.88333 1.3125 6.1 0.7875C7.31667 0.2625 8.61667 0 10 0C11.3833 0 12.6833 0.2625 13.9 0.7875C15.1167 1.3125 16.175 2.025 17.075 2.925C17.975 3.825 18.6875 4.88333 19.2125 6.1C19.7375 7.31667 20 8.61667 20 10C20 11.3833 19.7375 12.6833 19.2125 13.9C18.6875 15.1167 17.975 16.175 17.075 17.075C16.175 17.975 15.1167 18.6875 13.9 19.2125C12.6833 19.7375 11.3833 20 10 20Z" fill="#1D478E"/>
</svg>
