<svg width="12" height="12" viewBox="0 0 12 12" fill="none" xmlns="http://www.w3.org/2000/svg">
<path d="M6 0C2.6838 0 0 2.6835 0 6C0 9.31615 2.6835 12 6 12C9.3162 12 12 9.3165 12 6C12 2.6838 9.3165 0 6 0ZM5.82246 8.80826C5.48285 8.80826 5.22223 8.52394 5.22223 8.2001C5.22223 7.86839 5.49075 7.59199 5.82246 7.59199C6.1542 7.59199 6.43057 7.86841 6.43057 8.20012C6.43057 8.52391 6.16205 8.80826 5.82246 8.80826ZM6.72279 5.736C6.28842 6.07561 6.2805 6.31254 6.2805 6.72321C6.2805 6.8733 6.20152 7.04705 5.81454 7.04705C5.4907 7.04705 5.38017 6.92857 5.38017 6.5179C5.38017 5.83868 5.68029 5.51487 5.90932 5.31743C6.16995 5.09627 6.61223 4.85147 6.61223 4.425C6.61223 4.06167 6.29632 3.88793 5.90142 3.88793C5.09585 3.88793 5.26962 4.49609 4.8431 4.49609C4.62987 4.49609 4.36924 4.35389 4.36924 4.0459C4.36924 3.61943 4.8589 2.98758 5.92512 2.98758C6.93602 2.98758 7.60734 3.54834 7.60734 4.29073C7.60734 5.03311 6.93602 5.57016 6.72279 5.736Z" fill="#1D478E"/>
</svg>
