<svg id="Group_7083" data-name="Group 7083" xmlns="http://www.w3.org/2000/svg" width="15.996" height="18.368" viewBox="0 0 15.996 18.368">
  <path id="Path_5035" data-name="Path 5035" d="M116.147,87.906a4.309,4.309,0,0,1,1.3-1.99,5.227,5.227,0,0,0,1.875-4.018,5.282,5.282,0,1,0-8.687,4.018,4.106,4.106,0,0,1,1.339,1.99Z" transform="translate(-106.044 -73.862)" fill="#ffd325"/>
  <path id="Path_5036" data-name="Path 5036" d="M200.594,222.886h.344l-1.531-5.7h.115a.756.756,0,0,0,.536-.23.37.37,0,0,1,.536,0,.654.654,0,0,0,.995,0,.347.347,0,0,1,.268-.115.414.414,0,0,1,.268.115.7.7,0,0,0,.536.23h.115l-1.492,5.7h.344l1.569-5.97c0-.077,0-.153-.077-.191a.168.168,0,0,0-.191.038.331.331,0,0,1-.23.115.509.509,0,0,1-.306-.115.654.654,0,0,0-.995,0,.37.37,0,0,1-.536,0,.617.617,0,0,0-.5-.23h0a.617.617,0,0,0-.5.23.435.435,0,0,1-.306.115.273.273,0,0,1-.23-.115.168.168,0,0,0-.191-.038.14.14,0,0,0-.077.191Z" transform="translate(-193.094 -208.766)" fill="#fff" stroke="#fff" stroke-width="0.25"/>
  <g id="Group_5124" data-name="Group 5124" transform="translate(5.931 14.006)">
    <path id="Path_5037" data-name="Path 5037" d="M222.933,489.6a1.277,1.277,0,0,0,2.373,0Z" transform="translate(-222.053 -486.041)" fill="#a5a5a5"/>
    <path id="Path_5038" data-name="Path 5038" d="M201.882,394h-2.793a.686.686,0,0,1-.689-.689V390.4h4.171v2.908A.686.686,0,0,1,201.882,394Z" transform="translate(-198.4 -390.4)" fill="#a5a5a5"/>
  </g>
  <g id="Group_5125" data-name="Group 5125" transform="translate(5.511 14.618)">
    <path id="Path_5039" data-name="Path 5039" d="M191.221,408.309h-4.133a.425.425,0,0,1-.421-.421h0a.425.425,0,0,1,.421-.421h4.133a.425.425,0,0,1,.421.421h0A.425.425,0,0,1,191.221,408.309Z" transform="translate(-186.667 -407.467)" fill="#fff"/>
    <path id="Path_5040" data-name="Path 5040" d="M191.221,445.643h-4.133a.425.425,0,0,1-.421-.421h0a.425.425,0,0,1,.421-.421h4.133a.425.425,0,0,1,.421.421h0A.425.425,0,0,1,191.221,445.643Z" transform="translate(-186.667 -443.462)" fill="#fff"/>
  </g>
  <g id="Group_5126" data-name="Group 5126">
    <path id="Path_5041" data-name="Path 5041" d="M245.716,0a.383.383,0,0,0-.383.383v1.3a.383.383,0,0,0,.383.383.362.362,0,0,0,.383-.383V.383A.383.383,0,0,0,245.716,0Z" transform="translate(-237.718)" fill="#ffd325"/>
    <path id="Path_5042" data-name="Path 5042" d="M95.585,61.982a.379.379,0,1,0-.536.536l.918.918A.379.379,0,0,0,96.5,62.9Z" transform="translate(-92.715 -59.647)" fill="#ffd325"/>
    <path id="Path_5043" data-name="Path 5043" d="M34.75,212.267h-1.3a.383.383,0,0,0-.383.383h0a.383.383,0,0,0,.383.383h1.3a.383.383,0,0,0,.383-.383h0A.412.412,0,0,0,34.75,212.267Z" transform="translate(-33.066 -204.652)" fill="#ffd325"/>
    <path id="Path_5044" data-name="Path 5044" d="M95.966,337.182l-.918.918a.379.379,0,0,0,.536.536l.918-.918a.379.379,0,0,0-.536-.536Z" transform="translate(-92.713 -324.975)" fill="#ffd325"/>
    <path id="Path_5045" data-name="Path 5045" d="M370.783,337.182a.379.379,0,0,0-.536.536l.918.918a.379.379,0,0,0,.536-.536Z" transform="translate(-358.04 -324.974)" fill="#ffd325"/>
    <path id="Path_5046" data-name="Path 5046" d="M423.017,212.267h-1.3a.383.383,0,0,0-.383.383h0a.384.384,0,0,0,.383.383h1.3a.384.384,0,0,0,.383-.383h0A.384.384,0,0,0,423.017,212.267Z" transform="translate(-407.404 -204.652)" fill="#ffd325"/>
    <path id="Path_5047" data-name="Path 5047" d="M371.166,61.982l-.918.918a.379.379,0,0,0,.536.536l.918-.918a.379.379,0,0,0-.536-.536Z" transform="translate(-358.04 -59.648)" fill="#ffd325"/>
  </g>
</svg>
