<svg width="40" height="40" viewBox="0 0 40 40" fill="none" xmlns="http://www.w3.org/2000/svg">
<circle opacity="0.2" cx="20" cy="20" r="20" fill="url(#paint0_linear_762_131)"/>
<path d="M19.6667 13.6667C18.1503 13.6667 16.6681 14.1163 15.4073 14.9587C14.1465 15.8012 13.1639 16.9985 12.5836 18.3994C12.0033 19.8003 11.8515 21.3418 12.1473 22.829C12.4431 24.3162 13.1733 25.6823 14.2455 26.7545C15.3177 27.8267 16.6838 28.5569 18.171 28.8527C19.6582 29.1485 21.1997 28.9967 22.6006 28.4164C24.0015 27.8361 25.1988 26.8535 26.0413 25.5927C26.8837 24.3319 27.3333 22.8497 27.3333 21.3333C27.3311 19.3007 26.5227 17.3519 25.0854 15.9146C23.6481 14.4773 21.6993 13.6689 19.6667 13.6667ZM19.6667 28.3333C18.2822 28.3333 16.9288 27.9228 15.7777 27.1536C14.6265 26.3844 13.7293 25.2912 13.1995 24.0121C12.6697 22.733 12.5311 21.3256 12.8012 19.9677C13.0713 18.6098 13.738 17.3626 14.7169 16.3836C15.6959 15.4046 16.9432 14.7379 18.301 14.4678C19.6589 14.1977 21.0664 14.3364 22.3455 14.8662C23.6245 15.396 24.7178 16.2932 25.487 17.4443C26.2561 18.5955 26.6667 19.9489 26.6667 21.3333C26.6647 23.1892 25.9265 24.9686 24.6142 26.2809C23.3019 27.5932 21.5226 28.3313 19.6667 28.3333ZM23.2358 17.7642C23.2668 17.7951 23.2914 17.8319 23.3082 17.8724C23.325 17.9128 23.3336 17.9562 23.3336 18C23.3336 18.0438 23.325 18.0872 23.3082 18.1276C23.2914 18.1681 23.2668 18.2049 23.2358 18.2358L19.9025 21.5692C19.8715 21.6001 19.8348 21.6247 19.7943 21.6415C19.7538 21.6582 19.7105 21.6669 19.6667 21.6669C19.6229 21.6669 19.5795 21.6582 19.539 21.6415C19.4986 21.6247 19.4618 21.6001 19.4308 21.5692C19.3999 21.5382 19.3753 21.5014 19.3585 21.461C19.3418 21.4205 19.3331 21.3771 19.3331 21.3333C19.3331 21.2895 19.3418 21.2462 19.3585 21.2057C19.3753 21.1652 19.3999 21.1285 19.4308 21.0975L22.7642 17.7642C22.7951 17.7332 22.8319 17.7086 22.8724 17.6918C22.9128 17.675 22.9562 17.6664 23 17.6664C23.0438 17.6664 23.0872 17.675 23.1276 17.6918C23.1681 17.7086 23.2049 17.7332 23.2358 17.7642ZM17.3333 11.3333C17.3333 11.2449 17.3685 11.1601 17.431 11.0976C17.4935 11.0351 17.5783 11 17.6667 11H21.6667C21.7551 11 21.8399 11.0351 21.9024 11.0976C21.9649 11.1601 22 11.2449 22 11.3333C22 11.4217 21.9649 11.5065 21.9024 11.569C21.8399 11.6315 21.7551 11.6667 21.6667 11.6667H17.6667C17.5783 11.6667 17.4935 11.6315 17.431 11.569C17.3685 11.5065 17.3333 11.4217 17.3333 11.3333Z" fill="#1D478E"/>
<defs>
<linearGradient id="paint0_linear_762_131" x1="0" y1="20" x2="40" y2="20" gradientUnits="userSpaceOnUse">
<stop stop-color="#8FD1EC"/>
<stop offset="1" stop-color="#229ACE"/>
</linearGradient>
</defs>
</svg>
