<svg width="36" height="36" viewBox="0 0 36 36" fill="none" xmlns="http://www.w3.org/2000/svg">
<mask id="mask0_0_350" style="mask-type:luminance" maskUnits="userSpaceOnUse" x="0" y="0" width="36" height="36">
<path d="M0 -1.14441e-05H36V36H0V-1.14441e-05Z" fill="white"/>
</mask>
<g mask="url(#mask0_0_350)">
<path fill-rule="evenodd" clip-rule="evenodd" d="M28.4651 23.199C28.8534 23.199 29.1682 22.8842 29.1682 22.4958V16.257H35.2967C35.5768 16.257 35.8302 16.0907 35.9417 15.8337C36.0532 15.5766 36.0014 15.2779 35.81 15.0734L23.8547 2.30113C23.7218 2.1591 23.536 2.0785 23.3414 2.0785C23.1469 2.0785 22.961 2.15909 22.8281 2.30112L15.5296 10.0981C15.2643 10.3816 15.279 10.8265 15.5625 11.0919C15.846 11.3573 16.2909 11.3426 16.5563 11.0591L23.3414 3.81052L33.6754 14.8508H28.4651C28.0768 14.8508 27.762 15.1656 27.762 15.5539V22.4958C27.762 22.8842 28.0768 23.199 28.4651 23.199Z" fill="#AF8E2F"/>
</g>
<path fill-rule="evenodd" clip-rule="evenodd" d="M17.5171 31.6118C17.5171 32.0001 17.8319 32.3149 18.2202 32.3149H28.4655C28.8538 32.3149 29.1686 32.0001 29.1686 31.6118V28.824C29.1686 28.4357 28.8538 28.1209 28.4655 28.1209C28.0771 28.1209 27.7623 28.4357 27.7623 28.824V30.9087H18.2202C17.8319 30.9087 17.5171 31.2235 17.5171 31.6118Z" fill="#AF8E2F"/>
<mask id="mask1_0_350" style="mask-type:luminance" maskUnits="userSpaceOnUse" x="0" y="0" width="36" height="36">
<path d="M0 -1.14441e-05H36V36H0V-1.14441e-05Z" fill="white"/>
</mask>
<g mask="url(#mask1_0_350)">
<path fill-rule="evenodd" clip-rule="evenodd" d="M12.3276 32.5154C6.30618 32.5154 1.40625 27.6155 1.40625 21.594C1.40625 15.5726 6.30618 10.6727 12.3276 10.6727C18.349 10.6727 23.249 15.5726 23.249 21.594C23.249 27.6155 18.349 32.5154 12.3276 32.5154ZM0 21.594C0 28.3921 5.52953 33.9216 12.3276 33.9216C19.1257 33.9216 24.6552 28.3921 24.6552 21.594C24.6552 14.7959 19.1257 9.2664 12.3276 9.2664C5.52953 9.2664 0 14.7959 0 21.594Z" fill="#AF8E2F"/>
<path fill-rule="evenodd" clip-rule="evenodd" d="M12.3279 29.6973C7.85252 29.6973 4.22461 26.0693 4.22461 21.594C4.22461 17.1186 7.85252 13.4906 12.3279 13.4906C16.8033 13.4906 20.4312 17.1186 20.4312 21.594C20.4312 26.0693 16.8033 29.6973 12.3279 29.6973ZM2.81836 21.594C2.81836 26.8459 7.07586 31.1035 12.3279 31.1035C17.5799 31.1035 21.8375 26.8459 21.8375 21.594C21.8375 16.342 17.5799 12.0844 12.3279 12.0844C7.07586 12.0844 2.81836 16.342 2.81836 21.594Z" fill="#AF8E2F"/>
<path fill-rule="evenodd" clip-rule="evenodd" d="M16.0668 18.878C15.7876 19.1556 15.3332 19.1556 15.0539 18.878C14.777 18.6026 14.777 18.1579 15.0539 17.8826C15.3332 17.605 15.7876 17.605 16.0668 17.8826M16.0669 18.878C16.3438 18.6026 16.3438 18.1579 16.0669 17.8826V18.878ZM14.0625 19.8752C14.8902 20.6982 16.2306 20.6982 17.0583 19.8752L17.0583 19.8752C17.8883 19.05 17.8883 17.7105 17.0583 16.8853L17.0583 16.8853C16.2306 16.0624 14.8902 16.0624 14.0625 16.8853C13.2324 17.7105 13.2324 19.0501 14.0625 19.8752Z" fill="#AF8E2F"/>
<path fill-rule="evenodd" clip-rule="evenodd" d="M10.2206 25.3912C9.94139 25.6688 9.48697 25.6688 9.20773 25.3912C8.93076 25.1158 8.93076 24.6711 9.20773 24.3958C9.48697 24.1182 9.94139 24.1182 10.2206 24.3957M10.2207 25.3912C10.4976 25.1158 10.4976 24.6711 10.2207 24.3958V25.3912ZM8.21627 26.3884C9.04403 27.2113 10.3844 27.2113 11.2121 26.3884L11.2122 26.3884C12.0421 25.5632 12.0421 24.2237 11.2122 23.3985L11.2121 23.3985C10.3844 22.5756 9.04403 22.5756 8.21627 23.3985C7.38624 24.2237 7.38624 25.5632 8.21627 26.3884Z" fill="#AF8E2F"/>
<path fill-rule="evenodd" clip-rule="evenodd" d="M16.5821 25.8236C16.8559 25.5482 16.8546 25.103 16.5792 24.8292L9.0675 17.3614C8.79211 17.0876 8.34692 17.0889 8.07314 17.3643C7.79936 17.6397 7.80066 18.0849 8.07605 18.3587L15.5877 25.8265C15.8631 26.1003 16.3083 26.099 16.5821 25.8236Z" fill="#AF8E2F"/>
<path d="M28.4653 24.9321C28.0771 24.9321 27.7622 25.2469 27.7622 25.6353C27.7622 26.0236 28.0771 26.3384 28.4653 26.3384C28.8537 26.3384 29.1685 26.0236 29.1685 25.6353C29.1685 25.2469 28.8537 24.9321 28.4653 24.9321Z" fill="#AF8E2F"/>
</g>
</svg>
