<svg width="40" height="40" viewBox="0 0 40 40" fill="none" xmlns="http://www.w3.org/2000/svg">
<circle opacity="0.2" cx="20" cy="20" r="20" fill="url(#paint0_linear_762_125)"/>
<path d="M28.3693 22.0175C28.1754 21.8682 27.9496 21.7658 27.7095 21.7182C27.4694 21.6707 27.2216 21.6794 26.9854 21.7436L23.1601 22.6195C23.3253 22.337 23.4123 22.0157 23.4122 21.6885C23.4122 21.1948 23.2161 20.7212 22.8669 20.372C22.5177 20.0229 22.0442 19.8267 21.5504 19.8267H17.6669C17.3815 19.8259 17.0988 19.8817 16.8352 19.9909C16.5715 20.1001 16.3321 20.2605 16.1309 20.4628L14.2846 22.3092H11.9309C11.684 22.3092 11.4472 22.4072 11.2727 22.5818C11.0981 22.7564 11 22.9932 11 23.2401V26.3431C11 26.59 11.0981 26.8268 11.2727 27.0014C11.4472 27.176 11.684 27.274 11.9309 27.274H19.9989C20.025 27.2742 20.0511 27.2711 20.0764 27.2647L25.0413 26.0235C25.0572 26.0194 25.0727 26.0142 25.0879 26.008L28.0994 24.7249L28.1164 24.7171C28.3591 24.5958 28.5668 24.4148 28.7202 24.191C28.8735 23.9673 28.9674 23.7082 28.9929 23.4381C29.0184 23.168 28.9748 22.8959 28.8661 22.6474C28.7574 22.3989 28.5873 22.1821 28.3717 22.0175H28.3693ZM11.6206 26.3431V23.2401C11.6206 23.1578 11.6533 23.0788 11.7115 23.0207C11.7697 22.9625 11.8486 22.9298 11.9309 22.9298H14.1031V26.6534H11.9309C11.8486 26.6534 11.7697 26.6207 11.7115 26.5625C11.6533 26.5044 11.6206 26.4254 11.6206 26.3431ZM27.8441 24.1578L24.8644 25.4277L19.9608 26.6534H14.7237V22.7482L16.57 20.9019C16.7137 20.7574 16.8846 20.6427 17.0729 20.5647C17.2612 20.4867 17.4631 20.4468 17.6669 20.4473H21.5504C21.8796 20.4473 22.1953 20.5781 22.4281 20.8109C22.6608 21.0436 22.7916 21.3594 22.7916 21.6885C22.7916 22.0177 22.6608 22.3335 22.4281 22.5662C22.1953 22.799 21.8796 22.9298 21.5504 22.9298H19.3782C19.2959 22.9298 19.217 22.9625 19.1588 23.0207C19.1006 23.0788 19.0679 23.1578 19.0679 23.2401C19.0679 23.3224 19.1006 23.4013 19.1588 23.4595C19.217 23.5177 19.2959 23.5504 19.3782 23.5504H21.8607C21.8842 23.5505 21.9076 23.5479 21.9305 23.5426L27.1281 22.3472H27.1405C27.3734 22.2854 27.6209 22.3119 27.8355 22.4214C28.0501 22.531 28.2167 22.716 28.3033 22.9408C28.3898 23.1657 28.3903 23.4146 28.3045 23.6398C28.2188 23.865 28.0529 24.0506 27.8387 24.1609L27.8441 24.1578ZM23.4122 17.9649C23.6412 17.9654 23.8691 17.934 24.0895 17.8718C24.195 18.358 24.4443 18.8013 24.8049 19.1441C25.1655 19.4869 25.6208 19.7135 26.1118 19.7944C26.6027 19.8753 27.1066 19.8068 27.5581 19.5977C28.0097 19.3887 28.388 19.0489 28.644 18.6222C28.9 18.1956 29.0219 17.7019 28.9938 17.2051C28.9658 16.7083 28.7892 16.2315 28.4868 15.8363C28.1844 15.4412 27.7703 15.146 27.2981 14.9891C26.8259 14.8323 26.3175 14.8209 25.8388 14.9565C25.7396 14.4987 25.5128 14.0783 25.1848 13.744C24.8568 13.4096 24.4408 13.1749 23.985 13.0669C23.5292 12.9589 23.0522 12.9821 22.609 13.1337C22.1658 13.2854 21.7746 13.5593 21.4805 13.9239C21.1864 14.2885 21.0015 14.7289 20.9471 15.1941C20.8927 15.6593 20.971 16.1305 21.173 16.5531C21.375 16.9757 21.6925 17.3325 22.0887 17.5823C22.485 17.8322 22.9438 17.9648 23.4122 17.9649ZM28.3771 17.3443C28.3771 17.7125 28.2679 18.0725 28.0633 18.3787C27.8587 18.6848 27.568 18.9235 27.2278 19.0644C26.8876 19.2053 26.5132 19.2422 26.152 19.1703C25.7909 19.0985 25.4591 18.9212 25.1988 18.6608C24.9384 18.4004 24.761 18.0687 24.6892 17.7075C24.6174 17.3463 24.6542 16.972 24.7952 16.6318C24.9361 16.2916 25.1747 16.0008 25.4809 15.7962C25.7871 15.5916 26.147 15.4824 26.5153 15.4824C27.0091 15.4824 27.4826 15.6786 27.8318 16.0278C28.1809 16.3769 28.3771 16.8505 28.3771 17.3443ZM23.4122 13.6206C23.8584 13.6206 24.2899 13.7808 24.6279 14.0721C24.9659 14.3634 25.1881 14.7665 25.2539 15.2078C24.8974 15.4176 24.599 15.7131 24.3857 16.0675C24.1725 16.4219 24.0512 16.824 24.0328 17.2372C23.7771 17.3279 23.5047 17.3616 23.2346 17.3359C22.9646 17.3103 22.7034 17.226 22.4693 17.0888C22.2352 16.9516 22.034 16.765 21.8796 16.5419C21.7252 16.3188 21.6215 16.0647 21.5756 15.7973C21.5297 15.53 21.5428 15.2558 21.614 14.994C21.6851 14.7322 21.8127 14.4891 21.9876 14.2818C22.1626 14.0744 22.3807 13.9078 22.6268 13.7936C22.8729 13.6794 23.1409 13.6204 23.4122 13.6206Z" fill="#1D478E"/>
<defs>
<linearGradient id="paint0_linear_762_125" x1="0" y1="20" x2="40" y2="20" gradientUnits="userSpaceOnUse">
<stop stop-color="#8FD1EC"/>
<stop offset="1" stop-color="#229ACE"/>
</linearGradient>
</defs>
</svg>
