<svg width="36" height="36" viewBox="0 0 36 36" fill="none" xmlns="http://www.w3.org/2000/svg">
<mask id="mask0_6_526" style="mask-type:luminance" maskUnits="userSpaceOnUse" x="0" y="0" width="36" height="36">
<path d="M3.14722e-06 36L36 36L36 -3.14722e-06L0 0L3.14722e-06 36Z" fill="white"/>
</mask>
<g mask="url(#mask0_6_526)">
<path fill-rule="evenodd" clip-rule="evenodd" d="M28.4651 12.801C28.8534 12.801 29.1682 13.1158 29.1682 13.5042L29.1682 19.743L35.2967 19.743C35.5768 19.743 35.8302 19.9093 35.9417 20.1663C36.0532 20.4234 36.0014 20.7221 35.81 20.9266L23.8547 33.6989C23.7218 33.8409 23.536 33.9215 23.3414 33.9215C23.1469 33.9215 22.961 33.8409 22.8281 33.6989L15.5296 25.9019C15.2643 25.6184 15.279 25.1735 15.5625 24.9081C15.846 24.6427 16.2909 24.6574 16.5563 24.9409L23.3414 32.1895L33.6754 21.1492L28.4651 21.1492C28.0768 21.1492 27.762 20.8344 27.762 20.4461L27.762 13.5042C27.762 13.1158 28.0768 12.801 28.4651 12.801Z" fill="#AF8E2F"/>
</g>
<path fill-rule="evenodd" clip-rule="evenodd" d="M17.5171 4.38818C17.5171 3.99986 17.8319 3.68506 18.2202 3.68506L28.4655 3.68506C28.8538 3.68506 29.1686 3.99986 29.1686 4.38818L29.1686 7.17601C29.1686 7.56433 28.8538 7.87913 28.4655 7.87913C28.0771 7.87913 27.7623 7.56433 27.7623 7.17601L27.7623 5.09131L18.2202 5.09131C17.8319 5.09131 17.5171 4.77651 17.5171 4.38818Z" fill="#AF8E2F"/>
<mask id="mask1_6_526" style="mask-type:luminance" maskUnits="userSpaceOnUse" x="0" y="0" width="36" height="36">
<path d="M3.14722e-06 36L36 36L36 -3.14722e-06L0 0L3.14722e-06 36Z" fill="white"/>
</mask>
<g mask="url(#mask1_6_526)">
<path fill-rule="evenodd" clip-rule="evenodd" d="M12.3276 3.48438C6.30618 3.48438 1.40625 8.38431 1.40625 14.4058C1.40625 20.4272 6.30618 25.3271 12.3276 25.3271C18.3491 25.3271 23.249 20.4272 23.249 14.4058C23.249 8.38431 18.349 3.48438 12.3276 3.48438ZM1.07642e-06 14.4058C4.82826e-07 7.60766 5.52953 2.07812 12.3276 2.07812C19.1257 2.07812 24.6552 7.60766 24.6552 14.4058C24.6552 21.2038 19.1257 26.7334 12.3276 26.7334C5.52953 26.7334 1.67001e-06 21.2038 1.07642e-06 14.4058Z" fill="#AF8E2F"/>
<path fill-rule="evenodd" clip-rule="evenodd" d="M12.3279 6.30249C7.85252 6.30249 4.22461 9.93047 4.22461 14.4058C4.22461 18.8812 7.85252 22.5091 12.3279 22.5091C16.8033 22.5091 20.4312 18.8811 20.4312 14.4058C20.4312 9.93047 16.8033 6.30249 12.3279 6.30249ZM2.81836 14.4058C2.81836 9.15382 7.07586 4.89624 12.3279 4.89624C17.5799 4.89624 21.8375 9.15382 21.8375 14.4058C21.8375 19.6578 17.5799 23.9154 12.3279 23.9154C7.07586 23.9154 2.81836 19.6578 2.81836 14.4058Z" fill="#AF8E2F"/>
<path fill-rule="evenodd" clip-rule="evenodd" d="M16.0668 17.1218C15.7876 16.8442 15.3332 16.8442 15.0539 17.1218C14.777 17.3971 14.777 17.8418 15.0539 18.1172C15.3332 18.3948 15.7876 18.3948 16.0668 18.1172M16.0669 17.1218C16.3438 17.3971 16.3438 17.8418 16.0669 18.1172L16.0669 17.1218ZM14.0625 16.1245C14.8902 15.3016 16.2306 15.3016 17.0583 16.1245L17.0583 16.1245C17.8883 16.9497 17.8883 18.2892 17.0583 19.1144L17.0583 19.1144C16.2306 19.9374 14.8902 19.9374 14.0625 19.1144C13.2324 18.2893 13.2324 16.9497 14.0625 16.1245Z" fill="#AF8E2F"/>
<path fill-rule="evenodd" clip-rule="evenodd" d="M10.2206 10.6086C9.94139 10.331 9.48697 10.331 9.20773 10.6086C8.93076 10.884 8.93076 11.3286 9.20773 11.604C9.48697 11.8816 9.94139 11.8816 10.2206 11.604M10.2207 10.6086C10.4976 10.884 10.4976 11.3286 10.2207 11.604L10.2207 10.6086ZM8.21627 9.61133C9.04403 8.78841 10.3844 8.78841 11.2121 9.61133L11.2122 9.61136C12.0421 10.4365 12.0421 11.7761 11.2122 12.6012L11.2121 12.6013C10.3844 13.4242 9.04403 13.4242 8.21628 12.6013C7.38624 11.7761 7.38624 10.4365 8.21627 9.61133Z" fill="#AF8E2F"/>
<path fill-rule="evenodd" clip-rule="evenodd" d="M16.5821 10.1761C16.8559 10.4515 16.8546 10.8967 16.5792 11.1705L9.0675 18.6383C8.79211 18.9121 8.34692 18.9108 8.07314 18.6354C7.79936 18.36 7.80066 17.9149 8.07605 17.6411L15.5877 10.1732C15.8631 9.89945 16.3083 9.90076 16.5821 10.1761Z" fill="#AF8E2F"/>
<path d="M28.4653 11.0676C28.0771 11.0676 27.7622 10.7528 27.7622 10.3645C27.7622 9.97617 28.0771 9.66138 28.4653 9.66138C28.8537 9.66138 29.1685 9.97617 29.1685 10.3645C29.1685 10.7528 28.8537 11.0676 28.4653 11.0676Z" fill="#AF8E2F"/>
</g>
</svg>
