<svg width="128" height="57" viewBox="0 0 128 57" fill="none" xmlns="http://www.w3.org/2000/svg">
<path d="M120 1H8C3.58172 1 0 4.58172 0 9V49C0 53.4183 3.58172 57 8 57H120C124.418 57 128 53.4183 128 49V9C128 4.58172 124.418 1 120 1Z" fill="#1D478E"/>
<path opacity="0.224" d="M119.999 56.999H7.99902C5.8781 56.9964 3.84481 56.153 2.34509 54.6533C0.845375 53.1536 0.00166963 51.1199 -0.000976562 48.999V8.99902C0.00140555 6.87802 0.845074 4.84499 2.34485 3.34521C3.84462 1.84544 5.87802 1.00141 7.99902 0.999023H80.6731C80.7461 4.15395 81.1772 7.2905 81.958 10.3481C82.7032 13.2256 83.8146 15.9958 85.265 18.5903C86.7505 21.2559 88.5945 23.7052 90.7451 25.8701C92.887 28.003 95.3164 29.826 97.963 31.2861C100.665 32.7826 103.554 33.9144 106.553 34.6514C113.631 36.3215 121.021 36.1232 127.999 34.0762V48.998C127.997 51.1191 127.153 53.1529 125.653 54.6528C124.154 56.1528 122.12 56.9964 119.999 56.999ZM116.156 20.3594C113.778 20.3862 111.42 19.9294 109.224 19.0171C107.083 18.0861 105.161 16.714 103.586 14.9902C101.999 13.2558 100.786 11.2134 100.022 8.99023C99.1529 6.41194 98.6808 3.71632 98.6221 0.996094H120.001C122.122 0.998476 124.156 1.84202 125.655 3.3418C127.155 4.84157 127.999 6.87509 128.001 8.99609V16.0483C127.138 16.8038 126.196 17.464 125.191 18.0181C122.429 19.5586 119.318 20.3649 116.156 20.3594Z" fill="#5BC4F0"/>
</svg>
