<svg width="318" height="236" viewBox="0 0 318 236" fill="none" xmlns="http://www.w3.org/2000/svg">
<g opacity="0.54">
<path d="M101.304 126.669C102.039 126.669 102.634 126.072 102.634 125.335C102.634 124.598 102.039 124 101.304 124C100.569 124 99.9739 124.598 99.9739 125.335C99.9739 126.072 100.569 126.669 101.304 126.669Z" fill="#161742"/>
</g>
<g opacity="0.54">
<path d="M212.544 137.887C212.899 137.887 213.187 137.598 213.187 137.241C213.187 136.885 212.899 136.596 212.544 136.596C212.189 136.596 211.901 136.885 211.901 137.241C211.901 137.598 212.189 137.887 212.544 137.887Z" fill="#161742"/>
<path d="M232.964 120.679C233.368 120.679 233.697 120.349 233.697 119.943C233.697 119.537 233.368 119.208 232.964 119.208C232.559 119.208 232.231 119.537 232.231 119.943C232.231 120.349 232.559 120.679 232.964 120.679Z" fill="#161742"/>
<path d="M231.058 133.808C231.437 133.808 231.744 133.499 231.744 133.119C231.744 132.738 231.437 132.43 231.058 132.43C230.679 132.43 230.372 132.738 230.372 133.119C230.372 133.499 230.679 133.808 231.058 133.808Z" fill="#161742"/>
<path d="M213.424 107.121C213.911 107.121 214.305 106.725 214.305 106.237C214.305 105.749 213.911 105.354 213.424 105.354C212.938 105.354 212.544 105.749 212.544 106.237C212.544 106.725 212.938 107.121 213.424 107.121Z" fill="#161742"/>
<path d="M240.545 129.953C241.031 129.953 241.425 129.558 241.425 129.07C241.425 128.582 241.031 128.186 240.545 128.186C240.059 128.186 239.664 128.582 239.664 129.07C239.664 129.558 240.059 129.953 240.545 129.953Z" fill="#161742"/>
<path d="M220.513 133.806C220.981 133.806 221.36 133.425 221.36 132.956C221.36 132.487 220.981 132.106 220.513 132.106C220.045 132.106 219.666 132.487 219.666 132.956C219.666 133.425 220.045 133.806 220.513 133.806Z" fill="#161742"/>
<path d="M207.476 125.552C207.886 125.552 208.218 125.219 208.218 124.808C208.218 124.396 207.886 124.063 207.476 124.063C207.066 124.063 206.734 124.396 206.734 124.808C206.734 125.219 207.066 125.552 207.476 125.552Z" fill="#161742"/>
</g>
<g opacity="0.54">
<path d="M60.8595 142.748C61.2146 142.748 61.5025 142.459 61.5025 142.102C61.5025 141.746 61.2146 141.457 60.8595 141.457C60.5043 141.457 60.2164 141.746 60.2164 142.102C60.2164 142.459 60.5043 142.748 60.8595 142.748Z" fill="#161742"/>
<path d="M79.3742 138.665C79.7531 138.665 80.0603 138.357 80.0603 137.977C80.0603 137.596 79.7531 137.288 79.3742 137.288C78.9953 137.288 78.6881 137.596 78.6881 137.977C78.6881 138.357 78.9953 138.665 79.3742 138.665Z" fill="#161742"/>
<path d="M68.829 138.666C69.2967 138.666 69.6757 138.286 69.6757 137.817C69.6757 137.348 69.2967 136.967 68.829 136.967C68.3614 136.967 67.9823 137.348 67.9823 137.817C67.9823 138.286 68.3614 138.666 68.829 138.666Z" fill="#161742"/>
<path d="M55.7923 130.413C56.2021 130.413 56.5344 130.08 56.5344 129.669C56.5344 129.258 56.2021 128.924 55.7923 128.924C55.3825 128.924 55.0503 129.258 55.0503 129.669C55.0503 130.08 55.3825 130.413 55.7923 130.413Z" fill="#161742"/>
</g>
<g opacity="0.54">
<path d="M192.838 126.583C193.239 126.583 193.565 126.256 193.565 125.854C193.565 125.451 193.239 125.125 192.838 125.125C192.437 125.125 192.111 125.451 192.111 125.854C192.111 126.256 192.437 126.583 192.838 126.583Z" fill="#161742"/>
<path d="M158.278 170.816C158.633 170.816 158.921 170.527 158.921 170.17C158.921 169.813 158.633 169.524 158.278 169.524C157.923 169.524 157.635 169.813 157.635 170.17C157.635 170.527 157.923 170.816 158.278 170.816Z" fill="#161742"/>
<path d="M192.838 142.099C193.242 142.099 193.57 141.77 193.57 141.364C193.57 140.958 193.242 140.628 192.838 140.628C192.433 140.628 192.105 140.958 192.105 141.364C192.105 141.77 192.433 142.099 192.838 142.099Z" fill="#161742"/>
<path d="M190.931 155.228C191.31 155.228 191.617 154.92 191.617 154.54C191.617 154.159 191.31 153.851 190.931 153.851C190.552 153.851 190.245 154.159 190.245 154.54C190.245 154.92 190.552 155.228 190.931 155.228Z" fill="#161742"/>
<path d="M152.737 144.471C153.224 144.471 153.618 144.076 153.618 143.588C153.618 143.1 153.224 142.704 152.737 142.704C152.251 142.704 151.857 143.1 151.857 143.588C151.857 144.076 152.251 144.471 152.737 144.471Z" fill="#161742"/>
<path d="M209.304 133.679C209.616 133.679 209.87 133.425 209.87 133.111C209.87 132.797 209.616 132.542 209.304 132.542C208.991 132.542 208.738 132.797 208.738 133.111C208.738 133.425 208.991 133.679 209.304 133.679Z" fill="#161742"/>
<path d="M179.539 97.7028C179.951 97.7028 180.284 97.3681 180.284 96.9552C180.284 96.5422 179.951 96.2075 179.539 96.2075C179.128 96.2075 178.794 96.5422 178.794 96.9552C178.794 97.3681 179.128 97.7028 179.539 97.7028Z" fill="#161742"/>
<path d="M196.904 100.694C197.222 100.694 197.479 100.435 197.479 100.116C197.479 99.7967 197.222 99.5381 196.904 99.5381C196.586 99.5381 196.329 99.7967 196.329 100.116C196.329 100.435 196.586 100.694 196.904 100.694Z" fill="#161742"/>
<path d="M144.078 198.063C144.355 198.063 144.579 197.837 144.579 197.559C144.579 197.281 144.355 197.056 144.078 197.056C143.801 197.056 143.576 197.281 143.576 197.559C143.576 197.837 143.801 198.063 144.078 198.063Z" fill="#161742"/>
<path d="M200.417 151.374C200.904 151.374 201.298 150.979 201.298 150.491C201.298 150.003 200.904 149.607 200.417 149.607C199.931 149.607 199.537 150.003 199.537 150.491C199.537 150.979 199.931 151.374 200.417 151.374Z" fill="#161742"/>
<path d="M145.498 165.167C145.966 165.167 146.345 164.787 146.345 164.318C146.345 163.849 145.966 163.468 145.498 163.468C145.03 163.468 144.651 163.849 144.651 164.318C144.651 164.787 145.03 165.167 145.498 165.167Z" fill="#161742"/>
<path d="M123.345 171.561C123.755 171.561 124.087 171.228 124.087 170.816C124.087 170.405 123.755 170.072 123.345 170.072C122.935 170.072 122.603 170.405 122.603 170.816C122.603 171.228 122.935 171.561 123.345 171.561Z" fill="#161742"/>
</g>
<g opacity="0.54">
<path d="M171.209 102.902C171.611 102.902 171.936 102.575 171.936 102.172C171.936 101.77 171.611 101.443 171.209 101.443C170.808 101.443 170.483 101.77 170.483 102.172C170.483 102.575 170.808 102.902 171.209 102.902Z" fill="#161742"/>
<path d="M194.739 103.948C195.21 103.948 195.592 103.565 195.592 103.092C195.592 102.619 195.21 102.236 194.739 102.236C194.268 102.236 193.886 102.619 193.886 103.092C193.886 103.565 194.268 103.948 194.739 103.948Z" fill="#161742"/>
<path d="M150.789 135.626C151.144 135.626 151.432 135.337 151.432 134.981C151.432 134.624 151.144 134.335 150.789 134.335C150.434 134.335 150.146 134.624 150.146 134.981C150.146 135.337 150.434 135.626 150.789 135.626Z" fill="#161742"/>
<path d="M185.259 123.974C185.664 123.974 185.992 123.644 185.992 123.238C185.992 122.832 185.664 122.503 185.259 122.503C184.854 122.503 184.526 122.832 184.526 123.238C184.526 123.644 184.854 123.974 185.259 123.974Z" fill="#161742"/>
<path d="M169.3 131.547C169.679 131.547 169.986 131.239 169.986 130.858C169.986 130.478 169.679 130.169 169.3 130.169C168.921 130.169 168.614 130.478 168.614 130.858C168.614 131.239 168.921 131.547 169.3 131.547Z" fill="#161742"/>
<path d="M151.67 104.86C152.156 104.86 152.55 104.464 152.55 103.976C152.55 103.488 152.156 103.093 151.67 103.093C151.183 103.093 150.789 103.488 150.789 103.976C150.789 104.464 151.183 104.86 151.67 104.86Z" fill="#161742"/>
<path d="M161.366 98.3573C161.948 98.3573 162.419 97.8843 162.419 97.3007C162.419 96.7172 161.948 96.2441 161.366 96.2441C160.784 96.2441 160.313 96.7172 160.313 97.3007C160.313 97.8843 160.784 98.3573 161.366 98.3573Z" fill="#161742"/>
<path d="M187.676 109.998C187.988 109.998 188.242 109.744 188.242 109.43C188.242 109.116 187.988 108.861 187.676 108.861C187.363 108.861 187.109 109.116 187.109 109.43C187.109 109.744 187.363 109.998 187.676 109.998Z" fill="#161742"/>
<path d="M157.911 74.0217C158.322 74.0217 158.656 73.6869 158.656 73.274C158.656 72.8611 158.322 72.5264 157.911 72.5264C157.499 72.5264 157.166 72.8611 157.166 73.274C157.166 73.6869 157.499 74.0217 157.911 74.0217Z" fill="#161742"/>
<path d="M175.277 77.0124C175.595 77.0124 175.852 76.7537 175.852 76.4347C175.852 76.1156 175.595 75.8569 175.277 75.8569C174.959 75.8569 174.702 76.1156 174.702 76.4347C174.702 76.7537 174.959 77.0124 175.277 77.0124Z" fill="#161742"/>
<path d="M148.385 86.4212C148.662 86.4212 148.886 86.1958 148.886 85.9176C148.886 85.6395 148.662 85.4141 148.385 85.4141C148.108 85.4141 147.883 85.6395 147.883 85.9176C147.883 86.1958 148.108 86.4212 148.385 86.4212Z" fill="#161742"/>
<path d="M178.79 127.693C179.277 127.693 179.671 127.297 179.671 126.809C179.671 126.321 179.277 125.926 178.79 125.926C178.304 125.926 177.91 126.321 177.91 126.809C177.91 127.297 178.304 127.693 178.79 127.693Z" fill="#161742"/>
<path d="M158.758 131.545C159.226 131.545 159.605 131.165 159.605 130.695C159.605 130.226 159.226 129.846 158.758 129.846C158.29 129.846 157.911 130.226 157.911 130.695C157.911 131.165 158.29 131.545 158.758 131.545Z" fill="#161742"/>
<path d="M145.722 123.292C146.131 123.292 146.464 122.958 146.464 122.547C146.464 122.136 146.131 121.802 145.722 121.802C145.312 121.802 144.979 122.136 144.979 122.547C144.979 122.958 145.312 123.292 145.722 123.292Z" fill="#161742"/>
</g>
<path d="M176.128 54.5C176.128 83.495 152.158 107 122.589 107C93.0205 107 69.0502 83.495 69.0502 54.5C69.0502 25.505 93.0205 2 122.589 2C152.158 2 176.128 25.505 176.128 54.5Z" fill="#5BC4F0" fill-opacity="0.1"/>
<path d="M301.219 145.197C305.108 147.033 307.78 149.85 309.604 153.383C311.428 149.85 314.112 147.022 318 145.186C314.112 143.35 311.428 140.533 309.604 137C307.78 140.533 305.108 143.361 301.219 145.197Z" fill="#FFD325"/>
<path d="M235.171 98.8307C238.411 100.36 240.639 102.708 242.158 105.652C243.678 102.708 245.915 100.352 249.155 98.8217C245.915 97.292 243.678 94.9439 242.158 92C240.639 94.9439 238.411 97.3009 235.171 98.8307Z" fill="#AF8E2F"/>
<path d="M97.0707 13.4127C99.3682 14.401 100.947 15.9178 102.025 17.8197C103.102 15.9178 104.688 14.3952 106.986 13.407C104.688 12.4187 103.102 10.9018 102.025 9C100.947 10.9018 99.3682 12.4244 97.0707 13.4127Z" fill="#FFD325"/>
<path d="M31.0226 134.007C35.6603 136.248 38.8478 139.687 41.023 144C43.1982 139.687 46.3995 136.235 51.0372 133.993C46.3995 131.752 43.1982 128.313 41.023 124C38.8478 128.313 35.6603 131.765 31.0226 134.007Z" fill="#FFD325"/>
<path d="M298.217 20.4645C300.809 21.6883 302.591 23.5668 303.807 25.9219C305.023 23.5668 306.812 21.6812 309.404 20.4574C306.812 19.2336 305.023 17.3552 303.807 15C302.591 17.3552 300.809 19.2407 298.217 20.4645Z" fill="#AF8E2F"/>
<path d="M0 51.4645C2.59224 52.6883 4.37393 54.5668 5.58976 56.9219C6.80559 54.5668 8.59492 52.6812 11.1872 51.4574C8.59492 50.2336 6.80559 48.3552 5.58976 46C4.37393 48.3552 2.59224 50.2407 0 51.4645Z" fill="#AF8E2F"/>
<path d="M153.922 236C223.427 236 279.772 230.842 279.772 224.48C279.772 218.118 223.427 212.96 153.922 212.96C84.4173 212.96 28.0724 218.118 28.0724 224.48C28.0724 230.842 84.4173 236 153.922 236Z" fill="#5BC4F0" fill-opacity="0.2"/>
<path d="M193.37 80.5535C194.392 81.0479 195.092 81.8043 195.574 82.7585C196.056 81.8093 196.756 81.0479 197.777 80.5535C196.756 80.0592 196.051 79.3028 195.574 78.3486C195.092 79.2978 194.392 80.0592 193.37 80.5535Z" fill="#AF8E2F"/>
<path d="M235.732 53.9719L206.111 68.247L235.732 74.3252L235.732 53.9719Z" fill="#FFD325"/>
<path d="M126.528 57.7251L157.783 66.024L126.528 74.3252L126.528 57.7251Z" fill="#FFD325"/>
<path d="M210.445 28.0648L200.954 43.3979L228.901 28.0838L210.445 28.0648Z" fill="#FFD325"/>
<path d="M164.082 28.264L171.369 40.0361L149.91 28.2783L164.082 28.264Z" fill="#FFD325"/>
<path d="M196.528 28.1784L193.678 35.8462L202.9 28.0835L196.528 28.1784Z" fill="#FFD325"/>
<path d="M170.881 28.0838L179.691 36.7954L177.645 28.0838L170.881 28.0838Z" fill="#FFD325"/>
<path d="M183.468 28.083L185.206 35.9287L191.171 28L183.468 28.083Z" fill="#FFD325"/>
<path d="M235.732 28.5941L207.711 53.9723L235.732 48.9474L235.732 28.5941Z" fill="#FFD325"/>
<path d="M198.849 38.6597H124.833C118.207 38.6597 112.835 44.0176 112.835 50.6269V212.618C112.835 219.228 118.207 224.585 124.833 224.585H198.849C205.475 224.585 210.847 219.228 210.847 212.618V50.6269C210.847 44.0176 205.475 38.6597 198.849 38.6597Z" fill="#1C004F"/>
<g clip-path="url(#clip0_3_5248)">
<path d="M199.566 43.2632H124.127C120.241 43.2632 117.091 46.4052 117.091 50.2811V212.95C117.091 216.826 120.241 219.968 124.127 219.968H199.566C203.452 219.968 206.602 216.826 206.602 212.95V50.2811C206.602 46.4052 203.452 43.2632 199.566 43.2632Z" fill="white"/>
<path opacity="0.6" d="M273.138 174.347L164.015 305.571L50.4255 174.347C48.8852 171.451 49.1171 167.741 50.9422 165.014C52.7674 162.287 56.1493 160.685 59.4187 160.999C57.0503 157.769 56.6131 153.228 58.3223 149.608C60.0315 145.984 63.8142 143.432 67.8156 143.2C71.817 142.969 75.8681 145.067 77.9847 148.469C77.3454 145.289 79.5581 141.804 82.7115 141.029C85.8649 140.251 89.4423 142.31 90.3565 145.421C90.1313 140.318 93.4702 135.111 98.3759 133.662C103.278 132.212 109.201 135.115 110.619 140.023C111.675 137.435 114.06 135.433 116.79 134.83C119.522 134.231 122.795 134.963 124.839 136.869C124.544 131.077 128.274 125.295 133.676 123.177C139.082 121.059 145.372 122.681 149.099 127.129C149.016 120.059 149.437 111.928 151.573 106H172.286C175.051 112.398 175.585 119.977 176.661 126.897C177.407 124.65 179.56 122.684 181.713 121.694C186.141 119.659 191.7 120.364 195.482 123.438C199.262 126.51 201.084 131.805 199.994 136.551C200.703 134.373 203.435 132.715 205.728 132.672C208.02 132.629 210.236 133.94 211.501 135.85C212.763 137.763 213.118 140.198 212.684 142.446C213.889 139.03 216.993 135.906 220.392 134.648C223.79 133.39 227.861 133.933 230.647 136.25C233.433 138.567 234.695 142.648 233.466 146.053C237.162 142.184 242.323 139.728 247.669 139.987C253.016 140.245 258.196 142.922 261.499 147.129C264.801 151.335 266.169 156.998 265.152 162.247C267.951 161.327 271.307 162.714 272.827 165.236C274.351 167.758 274.417 171.693 273.138 174.347Z" fill="#5BC4F0" fill-opacity="0.3"/>
</g>
<path d="M102.721 188.942C102.569 188.1 102.339 187.267 102.079 186.442L103.424 193.763C103.207 192.153 103.012 190.538 102.721 188.942Z" fill="#32B353"/>
<path d="M106.727 204.798L104.756 194.097C104.873 194.939 104.994 195.776 105.116 196.605C104.929 195.564 104.782 194.518 104.643 193.472L103.262 185.978C102.754 184.381 102.125 182.806 101.634 181.213C99.8805 175.541 98.0094 169.904 96.0125 164.311C95.2354 162.137 94.4106 159.915 92.9042 158.171C92.622 160.531 92.8174 162.562 92.8304 163.456C92.8521 165.344 92.9259 167.231 93.0561 169.115C93.2558 172.061 93.6899 174.977 94.1024 177.898C94.5018 180.727 94.4106 183.66 94.7145 186.538C94.6798 186.451 94.6407 186.368 94.606 186.286L99.4638 203.7C100.05 203.865 100.671 203.956 101.27 204.039C103.089 204.29 104.908 204.546 106.727 204.798Z" fill="#32B353"/>
<path d="M102.365 207.089C102.222 207.089 102.1 206.981 102.087 206.838C101.406 199.473 99.7301 192.127 98.1108 185.019C96.5567 178.197 94.9461 171.146 94.2125 164.072C94.1951 163.92 94.308 163.782 94.4599 163.768C94.6119 163.751 94.7508 163.864 94.7638 164.016C95.4931 171.054 97.0994 178.093 98.6492 184.897C100.273 192.023 101.953 199.391 102.639 206.79C102.652 206.942 102.539 207.076 102.387 207.094C102.378 207.094 102.37 207.094 102.361 207.094L102.365 207.089Z" fill="#161742"/>
<path d="M87.0233 176.89C89.8581 182.21 92.2197 187.782 94.0778 193.519C94.5683 195.029 95.0155 196.556 95.5798 198.04C96.053 199.299 97.4465 201.143 97.4075 202.389C97.5073 202.467 97.6202 202.545 97.733 202.623C97.8416 202.697 97.9458 202.775 98.0456 202.857C98.5362 203.274 99.1222 203.53 99.743 203.703L94.8852 186.289C93.2833 182.466 90.5093 179.142 87.0277 176.894L87.0233 176.89Z" fill="#32B353"/>
<path d="M96.9355 198.866C96.8226 198.866 96.714 198.796 96.675 198.679L91.4959 184.111C91.4438 183.968 91.522 183.808 91.6652 183.756C91.8085 183.703 91.9691 183.782 92.0212 183.925L97.2003 198.492C97.2524 198.636 97.1742 198.796 97.031 198.848C97.0006 198.861 96.9702 198.866 96.9398 198.866H96.9355Z" fill="#161742"/>
<path d="M115.992 198.114L116.959 192.564C116.525 194.395 116.204 196.248 115.992 198.114Z" fill="#32B353"/>
<path d="M116.301 142.834C110.996 158.595 108.608 175.332 109.294 191.948C109.238 191.34 109.177 190.728 109.12 190.121L110.08 205.452C110.892 205.565 111.703 205.678 112.511 205.79C113.231 205.89 113.982 205.981 114.734 206.029L116.058 198.426C116.644 189.283 118.185 180.218 118.884 171.075C119.609 161.584 119.383 151.842 116.301 142.834Z" fill="#32B353"/>
<path d="M110.362 214.457C110.332 214.457 110.306 214.453 110.275 214.444C110.128 214.396 110.049 214.24 110.097 214.092C111.973 208.265 112.342 202.046 112.698 196.036L115.268 152.694C115.276 152.542 115.411 152.42 115.563 152.433C115.715 152.442 115.832 152.572 115.823 152.728L113.253 196.071C112.893 202.116 112.524 208.369 110.627 214.266C110.588 214.383 110.479 214.457 110.362 214.457Z" fill="#161742"/>
<path d="M109.701 190.121C107.999 172.399 105.946 154.477 99.256 138C97.9363 142.314 98.3617 146.944 98.8306 151.431C100.267 165.226 102.008 180.223 103.975 194.096L105.946 204.797C107.517 205.014 109.089 205.236 110.665 205.453L109.705 190.121H109.701Z" fill="#32B353"/>
<path d="M112.101 220.454C112.018 220.454 111.94 220.419 111.884 220.354C109.969 218.024 109.514 214.795 109.145 212.205L99.9976 147.829C99.9759 147.677 100.08 147.538 100.232 147.517C100.384 147.495 100.523 147.599 100.545 147.751L109.692 212.127C110.052 214.652 110.495 217.794 112.314 220.003C112.409 220.12 112.392 220.298 112.275 220.393C112.222 220.437 112.162 220.458 112.097 220.458L112.101 220.454Z" fill="#161742"/>
<path d="M120.865 194.066C120.952 193.702 121.034 193.337 121.121 192.973L116.645 205.692C117.244 205.492 117.808 205.206 118.316 204.789C119.215 204.051 119.805 203.01 120.365 201.99C123.786 195.772 126.986 189.432 129.964 182.992C131.04 180.658 132.108 178.236 132.208 175.672C127.112 180.848 123.2 187.193 120.869 194.075L120.865 194.066Z" fill="#32B353"/>
<path d="M118.28 206.547C118.25 206.547 118.215 206.542 118.185 206.529C118.041 206.477 117.968 206.317 118.02 206.173C121.145 197.629 124.77 189.154 128.781 180.987C128.851 180.848 129.016 180.792 129.155 180.861C129.294 180.931 129.35 181.096 129.281 181.235C125.274 189.384 121.662 197.842 118.541 206.369C118.502 206.481 118.393 206.551 118.28 206.551V206.547Z" fill="#161742"/>
<path d="M125.912 174.608C123.463 175.685 121.853 178.054 120.581 180.406C118.567 184.129 117.052 188.122 116.075 192.24L115.085 197.924C115.029 198.441 114.972 198.961 114.933 199.482C114.955 199.131 114.976 198.779 114.998 198.423L113.674 206.026C114.885 206.1 116.092 206.043 117.177 205.683L121.653 192.964C123.073 186.846 124.497 180.723 125.916 174.604L125.912 174.608Z" fill="#32B353"/>
<path d="M116.606 204.177C116.606 204.177 116.58 204.177 116.567 204.177C116.415 204.155 116.31 204.016 116.328 203.865C117.483 195.476 119.714 187.258 122.957 179.438C123.018 179.295 123.178 179.23 123.321 179.286C123.465 179.347 123.53 179.507 123.473 179.65C120.248 187.427 118.03 195.602 116.879 203.943C116.862 204.082 116.74 204.181 116.606 204.181V204.177Z" fill="#161742"/>
<path d="M125.317 199.039L124.414 212.483L124.258 214.774L123.524 225.701H93.6524L93.0663 214.188L92.9708 212.301L92.2545 198.289L125.317 199.039Z" fill="#1D478E"/>
<g style="mix-blend-mode:multiply">
<path d="M125.314 199.039L125.132 201.765L94.5088 201.062L93.5537 223.883L92.2513 198.289L125.314 199.039Z" fill="#1D478E"/>
</g>
<path d="M106.38 225.807C106.38 227.375 94.8754 228.649 80.6924 228.649C66.5094 228.649 55.0044 227.375 55.0044 225.807C55.0044 225.779 55.01 225.75 55.0157 225.722V218.044H106.363V225.705C106.375 225.739 106.38 225.773 106.38 225.807Z" fill="#AF8E2F"/>
<path d="M80.688 220.956C94.8751 220.956 106.376 219.683 106.376 218.113C106.376 216.544 94.8751 215.271 80.688 215.271C66.5009 215.271 55 216.544 55 218.113C55 219.683 66.5009 220.956 80.688 220.956Z" fill="#FFD325"/>
<path d="M112.448 216.54C112.448 218.108 100.943 219.382 86.7599 219.382C72.5769 219.382 61.0719 218.108 61.0719 216.54C61.0719 216.511 61.0776 216.483 61.0832 216.455V208.777H112.431V216.438C112.442 216.472 112.448 216.506 112.448 216.54Z" fill="#AF8E2F"/>
<path d="M86.7555 211.693C100.943 211.693 112.444 210.42 112.444 208.85C112.444 207.28 100.943 206.008 86.7555 206.008C72.5684 206.008 61.0675 207.28 61.0675 208.85C61.0675 210.42 72.5684 211.693 86.7555 211.693Z" fill="#FFD325"/>
<path d="M107.62 206.075C107.62 207.643 96.1146 208.917 81.9315 208.917C67.7485 208.917 56.2435 207.643 56.2435 206.075C56.2435 206.046 56.2492 206.018 56.2549 205.99V198.312H107.603V205.973C107.614 206.007 107.62 206.041 107.62 206.075Z" fill="#AF8E2F"/>
<path d="M81.9315 201.223C96.1186 201.223 107.62 199.951 107.62 198.381C107.62 196.811 96.1186 195.539 81.9315 195.539C67.7444 195.539 56.2435 196.811 56.2435 198.381C56.2435 199.951 67.7444 201.223 81.9315 201.223Z" fill="#FFD325"/>
<ellipse opacity="0.4" cx="82.293" cy="197.796" rx="14.3219" ry="1.65369" fill="#AF8E2F"/>
<path d="M75.557 150.764C62.9651 154.039 55.4069 166.904 58.6821 179.502C61.9573 192.094 74.8217 199.658 87.4187 196.377C100.011 193.102 107.574 180.237 104.294 167.64C101.018 155.047 88.154 147.489 75.557 150.764ZM99.8461 168.796C101.121 173.697 100.407 178.808 97.8409 183.173C95.2752 187.543 91.167 190.649 86.2619 191.924C76.1431 194.552 65.7673 188.464 63.1348 178.34C61.8596 173.44 62.5692 168.334 65.1349 163.963C67.608 159.747 71.5259 156.703 76.2048 155.351C76.3745 155.299 76.5442 155.258 76.7138 155.212C86.6681 152.62 96.8639 158.477 99.7021 168.293C99.7484 168.457 99.7998 168.627 99.841 168.791L99.8461 168.796Z" fill="#FFD325"/>
<path d="M99.7056 168.299C99.7519 168.464 99.8033 168.633 99.8444 168.798C101.12 173.698 100.405 178.809 97.8392 183.174C95.2735 187.545 91.1653 190.651 86.2602 191.926C76.1414 194.553 65.7656 188.465 63.1331 178.341C61.8579 173.441 62.5675 168.335 65.1332 163.965C67.6063 159.748 71.5242 156.704 76.2031 155.352C76.3728 155.301 76.5425 155.259 76.7121 155.213C86.6664 152.622 96.8623 158.478 99.7004 168.294L99.7056 168.299Z" fill="#AF8E2F"/>
<path d="M65.0073 160.861C66.7943 161.726 68.0225 163.053 68.8606 164.717C69.6987 163.053 70.9322 161.721 72.7191 160.856C70.9322 159.991 69.6987 158.664 68.8606 157C68.0225 158.664 66.7943 159.997 65.0073 160.861Z" fill="#FFF3EB"/>
<path d="M87.4494 170.502C87.3615 170.415 87.2552 170.364 87.1165 170.359L84.6109 170.279C84.4715 169.465 84.1842 168.749 83.7398 168.139L87.156 168.252C87.2947 168.251 87.4056 168.214 87.498 168.131C87.5904 168.043 87.6365 167.937 87.641 167.798L87.6904 166.305C87.6949 166.167 87.6532 166.056 87.5699 165.963C87.4819 165.871 87.3709 165.825 87.2369 165.82L75.042 165.425C74.9079 165.421 74.7924 165.458 74.7 165.546C74.6123 165.629 74.5615 165.74 74.5571 165.879L74.4942 167.829C74.4897 167.954 74.5314 168.07 74.624 168.162C74.7119 168.259 74.8229 168.31 74.9477 168.31L77.0742 168.377C79.1359 168.444 80.4262 169.039 80.9497 170.162L74.8938 169.964C74.7598 169.965 74.6442 170.002 74.5519 170.085C74.4595 170.168 74.4134 170.279 74.4089 170.418L74.3595 171.911C74.3596 172.049 74.3967 172.16 74.48 172.253C74.5633 172.345 74.6743 172.391 74.813 172.396L81.0722 172.602C80.828 173.397 80.3062 173.99 79.5069 174.383C78.7075 174.777 77.663 174.954 76.3732 174.909L74.7321 174.855C74.6027 174.855 74.4918 174.897 74.3948 174.984C74.2978 175.077 74.2471 175.183 74.2426 175.308L74.1797 177.171C74.1752 177.3 74.2169 177.407 74.3002 177.499C76.1142 179.554 78.4515 182.422 81.3257 186.108C81.409 186.228 81.5293 186.288 81.6864 186.297L84.5433 186.391C84.7467 186.4 84.8946 186.317 84.9776 186.141C85.0791 185.965 85.0697 185.799 84.9355 185.637C82.2 182.044 80.0387 179.356 78.4652 177.56C80.1339 177.419 81.4971 176.923 82.5641 176.081C83.6311 175.234 84.2957 174.115 84.567 172.714L87.031 172.795C87.1651 172.795 87.2806 172.758 87.3683 172.675C87.4607 172.591 87.5068 172.48 87.5113 172.342L87.5607 170.849C87.5606 170.71 87.5235 170.599 87.4402 170.507L87.4494 170.502Z" fill="#DCB414"/>
<path d="M174.99 96.6834L179.787 104.325C180.205 104.991 179.727 105.856 178.94 105.856H145.338C144.551 105.856 144.073 104.991 144.491 104.325L149.288 96.6834V90.7766H146.849C141.987 90.7766 138.057 86.7823 138.144 81.9164C138.18 79.9936 138.221 78.1066 138.282 76.2608C138.4 72.1998 138.574 68.3234 138.805 64.6214C139.989 45.2191 142.576 30.6981 146.301 20.2996C148.33 14.6286 150.687 10.178 153.341 6.84004C155.996 3.49693 158.947 1.25623 162.139 0C168.529 2.51758 173.924 8.95255 177.977 20.2996C178.848 22.73 179.658 25.3861 180.401 28.278C182.834 37.7535 184.566 49.7569 185.473 64.6214C185.806 70.0052 186.027 75.7634 186.134 81.9164C186.221 86.7823 182.291 90.7766 177.429 90.7766H174.99V96.6834Z" fill="#FFF3EB"/>
<path d="M177.429 90.7766C182.291 90.7766 186.221 86.7823 186.134 81.9163C186.103 80.0602 186.057 78.2399 186.006 76.4556H138.272C138.221 78.2399 138.174 80.0602 138.144 81.9163C138.057 86.7823 141.987 90.7766 146.849 90.7766H149.289V96.6834H149.288L144.491 104.325C144.073 104.991 144.551 105.856 145.338 105.856H161.112H162.139H178.938C179.724 105.856 180.203 104.991 179.785 104.325L174.987 96.6834H174.986V90.7766H177.429Z" fill="#1D478E"/>
<path d="M177.975 20.2996C173.923 8.95409 168.528 2.51912 162.14 0.00102493V0L162.139 0.000512465L162.137 0V0.00102493C155.749 2.51912 150.354 8.95409 146.302 20.2996H177.975Z" fill="#1D478E"/>
<path d="M162.139 61.325C169.616 61.325 175.677 55.2597 175.677 47.7777C175.677 40.2958 169.616 34.2305 162.139 34.2305C154.663 34.2305 148.602 40.2958 148.602 47.7777C148.602 55.2597 154.663 61.325 162.139 61.325Z" fill="#1D478E"/>
<path d="M172.525 47.7776C172.525 52.0591 169.943 55.7303 166.254 57.325C164.993 57.8685 163.6 58.171 162.139 58.171C160.971 58.171 159.844 57.9762 158.799 57.6173C158.086 57.3814 157.41 57.0635 156.78 56.6789C155.888 56.1457 155.089 55.4791 154.407 54.71C153.89 54.1408 153.439 53.5102 153.065 52.8333C152.798 52.3565 152.568 51.8591 152.378 51.3361C151.974 50.2286 151.753 49.0287 151.753 47.7776C151.753 43.2809 154.602 39.4506 158.599 38.0047C159.106 37.8201 159.639 37.6714 160.182 37.5689C160.817 37.4458 161.468 37.3843 162.139 37.3843C162.257 37.3843 162.37 37.3843 162.483 37.3945C163.543 37.4253 164.563 37.6201 165.516 37.9483C166.228 38.1893 166.899 38.5072 167.53 38.8918C169.702 40.2146 171.352 42.3118 172.09 44.8037C172.377 45.7472 172.525 46.7419 172.525 47.7776Z" fill="white"/>
<path d="M174.987 90.7764H149.288" stroke="#161742" stroke-width="0.311875" stroke-miterlimit="10"/>
<path d="M174.987 96.6836H149.288" stroke="#161742" stroke-width="0.311875" stroke-miterlimit="10"/>
<path d="M186.006 76.4556H138.272" stroke="#161742" stroke-width="0.311875" stroke-miterlimit="10"/>
<path d="M140.322 47.7777C139.205 56.7713 138.482 67.1646 138.201 79.0757C131.395 81.8747 125.545 86.9844 121.902 93.3846C121.807 93.5527 121.55 93.5044 121.526 93.3125C120.37 84.0848 121.002 74.5087 124.602 65.9392C127.764 58.4172 133.256 51.7515 140.322 47.7777Z" fill="#1D478E"/>
<path d="M183.954 47.7778C185.071 56.7714 185.793 67.1648 186.075 79.0759C192.881 81.8748 198.73 86.9845 202.374 93.3847C202.469 93.5528 202.726 93.5045 202.75 93.3126C203.906 84.0849 203.274 74.5089 199.674 65.9393C196.512 58.4173 191.02 51.7516 183.954 47.7778Z" fill="#1D478E"/>
<g opacity="0.15">
<path d="M165.516 37.9483L156.779 56.6789C155.888 56.1457 155.088 55.4791 154.407 54.71L162.482 37.3945C163.543 37.4253 164.563 37.6201 165.516 37.9483Z" fill="#5BC4F0"/>
<path d="M160.181 37.5692L153.064 52.8337C152.798 52.3568 152.567 51.8595 152.378 51.3365L158.598 38.0051C159.105 37.8205 159.638 37.6718 160.181 37.5692Z" fill="#5BC4F0"/>
<path d="M172.089 44.8036L166.253 57.3248C164.993 57.8683 163.599 58.1709 162.139 58.1709C160.97 58.1709 159.843 57.976 158.798 57.6171L167.529 38.8916C169.701 40.2145 171.351 42.3116 172.089 44.8036Z" fill="#5BC4F0"/>
</g>
<path d="M228.216 175.179H194.11V167.974C194.11 164.128 197.237 161 201.081 161H221.246C225.089 161 228.216 164.129 228.216 167.974V175.179ZM197.14 172.148H225.187V167.974C225.187 165.8 223.419 164.03 221.246 164.03H201.081C198.907 164.03 197.139 165.799 197.139 167.974V172.148H197.14Z" fill="#161742"/>
<path d="M198.308 169.904H192.942C192.393 169.904 191.947 170.349 191.947 170.899V172.758C191.947 173.308 192.393 173.753 192.942 173.753H198.308C198.857 173.753 199.303 173.308 199.303 172.758V170.899C199.303 170.349 198.857 169.904 198.308 169.904Z" fill="#1D478E"/>
<path d="M229.384 169.904H224.018C223.469 169.904 223.023 170.349 223.023 170.899V172.758C223.023 173.308 223.469 173.753 224.018 173.753H229.384C229.934 173.753 230.379 173.308 230.379 172.758V170.899C230.379 170.349 229.934 169.904 229.384 169.904Z" fill="#1D478E"/>
<path d="M170.099 172.148H250.049V226.084C250.049 227.141 249.191 228 248.134 228H172.014C170.958 228 170.1 227.141 170.1 226.084V172.148H170.099Z" fill="#1D478E"/>
<g style="mix-blend-mode:multiply" opacity="0.3">
<path d="M250.049 202.216V173.806C249.884 173.771 249.712 173.753 249.537 173.753H170.611C170.436 173.753 170.264 173.771 170.099 173.806V202.217C170.174 202.233 170.251 202.245 170.328 202.254L193.153 204.871C204.397 206.161 215.751 206.161 226.994 204.871L249.819 202.254C249.897 202.245 249.973 202.233 250.048 202.217L250.049 202.216Z" fill="#1D478E"/>
</g>
<path d="M249.82 200.24L226.995 202.857C215.751 204.147 204.397 204.147 193.154 202.857L170.329 200.24C169.073 200.096 168.125 199.032 168.125 197.767V174.227C168.125 172.853 169.239 171.739 170.612 171.739H249.538C250.911 171.739 252.025 172.853 252.025 174.227V197.768C252.025 199.032 251.076 200.096 249.821 200.24L249.82 200.24Z" fill="#161742"/>
<path d="M215.4 200.397H204.748C204.168 200.397 203.699 200.867 203.699 201.447V206.201C203.699 206.781 204.168 207.251 204.748 207.251H215.4C215.98 207.251 216.45 206.781 216.45 206.201V201.447C216.45 200.867 215.98 200.397 215.4 200.397Z" fill="#FFD325"/>
<path d="M214.262 201.475H205.885C205.402 201.475 205.011 201.866 205.011 202.349V205.298C205.011 205.782 205.402 206.173 205.885 206.173H214.262C214.745 206.173 215.137 205.782 215.137 205.298V202.349C215.137 201.866 214.745 201.475 214.262 201.475Z" fill="#AF8E2F"/>
<defs>
<clipPath id="clip0_3_5248">
<rect x="117.091" y="43.2632" width="89.5106" height="176.705" rx="7.485" fill="white"/>
</clipPath>
</defs>
</svg>
