<svg width="48" height="48" viewBox="0 0 48 48" fill="none" xmlns="http://www.w3.org/2000/svg">
<circle cx="24" cy="24" r="23.8" fill="#5BC4F0" fill-opacity="0.1" stroke="url(#paint0_linear_351_7504)" stroke-width="0.4"/>
<path d="M33.0525 21.7322C32.0091 21.1641 30.6066 20.7553 29.0625 20.5631V19.875C29.0625 18.7387 28.1644 17.7094 26.5312 16.9753C25.0463 16.3059 23.0813 15.9375 21 15.9375C18.9187 15.9375 16.9538 16.3059 15.4688 16.9753C13.8356 17.7094 12.9375 18.7387 12.9375 19.875V23.625C12.9375 24.7612 13.8356 25.7906 15.4688 26.5247C16.4522 26.9672 17.6447 27.2747 18.9375 27.4369V28.125C18.9375 29.2612 19.8356 30.2906 21.4688 31.0247C22.9537 31.6941 24.9187 32.0625 27 32.0625C29.0812 32.0625 31.0462 31.6941 32.5312 31.0247C34.1616 30.2906 35.0625 29.2612 35.0625 28.125V24.375C35.0625 23.3766 34.3491 22.4381 33.0525 21.7322ZM32.5144 22.7203C33.4322 23.22 33.9375 23.8125 33.9375 24.375C33.9375 25.7053 31.0884 27.1875 27 27.1875C26.3352 27.1879 25.671 27.146 25.0116 27.0619C25.5313 26.9224 26.0394 26.7428 26.5312 26.5247C28.1616 25.7906 29.0625 24.7612 29.0625 23.625V21.6966C30.4125 21.8775 31.6219 22.2337 32.5144 22.7203ZM22.14 26.3981C21.7725 26.4234 21.39 26.4375 21 26.4375C20.5031 26.4375 20.025 26.415 19.5675 26.3747C19.556 26.3737 19.5444 26.3737 19.5328 26.3747C19.1972 26.3438 18.8766 26.3025 18.5625 26.2528V23.6363C19.3696 23.7545 20.1843 23.8134 21 23.8125C21.8157 23.8134 22.6304 23.7545 23.4375 23.6363V26.25C23.0306 26.3147 22.6022 26.3644 22.1541 26.3962L22.14 26.3981ZM27.9375 21.9272V23.625C27.9375 24.5194 26.6484 25.4812 24.5625 26.0166V23.4234C25.2381 23.2709 25.8974 23.0537 26.5312 22.7747C27.0355 22.5557 27.5084 22.2707 27.9375 21.9272ZM21 17.0625C25.0884 17.0625 27.9375 18.5447 27.9375 19.875C27.9375 21.2053 25.0884 22.6875 21 22.6875C16.9116 22.6875 14.0625 21.2053 14.0625 19.875C14.0625 18.5447 16.9116 17.0625 21 17.0625ZM14.0625 23.625V21.9272C14.4919 22.2694 14.9647 22.5531 15.4688 22.7709C16.1026 23.0499 16.7619 23.2672 17.4375 23.4197V26.0128C15.3516 25.4812 14.0625 24.5194 14.0625 23.625ZM20.0625 28.125V27.5363C20.3719 27.5531 20.6841 27.5625 21 27.5625C21.3694 27.5625 21.7338 27.5509 22.0931 27.5278C22.5328 27.6865 22.9818 27.8183 23.4375 27.9225V30.5166C21.3516 29.9812 20.0625 29.0194 20.0625 28.125ZM24.5625 30.75V28.1344C25.3695 28.2533 26.1842 28.3128 27 28.3125C27.8157 28.3134 28.6304 28.2545 29.4375 28.1362V30.75C27.8221 31 26.1779 31 24.5625 30.75ZM30.5625 30.5166V27.9234C31.2381 27.7709 31.8974 27.5537 32.5312 27.2747C33.0353 27.0569 33.5081 26.7732 33.9375 26.4309V28.125C33.9375 29.0194 32.6484 29.9812 30.5625 30.5166Z" fill="#1D478E"/>
<defs>
<linearGradient id="paint0_linear_351_7504" x1="0" y1="24" x2="48" y2="24" gradientUnits="userSpaceOnUse">
<stop stop-color="#8FD1EC"/>
<stop offset="1" stop-color="#229ACE"/>
</linearGradient>
</defs>
</svg>
