<svg width="48" height="48" viewBox="0 0 48 48" fill="none" xmlns="http://www.w3.org/2000/svg">
<circle cx="24" cy="24" r="23.8" fill="#5BC4F0" fill-opacity="0.1" stroke="url(#paint0_linear_351_7520)" stroke-width="0.4"/>
<path d="M24.5623 19.5002V23.6815L28.0395 25.7674C28.1676 25.8442 28.2599 25.9688 28.2961 26.1137C28.3323 26.2585 28.3095 26.4118 28.2327 26.5399C28.1558 26.6679 28.0313 26.7602 27.8864 26.7964C27.7415 26.8327 27.5882 26.8099 27.4602 26.733L23.7102 24.483C23.6268 24.433 23.5579 24.3622 23.5101 24.2776C23.4623 24.193 23.4372 24.0974 23.4373 24.0002V19.5002C23.4373 19.351 23.4966 19.208 23.6021 19.1025C23.7076 18.997 23.8507 18.9377 23.9998 18.9377C24.149 18.9377 24.2921 18.997 24.3976 19.1025C24.5031 19.208 24.5623 19.351 24.5623 19.5002ZM32.9998 17.4377C32.8507 17.4377 32.7076 17.497 32.6021 17.6025C32.4966 17.708 32.4373 17.851 32.4373 18.0002V20.1902C31.7361 19.3624 31.0367 18.5843 30.2314 17.7686C29.0066 16.5439 27.4481 15.7072 25.7505 15.3631C24.0529 15.0191 22.2916 15.1829 20.6866 15.8341C19.0816 16.4854 17.7041 17.5952 16.7262 19.0248C15.7483 20.4545 15.2135 22.1406 15.1884 23.8726C15.1634 25.6045 15.6493 27.3054 16.5854 28.7627C17.5215 30.2201 18.8663 31.3692 20.4518 32.0666C22.0373 32.764 23.7932 32.9787 25.5 32.6839C27.2068 32.3891 28.7889 31.5978 30.0486 30.409C30.1534 30.3057 30.2135 30.1654 30.2161 30.0183C30.2187 29.8712 30.1636 29.729 30.0626 29.622C29.9615 29.5151 29.8226 29.452 29.6756 29.4463C29.5285 29.4406 29.3851 29.4927 29.2761 29.5915C28.1769 30.6281 26.7967 31.3178 25.3078 31.5745C23.8189 31.8312 22.2874 31.6435 20.9046 31.0348C19.5218 30.4262 18.349 29.4235 17.5327 28.1522C16.7164 26.8808 16.2929 25.3971 16.315 23.8864C16.3371 22.3757 16.8038 20.905 17.6569 19.6581C18.51 18.4111 19.7116 17.4432 21.1116 16.8752C22.5117 16.3072 24.048 16.1644 25.5288 16.4645C27.0095 16.7646 28.369 17.4944 29.4373 18.5627C30.3036 19.4402 31.048 20.2783 31.8102 21.1877H29.2498C29.1007 21.1877 28.9576 21.247 28.8521 21.3525C28.7466 21.458 28.6873 21.601 28.6873 21.7502C28.6873 21.8994 28.7466 22.0425 28.8521 22.148C28.9576 22.2534 29.1007 22.3127 29.2498 22.3127H32.9998C33.149 22.3127 33.2921 22.2534 33.3976 22.148C33.5031 22.0425 33.5623 21.8994 33.5623 21.7502V18.0002C33.5623 17.851 33.5031 17.708 33.3976 17.6025C33.2921 17.497 33.149 17.4377 32.9998 17.4377Z" fill="#1D478E"/>
<defs>
<linearGradient id="paint0_linear_351_7520" x1="0" y1="24" x2="48" y2="24" gradientUnits="userSpaceOnUse">
<stop stop-color="#8FD1EC"/>
<stop offset="1" stop-color="#229ACE"/>
</linearGradient>
</defs>
</svg>
