<svg width="48" height="48" viewBox="0 0 48 48" fill="none" xmlns="http://www.w3.org/2000/svg">
<circle cx="24" cy="24" r="23.8" fill="#5BC4F0" fill-opacity="0.1" stroke="url(#paint0_linear_351_7528)" stroke-width="0.4"/>
<g clip-path="url(#clip0_351_7528)">
<path d="M31.8975 18.3525L28.1475 14.6025C28.0421 14.497 27.8991 14.4376 27.75 14.4375H20.25C19.9019 14.4375 19.5681 14.5758 19.3219 14.8219C19.0758 15.0681 18.9375 15.4019 18.9375 15.75V17.4375H17.25C16.9019 17.4375 16.5681 17.5758 16.3219 17.8219C16.0758 18.0681 15.9375 18.4019 15.9375 18.75V32.25C15.9375 32.5981 16.0758 32.9319 16.3219 33.1781C16.5681 33.4242 16.9019 33.5625 17.25 33.5625H27.75C28.0981 33.5625 28.4319 33.4242 28.6781 33.1781C28.9242 32.9319 29.0625 32.5981 29.0625 32.25V30.5625H30.75C31.0981 30.5625 31.4319 30.4242 31.6781 30.1781C31.9242 29.9319 32.0625 29.5981 32.0625 29.25V18.75C32.0624 18.6009 32.003 18.4579 31.8975 18.3525ZM27.9375 32.25C27.9375 32.2997 27.9177 32.3474 27.8826 32.3826C27.8474 32.4177 27.7997 32.4375 27.75 32.4375H17.25C17.2003 32.4375 17.1526 32.4177 17.1174 32.3826C17.0823 32.3474 17.0625 32.2997 17.0625 32.25V18.75C17.0625 18.7003 17.0823 18.6526 17.1174 18.6174C17.1526 18.5823 17.2003 18.5625 17.25 18.5625H24.5166L27.9375 21.9834V32.25ZM30.9375 29.25C30.9375 29.2997 30.9177 29.3474 30.8826 29.3826C30.8474 29.4177 30.7997 29.4375 30.75 29.4375H29.0625V21.75C29.0624 21.6009 29.003 21.4579 28.8975 21.3525L25.1475 17.6025C25.0421 17.497 24.8991 17.4376 24.75 17.4375H20.0625V15.75C20.0625 15.7003 20.0823 15.6526 20.1174 15.6174C20.1526 15.5823 20.2003 15.5625 20.25 15.5625H27.5166L30.9375 18.9834V29.25ZM25.3125 26.25C25.3125 26.3992 25.2532 26.5423 25.1477 26.6477C25.0423 26.7532 24.8992 26.8125 24.75 26.8125H20.25C20.1008 26.8125 19.9577 26.7532 19.8523 26.6477C19.7468 26.5423 19.6875 26.3992 19.6875 26.25C19.6875 26.1008 19.7468 25.9577 19.8523 25.8523C19.9577 25.7468 20.1008 25.6875 20.25 25.6875H24.75C24.8992 25.6875 25.0423 25.7468 25.1477 25.8523C25.2532 25.9577 25.3125 26.1008 25.3125 26.25ZM25.3125 29.25C25.3125 29.3992 25.2532 29.5423 25.1477 29.6477C25.0423 29.7532 24.8992 29.8125 24.75 29.8125H20.25C20.1008 29.8125 19.9577 29.7532 19.8523 29.6477C19.7468 29.5423 19.6875 29.3992 19.6875 29.25C19.6875 29.1008 19.7468 28.9577 19.8523 28.8523C19.9577 28.7468 20.1008 28.6875 20.25 28.6875H24.75C24.8992 28.6875 25.0423 28.7468 25.1477 28.8523C25.2532 28.9577 25.3125 29.1008 25.3125 29.25Z" fill="#1D478E"/>
<circle cx="31" cy="30" r="4.5" fill="#EFF9FD"/>
<path d="M32.7695 28.7695L32.7695 28.7695L32.7719 28.7669C32.8393 28.6946 32.8759 28.5991 32.8742 28.5003C32.8724 28.4015 32.8324 28.3073 32.7626 28.2374C32.6927 28.1676 32.5985 28.1276 32.4997 28.1258C32.4009 28.1241 32.3054 28.1607 32.2331 28.2281L32.233 28.228L32.2305 28.2305L31 29.4611L29.7695 28.2305L29.7695 28.2305L29.7669 28.2281C29.6947 28.1607 29.5991 28.1241 29.5003 28.1258C29.4015 28.1276 29.3073 28.1676 29.2374 28.2374C29.1676 28.3073 29.1276 28.4015 29.1258 28.5003C29.1241 28.5991 29.1607 28.6947 29.2281 28.7669L29.228 28.767L29.2305 28.7695L30.4611 30L29.2305 31.2305L29.2305 31.2305L29.2281 31.2331C29.1607 31.3053 29.1241 31.4009 29.1258 31.4997C29.1276 31.5985 29.1676 31.6927 29.2374 31.7626C29.3073 31.8324 29.4015 31.8724 29.5003 31.8742C29.5991 31.8759 29.6947 31.8393 29.7669 31.7719L29.767 31.772L29.7695 31.7695L31 30.5389L32.2294 31.7683C32.264 31.8051 32.3057 31.8347 32.3519 31.8553C32.3986 31.8761 32.4491 31.8873 32.5003 31.8882C32.5515 31.8891 32.6023 31.8797 32.6498 31.8605C32.6973 31.8413 32.7404 31.8128 32.7766 31.7766C32.8128 31.7404 32.8413 31.6973 32.8605 31.6498C32.8797 31.6023 32.8891 31.5515 32.8882 31.5003C32.8873 31.4491 32.8761 31.3986 32.8553 31.3518C32.8347 31.3057 32.8051 31.264 32.7683 31.2294L31.5389 30L32.7695 28.7695ZM35.8813 30V29.9999C35.8797 28.7058 35.365 27.4651 34.4499 26.5501C33.5349 25.635 32.2942 25.1203 31.0001 25.1187H31C30.0346 25.1187 29.0908 25.405 28.2881 25.9414C27.4854 26.4777 26.8598 27.2401 26.4903 28.132C26.1209 29.024 26.0242 30.0054 26.2125 30.9523C26.4009 31.8992 26.8658 32.7689 27.5484 33.4516C28.2311 34.1342 29.1008 34.5991 30.0477 34.7875C30.9946 34.9758 31.976 34.8791 32.868 34.5097C33.7599 34.1402 34.5223 33.5146 35.0586 32.7119C35.595 31.9092 35.8813 30.9654 35.8813 30ZM34.4246 27.7117C34.8772 28.389 35.1187 29.1853 35.1188 29.9999C35.1175 31.0919 34.6832 32.1389 33.911 32.911C33.1389 33.6832 32.0919 34.1175 30.9999 34.1187C30.1853 34.1187 29.389 33.8772 28.7117 33.4246C28.0344 32.972 27.5065 32.3288 27.1948 31.5762C26.883 30.8236 26.8015 29.9954 26.9604 29.1965C27.1193 28.3975 27.5116 27.6636 28.0876 27.0876C28.6636 26.5116 29.3975 26.1193 30.1965 25.9604C30.9954 25.8015 31.8236 25.883 32.5762 26.1948C33.3288 26.5065 33.972 27.0344 34.4246 27.7117Z" fill="#1D478E" stroke="#1D478E" stroke-width="0.2"/>
</g>
<defs>
<linearGradient id="paint0_linear_351_7528" x1="0" y1="24" x2="48" y2="24" gradientUnits="userSpaceOnUse">
<stop stop-color="#8FD1EC"/>
<stop offset="1" stop-color="#229ACE"/>
</linearGradient>
<clipPath id="clip0_351_7528">
<rect width="24" height="24" fill="white" transform="translate(12 12)"/>
</clipPath>
</defs>
</svg>
