<svg width="318" height="458" viewBox="0 0 318 458" fill="none" xmlns="http://www.w3.org/2000/svg">
<path opacity="0.27" d="M143 458C208.17 458 261 452.404 261 445.5C261 438.596 208.17 433 143 433C77.8304 433 25 438.596 25 445.5C25 452.404 77.8304 458 143 458Z" fill="#FFD325"/>
<g opacity="0.88">
<g opacity="0.54">
<path d="M271.694 68.8797C272.136 68.8797 272.494 68.521 272.494 68.0784C272.494 67.6359 272.136 67.2771 271.694 67.2771C271.252 67.2771 270.893 67.6359 270.893 68.0784C270.893 68.521 271.252 68.8797 271.694 68.8797Z" fill="#161742"/>
<path d="M249.194 104.849C249.585 104.849 249.903 104.531 249.903 104.139C249.903 103.747 249.585 103.43 249.194 103.43C248.802 103.43 248.485 103.747 248.485 104.139C248.485 104.531 248.802 104.849 249.194 104.849Z" fill="#161742"/>
<path d="M287.172 92.0381C287.618 92.0381 287.979 91.6763 287.979 91.23C287.979 90.7837 287.618 90.4219 287.172 90.4219C286.726 90.4219 286.365 90.7837 286.365 91.23C286.365 91.6763 286.726 92.0381 287.172 92.0381Z" fill="#161742"/>
<path d="M269.591 100.362C270.008 100.362 270.347 100.023 270.347 99.6048C270.347 99.1867 270.008 98.8477 269.591 98.8477C269.173 98.8477 268.834 99.1867 268.834 99.6048C268.834 100.023 269.173 100.362 269.591 100.362Z" fill="#161742"/>
<path d="M250.167 71.0359C250.703 71.0359 251.137 70.6011 251.137 70.0648C251.137 69.5285 250.703 69.0937 250.167 69.0937C249.631 69.0937 249.197 69.5285 249.197 70.0648C249.197 70.6011 249.631 71.0359 250.167 71.0359Z" fill="#161742"/>
<path d="M257.04 37.1395C257.493 37.1395 257.861 36.7716 257.861 36.3178C257.861 35.864 257.493 35.4961 257.04 35.4961C256.586 35.4961 256.219 35.864 256.219 36.3178C256.219 36.7716 256.586 37.1395 257.04 37.1395Z" fill="#161742"/>
<path d="M246.544 50.7671C246.85 50.7671 247.097 50.5193 247.097 50.2136C247.097 49.9079 246.85 49.6602 246.544 49.6602C246.239 49.6602 245.991 49.9079 245.991 50.2136C245.991 50.5193 246.239 50.7671 246.544 50.7671Z" fill="#161742"/>
<path d="M257.973 100.364C258.488 100.364 258.905 99.9455 258.905 99.4298C258.905 98.9141 258.488 98.4961 257.973 98.4961C257.457 98.4961 257.04 98.9141 257.04 99.4298C257.04 99.9455 257.457 100.364 257.973 100.364Z" fill="#161742"/>
<path d="M243.61 91.2928C244.062 91.2928 244.428 90.9265 244.428 90.4745C244.428 90.0226 244.062 89.6562 243.61 89.6562C243.159 89.6562 242.793 90.0226 242.793 90.4745C242.793 90.9265 243.159 91.2928 243.61 91.2928Z" fill="#161742"/>
</g>
<g opacity="0.54">
<path d="M23.7349 234.629C24.5443 234.629 25.2003 233.972 25.2003 233.162C25.2003 232.352 24.5443 231.695 23.7349 231.695C22.9256 231.695 22.2695 232.352 22.2695 233.162C22.2695 233.972 22.9256 234.629 23.7349 234.629Z" fill="#161742"/>
<path d="M59.5763 118.36C60.2769 118.36 60.8449 117.792 60.8449 117.09C60.8449 116.389 60.2769 115.82 59.5763 115.82C58.8756 115.82 58.3076 116.389 58.3076 117.09C58.3076 117.792 58.8756 118.36 59.5763 118.36Z" fill="#161742"/>
<path d="M25.8686 115.471C26.5955 115.471 27.1848 114.881 27.1848 114.153C27.1848 113.426 26.5955 112.836 25.8686 112.836C25.1418 112.836 24.5525 113.426 24.5525 114.153C24.5525 114.881 25.1418 115.471 25.8686 115.471Z" fill="#161742"/>
<path d="M289.425 15.9024C290.234 15.9024 290.89 15.2457 290.89 14.4356C290.89 13.6255 290.234 12.9688 289.425 12.9688C288.615 12.9688 287.959 13.6255 287.959 14.4356C287.959 15.2457 288.615 15.9024 289.425 15.9024Z" fill="#161742"/>
<path d="M315.242 246.348C315.758 246.348 316.175 245.93 316.175 245.414C316.175 244.899 315.758 244.48 315.242 244.48C314.727 244.48 314.31 244.899 314.31 245.414C314.31 245.93 314.727 246.348 315.242 246.348Z" fill="#161742"/>
<path d="M24.5524 85.3475C25.0039 85.3475 25.3699 84.9812 25.3699 84.5292C25.3699 84.0773 25.0039 83.7109 24.5524 83.7109C24.1009 83.7109 23.7349 84.0773 23.7349 84.5292C23.7349 84.9812 24.1009 85.3475 24.5524 85.3475Z" fill="#161742"/>
</g>
<g opacity="0.54">
<path d="M66.3638 100.676C67.1732 100.676 67.8293 100.019 67.8293 99.209C67.8293 98.3989 67.1732 97.7422 66.3638 97.7422C65.5545 97.7422 64.8984 98.3989 64.8984 99.209C64.8984 100.019 65.5545 100.676 66.3638 100.676Z" fill="#161742"/>
<path d="M91.6489 107.036C92.0911 107.036 92.4495 106.677 92.4495 106.235C92.4495 105.792 92.0911 105.434 91.6489 105.434C91.2068 105.434 90.8484 105.792 90.8484 106.235C90.8484 106.677 91.2068 107.036 91.6489 107.036Z" fill="#161742"/>
<path d="M85.4447 114.599C86.1454 114.599 86.7134 114.03 86.7134 113.329C86.7134 112.627 86.1454 112.059 85.4447 112.059C84.744 112.059 84.176 112.627 84.176 113.329C84.176 114.03 84.744 114.599 85.4447 114.599Z" fill="#161742"/>
<path d="M94.2236 150.541C94.7425 150.541 95.1632 150.12 95.1632 149.601C95.1632 149.081 94.7425 148.66 94.2236 148.66C93.7046 148.66 93.2839 149.081 93.2839 149.601C93.2839 150.12 93.7046 150.541 94.2236 150.541Z" fill="#161742"/>
<path d="M81.9372 131.478C82.3288 131.478 82.6462 131.16 82.6462 130.768C82.6462 130.376 82.3288 130.059 81.9372 130.059C81.5457 130.059 81.2283 130.376 81.2283 130.768C81.2283 131.16 81.5457 131.478 81.9372 131.478Z" fill="#161742"/>
<path d="M67.8089 115.003C68.2267 115.003 68.5654 114.664 68.5654 114.245C68.5654 113.827 68.2267 113.488 67.8089 113.488C67.3912 113.488 67.0525 113.827 67.0525 114.245C67.0525 114.664 67.3912 115.003 67.8089 115.003Z" fill="#161742"/>
<path d="M80.8517 88.4617C81.3875 88.4617 81.8219 88.0269 81.8219 87.4906C81.8219 86.9543 81.3875 86.5195 80.8517 86.5195C80.3159 86.5195 79.8816 86.9543 79.8816 87.4906C79.8816 88.0269 80.3159 88.4617 80.8517 88.4617Z" fill="#161742"/>
<path d="M91.9746 95.2951C92.6153 95.2951 93.1347 94.7752 93.1347 94.1339C93.1347 93.4926 92.6153 92.9727 91.9746 92.9727C91.3339 92.9727 90.8145 93.4926 90.8145 94.1339C90.8145 94.7752 91.3339 95.2951 91.9746 95.2951Z" fill="#161742"/>
<path d="M76.0856 128.542C76.4303 128.542 76.7097 128.263 76.7097 127.918C76.7097 127.573 76.4303 127.293 76.0856 127.293C75.7409 127.293 75.4614 127.573 75.4614 127.918C75.4614 128.263 75.7409 128.542 76.0856 128.542Z" fill="#161742"/>
<path d="M114.349 80.4598C114.802 80.4598 115.17 80.0919 115.17 79.6381C115.17 79.1843 114.802 78.8164 114.349 78.8164C113.896 78.8164 113.528 79.1843 113.528 79.6381C113.528 80.0919 113.896 80.4598 114.349 80.4598Z" fill="#161742"/>
<path d="M119.193 99.1253C119.543 99.1253 119.827 98.8411 119.827 98.4904C119.827 98.1397 119.543 97.8555 119.193 97.8555C118.843 97.8555 118.559 98.1397 118.559 98.4904C118.559 98.8411 118.843 99.1253 119.193 99.1253Z" fill="#161742"/>
<path d="M112.32 110.887C112.929 110.887 113.423 110.393 113.423 109.783C113.423 109.174 112.929 108.68 112.32 108.68C111.712 108.68 111.218 109.174 111.218 109.783C111.218 110.393 111.712 110.887 112.32 110.887Z" fill="#161742"/>
<path d="M97.3544 76.4546C97.6598 76.4546 97.9074 76.2068 97.9074 75.9011C97.9074 75.5954 97.6598 75.3477 97.3544 75.3477C97.0491 75.3477 96.8015 75.5954 96.8015 75.9011C96.8015 76.2068 97.0491 76.4546 97.3544 76.4546Z" fill="#161742"/>
<path d="M89.8816 137.715C90.3968 137.715 90.8144 137.297 90.8144 136.781C90.8144 136.266 90.3968 135.848 89.8816 135.848C89.3664 135.848 88.9487 136.266 88.9487 136.781C88.9487 137.297 89.3664 137.715 89.8816 137.715Z" fill="#161742"/>
<path d="M59.5863 90.8749C60.0378 90.8749 60.4038 90.5085 60.4038 90.0566C60.4038 89.6046 60.0378 89.2383 59.5863 89.2383C59.1348 89.2383 58.7688 89.6046 58.7688 90.0566C58.7688 90.5085 59.1348 90.8749 59.5863 90.8749Z" fill="#161742"/>
</g>
<g opacity="0.54">
<path d="M231.229 158.13C231.671 158.13 232.03 157.771 232.03 157.329C232.03 156.886 231.671 156.527 231.229 156.527C230.787 156.527 230.428 156.886 230.428 157.329C230.428 157.771 230.787 158.13 231.229 158.13Z" fill="#161742"/>
<path d="M261.185 145.541C261.704 145.541 262.125 145.12 262.125 144.601C262.125 144.081 261.704 143.66 261.185 143.66C260.666 143.66 260.245 144.081 260.245 144.601C260.245 145.12 260.666 145.541 261.185 145.541Z" fill="#161742"/>
<path d="M208.732 194.095C209.124 194.095 209.441 193.777 209.441 193.385C209.441 192.993 209.124 192.676 208.732 192.676C208.341 192.676 208.023 192.993 208.023 193.385C208.023 193.777 208.341 194.095 208.732 194.095Z" fill="#161742"/>
<path d="M231.229 175.183C231.675 175.183 232.036 174.821 232.036 174.375C232.036 173.928 231.675 173.566 231.229 173.566C230.783 173.566 230.422 173.928 230.422 174.375C230.422 174.821 230.783 175.183 231.229 175.183Z" fill="#161742"/>
<path d="M229.129 189.612C229.547 189.612 229.886 189.273 229.886 188.855C229.886 188.437 229.547 188.098 229.129 188.098C228.711 188.098 228.373 188.437 228.373 188.855C228.373 189.273 228.711 189.612 229.129 189.612Z" fill="#161742"/>
<path d="M209.702 160.282C210.238 160.282 210.672 159.847 210.672 159.311C210.672 158.775 210.238 158.34 209.702 158.34C209.167 158.34 208.732 158.775 208.732 159.311C208.732 159.847 209.167 160.282 209.702 160.282Z" fill="#161742"/>
<path d="M249.37 165.929C249.715 165.929 249.994 165.649 249.994 165.304C249.994 164.959 249.715 164.68 249.37 164.68C249.026 164.68 248.746 164.959 248.746 165.304C248.746 165.649 249.026 165.929 249.37 165.929Z" fill="#161742"/>
<path d="M216.578 126.389C217.032 126.389 217.399 126.022 217.399 125.568C217.399 125.114 217.032 124.746 216.578 124.746C216.125 124.746 215.757 125.114 215.757 125.568C215.757 126.022 216.125 126.389 216.578 126.389Z" fill="#161742"/>
<path d="M235.71 129.676C236.06 129.676 236.344 129.392 236.344 129.041C236.344 128.691 236.06 128.406 235.71 128.406C235.36 128.406 235.076 128.691 235.076 129.041C235.076 129.392 235.36 129.676 235.71 129.676Z" fill="#161742"/>
<path d="M251.511 126.672C252.12 126.672 252.613 126.178 252.613 125.568C252.613 124.959 252.12 124.465 251.511 124.465C250.902 124.465 250.408 124.959 250.408 125.568C250.408 126.178 250.902 126.672 251.511 126.672Z" fill="#161742"/>
<path d="M206.083 140.017C206.388 140.017 206.636 139.769 206.636 139.464C206.636 139.158 206.388 138.91 206.083 138.91C205.778 138.91 205.53 139.158 205.53 139.464C205.53 139.769 205.778 140.017 206.083 140.017Z" fill="#161742"/>
<path d="M239.581 185.376C240.116 185.376 240.551 184.941 240.551 184.405C240.551 183.868 240.116 183.434 239.581 183.434C239.045 183.434 238.61 183.868 238.61 184.405C238.61 184.941 239.045 185.376 239.581 185.376Z" fill="#161742"/>
<path d="M217.511 189.61C218.026 189.61 218.444 189.192 218.444 188.676C218.444 188.16 218.026 187.742 217.511 187.742C216.996 187.742 216.578 188.16 216.578 188.676C216.578 189.192 216.996 189.61 217.511 189.61Z" fill="#161742"/>
<path d="M203.149 180.539C203.6 180.539 203.966 180.173 203.966 179.721C203.966 179.269 203.6 178.902 203.149 178.902C202.697 178.902 202.331 179.269 202.331 179.721C202.331 180.173 202.697 180.539 203.149 180.539Z" fill="#161742"/>
</g>
<g opacity="0.54">
<path d="M77.3782 182.657C77.8203 182.657 78.1787 182.298 78.1787 181.856C78.1787 181.413 77.8203 181.054 77.3782 181.054C76.9361 181.054 76.5776 181.413 76.5776 181.856C76.5776 182.298 76.9361 182.657 77.3782 182.657Z" fill="#161742"/>
<path d="M39.3047 231.271C39.6962 231.271 40.0136 230.953 40.0136 230.561C40.0136 230.169 39.6962 229.852 39.3047 229.852C38.9131 229.852 38.5957 230.169 38.5957 230.561C38.5957 230.953 38.9131 231.271 39.3047 231.271Z" fill="#161742"/>
<path d="M77.3781 199.71C77.824 199.71 78.1855 199.348 78.1855 198.902C78.1855 198.456 77.824 198.094 77.3781 198.094C76.9323 198.094 76.5708 198.456 76.5708 198.902C76.5708 199.348 76.9323 199.71 77.3781 199.71Z" fill="#161742"/>
<path d="M75.2784 214.139C75.6962 214.139 76.0349 213.8 76.0349 213.382C76.0349 212.964 75.6962 212.625 75.2784 212.625C74.8606 212.625 74.522 212.964 74.522 213.382C74.522 213.8 74.8606 214.139 75.2784 214.139Z" fill="#161742"/>
<path d="M33.1989 202.317C33.7347 202.317 34.1691 201.882 34.1691 201.346C34.1691 200.81 33.7347 200.375 33.1989 200.375C32.6631 200.375 32.2288 200.81 32.2288 201.346C32.2288 201.882 32.6631 202.317 33.1989 202.317Z" fill="#161742"/>
<path d="M95.5194 190.456C95.8641 190.456 96.1436 190.177 96.1436 189.832C96.1436 189.487 95.8641 189.207 95.5194 189.207C95.1747 189.207 94.8953 189.487 94.8953 189.832C94.8953 190.177 95.1747 190.456 95.5194 190.456Z" fill="#161742"/>
<path d="M62.7276 150.917C63.181 150.917 63.5485 150.549 63.5485 150.095C63.5485 149.641 63.181 149.273 62.7276 149.273C62.2743 149.273 61.9067 149.641 61.9067 150.095C61.9067 150.549 62.2743 150.917 62.7276 150.917Z" fill="#161742"/>
<path d="M81.8592 154.204C82.2095 154.204 82.4935 153.919 82.4935 153.569C82.4935 153.218 82.2095 152.934 81.8592 152.934C81.5089 152.934 81.2249 153.218 81.2249 153.569C81.2249 153.919 81.5089 154.204 81.8592 154.204Z" fill="#161742"/>
<path d="M23.6601 261.216C23.9655 261.216 24.213 260.968 24.213 260.663C24.213 260.357 23.9655 260.109 23.6601 260.109C23.3547 260.109 23.1072 260.357 23.1072 260.663C23.1072 260.968 23.3547 261.216 23.6601 261.216Z" fill="#161742"/>
<path d="M85.7297 209.903C86.2655 209.903 86.6998 209.468 86.6998 208.932C86.6998 208.396 86.2655 207.961 85.7297 207.961C85.1939 207.961 84.7595 208.396 84.7595 208.932C84.7595 209.468 85.1939 209.903 85.7297 209.903Z" fill="#161742"/>
<path d="M25.2241 225.063C25.7393 225.063 26.1569 224.645 26.1569 224.129C26.1569 223.613 25.7393 223.195 25.2241 223.195C24.7089 223.195 24.2913 223.613 24.2913 224.129C24.2913 224.645 24.7089 225.063 25.2241 225.063Z" fill="#161742"/>
<path d="M0.817507 232.09C1.269 232.09 1.63501 231.723 1.63501 231.271C1.63501 230.819 1.269 230.453 0.817507 230.453C0.36601 230.453 0 230.819 0 231.271C0 231.723 0.36601 232.09 0.817507 232.09Z" fill="#161742"/>
</g>
<g opacity="0.54">
<path d="M115.428 32.3058C115.87 32.3058 116.228 31.947 116.228 31.5044C116.228 31.0619 115.87 30.7031 115.428 30.7031C114.986 30.7031 114.627 31.0619 114.627 31.5044C114.627 31.947 114.986 32.3058 115.428 32.3058Z" fill="#161742"/>
<path d="M98.3078 47.1662C98.8267 47.1662 99.2474 46.7451 99.2474 46.2257C99.2474 45.7062 98.8267 45.2852 98.3078 45.2852C97.7888 45.2852 97.3682 45.7062 97.3682 46.2257C97.3682 46.7451 97.7888 47.1662 98.3078 47.1662Z" fill="#161742"/>
<path d="M115.428 49.3584C115.874 49.3584 116.235 48.9966 116.235 48.5503C116.235 48.104 115.874 47.7422 115.428 47.7422C114.982 47.7422 114.621 48.104 114.621 48.5503C114.621 48.9966 114.982 49.3584 115.428 49.3584Z" fill="#161742"/>
<path d="M123.667 70.1726C124.203 70.1726 124.638 69.7379 124.638 69.2016C124.638 68.6652 124.203 68.2305 123.667 68.2305C123.132 68.2305 122.697 68.6652 122.697 69.2016C122.697 69.7379 123.132 70.1726 123.667 70.1726Z" fill="#161742"/>
<path d="M103.114 29.4793C103.568 29.4793 103.935 29.1114 103.935 28.6576C103.935 28.2038 103.568 27.8359 103.114 27.8359C102.661 27.8359 102.293 28.2038 102.293 28.6576C102.293 29.1114 102.661 29.4793 103.114 29.4793Z" fill="#161742"/>
<path d="M120.543 18.6918C120.894 18.6918 121.178 18.4075 121.178 18.0568C121.178 17.7061 120.894 17.4219 120.543 17.4219C120.193 17.4219 119.909 17.7061 119.909 18.0568C119.909 18.4075 120.193 18.6918 120.543 18.6918Z" fill="#161742"/>
<path d="M81.0043 53.3996C81.3097 53.3996 81.5573 53.1518 81.5573 52.8462C81.5573 52.5405 81.3097 52.2927 81.0043 52.2927C80.699 52.2927 80.4514 52.5405 80.4514 52.8462C80.4514 53.1518 80.699 53.3996 81.0043 53.3996Z" fill="#161742"/>
<path d="M102.293 66.2225C102.745 66.2225 103.111 65.8562 103.111 65.4042C103.111 64.9523 102.745 64.5859 102.293 64.5859C101.842 64.5859 101.476 64.9523 101.476 65.4042C101.476 65.8562 101.842 66.2225 102.293 66.2225Z" fill="#161742"/>
</g>
<g opacity="0.54">
<path d="M163.193 155.645C163.635 155.645 163.993 155.287 163.993 154.844C163.993 154.402 163.635 154.043 163.193 154.043C162.751 154.043 162.392 154.402 162.392 154.844C162.392 155.287 162.751 155.645 163.193 155.645Z" fill="#161742"/>
<path d="M189.115 156.795C189.634 156.795 190.055 156.374 190.055 155.855C190.055 155.335 189.634 154.914 189.115 154.914C188.596 154.914 188.176 155.335 188.176 155.855C188.176 156.374 188.596 156.795 189.115 156.795Z" fill="#161742"/>
<path d="M140.696 191.611C141.088 191.611 141.405 191.293 141.405 190.901C141.405 190.509 141.088 190.191 140.696 190.191C140.304 190.191 139.987 190.509 139.987 190.901C139.987 191.293 140.304 191.611 140.696 191.611Z" fill="#161742"/>
<path d="M178.671 178.804C179.117 178.804 179.478 178.442 179.478 177.996C179.478 177.549 179.117 177.188 178.671 177.188C178.225 177.188 177.864 177.549 177.864 177.996C177.864 178.442 178.225 178.804 178.671 178.804Z" fill="#161742"/>
<path d="M161.089 187.128C161.507 187.128 161.846 186.789 161.846 186.37C161.846 185.952 161.507 185.613 161.089 185.613C160.672 185.613 160.333 185.952 160.333 186.37C160.333 186.789 160.672 187.128 161.089 187.128Z" fill="#161742"/>
<path d="M141.666 157.798C142.202 157.798 142.636 157.363 142.636 156.827C142.636 156.29 142.202 155.855 141.666 155.855C141.13 155.855 140.696 156.29 140.696 156.827C140.696 157.363 141.13 157.798 141.666 157.798Z" fill="#161742"/>
<path d="M152.348 150.651C152.989 150.651 153.508 150.131 153.508 149.49C153.508 148.848 152.989 148.328 152.348 148.328C151.707 148.328 151.188 148.848 151.188 149.49C151.188 150.131 151.707 150.651 152.348 150.651Z" fill="#161742"/>
<path d="M181.334 163.445C181.679 163.445 181.958 163.165 181.958 162.82C181.958 162.475 181.679 162.195 181.334 162.195C180.989 162.195 180.71 162.475 180.71 162.82C180.71 163.165 180.989 163.445 181.334 163.445Z" fill="#161742"/>
<path d="M148.542 123.905C148.995 123.905 149.363 123.537 149.363 123.083C149.363 122.63 148.995 122.262 148.542 122.262C148.088 122.262 147.721 122.63 147.721 123.083C147.721 123.537 148.088 123.905 148.542 123.905Z" fill="#161742"/>
<path d="M167.674 127.192C168.024 127.192 168.308 126.908 168.308 126.557C168.308 126.206 168.024 125.922 167.674 125.922C167.323 125.922 167.039 126.206 167.039 126.557C167.039 126.908 167.323 127.192 167.674 127.192Z" fill="#161742"/>
<path d="M138.047 137.533C138.352 137.533 138.599 137.285 138.599 136.979C138.599 136.674 138.352 136.426 138.047 136.426C137.741 136.426 137.494 136.674 137.494 136.979C137.494 137.285 137.741 137.533 138.047 137.533Z" fill="#161742"/>
<path d="M171.544 182.891C172.08 182.891 172.514 182.457 172.514 181.92C172.514 181.384 172.08 180.949 171.544 180.949C171.008 180.949 170.574 181.384 170.574 181.92C170.574 182.457 171.008 182.891 171.544 182.891Z" fill="#161742"/>
<path d="M149.475 187.125C149.99 187.125 150.408 186.707 150.408 186.192C150.408 185.676 149.99 185.258 149.475 185.258C148.96 185.258 148.542 185.676 148.542 186.192C148.542 186.707 148.96 187.125 149.475 187.125Z" fill="#161742"/>
<path d="M135.112 178.055C135.564 178.055 135.93 177.688 135.93 177.236C135.93 176.784 135.564 176.418 135.112 176.418C134.661 176.418 134.295 176.784 134.295 177.236C134.295 177.688 134.661 178.055 135.112 178.055Z" fill="#161742"/>
</g>
</g>
<path d="M124.492 137.371L166.988 116.941L124.492 108.242V137.371Z" fill="#FFD325"/>
<path d="M281.165 132L236.324 120.123L281.165 108.242V132Z" fill="#FFD325"/>
<path d="M160.774 174.449L174.39 152.504L134.295 174.421L160.774 174.449Z" fill="#FFD325"/>
<path d="M227.287 174.164L216.833 157.316L247.62 174.144L227.287 174.164Z" fill="#FFD325"/>
<path d="M252.881 174.162L237.986 150.16L281.847 174.132L252.881 174.162Z" fill="#FFD325"/>
<path d="M180.74 174.286L184.828 163.312L171.598 174.422L180.74 174.286Z" fill="#FFD325"/>
<path d="M217.531 174.421L204.892 161.953L207.827 174.421H217.531Z" fill="#FFD325"/>
<path d="M199.475 174.424L196.982 163.195L188.423 174.543L199.475 174.424Z" fill="#FFD325"/>
<path d="M124.492 173.692L164.692 137.371L124.492 144.563V173.692Z" fill="#FFD325"/>
<path d="M281.497 168.321L241.297 132L281.497 139.191V168.321Z" fill="#FFD325"/>
<path d="M88.9385 378.209L76.6725 430.451L58.338 431.076L56.3604 424.22L64.7932 367.941L88.9385 378.209Z" fill="#E27755"/>
<path d="M147.663 378.026L148.284 426.998L166.435 434.885L170.916 428.176L172.463 370.512L147.663 378.026Z" fill="#E27755"/>
<path d="M65.7126 162.843C65.7126 162.843 61.625 182.802 52.2492 192.686C51.6284 193.338 51.5097 194.482 51.9744 195.337C52.4255 196.169 53.2872 196.475 54.0029 196.05C56.1603 194.767 60.4005 190.36 64.661 185.09C72.1814 175.79 69.3931 160.918 69.3931 160.918L65.7126 162.843Z" fill="#E27755"/>
<path d="M57.3646 173.765C57.3646 173.765 54.4473 180.529 39.1691 184.556C38.3686 184.766 37.7987 185.693 37.8122 186.569C37.8258 187.425 38.3957 188.026 39.1589 187.982C41.469 187.846 46.5233 187.225 52.1373 184.478C58.043 181.585 64.1319 174.044 64.1319 174.044L57.3612 173.762L57.3646 173.765Z" fill="#E27755"/>
<path d="M53.7043 181.113C53.7043 181.113 48.9858 184.896 36.5502 187.65C35.7293 187.833 35.0475 188.672 34.9728 189.599C34.9016 190.502 35.4206 191.205 36.1974 191.256C38.5482 191.405 43.7246 191.391 49.6778 189.212C55.9431 186.916 57.5442 184.655 57.5442 184.655L53.7043 181.117V181.113Z" fill="#E27755"/>
<path d="M63.1175 172.273C63.1175 172.273 48.9044 186.598 35.7768 189.505C34.9118 189.695 34.1893 190.585 34.1113 191.559C34.0367 192.51 34.5828 193.257 35.4037 193.308C37.8868 193.467 44.5354 192.513 50.9228 190.544C62.1949 187.067 67.2085 172.759 67.2085 172.759L63.1175 172.27V172.273Z" fill="#E27755"/>
<path d="M65.7464 174.07C65.7464 174.07 51.5333 188.396 38.4057 191.302C37.5374 191.496 36.8182 192.382 36.7402 193.36C36.6656 194.311 37.2117 195.058 38.0326 195.108C40.5157 195.268 46.418 194.005 52.8054 192.032C64.0775 188.555 69.8374 174.559 69.8374 174.559L65.7464 174.07Z" fill="#E27755"/>
<path d="M39.0841 188.243C38.7076 188.243 38.3548 188.107 38.0834 187.856C37.751 187.547 37.5644 187.092 37.5576 186.576C37.5576 186.436 37.6696 186.321 37.8086 186.318C37.9545 186.294 38.0664 186.43 38.0664 186.569C38.0698 186.946 38.2021 187.268 38.4294 187.482C38.6228 187.662 38.8738 187.747 39.1451 187.73C41.6519 187.584 46.211 186.678 50.3053 185.038C50.4342 184.987 50.5835 185.048 50.6343 185.18C50.6852 185.309 50.6242 185.459 50.4919 185.513C46.3433 187.173 41.7164 188.093 39.1723 188.243C39.1417 188.243 39.1112 188.243 39.0807 188.243H39.0841Z" fill="#161742"/>
<path d="M37.232 191.265C36.4653 191.265 35.8378 191.17 35.4104 190.953C35.0576 190.773 34.8371 190.512 34.7523 190.186C34.7184 190.05 34.7998 189.911 34.9389 189.877C35.0712 189.843 35.2136 189.924 35.2476 190.063C35.2917 190.247 35.4206 190.389 35.641 190.501C37.7883 191.601 46.5773 189.058 50.8955 187.327C51.0244 187.276 51.1737 187.337 51.2246 187.469C51.2754 187.598 51.2144 187.748 51.0821 187.802C48.4634 188.851 41.0922 191.269 37.2252 191.269L37.232 191.265Z" fill="#161742"/>
<path d="M36.9676 193.751C36.8319 193.751 36.72 193.646 36.7132 193.51C36.7064 193.371 36.815 193.249 36.954 193.242C39.1657 193.133 47.5545 191.415 51.6793 189.762C51.8082 189.707 51.9575 189.772 52.0084 189.904C52.0593 190.033 51.9982 190.183 51.8659 190.237C47.6189 191.938 39.2743 193.639 36.9744 193.751C36.971 193.751 36.9676 193.751 36.9608 193.751H36.9676Z" fill="#161742"/>
<path d="M55.6719 185.98C55.5532 185.98 55.448 185.899 55.4243 185.78C55.3937 185.641 55.4819 185.508 55.621 185.478C55.6821 185.464 61.6692 184.116 63.9012 178.446C63.9521 178.313 64.1014 178.252 64.2303 178.303C64.3626 178.354 64.4236 178.504 64.3727 178.633C62.0355 184.561 55.7872 185.96 55.7228 185.973C55.7058 185.977 55.6854 185.98 55.6685 185.98H55.6719Z" fill="#161742"/>
<path d="M52.8054 192.291C52.7138 192.291 52.6223 192.24 52.5782 192.152C52.5171 192.026 52.5646 191.874 52.6935 191.809L58.3719 188.96C58.4974 188.899 58.6501 188.947 58.7145 189.072C58.7756 189.198 58.7281 189.351 58.5992 189.415L52.9208 192.264C52.8834 192.281 52.8461 192.291 52.8054 192.291Z" fill="#161742"/>
<path d="M288.098 16.783C287.833 16.783 287.572 16.6642 287.399 16.4401C287.101 16.053 287.175 15.4996 287.559 15.2008L299.923 5.65629C300.306 5.3575 300.863 5.4322 301.158 5.81588C301.456 6.20295 301.382 6.75641 300.998 7.0552L288.634 16.5997C288.475 16.7219 288.285 16.783 288.098 16.783Z" fill="#1D478E"/>
<path d="M293.125 26.7014C292.766 26.7014 292.427 26.4807 292.298 26.1208C292.131 25.6624 292.365 25.1565 292.823 24.9901L307.491 19.6355C307.946 19.4692 308.454 19.7035 308.621 20.1618C308.787 20.6202 308.553 21.1261 308.095 21.2925L293.427 26.6471C293.329 26.6844 293.227 26.7014 293.125 26.7014Z" fill="#1D478E"/>
<path d="M309.889 37.1012H309.883L294.272 36.962C293.783 36.9586 293.393 36.5579 293.397 36.0724C293.4 35.5834 293.783 35.1726 294.285 35.1964L309.896 35.3356C310.385 35.339 310.775 35.7396 310.771 36.2252C310.768 36.7107 310.374 37.1012 309.889 37.1012Z" fill="#1D478E"/>
<path d="M226.629 77.4812L218.615 79.6307C218.184 79.7462 217.928 80.1893 218.044 80.6204L226.691 112.926C226.807 113.357 227.25 113.613 227.68 113.497L235.695 111.347C236.125 111.232 236.381 110.789 236.266 110.358L227.618 78.0526C227.502 77.6215 227.06 77.3656 226.629 77.4812Z" fill="#1D478E"/>
<path d="M223.383 78.3525L226.829 77.428C227.19 77.3313 227.56 77.545 227.656 77.9058L236.372 110.463C236.468 110.824 236.255 111.194 235.894 111.291L232.447 112.216C232.087 112.312 231.717 112.098 231.621 111.738L222.905 79.18C222.809 78.8192 223.022 78.4491 223.383 78.3525Z" fill="#161742"/>
<path d="M201.537 70.0444C200.106 64.7 203.074 59.2639 208.162 57.899C213.25 56.534 218.535 59.7597 219.967 65.1007C221.398 70.4416 218.43 75.8811 213.342 77.246C208.254 78.611 202.969 75.3854 201.537 70.0444Z" fill="#32B353"/>
<path d="M266.996 74.1403C264.723 74.1403 262.236 72.609 259.855 69.7127C257.104 66.3615 254.797 61.5569 253.359 56.182C250.306 44.7802 252.07 34.7366 257.369 33.3139C259.96 32.6179 262.942 34.1322 265.768 37.5786C268.519 40.9298 270.825 45.7343 272.267 51.1093C275.316 62.5111 273.556 72.5547 268.254 73.9774C267.844 74.086 267.423 74.1437 266.992 74.1437L266.996 74.1403ZM258.637 34.0304C258.281 34.0304 257.939 34.0745 257.599 34.1662C252.854 35.4395 251.334 45.2114 254.211 55.9511C255.618 61.2072 257.864 65.8963 260.537 69.1525C263.132 72.3136 265.798 73.7193 268.027 73.1251C272.769 71.8518 274.292 62.0798 271.415 51.3402C270.008 46.0841 267.762 41.395 265.089 38.1422C262.884 35.4564 260.632 34.0372 258.637 34.0372V34.0304Z" fill="#161742"/>
<path d="M211.493 50.8254L240.401 43.0703L248.671 73.9584L219.763 81.7135C214.682 83.0343 208.732 77.2349 206.456 68.7294C204.18 60.2239 206.435 52.2243 211.493 50.8254Z" fill="#1D478E"/>
<path d="M240.401 43.0675L266.504 19.0586L283.268 81.6835L248.668 73.9556C243.586 75.2764 237.636 69.477 235.36 60.9715C233.084 52.466 235.34 44.4664 240.398 43.0675H240.401Z" fill="#32B353"/>
<path d="M283.229 81.6997C291.072 79.5962 293.678 63.8753 289.05 46.5861C284.422 29.2969 274.312 16.9865 266.469 19.09C258.626 21.1935 256.02 36.9143 260.649 54.2035C265.277 71.4927 275.386 83.8032 283.229 81.6997Z" fill="#478B4D"/>
<path d="M282.295 78.212C289.262 76.3434 291.576 62.3753 287.464 47.0134C283.352 31.6514 274.37 20.7129 267.403 22.5815C260.436 24.4501 258.122 38.4182 262.234 53.7801C266.347 69.142 275.328 80.0806 282.295 78.212Z" fill="#32B353"/>
<path d="M262.582 44.1214C261.853 44.3183 261.168 44.5967 260.537 44.943C260.863 47.7782 261.422 50.7492 262.233 53.7745C263.04 56.793 264.038 59.6418 265.171 62.2562C265.893 62.2393 266.626 62.1374 267.355 61.9439C272.27 60.6264 275.188 55.5673 273.871 50.6473C272.555 45.7274 267.501 42.8073 262.586 44.1248L262.582 44.1214Z" fill="#161742"/>
<path d="M224.95 120.129C224.95 120.129 219.902 113.467 219.902 110.025C219.902 106.582 224.034 102.398 224.034 102.398L227.613 115.169L224.95 120.129Z" fill="#E27755"/>
<path d="M234.618 120.127C234.618 120.127 236.961 114.341 238.349 110.783C239.594 107.591 239.061 101.782 237.277 100.111C235.493 98.4406 232.765 97.1367 232.765 97.1367L233.407 99.6188L224.492 105.571L224.943 120.127H234.611H234.618Z" fill="#E27755"/>
<path d="M222.901 106.58C222.769 106.58 222.637 106.512 222.562 106.39C222.447 106.203 222.508 105.959 222.694 105.843L233.593 99.1711C233.78 99.0591 234.024 99.1134 234.139 99.3035C234.255 99.4903 234.194 99.7347 234.007 99.8502L223.108 106.522C223.044 106.563 222.972 106.58 222.901 106.58Z" fill="#161742"/>
<path d="M79.2003 424.852L84.3416 417.629C85.9081 415.424 84.5286 412.394 81.7939 412.034L74.2001 411.033C71.7537 410.712 69.6721 412.76 70.043 415.126L71.7384 426L79.1973 424.855L79.2003 424.852Z" fill="#1D478E"/>
<path d="M60.8888 393.996L84.0164 399.456L76.2654 432.174L57.3711 435.715L54.5557 431.077L60.8888 393.996Z" fill="#161742"/>
<path d="M166.489 424.89L165.051 416.206C164.614 413.558 167.06 411.37 169.564 412.166L176.523 414.379C178.766 415.093 179.71 417.811 178.409 419.812L172.442 429L166.489 424.89Z" fill="#1D478E"/>
<path d="M171.938 399.105L147.965 401.672L148.284 426.999L166.436 434.886L170.431 430.092L171.938 399.105Z" fill="#161742"/>
<path d="M135.234 234.848L103.165 385.394L52.7002 373.948C52.7002 373.948 81.7268 248.963 95.2106 217.182C108.691 185.401 118.579 163.931 118.579 163.931L144.929 163.684L135.234 234.851V234.848Z" fill="#161742"/>
<path d="M161.775 177.709C161.775 177.709 173.064 211.826 179.132 257.345C185.201 302.864 181.157 384.765 181.157 384.765L134 385.634L127.636 239.39L117.358 234.833L127.331 168.688L161.775 177.709Z" fill="#161742"/>
<path d="M110.591 213.994C110.56 213.994 110.526 213.99 110.496 213.983C110.258 213.929 110.109 213.695 110.16 213.457L120.241 168.135C120.292 167.897 120.53 167.748 120.767 167.799C121.005 167.853 121.154 168.088 121.103 168.325L111.021 213.647C110.977 213.854 110.794 213.994 110.591 213.994Z" fill="#FFF3EB"/>
<path d="M168.793 384.047C168.576 384.047 168.4 383.87 168.4 383.65C168.4 382.791 168.613 297.321 167.158 268.708C165.703 240.109 154.597 172.139 154.485 171.457C154.451 171.243 154.594 171.039 154.811 171.002C155.021 170.965 155.228 171.111 155.265 171.328C155.377 172.01 166.493 240.024 167.948 268.667C169.404 297.301 169.193 382.791 169.193 383.65C169.193 383.867 169.017 384.043 168.8 384.043L168.793 384.047Z" fill="#FFF3EB"/>
<path d="M171.653 133.435C171.653 133.435 192.664 156.765 213.966 168.687C228.946 177.07 241.13 117.711 241.13 117.711H216.995L213.474 132.505C213.474 132.505 188.6 98.4118 178.403 89.8486C168.206 81.2854 148.698 79.9815 139.797 79.2855C130.899 78.5894 123.718 70.6543 100.082 101.525C76.4452 132.396 51.998 170.995 51.998 170.995L71.7573 186.631L109.274 134.376V175.433L165.048 177.847L171.649 133.432L171.653 133.435Z" fill="#1D478E"/>
<path d="M222.28 143.702C222.148 143.702 222.019 143.641 221.931 143.529L205.442 122.022C205.292 121.829 205.33 121.554 205.523 121.404C205.713 121.255 205.991 121.292 206.14 121.486L222.63 142.992C222.779 143.186 222.742 143.461 222.548 143.61C222.467 143.671 222.372 143.702 222.28 143.702Z" fill="#161742"/>
<path d="M109.719 147.423C109.719 147.423 109.709 147.423 109.705 147.423C109.461 147.416 109.271 147.212 109.278 146.968C109.732 133.019 114.705 99.5474 114.756 99.2113C114.793 98.9702 115.017 98.8038 115.258 98.8412C115.499 98.8785 115.665 99.1026 115.628 99.3437C115.577 99.6798 110.614 133.101 110.16 146.998C110.153 147.236 109.956 147.426 109.719 147.426V147.423Z" fill="#161742"/>
<path d="M173.291 120.564C173.291 120.564 173.257 120.574 173.24 120.577C173.003 120.628 172.769 120.475 172.718 120.238C168.603 100.707 177.545 93.9641 177.925 93.6891C178.118 93.5465 178.396 93.5906 178.539 93.7875C178.681 93.9845 178.637 94.2595 178.44 94.4055C178.352 94.47 169.59 101.132 173.576 120.058C173.623 120.279 173.494 120.496 173.284 120.567L173.291 120.564Z" fill="#161742"/>
<path d="M167.223 158.72C167.09 158.72 166.958 158.658 166.873 158.546L156.106 144.411C155.957 144.218 155.998 143.939 156.191 143.793C156.381 143.647 156.659 143.681 156.809 143.875L167.575 158.01C167.725 158.203 167.684 158.482 167.491 158.628C167.412 158.689 167.318 158.72 167.223 158.72Z" fill="#161742"/>
<path d="M216.738 118.982C216.554 118.982 216.402 118.788 216.398 118.547C216.398 118.303 216.544 118.102 216.731 118.102L241.232 117.719C241.412 117.729 241.572 117.912 241.575 118.153C241.575 118.398 241.429 118.598 241.243 118.598L216.741 118.982H216.738Z" fill="#161742"/>
<path d="M76.0992 181.603C76.028 181.603 75.9568 181.576 75.8957 181.521L56.6453 163.889C56.5028 163.757 56.4791 163.519 56.591 163.353C56.703 163.186 56.9099 163.159 57.0523 163.288L76.3028 180.921C76.4452 181.053 76.469 181.291 76.357 181.457C76.2926 181.552 76.1942 181.603 76.0992 181.603Z" fill="#161742"/>
<path d="M128.759 265.635C128.549 265.635 128.372 265.469 128.365 265.258L127.253 239.654L117.198 235.195C116.998 235.107 116.91 234.873 116.998 234.676C117.086 234.476 117.321 234.387 117.517 234.476L127.795 239.032C127.931 239.093 128.023 239.226 128.03 239.375L129.156 265.224C129.166 265.442 128.996 265.625 128.779 265.635C128.772 265.635 128.769 265.635 128.762 265.635H128.759Z" fill="#FFF3EB"/>
<path d="M147.287 421.303L141.272 450.833L210.23 451L210.357 441.652C210.444 435.26 205.929 429.69 199.551 428.325L172.927 422.631L157.018 427.02L147.284 421.303H147.287Z" fill="#1D478E"/>
<path d="M210.328 444.149H143.129C142.922 444.149 142.754 443.982 142.754 443.774C142.754 443.566 142.922 443.399 143.129 443.399H210.328C210.536 443.399 210.703 443.566 210.703 443.774C210.703 443.982 210.536 444.149 210.328 444.149Z" fill="#161742"/>
<path d="M47.9196 422.362L41 449.128H108.957L110.928 441.692C111.77 432.131 105.168 425.182 95.0292 423.684L78.7124 422.168L67.3191 426.363L58.9421 419.899C56.0336 417.658 51.712 418.043 49.3231 420.76L47.9164 422.359L47.9196 422.362Z" fill="#1D478E"/>
<path d="M102.63 442.68H43.9212C43.693 442.68 43.5093 442.51 43.5093 442.298C43.5093 442.087 43.693 441.916 43.9212 441.916H102.63C102.858 441.916 103.042 442.087 103.042 442.298C103.042 442.51 102.858 442.68 102.63 442.68Z" fill="#161742"/>
<path d="M171.639 85.6753L149.346 80.4973L150.635 65.3945L170.065 70.2432" fill="#161742"/>
<path d="M139.156 57.7881C135.14 45.2862 143.952 36.4344 153.891 33.2088C167.535 28.7811 179.892 36.3427 177.599 45.3406C174.872 56.0531 165.414 55.9274 155.384 57.2856C143.505 58.8916 142.433 67.9811 139.156 57.7881Z" fill="#161742"/>
<path d="M164.956 71.1475L161.374 83.1876L146.496 80.821L151.924 64.832L164.956 71.1475Z" fill="#E27755"/>
<path d="M150.418 69.2664L162.87 78.159L164.956 71.1475L151.924 64.832L150.418 69.2664Z" fill="#161742"/>
<path d="M143.047 61.0073C140.146 50.1692 145.937 39.202 155.984 36.506C166.032 33.8101 176.737 35.0256 179.427 51.2489C181.262 62.3179 179.034 72.6468 168.722 74.0151C156.51 75.6347 145.947 71.8455 143.047 61.0073Z" fill="#E27755"/>
<path d="M167.121 48.6388C166.948 48.6388 166.778 48.5539 166.673 48.4011C166.503 48.1533 166.571 47.8171 166.819 47.6474C171.456 44.5134 175.394 46.3265 175.56 46.4046C175.828 46.5337 175.944 46.8562 175.815 47.1245C175.686 47.3927 175.367 47.5115 175.095 47.3825C174.95 47.318 171.53 45.7697 167.419 48.5438C167.327 48.6049 167.222 48.6354 167.117 48.6354L167.121 48.6388Z" fill="#161742"/>
<path d="M164.21 39.0138C169.471 38.8746 174.088 40.5043 176.88 42.3243C172.599 33.34 163.203 33.958 155.849 35.9307C145.574 38.6878 139.651 49.9028 142.619 60.9855C143.04 62.5609 143.637 63.9734 144.356 65.2603L145.682 66.2416L150.106 52.9282C161.836 49.7806 164.214 39.0138 164.214 39.0138H164.21Z" fill="#161742"/>
<path d="M138.342 54.7221C138.342 54.7221 141.052 64.6198 139.895 75.1829C138.738 85.7494 130.105 94.3466 130.105 94.3466L139.451 95.5723L147.802 87.3079L143.861 96.1495L149.97 96.9509C149.97 96.9509 158.942 87.0974 152.714 63.8286L138.345 54.7188L138.342 54.7221Z" fill="#161742"/>
<path d="M130.122 41.4686C127.009 37.8695 127.019 32.7526 130.15 30.0397C133.281 27.3268 138.342 28.0432 141.456 31.6423C144.57 35.2415 144.559 40.3583 141.429 43.0713C138.298 45.7842 133.236 45.0678 130.122 41.4686Z" fill="#161742"/>
<mask id="mask0_207_1017" style="mask-type:luminance" maskUnits="userSpaceOnUse" x="127" y="28" width="17" height="17">
<path d="M130.122 41.4686C127.009 37.8695 127.019 32.7526 130.15 30.0397C133.281 27.3268 138.342 28.0432 141.456 31.6423C144.57 35.2415 144.559 40.3583 141.429 43.0713C138.298 45.7842 133.236 45.0678 130.122 41.4686Z" fill="white"/>
</mask>
<g mask="url(#mask0_207_1017)">
<path d="M132.911 46.4771C132.734 46.4771 132.558 46.3889 132.456 46.2293C132.293 45.978 132.368 45.6419 132.619 45.4823C142.45 39.1634 140.011 27.7786 139.987 27.6666C139.919 27.3746 140.102 27.086 140.394 27.018C140.682 26.9501 140.974 27.1335 141.042 27.4255C141.069 27.5477 143.684 39.6592 133.206 46.3956C133.114 46.4534 133.013 46.4805 132.914 46.4805L132.911 46.4771Z" fill="#161742"/>
<path d="M138.23 41.1483C138.04 41.1483 137.857 41.0464 137.755 40.8699L130.77 28.239C130.625 27.9775 130.72 27.6481 130.981 27.5021C131.242 27.3561 131.571 27.4512 131.717 27.7127L138.701 40.3436C138.847 40.605 138.752 40.9344 138.491 41.0804C138.406 41.1279 138.318 41.1483 138.23 41.1483Z" fill="#161742"/>
</g>
<path d="M145.336 54.4885C143.104 54.4885 140.655 54.0912 137.999 53.1133C137.718 53.0115 137.575 52.6991 137.677 52.4173C137.782 52.1354 138.091 51.9928 138.372 52.0947C148.817 55.9315 155.788 50.5328 158.593 47.6297C155.316 48.6416 148.45 49.6228 139.773 44.5229C139.515 44.3701 139.427 44.0408 139.58 43.7827C139.733 43.5247 140.068 43.4398 140.319 43.5892C151.768 50.3121 160.072 45.8913 160.157 45.8471C160.377 45.7249 160.652 45.7724 160.821 45.9592C160.991 46.1459 161.008 46.4278 160.862 46.6315C160.794 46.7265 155.194 54.4851 145.34 54.4851L145.336 54.4885Z" fill="#1D478E"/>
<path d="M155.91 54.3191C154.081 51.1818 150.384 49.9594 147.653 51.5892C144.922 53.219 144.193 57.0864 146.021 60.2238C147.85 63.3611 151.547 64.5835 154.278 62.9537C157.009 61.3239 157.738 57.4565 155.91 54.3191Z" fill="#E27755"/>
<path d="M153.206 58.9539C153.097 58.9539 152.989 58.9233 152.894 58.8554L147.884 55.331C147.64 55.1578 147.582 54.8217 147.751 54.5772C147.924 54.3327 148.264 54.275 148.505 54.4448L153.515 57.9692C153.759 58.1424 153.817 58.4785 153.647 58.723C153.542 58.8724 153.376 58.9539 153.203 58.9539H153.206Z" fill="#161742"/>
<path d="M149.641 60.4494C149.522 60.4494 149.403 60.412 149.302 60.3305C149.068 60.1438 149.03 59.8042 149.217 59.5699L151.025 57.3052C151.211 57.0709 151.551 57.0336 151.785 57.2203C152.019 57.4071 152.056 57.7466 151.869 57.9809L150.061 60.2456C149.956 60.378 149.797 60.4494 149.637 60.4494H149.641Z" fill="#161742"/>
<path d="M178.138 59.2283C178.22 59.2894 178.328 59.3131 178.433 59.2792L180.777 58.5118C180.883 58.4779 180.964 58.3964 180.998 58.2911C181.032 58.1859 181.015 58.0738 180.95 57.9889L179.712 56.3761C179.604 56.2335 179.4 56.2131 179.254 56.3286C179.108 56.444 179.081 56.6511 179.19 56.7938L180.14 58.0365L178.254 58.6544C178.081 58.7122 177.979 58.8989 178.03 59.0721C178.05 59.14 178.087 59.1943 178.138 59.2351V59.2283Z" fill="#161742"/>
<path d="M177.891 59.1071C177.819 58.8593 177.962 58.5944 178.21 58.5129L179.902 57.9561L179.075 56.8763C178.918 56.6726 178.959 56.3738 179.166 56.2074C179.268 56.1259 179.393 56.0886 179.519 56.1056C179.644 56.1226 179.753 56.1837 179.828 56.2787L181.062 57.895C181.157 58.0172 181.184 58.1802 181.134 58.3296C181.086 58.479 180.967 58.5978 180.821 58.642L178.478 59.4127C178.328 59.4602 178.169 59.4331 178.047 59.338C177.972 59.2803 177.914 59.1954 177.887 59.1037L177.891 59.1071ZM179.485 56.3976C179.434 56.3908 179.387 56.4044 179.343 56.4383C179.261 56.5062 179.241 56.6251 179.302 56.7032L180.255 57.9425C180.282 57.9798 180.292 58.0308 180.279 58.0749C180.265 58.1191 180.231 58.153 180.187 58.17L178.298 58.788C178.196 58.8219 178.138 58.9306 178.165 59.029C178.193 59.1207 178.294 59.1716 178.386 59.1445L180.73 58.3737C180.788 58.3567 180.835 58.3058 180.855 58.2447C180.876 58.187 180.866 58.1258 180.828 58.0783L179.59 56.4621C179.59 56.4621 179.573 56.4417 179.563 56.4315C179.539 56.4112 179.509 56.401 179.478 56.3976H179.485Z" fill="#161742"/>
<path d="M169.743 51.5089C170.621 52.2661 171.676 52.8331 172.87 52.6497C173.898 52.4901 174.844 51.7262 175.465 50.9249C175.676 50.6532 175.73 50.2899 175.465 50.0251C175.245 49.8044 174.777 49.7534 174.566 50.0251C174.085 50.6464 173.427 51.2372 172.67 51.3968C172.351 51.4647 171.961 51.3968 171.605 51.2474C171.276 51.1048 170.923 50.8536 170.638 50.6091C170.377 50.385 169.994 50.3544 169.739 50.6091C169.509 50.84 169.478 51.2848 169.739 51.5089H169.743Z" fill="#161742"/>
<path d="M176.015 67.5352C173.182 67.8646 171.859 64.8596 173.03 64.4793C174.091 64.133 177.758 63.0091 178.915 62.6017C179.661 62.6017 178.522 67.2398 176.018 67.5318L176.015 67.5352Z" fill="#161742"/>
</svg>
