<svg width="316" height="404" viewBox="0 0 316 404" fill="none" xmlns="http://www.w3.org/2000/svg">
<ellipse cx="141.311" cy="134.587" rx="134.689" ry="134.587" fill="#EFF9FD"/>
<mask id="mask0_512_848" style="mask-type:alpha" maskUnits="userSpaceOnUse" x="6" y="0" width="270" height="270">
<ellipse cx="141.311" cy="134.587" rx="134.689" ry="134.587" fill="#1D478E"/>
</mask>
<g mask="url(#mask0_512_848)">
<path d="M6.62436 82.4641L71.4525 97.5542L2.84724 129.556L6.62436 82.4641Z" fill="#FFD327"/>
<path d="M55.5749 18.091L81.2154 44.3143L19.2211 26.408L55.5749 18.091Z" fill="#FFD327"/>
<path d="M83.4143 12.7902L92.5034 26.7458L70.8232 15.4548L83.4143 12.7902Z" fill="#FFD327"/>
<path d="M107.436 2.68191L107.565 19.053L92.2217 5.97021L107.436 2.68191Z" fill="#FFD327"/>
<path d="M6.625 31.4321L73.3259 69.3118L15.8484 71.8933L6.625 31.4321Z" fill="#FFD327"/>
</g>
<path d="M198.472 30.4749C201.671 30.2945 204.87 30.8131 207.844 32.0065C208.09 32.1064 207.934 32.4848 207.687 32.3882C204.787 31.2204 201.657 30.7036 198.534 30.8835C198.27 30.8975 198.211 30.4926 198.475 30.4753L198.472 30.4749Z" fill="#1D478E"/>
<path d="M195.547 32.2726C200.475 31.1613 205.765 32.0195 210.091 34.6214C210.316 34.7584 210.068 35.0824 209.842 34.9486C205.608 32.4045 200.422 31.5955 195.606 32.6808C195.347 32.7385 195.288 32.3303 195.547 32.2726Z" fill="#1D478E"/>
<path d="M193.439 34.0215C198.076 32.9639 203.235 32.8319 207.655 34.8091C209.066 35.4397 210.368 36.2886 211.51 37.3268C211.704 37.503 211.458 37.8339 211.261 37.654C207.401 34.1485 202.043 33.3051 197.006 33.8399C195.827 33.9668 194.655 34.1642 193.498 34.4297C193.239 34.4874 193.183 34.0829 193.439 34.0215Z" fill="#1D478E"/>
<path d="M191.723 36.0555C196.877 33.9713 202.893 33.9876 207.871 36.5767C209.51 37.4274 210.996 38.531 212.317 39.8196C212.503 40.0015 212.254 40.3321 212.068 40.1469C209.865 37.9978 207.193 36.4007 204.215 35.5911C201.548 34.8662 198.72 34.784 196.002 35.2556C194.593 35.5 193.211 35.8969 191.885 36.4333C191.641 36.5325 191.478 36.1547 191.723 36.0555Z" fill="#1D478E"/>
<path d="M190.369 38.2708C195.842 34.864 202.846 35.0446 208.265 38.4666C210.019 39.5732 211.561 40.9785 212.884 42.569C213.055 42.7722 212.729 43.0237 212.561 42.8209C210.356 40.1778 207.519 38.09 204.23 37.007C201.33 36.0513 198.185 35.9269 195.217 36.6527C193.596 37.0501 192.036 37.7101 190.621 38.5934C190.399 38.7317 190.143 38.4088 190.369 38.2708Z" fill="#1D478E"/>
<path d="M200.793 37.1522C203.244 37.3637 205.618 38.1521 207.701 39.4681C209.975 40.9069 211.802 42.9303 213.148 45.2493C213.283 45.4779 212.902 45.6365 212.77 45.4116C210.219 41.0263 205.843 37.9974 200.743 37.5602C200.481 37.538 200.531 37.1299 200.793 37.1522Z" fill="#1D478E"/>
<path d="M189.224 40.9231C191.239 39.2289 193.624 38.034 196.199 37.4588C196.458 37.4011 196.517 37.8093 196.258 37.867C193.755 38.4245 191.439 39.6013 189.475 41.2489C189.272 41.4194 189.02 41.0936 189.223 40.9263L189.224 40.9231Z" fill="#1D478E"/>
<path d="M188.367 43.8949C190.883 40.8308 194.508 38.751 198.499 38.4657C202.319 38.1925 206.114 39.5861 208.868 42.2435C210.635 43.9481 211.923 46.071 212.761 48.3674C212.853 48.614 212.475 48.7796 212.383 48.5297C210.99 44.7273 208.297 41.4379 204.503 39.8489C201.126 38.4336 197.253 38.538 193.93 40.0551C191.888 40.9874 190.115 42.413 188.695 44.1439C188.527 44.3486 188.2 44.0997 188.367 43.8949Z" fill="#1D478E"/>
<path d="M187.708 47.7187C189.374 43.606 193.005 40.566 197.432 39.9167C201.724 39.2872 206.067 40.9966 208.839 44.3156C210.767 46.6232 211.834 49.5142 212.281 52.4649C212.321 52.7283 211.913 52.7875 211.872 52.5241C211.156 47.7743 208.64 43.2343 204.099 41.2223C200.382 39.5732 195.933 39.9447 192.564 42.2316C190.527 43.615 189.009 45.6055 188.087 47.8778C187.987 48.124 187.608 47.9681 187.705 47.7216L187.708 47.7187Z" fill="#1D478E"/>
<path d="M210.575 55.0255C210.794 51.9776 210.3 48.7924 208.515 46.2407C207.091 44.2037 204.956 42.7655 202.561 42.1268C200.249 41.5084 197.734 41.6271 195.49 42.4615C193.179 43.3209 191.185 44.9481 189.983 47.1133C188.671 49.477 188.548 52.1556 188.655 54.8129C188.673 55.2391 188.648 55.6536 188.528 56.0662C188.454 56.3189 188.075 56.163 188.146 55.91C188.308 55.3435 188.235 54.7514 188.22 54.173C188.206 53.5848 188.209 52.9921 188.235 52.4055C188.274 51.5256 188.359 50.6447 188.535 49.7784C188.694 48.9993 188.956 48.2695 189.296 47.5525C190.397 45.2357 192.317 43.4006 194.657 42.3592C196.916 41.351 199.5 41.0784 201.924 41.5648C204.409 42.0622 206.704 43.361 208.323 45.3225C210.26 47.6643 211.034 50.7015 211.03 53.6964C211.03 54.1602 211.009 54.6215 210.976 55.0846C210.957 55.3473 210.548 55.2972 210.567 55.0345L210.575 55.0255Z" fill="#1D478E"/>
<path d="M189.11 57.9896C189.333 57.3842 189.614 56.7195 189.644 56.0672C189.662 55.652 189.658 55.2306 189.666 54.8141C189.681 54.0207 189.698 53.2278 189.726 52.436C189.744 51.8616 189.741 51.2681 189.824 50.6985C189.863 50.4382 190.271 50.485 190.232 50.7486C190.149 51.3182 190.152 51.9117 190.134 52.4861C190.107 53.3011 190.089 54.1173 190.072 54.9303C190.065 55.3403 190.077 55.7559 190.05 56.1667C190.004 56.8337 189.721 57.5212 189.489 58.1421C189.395 58.3891 189.017 58.2333 189.107 57.9859L189.11 57.9896Z" fill="#1D478E"/>
<path d="M208.93 55.7474C209.383 51.4459 208.362 46.6952 204.494 44.2192C201.581 42.3506 197.68 42.3057 194.704 44.0643C192.924 45.118 191.599 46.7712 190.872 48.6964C190.779 48.9434 190.397 48.7871 190.49 48.5401C191.832 44.9841 195.157 42.5692 198.957 42.3797C202.768 42.1882 206.334 44.2231 208.094 47.6066C209.397 50.1125 209.629 53.0269 209.338 55.7976C209.309 56.0591 208.901 56.009 208.93 55.7474Z" fill="#1D478E"/>
<path d="M206.904 61.7081C206.642 61.6761 206.689 61.2677 206.954 61.3001C207.218 61.3326 207.168 61.7406 206.904 61.7081Z" fill="#1D478E"/>
<path d="M190.01 59.2062C191.447 55.9036 190.578 52.1589 191.72 48.777C192.219 47.3009 193.127 46.0141 194.434 45.1474C195.697 44.3118 197.175 43.8902 198.681 43.8067C201.035 43.6749 203.507 44.2832 205.256 45.9161C206.877 47.4305 207.654 49.4741 208.024 51.6168C208.599 54.9511 208.163 58.3865 207.12 61.5818C207.04 61.8336 206.658 61.6741 206.738 61.4255C207.664 58.5903 208.095 55.5717 207.748 52.5968C207.516 50.5936 206.975 48.5259 205.663 46.9468C204.214 45.1983 202.159 44.3529 199.901 44.2149C196.741 44.0225 193.545 45.3663 192.29 48.4229C190.857 51.9115 191.9 55.8864 190.388 59.362C190.282 59.6041 189.904 59.4483 190.006 59.2058L190.01 59.2062Z" fill="#1D478E"/>
<path d="M206.855 52.929C206.867 56.3565 206.144 59.7599 205.39 63.09C205.332 63.3446 204.924 63.2978 204.982 63.0399C205.739 59.7135 206.462 56.3101 206.447 52.8789C206.446 52.6137 206.854 52.6671 206.855 52.929Z" fill="#1D478E"/>
<path d="M190.787 60.428C192.402 59.2148 192.63 57.0594 192.538 55.1893C192.439 53.1891 192.146 51.1519 192.982 49.2599C194.364 46.1361 197.842 44.363 201.166 45.2151C202.931 45.667 204.501 46.761 205.413 48.3507C205.544 48.5788 205.166 48.7412 205.035 48.513C203.331 45.547 199.245 44.5783 196.305 46.2087C194.879 46.9977 193.742 48.316 193.188 49.8517C192.478 51.8254 192.964 53.9361 192.966 55.974C192.968 57.7403 192.518 59.6465 191.038 60.7571C190.826 60.9166 190.574 60.5941 190.786 60.4346L190.787 60.428Z" fill="#1D478E"/>
<path d="M191.99 61.1491C193.462 60.0177 193.857 58.1311 193.871 56.3702C193.88 55.3476 193.794 54.3231 193.771 53.2997C193.748 52.3824 193.671 51.4452 193.852 50.5364C194.435 47.5995 197.594 45.9926 200.398 46.3269C202.882 46.6219 204.581 48.7423 205.299 50.9941C205.503 51.632 205.547 52.3201 205.552 52.9866C205.567 54.5358 205.302 56.0672 204.978 57.5747C204.513 59.7343 204.042 61.8931 203.622 64.0648C203.574 64.3239 203.166 64.2738 203.214 64.0147C203.51 62.4673 203.842 60.9276 204.168 59.387C204.701 56.8847 205.496 54.1692 205.017 51.589C204.653 49.6159 203.231 47.6422 201.309 46.9524C198.562 45.9657 194.85 47.6206 194.253 50.589C194.046 51.6304 194.149 52.7331 194.185 53.7879C194.22 54.8227 194.305 55.8569 194.261 56.8886C194.186 58.6089 193.652 60.3857 192.235 61.4741C192.026 61.6373 191.771 61.3111 191.983 61.1515L191.99 61.1491Z" fill="#1D478E"/>
<path d="M192.701 62.4487C194.918 60.405 195.275 57.3939 195.09 54.5348C194.989 53.005 194.562 51.3257 195.245 49.8689C195.745 48.7971 196.786 48.0766 197.904 47.77C200.203 47.1443 202.915 48.3354 203.798 50.5909C204.237 51.715 204.249 52.9921 204.196 54.1817C204.151 55.1933 204.027 56.2019 203.858 57.2017C203.42 59.792 202.819 62.5743 201.436 64.8399C201.299 65.0649 200.972 64.816 201.109 64.5909C202.317 62.6088 202.876 60.1957 203.306 57.9391C203.694 55.9159 204.028 53.737 203.67 51.6917C203.235 49.2162 200.774 47.6252 198.308 48.1011C197.048 48.344 195.879 49.168 195.47 50.4167C194.992 51.8788 195.46 53.5465 195.524 55.0454C195.642 57.8895 195.133 60.7659 192.952 62.7778C192.758 62.956 192.505 62.6335 192.7 62.4553L192.701 62.4487Z" fill="#1D478E"/>
<path d="M193.628 63.534C194.549 62.1428 195.472 60.7287 196.089 59.1675C196.397 58.387 196.623 57.5699 196.706 56.7319C196.791 55.8841 196.683 55.0591 196.554 54.2215C196.354 52.9114 196.195 51.5036 196.944 50.3232C197.618 49.2596 198.912 48.9314 200.082 49.287C201.527 49.7294 202.369 51.1019 202.646 52.5176C202.697 52.7789 202.289 52.8349 202.238 52.5768C201.987 51.3001 201.231 50.0576 199.923 49.6651C198.567 49.26 197.337 49.9805 196.942 51.3103C196.529 52.6977 197.042 54.1389 197.132 55.535C197.222 56.9078 196.91 58.2611 196.383 59.5251C195.756 61.0352 194.853 62.4187 193.953 63.776C193.807 63.9966 193.479 63.7477 193.626 63.5271L193.628 63.534Z" fill="#1D478E"/>
<path d="M200.75 59.2527C200.152 61.555 198.852 63.5524 197.689 65.5964C197.558 65.8222 197.176 65.6692 197.307 65.4401C198.449 63.4366 199.756 61.46 200.342 59.2026C200.406 58.9488 200.815 58.9956 200.75 59.2527Z" fill="#1D478E"/>
<path d="M195.017 64.2181C196.583 62.2402 197.635 59.8876 198.044 57.3998C198.249 56.1626 198.294 54.9025 198.176 53.6554C198.079 52.666 197.85 51.3126 198.94 50.7605C200.036 50.2026 200.848 51.3692 201.12 52.2807C201.196 52.5318 200.817 52.6974 200.742 52.443C200.576 51.8825 200.23 51.078 199.546 51.037C198.555 50.9783 198.438 52.2198 198.505 52.9172C198.636 54.305 198.703 55.655 198.512 57.0431C198.143 59.7512 197.036 62.329 195.34 64.4732C195.175 64.6816 194.848 64.4327 195.013 64.2243L195.017 64.2181Z" fill="#1D478E"/>
<path d="M196.074 64.6169C198.766 61.1999 199.713 56.8664 199.483 52.5871C199.469 52.3237 199.875 52.2641 199.892 52.528C200.128 56.9173 199.164 61.3614 196.402 64.8658C196.237 65.0742 195.91 64.8252 196.074 64.6169Z" fill="#1D478E"/>
<path d="M199.488 65.2104C202.355 60.7712 202.737 54.2113 202.738 54.1452L202.409 54.128C202.404 54.1937 202.029 60.6683 199.211 65.0339L199.487 65.2136L199.488 65.2104Z" fill="#1D478E"/>
<path d="M201.273 53.0323C201.606 54.7198 201.539 56.4511 201.099 58.1134C201.032 58.3668 200.653 58.211 200.717 57.9572C201.138 56.3687 201.18 54.704 200.865 53.0915C200.814 52.8301 201.222 52.7742 201.273 53.0323Z" fill="#1D478E"/>
<path d="M202.725 53.0978L202.737 53.3213C202.744 53.3487 202.74 53.378 202.73 53.4033C202.727 53.4295 202.714 53.4544 202.698 53.4756C202.682 53.4969 202.664 53.5144 202.639 53.5279C202.617 53.5451 202.593 53.5521 202.566 53.5554C202.546 53.553 202.53 53.5543 202.51 53.5552C202.474 53.5507 202.439 53.5365 202.409 53.513C202.397 53.5016 202.385 53.4869 202.37 53.4751C202.347 53.4458 202.335 53.4144 202.329 53.3773L202.317 53.1538C202.311 53.1265 202.314 53.0971 202.324 53.0718C202.327 53.0457 202.34 53.0208 202.356 52.9995C202.372 52.9783 202.391 52.9607 202.415 52.9472C202.437 52.93 202.461 52.923 202.488 52.9197C202.508 52.9221 202.525 52.9208 202.545 52.92C202.581 52.9244 202.615 52.9386 202.646 52.9622C202.657 52.9736 202.669 52.9882 202.684 53C202.707 53.0294 202.72 53.0607 202.725 53.0978Z" fill="#1D478E"/>
<path d="M205.88 48.987C206.385 49.7349 206.733 50.5761 206.896 51.4641C206.943 51.7251 206.535 51.7843 206.487 51.5233C206.339 50.7066 206.02 49.9286 205.558 49.239C205.408 49.0219 205.732 48.7667 205.88 48.987Z" fill="#1D478E"/>
<path d="M190.359 49.4518C190.332 49.5612 190.306 49.6673 190.279 49.7767C190.275 49.806 190.269 49.8318 190.253 49.853C190.24 49.8779 190.225 49.8959 190.203 49.9131C190.162 49.9446 190.1 49.9635 190.052 49.9542C190 49.9478 189.946 49.9214 189.915 49.8778C189.887 49.8379 189.861 49.7784 189.874 49.727C189.901 49.6176 189.927 49.5115 189.954 49.4021C189.958 49.3727 189.964 49.347 189.98 49.3258C189.993 49.3009 190.008 49.2829 190.03 49.2657C190.071 49.2342 190.133 49.2153 190.181 49.2246C190.233 49.231 190.287 49.2574 190.318 49.301C190.346 49.3409 190.372 49.4004 190.359 49.4518Z" fill="#1D478E"/>
<path d="M197.029 37.298C197.957 37.1104 198.908 37.0946 199.852 37.1011C199.964 37.1017 200.041 37.2305 200.029 37.3284C200.015 37.4491 199.911 37.5093 199.802 37.5059C198.894 37.5004 197.983 37.5211 197.089 37.6996C196.83 37.754 196.771 37.3458 197.03 37.2914L197.029 37.298Z" fill="#1D478E"/>
<path d="M209.232 57.4151C209.144 58.0769 209.011 58.7298 208.839 59.3747C208.809 59.4804 208.665 59.5256 208.57 59.4874C208.456 59.4404 208.431 59.3278 208.457 59.2185C208.622 58.6091 208.741 57.9909 208.821 57.3646C208.853 57.1035 209.265 57.1507 209.229 57.4147L209.232 57.4151Z" fill="#1D478E"/>
<path d="M210.943 56.3596C210.937 56.4914 210.93 56.6264 210.924 56.7582C210.921 56.8075 210.884 56.8659 210.848 56.8946C210.807 56.9261 210.745 56.945 210.697 56.9357C210.645 56.9293 210.591 56.9029 210.56 56.8593C210.526 56.8121 210.516 56.7644 210.519 56.7085C210.526 56.5767 210.532 56.4417 210.538 56.3099C210.541 56.2606 210.578 56.2022 210.615 56.1735C210.652 56.1449 210.717 56.1231 210.766 56.1324C210.818 56.1388 210.871 56.1652 210.902 56.2088C210.936 56.256 210.947 56.3037 210.943 56.3596Z" fill="#1D478E"/>
<path d="M209.717 33.2239C209.418 33.0414 209.115 32.8617 208.816 32.6792C208.723 32.6248 208.712 32.471 208.778 32.3897C208.856 32.2965 208.966 32.2902 209.068 32.3524C209.367 32.5349 209.67 32.7146 209.969 32.8971C210.062 32.9515 210.073 33.1053 210.007 33.1866C209.929 33.2798 209.819 33.2861 209.717 33.2239Z" fill="#1D478E"/>
<path d="M187.864 48.7013C187.571 49.4075 187.397 50.1515 187.343 50.9136C187.324 51.1763 186.916 51.1262 186.935 50.8635C186.994 50.0655 187.179 49.2832 187.482 48.5418C187.582 48.2989 187.964 48.4518 187.864 48.698L187.864 48.7013Z" fill="#1D478E"/>
<path d="M187.995 44.7615C187.903 44.9722 187.811 45.1829 187.719 45.3935C187.677 45.4911 187.553 45.5522 187.45 45.5063C187.349 45.4608 187.291 45.3443 187.337 45.2373C187.429 45.0266 187.521 44.816 187.613 44.6053C187.655 44.5077 187.779 44.4467 187.882 44.4925C187.983 44.538 188.041 44.6545 187.995 44.7615Z" fill="#1D478E"/>
<path d="M136.16 45.1241L155.461 44.132C156.792 44.0615 157.823 42.9247 157.752 41.5954L156.381 14.9027C156.311 13.5734 155.173 12.5433 153.843 12.6138L141.6 13.2385L132.624 23.4821L133.613 42.8262C133.684 44.1555 134.822 45.1856 136.152 45.1151L136.16 45.1241Z" fill="#5BC4F0" fill-opacity="0.1"/>
<path d="M136.163 45.1257C136.163 45.1257 136.021 45.116 135.744 45.0805C135.477 45.0371 135.07 44.9338 134.644 44.6182C134.235 44.3037 133.8 43.7428 133.724 42.9869C133.693 42.2002 133.652 41.3032 133.602 40.2959C133.413 36.2251 133.145 30.4533 132.814 23.4794L132.771 23.6115C135.497 20.5136 138.525 17.065 141.762 13.3858L141.614 13.4602C143.884 13.3435 146.248 13.2246 148.68 13.1019C149.891 13.0402 151.128 12.9803 152.374 12.9125C152.983 12.8945 153.664 12.814 154.219 12.8514C154.789 12.9152 155.334 13.2135 155.692 13.6679C155.941 13.98 156.109 14.3626 156.15 14.7618C156.19 15.1695 156.201 15.6342 156.223 16.0575C156.265 16.9293 156.316 17.8017 156.359 18.6651C156.445 20.392 156.533 22.0852 156.623 23.7533C156.803 27.0894 156.965 30.3062 157.129 33.3713C157.212 34.9039 157.288 36.4023 157.367 37.8503C157.402 38.5782 157.447 39.2899 157.484 39.9926C157.502 40.3482 157.521 40.6953 157.54 41.0425C157.549 41.3975 157.595 41.7295 157.548 42.0386C157.464 42.6656 157.096 43.2313 156.584 43.568C156.327 43.7363 156.049 43.8609 155.75 43.9166C155.467 43.9735 155.13 43.9676 154.816 43.9886C153.553 44.0552 152.333 44.1247 151.172 44.1898C146.552 44.4517 142.805 44.6712 140.186 44.8235C138.914 44.9063 137.913 44.9738 137.201 45.0185C136.878 45.0473 136.624 45.0639 136.428 45.0845C136.25 45.0977 136.165 45.1089 136.164 45.1173C136.164 45.1173 136.256 45.1235 136.434 45.127C136.636 45.1238 136.89 45.1157 137.211 45.112C137.922 45.0841 138.93 45.0508 140.199 45.0015C142.825 44.8835 146.577 44.7148 151.192 44.5117C152.353 44.4551 153.572 44.4024 154.835 44.3357C155.157 44.3153 155.461 44.3189 155.819 44.2672C156.161 44.2059 156.491 44.0679 156.782 43.8766C157.374 43.4863 157.807 42.8322 157.907 42.105C157.966 41.7293 157.914 41.3799 157.903 41.0417C157.884 40.6945 157.865 40.3474 157.856 39.9924C157.819 39.2896 157.783 38.5701 157.748 37.8422C157.677 36.3864 157.6 34.8964 157.527 33.3644C157.371 30.2999 157.209 27.0746 157.046 23.7397C156.964 22.0722 156.877 20.3705 156.79 18.6521C156.747 17.7887 156.704 16.9252 156.654 16.0445C156.625 15.6038 156.62 15.1816 156.575 14.7146C156.523 14.2386 156.326 13.7782 156.023 13.395C155.595 12.8515 154.944 12.487 154.257 12.4153C153.559 12.3682 152.979 12.4556 152.345 12.4718C151.099 12.5396 149.862 12.5995 148.65 12.6612C146.219 12.7839 143.855 12.9112 141.592 13.0285L141.5 13.0222L141.444 13.1028C138.222 16.7999 135.202 20.2575 132.492 23.3649L132.446 23.4208L132.441 23.4964C132.84 30.4665 133.159 36.2333 133.391 40.2985C133.458 41.3069 133.499 42.2039 133.563 42.9929C133.66 43.8094 134.137 44.3814 134.58 44.6982C135.039 45.016 135.464 45.1038 135.741 45.1309C136.018 45.1496 136.164 45.1173 136.164 45.1173L136.163 45.1257Z" fill="#1D478E"/>
<path d="M141.611 13.2474L141.999 20.7567C142.059 21.9925 141.109 23.0505 139.872 23.1188L132.644 23.4915L141.62 13.248L141.611 13.2474Z" fill="#5BC4F0" fill-opacity="0.3"/>
<path d="M143.602 20.3745C143.604 20.4674 145.606 20.4507 148.072 20.3218C150.538 20.193 152.534 20.0155 152.523 19.922C152.513 19.8285 150.519 19.8458 148.053 19.9747C145.588 20.1035 143.591 20.2809 143.602 20.3745Z" fill="#1D478E"/>
<path d="M138.057 24.9201C138.06 25.0131 141.359 24.9236 145.417 24.7166C149.475 24.5096 152.76 24.2589 152.758 24.1659C152.756 24.073 149.457 24.1625 145.398 24.3694C141.34 24.5764 138.055 24.8272 138.057 24.9201Z" fill="#1D478E"/>
<path d="M136.912 28.5298C136.914 28.6228 140.509 28.5196 144.932 28.295C149.355 28.0704 152.936 27.8059 152.934 27.713C152.931 27.62 149.336 27.7233 144.913 27.9478C140.491 28.1724 136.91 28.4369 136.912 28.5298Z" fill="#1D478E"/>
<path d="M137.077 31.8734C137.079 31.9663 140.674 31.8631 145.097 31.6385C149.52 31.4139 153.101 31.1494 153.099 31.0565C153.096 30.9635 149.501 31.0668 145.078 31.2913C140.656 31.5159 137.075 31.7804 137.077 31.8734Z" fill="#1D478E"/>
<path d="M137.251 35.2283C137.253 35.3213 140.848 35.218 145.271 34.9935C149.694 34.7689 153.275 34.5044 153.272 34.4115C153.27 34.3185 149.675 34.4217 145.252 34.6463C140.829 34.8709 137.248 35.1354 137.251 35.2283Z" fill="#1D478E"/>
<path d="M137.432 38.5728C137.434 38.6658 141.03 38.5625 145.453 38.338C149.875 38.1134 153.456 37.8489 153.454 37.7559C153.452 37.663 149.856 37.7662 145.434 37.9908C141.011 38.2154 137.43 38.4799 137.432 38.5728Z" fill="#1D478E"/>
<path d="M232.752 146.425L244.466 142.107L256.069 146.359C257.548 147.073 258.849 147.508 258.85 148.922L258.853 155.964C258.854 160.856 257.605 165.699 255.034 169.978C252.869 173.578 249.519 177.286 244.366 179.645C239.619 178.068 236.079 173.863 233.912 170.264C231.337 165.987 230.085 161.146 230.083 156.254L230.081 149.919C230.08 147.905 231.123 146.919 232.745 146.432L232.752 146.425Z" fill="#5BC4F0" fill-opacity="0.5"/>
<path d="M232.754 146.425C232.754 146.425 232.489 146.475 232.017 146.675C231.56 146.875 230.824 147.275 230.381 148.189C230.16 148.639 230.046 149.197 230.032 149.797C230.032 150.396 230.025 151.053 230.018 151.753C230.019 153.16 230.012 154.767 230.005 156.553C230.028 160.124 230.752 164.501 232.991 168.843C234.114 170.999 235.573 173.148 237.41 175.112C239.255 177.061 241.55 178.824 244.324 179.773L244.374 179.794L244.424 179.773C248.076 178.136 251.492 175.378 254.014 171.799C257.028 167.598 258.606 162.677 258.919 157.992C259.004 156.82 258.989 155.656 258.989 154.528C258.989 153.392 258.988 152.278 258.988 151.185C258.988 150.635 258.987 150.1 258.987 149.564C258.987 149.293 258.994 149.036 258.98 148.757C258.958 148.479 258.887 148.193 258.736 147.95C258.436 147.458 257.957 147.158 257.507 146.908C257.042 146.658 256.577 146.458 256.127 146.244C251.716 144.639 247.798 143.219 244.51 142.021L244.474 142.006L244.439 142.021C240.772 143.393 237.856 144.48 235.834 145.238C234.848 145.61 234.083 145.903 233.547 146.11C233.304 146.203 233.104 146.282 232.961 146.339C232.832 146.389 232.761 146.425 232.768 146.425C232.768 146.425 232.839 146.41 232.975 146.36C233.125 146.31 233.325 146.239 233.568 146.153C234.111 145.96 234.883 145.681 235.877 145.331C237.906 144.594 240.837 143.529 244.517 142.192L244.453 142.192C247.734 143.405 251.645 144.846 256.048 146.473L256.034 146.473C256.484 146.687 256.956 146.894 257.399 147.129C257.843 147.372 258.279 147.658 258.522 148.072C258.779 148.493 258.73 149.014 258.73 149.557C258.73 150.093 258.73 150.636 258.73 151.178C258.731 152.271 258.731 153.385 258.732 154.521C258.732 155.656 258.747 156.806 258.654 157.963C258.342 162.598 256.771 167.463 253.792 171.613C251.299 175.149 247.926 177.872 244.324 179.494L244.431 179.494C241.715 178.567 239.448 176.839 237.625 174.919C235.801 172.977 234.35 170.856 233.234 168.721C231.002 164.43 230.257 160.088 230.206 156.538C230.198 154.753 230.19 153.146 230.175 151.739C230.196 150.339 230.038 149.104 230.488 148.218C230.895 147.325 231.61 146.925 232.053 146.71C232.282 146.596 232.468 146.532 232.589 146.489C232.711 146.446 232.775 146.417 232.775 146.417L232.754 146.425Z" fill="#5BC4F0" fill-opacity="0.7"/>
<path d="M250.528 157.566C250.289 157.066 249.759 156.718 249.144 156.718L248.831 156.718L248.83 153.951C248.829 151.831 247.025 150.114 244.8 150.115L244.718 150.115C242.493 150.116 240.69 151.834 240.69 153.954L240.692 156.721L240.378 156.722C239.54 156.722 238.86 157.369 238.86 158.168L238.863 165.626C238.863 166.424 239.543 167.072 240.382 167.071L249.149 167.068C249.987 167.068 250.667 166.42 250.666 165.622L250.664 158.163C250.663 157.95 250.615 157.748 250.528 157.566ZM241.87 153.953C241.869 152.457 243.147 151.239 244.718 151.239L244.799 151.239C246.371 151.238 247.649 152.455 247.65 153.951L247.651 156.719L241.87 156.721L241.87 153.953ZM245.382 161.819L245.716 164.397C245.733 164.527 245.627 164.642 245.489 164.642L244.039 164.643C243.901 164.643 243.795 164.528 243.812 164.397L244.144 161.819C243.613 161.584 243.254 161.058 243.294 160.456C243.341 159.763 243.929 159.2 244.656 159.151C245.516 159.094 246.233 159.741 246.234 160.548C246.234 161.111 245.885 161.595 245.382 161.819Z" fill="#FFF3EB"/>
<g opacity="0.5" clip-path="url(#clip0_512_848)">
<path d="M229.674 100.629C230.423 103.387 228.886 106.2 226.233 106.927C223.577 107.646 220.816 106.006 220.068 103.248C219.32 100.491 220.856 97.6774 223.51 96.9502C226.165 96.2308 228.919 97.8733 229.674 100.629Z" fill="#5BC4F0"/>
<path d="M240.405 86.9907C241.153 89.7483 239.616 92.5615 236.963 93.2887C234.308 94.0081 231.554 92.3656 230.799 89.61C230.05 86.8524 231.592 84.0294 234.248 83.31C236.903 82.5906 239.657 84.2331 240.412 86.9886L240.405 86.9907Z" fill="#5BC4F0"/>
<path d="M246.172 108.127C246.987 111.127 245.503 114.136 242.85 114.864C240.195 115.583 237.388 113.745 236.566 110.746C235.752 107.746 237.235 104.737 239.889 104.01C242.544 103.29 245.351 105.128 246.172 108.127Z" fill="#5BC4F0"/>
<path d="M239.779 109.186C239.66 109.555 235.949 108.533 231.501 106.913C227.05 105.284 223.536 103.671 223.654 103.303C223.773 102.934 227.482 103.948 231.932 105.576C236.382 107.205 239.897 108.818 239.771 109.188L239.779 109.186Z" fill="#5BC4F0"/>
<path d="M234.503 88.2197C234.811 88.4561 232.988 91.4981 230.436 95.0153C227.884 98.5325 225.567 101.187 225.258 100.943C224.951 100.706 226.773 97.6643 229.326 94.1471C231.88 90.6377 234.196 87.9833 234.503 88.2197Z" fill="#5BC4F0"/>
</g>
<mask id="mask1_512_848" style="mask-type:alpha" maskUnits="userSpaceOnUse" x="0" y="161" width="88" height="88">
<rect y="161" width="88" height="88" fill="#D9D9D9"/>
</mask>
<g mask="url(#mask1_512_848)">
<path d="M15.1279 234.333C14.5571 234.333 14.052 234.198 13.6126 233.926C13.1726 233.655 12.8307 233.297 12.5869 232.853C12.3204 232.415 12.1738 231.942 12.1469 231.432C12.1206 230.922 12.2633 230.408 12.5749 229.889L41.438 180.111C41.7497 179.592 42.1255 179.216 42.5655 178.98C43.0049 178.746 43.4831 178.628 44.0001 178.628C44.5171 178.628 44.9953 178.746 45.4347 178.98C45.8747 179.216 46.2505 179.592 46.5622 180.111L75.4253 229.889C75.7369 230.408 75.8796 230.922 75.8534 231.432C75.8265 231.942 75.6798 232.415 75.4134 232.853C75.1695 233.297 74.8276 233.655 74.3876 233.926C73.9482 234.198 73.4431 234.333 72.8724 234.333H15.1279ZM44.0001 225.59C44.6393 225.59 45.1753 225.374 45.6079 224.941C46.0406 224.509 46.257 223.973 46.257 223.333C46.257 222.694 46.0406 222.158 45.6079 221.726C45.1753 221.293 44.6393 221.077 44.0001 221.077C43.3609 221.077 42.8249 221.293 42.3923 221.726C41.9596 222.158 41.7433 222.694 41.7433 223.333C41.7433 223.973 41.9596 224.509 42.3923 224.941C42.8249 225.374 43.3609 225.59 44.0001 225.59ZM44.0029 217.41C44.5229 217.41 44.958 217.234 45.3082 216.883C45.6584 216.531 45.8334 216.096 45.8334 215.577V200.91C45.8334 200.39 45.6574 199.955 45.3054 199.604C44.9534 199.252 44.5174 199.077 43.9974 199.077C43.4773 199.077 43.0422 199.252 42.692 199.604C42.3419 199.955 42.1668 200.39 42.1668 200.91V215.577C42.1668 216.096 42.3428 216.531 42.6948 216.883C43.0468 217.234 43.4828 217.41 44.0029 217.41Z" fill="#EE3D4B"/>
</g>
<mask id="mask2_512_848" style="mask-type:luminance" maskUnits="userSpaceOnUse" x="80" y="64" width="236" height="340">
<path d="M80 404L316 404L316 64L80 64L80 404Z" fill="white"/>
</mask>
<g mask="url(#mask2_512_848)">
<path d="M180.259 248.891C183.692 251.766 186.835 254.994 189.99 258.168C190.534 258.715 191.761 260.198 192.619 260.177C193.299 260.165 193.249 259.419 193.602 258.851C194.477 257.447 195.555 256.158 196.417 254.733C197.802 252.45 198.913 249.96 200.385 247.735C203.28 243.36 206.178 238.98 209.072 234.605C212.223 229.845 215.37 225.084 218.522 220.319C218.522 220.319 217.319 168.28 213.09 159.575C206.928 146.889 203.951 121.258 201.584 116.154C199.826 112.367 194.813 92.8151 194.332 91.3774C194.124 90.7601 192.453 89.8071 190.285 89.8113C188.547 89.8113 185.591 91.4893 184.849 94.9448C181.084 112.392 185.616 123.902 185.566 124.411C184.239 137.819 188.232 147.775 185.429 150.41C185.326 150.51 185.131 150.46 184.857 150.286C180.002 147.17 149.87 103.273 146.159 102.328C142.241 101.329 116.33 175.908 116.33 175.908C116.33 175.908 129.889 203.009 143.659 221.72C148.249 227.955 153.627 233.176 160.497 236.88C165.929 239.805 171.394 242.423 176.457 245.962C177.771 246.882 179.032 247.863 180.259 248.887V248.891Z" fill="#EBB48B"/>
<path d="M200.374 268.032C200.896 268.935 201.261 269.925 201.634 270.899C206.249 282.956 212.635 293.471 220.405 303.684C243 325.5 291.749 380.429 321.249 401.5C326.579 405.308 317.5 377.5 341 392C364.5 406.5 326 385 321.249 369.5C330.437 360.985 316.257 346.211 321.249 334.726C326.424 322.818 324.964 312.141 323.023 300.022C320.677 285.338 325.478 276.41 321.249 262C319.682 256.663 328.938 250.708 313 245.5C310.276 243.755 301.089 240.26 297.963 239.419C279.918 234.542 267.019 220.815 248.252 216.283C244.566 215.392 240.681 214.725 237.011 215.678C235.353 216.109 233.686 216.867 231.998 216.573C230.995 216.399 230.099 215.86 229.229 215.338C227.139 214.074 225.024 212.856 222.868 211.704C221.073 210.743 219.63 210.499 218.353 208.821C218.307 208.763 218.257 208.701 218.187 208.688C218.137 208.68 218.087 208.692 218.037 208.709C212.519 210.441 210.184 215.935 207.398 220.554C204.23 225.8 201.232 231.149 198.176 236.46C195.991 240.256 193.819 244.055 191.588 247.821C190.323 249.955 189.125 252.263 187.549 254.193C187.35 254.438 187.143 254.707 187.135 255.022C187.11 256.841 195.415 262.807 197.438 264.697C198.438 265.629 199.449 266.578 200.183 267.734C200.245 267.833 200.308 267.932 200.366 268.032H200.374Z" fill="#32B353"/>
<path d="M85.5398 84.1918L96.4447 100.168L107.147 115.846C107.797 116.633 108.556 116.907 109.373 116.828C111.94 116.584 115.12 112.884 117.595 110.833L117.848 110.626C121.116 107.928 121.576 103.048 118.872 99.7869L102.515 80.0278L97.6638 74.1651C94.9645 70.9002 90.0801 70.4403 86.8169 73.1417L86.5639 73.3489C83.2966 76.0461 82.8364 80.9269 85.5398 84.1876V84.1918Z" fill="#EBB48B"/>
<path d="M96.4369 100.322C96.7022 100.629 96.9676 100.923 97.1459 101.205C97.6808 102.05 98.2737 102.854 98.8418 103.678C101.603 107.664 104.05 112.11 107.147 115.843C107.798 116.63 108.557 116.903 109.374 116.825C107.147 104.875 105.517 92.6156 102.607 80.8281C102.909 82.0628 99.8576 87.2377 99.3518 88.6796C98.6469 90.689 97.7969 92.6446 96.9635 94.6044C96.5447 95.5822 96.13 96.56 95.7361 97.5502C95.5827 97.9356 95.3381 98.3209 95.421 98.7186C95.5371 99.278 95.9932 99.8166 96.4369 100.322Z" fill="#D99273"/>
<path d="M144.313 222.44C143.368 222.837 142.472 223.405 141.229 224.259C147.908 227.697 155.355 229.193 162.765 230.038C169.888 230.85 176.054 231.617 182.203 227.167C184.359 225.605 185.325 223.115 185.628 220.542C185.707 219.875 185.184 212.691 184.823 212.836C176.734 216.026 169.706 218.91 161.065 219.842C156.558 220.306 152.096 221.159 147.593 221.669C146.2 221.826 145.226 222.05 144.305 222.436L144.313 222.44Z" fill="#D99273"/>
<path d="M194.576 92.1921L197.429 103.702C197.429 103.702 194.933 104.721 193.332 103.93C191.732 103.139 190.421 92.8095 194.576 92.1921Z" fill="#F7DDC9"/>
<path d="M168.109 227.163H116.35C108.177 227.163 101.543 220.533 101.543 212.367L101.543 85.4762C101.543 77.1897 108.277 70.4652 116.566 70.4652H171.376C178.811 70.4652 184.844 76.4937 184.844 83.9225L184.844 210.436C184.844 219.667 177.343 227.163 168.105 227.163H168.109Z" fill="#28458A"/>
<path d="M105.672 82.4718V214.115C105.672 218.581 109.304 222.236 113.737 222.236H172.652C177.089 222.236 180.717 218.581 180.717 214.115V82.4718C180.717 78.0054 177.089 74.3511 172.652 74.3511H113.737C109.3 74.3511 105.672 78.0054 105.672 82.4718Z" fill="#FFF3EB"/>
<path d="M172.653 222.647H113.737C109.06 222.647 105.258 218.818 105.258 214.112V82.4726C105.258 77.7659 109.06 73.9375 113.737 73.9375H172.653C177.33 73.9375 181.132 77.7659 181.132 82.4726V214.116C181.132 218.822 177.33 222.651 172.653 222.651V222.647ZM113.737 74.7661C109.52 74.7661 106.087 78.2216 106.087 82.4726V214.116C106.087 218.363 109.52 221.822 113.737 221.822H172.653C176.87 221.822 180.303 218.367 180.303 214.116V82.4726C180.303 78.2258 176.87 74.7661 172.653 74.7661H113.737Z" fill="#161742"/>
<path d="M130.411 77.2939H155.314C157.252 77.2939 158.822 75.7255 158.822 73.7908C158.822 71.8561 157.252 70.2877 155.314 70.2877H130.411C128.474 70.2877 126.904 71.8561 126.904 73.7908C126.904 75.7255 128.474 77.2939 130.411 77.2939Z" fill="#28458A"/>
<path d="M142.865 162.596V190.855H114.62V176.012C114.62 173.849 115.965 171.914 118 171.16L131.043 166.333L135.892 164.8L142.865 162.587V162.596Z" fill="#1D478E"/>
<path d="M172.118 176.012V190.855H143.865V162.596L150.879 164.817L155.695 166.341L168.738 171.169C170.764 171.923 172.118 173.849 172.118 176.021V176.012Z" fill="#1D478E"/>
<path d="M150.879 151.365H135.892V166.338H150.879V151.365Z" fill="#D39E79"/>
<path d="M127.286 131.512H131.043V140.536H128.533C127.72 140.536 127.015 139.97 126.834 139.175L125.587 133.627C125.341 132.536 126.17 131.512 127.286 131.512Z" fill="#DFB89C"/>
<path d="M143.365 111.173L125.547 120.895L130.723 147.2C131.306 150.143 133.635 153.061 136.663 155.389C137.877 156.324 139.386 156.807 140.92 156.807H146.138C147.795 156.807 149.402 156.225 150.682 155.176C153.348 152.971 155.465 150.02 156.014 147.208L162.192 115.813L143.373 111.182L143.365 111.173Z" fill="#DFB89C"/>
<path d="M159.453 131.512H155.696V140.536H158.207C159.019 140.536 159.724 139.97 159.905 139.175L161.152 133.627C161.398 132.536 160.569 131.512 159.453 131.512Z" fill="#DFB89C"/>
<path d="M125.136 118.804L128.475 135.77L129.927 134.77C130.69 134.245 131.109 133.344 131.01 132.426L129.074 113.493L127.13 114.485C125.596 115.272 124.767 116.977 125.104 118.665L125.136 118.813V118.804Z" fill="#161742"/>
<path d="M161.586 118.804L158.247 135.77L156.795 134.77C156.032 134.245 155.614 133.344 155.712 132.426L157.648 113.493L159.593 114.485C161.127 115.272 161.955 116.977 161.619 118.665L161.586 118.813V118.804Z" fill="#161742"/>
<path d="M132.57 108.403H165.646V111.264C165.646 116.583 161.323 120.894 156.007 120.894H128.009V112.952C128.009 110.436 130.051 108.395 132.57 108.395V108.403Z" fill="#161742"/>
<path d="M131.865 122.157C131.865 124.788 130.675 126.919 129.199 126.919C127.722 126.919 126.532 124.788 126.532 122.157C126.532 119.526 127.722 117.395 129.199 117.395C130.675 117.395 131.865 119.526 131.865 122.157Z" fill="#161742"/>
<path d="M160.241 122.157C160.241 124.788 159.051 126.919 157.574 126.919C156.098 126.919 154.908 124.788 154.908 122.157C154.908 119.526 156.098 117.395 157.574 117.395C159.051 117.395 160.241 119.526 160.241 122.157Z" fill="#161742"/>
<path d="M143.392 162.596V190.855H138.617L139.126 187.806L142.112 169.611L140.906 167.972L139.766 166.44L139.856 166.341L142.867 163.145L143.063 162.948L143.392 162.596Z" fill="#8BCEF2"/>
<path d="M148.155 190.855H143.389V162.596L143.684 162.924L143.865 163.112L146.916 166.341L147.007 166.44L145.858 168.005L144.66 169.611L147.655 187.806L148.155 190.855Z" fill="#8BCEF2"/>
<path d="M131.045 166.34L135.893 158.849L143.867 162.595L139.355 170.766L131.045 166.34Z" fill="#D9EBFC"/>
<path d="M155.694 166.34L150.846 158.849L142.864 162.595L147.376 170.766L155.694 166.34Z" fill="#D9EBFC"/>
<path d="M184.852 185.835C184.852 170.476 191.295 155.648 188.894 140.069C188.09 134.861 186.112 129.802 185.569 124.416C184.242 137.824 188.235 147.78 185.432 150.415C185.328 150.514 185.134 150.465 184.86 150.291C184.86 150.291 184.852 185.823 184.852 185.835Z" fill="#D99273"/>
<path d="M194.842 104.813C194.228 104.813 193.643 104.594 193.129 104.159C192.196 103.372 191.566 101.892 191.595 100.554L191.719 95.2011C191.757 93.6432 192.287 92.6737 193.295 92.3257L193.564 93.1088C192.909 93.3366 192.578 94.0244 192.549 95.2218L192.424 100.575C192.403 101.503 192.822 102.816 193.664 103.525C194.124 103.914 194.638 104.055 195.194 103.947C195.857 103.819 196.492 103.612 196.935 103.376L197.325 104.109C196.625 104.482 195.787 104.677 195.356 104.76C195.182 104.793 195.012 104.809 194.846 104.809L194.842 104.813Z" fill="#161742"/>
<path d="M91.9732 144.829L93.6317 145.339L104.781 148.753C105.043 148.831 105.308 148.898 105.569 148.947C109.235 149.664 112.979 147.651 114.136 144.195L114.272 143.789C115.512 140.085 113.335 136.079 109.434 134.885L99.0427 131.703L98.2881 131.471L96.6296 130.962C92.7278 129.764 88.5193 131.815 87.2754 135.519L87.1385 135.925C85.8988 139.629 88.0756 143.636 91.9774 144.829H91.9732Z" fill="#161742"/>
<path d="M90.9676 144.518L92.593 145.135L103.527 149.287C103.784 149.382 104.041 149.469 104.302 149.531C107.922 150.472 111.778 148.541 113.134 144.974L113.296 144.555C114.751 140.727 112.811 136.41 108.979 134.955L98.7835 131.086L98.0413 130.804L96.4159 130.187C92.5847 128.732 88.2642 130.675 86.8088 134.5L86.6471 134.918C85.1917 138.746 87.1322 143.064 90.9635 144.518H90.9676Z" fill="#EBB48B"/>
<path d="M99.8516 144.771C101.676 145.463 104.981 146.689 106.747 146.942C107.249 147.012 108.169 146.743 109.027 145.803C109.542 145.239 110.035 144.435 110.404 143.325C110.574 142.803 110.719 142.281 110.777 141.742C110.844 141.112 110.827 140.483 110.719 139.861C110.62 139.302 110.234 138.788 109.674 138.519C109.674 138.519 109.67 138.519 109.666 138.519C107.788 137.624 105.254 136.53 103.032 135.921C101.498 135.498 99.9428 136.174 99.4577 137.516L99.2296 138.142L98.0562 141.353C97.5711 142.687 98.3589 144.212 99.8516 144.775V144.771Z" fill="#F1D1B7"/>
<path d="M111.103 140.379L110.274 140.358C110.29 139.666 109.76 139.111 108.648 138.668C108.536 138.622 108.317 138.535 107.836 138.341L103.673 136.679C102.81 136.335 101.434 136.269 100.472 136.812C99.9451 137.106 99.6341 137.541 99.5388 138.096L98.7219 137.959C98.8546 137.156 99.319 136.509 100.065 136.091C101.127 135.49 102.74 135.42 103.98 135.913L108.955 137.901C110.402 138.481 111.124 139.314 111.099 140.379H111.103Z" fill="#161742"/>
<path d="M96.5892 159.88L105.023 162.175C107.585 162.871 110.239 161.404 110.915 158.914L111.168 157.986C111.848 155.496 110.305 152.886 107.743 152.19L99.3092 149.895C96.7468 149.198 94.0931 150.665 93.4172 153.155L93.1643 154.083C92.4843 156.573 94.0268 159.184 96.5892 159.88Z" fill="#161742"/>
<path d="M92.5353 153.961L92.7954 153.005C93.4953 150.435 96.1518 148.916 98.7241 149.617L107.157 151.913C109.73 152.613 111.25 155.268 110.55 157.839L110.291 158.791C109.591 161.361 106.934 162.88 104.362 162.179L95.9289 159.883C93.3566 159.183 91.8405 156.529 92.5393 153.962L92.5353 153.961Z" fill="#EBB48B"/>
<path d="M100.49 159.47C102.041 159.884 104.84 160.614 106.308 160.692C106.842 160.721 107.912 160.27 108.609 158.869C108.779 158.53 108.928 158.136 109.04 157.68C109.144 157.266 109.218 156.856 109.227 156.441C109.235 155.952 109.173 155.472 109.04 154.999C108.92 154.573 108.563 154.208 108.086 154.038C108.086 154.038 108.082 154.038 108.078 154.038C106.469 153.471 104.313 152.795 102.443 152.468C101.154 152.244 99.9304 152.862 99.6277 153.922L99.408 154.68L98.757 156.959C98.4585 158.016 99.2172 159.134 100.486 159.47H100.49Z" fill="#F7DDC9"/>
<path d="M108.481 154.937C108.332 154.631 107.98 154.411 107.333 154.229L106.574 154.009L104.878 153.624C104.546 153.549 104.206 153.442 103.842 153.326C102.834 153.007 101.789 152.679 100.985 153.048C100.603 153.222 100.284 153.537 100.102 153.914L99.3552 153.554C99.6247 152.998 100.081 152.551 100.641 152.294C101.735 151.797 102.987 152.19 104.09 152.534C104.435 152.642 104.762 152.746 105.061 152.812L106.777 153.201L107.557 153.425C108.158 153.595 108.888 153.877 109.224 154.569L108.477 154.933L108.481 154.937Z" fill="#161742"/>
<path d="M92.0497 127.847C92.1078 127.867 92.17 127.888 92.2322 127.905L103.286 130.614C108.146 131.808 113.175 129.297 114.457 125.033L115.116 122.85C116.347 118.756 113.698 114.481 109.183 113.093L105.534 112.198L98.1283 110.383C93.2688 109.19 88.2392 111.701 86.958 115.964L86.2987 118.147C85.0838 122.183 87.6463 126.401 92.0497 127.847Z" fill="#161742"/>
<path d="M91.2323 128.368C91.2904 128.388 91.3526 128.409 91.4148 128.43L102.469 131.268C107.329 132.515 112.358 129.888 113.639 125.426L114.299 123.139C115.53 118.855 112.881 114.38 108.365 112.926L104.716 111.99L97.3109 110.092C92.4514 108.845 87.4218 111.472 86.1406 115.934L85.4813 118.221C84.2665 122.447 86.8289 126.86 91.2323 128.372V128.368Z" fill="#EBB48B"/>
<path d="M96.2993 125.286L101.669 127.705C101.669 127.705 101.685 127.705 101.702 127.714C101.918 127.772 102.137 127.817 102.353 127.846C102.444 127.859 102.535 127.871 102.627 127.879C102.664 127.879 102.701 127.879 102.739 127.879C103.331 127.859 103.738 127.233 103.481 126.674C102.975 125.568 102.834 124.291 103.178 123.036L103.307 122.568C103.307 122.568 103.307 122.56 103.307 122.555L103.721 121.031C104.053 119.817 104.754 118.797 105.67 118.064C105.778 117.973 105.894 117.89 106.01 117.811C107.072 117.078 106.802 115.412 105.558 115.069C105.546 115.069 105.537 115.064 105.525 115.06L99.6288 114.169C98.1734 113.776 96.7678 114.895 96.3698 116.349L95.8971 118.085L94.8895 121.785C94.4956 123.243 94.8397 124.892 96.2951 125.286H96.2993Z" fill="#F7DDC9"/>
<path d="M96.4612 116.212L96.7804 116.241C96.8053 114.816 98.1031 114.281 99.2973 114.385L104.24 114.82C105.409 114.923 106.657 115.939 106.632 117.401L106.951 117.43C106.981 115.748 105.567 114.575 104.244 114.459L99.3014 114.024C97.3775 113.854 96.4778 115.044 96.457 116.216L96.4612 116.212Z" fill="#161742"/>
<path d="M219.742 304.186C211.15 292.896 205.151 282.413 200.859 271.198L200.776 270.978C200.432 270.075 200.109 269.225 199.657 268.446C199.603 268.355 199.549 268.264 199.495 268.177C199.25 267.833 197.364 266.193 195.701 264.751C189.067 258.992 186.297 256.365 186.314 255.01C186.322 254.393 186.691 253.941 186.915 253.668C187.031 253.527 187.139 253.378 187.247 253.228C190.75 248.418 193.723 242.999 196.597 237.757C197.791 235.578 199.026 233.324 200.279 231.161C203.061 226.347 205.582 222.001 208.277 217.601C208.339 217.497 214.77 207.346 217.66 207.164C218.158 207.131 218.589 207.325 218.892 207.702C220.111 209.244 220.857 209.861 222.507 210.702C224.054 211.489 225.609 212.318 226.944 213.035C227.446 213.304 227.968 213.636 228.524 213.984C229.701 214.725 231.036 215.566 232.143 215.761C233.234 215.952 234.382 215.604 235.593 215.231C235.995 215.106 236.402 214.986 236.804 214.879C240.677 213.872 244.69 214.576 248.447 215.483L248.057 217.095C244.512 216.237 240.743 215.57 237.219 216.486C236.837 216.586 236.46 216.702 236.078 216.818C234.731 217.232 233.342 217.654 231.853 217.393C230.423 217.141 228.942 216.208 227.636 215.384C227.106 215.053 226.608 214.733 226.156 214.493C224.829 213.781 223.283 212.956 221.753 212.177C219.924 211.249 218.991 210.487 217.669 208.829C216.271 209.161 211.59 215.351 209.687 218.462C207 222.85 204.487 227.184 201.713 231.99C200.469 234.14 199.238 236.386 198.048 238.557C195.15 243.844 192.148 249.313 188.582 254.206C188.457 254.38 188.329 254.554 188.192 254.72C188.142 254.782 188.018 254.935 187.976 255.022C188.432 256.257 194.055 261.138 196.779 263.504C199.528 265.89 200.594 266.835 200.884 267.295C200.954 267.402 201.021 267.51 201.083 267.622C201.601 268.517 201.962 269.47 202.314 270.394L202.397 270.609C206.631 281.676 212.56 292.03 221.052 303.188L219.733 304.19L219.742 304.186Z" fill="#161742"/>
</g>
<defs>
<clipPath id="clip0_512_848">
<rect width="23.9155" height="32.7052" fill="white" transform="matrix(0.965205 -0.261493 0.26186 0.965106 216 88.2537)"/>
</clipPath>
</defs>
</svg>
