<svg width="16" height="16" viewBox="0 0 16 16" fill="none" xmlns="http://www.w3.org/2000/svg">
<mask id="mask0_3632_10109" style="mask-type:alpha" maskUnits="userSpaceOnUse" x="0" y="0" width="16" height="16">
<rect width="16" height="16" fill="#D9D9D9"/>
</mask>
<g mask="url(#mask0_3632_10109)">
<path d="M2.66667 12.6667H5.782V7.33333H2.66667V12.6667ZM6.44867 12.6667H9.55133V3.33333H6.44867V12.6667ZM10.218 12.6667H13.3333V8.66667H10.218V12.6667ZM2 12.2563V7.74367C2 7.44745 2.10544 7.19389 2.31633 6.983C2.52722 6.77211 2.78078 6.66667 3.077 6.66667H5.782V3.74367C5.782 3.44745 5.88744 3.19389 6.09833 2.983C6.30922 2.77211 6.56278 2.66667 6.859 2.66667H9.141C9.43722 2.66667 9.69078 2.77211 9.90167 2.983C10.1126 3.19389 10.218 3.44745 10.218 3.74367V8H12.923C13.2192 8 13.4728 8.10545 13.6837 8.31634C13.8946 8.52722 14 8.78078 14 9.077V12.2563C14 12.5526 13.8946 12.8061 13.6837 13.017C13.4728 13.2279 13.2192 13.3333 12.923 13.3333H3.077C2.78078 13.3333 2.52722 13.2279 2.31633 13.017C2.10544 12.8061 2 12.5526 2 12.2563Z" fill="#1D478E"/>
</g>
</svg>
