<svg width="8" height="8" viewBox="0 0 8 8" fill="none" xmlns="http://www.w3.org/2000/svg">
<g id="Group">
<g id="Group_2">
<path id="Vector" d="M7.75869 5.43903C7.79138 5.52435 7.82235 5.63979 7.83096 5.77363C7.843 6.00953 7.78278 6.34079 7.44036 6.64194C7.46273 6.79586 7.46273 7.04012 7.32335 7.28271C7.13923 7.60393 6.7796 7.82142 6.25307 7.93017C5.90032 8.00379 5.43745 8.01884 4.8765 7.97702C3.74599 7.99877 2.64473 7.86325 2.58279 7.85489L2.17842 7.80804C2.06141 7.88835 1.91859 7.93519 1.76545 7.93519H0.715816C0.320052 7.93519 0 7.62233 0 7.23921V4.52053C0 4.13574 0.321773 3.82455 0.715816 3.82455H1.76545C1.88934 3.82455 2.00463 3.85467 2.10615 3.9082C2.17842 3.75428 2.2851 3.57862 2.44341 3.41633C2.45201 3.40797 2.46062 3.3996 2.47094 3.39291C3.01125 2.98971 3.64791 1.53752 3.87332 0.945263C3.85095 0.76123 3.82858 0.363048 4.01786 0.147227C4.10218 0.0518641 4.21918 0 4.34996 0C4.48245 0 4.94016 0.0301147 5.2258 0.413239C5.49595 0.77796 5.51144 1.32337 5.27054 2.03608C5.06749 2.63503 5.04857 2.90104 5.05545 3.00811C5.14837 2.98804 5.23957 2.96963 5.32732 2.95457H5.32904C5.34453 2.95123 5.72309 2.86925 6.17563 2.84917C6.81918 2.81906 7.28549 2.92781 7.55736 3.1704C7.93248 3.50333 7.88774 3.92828 7.77589 4.19931C7.87225 4.32144 7.98926 4.52053 7.99959 4.77483C8.00647 5.00571 7.92732 5.22823 7.75869 5.43903ZM1.76545 4.2746H0.715816C0.576438 4.2746 0.464592 4.38502 0.464592 4.51886V7.23754C0.464592 7.37305 0.578159 7.4818 0.715816 7.4818H1.76545C1.90483 7.4818 2.01667 7.37138 2.01667 7.23754V4.51886C2.01667 4.38334 1.90483 4.2746 1.76545 4.2746ZM7.30098 4.11231C7.30098 4.11064 7.3612 4.01862 7.38185 3.89315C7.40766 3.73755 7.36292 3.60873 7.24247 3.50166C6.91382 3.21055 5.96743 3.27747 5.43917 3.39124C5.43229 3.39291 5.4254 3.39458 5.4168 3.39626C5.32216 3.41299 5.22064 3.43306 5.1174 3.45481C5.00727 3.49329 4.85585 3.48827 4.74228 3.38956C4.51343 3.19214 4.53924 2.74377 4.8266 1.8922C5.01587 1.33341 5.02276 0.911803 4.84724 0.675905C4.69926 0.476815 4.45492 0.451719 4.362 0.450046C4.32071 0.516967 4.30866 0.746172 4.33963 0.935225C4.3448 0.972032 4.34135 1.01051 4.32931 1.04732C4.29662 1.13264 3.54122 3.14363 2.76862 3.73923C2.5673 3.9517 2.47955 4.20098 2.44857 4.31308C2.46922 4.37833 2.48127 4.44859 2.48127 4.52053V7.23754C2.48127 7.28773 2.4761 7.33792 2.46578 7.38476L2.63957 7.40484H2.64129C2.65162 7.40651 3.7718 7.54705 4.87822 7.52363C4.8851 7.52363 4.8937 7.52363 4.90231 7.52363C5.42368 7.56378 5.84526 7.55207 6.15671 7.48682C6.54214 7.40651 6.79681 7.26598 6.91382 7.06689C7.03599 6.8611 6.96888 6.64863 6.96372 6.62855C6.92758 6.53486 6.96028 6.43281 7.04287 6.37258C7.5522 6.00117 7.31819 5.56785 7.28721 5.51431C7.23043 5.42732 7.24419 5.3169 7.31819 5.24161C7.46617 5.09104 7.53844 4.94046 7.53327 4.79324C7.52639 4.57407 7.3526 4.41011 7.34055 4.40007C7.25452 4.32813 7.23903 4.206 7.30098 4.11231Z" fill="#1D478E"/>
</g>
</g>
</svg>
