<svg width="339" height="351" viewBox="0 0 339 351" fill="none" xmlns="http://www.w3.org/2000/svg">
<path d="M189 248.5C189 300.139 147.139 342 95.5 342C43.8614 342 2 300.139 2 248.5C2 196.861 43.8614 155 95.5 155C147.139 155 189 196.861 189 248.5Z" fill="#5BC4F0" fill-opacity="0.2"/>
<path d="M368 150.5C368 184.466 340.466 212 306.5 212C272.534 212 245 184.466 245 150.5C245 116.534 272.534 89 306.5 89C340.466 89 368 116.534 368 150.5Z" fill="#5BC4F0" fill-opacity="0.2"/>
<path d="M160.632 350.999C245.742 350.999 314.737 346.192 314.737 340.262C314.737 334.332 245.742 329.525 160.632 329.525C75.5217 329.525 6.52637 334.332 6.52637 340.262C6.52637 346.192 75.5217 350.999 160.632 350.999Z" fill="#5BC4F0" fill-opacity="0.2"/>
<path d="M42.1851 319.777C42.741 319.985 43.3464 319.974 44.205 319.738C45.5094 319.382 46.7753 318.818 47.9255 318.017C51.3103 315.666 53.809 311.145 53.8476 306.492C53.8696 303.713 53.7155 300.836 54.6346 298.244C55.972 294.468 59.3238 292.001 61.096 288.45C62.2683 286.11 62.648 283.326 62.2628 280.7C61.8555 277.916 60.5952 275.91 60.6062 273C60.6227 268.484 62.7251 264.341 64.6239 260.335C66.5282 256.328 68.3334 251.922 67.717 247.461C63.5121 248.683 59.3183 251.774 56.4894 255.698C53.677 259.6 53.2697 265.212 50.4297 269.093C47.2871 273.378 42.0475 276.069 40.6386 281.353C39.6314 285.134 41.1064 288.927 39.4057 292.489C38.7233 293.925 37.8317 295.213 37.1107 296.621C35.1569 300.458 34.5735 305.204 35.5146 309.523C36.2741 312.992 38.0133 316.154 40.3744 318.445C41.0734 319.125 41.5962 319.574 42.1796 319.788L42.1851 319.777Z" fill="#207739"/>
<path d="M41.391 307.533C47.3547 302.542 50.6626 295.04 52.4957 287.502C54.3329 279.961 54.8991 272.169 56.4931 264.575" stroke="#161742" stroke-width="0.4" stroke-linecap="round" stroke-linejoin="round"/>
<path d="M45.8892 318.062C45.3113 318.243 44.6839 318.232 43.7923 318.018C42.4384 317.7 41.134 317.19 39.9397 316.473C36.4393 314.368 33.8746 310.34 33.8636 306.213C33.8526 303.747 34.0342 301.193 33.0985 298.891C31.7336 295.531 28.2718 293.323 26.45 290.166C25.2502 288.083 24.8705 285.612 25.2887 283.277C25.729 280.805 27.0444 279.035 27.0499 276.448C27.0554 272.436 24.9035 268.748 22.9552 265.186C21.0068 261.623 19.1576 257.699 19.8235 253.742C24.1825 254.849 28.5139 257.617 31.4254 261.114C34.3204 264.594 34.7056 269.575 37.6336 273.034C40.8643 276.854 46.291 279.265 47.722 283.967C48.7457 287.332 47.1881 290.687 48.9328 293.854C49.6373 295.131 50.5509 296.277 51.2884 297.532C53.2918 300.946 53.8697 305.161 52.868 308.992C52.0589 312.072 50.2372 314.867 47.7715 316.884C47.0395 317.481 46.4947 317.881 45.8892 318.067V318.062Z" fill="#32B353"/>
<path d="M40.8879 315.62C43.2624 308.232 42.0454 300.128 39.5619 292.777C37.08 285.422 33.3883 278.528 30.6723 271.257" stroke="#161742" stroke-width="0.4" stroke-linecap="round" stroke-linejoin="round"/>
<path d="M38.3984 302.196C36.5932 300.639 34.5072 299.461 32.6029 298.031C30.9133 296.759 29.6199 295.148 28.0624 293.75C25.3215 291.295 23.7749 287.108 19.7847 286.335C18.1391 286.017 16.4495 286.406 14.7763 286.576C12.8555 286.773 10.9017 286.675 9.0084 286.297C7.74805 286.045 5.06222 284.532 4 284.921C5.24935 286.154 6.11344 287.442 6.73536 289.108C7.42883 290.966 8.00122 292.977 9.45421 294.331C10.6815 295.477 12.3492 295.975 13.9177 296.584C17.5667 297.992 18.4143 300.782 19.7517 304.196C20.2801 305.55 20.9295 307.068 22.1018 307.994C23.3952 309.014 25.1068 308.63 26.3947 309.474C27.3524 310.104 27.523 311.184 28.0238 312.143C28.7723 313.584 29.8181 314.774 31.2105 315.634C33.0653 316.779 35.2447 317.295 37.4077 317.58C39.8734 317.903 42.3831 318.122 44.8543 318.237C44.5626 316.062 44.3369 313.716 43.715 311.6C43.0215 309.233 42.0253 306.925 40.7155 304.826C40.099 303.84 39.2955 302.985 38.3929 302.201L38.3984 302.196Z" fill="#207739"/>
<path d="M47.2127 325.122C45.5525 317.543 40.4235 311.135 34.5774 306.012C28.7298 300.882 22.0677 296.757 16.06 291.817" stroke="#161742" stroke-width="0.4" stroke-linecap="round" stroke-linejoin="round"/>
<path d="M46.7531 302.245C48.4428 300.563 50.4461 299.247 52.2404 297.686C53.8365 296.299 55.0143 294.605 56.4727 293.098C59.032 290.457 60.2868 286.171 64.211 285.13C65.8346 284.697 67.5463 284.965 69.2249 285.02C71.1567 285.086 73.094 284.85 74.9598 284.34C76.1982 284.001 78.7684 282.302 79.8581 282.619C78.6968 283.935 77.9263 285.278 77.42 286.987C76.8586 288.889 76.4293 290.933 75.0754 292.386C73.9306 293.613 72.3015 294.227 70.7825 294.94C67.2436 296.6 66.5886 299.439 65.4989 302.936C65.0641 304.322 64.5247 305.879 63.4185 306.887C62.2021 307.989 60.4685 307.726 59.2411 308.663C58.3275 309.359 58.2339 310.444 57.8046 311.436C57.1607 312.927 56.1976 314.187 54.8657 315.141C53.0934 316.413 50.958 317.081 48.817 317.514C46.3789 318.007 43.8912 318.402 41.4365 318.687C41.5741 316.495 41.6347 314.144 42.108 311.99C42.6363 309.578 43.4674 307.211 44.6232 305.024C45.1681 303.994 45.9111 303.089 46.7586 302.245H46.7531Z" fill="#0B531F"/>
<path d="M43.0873 316.211C48.0693 313.952 51.7292 309.495 54.3973 304.737C57.0688 299.977 58.9276 294.808 61.4445 289.967" stroke="#161742" stroke-width="0.4" stroke-linecap="round" stroke-linejoin="round"/>
<path d="M53.859 321.574L53.7214 322.325L51.1512 336.536H33.3851L30.8093 322.325L30.6772 321.574H53.859Z" fill="#FFF3EB"/>
<path d="M56.0271 315.848H28.5029V321.575H56.0271V315.848Z" fill="#FFF3EB"/>
<path d="M53.859 321.574L53.7214 322.325H30.8093L30.6772 321.574H53.859Z" fill="#CC8F66"/>
<path d="M278.819 191.988H59.7095V336.543H278.819V191.988Z" fill="#161742"/>
<g opacity="0.52">
<path d="M278.813 280.07H263.617V336.536H278.813V280.07Z" fill="#1D478E"/>
<path d="M263.617 280.07H248.421V336.536H263.617V280.07Z" fill="#161742"/>
<path d="M248.421 280.07H233.226V336.536H248.421V280.07Z" fill="#1D478E"/>
<path d="M233.22 280.07H218.024V336.536H233.22V280.07Z" fill="#161742"/>
<path d="M218.024 280.07H202.828V336.536H218.024V280.07Z" fill="#1D478E"/>
<path d="M202.829 280.07H187.633V336.536H202.829V280.07Z" fill="#161742"/>
<path d="M187.632 280.07H172.437V336.536H187.632V280.07Z" fill="#1D478E"/>
<path d="M172.437 280.07H157.241V336.536H172.437V280.07Z" fill="#161742"/>
<path d="M157.24 280.07H142.044V336.536H157.24V280.07Z" fill="#1D478E"/>
<path d="M142.04 280.07H126.844V336.536H142.04V280.07Z" fill="#161742"/>
</g>
<path d="M126.844 208.094H63.0332V336.536H126.844V208.094Z" fill="#1D478E"/>
<path d="M84.4208 159H65.5649V161.395H84.4208V159Z" fill="#0E2C5E"/>
<path d="M103.277 159H84.4209V161.395H103.277V159Z" fill="#0E2C5E"/>
<path d="M122.127 159H103.271V161.395H122.127V159Z" fill="#0E2C5E"/>
<path d="M140.983 159H122.127V161.395H140.983V159Z" fill="#0E2C5E"/>
<path d="M159.833 159H140.977V161.395H159.833V159Z" fill="#0E2C5E"/>
<path d="M178.689 159H159.833V161.395H178.689V159Z" fill="#0E2C5E"/>
<path d="M197.544 159H178.688V161.395H197.544V159Z" fill="#0E2C5E"/>
<path d="M216.395 159H197.539V161.395H216.395V159Z" fill="#0E2C5E"/>
<path d="M235.251 159H216.396V161.395H235.251V159Z" fill="#0E2C5E"/>
<path d="M254.107 159H235.251V161.395H254.107V159Z" fill="#0E2C5E"/>
<path d="M272.957 159H254.102V161.395H272.957V159Z" fill="#0E2C5E"/>
<path d="M70.7274 194.322H48.8335C48.8335 199.759 53.2585 204.171 58.7237 204.171H60.8427C66.3024 204.171 70.7329 199.764 70.7329 194.322H70.7274Z" fill="#0E2C5E"/>
<path d="M92.6214 194.322H70.7275C70.7275 199.759 75.1525 204.171 80.6178 204.171H82.7367C88.1964 204.171 92.6269 199.764 92.6269 194.322H92.6214Z" fill="#32B353"/>
<path d="M114.521 194.322H92.6274C92.6274 199.759 97.0524 204.171 102.518 204.171H104.637C110.096 204.171 114.527 199.764 114.527 194.322H114.521Z" fill="#0E2C5E"/>
<path d="M136.415 194.322H114.521C114.521 199.759 118.946 204.171 124.411 204.171H126.53C131.99 204.171 136.42 199.764 136.42 194.322H136.415Z" fill="#32B353"/>
<path d="M158.314 194.322H136.42C136.42 199.759 140.845 204.171 146.311 204.171H148.43C153.889 204.171 158.32 199.764 158.32 194.322H158.314Z" fill="#0E2C5E"/>
<path d="M180.208 194.322H158.314C158.314 199.759 162.739 204.171 168.205 204.171H170.324C175.783 204.171 180.214 199.764 180.214 194.322H180.208Z" fill="#32B353"/>
<path d="M202.107 194.322H180.213C180.213 199.759 184.638 204.171 190.103 204.171H192.222C197.682 204.171 202.112 199.764 202.112 194.322H202.107Z" fill="#0E2C5E"/>
<path d="M224.001 194.322H202.107C202.107 199.759 206.532 204.171 211.998 204.171H214.117C219.576 204.171 224.007 199.764 224.007 194.322H224.001Z" fill="#32B353"/>
<path d="M245.895 194.322H224.001C224.001 199.759 228.426 204.171 233.891 204.171H236.01C241.47 204.171 245.9 199.764 245.9 194.322H245.895Z" fill="#0E2C5E"/>
<path d="M267.794 194.322H245.9C245.9 199.759 250.325 204.171 255.791 204.171H257.91C263.369 204.171 267.8 199.764 267.8 194.322H267.794Z" fill="#32B353"/>
<path d="M289.688 194.322H267.794C267.794 199.759 272.219 204.171 277.684 204.171H279.803C285.263 204.171 289.693 199.764 289.693 194.322H289.688Z" fill="#0E2C5E"/>
<path d="M84.4207 161.395L70.7274 194.322H48.8335L65.5649 161.395H84.4207Z" fill="#1D478E"/>
<path d="M103.271 161.395L92.6214 194.322H70.7275L84.4208 161.395H103.271Z" fill="#32B353"/>
<path d="M122.127 161.395L114.52 194.322H92.6211L103.271 161.395H122.127Z" fill="#1D478E"/>
<path d="M140.977 161.395L136.415 194.322H114.521L122.127 161.395H140.977Z" fill="#32B353"/>
<path d="M159.833 161.395L158.314 194.322H136.415L140.977 161.395H159.833Z" fill="#1D478E"/>
<path d="M254.102 161.395L267.795 194.322H289.689L272.957 161.395H254.102Z" fill="#1D478E"/>
<path d="M235.252 161.395L245.896 194.322H267.796L254.102 161.395H235.252Z" fill="#32B353"/>
<path d="M216.396 161.395L224.002 194.322H245.896L235.251 161.395H216.396Z" fill="#1D478E"/>
<path d="M197.54 161.395L202.108 194.322H224.002L216.396 161.395H197.54Z" fill="#32B353"/>
<path d="M178.689 161.395L180.208 194.322H202.108L197.54 161.395H178.689Z" fill="#1D478E"/>
<path d="M178.689 161.395L180.115 194.322H158.221L159.833 161.395H178.689Z" fill="#32B353"/>
<path d="M283.827 275.555H122.358V280.071H283.827V275.555Z" fill="#000103"/>
<path d="M138.633 275.555H133.724V297.691H138.633V275.555Z" fill="#000103"/>
<path d="M272.467 275.555H267.558V297.691H272.467V275.555Z" fill="#000103"/>
<path d="M278.819 332.246H59.7095V336.537H278.819V332.246Z" fill="#000103"/>
<path d="M123.245 270.989V211.684H66.6332V270.989H123.245Z" fill="#CAE7ED"/>
<path d="M96.7386 211.684H93.1392V270.989H96.7386V211.684Z" fill="#1D478E"/>
<path d="M124.72 239.541H65.1636V243.125H124.72V239.541Z" fill="#1D478E"/>
<path d="M274.504 208.094H131.682V275.554H274.504V208.094Z" fill="#5BC4F0" fill-opacity="0.3"/>
<path d="M270.976 211.969H194.771V262.658H270.976V211.969Z" fill="#000103"/>
<path d="M268.774 214.16H196.973V260.465H268.774V214.16Z" fill="#161742"/>
<path d="M150.642 226.539C150.642 227.542 149.827 228.353 148.82 228.353C147.813 228.353 146.999 227.542 146.999 226.539C146.999 225.536 147.813 224.725 148.82 224.725C149.827 224.725 150.642 225.536 150.642 226.539Z" fill="#EBEBEB"/>
<path d="M148.82 223.233C147.94 223.233 147.224 222.52 147.224 221.643V216.152C147.224 215.275 147.94 214.562 148.82 214.562C149.701 214.562 150.416 215.275 150.416 216.152V221.643C150.416 222.52 149.701 223.233 148.82 223.233Z" fill="#000103"/>
<path d="M148.821 219.812C145.491 219.812 142.789 222.503 142.789 225.819H154.858C154.858 222.503 152.156 219.812 148.826 219.812H148.821Z" fill="#1D478E"/>
<path d="M155.012 226.537H142.629C142.431 226.537 142.271 226.378 142.271 226.18C142.271 225.983 142.431 225.824 142.629 225.824H155.012C155.21 225.824 155.37 225.983 155.37 226.18C155.37 226.378 155.21 226.537 155.012 226.537Z" fill="#161742"/>
<path d="M148.82 215.023V208.096" stroke="#000103" stroke-width="0.5" stroke-miterlimit="10"/>
<path style="mix-blend-mode:screen" opacity="0.25" d="M162.363 275.267H135.521L142.802 227.156H155.082L162.363 275.267Z" fill="url(#paint0_linear_478_421)"/>
<path d="M178.403 226.539C178.403 227.542 177.589 228.353 176.582 228.353C175.574 228.353 174.76 227.542 174.76 226.539C174.76 225.536 175.574 224.725 176.582 224.725C177.589 224.725 178.403 225.536 178.403 226.539Z" fill="#EBEBEB"/>
<path d="M176.581 223.233C175.701 223.233 174.985 222.52 174.985 221.643V216.152C174.985 215.275 175.701 214.562 176.581 214.562C177.462 214.562 178.178 215.275 178.178 216.152V221.643C178.178 222.52 177.462 223.233 176.581 223.233Z" fill="#000103"/>
<path d="M176.582 219.812C173.252 219.812 170.55 222.503 170.55 225.819H182.62C182.62 222.503 179.917 219.812 176.587 219.812H176.582Z" fill="#1D478E"/>
<path d="M182.773 226.537H170.39C170.192 226.537 170.032 226.378 170.032 226.18C170.032 225.983 170.192 225.824 170.39 225.824H182.773C182.972 225.824 183.131 225.983 183.131 226.18C183.131 226.378 182.972 226.537 182.773 226.537Z" fill="#161742"/>
<path d="M176.582 215.023V208.096" stroke="#000103" stroke-width="0.5" stroke-miterlimit="10"/>
<path style="mix-blend-mode:screen" opacity="0.25" d="M189.204 275.267H163.705L170.621 227.156H182.288L189.204 275.267Z" fill="url(#paint1_linear_478_421)"/>
<path d="M231.431 226.539C231.431 227.542 230.616 228.353 229.609 228.353C228.602 228.353 227.787 227.542 227.787 226.539C227.787 225.536 228.602 224.725 229.609 224.725C230.616 224.725 231.431 225.536 231.431 226.539Z" fill="#EBEBEB"/>
<path d="M229.609 223.233C228.728 223.233 228.013 222.52 228.013 221.643V216.152C228.013 215.275 228.728 214.562 229.609 214.562C230.489 214.562 231.205 215.275 231.205 216.152V221.643C231.205 222.52 230.489 223.233 229.609 223.233Z" fill="#000103"/>
<path d="M229.609 219.812C226.279 219.812 223.577 222.503 223.577 225.819H235.647C235.647 222.503 232.945 219.812 229.615 219.812H229.609Z" fill="#1D478E"/>
<path d="M235.801 226.537H223.417C223.219 226.537 223.06 226.378 223.06 226.18C223.06 225.983 223.219 225.824 223.417 225.824H235.801C235.999 225.824 236.158 225.983 236.158 226.18C236.158 226.378 235.999 226.537 235.801 226.537Z" fill="#161742"/>
<path d="M229.609 215.023V208.096" stroke="#000103" stroke-width="0.5" stroke-miterlimit="10"/>
<path style="mix-blend-mode:screen" opacity="0.25" d="M242.885 275.267H216.044L223.326 227.156H235.603L242.885 275.267Z" fill="url(#paint2_linear_478_421)"/>
<path d="M259.185 226.539C259.185 227.542 258.371 228.353 257.364 228.353C256.357 228.353 255.542 227.542 255.542 226.539C255.542 225.536 256.357 224.725 257.364 224.725C258.371 224.725 259.185 225.536 259.185 226.539Z" fill="#EBEBEB"/>
<path d="M257.364 223.233C256.483 223.233 255.768 222.52 255.768 221.643V216.152C255.768 215.275 256.483 214.562 257.364 214.562C258.244 214.562 258.96 215.275 258.96 216.152V221.643C258.96 222.52 258.244 223.233 257.364 223.233Z" fill="#000103"/>
<path d="M257.364 219.812C254.034 219.812 251.332 222.503 251.332 225.819H263.402C263.402 222.503 260.699 219.812 257.37 219.812H257.364Z" fill="#1D478E"/>
<path d="M263.556 226.537H251.172C250.974 226.537 250.814 226.378 250.814 226.18C250.814 225.983 250.974 225.824 251.172 225.824H263.556C263.754 225.824 263.913 225.983 263.913 226.18C263.913 226.378 263.754 226.537 263.556 226.537Z" fill="#161742"/>
<path d="M257.364 215.023V208.096" stroke="#000103" stroke-width="0.5" stroke-miterlimit="10"/>
<path style="mix-blend-mode:screen" opacity="0.25" d="M271.068 275.267H244.227L251.507 227.156H263.788L271.068 275.267Z" fill="url(#paint3_linear_478_421)"/>
<path d="M185.569 267.443H179.493V268.002H185.569V267.443Z" fill="#FFF3EB"/>
<path d="M184.749 275.554H180.313L179.796 268.002H185.267L184.749 275.554Z" fill="#5BC4F0"/>
<path d="M185.267 267.444H179.796L180.055 266.77H185.008L185.267 267.444Z" fill="#FFF3EB"/>
<path d="M182.532 273.428C183.447 273.428 184.188 272.69 184.188 271.779C184.188 270.867 183.447 270.129 182.532 270.129C181.617 270.129 180.875 270.867 180.875 271.779C180.875 272.69 181.617 273.428 182.532 273.428Z" fill="#FFF3EB"/>
<path d="M148 275.556H161.864L163.41 257.213H149.552L148 275.556Z" fill="#161742"/>
<path d="M164.963 275.556H151.104L149.552 257.213H163.411L164.963 275.556Z" fill="#5BC4F0"/>
<path d="M163.411 256.127H149.552V257.218H163.411V256.127Z" fill="#FFF3EB"/>
<path d="M157.258 271.56C160.127 271.56 162.454 269.244 162.454 266.387C162.454 263.529 160.127 261.213 157.258 261.213C154.389 261.213 152.062 263.529 152.062 266.387C152.062 269.244 154.389 271.56 157.258 271.56Z" fill="#FFF3EB"/>
<path d="M159.685 275.555H170.098L171.259 261.777H160.851L159.685 275.555Z" fill="#161742"/>
<path d="M172.426 275.555H162.013L160.852 261.777H171.259L172.426 275.555Z" fill="#5BC4F0"/>
<path d="M171.259 260.961H160.852V261.778H171.259V260.961Z" fill="#FFF3EB"/>
<path d="M170.543 268.667C170.543 270.815 168.792 272.553 166.64 272.553C164.488 272.553 162.738 270.81 162.738 268.667C162.738 266.524 164.488 264.781 166.64 264.781C168.792 264.781 170.543 266.524 170.543 268.667Z" fill="#FFF3EB"/>
<path d="M53.6331 315.69C53.6331 315.69 52.1801 309.535 53.6331 304.663C55.0861 299.791 60.7219 294.074 64.4479 291.427C68.174 288.78 73.9089 284.335 75.2958 281.475C75.2958 281.475 77.6954 291.005 72.8797 297.039C68.0639 303.073 57.3261 310.275 53.6386 315.69H53.6331Z" fill="#207739"/>
<path d="M51.338 328.086C50.9912 320.337 54.299 312.834 58.6304 306.389C62.9619 299.938 68.339 294.25 72.8741 287.941" stroke="#161742" stroke-width="0.4" stroke-linecap="round" stroke-linejoin="round"/>
<path d="M60.7769 314.708C60.7769 314.708 66.3191 306.285 77.5908 306.811C88.8624 307.337 95.8797 310.746 95.8797 310.746C95.8797 310.746 91.2015 316.024 83.3312 316.024C75.4608 316.024 64.2717 319.109 60.7769 314.708Z" fill="#32B353"/>
<path d="M52.7085 330.952C52.7085 330.952 53.5341 316.976 62.3731 314.011C71.2121 311.046 88.015 311.896 88.015 311.896" stroke="#161742" stroke-width="0.4" stroke-linecap="round" stroke-linejoin="round"/>
<path d="M47.4523 320.88C47.4523 320.88 48.1073 312.867 40.7433 307.699C33.3848 302.531 27.2866 301.254 27.2866 301.254C27.2866 301.254 27.6389 306.861 32.5922 310.702C37.5511 314.544 43.0824 321.943 47.4468 320.88H47.4523Z" fill="#32B353"/>
<path d="M51.3104 335.052C51.3104 335.052 50.9031 325.844 46.7919 319.662C42.6806 313.48 31.6841 305.818 31.6841 305.818" stroke="#161742" stroke-width="0.4" stroke-linecap="round" stroke-linejoin="round"/>
<path d="M59.4995 323.363C59.4995 323.363 61.3378 320.738 66.6379 319.477C71.938 318.217 81.7897 321.763 85.8845 325.161C85.8845 325.161 79.5937 323.878 76.1814 325.161C68.7513 327.956 62.378 325.561 59.4995 323.357V323.363Z" fill="#207739"/>
<path d="M54.497 331.354C54.497 331.354 52.411 318.518 76.8587 322.634" stroke="#161742" stroke-width="0.4" stroke-linecap="round" stroke-linejoin="round"/>
<path d="M62.9458 330.355L62.8358 330.953L60.7994 342.215H46.7153L44.6789 330.953L44.5688 330.355H62.9458Z" fill="#FFF3EB"/>
<path d="M64.663 325.818H42.8462V330.356H64.663V325.818Z" fill="#FFF3EB"/>
<path d="M62.9458 330.355L62.8358 330.953H44.6789L44.5688 330.355H62.9458Z" fill="#DB9C72"/>
<path d="M160.466 300.344L160.378 301.577L157.329 342.39H152.717L155.755 301.577L155.848 300.344H160.466Z" fill="#FFF3EB"/>
<path d="M177.864 342.39H173.251L170.208 301.577L170.114 300.344H174.737L174.825 301.577L177.864 342.39Z" fill="#FFF3EB"/>
<path d="M177.621 295.422H152.717V300.349H177.621V295.422Z" fill="#FFF3EB"/>
<path d="M160.466 300.344L160.378 301.577H155.755L155.848 300.344H160.466Z" fill="#D19466"/>
<path d="M174.825 301.577H170.208L170.114 300.344H174.737L174.825 301.577Z" fill="#D19466"/>
<path d="M174.731 325.807H155.848V329.912H174.731V325.807Z" fill="#FFF3EB"/>
<path d="M229.82 300.344L229.732 301.577L226.682 342.39H222.07L225.108 301.577L225.196 300.344H229.82Z" fill="#FFF3EB"/>
<path d="M247.217 342.39H242.605L239.556 301.577L239.468 300.344H244.091L244.179 301.577L247.217 342.39Z" fill="#FFF3EB"/>
<path d="M246.969 295.422H222.064V300.349H246.969V295.422Z" fill="#FFF3EB"/>
<path d="M229.82 300.344L229.732 301.577H225.108L225.196 300.344H229.82Z" fill="#D19466"/>
<path d="M244.179 301.577H239.556L239.468 300.344H244.091L244.179 301.577Z" fill="#D19466"/>
<path d="M244.085 325.807H225.201V329.912H244.085V325.807Z" fill="#FFF3EB"/>
<path d="M271 249.005C274.244 250.573 276.474 252.981 277.995 256C279.517 252.981 281.756 250.564 285 248.995C281.756 247.427 279.517 245.019 277.995 242C276.474 245.019 274.244 247.436 271 249.005Z" fill="#FFD325"/>
<path d="M0 265.005C3.24402 266.573 5.47369 268.981 6.99522 272C8.51675 268.981 10.756 266.564 14 264.995C10.756 263.427 8.51675 261.019 6.99522 258C5.47369 261.019 3.24402 263.436 0 265.005Z" fill="#FFD325"/>
<path d="M278 154.004C280.549 155.349 282.301 157.412 283.496 160C284.692 157.412 286.451 155.341 289 153.996C286.451 152.651 284.692 150.588 283.496 148C282.301 150.588 280.549 152.659 278 154.004Z" fill="#AF8E2F"/>
<path d="M16 67.5062C20.1709 69.6352 23.0376 72.9029 24.9939 77C26.9501 72.9029 29.8291 69.6228 34 67.4938C29.8291 65.3648 26.9501 62.0971 24.9939 58C23.0376 62.0971 20.1709 65.3772 16 67.5062Z" fill="#FFD325"/>
<path d="M315 289.503C317.085 290.511 318.519 292.059 319.497 294C320.475 292.059 321.915 290.506 324 289.497C321.915 288.489 320.475 286.941 319.497 285C318.519 286.941 317.085 288.494 315 289.503Z" fill="#AF8E2F"/>
<path d="M29 198.503C31.3172 199.511 32.9098 201.059 33.9966 203C35.0834 201.059 36.6828 199.506 39 198.497C36.6828 197.489 35.0834 195.941 33.9966 194C32.9098 195.941 31.3172 197.494 29 198.503Z" fill="#AF8E2F"/>
<path d="M295 4.50293C297.317 5.51139 298.91 7.05928 299.997 9C301.083 7.05928 302.683 5.50553 305 4.49706C302.683 3.48859 301.083 1.94072 299.997 0C298.91 1.94072 297.317 3.49446 295 4.50293Z" fill="#AF8E2F"/>
<defs>
<linearGradient id="paint0_linear_478_421" x1="148.939" y1="213.419" x2="148.939" y2="260.59" gradientUnits="userSpaceOnUse">
<stop stop-color="#FFE0B2"/>
<stop offset="1" stop-opacity="0"/>
</linearGradient>
<linearGradient id="paint1_linear_478_421" x1="176.457" y1="98.9054" x2="176.457" y2="98.9054" gradientUnits="userSpaceOnUse">
<stop stop-color="#FFE0B2"/>
<stop offset="1" stop-opacity="0"/>
</linearGradient>
<linearGradient id="paint2_linear_478_421" x1="229.464" y1="98.9054" x2="229.464" y2="98.9054" gradientUnits="userSpaceOnUse">
<stop stop-color="#FFE0B2"/>
<stop offset="1" stop-opacity="0"/>
</linearGradient>
<linearGradient id="paint3_linear_478_421" x1="257.644" y1="98.9054" x2="257.644" y2="98.9054" gradientUnits="userSpaceOnUse">
<stop stop-color="#FFE0B2"/>
<stop offset="1" stop-opacity="0"/>
</linearGradient>
</defs>
</svg>
