<svg width="244" height="179" viewBox="0 0 244 179" fill="none" xmlns="http://www.w3.org/2000/svg">
<path d="M122 179C189.379 179 244 175.194 244 170.5C244 165.806 189.379 162 122 162C54.6213 162 0 165.806 0 170.5C0 175.194 54.6213 179 122 179Z" fill="#5BC4F0" fill-opacity="0.2"/>
<circle cx="124" cy="91" r="70" fill="#5BC4F0" fill-opacity="0.1"/>
<path d="M145.162 52H99.4152C95.3199 52 92 55.3092 92 59.3913V159.442C92 163.524 95.3199 166.833 99.4152 166.833H145.162C149.257 166.833 152.577 163.524 152.577 159.442V59.3913C152.577 55.3092 149.257 52 145.162 52Z" fill="#1C004F"/>
<path d="M145.604 54.8438H98.9777C96.576 54.8438 94.6292 56.7844 94.6292 59.1782V159.648C94.6292 162.041 96.576 163.982 98.9777 163.982H145.604C148.005 163.982 149.952 162.041 149.952 159.648V59.1782C149.952 56.7844 148.005 54.8438 145.604 54.8438Z" fill="white"/>
<path d="M109.193 53.4219H135.603V57.3116C135.603 59.5747 133.761 61.4149 131.487 61.4149H113.091C110.82 61.4149 108.974 59.5791 108.974 57.3116V53.6399C108.974 53.5178 109.07 53.4219 109.193 53.4219Z" fill="#1C004F"/>
<path d="M120.155 126.302C119.527 126.653 119.014 126.351 119.014 125.632V110.678C119.014 109.959 118.512 109.064 117.898 108.69L112.588 105.45C111.973 105.075 111.983 104.478 112.608 104.123L115.694 102.367C116.319 102.011 117.339 102.017 117.961 102.378L123.132 105.387C123.754 105.748 124.262 106.633 124.262 107.351V122.698C124.262 123.417 123.748 124.292 123.122 124.643L120.155 126.302Z" fill="#1D478E"/>
<path d="M117.253 99.4212C116.627 99.0682 116.624 98.4869 117.248 98.1293L120.794 96.097C121.418 95.7394 122.438 95.7385 123.063 96.0942L131.25 100.759C131.875 101.115 132.386 101.995 132.386 102.714V111.995C132.386 112.714 131.878 113.6 131.258 113.964L127.677 116.066C127.056 116.43 126.55 116.14 126.55 115.421V105.971C126.55 105.252 126.037 104.375 125.411 104.021L117.253 99.4212Z" fill="#1D478E"/>
<path d="M49.2169 45.003C44.8006 44.8823 41.1238 48.3653 41.003 52.7831C40.8823 57.1994 44.3653 60.8777 48.7831 60.997C53.1994 61.1177 56.8777 57.6347 56.997 53.2169C57.1177 48.8006 53.6347 45.1238 49.2169 45.003ZM55.4378 53.1745C55.3907 54.8937 54.677 56.4912 53.4277 57.6739C52.1799 58.8566 50.5462 59.4833 48.8255 59.4362C45.2774 59.339 42.4681 56.3736 42.5653 52.8239C42.6124 51.1048 43.3245 49.5072 44.5739 48.3245C45.7786 47.1834 47.3432 46.5606 48.9965 46.5606C49.0569 46.5606 49.1157 46.5622 49.1761 46.5638C52.6669 46.6579 55.4401 49.5292 55.4401 52.998C55.4401 53.0569 55.4401 53.1157 55.4386 53.1737L55.4378 53.1745Z" fill="#FFD325"/>
<path d="M55.6666 52.9994C55.6666 53.0603 55.6666 53.1212 55.665 53.1813C55.6162 54.9611 54.8773 56.615 53.5836 57.8403C52.2917 59.0647 50.6001 59.7135 48.8185 59.6648C45.1447 59.5641 42.2359 56.4941 42.3357 52.8191C42.3845 51.0393 43.1218 49.3853 44.4154 48.1601C45.6628 46.9787 47.2828 46.334 48.9947 46.334C49.0572 46.334 49.1181 46.3356 49.1806 46.3372C52.7959 46.4347 55.6666 49.4073 55.6666 52.9994Z" fill="#AF8E2F"/>
<path d="M51.0606 51.8526C51.0347 51.8268 51.0033 51.8118 50.9625 51.8105L50.224 51.7867C50.1829 51.5471 50.0982 51.3362 49.9672 51.1566L50.9741 51.1897C51.015 51.1897 51.0477 51.1787 51.0749 51.1542C51.1021 51.1283 51.1157 51.097 51.117 51.0561L51.1316 50.6164C51.1329 50.5756 51.1206 50.5429 51.0961 50.5157C51.0702 50.4885 51.0375 50.4749 50.9979 50.4736L47.4036 50.3573C47.3641 50.356 47.33 50.3669 47.3028 50.3928C47.277 50.4173 47.262 50.45 47.2607 50.4908L47.2422 51.0653C47.2408 51.1021 47.2531 51.1361 47.2804 51.1633C47.3063 51.1919 47.339 51.2068 47.3758 51.2068L48.0026 51.2266C48.6103 51.2464 48.9906 51.4217 49.1448 51.7523L47.3599 51.6942C47.3204 51.6942 47.2864 51.7051 47.2591 51.7297C47.2319 51.7542 47.2183 51.7869 47.217 51.8277L47.2024 52.2675C47.2025 52.3083 47.2134 52.341 47.238 52.3682C47.2625 52.3954 47.2952 52.4089 47.3361 52.4103L49.181 52.4711C49.109 52.7053 48.9552 52.8797 48.7196 52.9957C48.484 53.1116 48.1761 53.1636 47.796 53.1504L47.3123 53.1345C47.2741 53.1346 47.2414 53.1469 47.2129 53.1727C47.1843 53.2 47.1693 53.2313 47.168 53.2681L47.1494 53.8167C47.1481 53.8548 47.1604 53.8861 47.185 53.9133C47.7196 54.5186 48.4085 55.3634 49.2557 56.4489C49.2802 56.4843 49.3157 56.5019 49.362 56.5046L50.204 56.5324C50.264 56.535 50.3076 56.5105 50.332 56.4588C50.362 56.407 50.3592 56.358 50.3196 56.3104C49.5134 55.252 48.8763 54.4603 48.4126 53.9312C48.9044 53.8899 49.3062 53.7438 49.6207 53.4958C49.9352 53.2463 50.131 52.9167 50.211 52.5041L50.9373 52.5279C50.9768 52.5279 51.0108 52.517 51.0367 52.4925C51.0639 52.4679 51.0775 52.4352 51.0788 52.3944L51.0934 51.9547C51.0933 51.9138 51.0824 51.8812 51.0579 51.854L51.0606 51.8526Z" fill="#DCB414"/>
<path d="M71.4879 12.0069C61.5512 11.7351 53.2786 19.5719 53.0069 29.5121C52.7351 39.4488 60.5719 47.7249 70.5121 47.9931C80.4488 48.2649 88.7249 40.4281 88.9931 30.4879C89.2649 20.5512 81.4281 12.2786 71.4879 12.0069ZM85.485 30.3926C85.3792 34.2607 83.7733 37.8553 80.9623 40.5164C78.1547 43.1774 74.479 44.5874 70.6074 44.4815C62.6241 44.2627 56.3032 37.5906 56.522 29.6038C56.6279 25.7358 58.2302 22.1412 61.0413 19.4801C63.7517 16.9126 67.2722 15.5114 70.9921 15.5114C71.1279 15.5114 71.2603 15.515 71.3962 15.5185C79.2506 15.7302 85.4903 22.1906 85.4903 29.9956C85.4903 30.1279 85.4903 30.2603 85.4868 30.3909L85.485 30.3926Z" fill="#FFD325"/>
<path d="M86 29.9971C86 30.1341 86 30.2712 85.9964 30.4064C85.8867 34.4109 84.224 38.1324 81.3134 40.8892C78.4064 43.6442 74.6005 45.1039 70.5917 44.9942C62.3257 44.7677 55.7809 37.8602 56.0056 29.5915C56.1152 25.587 57.7743 21.8655 60.6849 19.1087C63.4914 16.4506 67.1366 15 70.9882 15C71.1289 15 71.2659 15.0037 71.4066 15.0073C79.5411 15.2265 86 21.9149 86 29.9971Z" fill="#AF8E2F"/>
<path d="M75.6365 27.4169C75.5782 27.3587 75.5076 27.3251 75.4156 27.3221L73.754 27.2686C73.6615 26.7296 73.471 26.255 73.1763 25.851L75.4419 25.9254C75.5338 25.9253 75.6074 25.9007 75.6686 25.8455C75.7299 25.7872 75.7605 25.7168 75.7635 25.6249L75.7962 24.6355C75.7992 24.5436 75.7715 24.4701 75.7163 24.4089C75.658 24.3477 75.5844 24.3171 75.4955 24.3141L67.4082 24.0524C67.3193 24.0495 67.2427 24.074 67.1815 24.1323C67.1233 24.1875 67.0896 24.261 67.0866 24.3529L67.045 25.6456C67.042 25.7283 67.0696 25.8048 67.131 25.866C67.1893 25.9303 67.2629 25.9639 67.3457 25.9638L68.7559 26.0084C70.1232 26.053 70.9789 26.4473 71.326 27.1913L67.31 27.0604C67.2211 27.0605 67.1445 27.0851 67.0832 27.1403C67.0219 27.1955 66.9914 27.269 66.9884 27.3609L66.9556 28.3503C66.9557 28.4422 66.9803 28.5157 67.0356 28.5769C67.0908 28.6381 67.1644 28.6687 67.2564 28.6716L71.4073 28.8085C71.2453 29.3355 70.8993 29.7279 70.3692 29.9888C69.8391 30.2497 69.1464 30.3667 68.2911 30.3369L67.2028 30.3012C67.1169 30.3013 67.0434 30.329 66.9791 30.3872C66.9147 30.4485 66.8811 30.519 66.8781 30.6017L66.8364 31.8362C66.8334 31.9219 66.8611 31.9924 66.9163 32.0536C68.1193 33.4155 69.6693 35.3161 71.5754 37.7586C71.6306 37.8381 71.7104 37.8779 71.8146 37.8839L73.7092 37.9464C73.8441 37.9524 73.9421 37.8972 73.9972 37.7807C74.0645 37.6643 74.0583 37.554 73.9693 37.4469C72.1552 35.0656 70.7219 33.2843 69.6784 32.0938C70.785 32.0008 71.689 31.6722 72.3966 31.114C73.1042 30.5528 73.545 29.8111 73.7249 28.8829L75.359 28.9364C75.4479 28.9363 75.5245 28.9117 75.5827 28.8566C75.6439 28.8014 75.6745 28.7278 75.6775 28.6359L75.7102 27.6465C75.7102 27.5546 75.6856 27.4811 75.6303 27.4199L75.6365 27.4169Z" fill="#DCB414"/>
<path d="M185.776 95.7656H205.865C206.846 95.7656 207.641 94.973 207.641 93.9952V73.3127C207.641 72.3349 206.846 71.5422 205.865 71.5422H185.776C184.795 71.5422 184 72.3349 184 73.3127V93.9952C184 94.973 184.795 95.7656 185.776 95.7656Z" fill="#161742"/>
<path d="M207.641 78.5156H184V73.309C184 72.3322 184.796 71.5386 185.776 71.5386H205.865C206.845 71.5386 207.641 72.3322 207.641 73.309V78.5156Z" fill="#1D478E"/>
<path d="M201.136 84.5586H204.29C204.481 84.5586 204.636 84.4044 204.636 84.2141V81.0701C204.636 80.8798 204.481 80.7256 204.29 80.7256H201.136C200.945 80.7256 200.79 80.8798 200.79 81.0701V84.2141C200.79 84.4044 200.945 84.5586 201.136 84.5586Z" fill="#5BC4F0" fill-opacity="0.3"/>
<path d="M196.625 84.5586H199.78C199.971 84.5586 200.125 84.4044 200.125 84.2141V81.0701C200.125 80.8798 199.971 80.7256 199.78 80.7256H196.625C196.435 80.7256 196.28 80.8798 196.28 81.0701V84.2141C196.28 84.4044 196.435 84.5586 196.625 84.5586Z" fill="white"/>
<path d="M190.199 73.3519C189.766 73.3519 189.412 72.9987 189.412 72.567V69.7849C189.412 69.3532 189.766 69 190.199 69C190.632 69 190.987 69.3532 190.987 69.7849V72.567C190.987 72.9987 190.632 73.3519 190.199 73.3519Z" fill="#32B353"/>
<path d="M194.189 73.3558C193.756 73.3558 193.401 73.0026 193.401 72.5709V69.7888C193.401 69.3571 193.756 69.0039 194.189 69.0039C194.622 69.0039 194.976 69.3571 194.976 69.7888V72.5709C194.976 73.0026 194.622 73.3558 194.189 73.3558Z" fill="#32B353"/>
<path d="M197.99 73.3519C197.557 73.3519 197.203 72.9987 197.203 72.567V69.7849C197.203 69.3532 197.557 69 197.99 69C198.423 69 198.778 69.3532 198.778 69.7849V72.567C198.778 72.9987 198.423 73.3519 197.99 73.3519Z" fill="#32B353"/>
<path d="M192.084 84.5586H195.239C195.429 84.5586 195.584 84.4044 195.584 84.2141V81.0701C195.584 80.8798 195.429 80.7256 195.239 80.7256H192.084C191.894 80.7256 191.739 80.8798 191.739 81.0701V84.2141C191.739 84.4044 191.894 84.5586 192.084 84.5586Z" fill="#5BC4F0" fill-opacity="0.3"/>
<path d="M187.57 84.5586H190.724C190.915 84.5586 191.07 84.4044 191.07 84.2141V81.0701C191.07 80.8798 190.915 80.7256 190.724 80.7256H187.57C187.379 80.7256 187.224 80.8798 187.224 81.0701V84.2141C187.224 84.4044 187.379 84.5586 187.57 84.5586Z" fill="#5BC4F0" fill-opacity="0.3"/>
<path d="M201.105 88.8281H204.259C204.45 88.8281 204.605 88.6739 204.605 88.4836V85.3396C204.605 85.1493 204.45 84.9951 204.259 84.9951H201.105C200.914 84.9951 200.76 85.1493 200.76 85.3396V88.4836C200.76 88.6739 200.914 88.8281 201.105 88.8281Z" fill="#5BC4F0" fill-opacity="0.3"/>
<path d="M196.595 88.8281H199.749C199.94 88.8281 200.095 88.6739 200.095 88.4836V85.3396C200.095 85.1493 199.94 84.9951 199.749 84.9951H196.595C196.404 84.9951 196.249 85.1493 196.249 85.3396V88.4836C196.249 88.6739 196.404 88.8281 196.595 88.8281Z" fill="white"/>
<path d="M192.05 88.8281H195.204C195.395 88.8281 195.549 88.6739 195.549 88.4836V85.3396C195.549 85.1493 195.395 84.9951 195.204 84.9951H192.05C191.859 84.9951 191.704 85.1493 191.704 85.3396V88.4836C191.704 88.6739 191.859 88.8281 192.05 88.8281Z" fill="#5BC4F0" fill-opacity="0.3"/>
<path d="M187.539 88.8281H190.693C190.884 88.8281 191.039 88.6739 191.039 88.4836V85.3396C191.039 85.1493 190.884 84.9951 190.693 84.9951H187.539C187.348 84.9951 187.194 85.1493 187.194 85.3396V88.4836C187.194 88.6739 187.348 88.8281 187.539 88.8281Z" fill="#5BC4F0" fill-opacity="0.3"/>
<path d="M201.075 93.1367H204.229C204.42 93.1367 204.574 92.9825 204.574 92.7922V89.6482C204.574 89.4579 204.42 89.3037 204.229 89.3037H201.075C200.884 89.3037 200.729 89.4579 200.729 89.6482V92.7922C200.729 92.9825 200.884 93.1367 201.075 93.1367Z" fill="#5BC4F0" fill-opacity="0.3"/>
<path d="M196.56 93.1367H199.714C199.905 93.1367 200.06 92.9825 200.06 92.7922V89.6482C200.06 89.4579 199.905 89.3037 199.714 89.3037H196.56C196.369 89.3037 196.214 89.4579 196.214 89.6482V92.7922C196.214 92.9825 196.369 93.1367 196.56 93.1367Z" fill="white"/>
<path d="M192.019 93.1367H195.173C195.364 93.1367 195.519 92.9825 195.519 92.7922V89.6482C195.519 89.4579 195.364 89.3037 195.173 89.3037H192.019C191.828 89.3037 191.673 89.4579 191.673 89.6482V92.7922C191.673 92.9825 191.828 93.1367 192.019 93.1367Z" fill="#5BC4F0" fill-opacity="0.3"/>
<path d="M187.504 93.1367H190.658C190.849 93.1367 191.004 92.9825 191.004 92.7922V89.6482C191.004 89.4579 190.849 89.3037 190.658 89.3037H187.504C187.313 89.3037 187.159 89.4579 187.159 89.6482V92.7922C187.159 92.9825 187.313 93.1367 187.504 93.1367Z" fill="#5BC4F0" fill-opacity="0.3"/>
<path d="M201.805 73.3519C201.372 73.3519 201.018 72.9987 201.018 72.567V69.7849C201.018 69.3532 201.372 69 201.805 69C202.238 69 202.593 69.3532 202.593 69.7849V72.567C202.593 72.9987 202.238 73.3519 201.805 73.3519Z" fill="#32B353"/>
<path d="M177.412 40.3904C174.525 37.3729 174.315 36.3219 178.821 31.9002C183.327 27.4785 182.623 21.3736 182.623 21.3736L173.965 21.2079V21.1992H173.716H173.466V21.2079L164.809 21.3736C164.809 21.3736 164.104 27.4785 168.61 31.9002C173.116 36.3219 172.906 37.3729 170.019 40.3904C167.132 43.408 163.19 46.3558 163.33 51.8982H184.097C184.237 46.3558 180.295 43.408 177.408 40.3904H177.412Z" fill="#5BC4F0" fill-opacity="0.2"/>
<path d="M184.272 53.4019H163.164C162.521 53.4019 162 52.883 162 52.242C162 51.6009 162.521 51.082 163.164 51.082H184.272C184.915 51.082 185.436 51.6009 185.436 52.242C185.436 52.883 184.915 53.4019 184.272 53.4019Z" fill="#32B353"/>
<path d="M184.272 22.3199H163.164C162.521 22.3199 162 21.8009 162 21.1599C162 20.5189 162.521 20 163.164 20H184.272C184.915 20 185.436 20.5189 185.436 21.1599C185.436 21.8009 184.915 22.3199 184.272 22.3199Z" fill="#32B353"/>
<path d="M169.708 30.3047H177.902C178.178 30.3047 178.327 30.6099 178.152 30.8105L174.429 35.0011C174.38 35.0578 174.354 35.1276 174.354 35.1973V47.8694C174.354 48.0394 174.499 48.1746 174.678 48.1746H181.643C181.783 48.1746 181.909 48.2618 181.953 48.3883L182.421 49.7837C182.487 49.9799 182.329 50.1849 182.111 50.1849H165.355C165.141 50.1849 164.988 49.993 165.04 49.8011L165.43 48.397C165.469 48.2618 165.596 48.1703 165.745 48.1659L172.937 48.1397C173.116 48.1397 173.261 48.0002 173.261 47.8345V35.2627C173.261 35.193 173.234 35.1232 173.186 35.0665L169.468 30.8062C169.293 30.6056 169.446 30.3047 169.717 30.3047H169.708Z" fill="#32B353"/>
<path d="M63.5686 76.4608C63.5686 75.6541 62.9124 75 62.1031 75H40.4655C39.6562 75 39 75.6541 39 76.4608V88.1125C39 88.9192 39.6562 89.5733 40.4655 89.5733H58.297L59.9769 91.8539C60.4975 92.5647 61.4031 92.4993 61.8187 91.7187L63.2711 88.989C63.4592 88.7448 63.573 88.4439 63.573 88.1125V76.4608H63.5686Z" fill="#32B353"/>
<path d="M59.4606 80.2242H42.9022C42.6441 80.2242 42.4341 80.0149 42.4341 79.7576C42.4341 79.5003 42.6441 79.291 42.9022 79.291H59.4606C59.7187 79.291 59.9287 79.5003 59.9287 79.7576C59.9287 80.0149 59.7187 80.2242 59.4606 80.2242Z" fill="white"/>
<path d="M54.4297 82.4078H42.9022C42.6441 82.4078 42.4341 82.1985 42.4341 81.9412C42.4341 81.6839 42.6441 81.4746 42.9022 81.4746H54.4253C54.6834 81.4746 54.8934 81.6839 54.8934 81.9412C54.8934 82.1985 54.6834 82.4078 54.4253 82.4078H54.4297Z" fill="white"/>
<path d="M57.2251 84.6422H42.9022C42.6441 84.6422 42.4341 84.4329 42.4341 84.1756C42.4341 83.9183 42.6441 83.709 42.9022 83.709H57.2251C57.4832 83.709 57.6932 83.9183 57.6932 84.1756C57.6932 84.4329 57.4832 84.6422 57.2251 84.6422Z" fill="white"/>
<path d="M154.217 78.003C149.801 77.8823 146.124 81.3653 146.003 85.7831C145.882 90.1994 149.365 93.8777 153.783 93.997C158.199 94.1177 161.878 90.6347 161.997 86.2169C162.118 81.8006 158.635 78.1238 154.217 78.003ZM160.438 86.1745C160.391 87.8937 159.677 89.4912 158.428 90.6739C157.18 91.8566 155.546 92.4833 153.825 92.4362C150.277 92.339 147.468 89.3736 147.565 85.8239C147.612 84.1048 148.325 82.5072 149.574 81.3245C150.779 80.1834 152.343 79.5606 153.996 79.5606C154.057 79.5606 154.116 79.5622 154.176 79.5638C157.667 79.6579 160.44 82.5292 160.44 85.998C160.44 86.0569 160.44 86.1157 160.439 86.1737L160.438 86.1745Z" fill="#FFD325"/>
<path d="M160.4 85.9984C160.4 86.0568 160.4 86.1153 160.399 86.173C160.352 87.8816 159.642 89.4694 158.4 90.6457C157.16 91.8211 155.536 92.4439 153.826 92.3972C150.299 92.3005 147.507 89.3533 147.602 85.8253C147.649 84.1167 148.357 82.5289 149.599 81.3527C150.796 80.2185 152.352 79.5996 153.995 79.5996C154.055 79.5996 154.114 79.6012 154.174 79.6027C157.644 79.6963 160.4 82.55 160.4 85.9984Z" fill="#AF8E2F"/>
<path d="M156.066 84.8551C156.04 84.8293 156.009 84.8143 155.968 84.813L155.229 84.7892C155.188 84.5495 155.103 84.3385 154.972 84.1589L155.98 84.192C156.021 84.1919 156.053 84.181 156.081 84.1565C156.108 84.1306 156.121 84.0992 156.123 84.0584L156.137 83.6185C156.139 83.5776 156.126 83.5449 156.102 83.5177C156.076 83.4905 156.043 83.4769 156.004 83.4756L152.408 83.3592C152.368 83.3579 152.334 83.3688 152.307 83.3947C152.281 83.4193 152.266 83.452 152.265 83.4928L152.246 84.0676C152.245 84.1043 152.257 84.1384 152.285 84.1656C152.311 84.1942 152.343 84.2091 152.38 84.2091L153.007 84.2289C153.615 84.2487 153.995 84.424 154.15 84.7548L152.364 84.6966C152.325 84.6967 152.291 84.7076 152.263 84.7321C152.236 84.7567 152.223 84.7894 152.221 84.8302L152.207 85.2701C152.207 85.311 152.218 85.3437 152.242 85.3709C152.267 85.3981 152.299 85.4117 152.34 85.413L154.186 85.4738C154.114 85.7082 153.96 85.8826 153.724 85.9986C153.489 86.1146 153.181 86.1666 152.8 86.1534L152.316 86.1375C152.278 86.1376 152.246 86.1498 152.217 86.1757C152.188 86.203 152.173 86.2343 152.172 86.2711L152.154 86.82C152.152 86.8581 152.165 86.8894 152.189 86.9166C152.724 87.5221 153.413 88.3672 154.261 89.4531C154.285 89.4885 154.321 89.5062 154.367 89.5089L155.209 89.5366C155.269 89.5393 155.313 89.5148 155.337 89.463C155.367 89.4112 155.365 89.3622 155.325 89.3145C154.518 88.2558 153.881 87.4638 153.417 86.9345C153.909 86.8932 154.311 86.7471 154.626 86.4989C154.94 86.2494 155.136 85.9196 155.216 85.5069L155.943 85.5307C155.982 85.5307 156.016 85.5197 156.042 85.4952C156.07 85.4707 156.083 85.438 156.084 85.3971L156.099 84.9572C156.099 84.9164 156.088 84.8837 156.063 84.8565L156.066 84.8551Z" fill="#DCB414"/>
<path d="M156.23 159.25C156.67 159.415 157.149 159.406 157.829 159.22C158.862 158.938 159.864 158.491 160.774 157.857C163.454 155.996 165.432 152.416 165.463 148.733C165.48 146.533 165.358 144.255 166.086 142.203C167.144 139.214 169.798 137.261 171.201 134.45C172.129 132.597 172.43 130.393 172.125 128.315C171.802 126.111 170.804 124.523 170.813 122.219C170.826 118.644 172.491 115.363 173.994 112.192C175.501 109.02 176.931 105.532 176.443 102C173.114 102.968 169.794 105.415 167.554 108.521C165.328 111.61 165.005 116.053 162.757 119.125C160.269 122.518 156.121 124.648 155.005 128.831C154.208 131.825 155.376 134.827 154.029 137.647C153.489 138.784 152.783 139.804 152.213 140.919C150.666 143.956 150.204 147.713 150.949 151.132C151.55 153.879 152.927 156.382 154.796 158.196C155.35 158.734 155.764 159.089 156.225 159.259L156.23 159.25Z" fill="#207739"/>
<path d="M155.601 149.556C160.322 145.605 162.941 139.665 164.392 133.698C165.847 127.728 166.295 121.56 167.557 115.548" stroke="#161742" stroke-width="0.4" stroke-linecap="round" stroke-linejoin="round"/>
<path d="M159.162 157.892C158.704 158.036 158.208 158.027 157.502 157.858C156.43 157.606 155.397 157.203 154.452 156.634C151.681 154.968 149.65 151.779 149.642 148.512C149.633 146.56 149.777 144.538 149.036 142.715C147.955 140.056 145.215 138.307 143.773 135.808C142.823 134.159 142.522 132.203 142.853 130.354C143.202 128.397 144.243 126.996 144.248 124.948C144.252 121.772 142.548 118.852 141.006 116.032C139.463 113.212 137.999 110.105 138.527 106.973C141.977 107.849 145.407 110.04 147.711 112.808C150.003 115.563 150.308 119.507 152.626 122.245C155.184 125.269 159.48 127.178 160.613 130.901C161.423 133.565 160.19 136.22 161.571 138.728C162.129 139.739 162.852 140.646 163.436 141.639C165.022 144.342 165.48 147.679 164.687 150.712C164.046 153.15 162.604 155.363 160.652 156.96C160.073 157.433 159.641 157.749 159.162 157.897V157.892Z" fill="#32B353"/>
<path d="M155.203 155.96C157.082 150.111 156.119 143.696 154.153 137.876C152.188 132.053 149.265 126.596 147.115 120.84" stroke="#161742" stroke-width="0.4" stroke-linecap="round" stroke-linejoin="round"/>
<path d="M153.232 145.332C151.803 144.099 150.152 143.167 148.644 142.034C147.306 141.028 146.282 139.752 145.049 138.646C142.88 136.702 141.655 133.387 138.496 132.775C137.193 132.524 135.856 132.832 134.531 132.966C133.011 133.122 131.464 133.044 129.965 132.745C128.967 132.545 126.841 131.348 126 131.656C126.989 132.632 127.673 133.652 128.165 134.971C128.714 136.442 129.168 138.034 130.318 139.106C131.29 140.012 132.61 140.407 133.852 140.889C136.74 142.004 137.411 144.212 138.47 146.915C138.888 147.987 139.403 149.189 140.331 149.922C141.355 150.729 142.71 150.425 143.729 151.094C144.487 151.592 144.622 152.447 145.019 153.206C145.611 154.348 146.439 155.289 147.542 155.97C149.01 156.877 150.735 157.285 152.448 157.511C154.4 157.767 156.387 157.94 158.343 158.031C158.112 156.309 157.933 154.452 157.441 152.777C156.892 150.903 156.103 149.076 155.066 147.414C154.578 146.633 153.942 145.956 153.228 145.336L153.232 145.332Z" fill="#207739"/>
<path d="M160.21 163.482C158.895 157.482 154.835 152.409 150.207 148.353C145.578 144.292 140.303 141.026 135.547 137.116" stroke="#161742" stroke-width="0.4" stroke-linecap="round" stroke-linejoin="round"/>
<path d="M159.846 145.371C161.184 144.039 162.77 142.998 164.19 141.761C165.454 140.663 166.386 139.323 167.541 138.13C169.567 136.038 170.56 132.645 173.667 131.821C174.952 131.478 176.307 131.691 177.636 131.734C179.166 131.786 180.699 131.6 182.176 131.196C183.157 130.927 185.192 129.582 186.054 129.834C185.135 130.875 184.525 131.938 184.124 133.292C183.68 134.797 183.34 136.416 182.268 137.566C181.362 138.537 180.072 139.023 178.869 139.587C176.068 140.902 175.549 143.15 174.687 145.918C174.342 147.015 173.915 148.248 173.04 149.046C172.077 149.918 170.704 149.71 169.733 150.452C169.009 151.003 168.935 151.862 168.595 152.647C168.086 153.827 167.323 154.825 166.269 155.58C164.866 156.587 163.175 157.116 161.48 157.459C159.55 157.849 157.58 158.162 155.637 158.387C155.746 156.652 155.794 154.791 156.169 153.085C156.587 151.176 157.245 149.302 158.16 147.571C158.591 146.755 159.18 146.039 159.851 145.371H159.846Z" fill="#0B531F"/>
<path d="M156.944 156.428C160.888 154.64 163.785 151.111 165.898 147.344C168.013 143.576 169.484 139.484 171.477 135.652" stroke="#161742" stroke-width="0.4" stroke-linecap="round" stroke-linejoin="round"/>
<path d="M165.471 160.672L165.362 161.266L163.328 172.517H149.263L147.224 161.266L147.119 160.672H165.471Z" fill="#FFF3EB"/>
<path d="M167.188 156.139H145.398V160.673H167.188V156.139Z" fill="#FFF3EB"/>
<path d="M165.471 160.672L165.362 161.266H147.224L147.119 160.672H165.471Z" fill="#CC8F66"/>
<path d="M79.5777 109H52.6851C51.7544 109 51 109.759 51 110.694V150.215C51 151.15 51.7544 151.909 52.6851 151.909H79.5777C80.5084 151.909 81.2628 151.15 81.2628 150.215V110.694C81.2628 109.759 80.5084 109 79.5777 109Z" fill="#1D478E"/>
<path d="M71.4646 110.889H60.7981V112.689H71.4646V110.889Z" fill="#5BC4F0" fill-opacity="0.5"/>
<path d="M78.2442 115.432H54.0188V120.833H78.2442V115.432Z" fill="#5BC4F0" fill-opacity="0.5"/>
<path d="M77.1842 116.172H55.0789V120.096H77.1842V116.172Z" fill="#FFF3EB"/>
<path d="M71.9259 123.34H70.2802C69.786 123.34 69.3855 123.743 69.3855 124.239V124.622C69.3855 125.119 69.786 125.521 70.2802 125.521H71.9259C72.42 125.521 72.8206 125.119 72.8206 124.622V124.239C72.8206 123.743 72.42 123.34 71.9259 123.34Z" fill="#5BC4F0" fill-opacity="0.5"/>
<path d="M77.3495 123.34H75.7037C75.2096 123.34 74.8091 123.743 74.8091 124.239V124.622C74.8091 125.119 75.2096 125.521 75.7037 125.521H77.3495C77.8436 125.521 78.2442 125.119 78.2442 124.622V124.239C78.2442 123.743 77.8436 123.34 77.3495 123.34Z" fill="#5BC4F0" fill-opacity="0.5"/>
<path d="M77.8174 128.156H74.5118C74.2765 128.156 74.0857 128.348 74.0857 128.585V130.576C74.0857 130.812 74.2765 131.004 74.5118 131.004H77.8174C78.0528 131.004 78.2436 130.812 78.2436 130.576V128.585C78.2436 128.348 78.0528 128.156 77.8174 128.156Z" fill="#5BC4F0" fill-opacity="0.5"/>
<path d="M71.1836 128.156H67.878C67.6427 128.156 67.4519 128.348 67.4519 128.585V130.576C67.4519 130.812 67.6427 131.004 67.878 131.004H71.1836C71.419 131.004 71.6098 130.812 71.6098 130.576V128.585C71.6098 128.348 71.419 128.156 71.1836 128.156Z" fill="#5BC4F0" fill-opacity="0.5"/>
<path d="M64.5501 128.156H61.2445C61.0091 128.156 60.8184 128.348 60.8184 128.585V130.576C60.8184 130.812 61.0091 131.004 61.2445 131.004H64.5501C64.7854 131.004 64.9762 130.812 64.9762 130.576V128.585C64.9762 128.348 64.7854 128.156 64.5501 128.156Z" fill="#5BC4F0" fill-opacity="0.5"/>
<path d="M57.9163 128.156H54.6107C54.3754 128.156 54.1846 128.348 54.1846 128.585V130.576C54.1846 130.812 54.3754 131.004 54.6107 131.004H57.9163C58.1516 131.004 58.3424 130.812 58.3424 130.576V128.585C58.3424 128.348 58.1516 128.156 57.9163 128.156Z" fill="#5BC4F0" fill-opacity="0.5"/>
<path d="M77.8174 133.307H74.5118C74.2765 133.307 74.0857 133.498 74.0857 133.735V135.726C74.0857 135.963 74.2765 136.155 74.5118 136.155H77.8174C78.0528 136.155 78.2436 135.963 78.2436 135.726V133.735C78.2436 133.498 78.0528 133.307 77.8174 133.307Z" fill="#5BC4F0" fill-opacity="0.5"/>
<path d="M71.1836 133.307H67.878C67.6427 133.307 67.4519 133.498 67.4519 133.735V135.726C67.4519 135.963 67.6427 136.155 67.878 136.155H71.1836C71.419 136.155 71.6098 135.963 71.6098 135.726V133.735C71.6098 133.498 71.419 133.307 71.1836 133.307Z" fill="#5BC4F0" fill-opacity="0.5"/>
<path d="M64.5501 133.307H61.2445C61.0091 133.307 60.8184 133.498 60.8184 133.735V135.726C60.8184 135.963 61.0091 136.155 61.2445 136.155H64.5501C64.7854 136.155 64.9762 135.963 64.9762 135.726V133.735C64.9762 133.498 64.7854 133.307 64.5501 133.307Z" fill="#5BC4F0" fill-opacity="0.5"/>
<path d="M57.9163 133.307H54.6107C54.3754 133.307 54.1846 133.498 54.1846 133.735V135.726C54.1846 135.963 54.3754 136.155 54.6107 136.155H57.9163C58.1516 136.155 58.3424 135.963 58.3424 135.726V133.735C58.3424 133.498 58.1516 133.307 57.9163 133.307Z" fill="#5BC4F0" fill-opacity="0.5"/>
<path d="M77.8174 138.457H74.5118C74.2765 138.457 74.0857 138.649 74.0857 138.885V140.877C74.0857 141.113 74.2765 141.305 74.5118 141.305H77.8174C78.0528 141.305 78.2436 141.113 78.2436 140.877V138.885C78.2436 138.649 78.0528 138.457 77.8174 138.457Z" fill="#5BC4F0" fill-opacity="0.5"/>
<path d="M71.1836 138.457H67.878C67.6427 138.457 67.4519 138.649 67.4519 138.885V140.877C67.4519 141.113 67.6427 141.305 67.878 141.305H71.1836C71.419 141.305 71.6098 141.113 71.6098 140.877V138.885C71.6098 138.649 71.419 138.457 71.1836 138.457Z" fill="#5BC4F0" fill-opacity="0.5"/>
<path d="M64.5501 138.457H61.2445C61.0091 138.457 60.8184 138.649 60.8184 138.885V140.877C60.8184 141.113 61.0091 141.305 61.2445 141.305H64.5501C64.7854 141.305 64.9762 141.113 64.9762 140.877V138.885C64.9762 138.649 64.7854 138.457 64.5501 138.457Z" fill="#5BC4F0" fill-opacity="0.5"/>
<path d="M57.9163 138.457H54.6107C54.3754 138.457 54.1846 138.649 54.1846 138.885V140.877C54.1846 141.113 54.3754 141.305 54.6107 141.305H57.9163C58.1516 141.305 58.3424 141.113 58.3424 140.877V138.885C58.3424 138.649 58.1516 138.457 57.9163 138.457Z" fill="#5BC4F0" fill-opacity="0.5"/>
<path d="M77.8174 143.789H74.5118C74.2765 143.789 74.0857 143.981 74.0857 144.218V146.209C74.0857 146.445 74.2765 146.637 74.5118 146.637H77.8174C78.0528 146.637 78.2436 146.445 78.2436 146.209V144.218C78.2436 143.981 78.0528 143.789 77.8174 143.789Z" fill="#3C85BF"/>
<path d="M71.1836 143.789H67.878C67.6427 143.789 67.4519 143.981 67.4519 144.218V146.209C67.4519 146.445 67.6427 146.637 67.878 146.637H71.1836C71.419 146.637 71.6098 146.445 71.6098 146.209V144.218C71.6098 143.981 71.419 143.789 71.1836 143.789Z" fill="#5BC4F0" fill-opacity="0.5"/>
<path d="M64.5501 143.789H61.2445C61.0091 143.789 60.8184 143.981 60.8184 144.218V146.209C60.8184 146.445 61.0091 146.637 61.2445 146.637H64.5501C64.7854 146.637 64.9762 146.445 64.9762 146.209V144.218C64.9762 143.981 64.7854 143.789 64.5501 143.789Z" fill="#5BC4F0" fill-opacity="0.5"/>
<path d="M57.9163 143.789H54.6107C54.3754 143.789 54.1846 143.981 54.1846 144.218V146.209C54.1846 146.445 54.3754 146.637 54.6107 146.637H57.9163C58.1516 146.637 58.3424 146.445 58.3424 146.209V144.218C58.3424 143.981 58.1516 143.789 57.9163 143.789Z" fill="#5BC4F0" fill-opacity="0.5"/>
<g clip-path="url(#clip0_351_2474)">
<path d="M144.777 8.40032L126.535 4.48392C126.073 4.38478 125.619 4.68187 125.521 5.14732L119.933 31.6229C119.834 32.0884 120.129 32.5462 120.591 32.6452L140.954 37.017C141.416 37.1161 141.87 36.819 141.968 36.3535L147.104 12.0172L144.777 8.40016L144.777 8.40032Z" fill="#161742"/>
<path d="M144.325 10.5398C144.227 11.0053 144.522 11.4631 144.983 11.562L147.104 12.0174L144.777 8.40039L144.325 10.5396V10.5398Z" fill="#5BC4F0" fill-opacity="0.4"/>
<path d="M143.761 13.0788L133.025 10.774C132.746 10.7142 132.568 10.4377 132.627 10.1564C132.687 9.87525 132.961 9.69583 133.24 9.75564L143.976 12.0605C144.255 12.1203 144.432 12.3967 144.373 12.6781C144.314 12.9592 144.04 13.1386 143.761 13.0788Z" fill="#5BC4F0" fill-opacity="0.2"/>
<path d="M143.209 15.6921L132.473 13.3873C132.194 13.3275 132.017 13.051 132.076 12.7697C132.135 12.4885 132.409 12.3091 132.688 12.3689L143.424 14.6738C143.703 14.7336 143.881 15.01 143.821 15.2913C143.762 15.5725 143.488 15.7519 143.209 15.6921H143.209Z" fill="#5BC4F0" fill-opacity="0.2"/>
<path d="M142.658 18.3053L126.591 14.856C126.312 14.7962 126.134 14.5198 126.194 14.2384C126.253 13.9573 126.527 13.7779 126.806 13.8377L142.873 17.287C143.152 17.3468 143.329 17.6232 143.27 17.9046C143.211 18.1857 142.937 18.3651 142.658 18.3053Z" fill="#5BC4F0" fill-opacity="0.2"/>
<path d="M142.106 20.9186L126.039 17.4693C125.76 17.4095 125.582 17.133 125.642 16.8517C125.701 16.5706 125.975 16.3911 126.254 16.451L142.321 19.9003C142.6 19.9601 142.778 20.2365 142.718 20.5178C142.659 20.799 142.385 20.9784 142.106 20.9186Z" fill="#5BC4F0" fill-opacity="0.2"/>
<path d="M137.449 22.6504L125.488 20.0826C125.209 20.0228 125.031 19.7463 125.09 19.465C125.15 19.1838 125.424 19.0044 125.703 19.0642L137.663 21.632C137.942 21.6919 138.12 21.9683 138.061 22.2496C138.002 22.5308 137.727 22.7102 137.449 22.6504Z" fill="#5BC4F0" fill-opacity="0.2"/>
<path d="M141.003 26.1471L124.936 22.6978C124.657 22.638 124.479 22.3616 124.539 22.0802C124.598 21.7991 124.872 21.6197 125.151 21.6795L141.218 25.1288C141.497 25.1886 141.674 25.465 141.615 25.7464C141.556 26.0275 141.282 26.2069 141.003 26.1471Z" fill="#5BC4F0" fill-opacity="0.2"/>
<path d="M140.451 28.7604L124.384 25.3111C124.105 25.2513 123.927 24.9748 123.987 24.6935C124.046 24.4124 124.32 24.2329 124.599 24.2927L140.666 27.7421C140.945 27.8019 141.123 28.0783 141.063 28.3596C141.004 28.6408 140.73 28.8202 140.451 28.7604Z" fill="#5BC4F0" fill-opacity="0.2"/>
<path d="M139.899 31.3737L123.833 27.9244C123.554 27.8646 123.376 27.5881 123.435 27.3068C123.495 27.0256 123.769 26.8462 124.048 26.906L140.114 30.3553C140.393 30.4152 140.571 30.6916 140.512 30.9729C140.453 31.2541 140.178 31.4335 139.899 31.3737Z" fill="#5BC4F0" fill-opacity="0.2"/>
<path d="M139.348 33.987L123.281 30.5377C123.002 30.4779 122.824 30.2014 122.883 29.9201C122.943 29.6389 123.217 29.4595 123.496 29.5193L139.563 32.9686C139.841 33.0284 140.019 33.3049 139.96 33.5862C139.901 33.8674 139.627 34.0468 139.348 33.987Z" fill="#5BC4F0" fill-opacity="0.2"/>
<path d="M126.981 12.2082L130.201 12.8994C130.39 12.94 130.577 12.8181 130.617 12.6268L131.237 9.68732C131.278 9.49619 131.157 9.30816 130.967 9.26737L127.747 8.57617C127.558 8.53554 127.371 8.65743 127.331 8.84872L126.711 11.7882C126.67 11.9793 126.791 12.1674 126.981 12.2082Z" fill="#B3CEF6"/>
<path d="M144.905 11.5449L146.975 12.6271L147.104 12.0172L144.905 11.5449Z" fill="#161742"/>
<path d="M136.955 33.5333L112.711 35.9894C112.162 36.0452 111.671 35.641 111.616 35.0866L108.476 3.56562C108.421 3.01143 108.822 2.51704 109.371 2.4613L133.616 0.00513839C134.165 -0.0506059 134.655 0.353581 134.711 0.907773L137.85 32.429C137.906 32.9832 137.505 33.4777 136.955 33.5333Z" fill="#1D478E"/>
<path d="M131.613 5.84033L118.831 7.13529C118.499 7.16893 118.203 6.92483 118.17 6.59004C118.137 6.25525 118.379 5.9567 118.711 5.92306L131.493 4.6281C131.825 4.59446 132.121 4.83856 132.154 5.17335C132.187 5.50814 131.945 5.80669 131.613 5.84033Z" fill="#5BC4F0" fill-opacity="0.1"/>
<path d="M131.923 8.95166L119.141 10.2466C118.81 10.2803 118.513 10.0362 118.48 9.70136C118.447 9.36657 118.689 9.06803 119.021 9.03438L131.803 7.73943C132.135 7.70579 132.431 7.94989 132.464 8.28468C132.497 8.61947 132.255 8.91802 131.923 8.95166Z" fill="#5BC4F0" fill-opacity="0.1"/>
<path d="M132.233 12.063L113.104 14.0009C112.772 14.0345 112.476 13.7904 112.443 13.4556C112.41 13.1208 112.652 12.8223 112.984 12.7886L132.112 10.8508C132.444 10.8171 132.74 11.0612 132.774 11.396C132.807 11.7308 132.565 12.0293 132.233 12.063Z" fill="#5BC4F0" fill-opacity="0.1"/>
<path d="M132.543 15.1763L113.414 17.1142C113.082 17.1478 112.786 16.9037 112.753 16.5689C112.72 16.2341 112.962 15.9356 113.294 15.9019L132.423 13.964C132.754 13.9304 133.051 14.1745 133.084 14.5093C133.117 14.8441 132.875 15.1426 132.543 15.1763Z" fill="#5BC4F0" fill-opacity="0.1"/>
<path d="M127.965 18.7817L113.724 20.2244C113.393 20.2581 113.096 20.014 113.063 19.6792C113.03 19.3444 113.272 19.0458 113.604 19.0122L127.844 17.5695C128.176 17.5359 128.472 17.78 128.505 18.1148C128.539 18.4496 128.297 18.7481 127.965 18.7817Z" fill="#5BC4F0" fill-opacity="0.1"/>
<path d="M133.163 21.3989L114.034 23.3368C113.702 23.3705 113.406 23.1263 113.373 22.7916C113.34 22.4568 113.582 22.1582 113.914 22.1246L133.042 20.1867C133.374 20.1531 133.67 20.3972 133.704 20.7319C133.737 21.0667 133.495 21.3653 133.163 21.3989Z" fill="#5BC4F0" fill-opacity="0.1"/>
<path d="M133.473 24.5103L114.344 26.4481C114.012 26.4818 113.716 26.2377 113.683 25.9029C113.65 25.5681 113.892 25.2695 114.224 25.2359L133.352 23.298C133.684 23.2644 133.98 23.5085 134.014 23.8433C134.047 24.1781 133.805 24.4766 133.473 24.5103Z" fill="#5BC4F0" fill-opacity="0.1"/>
<path d="M133.783 27.6216L114.654 29.5595C114.322 29.5931 114.026 29.349 113.993 29.0142C113.959 28.6794 114.202 28.3809 114.533 28.3472L133.662 26.4093C133.994 26.3757 134.29 26.6198 134.324 26.9546C134.357 27.2894 134.115 27.5879 133.783 27.6216Z" fill="#5BC4F0" fill-opacity="0.1"/>
<path d="M134.093 30.7329L114.964 32.6708C114.632 32.7044 114.336 32.4603 114.303 32.1255C114.269 31.7908 114.511 31.4922 114.843 31.4586L133.972 29.5207C134.304 29.487 134.6 29.7311 134.633 30.0659C134.667 30.4007 134.425 30.6993 134.093 30.7329Z" fill="#5BC4F0" fill-opacity="0.1"/>
<path d="M116.005 6.19693L112.172 6.58552C111.946 6.6084 111.782 6.81149 111.804 7.03914L112.153 10.5386C112.176 10.7662 112.377 10.9322 112.603 10.9093L116.436 10.5208C116.662 10.4979 116.826 10.2948 116.804 10.0671L116.455 6.56768C116.432 6.34004 116.231 6.17405 116.005 6.19693Z" fill="#FFF3EB"/>
<path d="M113.331 22.0893C115.237 20.1674 115.237 17.0513 113.331 15.1294C111.425 13.2075 108.335 13.2075 106.43 15.1294C104.524 17.0513 104.524 20.1674 106.43 22.0893C108.335 24.0113 111.425 24.0113 113.331 22.0893Z" fill="#32B353"/>
<path d="M109.272 20.9313C109.213 20.9411 109.152 20.9372 109.092 20.9175L107.844 20.5094C107.642 20.4435 107.531 20.2249 107.597 20.0212C107.662 19.8176 107.879 19.7061 108.081 19.7721L109.018 20.0786L111.267 15.6769C111.364 15.4866 111.596 15.4118 111.785 15.51C111.973 15.608 112.048 15.8419 111.95 16.032L109.552 20.7264C109.494 20.8385 109.389 20.912 109.272 20.9313H109.272Z" fill="white"/>
</g>
<path d="M36 26.002C37.3903 26.6743 38.3459 27.7062 38.998 29C39.65 27.7062 40.6097 26.6704 42 25.998C40.6097 25.3257 39.65 24.2938 38.998 23C38.3459 24.2938 37.3903 25.3296 36 26.002Z" fill="#FFD325"/>
<path d="M192 121.502C193.159 122.062 193.955 122.922 194.498 124C195.042 122.922 195.841 122.059 197 121.498C195.841 120.938 195.042 120.078 194.498 119C193.955 120.078 193.159 120.941 192 121.502Z" fill="#AF8E2F"/>
<path d="M147 42.0026C148.854 42.899 150.128 44.2749 150.997 46C151.867 44.2749 153.146 42.8938 155 41.9974C153.146 41.101 151.867 39.7251 150.997 38C150.128 39.7251 148.854 41.1062 147 42.0026Z" fill="#FFD325"/>
<path d="M77 109.003C78.8537 109.899 80.1278 111.275 80.9973 113C81.8667 111.275 83.1463 109.894 85 108.997C83.1463 108.101 81.8667 106.725 80.9973 105C80.1278 106.725 78.8537 108.106 77 109.003Z" fill="#FFD325"/>
<path d="M37 120.001C37.9269 120.45 38.5639 121.137 38.9986 122C39.4334 121.137 40.0731 120.447 41 119.999C40.0731 119.55 39.4334 118.863 38.9986 118C38.5639 118.863 37.9269 119.553 37 120.001Z" fill="#AF8E2F"/>
<path d="M193 11.5023C194.622 12.2866 195.737 13.4906 196.498 15C197.258 13.4906 198.378 12.2821 200 11.4977C198.378 10.7133 197.258 9.50945 196.498 8C195.737 9.50945 194.622 10.7179 193 11.5023Z" fill="#AF8E2F"/>
<path d="M63 63.0013C63.9269 63.4495 64.5639 64.1375 64.9986 65C65.4334 64.1375 66.0731 63.4469 67 62.9987C66.0731 62.5505 65.4334 61.8625 64.9986 61C64.5639 61.8625 63.9269 62.5531 63 63.0013Z" fill="#AF8E2F"/>
<defs>
<clipPath id="clip0_351_2474">
<rect width="42.1042" height="41.2449" fill="white" transform="translate(105)"/>
</clipPath>
</defs>
</svg>
