<svg width="290" height="331" viewBox="0 0 290 331" fill="none" xmlns="http://www.w3.org/2000/svg">
<g opacity="0.54">
<path d="M129 35.6596C129 36.0238 129.296 36.3191 129.661 36.3191C130.026 36.3191 130.322 36.0238 130.322 35.6596C130.322 35.2953 130.026 35 129.661 35C129.296 35 129 35.2953 129 35.6596Z" fill="#161742"/>
<path d="M142.073 73.489C142.073 73.9165 142.42 74.2631 142.849 74.2631C143.277 74.2631 143.625 73.9165 143.625 73.489C143.625 73.0614 143.277 72.7148 142.849 72.7148C142.42 72.7148 142.073 73.0614 142.073 73.489Z" fill="#161742"/>
<path d="M101 23.5841C101 23.9067 101.262 24.1682 101.585 24.1682C101.909 24.1682 102.171 23.9067 102.171 23.5841C102.171 23.2615 101.909 23 101.585 23C101.262 23 101 23.2615 101 23.5841Z" fill="#161742"/>
<path d="M117.609 48.8077C117.609 49.1751 117.908 49.4729 118.276 49.4729C118.645 49.4729 118.943 49.1751 118.943 48.8077C118.943 48.4404 118.645 48.1426 118.276 48.1426C117.908 48.1426 117.609 48.4404 117.609 48.8077Z" fill="#161742"/>
<path d="M105 82.6232C105 82.9674 105.28 83.2465 105.625 83.2465C105.97 83.2465 106.25 82.9674 106.25 82.6232C106.25 82.279 105.97 82 105.625 82C105.28 82 105 82.279 105 82.6232Z" fill="#161742"/>
<path d="M121 11.7993C121 12.2408 121.358 12.5986 121.801 12.5986C122.244 12.5986 122.603 12.2408 122.603 11.7993C122.603 11.3579 122.244 11 121.801 11C121.358 11 121 11.3579 121 11.7993Z" fill="#161742"/>
<path d="M131 54.5142C131 54.7983 131.231 55.0285 131.516 55.0285C131.8 55.0285 132.031 54.7983 132.031 54.5142C132.031 54.2302 131.8 54 131.516 54C131.231 54 131 54.2302 131 54.5142Z" fill="#161742"/>
<path d="M157.879 36.7388C157.879 37.1124 158.183 37.4152 158.557 37.4152C158.932 37.4152 159.235 37.1124 159.235 36.7388C159.235 36.3653 158.932 36.0625 158.557 36.0625C158.183 36.0625 157.879 36.3653 157.879 36.7388Z" fill="#161742"/>
<path d="M155.167 52.5011C155.167 52.7898 155.401 53.0238 155.691 53.0238C155.98 53.0238 156.215 52.7898 156.215 52.5011C156.215 52.2125 155.98 51.9785 155.691 51.9785C155.401 51.9785 155.167 52.2125 155.167 52.5011Z" fill="#161742"/>
<path d="M157.646 65.5196C157.646 66.0213 158.054 66.4279 158.557 66.4279C159.06 66.4279 159.468 66.0213 159.468 65.5196C159.468 65.018 159.06 64.6113 158.557 64.6113C158.054 64.6113 157.646 65.018 157.646 65.5196Z" fill="#161742"/>
<path d="M146.632 28.0903C146.632 28.3419 146.837 28.5459 147.089 28.5459C147.341 28.5459 147.546 28.3419 147.546 28.0903C147.546 27.8387 147.341 27.6348 147.089 27.6348C146.837 27.6348 146.632 27.8387 146.632 28.0903Z" fill="#161742"/>
<path d="M109.196 55.6899C109.196 56.1314 109.555 56.4893 109.997 56.4893C110.44 56.4893 110.799 56.1314 110.799 55.6899C110.799 55.2485 110.44 54.8906 109.997 54.8906C109.555 54.8906 109.196 55.2485 109.196 55.6899Z" fill="#161742"/>
<path d="M91.9997 48.7686C91.9997 49.193 92.3448 49.5371 92.7704 49.5371C93.196 49.5371 93.541 49.193 93.541 48.7686C93.541 48.3441 93.196 48 92.7704 48C92.3448 48 91.9997 48.3441 91.9997 48.7686Z" fill="#161742"/>
<path d="M113 37.6736C113 38.0455 113.302 38.3471 113.675 38.3471C114.048 38.3471 114.351 38.0455 114.351 37.6736C114.351 37.3016 114.048 37 113.675 37C113.302 37 113 37.3016 113 37.6736Z" fill="#161742"/>
</g>
<g opacity="0.54">
<path d="M273.812 101.553C274.176 101.553 274.471 101.257 274.471 100.892C274.471 100.527 274.176 100.23 273.812 100.23C273.448 100.23 273.152 100.527 273.152 100.892C273.152 101.257 273.448 101.553 273.812 101.553Z" fill="#161742"/>
<path d="M255.274 131.24C255.596 131.24 255.858 130.978 255.858 130.654C255.858 130.331 255.596 130.068 255.274 130.068C254.951 130.068 254.689 130.331 254.689 130.654C254.689 130.978 254.951 131.24 255.274 131.24Z" fill="#161742"/>
<path d="M286.565 120.666C286.932 120.666 287.23 120.367 287.23 119.999C287.23 119.631 286.932 119.332 286.565 119.332C286.197 119.332 285.899 119.631 285.899 119.999C285.899 120.367 286.197 120.666 286.565 120.666Z" fill="#161742"/>
<path d="M272.079 127.535C272.423 127.535 272.703 127.255 272.703 126.91C272.703 126.565 272.423 126.285 272.079 126.285C271.735 126.285 271.456 126.565 271.456 126.91C271.456 127.255 271.735 127.535 272.079 127.535Z" fill="#161742"/>
<path d="M256.076 103.331C256.517 103.331 256.875 102.973 256.875 102.53C256.875 102.087 256.517 101.729 256.076 101.729C255.634 101.729 255.277 102.087 255.277 102.53C255.277 102.973 255.634 103.331 256.076 103.331Z" fill="#161742"/>
<path d="M261.738 75.3563C262.112 75.3563 262.414 75.0527 262.414 74.6782C262.414 74.3036 262.112 74 261.738 74C261.365 74 261.062 74.3036 261.062 74.6782C261.062 75.0527 261.365 75.3563 261.738 75.3563Z" fill="#161742"/>
<path d="M253.091 86.603C253.343 86.603 253.547 86.3985 253.547 86.1462C253.547 85.894 253.343 85.6895 253.091 85.6895C252.84 85.6895 252.636 85.894 252.636 86.1462C252.636 86.3985 252.84 86.603 253.091 86.603Z" fill="#161742"/>
<path d="M262.507 127.537C262.931 127.537 263.275 127.192 263.275 126.767C263.275 126.341 262.931 125.996 262.507 125.996C262.082 125.996 261.738 126.341 261.738 126.767C261.738 127.192 262.082 127.537 262.507 127.537Z" fill="#161742"/>
<path d="M250.674 120.05C251.046 120.05 251.347 119.748 251.347 119.375C251.347 119.002 251.046 118.699 250.674 118.699C250.302 118.699 250 119.002 250 119.375C250 119.748 250.302 120.05 250.674 120.05Z" fill="#161742"/>
</g>
<g opacity="0.54">
<path d="M132.257 263.904C132.924 263.904 133.464 263.362 133.464 262.693C133.464 262.024 132.924 261.482 132.257 261.482C131.59 261.482 131.05 262.024 131.05 262.693C131.05 263.362 131.59 263.904 132.257 263.904Z" fill="#161742"/>
<path d="M153.09 269.153C153.454 269.153 153.75 268.857 153.75 268.491C153.75 268.126 153.454 267.83 153.09 267.83C152.726 267.83 152.431 268.126 152.431 268.491C152.431 268.857 152.726 269.153 153.09 269.153Z" fill="#161742"/>
<path d="M147.978 275.395C148.555 275.395 149.023 274.926 149.023 274.347C149.023 273.768 148.555 273.299 147.978 273.299C147.401 273.299 146.933 273.768 146.933 274.347C146.933 274.926 147.401 275.395 147.978 275.395Z" fill="#161742"/>
<path d="M155.211 305.058C155.638 305.058 155.985 304.711 155.985 304.282C155.985 303.853 155.638 303.506 155.211 303.506C154.783 303.506 154.437 303.853 154.437 304.282C154.437 304.711 154.783 305.058 155.211 305.058Z" fill="#161742"/>
<path d="M145.088 289.326C145.411 289.326 145.672 289.063 145.672 288.74C145.672 288.417 145.411 288.154 145.088 288.154C144.765 288.154 144.504 288.417 144.504 288.74C144.504 289.063 144.765 289.326 145.088 289.326Z" fill="#161742"/>
<path d="M133.448 275.728C133.793 275.728 134.072 275.449 134.072 275.103C134.072 274.758 133.793 274.479 133.448 274.479C133.104 274.479 132.825 274.758 132.825 275.103C132.825 275.449 133.104 275.728 133.448 275.728Z" fill="#161742"/>
<path d="M144.194 253.824C144.635 253.824 144.993 253.465 144.993 253.022C144.993 252.58 144.635 252.221 144.194 252.221C143.752 252.221 143.395 252.58 143.395 253.022C143.395 253.465 143.752 253.824 144.194 253.824Z" fill="#161742"/>
<path d="M153.358 259.464C153.886 259.464 154.314 259.035 154.314 258.505C154.314 257.976 153.886 257.547 153.358 257.547C152.83 257.547 152.402 257.976 152.402 258.505C152.402 259.035 152.83 259.464 153.358 259.464Z" fill="#161742"/>
<path d="M140.267 286.902C140.551 286.902 140.781 286.671 140.781 286.387C140.781 286.102 140.551 285.871 140.267 285.871C139.983 285.871 139.753 286.102 139.753 286.387C139.753 286.671 139.983 286.902 140.267 286.902Z" fill="#161742"/>
<path d="M171.793 247.22C172.166 247.22 172.469 246.916 172.469 246.541C172.469 246.167 172.166 245.863 171.793 245.863C171.419 245.863 171.116 246.167 171.116 246.541C171.116 246.916 171.419 247.22 171.793 247.22Z" fill="#161742"/>
<path d="M175.784 262.624C176.072 262.624 176.306 262.39 176.306 262.1C176.306 261.811 176.072 261.576 175.784 261.576C175.495 261.576 175.261 261.811 175.261 262.1C175.261 262.39 175.495 262.624 175.784 262.624Z" fill="#161742"/>
<path d="M170.121 272.331C170.623 272.331 171.03 271.924 171.03 271.421C171.03 270.918 170.623 270.51 170.121 270.51C169.62 270.51 169.213 270.918 169.213 271.421C169.213 271.924 169.62 272.331 170.121 272.331Z" fill="#161742"/>
<path d="M157.791 243.914C158.042 243.914 158.246 243.709 158.246 243.457C158.246 243.205 158.042 243 157.791 243C157.539 243 157.335 243.205 157.335 243.457C157.335 243.709 157.539 243.914 157.791 243.914Z" fill="#161742"/>
<path d="M151.634 294.473C152.058 294.473 152.402 294.128 152.402 293.702C152.402 293.277 152.058 292.932 151.634 292.932C151.209 292.932 150.865 293.277 150.865 293.702C150.865 294.128 151.209 294.473 151.634 294.473Z" fill="#161742"/>
<path d="M126.674 255.816C127.046 255.816 127.347 255.513 127.347 255.14C127.347 254.767 127.046 254.465 126.674 254.465C126.302 254.465 126 254.767 126 255.14C126 255.513 126.302 255.816 126.674 255.816Z" fill="#161742"/>
</g>
<path d="M257.45 96.6797L226.022 113.544L257.45 120.727V96.6797Z" fill="#FFD325"/>
<path d="M230.617 66.0742L220.549 84.1866L250.199 66.0981L230.617 66.0742Z" fill="#FFD325"/>
<path d="M215.853 66.2101L212.831 75.2662L222.613 66.0977L215.853 66.2101Z" fill="#FFD325"/>
<path d="M202 66.098L203.842 75.3671L210.173 66L202 66.098Z" fill="#FFD325"/>
<path d="M257.449 66.6992L227.72 96.6801L257.449 90.747V66.6992Z" fill="#FFD325"/>
<path d="M247.436 25.6059C245.905 22.6192 242.543 21.1476 239.343 20.303C236.143 19.4584 232.738 18.9707 230 17.0812C231.446 19.4584 233.61 21.1563 236.263 21.8703C236.391 23.1068 237.135 24.4129 238.162 25.0921C239.189 25.7713 240.515 25.9455 241.67 25.5623C243.535 27.9656 246.658 29.2543 249.652 28.9583C251.723 28.758 253.913 27.1819 254.281 25.1008C256.788 25.6146 259.414 23.8469 259.671 21.2608C261.767 19.9721 263.042 17.4992 262.999 15.0001C261.801 16.6197 259.945 17.5079 258.045 18.1348C256.146 18.7618 254.17 19.1971 252.416 20.1637C250.662 21.1302 247.65 23.5944 247.436 25.6146V25.6059Z" fill="#161742"/>
<path d="M17.9647 126.606C16.3868 123.619 12.9226 122.147 9.62583 121.303C6.32907 120.458 2.82076 119.971 0 118.081C1.48971 120.458 3.71987 122.156 6.45248 122.87C6.5847 124.107 7.3516 125.413 8.40938 126.092C9.46716 126.771 10.8335 126.945 12.0235 126.562C13.9451 128.965 17.1625 130.254 20.2477 129.958C22.3809 129.758 24.6375 128.182 25.0166 126.101C27.5993 126.614 30.3055 124.847 30.5699 122.261C32.7296 120.972 34.043 118.499 33.9989 116C32.7648 117.62 30.852 118.508 28.8951 119.135C26.9382 119.762 24.902 120.197 23.0949 121.164C21.2879 122.13 18.1851 124.594 17.9647 126.614V126.606Z" fill="#161742"/>
<path d="M85.6761 72.5808C84.5605 70.4462 82.1184 69.4009 79.7905 68.7948C77.4626 68.1887 74.9853 67.8461 73 66.4933C74.0541 68.1887 75.6178 69.4009 77.5504 69.9104C77.6383 70.7888 78.1829 71.7287 78.9296 72.2118C79.6763 72.695 80.6426 72.818 81.4859 72.5456C82.8475 74.2673 85.1051 75.1809 87.2925 74.9701C88.7947 74.8208 90.3847 73.7052 90.657 72.2118C92.4842 72.572 94.3904 71.3159 94.5749 69.4712C96.1034 68.5488 97.0258 66.7832 96.9995 65C96.1298 66.1595 94.777 66.792 93.3978 67.24C92.0186 67.688 90.5779 67.9954 89.3042 68.6894C88.0304 69.3745 85.8343 71.1402 85.6849 72.5808H85.6761Z" fill="#161742"/>
<path opacity="0.52" d="M78.2354 43.9894C81.8586 26.9463 70.9893 10.1908 53.9582 6.56511C36.9271 2.93937 20.1835 13.8163 16.5603 30.8594C12.9372 47.9026 23.8064 64.658 40.8375 68.2837C57.8686 71.9095 74.6123 61.0325 78.2354 43.9894Z" fill="#FFD325"/>
<path opacity="0.46" d="M51.0921 5.86523C50.639 6.76717 50.1249 7.65124 49.5673 8.49066C46.2389 13.4825 40.8107 18.1261 34.6593 18.3851C31.9322 18.5012 29.2921 17.5189 27.2968 15.6079C26.8612 15.1882 26.4691 14.7238 26.1032 14.2416C23.3063 16.8938 20.9625 20.0372 19.2373 23.5735C21.3981 28.1635 25.1796 32.0034 29.7539 33.8162C33.0213 35.111 36.5501 35.2628 39.8349 33.9591C42.5272 32.8875 45.0278 31.5301 47.3629 29.7887C51.7891 26.5025 55.466 22.3233 59.5001 18.5726C61.8527 16.3848 64.4056 14.2595 67.2373 12.7503C62.7065 9.0354 57.1651 6.57071 51.0921 5.86523Z" fill="#FFD325"/>
<path opacity="0.32" d="M62.313 40.6661C57.8008 45.7374 53.7305 51.2122 48.802 55.8799C44.4598 59.9861 39.5227 63.2763 34.2373 65.8119C38.2311 67.7685 42.7008 68.8652 47.4169 68.8652C64.4374 68.8652 78.2373 54.6165 78.2373 37.0425C78.2373 34.2173 77.8719 31.4711 77.2006 28.8652C71.4478 31.6465 66.6042 35.8404 62.3045 40.6661H62.313Z" fill="#FFD325"/>
<path d="M239.109 125.883C239.109 89.497 204.609 60 162.05 60C119.492 60 85 89.497 85 125.883C85 138.505 89.155 150.3 96.3611 160.321L147.699 233.616C146.891 232.92 174.394 233.616 174.394 233.616L228.591 159.608L228.417 159.356C235.197 149.544 239.1 138.114 239.1 125.892L239.109 125.883Z" fill="#1D478E"/>
<path d="M243.151 125.884C243.151 89.9758 207.755 60.8093 163.745 60.0352V233.399C169.717 233.486 174.967 233.616 174.967 233.616L232.068 159.608L231.886 159.356C239.031 149.544 243.142 138.114 243.142 125.892L243.151 125.884Z" fill="#32B353"/>
<path d="M163.736 175.971V233.399C169.708 233.486 174.958 233.616 174.958 233.616L219.429 175.979H163.728L163.736 175.971Z" fill="#32B353"/>
<path d="M164.075 123.222H243.064C241.36 88.5492 206.651 60.7919 163.736 60.0352V233.399C163.849 233.399 163.962 233.399 164.075 233.399V123.213V123.222Z" fill="#32B353"/>
<path d="M225.653 125.883C225.653 89.497 196.95 60 161.554 60C126.159 60 97.4561 89.497 97.4561 125.883C97.4561 138.505 100.916 150.3 106.905 160.321L149.611 233.616C148.942 232.92 171.82 233.616 171.82 233.616L216.908 159.608L216.769 159.356C222.411 149.544 225.662 138.114 225.662 125.892L225.653 125.883Z" fill="#32B353"/>
<path d="M115.293 174.717L149.611 233.615C148.942 232.919 171.82 233.615 171.82 233.615L207.703 174.717H115.302H115.293Z" fill="#32B353"/>
<path d="M225.583 123.222C224.218 88.0704 196.081 60 161.545 60C127.01 60 98.8725 88.0704 97.5078 123.222H225.574H225.583Z" fill="#32B353"/>
<path d="M229.695 125.883C229.695 90.0184 200.01 60.8693 163.067 60.043V233.406C168.031 233.493 172.377 233.624 172.377 233.624L220.377 159.616L220.229 159.364C226.236 149.552 229.695 138.122 229.695 125.9V125.883Z" fill="#1D478E"/>
<path d="M202.94 125.883C202.94 89.497 184.686 60 162.172 60C139.659 60 121.404 89.497 121.404 125.883C121.404 138.505 123.603 150.3 127.411 160.321L154.575 233.616C154.149 232.92 168.7 233.616 168.7 233.616L197.377 159.608L197.29 159.356C200.88 149.544 202.94 138.114 202.94 125.892V125.883Z" fill="#E2801E"/>
<path d="M202.94 125.883C202.94 89.497 184.686 60 162.172 60C139.659 60 121.404 89.497 121.404 125.883C121.404 138.505 123.603 150.3 127.411 160.321L154.575 233.616C154.149 232.92 168.7 233.616 168.7 233.616L197.377 159.608L197.29 159.356C200.88 149.544 202.94 138.114 202.94 125.892V125.883Z" fill="#1D478E"/>
<path d="M202.94 125.883C202.94 90.3056 185.225 61.3305 163.067 60.0605V233.415C165.849 233.502 168.179 233.615 168.179 233.615L197.29 159.608L197.203 159.355C200.845 149.543 202.94 138.113 202.94 125.892V125.883Z" fill="#32B353"/>
<path opacity="0.12" d="M241.299 111.844C228.556 112.305 215.961 115.863 204.217 120.621C191.335 125.84 179.148 132.773 167.918 140.949C166.501 141.984 165.119 143.063 163.745 144.159V233.398C169.717 233.485 174.967 233.616 174.967 233.616L232.068 159.608L231.886 159.356C239.031 149.544 243.142 138.114 243.142 125.892C243.142 121.073 242.499 116.376 241.291 111.852L241.299 111.844Z" fill="#161742"/>
<path opacity="0.12" d="M224.627 114.088C217.638 115.671 210.789 117.95 204.208 120.621C191.326 125.84 179.139 132.773 167.909 140.949C159.885 146.795 152.784 153.641 146.195 161.06C139.701 168.376 133.652 176.074 127.184 183.425C125.828 184.973 124.446 186.504 123.029 188.017L149.594 233.616C148.924 232.92 171.803 233.616 171.803 233.616L216.891 159.608L216.752 159.356C222.393 149.543 225.644 138.113 225.644 125.892C225.644 121.864 225.288 117.924 224.618 114.097L224.627 114.088Z" fill="#161742"/>
<path d="M237.092 153.527H91.0583C90.2152 153.527 89.5198 152.839 89.5198 151.987C89.5198 151.134 90.2065 150.447 91.0583 150.447H237.092C237.935 150.447 238.631 151.134 238.631 151.987C238.631 152.839 237.944 153.527 237.092 153.527Z" fill="#161742"/>
<path d="M161.389 268.697C160.798 268.697 160.233 268.358 159.981 267.775L109.512 152.606C109.173 151.832 109.521 150.927 110.303 150.579C111.077 150.24 111.981 150.588 112.329 151.37L162.797 266.54C163.136 267.314 162.789 268.219 162.006 268.567C161.806 268.654 161.598 268.697 161.389 268.697Z" fill="#161742"/>
<path d="M161.719 268.696C161.51 268.696 161.302 268.653 161.102 268.566C160.328 268.226 159.972 267.322 160.311 266.539L210.779 151.369C211.118 150.595 212.023 150.238 212.805 150.578C213.578 150.917 213.935 151.822 213.596 152.604L163.127 267.774C162.875 268.348 162.31 268.696 161.719 268.696Z" fill="#161742"/>
<path d="M172.202 257.328H149.889V279.762H172.202V257.328Z" fill="#161742"/>
<path d="M172.864 263.313H147.76C145.917 263.313 144.413 261.808 144.413 259.964C144.413 258.12 145.917 256.615 147.76 256.615H172.864C174.706 256.615 176.21 258.12 176.21 259.964C176.21 261.808 174.706 263.313 172.864 263.313Z" fill="#161742"/>
<path d="M39.1254 50H202C197.363 46.6116 190.804 45.5698 184.878 46.367C178.951 47.1643 173.154 48.8856 167.158 48.9491C157.598 49.0487 148.677 44.9628 140.354 40.759C132.031 36.5553 123.517 32.0345 114.009 31.1285C104.5 30.2225 93.6505 34.1273 90.5185 42.1905C88.1738 40.451 82.6711 41.0218 80.0062 42.3354C77.3328 43.6491 74.9967 45.5698 72.081 46.3761C68.1183 47.4633 63.8615 46.3036 59.9681 45.0262C56.0747 43.7488 51.9996 42.3264 47.9072 42.9062C43.8148 43.486 38.0785 46.4033 39.1254 49.9909V50Z" fill="#1D478E"/>
<path d="M288 227.991H198C200.895 224.401 204.077 223.198 208.594 223.361C213.11 223.524 217.723 224.374 222.083 223.126C227.131 221.679 231.02 217.656 235.24 214.445C239.46 211.235 244.971 208.695 249.818 210.729C254.98 212.899 257.273 219.346 262.052 222.321C266.96 225.378 273.16 224.085 278.871 223.614C284.582 223.144 285.733 222.547 288 228V227.991Z" fill="#1D478E"/>
<path opacity="0.5" d="M34 172C34 175.858 30.8583 179 27 179C23.1418 179 20 175.858 20 172C20 168.142 23.1418 165 27 165C30.8583 165 34 168.142 34 172Z" fill="#EE3D4B"/>
<path opacity="0.5" d="M290 33.5C290 34.8793 288.879 36 287.5 36C286.121 36 285 34.8793 285 33.5C285 32.1207 286.121 31 287.5 31C288.879 31 290 32.1207 290 33.5Z" fill="#EE3D4B"/>
<path opacity="0.5" d="M74 92.5C74 93.8793 72.8793 95 71.5 95C70.1207 95 69 93.8793 69 92.5C69 91.1207 70.1207 90 71.5 90C72.8793 90 74 91.1207 74 92.5Z" fill="#EE3D4B"/>
<path opacity="0.5" d="M278 50C278 51.106 277.106 52 276 52C274.894 52 274 51.106 274 50C274 48.894 274.894 48 276 48C277.106 48 278 48.894 278 50Z" fill="#EE3D4B"/>
<path opacity="0.5" d="M230 181C230 182.106 229.106 183 228 183C226.894 183 226 182.106 226 181C226 179.894 226.894 179 228 179C229.106 179 230 179.894 230 181Z" fill="#EE3D4B"/>
<path opacity="0.5" d="M67 151C67 152.106 66.106 153 65 153C63.894 153 63 152.106 63 151C63 149.894 63.894 149 65 149C66.106 149 67 149.894 67 151Z" fill="#EE3D4B"/>
<path opacity="0.3" d="M161.5 331C188.838 331 211 327.866 211 324C211 320.134 188.838 317 161.5 317C134.162 317 112 320.134 112 324C112 327.866 134.162 331 161.5 331Z" fill="#5BC4F0"/>
<mask id="mask0_906_17521" style="mask-type:alpha" maskUnits="userSpaceOnUse" x="55" y="172" width="60" height="60">
<rect x="55" y="172" width="60" height="60" fill="#D9D9D9"/>
</mask>
<g mask="url(#mask0_906_17521)">
<path d="M65.3144 222C64.9252 222 64.5808 221.908 64.2813 221.723C63.9813 221.538 63.7481 221.294 63.5819 220.991C63.4002 220.692 63.3002 220.37 63.2819 220.022C63.264 219.674 63.3612 219.323 63.5737 218.97L83.2531 185.03C83.4656 184.677 83.7219 184.42 84.0219 184.26C84.3215 184.1 84.6475 184.02 85 184.02C85.3525 184.02 85.6785 184.1 85.9781 184.26C86.2781 184.42 86.5344 184.677 86.7469 185.03L106.426 218.97C106.639 219.323 106.736 219.674 106.718 220.022C106.7 220.37 106.6 220.692 106.418 220.991C106.252 221.294 106.019 221.538 105.719 221.723C105.419 221.908 105.075 222 104.686 222H65.3144ZM85 216.039C85.4358 216.039 85.8013 215.891 86.0963 215.596C86.3913 215.301 86.5388 214.936 86.5388 214.5C86.5388 214.064 86.3913 213.699 86.0963 213.404C85.8013 213.109 85.4358 212.961 85 212.961C84.5642 212.961 84.1987 213.109 83.9038 213.404C83.6088 213.699 83.4613 214.064 83.4613 214.5C83.4613 214.936 83.6088 215.301 83.9038 215.596C84.1987 215.891 84.5642 216.039 85 216.039ZM85.0019 210.461C85.3565 210.461 85.6531 210.342 85.8919 210.102C86.1306 209.862 86.25 209.566 86.25 209.211V199.211C86.25 198.857 86.13 198.56 85.89 198.321C85.65 198.081 85.3527 197.961 84.9981 197.961C84.6435 197.961 84.3469 198.081 84.1081 198.321C83.8694 198.56 83.75 198.857 83.75 199.211V209.211C83.75 209.566 83.87 209.862 84.11 210.102C84.35 210.342 84.6473 210.461 85.0019 210.461Z" fill="#EE3D4B"/>
</g>
</svg>
