<svg width="230" height="142" viewBox="0 0 230 142" fill="none" xmlns="http://www.w3.org/2000/svg">
<g id="Group 7416">
<g id="Group">
<path id="Vector" d="M230 74.2888L198.573 91.1529L230 98.3366V74.2888Z" fill="#FFD325"/>
<path id="Vector_2" d="M203.167 43.6843L193.099 61.7967L222.749 43.7082L203.167 43.6843Z" fill="#FFD325"/>
<path id="Vector_3" d="M188.404 43.8202L185.382 52.8763L195.163 43.7078L188.404 43.8202Z" fill="#FFD325"/>
<path id="Vector_4" d="M174.551 43.7078L176.393 52.9768L182.723 43.6097L174.551 43.7078Z" fill="#FFD325"/>
<path id="Vector_5" d="M230 44.308L200.271 74.2888L230 68.3558V44.308Z" fill="#FFD325"/>
</g>
<g id="Group_2">
<path id="Vector_6" opacity="0.27" d="M227.615 133.487C227.734 128.785 176.925 123.703 114.131 122.135C51.336 120.568 0.334501 123.108 0.215489 127.81C0.0964778 132.512 50.9051 137.594 113.7 139.162C176.494 140.729 227.496 138.189 227.615 133.487Z" fill="#161742"/>
<g id="Group_3">
<path id="Vector_7" d="M19.7415 101.201C19.7415 101.201 20.9527 108.316 25.6748 109.363C30.3969 110.411 66.4618 110.662 66.4618 110.662L65.4312 96.0671L19.7415 101.201Z" fill="#161742"/>
<path id="Vector_8" d="M172.959 100.539L63.4807 98.8245L62.007 110.6C62.007 110.6 150.148 112.195 165.179 110.645C180.205 109.1 172.959 100.539 172.959 100.539Z" fill="#161742"/>
<g id="Group_4">
<g id="Group_5">
<path id="Vector_9" d="M93.5811 60.4187C93.6413 60.4211 93.7063 60.4259 93.7665 60.4283L93.7568 60.4378C93.7568 60.4378 74.9141 60.3613 59.2451 59.553C55.9943 59.3832 53.3286 58.5773 50.4053 56.2601C50.5594 43.2533 51.4672 30.2513 53.1143 17.3426C53.2949 15.946 53.5622 14.3988 54.6771 13.5212C55.479 12.8898 56.5505 12.7464 57.5643 12.622C69.1975 11.223 80.8306 9.82647 94.932 12.1413C93.1693 26.1023 92.4589 45.0947 93.5811 60.4211V60.4187Z" fill="#161742"/>
<path id="Vector_10" d="M99.3216 64.5965C99.2133 62.2864 97.3133 60.4546 94.9848 60.4474C94.6164 60.4474 94.2262 60.4522 93.7663 60.4259L93.7567 60.4354C93.7567 60.4354 74.9139 60.3589 59.245 59.5506C55.9941 59.3808 53.3285 58.5749 50.4051 56.2577C50.2366 70.044 50.9084 83.8447 52.4206 97.5546C67.7356 98.7431 81.6251 99.1616 98.6931 99.3744C99.3505 85.4518 99.8201 75.0827 99.3192 64.5941L99.3216 64.5965Z" fill="#161742"/>
</g>
<g id="Group_6">
<path id="Vector_11" d="M93.032 100.934C93.032 100.934 71.3478 109.839 66.7581 109.784C63.3099 109.744 62.1492 91.6648 61.788 82.6588C61.6604 79.6648 61.6315 77.6752 61.6315 77.6752C61.6315 77.6752 90.5999 77.0486 92.4782 79.3754C92.5866 79.5117 92.6829 79.7078 92.7744 79.9565C94.2071 84.0386 93.032 100.934 93.032 100.934Z" fill="#1D478E"/>
<path id="Vector_12" d="M92.767 79.9565C92.0446 79.4161 91.0188 79.5237 90.0917 79.5141C87.4621 79.4807 69.0528 81.7501 61.7854 82.6588C61.6578 79.6648 61.6289 77.6752 61.6289 77.6752C61.6289 77.6752 90.5974 77.0486 92.4756 79.3754C92.584 79.5117 92.6803 79.7078 92.767 79.9565Z" fill="#1D478E"/>
</g>
</g>
<g id="Group_7">
<g id="Group_8">
<path id="Vector_13" d="M220.277 116.023C220.178 123.912 214.719 133.009 202.159 132.397C201.489 132.39 200.825 132.344 200.179 132.256C191.896 131.175 185.546 124.089 185.659 115.588C185.765 107.232 192.069 100.4 200.17 99.336C200.959 99.2308 201.766 99.183 202.585 99.1973C215.35 99.3647 220.37 108.808 220.277 116.023Z" fill="#161742"/>
<path id="Vector_14" d="M216.132 115.983C216.043 123.133 210.493 131.264 200.177 132.263C191.893 131.182 185.543 124.097 185.656 115.595C185.762 107.24 192.066 100.407 200.167 99.3433C210.904 100.783 216.221 109.339 216.135 115.983H216.132Z" fill="#FFF3EB"/>
<path id="Vector_15" d="M200.738 127.88C207.466 127.88 212.92 122.463 212.92 115.782C212.92 109.1 207.466 103.684 200.738 103.684C194.01 103.684 188.556 109.1 188.556 115.782C188.556 122.463 194.01 127.88 200.738 127.88Z" fill="#1D478E"/>
<path id="Vector_16" d="M199.779 122.413C203.473 122.413 206.466 119.44 206.466 115.772C206.466 112.104 203.473 109.131 199.779 109.131C196.086 109.131 193.092 112.104 193.092 115.772C193.092 119.44 196.086 122.413 199.779 122.413Z" fill="#1D478E"/>
</g>
<path id="Vector_17" d="M190.735 97.5857L197.347 116.746C197.749 117.913 199.091 118.467 200.208 117.927C201.128 117.482 201.583 116.439 201.277 115.466L195.546 97.184" fill="#161742"/>
<g id="Group_9">
<path id="Vector_18" d="M219.896 102.6C213.236 97.7531 203.861 98.1142 196.734 100.494C195.824 100.8 194.99 101.134 194.222 101.503C188.987 104.002 186.87 107.897 184.33 112.84C181.106 108.548 180.971 100.309 186.948 94.4864C191.612 89.938 198.434 87.4749 204.88 88.5199C204.916 88.5247 204.945 88.5319 204.981 88.5366C205.342 88.5916 205.699 88.6658 206.05 88.7399C211.35 89.9499 216.005 93.6183 218.425 98.3772C218.425 98.382 218.43 98.382 218.43 98.382C219.109 99.7116 219.612 101.125 219.896 102.598V102.6Z" fill="#32B353"/>
<path id="Vector_19" d="M204.882 88.5206C202.183 89.0683 199.644 90.3309 197.764 92.1986C195.257 94.6832 194.015 98.1508 194.222 101.508C188.987 104.002 186.875 107.903 184.33 112.841C181.105 108.549 180.965 100.31 186.942 94.4872C191.611 89.9387 198.433 87.4804 204.88 88.5206H204.882Z" fill="#31A048"/>
<path id="Vector_20" d="M218.425 98.3795C217.141 97.3895 215.658 96.6123 214.129 96.1029C210.252 94.7996 206.079 94.8188 202.002 94.4122C201.087 94.3238 199.967 94.0416 199.753 93.1448C199.589 92.4561 200.09 91.7984 200.596 91.2939C201.838 90.0719 203.35 89.1392 204.99 88.5294C205.351 88.5844 205.708 88.6586 206.059 88.7327C211.355 89.9475 216.014 93.6159 218.429 98.3772L218.425 98.3795Z" fill="#32B353"/>
</g>
</g>
<g id="Group_10">
<g id="Group_11">
<path id="Vector_21" d="M139.271 7.9188L138.526 66.7303L141.163 66.7633L141.907 7.9517L139.271 7.9188Z" fill="#161742"/>
<path id="Vector_22" d="M137.978 57.3889L137.359 104.186L158.407 103.777C158.407 103.777 158.427 71.2063 157.938 69.9676C157.723 69.4223 142.406 69.3052 142.406 69.3052L142.17 57.3578L137.975 57.3865L137.978 57.3889Z" fill="#161742"/>
</g>
<path id="Vector_23" d="M110.769 72.4114L108.831 66.0982L138.534 62.7789L140.26 78.1866L111.749 80.5733L110.769 72.4114Z" fill="#161742"/>
<g id="Group_12">
<path id="Vector_24" d="M151.643 103.036L127.573 109.519L113.076 109.284L111.858 84.1581L111.08 81.054C111.08 81.054 114.145 80.571 118.02 79.9947C123.833 79.129 131.488 78.0481 133.395 78.0696C136.569 78.1079 151.414 77.797 151.739 78.9137C151.773 79.0214 151.795 79.3131 151.821 79.7579C152.069 83.8831 151.643 103.033 151.643 103.033V103.036Z" fill="#161742"/>
<path id="Vector_25" d="M151.913 82.0154L125.921 84.7966L121.235 85.239L118.025 79.9947C123.838 79.129 131.493 78.0481 133.4 78.0696C136.574 78.1079 151.419 77.797 151.744 78.9137C151.778 79.0214 151.886 81.5658 151.913 82.0154Z" fill="#1D478E"/>
</g>
<g id="Group_13">
<path id="Vector_26" d="M109.857 15.3491L109.113 74.1606L111.75 74.1935L112.494 15.382L109.857 15.3491Z" fill="#161742"/>
<path id="Vector_27" d="M108.561 64.8189L108.214 110.633C112.4 110.848 124.216 111.138 128.996 110.693C128.996 110.693 129.008 78.6387 128.516 77.4024C128.302 76.8572 112.985 76.74 112.985 76.74L112.749 64.7926L108.559 64.8165L108.561 64.8189Z" fill="#31A048"/>
</g>
</g>
<g id="Group_14">
<g id="Group_15">
<path id="Vector_28" d="M202.389 73.1958C202.474 79.0236 202.426 83.6868 202.426 83.6868C202.426 83.6868 193.037 88.735 187.428 97.3153C181.815 105.888 181.233 109.741 177.924 111.159C177.363 111.398 175.571 111.618 172.913 111.805C159.924 112.74 126.161 113.089 113.093 112.924C97.3517 112.728 60.4175 111.563 57.2124 111.099C54.0073 110.64 53.5305 99.8789 36.619 98.9271C23.1052 98.1666 18.2362 108.022 17.3789 110.913L12.2234 109.332C12.2234 109.332 12.2956 107.402 12.8446 105.09C12.3365 103.643 11.8068 101.259 11.5612 97.3823C11.3854 94.6274 11.8164 86.7788 12.6544 76.9502C13.0373 72.4807 13.502 67.5951 14.0294 62.5971C36.1904 64.4026 61.9586 64.0367 69.1513 63.8765H69.1562C70.418 63.8526 71.1043 63.8335 71.1043 63.8335L71.1765 63.7474C71.6918 63.7785 74.7331 64.1013 75.9781 67.3392C77.0208 70.0463 76.8064 93.1256 76.6403 103.889C76.6282 104.559 76.621 105.178 76.6162 105.743C76.5777 108.002 76.5464 109.38 76.5464 109.38C96.6557 111.123 136.176 110.965 160.502 110.061C161.097 106.96 161.595 103.667 161.995 100.257C163.591 86.9678 163.895 71.7322 163.669 57.977C163.661 57.4915 163.652 57.0204 163.64 56.5517C163.221 34.9646 161.528 17.3808 161.528 17.3808L161.159 17.376L161.431 17.1153C162.014 16.0057 162.761 14.8698 163.62 13.7961C165.86 11.0125 168.858 8.65697 171.644 8.23608C173.888 9.35047 175.229 10.5509 176.238 11.749C176.455 12.0049 176.65 12.2536 176.843 12.5095C176.956 12.6602 177.059 12.806 177.17 12.9519C177.772 13.7889 178.307 14.6163 178.984 15.3839C181.177 17.9164 191.785 33.3528 197.658 44.9893C197.8 45.262 197.932 45.5322 198.065 45.8C198.144 45.9674 198.224 46.1324 198.303 46.295C199.842 49.4636 200.976 52.2759 201.407 54.3851C201.47 54.7008 201.523 55.0021 201.561 55.2914C201.561 55.3464 201.573 55.4038 201.576 55.4588C201.595 55.5975 201.607 55.7362 201.626 55.8725C201.802 57.5417 201.93 59.5051 202.04 61.588C202.228 65.3233 202.324 69.4867 202.382 73.191L202.389 73.1958Z" fill="#32B353"/>
<path id="Vector_29" d="M76.6477 103.889C76.6357 104.559 76.6284 105.178 76.6236 105.743C75.8386 105.515 75.0608 105.288 74.2806 105.068C75.1716 95.1416 75.2486 85.1432 74.5021 75.2069C74.2686 72.1412 73.9026 68.9224 72.0628 66.4497C71.2754 65.3903 70.2809 64.5509 69.1636 63.8813C70.4254 63.8574 71.1117 63.8383 71.1117 63.8383L71.1839 63.7522C71.6992 63.7833 74.7405 64.1061 75.9855 67.3441C77.0209 70.0463 76.809 93.1256 76.6429 103.889H76.6477Z" fill="#31A048"/>
<path id="Vector_30" d="M202.426 83.6868C202.426 83.6868 193.037 88.735 187.424 97.3106C181.813 105.888 181.228 109.743 177.927 111.154C177.366 111.393 175.574 111.613 172.915 111.805C159.927 112.74 126.164 113.089 113.095 112.924C97.347 112.728 60.4201 111.563 57.215 111.099C54.0099 110.64 53.5331 99.8789 36.6216 98.9271C23.1078 98.1667 18.2388 108.017 17.3767 110.908L12.226 109.332C12.226 109.332 12.2934 107.402 12.8424 105.09C12.3343 103.643 11.8046 101.259 11.5589 97.3823C11.3832 94.6274 11.819 86.7789 12.6522 76.9503C13.6154 77.8901 14.687 78.7295 15.8211 79.4206C20.9141 82.527 27.0473 83.3783 32.9903 84.0312C38.9333 84.684 45.0449 85.2484 50.4003 87.9028C56.8827 91.1169 61.6048 97.0762 67.9018 100.632C70.6879 102.206 73.6136 103.248 76.6453 103.889C76.5971 107.225 76.5514 109.375 76.5514 109.375C96.6607 111.118 136.181 110.956 160.507 110.057C161.102 106.955 161.595 103.667 162 100.252C166.474 99.3289 170.816 97.9443 174.989 95.8661C188.498 89.1416 197.513 76.1157 202.036 61.5928C202.539 71.2277 202.423 83.6844 202.423 83.6844L202.426 83.6868Z" fill="#32B353"/>
<path id="Vector_31" d="M202.39 73.196C198.204 80.8772 192.177 87.5778 184.869 92.4323C187.39 86.2721 189.914 80.1047 192.44 73.9398C188.072 73.2989 185.074 72.7201 182.309 71.5723C181.375 71.192 180.301 70.3837 180.619 69.4272C180.845 68.7576 181.64 68.4993 182.328 68.3272C185.182 67.6265 188.026 66.9258 190.879 66.2251C191.428 61.8704 191.554 58.202 191.185 54.591C188.252 38.5161 179.412 23.1203 166.573 12.3113C165.552 12.5456 164.56 13.0789 163.63 13.7915C165.87 11.008 168.868 8.65245 171.654 8.23157C173.898 9.34595 175.239 10.5464 176.248 11.7445C176.465 12.0004 176.66 12.2491 176.853 12.505C176.966 12.6556 177.069 12.8015 177.18 12.9474C177.782 13.7844 178.317 14.6118 178.993 15.3794C181.187 17.9119 191.794 33.3483 197.667 44.9848C197.81 45.2574 197.942 45.5277 198.074 45.7955C198.154 45.9629 198.233 46.1279 198.313 46.2905C199.852 49.4591 200.986 52.2714 201.417 54.3806C201.479 54.6962 201.532 54.9976 201.571 55.2869C201.571 55.3419 201.583 55.3993 201.585 55.4543C201.605 55.593 201.617 55.7317 201.636 55.868C201.812 57.5372 201.939 59.5005 202.05 61.5834C202.233 65.3284 202.332 69.4918 202.387 73.196H202.39Z" fill="#31A048"/>
</g>
<g id="Group_16">
<path id="Vector_32" d="M202.426 83.6869C202.426 83.6869 193.037 88.7351 187.424 97.3106C181.813 105.889 181.228 109.743 177.927 111.154C177.366 111.393 175.574 111.613 172.916 111.805C184.457 104.258 199.825 77.4621 199.522 56.2146C200.112 56.095 200.817 55.8368 201.581 55.4613C202.604 64.6729 202.426 83.6893 202.426 83.6893V83.6869Z" fill="#31A048"/>
<path id="Vector_33" d="M201.626 55.8797C199.351 56.9654 196.615 57.2285 194.096 57.3744C184.683 57.9148 175.143 58.1229 165.701 58.0057C165.027 57.9985 164.355 57.9866 163.681 57.977C163.674 57.4963 163.664 57.0204 163.652 56.5517C173.732 56.7311 183.947 56.5302 194.012 55.9563C196.543 55.8128 199.293 55.5426 201.412 54.3851C201.479 54.7056 201.528 55.0069 201.561 55.2915C201.569 55.3513 201.573 55.4039 201.576 55.4637C201.595 55.5976 201.607 55.7363 201.626 55.8774V55.8797Z" fill="#161742"/>
<g id="Group_17">
<path id="Vector_34" d="M192.237 59.6845C192.095 59.5985 191.936 59.4789 191.765 59.345C191.296 58.9863 190.704 58.8236 190.111 58.893C186.576 59.2947 182.798 59.4454 179.111 59.565C178.059 59.5985 177.19 60.4187 177.132 61.4613C177.077 62.5327 177.137 63.6351 177.296 64.6873C177.44 65.6295 178.228 66.3422 179.184 66.4091C183.472 66.7152 187.633 66.6076 191.818 65.6726C192.37 65.5482 192.823 65.1441 193.001 64.6108C193.569 62.9464 193.957 60.6913 192.237 59.6821V59.6845Z" fill="#161742"/>
<g id="Group_18">
<path id="Vector_35" d="M177.782 63.8575C177.765 63.2788 177.765 62.6833 177.787 62.0544C177.825 60.9137 178.748 59.993 179.901 59.9811C183.595 59.9404 187.306 59.6917 191.086 59.333C192.271 59.223 193.331 60.0911 193.429 61.27C193.475 61.844 193.511 62.4275 193.533 63.011C193.576 64.0608 192.859 64.9958 191.821 65.2015C188.406 65.8687 183.207 66.1269 179.814 65.9404C178.695 65.8711 177.809 64.9647 177.782 63.8551V63.8575Z" fill="#FFF3EB"/>
<path id="Vector_36" d="M178.555 63.6732C178.519 63.2787 178.497 62.8721 178.493 62.4704C178.471 61.3321 179.412 60.5286 180.559 60.5166C182.319 60.4999 184.082 60.3684 185.827 60.409C184.922 63.4245 186.774 64.5198 188.409 65.0842C185.945 65.4381 183.335 65.6175 180.891 65.6222C179.689 65.6246 178.666 64.8546 178.553 63.6685L178.555 63.6732Z" fill="#E2E2E2"/>
<path id="Vector_37" d="M190.92 60.0168C188.522 60.2057 186.128 60.3946 183.728 60.5764C183.578 60.5907 183.424 60.6051 183.301 60.6864C183.008 60.892 183.121 61.3847 183.415 61.5855C183.708 61.7864 184.098 61.7745 184.452 61.7553C186.415 61.6621 188.373 61.5712 190.335 61.4732C190.639 61.4612 190.959 61.4421 191.233 61.3105C191.51 61.179 191.741 60.9064 191.717 60.5979C191.701 60.3062 191.344 60.0479 190.918 60.0144L190.92 60.0168Z" fill="#707070"/>
</g>
</g>
<g id="Group_19">
<path id="Vector_38" d="M198.07 45.8002C197.53 45.958 196.981 46.1063 196.43 46.2498C195.286 46.5487 194.13 46.8165 192.969 47.0461C188.112 48.029 183.14 48.4307 178.187 48.2418C177.828 48.2275 177.479 48.2155 177.117 48.1916H177.113L176.754 48.1725C176.005 47.9549 175.362 47.6559 174.798 47.2948C173.915 46.74 173.228 46.0393 172.634 45.2621C172.075 43.4543 171.552 41.6296 171.078 39.8002C169.402 33.4343 168.234 26.9824 167.608 20.4658C167.916 18.7943 168.632 17.4168 169.641 16.3048C170.257 15.2885 171.184 14.5591 172.26 14.0091C173.195 13.5332 174.228 13.1841 175.263 12.9067C175.314 12.8947 175.352 12.8851 175.403 12.8684C175.877 12.7464 176.359 12.6293 176.845 12.5121C176.958 12.6627 177.062 12.8086 177.166 12.9593C177.486 13.4065 177.789 13.8489 178.105 14.2817C178.379 14.6596 178.663 15.035 178.979 15.3937C179.2 15.6496 179.506 16.0346 179.882 16.5344V16.5392C182.511 20.0043 188.601 28.9553 193.668 37.6862C194.804 39.6472 195.89 41.589 196.873 43.459C197.142 43.978 197.405 44.4849 197.663 44.9943C197.805 45.2621 197.942 45.5324 198.07 45.8002Z" fill="#E2E2E2"/>
<path id="Vector_39" opacity="0.28" d="M174.806 47.2947C173.922 46.7399 173.236 46.0393 172.641 45.2621C172.082 43.4542 171.56 41.6295 171.085 39.8001C172.198 31.3633 172.59 22.783 172.268 14.0042C173.202 13.5283 174.235 13.1792 175.271 12.9018C175.321 12.8898 175.36 12.8803 175.41 12.8635C176.092 24.3326 175.887 35.8543 174.808 47.2923L174.806 47.2947Z" fill="#E2E2E2"/>
<path id="Vector_40" opacity="0.28" d="M178.194 48.2441C177.835 48.2297 177.486 48.2178 177.125 48.1938C178.784 36.9782 179.116 25.5713 178.114 14.2792C178.389 14.657 178.673 15.0325 178.989 15.3912C179.21 15.647 179.516 16.0321 179.892 16.5319V16.5366C180.067 27.1329 179.497 37.7339 178.194 48.2465V48.2441Z" fill="#E2E2E2"/>
<path id="Vector_41" opacity="0.28" d="M196.878 43.4565C196.743 44.3915 196.594 45.3218 196.43 46.2472C195.286 46.5462 194.13 46.814 192.969 47.0436C193.533 43.9563 193.767 40.8164 193.673 37.6765C194.809 39.6422 195.895 41.584 196.878 43.4541V43.4565Z" fill="#E2E2E2"/>
<path id="Vector_42" d="M198.308 46.2953C191.402 48.0266 183.961 49.0047 177.97 48.9425H177.951C174.921 48.9067 172.246 46.8525 171.439 43.9421C169.674 37.5691 168.164 30.3543 166.948 22.4962C166.416 19.0478 168.092 15.6138 171.129 13.9374C172.776 13.0263 174.49 12.2969 176.241 11.7493C176.585 12.151 176.886 12.5552 177.173 12.9569C175.338 13.4878 173.542 14.2339 171.822 15.1809C169.311 16.5655 167.924 19.4232 168.364 22.2833C169.571 30.0864 171.061 37.2439 172.817 43.5667C173.457 45.8672 175.572 47.491 177.963 47.5197H177.977C183.771 47.5771 190.956 46.6444 197.66 44.9944C197.891 45.4296 198.108 45.8696 198.31 46.2953H198.308Z" fill="#161742"/>
</g>
</g>
<g id="Group_20">
<path id="Vector_43" d="M171.651 8.24101C169.824 8.51841 167.914 9.61845 166.178 11.1274C164.244 12.8086 162.537 15.0039 161.434 17.1202L161.167 17.3809L71.7715 16.6109C71.7667 16.6348 71.7667 16.6611 71.7643 16.6802C71.7474 16.8333 71.7282 16.9983 71.7113 17.1513C68.6387 42.1939 71.1021 63.7451 71.1021 63.7451C71.1021 63.7451 71.131 63.7451 71.1767 63.7523L71.1045 63.8432C71.1045 63.8432 40.0796 64.728 14.0272 62.5997C16.0187 43.679 18.9299 23.1011 21.6751 16.7878C21.7305 16.6683 21.7786 16.5511 21.8292 16.4363C21.8581 16.3813 21.8798 16.3215 21.9135 16.2665C22.6792 14.6858 23.5726 13.2295 24.5719 11.8807C29.0894 5.80897 35.7813 2.08797 42.5839 0.524002C50.9518 -1.40107 144.619 2.40842 160.163 4.98872C165.605 5.88789 169.176 7.00945 171.649 8.24101H171.651Z" fill="#FFD325"/>
<path id="Vector_44" d="M171.651 8.24101C169.824 8.51841 167.914 9.61845 166.178 11.1274C164.656 9.85042 162.084 9.5228 159.934 9.36257C127.031 6.93532 95.2256 6.78944 62.5391 5.73723C54.0918 5.46461 44.886 5.66788 36.6216 7.42077C32.4317 8.30558 28.2899 9.76911 24.5719 11.8807C29.0893 5.80897 35.7812 2.08797 42.5839 0.524002C50.9517 -1.40107 144.619 2.40842 160.163 4.98872C165.605 5.88789 169.176 7.00945 171.649 8.24101H171.651Z" fill="#ECBE25"/>
<path id="Vector_45" d="M21.9159 16.2642C24.8777 15.8386 27.9913 15.8768 31.0495 15.9103L31.6683 15.9223C35.4008 15.9701 39.4462 15.9845 43.3617 16.0036C53.8221 16.0538 64.6028 16.1064 71.7619 16.6756C71.745 16.8286 71.7257 16.9936 71.7089 17.1467C64.5715 16.5703 53.8052 16.5249 43.3593 16.4723C39.4486 16.4579 35.3984 16.4388 31.6611 16.391L31.0422 16.379C27.8998 16.3408 24.6947 16.2977 21.675 16.7808" fill="#161742"/>
</g>
</g>
<g id="Group_21">
<g id="Group_22">
<path id="Vector_46" d="M53.6557 109.801C51.4933 101.89 43.9947 94.0728 32.3857 97.7627C31.762 97.9325 31.1503 98.1429 30.5676 98.3868C23.0883 101.5 18.9995 110.184 21.3353 118.709C23.6253 127.088 31.3237 132.419 39.1931 131.508C39.9613 131.421 40.7294 131.268 41.4928 131.056C53.4077 127.77 55.6351 117.04 53.6557 109.799V109.801Z" fill="#161742"/>
<path id="Vector_47" d="M49.7839 110.858C47.8238 103.686 40.4938 96.8659 30.5631 98.3844C23.0838 101.498 18.995 110.181 21.3307 118.706C23.6208 127.086 31.3192 132.416 39.1886 131.505C48.8737 127.435 51.6044 117.523 49.7839 110.858Z" fill="#FFF3EB"/>
<path id="Vector_48" d="M38.2704 127.08C44.6182 125.616 48.4824 118.947 46.9014 112.184C45.3203 105.421 38.8928 101.125 32.545 102.588C26.1973 104.052 22.3331 110.721 23.9141 117.484C25.4951 124.247 31.9227 128.543 38.2704 127.08Z" fill="#1D478E"/>
<path id="Vector_49" d="M36.0894 121.798C39.5742 120.995 41.6955 117.334 40.8276 113.621C39.9596 109.908 36.431 107.549 32.9462 108.353C29.4615 109.156 27.3401 112.817 28.2081 116.53C29.076 120.243 32.6046 122.602 36.0894 121.798Z" fill="#1D478E"/>
</g>
<g id="Group_23">
<path id="Vector_50" d="M64.5691 113.128C63.394 113.199 62.2237 113.259 61.0438 113.326C60.5598 113.355 60.0782 113.381 59.5941 113.41C56.9887 113.549 54.6264 112.116 53.7114 109.906C52.9143 107.957 51.9102 106.056 50.7519 104.177C42.7982 102.469 34.5291 101.953 25.8241 102.426C22.7731 104.722 20.9406 107.537 19.361 110.71C18.7879 111.855 17.4345 112.511 16.062 112.315C13.7334 111.975 11.7829 111.612 10.1431 111.241C11.3736 106.967 13.2759 102.849 15.7995 98.9922C17.1648 96.8997 18.9709 95.1229 21.0731 93.7239C24.2468 91.6076 28.1093 90.364 32.1861 90.2397C37.3946 90.0842 42.6778 90.4764 47.9514 91.4402C53.2755 92.4063 57.805 95.5342 60.213 99.932C62.4428 103.993 63.9069 108.467 64.5691 113.13V113.128Z" fill="#31A048"/>
<path id="Vector_51" d="M64.569 113.127C63.3939 113.199 62.2236 113.259 61.0437 113.326C60.1046 107.938 58.5803 102.533 54.5421 98.9773C50.5086 95.4309 44.8377 94.527 39.5016 93.8048C33.4093 92.9821 26.9293 92.2862 21.073 93.7115C24.2468 91.5951 28.1092 90.3516 32.186 90.2272C37.3946 90.0718 42.6777 90.464 47.9513 91.4277C53.2754 92.3938 57.8049 95.5218 60.2129 99.9195C62.4428 103.99 63.9068 108.464 64.569 113.127Z" fill="#32B353"/>
</g>
</g>
</g>
</g>
</g>
</svg>
