<svg id="Location" xmlns="http://www.w3.org/2000/svg" width="13" height="19" viewBox="0 0 13 19">
  <path id="Path_6138" data-name="Path 6138" d="M22.99,55.749c0,1.23-2.912,2.223-6.5,2.223s-6.5-.993-6.5-2.223c0-1.1,2.333-2,5.393-2.189H17.6C20.66,53.746,22.99,54.65,22.99,55.749Z" transform="translate(-9.99 -38.972)" fill="#e3e2e1"/>
  <path id="Path_6139" data-name="Path 6139" d="M17.384,0A5.841,5.841,0,0,0,11.54,5.841c0,3.227,5.844,10.936,5.844,10.936s5.841-7.709,5.841-10.936A5.839,5.839,0,0,0,17.384,0Zm0,9.708a3.867,3.867,0,1,1,3.868-3.867A3.867,3.867,0,0,1,17.384,9.708Z" transform="translate(-10.885)" fill="#e82327"/>
</svg>
