<svg width="100" height="100" viewBox="0 0 100 100" fill="none" xmlns="http://www.w3.org/2000/svg">
<mask id="mask0_342_230" style="mask-type:luminance" maskUnits="userSpaceOnUse" x="0" y="0" width="100" height="100">
<path d="M50 100C77.6142 100 100 77.6142 100 50C100 22.3858 77.6142 0 50 0C22.3858 0 0 22.3858 0 50C0 77.6142 22.3858 100 50 100Z" fill="white"/>
</mask>
<g mask="url(#mask0_342_230)">
<path d="M103.892 25.7629L74.7832 39.9267L103.892 45.9578V25.7629Z" fill="#FFD225"/>
<path d="M-3.42651 29.4867L27.2888 37.7237L-3.42651 45.958V29.4867Z" fill="#FFD225"/>
<path d="M79.0391 0.0644531L69.7126 15.2749L97.1781 0.0831917L79.0391 0.0644531Z" fill="#FFD225"/>
<path d="M33.4809 0.259766L40.6417 11.9393L19.55 0.275827L33.4809 0.259766Z" fill="#FFD225"/>
<path d="M15.9494 0.259766L26.1486 16.8997L-3.89209 0.283857L15.9494 0.259766Z" fill="#FFD225"/>
<path d="M65.3631 0.17609L62.563 7.78129L71.6245 0.0823975L65.3631 0.17609Z" fill="#FFD225"/>
<path d="M40.1624 0.0823975L48.8196 8.72358L46.8092 0.0823975H40.1624Z" fill="#FFD225"/>
<path d="M52.5298 0.0827405L54.2377 7.86462L60.1002 -0.000244141L52.5298 0.0827405Z" fill="#FFD225"/>
<path d="M103.892 0.585693L76.3569 25.7624L103.892 20.7806V0.585693Z" fill="#FFD225"/>
<path d="M-3.6543 4.30933L23.8834 29.486L-3.6543 24.5042V4.30933Z" fill="#FFD225"/>
<path d="M35.7156 69.0698C35.7156 69.0698 15.2129 47.5605 12.7982 59.4702C9.07729 77.826 10.5148 160.536 10.5148 160.536L88.853 154.223C88.853 154.223 89.1474 111.149 89.3883 105.035C90.1486 85.8194 97.7565 74.3433 90.9276 66.0903C84.0987 57.84 68.9847 71.0373 68.9847 71.0373L35.7129 69.0698H35.7156Z" fill="#1D4591"/>
<path d="M47.2215 54.3251C36.7761 53.8914 31.4757 60.6427 30.662 64.1709C28.4856 73.6018 60.6063 72.5524 60.6063 72.5524C60.6063 72.5524 77.463 75.5292 74.9333 65.3086C72.4625 55.3209 58.4085 54.7882 47.2215 54.3224V54.3251Z" fill="#1D4591"/>
<path d="M28.8655 44.7187C27.4789 42.2372 27.9232 39.3461 29.8614 38.2646C31.7995 37.1831 34.4925 38.3182 35.8818 40.7997C37.2685 43.2812 36.8241 46.1723 34.886 47.2538C32.9479 48.3353 30.2549 47.2003 28.8655 44.7187Z" fill="#9E5943"/>
<path d="M74.8739 38.8278C75.2326 36.0063 73.7362 33.4927 71.5358 33.2143C69.3353 32.9359 67.2607 34.9971 66.902 37.8186C66.5433 40.6401 68.0397 43.1538 70.2401 43.4322C72.4406 43.7106 74.5152 41.6493 74.8739 38.8278Z" fill="#9E5943"/>
<path d="M46.6833 65.6653L45.915 52.5295L58.502 53.1024L59.6906 67.3438L52.6181 71.1986C52.6181 71.1986 50.3347 69.0704 46.6806 65.6653H46.6833Z" fill="#9E5943"/>
<path d="M53.5095 56.1106C63.214 54.8519 70.0186 45.6401 68.708 35.5353C67.3974 25.4306 58.4679 18.2594 48.7634 19.5181C39.0589 20.7768 32.2543 29.9886 33.5649 40.0934C34.8755 50.1981 43.805 57.3693 53.5095 56.1106Z" fill="#9E5943"/>
<path d="M25.1445 65.8115C25.4256 65.1288 22.9119 61.4213 22.5934 60.8163C21.2094 58.1741 20.1922 56.5546 17.6303 55.0956C10.7131 51.1579 3.98056 46.8988 -2.77872 42.6719C-3.45867 42.2463 -4.16806 41.7939 -4.57228 41.1006C-4.57228 38.8011 -6.3926 35.645 -6.7754 33.2304C-7.35362 29.5763 -7.79532 25.8955 -8.30662 22.2308C-8.89555 18.0012 -9.5166 13.6699 -11.5457 9.91415C-13.6391 6.03526 -17.1566 3.4413 -21.5334 2.94339C-21.8279 0.98386 -20.8428 -1.46019 -22.5533 -2.93787C-26.7026 -0.836463 -30.7421 1.53531 -34.8218 3.77859C-34.8218 3.77859 -32.003 6.39665 -32.003 6.39932C-31.7727 7.0873 -32.6427 9.34664 -32.6856 10.2193C-32.7632 11.9165 -32.525 13.611 -32.2439 15.2788C-31.149 21.7677 -31.0178 28.8161 -30.0193 35.4147C-28.8843 42.9209 -29.3983 50.2049 -26.0307 57.2881C-23.9346 61.6997 -20.0986 64.987 -16.4526 68.2368C-10.1162 73.8851 -4.03154 79.8146 1.77208 86.0064C3.80121 88.172 12.2523 96.599 10.7532 100.216C10.7532 100.216 25.0588 66.0069 25.1392 65.8141L25.1445 65.8115Z" fill="#1D4591"/>
<path d="M74.8554 70.1009C74.5743 69.4183 77.088 65.7107 77.4065 65.1057C78.7905 62.4636 79.8077 60.844 82.3696 59.3851C89.2868 55.4473 96.0193 51.1883 102.779 46.9614C103.459 46.5357 104.168 46.0833 104.572 45.39C104.572 43.0905 106.392 39.9344 106.775 37.5198C107.354 33.8658 107.795 30.1849 108.306 26.5202C108.895 22.2906 109.516 17.9593 111.546 14.2036C113.639 10.3247 117.156 7.73073 121.533 7.23281C121.828 5.27329 120.843 2.82924 122.553 1.35156C126.702 3.45297 130.742 5.82474 134.822 8.06802C134.822 8.06802 132.003 10.6861 132.003 10.6887C131.773 11.3767 132.643 13.6361 132.685 14.5088C132.763 16.2059 132.525 17.9004 132.244 19.5682C131.149 26.0571 131.018 33.1055 130.019 39.7042C128.884 47.2103 129.398 54.4943 126.031 61.5775C123.935 65.9891 120.098 69.2764 116.452 72.5262C110.116 78.1746 104.031 84.104 98.2278 90.2958C96.1987 92.4614 87.7475 100.888 89.2466 104.505C89.2466 104.505 74.941 70.2963 74.8607 70.1036L74.8554 70.1009Z" fill="#1D4591"/>
</g>
<path d="M60.4805 30.7587C59.9505 27.1449 61.5727 23.9165 64.0997 23.5444C66.6294 23.1723 69.1083 25.801 69.6383 29.4149C70.1684 33.0288 68.5461 36.2572 66.0191 36.6293C63.4894 37.0014 61.0105 34.3726 60.4805 30.7587Z" fill="#161742"/>
<path d="M31.4593 32.1105C28.9189 31.6956 27.3127 28.5903 27.8696 25.1772C28.429 21.7641 30.94 19.3334 33.4804 19.751C36.0209 20.166 37.627 23.2712 37.0702 26.6843C36.5107 30.0974 33.9998 32.5281 31.4593 32.1105Z" fill="#161742"/>
<path d="M34.0106 44.6789C31.4702 44.2639 29.864 41.1587 30.4208 37.7456C30.9803 34.3325 33.4913 31.9018 36.0317 32.3194C38.5721 32.7343 36.9633 34.7501 36.4065 38.1605C35.847 41.5736 36.551 45.0938 34.0106 44.6762V44.6789Z" fill="#161742"/>
<path d="M33.9547 22.8026C33.1811 17.5344 37.1885 12.5874 42.9037 11.7495C48.619 10.9116 53.8765 14.5014 54.6502 19.7697C55.4238 25.0379 51.4164 29.9849 45.7012 30.8228C39.9859 31.6607 34.7284 28.0709 33.9547 22.8026Z" fill="#161742"/>
<path d="M28.8655 44.7194C27.4789 42.2378 27.9232 39.3467 29.8614 38.2652C31.7995 37.1837 34.4925 38.3188 35.8818 40.8003C37.2685 43.2818 36.8241 46.1729 34.886 47.2544C32.9479 48.3359 30.2549 47.2009 28.8655 44.7194Z" fill="#9E5943"/>
<path d="M35.4587 43.8434C35.3516 43.8675 35.2365 43.8487 35.1348 43.7872L30.5358 40.9898C30.3243 40.8613 30.2574 40.5882 30.3859 40.3767C30.5144 40.1679 30.7874 40.101 30.9962 40.2268L35.5952 43.0242C35.8067 43.1527 35.8736 43.4258 35.7451 43.6372C35.6782 43.747 35.5738 43.8166 35.4587 43.8407V43.8434Z" fill="#161742"/>
<path d="M32.7016 45.3103C32.5811 45.3344 32.4526 45.3103 32.3455 45.2353C32.1474 45.0908 32.1046 44.8097 32.2492 44.6116L33.5635 42.8154C33.7081 42.6173 33.9865 42.5744 34.1873 42.719C34.3854 42.8636 34.4282 43.1446 34.2836 43.3427L32.9693 45.139C32.9023 45.23 32.806 45.2889 32.7016 45.313V45.3103Z" fill="#161742"/>
<path d="M74.8739 38.8284C75.2326 36.0069 73.7362 33.4933 71.5358 33.2149C69.3353 32.9365 67.2607 34.9977 66.902 37.8192C66.5433 40.6407 68.0397 43.1544 70.2401 43.4328C72.4406 43.7112 74.5152 41.6499 74.8739 38.8284Z" fill="#9E5943"/>
<path d="M68.4497 40.4804C68.3292 40.5072 68.1981 40.4804 68.091 40.4028C67.8956 40.2556 67.8527 39.9772 68 39.7791L71.2177 35.4638C71.3649 35.2657 71.6433 35.2256 71.8414 35.3728C72.0368 35.52 72.0796 35.7985 71.9324 35.9965L68.7147 40.3118C68.6478 40.4028 68.5514 40.459 68.4497 40.4804Z" fill="#161742"/>
<path d="M71.5549 40.8098C71.4451 40.8339 71.3274 40.8151 71.2283 40.7535L69.3384 39.5784C69.1296 39.4472 69.0653 39.1741 69.1938 38.9653C69.3223 38.7565 69.5981 38.6923 69.8069 38.8208L71.6968 39.996C71.9056 40.1271 71.9698 40.4002 71.8413 40.609C71.7744 40.7161 71.67 40.7857 71.5549 40.8098Z" fill="#161742"/>
<path d="M46.6833 65.6645L45.915 52.5287L58.502 53.1016L59.6906 67.3429L52.6181 71.1977C52.6181 71.1977 50.3347 69.0695 46.6806 65.6645H46.6833Z" fill="#9E5943"/>
<path d="M58.6332 56.2688L58.6412 53.3509L46.0542 52.7781L46.4986 59.7007C50.6211 60.7929 54.682 58.4505 58.6332 56.2688Z" fill="#161742"/>
<path d="M53.5095 56.1106C63.214 54.8519 70.0186 45.6401 68.708 35.5353C67.3974 25.4306 58.4679 18.2594 48.7634 19.5181C39.0589 20.7768 32.2543 29.9886 33.5649 40.0934C34.8755 50.1981 43.805 57.3693 53.5095 56.1106Z" fill="#9E5943"/>
<path d="M60.9728 34.4168C60.8952 34.4221 60.8176 34.398 60.7453 34.3391C60.6382 34.2481 58.079 32.1253 55.9 34.7193C55.7608 34.8852 55.5386 34.8719 55.3994 34.6898C55.2629 34.5078 55.2629 34.2267 55.4021 34.0607C57.988 30.9796 61.0933 33.5816 61.1227 33.6083C61.2887 33.7475 61.3342 34.0259 61.2298 34.2267C61.1709 34.3418 61.0719 34.4087 60.9702 34.4168H60.9728Z" fill="#161742"/>
<path d="M57.4339 49.6601C57.3375 49.6682 57.2385 49.636 57.1528 49.5638C57.019 49.4487 53.8334 46.8065 51.1244 50.0376C50.953 50.2464 50.6746 50.2276 50.5033 50.0001C50.332 49.7726 50.3347 49.4219 50.5087 49.2184C53.7263 45.3824 57.5919 48.6215 57.6293 48.6536C57.8355 48.8276 57.8944 49.1729 57.7632 49.4246C57.6882 49.5691 57.5678 49.6494 57.4393 49.6601H57.4339Z" fill="#161742"/>
<path d="M55.9532 37.3379C56.0282 37.3218 56.1112 37.3379 56.1888 37.3888C56.3066 37.4664 59.0987 39.2733 60.9538 36.4411C61.0716 36.2591 61.2938 36.2457 61.4544 36.4117C61.6123 36.5777 61.6444 36.8561 61.524 37.0354C59.3182 40.4003 55.9292 38.1811 55.897 38.157C55.7177 38.0366 55.6374 37.7689 55.7177 37.5547C55.7632 37.4316 55.8542 37.3566 55.9532 37.3352V37.3379Z" fill="#161742"/>
<path d="M41.7336 37.7635C41.8112 37.7635 41.8889 37.7903 41.9558 37.8519C42.0575 37.9482 44.5096 40.1969 46.8144 37.7153C46.9617 37.5547 47.1838 37.5815 47.3123 37.7689C47.4408 37.9589 47.4248 38.24 47.2775 38.3953C44.539 41.3426 41.5703 38.588 41.5408 38.5612C41.3829 38.414 41.3508 38.1329 41.4632 37.9375C41.5301 37.8251 41.6292 37.7635 41.7336 37.7608V37.7635Z" fill="#161742"/>
<path d="M46.9775 35.0486C46.8998 35.054 46.8222 35.0299 46.7499 34.971C46.6428 34.88 44.0837 32.7571 41.9047 35.3511C41.7655 35.5171 41.5433 35.5037 41.4041 35.3217C41.2675 35.1396 41.2675 34.8585 41.4067 34.6926C43.9927 31.6114 47.0979 34.2134 47.1274 34.2402C47.2933 34.3794 47.3389 34.6578 47.2345 34.8585C47.1756 34.9737 47.0765 35.0406 46.9748 35.0486H46.9775Z" fill="#161742"/>
<path d="M54.4329 41.0746C54.4489 41.6421 54.2267 42.1935 53.8413 42.6058C52.5724 43.963 50.0052 43.1251 49.9356 41.2299L54.4329 41.0746ZM54.4329 41.0746C54.4221 40.6436 53.7529 40.6436 53.7636 41.0746H54.4329Z" fill="#161742" stroke="#161742"/>
<path d="M56.2266 29.3902C54.3073 27.1737 55.0969 23.343 57.9934 20.832C60.8899 18.321 64.7955 18.0801 66.7176 20.2966C68.6369 22.5131 67.8472 26.3438 64.9508 28.8548C62.0543 31.3658 58.1487 31.6067 56.2266 29.3902Z" fill="#161742"/>
<path d="M52.1305 22.1416C50.5431 19.6761 51.8682 15.9953 55.0912 13.918C58.3143 11.8407 62.2146 12.1539 63.802 14.6194C65.3894 17.0848 64.0644 20.7656 60.8413 22.8429C57.6183 24.9203 53.718 24.6071 52.1305 22.1416Z" fill="#161742"/>
<path d="M27.4388 33.4889C26.8739 29.634 33.5957 25.1047 36.9473 24.2507C40.5263 23.3379 43.3612 22.0958 39.9321 26.1915C37.4024 29.2138 35.8818 33.2854 34.2061 40.4007C33.4137 43.7656 28.0036 37.3437 27.4388 33.4889Z" fill="#161742"/>
<path d="M70.6256 27.2136C70.125 23.3507 64.308 20.5694 61.7354 20.54C58.9889 20.5105 56.6921 19.9831 60.0757 23.1286C62.5733 25.4495 64.6024 29.0285 67.4534 35.5121C68.8026 38.5799 71.1288 31.0791 70.6282 27.2136H70.6256Z" fill="#161742"/>
<path d="M39.5544 28.7795C37.445 25.5056 39.2171 20.6041 43.5136 17.8361C47.8101 15.0682 53.0061 15.4777 55.1155 18.7516C57.225 22.0255 55.4528 26.927 51.1563 29.695C46.8598 32.4656 41.6639 32.0534 39.5544 28.7795Z" fill="#161742"/>
<path d="M31.3977 31.9973C29.9575 29.7647 31.0444 26.5042 33.8204 24.7133C36.5964 22.9224 40.0148 23.2838 41.455 25.5164C42.8952 27.749 41.8084 31.0095 39.0324 32.8004C36.2564 34.5913 32.8379 34.2299 31.3977 31.9973Z" fill="#161742"/>
<path d="M48.5543 75.0256L48.5248 75.0176C48.383 74.9774 33.9275 72.1398 30.8784 64.0448L31.296 63.9163C32.846 68.0307 37.378 70.1857 40.8795 72.006C44.5094 73.8932 48.2786 74.517 48.6212 74.6187C58.3466 74.8623 65.063 72.8064 68.9874 71.0369C73.2411 69.1176 75.2194 67.1152 75.2381 67.0938L75.57 67.3695C75.4897 67.4525 73.5329 69.4388 69.2123 71.393C65.237 73.1892 58.4322 75.2772 48.5864 75.0256H48.557H48.5543Z" fill="#161742"/>
<path d="M48.5358 75.2048C48.5358 75.2048 48.5144 75.2021 48.5064 75.1994L48.4769 75.1914C48.4769 75.1914 48.4528 75.1861 48.418 75.178C47.1492 74.905 43.8164 74.0992 40.2882 72.5279C35.1779 70.2498 31.9548 67.4176 30.7101 64.1089C30.6913 64.0633 30.694 64.0098 30.7181 63.9643C30.7422 63.9188 30.7797 63.8867 30.8278 63.8706L31.2454 63.7421C31.3365 63.7153 31.4328 63.7609 31.4676 63.8519C32.9105 67.6799 37.0598 69.8268 40.3926 71.5481C40.5853 71.6471 40.7754 71.7462 40.9654 71.8452C44.0734 73.4594 47.2803 74.1447 48.3324 74.3696C48.4876 74.4017 48.5894 74.4231 48.6483 74.4392C58.3308 74.6801 65.0124 72.6322 68.9128 70.8735C73.1129 68.9782 75.0911 66.9892 75.1099 66.9705C75.1768 66.9036 75.2812 66.8982 75.3535 66.9571L75.6854 67.2329C75.7229 67.265 75.747 67.3132 75.7497 67.3613C75.7523 67.4095 75.7336 67.4604 75.6988 67.4979C75.6158 67.5835 73.6429 69.5886 69.2849 71.5588C65.2935 73.3631 58.4593 75.4618 48.5787 75.2075H48.5492C48.5492 75.2075 48.5385 75.2075 48.5358 75.2075V75.2048ZM31.1169 64.1597C32.3778 67.2998 35.5098 70.0035 40.4354 72.1986C43.9315 73.7566 47.2348 74.5543 48.493 74.8273C48.5412 74.8381 48.568 74.8434 48.5733 74.8461H48.5787H48.5867C58.4004 75.0977 65.1757 73.0177 69.1349 71.2295C72.8372 69.5564 74.7806 67.87 75.2973 67.3828L75.2437 67.3399C74.7538 67.7977 72.7515 69.5377 69.0573 71.2054C65.1168 72.9829 58.3736 75.0469 48.6135 74.8033C48.5974 74.8033 48.5813 74.8006 48.568 74.7952C48.5278 74.7845 48.4073 74.7577 48.2521 74.7256C47.1867 74.4981 43.9449 73.8074 40.7941 72.1691C40.6067 72.0728 40.4167 71.9737 40.2239 71.872C36.8804 70.1427 32.7311 67.9985 31.1865 64.1383L31.1169 64.1597Z" fill="#161742"/>
<path d="M47.1464 85.3354H47.1384C46.8733 85.3193 46.6699 85.0918 46.6859 84.8267L47.4168 72.2745C47.4328 72.0095 47.6711 71.7927 47.9254 71.8221C48.1904 71.8382 48.3938 72.0657 48.3778 72.3308L47.647 84.883C47.6309 85.1453 47.4087 85.3461 47.1464 85.3354Z" fill="#161742"/>
<path d="M52.8671 90.3851C52.602 90.3743 52.3933 90.1495 52.404 89.8845L53.0571 73.3383C53.0678 73.0732 53.2927 72.8644 53.5577 72.8752C53.8227 72.8859 54.0315 73.1107 54.0208 73.3757L53.3677 89.9219C53.3569 90.187 53.1321 90.3958 52.8671 90.3851Z" fill="#161742"/>
<path d="M52.9312 71.3301C52.8188 71.3248 52.709 71.2819 52.6207 71.2016L42.0601 61.3612C41.8647 61.1791 41.854 60.874 42.036 60.6812C42.2181 60.4858 42.5233 60.4751 42.716 60.6571L53.2765 70.4976C53.472 70.6796 53.4827 70.9848 53.3006 71.1775C53.2016 71.2846 53.0651 71.3355 52.9285 71.3301H52.9312Z" fill="#161742"/>
<path d="M49.4914 73.6797C49.3388 73.6743 49.1916 73.594 49.1032 73.4548C48.9614 73.2299 49.0283 72.9328 49.2532 72.7909L64.8865 62.929C65.1114 62.7872 65.4085 62.8541 65.5504 63.079C65.6923 63.3038 65.6254 63.601 65.4005 63.7428L49.7671 73.6047C49.6815 73.6582 49.5851 73.6823 49.4914 73.6797Z" fill="#161742"/>
</svg>
