<svg width="228" height="242" viewBox="0 0 228 242" fill="none" xmlns="http://www.w3.org/2000/svg">
<g clip-path="url(#clip0_2_129)">
<g opacity="0.88">
<g opacity="0.54">
<path d="M79.4834 90.9252C80.3394 90.9252 81.0332 90.2312 81.0332 89.3751C81.0332 88.519 80.3394 87.825 79.4834 87.825C78.6275 87.825 77.9336 88.519 77.9336 89.3751C77.9336 90.2312 78.6275 90.9252 79.4834 90.9252Z" fill="#151842"/>
<path d="M97.3798 69.0506C97.8482 69.0506 98.2279 68.6708 98.2279 68.2024C98.2279 67.7339 97.8482 67.3541 97.3798 67.3541C96.9114 67.3541 96.5317 67.7339 96.5317 68.2024C96.5317 68.6708 96.9114 69.0506 97.3798 69.0506Z" fill="#151842"/>
<path d="M101.444 78.6255C102.184 78.6255 102.783 78.0255 102.783 77.2855C102.783 76.5455 102.184 75.9456 101.444 75.9456C100.704 75.9456 100.104 76.5455 100.104 77.2855C100.104 78.0255 100.704 78.6255 101.444 78.6255Z" fill="#151842"/>
<path d="M140.092 85.8507C140.639 85.8507 141.082 85.407 141.082 84.8598C141.082 84.3125 140.639 83.8689 140.092 83.8689C139.545 83.8689 139.101 84.3125 139.101 84.8598C139.101 85.407 139.545 85.8507 140.092 85.8507Z" fill="#151842"/>
<path d="M116.612 89.0936C117.026 89.0936 117.362 88.7575 117.362 88.3429C117.362 87.9283 117.026 87.5922 116.612 87.5922C116.197 87.5922 115.861 87.9283 115.861 88.3429C115.861 88.7575 116.197 89.0936 116.612 89.0936Z" fill="#151842"/>
<path d="M94.5351 95.418C94.9766 95.418 95.3344 95.0601 95.3344 94.6185C95.3344 94.177 94.9766 93.8191 94.5351 93.8191C94.0937 93.8191 93.7358 94.177 93.7358 94.6185C93.7358 95.0601 94.0937 95.418 94.5351 95.418Z" fill="#151842"/>
<path d="M74.6392 71.3214C75.205 71.3214 75.6637 70.8626 75.6637 70.2967C75.6637 69.7308 75.205 69.2721 74.6392 69.2721C74.0734 69.2721 73.6147 69.7308 73.6147 70.2967C73.6147 70.8626 74.0734 71.3214 74.6392 71.3214Z" fill="#151842"/>
<path d="M52.9528 47.0597C53.6285 47.0597 54.1762 46.5119 54.1762 45.8361C54.1762 45.1603 53.6285 44.6125 52.9528 44.6125C52.2772 44.6125 51.7295 45.1603 51.7295 45.8361C51.7295 46.5119 52.2772 47.0597 52.9528 47.0597Z" fill="#151842"/>
<path d="M111.298 93.3649C111.663 93.3649 111.959 93.0691 111.959 92.7043C111.959 92.3395 111.663 92.0437 111.298 92.0437C110.933 92.0437 110.638 92.3395 110.638 92.7043C110.638 93.0691 110.933 93.3649 111.298 93.3649Z" fill="#151842"/>
<path d="M81.9005 35.5481C82.3793 35.5481 82.7674 35.1599 82.7674 34.6811C82.7674 34.2022 82.3793 33.8141 81.9005 33.8141C81.4218 33.8141 81.0337 34.2022 81.0337 34.6811C81.0337 35.1599 81.4218 35.5481 81.9005 35.5481Z" fill="#151842"/>
<path d="M87.1463 1.3437C87.5173 1.3437 87.818 1.04291 87.818 0.671852C87.818 0.300798 87.5173 0 87.1463 0C86.7753 0 86.4746 0.300798 86.4746 0.671852C86.4746 1.04291 86.7753 1.3437 87.1463 1.3437Z" fill="#151842"/>
<path d="M109.906 51.0908C110.548 51.0908 111.069 50.5698 111.069 49.9272C111.069 49.2846 110.548 48.7637 109.906 48.7637C109.264 48.7637 108.743 49.2846 108.743 49.9272C108.743 50.5698 109.264 51.0908 109.906 51.0908Z" fill="#151842"/>
<path d="M70.8151 49.9272C71.1363 49.9272 71.3967 49.6667 71.3967 49.3454C71.3967 49.0241 71.1363 48.7637 70.8151 48.7637C70.4938 48.7637 70.2334 49.0241 70.2334 49.3454C70.2334 49.6667 70.4938 49.9272 70.8151 49.9272Z" fill="#151842"/>
<path d="M125.888 84.3606C126.433 84.3606 126.875 83.9186 126.875 83.3735C126.875 82.8283 126.433 82.3863 125.888 82.3863C125.343 82.3863 124.901 82.8283 124.901 83.3735C124.901 83.9186 125.343 84.3606 125.888 84.3606Z" fill="#151842"/>
<path d="M61.595 87.0555C62.0717 87.0555 62.4581 86.669 62.4581 86.1922C62.4581 85.7155 62.0717 85.3289 61.595 85.3289C61.1184 85.3289 60.7319 85.7155 60.7319 86.1922C60.7319 86.669 61.1184 87.0555 61.595 87.0555Z" fill="#151842"/>
</g>
<g opacity="0.54">
<path d="M59.0507 161.372C59.5191 161.372 59.8988 160.992 59.8988 160.524C59.8988 160.055 59.5191 159.676 59.0507 159.676C58.5823 159.676 58.2026 160.055 58.2026 160.524C58.2026 160.992 58.5823 161.372 59.0507 161.372Z" fill="#151842"/>
<path d="M11.3555 202.013C11.77 202.013 12.106 201.677 12.106 201.263C12.106 200.848 11.77 200.512 11.3555 200.512C10.941 200.512 10.605 200.848 10.605 201.263C10.605 201.677 10.941 202.013 11.3555 202.013Z" fill="#151842"/>
<path d="M59.0509 179.373C59.5234 179.373 59.9065 178.99 59.9065 178.517C59.9065 178.045 59.5234 177.662 59.0509 177.662C58.5784 177.662 58.1953 178.045 58.1953 178.517C58.1953 178.99 58.5784 179.373 59.0509 179.373Z" fill="#151842"/>
<path d="M56.833 194.601C57.2744 194.601 57.6323 194.243 57.6323 193.801C57.6323 193.36 57.2744 193.002 56.833 193.002C56.3915 193.002 56.0337 193.36 56.0337 193.801C56.0337 194.243 56.3915 194.601 56.833 194.601Z" fill="#151842"/>
<path d="M12.3833 182.124C12.9491 182.124 13.4078 181.666 13.4078 181.1C13.4078 180.534 12.9491 180.075 12.3833 180.075C11.8176 180.075 11.3589 180.534 11.3589 181.1C11.3589 181.666 11.8176 182.124 12.3833 182.124Z" fill="#151842"/>
<path d="M78.2151 169.607C78.5799 169.607 78.8756 169.311 78.8756 168.946C78.8756 168.582 78.5799 168.286 78.2151 168.286C77.8504 168.286 77.5547 168.582 77.5547 168.946C77.5547 169.311 77.8504 169.607 78.2151 169.607Z" fill="#151842"/>
<path d="M43.5749 127.87C44.0536 127.87 44.4417 127.481 44.4417 127.003C44.4417 126.524 44.0536 126.135 43.5749 126.135C43.0961 126.135 42.708 126.524 42.708 127.003C42.708 127.481 43.0961 127.87 43.5749 127.87Z" fill="#151842"/>
<path d="M63.7865 131.341C64.1574 131.341 64.4582 131.041 64.4582 130.67C64.4582 130.299 64.1574 129.998 63.7865 129.998C63.4155 129.998 63.1147 130.299 63.1147 130.67C63.1147 131.041 63.4155 131.341 63.7865 131.341Z" fill="#151842"/>
<path d="M22.1666 225.87C22.4878 225.87 22.7483 225.609 22.7483 225.288C22.7483 224.967 22.4878 224.706 22.1666 224.706C21.8454 224.706 21.585 224.967 21.585 225.288C21.585 225.609 21.8454 225.87 22.1666 225.87Z" fill="#151842"/>
<path d="M67.8731 190.13C68.4389 190.13 68.8976 189.672 68.8976 189.106C68.8976 188.54 68.4389 188.081 67.8731 188.081C67.3073 188.081 66.8486 188.54 66.8486 189.106C66.8486 189.672 67.3073 190.13 67.8731 190.13Z" fill="#151842"/>
<path d="M31.6754 168.308C32.2205 168.308 32.6623 167.866 32.6623 167.321C32.6623 166.776 32.2205 166.334 31.6754 166.334C31.1303 166.334 30.6885 166.776 30.6885 167.321C30.6885 167.866 31.1303 168.308 31.6754 168.308Z" fill="#151842"/>
<path d="M0.863096 170.136C1.33977 170.136 1.72619 169.75 1.72619 169.273C1.72619 168.796 1.33977 168.41 0.863096 168.41C0.386421 168.41 0 168.796 0 169.273C0 169.75 0.386421 170.136 0.863096 170.136Z" fill="#151842"/>
</g>
<g opacity="0.54">
<path d="M173.437 203.95C173.906 203.95 174.286 203.57 174.286 203.102C174.286 202.633 173.906 202.254 173.437 202.254C172.969 202.254 172.589 202.633 172.589 203.102C172.589 203.57 172.969 203.95 173.437 203.95Z" fill="#151842"/>
<path d="M200.82 205.163C201.367 205.163 201.811 204.719 201.811 204.172C201.811 203.624 201.367 203.181 200.82 203.181C200.273 203.181 199.83 203.624 199.83 204.172C199.83 204.719 200.273 205.163 200.82 205.163Z" fill="#151842"/>
<path d="M149.672 241.915C150.087 241.915 150.423 241.579 150.423 241.165C150.423 240.75 150.087 240.414 149.672 240.414C149.258 240.414 148.922 240.75 148.922 241.165C148.922 241.579 149.258 241.915 149.672 241.915Z" fill="#151842"/>
<path d="M189.788 228.396C190.26 228.396 190.643 228.013 190.643 227.54C190.643 227.067 190.26 226.684 189.788 226.684C189.315 226.684 188.932 227.067 188.932 227.54C188.932 228.013 189.315 228.396 189.788 228.396Z" fill="#151842"/>
<path d="M171.22 237.179C171.661 237.179 172.019 236.821 172.019 236.379C172.019 235.938 171.661 235.58 171.22 235.58C170.778 235.58 170.42 235.938 170.42 236.379C170.42 236.821 170.778 237.179 171.22 237.179Z" fill="#151842"/>
<path d="M150.697 206.221C151.263 206.221 151.721 205.762 151.721 205.196C151.721 204.63 151.263 204.172 150.697 204.172C150.131 204.172 149.672 204.63 149.672 205.196C149.672 205.762 150.131 206.221 150.697 206.221Z" fill="#151842"/>
<path d="M161.981 198.677C162.656 198.677 163.204 198.129 163.204 197.453C163.204 196.777 162.656 196.23 161.981 196.23C161.305 196.23 160.757 196.777 160.757 197.453C160.757 198.129 161.305 198.677 161.981 198.677Z" fill="#151842"/>
<path d="M192.602 212.185C192.967 212.185 193.262 211.889 193.262 211.525C193.262 211.16 192.967 210.864 192.602 210.864C192.237 210.864 191.941 211.16 191.941 211.525C191.941 211.889 192.237 212.185 192.602 212.185Z" fill="#151842"/>
<path d="M157.958 170.448C158.437 170.448 158.825 170.06 158.825 169.581C158.825 169.102 158.437 168.714 157.958 168.714C157.479 168.714 157.091 169.102 157.091 169.581C157.091 170.06 157.479 170.448 157.958 170.448Z" fill="#151842"/>
<path d="M178.173 173.92C178.544 173.92 178.845 173.619 178.845 173.248C178.845 172.877 178.544 172.576 178.173 172.576C177.802 172.576 177.501 172.877 177.501 173.248C177.501 173.619 177.802 173.92 178.173 173.92Z" fill="#151842"/>
<path d="M146.877 184.827C147.198 184.827 147.458 184.566 147.458 184.245C147.458 183.924 147.198 183.663 146.877 183.663C146.555 183.663 146.295 183.924 146.295 184.245C146.295 184.566 146.555 184.827 146.877 184.827Z" fill="#151842"/>
<path d="M182.26 232.708C182.826 232.708 183.284 232.25 183.284 231.684C183.284 231.118 182.826 230.659 182.26 230.659C181.694 230.659 181.235 231.118 181.235 231.684C181.235 232.25 181.694 232.708 182.26 232.708Z" fill="#151842"/>
<path d="M158.945 237.179C159.49 237.179 159.932 236.737 159.932 236.192C159.932 235.646 159.49 235.204 158.945 235.204C158.4 235.204 157.958 235.646 157.958 236.192C157.958 236.737 158.4 237.179 158.945 237.179Z" fill="#151842"/>
<path d="M143.773 227.604C144.25 227.604 144.636 227.217 144.636 226.741C144.636 226.264 144.25 225.877 143.773 225.877C143.297 225.877 142.91 226.264 142.91 226.741C142.91 227.217 143.297 227.604 143.773 227.604Z" fill="#151842"/>
</g>
</g>
<path d="M189.525 192.731L168.375 149.245L159.365 192.731H189.525Z" fill="#FFD327"/>
<path d="M227.906 155.603L205.192 141.674L227.876 182.699L227.906 155.603Z" fill="#FFD327"/>
<path d="M227.738 131.424L216.378 127.239L227.876 140.774L227.738 131.424Z" fill="#FFD327"/>
<path d="M227.876 112.252L216.254 114.804L228 123.561L227.876 112.252Z" fill="#FFD327"/>
<path d="M227.126 192.731L189.525 151.598L196.966 192.731H227.126Z" fill="#FFD327"/>
<path d="M45.354 74.2903L88.8315 95.4443L45.354 104.452V74.2903Z" fill="#FFD327"/>
<path d="M82.4747 35.8972L96.4006 58.62L55.3848 35.9272L82.4747 35.8972Z" fill="#FFD327"/>
<path d="M106.649 36.0698L110.833 47.4275L97.3013 35.9272L106.649 36.0698Z" fill="#FFD327"/>
<path d="M125.817 35.9272L123.266 47.5514L114.511 35.8033L125.817 35.9272Z" fill="#FFD327"/>
<path d="M45.354 36.6816L86.4787 74.2903L45.354 66.8474V36.6816Z" fill="#FFD327"/>
<path d="M105.797 40.8816C106.379 40.2398 107.384 39.6843 108.049 40.236C108.293 40.4387 108.42 40.7428 108.533 41.0393C109.4 43.3213 110.424 46.4028 110.086 48.88C109.839 50.6892 107.869 53.7969 105.636 52.1868C102.146 49.6682 103.354 43.5878 105.801 40.8816H105.797Z" fill="#1E3B6E"/>
<path d="M99.0724 53.0688C98.6784 52.6747 98.3556 52.0104 98.7309 51.5975C98.8697 51.4474 99.0686 51.376 99.26 51.3122C100.757 50.8281 102.769 50.2688 104.352 50.5691C105.508 50.7868 107.441 52.153 106.334 53.538C104.604 55.6999 100.731 54.7278 99.0724 53.0651V53.0688Z" fill="#1E3B6E"/>
<path d="M148.486 45.0929C147.342 44.0082 146.04 43.0436 144.527 42.2328C141.773 40.754 138.756 39.8307 135.735 39.0838C131.089 37.9353 126.173 38.3218 121.704 39.6168C107.966 43.5916 99.7138 57.0249 95.5897 69.8013C95.4996 70.079 95.4095 70.3756 95.4958 70.6533C95.7998 71.6367 97.237 72.2222 97.8187 73.0405C98.3366 73.7686 98.4604 74.6169 98.9144 75.3713C99.9802 77.1354 101.89 78.2126 103.785 78.8657C107.425 80.1155 111.324 79.7665 115.039 80.581C124.616 82.5627 134.354 83.2158 143.919 85.1863C146.921 85.8056 150.051 86.4174 152.971 85.3627C156.348 84.1429 161.365 81.1064 162.739 76.7563C163.144 75.4726 163.234 74.0689 162.866 72.5675C162.337 70.3981 161.241 68.5026 160.168 66.6522C156.051 59.5734 154.445 50.7267 148.49 45.0854L148.486 45.0929Z" fill="#1E3B6E"/>
<path d="M127.667 75.3863C135.393 75.3863 141.657 68.3957 141.657 59.7723C141.657 51.1489 135.393 44.1583 127.667 44.1583C119.941 44.1583 113.677 51.1489 113.677 59.7723C113.677 68.3957 119.941 75.3863 127.667 75.3863Z" fill="#161742"/>
<path d="M127.667 73.5021C134.46 73.5021 139.968 67.3551 139.968 59.7723C139.968 52.1896 134.46 46.0425 127.667 46.0425C120.873 46.0425 115.366 52.1896 115.366 59.7723C115.366 67.3551 120.873 73.5021 127.667 73.5021Z" fill="#F5F5F5"/>
<path d="M124.582 65.0157C128.305 65.0157 131.322 61.9977 131.322 58.2747C131.322 54.5517 128.305 51.5337 124.582 51.5337C120.86 51.5337 117.843 54.5517 117.843 58.2747C117.843 61.9977 120.86 65.0157 124.582 65.0157Z" fill="#161742"/>
<path d="M119.34 59.0441C120.339 59.0441 121.149 58.2342 121.149 57.235C121.149 56.2359 120.339 55.4259 119.34 55.4259C118.341 55.4259 117.531 56.2359 117.531 57.235C117.531 58.2342 118.341 59.0441 119.34 59.0441Z" fill="#F5F5F5"/>
<path d="M151.158 72.6989C151.38 72.7439 151.646 72.7439 151.972 72.6876C152.659 72.5675 153.278 72.2147 153.879 71.8694C155.417 70.9836 156.96 70.094 158.498 69.2083C158.941 68.953 159.399 68.6865 159.71 68.2737C161.163 66.3557 158.78 59.4983 155.774 60.294C153.62 60.8608 152.547 64.8131 151.807 66.5922C151.259 67.9096 149.124 72.286 151.162 72.7026L151.158 72.6989Z" fill="#161742"/>
<path d="M151.143 74.0276C153.432 76.5123 159.342 78.0362 161.778 78.6367C163.024 78.9445 168.63 79.9429 169.542 78.4565C169.643 78.2914 169.553 78.0812 169.463 77.9123C166.806 72.8978 163.346 69.3359 159.579 65.256C159.361 65.0233 159.129 64.7793 158.825 64.693C157.309 64.2651 153.837 67.2753 152.749 68.2211C151.023 69.7225 149.184 71.8994 151.147 74.0276H151.143Z" fill="#FFD327"/>
<path d="M151.987 217.556C153.597 217.597 155.241 217.646 156.749 218.202C156.321 217.117 155.837 216.051 155.308 215.011C155.12 214.644 154.922 214.272 154.614 213.998C154.355 213.765 154.028 213.615 153.694 213.506C150.565 212.519 148.171 215.24 146.793 217.661C148.523 217.691 150.257 217.511 151.987 217.556Z" fill="#E3B829"/>
<path d="M112.968 206.42C112.863 207.696 112.934 208.984 113.178 210.241C113.223 210.474 113.283 210.721 113.463 210.871C113.666 211.044 113.959 211.048 114.225 211.044C115.235 211.025 116.24 211.007 117.25 210.984C117.704 209.415 117.993 207.797 118.109 206.165C116.57 206.153 115.036 206.146 113.497 206.135" fill="#E3B829"/>
<path d="M122.413 205.59C122.308 207.366 122.379 209.16 122.623 210.909C122.668 211.232 122.728 211.577 122.909 211.787C123.111 212.027 123.404 212.035 123.67 212.027C124.68 212.001 125.686 211.975 126.695 211.945C127.149 209.76 127.438 207.505 127.554 205.238C126.016 205.223 124.481 205.211 122.942 205.196" fill="#E3B829"/>
<path d="M104.01 214.471C103.463 215.098 103.053 215.826 103.192 216.685C103.549 218.877 105.328 219.088 107.148 218.228C109.515 217.106 111.508 215.668 114.157 215.293C116.994 214.891 119.377 215.559 122.105 216.269C124.177 216.809 126.256 217.331 128.323 217.898C129.385 218.19 130.444 218.495 131.498 218.817C132.174 219.024 133.393 219.849 134.069 219.373C135.209 218.57 131.138 215.83 134.166 216.25C136.335 216.554 138.455 217.455 140.482 218.367C141.551 218.847 142.621 219.328 143.683 219.827C144.538 220.232 145.765 221.167 146.745 220.968C147.799 220.75 147.334 219.666 147.417 218.802C147.492 218.029 147.597 217.26 147.874 216.528C148.422 215.094 149.758 214.174 151.259 213.983C154.047 213.63 155.245 215.405 156.231 217.676C156.509 218.318 157.672 218.727 158.044 217.898C158.337 217.252 157.256 215.447 156.937 214.903C156.243 213.716 155.233 212.714 153.972 212.144C153.282 211.829 152.516 211.652 151.773 211.521C150.314 211.262 148.824 211.239 147.345 211.175C144.692 211.063 142.039 211.179 139.386 211.209C134.136 211.266 128.969 211.525 123.73 211.6C121.828 211.626 119.824 211.434 118.218 210.316C118.041 210.192 117.861 210.053 117.651 209.997C117.486 209.952 117.313 209.963 117.144 209.971C115.617 210.053 113.474 209.745 112.187 210.616C111.699 210.947 111.212 211.277 110.724 211.603C109.02 212.756 106.709 213.06 104.81 213.844C104.532 213.957 104.258 214.182 104.007 214.467L104.01 214.471Z" fill="#FFD327"/>
<path d="M191.773 123.538C192.872 131.431 193.829 139.246 192.332 147.094C191.123 153.43 189.656 159.758 187.194 165.737C184.699 171.795 181.19 177.399 176.83 182.29C172.435 187.221 167.816 191.913 162.06 195.272C157.62 197.862 153.087 200.692 148.228 202.438C143.368 204.183 138.328 204.618 133.6 205.407C123.4 207.111 112.878 207.238 102.66 205.609C85.4504 202.865 62.6084 193.636 53.6397 175.338C45.5866 158.91 47.3578 136.694 51.6395 119.252C56.1464 100.898 68.1359 85.8394 82.8311 77.0077C88.2536 73.746 94.224 71.1262 100.333 69.4409C113.58 65.7889 127.693 65.4511 141.139 68.2098C150.749 70.1804 160.228 73.9825 167.861 80.2506C180.886 90.944 189.453 106.903 191.765 123.534L191.773 123.538Z" fill="#1E488E" stroke="#171844" stroke-width="0.75" stroke-miterlimit="10"/>
<path d="M189.026 107.065C186.905 107.5 184.74 110.379 183.209 111.756C178.252 116.215 173.422 120.716 168.338 125.208C162.63 130.253 134.118 154.785 134.418 155.513C134.639 156.05 135.622 156.207 135.986 156.665C136.523 157.348 137.093 158.013 137.69 158.67C138.242 159.278 138.035 162.382 138.343 163.084C139.3 162.359 140.047 161.691 140.891 160.974C143.927 158.636 146.479 156.335 149.203 153.989C155.324 148.716 162.063 141.025 168.041 135.763C172.897 131.488 177.742 127.201 182.582 122.911C185.701 120.145 191.645 117.18 190.407 112.402C189.945 110.623 189.483 108.844 189.022 107.065H189.026Z" fill="#25C4F0"/>
<path d="M147.098 185.127C146.193 186.347 142.962 186.666 141.6 187.023C138.388 187.863 135.108 188.4 131.832 188.937C130.778 189.109 129.723 189.282 128.669 189.455C126.796 189.763 124.927 190.067 123.055 190.374C119.843 190.9 119.31 187.927 118.507 185.465C117.835 183.404 116.803 181.329 116.112 179.366C115.685 178.146 115.287 177.575 116.593 177.016C117.445 176.652 118.255 176.262 119.062 175.755C125.325 171.814 131.629 168.207 137.288 163.444C138.181 162.69 139.093 161.935 139.949 161.139C140.17 160.933 142.309 159.39 142.399 159.679C142.763 160.899 143.015 162.149 143.236 163.403C143.345 164.029 143.405 164.686 143.555 165.306C143.698 165.895 143.878 166.454 143.96 167.073C143.983 167.25 144.006 167.426 144.032 167.603C144.084 168.008 144.114 168.436 144.212 168.834C144.294 169.179 144.493 169.502 144.55 169.851C144.625 170.328 144.628 170.71 144.786 171.187C144.985 171.784 145.034 172.362 145.146 172.974C145.248 173.529 145.409 174.073 145.525 174.625C145.634 175.128 145.627 175.624 145.747 176.123C145.848 176.547 145.961 176.975 146.039 177.406C146.201 178.285 146.43 179.163 146.561 180.041C146.617 180.42 146.64 180.796 146.711 181.182C146.891 182.143 147.008 183.115 147.282 184.054C147.405 184.478 147.323 184.831 147.101 185.131L147.098 185.127Z" fill="#25C4F0"/>
<path d="M151.582 178.818L147.206 184.924L142.399 159.679L148.043 154.995L151.582 178.818Z" fill="#00A7CA"/>
<path d="M132.222 183.994L106.971 177.283L142.399 159.679L132.222 183.994Z" fill="#67CCEC"/>
<path d="M136.545 165.992C130.008 173.98 121.839 180.503 113.05 185.851C104.187 191.245 89.5555 201.282 78.7555 197.757C72.909 195.85 70.755 192.619 64.6345 197.108C60.3153 200.276 55.2943 206.259 50.0069 207.655C43.6087 209.344 45.41 204.416 45.8153 200.204C40.6967 202.456 35.0791 204.449 29.3451 203.192C14.7926 199.994 22.7256 185.821 28.6397 178.544C32.5724 173.706 37.5333 168.792 38.5127 162.34C39.8524 153.513 38.7491 144.482 40.3102 135.714C42.164 125.283 46.7984 115.194 52.9227 106.599C58.5891 98.6496 65.4976 90.107 73.3856 84.2893C79.8438 79.5262 92.6926 76.6774 100.783 76.2796C111.208 75.7654 123.01 78.9782 131.517 85.0437C141.439 92.1188 147.578 103.161 149.676 115.052C153.297 135.56 147.601 152.484 136.542 165.996L136.545 165.992Z" fill="#1E3B6E"/>
<path d="M46.9298 191.564C45.744 189.215 47.9055 186.921 47.8755 184.41C47.838 180.946 45.9654 178.09 44.4231 175.113C37.4395 161.665 39.3308 140.77 43.2073 126.53C47.4514 110.949 56.4989 97.0019 69.543 87.382C76.0012 82.619 88.8463 79.7702 96.9406 79.3724C111.095 78.6742 124.751 85.0287 132.71 96.878C146.066 116.767 143.653 147.961 127.438 165.238C121.501 171.562 114.263 176.791 106.517 180.687C93.5408 187.21 79.1984 190.367 64.8672 192.108C60.7431 192.611 50.386 196.556 47.215 192.03C47.1062 191.872 47.0124 191.718 46.9336 191.56L46.9298 191.564Z" fill="#1E488E"/>
<path d="M138.636 91.9349C142.767 95.5268 145.484 101.011 147.379 106.119C148.768 109.861 149.743 113.749 150.273 117.705C150.772 121.433 151.259 125.516 151.094 129.258" stroke="#231F20" stroke-width="0.75" stroke-miterlimit="10"/>
<path d="M78.5679 198.099C82.418 198.786 86.377 198.414 90.1371 197.412C95.0117 196.113 99.7362 194.218 104.074 191.665C114.349 185.626 123.817 179.719 132.264 170.755" stroke="#231F20" stroke-width="0.75" stroke-miterlimit="10"/>
<path d="M40.7456 162.494C41.0721 166.567 42.9108 170.339 44.4757 174.115C46.0405 177.891 47.3764 181.989 46.6259 186.005C46.367 187.394 45.8604 188.76 45.9542 190.168C46.063 191.853 47.1025 193.452 48.596 194.237C50.0896 195.025 51.9921 194.972 53.4444 194.109" stroke="#231F20" stroke-width="0.75" stroke-miterlimit="10"/>
<path d="M174.117 130.125C176.147 128.564 178.124 126.931 180.08 125.276C184.054 121.909 187.93 118.426 191.96 115.127" stroke="#171844" stroke-width="0.75" stroke-miterlimit="10"/>
<path d="M100.438 183.517C103.564 182.976 106.431 181.569 109.151 179.985C110.442 179.234 114.315 178.54 115.159 177.53C116.004 176.521 116.049 174.22 114.09 175.192C109.928 177.264 105.065 177.41 102.768 172.925C98.2915 164.191 102.498 153.558 101.095 143.844C100.997 143.172 100.866 142.481 100.479 141.922C99.4623 140.451 97.252 140.545 95.5634 141.134C92.3024 142.267 89.593 144.576 86.5271 146.167C83.4612 147.759 79.5398 148.551 76.6728 146.621C74.9579 145.465 73.9409 143.551 72.9953 141.712C70.6987 137.253 68.3983 132.794 66.1018 128.335C63.6626 123.598 60.4203 118.317 54.555 117.994C51.8231 117.844 49.3389 117.488 47.1737 119.361C44.8133 121.399 43.6312 124.416 42.7794 127.333C41.4322 131.942 40.374 136.457 40.07 141.247C40.0212 142.012 39.9649 142.77 39.9199 143.536C39.7848 145.683 40.3327 147.5 41.5898 149.282C43.0308 151.332 45.6839 152.676 48.0931 151.996C51.7744 150.956 53.7069 145.829 57.5308 145.946C60.5404 146.036 62.3266 149.478 62.4918 152.488C62.6531 155.494 61.8763 158.587 62.7094 161.481C64.2592 166.852 72.0271 169.123 76.2225 165.426C78.1701 163.71 79.6599 160.918 82.2567 160.828C84.9323 160.734 86.696 163.763 86.8086 166.435C86.9211 169.108 86.028 171.773 86.3132 174.434C86.9812 180.679 94.2537 184.598 100.442 183.528L100.438 183.517Z" fill="#1E3B6E"/>
<path d="M176.841 126.027H133.311C132.011 126.027 130.958 127.08 130.958 128.38V156.065C130.958 157.365 132.011 158.418 133.311 158.418H176.841C178.14 158.418 179.194 157.365 179.194 156.065V128.38C179.194 127.08 178.14 126.027 176.841 126.027Z" fill="#FFF4EC"/>
<path d="M156.836 143.363H175.505V129.908H156.836V143.363Z" fill="#EBE1DB"/>
<path d="M153.241 130.103H137.487C136.936 130.103 136.489 130.55 136.489 131.101V131.424C136.489 131.975 136.936 132.422 137.487 132.422H153.241C153.792 132.422 154.239 131.975 154.239 131.424V131.101C154.239 130.55 153.792 130.103 153.241 130.103Z" fill="#EBE1DB"/>
<path d="M153.241 135.71H137.487C136.936 135.71 136.489 136.157 136.489 136.709V137.032C136.489 137.583 136.936 138.03 137.487 138.03H153.241C153.792 138.03 154.239 137.583 154.239 137.032V136.709C154.239 136.157 153.792 135.71 153.241 135.71Z" fill="#EBE1DB"/>
<path d="M153.241 140.924H137.487C136.936 140.924 136.489 141.371 136.489 141.922V142.245C136.489 142.796 136.936 143.243 137.487 143.243H153.241C153.792 143.243 154.239 142.796 154.239 142.245V141.922C154.239 141.371 153.792 140.924 153.241 140.924Z" fill="#EBE1DB"/>
<path d="M174.503 146.321H137.487C136.936 146.321 136.489 146.768 136.489 147.32V147.642C136.489 148.194 136.936 148.641 137.487 148.641H174.503C175.054 148.641 175.501 148.194 175.501 147.642V147.32C175.501 146.768 175.054 146.321 174.503 146.321Z" fill="#EBE1DB"/>
<path d="M174.503 151.332H137.487C136.936 151.332 136.489 151.779 136.489 152.33V152.653C136.489 153.204 136.936 153.651 137.487 153.651H174.503C175.054 153.651 175.501 153.204 175.501 152.653V152.33C175.501 151.779 175.054 151.332 174.503 151.332Z" fill="#EBE1DB"/>
<path d="M205.323 77.4394C212.975 77.4394 219.178 71.2352 219.178 63.582C219.178 55.9287 212.975 49.7245 205.323 49.7245C197.672 49.7245 191.469 55.9287 191.469 63.582C191.469 71.2352 197.672 77.4394 205.323 77.4394Z" fill="#EF3E4D"/>
<path d="M209.357 58.2559C206.877 60.7369 204.396 63.2179 201.916 65.6988C201.563 66.0517 201.21 66.4045 200.858 66.7573C200.336 67.279 200.298 68.2324 200.858 68.7466C201.417 69.2608 202.291 69.3021 202.846 68.7466C205.327 66.2656 207.807 63.7846 210.288 61.3037C210.641 60.9508 210.993 60.598 211.346 60.2452C211.868 59.7235 211.905 58.7701 211.346 58.2559C210.787 57.7417 209.913 57.7004 209.357 58.2559Z" fill="#FFF4EC"/>
<path d="M200.745 60.2903C203.199 62.745 205.653 65.1997 208.108 67.6544C208.457 68.0034 208.806 68.3525 209.155 68.7016C209.676 69.2233 210.629 69.2608 211.143 68.7016C211.657 68.1423 211.699 67.2678 211.143 66.7123C208.689 64.2576 206.235 61.8029 203.781 59.3482C203.432 58.9991 203.083 58.6501 202.734 58.301C202.212 57.7793 201.259 57.7417 200.745 58.301C200.231 58.8602 200.19 59.7348 200.745 60.2903Z" fill="#FFF4EC"/>
<path d="M166.627 151.94C166.401 151.636 166.18 151.313 166.097 150.941C166.015 150.57 166.109 150.138 166.413 149.909C166.769 149.639 167.28 149.737 167.692 149.909C168.548 150.266 169.437 150.637 170.315 150.934C172.229 151.58 174.271 151.932 176.29 151.658C175.325 151.79 172.852 149.609 172.087 149.046C169.846 147.398 166.48 144.602 165.613 141.885C165.268 140.8 165.557 140.173 166.127 139.94C166.698 139.708 167.587 139.88 168.39 140.402C171.441 142.391 174.289 142.166 177.614 140.807C178.406 140.481 179.183 140.117 179.941 139.711C179.941 139.554 181.536 138.803 181.742 138.6C182.384 137.97 183.093 137.422 183.798 136.866C184.38 136.405 184.905 135.875 185.416 135.335C185.922 134.802 186.448 134.288 186.947 133.744C188.602 131.927 189.375 129.574 189.769 127.194C190.035 125.584 189.926 123.985 190.058 122.363C190.114 121.65 189.904 120.885 189.87 120.164C189.833 119.364 189.743 118.569 189.622 117.777C189.375 116.189 188.992 114.624 188.583 113.074C188.061 111.096 187.51 109.11 186.707 107.226C185.735 104.94 184.74 102.696 183.757 100.421C183.494 99.8094 183.284 99.1714 183.014 98.5558C182.973 98.462 182.744 97.7526 182.703 97.7451C183.029 97.8164 183.615 97.7751 183.971 97.7638C185.277 97.7226 186.587 97.64 187.896 97.7376C189.401 97.8502 190.895 98.1091 192.358 98.4732C195.24 99.1901 198.017 100.294 200.689 101.574C200.741 101.6 200.805 101.622 200.858 101.656C207.699 104.963 214.213 109.227 219.065 115.071C223.921 120.915 226.995 128.481 226.39 136.056C225.816 143.255 221.981 149.913 216.851 154.995C210.877 160.914 202.787 164.187 194.456 164.791C190.264 165.095 186.001 164.893 181.892 163.996C178.89 163.339 174.496 162.603 172.158 160.479C169.46 158.032 175.989 159.011 176.777 159.011C173.374 157.964 168.758 154.807 166.63 151.944L166.627 151.94Z" fill="#1E488E"/>
<path d="M210.967 111.505C211.061 111.76 211.147 112.019 211.226 112.278C212.746 117.349 211.89 123.013 209.492 127.671C207.485 131.578 203.642 134.408 199.818 136.378C194.459 139.141 188.729 140.428 182.744 140.781C182.001 140.826 181.254 140.845 180.507 140.807C180.076 140.785 178.691 140.361 178.361 140.526C181.697 138.863 184.282 136.457 186.917 133.856C189.27 131.533 189.881 127.472 190.009 124.274C190.039 123.553 190.103 122.833 190.129 122.108C190.148 121.605 190.148 121.102 190.106 120.596C189.998 119.319 189.724 118.028 189.574 116.778C189.472 115.949 189.322 115.123 189.067 114.327C188.861 113.689 188.801 113.048 188.598 112.413C188.373 111.719 188.065 111.058 187.847 110.36C187.566 109.452 187.36 108.543 186.999 107.658C186.635 106.757 186.223 105.875 185.832 104.985C185.637 104.535 185.442 104.085 185.198 103.657C184.95 103.225 184.815 102.711 184.613 102.257C184.264 101.487 184.008 100.673 183.644 99.9033C183.386 99.3515 182.909 98.5521 182.774 97.9853C182.751 97.8652 187.097 97.7714 187.435 97.7714C189.825 97.7601 192.174 98.3006 194.426 99.055C196.745 99.832 199.03 100.725 201.244 101.769C203.901 103.015 206.453 104.359 208.246 106.742C209.346 108.206 210.333 109.771 210.967 111.494V111.505Z" fill="#1E3B6E"/>
<path d="M193.683 139.081C195.533 138.428 197.45 137.917 199.21 137.035C200.97 136.153 202.711 134.933 204.291 133.684C207.346 131.259 209.654 128.076 210.779 124.323C211.868 120.697 212.142 116.831 211.162 113.145C210.415 110.345 208.926 107.076 206.64 105.053" stroke="#231F20" stroke-width="0.75" stroke-miterlimit="10"/>
<path d="M194.654 164.637C192.846 164.773 191.033 164.866 189.217 164.885C185.858 164.923 182.455 164.731 179.183 163.939C177.633 163.564 176.109 163.05 174.691 162.314C173.914 161.913 171.062 160.651 171.606 159.432C171.741 159.131 172.101 159.011 172.424 158.94C173.268 158.756 174.12 158.872 174.965 158.951C175.621 159.011 176.237 158.985 176.901 159.101C175.948 158.516 174.987 158.11 173.981 157.641C173.04 157.202 172.131 156.684 171.235 156.162C169.422 155.111 167.812 153.753 166.585 152.045C166.131 151.411 165.775 150.596 166.36 150.078" stroke="#231F20" stroke-width="0.75" stroke-miterlimit="10"/>
<path d="M116.503 174.603C109.992 178.9 102.885 175.958 101.2 168.432C100.607 165.786 100.626 163.046 100.645 160.332C100.682 155.359 101.455 150.307 101.046 145.341C100.791 142.226 98.059 138.544 94.7305 141.352" stroke="#231F20" stroke-width="0.75" stroke-miterlimit="10"/>
<g opacity="0.17">
<path d="M60.5557 111.997C63.2425 104.899 68.226 98.6834 74.4891 94.4196C81.3676 89.7354 89.657 87.5885 97.9503 88.1665C102.724 88.5005 107.444 89.7542 111.737 91.8748C112.191 92.1 112.754 91.9987 113.021 91.537C113.265 91.1241 113.141 90.4786 112.683 90.2534C104.555 86.2335 95.1021 85.1675 86.2722 87.2131C78.2454 89.071 70.9466 93.6314 65.6104 99.8995C62.6759 103.349 60.3493 107.26 58.7469 111.497C58.5668 111.97 58.9458 112.526 59.4036 112.653C59.929 112.8 60.3793 112.473 60.5594 111.997H60.5557Z" fill="#FFF4EC"/>
</g>
</g>
<defs>
<clipPath id="clip0_2_129">
<rect width="228" height="241.915" fill="white"/>
</clipPath>
</defs>
</svg>
