<svg width="43" height="28" viewBox="0 0 43 28" fill="none" xmlns="http://www.w3.org/2000/svg">
<path fill-rule="evenodd" clip-rule="evenodd" d="M6.05664 21.7622C6.05664 22.099 6.32555 22.3721 6.65726 22.3721H16.2776C16.4548 22.3721 16.6229 22.2926 16.7371 22.155C16.8512 22.0174 16.8997 21.8357 16.8695 21.6584C16.4552 19.2221 17.7943 16.6234 20.3938 15.8076L29.6306 12.9087L26.9908 21.5821C26.9345 21.7671 26.9681 21.9683 27.0813 22.1242C27.1945 22.2801 27.3739 22.3721 27.5646 22.3721H36.3424C36.6741 22.3721 36.943 22.099 36.943 21.7622C36.943 21.5107 36.7931 21.2947 36.579 21.2014C36.4228 17.2351 34.7757 13.6305 32.1716 10.9856C32.1696 10.9836 32.1676 10.9815 32.1656 10.9795C29.3474 8.12151 25.5358 6.49684 21.4999 6.49684H21.4998C21.4966 6.49684 21.4937 6.49686 21.4909 6.4969C21.4905 6.49691 21.4901 6.49691 21.4897 6.49692C21.38 6.49699 21.2714 6.49852 21.1637 6.50107C21.1635 6.50107 21.1633 6.50108 21.163 6.50108C21.1603 6.50115 21.1576 6.50124 21.1549 6.50134C21.1529 6.50139 21.151 6.50143 21.149 6.50148C21.145 6.5015 21.1411 6.50156 21.1372 6.50167C21.0306 6.50439 20.9243 6.50819 20.8185 6.51297C20.8155 6.51306 20.8124 6.51318 20.8093 6.51332C17.0491 6.68694 13.4995 8.27288 10.8282 10.9854C10.8282 10.9854 10.8282 10.9855 10.8281 10.9855L10.828 10.9856C8.0509 13.8062 6.56894 17.4775 6.4207 21.2014C6.20661 21.2946 6.05664 21.5106 6.05664 21.7622ZM7.62522 21.1523C7.78363 17.7576 9.14564 14.4197 11.6772 11.8483C11.6773 11.8482 11.6774 11.8482 11.6775 11.8481L11.6775 11.848C14.133 9.35457 17.393 7.89604 20.8484 7.7326C20.8511 7.73251 20.8538 7.73241 20.8565 7.73228C20.9375 7.72854 21.0187 7.72542 21.1 7.72297C21.1022 7.72293 21.1043 7.72288 21.1065 7.72282C21.1373 7.72191 21.1684 7.72114 21.2002 7.72043C21.2009 7.72042 21.2016 7.7204 21.2024 7.72038C21.2054 7.72031 21.2084 7.72021 21.2114 7.72009C21.3072 7.71795 21.4025 7.71673 21.4976 7.71673C21.5011 7.71673 21.5043 7.7167 21.5073 7.71665C21.5073 7.71665 21.5073 7.71665 21.5074 7.71665C25.2225 7.71867 28.7287 9.21518 31.3221 11.8481C31.324 11.8501 31.3259 11.852 31.3279 11.8539C33.7009 14.2669 35.2079 17.5439 35.3746 21.1523H28.3789L30.8306 13.0969C31.0936 12.2329 30.2961 11.4233 29.4454 11.6901L29.4453 11.6901L20.0391 14.6421L20.2164 15.2249L20.0391 14.6421C17.0738 15.5728 15.4465 18.3767 15.6051 21.1523H7.62522Z" fill="#AF8E2F" stroke="#AF8E2F" stroke-width="0.2" stroke-miterlimit="10" stroke-linecap="round" stroke-linejoin="round"/>
<path fill-rule="evenodd" clip-rule="evenodd" d="M31.3224 11.848C31.557 12.0862 31.9372 12.0861 32.1718 11.848L34.2474 9.74014L34.2475 9.74013L35.999 7.96157C36.1117 7.84718 36.175 7.69203 36.1749 7.53025C36.1749 7.36847 36.1116 7.21333 35.9989 7.09895C32.1446 3.18635 26.9541 0.999976 21.5 0.999976C21.1683 0.999976 20.8994 1.27304 20.8994 1.60988V7.10661C20.8994 7.44345 21.1683 7.71652 21.5 7.71652C25.218 7.71652 28.7272 9.21328 31.3224 11.848ZM22.1007 6.50872V2.22919C26.815 2.37678 31.2835 4.25859 34.7183 7.53699L33.398 8.87759L33.398 8.8776L31.7386 10.5627C29.1135 8.10004 25.7136 6.65343 22.1007 6.50872Z" fill="#AF8E2F" stroke="#AF8E2F" stroke-width="0.2" stroke-miterlimit="10" stroke-linecap="round" stroke-linejoin="round"/>
<path fill-rule="evenodd" clip-rule="evenodd" d="M10.8282 11.8482C10.9408 11.9626 11.0936 12.0269 11.2529 12.0269H11.253C11.4218 12.0269 11.5743 11.9562 11.6834 11.8423C14.292 9.19641 17.8071 7.71676 21.4999 7.71676C21.8316 7.71676 22.1006 7.4437 22.1006 7.10686V1.61013C22.1006 1.27328 21.8316 1.00022 21.4999 1.00022C16.3315 1.00022 11.3066 2.8823 7.00841 7.09109C6.89239 7.20471 6.8262 7.36091 6.82473 7.52459C6.82327 7.68826 6.88665 7.84566 7.00062 7.9614L10.8282 11.8482ZM8.28818 7.54379C12.0883 4.01336 16.4278 2.3638 20.8993 2.22906V6.50898C17.3056 6.65315 13.8993 8.08776 11.2613 10.5629L8.28818 7.54379Z" fill="#AF8E2F" stroke="#AF8E2F" stroke-width="0.2" stroke-miterlimit="10" stroke-linecap="round" stroke-linejoin="round"/>
<path fill-rule="evenodd" clip-rule="evenodd" d="M2.20794 21.1523C2.36817 16.3364 4.25145 11.8348 7.43194 8.3993L10.4119 11.4253C7.91452 14.1695 6.57401 17.6359 6.42287 21.1523H2.20794ZM1.00022 21.3757C0.988983 21.9175 1.41595 22.3721 1.95876 22.3721H6.65747C7.16961 22.3721 7.60062 21.9601 7.61511 21.4287C7.71078 17.9393 9.07724 14.4893 11.6777 11.8481C11.9122 11.6099 11.9122 11.2237 11.6777 10.9856L7.85009 7.09883C7.61553 6.86065 7.23524 6.86065 7.00068 7.09883C3.29435 10.8625 1.11365 15.9398 1.00022 21.3757L1.00022 21.3757Z" fill="#AF8E2F" stroke="#AF8E2F" stroke-width="0.2" stroke-miterlimit="10" stroke-linecap="round" stroke-linejoin="round"/>
<path fill-rule="evenodd" clip-rule="evenodd" d="M36.5772 21.1523C36.4185 17.4209 34.9404 14.0123 32.588 11.4254L35.5682 8.39923C38.8183 11.9089 40.6345 16.4472 40.7921 21.1523H36.5772ZM40.7989 21.4018L40.7989 21.4017C40.7989 21.4018 40.7989 21.4018 40.7989 21.4018ZM35.3849 21.428C35.3994 21.958 35.8284 22.3721 36.3426 22.3721H41.0412C41.5834 22.3721 42.0113 21.9182 41.9998 21.3757C41.8885 16.0736 39.7936 10.9505 35.9993 7.09876C35.7648 6.86064 35.3845 6.86067 35.15 7.09883L31.3224 10.9856C31.0879 11.2237 31.0878 11.6099 31.3224 11.8481C33.7591 14.323 35.284 17.708 35.3849 21.4278L35.3849 21.428Z" fill="#AF8E2F" stroke="#AF8E2F" stroke-width="0.2" stroke-miterlimit="10" stroke-linecap="round" stroke-linejoin="round"/>
<path fill-rule="evenodd" clip-rule="evenodd" d="M23.1339 22.158C22.4128 22.8903 21.2435 22.8903 20.5224 22.158C19.8012 21.4257 19.8012 20.2384 20.5224 19.5061C21.2435 18.7738 22.4128 18.7738 23.1339 19.5061C23.2108 19.5842 23.2799 19.6687 23.342 19.7588C23.5323 20.0347 23.9068 20.1017 24.1785 19.9085C24.4502 19.7152 24.5162 19.3349 24.3259 19.059C24.2263 18.9146 24.1127 18.775 23.9833 18.6436C22.7931 17.4349 20.8632 17.4349 19.673 18.6436C18.4827 19.8523 18.4827 21.8118 19.673 23.0205C20.8632 24.2292 22.7931 24.2292 23.9833 23.0205C24.1127 22.8891 24.2263 22.7495 24.3259 22.6051C24.5162 22.3292 24.4502 21.9489 24.1785 21.7556C23.9068 21.5624 23.5323 21.6294 23.342 21.9053C23.2799 21.9954 23.2108 22.0799 23.1339 22.158Z" fill="#AF8E2F" stroke="#AF8E2F" stroke-width="0.2" stroke-miterlimit="10" stroke-linecap="round" stroke-linejoin="round"/>
<path fill-rule="evenodd" clip-rule="evenodd" d="M22.6452 26.5321C22.7225 26.8597 23.0467 27.0616 23.3693 26.9831C25.4102 26.4862 27.2174 24.9687 27.9235 22.6484L30.8306 13.0967C31.0934 12.2329 30.296 11.4231 29.4452 11.6901C29.4452 11.6901 29.4452 11.6901 29.4452 11.6901L20.039 14.642C15.5036 16.0654 14.0861 21.8761 17.4428 25.2847C18.2714 26.1262 19.2489 26.6742 20.2722 26.95C20.5929 27.0364 20.9218 26.8426 21.0068 26.517C21.0919 26.1914 20.901 25.8574 20.5804 25.771C19.7578 25.5493 18.9681 25.1086 18.2922 24.4222C15.5751 21.6631 16.7225 16.9596 20.3937 15.8075C20.3937 15.8075 20.3937 15.8075 20.3937 15.8075L29.6306 12.9087L26.7758 22.2882C26.204 24.1671 24.7483 25.393 23.0892 25.7969C22.7666 25.8754 22.5678 26.2046 22.6452 26.5321Z" fill="#AF8E2F"/>
<path d="M29.4452 11.6901C30.296 11.4231 31.0934 12.2329 30.8306 13.0967L27.9235 22.6484C27.2174 24.9687 25.4102 26.4862 23.3693 26.9831C23.0467 27.0616 22.7225 26.8597 22.6452 26.5321C22.5678 26.2046 22.7666 25.8754 23.0892 25.7969C24.7483 25.393 26.204 24.1671 26.7758 22.2882M29.4452 11.6901C29.4452 11.6901 29.4452 11.6901 29.4452 11.6901ZM29.4452 11.6901L20.039 14.642C15.5036 16.0654 14.0861 21.8761 17.4428 25.2847M17.4428 25.2847L17.8675 24.8535M17.4428 25.2847C18.2714 26.1262 19.2489 26.6742 20.2722 26.95C20.5929 27.0364 20.9218 26.8426 21.0068 26.517C21.0919 26.1914 20.901 25.8574 20.5804 25.771C19.7578 25.5493 18.9681 25.1086 18.2922 24.4222C15.5751 21.6631 16.7225 16.9596 20.3937 15.8075M20.3937 15.8075C20.3937 15.8075 20.3937 15.8075 20.3937 15.8075ZM20.3937 15.8075L29.6306 12.9087L26.7758 22.2882M26.7758 22.2882L27.3497 22.4683" stroke="#AF8E2F" stroke-width="0.2" stroke-miterlimit="10" stroke-linecap="round" stroke-linejoin="round"/>
</svg>
