<svg width="76" height="73" viewBox="0 0 76 73" fill="none" xmlns="http://www.w3.org/2000/svg">
<path d="M33.7407 43.7578C33.7407 52.544 26.7316 59.6666 18.0854 59.6666C9.43929 59.6666 2.43021 52.544 2.43021 43.7578C2.43021 34.9716 9.43929 27.849 18.0854 27.849C26.7316 27.849 33.7407 34.9716 33.7407 43.7578Z" fill="#D6F0DD"/>
<g clip-path="url(#clip0_3632_11435)">
<path d="M64.648 46.829L54.3164 59.5697C54.03 59.9228 53.4884 59.9141 53.2135 59.552L43.5414 46.8113C43.1909 46.3497 43.5202 45.6864 44.0997 45.6864L47.771 45.6864C48.1582 45.6864 48.4721 45.3726 48.4721 44.9854L48.4721 12.3347C48.4721 11.9475 48.7859 11.6337 49.1731 11.6337L58.5858 11.6337C58.973 11.6337 59.2868 11.9475 59.2868 12.3347L59.2868 44.9854C59.2868 45.3726 59.6007 45.6864 59.9878 45.6864L64.1035 45.6864C64.6935 45.6864 65.0196 46.3707 64.648 46.829Z" fill="#D6F0DD"/>
<path d="M75.4901 30.6981L63.9355 43.705C63.6505 44.0258 63.1468 44.0176 62.8725 43.6877L52.0554 30.6807C51.6756 30.224 52.0004 29.5315 52.5944 29.5315L56.8252 29.5315C57.2123 29.5315 57.5262 29.2176 57.5262 28.8305L57.5262 12.322C57.5262 11.9349 57.8401 11.621 58.2272 11.621L68.84 11.621C69.2272 11.621 69.5411 11.9349 69.5411 12.322L69.5411 28.8305C69.5411 29.2176 69.8549 29.5315 70.2421 29.5315L74.966 29.5315C75.5708 29.5315 75.8918 30.2459 75.4901 30.6981Z" fill="#32B353"/>
<path d="M28.4919 70.1256C39.6 70.1256 48.6048 69.179 48.6048 68.0113C48.6048 66.8435 39.6 65.8969 28.4919 65.8969C17.3839 65.8969 8.379 66.8435 8.379 68.0113C8.379 69.179 17.3839 70.1256 28.4919 70.1256Z" fill="#5BC4F0" fill-opacity="0.3"/>
<path d="M54.9757 72.0151C59.0689 72.0151 62.387 70.8033 62.387 69.3084C62.387 67.8135 59.0689 66.6017 54.9757 66.6017C50.8826 66.6017 47.5645 67.8135 47.5645 69.3084C47.5645 70.8033 50.8826 72.0151 54.9757 72.0151Z" fill="#5BC4F0" fill-opacity="0.3"/>
<path d="M67.8064 71.6627C71.8996 71.6627 75.2177 70.4508 75.2177 68.956C75.2177 67.4611 71.8996 66.2492 67.8064 66.2492C63.7133 66.2492 60.3951 67.4611 60.3951 68.956C60.3951 70.4508 63.7133 71.6627 67.8064 71.6627Z" fill="#5BC4F0" fill-opacity="0.3"/>
<path d="M62.9113 67.7848C62.9113 68.9293 64.321 69.9123 66.343 70.3523V65.2173C64.321 65.6572 62.9113 66.6402 62.9113 67.7848Z" fill="#AF8E2F"/>
<path d="M67.8848 65.0042V70.5654C68.1325 70.5826 68.3835 70.5946 68.638 70.5963V64.9749C68.3819 64.9767 68.1308 64.9887 67.8848 65.0059V65.0042Z" fill="#AF8E2F"/>
<path d="M74.5109 66.6369H62.9113V68.0152H74.5109V66.6369Z" fill="#AF8E2F"/>
<path d="M74.5125 67.7849C74.5125 66.8551 73.5812 66.0302 72.1478 65.5198V70.0516C73.5812 69.5395 74.5125 68.7163 74.5125 67.7866V67.7849Z" fill="#AF8E2F"/>
<path d="M66.3448 65.2173V70.3523C66.8266 70.4571 67.3457 70.5276 67.8851 70.5654V65.0042C67.344 65.042 66.8266 65.1125 66.3448 65.2173Z" fill="#D6B11E"/>
<path d="M68.7128 64.9715C68.6891 64.9715 68.6653 64.9715 68.6399 64.9715V70.5929C68.6636 70.5929 68.6874 70.5929 68.7128 70.5929C69.9987 70.5929 71.1861 70.3901 72.1479 70.0464V65.5146C71.1861 65.1709 69.9987 64.9681 68.7128 64.9681V64.9715Z" fill="#D6B11E"/>
<path d="M68.7127 69.7612C71.9158 69.7612 74.5124 68.5016 74.5124 66.9479C74.5124 65.3942 71.9158 64.1346 68.7127 64.1346C65.5095 64.1346 62.9129 65.3942 62.9129 66.9479C62.9129 68.5016 65.5095 69.7612 68.7127 69.7612Z" fill="#AF8E2F"/>
<path d="M68.7126 69.5515C71.9157 69.5515 74.5123 68.2919 74.5123 66.7382C74.5123 65.1845 71.9157 63.925 68.7126 63.925C65.5094 63.925 62.9128 65.1845 62.9128 66.7382C62.9128 68.2919 65.5094 69.5515 68.7126 69.5515Z" fill="#FFD840"/>
<path d="M68.7129 68.9036C71.2602 68.9036 73.3253 67.9341 73.3253 66.7382C73.3253 65.5423 71.2602 64.5728 68.7129 64.5728C66.1656 64.5728 64.1006 65.5423 64.1006 66.7382C64.1006 67.9341 66.1656 68.9036 68.7129 68.9036Z" fill="#FFD325"/>
<path d="M67.386 66.9341L66.6633 66.5457L67.2282 66.2484L67.9508 66.6368C68.2918 66.819 68.8516 66.819 69.1994 66.6368C69.5471 66.4529 69.5539 66.1556 69.2129 65.9735L68.4581 65.5679L69.0229 65.2706L69.7778 65.6761C70.4224 66.0233 70.4105 66.587 69.7524 66.9341C69.0942 67.2813 68.0323 67.2813 67.386 66.9341Z" fill="#AF8E2F"/>
<path d="M70.1155 67.429L67.5439 66.0473L68.1087 65.75L70.6804 67.1317L70.1155 67.429Z" fill="#AF8E2F"/>
<path d="M71.0279 66.9479L68.4563 65.5661L69.0212 65.2688L71.5928 66.6505L71.0279 66.9479Z" fill="#AF8E2F"/>
<path d="M67.203 68.2076L67.4541 66.5784L66.667 66.5475L66.4702 67.814L67.203 68.2076Z" fill="#AF8E2F"/>
<path d="M62.9113 66.0422C62.9113 67.1868 64.321 68.1698 66.343 68.6097V63.4747C64.321 63.9146 62.9113 64.8977 62.9113 66.0422Z" fill="#AF8E2F"/>
<path d="M67.8848 63.2615V68.8228C68.1325 68.84 68.3835 68.852 68.638 68.8537V63.2323C68.3819 63.234 68.1308 63.2461 67.8848 63.2633V63.2615Z" fill="#AF8E2F"/>
<path d="M74.5109 64.8943H62.9113V66.2725H74.5109V64.8943Z" fill="#AF8E2F"/>
<path d="M74.5125 66.0422C74.5125 65.1124 73.5812 64.2875 72.1478 63.7771V68.3089C73.5812 67.7968 74.5125 66.9736 74.5125 66.0439V66.0422Z" fill="#AF8E2F"/>
<path d="M66.3448 63.4747V68.6098C66.8266 68.7146 67.3457 68.785 67.8851 68.8229V63.2616C67.344 63.2994 66.8266 63.3699 66.3448 63.4747Z" fill="#D6B11E"/>
<path d="M68.7128 63.229C68.6891 63.229 68.6653 63.229 68.6399 63.229V68.8503C68.6636 68.8503 68.6874 68.8503 68.7128 68.8503C69.9987 68.8503 71.1861 68.6476 72.1479 68.3038V63.772C71.1861 63.4283 69.9987 63.2255 68.7128 63.2255V63.229Z" fill="#D6B11E"/>
<path d="M68.7127 68.0186C71.9158 68.0186 74.5124 66.759 74.5124 65.2053C74.5124 63.6516 71.9158 62.392 68.7127 62.392C65.5095 62.392 62.9129 63.6516 62.9129 65.2053C62.9129 66.759 65.5095 68.0186 68.7127 68.0186Z" fill="#AF8E2F"/>
<path d="M68.7126 67.8088C71.9157 67.8088 74.5123 66.5493 74.5123 64.9956C74.5123 63.4419 71.9157 62.1823 68.7126 62.1823C65.5094 62.1823 62.9128 63.4419 62.9128 64.9956C62.9128 66.5493 65.5094 67.8088 68.7126 67.8088Z" fill="#FFD840"/>
<path d="M68.7129 67.161C71.2602 67.161 73.3253 66.1916 73.3253 64.9957C73.3253 63.7998 71.2602 62.8303 68.7129 62.8303C66.1656 62.8303 64.1006 63.7998 64.1006 64.9957C64.1006 66.1916 66.1656 67.161 68.7129 67.161Z" fill="#FFD325"/>
<path d="M67.386 65.1915L66.6633 64.8031L67.2282 64.5058L67.9508 64.8942C68.2918 65.0764 68.8516 65.0764 69.1994 64.8942C69.5471 64.7103 69.5539 64.413 69.2129 64.2308L68.4581 63.8253L69.0229 63.528L69.7778 63.9335C70.4224 64.2807 70.4105 64.8444 69.7524 65.1915C69.0942 65.5387 68.0323 65.5387 67.386 65.1915Z" fill="#AF8E2F"/>
<path d="M70.1155 65.6865L67.5439 64.3048L68.1087 64.0074L70.6804 65.3892L70.1155 65.6865Z" fill="#AF8E2F"/>
<path d="M71.0279 65.2053L68.4563 63.8236L69.0212 63.5263L71.5928 64.908L71.0279 65.2053Z" fill="#AF8E2F"/>
<path d="M67.203 66.465L67.4541 64.8358L66.667 64.8049L66.4702 66.0715L67.203 66.465Z" fill="#AF8E2F"/>
<path d="M49.3585 67.7849C49.3585 68.9294 50.7681 69.9124 52.7901 70.3524V65.2173C50.7681 65.6573 49.3585 66.6403 49.3585 67.7849Z" fill="#AF8E2F"/>
<path d="M54.3319 65.0042V70.5654C54.5796 70.5826 54.8307 70.5946 55.0851 70.5964V64.975C54.829 64.9767 54.5779 64.9887 54.3319 65.0059V65.0042Z" fill="#AF8E2F"/>
<path d="M60.958 66.6369H49.3585V68.0152H60.958V66.6369Z" fill="#AF8E2F"/>
<path d="M60.9578 67.7849C60.9578 66.8551 60.0265 66.0302 58.5931 65.5198V70.0517C60.0265 69.5395 60.9578 68.7163 60.9578 67.7866V67.7849Z" fill="#AF8E2F"/>
<path d="M52.7917 65.2173V70.3523C53.2735 70.4572 53.7926 70.5276 54.332 70.5654V65.0042C53.7909 65.042 53.2735 65.1125 52.7917 65.2173Z" fill="#D6B11E"/>
<path d="M55.1579 64.9715C55.1342 64.9715 55.1104 64.9715 55.085 64.9715V70.5929C55.1087 70.5929 55.1325 70.5929 55.1579 70.5929C56.4437 70.5929 57.6312 70.3901 58.593 70.0464V65.5146C57.6312 65.1709 56.4437 64.9681 55.1579 64.9681V64.9715Z" fill="#D6B11E"/>
<path d="M55.1582 69.7612C58.3614 69.7612 60.958 68.5017 60.958 66.9479C60.958 65.3942 58.3614 64.1347 55.1582 64.1347C51.9551 64.1347 49.3585 65.3942 49.3585 66.9479C49.3585 68.5017 51.9551 69.7612 55.1582 69.7612Z" fill="#AF8E2F"/>
<path d="M55.1581 69.5515C58.3612 69.5515 60.9578 68.292 60.9578 66.7383C60.9578 65.1845 58.3612 63.925 55.1581 63.925C51.955 63.925 49.3583 65.1845 49.3583 66.7383C49.3583 68.292 51.955 69.5515 55.1581 69.5515Z" fill="#FFD840"/>
<path d="M55.158 68.9036C57.7053 68.9036 59.7703 67.9341 59.7703 66.7382C59.7703 65.5423 57.7053 64.5729 55.158 64.5729C52.6107 64.5729 50.5457 65.5423 50.5457 66.7382C50.5457 67.9341 52.6107 68.9036 55.158 68.9036Z" fill="#FFD325"/>
<path d="M53.8332 66.9342L53.1106 66.5458L53.6754 66.2485L54.3981 66.6368C54.739 66.819 55.2988 66.819 55.6466 66.6368C55.9943 66.453 56.0011 66.1557 55.6602 65.9735L54.9053 65.5679L55.4702 65.2706L56.225 65.6762C56.8696 66.0233 56.8578 66.587 56.1996 66.9342C55.5397 67.2813 54.4795 67.2813 53.8332 66.9342Z" fill="#AF8E2F"/>
<path d="M56.5628 67.4291L53.9911 66.0473L54.556 65.75L57.1259 67.1317L56.5628 67.4291Z" fill="#AF8E2F"/>
<path d="M57.4752 66.9479L54.9035 65.5662L55.4684 65.2689L58.0401 66.6506L57.4752 66.9479Z" fill="#AF8E2F"/>
<path d="M53.6483 68.2076L53.9011 66.5784L53.114 66.5475L52.9172 67.8141L53.6483 68.2076Z" fill="#AF8E2F"/>
<path d="M49.3585 66.0421C49.3585 67.1867 50.7681 68.1697 52.7901 68.6096V63.4746C50.7681 63.9146 49.3585 64.8976 49.3585 66.0421Z" fill="#AF8E2F"/>
<path d="M54.3319 63.2615V68.8227C54.5796 68.8399 54.8307 68.852 55.0851 68.8537V63.2323C54.829 63.234 54.5779 63.246 54.3319 63.2632V63.2615Z" fill="#AF8E2F"/>
<path d="M60.958 64.8942H49.3585V66.2724H60.958V64.8942Z" fill="#AF8E2F"/>
<path d="M60.9578 66.0422C60.9578 65.1125 60.0265 64.2876 58.5931 63.7772V68.309C60.0265 67.7969 60.9578 66.9737 60.9578 66.0439V66.0422Z" fill="#AF8E2F"/>
<path d="M52.7917 63.4747V68.6097C53.2735 68.7146 53.7926 68.785 54.332 68.8228V63.2616C53.7909 63.2994 53.2735 63.3699 52.7917 63.4747Z" fill="#D6B11E"/>
<path d="M55.1579 63.2289C55.1342 63.2289 55.1104 63.2289 55.085 63.2289V68.8503C55.1087 68.8503 55.1325 68.8503 55.1579 68.8503C56.4437 68.8503 57.6312 68.6475 58.593 68.3038V63.7719C57.6312 63.4282 56.4437 63.2254 55.1579 63.2254V63.2289Z" fill="#D6B11E"/>
<path d="M55.1582 68.0185C58.3614 68.0185 60.958 66.7589 60.958 65.2052C60.958 63.6515 58.3614 62.3919 55.1582 62.3919C51.9551 62.3919 49.3585 63.6515 49.3585 65.2052C49.3585 66.7589 51.9551 68.0185 55.1582 68.0185Z" fill="#AF8E2F"/>
<path d="M55.1581 67.8088C58.3612 67.8088 60.9578 66.5493 60.9578 64.9956C60.9578 63.4419 58.3612 62.1823 55.1581 62.1823C51.955 62.1823 49.3583 63.4419 49.3583 64.9956C49.3583 66.5493 51.955 67.8088 55.1581 67.8088Z" fill="#FFD840"/>
<path d="M55.158 67.161C57.7053 67.161 59.7703 66.1915 59.7703 64.9956C59.7703 63.7997 57.7053 62.8303 55.158 62.8303C52.6107 62.8303 50.5457 63.7997 50.5457 64.9956C50.5457 66.1915 52.6107 67.161 55.158 67.161Z" fill="#FFD325"/>
<path d="M53.8332 65.1915L53.1106 64.8031L53.6754 64.5058L54.3981 64.8942C54.739 65.0763 55.2988 65.0763 55.6466 64.8942C55.9943 64.7103 56.0011 64.413 55.6602 64.2308L54.9053 63.8252L55.4702 63.5279L56.225 63.9335C56.8696 64.2807 56.8578 64.8443 56.1996 65.1915C55.5397 65.5386 54.4795 65.5386 53.8332 65.1915Z" fill="#AF8E2F"/>
<path d="M56.5628 65.6864L53.9911 64.3047L54.556 64.0074L57.1259 65.3891L56.5628 65.6864Z" fill="#AF8E2F"/>
<path d="M57.4752 65.2053L54.9035 63.8236L55.4684 63.5262L58.0401 64.908L57.4752 65.2053Z" fill="#AF8E2F"/>
<path d="M53.6483 66.465L53.9011 64.8358L53.114 64.8049L52.9172 66.0714L53.6483 66.465Z" fill="#AF8E2F"/>
<path d="M49.3585 64.2997C49.3585 65.4443 50.7681 66.4273 52.7901 66.8673V61.7322C50.7681 62.1722 49.3585 63.1552 49.3585 64.2997Z" fill="#AF8E2F"/>
<path d="M54.3319 61.5192V67.0804C54.5796 67.0976 54.8307 67.1096 55.0851 67.1113V61.49C54.829 61.4917 54.5779 61.5037 54.3319 61.5209V61.5192Z" fill="#AF8E2F"/>
<path d="M60.958 63.1517H49.3585V64.53H60.958V63.1517Z" fill="#AF8E2F"/>
<path d="M60.9578 64.2996C60.9578 63.3699 60.0265 62.545 58.5931 62.0329V66.5647C60.0265 66.0526 60.9578 65.2294 60.9578 64.2996Z" fill="#AF8E2F"/>
<path d="M52.7917 61.7321V66.8672C53.2735 66.972 53.7926 67.0425 54.332 67.0803V61.519C53.7909 61.5569 53.2735 61.6273 52.7917 61.7321Z" fill="#D6B11E"/>
<path d="M55.1579 61.4864C55.1342 61.4864 55.1104 61.4864 55.085 61.4864V67.1078C55.1087 67.1078 55.1325 67.1078 55.1579 67.1078C56.4437 67.1078 57.6312 66.905 58.593 66.5613V62.0294C57.6312 61.6857 56.4437 61.4829 55.1579 61.4829V61.4864Z" fill="#D6B11E"/>
<path d="M55.1582 66.276C58.3614 66.276 60.958 65.0165 60.958 63.4627C60.958 61.909 58.3614 60.6495 55.1582 60.6495C51.9551 60.6495 49.3585 61.909 49.3585 63.4627C49.3585 65.0165 51.9551 66.276 55.1582 66.276Z" fill="#AF8E2F"/>
<path d="M55.1581 66.0664C58.3612 66.0664 60.9578 64.8068 60.9578 63.2531C60.9578 61.6994 58.3612 60.4398 55.1581 60.4398C51.955 60.4398 49.3583 61.6994 49.3583 63.2531C49.3583 64.8068 51.955 66.0664 55.1581 66.0664Z" fill="#FFD840"/>
<path d="M55.158 65.4185C57.7053 65.4185 59.7703 64.449 59.7703 63.2531C59.7703 62.0572 57.7053 61.0877 55.158 61.0877C52.6107 61.0877 50.5457 62.0572 50.5457 63.2531C50.5457 64.449 52.6107 65.4185 55.158 65.4185Z" fill="#FFD325"/>
<path d="M53.8332 63.449L53.1106 63.0606L53.6754 62.7633L54.3981 63.1517C54.739 63.3339 55.2988 63.3339 55.6466 63.1517C55.9943 62.9678 56.0011 62.6705 55.6602 62.4883L54.9053 62.0828L55.4702 61.7855L56.225 62.191C56.8696 62.5382 56.8578 63.1019 56.1996 63.449C55.5397 63.7962 54.4795 63.7962 53.8332 63.449Z" fill="#AF8E2F"/>
<path d="M56.5628 63.944L53.9911 62.5623L54.556 62.265L57.1259 63.6467L56.5628 63.944Z" fill="#AF8E2F"/>
<path d="M57.4752 63.4627L54.9035 62.081L55.4684 61.7837L58.0401 63.1654L57.4752 63.4627Z" fill="#AF8E2F"/>
<path d="M53.6483 64.7224L53.9011 63.0932L53.114 63.0623L52.9172 64.3289L53.6483 64.7224Z" fill="#AF8E2F"/>
<path d="M49.3585 62.557C49.3585 63.7015 50.7681 64.6845 52.7901 65.1245V59.9894C50.7681 60.4294 49.3585 61.4124 49.3585 62.557Z" fill="#AF8E2F"/>
<path d="M54.3319 59.7763V65.3375C54.5796 65.3547 54.8307 65.3667 55.0851 65.3684V59.7471C54.829 59.7488 54.5779 59.7608 54.3319 59.778V59.7763Z" fill="#AF8E2F"/>
<path d="M60.958 61.409H49.3585V62.7873H60.958V61.409Z" fill="#AF8E2F"/>
<path d="M60.9578 62.557C60.9578 61.6272 60.0265 60.8023 58.5931 60.2919V64.8237C60.0265 64.3116 60.9578 63.4884 60.9578 62.5587V62.557Z" fill="#AF8E2F"/>
<path d="M52.7917 59.9895V65.1245C53.2735 65.2293 53.7926 65.2998 54.332 65.3376V59.7764C53.7909 59.8142 53.2735 59.8846 52.7917 59.9895Z" fill="#D6B11E"/>
<path d="M55.1579 59.7438C55.1342 59.7438 55.1104 59.7438 55.085 59.7438V65.3652C55.1087 65.3652 55.1325 65.3652 55.1579 65.3652C56.4437 65.3652 57.6312 65.1624 58.593 64.8187V60.2869C57.6312 59.9431 56.4437 59.7404 55.1579 59.7404V59.7438Z" fill="#D6B11E"/>
<path d="M55.1582 64.5333C58.3614 64.5333 60.958 63.2738 60.958 61.7201C60.958 60.1663 58.3614 58.9068 55.1582 58.9068C51.9551 58.9068 49.3585 60.1663 49.3585 61.7201C49.3585 63.2738 51.9551 64.5333 55.1582 64.5333Z" fill="#AF8E2F"/>
<path d="M55.1581 64.3236C58.3612 64.3236 60.9578 63.0641 60.9578 61.5103C60.9578 59.9566 58.3612 58.6971 55.1581 58.6971C51.955 58.6971 49.3583 59.9566 49.3583 61.5103C49.3583 63.0641 51.955 64.3236 55.1581 64.3236Z" fill="#FFD840"/>
<path d="M55.158 63.6757C57.7053 63.6757 59.7703 62.7062 59.7703 61.5103C59.7703 60.3144 57.7053 59.345 55.158 59.345C52.6107 59.345 50.5457 60.3144 50.5457 61.5103C50.5457 62.7062 52.6107 63.6757 55.158 63.6757Z" fill="#FFD325"/>
<path d="M53.8332 61.7063L53.1106 61.3179L53.6754 61.0206L54.3981 61.409C54.739 61.5911 55.2988 61.5911 55.6466 61.409C55.9943 61.2251 56.0011 60.9278 55.6602 60.7456L54.9053 60.34L55.4702 60.0427L56.225 60.4483C56.8696 60.7955 56.8578 61.3591 56.1996 61.7063C55.5397 62.0534 54.4795 62.0534 53.8332 61.7063Z" fill="#AF8E2F"/>
<path d="M56.5628 62.2012L53.9911 60.8195L54.556 60.5222L57.1259 61.9039L56.5628 62.2012Z" fill="#AF8E2F"/>
<path d="M57.4752 61.72L54.9035 60.3383L55.4684 60.041L58.0401 61.4227L57.4752 61.72Z" fill="#AF8E2F"/>
<path d="M53.6483 62.9797L53.9011 61.3488L53.114 61.3196L52.9172 62.5862L53.6483 62.9797Z" fill="#AF8E2F"/>
<path d="M49.3585 60.8145C49.3585 61.959 50.7681 62.942 52.7901 63.382V58.2469C50.7681 58.6869 49.3585 59.6699 49.3585 60.8145Z" fill="#AF8E2F"/>
<path d="M54.3319 58.0338V63.5951C54.5796 63.6122 54.8307 63.6243 55.0851 63.626V58.0046C54.829 58.0063 54.5779 58.0184 54.3319 58.0355V58.0338Z" fill="#AF8E2F"/>
<path d="M60.958 59.6665H49.3585V61.0448H60.958V59.6665Z" fill="#AF8E2F"/>
<path d="M60.9578 60.8145C60.9578 59.8847 60.0265 59.0598 58.5931 58.5494V63.0812C60.0265 62.5691 60.9578 61.7459 60.9578 60.8162V60.8145Z" fill="#AF8E2F"/>
<path d="M52.7917 58.247V63.382C53.2735 63.4869 53.7926 63.5573 54.332 63.5951V58.0339C53.7909 58.0717 53.2735 58.1422 52.7917 58.247Z" fill="#D6B11E"/>
<path d="M55.1579 58.0012C55.1342 58.0012 55.1104 58.0012 55.085 58.0012V63.6226C55.1087 63.6226 55.1325 63.6226 55.1579 63.6226C56.4437 63.6226 57.6312 63.4198 58.593 63.0761V58.5443C57.6312 58.2006 56.4437 57.9978 55.1579 57.9978V58.0012Z" fill="#D6B11E"/>
<path d="M55.1582 62.7908C58.3614 62.7908 60.958 61.5313 60.958 59.9776C60.958 58.4238 58.3614 57.1643 55.1582 57.1643C51.9551 57.1643 49.3585 58.4238 49.3585 59.9776C49.3585 61.5313 51.9551 62.7908 55.1582 62.7908Z" fill="#AF8E2F"/>
<path d="M55.1581 62.5811C58.3612 62.5811 60.9578 61.3215 60.9578 59.7678C60.9578 58.2141 58.3612 56.9545 55.1581 56.9545C51.955 56.9545 49.3583 58.2141 49.3583 59.7678C49.3583 61.3215 51.955 62.5811 55.1581 62.5811Z" fill="#FFD840"/>
<path d="M55.158 61.9333C57.7053 61.9333 59.7703 60.9638 59.7703 59.7679C59.7703 58.572 57.7053 57.6025 55.158 57.6025C52.6107 57.6025 50.5457 58.572 50.5457 59.7679C50.5457 60.9638 52.6107 61.9333 55.158 61.9333Z" fill="#FFD325"/>
<path d="M53.8332 59.9638L53.1106 59.5754L53.6754 59.2781L54.3981 59.6665C54.739 59.8487 55.2988 59.8487 55.6466 59.6665C55.9943 59.4843 56.0011 59.1853 55.6602 59.0031L54.9053 58.5976L55.4702 58.3003L56.225 58.7058C56.8696 59.053 56.8578 59.6167 56.1996 59.9638C55.5397 60.311 54.4795 60.311 53.8332 59.9638Z" fill="#AF8E2F"/>
<path d="M56.5628 60.4588L53.9911 59.077L54.556 58.7797L57.1259 60.1614L56.5628 60.4588Z" fill="#AF8E2F"/>
<path d="M57.4752 59.9776L54.9035 58.5959L55.4684 58.2986L58.0401 59.6803L57.4752 59.9776Z" fill="#AF8E2F"/>
<path d="M53.6483 61.2355L53.9011 59.6064L53.114 59.5771L52.9172 60.8437L53.6483 61.2355Z" fill="#AF8E2F"/>
<path d="M49.3585 59.0718C49.3585 60.2163 50.7681 61.1994 52.7901 61.6393V56.5043C50.7681 56.9442 49.3585 57.9272 49.3585 59.0718Z" fill="#AF8E2F"/>
<path d="M54.3319 56.2912V61.8524C54.5796 61.8696 54.8307 61.8817 55.0851 61.8834V56.262C54.829 56.2637 54.5779 56.2757 54.3319 56.2929V56.2912Z" fill="#AF8E2F"/>
<path d="M60.958 57.9238H49.3585V59.3021H60.958V57.9238Z" fill="#AF8E2F"/>
<path d="M60.9578 59.0718C60.9578 58.142 60.0265 57.3171 58.5931 56.8067V61.3386C60.0265 60.8264 60.9578 60.0032 60.9578 59.0718Z" fill="#AF8E2F"/>
<path d="M52.7917 56.5043V61.6394C53.2735 61.7442 53.7926 61.8146 54.332 61.8525V56.2912C53.7909 56.329 53.2735 56.3995 52.7917 56.5043Z" fill="#D6B11E"/>
<path d="M55.1579 56.2586C55.1342 56.2586 55.1104 56.2586 55.085 56.2586V61.8799C55.1087 61.8799 55.1325 61.8799 55.1579 61.8799C56.4437 61.8799 57.6312 61.6772 58.593 61.3334V56.8016C57.6312 56.4579 56.4437 56.2551 55.1579 56.2551V56.2586Z" fill="#D6B11E"/>
<path d="M55.1582 61.0481C58.3614 61.0481 60.958 59.7886 60.958 58.2348C60.958 56.6811 58.3614 55.4216 55.1582 55.4216C51.9551 55.4216 49.3585 56.6811 49.3585 58.2348C49.3585 59.7886 51.9551 61.0481 55.1582 61.0481Z" fill="#AF8E2F"/>
<path d="M55.1581 60.8384C58.3612 60.8384 60.9578 59.5789 60.9578 58.0252C60.9578 56.4715 58.3612 55.2119 55.1581 55.2119C51.955 55.2119 49.3583 56.4715 49.3583 58.0252C49.3583 59.5789 51.955 60.8384 55.1581 60.8384Z" fill="#FFD840"/>
<path d="M55.158 60.1906C57.7053 60.1906 59.7703 59.2211 59.7703 58.0252C59.7703 56.8293 57.7053 55.8598 55.158 55.8598C52.6107 55.8598 50.5457 56.8293 50.5457 58.0252C50.5457 59.2211 52.6107 60.1906 55.158 60.1906Z" fill="#FFD325"/>
<path d="M53.8332 58.2212L53.1106 57.8328L53.6754 57.5355L54.3981 57.9239C54.739 58.1061 55.2988 58.1061 55.6466 57.9239C55.9943 57.74 56.0011 57.4427 55.6602 57.2605L54.9053 56.855L55.4702 56.5576L56.225 56.9632C56.8696 57.3104 56.8578 57.8741 56.1996 58.2212C55.5397 58.5684 54.4795 58.5684 53.8332 58.2212Z" fill="#AF8E2F"/>
<path d="M56.5628 58.7161L53.9911 57.3344L54.556 57.037L57.1259 58.4188L56.5628 58.7161Z" fill="#AF8E2F"/>
<path d="M57.4752 58.2349L54.9035 56.8532L55.4684 56.5559L58.0401 57.9376L57.4752 58.2349Z" fill="#AF8E2F"/>
<path d="M53.6483 59.4929L53.9011 57.8637L53.114 57.8345L52.9172 59.101L53.6483 59.4929Z" fill="#AF8E2F"/>
<path d="M49.3585 57.3291C49.3585 58.4737 50.7681 59.4567 52.7901 59.8966V54.7616C50.7681 55.2015 49.3585 56.1846 49.3585 57.3291Z" fill="#AF8E2F"/>
<path d="M54.3319 54.5485V60.1097C54.5796 60.1269 54.8307 60.1389 55.0851 60.1406V54.5193C54.829 54.521 54.5779 54.533 54.3319 54.5502V54.5485Z" fill="#AF8E2F"/>
<path d="M60.958 56.1811H49.3585V57.5594H60.958V56.1811Z" fill="#AF8E2F"/>
<path d="M60.9578 57.329C60.9578 56.3993 60.0265 55.5744 58.5931 55.064V59.5958C60.0265 59.0837 60.9578 58.2605 60.9578 57.3308V57.329Z" fill="#AF8E2F"/>
<path d="M52.7917 54.7617V59.8967C53.2735 60.0015 53.7926 60.072 54.332 60.1098V54.5486C53.7909 54.5864 53.2735 54.6568 52.7917 54.7617Z" fill="#D6B11E"/>
<path d="M55.1579 54.5159C55.1342 54.5159 55.1104 54.5159 55.085 54.5159V60.1373C55.1087 60.1373 55.1325 60.1373 55.1579 60.1373C56.4437 60.1373 57.6312 59.9345 58.593 59.5908V55.0589C57.6312 54.7152 56.4437 54.5125 55.1579 54.5125V54.5159Z" fill="#D6B11E"/>
<path d="M55.1582 59.3054C58.3614 59.3054 60.958 58.0459 60.958 56.4922C60.958 54.9384 58.3614 53.6789 55.1582 53.6789C51.9551 53.6789 49.3585 54.9384 49.3585 56.4922C49.3585 58.0459 51.9551 59.3054 55.1582 59.3054Z" fill="#AF8E2F"/>
<path d="M55.1581 59.0957C58.3612 59.0957 60.9578 57.8362 60.9578 56.2824C60.9578 54.7287 58.3612 53.4692 55.1581 53.4692C51.955 53.4692 49.3583 54.7287 49.3583 56.2824C49.3583 57.8362 51.955 59.0957 55.1581 59.0957Z" fill="#FFD840"/>
<path d="M55.158 58.4479C57.7053 58.4479 59.7703 57.4784 59.7703 56.2825C59.7703 55.0866 57.7053 54.1172 55.158 54.1172C52.6107 54.1172 50.5457 55.0866 50.5457 56.2825C50.5457 57.4784 52.6107 58.4479 55.158 58.4479Z" fill="#FFD325"/>
<path d="M53.8332 56.4783L53.1106 56.09L53.6754 55.7926L54.3981 56.181C54.739 56.3632 55.2988 56.3632 55.6466 56.181C55.9943 55.9971 56.0011 55.6998 55.6602 55.5177L54.9053 55.1121L55.4702 54.8148L56.225 55.2204C56.8696 55.5675 56.8578 56.1312 56.1996 56.4783C55.5397 56.8255 54.4795 56.8255 53.8332 56.4783Z" fill="#AF8E2F"/>
<path d="M56.5628 56.9734L53.9911 55.5917L54.556 55.2944L57.1259 56.6761L56.5628 56.9734Z" fill="#AF8E2F"/>
<path d="M57.4752 56.4922L54.9035 55.1105L55.4684 54.8132L58.0401 56.1949L57.4752 56.4922Z" fill="#AF8E2F"/>
<path d="M53.6483 57.7502L53.9011 56.121L53.114 56.0918L52.9172 57.3584L53.6483 57.7502Z" fill="#AF8E2F"/>
<path d="M49.3583 55.5866C49.3583 56.7312 50.768 57.7142 52.79 58.1542V53.0191C50.768 53.4591 49.3583 54.4421 49.3583 55.5866Z" fill="#AF8E2F"/>
<path d="M54.3318 52.806V58.3672C54.5795 58.3844 54.8305 58.3964 55.085 58.3981V52.7768C54.8288 52.7785 54.5778 52.7905 54.3318 52.8077V52.806Z" fill="#AF8E2F"/>
<path d="M60.9578 54.4386H49.3583V55.8168H60.9578V54.4386Z" fill="#AF8E2F"/>
<path d="M60.9577 55.5866C60.9577 54.6569 60.0264 53.832 58.593 53.3216V57.8534C60.0264 57.3413 60.9577 56.5181 60.9577 55.5866Z" fill="#AF8E2F"/>
<path d="M52.7916 53.0191V58.1541C53.2733 58.259 53.7924 58.3294 54.3318 58.3672V52.806C53.7907 52.8438 53.2733 52.9143 52.7916 53.0191Z" fill="#D6B11E"/>
<path d="M55.1578 52.7733C55.134 52.7733 55.1103 52.7733 55.0848 52.7733V58.3947C55.1086 58.3947 55.1323 58.3947 55.1578 58.3947C56.4436 58.3947 57.631 58.1919 58.5928 57.8482V53.3164C57.631 52.9727 56.4436 52.7699 55.1578 52.7699V52.7733Z" fill="#D6B11E"/>
<path d="M55.1581 57.5629C58.3612 57.5629 60.9578 56.3034 60.9578 54.7497C60.9578 53.1959 58.3612 51.9364 55.1581 51.9364C51.955 51.9364 49.3583 53.1959 49.3583 54.7497C49.3583 56.3034 51.955 57.5629 55.1581 57.5629Z" fill="#AF8E2F"/>
<path d="M55.1577 57.3533C58.3608 57.3533 60.9575 56.0937 60.9575 54.54C60.9575 52.9863 58.3608 51.7267 55.1577 51.7267C51.9546 51.7267 49.3579 52.9863 49.3579 54.54C49.3579 56.0937 51.9546 57.3533 55.1577 57.3533Z" fill="#FFD840"/>
<path d="M55.1578 56.7054C57.7052 56.7054 59.7702 55.7359 59.7702 54.54C59.7702 53.3441 57.7052 52.3747 55.1578 52.3747C52.6105 52.3747 50.5455 53.3441 50.5455 54.54C50.5455 55.7359 52.6105 56.7054 55.1578 56.7054Z" fill="#FFD325"/>
<path d="M53.8331 54.7359L53.1104 54.3475L53.6753 54.0502L54.3979 54.4386C54.7389 54.6208 55.2987 54.6208 55.6464 54.4386C55.9942 54.2547 56.001 53.9574 55.66 53.7752L54.9051 53.3697L55.47 53.0724L56.2249 53.4779C56.8695 53.8251 56.8576 54.3888 56.1994 54.7359C55.5396 55.0831 54.4794 55.0831 53.8331 54.7359Z" fill="#AF8E2F"/>
<path d="M56.5623 55.2309L53.9907 53.8492L54.5556 53.5518L57.1255 54.9336L56.5623 55.2309Z" fill="#AF8E2F"/>
<path d="M57.475 54.7497L54.9034 53.368L55.4682 53.0707L58.0399 54.4524L57.475 54.7497Z" fill="#AF8E2F"/>
<path d="M53.6481 56.0076L53.9009 54.3785L53.1138 54.3492L52.917 55.6158L53.6481 56.0076Z" fill="#AF8E2F"/>
<path d="M50.4192 52.5797C51.0005 52.8549 51.4001 53.2773 51.6727 53.807C51.9454 53.2773 52.3467 52.8533 52.928 52.5781C52.3467 52.3029 51.9454 51.8804 51.6727 51.3508C51.4001 51.8804 51.0005 52.3045 50.4192 52.5797Z" fill="#FFD325"/>
</g>
<path d="M44.9034 43.1206H15.243C14.5165 43.1206 13.9276 43.7187 13.9276 44.4565V64.9617C13.9276 65.6995 14.5165 66.2976 15.243 66.2976H44.9034C45.6299 66.2976 46.2189 65.6995 46.2189 64.9617V44.4565C46.2189 43.7187 45.6299 43.1206 44.9034 43.1206Z" fill="#1D478E"/>
<path d="M45.2393 45.5266V63.8932C45.2393 64.6701 44.6191 65.3012 43.8527 65.3012H41.7601V45.3098H15.709C15.3856 45.3098 15.1238 45.044 15.1238 44.7155C15.1238 44.387 15.3856 44.1212 15.709 44.1212H43.8527C44.6178 44.1212 45.2393 44.751 45.2393 45.5293V45.5266Z" fill="#161742"/>
<path d="M23.7388 49.6026C26.6194 49.3529 28.7548 46.7847 28.5084 43.8663C28.2619 40.948 25.7269 38.7846 22.8463 39.0343C19.9657 39.284 17.8303 41.8522 18.0767 44.7705C18.3232 47.6889 20.8581 49.8522 23.7388 49.6026Z" fill="#D6B11E"/>
<path d="M27.9962 45.9731C28.8982 43.3415 27.5237 40.4674 24.9262 39.5536C22.3287 38.6398 19.4918 40.0323 18.5898 42.6638C17.6877 45.2954 19.0622 48.1695 21.6597 49.0833C24.2573 49.9971 27.0942 48.6046 27.9962 45.9731Z" fill="#FFD840"/>
<path d="M23.5037 48.3146C25.6835 48.1966 27.3561 46.3107 27.2396 44.1024C27.123 41.8941 25.2615 40.1996 23.0817 40.3176C20.902 40.4357 19.2294 42.3216 19.3459 44.5299C19.4624 46.7382 21.3239 48.4327 23.5037 48.3146Z" fill="#FFD325"/>
<path d="M22.4876 44.6375L21.7734 44.2972L22.0516 43.7112L22.7658 44.0515C23.1034 44.213 23.5173 44.0497 23.6886 43.6871C23.8599 43.3262 23.7259 42.9018 23.3883 42.7402L22.6403 42.3827L22.9185 41.7967L23.6665 42.1542C24.3061 42.4584 24.5605 43.2626 24.2365 43.9483C23.9108 44.6323 23.1271 44.9417 22.4876 44.6375Z" fill="#AF8E2F"/>
<path d="M24.7372 44.5465L22.1893 43.3332L22.4692 42.7472L25.0154 43.9605L24.7372 44.5465Z" fill="#AF8E2F"/>
<path d="M25.188 43.5979L22.6401 42.3846L22.9183 41.7986L25.4662 43.0119L25.188 43.5979Z" fill="#AF8E2F"/>
<path d="M22.947 46.4989L22.372 44.1118L21.7748 44.2991L22.2227 46.1535L22.947 46.4989Z" fill="#AF8E2F"/>
<g style="mix-blend-mode:screen" opacity="0.23">
<path d="M28.3449 45.7012L26.2906 39.9715C25.8632 39.6691 25.3831 39.425 24.8572 39.2601C24.808 39.2446 24.7571 39.2326 24.7079 39.2188L27.6104 47.3166C27.8971 46.8939 28.1278 46.4213 28.2872 45.9057C28.3076 45.8387 28.3262 45.7699 28.3449 45.7029V45.7012Z" fill="#FFD325"/>
</g>
<g style="mix-blend-mode:screen" opacity="0.23">
<path d="M19.6171 40.5421L22.8655 49.6023C23.7782 49.6797 24.6772 49.5078 25.4796 49.1332L21.9207 39.2034C21.0556 39.4422 20.26 39.9028 19.6188 40.5421H19.6171Z" fill="#FFD325"/>
</g>
<path d="M42.839 45.3329H15.2027C14.4985 45.3329 13.9276 45.9126 13.9276 46.6278V66.9218C13.9276 67.637 14.4985 68.2168 15.2027 68.2168H42.839C43.5433 68.2168 44.1142 67.637 44.1142 66.9218V46.6278C44.1142 45.9126 43.5433 45.3329 42.839 45.3329Z" fill="#1D478E"/>
<path d="M25.453 67.3158H16.3738C15.6906 67.3158 15.1349 66.7514 15.1349 66.0576V64.2828H15.2785V66.0576C15.2785 66.671 15.7698 67.1699 16.3738 67.1699H25.453V67.3158Z" fill="#161742"/>
<path d="M42.9072 49.936H42.7636V47.4893C42.7636 46.8759 42.2723 46.377 41.6683 46.377H29.8132V46.2311H41.6683C42.3515 46.2311 42.9072 46.7954 42.9072 47.4893V49.936Z" fill="#161742"/>
<path d="M15.2812 58.8887H15.1349V62.3428H15.2812V58.8887Z" fill="#161742"/>
<path d="M46.181 52.0745V58.5411C46.181 59.3535 45.534 60.0119 44.7326 60.0119H39.2239C37.4628 60.0119 36.0346 58.5616 36.0346 56.7732C36.0346 55.879 36.3917 55.0693 36.9689 54.4831C37.546 53.897 38.3434 53.5344 39.2239 53.5344H44.7326C44.7729 53.5344 44.8132 53.5358 44.8534 53.5399C45.5971 53.4772 46.1796 52.8447 46.1796 52.0745H46.181Z" fill="#161742"/>
<path d="M39.9854 57.844C40.5667 57.2537 40.5667 56.2965 39.9854 55.7062C39.4041 55.1158 38.4615 55.1158 37.8802 55.7062C37.2989 56.2965 37.2989 57.2537 37.8802 57.844C38.4615 58.4344 39.4041 58.4344 39.9854 57.844Z" fill="white"/>
<path d="M16.3498 67.3807C18.905 66.0064 19.8824 62.7942 18.5327 60.2061C17.1831 57.6179 14.0175 56.6339 11.4623 58.0082C8.90702 59.3825 7.92967 62.5947 9.27931 65.1828C10.629 67.7709 13.7945 68.7549 16.3498 67.3807Z" fill="#D6B11E"/>
<path d="M18.8727 62.3484C18.6905 59.568 16.3196 57.4687 13.5773 57.6596C10.8349 57.8505 8.75951 60.2592 8.94172 63.0397C9.12393 65.8201 11.4948 67.9194 14.2371 67.7285C16.9795 67.5376 19.0549 65.1289 18.8727 62.3484Z" fill="#FFD840"/>
<path d="M15.6379 66.2886C17.5987 65.3139 18.4126 62.9136 17.4557 60.9274C16.4988 58.9411 14.1336 58.1211 12.1727 59.0958C10.2119 60.0705 9.39802 62.4708 10.3549 64.457C11.3118 66.4433 13.677 67.2633 15.6379 66.2886Z" fill="#FFD325"/>
<path d="M13.2876 63.3079L12.4994 63.2784L12.53 62.6285L13.3182 62.658C13.6911 62.6725 14.0092 62.3578 14.0274 61.956C14.0462 61.5557 13.7596 61.2183 13.3867 61.2037L12.5607 61.1719L12.5913 60.522L13.4173 60.5538C14.123 60.5797 14.6666 61.2189 14.6322 61.9787C14.5956 62.7377 13.9933 63.3337 13.2876 63.3079Z" fill="#AF8E2F"/>
<path d="M15.3233 62.3303L12.5114 62.2259L12.5436 61.5753L15.3539 61.6804L15.3233 62.3303Z" fill="#AF8E2F"/>
<path d="M15.3736 61.278L12.5617 61.1736L12.5923 60.5237L15.4042 60.6281L15.3736 61.278Z" fill="#AF8E2F"/>
<path d="M14.4268 64.8383L12.9791 62.8697L12.5016 63.2793L13.6272 64.8081L14.4268 64.8383Z" fill="#AF8E2F"/>
<g style="mix-blend-mode:screen" opacity="0.23">
<path d="M19.088 61.9599L14.9929 57.5025C14.4831 57.3939 13.9474 57.36 13.3999 57.4171C13.3486 57.4224 13.2972 57.4316 13.2466 57.4384L19.0335 63.7386C19.1347 63.2356 19.1652 62.7089 19.1136 62.171C19.1066 62.1013 19.0973 62.0306 19.0887 61.9615L19.088 61.9599Z" fill="#FFD325"/>
</g>
<g style="mix-blend-mode:screen" opacity="0.23">
<path d="M9.07073 60.6789L15.5464 67.7273C16.4161 67.4359 17.1775 66.9206 17.7719 66.257L10.6759 58.5315C9.97155 59.0951 9.4165 59.8351 9.07229 60.6782L9.07073 60.6789Z" fill="#FFD325"/>
</g>
<path d="M53.6236 16.4101C54.3004 17.3261 56.0103 17.2608 57.8899 16.386L54.8568 12.2718C53.4964 13.8495 52.9484 15.4941 53.6236 16.4101Z" fill="#AF8E2F"/>
<path d="M55.964 11.1668L59.2498 15.6212C59.4584 15.4855 59.6654 15.3428 59.8723 15.1882L56.5509 10.6838C56.3473 10.8402 56.1523 11.0018 55.9657 11.165L55.964 11.1668Z" fill="#AF8E2F"/>
<path d="M62.2364 8.45372L52.9447 15.4882L53.759 16.5923L63.0508 9.55778L62.2364 8.45372Z" fill="#AF8E2F"/>
<path d="M62.9143 9.37601C62.3647 8.63187 61.1331 8.53563 59.6811 8.99449L62.3579 12.6241C63.2043 11.3437 63.4622 10.1201 62.9143 9.37429V9.37601Z" fill="#AF8E2F"/>
<path d="M54.8548 12.2718L57.8878 16.386C58.3357 16.1781 58.792 15.9203 59.2483 15.623L55.9625 11.1685C55.552 11.5259 55.1788 11.8972 54.8548 12.2735V12.2718Z" fill="#D6B11E"/>
<path d="M56.6072 10.641C56.5868 10.6564 56.5699 10.6719 56.5495 10.6856L59.871 15.19C59.8913 15.1745 59.91 15.1625 59.9303 15.147C60.96 14.3668 61.7912 13.4852 62.3595 12.6259L59.6827 8.99631C58.709 9.30393 57.6386 9.86246 56.6089 10.641H56.6072Z" fill="#D6B11E"/>
<path d="M59.4358 14.4742C62.0016 12.5316 63.3374 9.94797 62.4194 8.70337C61.5013 7.45876 58.6771 8.02453 56.1112 9.96705C53.5454 11.9096 52.2096 14.4932 53.1276 15.7378C54.0457 16.9824 56.8699 16.4167 59.4358 14.4742Z" fill="#AF8E2F"/>
<path d="M59.3116 14.3061C61.8774 12.3636 63.2132 9.77988 62.2952 8.53528C61.3772 7.29068 58.5529 7.85644 55.9871 9.79896C53.4212 11.7415 52.0854 14.3251 53.0035 15.5697C53.9215 16.8144 56.7457 16.2486 59.3116 14.3061Z" fill="#FFD840"/>
<path d="M58.9284 13.7871C60.9689 12.2423 62.0503 10.2134 61.3437 9.25543C60.637 8.29746 58.41 8.77318 56.3695 10.318C54.329 11.8628 53.2477 13.8917 53.9543 14.8497C54.6609 15.8076 56.8879 15.3319 58.9284 13.7871Z" fill="#FFD325"/>
<path d="M56.7036 13.0158L55.8962 13.143L56.1727 12.5621L56.9801 12.435C57.3618 12.3748 57.8096 12.0345 57.981 11.6771C58.1523 11.3196 57.981 11.0773 57.5993 11.1375L56.7545 11.2698L57.031 10.6889L57.8758 10.5566C58.5967 10.4432 58.9224 10.902 58.5984 11.5808C58.2744 12.258 57.4246 12.9024 56.7036 13.0158Z" fill="#AF8E2F"/>
<path d="M59.1821 11.7578L56.3068 12.2098L56.5833 11.6289L59.4586 11.177L59.1821 11.7578Z" fill="#AF8E2F"/>
<path d="M59.63 10.8178L56.7547 11.2715L57.0312 10.6907L59.9065 10.2387L59.63 10.8178Z" fill="#AF8E2F"/>
<path d="M57.3092 14.1484L56.5476 12.6893L55.8996 13.143L56.4899 14.2756L57.3092 14.1484Z" fill="#AF8E2F"/>
<defs>
<clipPath id="clip0_3632_11435">
<rect width="75.9436" height="72.24" fill="white" transform="translate(0.0566101 -9.15527e-05)"/>
</clipPath>
</defs>
</svg>
