<svg width="16" height="16" viewBox="0 0 16 16" fill="none" xmlns="http://www.w3.org/2000/svg">
<path d="M13.6842 2.18799H13.5131C13.1985 2.18799 12.9435 2.44986 12.9435 2.77289V4.55882H14.2538V2.77289C14.2537 2.44986 13.9987 2.18799 13.6842 2.18799Z" fill="#EE3D4B"/>
<path d="M2.48721 2.18799H2.31614C2.00158 2.18799 1.74658 2.44986 1.74658 2.77289V4.55882H3.0568V2.77289C3.05677 2.44986 2.80177 2.18799 2.48721 2.18799Z" fill="#EE3D4B"/>
<path d="M11.2471 6.01346H4.7529C4.36171 6.01346 4.04462 5.68783 4.04462 5.28611V2.17106C4.04462 0.973949 4.99302 0 6.15874 0H9.84121C11.0069 0 11.9553 0.973949 11.9553 2.17106V5.28611C11.9553 5.6878 11.6382 6.01346 11.2471 6.01346ZM5.46118 4.55875H10.5388V2.17106C10.5388 1.77608 10.2259 1.45471 9.84121 1.45471H6.15874C5.77412 1.45471 5.46118 1.77608 5.46118 2.17106V4.55875Z" fill="#EE3D4B"/>
<path d="M10.4703 1.45471H9.841C10.2257 1.45471 10.5386 1.77608 10.5386 2.17106V4.55874H11.1679V2.17106C11.1679 1.77608 10.8549 1.45471 10.4703 1.45471Z" fill="#EE3D4B"/>
<path d="M4.67393 5.28614V2.17106C4.67393 0.973949 5.62234 0 6.78805 0H6.15874C4.99302 0 4.04462 0.973949 4.04462 2.17106V5.2861C4.04462 5.68783 4.36171 6.01346 4.7529 6.01346H5.38221C4.99102 6.01349 4.67393 5.68783 4.67393 5.28614Z" fill="#EE3D4B"/>
<path d="M13.4427 3.62329H2.55731C1.14494 3.62329 0 4.79906 0 6.24945V13.3736C0 14.824 1.14494 15.9998 2.55731 15.9998H13.4427C14.8551 15.9998 16 14.824 16 13.3736V6.24945C16 4.79906 14.8551 3.62329 13.4427 3.62329Z" fill="#FFF3EB"/>
<path d="M3.48216 15.9999H2.55722C1.14484 15.9999 0 14.8239 0 13.3738V6.24938C0 4.79897 1.14484 3.62329 2.55722 3.62329H3.48216C2.06978 3.62329 0.924625 4.79897 0.924625 6.24938V13.3738C0.924625 14.8239 2.06978 15.9999 3.48216 15.9999Z" fill="#E2E2E2"/>
<path d="M11.5665 8.18161H9.58729V6.14911C9.58729 5.78173 9.29726 5.48389 8.93951 5.48389H7.06088C6.70313 5.48389 6.4131 5.78173 6.4131 6.14911V8.18161H4.43391C4.07616 8.18161 3.78613 8.47945 3.78613 8.84683V10.7761C3.78613 11.1434 4.07616 11.4413 4.43391 11.4413H6.4131V13.4738C6.4131 13.8412 6.70313 14.139 7.06088 14.139H8.93951C9.29726 14.139 9.58729 13.8412 9.58729 13.4738V11.4413H11.5665C11.9242 11.4413 12.2143 11.1434 12.2143 10.7761V8.84683C12.2143 8.47945 11.9242 8.18161 11.5665 8.18161Z" fill="#EE3D4B"/>
</svg>
