<svg width="18" height="18" viewBox="0 0 18 18" fill="none" xmlns="http://www.w3.org/2000/svg">
<path d="M16.8197 2.0505L12.9471 5.9231H15.1538C15.4937 5.9231 15.7692 6.19864 15.7692 6.53849C15.7692 6.87833 15.4937 7.15387 15.1538 7.15387H11.4616C11.1217 7.15387 10.8462 6.87833 10.8462 6.53849V2.84619C10.8462 2.50634 11.1217 2.2308 11.4616 2.2308C11.8014 2.2308 12.0769 2.50634 12.0769 2.84619V5.05295L15.9495 1.18035C16.19 0.939885 16.5794 0.939885 16.8197 1.18035C17.06 1.42081 17.0602 1.81019 16.8197 2.0505ZM6.53849 2.2308C6.19864 2.2308 5.9231 2.50634 5.9231 2.84619V5.05295L2.0505 1.18035C1.81004 0.939885 1.42065 0.939885 1.18035 1.18035C0.940039 1.42081 0.939885 1.81019 1.18035 2.0505L5.05295 5.9231H2.84619C2.50634 5.9231 2.2308 6.19864 2.2308 6.53849C2.2308 6.87833 2.50634 7.15387 2.84619 7.15387H6.53849C6.87833 7.15387 7.15387 6.87833 7.15387 6.53849V2.84619C7.15387 2.50634 6.87833 2.2308 6.53849 2.2308ZM16.8197 15.9495L12.9471 12.0769H15.1538C15.4937 12.0769 15.7692 11.8014 15.7692 11.4616C15.7692 11.1217 15.4937 10.8462 15.1538 10.8462H11.4616C11.1217 10.8462 10.8462 11.1217 10.8462 11.4616V15.1539C10.8462 15.4937 11.1217 15.7692 11.4616 15.7692C11.8014 15.7692 12.0769 15.4937 12.0769 15.1539V12.9471L15.9495 16.8197C16.0697 16.9398 16.2272 17 16.3846 17C16.542 17 16.6995 16.9398 16.8197 16.8197C17.0602 16.5794 17.0602 16.1898 16.8197 15.9495ZM6.53849 10.8462H2.84619C2.50634 10.8462 2.2308 11.1217 2.2308 11.4616C2.2308 11.8014 2.50634 12.0769 2.84619 12.0769H5.05295L1.18035 15.9495C0.939885 16.19 0.939885 16.5794 1.18035 16.8197C1.3005 16.9398 1.45804 17 1.61542 17C1.77281 17 1.93034 16.9398 2.0505 16.8197L5.9231 12.9471V15.1539C5.9231 15.4937 6.19864 15.7692 6.53849 15.7692C6.87833 15.7692 7.15387 15.4937 7.15387 15.1539V11.4616C7.15387 11.1217 6.87833 10.8462 6.53849 10.8462Z" fill="#161742" stroke="#161742" stroke-width="0.2"/>
</svg>
