<svg width="24" height="24" viewBox="0 0 24 24" fill="none" xmlns="http://www.w3.org/2000/svg">
<mask id="mask0_0_7670" style="mask-type:alpha" maskUnits="userSpaceOnUse" x="0" y="0" width="24" height="24">
<rect width="24" height="24" fill="#D9D9D9"/>
</mask>
<g mask="url(#mask0_0_7670)">
<path d="M13.7963 20.8037C13.8603 20.8294 13.918 20.8422 13.9693 20.8422C14.0206 20.8422 14.0783 20.8294 14.1423 20.8037L19.9578 19.0114C19.9385 18.7076 19.8477 18.4887 19.6856 18.3547C19.5232 18.2207 19.3396 18.1537 19.1346 18.1537H14.3901C13.9672 18.1537 13.5841 18.137 13.2406 18.1037C12.8969 18.0704 12.5449 17.9909 12.1846 17.8654L10.4713 17.3134C10.3345 17.2686 10.2361 17.1789 10.1763 17.0442C10.1165 16.9095 10.109 16.7762 10.1538 16.6442C10.1988 16.5122 10.2844 16.4157 10.4106 16.3547C10.5369 16.2939 10.6693 16.2859 10.8078 16.3307L12.3578 16.8922C12.6796 17.0012 13.0357 17.0711 13.4261 17.1019C13.8164 17.1326 14.2993 17.1499 14.8748 17.1537H15.1346C15.1346 16.8422 15.0772 16.5903 14.9626 16.3979C14.8479 16.2056 14.6835 16.0717 14.4693 15.9962L8.71556 13.8844C8.67706 13.8718 8.64173 13.8622 8.60956 13.8557C8.57756 13.8494 8.54231 13.8462 8.50381 13.8462H6.40381V18.6537L13.7963 20.8037ZM13.5406 21.7922L6.40381 19.7037C6.30898 20.0987 6.10739 20.4134 5.79906 20.6479C5.49073 20.8826 5.15389 20.9999 4.78856 20.9999H4.01931C3.57514 20.9999 3.19481 20.8418 2.87831 20.5254C2.56198 20.2091 2.40381 19.8288 2.40381 19.3844V14.4614C2.40381 14.0173 2.56198 13.637 2.87831 13.3207C3.19481 13.0044 3.57514 12.8462 4.01931 12.8462H8.48181C8.57481 12.8462 8.67064 12.8567 8.76931 12.8777C8.86798 12.8989 8.95964 12.9236 9.04431 12.9519L14.8231 15.0692C15.1807 15.205 15.4887 15.4493 15.7471 15.8019C16.0054 16.1544 16.1346 16.605 16.1346 17.1537H19.1346C19.7372 17.1537 20.1988 17.3422 20.5193 17.7192C20.8398 18.096 21.0001 18.5742 21.0001 19.1537C21.0001 19.3537 20.9459 19.5226 20.8376 19.6604C20.7292 19.7983 20.5712 19.9019 20.3636 19.9712L14.4788 21.7864C14.334 21.8274 14.1808 21.8512 14.0193 21.8577C13.8578 21.864 13.6982 21.8422 13.5406 21.7922ZM3.40381 19.3844C3.40381 19.5639 3.46156 19.7114 3.57706 19.8269C3.69239 19.9423 3.83981 19.9999 4.01931 19.9999H4.78856C4.96806 19.9999 5.11548 19.9519 5.23081 19.8557C5.34614 19.7595 5.40381 19.6024 5.40381 19.3844V13.8462H4.01931C3.83981 13.8462 3.69239 13.9039 3.57706 14.0192C3.46156 14.1345 3.40381 14.2819 3.40381 14.4614V19.3844Z" fill="#1D478E"/>
<path d="M14.6884 12.375C13.3801 12.375 12.2716 11.921 11.363 11.013C10.4543 10.1049 10 8.99677 10 7.68844C10 6.3801 10.454 5.27161 11.362 4.36297C12.2701 3.45432 13.3782 3 14.6866 3C15.9949 3 17.1034 3.45401 18.012 4.36203C18.9207 5.27005 19.375 6.37823 19.375 7.68656C19.375 8.9949 18.921 10.1034 18.013 11.012C17.1049 11.9207 15.9968 12.375 14.6884 12.375ZM14.6875 11.4375C15.7292 11.4375 16.6146 11.0729 17.3438 10.3438C18.0729 9.61458 18.4375 8.72917 18.4375 7.6875C18.4375 6.64583 18.0729 5.76042 17.3438 5.03125C16.6146 4.30208 15.7292 3.9375 14.6875 3.9375C13.6458 3.9375 12.7604 4.30208 12.0312 5.03125C11.3021 5.76042 10.9375 6.64583 10.9375 7.6875C10.9375 8.72917 11.3021 9.61458 12.0312 10.3438C12.7604 11.0729 13.6458 11.4375 14.6875 11.4375Z" fill="#1D478E"/>
<path d="M16.0236 6.70368C16.1685 6.70368 16.2718 6.8441 16.2287 6.9824C16.2008 7.0722 16.1177 7.13337 16.0236 7.13337H13.2905C13.1461 7.13337 13.0428 6.99371 13.0851 6.85561C13.1127 6.76533 13.1961 6.70368 13.2905 6.70368H16.0236ZM15.1882 10.4781C15.0883 10.4918 14.9883 10.4546 14.9216 10.379L13.096 8.30936C13.0603 8.26883 13.0402 8.2169 13.0393 8.16287C13.0371 8.0359 13.1395 7.93183 13.2664 7.93183H13.9056C14.1685 7.93183 14.3927 7.89504 14.5783 7.82172C14.7638 7.74706 14.9054 7.63641 15.0031 7.48978C15.1026 7.34342 15.1524 7.16188 15.1524 6.94542C15.1524 6.62638 15.0487 6.37581 14.8411 6.19343C14.6356 6.00947 14.3404 5.91762 13.9562 5.91762H13.2847C13.1437 5.91762 13.0432 5.78062 13.0856 5.64607C13.113 5.55914 13.1936 5.50002 13.2847 5.50002H13.9562C14.327 5.50002 14.6372 5.56179 14.8867 5.68559C15.1379 5.80913 15.3268 5.9802 15.4531 6.19826C15.5814 6.41472 15.6453 6.66367 15.6453 6.94537C15.6453 7.20909 15.5839 7.4465 15.4609 7.65811C15.3393 7.86812 15.1513 8.03489 14.8967 8.15869C14.6438 8.28088 14.3211 8.34185 13.9283 8.34185C13.8575 8.34185 13.8198 8.42539 13.8666 8.4785L15.3481 10.158C15.4551 10.2794 15.3721 10.4705 15.2104 10.4751L15.1882 10.4781ZM16.0433 5.5C16.1875 5.5 16.2906 5.63942 16.2484 5.77729C16.2207 5.86777 16.137 5.9294 16.0424 5.92897L13.7986 5.91886C13.6595 5.91823 13.5597 5.78462 13.5985 5.65102C13.6245 5.56155 13.7064 5.5 13.7996 5.5L16.0433 5.5Z" fill="#1D478E"/>
</g>
</svg>
