<svg width="17" height="17" viewBox="0 0 17 17" fill="none" xmlns="http://www.w3.org/2000/svg">
<path d="M15.5715 8.46145C15.4367 8.46145 15.3185 8.41354 15.217 8.3177C15.1155 8.22187 15.0567 8.10312 15.0405 7.96145C14.8238 6.28329 14.1183 4.84712 12.924 3.65295C11.7298 2.45862 10.2937 1.75312 8.6155 1.53645C8.47383 1.51979 8.35508 1.46145 8.25925 1.36145C8.16342 1.26145 8.1155 1.14062 8.1155 0.998954C8.1155 0.857287 8.16417 0.738703 8.2615 0.643203C8.359 0.547703 8.477 0.510203 8.6155 0.530703C10.5872 0.738369 12.2666 1.53579 13.6538 2.92295C15.0409 4.31012 15.8384 5.98962 16.0462 7.96145C16.0667 8.09995 16.0285 8.21795 15.9315 8.31545C15.8347 8.41279 15.7147 8.46145 15.5715 8.46145ZM11.4718 8.46145C11.3624 8.46145 11.2654 8.42495 11.1807 8.35195C11.0961 8.27879 11.0327 8.18129 10.9905 8.05945C10.8187 7.46079 10.5132 6.93554 10.074 6.4837C9.635 6.0317 9.11608 5.7262 8.51725 5.5672C8.39542 5.5252 8.298 5.46212 8.225 5.37795C8.152 5.29395 8.1155 5.19304 8.1155 5.0752C8.1155 4.90704 8.17125 4.77329 8.28275 4.67395C8.39425 4.57462 8.52758 4.54545 8.68275 4.58645C9.50075 4.77662 10.2056 5.1677 10.7973 5.7597C11.3888 6.35187 11.7865 7.06337 11.9905 7.8942C12.0315 8.04937 11.9973 8.1827 11.888 8.2942C11.7787 8.4057 11.6399 8.46145 11.4718 8.46145ZM14.9307 17C13.2449 17 11.5167 16.5779 9.74625 15.7337C7.97575 14.8894 6.33083 13.7044 4.8115 12.1787C3.29233 10.6532 2.11058 9.00837 1.26625 7.2442C0.422083 5.48004 0 3.75504 0 2.0692C0 1.7637 0.1 1.50912 0.3 1.30545C0.5 1.10179 0.75 0.999953 1.05 0.999953H3.523C3.79483 0.999953 4.032 1.08554 4.2345 1.2567C4.43717 1.42787 4.57442 1.64745 4.64625 1.91545L5.14225 4.29995C5.18842 4.57945 5.18008 4.8237 5.11725 5.0327C5.05442 5.2417 4.9435 5.41287 4.7845 5.5462L2.5905 7.5922C3.00067 8.33704 3.45417 9.02904 3.951 9.6682C4.44783 10.3074 4.97767 10.9128 5.5405 11.4845C6.12117 12.0653 6.74617 12.6054 7.4155 13.1047C8.08467 13.604 8.81925 14.0755 9.61925 14.5192L11.7578 12.3422C11.9206 12.1665 12.1036 12.0509 12.3068 11.9952C12.5099 11.9394 12.7346 11.9281 12.9808 11.9615L15.0845 12.3922C15.3563 12.4589 15.5769 12.5958 15.7462 12.803C15.9154 13.01 16 13.2475 16 13.5155V15.95C16 16.25 15.8982 16.5 15.6945 16.7C15.4908 16.9 15.2362 17 14.9307 17ZM2.12125 6.6537L4.0405 4.88845C4.1045 4.83712 4.14617 4.76662 4.1655 4.67695C4.18467 4.58712 4.18142 4.50379 4.15575 4.42695L3.7115 2.3077C3.68583 2.20504 3.641 2.12812 3.577 2.07695C3.51283 2.02562 3.4295 1.99995 3.327 1.99995H1.275C1.198 1.99995 1.13392 2.02562 1.08275 2.07695C1.03142 2.12812 1.00575 2.1922 1.00575 2.2692C1.02492 2.95254 1.132 3.66595 1.327 4.40945C1.52183 5.15312 1.78658 5.9012 2.12125 6.6537ZM10.5712 14.9885C11.2467 15.3231 11.9669 15.5705 12.7318 15.7307C13.4964 15.891 14.1628 15.977 14.7308 15.9885C14.8077 15.9885 14.8718 15.9628 14.923 15.9115C14.9743 15.8601 15 15.796 15 15.7192V13.7115C15 13.609 14.9743 13.5256 14.923 13.4615C14.8718 13.3975 14.7949 13.3526 14.6923 13.327L12.8422 12.948C12.7654 12.9223 12.6982 12.9191 12.6405 12.9385C12.5827 12.9576 12.5218 12.9993 12.4578 13.0635L10.5712 14.9885Z" fill="#404040"/>
</svg>
