<svg xmlns="http://www.w3.org/2000/svg" width="12.442" height="15" viewBox="0 0 12.442 15">
  <g id="Next_EMI" data-name="Next EMI" transform="translate(-37.261 -0.003)">
    <g id="Group_1490" data-name="Group 1490" transform="translate(37.261 0.003)">
      <g id="Group_1489" data-name="Group 1489">
        <path id="Path_2388" data-name="Path 2388" d="M44.268,3.267C45.409,2.308,46.172.149,45.7.054a11.349,11.349,0,0,0-2.632.522C42.143.689,41.132-.43,40.564.193c-.461.507.331,2.35,1.57,3.154-3.7,1.817-8.894,10.939.172,11.6C54.851,15.864,48.569,5.038,44.268,3.267Zm.823,4.388h.455a.413.413,0,0,1,0,.826h-.455a2.065,2.065,0,0,1-2.022,1.651h-.654l2.6,2.6a.413.413,0,1,1-.584.583l-3.3-3.3a.392.392,0,0,1-.09-.134.411.411,0,0,1,0-.316.412.412,0,0,1,.381-.255H43.07a1.236,1.236,0,0,0,1.162-.826H41.418a.413.413,0,0,1,0-.826h2.813a1.236,1.236,0,0,0-1.162-.826H41.418a.413.413,0,0,1,0-.826h4.128a.413.413,0,0,1,0,.826H44.71A2.034,2.034,0,0,1,45.091,7.655Z" transform="translate(-37.261 -0.003)" fill="rgba(111,110,110,0.87)"/>
      </g>
    </g>
  </g>
</svg>
