<svg xmlns="http://www.w3.org/2000/svg" width="322" height="60.789" viewBox="0 0 322 60.789">
  <g id="Group_7310" data-name="Group 7310" transform="translate(-22 -202)">
    <rect id="Rectangle_2358" data-name="Rectangle 2358" width="322" height="60" rx="4" transform="translate(22 202)" fill="#1d478e"/>
    <g id="_50th_birthday-amico" data-name="50th birthday-amico" transform="translate(3.089 152.07)" opacity="0.32">
      <g id="freepik--Confetti--inject-5" transform="translate(16.911 20.93)">
        <g id="freepik--confetti--inject-5-2" data-name="freepik--confetti--inject-5">
          <path id="Path_8075" data-name="Path 8075" d="M367.689,170.221s4.995-2.455,5.675-7.566l-3.273-3.135s.213,3.188-4.251,7.375Z" transform="translate(-114.793 -80.433)" fill="#af8e2f"/>
          <path id="Path_8076" data-name="Path 8076" d="M473.933,126.613s-2.519,4.973-7.641,5.579l-3.092-3.3s3.188.244,7.439-4.187Z" transform="translate(-156.626 -65.573)" fill="#af8e2f"/>
          <path id="Path_8079" data-name="Path 8079" d="M211.93,92.733s2.519,4.963,7.651,5.569L222.663,95s-3.773.584-8-3.847Z" transform="translate(25.062 -44.19)" fill="#af8e2f"/>
          <path id="Path_8081" data-name="Path 8081" d="M290.358,53.183s-.978,5.484-5.717,7.535l-3.9-2.274A14.4,14.4,0,0,0,287.3,52.46Z" transform="translate(-135.515 -17.961)" fill="#af8e2f"/>
          <path id="Path_8082" data-name="Path 8082" d="M439.025,101.848s-5.526.691-8.895-3.188l1.063-4.41s1.583,2.795,7.62,3.815Z" transform="translate(-250.699 -20.034)" fill="#f39cc0"/>
          <path id="Path_8086" data-name="Path 8086" d="M42.37,131.848s5.526.68,8.895-3.188L50.2,124.25s-1.583,2.784-7.62,3.815Z" transform="translate(-29.557 -50.032)" fill="#f39cc0"/>
          <path id="Path_8087" data-name="Path 8087" d="M171.93,149.978s5.526.691,8.895-3.188l-1.063-4.41s-1.583,2.795-7.609,3.826Z" transform="translate(-113.493 -101.95)" fill="#f39cc0"/>
          <path id="Path_8090" data-name="Path 8090" d="M211.56,45.682c5.377-.531,12.636,8.438,7.386,12.752-2.912,2.391-9.277,1.35-9.214-3.124a.574.574,0,0,1,.478-.5c4.251-.967,8.406.85,7.683,5.77a9.49,9.49,0,0,1-8.884,7.758c-.255,0-.159-.446,0-.489,3.677-.776,7.152-3.061,7.864-6.993a5.016,5.016,0,0,0-.786-4.07,3.943,3.943,0,0,0-1.923-1.275c-.627-.2-2.9-.563-3.39-.053-1,1.063,1.7,2.763,2.5,3.039a5.685,5.685,0,0,0,4.857-.457c2.232-1.562,1.679-4.506.606-6.589-1.456-2.806-4.017-5.1-7.3-5.218-.3,0-.149-.563.085-.584Z" transform="translate(-79.728 13.477)" fill="#f39cc0"/>
          <path id="Path_8091" data-name="Path 8091" d="M379.662,94.929c-5.367.531-12.625-8.438-7.375-12.752,2.912-2.4,9.277-1.36,9.214,3.114a.574.574,0,0,1-.478.5c-4.251.967-8.406-.84-7.683-5.77a9.447,9.447,0,0,1,8.874-7.779c.255,0,.17.436,0,.478-3.677.776-7.152,3.061-7.864,6.993a5.016,5.016,0,0,0,.786,4.07,4.038,4.038,0,0,0,1.924,1.286c.627.191,2.891.553,3.39,0,1-1.063-1.7-2.763-2.5-3.039a5.728,5.728,0,0,0-4.857.457c-2.232,1.562-1.679,4.506-.606,6.589,1.456,2.816,4.017,5.1,7.3,5.218.3,0,.149.563-.1.584Z" transform="translate(-93.176 -39.342)" fill="#f39cc0"/>
          <path id="Path_8092" data-name="Path 8092" d="M32.171,97.425c3.826,2.125,5.972,10.255,1.4,12.667-3.889,2.04-10.276-.106-7.97-5.175a.351.351,0,0,1,.287-.213c4.538,0,4.8,5.314,3.135,8.417-2.593,4.825-7.779,3.56-10.9,0-.106-.117,0-.457.191-.329,2.71,2.242,6.7,4.591,9.479,1.063,1.477-1.86,2.317-5.314.755-7.439a2.774,2.774,0,0,0-1.679-1.148c-1.467-.159-1.583,1.445-1,2.614.925,1.86,3.549,2.3,5.409,2.125,6.376-.723,4.1-9.32.755-12.349-.106-.1,0-.383.138-.3Z" transform="translate(-12.08 -64.063)" fill="#f39cc0"/>
        </g>
      </g>
    </g>
  </g>
</svg>
