<svg width="238" height="174" viewBox="0 0 238 174" fill="none" xmlns="http://www.w3.org/2000/svg">
<g opacity="0.88">
<g opacity="0.54">
<path d="M75.2781 103.967C75.6306 103.967 75.9163 103.681 75.9163 103.328C75.9163 102.975 75.6306 102.689 75.2781 102.689C74.9257 102.689 74.64 102.975 74.64 103.328C74.64 103.681 74.9257 103.967 75.2781 103.967Z" fill="#161742"/>
<path d="M95.9411 104.885C96.3548 104.885 96.6901 104.549 96.6901 104.134C96.6901 103.72 96.3548 103.384 95.9411 103.384C95.5275 103.384 95.1921 103.72 95.1921 104.134C95.1921 104.549 95.5275 104.885 95.9411 104.885Z" fill="#161742"/>
<path d="M57.3458 132.661C57.6579 132.661 57.9109 132.408 57.9109 132.095C57.9109 131.782 57.6579 131.529 57.3458 131.529C57.0336 131.529 56.7806 131.782 56.7806 132.095C56.7806 132.408 57.0336 132.661 57.3458 132.661Z" fill="#161742"/>
<path d="M87.6163 122.443C87.9717 122.443 88.2598 122.155 88.2598 121.799C88.2598 121.443 87.9717 121.154 87.6163 121.154C87.2609 121.154 86.9728 121.443 86.9728 121.799C86.9728 122.155 87.2609 122.443 87.6163 122.443Z" fill="#161742"/>
<path d="M73.6016 129.084C73.9346 129.084 74.2046 128.814 74.2046 128.48C74.2046 128.147 73.9346 127.876 73.6016 127.876C73.2686 127.876 72.9987 128.147 72.9987 128.48C72.9987 128.814 73.2686 129.084 73.6016 129.084Z" fill="#161742"/>
<path d="M58.1185 105.684C58.5456 105.684 58.8918 105.338 58.8918 104.91C58.8918 104.482 58.5456 104.135 58.1185 104.135C57.6914 104.135 57.3452 104.482 57.3452 104.91C57.3452 105.338 57.6914 105.684 58.1185 105.684Z" fill="#161742"/>
<path d="M66.6335 99.9824C67.1442 99.9824 67.5582 99.5676 67.5582 99.056C67.5582 98.5443 67.1442 98.1295 66.6335 98.1295C66.1228 98.1295 65.7087 98.5443 65.7087 99.056C65.7087 99.5676 66.1228 99.9824 66.6335 99.9824Z" fill="#161742"/>
<path d="M89.7385 110.19C90.0133 110.19 90.236 109.967 90.236 109.691C90.236 109.416 90.0133 109.193 89.7385 109.193C89.4637 109.193 89.241 109.416 89.241 109.691C89.241 109.967 89.4637 110.19 89.7385 110.19Z" fill="#161742"/>
<path d="M63.5992 78.6444C63.9605 78.6444 64.2535 78.3509 64.2535 77.9888C64.2535 77.6268 63.9605 77.3333 63.5992 77.3333C63.2378 77.3333 62.9448 77.6268 62.9448 77.9888C62.9448 78.3509 63.2378 78.6444 63.5992 78.6444Z" fill="#161742"/>
<path d="M78.8505 81.2667C79.1297 81.2667 79.3561 81.0399 79.3561 80.7601C79.3561 80.4803 79.1297 80.2535 78.8505 80.2535C78.5712 80.2535 78.3448 80.4803 78.3448 80.7601C78.3448 81.0399 78.5712 81.2667 78.8505 81.2667Z" fill="#161742"/>
<path d="M55.2344 89.5167C55.4779 89.5167 55.6752 89.319 55.6752 89.0751C55.6752 88.8312 55.4779 88.6335 55.2344 88.6335C54.991 88.6335 54.7937 88.8312 54.7937 89.0751C54.7937 89.319 54.991 89.5167 55.2344 89.5167Z" fill="#161742"/>
<path d="M81.9352 125.705C82.3623 125.705 82.7085 125.358 82.7085 124.93C82.7085 124.502 82.3623 124.155 81.9352 124.155C81.5081 124.155 81.1619 124.502 81.1619 124.93C81.1619 125.358 81.5081 125.705 81.9352 125.705Z" fill="#161742"/>
<path d="M64.3439 129.082C64.7546 129.082 65.0875 128.749 65.0875 128.337C65.0875 127.926 64.7546 127.593 64.3439 127.593C63.9333 127.593 63.6003 127.926 63.6003 128.337C63.6003 128.749 63.9333 129.082 64.3439 129.082Z" fill="#161742"/>
<path d="M52.8946 121.846C53.2545 121.846 53.5462 121.553 53.5462 121.193C53.5462 120.832 53.2545 120.54 52.8946 120.54C52.5347 120.54 52.2429 120.832 52.2429 121.193C52.2429 121.553 52.5347 121.846 52.8946 121.846Z" fill="#161742"/>
</g>
<g opacity="0.54">
<path d="M210.208 158.087C210.52 158.087 210.773 157.834 210.773 157.521C210.773 157.208 210.52 156.955 210.208 156.955C209.896 156.955 209.643 157.208 209.643 157.521C209.643 157.834 209.896 158.087 210.208 158.087Z" fill="#161742"/>
<path d="M226.468 154.507C226.801 154.507 227.071 154.237 227.071 153.903C227.071 153.57 226.801 153.299 226.468 153.299C226.135 153.299 225.865 153.57 225.865 153.903C225.865 154.237 226.135 154.507 226.468 154.507Z" fill="#161742"/>
<path d="M217.206 154.509C217.617 154.509 217.95 154.175 217.95 153.764C217.95 153.352 217.617 153.019 217.206 153.019C216.795 153.019 216.463 153.352 216.463 153.764C216.463 154.175 216.795 154.509 217.206 154.509Z" fill="#161742"/>
<path d="M205.757 147.272C206.117 147.272 206.409 146.979 206.409 146.619C206.409 146.258 206.117 145.966 205.757 145.966C205.397 145.966 205.106 146.258 205.106 146.619C205.106 146.979 205.397 147.272 205.757 147.272Z" fill="#161742"/>
</g>
<g opacity="0.54">
<path d="M33.0947 158.105C33.7398 158.105 34.2628 157.581 34.2628 156.934C34.2628 156.288 33.7398 155.764 33.0947 155.764C32.4496 155.764 31.9266 156.288 31.9266 156.934C31.9266 157.581 32.4496 158.105 33.0947 158.105Z" fill="#161742"/>
<path d="M61.6634 65.3435C62.2219 65.3435 62.6746 64.8899 62.6746 64.3304C62.6746 63.7709 62.2219 63.3173 61.6634 63.3173C61.1049 63.3173 60.6521 63.7709 60.6521 64.3304C60.6521 64.8899 61.1049 65.3435 61.6634 65.3435Z" fill="#161742"/>
<path d="M34.7952 63.0384C35.3746 63.0384 35.8443 62.5678 35.8443 61.9873C35.8443 61.4069 35.3746 60.9363 34.7952 60.9363C34.2158 60.9363 33.7461 61.4069 33.7461 61.9873C33.7461 62.5678 34.2158 63.0384 34.7952 63.0384Z" fill="#161742"/>
<path d="M33.7456 39.0056C34.1055 39.0056 34.3973 38.7134 34.3973 38.3528C34.3973 37.9922 34.1055 37.7 33.7456 37.7C33.3857 37.7 33.094 37.9922 33.094 38.3528C33.094 38.7134 33.3857 39.0056 33.7456 39.0056Z" fill="#161742"/>
</g>
<g opacity="0.54">
<path d="M196.214 67.4583C196.566 67.4583 196.852 67.1721 196.852 66.819C196.852 66.4659 196.566 66.1797 196.214 66.1797C195.861 66.1797 195.575 66.4659 195.575 66.819C195.575 67.1721 195.861 67.4583 196.214 67.4583Z" fill="#161742"/>
<path d="M220.092 57.4148C220.505 57.4148 220.841 57.0788 220.841 56.6644C220.841 56.25 220.505 55.9141 220.092 55.9141C219.678 55.9141 219.343 56.25 219.343 56.6644C219.343 57.0788 219.678 57.4148 220.092 57.4148Z" fill="#161742"/>
<path d="M178.281 96.1519C178.593 96.1519 178.846 95.8984 178.846 95.5857C178.846 95.273 178.593 95.0195 178.281 95.0195C177.969 95.0195 177.716 95.273 177.716 95.5857C177.716 95.8984 177.969 96.1519 178.281 96.1519Z" fill="#161742"/>
<path d="M196.213 81.0632C196.569 81.0632 196.857 80.7746 196.857 80.4185C196.857 80.0624 196.569 79.7738 196.213 79.7738C195.858 79.7738 195.57 80.0624 195.57 80.4185C195.57 80.7746 195.858 81.0632 196.213 81.0632Z" fill="#161742"/>
<path d="M194.54 92.5751C194.873 92.5751 195.143 92.3047 195.143 91.971C195.143 91.6374 194.873 91.3669 194.54 91.3669C194.207 91.3669 193.937 91.6374 193.937 91.971C193.937 92.3047 194.207 92.5751 194.54 92.5751Z" fill="#161742"/>
<path d="M179.054 69.1752C179.481 69.1752 179.828 68.8284 179.828 68.4005C179.828 67.9726 179.481 67.6257 179.054 67.6257C178.627 67.6257 178.281 67.9726 178.281 68.4005C178.281 68.8284 178.627 69.1752 179.054 69.1752Z" fill="#161742"/>
<path d="M206.571 116.03C206.846 116.03 207.068 115.807 207.068 115.532C207.068 115.256 206.846 115.033 206.571 115.033C206.296 115.033 206.073 115.256 206.073 115.532C206.073 115.807 206.296 116.03 206.571 116.03Z" fill="#161742"/>
<path d="M193.183 29.3443C193.544 29.3443 193.837 29.0508 193.837 28.6888C193.837 28.3267 193.544 28.0332 193.183 28.0332C192.821 28.0332 192.528 28.3267 192.528 28.6888C192.528 29.0508 192.821 29.3443 193.183 29.3443Z" fill="#161742"/>
<path d="M193.034 53.2128C193.313 53.2128 193.539 52.986 193.539 52.7063C193.539 52.4265 193.313 52.1997 193.034 52.1997C192.755 52.1997 192.528 52.4265 192.528 52.7063C192.528 52.986 192.755 53.2128 193.034 53.2128Z" fill="#161742"/>
<path d="M218.562 25.9274C219.047 25.9274 219.44 25.5333 219.44 25.047C219.44 24.5608 219.047 24.1666 218.562 24.1666C218.076 24.1666 217.683 24.5608 217.683 25.047C217.683 25.5333 218.076 25.9274 218.562 25.9274Z" fill="#161742"/>
<path d="M165.88 57.9164C166.123 57.9164 166.32 57.7187 166.32 57.4749C166.32 57.231 166.123 57.0333 165.88 57.0333C165.636 57.0333 165.439 57.231 165.439 57.4749C165.439 57.7187 165.636 57.9164 165.88 57.9164Z" fill="#161742"/>
<path d="M211.684 75.9827C212.111 75.9827 212.457 75.6359 212.457 75.208C212.457 74.7801 212.111 74.4332 211.684 74.4332C211.257 74.4332 210.911 74.7801 210.911 75.208C210.911 75.6359 211.257 75.9827 211.684 75.9827Z" fill="#161742"/>
<path d="M185.279 92.5734C185.69 92.5734 186.022 92.2399 186.022 91.8284C186.022 91.417 185.69 91.0835 185.279 91.0835C184.868 91.0835 184.535 91.417 184.535 91.8284C184.535 92.2399 184.868 92.5734 185.279 92.5734Z" fill="#161742"/>
<path d="M173.831 85.3366C174.19 85.3366 174.482 85.0443 174.482 84.6837C174.482 84.3232 174.19 84.0309 173.831 84.0309C173.471 84.0309 173.179 84.3232 173.179 84.6837C173.179 85.0443 173.471 85.3366 173.831 85.3366Z" fill="#161742"/>
</g>
</g>
<path d="M155.764 54.1333C155.764 84.0304 130.858 108.267 100.134 108.267C69.4102 108.267 44.5037 84.0304 44.5037 54.1333C44.5037 24.2363 69.4102 0 100.134 0C130.858 0 155.764 24.2363 155.764 54.1333Z" fill="#E8F6FD"/>
<path opacity="0.2" d="M122.386 174C186.238 174 238 168.807 238 162.4C238 155.994 186.238 150.8 122.386 150.8C58.5341 150.8 6.77185 155.994 6.77185 162.4C6.77185 168.807 58.5341 174 122.386 174Z" fill="#5BC4F0"/>
<path d="M147.921 161.232C141.894 161.232 137.871 160.965 137.287 160.926C133.174 160.637 130.08 157.073 130.369 152.97C130.659 148.861 134.243 145.758 138.333 146.058C151.811 146.987 189.992 146.42 204.706 132.742C208.546 129.166 210.421 124.952 210.438 119.853C210.455 113.403 206.053 110.795 196.014 106.38C188.451 103.055 179.881 99.2854 178.044 90.2444C176.392 82.1042 180.866 73.1521 192.992 60.3079C195.819 57.3165 200.543 57.1775 203.537 60.0021C206.531 62.8267 206.67 67.5474 203.843 70.5388C191.985 83.0995 192.636 87.1195 192.669 87.2863C192.964 88.7543 198.857 91.3453 202.024 92.741C211.334 96.8333 225.402 103.022 225.358 119.897C225.335 129.227 221.802 137.223 214.862 143.673C198.245 159.108 165.022 161.243 147.927 161.243L147.921 161.232Z" fill="#FFD325"/>
<path d="M161.884 76.0328C161.884 76.0328 176.203 88.7714 179.136 102.489C182.068 116.206 184.756 134.838 187.438 139.726C190.121 144.613 205.897 149.64 205.057 157.513C204.217 165.386 184.628 162.089 174.761 162.089C164.895 162.089 110.87 161.505 92.7173 162.072C74.5255 162.645 62.956 161.633 63.9076 158.063C64.8592 154.488 65.2042 152.548 70.9862 150.201C72.895 149.428 70.3128 145.258 69.7229 141.105C69.1331 136.946 71.8543 126.843 80.7917 122.945C89.729 119.047 89.2392 112.708 90.6973 107.949C92.1553 103.189 96.5627 80.4977 99.9685 76.1385C103.374 71.7848 120.965 67.4978 120.965 67.4978L161.879 76.0217L161.884 76.0328Z" fill="#FFD325"/>
<path d="M97.7222 137.434C100.126 139.03 105.546 145.38 107.043 148.427C108.54 151.474 113.877 151.88 115.229 154.165C122.063 165.703 133.572 161.56 135.542 160.487C137.512 159.414 139.743 156.312 134.929 147.51C130.116 138.708 129.047 126.592 129.047 126.592L97.7222 137.434Z" fill="#FFD325"/>
<path d="M142.874 128.004C142.874 128.004 144.098 131.813 145.701 133.27C145.701 133.27 144.683 139.998 142.34 145.408C139.997 150.818 136.97 158.653 142.568 160.827C148.166 163.006 157.51 157.985 161.901 150.902C166.291 143.818 170.415 135.088 171.144 134.565C171.873 134.043 178.312 135.661 175.88 131.435L142.874 127.999V128.004Z" fill="#FFD325"/>
<path d="M159.822 153.709C158.959 152.269 156.505 150.974 152.737 148.121C149.003 145.291 144.579 145.569 142.058 146.064C139.765 151.435 137.194 158.736 142.57 160.832C147.395 162.711 155.002 159.236 159.822 153.709Z" fill="white"/>
<path d="M134.932 147.51C134.386 146.509 133.886 145.469 133.435 144.402C131.003 143.451 127.553 142.628 123.807 143.429C116.695 144.947 112.366 147.571 113.757 151.636C113.941 152.164 114.119 152.681 114.291 153.181C114.686 153.47 115.009 153.793 115.232 154.16C122.066 165.697 133.574 161.555 135.544 160.482C137.514 159.409 139.745 156.306 134.932 147.504V147.51Z" fill="white"/>
<path d="M145.532 162.094C144.374 162.094 143.283 161.911 142.298 161.527C140.79 160.938 139.733 159.942 139.16 158.563C137.724 155.127 139.51 150.067 141.658 145.119C143.628 140.57 144.658 134.999 144.908 133.531C143.334 131.818 142.221 128.388 142.17 128.232C142.042 127.843 142.26 127.42 142.655 127.298C143.044 127.164 143.467 127.387 143.59 127.776C143.912 128.782 145.014 131.635 146.211 132.719C146.394 132.886 146.483 133.136 146.444 133.381C146.4 133.659 145.387 140.264 143.033 145.702C141.775 148.61 139.154 154.654 140.545 157.979C140.963 158.986 141.72 159.692 142.849 160.131C148.008 162.15 156.962 157.462 161.275 150.506C163.629 146.709 165.938 142.372 167.63 139.202C169.75 135.227 170.29 134.265 170.719 133.954C171.114 133.67 171.698 133.681 172.666 133.703C173.535 133.72 175.338 133.753 175.644 133.242C175.694 133.158 175.816 132.797 175.249 131.802C175.043 131.446 175.165 130.99 175.521 130.784C175.872 130.578 176.334 130.701 176.54 131.057C177.246 132.285 177.369 133.247 176.929 133.998C176.183 135.26 174.214 135.221 172.639 135.193C172.277 135.182 171.787 135.177 171.57 135.205C171.186 135.705 170.045 137.84 168.949 139.903C167.252 143.089 164.926 147.454 162.549 151.29C158.615 157.64 151.275 162.083 145.548 162.083L145.532 162.094Z" fill="#161742"/>
<path d="M128.381 162.868C123.856 162.868 118.453 161.066 114.591 154.549C114.09 153.704 112.749 153.098 111.324 152.459C109.443 151.614 107.306 150.652 106.377 148.756C104.969 145.892 99.6321 139.592 97.3115 138.052C96.9665 137.824 96.8719 137.363 97.1001 137.018C97.3282 136.673 97.7957 136.584 98.1352 136.807C100.706 138.514 106.165 144.947 107.712 148.094C108.408 149.506 110.2 150.313 111.931 151.097C113.578 151.836 115.131 152.537 115.871 153.788C122.972 165.781 135.064 159.898 135.181 159.837C136.272 159.242 136.89 158.23 137.034 156.824C137.257 154.633 136.327 151.625 134.274 147.866C129.444 139.031 128.347 127.16 128.303 126.659C128.264 126.248 128.57 125.886 128.982 125.853C129.36 125.831 129.755 126.12 129.789 126.531C129.8 126.648 130.902 138.597 135.582 147.154C137.78 151.18 138.77 154.483 138.52 156.974C138.281 159.37 136.962 160.566 135.899 161.144C134.469 161.928 131.653 162.868 128.381 162.868Z" fill="#161742"/>
<path d="M131.635 162.512C131.245 162.512 130.917 162.211 130.889 161.817C130.717 159.309 127.851 156.256 127.823 156.223C127.539 155.923 127.55 155.45 127.851 155.172C128.151 154.889 128.624 154.9 128.903 155.2C129.036 155.339 132.169 158.669 132.375 161.716C132.403 162.128 132.091 162.484 131.68 162.512C131.663 162.512 131.646 162.512 131.629 162.512H131.635Z" fill="#161742"/>
<path d="M135.505 161.194C135.115 161.194 134.787 160.893 134.759 160.499C134.586 157.991 131.721 154.938 131.693 154.905C131.409 154.605 131.426 154.132 131.721 153.854C132.021 153.571 132.494 153.582 132.772 153.882C132.906 154.021 136.039 157.352 136.245 160.399C136.273 160.81 135.961 161.166 135.549 161.194C135.533 161.194 135.516 161.194 135.499 161.194H135.505Z" fill="#161742"/>
<path d="M140.673 160.321C140.634 160.321 140.595 160.321 140.556 160.309C140.15 160.248 139.872 159.865 139.933 159.459C140.345 156.779 142.632 153.281 142.726 153.137C142.955 152.792 143.416 152.697 143.761 152.92C144.106 153.148 144.201 153.609 143.973 153.954C143.951 153.987 141.769 157.329 141.407 159.687C141.352 160.054 141.035 160.321 140.673 160.321Z" fill="#161742"/>
<path d="M144.063 161.5C144.024 161.5 143.985 161.5 143.946 161.489C143.54 161.427 143.262 161.044 143.323 160.638C143.746 157.902 146.534 154.705 146.651 154.566C146.924 154.255 147.397 154.227 147.703 154.499C148.014 154.772 148.042 155.244 147.775 155.55C147.747 155.578 145.154 158.558 144.803 160.866C144.748 161.233 144.43 161.5 144.069 161.5H144.063Z" fill="#161742"/>
<path d="M203.356 161.182C203.106 161.182 202.866 161.055 202.722 160.832C201.024 158.091 198.17 156.94 198.142 156.929C197.758 156.779 197.569 156.345 197.719 155.961C197.869 155.578 198.298 155.389 198.687 155.539C198.821 155.589 202.021 156.868 203.991 160.043C204.208 160.393 204.102 160.854 203.751 161.071C203.629 161.149 203.49 161.182 203.356 161.182Z" fill="#161742"/>
<path d="M204.838 158.674C204.587 158.674 204.348 158.546 204.203 158.324C202.495 155.566 199.657 154.432 199.623 154.421C199.239 154.271 199.05 153.837 199.2 153.453C199.351 153.07 199.779 152.881 200.169 153.031C200.302 153.081 203.502 154.36 205.472 157.534C205.689 157.885 205.583 158.346 205.233 158.563C205.11 158.641 204.971 158.674 204.838 158.674Z" fill="#161742"/>
<path d="M64.8433 161.027C64.8433 161.027 64.7988 161.027 64.7765 161.027C64.3647 160.994 64.0586 160.632 64.0976 160.221C64.515 155.278 68.7332 153.298 68.9113 153.215C69.2897 153.048 69.7293 153.215 69.8963 153.582C70.0688 153.954 69.9074 154.399 69.5346 154.571C69.3899 154.638 65.9229 156.29 65.5834 160.349C65.5501 160.738 65.2273 161.032 64.8433 161.032V161.027Z" fill="#161742"/>
<path d="M67.8953 162.2C67.8953 162.2 67.8508 162.2 67.8285 162.2C67.4167 162.166 67.1106 161.805 67.1496 161.394C67.5725 156.35 73.093 154.96 73.3323 154.905C73.7385 154.816 74.1336 155.055 74.2338 155.455C74.334 155.856 74.0891 156.256 73.6884 156.356C73.4936 156.406 68.9749 157.563 68.641 161.521C68.6076 161.911 68.2849 162.205 67.9009 162.205L67.8953 162.2Z" fill="#161742"/>
<path d="M107.104 44.0609C107.104 44.0609 148.618 20.2463 164.178 54.2473C174.367 76.5106 170.121 81.4704 138.056 83.372C97.6934 85.7684 79.2233 80.6308 107.104 44.0665V44.0609Z" fill="#FFD325"/>
<path d="M125.894 62.4223C125.816 61.4579 127.948 60.4885 130.666 60.2586C133.383 60.0286 135.647 60.6272 135.731 61.5912C135.809 62.5555 130.964 65.2717 130.964 65.2717C130.964 65.2717 125.977 63.3862 125.899 62.4218L125.894 62.4223Z" fill="#161742"/>
<path d="M124.551 74.9861C124.163 75.0174 123.811 74.7389 123.752 74.3476C123.691 73.9397 123.978 73.5595 124.382 73.5048C130.823 72.5845 130.073 64.8855 130.036 64.5594C129.992 64.1501 130.292 63.7857 130.701 63.7416C131.119 63.7247 131.481 63.9967 131.52 64.4064C131.867 67.6752 130.871 74.0867 124.591 74.9885C124.574 74.9898 124.557 74.9912 124.546 74.9921L124.551 74.9861Z" fill="#161742"/>
<path d="M137.654 74.9854C137.565 74.9926 137.475 74.9831 137.389 74.9565C133.982 73.9757 131.681 72.2979 130.55 69.9791C129.012 66.8285 130.249 63.6831 130.306 63.5559C130.459 63.1753 130.891 62.99 131.278 63.1429C131.658 63.2964 131.844 63.7277 131.691 64.1137C131.682 64.1368 130.651 66.7969 131.901 69.346C132.842 71.2616 134.826 72.6694 137.804 73.5285C138.199 73.6418 138.428 74.0585 138.314 74.4525C138.227 74.7607 137.959 74.9664 137.66 74.9905L137.654 74.9854Z" fill="#161742"/>
<path d="M143.922 39.1568C143.922 39.1568 153.728 22.9597 156.482 24.2386C159.237 25.523 168.341 35.4703 166.126 48.7927C163.911 62.1151 143.922 39.1512 143.922 39.1512V39.1568Z" fill="#FFD325"/>
<path d="M101.804 52.5459C101.804 52.5459 92.8445 35.8651 95.3543 34.147C97.8641 32.4289 109.367 32.7736 121.415 38.3617C133.675 44.0498 101.804 52.5403 101.804 52.5403V52.5459Z" fill="#FFD325"/>
<path d="M160.57 46.8913C160.57 46.8913 160.52 46.8913 160.492 46.8913C160.08 46.8468 159.785 46.4798 159.83 46.0739C160.52 39.4628 154.832 30.5775 154.771 30.4885C154.548 30.1438 154.649 29.6823 154.994 29.4599C155.339 29.2375 155.801 29.3376 156.023 29.6823C156.268 30.066 162.05 39.1069 161.31 46.2352C161.271 46.6188 160.948 46.9024 160.57 46.9024V46.8913Z" fill="#161742"/>
<path d="M152.058 39.335C152.024 39.335 151.985 39.335 151.952 39.3295C151.546 39.2739 151.262 38.8958 151.318 38.4899C151.924 34.1862 156.009 31.584 156.187 31.4784C156.543 31.256 156.999 31.3672 157.216 31.7119C157.433 32.0622 157.328 32.5182 156.983 32.7406C156.944 32.7628 153.31 35.0925 152.803 38.6956C152.753 39.0681 152.43 39.335 152.069 39.335H152.058Z" fill="#161742"/>
<path d="M101.473 52.2399C101.312 52.2399 101.15 52.1899 101.011 52.0787C100.689 51.8229 100.633 51.3558 100.883 51.0333C101.023 50.8554 104.339 46.663 109.114 43.7828C109.465 43.5715 109.921 43.6827 110.138 44.0385C110.349 44.3888 110.238 44.8503 109.882 45.0616C105.335 47.8028 102.085 51.9119 102.052 51.9564C101.907 52.1454 101.685 52.2399 101.462 52.2399H101.473Z" fill="#161742"/>
<path d="M112.381 41.7869C112.208 41.7869 112.036 41.7258 111.891 41.6034C107.695 37.9782 98.2237 37.9504 98.1013 37.9893C97.6895 37.9893 97.3556 37.6612 97.3556 37.2497C97.3556 36.8383 97.6839 36.5047 98.0957 36.4991C98.4575 36.4824 108.241 36.4769 112.871 40.4747C113.182 40.7416 113.216 41.2142 112.949 41.5256C112.804 41.698 112.592 41.7813 112.387 41.7813L112.381 41.7869Z" fill="#161742"/>
<path d="M140.612 55.1409C140.187 57.4235 140.92 59.4789 142.249 59.7221C143.579 59.9652 145 58.3131 145.425 56.0305C145.85 53.7478 145.117 51.6924 143.788 51.4493C142.458 51.2006 141.038 52.8583 140.612 55.1409Z" fill="#161742"/>
<path d="M117.013 55.0287C116.926 57.349 117.951 59.2754 119.302 59.322C120.654 59.3741 121.817 57.527 121.904 55.2068C121.992 52.8865 120.966 50.96 119.616 50.9134C118.265 50.8668 117.1 52.7085 117.013 55.0287Z" fill="#161742"/>
<path d="M202.376 152.114C202.154 152.114 201.931 152.014 201.781 151.819C200.301 149.879 190.618 142.873 187.011 140.332C186.678 140.093 186.594 139.631 186.833 139.292C187.073 138.958 187.535 138.875 187.874 139.114C188.408 139.492 201.046 148.4 202.972 150.919C203.222 151.247 203.161 151.714 202.833 151.964C202.699 152.07 202.538 152.12 202.382 152.12L202.376 152.114Z" fill="#161742"/>
<path d="M129.577 84.5617C111.925 84.5617 98.0234 79.9578 97.8564 79.9022C97.4669 79.7687 97.2554 79.3462 97.389 78.957C97.5225 78.5677 97.9455 78.3564 98.335 78.4899C98.5298 78.5566 118.007 84.9954 140.011 82.4933C140.401 82.4488 140.79 82.7435 140.835 83.1494C140.879 83.5608 140.584 83.9278 140.178 83.9723C136.555 84.3837 132.994 84.5561 129.577 84.5561V84.5617Z" fill="#161742"/>
<path d="M0.543077 128.566L36.286 138.097L0.543076 147.63L0.543077 128.566Z" fill="#FFD325"/>
<path d="M43.4892 94.7334L51.8226 108.252L27.282 94.7497L43.4892 94.7334Z" fill="#FFD325"/>
<path d="M23.0887 94.7351L34.9615 113.994L4.74497e-05 94.7596L23.0887 94.7351Z" fill="#FFD325"/>
<path d="M0.279631 99.4226L32.3236 128.566L0.279629 122.796L0.279631 99.4226Z" fill="#FFD325"/>
<path d="M43.8518 132.426C43.7162 131.394 43.7298 130.451 43.784 129.541C43.8383 128.632 43.94 127.75 44.0959 126.908C44.4079 125.218 44.869 123.63 45.4725 122.137C46.6659 119.137 48.3612 116.464 50.4226 114.034C52.4907 111.604 54.9319 109.426 57.8748 107.58C59.3395 106.65 60.9466 105.815 62.7096 105.082C63.5911 104.716 64.5269 104.383 65.5101 104.085C66.4934 103.786 67.5241 103.515 68.6904 103.338C68.826 104.377 68.8192 105.32 68.7717 106.229C68.7175 107.139 68.6158 108.021 68.4666 108.869C68.1615 110.559 67.6936 112.147 67.0901 113.647C65.8898 116.647 64.1946 119.321 62.1264 121.737C60.0515 124.16 57.6036 126.331 54.6539 128.184C53.1892 129.114 51.5821 129.948 49.8191 130.681C48.9375 131.048 48.0085 131.38 47.0253 131.686C46.0421 131.984 45.0182 132.256 43.8518 132.439V132.426Z" fill="#32B353"/>
<mask id="mask0_15_2592" style="mask-type:luminance" maskUnits="userSpaceOnUse" x="43" y="103" width="26" height="30">
<path d="M43.8518 132.426C43.7162 131.394 43.7298 130.451 43.784 129.541C43.8383 128.632 43.94 127.75 44.0959 126.908C44.4079 125.218 44.869 123.63 45.4725 122.137C46.6659 119.137 48.3612 116.464 50.4226 114.034C52.4907 111.604 54.9319 109.426 57.8748 107.58C59.3395 106.65 60.9466 105.815 62.7096 105.082C63.5911 104.716 64.5269 104.383 65.5101 104.085C66.4934 103.786 67.5241 103.515 68.6904 103.338C68.826 104.377 68.8192 105.32 68.7717 106.229C68.7175 107.139 68.6158 108.021 68.4666 108.869C68.1615 110.559 67.6936 112.147 67.0901 113.647C65.8898 116.647 64.1946 119.321 62.1264 121.737C60.0515 124.16 57.6036 126.331 54.6539 128.184C53.1892 129.114 51.5821 129.948 49.8191 130.681C48.9375 131.048 48.0085 131.38 47.0253 131.686C46.0421 131.984 45.0182 132.256 43.8518 132.439V132.426Z" fill="white"/>
</mask>
<g mask="url(#mask0_15_2592)">
<path d="M70.4937 116.253L70.4395 115.968L56.3148 118.065L62.004 111.401L76.4745 109.249L76.4135 108.964L62.2956 111.061L66.8456 105.727L66.5812 105.557L60.0579 113.199L60.2342 99.0287H59.9019L59.7189 113.593L54.0771 120.203L54.2534 106.032H53.9212L53.7381 120.596L48.0964 127.207L48.2727 113.043L47.9404 113.036L47.7573 127.6L45.3026 130.478L45.5671 130.654L50.0425 125.408L64.513 123.257L64.4587 122.972L50.3341 125.069L56.0233 118.404L70.4937 116.253Z" fill="#32B353"/>
</g>
<path opacity="0.1" d="M47.0249 131.672C48.0081 131.374 48.9371 131.034 49.8186 130.668C51.5816 129.935 53.1819 129.093 54.6534 128.17C57.5963 126.324 60.0442 124.146 62.126 121.723C64.2009 119.3 65.8962 116.626 67.0896 113.634C67.6931 112.134 68.1542 110.546 68.4662 108.856C68.6153 108.007 68.7238 107.132 68.7713 106.216C68.8255 105.306 68.8323 104.363 68.6899 103.325L43.8446 132.419C45.0109 132.242 46.0348 131.971 47.0181 131.666L47.0249 131.672Z" fill="#1D478E"/>
<path d="M43.5602 132.616C42.7939 131.503 42.204 130.39 41.6751 129.283C41.1394 128.177 40.6715 127.071 40.2646 125.965C39.4509 123.759 38.8339 121.56 38.3863 119.361C37.4777 114.97 37.1929 110.607 37.3692 106.25C37.5523 101.899 38.2032 97.556 39.478 93.2398C40.1087 91.0816 40.9156 88.9303 41.9124 86.7789C42.4142 85.7066 42.977 84.6344 43.6076 83.5621C44.2383 82.4898 44.9231 81.4243 45.7843 80.3656C46.5573 81.4786 47.1473 82.5916 47.683 83.6978C48.2187 84.804 48.6933 85.9102 49.1002 87.0165C49.9139 89.2221 50.5377 91.421 50.9853 93.6198C51.8871 98.0107 52.1719 102.375 51.9821 106.732C51.7854 111.082 51.1345 115.425 49.8529 119.741C49.2222 121.9 48.4153 124.051 47.4185 126.202C46.9167 127.275 46.3539 128.347 45.7301 129.419C45.1062 130.491 44.4213 131.557 43.5669 132.616H43.5602Z" fill="#32B353"/>
<mask id="mask1_15_2592" style="mask-type:luminance" maskUnits="userSpaceOnUse" x="37" y="80" width="16" height="53">
<path d="M43.5602 132.616C42.7939 131.503 42.204 130.39 41.6751 129.283C41.1394 128.177 40.6715 127.071 40.2646 125.965C39.4509 123.759 38.8339 121.56 38.3863 119.361C37.4777 114.97 37.1929 110.607 37.3692 106.25C37.5523 101.899 38.2032 97.556 39.478 93.2398C40.1087 91.0816 40.9156 88.9303 41.9124 86.7789C42.4142 85.7066 42.977 84.6344 43.6076 83.5621C44.2383 82.4898 44.9231 81.4243 45.7843 80.3656C46.5573 81.4786 47.1473 82.5916 47.683 83.6978C48.2187 84.804 48.6933 85.9102 49.1002 87.0165C49.9139 89.2221 50.5377 91.421 50.9853 93.6198C51.8871 98.0107 52.1719 102.375 51.9821 106.732C51.7854 111.082 51.1345 115.425 49.8529 119.741C49.2222 121.9 48.4153 124.051 47.4185 126.202C46.9167 127.275 46.3539 128.347 45.7301 129.419C45.1062 130.491 44.4213 131.557 43.5669 132.616H43.5602Z" fill="white"/>
</mask>
<g mask="url(#mask1_15_2592)">
<path d="M55.4674 94.2103L55.2368 93.9117L44.8213 106.684L45.3299 94.7193L56.0031 81.6348L55.7725 81.3362L45.357 94.1085L45.7639 84.5395L45.4316 84.5259L44.8485 98.2484L36.0197 81.5194L35.7417 81.7569L44.8213 98.961L44.3128 110.831L35.484 94.095L35.206 94.3325L44.2856 111.537L43.7839 123.406L34.9483 106.671L34.6703 106.908L43.75 124.112L43.533 129.277L43.8652 129.29L44.2653 119.87L54.9317 106.786L54.7079 106.487L44.2924 119.26L44.801 107.295L55.4674 94.2103Z" fill="#32B353"/>
</g>
<path opacity="0.1" d="M45.7229 129.412C46.3468 128.34 46.9096 127.275 47.4114 126.196C48.4082 124.051 49.2151 121.893 49.8457 119.735C51.1205 115.418 51.7783 111.082 51.9749 106.725C52.1648 102.375 51.88 98.004 50.9781 93.6131C50.5306 91.421 49.9135 89.2222 49.093 87.0097C48.6862 85.9035 48.2115 84.8041 47.6758 83.6911C47.1401 82.5849 46.5502 81.4719 45.7772 80.3589L43.5598 132.595C44.421 131.537 45.0991 130.464 45.7229 129.399V129.412Z" fill="#1D478E"/>
<path d="M43.2479 131.944C42.007 131.774 40.895 131.496 39.8304 131.191C38.7658 130.885 37.7486 130.539 36.7722 130.166C34.8328 129.406 33.0359 128.537 31.3745 127.573C28.0383 125.646 25.17 123.366 22.6543 120.814C20.1386 118.262 17.989 115.439 16.3005 112.263C15.4529 110.675 14.7409 108.992 14.1713 107.193C13.8865 106.291 13.656 105.354 13.4661 104.383C13.2763 103.413 13.1339 102.409 13.1271 101.302C14.3748 101.472 15.4868 101.743 16.5514 102.049C17.6228 102.354 18.64 102.694 19.6096 103.074C21.549 103.827 23.3459 104.696 25.0073 105.666C28.3435 107.594 31.205 109.881 33.714 112.439C36.2161 114.998 38.3657 117.821 40.0474 121.004C40.895 122.592 41.607 124.275 42.1766 126.073C42.4614 126.976 42.6987 127.906 42.8818 128.876C43.0716 129.847 43.214 130.851 43.2276 131.957L43.2479 131.944Z" fill="#32B353"/>
<mask id="mask2_15_2592" style="mask-type:luminance" maskUnits="userSpaceOnUse" x="13" y="101" width="31" height="31">
<path d="M43.2479 131.944C42.007 131.774 40.895 131.496 39.8304 131.191C38.7658 130.885 37.7486 130.539 36.7722 130.166C34.8328 129.406 33.0359 128.537 31.3745 127.573C28.0383 125.646 25.17 123.366 22.6543 120.814C20.1386 118.262 17.989 115.439 16.3005 112.263C15.4529 110.675 14.7409 108.992 14.1713 107.193C13.8865 106.291 13.656 105.354 13.4661 104.383C13.2763 103.413 13.1339 102.409 13.1271 101.302C14.3748 101.472 15.4868 101.743 16.5514 102.049C17.6228 102.354 18.64 102.694 19.6096 103.074C21.549 103.827 23.3459 104.696 25.0073 105.666C28.3435 107.594 31.205 109.881 33.714 112.439C36.2161 114.998 38.3657 117.821 40.0474 121.004C40.895 122.592 41.607 124.275 42.1766 126.073C42.4614 126.976 42.6987 127.906 42.8818 128.876C43.0716 129.847 43.214 130.851 43.2276 131.957L43.2479 131.944Z" fill="white"/>
</mask>
<g mask="url(#mask2_15_2592)">
<path d="M28.6965 103.332L28.3439 103.298L28.4252 116.64L21.529 109.616L21.4477 95.9546L21.0951 95.9207L21.1764 109.263L15.6568 103.644L15.4059 103.834L23.3192 111.89L6.63134 107.723L6.57031 108.021L23.7261 112.303L30.568 119.267L13.8802 115.1L13.8191 115.398L30.9749 119.681L37.8168 126.644L21.129 122.477L21.0679 122.775L38.2237 127.058L41.2005 130.091L41.4514 129.901L36.0267 124.37L35.9453 110.709L35.5927 110.675L35.674 124.017L28.7778 116.993L28.6965 103.332Z" fill="#32B353"/>
</g>
<path opacity="0.1" d="M42.8955 128.869C42.7056 127.899 42.4683 126.962 42.1902 126.067C41.6206 124.268 40.9086 122.585 40.061 120.997C38.3794 117.814 36.2298 114.991 33.7276 112.432C31.2187 109.874 28.3571 107.593 25.0209 105.659C23.3596 104.689 21.5627 103.827 19.6233 103.067C18.6536 102.694 17.6297 102.347 16.5651 102.042C15.5005 101.737 14.3884 101.465 13.1407 101.296L43.2548 131.944C43.2413 130.838 43.0989 129.84 42.909 128.863L42.8955 128.869Z" fill="#1D478E"/>
<path d="M59.7392 162.144H27.6112L24.3428 128.354H62.4651L59.7392 162.144Z" fill="#161742"/>
<path d="M64.2077 128.354H22.5931V134.041H64.2077V128.354Z" fill="#161742"/>
<path opacity="0.1" d="M24.8921 134.041H62.0109L61.2243 143.732L25.204 137.251L24.8921 134.041Z" fill="#1D478E"/>
</svg>
