<svg xmlns="http://www.w3.org/2000/svg" width="55.495" height="17" viewBox="0 0 55.495 17">
  <g id="Group_7276" data-name="Group 7276" transform="translate(-205.326 -698)">
    <g id="national-payments-corporation-of-india-npci-vector-logo" transform="translate(205.326 698)">
      <path id="Path_8809" data-name="Path 8809" d="M-70.928,193.9a1.388,1.388,0,0,1-.518.749,1.323,1.323,0,0,1-.832.305h-10.5a.753.753,0,0,1-.657-.305.831.831,0,0,1-.092-.749l2.34-8.435a1.422,1.422,0,0,1,.509-.749,1.3,1.3,0,0,1,.823-.305h10.507a.776.776,0,0,1,.675.305.819.819,0,0,1,.083.758l-.277,1H-79.372l-1.776,6.419h10.5Zm6.206-9.48h-2.1l-2.913,10.526h2.1Zm-31.716-.018h-2.1l-1.915,6.9-8.426-6.881-2.923,10.563h2.1l1.9-6.854L-99.378,195Zm13.68.305a.776.776,0,0,0-.675-.305H-94.957l-.573,2.063h10.489l-.61,2.2H-96.132l-1.748,6.271h2.1l1.165-4.208h9.434a1.323,1.323,0,0,0,.832-.305,1.439,1.439,0,0,0,.518-.749l1.165-4.218a.86.86,0,0,0-.092-.749" transform="translate(113.594 -184.4)" fill="#28387d"/>
      <path id="Path_8810" data-name="Path 8810" d="M411.423,184.5l2.655,5.281-5.577,5.272Z" transform="translate(-358.582 -184.491)" fill="#088c45"/>
      <path id="Path_8811" data-name="Path 8811" d="M391.232,184.5l2.645,5.281-5.577,5.272Z" transform="translate(-340.25 -184.491)" fill="#f37a21"/>
      <path id="Path_8812" data-name="Path 8812" d="M87.986,310.1c-.046-.055-.083-.111-.129-.166a1.9,1.9,0,0,0-.4-.351,1.156,1.156,0,0,0-.287-.139.875.875,0,0,0-.305-.046.952.952,0,0,0-.5.12.605.605,0,0,0-.277.361.285.285,0,0,0,0,.176v.009a.4.4,0,0,1,.009.046h-.351l-.046.166h.342l-.407,1.517h.25l.407-1.517h1.637l-.1.388h-1a.556.556,0,0,0-.111.018.12.12,0,0,0-.083.1c-.009.028,0,.074.111.213l.019.019c.092.111.157.166.2.166.065,0,.1-.028.111-.055l.074-.287h.638l-.259.962h.24l.407-1.517h.879l-.129.481h-.222c-.019,0-.028.009-.037.009a.107.107,0,0,0-.092.065c-.019.065.019.148.12.25a.4.4,0,0,0,.25.148.124.124,0,0,0,.12-.074.133.133,0,0,0,.019-.065l.222-.814h.583l-.407,1.517h.25l.407-1.517h.731l-.148.536h-.166a.231.231,0,0,0-.074.009.124.124,0,0,0-.083.083c-.009.046.028.12.12.222s.166.157.222.157a.119.119,0,0,0,.1-.046.069.069,0,0,0,.009-.046l.056-.213h.675l-.222.8h.24l.407-1.517h.324l.046-.166H87.986Zm3.8.166-.148.536h-.675l.148-.536Zm-5.281-.62a.529.529,0,0,1,.3-.092.9.9,0,0,1,.305.065c.055.028.111.056.157.083a1.185,1.185,0,0,1,.324.287l.028.028c.018.028.037.046.055.074h-1.35a.07.07,0,0,1-.009-.037v-.009a.3.3,0,0,1,.009-.157.462.462,0,0,1,.185-.24m-9.61.453h7.612l-.046.166h-.324l-.407,1.517h-.24l.259-.962h-.638l-.074.287a.112.112,0,0,1-.111.055c-.046,0-.1-.046-.2-.166-.12-.148-.129-.2-.12-.222a.155.155,0,0,1,.083-.1.465.465,0,0,1,.111-.019h1l.1-.388H82.261l-.407,1.517h-.24l.407-1.517h-.583l-.407,1.517h-.24l.277-1.036h-.7a.427.427,0,0,0-.213.046.2.2,0,0,0-.092.12.586.586,0,0,0,.129.481,1.517,1.517,0,0,0,.213.222l.019.018-.194.129-.009-.009a1.941,1.941,0,0,1-.24-.25.665.665,0,0,1-.157-.583.364.364,0,0,1,.176-.24.538.538,0,0,1,.305-.083h.814l.092-.324H79.542l-.407,1.517h-.25l.407-1.517h-.583l-.222.814a.174.174,0,0,1-.018.074.133.133,0,0,1-.12.074c-.074,0-.148-.046-.25-.148s-.139-.185-.12-.25a.1.1,0,0,1,.092-.065h.259l.129-.481h-.888l-.4,1.48a.37.37,0,0,1,.166.092.261.261,0,0,1,.065.268.5.5,0,0,1-.24.3.866.866,0,0,1-.453.111,1.069,1.069,0,0,1-.583-.167.81.81,0,0,1-.194-.176l-.019-.019.194-.157.009.018a.827.827,0,0,0,.148.157.663.663,0,0,0,.444.166.68.68,0,0,0,.277-.065.281.281,0,0,0,.157-.185.1.1,0,0,0-.028-.12.159.159,0,0,0-.139-.046.32.32,0,0,0-.185.065.71.71,0,0,0-.083.065l-.009.009-.157-.148.019-.009a1.354,1.354,0,0,1,.139-.083,1.042,1.042,0,0,1,.222-.074l.194-.712h-.592l-.055.222a.171.171,0,0,1-.019.065c-.018.037-.065.037-.1.037s-.083-.018-.231-.176-.157-.213-.148-.24a.155.155,0,0,1,.065-.074.185.185,0,0,1,.074-.028h.231l.139-.5a.106.106,0,0,0-.009-.093.245.245,0,0,0-.259,0,.184.184,0,0,0-.074.111.264.264,0,0,0,0,.12.032.032,0,0,1,.009.018l.019.028h-.259l-.009-.009c-.009-.018-.009-.037-.019-.046v-.009a.256.256,0,0,1,0-.12.4.4,0,0,1,.176-.231.676.676,0,0,1,.305-.074.363.363,0,0,1,.259.083.214.214,0,0,1,.065.222l-.129.481h.592l.157-.583h-.462Zm-4.7-.324a.538.538,0,0,0-.388-.333,1.043,1.043,0,0,0-.185-.018.755.755,0,0,0-.37.092.507.507,0,0,0-.213.3.459.459,0,0,0,.009.222.235.235,0,0,0,.018.065H66.491l-.046.166h1l-.1.379a.249.249,0,0,1-.1.139.351.351,0,0,1-.2.056.548.548,0,0,1-.129-.018c-.046-.019-.055-.037-.055-.046l-.1-.24-.222.111.009.019a.715.715,0,0,1,.055.139,3.741,3.741,0,0,0,.194.379A3.793,3.793,0,0,0,67,311.5a2.928,2.928,0,0,0,.222.277l.009.009.213-.139-.018-.019-.065-.065a.246.246,0,0,1-.046-.055c-.037-.046-.065-.083-.092-.12s-.065-.083-.092-.12l-.166-.287a.686.686,0,0,0,.324-.037.54.54,0,0,0,.2-.12.393.393,0,0,0,.092-.157l.111-.407h.638l-.407,1.517h.24l.407-1.517h.555l-.166.6a.287.287,0,0,0,.092.314.549.549,0,0,0,.379.12.607.607,0,0,0,.213-.037,1.312,1.312,0,0,0,.148-.046.414.414,0,0,0,.1.213.112.112,0,0,0,.046.046v.009a.725.725,0,0,0,.333.176l-.823.564h.361l.62-.481.324.481h.3l-.425-.546a.869.869,0,0,0,.287-.074,1.006,1.006,0,0,0,.351-.231l.018-.019-.185-.1-.009.009a.781.781,0,0,1-.573.231.5.5,0,0,1-.388-.148.33.33,0,0,1-.1-.278c0-.018.009-.037.009-.055s.009-.028.018-.046a.353.353,0,0,1,.139-.148.433.433,0,0,1,.259-.083h.7l.129-.49h.731l-.407,1.517h.24l.407-1.517h.8a.425.425,0,0,1,.065.092.309.309,0,0,1,.037.213.319.319,0,0,1-.157.2.5.5,0,0,1-.25.055.163.163,0,0,1-.056-.009.055.055,0,0,1-.037-.009c-.009,0-.028-.009-.037-.009H72.6v.018a.5.5,0,0,0,.083.425.566.566,0,0,0,.49.194h.009a1.075,1.075,0,0,0,.388-.074.9.9,0,0,0,.1-.046l-.129.472h.25l.407-1.517h.324l.046-.166H72.253a.563.563,0,0,0-.055-.305m1.193.573c-.009-.018-.018-.046-.037-.083h.629l-.213.777a.854.854,0,0,1-.148.111.791.791,0,0,1-.388.12h-.009a.331.331,0,0,1-.333-.157.365.365,0,0,1-.037-.139,1.012,1.012,0,0,0,.231-.065.5.5,0,0,0,.324-.342.275.275,0,0,0-.018-.222m-2.007-.7a.309.309,0,0,1,.213-.065.448.448,0,0,1,.166.028.423.423,0,0,1,.231.24.953.953,0,0,1,.065.25H71.31l-.028-.055v-.009a.415.415,0,0,1,0-.213.33.33,0,0,1,.1-.176m-1.563,1.341h0v.018a.4.4,0,0,1-.009.046.454.454,0,0,1-.065.028.7.7,0,0,1-.268.056h0a.352.352,0,0,1-.222-.065.181.181,0,0,1-.046-.185l.12-.462Zm1.239-.721-.083.314H70.45a.684.684,0,0,0-.333.083.166.166,0,0,0-.065.046.54.54,0,0,0-.129.12l-.481-.555H71.06Zm-8.213-.49a.537.537,0,0,0-.388-.333.957.957,0,0,0-.185-.018.67.67,0,0,0-.37.1.471.471,0,0,0-.213.3.459.459,0,0,0,.009.222.235.235,0,0,0,.019.065H57.14l-.046.166h.462l-.157.583h-.592l.129-.481a.2.2,0,0,0-.065-.222.379.379,0,0,0-.259-.083.676.676,0,0,0-.305.074.368.368,0,0,0-.176.231.263.263,0,0,0,0,.12.131.131,0,0,0,.019.055l.009.009h.231l-.028-.028c-.009-.009-.009-.009-.009-.018a.264.264,0,0,1,0-.12.184.184,0,0,1,.074-.111.213.213,0,0,1,.129-.037c.065,0,.111.009.129.037a.1.1,0,0,1,.009.093l-.139.509h-.222a.213.213,0,0,0-.083.028.1.1,0,0,0-.065.074c0,.018-.019.065.148.241.148.157.2.176.231.176s.083,0,.1-.037a.172.172,0,0,0,.018-.065l.055-.222h.592l-.2.749h.24l.407-1.517h.583l-.407,1.517h.25l.407-1.517h1.23l-.1.379a.249.249,0,0,1-.1.139.352.352,0,0,1-.2.055.545.545,0,0,1-.129-.018c-.046-.018-.055-.037-.055-.046l-.1-.241-.222.111.009.018c.019.046.037.092.065.148a3.741,3.741,0,0,0,.194.379,3.163,3.163,0,0,0,.213.314q.111.153.222.277l.009.009.213-.139-.019-.019c-.046-.046-.083-.092-.111-.12l-.037-.046a1.808,1.808,0,0,1-.148-.194l-.166-.287a.687.687,0,0,0,.324-.037.476.476,0,0,0,.2-.12.393.393,0,0,0,.092-.157l.111-.407h1.72l-.092.324h-.814a.538.538,0,0,0-.305.083.424.424,0,0,0-.176.24.665.665,0,0,0,.157.583,1.939,1.939,0,0,0,.24.25l.009.009.194-.129-.019-.018a1.516,1.516,0,0,1-.213-.222.528.528,0,0,1-.129-.481.2.2,0,0,1,.092-.12.454.454,0,0,1,.213-.046h.712l-.277,1.036h.24l.407-1.517h.583l-.407,1.517h.24l.407-1.517h.8a.242.242,0,0,1,.065.093.278.278,0,0,1,.037.2.338.338,0,0,1-.148.2.5.5,0,0,1-.25.055.163.163,0,0,1-.055-.009.034.034,0,0,1-.028-.009c-.009,0-.028-.009-.037-.009h-.018v.018a.444.444,0,0,0,.083.425.566.566,0,0,0,.49.194h.009a1.166,1.166,0,0,0,.4-.074.9.9,0,0,0,.1-.046l-.129.472h.24l.407-1.517h.324l.046-.166H62.9a.671.671,0,0,0-.055-.361m1.193.573c-.009-.018-.018-.046-.037-.083h.62l-.2.777a.854.854,0,0,1-.148.111.791.791,0,0,1-.388.12h-.009a.347.347,0,0,1-.333-.157.5.5,0,0,1-.037-.139,1.012,1.012,0,0,0,.231-.065.516.516,0,0,0,.324-.342.318.318,0,0,0-.018-.222m-2.007-.7a.309.309,0,0,1,.213-.065.448.448,0,0,1,.166.028.423.423,0,0,1,.231.24.778.778,0,0,1,.065.25h-.749c-.009-.018-.018-.046-.028-.065a.414.414,0,0,1,0-.213.245.245,0,0,1,.1-.176" transform="translate(-38.799 -297.839)" fill="#434345"/>
      <path id="Path_8813" data-name="Path 8813" d="M-131.2,349.785l.49-1.776.8,1.045c.018.028.046.065.065.092s.046.074.065.111l.333-1.184h.259l-.49,1.776-.814-1.064c-.018-.028-.037-.055-.065-.092a.342.342,0,0,1-.046-.1l-.333,1.193Zm3.394.009-.333-1.776-1.323,1.776h.3l.324-.444h.675l.074.444Zm-.592-1.064a.815.815,0,0,0,.055-.092c.018-.037.037-.065.055-.1v.111a.205.205,0,0,0,.009.083l.065.388h-.481Zm1.887-.416.065-.24h-1.184l-.065.24h.453l-.407,1.471h.277l.407-1.471Zm.139,1.471.472-1.711h-.277l-.472,1.711Zm2.294-.851a.73.73,0,0,0,.028-.342.692.692,0,0,0-.12-.3.7.7,0,0,0-.24-.194.765.765,0,0,0-.333-.065,1.041,1.041,0,0,0-.37.065,1.463,1.463,0,0,0-.351.194,1.352,1.352,0,0,0-.277.287,1.3,1.3,0,0,0-.166.342.738.738,0,0,0-.028.342.613.613,0,0,0,.12.287.622.622,0,0,0,.24.194.792.792,0,0,0,.333.065,1.354,1.354,0,0,0,.37-.065,1.1,1.1,0,0,0,.351-.194,1.353,1.353,0,0,0,.277-.287.94.94,0,0,0,.166-.333m-.287,0a1.135,1.135,0,0,1-.111.24,1.015,1.015,0,0,1-.194.2.707.707,0,0,1-.24.139.794.794,0,0,1-.25.046.645.645,0,0,1-.231-.046.4.4,0,0,1-.166-.139.419.419,0,0,1-.074-.2.723.723,0,0,1,.019-.24,1.028,1.028,0,0,1,.12-.25,1.013,1.013,0,0,1,.194-.2.706.706,0,0,1,.24-.139.6.6,0,0,1,.25-.046.644.644,0,0,1,.231.046.381.381,0,0,1,.157.139.419.419,0,0,1,.074.2.761.761,0,0,1-.019.25m.573.851.333-1.193c.019.037.028.065.046.1a.562.562,0,0,0,.065.092l.814,1.064.49-1.776h-.259l-.333,1.184a.584.584,0,0,0-.065-.111.794.794,0,0,0-.065-.092l-.8-1.045-.49,1.776Zm3.135.009-.333-1.776-1.323,1.776h.3l.324-.444h.675l.074.444Zm-.592-1.064a.811.811,0,0,0,.055-.092c.019-.037.037-.065.056-.1v.111a.205.205,0,0,0,.009.083l.065.388h-.481Zm1.7,1.054.065-.25h-.62l.407-1.461h-.277l-.472,1.711Zm1.582-.768h.055a1.846,1.846,0,0,0,.277-.019.572.572,0,0,0,.176-.065.7.7,0,0,0,.176-.157.831.831,0,0,0,.111-.222.635.635,0,0,0,.018-.222.239.239,0,0,0-.083-.157.322.322,0,0,0-.139-.065,1.708,1.708,0,0,0-.268-.018h-.425l-.472,1.711h.259l.213-.768h.1Zm.1-.7h.074a.493.493,0,0,1,.287.056q.069.055.028.194a.264.264,0,0,1-.129.176.7.7,0,0,1-.324.046H-118Zm1.739,1.48-.333-1.776-1.323,1.776h.287l.324-.444h.675l.074.444Zm-.592-1.064a.812.812,0,0,0,.055-.092c.019-.037.037-.065.055-.1v.111a.205.205,0,0,0,.009.083l.065.388h-.481Zm1.027,1.054.222-.786.851-.925h-.277l-.527.573c-.019.018-.037.046-.055.065s-.037.046-.056.074c-.009-.028-.009-.055-.018-.074s-.009-.046-.019-.056l-.194-.583h-.3l.314.925-.222.786Zm2.211,0h.259l.083-1.785-.8,1.082c-.009.009-.019.028-.037.046-.055.074-.1.139-.129.185-.009-.055-.009-.111-.019-.148a.319.319,0,0,1-.009-.083l-.2-1.082-.9,1.785h.259l.416-.842c.018-.046.037-.083.055-.12a.521.521,0,0,0,.037-.111.45.45,0,0,0,.009.111.464.464,0,0,0,.018.111l.185.934.7-.916c.028-.037.056-.083.083-.12a.5.5,0,0,0,.065-.12.637.637,0,0,1-.019.12c-.009.056-.018.092-.018.111Zm1.489,0,.065-.25h-.675l.157-.555h.675l.065-.24h-.675l.12-.425h.675l.065-.231h-.953l-.472,1.711h.953Zm.62,0,.333-1.193c.018.037.028.065.046.1a.562.562,0,0,0,.065.092l.814,1.064.49-1.776h-.259l-.333,1.184a.586.586,0,0,0-.065-.111.8.8,0,0,0-.065-.092l-.8-1.045-.49,1.776Zm3.126-1.471.065-.24h-1.184l-.065.24h.453l-.407,1.471h.277l.407-1.471Zm-.148,1.128a.335.335,0,0,0,.1.287.494.494,0,0,0,.333.1.753.753,0,0,0,.453-.139.679.679,0,0,0,.259-.388.35.35,0,0,0-.018-.277.786.786,0,0,0-.287-.231c-.009,0-.019-.009-.028-.018-.166-.092-.24-.185-.213-.287a.276.276,0,0,1,.111-.157.342.342,0,0,1,.194-.056.2.2,0,0,1,.129.037.235.235,0,0,1,.083.12l.25-.111a.281.281,0,0,0-.12-.213.537.537,0,0,0-.3-.074.688.688,0,0,0-.407.129.587.587,0,0,0-.231.342.327.327,0,0,0,.018.268.906.906,0,0,0,.305.25.2.2,0,0,0,.046.028c.148.074.2.166.176.268a.36.36,0,0,1-.12.185.341.341,0,0,1-.213.065.247.247,0,0,1-.194-.065.218.218,0,0,1-.065-.176l-.268.111m3.82-1.23a.821.821,0,0,0-.231-.129.873.873,0,0,0-.277-.046,1.006,1.006,0,0,0-.37.065,1.256,1.256,0,0,0-.342.194,1.165,1.165,0,0,0-.277.287,1.354,1.354,0,0,0-.166.351.777.777,0,0,0-.028.351.521.521,0,0,0,.111.287.529.529,0,0,0,.24.185.808.808,0,0,0,.342.065,1.04,1.04,0,0,0,.3-.037,1.2,1.2,0,0,0,.277-.12l.083-.314a1.245,1.245,0,0,1-.305.167.888.888,0,0,1-.305.055.41.41,0,0,1-.379-.176.533.533,0,0,1-.046-.453.889.889,0,0,1,.305-.462.774.774,0,0,1,.509-.176.759.759,0,0,1,.259.046.639.639,0,0,1,.2.148Zm1.878.721a.73.73,0,0,0,.028-.342.692.692,0,0,0-.12-.3.7.7,0,0,0-.24-.194.765.765,0,0,0-.333-.065,1.041,1.041,0,0,0-.37.065,1.463,1.463,0,0,0-.351.194,1.352,1.352,0,0,0-.277.287,1.3,1.3,0,0,0-.166.342.738.738,0,0,0-.028.342.613.613,0,0,0,.12.287.622.622,0,0,0,.24.194.792.792,0,0,0,.333.065,1.354,1.354,0,0,0,.37-.065,1.1,1.1,0,0,0,.351-.194,1.353,1.353,0,0,0,.277-.287.939.939,0,0,0,.166-.333m-.287,0a1.135,1.135,0,0,1-.111.24,1.015,1.015,0,0,1-.194.2.707.707,0,0,1-.24.139.794.794,0,0,1-.25.046.645.645,0,0,1-.231-.046.4.4,0,0,1-.166-.139.419.419,0,0,1-.074-.2.723.723,0,0,1,.019-.24,1.027,1.027,0,0,1,.12-.25,1.013,1.013,0,0,1,.194-.2.706.706,0,0,1,.24-.139.6.6,0,0,1,.25-.046.644.644,0,0,1,.231.046.382.382,0,0,1,.157.139.419.419,0,0,1,.074.2.761.761,0,0,1-.019.25m.869.092.351.768h.314l-.37-.777a.675.675,0,0,0,.333-.139.652.652,0,0,0,.185-.324.571.571,0,0,0,.019-.213.279.279,0,0,0-.074-.157.334.334,0,0,0-.139-.074.983.983,0,0,0-.259-.018h-.388l-.472,1.711h.259l.213-.768h.028Zm.185-.712h.046a.424.424,0,0,1,.268.056c.037.037.046.1.019.2a.342.342,0,0,1-.12.185.592.592,0,0,1-.305.055h-.046Zm1.286.7h.055a1.846,1.846,0,0,0,.277-.019.572.572,0,0,0,.176-.065.694.694,0,0,0,.176-.157.83.83,0,0,0,.111-.222.472.472,0,0,0,.018-.222.239.239,0,0,0-.083-.157.322.322,0,0,0-.139-.065,1.708,1.708,0,0,0-.268-.018h-.435l-.472,1.711h.259l.213-.768h.111Zm.1-.7h.074a.493.493,0,0,1,.287.056q.069.055.028.194a.264.264,0,0,1-.129.176.7.7,0,0,1-.324.046h-.074Zm2.581.62a.73.73,0,0,0,.028-.342.692.692,0,0,0-.12-.3.7.7,0,0,0-.24-.194.793.793,0,0,0-.333-.065,1.041,1.041,0,0,0-.37.065,1.463,1.463,0,0,0-.351.194,1.352,1.352,0,0,0-.277.287,1.3,1.3,0,0,0-.166.342.738.738,0,0,0-.028.342.613.613,0,0,0,.12.287.622.622,0,0,0,.24.194.792.792,0,0,0,.333.065,1.354,1.354,0,0,0,.37-.065,1.1,1.1,0,0,0,.351-.194,1.353,1.353,0,0,0,.277-.287.939.939,0,0,0,.166-.333m-.287,0a1.135,1.135,0,0,1-.111.24,1.015,1.015,0,0,1-.194.2.707.707,0,0,1-.24.139.794.794,0,0,1-.25.046.645.645,0,0,1-.231-.046.4.4,0,0,1-.166-.139.419.419,0,0,1-.074-.2.723.723,0,0,1,.019-.24,1.027,1.027,0,0,1,.12-.25,1.013,1.013,0,0,1,.194-.2.706.706,0,0,1,.24-.139.6.6,0,0,1,.25-.046.644.644,0,0,1,.231.046.382.382,0,0,1,.157.139.419.419,0,0,1,.074.2.761.761,0,0,1-.019.25m.777.092.361.768h.314l-.37-.777a.675.675,0,0,0,.333-.139.59.59,0,0,0,.185-.324.571.571,0,0,0,.019-.213.279.279,0,0,0-.074-.157.334.334,0,0,0-.139-.074.983.983,0,0,0-.259-.018h-.388l-.472,1.711h.259l.213-.768h.018Zm.185-.712h.046a.424.424,0,0,1,.268.056c.037.037.046.1.019.2a.342.342,0,0,1-.12.185.592.592,0,0,1-.305.055h-.046Zm2.174,1.48-.333-1.776-1.323,1.776h.3l.324-.444h.675l.074.444Zm-.592-1.064a.813.813,0,0,0,.055-.092c.019-.037.037-.065.056-.1v.111a.205.205,0,0,0,.009.083l.065.388H-96Zm1.887-.416.065-.24h-1.184l-.065.24h.453l-.407,1.471h.277l.407-1.471Zm.139,1.471.472-1.711h-.277l-.472,1.711Zm2.294-.851a.73.73,0,0,0,.028-.342.692.692,0,0,0-.12-.3.7.7,0,0,0-.24-.194.765.765,0,0,0-.333-.065,1.041,1.041,0,0,0-.37.065,1.463,1.463,0,0,0-.351.194,1.352,1.352,0,0,0-.277.287,1.3,1.3,0,0,0-.166.342.738.738,0,0,0-.028.342.614.614,0,0,0,.12.287.622.622,0,0,0,.24.194.792.792,0,0,0,.333.065,1.354,1.354,0,0,0,.37-.065,1.1,1.1,0,0,0,.351-.194,1.352,1.352,0,0,0,.277-.287.939.939,0,0,0,.166-.333m-.3,0a1.135,1.135,0,0,1-.111.24,1.015,1.015,0,0,1-.194.2.707.707,0,0,1-.24.139.794.794,0,0,1-.25.046.645.645,0,0,1-.231-.046.4.4,0,0,1-.166-.139.419.419,0,0,1-.074-.2.723.723,0,0,1,.019-.24,1.028,1.028,0,0,1,.12-.25,1.013,1.013,0,0,1,.194-.2.706.706,0,0,1,.24-.139.6.6,0,0,1,.25-.046.644.644,0,0,1,.231.046.382.382,0,0,1,.157.139.419.419,0,0,1,.074.2.462.462,0,0,1-.019.25m.536.851.333-1.193c.019.037.028.065.046.1a.561.561,0,0,0,.065.092l.814,1.064.49-1.776h-.259l-.333,1.184a.586.586,0,0,0-.065-.111.8.8,0,0,0-.065-.092l-.8-1.045-.49,1.776Zm4.19-.851a.73.73,0,0,0,.028-.342.692.692,0,0,0-.12-.3.7.7,0,0,0-.24-.194.765.765,0,0,0-.333-.065,1.041,1.041,0,0,0-.37.065,1.463,1.463,0,0,0-.351.194,1.352,1.352,0,0,0-.277.287,1.3,1.3,0,0,0-.166.342.739.739,0,0,0-.028.342.613.613,0,0,0,.12.287.622.622,0,0,0,.24.194.792.792,0,0,0,.333.065,1.354,1.354,0,0,0,.37-.065,1.1,1.1,0,0,0,.351-.194,1.353,1.353,0,0,0,.277-.287.939.939,0,0,0,.166-.333m-.3,0a1.135,1.135,0,0,1-.111.24,1.015,1.015,0,0,1-.194.2.707.707,0,0,1-.24.139.794.794,0,0,1-.25.046.645.645,0,0,1-.231-.046.4.4,0,0,1-.166-.139.419.419,0,0,1-.074-.2.724.724,0,0,1,.019-.24,1.028,1.028,0,0,1,.12-.25,1.013,1.013,0,0,1,.194-.2.706.706,0,0,1,.24-.139.6.6,0,0,1,.25-.046.644.644,0,0,1,.231.046.381.381,0,0,1,.157.139.419.419,0,0,1,.074.2.462.462,0,0,1-.019.25m.555.851.222-.8h.675l.065-.24h-.675l.12-.425h.675l.065-.231H-86.5l-.472,1.711h.277Zm1.989,0,.472-1.711h-.277l-.472,1.711Zm.509,0,.333-1.193c.018.037.028.065.046.1a.561.561,0,0,0,.065.092l.814,1.064.49-1.776h-.259l-.333,1.184a.585.585,0,0,0-.065-.111.793.793,0,0,0-.065-.092l-.8-1.045-.49,1.776Zm1.942,0h.074a1.874,1.874,0,0,0,.453-.037.989.989,0,0,0,.287-.12,1.128,1.128,0,0,0,.305-.287,1.171,1.171,0,0,0,.185-.407.907.907,0,0,0,.037-.407.455.455,0,0,0-.148-.287.462.462,0,0,0-.231-.12,2.112,2.112,0,0,0-.509-.037h-.379l-.472,1.711h.4Zm.314-1.461h.2a1.117,1.117,0,0,1,.305.028.327.327,0,0,1,.148.083.377.377,0,0,1,.092.2.811.811,0,0,1-.028.287.9.9,0,0,1-.129.287.711.711,0,0,1-.2.2.46.46,0,0,1-.194.083,1.179,1.179,0,0,1-.3.028h-.231Zm1.221,1.461.472-1.711h-.277L-81,349.785Zm1.822.009-.333-1.776-1.323,1.776h.3l.324-.444h.675l.074.444Zm-.592-1.064a.811.811,0,0,0,.055-.092c.019-.037.037-.065.055-.1v.111a.205.205,0,0,0,.009.083l.065.388h-.481Z" transform="translate(131.2 -332.868)" fill="#434345"/>
    </g>
  </g>
</svg>
