<svg width="18" height="18" viewBox="0 0 18 18" fill="none" xmlns="http://www.w3.org/2000/svg">
<path d="M12.0009 14.9554C11.8839 14.7553 11.9518 14.4986 12.1525 14.3821C12.3532 14.2655 12.6106 14.3331 12.7276 14.5331C12.8446 14.7332 12.7767 14.9898 12.576 15.1064C12.3753 15.223 12.1179 15.1554 12.0009 14.9554Z" fill="#FD707B"/>
<path d="M5.27238 3.43558C5.15541 3.23551 5.22324 2.97887 5.42395 2.86228C5.62466 2.74569 5.88212 2.8133 5.99908 3.01337C6.11605 3.21343 6.04822 3.47007 5.84751 3.58666C5.64681 3.70325 5.38934 3.63564 5.27238 3.43558Z" fill="#FD707B"/>
<path d="M14.9901 5.99218C14.7894 6.10877 14.5319 6.04116 14.415 5.84109C14.298 5.64103 14.3658 5.38439 14.5665 5.2678C14.7672 5.15121 15.0247 5.21882 15.1417 5.41889C15.2586 5.61895 15.1908 5.87559 14.9901 5.99218Z" fill="#FD707B"/>
<path d="M3.43345 12.6988C3.23274 12.8154 2.97528 12.7478 2.85832 12.5478C2.74135 12.3477 2.80918 12.0911 3.00989 11.9745C3.21059 11.8579 3.46805 11.9255 3.58502 12.1256C3.70198 12.3256 3.63416 12.5823 3.43345 12.6988Z" fill="#FD707B"/>
<path d="M14.5859 12.6702C14.3845 12.555 14.3152 12.2984 14.4308 12.0976C14.5464 11.8969 14.8039 11.8279 15.0053 11.9431C15.2067 12.0583 15.2759 12.3149 15.1603 12.5157C15.0447 12.7165 14.7873 12.7854 14.5859 12.6702Z" fill="#FD707B"/>
<path d="M2.99467 6.02265C2.79327 5.90744 2.72406 5.6508 2.83964 5.45005C2.95522 5.24929 3.21268 5.1803 3.41408 5.29551C3.61548 5.41072 3.68469 5.66736 3.56911 5.86812C3.45353 6.06887 3.19607 6.13786 2.99467 6.02265Z" fill="#FD707B"/>
<path d="M12.6992 3.41487C12.5837 3.61562 12.3262 3.68461 12.1248 3.5694C11.9234 3.45419 11.8542 3.19755 11.9698 2.9968C12.0853 2.79604 12.3428 2.72706 12.5442 2.84227C12.7456 2.95748 12.8148 3.21411 12.6992 3.41487Z" fill="#FD707B"/>
<path d="M6.03017 14.9689C5.91459 15.1697 5.65713 15.2387 5.45573 15.1235C5.25433 15.0083 5.18512 14.7516 5.3007 14.5509C5.41628 14.3501 5.67374 14.2811 5.87514 14.3963C6.07654 14.5116 6.14575 14.7682 6.03017 14.9689Z" fill="#FD707B"/>
<path d="M15.6863 9.40237C15.4538 9.40237 15.2655 9.21473 15.2655 8.98293C15.2655 8.75112 15.4538 8.56348 15.6863 8.56348C15.9188 8.56348 16.1071 8.75112 16.1071 8.98293C16.1071 9.21473 15.9188 9.40237 15.6863 9.40237Z" fill="#FD707B"/>
<path d="M2.31435 9.4025C2.08181 9.4025 1.89355 9.21485 1.89355 8.98305C1.89355 8.75125 2.08181 8.5636 2.31435 8.5636C2.54689 8.5636 2.73515 8.75125 2.73515 8.98305C2.73515 9.21485 2.54689 9.4025 2.31435 9.4025Z" fill="#FD707B"/>
<path d="M9.42081 2.31862C9.42081 2.55042 9.23256 2.73807 9.00002 2.73807C8.76748 2.73807 8.57922 2.55042 8.57922 2.31862C8.57922 2.08682 8.76748 1.89917 9.00002 1.89917C9.23256 1.89917 9.42081 2.08682 9.42081 2.31862Z" fill="#FD707B"/>
<path d="M9.42081 15.6486C9.42081 15.8804 9.23256 16.068 9.00002 16.068C8.76748 16.068 8.57922 15.8804 8.57922 15.6486C8.57922 15.4168 8.76748 15.2291 9.00002 15.2291C9.23256 15.2291 9.42081 15.4168 9.42081 15.6486Z" fill="#FD707B"/>
<path d="M8.86276 9.00004C8.91008 9.00004 8.95592 8.97564 8.9818 8.93128C9.01951 8.86547 8.99659 8.78192 8.93152 8.74495L4.76005 6.35156C4.69425 6.31385 4.6107 6.33678 4.57373 6.40184C4.53602 6.46765 4.55894 6.5512 4.62401 6.58817L8.79548 8.98156C8.81692 8.99413 8.84058 9.00004 8.8635 9.00004H8.86276Z" fill="#FD707B"/>
<path d="M9.02055 9H8.97943C8.74532 9 8.55554 9.19044 8.55554 9.42537V13.908C8.55554 14.1429 8.74532 14.3333 8.97943 14.3333H9.02055C9.25465 14.3333 9.44443 14.1429 9.44443 13.908V9.42537C9.44443 9.19044 9.25465 9 9.02055 9Z" fill="#FD707B"/>
<path d="M8.99997 9.88886C9.49089 9.88886 9.88886 9.49089 9.88886 8.99997C9.88886 8.50905 9.49089 8.11108 8.99997 8.11108C8.50905 8.11108 8.11108 8.50905 8.11108 8.99997C8.11108 9.49089 8.50905 9.88886 8.99997 9.88886Z" fill="#FD707B"/>
<circle cx="9" cy="9" r="8.5" stroke="#FD707B"/>
</svg>
