<svg width="314" height="304" viewBox="0 0 314 304" fill="none" xmlns="http://www.w3.org/2000/svg">
<g clip-path="url(#clip0_311_299)">
<g opacity="0.88">
<g opacity="0.54">
<path d="M244.715 63.4148C245.177 63.4148 245.552 63.0391 245.552 62.5757C245.552 62.1123 245.177 61.7366 244.715 61.7366C244.253 61.7366 243.878 62.1123 243.878 62.5757C243.878 63.0391 244.253 63.4148 244.715 63.4148Z" fill="#161742"/>
<path d="M221.194 101.076C221.604 101.076 221.936 100.743 221.936 100.333C221.936 99.9226 221.604 99.5898 221.194 99.5898C220.785 99.5898 220.453 99.9226 220.453 100.333C220.453 100.743 220.785 101.076 221.194 101.076Z" fill="#161742"/>
<path d="M260.898 87.6644C261.364 87.6644 261.742 87.2855 261.742 86.8182C261.742 86.3508 261.364 85.9719 260.898 85.9719C260.432 85.9719 260.054 86.3508 260.054 86.8182C260.054 87.2855 260.432 87.6644 260.898 87.6644Z" fill="#161742"/>
<path d="M242.52 96.3827C242.956 96.3827 243.311 96.0277 243.311 95.5898C243.311 95.1519 242.956 94.7969 242.52 94.7969C242.083 94.7969 241.729 95.1519 241.729 95.5898C241.729 96.0277 242.083 96.3827 242.52 96.3827Z" fill="#161742"/>
<path d="M222.209 65.6691C222.769 65.6691 223.223 65.2138 223.223 64.6522C223.223 64.0905 222.769 63.6353 222.209 63.6353C221.648 63.6353 221.194 64.0905 221.194 64.6522C221.194 65.2138 221.648 65.6691 222.209 65.6691Z" fill="#161742"/>
<path d="M229.397 30.1767C229.871 30.1767 230.256 29.7915 230.256 29.3163C230.256 28.8411 229.871 28.4558 229.397 28.4558C228.923 28.4558 228.539 28.8411 228.539 29.3163C228.539 29.7915 228.923 30.1767 229.397 30.1767Z" fill="#161742"/>
<path d="M218.425 44.4455C218.744 44.4455 219.003 44.186 219.003 43.8659C219.003 43.5459 218.744 43.2864 218.425 43.2864C218.105 43.2864 217.846 43.5459 217.846 43.8659C217.846 44.186 218.105 44.4455 218.425 44.4455Z" fill="#161742"/>
<path d="M230.373 96.3792C230.911 96.3792 231.348 95.9414 231.348 95.4014C231.348 94.8614 230.911 94.4236 230.373 94.4236C229.834 94.4236 229.397 94.8614 229.397 95.4014C229.397 95.9414 229.834 96.3792 230.373 96.3792Z" fill="#161742"/>
<path d="M215.357 86.882C215.829 86.882 216.211 86.4984 216.211 86.0251C216.211 85.5519 215.829 85.1682 215.357 85.1682C214.885 85.1682 214.502 85.5519 214.502 86.0251C214.502 86.4984 214.885 86.882 215.357 86.882Z" fill="#161742"/>
</g>
<g opacity="0.54">
<path d="M186.52 63.4148C186.982 63.4148 187.357 63.0391 187.357 62.5757C187.357 62.1123 186.982 61.7366 186.52 61.7366C186.058 61.7366 185.683 62.1123 185.683 62.5757C185.683 63.0391 186.058 63.4148 186.52 63.4148Z" fill="#161742"/>
<path d="M213.622 64.6202C214.165 64.6202 214.605 64.1793 214.605 63.6353C214.605 63.0914 214.165 62.6504 213.622 62.6504C213.08 62.6504 212.64 63.0914 212.64 63.6353C212.64 64.1793 213.08 64.6202 213.622 64.6202Z" fill="#161742"/>
<path d="M162.999 101.076C163.408 101.076 163.74 100.743 163.74 100.333C163.74 99.9226 163.408 99.5898 162.999 99.5898C162.59 99.5898 162.258 99.9226 162.258 100.333C162.258 100.743 162.59 101.076 162.999 101.076Z" fill="#161742"/>
<path d="M202.702 87.6644C203.169 87.6644 203.547 87.2855 203.547 86.8182C203.547 86.3508 203.169 85.9719 202.702 85.9719C202.236 85.9719 201.858 86.3508 201.858 86.8182C201.858 87.2855 202.236 87.6644 202.702 87.6644Z" fill="#161742"/>
<path d="M184.321 96.3827C184.758 96.3827 185.112 96.0277 185.112 95.5898C185.112 95.1519 184.758 94.7969 184.321 94.7969C183.884 94.7969 183.53 95.1519 183.53 95.5898C183.53 96.0277 183.884 96.3827 184.321 96.3827Z" fill="#161742"/>
<path d="M164.013 65.6691C164.574 65.6691 165.028 65.2138 165.028 64.6522C165.028 64.0905 164.574 63.6353 164.013 63.6353C163.453 63.6353 162.999 64.0905 162.999 64.6522C162.999 65.2138 163.453 65.6691 164.013 65.6691Z" fill="#161742"/>
<path d="M175.181 58.1845C175.851 58.1845 176.394 57.6401 176.394 56.9685C176.394 56.2969 175.851 55.7524 175.181 55.7524C174.512 55.7524 173.969 56.2969 173.969 56.9685C173.969 57.6401 174.512 58.1845 175.181 58.1845Z" fill="#161742"/>
<path d="M205.487 71.5858C205.847 71.5858 206.139 71.2929 206.139 70.9316C206.139 70.5703 205.847 70.2773 205.487 70.2773C205.126 70.2773 204.834 70.5703 204.834 70.9316C204.834 71.2929 205.126 71.5858 205.487 71.5858Z" fill="#161742"/>
<path d="M171.199 30.1767C171.673 30.1767 172.057 29.7915 172.057 29.3163C172.057 28.8411 171.673 28.4558 171.199 28.4558C170.725 28.4558 170.34 28.8411 170.34 29.3163C170.34 29.7915 170.725 30.1767 171.199 30.1767Z" fill="#161742"/>
<path d="M191.205 33.6186C191.571 33.6186 191.868 33.3209 191.868 32.9537C191.868 32.5865 191.571 32.2888 191.205 32.2888C190.838 32.2888 190.542 32.5865 190.542 32.9537C190.542 33.3209 190.838 33.6186 191.205 33.6186Z" fill="#161742"/>
<path d="M160.229 44.4455C160.548 44.4455 160.807 44.186 160.807 43.8659C160.807 43.5459 160.548 43.2864 160.229 43.2864C159.91 43.2864 159.651 43.5459 159.651 43.8659C159.651 44.186 159.91 44.4455 160.229 44.4455Z" fill="#161742"/>
<path d="M195.248 91.9452C195.808 91.9452 196.262 91.4899 196.262 90.9283C196.262 90.3667 195.808 89.9114 195.248 89.9114C194.688 89.9114 194.233 90.3667 194.233 90.9283C194.233 91.4899 194.688 91.9452 195.248 91.9452Z" fill="#161742"/>
<path d="M172.177 96.3792C172.716 96.3792 173.153 95.9414 173.153 95.4014C173.153 94.8614 172.716 94.4236 172.177 94.4236C171.639 94.4236 171.202 94.8614 171.202 95.4014C171.202 95.9414 171.639 96.3792 172.177 96.3792Z" fill="#161742"/>
<path d="M157.158 86.882C157.63 86.882 158.013 86.4984 158.013 86.0251C158.013 85.5519 157.63 85.1682 157.158 85.1682C156.686 85.1682 156.303 85.5519 156.303 86.0251C156.303 86.4984 156.686 86.882 157.158 86.882Z" fill="#161742"/>
</g>
<g opacity="0.54">
<path d="M8.24915 253.151C9.0953 253.151 9.78125 252.463 9.78125 251.615C9.78125 250.767 9.0953 250.079 8.24915 250.079C7.40299 250.079 6.71704 250.767 6.71704 251.615C6.71704 252.463 7.40299 253.151 8.24915 253.151Z" fill="#161742"/>
<path d="M45.7183 131.392C46.4508 131.392 47.0447 130.796 47.0447 130.062C47.0447 129.327 46.4508 128.732 45.7183 128.732C44.9857 128.732 44.3918 129.327 44.3918 130.062C44.3918 130.796 44.9857 131.392 45.7183 131.392Z" fill="#161742"/>
<path d="M10.4798 128.366C11.2398 128.366 11.8559 127.748 11.8559 126.986C11.8559 126.224 11.2398 125.606 10.4798 125.606C9.71984 125.606 9.10376 126.224 9.10376 126.986C9.10376 127.748 9.71984 128.366 10.4798 128.366Z" fill="#161742"/>
<path d="M286.032 24.1001C286.878 24.1001 287.564 23.4124 287.564 22.5641C287.564 21.7158 286.878 21.0281 286.032 21.0281C285.186 21.0281 284.5 21.7158 284.5 22.5641C284.5 23.4124 285.186 24.1001 286.032 24.1001Z" fill="#161742"/>
<path d="M313.025 265.425C313.563 265.425 314 264.987 314 264.447C314 263.907 313.563 263.469 313.025 263.469C312.486 263.469 312.049 263.907 312.049 264.447C312.049 264.987 312.486 265.425 313.025 265.425Z" fill="#161742"/>
<path d="M9.10398 96.8271C9.57603 96.8271 9.9587 96.4434 9.9587 95.9702C9.9587 95.4969 9.57603 95.1133 9.10398 95.1133C8.63194 95.1133 8.24927 95.4969 8.24927 95.9702C8.24927 96.4434 8.63194 96.8271 9.10398 96.8271Z" fill="#161742"/>
</g>
<g opacity="0.54">
<path d="M193.457 227.376C194.303 227.376 194.989 226.688 194.989 225.84C194.989 224.992 194.303 224.304 193.457 224.304C192.611 224.304 191.925 224.992 191.925 225.84C191.925 226.688 192.611 227.376 193.457 227.376Z" fill="#161742"/>
<path d="M211.168 205.676C211.63 205.676 212.005 205.3 212.005 204.837C212.005 204.373 211.63 203.998 211.168 203.998C210.706 203.998 210.331 204.373 210.331 204.837C210.331 205.3 210.706 205.676 211.168 205.676Z" fill="#161742"/>
<path d="M215.19 215.176C215.922 215.176 216.516 214.581 216.516 213.847C216.516 213.112 215.922 212.517 215.19 212.517C214.457 212.517 213.864 213.112 213.864 213.847C213.864 214.581 214.457 215.176 215.19 215.176Z" fill="#161742"/>
<path d="M253.446 222.348C253.989 222.348 254.429 221.907 254.429 221.363C254.429 220.819 253.989 220.378 253.446 220.378C252.904 220.378 252.464 220.819 252.464 221.363C252.464 221.907 252.904 222.348 253.446 222.348Z" fill="#161742"/>
<path d="M230.206 225.563C230.615 225.563 230.947 225.23 230.947 224.82C230.947 224.409 230.615 224.076 230.206 224.076C229.796 224.076 229.465 224.409 229.465 224.82C229.465 225.23 229.796 225.563 230.206 225.563Z" fill="#161742"/>
<path d="M208.356 231.835C208.792 231.835 209.146 231.48 209.146 231.042C209.146 230.604 208.792 230.249 208.356 230.249C207.919 230.249 207.565 230.604 207.565 231.042C207.565 231.48 207.919 231.835 208.356 231.835Z" fill="#161742"/>
<path d="M188.662 207.934C189.222 207.934 189.676 207.478 189.676 206.917C189.676 206.355 189.222 205.9 188.662 205.9C188.102 205.9 187.647 206.355 187.647 206.917C187.647 207.478 188.102 207.934 188.662 207.934Z" fill="#161742"/>
<path d="M199.83 200.445C200.5 200.445 201.043 199.901 201.043 199.229C201.043 198.558 200.5 198.013 199.83 198.013C199.16 198.013 198.617 198.558 198.617 199.229C198.617 199.901 199.16 200.445 199.83 200.445Z" fill="#161742"/>
<path d="M224.946 229.797C225.307 229.797 225.599 229.504 225.599 229.143C225.599 228.782 225.307 228.489 224.946 228.489C224.586 228.489 224.294 228.782 224.294 229.143C224.294 229.504 224.586 229.797 224.946 229.797Z" fill="#161742"/>
<path d="M195.85 172.438C196.324 172.438 196.709 172.052 196.709 171.577C196.709 171.102 196.324 170.717 195.85 170.717C195.376 170.717 194.992 171.102 194.992 171.577C194.992 172.052 195.376 172.438 195.85 172.438Z" fill="#161742"/>
<path d="M215.853 175.883C216.219 175.883 216.516 175.586 216.516 175.218C216.516 174.851 216.219 174.553 215.853 174.553C215.487 174.553 215.19 174.851 215.19 175.218C215.19 175.586 215.487 175.883 215.853 175.883Z" fill="#161742"/>
<path d="M223.57 187.862C224.207 187.862 224.723 187.345 224.723 186.707C224.723 186.068 224.207 185.551 223.57 185.551C222.934 185.551 222.418 186.068 222.418 186.707C222.418 187.345 222.934 187.862 223.57 187.862Z" fill="#161742"/>
<path d="M184.878 186.706C185.197 186.706 185.456 186.447 185.456 186.127C185.456 185.807 185.197 185.547 184.878 185.547C184.558 185.547 184.3 185.807 184.3 186.127C184.3 186.447 184.558 186.706 184.878 186.706Z" fill="#161742"/>
<path d="M239.384 220.866C239.923 220.866 240.36 220.428 240.36 219.888C240.36 219.348 239.923 218.91 239.384 218.91C238.846 218.91 238.409 219.348 238.409 219.888C238.409 220.428 238.846 220.866 239.384 220.866Z" fill="#161742"/>
<path d="M181.81 229.147C182.282 229.147 182.665 228.763 182.665 228.29C182.665 227.817 182.282 227.433 181.81 227.433C181.338 227.433 180.955 227.817 180.955 228.29C180.955 228.763 181.338 229.147 181.81 229.147Z" fill="#161742"/>
</g>
<g opacity="0.54">
<path d="M261.117 146.731C261.58 146.731 261.954 146.355 261.954 145.891C261.954 145.428 261.58 145.052 261.117 145.052C260.655 145.052 260.281 145.428 260.281 145.891C260.281 146.355 260.655 146.731 261.117 146.731Z" fill="#161742"/>
<path d="M292.437 133.55C292.98 133.55 293.419 133.109 293.419 132.565C293.419 132.021 292.98 131.58 292.437 131.58C291.894 131.58 291.455 132.021 291.455 132.565C291.455 133.109 291.894 133.55 292.437 133.55Z" fill="#161742"/>
<path d="M237.597 184.395C238.006 184.395 238.338 184.063 238.338 183.652C238.338 183.242 238.006 182.909 237.597 182.909C237.188 182.909 236.856 183.242 236.856 183.652C236.856 184.063 237.188 184.395 237.597 184.395Z" fill="#161742"/>
<path d="M261.118 164.587C261.584 164.587 261.962 164.208 261.962 163.741C261.962 163.273 261.584 162.895 261.118 162.895C260.651 162.895 260.273 163.273 260.273 163.741C260.273 164.208 260.651 164.587 261.118 164.587Z" fill="#161742"/>
<path d="M258.922 179.698C259.359 179.698 259.713 179.343 259.713 178.905C259.713 178.468 259.359 178.113 258.922 178.113C258.485 178.113 258.131 178.468 258.131 178.905C258.131 179.343 258.485 179.698 258.922 179.698Z" fill="#161742"/>
<path d="M238.611 148.988C239.171 148.988 239.626 148.533 239.626 147.972C239.626 147.41 239.171 146.955 238.611 146.955C238.051 146.955 237.597 147.41 237.597 147.972C237.597 148.533 238.051 148.988 238.611 148.988Z" fill="#161742"/>
<path d="M280.084 154.901C280.445 154.901 280.737 154.609 280.737 154.247C280.737 153.886 280.445 153.593 280.084 153.593C279.724 153.593 279.432 153.886 279.432 154.247C279.432 154.609 279.724 154.901 280.084 154.901Z" fill="#161742"/>
<path d="M245.8 113.496C246.274 113.496 246.658 113.111 246.658 112.636C246.658 112.16 246.274 111.775 245.8 111.775C245.326 111.775 244.942 112.16 244.942 112.636C244.942 113.111 245.326 113.496 245.8 113.496Z" fill="#161742"/>
<path d="M265.802 116.938C266.169 116.938 266.466 116.64 266.466 116.273C266.466 115.906 266.169 115.608 265.802 115.608C265.436 115.608 265.139 115.906 265.139 116.273C265.139 116.64 265.436 116.938 265.802 116.938Z" fill="#161742"/>
<path d="M282.322 113.791C282.959 113.791 283.475 113.274 283.475 112.636C283.475 111.997 282.959 111.48 282.322 111.48C281.686 111.48 281.17 111.997 281.17 112.636C281.17 113.274 281.686 113.791 282.322 113.791Z" fill="#161742"/>
<path d="M234.827 127.761C235.146 127.761 235.405 127.502 235.405 127.182C235.405 126.862 235.146 126.602 234.827 126.602C234.508 126.602 234.249 126.862 234.249 127.182C234.249 127.502 234.508 127.761 234.827 127.761Z" fill="#161742"/>
<path d="M269.849 175.261C270.409 175.261 270.863 174.806 270.863 174.244C270.863 173.683 270.409 173.227 269.849 173.227C269.289 173.227 268.835 173.683 268.835 174.244C268.835 174.806 269.289 175.261 269.849 175.261Z" fill="#161742"/>
<path d="M246.775 179.699C247.314 179.699 247.751 179.261 247.751 178.721C247.751 178.181 247.314 177.743 246.775 177.743C246.237 177.743 245.8 178.181 245.8 178.721C245.8 179.261 246.237 179.699 246.775 179.699Z" fill="#161742"/>
<path d="M231.759 170.201C232.231 170.201 232.614 169.818 232.614 169.344C232.614 168.871 232.231 168.488 231.759 168.488C231.287 168.488 230.905 168.871 230.905 169.344C230.905 169.818 231.287 170.201 231.759 170.201Z" fill="#161742"/>
</g>
<g opacity="0.54">
<path d="M80.9002 180.875C81.3625 180.875 81.7372 180.5 81.7372 180.036C81.7372 179.573 81.3625 179.197 80.9002 179.197C80.438 179.197 80.0632 179.573 80.0632 180.036C80.0632 180.5 80.438 180.875 80.9002 180.875Z" fill="#161742"/>
<path d="M41.0938 231.785C41.5031 231.785 41.835 231.452 41.835 231.042C41.835 230.631 41.5031 230.299 41.0938 230.299C40.6844 230.299 40.3525 230.631 40.3525 231.042C40.3525 231.452 40.6844 231.785 41.0938 231.785Z" fill="#161742"/>
<path d="M80.9002 198.732C81.3664 198.732 81.7443 198.353 81.7443 197.886C81.7443 197.418 81.3664 197.039 80.9002 197.039C80.4341 197.039 80.0562 197.418 80.0562 197.886C80.0562 198.353 80.4341 198.732 80.9002 198.732Z" fill="#161742"/>
<path d="M78.7047 213.843C79.1415 213.843 79.4956 213.488 79.4956 213.05C79.4956 212.612 79.1415 212.257 78.7047 212.257C78.2679 212.257 77.9138 212.612 77.9138 213.05C77.9138 213.488 78.2679 213.843 78.7047 213.843Z" fill="#161742"/>
<path d="M34.7099 201.463C35.2701 201.463 35.7242 201.007 35.7242 200.446C35.7242 199.884 35.2701 199.429 34.7099 199.429C34.1497 199.429 33.6956 199.884 33.6956 200.446C33.6956 201.007 34.1497 201.463 34.7099 201.463Z" fill="#161742"/>
<path d="M99.8669 189.043C100.227 189.043 100.519 188.75 100.519 188.388C100.519 188.027 100.227 187.734 99.8669 187.734C99.5065 187.734 99.2144 188.027 99.2144 188.388C99.2144 188.75 99.5065 189.043 99.8669 189.043Z" fill="#161742"/>
<path d="M65.5826 147.637C66.0566 147.637 66.4409 147.252 66.4409 146.777C66.4409 146.301 66.0566 145.916 65.5826 145.916C65.1086 145.916 64.7244 146.301 64.7244 146.777C64.7244 147.252 65.1086 147.637 65.5826 147.637Z" fill="#161742"/>
<path d="M85.5851 151.079C85.9514 151.079 86.2483 150.781 86.2483 150.414C86.2483 150.047 85.9514 149.749 85.5851 149.749C85.2188 149.749 84.9219 150.047 84.9219 150.414C84.9219 150.781 85.2188 151.079 85.5851 151.079Z" fill="#161742"/>
<path d="M24.737 263.142C25.0563 263.142 25.3151 262.883 25.3151 262.562C25.3151 262.242 25.0563 261.983 24.737 261.983C24.4178 261.983 24.1589 262.242 24.1589 262.562C24.1589 262.883 24.4178 263.142 24.737 263.142Z" fill="#161742"/>
<path d="M89.6317 209.406C90.1919 209.406 90.6461 208.95 90.6461 208.389C90.6461 207.827 90.1919 207.372 89.6317 207.372C89.0716 207.372 88.6174 207.827 88.6174 208.389C88.6174 208.95 89.0716 209.406 89.6317 209.406Z" fill="#161742"/>
<path d="M26.372 225.282C26.9107 225.282 27.3473 224.844 27.3473 224.304C27.3473 223.764 26.9107 223.326 26.372 223.326C25.8334 223.326 25.3967 223.764 25.3967 224.304C25.3967 224.844 25.8334 225.282 26.372 225.282Z" fill="#161742"/>
<path d="M0.854716 232.642C1.32676 232.642 1.70943 232.258 1.70943 231.785C1.70943 231.312 1.32676 230.928 0.854716 230.928C0.382669 230.928 0 231.312 0 231.785C0 232.258 0.382669 232.642 0.854716 232.642Z" fill="#161742"/>
</g>
<g opacity="0.54">
<path d="M110.677 25.2591C111.139 25.2591 111.514 24.8834 111.514 24.4199C111.514 23.9565 111.139 23.5808 110.677 23.5808C110.215 23.5808 109.84 23.9565 109.84 24.4199C109.84 24.8834 110.215 25.2591 110.677 25.2591Z" fill="#161742"/>
<path d="M92.781 40.8187C93.3235 40.8187 93.7634 40.3777 93.7634 39.8338C93.7634 39.2898 93.3235 38.8489 92.781 38.8489C92.2384 38.8489 91.7986 39.2898 91.7986 39.8338C91.7986 40.3777 92.2384 40.8187 92.781 40.8187Z" fill="#161742"/>
<path d="M110.677 43.1156C111.143 43.1156 111.521 42.7367 111.521 42.2693C111.521 41.802 111.143 41.4231 110.677 41.4231C110.211 41.4231 109.833 41.802 109.833 42.2693C109.833 42.7367 110.211 43.1156 110.677 43.1156Z" fill="#161742"/>
<path d="M119.291 64.9152C119.852 64.9152 120.306 64.4599 120.306 63.8983C120.306 63.3366 119.852 62.8813 119.291 62.8813C118.731 62.8813 118.277 63.3366 118.277 63.8983C118.277 64.4599 118.731 64.9152 119.291 64.9152Z" fill="#161742"/>
<path d="M97.8065 22.3008C98.2805 22.3008 98.6648 21.9155 98.6648 21.4403C98.6648 20.9651 98.2805 20.5798 97.8065 20.5798C97.3325 20.5798 96.9482 20.9651 96.9482 21.4403C96.9482 21.9155 97.3325 22.3008 97.8065 22.3008Z" fill="#161742"/>
<path d="M116.029 11.0046C116.395 11.0046 116.692 10.7069 116.692 10.3397C116.692 9.97249 116.395 9.6748 116.029 9.6748C115.662 9.6748 115.365 9.97249 115.365 10.3397C115.365 10.7069 115.662 11.0046 116.029 11.0046Z" fill="#161742"/>
<path d="M74.6901 47.3469C75.0094 47.3469 75.2682 47.0874 75.2682 46.7673C75.2682 46.4472 75.0094 46.1877 74.6901 46.1877C74.3709 46.1877 74.1121 46.4472 74.1121 46.7673C74.1121 47.0874 74.3709 47.3469 74.6901 47.3469Z" fill="#161742"/>
<path d="M96.9448 60.7766C97.4169 60.7766 97.7995 60.3929 97.7995 59.9197C97.7995 59.4464 97.4169 59.0627 96.9448 59.0627C96.4728 59.0627 96.0901 59.4464 96.0901 59.9197C96.0901 60.3929 96.4728 60.7766 96.9448 60.7766Z" fill="#161742"/>
</g>
<g opacity="0.54">
<path d="M205.98 134.126C206.442 134.126 206.817 133.75 206.817 133.287C206.817 132.823 206.442 132.448 205.98 132.448C205.517 132.448 205.143 132.823 205.143 133.287C205.143 133.75 205.517 134.126 205.98 134.126Z" fill="#161742"/>
<path d="M233.082 135.331C233.625 135.331 234.065 134.89 234.065 134.346C234.065 133.802 233.625 133.361 233.082 133.361C232.54 133.361 232.1 133.802 232.1 134.346C232.1 134.89 232.54 135.331 233.082 135.331Z" fill="#161742"/>
<path d="M182.459 171.787C182.868 171.787 183.2 171.454 183.2 171.044C183.2 170.633 182.868 170.301 182.459 170.301C182.05 170.301 181.718 170.633 181.718 171.044C181.718 171.454 182.05 171.787 182.459 171.787Z" fill="#161742"/>
<path d="M222.162 158.375C222.629 158.375 223.007 157.996 223.007 157.529C223.007 157.062 222.629 156.683 222.162 156.683C221.696 156.683 221.318 157.062 221.318 157.529C221.318 157.996 221.696 158.375 222.162 158.375Z" fill="#161742"/>
<path d="M203.781 167.094C204.217 167.094 204.572 166.739 204.572 166.301C204.572 165.863 204.217 165.508 203.781 165.508C203.344 165.508 202.99 165.863 202.99 166.301C202.99 166.739 203.344 167.094 203.781 167.094Z" fill="#161742"/>
<path d="M183.473 136.38C184.033 136.38 184.488 135.925 184.488 135.363C184.488 134.801 184.033 134.346 183.473 134.346C182.913 134.346 182.459 134.801 182.459 135.363C182.459 135.925 182.913 136.38 183.473 136.38Z" fill="#161742"/>
<path d="M194.641 128.895C195.311 128.895 195.854 128.351 195.854 127.679C195.854 127.008 195.311 126.463 194.641 126.463C193.972 126.463 193.428 127.008 193.428 127.679C193.428 128.351 193.972 128.895 194.641 128.895Z" fill="#161742"/>
<path d="M224.947 142.297C225.307 142.297 225.599 142.004 225.599 141.643C225.599 141.281 225.307 140.988 224.947 140.988C224.586 140.988 224.294 141.281 224.294 141.643C224.294 142.004 224.586 142.297 224.947 142.297Z" fill="#161742"/>
<path d="M190.662 100.888C191.136 100.888 191.52 100.502 191.52 100.027C191.52 99.552 191.136 99.1667 190.662 99.1667C190.188 99.1667 189.804 99.552 189.804 100.027C189.804 100.502 190.188 100.888 190.662 100.888Z" fill="#161742"/>
<path d="M210.665 104.33C211.031 104.33 211.328 104.032 211.328 103.665C211.328 103.297 211.031 103 210.665 103C210.298 103 210.001 103.297 210.001 103.665C210.001 104.032 210.298 104.33 210.665 104.33Z" fill="#161742"/>
<path d="M179.689 115.156C180.008 115.156 180.267 114.897 180.267 114.577C180.267 114.257 180.008 113.997 179.689 113.997C179.37 113.997 179.111 114.257 179.111 114.577C179.111 114.897 179.37 115.156 179.689 115.156Z" fill="#161742"/>
<path d="M214.711 162.656C215.271 162.656 215.725 162.201 215.725 161.639C215.725 161.078 215.271 160.622 214.711 160.622C214.151 160.622 213.697 161.078 213.697 161.639C213.697 162.201 214.151 162.656 214.711 162.656Z" fill="#161742"/>
<path d="M191.637 167.09C192.176 167.09 192.613 166.652 192.613 166.112C192.613 165.572 192.176 165.135 191.637 165.135C191.099 165.135 190.662 165.572 190.662 166.112C190.662 166.652 191.099 167.09 191.637 167.09Z" fill="#161742"/>
<path d="M176.621 157.593C177.093 157.593 177.476 157.209 177.476 156.736C177.476 156.263 177.093 155.879 176.621 155.879C176.149 155.879 175.767 156.263 175.767 156.736C175.767 157.209 176.149 157.593 176.621 157.593Z" fill="#161742"/>
</g>
<g opacity="0.54">
<path d="M139.439 216.567C140.285 216.567 140.971 215.879 140.971 215.031C140.971 214.182 140.285 213.495 139.439 213.495C138.593 213.495 137.907 214.182 137.907 215.031C137.907 215.879 138.593 216.567 139.439 216.567Z" fill="#161742"/>
<path d="M157.154 194.867C157.617 194.867 157.991 194.491 157.991 194.028C157.991 193.564 157.617 193.188 157.154 193.188C156.692 193.188 156.317 193.564 156.317 194.028C156.317 194.491 156.692 194.867 157.154 194.867Z" fill="#161742"/>
<path d="M137.911 183.613C138.755 183.613 139.439 182.927 139.439 182.081C139.439 181.234 138.755 180.548 137.911 180.548C137.066 180.548 136.382 181.234 136.382 182.081C136.382 182.927 137.066 183.613 137.911 183.613Z" fill="#161742"/>
<path d="M161.173 204.367C161.905 204.367 162.499 203.772 162.499 203.038C162.499 202.303 161.905 201.708 161.173 201.708C160.44 201.708 159.846 202.303 159.846 203.038C159.846 203.772 160.44 204.367 161.173 204.367Z" fill="#161742"/>
<path d="M152.53 170.93C153.431 170.93 154.161 170.198 154.161 169.295C154.161 168.391 153.431 167.659 152.53 167.659C151.629 167.659 150.898 168.391 150.898 169.295C150.898 170.198 151.629 170.93 152.53 170.93Z" fill="#161742"/>
<path d="M184.253 196.072C184.796 196.072 185.236 195.631 185.236 195.087C185.236 194.543 184.796 194.102 184.253 194.102C183.711 194.102 183.271 194.543 183.271 195.087C183.271 195.631 183.711 196.072 184.253 196.072Z" fill="#161742"/>
<path d="M133.63 232.528C134.04 232.528 134.371 232.195 134.371 231.785C134.371 231.374 134.04 231.042 133.63 231.042C133.221 231.042 132.889 231.374 132.889 231.785C132.889 232.195 133.221 232.528 133.63 232.528Z" fill="#161742"/>
<path d="M173.334 219.116C173.8 219.116 174.178 218.737 174.178 218.27C174.178 217.803 173.8 217.424 173.334 217.424C172.867 217.424 172.49 217.803 172.49 218.27C172.49 218.737 172.867 219.116 173.334 219.116Z" fill="#161742"/>
<path d="M154.955 227.835C155.392 227.835 155.746 227.48 155.746 227.042C155.746 226.604 155.392 226.249 154.955 226.249C154.519 226.249 154.165 226.604 154.165 227.042C154.165 227.48 154.519 227.835 154.955 227.835Z" fill="#161742"/>
<path d="M134.644 197.121C135.205 197.121 135.659 196.666 135.659 196.104C135.659 195.542 135.205 195.087 134.644 195.087C134.084 195.087 133.63 195.542 133.63 196.104C133.63 196.666 134.084 197.121 134.644 197.121Z" fill="#161742"/>
<path d="M145.813 189.636C146.482 189.636 147.025 189.092 147.025 188.42C147.025 187.749 146.482 187.204 145.813 187.204C145.143 187.204 144.6 187.749 144.6 188.42C144.6 189.092 145.143 189.636 145.813 189.636Z" fill="#161742"/>
<path d="M176.118 203.037C176.478 203.037 176.77 202.745 176.77 202.383C176.77 202.022 176.478 201.729 176.118 201.729C175.757 201.729 175.465 202.022 175.465 202.383C175.465 202.745 175.757 203.037 176.118 203.037Z" fill="#161742"/>
<path d="M141.833 161.629C142.307 161.629 142.691 161.243 142.691 160.768C142.691 160.293 142.307 159.908 141.833 159.908C141.359 159.908 140.975 160.293 140.975 160.768C140.975 161.243 141.359 161.629 141.833 161.629Z" fill="#161742"/>
<path d="M161.839 165.071C162.206 165.071 162.502 164.773 162.502 164.406C162.502 164.038 162.206 163.741 161.839 163.741C161.473 163.741 161.176 164.038 161.176 164.406C161.176 164.773 161.473 165.071 161.839 165.071Z" fill="#161742"/>
<path d="M169.553 177.049C170.19 177.049 170.706 176.532 170.706 175.894C170.706 175.256 170.19 174.738 169.553 174.738C168.916 174.738 168.4 175.256 168.4 175.894C168.4 176.532 168.916 177.049 169.553 177.049Z" fill="#161742"/>
<path d="M130.86 175.897C131.18 175.897 131.438 175.638 131.438 175.318C131.438 174.998 131.18 174.738 130.86 174.738C130.541 174.738 130.282 174.998 130.282 175.318C130.282 175.638 130.541 175.897 130.86 175.897Z" fill="#161742"/>
<path d="M165.882 223.397C166.442 223.397 166.897 222.942 166.897 222.38C166.897 221.819 166.442 221.363 165.882 221.363C165.322 221.363 164.868 221.819 164.868 222.38C164.868 222.942 165.322 223.397 165.882 223.397Z" fill="#161742"/>
<path d="M142.809 227.831C143.347 227.831 143.784 227.393 143.784 226.853C143.784 226.313 143.347 225.875 142.809 225.875C142.27 225.875 141.833 226.313 141.833 226.853C141.833 227.393 142.27 227.831 142.809 227.831Z" fill="#161742"/>
<path d="M127.792 218.334C128.264 218.334 128.647 217.95 128.647 217.477C128.647 217.004 128.264 216.62 127.792 216.62C127.32 216.62 126.938 217.004 126.938 217.477C126.938 217.95 127.32 218.334 127.792 218.334Z" fill="#161742"/>
</g>
</g>
<path d="M268.65 136.913L203.5 168.687L268.65 182.223V136.913Z" fill="#FFD325"/>
<path d="M28.4646 145.265L97.2107 163.744L28.4646 182.223V145.265Z" fill="#FFD325"/>
<path d="M213.023 79.248L192.155 113.375L253.62 79.2907L213.023 79.248Z" fill="#FFD325"/>
<path d="M111.063 79.6887L127.09 105.897L79.8894 79.7243L111.063 79.6887Z" fill="#FFD325"/>
<path d="M71.8281 79.6887L94.6572 117.023L27.4219 79.7385L71.8281 79.6887Z" fill="#FFD325"/>
<path d="M182.42 79.5039L176.153 96.5674L196.432 79.2905L182.42 79.5039Z" fill="#FFD325"/>
<path d="M126.019 79.2905L145.394 98.683L140.897 79.2905H126.019Z" fill="#FFD325"/>
<path d="M153.7 79.2906L157.52 96.7523L170.642 79.1057L153.7 79.2906Z" fill="#FFD325"/>
<path d="M268.65 80.4214L207.022 136.913L268.65 125.731V80.4214Z" fill="#FFD325"/>
<path d="M27.9575 88.7771L89.5857 145.266L27.9575 134.087V88.7771Z" fill="#FFD325"/>
<path opacity="0.27" d="M144.6 304.004C203.167 304.004 250.645 297.133 250.645 288.657C250.645 280.182 203.167 273.311 144.6 273.311C86.0325 273.311 38.5544 280.182 38.5544 288.657C38.5544 297.133 86.0325 304.004 144.6 304.004Z" fill="#FFD325"/>
<path d="M149.795 196.385C186.938 196.687 205.951 183.265 213.856 175.453C211.211 174.44 208.469 173.583 205.66 172.911C187.023 168.434 118.27 168.239 100.555 171.339C95.2069 172.274 89.3977 173.568 83.7622 175.403C89.8871 181.569 108.634 196.054 149.795 196.385Z" fill="#161742"/>
<path d="M242.059 203.763C240.519 191.891 228.777 181.16 213.856 175.453C205.951 183.265 186.938 196.684 149.795 196.385C108.634 196.051 89.8871 181.565 83.7622 175.403C70.7252 179.645 58.6066 186.806 55.2374 199.276C50.4106 217.136 53.6096 231.536 81.3648 235.348C109.124 239.159 149.916 223.248 149.916 223.248C149.916 223.248 184.129 238.071 209.959 237.769C235.785 237.467 243.871 217.744 242.062 203.77L242.059 203.763ZM186.484 227.507C183.995 227.191 179.469 220.293 174.628 216.346C169.787 212.4 161.098 213.605 161.098 213.605C160.864 211.041 159.094 203.464 159.094 203.464C162.659 200.385 174.674 196.516 177.614 197.651C180.554 198.785 180.193 203.457 181.143 206.636C182.094 209.811 184.129 210.675 186.303 213.352C188.477 216.03 186.576 220.521 186.576 220.521C186.576 220.521 188.204 221.701 189.02 223.607C189.836 225.513 188.974 227.827 186.484 227.507Z" fill="#1D478E"/>
<path d="M186.573 220.521C186.573 220.521 188.474 216.03 186.3 213.353C184.126 210.675 182.09 209.815 181.14 206.636C180.189 203.461 180.551 198.785 177.611 197.651C174.671 196.517 162.652 200.382 159.091 203.464C159.091 203.464 160.861 211.041 161.095 213.605C161.095 213.605 169.784 212.396 174.625 216.346C179.466 220.293 183.995 227.191 186.481 227.508C188.97 227.824 189.829 225.509 189.017 223.607C188.201 221.701 186.573 220.521 186.573 220.521Z" fill="#E5906E"/>
<path d="M152.693 222.139C152.406 222.139 152.136 221.961 152.03 221.676C151.895 221.31 152.083 220.901 152.448 220.766C156.08 219.422 160.226 217.513 160.609 216.805C160.999 215.408 158.538 201.95 157.339 200.823C156.317 200.104 146.309 199.681 131.357 200.239C118.565 200.716 81.3507 205.63 80.9783 205.68C80.5953 205.733 80.2371 205.459 80.1839 205.072C80.1342 204.684 80.4038 204.328 80.7903 204.275C81.1663 204.225 118.444 199.304 131.304 198.824C133.8 198.732 155.754 197.964 158.169 199.678C159.885 200.897 162.588 215.614 161.917 217.331C161.322 218.853 155.438 221.168 152.934 222.092C152.852 222.121 152.771 222.135 152.689 222.135L152.693 222.139Z" fill="#161742"/>
<path d="M183.165 203.809C182.845 203.809 182.555 203.589 182.477 203.262C182.388 202.881 182.622 202.501 183.001 202.412C183.133 202.38 196.074 199.365 209.203 199.365C209.455 199.365 209.707 199.365 209.959 199.365C210.349 199.365 210.661 199.688 210.657 200.079C210.657 200.471 210.338 200.78 209.952 200.78H209.944C196.751 200.68 183.452 203.756 183.321 203.784C183.267 203.799 183.211 203.802 183.157 203.802L183.165 203.809Z" fill="#161742"/>
<path d="M233.008 219.173C232.887 219.173 232.767 219.141 232.653 219.077C232.316 218.882 232.199 218.448 232.394 218.11C232.426 218.05 235.806 211.969 234.235 200.655C232.685 189.494 216.527 183.923 216.367 183.869C215.999 183.745 215.796 183.343 215.924 182.973C216.048 182.603 216.449 182.404 216.818 182.529C217.516 182.763 233.965 188.431 235.636 200.463C237.281 212.304 233.767 218.562 233.618 218.825C233.487 219.052 233.249 219.177 233.004 219.177L233.008 219.173Z" fill="#161742"/>
<path d="M59.7592 211.952C59.3797 211.952 59.0641 211.649 59.0534 211.262C59.0463 210.999 58.9116 204.716 62.607 195.61C66.3877 186.287 82.2442 183.094 82.9181 182.962C83.3011 182.888 83.67 183.137 83.748 183.521C83.8225 183.905 83.5742 184.278 83.1912 184.353C83.0351 184.385 67.4126 187.535 63.9193 196.147C60.3479 204.954 60.4685 211.166 60.472 211.226C60.4827 211.617 60.1741 211.944 59.784 211.955C59.7769 211.955 59.7698 211.955 59.7627 211.955L59.7592 211.952Z" fill="#161742"/>
<path d="M151.242 104.184C152.508 104.304 153.296 87.7281 153.296 87.7281C153.296 87.7281 164.102 85.6907 172.44 79.1803C171.411 78.7359 170.429 78.2807 169.528 77.8078C163.073 74.4193 159.811 71.1304 159.963 64.3355C157.371 66.8494 154.328 69.0965 151.728 69.0965C148.834 69.0965 145.649 66.7178 143.153 64.2893C142.883 67.1943 142.454 69.893 141.769 71.5144C140.663 74.142 136.648 77.1998 132.258 79.8666C136.148 83.0169 141.876 86.5867 148.706 87.6072C148.706 87.6072 149.973 104.063 151.242 104.184Z" fill="#E5906E"/>
<path d="M159.96 64.3355C160.112 57.5407 159.991 51.1868 159.991 51.1868H143.578C143.578 51.1868 143.716 58.1985 143.149 64.2893C145.646 66.7178 148.827 69.0965 151.724 69.0965C154.324 69.0965 157.367 66.8529 159.96 64.3355Z" fill="#C16240"/>
<path d="M206.093 112.291C202.593 101.581 198.007 90.8145 192.095 87.2446C187.009 84.1761 178.76 81.9076 172.44 79.1804C164.098 85.6908 153.296 87.7282 153.296 87.7282C153.296 87.7282 152.512 104.305 151.242 104.184C149.976 104.063 148.706 87.6073 148.706 87.6073C141.876 86.5868 136.148 83.017 132.258 79.8667C128.261 82.2952 123.955 84.3965 121.253 85.5486C115.582 87.97 106.226 91.1736 99.2889 111.683C92.3483 132.191 89.3941 144.352 89.1529 159.719C88.9117 175.087 94.3415 181.497 111.84 185.611C129.339 189.725 134.407 187.972 135.013 186.458C135.616 184.946 135.918 178.895 135.918 178.895L149.916 170.667L136.301 173.444L136.762 166.916C136.762 166.916 137.967 159.957 134.712 158.93C131.452 157.902 126.746 157.842 126.746 157.842C126.746 157.842 119.685 141.87 117.454 129.045C115.22 116.22 115.887 109.805 115.887 109.805C115.887 109.805 120.894 123.96 125.661 126.563C130.428 129.166 169.893 129.045 176.348 125.656C182.806 122.268 187.935 108.472 187.935 108.472C187.935 108.472 184.856 128.863 181.902 139.086C178.944 149.308 175.749 156.295 175.749 156.295C175.749 156.295 166.879 156.085 164.886 158.926C162.896 161.771 162.836 166.308 162.836 166.308V173.931L149.923 170.663L162.836 178.77C162.836 178.77 162.956 182.642 164.102 185.487C165.247 188.331 181.781 186.877 191.017 185.124C200.248 183.371 209.48 177.199 211.172 158.386C212.86 139.569 209.604 122.993 206.104 112.287L206.093 112.291ZM158.42 104.184C157.619 104.184 156.973 103.533 156.973 102.733C156.973 101.933 157.622 101.282 158.42 101.282C159.218 101.282 159.867 101.933 159.867 102.733C159.867 103.533 159.218 104.184 158.42 104.184ZM158.42 95.5932C157.619 95.5932 156.973 94.9426 156.973 94.1425C156.973 93.3425 157.622 92.6918 158.42 92.6918C159.218 92.6918 159.867 93.3425 159.867 94.1425C159.867 94.9426 159.218 95.5932 158.42 95.5932Z" fill="#32B353"/>
<path d="M162.829 166.315C162.829 166.315 162.889 161.778 164.879 158.933C166.868 156.089 175.742 156.302 175.742 156.302C175.742 156.302 178.941 149.315 181.895 139.093C184.853 128.87 187.928 108.479 187.928 108.479C187.928 108.479 182.799 122.275 176.341 125.663C169.883 129.052 130.42 129.173 125.654 126.57C120.887 123.967 115.88 109.812 115.88 109.812C115.88 109.812 115.216 116.227 117.447 129.052C119.681 141.877 126.739 157.849 126.739 157.849C126.739 157.849 131.445 157.909 134.705 158.937C137.964 159.964 136.755 166.923 136.755 166.923L136.293 173.451L149.909 170.674L162.822 173.942V166.318L162.829 166.315Z" fill="#309E47"/>
<path d="M158.424 92.6917C157.622 92.6917 156.977 93.3423 156.977 94.1423C156.977 94.9424 157.626 95.5931 158.424 95.5931C159.222 95.5931 159.871 94.9424 159.871 94.1423C159.871 93.3423 159.222 92.6917 158.424 92.6917Z" fill="#FFA440"/>
<path d="M158.424 101.282C157.622 101.282 156.977 101.933 156.977 102.733C156.977 103.533 157.626 104.184 158.424 104.184C159.222 104.184 159.871 103.533 159.871 102.733C159.871 101.933 159.222 101.282 158.424 101.282Z" fill="#FFA440"/>
<path d="M121.916 157.767C121.88 157.767 121.845 157.767 121.806 157.76C121.707 157.746 111.737 156.188 107.443 156.256C107.081 156.266 106.733 155.95 106.726 155.555C106.723 155.164 107.031 154.844 107.421 154.837C111.822 154.759 121.607 156.295 122.022 156.359C122.409 156.419 122.671 156.782 122.611 157.17C122.558 157.518 122.256 157.767 121.912 157.767H121.916Z" fill="#309E47"/>
<path d="M94.4018 156.921C94.3806 156.921 94.3557 156.921 94.3345 156.921C93.9443 156.885 93.6606 156.537 93.6996 156.149C93.7174 155.961 95.5686 136.963 100.119 120.575C104.676 104.166 106.042 101.641 106.098 101.542C106.29 101.2 106.723 101.083 107.059 101.272C107.4 101.464 107.52 101.897 107.329 102.235C107.276 102.331 105.928 104.934 101.481 120.952C96.966 137.215 95.1253 156.092 95.1076 156.281C95.0721 156.647 94.7636 156.921 94.4054 156.921H94.4018Z" fill="#309E47"/>
<path d="M205.639 155.591H205.618C205.228 155.58 204.919 155.253 204.93 154.862C204.933 154.738 205.267 142.186 203.249 129.158C201.227 116.098 196.67 98.6118 196.624 98.434C196.524 98.0571 196.751 97.6696 197.127 97.57C197.503 97.4705 197.89 97.698 197.989 98.0749C198.035 98.2491 202.607 115.807 204.642 128.938C206.682 142.097 206.345 154.773 206.341 154.901C206.331 155.285 206.015 155.587 205.635 155.587L205.639 155.591Z" fill="#309E47"/>
<path d="M149.795 146.595C149.795 146.595 149.252 144.017 147.866 144.277C146.479 144.536 140.021 166.919 140.021 166.919H136.762L135.917 178.898C135.917 178.898 146.419 182.408 149.795 173.334C149.795 173.334 152.512 182.347 162.829 178.777V166.315L159.569 165.952C159.569 165.952 153.959 144.768 152.448 144.259C150.941 143.751 149.792 146.595 149.792 146.595H149.795Z" fill="#E5906E"/>
<path d="M179.724 156.757C179.76 156.757 179.795 156.757 179.834 156.754C179.934 156.747 189.903 155.968 194.198 156.003C194.56 156.007 194.907 155.851 194.914 155.655C194.918 155.459 194.609 155.299 194.216 155.296C189.814 155.257 180.029 156.025 179.614 156.057C179.228 156.085 178.965 156.267 179.026 156.462C179.079 156.636 179.38 156.761 179.724 156.761V156.757Z" fill="#161742"/>
<path d="M151.352 104.258C151.295 104.258 151.235 104.248 151.178 104.223C150.402 103.899 149.721 100.553 149.593 99.8849C149.309 98.4057 149.16 96.9123 149.061 95.7745C149.008 95.1594 148.962 94.5443 148.916 93.9256C148.852 93.0723 148.788 92.1905 148.703 91.3264C148.681 91.106 148.66 90.8855 148.635 90.6687C148.536 89.7371 148.437 88.7806 148.483 87.8206C148.43 87.817 148.376 87.8099 148.323 87.8028L148.398 87.2766C148.483 87.2872 148.568 87.2943 148.653 87.3015L149.047 87.3335L149.025 87.5966C148.951 88.5957 149.054 89.5771 149.16 90.6153C149.185 90.8358 149.206 91.0562 149.228 91.2767C149.313 92.1478 149.377 93.0331 149.44 93.8865C149.487 94.5016 149.533 95.1132 149.586 95.7283C149.682 96.8519 149.827 98.3311 150.107 99.7853C150.426 101.442 151.004 103.401 151.334 103.704C151.515 103.512 151.519 102.964 151.526 102.594C151.526 102.42 151.529 102.256 151.543 102.128C151.636 101.357 151.714 100.592 151.767 100.013C151.806 99.6004 151.845 99.188 151.88 98.7755C151.969 97.8226 152.058 96.8377 152.168 95.8706C152.327 94.4839 152.483 93.0971 152.632 91.7105C152.71 90.9993 152.785 90.2846 152.856 89.5735C152.87 89.4491 152.873 89.3068 152.877 89.1575C152.895 88.5779 152.912 87.8597 153.459 87.5468C153.827 87.3335 154.299 87.2517 154.753 87.1663C154.962 87.1272 155.157 87.0917 155.331 87.049C156.009 86.8677 156.707 86.6686 157.402 86.4517C158.693 86.0499 160.027 85.5805 161.367 85.0543L161.527 84.9903C163.424 84.2472 165.382 83.4791 167.209 82.5191C168.223 81.9858 169.088 81.4489 169.854 80.8835C170.617 80.3182 171.482 79.6782 172.071 78.967L172.482 79.3084C171.855 80.0728 170.961 80.7342 170.173 81.3138C169.386 81.8969 168.496 82.4445 167.457 82.992C165.606 83.9663 163.63 84.7414 161.719 85.4881L161.559 85.5521C160.208 86.0819 158.86 86.5548 157.558 86.9601C156.856 87.177 156.154 87.3797 155.466 87.5646C155.274 87.6144 155.065 87.6535 154.849 87.6926C154.437 87.7673 154.012 87.8419 153.721 88.009C153.434 88.1726 153.42 88.7024 153.405 89.1717C153.402 89.3317 153.395 89.4882 153.381 89.6269C153.306 90.3415 153.232 91.0527 153.154 91.7673C153.005 93.1576 152.845 94.5443 152.689 95.931C152.579 96.8946 152.49 97.8759 152.402 98.8253C152.363 99.2377 152.327 99.6537 152.288 100.066C152.232 100.649 152.157 101.421 152.061 102.196C152.051 102.299 152.047 102.445 152.047 102.605C152.04 103.174 152.033 103.878 151.583 104.184C151.504 104.237 151.419 104.262 151.334 104.262L151.352 104.258Z" fill="#161742"/>
<path d="M174.1 187.699C172.986 187.699 171.858 187.659 170.741 187.56C170.397 187.528 170.018 187.51 169.62 187.485C167.861 187.389 165.673 187.272 164.4 186.109C162.417 184.303 162.35 179.755 162.304 176.744C162.297 176.281 162.29 175.858 162.279 175.492C162.116 170.987 162.439 166.461 163.229 162.041C163.662 159.634 164.538 158.304 165.904 157.97L166.028 158.489C164.886 158.766 164.141 159.961 163.751 162.137C162.963 166.521 162.648 171.008 162.807 175.474C162.822 175.84 162.829 176.267 162.836 176.736C162.878 179.656 162.946 184.065 164.758 185.714C165.893 186.749 167.975 186.859 169.649 186.952C170.049 186.973 170.436 186.994 170.787 187.026C173.766 187.293 176.848 187.123 179.469 186.923C189.914 186.127 202.522 183.677 207.352 171.719C211.03 162.613 211.242 153.813 211.143 144.85C211.058 137.432 210.001 129.66 207.994 121.756C207.675 120.5 207.419 119.22 207.168 117.983C206.77 116.013 206.362 113.979 205.699 112.024C204.1 107.295 202.018 102.822 200.018 98.644C198.525 95.5221 196.84 92.5354 195.017 89.7727L195.46 89.4775C197.297 92.2616 198.993 95.2697 200.496 98.4129C202.5 102.605 204.593 107.096 206.203 111.85C206.873 113.837 207.288 115.889 207.689 117.873C207.937 119.103 208.192 120.376 208.508 121.621C210.526 129.567 211.59 137.379 211.675 144.839C211.778 153.86 211.562 162.717 207.845 171.915C202.905 184.146 190.109 186.642 179.508 187.453C177.841 187.581 175.99 187.695 174.096 187.695L174.1 187.699Z" fill="#161742"/>
<path d="M131.094 188.755C130.534 188.755 130.03 188.676 129.669 188.502L129.896 188.022C131.041 188.566 134.286 187.923 134.917 186.81C135.563 185.668 135.577 183.99 135.595 182.369C135.602 181.576 135.609 180.825 135.691 180.164C135.953 178.063 136.042 175.904 136.13 173.817C136.187 172.434 136.247 171.001 136.357 169.597V169.547C136.63 166.105 137.077 160.341 133.087 158.83C130.527 157.863 127.59 157.426 124.75 157.003C123.71 156.85 122.732 156.704 121.767 156.533C118.653 155.982 115.404 155.694 112.262 155.413C110.695 155.275 109.074 155.129 107.499 154.955C106.534 154.848 105.811 154.866 104.974 154.891C104.602 154.901 104.211 154.912 103.772 154.912V154.379C104.204 154.379 104.591 154.368 104.96 154.357C105.818 154.336 106.559 154.315 107.559 154.425C109.131 154.599 110.748 154.745 112.312 154.884C115.465 155.164 118.727 155.456 121.863 156.011C122.82 156.181 123.799 156.327 124.831 156.48C127.7 156.907 130.665 157.348 133.279 158.336C137.645 159.986 137.177 165.998 136.896 169.593V169.643C136.783 171.04 136.723 172.466 136.666 173.846C136.577 175.944 136.489 178.109 136.223 180.235C136.145 180.865 136.137 181.601 136.13 182.379C136.116 183.99 136.098 185.818 135.386 187.08C134.807 188.104 132.715 188.762 131.101 188.762L131.094 188.755Z" fill="#161742"/>
<path d="M120.008 139.089C117.536 130.638 114.734 121.055 115.731 111.622L116.259 111.679C115.27 121.005 118.057 130.535 120.515 138.94L120.004 139.089H120.008Z" fill="#161742"/>
<path d="M93.8485 131.267L93.3271 131.16C95.5437 120.22 98.1575 111.732 101.555 104.44C103.101 101.115 104.587 98.5515 106.229 96.3647C110.45 90.7504 116.433 87.9521 122.217 85.2498C126.806 83.1058 131.552 80.887 135.357 77.2781L135.722 77.6656C131.857 81.3351 127.069 83.5716 122.444 85.7334C116.717 88.4108 110.794 91.1771 106.655 96.6848C105.034 98.8395 103.57 101.375 102.037 104.664C98.6611 111.914 96.058 120.369 93.852 131.263L93.8485 131.267Z" fill="#161742"/>
<path d="M154.789 160.011C154.626 159.541 154.462 159.072 154.299 158.599C153.257 155.566 152.118 152.028 151.831 148.43C151.724 147.097 151.735 145.774 151.76 144.657V144.462L151.951 144.409C152.068 144.373 152.186 144.387 152.288 144.444C152.533 144.579 152.629 144.924 152.714 145.226C152.732 145.29 152.749 145.347 152.764 145.397C153.31 147.033 153.771 148.718 154.143 150.403L153.625 150.517C153.264 148.867 152.81 147.221 152.278 145.617C152.271 146.489 152.288 147.434 152.363 148.387C152.647 151.922 153.771 155.424 154.806 158.425C154.97 158.894 155.133 159.364 155.296 159.833L154.792 160.011H154.789Z" fill="#161742"/>
<path d="M152.334 160.203C151.863 158.315 151.466 156.384 151.146 154.464C150.919 153.084 150.763 151.68 150.614 150.321C150.561 149.849 150.512 149.379 150.455 148.906C150.43 148.693 150.391 148.455 150.352 148.209C150.143 146.929 149.88 145.336 151.044 144.476C151.235 144.334 151.746 143.957 152.232 144.412L151.87 144.803C151.774 144.714 151.682 144.668 151.363 144.906C150.462 145.575 150.682 146.929 150.88 148.124C150.923 148.38 150.962 148.625 150.987 148.846C151.044 149.319 151.093 149.792 151.146 150.265C151.295 151.616 151.448 153.013 151.671 154.378C151.987 156.284 152.384 158.201 152.849 160.075L152.331 160.203H152.334Z" fill="#161742"/>
<path d="M145.004 159.374L144.49 159.239L148.228 144.757C147.993 144.682 147.554 144.803 147.313 144.995C147.008 145.237 146.834 145.642 146.681 146.001C146.376 146.713 146.192 147.47 146.011 148.206C145.791 149.109 145.561 150.041 145.11 150.93L144.635 150.688C145.057 149.856 145.277 148.953 145.493 148.078C145.678 147.324 145.869 146.542 146.192 145.792C146.362 145.393 146.571 144.899 146.983 144.576C147.43 144.224 148.309 144.007 148.728 144.458L148.827 144.565L145.007 159.371L145.004 159.374Z" fill="#161742"/>
<path d="M147.267 160.22L146.749 160.092C147.224 158.176 147.65 156.22 148.011 154.279C148.313 152.661 148.579 151.011 148.802 149.383C148.834 149.137 148.88 148.874 148.93 148.601C149.132 147.438 149.363 146.122 148.802 145.233C148.763 145.173 148.731 145.12 148.703 145.066C148.65 144.974 148.607 144.899 148.533 144.81L148.937 144.465C149.043 144.59 149.104 144.696 149.164 144.8C149.189 144.846 149.217 144.892 149.253 144.945C149.923 146.008 149.664 147.495 149.455 148.689C149.409 148.956 149.363 149.216 149.331 149.454C149.107 151.093 148.841 152.75 148.536 154.375C148.171 156.327 147.745 158.29 147.267 160.217V160.22Z" fill="#161742"/>
<path d="M152.994 178.091C151.299 177.056 150.1 174.848 149.661 173.12C149.26 171.542 149.075 169.76 149.097 167.673C149.114 165.952 149.199 164.213 149.285 162.532C149.426 159.748 149.568 156.871 149.395 154.041L149.927 154.009C150.104 156.868 149.958 159.762 149.817 162.56C149.731 164.238 149.646 165.974 149.629 167.68C149.607 169.721 149.788 171.46 150.178 172.989C150.59 174.61 151.707 176.68 153.274 177.636L152.998 178.091H152.994Z" fill="#161742"/>
<path d="M142.227 178.557L142.11 178.038C144.316 177.54 146.22 175.933 147.079 173.839L147.572 174.041C146.646 176.296 144.596 178.024 142.227 178.561V178.557Z" fill="#161742"/>
<path d="M136.184 33.6256C136.854 31.9011 137.063 30.0379 137.219 28.2068C137.517 24.7045 137.982 21.3693 137.95 17.8705C137.95 17.6892 138.077 15.7265 137.921 15.6483C137.921 15.6483 145.369 19.2537 153.842 19.4599C162.315 19.6661 170.071 15.6483 170.071 15.6483C169.897 15.7372 169.911 17.3336 169.897 17.5185C169.755 19.1861 169.642 20.8537 169.557 22.5249C169.44 24.7969 169.369 27.0725 169.365 29.3446C169.365 31.4709 169.528 33.5296 169.865 35.6203C170.883 33.398 172.387 31.4033 174.242 29.8104C174.88 29.2628 175.593 28.7472 176.419 28.5979C176.607 28.5623 176.664 25.7321 176.699 25.4654C176.795 24.7116 176.862 24.0396 176.823 23.268C176.735 21.4973 176.561 19.7301 176.277 17.9808C175.72 14.5176 174.752 11.0082 172.848 8.02854C167.095 -0.981452 143.986 -3.19661 135.666 5.45425C132.861 8.36988 131.247 12.1922 130.35 16.0963C129.481 19.8866 128.817 24.4094 129.271 28.2921C131.992 28.4806 134.616 32.5802 135.762 34.7705C135.9 34.3794 136.045 33.9989 136.191 33.6256H136.184Z" fill="#161742"/>
<path d="M169.362 25.028C169.362 21.6822 170.195 18.4572 170.379 15.1362C168.627 16.1674 166.783 17.1025 164.843 17.6821C162.637 18.3399 160.364 18.7523 158.076 18.9834C153.97 19.3994 149.767 19.2963 145.749 18.2901C145.011 18.1052 137.999 16.2029 138.046 15.6874C137.78 18.8305 137.971 22.0199 137.663 25.1774C137.379 28.0965 136.836 30.9873 136.063 33.814C135.964 34.1802 135.63 34.8167 135.662 35.2007C135.304 30.9268 129.498 28.3028 129.498 28.3028C128.027 27.4921 122.873 28.765 125.494 35.6132C128.115 42.4613 133.506 41.3804 133.506 41.3804C133.506 41.3804 133.403 45.9103 133.506 47.969C133.609 50.0277 141.571 60.3177 152.303 60.428C162.3 60.5311 169.351 50.3868 170.174 48.6872C170.996 46.9876 170.996 41.1706 170.996 41.1706C175.979 41.48 177.98 36.9999 179.111 32.726C180.242 28.4521 176.543 28.6085 176.543 28.6085C171.153 30.1517 170.071 35.6096 170.071 35.6096C169.5 32.118 169.365 28.5588 169.365 25.028H169.362Z" fill="#E5906E"/>
<path d="M147.476 32.9427C147.54 32.9178 147.603 32.8965 147.667 32.8716C148.178 32.676 148.646 32.3845 149.111 32.0965C149.16 32.0645 149.21 32.0325 149.238 31.9827C149.267 31.9294 149.267 31.8654 149.263 31.8085C149.21 30.6138 148.458 29.5293 147.462 28.9284C145.312 27.6306 142.801 28.2528 140.755 29.4262C140.28 29.7 139.755 30.0413 139.673 30.5853C139.624 30.9231 139.773 31.268 139.993 31.5311C141.869 33.7463 144.901 33.8707 147.472 32.9463L147.476 32.9427Z" fill="#FFF3EB"/>
<path d="M157.739 33.0494C157.264 32.9356 157.087 30.9765 157.739 30.8698C158.392 30.7596 160.169 31.8512 162.744 31.5241C165.318 31.1969 167.131 29.3053 167.783 29.5613C168.436 29.8173 166.443 35.1224 157.739 33.0494Z" fill="#161742"/>
<path d="M148.086 22.0626C141.582 21.7782 140.042 26.2334 140.028 26.2761C139.986 26.4076 140 26.5498 140.064 26.6707C140.128 26.7952 140.234 26.8841 140.369 26.9267C140.418 26.9445 140.472 26.9516 140.525 26.9516C140.752 26.9516 140.95 26.8058 141.018 26.589C141.028 26.5498 142.316 22.8271 148.043 23.0973H148.061C148.348 23.0973 148.572 22.8875 148.586 22.6031C148.6 22.3151 148.377 22.0733 148.093 22.0591L148.086 22.0626Z" fill="#161742"/>
<path d="M132.109 37.0851C132.038 37.0923 130.428 37.2771 130.023 35.9865C129.615 34.6922 131.031 33.9135 131.091 33.8815L131.449 33.686L131.261 33.3268C131.211 33.2344 130.03 31.0334 128.027 31.0334C127.8 31.0334 127.615 31.2183 127.615 31.4459C127.615 31.6735 127.8 31.8584 128.027 31.8584C129.147 31.8584 129.991 32.8895 130.339 33.3944C129.892 33.7251 128.775 34.7384 129.247 36.2389C129.74 37.8069 131.36 37.9278 131.846 37.9278C131.977 37.9278 132.102 37.9207 132.219 37.9065C132.442 37.8781 132.602 37.6718 132.573 37.4478C132.545 37.2238 132.339 37.0638 132.116 37.0923L132.109 37.0851Z" fill="#161742"/>
<path d="M152.597 44.1572C152.941 44.3066 153.296 44.3848 153.657 44.3848C154.356 44.3848 155.069 44.0968 155.711 43.5492C155.931 43.3643 155.956 43.0372 155.771 42.8167C155.682 42.7101 155.558 42.6461 155.42 42.6354C155.285 42.6212 155.147 42.6674 155.044 42.7563C154.36 43.3323 153.657 43.4888 153.012 43.2079C152.186 42.8487 151.597 41.8532 151.547 40.7296C151.444 38.5002 152.253 34.4254 152.264 34.3863C152.292 34.2512 152.264 34.1125 152.189 33.9952C152.111 33.8779 151.994 33.7996 151.859 33.7748C151.721 33.7463 151.586 33.7748 151.469 33.8494C151.356 33.9276 151.274 34.045 151.249 34.1801C151.214 34.3508 150.405 38.4291 150.515 40.7758C150.586 42.2834 151.423 43.6417 152.601 44.1572H152.597Z" fill="#161742"/>
<path d="M156.878 49.7149C152.916 51.9691 149.235 49.818 149.082 49.722C148.781 49.5406 148.384 49.6402 148.203 49.9424C148.022 50.2447 148.118 50.6393 148.419 50.8242C148.501 50.874 150.434 52.026 153.058 52.026C154.619 52.026 156.115 51.6242 157.509 50.8349C157.658 50.7496 157.764 50.6109 157.81 50.4473C157.857 50.2802 157.835 50.1095 157.75 49.9602C157.576 49.6544 157.186 49.5442 156.878 49.7184V49.7149Z" fill="#161742"/>
<path d="M158.754 22.0483C158.555 22.0483 158.35 22.0519 158.14 22.0626C158.002 22.0697 157.874 22.1301 157.782 22.2332C157.69 22.3363 157.64 22.4679 157.647 22.6066C157.654 22.7488 157.718 22.8839 157.821 22.9764C157.92 23.0653 158.055 23.1115 158.19 23.1008C163.932 22.8235 165.163 26.4396 165.212 26.5924C165.28 26.8093 165.478 26.9551 165.705 26.9551C165.758 26.9551 165.812 26.948 165.861 26.9302C166.134 26.8449 166.283 26.5533 166.198 26.2796C166.184 26.2369 164.744 22.0519 158.754 22.0519V22.0483Z" fill="#161742"/>
<path d="M176.71 31.0335C174.752 31.0335 173.6 33.0922 173.472 33.3269L173.281 33.6895L173.642 33.8815C173.642 33.8815 175.118 34.6958 174.71 35.9865C174.302 37.2772 172.692 37.0923 172.621 37.0852C172.394 37.0603 172.192 37.2167 172.163 37.4407C172.135 37.6647 172.295 37.871 172.518 37.8994C172.635 37.9136 172.763 37.9208 172.89 37.9208C173.376 37.9208 174.994 37.7999 175.49 36.2318C175.962 34.7313 174.841 33.7215 174.394 33.3873C174.738 32.8824 175.579 31.8513 176.707 31.8513C176.934 31.8513 177.118 31.6664 177.118 31.4388C177.118 31.2113 176.934 31.0264 176.707 31.0264L176.71 31.0335Z" fill="#161742"/>
<path d="M159.374 45.3094C161.382 46.0455 163.783 46.2339 165.524 44.993C162.531 48.5024 157.144 49.6971 152.952 47.7842C152.842 47.7344 152.104 48.1611 151.959 48.2144C151.32 48.4348 150.696 48.5451 150.026 48.5522C148.88 48.5628 147.735 48.5948 146.589 48.538C144.355 48.4277 141.95 48.1006 140.056 46.8099C141.369 47.3148 142.84 46.8419 144.117 46.2623C145.901 45.4481 148.877 44.1539 150.87 44.7299C152.122 45.0925 152.98 46.0134 154.36 45.5157C154.909 45.3165 155.409 45.0036 155.948 44.7868C157.207 44.2783 158.193 44.8828 159.374 45.3165V45.3094Z" fill="#161742"/>
<path d="M144.468 32.925C145.614 32.925 146.543 31.9937 146.543 30.8449C146.543 29.6962 145.614 28.7649 144.468 28.7649C143.322 28.7649 142.394 29.6962 142.394 30.8449C142.394 31.9937 143.322 32.925 144.468 32.925Z" fill="#161742"/>
</g>
<defs>
<clipPath id="clip0_311_299">
<rect width="314" height="304" fill="white"/>
</clipPath>
</defs>
</svg>
