<svg width="32" height="32" viewBox="0 0 32 32" fill="none" xmlns="http://www.w3.org/2000/svg">
<g clip-path="url(#clip0_85_9923)">
<path d="M16 0C7.17756 0 0 7.17756 0 16C0 24.8224 7.17756 32 16 32C24.8224 32 32 24.8224 32 16C32 7.17756 24.8224 0 16 0Z" fill="#161742"/>
<path d="M15.625 9V8.5C15.625 8.40054 15.6645 8.30516 15.7348 8.23483C15.8052 8.16451 15.9005 8.125 16 8.125C16.0995 8.125 16.1948 8.16451 16.2652 8.23483C16.3355 8.30516 16.375 8.40054 16.375 8.5V9C16.375 9.09946 16.3355 9.19484 16.2652 9.26517C16.1948 9.33549 16.0995 9.375 16 9.375C15.9005 9.375 15.8052 9.33549 15.7348 9.26517C15.6645 9.19484 15.625 9.09946 15.625 9ZM20.5 10.875C20.5994 10.8749 20.6947 10.8353 20.765 10.765L21.265 10.265C21.3018 10.2307 21.3314 10.1893 21.3519 10.1433C21.3724 10.0973 21.3834 10.0476 21.3843 9.99726C21.3852 9.94691 21.3759 9.8969 21.3571 9.8502C21.3382 9.80351 21.3101 9.76109 21.2745 9.72548C21.2389 9.68987 21.1965 9.6618 21.1498 9.64294C21.1031 9.62408 21.0531 9.61482 21.0027 9.6157C20.9524 9.61659 20.9027 9.62761 20.8567 9.64811C20.8107 9.66861 20.7693 9.69816 20.735 9.735L20.235 10.235C20.1826 10.2874 20.147 10.3542 20.1325 10.4269C20.1181 10.4996 20.1255 10.575 20.1539 10.6435C20.1822 10.7119 20.2302 10.7705 20.2918 10.8117C20.3534 10.8529 20.4259 10.8749 20.5 10.875ZM11.235 10.765C11.3061 10.8312 11.4001 10.8673 11.4973 10.8656C11.5944 10.8639 11.6871 10.8245 11.7558 10.7558C11.8245 10.6871 11.8639 10.5944 11.8656 10.4973C11.8673 10.4001 11.8312 10.3061 11.765 10.235L11.265 9.735C11.1939 9.66876 11.0999 9.6327 11.0027 9.63441C10.9056 9.63613 10.8129 9.67548 10.7442 9.74419C10.6755 9.8129 10.6361 9.90559 10.6344 10.0027C10.6327 10.0999 10.6688 10.1939 10.735 10.265L11.235 10.765ZM16.5625 12.63C16.5139 12.6218 16.4642 12.6232 16.4161 12.6342C16.3681 12.6453 16.3227 12.6656 16.2826 12.6942C16.2015 12.7518 16.1466 12.8394 16.13 12.9375C16.1134 13.0356 16.1365 13.1363 16.1942 13.2174C16.2518 13.2985 16.3394 13.3534 16.4375 13.37C17.6875 13.5787 18.625 14.71 18.625 16C18.625 16.0995 18.6645 16.1948 18.7348 16.2652C18.8052 16.3355 18.9005 16.375 19 16.375C19.0995 16.375 19.1948 16.3355 19.2652 16.2652C19.3355 16.1948 19.375 16.0995 19.375 16C19.375 14.3481 18.1656 12.8994 16.5625 12.63ZM22.375 19V20.5C22.375 20.7321 22.2828 20.9546 22.1187 21.1187C21.9546 21.2828 21.7321 21.375 21.5 21.375H10.5C10.2679 21.375 10.0454 21.2828 9.88128 21.1187C9.71719 20.9546 9.625 20.7321 9.625 20.5V19C9.625 18.7679 9.71719 18.5454 9.88128 18.3813C10.0454 18.2172 10.2679 18.125 10.5 18.125H10.625V16C10.625 14.5745 11.1913 13.2073 12.1993 12.1993C13.2073 11.1913 14.5745 10.625 16 10.625H16.0406C18.9819 10.6469 21.375 13.0863 21.375 16.0625V18.125H21.5C21.7321 18.125 21.9546 18.2172 22.1187 18.3813C22.2828 18.5454 22.375 18.7679 22.375 19ZM11.375 18.125H20.625V16.0625C20.625 13.5 18.5662 11.3937 16.035 11.375H16C14.7734 11.375 13.597 11.8623 12.7296 12.7296C11.8623 13.597 11.375 14.7734 11.375 16V18.125ZM21.625 19C21.625 18.9668 21.6118 18.9351 21.5884 18.9116C21.5649 18.8882 21.5332 18.875 21.5 18.875H10.5C10.4668 18.875 10.4351 18.8882 10.4116 18.9116C10.3882 18.9351 10.375 18.9668 10.375 19V20.5C10.375 20.5332 10.3882 20.5649 10.4116 20.5884C10.4351 20.6118 10.4668 20.625 10.5 20.625H21.5C21.5332 20.625 21.5649 20.6118 21.5884 20.5884C21.6118 20.5649 21.625 20.5332 21.625 20.5V19Z" fill="#FFD3D7"/>
</g>
<defs>
<clipPath id="clip0_85_9923">
<rect width="32" height="32" fill="white"/>
</clipPath>
</defs>
</svg>
