<svg width="313" height="372" viewBox="0 0 313 372" fill="none" xmlns="http://www.w3.org/2000/svg">
<ellipse cx="141.31" cy="134.587" rx="134.689" ry="134.587" fill="#EFF9FD"/>
<mask id="mask0_1280_2461" style="mask-type:alpha" maskUnits="userSpaceOnUse" x="6" y="0" width="270" height="270">
<ellipse cx="141.31" cy="134.587" rx="134.689" ry="134.587" fill="#1D478E"/>
</mask>
<g mask="url(#mask0_1280_2461)">
<path d="M6.62436 82.4643L71.4525 97.5545L2.84724 129.556L6.62436 82.4643Z" fill="#FFD327"/>
<path d="M55.574 18.091L81.2144 44.3143L19.2201 26.408L55.574 18.091Z" fill="#FFD327"/>
<path d="M83.4134 12.7904L92.5024 26.746L70.8223 15.4551L83.4134 12.7904Z" fill="#FFD327"/>
<path d="M107.435 2.68191L107.564 19.053L92.2207 5.97021L107.435 2.68191Z" fill="#FFD327"/>
<path d="M6.625 31.4321L73.3259 69.3118L15.8484 71.8933L6.625 31.4321Z" fill="#FFD327"/>
<path d="M207.144 279.928L184.183 217.452L248.584 257.242L207.144 279.928Z" fill="#FFD327"/>
<path d="M126.468 274.333L134.319 238.508L153.37 300.16L126.468 274.333Z" fill="#FFD327"/>
<path d="M103.292 264.249L109.971 248.992L112.43 273.312L103.292 264.249Z" fill="#FFD327"/>
<path d="M78.1165 255.527L91.7315 246.436L89.2148 266.442L78.1165 255.527Z" fill="#FFD327"/>
<path d="M164.482 307.932L159.545 231.385L193.245 278.018L164.482 307.932Z" fill="#FFD327"/>
</g>
<path d="M123.16 77.1241L142.461 76.132C143.792 76.0615 144.823 74.9247 144.752 73.5954L143.382 46.9027C143.311 45.5734 142.173 44.5433 140.843 44.6138L128.6 45.2385L119.624 55.4821L120.613 74.8262C120.684 76.1555 121.822 77.1856 123.152 77.1151L123.16 77.1241Z" fill="#5BC4F0" fill-opacity="0.1"/>
<path d="M123.163 77.1257C123.163 77.1257 123.021 77.116 122.744 77.0805C122.477 77.0371 122.07 76.9338 121.644 76.6182C121.235 76.3037 120.8 75.7428 120.724 74.9869C120.693 74.2002 120.652 73.3032 120.602 72.2959C120.413 68.2251 120.145 62.4533 119.814 55.4794L119.771 55.6115C122.497 52.5136 125.525 49.065 128.762 45.3858L128.614 45.4602C130.884 45.3435 133.248 45.2246 135.68 45.1019C136.891 45.0402 138.128 44.9803 139.374 44.9125C139.983 44.8945 140.664 44.814 141.219 44.8514C141.789 44.9152 142.334 45.2135 142.692 45.6679C142.941 45.98 143.109 46.3626 143.15 46.7618C143.19 47.1695 143.201 47.6342 143.223 48.0575C143.265 48.9293 143.316 49.8017 143.359 50.6651C143.445 52.392 143.533 54.0852 143.623 55.7533C143.803 59.0894 143.965 62.3062 144.129 65.3713C144.212 66.9039 144.288 68.4023 144.367 69.8503C144.402 70.5782 144.447 71.2899 144.484 71.9926C144.502 72.3482 144.521 72.6953 144.54 73.0425C144.549 73.3975 144.595 73.7295 144.548 74.0386C144.464 74.6656 144.096 75.2313 143.584 75.568C143.327 75.7363 143.049 75.8609 142.75 75.9166C142.467 75.9735 142.13 75.9676 141.816 75.9886C140.553 76.0552 139.333 76.1247 138.172 76.1898C133.552 76.4517 129.805 76.6712 127.186 76.8235C125.914 76.9063 124.913 76.9738 124.201 77.0185C123.878 77.0473 123.624 77.0639 123.428 77.0845C123.25 77.0977 123.165 77.1089 123.164 77.1173C123.164 77.1173 123.256 77.1235 123.434 77.127C123.636 77.1238 123.89 77.1157 124.211 77.112C124.922 77.0841 125.93 77.0508 127.199 77.0015C129.825 76.8835 133.577 76.7148 138.192 76.5117C139.353 76.4551 140.572 76.4024 141.835 76.3357C142.157 76.3153 142.461 76.3189 142.819 76.2672C143.161 76.2059 143.491 76.0679 143.782 75.8766C144.374 75.4863 144.807 74.8322 144.907 74.105C144.966 73.7293 144.914 73.3799 144.903 73.0417C144.884 72.6945 144.865 72.3474 144.856 71.9924C144.819 71.2896 144.783 70.5701 144.748 69.8422C144.677 68.3864 144.6 66.8964 144.527 65.3644C144.371 62.2999 144.209 59.0746 144.046 55.7397C143.964 54.0722 143.877 52.3705 143.79 50.6521C143.747 49.7887 143.704 48.9252 143.654 48.0445C143.625 47.6038 143.62 47.1816 143.575 46.7146C143.523 46.2386 143.326 45.7782 143.023 45.395C142.595 44.8515 141.944 44.487 141.257 44.4153C140.559 44.3682 139.979 44.4556 139.345 44.4718C138.099 44.5396 136.862 44.5995 135.65 44.6612C133.219 44.7839 130.855 44.9112 128.592 45.0285L128.5 45.0222L128.444 45.1028C125.222 48.7999 122.202 52.2575 119.492 55.3649L119.446 55.4208L119.441 55.4964C119.84 62.4665 120.159 68.2333 120.391 72.2985C120.458 73.3069 120.499 74.2039 120.563 74.9929C120.66 75.8094 121.137 76.3814 121.58 76.6982C122.039 77.016 122.464 77.1038 122.741 77.1309C123.018 77.1496 123.164 77.1173 123.164 77.1173L123.163 77.1257Z" fill="#1D478E"/>
<path d="M128.611 45.2474L128.999 52.7567C129.059 53.9925 128.109 55.0505 126.872 55.1188L119.644 55.4915L128.62 45.248L128.611 45.2474Z" fill="#5BC4F0" fill-opacity="0.3"/>
<path d="M130.602 52.3745C130.604 52.4674 132.606 52.4507 135.072 52.3218C137.538 52.193 139.534 52.0155 139.523 51.922C139.513 51.8285 137.519 51.8458 135.053 51.9747C132.588 52.1035 130.591 52.2809 130.602 52.3745Z" fill="#1D478E"/>
<path d="M125.058 56.9199C125.06 57.0128 128.359 56.9233 132.418 56.7163C136.476 56.5094 139.761 56.2586 139.759 56.1657C139.756 56.0727 136.457 56.1622 132.399 56.3692C128.341 56.5761 125.056 56.8269 125.058 56.9199Z" fill="#1D478E"/>
<path d="M123.911 60.5301C123.913 60.623 127.508 60.5198 131.931 60.2952C136.354 60.0707 139.935 59.8062 139.933 59.7132C139.93 59.6203 136.335 59.7235 131.912 59.9481C127.49 60.1726 123.909 60.4371 123.911 60.5301Z" fill="#1D478E"/>
<path d="M124.077 63.8734C124.079 63.9663 127.674 63.8631 132.097 63.6385C136.52 63.4139 140.101 63.1494 140.099 63.0565C140.096 62.9635 136.501 63.0668 132.078 63.2913C127.656 63.5159 124.075 63.7804 124.077 63.8734Z" fill="#1D478E"/>
<path d="M124.251 67.2283C124.253 67.3213 127.848 67.218 132.271 66.9935C136.694 66.7689 140.275 66.5044 140.272 66.4115C140.27 66.3185 136.675 66.4217 132.252 66.6463C127.829 66.8709 124.248 67.1354 124.251 67.2283Z" fill="#1D478E"/>
<path d="M124.432 70.5726C124.434 70.6655 128.03 70.5623 132.453 70.3377C136.875 70.1132 140.456 69.8486 140.454 69.7557C140.452 69.6628 136.856 69.766 132.434 69.9906C128.011 70.2151 124.43 70.4796 124.432 70.5726Z" fill="#1D478E"/>
<path d="M179.753 49.4246L191.466 45.1065L203.069 49.3587C204.549 50.0723 205.85 50.5075 205.85 51.9216L205.853 58.9634C205.855 63.8556 204.606 68.6983 202.034 72.9772C199.87 76.5775 196.519 80.2854 191.366 82.6442C186.619 81.0676 183.08 76.8624 180.912 73.2637C178.338 68.9867 177.085 64.145 177.083 59.2528L177.081 52.918C177.08 50.904 178.123 49.918 179.746 49.4317L179.753 49.4246Z" fill="#5BC4F0" fill-opacity="0.5"/>
<path d="M179.754 49.424C179.754 49.424 179.489 49.4741 179.018 49.6743C178.56 49.8744 177.824 50.2746 177.381 51.189C177.16 51.639 177.046 52.1961 177.032 52.796C177.032 53.3959 177.025 54.053 177.018 54.7529C177.019 56.1598 177.012 57.7668 177.006 59.5522C177.029 63.1232 177.752 67.5009 179.991 71.8423C181.114 73.9987 182.573 76.1478 184.411 78.1112C186.256 80.0602 188.551 81.8234 191.324 82.7722L191.374 82.7936L191.424 82.7722C195.076 81.1353 198.492 78.3773 201.014 74.7982C204.029 70.5977 205.606 65.6763 205.919 60.9912C206.004 59.8199 205.99 58.6557 205.989 57.5273C205.989 56.3918 205.988 55.2776 205.988 54.1849C205.988 53.635 205.988 53.0994 205.987 52.5637C205.987 52.2923 205.994 52.0352 205.98 51.7567C205.958 51.4782 205.887 51.1925 205.737 50.9498C205.436 50.4571 204.957 50.1573 204.507 49.9075C204.042 49.6577 203.577 49.4579 203.127 49.2438C198.716 47.6386 194.799 46.2188 191.51 45.0202L191.475 45.0059L191.439 45.0202C187.773 46.3929 184.857 47.4795 182.834 48.2373C181.848 48.6091 181.083 48.9022 180.547 49.1095C180.304 49.2024 180.104 49.2811 179.961 49.3382C179.832 49.3883 179.761 49.424 179.768 49.424C179.768 49.424 179.84 49.4097 179.975 49.3597C180.125 49.3096 180.326 49.2381 180.569 49.1523C181.112 48.9593 181.884 48.6805 182.877 48.3302C184.907 47.5938 187.837 46.5285 191.517 45.1916L191.453 45.1917C194.734 46.4045 198.645 47.8457 203.048 49.4724L203.034 49.4724C203.485 49.6865 203.956 49.8934 204.4 50.129C204.843 50.3716 205.279 50.6571 205.522 51.0713C205.78 51.4925 205.73 52.0139 205.73 52.5567C205.73 53.0923 205.73 53.6351 205.731 54.1779C205.731 55.2706 205.732 56.3847 205.732 57.5203C205.732 58.6558 205.747 59.8057 205.655 60.9627C205.342 65.5979 203.771 70.4621 200.792 74.6126C198.299 78.1488 194.926 80.8711 191.324 82.4937L191.431 82.4936C188.715 81.5662 186.448 79.8387 184.625 77.9183C182.802 75.9764 181.35 73.8558 180.234 71.7208C178.002 67.4293 177.257 63.0874 177.206 59.5379C177.198 57.7524 177.19 56.1455 177.175 54.7386C177.196 53.3387 177.039 52.1033 177.489 51.2175C177.896 50.3246 178.61 49.9244 179.053 49.71C179.282 49.5956 179.468 49.5313 179.589 49.4884C179.711 49.4455 179.775 49.4169 179.775 49.4169L179.754 49.424Z" fill="#5BC4F0" fill-opacity="0.7"/>
<path d="M197.528 60.5656C197.289 60.0654 196.76 59.7173 196.145 59.7176L195.831 59.7177L195.83 56.95C195.83 54.8306 194.025 53.1136 191.8 53.1145L191.718 53.1145C189.493 53.1153 187.69 54.8336 187.691 56.9531L187.692 59.7208L187.378 59.7209C186.54 59.7212 185.86 60.3685 185.86 61.167L185.863 68.6255C185.864 69.4234 186.543 70.0708 187.382 70.0705L196.149 70.0672C196.988 70.0669 197.667 69.4195 197.666 68.621L197.664 61.1626C197.664 60.9497 197.615 60.7471 197.528 60.5656ZM188.87 56.9526C188.869 55.4558 190.147 54.2385 191.718 54.238L191.8 54.2379C193.371 54.2373 194.649 55.4542 194.65 56.9505L194.651 59.7181L188.87 59.7203L188.87 56.9526ZM192.383 64.8178L192.716 67.3958C192.733 67.5262 192.627 67.6412 192.489 67.6412L191.04 67.6418C190.902 67.6418 190.795 67.5269 190.812 67.3966L191.144 64.8183C190.614 64.5834 190.254 64.0571 190.295 63.455C190.342 62.7623 190.929 62.1992 191.656 62.1506C192.516 62.0928 193.233 62.7402 193.234 63.5472C193.234 64.1101 192.885 64.5945 192.383 64.8178Z" fill="#FFF3EB"/>
<g opacity="0.5" clip-path="url(#clip0_1280_2461)">
<path d="M230.673 103.629C231.422 106.387 229.885 109.2 227.232 109.927C224.576 110.646 221.815 109.006 221.067 106.248C220.319 103.491 221.855 100.677 224.509 99.9502C227.164 99.2308 229.918 100.873 230.673 103.629Z" fill="#5BC4F0"/>
<path d="M241.406 89.9907C242.154 92.7483 240.617 95.5615 237.964 96.2887C235.309 97.0081 232.555 95.3656 231.8 92.61C231.051 89.8524 232.593 87.0294 235.249 86.31C237.904 85.5906 240.658 87.2331 241.413 89.9886L241.406 89.9907Z" fill="#5BC4F0"/>
<path d="M247.173 111.127C247.987 114.128 246.504 117.137 243.851 117.864C241.195 118.583 238.389 116.745 237.567 113.746C236.753 110.746 238.236 107.737 240.89 107.01C243.545 106.29 246.352 108.129 247.173 111.127Z" fill="#5BC4F0"/>
<path d="M240.779 112.186C240.66 112.555 236.949 111.533 232.501 109.913C228.05 108.284 224.536 106.671 224.654 106.303C224.773 105.934 228.482 106.948 232.932 108.576C237.382 110.205 240.897 111.818 240.771 112.188L240.779 112.186Z" fill="#5BC4F0"/>
<path d="M235.503 91.2199C235.811 91.4563 233.988 94.4984 231.436 98.0156C228.884 101.533 226.567 104.187 226.258 103.943C225.951 103.707 227.773 100.665 230.326 97.1473C232.88 93.638 235.196 90.9835 235.503 91.2199Z" fill="#5BC4F0"/>
</g>
<mask id="mask1_1280_2461" style="mask-type:alpha" maskUnits="userSpaceOnUse" x="0" y="161" width="88" height="88">
<rect y="161" width="88" height="88" fill="#D9D9D9"/>
</mask>
<g mask="url(#mask1_1280_2461)">
<path d="M15.1286 234.333C14.5578 234.333 14.0527 234.198 13.6133 233.926C13.1733 233.655 12.8314 233.297 12.5876 232.853C12.3212 232.415 12.1745 231.942 12.1476 231.432C12.1213 230.922 12.264 230.408 12.5757 229.889L41.4388 180.111C41.7504 179.592 42.1263 179.216 42.5663 178.98C43.0057 178.746 43.4838 178.628 44.0008 178.628C44.5178 178.628 44.996 178.746 45.4354 178.98C45.8754 179.216 46.2513 179.592 46.5629 180.111L75.426 229.889C75.7377 230.408 75.8804 230.922 75.8541 231.432C75.8272 231.942 75.6805 232.415 75.4141 232.853C75.1703 233.297 74.8284 233.655 74.3884 233.926C73.949 234.198 73.4439 234.333 72.8731 234.333H15.1286ZM44.0008 225.59C44.6401 225.59 45.176 225.374 45.6087 224.941C46.0413 224.509 46.2577 223.973 46.2577 223.333C46.2577 222.694 46.0413 222.158 45.6087 221.726C45.176 221.293 44.6401 221.077 44.0008 221.077C43.3616 221.077 42.8257 221.293 42.393 221.726C41.9603 222.158 41.744 222.694 41.744 223.333C41.744 223.973 41.9603 224.509 42.393 224.941C42.8257 225.374 43.3616 225.59 44.0008 225.59ZM44.0036 217.41C44.5237 217.41 44.9588 217.234 45.3089 216.883C45.6591 216.531 45.8342 216.096 45.8342 215.577V200.91C45.8342 200.39 45.6582 199.955 45.3062 199.604C44.9542 199.252 44.5182 199.077 43.9981 199.077C43.478 199.077 43.0429 199.252 42.6928 199.604C42.3426 199.955 42.1675 200.39 42.1675 200.91V215.577C42.1675 216.096 42.3435 216.531 42.6955 216.883C43.0475 217.234 43.4835 217.41 44.0036 217.41Z" fill="#EE3D4B"/>
</g>
<g clip-path="url(#clip1_1280_2461)">
<path d="M266.203 168.808C275.894 201.273 275.132 199.131 296.283 225.598C297.622 227.278 289.84 241.508 288.598 243.125C284.757 248.114 285.23 249.837 280.239 253.666C277.526 255.749 277.072 266.113 273.442 264.451C270.106 262.93 266.195 279.614 264.84 276.554C261.539 269.093 257.431 267.684 253.048 260.8C248.324 253.387 238.97 250.503 237.088 239.374C233.572 232.002 231.471 224.04 228.315 216.505C225.992 210.963 223.114 205.695 219.946 200.589C219.025 199.107 218.082 197.64 217.12 196.179C214.301 191.9 211.328 187.717 208.367 183.547C207.713 183.828 207.05 184.059 206.376 184.246C201.751 185.549 196.677 184.906 191.782 185.238C190.28 185.338 188.795 185.533 187.342 185.905C183.158 186.972 179.352 189.484 175.048 189.845C173.451 189.979 171.735 189.595 170.27 188.844C167.781 187.586 165.989 185.27 166.622 182.632C167.012 181.012 168.208 179.728 169.405 178.568C173.22 174.882 177.491 171.671 182.084 169.016C186.74 166.322 191.726 164.197 196.896 162.726C196.587 158.878 196.275 155.027 195.966 151.18C195.94 150.838 195.91 150.494 195.883 150.153C195.725 148.207 195.57 146.257 195.412 144.308C195.011 139.32 194.608 134.333 194.204 129.345C197.411 131.317 200.634 133.3 203.891 135.238C217.714 143.48 232.063 150.969 247.793 153.923C252.499 154.81 257.621 155.431 261.112 158.709C263.896 161.318 265.113 165.148 266.206 168.804L266.203 168.808Z" fill="#EBB48B"/>
<g style="mix-blend-mode:multiply" opacity="0.45">
<path d="M181.863 172.956C183.601 172.435 185.36 171.96 187.167 171.783C188.129 171.69 189.173 171.692 190.105 171.96C189.962 172.456 189.669 172.893 189.342 173.29C189.113 173.566 188.867 173.824 188.607 174.064C186.758 175.783 183.899 176.902 181.443 177.37C178.219 177.981 174.938 178.215 171.685 178.632C171.466 178.659 171.19 178.657 171.1 178.456C170.957 178.127 171.605 177.581 171.792 177.368C172.159 176.954 172.631 176.668 173.105 176.378C174.358 175.611 175.697 175.102 177.056 174.572C178.632 173.96 180.24 173.436 181.859 172.953L181.863 172.956Z" fill="#EAC6C7"/>
</g>
<path d="M227.964 167.265C229.208 169.418 228.968 172.088 228.602 174.548C228.164 177.472 227.008 181.616 223.475 181.948C220.185 182.253 218.64 179.128 216.509 177.344C211.15 172.863 201.794 171.3 195.042 170.874C193.814 170.795 192.559 170.767 191.386 171.115C190.263 171.452 189.274 172.111 188.287 172.732C185.384 174.56 182.246 176.156 178.848 176.626C175.522 177.087 171.899 176.331 169.47 174.026C169.416 173.975 169.365 173.924 169.312 173.874C168.854 173.417 168.431 172.878 168.33 172.242C168.226 171.586 168.472 170.933 168.744 170.332C171.77 163.595 177.986 158.937 183.949 154.58C186.178 152.954 188.56 151.266 191.31 151.01C192.135 150.937 192.937 150.99 193.724 151.143C196.9 151.755 199.794 153.982 202.646 155.737C208.115 159.107 214.347 160.986 220.507 162.807C223.355 163.652 226.478 164.692 227.961 167.266L227.964 167.265Z" fill="#EBB48B"/>
<g style="mix-blend-mode:multiply" opacity="0.45">
<path d="M179.392 160.864C180.162 162.445 181.427 163.788 182.272 165.342C182.86 166.419 183.666 167.411 184.361 168.421C185.314 169.806 186.39 171.213 187.113 172.739C187.167 172.855 187.238 172.966 187.315 173.071C187.398 173.187 187.458 173.215 187.349 173.313C187.189 173.459 186.93 173.576 186.741 173.661C186.734 173.662 186.731 173.662 186.724 173.664C186.717 173.665 186.712 173.655 186.708 173.649C186.32 173.173 185.891 172.719 185.502 172.24C184.858 171.444 184.25 170.615 183.655 169.783C183.161 169.092 182.798 168.347 182.306 167.644C181.767 166.876 181.243 166.047 180.75 165.282C179.719 163.683 178.707 161.867 178.129 160.041C178.061 159.826 177.816 159.448 177.876 159.228C177.913 159.093 178.549 158.727 178.539 158.708C178.854 159.412 179.058 160.167 179.396 160.864L179.392 160.864Z" fill="#EAC6C7"/>
</g>
<path d="M213.579 164.586C202.935 158.978 194.174 150.407 185.938 141.633C183.617 139.163 181.151 135.956 182.18 132.73C183.071 129.947 186.372 128.533 189.281 128.823C192.189 129.113 194.788 130.689 197.276 132.227C208.329 139.055 219.381 145.879 230.431 152.708C233.858 154.824 237.301 156.954 240.298 159.645C242.472 161.6 244.507 164.136 244.438 167.056C244.185 177.947 218.041 166.939 213.575 164.587L213.579 164.586Z" fill="#C69687"/>
<g style="mix-blend-mode:multiply" opacity="0.45">
<path d="M195.272 142.666C195.227 142.586 195.185 142.503 195.14 142.423C200.762 147.565 207.63 151.323 214.222 155.145C217.601 157.105 221.2 159.122 225.106 159.051C220.163 155.324 216.34 150.349 212.218 145.732C208.096 141.115 203.433 136.688 197.605 134.594C195.738 133.921 193.274 133.678 192.119 135.291C190.921 136.96 192.048 139.252 193.171 140.975C193.518 141.147 195.455 143.005 195.272 142.666Z" fill="#EAC6C7"/>
</g>
<path d="M234.554 203.31C224.264 196.95 215.185 188.643 207.937 178.958C202.69 171.948 198.389 164.226 192.651 157.613C190.045 154.611 187.113 151.783 185.438 148.18C183.764 144.577 183.685 139.856 186.483 137.037C189.652 133.848 194.956 134.368 199.197 135.871C205.463 138.094 211.03 141.901 216.473 145.718C220.795 148.751 225.095 151.819 229.307 155.003C233.827 158.421 238.303 162.039 241.587 166.655C247.972 175.627 249.029 188.111 244.247 198.029C242.869 200.884 240.818 203.703 237.785 204.621C234.753 205.539 230.794 203.538 230.798 200.367" fill="#D69676"/>
<path d="M168.021 173.284C169.201 172.31 170.389 171.345 171.559 170.361C172.299 169.737 173.002 169.066 173.624 168.322C174.887 166.81 175.86 164.82 174.99 162.879C174.855 162.578 174.386 162.793 174.521 163.098C175.363 164.981 174.21 166.893 172.972 168.289C172.357 168.987 171.662 169.607 170.949 170.199C169.862 171.099 168.774 171.995 167.69 172.894C167.432 173.105 167.765 173.502 168.022 173.291L168.021 173.284Z" fill="#161742"/>
<path d="M187.348 168.98L187.348 108.577C187.348 105.765 185.068 103.485 182.256 103.485L86.6973 103.485C83.8853 103.485 81.6057 105.765 81.6057 108.577L81.6057 168.98C81.6057 171.792 83.8853 174.072 86.6973 174.072L182.256 174.072C185.068 174.072 187.348 171.792 187.348 168.98Z" fill="#1D478E"/>
<path d="M182.546 106.081L86.4157 106.081C85.197 106.081 84.209 107.069 84.209 108.288L84.209 169.266C84.209 170.485 85.197 171.473 86.4157 171.473L182.546 171.473C183.765 171.473 184.753 170.485 184.753 169.266L184.753 108.288C184.753 107.069 183.765 106.081 182.546 106.081Z" fill="white"/>
<path d="M179.675 116.33L134.48 116.33L134.48 161.524L179.675 161.524L179.675 116.33Z" fill="white"/>
<path d="M156.864 149.664L156.864 161.532L145.012 161.532L145.012 155.299C145.012 154.39 145.576 153.578 146.43 153.261L151.904 151.234L153.938 150.59L156.864 149.661L156.864 149.664Z" fill="#1D478E"/>
<path d="M169.143 155.299L169.143 161.532L157.287 161.532L157.287 149.664L160.231 150.597L162.251 151.237L167.725 153.264C168.575 153.581 169.143 154.39 169.143 155.302L169.143 155.299Z" fill="#1D478E"/>
<path d="M160.229 144.947L153.939 144.947L153.939 151.236L160.229 151.236L160.229 144.947Z" fill="#D39E79"/>
<path d="M150.329 136.61L151.905 136.61L151.905 140.4L150.852 140.4C150.511 140.4 150.215 140.162 150.139 139.828L149.616 137.498C149.513 137.04 149.86 136.61 150.329 136.61Z" fill="#DFB89C"/>
<path d="M157.077 128.069L149.6 132.152L151.772 143.199C152.016 144.435 152.994 145.66 154.264 146.638C154.774 147.031 155.407 147.234 156.051 147.234L158.24 147.234C158.936 147.234 159.611 146.989 160.148 146.549C161.266 145.623 162.155 144.383 162.385 143.202L164.978 130.017L157.08 128.072L157.077 128.069Z" fill="#DFB89C"/>
<path d="M163.825 136.61L162.248 136.61L162.248 140.4L163.301 140.4C163.642 140.4 163.938 140.162 164.014 139.828L164.537 137.498C164.641 137.04 164.293 136.61 163.825 136.61Z" fill="#DFB89C"/>
<path d="M149.426 131.273L150.827 138.398L151.436 137.978C151.756 137.758 151.932 137.379 151.891 136.994L151.078 129.043L150.262 129.459C149.619 129.79 149.271 130.506 149.412 131.215L149.426 131.277L149.426 131.273Z" fill="#161742"/>
<path d="M164.719 131.273L163.318 138.398L162.708 137.978C162.388 137.758 162.213 137.379 162.254 136.994L163.066 129.043L163.882 129.459C164.526 129.79 164.874 130.506 164.733 131.215L164.719 131.277L164.719 131.273Z" fill="#161742"/>
<path d="M152.543 126.905L166.423 126.905L166.423 128.107C166.423 130.34 164.609 132.151 162.378 132.151L150.629 132.151L150.629 128.816C150.629 127.759 151.486 126.902 152.543 126.902L152.543 126.905Z" fill="#161742"/>
<path d="M152.249 132.68C152.249 133.785 151.75 134.68 151.131 134.68C150.511 134.68 150.012 133.785 150.012 132.68C150.012 131.576 150.511 130.681 151.131 130.681C151.75 130.681 152.249 131.576 152.249 132.68Z" fill="#161742"/>
<path d="M164.158 132.681C164.158 133.786 163.658 134.681 163.039 134.681C162.419 134.681 161.92 133.786 161.92 132.681C161.92 131.576 162.419 130.681 163.039 130.681C163.658 130.681 164.158 131.576 164.158 132.681Z" fill="#161742"/>
<path d="M157.084 149.664L157.084 161.532L155.08 161.532L155.294 160.252L156.547 152.61L156.041 151.922L155.562 151.278L155.6 151.237L156.863 149.895L156.946 149.812L157.084 149.664Z" fill="#5BC4F0"/>
<path d="M159.086 161.532L157.086 161.532L157.086 149.664L157.21 149.802L157.286 149.881L158.566 151.237L158.604 151.278L158.122 151.936L157.62 152.61L158.876 160.252L159.086 161.532Z" fill="#5BC4F0"/>
<path d="M151.904 151.236L153.939 148.09L157.285 149.663L155.392 153.095L151.904 151.236Z" fill="#D9EBFC"/>
<path d="M162.249 151.236L160.215 148.09L156.865 149.663L158.759 153.095L162.249 151.236Z" fill="#D9EBFC"/>
<path d="M142.186 142.641L140.533 142.641L140.533 155.258L152.944 155.258L152.944 153.606L142.186 153.606L142.186 142.641ZM140.533 122.595L140.533 134.789L142.186 134.789L142.186 124.244L152.944 124.244L152.944 122.592L140.533 122.592L140.533 122.595ZM171.544 153.606L160.793 153.606L160.793 155.258L173.193 155.258L173.193 142.641L171.54 142.641L171.54 153.606L171.544 153.606ZM160.793 122.595L160.793 124.248L171.544 124.248L171.544 134.792L173.196 134.792L173.196 122.599L160.796 122.599L160.793 122.595Z" fill="#5BC4F0"/>
<path d="M145.011 163.118L134.48 163.118L134.48 166.116L145.011 166.116L145.011 163.118Z" fill="white"/>
<path d="M130.46 151.595L89.3828 151.595L89.3828 154.593L130.46 154.593L130.46 151.595Z" fill="#5BC4F0"/>
<path d="M130.46 142.641L89.3828 142.641L89.3828 145.639L130.46 145.639L130.46 142.641Z" fill="#5BC4F0"/>
<path d="M130.46 133.288L89.3828 133.288L89.3828 136.286L130.46 136.286L130.46 133.288Z" fill="#5BC4F0"/>
<path d="M130.46 123.911L89.3828 123.911L89.3828 126.909L130.46 126.909L130.46 123.911Z" fill="#5BC4F0"/>
<g style="mix-blend-mode:multiply" opacity="0.45">
<path d="M237.033 171.89C236.892 175.643 236.566 179.389 236.053 183.11C235.377 188.049 234.29 193.146 231.219 197.073C230.108 198.493 228.464 199.822 226.685 199.522C225.075 199.25 223.991 197.754 223.218 196.317C219.947 190.212 223.5 189.457 227.465 186.168C231.904 182.485 234.832 177.126 237.029 171.887L237.033 171.89Z" fill="#EAC6C7"/>
</g>
<path d="M266.564 172.748C267.208 175.812 267.854 178.887 268.46 181.973C270.87 194.204 272.704 206.575 271.616 218.948C271.296 222.566 270.57 226.47 267.865 228.894C265.725 230.813 262.636 231.436 259.791 231.048C253.341 230.177 248.528 224.877 244.316 219.919C240.189 215.066 236.066 210.215 231.939 205.362C230.304 203.439 228.462 201.69 227.618 199.26C227.188 198.02 226.346 192.876 227.972 192.001C229.174 189.116 231.186 186.646 232.567 183.846C234.392 180.144 235.016 175.89 234.442 171.812C234.142 169.687 233.518 167.607 232.566 165.677C230.429 161.359 225.921 159.416 222.031 156.914C217.883 154.246 213.754 151.551 209.63 148.844C203.598 144.886 197.955 140.302 191.94 136.24C183.215 130.352 172.396 126.455 167.017 117.404C166.134 115.916 165.511 114.052 165.47 112.324C165.423 110.575 165.966 108.958 167.419 107.993C169.474 106.622 172.223 107.372 174.558 108.189C174.895 108.307 175.226 108.425 175.557 108.544C202.034 117.945 227.201 130.999 250.136 147.224C254.4 150.242 258.685 153.467 261.503 157.868C264.348 162.306 265.483 167.589 266.568 172.747L266.564 172.748Z" fill="#EBB48B"/>
<g style="mix-blend-mode:multiply" opacity="0.45">
<path d="M234.609 170.258C234.603 170.761 234.558 171.296 234.442 171.808C234.142 169.684 233.518 167.604 232.566 165.673C230.669 161.825 226.144 159.162 222.646 156.953C216.583 153.126 210.002 149.888 204.486 145.406C198.115 140.23 191.282 135.625 184.166 131.535C177.746 127.848 170.913 123.962 167.021 117.403C166.137 115.915 165.515 114.051 165.474 112.323C167.049 113.876 168.44 116.196 169.626 117.343C175.066 122.631 182.091 126.062 189.181 128.554C190.569 129.038 191.997 129.512 193.156 130.42C194.062 131.132 194.758 132.069 195.47 132.975C199.342 137.928 203.987 142.274 209.184 145.816C212.373 147.989 215.757 149.854 219.174 151.64C223.482 153.89 227.995 156.129 231.03 159.931C233.347 162.835 234.634 166.545 234.616 170.26L234.609 170.258Z" fill="#EAC6C7"/>
</g>
<path d="M279.899 233.988C282.573 241.503 283.499 250.117 279.986 257.279C276.583 264.219 265.028 271.309 258.572 264.353C251.755 257.012 242.499 251.667 234.653 245.097C234.65 245.097 234.649 245.094 234.645 245.091C233.715 244.319 232.813 243.529 231.932 242.715C226.891 238.051 222.21 232.963 218.25 227.341C211.326 217.51 206.727 206.274 201.08 195.658C197.947 189.764 194.485 184.058 190.866 178.451C188.596 174.935 186.262 171.458 183.907 167.998C183.402 167.263 182.904 166.53 182.403 165.795C180.766 163.401 179.088 160.937 178.315 158.159C178.245 157.909 178.184 157.65 178.126 157.395C177.47 154.301 178.284 150.668 180.907 148.898C182.051 148.125 183.391 147.79 184.775 147.758C186.207 147.722 187.683 148.007 189.047 148.453C191.627 149.298 193.935 150.601 196.044 152.21C201.736 156.551 206.005 163.112 210.464 168.933C216.306 176.555 223.147 183.4 230.719 189.298C231.684 190.046 232.656 190.779 233.64 191.499C236.664 193.708 239.798 195.765 243.021 197.671C248.913 201.147 255.13 204.114 260.65 208.16C269.442 214.602 276.24 223.728 279.897 233.999L279.899 233.988Z" fill="#EBB48B"/>
<path d="M258.095 266.974C258.597 267.964 258.927 269.037 259.267 270.093C263.471 283.166 269.645 294.706 277.307 306.004C300.043 330.484 348.642 391.65 378.756 415.74C384.197 420.093 376.163 390.031 400.285 406.793C424.406 423.555 384.757 398.489 380.609 381.75C390.861 373.239 376.655 356.724 382.622 344.814C388.808 332.466 387.876 321.04 386.517 308.056C384.875 292.323 390.492 283.118 386.834 267.567C385.478 261.808 395.655 256.018 379.027 249.563C376.235 247.553 366.68 243.308 363.408 242.233C344.523 236.009 331.617 220.682 311.946 214.781C308.082 213.621 303.994 212.687 300.041 213.487C298.255 213.849 296.44 214.558 294.665 214.147C293.609 213.904 292.689 213.281 291.795 212.676C289.648 211.212 287.472 209.796 285.249 208.448C283.398 207.323 281.879 206.98 280.62 205.123C280.575 205.059 280.526 204.99 280.451 204.973C280.399 204.961 280.345 204.971 280.292 204.986C274.329 206.506 271.532 212.206 268.305 216.952C264.636 222.34 261.142 227.848 257.589 233.313C255.048 237.217 252.52 241.127 249.933 244.998C248.466 247.192 247.059 249.573 245.274 251.533C245.048 251.781 244.813 252.055 244.786 252.389C244.654 254.32 253.13 261.138 255.17 263.262C256.177 264.31 257.197 265.376 257.909 266.647C257.97 266.756 258.03 266.865 258.086 266.974L258.095 266.974Z" fill="#32B353"/>
<path d="M276.573 306.498C268.102 294.008 262.336 282.526 258.427 270.365L258.352 270.127C258.039 269.148 257.744 268.227 257.309 267.373C257.257 267.273 257.205 267.173 257.153 267.078C256.913 266.698 255.004 264.846 253.322 263.219C246.609 256.717 243.819 253.767 243.915 252.329C243.959 251.673 244.377 251.215 244.631 250.938C244.763 250.795 244.886 250.642 245.009 250.49C249.009 245.584 252.481 240 255.836 234.599C257.231 232.353 258.674 230.031 260.129 227.806C263.363 222.853 266.292 218.383 269.41 213.865C269.482 213.759 276.901 203.349 279.981 203.323C280.511 203.317 280.958 203.548 281.258 203.966C282.463 205.674 283.22 206.373 284.924 207.362C286.522 208.288 288.125 209.258 289.502 210.097C290.019 210.412 290.555 210.794 291.125 211.196C292.333 212.052 293.702 213.022 294.867 213.293C296.014 213.559 297.254 213.256 298.562 212.93C298.996 212.821 299.435 212.717 299.868 212.626C304.04 211.781 308.262 212.761 312.2 213.943L311.693 215.632C307.977 214.516 304.012 213.589 300.215 214.357C299.804 214.441 299.397 214.542 298.985 214.643C297.53 215.006 296.03 215.374 294.464 215.011C292.959 214.659 291.441 213.583 290.101 212.632C289.557 212.249 289.047 211.881 288.58 211.6C287.212 210.766 285.617 209.801 284.037 208.885C282.149 207.793 281.202 206.93 279.893 205.093C278.39 205.364 273.059 211.668 270.857 214.862C267.749 219.367 264.829 223.825 261.605 228.769C260.159 230.981 258.721 233.295 257.331 235.532C253.947 240.98 250.441 246.615 246.37 251.606C246.228 251.784 246.082 251.961 245.927 252.129C245.87 252.192 245.729 252.348 245.68 252.438C246.093 253.776 251.782 259.286 254.539 261.956C257.321 264.65 258.398 265.716 258.68 266.221C258.748 266.339 258.812 266.458 258.872 266.58C259.371 267.561 259.699 268.594 260.02 269.595L260.095 269.829C263.951 281.829 269.649 293.17 278.023 305.513L276.564 306.502L276.573 306.498Z" fill="#161742"/>
<g style="mix-blend-mode:soft-light" opacity="0.41">
<path d="M266.566 172.747C267.21 175.812 267.855 178.887 268.461 181.973C267.639 178.889 266.796 175.805 265.832 172.763C264.241 167.732 262.287 162.724 259.088 158.527C255.452 153.755 250.408 150.289 245.429 146.945C239.216 142.765 232.964 138.645 226.677 134.583C219.175 129.734 211.589 124.953 203.44 121.296C197.776 118.756 191.88 116.781 186.254 114.168C183.926 113.081 177.689 111.336 175.549 108.552C202.026 117.953 227.193 131.007 250.128 147.233C254.392 150.251 258.677 153.475 261.495 157.876C264.34 162.314 265.475 167.597 266.56 172.755L266.566 172.747Z" fill="white"/>
</g>
<path d="M173.052 179.219C173.225 178.837 173.378 178.438 173.484 178.032C173.541 177.813 173.586 177.585 173.611 177.361C173.624 177.254 173.703 176.707 173.608 176.643C173.278 176.402 172.925 176.196 172.553 176.022C172.512 176.001 172.463 175.981 172.418 175.985C172.359 175.988 172.31 176.024 172.267 176.06C171.889 176.343 171.508 176.631 171.13 176.915C170.814 177.154 170.577 177.445 170.291 177.717C169.537 178.42 168.801 179.142 168.163 179.955C167.612 180.662 167.105 181.422 166.84 182.287C166.727 182.655 166.541 183.165 166.609 183.548C166.705 184.069 166.941 184.602 167.168 185.077C167.211 185.164 167.262 185.26 167.352 185.297C167.484 185.355 167.63 185.267 167.745 185.182C168.975 184.282 169.962 183.204 170.975 182.09C171.759 181.232 172.477 180.44 172.979 179.364C173.002 179.314 173.025 179.265 173.045 179.216L173.052 179.219Z" fill="#F7DDC9"/>
<path d="M171.714 111.162C173.543 111.819 175.614 112.293 177.391 111.507C177.982 111.247 178.586 110.625 178.322 110.034C178.193 109.748 177.899 109.578 177.619 109.434C175.266 108.191 171.014 105.119 168.399 106.751C165.017 108.863 170.201 110.618 171.714 111.162Z" fill="#F7DDC9"/>
<path d="M190.819 164.56C191.631 164.077 192.401 163.489 192.936 162.711C193.97 161.206 193.969 159.177 193.363 157.454C192.755 155.734 191.615 154.258 190.462 152.847C189.427 151.58 187.561 148.952 186.012 148.338C182.752 147.042 176.317 153.815 178.079 156.984C178.575 157.877 179.534 158.675 180.12 159.557C181.024 160.92 182.149 162.101 183.25 163.302C184.153 164.287 185.22 165.29 186.519 165.706C188.058 166.196 189.531 165.329 190.822 164.559L190.819 164.56Z" fill="#F7DDC9"/>
<path d="M231.153 187.947C233.176 185.067 234.163 181.464 234.595 178.011C235.038 174.438 234.793 170.803 233.307 167.486C232.567 165.837 231.561 164.307 230.35 162.965C229.009 161.478 227.431 160.341 225.779 159.227C221.823 156.562 217.89 153.865 213.961 151.157C209.574 148.131 205.199 145.093 200.811 142.068C200.539 141.88 200.24 142.301 200.512 142.489C208.122 147.741 215.706 153.03 223.36 158.215C225.095 159.392 226.931 160.485 228.51 161.869C229.904 163.097 231.113 164.547 232.045 166.156C233.87 169.308 234.472 172.865 234.222 176.468C233.955 180.319 232.977 184.447 230.729 187.649C230.538 187.922 230.958 188.221 231.15 187.948L231.153 187.947Z" fill="#161742"/>
<path d="M167.172 108.558C167.156 108.585 167.144 108.619 167.139 108.651C167.087 108.883 167.322 108.948 167.49 109.056C167.67 109.172 167.85 109.285 168.029 109.394C168.391 109.616 168.756 109.833 169.126 110.039C169.877 110.453 170.653 110.828 171.452 111.137C172.583 111.57 173.766 111.852 174.98 111.912C176.195 111.972 177.42 111.946 178.359 111.141C178.612 110.924 178.28 110.53 178.026 110.744C177.087 111.549 175.709 111.471 174.549 111.363C173.389 111.256 172.302 110.937 171.243 110.498C170.533 110.203 169.846 109.858 169.178 109.479C168.839 109.289 168.504 109.087 168.177 108.884C167.978 108.76 167.507 108.33 167.251 108.471C167.216 108.491 167.187 108.521 167.168 108.559L167.172 108.558Z" fill="#161742"/>
<path d="M178.382 156.772C178.294 156.811 178.266 156.952 178.283 157.134C178.309 157.371 178.506 157.606 178.626 157.803C178.946 158.331 179.276 158.855 179.618 159.373C180.32 160.427 181.078 161.441 181.913 162.392C182.852 163.466 183.919 164.49 185.185 165.166C186.452 165.842 188.069 166.032 189.525 165.699C190.311 165.52 191.061 165.205 191.737 164.763C192.095 164.528 192.427 164.262 192.725 163.957C192.862 163.818 192.994 163.67 193.119 163.52C193.243 163.367 193.346 163.21 193.443 163.04C193.472 162.986 193.505 162.931 193.526 162.872C193.545 162.816 193.556 162.759 193.547 162.704C193.532 162.619 193.457 162.548 193.37 162.528C193.294 162.51 193.206 162.57 193.148 162.618C193.014 162.735 192.944 162.9 192.842 163.04C192.6 163.364 192.322 163.658 192.01 163.921C191.463 164.383 190.832 164.738 190.158 164.984C188.764 165.493 187.169 165.497 185.804 164.9C184.522 164.339 183.441 163.317 182.514 162.294C181.741 161.44 181.042 160.525 180.389 159.578C179.959 158.956 179.501 158.353 179.084 157.722C178.971 157.552 178.724 156.896 178.581 156.812C178.495 156.76 178.428 156.754 178.379 156.773L178.382 156.772Z" fill="#161742"/>
<path d="M169.163 184.107C169.474 184.439 170.007 183.769 170.215 183.598C170.645 183.249 171.041 182.861 171.414 182.449C172.141 181.649 172.776 180.756 173.292 179.803C173.683 179.081 173.998 178.277 173.986 177.445C173.983 177.117 173.467 177.061 173.471 177.392C173.484 178.315 173.077 179.194 172.603 179.962C172.012 180.924 171.264 181.79 170.455 182.576C170.193 182.806 169.958 183.065 169.7 183.298C169.521 183.457 169.28 183.599 169.154 183.802C169.076 183.923 169.095 184.035 169.163 184.104L169.163 184.107Z" fill="#161742"/>
<path d="M196.791 187.85C201.719 197.003 206.264 206.349 211.047 215.578C213.326 219.972 215.916 224.174 218.849 228.165C221.575 231.876 224.406 235.524 227.571 238.878C229.319 240.73 231.17 242.491 233.147 244.101C235.123 245.712 237.245 247.071 239.012 248.909C239.24 249.146 239.639 248.817 239.409 248.576C237.892 246.993 236.124 245.769 234.397 244.435C232.577 243.025 230.86 241.482 229.234 239.854C225.962 236.57 223.055 232.945 220.284 229.235C217.341 225.295 214.65 221.215 212.318 216.882C209.884 212.356 207.619 207.736 205.297 203.15C202.669 197.952 200.024 192.764 197.261 187.635C197.104 187.344 196.634 187.559 196.792 187.854L196.791 187.85Z" fill="#161742"/>
</g>
<defs>
<clipPath id="clip0_1280_2461">
<rect width="23.9155" height="32.7052" fill="white" transform="matrix(0.965205 -0.261493 0.26186 0.965106 217 91.2539)"/>
</clipPath>
<clipPath id="clip1_1280_2461">
<rect width="238" height="286" fill="white" transform="translate(75 86)"/>
</clipPath>
</defs>
</svg>
