<svg width="32" height="32" viewBox="0 0 32 32" fill="none" xmlns="http://www.w3.org/2000/svg">
<path d="M8.21643 11.1833C8.15965 11.1843 8.10322 11.1741 8.05037 11.1533C7.99753 11.1324 7.9493 11.1014 7.90844 11.062C7.82592 10.9823 7.77844 10.8731 7.77643 10.7584C7.77443 10.6437 7.81806 10.5329 7.89774 10.4504C7.97742 10.3679 8.08661 10.3204 8.2013 10.3184C10.3231 10.2947 12.4404 10.1155 14.536 9.7822C14.5732 9.77443 14.6114 9.77181 14.6493 9.77441C15.1746 9.80219 15.6842 9.96289 16.1304 10.2414C16.2041 10.295 16.259 10.3704 16.2872 10.457C16.3155 10.5435 16.3158 10.6368 16.2879 10.7235C16.2601 10.8102 16.2056 10.8859 16.1322 10.9398C16.0588 10.9937 15.9702 11.0231 15.8791 11.0237C15.7773 11.0237 15.6785 10.9887 15.5994 10.9247C15.3078 10.7576 14.9813 10.6609 14.6458 10.6423C12.5222 10.976 10.3773 11.1568 8.22768 11.1833H8.21643Z" fill="#707070"/>
<path d="M24.0348 21.4712C23.6658 21.4717 23.3062 21.3551 23.0077 21.1382L22.9148 21.0738C22.9027 21.0656 22.8823 21.0491 22.8633 21.0305L17.7731 17.3648C17.7256 17.3324 17.6851 17.2908 17.6538 17.2425C17.6226 17.1942 17.6013 17.1401 17.5912 17.0834C17.5811 17.0268 17.5824 16.9687 17.5951 16.9126C17.6077 16.8565 17.6314 16.8034 17.6649 16.7566C17.6983 16.7097 17.7407 16.67 17.7896 16.6398C17.8386 16.6095 17.8931 16.5894 17.9499 16.5804C18.0067 16.5715 18.0648 16.574 18.1207 16.5878C18.1765 16.6016 18.2291 16.6265 18.2752 16.6608L18.6211 16.9073L23.3844 20.3421C23.3986 20.3523 23.4122 20.3634 23.425 20.3754L23.5076 20.4329C23.6952 20.5674 23.9272 20.6247 24.1558 20.5931C24.3844 20.5614 24.5921 20.4433 24.7362 20.263C24.8245 20.1515 24.8848 20.0203 24.9118 19.8806C24.9388 19.7409 24.9318 19.5968 24.8914 19.4604C24.8429 19.2885 24.7424 19.1358 24.6039 19.0232L17.7956 13.4764C15.1885 14.8602 13.3416 14.1484 12.4599 13.5849C12.3141 13.4901 12.1958 13.3587 12.1167 13.2039C12.0376 13.049 12.0005 12.8762 12.009 12.7025C12.0175 12.5289 12.0714 12.3605 12.1653 12.2142C12.2592 12.0679 12.3899 11.9487 12.5442 11.8686L16.4413 9.79898C16.69 9.66885 16.962 9.58924 17.2417 9.56475C17.5213 9.54026 17.8031 9.57136 18.0707 9.65627L20.376 10.4044C21.0547 10.6276 21.7908 10.6011 22.4516 10.3296L23.4557 9.91833C23.5083 9.89678 23.5646 9.88579 23.6214 9.88599C23.6782 9.88619 23.7344 9.89758 23.7868 9.91951C23.8392 9.94143 23.8868 9.97346 23.9268 10.0138C23.9668 10.0541 23.9985 10.1019 24.0201 10.1544C24.0416 10.207 24.0526 10.2633 24.0524 10.3201C24.0522 10.3769 24.0408 10.4331 24.0189 10.4855C23.997 10.5379 23.9649 10.5855 23.9246 10.6255C23.8843 10.6655 23.8365 10.6972 23.784 10.7188L22.7807 11.1296C21.9297 11.4799 20.9815 11.5142 20.1074 11.2264L17.8043 10.4788C17.6465 10.4292 17.4805 10.4113 17.3159 10.4262C17.1512 10.441 16.9911 10.4883 16.8447 10.5652L12.9468 12.6353C12.9251 12.6455 12.9066 12.6616 12.8935 12.6816C12.8804 12.7017 12.8731 12.7251 12.8724 12.749C12.8706 12.7707 12.8748 12.7925 12.8846 12.8119C12.8943 12.8314 12.9093 12.8478 12.9277 12.8593C13.8359 13.4396 15.3948 13.8651 17.6266 12.583C17.7025 12.5394 17.7898 12.5198 17.8771 12.5269C17.9643 12.534 18.0474 12.5674 18.1152 12.6228L25.1466 18.3525C25.4223 18.5749 25.6228 18.8769 25.7208 19.2174C25.7985 19.4853 25.8115 19.7679 25.7589 20.0418C25.7063 20.3158 25.5895 20.5734 25.4181 20.7936C25.2548 21.0049 25.0452 21.1759 24.8053 21.2934C24.5655 21.4109 24.3019 21.4717 24.0348 21.4712Z" fill="#707070"/>
<path d="M22.2456 23.474C21.8791 23.4744 21.5216 23.3606 21.2229 23.1484L16.5483 19.8316C16.4569 19.7644 16.3956 19.664 16.3776 19.5521C16.3595 19.4401 16.3862 19.3256 16.4518 19.2331C16.5174 19.1406 16.6167 19.0776 16.7284 19.0576C16.84 19.0376 16.955 19.0623 17.0486 19.1263L21.7232 22.4426C21.9193 22.5707 22.1573 22.6181 22.3876 22.5748C22.6178 22.5315 22.8224 22.401 22.9586 22.2104C23.0948 22.0198 23.1521 21.7839 23.1185 21.5521C23.0849 21.3203 22.963 21.1104 22.7783 20.9663L18.1193 17.6085C18.0334 17.539 17.9774 17.4393 17.9627 17.3298C17.948 17.2204 17.9757 17.1094 18.0402 17.0198C18.1047 16.9301 18.2011 16.8685 18.3095 16.8476C18.418 16.8268 18.5303 16.8482 18.6235 16.9075L23.2838 20.2658C23.5872 20.4854 23.8132 20.7954 23.9295 21.1514C24.0457 21.5074 24.0463 21.8911 23.931 22.2475C23.8158 22.6038 23.5907 22.9145 23.288 23.135C22.9853 23.3555 22.6205 23.4745 22.246 23.4749L22.2456 23.474Z" fill="#707070"/>
<path d="M20.2267 25.2069C19.8786 25.2068 19.5389 25.1001 19.2532 24.9011L15.0643 21.9995C14.9699 21.9342 14.9054 21.8341 14.8849 21.7212C14.8644 21.6083 14.8896 21.4919 14.9549 21.3976C15.0202 21.3032 15.1203 21.2387 15.2332 21.2182C15.3461 21.1977 15.4625 21.2229 15.5568 21.2882L19.7458 24.1898C19.8378 24.2534 19.9414 24.2983 20.0507 24.3219C20.1601 24.3454 20.273 24.3472 20.383 24.3272C20.493 24.3071 20.598 24.2655 20.692 24.2049C20.786 24.1442 20.8671 24.0656 20.9307 23.9736C21.0572 23.7891 21.1064 23.5623 21.0675 23.342C21.0287 23.1217 20.9051 22.9253 20.7231 22.7952L16.5544 19.8382C16.507 19.8058 16.4666 19.7643 16.4354 19.7161C16.4042 19.6679 16.383 19.6139 16.3728 19.5574C16.3627 19.5009 16.364 19.4429 16.3765 19.3869C16.389 19.3309 16.4126 19.2779 16.4458 19.2311C16.479 19.1842 16.5212 19.1445 16.57 19.1141C16.6187 19.0838 16.673 19.0635 16.7297 19.0543C16.7864 19.0452 16.8443 19.0474 16.9001 19.0609C16.9559 19.0744 17.0085 19.0989 17.0548 19.1329L21.2234 22.0899C21.5903 22.3521 21.8398 22.7478 21.9181 23.192C21.9965 23.6361 21.8975 24.0933 21.6424 24.4653C21.515 24.6511 21.352 24.8099 21.1628 24.9324C20.9736 25.0549 20.7619 25.1386 20.5402 25.1788C20.4367 25.1976 20.3318 25.2071 20.2267 25.2069Z" fill="#707070"/>
<path d="M17.7563 26.6296C17.4538 26.6282 17.1569 26.5473 16.8954 26.3953L14.5702 25.0547C14.4717 24.997 14.4 24.9026 14.3708 24.7922C14.3416 24.6818 14.3573 24.5643 14.4144 24.4654C14.4715 24.3666 14.5654 24.2943 14.6756 24.2643C14.7858 24.2344 14.9033 24.2493 15.0026 24.3057L17.3274 25.6463C17.5239 25.7572 17.756 25.7869 17.9742 25.7291C18.1923 25.6712 18.3792 25.5304 18.4949 25.3367C18.6049 25.1509 18.6398 24.9303 18.5927 24.7197C18.5455 24.509 18.4198 24.3243 18.2411 24.2033L15.2703 22.1453C15.2236 22.113 15.1838 22.0718 15.153 22.024C15.1223 21.9763 15.1012 21.9229 15.0911 21.8671C15.0809 21.8112 15.0819 21.7539 15.0939 21.6984C15.1059 21.6429 15.1288 21.5903 15.1611 21.5436C15.1934 21.4969 15.2347 21.4571 15.2824 21.4263C15.3301 21.3956 15.3835 21.3745 15.4393 21.3644C15.4952 21.3542 15.5525 21.3552 15.6081 21.3672C15.6636 21.3792 15.7161 21.4021 15.7628 21.4344L18.7332 23.4919C19.0347 23.7007 19.2618 24.0002 19.3812 24.347C19.5006 24.6938 19.5062 25.0696 19.3971 25.4198C19.2881 25.7699 19.07 26.0761 18.7748 26.2937C18.4796 26.5114 18.1231 26.629 17.7563 26.6296Z" fill="#707070"/>
<path d="M12.8592 26.3706C12.5054 26.3711 12.1599 26.2637 11.8688 26.0627C11.5777 25.8617 11.3548 25.5766 11.23 25.2456C11.1051 24.9146 11.0843 24.5534 11.1702 24.2102C11.2561 23.867 11.4446 23.5582 11.7107 23.325L12.8657 22.3131C13.0373 22.1624 13.237 22.047 13.4532 21.9735C13.6694 21.8999 13.898 21.8697 14.126 21.8845C14.3539 21.8993 14.5767 21.9589 14.7816 22.0598C14.9865 22.1607 15.1695 22.301 15.3202 22.4726C15.4708 22.6443 15.5862 22.844 15.6597 23.0602C15.7332 23.2765 15.7634 23.5051 15.7485 23.733C15.7337 23.961 15.6741 24.1837 15.5731 24.3886C15.4722 24.5935 15.3318 24.7765 15.1602 24.9271L14.0051 25.9412C13.6881 26.219 13.2807 26.3716 12.8592 26.3706ZM14.0125 22.7455C13.8004 22.745 13.5954 22.8218 13.4361 22.9617L12.2806 23.9749C12.1943 24.0506 12.1237 24.1426 12.073 24.2456C12.0222 24.3486 11.9922 24.4606 11.9847 24.5752C11.9772 24.6898 11.9924 24.8047 12.0293 24.9134C12.0662 25.0222 12.1242 25.1225 12.1999 25.2089C12.3529 25.3832 12.5688 25.4896 12.8002 25.5047C12.9148 25.5122 13.0297 25.4971 13.1385 25.4602C13.2472 25.4232 13.3476 25.3652 13.4339 25.2895L14.5889 24.2755C14.7222 24.1582 14.8165 24.0031 14.8595 23.8309C14.9024 23.6587 14.8919 23.4774 14.8293 23.3113C14.7667 23.1452 14.655 23.0021 14.5091 22.901C14.3632 22.8 14.19 22.7457 14.0125 22.7455Z" fill="#707070"/>
<path d="M10.2414 25.1922C10.2029 25.1922 10.1645 25.1922 10.126 25.1888C9.89791 25.1745 9.67494 25.1152 9.46993 25.0142C9.26493 24.9133 9.08196 24.7727 8.93159 24.6007C8.77885 24.429 8.66151 24.2288 8.58632 24.0117C8.51112 23.7945 8.47955 23.5647 8.49341 23.3353C8.50727 23.1059 8.5663 22.8816 8.66709 22.675C8.76789 22.4685 8.90847 22.284 9.08078 22.1319L11.0103 20.4381C11.1819 20.2874 11.3816 20.172 11.5978 20.0985C11.8141 20.0249 12.0427 19.9947 12.2706 20.0095C12.4985 20.0243 12.7213 20.0839 12.9262 20.1848C13.1311 20.2857 13.3141 20.426 13.4648 20.5976L13.1521 20.8973L13.4769 20.6119C13.6276 20.7835 13.7431 20.9832 13.8166 21.1994C13.8902 21.4157 13.9204 21.6443 13.9056 21.8722C13.8908 22.1002 13.8312 22.3229 13.7303 22.5278C13.6293 22.7327 13.489 22.9158 13.3173 23.0664L11.3861 24.7602C11.0701 25.0392 10.6629 25.1929 10.2414 25.1922ZM12.1549 20.8705C11.9431 20.8699 11.7384 20.9468 11.5794 21.0867L9.64986 22.7806C9.52068 22.8972 9.42865 23.0493 9.38522 23.2178C9.3418 23.3863 9.34889 23.5639 9.40563 23.7285C9.46237 23.893 9.56623 24.0372 9.70431 24.1432C9.84239 24.2491 10.0086 24.3121 10.1822 24.3244C10.2969 24.3322 10.4119 24.3171 10.5207 24.28C10.6295 24.2429 10.7298 24.1845 10.8157 24.1081L12.7452 22.4143C12.8315 22.3386 12.9021 22.2465 12.9529 22.1435C13.0037 22.0405 13.0336 21.9285 13.0411 21.8139C13.0486 21.6993 13.0334 21.5843 12.9964 21.4756C12.9594 21.3668 12.9014 21.2664 12.8256 21.1801L12.8131 21.1659C12.7376 21.0799 12.6459 21.0097 12.5432 20.9593C12.4405 20.9089 12.3288 20.8793 12.2146 20.8722C12.1943 20.8714 12.174 20.8709 12.1545 20.8709L12.1549 20.8705Z" fill="#707070"/>
<path d="M8.05988 23.6049C8.02182 23.6049 7.98334 23.6049 7.94442 23.6014C7.71636 23.5872 7.49339 23.5278 7.28838 23.4269C7.08338 23.326 6.90041 23.1854 6.75004 23.0133L6.70291 22.9571C6.39895 22.6104 6.24511 22.1572 6.27519 21.6971C6.30528 21.237 6.51683 20.8077 6.86334 20.5035L9.10031 18.5398C9.27193 18.3891 9.47156 18.2736 9.68781 18.2001C9.90405 18.1265 10.1327 18.0963 10.3606 18.1111C10.5885 18.1259 10.8113 18.1855 11.0162 18.2864C11.2211 18.3874 11.4041 18.5277 11.5548 18.6994L11.6037 18.7552C11.9077 19.1018 12.0616 19.5551 12.0316 20.0152C12.0015 20.4753 11.7898 20.9047 11.4432 21.2088L9.20626 23.1725C8.88986 23.4519 8.48202 23.6058 8.05988 23.6049ZM10.245 18.9727C10.0332 18.9721 9.82846 19.049 9.66939 19.1889L7.43242 21.1526C7.25794 21.3056 7.1514 21.5217 7.13624 21.7533C7.12107 21.985 7.19852 22.2131 7.35155 22.3876L7.40042 22.4434C7.55356 22.6174 7.7695 22.7235 8.00082 22.7384C8.23214 22.7534 8.45992 22.6759 8.63415 22.523L10.8711 20.5593C10.9575 20.4835 11.028 20.3915 11.0788 20.2885C11.1296 20.1855 11.1595 20.0735 11.167 19.9589C11.1745 19.8443 11.1593 19.7293 11.1223 19.6206C11.0854 19.5118 11.0273 19.4114 10.9516 19.3251L10.9036 19.2702C10.828 19.1838 10.7361 19.1133 10.6332 19.0627C10.5302 19.0121 10.4183 18.9824 10.3038 18.9753C10.2834 18.9736 10.2644 18.9727 10.245 18.9727Z" fill="#707070"/>
<path d="M6.17967 21.6802C6.14162 21.6802 6.1027 21.6802 6.06421 21.6763C5.71878 21.6546 5.38755 21.5309 5.1124 21.3209C4.83724 21.1109 4.63051 20.8241 4.51833 20.4967C4.40614 20.1693 4.39355 19.8159 4.48213 19.4813C4.57071 19.1467 4.75649 18.8459 5.01599 18.6169L6.41664 17.3875C6.58826 17.2367 6.78789 17.1213 7.00414 17.0477C7.22039 16.9742 7.44901 16.9439 7.67695 16.9587C7.90488 16.9736 8.12767 17.0331 8.33257 17.1341C8.53747 17.235 8.72048 17.3754 8.87113 17.547L8.88626 17.5643C9.037 17.736 9.15246 17.9356 9.22602 18.1518C9.29958 18.3681 9.32982 18.5967 9.315 18.8246C9.30018 19.0526 9.2406 19.2754 9.13966 19.4803C9.03871 19.6852 8.89839 19.8682 8.7267 20.0188L7.32605 21.2482C7.00961 21.5276 6.60177 21.6813 6.17967 21.6802ZM7.56345 17.8199C7.35165 17.8194 7.14695 17.8963 6.98789 18.0361L5.58724 19.2655C5.5009 19.3413 5.43033 19.4333 5.37957 19.5363C5.3288 19.6393 5.29882 19.7513 5.29135 19.866C5.28388 19.9806 5.29907 20.0955 5.33603 20.2043C5.373 20.313 5.43103 20.4134 5.5068 20.4997C5.58198 20.5887 5.67408 20.6619 5.77776 20.7151C5.88145 20.7683 5.99465 20.8003 6.11082 20.8094C6.22699 20.8185 6.34381 20.8045 6.4545 20.7681C6.56519 20.7317 6.66756 20.6737 6.75567 20.5974L8.15632 19.368C8.24265 19.2923 8.31322 19.2003 8.36399 19.0972C8.41476 18.9942 8.44473 18.8822 8.4522 18.7676C8.45967 18.653 8.44449 18.538 8.40752 18.4293C8.37055 18.3206 8.31253 18.2202 8.23675 18.1339L8.22162 18.1166C8.14608 18.0301 8.05414 17.9594 7.95111 17.9087C7.84808 17.858 7.73601 17.8283 7.6214 17.8212C7.60021 17.8208 7.58075 17.8199 7.56129 17.8199H7.56345Z" fill="#707070"/>
<path d="M5.39503 19.2922C5.30144 19.2924 5.21034 19.262 5.13557 19.2057L3.65795 18.0814C3.61275 18.047 3.57476 18.0041 3.54616 17.955C3.51755 17.9059 3.49889 17.8517 3.49125 17.7954C3.4836 17.7391 3.48711 17.6819 3.50158 17.627C3.51604 17.5721 3.54119 17.5205 3.57557 17.4753C3.64502 17.384 3.74788 17.3241 3.86154 17.3086C3.91782 17.301 3.97505 17.3045 4.02997 17.319C4.08489 17.3334 4.13642 17.3586 4.18163 17.393L5.65925 18.5173C5.73204 18.5719 5.78575 18.648 5.81275 18.7349C5.83975 18.8218 5.83866 18.915 5.80963 19.0012C5.7806 19.0874 5.72511 19.1623 5.65106 19.2152C5.57701 19.268 5.48818 19.2962 5.3972 19.2957L5.39503 19.2922Z" fill="#707070"/>
<path d="M25.3054 19.7712C25.2199 19.7712 25.1363 19.7458 25.0652 19.6983C24.9941 19.6507 24.9387 19.5832 24.906 19.5042C24.8732 19.4252 24.8647 19.3383 24.8814 19.2544C24.898 19.1705 24.9392 19.0935 24.9997 19.033L27.426 16.6058C27.5076 16.527 27.6168 16.4834 27.7302 16.4844C27.8436 16.4854 27.9521 16.5309 28.0322 16.611C28.1124 16.6912 28.1579 16.7997 28.1589 16.913C28.1599 17.0264 28.1163 17.1357 28.0375 17.2172L25.6111 19.6436C25.571 19.6839 25.5234 19.7159 25.471 19.7378C25.4185 19.7597 25.3622 19.771 25.3054 19.7712Z" fill="#707070"/>
<path d="M28.6142 18.874C28.5402 18.8741 28.4675 18.8552 28.4029 18.8191C28.3383 18.7831 28.284 18.7311 28.2453 18.6681L22.9653 10.08C22.9095 9.98917 22.8893 9.88092 22.9084 9.77604C22.9276 9.67117 22.9848 9.57707 23.0691 9.5118L28.2985 5.46164C28.3559 5.41718 28.4236 5.38789 28.4953 5.37648C28.567 5.36506 28.6404 5.37188 28.7088 5.3963C28.7771 5.42073 28.8383 5.46198 28.8865 5.51625C28.9347 5.57052 28.9685 5.63606 28.9848 5.70683L31.5564 16.9272C31.5778 17.0185 31.5689 17.1142 31.531 17.2C31.4932 17.2858 31.4285 17.357 31.3467 17.4028L28.8252 18.8199C28.7607 18.8558 28.688 18.8744 28.6142 18.874ZM23.9054 9.95721L28.7642 17.8599L30.6414 16.8048L28.2933 6.55959L23.9054 9.95721Z" fill="#707070"/>
<path d="M3.38569 19.0261C3.31163 19.0261 3.23881 19.007 3.17423 18.9707L0.652718 17.5558C0.570914 17.51 0.506223 17.4388 0.468394 17.353C0.430565 17.2672 0.421649 17.1715 0.442988 17.0802L3.0151 5.86113C3.03133 5.79036 3.06512 5.72482 3.11336 5.67055C3.16159 5.61628 3.22271 5.57503 3.29109 5.5506C3.35946 5.52617 3.43288 5.51935 3.50459 5.53077C3.57629 5.54219 3.64396 5.57148 3.70137 5.61594L8.9312 9.66567C9.0155 9.73093 9.07272 9.82503 9.09188 9.92991C9.11103 10.0348 9.09077 10.143 9.03499 10.2339L3.75456 18.822C3.71559 18.8847 3.66125 18.9363 3.59668 18.972C3.53211 19.0078 3.45948 19.0264 3.38569 19.0261ZM1.35845 16.9599L3.23564 18.0146L8.09445 10.1115L3.70656 6.71388L1.35845 16.9599Z" fill="#707070"/>
</svg>
