<svg width="130" height="130" viewBox="0 0 130 130" fill="none" xmlns="http://www.w3.org/2000/svg">
<mask id="mask0_64_80" style="mask-type:luminance" maskUnits="userSpaceOnUse" x="0" y="0" width="130" height="130">
<path d="M65 130C100.899 130 130 100.898 130 65C130 29.1015 100.899 0 65 0C29.1015 0 0 29.1015 0 65C0 100.898 29.1015 130 65 130Z" fill="white"/>
</mask>
<g mask="url(#mask0_64_80)">
<path d="M136.732 38.4602L87.4163 62.4516L136.732 72.671V38.4602Z" fill="#FFD325"/>
<path d="M-6.73022 45.765L45.3041 59.7159L-6.73022 73.6668V45.765Z" fill="#FFD325"/>
<path d="M94.6249 -5.0777L78.8271 20.69L125.354 -5.04242L94.6249 -5.0777Z" fill="#FFD325"/>
<path d="M17.4452 -4.74316L29.5769 15.0431L-6.15063 -4.71797L17.4452 -4.74316Z" fill="#FFD325"/>
<path d="M71.4597 -4.88369L66.7153 8.00142L82.0646 -5.04242L71.4597 -4.88369Z" fill="#FFD325"/>
<path d="M28.7681 -5.04242L43.4345 9.59631L40.028 -5.04242H28.7681Z" fill="#FFD325"/>
<path d="M49.718 -5.04238L52.6105 8.14004L62.5427 -5.18347L49.718 -5.04238Z" fill="#FFD325"/>
<path d="M136.732 -4.18799L90.0818 38.4609L136.732 30.0203V-4.18799Z" fill="#FFD325"/>
<path d="M-6.73022 3.48157L39.9197 46.1304L-6.73022 37.6898V3.48157Z" fill="#FFD325"/>
<path d="M112.602 57.2421L115.669 53.4527C115.669 53.4527 116.621 52.9941 117.465 52.0997C118.309 51.2052 121.448 47.3528 121.448 47.3528L114.371 42.3867C114.371 42.3867 110.682 48.2346 110.284 49.7892C109.886 51.3438 107.591 53.5913 107.591 53.5913L112.602 57.2421Z" fill="#9E5943"/>
<path d="M111.418 51.0637C111.418 51.0637 109.344 46.8686 109.652 44.5455C109.914 42.5651 110.4 41.1038 110.536 40.106C110.574 39.8339 110.833 39.6525 111.158 39.6802C111.763 39.7306 112.292 40.1766 112.378 40.7057C112.499 41.4464 112.605 42.4921 112.443 43.3512C112.285 44.2054 113.97 46.1807 113.97 46.1807L111.415 51.0637H111.418Z" fill="#9E5943"/>
<path d="M114.164 42.7161L117.959 35.8931C118.208 35.4295 118.853 35.2808 119.38 35.5681C119.878 35.8377 120.088 36.3995 119.856 36.8404L116.182 43.8373L114.164 42.7186V42.7161Z" fill="#9E5943"/>
<path d="M116.139 43.9025L120.964 37.0921C121.294 36.626 121.98 36.5151 122.474 36.8477C122.942 37.1601 123.071 37.7573 122.763 38.2007L117.888 45.2278L116.139 43.9025Z" fill="#9E5943"/>
<path d="M118.065 45.0572L122.494 39.2017C122.796 38.8011 123.454 38.7482 123.943 39.0858C124.404 39.4032 124.548 39.955 124.265 40.338L119.796 46.3875L118.067 45.0572H118.065Z" fill="#9E5943"/>
<path d="M119.755 46.5307L124.318 43.1066C124.631 42.8723 125.142 42.968 125.445 43.3182C125.732 43.6483 125.729 44.0867 125.437 44.3109L120.804 47.8711L119.755 46.5332V46.5307Z" fill="#9E5943"/>
<path d="M115.046 47.2294C114.918 46.6877 114.759 46.3349 114.741 46.2946C114.696 46.1989 114.58 46.156 114.482 46.1989C114.383 46.2442 114.338 46.3576 114.383 46.4559C114.396 46.4836 115.613 49.2249 113.92 51.4169C113.854 51.5026 113.869 51.6235 113.955 51.6865C114.041 51.752 114.164 51.7344 114.23 51.6487C115.447 50.0715 115.301 48.2876 115.046 47.2269V47.2294Z" fill="black"/>
<path d="M21.4865 49.9701L18.1556 46.41C18.1556 46.41 17.173 46.022 16.2684 45.1905C15.3614 44.359 11.9524 40.7434 11.9524 40.7434L18.6545 35.281C18.6545 35.281 22.7538 40.8493 23.2628 42.3711C23.7717 43.8929 26.2233 45.969 26.2233 45.969L21.4865 49.9701Z" fill="#9E5943"/>
<path d="M22.2221 43.7225C22.2221 43.7225 23.9883 39.3888 23.5146 37.0935C23.1115 35.1358 22.5194 33.7148 22.3128 32.7296C22.2548 32.46 21.9827 32.2988 21.6627 32.3491C21.063 32.4424 20.5667 32.9261 20.5188 33.4603C20.4508 34.2061 20.4206 35.2593 20.6423 36.1033C20.864 36.9423 19.322 39.0361 19.322 39.0361L22.2195 43.7225H22.2221Z" fill="#9E5943"/>
<path d="M18.8839 35.5932L14.6107 29.06C14.3286 28.6165 13.676 28.5157 13.1696 28.8382C12.6934 29.1431 12.5245 29.7176 12.7866 30.1409L16.954 36.8555L18.8865 35.5932H18.8839Z" fill="#9E5943"/>
<path d="M16.9968 36.918L11.6956 30.4729C11.3328 30.032 10.6424 29.9715 10.1713 30.3369C9.72532 30.6846 9.64217 31.2868 9.97979 31.7075L15.349 38.3668L16.9968 36.918Z" fill="#9E5943"/>
<path d="M15.1601 38.2084L10.3225 32.6881C9.99246 32.3101 9.33233 32.3051 8.86873 32.678C8.43032 33.0282 8.32702 33.5901 8.63693 33.9478L13.5299 39.6597L15.1576 38.2084H15.1601Z" fill="#9E5943"/>
<path d="M13.5802 39.8017L8.78292 36.7127C8.45537 36.5011 7.95146 36.6346 7.6743 37.005C7.41227 37.3552 7.44502 37.7911 7.75241 37.9926L12.6303 41.2101L13.5802 39.7992V39.8017Z" fill="#9E5943"/>
<path d="M18.3272 40.1584C18.4179 39.6091 18.5489 39.2463 18.564 39.2034C18.6018 39.1027 18.7127 39.0523 18.816 39.0901C18.9168 39.1279 18.9697 39.2387 18.9319 39.3395C18.9218 39.3672 17.9039 42.1891 19.7507 44.2552C19.8238 44.3358 19.8162 44.4568 19.7331 44.5273C19.6525 44.5979 19.529 44.5903 19.4559 44.5097C18.1281 43.0256 18.1458 41.2342 18.3247 40.1584H18.3272Z" fill="black"/>
<path d="M57.6904 91.0653C57.6904 91.0653 45.5032 78.281 44.0695 85.3585C41.8573 96.2682 42.7115 145.433 42.7115 145.433L89.2758 141.681C89.2758 141.681 89.4496 116.077 89.5957 112.444C90.0467 101.023 94.5694 94.1997 90.5103 89.2966C86.4513 84.3935 77.4665 92.2369 77.4665 92.2369L57.6904 91.0678V91.0653Z" fill="#31B252"/>
<path d="M64.5283 82.299C58.3201 82.042 55.1706 86.0532 54.6844 88.152C53.3893 93.758 72.4826 93.1357 72.4826 93.1357C72.4826 93.1357 82.503 94.9044 80.9988 88.8298C79.5299 82.8936 71.175 82.5762 64.5258 82.299H64.5283Z" fill="#31B252"/>
<path d="M72.4098 68.2909C72.0948 66.1443 73.0573 64.2244 74.5615 64.0026C76.0657 63.7834 77.5396 65.3456 77.8546 67.4922C78.1695 69.6389 77.2071 71.5588 75.7029 71.7806C74.1987 71.9998 72.7247 70.4376 72.4098 68.2909Z" fill="white"/>
<path d="M55.161 69.0942C53.6518 68.8473 52.6968 67.003 53.0269 64.9747C53.3595 62.9465 54.8511 61.5027 56.3628 61.7497C57.872 61.9966 58.827 63.8409 58.4969 65.8692C58.1643 67.8974 56.6727 69.3411 55.161 69.0942Z" fill="white"/>
<path d="M56.6778 76.5643C55.1686 76.3174 54.2137 74.4731 54.5437 72.4448C54.8763 70.4166 56.3679 68.9728 57.8797 69.2198C59.3889 69.4667 58.434 70.6635 58.1014 72.6917C57.7688 74.72 58.187 76.8112 56.6778 76.5643Z" fill="white"/>
<path d="M56.6425 63.5615C56.1839 60.4297 58.5649 57.4893 61.9613 56.9904C65.3577 56.4916 68.4845 58.6256 68.943 61.7575C69.4016 64.8893 67.0206 67.8297 63.6242 68.3285C60.2278 68.8274 57.101 66.6933 56.6425 63.5615Z" fill="white"/>
<path d="M53.6192 76.5867C52.7953 75.1103 53.0598 73.3919 54.2113 72.7494C55.3627 72.1069 56.9652 72.7797 57.7891 74.2561C58.613 75.7326 58.3484 77.4509 57.197 78.0934C56.0455 78.7359 54.4431 78.0632 53.6192 76.5867Z" fill="#9E5943"/>
<path d="M57.537 76.0677C57.474 76.0803 57.4034 76.0727 57.3455 76.0349L54.6117 74.372C54.4858 74.2964 54.4454 74.1327 54.5235 74.0067C54.5991 73.8832 54.7629 73.8429 54.8864 73.9185L57.6201 75.5814C57.7461 75.657 57.7864 75.8208 57.7083 75.9468C57.668 76.0123 57.605 76.0526 57.537 76.0677Z" fill="black"/>
<path d="M55.8989 76.94C55.8284 76.9551 55.7503 76.94 55.6873 76.8946C55.5689 76.809 55.5437 76.6427 55.6293 76.5243L56.4104 75.456C56.4961 75.3375 56.6624 75.3123 56.7808 75.398C56.8992 75.4837 56.9244 75.65 56.8387 75.7684L56.0577 76.8367C56.0173 76.8921 55.9594 76.9274 55.8989 76.94Z" fill="black"/>
<path d="M80.9668 73.0868C81.1785 71.4087 80.2916 69.9146 78.9814 69.7508C77.6737 69.5845 76.4391 70.8091 76.2275 72.4871C76.0159 74.1651 76.9028 75.6592 78.2129 75.823C79.5206 75.9893 80.7552 74.7648 80.9668 73.0868Z" fill="#9E5943"/>
<path d="M77.1471 74.0702C77.074 74.0854 76.9959 74.0702 76.9329 74.0249C76.817 73.9367 76.7918 73.7704 76.88 73.6545L78.7924 71.0896C78.8806 70.9737 79.0468 70.9485 79.1627 71.0342C79.2786 71.1223 79.3038 71.2886 79.2157 71.4045L77.3033 73.9695C77.263 74.0224 77.2076 74.0576 77.1471 74.0702Z" fill="black"/>
<path d="M78.9937 74.266C78.9282 74.2785 78.8602 74.2685 78.7997 74.2307L77.676 73.5328C77.5525 73.4547 77.5122 73.2934 77.5903 73.1674C77.6659 73.044 77.8297 73.0036 77.9556 73.0818L79.0794 73.7797C79.2028 73.8578 79.2431 74.019 79.165 74.145C79.1247 74.208 79.0642 74.2508 78.9962 74.2634L78.9937 74.266Z" fill="black"/>
<path d="M64.2087 89.0381L63.7527 81.23L71.2358 81.5701L71.9438 90.0359L67.7412 92.3287C67.7412 92.3287 66.3831 91.0639 64.2113 89.0407L64.2087 89.0381Z" fill="#9E5943"/>
<path d="M71.3114 83.4528L71.3164 81.7193L63.8333 81.3792L64.0978 85.4936C66.5468 86.1412 68.9631 84.7503 71.3088 83.4528H71.3114Z" fill="black"/>
<path d="M68.2657 83.3594C74.034 82.6113 78.0785 77.1351 77.2994 71.1282C76.5203 65.1212 71.2126 60.858 65.4443 61.6062C59.6761 62.3543 55.6316 67.8304 56.4107 73.8374C57.1898 79.8444 62.4975 84.1075 68.2657 83.3594Z" fill="#9E5943"/>
<path d="M65.214 71.3931C65.1334 71.3856 65.0553 71.3428 65.0099 71.2672C64.9671 71.1966 63.997 69.7 61.5077 70.5415C61.3691 70.5894 61.2205 70.5138 61.1726 70.3752C61.1247 70.2367 61.2003 70.0855 61.3389 70.0401C64.254 69.0525 65.4508 70.9724 65.4634 70.9925C65.539 71.1185 65.4987 71.2798 65.3727 71.3554C65.3223 71.3856 65.2669 71.3982 65.214 71.3931Z" fill="black"/>
<path d="M73.166 69.9922C73.1106 70.0048 73.0501 70.0023 72.9922 69.9746C72.9065 69.9343 70.843 69.0146 69.4396 70.8287C69.3514 70.9446 69.1851 70.9673 69.0667 70.8766C68.9508 70.7859 68.9306 70.6196 69.0188 70.5062C70.6868 68.3494 73.1912 69.4833 73.2139 69.4933C73.3475 69.5538 73.4029 69.7125 73.3424 69.8436C73.3071 69.9191 73.2391 69.972 73.1635 69.9897L73.166 69.9922Z" fill="black"/>
<path d="M64.2065 72.9489C64.2594 73.6417 63.7404 74.2439 63.0475 74.2968C62.3546 74.3497 61.7524 73.8307 61.6995 73.1378C61.6466 72.4449 62.1656 71.8428 62.8585 71.7898C63.5514 71.7369 64.1536 72.256 64.2065 72.9489Z" fill="black"/>
<path d="M72.4882 72.5549C72.5411 73.2478 72.0221 73.8499 71.3292 73.9028C70.6363 73.9558 70.0342 73.4367 69.9813 72.7438C69.9283 72.051 70.4474 71.4488 71.1403 71.3959C71.8331 71.343 72.4353 71.862 72.4882 72.5549Z" fill="black"/>
<path d="M64.9977 79.7867C65.562 80.598 66.4741 81.0918 67.5525 81.0314C69.0491 80.9482 70.9161 79.4062 70.6491 77.766C69.5329 77.8617 68.4142 77.9298 67.2955 77.9751C66.4237 78.0104 65.3958 77.829 64.5441 78.0179C64.4434 78.3153 64.4837 78.6478 64.5819 78.9452C64.6827 79.25 64.8263 79.5347 65.0002 79.7867H64.9977Z" fill="black"/>
<path d="M66.0257 74.5132C66.0483 75.0927 66.4238 75.5462 66.9554 75.7503C67.487 75.9544 68.1497 75.836 68.5452 75.4152C68.7947 75.1481 68.9408 74.7903 68.9307 74.4225C68.9257 74.2512 68.7896 74.1075 68.6158 74.1075C68.4419 74.1075 68.2958 74.2512 68.3008 74.4225C68.3008 74.4603 68.3008 74.5006 68.3008 74.5384C68.3008 74.5611 68.3008 74.5611 68.3008 74.5384C68.2983 74.5611 68.2933 74.5812 68.2882 74.6039C68.2807 74.6367 68.2731 74.6669 68.2631 74.6996C68.2631 74.6996 68.2253 74.7929 68.2454 74.7475C68.1799 74.8911 68.1346 74.9466 68.0161 75.0524C67.9456 75.1154 67.8398 75.1607 67.7365 75.191C67.6987 75.201 67.6609 75.2086 67.6231 75.2162C67.6785 75.2061 67.613 75.2162 67.5928 75.2162C67.5299 75.2212 67.4694 75.2162 67.4089 75.2162C67.3938 75.2162 67.3812 75.2162 67.3661 75.2136C67.4039 75.2187 67.4039 75.2187 67.3661 75.2136C67.3384 75.2086 67.3106 75.2036 67.2829 75.196C67.2552 75.1884 67.23 75.1809 67.2023 75.1733C67.1922 75.1708 67.104 75.138 67.1343 75.1506C67.1645 75.1632 67.0814 75.1254 67.0713 75.1204C67.0461 75.1078 67.0234 75.0952 67.0007 75.0801C66.9781 75.065 66.9554 75.0499 66.9327 75.0347C66.9025 75.0146 66.9025 75.0146 66.9327 75.0347C66.9226 75.0272 66.9126 75.0171 66.9025 75.0095C66.8596 74.9692 66.8193 74.9289 66.7815 74.8836C66.8244 74.9365 66.7765 74.8735 66.7664 74.8609C66.7488 74.8332 66.7362 74.8055 66.7186 74.7777C66.711 74.7651 66.706 74.7526 66.7009 74.74C66.7135 74.7727 66.7135 74.7727 66.7009 74.74C66.6934 74.7122 66.6833 74.687 66.6757 74.6593C66.6682 74.6316 66.6631 74.6039 66.6581 74.5762C66.6707 74.6467 66.6581 74.5283 66.6556 74.5157C66.6505 74.3469 66.5145 74.2008 66.3406 74.2008C66.1668 74.2008 66.0181 74.3444 66.0257 74.5157V74.5132Z" fill="black"/>
<path d="M69.8828 67.4766C68.7414 66.1589 69.2126 63.8812 70.9335 62.3896C72.6543 60.8955 74.9774 60.7544 76.1187 62.0696C77.2601 63.3873 76.789 65.665 75.0681 67.1566C73.3472 68.6507 71.0242 68.7918 69.8828 67.4766Z" fill="white"/>
<path d="M67.4464 63.1676C66.5015 61.7037 67.2902 59.5142 69.2051 58.2796C71.1199 57.045 73.4379 57.2315 74.3828 58.6979C75.3276 60.1617 74.539 62.3512 72.6241 63.5858C70.7092 64.8204 68.3912 64.634 67.4464 63.1676Z" fill="white"/>
<path d="M52.7698 69.9124C52.4347 67.6222 56.4283 64.9287 58.4212 64.4198C60.5478 63.8781 62.2334 63.1398 60.195 65.5737C58.6908 67.3702 57.7888 69.7915 56.7911 74.0194C56.3199 76.0199 53.1049 72.2027 52.7698 69.9099V69.9124Z" fill="white"/>
<path d="M78.4419 66.1839C78.1446 63.8861 74.6852 62.2332 73.1584 62.2181C71.5257 62.2005 70.1601 61.8855 72.1707 63.7576C73.6547 65.1383 74.8616 67.2648 76.5548 71.1172C77.356 72.9414 78.7392 68.4818 78.4419 66.1864V66.1839Z" fill="white"/>
<path d="M59.9707 67.1144C58.716 65.1668 59.7692 62.2542 62.324 60.6089C64.8789 58.9636 67.9654 59.2055 69.2201 61.1531C70.4749 63.1008 69.4217 66.0134 66.8668 67.6587C64.312 69.304 61.2255 69.0621 59.9707 67.1144Z" fill="white"/>
<path d="M55.123 69.0291C54.2664 67.7013 54.9114 65.7637 56.5642 64.7005C58.2145 63.6372 60.2478 63.8489 61.102 65.1767C61.9561 66.5045 61.3136 68.4421 59.6608 69.5053C58.0104 70.5686 55.9772 70.3569 55.123 69.0291Z" fill="white"/>
<path d="M65.3221 94.6032L65.3044 94.5982C65.2213 94.573 56.627 92.8874 54.8154 88.075L55.0623 87.9994C55.9845 90.4459 58.6779 91.7258 60.7591 92.8093C62.9159 93.9305 65.1583 94.3034 65.3598 94.3638C71.1398 94.51 75.1333 93.288 77.4664 92.2348C79.9961 91.0934 81.1702 89.9042 81.1828 89.8916L81.3793 90.0554C81.3314 90.1058 80.1674 91.2849 77.6 92.4464C75.2366 93.5147 71.1927 94.7544 65.3397 94.6057H65.3221V94.6032Z" fill="black"/>
<path d="M65.3094 94.7091C65.3094 94.7091 65.2968 94.7091 65.2918 94.7066L65.2742 94.7015C65.2742 94.7015 65.259 94.699 65.2389 94.694C64.4855 94.5327 62.5026 94.054 60.4063 93.1192C57.3703 91.7662 55.4529 90.0806 54.7121 88.1153C54.702 88.0876 54.702 88.0574 54.7171 88.0297C54.7323 88.002 54.7549 87.9818 54.7826 87.9743L55.0296 87.8987C55.0825 87.881 55.1404 87.9113 55.1606 87.9642C56.0172 90.2393 58.4839 91.5143 60.4668 92.5397C60.5827 92.6002 60.6961 92.6581 60.807 92.7161C62.6538 93.676 64.5611 94.0817 65.186 94.2152C65.2792 94.2354 65.3397 94.248 65.3749 94.2581C71.1297 94.4017 75.1005 93.1847 77.421 92.1391C79.9179 91.0129 81.0921 89.8312 81.1047 89.8186C81.145 89.7783 81.208 89.7757 81.2508 89.811L81.4473 89.9748C81.47 89.995 81.4851 90.0227 81.4851 90.0504C81.4851 90.0781 81.475 90.1083 81.4549 90.131C81.407 90.1814 80.2329 91.3732 77.6428 92.5448C75.2693 93.6181 71.2078 94.8628 65.3346 94.7141H65.317C65.317 94.7141 65.312 94.7141 65.3094 94.7141V94.7091ZM54.9565 88.1431C55.7048 90.0101 57.5668 91.615 60.4945 92.9202C62.5732 93.8474 64.5359 94.3211 65.2842 94.4823C65.312 94.4873 65.3271 94.4924 65.3321 94.4924H65.3371H65.3422C71.175 94.641 75.2038 93.4065 77.5546 92.3432C79.7567 91.348 80.9106 90.3452 81.218 90.0554L81.1878 90.0302C80.8955 90.3023 79.7063 91.3379 77.5117 92.3281C75.1711 93.3838 71.1624 94.6108 65.3598 94.4672C65.3497 94.4672 65.3422 94.4672 65.3321 94.4622C65.3069 94.4546 65.2364 94.4395 65.1457 94.4193C64.5132 94.2833 62.5858 93.8726 60.7112 92.9C60.6004 92.8421 60.487 92.7841 60.3711 92.7236C58.3831 91.6957 55.9165 90.4208 54.9993 88.1279L54.9565 88.1405V88.1431Z" fill="black"/>
<path d="M52.6686 87.0103C52.6686 87.0103 34.9812 47.8989 26.7951 45.8732L25.3136 42.832L18.0068 47.012L19.5539 48.6346C19.5539 48.6346 17.4576 52.7592 22.2221 62.9231C24.0311 66.7831 42.6911 107.958 42.6911 107.958L52.6711 87.0077L52.6686 87.0103Z" fill="#31B252"/>
<path d="M79.752 91.9409C79.752 91.9409 98.2356 54.7948 106.512 53.1797L108.057 51.0356L115.391 55.0694L113.716 56.6265C113.716 56.6265 115.606 60.8493 110.345 70.7664C108.347 74.5331 88.3034 112.392 88.3034 112.392L79.752 91.9434V91.9409Z" fill="#31B252"/>
<path d="M64.4857 100.733H64.4806C64.3219 100.723 64.2035 100.587 64.211 100.431L64.6444 92.9676C64.6545 92.8088 64.7956 92.6803 64.9468 92.698C65.1055 92.7081 65.2239 92.8416 65.2163 93.0003L64.783 100.461C64.7729 100.617 64.6419 100.735 64.4857 100.73V100.733Z" fill="black"/>
<path d="M89.3638 109.949H89.3587C89.2227 110.03 89.0463 109.984 88.9682 109.848L85.2266 103.378C85.1485 103.242 85.1939 103.056 85.3299 102.988C85.466 102.909 85.6424 102.955 85.7205 103.091L89.4621 109.561C89.5402 109.697 89.4948 109.868 89.3613 109.949H89.3638Z" fill="black"/>
<path d="M67.8846 103.732C67.7259 103.727 67.6024 103.594 67.6099 103.435L67.998 93.6011C68.003 93.4423 68.1365 93.3189 68.2953 93.3264C68.454 93.334 68.5775 93.465 68.5699 93.6237L68.1819 103.458C68.1769 103.616 68.0433 103.74 67.8846 103.732Z" fill="black"/>
<path d="M42.8378 108.331C42.6992 108.258 42.6463 108.084 42.7194 107.943L47.3377 99.2507C47.4108 99.1121 47.5847 99.0592 47.7258 99.1323C47.8669 99.2053 47.9173 99.3792 47.8442 99.5203L43.2258 108.213C43.1527 108.351 42.9789 108.404 42.8378 108.331Z" fill="black"/>
<path d="M67.9222 92.4045C67.8567 92.402 67.7911 92.3768 67.7382 92.3289L61.462 86.4785C61.3461 86.3701 61.341 86.1887 61.4469 86.0728C61.5552 85.9569 61.7366 85.9494 61.8525 86.0577L68.1288 91.9082C68.2447 92.0165 68.2497 92.1979 68.1439 92.3138C68.0859 92.3768 68.0028 92.407 67.9222 92.4045Z" fill="black"/>
<path d="M65.8789 93.8038C65.7882 93.8013 65.7 93.7535 65.6471 93.6703C65.564 93.5368 65.6018 93.3604 65.7378 93.2747L75.03 87.4142C75.1635 87.3311 75.3399 87.3688 75.4256 87.5049C75.5087 87.6384 75.4709 87.8148 75.3349 87.9005L66.0427 93.761C65.9923 93.7938 65.9343 93.8064 65.8789 93.8038Z" fill="black"/>
<path d="M113.706 96.2773C116.588 103.733 112.882 112.115 105.424 114.998C97.9686 117.88 89.586 114.174 86.7036 106.716C83.8212 99.2605 87.5275 90.8779 94.9854 87.9955C102.441 85.1131 110.823 88.8194 113.706 96.2773Z" fill="#C39B43"/>
<path d="M107.175 88.8142C103.562 86.8313 99.1326 86.3954 94.9854 87.9978C87.5299 90.8802 83.8211 99.2629 86.7035 106.718C87.3082 108.285 88.1598 109.684 89.1903 110.893C95.0559 103.43 101.04 96.0605 107.173 88.8167L107.175 88.8142Z" fill="#D8AF4D"/>
<path d="M106.951 114.304C109.911 112.749 112.146 110.273 113.434 107.373C111.718 109.202 110.01 111.039 108.299 112.87C107.85 113.349 107.399 113.825 106.951 114.301V114.304Z" fill="#D8AF4D"/>
<path d="M110.627 97.7141C112.789 103.308 110.01 109.591 104.416 111.753C98.8228 113.915 92.539 111.136 90.3772 105.542C88.2154 99.949 90.9945 93.6651 96.5879 91.5034C102.181 89.3416 108.465 92.1207 110.627 97.7141Z" fill="#A98E41"/>
<path d="M102.637 94.1791L99.3366 95.454C100.113 95.7387 100.816 96.3031 101.327 97.2731L103.506 96.4291L103.932 97.5326L101.773 98.3666C102.443 100.697 101.38 102.758 98.8528 103.837C101.105 105.023 103.675 106.618 106.235 108.243L104.315 108.987C101.952 107.513 99.7498 106.157 97.0161 104.676L96.487 103.307L97.588 102.882C99.7473 102.048 100.523 100.604 100.075 99.0267L95.5144 100.79L95.0886 99.6869L99.5886 97.9484C98.8125 96.7768 97.5049 96.545 95.7664 97.2177L94.3453 97.7669L93.791 96.3308L102.211 93.0755L102.637 94.1791Z" fill="#DEA041"/>
<path d="M102.247 94.0073L98.9462 95.2822C99.7223 95.5669 100.425 96.1313 100.937 97.1013L103.116 96.2598L103.542 97.3634L101.383 98.1974C102.053 100.528 100.99 102.589 98.4625 103.667C100.715 104.854 103.285 106.449 105.845 108.074L103.925 108.817C101.562 107.343 99.3594 105.988 96.6257 104.506L96.0966 103.138L97.1976 102.712C99.3569 101.878 100.133 100.435 99.6845 98.8575L95.124 100.621L94.6982 99.5176L99.1982 97.7791C98.4222 96.6075 97.1145 96.3757 95.376 97.0484L93.9549 97.5977L93.4006 96.1615L101.821 92.9062L102.247 94.0098V94.0073Z" fill="#FFD325"/>
<path d="M71.1197 35.2691C72.7247 39.4189 70.6611 44.0851 66.5089 45.6901C62.3566 47.295 57.6929 45.2315 56.0879 41.0793C54.4829 36.927 56.5465 32.2633 60.6987 30.6583C64.851 29.0533 69.5147 31.1169 71.1197 35.2691Z" fill="#FFD325"/>
<path d="M67.484 31.1151C65.4733 30.0115 63.0067 29.7671 60.6987 30.6591C56.5465 32.264 54.4829 36.9303 56.0879 41.08C56.4255 41.9518 56.8992 42.7304 57.4737 43.4031C60.7391 39.2483 64.0699 35.1464 67.484 31.1126V31.1151Z" fill="#D8AF4D"/>
<path d="M67.3608 45.3022C69.0086 44.438 70.2533 43.0572 70.9714 41.4447C70.0165 42.4626 69.0666 43.4856 68.1142 44.506C67.8648 44.7731 67.6128 45.0376 67.3634 45.3022H67.3608Z" fill="#FFD325"/>
<path d="M69.4066 36.0677C70.611 39.1818 69.0614 42.679 65.9498 43.8834C62.8356 45.0877 59.3359 43.5382 58.134 40.4265C56.9297 37.3123 58.4792 33.8152 61.5909 32.6108C64.7051 31.4064 68.2023 32.956 69.4066 36.0677Z" fill="#A98E41"/>
<path d="M64.9568 34.0999L63.12 34.8104C63.5534 34.9692 63.9439 35.2841 64.2286 35.8233L65.4431 35.3547L65.6799 35.9694L64.4781 36.4356C64.851 37.7331 64.2589 38.8795 62.8529 39.4817C64.1052 40.1419 65.5388 41.0287 66.9624 41.9358L65.8941 42.349C64.5788 41.5301 63.3518 40.7743 61.83 39.9478L61.5352 39.1844L62.1474 38.9476C63.3493 38.4814 63.7826 37.6802 63.5307 36.8009L60.9935 37.7835L60.7566 37.1688L63.2611 36.2012C62.8303 35.5487 62.1021 35.4202 61.1321 35.7956L60.3409 36.1005L60.031 35.3017L64.7174 33.4902L64.9543 34.1049L64.9568 34.0999Z" fill="#DEA041"/>
<path d="M64.74 34.004L62.9032 34.7145C63.3366 34.8733 63.7271 35.1882 64.0118 35.7274L65.2263 35.2588L65.4631 35.8735L64.2613 36.3397C64.6342 37.6373 64.0421 38.7837 62.6361 39.3858C63.8884 40.046 65.3195 40.9329 66.7456 41.8399L65.6773 42.2531C64.362 41.4343 63.135 40.6784 61.6132 39.852L61.3184 39.0885L61.9307 38.8517C63.1325 38.3856 63.5659 37.5843 63.3139 36.705L60.7767 37.6876L60.5398 37.0729L63.0443 36.1053C62.6135 35.4528 61.8853 35.3243 60.9153 35.6997L60.1241 36.0046L59.8142 35.2059L64.5006 33.3943L64.7375 34.0091L64.74 34.004Z" fill="#FFD325"/>
<path d="M49.7538 7.75734C52.17 14.0059 49.0634 21.0279 42.8149 23.4417C36.5663 25.858 29.5443 22.7513 27.1305 16.5028C24.7142 10.2542 27.8209 3.23218 34.0694 0.818431C40.318 -1.59784 47.34 1.50879 49.7538 7.75734Z" fill="#FFD325"/>
<path d="M44.2813 1.50371C41.2527 -0.159207 37.5414 -0.524546 34.0694 0.818388C27.8209 3.23466 24.7142 10.2567 27.1305 16.5027C27.6369 17.8154 28.35 18.987 29.2142 19.9999C34.1299 13.7463 39.1413 7.57337 44.2813 1.50119V1.50371Z" fill="#D8AF4D"/>
<path d="M44.0923 22.8593C46.5715 21.5567 48.4461 19.4831 49.5245 17.0517C48.0858 18.5836 46.6572 20.1231 45.2236 21.6575C44.8482 22.0581 44.4702 22.4562 44.0923 22.8568V22.8593Z" fill="#FFD325"/>
<path d="M47.1737 8.9616C48.9853 13.648 46.6547 18.9139 41.9708 20.7255C37.2844 22.5371 32.0185 20.2065 30.2069 15.5226C28.3953 10.8362 30.7259 5.57025 35.4098 3.75867C40.0962 1.9471 45.3622 4.27771 47.1737 8.9616Z" fill="#A98E41"/>
<path d="M40.4791 6.00086L37.7151 7.06916C38.3652 7.306 38.9547 7.7822 39.3831 8.5935L41.2098 7.88802L41.5675 8.8127L39.7585 9.51314C40.3204 11.4658 39.4284 13.1917 37.312 14.0962C39.1991 15.089 41.3534 16.4269 43.4975 17.7874L41.89 18.4098C39.9097 17.1752 38.0653 16.0388 35.775 14.7967L35.3316 13.6503L36.2538 13.295C38.0628 12.5946 38.7129 11.3877 38.3374 10.0649L34.5178 11.5414L34.16 10.6167L37.9293 9.15788C37.2792 8.17525 36.1832 7.98124 34.7269 8.54563L33.5377 9.00671L33.0715 7.80487L40.1263 5.07617L40.4841 6.00086H40.4791Z" fill="#DEA041"/>
<path d="M40.1515 5.85474L37.3875 6.92304C38.0375 7.15988 38.6271 7.63608 39.0554 8.44738L40.8821 7.7419L41.2399 8.66658L39.4309 9.36703C39.9927 11.3197 39.1008 13.0456 36.9843 13.9501C38.8715 14.9428 41.0257 16.2807 43.1699 17.6413L41.5624 18.2636C39.582 17.0291 37.7377 15.8927 35.4474 14.6506L35.004 13.5042L35.9261 13.1489C37.7352 12.4485 38.3852 11.2416 38.0098 9.91881L34.1901 11.3953L33.8324 10.4706L37.6016 9.01177C36.9516 8.02913 35.8556 7.83512 34.3993 8.39951L33.21 8.86059L32.7439 7.65875L39.7987 4.93005L40.1565 5.85474H40.1515Z" fill="#FFD325"/>
<path d="M91.6506 21.1168L87.9749 23.1017L100.924 47.0805L104.6 45.0955L91.6506 21.1168Z" fill="#E4AD43"/>
<path d="M105.328 29.2039C108.903 35.8253 108.576 42.9356 104.595 45.0848C100.614 47.234 95.0205 43.3211 91.4452 36.7022C87.87 30.0807 87.6634 23.2602 91.6443 21.1085C95.6252 18.9593 101.75 22.5825 105.328 29.2039Z" fill="#A98E41"/>
<path d="M101.914 31.0482C105.489 37.6697 105.167 44.7774 101.188 46.9266C97.2124 49.0758 91.0898 45.4476 87.512 38.8262C83.9367 32.2047 84.2592 25.097 88.2376 22.9478C92.2135 20.7986 98.3361 24.4268 101.914 31.0457V31.0482Z" fill="#C39B43"/>
<path d="M95.9022 41.6992C95.8972 40.2328 95.9475 38.7009 95.6931 37.295C94.7785 32.281 90.9185 28.2875 85.3477 27.0655C84.554 30.2654 85.2545 34.6419 87.5145 38.8269C89.6788 42.833 92.7754 45.7406 95.7636 46.9374C95.872 45.1812 95.9097 43.4352 95.9022 41.6992Z" fill="#D8AF4D"/>
<path d="M100.103 32.0266C102.786 36.9927 102.625 42.2787 99.7473 43.8333C96.8674 45.3879 92.3599 42.6239 89.6765 37.6578C86.9932 32.6917 87.1544 27.4057 90.0343 25.8511C92.9142 24.2965 97.4217 27.0605 100.103 32.0266Z" fill="#A98E41"/>
<path d="M94.2972 29.5683L92.8006 30.4628C93.307 30.6417 93.8462 31.0221 94.3879 31.6948L95.3756 31.1355L95.9047 31.9468L94.9246 32.4809C95.9148 34.232 95.8694 35.7136 94.7507 36.2779C96.3154 37.447 98.1673 39.1099 100.019 40.9618L99.1499 41.2692C97.4467 39.5912 95.8644 38.1626 93.952 36.7012L93.2944 35.6657L93.7933 35.4616C94.7734 35.0358 94.8213 34.038 94.1536 32.8866L92.0875 33.8768L91.5584 33.1386L93.5993 32.1232C92.8585 31.327 92.0699 31.1733 91.2813 31.5915L90.6388 31.9191L89.9509 31.0675L93.7681 28.8477L94.2972 29.5734V29.5683Z" fill="#DEA041"/>
<path d="M94.035 29.4612L92.5384 30.3557C93.0448 30.532 93.584 30.9049 94.1257 31.5676L95.1134 31.0082L95.6425 31.8095L94.6624 32.3461C95.6526 34.0771 95.6072 35.546 94.4885 36.1104C96.0532 37.2618 97.9051 38.9046 99.7569 40.7363L98.8877 41.0437C97.1845 39.3858 95.6022 37.9749 93.6898 36.5337L93.0322 35.5082L93.5311 35.3016C94.5112 34.8758 94.5591 33.8856 93.8914 32.7467L91.8253 33.7394L91.2962 33.0113L93.3371 31.9934C92.5963 31.2073 91.8077 31.0611 91.0191 31.4819L90.3766 31.812L89.6887 30.973L93.5059 28.7482L94.035 29.4637V29.4612Z" fill="#FFD325"/>
<path d="M40.9152 86.4037C37.5163 95.0005 27.7932 99.2157 19.1964 95.8193C10.5996 92.4204 6.3844 82.6974 9.78078 74.1006C13.1797 65.5038 22.9027 61.2886 31.4995 64.685C40.0963 68.0839 44.3116 77.8069 40.9152 86.4037Z" fill="#C39B43"/>
<path d="M41.2198 74.9368C39.703 70.4167 36.2814 66.5718 31.5018 64.6821C22.905 61.2832 13.1794 65.4984 9.78303 74.0978C9.06999 75.9043 8.69457 77.7612 8.62402 79.5955C19.4632 77.8544 30.3276 76.2822 41.2223 74.9368H41.2198Z" fill="#D8AF4D"/>
<path d="M21.0381 96.4212C24.7721 97.4215 28.6144 97.0713 31.9831 95.6175C29.0906 95.8241 26.1982 96.0483 23.3082 96.2625C22.5524 96.3179 21.794 96.3683 21.0381 96.4212Z" fill="#D8AF4D"/>
<path d="M37.1735 85.2099C34.6262 91.6575 27.332 94.8195 20.8844 92.2723C14.4368 89.725 11.2748 82.4308 13.8221 75.9832C16.3694 69.5356 23.6635 66.3735 30.1111 68.9208C36.5587 71.4681 39.7208 78.7623 37.1735 85.2099Z" fill="#A98E41"/>
<path d="M33.1551 75.9359L29.3505 74.4317C29.7889 75.2808 29.9401 76.3138 29.615 77.5383L32.1296 78.531L31.6257 79.8034L29.1363 78.8183C27.8791 81.3253 25.357 82.2424 22.3662 81.1766C23.3489 83.9507 24.2836 87.3218 25.1831 90.7107L22.9684 89.8364C22.1168 86.7323 21.308 83.8499 20.1465 80.4484L20.7713 78.8687L22.0387 79.3701C24.528 80.3552 26.3194 79.7379 27.1761 78.0448L21.9177 75.9661L22.4217 74.6937L27.6095 76.7447C27.8715 75.1397 26.9393 73.9177 24.9337 73.1266L23.296 72.479L23.951 70.8237L33.659 74.661L33.1551 75.9334V75.9359Z" fill="#DEA041"/>
<path d="M32.9583 75.4855L29.1537 73.9813C29.5921 74.8304 29.7433 75.8634 29.4183 77.088L31.9328 78.0807L31.4289 79.3531L28.9396 78.3679C27.6823 80.8749 25.1602 81.792 22.1695 80.7262C23.1521 83.5003 24.0868 86.8715 24.9863 90.2603L22.7716 89.386C21.92 86.2819 21.1112 83.3995 19.9497 79.9981L20.5746 78.4183L21.8419 78.9197C24.3312 79.9048 26.1227 79.2875 26.9793 77.5944L21.721 75.5157L22.2249 74.2434L27.4127 76.2943C27.6747 74.6893 26.7425 73.4673 24.7369 72.6762L23.0992 72.0287L23.7543 70.3733L33.4622 74.2106L32.9583 75.483V75.4855Z" fill="#FFD325"/>
</g>
</svg>
