<svg xmlns="http://www.w3.org/2000/svg" width="120.391" height="115.967" viewBox="0 0 120.391 115.967">
  <g id="Group_5442" data-name="Group 5442" transform="translate(-26.484 -161.033)">
    <path id="Path_6771" data-name="Path 6771" d="M69.13,31.164a40.13,40.13,0,1,0,40.13,40.13,40.13,40.13,0,0,0-40.13-40.13Zm0,77.394a37.264,37.264,0,1,1,37.264-37.264A37.264,37.264,0,0,1,69.13,108.558Z" transform="translate(18.266 149.99)" fill="#0bceb2"/>
    <path id="Path_6772" data-name="Path 6772" d="M97.291,61.575,63.376,94.95l-9.9-10.41a1.434,1.434,0,0,0-2.077,1.976L62.3,97.982a1.433,1.433,0,0,0,1.015.445h.024a1.433,1.433,0,0,0,1-.412L99.3,63.619a1.433,1.433,0,1,0-2.01-2.043Z" transform="translate(12.031 141.488)" fill="#fff"/>
    <path id="Path_6773" data-name="Path 6773" d="M112.259,106.294H80.4a45.863,45.863,0,1,0-31.906,0H16.633a1.445,1.445,0,1,0,0,2.866h95.626a1.445,1.445,0,1,0,0-2.866Zm-90.81-43a43,43,0,1,1,43,43,43,43,0,0,1-43-43ZM67.671,13.672a2.15,2.15,0,1,0-2.15-2.15A2.15,2.15,0,0,0,67.671,13.672Zm0-3.225A1.075,1.075,0,1,1,66.6,11.523,1.075,1.075,0,0,1,67.671,10.448Zm50.023,39.234a1.433,1.433,0,1,0,1.433,1.433A1.433,1.433,0,0,0,117.694,49.682Zm0,2.15a.717.717,0,1,1,.717-.717.717.717,0,0,1-.717.717ZM97.41,3.58a1.433,1.433,0,1,0,1.433,1.433A1.433,1.433,0,0,0,97.41,3.58Zm0,2.15a.717.717,0,1,1,.717-.717.717.717,0,0,1-.717.717Zm22.454,6.211a1.433,1.433,0,1,0,1.433,1.433A1.433,1.433,0,0,0,119.864,11.941Zm0,2.15a.717.717,0,1,1,.717-.717.717.717,0,0,1-.717.717Zm-93.9,8.838a1.433,1.433,0,1,0-1.433,1.433A1.433,1.433,0,0,0,25.968,22.929Zm-2.15,0a.717.717,0,1,1,.717.717.717.717,0,0,1-.717-.717Z" transform="translate(22.233 157.807)" fill="#fff"/>
    <path id="Path_6774" data-name="Path 6774" d="M9.983,67.22l1.066-1.4-.673-.381-.684,1.569H9.669l-.7-1.558-.684.392,1.054,1.369v.022l-1.649-.214v.762l1.66-.213v.022L8.29,68.958l.639.4.73-1.582H9.68l.673,1.57.707-.4L9.983,67.6v-.023l1.693.2v-.762l-1.693.224Z" transform="translate(24.303 140.277)" fill="#0bceb2"/>
    <path id="Path_6775" data-name="Path 6775" d="M11.784,5.748l-.613.788.368.233.42-.911h.013l.388.9.407-.233-.62-.775V5.741l.975.116V5.418l-.975.13V5.535l.613-.808-.388-.219-.393.9h-.014l-.4-.9-.394.226.607.788v.013l-.95-.123v.439l.956-.123Z" transform="translate(23.415 157.544)" fill="#0bceb2"/>
    <path id="Path_6776" data-name="Path 6776" d="M63.761,5.385V4.637l-1.66.22V4.835L63.145,3.46l-.66-.374-.671,1.54h-.022L61.111,3.1l-.671.386,1.034,1.341v.022l-1.617-.209v.748l1.628-.209V5.2L60.439,6.539l.627.4.715-1.551H61.8l.66,1.539.693-.4L62.1,5.209V5.186Z" transform="translate(9.521 157.947)" fill="#0bceb2"/>
    <path id="Path_6777" data-name="Path 6777" d="M138.093,35.242l.9-1.186-.57-.322-.578,1.328h-.019l-.588-1.319-.58.332.892,1.158v.019l-1.395-.181v.645l1.4-.18v.019l-.9,1.157.541.342.617-1.338h.019l.569,1.329.6-.342-.911-1.138v-.019l1.432.171v-.645l-1.432.19Z" transform="translate(-12.102 149.261)" fill="#0bceb2"/>
    <circle id="Ellipse_1" data-name="Ellipse 1" cx="1.433" cy="1.433" r="1.433" transform="translate(26.484 264.102)" fill="#fff"/>
    <path id="Path_6778" data-name="Path 6778" d="M9.583,146.914H7.433a1.433,1.433,0,1,0,0,2.866h2.15a1.433,1.433,0,1,0,0-2.866Zm106.775,0h-2.15a1.433,1.433,0,1,0,0,2.866h2.15a1.433,1.433,0,1,0,0-2.866Z" transform="translate(24.783 117.188)" fill="#0bceb2"/>
    <circle id="Ellipse_2" data-name="Ellipse 2" cx="1.433" cy="1.433" r="1.433" transform="translate(144.008 264.102)" fill="#fff"/>
    <path id="Path_6779" data-name="Path 6779" d="M98.273,154.914H92.32a1.438,1.438,0,0,0,0,2.866h5.953a1.438,1.438,0,0,0,0-2.866Zm-43,0H49.323a1.438,1.438,0,0,0,0,2.866h5.953a1.438,1.438,0,0,0,0-2.866Zm32.854,0H59.466a1.433,1.433,0,1,0,0,2.866H70.889v1.433H65.2a1.433,1.433,0,1,0,0,2.866H83.114a1.433,1.433,0,1,0,0-2.866H76.707V157.78H88.13a1.433,1.433,0,1,0,0-2.866Z" transform="translate(12.881 114.921)" fill="#0bceb2"/>
  </g>
</svg>
