<svg xmlns="http://www.w3.org/2000/svg" xmlns:xlink="http://www.w3.org/1999/xlink" width="409.851" height="411.283" viewBox="0 0 409.851 411.283">
  <defs>
    <clipPath id="clip-path">
      <rect id="Rectangle_59" data-name="Rectangle 59" width="409.851" height="411.283" fill="none"/>
    </clipPath>
  </defs>
  <g id="Group_4" data-name="Group 4" transform="translate(0 0.004)" opacity="0.294">
    <g id="Group_2" data-name="Group 2" transform="translate(0 -0.004)" clip-path="url(#clip-path)">
      <path id="Path_8016" data-name="Path 8016" d="M98.507,385.75Q52.485,360.227,26.24,313.493T0,205.638Q0,144.526,26.961,97.782t73.7-72.257Q147.4,0,204.92,0T309.178,25.524q46.734,25.524,73.7,72.257,26.961,46.75,26.972,107.856,0,61.126-27.683,107.855T307.385,385.75q-47.105,25.539-105.341,25.529-57.525,0-103.537-25.529m154.955-75.494q24.086-13.3,38.463-39.906t14.388-64.713q0-56.8-29.847-87.366Q246.63,87.723,203.488,87.713T131.22,118.271q-29.125,30.563-29.115,87.366T130.5,292.994q28.4,30.563,71.546,30.558a104.766,104.766,0,0,0,51.418-13.3" transform="translate(0 0.004)" fill="#161742"/>
    </g>
  </g>
</svg>
