<svg width="24" height="24" viewBox="0 0 24 24" fill="none" xmlns="http://www.w3.org/2000/svg">
<mask id="mask0_351_20599" style="mask-type:alpha" maskUnits="userSpaceOnUse" x="0" y="0" width="24" height="24">
<rect width="24" height="24" fill="#D9D9D9"/>
</mask>
<g mask="url(#mask0_351_20599)">
<path d="M4.73075 20.0006C4.52442 20.0006 4.351 19.924 4.2105 19.7709C4.07017 19.6177 4 19.4379 4 19.2314V14.4621C4 14.0148 4.15733 13.6337 4.472 13.3189C4.78683 13.0042 5.168 12.8469 5.6155 12.8469H6V8.69286C6 8.24553 6.15733 7.86444 6.472 7.54961C6.78683 7.23494 7.168 7.07761 7.6155 7.07761H11.5V5.58911C11.2128 5.40194 10.9743 5.18911 10.7845 4.95061C10.5948 4.71211 10.5 4.43136 10.5 4.10836C10.5 3.90953 10.5372 3.72136 10.6115 3.54386C10.6858 3.36636 10.7974 3.20319 10.9463 3.05436L11.7077 2.29286C11.7283 2.27236 11.8257 2.22878 12 2.16211C12.0333 2.16211 12.1308 2.20569 12.2923 2.29286L13.0538 3.05436C13.2026 3.20319 13.3142 3.36636 13.3885 3.54386C13.4628 3.72136 13.5 3.90953 13.5 4.10836C13.5 4.43136 13.4052 4.71211 13.2155 4.95061C13.0257 5.18911 12.7872 5.40194 12.5 5.58911V7.07761H16.3845C16.832 7.07761 17.2132 7.23494 17.528 7.54961C17.8427 7.86444 18 8.24553 18 8.69286V12.8469H18.3845C18.832 12.8469 19.2132 13.0042 19.528 13.3189C19.8427 13.6337 20 14.0148 20 14.4621V19.2314C20 19.4379 19.9234 19.6177 19.7703 19.7709C19.6171 19.924 19.4373 20.0006 19.2308 20.0006H4.73075ZM7 12.8469H17V8.69286C17 8.51336 16.9423 8.36594 16.827 8.25061C16.7115 8.13528 16.564 8.07761 16.3845 8.07761H7.6155C7.436 8.07761 7.2885 8.13528 7.173 8.25061C7.05767 8.36594 7 8.51336 7 8.69286V12.8469ZM5 19.0006H19V14.4621C19 14.2826 18.9423 14.1352 18.827 14.0199C18.7115 13.9045 18.564 13.8469 18.3845 13.8469H5.6155C5.436 13.8469 5.2885 13.9045 5.173 14.0199C5.05767 14.1352 5 14.2826 5 14.4621V19.0006Z" fill="#1D478E"/>
</g>
</svg>
