<svg width="24" height="24" viewBox="0 0 24 24" fill="none" xmlns="http://www.w3.org/2000/svg">
<mask id="mask0_351_20709" style="mask-type:alpha" maskUnits="userSpaceOnUse" x="0" y="0" width="24" height="24">
<rect width="24" height="24" fill="#D9D9D9"/>
</mask>
<g mask="url(#mask0_351_20709)">
<path d="M6 18.9997H9.69225V13.9227C9.69225 13.6939 9.76967 13.5021 9.9245 13.3472C10.0793 13.1926 10.2712 13.1152 10.5 13.1152H13.5C13.7288 13.1152 13.9207 13.1926 14.0755 13.3472C14.2303 13.5021 14.3077 13.6939 14.3077 13.9227V18.9997H18V10.3075C18 10.2048 17.9776 10.1118 17.9327 10.0285C17.8879 9.94515 17.827 9.87148 17.75 9.80748L12.3655 5.74973C12.2628 5.66007 12.141 5.61523 12 5.61523C11.859 5.61523 11.7372 5.66007 11.6345 5.74973L6.25 9.80748C6.173 9.87148 6.11208 9.94515 6.06725 10.0285C6.02242 10.1118 6 10.2048 6 10.3075V18.9997ZM5 18.9997V10.3075C5 10.0517 5.05725 9.80932 5.17175 9.58048C5.28608 9.35165 5.44425 9.16323 5.64625 9.01523L11.0308 4.93823C11.3126 4.7229 11.6347 4.61523 11.997 4.61523C12.3593 4.61523 12.6834 4.7229 12.9693 4.93823L18.3538 9.01523C18.5558 9.16323 18.7139 9.35165 18.8282 9.58048C18.9427 9.80932 19 10.0517 19 10.3075V18.9997C19 19.2677 18.9003 19.5014 18.701 19.7007C18.5017 19.9001 18.268 19.9997 18 19.9997H14.1155C13.8865 19.9997 13.6947 19.9223 13.54 19.7675C13.3852 19.6127 13.3077 19.4208 13.3077 19.192V14.1152H10.6923V19.192C10.6923 19.4208 10.6148 19.6127 10.46 19.7675C10.3053 19.9223 10.1135 19.9997 9.8845 19.9997H6C5.732 19.9997 5.49833 19.9001 5.299 19.7007C5.09967 19.5014 5 19.2677 5 18.9997Z" fill="#1D478E"/>
</g>
</svg>
