<svg xmlns="http://www.w3.org/2000/svg" width="53.014" height="60.599" viewBox="0 0 53.014 60.599">
  <g id="pdf" transform="translate(-19.329 0.013)">
    <path id="Path_7431" data-name="Path 7431" d="M23.116,0H55.289L72.343,16.987V56.8a3.787,3.787,0,0,1-3.787,3.787H23.116A3.787,3.787,0,0,1,19.329,56.8V3.787A3.787,3.787,0,0,1,23.116,0Z" transform="translate(0 -0.003)" fill="#80d6fb"/>
    <path id="Path_7432" data-name="Path 7432" d="M219.583,17.261l-13-.258a3.735,3.735,0,0,1-3.724-3.744L202.542.18Z" transform="translate(-147.24 -0.193)" fill="#3e8fc2"/>
    <path id="Path_7433" data-name="Path 7433" d="M120.546,137.692a1.14,1.14,0,1,0,0-2.272h-4.734a1.313,1.313,0,0,0-1.442,1.283v9.256a1.393,1.393,0,0,0,2.777,0v-2.54h2.863a1.2,1.2,0,0,0,1.332-1.153,1.184,1.184,0,0,0-1.332-1.121h-2.863v-3.452Zm-16-2.272H101.08c-.94,0-1.608.513-1.608,1.275v9.272c0,.945.96,1.242,1.648,1.242h3.635c4.3,0,7.144-2.252,7.144-5.729C111.9,137.8,109.221,135.42,104.544,135.42Zm.166,9.5H102.6v-7.217h1.9c2.881,0,4.134,1.538,4.134,3.66C108.636,143.352,107.4,144.923,104.71,144.923Zm-12.69-9.5H88.589c-.97,0-1.511.509-1.511,1.283v9.256a1.465,1.465,0,0,0,2.908,0v-2.7h2.151c2.655,0,4.846-1.5,4.846-3.9C96.983,137,94.869,135.42,92.021,135.42Zm-.057,5.666H89.986v-3.492h1.978a1.762,1.762,0,1,1,0,3.492Z" transform="translate(-58.586 -109.153)" fill="#707070"/>
  </g>
</svg>
