<svg xmlns="http://www.w3.org/2000/svg" width="16.018" height="16.001" viewBox="0 0 16.018 16.001">
  <g id="pencil" transform="translate(0 -0.247)">
    <path id="Path_7437" data-name="Path 7437" d="M9.892,82.473,1.078,91.287a.351.351,0,0,0-.092.161L.01,95.369a.347.347,0,0,0,.336.431.344.344,0,0,0,.084-.01l3.921-.977a.347.347,0,0,0,.161-.091l8.814-8.813Zm0,0" transform="translate(0 -79.552)" fill="#004097"/>
    <path id="Path_7438" data-name="Path 7438" d="M338.964,1.719l-.981-.981a1.777,1.777,0,0,0-2.453,0l-1.2,1.2,3.435,3.435,1.2-1.2a1.735,1.735,0,0,0,0-2.453Zm0,0" transform="translate(-323.455 0)" fill="#004097"/>
  </g>
</svg>
