<svg width="180" height="172" viewBox="0 0 180 172" fill="none" xmlns="http://www.w3.org/2000/svg">
<path opacity="0.2" d="M42.712 163.701L35.341 159.477C16.0712 148.427 16.0712 130.51 35.341 119.46L68.43 100.485C87.6998 89.4347 118.943 89.4347 138.213 100.485L145.584 104.708C164.854 115.759 164.854 133.675 145.584 144.726L112.497 163.701C93.2228 174.767 61.9795 174.767 42.712 163.701Z" fill="#5BC4F0"/>
<g opacity="0.88">
<g opacity="0.54">
<path d="M8.70173 39.1603C9.27051 39.1603 9.73159 38.6968 9.73159 38.1251C9.73159 37.5533 9.27051 37.0898 8.70173 37.0898C8.13296 37.0898 7.67188 37.5533 7.67188 38.1251C7.67188 38.6968 8.13296 39.1603 8.70173 39.1603Z" fill="#161742"/>
<path d="M20.5987 24.545C20.9099 24.545 21.1622 24.2914 21.1622 23.9786C21.1622 23.6657 20.9099 23.4121 20.5987 23.4121C20.2874 23.4121 20.0352 23.6657 20.0352 23.9786C20.0352 24.2914 20.2874 24.545 20.5987 24.545Z" fill="#161742"/>
<path d="M23.2996 30.9445C23.7919 30.9445 24.191 30.5433 24.191 30.0484C24.191 29.5535 23.7919 29.1523 23.2996 29.1523C22.8073 29.1523 22.4082 29.5535 22.4082 30.0484C22.4082 30.5433 22.8073 30.9445 23.2996 30.9445Z" fill="#161742"/>
<path d="M48.9922 35.7706C49.3558 35.7706 49.6505 35.4744 49.6505 35.1089C49.6505 34.7435 49.3558 34.4473 48.9922 34.4473C48.6287 34.4473 48.334 34.7435 48.334 35.1089C48.334 35.4744 48.6287 35.7706 48.9922 35.7706Z" fill="#161742"/>
<path d="M33.3846 37.9366C33.6596 37.9366 33.8826 37.7125 33.8826 37.4361C33.8826 37.1596 33.6596 36.9355 33.3846 36.9355C33.1096 36.9355 32.8867 37.1596 32.8867 37.4361C32.8867 37.7125 33.1096 37.9366 33.3846 37.9366Z" fill="#161742"/>
<path d="M18.7097 42.1612C19.0034 42.1612 19.2416 41.9218 19.2416 41.6265C19.2416 41.3312 19.0034 41.0918 18.7097 41.0918C18.4159 41.0918 18.1777 41.3312 18.1777 41.6265C18.1777 41.9218 18.4159 42.1612 18.7097 42.1612Z" fill="#161742"/>
<path d="M5.48135 26.0655C5.8583 26.0655 6.16388 25.7583 6.16388 25.3794C6.16388 25.0005 5.8583 24.6934 5.48135 24.6934C5.1044 24.6934 4.79883 25.0005 4.79883 25.3794C4.79883 25.7583 5.1044 26.0655 5.48135 26.0655Z" fill="#161742"/>
<path d="M12.9817 21.0206C13.431 21.0206 13.7953 20.6544 13.7953 20.2027C13.7953 19.751 13.431 19.3848 12.9817 19.3848C12.5323 19.3848 12.168 19.751 12.168 20.2027C12.168 20.6544 12.5323 21.0206 12.9817 21.0206Z" fill="#161742"/>
<path d="M29.8537 40.7901C30.0965 40.7901 30.2933 40.5922 30.2933 40.3482C30.2933 40.1041 30.0965 39.9062 29.8537 39.9062C29.6109 39.9062 29.4141 40.1041 29.4141 40.3482C29.4141 40.5922 29.6109 40.7901 29.8537 40.7901Z" fill="#161742"/>
<path d="M10.3085 2.16219C10.6278 2.16219 10.8866 1.90202 10.8866 1.58109C10.8866 1.26016 10.6278 1 10.3085 1C9.98928 1 9.73047 1.26016 9.73047 1.58109C9.73047 1.90202 9.98928 2.16219 10.3085 2.16219Z" fill="#161742"/>
<path d="M23.7457 4.47857C23.9926 4.47857 24.1927 4.27744 24.1927 4.02932C24.1927 3.78121 23.9926 3.58008 23.7457 3.58008C23.4989 3.58008 23.2988 3.78121 23.2988 4.02932C23.2988 4.27744 23.4989 4.47857 23.7457 4.47857Z" fill="#161742"/>
<path d="M28.9272 12.546C29.3551 12.546 29.702 12.1973 29.702 11.7671C29.702 11.337 29.3551 10.9883 28.9272 10.9883C28.4992 10.9883 28.1523 11.337 28.1523 11.7671C28.1523 12.1973 28.4992 12.546 28.9272 12.546Z" fill="#161742"/>
<path d="M2.94088 11.7666C3.15417 11.7666 3.32708 11.5928 3.32708 11.3784C3.32708 11.164 3.15417 10.9902 2.94088 10.9902C2.72759 10.9902 2.55469 11.164 2.55469 11.3784C2.55469 11.5928 2.72759 11.7666 2.94088 11.7666Z" fill="#161742"/>
<path d="M39.5503 34.7716C39.9125 34.7716 40.2061 34.4764 40.2061 34.1123C40.2061 33.7483 39.9125 33.4531 39.5503 33.4531C39.1881 33.4531 38.8945 33.7483 38.8945 34.1123C38.8945 34.4764 39.1881 34.7716 39.5503 34.7716Z" fill="#161742"/>
<path d="M0.87791 40.3477C1.19449 40.3477 1.45113 40.0898 1.45113 39.7715C1.45113 39.4533 1.19449 39.1953 0.87791 39.1953C0.561328 39.1953 0.304688 39.4533 0.304688 39.7715C0.304688 40.0898 0.561328 40.3477 0.87791 40.3477Z" fill="#161742"/>
</g>
<g opacity="0.54">
<path d="M55.3252 52.9141C55.6364 52.9141 55.8887 52.6605 55.8887 52.3477C55.8887 52.0349 55.6364 51.7812 55.3252 51.7812C55.014 51.7812 54.7617 52.0349 54.7617 52.3477C54.7617 52.6605 55.014 52.9141 55.3252 52.9141Z" fill="#161742"/>
<path d="M55.3262 64.9415C55.6401 64.9415 55.8945 64.6857 55.8945 64.3702C55.8945 64.0546 55.6401 63.7988 55.3262 63.7988C55.0123 63.7988 54.7578 64.0546 54.7578 64.3702C54.7578 64.6857 55.0123 64.9415 55.3262 64.9415Z" fill="#161742"/>
<path d="M53.8483 75.1182C54.1421 75.1182 54.3803 74.8788 54.3803 74.5835C54.3803 74.2882 54.1421 74.0488 53.8483 74.0488C53.5546 74.0488 53.3164 74.2882 53.3164 74.5835C53.3164 74.8788 53.5546 75.1182 53.8483 75.1182Z" fill="#161742"/>
<path d="M68.0646 58.419C68.3074 58.419 68.5043 58.2211 68.5043 57.9771C68.5043 57.733 68.3074 57.5352 68.0646 57.5352C67.8218 57.5352 67.625 57.733 67.625 57.9771C67.625 58.2211 67.8218 58.419 68.0646 58.419Z" fill="#161742"/>
<path d="M45.0351 30.5333C45.3544 30.5333 45.6132 30.2731 45.6132 29.9522C45.6132 29.6313 45.3544 29.3711 45.0351 29.3711C44.7158 29.3711 44.457 29.6313 44.457 29.9522C44.457 30.2731 44.7158 30.5333 45.0351 30.5333Z" fill="#161742"/>
<path d="M58.4723 32.8497C58.7191 32.8497 58.9192 32.6485 58.9192 32.4004C58.9192 32.1523 58.7191 31.9512 58.4723 31.9512C58.2255 31.9512 58.0254 32.1523 58.0254 32.4004C58.0254 32.6485 58.2255 32.8497 58.4723 32.8497Z" fill="#161742"/>
<path d="M61.1884 72.13C61.5653 72.13 61.8709 71.8228 61.8709 71.4439C61.8709 71.065 61.5653 70.7578 61.1884 70.7578C60.8114 70.7578 60.5059 71.065 60.5059 71.4439C60.5059 71.8228 60.8114 72.13 61.1884 72.13Z" fill="#161742"/>
<path d="M1.55955 87.7774C1.87613 87.7774 2.13277 87.5195 2.13277 87.2012C2.13277 86.883 1.87613 86.625 1.55955 86.625C1.24297 86.625 0.986328 86.883 0.986328 87.2012C0.986328 87.5195 1.24297 87.7774 1.55955 87.7774Z" fill="#161742"/>
</g>
<g opacity="0.54">
<path d="M160.396 77.5196C160.707 77.5196 160.959 77.266 160.959 76.9532C160.959 76.6403 160.707 76.3867 160.396 76.3867C160.084 76.3867 159.832 76.6403 159.832 76.9532C159.832 77.266 160.084 77.5196 160.396 77.5196Z" fill="#161742"/>
<path d="M178.6 78.3272C178.963 78.3272 179.258 78.031 179.258 77.6656C179.258 77.3001 178.963 77.0039 178.6 77.0039C178.236 77.0039 177.941 77.3001 177.941 77.6656C177.941 78.031 178.236 78.3272 178.6 78.3272Z" fill="#161742"/>
<path d="M144.594 102.882C144.869 102.882 145.092 102.658 145.092 102.381C145.092 102.105 144.869 101.881 144.594 101.881C144.319 101.881 144.096 102.105 144.096 102.381C144.096 102.658 144.319 102.882 144.594 102.882Z" fill="#161742"/>
<path d="M171.264 93.8516C171.578 93.8516 171.832 93.5958 171.832 93.2803C171.832 92.9648 171.578 92.709 171.264 92.709C170.95 92.709 170.695 92.9648 170.695 93.2803C170.695 93.5958 170.95 93.8516 171.264 93.8516Z" fill="#161742"/>
<path d="M158.919 99.7198C159.212 99.7198 159.451 99.4804 159.451 99.1851C159.451 98.8898 159.212 98.6504 158.919 98.6504C158.625 98.6504 158.387 98.8898 158.387 99.1851C158.387 99.4804 158.625 99.7198 158.919 99.7198Z" fill="#161742"/>
<path d="M145.278 79.0382C145.655 79.0382 145.961 78.731 145.961 78.3521C145.961 77.9732 145.655 77.666 145.278 77.666C144.901 77.666 144.596 77.9732 144.596 78.3521C144.596 78.731 144.901 79.0382 145.278 79.0382Z" fill="#161742"/>
<path d="M152.779 73.9933C153.228 73.9933 153.592 73.6271 153.592 73.1753C153.592 72.7236 153.228 72.3574 152.779 72.3574C152.329 72.3574 151.965 72.7236 151.965 73.1753C151.965 73.6271 152.329 73.9933 152.779 73.9933Z" fill="#161742"/>
<path d="M173.135 83.0206C173.378 83.0206 173.575 82.8227 173.575 82.5786C173.575 82.3346 173.378 82.1367 173.135 82.1367C172.892 82.1367 172.695 82.3346 172.695 82.5786C172.695 82.8227 172.892 83.0206 173.135 83.0206Z" fill="#161742"/>
<path d="M150.103 55.1348C150.423 55.1348 150.682 54.8747 150.682 54.5537C150.682 54.2328 150.423 53.9727 150.103 53.9727C149.784 53.9727 149.525 54.2328 149.525 54.5537C149.525 54.8747 149.784 55.1348 150.103 55.1348Z" fill="#161742"/>
<path d="M163.543 57.4551C163.789 57.4551 163.99 57.254 163.99 57.0059C163.99 56.7578 163.789 56.5566 163.543 56.5566C163.296 56.5566 163.096 56.7578 163.096 57.0059C163.096 57.254 163.296 57.4551 163.543 57.4551Z" fill="#161742"/>
<path d="M142.734 64.7393C142.947 64.7393 143.12 64.5655 143.12 64.3511C143.12 64.1367 142.947 63.9629 142.734 63.9629C142.521 63.9629 142.348 64.1367 142.348 64.3511C142.348 64.5655 142.521 64.7393 142.734 64.7393Z" fill="#161742"/>
<path d="M166.257 96.7315C166.634 96.7315 166.939 96.4244 166.939 96.0455C166.939 95.6665 166.634 95.3594 166.257 95.3594C165.88 95.3594 165.574 95.6665 165.574 96.0455C165.574 96.4244 165.88 96.7315 166.257 96.7315Z" fill="#161742"/>
<path d="M150.761 99.7169C151.123 99.7169 151.417 99.4217 151.417 99.0577C151.417 98.6936 151.123 98.3984 150.761 98.3984C150.399 98.3984 150.105 98.6936 150.105 99.0577C150.105 99.4217 150.399 99.7169 150.761 99.7169Z" fill="#161742"/>
<path d="M140.675 93.3204C140.991 93.3204 141.248 93.0624 141.248 92.7442C141.248 92.426 140.991 92.168 140.675 92.168C140.358 92.168 140.102 92.426 140.102 92.7442C140.102 93.0624 140.358 93.3204 140.675 93.3204Z" fill="#161742"/>
</g>
</g>
<path d="M7.75781 60.3711L46.118 79.1309L7.75781 87.1207V60.3711Z" fill="#FFD325"/>
<path d="M32.0409 21.8027L44.3294 41.9514L8.13672 21.8311L32.0409 21.8027Z" fill="#FFD325"/>
<path d="M46.8334 21.9292L50.5238 32.0023L38.582 21.8027L46.8334 21.9292Z" fill="#FFD325"/>
<path d="M63.7481 21.9137L61.4984 32.2217L53.7734 21.8027L63.7481 21.9137Z" fill="#FFD325"/>
<path d="M7.75781 26.9727L44.0455 60.3232L7.75781 53.7223V26.9727Z" fill="#FFD325"/>
<path d="M131.204 42.9349C137.907 41.8687 141.343 38.5902 143.619 34.5424C145.28 31.584 145.91 26.4416 145.16 22.6519C144.746 20.5274 144.012 18.4776 142.979 16.5776C144.158 13.4902 143.411 10.0335 141.906 7.07252C139.985 3.29319 136.33 0.489668 131.916 1.07825C131.202 1.17377 131.723 1.8682 132.309 2.12893C137.373 4.43938 138.929 8.29874 139.381 12.1787C139.03 11.8948 138.66 11.6289 138.277 11.3888C134.664 9.07577 128.798 8.50526 124.833 10.1445C120.868 11.7838 120.228 15.7206 122.971 18.8649C126.672 23.1114 133.577 24.2473 138.449 21.5909C138.991 23.3799 139.212 25.2515 139.101 27.1205C138.886 30.6391 137.055 33.7757 133.667 35.8357C132.519 36.5353 129.928 37.1161 128.587 37.0206C126.276 36.8322 125.472 36.7134 123.418 35.8357C122.47 35.4407 121.528 36.1791 121.217 37.0826C119.365 42.5012 127.596 43.5105 131.204 42.9349ZM136.538 17.6206C134.574 18.6635 131.713 19.2005 129.643 18.3795C128.308 17.8632 127.285 17.3418 126.602 16.4408C125.424 14.8609 127.098 14.0942 128.96 14.1071C132.006 14.1226 134.692 15.2017 136.538 17.6231V17.6206Z" fill="#1D478E" stroke="#161742" stroke-width="1.5" stroke-miterlimit="10"/>
<path d="M142.976 16.5801C143.764 18.0283 144.378 19.5695 144.802 21.1648C142.94 23.6224 140.212 24.4279 139.067 24.6679C138.967 23.6199 138.764 22.5847 138.461 21.5753C141.376 19.8818 142.162 18.3716 142.976 16.5801Z" fill="#161742"/>
<path d="M136.537 17.6215C136.311 17.3246 136.065 17.0407 135.803 16.7722C136.645 16.2869 137.392 15.6518 138.006 14.8954C139.306 13.3439 139.393 12.1797 139.393 12.1797C139.503 14.0797 138.219 16.6896 136.537 17.6215Z" fill="#161742"/>
<path d="M79.7025 125.238V125.124L79.682 125.003C79.2891 122.318 80.8608 119.541 84.3971 117.444C90.802 113.634 101.254 113.518 107.741 117.191C111.309 119.21 112.932 121.931 112.605 124.647V124.768C112.605 124.804 119.449 123.8 119.449 123.8L117.878 125.486C113.689 130.009 110.959 135.701 110.048 141.811L109.18 147.643V147.702C108.905 149.344 107.695 150.952 105.54 152.235C100.556 155.196 92.4276 155.289 87.3812 152.429C85.2009 151.198 83.9554 149.618 83.6446 147.979V147.891L79.7 125.235L79.7025 125.238Z" fill="#161742"/>
<path d="M79.7025 125.238V125.124L79.682 125.003C79.2891 122.318 80.8608 119.541 84.3971 117.444C90.802 113.634 101.254 113.518 107.741 117.191C111.309 119.21 112.932 121.931 112.605 124.647V124.768C112.605 124.804 119.449 123.8 119.449 123.8L117.878 125.486C113.689 130.009 110.959 135.701 110.048 141.811L109.18 147.643V147.702C108.905 149.344 107.695 150.952 105.54 152.235C100.556 155.196 92.4276 155.289 87.3812 152.429C85.2009 151.198 83.9554 149.618 83.6446 147.979V147.891L79.7 125.235L79.7025 125.238Z" fill="#161742"/>
<path d="M114.012 104.827C114.012 104.788 114.012 104.747 113.991 104.713L113.968 104.592C113.575 101.907 115.193 99.2097 118.683 97.0334C121.143 95.4923 134.004 95.3555 141.47 95.2729C145.895 95.2264 148.322 94.7514 147.996 97.4439V97.5652C147.996 97.6014 152.852 91.4238 152.852 91.4238C149.074 99.1245 146.488 107.359 145.186 115.845L143.478 127.235V127.294C143.198 128.936 141.989 130.544 139.837 131.827C134.854 134.788 126.726 134.881 121.677 132.021C119.502 130.789 118.257 129.209 117.941 127.57V127.482L114.012 104.827Z" fill="#161742"/>
<path d="M75.7295 112.314V112.2L75.75 112.079C76.0762 109.386 74.4094 106.725 70.8911 104.623C68.4 103.139 55.5337 103.281 48.1041 103.358C43.6792 103.405 41.2446 102.984 41.6247 105.671V105.901L46.7327 135.359V135.418C47.046 137.057 48.3044 138.637 50.4693 139.869C55.5131 142.724 63.6464 142.633 68.6286 139.672C70.7807 138.392 71.9903 136.786 72.2702 135.142V135.054L75.732 112.316L75.7295 112.314Z" fill="#161742"/>
<path d="M75.7295 112.314V112.2L75.75 112.079C76.0762 109.386 74.4094 106.725 70.8911 104.623C68.4 103.139 55.5337 103.281 48.1041 103.358C43.6792 103.405 41.2446 102.984 41.6247 105.671V105.901L46.7327 135.359V135.418C47.046 137.057 48.3044 138.637 50.4693 139.869C55.5131 142.724 63.6464 142.633 68.6286 139.672C70.7807 138.392 71.9903 136.786 72.2702 135.142V135.054L75.732 112.316L75.7295 112.314Z" fill="#161742"/>
<path d="M76.5465 27.4709C83.8272 24.2079 93.753 22.8578 102.266 22.7649C131.322 22.4499 155.134 45.8694 155.45 75.0792C155.658 94.5128 145.552 112.741 131.268 123.803C124.396 129.123 114.303 134.604 108.011 137.175C97.2816 141.55 90.5197 142.02 80.8045 142.126C51.7487 142.441 27.9395 119.022 27.6262 89.8144C27.4798 76.4061 32.4312 64.4795 40.3385 54.9356C43.6103 50.9859 48.8313 44.9297 52.9659 41.8603C61.0273 35.8815 68.4595 31.098 76.5465 27.4735V27.4709Z" fill="#161742"/>
<path d="M76.5465 27.4709C83.8272 24.2079 93.753 22.8578 102.266 22.7649C131.322 22.4499 155.134 45.8694 155.45 75.0792C155.658 94.5128 145.552 112.741 131.268 123.803C124.396 129.123 114.303 134.604 108.011 137.175C97.2816 141.55 90.5197 142.02 80.8045 142.126C51.7487 142.441 27.9395 119.022 27.6262 89.8144C27.4798 76.4061 32.4312 64.4795 40.3385 54.9356C43.6103 50.9859 48.8313 44.9297 52.9659 41.8603C61.0273 35.8815 68.4595 31.098 76.5465 27.4735V27.4709Z" fill="#1D478E" stroke="#161742" stroke-width="1.5" stroke-miterlimit="10"/>
<path d="M81.05 120.229C86.3589 120.229 90.6625 115.903 90.6625 110.567C90.6625 105.23 86.3589 100.904 81.05 100.904C75.7412 100.904 71.4375 105.23 71.4375 110.567C71.4375 115.903 75.7412 120.229 81.05 120.229Z" fill="#275DA9"/>
<path d="M34.6643 86.7655C34.6643 83.0688 32.5635 79.6948 29.2532 78.0762C28.3415 82.062 27.9024 86.1434 27.9486 90.2325C27.964 92.1118 28.0796 93.9886 28.2953 95.855C32.1116 94.4765 34.6591 90.8417 34.6643 86.763V86.7655Z" fill="#275DA9"/>
<path d="M122.96 113.152C143.079 96.4261 154.887 59.7661 138.395 37.041C148.891 46.8946 154.913 60.6438 155.052 75.0796C155.26 94.5132 145.154 112.741 130.87 123.803C123.998 129.123 113.905 134.604 107.613 137.175C96.8836 141.551 90.1217 142.021 80.4065 142.127C65.632 142.302 51.4688 136.21 41.394 125.347C41.2245 125.161 41.055 124.98 40.8906 124.794C70.6424 145.831 102.826 129.872 122.955 113.152H122.96Z" fill="#183F77"/>
<path d="M67.7974 46.5575L59.7232 51.3642C51.5745 49.0925 41.8747 50.6337 35.7779 61.2359C35.7779 61.2359 33.3922 36.5644 36.4534 29.7054C36.4534 29.7054 38.1278 28.7141 38.8109 28.3062C39.833 27.6892 41.4895 27.493 43.4746 27.8157C53.5083 29.4756 62.6534 37.7545 67.7974 46.5549V46.5575Z" fill="#2F6BC0" stroke="#161742" stroke-width="1.5" stroke-miterlimit="10"/>
<path d="M59.7243 51.3624C49.177 48.7603 41.1926 52.1524 35.779 61.2341C35.779 61.2341 26.1691 25.8416 41.2055 29.1589C51.3881 31.41 59.7243 51.3599 59.7243 51.3599V51.3624Z" fill="#161742"/>
<path d="M59.7243 51.1947C49.177 48.5487 41.1926 51.9976 35.779 61.2342C35.779 61.2342 26.1691 25.248 41.2055 28.6194C51.3881 30.9092 59.7243 51.1947 59.7243 51.1947Z" fill="#275DA9"/>
<path d="M44.4724 47.9902C54.2107 44.278 59.7425 51.3616 59.7425 51.3616C49.1952 48.7595 41.2109 52.1516 35.7972 61.2333C35.7767 61.2385 34.7135 51.6998 44.4724 47.9876V47.9902Z" fill="#161742"/>
<path d="M76.0762 60.6158C85.0646 68.6598 93.1697 78.9033 99.1919 94.3149L106.94 89.7456C109.827 86.7407 117.153 61.3516 102.407 52.0788C92.5456 45.8857 76.0762 60.6158 76.0762 60.6158Z" fill="#2F6BC0" stroke="#161742" stroke-width="1.5" stroke-miterlimit="10"/>
<path d="M75.8672 60.9587C86.4941 70.2831 94.0059 81.585 99.0292 94.446C99.0292 94.446 115.098 66.0133 100.21 53.6685C91.5148 46.4583 75.8672 60.9613 75.8672 60.9613V60.9587Z" fill="#275DA9"/>
<path d="M75.7715 60.6153C75.7715 60.6153 85.0142 60.5172 92.8367 71.042C100.148 80.8879 99.1209 94.5802 99.1209 94.5802C94.1079 81.6391 86.3958 70.0016 75.7715 60.6179V60.6153Z" fill="#161742"/>
<path d="M37.4034 87.6045C40.5467 85.7484 44.9973 86.0246 49.9744 88.8333C59.5715 94.2622 67.4376 107.105 67.5506 117.524C67.602 122.496 65.8762 126.01 63.0179 127.742C61.6388 128.576 56.2329 131.797 54.8384 132.611C51.695 134.436 47.265 134.159 42.311 131.356C32.7139 125.927 24.8324 113.084 24.7296 102.665C24.6783 97.6801 26.4041 94.1821 29.2547 92.4525C30.6363 91.6161 36.0243 88.4202 37.4034 87.607V87.6045Z" fill="#161742"/>
<path d="M29.2533 92.4499C30.635 91.6135 36.0229 88.4176 37.3943 87.6045C40.5377 85.7484 44.9883 86.0246 49.9653 88.8333C53.9639 91.0972 57.662 94.6494 60.6231 98.7772L29.1506 117.501C26.4489 112.686 24.7771 107.415 24.7257 102.665C24.6744 97.6801 26.4001 94.1821 29.2508 92.4525L29.2533 92.4499Z" fill="#2F6BC0"/>
<path d="M65.6885 108.195L35.5412 126.046C33.0476 123.49 30.9006 120.617 29.1543 117.501L60.6267 98.7773C62.7249 101.676 64.4301 104.844 65.6911 108.197L65.6885 108.195Z" fill="#275DA9"/>
<path d="M41.8978 93.6356C32.3033 88.2067 24.6117 92.2468 24.7299 102.663C24.848 113.08 32.7142 125.923 42.3061 131.354C51.9007 136.783 59.5922 132.74 59.4741 122.327C59.356 111.913 51.4949 99.0671 41.8978 93.6356Z" fill="#1D478E" stroke="#161742" stroke-width="1.5" stroke-miterlimit="10"/>
<path d="M48.2956 122.755C49.4744 123.419 50.4015 122.693 50.3861 121.131L50.2988 113.185C50.2988 111.626 49.3203 109.824 48.1492 109.161C46.9705 108.503 46.0434 109.228 46.0588 110.785L46.1461 118.733C46.1615 120.29 47.1246 122.089 48.2956 122.753V122.755Z" fill="#161742"/>
<path d="M50.2998 113.186L50.3871 121.132C50.3923 121.444 50.3486 121.756 50.2587 122.056C50.0969 122.012 49.9403 121.947 49.7939 121.862C48.6151 121.199 47.6598 119.402 47.6444 117.843L47.557 109.897C47.5519 109.584 47.5956 109.272 47.6855 108.973C47.8472 109.017 48.0013 109.081 48.1503 109.161C49.3214 109.825 50.2844 111.626 50.2998 113.186Z" fill="#161742"/>
<path d="M50.2998 113.186L50.3871 121.132C50.3923 121.444 50.3486 121.756 50.2587 122.056C50.0969 122.012 49.9403 121.947 49.7939 121.862C48.6151 121.199 47.6598 119.402 47.6444 117.843L47.557 109.897C47.5519 109.584 47.5956 109.272 47.6855 108.973C47.8472 109.017 48.0013 109.081 48.1503 109.161C49.3214 109.825 50.2844 111.626 50.2998 113.186Z" fill="#161742"/>
<path d="M36.0484 115.821C37.2272 116.485 38.1543 115.759 38.1389 114.197L38.0516 106.252C38.0516 104.692 37.0731 102.896 35.9021 102.232C34.7233 101.569 33.7962 102.294 33.8167 103.856L33.8989 111.802C33.9195 113.361 34.8799 115.163 36.0484 115.821Z" fill="#161742"/>
<path d="M38.0524 106.252L38.1397 114.198C38.1474 114.51 38.1038 114.823 38.0113 115.122C37.8521 115.078 37.6955 115.014 37.5516 114.934C36.3729 114.27 35.4175 112.468 35.4021 110.909L35.3148 102.963C35.302 102.646 35.343 102.328 35.4355 102.023C35.5973 102.067 35.7514 102.132 35.8952 102.217C37.074 102.896 38.037 104.693 38.0524 106.252Z" fill="#161742"/>
<path d="M38.0524 106.252L38.1397 114.198C38.1474 114.51 38.1038 114.823 38.0113 115.122C37.8521 115.078 37.6955 115.014 37.5516 114.934C36.3729 114.27 35.4175 112.468 35.4021 110.909L35.3148 102.963C35.302 102.646 35.343 102.328 35.4355 102.023C35.5973 102.067 35.7514 102.132 35.8952 102.217C37.074 102.896 38.037 104.693 38.0524 106.252Z" fill="#161742"/>
<path d="M54.8743 128.416C59.0373 122.473 56.1866 110.146 51.4202 102.709C55.4573 108.362 58.0896 115.123 58.1538 121.079C58.2591 131.255 50.8192 135.208 41.5277 129.903C38.3458 128.013 35.5132 125.576 33.1582 122.7C39.0623 129.709 50.4314 134.764 54.8769 128.416H54.8743Z" fill="#275DA9"/>
<path d="M68.1637 90.2591C68.0327 90.6695 67.9634 91.111 67.9737 91.5782C67.9968 92.9 68.9213 94.0926 70.0872 94.707C75.6858 97.668 78.2873 89.0897 72.9584 87.6698C70.8705 87.1148 68.7955 88.3049 68.1663 90.2591H68.1637Z" fill="#161742"/>
<path d="M43.9705 74.2828C41.4152 72.6177 37.5168 74.7603 37.658 77.9072C37.7839 80.7185 41.934 82.8301 44.1862 81.0644C46.6054 79.1696 46.4385 75.8885 43.9705 74.2802V74.2828Z" fill="#161742"/>
<path d="M81.8521 47.5398L100.014 36.731L95.9281 34.418L77.7637 45.2268L81.8521 47.5398Z" fill="#161742"/>
<path d="M81.8521 47.5398L100.014 36.731L95.9281 34.418L77.7637 45.2268L81.8521 47.5398Z" fill="#161742"/>
<path d="M95.9281 34.418L95.9512 36.7749L79.8105 46.3833L77.7637 45.2268L95.9281 34.418Z" fill="#275DA9"/>
<path d="M95.9316 34.418L95.9548 36.7749L98.0041 37.9366L100.018 36.731L95.9316 34.418Z" fill="#161742"/>
<path opacity="0.39" d="M154.834 169.487C165.51 169.487 174.165 164.462 174.165 158.265C174.165 152.067 165.51 147.043 154.834 147.043C144.158 147.043 135.504 152.067 135.504 158.265C135.504 164.462 144.158 169.487 154.834 169.487Z" fill="#FFD325"/>
<path d="M171.875 151.68H134.971V156.548H171.875V151.68Z" fill="#E4AD43"/>
<path d="M153.423 166.098C143.232 166.098 134.971 161.823 134.971 156.549C134.971 151.275 143.232 147.707 153.423 147.707C163.613 147.707 171.875 151.275 171.875 156.549C171.875 161.823 163.613 166.098 153.423 166.098Z" fill="#AF8E2F"/>
<path d="M153.423 161.571C143.232 161.571 134.971 157.302 134.971 152.033C134.971 146.764 143.232 142.494 153.423 142.494C163.613 142.494 171.875 146.764 171.875 152.033C171.875 157.302 163.613 161.571 153.423 161.571Z" fill="#C29A43"/>
<path d="M144.602 149.506C146.354 150.314 148.144 151.214 149.985 151.731C156.549 153.571 163.792 151.824 168.833 146.787C165.533 144.203 159.865 142.494 153.424 142.494C147.258 142.494 141.801 144.059 138.449 146.462C140.473 147.546 142.53 148.55 144.602 149.506Z" fill="#D7AE4D"/>
<path d="M153.42 159.17C145.777 159.17 139.58 156.078 139.58 152.265C139.58 148.452 145.777 145.359 153.42 145.359C161.062 145.359 167.259 148.452 167.259 152.265C167.259 156.078 161.062 159.17 153.42 159.17Z" fill="#AF8E2F"/>
<path d="M147.491 148.339V150.714C148.053 150.28 148.859 149.944 149.987 149.813V148.153L151.209 148.062V149.753C153.705 149.823 155.295 151.145 155.393 153.326C157.375 152.015 159.869 150.458 162.388 148.78V150.641C160.09 152.131 157.961 153.414 155.513 154.937L153.996 154.836V153.925C153.996 152.134 152.894 151.181 151.207 151.083V154.651L149.984 154.568V151.14C148.567 151.359 147.855 152.131 147.855 153.396V154.426L146.266 154.32V148.432L147.488 148.341L147.491 148.339Z" fill="#DEA041"/>
<path d="M147.18 148.563V150.922C147.743 150.494 148.549 150.166 149.676 150.039V148.39L150.899 148.305V149.983C153.395 150.063 154.985 151.384 155.082 153.553C157.065 152.257 159.558 150.724 162.078 149.066V150.92C159.779 152.389 157.65 153.656 155.203 155.156L153.685 155.048V154.141C153.685 152.363 152.583 151.41 150.896 151.304V154.849L149.674 154.761V151.356C148.256 151.568 147.545 152.332 147.545 153.584V154.609L145.955 154.495V148.651L147.178 148.565L147.18 148.563Z" fill="#FFD325"/>
<path d="M168.789 145.361H131.885V150.23H168.789V145.361Z" fill="#E4AD43"/>
<path d="M150.337 159.779C140.146 159.779 131.885 155.504 131.885 150.23C131.885 144.956 140.146 141.389 150.337 141.389C160.527 141.389 168.789 144.956 168.789 150.23C168.789 155.504 160.527 159.779 150.337 159.779Z" fill="#AF8E2F"/>
<path d="M150.337 155.253C140.146 155.253 131.885 150.983 131.885 145.714C131.885 140.446 140.146 136.176 150.337 136.176C160.527 136.176 168.789 140.446 168.789 145.714C168.789 150.983 160.527 155.253 150.337 155.253Z" fill="#C29A43"/>
<path d="M141.517 143.187C143.268 143.995 145.058 144.896 146.899 145.412C153.463 147.253 160.706 145.505 165.747 140.469C162.447 137.885 156.779 136.176 150.338 136.176C144.172 136.176 138.715 137.74 135.363 140.144C137.387 141.228 139.444 142.232 141.517 143.187Z" fill="#D7AE4D"/>
<path d="M150.334 152.852C142.691 152.852 136.494 149.759 136.494 145.947C136.494 142.134 142.691 139.041 150.334 139.041C157.977 139.041 164.173 142.134 164.173 145.947C164.173 149.759 157.977 152.852 150.334 152.852Z" fill="#AF8E2F"/>
<path d="M144.405 142.02V144.395C144.967 143.962 145.773 143.626 146.901 143.494V141.835L148.123 141.744V143.435C150.62 143.505 152.209 144.826 152.307 147.008C154.289 145.696 156.783 144.14 159.302 142.462V144.323C157.004 145.813 154.875 147.096 152.428 148.619L150.91 148.518V147.607C150.91 145.815 149.808 144.863 148.121 144.765V148.332L146.898 148.25V144.821C145.481 145.041 144.769 145.813 144.769 147.078V148.108L143.18 148.002V142.113L144.402 142.023L144.405 142.02Z" fill="#DEA041"/>
<path d="M144.094 142.244V144.604C144.657 144.175 145.463 143.848 146.59 143.721V142.072L147.813 141.986V143.664C150.309 143.744 151.899 145.066 151.996 147.235C153.979 145.939 156.473 144.405 158.992 142.748V144.601C156.693 146.07 154.564 147.338 152.117 148.838L150.599 148.729V147.823C150.599 146.044 149.497 145.092 147.81 144.986V148.53L146.588 148.443V145.038C145.17 145.249 144.459 146.013 144.459 147.266V148.29L142.869 148.177V142.332L144.092 142.247L144.094 142.244Z" fill="#FFD325"/>
<path d="M171.847 138.779H134.943V143.648H171.847V138.779Z" fill="#E4AD43"/>
<path d="M153.395 153.193C143.205 153.193 134.943 148.918 134.943 143.644C134.943 138.37 143.205 134.803 153.395 134.803C163.586 134.803 171.847 138.37 171.847 143.644C171.847 148.918 163.586 153.193 153.395 153.193Z" fill="#AF8E2F"/>
<path d="M153.395 148.671C143.205 148.671 134.943 144.401 134.943 139.132C134.943 133.864 143.205 129.594 153.395 129.594C163.586 129.594 171.847 133.864 171.847 139.132C171.847 144.401 163.586 148.671 153.395 148.671Z" fill="#C29A43"/>
<path d="M144.575 136.605C146.327 137.413 148.117 138.314 149.958 138.83C156.522 140.671 163.764 138.923 168.805 133.887C165.505 131.303 159.838 129.594 153.397 129.594C147.231 129.594 141.773 131.158 138.422 133.562C140.446 134.646 142.503 135.65 144.575 136.605Z" fill="#D7AE4D"/>
<path d="M153.392 146.27C145.75 146.27 139.553 143.177 139.553 139.365C139.553 135.552 145.75 132.459 153.392 132.459C161.035 132.459 167.232 135.552 167.232 139.365C167.232 143.177 161.035 146.27 153.392 146.27Z" fill="#AF8E2F"/>
<path d="M147.463 135.438V137.813C148.026 137.38 148.832 137.044 149.96 136.912V135.252L151.182 135.162V136.853C153.678 136.923 155.268 138.244 155.365 140.426C157.348 139.114 159.842 137.558 162.361 135.88V137.741C160.063 139.231 157.934 140.514 155.486 142.037L153.968 141.936V141.025C153.968 139.233 152.867 138.281 151.179 138.182V141.75L149.957 141.668V138.239C148.539 138.459 147.828 139.231 147.828 140.496V141.526L146.238 141.42V135.531L147.461 135.441L147.463 135.438Z" fill="#DEA041"/>
<path d="M147.153 135.662V138.022C147.715 137.593 148.522 137.266 149.649 137.139V135.489L150.871 135.404V137.082C153.368 137.162 154.957 138.484 155.055 140.653C157.037 139.357 159.531 137.823 162.05 136.166V138.019C159.752 139.488 157.623 140.756 155.176 142.256L153.658 142.147V141.241C153.658 139.462 152.556 138.51 150.869 138.404V141.948L149.646 141.861V138.456C148.229 138.667 147.517 139.431 147.517 140.683V141.708L145.928 141.595V135.75L147.15 135.665L147.153 135.662Z" fill="#FFD325"/>
</svg>
