<svg width="299" height="269" viewBox="0 0 299 269" fill="none" xmlns="http://www.w3.org/2000/svg">
<g clip-path="url(#clip0_1_1955)">
<g opacity="0.88">
<g opacity="0.54">
<path d="M249.542 54.4838C250.012 54.4838 250.394 54.102 250.394 53.6309C250.394 53.1599 250.012 52.7781 249.542 52.7781C249.071 52.7781 248.69 53.1599 248.69 53.6309C248.69 54.102 249.071 54.4838 249.542 54.4838Z" fill="#161742"/>
<path d="M225.654 92.6635C226.07 92.6635 226.407 92.3261 226.407 91.9099C226.407 91.4937 226.07 91.1562 225.654 91.1562C225.238 91.1562 224.901 91.4937 224.901 91.9099C224.901 92.3261 225.238 92.6635 225.654 92.6635Z" fill="#161742"/>
<path d="M265.975 79.0684C266.45 79.0684 266.835 78.6832 266.835 78.2081C266.835 77.733 266.45 77.3479 265.975 77.3479C265.501 77.3479 265.116 77.733 265.116 78.2081C265.116 78.6832 265.501 79.0684 265.975 79.0684Z" fill="#161742"/>
<path d="M247.309 87.9039C247.753 87.9039 248.113 87.5434 248.113 87.0988C248.113 86.6541 247.753 86.2937 247.309 86.2937C246.865 86.2937 246.505 86.6541 246.505 87.0988C246.505 87.5434 246.865 87.9039 247.309 87.9039Z" fill="#161742"/>
<path d="M226.686 56.7701C227.256 56.7701 227.718 56.3076 227.718 55.7371C227.718 55.1666 227.256 54.7041 226.686 54.7041C226.116 54.7041 225.654 55.1666 225.654 55.7371C225.654 56.3076 226.116 56.7701 226.686 56.7701Z" fill="#161742"/>
<path d="M233.986 20.7882C234.469 20.7882 234.86 20.3965 234.86 19.9133C234.86 19.43 234.469 19.0383 233.986 19.0383C233.504 19.0383 233.112 19.43 233.112 19.9133C233.112 20.3965 233.504 20.7882 233.986 20.7882Z" fill="#161742"/>
<path d="M222.845 35.2469C223.167 35.2469 223.429 34.9852 223.429 34.6624C223.429 34.3396 223.167 34.0779 222.845 34.0779C222.522 34.0779 222.261 34.3396 222.261 34.6624C222.261 34.9852 222.522 35.2469 222.845 35.2469Z" fill="#161742"/>
<path d="M234.978 87.9002C235.525 87.9002 235.969 87.4558 235.969 86.9076C235.969 86.3594 235.525 85.915 234.978 85.915C234.43 85.915 233.986 86.3594 233.986 86.9076C233.986 87.4558 234.43 87.9002 234.978 87.9002Z" fill="#161742"/>
<path d="M219.727 78.2708C220.205 78.2708 220.593 77.8824 220.593 77.4032C220.593 76.9241 220.205 76.5356 219.727 76.5356C219.248 76.5356 218.86 76.9241 218.86 77.4032C218.86 77.8824 219.248 78.2708 219.727 78.2708Z" fill="#161742"/>
</g>
<g opacity="0.54">
<path d="M190.44 54.4838C190.911 54.4838 191.292 54.102 191.292 53.6309C191.292 53.1599 190.911 52.7781 190.44 52.7781C189.97 52.7781 189.588 53.1599 189.588 53.6309C189.588 54.102 189.97 54.4838 190.44 54.4838Z" fill="#161742"/>
<path d="M217.964 55.7005C218.514 55.7005 218.959 55.2545 218.959 54.7042C218.959 54.154 218.514 53.708 217.964 53.708C217.414 53.708 216.969 54.154 216.969 54.7042C216.969 55.2545 217.414 55.7005 217.964 55.7005Z" fill="#161742"/>
<path d="M166.556 92.6635C166.972 92.6635 167.309 92.3261 167.309 91.9099C167.309 91.4937 166.972 91.1562 166.556 91.1562C166.14 91.1562 165.803 91.4937 165.803 91.9099C165.803 92.3261 166.14 92.6635 166.556 92.6635Z" fill="#161742"/>
<path d="M206.874 79.0684C207.348 79.0684 207.733 78.6832 207.733 78.2081C207.733 77.733 207.348 77.3479 206.874 77.3479C206.399 77.3479 206.014 77.733 206.014 78.2081C206.014 78.6832 206.399 79.0684 206.874 79.0684Z" fill="#161742"/>
<path d="M188.211 87.9039C188.655 87.9039 189.015 87.5434 189.015 87.0988C189.015 86.6541 188.655 86.2937 188.211 86.2937C187.767 86.2937 187.407 86.6541 187.407 87.0988C187.407 87.5434 187.767 87.9039 188.211 87.9039Z" fill="#161742"/>
<path d="M167.584 56.7701C168.154 56.7701 168.616 56.3076 168.616 55.7371C168.616 55.1666 168.154 54.7041 167.584 54.7041C167.014 54.7041 166.552 55.1666 166.552 55.7371C166.552 56.3076 167.014 56.7701 167.584 56.7701Z" fill="#161742"/>
<path d="M178.924 49.1769C179.603 49.1769 180.154 48.6255 180.154 47.9454C180.154 47.2652 179.603 46.7139 178.924 46.7139C178.245 46.7139 177.694 47.2652 177.694 47.9454C177.694 48.6255 178.245 49.1769 178.924 49.1769Z" fill="#161742"/>
<path d="M209.701 62.7644C210.068 62.7644 210.366 62.4665 210.366 62.099C210.366 61.7315 210.068 61.4336 209.701 61.4336C209.334 61.4336 209.037 61.7315 209.037 62.099C209.037 62.4665 209.334 62.7644 209.701 62.7644Z" fill="#161742"/>
<path d="M174.885 20.7882C175.367 20.7882 175.759 20.3965 175.759 19.9133C175.759 19.43 175.367 19.0383 174.885 19.0383C174.402 19.0383 174.011 19.43 174.011 19.9133C174.011 20.3965 174.402 20.7882 174.885 20.7882Z" fill="#161742"/>
<path d="M195.2 24.2796C195.573 24.2796 195.875 23.9767 195.875 23.6032C195.875 23.2296 195.573 22.9268 195.2 22.9268C194.826 22.9268 194.524 23.2296 194.524 23.6032C194.524 23.9767 194.826 24.2796 195.2 24.2796Z" fill="#161742"/>
<path d="M163.743 35.2469C164.066 35.2469 164.327 34.9852 164.327 34.6624C164.327 34.3396 164.066 34.0779 163.743 34.0779C163.421 34.0779 163.159 34.3396 163.159 34.6624C163.159 34.9852 163.421 35.2469 163.743 35.2469Z" fill="#161742"/>
<path d="M199.305 83.4054C199.875 83.4054 200.337 82.9429 200.337 82.3724C200.337 81.8018 199.875 81.3394 199.305 81.3394C198.735 81.3394 198.273 81.8018 198.273 82.3724C198.273 82.9429 198.735 83.4054 199.305 83.4054Z" fill="#161742"/>
<path d="M175.876 87.9002C176.424 87.9002 176.868 87.4558 176.868 86.9076C176.868 86.3594 176.424 85.915 175.876 85.915C175.328 85.915 174.885 86.3594 174.885 86.9076C174.885 87.4558 175.328 87.9002 175.876 87.9002Z" fill="#161742"/>
<path d="M160.625 78.2708C161.104 78.2708 161.492 77.8824 161.492 77.4032C161.492 76.9241 161.104 76.5356 160.625 76.5356C160.147 76.5356 159.759 76.9241 159.759 77.4032C159.759 77.8824 160.147 78.2708 160.625 78.2708Z" fill="#161742"/>
</g>
<g opacity="0.54">
<path d="M12.695 152.852C13.5549 152.852 14.252 152.154 14.252 151.293C14.252 150.432 13.5549 149.734 12.695 149.734C11.8351 149.734 11.1379 150.432 11.1379 151.293C11.1379 152.154 11.8351 152.852 12.695 152.852Z" fill="#161742"/>
<path d="M30.6818 130.851C31.1523 130.851 31.5338 130.469 31.5338 129.998C31.5338 129.527 31.1523 129.145 30.6818 129.145C30.2113 129.145 29.8298 129.527 29.8298 129.998C29.8298 130.469 30.2113 130.851 30.6818 130.851Z" fill="#161742"/>
<path d="M34.7654 140.484C35.5098 140.484 36.1132 139.88 36.1132 139.135C36.1132 138.39 35.5098 137.786 34.7654 137.786C34.0211 137.786 33.4177 138.39 33.4177 139.135C33.4177 139.88 34.0211 140.484 34.7654 140.484Z" fill="#161742"/>
<path d="M73.6143 147.75C74.164 147.75 74.6095 147.304 74.6095 146.754C74.6095 146.203 74.164 145.757 73.6143 145.757C73.0647 145.757 72.6191 146.203 72.6191 146.754C72.6191 147.304 73.0647 147.75 73.6143 147.75Z" fill="#161742"/>
<path d="M50.0162 151.01C50.432 151.01 50.7691 150.673 50.7691 150.256C50.7691 149.84 50.432 149.503 50.0162 149.503C49.6005 149.503 49.2634 149.84 49.2634 150.256C49.2634 150.673 49.6005 151.01 50.0162 151.01Z" fill="#161742"/>
<path d="M27.8247 157.372C28.2689 157.372 28.629 157.011 28.629 156.567C28.629 156.122 28.2689 155.762 27.8247 155.762C27.3806 155.762 27.0205 156.122 27.0205 156.567C27.0205 157.011 27.3806 157.372 27.8247 157.372Z" fill="#161742"/>
<path d="M7.82561 133.14C8.39552 133.14 8.85752 132.678 8.85752 132.107C8.85752 131.537 8.39552 131.074 7.82561 131.074C7.2557 131.074 6.7937 131.537 6.7937 132.107C6.7937 132.678 7.2557 133.14 7.82561 133.14Z" fill="#161742"/>
<path d="M19.1655 125.547C19.8449 125.547 20.3957 124.996 20.3957 124.316C20.3957 123.636 19.8449 123.084 19.1655 123.084C18.4861 123.084 17.9353 123.636 17.9353 124.316C17.9353 124.996 18.4861 125.547 19.1655 125.547Z" fill="#161742"/>
<path d="M44.6732 155.306C45.0403 155.306 45.3379 155.008 45.3379 154.641C45.3379 154.273 45.0403 153.976 44.6732 153.976C44.3061 153.976 44.0085 154.273 44.0085 154.641C44.0085 155.008 44.3061 155.306 44.6732 155.306Z" fill="#161742"/>
<path d="M15.1262 97.1586C15.6089 97.1586 16.0002 96.7668 16.0002 96.2836C16.0002 95.8004 15.6089 95.4087 15.1262 95.4087C14.6435 95.4087 14.2522 95.8004 14.2522 96.2836C14.2522 96.7668 14.6435 97.1586 15.1262 97.1586Z" fill="#161742"/>
<path d="M35.4411 100.646C35.8143 100.646 36.1168 100.343 36.1168 99.9699C36.1168 99.5963 35.8143 99.2935 35.4411 99.2935C35.0679 99.2935 34.7654 99.5963 34.7654 99.9699C34.7654 100.343 35.0679 100.646 35.4411 100.646Z" fill="#161742"/>
<path d="M43.274 112.79C43.921 112.79 44.4454 112.265 44.4454 111.617C44.4454 110.97 43.921 110.445 43.274 110.445C42.627 110.445 42.1025 110.97 42.1025 111.617C42.1025 112.265 42.627 112.79 43.274 112.79Z" fill="#161742"/>
<path d="M3.98453 111.617C4.307 111.617 4.56842 111.356 4.56842 111.033C4.56842 110.71 4.307 110.448 3.98453 110.448C3.66205 110.448 3.40063 110.71 3.40063 111.033C3.40063 111.356 3.66205 111.617 3.98453 111.617Z" fill="#161742"/>
<path d="M59.3365 146.247C59.8841 146.247 60.328 145.802 60.328 145.254C60.328 144.706 59.8841 144.261 59.3365 144.261C58.7889 144.261 58.345 144.706 58.345 145.254C58.345 145.802 58.7889 146.247 59.3365 146.247Z" fill="#161742"/>
<path d="M0.866656 154.641C1.3453 154.641 1.73331 154.253 1.73331 153.774C1.73331 153.294 1.3453 152.906 0.866656 152.906C0.388015 152.906 0 153.294 0 153.774C0 154.253 0.388015 154.641 0.866656 154.641Z" fill="#161742"/>
</g>
<g opacity="0.54">
<path d="M266.199 136.646C266.67 136.646 267.051 136.289 267.051 135.849C267.051 135.408 266.67 135.051 266.199 135.051C265.729 135.051 265.347 135.408 265.347 135.849C265.347 136.289 265.729 136.646 266.199 136.646Z" fill="#161742"/>
<path d="M298.001 124.139C298.551 124.139 298.996 123.721 298.996 123.205C298.996 122.69 298.551 122.272 298.001 122.272C297.452 122.272 297.006 122.69 297.006 123.205C297.006 123.721 297.452 124.139 298.001 124.139Z" fill="#161742"/>
<path d="M242.311 172.367C242.727 172.367 243.064 172.051 243.064 171.661C243.064 171.272 242.727 170.956 242.311 170.956C241.895 170.956 241.558 171.272 241.558 171.661C241.558 172.051 241.895 172.367 242.311 172.367Z" fill="#161742"/>
<path d="M266.199 153.583C266.674 153.583 267.059 153.222 267.059 152.777C267.059 152.333 266.674 151.972 266.199 151.972C265.725 151.972 265.34 152.333 265.34 152.777C265.34 153.222 265.725 153.583 266.199 153.583Z" fill="#161742"/>
<path d="M263.967 167.913C264.411 167.913 264.771 167.575 264.771 167.159C264.771 166.743 264.411 166.406 263.967 166.406C263.522 166.406 263.162 166.743 263.162 167.159C263.162 167.575 263.522 167.913 263.967 167.913Z" fill="#161742"/>
<path d="M243.343 138.786C243.913 138.786 244.375 138.353 244.375 137.819C244.375 137.285 243.913 136.852 243.343 136.852C242.773 136.852 242.311 137.285 242.311 137.819C242.311 138.353 242.773 138.786 243.343 138.786Z" fill="#161742"/>
<path d="M285.461 144.394C285.828 144.394 286.125 144.116 286.125 143.773C286.125 143.43 285.828 143.152 285.461 143.152C285.093 143.152 284.796 143.43 284.796 143.773C284.796 144.116 285.093 144.394 285.461 144.394Z" fill="#161742"/>
<path d="M250.64 105.119C251.123 105.119 251.514 104.754 251.514 104.303C251.514 103.852 251.123 103.487 250.64 103.487C250.157 103.487 249.766 103.852 249.766 104.303C249.766 104.754 250.157 105.119 250.64 105.119Z" fill="#161742"/>
<path d="M270.959 108.387C271.332 108.387 271.634 108.104 271.634 107.754C271.634 107.405 271.332 107.122 270.959 107.122C270.585 107.122 270.283 107.405 270.283 107.754C270.283 108.104 270.585 108.387 270.959 108.387Z" fill="#161742"/>
<path d="M287.73 105.399C288.377 105.399 288.901 104.908 288.901 104.303C288.901 103.698 288.377 103.208 287.73 103.208C287.083 103.208 286.558 103.698 286.558 104.303C286.558 104.908 287.083 105.399 287.73 105.399Z" fill="#161742"/>
<path d="M239.498 118.648C239.821 118.648 240.082 118.403 240.082 118.1C240.082 117.798 239.821 117.553 239.498 117.553C239.176 117.553 238.914 117.798 238.914 118.1C238.914 118.403 239.176 118.648 239.498 118.648Z" fill="#161742"/>
<path d="M275.064 163.705C275.634 163.705 276.096 163.272 276.096 162.738C276.096 162.204 275.634 161.771 275.064 161.771C274.494 161.771 274.032 162.204 274.032 162.738C274.032 163.272 274.494 163.705 275.064 163.705Z" fill="#161742"/>
<path d="M251.631 167.913C252.179 167.913 252.623 167.496 252.623 166.983C252.623 166.469 252.179 166.053 251.631 166.053C251.084 166.053 250.64 166.469 250.64 166.983C250.64 167.496 251.084 167.913 251.631 167.913Z" fill="#161742"/>
<path d="M236.384 158.901C236.863 158.901 237.251 158.537 237.251 158.088C237.251 157.64 236.863 157.276 236.384 157.276C235.906 157.276 235.518 157.64 235.518 158.088C235.518 158.537 235.906 158.901 236.384 158.901Z" fill="#161742"/>
</g>
<g opacity="0.54">
<path d="M83.1845 173.558C83.655 173.558 84.0365 173.176 84.0365 172.705C84.0365 172.234 83.655 171.852 83.1845 171.852C82.714 171.852 82.3325 172.234 82.3325 172.705C82.3325 173.176 82.714 173.558 83.1845 173.558Z" fill="#161742"/>
<path d="M83.1843 191.663C83.6589 191.663 84.0436 191.278 84.0436 190.803C84.0436 190.328 83.6589 189.942 83.1843 189.942C82.7097 189.942 82.325 190.328 82.325 190.803C82.325 191.278 82.7097 191.663 83.1843 191.663Z" fill="#161742"/>
<path d="M80.9517 206.982C81.3959 206.982 81.7559 206.621 81.7559 206.177C81.7559 205.732 81.3959 205.372 80.9517 205.372C80.5075 205.372 80.1475 205.732 80.1475 206.177C80.1475 206.621 80.5075 206.982 80.9517 206.982Z" fill="#161742"/>
<path d="M102.445 181.842C102.813 181.842 103.11 181.544 103.11 181.177C103.11 180.809 102.813 180.511 102.445 180.511C102.078 180.511 101.781 180.809 101.781 181.177C101.781 181.544 102.078 181.842 102.445 181.842Z" fill="#161742"/>
<path d="M67.625 139.866C68.1077 139.866 68.499 139.474 68.499 138.991C68.499 138.508 68.1077 138.116 67.625 138.116C67.1423 138.116 66.751 138.508 66.751 138.991C66.751 139.474 67.1423 139.866 67.625 139.866Z" fill="#161742"/>
<path d="M87.9435 143.354C88.3167 143.354 88.6192 143.051 88.6192 142.677C88.6192 142.304 88.3167 142.001 87.9435 142.001C87.5703 142.001 87.2678 142.304 87.2678 142.677C87.2678 143.051 87.5703 143.354 87.9435 143.354Z" fill="#161742"/>
<path d="M92.0492 202.483C92.6191 202.483 93.0811 202.021 93.0811 201.45C93.0811 200.88 92.6191 200.417 92.0492 200.417C91.4793 200.417 91.0173 200.88 91.0173 201.45C91.0173 202.021 91.4793 202.483 92.0492 202.483Z" fill="#161742"/>
<path d="M1.89498 226.038C2.37362 226.038 2.76163 225.65 2.76163 225.171C2.76163 224.692 2.37362 224.303 1.89498 224.303C1.41634 224.303 1.02832 224.692 1.02832 225.171C1.02832 225.65 1.41634 226.038 1.89498 226.038Z" fill="#161742"/>
</g>
<g opacity="0.54">
<path d="M113.422 15.8007C113.892 15.8007 114.274 15.4189 114.274 14.9478C114.274 14.4768 113.892 14.095 113.422 14.095C112.951 14.095 112.57 14.4768 112.57 14.9478C112.57 15.4189 112.951 15.8007 113.422 15.8007Z" fill="#161742"/>
<path d="M95.2479 31.5718C95.7975 31.5718 96.2431 31.1258 96.2431 30.5756C96.2431 30.0254 95.7975 29.5793 95.2479 29.5793C94.6982 29.5793 94.2527 30.0254 94.2527 30.5756C94.2527 31.1258 94.6982 31.5718 95.2479 31.5718Z" fill="#161742"/>
<path d="M113.422 33.9055C113.896 33.9055 114.281 33.5204 114.281 33.0453C114.281 32.5702 113.896 32.1851 113.422 32.1851C112.947 32.1851 112.562 32.5702 112.562 33.0453C112.562 33.5204 112.947 33.9055 113.422 33.9055Z" fill="#161742"/>
<path d="M122.173 56.0018C122.743 56.0018 123.205 55.5393 123.205 54.9688C123.205 54.3983 122.743 53.9358 122.173 53.9358C121.603 53.9358 121.141 54.3983 121.141 54.9688C121.141 55.5393 121.603 56.0018 122.173 56.0018Z" fill="#161742"/>
<path d="M100.352 12.8016C100.835 12.8016 101.226 12.4099 101.226 11.9267C101.226 11.4435 100.835 11.0518 100.352 11.0518C99.8696 11.0518 99.4783 11.4435 99.4783 11.9267C99.4783 12.4099 99.8696 12.8016 100.352 12.8016Z" fill="#161742"/>
<path d="M118.857 1.35283C119.23 1.35283 119.533 1.04999 119.533 0.676416C119.533 0.302842 119.23 0 118.857 0C118.484 0 118.181 0.302842 118.181 0.676416C118.181 1.04999 118.484 1.35283 118.857 1.35283Z" fill="#161742"/>
<path d="M76.8754 38.191C77.1979 38.191 77.4593 37.9293 77.4593 37.6065C77.4593 37.2837 77.1979 37.022 76.8754 37.022C76.5529 37.022 76.2915 37.2837 76.2915 37.6065C76.2915 37.9293 76.5529 38.191 76.8754 38.191Z" fill="#161742"/>
<path d="M99.4782 51.8045C99.9569 51.8045 100.345 51.4161 100.345 50.9369C100.345 50.4578 99.9569 50.0693 99.4782 50.0693C98.9996 50.0693 98.6116 50.4578 98.6116 50.9369C98.6116 51.4161 98.9996 51.8045 99.4782 51.8045Z" fill="#161742"/>
</g>
<g opacity="0.54">
<path d="M210.204 126.168C210.675 126.168 211.056 125.786 211.056 125.315C211.056 124.844 210.675 124.462 210.204 124.462C209.734 124.462 209.353 124.844 209.353 125.315C209.353 125.786 209.734 126.168 210.204 126.168Z" fill="#161742"/>
<path d="M237.728 127.385C238.278 127.385 238.723 126.939 238.723 126.388C238.723 125.838 238.278 125.392 237.728 125.392C237.178 125.392 236.733 125.838 236.733 126.388C236.733 126.939 237.178 127.385 237.728 127.385Z" fill="#161742"/>
<path d="M186.316 164.348C186.732 164.348 187.069 164.01 187.069 163.594C187.069 163.178 186.732 162.84 186.316 162.84C185.901 162.84 185.563 163.178 185.563 163.594C185.563 164.01 185.901 164.348 186.316 164.348Z" fill="#161742"/>
<path d="M226.638 150.752C227.112 150.752 227.497 150.367 227.497 149.892C227.497 149.417 227.112 149.032 226.638 149.032C226.163 149.032 225.779 149.417 225.779 149.892C225.779 150.367 226.163 150.752 226.638 150.752Z" fill="#161742"/>
<path d="M207.972 159.588C208.416 159.588 208.776 159.227 208.776 158.783C208.776 158.338 208.416 157.978 207.972 157.978C207.528 157.978 207.167 158.338 207.167 158.783C207.167 159.227 207.528 159.588 207.972 159.588Z" fill="#161742"/>
<path d="M187.348 128.454C187.918 128.454 188.38 127.992 188.38 127.421C188.38 126.851 187.918 126.388 187.348 126.388C186.778 126.388 186.316 126.851 186.316 127.421C186.316 127.992 186.778 128.454 187.348 128.454Z" fill="#161742"/>
<path d="M198.688 120.861C199.368 120.861 199.918 120.31 199.918 119.629C199.918 118.949 199.368 118.398 198.688 118.398C198.009 118.398 197.458 118.949 197.458 119.629C197.458 120.31 198.009 120.861 198.688 120.861Z" fill="#161742"/>
<path d="M229.466 134.448C229.833 134.448 230.13 134.151 230.13 133.783C230.13 133.416 229.833 133.118 229.466 133.118C229.099 133.118 228.801 133.416 228.801 133.783C228.801 134.151 229.099 134.448 229.466 134.448Z" fill="#161742"/>
<path d="M194.645 92.4723C195.128 92.4723 195.519 92.0806 195.519 91.5973C195.519 91.1141 195.128 90.7224 194.645 90.7224C194.162 90.7224 193.771 91.1141 193.771 91.5973C193.771 92.0806 194.162 92.4723 194.645 92.4723Z" fill="#161742"/>
<path d="M214.964 95.9637C215.337 95.9637 215.639 95.6608 215.639 95.2873C215.639 94.9137 215.337 94.6108 214.964 94.6108C214.591 94.6108 214.288 94.9137 214.288 95.2873C214.288 95.6608 214.591 95.9637 214.964 95.9637Z" fill="#161742"/>
<path d="M183.503 106.931C183.826 106.931 184.087 106.669 184.087 106.346C184.087 106.024 183.826 105.762 183.503 105.762C183.181 105.762 182.919 106.024 182.919 106.346C182.919 106.669 183.181 106.931 183.503 106.931Z" fill="#161742"/>
<path d="M219.07 155.089C219.639 155.089 220.101 154.627 220.101 154.056C220.101 153.486 219.639 153.023 219.07 153.023C218.5 153.023 218.038 153.486 218.038 154.056C218.038 154.627 218.5 155.089 219.07 155.089Z" fill="#161742"/>
<path d="M195.64 159.584C196.188 159.584 196.632 159.14 196.632 158.592C196.632 158.044 196.188 157.599 195.64 157.599C195.093 157.599 194.649 158.044 194.649 158.592C194.649 159.14 195.093 159.584 195.64 159.584Z" fill="#161742"/>
<path d="M180.389 149.955C180.868 149.955 181.256 149.566 181.256 149.087C181.256 148.608 180.868 148.22 180.389 148.22C179.911 148.22 179.523 148.608 179.523 149.087C179.523 149.566 179.911 149.955 180.389 149.955Z" fill="#161742"/>
</g>
</g>
<path d="M18.96 108.383L73.8127 135.091L18.96 146.467V108.383Z" fill="#FFD325"/>
<path d="M53.6849 53.4727L71.2567 82.1588L19.5034 53.5131L53.6849 53.4727Z" fill="#FFD325"/>
<path d="M74.841 53.6527L80.118 67.994L63.0457 53.4727L74.841 53.6527Z" fill="#FFD325"/>
<path d="M99.0229 53.6307L95.806 68.3064L84.7598 53.4727L99.0229 53.6307Z" fill="#FFD325"/>
<path d="M18.96 60.8345L70.8491 108.316L18.96 98.9185V60.8345Z" fill="#FFD325"/>
<path opacity="0.27" d="M70.5664 257.793L58.9803 251.104C28.6914 233.602 28.6914 205.224 58.9803 187.722L110.991 157.669C141.28 140.167 190.389 140.167 220.678 157.669L232.264 164.358C262.553 181.86 262.553 210.238 232.264 227.74L180.257 257.793C149.961 275.321 100.852 275.321 70.5664 257.793Z" fill="#FFD325"/>
<path d="M195.475 83.5591C205.06 82.0412 209.973 77.3735 213.227 71.6105C215.603 67.3986 216.503 60.0773 215.43 54.6818C214.839 51.657 213.789 48.7388 212.312 46.0337C213.998 41.638 212.929 36.7167 210.777 32.5011C208.031 27.1203 202.805 23.1289 196.492 23.9669C195.471 24.1029 196.217 25.0915 197.054 25.4627C204.296 28.7522 206.521 34.2469 207.168 39.7709C206.665 39.3666 206.136 38.9881 205.589 38.6463C200.422 35.3531 192.034 34.5409 186.364 36.8747C180.694 39.2086 179.78 44.8135 183.702 49.2901C188.994 55.336 198.868 56.9532 205.835 53.1713C206.609 55.7183 206.925 58.3829 206.767 61.0439C206.459 66.0534 203.841 70.5189 198.997 73.4519C197.355 74.4479 193.65 75.2749 191.733 75.1389C188.428 74.8706 187.279 74.7015 184.341 73.4519C182.986 72.8895 181.638 73.9407 181.194 75.2271C178.546 82.9416 190.316 84.3787 195.475 83.5591ZM203.102 47.5186C200.293 49.0034 196.202 49.7679 193.242 48.5991C191.333 47.864 189.871 47.1216 188.894 45.8389C187.209 43.5896 189.603 42.498 192.266 42.5164C196.621 42.5385 200.462 44.0748 203.102 47.5222V47.5186Z" fill="#1D478E" stroke="#161742" stroke-width="1.5" stroke-miterlimit="10"/>
<path d="M212.313 46.0337C213.44 48.0956 214.318 50.2898 214.924 52.5611C212.261 56.0601 208.361 57.2068 206.723 57.5486C206.58 56.0564 206.29 54.5826 205.857 53.1455C210.025 50.7345 211.148 48.5844 212.313 46.0337Z" fill="#161742"/>
<path d="M203.103 47.5186C202.779 47.096 202.427 46.6917 202.052 46.3095C203.257 45.6185 204.325 44.7144 205.203 43.6375C207.061 41.4286 207.186 39.771 207.186 39.771C207.344 42.4761 205.508 46.1918 203.103 47.5186Z" fill="#161742"/>
<path d="M121.831 200.737V200.575L121.802 200.402C121.24 196.58 123.488 192.625 128.544 189.641C137.703 184.216 152.649 184.051 161.925 189.281C167.026 192.155 169.347 196.029 168.881 199.895V200.068C168.881 200.119 178.667 198.69 178.667 198.69L176.42 201.09C170.43 207.529 166.527 215.633 165.223 224.333L163.982 232.635V232.72C163.589 235.057 161.859 237.347 158.778 239.174C151.65 243.389 140.028 243.522 132.812 239.449C129.694 237.696 127.913 235.447 127.468 233.113V232.988L121.828 200.733L121.831 200.737Z" fill="#161742"/>
<path d="M121.831 200.737V200.575L121.802 200.402C121.24 196.58 123.488 192.625 128.544 189.641C137.703 184.216 152.649 184.051 161.925 189.281C167.026 192.155 169.347 196.029 168.881 199.895V200.068C168.881 200.119 178.667 198.69 178.667 198.69L176.42 201.09C170.43 207.529 166.527 215.633 165.223 224.333L163.982 232.635V232.72C163.589 235.057 161.859 237.347 158.778 239.174C151.65 243.389 140.028 243.522 132.812 239.449C129.694 237.696 127.913 235.447 127.468 233.113V232.988L121.828 200.733L121.831 200.737Z" fill="#161742"/>
<path d="M170.893 171.676C170.893 171.621 170.893 171.562 170.864 171.514L170.831 171.341C170.269 167.519 172.582 163.678 177.573 160.58C181.091 158.386 199.482 158.191 210.157 158.073C216.484 158.007 219.955 157.331 219.488 161.164V161.337C219.488 161.388 226.432 152.593 226.432 152.593C221.031 163.557 217.333 175.281 215.471 187.362L213.029 203.578V203.662C212.628 206 210.899 208.29 207.821 210.116C200.697 214.332 189.074 214.464 181.855 210.392C178.744 208.639 176.963 206.389 176.512 204.056V203.931L170.893 171.676Z" fill="#161742"/>
<path d="M116.15 182.334V182.173L116.18 182C116.646 178.167 114.263 174.377 109.232 171.385C105.67 169.272 87.2716 169.474 76.6477 169.585C70.3204 169.651 66.8391 169.052 67.3826 172.878V173.205L74.6867 215.144V215.229C75.1347 217.563 76.9341 219.812 80.0299 221.565C87.2422 225.63 98.8723 225.501 105.996 221.286C109.074 219.463 110.803 217.177 111.204 214.836V214.711L116.154 182.338L116.15 182.334Z" fill="#161742"/>
<path d="M116.15 182.334V182.173L116.18 182C116.646 178.167 114.263 174.377 109.232 171.385C105.67 169.272 87.2716 169.474 76.6477 169.585C70.3204 169.651 66.8391 169.052 67.3826 172.878V173.205L74.6867 215.144V215.229C75.1347 217.563 76.9341 219.812 80.0299 221.565C87.2422 225.63 98.8723 225.501 105.996 221.286C109.074 219.463 110.803 217.177 111.204 214.836V214.711L116.154 182.338L116.15 182.334Z" fill="#161742"/>
<path d="M117.322 61.5438C127.733 56.8981 141.926 54.9759 154.1 54.8436C195.648 54.3952 229.697 87.738 230.149 129.325C230.446 156.993 215.996 182.944 195.571 198.693C185.744 206.268 171.312 214.071 162.315 217.732C146.972 223.961 137.303 224.63 123.41 224.781C81.8624 225.229 47.8168 191.887 47.3688 150.304C47.1595 131.214 54.2396 114.234 65.5465 100.646C70.225 95.0226 77.6907 86.4002 83.6031 82.0302C95.1303 73.5181 105.758 66.7076 117.322 61.5474V61.5438Z" fill="#161742"/>
<path d="M117.322 61.5438C127.733 56.8981 141.926 54.9759 154.1 54.8436C195.648 54.3952 229.697 87.738 230.149 129.325C230.446 156.993 215.996 182.944 195.571 198.693C185.744 206.268 171.312 214.071 162.315 217.732C146.972 223.961 137.303 224.63 123.41 224.781C81.8624 225.229 47.8168 191.887 47.3688 150.304C47.1595 131.214 54.2396 114.234 65.5465 100.646C70.225 95.0226 77.6907 86.4002 83.6031 82.0302C95.1303 73.5181 105.758 66.7076 117.322 61.5474V61.5438Z" fill="#1D478E" stroke="#161742" stroke-width="1.5" stroke-miterlimit="10"/>
<path d="M123.759 193.607C131.351 193.607 137.505 187.448 137.505 179.85C137.505 172.252 131.351 166.093 123.759 166.093C116.168 166.093 110.014 172.252 110.014 179.85C110.014 187.448 116.168 193.607 123.759 193.607Z" fill="#275DA9"/>
<path d="M57.4307 145.959C57.4307 140.696 54.4268 135.893 49.6932 133.588C48.3896 139.263 47.7616 145.074 47.8277 150.895C47.8498 153.571 48.015 156.243 48.3235 158.9C53.7805 156.938 57.4234 151.763 57.4307 145.956V145.959Z" fill="#275DA9"/>
<path d="M183.687 183.529C212.456 159.716 229.341 107.522 205.758 75.1682C220.766 89.197 229.378 108.772 229.576 129.325C229.873 156.993 215.423 182.944 194.998 198.693C185.171 206.268 170.739 214.071 161.742 217.732C146.399 223.961 136.73 224.63 122.838 224.781C101.711 225.031 81.4586 216.357 67.0523 200.891C66.8099 200.626 66.5675 200.369 66.3325 200.105C108.876 230.055 154.897 207.334 183.68 183.529H183.687Z" fill="#1D478E"/>
<path d="M104.81 88.7157L93.2648 95.5592C81.6127 92.3249 67.7425 94.5191 59.0246 109.614C59.0246 109.614 55.613 74.4884 59.9904 64.723C59.9904 64.723 62.3847 63.3117 63.3615 62.731C64.8231 61.8525 67.1917 61.5732 70.0304 62.0326C84.3779 64.3959 97.4549 76.1828 104.81 88.7121V88.7157Z" fill="#2F6BC0" stroke="#161742" stroke-width="1.5" stroke-miterlimit="10"/>
<path d="M93.2647 95.5591C78.1827 91.8544 66.7656 96.6838 59.0245 109.614C59.0245 109.614 45.2828 59.2246 66.784 63.9474C81.3445 67.1523 93.2647 95.5555 93.2647 95.5555V95.5591Z" fill="#161742"/>
<path d="M93.2647 95.3202C78.1827 91.5529 66.7656 96.4632 59.0245 109.614C59.0245 109.614 45.2828 58.3792 66.784 63.1792C81.3445 66.4392 93.2647 95.3202 93.2647 95.3202Z" fill="#275DA9"/>
<path d="M71.4588 90.7555C85.3841 85.4703 93.2942 95.5555 93.2942 95.5555C78.2121 91.8507 66.7951 96.6801 59.0539 109.61C59.0245 109.617 57.5042 96.0369 71.4588 90.7518V90.7555Z" fill="#161742"/>
<path d="M116.646 108.732C129.499 120.184 141.089 134.768 149.7 156.71L160.78 150.204C164.907 145.926 175.384 109.779 154.298 96.5772C140.197 87.76 116.646 108.732 116.646 108.732Z" fill="#2F6BC0" stroke="#161742" stroke-width="1.5" stroke-miterlimit="10"/>
<path d="M116.349 109.221C131.544 122.496 142.286 138.587 149.469 156.897C149.469 156.897 172.446 116.417 151.158 98.8413C138.724 88.5761 116.349 109.224 116.349 109.224V109.221Z" fill="#275DA9"/>
<path d="M116.213 108.732C116.213 108.732 129.429 108.592 140.615 123.577C151.07 137.594 149.601 157.088 149.601 157.088C142.433 138.664 131.405 122.095 116.213 108.735V108.732Z" fill="#161742"/>
<path d="M61.3454 147.154C65.8403 144.511 72.2043 144.904 79.3212 148.903C93.0445 156.633 104.293 174.917 104.454 189.751C104.528 196.83 102.06 201.832 97.9727 204.298C96.0007 205.485 88.2705 210.072 86.2765 211.23C81.7816 213.828 75.447 213.435 68.3632 209.444C54.6399 201.714 43.3697 183.43 43.2228 168.596C43.1493 161.499 45.6171 156.519 49.6933 154.056C51.669 152.865 59.3734 148.315 61.3454 147.157V147.154Z" fill="#161742"/>
<path d="M49.6933 154.056C51.669 152.865 59.3734 148.315 61.3344 147.157C65.8293 144.515 72.1933 144.908 79.3102 148.907C85.0279 152.13 90.316 157.188 94.5501 163.064L49.5464 189.722C45.6832 182.867 43.2926 175.362 43.2191 168.599C43.1457 161.502 45.6134 156.522 49.6897 154.06L49.6933 154.056Z" fill="#2F6BC0"/>
<path d="M101.792 176.472L58.683 201.887C55.1172 198.249 52.0472 194.158 49.55 189.722L94.5537 163.064C97.554 167.192 99.9924 171.702 101.795 176.476L101.792 176.472Z" fill="#275DA9"/>
<path d="M67.772 155.739C54.0524 148.01 43.0539 153.762 43.2229 168.592C43.3918 183.426 54.64 201.707 68.3559 209.44C82.0755 217.169 93.074 211.414 92.905 196.587C92.7361 181.761 81.4953 163.472 67.772 155.739Z" fill="#1D478E" stroke="#161742" stroke-width="1.5" stroke-miterlimit="10"/>
<path d="M76.9232 197.201C78.6088 198.146 79.9344 197.113 79.9124 194.889L79.7876 183.577C79.7876 181.357 78.3884 178.791 76.7139 177.847C75.0283 176.91 73.7026 177.942 73.7246 180.159L73.8495 191.475C73.8715 193.691 75.2486 196.253 76.9232 197.198V197.201Z" fill="#161742"/>
<path d="M79.7876 183.577L79.9124 194.889C79.9198 195.334 79.8573 195.779 79.7288 196.205C79.4974 196.143 79.2734 196.051 79.0641 195.929C77.3785 194.985 76.0125 192.427 75.9904 190.207L75.8656 178.894C75.8582 178.449 75.9207 178.005 76.0492 177.578C76.2805 177.641 76.5009 177.733 76.7139 177.847C78.3884 178.791 79.7655 181.357 79.7876 183.577Z" fill="#161742"/>
<path d="M79.7876 183.577L79.9124 194.889C79.9198 195.334 79.8573 195.779 79.7288 196.205C79.4974 196.143 79.2734 196.051 79.0641 195.929C77.3785 194.985 76.0125 192.427 75.9904 190.207L75.8656 178.894C75.8582 178.449 75.9207 178.005 76.0492 177.578C76.2805 177.641 76.5009 177.733 76.7139 177.847C78.3884 178.791 79.7655 181.357 79.7876 183.577Z" fill="#161742"/>
<path d="M59.4138 187.329C61.0994 188.274 62.4251 187.241 62.4031 185.017L62.2782 173.705C62.2782 171.485 60.8791 168.927 59.2045 167.982C57.519 167.037 56.1933 168.07 56.2226 170.294L56.3402 181.607C56.3695 183.827 57.743 186.392 59.4138 187.329Z" fill="#161742"/>
<path d="M62.2783 173.705L62.4031 185.017C62.4142 185.462 62.3517 185.907 62.2195 186.333C61.9918 186.271 61.7678 186.179 61.5622 186.065C59.8766 185.12 58.5105 182.555 58.4885 180.335L58.3636 169.022C58.3453 168.57 58.404 168.118 58.5362 167.684C58.7676 167.747 58.9879 167.839 59.1936 167.96C60.8791 168.927 62.2562 171.485 62.2783 173.705Z" fill="#161742"/>
<path d="M62.2783 173.705L62.4031 185.017C62.4142 185.462 62.3517 185.907 62.2195 186.333C61.9918 186.271 61.7678 186.179 61.5622 186.065C59.8766 185.12 58.5105 182.555 58.4885 180.335L58.3636 169.022C58.3453 168.57 58.404 168.118 58.5362 167.684C58.7676 167.747 58.9879 167.839 59.1936 167.96C60.8791 168.927 62.2562 171.485 62.2783 173.705Z" fill="#161742"/>
<path d="M86.3279 205.261C92.2806 196.8 88.2044 179.251 81.3887 168.662C87.1615 176.711 90.9256 186.337 91.0174 194.816C91.1679 209.304 80.5294 214.931 67.2431 207.378C62.6931 204.688 58.6426 201.218 55.2751 197.124C63.7177 207.102 79.9748 214.299 86.3315 205.261H86.3279Z" fill="#275DA9"/>
<path d="M105.332 150.936C105.145 151.52 105.046 152.149 105.06 152.814C105.093 154.696 106.415 156.394 108.083 157.268C116.088 161.484 119.808 149.271 112.188 147.249C109.203 146.459 106.235 148.154 105.336 150.936H105.332Z" fill="#161742"/>
<path d="M70.7391 128.189C67.0851 125.818 61.5106 128.869 61.7126 133.349C61.8926 137.352 67.8269 140.358 71.0475 137.844C74.5068 135.146 74.2681 130.475 70.7391 128.185V128.189Z" fill="#161742"/>
<path d="M124.909 90.1159L150.879 74.7272L145.04 71.4304L119.062 86.8191L124.909 90.1159Z" fill="#161742"/>
<path d="M124.909 90.1159L150.879 74.7272L145.04 71.4304L119.062 86.8191L124.909 90.1159Z" fill="#161742"/>
<path d="M145.04 71.4304L145.073 74.7897L121.989 88.4694L119.062 86.8191L145.04 71.4304Z" fill="#275DA9"/>
<path d="M145.04 71.4304L145.073 74.7897L148 76.4436L150.879 74.7272L145.04 71.4304Z" fill="#161742"/>
<path opacity="0.39" d="M258.08 219.705C270.806 219.705 281.123 213.744 281.123 206.39C281.123 199.035 270.806 193.074 258.08 193.074C245.353 193.074 235.036 199.035 235.036 206.39C235.036 213.744 245.353 219.705 258.08 219.705Z" fill="#FFD325"/>
<path d="M277.774 198.488H233.788V204.265H277.774V198.488Z" fill="#E4AD43"/>
<path d="M255.785 215.596C243.637 215.596 233.792 210.521 233.792 204.265C233.792 198.006 243.637 193.772 255.785 193.772C267.933 193.772 277.778 198.006 277.778 204.265C277.778 210.524 267.933 215.596 255.785 215.596Z" fill="#AF8E2F"/>
<path d="M255.784 210.227C243.637 210.227 233.791 205.158 233.791 198.907C233.791 192.655 243.637 187.586 255.784 187.586C267.932 187.586 277.778 192.655 277.778 198.907C277.778 205.158 267.932 210.227 255.784 210.227Z" fill="#C29A43"/>
<path d="M245.267 195.907C247.357 196.867 249.49 197.936 251.683 198.546C259.508 200.73 268.138 198.657 274.15 192.68C270.217 189.612 263.46 187.586 255.785 187.586C248.433 187.586 241.929 189.442 237.938 192.295C240.35 193.581 242.803 194.775 245.271 195.907H245.267Z" fill="#D7AE4D"/>
<path d="M255.785 207.378C246.674 207.378 239.289 203.71 239.289 199.182C239.289 194.654 246.674 190.986 255.785 190.986C264.896 190.986 272.281 194.658 272.281 199.182C272.281 203.706 264.896 207.378 255.785 207.378Z" fill="#AF8E2F"/>
<path d="M248.712 194.526V197.345C249.384 196.83 250.346 196.433 251.686 196.275V194.305L253.144 194.198V196.205C256.119 196.286 258.014 197.855 258.131 200.447C260.492 198.888 263.467 197.043 266.471 195.051V197.26C263.731 199.028 261.194 200.553 258.278 202.358L256.471 202.236V201.152C256.471 199.028 255.16 197.896 253.148 197.782V202.016L251.69 201.92V197.852C249.997 198.113 249.152 199.028 249.152 200.527V201.751L247.258 201.626V194.636L248.715 194.529L248.712 194.526Z" fill="#DEA041"/>
<path d="M248.341 194.79V197.591C249.013 197.084 249.975 196.69 251.315 196.543V194.584L252.773 194.481V196.473C255.748 196.569 257.643 198.138 257.76 200.711C260.122 199.175 263.096 197.356 266.1 195.386V197.583C263.361 199.329 260.823 200.832 257.907 202.611L256.1 202.483V201.406C256.1 199.292 254.789 198.164 252.777 198.039V202.244L251.319 202.141V198.102C249.626 198.352 248.782 199.259 248.782 200.748V201.964L246.887 201.828V194.893L248.345 194.79H248.341Z" fill="#FFD325"/>
<path d="M274.543 190.751H230.556V196.529H274.543V190.751Z" fill="#E4AD43"/>
<path d="M252.55 207.863C240.402 207.863 230.556 202.788 230.556 196.532C230.556 190.273 240.402 186.039 252.55 186.039C264.697 186.039 274.543 190.273 274.543 196.532C274.543 202.791 264.697 207.863 252.55 207.863Z" fill="#AF8E2F"/>
<path d="M252.55 202.494C240.402 202.494 230.556 197.425 230.556 191.174C230.556 184.922 240.402 179.854 252.55 179.854C264.697 179.854 274.543 184.922 274.543 191.174C274.543 197.425 264.697 202.494 252.55 202.494Z" fill="#C29A43"/>
<path d="M242.036 188.175C244.125 189.134 246.259 190.203 248.451 190.813C256.277 192.997 264.907 190.924 270.918 184.948C266.985 181.879 260.228 179.854 252.553 179.854C245.201 179.854 238.698 181.71 234.706 184.562C237.119 185.848 239.572 187.043 242.04 188.175H242.036Z" fill="#D7AE4D"/>
<path d="M252.55 199.645C243.439 199.645 236.054 195.977 236.054 191.449C236.054 186.921 243.439 183.253 252.55 183.253C261.66 183.253 269.045 186.925 269.045 191.449C269.045 195.974 261.66 199.645 252.55 199.645Z" fill="#AF8E2F"/>
<path d="M245.48 186.789V189.608C246.152 189.093 247.115 188.697 248.455 188.538V186.569L249.913 186.462V188.469C252.887 188.55 254.782 190.119 254.9 192.71C257.261 191.152 260.236 189.307 263.239 187.315V189.523C260.5 191.291 257.962 192.817 255.047 194.621L253.24 194.5V193.416C253.24 191.291 251.929 190.159 249.916 190.045V194.279L248.459 194.184V190.115C246.766 190.376 245.921 191.291 245.921 192.791V194.015L244.026 193.89V186.899L245.484 186.793L245.48 186.789Z" fill="#DEA041"/>
<path d="M245.11 187.054V189.854C245.782 189.347 246.744 188.954 248.084 188.807V186.848L249.542 186.745V188.737C252.516 188.832 254.411 190.402 254.529 192.975C256.89 191.438 259.865 189.619 262.869 187.649V189.847C260.129 191.593 257.592 193.096 254.676 194.875L252.869 194.746V193.669C252.869 191.556 251.558 190.428 249.546 190.303V194.507L248.088 194.404V190.365C246.395 190.615 245.55 191.523 245.55 193.011V194.228L243.655 194.092V187.157L245.113 187.054H245.11Z" fill="#FFD325"/>
<path d="M276.698 183.444H232.712V189.222H276.698V183.444Z" fill="#E4AD43"/>
<path d="M254.705 200.553C242.557 200.553 232.712 195.477 232.712 189.222C232.712 182.963 242.557 178.729 254.705 178.729C266.853 178.729 276.698 182.963 276.698 189.222C276.698 195.481 266.853 200.553 254.705 200.553Z" fill="#AF8E2F"/>
<path d="M254.705 195.183C242.557 195.183 232.712 190.115 232.712 183.863C232.712 177.612 242.557 172.543 254.705 172.543C266.853 172.543 276.698 177.612 276.698 183.863C276.698 190.115 266.853 195.183 254.705 195.183Z" fill="#C29A43"/>
<path d="M244.188 180.864C246.277 181.823 248.411 182.893 250.603 183.503C258.429 185.686 267.059 183.613 273.07 177.637C269.137 174.568 262.38 172.543 254.705 172.543C247.353 172.543 240.85 174.399 236.858 177.251C239.271 178.538 241.724 179.732 244.191 180.864H244.188Z" fill="#D7AE4D"/>
<path d="M254.705 192.335C245.594 192.335 238.209 188.667 238.209 184.139C238.209 179.611 245.594 175.943 254.705 175.943C263.816 175.943 271.201 179.615 271.201 184.139C271.201 188.663 263.816 192.335 254.705 192.335Z" fill="#AF8E2F"/>
<path d="M247.632 179.479V182.298C248.304 181.783 249.266 181.386 250.607 181.228V179.258L252.065 179.152V181.158C255.039 181.239 256.934 182.809 257.052 185.4C259.413 183.841 262.387 181.996 265.391 180.004V182.213C262.652 183.981 260.114 185.506 257.198 187.311L255.392 187.19V186.105C255.392 183.981 254.081 182.849 252.068 182.735V186.969L250.61 186.874V182.805C248.917 183.066 248.073 183.981 248.073 185.481V186.704L246.178 186.58V179.589L247.636 179.482L247.632 179.479Z" fill="#DEA041"/>
<path d="M247.261 179.747V182.548C247.933 182.04 248.896 181.647 250.236 181.5V179.541L251.694 179.438V181.43C254.668 181.526 256.563 183.095 256.681 185.668C259.042 184.132 262.017 182.312 265.02 180.342V182.54C262.281 184.286 259.743 185.789 256.828 187.568L255.021 187.439V186.363C255.021 184.249 253.71 183.121 251.697 182.996V187.201L250.24 187.098V183.058C248.547 183.308 247.702 184.216 247.702 185.705V186.921L245.807 186.785V179.85L247.265 179.747H247.261Z" fill="#FFD325"/>
<path d="M273.019 175.947H229.032V181.724H273.019V175.947Z" fill="#E4AD43"/>
<path d="M251.025 193.055C238.878 193.055 229.032 187.98 229.032 181.724C229.032 175.465 238.878 171.231 251.025 171.231C263.173 171.231 273.019 175.465 273.019 181.724C273.019 187.983 263.173 193.055 251.025 193.055Z" fill="#AF8E2F"/>
<path d="M251.025 187.686C238.878 187.686 229.032 182.617 229.032 176.366C229.032 170.114 238.878 165.045 251.025 165.045C263.173 165.045 273.019 170.114 273.019 176.366C273.019 182.617 263.173 187.686 251.025 187.686Z" fill="#C29A43"/>
<path d="M240.508 173.366C242.598 174.326 244.731 175.395 246.924 176.005C254.749 178.188 263.379 176.116 269.391 170.139C265.458 167.071 258.701 165.045 251.025 165.045C243.674 165.045 237.17 166.901 233.178 169.754C235.591 171.04 238.044 172.234 240.512 173.366H240.508Z" fill="#D7AE4D"/>
<path d="M251.025 184.837C241.914 184.837 234.53 181.169 234.53 176.641C234.53 172.113 241.914 168.445 251.025 168.445C260.136 168.445 267.521 172.117 267.521 176.641C267.521 181.165 260.136 184.837 251.025 184.837Z" fill="#AF8E2F"/>
<path d="M243.953 171.985V174.804C244.625 174.289 245.587 173.892 246.927 173.734V171.764L248.385 171.657V173.664C251.359 173.745 253.254 175.314 253.372 177.906C255.733 176.347 258.708 174.502 261.712 172.51V174.719C258.972 176.487 256.435 178.012 253.519 179.817L251.712 179.695V178.611C251.712 176.487 250.401 175.355 248.389 175.241V179.475L246.931 179.379V175.311C245.238 175.572 244.393 176.487 244.393 177.986V179.21L242.498 179.085V172.095L243.956 171.988L243.953 171.985Z" fill="#DEA041"/>
<path d="M243.582 172.249V175.05C244.254 174.543 245.216 174.149 246.556 174.002V172.043L248.014 171.94V173.932C250.989 174.028 252.884 175.597 253.001 178.17C255.362 176.634 258.337 174.815 261.341 172.845V175.042C258.601 176.788 256.064 178.291 253.148 180.07L251.341 179.942V178.865C251.341 176.751 250.03 175.623 248.018 175.498V179.703L246.56 179.6V175.561C244.867 175.811 244.022 176.718 244.022 178.207V179.423L242.127 179.287V172.352L243.585 172.249H243.582Z" fill="#FFD325"/>
<path d="M276.662 168.133H232.675V173.91H276.662V168.133Z" fill="#E4AD43"/>
<path d="M254.669 185.242C242.521 185.242 232.675 180.166 232.675 173.91C232.675 167.651 242.521 163.417 254.669 163.417C266.816 163.417 276.662 167.651 276.662 173.91C276.662 180.17 266.816 185.242 254.669 185.242Z" fill="#AF8E2F"/>
<path d="M254.669 179.875C242.521 179.875 232.675 174.807 232.675 168.555C232.675 162.303 242.521 157.235 254.669 157.235C266.816 157.235 276.662 162.303 276.662 168.555C276.662 174.807 266.816 179.875 254.669 179.875Z" fill="#C29A43"/>
<path d="M244.155 165.553C246.244 166.512 248.378 167.581 250.57 168.192C258.396 170.375 267.026 168.302 273.037 162.326C269.104 159.257 262.347 157.232 254.672 157.232C247.32 157.232 240.817 159.088 236.825 161.94C239.238 163.226 241.691 164.421 244.158 165.553H244.155Z" fill="#D7AE4D"/>
<path d="M254.668 177.027C245.558 177.027 238.173 173.359 238.173 168.831C238.173 164.303 245.558 160.635 254.668 160.635C263.779 160.635 271.164 164.307 271.164 168.831C271.164 173.355 263.779 177.027 254.668 177.027Z" fill="#AF8E2F"/>
<path d="M247.599 164.171V166.99C248.271 166.475 249.233 166.078 250.574 165.92V163.95L252.032 163.844V165.85C255.006 165.931 256.901 167.501 257.019 170.092C259.38 168.534 262.354 166.688 265.358 164.696V166.905C262.619 168.673 260.081 170.198 257.165 172.003L255.359 171.882V170.798C255.359 168.673 254.048 167.541 252.035 167.427V171.661L250.577 171.566V167.497C248.885 167.758 248.04 168.673 248.04 170.173V171.397L246.145 171.272V164.281L247.603 164.175L247.599 164.171Z" fill="#DEA041"/>
<path d="M247.225 164.435V167.236C247.897 166.729 248.859 166.336 250.199 166.189V164.23L251.657 164.127V166.119C254.632 166.214 256.527 167.784 256.644 170.356C259.005 168.82 261.98 167.001 264.984 165.031V167.229C262.244 168.975 259.707 170.478 256.791 172.257L254.984 172.128V171.051C254.984 168.938 253.673 167.809 251.661 167.684V171.889L250.203 171.786V167.747C248.51 167.997 247.665 168.905 247.665 170.393V171.61L245.771 171.474V164.538L247.228 164.435H247.225Z" fill="#FFD325"/>
<path opacity="0.39" d="M229.267 263.733C244.533 263.733 256.909 256.58 256.909 247.756C256.909 238.932 244.533 231.779 229.267 231.779C214.002 231.779 201.626 238.932 201.626 247.756C201.626 256.58 214.002 263.733 229.267 263.733Z" fill="#FFD325"/>
<path d="M253.637 238.38H200.866V245.312H253.637V238.38Z" fill="#E4AD43"/>
<path d="M227.251 258.907C212.68 258.907 200.866 252.82 200.866 245.312C200.866 237.803 212.68 232.724 227.251 232.724C241.823 232.724 253.637 237.803 253.637 245.312C253.637 252.82 241.823 258.907 227.251 258.907Z" fill="#AF8E2F"/>
<path d="M227.251 252.464C212.68 252.464 200.866 246.385 200.866 238.883C200.866 231.382 212.68 225.303 227.251 225.303C241.823 225.303 253.637 231.382 253.637 238.883C253.637 246.385 241.823 252.464 227.251 252.464Z" fill="#C29A43"/>
<path d="M214.637 235.285C217.141 236.436 219.701 237.718 222.334 238.453C231.72 241.074 242.076 238.586 249.285 231.415C244.566 227.736 236.461 225.303 227.251 225.303C218.434 225.303 210.63 227.53 205.838 230.952C208.732 232.496 211.673 233.925 214.637 235.285Z" fill="#D7AE4D"/>
<path d="M227.251 249.046C216.323 249.046 207.461 244.643 207.461 239.214C207.461 233.786 216.323 229.383 227.251 229.383C238.18 229.383 247.041 233.786 247.041 239.214C247.041 244.643 238.18 249.046 227.251 249.046Z" fill="#AF8E2F"/>
<path d="M218.768 233.624V237.005C219.572 236.388 220.726 235.91 222.338 235.723V233.359L224.086 233.231V235.638C227.655 235.737 229.928 237.619 230.068 240.725C232.903 238.858 236.469 236.641 240.071 234.252V236.902C236.784 239.023 233.74 240.85 230.24 243.018L228.07 242.875V241.577C228.07 239.027 226.495 237.671 224.082 237.531V242.61L222.334 242.493V237.612C220.307 237.924 219.29 239.023 219.29 240.824V242.29L217.017 242.14V233.756L218.765 233.628L218.768 233.624Z" fill="#DEA041"/>
<path d="M218.324 233.944V237.303C219.128 236.693 220.281 236.226 221.893 236.046V233.697L223.641 233.576V235.965C227.211 236.079 229.484 237.961 229.624 241.048C232.459 239.203 236.024 237.02 239.627 234.66V237.299C236.34 239.391 233.296 241.195 229.796 243.331L227.626 243.176V241.886C227.626 239.354 226.05 237.998 223.638 237.847V242.893L221.89 242.768V237.92C219.863 238.222 218.845 239.31 218.845 241.092V242.551L216.572 242.39V234.069L218.32 233.947L218.324 233.944Z" fill="#FFD325"/>
<path d="M249.222 229.386H196.452V236.318H249.222V229.386Z" fill="#E4AD43"/>
<path d="M222.837 249.913C208.266 249.913 196.452 243.827 196.452 236.318C196.452 228.809 208.266 223.73 222.837 223.73C237.409 223.73 249.222 228.809 249.222 236.318C249.222 243.827 237.409 249.913 222.837 249.913Z" fill="#AF8E2F"/>
<path d="M222.837 243.47C208.266 243.47 196.452 237.391 196.452 229.89C196.452 222.388 208.266 216.309 222.837 216.309C237.409 216.309 249.222 222.388 249.222 229.89C249.222 237.391 237.409 243.47 222.837 243.47Z" fill="#C29A43"/>
<path d="M210.223 226.292C212.727 227.442 215.287 228.725 217.92 229.46C227.306 232.08 237.662 229.592 244.871 222.421C240.152 218.742 232.047 216.309 222.837 216.309C214.02 216.309 206.216 218.537 201.424 221.958C204.318 223.502 207.259 224.932 210.223 226.292Z" fill="#D7AE4D"/>
<path d="M222.837 240.052C211.909 240.052 203.047 235.649 203.047 230.22C203.047 224.792 211.909 220.389 222.837 220.389C233.766 220.389 242.627 224.792 242.627 230.22C242.627 235.649 233.766 240.052 222.837 240.052Z" fill="#AF8E2F"/>
<path d="M214.354 224.63V228.012C215.158 227.394 216.312 226.916 217.924 226.729V224.366L219.672 224.237V226.644C223.241 226.744 225.514 228.625 225.654 231.731C228.489 229.864 232.055 227.648 235.657 225.259V227.909C232.37 230.029 229.326 231.856 225.826 234.025L223.656 233.881V232.584C223.656 230.033 222.081 228.677 219.668 228.537V233.617L217.92 233.499V228.618C215.893 228.931 214.876 230.029 214.876 231.83V233.297L212.603 233.146V224.763L214.351 224.634L214.354 224.63Z" fill="#DEA041"/>
<path d="M213.91 224.95V228.309C214.714 227.699 215.867 227.232 217.479 227.052V224.704L219.227 224.583V226.972C222.797 227.085 225.07 228.967 225.209 232.055C228.044 230.209 231.61 228.026 235.213 225.667V228.306C231.926 230.397 228.882 232.202 225.382 234.337L223.212 234.183V232.892C223.212 230.36 221.636 229.004 219.224 228.853V233.9L217.476 233.775V228.927C215.449 229.228 214.431 230.316 214.431 232.099V233.558L212.158 233.396V225.075L213.906 224.954L213.91 224.95Z" fill="#FFD325"/>
<path d="M253.592 220.014H200.822V226.946H253.592V220.014Z" fill="#E4AD43"/>
<path d="M227.207 240.537C212.635 240.537 200.822 234.451 200.822 226.942C200.822 219.433 212.635 214.354 227.207 214.354C241.779 214.354 253.592 219.433 253.592 226.942C253.592 234.451 241.779 240.537 227.207 240.537Z" fill="#AF8E2F"/>
<path d="M227.207 234.098C212.635 234.098 200.822 228.019 200.822 220.518C200.822 213.016 212.635 206.937 227.207 206.937C241.779 206.937 253.592 213.016 253.592 220.518C253.592 228.019 241.779 234.098 227.207 234.098Z" fill="#C29A43"/>
<path d="M214.593 216.92C217.097 218.07 219.657 219.353 222.29 220.088C231.676 222.708 242.032 220.22 249.241 213.049C244.522 209.37 236.417 206.937 227.207 206.937C218.39 206.937 210.586 209.165 205.794 212.586C208.688 214.13 211.629 215.56 214.593 216.92Z" fill="#D7AE4D"/>
<path d="M227.207 230.68C216.278 230.68 207.417 226.277 207.417 220.848C207.417 215.42 216.278 211.017 227.207 211.017C238.136 211.017 246.997 215.42 246.997 220.848C246.997 226.277 238.136 230.68 227.207 230.68Z" fill="#AF8E2F"/>
<path d="M218.728 215.258V218.64C219.532 218.022 220.685 217.544 222.297 217.357V214.994L224.045 214.865V217.272C227.615 217.372 229.888 219.253 230.027 222.359C232.862 220.492 236.428 218.276 240.031 215.887V218.537C236.744 220.657 233.7 222.484 230.2 224.652L228.03 224.509V223.212C228.03 220.661 226.454 219.305 224.042 219.165V224.245L222.294 224.127V219.246C220.266 219.558 219.249 220.657 219.249 222.458V223.925L216.976 223.774V215.391L218.724 215.262L218.728 215.258Z" fill="#DEA041"/>
<path d="M218.28 215.578V218.937C219.084 218.327 220.237 217.86 221.849 217.68V215.332L223.597 215.21V217.599C227.167 217.713 229.44 219.595 229.579 222.682C232.414 220.837 235.98 218.654 239.583 216.295V218.934C236.296 221.025 233.252 222.829 229.752 224.965L227.582 224.81V223.52C227.582 220.988 226.006 219.632 223.594 219.481V224.527L221.846 224.403V219.555C219.818 219.856 218.801 220.944 218.801 222.727V224.186L216.528 224.024V215.703L218.276 215.582L218.28 215.578Z" fill="#FFD325"/>
<path d="M256.494 115.538C270.522 115.538 281.895 104.156 281.895 90.116C281.895 76.0756 270.522 64.6936 256.494 64.6936C242.465 64.6936 231.093 76.0756 231.093 90.116C231.093 104.156 242.465 115.538 256.494 115.538Z" fill="#EE3D4B"/>
<path d="M262.986 81.0158C261.227 82.7763 259.468 84.5368 257.709 86.2973C254.911 89.0979 252.109 91.9022 249.311 94.7028C248.672 95.3423 248.036 95.9782 247.397 96.6177C246.718 97.2976 246.667 98.5436 247.397 99.2162C248.132 99.8888 249.267 99.9439 249.994 99.2162C251.753 97.4557 253.512 95.6952 255.271 93.9347C258.069 91.1341 260.871 88.3298 263.669 85.5291C264.308 84.8896 264.944 84.2538 265.582 83.6143C266.262 82.9343 266.313 81.6884 265.582 81.0158C264.848 80.3432 263.713 80.2881 262.986 81.0158Z" fill="#FFF3EB"/>
<path d="M247.486 83.6989C249.226 85.4411 250.967 87.1832 252.708 88.9253C255.469 91.6892 258.231 94.453 260.996 97.2206C261.631 97.8564 262.27 98.4959 262.905 99.1318C263.585 99.8117 264.83 99.8632 265.502 99.1318C266.174 98.3967 266.229 97.261 265.502 96.5333C263.761 94.7912 262.02 93.049 260.28 91.3069C257.518 88.5431 254.757 85.7792 251.991 83.0117C251.356 82.3758 250.717 81.7363 250.082 81.1005C249.403 80.4205 248.158 80.3691 247.486 81.1005C246.814 81.8319 246.758 82.9712 247.486 83.6989Z" fill="#FFF3EB"/>
<path d="M20.3959 118.931C26.5635 118.931 31.5633 113.927 31.5633 107.754C31.5633 101.581 26.5635 96.5771 20.3959 96.5771C14.2283 96.5771 9.22852 101.581 9.22852 107.754C9.22852 113.927 14.2283 118.931 20.3959 118.931Z" fill="#EE3D4B"/>
<path d="M23.2198 103.674C21.2184 105.677 19.2207 107.677 17.2193 109.68C16.9366 109.963 16.6501 110.249 16.3674 110.532C15.5301 111.37 16.8301 112.668 17.6674 111.834C19.6687 109.83 21.6665 107.831 23.6678 105.828C23.9506 105.545 24.2371 105.258 24.5198 104.975C25.3571 104.137 24.0571 102.84 23.2198 103.674Z" fill="#FFF3EB"/>
<path d="M16.2755 105.008C18.2549 106.989 20.2306 108.967 22.2099 110.948C22.4927 111.231 22.7718 111.51 23.0546 111.793C23.8918 112.631 25.1881 111.33 24.3545 110.492C22.3752 108.511 20.3995 106.534 18.4202 104.553C18.1374 104.27 17.8583 103.99 17.5755 103.707C16.7383 102.869 15.4419 104.17 16.2755 105.008Z" fill="#FFF3EB"/>
</g>
<defs>
<clipPath id="clip0_1_1955">
<rect width="299" height="269" fill="white"/>
</clipPath>
</defs>
</svg>
