<svg width="24" height="24" viewBox="0 0 24 24" fill="none" xmlns="http://www.w3.org/2000/svg">
<mask id="mask0_1_1107" style="mask-type:luminance" maskUnits="userSpaceOnUse" x="0" y="0" width="24" height="24">
<path d="M23.5 23.5001V0.500061H0.5V23.5001H23.5Z" fill="white" stroke="white"/>
</mask>
<g mask="url(#mask0_1_1107)">
<path d="M10.5569 12.9632H8.84016C8.47894 12.9632 8.18335 13.2588 8.18335 13.62V14.4961C8.18335 14.8573 8.47894 15.1529 8.84016 15.1529H10.5569C10.9181 15.1529 11.2136 14.8573 11.2136 14.4961V13.62C11.2136 13.2588 10.9181 12.9632 10.5569 12.9632Z" stroke="#AF8E2F" stroke-miterlimit="10" stroke-linecap="round" stroke-linejoin="round"/>
<path d="M3.00366 5.55117V6.34542C3.00366 6.8272 3.39783 7.22137 3.87962 7.22137H15.5173C15.9991 7.22137 16.3933 6.8272 16.3933 6.34542V5.55117H3.00366Z" stroke="#AF8E2F" stroke-miterlimit="10" stroke-linecap="round" stroke-linejoin="round"/>
<path d="M10.2512 19.6505L13.7381 14.058H11.2136V14.496C11.2136 14.8573 10.9181 15.1528 10.5569 15.1528H8.84016C8.47894 15.1528 8.18339 14.8573 8.18339 14.496V14.058H1.57448C0.901875 14.058 0.351562 13.5076 0.351562 12.835V19.141C0.351562 19.8137 0.901875 20.364 1.57448 20.364H9.96722C10.017 20.1168 10.111 19.8755 10.2512 19.6505Z" stroke="#AF8E2F" stroke-miterlimit="10" stroke-linecap="round" stroke-linejoin="round"/>
<path d="M5.54188 5.55103V3.47643C5.54188 2.94332 5.97561 2.50958 6.50867 2.50958H12.8885C13.4217 2.50958 13.8554 2.94332 13.8554 3.47643V5.55103H15.2633V3.47643C15.2633 2.16702 14.198 1.10173 12.8885 1.10173H6.50867C5.19931 1.10173 4.13403 2.16702 4.13403 3.47643V5.55103H5.54188Z" stroke="#AF8E2F" stroke-miterlimit="10" stroke-linecap="round" stroke-linejoin="round"/>
<path d="M16.7869 19.4689C16.3174 19.4689 15.9368 19.8495 15.9368 20.3191C15.9368 20.7886 16.3174 21.1693 16.7869 21.1693C17.2565 21.1693 17.6372 20.7886 17.6372 20.3191C17.6372 19.8495 17.2565 19.4689 16.7869 19.4689Z" stroke="#AF8E2F" stroke-miterlimit="10" stroke-linecap="round" stroke-linejoin="round"/>
<path d="M16.7869 13.9599C16.3174 13.9599 15.9368 14.3405 15.9368 14.81V17.3182C15.9368 17.7877 16.3174 18.1684 16.7869 18.1684C17.2565 18.1684 17.6372 17.7877 17.6372 17.3182V14.81C17.6372 14.3405 17.2565 13.9599 16.7869 13.9599Z" stroke="#AF8E2F" stroke-miterlimit="10" stroke-linecap="round" stroke-linejoin="round"/>
<path d="M17.6071 22.8986H21.52C22.303 22.8986 22.9973 22.4898 23.3773 21.8051C23.7572 21.1204 23.7368 20.315 23.3225 19.6505L18.5893 12.0592C18.1987 11.4328 17.5249 11.0588 16.7868 11.0588C16.0487 11.0588 15.3749 11.4328 14.9843 12.0592L10.2512 19.6505C9.8369 20.315 9.81647 21.1204 10.1964 21.8051C10.5764 22.4898 11.2707 22.8986 12.0537 22.8986H15.9665" stroke="#AF8E2F" stroke-miterlimit="10" stroke-linecap="round" stroke-linejoin="round"/>
<path d="M19.0455 8.00811V6.77394C19.0455 6.10133 18.4952 5.55096 17.8225 5.55096H1.57453C0.901922 5.55096 0.351562 6.10133 0.351562 6.77394V12.8351C0.351562 13.5077 0.901922 14.058 1.57453 14.058H8.18339V13.62C8.18339 13.2588 8.47898 12.9632 8.8402 12.9632H10.5569C10.9181 12.9632 11.2137 13.2588 11.2137 13.62V14.058H13.7381L14.9844 12.0592H14.9844C15.3749 11.4329 16.0487 11.0589 16.7869 11.0589C17.525 11.0589 18.1988 11.4329 18.5894 12.0592L19.0455 12.7908V9.64874" stroke="#AF8E2F" stroke-miterlimit="10" stroke-linecap="round" stroke-linejoin="round"/>
</g>
</svg>
