<svg width="23" height="19" viewBox="0 0 23 19" fill="none" xmlns="http://www.w3.org/2000/svg">
<path d="M9.58861 14.1297H17.8065C18.0116 14.1297 18.1774 13.9635 18.1774 13.7587V7.82312C18.1774 7.61835 18.0116 7.45215 17.8065 7.45215H5.19329C4.98814 7.45215 4.82231 7.61835 4.82231 7.82312V9.72326C4.62792 9.69544 4.43168 9.678 4.23395 9.678C3.59104 9.678 2.94703 9.8301 2.37165 10.1176L1.94206 10.3324C1.34219 10.6325 0.670724 10.7909 0 10.7909V11.5329C0.784985 11.5329 1.57145 11.3474 2.27408 10.9961L2.70367 10.7813C3.87002 10.1989 5.35466 10.3565 6.37151 11.1697L8.50944 12.8799C8.75985 13.0806 8.90342 13.3792 8.90342 13.6994C8.90342 13.9075 8.84258 14.1089 8.72683 14.2818L8.42931 14.7281L5.39918 12.7081L4.98777 13.3254L8.32655 15.5513C8.37033 15.5806 8.42078 15.6006 8.4742 15.6092L14.6784 16.5889C14.9863 16.6371 15.2096 16.8987 15.2096 17.2107C15.2096 17.5572 14.9273 17.8395 14.5805 17.8395H8.90305C7.9897 17.8395 7.07525 17.6236 6.25836 17.2151L4.12896 16.1504C3.42633 15.7991 2.63986 15.6136 1.85488 15.6136H0V16.3556H1.85488C2.5256 16.3556 3.19707 16.514 3.79694 16.8141L5.92634 17.8788C6.84599 18.3384 7.87507 18.5814 8.90305 18.5814H14.5805C15.3365 18.5814 15.9516 17.9663 15.9516 17.2107C15.9516 16.5314 15.4649 15.962 14.7945 15.8559L9.16236 14.9666L9.34414 14.6936C9.45988 14.5203 9.53927 14.3289 9.58861 14.1297ZM15.9891 13.3878C16.1371 12.6621 16.7099 12.0893 17.4355 11.9413V13.3878H15.9891ZM17.4355 9.64053C16.7099 9.49251 16.1371 8.91973 15.9891 8.1941H17.4355V9.64053ZM7.0107 8.1941C6.86268 8.91973 6.28989 9.49251 5.56426 9.64053V8.1941H7.0107ZM8.97279 12.3004L7.54973 11.1619H8.90305V10.42H7.41914V11.0577L6.83523 10.5906C6.64937 10.4418 6.4509 10.3101 6.24352 10.1963C7.04446 9.84012 7.63134 9.09075 7.76044 8.19447H15.2393C15.4029 9.32928 16.3007 10.227 17.4355 10.3906V11.192C16.3007 11.3556 15.4029 12.2533 15.2393 13.3881H9.61569C9.54075 12.9622 9.31743 12.5764 8.97279 12.3004Z" fill="#AF8E2F"/>
<path d="M11.4999 12.6458C12.5227 12.6458 13.3548 11.8137 13.3548 10.7909C13.3548 9.76813 12.5227 8.93604 11.4999 8.93604C10.4771 8.93604 9.64502 9.76813 9.64502 10.7909C9.64502 11.8137 10.4771 12.6458 11.4999 12.6458ZM11.4999 9.67799C12.1135 9.67799 12.6128 10.1773 12.6128 10.7909C12.6128 11.4045 12.1135 11.9038 11.4999 11.9038C10.8863 11.9038 10.387 11.4045 10.387 10.7909C10.387 10.1773 10.8863 9.67799 11.4999 9.67799Z" fill="#AF8E2F"/>
<path d="M14.0966 10.4199H15.5805V11.1619H14.0966V10.4199Z" fill="#AF8E2F"/>
<path d="M14.0966 1.88737H12.6127V1.14542C12.6127 1.01669 12.5459 0.897612 12.4365 0.829723C12.327 0.761834 12.1905 0.755899 12.0755 0.8134L7.62378 3.03925C7.4984 3.10232 7.41901 3.23068 7.41901 3.37128C7.41901 3.51188 7.49839 3.64023 7.62416 3.7033L12.0759 5.92915C12.1912 5.98628 12.3278 5.98035 12.4368 5.91283C12.5459 5.84494 12.6127 5.72586 12.6127 5.59713V4.85518H14.0966C17.3693 4.85518 20.0322 7.51804 20.0322 10.7908C20.0322 10.9956 20.198 11.1618 20.4032 11.1618H22.629C22.8342 11.1618 23 10.9956 23 10.7908C23 5.88167 19.0057 1.88737 14.0966 1.88737ZM20.7641 10.4198C20.5708 6.90964 17.6542 4.11323 14.0966 4.11323H12.2417C12.0365 4.11323 11.8707 4.27943 11.8707 4.4842V4.99689L8.61948 3.37128L11.8707 1.74566V2.25835C11.8707 2.46313 12.0365 2.62933 12.2417 2.62933H14.0966C18.4726 2.62933 22.0547 6.09127 22.2499 10.4198H20.7641Z" fill="#AF8E2F"/>
</svg>
