<svg width="24" height="24" viewBox="0 0 24 24" fill="none" xmlns="http://www.w3.org/2000/svg">
<g clip-path="url(#clip0_1_2224)">
<path d="M21.375 13.9125V13.83C21.3741 13.0473 21.0629 12.2968 20.5098 11.7429C19.9566 11.1891 19.2066 10.877 18.4238 10.875H9.33004C8.6696 10.8754 8.02837 11.0973 7.50896 11.5052C6.98955 11.9131 6.62197 12.4835 6.46504 13.125L3.43504 10.32C3.41606 10.303 3.4009 10.2822 3.39055 10.259C3.38021 10.2357 3.37492 10.2105 3.37504 10.185V8.81252C3.37641 8.59639 3.32391 8.38332 3.2223 8.19255C3.12069 8.00179 2.97316 7.83934 2.79303 7.71988C2.61291 7.60041 2.40586 7.5277 2.1906 7.5083C1.97533 7.48891 1.75862 7.52344 1.56004 7.60877C1.31422 7.71968 1.10641 7.90035 0.962402 8.12836C0.818397 8.35636 0.744553 8.62165 0.750041 8.89127V21.9375C0.747142 22.1109 0.77881 22.283 0.843196 22.444C0.907583 22.605 1.0034 22.7515 1.12504 22.875C1.30832 23.0598 1.54323 23.1849 1.79889 23.2338C2.05456 23.2826 2.31902 23.253 2.55754 23.1488C2.80566 23.0392 3.01573 22.8585 3.16123 22.6295C3.30673 22.4006 3.38113 22.1337 3.37504 21.8625V19.6875C3.37504 19.6378 3.3948 19.5901 3.42996 19.5549C3.46512 19.5198 3.51281 19.5 3.56254 19.5H20.4375C20.4873 19.5 20.535 19.5198 20.5701 19.5549C20.6053 19.5901 20.625 19.6378 20.625 19.6875V21.9375C20.6241 22.1092 20.657 22.2794 20.7219 22.4384C20.7868 22.5973 20.8824 22.7419 21.0033 22.8638C21.1242 22.9857 21.2679 23.0826 21.4263 23.1489C21.5847 23.2152 21.7546 23.2495 21.9263 23.25C22.1033 23.2508 22.2785 23.2137 22.44 23.1413C22.6856 23.031 22.8932 22.851 23.0373 22.6237C23.1813 22.3963 23.2553 22.1316 23.25 21.8625V16.125C23.2486 15.5943 23.0597 15.0812 22.7166 14.6764C22.3735 14.2715 21.8983 14.001 21.375 13.9125ZM7.12504 13.83C7.12603 13.2455 7.35866 12.6853 7.77197 12.2719C8.18527 11.8586 8.74554 11.626 9.33004 11.625H18.4238C19.0076 11.627 19.567 11.8601 19.9794 12.2733C20.3919 12.6865 20.6241 13.2462 20.625 13.83V16.5H7.12504V13.83ZM22.5 21.8625C22.5038 21.9846 22.4726 22.1052 22.4102 22.2102C22.3477 22.3151 22.2566 22.4001 22.1475 22.455C22.0464 22.4991 21.9342 22.5116 21.8258 22.4909C21.7174 22.4702 21.6178 22.4171 21.54 22.3388C21.4873 22.2861 21.4456 22.2236 21.4173 22.1547C21.389 22.0858 21.3746 22.012 21.375 21.9375V19.6875C21.3741 19.4392 21.275 19.2013 21.0994 19.0257C20.9238 18.8501 20.6859 18.751 20.4375 18.75H3.56254C3.3142 18.751 3.07632 18.8501 2.90072 19.0257C2.72512 19.2013 2.62603 19.4392 2.62504 19.6875V21.8625C2.62881 21.9846 2.59764 22.1052 2.53519 22.2102C2.47274 22.3151 2.38162 22.4001 2.27254 22.455C2.17136 22.4991 2.05921 22.5116 1.9508 22.4909C1.84239 22.4702 1.74278 22.4171 1.66504 22.3388C1.61234 22.2861 1.57062 22.2236 1.5423 22.1547C1.51398 22.0858 1.49961 22.012 1.50004 21.9375V8.89127C1.49534 8.76903 1.52612 8.64803 1.58867 8.5429C1.65122 8.43776 1.74287 8.35298 1.85254 8.29877C1.95352 8.25359 2.06593 8.24051 2.17458 8.2613C2.28324 8.2821 2.38288 8.33576 2.46004 8.41502C2.56556 8.52041 2.62491 8.66339 2.62504 8.81252V10.185C2.62468 10.3145 2.65115 10.4427 2.70278 10.5614C2.75442 10.6802 2.83009 10.787 2.92504 10.875L6.37504 14.0663V16.875C6.37504 16.9745 6.41455 17.0699 6.48488 17.1402C6.5552 17.2105 6.65059 17.25 6.75004 17.25H21C21.0995 17.25 21.1949 17.2105 21.2652 17.1402C21.3355 17.0699 21.375 16.9745 21.375 16.875V14.6813C21.6956 14.764 21.9798 14.9505 22.1833 15.2117C22.3868 15.4728 22.4981 15.794 22.5 16.125V21.8625Z" fill="#AF8E2F"/>
<path d="M7.875 4.875C7.875 5.69085 8.11693 6.48838 8.57019 7.16673C9.02345 7.84508 9.66769 8.37379 10.4214 8.686C11.1752 8.99821 12.0046 9.0799 12.8047 8.92074C13.6049 8.76158 14.3399 8.36871 14.9168 7.79182C15.4937 7.21492 15.8866 6.47992 16.0457 5.67975C16.2049 4.87958 16.1232 4.05018 15.811 3.29643C15.4988 2.54269 14.9701 1.89845 14.2917 1.44519C13.6134 0.991927 12.8158 0.75 12 0.75C10.906 0.75 9.85677 1.1846 9.08318 1.95818C8.3096 2.73177 7.875 3.78098 7.875 4.875ZM12 1.5C12.6675 1.5 13.32 1.69794 13.8751 2.06879C14.4301 2.43964 14.8626 2.96674 15.1181 3.58344C15.3735 4.20014 15.4404 4.87874 15.3102 5.53343C15.1799 6.18812 14.8585 6.78948 14.3865 7.26149C13.9145 7.73349 13.3131 8.05493 12.6584 8.18515C12.0037 8.31538 11.3251 8.24854 10.7084 7.99309C10.0917 7.73765 9.56464 7.30507 9.19379 6.75005C8.82294 6.19503 8.625 5.54251 8.625 4.875C8.625 3.97989 8.98058 3.12145 9.61352 2.48851C10.2465 1.85558 11.1049 1.5 12 1.5Z" fill="#AF8E2F"/>
<path d="M9.75 6H10.875V7.125C10.875 7.22446 10.9145 7.31984 10.9848 7.39017C11.0552 7.46049 11.1505 7.5 11.25 7.5H12.75C12.8495 7.5 12.9448 7.46049 13.0152 7.39017C13.0855 7.31984 13.125 7.22446 13.125 7.125V6H14.25C14.3495 6 14.4448 5.96049 14.5152 5.89016C14.5855 5.81984 14.625 5.72446 14.625 5.625V4.125C14.625 4.02554 14.5855 3.93016 14.5152 3.85984C14.4448 3.78951 14.3495 3.75 14.25 3.75H13.125V2.625C13.125 2.52554 13.0855 2.43016 13.0152 2.35984C12.9448 2.28951 12.8495 2.25 12.75 2.25H11.25C11.1505 2.25 11.0552 2.28951 10.9848 2.35984C10.9145 2.43016 10.875 2.52554 10.875 2.625V3.75H9.75C9.65054 3.75 9.55516 3.78951 9.48483 3.85984C9.41451 3.93016 9.375 4.02554 9.375 4.125V5.625C9.375 5.72446 9.41451 5.81984 9.48483 5.89016C9.55516 5.96049 9.65054 6 9.75 6ZM10.125 4.5H11.25C11.3495 4.5 11.4448 4.46049 11.5152 4.39016C11.5855 4.31984 11.625 4.22446 11.625 4.125V3H12.375V4.125C12.375 4.22446 12.4145 4.31984 12.4848 4.39016C12.5552 4.46049 12.6505 4.5 12.75 4.5H13.875V5.25H12.75C12.6505 5.25 12.5552 5.28951 12.4848 5.35984C12.4145 5.43016 12.375 5.52554 12.375 5.625V6.75H11.625V5.625C11.625 5.52554 11.5855 5.43016 11.5152 5.35984C11.4448 5.28951 11.3495 5.25 11.25 5.25H10.125V4.5Z" fill="#AF8E2F"/>
<path d="M6 7.5C5.62916 7.5 5.26665 7.60997 4.95831 7.81599C4.64996 8.02202 4.40964 8.31486 4.26773 8.65747C4.12581 9.00008 4.08868 9.37708 4.16103 9.74079C4.23338 10.1045 4.41195 10.4386 4.67418 10.7008C4.9364 10.963 5.27049 11.1416 5.63421 11.214C5.99792 11.2863 6.37492 11.2492 6.71753 11.1073C7.06014 10.9654 7.35298 10.725 7.55901 10.4167C7.76503 10.1084 7.875 9.74584 7.875 9.375C7.875 8.87772 7.67746 8.40081 7.32583 8.04917C6.9742 7.69754 6.49728 7.5 6 7.5ZM6 10.5C5.7775 10.5 5.55999 10.434 5.37498 10.3104C5.18998 10.1868 5.04579 10.0111 4.96064 9.80552C4.87549 9.59995 4.85321 9.37375 4.89662 9.15552C4.94003 8.93729 5.04717 8.73684 5.20451 8.5795C5.36184 8.42217 5.5623 8.31502 5.78052 8.27162C5.99875 8.22821 6.22495 8.25049 6.43052 8.33564C6.63609 8.42078 6.81179 8.56498 6.9354 8.74998C7.05902 8.93499 7.125 9.1525 7.125 9.375C7.125 9.67337 7.00647 9.95952 6.7955 10.1705C6.58452 10.3815 6.29837 10.5 6 10.5Z" fill="#AF8E2F"/>
</g>
<defs>
<clipPath id="clip0_1_2224">
<rect width="24" height="24" fill="white"/>
</clipPath>
</defs>
</svg>
