<svg width="26" height="26" viewBox="0 0 26 26" fill="none" xmlns="http://www.w3.org/2000/svg">
<g clip-path="url(#clip0_1_2185)">
<path d="M10.1627 16.1801H19.4524C19.6843 16.1801 19.8718 15.9922 19.8718 15.7607V9.05095C19.8718 8.81947 19.6843 8.63159 19.4524 8.63159H5.19413C4.96222 8.63159 4.77477 8.81947 4.77477 9.05095V11.1989C4.55502 11.1675 4.33318 11.1478 4.10966 11.1478C3.38291 11.1478 2.6549 11.3197 2.00447 11.6447L1.51884 11.8875C0.840737 12.2268 0.0816921 12.4058 -0.676514 12.4058V13.2446C0.210855 13.2446 1.0999 13.0349 1.89417 12.6378L2.37979 12.3949C3.69827 11.7365 5.37655 11.9148 6.52602 12.834L8.9428 14.7673C9.22587 14.9941 9.38817 15.3317 9.38817 15.6936C9.38817 15.9289 9.31939 16.1566 9.18855 16.352L8.85222 16.8565L5.42688 14.5731L4.9618 15.2709L8.73606 17.7871C8.78554 17.8202 8.84258 17.8429 8.90296 17.8525L15.9164 18.96C16.2644 19.0146 16.5169 19.3102 16.5169 19.6629C16.5169 20.0546 16.1978 20.3737 15.8057 20.3737H9.38775C8.35528 20.3737 7.32155 20.1296 6.39812 19.6679L3.99098 18.4644C3.19671 18.0672 2.30766 17.8575 1.42029 17.8575H-0.676514V18.6963H1.42029C2.1785 18.6963 2.93754 18.8753 3.61565 19.2146L6.02279 20.4182C7.06239 20.9378 8.22569 21.2124 9.38775 21.2124H15.8057C16.6603 21.2124 17.3556 20.5171 17.3556 19.6629C17.3556 18.895 16.8054 18.2513 16.0476 18.1314L9.68088 17.1262L9.88637 16.8175C10.0172 16.6217 10.107 16.4053 10.1627 16.1801ZM17.398 15.3414C17.5653 14.5211 18.2128 13.8736 19.0331 13.7063V15.3414H17.398ZM19.0331 11.1054C18.2128 10.9381 17.5653 10.2906 17.398 9.47031H19.0331V11.1054ZM7.24858 9.47031C7.08126 10.2906 6.43376 10.9381 5.61349 11.1054V9.47031H7.24858ZM9.46659 14.1122L7.85791 12.8252H9.38775V11.9865H7.7103V12.7074L7.05022 12.1794C6.84012 12.0112 6.61577 11.8624 6.38134 11.7336C7.28674 11.331 7.95017 10.4839 8.09611 9.47073H16.5504C16.7354 10.7536 17.7502 11.7684 19.0331 11.9534V12.8592C17.7502 13.0441 16.7354 14.059 16.5504 15.3418H10.1933C10.1086 14.8604 9.85617 14.4242 9.46659 14.1122Z" fill="#AF8E2F"/>
<path d="M12.3231 14.5027C13.4793 14.5027 14.4199 13.5621 14.4199 12.4059C14.4199 11.2497 13.4793 10.3091 12.3231 10.3091C11.1669 10.3091 10.2263 11.2497 10.2263 12.4059C10.2263 13.5621 11.1669 14.5027 12.3231 14.5027ZM12.3231 11.1478C13.0168 11.1478 13.5812 11.7123 13.5812 12.4059C13.5812 13.0995 13.0168 13.664 12.3231 13.664C11.6295 13.664 11.065 13.0995 11.065 12.4059C11.065 11.7123 11.6295 11.1478 12.3231 11.1478Z" fill="#AF8E2F"/>
<path d="M15.2588 11.9866H16.9362V12.8253H15.2588V11.9866Z" fill="#AF8E2F"/>
<path d="M15.2587 2.34116H13.5813V1.50244C13.5813 1.35692 13.5058 1.22231 13.3821 1.14556C13.2584 1.06882 13.104 1.06211 12.974 1.12711L7.94169 3.64328C7.79995 3.71457 7.71021 3.85967 7.71021 4.01861C7.71021 4.17755 7.79995 4.32265 7.94211 4.39394L12.9745 6.91011C13.1049 6.97469 13.2592 6.96798 13.3825 6.89165C13.5058 6.81491 13.5813 6.6803 13.5813 6.53478V5.69605H15.2587C18.9583 5.69605 21.9685 8.70623 21.9685 12.4058C21.9685 12.6373 22.156 12.8252 22.3879 12.8252H24.904C25.1359 12.8252 25.3234 12.6373 25.3234 12.4058C25.3234 6.85643 20.8081 2.34116 15.2587 2.34116ZM22.7959 11.9865C22.5774 8.01848 19.2804 4.85733 15.2587 4.85733H13.1619C12.93 4.85733 12.7425 5.04521 12.7425 5.27669V5.85625L9.06726 4.01861L12.7425 2.18097V2.76052C12.7425 2.99201 12.93 3.17989 13.1619 3.17989H15.2587C20.2055 3.17989 24.2549 7.09337 24.4754 11.9865H22.7959Z" fill="#AF8E2F"/>
</g>
<defs>
<clipPath id="clip0_1_2185">
<rect width="26" height="26" fill="white"/>
</clipPath>
</defs>
</svg>
