<svg width="24" height="26" viewBox="0 0 24 26" fill="none" xmlns="http://www.w3.org/2000/svg">
<path d="M23.9465 8.1512C23.8405 7.97562 23.6122 7.91922 23.4367 8.02518L21.7518 9.0423C21.7053 9.07037 21.6656 9.1083 21.6353 9.15341L20.8224 10.3656C19.9527 11.6627 18.6317 12.5524 17.1028 12.8708L15.738 13.1551C15.7245 13.1579 15.7111 13.1614 15.698 13.1657L7.94149 15.7077C7.62543 15.8114 7.27466 15.7053 7.06887 15.4439C6.92339 15.2591 6.86729 15.0209 6.91502 14.7905C6.9628 14.5602 7.10888 14.3639 7.3159 14.2521L9.82702 12.8957C10.0075 12.7982 10.0748 12.5729 9.97725 12.3925C9.87981 12.212 9.65446 12.1447 9.47402 12.2422L8.03161 13.0213L9.32255 9.88343L11.905 10.6147C11.9958 10.6404 12.0168 10.7118 12.0212 10.7521C12.0257 10.7924 12.0207 10.8667 11.9376 10.9116L10.8856 11.4798C10.7051 11.5773 10.6379 11.8026 10.7354 11.9831C10.8025 12.1074 10.9304 12.1781 11.0625 12.1781C11.122 12.1781 11.1825 12.1636 11.2386 12.1334L12.2907 11.5651C12.616 11.3894 12.8 11.0384 12.7596 10.6709C12.7191 10.3034 12.4631 10.0008 12.1073 9.90011L9.60707 9.19213L10.7141 6.50122C10.7921 6.31152 10.7017 6.09454 10.512 6.01646C10.3225 5.93842 10.1053 6.02889 10.0273 6.21863L6.9991 13.5791L6.96295 13.5986C6.56266 13.8149 6.28012 14.1944 6.18783 14.6399C6.13207 14.9089 6.15005 15.1833 6.23462 15.4373L5.31882 17.6633C5.25648 17.8148 5.08238 17.8874 4.93096 17.825L4.14127 17.5001L10.8433 1.20982C10.9018 1.06766 11.0121 0.956841 11.154 0.897669C11.2959 0.838447 11.4523 0.83815 11.5945 0.896629C11.8879 1.01735 12.0285 1.35436 11.9077 1.64784L10.6347 4.74196C10.5567 4.93166 10.6472 5.14864 10.8369 5.22672C11.0264 5.30481 11.2436 5.21429 11.3216 5.02455L12.0624 3.22404L16.5369 3.38051C16.5506 3.38096 16.5643 3.3812 16.5781 3.3812C16.7384 3.3812 16.8999 3.34857 17.0474 3.28613L23.1213 0.713468C23.3101 0.63345 23.3984 0.415529 23.3184 0.226625C23.2384 0.0377206 23.0203 -0.0504678 22.8316 0.0295009L16.7578 2.60212C16.6966 2.62801 16.6293 2.64054 16.5628 2.63816L12.3638 2.49135L12.5946 1.93038C12.8711 1.25815 12.5492 0.486239 11.877 0.20969C11.5514 0.0757491 11.1931 0.0765908 10.868 0.212117C10.5431 0.347643 10.2903 0.601611 10.1564 0.92723L9.55329 2.39306L9.42569 2.3886C8.12272 2.34369 6.94013 3.08262 6.41001 4.27255L4.02719 9.62168C3.9437 9.80905 4.02793 10.0286 4.2153 10.112C4.26437 10.1339 4.31567 10.1443 4.36622 10.1443C4.50838 10.1443 4.64406 10.0622 4.70561 9.92393L7.08848 4.57479C7.47431 3.7087 8.31311 3.15432 9.24991 3.13055L5.13922 13.1221L4.63906 13.8681C4.45748 14.1389 4.12275 14.2682 3.80649 14.1901C3.58238 14.1347 3.39566 13.984 3.2942 13.7766C3.19279 13.5692 3.18853 13.3293 3.28246 13.1184L4.05798 11.3775C4.14147 11.1902 4.05724 10.9707 3.86987 10.8872C3.68275 10.8037 3.46295 10.8879 3.37956 11.0753L2.60404 12.8162C2.42038 13.2284 2.42875 13.6974 2.62702 14.1029C2.82523 14.5083 3.19021 14.803 3.62838 14.9112C3.74866 14.9409 3.87017 14.9552 3.99059 14.9552C4.13325 14.9552 4.27412 14.9344 4.4096 14.8957L3.31643 17.5528L0.0424671 24.6208C-0.0419085 24.803 0.00196288 25.0153 0.1517 25.1491C0.237363 25.2257 0.344764 25.2649 0.453155 25.2649C0.534064 25.2649 0.615518 25.2431 0.688901 25.1985L2.99596 23.7968C4.39534 22.9466 5.2845 21.4629 5.37447 19.828L5.44711 18.5086C5.70207 18.4014 5.90038 18.2017 6.00561 17.9458L6.74092 16.1586C7.01351 16.3731 7.3517 16.4895 7.69678 16.4895C7.85598 16.4895 8.01661 16.4647 8.17288 16.4135L8.35223 16.3547L8.52123 16.6622C8.79594 17.162 9.31473 17.4513 9.85539 17.4513C10.0472 17.4513 10.2418 17.4149 10.4291 17.3385C10.8175 17.1803 11.1226 16.8684 11.2736 16.4785C11.5157 16.6311 11.7973 16.7139 12.0856 16.7139C12.2774 16.7139 12.4719 16.6775 12.6593 16.6012C13.0633 16.4367 13.3775 16.1061 13.5216 15.6944C13.6392 15.3581 13.6342 14.9934 13.5122 14.6637L15.9097 13.8779L17.2544 13.5979C18.9745 13.2396 20.4608 12.2386 21.4394 10.7793L22.2063 9.6355L23.8206 8.66102C23.9961 8.55505 24.0525 8.32679 23.9465 8.1512ZM2.61023 23.1621L1.11628 24.0698L3.84398 18.181L4.64827 18.5119C4.66599 18.5192 4.68407 18.5248 4.70199 18.531L4.63282 19.7873C4.55632 21.1774 3.80025 22.4391 2.61023 23.1621ZM10.5903 16.1864C10.5154 16.4003 10.3586 16.5652 10.1488 16.6507C9.78251 16.8 9.36256 16.6511 9.17202 16.3044L9.07031 16.1194L10.573 15.6269C10.6487 15.8048 10.6553 16.0004 10.5903 16.1864ZM12.8205 15.4492C12.7456 15.663 12.5888 15.8279 12.379 15.9134C12.0126 16.0627 11.5928 15.9138 11.4022 15.5671L11.3035 15.3876L12.8053 14.8954C12.8787 15.0717 12.8848 15.2651 12.8205 15.4492Z" fill="#AF8E2F"/>
<path d="M5.9257 24.4482H3.55497C3.34982 24.4482 3.18359 24.6145 3.18359 24.8196C3.18359 25.0247 3.34982 25.191 3.55497 25.191H5.9257C6.13085 25.191 6.29707 25.0247 6.29707 24.8196C6.29707 24.6145 6.13085 24.4482 5.9257 24.4482Z" fill="#AF8E2F"/>
<path d="M8.13395 24.4482H7.50614C7.30099 24.4482 7.13477 24.6145 7.13477 24.8196C7.13477 25.0247 7.30099 25.191 7.50614 25.191H8.13395C8.3391 25.191 8.50533 25.0247 8.50533 24.8196C8.50533 24.6145 8.3391 24.4482 8.13395 24.4482Z" fill="#AF8E2F"/>
<path d="M10.3896 24.4482H9.76175C9.55661 24.4482 9.39038 24.6145 9.39038 24.8196C9.39038 25.0247 9.55661 25.191 9.76175 25.191H10.3896C10.5948 25.191 10.761 25.0247 10.761 24.8196C10.761 24.6145 10.5947 24.4482 10.3896 24.4482Z" fill="#AF8E2F"/>
<path d="M12.6452 24.4482H12.0174C11.8122 24.4482 11.646 24.6145 11.646 24.8196C11.646 25.0247 11.8122 25.191 12.0174 25.191H12.6452C12.8504 25.191 13.0166 25.0247 13.0166 24.8196C13.0166 24.6145 12.8504 24.4482 12.6452 24.4482Z" fill="#AF8E2F"/>
<path d="M14.9011 24.4482H14.2732C14.0681 24.4482 13.9019 24.6145 13.9019 24.8196C13.9019 25.0247 14.0681 25.191 14.2732 25.191H14.9011C15.1062 25.191 15.2725 25.0247 15.2725 24.8196C15.2725 24.6145 15.1062 24.4482 14.9011 24.4482Z" fill="#AF8E2F"/>
<path d="M17.157 24.4482H16.5291C16.3239 24.4482 16.1577 24.6145 16.1577 24.8196C16.1577 25.0247 16.3239 25.191 16.5291 25.191H17.157C17.3621 25.191 17.5283 25.0247 17.5283 24.8196C17.5283 24.6145 17.362 24.4482 17.157 24.4482Z" fill="#AF8E2F"/>
<path d="M19.4126 24.4482H18.7847C18.5796 24.4482 18.4133 24.6145 18.4133 24.8196C18.4133 25.0247 18.5796 25.191 18.7847 25.191H19.4126C19.6177 25.191 19.7839 25.0247 19.7839 24.8196C19.7839 24.6145 19.6177 24.4482 19.4126 24.4482Z" fill="#AF8E2F"/>
</svg>
