<svg width="20" height="22" viewBox="0 0 20 22" fill="none" xmlns="http://www.w3.org/2000/svg">
<path d="M19.6528 17.3769L16.0809 12.4444C15.9109 12.2102 15.688 12.0195 15.4303 11.8879C15.1726 11.7563 14.8874 11.6874 14.598 11.687H10.0245V10.7079H13.5733C13.9366 10.7037 14.2836 10.5564 14.539 10.298C14.7944 10.0396 14.9377 9.69094 14.9377 9.32761C14.9377 8.96428 14.7944 8.61561 14.539 8.35721C14.2836 8.09882 13.9366 7.95155 13.5733 7.94735H10.0245V6.35713C10.0243 6.07823 9.96028 5.80307 9.83732 5.55273C9.71436 5.30239 9.53573 5.08351 9.31512 4.91286C9.84258 4.65878 10.2681 4.23313 10.5221 3.70562C10.7761 3.17811 10.8434 2.58 10.7131 2.00922C10.5828 1.43844 10.2626 0.928821 9.80482 0.563803C9.34708 0.198784 8.77896 0 8.19349 0C7.60803 0 7.03991 0.198784 6.58216 0.563803C6.12442 0.928821 5.80417 1.43844 5.67386 2.00922C5.54355 2.58 5.61089 3.17811 5.86487 3.70562C6.11885 4.23313 6.54441 4.65878 7.07186 4.91286C6.85122 5.08348 6.67258 5.30235 6.54961 5.5527C6.42665 5.80304 6.36263 6.07822 6.36247 6.35713V8.34786C5.06926 8.41037 3.82203 8.84706 2.77226 9.60488C1.72249 10.3627 0.915371 11.4091 0.448924 12.6168C-0.0175227 13.8246 -0.12322 15.1419 0.14467 16.4086C0.412561 17.6753 1.04251 18.8369 1.95801 19.7524C2.8735 20.668 4.03514 21.2979 5.30184 21.5659C6.56854 21.8338 7.88578 21.7281 9.09357 21.2617C10.3014 20.7953 11.3477 19.9882 12.1056 18.9385C12.8634 17.8887 13.3002 16.6415 13.3627 15.3483H13.6625L16.6861 19.5244C16.8266 19.7196 17.0045 19.885 17.2094 20.0111C17.4143 20.1371 17.6421 20.2212 17.8797 20.2586C17.9767 20.2741 18.0748 20.282 18.1731 20.282C18.5101 20.2812 18.8404 20.1873 19.1276 20.0108C19.4147 19.8343 19.6476 19.5819 19.8006 19.2815C19.9535 18.9812 20.0206 18.6444 19.9945 18.3084C19.9684 17.9723 19.85 17.65 19.6524 17.3769H19.6528ZM6.2557 2.58832C6.2557 2.20509 6.36934 1.83046 6.58225 1.51181C6.79516 1.19316 7.09777 0.944797 7.45183 0.798131C7.80589 0.651466 8.19549 0.613082 8.57136 0.687834C8.94723 0.762586 9.2925 0.947116 9.5635 1.21809C9.8345 1.48906 10.0191 1.83431 10.0939 2.21018C10.1686 2.58604 10.1303 2.97565 9.98366 3.32972C9.83703 3.68379 9.5887 3.98643 9.27007 4.19937C8.95144 4.41231 8.57682 4.52599 8.19359 4.52602C7.67981 4.52553 7.18721 4.32123 6.8239 3.95795C6.46058 3.59468 6.25624 3.1021 6.2557 2.58832ZM8.19359 15.3483H10.9894C10.9277 16.1722 10.6308 16.9611 10.134 17.6213C9.63718 18.2814 8.96133 18.7852 8.18672 19.0726C7.41211 19.36 6.57127 19.4191 5.76408 19.2428C4.95688 19.0665 4.21724 18.6623 3.633 18.078C3.04876 17.4938 2.64447 16.7542 2.46814 15.947C2.29182 15.1398 2.35086 14.299 2.63827 13.5244C2.92568 12.7497 3.42937 12.0739 4.08953 11.577C4.74968 11.0802 5.53856 10.7833 6.36247 10.7215V13.5175C6.36306 14.003 6.55618 14.4683 6.89947 14.8115C7.24275 15.1548 7.70816 15.3478 8.19359 15.3483ZM6.68576 21.064C5.11168 21.0648 3.5995 20.451 2.47137 19.3532C1.34325 18.2554 0.688349 16.7606 0.646199 15.1871C0.60405 13.6135 1.17798 12.0857 2.24572 10.9292C3.31346 9.77259 4.79061 9.07865 6.36247 8.99517V10.0733C5.41039 10.1353 4.49637 10.4705 3.72987 11.0386C2.96337 11.6068 2.37688 12.3838 2.04063 13.2767C1.70439 14.1696 1.63264 15.1405 1.83399 16.0731C2.03533 17.0057 2.50123 17.8605 3.17589 18.5352C3.85056 19.2098 4.70538 19.6757 5.638 19.877C6.57063 20.0783 7.54151 20.0065 8.43438 19.6702C9.32726 19.334 10.1043 18.7474 10.6724 17.9809C11.2405 17.2144 11.5756 16.3004 11.6376 15.3483H12.7161C12.6317 16.8911 11.9597 18.3431 10.8383 19.4061C9.7168 20.469 8.23093 21.0623 6.68576 21.064ZM18.864 19.4101C18.6095 19.5942 18.2923 19.6697 17.9822 19.62C17.672 19.5704 17.3943 19.3996 17.21 19.1452L14.0898 14.8354C14.0599 14.7941 14.0205 14.7604 13.975 14.7371C13.9295 14.7139 13.8792 14.7017 13.8281 14.7017H8.19359C7.87958 14.7014 7.57852 14.5766 7.35645 14.3546C7.13438 14.1326 7.00945 13.8315 7.00905 13.5175V6.35713C7.0071 6.20035 7.03629 6.04473 7.09493 5.89931C7.15358 5.75389 7.24051 5.62156 7.35069 5.51C7.46087 5.39843 7.5921 5.30985 7.73678 5.2494C7.88145 5.18894 8.03669 5.15781 8.19349 5.15781C8.35029 5.15781 8.50553 5.18894 8.65021 5.2494C8.79489 5.30985 8.92612 5.39843 9.0363 5.51C9.14648 5.62156 9.23341 5.75389 9.29206 5.89931C9.3507 6.04473 9.37989 6.20035 9.37793 6.35713V8.27101C9.37791 8.31347 9.38626 8.35552 9.40249 8.39475C9.41873 8.43399 9.44254 8.46964 9.47257 8.49966C9.50259 8.52969 9.53824 8.5535 9.57748 8.56974C9.61671 8.58597 9.65876 8.59432 9.70122 8.5943H13.5733C13.7659 8.59735 13.9495 8.67599 14.0846 8.81325C14.2197 8.95051 14.2954 9.13539 14.2954 9.32798C14.2954 9.52057 14.2197 9.70544 14.0846 9.8427C13.9495 9.97996 13.7659 10.0586 13.5733 10.0617H9.70122C9.61548 10.0617 9.53325 10.0957 9.47262 10.1563C9.41199 10.217 9.37793 10.2992 9.37793 10.3849V12.0106C9.37791 12.0531 9.38626 12.0951 9.40249 12.1344C9.41873 12.1736 9.44254 12.2093 9.47257 12.2393C9.50259 12.2693 9.53824 12.2931 9.57748 12.3094C9.61671 12.3256 9.65876 12.3339 9.70122 12.3339H14.5979C14.7851 12.3342 14.9696 12.3787 15.1363 12.4638C15.303 12.549 15.4472 12.6723 15.5572 12.8238L19.1289 17.7563C19.3128 18.0109 19.3883 18.3281 19.3386 18.6383C19.2889 18.9484 19.1182 19.2262 18.864 19.4106V19.4101Z" fill="#AF8E2F"/>
</svg>
