<svg width="24" height="24" viewBox="0 0 24 24" fill="none" xmlns="http://www.w3.org/2000/svg">
<path d="M22.8127 16.5C22.7066 16.5 22.6051 16.4601 22.5209 16.3956C22.064 16.0453 21.4986 15.8624 20.9198 15.8811C20.286 15.9015 19.6837 16.162 19.2349 16.6098C18.9072 16.937 18.463 17.1207 18 17.1207C17.537 17.1207 17.0928 16.937 16.7651 16.6098C16.2966 16.1424 15.6618 15.8798 15 15.8798C14.3382 15.8798 13.7033 16.1424 13.2349 16.6098C12.9072 16.937 12.463 17.1207 12 17.1207C11.537 17.1207 11.0928 16.937 10.7651 16.6098C10.2966 16.1424 9.66183 15.8798 8.99999 15.8798C8.33815 15.8798 7.70335 16.1424 7.23486 16.6098C6.90715 16.937 6.46303 17.1207 5.99999 17.1207C5.53695 17.1207 5.09283 16.937 4.76513 16.6098C4.31626 16.162 3.71395 15.9015 3.08019 15.8811C2.50144 15.8624 1.93597 16.0453 1.47911 16.3956C1.39492 16.4601 1.29338 16.5 1.1873 16.5H1.125C0.917893 16.5 0.75 16.6679 0.75 16.875C0.75 17.0821 0.917893 17.25 1.125 17.25H1.49989C1.59938 17.25 1.6948 17.2104 1.76515 17.1401C2.09285 16.813 2.53697 16.6292 3.00001 16.6292C3.46305 16.6292 3.90717 16.813 4.23488 17.1401C4.70336 17.6076 5.33817 17.8701 6.00001 17.8701C6.66185 17.8701 7.29666 17.6076 7.76515 17.1401C8.09285 16.813 8.53697 16.6292 9.00001 16.6292C9.46305 16.6292 9.90717 16.813 10.2349 17.1401C10.7034 17.6076 11.3382 17.8701 12 17.8701C12.6618 17.8701 13.2967 17.6076 13.7651 17.1401C14.0929 16.813 14.537 16.6292 15 16.6292C15.4631 16.6292 15.9072 16.813 16.2349 17.1401C16.7034 17.6075 17.3382 17.87 18 17.87C18.6618 17.87 19.2966 17.6075 19.7651 17.1401C20.0929 16.813 20.537 16.6292 21 16.6292C21.4631 16.6292 21.9072 16.813 22.2349 17.1401C22.3052 17.2104 22.4006 17.25 22.5001 17.25H22.875C23.0821 17.25 23.25 17.0821 23.25 16.875C23.25 16.6679 23.0821 16.5 22.875 16.5H22.8127Z" fill="#AF8E2F"/>
<path d="M18.25 19.6067C18.1403 19.7252 18.0073 19.8198 17.8593 19.8845C17.7114 19.9491 17.5516 19.9825 17.3901 19.9825C17.2286 19.9825 17.0689 19.9491 16.9209 19.8845C16.8899 19.8709 16.8596 19.856 16.8299 19.8399C16.6471 19.7404 16.4078 19.7292 16.2606 19.8764C16.1168 20.0201 16.116 20.2565 16.2829 20.3725C16.6182 20.6055 17.0161 20.7383 17.4295 20.7508C17.6845 20.7454 17.9357 20.6882 18.1679 20.5827C18.4001 20.4771 18.6085 20.3255 18.7803 20.137C18.8902 20.0185 19.0234 19.9241 19.1715 19.8596C19.3196 19.795 19.4795 19.7618 19.6411 19.7619C19.8027 19.7621 19.9625 19.7956 20.1105 19.8604C20.1388 19.8728 20.1666 19.8863 20.1938 19.9008C20.3815 20.0013 20.6264 20.0126 20.7766 19.8617C20.9183 19.7192 20.9242 19.4866 20.7622 19.3677C20.6494 19.2848 20.5274 19.2145 20.3985 19.1583C20.1593 19.0539 19.9011 19 19.6401 19C19.3791 19 19.121 19.0539 18.8817 19.1583C18.6425 19.2627 18.4275 19.4153 18.25 19.6067Z" fill="#AF8E2F"/>
<path d="M11.7349 19.8563C11.6252 19.9748 11.4921 20.0693 11.3442 20.134C11.1962 20.1986 11.0365 20.232 10.875 20.232C10.7135 20.232 10.5538 20.1986 10.4058 20.134C10.3748 20.1204 10.3444 20.1056 10.3148 20.0894C10.1319 19.9899 9.8927 19.9787 9.74548 20.126C9.60173 20.2697 9.60084 20.5061 9.76779 20.6221C10.1031 20.8551 10.501 20.9879 10.9144 21.0004C11.1694 20.995 11.4206 20.9378 11.6528 20.8323C11.885 20.7267 12.0933 20.5751 12.2651 20.3866C12.375 20.2682 12.5082 20.1737 12.6564 20.1092C12.8045 20.0446 12.9644 20.0114 13.1259 20.0115C13.2875 20.0117 13.4473 20.0452 13.5953 20.11C13.6237 20.1224 13.6515 20.1359 13.6786 20.1504C13.8664 20.2509 14.1113 20.2622 14.2615 20.1113C14.4032 19.9688 14.4091 19.7362 14.2472 19.6172C14.1343 19.5343 14.0124 19.464 13.8834 19.4077C13.6442 19.3032 13.386 19.2493 13.125 19.2493C12.864 19.2493 12.6058 19.3032 12.3666 19.4077C12.1273 19.5121 11.9123 19.6649 11.7349 19.8563Z" fill="#AF8E2F"/>
<path d="M5.37233 19.8754C5.24906 19.9798 5.10556 20.0575 4.95083 20.1037C4.7961 20.1499 4.63348 20.1637 4.47319 20.1441C4.3129 20.1245 4.15839 20.0719 4.01936 19.9898C3.99023 19.9725 3.9619 19.9541 3.93446 19.9345C3.76503 19.8135 3.52889 19.7733 3.36488 19.9016C3.20476 20.0268 3.17518 20.2612 3.32678 20.3966C3.63134 20.6687 4.01016 20.8488 4.41898 20.9114C4.67275 20.937 4.92907 20.9107 5.17237 20.8342C5.41567 20.7577 5.64086 20.6324 5.83426 20.4662C5.95775 20.362 6.10143 20.2844 6.2563 20.2383C6.41117 20.1922 6.57389 20.1786 6.73426 20.1984C6.89463 20.2181 7.04919 20.2708 7.18824 20.3531C7.21487 20.3689 7.24083 20.3856 7.26605 20.4034C7.44016 20.5259 7.68186 20.5669 7.84924 20.4353C8.00721 20.3111 8.04128 20.0809 7.89494 19.9432C7.79302 19.8473 7.68053 19.7627 7.55938 19.6912C7.33462 19.5585 7.08489 19.4737 6.82583 19.442C6.56677 19.4103 6.30396 19.4325 6.05385 19.507C5.80374 19.5816 5.57172 19.707 5.37233 19.8754Z" fill="#AF8E2F"/>
<path d="M9.20833 12.4446C9.23974 12.3512 9.25232 12.2525 9.24535 12.1542C9.23837 12.0559 9.21197 11.9599 9.16768 11.8719L8.37813 10.2928C8.28913 10.1149 8.13312 9.97958 7.94441 9.91668C7.75569 9.85377 7.54972 9.86838 7.37178 9.9573L5.79268 10.7469C5.61475 10.8358 5.47946 10.9918 5.41655 11.1806C5.35364 11.3693 5.36827 11.5753 5.45723 11.7532L6.24678 13.3323C6.29075 13.4205 6.35168 13.4991 6.42608 13.5637C6.50049 13.6283 6.5869 13.6776 6.68037 13.7088C6.77385 13.7399 6.87256 13.7523 6.97084 13.7453C7.06912 13.7383 7.16505 13.7119 7.25313 13.6678L8.83223 12.8782C8.92047 12.8344 8.99915 12.7735 9.06371 12.6991C9.12827 12.6247 9.17742 12.5382 9.20833 12.4446ZM6.91768 12.9969L6.12758 11.4181L7.70723 10.6282L8.49678 12.2073L6.91768 12.9969Z" fill="#AF8E2F"/>
<path d="M12.0791 14.8718C12.1449 15.0042 12.2362 15.1222 12.3479 15.2191C12.4596 15.3159 12.5893 15.3897 12.7297 15.4361C12.8698 15.4832 13.0178 15.502 13.1653 15.4915C13.3127 15.481 13.4566 15.4414 13.5886 15.375L14.4968 14.9209C14.7637 14.7874 14.9667 14.5534 15.061 14.2703C15.1554 13.9872 15.1334 13.6782 15 13.4113L14.5459 12.5031C14.4798 12.371 14.3884 12.2531 14.2768 12.1563C14.1652 12.0594 14.0356 11.9856 13.8954 11.9388C13.7552 11.8921 13.6072 11.8735 13.4598 11.8839C13.3124 11.8944 13.1685 11.9339 13.0364 12L12.1282 12.4541C11.8613 12.5875 11.6583 12.8215 11.564 13.1046C11.4696 13.3877 11.4916 13.6967 11.625 13.9636L12.0791 14.8718ZM12.2754 13.3418C12.2909 13.295 12.3155 13.2517 12.3478 13.2145C12.3801 13.1773 12.4195 13.1469 12.4636 13.125L13.3718 12.6709C13.4238 12.6448 13.4812 12.6311 13.5394 12.631C13.5798 12.6311 13.6199 12.6376 13.6582 12.6504C13.705 12.6659 13.7482 12.6905 13.7854 12.7228C13.8226 12.7551 13.8531 12.7945 13.875 12.8386L14.3291 13.7468C14.3512 13.7909 14.3644 13.8388 14.3679 13.888C14.3714 13.9371 14.3652 13.9864 14.3496 14.0332C14.334 14.0799 14.3094 14.1231 14.2771 14.1603C14.2448 14.1975 14.2055 14.228 14.1614 14.25L13.2532 14.7041C13.2091 14.7262 13.1612 14.7393 13.112 14.7429C13.0629 14.7464 13.0135 14.7402 12.9668 14.7246C12.9201 14.709 12.8768 14.6844 12.8396 14.6521C12.8024 14.6198 12.772 14.5804 12.75 14.5363L12.2959 13.6281C12.2737 13.5841 12.2605 13.5362 12.2569 13.487C12.2534 13.4379 12.2597 13.3885 12.2754 13.3418Z" fill="#AF8E2F"/>
<path d="M11.0434 11.8722C11.1596 11.8721 11.2742 11.8449 11.3781 11.7928L12.9572 11.0032C13.1352 10.9142 13.2705 10.7582 13.3334 10.5695C13.3963 10.3808 13.3816 10.1748 13.2927 9.99685L12.5031 8.41776C12.4141 8.23986 12.2581 8.10458 12.0694 8.04168C11.8807 7.97877 11.6747 7.99338 11.4968 8.0823L9.91768 8.87185C9.73975 8.96083 9.60446 9.11683 9.54155 9.30556C9.47864 9.49428 9.49327 9.70027 9.58223 9.87821L10.3718 11.4573C10.4343 11.5819 10.5302 11.6867 10.6488 11.76C10.7674 11.8332 10.904 11.8721 11.0434 11.8722ZM10.2526 9.54312L11.8322 8.75321L12.6218 10.3323L11.0427 11.1219L10.2526 9.54312Z" fill="#AF8E2F"/>
<path d="M1.54409 11.3932C1.63148 11.3932 1.71767 11.3729 1.79586 11.3338L2.45014 11.0067L4.41756 15.16L5.09542 14.8392L3.12099 10.6714L12.9572 5.75314L18.0402 15.9192L18.7111 15.5837L13.6281 5.41766L14.2716 5.0958C14.378 5.04251 14.4648 4.95682 14.5195 4.85106C14.5741 4.74529 14.5938 4.62492 14.5757 4.50725C14.5576 4.38959 14.5026 4.28071 14.4187 4.19629C14.3347 4.11186 14.2262 4.05625 14.1086 4.03745L5.44442 2.65134C5.32633 2.63264 5.20536 2.65201 5.09903 2.70666C4.99269 2.76131 4.90652 2.8484 4.85299 2.9553L1.0411 10.5791C0.998213 10.6648 0.977957 10.7601 0.982255 10.8559C0.986553 10.9517 1.01526 11.0448 1.06566 11.1263C1.11605 11.2079 1.18646 11.2752 1.2702 11.3219C1.35393 11.3686 1.44821 11.3932 1.54409 11.3932ZM5.46237 3.41343L13.4146 4.68601L13.2927 4.74692L2.12893 10.3286L1.9634 10.4114L5.46237 3.41343Z" fill="#AF8E2F"/>
<path d="M9.58222 14.3782L9.977 15.1677L10.6479 14.8322L10.2531 14.0427C10.1639 13.865 10.0079 13.73 9.81924 13.6671C9.63062 13.6042 9.42477 13.6187 9.24677 13.7072L7.7074 14.477L8.04285 15.1479L9.58222 14.3782Z" fill="#AF8E2F"/>
</svg>
