<svg width="24" height="23" viewBox="0 0 24 23" fill="none" xmlns="http://www.w3.org/2000/svg">
<rect x="0.6" y="0.6" width="22.8" height="18" rx="1.4" stroke="#AF8E2F" stroke-width="1.2"/>
<path d="M12.0001 11.3542C11.5895 11.3542 11.2567 11.687 11.2567 12.0976C11.2567 12.5081 11.5895 12.841 12.0001 12.841C12.4108 12.841 12.7436 12.5081 12.7436 12.0976C12.7436 11.687 12.4108 11.3542 12.0001 11.3542Z" stroke="#AF8E2F" stroke-miterlimit="10" stroke-linecap="round" stroke-linejoin="round"/>
<path d="M12.0001 6.53681C11.5895 6.53681 11.2567 6.86965 11.2567 7.28024V9.47349C11.2567 9.88404 11.5895 10.2169 12.0001 10.2169C12.4108 10.2169 12.7436 9.88404 12.7436 9.47349V7.28024C12.7436 6.86965 12.4108 6.53681 12.0001 6.53681Z" stroke="#AF8E2F" stroke-miterlimit="10" stroke-linecap="round" stroke-linejoin="round"/>
<path d="M12.7173 14.3531H16.1388C16.8236 14.3531 17.4307 13.9956 17.7629 13.3969C18.0952 12.7982 18.0773 12.0939 17.715 11.5129L13.5761 4.87471C13.2346 4.32697 12.6454 4 12 4C11.3545 4 10.7653 4.32701 10.4238 4.87471L6.28497 11.5129C5.92271 12.0939 5.90484 12.7982 6.23706 13.3969C6.56932 13.9956 7.17645 14.3531 7.86113 14.3531H11.2827" stroke="#AF8E2F" stroke-miterlimit="10" stroke-linecap="round" stroke-linejoin="round"/>
<path d="M7.9707 19.54C8.05539 19.3706 8.22853 19.2636 8.41791 19.2636H15.5818C15.7712 19.2636 15.9444 19.3706 16.0291 19.54L16.8291 21.14C16.9953 21.4725 16.7535 21.8636 16.3818 21.8636H7.61791C7.24622 21.8636 7.00447 21.4725 7.1707 21.14L7.9707 19.54Z" stroke="#AF8E2F"/>
</svg>
