<svg width="109" height="8" viewBox="0 0 109 8" fill="none" xmlns="http://www.w3.org/2000/svg">
<g clip-path="url(#clip0_71_590)">
<path d="M0 6.79686V2.82691H0.363134V6.79686H0ZM0.363134 5.28805V4.95363H1.37286C1.59622 4.95363 1.7791 4.87002 1.92278 4.70412C2.06647 4.53821 2.13831 4.32267 2.13831 4.05748C2.13831 3.87982 2.09912 3.72306 2.02206 3.5872C1.94499 3.45134 1.83657 3.34422 1.69941 3.26715C1.56095 3.19007 1.40159 3.15349 1.22003 3.15611H0.363134V2.82691L1.21872 2.82169C1.46821 2.82169 1.68896 2.87525 1.88229 2.98106C2.07561 3.08687 2.22583 3.23188 2.33294 3.41737C2.44005 3.60287 2.49491 3.81581 2.49491 4.05879C2.49491 4.30176 2.44658 4.50817 2.34992 4.69366C2.25326 4.87916 2.12133 5.02417 1.95282 5.12998C1.78432 5.23579 1.591 5.28935 1.37155 5.28935H0.363134V5.28805Z" fill="#161742"/>
<path d="M4.59794 6.8648C4.32624 6.8648 4.08459 6.80079 3.87559 6.67538C3.66529 6.54867 3.5007 6.37362 3.38184 6.15024C3.26297 5.92685 3.20288 5.67081 3.20288 5.3795C3.20288 5.08819 3.26166 4.83084 3.37922 4.60876C3.49678 4.38538 3.66006 4.21033 3.86906 4.08361C4.07937 3.9569 4.31841 3.8942 4.58619 3.8942C4.85396 3.8942 5.09954 3.95821 5.30854 4.08361C5.51884 4.21033 5.68212 4.38538 5.79837 4.60876C5.91463 4.83214 5.97472 5.08949 5.97472 5.3795C5.97472 5.66951 5.91594 5.92816 5.79837 6.15024C5.68081 6.37362 5.51884 6.54867 5.31115 6.67538C5.10346 6.8021 4.86572 6.8648 4.59664 6.8648H4.59794ZM4.59794 6.55259C4.80172 6.55259 4.98198 6.50295 5.13611 6.40236C5.29155 6.30177 5.41303 6.16461 5.50186 5.98825C5.59068 5.8119 5.63509 5.60941 5.63509 5.37819C5.63509 5.14697 5.59068 4.94449 5.50186 4.76813C5.41303 4.59178 5.28894 4.45461 5.13089 4.35403C4.97283 4.25344 4.79127 4.2038 4.58619 4.2038C4.38111 4.2038 4.20085 4.25344 4.0441 4.35403C3.88735 4.45461 3.76456 4.59178 3.67574 4.76813C3.58691 4.94449 3.5425 5.14697 3.5425 5.37819C3.5425 5.60941 3.58822 5.8119 3.67835 5.98825C3.76848 6.16461 3.89388 6.30177 4.05194 6.40236C4.2113 6.50295 4.39286 6.55259 4.59664 6.55259H4.59794Z" fill="#161742"/>
<path d="M7.53566 6.79688L6.57166 3.96213H6.91128L7.88051 6.79688H7.53435H7.53566ZM7.54088 6.79688L8.51664 3.96213H8.85626L7.88704 6.79688H7.54088ZM9.48065 6.79688L8.51664 3.96213H8.85626L9.82549 6.79688H9.47934H9.48065ZM9.48065 6.79688L10.4499 3.96213H10.7908L9.8268 6.79688H9.48065Z" fill="#161742"/>
<path d="M12.7802 6.8648C12.5085 6.8648 12.2668 6.80079 12.0578 6.67538C11.8475 6.54867 11.683 6.37362 11.5641 6.15024C11.4452 5.92685 11.3851 5.67081 11.3851 5.3795C11.3851 5.08819 11.4439 4.83084 11.5615 4.60876C11.679 4.38538 11.8397 4.21033 12.0461 4.08361C12.2525 3.9569 12.4876 3.8942 12.7515 3.8942C13.0153 3.8942 13.2478 3.95951 13.4346 4.09015C13.6214 4.22078 13.7638 4.39975 13.8631 4.62836C13.961 4.85697 14.0107 5.12084 14.0107 5.42H13.671C13.671 5.18224 13.6371 4.97192 13.5692 4.79034C13.5012 4.60876 13.3993 4.46637 13.2635 4.36186C13.1277 4.25736 12.9578 4.20641 12.7528 4.20641C12.5477 4.20641 12.3753 4.25605 12.2198 4.35664C12.0644 4.45723 11.9442 4.59439 11.8567 4.77075C11.7692 4.9471 11.7261 5.14958 11.7261 5.38081C11.7261 5.61203 11.7718 5.81451 11.8619 5.99086C11.952 6.16722 12.0774 6.30438 12.2355 6.40497C12.3949 6.50556 12.5764 6.5552 12.7802 6.5552C12.9996 6.5552 13.1851 6.50164 13.3393 6.39322C13.4934 6.28479 13.6123 6.14632 13.6998 5.97649L13.9832 6.15285C13.9114 6.29263 13.8173 6.41673 13.7024 6.52385C13.5874 6.63097 13.4516 6.71588 13.2975 6.77597C13.142 6.83606 12.9709 6.86611 12.7815 6.86611L12.7802 6.8648ZM11.6176 5.41869V5.10648H13.7664V5.41869H11.6176Z" fill="#161742"/>
<path d="M14.9747 6.79685V3.9621H15.3144V6.79685H14.9747ZM15.1171 5.24362C15.1171 4.93794 15.1746 4.68973 15.2895 4.50032C15.4045 4.3109 15.5534 4.17243 15.7376 4.08359C15.9204 3.99476 16.1151 3.95035 16.3188 3.95035V4.26256C16.153 4.26256 15.9923 4.2913 15.8395 4.35009C15.6866 4.40887 15.5612 4.50685 15.462 4.64532C15.364 4.78379 15.3144 4.9719 15.3144 5.20966L15.1158 5.24362H15.1171Z" fill="#161742"/>
<path d="M18.3656 6.8648C18.0939 6.8648 17.8523 6.80079 17.6433 6.67538C17.433 6.54867 17.2684 6.37362 17.1495 6.15024C17.0307 5.92685 16.9706 5.67081 16.9706 5.3795C16.9706 5.08819 17.0294 4.83084 17.1469 4.60876C17.2645 4.38538 17.4252 4.21033 17.6315 4.08361C17.8379 3.9569 18.073 3.8942 18.3369 3.8942C18.6008 3.8942 18.8333 3.95951 19.0201 4.09015C19.2069 4.22078 19.3492 4.39975 19.4485 4.62836C19.5465 4.85697 19.5961 5.12084 19.5961 5.42H19.2565C19.2565 5.18224 19.2225 4.97192 19.1546 4.79034C19.0867 4.60876 18.9848 4.46637 18.849 4.36186C18.7131 4.25736 18.5433 4.20641 18.3382 4.20641C18.1331 4.20641 17.9607 4.25605 17.8053 4.35664C17.6498 4.45723 17.5297 4.59439 17.4421 4.77075C17.3546 4.9471 17.3115 5.14958 17.3115 5.38081C17.3115 5.61203 17.3572 5.81451 17.4474 5.99086C17.5375 6.16722 17.6629 6.30438 17.8209 6.40497C17.9803 6.50556 18.1619 6.5552 18.3656 6.5552C18.5851 6.5552 18.7706 6.50164 18.9247 6.39322C19.0788 6.28479 19.1977 6.14632 19.2852 5.97649L19.5687 6.15285C19.4968 6.29263 19.4028 6.41673 19.2878 6.52385C19.1729 6.63097 19.037 6.71588 18.8829 6.77597C18.7275 6.83606 18.5564 6.86611 18.3669 6.86611L18.3656 6.8648ZM17.2031 5.41869V5.10648H19.3519V5.41869H17.2031Z" fill="#161742"/>
<path d="M21.6705 6.86479C21.421 6.86479 21.2002 6.80078 21.0069 6.67537C20.8136 6.54865 20.6633 6.37361 20.5536 6.14761C20.4439 5.92292 20.389 5.66688 20.389 5.37948C20.389 5.09209 20.4439 4.83082 20.5536 4.60875C20.6633 4.38667 20.8149 4.21031 21.0069 4.0836C21.2002 3.95688 21.421 3.89418 21.6705 3.89418C21.9199 3.89418 22.125 3.95819 22.3079 4.0836C22.4908 4.21031 22.6345 4.38536 22.739 4.60875C22.8435 4.83213 22.8944 5.08948 22.8944 5.37948C22.8944 5.66949 22.8422 5.92292 22.739 6.14761C22.6345 6.3723 22.4908 6.54865 22.3079 6.67537C22.125 6.80208 21.9121 6.86479 21.6705 6.86479ZM21.7384 6.5591C21.9199 6.5591 22.0806 6.50946 22.2204 6.40888C22.3602 6.30829 22.4699 6.16982 22.5496 5.99216C22.6292 5.81449 22.6684 5.61071 22.6684 5.37948C22.6684 5.14826 22.6292 4.94447 22.5496 4.76681C22.4699 4.58915 22.3602 4.45068 22.2204 4.35009C22.0806 4.2495 21.9173 4.19986 21.7332 4.19986C21.5359 4.19986 21.3622 4.2495 21.212 4.35009C21.0604 4.45068 20.9429 4.58915 20.858 4.76681C20.7731 4.94447 20.73 5.14826 20.73 5.37948C20.73 5.61071 20.7731 5.81449 20.8606 5.99216C20.9481 6.16982 21.067 6.30829 21.2172 6.40888C21.3674 6.50946 21.5424 6.5591 21.7384 6.5591ZM22.6854 6.79686L22.6684 6.2691V2.8269H23.0093V6.79686H22.6867H22.6854Z" fill="#161742"/>
<path d="M25.9575 6.79686V2.8269H26.2971V6.2691L26.2802 6.79686H25.9575ZM27.2951 6.86479C27.0574 6.86479 26.8458 6.80078 26.6603 6.67537C26.4748 6.54865 26.3298 6.37361 26.2266 6.14761C26.1221 5.92292 26.0712 5.66688 26.0712 5.37948C26.0712 5.09209 26.1234 4.83082 26.2266 4.60875C26.3311 4.38536 26.4748 4.21031 26.6603 4.0836C26.8458 3.95688 27.0574 3.89418 27.2951 3.89418C27.5328 3.89418 27.7654 3.95819 27.9587 4.0836C28.152 4.21031 28.3022 4.38536 28.4119 4.60875C28.5217 4.83213 28.5765 5.08948 28.5765 5.37948C28.5765 5.66949 28.5217 5.92292 28.4119 6.14761C28.3022 6.3723 28.1507 6.54865 27.9587 6.67537C27.7654 6.80208 27.5446 6.86479 27.2951 6.86479ZM27.2272 6.5591C27.4231 6.5591 27.5982 6.50946 27.7484 6.40888C27.8999 6.30829 28.0188 6.16982 28.105 5.99216C28.1925 5.81449 28.2356 5.61071 28.2356 5.37948C28.2356 5.14826 28.1925 4.94447 28.1076 4.76681C28.0227 4.58915 27.9038 4.45068 27.7536 4.35009C27.6021 4.2495 27.4283 4.19986 27.2324 4.19986C27.0508 4.19986 26.8889 4.2495 26.7478 4.35009C26.6054 4.45068 26.4957 4.58915 26.416 4.76681C26.3363 4.94447 26.2971 5.14826 26.2971 5.37948C26.2971 5.61071 26.3363 5.81449 26.416 5.99216C26.4957 6.16982 26.6054 6.30829 26.7452 6.40888C26.8849 6.50946 27.0456 6.5591 27.2272 6.5591Z" fill="#161742"/>
<path d="M29.6764 7.99999C29.6164 7.99999 29.5445 7.98823 29.4609 7.96602C29.3773 7.94381 29.2807 7.90985 29.1722 7.86413L29.2976 7.57543C29.3956 7.61331 29.4792 7.64205 29.5471 7.66034C29.6151 7.67863 29.6686 7.68908 29.7052 7.68908C29.8149 7.68908 29.905 7.65903 29.9743 7.59894C30.0435 7.53885 30.1023 7.45524 30.1467 7.34943L30.4693 6.57869L31.5757 3.96472H31.9323L30.5425 7.25407C30.4746 7.41344 30.404 7.54799 30.3296 7.65903C30.2564 7.77007 30.1676 7.85498 30.0631 7.91377C29.9586 7.97255 29.8293 8.00129 29.6751 8.00129L29.6764 7.99999ZM30.374 6.79816L29.1775 3.96341H29.5288L30.6235 6.57216L30.7201 6.79946H30.374V6.79816Z" fill="#161742"/>
<path d="M107.51 0.301772V5.72829L107.505 5.71653L103.041 0.203796V7.33508H103.638V1.89158L108.108 7.41216V0.301772H107.51Z" fill="#161742"/>
<path d="M97.5876 0.120178C95.5721 0.120178 93.9341 1.75832 93.9341 3.77531C93.9341 5.79229 95.5721 7.42913 97.5876 7.42913C99.6032 7.42913 101.24 5.79229 101.24 3.77531C101.24 1.75832 99.6045 0.120178 97.5876 0.120178ZM97.5876 6.83083C95.9 6.83083 94.5323 5.46309 94.5323 3.77531C94.5323 2.08752 95.9 0.71848 97.5876 0.71848C99.2753 0.71848 100.643 2.08883 100.643 3.77531C100.643 5.46179 99.2753 6.83083 97.5876 6.83083Z" fill="#161742"/>
<path d="M97.5877 2.36578C96.8091 2.36578 96.1782 2.99674 96.1782 3.77532C96.1782 4.5539 96.8091 5.18355 97.5877 5.18355C98.3662 5.18355 98.9971 4.55259 98.9971 3.77532C98.9971 2.99805 98.3636 2.36578 97.5877 2.36578ZM97.5877 4.58525C97.1396 4.58525 96.7752 4.22078 96.7752 3.77532C96.7752 3.32986 97.1396 2.96539 97.5877 2.96539C98.0357 2.96539 98.3975 3.32725 98.3975 3.77532C98.3975 4.22339 98.0383 4.58525 97.5877 4.58525Z" fill="#161742"/>
<path d="M74.8944 3.66558C74.4267 3.5271 73.8977 3.39516 73.4876 3.26322C73.0095 3.09079 72.6633 2.6401 72.6633 2.10581C72.6633 1.84454 72.7456 1.60548 72.8867 1.40953C73.2054 0.893532 73.9369 0.640103 74.5025 0.842585C74.8944 0.987588 75.2144 1.29196 75.409 1.63422L75.9093 1.41999C75.7108 0.879162 75.268 0.450684 74.7154 0.27041C74.2569 0.0914417 73.6874 0.112343 73.2433 0.326582C72.5222 0.610057 72.0272 1.32201 72.0272 2.10973C72.0272 2.8047 72.44 3.42129 73.0317 3.73742C73.4627 3.92815 73.967 4.05486 74.3771 4.145C75.0172 4.24951 75.5697 4.73155 75.5697 5.38994V5.40953C75.5593 6.39321 74.4646 6.97061 73.5712 6.80862C72.9285 6.67145 72.4047 6.21685 72.1735 5.61463L71.6288 5.82756C71.8848 6.57348 72.4961 7.15219 73.2655 7.35336C74.027 7.55454 74.8931 7.37426 75.473 6.87002C75.9002 6.53168 76.1784 6.00784 76.1784 5.41607C76.1784 4.63226 75.6167 3.9177 74.8957 3.66296" fill="#161742"/>
<path d="M91.0512 3.66558C90.5875 3.5271 90.0545 3.39516 89.6457 3.26322C89.1689 3.09079 88.8241 2.6401 88.8241 2.10581C88.8241 1.84454 88.9064 1.60548 89.0461 1.40953C89.3701 0.893532 90.0924 0.640103 90.6619 0.842585C91.0512 0.987588 91.3765 1.29196 91.5672 1.63422L92.0675 1.41999C91.8663 0.879162 91.43 0.450684 90.8762 0.27041C90.4177 0.0914417 89.8442 0.112343 89.4027 0.326582C88.6843 0.610057 88.1905 1.32201 88.1905 2.10973C88.1905 2.8047 88.5994 3.42129 89.1911 3.73742C89.6222 3.92815 90.1225 4.05486 90.5365 4.145C91.1753 4.24951 91.7265 4.73155 91.7265 5.38994V5.40953C91.7148 6.39321 90.6228 6.97061 89.7267 6.80862C89.0853 6.67145 88.5628 6.21685 88.3303 5.61463L87.7843 5.82756C88.0403 6.57348 88.6556 7.15219 89.4223 7.35336C90.1839 7.55454 91.0512 7.37426 91.6273 6.87002C92.0557 6.53168 92.3352 6.00784 92.3352 5.41607C92.3352 4.63226 91.7722 3.9177 91.0525 3.66296" fill="#161742"/>
<path d="M85.4461 0.365784H84.8505V7.36252H85.4461V0.365784Z" fill="#161742"/>
<path d="M80.2134 0L77.2339 7.3808H77.8792L78.834 5.0098H81.5928L82.5503 7.37949H82.549H83.1916L80.2134 0ZM79.0757 4.4115L80.2134 1.59504L81.3511 4.4115H79.0757Z" fill="#161742"/>
<path d="M35.4708 3.78053C35.4708 2.12149 36.7953 0.702808 38.4281 0.702808C38.7286 0.702808 39.0199 0.751142 39.2929 0.839973V0.207706C39.0146 0.134552 38.7234 0.0940552 38.4281 0.0940552C37.4877 0.0940552 36.5994 0.48465 35.9267 1.19268C35.2605 1.89419 34.8948 2.81254 34.8948 3.78053C34.8948 4.74853 35.2749 5.69301 35.9372 6.39321C36.6099 7.09863 37.4942 7.48791 38.4281 7.48791C38.7599 7.48791 39.0826 7.43697 39.3882 7.34161V6.70803C39.0878 6.81776 38.7652 6.88177 38.4281 6.88177C36.7953 6.88177 35.4708 5.43827 35.4708 3.77923" fill="#161742"/>
<path d="M45.6111 2.37232C45.6111 1.83149 45.41 1.32464 45.0494 0.943186C44.6889 0.561736 44.2056 0.352722 43.6949 0.352722H41.4442V7.2763H42.0216V4.38669H43.4075L44.8052 7.2763H45.4766L44.058 4.35142C44.9423 4.16983 45.6124 3.35076 45.6124 2.37232M43.6949 3.78055H42.0216V0.957556H43.6949C44.4355 0.957556 45.0351 1.59113 45.0351 2.37232C45.0351 3.15351 44.4342 3.78055 43.6949 3.78055Z" fill="#161742"/>
<path d="M48.1361 3.6525H51.1222V3.04897H48.1361V0.990188H51.13V0.367065H47.5222V7.3429H51.1523V6.74068H48.1361V3.6525Z" fill="#161742"/>
<path d="M62.8091 0.953624H64.8377V7.23187H65.4751V0.953624H67.5011V0.309601H62.8091V0.953624Z" fill="#161742"/>
<path d="M60.8903 0.373627H60.2528V7.35468H60.8903V0.373627Z" fill="#161742"/>
<path d="M55.2969 0.444148L53.3545 0.43631V0.441535L53.3519 7.36903H55.2956C57.0564 7.30372 58.4463 5.774 58.4463 3.90463C58.4463 2.03526 57.0525 0.509465 55.2956 0.445454M55.2956 6.76028H53.9306V1.04506H55.2956C56.7429 1.11169 57.8689 2.36315 57.8689 3.90594C57.8689 5.44872 56.7416 6.69496 55.2956 6.76028Z" fill="#161742"/>
</g>
<defs>
<clipPath id="clip0_71_590">
<rect width="108.108" height="8" fill="white"/>
</clipPath>
</defs>
</svg>
