<svg width="56" height="16" viewBox="0 0 56 16" fill="none" xmlns="http://www.w3.org/2000/svg">
<path d="M19.55 4.81339V5.70889C19.1173 5.46139 18.6249 5.33989 18.0728 5.33989C17.7147 5.33989 17.4362 5.41189 17.2323 5.55589C17.0284 5.69989 16.9239 5.88889 16.9239 6.12289C16.9239 6.35689 17.0234 6.54589 17.2273 6.68539C17.4263 6.82489 17.7346 6.97789 18.1524 7.14439C18.426 7.24789 18.6349 7.34239 18.7891 7.41889C18.9432 7.49539 19.1173 7.60339 19.3113 7.73839C19.5102 7.87789 19.6545 8.03989 19.749 8.22889C19.8435 8.41789 19.8882 8.63839 19.8882 8.88139C19.8882 9.40339 19.6843 9.81289 19.2765 10.1099C18.8686 10.4069 18.3414 10.5599 17.6948 10.5599C16.9737 10.5599 16.3818 10.4339 15.9093 10.1819V9.24139C16.4216 9.58789 17.0135 9.75889 17.6849 9.75889C18.043 9.75889 18.3215 9.68239 18.5304 9.53389C18.7393 9.38539 18.8388 9.17839 18.8388 8.91289C18.8388 8.75539 18.7791 8.61139 18.6548 8.47639C18.5304 8.34589 18.4011 8.24689 18.2569 8.17939C18.1126 8.11189 17.8988 8.02189 17.6153 7.90039C17.4462 7.82839 17.3268 7.77889 17.2621 7.75189C17.1925 7.72039 17.0831 7.67089 16.9289 7.59439C16.7747 7.51789 16.6603 7.45489 16.5857 7.40089C16.5111 7.34689 16.4166 7.27489 16.3072 7.18039C16.1978 7.08589 16.1182 6.99139 16.0685 6.90139C16.0187 6.80689 15.974 6.69889 15.9342 6.57289C15.8944 6.44689 15.8695 6.31189 15.8695 6.16339C15.8695 5.65939 16.0734 5.26339 16.4763 4.96639C16.8792 4.67389 17.4014 4.52539 18.043 4.52539C18.6349 4.52989 19.1372 4.62439 19.55 4.81339Z" fill="#040081"/>
<path d="M20.863 7.10842V6.27143C21.246 6.07343 21.7484 5.97443 22.38 5.97443C23.6682 5.97443 24.3148 6.54142 24.3148 7.67092V10.5014H23.3748V9.97492C23.1211 10.3484 22.6784 10.5374 22.0418 10.5374C21.5743 10.5374 21.2013 10.4159 20.9178 10.1729C20.6343 9.92993 20.495 9.61942 20.495 9.24592C20.495 8.81842 20.674 8.48543 21.0272 8.24693C21.3853 8.00843 21.8827 7.89143 22.5243 7.89143H23.3399V7.63492C23.3399 7.32892 23.2604 7.09943 23.0962 6.94643C22.9321 6.79343 22.6635 6.71242 22.2905 6.71242C21.7683 6.71242 21.2908 6.84292 20.863 7.10842ZM23.3399 8.51242H22.6038C22.2408 8.51242 21.9672 8.57542 21.7832 8.70592C21.5992 8.83642 21.5047 8.99843 21.5047 9.19643C21.5047 9.40343 21.5743 9.56093 21.7185 9.67793C21.8628 9.79493 22.0667 9.85342 22.3402 9.85342C22.6486 9.85342 22.8973 9.77693 23.0714 9.61943C23.2504 9.46643 23.3399 9.25942 23.3399 9.00742V8.51242Z" fill="#040081"/>
<path d="M26.2545 4.2869V6.8069C26.533 6.2579 27.0404 5.9789 27.7814 5.9789C28.2589 5.9789 28.6469 6.1139 28.9353 6.3839C29.2288 6.6539 29.373 7.0274 29.373 7.5089V10.4969H28.4181V7.6844C28.4181 7.3784 28.3335 7.1444 28.1594 6.9779C27.9854 6.8114 27.7615 6.72589 27.483 6.72589C27.1597 6.72589 26.8712 6.8384 26.6226 7.0589C26.3739 7.2794 26.2495 7.6214 26.2495 8.0804V10.4969H25.2996V4.2869H26.2545Z" fill="#040081"/>
<path d="M30.4772 7.10842V6.27143C30.8602 6.07343 31.3625 5.97443 31.9942 5.97443C33.2823 5.97443 33.9289 6.54142 33.9289 7.67092V10.5014H32.9889V9.97492C32.7352 10.3484 32.2926 10.5374 31.6559 10.5374C31.1884 10.5374 30.8154 10.4159 30.5319 10.1729C30.2484 9.92993 30.1091 9.61942 30.1091 9.24592C30.1091 8.81842 30.2882 8.48543 30.6413 8.24693C30.9994 8.00843 31.4968 7.89143 32.1384 7.89143H32.9541V7.63492C32.9541 7.32892 32.8745 7.09943 32.7104 6.94643C32.5462 6.79343 32.2777 6.71242 31.9046 6.71242C31.3824 6.71242 30.9049 6.84292 30.4772 7.10842ZM32.9541 8.51242H32.218C31.8549 8.51242 31.5813 8.57542 31.3973 8.70592C31.2133 8.83642 31.1188 8.99843 31.1188 9.19643C31.1188 9.40343 31.1884 9.56093 31.3327 9.67793C31.4769 9.79493 31.6808 9.85342 31.9544 9.85342C32.2627 9.85342 32.5114 9.77693 32.6855 9.61943C32.8646 9.46643 32.9541 9.25942 32.9541 9.00742V8.51242Z" fill="#040081"/>
<path d="M35.8687 6.04193V6.75293C36.1472 6.23543 36.6098 5.97893 37.2564 5.97893C37.9925 5.97893 38.465 6.26692 38.6739 6.83842C38.8082 6.56392 39.0071 6.35243 39.2657 6.19943C39.5244 6.05093 39.8178 5.97443 40.1411 5.97443C40.6484 5.97443 41.0314 6.10943 41.29 6.37943C41.5536 6.64943 41.6829 7.02293 41.6829 7.49543V10.4924H40.733V7.67992C40.733 7.04092 40.4495 6.72143 39.8775 6.72143C39.594 6.72143 39.3403 6.83392 39.1165 7.06342C38.8927 7.29292 38.7833 7.63042 38.7833 8.07592V10.4924H37.8333V7.67992C37.8333 7.04092 37.5448 6.72143 36.9679 6.72143C36.6894 6.72143 36.4357 6.83392 36.2119 7.06342C35.9831 7.29292 35.8737 7.63042 35.8737 8.07592V10.4924H34.9237V6.03742H35.8687V6.04193Z" fill="#040081"/>
<path d="M42.8069 7.10842V6.27143C43.1899 6.07343 43.6922 5.97443 44.3239 5.97443C45.6121 5.97443 46.2586 6.54142 46.2586 7.67092V10.5014H45.3186V9.97492C45.0649 10.3484 44.6223 10.5374 43.9857 10.5374C43.5181 10.5374 43.1451 10.4159 42.8616 10.1729C42.5781 9.92993 42.4388 9.61942 42.4388 9.24592C42.4388 8.81842 42.6179 8.48543 42.971 8.24693C43.3291 8.00843 43.8265 7.89143 44.4681 7.89143H45.2838V7.63492C45.2838 7.32892 45.2042 7.09943 45.0401 6.94643C44.8759 6.79343 44.6074 6.71242 44.2343 6.71242C43.7071 6.71242 43.2297 6.84292 42.8069 7.10842ZM45.2838 8.51242H44.5477C44.1846 8.51242 43.9111 8.57542 43.727 8.70592C43.543 8.83642 43.4485 8.99843 43.4485 9.19643C43.4485 9.40343 43.5181 9.56093 43.6624 9.67793C43.8066 9.79493 44.0105 9.85342 44.2841 9.85342C44.5924 9.85342 44.8411 9.77693 45.0152 9.61943C45.1943 9.46643 45.2838 9.25942 45.2838 9.00742V8.51242Z" fill="#040081"/>
<path d="M48.477 6.7124V9.1649C48.477 9.5924 48.7058 9.8084 49.1584 9.8084C49.422 9.8084 49.6458 9.7454 49.8298 9.6149V10.3889C49.6159 10.4924 49.3523 10.5464 49.044 10.5464C48.0293 10.5464 47.517 10.0784 47.517 9.1469V6.7124H46.7511V6.0464H47.517V4.9574H48.477V6.0464H49.7701V6.7124H48.477Z" fill="#040081"/>
<path d="M50.6753 5.0654C50.5609 4.9619 50.5062 4.8359 50.5062 4.6829C50.5062 4.5299 50.5609 4.4039 50.6753 4.2959C50.7897 4.1924 50.929 4.1384 51.0981 4.1384C51.2672 4.1384 51.4065 4.1924 51.5258 4.2959C51.6402 4.3994 51.6999 4.5299 51.6999 4.6829C51.6999 4.8314 51.6402 4.9574 51.5258 5.0609C51.4114 5.1644 51.2672 5.2184 51.0981 5.2184C50.929 5.2184 50.7897 5.1644 50.6753 5.0654ZM50.6256 10.4969V6.0419H51.5855V10.4969H50.6256Z" fill="#040081"/>
<path d="M53.9034 5.24086L53.7044 4.94836H53.59V5.24086H53.4607V4.46686H53.6994C53.7989 4.46686 53.8735 4.48936 53.9282 4.52986C53.9829 4.57486 54.0078 4.63336 54.0078 4.70536C54.0078 4.75936 53.9929 4.80436 53.963 4.84486C53.9332 4.88536 53.8934 4.91236 53.8387 4.92586L54.0625 5.23636H53.9034V5.24086ZM53.59 4.56586V4.84936H53.7094C53.7641 4.84936 53.8039 4.83586 53.8337 4.80886C53.8636 4.78186 53.8735 4.75036 53.8735 4.70536C53.8735 4.61086 53.8188 4.56586 53.7044 4.56586H53.59Z" fill="#040081"/>
<path d="M14.104 0.736359C14.104 0.767859 14.104 0.799359 14.104 0.826359C14.104 1.87036 14.104 2.91436 14.104 3.95836C14.104 4.89436 13.4475 5.75836 12.4726 6.07786C12.0001 6.23086 11.5177 6.35686 11.0402 6.49636C10.0007 6.79786 8.95624 7.09486 7.91674 7.39636C7.45419 7.52686 6.99661 7.67536 6.52908 7.78786C5.40005 8.05336 4.16658 7.52686 3.64932 6.58636C3.46032 6.24436 3.36582 5.87986 3.37079 5.50186C3.38074 4.48036 4.087 3.62536 5.16629 3.31486C6.89216 2.81986 8.61305 2.32036 10.3339 1.82536C11.5823 1.46536 12.8258 1.10536 14.0742 0.749858C14.0791 0.740858 14.0891 0.740859 14.104 0.736359Z" fill="#040081"/>
<path d="M0.764526 15.1049C0.764526 15.0734 0.764526 15.0419 0.764526 15.0149C0.764526 13.9799 0.764526 12.9449 0.764526 11.9054C0.764526 10.9739 1.41608 10.1189 2.38097 9.80385C2.8485 9.65085 3.33095 9.52485 3.80345 9.38985C4.83797 9.09285 5.8725 8.79585 6.90205 8.49885C7.35963 8.36835 7.81721 8.21986 8.27976 8.11186C9.39884 7.84636 10.6273 8.36836 11.1396 9.30436C11.3286 9.64636 11.4182 10.0019 11.4182 10.3844C11.4082 11.4014 10.7069 12.2474 9.63261 12.5579C7.92166 13.0484 6.21071 13.5434 4.49976 14.0339C3.26132 14.3894 2.02287 14.7449 0.784421 15.1049C0.784421 15.1004 0.779447 15.1004 0.764526 15.1049Z" fill="#FF8109"/>
<path d="M53.7094 5.69986C53.217 5.69986 52.8141 5.33536 52.8141 4.88986C52.8141 4.44436 53.217 4.07986 53.7094 4.07986C54.2017 4.07986 54.6046 4.44436 54.6046 4.88986C54.6096 5.33536 54.2067 5.69986 53.7094 5.69986ZM53.7094 4.21936C53.3015 4.21936 52.9683 4.52086 52.9683 4.88986C52.9683 5.25886 53.3015 5.56037 53.7094 5.56037C54.1172 5.56037 54.4504 5.25886 54.4504 4.88986C54.4554 4.52086 54.1222 4.21936 53.7094 4.21936Z" fill="#040081"/>
</svg>
