<svg id="Layer_1" data-name="Layer 1" xmlns="http://www.w3.org/2000/svg" viewBox="0 0 908.16 362.1"><path d="M152.71,562.73c-7.42,4.15-13.49.59-13.49-7.92V378c0-8.5-5.94-19.08-13.2-23.5l-62.8-38.31c-7.26-4.43-7.15-11.49.24-15.69L100,279.7c7.39-4.2,19.45-4.15,26.8.13l61.17,35.59c7.35,4.27,13.36,14.73,13.36,23.23V520.12c0,8.51-6.07,18.86-13.49,23Z" transform="translate(-57.84 -202.36)" fill="#1e458e"/><path d="M118.4,244.85c-7.41-4.18-7.43-11-.05-15.28l41.93-24c7.37-4.23,19.45-4.24,26.84,0l96.81,55.16c7.38,4.21,13.43,14.61,13.43,23.12V393.54c0,8.5-6,19-13.33,23.29l-42.36,24.86c-7.34,4.31-13.34.87-13.34-7.63V322.3c0-8.51-6.05-18.88-13.46-23.05Z" transform="translate(-57.84 -202.36)" fill="#029347"/><path d="M459,317.49c0,30.2-22.65,49-58.85,49H380.53a7.68,7.68,0,0,0-7.68,7.69v22a7.68,7.68,0,0,1-7.69,7.68h-16a7.69,7.69,0,0,1-7.69-7.68V276a7.7,7.7,0,0,1,7.69-7.69h51c36.2,0,58.85,18.78,58.85,49.17m-31.75,0c0-14.9-9.68-23.61-28.84-23.61H380.53a7.68,7.68,0,0,0-7.68,7.68v31.67a7.68,7.68,0,0,0,7.68,7.69H398.4c19.16,0,28.84-8.71,28.84-23.43" transform="translate(-57.84 -202.36)" fill="#1e458e"/><path d="M571.62,403.83a7.68,7.68,0,0,1-6.32-3.31l-23.84-34.44H520.3a7.69,7.69,0,0,0-7.68,7.69v22.38a7.68,7.68,0,0,1-7.69,7.68h-16a7.68,7.68,0,0,1-7.68-7.68V276a7.68,7.68,0,0,1,7.68-7.68h51c36.2,0,58.85,18.77,58.85,49.16,0,17.37-7.49,30.78-20.66,39a7.68,7.68,0,0,0-2.23,10.9l17,24.33a7.68,7.68,0,0,1-6.3,12.08ZM538.17,293.88H520.3a7.68,7.68,0,0,0-7.68,7.68v31.87a7.68,7.68,0,0,0,7.68,7.68h17.87c19.17,0,28.85-8.9,28.85-23.62,0-14.9-9.68-23.61-28.85-23.61" transform="translate(-57.84 -202.36)" fill="#1e458e"/><path d="M631.23,268.32h16a7.7,7.7,0,0,1,7.69,7.69V396.15a7.69,7.69,0,0,1-7.69,7.68h-16a7.68,7.68,0,0,1-7.68-7.68V276a7.68,7.68,0,0,1,7.68-7.69" transform="translate(-57.84 -202.36)" fill="#1e458e"/><path d="M811.9,279.06l-52,120.14a7.69,7.69,0,0,1-7.06,4.63H732a7.66,7.66,0,0,1-7.05-4.64L673.08,279.05a7.69,7.69,0,0,1,7.06-10.73h17.11a7.67,7.67,0,0,1,7.07,4.68l32.23,75.64a7.68,7.68,0,0,0,14.12,0L783.38,273a7.69,7.69,0,0,1,7-4.64h14.42a7.68,7.68,0,0,1,7,10.74" transform="translate(-57.84 -202.36)" fill="#1e458e"/><path d="M817.71,336.08c0-40.27,31.36-70.08,74.15-70.08,42.58,0,74.14,29.62,74.14,70.08s-31.56,70.08-74.14,70.08c-42.79,0-74.15-29.81-74.15-70.08m116.54,0c0-25.75-18.19-43.36-42.39-43.36s-42.4,17.61-42.4,43.36,18.2,43.36,42.4,43.36,42.39-17.61,42.39-43.36" transform="translate(-57.84 -202.36)" fill="#1e458e"/></svg>