<svg id="Profile" xmlns="http://www.w3.org/2000/svg" xmlns:xlink="http://www.w3.org/1999/xlink" width="19" height="19" viewBox="0 0 19 19">
  <defs>
    <linearGradient id="linear-gradient" x1="0.5" y1="0.997" x2="0.5" y2="-0.224" gradientUnits="objectBoundingBox">
      <stop offset="0" stop-color="#57a4ff"/>
      <stop offset="0.355" stop-color="#57a4ff"/>
      <stop offset="0.705" stop-color="#9dc6f5"/>
      <stop offset="1" stop-color="#7cb6fa"/>
    </linearGradient>
  </defs>
  <path id="Path_6130" data-name="Path 6130" d="M18.406,5H.594C.266,5,0,5.387,0,5.864V23.136c0,.477.266.864.594.864H18.406c.328,0,.594-.387.594-.864V5.864C19,5.387,18.734,5,18.406,5Zm-.594,17.273H1.188v0Z" transform="translate(0 -5)" fill="url(#linear-gradient)"/>
  <path id="Path_6131" data-name="Path 6131" d="M4.775,20.709h6.2A.746.746,0,0,0,11.752,20V18.568A3.732,3.732,0,0,0,7.876,15,3.732,3.732,0,0,0,4,18.568V20A.746.746,0,0,0,4.775,20.709Zm.775-2.141a2.239,2.239,0,0,1,2.326-2.141A2.239,2.239,0,0,1,10.2,18.568v.714H5.55Z" transform="translate(1.624 -7.204)" fill="#fff"/>
  <path id="Path_6132" data-name="Path 6132" d="M10.789,11.345a2.395,2.395,0,1,0-2.394,2.345A2.37,2.37,0,0,0,10.789,11.345Zm-2.394.782a.782.782,0,1,1,.8-.782A.79.79,0,0,1,8.394,12.127Z" transform="translate(1.105 -5.961)" fill="#fff"/>
  <rect id="Rectangle_2113" data-name="Rectangle 2113" width="9.904" height="1" transform="translate(4.548 14.955)" fill="#fff"/>
</svg>
