<svg id="purpose" xmlns="http://www.w3.org/2000/svg" width="27" height="26.152" viewBox="0 0 27 26.152">
  <path id="Path_6350" data-name="Path 6350" d="M46.293,49.444a7.113,7.113,0,1,0,1.37,1.37l-.459.459a6.459,6.459,0,1,1-1.37-1.37Z" transform="translate(-29.251 -40.734)" fill="#0bceb2"/>
  <path id="Path_6351" data-name="Path 6351" d="M83.354,23.076a.646.646,0,0,0-.761.113l-2.06,2.06a.646.646,0,0,0-.177.331l-.228,1.145a.645.645,0,0,0,.178.582l-5.96,5.96a.972.972,0,1,0,.457.457l5.959-5.959a.643.643,0,0,0,.582.177l1.145-.228a.646.646,0,0,0,.331-.177l2.06-2.06a.646.646,0,0,0-.583-1.09l-.767.153.153-.767A.646.646,0,0,0,83.354,23.076ZM73.931,34.462a.323.323,0,1,1,.323-.323A.323.323,0,0,1,73.931,34.462Zm6.832-7.612.228-1.145,2.06-2.06-.228,1.145Zm3.661-1.831-2.06,2.06-1.145.228,2.06-2.06Z" transform="translate(-61.177 -19.771)" fill="#2d4356"/>
  <path id="Path_6352" data-name="Path 6352" d="M65.576,76.644a1.934,1.934,0,0,1,.5.068l.508-.508a2.584,2.584,0,1,0,1.37,1.37l-.508.508a1.936,1.936,0,1,1-1.87-1.437Z" transform="translate(-52.823 -64.214)" fill="#0bceb2"/>
  <path id="Path_6353" data-name="Path 6353" d="M57.142,63.759a4.69,4.69,0,1,0,1.37,1.37l-.467.467a4.039,4.039,0,1,1-1.37-1.37Z" transform="translate(-41.837 -53.313)" fill="#2d4356"/>
  <circle id="Ellipse_190" data-name="Ellipse 190" cx="0.5" cy="0.5" r="0.5" transform="translate(0 23)" fill="#2d4356"/>
  <path id="Path_6354" data-name="Path 6354" d="M6.807,147H6.323a.323.323,0,1,0,0,.646h.484a.323.323,0,1,0,0-.646Zm24.054,0h-.484a.323.323,0,1,0,0,.646h.484a.323.323,0,1,0,0-.646Z" transform="translate(-5.031 -123.753)" fill="#2d4356"/>
  <circle id="Ellipse_191" data-name="Ellipse 191" cx="0.5" cy="0.5" r="0.5" transform="translate(26 23)" fill="#2d4356"/>
  <path id="Path_6355" data-name="Path 6355" d="M59.325,155H57.984a.324.324,0,0,0,0,.646h1.341a.324.324,0,0,0,0-.646Zm-9.686,0H48.3a.324.324,0,0,0,0,.646h1.341a.324.324,0,0,0,0-.646Zm7.4,0H50.583a.323.323,0,0,0,0,.646h2.573v.323H51.874a.323.323,0,0,0,0,.646H55.91a.323.323,0,0,0,0-.646H54.467v-.323H57.04a.323.323,0,0,0,0-.646Z" transform="translate(-40.251 -130.462)" fill="#0bceb2"/>
  <path id="Path_6356" data-name="Path 6356" d="M33.811,26.247H25.674a9.513,9.513,0,0,0,4.259-14.475l-.158.032a1.281,1.281,0,0,1-.588-.02l-.03.03a8.877,8.877,0,0,1-6.924,14.434h0a8.879,8.879,0,1,1,5.555-15.8l.03-.03a1.293,1.293,0,0,1-.019-.588l.032-.158a9.521,9.521,0,1,0-9.037,16.579H12.269a.326.326,0,1,0,0,.646H33.811a.326.326,0,1,0,0-.646ZM17.439,4.291a.484.484,0,1,0-.484-.484.484.484,0,0,0,.484.484Zm0-.726a.242.242,0,1,1-.242.242A.242.242,0,0,1,17.439,3.565ZM28.578,3a.323.323,0,1,0,.323.323A.323.323,0,0,0,28.578,3Zm0,.484a.161.161,0,1,1,.161-.161.161.161,0,0,1-.161.161ZM11.628,4.13a.323.323,0,1,0,.323.323A.323.323,0,0,0,11.628,4.13Zm0,.484a.161.161,0,1,1,.161-.161A.161.161,0,0,1,11.628,4.614Zm23.731,4.2a.323.323,0,1,0,.323.323A.323.323,0,0,0,35.359,8.812Zm0,.484a.161.161,0,1,1,.161-.161.161.161,0,0,1-.161.161Zm-.484,6.619a.323.323,0,1,0-.323.323.323.323,0,0,0,.323-.323Zm-.484,0a.161.161,0,1,1,.161.161.161.161,0,0,1-.161-.161Z" transform="translate(-9.479 -3)" fill="#2d4356"/>
  <path id="Path_6357" data-name="Path 6357" d="M8.21,65.925l.24-.316L8.3,65.524l-.154.354H8.14l-.157-.351-.154.088.237.308v.005L7.7,65.88v.172L8.069,66v0l-.24.308.144.091.164-.356h.005l.152.354.159-.091-.242-.3v-.005l.381.046V65.88l-.381.05Z" transform="translate(-6.453 -55.431)" fill="#0bceb2"/>
  <path id="Path_6358" data-name="Path 6358" d="M33.962,30.616l-.138.177.083.052L34,30.641h0l.087.2.092-.052-.14-.175v0l.22.026v-.1l-.22.029v0l.138-.182-.087-.049-.089.2h0l-.09-.2-.089.051.137.177v0l-.214-.028v.1l.215-.028Z" transform="translate(-28.299 -25.924)" fill="#0bceb2"/>
  <path id="Path_6359" data-name="Path 6359" d="M86.736,23.024v-.168l-.374.05V22.9l.235-.31-.149-.084-.151.347h0l-.154-.344-.151.087.233.3V22.9l-.364-.047v.168l.367-.047v.005l-.235.3.141.089.161-.35h0l.149.347.156-.089-.238-.3v-.005Z" transform="translate(-71.996 -19.357)" fill="#0bceb2"/>
  <path id="Path_6360" data-name="Path 6360" d="M160.483,4.821l.2-.267-.128-.073-.13.3h0l-.132-.3-.131.075.2.261v0l-.314-.041v.145l.316-.041v0l-.2.261.122.077.139-.3h0l.128.3.135-.077-.205-.257v0l.323.039V4.782l-.323.043Z" transform="translate(-134.21 -4.242)" fill="#0bceb2"/>
</svg>
