<svg width="10" height="10" viewBox="0 0 10 10" fill="none" xmlns="http://www.w3.org/2000/svg">
<path d="M5 0C2.2365 0 0 2.23625 0 5C0 7.76346 2.23625 10 5 10C7.7635 10 10 7.76375 10 5C10 2.2365 7.76375 0 5 0ZM4.85205 7.34021C4.56904 7.34021 4.35186 7.10328 4.35186 6.83342C4.35186 6.55699 4.57562 6.32666 4.85205 6.32666C5.1285 6.32666 5.35881 6.55701 5.35881 6.83344C5.35881 7.10326 5.13504 7.34021 4.85205 7.34021ZM5.60232 4.78C5.24035 5.06301 5.23375 5.26045 5.23375 5.60268C5.23375 5.72775 5.16793 5.87254 4.84545 5.87254C4.57559 5.87254 4.48348 5.77381 4.48348 5.43158C4.48348 4.86557 4.73357 4.59572 4.92443 4.43119C5.14162 4.24689 5.5102 4.04289 5.5102 3.6875C5.5102 3.38473 5.24693 3.23994 4.91785 3.23994C4.24654 3.23994 4.39135 3.74674 4.03592 3.74674C3.85822 3.74674 3.64104 3.62824 3.64104 3.37158C3.64104 3.01619 4.04908 2.48965 4.9376 2.48965C5.78002 2.48965 6.33945 2.95695 6.33945 3.57561C6.33945 4.19426 5.78002 4.6418 5.60232 4.78Z" fill="#1D478E"/>
</svg>
