<svg width="24" height="24" viewBox="0 0 24 24" fill="none" xmlns="http://www.w3.org/2000/svg">
<mask id="mask0_8_56865" style="mask-type:alpha" maskUnits="userSpaceOnUse" x="0" y="0" width="24" height="24">
<rect width="24" height="24" fill="#D9D9D9"/>
</mask>
<g mask="url(#mask0_8_56865)">
<path d="M23.1895 13.2379H20.4317C20.2558 13.2379 20.1087 13.1788 19.9907 13.0608C19.8726 12.9427 19.8136 12.7957 19.8136 12.6197C19.8136 12.4438 19.8726 12.2968 19.9907 12.1787C20.1087 12.0606 20.2558 12.0016 20.4317 12.0016H23.1895C23.3655 12.0016 23.5125 12.0606 23.6305 12.1787C23.7486 12.2968 23.8076 12.4438 23.8076 12.6197C23.8076 12.7957 23.7486 12.9427 23.6305 13.0608C23.5125 13.1788 23.3655 13.2379 23.1895 13.2379ZM18.3443 18.3399C18.4553 18.194 18.5925 18.1084 18.7557 18.0831C18.919 18.0577 19.0736 18.1005 19.2192 18.2113L21.4114 19.8614C21.5571 19.9723 21.6426 20.1094 21.668 20.2728C21.6933 20.436 21.6506 20.5905 21.5397 20.7364C21.4287 20.8821 21.2915 20.9676 21.1283 20.9929C20.9652 21.0183 20.8106 20.9755 20.6647 20.8647L18.4729 19.2146C18.327 19.1037 18.2414 18.9667 18.216 18.8035C18.1907 18.6401 18.2334 18.4856 18.3443 18.3399ZM21.3163 5.28316L19.1244 6.93295C18.9785 7.0438 18.824 7.08655 18.6608 7.06121C18.4974 7.03586 18.3603 6.95036 18.2494 6.80468C18.1383 6.6588 18.0955 6.50427 18.1208 6.34109C18.1462 6.17769 18.2318 6.04057 18.3777 5.92972L20.5696 4.27962C20.7154 4.16877 20.87 4.12602 21.0332 4.15136C21.1965 4.1767 21.3337 4.26232 21.4445 4.40819C21.5556 4.55387 21.5984 4.7084 21.5731 4.87179C21.5477 5.03498 21.4621 5.1721 21.3163 5.28316ZM4.45553 15.2823H3.17167C2.61865 15.2823 2.14753 15.0878 1.75832 14.6988C1.36931 14.3096 1.1748 13.8385 1.1748 13.2855V11.954C1.1748 11.401 1.36931 10.9299 1.75832 10.5407C2.14753 10.1516 2.61865 9.95714 3.17167 9.95714H7.78385L11.1765 7.95533C11.5094 7.75547 11.8434 7.75145 12.1784 7.94328C12.5137 8.1351 12.6813 8.42037 12.6813 8.79908V16.4404C12.6813 16.8191 12.5137 17.1044 12.1784 17.2962C11.8434 17.488 11.5094 17.484 11.1765 17.2841L7.78385 15.2823H5.69179V19.3716C5.69179 19.5475 5.63276 19.6945 5.51469 19.8126C5.39663 19.9307 5.24962 19.9897 5.07366 19.9897C4.8977 19.9897 4.75069 19.9307 4.63262 19.8126C4.51456 19.6945 4.45553 19.5475 4.45553 19.3716V15.2823ZM11.445 15.9814V9.25804L8.13093 11.1934H3.17167C2.9815 11.1934 2.80718 11.2726 2.64874 11.4311C2.49029 11.5895 2.41106 11.7638 2.41106 11.954V13.2855C2.41106 13.4756 2.49029 13.65 2.64874 13.8084C2.80718 13.9669 2.9815 14.0461 3.17167 14.0461H8.13093L11.445 15.9814ZM14.8685 16.1907V9.0488C15.2823 9.43246 15.6156 9.93613 15.8684 10.5598C16.1212 11.1835 16.2476 11.8702 16.2476 12.6197C16.2476 13.3693 16.1212 14.056 15.8684 14.6797C15.6156 15.3033 15.2823 15.807 14.8685 16.1907Z" fill="#1D478E"/>
</g>
</svg>
