<svg width="23" height="21" viewBox="0 0 23 21" fill="none" xmlns="http://www.w3.org/2000/svg">
<path d="M17.5972 4.95061C17.5972 5.64904 17.09 6.0738 16.7195 6.38551C16.5793 6.50358 16.3181 6.71901 16.3188 6.79948C16.3214 7.11512 16.0682 7.3672 15.7532 7.3672H15.7485C15.4357 7.3672 15.1809 7.12287 15.1784 6.80881C15.1733 6.18977 15.624 5.81906 15.9862 5.51427C16.2704 5.27509 16.4567 5.10678 16.4567 4.95277C16.4567 4.641 16.2037 4.38733 15.8926 4.38733C15.5815 4.38733 15.3283 4.641 15.3283 4.95277C15.3283 5.26848 15.073 5.52437 14.7581 5.52437C14.4431 5.52437 14.1878 5.26848 14.1878 4.95277C14.1878 4.01065 14.9525 3.24414 15.8925 3.24414C16.8325 3.24407 17.5972 4.00843 17.5972 4.95061ZM15.7642 7.89485C15.4493 7.89485 15.2066 8.15073 15.2066 8.46645V8.47083C15.2066 8.78654 15.4493 9.04027 15.7642 9.04027C16.0792 9.04027 16.3345 8.78216 16.3345 8.46645C16.3345 8.15073 16.0792 7.89485 15.7642 7.89485ZM4.27002 11.8765C3.95505 11.8765 3.69977 12.1324 3.69977 12.4481C3.69977 12.7638 3.95505 13.0197 4.27002 13.0197H4.31754C4.6325 13.0197 4.88778 12.7638 4.88778 12.4481C4.88778 12.1324 4.6325 11.8765 4.31754 11.8765H4.27002ZM6.25188 11.8765C5.93691 11.8765 5.68163 12.1324 5.68163 12.4481C5.68163 12.7638 5.93691 13.0197 6.25188 13.0197H6.29934C6.61431 13.0197 6.86959 12.7638 6.86959 12.4481C6.86959 12.1324 6.61431 11.8765 6.29934 11.8765H6.25188ZM23 2.74691V9.18063C23 10.7039 21.7814 11.94 20.2617 11.94H12.8664C12.7219 11.94 12.6028 11.9392 12.5032 11.9371C12.3988 11.935 12.2814 11.9341 12.2356 11.9392C12.1878 11.971 12.0709 12.0784 11.9582 12.1825C11.9135 12.2237 11.8629 12.269 11.8084 12.319L9.71607 14.2305C9.54918 14.3831 9.30226 14.4226 9.09558 14.3313C8.8889 14.2399 8.7438 14.0348 8.7438 13.8083V7.74833H2.77014C1.87916 7.74833 1.1405 8.48016 1.1405 9.37313V15.8068C1.1405 16.6999 1.87922 17.402 2.77014 17.402H11.0307C11.173 17.402 11.3061 17.4675 11.4111 17.5636L13.1157 19.1389V13.7063C13.1157 13.3906 13.371 13.1347 13.686 13.1347C14.0009 13.1347 14.2562 13.3906 14.2562 13.7063V20.4345C14.2562 20.6609 14.1269 20.863 13.9202 20.9544C13.8463 20.9871 13.772 21 13.6943 21C13.5546 21 13.4169 20.9425 13.3097 20.8445L10.8097 18.5451H2.77014C1.25036 18.5451 0 17.3302 0 15.8068V9.37313C0 7.84982 1.25036 6.60513 2.77014 6.60513H8.7438V2.74691C8.7438 1.22354 10.0037 0 11.5235 0H20.2618C21.7814 0 23 1.22354 23 2.74691ZM21.8595 2.74691C21.8595 1.85388 21.1526 1.1432 20.2617 1.1432H11.5235C10.6326 1.1432 9.8843 1.85388 9.8843 2.74691V7.18207V12.5128L11.0308 11.4742C11.0839 11.4256 11.1434 11.3812 11.1868 11.341C11.7104 10.8574 11.8443 10.7801 12.5272 10.7942C12.6203 10.7962 12.7313 10.7969 12.8664 10.7969H20.2617C21.1526 10.7969 21.8595 10.0737 21.8595 9.18069V2.74691Z" fill="#1D478E"/>
</svg>
