<svg width="8" height="8" viewBox="0 0 8 8" fill="none" xmlns="http://www.w3.org/2000/svg">
<path d="M3.10329 0.816631C3.47013 0.0734626 4.52987 0.0734625 4.89671 0.816631L5.31255 1.65909C5.45809 1.95394 5.73928 2.1584 6.06463 2.20595L6.99622 2.34212C7.81613 2.46196 8.14291 3.4698 7.54932 4.04796L6.87679 4.70301C6.64091 4.93275 6.53325 5.26388 6.58891 5.58841L6.74743 6.51263C6.88755 7.32959 6.03 7.95256 5.29637 7.56675L4.46545 7.12978C4.17407 6.97654 3.82593 6.97654 3.53455 7.12978L2.70363 7.56675C1.97 7.95255 1.11245 7.32959 1.25257 6.51263L1.41109 5.58841C1.46675 5.26388 1.35908 4.93275 1.12321 4.70301L0.450678 4.04796C-0.142915 3.4698 0.183869 2.46196 1.00378 2.34212L1.93537 2.20595C2.26072 2.1584 2.54191 1.95394 2.68745 1.65909L3.10329 0.816631Z" fill="#FFD325"/>
</svg>
