<svg width="152" height="85" viewBox="0 0 152 85" fill="none" xmlns="http://www.w3.org/2000/svg">
<path d="M129.57 0H11.1095C9.56138 0 8.3064 1.25708 8.3064 2.80778V76.427C8.3064 77.9777 9.56138 79.2348 11.1095 79.2348H129.57C131.118 79.2348 132.373 77.9777 132.373 76.427V2.80778C132.373 1.25708 131.118 0 129.57 0Z" fill="#161742"/>
<path d="M126.786 4.62256H13.8921V70.5655H126.786V4.62256Z" fill="white"/>
<path d="M0.000915527 74.8217V81.8271C0.000915527 83.0779 1.42974 84.1059 3.17942 84.1059H137.514C139.259 84.1059 140.692 83.0815 140.692 81.8271V74.8217H0.000915527Z" fill="#1D478E"/>
<path d="M45.7078 74.8217V78.0536C45.7078 78.6336 46.321 79.1067 47.0726 79.1067H93.6206C94.3723 79.1067 94.9855 78.6336 94.9855 78.0536V74.8217H45.7127H45.7078Z" fill="#161742"/>
<path opacity="0.1" d="M129.569 0H114.447C117.336 13.5375 123.953 63.3808 68.0865 74.5418H132.372V2.80778C132.372 1.2635 131.111 0 129.569 0Z" fill="#5BC4F0"/>
<mask id="mask0_1759_8789" style="mask-type:alpha" maskUnits="userSpaceOnUse" x="38" y="4" width="64" height="63">
<rect x="38.5653" y="4.11902" width="62.8469" height="62.8469" fill="#D9D9D9"/>
</mask>
<g mask="url(#mask0_1759_8789)">
<path d="M49.3691 56.4914C48.9615 56.4914 48.6008 56.3946 48.287 56.2008C47.9727 56.007 47.7285 55.7515 47.5544 55.4342C47.3641 55.1217 47.2594 54.7835 47.2402 54.4195C47.2214 54.055 47.3233 53.6878 47.5459 53.3177L68.159 17.7673C68.3816 17.3972 68.65 17.1281 68.9643 16.9601C69.2781 16.7925 69.6196 16.7087 69.9888 16.7087C70.358 16.7087 70.6995 16.7925 71.0133 16.9601C71.3276 17.1281 71.596 17.3972 71.8186 17.7673L92.4317 53.3177C92.6543 53.6878 92.7562 54.055 92.7374 54.4195C92.7182 54.7835 92.6135 55.1217 92.4232 55.4342C92.249 55.7515 92.0049 56.007 91.6906 56.2008C91.3768 56.3946 91.0161 56.4914 90.6085 56.4914H49.3691ZM69.9888 50.2473C70.4453 50.2473 70.8281 50.0928 71.1371 49.7838C71.4461 49.4748 71.6006 49.0921 71.6006 48.6356C71.6006 48.1791 71.4461 47.7963 71.1371 47.4873C70.8281 47.1783 70.4453 47.0238 69.9888 47.0238C69.5323 47.0238 69.1495 47.1783 68.8405 47.4873C68.5315 47.7963 68.377 48.1791 68.377 48.6356C68.377 49.0921 68.5315 49.4748 68.8405 49.7838C69.1495 50.0928 69.5323 50.2473 69.9888 50.2473ZM69.9908 44.4052C70.3622 44.4052 70.6729 44.2797 70.923 44.0288C71.1731 43.7778 71.2981 43.4669 71.2981 43.0959V32.6214C71.2981 32.2504 71.1724 31.9395 70.921 31.6885C70.6696 31.4376 70.3582 31.3121 69.9868 31.3121C69.6154 31.3121 69.3047 31.4376 69.0546 31.6885C68.8045 31.9395 68.6795 32.2504 68.6795 32.6214V43.0959C68.6795 43.4669 68.8052 43.7778 69.0566 44.0288C69.308 44.2797 69.6194 44.4052 69.9908 44.4052Z" fill="#EE3D4B"/>
</g>
<path d="M139.943 35.4117C138.459 33.8913 136.432 33.0232 134.309 32.9988L115.217 32.7791C110.763 32.7278 107.125 36.3243 107.125 40.7786V76.4646C107.125 80.8829 110.707 84.4646 115.125 84.4646H143.98C148.405 84.4646 151.99 80.871 151.98 76.4451L151.917 50.9221C151.912 48.8413 151.097 46.8444 149.644 45.355L139.943 35.4117Z" fill="#FFD325"/>
<path d="M139.412 34.8229L150.481 46.2496L136.555 47.6779L139.412 34.8229Z" fill="#FFBA36"/>
<g opacity="0.7">
<path d="M135.012 55.2668C133.899 55.2668 132.87 55.6234 132.028 56.2266C130.952 54.5256 129.059 53.3968 126.901 53.3968C123.563 53.3968 120.856 56.0963 120.834 59.4332C120.633 59.3913 120.424 59.3696 120.21 59.3696C118.506 59.3696 117.124 60.7543 117.124 62.4615C117.124 64.1687 118.506 65.5533 120.21 65.5533H135.012C137.848 65.5533 140.145 63.2507 140.145 60.4116C140.145 57.5725 137.847 55.2699 135.012 55.2699V55.2668Z" fill="white"/>
</g>
</svg>
