<svg width="200" height="200" viewBox="0 0 200 200" fill="none" xmlns="http://www.w3.org/2000/svg">
<g id="Layer_1" clip-path="url(#clip0_2_328)">
<g id="Clip path group">
<mask id="mask0_2_328" style="mask-type:luminance" maskUnits="userSpaceOnUse" x="0" y="1" width="200" height="199">
<g id="clippath">
<path id="Vector" d="M100 200C155.228 200 200 155.535 200 100.684C200 45.8336 155.228 1.36841 100 1.36841C44.7715 1.36841 0 45.8336 0 100.684C0 155.535 44.7715 200 100 200Z" fill="white"/>
</g>
</mask>
<g mask="url(#mask0_2_328)">
<g id="Group">
<path id="Vector_2" d="M100 199.979C155.217 199.979 199.979 155.523 199.979 100.684C199.979 45.8449 155.217 1.38892 100 1.38892C44.783 1.38892 0.020752 45.8449 0.020752 100.684C0.020752 155.523 44.783 199.979 100 199.979Z" fill="#FFF4EC"/>
<g id="Group_2">
<g id="Group_3" opacity="0.88">
<g id="Group_4" opacity="0.54">
<path id="Vector_3" d="M64.1702 71.137C64.8446 71.137 65.3913 70.594 65.3913 69.9242C65.3913 69.2544 64.8446 68.7114 64.1702 68.7114C63.4958 68.7114 62.949 69.2544 62.949 69.9242C62.949 70.594 63.4958 71.137 64.1702 71.137Z" fill="#151842"/>
<path id="Vector_4" d="M78.2709 54.023C78.6399 54.023 78.9391 53.7259 78.9391 53.3593C78.9391 52.9928 78.6399 52.6957 78.2709 52.6957C77.9018 52.6957 77.6027 52.9928 77.6027 53.3593C77.6027 53.7259 77.9018 54.023 78.2709 54.023Z" fill="#151842"/>
<path id="Vector_5" d="M81.4701 61.514C82.0531 61.514 82.5257 61.0447 82.5257 60.4657C82.5257 59.8867 82.0531 59.4174 81.4701 59.4174C80.8871 59.4174 80.4146 59.8867 80.4146 60.4657C80.4146 61.0447 80.8871 61.514 81.4701 61.514Z" fill="#151842"/>
<path id="Vector_6" d="M111.925 67.1668C112.356 67.1668 112.705 66.8197 112.705 66.3916C112.705 65.9634 112.356 65.6163 111.925 65.6163C111.493 65.6163 111.144 65.9634 111.144 66.3916C111.144 66.8197 111.493 67.1668 111.925 67.1668Z" fill="#151842"/>
<path id="Vector_7" d="M93.4242 69.704C93.7508 69.704 94.0156 69.4411 94.0156 69.1167C94.0156 68.7924 93.7508 68.5294 93.4242 68.5294C93.0976 68.5294 92.8329 68.7924 92.8329 69.1167C92.8329 69.4411 93.0976 69.704 93.4242 69.704Z" fill="#151842"/>
<path id="Vector_8" d="M76.0297 74.6521C76.3775 74.6521 76.6595 74.372 76.6595 74.0266C76.6595 73.6812 76.3775 73.4011 76.0297 73.4011C75.6819 73.4011 75.3999 73.6812 75.3999 74.0266C75.3999 74.372 75.6819 74.6521 76.0297 74.6521Z" fill="#151842"/>
<path id="Vector_9" d="M60.3531 55.7996C60.7989 55.7996 61.1603 55.4407 61.1603 54.998C61.1603 54.5552 60.7989 54.1963 60.3531 54.1963C59.9073 54.1963 59.5459 54.5552 59.5459 54.998C59.5459 55.4407 59.9073 55.7996 60.3531 55.7996Z" fill="#151842"/>
<path id="Vector_10" d="M43.266 36.818C43.7984 36.818 44.2299 36.3894 44.2299 35.8607C44.2299 35.332 43.7984 34.9034 43.266 34.9034C42.7337 34.9034 42.3021 35.332 42.3021 35.8607C42.3021 36.3894 42.7337 36.818 43.266 36.818Z" fill="#151842"/>
<path id="Vector_11" d="M89.2374 73.0457C89.5248 73.0457 89.7578 72.8143 89.7578 72.5289C89.7578 72.2435 89.5248 72.0121 89.2374 72.0121C88.95 72.0121 88.717 72.2435 88.717 72.5289C88.717 72.8143 88.95 73.0457 89.2374 73.0457Z" fill="#151842"/>
<path id="Vector_12" d="M66.0744 27.8117C66.4516 27.8117 66.7574 27.508 66.7574 27.1334C66.7574 26.7588 66.4516 26.4551 66.0744 26.4551C65.6971 26.4551 65.3914 26.7588 65.3914 27.1334C65.3914 27.508 65.6971 27.8117 66.0744 27.8117Z" fill="#151842"/>
<path id="Vector_13" d="M88.1405 39.9718C88.6467 39.9718 89.0571 39.5642 89.0571 39.0614C89.0571 38.5587 88.6467 38.1511 88.1405 38.1511C87.6343 38.1511 87.2239 38.5587 87.2239 39.0614C87.2239 39.5642 87.6343 39.9718 88.1405 39.9718Z" fill="#151842"/>
<path id="Vector_14" d="M57.3401 39.0614C57.5932 39.0614 57.7984 38.8577 57.7984 38.6063C57.7984 38.3549 57.5932 38.1511 57.3401 38.1511C57.087 38.1511 56.8818 38.3549 56.8818 38.6063C56.8818 38.8577 57.087 39.0614 57.3401 39.0614Z" fill="#151842"/>
<path id="Vector_15" d="M100.73 66.001C101.16 66.001 101.508 65.6553 101.508 65.2287C101.508 64.8022 101.16 64.4564 100.73 64.4564C100.301 64.4564 99.9527 64.8022 99.9527 65.2287C99.9527 65.6553 100.301 66.001 100.73 66.001Z" fill="#151842"/>
<path id="Vector_16" d="M50.0754 68.1095C50.451 68.1095 50.7555 67.8071 50.7555 67.4341C50.7555 67.0611 50.451 66.7587 50.0754 66.7587C49.6999 66.7587 49.3954 67.0611 49.3954 67.4341C49.3954 67.8071 49.6999 68.1095 50.0754 68.1095Z" fill="#151842"/>
</g>
<g id="Group_5" opacity="0.54">
<path id="Vector_17" d="M48.0708 126.252C48.4399 126.252 48.739 125.955 48.739 125.589C48.739 125.222 48.4399 124.925 48.0708 124.925C47.7018 124.925 47.4026 125.222 47.4026 125.589C47.4026 125.955 47.7018 126.252 48.0708 126.252Z" fill="#151842"/>
<path id="Vector_18" d="M10.4905 158.049C10.8171 158.049 11.0819 157.786 11.0819 157.462C11.0819 157.137 10.8171 156.874 10.4905 156.874C10.1639 156.874 9.89917 157.137 9.89917 157.462C9.89917 157.786 10.1639 158.049 10.4905 158.049Z" fill="#151842"/>
<path id="Vector_19" d="M48.0707 140.336C48.4431 140.336 48.7449 140.036 48.7449 139.666C48.7449 139.297 48.4431 138.997 48.0707 138.997C47.6984 138.997 47.3966 139.297 47.3966 139.666C47.3966 140.036 47.6984 140.336 48.0707 140.336Z" fill="#151842"/>
<path id="Vector_20" d="M46.3233 152.249C46.6711 152.249 46.9531 151.969 46.9531 151.624C46.9531 151.278 46.6711 150.998 46.3233 150.998C45.9754 150.998 45.6935 151.278 45.6935 151.624C45.6935 151.969 45.9754 152.249 46.3233 152.249Z" fill="#151842"/>
<path id="Vector_21" d="M11.2978 142.488C11.7436 142.488 12.105 142.129 12.105 141.687C12.105 141.244 11.7436 140.885 11.2978 140.885C10.852 140.885 10.4906 141.244 10.4906 141.687C10.4906 142.129 10.852 142.488 11.2978 142.488Z" fill="#151842"/>
<path id="Vector_22" d="M63.1708 132.695C63.4582 132.695 63.6912 132.464 63.6912 132.178C63.6912 131.893 63.4582 131.661 63.1708 131.661C62.8834 131.661 62.6505 131.893 62.6505 132.178C62.6505 132.464 62.8834 132.695 63.1708 132.695Z" fill="#151842"/>
<path id="Vector_23" d="M35.8771 100.041C36.2543 100.041 36.5601 99.7374 36.5601 99.3628C36.5601 98.9881 36.2543 98.6844 35.8771 98.6844C35.4999 98.6844 35.1941 98.9881 35.1941 99.3628C35.1941 99.7374 35.4999 100.041 35.8771 100.041Z" fill="#151842"/>
<path id="Vector_24" d="M51.8022 102.757C52.0945 102.757 52.3315 102.522 52.3315 102.232C52.3315 101.942 52.0945 101.706 51.8022 101.706C51.5099 101.706 51.2729 101.942 51.2729 102.232C51.2729 102.522 51.5099 102.757 51.8022 102.757Z" fill="#151842"/>
<path id="Vector_25" d="M19.009 176.713C19.2621 176.713 19.4672 176.51 19.4672 176.258C19.4672 176.007 19.2621 175.803 19.009 175.803C18.7558 175.803 18.5507 176.007 18.5507 176.258C18.5507 176.51 18.7558 176.713 19.009 176.713Z" fill="#151842"/>
<path id="Vector_26" d="M55.022 148.752C55.4678 148.752 55.8292 148.393 55.8292 147.95C55.8292 147.508 55.4678 147.149 55.022 147.149C54.5762 147.149 54.2148 147.508 54.2148 147.95C54.2148 148.393 54.5762 148.752 55.022 148.752Z" fill="#151842"/>
<path id="Vector_27" d="M26.5014 131.679C26.9308 131.679 27.279 131.333 27.279 130.907C27.279 130.48 26.9308 130.135 26.5014 130.135C26.0719 130.135 25.7238 130.48 25.7238 130.907C25.7238 131.333 26.0719 131.679 26.5014 131.679Z" fill="#151842"/>
<path id="Vector_28" d="M2.22351 133.109C2.59909 133.109 2.90356 132.807 2.90356 132.434C2.90356 132.061 2.59909 131.758 2.22351 131.758C1.84793 131.758 1.54346 132.061 1.54346 132.434C1.54346 132.807 1.84793 133.109 2.22351 133.109Z" fill="#151842"/>
</g>
<g id="Group_6" opacity="0.54">
<path id="Vector_29" d="M138.198 159.564C138.567 159.564 138.866 159.267 138.866 158.901C138.866 158.534 138.567 158.237 138.198 158.237C137.829 158.237 137.53 158.534 137.53 158.901C137.53 159.267 137.829 159.564 138.198 159.564Z" fill="#151842"/>
<path id="Vector_30" d="M159.774 160.513C160.205 160.513 160.554 160.166 160.554 159.738C160.554 159.309 160.205 158.962 159.774 158.962C159.342 158.962 158.993 159.309 158.993 159.738C158.993 160.166 159.342 160.513 159.774 160.513Z" fill="#151842"/>
<path id="Vector_31" d="M119.473 189.267C119.8 189.267 120.064 189.004 120.064 188.68C120.064 188.355 119.8 188.092 119.473 188.092C119.147 188.092 118.882 188.355 118.882 188.68C118.882 189.004 119.147 189.267 119.473 189.267Z" fill="#151842"/>
<path id="Vector_32" d="M151.081 178.69C151.453 178.69 151.755 178.39 151.755 178.02C151.755 177.65 151.453 177.351 151.081 177.351C150.708 177.351 150.407 177.65 150.407 178.02C150.407 178.39 150.708 178.69 151.081 178.69Z" fill="#151842"/>
<path id="Vector_33" d="M136.448 185.561C136.796 185.561 137.078 185.281 137.078 184.936C137.078 184.59 136.796 184.31 136.448 184.31C136.1 184.31 135.818 184.59 135.818 184.936C135.818 185.281 136.1 185.561 136.448 185.561Z" fill="#151842"/>
<path id="Vector_34" d="M120.28 161.341C120.726 161.341 121.088 160.982 121.088 160.539C121.088 160.096 120.726 159.737 120.28 159.737C119.835 159.737 119.473 160.096 119.473 160.539C119.473 160.982 119.835 161.341 120.28 161.341Z" fill="#151842"/>
<path id="Vector_35" d="M129.171 155.438C129.704 155.438 130.135 155.01 130.135 154.481C130.135 153.952 129.704 153.524 129.171 153.524C128.639 153.524 128.207 153.952 128.207 154.481C128.207 155.01 128.639 155.438 129.171 155.438Z" fill="#151842"/>
<path id="Vector_36" d="M153.298 166.007C153.586 166.007 153.819 165.776 153.819 165.49C153.819 165.205 153.586 164.973 153.298 164.973C153.011 164.973 152.778 165.205 152.778 165.49C152.778 165.776 153.011 166.007 153.298 166.007Z" fill="#151842"/>
<path id="Vector_37" d="M126.002 133.353C126.379 133.353 126.685 133.049 126.685 132.675C126.685 132.3 126.379 131.996 126.002 131.996C125.624 131.996 125.319 132.3 125.319 132.675C125.319 133.049 125.624 133.353 126.002 133.353Z" fill="#151842"/>
<path id="Vector_38" d="M141.93 136.069C142.222 136.069 142.459 135.834 142.459 135.544C142.459 135.253 142.222 135.018 141.93 135.018C141.637 135.018 141.4 135.253 141.4 135.544C141.4 135.834 141.637 136.069 141.93 136.069Z" fill="#151842"/>
<path id="Vector_39" d="M117.267 144.603C117.521 144.603 117.726 144.399 117.726 144.148C117.726 143.896 117.521 143.692 117.267 143.692C117.014 143.692 116.809 143.896 116.809 144.148C116.809 144.399 117.014 144.603 117.267 144.603Z" fill="#151842"/>
<path id="Vector_40" d="M145.149 182.064C145.595 182.064 145.957 181.705 145.957 181.262C145.957 180.819 145.595 180.46 145.149 180.46C144.704 180.46 144.342 180.819 144.342 181.262C144.342 181.705 144.704 182.064 145.149 182.064Z" fill="#151842"/>
<path id="Vector_41" d="M126.779 185.561C127.209 185.561 127.557 185.215 127.557 184.789C127.557 184.362 127.209 184.017 126.779 184.017C126.35 184.017 126.002 184.362 126.002 184.789C126.002 185.215 126.35 185.561 126.779 185.561Z" fill="#151842"/>
<path id="Vector_42" d="M114.825 178.07C115.201 178.07 115.505 177.768 115.505 177.395C115.505 177.022 115.201 176.719 114.825 176.719C114.45 176.719 114.145 177.022 114.145 177.395C114.145 177.768 114.45 178.07 114.825 178.07Z" fill="#151842"/>
</g>
</g>
<g id="Group_7">
<path id="Vector_43" d="M150.874 150.787L134.21 116.765L127.11 150.787H150.874Z" fill="#FFD327"/>
<path id="Vector_44" d="M181.115 121.739L163.218 110.842L181.092 142.938L181.115 121.739Z" fill="#FFD327"/>
<path id="Vector_45" d="M180.982 102.822L172.032 99.5477L181.092 110.137L180.982 102.822Z" fill="#FFD327"/>
<path id="Vector_46" d="M181.092 87.8223L171.935 89.8191L181.189 96.67L181.092 87.8223Z" fill="#FFD327"/>
<path id="Vector_47" d="M180.497 150.787L150.874 118.606L156.737 150.787H180.497Z" fill="#FFD327"/>
</g>
<g id="Group_8">
<path id="Vector_48" d="M37.2787 58.1223L71.5326 74.6725L37.2787 81.7201V58.1223Z" fill="#FFD327"/>
<path id="Vector_49" d="M66.5267 28.0847L77.4992 45.8624L45.182 28.1082L66.5267 28.0847Z" fill="#FFD327"/>
<path id="Vector_50" d="M85.5741 28.2199L88.8709 37.1058L78.2089 28.1083L85.5741 28.2199Z" fill="#FFD327"/>
<path id="Vector_51" d="M100.677 28.1083L98.6666 37.2026L91.7685 28.0114L100.677 28.1083Z" fill="#FFD327"/>
<path id="Vector_52" d="M37.2787 28.6985L69.6816 58.1223L37.2787 52.2992V28.6985Z" fill="#FFD327"/>
</g>
<g id="Group_9">
<path id="Vector_53" d="M84.9029 31.9845C85.3612 31.4824 86.1536 31.0478 86.677 31.4795C86.8692 31.638 86.9697 31.8759 87.0584 32.1079C87.7414 33.8933 88.5486 36.3042 88.2825 38.2423C88.0873 39.6577 86.5351 42.0891 84.7758 40.8293C82.026 38.8589 82.9781 34.1018 84.9059 31.9845H84.9029Z" fill="#1E3B6E"/>
<path id="Vector_54" d="M79.6044 41.5194C79.294 41.2111 79.0397 40.6913 79.3354 40.3683C79.4448 40.2508 79.6015 40.1951 79.7523 40.1451C80.932 39.7663 82.5168 39.3288 83.7646 39.5637C84.6752 39.734 86.198 40.8029 85.3257 41.8865C83.9627 43.5779 80.9113 42.8174 79.6044 41.5165V41.5194Z" fill="#1E3B6E"/>
</g>
<path id="Vector_55" d="M118.539 35.2793C117.637 34.4306 116.611 33.6759 115.419 33.0417C113.249 31.8847 110.872 31.1623 108.492 30.5779C104.831 29.6794 100.958 29.9818 97.4365 30.9949C86.6119 34.1047 80.11 44.6145 76.8606 54.6103C76.7896 54.8277 76.7186 55.0596 76.7867 55.2769C77.0262 56.0463 78.1586 56.5044 78.6169 57.1446C79.0249 57.7142 79.1225 58.3779 79.4802 58.9681C80.32 60.3483 81.8249 61.1911 83.3181 61.702C86.1861 62.6799 89.2582 62.4068 92.1854 63.044C99.731 64.5945 107.404 65.1054 114.94 66.6471C117.306 67.1316 119.772 67.6103 122.072 66.7851C124.733 65.8308 128.686 63.4551 129.769 60.0517C130.088 59.0474 130.159 57.9492 129.869 56.7746C129.452 55.0773 128.589 53.5943 127.743 52.1466C124.5 46.6084 123.234 39.687 118.542 35.2734L118.539 35.2793Z" fill="#1E3B6E"/>
<path id="Vector_56" d="M102.135 58.9799C108.222 58.9799 113.158 53.5106 113.158 46.764C113.158 40.0173 108.222 34.5481 102.135 34.5481C96.0471 34.5481 91.1121 40.0173 91.1121 46.764C91.1121 53.5106 96.0471 58.9799 102.135 58.9799Z" fill="#262436"/>
<path id="Vector_57" d="M102.135 57.5057C107.488 57.5057 111.827 52.6965 111.827 46.764C111.827 40.8315 107.488 36.0222 102.135 36.0222C96.782 36.0222 92.4426 40.8315 92.4426 46.764C92.4426 52.6965 96.782 57.5057 102.135 57.5057Z" fill="#F5F5F5"/>
<path id="Vector_58" d="M101.15 53.9144C104.083 53.9144 106.461 51.5532 106.461 48.6404C106.461 45.7277 104.083 43.3665 101.15 43.3665C98.2174 43.3665 95.8399 45.7277 95.8399 48.6404C95.8399 51.5532 98.2174 53.9144 101.15 53.9144Z" fill="#262436"/>
<path id="Vector_59" d="M97.0167 49.2424C97.8038 49.2424 98.4419 48.6087 98.4419 47.827C98.4419 47.0453 97.8038 46.4116 97.0167 46.4116C96.2296 46.4116 95.5916 47.0453 95.5916 47.827C95.5916 48.6087 96.2296 49.2424 97.0167 49.2424Z" fill="#F5F5F5"/>
<g id="Group_10">
<path id="Vector_60" d="M120.644 56.8773C120.818 56.9125 121.028 56.9125 121.286 56.8685C121.827 56.7745 122.315 56.4985 122.788 56.2283C124 55.5353 125.215 54.8393 126.427 54.1463C126.776 53.9466 127.137 53.7381 127.382 53.4151C128.527 51.9146 126.649 46.5496 124.281 47.1721C122.584 47.6155 121.738 50.7077 121.156 52.0996C120.724 53.1303 119.041 56.5543 120.647 56.8802L120.644 56.8773Z" fill="#262436"/>
<path id="Vector_61" d="M120.632 57.9168C122.436 59.8607 127.093 61.053 129.012 61.5228C129.993 61.7636 134.411 62.5447 135.129 61.3819C135.209 61.2527 135.138 61.0882 135.067 60.9561C132.974 57.0329 130.248 54.2461 127.279 51.0541C127.107 50.8721 126.924 50.6812 126.685 50.6137C125.49 50.2789 122.755 52.634 121.898 53.374C120.538 54.5486 119.089 56.2518 120.635 57.9168H120.632Z" fill="#FFD327"/>
</g>
<g id="Group_11">
<path id="Vector_62" d="M121.297 170.209C122.566 170.241 123.861 170.28 125.05 170.714C124.712 169.865 124.331 169.032 123.914 168.218C123.766 167.93 123.61 167.64 123.367 167.425C123.163 167.243 122.906 167.126 122.643 167.041C120.177 166.268 118.29 168.397 117.205 170.291C118.568 170.315 119.934 170.174 121.297 170.209Z" fill="#E3B829"/>
<path id="Vector_63" d="M90.5532 161.496C90.4705 162.495 90.5266 163.502 90.7188 164.486C90.7543 164.668 90.8016 164.862 90.9435 164.979C91.1032 165.114 91.3338 165.117 91.5437 165.114C92.3391 165.099 93.1315 165.085 93.9269 165.067C94.2847 163.84 94.5123 162.574 94.604 161.297C93.3917 161.288 92.1824 161.282 90.9701 161.273" fill="#E3B829"/>
<path id="Vector_64" d="M97.9954 160.847C97.9126 162.236 97.9688 163.64 98.161 165.008C98.1964 165.261 98.2438 165.531 98.3857 165.696C98.5453 165.884 98.776 165.889 98.9859 165.884C99.7813 165.863 100.574 165.842 101.369 165.819C101.727 164.11 101.954 162.345 102.046 160.571C100.834 160.56 99.6245 160.551 98.4123 160.539" fill="#E3B829"/>
<path id="Vector_65" d="M83.4955 167.795C83.0638 168.286 82.7415 168.855 82.8509 169.528C83.1318 171.243 84.5333 171.407 85.9673 170.735C87.833 169.857 89.403 168.732 91.4905 168.438C93.7258 168.124 95.6033 168.647 97.7529 169.202C99.385 169.625 101.023 170.033 102.652 170.476C103.489 170.705 104.323 170.943 105.154 171.196C105.686 171.357 106.647 172.003 107.179 171.63C108.078 171.002 104.87 168.858 107.256 169.187C108.965 169.425 110.635 170.13 112.232 170.843C113.075 171.219 113.917 171.595 114.754 171.986C115.428 172.303 116.395 173.034 117.167 172.878C117.998 172.708 117.631 171.859 117.696 171.184C117.755 170.579 117.838 169.977 118.057 169.404C118.489 168.283 119.541 167.563 120.724 167.413C122.921 167.137 123.864 168.526 124.642 170.303C124.86 170.805 125.777 171.125 126.07 170.476C126.3 169.971 125.449 168.559 125.197 168.133C124.65 167.205 123.855 166.421 122.862 165.975C122.318 165.728 121.714 165.59 121.129 165.487C119.979 165.284 118.805 165.267 117.64 165.217C115.55 165.129 113.459 165.22 111.369 165.243C107.232 165.287 103.161 165.49 99.0332 165.549C97.5341 165.569 95.9552 165.42 94.6897 164.544C94.5507 164.448 94.4088 164.339 94.2432 164.295C94.1131 164.26 93.9771 164.268 93.8441 164.274C92.6407 164.339 90.9524 164.098 89.9382 164.779C89.5538 165.038 89.1695 165.296 88.7851 165.552C87.4427 166.453 85.6214 166.691 84.1253 167.305C83.9065 167.393 83.6906 167.569 83.4925 167.792L83.4955 167.795Z" fill="#FFD327"/>
</g>
<path id="Vector_66" d="M152.645 96.6523C153.511 102.828 154.265 108.942 153.085 115.082C152.133 120.039 150.977 124.99 149.038 129.668C147.071 134.407 144.307 138.791 140.871 142.618C137.409 146.476 133.769 150.147 129.233 152.775C125.735 154.801 122.164 157.015 118.335 158.381C114.648 159.693 110.535 160.087 106.809 160.704C98.773 162.037 90.4823 162.137 82.431 160.862C68.8714 158.716 50.8737 151.495 43.8071 137.179C37.4619 124.326 38.8575 106.945 42.2312 93.2988C45.7822 78.9393 55.229 67.158 66.8076 60.2484C71.0801 57.6966 75.7843 55.6469 80.5979 54.3284C91.0352 51.4711 102.155 51.2069 112.749 53.3652C120.322 54.9069 127.79 57.8816 133.804 62.7855C144.067 71.1517 150.818 83.6377 152.639 96.6494L152.645 96.6523Z" fill="#1E488E" stroke="#171844" stroke-width="1.5" stroke-miterlimit="10"/>
<path id="Vector_67" d="M150.481 83.764C148.81 84.1047 147.104 86.357 145.898 87.4347C141.992 90.9233 138.186 94.4441 134.18 97.9591C129.683 101.906 107.217 121.099 107.454 121.669C107.628 122.088 108.403 122.212 108.69 122.57C109.113 123.104 109.562 123.624 110.032 124.138C110.467 124.614 110.304 127.042 110.547 127.591C111.301 127.025 111.889 126.502 112.554 125.941C114.946 124.112 116.957 122.312 119.104 120.476C123.926 116.351 129.236 110.334 133.946 106.217C137.772 102.872 141.59 99.5184 145.404 96.162C147.861 93.9978 152.544 91.6779 151.569 87.9398C151.205 86.5479 150.841 85.1559 150.478 83.764H150.481Z" fill="#25C4F0"/>
<path id="Vector_68" d="M117.445 144.838C116.732 145.792 114.187 146.042 113.113 146.321C110.582 146.978 107.998 147.398 105.417 147.818C104.586 147.953 103.755 148.088 102.924 148.223C101.449 148.464 99.9764 148.702 98.501 148.943C95.97 149.354 95.5502 147.028 94.9174 145.102C94.3882 143.49 93.5751 141.866 93.031 140.33C92.694 139.376 92.3805 138.929 93.4095 138.492C94.0807 138.207 94.7193 137.902 95.355 137.505C100.29 134.422 105.257 131.6 109.716 127.873C110.42 127.283 111.138 126.693 111.812 126.07C111.987 125.909 113.672 124.702 113.743 124.928C114.03 125.882 114.228 126.86 114.402 127.841C114.488 128.331 114.535 128.845 114.654 129.33C114.766 129.791 114.908 130.228 114.973 130.713C114.991 130.851 115.008 130.989 115.029 131.127C115.071 131.444 115.094 131.779 115.171 132.09C115.236 132.36 115.393 132.613 115.437 132.886C115.496 133.259 115.499 133.558 115.623 133.931C115.78 134.398 115.819 134.851 115.907 135.329C115.987 135.764 116.114 136.19 116.206 136.621C116.292 137.015 116.286 137.402 116.38 137.793C116.46 138.125 116.549 138.459 116.611 138.797C116.738 139.484 116.919 140.171 117.022 140.859C117.066 141.155 117.084 141.449 117.14 141.751C117.282 142.503 117.374 143.264 117.59 143.998C117.687 144.33 117.622 144.606 117.448 144.841L117.445 144.838Z" fill="#25C4F0"/>
<path id="Vector_69" d="M120.978 139.901L117.531 144.679L113.743 124.928L118.19 121.263L120.978 139.901Z" fill="#00A7CA"/>
<path id="Vector_70" d="M105.724 143.951L85.8284 138.7L113.743 124.928L105.724 143.951Z" fill="#67CCEC"/>
<path id="Vector_71" d="M109.13 129.867C103.98 136.116 97.543 141.22 90.6183 145.404C83.6345 149.624 72.1061 157.476 63.5966 154.719C58.99 153.227 57.2928 150.699 52.4704 154.211C49.0672 156.689 45.111 161.37 40.945 162.463C35.9037 163.784 37.323 159.928 37.6423 156.634C33.6093 158.395 29.1831 159.955 24.6652 158.971C13.1989 156.469 19.4495 145.381 24.1093 139.687C27.208 135.902 31.1168 132.058 31.8885 127.01C32.944 120.103 32.0748 113.038 33.3048 106.178C34.7654 98.0178 38.417 90.1245 43.2424 83.3998C47.7071 77.1803 53.1504 70.4968 59.3655 65.9452C64.4541 62.2188 74.5779 59.99 80.9527 59.6787C89.1665 59.2764 98.4655 61.7901 105.168 66.5355C112.986 72.0708 117.823 80.71 119.476 90.0129C122.329 106.058 117.841 119.299 109.127 129.87L109.13 129.867Z" fill="#1E3B6E"/>
<path id="Vector_72" d="M38.5205 149.874C37.5861 148.035 39.2892 146.241 39.2656 144.277C39.236 141.566 37.7606 139.332 36.5454 137.003C31.0429 126.481 32.5331 110.134 35.5874 98.9928C38.9315 86.8033 46.0602 75.8912 56.3378 68.365C61.4264 64.6385 71.5473 62.4097 77.925 62.0984C89.0778 61.5522 99.8374 66.5238 106.109 75.7943C116.632 91.3549 114.731 115.76 101.954 129.277C97.2769 134.225 91.5733 138.316 85.4706 141.364C75.2462 146.467 63.9455 148.937 52.6537 150.3C49.4042 150.693 41.2436 153.779 38.7452 150.238C38.6594 150.115 38.5855 149.994 38.5234 149.871L38.5205 149.874Z" fill="#1E488E"/>
<path id="Vector_73" d="M110.777 71.927C114.033 74.7372 116.173 79.0275 117.667 83.0241C118.761 85.9518 119.529 88.994 119.946 92.0891C120.339 95.0051 120.724 98.2 120.594 101.128" stroke="#231F20" stroke-width="1.5" stroke-miterlimit="10"/>
<path id="Vector_74" d="M63.4488 154.986C66.4824 155.524 69.6018 155.233 72.5644 154.449C76.4052 153.433 80.1278 151.95 83.5458 149.953C91.6413 145.228 99.1012 140.606 105.757 133.594" stroke="#231F20" stroke-width="1.5" stroke-miterlimit="10"/>
<path id="Vector_75" d="M33.6478 127.13C33.9051 130.316 35.3539 133.268 36.5868 136.222C37.8198 139.176 38.8724 142.383 38.281 145.525C38.077 146.611 37.6779 147.68 37.7518 148.781C37.8375 150.1 38.6565 151.351 39.8333 151.964C41.0101 152.581 42.5092 152.54 43.6534 151.865" stroke="#231F20" stroke-width="1.5" stroke-miterlimit="10"/>
<path id="Vector_76" d="M138.733 101.806C140.333 100.584 141.891 99.307 143.432 98.012C146.563 95.3779 149.617 92.6528 152.793 90.0717" stroke="#171844" stroke-width="1.5" stroke-miterlimit="10"/>
<path id="Vector_77" d="M80.6807 143.578C83.1437 143.155 85.4026 142.054 87.5463 140.815C88.5634 140.227 91.6148 139.684 92.28 138.894C92.9453 138.104 92.9808 136.304 91.4374 137.065C88.1583 138.686 84.3264 138.8 82.5169 135.291C78.9895 128.458 82.304 120.139 81.1982 112.539C81.1213 112.013 81.0178 111.473 80.7133 111.035C79.912 109.884 78.1705 109.958 76.8399 110.419C74.2705 111.306 72.1357 113.111 69.7201 114.357C67.3044 115.602 64.2146 116.221 61.9557 114.712C60.6044 113.807 59.8032 112.31 59.0581 110.871C57.2485 107.382 55.4361 103.894 53.6265 100.405C51.7046 96.6993 49.15 92.5676 44.5286 92.3151C42.3761 92.1976 40.4188 91.9187 38.7127 93.384C36.8529 94.9785 35.9216 97.3395 35.2504 99.6211C34.1889 103.227 33.3551 106.76 33.1156 110.507C33.0772 111.106 33.0328 111.699 32.9973 112.298C32.8909 113.978 33.3226 115.399 34.3131 116.794C35.4485 118.397 37.5389 119.448 39.4371 118.917C42.3377 118.104 43.8604 114.092 46.8733 114.183C49.2446 114.254 50.6521 116.947 50.7821 119.302C50.9093 121.654 50.2972 124.073 50.9536 126.338C52.1748 130.54 58.2952 132.316 61.6009 129.424C63.1354 128.082 64.3092 125.897 66.3553 125.827C68.4635 125.753 69.8531 128.123 69.9418 130.214C70.0305 132.305 69.3268 134.389 69.5516 136.471C70.0779 141.358 75.808 144.424 80.6837 143.587L80.6807 143.578Z" fill="#1E3B6E"/>
<g id="Group_12">
<path id="Vector_78" d="M140.88 98.5992H106.582C105.558 98.5992 104.728 99.4236 104.728 100.44V122.1C104.728 123.117 105.558 123.941 106.582 123.941H140.88C141.904 123.941 142.734 123.117 142.734 122.1V100.44C142.734 99.4236 141.904 98.5992 140.88 98.5992Z" fill="#FFF4EC"/>
<g id="Group_13">
<path id="Vector_79" d="M125.115 112.163H139.824V101.636H125.115V112.163Z" fill="#EBE1DB"/>
<path id="Vector_80" d="M122.285 101.788H109.873C109.438 101.788 109.086 102.138 109.086 102.569V102.822C109.086 103.253 109.438 103.603 109.873 103.603H122.285C122.719 103.603 123.072 103.253 123.072 102.822V102.569C123.072 102.138 122.719 101.788 122.285 101.788Z" fill="#EBE1DB"/>
<path id="Vector_81" d="M122.285 106.175H109.873C109.438 106.175 109.086 106.525 109.086 106.957V107.209C109.086 107.64 109.438 107.99 109.873 107.99H122.285C122.719 107.99 123.072 107.64 123.072 107.209V106.957C123.072 106.525 122.719 106.175 122.285 106.175Z" fill="#EBE1DB"/>
<path id="Vector_82" d="M122.285 110.254H109.873C109.438 110.254 109.086 110.604 109.086 111.035V111.288C109.086 111.719 109.438 112.069 109.873 112.069H122.285C122.719 112.069 123.072 111.719 123.072 111.288V111.035C123.072 110.604 122.719 110.254 122.285 110.254Z" fill="#EBE1DB"/>
<path id="Vector_83" d="M139.038 114.477H109.873C109.438 114.477 109.086 114.827 109.086 115.258V115.511C109.086 115.942 109.438 116.292 109.873 116.292H139.038C139.472 116.292 139.824 115.942 139.824 115.511V115.258C139.824 114.827 139.472 114.477 139.038 114.477Z" fill="#EBE1DB"/>
<path id="Vector_84" d="M139.038 118.397H109.873C109.438 118.397 109.086 118.747 109.086 119.178V119.431C109.086 119.862 109.438 120.212 109.873 120.212H139.038C139.472 120.212 139.824 119.862 139.824 119.431V119.178C139.824 118.747 139.472 118.397 139.038 118.397Z" fill="#EBE1DB"/>
</g>
</g>
<g id="Group_14">
<path id="Vector_85" d="M163.322 60.5862C169.351 60.5862 174.238 55.7322 174.238 49.7446C174.238 43.7569 169.351 38.903 163.322 38.903C157.293 38.903 152.405 43.7569 152.405 49.7446C152.405 55.7322 157.293 60.5862 163.322 60.5862Z" fill="#EF3E4D"/>
<path id="Vector_86" d="M166.5 45.5776C164.546 47.5187 162.591 49.4597 160.637 51.4007C160.359 51.6768 160.081 51.9528 159.803 52.2288C159.392 52.637 159.363 53.3829 159.803 53.7852C160.244 54.1875 160.933 54.2198 161.37 53.7852C163.325 51.8441 165.279 49.9031 167.233 47.9621C167.511 47.686 167.789 47.41 168.067 47.134C168.478 46.7258 168.508 45.9799 168.067 45.5776C167.627 45.1753 166.938 45.143 166.5 45.5776Z" fill="#FFF4EC"/>
<path id="Vector_87" d="M159.714 47.1692C161.648 49.0897 163.582 51.0102 165.516 52.9307C165.79 53.2038 166.065 53.4769 166.34 53.75C166.751 54.1581 167.502 54.1875 167.908 53.75C168.313 53.3124 168.345 52.6282 167.908 52.1936C165.974 50.2731 164.04 48.3527 162.106 46.4322C161.831 46.1591 161.556 45.886 161.281 45.6129C160.87 45.2047 160.119 45.1754 159.714 45.6129C159.309 46.0504 159.277 46.7346 159.714 47.1692Z" fill="#FFF4EC"/>
</g>
<path id="Vector_88" d="M132.832 118.873C132.654 118.635 132.48 118.383 132.415 118.092C132.35 117.801 132.424 117.463 132.663 117.284C132.944 117.073 133.346 117.149 133.671 117.284C134.346 117.563 135.046 117.854 135.738 118.086C137.246 118.591 138.855 118.867 140.445 118.653C139.685 118.756 137.737 117.049 137.134 116.609C135.369 115.32 132.716 113.132 132.033 111.006C131.761 110.157 131.989 109.667 132.438 109.485C132.888 109.303 133.589 109.438 134.221 109.846C136.625 111.403 138.869 111.226 141.489 110.163C142.113 109.908 142.725 109.623 143.322 109.306C143.322 109.183 144.579 108.595 144.741 108.437C145.247 107.943 145.806 107.515 146.362 107.08C146.82 106.719 147.234 106.305 147.636 105.882C148.035 105.465 148.449 105.063 148.842 104.637C150.146 103.216 150.755 101.374 151.066 99.5126C151.276 98.2528 151.19 97.0019 151.294 95.7333C151.338 95.1754 151.172 94.5763 151.146 94.0125C151.116 93.387 151.045 92.7645 150.951 92.1449C150.755 90.9027 150.454 89.6782 150.132 88.4654C149.721 86.9179 149.286 85.3645 148.653 83.8903C147.887 82.102 147.104 80.346 146.329 78.5664C146.122 78.0878 145.957 77.5886 145.744 77.107C145.711 77.0336 145.531 76.4786 145.498 76.4727C145.756 76.5285 146.217 76.4962 146.498 76.4874C147.527 76.4551 148.559 76.3905 149.591 76.4668C150.776 76.5549 151.953 76.7575 153.106 77.0424C155.377 77.6033 157.565 78.4666 159.67 79.468C159.711 79.4885 159.762 79.5061 159.803 79.5326C165.193 82.1196 170.326 85.4555 174.149 90.0276C177.975 94.5998 180.397 100.52 179.921 106.446C179.468 112.078 176.447 117.287 172.405 121.263C167.698 125.894 161.323 128.455 154.759 128.928C151.456 129.165 148.097 129.007 144.86 128.305C142.494 127.791 139.032 127.216 137.19 125.554C135.064 123.639 140.209 124.405 140.83 124.405C138.148 123.586 134.511 121.117 132.835 118.876L132.832 118.873Z" fill="#1E488E"/>
<path id="Vector_89" d="M167.769 87.2379C167.843 87.4376 167.911 87.6402 167.973 87.8428C169.17 91.81 168.496 96.2412 166.607 99.8854C165.025 102.942 161.997 105.156 158.984 106.698C154.762 108.859 150.247 109.867 145.531 110.143C144.946 110.178 144.357 110.193 143.769 110.163C143.429 110.146 142.338 109.814 142.077 109.943C144.706 108.642 146.743 106.76 148.819 104.725C150.673 102.907 151.155 99.7298 151.255 97.2279C151.279 96.6641 151.329 96.1003 151.35 95.5335C151.365 95.14 151.365 94.7465 151.332 94.3501C151.246 93.3517 151.03 92.3415 150.912 91.3637C150.832 90.7147 150.714 90.0687 150.513 89.4461C150.35 88.9469 150.303 88.4448 150.143 87.9485C149.966 87.4053 149.724 86.8884 149.552 86.3422C149.33 85.6316 149.168 84.921 148.884 84.228C148.597 83.5232 148.272 82.8331 147.964 82.1372C147.811 81.7848 147.657 81.4324 147.465 81.0976C147.269 80.7599 147.163 80.3576 147.003 80.0023C146.728 79.4003 146.527 78.7631 146.241 78.1611C146.037 77.7295 145.661 77.104 145.555 76.6606C145.537 76.5666 148.961 76.4932 149.227 76.4932C151.11 76.4844 152.961 76.9072 154.735 77.4975C156.563 78.1053 158.363 78.8042 160.108 79.6206C162.201 80.5955 164.212 81.6468 165.625 83.5114C166.491 84.6567 167.269 85.8812 167.769 87.2291V87.2379Z" fill="#1E3B6E"/>
<path id="Vector_90" d="M154.15 108.812C155.608 108.302 157.118 107.902 158.505 107.212C159.927 106.504 161.264 105.568 162.509 104.59C164.915 102.693 166.734 100.203 167.621 97.2661C168.478 94.4294 168.694 91.4048 167.922 88.5212C167.334 86.3305 166.16 83.7728 164.359 82.1901" stroke="#231F20" stroke-width="1.5" stroke-miterlimit="10"/>
<path id="Vector_91" d="M154.916 128.807C153.49 128.913 152.062 128.986 150.631 129.001C147.985 129.03 145.303 128.881 142.725 128.261C141.504 127.967 140.303 127.565 139.186 126.99C138.574 126.675 136.327 125.689 136.755 124.734C136.862 124.499 137.146 124.405 137.4 124.35C138.065 124.206 138.736 124.297 139.402 124.358C139.919 124.405 140.404 124.385 140.927 124.476C140.176 124.018 139.419 123.701 138.627 123.334C137.885 122.99 137.169 122.585 136.463 122.177C135.034 121.354 133.766 120.291 132.799 118.955C132.441 118.459 132.161 117.822 132.622 117.417" stroke="#231F20" stroke-width="1.5" stroke-miterlimit="10"/>
<path id="Vector_92" d="M93.3385 136.604C88.2085 139.966 82.6085 137.664 81.2809 131.776C80.8137 129.706 80.8285 127.562 80.8433 125.439C80.8729 121.548 81.482 117.596 81.1597 113.711C80.9586 111.273 78.8061 108.393 76.1835 110.589" stroke="#231F20" stroke-width="1.5" stroke-miterlimit="10"/>
<g id="Group_15" opacity="0.17">
<path id="Vector_93" d="M49.2564 87.6225C51.3734 82.0696 55.3 77.2067 60.2348 73.8708C65.6545 70.2061 72.1859 68.5264 78.7203 68.9786C82.4813 69.24 86.2009 70.2208 89.5834 71.8799C89.9412 72.0561 90.3847 71.9768 90.5946 71.6156C90.7868 71.2926 90.6892 70.7875 90.3285 70.6113C83.9242 67.4663 76.4762 66.6323 69.5189 68.2327C63.1945 69.6863 57.4436 73.2542 53.2391 78.1582C50.9269 80.8568 49.0938 83.9167 47.8312 87.232C47.6893 87.602 47.9879 88.0366 48.3487 88.1364C48.7626 88.251 49.1174 87.9955 49.2593 87.6225H49.2564Z" fill="#FFF4EC"/>
</g>
</g>
</g>
</g>
</g>
</g>
<defs>
<clipPath id="clip0_2_328">
<rect width="200" height="200" fill="white"/>
</clipPath>
</defs>
</svg>
