<svg width="246" height="200" viewBox="0 0 246 200" fill="none" xmlns="http://www.w3.org/2000/svg">
<g opacity="0.88">
<g opacity="0.54">
<path d="M211.39 43.5962C211.734 43.5962 212.013 43.3164 212.013 42.9714C212.013 42.6263 211.734 42.3466 211.39 42.3466C211.046 42.3466 210.767 42.6263 210.767 42.9714C210.767 43.3164 211.046 43.5962 211.39 43.5962Z" fill="#161742"/>
<path d="M193.884 71.6367C194.189 71.6367 194.435 71.389 194.435 71.0834C194.435 70.7778 194.189 70.5301 193.884 70.5301C193.579 70.5301 193.332 70.7778 193.332 71.0834C193.332 71.389 193.579 71.6367 193.884 71.6367Z" fill="#161742"/>
<path d="M223.43 61.6509C223.777 61.6509 224.059 61.3688 224.059 61.0209C224.059 60.6729 223.777 60.3908 223.43 60.3908C223.083 60.3908 222.802 60.6729 222.802 61.0209C222.802 61.3688 223.083 61.6509 223.43 61.6509Z" fill="#161742"/>
<path d="M209.754 68.1395C210.079 68.1395 210.342 67.8752 210.342 67.5492C210.342 67.2231 210.079 66.9588 209.754 66.9588C209.429 66.9588 209.165 67.2231 209.165 67.5492C209.165 67.8752 209.429 68.1395 209.754 68.1395Z" fill="#161742"/>
<path d="M194.639 45.2746C195.055 45.2746 195.393 44.9356 195.393 44.5174C195.393 44.0993 195.055 43.7603 194.639 43.7603C194.222 43.7603 193.884 44.0993 193.884 44.5174C193.884 44.9356 194.222 45.2746 194.639 45.2746Z" fill="#161742"/>
<path d="M199.989 18.849C200.342 18.849 200.627 18.5622 200.627 18.2083C200.627 17.8545 200.342 17.5677 199.989 17.5677C199.636 17.5677 199.35 17.8545 199.35 18.2083C199.35 18.5622 199.636 18.849 199.989 18.849Z" fill="#161742"/>
<path d="M191.823 29.4727C192.06 29.4727 192.253 29.2795 192.253 29.0412C192.253 28.8029 192.06 28.6097 191.823 28.6097C191.585 28.6097 191.392 28.8029 191.392 29.0412C191.392 29.2795 191.585 29.4727 191.823 29.4727Z" fill="#161742"/>
<path d="M200.715 68.1395C201.115 68.1395 201.44 67.8136 201.44 67.4115C201.44 67.0094 201.115 66.6835 200.715 66.6835C200.314 66.6835 199.989 67.0094 199.989 67.4115C199.989 67.8136 200.314 68.1395 200.715 68.1395Z" fill="#161742"/>
<path d="M189.54 61.0685C189.891 61.0685 190.176 60.7828 190.176 60.4305C190.176 60.0781 189.891 59.7925 189.54 59.7925C189.189 59.7925 188.904 60.0781 188.904 60.4305C188.904 60.7828 189.189 61.0685 189.54 61.0685Z" fill="#161742"/>
</g>
<g opacity="0.54">
<path d="M18.4671 172.823C19.0968 172.823 19.6072 172.311 19.6072 171.679C19.6072 171.047 19.0968 170.535 18.4671 170.535C17.8374 170.535 17.3269 171.047 17.3269 171.679C17.3269 172.311 17.8374 172.823 18.4671 172.823Z" fill="#161742"/>
<path d="M46.3506 82.1703C46.8958 82.1703 47.3377 81.727 47.3377 81.1802C47.3377 80.6333 46.8958 80.1901 46.3506 80.1901C45.8055 80.1901 45.3635 80.6333 45.3635 81.1802C45.3635 81.727 45.8055 82.1703 46.3506 82.1703Z" fill="#161742"/>
<path d="M20.1271 79.9174C20.6926 79.9174 21.1511 79.4575 21.1511 78.8903C21.1511 78.323 20.6926 77.8631 20.1271 77.8631C19.5615 77.8631 19.103 78.323 19.103 78.8903C19.103 79.4575 19.5615 79.9174 20.1271 79.9174Z" fill="#161742"/>
<path d="M225.187 2.28729C225.816 2.28729 226.327 1.77526 226.327 1.14364C226.327 0.512027 225.816 0 225.187 0C224.557 0 224.047 0.512027 224.047 1.14364C224.047 1.77526 224.557 2.28729 225.187 2.28729Z" fill="#161742"/>
<path d="M245.274 181.961C245.675 181.961 246 181.635 246 181.233C246 180.831 245.675 180.505 245.274 180.505C244.873 180.505 244.548 180.831 244.548 181.233C244.548 181.635 244.873 181.961 245.274 181.961Z" fill="#161742"/>
<path d="M19.1029 56.433C19.4541 56.433 19.7389 56.1473 19.7389 55.795C19.7389 55.4426 19.4541 55.157 19.1029 55.157C18.7516 55.157 18.4668 55.4426 18.4668 55.795C18.4668 56.1473 18.7516 56.433 19.1029 56.433Z" fill="#161742"/>
</g>
<g opacity="0.54">
<path d="M51.6343 68.3856C52.264 68.3856 52.7745 67.8735 52.7745 67.2419C52.7745 66.6103 52.264 66.0983 51.6343 66.0983C51.0046 66.0983 50.4941 66.6103 50.4941 67.2419C50.4941 67.8735 51.0046 68.3856 51.6343 68.3856Z" fill="#161742"/>
<path d="M71.3047 73.3414C71.6487 73.3414 71.9276 73.0617 71.9276 72.7166C71.9276 72.3716 71.6487 72.0919 71.3047 72.0919C70.9607 72.0919 70.6819 72.3716 70.6819 72.7166C70.6819 73.0617 70.9607 73.3414 71.3047 73.3414Z" fill="#161742"/>
<path d="M66.4798 79.237C67.0249 79.237 67.4668 78.7937 67.4668 78.2469C67.4668 77.7001 67.0249 77.2568 66.4798 77.2568C65.9346 77.2568 65.4927 77.7001 65.4927 78.2469C65.4927 78.7937 65.9346 79.237 66.4798 79.237Z" fill="#161742"/>
<path d="M73.3107 107.262C73.7144 107.262 74.0417 106.933 74.0417 106.528C74.0417 106.123 73.7144 105.795 73.3107 105.795C72.9069 105.795 72.5796 106.123 72.5796 106.528C72.5796 106.933 72.9069 107.262 73.3107 107.262Z" fill="#161742"/>
<path d="M63.7511 92.3969C64.0557 92.3969 64.3027 92.1491 64.3027 91.8436C64.3027 91.538 64.0557 91.2903 63.7511 91.2903C63.4464 91.2903 63.1995 91.538 63.1995 91.8436C63.1995 92.1491 63.4464 92.3969 63.7511 92.3969Z" fill="#161742"/>
<path d="M52.7587 79.5546C53.0838 79.5546 53.3473 79.2903 53.3473 78.9643C53.3473 78.6382 53.0838 78.3739 52.7587 78.3739C52.4337 78.3739 52.1702 78.6382 52.1702 78.9643C52.1702 79.2903 52.4337 79.5546 52.7587 79.5546Z" fill="#161742"/>
<path d="M62.9038 58.8579C63.3206 58.8579 63.6586 58.5189 63.6586 58.1008C63.6586 57.6826 63.3206 57.3436 62.9038 57.3436C62.4869 57.3436 62.1489 57.6826 62.1489 58.1008C62.1489 58.5189 62.4869 58.8579 62.9038 58.8579Z" fill="#161742"/>
<path d="M71.5608 64.1869C72.0593 64.1869 72.4635 63.7816 72.4635 63.2815C72.4635 62.7815 72.0593 62.3762 71.5608 62.3762C71.0623 62.3762 70.6582 62.7815 70.6582 63.2815C70.6582 63.7816 71.0623 64.1869 71.5608 64.1869Z" fill="#161742"/>
<path d="M59.1983 90.1095C59.4665 90.1095 59.6839 89.8914 59.6839 89.6224C59.6839 89.3533 59.4665 89.1353 59.1983 89.1353C58.9301 89.1353 58.7126 89.3533 58.7126 89.6224C58.7126 89.8914 58.9301 90.1095 59.1983 90.1095Z" fill="#161742"/>
<path d="M88.9693 52.6208C89.322 52.6208 89.608 52.334 89.608 51.9801C89.608 51.6263 89.322 51.3395 88.9693 51.3395C88.6165 51.3395 88.3306 51.6263 88.3306 51.9801C88.3306 52.334 88.6165 52.6208 88.9693 52.6208Z" fill="#161742"/>
<path d="M92.7379 67.1731C93.0105 67.1731 93.2315 66.9515 93.2315 66.6781C93.2315 66.4047 93.0105 66.183 92.7379 66.183C92.4653 66.183 92.2444 66.4047 92.2444 66.6781C92.2444 66.9515 92.4653 67.1731 92.7379 67.1731Z" fill="#161742"/>
<path d="M87.3883 76.3461C87.862 76.3461 88.246 75.9609 88.246 75.4857C88.246 75.0106 87.862 74.6254 87.3883 74.6254C86.9145 74.6254 86.5305 75.0106 86.5305 75.4857C86.5305 75.9609 86.9145 76.3461 87.3883 76.3461Z" fill="#161742"/>
<path d="M75.7464 49.4969C75.984 49.4969 76.1766 49.3037 76.1766 49.0654C76.1766 48.8271 75.984 48.6339 75.7464 48.6339C75.5088 48.6339 75.3162 48.8271 75.3162 49.0654C75.3162 49.3037 75.5088 49.4969 75.7464 49.4969Z" fill="#161742"/>
<path d="M69.9323 97.2625C70.3332 97.2625 70.6581 96.9366 70.6581 96.5345C70.6581 96.1325 70.3332 95.8065 69.9323 95.8065C69.5315 95.8065 69.2065 96.1325 69.2065 96.5345C69.2065 96.9366 69.5315 97.2625 69.9323 97.2625Z" fill="#161742"/>
<path d="M46.3612 60.7428C46.7124 60.7428 46.9972 60.4572 46.9972 60.1048C46.9972 59.7524 46.7124 59.4668 46.3612 59.4668C46.0099 59.4668 45.7251 59.7524 45.7251 60.1048C45.7251 60.4572 46.0099 60.7428 46.3612 60.7428Z" fill="#161742"/>
</g>
<g opacity="0.54">
<path d="M179.908 113.178C180.252 113.178 180.53 112.899 180.53 112.554C180.53 112.209 180.252 111.929 179.908 111.929C179.564 111.929 179.285 112.209 179.285 112.554C179.285 112.899 179.564 113.178 179.908 113.178Z" fill="#161742"/>
<path d="M203.215 103.362C203.619 103.362 203.946 103.034 203.946 102.629C203.946 102.224 203.619 101.896 203.215 101.896C202.811 101.896 202.484 102.224 202.484 102.629C202.484 103.034 202.811 103.362 203.215 103.362Z" fill="#161742"/>
<path d="M162.404 141.221C162.709 141.221 162.956 140.974 162.956 140.668C162.956 140.363 162.709 140.115 162.404 140.115C162.099 140.115 161.853 140.363 161.853 140.668C161.853 140.974 162.099 141.221 162.404 141.221Z" fill="#161742"/>
<path d="M179.907 126.473C180.254 126.473 180.536 126.191 180.536 125.843C180.536 125.495 180.254 125.213 179.907 125.213C179.561 125.213 179.279 125.495 179.279 125.843C179.279 126.191 179.561 126.473 179.907 126.473Z" fill="#161742"/>
<path d="M178.271 137.724C178.596 137.724 178.86 137.46 178.86 137.134C178.86 136.808 178.596 136.544 178.271 136.544C177.946 136.544 177.683 136.808 177.683 137.134C177.683 137.46 177.946 137.724 178.271 137.724Z" fill="#161742"/>
<path d="M163.159 114.859C163.576 114.859 163.914 114.521 163.914 114.102C163.914 113.684 163.576 113.345 163.159 113.345C162.742 113.345 162.404 113.684 162.404 114.102C162.404 114.521 162.742 114.859 163.159 114.859Z" fill="#161742"/>
<path d="M194.023 119.262C194.291 119.262 194.508 119.044 194.508 118.775C194.508 118.506 194.291 118.288 194.023 118.288C193.755 118.288 193.537 118.506 193.537 118.775C193.537 119.044 193.755 119.262 194.023 119.262Z" fill="#161742"/>
<path d="M168.509 88.4312C168.861 88.4312 169.147 88.1444 169.147 87.7906C169.147 87.4367 168.861 87.1499 168.509 87.1499C168.156 87.1499 167.87 87.4367 167.87 87.7906C167.87 88.1444 168.156 88.4312 168.509 88.4312Z" fill="#161742"/>
<path d="M183.394 90.9965C183.667 90.9965 183.888 90.7748 183.888 90.5014C183.888 90.228 183.667 90.0063 183.394 90.0063C183.122 90.0063 182.901 90.228 182.901 90.5014C182.901 90.7748 183.122 90.9965 183.394 90.9965Z" fill="#161742"/>
<path d="M195.688 88.6509C196.161 88.6509 196.545 88.2657 196.545 87.7906C196.545 87.3154 196.161 86.9302 195.688 86.9302C195.214 86.9302 194.83 87.3154 194.83 87.7906C194.83 88.2657 195.214 88.6509 195.688 88.6509Z" fill="#161742"/>
<path d="M160.343 99.0549C160.58 99.0549 160.773 98.8617 160.773 98.6234C160.773 98.3851 160.58 98.1919 160.343 98.1919C160.105 98.1919 159.913 98.3851 159.913 98.6234C159.913 98.8617 160.105 99.0549 160.343 99.0549Z" fill="#161742"/>
<path d="M186.405 134.421C186.822 134.421 187.16 134.082 187.16 133.663C187.16 133.245 186.822 132.906 186.405 132.906C185.988 132.906 185.65 133.245 185.65 133.663C185.65 134.082 185.988 134.421 186.405 134.421Z" fill="#161742"/>
<path d="M169.234 137.724C169.635 137.724 169.96 137.398 169.96 136.996C169.96 136.594 169.635 136.268 169.234 136.268C168.833 136.268 168.509 136.594 168.509 136.996C168.509 137.398 168.833 137.724 169.234 137.724Z" fill="#161742"/>
<path d="M158.06 130.653C158.411 130.653 158.696 130.368 158.696 130.015C158.696 129.663 158.411 129.377 158.06 129.377C157.709 129.377 157.424 129.663 157.424 130.015C157.424 130.368 157.709 130.653 158.06 130.653Z" fill="#161742"/>
</g>
<g opacity="0.54">
<path d="M60.2039 132.303C60.5479 132.303 60.8268 132.023 60.8268 131.678C60.8268 131.333 60.5479 131.053 60.2039 131.053C59.8599 131.053 59.5811 131.333 59.5811 131.678C59.5811 132.023 59.8599 132.303 60.2039 132.303Z" fill="#161742"/>
<path d="M30.5809 170.21C30.8855 170.21 31.1325 169.962 31.1325 169.656C31.1325 169.351 30.8855 169.103 30.5809 169.103C30.2763 169.103 30.0293 169.351 30.0293 169.656C30.0293 169.962 30.2763 170.21 30.5809 170.21Z" fill="#161742"/>
<path d="M60.2038 145.598C60.5507 145.598 60.832 145.315 60.832 144.967C60.832 144.619 60.5507 144.337 60.2038 144.337C59.8569 144.337 59.5757 144.619 59.5757 144.967C59.5757 145.315 59.8569 145.598 60.2038 145.598Z" fill="#161742"/>
<path d="M58.5676 156.849C58.8926 156.849 59.1561 156.584 59.1561 156.258C59.1561 155.932 58.8926 155.668 58.5676 155.668C58.2425 155.668 57.979 155.932 57.979 156.258C57.979 156.584 58.2425 156.849 58.5676 156.849Z" fill="#161742"/>
<path d="M25.8305 147.631C26.2474 147.631 26.5853 147.292 26.5853 146.873C26.5853 146.455 26.2474 146.116 25.8305 146.116C25.4136 146.116 25.0757 146.455 25.0757 146.873C25.0757 147.292 25.4136 147.631 25.8305 147.631Z" fill="#161742"/>
<path d="M74.3191 138.386C74.5873 138.386 74.8047 138.168 74.8047 137.899C74.8047 137.63 74.5873 137.412 74.3191 137.412C74.0509 137.412 73.8335 137.63 73.8335 137.899C73.8335 138.168 74.0509 138.386 74.3191 138.386Z" fill="#161742"/>
<path d="M48.8025 107.555C49.1553 107.555 49.4412 107.269 49.4412 106.915C49.4412 106.561 49.1553 106.274 48.8025 106.274C48.4498 106.274 48.1638 106.561 48.1638 106.915C48.1638 107.269 48.4498 107.555 48.8025 107.555Z" fill="#161742"/>
<path d="M63.6906 110.121C63.9631 110.121 64.1841 109.899 64.1841 109.626C64.1841 109.352 63.9631 109.131 63.6906 109.131C63.418 109.131 63.197 109.352 63.197 109.626C63.197 109.899 63.418 110.121 63.6906 110.121Z" fill="#161742"/>
<path d="M18.409 193.556C18.6465 193.556 18.8392 193.363 18.8392 193.125C18.8392 192.887 18.6465 192.693 18.409 192.693C18.1714 192.693 17.9788 192.887 17.9788 193.125C17.9788 193.363 18.1714 193.556 18.409 193.556Z" fill="#161742"/>
<path d="M66.7023 153.545C67.1192 153.545 67.4572 153.206 67.4572 152.788C67.4572 152.369 67.1192 152.031 66.7023 152.031C66.2855 152.031 65.9475 152.369 65.9475 152.788C65.9475 153.206 66.2855 153.545 66.7023 153.545Z" fill="#161742"/>
<path d="M19.6255 165.365C20.0263 165.365 20.3513 165.039 20.3513 164.637C20.3513 164.235 20.0263 163.909 19.6255 163.909C19.2246 163.909 18.8997 164.235 18.8997 164.637C18.8997 165.039 19.2246 165.365 19.6255 165.365Z" fill="#161742"/>
<path d="M0.636062 170.848C0.987349 170.848 1.27212 170.562 1.27212 170.21C1.27212 169.857 0.987349 169.572 0.636062 169.572C0.284775 169.572 0 169.857 0 170.21C0 170.562 0.284775 170.848 0.636062 170.848Z" fill="#161742"/>
</g>
<g opacity="0.54">
<path d="M89.8062 15.0765C90.1502 15.0765 90.4291 14.7968 90.4291 14.4517C90.4291 14.1067 90.1502 13.827 89.8062 13.827C89.4622 13.827 89.1833 14.1067 89.1833 14.4517C89.1833 14.7968 89.4622 15.0765 89.8062 15.0765Z" fill="#161742"/>
<path d="M76.4886 26.6612C76.8924 26.6612 77.2197 26.3329 77.2197 25.9279C77.2197 25.5229 76.8924 25.1946 76.4886 25.1946C76.0849 25.1946 75.7576 25.5229 75.7576 25.9279C75.7576 26.3329 76.0849 26.6612 76.4886 26.6612Z" fill="#161742"/>
<path d="M89.8066 28.3714C90.1535 28.3714 90.4347 28.0893 90.4347 27.7413C90.4347 27.3934 90.1535 27.1113 89.8066 27.1113C89.4597 27.1113 89.1785 27.3934 89.1785 27.7413C89.1785 28.0893 89.4597 28.3714 89.8066 28.3714Z" fill="#161742"/>
<path d="M96.2172 44.6021C96.6341 44.6021 96.9721 44.2631 96.9721 43.845C96.9721 43.4268 96.6341 43.0878 96.2172 43.0878C95.8003 43.0878 95.4624 43.4268 95.4624 43.845C95.4624 44.2631 95.8003 44.6021 96.2172 44.6021Z" fill="#161742"/>
<path d="M80.2283 12.874C80.581 12.874 80.867 12.5871 80.867 12.2333C80.867 11.8795 80.581 11.5927 80.2283 11.5927C79.8756 11.5927 79.5896 11.8795 79.5896 12.2333C79.5896 12.5871 79.8756 12.874 80.2283 12.874Z" fill="#161742"/>
<path d="M93.7887 4.46337C94.0613 4.46337 94.2822 4.24172 94.2822 3.96832C94.2822 3.69491 94.0613 3.47327 93.7887 3.47327C93.5161 3.47327 93.2952 3.69491 93.2952 3.96832C93.2952 4.24172 93.5161 4.46337 93.7887 4.46337Z" fill="#161742"/>
<path d="M63.0257 31.5217C63.2633 31.5217 63.4559 31.3285 63.4559 31.0901C63.4559 30.8518 63.2633 30.6586 63.0257 30.6586C62.7881 30.6586 62.5955 30.8518 62.5955 31.0901C62.5955 31.3285 62.7881 31.5217 63.0257 31.5217Z" fill="#161742"/>
<path d="M79.587 41.5206C79.9383 41.5206 80.2231 41.235 80.2231 40.8826C80.2231 40.5303 79.9383 40.2446 79.587 40.2446C79.2357 40.2446 78.9509 40.5303 78.9509 40.8826C78.9509 41.235 79.2357 41.5206 79.587 41.5206Z" fill="#161742"/>
</g>
<g opacity="0.54">
<path d="M126.972 111.241C127.316 111.241 127.595 110.961 127.595 110.616C127.595 110.271 127.316 109.991 126.972 109.991C126.628 109.991 126.349 110.271 126.349 110.616C126.349 110.961 126.628 111.241 126.972 111.241Z" fill="#161742"/>
<path d="M147.141 112.138C147.545 112.138 147.872 111.81 147.872 111.405C147.872 111 147.545 110.671 147.141 110.671C146.737 110.671 146.41 111 146.41 111.405C146.41 111.81 146.737 112.138 147.141 112.138Z" fill="#161742"/>
<path d="M109.468 139.284C109.773 139.284 110.02 139.036 110.02 138.73C110.02 138.425 109.773 138.177 109.468 138.177C109.164 138.177 108.917 138.425 108.917 138.73C108.917 139.036 109.164 139.284 109.468 139.284Z" fill="#161742"/>
<path d="M139.015 129.295C139.362 129.295 139.643 129.013 139.643 128.665C139.643 128.317 139.362 128.035 139.015 128.035C138.668 128.035 138.387 128.317 138.387 128.665C138.387 129.013 138.668 129.295 139.015 129.295Z" fill="#161742"/>
<path d="M125.336 135.787C125.661 135.787 125.924 135.522 125.924 135.196C125.924 134.87 125.661 134.606 125.336 134.606C125.011 134.606 124.747 134.87 124.747 135.196C124.747 135.522 125.011 135.787 125.336 135.787Z" fill="#161742"/>
<path d="M110.224 112.919C110.64 112.919 110.978 112.58 110.978 112.162C110.978 111.744 110.64 111.405 110.224 111.405C109.807 111.405 109.469 111.744 109.469 112.162C109.469 112.58 109.807 112.919 110.224 112.919Z" fill="#161742"/>
<path d="M118.534 107.346C119.033 107.346 119.437 106.941 119.437 106.441C119.437 105.941 119.033 105.536 118.534 105.536C118.036 105.536 117.632 105.941 117.632 106.441C117.632 106.941 118.036 107.346 118.534 107.346Z" fill="#161742"/>
<path d="M141.087 117.324C141.355 117.324 141.572 117.106 141.572 116.837C141.572 116.568 141.355 116.35 141.087 116.35C140.819 116.35 140.601 116.568 140.601 116.837C140.601 117.106 140.819 117.324 141.087 117.324Z" fill="#161742"/>
<path d="M115.57 86.4933C115.923 86.4933 116.209 86.2065 116.209 85.8527C116.209 85.4989 115.923 85.212 115.57 85.212C115.217 85.212 114.931 85.4989 114.931 85.8527C114.931 86.2065 115.217 86.4933 115.57 86.4933Z" fill="#161742"/>
<path d="M130.459 89.0586C130.731 89.0586 130.952 88.8369 130.952 88.5635C130.952 88.2901 130.731 88.0685 130.459 88.0685C130.186 88.0685 129.965 88.2901 129.965 88.5635C129.965 88.8369 130.186 89.0586 130.459 89.0586Z" fill="#161742"/>
<path d="M107.407 97.1171C107.645 97.1171 107.838 96.9239 107.838 96.6855C107.838 96.4472 107.645 96.254 107.407 96.254C107.17 96.254 106.977 96.4472 106.977 96.6855C106.977 96.9239 107.17 97.1171 107.407 97.1171Z" fill="#161742"/>
<path d="M133.467 132.483C133.884 132.483 134.222 132.144 134.222 131.726C134.222 131.307 133.884 130.968 133.467 130.968C133.051 130.968 132.713 131.307 132.713 131.726C132.713 132.144 133.051 132.483 133.467 132.483Z" fill="#161742"/>
<path d="M116.299 135.784C116.7 135.784 117.025 135.458 117.025 135.056C117.025 134.654 116.7 134.328 116.299 134.328C115.898 134.328 115.573 134.654 115.573 135.056C115.573 135.458 115.898 135.784 116.299 135.784Z" fill="#161742"/>
<path d="M105.124 128.715C105.476 128.715 105.76 128.43 105.76 128.077C105.76 127.725 105.476 127.439 105.124 127.439C104.773 127.439 104.488 127.725 104.488 128.077C104.488 128.43 104.773 128.715 105.124 128.715Z" fill="#161742"/>
</g>
</g>
<mask id="mask0_685_1387" style="mask-type:luminance" maskUnits="userSpaceOnUse" x="18" y="9" width="191" height="191">
<path d="M113.398 200C165.876 200 208.417 157.329 208.417 104.691C208.417 52.0533 165.876 9.38208 113.398 9.38208C60.9212 9.38208 18.3799 52.0533 18.3799 104.691C18.3799 157.329 60.9212 200 113.398 200Z" fill="white"/>
</mask>
<g mask="url(#mask0_685_1387)">
<path d="M228.212 61.1795L169.48 89.4741L228.212 101.525V61.1795Z" fill="#FFD325"/>
<path d="M11.6865 68.6185L73.659 85.0716L11.6865 101.525V68.6185Z" fill="#FFD325"/>
<path d="M178.066 9.83203L159.25 40.2207L214.661 9.87439L178.066 9.83203Z" fill="#FFD325"/>
<path d="M86.148 10.2264L100.595 33.5626L58.0452 10.2582L86.148 10.2264Z" fill="#FFD325"/>
<path d="M50.7767 10.2264L71.3603 43.4689L10.7471 10.2714L50.7767 10.2264Z" fill="#FFD325"/>
<path d="M150.475 10.0623L144.824 25.2553L163.106 9.87439L150.475 10.0623Z" fill="#FFD325"/>
<path d="M99.6321 9.87439L117.099 27.1402L113.042 9.87439H99.6321Z" fill="#FFD325"/>
<path d="M124.584 9.87436L128.028 25.4221L139.857 9.70758L124.584 9.87436Z" fill="#FFD325"/>
<path d="M228.211 10.8804L172.655 61.1795L228.211 51.2256V10.8804Z" fill="#FFD325"/>
<path d="M11.2297 18.3193L66.7861 68.6185L11.2297 58.6646V18.3193Z" fill="#FFD325"/>
<path d="M-0.250977 148.941L58.4804 120.649L-0.250977 108.598V148.941Z" fill="#FFD325"/>
<path d="M216.273 141.502L154.301 125.052L216.273 108.598V141.502Z" fill="#FFD325"/>
<path d="M49.8948 200.288L68.7101 169.9L13.2988 200.249L49.8948 200.288Z" fill="#FFD325"/>
<path d="M141.812 199.894L127.365 176.56L169.915 199.862L141.812 199.894Z" fill="#FFD325"/>
<path d="M177.181 199.894L156.6 166.652L217.213 199.849L177.181 199.894Z" fill="#FFD325"/>
<path d="M77.4829 200.061L83.1335 184.865L64.854 200.249L77.4829 200.061Z" fill="#FFD325"/>
<path d="M128.328 200.249L110.861 182.983L114.915 200.249H128.328Z" fill="#FFD325"/>
<path d="M103.377 200.249L99.9324 184.701L88.1033 200.413L103.377 200.249Z" fill="#FFD325"/>
<path d="M-0.250977 199.24L55.3054 148.941L-0.250977 158.897V199.24Z" fill="#FFD325"/>
<path d="M216.73 191.801L161.174 141.502L216.73 151.459V191.801Z" fill="#FFD325"/>
<path d="M98.4946 112.045L159.06 126.476V74.2574L98.4946 88.688V112.045Z" fill="#161742"/>
<path d="M60.315 108.834C60.5208 108.318 55.4772 121.639 55.4772 121.639L41.0642 116.374L45.2844 102.639L60.315 108.837V108.834Z" fill="#E6A190"/>
<path d="M46.2876 103.052L60.3153 108.834C60.4367 108.532 58.7581 112.972 57.3434 116.705L46.2876 103.052Z" fill="#161742"/>
<path d="M76.6494 89.1433C76.6494 78.9088 67.0794 71.8457 57.4198 71.8457C47.7601 71.8457 38.6731 78.9088 38.6731 89.1433C38.6731 99.3779 42.1015 103.418 51.4497 105.864C68.0111 110.2 76.652 99.3779 76.652 89.1433H76.6494Z" fill="#161742"/>
<path d="M76.6495 92.4604C76.6495 82.2259 70.7798 74.2574 61.1175 74.2574C51.4552 74.2574 41.0618 80.9128 41.0618 91.1474C41.0618 101.382 48.4174 108.821 57.7656 111.267C74.327 115.603 76.6495 102.692 76.6495 92.4578V92.4604Z" fill="#E6A190"/>
<path d="M89.8218 193.861L104.905 420.278L58.6997 421.337L35.1311 193.09L89.8218 193.861Z" fill="#161742"/>
<path d="M22.1197 194.61C22.1197 194.61 4.82996 267.697 -28.5303 412.903L20.2907 423.921L59.6526 259.26L68.1959 244.496L70.6372 187.568L22.1224 194.607L22.1197 194.61Z" fill="#161742"/>
<path d="M15.6825 235.977C15.4899 235.977 15.3157 235.842 15.2761 235.644C15.2286 235.419 15.3738 235.196 15.5981 235.151C33.2231 231.485 34.701 198.184 34.7142 197.848C34.7222 197.617 34.9439 197.461 35.1471 197.445C35.3767 197.453 35.5562 197.649 35.5482 197.879C35.5456 197.964 35.1919 206.512 32.6134 215.413C29.1744 227.283 23.3496 234.391 15.7696 235.969C15.7406 235.974 15.7116 235.977 15.6852 235.977H15.6825Z" fill="white"/>
<path d="M56.9184 230.013C56.6888 230.013 56.5041 229.827 56.5014 229.597L56.3457 196.842C56.3457 196.611 56.5305 196.423 56.7601 196.423C56.958 196.423 57.1771 196.609 57.1797 196.839L57.3354 229.594C57.3354 229.825 57.1507 230.013 56.9211 230.013H56.9184Z" fill="white"/>
<path d="M65.4878 230.013C65.2581 230.013 65.0734 229.827 65.0708 229.597L64.915 196.842C64.915 196.611 65.0998 196.423 65.3294 196.423C65.5749 196.423 65.7464 196.609 65.749 196.839L65.9048 229.594C65.9048 229.825 65.72 230.013 65.4904 230.013H65.4878Z" fill="white"/>
<path d="M16.1811 199.801C16.1811 199.801 11.5228 204.815 21.4332 204.056C40.3092 202.608 79.2462 202.208 87.5757 202.208C94.2952 202.208 98.5576 197.474 98.2066 190.806C98.0773 188.328 98.4204 185.813 98.4494 183.34C98.4415 184.026 102.91 187.235 103.646 187.708C105.713 189.037 108.779 190.139 111.181 190.665C116.286 191.74 122.604 192.775 127.357 189.969C135.594 185.101 136.65 172.137 135.663 163.816C134.232 151.784 124.443 141.322 116.856 132.287C112.139 126.672 107.249 121.171 102.105 115.942L87.8211 120.194C72.1545 113.173 65.4085 118.857 65.4085 118.857L58.3617 114.007L55.1365 120.76L41.7054 116.278C37.1236 114.56 32.1565 113.507 27.2976 113.049C23.9669 112.736 20.2667 112.098 17.8201 114.534C14.9697 117.369 13.1222 121.364 11.3064 124.895C8.48237 130.389 5.661 135.882 2.83699 141.375C-4.66114 155.964 -12.3414 171.748 -9.42236 188.754C-8.53029 193.953 -5.95701 197.66 -1.02952 199.635C1.64405 200.707 4.52612 201.173 7.39499 201.17C9.26887 201.17 14.8166 201.26 16.1784 199.796L16.1811 199.801Z" fill="#32B353"/>
<path d="M29.7208 138.185C29.7208 138.185 29.7023 138.185 29.6944 138.185C29.4648 138.169 29.2933 137.973 29.3091 137.743C30.1801 124.244 20.5943 115.458 20.4966 115.37C20.3277 115.217 20.3119 114.955 20.4649 114.785C20.618 114.616 20.8793 114.603 21.0482 114.754C21.1485 114.844 31.0325 123.887 30.1352 137.798C30.122 138.018 29.9399 138.188 29.7235 138.188L29.7208 138.185Z" fill="#161742"/>
<path d="M97.629 186.149C97.4416 186.149 97.2727 186.019 97.2279 185.829C93.0525 168.102 89.6215 144.515 89.5872 144.279C89.5529 144.051 89.7112 143.842 89.9382 143.808C90.1652 143.779 90.3737 143.932 90.408 144.16C90.4423 144.396 93.8707 167.949 98.0355 185.638C98.0882 185.861 97.951 186.086 97.7267 186.139C97.695 186.147 97.6633 186.149 97.6316 186.149H97.629Z" fill="#161742"/>
<path d="M122.543 174.056C122.435 174.056 122.327 174.014 122.248 173.932C122.045 173.723 101.809 152.531 97.6208 119.685C97.5918 119.458 97.7528 119.251 97.9798 119.222C98.2094 119.193 98.4152 119.355 98.4416 119.582C102.593 152.144 122.638 173.148 122.839 173.357C122.997 173.521 122.995 173.783 122.831 173.945C122.752 174.024 122.646 174.061 122.543 174.061V174.056Z" fill="#161742"/>
<path d="M115.713 175.668H115.705C115.476 175.663 115.296 175.475 115.299 175.245L115.499 165.169C115.505 164.939 115.708 164.74 115.922 164.761C116.151 164.767 116.331 164.955 116.328 165.185L116.128 175.261C116.122 175.486 115.938 175.668 115.713 175.668Z" fill="#161742"/>
<path d="M67.8895 201.946C67.8526 201.946 67.813 201.941 67.776 201.93C67.557 201.866 67.4277 201.636 67.491 201.416C73.3766 180.643 68.3778 160.518 67.169 156.224L61.2624 165.074C65.1922 191.69 62.8644 198.997 61.1251 200.985C60.497 201.705 59.9638 201.747 59.8477 201.731C59.6181 201.726 59.436 201.538 59.4413 201.308C59.4466 201.085 59.6234 200.905 59.8424 200.9C59.8715 200.895 60.1882 200.842 60.5973 200.318C61.8747 198.692 64.411 192 60.4152 165.034C60.3993 164.931 60.4231 164.828 60.4811 164.743L66.9684 155.025C67.0582 154.892 67.2139 154.826 67.3696 154.845C67.528 154.866 67.6573 154.977 67.7074 155.128C67.7813 155.356 74.9575 178.088 68.2854 201.641C68.2326 201.824 68.069 201.943 67.8869 201.943L67.8895 201.946Z" fill="#161742"/>
<path d="M32.9275 113.965L42.2995 108.744L55.0762 119.768L50.0088 130.794L32.9275 113.965Z" fill="#32B353"/>
<path d="M60.6316 103.187H60.6474C64.1603 102.406 66.3377 104.069 66.4274 104.138C66.6306 104.297 66.6676 104.593 66.5092 104.797C66.3482 105.003 66.0553 105.038 65.852 104.879C65.7729 104.818 63.9122 103.423 60.8506 104.101C60.5973 104.156 60.3465 103.995 60.2911 103.743C60.2357 103.494 60.3888 103.248 60.6342 103.185L60.6316 103.187Z" fill="#161742"/>
<path d="M145.785 100.4C145.785 116.604 153.037 128.655 164.922 129.269C165.627 129.306 172.412 129.269 172.412 129.269C172.412 129.269 194.088 115.746 194.088 100.4C194.088 85.0532 172.412 71.0621 172.412 71.0621H166.015C156.199 71.0621 145.785 84.1981 145.785 100.4Z" fill="#161742"/>
<path d="M172.412 129.269C184.384 129.269 194.088 116.238 194.088 100.164C194.088 84.09 184.384 71.0594 172.412 71.0594C160.441 71.0594 150.736 84.09 150.736 100.164C150.736 116.238 160.441 129.269 172.412 129.269Z" fill="#1D478E"/>
<path d="M172.412 125.615C182.785 125.615 191.193 114.326 191.193 100.4C191.193 86.4734 182.785 75.184 172.412 75.184C162.04 75.184 153.631 86.4734 153.631 100.4C153.631 114.326 162.04 125.615 172.412 125.615Z" fill="#D9E4F4"/>
<path d="M169.606 124.107C178.431 124.107 185.585 113.561 185.585 100.553C185.585 87.5452 178.431 77.0001 169.606 77.0001C160.782 77.0001 153.628 87.5452 153.628 100.553C153.628 113.561 160.782 124.107 169.606 124.107Z" fill="#FFF3EB"/>
<path d="M61.1173 74.2574C67.4621 74.2574 72.1573 77.7069 74.6435 82.9645C65.4589 85.7654 54.9705 80.656 54.9705 80.656C54.9705 80.656 54.8728 84.0976 52.4157 90.0196C49.9585 95.9417 41.41 94.16 41.41 94.16L41.2965 94.1071C41.1566 93.1461 41.0642 92.1639 41.0642 91.1474C41.0642 80.9128 51.4576 74.2574 61.1199 74.2574H61.1173Z" fill="#161742"/>
<path d="M47.3007 93.6994C45.7462 91.0256 42.6028 89.9852 40.2803 91.375C37.9577 92.7648 37.3375 96.0581 38.8947 98.7293C40.4492 101.403 43.5926 102.443 45.9151 101.054C48.2377 99.6638 48.8579 96.3705 47.3007 93.6994Z" fill="#E6A190"/>
<path d="M45.0021 97.6572C44.9097 97.6572 44.8147 97.6307 44.7329 97.5725L40.4731 94.5678C40.262 94.4169 40.2092 94.1257 40.3596 93.9112C40.5074 93.6994 40.8004 93.6465 41.0142 93.7974L45.2739 96.8021C45.4851 96.953 45.5379 97.2442 45.3874 97.456C45.295 97.5857 45.1499 97.6572 45.0021 97.6572Z" fill="#161742"/>
<path d="M41.9698 98.9305C41.8669 98.9305 41.764 98.8961 41.6769 98.8273C41.4737 98.6658 41.442 98.3693 41.603 98.1654L43.139 96.2355C43.3 96.0317 43.5956 95.9999 43.7988 96.1614C44.0021 96.3229 44.0337 96.6194 43.8727 96.8232L42.3367 98.7531C42.2443 98.8696 42.1071 98.9305 41.9698 98.9305Z" fill="#161742"/>
<path d="M51.046 130.262C50.9378 130.262 50.8349 130.219 50.7557 130.142L35.6908 115.299C35.5272 115.137 35.5245 114.875 35.6855 114.711C35.8465 114.547 36.1078 114.544 36.2714 114.706L50.9167 129.134L55.1421 119.945C55.2055 119.805 55.3401 119.712 55.4932 119.704C55.6383 119.688 55.7914 119.77 55.8706 119.9L58.1483 123.611C58.267 123.805 58.2063 124.062 58.0137 124.183C57.8183 124.305 57.5623 124.244 57.4436 124.048L55.5697 120.996L51.4208 130.015C51.3654 130.14 51.2519 130.227 51.1199 130.251C51.0962 130.256 51.0698 130.256 51.046 130.256V130.262Z" fill="#161742"/>
<path d="M64.8257 100.164C64.8257 95.1607 67.1218 90.9859 70.1807 90.0064V90.0011L124.568 74.2574V126.476L70.1807 110.732V110.322C67.1245 109.342 64.8257 105.168 64.8257 100.164Z" fill="#161742"/>
<path d="M75.4486 104.548C75.4486 104.548 75.4776 97.7234 78.204 93.9403C80.2415 91.113 83.1051 87.51 84.8443 85.956C85.3722 85.4821 87.0085 85.678 87.5073 86.1837C88.2648 86.9514 88.3836 88.1427 87.7924 89.0454L82.0863 96.1111L79.6476 115.294L73.9917 119.371L75.4512 104.548H75.4486Z" fill="#E6A190"/>
<path d="M77.3909 108.381C77.3909 108.381 77.4199 101.557 80.1463 97.7736C82.1257 95.0257 84.3216 91.015 86.1136 89.4028C86.7259 88.8548 89.0115 89.5749 89.5895 90.1599C90.2652 90.8429 90.3707 91.9072 89.8429 92.712L85.855 98.8087L78.4967 114.296L77.3935 108.381H77.3909Z" fill="#E6A190"/>
<path d="M80.2468 94.7637L84.3509 88.4895C84.8101 87.788 84.7177 86.8614 84.1292 86.2657C83.4562 85.5827 82.3661 85.5483 81.6509 86.1863C79.7717 87.8621 76.3618 91.2401 74.7783 94.9357C72.5323 100.18 71.9094 105.946 71.8751 109.065C71.8434 111.807 73.5484 115.095 72.7619 117.682C71.9332 120.411 69.5578 122.367 67.6971 124.393C66.652 125.531 69.9009 128.059 70.5713 128.66C71.5821 129.568 72.5692 130.23 73.5457 131.193C74.6569 132.287 76.1164 133.002 77.0533 134.217C76.565 133.584 78.2832 131.935 78.6369 131.538C79.7374 130.307 80.5028 129.036 81.5031 127.757C83.5802 125.099 86.969 121.782 85.3855 118.063C85.0239 117.21 84.2242 116.633 83.4166 116.186C81.3052 115.021 78.9113 114.484 76.697 113.531C74.7044 112.673 76.3724 109.994 76.7947 108.336C77.3463 106.171 77.8979 104.003 78.4468 101.837C78.8797 100.138 79.3125 98.4381 79.7454 96.7386C79.8826 96.1932 79.9354 95.2455 80.2468 94.7663V94.7637Z" fill="#E6A190"/>
<path d="M80.5502 109.374C80.5502 109.374 77.8396 100.283 86.7894 94.9517C87.692 94.4143 88.8586 94.7716 89.3046 95.7247C89.3046 95.7247 89.7823 97.0139 88.7583 98.1999C87.2724 99.9207 86.4542 101.761 85.2692 107.855C84.7044 110.761 85.9052 116.519 85.8841 119.953C85.8709 122.174 82.0651 126.418 82.0651 126.418L73.9863 119.373L80.5475 109.377L80.5502 109.374Z" fill="#E6A190"/>
<path d="M81.4448 103.979C81.4237 103.979 81.3999 103.979 81.3788 103.974C81.173 103.937 81.0357 103.741 81.0727 103.534C81.1123 103.312 82.0914 98.0331 86.5623 94.6499C88.4943 93.1885 89.4998 94.3136 89.542 94.3613C89.6793 94.5201 89.6608 94.7584 89.5025 94.896C89.3441 95.0337 89.1066 95.0152 88.9693 94.8563C88.9508 94.8352 88.357 94.2395 87.0189 95.2534C82.7855 98.4567 81.8275 103.611 81.8196 103.664C81.7879 103.849 81.6269 103.976 81.4474 103.976L81.4448 103.979Z" fill="#161742"/>
<path d="M78.98 102.023C78.943 102.023 78.9061 102.017 78.8665 102.007C78.6659 101.943 78.5551 101.731 78.6184 101.53C78.724 101.186 81.3052 93.0375 87.576 88.733C87.7476 88.6139 87.9851 88.6589 88.1013 88.8309C88.22 89.003 88.1752 89.2413 88.0036 89.3578C81.9544 93.5141 79.368 101.673 79.3416 101.755C79.2914 101.917 79.141 102.023 78.98 102.023Z" fill="#161742"/>
<path d="M76.0316 99.8068C75.9973 99.8068 75.963 99.8015 75.9287 99.7909C75.7281 99.7327 75.612 99.5235 75.6674 99.3223C75.7677 98.9676 78.1958 90.5941 83.894 85.9692C84.055 85.8369 84.2951 85.8634 84.4271 86.0248C84.559 86.189 84.5327 86.4272 84.3717 86.5596C78.8635 91.0336 76.4222 99.4468 76.3985 99.5315C76.351 99.6983 76.2005 99.8068 76.0342 99.8068H76.0316Z" fill="#161742"/>
<path d="M15.4896 200.013C15.2785 200.013 15.099 199.854 15.0779 199.64C15.0541 199.412 15.2204 199.208 15.4474 199.187C15.6242 199.169 33.3917 197.186 49.1006 179.412C63.9939 162.562 76.8946 138.646 78.428 135.76L61.637 120.834L7.58238 171.033C7.41347 171.189 7.15218 171.179 6.99647 171.009C6.84075 170.84 6.85131 170.578 7.01758 170.421L61.3494 119.969C61.5051 119.823 61.7452 119.821 61.9062 119.963L79.2224 135.355C79.3649 135.482 79.4019 135.689 79.3148 135.858C79.1802 136.117 65.5827 162.016 49.7208 179.962C33.7849 197.991 15.7113 199.992 15.5318 200.011C15.5186 200.011 15.5028 200.011 15.4896 200.011V200.013Z" fill="#161742"/>
<path d="M103.276 100.408C103.276 114.851 111.907 126.476 124.873 126.476C137.84 126.476 150.239 114.851 150.239 100.408C150.239 85.9639 137.101 75.6287 124.132 75.6287C111.162 75.6287 103.274 85.9639 103.274 100.408H103.276Z" fill="#1D478E"/>
<path d="M124.876 126.947C112.089 126.947 102.81 115.786 102.81 100.408C102.81 85.0293 111.379 75.1575 124.137 75.1575C130.685 75.1575 137.328 77.7439 142.367 82.2497C147.748 87.0651 150.715 93.514 150.715 100.408C150.715 114.544 138.643 126.947 124.879 126.947H124.876ZM124.135 76.0999C111.749 76.0999 103.747 85.6409 103.747 100.408C103.747 115.174 112.633 126.005 124.876 126.005C138.139 126.005 149.773 114.044 149.773 100.408C149.773 88.6668 139.472 76.0999 124.135 76.0999Z" fill="#FFF3EB"/>
<path d="M108.964 100.408C108.964 117.213 116.486 129.711 128.811 130.346C129.542 130.383 136.579 130.346 136.579 130.346C136.579 130.346 159.057 116.321 159.057 100.408C159.057 84.4946 136.579 69.982 136.579 69.982H129.944C119.764 69.982 108.964 83.6051 108.964 100.408Z" fill="#161742"/>
<path d="M136.579 130.346C148.993 130.346 159.057 116.833 159.057 100.164C159.057 83.495 148.993 69.982 136.579 69.982C124.164 69.982 114.1 83.495 114.1 100.164C114.1 116.833 124.164 130.346 136.579 130.346Z" fill="#1D478E"/>
<path d="M136.579 126.558C147.336 126.558 156.057 114.85 156.057 100.408C156.057 85.9653 147.336 74.2574 136.579 74.2574C125.822 74.2574 117.101 85.9653 117.101 100.408C117.101 114.85 125.822 126.558 136.579 126.558Z" fill="#D9E4F4"/>
<path d="M134.072 125.348C143.443 125.348 151.039 114.411 151.039 100.919C151.039 87.4266 143.443 76.4891 134.072 76.4891C124.7 76.4891 117.104 87.4266 117.104 100.919C117.104 114.411 124.7 125.348 134.072 125.348Z" fill="#FFF3EB"/>
<path d="M60.5235 89.5404C60.3889 89.5219 60.2675 89.4372 60.2042 89.3048C60.1039 89.0957 60.191 88.8415 60.4021 88.7409C64.324 86.8454 67.1533 88.6906 67.2721 88.77C67.4648 88.8998 67.5175 89.1618 67.3882 89.3551C67.2589 89.5483 66.9976 89.6013 66.8049 89.4742C66.702 89.408 64.2422 87.8276 60.7663 89.5033C60.6898 89.5404 60.6027 89.5536 60.5235 89.5404Z" fill="#161742"/>
<path d="M62.2652 92.1031C62.8169 92.7411 63.5611 93.2811 64.4347 93.2864C65.3083 93.2917 66.1397 92.7808 66.7441 92.1984C67.2033 91.7563 66.5039 91.0547 66.0447 91.4968C65.8151 91.7192 65.5802 91.8886 65.2872 92.0448C65.0154 92.1904 64.7171 92.2937 64.4374 92.2937C64.1576 92.2937 63.9095 92.1957 63.6588 92.0369C63.408 91.878 63.1811 91.6504 62.9673 91.4015C62.7931 91.1977 62.4474 91.2215 62.2679 91.4015C62.0673 91.6027 62.0911 91.8992 62.2679 92.1031H62.2652Z" fill="#161742"/>
</g>
<path d="M168.509 46.9953C174.822 46.9953 179.939 41.862 179.939 35.5298C179.939 29.1975 174.822 24.0642 168.509 24.0642C162.196 24.0642 157.078 29.1975 157.078 35.5298C157.078 41.862 162.196 46.9953 168.509 46.9953Z" fill="#EE3D4B"/>
<path d="M171.43 31.4264C170.638 32.2206 169.847 33.0148 169.055 33.809C167.796 35.0717 166.534 36.3372 165.276 37.5999C164.988 37.8885 164.703 38.1744 164.415 38.463C164.109 38.7701 164.085 39.3313 164.415 39.6357C164.745 39.9402 165.257 39.964 165.584 39.6357C166.376 38.8415 167.168 38.0473 167.96 37.2531C169.219 35.9904 170.48 34.7249 171.739 33.4622C172.027 33.1736 172.312 32.8877 172.599 32.5991C172.906 32.2921 172.929 31.7308 172.599 31.4264C172.27 31.1219 171.758 31.0981 171.43 31.4264Z" fill="#FFF3EB"/>
<path d="M164.455 32.6362C165.239 33.4225 166.023 34.2087 166.807 34.995C168.05 36.2419 169.293 37.4888 170.536 38.7357C170.821 39.0216 171.109 39.3101 171.394 39.596C171.7 39.9031 172.259 39.927 172.563 39.596C172.866 39.2651 172.89 38.7515 172.563 38.4233C171.779 37.637 170.995 36.8508 170.211 36.0645C168.968 34.8176 167.725 33.5707 166.482 32.3238C166.197 32.0379 165.909 31.7494 165.624 31.4635C165.318 31.1564 164.759 31.1325 164.455 31.4635C164.152 31.7944 164.128 32.308 164.455 32.6362Z" fill="#FFF3EB"/>
</svg>
