<svg width="242" height="308" viewBox="0 0 242 308" fill="none" xmlns="http://www.w3.org/2000/svg">
<path d="M210.458 41.0701L212.708 288.581L212.579 300.851L20.8854 293.751L9.91603 282.716L21.9669 41.0909L198.791 23.1535L210.458 41.0701Z" fill="#C1BDBD"/>
<g opacity="0.443">
<path d="M212.584 300.851L196.058 282.778L198.791 23.1535L210 36.5173L212.584 300.851Z" fill="black"/>
</g>
<path d="M198.792 23.1536L196.06 282.778L9.91649 282.716L15.0376 26.9689L198.792 23.1536Z" fill="white"/>
<path d="M198.791 23.1533C196.971 23.1957 126.576 24.7361 15.0449 27.1896L15.2585 26.9716C13.8445 98.4372 12.0919 186.968 10.1908 282.717L9.91712 282.443C10.8858 282.441 11.9385 282.445 12.9927 282.44C78.492 282.465 140.663 282.495 196.061 282.524L195.816 282.775C197.581 129.454 198.775 25.3768 198.791 23.1533C198.774 25.3661 197.773 129.445 196.311 282.778L196.319 283.02L196.063 283.029C140.665 283.022 78.495 283.009 12.9961 282.997C11.9433 282.991 10.8892 282.998 9.92056 282.999L9.63191 283.01L9.63267 282.726C11.5848 186.954 13.3699 98.4342 14.8158 26.9657L14.8084 26.7554L15.0294 26.7477C126.559 24.5672 196.961 23.1961 198.781 23.1537L198.791 23.1533Z" fill="white"/>
<path d="M39.5918 93.2926L102.145 92.9361C104.182 92.9245 105.824 91.2635 105.812 89.2262C105.801 87.189 104.14 85.5468 102.103 85.5584L39.5497 85.9149C37.5125 85.9266 35.8703 87.5875 35.8819 89.6248C35.8936 91.6621 37.5545 93.3042 39.5918 93.2926Z" fill="#E0E0E0"/>
<path d="M39.5918 111.793L102.145 111.436C104.182 111.425 105.824 109.764 105.812 107.726C105.801 105.689 104.14 104.047 102.103 104.059L39.5497 104.415C37.5125 104.427 35.8703 106.088 35.8819 108.125C35.8936 110.162 37.5545 111.804 39.5918 111.793Z" fill="#E0E0E0"/>
<path d="M40.3305 141.911L102.883 141.555C104.921 141.543 106.563 139.882 106.551 137.845C106.54 135.808 104.879 134.165 102.841 134.177L40.2885 134.534C38.2512 134.545 36.6091 136.206 36.6207 138.243C36.6323 140.281 38.2933 141.923 40.3305 141.911Z" fill="#E0E0E0"/>
<path d="M39.581 160.411L102.134 160.055C104.171 160.043 105.813 158.382 105.802 156.345C105.79 154.307 104.129 152.665 102.092 152.677L39.539 153.033C37.5017 153.045 35.8596 154.706 35.8712 156.743C35.8828 158.781 37.5438 160.423 39.581 160.411Z" fill="#E0E0E0"/>
<path d="M39.5864 207.258L102.139 206.901C104.177 206.889 105.819 205.228 105.807 203.191C105.795 201.154 104.135 199.512 102.097 199.523L39.5444 199.88C37.5071 199.892 35.865 201.552 35.8766 203.59C35.8882 205.627 37.5491 207.269 39.5864 207.258Z" fill="#E0E0E0"/>
<path d="M40.3423 233.524L102.895 233.167C104.932 233.156 106.575 231.495 106.563 229.457C106.551 227.42 104.89 225.778 102.853 225.79L40.3002 226.146C38.2629 226.158 36.6208 227.819 36.6324 229.856C36.644 231.893 38.305 233.535 40.3423 233.524Z" fill="#E0E0E0"/>
<path d="M116.294 159.498L178.847 159.142C180.884 159.13 182.526 157.469 182.515 155.432C182.503 153.395 180.842 151.753 178.805 151.764L116.252 152.121C114.215 152.132 112.572 153.793 112.584 155.831C112.596 157.868 114.257 159.51 116.294 159.498Z" fill="#E0E0E0"/>
<path d="M39.5907 258.793L178.858 257.999C180.895 257.988 182.537 256.327 182.526 254.29C182.514 252.252 180.853 250.61 178.816 250.622L39.5486 251.416C37.5114 251.427 35.8692 253.088 35.8809 255.125C35.8925 257.163 37.5534 258.805 39.5907 258.793Z" fill="#E0E0E0"/>
<path d="M116.298 206.687L178.851 206.331C180.888 206.319 182.53 204.658 182.519 202.621C182.507 200.584 180.846 198.942 178.809 198.953L116.256 199.31C114.219 199.321 112.576 200.982 112.588 203.02C112.6 205.057 114.261 206.699 116.298 206.687Z" fill="#E0E0E0"/>
<path d="M117.263 233.516L179.816 233.159C181.853 233.148 183.495 231.487 183.484 229.449C183.472 227.412 181.811 225.77 179.774 225.782L117.221 226.138C115.184 226.15 113.542 227.811 113.553 229.848C113.565 231.885 115.226 233.527 117.263 233.516Z" fill="#E0E0E0"/>
<path d="M40.3237 70.1226L81.7101 69.8867C83.7474 69.8751 85.3895 68.2142 85.3779 66.1769C85.3663 64.1396 83.7053 62.4975 81.6681 62.5091L40.2817 62.745C38.2444 62.7566 36.6023 64.4176 36.6139 66.4548C36.6255 68.4921 38.2865 70.1342 40.3237 70.1226Z" fill="#E0E0E0"/>
<path d="M20.399 288.204C20.399 288.204 20.7048 288.225 21.306 288.226C21.9072 288.226 22.8121 288.235 23.9721 288.248C26.3306 288.25 29.7975 288.265 34.274 288.276C43.2584 288.277 56.2749 288.285 72.5059 288.286C104.984 288.243 150.286 288.183 201.633 288.122L201.905 288.112L201.907 287.848C202.033 277.586 202.171 266.818 202.303 255.859C202.996 196.971 203.624 143.678 204.074 105.092C204.273 85.8178 204.433 70.1985 204.549 59.4047C204.592 54.0208 204.624 49.8397 204.649 46.9844C204.653 45.5731 204.656 44.499 204.662 43.7513C204.668 43.0036 204.648 42.6315 204.648 42.6315C204.648 42.6315 204.618 43.0018 204.602 43.7284C204.587 44.4551 204.561 45.5514 204.537 46.9527C204.489 49.8088 204.427 53.9927 204.33 59.3767C204.173 70.1773 203.949 85.7828 203.678 105.07C203.176 143.666 202.494 196.96 201.735 255.851C201.603 266.809 201.474 277.577 201.339 287.84L201.613 287.566C150.276 287.7 104.971 287.824 72.493 287.919C56.2611 287.993 43.2499 288.037 34.2671 288.079C29.792 288.109 26.3284 288.135 23.9685 288.145C22.8003 288.154 21.9157 288.163 21.3043 288.176C20.6928 288.188 20.3991 288.208 20.3991 288.208L20.399 288.204Z" fill="#263238"/>
<path d="M35.633 292.216C35.633 292.216 35.4078 292.151 35.9769 292.152C36.5461 292.154 37.4046 292.165 38.4951 292.18C40.7293 292.196 44.5042 292.296 48.7387 292.326C57.2281 292.355 69.5408 292.387 84.9101 292.438C115.675 292.487 158.81 295.77 207.77 295.846L208.043 295.836L208.044 295.572C208.263 283.18 208.496 270.291 208.729 257.127C209.715 199.019 207.634 147.158 208.28 109.069C208.582 90.0376 208.566 73.8429 208.73 63.1883C208.797 57.8785 208.852 53.7466 208.891 50.9229C208.904 49.5327 208.91 48.4674 208.916 47.7304C208.922 46.9934 208.91 46.6459 208.91 46.6459C208.91 46.6459 208.88 47.0163 208.864 47.7322C208.849 48.4482 208.822 49.5178 208.776 50.9162C208.716 53.73 208.62 57.8615 208.51 63.1746C208.303 73.8289 208.257 90.0276 207.88 109.046C207.193 147.132 209.22 198.987 208.161 257.11C207.927 270.282 207.706 283.172 207.487 295.554L207.761 295.28C158.809 295.279 115.677 292.068 84.9076 292.061L48.7332 292.117C44.5005 292.139 41.2414 292.148 39.0026 292.153C37.9075 292.159 37.0657 292.168 36.4863 292.179C35.9069 292.19 35.6346 292.209 35.6346 292.209L35.633 292.216Z" fill="#263238"/>
<path d="M87.8877 23.7207L90.5997 20.8765L124.088 19.8709L125.815 22.8753L87.8877 23.7207Z" fill="#102759"/>
<path d="M126.181 38.8264L125.823 22.8625L87.8988 23.7142L88.2573 39.6781L126.181 38.8264Z" fill="#E2E2E2"/>
<path d="M127.473 39.0375L127.473 39.0357C127.453 38.1556 126.724 37.4582 125.843 37.4779L88.4757 38.3171C87.5956 38.3369 86.8981 39.0664 86.9179 39.9465L86.918 39.9482C86.9377 40.8283 87.6672 41.5258 88.5473 41.506L125.915 40.6668C126.795 40.647 127.493 39.9175 127.473 39.0375Z" fill="#E2E2E2"/>
<path d="M115.483 35.1814L115.461 35.1821L98.783 35.556C98.5465 35.5612 98.3122 35.5096 98.0998 35.4054C97.8874 35.3013 97.703 35.1477 97.5623 34.9576C97.4216 34.7674 97.3285 34.5463 97.291 34.3127C97.2535 34.0791 97.2726 33.84 97.3467 33.6153L101.794 20.2238C100.303 19.1944 99.1709 17.7256 98.5545 16.022C97.9381 14.3184 97.8685 12.465 98.3554 10.72C98.8423 8.97496 99.8614 7.42531 101.271 6.28697C102.68 5.14864 104.41 4.47835 106.218 4.36949C107.388 4.29688 108.562 4.46159 109.667 4.85372C110.772 5.24585 111.787 5.85732 112.65 6.65141C113.512 7.44549 114.206 8.4058 114.689 9.47466C115.171 10.5435 115.433 11.6989 115.457 12.8713C115.493 14.2599 115.194 15.6366 114.586 16.8853C113.977 18.134 113.078 19.2181 111.962 20.046L116.815 33.1884C116.895 33.4065 116.923 33.6406 116.895 33.8714C116.867 34.1022 116.784 34.323 116.654 34.5157C116.524 34.7085 116.35 34.8675 116.147 34.9798C115.943 35.0921 115.716 35.1545 115.484 35.1617L115.483 35.1814ZM106.488 5.41794L106.289 5.42493C104.288 5.57704 102.424 6.4973 101.086 7.99304C99.7484 9.48878 99.0413 11.444 99.1128 13.4493C99.1744 14.6844 99.5344 15.8862 100.162 16.9516C100.79 18.0171 101.666 18.9146 102.717 19.5671L103.072 19.7866L98.3677 33.9381C98.3451 34.0009 98.3383 34.0682 98.3481 34.1342C98.3579 34.2002 98.3839 34.2627 98.4238 34.3162C98.4621 34.3708 98.5137 34.4147 98.5737 34.4438C98.6338 34.4729 98.7002 34.4863 98.7668 34.4825L115.447 34.1087C115.514 34.1074 115.58 34.0905 115.639 34.0594C115.698 34.0282 115.749 33.9835 115.788 33.929C115.827 33.8743 115.852 33.8109 115.861 33.7443C115.869 33.6777 115.861 33.6101 115.837 33.5473L110.711 19.6331L111.051 19.4C112.009 18.7527 112.808 17.8972 113.388 16.8974C113.969 15.8977 114.315 14.7797 114.403 13.6271C114.49 12.4744 114.315 11.3169 113.892 10.2412C113.469 9.1655 112.808 8.19944 111.959 7.41529C111.227 6.73513 110.367 6.20656 109.43 5.86002C108.493 5.51349 107.497 5.35585 106.498 5.39619L106.488 5.41794Z" fill="#707070"/>
<path d="M125.864 37.4812C125.738 37.4697 125.611 37.467 125.484 37.4731C125.201 37.483 124.842 37.4742 124.4 37.479C123.41 37.494 122.053 37.5094 120.39 37.5374C116.961 37.604 112.306 37.6832 107.155 37.7798C102.013 37.9065 97.3515 38.0181 93.9217 38.0954C92.2593 38.1536 90.9015 38.2012 89.9122 38.2252C89.4721 38.2406 89.1033 38.2535 88.8203 38.2741C88.6931 38.2694 88.5658 38.281 88.4416 38.3088C88.5674 38.3296 88.695 38.3389 88.8225 38.3365C89.1062 38.3373 89.4651 38.3461 89.9181 38.3409C90.9063 38.3384 92.2651 38.3211 93.9295 38.3163C97.3197 38.2814 101.996 38.2014 107.166 38.0952C112.336 37.989 117.017 37.8661 120.394 37.7585C122.086 37.6992 123.455 37.6512 124.4 37.5967C124.874 37.5801 125.241 37.5565 125.493 37.5263C125.621 37.5191 125.747 37.5004 125.871 37.4702L125.864 37.4812Z" fill="#455A64"/>
<path d="M125.878 22.5466C125.752 22.5352 125.625 22.5325 125.498 22.5385C125.215 22.5484 124.856 22.5396 124.413 22.5444C123.424 22.5594 122.067 22.5749 120.403 22.6028C116.975 22.6694 112.32 22.7487 107.169 22.8453C102.018 22.9419 97.3651 23.0835 93.9354 23.1608C92.2729 23.2191 90.9152 23.2666 89.9259 23.2906C89.4858 23.306 89.1169 23.3189 88.834 23.3396C88.7068 23.3348 88.5795 23.3465 88.4552 23.3742C88.5811 23.395 88.7086 23.4043 88.8362 23.4019C89.1199 23.4027 89.4788 23.4115 89.9317 23.4064C90.92 23.4038 92.2788 23.3866 93.9431 23.3818C97.3333 23.3469 102.01 23.2669 107.18 23.1607C112.35 23.0545 117.03 22.9315 120.407 22.8239C122.1 22.7646 123.469 22.7166 124.414 22.6621C124.888 22.6455 125.255 22.622 125.507 22.5917C125.634 22.5846 125.761 22.5658 125.885 22.5357L125.878 22.5466Z" fill="#455A64"/>
<path d="M164.749 82.3005L131.921 82.4876C123.138 82.5377 116.058 89.6985 116.108 98.4817L116.262 125.491C116.312 134.274 123.473 141.354 132.256 141.304L165.085 141.116C173.868 141.066 180.948 133.906 180.897 125.122L180.744 98.1133C180.693 89.3301 173.533 82.2505 164.749 82.3005Z" fill="#EBEBEB"/>
<path d="M116.276 126.899L137.567 111.502C138.364 110.817 139.381 110.442 140.431 110.446C141.482 110.45 142.496 110.832 143.288 111.523L154.22 116.658L169.018 101.133C169.461 100.708 169.986 100.378 170.56 100.163C171.135 99.9486 171.747 99.8538 172.36 99.8847C172.973 99.9155 173.573 100.071 174.123 100.343C174.673 100.614 175.162 100.995 175.559 101.462L180.787 107.576L181.368 130.19C181.404 131.582 181.161 132.968 180.654 134.265C180.147 135.563 179.386 136.746 178.415 137.745C177.445 138.745 176.285 139.54 175.002 140.085C173.72 140.63 172.342 140.913 170.949 140.918L126.756 141.071C125.376 141.077 124.009 140.81 122.733 140.285C121.457 139.76 120.298 138.988 119.321 138.014C118.345 137.039 117.571 135.881 117.044 134.606C116.517 133.331 116.247 131.965 116.25 130.585L116.265 126.899L116.276 126.899Z" fill="#E0E0E0"/>
<path d="M146.475 97.6246C146.577 98.8979 146.299 100.173 145.676 101.288C145.054 102.404 144.114 103.309 142.977 103.891C141.84 104.472 140.556 104.704 139.287 104.556C138.018 104.407 136.822 103.886 135.849 103.058C134.876 102.23 134.171 101.132 133.822 99.9035C133.473 98.6747 133.497 97.37 133.889 96.1544C134.282 94.9389 135.026 93.867 136.028 93.0743C137.029 92.2816 138.244 91.8037 139.517 91.701C140.363 91.6318 141.214 91.7303 142.022 91.9907C142.83 92.2512 143.579 92.6685 144.225 93.2188C144.872 93.769 145.403 94.4415 145.789 95.1975C146.175 95.9535 146.408 96.7783 146.475 97.6246Z" fill="#E0E0E0"/>
<path d="M77.2324 112.845C76.936 112.822 76.6454 112.75 76.3722 112.633C75.5821 112.301 74.8971 111.761 74.3907 111.07C73.563 109.975 73.1799 108.607 73.3182 107.241C73.5377 105.443 74.3862 103.779 75.7138 102.546C77.3265 101.094 79.2665 100.054 81.3682 99.5146C83.7322 98.8339 86.1672 98.4295 88.6244 98.3095C94.284 98.0298 99.9173 99.2478 104.956 101.841C106.303 102.527 107.505 103.467 108.496 104.608C109.463 105.749 110.05 107.163 110.176 108.653C110.217 109.376 110.115 110.101 109.875 110.784C109.635 111.468 109.262 112.097 108.777 112.636C107.849 113.633 106.705 114.405 105.433 114.894C103.115 115.752 100.676 116.235 98.206 116.326C96.073 116.47 93.9321 116.454 91.8015 116.277C88.7166 116.02 85.6728 115.4 82.7328 114.431C81.6985 114.087 80.8993 113.782 80.3829 113.555C80.1059 113.461 79.84 113.336 79.5903 113.184C79.8744 113.247 80.1522 113.335 80.4202 113.449C80.9621 113.64 81.764 113.917 82.8057 114.218C85.7451 115.094 88.7692 115.656 91.8272 115.893C93.9379 116.048 96.0572 116.044 98.1672 115.881C100.579 115.778 102.959 115.293 105.219 114.444C106.415 113.975 107.491 113.243 108.366 112.302C108.805 111.814 109.143 111.243 109.358 110.623C109.573 110.003 109.662 109.345 109.618 108.69C109.494 107.318 108.95 106.017 108.061 104.964C107.11 103.883 105.964 102.99 104.682 102.334C99.7287 99.7875 94.196 98.5792 88.6319 98.8284C86.2121 98.9283 83.8118 99.3057 81.4781 99.9532C79.4366 100.453 77.5454 101.436 75.9642 102.821C74.6871 103.985 73.8585 105.561 73.6226 107.274C73.4718 108.571 73.8033 109.879 74.5542 110.948C75.0269 111.627 75.6658 112.174 76.4099 112.537C76.923 112.772 77.2313 112.813 77.2218 112.846L77.2324 112.845Z" fill="#263238"/>
<path d="M32.0077 234.621C31.7112 234.598 31.4206 234.526 31.1475 234.408C30.3574 234.077 29.6724 233.537 29.166 232.846C28.3395 231.75 27.9565 230.383 28.0935 229.017C28.3129 227.218 29.1615 225.555 30.489 224.322C32.1004 222.868 34.0409 221.828 36.1434 221.29C38.5075 220.61 40.9425 220.205 43.3996 220.085C49.0593 219.806 54.6926 221.024 59.7312 223.616C61.0781 224.303 62.28 225.243 63.2713 226.384C64.2379 227.525 64.825 228.939 64.9508 230.429C64.9925 231.152 64.8903 231.876 64.6503 232.56C64.4103 233.244 64.0372 233.873 63.5525 234.411C62.6243 235.409 61.4803 236.181 60.2081 236.669C57.8905 237.528 55.451 238.011 52.9813 238.102C50.8482 238.246 48.7073 238.23 46.5767 238.053C43.4926 237.791 40.4494 237.171 37.5081 236.207C36.4738 235.863 35.6746 235.558 35.1582 235.331C34.8811 235.237 34.6153 235.112 34.3655 234.959C34.6497 235.022 34.9275 235.111 35.1955 235.225C35.7374 235.416 36.5392 235.693 37.5809 235.994C40.5204 236.87 43.5445 237.431 46.6025 237.669C48.7131 237.824 50.8324 237.82 52.9425 237.657C55.3544 237.554 57.7346 237.069 59.9943 236.22C61.1904 235.751 62.2658 235.018 63.1412 234.078C63.5807 233.59 63.918 233.019 64.1331 232.399C64.3483 231.778 64.4369 231.121 64.3937 230.466C64.2693 229.094 63.7254 227.793 62.836 226.74C61.8856 225.658 60.7394 224.766 59.4576 224.109C54.504 221.563 48.9712 220.355 43.4071 220.604C40.9873 220.704 38.587 221.081 36.2534 221.729C34.2119 222.228 32.3206 223.212 30.7395 224.596C29.4623 225.761 28.6338 227.337 28.3979 229.049C28.247 230.347 28.5786 231.655 29.3294 232.724C29.8021 233.403 30.441 233.95 31.1852 234.313C31.6983 234.548 32.0066 234.589 31.997 234.621L32.0077 234.621Z" fill="#263238"/>
<path d="M203.436 104.631L217.912 104.481L225.128 113.128L218.015 122.446L203.157 122.534L203.436 104.631Z" fill="#EE3D4B"/>
<path d="M203.915 79.2116L218.391 79.0612L225.607 87.7089L218.494 97.0369L203.636 97.1151L203.915 79.2116Z" fill="#1D478E"/>
<circle cx="202.002" cy="240.291" r="36" fill="#EE3D4B"/>
<path d="M191.002 229.291L213.629 251.918" stroke="#FFF3EB" stroke-width="5" stroke-linecap="round"/>
<path d="M191.002 251.918L213.629 229.291" stroke="#FFF3EB" stroke-width="5" stroke-linecap="round"/>
</svg>
