<svg id="Rejected" xmlns="http://www.w3.org/2000/svg" width="226.48" height="145.228" viewBox="0 0 226.48 145.228">
  <g id="woman-got-approval-for-credit-card-application">
    <path id="Path_6407" data-name="Path 6407" d="M3358.69,2384.8s-1.577-11.667,1.565-10.515S3361.954,2380.111,3358.69,2384.8Z" transform="translate(-3144.341 -2246.501)" fill="#3a3a77"/>
    <path id="Path_6408" data-name="Path 6408" d="M3360.93,2411.446s6.424-11.508,10.857-7.551S3360.93,2411.446,3360.93,2411.446Z" transform="translate(-3146.788 -2273.261)" fill="#59599b"/>
    <path id="Path_6409" data-name="Path 6409" d="M3407.881,2404.041a1.067,1.067,0,0,1-.72.758,5.017,5.017,0,0,1-1.472-.052,3.085,3.085,0,0,0-1.562.293,6.4,6.4,0,0,0-1.29.931,7.192,7.192,0,0,1-1.291.963,4.954,4.954,0,0,1-1.475.408h0c2.219-2.775,5.355-5.591,7.89-3.57A2.55,2.55,0,0,1,3407.881,2404.041Z" transform="translate(-3183.128 -2273.278)" fill="#f2f8ff" opacity="0.5"/>
    <path id="Path_6410" data-name="Path 6410" d="M2767.487,2329.7H2712.02l.8-2.824,1.872-6.69a9.459,9.459,0,0,1,10.688-6.851l2.4.424a3.039,3.039,0,0,0,.531.047,3.188,3.188,0,0,0,2.666-1.458,9.386,9.386,0,0,1,16.5,1.382l.408.926a3.166,3.166,0,0,0,4.211,1.632l2.4-1.092a3.155,3.155,0,0,1,3.824.965,3.2,3.2,0,0,1,.638,1.458l.356,2.114a3.259,3.259,0,0,0,.568,1.373c.053.07.106.139.159.2a3.2,3.2,0,0,0,1.863,1.081,2.786,2.786,0,0,0,.568.054,3.113,3.113,0,0,0,1.764-.543,3.119,3.119,0,0,1,3.978.443l1.609,1.639A3.36,3.36,0,0,1,2767.487,2329.7Z" transform="translate(-2544.305 -2185.175)" fill="#59599b"/>
    <path id="Path_6411" data-name="Path 6411" d="M3234.025,2411.287c-.325-.492-.521-1.065-.871-1.541a3.191,3.191,0,0,0-3.17-.987,8.618,8.618,0,0,1-2.249.334,10.578,10.578,0,0,1-1.8-.312,4.8,4.8,0,0,1-2.984-1.961c-.647-1.065-.339-2.478-1.1-3.49-.823-1.088-2.239-.986-3.382-.56-.638.238-1.207.639-1.848.862a4.182,4.182,0,0,1-2.338.116,5.2,5.2,0,0,1-1.158-.423,1.678,1.678,0,0,1-.6-.444,1.847,1.847,0,0,1-.35-1.208,2.205,2.205,0,0,1,.162-.754,3.16,3.16,0,0,0,4.126,1.461l2.395-1.092a3.156,3.156,0,0,1,3.824.965,3.205,3.205,0,0,1,.638,1.458l.355,2.114a3.269,3.269,0,0,0,.569,1.374c.053.07.106.14.158.2a3.2,3.2,0,0,0,1.864,1.081,2.8,2.8,0,0,0,.568.053,3.107,3.107,0,0,0,1.764-.543,3.121,3.121,0,0,1,3.978.443l1.609,1.639a3.309,3.309,0,0,1,.956,2.03A1.818,1.818,0,0,1,3234.025,2411.287Z" transform="translate(-3008.671 -2271.271)" fill="#f2f8ff" opacity="0.2"/>
    <path id="Path_6412" data-name="Path 6412" d="M2762.583,2453.283H2712.01l.8-2.825a11.154,11.154,0,0,1,9.469-2.785l1.871.324,1.007.17a3.794,3.794,0,0,0,.652.054,3.754,3.754,0,0,0,1.364-.254,3.836,3.836,0,0,0,1.818-1.483,11.294,11.294,0,0,1,2.2-2.5,9.166,9.166,0,0,1,.984-.748,11.032,11.032,0,0,1,6.076-1.881,10.921,10.921,0,0,1,3.659.554,11.2,11.2,0,0,1,6.833,6.234l.492,1.1a3.8,3.8,0,0,0,5.061,1.959l1.456-.664,1.4-.641a3.764,3.764,0,0,1,1.939-.324,3.85,3.85,0,0,1,3.409,3.226Z" transform="translate(-2544.296 -2308.758)" fill="#3a3a77"/>
    <path id="Path_6413" data-name="Path 6413" d="M2853.272,2418.2a.986.986,0,1,1-.987-1A1,1,0,0,1,2853.272,2418.2Zm-13.061,4.567a.986.986,0,1,1-.986-1A.995.995,0,0,1,2840.211,2422.768Zm-20.92-7.274a.986.986,0,1,1-.986-1A.995.995,0,0,1,2819.291,2415.494Z" transform="translate(-2642.072 -2283.852)" fill="#c0b7cc"/>
    <path id="Path_6414" data-name="Path 6414" d="M2909.4,2387.729a.8.8,0,1,1-.8-.819A.812.812,0,0,1,2909.4,2387.729Zm-18.684,8.009a.8.8,0,1,1-.8-.819A.81.81,0,0,1,2890.717,2395.738Z" transform="translate(-2708.725 -2258.282)" fill="#deeefc"/>
    <g id="Group_5429" data-name="Group 5429" transform="translate(203.238 137.857)">
      <path id="Path_6415" data-name="Path 6415" d="M3284.27,2519.693s-4.447-5.709-2.417-6.1S3284.56,2516.149,3284.27,2519.693Z" transform="translate(-3276.115 -2513.554)" fill="#3a3a77"/>
      <path id="Path_6416" data-name="Path 6416" d="M3294.813,2516.2a.634.634,0,0,1-.425-.388c-.178-.383-.166-.832-.371-1.2a1.007,1.007,0,0,0-.454-.419,5.9,5.9,0,0,1-.577-.241c-.174-.1-.2-.231-.071-.376,1.062.015,1.69,1.066,1.954,2.638Z" transform="translate(-3286.801 -2513.569)" fill="#f2f8ff" opacity="0.15"/>
      <path id="Path_6417" data-name="Path 6417" d="M3322.521,2521.042s2.8-7.679,5.9-5.71S3322.521,2521.042,3322.521,2521.042Z" transform="translate(-3314.366 -2514.903)" fill="#deeefc"/>
      <path id="Path_6418" data-name="Path 6418" d="M3353.451,2515.342a.347.347,0,0,1-.16.163,1.047,1.047,0,0,1-.415.029,3.917,3.917,0,0,0-.866.032,2.319,2.319,0,0,0-.848.423c-.461.331-.76.85-1.234,1.159a1.936,1.936,0,0,1-.308.153C3350.66,2515.773,3352.021,2514.549,3353.451,2515.342Z" transform="translate(-3339.526 -2514.981)" fill="#f2f8ff" opacity="0.2"/>
      <path id="Path_6419" data-name="Path 6419" d="M3216.693,2555.581s-10.343-1.281-7.733-2.953S3216.693,2555.581,3216.693,2555.581Z" transform="translate(-3208.538 -2549.442)" fill="#c0b7cc"/>
      <path id="Path_6420" data-name="Path 6420" d="M3233.649,2553.274a2.38,2.38,0,0,1-.788-.4,2.581,2.581,0,0,0-.791-.33c-.4-.085-.8.018-1.194-.037-.139-.019-.3-.067-.354-.208a6.544,6.544,0,0,1,3.314.99A1.292,1.292,0,0,1,3233.649,2553.274Z" transform="translate(-3228.948 -2549.472)" fill="#f2f8ff" opacity="0.2"/>
    </g>
    <g id="Group_5430" data-name="Group 5430" transform="translate(10.188 30.082)">
      <path id="Path_6421" data-name="Path 6421" d="M788.441,1044.619l-.279,95.98c-.014,5.071-4.481,9.144-9.972,9.136l-104-.114-71.591-.085c-5.547-.007-10-4.114-9.984-9.208l.28-96.532c.015-5.1,4.489-9.231,10.036-9.208l105.421.48,15.78.069,54.384.249C784.013,1035.41,788.456,1039.548,788.441,1044.619Z" transform="translate(-592.62 -1034.588)" fill="#6a96df"/>
    </g>
    <g id="Group_5431" data-name="Group 5431" transform="translate(51.303 92.164)">
      <path id="Path_6422" data-name="Path 6422" d="M1088.117,1891.777l0-1.563c0-.224.107-.387.41-.386s.407.164.406.388l-.006,1.952a.367.367,0,0,1-.408.385l-3.216-.008a.388.388,0,1,1,0-.774l1.2,0,.013-4.476-1.2,0a.388.388,0,1,1,0-.774l2.016.006-.015,5.249Zm3.475.01,2.808.007a.387.387,0,1,1,0,.774l-3.623-.009.006-2.524c0-.581.312-.875.925-.873l2.293.007,0-1.85-2.806-.008a.388.388,0,1,1,0-.775l2.709.008a.887.887,0,0,1,.66.219.789.789,0,0,1,.251.69l0,1.587a.787.787,0,0,1-.254.688.893.893,0,0,1-.662.215l-2.3-.007Zm5.477-4.459a.388.388,0,1,1,0-.775l2.806.008a.778.778,0,0,1,.813.776l0,1.486a1.043,1.043,0,0,0,0,1.5l0,1.486a.779.779,0,0,1-.818.771l-2.806-.008a.388.388,0,1,1,0-.775l2.806.008,0-1.284c0-.434-.178-.566-.406-.566l-1.6,0a.387.387,0,1,1,0-.773l1.6,0c.228,0,.408-.13.409-.563l0-1.285Zm8.26,2.531.006-2.236a.408.408,0,0,1,.816,0l-.006,2.235a.388.388,0,1,1,0,.774l0,1.579c0,.248-.115.387-.41.386s-.407-.14-.406-.388l0-1.579-2.4-.007.01-3.668a.408.408,0,0,1,.815,0l-.008,2.894Zm12.133,2,0-1.562c0-.224.106-.386.408-.386s.407.163.406.388l0,1.949a.368.368,0,0,1-.409.386l-3.21-.009a.387.387,0,1,1,0-.774l1.2,0,.012-4.471-1.2,0a.387.387,0,1,1,0-.773l2.013.006-.015,5.244Zm3.469.009,2.8.008a.387.387,0,1,1,0,.774l-3.616-.01.007-2.521c0-.58.312-.873.923-.871l2.288.006.005-1.848-2.8-.009a.387.387,0,1,1,0-.774l2.7.008a.884.884,0,0,1,.658.219.79.79,0,0,1,.25.69l0,1.585a.787.787,0,0,1-.255.688.88.88,0,0,1-.66.215l-2.3-.006Zm5.466-4.454a.387.387,0,1,1,0-.774l2.8.008a.777.777,0,0,1,.812.776l0,1.484a1.043,1.043,0,0,0,0,1.5l0,1.485a.778.778,0,0,1-.817.771l-2.8-.008a.387.387,0,1,1,0-.773l2.8.008,0-1.284c0-.433-.177-.564-.405-.566l-1.6,0a.388.388,0,1,1,0-.774l1.6.005c.228,0,.407-.13.408-.564l0-1.283Zm8.244,2.528.006-2.234a.407.407,0,0,1,.813,0l-.006,2.234a.387.387,0,1,1,0,.773l0,1.578c0,.247-.115.386-.408.385s-.406-.139-.406-.387l0-1.577-2.393-.007.01-3.664a.407.407,0,0,1,.813,0l-.008,2.891Zm12.109,2,0-1.561c0-.225.107-.387.407-.386s.407.163.407.388l-.006,1.947a.367.367,0,0,1-.408.385l-3.2-.009a.387.387,0,1,1,0-.773l1.2,0,.012-4.467-1.2,0a.387.387,0,1,1,0-.773l2.008,0-.015,5.24Zm3.461.01,2.8.008a.387.387,0,1,1,0,.772l-3.609-.01.007-2.519c0-.579.311-.872.921-.87l2.284.006.005-1.847-2.8-.008a.387.387,0,1,1,0-.772l2.7.008a.882.882,0,0,1,.658.218.786.786,0,0,1,.249.688l0,1.584a.787.787,0,0,1-.254.687.877.877,0,0,1-.658.214l-2.293-.005Zm5.457-4.451a.387.387,0,1,1,0-.772l2.794.006a.777.777,0,0,1,.811.776l0,1.483a1.044,1.044,0,0,0,0,1.5l0,1.482a.775.775,0,0,1-.816.77l-2.795-.007a.387.387,0,1,1,0-.773l2.794.008,0-1.282c0-.433-.177-.565-.4-.566l-1.593,0a.387.387,0,1,1,0-.772l1.592,0c.228,0,.407-.13.408-.562l0-1.282Zm8.227,2.527.007-2.232a.406.406,0,0,1,.811,0l-.007,2.232a.387.387,0,1,1,0,.772l0,1.575c0,.247-.115.385-.407.385s-.405-.14-.405-.388l.005-1.575-2.389-.006.01-3.661a.407.407,0,0,1,.812,0l-.008,2.888Zm12.1-3.241a.794.794,0,0,1,.809.774l-.012,4.462a.781.781,0,0,1-.814.77l-2.387-.006a.78.78,0,0,1-.809-.775l.012-4.463a.8.8,0,0,1,.813-.77Zm-.015,5.234.012-4.463-2.386-.007-.012,4.463Zm5.854-5.218a.8.8,0,0,1,.81.774l-.013,4.461a.78.78,0,0,1-.813.769l-2.385-.007a.78.78,0,0,1-.809-.774l.013-4.462a.794.794,0,0,1,.813-.769Zm-.014,5.234.013-4.462-2.385-.006-.012,4.462Zm5.852-5.216a.794.794,0,0,1,.808.774l-.012,4.461a.779.779,0,0,1-.813.77l-2.384-.007a.779.779,0,0,1-.808-.773l.012-4.461a.8.8,0,0,1,.813-.77Zm-.015,5.232.012-4.461-2.385-.007-.012,4.461Zm5.85-5.216a.794.794,0,0,1,.808.774l-.012,4.46a.78.78,0,0,1-.813.769l-2.383-.007a.78.78,0,0,1-.809-.773l.012-4.46a.8.8,0,0,1,.813-.77Zm-.015,5.232.012-4.461-2.383-.007-.012,4.46Zm11.662.031.005-1.558c0-.224.106-.385.406-.385s.405.164.4.387l-.006,1.944a.366.366,0,0,1-.406.384l-3.192-.009a.386.386,0,1,1,0-.771l1.191,0,.012-4.458-1.191,0a.386.386,0,1,1,0-.772l2,.006-.015,5.229Zm3.448.01,2.786.007a.386.386,0,1,1,0,.772l-3.6-.01.007-2.514c0-.578.31-.871.917-.869l2.275.006.005-1.843-2.785-.008a.386.386,0,1,1,0-.771l2.688.008a.878.878,0,0,1,.655.218.786.786,0,0,1,.249.687l0,1.581a.785.785,0,0,1-.254.685.872.872,0,0,1-.656.215l-2.283-.007Zm5.435-4.442a.386.386,0,1,1,0-.771l2.784.008a.774.774,0,0,1,.807.773l0,1.48a1.042,1.042,0,0,0-.005,1.495l0,1.481a.774.774,0,0,1-.812.769l-2.784-.007a.386.386,0,1,1,0-.771l2.784.007,0-1.279c0-.432-.177-.564-.4-.565l-1.586,0a.386.386,0,1,1,0-.771l1.586,0c.227,0,.405-.13.406-.561l0-1.28Zm8.2,2.521.007-2.228a.405.405,0,0,1,.809,0l-.007,2.227a.386.386,0,1,1,0,.771l0,1.573c0,.247-.115.385-.406.384s-.4-.14-.4-.387l0-1.573-2.379-.007.01-3.654a.405.405,0,0,1,.809,0l-.009,2.883Z" transform="translate(-1084.9 -1886.52)" fill="#394ca4"/>
    </g>
    <g id="Group_5432" data-name="Group 5432" transform="translate(10.188 105.707)">
      <path id="Path_6423" data-name="Path 6423" d="M592.69,2092.658l195.556.329.059-20.183-195.556-.444Z" transform="translate(-592.69 -2072.36)" fill="#394ca4"/>
    </g>
    <path id="Path_6424" data-name="Path 6424" d="M732.984,1064.266c-.11,36.7-22.761,68.646-56.3,85.355l-73.786-.085c-5.717-.007-10.3-4.114-10.289-9.208l.289-96.532c.015-5.1,4.627-9.231,10.344-9.208l108.652.48,16.264.069A88.239,88.239,0,0,1,732.984,1064.266Z" transform="translate(-584.801 -1004.506)" fill="#f2faff" opacity="0.25"/>
    <path id="Path_6426" data-name="Path 6426" d="M711.288,1035.088c-3.237,51.592-50.74,92.439-108.806,92.342-3.158-.009-6.266-.127-9.342-.388l.247-83.226c.015-5.1,4.584-9.231,10.249-9.208Z" transform="translate(-582.952 -1004.525)" fill="#f2faff" opacity="0.1"/>
    <g id="Group_5442" data-name="Group 5442" transform="translate(-4.417 -17.996)">
      <path id="Path_6428" data-name="Path 6428" d="M469.5,626.858c-1.942-4.043-3.139-7.165-8.881-3.342s-6.243.2-13.79,1.951-1.519,7.985-8.341,12.889-9.113,14.2-1.855,14.85,10.978-10.919,16.766-6.771S475.278,638.882,469.5,626.858Z" transform="translate(-423.15 -603.786)" fill="#33143f"/>
      <path id="Path_6429" data-name="Path 6429" d="M469.509,656.962c-.348-.725-.673-1.42-1-2.051a6.963,6.963,0,0,0-.782-.3,7.132,7.132,0,0,0-3.6-.225,4.458,4.458,0,0,0-1.592.657,5.131,5.131,0,0,0-1.344,1.5,7.608,7.608,0,0,0-.891,1.939,4.909,4.909,0,0,0-.061,1.825c.061.632.158,1.261.191,1.9a4.084,4.084,0,0,1-.177,1.63,3.542,3.542,0,0,1-2.137,1.863c-.956.4-1.972.635-2.925,1.047a2.829,2.829,0,0,0-1.174.774,1.787,1.787,0,0,0-.295.9,5.1,5.1,0,0,1-.869,2.717,4.079,4.079,0,0,1-2.642,1.271,16.374,16.374,0,0,0-3.051.41,3.925,3.925,0,0,0-1.751,1.5c-.35.468-.675.955-1.037,1.414a14.673,14.673,0,0,1-1.243,1.392,8.243,8.243,0,0,1-6.649,2.672,5.246,5.246,0,0,1-3.866-2.73c-.058-.1-.113-.2-.167-.309-.854,3.335.281,6.2,4.2,6.553,7.258.653,10.978-10.919,16.766-6.771S475.284,668.987,469.509,656.962Z" transform="translate(-423.156 -633.89)" fill="#33143f" opacity="0.35"/>
      <path id="Path_6430" data-name="Path 6430" d="M1071.29,412.908l13.82,10.883-1.835,16.717,2.573.9s5.9-16.5,3.535-22.5c-1.4-3.534-13.421-11.685-13.421-11.685Z" transform="translate(-1016.543 -362.691)" fill="#f4a28c"/>
      <path id="Path_6431" data-name="Path 6431" d="M404.908,979.936l-9.636,11.989-16.292,14.34.325-2.771,9.281-13.59,13.053-19.3Z" transform="matrix(0.875, -0.485, 0.485, 0.875, -797.602, -606.238)" fill="#f4a28c"/>
      <path id="Path_6432" data-name="Path 6432" d="M440.457,1995.666a.355.355,0,0,1-.411.09c-.263-.1-.059-12.679.352-12.769a.507.507,0,0,1,.574.278S441.053,1994.773,440.457,1995.666Z" transform="translate(-430.352 -1865.786)" fill="#383b4b"/>
      <path id="Path_6433" data-name="Path 6433" d="M464.561,1990.25l-6.4.587-.689,3.36,6.311-.146Z" transform="translate(-446.639 -1872.531)" fill="#f4a28c"/>
      <path id="Path_6434" data-name="Path 6434" d="M448.31,1978.045c-1.9-.376-3.312-.439-3.681.224-.395.656-.469,12.676-.469,12.676s1.633,1.4,2.107-1.536a23.457,23.457,0,0,1,2.289-6.1l.025.006c.755-.263,1.49.079,1.228-.294a1.835,1.835,0,0,0-1.023-.455,3.261,3.261,0,0,1-.2-3.324S450.2,1978.447,448.31,1978.045Z" transform="translate(-434.281 -1860.956)" fill="#202234"/>
      <path id="Path_6435" data-name="Path 6435" d="M464.623,2055.916c-1.023,1.953.28,2.944.28,2.944a23.445,23.445,0,0,1,2.289-6.1l.025,0C466.517,2052.246,465.625,2054.067,464.623,2055.916Zm32.165,9.656a.364.364,0,0,1-.3.3c-.275.056-6.609-10.745-6.307-11.041a.5.5,0,0,1,.632-.073S496.832,2064.492,496.788,2065.572Z" transform="translate(-452.915 -1930.408)" fill="#383b4b"/>
      <path id="Path_6436" data-name="Path 6436" d="M857.537,2030.22l-5.137,3.935,1.153,3.225,5.288-3.511Z" transform="translate(-813.314 -1909.588)" fill="#f4a28c"/>
      <path id="Path_6437" data-name="Path 6437" d="M834.306,2049.375c-1.806.7-3.042,1.4-3.013,2.167,0,.769,6.159,11.023,6.159,11.023s2.116.319,1-2.436a23.567,23.567,0,0,1-1.211-6.412l.024-.009c.506-.628,1.307-.732.892-.909a1.819,1.819,0,0,0-1.1.163,3.207,3.207,0,0,1-1.891-2.716S836.121,2048.7,834.306,2049.375Z" transform="translate(-793.716 -1927.191)" fill="#202234"/>
      <path id="Path_6438" data-name="Path 6438" d="M905.51,2115.049c.14,2.208,1.76,2.351,1.76,2.351a23.6,23.6,0,0,1-1.21-6.413l.024-.008C905.221,2110.912,905.405,2112.94,905.51,2115.049Z" transform="translate(-862.538 -1984.462)" fill="#383b4b"/>
      <g id="Group_5434" data-name="Group 5434" transform="translate(35.047 65.014)">
        <path id="Path_6439" data-name="Path 6439" d="M796.154,1276.515s-1.337.226,2.613,8.561c2.229,4.706,9.991,11.252,9.991,11.252l11.33,9.465L803.3,1323.4l2.4,4.085s26.8-11.843,28.942-19.282c3.7-12.859-24.746-41.892-27.8-41.188S796.154,1276.515,796.154,1276.515Z" transform="translate(-795.937 -1266.997)" fill="#1a2347"/>
      </g>
      <g id="Group_5435" data-name="Group 5435" transform="translate(35.047 65.013)" opacity="0.2">
        <path id="Path_6440" data-name="Path 6440" d="M815.582,1320.179a14.544,14.544,0,0,0,1.156-3.631c.233-1.232.269-2.5.615-3.709a7.946,7.946,0,0,1,2.743-4.016c.972-.809,2.313-1.575,2.623-2.912.438-1.893-.962-3.86-1.918-5.341-1.061-1.646-2.169-3.4-2.266-5.43a11.485,11.485,0,0,1,.42-2.915,5.787,5.787,0,0,0-.206-3.341c-.7-1.9-1.638-3.448-1.17-5.546a9.128,9.128,0,0,1,2.584-4.547c-6.081-6.966-12.013-12.093-13.314-11.792-3.049.705-10.7,9.506-10.7,9.506s-1.337.226,2.613,8.561c2.229,4.705,9.991,11.252,9.991,11.252l11.33,9.465-16.786,17.6,2.4,4.084s3.155-1.394,7.387-3.527A17.9,17.9,0,0,0,815.582,1320.179Z" transform="translate(-795.937 -1266.987)" fill="#231f20"/>
      </g>
      <g id="Group_5436" data-name="Group 5436" transform="translate(15.906 71.194)">
        <path id="Path_6441" data-name="Path 6441" d="M546.652,1354.341s-1.253-.525-2.209,8.678c-.54,5.2,2.67,14.926,2.67,14.926l4.732,14.125-23.373,5.95-.073,4.76s28.908,4.321,34.573-.853c9.794-8.945.643-48.886-2.314-49.924S546.652,1354.341,546.652,1354.341Z" transform="translate(-528.4 -1351.804)" fill="#232b57"/>
      </g>
      <g id="Group_5437" data-name="Group 5437" transform="translate(21.405 71.193)" opacity="0.2">
        <path id="Path_6442" data-name="Path 6442" d="M623.207,1392.058l-17.947,4.568a21.851,21.851,0,0,0,15.2-1.309c1.984-.895,4.017-2.205,4.38-4.553.329-2.126-.4-4.4-.857-6.455a11.635,11.635,0,0,1-.415-4.223c.221-1.521.9-2.93,1.115-4.458.456-3.251-2.065-6.012-1.835-9.3.329-4.714,4.972-10.372,9.918-7.465a9.329,9.329,0,0,1,3.009,3.072c-1.349-5.633-2.84-9.629-3.748-9.949-2.956-1.038-14.007,2.338-14.007,2.338s-1.252-.525-2.209,8.679c-.54,5.2,2.67,14.926,2.67,14.926Z" transform="translate(-605.26 -1351.791)" fill="#231f20"/>
      </g>
      <g id="Group_5438" data-name="Group 5438" transform="translate(22.626 34.753)">
        <path id="Path_6443" data-name="Path 6443" d="M946.039,856.034a58.932,58.932,0,0,0,11.351-4.294s5.893,6.685,5.307,9.309c-.525,2.348-7.819,5.419-7.819,5.419S944.93,860.165,946.039,856.034Z" transform="translate(-56.882 1295.316) rotate(-128)" fill="#ffca1a"/>
        <path id="Path_6445" data-name="Path 6445" d="M778.562,932.213c.972-2.971-4.523-6.986-6.155-10.387-3.315-6.9,4.159-10.716,1.075-15.789s-5.414-7-13.423-8.291c-3.228-.519-12.491-1.5-12.791,2.605-.12,1.579.7,6.641,1.591,12.618.653,4.345,1.343,9.174,1.742,13.5.482,5.2-3.075,6.741-4,8.781C744.5,939.891,776.5,938.51,778.562,932.213Z" transform="translate(-737.616 -894.04)" fill="#ffca1a"/>
        <path id="Path_6446" data-name="Path 6446" d="M635.432,913.39s-10.608,3.937-13.112,11.434c0,0,2.687,6.821,6.245,7.349l7.506-4.689Z" transform="matrix(0.985, -0.174, 0.174, 0.985, -773.018, -785.335)" fill="#ffca1a"/>
      </g>
      <g id="Group_5439" data-name="Group 5439" transform="translate(14.151 90.79) rotate(-29)">
        <path id="Path_6447" data-name="Path 6447" d="M340.54,1435.251s-1.444-1.937-.4-3.4,1.842-.618,1.842-.618-1.1,2.272-.977,2.859S341.155,1435.442,340.54,1435.251Z" transform="translate(-337.35 -1427.327)" fill="#f4a28c"/>
        <path id="Path_6448" data-name="Path 6448" d="M334.13,1443.052s-1.444-1.937-.4-3.4,1.842-.618,1.842-.618-1.1,2.273-.977,2.859S334.745,1443.243,334.13,1443.052Z" transform="translate(-331.398 -1434.559)" fill="#f4a28c"/>
        <path id="Path_6449" data-name="Path 6449" d="M325.31,1447.522s-1.444-1.937-.4-3.4,1.842-.618,1.842-.618-1.1,2.273-.977,2.859S325.924,1447.713,325.31,1447.522Z" transform="translate(-323.209 -1438.703)" fill="#f4a28c"/>
        <path id="Path_6450" data-name="Path 6450" d="M314.839,1394.005a4.55,4.55,0,0,0-1.388-1.3,13.7,13.7,0,0,1-2.36,2.58c-.736.374-2.262.02-3.519,1.267a4.861,4.861,0,0,0-1.468,2.108c-.12.691.15,2.49.512,2.619s.4-1.063.479-1.766a2.142,2.142,0,0,1,1.078-1.657c.585-.3,1.217.39,1.217.39s-1.349,1.141-1.226,1.533.841-.251,1.664-.673,2.311-.9,2.433-1.751S314.839,1394.005,314.839,1394.005Z" transform="translate(-306.09 -1392.569)" fill="#f4a28c"/>
        <path id="Path_6451" data-name="Path 6451" d="M312.414,1477.337c.005-.006-.054-.3-.2-.25s-.354.359-.25.374A.549.549,0,0,0,312.414,1477.337Zm-2.116,1.489a1.157,1.157,0,0,0-.185-.431c-.084-.071-.142-.032-.142-.032S310.126,1478.874,310.3,1478.826Z" transform="translate(-309.691 -1470.061)" fill="#f4a28c" opacity="0.2"/>
      </g>
      <g id="Group_5440" data-name="Group 5440" transform="translate(37.907 19.8)">
        <path id="Path_6452" data-name="Path 6452" d="M835.988,654.635a6.9,6.9,0,0,0,7.86,5.853,7,7,0,0,0,5.746-8.006,6.9,6.9,0,0,0-7.86-5.853A7,7,0,0,0,835.988,654.635Z" transform="translate(-835.905 -646.545)" fill="#33143f"/>
        <path id="Path_6453" data-name="Path 6453" d="M895.72,827.01l.37,7.023s2.6,2.862,4.345.146l-.766-4.639Z" transform="translate(-891.44 -813.859)" fill="#f4a28c"/>
        <path id="Path_6454" data-name="Path 6454" d="M909.292,841.275a2.311,2.311,0,0,0-.484-2.67c-.328-.238-.725-.357-1.044-.608a1.806,1.806,0,0,1-.567-1.349,14.2,14.2,0,0,0,0-2.389l3.124,2,.766,4.639a2.077,2.077,0,0,1-2.231,1.131A2.951,2.951,0,0,0,909.292,841.275Z" transform="translate(-902.092 -820.581)" fill="#f4a28c" opacity="0.15"/>
        <path id="Path_6455" data-name="Path 6455" d="M862.683,696.983s2.076,11.057-2.206,12.092-6.893-3.313-6.893-3.313-.722.63-1.036-.153-1.484-2.066-.616-2.759,1.308.15,1.308.15l-.917-2.433S862.013,693.361,862.683,696.983Z" transform="translate(-850.493 -692.364)" fill="#f4a28c"/>
        <path id="Path_6456" data-name="Path 6456" d="M858.373,794.871s-.619-.224-.778.266.607,2.142,1.249,1.827a1.419,1.419,0,0,1-.984-1.32C857.8,794.569,858.276,795.232,858.373,794.871Zm3.038,2.267c0,.316.374.579.844.584s.854-.245.858-.562-.374-.579-.844-.584S861.415,796.821,861.411,797.138Zm5.2-.792c0,.316.374.578.844.585s.855-.246.858-.562-.374-.579-.844-.584S866.611,796.028,866.606,796.345Z" transform="translate(-856.024 -784.015)" fill="#33133f" opacity="0.05"/>
        <path id="Path_6457" data-name="Path 6457" d="M914.976,760.61a.131.131,0,0,0,.109-.112,1.44,1.44,0,0,1,1.477-1.138.132.132,0,0,0-.015-.263,1.718,1.718,0,0,0-1.719,1.364.131.131,0,0,0,.109.149A.108.108,0,0,0,914.976,760.61Zm-2.773.439.039-.007a.132.132,0,0,0-.049-.259,2.931,2.931,0,0,1-1.8-.329.128.128,0,0,0-.176.053.132.132,0,0,0,.052.179A3.155,3.155,0,0,0,912.2,761.049Zm1.679,2.454a.832.832,0,0,0,.538-.3.133.133,0,0,0-.007-.162,2.746,2.746,0,0,1-.155-1.511A.13.13,0,1,0,914,761.5a3.366,3.366,0,0,0,.147,1.614.742.742,0,0,1-.653.116.129.129,0,0,0-.154.1.132.132,0,0,0,.1.156A1.167,1.167,0,0,0,913.882,763.5Z" transform="translate(-904.884 -750.895)" fill="#33143f"/>
        <path id="Path_6458" data-name="Path 6458" d="M924.4,780.021c.062.407.333.7.607.658s.444-.408.382-.814-.333-.7-.607-.658S924.341,779.614,924.4,780.021Zm-4.45.7c.062.407.334.7.607.658s.445-.408.382-.814-.334-.7-.607-.658S919.892,780.318,919.954,780.725Z" transform="translate(-913.929 -769.536)" fill="#33133f"/>
        <path id="Path_6459" data-name="Path 6459" d="M949.56,835.939c.085.266,1.11.571,1.382.537.766-.094,1.368-.631,1.283-.9s-1.109.015-1.369.1S949.475,835.672,949.56,835.939Z" transform="translate(1102.406 653.447) rotate(169)" fill="#fff"/>
        <path id="Path_6460" data-name="Path 6460" d="M855.9,679.222a6.546,6.546,0,0,1-.121-.77c4.569-.306,3.128,4.8,3.128,4.8a4.731,4.731,0,0,1-2.834-3.354c-.954,1.88-3.389,5.736-7.612,6.494l-1.724-2.108Z" transform="translate(-845.965 -676.114)" fill="#33133f"/>
        <path id="Path_6461" data-name="Path 6461" d="M875.211,680.693a3.938,3.938,0,0,1,2.22,1.827,7.071,7.071,0,0,1,1.158,2.23,8.192,8.192,0,0,1,.238,1.962c.008.729-.086,1.453-.05,2.182a3.888,3.888,0,0,0,.862,2.548,19.064,19.064,0,0,0,1.724,1.267c.16.135-.03.4-.191.267-.479-.4-1.049-.671-1.523-1.077a3.33,3.33,0,0,1-1.062-1.893,28.32,28.32,0,0,1-.106-3.854,5.72,5.72,0,0,0-.426-1.967,8.327,8.327,0,0,0-.458-.82,9.522,9.522,0,0,0-.985-1.361,2.73,2.73,0,0,0-1.437-.983c-.2-.037-.17-.366.036-.328Zm-3.1.827c-1.882.972-2.553,3.173-2.831,5.158s-.17,3.953-.283,5.932a2.638,2.638,0,0,1-.446,1.709c-.152.146-.355-.111-.2-.257.334-.322.308-1.113.331-1.538.05-.912.04-1.827.06-2.739a15.331,15.331,0,0,1,1.059-6.206,4.976,4.976,0,0,1,2.182-2.36c.187-.1.319.206.134.3Z" transform="translate(-865.976 -678.202)" fill="#33143f"/>
      </g>
      <g id="Group_5441" data-name="Group 5441" transform="matrix(-0.883, -0.469, 0.469, -0.883, 67.958, 85.834)">
        <path id="Path_6462" data-name="Path 6462" d="M1229.478,377.81a7.086,7.086,0,0,0-.218-.952h0s0,0,0,0-.02-.095-.046-.211h0c-.021-.092-.049-.2-.084-.323h0s-.3-1.36-.7-1.433a.478.478,0,0,0-.543.211.585.585,0,0,0-.6-.248.525.525,0,0,0-.429.38.567.567,0,0,0-.627-.216.755.755,0,0,0-.541.5s-.323-.462-.787.055-.068,1.459-.056,1.5c.045.179.1.351.155.514a.786.786,0,0,0,.049.133c1.721,2.89,2.034,8.485,2.581,8.71,0,0,2.728.054,2.87-.62-.094-.633-1.454-6.054-1.454-6.054A2.43,2.43,0,0,0,1229.478,377.81Z" transform="translate(-1224.391 -374.834)" fill="#f4a28c"/>
        <path id="Path_6463" data-name="Path 6463" d="M1229.275,376.857h0s0,0,0,0-.02-.095-.046-.211h0c-.021-.092-.049-.2-.084-.323h0s-.3-1.36-.7-1.433a.478.478,0,0,0-.543.211.584.584,0,0,0-.6-.248.524.524,0,0,0-.429.38.568.568,0,0,0-.627-.216.755.755,0,0,0-.541.5s-.322-.462-.787.055a.973.973,0,0,0-.223.659,1.168,1.168,0,0,1,.647-.434.53.53,0,0,1,.2-.005c.074.013.143.047.216.067.157.043.286-.06.415-.141a1.006,1.006,0,0,1,.538-.188,1.892,1.892,0,0,1,.436.08.733.733,0,0,0,.453-.009,1.135,1.135,0,0,1,.426-.113.762.762,0,0,1,.621.386,2.75,2.75,0,0,1,.232.483c.09.216.175.433.26.65a9.854,9.854,0,0,1,.395,1.126,2.939,2.939,0,0,0-.033-.32A6.951,6.951,0,0,0,1229.275,376.857Z" transform="translate(-1224.406 -374.834)" fill="#f4a28c" opacity="0.2"/>
        <path id="Path_6464" data-name="Path 6464" d="M1226.462,393.43s-.448-.939-.009-1.158.664.775,1.825.562c1.607-.3,1.149-1.581,1.234-1.754s-.085-.55-.085-.55-.068.409-.389.5-1.216.308-1.81.441c-.457-.623-1.7-.766-1.755-.312S1226.076,393.329,1226.462,393.43Z" transform="translate(-1225.131 -389.386)" fill="#f4a28c" opacity="0.1"/>
        <path id="Path_6465" data-name="Path 6465" d="M1241.936,380.292c.076-.031.154-.063.229-.1-.077.019-.153.039-.229.06a3.885,3.885,0,0,0-.153-.635,3.314,3.314,0,0,0-.29-.649,3.1,3.1,0,0,1,.24.646,3.55,3.55,0,0,1,.1.63v0a.058.058,0,0,0,.013.031l-.349.093-.426.1a4.116,4.116,0,0,0-.2-.623,3.511,3.511,0,0,0-.359-.66,3.267,3.267,0,0,1,.3.66,3.6,3.6,0,0,1,.155.647l-.138.033c-.223.052-.445.1-.67.134-.051.009-.1.014-.152.021a4.115,4.115,0,0,0-.274-.641,3.515,3.515,0,0,0-.417-.622,3.18,3.18,0,0,1,.363.627,3.711,3.711,0,0,1,.216.633v0a.1.1,0,0,0,.007.015l-.082.012a2.958,2.958,0,0,1-.342.026,2.838,2.838,0,0,0,.691,0,5.261,5.261,0,0,0,.682-.112,6.768,6.768,0,0,0,.666-.186l.326-.116.05-.021A.032.032,0,0,0,1241.936,380.292Z" transform="translate(-1237.989 -378.669)" fill="#f4a28c"/>
        <path id="Path_6466" data-name="Path 6466" d="M1222.848,399.151c-.163-.261-1.664-.39-1.664-.39-.507.223-.523,1.751-.384,1.972.5.986,1.223,1.533,1.567,1.5a9.755,9.755,0,0,0-.615-1.9c.018-.271.091-.646.363-.658C1222.539,399.648,1223.011,399.411,1222.848,399.151Z" transform="translate(-1220.724 -397.017)" fill="#f4a28c"/>
        <path id="Path_6467" data-name="Path 6467" d="M1221.1,399.973c.13-.16,0-.8.2-.853.973-.241.677.255,1.238.4.026.006.048.021.074.028.2-.1.328-.242.233-.4-.163-.261-1.664-.391-1.664-.391-.478.211-.52,1.584-.406,1.922C1220.753,400.322,1220.877,400.253,1221.1,399.973Z" transform="translate(-1220.72 -397.017)" fill="#f4a28c" opacity="0.2"/>
        <path id="Path_6468" data-name="Path 6468" d="M1243.345,402.12s.4.03.468.176-.136.131-.265.1a.958.958,0,0,1-.228-.09Z" transform="translate(-1241.703 -400.132)" fill="#f4a28c" opacity="0.2"/>
        <path id="Path_6469" data-name="Path 6469" d="M1248.694,443.73a2.292,2.292,0,0,1-1.487.562,1.939,1.939,0,0,1-1.208-.3c.053.067.107.133.168.2.158.163.8.9,1.391.775.916-.2.989-1.059,1.14-1.2C1248.7,443.755,1248.7,443.742,1248.694,443.73Z" transform="translate(-1244.192 -438.709)" fill="#f4a28c" opacity="0.1"/>
      </g>
      <path id="Path_6470" data-name="Path 6470" d="M839.45,1057.259c-.17-.556-.946-6.813-.443-8.12s6.511,3.99,10.835,2.235,4.341-4.9,5.231-3.772-2.187,3.667-1.63,8.348-.717-.661-4.354-.789S841.462,1063.844,839.45,1057.259Z" transform="translate(-800.723 -998.356)" fill="#231f20" opacity="0.1"/>
    </g>
    <g id="Group_5449" data-name="Group 5449" transform="translate(137.139 2.431)">
      <path id="Path_6485" data-name="Path 6485" d="M2430.2,725.76h-42.475a4.065,4.065,0,0,0-4.028,4.1v67.391a4.065,4.065,0,0,0,4.028,4.1H2430.2a4.065,4.065,0,0,0,4.027-4.1V729.862A4.065,4.065,0,0,0,2430.2,725.76Z" transform="translate(-2376.613 -720.614)" fill="#202c5e"/>
      <path id="Path_6486" data-name="Path 6486" d="M2431.984,1055.135c-.409,3.3-.414,6.625-.572,9.938a29.452,29.452,0,0,1-1.4,8.916,9.911,9.911,0,0,1-2.519,3.961,8.573,8.573,0,0,1-3.478,1.818c-2.766.774-5.69.731-8.4,1.743a16.357,16.357,0,0,0-2.288,1.127c-.933.525-1.87,1.045-2.821,1.537a30.9,30.9,0,0,1-5.86,2.414c-3.774,1.05-7.995.844-11.243-1.572-2.7-2.007-4.441-5.013-6.448-7.667a16.7,16.7,0,0,0-3.063-3.321c-.059-.045-.121-.087-.181-.131v8.3a14.9,14.9,0,0,0,2.2,4.326,26.529,26.529,0,0,1,2.059,2.814,5.513,5.513,0,0,1,.617,1.547c.084.4.146.805.216,1.209a2.233,2.233,0,0,0,.779,1.563,7.607,7.607,0,0,0,3.244,1.135,18.278,18.278,0,0,0,4.5.11c1.483-.112,2.969-.19,4.455-.244,3.049-.111,6.1-.118,9.152-.119,3.01,0,6.032-.139,9.038.1,1.451.116,2.884.344,4.332.492a12.735,12.735,0,0,0,3.911-.177,9.612,9.612,0,0,0,2.877-1.021,3.616,3.616,0,0,0,1.9-2.465,34.031,34.031,0,0,0,.748-3.889,12.144,12.144,0,0,1,.492-1.894l.007-.018V1047.54A19.975,19.975,0,0,0,2431.984,1055.135Z" transform="translate(-2376.623 -1018.945)" fill="#202234" opacity="0.2"/>
      <path id="Path_6487" data-name="Path 6487" d="M2441.488,833.41h-41.74s-7.6-21.954-2.322-64.391c.122-.972.626-1.829,1.59-1.829h42.162c.064,0,.128.006.188.012.894.107,1.25,1.019,1.363,2C2447.121,807.273,2441.488,833.41,2441.488,833.41Z" transform="translate(-2387.624 -759.025)" fill="#fff"/>
      <path id="Path_6488" data-name="Path 6488" d="M2581.389,833.419h-30.152a14.342,14.342,0,0,1,1.778-3.5c1.521-2.2,3.4-4.129,4.188-6.762.351-1.174.368-2.413.777-3.569a5.834,5.834,0,0,1,1.234-2.056,8.8,8.8,0,0,1,4.16-2.258c3.269-.906,6.836-.858,9.965-2.252a5.874,5.874,0,0,0,3.112-2.919c.9-2.026.526-4.462-.012-6.523-.754-2.913-2.24-5.63-2.631-8.645a10.93,10.93,0,0,1,.45-4.9c.567-1.662,1.368-3.229,1.9-4.91a7.766,7.766,0,0,0,.235-4.671,8.428,8.428,0,0,0-2.369-3.533,12.506,12.506,0,0,0-6.528-2.746,69.108,69.108,0,0,0-7.85-.554,18.89,18.89,0,0,1-6.721-1.073,17.293,17.293,0,0,1-5.511-3.891,12.463,12.463,0,0,1-1.175-1.46h34.837a1.859,1.859,0,0,1,.188.012c.876.113,1.088,1.054,1.362,2C2587.022,807.283,2581.389,833.419,2581.389,833.419Z" transform="translate(-2527.525 -759.034)" fill="#202234" opacity="0.1"/>
      <path id="Path_6489" data-name="Path 6489" d="M2620.9,664.361a3,3,0,0,1-.122.858,40.481,40.481,0,0,1-19.015,0,3.011,3.011,0,0,1-.122-.858,3.076,3.076,0,0,1,3.048-3.105h.054a6.778,6.778,0,0,1,.8-2.693,6.491,6.491,0,0,1,11.44,0,6.8,6.8,0,0,1,.808,2.693h.052A3.08,3.08,0,0,1,2620.9,664.361Z" transform="translate(-2578.961 -655.14)" fill="#202c5e"/>
      <path id="Path_6490" data-name="Path 6490" d="M2667.232,661.266h-.052a6.794,6.794,0,0,0-.808-2.694,6.491,6.491,0,0,0-11.44,0c-.038.069-.067.143-.1.213a4.218,4.218,0,0,0,.6-.074,10.842,10.842,0,0,0,2.024-.649c.6-.245,1.194-.522,1.808-.732a7.222,7.222,0,0,1,2.712-.416,3.981,3.981,0,0,1,2.224.715,1.514,1.514,0,0,1,.572.789,1.584,1.584,0,0,1-.13.992.848.848,0,0,0,.1,1.014,2.184,2.184,0,0,0,.908.535,4.866,4.866,0,0,1,1.839.837,1.764,1.764,0,0,1,.577,1.532,1.991,1.991,0,0,1-.84,1.175,6.213,6.213,0,0,1-3.276,1.086c-2.1.165-4.209-.072-6.3.171-.609.071-1.2.21-1.8.34a43.841,43.841,0,0,0,4.81.26,36.14,36.14,0,0,0,9.509-1.133,3.038,3.038,0,0,0,.122-.858A3.081,3.081,0,0,0,2667.232,661.266Z" transform="translate(-2628.345 -655.149)" fill="#202234" opacity="0.15"/>
      <g id="Group_5446" data-name="Group 5446" transform="translate(38.416 59.472)">
        <path id="Path_6491" data-name="Path 6491" d="M2826.391,1471.25a4.881,4.881,0,1,0,4.791,4.88A4.835,4.835,0,0,0,2826.391,1471.25Zm0,9.206a4.329,4.329,0,1,1,4.248-4.326A4.286,4.286,0,0,1,2826.391,1480.457Z" transform="translate(-2821.6 -1471.25)" fill="#232b57"/>
      </g>
      <g id="Group_5447" data-name="Group 5447" transform="translate(0 40.733)">
        <path id="Path_6493" data-name="Path 6493" d="M2385.936,1260.07h-43.124a1.813,1.813,0,0,0-1.762,1.859v11.74a1.813,1.813,0,0,0,1.762,1.859h43.126a1.81,1.81,0,0,0,1.76-1.856v-11.744A1.813,1.813,0,0,0,2385.936,1260.07Z" transform="translate(-2337.015 -1256.721)" fill="#383b4b" opacity="0.35"/>
        <path id="Path_6494" data-name="Path 6494" d="M2331.148,1214.11h-44.673a1.842,1.842,0,0,0-1.825,1.859v11.74a1.842,1.842,0,0,0,1.825,1.859h44.676a1.839,1.839,0,0,0,1.822-1.857v-11.743A1.841,1.841,0,0,0,2331.148,1214.11Z" transform="translate(-2284.65 -1214.11)" fill="#d11313"/>
        <text id="REJECTED-2" data-name="REJECTED" transform="translate(27.48 9.729)" fill="#fff" font-size="6" font-family="Montserrat-SemiBold, Montserrat" font-weight="600"><tspan x="-16" y="0">REJECTED</tspan></text>
      </g>
    </g>
  </g>
  <g id="Group_5508" data-name="Group 5508" transform="translate(141.932 47.618)">
    <path id="Path_4408" data-name="Path 4408" d="M4.385,4.359.858.832A.394.394,0,0,0,.3.832l-.186.186a.394.394,0,0,0,0,.557L3.642,5.1a.394.394,0,0,0,.557,0l.186-.186A.393.393,0,0,0,4.385,4.359Z" transform="translate(0 0)" fill="#fff"/>
    <path id="Path_4409" data-name="Path 4409" d="M3.642.835.115,4.362a.394.394,0,0,0,0,.557L.3,5.1a.394.394,0,0,0,.557,0L4.385,1.578a.393.393,0,0,0,0-.557L4.2.835A.394.394,0,0,0,3.642.835Z" transform="translate(0 -0.003)" fill="#fff"/>
  </g>
</svg>
