<svg id="Relax" xmlns="http://www.w3.org/2000/svg" width="292.043" height="196.253" viewBox="0 0 292.043 196.253">
  <ellipse id="Ellipse_210" data-name="Ellipse 210" cx="146.022" cy="27.804" rx="146.022" ry="27.804" transform="translate(0 140.645)" fill="#f3f3f3"/>
  <path id="Path_6816" data-name="Path 6816" d="M61.15,102.637C37.143,68.507,43.054,7.9,98.387.658S168.74,48.674,214.664,38.429s75.3,9.545,78.85,35.168-3.554,55.839-47.023,57.3-52.173-8.216-77.653-5.592S85.158,136.768,61.15,102.637Z" transform="translate(-29.19)" fill="#fbfbfb"/>
  <path id="Path_6817" data-name="Path 6817" d="M379.417,32.283c11.043,4.354,21.643,2.4,23.677-4.363s-5.269-15.775-16.312-20.129-21.643-2.4-23.677,4.363S368.375,27.929,379.417,32.283Z" transform="translate(-221.696 -3.344)" fill="#fbfbfb"/>
  <g id="Group_5497" data-name="Group 5497" transform="translate(30.629 64.869)">
    <path id="Path_6818" data-name="Path 6818" d="M84.484,53.221Q71.533,81.8,62.913,84.209c-8.62,2.409-6.517-7.377-4.206-14.707S69.264,49.523,76.47,42.277s15.2-10.811,10.339,6.308l-4.455.772Z" transform="translate(-34.633 -22.163)" fill="#6caf4c"/>
    <path id="Path_6819" data-name="Path 6819" d="M56.8,128.829l-.074.066c-.328-3.073.8-7.456,1.978-11.2.252-.8.574-1.66.957-2.571Q60.968,125.075,56.8,128.829Z" transform="translate(-34.633 -70.356)" fill="#041046"/>
    <path id="Path_6820" data-name="Path 6820" d="M72.066,82.851Q57.718,103.42,52.008,119.887" transform="translate(-31.784 -50.633)" fill="none" stroke="#041046" stroke-width="1"/>
    <line id="Line_210" data-name="Line 210" y1="1.73" x2="5.59" transform="translate(33.174 41.245)" fill="none" stroke="#041046" stroke-width="1"/>
    <path id="Path_6821" data-name="Path 6821" d="M34.947,57.845c-8.313.7-10.856-19.49-10.856-34.549S27.438-.659,33.387.038,43.26,57.144,34.947,57.845Z" transform="translate(-14.722 0)" fill="#6caf4c"/>
    <path id="Path_6822" data-name="Path 6822" d="M42.22,10.909q-3.19,37.868,1.834,65.012" transform="translate(-25.044 -6.667)" fill="none" stroke="#041046" stroke-width="1"/>
    <line id="Line_211" data-name="Line 211" y1="4.964" x2="5.242" transform="translate(15.936 21.391)" fill="none" stroke="#041046" stroke-width="1"/>
    <line id="Line_212" data-name="Line 212" x1="3.895" y1="4.455" transform="translate(12.334 13.801)" fill="none" stroke="#041046" stroke-width="1"/>
    <path id="Path_6823" data-name="Path 6823" d="M3.1,89.788l-2.6.735q2.173,10.94,6.064,16.965c3.89,6.025,9.874,6.837,9.371-.836s-4.916-19.538-7.7-23.4S0,70.974,0,88.435Z" transform="translate(0 -47.548)" fill="#6caf4c"/>
    <path id="Path_6824" data-name="Path 6824" d="M14.863,109.243q4.184,18.441,11.693,26.379" transform="translate(-9.083 -66.761)" fill="none" stroke="#041046" stroke-width="1"/>
    <line id="Line_213" data-name="Line 213" x1="4.781" y1="3.058" transform="translate(5.121 52.908)" fill="none" stroke="#041046" stroke-width="1"/>
    <path id="Path_6825" data-name="Path 6825" d="M20.326,180.271H44.06l-3.043,28.973a26.17,26.17,0,0,1-8.371,1.254,35.389,35.389,0,0,1-9.277-1.254Z" transform="translate(-12.422 -110.169)" fill="#d8d8d8"/>
    <path id="Path_6826" data-name="Path 6826" d="M32.041,179.225c6.638,0,12.019-.819,12.019-1.83s-5.381-1.83-12.019-1.83-11.715.819-11.715,1.83S25.4,179.225,32.041,179.225Z" transform="translate(-12.422 -107.293)" fill="#041046"/>
  </g>
  <path id="Path_6827" data-name="Path 6827" d="M14.743,3.64A3.8,3.8,0,0,0,7.389,2.445,3.8,3.8,0,0,0,.041,3.535c-.573,3.33,5,8.417,6.718,9.89a.765.765,0,0,0,.989.008C9.5,11.973,15.27,6.9,14.743,3.64Z" transform="translate(82.879 63.521) rotate(-27)" fill="#ff6868" opacity="0.2"/>
  <path id="Path_6828" data-name="Path 6828" d="M391.2,104.339a3.844,3.844,0,0,0-7.4-1.177,3.845,3.845,0,0,0-7.393,1.071c-.576,3.275,5.037,8.28,6.761,9.729a.784.784,0,0,0,.995.008C385.933,112.535,391.734,107.542,391.2,104.339ZM360.977,58.791a2.307,2.307,0,0,0-4.452-.718,2.307,2.307,0,0,0-4.447.653c-.346,2,3.03,5.051,4.068,5.935a.466.466,0,0,0,.6,0C357.806,63.79,361.3,60.745,360.977,58.791ZM304.208,6.27A5.274,5.274,0,0,1,299.9,4.814a1.512,1.512,0,0,0-1.5,1.413c-.226,1.332,1.976,3.367,2.653,3.957a.3.3,0,0,0,.39,0C302.14,9.6,304.416,7.573,304.208,6.27Zm108.885,23.3a4.936,4.936,0,0,1-4.018-1.352,1.408,1.408,0,0,0-1.4,1.312c-.211,1.237,1.844,3.127,2.476,3.674a.28.28,0,0,0,.364,0C411.163,32.666,413.288,30.78,413.093,29.571ZM296.432,37.348A4.936,4.936,0,0,1,292.413,36a1.408,1.408,0,0,0-1.4,1.312c-.211,1.237,1.844,3.127,2.476,3.674a.28.28,0,0,0,.364,0C294.5,40.443,296.626,38.558,296.432,37.348Z" transform="translate(-177.838 -2.942)" fill="#ff6868" opacity="0.2"/>
  <g id="Group_5505" data-name="Group 5505" transform="translate(49.432 30.636)">
    <path id="Path_6829" data-name="Path 6829" d="M189.468,352.1q-16.784,10.083-28.606,10.083c-11.822,0-17.1-.344-21.069.766s-6.612,1.217-6.612-1.511q0-2.728,5.128-2.634a18.007,18.007,0,0,1,10.116-5.549q6.054-1.156,34.37-11.069h9.7Z" transform="translate(-81.39 -209.122)" fill="#ffa798"/>
    <path id="Path_6830" data-name="Path 6830" d="M93.368,258.973q-3.224,3.667-16.555,7.685c-13.331,4.019-35.147,1.806-45.4,11.652s0,25.319,18.932,25.319q18.932,0,60.671,7.7,4.538-7.571,1.459-16.875l7.005-1.784,3.337,12.525a386.975,386.975,0,0,1,42.081-5.528c10.122-.731,20.5-3.156,25.509-8.11,4.8-4.75,5.469-15.119-3.063-19.563l-25.828-7.747q-31.167,3.032-34.933-5.276Z" transform="translate(-16.725 -158.266)" fill="#3e3e49"/>
    <path id="Path_6831" data-name="Path 6831" d="M244.265,367.021a27.125,27.125,0,0,1,5.78.21c7.757,1.562,7.816,2.341,12.3,2.9s20.641-1.527,26.344-.763,7.925.763,7.925-2.139-5.122-3.2-6.837-3.9-12.281-2.063-17.078-6.964-9.709-2.107-11.983-1.054c-1.416.656-5.324-.38-15.416-3.189a45.275,45.275,0,0,1,.674,7.725A24.707,24.707,0,0,1,244.265,367.021Z" transform="translate(-149.277 -215.192)" fill="#ffa798"/>
    <path id="Path_6832" data-name="Path 6832" d="M155.134,258.973q3.4,7.5,29.11,5.76-21.163,8.9-24.394,20.419l.467-.17h0l.93-.335.462-.165.92-.324h0l.914-.317h0l.907-.31h0l.9-.3q.673-.224,1.339-.44l.885-.284h0l.878-.277h0l.872-.27h0l.865-.262h0l.859-.255.427-.125.849-.244q.846-.241,1.679-.467l.83-.223q1.033-.274,2.046-.524l.807-.2a90.761,90.761,0,0,1,15.121-2.439l.668-.041q1.33-.074,2.608-.091l.244,0-.1.006q-7.021.392-18.872,4.2l-.956.31h0l-.971.321h0l-.987.332h0l-1,.343-.507.176-1.025.359-1.041.37-1.056.381q-1.6.58-3.262,1.21l-1.118.425-.565.217-1.141.442h0l-1.157.452-1.172.463-1.188.474-.6.241-1.211.491h0l-1.226.5h0l-1.242.513h0l-1.257.524h0l-1.273.534h0l-1.288.545h0l-1.3.556h0l-1.319.567h0l-1.453.63-7.005,1.784c-2.572.316-6.219-.3-10.5-1.475l-.631-.175-.319-.09-.644-.187h0l-.652-.194h0l-.66-.2h0l-.667-.207-.337-.106-.678-.217h0l-.685-.223-.345-.114-.695-.231h0l-.7-.237h0l-1.062-.364h0l-.715-.249h0l-.72-.253h0l-.725-.257h0l-1.1-.393h0l-1.474-.536h0l-.742-.273h0l-1.493-.553h0l-1.5-.561h0l-2.645-1h0l-3.977-1.506-1.661-.627h0q-13.813-5.2-31.626-3.112,16.479-4.14,38.235,1.934.667-9.325-9.908-15.627c1.023-.228,2.01-.482,2.955-.767l.581-.176h0l.571-.176h0l.562-.176h0l.824-.263h0l.537-.175.265-.087.523-.174h0l.765-.261h0l.5-.174h0l.488-.173h0l.479-.173h0l.469-.173h0l.459-.172h0l.449-.172h0l.44-.172h0l.43-.171.211-.085.415-.171h0l.405-.17h0l.4-.17h0l.386-.17h0l.376-.169h0l.366-.169h0l.357-.169h0l.347-.168h0l.337-.168h0l.327-.168h0l.317-.167.155-.083.3-.167.293-.166.283-.166h0l.274-.166q.269-.166.518-.331l.244-.165h0l.234-.164a10.071,10.071,0,0,0,1.6-1.384l.072-.081ZM200.325,277.2q-1.651-.116-3.4-.12l-.6,0,.223-.011A21.244,21.244,0,0,1,200.325,277.2Z" transform="translate(-45.27 -158.266)" fill="#33343e"/>
    <g id="Group_5498" data-name="Group 5498" transform="translate(185.395 120.045) rotate(180)">
      <path id="Path_6833" data-name="Path 6833" d="M80.786,79.846c-5.436-1.685-10.067-.918-13.083-3.171C62.3,72.643,61.754,57,60.919,50.651s-1.677-14.8-3.884-17.783Q54.861,29.93,28.12,11.379h0a1.556,1.556,0,0,0-1.551-.129A12.8,12.8,0,0,1,21.3,12.1c-4.278,0-9.169-.241-12.174,1.722s-2.17-2.526,0-3.7A23.143,23.143,0,0,1,12.5,8.554a18.113,18.113,0,0,0-9.31-.477c-4.922.969-3.7-1.742.674-2.453q4.376-.711,8.218-1.045Q20.952,0,23.663,0T32,3.689l19.167,8.52a38.887,38.887,0,0,1,21.44,24.32l.05.165h0Z" transform="translate(0 1.105)" fill="#ffa798"/>
      <path id="Path_6834" data-name="Path 6834" d="M12.7,42.805a16.45,16.45,0,0,1,5.521-6.516L15.35,21.061,15.3,20.9A38.888,38.888,0,0,0,0,0C9.72,9.71,11.717,17.222,10.724,25.5l-.031.251Q9.439,35.629,12.7,42.805Z" transform="translate(57.311 16.738)" fill="#e08f81" opacity="0.5"/>
      <path id="Path_6835" data-name="Path 6835" d="M6.986,6.314A4.813,4.813,0,0,0,5.05,7.789L2.616,11.2A3.007,3.007,0,0,1,.732,12.4a.617.617,0,0,1-.675-.866l2.379-5.1a5.444,5.444,0,0,1,3.5-2.953l2.366-.645h0Q9.3.269,14.254.711q2.475-1.76,8.13.835" transform="translate(3.652 0)" fill="#ffa698" stroke="#eb8776" stroke-width="1"/>
      <path id="Path_6836" data-name="Path 6836" d="M2.917,0,.055,7.4A.814.814,0,0,0,.989,8.493,2.975,2.975,0,0,0,3.077,6.778l2.5-5.73h0L8.3,0" transform="translate(9.04 2.833)" fill="#ffa698" stroke="#eb8776" stroke-width="1"/>
      <path id="Path_6837" data-name="Path 6837" d="M3.791,0,.091,5.751a.57.57,0,0,0,.6.864,4.74,4.74,0,0,0,2.334-1.3L5.72,2.579h0a16.953,16.953,0,0,0,6.2.87" transform="translate(14.115 0.711)" fill="#ffa698" stroke="#eb8776" stroke-width="1"/>
      <path id="Path_6838" data-name="Path 6838" d="M0,1.518A17.8,17.8,0,0,1,11.446.508" transform="translate(12.496 8.142)" fill="none" stroke="#eb8776" stroke-linecap="round" stroke-width="1"/>
      <line id="Line_214" data-name="Line 214" y1="4.054" x2="7.524" transform="translate(12.496 5.605)" fill="none" stroke="#eb8776" stroke-linecap="round" stroke-width="1"/>
    </g>
    <path id="Path_6839" data-name="Path 6839" d="M207.531,59.976q-7.245,15.723,0,22.5c7.245,6.774,5.386-19.528,4.522-21.953Q211.188,58.094,207.531,59.976Z" transform="translate(-124.614 -36.15)" fill="#33143f"/>
    <path id="Path_6840" data-name="Path 6840" d="M3.623,23.608q-7.245-15.723,0-22.5c7.245-6.774,5.386,19.528,4.522,21.953Q7.279,25.49,3.623,23.608Z" transform="translate(105.807 47.433) rotate(180)" fill="#33143f"/>
    <path id="Path_6841" data-name="Path 6841" d="M89.358,93.031a84.858,84.858,0,0,1-8.9,4.017c-5.217,1.777-9.191,2.227-11.709,3.824-5.7,3.613-7,17.915-7.834,24.269s-1.677,14.8-3.884,17.783q-2.182,2.95-27.532,21.2h0a1.556,1.556,0,0,1-1.243.257A32.462,32.462,0,0,0,21.3,163.7c-4.278,0-9.169.241-12.174-1.722s-2.17,2.526,0,3.7a23.142,23.142,0,0,0,3.373,1.569,18.113,18.113,0,0,1-9.31.477c-4.922-.969-3.7,1.742.674,2.453q4.376.711,8.218,1.045,8.874,4.579,11.585,4.579T32,172.1l19.167-8.52a38.887,38.887,0,0,0,21.44-24.32l.05-.165h0a42.156,42.156,0,0,1,3.982,18.461q4.591,8.122,15.676,8.122t17.544-8.122q-1.4-11.393,1.345-15.644c2.749-4.251,6.3-11.613,1.259-19.967q-5.037-8.354-2.6-24.9A32.147,32.147,0,0,1,98.609,93.5Z" transform="translate(0 -56.854)" fill="#f4a28c"/>
    <path id="Path_6842" data-name="Path 6842" d="M165.73,152.523a13.671,13.671,0,0,0,5.73,4.36l.233.093,7.8,4.275L172.6,180.506a38.928,38.928,0,0,0-1.806-4.64l-.193-.408-.05.165a38.882,38.882,0,0,1-10.288,16.822c4.726-6.239,7.564-14.432,6.216-20.041l-.044-.176A50.075,50.075,0,0,1,165.73,152.523Z" transform="translate(-97.944 -93.211)" fill="#e08f81" opacity="0.5"/>
    <g id="Group_5504" data-name="Group 5504" transform="translate(79.582 0)">
      <path id="Path_6843" data-name="Path 6843" d="M19.389,80.782h11.9V92.04a5.949,5.949,0,0,1-11.9,0V80.782Z" transform="translate(-11.849 -49.368)" fill="#f4a28c"/>
      <path id="Path_6844" data-name="Path 6844" d="M31.287,80.782v1.243q-2.169,4.959-11.9,5.066V80.782Z" transform="translate(-11.849 -49.368)" fill="#e08f81"/>
      <path id="Path_6845" data-name="Path 6845" d="M.276,19.5Q-.76,8.1,2.095,4.443C4.949.788,7.827-.332,12.989.081s9.044,3.735,9.889,7.192A45.984,45.984,0,0,1,23.625,17.9l-2,5.961L1.441,21.6Z" transform="translate(2.081 0) rotate(2)" fill="#33143f"/>
      <path id="Path_6846" data-name="Path 6846" d="M14.125,14.816c-4.866,0-9.718.576-9.913,6.836q-.194,6.26-.9,6.665Q2.093,25.939,1.1,26.176c-.992.237-1.4,1.862-.867,3.518s2.25,5.221,4.176,5.221a13.138,13.138,0,0,0,6.845,9.138,6.569,6.569,0,0,0,3.337.617c1.351-.2,5.058-.947,8.107-9.755A2.6,2.6,0,0,0,24.8,33.188c.7-1.566,1.67-3.494,1.638-5.419s-2.163-2.752-2.983,0a20.448,20.448,0,0,1-.594-6.117C22.866,17.111,18.991,14.816,14.125,14.816Z" transform="translate(0 -9.054)" fill="#f4a28c"/>
      <g id="Group_5501" data-name="Group 5501" transform="translate(6.611 14.4)">
        <path id="Path_6847" data-name="Path 6847" d="M0,.9A6.6,6.6,0,0,1,5.217.226" transform="translate(0 0.548)" fill="none" stroke="#3e3e49" stroke-linecap="round" stroke-width="1"/>
        <g id="Group_5499" data-name="Group 5499" transform="translate(13.999 3.688) rotate(180)">
          <path id="Path_6848" data-name="Path 6848" d="M0,0A6.6,6.6,0,0,0,5.217.678" transform="translate(0 2.237)" fill="none" stroke="#3e3e49" stroke-linecap="round" stroke-width="1"/>
          <path id="Path_6849" data-name="Path 6849" d="M4.81.524A5.784,5.784,0,0,0,0,.524m12.976,0a5.784,5.784,0,0,0-4.81,0" transform="translate(0.332)" fill="none" stroke="#ce7768" stroke-linecap="round" stroke-width="1"/>
        </g>
        <path id="Path_6850" data-name="Path 6850" d="M12.594,23.242a3.092,3.092,0,0,0,3.96,0q-.782,1.472-1.929,1.472A2.47,2.47,0,0,1,12.594,23.242Z" transform="translate(-7.697 -14.204)" fill="#eb8776"/>
        <g id="Group_5500" data-name="Group 5500" transform="translate(3.5 13.222)">
          <path id="Path_6851" data-name="Path 6851" d="M0,0A7.6,7.6,0,0,0,7,0,6.092,6.092,0,0,1,3.269,1.165,4.828,4.828,0,0,1,0,0Z" fill="#eb8776" opacity="0.3"/>
          <path id="Path_6852" data-name="Path 6852" d="M0,0A8.264,8.264,0,0,0,7,0" fill="none" stroke="#ce7768" stroke-linecap="round" stroke-width="1"/>
        </g>
      </g>
      <g id="Group_5502" data-name="Group 5502" transform="translate(1.534 18.553)">
        <path id="Path_6853" data-name="Path 6853" d="M1.624,0Q3.316,2.348,2.752,4.165" transform="translate(-0.992 0)" fill="none" stroke="#ce7768" stroke-linecap="round" stroke-width="1"/>
        <line id="Line_215" data-name="Line 215" x1="1.9" y1="1.095" transform="translate(0 2.083)" fill="none" stroke="#ce7768" stroke-linecap="round" stroke-width="1"/>
      </g>
      <g id="Group_5503" data-name="Group 5503" transform="translate(25.211 22.718) rotate(180)">
        <path id="Path_6854" data-name="Path 6854" d="M0,4.165Q1.692,1.817,1.128,0" transform="translate(0.631 0)" fill="none" stroke="#ce7768" stroke-linecap="round" stroke-width="1"/>
        <line id="Line_216" data-name="Line 216" x1="1.9" y2="1.095" transform="translate(0 0.988)" fill="none" stroke="#ce7768" stroke-linecap="round" stroke-width="1"/>
      </g>
      <path id="Path_6855" data-name="Path 6855" d="M25.676,9.538Q20.075,17,8.832,17L10.4,9.538l8.222-4.012Z" transform="translate(-5.397 -3.377)" fill="#33143f"/>
      <path id="Path_6856" data-name="Path 6856" d="M49,13.76q.788,3.087,1.223,4.3c.89,2.477,2.6,4.377,3.033,6.976l-.551-10.5Z" transform="translate(-29.947 -8.409)" fill="#33143f"/>
      <path id="Path_6857" data-name="Path 6857" d="M26.057,17.02a17.218,17.218,0,0,1-6.048,5.608,14.751,14.751,0,0,1-9.159,1.4" transform="translate(-6.63 -10.401)" fill="#33143f" stroke="#33143f" stroke-width="1"/>
    </g>
    <path id="Path_6858" data-name="Path 6858" d="M203.846,101.1l-.162.984h0l-.215,1.339h0l-.151.973h0l-.143.947h0l-.134.92h0l-.125.893h0l-.079.581h0l-.111.849h0l-.069.551h0l-.065.539h0l-.091.786h0l-.056.509h0l-.052.5h0l-.048.486h0l-.044.474h0l-.04.462h0l-.037.45h0l-.033.438h0l-.029.426h0l-.025.414h0l-.021.4h0l-.017.391h0l-.014.379h0l-.01.367q0,.09,0,.179l0,.349q0,.086,0,.17l0,.331h0l.005.319h0l.009.307h0l.013.3h0l.017.284q.009.139.021.272l.025.26a4.965,4.965,0,0,0,.631,2.246c1.842,2.609,6.412,5.039,19.99,2.945l.414-.065q10.981-1.744-.507,5.334l-.6.364h0l-.625.375-.323.192-.668.392h0l-.7.4h0l-.726.415h0l-.755.426h0l-.783.438h0l-.812.449-.417.229-.855.466-.438.237-16.769-8.074,2.767-23.51q.3-.1.612-.2l.29-.1h0l.31-.114h0l.33-.126h0l.351-.139h0l.371-.151h0l.391-.163Z" transform="translate(-121.138 -61.782)" fill="#e08f81"/>
    <path id="Path_6859" data-name="Path 6859" d="M201.856,188.279l25.139,14.133a14.452,14.452,0,0,0-.353,1.4q-8.524,5.595-20.948,6.538l-.4.029c-12.883.9-6.4,7.228,7.652,13.25a27.168,27.168,0,0,1-3.814.26q-11.086,0-15.676-8.122a43.656,43.656,0,0,0-2.311-14.4Z" transform="translate(-116.816 -115.062)" fill="#e08f80" opacity="0.5"/>
    <path id="Path_6860" data-name="Path 6860" d="M16.382,282.878a5.5,5.5,0,0,1-1.941-1.475L12.008,278a3.007,3.007,0,0,0-1.884-1.206.617.617,0,0,0-.675.866l2.379,5.1a5.444,5.444,0,0,0,3.5,2.953l2.366.645h0q1,2.564,5.948,2.122,2.475,1.76,8.13-.835" transform="translate(-5.74 -169.147)" fill="#ffa698" stroke="#eb8776" stroke-width="1"/>
    <path id="Path_6861" data-name="Path 6861" d="M26.165,288.037l-2.862-7.4a.814.814,0,0,1,.934-1.089,2.975,2.975,0,0,1,2.088,1.715l2.5,5.73h0l2.72,1.048" transform="translate(-14.207 -170.825)" fill="#ffa698" stroke="#eb8776" stroke-width="1"/>
    <path id="Path_6862" data-name="Path 6862" d="M40.087,296.452l-3.7-5.751a.57.57,0,0,1,.6-.864,4.74,4.74,0,0,1,2.334,1.3l2.691,2.736h0a16.953,16.953,0,0,1,6.2-.87" transform="translate(-22.182 -177.119)" fill="#ffa698" stroke="#eb8776" stroke-width="1"/>
    <path id="Path_6863" data-name="Path 6863" d="M187.732,102.39c-1.815,8.8-3.315,14.179-4.5,16.25-5.727,10.034-5.537,13.477-4.885,17.583,1.228,7.729,3.642,6.353,5.785,15.1q18.062,6.506,34.37-.328a38.747,38.747,0,0,1,3.562-8.188c3.546-6.58,2.2-11.934-.8-18.518q-3.059-6.71-3.558-22.589L214,100.963q.877,15.288-.051,17.677c-.954,2.456-1.5,6.559-12.2,6.559s-13.1-3.16-12.94-7.74a133.78,133.78,0,0,1,2.361-16.314Z" transform="translate(-108.799 -61.702)" fill="#d11313"/>
    <path id="Path_6864" data-name="Path 6864" d="M227.563,218.67a35.7,35.7,0,0,0-1.57,4.255q-16.307,6.834-34.37.328c-.14-.57-.281-1.1-.422-1.588l-.122-.411q-.152-.5-.305-.951l-.122-.352h0l-.123-.337-.061-.163-.123-.315-.061-.153q6.153,2.936,15.937,3.305a59.316,59.316,0,0,0,21.213-3.576Z" transform="translate(-116.287 -133.635)" fill="#e45a5a"/>
    <path id="Path_6865" data-name="Path 6865" d="M32.135,283.859q7.968,3.481,13.159,2.026m-13.159-2.026q7.686,4.514,8.486,4.514" transform="translate(-19.638 -173.474)" fill="none" stroke="#ce7768" stroke-linecap="round" stroke-width="1"/>
  </g>
</svg>
