<svg width="292" height="330" viewBox="0 0 292 330" fill="none" xmlns="http://www.w3.org/2000/svg">
<g clip-path="url(#clip0_107_5)">
<path d="M120.366 0L145.793 46.9026L156.624 0H120.366Z" fill="#FFD325"/>
<path d="M74.2214 40.0487L101.534 55.0719L74.2611 10.8217L74.2214 40.0487Z" fill="#FFD325"/>
<path d="M74.4269 62.0803L88.085 66.5945L74.2611 51.9954L74.4269 62.0803Z" fill="#FFD325"/>
<path d="M74.2611 102.686L89.776 88.7375L74.2611 91.9757V102.686Z" fill="#FFD325"/>
<path d="M74.2611 82.7606L88.2328 80.0075L74.1096 70.5623L74.2611 82.7606Z" fill="#FFD325"/>
<path d="M75.1661 0L120.366 44.3687L111.42 0H75.1661Z" fill="#FFD325"/>
<path d="M126.896 94.9732C149.396 94.9732 167.635 76.7918 167.635 54.3639C167.635 31.9359 149.396 13.7545 126.896 13.7545C104.396 13.7545 86.156 31.9359 86.156 54.3639C86.156 76.7918 104.396 94.9732 126.896 94.9732Z" fill="#FFF3EB"/>
<path d="M126.896 96.1305C103.791 96.1305 84.995 77.3946 84.995 54.3639C84.995 31.3331 103.791 12.5972 126.896 12.5972C150 12.5972 168.796 31.3331 168.796 54.3639C168.796 77.3946 150 96.1305 126.896 96.1305ZM126.896 14.9118C105.071 14.9118 87.317 32.609 87.317 54.3639C87.317 76.1188 105.071 93.8159 126.896 93.8159C148.72 93.8159 166.474 76.1188 166.474 54.3639C166.474 32.609 148.72 14.9118 126.896 14.9118Z" fill="#161742"/>
<path d="M142.53 85.4705C141.92 84.4282 142.274 83.0913 143.319 82.4839C144.365 81.8765 145.706 82.2287 146.315 83.271C146.925 84.3132 146.571 85.6502 145.526 86.2576C144.48 86.865 143.139 86.5128 142.53 85.4705Z" fill="#FFD325"/>
<path d="M107.476 25.4568C106.867 24.4145 107.22 23.0775 108.266 22.4701C109.311 21.8627 110.652 22.2149 111.262 23.2572C111.871 24.2995 111.518 25.6365 110.472 26.2439C109.427 26.8513 108.085 26.4991 107.476 25.4568Z" fill="#FFD325"/>
<path d="M158.102 38.78C157.057 39.3874 155.715 39.0352 155.106 37.9929C154.497 36.9506 154.85 35.6137 155.896 35.0063C156.941 34.3989 158.282 34.7511 158.892 35.7934C159.501 36.8356 159.148 38.1726 158.102 38.78Z" fill="#FFD325"/>
<path d="M97.8958 73.7216C96.8502 74.3289 95.5089 73.9767 94.8996 72.9345C94.2902 71.8922 94.6436 70.5552 95.6892 69.9478C96.7348 69.3404 98.0761 69.6926 98.6854 70.7349C99.2948 71.7772 98.9414 73.1142 97.8958 73.7216Z" fill="#FFD325"/>
<path d="M155.997 73.5742C154.947 72.974 154.587 71.637 155.189 70.5911C155.791 69.5453 157.132 69.1859 158.182 69.7861C159.231 70.3863 159.591 71.7233 158.989 72.7691C158.387 73.815 157.046 74.1744 155.997 73.5742Z" fill="#FFD325"/>
<path d="M95.6099 38.9418C94.5606 38.3416 94.2001 37.0046 94.8022 35.9587C95.4043 34.9128 96.7456 34.5534 97.7949 35.1536C98.8441 35.7538 99.2046 37.0908 98.6025 38.1367C98.0004 39.1826 96.6591 39.542 95.6099 38.9418Z" fill="#FFD325"/>
<path d="M146.168 25.3562C145.566 26.4021 144.224 26.7615 143.175 26.1613C142.126 25.561 141.765 24.2241 142.367 23.1782C142.969 22.1323 144.311 21.7729 145.36 22.3731C146.409 22.9733 146.77 24.3103 146.168 25.3562Z" fill="#FFD325"/>
<path d="M111.424 85.5496C110.822 86.5955 109.481 86.9549 108.431 86.3547C107.382 85.7545 107.022 84.4175 107.624 83.3716C108.226 82.3257 109.567 81.9663 110.616 82.5665C111.666 83.1667 112.026 84.5037 111.424 85.5496Z" fill="#FFD325"/>
<path d="M161.729 56.5491C160.518 56.5491 159.537 55.5715 159.537 54.3639C159.537 53.1563 160.518 52.1787 161.729 52.1787C162.941 52.1787 163.922 53.1563 163.922 54.3639C163.922 55.5715 162.941 56.5491 161.729 56.5491Z" fill="#FFD325"/>
<path d="M92.0655 56.5491C90.8541 56.5491 89.8733 55.5715 89.8733 54.3639C89.8733 53.1563 90.8541 52.1787 92.0655 52.1787C93.277 52.1787 94.2578 53.1563 94.2578 54.3639C94.2578 55.5715 93.277 56.5491 92.0655 56.5491Z" fill="#FFD325"/>
<path d="M129.088 19.6416C129.088 20.8492 128.107 21.8268 126.896 21.8268C125.684 21.8268 124.703 20.8492 124.703 19.6416C124.703 18.434 125.684 17.4564 126.896 17.4564C128.107 17.4564 129.088 18.434 129.088 19.6416Z" fill="#FFD325"/>
<path d="M129.088 89.0862C129.088 90.2938 128.107 91.2714 126.896 91.2714C125.684 91.2714 124.703 90.2938 124.703 89.0862C124.703 87.8786 125.684 86.901 126.896 86.901C128.107 86.901 129.088 87.8786 129.088 89.0862Z" fill="#FFD325"/>
<path d="M127.725 55.1402C127.956 55.1402 128.179 55.0216 128.305 54.806C128.489 54.4861 128.378 54.08 128.06 53.9003L107.717 42.2663C107.397 42.083 106.989 42.1944 106.809 42.5107C106.625 42.8305 106.737 43.2367 107.054 43.4164L127.397 55.0504C127.501 55.1115 127.617 55.1402 127.729 55.1402H127.725Z" fill="#161742"/>
<path d="M126.831 55.9453H126.679C125.817 55.9453 125.118 56.6421 125.118 57.5015V73.9013C125.118 74.7607 125.817 75.4575 126.679 75.4575H126.831C127.693 75.4575 128.392 74.7607 128.392 73.9013V57.5015C128.392 56.6421 127.693 55.9453 126.831 55.9453Z" fill="#32B353"/>
<path d="M122.607 53.0196L112.073 60.775C110.973 61.5852 110.74 63.1312 111.553 64.2281L111.692 64.416C112.505 65.5129 114.056 65.7453 115.156 64.9352L125.69 57.1797C126.79 56.3695 127.023 54.8236 126.21 53.7267L126.071 53.5387C125.258 52.4419 123.708 52.2094 122.607 53.0196Z" fill="#FFD325"/>
<path d="M126.647 56.1681C127.505 56.1681 128.049 56.8798 128.057 57.6812C128.057 58.0083 128.057 58.3354 128.057 58.6624V62.7561C128.057 65.9548 128.057 69.1535 128.057 72.3486C128.057 73.4412 128.28 75.2275 126.647 75.2275C126.358 75.2275 126.355 75.6767 126.647 75.6767C127.689 75.6767 128.475 74.8249 128.507 73.815C128.515 73.5634 128.507 73.3118 128.507 73.0638C128.507 71.6586 128.507 70.2533 128.507 68.848C128.507 65.4624 128.507 62.0732 128.507 58.6876C128.507 58.3282 128.515 57.9688 128.507 57.6093C128.482 56.5886 127.703 55.7189 126.647 55.7189C126.358 55.7189 126.355 56.1681 126.647 56.1681Z" fill="#161742"/>
<path d="M126.809 57.4404C128.651 57.4404 130.144 55.952 130.144 54.1159C130.144 52.2798 128.651 50.7914 126.809 50.7914C124.967 50.7914 123.474 52.2798 123.474 54.1159C123.474 55.952 124.967 57.4404 126.809 57.4404Z" fill="#1D478E"/>
<path d="M129.477 107.624C129.477 107.624 125.432 110.341 126.495 115.255C127.956 122.008 137.089 126.055 137.089 126.055L146.925 121.375L142.876 103.391L129.477 107.624Z" fill="#F7B386"/>
<path d="M131.637 112.897C132.647 112.53 133.202 111.301 132.877 110.155L128.713 95.4153C128.388 94.2687 127.307 93.6362 126.297 94.0064C125.288 94.373 124.732 95.6021 125.057 96.7486L129.221 111.488C129.546 112.634 130.627 113.267 131.637 112.897Z" fill="#F7B386"/>
<path d="M136.072 111.934C137.182 111.445 137.731 110.025 137.301 108.767L135.261 102.79C134.832 101.529 133.584 100.903 132.474 101.396C131.363 101.885 130.815 103.304 131.244 104.562L133.285 110.539C133.714 111.801 134.961 112.426 136.072 111.937V111.934Z" fill="#F7B386"/>
<path d="M139.865 111.355C140.907 110.895 141.423 109.565 141.019 108.383L139.101 102.769C138.697 101.586 137.525 100.997 136.483 101.457C135.441 101.917 134.925 103.247 135.329 104.429L137.247 110.043C137.651 111.226 138.823 111.815 139.865 111.355Z" fill="#F7B386"/>
<path d="M142.353 110.996C143.323 110.783 143.957 109.716 143.77 108.616L142.879 103.39C142.692 102.291 141.754 101.568 140.784 101.784C139.815 101.996 139.18 103.063 139.367 104.163L140.258 109.389C140.446 110.489 141.383 111.211 142.353 110.996Z" fill="#F7B386"/>
<path d="M132.513 111.093C132.333 111.093 132.167 110.956 132.12 110.751L130.476 103.764C130.418 103.516 130.548 103.265 130.765 103.2C130.984 103.132 131.204 103.283 131.262 103.527L132.906 110.514C132.964 110.762 132.834 111.013 132.618 111.078C132.582 111.089 132.546 111.093 132.513 111.093Z" fill="#161742"/>
<path d="M136.606 110.55C136.422 110.55 136.256 110.41 136.209 110.198L134.651 103.067C134.597 102.819 134.731 102.567 134.947 102.506C135.167 102.445 135.387 102.596 135.441 102.844L136.999 109.975C137.053 110.223 136.919 110.474 136.703 110.536C136.671 110.543 136.638 110.55 136.606 110.55Z" fill="#161742"/>
<path d="M140.258 109.849C140.067 109.849 139.898 109.694 139.858 109.475L138.967 104.249C138.924 103.998 139.068 103.757 139.288 103.707C139.497 103.66 139.721 103.822 139.764 104.073L140.655 109.299C140.698 109.551 140.554 109.792 140.334 109.842C140.309 109.849 140.283 109.849 140.254 109.849H140.258Z" fill="#161742"/>
<path d="M129.762 113.939C129.589 113.939 129.43 113.813 129.373 113.616L128.089 109.001C128.021 108.756 128.14 108.498 128.356 108.422C128.572 108.343 128.799 108.48 128.868 108.724L130.152 113.339C130.22 113.583 130.101 113.842 129.885 113.917C129.845 113.932 129.802 113.939 129.762 113.939Z" fill="#161742"/>
<path d="M247.334 222.735H251.621L277.03 110.805H272.742L247.334 222.735Z" fill="#161742"/>
<path opacity="0.27" d="M145.998 330C226.631 330 291.996 323.815 291.996 316.184C291.996 308.554 226.631 302.369 145.998 302.369C65.3656 302.369 0 308.554 0 316.184C0 323.815 65.3656 330 145.998 330Z" fill="#FFD325"/>
<path d="M202.823 79.5762C202.823 79.5762 201.824 95.1169 198.763 96.5546C195.701 97.9886 215.622 96.303 215.622 96.303L216.556 77.3622L202.823 79.5762Z" fill="#161742"/>
<path d="M125.089 313.471H131.313L150.231 222.735H139.432L125.089 313.471Z" fill="#161742"/>
<path d="M189.312 163.76L167.315 157.941C167.315 157.941 180.81 109.659 183.944 106.995L189.312 163.76Z" fill="#1D478E"/>
<path d="M251.621 223.033H187.899C187.812 223.033 187.729 222.99 187.672 222.918C187.618 222.846 187.596 222.753 187.618 222.663L213.026 110.733C213.055 110.6 213.174 110.503 213.308 110.503H277.03C277.116 110.503 277.199 110.546 277.257 110.615C277.311 110.686 277.332 110.78 277.311 110.87L251.902 222.8C251.873 222.933 251.754 223.03 251.621 223.03V223.033ZM188.263 222.437H251.394L276.669 111.103H213.538L188.263 222.437Z" fill="#161742"/>
<path d="M251.621 223.159H187.899C187.773 223.159 187.65 223.098 187.574 222.997C187.499 222.897 187.47 222.767 187.499 222.642L212.907 110.712C212.951 110.521 213.117 110.385 213.308 110.385H277.03C277.156 110.385 277.278 110.446 277.354 110.546C277.43 110.647 277.459 110.776 277.43 110.902L252.021 222.832C251.978 223.023 251.812 223.159 251.621 223.159ZM213.308 110.633C213.232 110.633 213.167 110.686 213.149 110.765L187.74 222.696C187.729 222.749 187.74 222.807 187.773 222.846C187.805 222.886 187.852 222.911 187.899 222.911H251.621C251.697 222.911 251.761 222.857 251.779 222.778L277.188 110.848C277.199 110.794 277.188 110.737 277.156 110.697C277.123 110.658 277.076 110.633 277.03 110.633H213.308ZM251.394 222.563H188.263C188.227 222.563 188.191 222.545 188.166 222.516C188.144 222.487 188.133 222.448 188.141 222.412L213.416 111.078C213.427 111.021 213.477 110.981 213.538 110.981H276.669C276.705 110.981 276.741 110.999 276.766 111.028C276.788 111.057 276.799 111.096 276.792 111.132L251.516 222.465C251.505 222.523 251.455 222.563 251.394 222.563ZM188.418 222.315H251.296L276.514 111.226H213.636L188.418 222.315Z" fill="#161742"/>
<path d="M178.189 223.033H134.053C133.894 223.033 133.764 222.9 133.764 222.735V215.741C133.764 215.576 133.894 215.443 134.053 215.443H178.189C178.348 215.443 178.477 215.576 178.477 215.741V222.735C178.477 222.9 178.348 223.033 178.189 223.033ZM134.338 222.437H177.901V216.039H134.338V222.437Z" fill="#161742"/>
<path d="M130.534 127.938L160.01 180.904L179.346 169.32L149.874 116.354L130.534 127.938Z" fill="#1D478E"/>
<path d="M133.519 216.686L128.796 288.233C128.655 290.368 129.441 292.931 129.124 294.94C128.644 297.984 125.086 299.515 122.518 300.662C116.266 303.461 109.816 306.053 103.012 306.876C96.7601 307.634 88.4239 306.962 83.5239 302.552C87.6847 298.218 92.0583 293.179 95.4152 288.143C95.9019 287.414 96.3742 286.652 97.0593 286.106C97.5605 285.707 98.1554 285.441 98.7431 285.186C101.624 283.931 104.801 283.159 107.62 281.822C109.372 280.991 109.012 281.387 109.365 279.949C109.884 277.839 109.091 274.623 108.979 272.463C108.731 267.65 108.482 262.838 108.233 258.025L133.516 216.69L133.519 216.686Z" fill="#F7B386"/>
<path d="M129.784 299.034C129.254 300.18 128.212 300.992 127.188 301.733C124.931 303.361 122.573 304.852 120.132 306.193C113.829 309.654 105.727 311.44 98.653 312.608C92.473 313.629 80.7728 315.926 75.8619 310.689C66.4585 300.662 89.1017 288.704 95.6928 286.318C99.064 285.099 103.694 285.642 105.734 288.884C104.011 293.075 101.743 297.042 98.9991 300.651C106.117 302.142 114.871 300.022 121.159 296.64C124.04 295.091 127.563 292.478 128.396 289.125C129.019 290.807 129.315 292.546 129.744 294.271C130.134 295.838 130.494 297.488 129.78 299.03L129.784 299.034Z" fill="#161742"/>
<path d="M225.855 77.3586H212.626V102.373H225.855V77.3586Z" fill="#F7B386"/>
<path d="M76.8355 248.95C75.0579 251.34 74.6649 254.726 71.3405 255.599C67.1652 256.699 62.2039 255.977 57.9746 255.534C54.0336 255.121 49.6961 252.85 46.7828 250.248C44.4319 248.149 42.6652 245.485 41.0354 242.794C39.9321 240.975 36.8818 236.64 38.1834 234.689C39.485 232.737 45.4198 231.709 47.5183 231.221C49.4834 230.761 49.4221 230.117 51.6647 230.387C53.5541 230.613 55.4434 230.843 57.3292 231.07C60.1596 231.411 62.9936 231.753 65.824 232.094L77.2754 213.416C77.2754 213.416 119.169 195.316 119.18 195.312C119.154 195.323 119.118 195.388 119.1 195.413C110.378 206.465 101.656 217.513 92.9345 228.565C88.3374 234.391 83.7402 240.213 79.1431 246.039C78.3751 247.009 77.5782 247.965 76.8391 248.961L76.8355 248.95Z" fill="#F7B386"/>
<path d="M70.8574 260.897C68.2469 261.734 64.7783 261.292 62.5176 260.879C58.8723 260.214 55.3713 258.988 51.8883 257.759C47.987 256.383 44.2444 254.596 40.7001 252.469C36.0272 249.665 31.8267 246.107 28.4122 241.859C24.9544 237.553 22.8848 228.647 29.1297 225.779C36.8745 222.225 51.9279 227.551 58.6272 231.476C58.8147 231.584 53.4495 235.221 52.8906 235.526C51.1059 236.5 40.9345 240.084 39.1064 237.729C45.1999 245.583 56.691 250.941 66.1701 253.353C67.4897 253.687 68.8419 253.932 70.2048 253.989C71.2107 254.032 72.3249 253.942 73.2551 253.525C73.933 253.22 74.9245 252.458 75.2274 251.789C75.0904 252.095 75.2634 253.001 75.249 253.356C75.2166 254.054 75.1264 254.762 75.0002 255.448C74.7406 256.857 74.2611 258.252 73.3164 259.359C72.689 260.092 71.8345 260.581 70.8646 260.893L70.8574 260.897Z" fill="#161742"/>
<path d="M212.626 79.8961V86.9656C218.175 87.6161 225.855 80.543 225.855 80.543L216.812 80.2303L212.626 79.8996V79.8961Z" fill="#161742"/>
<path d="M196.794 64.3913C198.701 52.7285 209.908 42.5178 219.873 44.2717C229.836 46.0256 236.542 55.8626 234.631 67.5253C232.724 79.1881 220.093 85.9737 208.945 85.5064C198.225 85.0536 194.887 76.0576 196.794 64.3913Z" fill="#F7B386"/>
<path d="M178.189 216.686L136.079 216.183L133.422 273.796L104.09 273.045L100.658 208.488C99.9546 195.298 109.798 184.063 122.522 183.527L183.021 183.75L178.193 216.69L178.189 216.686Z" fill="#32B353"/>
<path d="M101.79 227.645C101.736 227.785 101.671 227.925 101.584 228.061C100.723 229.463 98.9883 230.653 97.9247 231.824C95.9993 233.949 94.0739 236.069 92.1485 238.193C90.3168 240.213 88.4816 242.233 86.6499 244.253L67.4861 226.742L117.763 152.424L232.237 190.748L183.944 219.234L122.518 183.52C114.947 187.046 106.957 192.505 102.442 199.618C102.06 200.222 101.447 200.998 101.26 201.688C101 202.641 101.303 203.866 101.249 204.891C101.166 206.526 100.632 208.183 100.629 209.807C100.618 212.621 100.827 215.432 101.069 218.235C101.242 220.234 101.595 222.21 101.714 224.212C101.786 225.391 102.183 226.577 101.786 227.637L101.79 227.645Z" fill="#32B353"/>
<path d="M131.587 186.489C131.352 185.529 131.089 184.566 130.793 183.599C129.802 180.365 128.67 177.238 126.211 174.79C123.867 172.458 120.362 170.761 117.225 169.827C113.122 168.605 108.276 169.065 105.139 171.972C104.797 172.289 104.371 172.663 103.924 172.526C103.625 172.436 103.438 172.138 103.311 171.854C102.439 169.863 103.254 167.548 104.35 165.672C108.583 158.426 115.935 155.479 123.921 154.692C134.55 153.646 145.317 154.843 155.888 155.936C167.181 157.104 178.47 158.272 189.763 159.44C190.347 159.501 190.957 159.569 191.436 159.907C191.862 160.205 192.125 160.676 192.377 161.129C196.415 168.465 200.54 176.221 207.531 180.85C213.362 184.71 220.512 185.925 227.445 186.913C231.22 187.452 235.186 188.02 238.237 190.302C237.869 191.197 236.676 191.334 235.709 191.327C213.362 191.208 190.866 190.255 168.793 193.742C168.901 198.827 168.782 203.917 168.436 208.991C168.266 211.507 168.065 214.023 167.92 216.542C167.834 218.052 167.744 219.569 167.733 221.082C167.718 222.818 167.866 223.691 165.782 224.144C160.576 225.276 155.182 224.669 149.95 225.614C145.133 226.484 140.586 228.996 137.089 232.396C136.743 232.734 136.238 233.108 135.823 232.856C135.578 232.709 135.491 232.4 135.437 232.119C135.185 230.807 135.383 229.564 135.322 228.27C135.272 227.174 135.232 226.078 135.199 224.978C135.135 222.793 135.25 220.571 135.091 218.393C134.785 214.131 134.511 209.818 134.096 205.548C133.48 199.176 133.112 192.735 131.587 186.493V186.489Z" fill="#1D478E"/>
<path d="M201.82 71.0295C201.708 71.0295 201.6 70.9756 201.532 70.8714L200.021 68.6322C199.952 68.5316 199.938 68.4058 199.981 68.2944C200.021 68.183 200.115 68.0967 200.227 68.068L202.383 67.5073C202.57 67.4606 202.765 67.5792 202.812 67.7733C202.859 67.9709 202.743 68.1686 202.556 68.2189L200.897 68.6502L202.112 70.4508C202.224 70.6162 202.184 70.8462 202.026 70.9612C201.964 71.0043 201.892 71.0259 201.824 71.0259L201.82 71.0295Z" fill="#161742"/>
<path d="M201.82 71.1876C201.654 71.1876 201.496 71.105 201.398 70.9612L199.888 68.7221C199.79 68.5819 199.772 68.4022 199.83 68.2405C199.884 68.0788 200.017 67.9566 200.183 67.9134L202.339 67.3528C202.469 67.3204 202.606 67.3384 202.725 67.4103C202.844 67.4821 202.931 67.5972 202.963 67.7373C203.032 68.0177 202.862 68.3016 202.592 68.3735L201.15 68.7473L202.242 70.3646C202.401 70.5982 202.347 70.9253 202.116 71.0906C202.029 71.1553 201.925 71.1876 201.82 71.1876ZM202.466 67.6547C202.466 67.6547 202.437 67.6547 202.422 67.6618L200.263 68.2225C200.201 68.2369 200.151 68.2872 200.129 68.3483C200.104 68.4166 200.115 68.4885 200.151 68.546L201.662 70.7851C201.723 70.8714 201.845 70.8965 201.928 70.8354C202.018 70.7707 202.04 70.6377 201.975 70.5407L200.76 68.7365C200.731 68.6933 200.724 68.6394 200.742 68.5927C200.76 68.546 200.803 68.5101 200.85 68.4957L202.509 68.068C202.613 68.0392 202.678 67.9242 202.653 67.8128C202.639 67.7589 202.606 67.7122 202.559 67.6834C202.53 67.6654 202.498 67.6547 202.462 67.6547H202.466Z" fill="#161742"/>
<path d="M203.904 77.2581C203.609 77.2581 203.313 77.2257 203.021 77.1466C202.195 76.9274 201.553 76.3847 201.114 75.5365C201.02 75.3568 201.085 75.134 201.258 75.0405C201.431 74.9435 201.644 75.0118 201.737 75.1879C202.083 75.8564 202.563 76.2661 203.198 76.435C204.871 76.8843 207.005 75.479 207.027 75.4646C207.189 75.3532 207.409 75.4035 207.513 75.576C207.618 75.745 207.571 75.9714 207.409 76.0828C207.326 76.1367 205.628 77.2581 203.904 77.2581Z" fill="#161742"/>
<path d="M203.904 77.4162C203.583 77.4162 203.27 77.3767 202.981 77.3012C202.112 77.0676 201.434 76.4997 200.973 75.612C200.843 75.3568 200.933 75.0405 201.178 74.9039C201.297 74.8392 201.438 74.8249 201.568 74.8608C201.701 74.9003 201.809 74.9938 201.878 75.1196C202.202 75.7485 202.649 76.1295 203.237 76.2877C204.834 76.7189 206.915 75.3532 206.933 75.3388C207.048 75.2633 207.189 75.231 207.319 75.2669C207.456 75.2957 207.571 75.3784 207.647 75.497C207.795 75.7378 207.726 76.0612 207.495 76.2194C207.42 76.2697 205.678 77.4234 203.904 77.4234V77.4162ZM201.427 75.1555C201.395 75.1555 201.366 75.1627 201.337 75.1807C201.24 75.2346 201.204 75.364 201.258 75.4682C201.676 76.2733 202.285 76.7908 203.064 76.9957C203.327 77.0676 203.609 77.0999 203.904 77.0999C205.584 77.0999 207.25 76.0001 207.319 75.9534C207.412 75.8887 207.438 75.7593 207.376 75.6587C207.348 75.612 207.304 75.5832 207.254 75.5724C207.203 75.5581 207.153 75.5724 207.11 75.6012C207.092 75.612 204.914 77.064 203.154 76.5931C202.473 76.4099 201.964 75.9786 201.593 75.2669C201.568 75.2166 201.525 75.1843 201.478 75.1663C201.46 75.1627 201.442 75.1591 201.427 75.1591V75.1555Z" fill="#161742"/>
<path d="M217.555 63.4137C217.465 63.4137 217.375 63.3778 217.306 63.3059C213.737 59.604 210.156 61.4226 210.005 61.5017C209.832 61.5915 209.619 61.5196 209.529 61.3399C209.439 61.1602 209.507 60.941 209.68 60.8475C209.724 60.826 213.859 58.6947 217.804 62.7847C217.941 62.9285 217.941 63.1585 217.804 63.3023C217.735 63.3742 217.645 63.4101 217.555 63.4101V63.4137Z" fill="#161742"/>
<path d="M217.555 63.5718C217.418 63.5718 217.288 63.5179 217.191 63.4173C213.711 59.8052 210.225 61.5663 210.077 61.6418C209.954 61.7065 209.817 61.7173 209.688 61.6741C209.558 61.631 209.45 61.5376 209.388 61.4118C209.262 61.1566 209.36 60.8403 209.608 60.7109C209.652 60.6894 213.91 58.515 217.919 62.6769C218.118 62.8818 218.118 63.2124 217.919 63.4173C217.822 63.5179 217.692 63.5718 217.555 63.5718ZM212.385 60.8331C213.78 60.8331 215.608 61.3147 217.422 63.198C217.494 63.2735 217.62 63.2735 217.692 63.198C217.771 63.1154 217.771 62.9824 217.692 62.8997C213.856 58.9175 209.799 60.9697 209.76 60.9913C209.662 61.0416 209.623 61.171 209.677 61.2716C209.702 61.3219 209.742 61.3579 209.792 61.3758C209.839 61.3902 209.893 61.3866 209.936 61.3651C210.016 61.3255 210.982 60.8331 212.388 60.8331H212.385Z" fill="#161742"/>
<path d="M202.556 59.507C202.422 59.507 202.296 59.4279 202.235 59.2949C202.202 59.2194 201.424 57.5805 199.192 58.1017C199.001 58.1448 198.813 58.0226 198.77 57.8249C198.727 57.6273 198.846 57.4296 199.037 57.3864C201.842 56.7359 202.866 58.9678 202.877 58.9894C202.96 59.1727 202.88 59.3919 202.704 59.4746C202.657 59.4962 202.606 59.507 202.556 59.507Z" fill="#161742"/>
<path d="M202.556 59.6651C202.357 59.6651 202.174 59.5465 202.091 59.3596C202.062 59.2949 201.326 57.7638 199.228 58.2562C199.094 58.2885 198.957 58.2598 198.846 58.1879C198.727 58.1124 198.647 57.9938 198.615 57.8537C198.554 57.5733 198.73 57.293 199.001 57.2283C201.86 56.5742 202.97 58.8205 203.021 58.9139C203.136 59.1835 203.024 59.4926 202.772 59.6148C202.7 59.6471 202.628 59.6651 202.556 59.6651ZM200.025 57.8393C201.719 57.8393 202.347 59.1619 202.379 59.2266C202.426 59.3272 202.531 59.374 202.639 59.3272C202.736 59.2805 202.779 59.1547 202.736 59.0469C202.631 58.8313 201.647 56.9336 199.076 57.5374C198.972 57.5625 198.903 57.674 198.928 57.789C198.939 57.8465 198.972 57.8932 199.019 57.922C199.062 57.9507 199.109 57.9579 199.163 57.9471C199.48 57.8752 199.769 57.8429 200.032 57.8429L200.025 57.8393Z" fill="#161742"/>
<path d="M219.873 44.2717C216.246 43.729 212.157 44.322 208.62 45.1379C205.768 45.7956 200.421 47.2584 200.72 51.0896C200.937 53.8678 203.951 55.3774 206.147 56.5346C211.541 59.3776 217.122 59.0792 222.985 58.3029C223.003 59.8592 223.674 61.3255 224.334 62.7344C225.43 65.0885 227.488 66.235 229.645 67.5289C235.886 71.2703 228.754 66.4471 228.754 66.4471L227.618 74.7638C227.618 74.7638 217.782 93.6793 221.932 96.303C224.114 97.6831 238.716 92.9569 238.716 92.9569C238.716 92.9569 238.669 75.8851 237.739 65.6708C236.668 53.9002 229.879 45.7776 219.873 44.2753V44.2717Z" fill="#161742"/>
<path d="M252.144 222.735H167.553V191.201H258.854L252.144 222.735Z" fill="#FFF3EB"/>
<path d="M252.144 223.184H167.553C167.315 223.184 167.12 222.983 167.12 222.735V191.197C167.12 190.949 167.315 190.748 167.553 190.748H258.85C258.98 190.748 259.106 190.809 259.185 190.917C259.268 191.021 259.297 191.161 259.272 191.294L252.565 222.832C252.522 223.037 252.346 223.184 252.144 223.184ZM167.985 222.289H251.797L258.316 191.65H167.985V222.289Z" fill="#161742"/>
<path d="M252.144 223.307H167.553C167.246 223.307 166.997 223.051 166.997 222.735V191.201C166.997 190.884 167.246 190.629 167.553 190.629H258.85C259.02 190.629 259.178 190.708 259.286 190.845C259.391 190.978 259.431 191.154 259.395 191.323L252.688 222.857C252.63 223.123 252.407 223.307 252.147 223.307H252.144ZM167.553 190.874C167.383 190.874 167.246 191.021 167.246 191.197V222.731C167.246 222.911 167.383 223.055 167.553 223.055H252.144C252.288 223.055 252.41 222.951 252.443 222.8L259.149 191.265C259.171 191.168 259.149 191.068 259.088 190.992C259.03 190.917 258.944 190.87 258.85 190.87H167.553V190.874ZM251.797 222.412H167.985C167.917 222.412 167.863 222.358 167.863 222.289V191.65C167.863 191.582 167.917 191.528 167.985 191.528H258.316C258.352 191.528 258.389 191.546 258.414 191.575C258.439 191.603 258.446 191.643 258.439 191.679L251.92 222.318C251.909 222.376 251.859 222.415 251.797 222.415V222.412ZM168.108 222.164H251.697L258.161 191.769H168.108V222.164Z" fill="#161742"/>
<path d="M173.487 191.201H167.553V222.739H173.487V191.201Z" fill="#161742"/>
<path d="M261.54 314.427H255.317L236.398 222.735H247.197L261.54 314.427Z" fill="#FFF3EB"/>
<path d="M261.54 314.876H255.317C255.115 314.876 254.938 314.729 254.895 314.524L235.976 222.832C235.947 222.699 235.98 222.563 236.063 222.458C236.146 222.354 236.268 222.293 236.398 222.293H247.197C247.409 222.293 247.59 222.451 247.622 222.67L261.965 314.362C261.987 314.492 261.951 314.625 261.868 314.725C261.785 314.826 261.666 314.883 261.54 314.883V314.876ZM255.666 313.981H261.031L246.829 223.184H236.932L255.666 313.981Z" fill="#161742"/>
<path d="M261.54 314.998H255.317C255.057 314.998 254.83 314.808 254.776 314.546L235.857 222.854C235.821 222.688 235.861 222.512 235.965 222.379C236.07 222.243 236.228 222.167 236.398 222.167H247.197C247.471 222.167 247.702 222.368 247.745 222.649L262.088 314.341C262.113 314.506 262.07 314.671 261.965 314.801C261.857 314.93 261.702 315.006 261.54 315.006V314.998ZM236.398 222.412C236.304 222.412 236.218 222.455 236.16 222.53C236.099 222.606 236.077 222.71 236.099 222.803L255.017 314.495C255.05 314.643 255.176 314.75 255.317 314.75H261.54C261.63 314.75 261.713 314.711 261.771 314.639C261.828 314.567 261.857 314.47 261.843 314.373L247.5 222.681C247.474 222.523 247.348 222.412 247.197 222.412H236.398ZM261.031 314.103H255.666C255.609 314.103 255.558 314.06 255.544 314.006L236.809 223.21C236.802 223.174 236.809 223.134 236.834 223.105C236.856 223.077 236.892 223.059 236.932 223.059H246.829C246.89 223.059 246.941 223.102 246.952 223.163L261.154 313.96C261.161 313.996 261.15 314.032 261.125 314.06C261.104 314.089 261.068 314.103 261.031 314.103ZM255.767 313.855H260.887L246.721 223.307H237.083L255.767 313.855Z" fill="#161742"/>
<path d="M226.966 67.5756C226.966 67.5756 232.363 61.383 235.634 67.6116C238.81 73.664 231.375 77.7145 228.476 76.1547C225.578 74.5948 225.098 73.132 225.098 73.132L226.969 67.572L226.966 67.5756Z" fill="#F7B386"/>
<path d="M228.152 70.6629C228.062 70.6629 227.972 70.627 227.903 70.5551C227.766 70.4113 227.766 70.1813 227.903 70.0375C231.199 66.6196 234.253 67.6654 234.382 67.7122C234.566 67.7805 234.664 67.9889 234.599 68.1794C234.534 68.3699 234.336 68.4705 234.152 68.4058C234.036 68.3663 231.368 67.4786 228.404 70.5551C228.336 70.627 228.246 70.6629 228.156 70.6629H228.152Z" fill="#161742"/>
<path d="M228.152 70.821C228.015 70.821 227.885 70.7671 227.788 70.6665C227.593 70.4652 227.593 70.1346 227.788 69.9297C231.141 66.4507 234.3 67.5181 234.437 67.5648C234.703 67.6619 234.844 67.9602 234.75 68.2333C234.707 68.3663 234.613 68.4741 234.487 68.5352C234.364 68.5927 234.224 68.5999 234.098 68.5568C233.989 68.5172 231.408 67.6726 228.516 70.6665C228.419 70.7671 228.289 70.821 228.152 70.821ZM233.07 67.6834C231.884 67.6834 229.994 68.0896 228.015 70.1454C227.936 70.2244 227.936 70.3646 228.015 70.4437C228.091 70.5191 228.213 70.5191 228.285 70.4437C231.318 67.3025 234.087 68.2153 234.199 68.2549C234.245 68.2693 234.3 68.2693 234.343 68.2477C234.39 68.2225 234.426 68.183 234.444 68.1291C234.483 68.0177 234.429 67.8991 234.325 67.8595C234.278 67.8452 233.809 67.6834 233.07 67.6834Z" fill="#161742"/>
<path d="M230.128 73.3512C229.976 73.3512 229.836 73.247 229.789 73.0889L228.819 69.732C228.761 69.5379 228.869 69.3331 229.057 69.2756C229.244 69.2181 229.443 69.3259 229.497 69.52L230.467 72.8768C230.524 73.0709 230.416 73.2758 230.229 73.3333C230.196 73.3441 230.16 73.3477 230.128 73.3477V73.3512Z" fill="#161742"/>
<path d="M230.128 73.5094C229.901 73.5094 229.699 73.3548 229.637 73.132L228.668 69.7752C228.588 69.4984 228.743 69.2073 229.01 69.1246C229.143 69.0815 229.277 69.0959 229.396 69.1606C229.518 69.2289 229.609 69.3403 229.648 69.4768L230.618 72.8337C230.697 73.1104 230.542 73.4016 230.276 73.4842C230.232 73.4986 230.178 73.5094 230.128 73.5094ZM229.158 69.4157C229.14 69.4157 229.122 69.4193 229.104 69.4229C228.999 69.4553 228.942 69.5739 228.974 69.6853L229.944 73.0422C229.976 73.15 230.095 73.2075 230.182 73.1823C230.29 73.15 230.348 73.0314 230.315 72.92L229.345 69.5631C229.331 69.5092 229.295 69.4625 229.248 69.4373C229.219 69.4229 229.19 69.4157 229.162 69.4157H229.158Z" fill="#161742"/>
<path d="M131.529 189.238L122.446 183.829C116.403 184.106 110.836 186.812 106.766 191.463C102.677 196.132 100.607 202.173 100.943 208.474L101.963 227.677C101.97 227.842 101.851 227.982 101.693 227.99C101.685 227.99 101.682 227.99 101.678 227.99C101.527 227.99 101.4 227.867 101.39 227.709L100.369 208.506C100.027 202.044 102.147 195.851 106.34 191.061C110.533 186.273 116.277 183.491 122.508 183.229C122.565 183.229 122.616 183.24 122.663 183.269L131.41 188.48" fill="#161742"/>
<path d="M138.827 215.597C138.668 215.608 138.531 215.482 138.52 215.317L137.9 204.761C137.889 204.596 138.012 204.456 138.17 204.445C138.329 204.434 138.466 204.56 138.473 204.725L139.093 215.281C139.104 215.446 138.982 215.586 138.823 215.597H138.827Z" fill="#161742"/>
<path d="M176.599 314.725H170.376C170.293 314.725 170.21 314.686 170.156 314.621C170.102 314.553 170.076 314.466 170.091 314.38L184.434 222.688C184.456 222.545 184.578 222.437 184.719 222.437H195.518C195.604 222.437 195.687 222.476 195.741 222.548C195.795 222.62 195.817 222.71 195.799 222.8L176.88 314.492C176.851 314.628 176.736 314.729 176.599 314.729V314.725ZM170.715 314.129H176.365L195.161 223.033H184.964L170.715 314.129Z" fill="#161742"/>
<path d="M176.599 314.847H170.376C170.253 314.847 170.141 314.793 170.062 314.696C169.986 314.599 169.95 314.477 169.972 314.359L184.315 222.667C184.347 222.462 184.517 222.311 184.722 222.311H195.521C195.647 222.311 195.763 222.368 195.842 222.469C195.918 222.57 195.95 222.699 195.921 222.821L177.003 314.513C176.963 314.707 176.794 314.847 176.599 314.847ZM184.722 222.559C184.643 222.559 184.575 222.62 184.56 222.706L170.213 314.398C170.206 314.448 170.221 314.502 170.253 314.542C170.286 314.578 170.329 314.603 170.376 314.603H176.599C176.675 314.603 176.743 314.546 176.761 314.466L195.68 222.775C195.691 222.721 195.68 222.667 195.644 222.624C195.611 222.584 195.568 222.563 195.518 222.563H184.719L184.722 222.559ZM176.368 314.251H170.718C170.682 314.251 170.646 314.236 170.625 314.208C170.599 314.179 170.592 314.143 170.596 314.107L184.845 223.012C184.852 222.951 184.906 222.908 184.968 222.908H195.164C195.2 222.908 195.236 222.926 195.262 222.954C195.287 222.983 195.294 223.023 195.287 223.059L176.491 314.154C176.48 314.211 176.43 314.251 176.368 314.251ZM170.862 314.003H176.267L195.013 223.156H185.076L170.866 314.003H170.862Z" fill="#161742"/>
<path d="M183.817 228.442L194.638 226.954L195.518 222.735H184.719L183.817 228.442Z" fill="#161742"/>
<path d="M247.197 222.735H236.398L237.71 229.028L247.691 225.873L247.197 222.735Z" fill="#161742"/>
<path d="M133.786 266.173C133.786 266.173 133.779 266.173 133.775 266.173L103.636 265.073C103.477 265.066 103.355 264.929 103.358 264.764C103.366 264.599 103.503 264.473 103.658 264.477L133.797 265.576C133.955 265.584 134.078 265.72 134.074 265.885C134.067 266.047 133.941 266.173 133.786 266.173Z" fill="#161742"/>
<path d="M133.786 266.421H133.775L103.629 265.321C103.333 265.31 103.102 265.059 103.113 264.757C103.124 264.459 103.373 264.218 103.665 264.229L133.808 265.328C134.103 265.339 134.334 265.594 134.323 265.893C134.316 266.187 134.078 266.417 133.79 266.417L133.786 266.421ZM103.647 264.725C103.647 264.725 103.607 264.743 103.607 264.775C103.607 264.804 103.625 264.825 103.647 264.829L133.786 265.929C133.804 265.929 133.822 265.911 133.826 265.882C133.826 265.849 133.808 265.828 133.79 265.828L103.65 264.728L103.647 264.725Z" fill="#161742"/>
<path d="M90.2231 240.687C90.1293 240.687 90.0392 240.655 89.9671 240.587L70.486 222.203C70.3382 222.063 70.331 221.826 70.4716 221.678C70.6122 221.531 70.8502 221.524 70.998 221.664L90.4791 240.048C90.6269 240.188 90.6341 240.425 90.4935 240.572C90.4214 240.648 90.3204 240.687 90.2231 240.687Z" fill="#161742"/>
<path d="M210.019 64.1792C210.495 65.1352 211.112 66.0877 212.23 66.3428C213.347 66.598 214.678 66.3428 215.713 65.757C216.03 65.5773 216.138 65.146 215.954 64.8333C215.77 64.5206 215.348 64.4128 215.028 64.5925C214.306 64.9987 213.373 65.2215 212.587 65.0418C212.194 64.9519 212.002 64.8046 211.746 64.4847C211.79 64.5386 211.732 64.4631 211.721 64.4488C211.692 64.4092 211.667 64.3697 211.638 64.3302C211.584 64.2475 211.534 64.1648 211.487 64.0822C211.379 63.8917 211.278 63.6976 211.18 63.4999C211.018 63.1729 210.557 63.083 210.254 63.2591C209.922 63.4532 209.85 63.8521 210.012 64.1828L210.019 64.1792Z" fill="#161742"/>
<path d="M197.18 61.401C197.411 62.1593 198.146 62.6984 198.896 62.8889C199.697 63.0938 200.62 62.986 201.351 62.605C201.665 62.4433 201.784 61.9796 201.593 61.6813C201.388 61.3614 201.005 61.2644 200.666 61.4405C200.63 61.4585 200.594 61.4765 200.558 61.4944C200.475 61.5376 200.67 61.4549 200.583 61.4836C200.511 61.5052 200.439 61.534 200.367 61.5519C200.295 61.5699 200.219 61.5879 200.144 61.6022C200.122 61.6058 200.014 61.613 200.108 61.6094C200.212 61.6094 200.064 61.613 200.043 61.6166C199.888 61.631 199.733 61.6346 199.581 61.6274C199.505 61.6238 199.43 61.6166 199.358 61.6094C199.267 61.6022 199.469 61.6382 199.397 61.613C199.368 61.6022 199.332 61.6023 199.3 61.5951C199.246 61.5843 199.192 61.5663 199.141 61.5519C199.109 61.5411 199.073 61.5268 199.04 61.516C198.957 61.4908 199.159 61.5735 199.08 61.534C198.961 61.4729 198.842 61.4154 198.73 61.3363C198.636 61.2716 198.719 61.3039 198.745 61.3471C198.734 61.3255 198.694 61.3039 198.68 61.2896C198.633 61.2464 198.59 61.1961 198.543 61.1494C198.489 61.0955 198.629 61.286 198.557 61.1674C198.543 61.1422 198.528 61.1206 198.514 61.0991C198.507 61.0883 198.489 61.0308 198.474 61.0272C198.51 61.1206 198.521 61.1422 198.503 61.0955C198.496 61.0775 198.489 61.056 198.485 61.038C198.38 60.7001 198.009 60.4522 197.652 60.5672C197.295 60.6822 197.068 61.0344 197.18 61.3974V61.401Z" fill="#161742"/>
<path d="M173.329 164.928H99.7455C99.3393 164.928 99.0099 165.256 99.0099 165.661V170.761C99.0099 171.166 99.3393 171.494 99.7455 171.494H173.329C173.735 171.494 174.064 171.166 174.064 170.761V165.661C174.064 165.256 173.735 164.928 173.329 164.928Z" fill="white"/>
<path d="M150.195 171.153H99.7996C99.1542 171.153 98.5773 170.804 98.3357 170.276L77.1203 123.377C76.7057 122.457 77.4665 121.458 78.5842 121.458H128.98C129.625 121.458 130.202 121.807 130.444 122.335L151.659 169.234C152.074 170.154 151.313 171.153 150.195 171.153Z" fill="white"/>
<path d="M191.187 181.615C191.187 181.615 172.478 177.694 166.947 173.144C164.221 170.901 164.636 169.78 164.636 169.78L192.694 178.003L191.184 181.615H191.187Z" fill="#F7B386"/>
<path d="M191.09 178.812C191.09 178.812 171.176 174.891 165.292 170.341C162.389 168.098 162.833 166.977 162.833 166.977L192.694 175.2L191.09 178.812Z" fill="#F7B386"/>
<path d="M194.198 178.061C194.198 178.061 169.384 172.264 163.5 167.71C160.597 165.467 161.041 164.346 161.041 164.346C161.293 163.002 162.324 162.193 163.338 162.542L195.168 173.55L194.194 178.057L194.198 178.061Z" fill="#F7B386"/>
<path d="M196.974 174.779C196.974 174.779 172.16 168.982 166.276 164.428C163.374 162.186 163.817 161.064 163.817 161.064C164.069 159.72 165.101 158.912 166.114 159.26L197.944 170.269L196.971 174.776L196.974 174.779Z" fill="#F7B386"/>
<path d="M176.624 173.507C176.624 173.507 176.595 173.507 176.577 173.5C169.857 171.372 165.425 169.5 163.402 167.933C163.089 167.692 162.8 167.451 162.541 167.218C162.454 167.138 162.429 166.98 162.49 166.862C162.552 166.747 162.671 166.714 162.761 166.793C163.009 167.02 163.294 167.253 163.597 167.491C165.587 169.029 169.986 170.883 176.667 173C176.772 173.033 176.837 173.173 176.812 173.309C176.79 173.428 176.711 173.507 176.624 173.507Z" fill="#161742"/>
<mask id="mask0_107_5" style="mask-type:luminance" maskUnits="userSpaceOnUse" x="161" y="162" width="35" height="17">
<path d="M194.198 178.061C194.198 178.061 169.384 172.264 163.5 167.71C160.597 165.467 161.041 164.346 161.041 164.346C161.293 163.002 162.324 162.193 163.338 162.542L195.168 173.55L194.194 178.057L194.198 178.061Z" fill="white"/>
</mask>
<g mask="url(#mask0_107_5)">
<path d="M177.637 169.651C177.637 169.651 177.605 169.651 177.591 169.643C172.806 168.062 168.086 166.376 165.959 164.73C163.046 162.477 163.338 161.251 163.424 161.029L163.767 161.266C163.767 161.266 163.767 161.262 163.77 161.251C163.77 161.262 163.529 162.261 166.15 164.288C168.238 165.902 172.925 167.577 177.681 169.147C177.785 169.183 177.847 169.32 177.821 169.457C177.8 169.572 177.72 169.651 177.634 169.651H177.637Z" fill="#161742"/>
</g>
<mask id="mask1_107_5" style="mask-type:luminance" maskUnits="userSpaceOnUse" x="164" y="169" width="29" height="13">
<path d="M191.187 181.615C191.187 181.615 172.478 177.694 166.947 173.144C164.221 170.901 164.636 169.78 164.636 169.78L192.694 178.003L191.184 181.615H191.187Z" fill="white"/>
</mask>
<g mask="url(#mask1_107_5)">
<path d="M176.076 175.29C176.076 175.29 176.047 175.29 176.033 175.283C171.879 173.992 166.449 171.742 164.109 169.935C164.015 169.863 163.987 169.708 164.041 169.586C164.095 169.464 164.214 169.424 164.304 169.496C166.049 170.844 170.668 173.097 176.119 174.787C176.224 174.819 176.289 174.956 176.264 175.096C176.242 175.214 176.163 175.293 176.076 175.293V175.29Z" fill="#161742"/>
</g>
<path d="M189.312 163.76L189.547 162.211L186.143 184.652C186.143 184.652 228.714 191.298 248.881 192.703C262.485 193.652 271.924 183.427 270.089 169.41C268.088 154.114 261.064 122.112 256.762 105.349C255.396 100.023 248.65 96.9966 245.823 97.144C241.186 97.3848 236.535 97.4243 231.891 97.5501C231.325 97.5645 224.795 97.7694 224.737 98.1144C224.247 101.18 221.929 103.987 218.918 104.918C217.169 105.457 215.139 105.234 213.697 104.113C212.226 102.966 211.678 101.04 212.161 99.2825C209.197 99.9042 206.288 99.9366 203.27 100.44C200.515 100.9 197.764 101.363 195.009 101.823C190.87 102.517 187.07 104.336 183.94 106.999L189.309 163.764L189.312 163.76Z" fill="#1D478E"/>
<path d="M241.233 166.97C241.107 166.97 240.995 166.887 240.955 166.754C240.912 166.596 240.999 166.43 241.15 166.384L249.735 163.771C249.887 163.724 250.049 163.814 250.092 163.972C250.135 164.13 250.049 164.296 249.897 164.342L241.312 166.955C241.284 166.962 241.258 166.966 241.229 166.966L241.233 166.97Z" fill="#161742"/>
<path d="M186.32 164.173C189.183 151.731 192.247 139.335 195.507 126.989" stroke="#161742" stroke-width="1.5" stroke-miterlimit="10"/>
<path d="M248.34 164.375C245.365 151.957 242.589 139.493 240.014 126.989" stroke="#161742" stroke-width="1.5" stroke-miterlimit="10"/>
<path d="M231.902 166.815C219.228 164.982 206.583 162.944 193.974 160.709" stroke="#161742" stroke-width="1.5" stroke-miterlimit="10"/>
<path d="M253.254 100.249C249.194 95.1601 242.524 93.2409 236.178 93.4457C232.252 93.5715 228.588 94.9229 225.336 97.0829C222.04 99.2681 218.11 102.564 213.971 100.681C211.061 99.3544 208.444 96.2779 204.928 97.1872C203.486 97.5609 202.073 97.6544 200.67 98.0821C198.146 98.8512 195.445 99.7389 193.87 101.852C195.496 102.262 196.942 101.195 198.398 101.64C199.451 101.964 200.09 103.031 200.565 103.94C201.629 105.964 201.849 108.34 202.92 110.349C204.881 114.029 208.238 116.908 212.1 118.504C216.938 120.502 222.574 120.484 227.402 118.457C232.226 116.43 236.178 112.419 238.121 107.574C239.117 105.098 239.621 102.388 241.1 100.167C242.293 98.3768 244.049 97.4998 246.191 97.6041C248.343 97.7083 250.936 99.1783 253.023 99.7749" fill="#32B353"/>
<path d="M225.058 245.813C225.239 254.794 225.916 263.603 226.677 272.52C226.782 273.742 226.886 274.978 226.699 276.19C226.367 278.335 224.936 277.451 223.443 277.307C221.64 277.131 219.455 277.437 217.685 277.767C215.54 278.17 213.099 278.087 211.079 278.634C207.517 279.597 203.955 280.56 200.389 281.523C199.787 275.057 199.318 268.786 199.408 262.291C199.516 254.557 199.624 246.819 199.733 239.084C199.769 236.418 199.808 233.747 199.664 231.084C199.556 229.064 198.308 225.621 198.896 223.745C199.278 222.534 203.428 223.055 204.294 223.091C210.989 223.357 217.764 223.378 224.42 223.454C224.993 223.472 224.954 239.681 224.972 240.932C224.993 242.564 225.022 244.192 225.055 245.82L225.058 245.813Z" fill="#32B353"/>
<mask id="mask2_107_5" style="mask-type:luminance" maskUnits="userSpaceOnUse" x="102" y="98" width="169" height="135">
<path d="M270.092 169.406C268.091 154.11 261.068 122.108 256.766 105.346C255.244 99.4118 247.5 96.3605 242.149 99.4909C238.98 101.345 239.51 104.623 238.37 107.506C237.105 110.697 234.397 113.756 231.956 116.11C230.766 117.26 229.151 117.501 227.726 118.309C223.299 120.818 217.804 120.182 212.904 119.388C209.882 118.899 207.953 116.574 205.628 114.755C204.795 114.104 204.023 112.092 203.288 111.103C202.401 109.914 201.672 108.652 201.222 107.233C200.868 106.129 200.684 104.965 200.18 103.922C197.335 98.082 187.113 104.303 183.947 106.995C181.549 109.033 173.091 137.764 169.247 151.159L149.881 116.354L130.541 127.938L145.555 154.922C138.351 154.304 131.111 153.988 123.932 154.696C115.945 155.483 108.594 158.43 104.361 165.676C103.265 167.552 102.45 169.87 103.322 171.857C103.448 172.145 103.632 172.44 103.935 172.53C104.382 172.666 104.808 172.292 105.15 171.976C108.287 169.068 113.133 168.608 117.236 169.83C120.373 170.765 123.878 172.461 126.221 174.794C128.68 177.241 129.813 180.365 130.804 183.603C131.1 184.57 131.363 185.529 131.597 186.492C133.123 192.735 133.487 199.176 134.107 205.548C134.522 209.818 134.796 214.131 135.102 218.393C135.261 220.571 135.145 222.796 135.21 224.978C135.243 226.074 135.282 227.174 135.333 228.27C135.394 229.564 135.196 230.807 135.448 232.119C135.502 232.4 135.589 232.709 135.834 232.856C136.249 233.108 136.753 232.734 137.1 232.396C140.593 228.996 145.14 226.484 149.961 225.614C155.193 224.669 160.586 225.276 165.793 224.144C167.877 223.691 167.729 222.818 167.744 221.082C167.754 219.569 167.845 218.056 167.931 216.542C168.075 214.023 168.277 211.511 168.447 208.991C168.793 203.917 168.912 198.827 168.804 193.742C190.502 190.317 212.612 191.176 234.584 191.319C239.903 191.927 244.846 192.419 248.888 192.699C262.492 193.648 271.931 183.423 270.096 169.406H270.092Z" fill="white"/>
</mask>
<g mask="url(#mask2_107_5)">
<path d="M239.055 164.486C241.994 164.486 244.377 162.111 244.377 159.181C244.377 156.251 241.994 153.876 239.055 153.876C236.116 153.876 233.733 156.251 233.733 159.181C233.733 162.111 236.116 164.486 239.055 164.486Z" fill="#161742"/>
<path d="M247.334 128.79C250.273 128.79 252.656 126.415 252.656 123.485C252.656 120.555 250.273 118.18 247.334 118.18C244.395 118.18 242.012 120.555 242.012 123.485C242.012 126.415 244.395 128.79 247.334 128.79Z" fill="#161742"/>
<path d="M191.735 121.659C194.675 121.659 197.057 119.284 197.057 116.354C197.057 113.424 194.675 111.049 191.735 111.049C188.796 111.049 186.413 113.424 186.413 116.354C186.413 119.284 188.796 121.659 191.735 121.659Z" fill="#161742"/>
<path d="M210.744 159.983C213.683 159.983 216.066 157.608 216.066 154.678C216.066 151.748 213.683 149.373 210.744 149.373C207.805 149.373 205.422 151.748 205.422 154.678C205.422 157.608 207.805 159.983 210.744 159.983Z" fill="#161742"/>
<path d="M205.152 186.208C208.091 186.208 210.474 183.833 210.474 180.904C210.474 177.974 208.091 175.599 205.152 175.599C202.213 175.599 199.83 177.974 199.83 180.904C199.83 183.833 202.213 186.208 205.152 186.208Z" fill="#161742"/>
<path d="M133.826 182.122C136.765 182.122 139.148 179.747 139.148 176.817C139.148 173.887 136.765 171.512 133.826 171.512C130.886 171.512 128.504 173.887 128.504 176.817C128.504 179.747 130.886 182.122 133.826 182.122Z" fill="#161742"/>
<path d="M145.497 225.883C148.436 225.883 150.819 223.508 150.819 220.579C150.819 217.649 148.436 215.274 145.497 215.274C142.558 215.274 140.175 217.649 140.175 220.579C140.175 223.508 142.558 225.883 145.497 225.883Z" fill="#161742"/>
<path d="M256.47 189.378C259.41 189.378 261.792 187.003 261.792 184.074C261.792 181.144 259.41 178.769 256.47 178.769C253.531 178.769 251.148 181.144 251.148 184.074C251.148 187.003 253.531 189.378 256.47 189.378Z" fill="#161742"/>
<path d="M177.901 154.678C180.84 154.678 183.222 152.303 183.222 149.373C183.222 146.443 180.84 144.068 177.901 144.068C174.961 144.068 172.579 146.443 172.579 149.373C172.579 152.303 174.961 154.678 177.901 154.678Z" fill="#161742"/>
<path d="M240.945 106.179C243.884 106.179 246.267 103.804 246.267 100.875C246.267 97.9448 243.884 95.5698 240.945 95.5698C238.005 95.5698 235.623 97.9448 235.623 100.875C235.623 103.804 238.005 106.179 240.945 106.179Z" fill="#161742"/>
<path d="M218.384 129.286C221.324 129.286 223.706 126.911 223.706 123.981C223.706 121.051 221.324 118.676 218.384 118.676C215.445 118.676 213.062 121.051 213.062 123.981C213.062 126.911 215.445 129.286 218.384 129.286Z" fill="#161742"/>
<path d="M143.712 137.268C146.651 137.268 149.034 134.893 149.034 131.963C149.034 129.034 146.651 126.658 143.712 126.658C140.773 126.658 138.39 129.034 138.39 131.963C138.39 134.893 140.773 137.268 143.712 137.268Z" fill="#161742"/>
<path d="M154.306 200.61C157.245 200.61 159.627 198.235 159.627 195.305C159.627 192.375 157.245 190 154.306 190C151.366 190 148.984 192.375 148.984 195.305C148.984 198.235 151.366 200.61 154.306 200.61Z" fill="#161742"/>
</g>
<path d="M189.399 166.43C187.708 174.445 186.431 182.525 185.57 190.629" stroke="#161742" stroke-width="1.5" stroke-miterlimit="10"/>
<path d="M280.033 289.117C285.124 287.795 271.827 202.03 271.38 193.742C271.091 188.408 267.561 181.759 270.691 176.67C267.63 181.641 265.286 187.032 260.238 190.255C259.55 190.698 258.836 191.161 258.414 191.862C257.959 192.617 257.913 193.533 257.873 194.414C257.282 207.971 254.848 221.075 255.212 234.746C255.829 257.831 256.899 294.077 256.478 294.156C264.363 292.654 272.216 290.976 280.029 289.117H280.033Z" fill="#32B353"/>
</g>
<defs>
<clipPath id="clip0_107_5">
<rect width="292" height="330" fill="white"/>
</clipPath>
</defs>
</svg>
