<svg width="5" height="4" viewBox="0 0 5 4" fill="none" xmlns="http://www.w3.org/2000/svg">
<path d="M4.9114 2.20244L3.11171 3.9162C3.05536 3.96986 2.97894 4 2.89925 4C2.81956 4 2.74314 3.96986 2.68679 3.9162C2.63044 3.86254 2.59878 3.78976 2.59878 3.71388C2.59878 3.63799 2.63044 3.56522 2.68679 3.51156L3.97431 2.28598H0.299948C0.220397 2.28598 0.144104 2.25589 0.0878528 2.20233C0.0316016 2.14876 0 2.07611 0 2.00036C0 1.9246 0.0316016 1.85195 0.0878528 1.79839C0.144104 1.74482 0.220397 1.71473 0.299948 1.71473H3.97431L2.68729 0.488441C2.63094 0.434782 2.59928 0.362006 2.59928 0.286122C2.59928 0.210238 2.63094 0.137461 2.68729 0.0838031C2.74364 0.0301449 2.82006 7.9957e-10 2.89975 0C2.97944 -7.99571e-10 3.05586 0.0301449 3.11221 0.0838031L4.9119 1.79756C4.93987 1.82413 4.96205 1.8557 4.97717 1.89046C4.99229 1.92522 5.00005 1.96248 5 2.0001C4.99995 2.03772 4.9921 2.07496 4.9769 2.10968C4.96169 2.14441 4.93944 2.17593 4.9114 2.20244Z" fill="#707070"/>
</svg>
