<svg width="32" height="32" viewBox="0 0 32 32" fill="none" xmlns="http://www.w3.org/2000/svg">
<path d="M29.1929 28.4384C29.3281 28.8453 29.3648 29.2785 29.2998 29.7024C29.2349 30.1262 29.0702 30.5286 28.8194 30.8763C28.5685 31.2241 28.2387 31.5073 27.857 31.7027C27.4753 31.898 27.0526 31.9999 26.6238 32H5.3769C4.94817 31.9999 4.5256 31.898 4.14395 31.7027C3.76231 31.5073 3.4325 31.2242 3.18166 30.8765C2.93082 30.5288 2.76614 30.1265 2.70115 29.7027C2.63616 29.279 2.67272 28.8458 2.80783 28.4389L4.80783 22.4373C4.94839 22.0272 5.11954 21.6282 5.31983 21.2437L5.17423 20.6901C5.11149 20.4515 5.10435 20.2016 5.15335 19.9597C5.20234 19.7178 5.30618 19.4904 5.45686 19.295C5.60754 19.0995 5.80105 18.9412 6.0225 18.8323C6.24396 18.7234 6.48744 18.6667 6.73423 18.6667H7.32783C8.89913 17.2923 10.9155 16.5344 13.003 16.5333H13.3337V16.1472C12.3719 15.6434 11.5559 14.9007 10.9641 13.9904C10.6585 13.3226 10.4641 12.6094 10.3886 11.8789C10.0085 11.7713 9.67378 11.5426 9.43529 11.2276C9.1968 10.9126 9.06751 10.5284 9.06703 10.1333V6.93333C9.06703 5.0945 9.79751 3.33098 11.0978 2.03073C12.398 0.730474 14.1615 0 16.0004 0C17.8392 0 19.6027 0.730474 20.903 2.03073C22.2032 3.33098 22.9337 5.0945 22.9337 6.93333V10.1333C22.9332 10.5284 22.8039 10.9126 22.5654 11.2276C22.3269 11.5426 21.9923 11.7713 21.6121 11.8789C21.5367 12.6095 21.3421 13.3228 21.0361 13.9904C20.4445 14.9006 19.6287 15.6434 18.667 16.1472V16.5333H18.9977C21.0852 16.5344 23.1016 17.2923 24.6729 18.6667H25.2665C25.5133 18.6666 25.7569 18.7232 25.9784 18.8321C26.1999 18.941 26.3935 19.0993 26.5442 19.2947C26.695 19.4902 26.7989 19.7176 26.8479 19.9596C26.8969 20.2015 26.8898 20.4514 26.827 20.6901L26.6809 21.2443C26.8816 21.6291 27.0531 22.0284 27.194 22.4389L29.1929 28.4384ZM24.5337 30.9333V29.8667H7.46703V30.9333H24.5337ZM3.81903 28.7771C3.73763 29.0236 3.71587 29.286 3.75554 29.5425C3.79521 29.7991 3.89517 30.0426 4.04722 30.2531C4.19927 30.4636 4.39907 30.6349 4.63022 30.7532C4.86136 30.8714 5.11726 30.9332 5.3769 30.9333H6.40037V29.8667C6.40139 29.6112 6.49406 29.3646 6.66152 29.1717C6.82899 28.9788 7.06012 28.8524 7.3129 28.8155L5.76623 22.936L3.81903 28.7771ZM9.13583 18.6667H13.8825C13.6401 18.3527 13.4714 17.9881 13.3892 17.6H13.0046C11.6425 17.6006 10.3058 17.9691 9.13583 18.6667ZM16.0004 1.06667C14.445 1.0685 12.9538 1.68718 11.854 2.787C10.7542 3.88682 10.1355 5.37796 10.1337 6.93333V8.48C10.2174 8.44123 10.3041 8.40913 10.3929 8.384C10.4886 7.88469 10.7426 7.42948 11.1172 7.08578C11.4918 6.74208 11.9672 6.52817 12.4729 6.47573C13.5343 6.33438 14.5438 5.93116 15.4105 5.3024C15.5835 5.18345 15.7885 5.11977 15.9985 5.11977C16.2085 5.11977 16.4135 5.18345 16.5865 5.3024C17.4447 5.93603 18.4505 6.33991 19.5086 6.47573C20.0186 6.52248 20.4995 6.73423 20.8783 7.07888C21.2571 7.42353 21.5132 7.88228 21.6078 8.3856C21.6961 8.41055 21.7822 8.44248 21.8654 8.48107V6.93333C21.8636 5.37824 21.2451 3.88733 20.1457 2.78756C19.0462 1.68779 17.5555 1.06892 16.0004 1.06667ZM20.0846 13.5083C20.3732 12.8351 20.5433 12.1172 20.5876 11.3861C20.5945 11.2495 20.6538 11.1207 20.7531 11.0265C20.8523 10.9323 20.984 10.8798 21.1209 10.88C21.3189 10.88 21.5088 10.8013 21.6489 10.6613C21.7889 10.5213 21.8676 10.3314 21.8676 10.1333C21.8676 9.93531 21.7889 9.74539 21.6489 9.60536C21.5088 9.46533 21.3189 9.38667 21.1209 9.38667C20.9794 9.38667 20.8438 9.33048 20.7438 9.23046C20.6438 9.13044 20.5876 8.99478 20.5876 8.85333C20.5887 8.52814 20.4695 8.21402 20.2528 7.97149C20.0362 7.72896 19.7375 7.57516 19.4142 7.53973C18.1852 7.38647 17.0166 6.91878 16.0212 6.18187C15.0043 6.91929 13.8171 7.387 12.5705 7.54133C12.2493 7.57756 11.953 7.7319 11.7392 7.97437C11.5254 8.21683 11.4094 8.53011 11.4137 8.85333C11.4137 8.99478 11.3575 9.13044 11.2575 9.23046C11.1575 9.33048 11.0218 9.38667 10.8804 9.38667C10.6823 9.38667 10.4924 9.46533 10.3524 9.60536C10.2124 9.74539 10.1337 9.93531 10.1337 10.1333C10.1337 10.3314 10.2124 10.5213 10.3524 10.6613C10.4924 10.8013 10.6823 10.88 10.8804 10.88C11.0172 10.8798 11.1489 10.9323 11.2482 11.0265C11.3475 11.1207 11.4067 11.2495 11.4137 11.3861C11.458 12.1171 11.6279 12.835 11.9161 13.5083C12.435 14.5328 14.8404 16 16.0004 16C17.1604 16 19.5657 14.5328 20.0846 13.5083ZM16.0004 17.0667C15.4475 17.0379 14.9049 16.9062 14.4004 16.6784V17.0667C14.4004 17.491 14.5689 17.898 14.869 18.198C15.1691 18.4981 15.576 18.6667 16.0004 18.6667C16.4247 18.6667 16.8317 18.4981 17.1317 18.198C17.4318 17.898 17.6004 17.491 17.6004 17.0667V16.6784C17.0958 16.9062 16.5532 17.0379 16.0004 17.0667ZM18.9977 17.6H18.6137C18.5314 17.9881 18.3628 18.3527 18.1204 18.6667H22.867C21.6969 17.969 20.36 17.6005 18.9977 17.6ZM25.6996 19.9467C25.6486 19.8802 25.5831 19.8264 25.508 19.7894C25.4329 19.7524 25.3502 19.7332 25.2665 19.7333H6.73423C6.65067 19.7333 6.56821 19.7524 6.49321 19.7893C6.4182 19.8261 6.35265 19.8796 6.30159 19.9458C6.25054 20.0119 6.21535 20.0889 6.19872 20.1708C6.18209 20.2527 6.18448 20.3373 6.2057 20.4181L8.41157 28.8H23.5892L25.795 20.4181C25.8164 20.3375 25.8189 20.253 25.8024 20.1713C25.7858 20.0895 25.7506 20.0126 25.6996 19.9467ZM24.6862 28.816C24.9392 28.8525 25.1707 28.9787 25.3384 29.1716C25.5062 29.3644 25.5992 29.6111 25.6004 29.8667V30.9333H26.6238C26.8835 30.9332 27.1395 30.8715 27.3707 30.7532C27.6019 30.6349 27.8017 30.4635 27.9538 30.2529C28.1059 30.0424 28.2058 29.7988 28.2454 29.5422C28.285 29.2855 28.2632 29.0231 28.1817 28.7765L26.2356 22.936L24.6862 28.816Z" fill="#707070"/>
<path d="M16.0003 27.2003C14.5299 27.2003 13.3337 26.2435 13.3337 25.0669C13.3337 23.8904 14.5299 22.9336 16.0003 22.9336C17.4707 22.9336 18.667 23.8904 18.667 25.0669C18.667 26.2435 17.4707 27.2003 16.0003 27.2003ZM16.0003 24.0003C15.1331 24.0003 14.4003 24.4888 14.4003 25.0669C14.4003 25.6451 15.1331 26.1336 16.0003 26.1336C16.8675 26.1336 17.6003 25.6451 17.6003 25.0669C17.6003 24.4888 16.8675 24.0003 16.0003 24.0003Z" fill="#707070"/>
</svg>
