<svg width="246" height="152" viewBox="0 0 246 152" fill="none" xmlns="http://www.w3.org/2000/svg">
<path d="M124 152C191.379 152 246 148.194 246 143.5C246 138.806 191.379 135 124 135C56.6213 135 2 138.806 2 143.5C2 148.194 56.6213 152 124 152Z" fill="#5BC4F0" fill-opacity="0.2"/>
<path d="M30.2298 127.281C30.6699 127.446 31.1492 127.437 31.8289 127.251C32.8615 126.969 33.8637 126.522 34.7743 125.889C37.4539 124.027 39.4321 120.448 39.4626 116.764C39.48 114.564 39.358 112.286 40.0856 110.234C41.1444 107.245 43.7979 105.292 45.2009 102.481C46.129 100.628 46.4296 98.4241 46.1246 96.3459C45.8022 94.1418 44.8044 92.5538 44.8131 90.2499C44.8262 86.6748 46.4906 83.3946 47.9938 80.223C49.5014 77.0514 50.9305 73.563 50.4425 70.0312C47.1137 70.9988 43.7936 73.4459 41.554 76.5524C39.3275 79.6416 39.0051 84.0845 36.7568 87.1564C34.2689 90.5493 30.1209 92.6796 29.0055 96.8622C28.2081 99.8559 29.3758 102.858 28.0295 105.679C27.4892 106.815 26.7833 107.835 26.2125 108.95C24.6658 111.987 24.2039 115.744 24.949 119.163C25.5503 121.91 26.9271 124.413 28.7963 126.227C29.3497 126.765 29.7636 127.121 30.2255 127.29L30.2298 127.281Z" fill="#207739"/>
<path d="M29.6011 117.587C34.3224 113.636 36.9411 107.697 38.3923 101.73C39.8468 95.7596 40.2951 89.591 41.557 83.5792" stroke="#161742" stroke-width="0.4" stroke-linecap="round" stroke-linejoin="round"/>
<path d="M33.162 125.924C32.7045 126.067 32.2078 126.058 31.5019 125.889C30.43 125.637 29.3974 125.234 28.4519 124.665C25.6808 122.999 23.6504 119.81 23.6416 116.543C23.6329 114.591 23.7767 112.569 23.036 110.747C21.9554 108.087 19.2148 106.338 17.7726 103.839C16.8227 102.191 16.5221 100.234 16.8532 98.3855C17.2018 96.4287 18.2432 95.0273 18.2475 92.9794C18.2519 89.8034 16.5482 86.8834 15.0058 84.0632C13.4634 81.243 11.9994 78.1365 12.5266 75.0039C15.9775 75.8803 19.4065 78.0714 21.7114 80.8395C24.0033 83.5947 24.3083 87.5386 26.6263 90.2764C29.1839 93.3005 33.48 95.2095 34.6129 98.9322C35.4233 101.596 34.1903 104.252 35.5715 106.759C36.1292 107.77 36.8525 108.677 37.4363 109.671C39.0223 112.374 39.4798 115.71 38.6868 118.743C38.0463 121.181 36.6041 123.394 34.6521 124.991C34.0726 125.464 33.6413 125.78 33.162 125.928V125.924Z" fill="#32B353"/>
<path d="M29.2026 123.991C31.0825 118.142 30.119 111.727 28.1529 105.908C26.188 100.085 23.2655 94.6272 21.1153 88.8708" stroke="#161742" stroke-width="0.4" stroke-linecap="round" stroke-linejoin="round"/>
<path d="M27.2321 113.363C25.8029 112.131 24.1516 111.198 22.644 110.065C21.3064 109.059 20.2824 107.783 19.0494 106.677C16.8795 104.733 15.6552 101.418 12.4962 100.806C11.1935 100.555 9.85582 100.863 8.53126 100.997C7.01062 101.154 5.46384 101.075 3.96499 100.776C2.9672 100.577 0.840926 99.379 0 99.6871C0.989068 100.663 1.67314 101.683 2.16549 103.002C2.71449 104.473 3.16763 106.065 4.31791 107.137C5.28955 108.044 6.60976 108.438 7.85155 108.92C10.7403 110.035 11.4113 112.243 12.4701 114.947C12.8884 116.018 13.4025 117.22 14.3306 117.953C15.3545 118.76 16.7096 118.457 17.7292 119.125C18.4873 119.624 18.6224 120.478 19.0189 121.238C19.6114 122.379 20.4393 123.32 21.5416 124.002C23.01 124.908 24.7354 125.316 26.4478 125.542C28.3998 125.798 30.3866 125.971 32.343 126.062C32.112 124.34 31.9334 122.483 31.441 120.808C30.892 118.934 30.1034 117.107 29.0664 115.445C28.5784 114.665 27.9423 113.988 27.2277 113.367L27.2321 113.363Z" fill="#207739"/>
<path d="M34.2098 131.513C32.8955 125.513 28.835 120.441 24.2068 116.384C19.5775 112.324 14.3033 109.057 9.54727 105.147" stroke="#161742" stroke-width="0.4" stroke-linecap="round" stroke-linejoin="round"/>
<path d="M33.8462 113.402C35.1838 112.07 36.7698 111.029 38.1903 109.792C39.4538 108.695 40.3862 107.354 41.5409 106.161C43.5669 104.07 44.5604 100.677 47.667 99.8523C48.9524 99.5096 50.3074 99.7222 51.6363 99.7656C53.1657 99.8176 54.6994 99.6311 56.1765 99.2276C57.1568 98.9586 59.1916 97.6135 60.0543 97.8652C59.135 98.9065 58.525 99.9695 58.1241 101.323C57.6797 102.829 57.3398 104.447 56.268 105.597C55.3617 106.569 54.072 107.055 52.8694 107.619C50.0678 108.933 49.5493 111.181 48.6866 113.949C48.3424 115.047 47.9154 116.279 47.0396 117.077C46.0767 117.949 44.7042 117.741 43.7325 118.483C43.0092 119.034 42.9352 119.893 42.5953 120.678C42.0855 121.859 41.323 122.856 40.2686 123.611C38.8656 124.618 37.175 125.147 35.4801 125.49C33.5499 125.881 31.5805 126.193 29.6372 126.419C29.7461 124.683 29.7941 122.822 30.1688 121.117C30.5871 119.208 31.245 117.333 32.16 115.602C32.5913 114.786 33.1796 114.07 33.8506 113.402H33.8462Z" fill="#0B531F"/>
<path d="M30.9438 124.459C34.8879 122.671 37.7854 119.142 39.8976 115.375C42.0126 111.607 43.4841 107.516 45.4767 103.683" stroke="#161742" stroke-width="0.4" stroke-linecap="round" stroke-linejoin="round"/>
<path d="M39.4714 128.703L39.3624 129.298L37.3277 140.548H23.2628L21.2237 129.298L21.1191 128.703H39.4714Z" fill="#FFF3EB"/>
<path d="M41.1879 124.17H19.3979V128.704H41.1879V124.17Z" fill="#FFF3EB"/>
<path d="M39.4714 128.703L39.3624 129.298H21.2237L21.1191 128.703H39.4714Z" fill="#CC8F66"/>
<path d="M217.564 26.1152H44.1028V140.555H217.564V26.1152Z" fill="#161742"/>
<g opacity="0.52">
<path d="M217.56 95.8477H205.53V140.55H217.56V95.8477Z" fill="#1D478E"/>
<path d="M205.53 95.8477H193.5V140.55H205.53V95.8477Z" fill="#161742"/>
<path d="M193.5 95.8477H181.47V140.55H193.5V95.8477Z" fill="#1D478E"/>
<path d="M181.466 95.8477H169.436V140.55H181.466V95.8477Z" fill="#161742"/>
<path d="M169.436 95.8477H157.406V140.55H169.436V95.8477Z" fill="#1D478E"/>
<path d="M157.406 95.8477H145.375V140.55H157.406V95.8477Z" fill="#161742"/>
<path d="M145.375 95.8477H133.345V140.55H145.375V95.8477Z" fill="#1D478E"/>
<path d="M133.345 95.8477H121.315V140.55H133.345V95.8477Z" fill="#161742"/>
<path d="M121.315 95.8477H109.285V140.55H121.315V95.8477Z" fill="#1D478E"/>
<path d="M109.281 95.8477H97.251V140.55H109.281V95.8477Z" fill="#161742"/>
</g>
<path d="M97.2512 38.8672H46.7346V140.551H97.2512V38.8672Z" fill="#1D478E"/>
<path d="M63.6663 0H48.7388V1.89604H63.6663V0Z" fill="#0E2C5E"/>
<path d="M78.5938 0H63.6663V1.89604H78.5938V0Z" fill="#0E2C5E"/>
<path d="M93.5169 0H78.5894V1.89604H93.5169V0Z" fill="#0E2C5E"/>
<path d="M108.445 0H93.5171V1.89604H108.445V0Z" fill="#0E2C5E"/>
<path d="M123.368 0H108.44V1.89604H123.368V0Z" fill="#0E2C5E"/>
<path d="M138.295 0H123.368V1.89604H138.295V0Z" fill="#0E2C5E"/>
<path d="M153.223 0H138.295V1.89604H153.223V0Z" fill="#0E2C5E"/>
<path d="M168.146 0H153.218V1.89604H168.146V0Z" fill="#0E2C5E"/>
<path d="M183.073 0H168.146V1.89604H183.073V0Z" fill="#0E2C5E"/>
<path d="M198.001 0H183.073V1.89604H198.001V0Z" fill="#0E2C5E"/>
<path d="M212.924 0H197.997V1.89604H212.924V0Z" fill="#0E2C5E"/>
<path d="M52.8258 27.9629H35.4932C35.4932 32.2669 38.9963 35.7597 43.3229 35.7597H45.0004C49.3227 35.7597 52.8302 32.2713 52.8302 27.9629H52.8258Z" fill="#0E2C5E"/>
<path d="M70.1586 27.9629H52.8259C52.8259 32.2669 56.3291 35.7597 60.6557 35.7597H62.3332C66.6555 35.7597 70.1629 32.2713 70.1629 27.9629H70.1586Z" fill="#32B353"/>
<path d="M87.4955 27.9629H70.1628C70.1628 32.2669 73.666 35.7597 77.9926 35.7597H79.6701C83.9924 35.7597 87.4999 32.2713 87.4999 27.9629H87.4955Z" fill="#0E2C5E"/>
<path d="M104.828 27.9629H87.4956C87.4956 32.2669 90.9987 35.7597 95.3254 35.7597H97.0029C101.325 35.7597 104.833 32.2713 104.833 27.9629H104.828Z" fill="#32B353"/>
<path d="M122.165 27.9629H104.833C104.833 32.2669 108.336 35.7597 112.662 35.7597H114.34C118.662 35.7597 122.17 32.2713 122.17 27.9629H122.165Z" fill="#0E2C5E"/>
<path d="M139.498 27.9629H122.165C122.165 32.2669 125.668 35.7597 129.995 35.7597H131.672C135.995 35.7597 139.502 32.2713 139.502 27.9629H139.498Z" fill="#32B353"/>
<path d="M156.835 27.9629H139.502C139.502 32.2669 143.005 35.7597 147.332 35.7597H149.009C153.332 35.7597 156.839 32.2713 156.839 27.9629H156.835Z" fill="#0E2C5E"/>
<path d="M174.167 27.9629H156.835C156.835 32.2669 160.338 35.7597 164.664 35.7597H166.342C170.664 35.7597 174.172 32.2713 174.172 27.9629H174.167Z" fill="#32B353"/>
<path d="M191.5 27.9629H174.167C174.167 32.2669 177.671 35.7597 181.997 35.7597H183.675C187.997 35.7597 191.504 32.2713 191.504 27.9629H191.5Z" fill="#0E2C5E"/>
<path d="M208.837 27.9629H191.504C191.504 32.2669 195.008 35.7597 199.334 35.7597H201.012C205.334 35.7597 208.841 32.2713 208.841 27.9629H208.837Z" fill="#32B353"/>
<path d="M226.17 27.9629H208.837C208.837 32.2669 212.34 35.7597 216.667 35.7597H218.344C222.667 35.7597 226.174 32.2713 226.174 27.9629H226.17Z" fill="#0E2C5E"/>
<path d="M63.6664 1.89648L52.8258 27.9638H35.4932L48.7388 1.89648H63.6664Z" fill="#1D478E"/>
<path d="M78.5894 1.89648L70.1583 27.9638H52.8257L63.6662 1.89648H78.5894Z" fill="#32B353"/>
<path d="M93.517 1.89648L87.4955 27.9638H70.1584L78.5895 1.89648H93.517Z" fill="#1D478E"/>
<path d="M108.44 1.89648L104.828 27.9638H87.4954L93.5169 1.89648H108.44Z" fill="#32B353"/>
<path d="M123.368 1.89648L122.165 27.9638H104.828L108.44 1.89648H123.368Z" fill="#1D478E"/>
<path d="M197.997 1.89648L208.837 27.9638H226.17L212.924 1.89648H197.997Z" fill="#1D478E"/>
<path d="M183.073 1.89648L191.5 27.9638H208.837L197.997 1.89648H183.073Z" fill="#32B353"/>
<path d="M168.146 1.89648L174.167 27.9638H191.5L183.073 1.89648H168.146Z" fill="#1D478E"/>
<path d="M153.218 1.89648L156.835 27.9638H174.167L168.146 1.89648H153.218Z" fill="#32B353"/>
<path d="M138.295 1.89648L139.498 27.9638H156.835L153.218 1.89648H138.295Z" fill="#1D478E"/>
<path d="M138.295 1.89648L139.424 27.9638H122.091L123.368 1.89648H138.295Z" fill="#32B353"/>
<path d="M221.529 92.2734H93.7V95.8486H221.529V92.2734Z" fill="#000103"/>
<path d="M106.584 92.2734H102.698V109.798H106.584V92.2734Z" fill="#000103"/>
<path d="M212.536 92.2734H208.65V109.798H212.536V92.2734Z" fill="#000103"/>
<path d="M217.564 137.152H44.1028V140.55H217.564V137.152Z" fill="#000103"/>
<path d="M94.4014 88.6588V41.709H49.584V88.6588H94.4014Z" fill="#CAE7ED"/>
<path d="M73.4174 41.709H70.5679V88.6588H73.4174V41.709Z" fill="#1D478E"/>
<path d="M95.5691 63.7637H48.4207V66.6012H95.5691V63.7637Z" fill="#1D478E"/>
<path d="M214.149 38.8672H101.081V92.2731H214.149V38.8672Z" fill="#5BC4F0" fill-opacity="0.3"/>
<path d="M211.356 41.9336H151.027V82.0628H211.356V41.9336Z" fill="#000103"/>
<path d="M209.613 43.6699H152.77V80.3282H209.613V43.6699Z" fill="#161742"/>
<path d="M116.091 53.4674C116.091 54.2614 115.446 54.9035 114.649 54.9035C113.852 54.9035 113.207 54.2614 113.207 53.4674C113.207 52.6734 113.852 52.0312 114.649 52.0312C115.446 52.0312 116.091 52.6734 116.091 53.4674Z" fill="#EBEBEB"/>
<path d="M114.649 50.8503C113.952 50.8503 113.385 50.2862 113.385 49.592V45.2446C113.385 44.5504 113.952 43.9863 114.649 43.9863C115.346 43.9863 115.913 44.5504 115.913 45.2446V49.592C115.913 50.2862 115.346 50.8503 114.649 50.8503Z" fill="#000103"/>
<path d="M114.649 48.1426C112.013 48.1426 109.874 50.2729 109.874 52.8979H119.429C119.429 50.2729 117.29 48.1426 114.654 48.1426H114.649Z" fill="#1D478E"/>
<path d="M119.551 53.4664H109.747C109.59 53.4664 109.464 53.3406 109.464 53.1844C109.464 53.0282 109.59 52.9023 109.747 52.9023H119.551C119.708 52.9023 119.834 53.0282 119.834 53.1844C119.834 53.3406 119.708 53.4664 119.551 53.4664Z" fill="#161742"/>
<path d="M114.649 44.3514V38.8672" stroke="#000103" stroke-width="0.5" stroke-miterlimit="10"/>
<path style="mix-blend-mode:screen" opacity="0.25" d="M125.37 92.0443H104.121L109.884 53.957H119.607L125.37 92.0443Z" fill="url(#paint0_linear_351_1888)"/>
<path d="M138.069 53.4674C138.069 54.2614 137.424 54.9035 136.626 54.9035C135.829 54.9035 135.184 54.2614 135.184 53.4674C135.184 52.6734 135.829 52.0312 136.626 52.0312C137.424 52.0312 138.069 52.6734 138.069 53.4674Z" fill="#EBEBEB"/>
<path d="M136.626 50.8503C135.929 50.8503 135.363 50.2862 135.363 49.592V45.2446C135.363 44.5504 135.929 43.9863 136.626 43.9863C137.323 43.9863 137.89 44.5504 137.89 45.2446V49.592C137.89 50.2862 137.323 50.8503 136.626 50.8503Z" fill="#000103"/>
<path d="M136.626 48.1426C133.99 48.1426 131.851 50.2729 131.851 52.8979H141.406C141.406 50.2729 139.267 48.1426 136.631 48.1426H136.626Z" fill="#1D478E"/>
<path d="M141.528 53.4664H131.725C131.568 53.4664 131.441 53.3406 131.441 53.1844C131.441 53.0282 131.568 52.9023 131.725 52.9023H141.528C141.685 52.9023 141.811 53.0282 141.811 53.1844C141.811 53.3406 141.685 53.4664 141.528 53.4664Z" fill="#161742"/>
<path d="M136.626 44.3514V38.8672" stroke="#000103" stroke-width="0.5" stroke-miterlimit="10"/>
<path style="mix-blend-mode:screen" opacity="0.25" d="M146.619 92.0443H126.432L131.908 53.957H141.144L146.619 92.0443Z" fill="url(#paint1_linear_351_1888)"/>
<path d="M180.05 53.4674C180.05 54.2614 179.405 54.9035 178.608 54.9035C177.81 54.9035 177.166 54.2614 177.166 53.4674C177.166 52.6734 177.81 52.0312 178.608 52.0312C179.405 52.0312 180.05 52.6734 180.05 53.4674Z" fill="#EBEBEB"/>
<path d="M178.608 50.8503C177.91 50.8503 177.344 50.2862 177.344 49.592V45.2446C177.344 44.5504 177.91 43.9863 178.608 43.9863C179.305 43.9863 179.871 44.5504 179.871 45.2446V49.592C179.871 50.2862 179.305 50.8503 178.608 50.8503Z" fill="#000103"/>
<path d="M178.607 48.1426C175.971 48.1426 173.832 50.2729 173.832 52.8979H183.387C183.387 50.2729 181.248 48.1426 178.612 48.1426H178.607Z" fill="#1D478E"/>
<path d="M183.509 53.4664H173.706C173.549 53.4664 173.423 53.3406 173.423 53.1844C173.423 53.0282 173.549 52.9023 173.706 52.9023H183.509C183.666 52.9023 183.793 53.0282 183.793 53.1844C183.793 53.3406 183.666 53.4664 183.509 53.4664Z" fill="#161742"/>
<path d="M178.607 44.3514V38.8672" stroke="#000103" stroke-width="0.5" stroke-miterlimit="10"/>
<path style="mix-blend-mode:screen" opacity="0.25" d="M189.118 92.0443H167.868L173.633 53.957H183.353L189.118 92.0443Z" fill="url(#paint2_linear_351_1888)"/>
<path d="M202.023 53.4674C202.023 54.2614 201.378 54.9035 200.58 54.9035C199.783 54.9035 199.138 54.2614 199.138 53.4674C199.138 52.6734 199.783 52.0312 200.58 52.0312C201.378 52.0312 202.023 52.6734 202.023 53.4674Z" fill="#EBEBEB"/>
<path d="M200.58 50.8503C199.883 50.8503 199.317 50.2862 199.317 49.592V45.2446C199.317 44.5504 199.883 43.9863 200.58 43.9863C201.278 43.9863 201.844 44.5504 201.844 45.2446V49.592C201.844 50.2862 201.278 50.8503 200.58 50.8503Z" fill="#000103"/>
<path d="M200.581 48.1426C197.945 48.1426 195.805 50.2729 195.805 52.8979H205.36C205.36 50.2729 203.221 48.1426 200.585 48.1426H200.581Z" fill="#1D478E"/>
<path d="M205.482 53.4664H195.679C195.522 53.4664 195.396 53.3406 195.396 53.1844C195.396 53.0282 195.522 52.9023 195.679 52.9023H205.482C205.639 52.9023 205.765 53.0282 205.765 53.1844C205.765 53.3406 205.639 53.4664 205.482 53.4664Z" fill="#161742"/>
<path d="M200.581 44.3514V38.8672" stroke="#000103" stroke-width="0.5" stroke-miterlimit="10"/>
<path style="mix-blend-mode:screen" opacity="0.25" d="M211.429 92.0443H190.18L195.944 53.957H205.666L211.429 92.0443Z" fill="url(#paint3_linear_351_1888)"/>
<path d="M143.742 85.8496H138.931V86.2922H143.742V85.8496Z" fill="#FFF3EB"/>
<path d="M143.092 92.2718H139.58L139.171 86.293H143.502L143.092 92.2718Z" fill="#5BC4F0"/>
<path d="M143.502 85.8501H139.171L139.376 85.3164H143.297L143.502 85.8501Z" fill="#FFF3EB"/>
<path d="M141.336 90.5885C142.061 90.5885 142.648 90.0038 142.648 89.2825C142.648 88.5613 142.061 87.9766 141.336 87.9766C140.612 87.9766 140.025 88.5613 140.025 89.2825C140.025 90.0038 140.612 90.5885 141.336 90.5885Z" fill="#FFF3EB"/>
<path d="M114 92.2718H124.976L126.2 77.75H115.229L114 92.2718Z" fill="#161742"/>
<path d="M127.429 92.2718H116.457L115.229 77.75H126.2L127.429 92.2718Z" fill="#5BC4F0"/>
<path d="M126.2 76.8906H115.229V77.754H126.2V76.8906Z" fill="#FFF3EB"/>
<path d="M121.329 89.1076C123.6 89.1076 125.442 87.2739 125.442 85.0118C125.442 82.7498 123.6 80.916 121.329 80.916C119.057 80.916 117.216 82.7498 117.216 85.0118C117.216 87.2739 119.057 89.1076 121.329 89.1076Z" fill="#FFF3EB"/>
<path d="M123.25 92.2709H131.494L132.413 81.3633H124.174L123.25 92.2709Z" fill="#161742"/>
<path d="M133.337 92.2709H125.093L124.174 81.3633H132.413L133.337 92.2709Z" fill="#5BC4F0"/>
<path d="M132.413 80.7168H124.174V81.3633H132.413V80.7168Z" fill="#FFF3EB"/>
<path d="M131.847 86.8164C131.847 88.5172 130.461 89.8926 128.758 89.8926C127.054 89.8926 125.668 88.5129 125.668 86.8164C125.668 85.12 127.054 83.7402 128.758 83.7402C130.461 83.7402 131.847 85.12 131.847 86.8164Z" fill="#FFF3EB"/>
<path d="M39.2927 124.046C39.2927 124.046 38.1424 119.173 39.2927 115.316C40.443 111.459 44.9047 106.934 47.8545 104.838C50.8043 102.743 55.3444 99.2238 56.4424 96.959C56.4424 96.959 58.3421 104.504 54.5296 109.281C50.7171 114.058 42.2164 119.759 39.2971 124.046H39.2927Z" fill="#207739"/>
<path d="M37.4758 133.86C37.2013 127.725 39.82 121.785 43.249 116.682C46.6781 111.576 50.935 107.072 54.5253 102.078" stroke="#161742" stroke-width="0.4" stroke-linecap="round" stroke-linejoin="round"/>
<path d="M44.948 123.269C44.948 123.269 49.3356 116.6 58.259 117.017C67.1824 117.433 72.7378 120.132 72.7378 120.132C72.7378 120.132 69.0342 124.31 62.8035 124.31C56.5728 124.31 47.7148 126.753 44.948 123.269Z" fill="#32B353"/>
<path d="M38.5605 136.128C38.5605 136.128 39.2141 125.064 46.2117 122.717C53.2092 120.37 66.5115 121.042 66.5115 121.042" stroke="#161742" stroke-width="0.4" stroke-linecap="round" stroke-linejoin="round"/>
<path d="M34.3996 128.154C34.3996 128.154 34.9181 121.811 29.0882 117.72C23.2628 113.628 18.4351 112.617 18.4351 112.617C18.4351 112.617 18.7139 117.056 22.6353 120.097C26.5611 123.139 30.94 128.996 34.3952 128.154H34.3996Z" fill="#32B353"/>
<path d="M37.454 139.373C37.454 139.373 37.1316 132.084 33.8768 127.19C30.622 122.296 21.9165 116.23 21.9165 116.23" stroke="#161742" stroke-width="0.4" stroke-linecap="round" stroke-linejoin="round"/>
<path d="M43.9373 130.12C43.9373 130.12 45.3925 128.042 49.5885 127.044C53.7844 126.046 61.5836 128.853 64.8253 131.543C64.8253 131.543 59.8451 130.528 57.1437 131.543C51.2616 133.756 46.216 131.86 43.9373 130.116V130.12Z" fill="#207739"/>
<path d="M39.9767 136.446C39.9767 136.446 38.3254 126.284 57.6797 129.543" stroke="#161742" stroke-width="0.4" stroke-linecap="round" stroke-linejoin="round"/>
<path d="M46.6649 135.656L46.5778 136.129L44.9656 145.045H33.8157L32.2036 136.129L32.1165 135.656H46.6649Z" fill="#FFF3EB"/>
<path d="M48.0243 132.064H30.7527V135.657H48.0243V132.064Z" fill="#FFF3EB"/>
<path d="M46.6649 135.656L46.5778 136.129H32.2036L32.1165 135.656H46.6649Z" fill="#DB9C72"/>
<path d="M123.869 111.896L123.799 112.873L121.385 145.183H117.734L120.139 112.873L120.213 111.896H123.869Z" fill="#FFF3EB"/>
<path d="M137.642 145.183H133.99L131.581 112.873L131.507 111.896H135.167L135.237 112.873L137.642 145.183Z" fill="#FFF3EB"/>
<path d="M137.45 108H117.734V111.901H137.45V108Z" fill="#FFF3EB"/>
<path d="M123.869 111.896L123.799 112.873H120.139L120.213 111.896H123.869Z" fill="#D19466"/>
<path d="M135.237 112.873H131.581L131.507 111.896H135.167L135.237 112.873Z" fill="#D19466"/>
<path d="M135.162 132.055H120.213V135.304H135.162V132.055Z" fill="#FFF3EB"/>
<path d="M178.773 111.896L178.703 112.873L176.289 145.183H172.638L175.043 112.873L175.113 111.896H178.773Z" fill="#FFF3EB"/>
<path d="M192.546 145.183H188.895L186.481 112.873L186.411 111.896H190.071L190.141 112.873L192.546 145.183Z" fill="#FFF3EB"/>
<path d="M192.35 108H172.634V111.901H192.35V108Z" fill="#FFF3EB"/>
<path d="M178.773 111.896L178.703 112.873H175.043L175.113 111.896H178.773Z" fill="#D19466"/>
<path d="M190.141 112.873H186.481L186.411 111.896H190.071L190.141 112.873Z" fill="#D19466"/>
<path d="M190.066 132.055H175.117V135.304H190.066V132.055Z" fill="#FFF3EB"/>
<defs>
<linearGradient id="paint0_linear_351_1888" x1="114.743" y1="43.0819" x2="114.743" y2="80.4251" gradientUnits="userSpaceOnUse">
<stop stop-color="#FFE0B2"/>
<stop offset="1" stop-opacity="0"/>
</linearGradient>
<linearGradient id="paint1_linear_351_1888" x1="136.528" y1="-47.5749" x2="136.528" y2="-47.5749" gradientUnits="userSpaceOnUse">
<stop stop-color="#FFE0B2"/>
<stop offset="1" stop-opacity="0"/>
</linearGradient>
<linearGradient id="paint2_linear_351_1888" x1="178.493" y1="-47.5749" x2="178.493" y2="-47.5749" gradientUnits="userSpaceOnUse">
<stop stop-color="#FFE0B2"/>
<stop offset="1" stop-opacity="0"/>
</linearGradient>
<linearGradient id="paint3_linear_351_1888" x1="200.803" y1="-47.5749" x2="200.803" y2="-47.5749" gradientUnits="userSpaceOnUse">
<stop stop-color="#FFE0B2"/>
<stop offset="1" stop-opacity="0"/>
</linearGradient>
</defs>
</svg>
