<svg width="299" height="244" viewBox="0 0 299 244" fill="none" xmlns="http://www.w3.org/2000/svg">
<path d="M129 147C129 181.794 100.122 210 64.5 210C28.8776 210 0 181.794 0 147C0 112.206 28.8776 84 64.5 84C100.122 84 129 112.206 129 147Z" fill="#5BC4F0" fill-opacity="0.1"/>
<path d="M273 134.435C276.529 136.1 278.955 138.656 280.611 141.86C282.266 138.656 284.702 136.09 288.232 134.425C284.702 132.76 282.266 130.204 280.611 127C278.955 130.204 276.529 132.77 273 134.435Z" fill="#FFD325"/>
<path d="M215 92.1958C217.941 93.5834 219.963 95.7133 221.342 98.3836C222.722 95.7133 224.752 93.5754 227.693 92.1878C224.752 90.8001 222.722 88.6703 221.342 86C219.963 88.6703 217.941 90.8082 215 92.1958Z" fill="#AF8E2F"/>
<path d="M115 4.0026C117.085 4.89902 118.519 6.27492 119.497 8C120.475 6.27492 121.915 4.8938 124 3.99738C121.915 3.10097 120.475 1.72508 119.497 0C118.519 1.72508 117.085 3.10618 115 4.0026Z" fill="#FFD325"/>
<path d="M9 76.9133C13.7059 79.1335 16.9404 82.5412 19.1476 86.8138C21.3548 82.5412 24.6032 79.1206 29.3091 76.9004C24.6032 74.6802 21.3548 71.2725 19.1476 67C16.9404 71.2725 13.7059 74.6932 9 76.9133Z" fill="#FFD325"/>
<path d="M263 22.9567C265.353 24.0668 266.97 25.7706 268.074 27.9069C269.177 25.7706 270.802 24.0603 273.155 22.9502C270.802 21.8401 269.177 20.1363 268.074 18C266.97 20.1363 265.353 21.8466 263 22.9567Z" fill="#AF8E2F"/>
<path d="M154 244C234.081 244 299 239.299 299 233.5C299 227.701 234.081 223 154 223C73.9187 223 9 227.701 9 233.5C9 239.299 73.9187 244 154 244Z" fill="#5BC4F0" fill-opacity="0.2"/>
<path d="M262.702 138.416H159.574C157.048 138.416 155 140.462 155 142.987V213.146C155 215.671 157.048 217.717 159.574 217.717H262.702C265.228 217.717 267.276 215.671 267.276 213.146V142.987C267.276 140.462 265.228 138.416 262.702 138.416Z" fill="#1D478E"/>
<path d="M263.866 146.648V209.49C263.866 212.149 261.71 214.308 259.045 214.308H251.769V145.907H161.191C160.066 145.907 159.156 144.997 159.156 143.873C159.156 142.749 160.066 141.84 161.191 141.84H259.045C261.706 141.84 263.866 143.995 263.866 146.658V146.648Z" fill="#161742"/>
<path d="M189.378 113.008C177.57 112.686 167.741 121.991 167.414 133.795C167.092 145.595 176.403 155.422 188.215 155.744C200.023 156.066 209.857 146.761 210.179 134.957C210.501 123.157 201.19 113.335 189.378 113.008ZM206.006 134.84C205.88 139.434 203.971 143.702 200.63 146.864C197.293 150.026 192.925 151.7 188.327 151.574C178.839 151.313 171.33 143.394 171.587 133.907C171.713 129.313 173.617 125.046 176.958 121.884C180.179 118.833 184.36 117.168 188.785 117.168C188.948 117.168 189.102 117.168 189.266 117.178C198.6 117.43 206.011 125.102 206.011 134.369C206.011 134.528 206.011 134.681 206.011 134.84H206.006Z" fill="#FFD325"/>
<path d="M202.117 123.478C202.215 123.599 202.318 123.721 202.411 123.846C205.221 127.48 206.448 131.994 205.865 136.556C205.281 141.112 202.962 145.17 199.321 147.982C191.812 153.784 180.98 152.399 175.174 144.89C172.365 141.257 171.132 136.747 171.716 132.186C172.281 127.787 174.465 123.851 177.886 121.057C178.012 120.955 178.133 120.862 178.264 120.759C185.652 115.05 196.246 116.3 202.122 123.478H202.117Z" fill="#AF8E2F"/>
<path d="M195.118 131.7C195.038 131.621 194.942 131.575 194.816 131.571L192.542 131.497C192.415 130.76 192.154 130.11 191.751 129.557L194.852 129.659C194.978 129.659 195.078 129.625 195.162 129.55C195.246 129.47 195.288 129.373 195.292 129.248L195.337 127.893C195.341 127.768 195.303 127.667 195.227 127.583C195.148 127.499 195.047 127.458 194.925 127.454L183.856 127.095C183.734 127.091 183.629 127.125 183.545 127.205C183.466 127.28 183.42 127.381 183.416 127.507L183.359 129.276C183.355 129.389 183.392 129.494 183.476 129.578C183.556 129.666 183.657 129.712 183.77 129.711L185.7 129.772C187.572 129.834 188.743 130.373 189.218 131.392L183.721 131.212C183.6 131.213 183.495 131.246 183.411 131.322C183.327 131.397 183.285 131.498 183.281 131.624L183.236 132.978C183.236 133.104 183.27 133.204 183.346 133.288C183.421 133.372 183.522 133.414 183.648 133.418L189.329 133.605C189.108 134.326 188.634 134.864 187.909 135.221C187.183 135.578 186.235 135.738 185.064 135.697L183.575 135.648C183.457 135.648 183.356 135.686 183.268 135.766C183.18 135.85 183.134 135.946 183.13 136.06L183.073 137.749C183.069 137.867 183.107 137.963 183.183 138.047C184.829 139.911 186.951 142.512 189.56 145.855C189.635 145.964 189.744 146.019 189.887 146.027L192.48 146.112C192.665 146.121 192.799 146.045 192.874 145.886C192.967 145.726 192.958 145.575 192.836 145.429C190.353 142.169 188.391 139.731 186.963 138.102C188.478 137.974 189.715 137.525 190.684 136.761C191.652 135.993 192.255 134.977 192.502 133.707L194.738 133.78C194.86 133.78 194.965 133.746 195.044 133.671C195.128 133.595 195.17 133.495 195.174 133.369L195.219 132.015C195.219 131.889 195.185 131.788 195.11 131.704L195.118 131.7Z" fill="#DCB414"/>
<path d="M247.113 138.562C247.211 138.683 247.314 138.804 247.407 138.93C250.217 142.564 251.444 147.078 250.861 151.64C250.277 156.196 247.958 160.254 244.318 163.066C236.808 168.868 225.976 167.483 220.17 159.974C217.361 156.341 216.129 151.831 216.712 147.27C217.277 142.871 219.461 138.935 222.882 136.141C223.008 136.039 223.129 135.945 223.26 135.843C230.648 130.134 241.242 131.384 247.118 138.562H247.113Z" fill="#AF8E2F"/>
<path d="M240.122 143.267C240.042 143.187 239.946 143.141 239.82 143.137L237.545 143.064C237.419 142.326 237.158 141.676 236.755 141.123L239.856 141.225C239.982 141.225 240.082 141.191 240.166 141.116C240.25 141.036 240.292 140.94 240.296 140.814L240.341 139.46C240.345 139.334 240.307 139.233 240.231 139.15C240.151 139.066 240.051 139.024 239.929 139.02L228.86 138.662C228.738 138.658 228.633 138.691 228.549 138.771C228.47 138.847 228.424 138.947 228.42 139.073L228.363 140.842C228.358 140.955 228.396 141.06 228.48 141.144C228.56 141.232 228.661 141.278 228.774 141.278L230.704 141.339C232.576 141.4 233.747 141.94 234.222 142.958L228.725 142.779C228.604 142.779 228.499 142.813 228.415 142.888C228.331 142.964 228.289 143.064 228.285 143.19L228.24 144.544C228.24 144.67 228.274 144.771 228.35 144.854C228.425 144.938 228.526 144.98 228.652 144.984L234.333 145.172C234.112 145.893 233.638 146.43 232.913 146.787C232.187 147.144 231.239 147.304 230.068 147.263L228.579 147.215C228.461 147.215 228.36 147.253 228.272 147.332C228.184 147.416 228.138 147.513 228.134 147.626L228.077 149.316C228.073 149.433 228.111 149.529 228.186 149.613C229.833 151.477 231.955 154.079 234.563 157.422C234.639 157.531 234.748 157.585 234.891 157.593L237.484 157.679C237.669 157.687 237.803 157.611 237.878 157.452C237.97 157.293 237.962 157.142 237.84 156.995C235.357 153.736 233.395 151.298 231.967 149.668C233.482 149.541 234.719 149.091 235.688 148.327C236.656 147.559 237.259 146.544 237.506 145.273L239.742 145.347C239.864 145.346 239.969 145.313 240.048 145.237C240.132 145.162 240.174 145.061 240.178 144.935L240.223 143.581C240.223 143.455 240.189 143.355 240.114 143.271L240.122 143.267Z" fill="#DCB414"/>
<path d="M239.201 128.772C227.776 125.783 216.085 132.616 213.093 144.038C210.102 155.455 216.939 167.138 228.369 170.128C239.793 173.117 251.484 166.285 254.476 154.863C257.468 143.445 250.63 131.762 239.201 128.772ZM250.444 153.808C249.277 158.253 246.453 161.98 242.482 164.298C238.515 166.62 233.88 167.259 229.428 166.093C220.248 163.691 214.731 154.27 217.135 145.092C218.302 140.647 221.121 136.92 225.092 134.598C228.919 132.359 233.372 131.687 237.679 132.685C237.838 132.723 237.987 132.76 238.146 132.802C247.181 135.162 252.661 144.313 250.556 153.342C250.518 153.496 250.486 153.645 250.444 153.799V153.808Z" fill="#FFD325"/>
<path d="M255.524 145.986H159.434C156.985 145.986 155 147.97 155 150.417V219.854C155 222.301 156.985 224.285 159.434 224.285H255.524C257.973 224.285 259.958 222.301 259.958 219.854V150.417C259.958 147.97 257.973 145.986 255.524 145.986Z" fill="#1D478E"/>
<path d="M195.071 221.203H163.503C161.127 221.203 159.195 219.273 159.195 216.899V210.826H159.695V216.899C159.695 218.997 161.403 220.704 163.503 220.704H195.071V221.203Z" fill="#161742"/>
<path d="M255.762 161.737H255.262V153.365C255.262 151.267 253.554 149.56 251.454 149.56H210.234V149.061H251.454C253.829 149.061 255.762 150.991 255.762 153.365V161.737Z" fill="#161742"/>
<path d="M159.695 192.369H159.195V204.188H159.695V192.369Z" fill="#161742"/>
<path d="M267.142 169.055V191.18C267.142 193.96 264.892 196.213 262.106 196.213H242.952C236.829 196.213 231.863 191.25 231.863 185.131C231.863 182.072 233.105 179.301 235.112 177.296C237.118 175.29 239.891 174.05 242.952 174.05H262.106C262.246 174.05 262.386 174.054 262.526 174.068C265.111 173.854 267.137 171.69 267.137 169.055H267.142Z" fill="#161742"/>
<path d="M245.601 188.794C247.622 186.774 247.622 183.499 245.601 181.479C243.579 179.459 240.302 179.459 238.281 181.479C236.26 183.499 236.26 186.774 238.281 188.794C240.302 190.814 243.579 190.814 245.601 188.794Z" fill="white"/>
<path d="M164 103C164.927 103.448 165.562 104.135 166 105C166.438 104.139 167.073 103.448 168 103C167.073 102.552 166.433 101.865 166 101C165.562 101.861 164.927 102.552 164 103Z" fill="#AF8E2F"/>
<path d="M198.645 86.6776L163.631 103.539L198.645 110.719L198.645 86.6776Z" fill="#FFD325"/>
<path d="M69.5635 91.1109L106.508 100.913L69.5635 110.719L69.5635 91.1109Z" fill="#FFD325"/>
<path d="M168.754 56.0761L157.536 74.1875L190.57 56.0985L168.754 56.0761Z" fill="#FFD325"/>
<path d="M113.953 56.3117L122.566 70.2168L97.2009 56.3285L113.953 56.3117Z" fill="#FFD325"/>
<path d="M92.8648 56.3134L105.137 76.123L69.0001 56.3386L92.8648 56.3134Z" fill="#FFD325"/>
<path d="M152.304 56.2105L148.936 65.2676L159.836 56.0984L152.304 56.2105Z" fill="#FFD325"/>
<path d="M121.989 56.0985L132.402 66.3887L129.985 56.0985L121.989 56.0985Z" fill="#FFD325"/>
<path d="M136.867 56.0979L138.921 65.3652L145.973 55.9999L136.867 56.0979Z" fill="#FFD325"/>
<path d="M198.645 56.7013L165.524 86.6777L198.645 80.7424L198.645 56.7013Z" fill="#FFD325"/>
<path d="M69.2892 61.1349L102.41 91.1113L69.2892 85.176L69.2892 61.1349Z" fill="#FFD325"/>
<path d="M168.973 65H101.789C95.7741 65 90.8984 69.86 90.8984 75.855V222.791C90.8984 228.787 95.7741 233.646 101.789 233.646H168.973C174.988 233.646 179.863 228.787 179.863 222.791V75.855C179.863 69.86 174.988 65 168.973 65Z" fill="#1C004F"/>
<path d="M169.624 69.1758H101.148C97.621 69.1758 94.7617 72.0258 94.7617 75.5415V223.093C94.7617 226.608 97.621 229.458 101.148 229.458H169.624C173.151 229.458 176.01 226.608 176.01 223.093V75.5415C176.01 72.0258 173.151 69.1758 169.624 69.1758Z" fill="white"/>
<path d="M116.149 67.0879H154.936V72.8004C154.936 76.1241 152.231 78.8267 148.89 78.8267H121.874C118.539 78.8267 115.828 76.1305 115.828 72.8004V67.4081C115.828 67.2288 115.969 67.0879 116.149 67.0879Z" fill="#1C004F"/>
<path d="M74.1856 181.458C73.9902 180.376 73.6943 179.306 73.3594 178.246L75.0899 187.653C74.8108 185.584 74.5596 183.51 74.1856 181.458Z" fill="#32B353"/>
<path d="M79.3361 201.833L76.8018 188.082C76.9525 189.164 77.1088 190.24 77.2651 191.305C77.0251 189.967 76.8353 188.623 76.6567 187.279L74.8815 177.649C74.2284 175.597 73.419 173.573 72.7882 171.527C70.533 164.239 68.127 156.996 65.5592 149.808C64.56 147.015 63.4993 144.16 61.5623 141.918C61.1995 144.951 61.4507 147.561 61.4674 148.71C61.4953 151.135 61.5902 153.561 61.7577 155.981C62.0145 159.767 62.5727 163.514 63.103 167.267C63.6166 170.902 63.4994 174.672 63.8901 178.369C63.8455 178.257 63.7952 178.151 63.7506 178.045L69.9971 200.422C70.7507 200.634 71.5489 200.751 72.3193 200.857C74.6582 201.181 76.9972 201.51 79.3361 201.833Z" fill="#32B353"/>
<path d="M73.7279 204.778C73.5437 204.778 73.3874 204.638 73.3706 204.454C72.4942 194.992 70.3395 185.551 68.2573 176.418C66.2588 167.652 64.1879 158.591 63.2445 149.502C63.2221 149.307 63.3673 149.128 63.5626 149.112C63.758 149.089 63.9367 149.234 63.9534 149.429C64.8912 158.474 66.9567 167.518 68.9495 176.262C71.0373 185.417 73.1976 194.886 74.0795 204.393C74.0963 204.588 73.9512 204.761 73.7558 204.783C73.7446 204.783 73.7335 204.783 73.7223 204.783L73.7279 204.778Z" fill="#161742"/>
<path d="M54 165.973C57.6452 172.809 60.6819 179.969 63.0711 187.34C63.7019 189.281 64.2769 191.243 65.0026 193.15C65.611 194.768 67.4029 197.137 67.3527 198.738C67.4811 198.838 67.6262 198.938 67.7713 199.039C67.9109 199.134 68.0449 199.234 68.1733 199.34C68.8041 199.875 69.5577 200.204 70.3559 200.427L64.1094 178.05C62.0496 173.138 58.4825 168.867 54.0056 165.978L54 165.973Z" fill="#32B353"/>
<path d="M66.7458 194.21C66.6007 194.21 66.4611 194.121 66.4109 193.97L59.7513 175.251C59.6843 175.067 59.7848 174.861 59.969 174.794C60.1532 174.727 60.3598 174.828 60.4268 175.012L67.0863 193.731C67.1533 193.915 67.0528 194.121 66.8686 194.188C66.8296 194.205 66.7905 194.21 66.7514 194.21H66.7458Z" fill="#161742"/>
<path d="M91.25 193.245L92.4949 186.113C91.9366 188.466 91.5235 190.847 91.25 193.245Z" fill="#32B353"/>
<path d="M91.6471 122.211C84.8256 142.463 81.7553 163.97 82.6373 185.321C82.5648 184.54 82.4866 183.754 82.4141 182.973L83.6477 202.674C84.6916 202.819 85.7355 202.964 86.7738 203.109C87.7004 203.237 88.6662 203.354 89.6319 203.415L91.3345 193.646C92.0881 181.897 94.0697 170.249 94.9685 158.5C95.9007 146.305 95.6104 133.787 91.6471 122.211Z" fill="#32B353"/>
<path d="M84.0109 214.245C83.9718 214.245 83.9383 214.239 83.8992 214.228C83.7094 214.167 83.6089 213.966 83.6703 213.777C86.0819 206.288 86.5563 198.297 87.0141 190.575L90.3188 134.881C90.3299 134.686 90.503 134.529 90.6983 134.546C90.8937 134.557 91.0445 134.725 91.0333 134.925L87.7286 190.619C87.2653 198.387 86.7908 206.422 84.3514 214C84.3011 214.15 84.1616 214.245 84.0109 214.245Z" fill="#161742"/>
<path d="M83.1606 182.974C80.9723 160.202 78.3319 137.172 69.7297 116C68.0327 121.543 68.5798 127.492 69.1827 133.258C71.0304 150.984 73.2689 170.255 75.7976 188.082L78.332 201.833C80.3527 202.111 82.3735 202.396 84.3998 202.675L83.1662 182.974H83.1606Z" fill="#32B353"/>
<path d="M86.2466 221.951C86.1406 221.951 86.0401 221.906 85.9675 221.823C83.5057 218.828 82.9196 214.68 82.4451 211.351L70.6834 128.63C70.6555 128.435 70.7894 128.256 70.9848 128.228C71.1802 128.2 71.3588 128.334 71.3867 128.529L83.1485 211.25C83.6118 214.496 84.1812 218.533 86.5201 221.371C86.6429 221.522 86.6206 221.75 86.4699 221.873C86.4029 221.929 86.3248 221.957 86.241 221.957L86.2466 221.951Z" fill="#161742"/>
<path d="M97.5158 188.043C97.6274 187.575 97.7335 187.106 97.8452 186.638L92.0898 202.982C92.8602 202.725 93.5859 202.357 94.239 201.822C95.3945 200.874 96.1537 199.536 96.8738 198.225C101.273 190.235 105.387 182.088 109.216 173.813C110.601 170.813 111.974 167.702 112.102 164.406C105.549 171.059 100.519 179.211 97.5214 188.054L97.5158 188.043Z" fill="#32B353"/>
<path d="M94.1923 204.08C94.1533 204.08 94.1086 204.075 94.0695 204.058C93.8853 203.991 93.7904 203.785 93.8574 203.601C97.8766 192.621 102.538 181.731 107.696 171.237C107.785 171.059 107.997 170.986 108.176 171.075C108.354 171.165 108.427 171.376 108.338 171.555C103.185 182.027 98.5409 192.894 94.5273 203.851C94.4771 203.996 94.3375 204.086 94.1923 204.086V204.08Z" fill="#161742"/>
<path d="M104.006 163.041C100.857 164.424 98.7864 167.468 97.1508 170.49C94.5607 175.275 92.6125 180.405 91.3565 185.696L90.0838 193.001C90.0112 193.665 89.9386 194.334 89.8884 195.003C89.9163 194.551 89.9442 194.099 89.9721 193.642L88.2695 203.412C89.827 203.506 91.3788 203.434 92.7744 202.971L98.5297 186.628C100.355 178.765 102.186 170.897 104.011 163.035L104.006 163.041Z" fill="#32B353"/>
<path d="M92.0394 201.036C92.0394 201.036 92.0059 201.036 91.9891 201.036C91.7938 201.008 91.6598 200.829 91.6821 200.634C93.167 189.856 96.0363 179.295 100.206 169.247C100.284 169.063 100.491 168.979 100.675 169.051C100.859 169.129 100.943 169.336 100.87 169.52C96.7229 179.512 93.8704 190.017 92.3911 200.735C92.3687 200.913 92.2124 201.041 92.0394 201.041V201.036Z" fill="#161742"/>
<path d="M103.241 194.433L102.08 211.708L101.879 214.652L100.935 228.693H62.5241L61.7704 213.899L61.6476 211.474L60.7266 193.469L103.241 194.433Z" fill="#1D478E"/>
<g style="mix-blend-mode:multiply">
<path d="M103.237 194.433L103.002 197.935L63.6254 197.032L62.3973 226.356L60.7227 193.469L103.237 194.433Z" fill="#1D478E"/>
</g>
<path d="M117.317 233.688C117.317 235.11 106.874 236.266 94.0005 236.266C81.1266 236.266 70.6836 235.11 70.6836 233.688C70.6836 233.662 70.6887 233.636 70.6939 233.611V226.646H117.302V233.595C117.312 233.626 117.317 233.657 117.317 233.688Z" fill="#AF8E2F"/>
<path d="M93.9966 229.287C106.874 229.287 117.314 228.133 117.314 226.709C117.314 225.285 106.874 224.131 93.9966 224.131C81.119 224.131 70.6797 225.285 70.6797 226.709C70.6797 228.133 81.119 229.287 93.9966 229.287Z" fill="#FFD325"/>
<path d="M122.825 225.282C122.825 226.704 112.382 227.86 99.5084 227.86C86.6344 227.86 76.1914 226.704 76.1914 225.282C76.1914 225.256 76.1966 225.23 76.2017 225.204V218.24H122.81V225.189C122.82 225.22 122.825 225.251 122.825 225.282Z" fill="#AF8E2F"/>
<path d="M99.5044 220.885C112.382 220.885 122.821 219.731 122.821 218.307C122.821 216.883 112.382 215.729 99.5044 215.729C86.6269 215.729 76.1875 216.883 76.1875 218.307C76.1875 219.731 86.6269 220.885 99.5044 220.885Z" fill="#FFD325"/>
<path d="M62.6378 233.688C62.6378 235.11 52.1948 236.266 39.3209 236.266C26.4469 236.266 16.0039 235.11 16.0039 233.688C16.0039 233.662 16.009 233.636 16.0142 233.611V226.646H62.6224V233.595C62.6326 233.626 62.6378 233.657 62.6378 233.688Z" fill="#AF8E2F"/>
<path d="M39.3169 229.287C52.1945 229.287 62.6339 228.133 62.6339 226.709C62.6339 225.285 52.1945 224.131 39.3169 224.131C26.4394 224.131 16 225.285 16 226.709C16 228.133 26.4394 229.287 39.3169 229.287Z" fill="#FFD325"/>
<path d="M68.1456 225.282C68.1456 226.704 57.7026 227.86 44.8287 227.86C31.9548 227.86 21.5117 226.704 21.5117 225.282C21.5117 225.256 21.5169 225.23 21.522 225.204V218.24H68.1302V225.189C68.1405 225.22 68.1456 225.251 68.1456 225.282Z" fill="#AF8E2F"/>
<path d="M44.8248 220.885C57.7024 220.885 68.1417 219.731 68.1417 218.307C68.1417 216.883 57.7024 215.729 44.8248 215.729C31.9472 215.729 21.5078 216.883 21.5078 218.307C21.5078 219.731 31.9472 220.885 44.8248 220.885Z" fill="#FFD325"/>
<path d="M118.442 215.789C118.442 217.212 107.999 218.367 95.1255 218.367C82.2516 218.367 71.8086 217.212 71.8086 215.789C71.8086 215.764 71.8137 215.738 71.8189 215.712V208.748H118.427V215.697C118.437 215.728 118.442 215.759 118.442 215.789Z" fill="#AF8E2F"/>
<path d="M95.1255 211.389C108.003 211.389 118.442 210.235 118.442 208.811C118.442 207.387 108.003 206.232 95.1255 206.232C82.2479 206.232 71.8086 207.387 71.8086 208.811C71.8086 210.235 82.2479 211.389 95.1255 211.389Z" fill="#FFD325"/>
<path d="M123.95 207.389C123.95 208.812 113.507 209.967 100.633 209.967C87.7594 209.967 77.3164 208.812 77.3164 207.389C77.3164 207.363 77.3215 207.338 77.3267 207.312V200.348H123.935V207.296C123.945 207.327 123.95 207.358 123.95 207.389Z" fill="#AF8E2F"/>
<path d="M100.633 202.986C113.511 202.986 123.95 201.832 123.95 200.408C123.95 198.984 113.511 197.83 100.633 197.83C87.7558 197.83 77.3164 198.984 77.3164 200.408C77.3164 201.832 87.7558 202.986 100.633 202.986Z" fill="#FFD325"/>
<path d="M118.442 198.981C118.442 200.403 107.999 201.559 95.1255 201.559C82.2516 201.559 71.8086 200.403 71.8086 198.981C71.8086 198.955 71.8137 198.929 71.8189 198.904V191.939H118.427V198.888C118.437 198.919 118.442 198.95 118.442 198.981Z" fill="#AF8E2F"/>
<path d="M95.1255 194.584C108.003 194.584 118.442 193.43 118.442 192.006C118.442 190.582 108.003 189.428 95.1255 189.428C82.2479 189.428 71.8086 190.582 71.8086 192.006C71.8086 193.43 82.2479 194.584 95.1255 194.584Z" fill="#FFD325"/>
<rect x="132" y="116" width="6" height="50" rx="3" fill="#161742"/>
<mask id="mask0_1072_547" style="mask-type:alpha" maskUnits="userSpaceOnUse" x="105" y="117" width="30" height="48">
<rect x="105.586" y="117.871" width="29.3724" height="46.9958" fill="#D9D9D9"/>
</mask>
<g mask="url(#mask0_1072_547)">
<path d="M128.316 121.475C117.332 124.332 110.739 135.554 113.596 146.542C116.453 157.526 127.675 164.123 138.663 161.262C149.647 158.405 156.245 147.183 153.383 136.195C150.526 125.211 139.304 118.618 128.316 121.475ZM149.504 137.204C150.616 141.478 149.992 145.937 147.754 149.744C145.516 153.557 141.933 156.266 137.654 157.378C128.827 159.67 119.777 154.36 117.48 145.528C116.368 141.254 116.987 136.8 119.225 132.988C121.382 129.31 124.8 126.655 128.881 125.476C129.029 125.431 129.177 125.395 129.325 125.355C138.008 123.094 146.902 128.203 149.378 136.765C149.418 136.908 149.463 137.056 149.499 137.2L149.504 137.204Z" fill="#FFD325"/>
<path d="M149.38 136.77C149.42 136.913 149.465 137.061 149.501 137.205C150.613 141.479 149.989 145.937 147.751 149.745C145.513 153.558 141.93 156.267 137.651 157.379C128.824 159.671 119.774 154.36 117.477 145.529C116.365 141.255 116.984 136.801 119.222 132.989C121.379 129.311 124.797 126.656 128.878 125.477C129.026 125.432 129.174 125.396 129.322 125.355C138.005 123.095 146.899 128.203 149.375 136.765L149.38 136.77Z" fill="#AF8E2F"/>
<path d="M138.687 138.692C138.61 138.615 138.518 138.571 138.397 138.567L136.211 138.497C136.089 137.787 135.839 137.162 135.451 136.631L138.431 136.728C138.552 136.728 138.649 136.696 138.729 136.623C138.81 136.547 138.85 136.454 138.854 136.333L138.897 135.031C138.901 134.91 138.865 134.813 138.792 134.732C138.715 134.652 138.619 134.612 138.502 134.608L127.864 134.263C127.747 134.259 127.646 134.292 127.566 134.368C127.489 134.441 127.445 134.538 127.441 134.659L127.386 136.36C127.382 136.469 127.419 136.57 127.499 136.65C127.576 136.735 127.673 136.779 127.782 136.779L129.637 136.838C131.435 136.897 132.561 137.416 133.017 138.395L127.735 138.223C127.618 138.223 127.517 138.255 127.436 138.328C127.356 138.4 127.316 138.497 127.312 138.618L127.269 139.92C127.269 140.041 127.301 140.138 127.374 140.219C127.446 140.299 127.543 140.339 127.664 140.343L133.124 140.523C132.911 141.217 132.456 141.734 131.759 142.077C131.061 142.42 130.15 142.574 129.025 142.535L127.594 142.488C127.481 142.488 127.384 142.525 127.299 142.601C127.215 142.682 127.171 142.775 127.167 142.884L127.112 144.508C127.108 144.621 127.144 144.714 127.217 144.795C128.799 146.587 130.838 149.089 133.345 152.304C133.418 152.409 133.523 152.461 133.66 152.469L136.152 152.551C136.329 152.559 136.458 152.486 136.531 152.333C136.619 152.18 136.611 152.035 136.494 151.894C134.108 148.759 132.223 146.415 130.85 144.848C132.306 144.725 133.495 144.293 134.426 143.558C135.356 142.819 135.936 141.843 136.173 140.621L138.322 140.692C138.439 140.692 138.54 140.659 138.616 140.587C138.697 140.514 138.737 140.417 138.741 140.296L138.784 138.994C138.784 138.873 138.752 138.776 138.679 138.696L138.687 138.692Z" fill="#DCB414"/>
</g>
<ellipse opacity="0.4" cx="44" cy="218.5" rx="13" ry="1.5" fill="#AF8E2F"/>
<path d="M37.8858 175.839C26.4561 178.81 19.5956 190.48 22.5685 201.906C25.5414 213.328 37.2184 220.189 48.6527 217.213C60.0823 214.242 66.9476 202.573 63.97 191.147C60.9971 179.725 49.3201 172.869 37.8858 175.839ZM59.933 192.196C61.0904 196.641 60.4417 201.277 58.1128 205.236C55.784 209.201 52.055 212.018 47.6026 213.174C38.4178 215.558 28.9997 210.036 26.6102 200.852C25.4527 196.408 26.0968 191.776 28.4256 187.812C30.6705 183.987 34.2268 181.226 38.4738 180C38.6278 179.953 38.7818 179.916 38.9359 179.874C47.9713 177.523 57.2261 182.835 59.8023 191.739C59.8443 191.888 59.891 192.042 59.9283 192.191L59.933 192.196Z" fill="#FFD325"/>
<path d="M59.8053 191.745C59.8473 191.894 59.894 192.048 59.9314 192.197C61.0888 196.642 60.4401 201.278 58.1112 205.237C55.7823 209.202 52.0534 212.019 47.601 213.175C38.4162 215.559 28.9981 210.037 26.6085 200.853C25.4511 196.409 26.0952 191.777 28.424 187.813C30.6689 183.988 34.2252 181.227 38.4722 180.001C38.6262 179.954 38.7802 179.917 38.9342 179.875C47.9697 177.524 57.2245 182.836 59.8007 191.74L59.8053 191.745Z" fill="#AF8E2F"/>
<path d="M28 184.502C29.622 185.287 30.7368 186.491 31.4976 188C32.2584 186.491 33.378 185.282 35 184.498C33.378 183.713 32.2584 182.509 31.4976 181C30.7368 182.509 29.622 183.718 28 184.502Z" fill="#FFF3EB"/>
<path d="M48.6806 193.743C48.6008 193.664 48.5042 193.618 48.3783 193.614L46.104 193.54C45.9775 192.803 45.7167 192.153 45.3133 191.6L48.4142 191.702C48.5401 191.702 48.6408 191.668 48.7246 191.592C48.8085 191.513 48.8503 191.416 48.8544 191.29L48.8993 189.936C48.9033 189.811 48.8655 189.71 48.7899 189.626C48.7101 189.542 48.6093 189.501 48.4876 189.496L37.4183 189.138C37.2967 189.134 37.1918 189.168 37.108 189.248C37.0283 189.323 36.9822 189.424 36.9782 189.55L36.9211 191.319C36.917 191.432 36.9549 191.537 37.0389 191.621C37.1187 191.709 37.2195 191.755 37.3328 191.754L39.263 191.815C41.1344 191.877 42.3056 192.416 42.7808 193.435L37.2839 193.255C37.1622 193.256 37.0573 193.289 36.9735 193.365C36.8896 193.44 36.8478 193.541 36.8437 193.667L36.7988 195.021C36.799 195.147 36.8326 195.247 36.9082 195.331C36.9839 195.415 37.0846 195.457 37.2105 195.461L42.892 195.648C42.6703 196.369 42.1967 196.906 41.4711 197.264C40.7456 197.621 39.7974 197.781 38.6267 197.74L37.1371 197.691C37.0196 197.691 36.919 197.729 36.8309 197.809C36.7429 197.893 36.6968 197.989 36.6927 198.102L36.6356 199.792C36.6315 199.909 36.6694 200.006 36.745 200.09C38.3916 201.954 40.5131 204.555 43.122 207.898C43.1977 208.007 43.3068 208.062 43.4495 208.07L46.0427 208.155C46.2273 208.164 46.3615 208.088 46.4369 207.929C46.529 207.769 46.5205 207.618 46.3987 207.472C43.9157 204.212 41.9538 201.774 40.5256 200.145C42.0402 200.017 43.2776 199.568 44.2461 198.804C45.2147 198.036 45.8179 197.02 46.0642 195.75L48.3007 195.823C48.4224 195.823 48.5273 195.789 48.6069 195.714C48.6908 195.638 48.7326 195.538 48.7367 195.412L48.7816 194.058C48.7814 193.932 48.7478 193.831 48.6722 193.747L48.6806 193.743Z" fill="#DCB414"/>
</svg>
