<svg xmlns="http://www.w3.org/2000/svg" width="14.286" height="16" viewBox="0 0 14.286 16">
  <path id="secure" d="M26.388,2.24a.523.523,0,0,0-.378-.432L19.579.02a.523.523,0,0,0-.28,0L12.868,1.808a.523.523,0,0,0-.378.432c-.037.268-.888,6.605,1.294,9.758a10.267,10.267,0,0,0,5.532,3.988.524.524,0,0,0,.246,0A10.266,10.266,0,0,0,25.094,12C27.276,8.845,26.425,2.508,26.388,2.24Zm-2.8,3.7L19.2,10.326a.523.523,0,0,1-.739,0L15.748,7.614a.523.523,0,0,1,0-.739l.538-.538a.523.523,0,0,1,.739,0l1.8,1.8,3.478-3.478a.523.523,0,0,1,.739,0l.538.538A.523.523,0,0,1,23.586,5.939Z" transform="translate(-12.296 -0.001)" fill="#32b353"/>
</svg>
