<svg xmlns="http://www.w3.org/2000/svg" width="47.606" height="73.911" viewBox="0 0 47.606 73.911">
  <g id="Group_7115" data-name="Group 7115" transform="translate(-258.786 -361.539)">
    <g id="Group_6969" data-name="Group 6969" transform="translate(-3653.771 6153.539)">
      <path id="Shape" d="M33.824,55.016s-1.259,2.519-6.249,5.344a2.505,2.505,0,0,0-1.268,2.172V65.1A2.505,2.505,0,0,1,23.8,67.605H8.769A2.505,2.505,0,0,1,6.264,65.1V63.847c0-2.295-1.617-4.238-2.766-6.1C1.315,54.2.334,54.038.034,50.006c-.155-2.072.277-7.722.331-9.813.03-1.156-.026-5.11-.07-8.743a6.453,6.453,0,0,1,6.413-6.5c3.345-.008,4.338,1.9,7.073,2.677a35.96,35.96,0,0,0,5.312,1.037,2.47,2.47,0,0,1,2.2,2.445v.222s0,5.5-7.516,5.5c-.752.187-6.264-.626-7.516-3.132" transform="translate(3912.558 -5785.694)" fill="#f9c795"/>
      <path id="Shape-2" data-name="Shape" d="M35.6,1.6C29.5,2.7,6.839,10.107,6.839,59.252l-.213.138A3.832,3.832,0,0,1,6,57.31V4.758A3.758,3.758,0,0,1,9.758,1h23.8A3.791,3.791,0,0,1,35.6,1.6Z" transform="translate(3914.074 -5791.747)" fill="#fff"/>
      <path id="Shape-3" data-name="Shape" d="M37.192,4.637V57.189a3.758,3.758,0,0,1-3.758,3.758H9.632A3.742,3.742,0,0,1,6.5,59.268l.213-.138c0-60.836,22.662-56.548,28.763-57.65a3.485,3.485,0,0,1,.94.877,3.686,3.686,0,0,1,.777,2.28Z" transform="translate(3914.2 -5791.626)" fill="#f7f7f7"/>
      <path id="Shape-4" data-name="Shape" d="M33.813,62.574h-23.8A5.011,5.011,0,0,1,5,57.563V5.011A5.011,5.011,0,0,1,10.011,0h23.8a5.011,5.011,0,0,1,5.011,5.011V57.563A5.011,5.011,0,0,1,33.813,62.574ZM10.011,2.505A2.505,2.505,0,0,0,7.505,5.011V57.563a2.505,2.505,0,0,0,2.505,2.505h23.8a2.505,2.505,0,0,0,2.505-2.505V5.011a2.505,2.505,0,0,0-2.505-2.505Z" transform="translate(3913.821 -5792)" fill="#004097"/>
      <path id="Shape-5" data-name="Shape" d="M29.791,1,27.978,4.625a2.505,2.505,0,0,1-2.241,1.386H15.054a2.505,2.505,0,0,1-2.241-1.386L11,1Z" transform="translate(3915.337 -5791.747)" fill="#202c5e"/>
      <path id="Shape-6" data-name="Shape" d="M27.033,46.505H13.253a1.253,1.253,0,1,1,0-2.505h13.78a1.253,1.253,0,1,1,0,2.505Z" transform="translate(3915.59 -5780.88)" fill="#202c5e"/>
      <path id="Shape-7" data-name="Shape" d="M26.716,18.38c0,.2-.013.409-.025.6L13.25,19.39c1.591-1.153,9.708-5.264,10.61-6.33a6.146,6.146,0,0,1,2.856,5.32Z" transform="translate(3915.906 -5788.138)" fill="#a56a43"/>
      <path id="Shape-8" data-name="Shape" d="M26.742,18.732c-.238,3.64-2.706,6.935-6.865,6.935-4,0-6.439-3.058-6.827-6.526a14.618,14.618,0,0,0,7.128-2.821Z" transform="translate(3915.855 -5787.887)" fill="#f9c795"/>
      <path id="Shape-9" data-name="Shape" d="M29.79,33.4V39a1.175,1.175,0,0,1-1.253,1.077H12.253A1.175,1.175,0,0,1,11,39V35.166l2.38-7.43A10.028,10.028,0,0,1,20.721,25C25.869,25.268,29.862,28.967,29.79,33.4Z" transform="translate(3915.338 -5787.221)" fill="#d75e72"/>
      <path id="Shape-10" data-name="Shape" d="M23.505,34.253v6.264H21V34.253a1.253,1.253,0,1,1,2.505,0Z" transform="translate(3917.865 -5787.66)" fill="#802d40"/>
      <path id="Shape-11" data-name="Shape" d="M16.505,34.253v6.264H14V34.253a1.253,1.253,0,1,1,2.505,0Z" transform="translate(3916.096 -5787.66)" fill="#802d40"/>
      <path id="Shape-12" data-name="Shape" d="M23.923,13.141a21.35,21.35,0,0,1-3.733,3.511,14.618,14.618,0,0,1-7.128,2.821A8.989,8.989,0,0,1,13,18.461C13,14.6,16.082,12,19.89,12a7.408,7.408,0,0,1,4.034,1.141Z" transform="translate(3915.844 -5788.219)" fill="#cb8252"/>
      <path id="Shape-13" data-name="Shape" d="M32.025,26.324l5.122-2.117a3.762,3.762,0,1,0-2.781-6.99L32,18.156" transform="translate(3920.645 -5787.716)" fill="#f9c795"/>
      <path id="Shape-14" data-name="Shape" d="M40.275,31.709a3.758,3.758,0,0,1-3.758,3.758H32.758a3.758,3.758,0,0,1,0-7.516h3.758A3.758,3.758,0,0,1,40.275,31.709Z" transform="translate(3919.886 -5784.936)" fill="#f9c795"/>
      <path id="Shape-15" data-name="Shape" d="M39.016,37.709a3.758,3.758,0,0,1-3.758,3.758H32.752a3.473,3.473,0,0,1-1.253-.225,3.758,3.758,0,0,1,1.253-7.291h2.505A3.758,3.758,0,0,1,39.016,37.709Z" transform="translate(3919.892 -5783.42)" fill="#f9c795"/>
      <path id="Shape-16" data-name="Shape" d="M37.807,43.709a3.758,3.758,0,0,1-3.758,3.758h-1.29a3.758,3.758,0,0,1,0-7.516h1.29A3.758,3.758,0,0,1,37.807,43.709Z" transform="translate(3919.886 -5781.903)" fill="#f9c795"/>
      <path id="Shape-17" data-name="Shape" d="M5.475,24.969c3.345-.008,4.815,1.879,7.55,2.655a35.96,35.96,0,0,0,5.312,1.037,2.47,2.47,0,0,1,2.2,2.445v.222s0,5.5-7.516,5.5c-.752.187-6.264-.626-7.516-3.132L2.987,29.607Z" transform="translate(3913.313 -5785.69)" fill="#f9c795"/>
    </g>
  </g>
</svg>
