<svg width="32" height="32" viewBox="0 0 32 32" fill="none" xmlns="http://www.w3.org/2000/svg">
<path d="M1.6 32H30.4C30.8243 32 31.2313 31.8314 31.5314 31.5314C31.8314 31.2313 32 30.8243 32 30.4V21.8667C32 21.4423 31.8314 21.0354 31.5314 20.7353C31.2313 20.4352 30.8243 20.2667 30.4 20.2667H28.2667V19.7333C28.2667 19.1675 28.0419 18.6249 27.6418 18.2248C27.2418 17.8248 26.6991 17.6 26.1333 17.6H22.9333C22.3675 17.6 21.8249 17.8248 21.4248 18.2248C21.0248 18.6249 20.8 19.1675 20.8 19.7333V20.2667H18.6667C18.3831 20.2683 18.1052 20.346 17.8619 20.4917L16 19.8805V19.6885C16.3733 19.4533 16.7216 19.2117 17.0331 18.9915C17.2021 18.8731 17.3621 18.76 17.5131 18.6587C18.022 18.313 18.4555 17.8678 18.7874 17.3499C19.1193 16.8319 19.3428 16.2521 19.4443 15.6453L19.6608 14.3499C20.1348 14.2444 20.5588 13.9806 20.8628 13.6019C21.1669 13.2232 21.3328 12.7523 21.3333 12.2667V8.53333C21.3333 6.27015 20.4343 4.09967 18.834 2.49936C17.2337 0.899045 15.0632 0 12.8 0C10.5368 0 8.36633 0.899045 6.76602 2.49936C5.16571 4.09967 4.26667 6.27015 4.26667 8.53333V12.2667C4.26725 12.7524 4.43336 13.2235 4.7376 13.6022C5.04183 13.9809 5.46604 14.2446 5.94027 14.3499L6.1568 15.6448C6.25817 16.2516 6.48159 16.8316 6.81352 17.3497C7.14546 17.8677 7.57903 18.313 8.088 18.6587C8.23787 18.76 8.39787 18.872 8.568 18.9915C8.88 19.2117 9.22827 19.4533 9.6016 19.6885V19.8805L4.7024 21.488C1.6704 22.4848 0 25.4603 0 29.8667V30.4C0 30.8243 0.168571 31.2313 0.468629 31.5314C0.768687 31.8314 1.17565 32 1.6 32ZM30.4 30.9333H18.6667C18.5252 30.9333 18.3896 30.8771 18.2895 30.7771C18.1895 30.6771 18.1333 30.5415 18.1333 30.4V26.0352C18.3041 26.0984 18.4846 26.1316 18.6667 26.1333H22.4V26.6667C22.4 27.091 22.5686 27.498 22.8686 27.798C23.1687 28.0981 23.5757 28.2667 24 28.2667H25.0667C25.491 28.2667 25.898 28.0981 26.198 27.798C26.4981 27.498 26.6667 27.091 26.6667 26.6667V26.1333H30.4C30.5821 26.1316 30.7625 26.0984 30.9333 26.0352V30.4C30.9333 30.5415 30.8771 30.6771 30.7771 30.7771C30.6771 30.8771 30.5415 30.9333 30.4 30.9333ZM23.4667 26.1333H25.6V26.6667C25.6 26.8081 25.5438 26.9438 25.4438 27.0438C25.3438 27.1438 25.2081 27.2 25.0667 27.2H24C23.8586 27.2 23.7229 27.1438 23.6229 27.0438C23.5229 26.9438 23.4667 26.8081 23.4667 26.6667V26.1333ZM21.8667 19.7333C21.8667 19.4504 21.979 19.1791 22.1791 18.9791C22.3791 18.779 22.6504 18.6667 22.9333 18.6667H26.1333C26.4162 18.6667 26.6875 18.779 26.8876 18.9791C27.0876 19.1791 27.2 19.4504 27.2 19.7333V20.2667H21.8667V19.7333ZM18.1333 21.8667C18.1333 21.7252 18.1895 21.5896 18.2895 21.4895C18.3896 21.3895 18.5252 21.3333 18.6667 21.3333H30.4C30.5415 21.3333 30.6771 21.3895 30.7771 21.4895C30.8771 21.5896 30.9333 21.7252 30.9333 21.8667V24.5333C30.9333 24.6748 30.8771 24.8104 30.7771 24.9105C30.6771 25.0105 30.5415 25.0667 30.4 25.0667H18.6667C18.5252 25.0667 18.3896 25.0105 18.2895 24.9105C18.1895 24.8104 18.1333 24.6748 18.1333 24.5333V21.8667ZM12.8 1.06667C14.7796 1.06878 16.6776 1.85613 18.0774 3.25594C19.4772 4.65575 20.2645 6.5537 20.2667 8.53333V10.4261C20.0893 10.3205 19.8974 10.2415 19.6971 10.1915C19.6452 9.67656 19.4305 9.19161 19.0842 8.80709C18.7379 8.42257 18.2779 8.15852 17.7712 8.05333C16.2792 7.86504 14.8411 7.3751 13.5445 6.61333C13.322 6.47172 13.0637 6.3965 12.8 6.3965C12.5363 6.3965 12.278 6.47172 12.0555 6.61333C10.7588 7.37537 9.32049 7.86533 7.82827 8.05333C7.32198 8.15851 6.86238 8.42228 6.51617 8.80637C6.16997 9.19046 5.95516 9.67488 5.90293 10.1893C5.70263 10.2393 5.51072 10.3184 5.33333 10.424V8.53333C5.33545 6.5537 6.1228 4.65575 7.52261 3.25594C8.92242 1.85613 10.8204 1.06878 12.8 1.06667ZM8.6848 17.7744C8.29564 17.51 7.96419 17.1694 7.71053 16.7732C7.45687 16.377 7.28627 15.9334 7.20907 15.4693L6.92587 13.7787C6.90505 13.6542 6.84079 13.5412 6.74451 13.4597C6.64823 13.3781 6.52617 13.3334 6.4 13.3333C6.1171 13.3333 5.84579 13.221 5.64575 13.0209C5.44571 12.8209 5.33333 12.5496 5.33333 12.2667C5.33333 11.9838 5.44571 11.7125 5.64575 11.5124C5.84579 11.3124 6.1171 11.2 6.4 11.2C6.54145 11.2 6.6771 11.1438 6.77712 11.0438C6.87714 10.9438 6.93333 10.8081 6.93333 10.6667C6.90219 10.3268 6.98915 9.98653 7.17955 9.70325C7.36996 9.41998 7.65218 9.21098 7.97867 9.11147C9.61932 8.9028 11.2001 8.36125 12.624 7.52C12.6762 7.48508 12.7375 7.46643 12.8003 7.46643C12.863 7.46643 12.9244 7.48508 12.9765 7.52C14.4002 8.36084 15.9806 8.90221 17.6208 9.11093C17.9475 9.21036 18.2299 9.4194 18.4204 9.7028C18.6109 9.98619 18.6979 10.3266 18.6667 10.6667C18.6667 10.8081 18.7229 10.9438 18.8229 11.0438C18.9229 11.1438 19.0586 11.2 19.2 11.2C19.4829 11.2 19.7542 11.3124 19.9542 11.5124C20.1543 11.7125 20.2667 11.9838 20.2667 12.2667C20.2667 12.5496 20.1543 12.8209 19.9542 13.0209C19.7542 13.221 19.4829 13.3333 19.2 13.3333C19.0738 13.3334 18.9518 13.3781 18.8555 13.4597C18.7592 13.5412 18.695 13.6542 18.6741 13.7787L18.3909 15.4699C18.3137 15.9339 18.143 16.3773 17.8894 16.7735C17.6357 17.1696 17.3043 17.5101 16.9152 17.7744C16.76 17.8811 16.5952 17.9963 16.4187 18.12C15.3989 18.8384 14.1301 19.7333 12.8 19.7333C11.4699 19.7333 10.2011 18.8384 9.18133 18.12C9.0064 17.9963 8.84 17.8795 8.6848 17.7744ZM14.9333 20.2736C14.9333 20.8394 14.7086 21.382 14.3085 21.7821C13.9084 22.1822 13.3658 22.4069 12.8 22.4069C12.2342 22.4069 11.6916 22.1822 11.2915 21.7821C10.8914 21.382 10.6667 20.8394 10.6667 20.2736C11.3309 20.6026 12.059 20.7822 12.8 20.8C13.541 20.7822 14.2691 20.6026 14.9333 20.2736ZM1.06667 29.8667C1.06667 25.9584 2.47627 23.3429 5.0352 22.5013L9.68213 20.976C9.84228 21.6833 10.2381 22.315 10.8047 22.7676C11.3712 23.2203 12.0748 23.4668 12.8 23.4668C13.5252 23.4668 14.2288 23.2203 14.7953 22.7676C15.3619 22.315 15.7577 21.6833 15.9179 20.976L17.1504 21.3808C17.0972 21.5374 17.0689 21.7013 17.0667 21.8667V30.4C17.0684 30.5821 17.1016 30.7625 17.1648 30.9333H1.6C1.45855 30.9333 1.3229 30.8771 1.22288 30.7771C1.12286 30.6771 1.06667 30.5415 1.06667 30.4V29.8667Z" fill="#707070"/>
</svg>
