<svg width="16" height="16" viewBox="0 0 16 16" fill="none" xmlns="http://www.w3.org/2000/svg">
<path d="M9.38372 5.81818C9.30595 5.81818 9.23136 5.78753 9.17637 5.73298C9.12137 5.67842 9.09048 5.60443 9.09048 5.52727V2.61818C9.09048 2.0781 8.87422 1.56015 8.48927 1.17826C8.10432 0.796363 7.58222 0.581818 7.03782 0.581818C6.49342 0.581818 5.97132 0.796363 5.58637 1.17826C5.20142 1.56015 4.98516 2.0781 4.98516 2.61818V5.52727C4.98516 5.60443 4.95426 5.67842 4.89927 5.73298C4.84428 5.78753 4.76969 5.81818 4.69192 5.81818C4.61415 5.81818 4.53956 5.78753 4.48457 5.73298C4.42958 5.67842 4.39868 5.60443 4.39868 5.52727V2.61818C4.39868 1.9238 4.67673 1.25785 5.17167 0.766848C5.6666 0.275843 6.33788 0 7.03782 0C7.73776 0 8.40904 0.275843 8.90397 0.766848C9.3989 1.25785 9.67696 1.9238 9.67696 2.61818V5.52727C9.67696 5.60443 9.64606 5.67842 9.59107 5.73298C9.53608 5.78753 9.46149 5.81818 9.38372 5.81818Z" fill="#E2E2E2"/>
<path d="M9.97007 16H0L0.586475 4.36365H9.3836L9.97007 16Z" fill="#EE3D4B"/>
<path d="M12.316 15.9999H9.97008L9.38361 4.36353H11.7295L12.316 15.9999Z" fill="#FD707B"/>
<path d="M11.1601 14.545C11.1542 14.5453 11.1483 14.5453 11.1425 14.5453C11.0677 14.5453 10.9958 14.5169 10.9414 14.466C10.8871 14.4151 10.8544 14.3456 10.85 14.2715L10.2635 4.38062C10.2631 4.3748 10.2631 4.36934 10.2631 4.36353H10.8503L11.4357 14.2373C11.4402 14.3144 11.4138 14.3901 11.3621 14.4478C11.3104 14.5054 11.2377 14.5404 11.1601 14.545Z" fill="#EE3D4B"/>
<path d="M16 15.9999H13.6541L13.6174 15.5297V15.5294L13.0676 8.43628H15.4135L15.9542 15.4068V15.4072L16 15.9999Z" fill="#AF8E2F"/>
<path d="M14.8562 14.5439C14.8463 14.5449 14.8364 14.5454 14.8265 14.5454C14.7539 14.5453 14.6838 14.5185 14.63 14.4701C14.5762 14.4217 14.5424 14.3552 14.5351 14.2836L14.5245 14.1796L13.9486 8.46537C13.9476 8.45571 13.9471 8.446 13.9471 8.43628H14.5351L15.1113 14.153L15.1186 14.2254C15.1225 14.2634 15.1187 14.3018 15.1076 14.3384C15.0965 14.3749 15.0783 14.409 15.0539 14.4386C15.0295 14.4681 14.9995 14.4927 14.9656 14.5108C14.9317 14.5288 14.8945 14.5401 14.8562 14.5439Z" fill="#707070"/>
<path d="M16 16H15.6474L14.827 14.7789L14.0067 16H13.6541L13.6174 15.5298V15.5294L14.5246 14.1796L14.5829 14.0931C14.6097 14.0532 14.6461 14.0206 14.6886 13.998C14.7312 13.9754 14.7788 13.9636 14.827 13.9636C14.8753 13.9636 14.9229 13.9754 14.9654 13.998C15.008 14.0206 15.0443 14.0532 15.0712 14.0931L15.1115 14.1531L15.9542 15.4069V15.4073L16 16Z" fill="#707070"/>
<path d="M13.654 15.9999H6.02979L6.61626 8.43628H13.0675L13.654 15.9999Z" fill="#FFD325"/>
<path d="M10.1349 13.9636H9.5484C9.15968 13.9632 8.787 13.8098 8.51213 13.5371C8.23726 13.2644 8.08265 12.8947 8.08221 12.5091V10.1818C8.08221 10.1046 8.11311 10.0306 8.1681 9.97607C8.22309 9.92152 8.29768 9.89087 8.37545 9.89087C8.45322 9.89087 8.52781 9.92152 8.5828 9.97607C8.63779 10.0306 8.66869 10.1046 8.66869 10.1818V12.5091C8.66895 12.7404 8.76172 12.9623 8.92664 13.1259C9.09156 13.2895 9.31517 13.3815 9.5484 13.3818H10.1349C10.3681 13.3815 10.5917 13.2895 10.7566 13.1259C10.9216 12.9623 11.0143 12.7404 11.0146 12.5091V10.1818C11.0146 10.1046 11.0455 10.0306 11.1005 9.97607C11.1555 9.92152 11.2301 9.89087 11.3078 9.89087C11.3856 9.89087 11.4602 9.92152 11.5152 9.97607C11.5702 10.0306 11.6011 10.1046 11.6011 10.1818V12.5091C11.6006 12.8947 11.446 13.2644 11.1711 13.5371C10.8963 13.8098 10.5236 13.9632 10.1349 13.9636Z" fill="#707070"/>
<path d="M2.6391 5.52734H3.22557V7.2728H2.6391V5.52734Z" fill="#E2E2E2"/>
<path d="M2.93234 5.81818C2.85457 5.81818 2.77998 5.78753 2.72499 5.73298C2.66999 5.67842 2.6391 5.60443 2.6391 5.52727V2.61818C2.6391 1.9238 2.91715 1.25785 3.41208 0.766848C3.90702 0.275843 4.57829 0 5.27824 0C5.97818 0 6.64945 0.275843 7.14439 0.766848C7.63932 1.25785 7.91737 1.9238 7.91737 2.61818V5.52727C7.91737 5.60443 7.88648 5.67842 7.83149 5.73298C7.77649 5.78753 7.70191 5.81818 7.62414 5.81818C7.54636 5.81818 7.47178 5.78753 7.41678 5.73298C7.36179 5.67842 7.3309 5.60443 7.3309 5.52727V2.61818C7.3309 2.0781 7.11464 1.56015 6.72969 1.17826C6.34474 0.796363 5.82264 0.581818 5.27824 0.581818C4.73384 0.581818 4.21173 0.796363 3.82678 1.17826C3.44184 1.56015 3.22557 2.0781 3.22557 2.61818V5.52727C3.22557 5.60443 3.19468 5.67842 3.13969 5.73298C3.08469 5.78753 3.01011 5.81818 2.93234 5.81818Z" fill="#E2E2E2"/>
<path d="M3.81185 9.60001H2.05243V7.27274L2.93214 6.69092L3.81185 7.27274V9.60001Z" fill="#AF8E2F"/>
</svg>
