<svg width="80" height="80" viewBox="0 0 80 80" fill="none" xmlns="http://www.w3.org/2000/svg">
<rect width="80" height="80" fill="white"/>
<path d="M40.3199 27.4421C40.3199 37.4 32.3474 45.4725 22.5129 45.4725C12.6783 45.4725 4.70581 37.4 4.70581 27.4421C4.70581 17.4842 12.6783 9.41177 22.5129 9.41177C32.3474 9.41177 40.3199 17.4842 40.3199 27.4421Z" fill="#EFF9FD"/>
<path d="M64.4612 65.9532C64.4612 70.5405 60.5655 74.2593 55.76 74.2593C50.9545 74.2593 47.0588 70.5405 47.0588 65.9532C47.0588 61.3658 50.9545 57.6471 55.76 57.6471C60.5655 57.6471 64.4612 61.3658 64.4612 65.9532Z" fill="#EFF9FD"/>
<path d="M5.29006 21.1265C6.16094 22.2924 8.36106 22.2092 10.7795 21.0959L6.87686 15.8593C5.12636 17.8673 4.42136 19.9606 5.29006 21.1265Z" fill="#AF8E2F"/>
<path d="M8.30078 14.4531L12.5286 20.1228C12.7971 19.95 13.0633 19.7685 13.3296 19.5716L9.05598 13.8385C8.79406 14.0375 8.54306 14.2431 8.30296 14.4509L8.30078 14.4531Z" fill="#AF8E2F"/>
<path d="M16.3731 10.9993L4.41748 19.9529L5.46533 21.3581L17.4209 12.4046L16.3731 10.9993Z" fill="#AF8E2F"/>
<path d="M17.2439 12.1735C16.5367 11.2263 14.9521 11.1039 13.0837 11.6879L16.528 16.3077C17.6171 14.678 17.9489 13.1206 17.2439 12.1713V12.1735Z" fill="#AF8E2F"/>
<path d="M6.87305 15.859L10.7756 21.0957C11.3519 20.831 11.939 20.5029 12.5261 20.1245L8.29832 14.4547C7.77012 14.9097 7.28993 15.3822 6.87305 15.8612V15.859Z" fill="#D6B11E"/>
<path d="M9.12865 13.7838C9.10246 13.8035 9.08064 13.8232 9.05444 13.8407L13.3281 19.5738C13.3543 19.5542 13.3783 19.5388 13.4045 19.5192C14.7294 18.5261 15.7989 17.4039 16.5301 16.3103L13.0858 11.6905C11.833 12.082 10.4557 12.7929 9.13084 13.7838H9.12865Z" fill="#D6B11E"/>
<path d="M12.766 18.6629C16.0674 16.1905 17.7862 12.902 16.6049 11.3178C15.4237 9.73368 11.7898 10.4538 8.48831 12.9262C5.18685 15.3987 3.46808 18.6872 4.64932 20.2714C5.83056 21.8555 9.4645 21.1354 12.766 18.6629Z" fill="#AF8E2F"/>
<path d="M12.6085 18.4489C15.9099 15.9765 17.6287 12.6879 16.4475 11.1038C15.2662 9.51966 11.6323 10.2398 8.33084 12.7122C5.02938 15.1847 3.31061 18.4732 4.49185 20.0573C5.67309 21.6415 9.30703 20.9214 12.6085 18.4489Z" fill="#FFD840"/>
<path d="M12.1148 17.7879C14.7403 15.8216 16.1317 13.2392 15.2225 12.0199C14.3133 10.8006 11.4478 11.4061 8.82228 13.3724C6.19676 15.3386 4.80541 17.921 5.71461 19.1403C6.62381 20.3596 9.48927 19.7541 12.1148 17.7879Z" fill="#FFD325"/>
<path d="M9.25257 16.8061L8.21362 16.968L8.5694 16.2287L9.60834 16.0668C10.0994 15.9902 10.6757 15.5571 10.8961 15.1021C11.1166 14.6472 10.8961 14.3387 10.405 14.4153L9.31805 14.5837L9.67382 13.8444L10.7608 13.676C11.6884 13.5316 12.1075 14.1156 11.6906 14.9797C11.2737 15.8415 10.1802 16.6618 9.25257 16.8061Z" fill="#AF8E2F"/>
<path d="M12.4418 15.2058L8.74219 15.7815L9.09796 15.0417L12.7976 14.4661L12.4418 15.2058Z" fill="#AF8E2F"/>
<path d="M13.017 14.009L9.31738 14.5868L9.67315 13.8471L13.3728 13.2715L13.017 14.009Z" fill="#AF8E2F"/>
<path d="M10.0311 18.2489L9.05106 16.3907L8.21729 16.9685L8.97685 18.4108L10.0311 18.2489Z" fill="#AF8E2F"/>
<path d="M6.2024 61.6436C5.29444 62.7755 5.92893 64.8924 7.61284 66.9678L11.6914 61.8846C9.31037 60.6805 7.11318 60.5105 6.20444 61.6444L6.2024 61.6436Z" fill="#AF8E2F"/>
<path d="M13.4027 62.9173L8.98472 68.423C9.21878 68.6392 9.46255 68.8544 9.71759 69.0646L14.1844 63.4981C13.925 63.2933 13.6637 63.0994 13.4027 62.9173Z" fill="#AF8E2F"/>
<path d="M18.7584 69.9005L7.12061 60.5076L6.02797 61.8708L17.6657 71.2637L18.7584 69.9005Z" fill="#AF8E2F"/>
<path d="M17.8435 71.0378C18.5827 70.117 18.3001 68.5466 17.2667 66.8774L13.6684 71.3647C15.516 72.0202 17.1062 71.9594 17.8455 71.0386L17.8435 71.0378Z" fill="#AF8E2F"/>
<path d="M11.687 61.8805L7.60696 66.9651C8.00753 67.4581 8.4738 67.9505 8.9864 68.4257L13.4034 62.9207C12.8297 62.5204 12.2533 62.1704 11.6862 61.8825L11.687 61.8805Z" fill="#D6B11E"/>
<path d="M14.2568 63.5545C14.2313 63.5353 14.2078 63.517 14.1823 63.4978L9.71812 69.0622C9.74285 69.0834 9.76553 69.1038 9.78898 69.1221C11.0803 70.1652 12.4362 70.9266 13.6737 71.3643L17.2715 66.8775C16.5776 65.7575 15.5468 64.5947 14.2547 63.5537L14.2568 63.5545Z" fill="#D6B11E"/>
<path d="M18.5095 70.2088C19.7419 68.671 18.1344 65.3203 14.9191 62.7248C11.7038 60.1294 8.09823 59.2719 6.86588 60.8097C5.63354 62.3475 7.24104 65.6981 10.4563 68.2936C13.6716 70.8891 17.2772 71.7465 18.5095 70.2088Z" fill="#AF8E2F"/>
<path d="M18.677 69.9996C19.9094 68.4618 18.3019 65.1111 15.0865 62.5156C11.8712 59.9202 8.26571 59.0627 7.03336 60.6005C5.80102 62.1383 7.40852 65.4889 10.6238 68.0844C13.8391 70.6799 17.4447 71.5373 18.677 69.9996Z" fill="#FFD840"/>
<path d="M17.4892 69.0382C16.5409 70.2215 13.6973 69.5085 11.1387 67.4442C8.58211 65.3806 7.27579 62.7499 8.22687 61.5654C9.17513 60.3822 12.0187 61.0951 14.5774 63.1594C17.1339 65.223 18.4403 67.8537 17.4892 69.0382Z" fill="#FFD325"/>
<path d="M11.3691 64.4204L10.9524 63.4519L11.7556 63.6156L12.1724 64.5841C12.3691 65.0405 12.9314 65.4947 13.4262 65.596C13.921 65.6972 14.164 65.4074 13.9672 64.951L13.5302 63.9373L14.3334 64.1009L14.7705 65.1146C15.1444 65.9802 14.6845 66.5279 13.7462 66.3381C12.808 66.1483 11.7423 65.2881 11.3684 64.4225L11.3691 64.4204Z" fill="#AF8E2F"/>
<path d="M13.7182 67.123L12.2312 63.6714L13.0347 63.8351L14.5218 67.2867L13.7182 67.123Z" fill="#AF8E2F"/>
<path d="M15.0149 67.386L13.5258 63.9337L14.3294 64.0974L15.8185 67.5498L15.0149 67.386Z" fill="#AF8E2F"/>
<path d="M10.1745 65.5369L11.7208 64.1286L10.9535 63.4596L9.75022 64.5552L10.1745 65.5369Z" fill="#AF8E2F"/>
<path d="M60.2029 54.6434C59.2949 55.7752 59.9294 57.8922 61.6133 59.9676L65.6919 54.8844C63.3109 53.6803 61.1137 53.5103 60.2049 54.6442L60.2029 54.6434Z" fill="#AF8E2F"/>
<path d="M67.403 55.9164L62.985 61.4221C63.219 61.6382 63.4628 61.8535 63.7178 62.0637L68.1846 56.4972C67.9252 56.2923 67.664 56.0985 67.403 55.9164Z" fill="#AF8E2F"/>
<path d="M72.7574 62.9006L61.1196 53.5077L60.027 54.8709L71.6648 64.2638L72.7574 62.9006Z" fill="#AF8E2F"/>
<path d="M71.844 64.0375C72.5832 63.1167 72.3006 61.5464 71.2672 59.8772L67.6689 64.3644C69.5165 65.0199 71.1067 64.9591 71.846 64.0383L71.844 64.0375Z" fill="#AF8E2F"/>
<path d="M65.686 54.8813L61.606 59.9659C62.0066 60.4588 62.4728 60.9513 62.9854 61.4265L67.4024 55.9215C66.8287 55.5211 66.2523 55.1712 65.6852 54.8833L65.686 54.8813Z" fill="#D6B11E"/>
<path d="M68.2558 56.5539C68.2303 56.5347 68.2068 56.5164 68.1813 56.4972L63.7171 62.0616C63.7419 62.0828 63.7645 62.1032 63.788 62.1215C65.0793 63.1646 66.4352 63.926 67.6727 64.3637L71.2705 59.877C70.5767 58.7569 69.5458 57.5941 68.2537 56.5531L68.2558 56.5539Z" fill="#D6B11E"/>
<path d="M72.5098 63.2089C73.7421 61.6711 72.1346 58.3204 68.9193 55.725C65.704 53.1295 62.0985 52.272 60.8661 53.8098C59.6338 55.3476 61.2413 58.6983 64.4566 61.2937C67.6719 63.8892 71.2774 64.7467 72.5098 63.2089Z" fill="#AF8E2F"/>
<path d="M72.6773 62.9993C73.9096 61.4615 72.3021 58.1109 69.0868 55.5154C65.8715 52.9199 62.266 52.0625 61.0336 53.6003C59.8013 55.138 61.4088 58.4887 64.6241 61.0842C67.8394 63.6797 71.4449 64.5371 72.6773 62.9993Z" fill="#FFD840"/>
<path d="M71.4885 62.0376C70.5402 63.2209 67.6966 62.5079 65.138 60.4436C62.5814 58.3801 61.2751 55.7494 62.2261 54.5649C63.1744 53.3816 66.018 54.0945 68.5766 56.1589C71.1332 58.2224 72.4395 60.8531 71.4885 62.0376Z" fill="#FFD325"/>
<path d="M65.3718 57.4208L64.955 56.4523L65.7583 56.616L66.1751 57.5845C66.3718 58.0409 66.9341 58.4951 67.4289 58.5964C67.9237 58.6976 68.1666 58.4078 67.9699 57.9514L67.5328 56.9377L68.3361 57.1013L68.7732 58.115C69.1471 58.9806 68.6872 59.5283 67.7489 59.3385C66.8106 59.1487 65.7449 58.2884 65.3711 57.4229L65.3718 57.4208Z" fill="#AF8E2F"/>
<path d="M67.7187 60.1241L66.2317 56.6725L67.0352 56.8362L68.5222 60.2878L67.7187 60.1241Z" fill="#AF8E2F"/>
<path d="M69.0166 60.3868L67.5276 56.9344L68.3311 57.0982L69.8202 60.5505L69.0166 60.3868Z" fill="#AF8E2F"/>
<path d="M64.1774 58.5366L65.7238 57.1283L64.9565 56.4593L63.7531 57.5549L64.1774 58.5366Z" fill="#AF8E2F"/>
<path d="M59.1049 2.58037L57.9607 1.1951L55.6503 3.13043L56.7945 4.5157L59.1049 2.58037Z" fill="#AF8E2F"/>
<path d="M56.7958 4.51325L55.6516 3.12799L53.3262 5.07593L54.4704 6.46119L56.7958 4.51325Z" fill="#D6B11E"/>
<path d="M54.4766 6.45837L53.3311 5.07313L50.2879 7.62188L51.4516 8.98908L54.4766 6.45837Z" fill="#AF8E2F"/>
<path d="M50.2913 7.61928L47.4835 9.96991L48.6262 11.3541L51.4549 8.98652L50.2913 7.61928Z" fill="#D6B11E"/>
<path d="M20.2913 37.6472L18.8235 38.6818L20.557 41.1517L22.0247 40.1172L20.2913 37.6472Z" fill="#AF8E2F"/>
<path d="M22.0261 40.1167L20.5583 41.1513L22.3031 43.6374L23.7709 42.6028L22.0261 40.1167Z" fill="#D6B11E"/>
<path d="M23.7724 42.6003L22.3057 43.6349L24.5887 46.8876L26.0402 45.8311L23.7724 42.6003Z" fill="#AF8E2F"/>
<path d="M24.5867 46.8867L26.6929 49.8878L28.1597 48.8532L26.0381 45.8302L24.5867 46.8867Z" fill="#D6B11E"/>
<path d="M49.3411 34.4784C49.3411 34.4784 50.7727 33.512 51.571 31.8733C52.3694 30.2346 52.7326 28.9356 51.6814 27.8896C50.7223 26.9355 49.6054 27.3187 49.3428 27.4197C48.7368 27.6535 48.2138 27.9212 48.2138 27.9212L49.3411 34.4784Z" fill="#EF9A86"/>
<path d="M50.9807 32.842C50.2168 33.8846 49.341 34.4781 49.341 34.4781L48.2137 27.9208C48.2137 27.9208 48.7367 27.6531 49.3427 27.4194C49.401 27.397 49.5032 27.3606 49.6347 27.3281C49.7329 27.9726 49.8874 28.8023 50.1349 29.8477C50.4607 31.2221 50.755 32.1905 50.9807 32.842Z" fill="#EC8F7A"/>
<path d="M25.4379 22.7705L44.3872 19.7849C46.119 19.512 47.7347 20.673 47.9969 22.3784L54.7565 66.3715C55.0186 68.0765 53.8272 69.68 52.0955 69.9528L33.1461 72.9385C31.4147 73.2112 29.7986 72.0504 29.5365 70.3454L22.7768 26.3519C22.5151 24.6467 23.7061 23.0434 25.4379 22.7705Z" fill="#161742"/>
<path d="M32.7885 71.6788C32.842 71.6749 32.8961 71.6687 32.9503 71.66L51.8995 68.6739C52.9125 68.5143 53.6126 67.5728 53.459 66.5752L46.6993 22.5821C46.5561 21.6506 45.6979 20.9747 44.7454 21.0433C44.6918 21.0471 44.6377 21.0533 44.584 21.0619L25.6351 24.0475C25.144 24.1247 24.7115 24.3857 24.4169 24.7823C24.1225 25.1783 24.0011 25.663 24.0752 26.1463L30.8348 70.1394C30.9779 71.0718 31.8365 71.7475 32.7885 71.6788Z" fill="#EFF9FD"/>
<path d="M31.5306 56.4277C31.231 54.4527 32.548 52.5882 34.4818 52.1932L34.671 52.1596L44.9877 50.5969C46.9605 50.2985 48.8239 51.6176 49.22 53.5539L49.2535 53.7431C49.5533 55.7182 48.2364 57.5826 46.3024 57.9775L46.1132 58.0111L35.7976 59.5745C33.8249 59.8732 31.9606 58.5539 31.5645 56.6178L31.5306 56.4277Z" stroke="#1D478E" stroke-width="0.2"/>
<path d="M36.0937 56.3552L36.0138 55.8262L36.7801 55.7104C36.9449 55.6855 37.0715 55.609 37.1601 55.481C37.2486 55.353 37.2794 55.2001 37.2525 55.0221C37.2341 54.9001 37.1901 54.7989 37.1207 54.7184C37.054 54.6341 36.9689 54.5728 36.8653 54.5345C36.7618 54.4962 36.6476 54.4881 36.5229 54.5104L35.8307 54.615L35.7515 54.0909L36.4528 53.9799C36.6901 53.944 36.9069 53.9618 37.1031 54.0333C37.2988 54.1015 37.4607 54.2136 37.5888 54.3695C37.7164 54.5222 37.7971 54.7105 37.831 54.9347C37.8638 55.1522 37.8454 55.3539 37.7758 55.5397C37.7061 55.7255 37.593 55.8808 37.4366 56.0056C37.2829 56.1266 37.094 56.204 36.8699 56.2379L36.0937 56.3552ZM35.7554 57.6301L35.2324 54.1694L35.8059 54.0827L36.3289 57.5434L35.7554 57.6301ZM41.0886 56.8241L39.216 53.5674L39.7894 53.4807L41.6967 56.7322L41.0886 56.8241ZM38.325 57.2417L39.1813 53.5726L39.7598 53.4852L38.9331 57.1498L38.325 57.2417ZM38.8441 56.2935L38.7672 55.7843L40.8387 55.4713L40.9156 55.9805L38.8441 56.2935ZM42.1477 56.664L41.6247 53.2033L42.1982 53.1167L42.7212 56.5774L42.1477 56.664ZM44.6306 56.2888L44.5499 55.7549C44.7114 55.7305 44.8586 55.6779 44.9913 55.5971C45.1236 55.5131 45.2342 55.4087 45.3233 55.284C45.4123 55.1593 45.4755 55.02 45.5129 54.866C45.5503 54.712 45.5563 54.551 45.5309 54.3829C45.5055 54.2148 45.4522 54.0627 45.371 53.9267C45.2897 53.7906 45.1882 53.6762 45.0663 53.5833C44.9443 53.4905 44.808 53.4251 44.6574 53.3872C44.5062 53.346 44.3498 53.3376 44.1883 53.362L44.1076 52.8281C44.4471 52.7768 44.7582 52.8056 45.041 52.9146C45.3266 53.0198 45.5633 53.1913 45.7509 53.4293C45.9419 53.6668 46.063 53.9552 46.1143 54.2947C46.1651 54.6309 46.1344 54.9406 46.0221 55.2239C45.9132 55.5067 45.7381 55.7422 45.4968 55.9304C45.2588 56.118 44.9701 56.2375 44.6306 56.2888ZM43.9138 56.3971L43.8331 55.8632L44.5499 55.7549L44.6306 56.2888L43.9138 56.3971ZM43.543 56.4532L43.02 52.9925L43.5935 52.9058L44.1165 56.3665L43.543 56.4532ZM43.4715 53.4704L43.3908 52.9364L44.1076 52.8281L44.1883 53.362L43.4715 53.4704Z" fill="#32B353"/>
<path d="M36.6655 45.0405C36.6655 45.0405 43.3178 45.3791 46.2216 45.6673C49.1258 45.9554 50.3453 46.2293 50.3453 46.2293L49.3909 40.0375L36.6655 45.0405Z" fill="#161742"/>
<path d="M65.0396 38.3282C55.7805 40.4502 46.5302 42.5609 37.3325 44.9397C36.1102 45.2693 34.8894 44.7527 34.6645 43.8314C33.2779 38.1472 31.891 32.4636 30.5044 26.7794C30.2795 25.8581 30.9666 24.8412 32.0552 24.5759C41.3637 22.3063 50.6719 20.0373 59.9804 17.7678C61.069 17.5024 62.1472 18.0887 62.3718 19.0105C63.7643 24.7183 65.1567 30.4262 66.5492 36.134C66.776 37.0627 66.0992 38.0798 65.0396 38.3282Z" fill="#8CD6F5"/>
<path d="M39.6503 33.4088C38.3783 33.7142 37.7389 33.8685 36.4517 34.1809C35.979 34.2957 35.742 34.3532 35.267 34.4688C34.9367 34.5492 34.7322 34.8661 34.8131 35.1733C34.8709 35.3938 34.9 35.5037 34.9575 35.723C34.9782 35.8015 34.9882 35.8408 35.0089 35.9193C35.1139 36.3183 35.166 36.5168 35.2704 36.9139C35.291 36.992 35.3012 37.0308 35.3218 37.1089C35.368 37.2847 35.3913 37.3725 35.4375 37.5483C35.517 37.85 35.8559 38.03 36.1907 37.9489C36.7191 37.8211 36.983 37.7575 37.5075 37.6309C38.4018 37.4155 38.8465 37.3088 39.7311 37.0977C40.0872 37.0129 40.2648 36.9703 40.6197 36.8858C40.9489 36.8074 41.1445 36.4985 41.06 36.1971C41.0088 36.0149 40.9835 35.9234 40.9323 35.7412C40.9103 35.6627 40.899 35.6233 40.8773 35.5444C40.7648 35.143 40.7086 34.9424 40.5955 34.5391C40.5158 34.2541 40.4758 34.1112 40.3957 33.825C40.3098 33.5177 39.977 33.3303 39.6503 33.4088Z" fill="#F0C61C"/>
<path d="M37.4128 36.5087C37.555 36.5884 37.7621 36.7521 37.8461 37.0613C37.9031 37.271 37.8697 37.4356 37.8151 37.5563C37.6924 37.5856 37.6309 37.6005 37.5082 37.6302C37.5621 37.5807 37.7107 37.411 37.6299 37.1131C37.5454 36.8024 37.3044 36.6792 37.2266 36.647C36.4682 36.8302 36.0876 36.9221 35.322 37.108C35.3014 37.0299 35.2912 36.9911 35.2706 36.913C36.0389 36.7263 36.421 36.6339 37.1821 36.4499C37.2342 36.4027 37.3908 36.2329 37.3081 35.9263C37.2236 35.6143 36.9834 35.4922 36.9054 35.4579C36.1502 35.6405 35.771 35.7328 35.0094 35.9178C34.9886 35.8394 34.9783 35.8002 34.9579 35.7216C35.7221 35.5353 36.103 35.4429 36.8609 35.2595C36.9126 35.2124 37.0685 35.0416 36.985 34.7327C36.8731 34.3197 36.5496 34.2054 36.452 34.1791C36.5832 34.1471 36.6491 34.1312 36.7805 34.0996C36.9408 34.2016 37.1172 34.3781 37.1996 34.681C37.2834 34.9897 37.183 35.1999 37.091 35.3206C37.2324 35.3989 37.4391 35.564 37.5237 35.8738C37.6065 36.1791 37.5056 36.3907 37.4128 36.5087Z" fill="#CCA91E"/>
<path d="M39.0166 35.4896C39.1021 35.7996 39.3301 35.8792 39.3991 35.8972C39.9922 35.7552 40.2878 35.6845 40.8772 35.544C40.8992 35.6225 40.9105 35.6618 40.9322 35.7408C40.3504 35.8771 40.0583 35.9455 39.4728 36.0834C39.4309 36.132 39.2563 36.3573 39.3484 36.6906C39.4337 36.9998 39.662 37.0794 39.7314 37.0973C39.6067 37.1272 39.5443 37.1419 39.4192 37.172C39.3074 37.0889 39.1915 36.9583 39.1322 36.7425C39.0458 36.4298 39.1442 36.1906 39.2262 36.0547C39.0851 35.9929 38.8866 35.8512 38.8011 35.5412C38.6677 35.0568 38.9713 34.7416 38.9853 34.7282C38.9944 34.7194 38.9989 34.715 39.0081 34.7065C39.6228 34.5589 39.9291 34.4856 40.5399 34.3392C40.5624 34.4192 40.5734 34.4591 40.5959 34.5391C40.011 34.6789 39.7178 34.7493 39.1294 34.8903C39.0756 34.9584 38.9302 35.1757 39.0166 35.4896Z" fill="#CCA91E"/>
<path d="M43.695 35.1609C43.6618 35.166 43.6273 35.1655 43.592 35.1589C43.4348 35.1294 43.3307 34.9865 43.3604 34.8397C43.3804 34.7398 43.3831 34.6373 43.3679 34.535C43.3373 34.3296 43.2391 34.1423 43.0834 33.9937C42.9704 33.8855 42.9707 33.7128 43.0842 33.6078C43.1978 33.5031 43.381 33.5061 43.494 33.6142C43.7386 33.8489 43.8937 34.1439 43.9418 34.4671C43.9657 34.6279 43.9618 34.789 43.9304 34.9465C43.9078 35.0609 43.811 35.1436 43.695 35.1609Z" fill="#CEEDFB"/>
<path d="M44.7777 35.459C44.734 35.4682 44.6867 35.468 44.6398 35.4566C44.4849 35.4183 44.3904 35.2697 44.4286 35.1254C44.4983 34.8642 44.5035 34.5964 44.4436 34.328C44.3578 33.9424 44.1466 33.598 43.8329 33.3331C43.7127 33.2315 43.7009 33.0583 43.8058 32.9463C43.9111 32.8341 44.0933 32.8262 44.2133 32.9284C44.6218 33.275 44.8972 33.7239 45.0087 34.2259C45.0864 34.5754 45.0802 34.9243 44.9897 35.2644C44.9636 35.365 44.8791 35.4373 44.7777 35.459Z" fill="#CEEDFB"/>
<path d="M45.7889 35.7576C45.7409 35.7682 45.6893 35.7676 45.6383 35.7528C45.4851 35.7093 45.3966 35.558 45.4402 35.4149C45.568 34.9983 45.5814 34.551 45.4797 34.1195C45.3461 33.5518 45.0291 33.0468 44.5618 32.6585C44.4405 32.5577 44.4255 32.3838 44.5288 32.2706C44.6316 32.1571 44.8141 32.1475 44.9351 32.2488C45.4975 32.7186 45.8802 33.3282 46.0415 34.0125C46.1641 34.5322 46.1479 35.071 45.9948 35.5734C45.9657 35.6686 45.8852 35.7359 45.7889 35.7576Z" fill="#CEEDFB"/>
<path d="M46.9102 36.0289C46.8605 36.0396 46.8065 36.0381 46.7541 36.0216C46.6026 35.9738 46.518 35.8204 46.566 35.6788C46.7589 35.1042 46.7872 34.4846 46.6482 33.8838C46.4752 33.1352 46.062 32.4643 45.4517 31.9439C45.3315 31.8414 45.318 31.6667 45.4217 31.5537C45.5251 31.4409 45.707 31.4331 45.8274 31.5364C46.5318 32.14 47.0085 32.9157 47.2084 33.7798C47.3689 34.4733 47.3363 35.1887 47.1143 35.8521C47.0832 35.9441 47.0039 36.0084 46.9102 36.0289Z" fill="#CEEDFB"/>
<path d="M31.8774 32.3977L63.8088 24.8912C63.487 23.5722 63.1653 22.2535 62.8435 20.9345L30.912 28.441C31.2337 29.7596 31.5555 31.0787 31.8774 32.3977Z" fill="#1D478E"/>
<path d="M61.1765 18.66C61.6455 18.8871 61.9669 19.2346 62.1883 19.6729C62.4097 19.2369 62.7311 18.8871 63.2 18.66C62.7311 18.4329 62.4073 18.0854 62.1883 17.6471C61.9669 18.0831 61.6455 18.4329 61.1765 18.66Z" fill="#AF8E2F"/>
<path d="M23.1641 18.2101C23.9143 18.5733 24.4299 19.1308 24.7818 19.8298C25.1337 19.1308 25.6515 18.5712 26.4017 18.208C25.6515 17.8448 25.1337 17.2873 24.7818 16.5883C24.4299 17.2873 23.9143 17.8469 23.1641 18.2101Z" fill="#FFD325"/>
<path d="M10.2126 46.7753C10.6815 47.0023 11.0038 47.3507 11.2237 47.7876C11.4436 47.3507 11.7673 47.001 12.2362 46.774C11.7673 46.547 11.4436 46.1986 11.2237 45.7617C11.0038 46.1986 10.6815 46.5483 10.2126 46.7753Z" fill="#AF8E2F"/>
<path d="M61.1765 70.4254C61.6454 70.6524 61.9677 71.0008 62.1876 71.4377C62.4075 71.0008 62.7312 70.6511 63.2 70.4241C62.7312 70.197 62.4075 69.8486 62.1876 69.4118C61.9677 69.8486 61.6454 70.1984 61.1765 70.4254Z" fill="#AF8E2F"/>
<path d="M55.2942 45.7195C55.7631 45.9465 56.0853 46.2949 56.3053 46.7318C56.5252 46.2949 56.8488 45.9452 57.3177 45.7182C56.8488 45.4911 56.5252 45.1427 56.3053 44.7059C56.0853 45.1427 55.7631 45.4925 55.2942 45.7195Z" fill="#FFD325"/>
</svg>
