<svg width="28" height="32" viewBox="0 0 28 32" fill="none" xmlns="http://www.w3.org/2000/svg">
<path d="M24.5117 21.297L21.1838 20.5289L18 18.7097V16.2629C18.8434 15.3712 19.3628 14.222 19.4747 12.9997H20C20.4245 13.0005 20.8381 12.8659 21.1809 12.6156C21.5237 12.3653 21.7778 12.0123 21.9064 11.6077C22.0349 11.2032 22.0311 10.7683 21.8956 10.366C21.7602 9.96375 21.5 9.61514 21.1529 9.37079C21.5015 7.59249 22.0529 3.19944 19.5703 1.11149C17.7232 -0.440306 14.6558 -0.364556 10.45 1.34004C9.96659 1.24159 9.46833 1.24085 8.9846 1.33789C8.50088 1.43492 8.04145 1.62776 7.63338 1.90504C6.88138 2.49469 6.50003 3.44354 6.50003 4.72469V9.69069C6.24542 9.97832 6.07949 10.3335 6.02228 10.7133C5.96507 11.0932 6.01902 11.4815 6.17762 11.8313C6.33621 12.1812 6.59268 12.4777 6.91606 12.685C7.23943 12.8923 7.61591 13.0016 8.00003 12.9997H8.52538C8.6373 14.222 9.15663 15.3712 10 16.2629V18.7097L6.81643 20.5289L3.48833 21.2971C2.49497 21.5224 1.60807 22.0796 0.973924 22.8767C0.339776 23.6738 -0.00374255 24.6633 3.07566e-05 25.6818V31.4997C3.07566e-05 31.6323 0.0527093 31.7595 0.146477 31.8532C0.240246 31.947 0.367423 31.9997 0.500031 31.9997H27.5C27.6326 31.9997 27.7598 31.947 27.8536 31.8532C27.9474 31.7595 28 31.6323 28 31.4997V25.6818C28.0038 24.6633 27.6603 23.6738 27.0261 22.8767C26.392 22.0796 25.5051 21.5224 24.5117 21.297ZM13.325 27.4997H14.675L16.2305 30.9997H11.7693L13.325 27.4997ZM14.6616 26.4997H13.3386L12.5096 24.4272L14 23.5755L15.4904 24.4272L14.6616 26.4997ZM14 17.9997C15.0647 17.9987 16.1064 17.6903 17 17.1115V18.8115L14 22.2402L11 18.8117V17.1117C11.8945 17.6885 12.9357 17.9966 14 17.9997ZM14.7788 22.8688L17.607 19.6369L20.2212 21.1305L17.3931 24.3625L14.7788 22.8688ZM20 11.9997H19.5V9.99969H20C20.2652 9.99969 20.5196 10.1051 20.7071 10.2926C20.8947 10.4801 21 10.7345 21 10.9997C21 11.2649 20.8947 11.5193 20.7071 11.7068C20.5196 11.8943 20.2652 11.9997 20 11.9997ZM7.50003 4.72469C7.50003 3.76864 7.75123 3.08604 8.24663 2.69469C8.66161 2.40111 9.16213 2.25321 9.67003 2.27409C9.90865 2.27331 10.1467 2.29703 10.3805 2.34489C10.4835 2.37017 10.5919 2.36214 10.6901 2.32194C14.5956 0.715494 17.3666 0.566094 18.9266 1.87694C20.9344 3.56494 20.5216 7.30369 20.2045 9.01024C20.0565 8.99469 19.6628 8.99969 19.5 8.99969V6.49969C19.5036 6.39458 19.4717 6.29131 19.4093 6.20662C19.347 6.12192 19.2578 6.06075 19.1564 6.03299C19.0733 6.00209 18.9835 5.9943 18.8964 6.01044L15.0025 6.83369C13.2947 7.18328 11.5218 7.02132 9.90558 6.36809C9.67628 6.27383 9.45085 6.16958 9.22928 6.05534C9.15306 6.01602 9.06801 5.99696 8.9823 6.00001C8.89659 6.00305 8.8131 6.02808 8.73986 6.07271C8.66662 6.11734 8.60609 6.18005 8.56409 6.25483C8.52209 6.32961 8.50003 6.41393 8.50003 6.49969V8.99969H8.00003C7.83159 9.00317 7.66399 9.02445 7.50003 9.06319V4.72469ZM7.00003 10.9997C7.00293 10.7354 7.10922 10.4827 7.29613 10.2958C7.48304 10.1089 7.73571 10.0026 8.00003 9.99969H8.50003V11.9997H8.00003C7.73491 11.9994 7.48073 11.8939 7.29326 11.7065C7.10579 11.519 7.00034 11.2648 7.00003 10.9997ZM9.50003 9.49969V7.28239C11.3065 8.02796 13.2954 8.21323 15.2085 7.81414L18.5 7.11689V12.4997C18.5 13.6932 18.0259 14.8378 17.182 15.6817C16.3381 16.5256 15.1935 16.9997 14 16.9997C12.8066 16.9997 11.662 16.5256 10.8181 15.6817C9.97414 14.8378 9.50003 13.6932 9.50003 12.4997V9.49969ZM10.3931 19.6369L13.2212 22.8688L10.607 24.3625L7.77883 21.1305L10.3931 19.6369ZM1.00003 25.6818C0.99706 24.8896 1.26424 24.1201 1.75748 23.5002C2.25073 22.8802 2.94056 22.447 3.71318 22.2718L6.82113 21.5545L10.1238 25.329C10.1998 25.4158 10.3034 25.4737 10.4172 25.4929C10.531 25.512 10.6479 25.4912 10.7481 25.434L11.6331 24.9284L12.4576 26.9896L10.675 30.9997H5.50003V28.4997C5.50003 28.3671 5.44735 28.2399 5.35358 28.1461C5.25982 28.0524 5.13264 27.9997 5.00003 27.9997C4.86742 27.9997 4.74025 28.0524 4.64648 28.1461C4.55271 28.2399 4.50003 28.3671 4.50003 28.4997V30.9997H1.00003V25.6818ZM27 30.9997H23.5V28.4997C23.5 28.3671 23.4474 28.2399 23.3536 28.1461C23.2598 28.0524 23.1326 27.9997 23 27.9997C22.8674 27.9997 22.7402 28.0524 22.6465 28.1461C22.5527 28.2399 22.5 28.3671 22.5 28.4997V30.9997H17.325L15.5425 26.9897L16.3672 24.9284L17.2522 25.434C17.3524 25.4913 17.4693 25.5122 17.5832 25.493C17.697 25.4739 17.8007 25.4159 17.8767 25.329L21.1794 21.5545L24.2873 22.2719C25.0598 22.4471 25.7495 22.8804 26.2427 23.5003C26.7358 24.1202 27.003 24.8897 27 25.6818V30.9997Z" fill="#707070"/>
</svg>
