<svg width="92" height="70" viewBox="0 0 92 70" fill="none" xmlns="http://www.w3.org/2000/svg">
<path d="M38.8388 18.0063C38.8388 27.2775 31.2364 34.7933 21.8583 34.7933C12.4801 34.7933 4.87769 27.2775 4.87769 18.0063C4.87769 8.73507 12.4801 1.21927 21.8583 1.21927C31.2364 1.21927 38.8388 8.73507 38.8388 18.0063Z" fill="#EFF9FD"/>
<path d="M75.9923 53.1458C75.9923 57.5799 72.3563 61.1744 67.8711 61.1744C63.386 61.1744 59.75 57.5799 59.75 53.1458C59.75 48.7118 63.386 45.1172 67.8711 45.1172C72.3563 45.1172 75.9923 48.7118 75.9923 53.1458Z" fill="#EFF9FD"/>
<ellipse cx="41.7098" cy="31.4231" rx="27.5534" ry="27.0052" transform="rotate(-8.06278 41.7098 31.4231)" fill="#161742"/>
<path d="M40.0454 6.95778C53.7365 5.01832 66.4739 14.724 68.4529 28.6931C70.4317 42.6624 60.8913 55.5248 47.2 57.4643C33.5089 59.4037 20.7713 49.6972 18.7924 35.728C16.8137 21.7588 26.3543 8.89733 40.0454 6.95778Z" fill="white" stroke="#1D478E" stroke-width="3"/>
<path d="M41.7217 19.7257C41.789 19.3446 42.3043 19.2716 42.4748 19.6191L46.2559 27.3269C46.3323 27.4826 46.5003 27.5714 46.672 27.5467L55.2486 26.3128C55.6342 26.2574 55.8635 26.7296 55.5816 26.9983L49.3409 32.9466C49.2141 33.0675 49.1807 33.2569 49.2586 33.4139L53.0677 41.0932C53.2401 41.4407 52.8665 41.8056 52.5232 41.6249L44.8743 37.6006C44.7218 37.5204 44.5351 37.5469 44.4109 37.6663L38.1807 43.6566C37.901 43.9255 37.4408 43.6788 37.5098 43.2971L39.0363 34.862C39.0675 34.6896 38.9828 34.5169 38.8274 34.436L31.1802 30.455C30.8347 30.2751 30.9239 29.7578 31.3096 29.704L39.8915 28.5072C40.0633 28.4832 40.2001 28.3513 40.2302 28.1805L41.7217 19.7257Z" fill="#161742"/>
<path d="M42.5922 20.3621C42.6595 19.981 43.1748 19.908 43.3453 20.2554L47.1264 27.9633C47.2028 28.119 47.3708 28.2078 47.5424 28.1831L56.1191 26.9492C56.5046 26.8938 56.734 27.366 56.4521 27.6347L50.2114 33.583C50.0846 33.7039 50.0512 33.8933 50.129 34.0503L53.9382 41.7296C54.1106 42.0771 53.737 42.4419 53.3936 42.2613L45.7448 38.237C45.5923 38.1568 45.4056 38.1832 45.2813 38.3027L39.0512 44.293C38.7715 44.5619 38.3112 44.3152 38.3803 43.9335L39.9068 35.4984C39.938 35.3259 39.8533 35.1533 39.6979 35.0724L32.0506 31.0913C31.7052 30.9115 31.7943 30.3942 32.1801 30.3404L40.762 29.1436C40.9338 29.1196 41.0706 28.9877 41.1007 28.8169L42.5922 20.3621Z" fill="#1D478E"/>
<path d="M74.3825 13.1564C75.4002 13.6455 76.0976 14.394 76.578 15.3381C77.0584 14.3989 77.7558 13.6455 78.7735 13.1564C77.7558 12.6672 77.0533 11.9188 76.578 10.9746C76.0976 11.9139 75.4002 12.6672 74.3825 13.1564Z" fill="#AF8E2F"/>
<path d="M42.6784 62.7986C43.5262 63.2087 44.1072 63.8362 44.5075 64.6277C44.9077 63.8403 45.4887 63.2087 46.3366 62.7986C45.4887 62.3885 44.9034 61.7611 44.5075 60.9696C44.1072 61.757 43.5262 62.3885 42.6784 62.7986Z" fill="#FFD325"/>
<path d="M4.87769 46.0797C5.89537 46.5689 6.59277 47.3173 7.07321 48.2614C7.55364 47.3222 8.25104 46.5689 9.26873 46.0797C8.25104 45.5905 7.54847 44.8421 7.07321 43.898C6.59277 44.8372 5.89537 45.5905 4.87769 46.0797Z" fill="#AF8E2F"/>
<path d="M24.3878 1.20987C24.9546 1.48083 25.3442 1.89672 25.61 2.41816C25.8758 1.89672 26.2671 1.47925 26.8339 1.20829C26.2671 0.937331 25.8758 0.521441 25.61 0C25.3442 0.521441 24.9546 0.938908 24.3878 1.20987Z" fill="#FFD325"/>
<path d="M39.66 61.3679C39.66 61.3679 39.2311 63.4092 37.8657 65.5083C36.3449 67.8445 33.6609 70.2499 29.1115 69.9791L21.9755 61.2148C21.9755 61.2148 23.1611 61.6686 24.7737 61.7583C27.5419 61.9133 31.5707 60.9963 33.0409 54.8727C33.0409 54.8727 35.6256 59.2035 39.66 61.3679Z" fill="#32B353"/>
<path d="M37.8671 65.5058C36.3462 67.8421 33.6623 70.2475 29.1128 69.9767L21.9768 61.2124C21.9768 61.2124 23.9809 61.8529 25.8164 61.7596C26.5619 62.585 27.7062 63.6346 29.3207 64.46C33.0011 66.3443 36.5897 65.7747 37.869 65.5058H37.8671Z" fill="#579C53"/>
<path d="M33.5286 58.062C33.7777 58.3907 34.0699 58.7586 34.4314 59.1788C35.5963 60.5327 36.752 61.5636 37.8739 62.2509C37.6547 62.8541 37.1621 64.0231 36.2912 65.1754C35.5739 66.1241 34.7423 66.8786 33.817 67.4164C32.6708 68.0831 31.3728 68.4212 29.9568 68.4212C29.5242 68.4212 29.0747 68.3894 28.6158 68.3259C28.3142 67.9599 27.5707 67.0336 26.8627 65.9859C25.8251 64.4527 25.4617 63.5581 25.3456 63.0595C25.4449 63.0632 25.5535 63.0651 25.6696 63.0651C27.4845 63.0651 31.6818 62.5497 33.5099 58.0358L33.5286 58.0601V58.062ZM33.3244 56.779C31.8916 61.8979 27.5782 62.488 25.6696 62.488C25.0984 62.488 24.7425 62.4357 24.7425 62.4357C24.3548 64.1987 28.3105 68.8694 28.3105 68.8694C28.8892 68.9609 29.438 69.002 29.9568 69.002C36.6583 69.002 38.5744 61.9857 38.5744 61.9857C35.705 60.4394 33.3263 56.779 33.3263 56.779H33.3244Z" fill="#4F954D"/>
<path d="M31.4866 66.1717C31.6976 65.1778 30.6684 64.1188 29.1878 63.8063C27.7073 63.4939 26.336 64.0463 26.1251 65.0403C25.9141 66.0342 26.9433 67.0932 28.4238 67.4056C29.9044 67.7181 31.2756 67.1656 31.4866 66.1717Z" fill="#4F954D"/>
<path d="M28.0542 63.6059C29.5919 63.4957 31.1745 64.3006 31.5884 65.4043C32.0024 66.508 31.0921 67.4941 29.5544 67.6043C28.0167 67.7145 26.434 66.9095 26.0201 65.8058C25.6062 64.7021 26.5164 63.7161 28.0542 63.6059ZM27.9081 63.2174C27.4586 63.2492 27.0465 63.3444 26.6831 63.4994C26.3329 63.6488 26.0407 63.8468 25.8178 64.0877C25.595 64.3286 25.4507 64.6013 25.3908 64.8982C25.3271 65.2045 25.3571 65.5238 25.4788 65.8469C25.6006 66.17 25.8047 66.4763 26.0894 66.7583C26.3629 67.0309 26.7 67.2681 27.0877 67.4661C27.4754 67.664 27.895 67.8097 28.337 67.9012C28.794 67.9965 29.2529 68.0282 29.7024 67.9964C30.1519 67.9647 30.5639 67.8695 30.9273 67.7145C31.2775 67.5651 31.5697 67.3671 31.7926 67.1262C32.0155 66.8853 32.1597 66.6126 32.2196 66.3157C32.2833 66.0094 32.2533 65.6901 32.1316 65.367C32.0099 65.0439 31.8057 64.7376 31.521 64.4556C31.2476 64.183 30.9104 63.9458 30.5227 63.7478C30.135 63.5499 29.7155 63.4042 29.2735 63.3127C28.8165 63.2174 28.3576 63.1857 27.9081 63.2174Z" fill="#4F954D"/>
<path d="M28.1025 63.727C29.5466 63.6224 31.0318 64.3788 31.4214 65.4152C31.811 66.4517 30.955 67.3761 29.511 67.4807C28.0669 67.5853 26.5817 66.829 26.1921 65.7925C25.8025 64.756 26.6585 63.8316 28.1025 63.727ZM28.0201 63.5085C27.2409 63.5645 26.5892 63.8353 26.1865 64.2704C25.7838 64.7056 25.677 65.2546 25.8887 65.813C26.0984 66.3733 26.6004 66.8775 27.3009 67.2323C28.0014 67.589 28.8161 67.7534 29.5953 67.6974C30.3744 67.6413 31.0262 67.3705 31.4289 66.9354C31.8316 66.5003 31.9383 65.9512 31.7267 65.3928C31.5169 64.8326 31.015 64.3283 30.3145 63.9735C29.614 63.6168 28.7993 63.4525 28.0201 63.5085Z" fill="#A0D580"/>
<path d="M29.1024 64.8159L29.2092 64.984L29.5631 64.9168L29.7486 65.2025L29.3684 65.2772C29.4302 65.449 29.4021 65.5947 29.2841 65.7161C29.1661 65.8375 28.9395 65.9364 28.6042 66.0093L28.6754 66.1213C28.7222 66.1942 28.7784 66.2446 28.8458 66.2745C28.9132 66.3043 28.9994 66.3081 29.1043 66.2838C29.2035 66.2614 29.2616 66.2259 29.2785 66.1792C29.2953 66.1325 29.2785 66.069 29.2298 65.9925L29.8947 65.8505C30.0052 66.0335 30.0164 66.1923 29.9284 66.3268C29.8403 66.4612 29.6493 66.5621 29.3553 66.6312C29.0387 66.7059 28.7596 66.7096 28.5218 66.6424C28.2839 66.5751 28.0966 66.4313 27.9599 66.211L27.7351 65.8449C28.0273 65.7796 28.2408 65.7291 28.3738 65.6899C28.5068 65.6526 28.6004 65.6115 28.651 65.5704C28.7035 65.5293 28.7203 65.477 28.7053 65.4117L27.5329 65.6619L27.3531 65.3612L28.5424 65.1166L28.4375 64.9466L27.25 65.1876L27.0534 64.8495L29.2522 64.4331L29.4564 64.7543L29.1043 64.8197L29.1024 64.8159Z" fill="#A0D580"/>
<path d="M29.1119 69.9764C29.1119 69.9764 28.8141 69.9259 28.3402 69.7672C28.1248 69.6944 27.872 69.5991 27.5948 69.4759C26.5759 69.0221 25.2161 68.1854 24.0755 66.6895C23.787 66.3123 23.5136 65.8902 23.2607 65.4233C23.2532 65.4103 23.2457 65.3972 23.2383 65.3822C23.0828 65.0909 22.9367 64.7828 22.8019 64.4541C22.5209 63.7724 22.2887 63.0067 22.1238 62.1496C22.0658 61.8489 22.0152 61.5351 21.9759 61.2121C21.8729 60.3866 22.0283 59.3557 23.1128 58.4799C23.1128 58.4799 25.3884 63.6865 29.6794 66.6783C29.6794 66.6783 27.5086 67.7615 29.11 69.9782L29.1119 69.9764Z" fill="#32B353"/>
<path d="M28.7487 66.7288C24.7874 63.7389 22.9051 59.6266 22.9051 59.6266C22.2346 60.213 22.1053 61.27 22.1222 62.1496C22.287 63.0068 22.5211 63.7706 22.8002 64.4541C22.5923 63.7818 22.3619 62.4335 22.8564 60.7845C23.098 61.2102 23.4314 61.7612 23.8603 62.3831C24.6975 63.5988 26.061 65.3151 27.9284 66.824C27.7823 67.0537 27.6306 67.3526 27.5351 67.7167C27.4152 68.1705 27.3684 68.7737 27.5912 69.4741C27.8684 69.5973 28.1194 69.6926 28.3367 69.7654C27.4246 67.9334 28.7469 66.7269 28.7469 66.7269L28.7487 66.7288Z" fill="#4F954D"/>
<path d="M24.0749 66.6893C23.7865 66.3121 23.513 65.89 23.2602 65.4231C23.3576 65.3615 23.4906 65.3503 23.6385 65.4063C23.9607 65.5277 24.2398 65.9143 24.2585 66.271C24.2697 66.4708 24.1967 66.6184 24.0731 66.6875L24.0749 66.6893Z" fill="#4F954D"/>
<path d="M34.7443 62.6939C34.5402 63.0637 34.1525 63.2467 33.879 63.1048C33.6055 62.9628 33.5494 62.5464 33.7535 62.1785C33.9577 61.8087 34.3454 61.6257 34.6188 61.7676C34.8923 61.9096 34.9485 62.326 34.7443 62.6939Z" fill="#4F954D"/>
<path d="M22.4417 61.5731C22.4417 61.5731 22.777 62.1147 23.5543 61.2127L22.998 60.1818L22.4417 61.5731Z" fill="#4F954D"/>
<path d="M27.7692 68.2497C27.7692 68.2497 27.9247 66.8826 28.3386 66.8061L27.3815 66.031C27.3815 66.031 26.8646 67.3122 27.7692 68.2497Z" fill="#4F954D"/>
<path d="M32.8111 58.9177L33.4311 57.5506L34.2514 58.4788C34.2514 58.4788 34.2289 59.0951 32.8092 58.9177H32.8111Z" fill="#4F954D"/>
<path d="M37.7221 63.3529L38.239 62.1409L37.2313 61.3677C37.2313 61.3677 36.7069 62.7571 37.7221 63.3529Z" fill="#4F954D"/>
<path d="M90.45 32.346C81.5378 37.6371 80.0428 35.9445 80.0428 35.9445C79.7275 35.6599 78.7319 34.8608 77.4393 33.3023C77.1207 32.9168 76.7822 32.485 76.4338 32.0035C73.1218 27.4387 73.1632 25.2018 73.1632 25.2018L81.9593 24.3878C84.7685 29.8063 86.6469 30.526 88.4638 31.5502C89.8178 32.3129 90.45 32.3443 90.45 32.3443V32.346Z" fill="#32B353"/>
<path d="M90.5442 32.4389C81.632 37.73 80.0407 35.9448 80.0407 35.9448C79.7255 35.6602 78.7299 34.8611 77.4373 33.3026C80.726 33.7261 83.3478 33.7063 88.5481 31.5984C89.9021 32.3611 90.5442 32.4373 90.5442 32.4373V32.4389Z" fill="#579C53"/>
<path d="M81.1396 25.6447C83.7912 29.7975 84.4782 30.1499 86.5573 31.6009C87.7337 32.4215 88.9932 32.7971 89.7581 33.1296C89.1707 33.4721 88.5302 33.7749 87.8399 34.0363C86.929 34.3821 85.9317 34.6567 84.8764 34.8503C83.378 35.1266 82.1833 35.163 81.8083 35.1663C80.6617 34.6286 79.5367 33.7037 78.4598 32.4182C77.5488 31.3279 76.6744 29.9811 75.8597 28.4143C74.9072 26.5811 75.1876 27.1569 74.8707 26.2419L80.3149 25.7538L81.1363 25.6447H81.1396ZM73.8668 25.6447C73.8668 25.6447 76.0803 33.3199 81.6938 35.8215C81.6938 35.8215 87.0485 36.0134 90.9495 33.0667C90.9495 33.0667 85.9732 33.1081 81.4715 24.9531L73.8668 25.6447Z" fill="#4F954D"/>
<path d="M81.7257 26.0527C81.7257 26.0527 81.0437 26.9064 79.7993 25.7664L81.4602 25.4736L81.7257 26.0527Z" fill="#4F954D"/>
<path d="M89.0039 32.3467C89.0039 32.3467 88.3767 32.5717 88.9575 34.4628L90.333 33.2451L89.0039 32.3467Z" fill="#4F954D"/>
<path d="M74.8399 27.0821C74.8399 27.0821 76.0678 27.2691 76.0893 25.8611L74.435 26.1755L74.8399 27.0821Z" fill="#4F954D"/>
<path d="M83.508 33.4707C84.4787 33.0902 84.7259 32.0479 84.1286 31.1495C83.5495 30.2808 82.3431 29.8027 81.3724 30.0691C80.347 30.352 79.9238 31.3645 80.5013 32.3473C81.0986 33.3665 82.4808 33.8744 83.5096 33.4707H83.508Z" fill="#4F954D"/>
<path d="M80.3673 32.3899C79.7533 31.3393 80.2113 30.2622 81.3048 29.9644C82.3369 29.6831 83.6162 30.191 84.2335 31.1142C84.8707 32.0689 84.6135 33.1807 83.5814 33.5894C82.4829 34.0245 81.0045 33.4818 80.3673 32.3915V32.3899ZM79.9425 32.5305C80.125 32.8498 80.3756 33.1377 80.6826 33.3859C80.9812 33.6258 81.3181 33.816 81.6848 33.9501C82.0482 34.0824 82.4182 34.1519 82.7833 34.1569C83.1566 34.1618 83.5051 34.0973 83.8187 33.9699C84.1256 33.8442 84.3812 33.6622 84.5753 33.4339C84.7595 33.2171 84.884 32.9673 84.9454 32.6926C85.0067 32.423 85.0034 32.14 84.9404 31.8538C84.8757 31.561 84.7496 31.2764 84.5654 31.005C84.3828 30.7354 84.1555 30.4938 83.885 30.2853C83.6245 30.0835 83.3375 29.9197 83.0255 29.7956C82.7136 29.6715 82.3917 29.5938 82.0698 29.564C81.7313 29.5342 81.4044 29.559 81.0974 29.6384C80.7854 29.7195 80.51 29.8552 80.2793 30.0405C80.0537 30.2241 79.8794 30.4475 79.7666 30.7089C79.6521 30.9753 79.604 31.2648 79.6289 31.5709C79.6554 31.8935 79.7583 32.2178 79.9408 32.5322L79.9425 32.5305Z" fill="#4F954D"/>
<path d="M80.4981 32.3469C79.9206 31.3642 80.3438 30.3516 81.3692 30.0687C82.3399 29.8006 83.5462 30.2788 84.1253 31.1491C84.7244 32.0475 84.4755 33.0898 83.5048 33.4703C82.476 33.874 81.0938 33.3661 80.4964 32.3469H80.4981ZM80.2625 32.4247C80.5827 32.974 81.1236 33.4157 81.7791 33.6556C82.4279 33.8939 83.0916 33.9005 83.6408 33.6821C84.1718 33.4703 84.5236 33.0733 84.6414 32.5736C84.7559 32.0905 84.6381 31.5643 84.3178 31.0862C84.0026 30.6163 83.523 30.2391 82.9572 30.0141C82.388 29.7874 81.7857 29.7394 81.2547 29.8834C80.7072 30.0306 80.294 30.3648 80.0982 30.8331C79.8941 31.3178 79.9505 31.8853 80.2641 32.4247H80.2625Z" fill="#A0D580"/>
<path d="M83.4874 31.8951L83.3149 31.9597L83.4775 32.1119L83.1771 32.226L83.0029 32.0622C82.8104 32.1086 82.6312 32.1119 82.462 32.0705C82.2944 32.0291 82.1367 31.9348 81.9891 31.7859L81.8729 31.8306C81.7966 31.8604 81.7485 31.8918 81.7252 31.9266C81.702 31.9613 81.7136 32.0027 81.7584 32.049C81.8016 32.092 81.853 32.1168 81.9127 32.1185C81.9725 32.1218 82.0422 32.1069 82.1251 32.0755L82.4221 32.3667C82.2197 32.4395 82.0289 32.4643 81.8497 32.4395C81.6705 32.4146 81.5161 32.3369 81.3884 32.2062C81.2507 32.0639 81.2025 31.9332 81.244 31.8124C81.2855 31.6916 81.4182 31.589 81.6439 31.503L82.0156 31.3624C82.1434 31.4931 82.2429 31.5874 82.3143 31.647C82.384 31.7049 82.4487 31.7446 82.5068 31.7644C82.5648 31.7843 82.6296 31.7876 82.7026 31.7743L82.1815 31.2532L82.4786 31.144L83.0112 31.6718L83.1838 31.6089L82.6511 31.0828L82.978 30.9669L83.9836 31.9282L83.6533 32.0507L83.4907 31.8984L83.4874 31.8951Z" fill="#A0D580"/>
<path d="M78.724 28.193C78.8484 28.5504 79.2201 28.8251 79.5553 28.8052C79.8905 28.7854 80.0614 28.4776 79.9353 28.1186C79.8092 27.7612 79.4375 27.4899 79.1039 27.5114C78.7721 27.5329 78.6012 27.8373 78.7256 28.193H78.724Z" fill="#4F954D"/>
<path d="M90.8832 33.4051C90.8832 33.4051 90.9678 33.339 90.6061 33.5954C90.3406 33.7824 90.4103 33.7427 90.0303 33.9528C88.2349 34.9422 85.3361 36.0705 83.0296 36.3684C82.7525 36.4048 82.4821 36.4279 82.2249 36.4378C81.3073 36.4742 80.5357 36.3353 80.0445 35.9448C80.0445 35.9448 82.0706 36.418 81.6972 34.3945C81.6972 34.3945 88.7709 32.5266 91.0574 30.8407C91.0574 30.8407 91.5137 31.9723 90.8865 33.4051H90.8832Z" fill="#32B353"/>
<path d="M82.5776 34.9967C82.5079 35.8057 82.1295 36.1962 81.8773 36.4427C82.1262 36.4774 82.8762 36.4245 83.1865 36.3467C83.2911 36.1002 83.3807 35.7842 83.3989 35.4583C84.1323 35.2597 85.4382 34.8875 86.9913 34.3365C88.6673 33.7409 89.2829 33.4067 89.9366 33.0973C89.9847 33.7392 89.6512 34.1363 89.6164 34.1744C90.0113 33.9841 90.3598 33.7922 90.6087 33.5953C90.8211 33.0659 90.6916 31.8796 90.6916 31.8796C89.2945 32.9467 82.5809 34.9983 82.5809 34.9983L82.5776 34.9967Z" fill="#4F954D"/>
<path d="M9.7754 20.6324C9.7754 20.6324 6.59918 12.6449 0 13.9499C0 13.9499 0.804075 11.3487 4.67291 7.31622C4.67291 7.31622 11.7643 7.99808 15.672 16.6649C15.672 16.6649 11.6804 18.3021 9.77415 20.6324H9.7754Z" fill="#32B353"/>
<path d="M10.03 18.7991C8.34417 15.8582 6.35277 13.9874 4.08082 13.1869C3.33185 12.9234 2.55032 12.7873 1.81764 12.7948C2.28731 12.0493 2.94359 11.1801 3.75268 10.2372C4.33882 9.55413 4.86486 8.99716 5.13664 8.71493C6.48679 8.92723 7.78558 9.43175 9.00046 10.2198C10.0488 10.8991 11.0395 11.7883 11.9425 12.8635C12.7528 13.8276 13.3415 14.7642 13.6922 15.3811C13.85 15.6571 13.974 15.8956 14.0679 16.0805C13.9176 16.1541 13.7686 16.2316 13.6208 16.309C12.2418 17.0383 11.2048 17.8213 10.5786 18.3496C10.3694 18.5256 10.1915 18.6855 10.0425 18.8241L10.0287 18.8016L10.03 18.7991ZM9.90348 19.6546C9.90348 19.6546 11.2636 18.101 13.8475 16.7348C14.133 16.5837 14.4336 16.4351 14.7492 16.2915C14.7492 16.2915 11.6682 9.04212 4.96881 8.18793C4.96881 8.18793 2.05184 11.1127 0.910858 13.3843C0.910858 13.3843 5.81422 12.0068 9.90348 19.6546Z" fill="#4F954D"/>
<path d="M10.1542 13.073C10.2217 12.2875 9.44568 11.5798 8.42086 11.4922C7.39604 11.4046 6.51052 11.9703 6.44299 12.7558C6.37546 13.5412 7.15149 14.249 8.1763 14.3366C9.20112 14.4242 10.0866 13.8584 10.1542 13.073Z" fill="#4F954D"/>
<path d="M6.94362 13.9743C6.14831 13.3699 6.11199 12.4045 6.86221 11.8188C7.61243 11.2331 8.86739 11.2494 9.6627 11.8538C10.458 12.4582 10.4943 13.4236 9.74411 14.0093C8.99389 14.595 7.73893 14.5787 6.94362 13.9743ZM6.67935 14.1804C6.91106 14.3564 7.18034 14.4951 7.47717 14.59C7.76398 14.6824 8.06457 14.7311 8.37267 14.7348C8.67952 14.7386 8.97761 14.6974 9.2569 14.6125C9.54747 14.525 9.80548 14.3927 10.0247 14.2228C10.2438 14.0517 10.4104 13.8519 10.5219 13.6271C10.6283 13.4098 10.6784 13.1813 10.6697 12.944C10.6609 12.708 10.5933 12.477 10.4705 12.2572C10.3428 12.0299 10.1599 11.8251 9.92822 11.6478C9.69651 11.4717 9.42724 11.3331 9.1304 11.2381C8.84359 11.1457 8.543 11.097 8.2349 11.0933C7.92805 11.0895 7.62997 11.1307 7.35067 11.2157C7.0601 11.3031 6.80209 11.4355 6.58291 11.6053C6.36373 11.7764 6.19716 11.9762 6.08569 12.201C5.97923 12.4183 5.92913 12.6468 5.9379 12.8841C5.94667 13.1214 6.0143 13.3511 6.13704 13.5709C6.26479 13.7982 6.44765 14.003 6.67935 14.1804Z" fill="#4F954D"/>
<path d="M7.02533 13.9098C6.27887 13.3415 6.2438 12.4361 6.94893 11.8867C7.65406 11.3372 8.83012 11.3522 9.57783 11.9191C10.3243 12.4873 10.3594 13.3927 9.65423 13.9422C8.9491 14.4917 7.77305 14.4767 7.02533 13.9098ZM6.87629 14.0259C7.27958 14.3331 7.80686 14.5054 8.3617 14.5117C8.91653 14.5192 9.43129 14.3593 9.81204 14.0621C10.1928 13.7649 10.3932 13.3665 10.3769 12.9394C10.3606 12.5123 10.1302 12.109 9.72562 11.8017C9.32233 11.4945 8.79505 11.3222 8.24021 11.316C7.68537 11.3085 7.17061 11.4683 6.78987 11.7655C6.40912 12.0627 6.20873 12.4611 6.22501 12.8882C6.24129 13.3153 6.47175 13.7187 6.87629 14.0259Z" fill="#A0D580"/>
<path d="M7.63302 13.0089L7.74324 12.8902L7.55662 12.7266L7.7495 12.5256L7.94739 12.6992C8.08015 12.6055 8.22042 12.568 8.36821 12.5843C8.51475 12.6005 8.67131 12.6792 8.83914 12.8191L8.91303 12.7429C8.96188 12.6942 8.98943 12.6467 8.99444 12.603C9.0007 12.5593 8.97816 12.5156 8.92556 12.4731C8.87671 12.4319 8.82786 12.4157 8.78027 12.4244C8.73268 12.4332 8.68258 12.4631 8.62997 12.5156L8.29181 12.2284C8.42583 12.111 8.56735 12.0523 8.71765 12.0523C8.86794 12.0523 9.01573 12.111 9.16102 12.2309C9.31632 12.3582 9.39773 12.4894 9.4065 12.628C9.41526 12.7666 9.34638 12.9115 9.20235 13.0613L8.96564 13.3148C8.8216 13.1962 8.71139 13.11 8.63624 13.0576C8.56109 13.0051 8.49722 12.9739 8.44461 12.9627C8.39201 12.9527 8.34066 12.9627 8.28931 12.9951L8.87796 13.4884L8.69135 13.7007L8.08892 13.1924L7.97995 13.3136L8.58363 13.8256L8.38074 14.0691L7.23599 13.0751L7.44641 12.8453L7.63302 13.0101V13.0089Z" fill="#A0D580"/>
<path d="M11.3579 15.899C11.4438 15.6593 11.3017 15.3896 11.0405 15.2965C10.7793 15.2034 10.4979 15.3222 10.412 15.5618C10.3261 15.8015 10.4682 16.0712 10.7294 16.1643C10.9906 16.2574 11.2719 16.1386 11.3579 15.899Z" fill="#4F954D"/>
<path d="M4.42158 11.4845C4.14353 11.3858 4.06713 11.176 4.24999 11.0174C4.43285 10.8588 4.80733 10.8114 5.08412 10.91C5.36217 11.0087 5.43857 11.2185 5.25571 11.3771C5.07285 11.5357 4.69837 11.5832 4.42158 11.4845Z" fill="#4F954D"/>
<path d="M1.50046 13.1467L2.12794 11.9666C2.12794 11.9666 2.73788 12.6584 2.34085 13.0218L1.50046 13.1467Z" fill="#4F954D"/>
<path d="M5.11221 8.48468L6.12545 8.74194C6.12545 8.74194 5.14477 9.39882 4.21545 9.35636L5.11221 8.48593V8.48468Z" fill="#4F954D"/>
<path d="M10.7907 18.5094C10.812 18.5481 9.93775 19.2112 9.93775 19.2112L9.40796 18.2259C9.40796 18.2259 10.4275 17.8263 10.7907 18.5094Z" fill="#4F954D"/>
<path d="M13.8729 15.2135C13.8729 15.2135 13.1277 15.7705 13.392 16.7508L14.4052 16.2151L13.8729 15.2135Z" fill="#4F954D"/>
<path d="M60.7017 43.0735L66.7793 35.9791C67.0537 35.6588 67.5516 35.6668 67.8155 35.9958L73.5052 43.0903C73.8585 43.5309 73.5448 44.1845 72.9801 44.1845H71.3573C70.9856 44.1845 70.6843 44.4858 70.6843 44.8575V54.1996C70.6843 54.5713 70.3829 54.8726 70.0112 54.8726H64.443C64.0713 54.8726 63.77 54.5713 63.77 54.1996V44.8575C63.77 44.4858 63.4686 44.1845 63.0969 44.1845H61.2128C60.6379 44.1845 60.3276 43.5102 60.7017 43.0735Z" fill="#F0C61C"/>
</svg>
