<svg width="312" height="218" viewBox="0 0 312 218" fill="none" xmlns="http://www.w3.org/2000/svg">
<g clip-path="url(#clip0_3632_10069)">
<path d="M-1 16C-1 7.16344 6.16344 0 15 0H297C305.837 0 313 7.16344 313 16V218H-1V16Z" fill="#EFF9FD"/>
<path opacity="0.1" d="M20.3661 -110.099L68.5791 -131.528L129.773 41.5102L107.714 51.3151L20.3661 -110.099Z" fill="url(#paint0_linear_3632_10069)"/>
<path opacity="0.1" d="M289.438 -115.511L241.092 -137L177.225 42.153L199.345 51.985L289.438 -115.511Z" fill="url(#paint1_linear_3632_10069)"/>
<path opacity="0.1" d="M363.823 6.90231L335.387 -37.7125L183.201 76.3666L196.211 96.7798L363.823 6.90231Z" fill="url(#paint2_linear_3632_10069)"/>
<path opacity="0.1" d="M-51.3943 6.90231L-22.9584 -37.7125L129.228 76.3666L116.217 96.7798L-51.3943 6.90231Z" fill="url(#paint3_linear_3632_10069)"/>
<path opacity="0.1" d="M-68 118.734L-63.0496 66.0599L124.421 98.1458L122.156 122.247L-68 118.734Z" fill="url(#paint4_linear_3632_10069)"/>
<path opacity="0.1" d="M406.478 115.674L401.528 63L214.057 95.0859L216.322 119.187L406.478 115.674Z" fill="url(#paint5_linear_3632_10069)"/>
<path opacity="0.1" d="M122.947 -114.781L184.267 -114.781L167.635 38.5184L139.579 38.5184L122.947 -114.781Z" fill="url(#paint6_linear_3632_10069)"/>
<path opacity="0.1" d="M12.9998 290.669L59.2089 316.434L138.984 143.776L117.842 131.988L12.9998 290.669Z" fill="url(#paint7_linear_3632_10069)"/>
<path opacity="0.1" d="M130.054 320.65L182.96 320.65L168.556 131L144.349 131L130.054 320.65Z" fill="url(#paint8_linear_3632_10069)"/>
<path opacity="0.1" d="M275.194 274.246L226.032 293.797L169.334 112.248L191.827 103.303L275.194 274.246Z" fill="url(#paint9_linear_3632_10069)"/>
<path opacity="0.1" d="M381.715 171.17L363.451 220.824L190.431 141.836L198.788 119.117L381.715 171.17Z" fill="url(#paint10_linear_3632_10069)"/>
<path opacity="0.1" d="M-91.0002 175.627L-74.9386 226.036L101.388 154.737L94.0394 131.673L-91.0002 175.627Z" fill="url(#paint11_linear_3632_10069)"/>
</g>
<defs>
<linearGradient id="paint0_linear_3632_10069" x1="118.744" y1="46.4126" x2="44.4249" y2="-120.792" gradientUnits="userSpaceOnUse">
<stop offset="0.634615" stop-color="#8CD6F5"/>
<stop offset="0.961538" stop-color="#E1F6FF"/>
</linearGradient>
<linearGradient id="paint1_linear_3632_10069" x1="188.285" y1="47.069" x2="265.314" y2="-126.234" gradientUnits="userSpaceOnUse">
<stop offset="0.634615" stop-color="#8CD6F5"/>
<stop offset="0.961538" stop-color="#E1F6FF"/>
</linearGradient>
<linearGradient id="paint2_linear_3632_10069" x1="189.706" y1="86.5732" x2="349.634" y2="-15.3595" gradientUnits="userSpaceOnUse">
<stop offset="0.634615" stop-color="#8CD6F5"/>
<stop offset="0.961538" stop-color="#E1F6FF"/>
</linearGradient>
<linearGradient id="paint3_linear_3632_10069" x1="122.723" y1="86.5732" x2="-37.2054" y2="-15.3595" gradientUnits="userSpaceOnUse">
<stop offset="0.634615" stop-color="#8CD6F5"/>
<stop offset="0.961538" stop-color="#E1F6FF"/>
</linearGradient>
<linearGradient id="paint4_linear_3632_10069" x1="123.289" y1="110.196" x2="-65.5299" y2="92.4509" gradientUnits="userSpaceOnUse">
<stop offset="0.634615" stop-color="#8CD6F5"/>
<stop offset="0.961538" stop-color="#E1F6FF"/>
</linearGradient>
<linearGradient id="paint5_linear_3632_10069" x1="215.189" y1="107.136" x2="404.008" y2="89.391" gradientUnits="userSpaceOnUse">
<stop offset="0.248579" stop-color="#ADE1F7"/>
<stop offset="0.961538" stop-color="#E1F6FF"/>
</linearGradient>
<linearGradient id="paint6_linear_3632_10069" x1="153.607" y1="38.5184" x2="153.607" y2="-114.781" gradientUnits="userSpaceOnUse">
<stop offset="0.634615" stop-color="#8CD6F5"/>
<stop offset="0.961538" stop-color="#E1F6FF"/>
</linearGradient>
<linearGradient id="paint7_linear_3632_10069" x1="128.413" y1="137.882" x2="36.0571" y2="303.525" gradientUnits="userSpaceOnUse">
<stop offset="0.118381" stop-color="#ADE1F7"/>
<stop offset="0.458195" stop-color="#E1F6FF"/>
</linearGradient>
<linearGradient id="paint8_linear_3632_10069" x1="156.453" y1="131" x2="156.453" y2="320.65" gradientUnits="userSpaceOnUse">
<stop offset="0.126327" stop-color="#ADE1F7"/>
<stop offset="0.445995" stop-color="#E1F6FF"/>
</linearGradient>
<linearGradient id="paint9_linear_3632_10069" x1="180.581" y1="107.775" x2="250.663" y2="284.002" gradientUnits="userSpaceOnUse">
<stop offset="0.269231" stop-color="#ADE1F7"/>
<stop offset="0.961538" stop-color="#E1F6FF"/>
</linearGradient>
<linearGradient id="paint10_linear_3632_10069" x1="194.61" y1="130.477" x2="372.601" y2="195.946" gradientUnits="userSpaceOnUse">
<stop offset="0.338323" stop-color="#ADE1F7"/>
<stop offset="0.961538" stop-color="#E1F6FF"/>
</linearGradient>
<linearGradient id="paint11_linear_3632_10069" x1="97.7138" y1="143.205" x2="-82.9858" y2="200.78" gradientUnits="userSpaceOnUse">
<stop offset="0.216005" stop-color="#ADE1F7"/>
<stop offset="0.541305" stop-color="#E1F6FF"/>
</linearGradient>
<clipPath id="clip0_3632_10069">
<path d="M-1 16C-1 7.16344 6.16344 0 15 0H297C305.837 0 313 7.16344 313 16V218H-1V16Z" fill="white"/>
</clipPath>
</defs>
</svg>
