<svg width="42" height="42" viewBox="0 0 42 42" fill="none" xmlns="http://www.w3.org/2000/svg">
<path d="M39.9739 20.4559C39.7978 20.8013 39.7978 21.1983 39.9739 21.5437L41.6068 24.7486C42.5155 26.5327 41.7957 28.6589 39.9671 29.5899L36.6835 31.2617C36.3287 31.4422 36.0859 31.7629 36.0166 32.1419L35.3746 35.6552C35.0164 37.6116 33.1322 38.9257 31.0822 38.6477L27.4019 38.1481C27.0052 38.0948 26.612 38.217 26.3239 38.4844L23.6523 40.9642C22.9086 41.654 21.9537 41.9994 20.9996 41.9994C20.0447 41.9994 19.0906 41.654 18.3469 40.9634L15.6753 38.4836C15.3872 38.2162 14.994 38.0931 14.5973 38.1473L10.917 38.6468C10.7332 38.6714 10.5511 38.6837 10.3707 38.6837C8.54127 38.6837 6.95031 37.4353 6.6246 35.6544L5.98257 32.1411C5.91333 31.7621 5.66968 31.4413 5.31576 31.2609L2.03212 29.5891C0.203502 28.6589 -0.516317 26.5319 0.392433 24.7477L2.02528 21.5437C2.20139 21.1983 2.20139 20.8013 2.02528 20.4559L0.393288 17.2519C-0.515462 15.4677 0.204357 13.3415 2.03297 12.4105L5.31661 10.7387C5.67054 10.5582 5.91333 10.2375 5.98257 9.85853L6.6246 6.3452C6.98194 4.38879 8.86784 3.07468 10.917 3.35276L14.5973 3.85232C14.994 3.90564 15.3872 3.78341 15.6753 3.516L18.3469 1.03542C19.8344 -0.34514 22.1648 -0.34514 23.6523 1.03542L26.3239 3.51518C26.612 3.78259 27.0044 3.90564 27.4019 3.8515L31.0822 3.35194C33.1314 3.07386 35.0173 4.38797 35.3746 6.34438L36.0166 9.85771C36.0868 10.2367 36.3295 10.5574 36.6835 10.7379L39.9671 12.4097C41.7957 13.3399 42.5155 15.4669 41.6068 17.251L39.9739 20.4559Z" fill="#161742"/>
<path d="M14.1589 21.8558C14.1166 22.049 14.0328 22.2311 13.9138 22.389C13.7138 22.6552 13.4252 22.8414 13.1005 22.914C12.7117 23.0079 12.4391 23.3574 12.4424 23.7573V27.0418C12.4399 27.4401 12.7121 27.7879 13.0997 27.8819C13.4252 27.9553 13.7138 28.1423 13.9138 28.4097C14.0328 28.5676 14.1166 28.7498 14.1589 28.9429C14.2545 29.3322 14.6055 29.6041 15.0066 29.5996H25.9926C26.3932 29.6041 26.7447 29.3322 26.8407 28.9433C26.883 28.7502 26.9668 28.5681 27.0858 28.4101C27.2858 28.1439 27.5744 27.9577 27.8991 27.8851C28.2879 27.7912 28.5605 27.4418 28.5572 27.0418V23.7573C28.5596 23.3586 28.2875 23.0108 27.8995 22.9173C27.574 22.8439 27.2853 22.6564 27.0858 22.3894C26.9659 22.2311 26.8818 22.049 26.8387 21.8554C26.743 21.4669 26.3924 21.1954 25.9922 21.1995H15.007C14.6063 21.195 14.2549 21.4669 14.1589 21.8558ZM26.1543 22.0075C26.2192 22.2983 26.3456 22.5719 26.5254 22.8094C26.826 23.2089 27.2587 23.489 27.7468 23.5985C27.8149 23.6203 27.8601 23.6851 27.8564 23.7569V27.0414C27.8597 27.1128 27.8149 27.178 27.7468 27.2002C27.2587 27.3097 26.8255 27.5898 26.5254 27.9897C26.346 28.2272 26.22 28.5008 26.1555 28.7912C26.1309 28.8593 26.0648 28.9036 25.9922 28.8999H15.0066C14.9344 28.9036 14.8687 28.8597 14.844 28.7916C14.7796 28.5008 14.6536 28.2272 14.4742 27.9893C14.1736 27.5894 13.7405 27.3097 13.2524 27.2002C13.1843 27.178 13.1395 27.1132 13.1432 27.0414V23.7569C13.1395 23.6855 13.1843 23.6203 13.2524 23.5981C13.7409 23.4886 14.1741 23.2089 14.4742 22.809C14.6536 22.5715 14.7796 22.2979 14.844 22.0075C14.8687 21.9394 14.9348 21.8956 15.007 21.8988H25.9926C26.0648 21.8952 26.1309 21.939 26.1555 22.0071H26.1543V22.0075Z" fill="#AF8E2F"/>
<path d="M20.4995 27.8496C21.8539 27.8496 22.9516 26.7528 22.9516 25.3997C22.9516 24.0466 21.8539 22.9498 20.4995 22.9498C19.1451 22.9498 18.0474 24.0466 18.0474 25.3997C18.049 26.752 19.146 27.848 20.4995 27.8496ZM20.4995 23.6496C21.4667 23.6496 22.2513 24.433 22.2513 25.3997C22.2513 26.3665 21.4671 27.1499 20.4995 27.1499C19.5319 27.1499 18.7477 26.3665 18.7477 25.3997C18.749 24.4338 19.5323 23.6508 20.4995 23.6496Z" fill="#AF8E2F"/>
<path d="M10.2002 16.2498C10.0249 16.9229 9.86767 18.5426 12.0082 19.4269C12.3563 19.5696 12.6987 19.6923 13.0317 19.7997H11.7414C11.3542 19.7997 11.0406 20.1131 11.0406 20.4999V30.2999C11.0406 30.6866 11.3542 31 11.7414 31H29.2577C29.6448 31 29.9585 30.6866 29.9585 30.2999V20.4999C29.9585 20.1131 29.6448 19.7997 29.2577 19.7997H27.9686C28.3024 19.6923 28.6448 19.5696 28.9933 19.4265C31.133 18.5426 30.9754 16.9229 30.8005 16.2498C31.1129 15.5808 31.0554 14.7974 30.649 14.181C30.8744 13.3516 30.3858 12.5395 29.9963 12.0547C30.0311 11.4308 29.855 10.8135 29.4958 10.3021C29.3538 10.0953 29.1115 9.98091 28.8615 10.0027C28.6127 10.0248 28.3956 10.1798 28.2938 10.4075C27.9033 11.2922 26.8729 12.9209 24.3625 13.8848C22.7659 14.4972 21.6533 15.7855 21.1463 17.6111C20.9513 18.3244 20.852 19.0602 20.8503 19.7997H20.1495C20.1479 19.0598 20.0485 18.3236 19.8535 17.6099C19.3461 15.7843 18.234 14.4947 16.6374 13.8836C14.1266 12.9205 13.0965 11.293 12.7049 10.405C12.6027 10.1786 12.3859 10.0244 12.1379 10.0022C11.8863 9.98214 11.6432 10.0982 11.5008 10.3066C11.1428 10.8172 10.9671 11.4341 11.0028 12.0567C10.6132 12.5399 10.1251 13.3516 10.35 14.1814C9.94402 14.7982 9.88737 15.5812 10.2002 16.2502V16.2498ZM29.2577 20.4995V30.2994H11.7418V20.4995H29.2581H29.2577ZM21.8266 17.7772C22.2819 16.1616 23.2183 15.0714 24.6133 14.5366C27.361 13.4833 28.5019 11.6741 28.9145 10.6925C29.2088 11.1019 29.3406 11.6056 29.2844 12.1064V12.108C29.1961 12.5539 28.9621 12.9583 28.6189 13.2569C28.4789 13.3906 28.4744 13.6121 28.6082 13.7519C28.7421 13.8918 28.9637 13.8963 29.1037 13.7626C29.3628 13.5185 29.5787 13.2327 29.7417 12.9164C29.9819 13.2601 30.0554 13.6929 29.9421 14.0965L29.9384 14.1038C29.7512 14.4791 29.4404 14.7786 29.0582 14.9525C28.887 15.0427 28.8217 15.2548 28.9124 15.4254C29.0028 15.5964 29.215 15.6616 29.3858 15.571C29.3882 15.5698 29.3907 15.5681 29.3936 15.5669C29.7064 15.4016 29.988 15.1834 30.2262 14.9217C30.3666 15.2818 30.3304 15.6867 30.1293 16.016L30.1256 16.0209C29.768 16.4877 29.2807 16.8388 28.7244 17.0303C28.5458 17.1046 28.4608 17.3093 28.5352 17.4877C28.6095 17.6661 28.8143 17.751 28.9929 17.6768C28.9945 17.6759 28.9958 17.6755 28.9974 17.6747C29.4301 17.5 29.8349 17.2629 30.1986 16.9705C30.1986 17.5726 29.9035 18.2928 28.7273 18.7784C27.2239 19.39 25.6253 19.7349 24.0032 19.7985H21.5511C21.5532 19.1152 21.6459 18.4351 21.827 17.776L21.8266 17.7772ZM11.2598 12.9164C11.4228 13.2327 11.6387 13.519 11.8978 13.7626C12.0378 13.8963 12.2594 13.8914 12.3933 13.7519C12.5271 13.6121 12.5222 13.3906 12.3826 13.2569C12.0394 12.9583 11.8054 12.5543 11.7171 12.108V12.1064C11.6654 11.6076 11.789 11.1068 12.0673 10.6897C12.5017 11.6741 13.6409 13.4833 16.3886 14.5366C17.7836 15.0714 18.7213 16.1616 19.1753 17.7772C19.356 18.4364 19.4479 19.1164 19.4492 19.7997H16.997C15.3754 19.7362 13.7776 19.3908 12.2742 18.7797C11.0976 18.2936 10.8029 17.5734 10.8029 16.9713C11.1666 17.2637 11.5714 17.5008 12.0041 17.6755C12.1819 17.7522 12.3879 17.6702 12.4643 17.4926C12.5411 17.315 12.459 17.1091 12.2812 17.0328C12.2796 17.032 12.2783 17.0316 12.2767 17.0308C11.7204 16.8392 11.2331 16.4881 10.8755 16.0213L10.8718 16.0164C10.6703 15.6867 10.6345 15.2818 10.7749 14.9221C11.0131 15.1838 11.2947 15.402 11.6075 15.5673C11.7762 15.662 11.9897 15.6018 12.0846 15.4332C12.1794 15.2646 12.119 15.0513 11.9503 14.9566C11.9479 14.9553 11.9454 14.9537 11.9425 14.9525C11.5607 14.7786 11.2499 14.4791 11.0623 14.1038L11.0586 14.0965C10.9453 13.6929 11.0192 13.2601 11.2594 12.9164H11.2598Z" fill="#AF8E2F"/>
</svg>
