<svg width="93" height="71" viewBox="0 0 93 71" fill="none" xmlns="http://www.w3.org/2000/svg">
<path d="M31 22.5C31 29.9558 24.9558 36 17.5 36C10.0442 36 4 29.9558 4 22.5C4 15.0442 10.0442 9 17.5 9C24.9558 9 31 15.0442 31 22.5Z" fill="#EFF9FD"/>
<path d="M84 57.5C84 60.5376 81.5376 63 78.5 63C75.4624 63 73 60.5376 73 57.5C73 54.4624 75.4624 52 78.5 52C81.5376 52 84 54.4624 84 57.5Z" fill="#EFF9FD"/>
<path d="M0.875 36.763C2.02128 37.3107 2.80679 38.1487 3.34793 39.2057C3.88907 38.1541 4.67458 37.3107 5.82086 36.763C4.67458 36.2153 3.88325 35.3773 3.34793 34.3202C2.80679 35.3718 2.02128 36.2153 0.875 36.763Z" fill="#AF8E2F"/>
<path d="M32.4308 2.89338C33.2495 3.28943 33.8106 3.8954 34.1972 4.65977C34.5837 3.89936 35.1448 3.28943 35.9635 2.89338C35.1448 2.49733 34.5795 1.89139 34.1972 1.12701C33.8106 1.88743 33.2495 2.49733 32.4308 2.89338Z" fill="#AF8E2F"/>
<path d="M10.259 13.6515C9.30017 14.8413 9.96628 17.0634 11.7389 19.2405L16.046 13.897C13.5372 12.6359 11.2208 12.4604 10.2612 13.6523L10.259 13.6515Z" fill="#AF8E2F"/>
<path d="M17.8525 14.9828L13.1896 20.768C13.436 20.9946 13.6925 21.2202 13.961 21.4405L18.6753 15.5913C18.4023 15.3766 18.1273 15.1735 17.8525 14.9828Z" fill="#AF8E2F"/>
<path d="M23.502 22.3125L11.2258 12.457L10.0702 13.8912L22.3464 23.7468L23.502 22.3125Z" fill="#AF8E2F"/>
<path d="M22.5338 23.5085C23.3144 22.5407 23.0186 20.8922 21.9314 19.1411L18.132 23.8574C20.0789 24.5432 21.7554 24.4771 22.5359 23.5093L22.5338 23.5085Z" fill="#AF8E2F"/>
<path d="M16.0451 13.8958L11.738 19.2393C12.1595 19.7563 12.6503 20.2726 13.1899 20.7707L17.8528 14.9855C17.2487 14.566 16.6416 14.1994 16.0443 13.898L16.0451 13.8958Z" fill="#D6B11E"/>
<path d="M18.7557 15.6522C18.7288 15.6322 18.7041 15.6129 18.6773 15.5928L13.9629 21.442C13.989 21.4642 14.0129 21.4856 14.0376 21.5049C15.3977 22.5984 16.8262 23.3961 18.1304 23.854L21.9297 19.1376C21.1997 17.9624 20.1144 16.7428 18.7535 15.6514L18.7557 15.6522Z" fill="#D6B11E"/>
<path d="M23.2335 22.6344C24.5362 21.0176 22.8442 17.5007 19.4542 14.7792C16.0642 12.0576 12.26 11.1621 10.9573 12.7788C9.65452 14.3956 11.3466 17.9125 14.7366 20.634C18.1266 23.3555 21.9308 24.2511 23.2335 22.6344Z" fill="#AF8E2F"/>
<path d="M23.4116 22.4152C24.7144 20.7984 23.0223 17.2815 19.6323 14.56C16.2423 11.8384 12.4381 10.9428 11.1354 12.5596C9.83266 14.1764 11.5247 17.6933 14.9147 20.4148C18.3047 23.1363 22.1089 24.0319 23.4116 22.4152Z" fill="#FFD840"/>
<path d="M22.1559 21.4074C21.154 22.652 18.1552 21.9068 15.4589 19.7412C12.7647 17.5764 11.3903 14.814 12.3952 13.568C13.3971 12.3234 16.3959 13.0686 19.0922 15.2342C21.7863 17.399 23.1608 20.1615 22.1559 21.4074Z" fill="#FFD325"/>
<path d="M15.7078 16.5659L15.27 15.5488L16.1169 15.7193L16.5547 16.7364C16.7614 17.2157 17.3537 17.6921 17.8754 17.7977C18.3971 17.9032 18.6539 17.5981 18.4472 17.1188L17.988 16.0543L18.8348 16.2248L19.2941 17.2894C19.6869 18.1984 19.201 18.7748 18.2116 18.577C17.2223 18.3792 16.0998 17.477 15.707 16.568L15.7078 16.5659Z" fill="#AF8E2F"/>
<path d="M18.1817 19.4013L16.62 15.7788L17.4669 15.9493L19.0286 19.5718L18.1817 19.4013Z" fill="#AF8E2F"/>
<path d="M19.5524 19.6779L17.9886 16.0545L18.8355 16.2251L20.3993 19.8484L19.5524 19.6779Z" fill="#AF8E2F"/>
<path d="M14.4475 17.7357L16.0794 16.2546L15.2721 15.5537L14.0022 16.7059L14.4475 17.7357Z" fill="#AF8E2F"/>
<path d="M56.3991 1.66078L55.1899 0.204803L52.7551 2.23321L53.9643 3.68918L56.3991 1.66078Z" fill="#AF8E2F"/>
<path d="M53.9638 3.68916L52.7546 2.23318L50.3039 4.27482L51.5131 5.73079L53.9638 3.68916Z" fill="#D6B11E"/>
<path d="M51.5127 5.731L50.3027 4.27473L47.0965 6.94715L48.3256 8.3845L51.5127 5.731Z" fill="#AF8E2F"/>
<path d="M47.0967 6.94833L44.1385 9.41293L45.3455 10.8681L48.3258 8.38568L47.0967 6.94833Z" fill="#D6B11E"/>
<g clip-path="url(#clip0_3632_11832)">
<path d="M76.4773 25.9405V30.8897H18.8482V25.9405C18.8482 23.9425 20.7555 22.3224 23.1047 22.3224H72.2171C74.5687 22.3224 76.476 23.9425 76.476 25.9405H76.4773Z" fill="#1D478E"/>
<path d="M76.3287 30.9764V48.7177H76.3268V66.0262C76.3268 67.7622 74.5226 69.2273 72.2184 69.2274H23.1061C20.8032 69.2274 18.9996 67.7611 18.9996 66.0262V30.9764H76.3287Z" fill="white" stroke="#1D478E" stroke-width="0.3"/>
<path d="M35.1282 27.6534C35.9221 27.6534 36.5656 26.9714 36.5656 26.1301C36.5656 25.2888 35.9221 24.6068 35.1282 24.6068C34.3343 24.6068 33.6907 25.2888 33.6907 26.1301C33.6907 26.9714 34.3343 27.6534 35.1282 27.6534Z" fill="#D7E4F9"/>
<path d="M35.1383 19.2122H35.1167C34.6118 19.2122 34.2025 19.6213 34.2025 20.1259V25.882C34.2025 26.3866 34.6118 26.7957 35.1167 26.7957H35.1383C35.6432 26.7957 36.0525 26.3866 36.0525 25.882V20.1259C36.0525 19.6213 35.6432 19.2122 35.1383 19.2122Z" fill="#161742"/>
<path d="M27.6695 27.6534C28.4634 27.6534 29.107 26.9714 29.107 26.1301C29.107 25.2888 28.4634 24.6068 27.6695 24.6068C26.8756 24.6068 26.232 25.2888 26.232 26.1301C26.232 26.9714 26.8756 27.6534 27.6695 27.6534Z" fill="#D7E4F9"/>
<path d="M27.6784 19.2122H27.6593C27.1537 19.2122 26.7439 19.6219 26.7439 20.1272V25.8807C26.7439 26.386 27.1537 26.7957 27.6593 26.7957H27.6784C28.184 26.7957 28.5939 26.386 28.5939 25.8807V20.1272C28.5939 19.6219 28.184 19.2122 27.6784 19.2122Z" fill="#161742"/>
<path d="M43.2603 27.6534C44.0542 27.6534 44.6978 26.9714 44.6978 26.1301C44.6978 25.2888 44.0542 24.6068 43.2603 24.6068C42.4665 24.6068 41.8229 25.2888 41.8229 26.1301C41.8229 26.9714 42.4665 27.6534 43.2603 27.6534Z" fill="#D7E4F9"/>
<path d="M43.2693 19.2122H43.2502C42.7446 19.2122 42.3347 19.6219 42.3347 20.1272V25.8807C42.3347 26.386 42.7446 26.7957 43.2502 26.7957H43.2693C43.7749 26.7957 44.1847 26.386 44.1847 25.8807V20.1272C44.1847 19.6219 43.7749 19.2122 43.2693 19.2122Z" fill="#161742"/>
<path d="M51.3925 27.6534C52.1864 27.6534 52.83 26.9714 52.83 26.1301C52.83 25.2888 52.1864 24.6068 51.3925 24.6068C50.5986 24.6068 49.9551 25.2888 49.9551 26.1301C49.9551 26.9714 50.5986 27.6534 51.3925 27.6534Z" fill="#D7E4F9"/>
<path d="M51.4027 19.2122H51.3811C50.8762 19.2122 50.4669 19.6213 50.4669 20.1259V25.882C50.4669 26.3866 50.8762 26.7957 51.3811 26.7957H51.4027C51.9076 26.7957 52.3169 26.3866 52.3169 25.882V20.1259C52.3169 19.6213 51.9076 19.2122 51.4027 19.2122Z" fill="#161742"/>
<path d="M59.5247 27.6534C60.3186 27.6534 60.9622 26.9714 60.9622 26.1301C60.9622 25.2888 60.3186 24.6068 59.5247 24.6068C58.7308 24.6068 58.0872 25.2888 58.0872 26.1301C58.0872 26.9714 58.7308 27.6534 59.5247 27.6534Z" fill="#D7E4F9"/>
<path d="M59.5362 19.2122H59.5145C59.0097 19.2122 58.6004 19.6213 58.6004 20.1259V25.882C58.6004 26.3866 59.0097 26.7957 59.5145 26.7957H59.5362C60.0411 26.7957 60.4504 26.3866 60.4504 25.882V20.1259C60.4504 19.6213 60.0411 19.2122 59.5362 19.2122Z" fill="#161742"/>
<path d="M67.6567 27.6534C68.4506 27.6534 69.0942 26.9714 69.0942 26.1301C69.0942 25.2888 68.4506 24.6068 67.6567 24.6068C66.8628 24.6068 66.2192 25.2888 66.2192 26.1301C66.2192 26.9714 66.8628 27.6534 67.6567 27.6534Z" fill="#D7E4F9"/>
<path d="M67.6669 19.2122H67.6478C67.1422 19.2122 66.7323 19.6219 66.7323 20.1272V25.8807C66.7323 26.386 67.1422 26.7957 67.6478 26.7957H67.6669C68.1725 26.7957 68.5823 26.386 68.5823 25.8807V20.1272C68.5823 19.6219 68.1725 19.2122 67.6669 19.2122Z" fill="#161742"/>
<path d="M37.3571 37.5825H31.965V41.9883H37.3571V37.5825Z" fill="#CEEDFB"/>
<path d="M37.3571 44.5832H31.965V48.9889H37.3571V44.5832Z" fill="#1D478E"/>
<path d="M37.3571 51.5838H31.965V55.9896H37.3571V51.5838Z" fill="#CEEDFB"/>
<path d="M37.3571 58.5845H31.965V62.9903H37.3571V58.5845Z" fill="#CEEDFB"/>
<path d="M28.1717 37.5825H22.7795V41.9883H28.1717V37.5825Z" fill="#CEEDFB"/>
<path d="M28.1717 44.5832H22.7795V48.9889H28.1717V44.5832Z" fill="#CEEDFB"/>
<path d="M28.1717 51.5838H22.7795V55.9896H28.1717V51.5838Z" fill="#CEEDFB"/>
<path d="M28.1717 58.5845H22.7795V62.9903H28.1717V58.5845Z" fill="#CEEDFB"/>
<path d="M46.5416 37.5825H41.1494V41.9883H46.5416V37.5825Z" fill="#CEEDFB"/>
<path d="M46.5416 44.5832H41.1494V48.9889H46.5416V44.5832Z" fill="#CEEDFB"/>
<path d="M46.5416 51.5838H41.1494V55.9896H46.5416V51.5838Z" fill="#CEEDFB"/>
<path d="M46.5416 58.5845H41.1494V62.9903H46.5416V58.5845Z" fill="#CEEDFB"/>
<path d="M55.7272 37.7036H50.335V42.1094H55.7272V37.7036Z" fill="#CEEDFB"/>
<path d="M55.7272 44.7043H50.335V49.11H55.7272V44.7043Z" fill="#CEEDFB"/>
<path d="M55.7272 51.7049H50.335V56.1107H55.7272V51.7049Z" fill="#CEEDFB"/>
<path d="M55.7272 58.7056H50.335V63.1114H55.7272V58.7056Z" fill="#CEEDFB"/>
<path d="M64.7792 51.5838H59.387V55.9896H64.7792V51.5838Z" fill="#CEEDFB"/>
<path d="M64.7792 37.5825H59.387V41.9883H64.7792V37.5825Z" fill="#CEEDFB"/>
<path d="M64.7792 44.5832H59.387V48.9889H64.7792V44.5832Z" fill="#CEEDFB"/>
<path d="M64.7792 58.5845H59.387V62.9903H64.7792V58.5845Z" fill="#CEEDFB"/>
<path d="M73.3901 58.7055H67.998V63.1113H73.3901V58.7055Z" fill="#CEEDFB"/>
<path d="M73.3901 37.7036H67.998V42.1094H73.3901V37.7036Z" fill="#CEEDFB"/>
<path d="M73.3901 44.7042H67.998V49.11H73.3901V44.7042Z" fill="#CEEDFB"/>
<path d="M73.3901 51.7049H67.998V56.1107H73.3901V51.7049Z" fill="#CEEDFB"/>
</g>
<path d="M24.3033 57.1552C24.3033 57.1552 23.2583 50.5054 28.3105 48.2951C33.3642 46.0848 24.3033 57.1552 24.3033 57.1552Z" fill="#32B353"/>
<path d="M17.9373 57.1092C17.9373 57.1092 18.6559 51.4111 15.316 51.2772C11.9762 51.1419 17.9373 57.1092 17.9373 57.1092Z" fill="#32B353"/>
<path d="M21.8581 53.0178C21.8581 53.0178 20.9053 43.4025 25.2286 42.7681C29.8359 42.0915 21.8581 53.0178 21.8581 53.0178Z" fill="#32B353"/>
<path d="M23.8708 61.4148L23.578 61.4075C23.5795 61.3464 23.7712 55.2073 26.7335 52.2462L26.9413 52.4514C24.0596 55.331 23.8722 61.3551 23.8708 61.4148Z" fill="#161742"/>
<path d="M19.0255 61.424C18.9889 61.2174 18.1166 56.3369 16.5345 54.6388L16.7496 54.4409C18.3903 56.2016 19.2772 61.1635 19.3138 61.3745L19.0255 61.424Z" fill="#161742"/>
<path d="M21.3664 61.4211C21.3547 61.3352 20.2366 52.689 24.4809 46.24L24.7253 46.4001C20.541 52.7588 21.6445 61.2974 21.6562 61.3832L21.3664 61.4225V61.4211Z" fill="#161742"/>
<path d="M19.8792 54.9983C19.8792 54.9983 16.974 48.0983 20.9988 45.2361C25.0236 42.3739 19.8792 54.9983 19.8792 54.9983Z" fill="#32B353"/>
<path d="M20.6249 61.4312C20.6073 61.3672 18.8203 54.8992 20.6249 48.5143L20.9073 48.5928C19.1247 54.9007 20.8898 61.2886 20.9073 61.3526L20.6249 61.4312Z" fill="#161742"/>
<path d="M21.8963 49.5117L21.6153 49.4302C22.1714 47.54 22.4012 46.2217 22.3017 45.5116L22.5915 45.4709C22.6983 46.2217 22.4641 47.5822 21.8963 49.5117Z" fill="white"/>
<path d="M23.7118 71.0005H18.5147C18.5147 71.0005 16.6941 64.6985 17.0482 60.2808H25.1798C25.5559 64.7392 23.7133 71.0005 23.7133 71.0005H23.7118Z" fill="#1D478E"/>
<path d="M25.2225 61.9825H17.0134V62.2735H25.2225V61.9825Z" fill="white"/>
<path d="M25.1746 62.9105H17.0635V63.2015H25.1746V62.9105Z" fill="white"/>
<path d="M77.8888 51.2792C78.571 51.6209 79.0399 52.1453 79.3599 52.8029C79.6799 52.1453 80.1508 51.6189 80.833 51.2772C80.1508 50.9355 79.6799 50.4111 79.3599 49.7535C79.0399 50.4111 78.571 50.9375 77.8888 51.2792Z" fill="#FFD325"/>
<path d="M70.1457 69.1131C70.1457 69.6486 66.184 70.0835 61.3 70.0835C56.416 70.0835 52.4543 69.6486 52.4543 69.1131C52.4543 69.1035 52.4562 69.0938 52.4582 69.0841V66.4629H70.1399V69.0783C70.1438 69.0899 70.1457 69.1015 70.1457 69.1131Z" fill="#AF8E2F"/>
<path d="M61.2979 67.4564C66.1832 67.4564 70.1436 67.022 70.1436 66.486C70.1436 65.9501 66.1832 65.5156 61.2979 65.5156C56.4125 65.5156 52.4521 65.9501 52.4521 66.486C52.4521 67.022 56.4125 67.4564 61.2979 67.4564Z" fill="#FFD325"/>
<path d="M72.2376 65.9479C72.2376 66.4834 68.2759 66.9183 63.3919 66.9183C58.5079 66.9183 54.5462 66.4834 54.5462 65.9479C54.5462 65.9382 54.5481 65.9286 54.5501 65.9189V63.2976H72.2318V65.9131C72.2357 65.9247 72.2376 65.9363 72.2376 65.9479Z" fill="#AF8E2F"/>
<path d="M63.3898 64.2939C68.2751 64.2939 72.2355 63.8594 72.2355 63.3235C72.2355 62.7875 68.2751 62.3531 63.3898 62.3531C58.5044 62.3531 54.544 62.7875 54.544 63.3235C54.544 63.8594 58.5044 64.2939 63.3898 64.2939Z" fill="#FFD325"/>
<path d="M70.5722 62.3759C70.5722 62.9113 66.6105 63.3463 61.7265 63.3463C56.8426 63.3463 52.8808 62.9113 52.8808 62.3759C52.8808 62.3662 52.8827 62.3565 52.8847 62.3469V59.7256H70.5664V62.3411C70.5703 62.3527 70.5722 62.3643 70.5722 62.3759Z" fill="#AF8E2F"/>
<path d="M61.7265 60.7197C66.6119 60.7197 70.5722 60.2852 70.5722 59.7493C70.5722 59.2133 66.6119 58.7789 61.7265 58.7789C56.8412 58.7789 52.8808 59.2133 52.8808 59.7493C52.8808 60.2852 56.8412 60.7197 61.7265 60.7197Z" fill="#FFD325"/>
<path d="M65.7702 58.937C69.1301 56.9083 70.2128 52.5489 68.1884 49.2002C66.1641 45.8514 61.7992 44.7812 58.4393 46.81C55.0793 48.8387 53.9967 53.198 56.021 56.5468C58.0454 59.8956 62.4102 60.9657 65.7702 58.937Z" fill="#D6B11E"/>
<path d="M68.8108 52.0309C68.3543 48.3362 64.9826 45.7177 61.2799 46.1823C57.5772 46.647 54.9457 50.0188 55.4022 53.7135C55.8588 57.4082 59.2305 60.0266 62.9331 59.562C66.6358 59.0973 69.2673 55.7255 68.8108 52.0309Z" fill="#FFD840"/>
<path d="M64.724 57.5344C67.3083 56.0842 68.2306 52.8203 66.784 50.2443C65.3373 47.6682 62.0695 46.7556 59.4852 48.2058C56.9009 49.656 55.9786 52.9199 57.4252 55.4959C58.8719 58.072 62.1397 58.9846 64.724 57.5344Z" fill="#FFD325"/>
<path d="M61.3133 53.7395L60.2427 53.7605L60.2351 52.8913L61.3057 52.8703C61.8122 52.8611 62.2197 52.417 62.2141 51.8797C62.2095 51.3444 61.7955 50.9162 61.289 50.9253L60.167 50.9462L60.1594 50.077L61.2815 50.0561C62.2399 50.0366 63.0249 50.8475 63.0356 51.8637C63.0431 52.8788 62.2717 53.72 61.3133 53.7395Z" fill="#AF8E2F"/>
<path d="M63.9996 52.2792L60.1804 52.3552L60.1749 51.485L63.992 51.41L63.9996 52.2792Z" fill="#AF8E2F"/>
<path d="M63.9868 50.8717L60.1676 50.9477L60.16 50.0785L63.9792 50.0025L63.9868 50.8717Z" fill="#AF8E2F"/>
<path d="M62.9715 55.6933L60.8609 53.1784L60.2445 53.7613L61.8854 55.7143L62.9715 55.6933Z" fill="#AF8E2F"/>
<g style="mix-blend-mode:screen" opacity="0.23">
<path d="M69.0731 51.497L63.1865 45.8651C62.4873 45.7594 61.7586 45.7552 61.0208 45.8733C60.9518 45.8843 60.8827 45.9004 60.8147 45.9135L69.1332 53.8736C69.2325 53.1949 69.2342 52.4901 69.1237 51.7766C69.1089 51.6841 69.091 51.5905 69.0741 51.499L69.0731 51.497Z" fill="#FFD325"/>
</g>
<g style="mix-blend-mode:screen" opacity="0.23">
<path d="M55.3984 50.5556L64.7069 59.4611C65.8638 59.0058 66.857 58.2601 67.6126 57.3294L57.4123 47.5684C56.5001 48.374 55.8035 49.4036 55.4005 50.5546L55.3984 50.5556Z" fill="#FFD325"/>
</g>
<path d="M86.8451 25.6429C89.6061 22.588 89.3603 17.8801 86.296 15.1275C83.2318 12.3749 78.5094 12.62 75.7484 15.6749C72.9874 18.7298 73.2332 23.4378 76.2975 26.1903C79.3618 28.9429 84.0841 28.6979 86.8451 25.6429Z" fill="#AF8E2F"/>
<path d="M88.183 22.3883C89.1436 18.5956 86.8382 14.7447 83.0339 13.7871C79.2295 12.8295 75.3668 15.1278 74.4063 18.9205C73.4458 22.7133 75.7511 26.5642 79.5555 27.5218C83.3598 28.4794 87.2225 26.1811 88.183 22.3883Z" fill="#FFD840"/>
<path d="M86.8145 21.8044C87.452 18.7649 85.4972 15.7856 82.4483 15.15C79.3994 14.5145 76.411 16.4633 75.7735 19.5029C75.136 22.5425 77.0908 25.5217 80.1397 26.1573C83.1886 26.7929 86.177 24.844 86.8145 21.8044Z" fill="#FFD325"/>
<path d="M80.1485 21.1066L79.1283 20.6291L79.5267 19.8049L80.5469 20.2824C81.0282 20.5074 81.62 20.2801 81.8641 19.7727C82.1083 19.2653 81.9171 18.6684 81.4358 18.4434L80.3672 17.9429L80.7656 17.1187L81.8342 17.6192C82.7462 18.0462 83.11 19.1758 82.6471 20.1378C82.1819 21.0997 81.0627 21.5337 80.1508 21.1043L80.1485 21.1066Z" fill="#AF8E2F"/>
<path d="M83.3587 20.9778L79.7247 19.2742L80.1208 18.45L83.7571 20.1536L83.3587 20.9778Z" fill="#AF8E2F"/>
<path d="M84.0009 19.6465L80.3668 17.943L80.7652 17.1187L84.3993 18.8223L84.0009 19.6465Z" fill="#AF8E2F"/>
<path d="M80.8046 23.7172L79.9824 20.3675L79.1326 20.6315L79.7705 23.2327L80.8046 23.7172Z" fill="#AF8E2F"/>
<g style="mix-blend-mode:screen" opacity="0.23">
<path d="M88.507 22.599L85.5754 14.5518C84.9651 14.1271 84.2788 13.785 83.5304 13.5508C83.459 13.5278 83.3876 13.5118 83.3162 13.4934L87.4592 24.8627C87.8668 24.2681 88.1984 23.6046 88.4241 22.8814C88.454 22.7872 88.4794 22.6908 88.5047 22.5967L88.507 22.599Z" fill="#FFD325"/>
</g>
<g style="mix-blend-mode:screen" opacity="0.23">
<path d="M76.054 15.3546L80.6898 28.0762C81.9932 28.1841 83.2736 27.943 84.4205 27.4172L79.3402 13.4742C78.1059 13.8094 76.9705 14.4546 76.054 15.3546Z" fill="#FFD325"/>
</g>
<defs>
<clipPath id="clip0_3632_11832">
<rect width="67.8289" height="50.1651" fill="white" transform="translate(8.64788 19.2122)"/>
</clipPath>
</defs>
</svg>
