<svg width="121" height="48" viewBox="0 0 121 48" fill="none" xmlns="http://www.w3.org/2000/svg">
<path d="M12.575 47.7703C11.591 48.3207 10.7866 47.8473 10.7866 46.7207V23.2787C10.7866 22.1521 9.99945 20.7488 9.03684 20.1627L0.712786 15.0844C-0.249821 14.4969 -0.23556 13.5613 0.74416 13.0037L5.58286 10.2514C6.56258 9.69381 8.16123 9.70236 9.13524 10.2685L17.2425 14.986C18.2165 15.5522 19.0137 16.9383 19.0137 18.0649V42.1215C19.0137 43.2481 18.208 44.62 17.2254 45.1705L12.575 47.7703Z" fill="#FFF3EB"/>
<path d="M8.02578 5.63232C7.04463 5.079 7.04035 4.16773 8.01865 3.60728L13.5761 0.421412C14.5544 -0.13904 16.1545 -0.140468 17.1342 0.417131L29.9675 7.73009C30.9472 8.28769 31.7473 9.66671 31.7473 10.7933V25.3422C31.7473 26.4688 30.9515 27.8578 29.9803 28.4283L24.3658 31.724C23.3933 32.2944 22.5989 31.8395 22.5989 30.7129V15.8987C22.5989 14.7721 21.796 13.3974 20.8135 12.8426L8.02578 5.63232Z" fill="#FFF3EB"/>
<path d="M53.1741 15.2627C53.1741 19.2657 50.1722 21.7556 45.3734 21.7556H42.7737C42.2104 21.7556 41.7555 22.212 41.7555 22.7739V25.6888C41.7555 26.2521 41.2991 26.707 40.7372 26.707H38.6181C38.0548 26.707 37.5999 26.2506 37.5999 25.6888V9.76368C37.5999 9.20038 38.0562 8.74546 38.6181 8.74546H45.3749C50.1722 8.74404 53.1741 11.234 53.1741 15.2627ZM48.9657 15.2627C48.9657 13.2861 47.6823 12.1324 45.1424 12.1324H42.7737C42.2104 12.1324 41.7555 12.5888 41.7555 13.1506V17.349C41.7555 17.9123 42.2118 18.3673 42.7737 18.3673H45.1424C47.6823 18.3673 48.9657 17.2136 48.9657 15.2627Z" fill="#FFF3EB"/>
<path d="M68.1052 26.707C67.7715 26.707 67.4578 26.543 67.2681 26.2678L64.1079 21.7029H63.9026H61.3028C60.7395 21.7029 60.2846 22.1592 60.2846 22.7211V25.6873C60.2846 26.2492 59.8282 26.7056 59.2664 26.7056H57.1472C56.5839 26.7056 56.129 26.2492 56.129 25.6873V9.76368C56.129 9.20038 56.5853 8.74546 57.1472 8.74546H63.904C68.7028 8.74546 71.7047 11.234 71.7047 15.2627C71.7047 17.5658 70.7121 19.3427 68.9666 20.4351C68.4732 20.7445 68.3377 21.402 68.6714 21.8797L70.9217 25.1055C71.3923 25.78 70.9103 26.707 70.0861 26.707H68.1052ZM63.6701 12.1324H61.3014C60.7381 12.1324 60.2832 12.5888 60.2832 13.1506V17.3747C60.2832 17.938 60.7395 18.3929 61.3014 18.3929H63.6701C66.21 18.3929 67.4934 17.2121 67.4934 15.2627C67.4934 13.2861 66.2114 12.1324 63.6701 12.1324Z" fill="#FFF3EB"/>
<path d="M76.0058 8.74546H78.1249C78.6882 8.74546 79.1432 9.20181 79.1432 9.76368V25.6888C79.1432 26.2506 78.6868 26.707 78.1249 26.707H76.0058C75.4425 26.707 74.9875 26.2506 74.9875 25.6888V9.76368C74.9875 9.20038 75.4439 8.74546 76.0058 8.74546Z" fill="#FFF3EB"/>
<path d="M99.9554 10.1687L93.0617 26.0938C92.9006 26.466 92.5327 26.7084 92.1262 26.7084H89.3596C88.9532 26.7084 88.5853 26.466 88.4241 26.0938L81.5532 10.1687C81.2637 9.49559 81.7557 8.7469 82.4888 8.7469H84.7577C85.1655 8.7469 85.5349 8.99076 85.6946 9.36582L89.9657 19.3926C90.3165 20.2155 91.4831 20.2197 91.8382 19.3969L96.1735 9.36154C96.3346 8.9879 96.7025 8.7469 97.109 8.7469H99.0199C99.7529 8.74547 100.246 9.49559 99.9554 10.1687Z" fill="#FFF3EB"/>
<path d="M100.725 17.7255C100.725 12.3877 104.883 8.436 110.554 8.436C116.2 8.436 120.383 12.362 120.383 17.7255C120.383 23.089 116.2 27.015 110.554 27.015C104.883 27.015 100.725 23.0633 100.725 17.7255ZM116.174 17.7255C116.174 14.3129 113.763 11.977 110.554 11.977C107.347 11.977 104.934 14.3129 104.934 17.7255C104.934 21.1381 107.347 23.4741 110.554 23.4741C113.761 23.4741 116.174 21.1396 116.174 17.7255Z" fill="#FFF3EB"/>
</svg>
