<svg width="74" height="74" viewBox="0 0 74 74" fill="none" xmlns="http://www.w3.org/2000/svg">
<g id="Group 8859">
<path id="Vector" d="M73.5 37C73.5 57.1584 57.1584 73.5 37 73.5C16.8416 73.5 0.5 57.1584 0.5 37C0.5 16.8416 16.8416 0.5 37 0.5C57.1584 0.5 73.5 16.8416 73.5 37Z" fill="#32B353" stroke="#1D478E"/>
<path id="Vector_2" d="M32.3835 51.9971C31.5045 51.9971 30.6647 51.6704 30.0447 51.0844L17.9411 39.6372C16.6717 38.4345 16.6881 36.5053 17.9805 35.3209C19.2729 34.1426 21.3491 34.1548 22.6185 35.3575L32.2884 44.503L52.2938 23.9989C53.5173 22.7505 55.5904 22.662 56.9253 23.7914C58.2668 24.924 58.3652 26.8531 57.1483 28.1047L34.8108 50.9988C34.2041 51.6215 33.3512 51.9817 32.4492 52C32.4262 51.9971 32.4065 51.9971 32.3835 51.9971Z" fill="#FFF3EB"/>
</g>
</svg>
