<svg width="10" height="10" viewBox="0 0 10 10" fill="none" xmlns="http://www.w3.org/2000/svg">
<g clip-path="url(#clip0_2_365)">
<path d="M0.292533 7.63693H7.94913C8.0178 7.63693 8.08417 7.6129 8.13681 7.56911C8.21035 7.50753 9.88791 6.0644 9.9902 2.94922H1.76717C1.66527 5.77696 0.120319 7.10609 0.104263 7.11935C0.010138 7.19888 -0.0244925 7.32879 0.0178532 7.44438C0.0599059 7.55968 0.169501 7.63693 0.292533 7.63693Z" fill="#3F7ECB"/>
<path d="M9.7069 1.19143H8.24199V0.898451C8.24199 0.734381 8.11308 0.605469 7.94901 0.605469C7.78494 0.605469 7.65603 0.734381 7.65603 0.898451V1.19143H6.17158V0.898451C6.17158 0.734381 6.04267 0.605469 5.8786 0.605469C5.71453 0.605469 5.58562 0.734381 5.58562 0.898451V1.19143H4.12071V0.898451C4.12071 0.734381 3.9918 0.605469 3.82773 0.605469C3.66366 0.605469 3.53475 0.734381 3.53475 0.898451V1.19143H2.06984C1.90577 1.19143 1.77686 1.32034 1.77686 1.48441V2.36336H9.99988V1.48441C9.99988 1.32034 9.87097 1.19143 9.7069 1.19143Z" fill="#3F7ECB"/>
<path d="M8.51294 8.0186C8.35385 8.15106 8.15415 8.22318 7.94901 8.22318H1.77686V9.10212C1.77686 9.26406 1.9079 9.3951 2.06984 9.3951H9.7069C9.86884 9.3951 9.99988 9.26406 9.99988 9.10212V5.81787C9.43501 7.20369 8.64677 7.90658 8.51294 8.0186Z" fill="#3F7ECB"/>
</g>
<defs>
<clipPath id="clip0_2_365">
<rect width="10" height="10" fill="white"/>
</clipPath>
</defs>
</svg>
