<svg width="22" height="25" viewBox="0 0 22 25" fill="none" xmlns="http://www.w3.org/2000/svg">
<path d="M9.59992 18.5741L14.7716 13.4024C14.9016 13.2724 15.0571 13.2032 15.2383 13.1947C15.4196 13.1861 15.5837 13.2553 15.7306 13.4024C15.8777 13.5493 15.9513 13.7091 15.9513 13.8817C15.9513 14.0544 15.8777 14.2143 15.7306 14.3614L10.3539 19.7381C10.1384 19.9536 9.88703 20.0614 9.59992 20.0614C9.31281 20.0614 9.06147 19.9536 8.84592 19.7381L6.26925 17.1614C6.13925 17.0314 6.07003 16.8759 6.06159 16.6947C6.05292 16.5134 6.12214 16.3493 6.26925 16.2024C6.41614 16.0553 6.57592 15.9817 6.74859 15.9817C6.92125 15.9817 7.08114 16.0553 7.22825 16.2024L9.59992 18.5741ZM2.48725 24.9997C1.87347 24.9997 1.36103 24.7942 0.949919 24.3831C0.538808 23.972 0.333252 23.4595 0.333252 22.8457V5.82041C0.333252 5.20663 0.538808 4.69419 0.949919 4.28308C1.36103 3.87197 1.87347 3.66641 2.48725 3.66641H4.84592V1.41008C4.84592 1.20319 4.91392 1.03174 5.04992 0.895744C5.18592 0.759966 5.35725 0.692078 5.56392 0.692078C5.77081 0.692078 5.94225 0.759966 6.07825 0.895744C6.21403 1.03174 6.28192 1.20319 6.28192 1.41008V3.66641H15.8206V1.35874C15.8206 1.16897 15.8843 1.01041 16.0116 0.883077C16.1389 0.755744 16.2975 0.692078 16.4873 0.692078C16.6768 0.692078 16.8353 0.755744 16.9626 0.883077C17.0901 1.01041 17.1539 1.16897 17.1539 1.35874V3.66641H19.5126C20.1264 3.66641 20.6388 3.87197 21.0499 4.28308C21.461 4.69419 21.6666 5.20663 21.6666 5.82041V22.8457C21.6666 23.4595 21.461 23.972 21.0499 24.3831C20.6388 24.7942 20.1264 24.9997 19.5126 24.9997H2.48725ZM2.48725 23.6664H19.5126C19.7179 23.6664 19.906 23.581 20.0769 23.4101C20.2478 23.2392 20.3333 23.0511 20.3333 22.8457V11.1537H1.66659V22.8457C1.66659 23.0511 1.75203 23.2392 1.92292 23.4101C2.09381 23.581 2.28192 23.6664 2.48725 23.6664ZM1.66659 9.82008H20.3333V5.82041C20.3333 5.61508 20.2478 5.42697 20.0769 5.25608C19.906 5.08519 19.7179 4.99974 19.5126 4.99974H2.48725C2.28192 4.99974 2.09381 5.08519 1.92292 5.25608C1.75203 5.42697 1.66659 5.61508 1.66659 5.82041V9.82008Z" fill="#1D478E"/>
</svg>
