<svg width="24" height="24" viewBox="0 0 24 24" fill="none" xmlns="http://www.w3.org/2000/svg">
<path d="M12.6667 11.723V6C12.6667 5.81111 12.6027 5.65278 12.4747 5.525C12.3467 5.39722 12.1881 5.33333 11.999 5.33333C11.8099 5.33333 11.6517 5.39722 11.5243 5.525C11.397 5.65278 11.3333 5.81111 11.3333 6V11.8383C11.3333 11.9746 11.3581 12.1066 11.4077 12.2343C11.4572 12.3619 11.5401 12.4838 11.6563 12.6L16.3897 17.3333C16.5146 17.4582 16.6676 17.5249 16.8487 17.5333C17.03 17.5418 17.1916 17.4751 17.3333 17.3333C17.4751 17.1916 17.546 17.0343 17.546 16.8617C17.546 16.689 17.4751 16.5317 17.3333 16.3897L12.6667 11.723ZM12.0043 24C10.345 24 8.78489 23.6851 7.324 23.0553C5.86333 22.4256 4.59267 21.5709 3.512 20.4913C2.43133 19.4118 1.57589 18.1422 0.945667 16.6827C0.315222 15.2233 0 13.6639 0 12.0043C0 10.345 0.314889 8.78489 0.944667 7.324C1.57444 5.86333 2.42911 4.59267 3.50867 3.512C4.58822 2.43133 5.85778 1.57589 7.31733 0.945667C8.77667 0.315222 10.3361 0 11.9957 0C13.655 0 15.2151 0.31489 16.676 0.944668C18.1367 1.57445 19.4073 2.42911 20.488 3.50867C21.5687 4.58822 22.4241 5.85778 23.0543 7.31733C23.6848 8.77667 24 10.3361 24 11.9957C24 13.655 23.6851 15.2151 23.0553 16.676C22.4256 18.1367 21.5709 19.4073 20.4913 20.488C19.4118 21.5687 18.1422 22.4241 16.6827 23.0543C15.2233 23.6848 13.6639 24 12.0043 24ZM12 22.6667C14.9556 22.6667 17.4722 21.6278 19.55 19.55C21.6278 17.4722 22.6667 14.9556 22.6667 12C22.6667 9.04445 21.6278 6.52778 19.55 4.45C17.4722 2.37222 14.9556 1.33333 12 1.33333C9.04445 1.33333 6.52778 2.37222 4.45 4.45C2.37222 6.52778 1.33333 9.04445 1.33333 12C1.33333 14.9556 2.37222 17.4722 4.45 19.55C6.52778 21.6278 9.04445 22.6667 12 22.6667Z" fill="#1D478E"/>
</svg>
