<svg width="24" height="20" viewBox="0 0 24 20" fill="none" xmlns="http://www.w3.org/2000/svg">
<path d="M10.3437 14.2564C10.7572 14.6701 11.288 14.8586 11.936 14.8217C12.5838 14.785 13.0564 14.5521 13.354 14.123L18.476 6.97735C18.6578 6.7138 18.6422 6.47558 18.4293 6.26269C18.2167 6.05002 17.9781 6.03413 17.7137 6.21502L10.5437 11.3127C10.0974 11.6102 9.84911 12.0718 9.79867 12.6974C9.74822 13.3231 9.92989 13.8428 10.3437 14.2564ZM12 0.666687C12.9538 0.666687 13.841 0.75902 14.6617 0.943687C15.4821 1.12835 16.2847 1.4078 17.0693 1.78202C17.2538 1.86402 17.4136 1.99869 17.5487 2.18602C17.6838 2.37313 17.7094 2.54791 17.6257 2.71035C17.5419 2.8728 17.3769 2.97958 17.1307 3.03069C16.8847 3.08202 16.6668 3.06669 16.477 2.98469C15.7846 2.6478 15.0739 2.39946 14.345 2.23969C13.6159 2.07991 12.8342 2.00002 12 2.00002C9.04445 2.00002 6.52778 3.03891 4.45 5.11669C2.37222 7.19446 1.33333 9.71113 1.33333 12.6667C1.33333 13.6 1.46111 14.5222 1.71667 15.4334C1.97222 16.3445 2.33333 17.2 2.8 18H21.2C21.7111 17.1556 22.0833 16.2778 22.3167 15.3667C22.55 14.4556 22.6667 13.5111 22.6667 12.5334C22.6667 11.8529 22.591 11.1281 22.4397 10.359C22.2883 9.58969 22.0443 8.86146 21.7077 8.17435C21.6257 7.98458 21.6034 7.79735 21.641 7.61269C21.6786 7.42824 21.7776 7.28091 21.938 7.17069C22.0871 7.07069 22.2483 7.04802 22.4217 7.10269C22.5952 7.15735 22.723 7.2718 22.805 7.44602C23.241 8.34358 23.5479 9.19791 23.7257 10.009C23.9034 10.8201 23.9949 11.6565 24 12.518C24.0051 13.6649 23.8778 14.735 23.618 15.7284C23.3582 16.7215 22.9539 17.7231 22.405 18.7334C22.2974 18.9111 22.1351 19.0556 21.918 19.1667C21.7009 19.2778 21.4616 19.3334 21.2 19.3334H2.8C2.55556 19.3334 2.32911 19.2736 2.12067 19.154C1.912 19.0342 1.73678 18.8598 1.595 18.6307C1.15389 17.8529 0.777778 16.9756 0.466667 15.9987C0.155556 15.0218 0 13.9111 0 12.6667C0 11.0274 0.310889 9.48024 0.932667 8.02535C1.55444 6.57024 2.40311 5.2958 3.47867 4.20202C4.55444 3.10846 5.82656 2.2458 7.295 1.61402C8.76322 0.982464 10.3316 0.666687 12 0.666687Z" fill="#1D478E"/>
</svg>
