<svg width="17" height="16" viewBox="0 0 17 16" fill="none" xmlns="http://www.w3.org/2000/svg">
<path d="M10.2289 2.64837L5.61158 2.7527L5.57159 0.938695C5.57159 0.562376 6.01634 0.0800437 6.01634 0.0800437C6.13452 0.027108 6.26253 -0.000169247 6.39196 7.90093e-07H9.52757C9.77199 7.90093e-07 10.0064 0.0973918 10.1792 0.270749C10.3521 0.444106 10.4491 0.679228 10.4491 0.924392V1.3195L10.2289 2.64837Z" fill="#FD707B"/>
<path d="M10.4491 1.31945C9.96226 1.46983 9.17086 1.62234 7.95967 1.62234C6.48447 1.62234 6.09699 0.749892 6.01652 0.0810547C5.85395 0.153723 5.71585 0.272075 5.61893 0.421799C5.522 0.571524 5.47039 0.746208 5.47034 0.92473V2.99855H10.4491V1.31945Z" fill="#EE3D4B"/>
<path d="M4.12053 2.93978C4.13815 2.85213 4.17328 2.76895 4.2238 2.69527C4.27432 2.62159 4.33917 2.55892 4.41447 2.51105C4.48977 2.46317 4.57394 2.43107 4.66193 2.41668C4.74992 2.4023 4.8399 2.40592 4.92646 2.42733C5.97676 2.67402 7.05204 2.79767 8.13074 2.7958C9.20597 2.79924 10.2754 2.63812 11.3022 2.31801C11.3741 2.29425 11.4504 2.28695 11.5255 2.29663C11.6006 2.30632 11.6726 2.33274 11.7362 2.37396C11.7998 2.41519 11.8534 2.47017 11.8931 2.53487C11.9327 2.59958 11.9574 2.67236 11.9654 2.74789C12.0038 3.15843 12.0484 3.70818 12.0685 4.23135C12.0685 4.23135 11.803 6.02769 10.2168 5.9012L4.64305 5.9228L4.20128 5.31701C4.17024 5.0458 4.00052 4.32659 4.00052 4.32659C3.9992 3.86166 4.03936 3.39754 4.12053 2.93978Z" fill="#5BC4F0"/>
<path d="M12.0463 5.42244C12.085 5.11691 12.0855 4.68411 12.0683 4.23145C10.9278 4.90791 9.4585 4.90814 9.4585 4.90814H5.22846C4.5512 4.90814 4.18743 4.59402 4.00021 4.32691C3.99783 4.68908 4.01611 5.05109 4.05495 5.41117C4.13486 6.11013 4.60298 6.05622 4.60298 6.05622H10.2651C11.851 6.18282 12.0463 5.42244 12.0463 5.42244Z" fill="#5BC4F0"/>
<path d="M6.96708 2.25464C7.08627 2.25464 7.20057 2.30213 7.28484 2.38666C7.36912 2.47119 7.41647 2.58584 7.41647 2.70539V6.11016H6.5177V2.70539C6.5177 2.6462 6.52932 2.58758 6.55191 2.5329C6.57449 2.47821 6.60759 2.42852 6.64932 2.38666C6.69105 2.3448 6.74059 2.3116 6.79511 2.28895C6.84963 2.2663 6.90807 2.25464 6.96708 2.25464Z" fill="#404040"/>
<path d="M9.3889 2.25464C9.50808 2.25464 9.62238 2.30213 9.70666 2.38666C9.79093 2.47119 9.83828 2.58584 9.83828 2.70539V6.11016H8.93951V2.70539C8.93951 2.6462 8.95114 2.58758 8.97372 2.5329C8.99631 2.47821 9.02941 2.42852 9.07113 2.38666C9.11286 2.3448 9.1624 2.3116 9.21693 2.28895C9.27145 2.2663 9.32988 2.25464 9.3889 2.25464Z" fill="#404040"/>
<path d="M1.83906 8.23218L1.36631 8.13793C1.0201 8.0689 0.682759 8.29896 0.612838 8.65179L0.126583 11.1055C0.0566626 11.4583 0.280638 11.8003 0.626846 11.8693L1.0996 11.9636C1.44581 12.0326 1.78314 11.8025 1.85307 11.4497L2.33932 8.99602C2.40924 8.64319 2.18527 8.30121 1.83906 8.23218Z" fill="#404040"/>
<path d="M16.9949 12.1147V10.9576L15.6203 9.15783L14.1069 9.11632C13.9205 9.10974 13.739 9.05445 13.5805 8.95591C13.4219 8.85737 13.2917 8.719 13.2029 8.55451C12.8806 7.94855 12.5129 7.36803 12.1029 6.81796C11.9089 6.56366 11.6592 6.35754 11.373 6.21553C11.0869 6.07352 10.772 5.99944 10.4528 5.99902H5.43291C5.14663 5.99873 4.86316 6.05548 4.59892 6.16598C4.33469 6.27647 4.09497 6.4385 3.89368 6.64268C3.21384 7.33093 2.64259 8.11911 2.1996 8.98007L1.45294 11.2702C1.38505 11.7124 1.35939 12.1601 1.37633 12.6072L2.2444 13.1289H16.4763L16.9949 12.1147Z" fill="#FFD325"/>
<path d="M15.6203 9.15796V10.0381C15.6203 10.2684 15.7087 10.4899 15.8672 10.6565C16.0257 10.8231 16.2421 10.9222 16.4714 10.933L16.9948 10.9577C16.9948 10.9577 17.1594 9.15796 15.6203 9.15796Z" fill="#FFF3EB"/>
<path d="M2.19972 8.97998C2.28494 9.01335 2.36669 9.055 2.44382 9.10434C2.58524 9.19435 2.69896 9.322 2.7723 9.47305C2.84563 9.6241 2.8757 9.79261 2.85915 9.95979L2.81597 10.4035C2.80189 10.5486 2.75707 10.689 2.68451 10.8153C2.61196 10.9416 2.51335 11.0509 2.39528 11.1358C2.27721 11.2208 2.14241 11.2795 1.9999 11.308C1.85739 11.3365 1.71045 11.3341 1.56893 11.301C1.53083 11.2921 1.49221 11.2819 1.45306 11.2702C1.45306 11.2702 1.69023 9.8554 2.19972 8.97998Z" fill="#FD707B"/>
<path d="M5.11333 7.05933C5.02092 7.11065 4.93491 7.17278 4.8571 7.24443C4.44233 7.63703 4.10654 8.10584 3.86796 8.62541C3.83474 8.69604 3.81986 8.77395 3.82468 8.8519C3.8295 8.92985 3.85388 9.00532 3.89555 9.07129C3.93722 9.13727 3.99483 9.19161 4.06304 9.22928C4.13124 9.26696 4.20783 9.28674 4.28569 9.28678H4.71248C4.81874 9.28678 4.92064 9.24445 4.99578 9.16909C5.07092 9.09373 5.11314 8.99152 5.11316 8.88494L5.11333 7.05933Z" fill="#404040"/>
<path d="M7.81934 6.88574H6.31668C6.11637 6.88574 5.95398 7.04863 5.95398 7.24955V8.92294C5.95398 9.12386 6.11637 9.28675 6.31668 9.28675H7.81934C8.01966 9.28675 8.18205 9.12386 8.18205 8.92294V7.24955C8.18205 7.04863 8.01966 6.88574 7.81934 6.88574Z" fill="#404040"/>
<path d="M11.9058 8.65661C11.7219 8.17171 11.4796 7.71112 11.1845 7.28506C11.0954 7.16123 10.9783 7.06043 10.8428 6.99099C10.7072 6.92155 10.5572 6.88548 10.405 6.88574H9.42132C9.31562 6.88574 9.21426 6.92785 9.13952 7.00281C9.06478 7.07777 9.02278 7.17944 9.02277 7.28545V8.88698C9.02277 8.99301 9.06476 9.09469 9.1395 9.16966C9.21424 9.24463 9.31561 9.28675 9.42132 9.28675H11.4749C11.55 9.28687 11.6239 9.26862 11.6903 9.23359C11.7568 9.19857 11.8137 9.14781 11.8561 9.08573C11.8986 9.02365 11.9253 8.95213 11.934 8.87735C11.9426 8.80257 11.933 8.7268 11.9058 8.65661Z" fill="#404040"/>
<path d="M6.52218 10.4212H5.95403C5.90212 10.4212 5.85233 10.4005 5.81563 10.3637C5.77892 10.3269 5.7583 10.277 5.7583 10.2249C5.7583 10.1728 5.77892 10.1229 5.81563 10.0861C5.85233 10.0492 5.90212 10.0286 5.95403 10.0286H6.52218C6.57409 10.0286 6.62388 10.0492 6.66058 10.0861C6.69729 10.1229 6.71791 10.1728 6.71791 10.2249C6.71791 10.277 6.69729 10.3269 6.66058 10.3637C6.62388 10.4005 6.57409 10.4212 6.52218 10.4212Z" fill="#AF8E2F"/>
<path d="M9.59152 10.4212H9.0233C8.97139 10.4212 8.92161 10.4005 8.8849 10.3637C8.8482 10.3269 8.82758 10.277 8.82758 10.2249C8.82758 10.1728 8.8482 10.1229 8.8849 10.0861C8.92161 10.0492 8.97139 10.0286 9.0233 10.0286H9.59152C9.64342 10.0286 9.69321 10.0492 9.72991 10.0861C9.76662 10.1229 9.78724 10.1728 9.78724 10.2249C9.78724 10.277 9.76662 10.3269 9.72991 10.3637C9.69321 10.4005 9.64342 10.4212 9.59152 10.4212Z" fill="#AF8E2F"/>
<path d="M16.0592 13.6591C16.3074 13.659 16.5454 13.5602 16.7208 13.3842C16.8963 13.2081 16.9949 12.9694 16.9949 12.7205V12.1147C16.54 12.563 15.929 12.6075 15.929 12.6075H1.37665C1.37872 12.6618 1.38101 12.7162 1.38431 12.771C1.39784 13.0107 1.50213 13.2361 1.67587 13.4012C1.8496 13.5663 2.07965 13.6587 2.31898 13.6593L16.0592 13.6591Z" fill="#AF8E2F"/>
<path d="M4.84752 16C6.12296 16 7.1569 14.9629 7.1569 13.6836C7.1569 12.4043 6.12296 11.3672 4.84752 11.3672C3.57209 11.3672 2.53815 12.4043 2.53815 13.6836C2.53815 14.9629 3.57209 16 4.84752 16Z" fill="#404040"/>
<path d="M4.84707 14.7599C5.43965 14.7599 5.92003 14.278 5.92003 13.6837C5.92003 13.0893 5.43965 12.6074 4.84707 12.6074C4.25449 12.6074 3.77411 13.0893 3.77411 13.6837C3.77411 14.278 4.25449 14.7599 4.84707 14.7599Z" fill="#FFF3EB"/>
<path d="M13.4195 16C14.695 16 15.7289 14.9629 15.7289 13.6836C15.7289 12.4043 14.695 11.3672 13.4195 11.3672C12.1441 11.3672 11.1102 12.4043 11.1102 13.6836C11.1102 14.9629 12.1441 16 13.4195 16Z" fill="#404040"/>
<path d="M13.4191 14.7599C14.0117 14.7599 14.492 14.278 14.492 13.6837C14.492 13.0893 14.0117 12.6074 13.4191 12.6074C12.8265 12.6074 12.3461 13.0893 12.3461 13.6837C12.3461 14.278 12.8265 14.7599 13.4191 14.7599Z" fill="#FFF3EB"/>
</svg>
