<svg width="142" height="148" viewBox="0 0 142 148" fill="none" xmlns="http://www.w3.org/2000/svg">
<path d="M160.547 28.4001C160.547 44.0851 147.832 56.8003 132.147 56.8003C116.462 56.8003 103.747 44.0851 103.747 28.4001C103.747 12.7152 116.462 0 132.147 0C147.832 0 160.547 12.7152 160.547 28.4001Z" fill="#5BC4F0" fill-opacity="0.1"/>
<path d="M44 81C44 93.1503 34.1503 103 22 103C9.84974 103 0 93.1503 0 81C0 68.8497 9.84974 59 22 59C34.1503 59 44 68.8497 44 81Z" fill="#5BC4F0" fill-opacity="0.1"/>
<path d="M81.7469 148C117.645 148 146.747 143.747 146.747 138.5C146.747 133.253 117.645 129 81.7469 129C45.8484 129 16.7469 133.253 16.7469 138.5C16.7469 143.747 45.8484 148 81.7469 148Z" fill="#5BC4F0" fill-opacity="0.2"/>
<path d="M58.2967 140.566C58.2967 140.566 51.9514 119.492 47.5011 115.304C43.0508 111.116 41.9414 115.989 41.9414 115.989C41.9414 115.989 34.9393 105.885 31.1743 106.51C27.4085 107.135 29.9199 112.182 29.9199 112.182C29.9199 112.182 18.4083 104.51 16.7157 106.933C13.5622 111.447 25.8019 120.574 25.8019 120.574C25.8019 120.574 20.2313 118.119 19.854 121.529C19.2848 126.671 32.4819 128.667 32.4819 128.667C32.4819 128.667 27.3393 128.396 28.4637 131.741C30.4809 137.743 58.2973 140.567 58.2973 140.567L58.2967 140.566Z" fill="#007A18"/>
<path d="M26.2418 132.508C25.3115 129.888 29.6056 128.153 29.6056 128.153C29.6056 128.153 19.2855 126.671 19.854 121.53C20.2312 118.121 25.8019 120.574 25.8019 120.574C25.8019 120.574 13.5622 111.448 16.7157 106.934L58.08 140.553C54.8566 140.201 28.0849 137.699 26.2426 132.508L26.2418 132.508Z" fill="#32B353"/>
<path d="M55.4184 137.532C55.4184 137.532 61.9398 121.462 61.2512 116.665C60.5618 111.867 57.4603 114.342 57.4603 114.342C57.4603 114.342 58.1177 104.613 55.4706 103.139C52.8235 101.665 51.907 105.99 51.907 105.99C51.907 105.99 48.5356 95.588 46.2843 96.2552C42.0906 97.4968 45.1691 109.209 45.1691 109.209C45.1691 109.209 42.9263 104.933 41.0032 106.862C38.1037 109.77 45.308 117.532 45.308 117.532C45.308 117.532 43.2633 116.622 42.3049 119.253C40.5847 123.973 55.4189 137.533 55.4189 137.533L55.4184 137.532Z" fill="#007A18"/>
<path d="M40.724 118.945C41.6823 116.314 45.3076 117.53 45.3076 117.53C45.3076 117.53 36.5236 109.24 39.4236 106.332C41.3467 104.403 44.9327 108.255 44.9327 108.255C44.9327 108.255 42.0901 97.4957 46.284 96.2534L55.3131 137.557C53.4861 135.746 39.1178 123.354 40.724 118.945Z" fill="#32B353"/>
<path d="M56.2254 47.994C56.2275 47.3732 56.2054 46.7475 56.2707 46.1325C56.5154 43.8291 57.6929 41.8726 60.4067 41.2776C60.8145 41.1883 61.2321 41.1493 61.6496 41.1454C65.0151 41.1125 68.3807 41.0815 71.7462 41.0693C77.4819 41.0486 83.2175 41.0386 88.9532 41.0304C95.4739 41.0208 101.995 41.0183 108.515 41.0118C109.669 41.0108 110.822 40.9897 111.975 41.0065C114.742 41.0465 117.51 41.105 120.277 41.1508C120.78 41.159 121.283 41.1633 121.786 41.145C122.92 41.1036 123.989 41.3318 124.963 41.9047C126.297 42.6905 127.055 43.8909 127.32 45.3881C127.446 46.0953 127.48 46.8261 127.484 47.5465C127.511 52.2299 127.447 122.141 127.441 135.477C127.44 138.032 125.544 140.226 123.005 140.508C122.943 140.515 122.881 140.521 122.818 140.526C122.23 140.574 121.639 140.604 121.048 140.606C111.689 140.643 102.33 140.69 92.9702 140.703C86.1255 140.713 79.2805 140.681 72.4359 140.66C68.9021 140.649 65.3684 140.628 61.8346 140.599C60.9749 140.592 60.1238 140.484 59.3145 140.165C57.5197 139.456 56.5493 138.073 56.1161 136.251C55.9471 135.541 55.9086 134.82 55.9136 134.094C55.9475 129.303 55.9871 124.513 56.0061 119.722C56.0304 113.364 56.1943 56.363 56.2254 47.994Z" fill="#161742"/>
<path d="M52.2326 47.994C52.2347 47.3732 52.2126 46.7475 52.2779 46.1325C52.5226 43.8291 53.7001 41.8726 56.4139 41.2776C56.8217 41.1883 57.2393 41.1493 57.6568 41.1454C61.0223 41.1125 64.3879 41.0815 67.7534 41.0693C73.4891 41.0486 79.2247 41.0386 84.9604 41.0304C91.4811 41.0208 98.0018 41.0183 104.523 41.0118C105.676 41.0108 106.829 40.9897 107.982 41.0065C110.75 41.0465 113.517 41.105 116.284 41.1508C116.787 41.159 117.29 41.1633 117.793 41.145C118.928 41.1036 119.997 41.3318 120.97 41.9047C122.305 42.6905 123.062 43.8909 123.327 45.3881C123.453 46.0953 123.487 46.8261 123.491 47.5465C123.518 52.2299 123.454 122.141 123.449 135.477C123.447 138.032 121.551 140.226 119.012 140.508C118.95 140.515 118.888 140.521 118.825 140.526C118.237 140.574 117.646 140.604 117.055 140.606C107.696 140.643 98.3368 140.69 88.9774 140.703C82.1327 140.713 75.2881 140.681 68.4431 140.66C64.9093 140.649 61.3756 140.628 57.8418 140.599C56.9821 140.592 56.131 140.484 55.3217 140.165C53.5269 139.456 52.5565 138.073 52.1233 136.251C51.9543 135.541 51.9158 134.82 51.9208 134.094C51.9547 129.303 51.9943 124.513 52.0133 119.722C52.0376 113.364 52.2015 56.363 52.2326 47.994Z" fill="#2453A3"/>
<rect x="65" y="61" width="49" height="2" rx="1" fill="#5BC4F0" fill-opacity="0.2"/>
<rect x="65" y="57" width="49" height="2" rx="1" fill="#5BC4F0" fill-opacity="0.2"/>
<rect x="77" y="53" width="25" height="2" rx="1" fill="#5BC4F0" fill-opacity="0.2"/>
<path d="M112.058 74.2534H66.9855C66.8068 74.2534 66.6626 74.1573 66.6626 74.0391C66.6626 73.9205 66.8074 73.8248 66.9855 73.8248H112.058C112.236 73.8248 112.381 73.9208 112.381 74.0391C112.381 74.1576 112.236 74.2534 112.058 74.2534Z" fill="#5BC4F0" fill-opacity="0.5"/>
<path d="M112.058 79.5519H66.9854C66.8068 79.5519 66.6625 79.4558 66.6625 79.3376C66.6625 79.219 66.8073 79.1233 66.9854 79.1233H112.058C112.236 79.1233 112.381 79.2194 112.381 79.3376C112.381 79.4558 112.236 79.5519 112.058 79.5519Z" fill="#5BC4F0" fill-opacity="0.5"/>
<path d="M107.981 82.0407H70.8464C70.6677 82.0407 70.5234 81.9446 70.5234 81.8264C70.5234 81.7078 70.6682 81.6121 70.8464 81.6121H107.981C108.159 81.6121 108.304 81.7081 108.304 81.8264C108.304 81.9449 108.159 82.0407 107.981 82.0407Z" fill="#5BC4F0" fill-opacity="0.5"/>
<path d="M112.058 76.9023H85.2836C85.1055 76.9023 84.9607 76.8062 84.9607 76.688C84.9607 76.5694 85.1049 76.4737 85.2836 76.4737H112.058C112.236 76.4737 112.381 76.5694 112.381 76.688C112.381 76.8066 112.236 76.9023 112.058 76.9023Z" fill="#5BC4F0" fill-opacity="0.5"/>
<path d="M81.92 76.9025H66.9854C66.8068 76.9025 66.6625 76.8065 66.6625 76.6882C66.6625 76.5697 66.8073 76.4739 66.9854 76.4739H81.92C82.0981 76.4739 82.2429 76.5697 82.2429 76.6882C82.2429 76.8068 82.0981 76.9025 81.92 76.9025Z" fill="#5BC4F0" fill-opacity="0.5"/>
<path d="M112.025 87.8815H66.9526C66.7739 87.8815 66.6297 87.7854 66.6297 87.6672C66.6297 87.5486 66.7745 87.4529 66.9526 87.4529H112.025C112.204 87.4529 112.348 87.549 112.348 87.6672C112.348 87.7858 112.204 87.8815 112.025 87.8815Z" fill="#5BC4F0" fill-opacity="0.5"/>
<path d="M112.025 93.1803H66.9526C66.7739 93.1803 66.6296 93.0842 66.6296 92.966C66.6296 92.8474 66.7744 92.7517 66.9526 92.7517H112.025C112.203 92.7517 112.348 92.8478 112.348 92.966C112.348 93.0842 112.203 93.1803 112.025 93.1803Z" fill="#5BC4F0" fill-opacity="0.5"/>
<path d="M107.981 95.669H70.8464C70.6677 95.669 70.5234 95.5729 70.5234 95.4547C70.5234 95.3361 70.6682 95.2404 70.8464 95.2404H107.981C108.159 95.2404 108.304 95.3365 108.304 95.4547C108.304 95.5733 108.159 95.669 107.981 95.669Z" fill="#5BC4F0" fill-opacity="0.5"/>
<path d="M112.058 99.5617H66.9854C66.8068 99.5617 66.6625 99.4657 66.6625 99.3474C66.6625 99.2289 66.8073 99.1331 66.9854 99.1331H112.058C112.236 99.1331 112.381 99.2292 112.381 99.3474C112.381 99.466 112.236 99.5617 112.058 99.5617Z" fill="#5BC4F0" fill-opacity="0.5"/>
<path d="M112.058 104.861H66.9854C66.8067 104.861 66.6625 104.764 66.6625 104.646C66.6625 104.528 66.8072 104.432 66.9854 104.432H112.058C112.236 104.432 112.381 104.528 112.381 104.646C112.381 104.764 112.236 104.861 112.058 104.861Z" fill="#5BC4F0" fill-opacity="0.5"/>
<path d="M107.981 107.349H70.8463C70.6676 107.349 70.5234 107.253 70.5234 107.135C70.5234 107.016 70.6682 106.921 70.8463 106.921H107.981C108.159 106.921 108.304 107.017 108.304 107.135C108.304 107.254 108.159 107.349 107.981 107.349Z" fill="#5BC4F0" fill-opacity="0.5"/>
<path d="M112.058 102.211H85.2835C85.1054 102.211 84.9606 102.115 84.9606 101.996C84.9606 101.878 85.1049 101.782 85.2835 101.782H112.058C112.236 101.782 112.381 101.878 112.381 101.996C112.381 102.115 112.236 102.211 112.058 102.211Z" fill="#5BC4F0" fill-opacity="0.5"/>
<path d="M81.9199 102.211H66.9854C66.8067 102.211 66.6625 102.115 66.6625 101.996C66.6625 101.878 66.8072 101.782 66.9854 101.782H81.9199C82.0981 101.782 82.2429 101.878 82.2429 101.996C82.2429 102.115 82.0981 102.211 81.9199 102.211Z" fill="#5BC4F0" fill-opacity="0.5"/>
<path d="M112.025 120.978H66.9526C66.7739 120.978 66.6296 120.882 66.6296 120.764C66.6296 120.645 66.7744 120.55 66.9526 120.55H112.025C112.203 120.55 112.348 120.646 112.348 120.764C112.348 120.882 112.203 120.978 112.025 120.978Z" fill="#5BC4F0" fill-opacity="0.5"/>
<path d="M112.025 126.277H66.9525C66.7738 126.277 66.6296 126.181 66.6296 126.063C66.6296 125.944 66.7744 125.849 66.9525 125.849H112.025C112.203 125.849 112.348 125.945 112.348 126.063C112.348 126.181 112.203 126.277 112.025 126.277Z" fill="#5BC4F0" fill-opacity="0.5"/>
<path d="M107.981 128.766H70.8463C70.6676 128.766 70.5234 128.67 70.5234 128.552C70.5234 128.433 70.6682 128.337 70.8463 128.337H107.981C108.159 128.337 108.304 128.433 108.304 128.552C108.304 128.67 108.159 128.766 107.981 128.766Z" fill="#5BC4F0" fill-opacity="0.5"/>
<path d="M134.366 142.237C134.366 142.97 128.984 143.566 122.349 143.566C115.714 143.566 110.332 142.97 110.332 142.237C110.332 142.224 110.334 142.21 110.337 142.197V138.608H134.358V142.189C134.364 142.205 134.366 142.221 134.366 142.237Z" fill="#AF8E2F"/>
<path d="M122.347 139.969C128.984 139.969 134.365 139.374 134.365 138.64C134.365 137.906 128.984 137.311 122.347 137.311C115.71 137.311 110.33 137.906 110.33 138.64C110.33 139.374 115.71 139.969 122.347 139.969Z" fill="#FFD325"/>
<path d="M137.205 137.904C137.205 138.638 131.822 139.233 125.187 139.233C118.552 139.233 113.17 138.638 113.17 137.904C113.17 137.891 113.172 137.878 113.175 137.865V134.275H137.197V137.857C137.202 137.873 137.205 137.889 137.205 137.904Z" fill="#AF8E2F"/>
<path d="M125.186 135.639C131.823 135.639 137.203 135.044 137.203 134.31C137.203 133.576 131.823 132.981 125.186 132.981C118.549 132.981 113.168 133.576 113.168 134.31C113.168 135.044 118.549 135.639 125.186 135.639Z" fill="#FFD325"/>
<path d="M136.547 133.012C136.547 133.745 131.165 134.341 124.53 134.341C117.895 134.341 112.512 133.745 112.512 133.012C112.512 132.999 112.515 132.985 112.518 132.972V129.383H136.539V132.964C136.545 132.98 136.547 132.996 136.547 133.012Z" fill="#AF8E2F"/>
<path d="M124.53 130.744C131.167 130.744 136.547 130.149 136.547 129.415C136.547 128.682 131.167 128.087 124.53 128.087C117.893 128.087 112.513 128.682 112.513 129.415C112.513 130.149 117.893 130.744 124.53 130.744Z" fill="#FFD325"/>
<path d="M137.785 128.682C137.785 129.416 132.403 130.011 125.768 130.011C119.133 130.011 113.75 129.416 113.75 128.682C113.75 128.669 113.753 128.656 113.756 128.643V125.053H137.777V128.635C137.783 128.651 137.785 128.666 137.785 128.682Z" fill="#AF8E2F"/>
<path d="M125.768 126.414C132.405 126.414 137.785 125.819 137.785 125.085C137.785 124.351 132.405 123.756 125.768 123.756C119.131 123.756 113.75 124.351 113.75 125.085C113.75 125.819 119.131 126.414 125.768 126.414Z" fill="#FFD325"/>
<path d="M134.073 124.349C134.073 125.082 128.691 125.678 122.056 125.678C115.42 125.678 110.038 125.082 110.038 124.349C110.038 124.336 110.041 124.322 110.044 124.309V120.72H134.065V124.301C134.07 124.317 134.073 124.333 134.073 124.349Z" fill="#AF8E2F"/>
<path d="M122.056 122.083C128.693 122.083 134.073 121.488 134.073 120.754C134.073 120.021 128.693 119.426 122.056 119.426C115.419 119.426 110.038 120.021 110.038 120.754C110.038 121.488 115.419 122.083 122.056 122.083Z" fill="#FFD325"/>
<path d="M134.947 119.872C134.947 120.605 129.564 121.201 122.929 121.201C116.294 121.201 110.912 120.605 110.912 119.872C110.912 119.859 110.915 119.846 110.917 119.832V116.243H134.939V119.824C134.944 119.84 134.947 119.856 134.947 119.872Z" fill="#AF8E2F"/>
<path d="M122.929 117.606C129.566 117.606 134.947 117.011 134.947 116.277C134.947 115.543 129.566 114.948 122.929 114.948C116.292 114.948 110.912 115.543 110.912 116.277C110.912 117.011 116.292 117.606 122.929 117.606Z" fill="#FFD325"/>
<ellipse opacity="0.4" cx="123.066" cy="115.699" rx="6.50199" ry="0.750755" fill="#AF8E2F"/>
<path d="M120.008 94.3469C114.291 95.8338 110.86 101.674 112.347 107.393C113.834 113.11 119.674 116.544 125.393 115.055C131.11 113.568 134.543 107.727 133.054 102.008C131.567 96.2913 125.727 92.8599 120.008 94.3469ZM131.035 102.533C131.614 104.758 131.289 107.078 130.124 109.06C128.96 111.044 127.095 112.454 124.868 113.033C120.274 114.226 115.563 111.462 114.368 106.866C113.789 104.641 114.112 102.323 115.276 100.339C116.399 98.4249 118.178 97.043 120.302 96.4291C120.379 96.4057 120.456 96.387 120.533 96.366C125.052 95.1895 129.681 97.8483 130.969 102.305C130.99 102.379 131.014 102.456 131.032 102.531L131.035 102.533Z" fill="#FFD325"/>
<path d="M130.971 102.308C130.992 102.382 131.015 102.459 131.034 102.534C131.613 104.759 131.288 107.079 130.124 109.061C128.959 111.045 127.094 112.455 124.867 113.034C120.273 114.227 115.563 111.463 114.368 106.867C113.789 104.642 114.111 102.324 115.276 100.34C116.398 98.4258 118.177 97.0439 120.301 96.4299C120.378 96.4066 120.455 96.3879 120.532 96.3669C125.051 95.1904 129.68 97.8492 130.969 102.305L130.971 102.308Z" fill="#AF8E2F"/>
<path d="M112 98.7529C112.811 99.1455 113.369 99.748 113.749 100.504C114.13 99.748 114.69 99.1432 115.501 98.7506C114.69 98.358 114.13 97.7555 113.749 97C113.369 97.7555 112.811 98.3603 112 98.7529Z" fill="#FFF3EB"/>
<path d="M125.407 103.308C125.367 103.268 125.319 103.245 125.256 103.243L124.118 103.206C124.055 102.837 123.924 102.512 123.723 102.235L125.274 102.286C125.337 102.286 125.387 102.269 125.429 102.231C125.471 102.191 125.492 102.143 125.494 102.08L125.516 101.402C125.518 101.339 125.499 101.289 125.462 101.247C125.422 101.205 125.371 101.184 125.31 101.182L119.774 101.003C119.713 101.001 119.661 101.018 119.619 101.058C119.579 101.095 119.556 101.146 119.554 101.209L119.525 102.094C119.523 102.151 119.542 102.203 119.584 102.245C119.624 102.289 119.675 102.312 119.731 102.312L120.697 102.343C121.633 102.373 122.218 102.643 122.456 103.153L119.707 103.063C119.646 103.064 119.593 103.08 119.552 103.118C119.51 103.156 119.489 103.206 119.487 103.269L119.464 103.947C119.464 104.01 119.481 104.06 119.519 104.102C119.557 104.144 119.607 104.165 119.67 104.167L122.512 104.261C122.401 104.622 122.164 104.891 121.801 105.07C121.438 105.248 120.964 105.328 120.378 105.308L119.633 105.284C119.575 105.284 119.524 105.303 119.48 105.343C119.436 105.385 119.413 105.433 119.411 105.489L119.383 106.335C119.381 106.394 119.399 106.442 119.437 106.484C120.261 107.417 121.322 108.719 122.627 110.392C122.665 110.447 122.719 110.474 122.791 110.478L124.088 110.521C124.18 110.525 124.247 110.487 124.285 110.407C124.331 110.328 124.327 110.252 124.266 110.179C123.024 108.547 122.042 107.327 121.328 106.512C122.086 106.448 122.705 106.223 123.189 105.84C123.673 105.456 123.975 104.948 124.098 104.312L125.217 104.349C125.278 104.349 125.33 104.332 125.37 104.294C125.412 104.256 125.433 104.206 125.435 104.143L125.457 103.465C125.457 103.402 125.441 103.352 125.403 103.31L125.407 103.308Z" fill="#DCB414"/>
<path d="M121.747 49.9145C123.133 50.585 124.086 51.6141 124.737 52.9043C125.387 51.6141 126.344 50.5811 127.73 49.9106C126.344 49.2402 125.387 48.2111 124.737 46.9209C124.086 48.2111 123.133 49.2441 121.747 49.9145Z" fill="#FFD325"/>
<path d="M38 35.5016C39.1586 36.0619 39.9549 36.9218 40.4983 38C41.0417 36.9218 41.8414 36.0586 43 35.4984C41.8414 34.9381 41.0417 34.0782 40.4983 33C39.9549 34.0782 39.1586 34.9414 38 35.5016Z" fill="#FFD325"/>
<path d="M118.747 7.4947C119.902 8.05341 120.696 8.91097 121.238 9.98616C121.78 8.91097 122.578 8.05016 123.733 7.49145C122.578 6.93274 121.78 6.07519 121.238 5C120.696 6.07519 119.902 6.93599 118.747 7.4947Z" fill="#AF8E2F"/>
<path d="M6 63.4903C7.61786 64.2729 8.72655 65.4702 9.49032 66.9806C10.2541 65.4781 11.3628 64.2729 12.9806 63.4903C11.3628 62.7077 10.2459 61.5104 9.49032 60C8.72655 61.5026 7.61786 62.7077 6 63.4903Z" fill="#AF8E2F"/>
</svg>
