<svg width="64" height="64" viewBox="0 0 64 64" fill="none" xmlns="http://www.w3.org/2000/svg">
<circle cx="32" cy="32" r="32" fill="#161742"/>
<path d="M39.7982 24.9186H24.3749V21.6786C24.3749 18.31 27.1448 15.5714 30.552 15.5714C33.0489 15.5714 35.2726 17.0371 36.248 19.3C36.5341 19.9557 37.2883 20.2643 37.9516 19.9814C38.6148 19.7114 38.9269 18.9529 38.6408 18.2971C37.2623 15.0829 34.0892 13 30.552 13C25.7144 13 21.774 16.8957 21.774 21.6786V24.9186H21.2018C18.3278 24.9186 16 27.22 16 30.0614V43.8571C16 46.6986 18.3278 49 21.2018 49H39.7982C42.6722 49 45 46.6986 45 43.8571V30.0614C45 27.2329 42.6722 24.9186 39.7982 24.9186ZM42.3991 43.8571C42.3991 45.2714 41.2287 46.4286 39.7982 46.4286H21.2018C19.7713 46.4286 18.6009 45.2714 18.6009 43.8571V30.0614C18.6009 28.6471 19.7713 27.49 21.2018 27.49H39.7982C41.2287 27.49 42.3991 28.6471 42.3991 30.0614V43.8571ZM32.8408 36.5929C32.8408 37.39 32.4247 38.11 31.8004 38.5214V41.6714C31.8004 42.3786 31.2152 42.9571 30.5 42.9571C29.7848 42.9571 29.1996 42.3786 29.1996 41.6714V38.5214C28.5753 38.11 28.1592 37.39 28.1592 36.5929C28.1592 35.32 29.2126 34.2786 30.5 34.2786C31.7874 34.2786 32.8408 35.3071 32.8408 36.5929Z" fill="#AF8E2F"/>
<path d="M48.6689 11C48.606 15.6114 48.811 20.0552 57 21.0881C48.3295 20.9984 48.9995 25.436 48.5819 31C48.345 25.4399 47.7465 21.4508 41 21.188C47.9834 20.2409 47.7939 17.6158 48.6689 11Z" fill="#AF8E2F"/>
</svg>
