<svg width="10" height="10" viewBox="0 0 10 10" fill="none" xmlns="http://www.w3.org/2000/svg">
<g clip-path="url(#clip0_73_264)">
<path d="M0.292533 7.63679H7.94913C8.0178 7.63679 8.08417 7.61277 8.13681 7.56898C8.21035 7.50739 9.88791 6.06426 9.9902 2.94908H1.76717C1.66527 5.77683 0.120319 7.10595 0.104263 7.11921C0.010138 7.19875 -0.0244925 7.32865 0.0178532 7.44424C0.0599059 7.55954 0.169501 7.63679 0.292533 7.63679Z" fill="#1D478E"/>
<path d="M9.70702 1.19119H8.24211V0.898206C8.24211 0.734137 8.1132 0.605225 7.94913 0.605225C7.78506 0.605225 7.65615 0.734137 7.65615 0.898206V1.19119H6.17171V0.898206C6.17171 0.734137 6.04279 0.605225 5.87873 0.605225C5.71466 0.605225 5.58574 0.734137 5.58574 0.898206V1.19119H4.12083V0.898206C4.12083 0.734137 3.99192 0.605225 3.82785 0.605225C3.66378 0.605225 3.53487 0.734137 3.53487 0.898206V1.19119H2.06996C1.90589 1.19119 1.77698 1.3201 1.77698 1.48417V2.36312H10V1.48417C10 1.3201 9.87109 1.19119 9.70702 1.19119Z" fill="#1D478E"/>
<path d="M8.51306 8.0182C8.35397 8.15067 8.15428 8.22278 7.94913 8.22278H1.77698V9.10172C1.77698 9.26366 1.90802 9.39471 2.06996 9.39471H9.70702C9.86896 9.39471 10 9.26366 10 9.10172V5.81747C9.43513 7.2033 8.6469 7.90618 8.51306 8.0182Z" fill="#1D478E"/>
</g>
<defs>
<clipPath id="clip0_73_264">
<rect width="10" height="10" fill="white"/>
</clipPath>
</defs>
</svg>
