<svg width="130" height="130" viewBox="0 0 130 130" fill="none" xmlns="http://www.w3.org/2000/svg">
<mask id="mask0_0_1874" style="mask-type:luminance" maskUnits="userSpaceOnUse" x="0" y="0" width="130" height="130">
<path d="M65 130C100.899 130 130 100.898 130 65C130 29.1015 100.899 0 65 0C29.1015 0 0 29.1015 0 65C0 100.898 29.1015 130 65 130Z" fill="white"/>
</mask>
<g mask="url(#mask0_0_1874)">
<path d="M136.462 38.4613L87.1465 62.4527L136.462 72.6721V38.4613Z" fill="#FFD325"/>
<path d="M-7 45.7655L45.0343 59.7164L-7 73.6673V45.7655Z" fill="#FFD325"/>
<path d="M94.3549 -5.07684L78.5571 20.6909L125.084 -5.04157L94.3549 -5.07684Z" fill="#FFD325"/>
<path d="M17.1754 -4.74176L29.3072 15.0445L-6.42041 -4.71656L17.1754 -4.74176Z" fill="#FFD325"/>
<path d="M71.1897 -4.88314L66.4453 8.00197L81.7946 -5.04187L71.1897 -4.88314Z" fill="#FFD325"/>
<path d="M28.498 -5.0419L43.1645 9.59683L39.758 -5.0419H28.498Z" fill="#FFD325"/>
<path d="M49.4485 -5.04167L52.341 8.14074L62.2731 -5.18277L49.4485 -5.04167Z" fill="#FFD325"/>
<path d="M136.462 -4.18765L89.8125 38.4612L136.462 30.0206V-4.18765Z" fill="#FFD325"/>
<path d="M-7 3.48206L39.6499 46.1309L-7 37.6903V3.48206Z" fill="#FFD325"/>
<path d="M112.332 57.2424L115.398 53.4529C115.398 53.4529 116.35 52.9944 117.195 52.0999C118.039 51.2055 121.178 47.353 121.178 47.353L114.1 42.387C114.1 42.387 110.412 48.2349 110.014 49.7895C109.616 51.344 107.32 53.5915 107.32 53.5915L112.332 57.2424Z" fill="#9E5943"/>
<path d="M111.147 51.0642C111.147 51.0642 109.074 46.8691 109.381 44.5461C109.643 42.5657 110.129 41.1043 110.266 40.1066C110.303 39.8345 110.563 39.6531 110.888 39.6808C111.493 39.7312 112.022 40.1771 112.107 40.7062C112.228 41.447 112.334 42.4926 112.173 43.3518C112.014 44.2059 113.7 46.1813 113.7 46.1813L111.145 51.0642H111.147Z" fill="#9E5943"/>
<path d="M113.894 42.7169L117.688 35.8938C117.938 35.4302 118.583 35.2816 119.109 35.5688C119.608 35.8384 119.817 36.4003 119.586 36.8412L115.912 43.8381L113.894 42.7194V42.7169Z" fill="#9E5943"/>
<path d="M115.869 43.9036L120.694 37.0932C121.024 36.6271 121.71 36.5162 122.203 36.8488C122.672 37.1612 122.8 37.7584 122.493 38.2018L117.618 45.2289L115.869 43.9036Z" fill="#9E5943"/>
<path d="M117.794 45.0577L122.223 39.2022C122.526 38.8016 123.183 38.7487 123.672 39.0863C124.133 39.4038 124.277 39.9556 123.995 40.3386L119.525 46.3881L117.796 45.0577H117.794Z" fill="#9E5943"/>
<path d="M119.485 46.5316L124.048 43.1075C124.36 42.8732 124.872 42.9689 125.174 43.3192C125.461 43.6492 125.459 44.0876 125.167 44.3119L120.533 47.872L119.485 46.5341V46.5316Z" fill="#9E5943"/>
<path d="M114.776 47.2294C114.647 46.6877 114.489 46.335 114.471 46.2947C114.426 46.1989 114.31 46.1561 114.211 46.1989C114.113 46.2443 114.068 46.3577 114.113 46.4559C114.126 46.4836 115.343 49.2249 113.65 51.417C113.584 51.5026 113.599 51.6236 113.685 51.6866C113.77 51.7521 113.894 51.7344 113.959 51.6488C115.176 50.0715 115.03 48.2877 114.776 47.2269V47.2294Z" fill="black"/>
<path d="M21.2167 49.9707L17.8858 46.4105C17.8858 46.4105 16.9032 46.0225 15.9986 45.1911C15.0916 44.3596 11.6826 40.744 11.6826 40.744L18.3847 35.2816C18.3847 35.2816 22.484 40.8498 22.993 42.3717C23.5019 43.8935 25.9535 45.9696 25.9535 45.9696L21.2167 49.9707Z" fill="#9E5943"/>
<path d="M21.9518 43.7222C21.9518 43.7222 23.718 39.3886 23.2443 37.0932C22.8412 35.1355 22.2491 33.7145 22.0425 32.7293C21.9845 32.4597 21.7124 32.2985 21.3924 32.3489C20.7928 32.4421 20.2964 32.9259 20.2486 33.46C20.1805 34.2058 20.1503 35.259 20.372 36.103C20.5937 36.9421 19.0518 39.0358 19.0518 39.0358L21.9493 43.7222H21.9518Z" fill="#9E5943"/>
<path d="M18.6137 35.594L14.3405 29.0607C14.0583 28.6173 13.4057 28.5165 12.8993 28.839C12.4231 29.1439 12.2543 29.7183 12.5163 30.1416L16.6837 36.8563L18.6162 35.594H18.6137Z" fill="#9E5943"/>
<path d="M16.7265 36.9194L11.4254 30.4743C11.0625 30.0334 10.3722 29.9729 9.90102 30.3382C9.45505 30.6859 9.3719 31.2881 9.70953 31.7089L15.0787 38.3681L16.7265 36.9194Z" fill="#9E5943"/>
<path d="M14.8903 38.2092L10.0527 32.6888C9.72269 32.3109 9.06256 32.3058 8.59896 32.6787C8.16055 33.029 8.05725 33.5908 8.36715 33.9486L13.2602 39.6605L14.8878 38.2092H14.8903Z" fill="#9E5943"/>
<path d="M13.3099 39.8017L8.51265 36.7127C8.18511 36.5011 7.68119 36.6346 7.40404 37.005C7.142 37.3552 7.17476 37.7911 7.48215 37.9926L12.36 41.2101L13.3099 39.7992V39.8017Z" fill="#9E5943"/>
<path d="M18.0567 40.1593C18.1474 39.61 18.2784 39.2472 18.2935 39.2044C18.3313 39.1036 18.4422 39.0532 18.5455 39.091C18.6462 39.1288 18.6992 39.2397 18.6614 39.3404C18.6513 39.3682 17.6334 42.1901 19.4802 44.2561C19.5533 44.3368 19.5457 44.4577 19.4626 44.5283C19.382 44.5988 19.2585 44.5912 19.1854 44.5106C17.8576 43.0266 17.8753 41.2352 18.0541 40.1593H18.0567Z" fill="black"/>
<path d="M57.4203 91.065C57.4203 91.065 45.2332 78.2806 43.7995 85.3581C41.5873 96.2679 42.4415 145.432 42.4415 145.432L89.0057 141.681C89.0057 141.681 89.1796 116.077 89.3257 112.444C89.7767 101.022 94.2994 94.1993 90.2403 89.2962C86.1813 84.3931 77.1965 92.2366 77.1965 92.2366L57.4203 91.0675V91.065Z" fill="#31B252"/>
<path d="M64.2586 82.2994C58.0503 82.0424 54.9009 86.0535 54.4146 88.1524C53.1195 93.7584 72.2129 93.1361 72.2129 93.1361C72.2129 93.1361 82.2332 94.9048 80.729 88.8301C79.2601 82.894 70.9052 82.5765 64.256 82.2994H64.2586Z" fill="#31B252"/>
<path d="M72.1393 68.2907C71.8243 66.144 72.7868 64.2241 74.291 64.0024C75.7952 63.7832 77.2691 65.3453 77.5841 67.492C77.899 69.6387 76.9366 71.5586 75.4324 71.7803C73.9282 71.9995 72.4542 70.4374 72.1393 68.2907Z" fill="white"/>
<path d="M54.8902 69.0945C53.381 68.8475 52.4261 67.0032 52.7561 64.975C53.0887 62.9467 54.5803 61.503 56.0921 61.7499C57.6013 61.9968 58.5562 63.8412 58.2261 65.8694C57.8936 67.8977 56.402 69.3414 54.8902 69.0945Z" fill="white"/>
<path d="M56.4073 76.565C54.8981 76.3181 53.9432 74.4738 54.2732 72.4455C54.6058 70.4173 56.0974 68.9735 57.6091 69.2205C59.1184 69.4674 58.1635 70.6642 57.8309 72.6924C57.4983 74.7207 57.9165 76.8119 56.4073 76.565Z" fill="white"/>
<path d="M56.3717 63.5612C55.9132 60.4294 58.2942 57.489 61.6905 56.9902C65.0869 56.4913 68.2137 58.6254 68.6723 61.7572C69.1309 64.889 66.7499 67.8294 63.3535 68.3283C59.9571 68.8271 56.8303 66.693 56.3717 63.5612Z" fill="white"/>
<path d="M53.3484 76.5876C52.5245 75.1111 52.7891 73.3927 53.9405 72.7502C55.092 72.1077 56.6944 72.7805 57.5183 74.257C58.3422 75.7334 58.0777 77.4518 56.9262 78.0943C55.7748 78.7367 54.1723 78.064 53.3484 76.5876Z" fill="#9E5943"/>
<path d="M57.2662 76.0687C57.2032 76.0813 57.1327 76.0737 57.0747 76.036L54.341 74.373C54.215 74.2974 54.1747 74.1337 54.2528 74.0077C54.3284 73.8842 54.4922 73.8439 54.6156 73.9195L57.3493 75.5824C57.4753 75.658 57.5156 75.8218 57.4375 75.9478C57.3972 76.0133 57.3342 76.0536 57.2662 76.0687Z" fill="black"/>
<path d="M55.6289 76.9403C55.5584 76.9554 55.4802 76.9403 55.4173 76.895C55.2988 76.8093 55.2736 76.643 55.3593 76.5246L56.1404 75.4563C56.226 75.3379 56.3923 75.3127 56.5108 75.3983C56.6292 75.484 56.6544 75.6503 56.5687 75.7687L55.7876 76.837C55.7473 76.8924 55.6894 76.9277 55.6289 76.9403Z" fill="black"/>
<path d="M80.6963 73.0879C80.908 71.4099 80.0211 69.9158 78.7109 69.752C77.4032 69.5857 76.1686 70.8102 75.957 72.4883C75.7454 74.1663 76.6322 75.6604 77.9424 75.8242C79.2501 75.9905 80.4847 74.766 80.6963 73.0879Z" fill="#9E5943"/>
<path d="M76.8766 74.0705C76.8035 74.0856 76.7254 74.0705 76.6624 74.0252C76.5465 73.937 76.5213 73.7707 76.6095 73.6548L78.5219 71.0899C78.61 70.974 78.7763 70.9488 78.8922 71.0344C79.0081 71.1226 79.0333 71.2889 78.9451 71.4048L77.0328 73.9697C76.9925 74.0226 76.937 74.0579 76.8766 74.0705Z" fill="black"/>
<path d="M78.7237 74.267C78.6582 74.2796 78.5901 74.2695 78.5297 74.2317L77.4059 73.5338C77.2825 73.4557 77.2422 73.2945 77.3203 73.1685C77.3959 73.045 77.5596 73.0047 77.6856 73.0828L78.8094 73.7807C78.9328 73.8588 78.9731 74.0201 78.895 74.1461C78.8547 74.2091 78.7942 74.2519 78.7262 74.2645L78.7237 74.267Z" fill="black"/>
<path d="M63.9385 89.0395L63.4824 81.2313L70.9656 81.5714L71.6736 90.0372L67.4709 92.33C67.4709 92.33 66.1129 91.0652 63.941 89.042L63.9385 89.0395Z" fill="#9E5943"/>
<path d="M71.0406 83.4533L71.0456 81.7199L63.5625 81.3797L63.8271 85.4942C66.2761 86.1417 68.6924 84.7509 71.0381 83.4533H71.0406Z" fill="black"/>
<path d="M67.9952 83.3611C73.7635 82.6129 77.808 77.1368 77.0289 71.1298C76.2498 65.1229 70.9421 60.8597 65.1738 61.6079C59.4056 62.356 55.3611 67.8321 56.1402 73.8391C56.9193 79.8461 62.227 84.1092 67.9952 83.3611Z" fill="#9E5943"/>
<path d="M64.9435 71.3947C64.8629 71.3871 64.7848 71.3443 64.7394 71.2687C64.6966 71.1982 63.7265 69.7015 61.2372 70.5431C61.0986 70.591 60.95 70.5154 60.9021 70.3768C60.8542 70.2382 60.9298 70.087 61.0684 70.0417C63.9835 69.054 65.1803 70.9739 65.1929 70.9941C65.2685 71.1201 65.2282 71.2813 65.1022 71.3569C65.0518 71.3871 64.9964 71.3997 64.9435 71.3947Z" fill="black"/>
<path d="M72.8953 69.994C72.8399 70.0066 72.7794 70.0041 72.7214 69.9763C72.6358 69.936 70.5722 69.0164 69.1688 70.8305C69.0807 70.9464 68.9144 70.9691 68.7959 70.8783C68.68 70.7876 68.6599 70.6214 68.7481 70.508C70.416 68.3512 72.9205 69.485 72.9432 69.4951C73.0767 69.5556 73.1321 69.7143 73.0717 69.8453C73.0364 69.9209 72.9684 69.9738 72.8928 69.9915L72.8953 69.994Z" fill="black"/>
<path d="M63.9355 72.9492C63.9884 73.6421 63.4694 74.2442 62.7765 74.2972C62.0836 74.3501 61.4814 73.831 61.4285 73.1382C61.3756 72.4453 61.8946 71.8431 62.5875 71.7902C63.2804 71.7373 63.8826 72.2563 63.9355 72.9492Z" fill="black"/>
<path d="M72.2177 72.5564C72.2706 73.2492 71.7516 73.8514 71.0587 73.9043C70.3658 73.9572 69.7637 73.4382 69.7107 72.7453C69.6578 72.0524 70.1769 71.4503 70.8697 71.3974C71.5626 71.3444 72.1648 71.8635 72.2177 72.5564Z" fill="black"/>
<path d="M64.7269 79.7874C65.2913 80.5987 66.2034 81.0926 67.2818 81.0321C68.7784 80.9489 70.6454 79.407 70.3783 77.7667C69.2621 77.8625 68.1435 77.9305 67.0248 77.9758C66.153 78.0111 65.125 77.8297 64.2734 78.0187C64.1726 78.316 64.2129 78.6486 64.3112 78.9459C64.412 79.2508 64.5556 79.5355 64.7294 79.7874H64.7269Z" fill="black"/>
<path d="M65.7552 74.5141C65.7778 75.0936 66.1533 75.5472 66.6849 75.7513C67.2165 75.9553 67.8792 75.8369 68.2747 75.4162C68.5242 75.1491 68.6703 74.7913 68.6602 74.4234C68.6552 74.2521 68.5191 74.1085 68.3453 74.1085C68.1714 74.1085 68.0253 74.2521 68.0303 74.4234C68.0303 74.4612 68.0303 74.5015 68.0303 74.5393C68.0303 74.562 68.0303 74.562 68.0303 74.5393C68.0278 74.562 68.0228 74.5822 68.0177 74.6048C68.0102 74.6376 68.0026 74.6678 67.9925 74.7006C67.9925 74.7006 67.9547 74.7938 67.9749 74.7485C67.9094 74.8921 67.864 74.9475 67.7456 75.0533C67.6751 75.1163 67.5692 75.1617 67.4659 75.1919C67.4282 75.202 67.3904 75.2095 67.3526 75.2171C67.408 75.207 67.3425 75.2171 67.3223 75.2171C67.2593 75.2221 67.1989 75.2171 67.1384 75.2171C67.1233 75.2171 67.1107 75.2171 67.0956 75.2146C67.1334 75.2196 67.1334 75.2196 67.0956 75.2146C67.0679 75.2095 67.0401 75.2045 67.0124 75.1969C66.9847 75.1894 66.9595 75.1818 66.9318 75.1743C66.9217 75.1717 66.8335 75.139 66.8638 75.1516C66.894 75.1642 66.8109 75.1264 66.8008 75.1214C66.7756 75.1088 66.7529 75.0962 66.7302 75.081C66.7076 75.0659 66.6849 75.0508 66.6622 75.0357C66.632 75.0155 66.632 75.0155 66.6622 75.0357C66.6521 75.0281 66.642 75.0181 66.632 75.0105C66.5891 74.9702 66.5488 74.9299 66.511 74.8845C66.5539 74.9374 66.506 74.8744 66.4959 74.8618C66.4783 74.8341 66.4657 74.8064 66.448 74.7787C66.4405 74.7661 66.4354 74.7535 66.4304 74.7409C66.443 74.7737 66.443 74.7737 66.4304 74.7409C66.4228 74.7132 66.4128 74.688 66.4052 74.6603C66.3976 74.6326 66.3926 74.6048 66.3876 74.5771C66.4002 74.6477 66.3876 74.5293 66.3851 74.5167C66.38 74.3478 66.244 74.2017 66.0701 74.2017C65.8963 74.2017 65.7476 74.3453 65.7552 74.5167V74.5141Z" fill="black"/>
<path d="M69.6123 67.4768C68.4709 66.159 68.9421 63.8814 70.663 62.3898C72.3838 60.8957 74.7069 60.7546 75.8482 62.0698C76.9896 63.3875 76.5184 65.6652 74.7976 67.1568C73.0767 68.6509 70.7537 68.792 69.6123 67.4768Z" fill="white"/>
<path d="M67.1759 63.1683C66.231 61.7045 67.0197 59.515 68.9345 58.2804C70.8494 57.0458 73.1674 57.2322 74.1123 58.6986C75.0571 60.1625 74.2685 62.352 72.3536 63.5866C70.4387 64.8212 68.1207 64.6347 67.1759 63.1683Z" fill="white"/>
<path d="M52.4993 69.9132C52.1642 67.6229 56.1578 64.9294 58.1507 64.4205C60.2773 63.8788 61.9629 63.1405 59.9245 65.5744C58.4203 67.3709 57.5183 69.7922 56.5206 74.0201C56.0494 76.0206 52.8344 72.2035 52.4993 69.9106V69.9132Z" fill="white"/>
<path d="M78.1712 66.1843C77.8739 63.8864 74.4145 62.2336 72.8876 62.2185C71.2549 62.2008 69.8893 61.8859 71.8999 63.7579C73.384 65.1387 74.5909 67.2652 76.284 71.1176C77.0852 72.9418 78.4685 68.4821 78.1712 66.1868V66.1843Z" fill="white"/>
<path d="M59.7 67.1141C58.4452 65.1664 59.4984 62.2538 62.0533 60.6085C64.6081 58.9633 67.6946 59.2051 68.9494 61.1528C70.2041 63.1004 69.1509 66.013 66.5961 67.6583C64.0412 69.3036 60.9547 69.0617 59.7 67.1141Z" fill="white"/>
<path d="M54.8525 69.0289C53.9959 67.7011 54.6409 65.7635 56.2937 64.7003C57.944 63.637 59.9773 63.8487 60.8315 65.1765C61.6856 66.5043 61.0431 68.4418 59.3903 69.5051C57.7399 70.5684 55.7066 70.3567 54.8525 69.0289Z" fill="white"/>
<path d="M65.0525 94.6024L65.0349 94.5974C64.9517 94.5722 56.3575 92.8866 54.5459 88.0742L54.7928 87.9986C55.715 90.4451 58.4084 91.7251 60.4896 92.8085C62.6463 93.9297 64.8888 94.3026 65.0903 94.3631C70.8702 94.5092 74.8638 93.2872 77.1969 92.234C79.7265 91.0927 80.9007 89.9034 80.9133 89.8908L81.1098 90.0546C81.0619 90.105 79.8979 91.2842 77.3304 92.4457C74.9671 93.514 70.9231 94.7536 65.0702 94.605H65.0525V94.6024Z" fill="black"/>
<path d="M65.0399 94.7084C65.0399 94.7084 65.0273 94.7084 65.0223 94.7059L65.0046 94.7008C65.0046 94.7008 64.9895 94.6983 64.9694 94.6933C64.216 94.532 62.2331 94.0533 60.1368 93.1185C57.1007 91.7655 55.1833 90.0799 54.4426 88.1146C54.4325 88.0869 54.4325 88.0567 54.4476 88.029C54.4627 88.0013 54.4854 87.9811 54.5131 87.9735L54.76 87.898C54.8129 87.8803 54.8709 87.9106 54.8911 87.9635C55.7477 90.2386 58.2144 91.5136 60.1973 92.539C60.3132 92.5995 60.4266 92.6574 60.5374 92.7154C62.3843 93.6753 64.2916 94.081 64.9164 94.2145C65.0097 94.2347 65.0701 94.2473 65.1054 94.2574C70.8601 94.401 74.831 93.184 77.1515 92.1384C79.6484 91.0122 80.8225 89.8305 80.8351 89.8179C80.8754 89.7776 80.9384 89.775 80.9813 89.8103L81.1778 89.9741C81.2005 89.9942 81.2156 90.022 81.2156 90.0497C81.2156 90.0774 81.2055 90.1076 81.1853 90.1303C81.1375 90.1807 79.9633 91.3725 77.3732 92.5441C74.9998 93.6174 70.9382 94.8621 65.0651 94.7134H65.0475C65.0475 94.7134 65.0424 94.7134 65.0399 94.7134V94.7084ZM54.687 88.1424C55.4353 90.0094 57.2972 91.6143 60.225 92.9195C62.3036 93.8467 64.2664 94.3204 65.0147 94.4816C65.0424 94.4866 65.0575 94.4917 65.0626 94.4917H65.0676H65.0727C70.9055 94.6403 74.9343 93.4058 77.285 92.3425C79.4871 91.3473 80.6411 90.3445 80.9485 90.0547L80.9183 90.0295C80.626 90.3016 79.4368 91.3372 77.2422 92.3274C74.9015 93.3831 70.8929 94.6101 65.0903 94.4665C65.0802 94.4665 65.0727 94.4665 65.0626 94.4615C65.0374 94.4539 64.9668 94.4388 64.8761 94.4186C64.2437 94.2826 62.3162 93.8719 60.4417 92.8993C60.3308 92.8414 60.2174 92.7834 60.1015 92.7229C58.1136 91.695 55.6469 90.4201 54.7298 88.1272L54.687 88.1398V88.1424Z" fill="black"/>
<path d="M52.3986 87.0109C52.3986 87.0109 34.7112 47.8996 26.5251 45.8738L25.0436 42.8327L17.7368 47.0127L19.2838 48.6353C19.2838 48.6353 17.1875 52.7598 21.9521 62.9238C23.7611 66.7838 42.4211 107.959 42.4211 107.959L52.4011 87.0084L52.3986 87.0109Z" fill="#31B252"/>
<path d="M79.4814 91.9417C79.4814 91.9417 97.9651 54.7956 106.242 53.1806L107.786 51.0364L115.121 55.0703L113.445 56.6274C113.445 56.6274 115.335 60.8502 110.074 70.7672C108.076 74.534 88.0329 112.393 88.0329 112.393L79.4814 91.9443V91.9417Z" fill="#31B252"/>
<path d="M64.2154 100.732H64.2104C64.0516 100.722 63.9332 100.586 63.9408 100.43L64.3741 92.9672C64.3842 92.8084 64.5253 92.6799 64.6765 92.6976C64.8352 92.7077 64.9536 92.8412 64.9461 92.9999L64.5127 100.46C64.5026 100.617 64.3716 100.735 64.2154 100.73V100.732Z" fill="black"/>
<path d="M89.0938 109.949H89.0887C88.9527 110.03 88.7763 109.984 88.6982 109.848L84.9566 103.378C84.8785 103.242 84.9239 103.056 85.0599 102.988C85.196 102.909 85.3724 102.955 85.4505 103.091L89.192 109.561C89.2701 109.697 89.2248 109.869 89.0912 109.949H89.0938Z" fill="black"/>
<path d="M67.6143 103.733C67.4556 103.728 67.3321 103.595 67.3397 103.436L67.7277 93.6023C67.7327 93.4435 67.8663 93.3201 68.025 93.3276C68.1837 93.3352 68.3072 93.4662 68.2996 93.6249L67.9116 103.459C67.9066 103.618 67.7731 103.741 67.6143 103.733Z" fill="black"/>
<path d="M42.5673 108.331C42.4287 108.258 42.3758 108.085 42.4489 107.943L47.0672 99.2509C47.1403 99.1124 47.3142 99.0594 47.4553 99.1325C47.5964 99.2056 47.6467 99.3794 47.5737 99.5205L42.9553 108.213C42.8822 108.352 42.7084 108.405 42.5673 108.331Z" fill="black"/>
<path d="M67.6521 92.4053C67.5866 92.4028 67.5211 92.3776 67.4682 92.3297L61.192 86.4792C61.076 86.3709 61.071 86.1895 61.1768 86.0736C61.2852 85.9577 61.4666 85.9501 61.5825 86.0585L67.8587 91.9089C67.9746 92.0173 67.9797 92.1987 67.8739 92.3146C67.8159 92.3776 67.7328 92.4078 67.6521 92.4053Z" fill="black"/>
<path d="M65.6086 93.8036C65.5179 93.8011 65.4298 93.7532 65.3768 93.6701C65.2937 93.5366 65.3315 93.3602 65.4676 93.2745L74.7597 87.414C74.8933 87.3308 75.0697 87.3686 75.1553 87.5047C75.2385 87.6382 75.2007 87.8146 75.0646 87.9003L65.7724 93.7608C65.722 93.7936 65.6641 93.8061 65.6086 93.8036Z" fill="black"/>
<path d="M113.436 96.278C116.318 103.733 112.612 112.116 105.154 114.998C97.6983 117.881 89.3157 114.175 86.4333 106.717C83.5509 99.2612 87.2572 90.8786 94.7152 87.9962C102.171 85.1138 110.553 88.8201 113.436 96.278Z" fill="#C39B43"/>
<path d="M106.905 88.815C103.292 86.8321 98.8626 86.3962 94.7153 87.9987C87.2599 90.8811 83.5511 99.2637 86.4335 106.719C87.0382 108.286 87.8898 109.685 88.9203 110.894C94.7859 103.431 100.77 96.0613 106.903 88.8175L106.905 88.815Z" fill="#D8AF4D"/>
<path d="M106.681 114.303C109.641 112.748 111.876 110.272 113.164 107.372C111.448 109.201 109.739 111.038 108.029 112.869C107.58 113.348 107.129 113.824 106.681 114.301V114.303Z" fill="#D8AF4D"/>
<path d="M110.357 97.7141C112.519 103.308 109.739 109.591 104.146 111.753C98.5525 113.915 92.2687 111.136 90.1069 105.542C87.9451 99.949 90.7242 93.6652 96.3177 91.5034C101.911 89.3416 108.195 92.1207 110.357 97.7141Z" fill="#A98E41"/>
<path d="M102.367 94.1793L99.0666 95.4542C99.8426 95.7389 100.546 96.3033 101.057 97.2734L103.236 96.4293L103.662 97.5329L101.503 98.3669C102.173 100.697 101.11 102.758 98.5828 103.837C100.835 105.024 103.405 106.618 105.965 108.244L104.045 108.987C101.682 107.513 99.4798 106.157 96.7461 104.676L96.2169 103.308L97.318 102.882C99.4773 102.048 100.253 100.604 99.8048 99.027L95.2444 100.791L94.8186 99.6871L99.3185 97.9486C98.5425 96.777 97.2348 96.5452 95.4963 97.2179L94.0753 97.7672L93.521 96.331L101.941 93.0757L102.367 94.1793Z" fill="#DEA041"/>
<path d="M101.977 94.0078L98.676 95.2827C99.452 95.5674 100.155 96.1318 100.666 97.1018L102.846 96.2603L103.272 97.3638L101.112 98.1978C101.783 100.528 100.719 102.589 98.1922 103.668C100.445 104.855 103.015 106.449 105.575 108.075L103.655 108.818C101.291 107.344 99.0892 105.988 96.3554 104.507L95.8263 103.139L96.9274 102.713C99.0866 101.879 99.8627 100.435 99.4142 98.8579L94.8538 100.622L94.428 99.5181L98.9279 97.7796C98.1519 96.608 96.8442 96.3762 95.1057 97.0489L93.6847 97.5982L93.1304 96.162L101.551 92.9067L101.977 94.0103V94.0078Z" fill="#FFD325"/>
<path d="M70.8497 35.269C72.4547 39.4187 70.3911 44.085 66.2389 45.69C62.0866 47.2949 57.4229 45.2314 55.8179 41.0791C54.2129 36.9269 56.2765 32.2631 60.4287 30.6582C64.581 29.0532 69.2447 31.1167 70.8497 35.269Z" fill="#FFD325"/>
<path d="M67.2139 31.1144C65.2033 30.0108 62.7366 29.7664 60.4287 30.6584C56.2765 32.2633 54.2129 36.9296 55.8179 41.0793C56.1555 41.9511 56.6292 42.7296 57.2037 43.4024C60.469 39.2476 63.7999 35.1457 67.2139 31.1119V31.1144Z" fill="#D8AF4D"/>
<path d="M67.0908 45.302C68.7386 44.4378 69.9833 43.0571 70.7014 41.4445C69.7465 42.4625 68.7966 43.4854 67.8442 44.5058C67.5947 44.7729 67.3428 45.0375 67.0933 45.302H67.0908Z" fill="#FFD325"/>
<path d="M69.1361 36.0677C70.3405 39.1818 68.7909 42.679 65.6793 43.8834C62.5651 45.0877 59.0654 43.5382 57.8635 40.4265C56.6592 37.3123 58.2087 33.8152 61.3204 32.6108C64.4346 31.4064 67.9318 32.956 69.1361 36.0677Z" fill="#A98E41"/>
<path d="M64.687 34.1L62.8502 34.8106C63.2836 34.9693 63.6741 35.2842 63.9588 35.8234L65.1733 35.3548L65.4101 35.9696L64.2083 36.4357C64.5812 37.7333 63.9891 38.8797 62.5832 39.4818C63.8354 40.142 65.269 41.0289 66.6926 41.9359L65.6243 42.3491C64.3091 41.5303 63.082 40.7744 61.5602 39.948L61.2654 39.1845L61.8777 38.9477C63.0795 38.4816 63.5129 37.6803 63.2609 36.801L60.7237 37.7836L60.4869 37.1689L62.9913 36.2014C62.5605 35.5488 61.8323 35.4203 60.8623 35.7957L60.0711 36.1006L59.7612 35.3019L64.4476 33.4903L64.6845 34.1051L64.687 34.1Z" fill="#DEA041"/>
<path d="M64.4702 34.0042L62.6334 34.7147C63.0668 34.8735 63.4573 35.1884 63.742 35.7276L64.9565 35.259L65.1933 35.8737L63.9915 36.3399C64.3644 37.6374 63.7723 38.7838 62.3664 39.386C63.6186 40.0461 65.0497 40.933 66.4758 41.8401L65.4075 42.2533C64.0923 41.4344 62.8652 40.6786 61.3434 39.8521L61.0486 39.0887L61.6609 38.8519C62.8627 38.3857 63.2961 37.5845 63.0441 36.7052L60.5069 37.6878L60.2701 37.0731L62.7745 36.1055C62.3437 35.453 61.6155 35.3245 60.6455 35.6999L59.8543 36.0048L59.5444 35.206L64.2308 33.3945L64.4677 34.0092L64.4702 34.0042Z" fill="#FFD325"/>
<path d="M49.484 7.75774C51.9003 14.0063 48.7936 21.0283 42.5451 23.4421C36.2965 25.8584 29.2745 22.7517 26.8607 16.5032C24.4445 10.2546 27.5511 3.23258 33.7996 0.818827C40.0482 -1.59745 47.0702 1.50919 49.484 7.75774Z" fill="#FFD325"/>
<path d="M44.0115 1.50432C40.983 -0.158597 37.2716 -0.523935 33.7996 0.818998C27.5511 3.23527 24.4445 10.2573 26.8607 16.5034C27.3672 17.8161 28.0802 18.9877 28.9444 20.0005C33.8601 13.7469 38.8715 7.57398 44.0115 1.5018V1.50432Z" fill="#D8AF4D"/>
<path d="M43.8223 22.8602C46.3015 21.5576 48.1761 19.484 49.2545 17.0526C47.8158 18.5845 46.3872 20.1239 44.9536 21.6584C44.5781 22.059 44.2002 22.4571 43.8223 22.8577V22.8602Z" fill="#FFD325"/>
<path d="M46.904 8.96212C48.7155 13.6485 46.3849 18.9144 41.701 20.726C37.0146 22.5376 31.7487 20.207 29.9371 15.5231C28.1256 10.8367 30.4562 5.57077 35.1401 3.75919C39.8265 1.94762 45.0924 4.27823 46.904 8.96212Z" fill="#A98E41"/>
<path d="M40.2093 6.00144L37.4453 7.06974C38.0954 7.30658 38.685 7.78278 39.1133 8.59408L40.94 7.8886L41.2978 8.81328L39.4887 9.51372C40.0506 11.4664 39.1586 13.1923 37.0422 14.0968C38.9294 15.0895 41.0836 16.4274 43.2278 17.788L41.6203 18.4103C39.6399 17.1758 37.7956 16.0394 35.5053 14.7973L35.0618 13.6509L35.984 13.2956C37.793 12.5952 38.4431 11.3883 38.0677 10.0655L34.248 11.542L33.8902 10.6173L37.6595 9.15846C37.0094 8.17583 35.9134 7.98182 34.4571 8.54621L33.2679 9.00729L32.8018 7.80545L39.8566 5.07675L40.2143 6.00144H40.2093Z" fill="#DEA041"/>
<path d="M39.8822 5.85544L37.1182 6.92374C37.7682 7.16058 38.3578 7.63678 38.7861 8.44808L40.6128 7.7426L40.9706 8.66729L39.1616 9.36773C39.7234 11.3204 38.8315 13.0463 36.7151 13.9508C38.6022 14.9435 40.7565 16.2814 42.9006 17.642L41.2931 18.2643C39.3127 17.0298 37.4684 15.8934 35.1781 14.6513L34.7347 13.5049L35.6568 13.1496C37.4659 12.4492 38.1159 11.2423 37.7405 9.91951L33.9208 11.396L33.5631 10.4713L37.3324 9.01247C36.6823 8.02983 35.5863 7.83583 34.13 8.40021L32.9407 8.86129L32.4746 7.65946L39.5294 4.93076L39.8872 5.85544H39.8822Z" fill="#FFD325"/>
<path d="M91.3808 21.1167L87.7051 23.1017L100.654 47.0804L104.33 45.0954L91.3808 21.1167Z" fill="#E4AD43"/>
<path d="M105.058 29.2046C108.633 35.826 108.306 42.9363 104.325 45.0855C100.344 47.2347 94.7506 43.3218 91.1753 36.7029C87.6001 30.0814 87.3935 23.2609 91.3744 21.1092C95.3553 18.96 101.48 22.5832 105.058 29.2046Z" fill="#A98E41"/>
<path d="M101.644 31.0489C105.219 37.6704 104.897 44.7781 100.918 46.9273C96.9426 49.0765 90.82 45.4483 87.2422 38.8268C83.6669 32.2054 83.9895 25.0977 87.9679 22.9485C91.9438 20.7993 98.0663 24.4275 101.644 31.0464V31.0489Z" fill="#C39B43"/>
<path d="M95.6322 41.699C95.6271 40.2326 95.6775 38.7007 95.4231 37.2948C94.5084 32.2808 90.6485 28.2873 85.0777 27.0653C84.284 30.2651 84.9844 34.6416 87.2445 38.8267C89.4088 42.8328 92.5054 45.7404 95.4936 46.9372C95.6019 45.181 95.6397 43.435 95.6322 41.699Z" fill="#D8AF4D"/>
<path d="M99.8325 32.0265C102.516 36.9925 102.355 42.2786 99.4772 43.8332C96.5974 45.3878 92.0898 42.6238 89.4065 37.6577C86.7231 32.6916 86.8844 27.4056 89.7643 25.851C92.6441 24.2964 97.1517 27.0604 99.8325 32.0265Z" fill="#A98E41"/>
<path d="M94.0269 29.5696L92.5303 30.464C93.0367 30.6429 93.5759 31.0234 94.1176 31.6961L95.1053 31.1367L95.6344 31.948L94.6543 32.4822C95.6445 34.2333 95.5991 35.7148 94.4805 36.2792C96.0451 37.4483 97.897 39.1112 99.7489 40.9631L98.8796 41.2705C97.1764 39.5924 95.5941 38.1638 93.6818 36.7025L93.0241 35.6669L93.523 35.4629C94.5031 35.037 94.551 34.0393 93.8833 32.8878L91.8173 33.878L91.2882 33.1398L93.329 32.1244C92.5883 31.3282 91.7996 31.1745 91.011 31.5928L90.3685 31.9203L89.6807 31.0687L93.4978 28.849L94.0269 29.5746V29.5696Z" fill="#DEA041"/>
<path d="M93.7652 29.4614L92.2686 30.3559C92.775 30.5322 93.3142 30.9051 93.8559 31.5678L94.8436 31.0084L95.3727 31.8097L94.3926 32.3463C95.3828 34.0773 95.3374 35.5462 94.2187 36.1106C95.7834 37.262 97.6353 38.9048 99.4872 40.7365L98.6179 41.0439C96.9147 39.386 95.3324 37.9751 93.42 36.5339L92.7624 35.5084L93.2613 35.3018C94.2414 34.876 94.2893 33.8858 93.6216 32.7469L91.5555 33.7397L91.0264 33.0115L93.0673 31.9936C92.3265 31.2075 91.5379 31.0614 90.7493 31.4821L90.1068 31.8122L89.4189 30.9732L93.2361 28.7484L93.7652 29.4639V29.4614Z" fill="#FFD325"/>
<path d="M40.6452 86.4039C37.2463 95.0007 27.5232 99.216 18.9264 95.8196C10.3296 92.4207 6.11438 82.6977 9.51076 74.1009C12.9097 65.5041 22.6327 61.2888 31.2295 64.6852C39.8263 68.0841 44.0415 77.8072 40.6452 86.4039Z" fill="#C39B43"/>
<path d="M40.95 74.9371C39.4332 70.417 36.0116 66.5722 31.232 64.6825C22.6352 61.2836 12.9096 65.4988 9.51325 74.0981C8.80021 75.9047 8.4248 77.7616 8.35425 79.5958C19.1935 77.8548 30.0579 76.2826 40.9525 74.9371H40.95Z" fill="#D8AF4D"/>
<path d="M20.7681 96.4217C24.5021 97.422 28.3444 97.0718 31.7131 95.618C28.8206 95.8246 25.9282 96.0488 23.0382 96.263C22.2823 96.3184 21.5239 96.3688 20.7681 96.4217Z" fill="#D8AF4D"/>
<path d="M36.9037 85.2095C34.3564 91.6571 27.0623 94.8191 20.6147 92.2718C14.1671 89.7245 11.005 82.4304 13.5523 75.9828C16.0996 69.5352 23.3938 66.3731 29.8414 68.9204C36.2889 71.4677 39.451 78.7619 36.9037 85.2095Z" fill="#A98E41"/>
<path d="M32.8845 75.9376L29.08 74.4334C29.5184 75.2825 29.6696 76.3155 29.3445 77.54L31.8591 78.5327L31.3552 79.8051L28.8658 78.82C27.6086 81.3269 25.0865 82.2441 22.0957 81.1783C23.0784 83.9523 24.0131 87.3235 24.9126 90.7124L22.6979 89.8381C21.8463 86.7339 21.0375 83.8515 19.876 80.4501L20.5008 78.8703L21.7682 79.3717C24.2575 80.3569 26.0489 79.7396 26.9056 78.0464L21.6472 75.9678L22.1512 74.6954L27.339 76.7463C27.601 75.1414 26.6688 73.9194 24.6632 73.1282L23.0254 72.4807L23.6805 70.8253L33.3885 74.6627L32.8845 75.935V75.9376Z" fill="#DEA041"/>
<path d="M32.6883 75.4864L28.8837 73.9822C29.3221 74.8313 29.4733 75.8644 29.1483 77.0889L31.6628 78.0816L31.1589 79.354L28.6695 78.3688C27.4123 80.8758 24.8902 81.7929 21.8994 80.7271C22.8821 83.5012 23.8168 86.8724 24.7163 90.2612L22.5016 89.3869C21.65 86.2828 20.8412 83.4004 19.6797 79.999L20.3045 78.4192L21.5719 78.9206C24.0612 79.9058 25.8526 79.2885 26.7093 77.5953L21.4509 75.5167L21.9549 74.2443L27.1427 76.2952C27.4047 74.6902 26.4725 73.4682 24.4669 72.6771L22.8292 72.0296L23.4842 70.3742L33.1922 74.2115L32.6883 75.4839V75.4864Z" fill="#FFD325"/>
</g>
</svg>
