<svg width="40" height="11" viewBox="0 0 40 11" fill="none" xmlns="http://www.w3.org/2000/svg">
<path fill-rule="evenodd" clip-rule="evenodd" d="M34.2712 10.6397L40.0001 5.43285L37.2864 0.0462646L34.2712 10.6397Z" fill="#097939"/>
<path fill-rule="evenodd" clip-rule="evenodd" d="M32.3413 10.6397L38.0701 5.43285L35.3565 0.0462646L32.3413 10.6397Z" fill="#ED752E"/>
<path fill-rule="evenodd" clip-rule="evenodd" d="M4.96356 0.108063L2.55156 8.66658L11.1144 8.72636L13.4664 0.108063H15.6372L12.8172 10.1272C12.7092 10.5098 12.298 10.8207 11.8992 10.8207H0.923553C0.257951 10.8207 -0.13645 10.3026 0.0435504 9.66491L2.73316 0.108063H4.96356ZM31.4364 0.0482831H33.6072L30.592 10.8207H28.36L31.4364 0.0482831ZM15.8788 4.53657L26.7332 4.47679L27.4572 2.20236H16.4212L17.0844 0.107665L28.8444 6.0329e-05C29.5764 -0.00671475 30.0124 0.558008 29.8196 1.26222L28.7116 5.29698C28.5184 6.00079 27.7676 6.57109 27.0356 6.57109H17.326L16.1812 11H14.0692L15.8788 4.53657Z" fill="#161742"/>
</svg>
