<svg width="72" height="20" viewBox="0 0 72 20" fill="none" xmlns="http://www.w3.org/2000/svg">
<path fill-rule="evenodd" clip-rule="evenodd" d="M61.6885 19.3448L72.0004 9.87778L67.1159 0.0839844L61.6885 19.3448Z" fill="#097939"/>
<path fill-rule="evenodd" clip-rule="evenodd" d="M58.2148 19.3448L68.5267 9.87778L63.6422 0.0839844L58.2148 19.3448Z" fill="#ED752E"/>
<path fill-rule="evenodd" clip-rule="evenodd" d="M8.93446 0.196478L4.59282 15.7574L20.006 15.8661L24.2396 0.196478H28.1471L23.071 18.4131C22.8766 19.1087 22.1365 19.6739 21.4186 19.6739H1.6624C0.464315 19.6739 -0.245611 18.7319 0.0783911 17.5726L4.91971 0.196478H8.93446ZM56.5859 0.0877874H60.4933L55.0659 19.6739H51.0483L56.5859 0.0877874ZM28.582 8.24832L48.12 8.13963L49.4232 4.00429H29.5583L30.7521 0.195754L51.9202 0.000109689C53.2378 -0.0122086 54.0226 1.01456 53.6756 2.29494L51.6812 9.63087C51.3334 10.9105 49.982 11.9474 48.6644 11.9474H31.1869L29.1263 20H25.3247L28.582 8.24832Z" fill="#747474"/>
</svg>
