<svg width="30" height="30" viewBox="0 0 30 30" fill="none" xmlns="http://www.w3.org/2000/svg">
<mask id="mask0_351_9684" style="mask-type:alpha" maskUnits="userSpaceOnUse" x="0" y="0" width="30" height="30">
<rect width="30" height="30" fill="#D9D9D9"/>
</mask>
<g mask="url(#mask0_351_9684)">
<path d="M8.26937 23.7492C7.69396 23.7492 7.21354 23.5565 6.82812 23.1711C6.44271 22.7857 6.25 22.3053 6.25 21.7298V19.3261C6.25 19.1482 6.30969 18.9995 6.42906 18.8802C6.54844 18.7608 6.69708 18.7011 6.875 18.7011C7.05292 18.7011 7.20156 18.7608 7.32094 18.8802C7.44031 18.9995 7.5 19.1482 7.5 19.3261V21.7298C7.5 21.9223 7.5801 22.0987 7.74031 22.2589C7.90052 22.4191 8.07687 22.4992 8.26937 22.4992H21.7306C21.9231 22.4992 22.0995 22.4191 22.2597 22.2589C22.4199 22.0987 22.5 21.9223 22.5 21.7298V19.3261C22.5 19.1482 22.5597 18.9995 22.6791 18.8802C22.7984 18.7608 22.9471 18.7011 23.125 18.7011C23.3029 18.7011 23.4516 18.7608 23.5709 18.8802C23.6903 18.9995 23.75 19.1482 23.75 19.3261V21.7298C23.75 22.3053 23.5573 22.7857 23.1719 23.1711C22.7865 23.5565 22.306 23.7492 21.7306 23.7492H8.26937ZM14.375 8.65797L11.9109 11.1217C11.7893 11.2436 11.6447 11.3073 11.4772 11.313C11.3097 11.3186 11.1571 11.2524 11.0194 11.1145C10.8863 10.9768 10.8185 10.8294 10.8162 10.6723C10.8137 10.5153 10.8815 10.3678 11.0194 10.2298L14.2931 6.95609C14.4023 6.84693 14.5137 6.77036 14.6275 6.72641C14.7413 6.68224 14.8654 6.66016 15 6.66016C15.1346 6.66016 15.2587 6.68224 15.3725 6.72641C15.4863 6.77036 15.5977 6.84693 15.7069 6.95609L18.9806 10.2298C19.1025 10.3517 19.1663 10.4952 19.1719 10.6602C19.1775 10.8254 19.1138 10.9768 18.9806 11.1145C18.8429 11.2524 18.6944 11.3226 18.535 11.3248C18.3754 11.3273 18.2268 11.2596 18.0891 11.1217L15.625 8.65797V18.8455C15.625 19.0234 15.5653 19.172 15.4459 19.2914C15.3266 19.4108 15.1779 19.4705 15 19.4705C14.8221 19.4705 14.6734 19.4108 14.5541 19.2914C14.4347 19.172 14.375 19.0234 14.375 18.8455V8.65797Z" fill="#1C1B1F"/>
</g>
</svg>
