<svg width="16" height="16" viewBox="0 0 16 16" fill="none" xmlns="http://www.w3.org/2000/svg">
<g clip-path="url(#clip0_1_2914)">
<path d="M10.3066 11.1184C10.3066 10.6489 10.3066 9.21982 11.6627 9.21982H14.375V7.59246C14.375 6.84469 13.7666 6.23633 13.0189 6.23633H1.35613C0.60836 6.23633 0 6.84469 0 7.59246V14.6443C0 15.3921 0.60836 16.0005 1.35613 16.0005H13.0189C13.7666 16.0005 14.375 15.3921 14.375 14.6443V13.017H11.6627C10.3066 13.017 10.3066 11.5879 10.3066 11.1184Z" fill="#3F7ECB"/>
<path d="M10.8495 5.69379V4.04961C10.8495 3.76944 10.7033 3.5153 10.4584 3.36992C10.2045 3.21912 9.89801 3.21397 9.63899 3.35527L4.94922 5.69379H10.8495Z" fill="#3F7ECB"/>
<path d="M12.476 11.6601C12.7756 11.6601 13.0185 11.4172 13.0185 11.1176C13.0185 10.8181 12.7756 10.5752 12.476 10.5752C12.1765 10.5752 11.9336 10.8181 11.9336 11.1176C11.9336 11.4172 12.1765 11.6601 12.476 11.6601Z" fill="#3F7ECB"/>
<path d="M8.4081 3.36274V2.20814C8.4081 1.7956 8.15423 1.5336 7.9169 1.42592C7.62886 1.29519 7.31316 1.34347 7.07231 1.55475L2.34863 5.69366H3.73351L8.4081 3.36274Z" fill="#3F7ECB"/>
<path d="M14.917 9.7627H11.6623C11.1738 9.7627 10.8486 9.99351 10.8486 11.1188C10.8486 12.2441 11.1738 12.475 11.6623 12.475H14.917C15.3656 12.475 15.7307 12.1099 15.7307 11.6613V10.5764C15.7307 10.1278 15.3656 9.7627 14.917 9.7627ZM12.476 12.2037C11.8777 12.2037 11.3911 11.7172 11.3911 11.1188C11.3911 10.5205 11.8777 10.0339 12.476 10.0339C13.0743 10.0339 13.5609 10.5205 13.5609 11.1188C13.5609 11.7172 13.0743 12.2037 12.476 12.2037Z" fill="#3F7ECB"/>
<path d="M15.9424 1.84146L14.6947 0.163109C14.5331 -0.0544147 14.2071 -0.0544147 14.0454 0.16338L12.8054 1.83332C12.682 1.95673 12.7693 2.16747 12.9437 2.16747H13.5561C13.7218 2.98006 13.3568 3.80893 12.6456 4.23557L12.4764 4.33728L13.5613 5.15096L13.609 5.11922C14.5957 4.46123 15.1886 3.35354 15.1886 2.16747H15.8073C15.9776 2.16747 16.0628 1.96188 15.9424 1.84146Z" fill="#3F7ECB"/>
</g>
<defs>
<clipPath id="clip0_1_2914">
<rect width="16" height="16" fill="white"/>
</clipPath>
</defs>
</svg>
