<svg width="360" height="313" viewBox="0 0 360 313" fill="none" xmlns="http://www.w3.org/2000/svg">
<g clip-path="url(#clip0_294_298)">
<mask id="mask0_294_298" style="mask-type:luminance" maskUnits="userSpaceOnUse" x="-6" y="-45" width="373" height="372">
<path d="M366.642 -45H-6V327H366.642V-45Z" fill="white"/>
</mask>
<g mask="url(#mask0_294_298)">
<path d="M166.279 283.249C165.095 277.186 164.021 271.111 163.586 264.951C163.345 261.504 163.296 258.057 163.586 254.609C163.852 251.367 163.646 248.426 167.643 248.305C171.591 248.185 175.588 248.438 179.416 249.378C181.13 249.8 182.652 250.077 184.258 250.873C185.936 251.704 187.542 252.669 189.124 253.645C191.466 255.079 193.072 257.117 194.835 259.214C196.404 261.082 198.119 261.866 200.401 262.577C202.49 263.24 204.688 263.529 206.849 263.951C207.308 264.035 211.848 265.072 211.993 264.481C211.582 266.072 211.171 267.471 211.184 269.146C211.184 270.737 211.401 272.316 211.57 273.895C211.715 275.113 211.232 276.137 210.833 277.306C210.35 278.729 209.867 280.151 209.384 281.561C208.636 283.767 208.225 286.54 206.571 288.227C206.511 288.287 206.426 288.36 206.342 288.408C206.233 288.444 206.1 288.444 205.979 288.432C201.91 288.07 197.672 288.082 193.543 288.07C191.72 288.07 189.92 288.07 188.097 288.131C185.96 288.191 183.823 288.131 181.698 288.119C177.278 288.119 173.052 287.407 168.633 287.564C168.223 287.576 167.776 287.588 167.426 287.347C167.027 287.07 166.906 286.54 166.81 286.069C166.629 285.129 166.436 284.189 166.254 283.249H166.279Z" fill="#EE9185"/>
<path d="M369.275 275.136L375.626 306.5C374.986 306.428 374.346 306.367 373.706 306.295L343.411 302.98C326.35 301.112 309.289 299.244 292.216 297.375C275.094 295.507 257.984 293.627 240.863 291.758C234.439 291.059 228.016 290.36 221.604 289.649C220.554 289.54 219.503 289.42 218.453 289.311C213.49 288.817 208.346 288.986 203.347 288.347C201.234 288.07 198.373 288.106 198.3 285.261C198.071 277.764 196.96 269.664 197.685 262.215C197.685 262.215 200.619 262.986 200.872 263.047C203.311 263.697 205.811 263.722 208.31 263.999C211.063 264.312 213.888 264.529 216.617 264.71C229.018 265.566 242.558 264.71 255.389 264.71C272.619 264.71 289.117 264.71 306.347 264.71C321.744 264.71 351.828 262.974 366.837 263.999C373.309 264.445 369.275 267.572 369.263 275.136H369.275Z" fill="#EE9185"/>
<path d="M177.037 287.696H176.977L169.611 288.166C169.309 288.19 169.056 287.961 169.032 287.66C169.008 287.358 169.237 287.105 169.539 287.081L176.904 286.611C177.206 286.587 177.46 286.816 177.484 287.117C177.496 287.395 177.303 287.636 177.037 287.684V287.696Z" fill="#161742"/>
<g opacity="0.88">
<g opacity="0.54">
<path d="M301.763 70.9717C302.337 70.9717 302.802 70.5076 302.802 69.9351C302.802 69.3625 302.337 68.8984 301.763 68.8984C301.19 68.8984 300.725 69.3625 300.725 69.9351C300.725 70.5076 301.19 70.9717 301.763 70.9717Z" fill="#161742"/>
<path d="M272.724 117.27C273.231 117.27 273.642 116.86 273.642 116.354C273.642 115.848 273.231 115.438 272.724 115.438C272.217 115.438 271.806 115.848 271.806 116.354C271.806 116.86 272.217 117.27 272.724 117.27Z" fill="#161742"/>
<path d="M321.747 100.769C322.32 100.769 322.785 100.304 322.785 99.7319C322.785 99.1594 322.32 98.6953 321.747 98.6953C321.173 98.6953 320.708 99.1594 320.708 99.7319C320.708 100.304 321.173 100.769 321.747 100.769Z" fill="#161742"/>
<path d="M299.058 111.496C299.599 111.496 300.037 111.059 300.037 110.519C300.037 109.98 299.599 109.543 299.058 109.543C298.518 109.543 298.08 109.98 298.08 110.519C298.08 111.059 298.518 111.496 299.058 111.496Z" fill="#161742"/>
<path d="M273.98 73.7454C274.673 73.7454 275.235 73.1842 275.235 72.4919C275.235 71.7995 274.673 71.2383 273.98 71.2383C273.286 71.2383 272.724 71.7995 272.724 72.4919C272.724 73.1842 273.286 73.7454 273.98 73.7454Z" fill="#161742"/>
<path d="M282.855 30.1097C283.441 30.1097 283.917 29.6348 283.917 29.049C283.917 28.4632 283.441 27.9883 282.855 27.9883C282.268 27.9883 281.792 28.4632 281.792 29.049C281.792 29.6348 282.268 30.1097 282.855 30.1097Z" fill="#161742"/>
<path d="M269.307 47.6489C269.7 47.6489 270.019 47.3305 270.019 46.9377C270.019 46.545 269.7 46.2266 269.307 46.2266C268.914 46.2266 268.595 46.545 268.595 46.9377C268.595 47.3305 268.914 47.6489 269.307 47.6489Z" fill="#161742"/>
<path d="M284.062 111.497C284.729 111.497 285.27 110.957 285.27 110.291C285.27 109.626 284.729 109.086 284.062 109.086C283.395 109.086 282.855 109.626 282.855 110.291C282.855 110.957 283.395 111.497 284.062 111.497Z" fill="#161742"/>
<path d="M265.516 99.8044C266.096 99.8044 266.566 99.3349 266.566 98.7557C266.566 98.1765 266.096 97.707 265.516 97.707C264.935 97.707 264.465 98.1765 264.465 98.7557C264.465 99.3349 264.935 99.8044 265.516 99.8044Z" fill="#161742"/>
</g>
<g opacity="0.54">
<path d="M229.92 70.9717C230.494 70.9717 230.959 70.5076 230.959 69.9351C230.959 69.3625 230.494 68.8984 229.92 68.8984C229.347 68.8984 228.882 69.3625 228.882 69.9351C228.882 70.5076 229.347 70.9717 229.92 70.9717Z" fill="#161742"/>
<path d="M263.379 72.4422C264.045 72.4422 264.586 71.9026 264.586 71.2369C264.586 70.5712 264.045 70.0315 263.379 70.0315C262.712 70.0315 262.171 70.5712 262.171 71.2369C262.171 71.9026 262.712 72.4422 263.379 72.4422Z" fill="#161742"/>
<path d="M200.881 117.27C201.388 117.27 201.799 116.86 201.799 116.354C201.799 115.848 201.388 115.438 200.881 115.438C200.374 115.438 199.964 115.848 199.964 116.354C199.964 116.86 200.374 117.27 200.881 117.27Z" fill="#161742"/>
<path d="M249.904 100.769C250.477 100.769 250.942 100.304 250.942 99.7319C250.942 99.1594 250.477 98.6953 249.904 98.6953C249.33 98.6953 248.865 99.1594 248.865 99.7319C248.865 100.304 249.33 100.769 249.904 100.769Z" fill="#161742"/>
<path d="M227.204 111.496C227.744 111.496 228.182 111.059 228.182 110.519C228.182 109.98 227.744 109.543 227.204 109.543C226.664 109.543 226.226 109.98 226.226 110.519C226.226 111.059 226.664 111.496 227.204 111.496Z" fill="#161742"/>
<path d="M202.137 73.7454C202.83 73.7454 203.393 73.1842 203.393 72.4919C203.393 71.7995 202.83 71.2383 202.137 71.2383C201.443 71.2383 200.881 71.7995 200.881 72.4919C200.881 73.1842 201.443 73.7454 202.137 73.7454Z" fill="#161742"/>
<path d="M215.914 64.5362C216.741 64.5362 217.411 63.867 217.411 63.0415C217.411 62.2161 216.741 61.5469 215.914 61.5469C215.087 61.5469 214.417 62.2161 214.417 63.0415C214.417 63.867 215.087 64.5362 215.914 64.5362Z" fill="#161742"/>
<path d="M253.333 81.0136C253.779 81.0136 254.142 80.6521 254.142 80.206C254.142 79.76 253.779 79.3984 253.333 79.3984C252.886 79.3984 252.524 79.76 252.524 80.206C252.524 80.6521 252.886 81.0136 253.333 81.0136Z" fill="#161742"/>
<path d="M211.012 30.1097C211.598 30.1097 212.074 29.6348 212.074 29.049C212.074 28.4632 211.598 27.9883 211.012 27.9883C210.425 27.9883 209.949 28.4632 209.949 29.049C209.949 29.6348 210.425 30.1097 211.012 30.1097Z" fill="#161742"/>
<path d="M235.704 34.3424C236.157 34.3424 236.525 33.9755 236.525 33.5228C236.525 33.0701 236.157 32.7031 235.704 32.7031C235.25 32.7031 234.883 33.0701 234.883 33.5228C234.883 33.9755 235.25 34.3424 235.704 34.3424Z" fill="#161742"/>
<path d="M197.464 47.6489C197.857 47.6489 198.176 47.3305 198.176 46.9377C198.176 46.545 197.857 46.2266 197.464 46.2266C197.071 46.2266 196.752 46.545 196.752 46.9377C196.752 47.3305 197.071 47.6489 197.464 47.6489Z" fill="#161742"/>
<path d="M240.703 106.035C241.396 106.035 241.959 105.473 241.959 104.781C241.959 104.089 241.396 103.527 240.703 103.527C240.009 103.527 239.447 104.089 239.447 104.781C239.447 105.473 240.009 106.035 240.703 106.035Z" fill="#161742"/>
<path d="M212.207 111.497C212.874 111.497 213.414 110.957 213.414 110.291C213.414 109.626 212.874 109.086 212.207 109.086C211.54 109.086 211 109.626 211 110.291C211 110.957 211.54 111.497 212.207 111.497Z" fill="#161742"/>
<path d="M193.673 99.8044C194.253 99.8044 194.723 99.3349 194.723 98.7557C194.723 98.1765 194.253 97.707 193.673 97.707C193.093 97.707 192.622 98.1765 192.622 98.7557C192.622 99.3349 193.093 99.8044 193.673 99.8044Z" fill="#161742"/>
</g>
<g opacity="0.54">
<path d="M9.82648 304.211C10.8734 304.211 11.7222 303.363 11.7222 302.318C11.7222 301.273 10.8734 300.426 9.82648 300.426C8.77952 300.426 7.93079 301.273 7.93079 302.318C7.93079 303.363 8.77952 304.211 9.82648 304.211Z" fill="#161742"/>
<path d="M56.0838 154.54C56.9907 154.54 57.7259 153.806 57.7259 152.901C57.7259 151.996 56.9907 151.262 56.0838 151.262C55.1769 151.262 54.4417 151.996 54.4417 152.901C54.4417 153.806 55.1769 154.54 56.0838 154.54Z" fill="#161742"/>
<path d="M12.5795 150.813C13.5197 150.813 14.282 150.052 14.282 149.114C14.282 148.175 13.5197 147.414 12.5795 147.414C11.6392 147.414 10.877 148.175 10.877 149.114C10.877 150.052 11.6392 150.813 12.5795 150.813Z" fill="#161742"/>
<path d="M352.778 22.6364C353.825 22.6364 354.673 21.7891 354.673 20.744C354.673 19.6988 353.825 18.8516 352.778 18.8516C351.731 18.8516 350.882 19.6988 350.882 20.744C350.882 21.7891 351.731 22.6364 352.778 22.6364Z" fill="#161742"/>
<path d="M10.889 112.027C11.4691 112.027 11.9395 111.558 11.9395 110.978C11.9395 110.399 11.4691 109.93 10.889 109.93C10.3088 109.93 9.8385 110.399 9.8385 110.978C9.8385 111.558 10.3088 112.027 10.889 112.027Z" fill="#161742"/>
</g>
<g opacity="0.54">
<path d="M136.282 24.0615C136.856 24.0615 137.321 23.5974 137.321 23.0249C137.321 22.4524 136.856 21.9883 136.282 21.9883C135.709 21.9883 135.244 22.4524 135.244 23.0249C135.244 23.5974 135.709 24.0615 136.282 24.0615Z" fill="#161742"/>
<path d="M114.186 43.1881C114.853 43.1881 115.394 42.6484 115.394 41.9827C115.394 41.317 114.853 40.7773 114.186 40.7773C113.519 40.7773 112.979 41.317 112.979 41.9827C112.979 42.6484 113.519 43.1881 114.186 43.1881Z" fill="#161742"/>
<path d="M136.282 46.0107C136.856 46.0107 137.321 45.5466 137.321 44.9741C137.321 44.4016 136.856 43.9375 136.282 43.9375C135.709 43.9375 135.244 44.4016 135.244 44.9741C135.244 45.5466 135.709 46.0107 136.282 46.0107Z" fill="#161742"/>
<path d="M146.92 72.8158C147.614 72.8158 148.176 72.2545 148.176 71.5622C148.176 70.8698 147.614 70.3086 146.92 70.3086C146.227 70.3086 145.664 70.8698 145.664 71.5622C145.664 72.2545 146.227 72.8158 146.92 72.8158Z" fill="#161742"/>
<path d="M120.392 20.4183C120.979 20.4183 121.455 19.9434 121.455 19.3576C121.455 18.7718 120.979 18.2969 120.392 18.2969C119.806 18.2969 119.33 18.7718 119.33 19.3576C119.33 19.9434 119.806 20.4183 120.392 20.4183Z" fill="#161742"/>
<path d="M142.887 6.53383C143.341 6.53383 143.708 6.16686 143.708 5.71418C143.708 5.2615 143.341 4.89453 142.887 4.89453C142.434 4.89453 142.066 5.2615 142.066 5.71418C142.066 6.16686 142.434 6.53383 142.887 6.53383Z" fill="#161742"/>
<path d="M91.8484 51.2153C92.2418 51.2153 92.5608 50.8969 92.5608 50.5041C92.5608 50.1114 92.2418 49.793 91.8484 49.793C91.4549 49.793 91.136 50.1114 91.136 50.5041C91.136 50.8969 91.4549 51.2153 91.8484 51.2153Z" fill="#161742"/>
<path d="M119.33 67.7182C119.91 67.7182 120.38 67.2487 120.38 66.6695C120.38 66.0904 119.91 65.6208 119.33 65.6208C118.75 65.6208 118.279 66.0904 118.279 66.6695C118.279 67.2487 118.75 67.7182 119.33 67.7182Z" fill="#161742"/>
</g>
<g opacity="0.54">
<path d="M253.948 157.894C254.522 157.894 254.987 157.429 254.987 156.857C254.987 156.284 254.522 155.82 253.948 155.82C253.375 155.82 252.91 156.284 252.91 156.857C252.91 157.429 253.375 157.894 253.948 157.894Z" fill="#161742"/>
<path d="M287.407 159.364C288.073 159.364 288.614 158.824 288.614 158.159C288.614 157.493 288.073 156.953 287.407 156.953C286.74 156.953 286.199 157.493 286.199 158.159C286.199 158.824 286.74 159.364 287.407 159.364Z" fill="#161742"/>
<path d="M224.909 204.192C225.416 204.192 225.827 203.781 225.827 203.275C225.827 202.77 225.416 202.359 224.909 202.359C224.402 202.359 223.991 202.77 223.991 203.275C223.991 203.781 224.402 204.192 224.909 204.192Z" fill="#161742"/>
<path d="M273.919 187.702C274.493 187.702 274.958 187.238 274.958 186.666C274.958 186.093 274.493 185.629 273.919 185.629C273.346 185.629 272.881 186.093 272.881 186.666C272.881 187.238 273.346 187.702 273.919 187.702Z" fill="#161742"/>
<path d="M251.231 198.418C251.771 198.418 252.209 197.98 252.209 197.441C252.209 196.902 251.771 196.465 251.231 196.465C250.691 196.465 250.253 196.902 250.253 197.441C250.253 197.98 250.691 198.418 251.231 198.418Z" fill="#161742"/>
<path d="M226.152 160.667C226.846 160.667 227.408 160.106 227.408 159.414C227.408 158.721 226.846 158.16 226.152 158.16C225.459 158.16 224.897 158.721 224.897 159.414C224.897 160.106 225.459 160.667 226.152 160.667Z" fill="#161742"/>
<path d="M239.942 151.458C240.769 151.458 241.439 150.789 241.439 149.963C241.439 149.138 240.769 148.469 239.942 148.469C239.115 148.469 238.445 149.138 238.445 149.963C238.445 150.789 239.115 151.458 239.942 151.458Z" fill="#161742"/>
<path d="M277.361 167.935C277.807 167.935 278.17 167.574 278.17 167.128C278.17 166.682 277.807 166.32 277.361 166.32C276.914 166.32 276.552 166.682 276.552 167.128C276.552 167.574 276.914 167.935 277.361 167.935Z" fill="#161742"/>
<path d="M235.028 117.032C235.614 117.032 236.09 116.557 236.09 115.971C236.09 115.385 235.614 114.91 235.028 114.91C234.441 114.91 233.965 115.385 233.965 115.971C233.965 116.557 234.441 117.032 235.028 117.032Z" fill="#161742"/>
<path d="M259.732 121.264C260.185 121.264 260.553 120.897 260.553 120.445C260.553 119.992 260.185 119.625 259.732 119.625C259.278 119.625 258.911 119.992 258.911 120.445C258.911 120.897 259.278 121.264 259.732 121.264Z" fill="#161742"/>
<path d="M221.492 134.571C221.885 134.571 222.204 134.252 222.204 133.86C222.204 133.467 221.885 133.148 221.492 133.148C221.099 133.148 220.78 133.467 220.78 133.86C220.78 134.252 221.099 134.571 221.492 134.571Z" fill="#161742"/>
<path d="M264.719 192.968C265.412 192.968 265.975 192.407 265.975 191.715C265.975 191.022 265.412 190.461 264.719 190.461C264.025 190.461 263.463 191.022 263.463 191.715C263.463 192.407 264.025 192.968 264.719 192.968Z" fill="#161742"/>
<path d="M236.235 198.419C236.902 198.419 237.442 197.879 237.442 197.213C237.442 196.547 236.902 196.008 236.235 196.008C235.568 196.008 235.027 196.547 235.027 197.213C235.027 197.879 235.568 198.419 236.235 198.419Z" fill="#161742"/>
<path d="M217.701 186.738C218.281 186.738 218.751 186.268 218.751 185.689C218.751 185.11 218.281 184.641 217.701 184.641C217.12 184.641 216.65 185.11 216.65 185.689C216.65 186.268 217.12 186.738 217.701 186.738Z" fill="#161742"/>
</g>
</g>
<path d="M305.208 114.086L238.037 146.715L305.208 160.601V114.086Z" fill="#FFD325"/>
<path d="M57.5601 122.668L128.437 141.64L57.5601 160.601V122.668Z" fill="#FFD325"/>
<path d="M247.854 54.8906L226.337 89.9306L289.704 54.9388L247.854 54.8906Z" fill="#FFD325"/>
<path d="M142.721 55.3359L159.251 82.2518L110.591 55.3721L142.721 55.3359Z" fill="#FFD325"/>
<path d="M102.272 55.3359L125.817 93.6666L56.4855 55.3962L102.272 55.3359Z" fill="#FFD325"/>
<path d="M216.303 55.1545L209.831 72.6684L230.744 54.9375L216.303 55.1545Z" fill="#FFD325"/>
<path d="M158.153 54.9375L178.124 74.8381L173.487 54.9375H158.153Z" fill="#FFD325"/>
<path d="M186.685 54.939L190.621 72.8627L204.156 54.7461L186.685 54.939Z" fill="#FFD325"/>
<path d="M305.208 56.0977L241.66 114.088L305.208 102.613V56.0977Z" fill="#FFD325"/>
<path d="M57.0411 64.6797L120.577 122.67L57.0411 111.195V64.6797Z" fill="#FFD325"/>
<path d="M186.407 182.383H175.286V302.22H186.407V182.383Z" fill="#161742"/>
<path d="M161.92 77.0574L210.048 76.9609L217.317 78.4315L243.362 108.445V150.898L217.317 180.912L210.048 182.382H160.531L134.486 150.898V108.445L161.92 77.0574Z" fill="#161742"/>
<path d="M151.632 76.9609H210.049L236.854 107.842V151.501L210.049 182.382H151.632L124.839 151.501V107.842L151.632 76.9609Z" fill="#FFF2F7"/>
<path d="M206.402 174.391L228.849 148.524V110.82L206.402 84.9531H155.291L132.844 110.82V148.524L155.291 174.391H206.402Z" fill="#EE3D4B"/>
<path d="M182 251.436L165.192 250.327C162.391 250.146 160.06 252.364 160 255.257C159.94 258.234 162.306 260.717 165.18 260.705L181.988 260.584C184.451 260.56 186.383 258.451 186.25 255.896C186.129 253.533 184.294 251.592 182 251.448V251.436Z" fill="#EE9185"/>
<path d="M183.207 270.23L163.103 270.085C160.918 270.073 158.998 268.458 158.491 266.204L158.382 265.746C157.694 262.684 159.879 259.839 162.862 259.924L183.074 260.526C185.501 260.599 187.518 262.624 187.699 265.167C187.892 267.939 185.839 270.242 183.207 270.218V270.23Z" fill="#EE9185"/>
<path d="M183.026 273.943C182.821 271.858 181.106 270.231 178.993 270.134L165.615 269.532C163.441 269.435 161.557 270.978 161.231 273.124L161.062 274.196C160.664 276.824 162.741 279.163 165.409 279.066L178.957 278.596C181.408 278.512 183.279 276.378 183.038 273.931L183.026 273.943Z" fill="#EE9185"/>
<path d="M180.116 281.501C179.681 279.886 178.305 278.741 176.783 278.692L165.735 278.415C163.936 278.367 162.524 279.898 162.584 281.85L162.62 283.08C162.68 285.225 164.455 286.949 166.424 286.78L177.436 285.828C179.428 285.659 180.684 283.622 180.116 281.501Z" fill="#EE9185"/>
<path d="M161.787 259.864C161.787 259.864 161.787 259.864 161.799 259.84C161.908 259.647 162.149 259.575 162.354 259.683C163.018 260.045 164.395 260.31 165.192 260.298L182.99 260.37C183.135 260.37 185.948 260.563 187.505 262.408C188.302 263.36 188.628 264.577 188.471 266.024C187.856 271.351 180.261 270.893 179.79 270.857L169.189 270.978C168.392 270.978 164.045 270.833 162.946 270.713C162.729 270.688 162.56 270.483 162.584 270.266C162.608 270.05 162.813 269.881 163.031 269.905C164.117 270.025 168.392 270.17 169.176 270.17L179.802 270.05C179.802 270.05 179.826 270.05 179.85 270.05C179.923 270.05 187.119 270.628 187.675 265.927C187.819 264.722 187.554 263.709 186.902 262.938C185.561 261.347 183.002 261.19 182.99 261.19L165.228 261.118C164.322 261.118 162.801 260.841 162.004 260.407C161.811 260.298 161.739 260.069 161.835 259.876H161.811L161.787 259.864Z" fill="#161742"/>
<path d="M164.311 249.906C164.371 249.773 164.528 249.665 164.697 249.677C164.806 249.677 175.504 250.135 179.863 250.364C184.451 250.605 187.119 252.714 187.18 256.137C187.264 260.248 183.099 261.164 183.05 261.176C182.833 261.224 182.616 261.079 182.567 260.862C182.519 260.646 182.664 260.429 182.881 260.38C183.026 260.344 186.419 259.585 186.359 256.162C186.298 253.16 183.98 251.4 179.802 251.183C175.455 250.954 164.757 250.508 164.649 250.496C164.431 250.496 164.25 250.291 164.262 250.074C164.262 250.014 164.274 249.966 164.299 249.918L164.311 249.906Z" fill="#161742"/>
</g>
<g clip-path="url(#clip1_294_298)">
<path d="M197.878 128.988C196.756 132.19 195.041 137.047 194.046 139.826C192.861 143.113 190.321 149.242 189.156 152.084C188.775 152.996 187.886 153.611 186.891 153.632L170.739 153.929C169.385 153.951 168.242 152.869 168.199 151.49V117.174C168.157 115.753 169.046 114.693 170.549 114.629C171.861 114.587 172.878 115.711 172.941 117.005L173.11 129.582V112.466C173.026 111.003 174.042 109.751 175.481 109.624C176.942 109.497 177.979 110.557 178.106 112.021L178.191 129.56L178.297 108.373C178.106 106.909 179.101 105.552 180.541 105.255C182.128 104.937 183.652 106.019 183.885 107.609L183.97 129.56L184.076 111.427V111.088C184.055 109.667 185.155 108.458 186.595 108.352C188.14 108.246 189.453 109.433 189.516 110.981L190.003 129.433L191.358 126.74C192.162 125.128 194.004 124.343 195.74 124.852C197.497 125.382 198.45 127.249 197.857 128.988H197.878Z" fill="#FFF3EB"/>
</g>
</g>
<defs>
<clipPath id="clip0_294_298">
<rect width="360" height="313" fill="white"/>
</clipPath>
<clipPath id="clip1_294_298">
<rect width="29.8481" height="48.738" fill="white" transform="translate(168.199 105.191)"/>
</clipPath>
</defs>
</svg>
