<svg width="22" height="16" viewBox="0 0 22 16" fill="none" xmlns="http://www.w3.org/2000/svg">
<path d="M11 15.4236C10.5692 15.4236 10.2051 15.2749 9.90779 14.9776C9.61029 14.6801 9.46154 14.3159 9.46154 13.8851C9.46154 13.4544 9.61029 13.0903 9.90779 12.7928C10.2051 12.4955 10.5692 12.3468 11 12.3468C11.4309 12.3468 11.795 12.4955 12.0923 12.7928C12.3898 13.0903 12.5385 13.4544 12.5385 13.8851C12.5385 14.3159 12.3898 14.6801 12.0923 14.9776C11.795 15.2749 11.4309 15.4236 11 15.4236ZM11 6.53906C12.173 6.53906 13.2772 6.73906 14.3125 7.13906C15.3479 7.53906 16.279 8.09548 17.1058 8.80831C17.2725 8.94281 17.36 9.11173 17.3683 9.31506C17.3766 9.51823 17.3077 9.6929 17.1615 9.83906C17.0192 9.9814 16.8455 10.0503 16.6405 10.0458C16.4354 10.0413 16.2495 9.97365 16.0828 9.84281C15.3981 9.26848 14.6212 8.8179 13.752 8.49106C12.8827 8.16406 11.9654 8.00056 11 8.00056C10.0347 8.00056 9.11737 8.16406 8.24804 8.49106C7.37887 8.8179 6.60195 9.26848 5.91729 9.84281C5.75062 9.97365 5.5647 10.0403 5.35954 10.0428C5.15454 10.0455 4.98087 9.97565 4.83854 9.83331C4.6962 9.68715 4.6282 9.51248 4.63454 9.30931C4.64104 9.10598 4.72762 8.93706 4.89429 8.80256C5.72112 8.08973 6.6522 7.53423 7.68754 7.13606C8.72287 6.73806 9.82704 6.53906 11 6.53906ZM11 0.539062C13.032 0.539062 14.924 0.890313 16.676 1.59281C18.4279 2.29548 19.9859 3.27181 21.35 4.52181C21.5167 4.66398 21.6052 4.8409 21.6155 5.05256C21.6257 5.26406 21.5577 5.4429 21.4115 5.58906C21.2564 5.74423 21.073 5.8099 20.8615 5.78606C20.65 5.7624 20.4545 5.6749 20.275 5.52356C19.0365 4.41206 17.6266 3.54706 16.0453 2.92856C14.4638 2.3099 12.782 2.00056 11 2.00056C9.21804 2.00056 7.53629 2.3099 5.95479 2.92856C4.37345 3.54706 2.96354 4.41206 1.72504 5.52356C1.54554 5.6749 1.35004 5.7624 1.13854 5.78606C0.927037 5.8099 0.743703 5.74423 0.588537 5.58906C0.44237 5.4429 0.37437 5.26406 0.384537 5.05256C0.39487 4.8409 0.48337 4.66398 0.650037 4.52181C2.0142 3.27181 3.5722 2.29548 5.32404 1.59281C7.07604 0.890313 8.96804 0.539062 11 0.539062Z" fill="#1D478E"/>
</svg>
