<svg width="18" height="14" viewBox="0 0 18 14" fill="none" xmlns="http://www.w3.org/2000/svg">
<path d="M14.7308 7.4615C14.8731 7.4615 14.992 7.41375 15.0875 7.31825C15.183 7.22275 15.2308 7.10383 15.2308 6.9615C15.2308 6.81917 15.183 6.70025 15.0875 6.60475C14.992 6.50925 14.8731 6.4615 14.7308 6.4615H11.6538C11.5116 6.4615 11.3927 6.50925 11.297 6.60475C11.2015 6.70025 11.1538 6.81917 11.1538 6.9615C11.1538 7.10383 11.2015 7.22275 11.297 7.31825C11.3927 7.41375 11.5116 7.4615 11.6538 7.4615H14.7308ZM14.7308 4.69225C14.8731 4.69225 14.992 4.6445 15.0875 4.549C15.183 4.4535 15.2308 4.33458 15.2308 4.19225C15.2308 4.04992 15.183 3.931 15.0875 3.8355C14.992 3.74 14.8731 3.69225 14.7308 3.69225H11.6538C11.5116 3.69225 11.3927 3.74 11.297 3.8355C11.2015 3.931 11.1538 4.04992 11.1538 4.19225C11.1538 4.33458 11.2015 4.4535 11.297 4.549C11.3927 4.6445 11.5116 4.69225 11.6538 4.69225H14.7308ZM6.077 8.30775C5.52817 8.30775 5.06342 8.34583 4.68275 8.422C4.30192 8.49833 3.96025 8.62117 3.65775 8.7905C3.39742 8.93017 3.20125 9.083 3.06925 9.249C2.93725 9.415 2.87125 9.59225 2.87125 9.78075C2.87125 9.92942 2.93017 10.0544 3.048 10.1558C3.166 10.2571 3.31408 10.3077 3.49225 10.3077H8.6615C8.83967 10.3077 8.98775 10.2529 9.10575 10.1433C9.22375 10.0336 9.28275 9.9025 9.28275 9.75C9.28275 9.582 9.21992 9.41917 9.09425 9.2615C8.96858 9.10383 8.76925 8.94683 8.49625 8.7905C8.19358 8.62117 7.85192 8.49833 7.47125 8.422C7.09042 8.34583 6.62567 8.30775 6.077 8.30775ZM6.077 6.69225C6.49867 6.69225 6.85408 6.54775 7.14325 6.25875C7.43242 5.96958 7.577 5.61408 7.577 5.19225C7.577 4.77042 7.43242 4.415 7.14325 4.126C6.85408 3.83683 6.49867 3.69225 6.077 3.69225C5.65517 3.69225 5.29967 3.83683 5.0105 4.126C4.7215 4.415 4.577 4.77042 4.577 5.19225C4.577 5.61408 4.7215 5.96958 5.0105 6.25875C5.29967 6.54775 5.65517 6.69225 6.077 6.69225ZM1.6155 14C1.15517 14 0.770833 13.8458 0.4625 13.5375C0.154167 13.2292 0 12.8448 0 12.3845V1.6155C0 1.15517 0.154167 0.770833 0.4625 0.4625C0.770833 0.154167 1.15517 0 1.6155 0H16.3845C16.8448 0 17.2292 0.154167 17.5375 0.4625C17.8458 0.770833 18 1.15517 18 1.6155V12.3845C18 12.8448 17.8458 13.2292 17.5375 13.5375C17.2292 13.8458 16.8448 14 16.3845 14H1.6155ZM1.6155 13H16.3845C16.5385 13 16.6796 12.9359 16.8078 12.8077C16.9359 12.6796 17 12.5385 17 12.3845V1.6155C17 1.4615 16.9359 1.32042 16.8078 1.19225C16.6796 1.06408 16.5385 1 16.3845 1H1.6155C1.4615 1 1.32042 1.06408 1.19225 1.19225C1.06408 1.32042 1 1.4615 1 1.6155V12.3845C1 12.5385 1.06408 12.6796 1.19225 12.8077C1.32042 12.9359 1.4615 13 1.6155 13Z" fill="#1D478E"/>
</svg>
