<svg width="80" height="80" viewBox="0 0 80 80" fill="none" xmlns="http://www.w3.org/2000/svg">
<circle cx="40" cy="40" r="40" fill="#161742"/>
<mask id="mask0_77_737" style="mask-type:alpha" maskUnits="userSpaceOnUse" x="20" y="20" width="40" height="40">
<rect x="20" y="20" width="40" height="40" fill="#D9D9D9"/>
</mask>
<g mask="url(#mask0_77_737)">
<path d="M29.7309 44.7248C29.4873 44.4812 29.3809 44.1815 29.4118 43.8256C29.4429 43.4698 29.5973 43.1798 29.8751 42.9556C31.2876 41.7676 32.8602 40.8503 34.593 40.204C36.3261 39.5576 38.1284 39.2344 40.0001 39.2344C40.5043 39.2344 40.9962 39.2558 41.4759 39.2985C41.9557 39.341 42.4477 39.4222 42.9522 39.5419C43.2833 39.5974 43.5536 39.7609 43.763 40.0323C43.9725 40.3037 44.0494 40.6049 43.9939 40.936C43.9383 41.2674 43.7748 41.5324 43.5034 41.731C43.2321 41.9299 42.9307 42.0016 42.5993 41.946C42.1784 41.8541 41.7507 41.7851 41.3159 41.739C40.8809 41.6931 40.4423 41.6702 40.0001 41.6702C38.4468 41.6702 36.9543 41.9288 35.5226 42.446C34.0909 42.963 32.7768 43.714 31.5801 44.699C31.2959 44.917 30.9759 45.0367 30.6201 45.0581C30.2646 45.0795 29.9682 44.9684 29.7309 44.7248ZM40.0001 29.2344C43.1987 29.2344 46.2772 29.8059 49.2355 30.949C52.1939 32.0923 54.8515 33.7301 57.2084 35.8623C57.4862 36.0995 57.6407 36.396 57.6718 36.7519C57.7026 37.1077 57.5962 37.4074 57.3526 37.651C57.0876 37.916 56.7789 38.0255 56.4264 37.9794C56.0739 37.9335 55.748 37.7845 55.4489 37.5323C53.3014 35.652 50.9114 34.2049 48.2789 33.191C45.6464 32.1772 42.8868 31.6702 40.0001 31.6702C37.1134 31.6702 34.3539 32.1772 31.7214 33.191C29.0889 34.2049 26.6989 35.652 24.5514 37.5323C24.2522 37.7845 23.9264 37.9335 23.5739 37.9794C23.2214 38.0255 22.9126 37.916 22.6476 37.651C22.404 37.4074 22.2976 37.1077 22.3284 36.7519C22.3595 36.396 22.514 36.0995 22.7918 35.8623C25.1487 33.7301 27.8064 32.0923 30.7647 30.949C33.723 29.8059 36.8015 29.2344 40.0001 29.2344ZM37.5897 51.7919C37.5897 51.153 37.7768 50.5985 38.1509 50.1285C38.5248 49.6585 39.0066 49.4235 39.5964 49.4235C39.7139 49.4235 39.8105 49.4699 39.8864 49.5627C39.9622 49.6558 40.0001 49.761 40.0001 49.8785V53.7377C40.0001 53.8552 39.9675 53.9603 39.9022 54.0531C39.8372 54.1462 39.7459 54.1927 39.6284 54.1927C39.0173 54.1927 38.5248 53.9523 38.1509 53.4715C37.7768 52.9906 37.5897 52.4308 37.5897 51.7919Z" fill="#AF8E2F"/>
<path d="M50.0002 54.2976C50.2224 54.2976 50.4061 54.225 50.5514 54.0797C50.6967 53.9344 50.7693 53.7507 50.7693 53.5284C50.7693 53.3062 50.6967 53.1223 50.5514 52.9768C50.4061 52.8315 50.2224 52.7589 50.0002 52.7589C49.7779 52.7589 49.5942 52.8315 49.4489 52.9768C49.3036 53.1223 49.231 53.3062 49.231 53.5284C49.231 53.7507 49.3036 53.9344 49.4489 54.0797C49.5942 54.225 49.7779 54.2976 50.0002 54.2976ZM50.0002 51.0922C50.171 51.0922 50.3206 51.0282 50.4489 50.9001C50.577 50.7718 50.641 50.6222 50.641 50.4514V46.3526C50.641 46.1707 50.577 46.0176 50.4489 45.8934C50.3206 45.7695 50.171 45.7076 50.0002 45.7076C49.8293 45.7076 49.6797 45.7718 49.5514 45.9001C49.4234 46.0282 49.3593 46.1777 49.3593 46.3489V50.4472C49.3593 50.6294 49.4234 50.7825 49.5514 50.9064C49.6797 51.0302 49.8293 51.0922 50.0002 51.0922ZM50.0002 56.6693C48.1432 56.6693 46.5679 56.0223 45.2743 54.7284C43.9804 53.4348 43.3335 51.8595 43.3335 50.0026C43.3335 48.1457 43.9804 46.5704 45.2743 45.2768C46.5679 43.9829 48.1432 43.3359 50.0002 43.3359C51.8571 43.3359 53.4324 43.9829 54.726 45.2768C56.0199 46.5704 56.6668 48.1457 56.6668 50.0026C56.6668 51.8595 56.0199 53.4348 54.726 54.7284C53.4324 56.0223 51.8571 56.6693 50.0002 56.6693Z" fill="#FD707B"/>
</g>
</svg>
