<svg width="14" height="17" viewBox="0 0 14 17" fill="none" xmlns="http://www.w3.org/2000/svg">
<path d="M7 16.8848C6.63083 16.8848 6.31292 16.7773 6.04625 16.5625C5.77958 16.3478 5.62317 16.0719 5.577 15.7348H5C4.732 15.7348 4.49833 15.635 4.299 15.4355C4.09967 15.2362 4 15.0025 4 14.7345V11.723C2.96533 11.15 2.165 10.3686 1.599 9.37875C1.033 8.38908 0.75 7.34617 0.75 6.25C0.75 4.5025 1.35483 3.024 2.5645 1.8145C3.774 0.604834 5.2525 0 7 0C8.7475 0 10.226 0.604834 11.4355 1.8145C12.6452 3.024 13.25 4.5025 13.25 6.25C13.25 7.35383 12.967 8.39867 12.401 9.3845C11.835 10.3705 11.0347 11.15 10 11.723V14.7345C10 15.0025 9.90033 15.2362 9.701 15.4355C9.50167 15.635 9.268 15.7348 9 15.7348H8.423C8.37683 16.0719 8.22042 16.3478 7.95375 16.5625C7.68708 16.7773 7.36917 16.8848 7 16.8848ZM5 14.7345H9V13.7578H5V14.7345ZM5 12.9885H9V12H5V12.9885ZM4.8 11H6.55775V7.877L4.7865 6.10575C4.70067 6.01992 4.6545 5.91867 4.648 5.802C4.64167 5.68533 4.68783 5.57758 4.7865 5.47875C4.88517 5.38008 4.98967 5.33075 5.1 5.33075C5.21033 5.33075 5.31483 5.38008 5.4135 5.47875L7 7.0655L8.5865 5.47875C8.6725 5.39292 8.77383 5.34683 8.8905 5.3405C9.00717 5.334 9.11483 5.38008 9.2135 5.47875C9.31217 5.57758 9.3615 5.68208 9.3615 5.79225C9.3615 5.90258 9.31217 6.00708 9.2135 6.10575L7.44225 7.877V11H9.2C10.1 10.5667 10.8333 9.92917 11.4 9.0875C11.9667 8.24583 12.25 7.3 12.25 6.25C12.25 4.78333 11.7417 3.54167 10.725 2.525C9.70833 1.50833 8.46667 1 7 1C5.53333 1 4.29167 1.50833 3.275 2.525C2.25833 3.54167 1.75 4.78333 1.75 6.25C1.75 7.3 2.03333 8.24583 2.6 9.0875C3.16667 9.92917 3.9 10.5667 4.8 11Z" fill="#1D478E"/>
</svg>
