<svg width="13" height="12" viewBox="0 0 13 12" fill="none" xmlns="http://www.w3.org/2000/svg">
<path d="M8.36234 3.53769C7.92955 1.52757 7.00654 0.255859 6.15285 0.255859C5.29917 0.255859 4.37615 1.52757 3.94336 3.53769H8.36234Z" fill="white"/>
<path d="M3.69141 6.00029C3.69131 6.54909 3.7279 7.09729 3.80094 7.6412H8.50462C8.57766 7.09729 8.61425 6.54909 8.61415 6.00029C8.61425 5.45149 8.57766 4.90329 8.50462 4.35938H3.80094C3.7279 4.90329 3.69131 5.45149 3.69141 6.00029Z" fill="white"/>
<path d="M3.94336 8.46094C4.37615 10.4711 5.29917 11.7428 6.15285 11.7428C7.00654 11.7428 7.92955 10.4711 8.36234 8.46094H3.94336Z" fill="white"/>
<path d="M9.20302 3.53863H11.7875C11.3991 2.6549 10.8091 1.87448 10.0647 1.25995C9.32032 0.645425 8.44226 0.213904 7.50098 0C8.27918 0.684672 8.8896 1.95064 9.20302 3.53863Z" fill="white"/>
<path d="M12.0819 4.35938H9.33342C9.40109 4.90373 9.43493 5.45175 9.43474 6.00029C9.4348 6.54884 9.40082 7.09686 9.33301 7.6412H12.0815C12.3807 6.56772 12.3811 5.43286 12.0819 4.35938Z" fill="white"/>
<path d="M7.50098 11.9996C8.44241 11.7858 9.32063 11.3543 10.0652 10.7398C10.8097 10.1253 11.3999 9.34476 11.7883 8.46094H9.20384C8.8896 10.0489 8.27918 11.3149 7.50098 11.9996Z" fill="white"/>
<path d="M3.103 8.46094H0.518555C0.906956 9.34476 1.4971 10.1253 2.24165 10.7398C2.9862 11.3543 3.86442 11.7858 4.80585 11.9996C4.02683 11.3149 3.41641 10.0489 3.103 8.46094Z" fill="white"/>
<path d="M4.80585 0C3.86442 0.213788 2.9862 0.645256 2.24165 1.25979C1.4971 1.87432 0.906956 2.65481 0.518555 3.53863H3.103C3.41723 1.95064 4.02765 0.684672 4.80585 0Z" fill="white"/>
<path d="M2.87117 6.00029C2.87112 5.45174 2.9051 4.90372 2.97291 4.35938H0.224375C-0.0747917 5.43286 -0.0747917 6.56772 0.224375 7.6412H2.97291C2.9051 7.09686 2.87112 6.54884 2.87117 6.00029Z" fill="white"/>
</svg>
