<svg xmlns="http://www.w3.org/2000/svg" width="285.846" height="195.229" viewBox="0 0 285.846 195.229">
  <g id="BINDAAS" transform="translate(-2866.769 -678.1)">
    <g id="BACKGROUND" transform="translate(2866.769 678.1)">
      <path id="Path_7843" data-name="Path 7843" d="M2929.116,830.161c-9.078,2.576-32.829,7.672-48.2-6.139-8.776-7.887-13.529-21.262-10.884-32.648,1.609-6.928,3.351-14.083,14.951-25.7,13.865-13.88,19.738-13.248,27-21.915,6.441-7.687,7.747-4.137,18.138-29.231,5.437-13.133,11.32-21.734,14.461-24.217,3.091-2.44,15.88-11.032,29.739-11.395,3.7-.1,18.187-.475,27.2,9.069,5.9,6.245,9.179,11.594,14.936,29.53,1.652,5.138,1.844,7.962,5.014,11.28,4.963,5.192,10.276,11.295,13.333,16.493,6.339,10.772,1.9,20.182-3.333,28.846-2.343,3.88-9.29,12.392-21.788,21.767-15.517,11.64-22.844,5.253-48.971,16.324-18.795,7.962-17.062,13.8-31.6,17.927Z" transform="translate(-2869.305 -678.892)" fill="#cde8d9"/>
      <ellipse id="Ellipse_269" data-name="Ellipse 269" cx="114.745" cy="13.905" rx="114.745" ry="13.905" transform="translate(32.419 167.42)" fill="#cde8d9"/>
      <path id="Path_7844" data-name="Path 7844" d="M3482.186,851.32c-.732,3.928-5.223,5.4-3.656,10.24,1.158,3.577,4.839,4.194,7.862,4.721,8.852,1.548,7.875,1.049,11.559,5.764,1.962,2.513,12.166,4.4,15.9,1.709,4.866-3.508,9.873-10.947,5.492-15.707-4.044-4.394-1.5-9.907-3.7-12.689-2.794-3.535-5.286-5-8.857-5.658-5.673-1.046-10.941,1.2-14.064-.012-2.543-.989-6.381-1.14-8.262,1.007-2.873,3.275-1.747,7.835-2.268,10.63Z" transform="translate(-3294.067 -790.577)" fill="#cde8d9"/>
    </g>
    <path id="BEANBAG_FILL" data-name="BEANBAG FILL" d="M3064.315,904.829a50.43,50.43,0,0,0-3.927,16.018,80.045,80.045,0,0,0,.051,12.544c.264,13.052.593,14.473.251,18.262-.339,3.771-2.407,12.822-2.969,19.29a35.02,35.02,0,0,0,1.476,13.98c1.987,6.659,6.033,15.22,10.533,18.35,2.925,2.032,8.189,4.878,17.159,4.285,8.987-.593,13.5-.517,26.8-.971,4.007-.136,9.018.16,18.135.553,24.38,1.052,31.1,2,40.4,1.781,6.686-.157,23.645-2,24.794-2.241,6.656-1.394,20.331-4.784,26.025-7.206,1.219-.517,11.978-6.293,15.15-9.369,1.047-1.013,1.791-1.724,4.231-5.631a9.713,9.713,0,0,0,1.285-7.028l-3.928-6.562c-.958-2.988-2.413-6.822-2.413-6.822-2.583-6.429-1.331-6.88-3.173-9.066-3.973-4.714-12.8-5.924-18.746-4.977a28.445,28.445,0,0,0-10.78,4.143c-8.383,4.99-12.133,8.268-13.953,9.018-6.247,2.57-11.706,4.757-14,4.282-6.883-1.418-6.55-.574-15.732-.172-4.318.188-7.185-62.307-23.333-75.668-6.121-5.062-13.478-.169-29.717,2.921-14.416,2.746-9.756,1.361-14.226,2.1-6.985,1.149-5.4.23-16.847.711-5.225.221-10.134,2.456-12.534,7.479Z" transform="translate(-133.865 -147.665)" fill="#fff"/>
    <g id="PERSON_FILL" data-name="PERSON FILL" transform="translate(2920.198 733.198)">
      <g id="Group_6269" data-name="Group 6269" transform="translate(141.179 1.774)">
        <g id="ARM" transform="translate(0 16.627)">
          <path id="Path_7845" data-name="Path 7845" d="M3513.586,927.28a39.812,39.812,0,0,1,2.535,3.423,18,18,0,0,1,1.44,3.6c4.986-4.052,6.891-5.395,6.891-5.395l-6.6-6.973-5.017,4.521a6.676,6.676,0,0,1,.75.819Z" transform="translate(-3512.839 -921.94)" fill="#fff" stroke="#1b4791" stroke-linecap="round" stroke-width="1"/>
        </g>
        <g id="PHONE" transform="translate(0.798)">
          <path id="Path_7846" data-name="Path 7846" d="M3536.908,867.325a1.088,1.088,0,0,0-.964-.357l-6.217.8a1.962,1.962,0,0,0-1.331.8L3515.48,887.15l.992.52,6.876-.2,13.754-19.913-.2-.227Z" transform="translate(-3515.48 -866.958)" fill="#1a2e35"/>
          <path id="Path_7847" data-name="Path 7847" d="M3571.574,874.632a.4.4,0,0,0,.52-.1.342.342,0,0,0,.04-.5.4.4,0,0,0-.52.1A.343.343,0,0,0,3571.574,874.632Z" transform="translate(-3554.549 -871.853)" fill="#fff"/>
          <path id="Path_7848" data-name="Path 7848" d="M3539.85,868.9a8.093,8.093,0,0,1-1.2.224c-.841.121-1.95.284-3.3.478l-2.277.315a1.314,1.314,0,0,0-.962.529q-.359.522-.735,1.068c-1.016,1.467-2.129,3.072-3.3,4.757-2.349,3.372-4.493,6.411-6.06,8.6-.762,1.055-1.394,1.926-1.872,2.586a7.422,7.422,0,0,1-.729.922,7.24,7.24,0,0,1,.608-.995c.454-.674,1.048-1.566,1.771-2.646,1.512-2.226,3.62-5.289,5.969-8.661,1.177-1.678,2.3-3.281,3.324-4.742.257-.363.508-.72.753-1.064a1.642,1.642,0,0,1,1.182-.644l2.286-.272,3.317-.369A8.252,8.252,0,0,1,3539.85,868.9Z" transform="translate(-3518.225 -868.309)" fill="#375a64"/>
        </g>
        <g id="HAND" transform="translate(1.387 2.765)">
          <path id="Path_7849" data-name="Path 7849" d="M3532.953,876.109a2.408,2.408,0,0,0-1.188,2.443c.073,2.322-.859,6.831-1.469,7.714-.158.227-2.177-2.332-3.182-2.5a32.407,32.407,0,0,0-4.793.387s-1.082.547-.363,1.04,2.782.5,3.559,1a44.121,44.121,0,0,1,3.139,3.983,78.125,78.125,0,0,1-7.294-3.977c-.462-.3-1.772.632-1.182,1.857s5.129,5.044,6.136,6.051c.5.5-3.7-.708-4.423-.94a18.491,18.491,0,0,1-3.666-2.462c-.242-.178-1.1.051-.689.986a20.664,20.664,0,0,0,4.161,4.578,11.044,11.044,0,0,0,4.013,1.5c.7.133,2.211.366,2.667-.245s.364-1.449.645-1.8.992-.118,1.723-1.194c.476-.7.292-1.691.521-2.029.4-.584,1.539-.321,1.793-1.467a16.08,16.08,0,0,0,.148-3.529c-.018-1.137.645-8.758.56-9.006s-.466-2.3-.817-2.4Z" transform="translate(-3517.427 -876.1)" fill="#fff" stroke="#1b4791" stroke-linecap="round" stroke-width="1"/>
        </g>
      </g>
      <path id="Path_7850" data-name="Path 7850" d="M3252.246,940.746a12.823,12.823,0,0,1,2.383,3.308c2.256,3.771,2.655,4.944,7.539,12.465,3.475,5.352,6.544,10.2,8.162,12.4,4.962,6.756,5.355,7.72,8.881,11.4,4.231,4.421,7.213,7.336,9.2,7.766.786.169,1.109-.284,1.687-.711a39.742,39.742,0,0,1,5.1-3.16c1.321-.786.78-1.364.6-1.512a31.1,31.1,0,0,1-5.492-5.223c-1.6-1.839-2.192-3.187-3.991-5.467a48.36,48.36,0,0,0-7.7-8.319c-6.735-6.057-8.546-7.548-11.089-10.572a66.209,66.209,0,0,1-5.964-7.04,24.461,24.461,0,0,1-2.583-4.476c-.659-1.352-.288-2.858-.922-3.193-.506-.266-1,.269-2.419.807-2.217.838-3.9,1.067-3.391,1.527Z" transform="translate(-3189.81 -914.984)" fill="#c3d1e6"/>
      <path id="Path_7851" data-name="Path 7851" d="M3372.029,997.748l7.733-5.21a15.455,15.455,0,0,0,3.928.6c2.007-.046,3.317-1.491,4.835-2.419,4.543-2.767,11.779-5.613,16.019-7.714a22.148,22.148,0,0,0,4.827-4.224c.915-.986,9.526-8.495,16.3-14.884,7.379-6.964,8.7-7.953,12.58-9.753a36.233,36.233,0,0,1,11.107-2.607,8.523,8.523,0,0,1,6.272,2.3,38.275,38.275,0,0,1,5.682,6.356,65.456,65.456,0,0,1,2.477,6.338c2.743,7.488,3.659,9.6,4.339,12.438.185.771.862,1.074,3.52,2.41,2.047,1.028,4.346,2.277,7.255,3.892,2.292,1.273,3.069,1.763,3.308,2.513.572,1.781-1.6,4.79-3.417,8.365-1.718,3.369-2.991,4.394-2.4,5.909a33.716,33.716,0,0,0,1.406,3.517c.862,1.884,1.963,4.684,1.887,5.289-.269,2.156-2.474,3.9-8.028,6.465-5.325,2.462-9.242,3.045-9.8,2.837-.686-.257-1.591-1.618-2.679-5.138-1.917-6.2-1.224-4.216-3.732-11.764-.632-1.9-1.839-5.2-1.839-5.2s-4.321-2.676-5.6-3.224a17.873,17.873,0,0,0-6.006-1.488c-.9-.079-4.753.012-5.313,0-1.763-.036-7.826,1.573-9.169,2.192-4.5,2.081-8.086,4.835-16.925,10.881-2.235,1.527-5.682,2.6-9.172,4.158-2.241,1-4.505-.4-11.08-.23-7.905.206-12.513.907-12.695.23-.236-.88,6.471-4.358,8.718-6.242a8.466,8.466,0,0,0,2.818-4.418c-9.5.983-15.483-1.194-17.152-2.2Z" transform="translate(-3273.431 -924.173)" fill="#6b8bbb"/>
      <path id="Path_7852" data-name="Path 7852" d="M3077.812,861.106c-.433.1-7.966,2.22-24.186,7.346a19.67,19.67,0,0,0-6.3,4.748c-.33.457-2.032,4.288-1.034,7.188.783,2.28,2.731,3.051,3.6,3.589,6.689,4.131,13.708,8.383,20.013,13.076a124.406,124.406,0,0,1,10.908,9.184c.893.922,2.4,3.42,3.578,4.96.668.877,4.152,5.785,7.013,9.45,1.609,2.062,1.246,2.072,9.925,10.832,3.677,3.711,7.509,7.273,11.083,11.083a51.124,51.124,0,0,0,7.633,6.574c.378.257,1.391.931,4.258.883,3.481-.061,6.974-.8,12.205-1.427,7.106-.856,11.434-.823,12.58-.989,1.058-.154,6.269-3.429,6.269-3.429.714-.559,2.7-1.808,3.539-2.616a12.09,12.09,0,0,0,2-2.274c.656-.8,1.158-1.848.923-2.31-.152-.3-.684-.448-1.86-.33a29.428,29.428,0,0,1-8.162,0c-3.468,0-8.1-2.168-13.242-7.4a98.271,98.271,0,0,1-14.458-17.712c-6.883-10.481-9.732-15.29-10.893-17.255-1.209-2.041-2.041-3.665-4.4-7.367-1.1-1.727-2.74-.565-4.454-.768-3.65-.436-3.4-.16-5.307-1.055a14.671,14.671,0,0,1-3.94-3.308c-.938-1.061.607-3.329-.8-3.354-.284-.006-1.533,2.271-2.174,2.4-1.173.242-6.163,2.214-8.389,2.834-.45.127-5.776-2.029-8.954-3.414-2.283-.995-3.611-1.645-3.6-1.978.03-1.04,4.521-2.28,7.935-4.249,5.237-3.024,7.505-4.2,7.505-4.2a19.32,19.32,0,0,1-3.426-5.44c-.2-.505-3.163-1.046-3.163-1.046-.109-.239,1.173-1.318.846-1.349-.807-.076-2.512-1.01-3.066-.883Z" transform="translate(-3045.985 -861.091)" fill="#3467ac"/>
      <path id="Path_7853" data-name="Path 7853" d="M3267.754,902.1c-.521.659.248,2.117.907,7.255a11.5,11.5,0,0,0,.956,4.061,17.179,17.179,0,0,0,2.065,3.949c3.55,4.581,5.322,6.871,6.2,7.86a69.755,69.755,0,0,0,5.44,5.743c3.39,3.121,4.116,3,7.255,5.894a49.712,49.712,0,0,1,5.894,6.5c2.525,3.351,3.245,4.394,6.384,8.274a11.584,11.584,0,0,0,4.633,3.8,5.515,5.515,0,0,0,3.338.626,9.186,9.186,0,0,0,3.968-1.775,34.91,34.91,0,0,1,5.592-3.024c3.393-1.557,3.628-1.833,8.274-3.816,4.6-1.966,7.375-2.927,7.194-3.85-.039-.206-.438-.475-1.3-.623-1.7-.29-4.3,1.887-8.567,2.4a11.264,11.264,0,0,1-4.3-.239,18.056,18.056,0,0,1-6.169-3.4c-.566-.514-2.849-1.826-2.867-1.975-.052-.472,2.271.535,4.122.326,2.695-.3,4.325-1.167,6.8-2.846,1.763-1.194,3.018-2.141,11.286-7.633a115.446,115.446,0,0,0,11.183-8.238c2.979-2.41,3.1-2.646,3.024-3.55-.087-1.028-.2-1.21-2.117-3.475-3.614-4.267-4.391-6.13-5.969-6.221-1.433-.082-2.153,1.4-3.1,2.443-1.848,2.032-3.365,2.949-10.8,7.959-4.865,3.281-5.6,3.508-11.524,7.1-.656.4-3.369-2.168-8.809-7.811-4.969-5.153-6.677-6.568-11.939-11.939-2.42-2.468-4.249-4.346-6.263-6.06a7.447,7.447,0,0,0-5-1.43,59.077,59.077,0,0,0-7.672,2.628,26.372,26.372,0,0,1-4.288,1.113c-1.052.112-.928-.188-1.715-.484a1.759,1.759,0,0,0-2.117.451Z" transform="translate(-3200.571 -887.082)" fill="#3467ac"/>
      <g id="Group_6289" data-name="Group 6289" transform="translate(48.154 34.317)">
        <g id="Group_6288" data-name="Group 6288">
          <g id="Group_6275" data-name="Group 6275" transform="translate(2.316)">
            <path id="Path_7854" data-name="Path 7854" d="M3220.782,996.512a.538.538,0,0,1-.708-.284l-7.152-16.856a.54.54,0,0,1,.287-.708l9.553-4.052a.54.54,0,0,1,.708.287l7.152,16.856a.539.539,0,0,1-.288.708l-9.553,4.052h0Z" transform="translate(-3212.88 -974.57)" fill="#089843"/>
            <g id="Group_6274" data-name="Group 6274" transform="translate(0.575 0.642)">
              <g id="Group_6270" data-name="Group 6270">
                <path id="Path_7855" data-name="Path 7855" d="M3224.29,976.93l-9.19,3.9,6.989,16.472,9.19-3.9-6.989-16.472Zm-2.1,20.113-6.834-16.109,8.827-3.744,6.834,16.109Z" transform="translate(-3215.004 -976.858)" fill="#cbeada"/>
                <path id="Path_7856" data-name="Path 7856" d="M3221.78,997.2l-6.99-16.472a.1.1,0,0,1,.052-.13l9.19-3.9a.1.1,0,0,1,.129.051l6.99,16.472a.1.1,0,0,1-.051.13l-9.19,3.9A.1.1,0,0,1,3221.78,997.2Zm-6.768-16.457,6.91,16.291,9.009-3.822-.039-.091a.1.1,0,0,1-.052.13L3222.013,997a.1.1,0,0,1-.13-.051l-6.834-16.109a.1.1,0,0,1,.051-.13l-.091.039Zm.26.106,6.755,15.925,8.646-3.668-6.756-15.925Zm8.751-3.928-.091.039a.1.1,0,0,1,.13.052Z" transform="translate(-3214.782 -976.693)" fill="#cbeada"/>
              </g>
              <g id="Group_6271" data-name="Group 6271" transform="translate(4.452 6.485)">
                <path id="Path_7857" data-name="Path 7857" d="M3230.13,1003.7a3.765,3.765,0,1,0,2-4.938,3.768,3.768,0,0,0-2,4.938Zm6.731-2.855a3.547,3.547,0,1,1-4.651-1.878,3.55,3.55,0,0,1,4.651,1.878Z" transform="translate(-3229.733 -998.363)" fill="#cbeada"/>
                <path id="Path_7858" data-name="Path 7858" d="M3229.813,1003.508a3.863,3.863,0,1,1,5.065,2.047A3.868,3.868,0,0,1,3229.813,1003.508Zm6.931-2.942a3.667,3.667,0,1,0-1.945,4.808A3.669,3.669,0,0,0,3236.744,1000.566Zm-6.732,2.855a3.644,3.644,0,1,1,4.779,1.936,3.646,3.646,0,0,1-4.779-1.936Zm6.529-2.77a3.448,3.448,0,1,0-1.827,4.521A3.449,3.449,0,0,0,3236.541,1000.651Z" transform="translate(-3229.506 -998.136)" fill="#cbeada"/>
              </g>
              <g id="Group_6272" data-name="Group 6272" transform="translate(10.32 15.763)">
                <path id="Path_7859" data-name="Path 7859" d="M3249.266,1029.713a.41.41,0,1,0,.218-.538A.411.411,0,0,0,3249.266,1029.713Zm.553-.236a.192.192,0,1,1-.251-.1A.189.189,0,0,1,3249.819,1029.478Z" transform="translate(-3249.135 -1029.045)" fill="#cbeada"/>
                <path id="Path_7860" data-name="Path 7860" d="M3248.948,1029.526a.51.51,0,1,1,.668.269A.511.511,0,0,1,3248.948,1029.526Zm.756-.321a.311.311,0,1,0-.166.408A.313.313,0,0,0,3249.7,1029.205Zm-.553.236a.291.291,0,1,1,.381.154A.29.29,0,0,1,3249.15,1029.441Zm.354-.151a.092.092,0,1,0-.049.121A.091.091,0,0,0,3249.5,1029.29Z" transform="translate(-3248.907 -1028.818)" fill="#cbeada"/>
              </g>
              <g id="Group_6273" data-name="Group 6273" transform="translate(5.293 3.914)">
                <path id="Path_7861" data-name="Path 7861" d="M3232.645,990.544a.411.411,0,1,0,.218-.538A.411.411,0,0,0,3232.645,990.544Zm.553-.236a.188.188,0,0,1-.1.251.192.192,0,1,1,.1-.251Z" transform="translate(-3232.514 -989.872)" fill="#cbeada"/>
                <path id="Path_7862" data-name="Path 7862" d="M3232.327,990.346a.509.509,0,1,1,.668.269.5.5,0,0,1-.39,0A.513.513,0,0,1,3232.327,990.346Zm.757-.321a.312.312,0,1,0-.406.408.325.325,0,0,0,.239,0A.314.314,0,0,0,3233.084,990.025Zm-.554.236a.291.291,0,0,1,.536-.227.3.3,0,0,1,0,.224.293.293,0,0,1-.539,0Zm.354-.151a.092.092,0,1,0-.049.121.093.093,0,0,0,.051-.051.086.086,0,0,0,0-.07Z" transform="translate(-3232.287 -989.637)" fill="#cbeada"/>
              </g>
            </g>
          </g>
          <g id="Group_6281" data-name="Group 6281" transform="translate(1.327 0.804)">
            <path id="Path_7863" data-name="Path 7863" d="M3218.631,999.269a.543.543,0,0,1-.726-.239l-8.236-16.351a.542.542,0,0,1,.238-.726l9.265-4.666a.542.542,0,0,1,.726.239l8.238,16.351a.542.542,0,0,1-.239.726l-9.266,4.666Z" transform="translate(-3209.61 -977.23)" fill="#14a256"/>
            <g id="Group_6280" data-name="Group 6280" transform="translate(0.579 0.664)">
              <g id="Group_6276" data-name="Group 6276">
                <path id="Path_7864" data-name="Path 7864" d="M3220.748,979.65l-8.918,4.491,8.05,15.979,8.918-4.491-8.05-15.979Zm-.78,20.207-7.872-15.628,8.564-4.312,7.872,15.628Z" transform="translate(-3211.738 -979.582)" fill="#cbeada"/>
                <path id="Path_7865" data-name="Path 7865" d="M3219.585,1000.038l-8.05-15.979a.1.1,0,0,1,.045-.133l8.918-4.491a.1.1,0,0,1,.133.042l8.05,15.979a.1.1,0,0,1-.043.133l-8.918,4.491a.1.1,0,0,1-.133-.042Zm-7.829-15.982,7.96,15.8,8.739-4.4-.045-.088a.1.1,0,0,1-.042.133l-8.564,4.312a.1.1,0,0,1-.133-.042l-7.872-15.628a.1.1,0,0,1,.042-.133l-.088.045Zm.267.088,7.784,15.45,8.389-4.225-7.784-15.45Zm8.476-4.491-.088.045a.1.1,0,0,1,.134.042Z" transform="translate(-3211.524 -979.425)" fill="#cbeada"/>
              </g>
              <g id="Group_6277" data-name="Group 6277" transform="translate(4.851 6.52)">
                <path id="Path_7866" data-name="Path 7866" d="M3228.292,1006.779a3.765,3.765,0,1,0,1.669-5.056A3.769,3.769,0,0,0,3228.292,1006.779Zm6.529-3.29a3.547,3.547,0,1,1-4.763-1.573A3.549,3.549,0,0,1,3234.821,1003.488Z" transform="translate(-3227.792 -1001.219)" fill="#cbeada"/>
                <path id="Path_7867" data-name="Path 7867" d="M3227.978,1006.587a3.864,3.864,0,1,1,5.188,1.712A3.868,3.868,0,0,1,3227.978,1006.587Zm6.725-3.387a3.666,3.666,0,1,0-1.624,4.923,3.67,3.67,0,0,0,1.624-4.923Zm-6.529,3.29a3.645,3.645,0,1,1,4.9,1.615A3.651,3.651,0,0,1,3228.174,1006.49Zm6.335-3.19a3.447,3.447,0,1,0-1.527,4.63A3.452,3.452,0,0,0,3234.509,1003.3Z" transform="translate(-3227.565 -1000.985)" fill="#cbeada"/>
              </g>
              <g id="Group_6278" data-name="Group 6278" transform="translate(11.1 15.624)">
                <path id="Path_7868" data-name="Path 7868" d="M3248.6,1032.008a.41.41,0,1,0,.182-.551A.41.41,0,0,0,3248.6,1032.008Zm.538-.272a.192.192,0,1,1-.257-.085A.191.191,0,0,1,3249.136,1031.735Z" transform="translate(-3248.455 -1031.315)" fill="#cbeada"/>
                <path id="Path_7869" data-name="Path 7869" d="M3248.284,1031.828a.509.509,0,1,1,.683.227A.509.509,0,0,1,3248.284,1031.828Zm.735-.369a.313.313,0,0,0-.56.278.312.312,0,1,0,.556-.281Zm-.539.272a.291.291,0,1,1,.39.13A.289.289,0,0,1,3248.481,1031.731Zm.342-.172a.092.092,0,1,0-.042.124A.1.1,0,0,0,3248.822,1031.558Z" transform="translate(-3248.23 -1031.09)" fill="#cbeada"/>
              </g>
              <g id="Group_6279" data-name="Group 6279" transform="translate(5.309 4.129)">
                <path id="Path_7870" data-name="Path 7870" d="M3229.457,994a.41.41,0,1,0,.182-.55A.409.409,0,0,0,3229.457,994Zm.538-.272a.191.191,0,1,1-.257-.085A.192.192,0,0,1,3230,993.726Z" transform="translate(-3229.313 -993.305)" fill="#cbeada"/>
                <path id="Path_7871" data-name="Path 7871" d="M3229.134,993.818a.509.509,0,1,1,.683.227.5.5,0,0,1-.39.027.513.513,0,0,1-.3-.254Zm.735-.369a.316.316,0,0,0-.421-.139.313.313,0,0,0-.139.417.3.3,0,0,0,.182.154.3.3,0,0,0,.239-.018.313.313,0,0,0,.139-.417Zm-.538.272a.291.291,0,1,1,.52-.26.277.277,0,0,1,.015.221.3.3,0,0,1-.145.169A.289.289,0,0,1,3229.331,993.721Zm.341-.172a.093.093,0,1,0-.042.124.092.092,0,0,0,.046-.054.081.081,0,0,0-.007-.07Z" transform="translate(-3229.08 -993.08)" fill="#cbeada"/>
              </g>
            </g>
          </g>
          <g id="Group_6287" data-name="Group 6287" transform="translate(0 1.404)">
            <path id="Path_7872" data-name="Path 7872" d="M3216.5,1001.151a.538.538,0,0,1-.75-.136l-10.427-15.048a.539.539,0,0,1,.136-.75l8.528-5.909a.539.539,0,0,1,.75.136l10.427,15.048a.539.539,0,0,1-.136.75l-8.528,5.909h0Z" transform="translate(-3205.222 -979.213)" fill="#34ad6a"/>
            <g id="Group_6286" data-name="Group 6286" transform="translate(0.58 0.689)">
              <g id="Group_6282" data-name="Group 6282">
                <path id="Path_7873" data-name="Path 7873" d="M3215.636,981.72l-8.207,5.688,10.191,14.706,8.208-5.688Zm2.036,20.119-9.967-14.382,7.881-5.462,9.967,14.383-7.881,5.461Z" transform="translate(-3207.342 -981.651)" fill="#d3e9dd"/>
                <path id="Path_7874" data-name="Path 7874" d="M3217.35,1002.039l-10.191-14.706a.1.1,0,0,1,.024-.136l8.208-5.688a.1.1,0,0,1,.139.024l10.191,14.706a.1.1,0,0,1-.024.136l-8.207,5.688a.1.1,0,0,1-.136-.024Zm-9.973-14.739,10.08,14.546,8.044-5.573-.058-.081a.1.1,0,0,1-.025.139l-7.881,5.461a.1.1,0,0,1-.136-.024l-9.967-14.382a.1.1,0,0,1,.024-.136l-.082.057Zm.276.048,9.852,14.219,7.721-5.349L3215.372,982Zm7.768-5.625-.081.057a.1.1,0,0,1,.136.024l-.057-.082Z" transform="translate(-3207.141 -981.492)" fill="#d3e9dd"/>
              </g>
              <g id="Group_6283" data-name="Group 6283" transform="translate(5.573 6.465)">
                <path id="Path_7875" data-name="Path 7875" d="M3226.563,1009.1a3.766,3.766,0,1,0,.953-5.241,3.772,3.772,0,0,0-.953,5.241Zm6.009-4.164a3.547,3.547,0,1,1-4.936-.9A3.549,3.549,0,0,1,3232.572,1004.933Z" transform="translate(-3225.798 -1003.091)" fill="#d3e9dd"/>
                <path id="Path_7876" data-name="Path 7876" d="M3226.256,1008.932a3.865,3.865,0,1,1,5.38.974,3.867,3.867,0,0,1-5.38-.974Zm6.191-4.288a3.667,3.667,0,1,0-.926,5.1A3.671,3.671,0,0,0,3232.447,1004.644Zm-6.009,4.164a3.644,3.644,0,1,1,5.07.919A3.646,3.646,0,0,1,3226.438,1008.808Zm5.83-4.04a3.447,3.447,0,1,0-.871,4.8A3.45,3.45,0,0,0,3232.268,1004.768Z" transform="translate(-3225.569 -1002.869)" fill="#d3e9dd"/>
              </g>
              <g id="Group_6284" data-name="Group 6284" transform="translate(12.589 15.108)">
                <path id="Path_7877" data-name="Path 7877" d="M3249.168,1032.421a.411.411,0,1,0,.1-.572A.409.409,0,0,0,3249.168,1032.421Zm.5-.345a.191.191,0,1,1-.266-.048A.191.191,0,0,1,3249.665,1032.076Z" transform="translate(-3248.996 -1031.676)" fill="#d3e9dd"/>
                <path id="Path_7878" data-name="Path 7878" d="M3248.86,1032.248a.51.51,0,1,1,.707.13A.507.507,0,0,1,3248.86,1032.248Zm.674-.469a.312.312,0,1,0-.082.432.314.314,0,0,0,.082-.432Zm-.5.342a.291.291,0,1,1,.405.073A.293.293,0,0,1,3249.039,1032.121Zm.314-.218a.093.093,0,1,0-.024.13A.1.1,0,0,0,3249.353,1031.9Z" transform="translate(-3248.77 -1031.449)" fill="#d3e9dd"/>
              </g>
              <g id="Group_6285" data-name="Group 6285" transform="translate(5.258 4.53)">
                <path id="Path_7879" data-name="Path 7879" d="M3224.929,997.441a.411.411,0,1,0,.1-.572A.409.409,0,0,0,3224.929,997.441Zm.5-.345a.191.191,0,1,1-.266-.049A.19.19,0,0,1,3225.425,997.1Z" transform="translate(-3224.756 -996.697)" fill="#d3e9dd"/>
                <path id="Path_7880" data-name="Path 7880" d="M3224.62,997.268a.509.509,0,1,1,.708.13.509.509,0,0,1-.708-.13Zm.675-.469a.314.314,0,0,0-.436-.079.312.312,0,0,0,.121.562.29.29,0,0,0,.232-.051.311.311,0,0,0,.079-.432Zm-.5.345a.291.291,0,1,1,.478-.333.279.279,0,0,1,.045.218.3.3,0,0,1-.121.188.293.293,0,0,1-.405-.073Zm.314-.218a.094.094,0,1,0-.024.13.1.1,0,0,0,.039-.061A.094.094,0,0,0,3225.113,996.927Z" transform="translate(-3224.529 -996.47)" fill="#d3e9dd"/>
              </g>
            </g>
          </g>
        </g>
        <path id="Path_7881" data-name="Path 7881" d="M3235.759,1010.706a1.233,1.233,0,0,1-1.509-.133l-.332,1.781-.547-.626.329-1.784.433-.378.33.375a.647.647,0,0,0,.84.242l-.929-1.062.415-.36.895,1.025c.1-.245-.014-.5-.244-.765l-.412-.472.415-.36,1.814,2.074-.414.36-.556-.638-.009.009a.912.912,0,0,1-.134.311l.463.529-.414.36-.43-.49Z" transform="translate(-3224.858 -998.023)" fill="#cbeada"/>
      </g>
      <path id="Path_7882" data-name="Path 7882" d="M3218.6,1012.754c1.191,2.271,4.307,7.648,5.483,10.064a11.405,11.405,0,0,0,1.364,2.032c.647.466,3.475.856,5.086,1.067,2.407.315,4.031.514,4.814.251.269-.091.5.13,2.138-2.77,1.446-2.552,2.332-4.5,2.316-5.652-.006-.487.281-.206-1.258-2.522-1.984-2.985-2.54-3.913-4.327-6.423-.834-1.17-1-1.512-1.669-2.48-.176-.254-1.364.765-5.225,2.9a24.031,24.031,0,0,1-7.016,2.646c-1.346.278-1.912.5-1.706.892Z" transform="translate(-3166.375 -962.377)" fill="#5b83bb"/>
    </g>
    <g id="face" transform="translate(2951.9 705.716)">
      <g id="face_line" data-name="face line">
        <path id="Path_7883" data-name="Path 7883" d="M3199.352,820.79s3.578,7.481,7.358,15.413a10.221,10.221,0,0,1,1.255,4.763,6.19,6.19,0,0,1-1.983,4.557,35.628,35.628,0,0,1-3.783,2.347l1.01,5.649a2.217,2.217,0,0,1-.644,2.752c-.789.6-2.495,1.434-5.855,1.8a13.726,13.726,0,0,1-8.537-1.524c-1.11-.463-3.973-3.671-3.758-4.14.931-2.014-2.368-9.081-2.368-9.081a6.261,6.261,0,0,1-6.507-2.428c-.508-.614-1.34-2.162-.98-3.057a2.4,2.4,0,0,1,3.469-1.167c1.125.744,1.587,2.84,2.631,3.326,1.1.511,3.4-.953,3.4-.953s-.923-2.041-3.366-7.294c-2.28-4.908-2.731-6.692-2.6-7.754a4.477,4.477,0,0,1,2.219-3.293c1.141-.647,2.06-.354,4.971.07,4.461.647,7.787,1.328,11.5.711a7.467,7.467,0,0,0,2.57-.7Z" transform="translate(-3167.318 -805.175)" fill="#fff"/>
        <path id="HAIR_FILL" data-name="HAIR FILL" d="M3167.772,804.305c-.512-1.512-2.1-4.984-5.2-12.148-.562-1.3-1.065-3.027-.3-4.533a4.659,4.659,0,0,1,2.722-2.117c2.319-.75,3.628.308,7.482.832a49.322,49.322,0,0,0,7.179.076c1.959-.064,3.414-.717,3.568-.4.7,1.427,1.029,2.072,2.326,4.823,1.173,2.489,1.437,2.937,1.869,2.97.683.055,1.179-1.01,1.457-1.932.632-2.1-.744-4.088-1.059-4.7-.913-1.8-1.34-2.688-1.469-3.039-.106-.29.626-.6,2.116-2.193.923-.989,2.257-2.951,1.924-3.381,0,0-2.416.859-2.873.3-.287-.351.381-1.043.756-2.722.166-.747.4-2.812,0-2.419-.853.832-3.544,1.905-4.337,1.594-.559-.221.375-.369.56-2.047.251-2.274-.142-2.988-.254-3.045-.3-.148-2.141,1.733-4.24,2.855-1.509.807-3.363.254-9.71.036-5.516-.187-6.374.187-7.745.832-.819.387-3.831,2.159-4.5,4.875-.36,1.473.2,1.833-.605,3.061-.656.995-1.385.931-2.57,1.814a9.82,9.82,0,0,0-3.118,5.479,12.1,12.1,0,0,0,.4,5.4c.378,2.455-1.073,1.944-.883,2.761.1.411,1.723,1.122,1.829,1.131.732.048,1.31.006,1.361.115.339.717-1.43.668-1.218,1.343.172.556,1.938.762,3.018.862,1.76.163,1.479,3.423,2.026,3.39.5-.03.079-1.839,1.24-2.54a2.17,2.17,0,0,1,1.545-.411,3.737,3.737,0,0,1,1.966,1.814l1.442,2.174c-1.325.233,3.3-.907,3.3-.907Z" transform="translate(-3151.121 -770.213)" fill="#1d4591"/>
        <g id="Group_6290" data-name="Group 6290" transform="translate(0 0.011)">
          <path id="Path_7884" data-name="Path 7884" d="M3225.072,822.02c2.524,5.086,5.265,10.6,7.352,15.35a16.239,16.239,0,0,1,1.264,3.989,6.475,6.475,0,0,1-.989,4.007,8.339,8.339,0,0,1-3.487,2.954,17.8,17.8,0,0,1-17.872-.411" transform="translate(-3193.038 -806.364)" fill="none" stroke="#1d4591" stroke-linecap="round" stroke-width="1"/>
          <path id="Path_7885" data-name="Path 7885" d="M3192.292,838.871l-4.978-11c-.693-1.533-1.4-3.26-.841-4.848a4.494,4.494,0,0,1,1.826-2.174,4.251,4.251,0,0,1,2.2-.78,7.034,7.034,0,0,1,1.863.317,43.95,43.95,0,0,0,9.218.949,14.113,14.113,0,0,0,6.011-.677s6.278,12.012,7.823,16.248A19.513,19.513,0,0,1,3216.2,840a5.492,5.492,0,0,1-.326,2.691" transform="translate(-3175.551 -805.002)" fill="none" stroke="#1d4591" stroke-linecap="round" stroke-width="1"/>
          <path id="Path_7886" data-name="Path 7886" d="M3184.406,875.912a17.741,17.741,0,0,1-2.951,1.155c-.26.079-.744-.324-.88-.59-.363-.69-.472-.871-.886-1.645a3.265,3.265,0,0,0-1.058-1.2,3.212,3.212,0,0,0-1.863-.535c-.623.157-1.724.934-1.812,1.458a3.925,3.925,0,0,0,.545,2.4,6.568,6.568,0,0,0,1.588,1.82,5.5,5.5,0,0,0,1.969,1.116c.731.2,2.755.526,3.4.124" transform="translate(-3167.634 -841.979)" fill="none" stroke="#1d4591" stroke-linecap="round" stroke-width="1"/>
          <path id="Path_7887" data-name="Path 7887" d="M3199.82,896.04c2.474,4.848,2.728,7.164,2.323,9.783" transform="translate(-3185.002 -858)" fill="none" stroke="#1d4591" stroke-linecap="round" stroke-width="1"/>
          <path id="Path_7888" data-name="Path 7888" d="M3224.116,911.39a10.918,10.918,0,0,1,1.191,4.264c.4,2.192.278,3.184.187,3.248a7.888,7.888,0,0,1-5.226,2.471c-2.625.024-5.891.3-8.79-.563-1.872-.553-4.933-2.764-5.589-5.231" transform="translate(-3189.236 -868.708)" fill="none" stroke="#1d4591" stroke-linecap="round" stroke-width="1"/>
          <path id="Path_7889" data-name="Path 7889" d="M3186.948,793.9c1.557-.547,1.953-3.587,1.182-5.15-.717-1.452-1.473-2.9-2.268-4.448a15.88,15.88,0,0,0,4.445-5.921,6.148,6.148,0,0,1-3.154.523,11.672,11.672,0,0,0,.925-5.286,6.932,6.932,0,0,1-4.539,1.781,6.172,6.172,0,0,0,.39-5.15c-2.256,1.824-4.908,3.36-7.914,3.2-2.9-.154-5.788-.345-8.685-.481a12.588,12.588,0,0,0-4.382.7,7.673,7.673,0,0,0-4.255,3.169c-1.061,1.63-1.049,2.241-1.427,4.146a9.672,9.672,0,0,1-.372,1.367c-.1.224-.5.251-.937.451-3.7,1.7-5.516,6.562-3.992,11.77a2.278,2.278,0,0,1,.021,1.364,2.39,2.39,0,0,1-1.167,1.164c.581,1.273,2.189,1.6,3.581,1.461a2.212,2.212,0,0,1-1.47,1.388,3.884,3.884,0,0,0,3.4.8c.813,1.9,1.582,4.013,2.541,4.781" transform="translate(-3150.82 -770.25)" fill="none" stroke="#1d4591" stroke-linecap="round" stroke-width="1"/>
        </g>
        <g id="features" transform="translate(14.688 17.763)">
          <path id="Path_7890" data-name="Path 7890" d="M3208.286,843.339a3.3,3.3,0,0,0-3.3,2.419" transform="translate(-3203.296 -838.988)" fill="none" stroke="#1d4591" stroke-linecap="round" stroke-width="1"/>
          <path id="Path_7891" data-name="Path 7891" d="M3241.76,829.641a2.818,2.818,0,0,1,3.205-.339" transform="translate(-3228.947 -828.952)" fill="none" stroke="#1d4591" stroke-linecap="round" stroke-width="1"/>
          <path id="Path_7892" data-name="Path 7892" d="M3235.75,848.83q2.142,2.364,4.207,4.8a1.141,1.141,0,0,1,.323.6c.04.469-1.432,1.125-1.869,1.307" transform="translate(-3224.754 -842.819)" fill="none" stroke="#1d4591" stroke-linecap="round" stroke-width="1"/>
          <path id="Path_7893" data-name="Path 7893" d="M3238.1,882.52a5.208,5.208,0,0,1-6.781.324" transform="translate(-3221.663 -866.321)" fill="none" stroke="#1d4591" stroke-linecap="round" stroke-width="1"/>
          <path id="Path_7894" data-name="Path 7894" d="M3199.39,841.682c6.218-2.976,14.957-7.27,21.174-10.242" transform="translate(-3199.39 -830.688)" fill="none" stroke="#1d4591" stroke-linecap="round" stroke-width="1"/>
          <path id="Path_7895" data-name="Path 7895" d="M3199.429,855.395a4.581,4.581,0,0,0,2.39,2.761,3.809,3.809,0,0,0,2.434.445,7.549,7.549,0,0,0,2.562-1.134c1.243-.965,3.375-3.112,1.627-6.586" transform="translate(-3199.417 -844.249)" fill="none" stroke="#1d4591" stroke-linecap="round" stroke-width="1"/>
          <path id="Path_7896" data-name="Path 7896" d="M3242.53,835.789a4.687,4.687,0,0,0,3.844,2.9,4.585,4.585,0,0,0,4.212-2.253,5.2,5.2,0,0,0,.075-5" transform="translate(-3229.485 -830.688)" fill="none" stroke="#1d4591" stroke-linecap="round" stroke-width="1"/>
        </g>
        <g id="SHADES" transform="translate(14.912 18.476)">
          <path id="Path_7897" data-name="Path 7897" d="M3200.13,855.176l8.812-4.076a11.838,11.838,0,0,1,.6,1.954,5.027,5.027,0,0,1-.844,3.057,5.247,5.247,0,0,1-4.869,2.462,4.348,4.348,0,0,1-3.218-1.911,12.2,12.2,0,0,1-.484-1.485Z" transform="translate(-3200.13 -845.115)" fill="#1d4591"/>
          <path id="Path_7898" data-name="Path 7898" d="M3242.57,835.471l8.167-4.161a12.72,12.72,0,0,1,.363,2.93,5.3,5.3,0,0,1-1.57,3.311,4.451,4.451,0,0,1-4.264.977c-1.264-.454-2.694-3.057-2.694-3.057Z" transform="translate(-3229.736 -831.31)" fill="#1d4591"/>
          <g id="Group_6291" data-name="Group 6291" transform="translate(4.548 3.184)">
            <path id="Path_7899" data-name="Path 7899" d="M3256.186,841.84l-.426,2.716" transform="translate(-3243.485 -841.84)" fill="none" stroke="#ccd8e9" stroke-linecap="round" stroke-width="1"/>
            <path id="Path_7900" data-name="Path 7900" d="M3260.379,844.97c-.039.333-.067.5-.129.9" transform="translate(-3246.617 -844.023)" fill="none" stroke="#ccd8e9" stroke-linecap="round" stroke-width="1"/>
            <path id="Path_7901" data-name="Path 7901" d="M3215.454,859.77c-.051,1.21-.2,2.4-.284,3.375" transform="translate(-3215.17 -854.348)" fill="none" stroke="#ccd8e9" stroke-linecap="round" stroke-width="1"/>
            <path id="Path_7902" data-name="Path 7902" d="M3220.161,861.15c-.051.641-.066,1-.09,1.585" transform="translate(-3218.588 -855.31)" fill="none" stroke="#ccd8e9" stroke-linecap="round" stroke-width="1"/>
          </g>
        </g>
      </g>
    </g>
    <g id="PERSON" transform="translate(2919.865 732.873)">
      <path id="Path_7903" data-name="Path 7903" d="M3077.165,860.035c-5.416,1.669-10.893,3.151-16.306,4.826-4.506,1.394-9.807,2.558-13.3,5.933a7.084,7.084,0,0,0-2.308,4.391c-.275,1.89-.795,4.07.317,5.794,1.179,1.827,3.683,3.157,5.474,4.288,2.42,1.53,4.866,3.015,7.264,4.581,4.735,3.094,9.565,6.121,14.2,9.353a48.73,48.73,0,0,1,4.905,4.01,15.008,15.008,0,0,1,3,3.157,52.24,52.24,0,0,0,4.052,6.3c1.769,2.256,3.378,4.621,5.122,6.895a117.492,117.492,0,0,0,10.987,12.111q6.605,6.5,13.188,13.019c1.857,1.833,3.947,3.835,6.414,4.811,2.126.841,4.4.475,6.608.221.572-.067.581-.974,0-.907-1.98.23-4.094.614-6.03-.06-2.385-.835-4.39-2.788-6.159-4.521-3.728-3.65-7.378-7.376-11.126-11.007-3.7-3.581-7.355-7.209-10.684-11.138-1.757-2.075-3.36-4.249-4.929-6.465-1.47-2.071-3.157-3.977-4.591-6.069-.971-1.415-1.546-3.127-2.646-4.43a32.109,32.109,0,0,0-3.426-3.33,94.669,94.669,0,0,0-10.548-7.5c-4.536-3.009-9.042-6.057-13.677-8.909-1-.614-2-1.234-2.972-1.89a12.667,12.667,0,0,1-3.636-2.979,5.1,5.1,0,0,1-.471-3.408,13.766,13.766,0,0,1,.563-3.281c.868-2.238,3.363-3.934,5.446-4.9a69.012,69.012,0,0,1,8.449-2.955c5.667-1.775,11.4-3.317,17.077-5.065.557-.172.318-1.046-.242-.874h0Z" transform="translate(-3044.885 -860.016)" fill="#1b4791"/>
      <path id="Path_7904" data-name="Path 7904" d="M3128.845,898.611a140.719,140.719,0,0,0,15.02-7.947c.5-.3.042-1.089-.456-.783a140.842,140.842,0,0,1-15.02,7.947c-.53.242-.07,1.022.456.783Z" transform="translate(-3102.973 -880.801)" fill="#1b4791"/>
      <path id="Path_7905" data-name="Path 7905" d="M3164.027,929.662a78.023,78.023,0,0,1,10.46-3.729.454.454,0,0,0-.242-.874,79.538,79.538,0,0,0-10.675,3.819c-.535.23-.072,1.01.457.783Z" transform="translate(-3127.513 -905.378)" fill="#1b4791"/>
      <path id="Path_7906" data-name="Path 7906" d="M3102.58,914.981a8.525,8.525,0,0,1,4.512-.03,33.138,33.138,0,0,1,5.534,2.144,92.135,92.135,0,0,0,10.254,3.913c.557.175.8-.7.242-.874a119.622,119.622,0,0,1-11.966-4.69c-2.951-1.288-5.661-2.132-8.821-1.337a.454.454,0,0,0,.242.874h0Z" transform="translate(-3084.736 -897.534)" fill="#1b4791"/>
      <path id="Path_7907" data-name="Path 7907" d="M3116.953,906.274a9.226,9.226,0,0,1,3.293,3.281c.333.475,1.119.021.783-.457a10.158,10.158,0,0,0-3.619-3.6c-.523-.254-.983.526-.457.783h0Z" transform="translate(-3094.996 -891.706)" fill="#1b4791"/>
      <path id="Path_7908" data-name="Path 7908" d="M3151.849,976.219c1.192,1.612,1.213,3.209,1.5,5.129.33,2.193.42,3.992,1.787,5.867.342.466,1.128.015.784-.457-2.417-3.308-.871-7.726-3.288-11-.342-.463-1.131-.012-.783.457Z" transform="translate(-3119.442 -940.625)" fill="#1b4791"/>
      <path id="Path_7909" data-name="Path 7909" d="M3200.956,917.058a3.888,3.888,0,0,0-2.6,3.81,10.611,10.611,0,0,0,2.619,5.978,19.14,19.14,0,0,0,11.621,7.37.46.46,0,0,0,.557-.556c-.179-1.225-.741-5.567,1.1-5.613.983-.024,2.214,1.083,2.788,1.793.366.454,1-.191.641-.641-.913-1.128-2.845-2.613-4.36-1.884-1.975.956-1.292,4.887-1.046,6.586l.556-.556a17.619,17.619,0,0,1-9.565-5.219,16.6,16.6,0,0,1-3.23-4.324c-.819-1.769-1.479-5.2,1.156-5.864a.454.454,0,0,0-.242-.874h0Z" transform="translate(-3151.943 -899.802)" fill="#1b4791"/>
      <path id="Path_7910" data-name="Path 7910" d="M3243.9,944.308a4.224,4.224,0,0,1,4.14,2.84c.835,1.793,1.715,3.5,2.71,5.21q2.985,5.14,6.229,10.121c4.319,6.58,8.592,13.385,13.717,19.369a69.863,69.863,0,0,0,6.753,6.8c2.168,1.92,4.219,3.907,6.979,4.935a26.1,26.1,0,0,0,9.145,1.331c1.273,0,2.54-.07,3.81-.148.415-.027.826-.061,1.24-.076.218-.009.738.109.55-.109-.211-.248-.052.194-.108.327-.091.218-.118.457-.218.677a6.962,6.962,0,0,1-1.545,1.944c-2.915,2.837-6.6,4.96-10.061,7.031a.454.454,0,0,0,.457.783,62.916,62.916,0,0,0,9.635-6.608,7.347,7.347,0,0,0,2.582-3.46c.242-1.094-.13-1.527-1.215-1.494-2.637.076-5.238.326-7.881.145-3.8-.26-7.33-1.209-10.245-3.747-2.356-2.05-4.708-4.095-6.87-6.35-5.952-6.214-10.563-13.684-15.305-20.833-2.661-4.016-5.168-8.126-7.569-12.3-.986-1.718-1.621-3.753-2.764-5.362a4.891,4.891,0,0,0-4.167-1.923.454.454,0,0,0,0,.907h0Z" transform="translate(-3183.412 -918.191)" fill="#1b4791"/>
      <path id="Path_7911" data-name="Path 7911" d="M3269.2,908.686c2.138-.581,3.278,3.345,3.729,4.814a23.2,23.2,0,0,1,1.251,6.441l.774-.321c-.907-.9-4.387-4.14-5.482-1.969-.263.52.52.98.783.457.569-1.131,3.541,1.639,4.058,2.15a.459.459,0,0,0,.774-.32,23.344,23.344,0,0,0-1.89-8.51c-.762-1.772-1.93-4.249-4.237-3.62a.454.454,0,0,0,.242.874h0Z" transform="translate(-3200.975 -893.287)" fill="#1b4791"/>
      <path id="Path_7912" data-name="Path 7912" d="M3269.742,934.118a19.122,19.122,0,0,0,4.524,10.176c3.087,3.638,6.124,7.382,9.5,10.766,3.251,3.26,7.161,5.767,10.381,9.054,3.169,3.239,5.522,7.143,8.3,10.7,2.335,2.985,5.692,6.644,9.838,6.305.577-.048.583-.956,0-.907-5.217.426-9.024-5.712-11.655-9.372-1.47-2.044-2.927-4.1-4.584-6a44.378,44.378,0,0,0-5.719-5.277,85.4,85.4,0,0,1-11.376-11.189c-3.692-4.306-7.63-8.337-8.3-14.249-.063-.575-.974-.581-.907,0h0Z" transform="translate(-3201.741 -911.409)" fill="#1b4791"/>
      <path id="Path_7913" data-name="Path 7913" d="M3276.335,901.705a25.346,25.346,0,0,0,6.831-1.748c2.216-.844,4.582-2.2,7.01-2.129,2.936.085,4.827,2.093,6.783,4.019q2.808,2.763,5.6,5.537c3.8,3.768,7.56,7.569,11.238,11.452,2.867,3.027,5.755,6.351,9.951,7.427a.454.454,0,0,0,.242-.874c-4.735-1.213-7.931-5.513-11.161-8.882-3.838-4-7.756-7.92-11.7-11.815-1.851-1.83-3.653-3.759-5.61-5.48a8.285,8.285,0,0,0-5.1-2.271c-2.22-.133-4.252.868-6.269,1.666a28.072,28.072,0,0,1-7.821,2.2c-.577.051-.583.959,0,.907h0Z" transform="translate(-3206.04 -885.767)" fill="#1b4791"/>
      <path id="Path_7914" data-name="Path 7914" d="M3419.428,947.8c5.126-3.136,10.31-6.181,15.218-9.65a58.311,58.311,0,0,0,5.606-4.264c.759-.687,1.512-1.379,2.29-2.044.4-.339,1.412-1.494,1.977-1.47.584.027,1.633,1.545,2,1.941,1.041,1.134,2.05,2.3,3.076,3.444a14.2,14.2,0,0,1,2.029,2.64c.254.466.725,1.076.52,1.624-.188.5-.971,1.076-1.346,1.424-4.838,4.5-10.542,8.11-16.048,11.724-2.982,1.956-5.964,3.874-8.873,5.933-2.882,2.038-5.755,3.012-9.27,2.047a.454.454,0,0,0-.242.874,10.391,10.391,0,0,0,8.371-1.089c2.761-1.627,5.335-3.662,8.035-5.4,6.353-4.091,12.906-8.207,18.513-13.309a5.949,5.949,0,0,0,1.809-2.056c.254-.8-.472-1.866-.85-2.528a16.577,16.577,0,0,0-2.168-2.71c-1.14-1.282-2.262-2.589-3.444-3.834-1.125-1.185-1.809-2.135-3.287-1.064-1.633,1.182-3.012,2.667-4.561,3.952-6.063,5.029-13.109,8.93-19.8,13.025-.5.305-.042,1.089.457.783h0Z" transform="translate(-3303.802 -908.535)" fill="#1b4791"/>
      <path id="Path_7915" data-name="Path 7915" d="M3337.6,935.722c3.529,2.809,5.5,6.874,7.608,10.757a63.243,63.243,0,0,0,7.318,10.75,60.557,60.557,0,0,0,9.245,8.794c3.287,2.525,7.152,5.57,11.506,5.464a18.849,18.849,0,0,0,5.737-1.316c1.388-.478,4.337-1.86,5.516-.429.371.451,1.01-.193.641-.641-1.742-2.108-5.77,0-7.733.656a11.617,11.617,0,0,1-6.638.553,21.08,21.08,0,0,1-6.374-3.46,59.9,59.9,0,0,1-18.09-20.195c-2.283-4.14-4.315-8.561-8.1-11.573-.451-.36-1.1.278-.641.641h0Z" transform="translate(-3248.972 -912.309)" fill="#1b4791"/>
      <path id="Path_7916" data-name="Path 7916" d="M3421.619,1047.3c2.659,1.391,5.458,1.5,8.38,1.839.578.067.574-.841,0-.907-2.755-.321-5.407-.4-7.92-1.715-.517-.269-.977.511-.456.783h0Z" transform="translate(-3307.536 -990.082)" fill="#1b4791"/>
      <path id="Path_7917" data-name="Path 7917" d="M3371.925,1091.395c2.474-2.02,5.365-3.272,8.026-4.993.487-.315.033-1.1-.457-.783-2.728,1.763-5.673,3.063-8.21,5.135-.453.369.194,1.007.641.641h0Z" transform="translate(-3272.472 -1017.344)" fill="#1b4791"/>
      <g id="POCKET" transform="translate(51.863 43.858)">
        <path id="Path_7918" data-name="Path 7918" d="M3216.962,1011.928a40.049,40.049,0,0,0,7.118-2.416c1.156-.5,2.3-1.055,3.415-1.636a15.707,15.707,0,0,1,2.957-1.66c.53-.118.314-.215.722.354.327.457.644.922.962,1.388q1.275,1.855,2.51,3.735,1.08,1.647,2.129,3.314c.792,1.258,1.485,2,.768,3.508a23.455,23.455,0,0,1-3.369,5.767c-.97,1.059-2.389.629-3.675.481-1.514-.175-3.021-.4-4.527-.632a5.9,5.9,0,0,1-1.228-.221c-.7-.3-.949-1.022-1.285-1.63-.644-1.182-1.309-2.353-1.981-3.52-1.427-2.492-2.876-4.972-4.252-7.493-.279-.514-1.062-.055-.783.456,1.282,2.356,2.631,4.675,3.967,7,.669,1.164,1.334,2.328,1.984,3.5a7.406,7.406,0,0,0,1.361,2.214,4.837,4.837,0,0,0,2.256.611c1.131.175,2.262.342,3.4.49,1.561.2,3.913.931,5.18-.354a19.237,19.237,0,0,0,3.048-4.86c.623-1.219,1.766-2.706,1-4.064-1.282-2.289-2.843-4.485-4.3-6.665-.732-1.092-1.467-2.177-2.223-3.251-.266-.378-.617-1.167-1.1-1.279-.644-.148-1.412.614-1.927.907q-1.833,1.048-3.738,1.963a41.364,41.364,0,0,1-8.633,3.121c-.568.13-.327,1,.242.874h0Z" transform="translate(-3216.385 -1005.047)" fill="#1b4791"/>
        <path id="Path_7919" data-name="Path 7919" d="M3221.046,1018.494c5.162-.862,10.064-3.478,14.325-6.426.478-.33.024-1.116-.457-.783-4.2,2.912-9.018,5.486-14.11,6.335-.574.1-.329.971.242.874h0Z" transform="translate(-3219.24 -1009.342)" fill="#1b4791"/>
      </g>
    </g>
    <g id="LEGS" transform="translate(3025.391 760.462)">
      <g id="FEET_FILL" data-name="FEET FILL" transform="translate(86.946 32.781)">
        <path id="Path_7920" data-name="Path 7920" d="M3720.741,1071.4c-.151.236-.333.581-.577,1-.345.589-1.122,1.917-1.292,2.262-.81,1.645-1.052,2.083-1.052,2.083h0s.53,1.325.953,2.477c1,2.71.8,2.3,2.25,5.688a5.442,5.442,0,0,1,1.645,1.512,8.963,8.963,0,0,0,3.771,3.408,4.323,4.323,0,0,0,3.6-.106,5.874,5.874,0,0,0,2.612-2.162c2.786-3.88,1.158-1.409,4.28-5.948,1.981-2.882,3.112-4.527,4.557-7.049a32.272,32.272,0,0,0,3.6-7.844c.436-1.53,1.171-6.184.4-6.9-.508-.475-2.773.215-3.3.668-.608.52-.693,1.261-2.876,4.149-1.805,2.386-2.924,2.969-5.812,5.743-2.141,2.056-4.421,3.257-6.381,3.251a10.03,10.03,0,0,1-4.663-1.448A11.216,11.216,0,0,0,3720.741,1071.4Z" transform="translate(-3706.792 -1059.651)" fill="#fff"/>
        <path id="Path_7921" data-name="Path 7921" d="M3681.384,1166.591c.559,1.191,1.739,2.232,2.643,4.954.632,1.9.182,4.219,1.415,7.373a6.755,6.755,0,0,0,3.091,3.834c1.993,1.092,4.1.823,6.221.148,3.5-1.115,3.13-.81,6.329-1.675a18.725,18.725,0,0,1,7.016-.493,13.824,13.824,0,0,0,6.611-.977,14.769,14.769,0,0,0,4.977-3.762c.792-1.267,1.642-3.862.923-4.542-.465-.442-1.518-.16-2.135.052,0,0-7,1.267-8.192,1.192a23.418,23.418,0,0,1-9.369-2.531,19.45,19.45,0,0,1-6.568-5.362,9.715,9.715,0,0,1-2.086-3.723c-.067-.26-1.276.792-3.723,2.087-1.144.6-1.587.65-5.512,2.383C3681.867,1166.059,3681.205,1166.207,3681.384,1166.591Z" transform="translate(-3681.355 -1130.378)" fill="#fff"/>
      </g>
      <path id="Path_7922" data-name="Path 7922" d="M3490.05,980.108q10.7-9.771,21.4-19.541c4.4-4.019,9.32-7.705,15.1-8.543,4.4-.638,5.891-1.657,9.931.714,2.252,1.325,6.843,5.975,7.793,8.5,2.652,7.052,5.419,14.621,6.339,18.1,2.259,8.534,6.765,18.795,11.431,30.987a2.054,2.054,0,0,1,.2,1.049,1.935,1.935,0,0,1-.931,1.146c-4.906,3.451-9.033,6.1-14.807,7.412a3.776,3.776,0,0,1-2.31.06,5.275,5.275,0,0,1-1.914-2.561c-3.666-12.529-7.869-24.341-12.541-37.383-1.8-5.011-3.581-6.444-6.1-14.512" transform="translate(-3460.956 -951.249)" fill="none" stroke="#1b4791" stroke-linecap="round" stroke-width="1"/>
      <path id="Path_7923" data-name="Path 7923" d="M3596.08,1010.86c2.241,1.058,1.067.429,2.9,2.141" transform="translate(-3534.922 -992.833)" fill="none" stroke="#1b4791" stroke-linecap="round" stroke-width="1"/>
      <path id="Path_7924" data-name="Path 7924" d="M3393.839,1038.19c12.133-8.029,26.3-12.432,38.778-19.856,4.657-2.77,9.045-5.214,15.009-6.8,1.832-.487,9.616,1.76,11.228,2.8" transform="translate(-3393.839 -993.255)" fill="none" stroke="#1b4791" stroke-linecap="round" stroke-width="1"/>
      <path id="Path_7925" data-name="Path 7925" d="M3462.81,1102.339a51.863,51.863,0,0,0,14.757-7.067c3.417-2.244,6.623-4.833,10.122-6.928s11.745-4.708,16.333-6.193" transform="translate(-3441.953 -1042.565)" fill="none" stroke="#1b4791" stroke-linecap="round" stroke-width="1"/>
      <path id="Path_7926" data-name="Path 7926" d="M3576.24,1088.553c9.6-1.763,14.279,1.506,20,5.038" transform="translate(-3521.082 -1046.688)" fill="none" stroke="#1b4791" stroke-linecap="round" stroke-width="1"/>
      <path id="Path_7927" data-name="Path 7927" d="M3690.489,1044.81c3.176,1.376,7.515,3.955,10.615,5.552a34.285,34.285,0,0,1,3.716,2.519s-.719,2.334-1.3,3.6c-1.848,4.037-3.26,5.773-5.21,9.765" transform="translate(-3600.781 -1016.517)" fill="none" stroke="#1b4791" stroke-linecap="round" stroke-width="1"/>
      <path id="Path_7928" data-name="Path 7928" d="M3726.944,1070.486c2.359,1.736,5.622,2.979,8.376,2.087s4.49-3,6.716-4.914c2.25-1.935,3.266-4.188,5.117-6.889a7.15,7.15,0,0,1,2.972-1.76c1.755-.248,2.44,1.279,1.824,4.826a22.084,22.084,0,0,1-1.358,4.3,50.971,50.971,0,0,1-6.571,11.8,61.6,61.6,0,0,0-3.635,5,12.639,12.639,0,0,1-3.046,3.692,4.884,4.884,0,0,1-5.99.16c-2.072-1.412-2.658-3.844-4.92-4.778" transform="translate(-3625.852 -1026.405)" fill="none" stroke="#1b4791" stroke-linecap="round" stroke-width="1"/>
      <path id="Path_7929" data-name="Path 7929" d="M3681.08,1177.74c1.972,3.093,3.348,5.706,3.438,9.384a11.381,11.381,0,0,0,1.8,5.362,6.029,6.029,0,0,0,5.34,2.658,20.03,20.03,0,0,0,6.009-1.406,25.422,25.422,0,0,1,7.57-1.575c2.077-.033,4.157.375,6.226.184a11.535,11.535,0,0,0,9.052-6.366" transform="translate(-3594.217 -1109.248)" fill="none" stroke="#1b4791" stroke-linecap="round" stroke-width="1"/>
      <path id="Path_7930" data-name="Path 7930" d="M3717.71,1160.79a19.04,19.04,0,0,0,11,10.064,23.767,23.767,0,0,0,15.244.405c.747-.221,1.785-.587,2.359-.039.426.405.021,2.468-.351,3.124" transform="translate(-3619.77 -1097.424)" fill="none" stroke="#1b4791" stroke-linecap="round" stroke-width="1"/>
      <path id="Path_7931" data-name="Path 7931" d="M3701.494,1201.61a4.1,4.1,0,0,0,1.615,3.366" transform="translate(-3608.456 -1125.9)" fill="none" stroke="#1b4791" stroke-linecap="round" stroke-width="1"/>
      <path id="Path_7932" data-name="Path 7932" d="M3739.95,1139.58a3.988,3.988,0,0,0,2.259.472" transform="translate(-3635.285 -1082.628)" fill="none" stroke="#1b4791" stroke-linecap="round" stroke-width="1"/>
    </g>
    <g id="BEANBAG" transform="translate(2923.084 741.442)">
      <path id="Path_7933" data-name="Path 7933" d="M3152.412,909.63a55.3,55.3,0,0,1-10.439,1.34c-3.593.148-8.912.057-12.293,1.276" transform="translate(-3107.256 -903.196)" fill="none" stroke="#1b4791" stroke-linecap="round" stroke-width="1"/>
      <path id="Path_7934" data-name="Path 7934" d="M3061.305,947.57a56.026,56.026,0,0,0-3.084,19.523c.078,5.353,0,12.895.4,18.235.808,10.793-2.2,16.164-3.024,26.956s5.843,26.663,11.525,31.224c5.443,4.37,9.277,4.149,16.245,4.572s13.605-.829,20.585-.8c12.619.045,29.823.638,42.421,1.382,20.712,1.219,34.543,1.651,54.838-2.655,12.389-2.628,22.317-5.667,32.717-12.9,4.188-2.912,10.242-10.9,8.068-15.519" transform="translate(-3055.529 -929.662)" fill="none" stroke="#1b4791" stroke-linecap="round" stroke-width="1"/>
      <path id="Path_7935" data-name="Path 7935" d="M3236.67,1146.343c5.875,4.938,12.22,3.233,15.414,2.969,12.795-1.055,18.111-2.661,28.009-2.969,4.974-.155,10.551-1.025,15.516-.7,8.879.572,8.858.659,13.853,2.217,8.513,2.652,19.53,21.229,32.98,19.868" transform="translate(-3181.892 -1067.785)" fill="none" stroke="#1b4791" stroke-linecap="round" stroke-width="1"/>
      <path id="Path_7936" data-name="Path 7936" d="M3505.49,1121.982c6.571-2.084,24.61-5.9,31.248.378" transform="translate(-3369.419 -1049.191)" fill="none" stroke="#1b4791" stroke-linecap="round" stroke-width="1"/>
      <path id="Path_7937" data-name="Path 7937" d="M3124.078,981.34c-3.493,0,4.221,17.972,4.4,20.143.684,8.247,1.294,22.239,4.167,25.762" transform="translate(-3102.716 -953.22)" fill="none" stroke="#1b4791" stroke-linecap="round" stroke-width="1"/>
      <path id="Path_7938" data-name="Path 7938" d="M3179.04,1190.11c3.626,7.86,4.905,12.347,9.277,17.08s14.646,8.858,21.039,9.649" transform="translate(-3141.689 -1098.857)" fill="none" stroke="#1b4791" stroke-linecap="round" stroke-width="1"/>
      <path id="Path_7939" data-name="Path 7939" d="M3210.24,1075.5c5.359,6.653,12.005,16.6,13.871,24.933" transform="translate(-3163.454 -1018.906)" fill="none" stroke="#1b4791" stroke-linecap="round" stroke-width="1"/>
      <path id="Path_7940" data-name="Path 7940" d="M3284.609,889.8c3.451-.946,3.741-1.875,7.772-1.231,1.255.2,3.717,1.7,4.261,2.849" transform="translate(-3215.334 -888.353)" fill="none" stroke="#1b4791" stroke-linecap="round" stroke-width="1"/>
      <path id="Path_7941" data-name="Path 7941" d="M3608.94,1187.411a24.607,24.607,0,0,0,13.363-10.191" transform="translate(-3441.586 -1089.865)" fill="none" stroke="#1b4791" stroke-linecap="round" stroke-width="1"/>
    </g>
    <g id="SPARKLE" transform="translate(2887.428 684.553)">
      <g id="Group_6292" data-name="Group 6292" transform="translate(100.949 0)">
        <path id="Path_7942" data-name="Path 7942" d="M3311.2,719.393a5.888,5.888,0,0,1-3.523,3.886c-.366.151-.49.774,0,.874a4.983,4.983,0,0,1,3.792,3.187.458.458,0,0,0,.874,0A5.748,5.748,0,0,1,3316,723.8a.457.457,0,0,0,0-.874,6.533,6.533,0,0,1-3.926-3.538c-.214-.535-1.091-.3-.874.242a7.533,7.533,0,0,0,4.557,4.17v-.874a6.7,6.7,0,0,0-4.291,4.17h.874a5.879,5.879,0,0,0-4.425-3.822v.874a6.837,6.837,0,0,0,4.158-4.521c.139-.565-.734-.807-.874-.242h0Z" transform="translate(-3296.493 -713.369)" fill="#1d4591"/>
        <path id="Path_7943" data-name="Path 7943" d="M3355.147,734a8.173,8.173,0,0,1-4.333,5.752.458.458,0,0,0,.109.829,6.4,6.4,0,0,1,4.539,4.705.457.457,0,0,0,.874,0,7.675,7.675,0,0,1,4.382-5.2c.326-.124.493-.647.109-.829a8.648,8.648,0,0,1-4.805-5.25c-.178-.553-1.056-.318-.874.242a9.557,9.557,0,0,0,5.222,5.794c.037-.275.073-.553.11-.829a8.6,8.6,0,0,0-5.017,5.839h.874a7.322,7.322,0,0,0-5.174-5.337c.036.275.073.554.108.829a9.018,9.018,0,0,0,4.748-6.293c.109-.571-.765-.813-.874-.242h0Z" transform="translate(-3326.658 -723.565)" fill="#1d4591"/>
        <path id="Path_7944" data-name="Path 7944" d="M3329.64,758.674a3.425,3.425,0,0,1-1.626,1.663c-.387.178-.221.711.109.829a3.4,3.4,0,0,1,1.7,1.491.457.457,0,0,0,.783,0,4.726,4.726,0,0,1,1.648-1.811.456.456,0,0,0-.23-.844c-.744-.045-1.24-.907-1.672-1.421-.378-.448-1.016.2-.641.641.644.762,1.234,1.621,2.313,1.684-.076-.281-.151-.562-.23-.844a5.577,5.577,0,0,0-1.972,2.138h.783a4.406,4.406,0,0,0-2.244-1.908l.108.829a4.186,4.186,0,0,0,1.954-1.99c.245-.526-.535-.986-.783-.457h0Z" transform="translate(-3310.75 -740.829)" fill="#1d4591"/>
        <path id="Path_7945" data-name="Path 7945" d="M3274.09,745.447a.454.454,0,0,0,0-.907.454.454,0,0,0,0,.907Z" transform="translate(-3272.984 -731.14)" fill="#1d4591"/>
        <path id="Path_7946" data-name="Path 7946" d="M3271.88,701.137a.454.454,0,0,0,0-.907.454.454,0,0,0,0,.907Z" transform="translate(-3271.442 -700.23)" fill="#1d4591"/>
        <path id="Path_7947" data-name="Path 7947" d="M3340.79,737.347a.454.454,0,0,0,0-.907.454.454,0,0,0,0,.907Z" transform="translate(-3319.513 -725.49)" fill="#1d4591"/>
        <path id="Path_7948" data-name="Path 7948" d="M3348.29,781.067a.454.454,0,0,0,0-.907.454.454,0,0,0,0,.907Z" transform="translate(-3324.745 -755.989)" fill="#1d4591"/>
        <path id="Path_7949" data-name="Path 7949" d="M3328.28,785.047a.454.454,0,0,0,0-.907.454.454,0,0,0,0,.907Z" transform="translate(-3310.787 -758.765)" fill="#1d4591"/>
        <path id="Path_7950" data-name="Path 7950" d="M3359.54,796.087a.454.454,0,0,0,0-.907.454.454,0,0,0,0,.907Z" transform="translate(-3332.594 -766.466)" fill="#1d4591"/>
      </g>
      <g id="Group_6293" data-name="Group 6293" transform="translate(0 53.093)">
        <path id="Path_7951" data-name="Path 7951" d="M2972.327,888.777a5.593,5.593,0,0,1-3.341,3.686c-.366.151-.49.774,0,.874a4.712,4.712,0,0,1,3.6,3.021.457.457,0,0,0,.874,0,5.445,5.445,0,0,1,3.469-3.354.457.457,0,0,0,0-.874,6.239,6.239,0,0,1-3.724-3.354c-.218-.532-1.094-.3-.874.242a7.238,7.238,0,0,0,4.357,3.989v-.874a6.427,6.427,0,0,0-4.1,3.989h.874a5.622,5.622,0,0,0-4.23-3.656v.874a6.538,6.538,0,0,0,3.976-4.322c.139-.565-.734-.807-.874-.242h0Z" transform="translate(-2959.276 -884.628)" fill="#1d4591"/>
        <path id="Path_7952" data-name="Path 7952" d="M2941.983,935.035a8.308,8.308,0,0,1-3.97,4.055c-.387.176-.221.714.109.829a8.415,8.415,0,0,1,4.285,3.717.458.458,0,0,0,.783,0,11.325,11.325,0,0,1,4.016-4.394.457.457,0,0,0-.23-.844c-1.963-.1-3.136-2.1-4.282-3.453-.378-.445-1.016.2-.641.641,1.355,1.6,2.631,3.6,4.924,3.72l-.23-.844a12.209,12.209,0,0,0-4.343,4.72h.783a9.394,9.394,0,0,0-4.829-4.134l.109.828a9.034,9.034,0,0,0,4.294-4.379c.242-.526-.538-.989-.783-.457h0Z" transform="translate(-2937.739 -916.954)" fill="#1d4591"/>
        <path id="Path_7953" data-name="Path 7953" d="M2976.635,922.268a3.247,3.247,0,0,1-1.542,1.578c-.387.178-.221.711.109.829a3.214,3.214,0,0,1,1.609,1.412.457.457,0,0,0,.783,0,4.478,4.478,0,0,1,1.564-1.718.456.456,0,0,0-.23-.844c-.7-.042-1.171-.865-1.578-1.346-.378-.448-1.016.2-.641.641.62.732,1.182,1.548,2.219,1.612l-.23-.844a5.38,5.38,0,0,0-1.887,2.044h.783a4.218,4.218,0,0,0-2.149-1.83l.108.829a4,4,0,0,0,1.869-1.9c.245-.526-.535-.986-.784-.457h0Z" transform="translate(-2963.606 -908.049)" fill="#1d4591"/>
        <path id="Path_7954" data-name="Path 7954" d="M2938.06,913.727a.454.454,0,0,0,0-.907.454.454,0,0,0,0,.907Z" transform="translate(-2937.622 -901.625)" fill="#1d4591"/>
        <path id="Path_7955" data-name="Path 7955" d="M3002.43,918.637a.454.454,0,0,0,0-.907.454.454,0,0,0,0,.907Z" transform="translate(-2982.527 -905.05)" fill="#1d4591"/>
        <path id="Path_7956" data-name="Path 7956" d="M2964.42,889.327a.454.454,0,0,0,0-.907.454.454,0,0,0,0,.907Z" transform="translate(-2956.011 -884.603)" fill="#1d4591"/>
        <path id="Path_7957" data-name="Path 7957" d="M3012.39,876.707a.454.454,0,0,0,0-.907.454.454,0,0,0,0,.907Z" transform="translate(-2989.474 -875.8)" fill="#1d4591"/>
        <path id="Path_7958" data-name="Path 7958" d="M2952.64,878.667a.454.454,0,0,0,0-.907.454.454,0,0,0,0,.907Z" transform="translate(-2947.793 -877.167)" fill="#1d4591"/>
        <path id="Path_7959" data-name="Path 7959" d="M2996.82,928.537a.454.454,0,0,0,0-.907.454.454,0,0,0,0,.907Z" transform="translate(-2978.613 -911.956)" fill="#1d4591"/>
      </g>
    </g>
  </g>
</svg>
