<svg xmlns="http://www.w3.org/2000/svg" width="274.124" height="232.793" viewBox="0 0 274.124 232.793">
  <g id="BETTER" transform="translate(-4230.906 -1830.487)">
    <g id="shirt_fill" data-name="shirt fill" transform="translate(4263.555 1903.717)">
      <path id="Path_7798" data-name="Path 7798" d="M4616.216,2066.972c-.377-.062,6,10.045,7.047,11.033,1.361,1.277-1.371,5.409-1.614,6.062-2.167,5.793-4.029,17.58-3.866,24.168,0,0,.01.334.432,41.153.153,14.649-.182,27.557-.432,37.254-.185,7.1-.4,19.438-.4,19.438l-.016,4.383a33.333,33.333,0,0,0,5.114,1.329,84.447,84.447,0,0,0,15.188.162,87.919,87.919,0,0,0,10.052-1.741s-.136-5.7-.049-10.139c.13-6.66.322-1.063.049-21.2-.146-10.738-.247-18.476-1.134-32.3-.67-10.426-1.014-15.7-1.517-18.843-1.44-8.983-1.079-6.92-3.363-17.67a119.791,119.791,0,0,1-2.459-15.5c-.094-.8-.2-4.035-.568-12.021a27.37,27.37,0,0,1-.1-5.133c.584-2.651,2.7-4.789,3.239-5.777,1.813-3.3,4.952-10.692,4.331-11.046-.452-.257-1.644,2.739-4.98,5.2a26.191,26.191,0,0,1-13.213,4.851,22.237,22.237,0,0,1-11.744-3.659Z" transform="translate(-4523.303 -2058.693)" fill="#c3d2e7"/>
      <path id="Path_7799" data-name="Path 7799" d="M4692.868,2055.385c-.419.763-.709,4.782-3.146,9.292-2.134,3.951-4.873,7.566-4.873,10.325,0,.893.133,1.748.484,5.347.543,5.572.221,6.189.394,11.429a84.326,84.326,0,0,0,2.121,13.551c.676,2.576,3.249,15.529,3.567,18.492.657,6.134,2.388,31.507,2.446,35.805.361,25.955,0,34.223.2,39.853.139,3.9-.822,9.126,1.056,12.277,1.007,1.693,7.244,2.047,10.763,1.8,6.722-.471,6.891-.237,16.894-1.3,2.928-.312,5.952-.929,7.693-2.632,1.813-1.774.711-4.477.6-5.221-.868-5.685-1.15-6.046-1.455-9.213-.338-3.506-1.011-8.1-1.04-9.63-.149-7.631-.38-19.925-.269-20.737.1-.734,1.149,1.056,3.573,2.274,2.5,1.26,3.84,1.472,5.006,1.387,3.824-.282,6.2-3.661,10.263-7.56,4.513-4.331,7.242-7.8,12.346-13.32,3.642-3.941,9.2-10.452,12.726-14.62.578-.686,3.165-3.466,2.869-5.143-.413-2.362-3.522-4.669-7.2-7.771-4.441-3.749-5.6-5.328-7.873-5.406-.831-.029-7.339,7.157-11.224,11.2-.458.478-2.888,4.8-3.382.091-.478-4.552-.344-4.418-1.517-14.928-1.021-9.123-.653-11.1-1.856-20.805-1.384-11.147-3.187-13.275-4.8-15.074-3.047-3.4-6.406-4.324-9.259-5.185-6.029-1.819-4.883-1.137-10.871-2.917a118.978,118.978,0,0,1-13.82-4.974,45.505,45.505,0,0,1-4.672-2.5c-1.146-.777-.66-1.683-1.761-2.9-1.055-1.163-3.157-2.778-3.985-1.273Z" transform="translate(-4569.649 -2054.786)" fill="#3466ad"/>
      <path id="Path_7800" data-name="Path 7800" d="M4330.26,2114.459c.283,1.257,3.252,6.42,10.5,17.489,7.219,11.023,10.344,17.755,18.086,25.4a36.512,36.512,0,0,0,7.147,5.416c3.687,2.151,7.375,4.3,11.7,3.467a13.367,13.367,0,0,0,6.065-3.249,25.419,25.419,0,0,0,6.368-8.518c.7-1.374,1.211-2.528,1.211-2.528,1.05-2.365,1.128-3.047,1.3-3.031.933.075-1.978,20.172,1.518,31.621a15.644,15.644,0,0,1,.868,5.2c-.055,3.856-1.641,5.721-3.032,10.179a23.241,23.241,0,0,0-1.517,8.229c-.02,5.416.068,9.864,1.056,13.99.13.539.66,2.888,2.407,3.122a98.423,98.423,0,0,0,14.675,1.4,44.825,44.825,0,0,0,11.75-.748c1.18-.2,1.937-.51,3.148-2.336,1.4-2.112.6-19.379.969-26.471.435-8.34.595-4.6.867-25.773.084-6.468.026-7.3-.562-39.906-.25-13.807.237-20.312.679-23.944.8-6.6,3.619-16.368,5.3-19.535.487-.92-2.254-3.661-3.248-4.981-3.087-4.1-4.246-6.189-4.338-7.527-.114-1.7.118-1.839.1-3.467-.01-.968-3.337.24-4.938,2.411-1.02,1.381-.839,2.788-1.731,3.194a66.721,66.721,0,0,1-11.507,2.706c-3.035.419-6.1.764-8.447,2.437-3.983,2.836-6.079,7.54-7.509,11.767-6.049,17.868-7.429,22.229-9.395,29.24-1.17,4.175-2.375,13.223-6.65,17.609-1.027,1.052-7.066-7.911-9.8-11.8-4.36-6.2-5.419-9.181-10.884-17.219-.8-1.17-3.031-4.441-3.031-4.441a110.477,110.477,0,0,0-11.03,5.214c-5.493,2.976-8.154,5.075-8.083,5.4Z" transform="translate(-4330.26 -2063.444)" fill="#3466ad"/>
      <path id="Path_7801" data-name="Path 7801" d="M4524.82,2213.771a79.584,79.584,0,0,0,8.71-.214c5.565-.341,9.772-.666,9.772-.666v7.664c0,8.177.263,9.779.068,13.034-.078,1.293-1.41,2.739-4.022,5.182-2.748,2.573-7.189,6.127-7.189,6.127s-1.293-1.192-5.068-4.516a46.136,46.136,0,0,0-3.6-3.1s.2-5.143.354-11c.172-6.612.981-12.515.981-12.515Z" transform="translate(-4460.71 -2161.525)" fill="#5b84bc"/>
    </g>
    <path id="hair_fill" data-name="hair fill" d="M4543.743,1870.949c-.048-3.792.058-8.311.058-8.311a27.547,27.547,0,0,1-5.63-2.274,53.739,53.739,0,0,1-4.224-3.356l4.656-1.732a21.227,21.227,0,0,1-4.006-4.441,10.155,10.155,0,0,1-.867-2.167,12.32,12.32,0,0,0,4.224.543,7.237,7.237,0,0,0,3.355-1.407,6.263,6.263,0,0,1-1.621-1.173c-2.111-2.011-2.278-5.65-2.278-5.65s1.836.487,3.575.757c3.4.526,7.2-.279,11.653-2.654,5.984-3.19,6.2-3.59,11.767-5.832,3.3-1.329,5.253-2.024,8.447-1.585,1.253.172,6.705.507,8.745,4.331.751,1.407.959,3.112,2.493,3.792a6.1,6.1,0,0,0,2.381.218,15.307,15.307,0,0,1,4.766,1.193,12.646,12.646,0,0,1,5.522,4.873,22.122,22.122,0,0,1,2.924,7.579,3.728,3.728,0,0,0,1.192,2.706c.965.663,2.125.575,2.485,1.176.383.64-.478,1.507-1.293,2.287-1.322,1.261-3.343,1.836-3.3,2.219.042.419,3.421.744,3.421.744s-1.349,1.829-1.42,1.907a5.888,5.888,0,0,1-2.817,1.517s.325,4.6-.217,5.091c-.715.643-.919-2.573-5.305-1.407-.887.237-.1-.1-.708.416-1.508,1.28-1.566,5.643-2.323,7.489-.65,1.585-5.565.926-5.565.926s-.2-3.132,0-12.378c.026-1.234-.055-4.282-.2-6.5-.3-4.321-.277-5.52-1.349-6.943-2.189-2.9-5.978-3.349-8.9-2.456-.936.286-3.229,2.355-12.173,7.8-2.573,1.569-4.578,2.2-8.486,3.882a19.141,19.141,0,0,1-3.359.939s.1,2.05-.072,6.468c-.095,2.365-.426,3.7-.062,5.656.1.549-.022,1.79-.815,1.871-.571.059-2.131-1.335-3.086-2.521a13.987,13.987,0,0,1-1.576-3.6Z" transform="translate(-204.071 -0.349)" fill="#014097"/>
    <g id="rt_hand" data-name="rt hand" transform="translate(4231.456 1926.038)">
      <path id="Path_7802" data-name="Path 7802" d="M4241.2,2142.7c-2.46-1.059-4.519-1.871-6.534-4.074-2.547-2.781-3.547-7.83-2.411-8.155.747-.214,4.584,6.4,4.425,5.279-.374-2.693-.822-5.26-1.059-6.78a2.14,2.14,0,0,1,.471-1.793c.653-.244,2.173.614,4.074,5.877.064.175,1.084,2.885,1.143,2.937,3.119,2.813,7.053,5.279,7.147,4.711.082-.487-5.945-4.282-5.36-7.879.282-1.735,2.31-4.548,3.249-5.848.107-.146.28-.38.3-.409a10.822,10.822,0,0,1,2.017-2.232c.153.1,1.3,1.423.007,4.366a10.139,10.139,0,0,0-1.062,3.574c0,.032-.006,1.14,0,1.156a6.407,6.407,0,0,0,2.966,3.938c.354.3.653.514.8.621.176.124.335.231.488.325,1.153.734,2.177,1.7,2.122,1.459-.3-1.286-.514-2.631-.838-3.785-.26-.923-.929-.906-2-1.706a5.7,5.7,0,0,1-1.989-3.005c-.163-.643-.354-1.394.039-1.826.6-.653,2.119-.136,2.4-.039,1.541.526,2.3,1.339,2.924,1.108a1.984,1.984,0,0,1,.933-1.394c.334-.2.948-.413,1.26-.163.546.439-.4,1.829.163,2.518.435.536,1.494.189,2.112.2a28.938,28.938,0,0,1,7.391.731,10.326,10.326,0,0,1,5.322,2.437c1.637,1.608,2.111,2.657,3.33,5.646a8.427,8.427,0,0,0,2.638,3.769l-12.589,7.034a26.465,26.465,0,0,0-6.416-3.411,50.849,50.849,0,0,0-10.153-2.6,12.464,12.464,0,0,1-5.237-1.868,13.29,13.29,0,0,0-2.06-.728Z" transform="translate(-4231.68 -2124.056)" fill="#fff"/>
      <g id="rt_hand-2" data-name="rt hand" transform="translate(0 0)">
        <path id="Path_7803" data-name="Path 7803" d="M4273.1,2150.894c-3.843-3.122-8.581-4.418-12.937-5.4-3.831-.861-8.431-1.885-11.462-4.383-4.032-3.33-4.72-9.142-5.113-14.357,1.992-1.647,4.2,3.986,4.932,7.18.621,2.709,6.209,5.718,8.606,6.553-1.869-.793-5.156-5.315-5.688-6.582-.871-2.079.013-2.9,1.108-4.873a22.864,22.864,0,0,1,3.918-5.546c1.26,0,1.023,2.664.52,3.859a23.011,23.011,0,0,0-1.481,3.827c-.406,1.9.341,2.957,1.625,4.415a22.89,22.89,0,0,0,5.146,3.817c-1.462-3.249-1.273-3.937-.894-6.3s1.95-5.159,3-4.708c.936,0-.387,4.311.449,6.731.745,2.16,3.6,2.537,5.883,2.5s5.111.188,6.023,2.284" transform="translate(-4239.648 -2123.49)" fill="none" stroke="#014097" stroke-linecap="round" stroke-width="1"/>
        <path id="Path_7804" data-name="Path 7804" d="M4288.838,2145.232a11.478,11.478,0,0,1-3.856-4.3c-.276-.75-.143-2.274.565-2.31a5.467,5.467,0,0,1,1.78.458c.994.448,1.485.672,2.476,1.121" transform="translate(-4267.501 -2133.702)" fill="none" stroke="#014097" stroke-linecap="round" stroke-width="1"/>
        <path id="Path_7805" data-name="Path 7805" d="M4309.35,2147.221c4.295-.042,9.149.211,13.038,2.03a10.485,10.485,0,0,1,4.171,4.448,19.107,19.107,0,0,1,1.215,3.018,4.942,4.942,0,0,0,2.563,2.687" transform="translate(-4284.043 -2139.509)" fill="none" stroke="#014097" stroke-linecap="round" stroke-width="1"/>
        <path id="Path_7806" data-name="Path 7806" d="M4242.2,2155.165c-3.5-.331-7.437-3.827-8.733-5.7a11.719,11.719,0,0,1-2-5.468c-.043-.269.081-1.481.448-1.54.53-.084,1.037.643,1.137.822,1.413,2.469,2.463,4.214,3.574,4.958" transform="translate(-4231.456 -2136.29)" fill="none" stroke="#014097" stroke-linecap="round" stroke-width="1"/>
      </g>
    </g>
    <g id="left_hand" data-name="left hand" transform="translate(4456.581 1956.443)">
      <path id="Path_7807" data-name="Path 7807" d="M4924.4,2225.944s6-6.813,9.8-7.771a12.837,12.837,0,0,1,4.646-.461c4.113.461,3.811.738,6.965.5,2.024-.15,6.157-.949,6.157-.949,1.468-.344,3.343-.211,3.795.334.542.656-.484,1.894-.666,2.027a36.293,36.293,0,0,1-5.9,3.028,18.548,18.548,0,0,1-2.752,1.033,6.516,6.516,0,0,0,3,.276,15.085,15.085,0,0,0,6.559-2.927,18.616,18.616,0,0,1,5.1-2.869,1.009,1.009,0,0,1,1.436.8c.4.595-.526,1.368-1.384,2.275a42.534,42.534,0,0,1-5.351,4.587,24.522,24.522,0,0,1-2.45,1.478,16.791,16.791,0,0,0,5.276-2.128,41.989,41.989,0,0,0,6.358-4.844c1.4-1.179,2.577-1.881,3.382-1.514a1.139,1.139,0,0,1,.656.909c.029.289.039,1.082-1.917,3.028-1.147,1.14-2.053,1.767-2.017,1.816a12.309,12.309,0,0,0,4.643-2.827,2.585,2.585,0,0,1,1.953-.8c.412.1.481.432.571.8.273,1.144-1.319,2.216-2.414,3.106-7.446,6.059-6.777,6.017-7.982,6.683-3.392,1.881-4.736,2.67-7.216,2.774-3.693.156-5.266-.6-9.743-1.312a11.761,11.761,0,0,0-6.368.682,18.95,18.95,0,0,0-2.612,2.047s-3.541-3.268-3.882-3.557c-5.426-4.613-7.638-6.228-7.638-6.228Z" transform="translate(-4924.4 -2217.077)" fill="#fff"/>
      <g id="left_hand-2" data-name="left hand" transform="translate(0.24 0.023)">
        <path id="Path_7808" data-name="Path 7808" d="M4925.14,2225.878c4.75-4.363,6.9-7.29,10.711-7.937a32.014,32.014,0,0,1,8.441.4c1.095.172,4.533-.458,7.648-.958.825-.133,3.915-.458,4.243-.006.426.582-.383,2.16-.984,2.554a23.383,23.383,0,0,1-8.7,3.739" transform="translate(-4925.14 -2217.147)" fill="none" stroke="#014097" stroke-linecap="round" stroke-width="1"/>
        <path id="Path_7809" data-name="Path 7809" d="M4972.74,2224.355c3.148.322,6.381,2.3,9.2,1.835s4.805-1.722,7.268-3.181,2.427-1.705,4.062-2.394c.939-.4,2.232-.1,1.93.88a6.326,6.326,0,0,1-1.462,2.018c-3.184,3.005-3.755,4.2-8.363,6.358" transform="translate(-4957.276 -2219.374)" fill="none" stroke="#014097" stroke-linecap="round" stroke-width="1"/>
        <path id="Path_7810" data-name="Path 7810" d="M5015.16,2230.529c2.7-.426,8.417-4.483,10.487-6.234.949-.8,3.3-2.472,4.434-1.963.176.078.309.874.2,1.111a8.5,8.5,0,0,1-2.118,3.18c-3.931,3.2-8.246,6.849-10.38,7.014" transform="translate(-4985.914 -2220.584)" fill="none" stroke="#014097" stroke-linecap="round" stroke-width="1"/>
        <path id="Path_7811" data-name="Path 7811" d="M4988.488,2232.718a62.932,62.932,0,0,0,6.1-3.96c1.41-.994,2.1.465,1.348,1.413a35.164,35.164,0,0,1-6.069,5.646c-3.512,2.761-7.319,5.893-11.484,6.205-4.487.338-9.022-2.508-13.373-1.361-1.943.51-3.9,1.153-5.146,2.729" transform="translate(-4948.58 -2224.761)" fill="none" stroke="#014097" stroke-linecap="round" stroke-width="1"/>
      </g>
    </g>
    <g id="face" transform="translate(4329.409 1831.019)">
      <path id="Path_7812" data-name="Path 7812" d="M4581.273,1900.23s-.113,13.252-.217,27.29c-.013,1.849-.016,5.091,1.406,7.742.312.582,2.086,4.282,5.956,5.253,2.138.536,4.071.9,4.071.9v8.519a34.626,34.626,0,0,0,7.352,3.171,19.146,19.146,0,0,0,10.5-.7,30.987,30.987,0,0,0,12.034-8.155s-.059-3.236,0-6.01c.214-10.071.051-18.3.051-18.3a4.564,4.564,0,0,0,2.623-.608c3.446-1.845,4.216-5.75,4.311-6.108.321-1.231.474-4.038-.65-5.091a3.835,3.835,0,0,0-5.809.66c-1.125,1.839-.374,5.185-1.557,6.595-1.241,1.485-5.565.926-5.565.926s-.046-3.58-.065-12.836c-.02-8.648-.579-11.537-1.488-12.982a7.131,7.131,0,0,0-5.441-3.262c-2.089-.166-3.22.884-7.148,3.467-6.016,3.957-10.374,7.193-16.163,8.811C4582.287,1900.4,4581.273,1900.23,4581.273,1900.23Z" transform="translate(-4565.428 -1868.96)" fill="#fafcff"/>
      <g id="face_line" data-name="face line" transform="translate(0)">
        <path id="Path_7813" data-name="Path 7813" d="M4581.164,1927.5c-.214,9.074-.448,18.9-.25,27.2a25.719,25.719,0,0,0,.874,6.631,10.334,10.334,0,0,0,4.145,5.13c1.9,1.384,4.7,1.816,7.047,1.917,10.253.435,20.087-4.029,25.591-12.693" transform="translate(-4565.284 -1896.155)" fill="none" stroke="#014097" stroke-linecap="round" stroke-width="1"/>
        <path id="Path_7814" data-name="Path 7814" d="M4615.625,1916.74c-.084-6.644-.162-12.943-.24-19.295-.032-2.69-.183-5.666-2.063-7.586a7.2,7.2,0,0,0-4.116-1.91,6.762,6.762,0,0,0-3.707.361,11.36,11.36,0,0,0-2.482,1.719c-3.843,3.112-8.287,5.377-12.7,7.615-2.9,1.472-5.913,2.976-9.162,3.086l-.325,28.814.946,5.013,1.741,3" transform="translate(-4565.277 -1869.385)" fill="none" stroke="#014097" stroke-linecap="round" stroke-width="1"/>
        <path id="Path_7815" data-name="Path 7815" d="M4687.93,1957.82a28.639,28.639,0,0,0,5.055-.328c.429-.062.854-.972.877-1.449.059-1.244.094-1.579.167-2.983a5.276,5.276,0,0,1,.717-2.453,5.146,5.146,0,0,1,2.336-2.034c1.011-.195,3.129.185,3.606.884a6.237,6.237,0,0,1,.838,3.847,10.393,10.393,0,0,1-1.068,3.71,8.721,8.721,0,0,1-2.093,2.947,5.691,5.691,0,0,1-3.785,1.364" transform="translate(-4637.583 -1910.348)" fill="none" stroke="#014097" stroke-linecap="round" stroke-width="1"/>
        <path id="Path_7816" data-name="Path 7816" d="M4708.3,1987.93q.136,11.759-.059,23.519" transform="translate(-4651.294 -1936.952)" fill="none" stroke="#014097" stroke-linecap="round" stroke-width="1"/>
        <path id="Path_7817" data-name="Path 7817" d="M4616.254,2054.05c-.026,2.362.159,5.679.163,6.8a10.029,10.029,0,0,0,.27,2,24.18,24.18,0,0,0,2.131,1.2c2.255,1.049,8.09,3.028,12.758,1.78a28.823,28.823,0,0,0,12.345-6.764,10.691,10.691,0,0,0,2.213-2.976" transform="translate(-4589.192 -1981.591)" fill="none" stroke="#014097" stroke-linecap="round" stroke-width="1"/>
        <path id="Path_7818" data-name="Path 7818" d="M4548.327,1876.711c-2.625.263-5.257-3.869-5.2-6.654.055-2.586.169-5.191.273-7.976a25.35,25.35,0,0,1-10.442-5.565,9.775,9.775,0,0,0,4.919-1.381,18.66,18.66,0,0,1-4.919-7.024c2.6.543,5.474.835,7.778-.494a9.877,9.877,0,0,1-4.051-7.19c4.5,1.111,9.375,1.543,13.622-.721,4.091-2.183,8.146-4.415,12.249-6.576,2.469-1.3,4.074-1.446,6.819-1.953a12.256,12.256,0,0,1,8.3,1.706c2.638,1.641,3.034,2.534,4.873,5.036a15.779,15.779,0,0,0,1.465,1.725c.3.26.894.026,1.66.02,6.5-.039,12.427,5.767,13.746,14.334a3.662,3.662,0,0,0,.893,1.988,3.8,3.8,0,0,0,2.476.894c.023,2.235-2.085,3.8-4.2,4.539a3.543,3.543,0,0,0,3.067,1.017,6.215,6.215,0,0,1-4.373,3.46,70.883,70.883,0,0,1,.019,8.427" transform="translate(-4532.959 -1831.019)" fill="none" stroke="#014097" stroke-linecap="round" stroke-width="1"/>
        <g id="features" transform="translate(20.627 31.782)">
          <path id="Path_7819" data-name="Path 7819" d="M4653.68,1930.189a5.569,5.569,0,0,1,5.565-1" transform="translate(-4635.087 -1928.846)" fill="none" stroke="#014097" stroke-linecap="round" stroke-width="1"/>
          <path id="Path_7820" data-name="Path 7820" d="M4601.889,1931.779a4.977,4.977,0,0,0-5.439-.1" transform="translate(-4596.45 -1930.244)" fill="none" stroke="#014097" stroke-linecap="round" stroke-width="1"/>
          <ellipse id="Ellipse_267" data-name="Ellipse 267" cx="2.112" cy="3.249" rx="2.112" ry="3.249" transform="translate(0.832 4.628)" fill="#014097"/>
          <ellipse id="Ellipse_268" data-name="Ellipse 268" cx="2.112" cy="3.249" rx="2.112" ry="3.249" transform="translate(19.594 4.15)" fill="#014097"/>
          <path id="Path_7821" data-name="Path 7821" d="M4626.474,1946.02q-.746,5.044-1.326,10.11a1.79,1.79,0,0,0,.1,1.078c.364.66,2.9.221,3.646.075" transform="translate(-4615.801 -1940.44)" fill="none" stroke="#014097" stroke-linecap="round" stroke-width="1"/>
          <path id="Path_7822" data-name="Path 7822" d="M4623.44,1994.606a8.325,8.325,0,0,0,10.032-4.126" transform="translate(-4614.671 -1970.456)" fill="none" stroke="#014097" stroke-linecap="round" stroke-width="1"/>
        </g>
      </g>
    </g>
    <g id="shirt_line" data-name="shirt line" transform="translate(4263.523 1904.008)">
      <path id="Path_7823" data-name="Path 7823" d="M4602.384,2067.78a7.374,7.374,0,0,0-3.908,2.177,7.183,7.183,0,0,0-1.773,3.46c-.572,5.906.9,12.281,2.9,17.868,1.728-2.69,4.691-5.575,7.726-6.589.195-.065,3.512-.7,3.35-.926a122.444,122.444,0,0,1-9.016-13.684" transform="translate(-4510.023 -2063.849)" fill="none" stroke="#014097" stroke-linecap="round" stroke-width="1"/>
      <path id="Path_7824" data-name="Path 7824" d="M4555.964,2117.01c-8.7,17.583-5.767,41.419-5.646,61.442.15,24.22-.432,45.052-1.026,71.484a6.069,6.069,0,0,1-1.066,3.5,4.116,4.116,0,0,1-2.586,1.813,77.575,77.575,0,0,1-25.156-.611c-1.413-.24-2.567-.228-3.194-1.3a16.222,16.222,0,0,1-1.192-4.493,86.643,86.643,0,0,1-.555-12.453c.029-6.4,4.916-12.92,4.24-18.19-2.924-22.742-2.518-51.332.65-76.835" transform="translate(-4455.312 -2097.085)" fill="none" stroke="#014097" stroke-linecap="round" stroke-width="1"/>
      <path id="Path_7825" data-name="Path 7825" d="M4692.674,2060.32c-.867,4.571-2.934,7.29-4.84,11.173-.9,1.839-2.794,4.773-3.012,5.744-.471,2.112.5,5.6.475,8.444-.2,20.065,3.733,25.611,5.429,38.258,1.257,9.37,1.845,20.039,2.482,29.47,1.42,20.994.549,40.922.767,57.816" transform="translate(-4569.511 -2058.813)" fill="none" stroke="#014097" stroke-linecap="round" stroke-width="1"/>
      <path id="Path_7826" data-name="Path 7826" d="M4686.06,2074.336a1.145,1.145,0,0,1,1.342-.432,3.016,3.016,0,0,1,1.221.89,20.527,20.527,0,0,1,4.289,6.825,54.1,54.1,0,0,0,5.63-18.6,9.3,9.3,0,0,0-.455-5.078c-.744-1.553-2.6-2.7-4.214-2.1" transform="translate(-4570.434 -2055.681)" fill="none" stroke="#014097" stroke-linecap="round" stroke-width="1"/>
      <path id="Path_7827" data-name="Path 7827" d="M4745.529,2181.98c-.829,18.4-1.01,33.385.27,43.59,2.625,20.9.173,39.246,3.467,60.048.175,1.117,2.372,7.684.221,9.876a5.367,5.367,0,0,1-2.5,1.494,112.153,112.153,0,0,1-25.338,2.625c-2.1.016-4.639.01-6.416-1.111a4.365,4.365,0,0,1-1.433-1.312,5.544,5.544,0,0,1-.7-3.833" transform="translate(-4588.631 -2140.948)" fill="none" stroke="#014097" stroke-linecap="round" stroke-width="1"/>
      <path id="Path_7828" data-name="Path 7828" d="M4621.12,2521.8a19.745,19.745,0,0,0,6.923,1.023c7.8.091,15.542.63,23-1.66" transform="translate(-4526.591 -2369.934)" fill="none" stroke="#014097" stroke-linecap="round" stroke-width="1"/>
      <path id="Path_7829" data-name="Path 7829" d="M4724.61,2067.78c5.074,3.876,19.174,8.093,25.338,9.756,8.8,2.378,11.839,3.3,14.564,6.927,3.213,4.269,3.628,8.255,4.548,16.088" transform="translate(-4596.46 -2063.849)" fill="none" stroke="#014097" stroke-linecap="round" stroke-width="1"/>
      <path id="Path_7830" data-name="Path 7830" d="M4416.841,2085.14c-9.623,4.493-17.475,1.026-23.08,7.8-2.647,3.2-5.886,13.011-7.365,16.894-3.85,10.123-4.032,13.177-8.015,25.935-.462,1.479-2.843,15.692-6.716,12.615,0,0-6.234-7.271-8.771-11.7-6.462-11.273-6.5-10.049-13.645-21.442-1.164.487-15.874,7.752-19.032,10.838-.809.792,6.963,12.508,7.716,13.746,3.031,4.98,12.515,18.486,13.32,19.493,5.513,6.9,7.7,13.259,22.254,18.112a10.353,10.353,0,0,0,7.392-.406c4.1-1.8,9.526-10.182,11.669-16.137" transform="translate(-4330.158 -2075.569)" fill="none" stroke="#014097" stroke-linecap="round" stroke-width="1"/>
      <path id="Path_7831" data-name="Path 7831" d="M4525.93,2403.56c1.218,13.076,3.2,8.268,9.181,15.649" transform="translate(-4462.328 -2290.54)" fill="none" stroke="#014097" stroke-linecap="round" stroke-width="1"/>
      <path id="Path_7832" data-name="Path 7832" d="M4456.43,2278.04c2.472,3.424,6.991,5.578,10.844,7.3" transform="translate(-4415.406 -2205.8)" fill="none" stroke="#014097" stroke-linecap="round" stroke-width="1"/>
      <path id="Path_7833" data-name="Path 7833" d="M4457.92,2279.54a4.3,4.3,0,0,0,2.953,1.329,12.464,12.464,0,0,0,3.249-.341c.89-.176,1.781-.347,2.667-.523" transform="translate(-4416.413 -2206.812)" fill="none" stroke="#014097" stroke-linecap="round" stroke-width="1"/>
      <path id="Path_7834" data-name="Path 7834" d="M4861.43,2168.65c.91,12.076,2.329,24.8,3.791,36.549" transform="translate(-4688.829 -2131.948)" fill="none" stroke="#014097" stroke-linecap="round" stroke-width="1"/>
      <path id="Path_7835" data-name="Path 7835" d="M4825.951,2265.36c6.562-9.314,15.432-17.326,22.68-25.416a2.324,2.324,0,0,1,1.449-.864,2.546,2.546,0,0,1,1.565.6,70.816,70.816,0,0,1,13.292,11.667,1.471,1.471,0,0,1,.071,2.206,80.592,80.592,0,0,1-8.775,10.978q-5.936,6.594-11.868,13.19a118.773,118.773,0,0,1-12.317,12.407c-1.956,1.618-2.709,2.785-5.633,2.84a7.18,7.18,0,0,1-4.308-1.167,15.243,15.243,0,0,1-3.846-2.8" transform="translate(-4659.685 -2179.494)" fill="none" stroke="#014097" stroke-linecap="round" stroke-width="1"/>
      <path id="Path_7836" data-name="Path 7836" d="M4839.649,2285.831a19.97,19.97,0,0,1,10.5-6.348,11.186,11.186,0,0,0-6.894-.815" transform="translate(-4674.125 -2206.07)" fill="none" stroke="#014097" stroke-linecap="round" stroke-width="1"/>
    </g>
    <g id="pocket" transform="translate(4326.586 1955.079)">
      <path id="Path_7837" data-name="Path 7837" d="M4525.807,2213.822c6.218-.4,12.167-.338,18.024-.942-.071,7.472.15,7.381.036,15.218-.039,2.709.033,4.022-.036,6.254-.006.26-.935,1.218-3.658,4.1a60.765,60.765,0,0,1-7.488,6.436c-3.242-2.528-5.172-4.883-8.414-7.411" transform="translate(-4524.271 -2212.88)" fill="none" stroke="#014097" stroke-linecap="round" stroke-width="1"/>
      <path id="Path_7838" data-name="Path 7838" d="M4526.97,2226.375c6.053.022,12.134.016,18-1.485" transform="translate(-4526.093 -2220.988)" fill="none" stroke="#014097" stroke-linecap="round" stroke-width="1"/>
    </g>
    <g id="rupee" transform="translate(4242.769 1893.995)">
      <path id="Path_7839" data-name="Path 7839" d="M4281.692,2033.11V2033h6.114a4.761,4.761,0,0,1,.724-1.238v-3.015h-22.25V2033h5.045c2.8,0,4.99.647,5.942,2.476h-10.984v4.249h11.377c-.617,2.635-2.859,3.658-5.942,3.658h-4.036l-.035,4.961c3.027,3.674,8.606,10.533,8.606,10.533h6.7c.63,0,.559,0,.542-1.264l-8.028-9.773c4.5-.792,8.447-3.677,8.938-8.236l3.331-.016q.321-.39.555-.7c.117-.156.217-.276.24-.305v-3.1h-5.662a6.813,6.813,0,0,0-1.176-2.368Z" transform="translate(-4266.28 -2027.486)" fill="#22a758"/>
      <path id="Path_7840" data-name="Path 7840" d="M4283.261,2035.834c-.491,4.558-4.331,7.329-8.827,8.122l9.058,11.027h-6.725l-9.084-11.027v-4.464h4.036c3.083,0,5.325-1.023,5.942-3.658h-11.377v-4.25h10.984c-.952-1.829-3.139-2.475-5.942-2.475h-5.045v-4.25h22.25v4.25h-6.838v.107a6.663,6.663,0,0,1,1.179,2.368h5.663v4.25h-5.27Z" transform="translate(-4266.28 -2024.86)" fill="#7ecaa6"/>
    </g>
    <g id="percentage" transform="translate(4470.587 1929.358)">
      <path id="Path_7841" data-name="Path 7841" d="M4971.319,2142c.036-3.346,2.314-6.03,5.64-5.994,3.294.036,5.484,2.729,5.452,6.108-.036,3.314-2.313,6.03-5.64,5.994-3.294-.036-5.484-2.729-5.448-6.108Zm19.809-5.575h0a1.628,1.628,0,0,1,1.238,2.6l-14.59,20.269a1.548,1.548,0,0,1-1.273.653h0a1.628,1.628,0,0,1-1.239-2.6l14.591-20.27A1.548,1.548,0,0,1,4991.128,2136.428Zm-12.145,5.656c.017-1.589-.818-2.982-2.121-3-1.371-.013-2.1,1.332-2.118,2.953-.016,1.589.819,2.982,2.122,3C4978.237,2145.051,4978.968,2143.673,4978.983,2142.084Zm6.235,12.17c.036-3.346,2.313-6.03,5.64-5.994,3.294.036,5.484,2.729,5.448,6.108-.035,3.314-2.313,6.03-5.64,5.994-3.294-.036-5.484-2.729-5.451-6.108Zm7.667.078c.016-1.589-.819-2.983-2.122-3-1.371-.013-2.1,1.332-2.118,2.953-.017,1.589.819,2.983,2.121,3C4992.138,2157.3,4992.869,2155.921,4992.886,2154.333Z" transform="translate(-4970.082 -2135.262)" fill="#22a758"/>
      <path id="Path_7842" data-name="Path 7842" d="M4967.51,2139.7c.035-3.346,2.313-6.03,5.64-5.994,3.294.036,5.484,2.729,5.452,6.108-.036,3.314-2.313,6.03-5.64,5.994-3.294-.036-5.484-2.729-5.448-6.108Zm19.808-5.575h0a1.628,1.628,0,0,1,1.238,2.6l-14.59,20.27a1.549,1.549,0,0,1-1.274.653h0a1.628,1.628,0,0,1-1.238-2.6l14.591-20.27A1.547,1.547,0,0,1,4987.317,2134.128Zm-12.144,5.656c.016-1.589-.819-2.982-2.122-3-1.371-.013-2.1,1.332-2.119,2.953-.016,1.589.819,2.982,2.122,3C4974.426,2142.751,4975.158,2141.373,4975.174,2139.785Zm6.234,12.17c.036-3.346,2.313-6.03,5.64-5.994,3.294.036,5.483,2.729,5.448,6.108-.035,3.314-2.313,6.03-5.64,5.994-3.294-.036-5.483-2.729-5.451-6.108Zm7.667.078c.017-1.589-.819-2.982-2.122-3-1.371-.013-2.1,1.332-2.118,2.953-.017,1.588.818,2.982,2.122,3C4988.328,2155,4989.059,2153.622,4989.075,2152.032Z" transform="translate(-4967.51 -2133.709)" fill="#7ecaa6"/>
    </g>
  </g>
</svg>
