<svg width="339" height="366" viewBox="0 0 339 366" fill="none" xmlns="http://www.w3.org/2000/svg">
<g clip-path="url(#clip0_100_7303)">
<path opacity="0.27" d="M181.592 358.173C227.328 358.173 264.405 354.044 264.405 348.952C264.405 343.859 227.328 339.731 181.592 339.731C135.855 339.731 98.778 343.859 98.778 348.952C98.778 354.044 135.855 358.173 181.592 358.173Z" fill="#FFD325"/>
<g opacity="0.88">
<g opacity="0.54">
<path d="M253.718 115.134C254.147 115.134 254.495 114.786 254.495 114.357C254.495 113.928 254.147 113.58 253.718 113.58C253.289 113.58 252.941 113.928 252.941 114.357C252.941 114.786 253.289 115.134 253.718 115.134Z" fill="#161742"/>
<path d="M231.924 149.927C232.303 149.927 232.611 149.62 232.611 149.24C232.611 148.861 232.303 148.554 231.924 148.554C231.545 148.554 231.237 148.861 231.237 149.24C231.237 149.62 231.545 149.927 231.924 149.927Z" fill="#161742"/>
<path d="M268.711 137.534C269.144 137.534 269.495 137.183 269.495 136.751C269.495 136.318 269.144 135.967 268.711 135.967C268.278 135.967 267.927 136.318 267.927 136.751C267.927 137.183 268.278 137.534 268.711 137.534Z" fill="#161742"/>
<path d="M251.681 145.589C252.086 145.589 252.415 145.261 252.415 144.856C252.415 144.451 252.086 144.122 251.681 144.122C251.276 144.122 250.947 144.451 250.947 144.856C250.947 145.261 251.276 145.589 251.681 145.589Z" fill="#161742"/>
<path d="M232.865 117.217C233.385 117.217 233.807 116.796 233.807 116.276C233.807 115.756 233.385 115.335 232.865 115.335C232.345 115.335 231.924 115.756 231.924 116.276C231.924 116.796 232.345 117.217 232.865 117.217Z" fill="#161742"/>
<path d="M239.526 84.4271C239.966 84.4271 240.323 84.0702 240.323 83.6299C240.323 83.1897 239.966 82.8328 239.526 82.8328C239.085 82.8328 238.728 83.1897 238.728 83.6299C238.728 84.0702 239.085 84.4271 239.526 84.4271Z" fill="#161742"/>
<path d="M229.361 97.6034C229.655 97.6034 229.894 97.365 229.894 97.0709C229.894 96.7768 229.655 96.5383 229.361 96.5383C229.067 96.5383 228.828 96.7768 228.828 97.0709C228.828 97.365 229.067 97.6034 229.361 97.6034Z" fill="#161742"/>
<path d="M240.43 145.586C240.93 145.586 241.335 145.181 241.335 144.682C241.335 144.182 240.93 143.777 240.43 143.777C239.931 143.777 239.526 144.182 239.526 144.682C239.526 145.181 239.931 145.586 240.43 145.586Z" fill="#161742"/>
<path d="M226.516 136.811C226.953 136.811 227.307 136.457 227.307 136.02C227.307 135.584 226.953 135.23 226.516 135.23C226.08 135.23 225.726 135.584 225.726 136.02C225.726 136.457 226.08 136.811 226.516 136.811Z" fill="#161742"/>
</g>
<g opacity="0.54">
<path d="M199.801 115.134C200.23 115.134 200.578 114.786 200.578 114.357C200.578 113.928 200.23 113.58 199.801 113.58C199.372 113.58 199.024 113.928 199.024 114.357C199.024 114.786 199.372 115.134 199.801 115.134Z" fill="#161742"/>
<path d="M224.908 116.242C225.41 116.242 225.816 115.836 225.816 115.335C225.816 114.834 225.41 114.427 224.908 114.427C224.407 114.427 224 114.834 224 115.335C224 115.836 224.407 116.242 224.908 116.242Z" fill="#161742"/>
<path d="M178.007 149.927C178.386 149.927 178.694 149.62 178.694 149.24C178.694 148.861 178.386 148.554 178.007 148.554C177.628 148.554 177.32 148.861 177.32 149.24C177.32 149.62 177.628 149.927 178.007 149.927Z" fill="#161742"/>
<path d="M214.794 137.534C215.227 137.534 215.578 137.183 215.578 136.751C215.578 136.318 215.227 135.967 214.794 135.967C214.361 135.967 214.01 136.318 214.01 136.751C214.01 137.183 214.361 137.534 214.794 137.534Z" fill="#161742"/>
<path d="M197.764 145.589C198.169 145.589 198.498 145.261 198.498 144.856C198.498 144.451 198.169 144.122 197.764 144.122C197.359 144.122 197.03 144.451 197.03 144.856C197.03 145.261 197.359 145.589 197.764 145.589Z" fill="#161742"/>
<path d="M178.948 117.217C179.468 117.217 179.89 116.796 179.89 116.276C179.89 115.756 179.468 115.335 178.948 115.335C178.428 115.335 178.007 115.756 178.007 116.276C178.007 116.796 178.428 117.217 178.948 117.217Z" fill="#161742"/>
<path d="M189.294 110.297C189.914 110.297 190.417 109.795 190.417 109.175C190.417 108.556 189.914 108.053 189.294 108.053C188.674 108.053 188.172 108.556 188.172 109.175C188.172 109.795 188.674 110.297 189.294 110.297Z" fill="#161742"/>
<path d="M217.37 122.68C217.705 122.68 217.976 122.409 217.976 122.074C217.976 121.739 217.705 121.468 217.37 121.468C217.035 121.468 216.764 121.739 216.764 122.074C216.764 122.409 217.035 122.68 217.37 122.68Z" fill="#161742"/>
<path d="M185.605 84.4271C186.046 84.4271 186.403 84.0702 186.403 83.6299C186.403 83.1897 186.046 82.8328 185.605 82.8328C185.165 82.8328 184.808 83.1897 184.808 83.6299C184.808 84.0702 185.165 84.4271 185.605 84.4271Z" fill="#161742"/>
<path d="M204.14 87.6056C204.48 87.6056 204.756 87.3297 204.756 86.9893C204.756 86.649 204.48 86.373 204.14 86.373C203.799 86.373 203.523 86.649 203.523 86.9893C203.523 87.3297 203.799 87.6056 204.14 87.6056Z" fill="#161742"/>
<path d="M175.441 97.6034C175.735 97.6034 175.973 97.365 175.973 97.0709C175.973 96.7768 175.735 96.5383 175.441 96.5383C175.146 96.5383 174.908 96.7768 174.908 97.0709C174.908 97.365 175.146 97.6034 175.441 97.6034Z" fill="#161742"/>
<path d="M207.889 141.49C208.408 141.49 208.83 141.069 208.83 140.549C208.83 140.029 208.408 139.608 207.889 139.608C207.369 139.608 206.947 140.029 206.947 140.549C206.947 141.069 207.369 141.49 207.889 141.49Z" fill="#161742"/>
<path d="M186.51 145.586C187.01 145.586 187.415 145.181 187.415 144.682C187.415 144.182 187.01 143.777 186.51 143.777C186.01 143.777 185.605 144.182 185.605 144.682C185.605 145.181 186.01 145.586 186.51 145.586Z" fill="#161742"/>
<path d="M172.596 136.811C173.033 136.811 173.387 136.457 173.387 136.02C173.387 135.584 173.033 135.23 172.596 135.23C172.159 135.23 171.805 135.584 171.805 136.02C171.805 136.457 172.159 136.811 172.596 136.811Z" fill="#161742"/>
</g>
<g opacity="0.54">
<path d="M34.6325 290.419C35.417 290.419 36.053 289.783 36.053 288.998C36.053 288.214 35.417 287.578 34.6325 287.578C33.8479 287.578 33.2119 288.214 33.2119 288.998C33.2119 289.783 33.8479 290.419 34.6325 290.419Z" fill="#161742"/>
<path d="M69.3487 177.934C70.0278 177.934 70.5782 177.384 70.5782 176.705C70.5782 176.026 70.0278 175.476 69.3487 175.476C68.6696 175.476 68.1191 176.026 68.1191 176.705C68.1191 177.384 68.6696 177.934 69.3487 177.934Z" fill="#161742"/>
<path d="M36.6996 175.137C37.4046 175.137 37.9761 174.566 37.9761 173.861C37.9761 173.157 37.4046 172.585 36.6996 172.585C35.9946 172.585 35.4231 173.157 35.4231 173.861C35.4231 174.566 35.9946 175.137 36.6996 175.137Z" fill="#161742"/>
<path d="M291.999 78.8135C292.783 78.8135 293.419 78.1777 293.419 77.3934C293.419 76.6091 292.783 75.9733 291.999 75.9733C291.214 75.9733 290.578 76.6091 290.578 77.3934C290.578 78.1777 291.214 78.8135 291.999 78.8135Z" fill="#161742"/>
<path d="M317.006 301.756C317.505 301.756 317.91 301.351 317.91 300.852C317.91 300.352 317.505 299.948 317.006 299.948C316.506 299.948 316.101 300.352 316.101 300.852C316.101 301.351 316.506 301.756 317.006 301.756Z" fill="#161742"/>
<path d="M35.4265 145.998C35.8632 145.998 36.2172 145.644 36.2172 145.208C36.2172 144.771 35.8632 144.417 35.4265 144.417C34.9898 144.417 34.6358 144.771 34.6358 145.208C34.6358 145.644 34.9898 145.998 35.4265 145.998Z" fill="#161742"/>
</g>
<g opacity="0.54">
<path d="M37.6377 204.776C38.4223 204.776 39.0583 204.14 39.0583 203.356C39.0583 202.571 38.4223 201.936 37.6377 201.936C36.8532 201.936 36.2172 202.571 36.2172 203.356C36.2172 204.14 36.8532 204.776 37.6377 204.776Z" fill="#161742"/>
<path d="M54.0443 184.727C54.4736 184.727 54.8216 184.379 54.8216 183.95C54.8216 183.52 54.4736 183.172 54.0443 183.172C53.615 183.172 53.2671 183.52 53.2671 183.95C53.2671 184.379 53.615 184.727 54.0443 184.727Z" fill="#161742"/>
<path d="M57.7733 193.505C58.4523 193.505 59.0028 192.955 59.0028 192.276C59.0028 191.597 58.4523 191.047 57.7733 191.047C57.0942 191.047 56.5437 191.597 56.5437 192.276C56.5437 192.955 57.0942 193.505 57.7733 193.505Z" fill="#161742"/>
<path d="M93.2165 200.124C93.7179 200.124 94.1244 199.717 94.1244 199.216C94.1244 198.715 93.7179 198.308 93.2165 198.308C92.7151 198.308 92.3085 198.715 92.3085 199.216C92.3085 199.717 92.7151 200.124 93.2165 200.124Z" fill="#161742"/>
<path d="M71.6839 203.098C72.0632 203.098 72.3707 202.79 72.3707 202.411C72.3707 202.032 72.0632 201.725 71.6839 201.725C71.3045 201.725 70.997 202.032 70.997 202.411C70.997 202.79 71.3045 203.098 71.6839 203.098Z" fill="#161742"/>
<path d="M51.4378 208.892C51.843 208.892 52.1715 208.564 52.1715 208.159C52.1715 207.754 51.843 207.425 51.4378 207.425C51.0325 207.425 50.704 207.754 50.704 208.159C50.704 208.564 51.0325 208.892 51.4378 208.892Z" fill="#161742"/>
<path d="M33.1952 186.813C33.7151 186.813 34.1366 186.392 34.1366 185.872C34.1366 185.352 33.7151 184.931 33.1952 184.931C32.6752 184.931 32.2537 185.352 32.2537 185.872C32.2537 186.392 32.6752 186.813 33.1952 186.813Z" fill="#161742"/>
<path d="M43.541 179.893C44.1609 179.893 44.6634 179.391 44.6634 178.771C44.6634 178.152 44.1609 177.649 43.541 177.649C42.9212 177.649 42.4187 178.152 42.4187 178.771C42.4187 179.391 42.9212 179.893 43.541 179.893Z" fill="#161742"/>
<path d="M66.8091 207.013C67.144 207.013 67.4155 206.742 67.4155 206.407C67.4155 206.072 67.144 205.801 66.8091 205.801C66.4742 205.801 66.2027 206.072 66.2027 206.407C66.2027 206.742 66.4742 207.013 66.8091 207.013Z" fill="#161742"/>
<path d="M39.8523 154.023C40.2927 154.023 40.6497 153.666 40.6497 153.226C40.6497 152.786 40.2927 152.429 39.8523 152.429C39.4119 152.429 39.0549 152.786 39.0549 153.226C39.0549 153.666 39.4119 154.023 39.8523 154.023Z" fill="#161742"/>
<path d="M58.3864 157.202C58.7268 157.202 59.0028 156.926 59.0028 156.585C59.0028 156.245 58.7268 155.969 58.3864 155.969C58.0459 155.969 57.7699 156.245 57.7699 156.585C57.7699 156.926 58.0459 157.202 58.3864 157.202Z" fill="#161742"/>
<path d="M65.5326 168.268C66.1229 168.268 66.6014 167.79 66.6014 167.199C66.6014 166.609 66.1229 166.131 65.5326 166.131C64.9424 166.131 64.4639 166.609 64.4639 167.199C64.4639 167.79 64.9424 168.268 65.5326 168.268Z" fill="#161742"/>
<path d="M29.6874 167.199C29.9816 167.199 30.2201 166.961 30.2201 166.667C30.2201 166.373 29.9816 166.134 29.6874 166.134C29.3932 166.134 29.1547 166.373 29.1547 166.667C29.1547 166.961 29.3932 167.199 29.6874 167.199Z" fill="#161742"/>
<path d="M80.187 198.757C80.6866 198.757 81.0916 198.352 81.0916 197.853C81.0916 197.353 80.6866 196.948 80.187 196.948C79.6874 196.948 79.2824 197.353 79.2824 197.853C79.2824 198.352 79.6874 198.757 80.187 198.757Z" fill="#161742"/>
<path d="M26.8429 206.407C27.2796 206.407 27.6336 206.053 27.6336 205.617C27.6336 205.18 27.2796 204.826 26.8429 204.826C26.4062 204.826 26.0522 205.18 26.0522 205.617C26.0522 206.053 26.4062 206.407 26.8429 206.407Z" fill="#161742"/>
</g>
<g opacity="0.54">
<path d="M268.915 192.105C269.344 192.105 269.692 191.757 269.692 191.328C269.692 190.899 269.344 190.551 268.915 190.551C268.486 190.551 268.138 190.899 268.138 191.328C268.138 191.757 268.486 192.105 268.915 192.105Z" fill="#161742"/>
<path d="M297.932 179.92C298.434 179.92 298.84 179.514 298.84 179.013C298.84 178.511 298.434 178.105 297.932 178.105C297.431 178.105 297.024 178.511 297.024 179.013C297.024 179.514 297.431 179.92 297.932 179.92Z" fill="#161742"/>
<path d="M247.121 226.898C247.5 226.898 247.808 226.591 247.808 226.212C247.808 225.832 247.5 225.525 247.121 225.525C246.742 225.525 246.434 225.832 246.434 226.212C246.434 226.591 246.742 226.898 247.121 226.898Z" fill="#161742"/>
<path d="M268.915 208.601C269.348 208.601 269.699 208.25 269.699 207.817C269.699 207.384 269.348 207.033 268.915 207.033C268.482 207.033 268.131 207.384 268.131 207.817C268.131 208.25 268.482 208.601 268.915 208.601Z" fill="#161742"/>
<path d="M266.878 222.561C267.283 222.561 267.612 222.232 267.612 221.827C267.612 221.422 267.283 221.094 266.878 221.094C266.473 221.094 266.144 221.422 266.144 221.827C266.144 222.232 266.473 222.561 266.878 222.561Z" fill="#161742"/>
<path d="M248.062 194.188C248.582 194.188 249.004 193.767 249.004 193.247C249.004 192.727 248.582 192.306 248.062 192.306C247.543 192.306 247.121 192.727 247.121 193.247C247.121 193.767 247.543 194.188 248.062 194.188Z" fill="#161742"/>
<path d="M286.488 199.651C286.822 199.651 287.094 199.38 287.094 199.045C287.094 198.71 286.822 198.439 286.488 198.439C286.153 198.439 285.881 198.71 285.881 199.045C285.881 199.38 286.153 199.651 286.488 199.651Z" fill="#161742"/>
<path d="M254.723 161.398C255.163 161.398 255.52 161.041 255.52 160.601C255.52 160.161 255.163 159.804 254.723 159.804C254.283 159.804 253.926 160.161 253.926 160.601C253.926 161.041 254.283 161.398 254.723 161.398Z" fill="#161742"/>
<path d="M273.257 164.58C273.597 164.58 273.873 164.304 273.873 163.964C273.873 163.624 273.597 163.348 273.257 163.348C272.917 163.348 272.641 163.624 272.641 163.964C272.641 164.304 272.917 164.58 273.257 164.58Z" fill="#161742"/>
<path d="M288.561 161.67C289.152 161.67 289.63 161.191 289.63 160.601C289.63 160.011 289.152 159.533 288.561 159.533C287.971 159.533 287.493 160.011 287.493 160.601C287.493 161.191 287.971 161.67 288.561 161.67Z" fill="#161742"/>
<path d="M244.558 174.575C244.852 174.575 245.091 174.336 245.091 174.042C245.091 173.748 244.852 173.51 244.558 173.51C244.264 173.51 244.025 173.748 244.025 174.042C244.025 174.336 244.264 174.575 244.558 174.575Z" fill="#161742"/>
<path d="M277.003 218.461C277.523 218.461 277.944 218.04 277.944 217.52C277.944 217 277.523 216.579 277.003 216.579C276.483 216.579 276.061 217 276.061 217.52C276.061 218.04 276.483 218.461 277.003 218.461Z" fill="#161742"/>
<path d="M255.628 222.561C256.127 222.561 256.532 222.156 256.532 221.656C256.532 221.157 256.127 220.752 255.628 220.752C255.128 220.752 254.723 221.157 254.723 221.656C254.723 222.156 255.128 222.561 255.628 222.561Z" fill="#161742"/>
<path d="M241.714 213.782C242.15 213.782 242.504 213.428 242.504 212.992C242.504 212.555 242.15 212.201 241.714 212.201C241.277 212.201 240.923 212.555 240.923 212.992C240.923 213.428 241.277 213.782 241.714 213.782Z" fill="#161742"/>
</g>
<g opacity="0.54">
<path d="M101.944 223.646C102.373 223.646 102.721 223.298 102.721 222.869C102.721 222.44 102.373 222.092 101.944 222.092C101.515 222.092 101.167 222.44 101.167 222.869C101.167 223.298 101.515 223.646 101.944 223.646Z" fill="#161742"/>
<path d="M65.0636 270.681C65.4429 270.681 65.7504 270.374 65.7504 269.994C65.7504 269.615 65.4429 269.308 65.0636 269.308C64.6843 269.308 64.3768 269.615 64.3768 269.994C64.3768 270.374 64.6843 270.681 65.0636 270.681Z" fill="#161742"/>
<path d="M101.944 240.145C102.377 240.145 102.728 239.794 102.728 239.361C102.728 238.928 102.377 238.577 101.944 238.577C101.511 238.577 101.16 238.928 101.16 239.361C101.16 239.794 101.511 240.145 101.944 240.145Z" fill="#161742"/>
<path d="M99.9071 254.102C100.312 254.102 100.641 253.773 100.641 253.368C100.641 252.963 100.312 252.635 99.9071 252.635C99.5019 252.635 99.1734 252.963 99.1734 253.368C99.1734 253.773 99.5019 254.102 99.9071 254.102Z" fill="#161742"/>
<path d="M59.1469 242.667C59.6668 242.667 60.0883 242.246 60.0883 241.726C60.0883 241.206 59.6668 240.785 59.1469 240.785C58.627 240.785 58.2055 241.206 58.2055 241.726C58.2055 242.246 58.627 242.667 59.1469 242.667Z" fill="#161742"/>
<path d="M119.517 231.195C119.852 231.195 120.123 230.924 120.123 230.589C120.123 230.254 119.852 229.983 119.517 229.983C119.182 229.983 118.91 230.254 118.91 230.589C118.91 230.924 119.182 231.195 119.517 231.195Z" fill="#161742"/>
<path d="M87.7521 192.943C88.1925 192.943 88.5495 192.586 88.5495 192.145C88.5495 191.705 88.1925 191.348 87.7521 191.348C87.3117 191.348 86.9547 191.705 86.9547 192.145C86.9547 192.586 87.3117 192.943 87.7521 192.943Z" fill="#161742"/>
<path d="M106.286 196.121C106.627 196.121 106.903 195.845 106.903 195.505C106.903 195.164 106.627 194.889 106.286 194.889C105.946 194.889 105.67 195.164 105.67 195.505C105.67 195.845 105.946 196.121 106.286 196.121Z" fill="#161742"/>
<path d="M49.91 299.646C50.2042 299.646 50.4427 299.408 50.4427 299.114C50.4427 298.819 50.2042 298.581 49.91 298.581C49.6158 298.581 49.3773 298.819 49.3773 299.114C49.3773 299.408 49.6158 299.646 49.91 299.646Z" fill="#161742"/>
<path d="M110.032 250.005C110.552 250.005 110.973 249.584 110.973 249.064C110.973 248.544 110.552 248.123 110.032 248.123C109.512 248.123 109.09 248.544 109.09 249.064C109.09 249.584 109.512 250.005 110.032 250.005Z" fill="#161742"/>
<path d="M51.4244 264.672C51.924 264.672 52.329 264.267 52.329 263.768C52.329 263.268 51.924 262.864 51.4244 262.864C50.9248 262.864 50.5198 263.268 50.5198 263.768C50.5198 264.267 50.9248 264.672 51.4244 264.672Z" fill="#161742"/>
<path d="M27.781 271.471C28.2177 271.471 28.5717 271.117 28.5717 270.681C28.5717 270.244 28.2177 269.891 27.781 269.891C27.3443 269.891 26.9903 270.244 26.9903 270.681C26.9903 271.117 27.3443 271.471 27.781 271.471Z" fill="#161742"/>
</g>
<g opacity="0.54">
<path d="M129.534 79.882C129.963 79.882 130.311 79.5341 130.311 79.1049C130.311 78.6758 129.963 78.3279 129.534 78.3279C129.105 78.3279 128.757 78.6758 128.757 79.1049C128.757 79.5341 129.105 79.882 129.534 79.882Z" fill="#161742"/>
<path d="M112.95 94.2539C113.451 94.2539 113.858 93.8476 113.858 93.3463C113.858 92.845 113.451 92.4386 112.95 92.4386C112.449 92.4386 112.042 92.845 112.042 93.3463C112.042 93.8476 112.449 94.2539 112.95 94.2539Z" fill="#161742"/>
<path d="M129.534 96.3809C129.967 96.3809 130.318 96.03 130.318 95.5971C130.318 95.1643 129.967 94.8134 129.534 94.8134C129.101 94.8134 128.75 95.1643 128.75 95.5971C128.75 96.03 129.101 96.3809 129.534 96.3809Z" fill="#161742"/>
<path d="M137.515 116.517C138.035 116.517 138.456 116.096 138.456 115.576C138.456 115.056 138.035 114.635 137.515 114.635C136.995 114.635 136.573 115.056 136.573 115.576C136.573 116.096 136.995 116.517 137.515 116.517Z" fill="#161742"/>
<path d="M117.607 77.1489C118.047 77.1489 118.404 76.792 118.404 76.3517C118.404 75.9115 118.047 75.5546 117.607 75.5546C117.167 75.5546 116.81 75.9115 116.81 76.3517C116.81 76.792 117.167 77.1489 117.607 77.1489Z" fill="#161742"/>
<path d="M134.489 66.7123C134.83 66.7123 135.106 66.4364 135.106 66.096C135.106 65.7557 134.83 65.4797 134.489 65.4797C134.149 65.4797 133.873 65.7557 133.873 66.096C133.873 66.4364 134.149 66.7123 134.489 66.7123Z" fill="#161742"/>
<path d="M96.1883 100.286C96.4825 100.286 96.721 100.048 96.721 99.7536C96.721 99.4595 96.4825 99.2211 96.1883 99.2211C95.894 99.2211 95.6555 99.4595 95.6555 99.7536C95.6555 100.048 95.894 100.286 96.1883 100.286Z" fill="#161742"/>
<path d="M116.81 112.692C117.246 112.692 117.6 112.338 117.6 111.902C117.6 111.465 117.246 111.111 116.81 111.111C116.373 111.111 116.019 111.465 116.019 111.902C116.019 112.338 116.373 112.692 116.81 112.692Z" fill="#161742"/>
</g>
<g opacity="0.54">
<path d="M217.829 180.46C218.258 180.46 218.606 180.112 218.606 179.683C218.606 179.253 218.258 178.906 217.829 178.906C217.4 178.906 217.052 179.253 217.052 179.683C217.052 180.112 217.4 180.46 217.829 180.46Z" fill="#161742"/>
<path d="M242.94 181.568C243.441 181.568 243.848 181.162 243.848 180.66C243.848 180.159 243.441 179.753 242.94 179.753C242.438 179.753 242.032 180.159 242.032 180.66C242.032 181.162 242.438 181.568 242.94 181.568Z" fill="#161742"/>
<path d="M196.035 215.253C196.414 215.253 196.722 214.945 196.722 214.566C196.722 214.187 196.414 213.879 196.035 213.879C195.656 213.879 195.348 214.187 195.348 214.566C195.348 214.945 195.656 215.253 196.035 215.253Z" fill="#161742"/>
<path d="M232.822 202.863C233.255 202.863 233.606 202.513 233.606 202.08C233.606 201.647 233.255 201.296 232.822 201.296C232.389 201.296 232.038 201.647 232.038 202.08C232.038 202.513 232.389 202.863 232.822 202.863Z" fill="#161742"/>
<path d="M215.792 210.915C216.197 210.915 216.526 210.587 216.526 210.182C216.526 209.777 216.197 209.448 215.792 209.448C215.387 209.448 215.058 209.777 215.058 210.182C215.058 210.587 215.387 210.915 215.792 210.915Z" fill="#161742"/>
<path d="M196.976 182.543C197.496 182.543 197.918 182.121 197.918 181.602C197.918 181.082 197.496 180.661 196.976 180.661C196.457 180.661 196.035 181.082 196.035 181.602C196.035 182.121 196.457 182.543 196.976 182.543Z" fill="#161742"/>
<path d="M207.322 175.623C207.942 175.623 208.445 175.121 208.445 174.501C208.445 173.881 207.942 173.379 207.322 173.379C206.702 173.379 206.2 173.881 206.2 174.501C206.2 175.121 206.702 175.623 207.322 175.623Z" fill="#161742"/>
<path d="M235.402 188.006C235.736 188.006 236.008 187.734 236.008 187.399C236.008 187.065 235.736 186.793 235.402 186.793C235.067 186.793 234.795 187.065 234.795 187.399C234.795 187.734 235.067 188.006 235.402 188.006Z" fill="#161742"/>
<path d="M203.637 149.753C204.077 149.753 204.434 149.396 204.434 148.956C204.434 148.515 204.077 148.158 203.637 148.158C203.197 148.158 202.84 148.515 202.84 148.956C202.84 149.396 203.197 149.753 203.637 149.753Z" fill="#161742"/>
<path d="M222.171 152.935C222.512 152.935 222.788 152.659 222.788 152.318C222.788 151.978 222.512 151.702 222.171 151.702C221.831 151.702 221.555 151.978 221.555 152.318C221.555 152.659 221.831 152.935 222.171 152.935Z" fill="#161742"/>
<path d="M193.472 162.929C193.766 162.929 194.005 162.691 194.005 162.397C194.005 162.102 193.766 161.864 193.472 161.864C193.178 161.864 192.939 162.102 192.939 162.397C192.939 162.691 193.178 162.929 193.472 162.929Z" fill="#161742"/>
<path d="M225.917 206.816C226.437 206.816 226.858 206.394 226.858 205.874C226.858 205.355 226.437 204.933 225.917 204.933C225.397 204.933 224.975 205.355 224.975 205.874C224.975 206.394 225.397 206.816 225.917 206.816Z" fill="#161742"/>
<path d="M204.542 210.912C205.041 210.912 205.446 210.507 205.446 210.007C205.446 209.508 205.041 209.103 204.542 209.103C204.042 209.103 203.637 209.508 203.637 210.007C203.637 210.507 204.042 210.912 204.542 210.912Z" fill="#161742"/>
<path d="M190.628 202.137C191.064 202.137 191.418 201.783 191.418 201.346C191.418 200.91 191.064 200.556 190.628 200.556C190.191 200.556 189.837 200.91 189.837 201.346C189.837 201.783 190.191 202.137 190.628 202.137Z" fill="#161742"/>
</g>
<g opacity="0.54">
<path d="M250.723 337.889C251.507 337.889 252.143 337.253 252.143 336.469C252.143 335.685 251.507 335.049 250.723 335.049C249.938 335.049 249.302 335.685 249.302 336.469C249.302 337.253 249.938 337.889 250.723 337.889Z" fill="#161742"/>
<path d="M267.133 317.843C267.562 317.843 267.91 317.495 267.91 317.066C267.91 316.637 267.562 316.289 267.133 316.289C266.703 316.289 266.355 316.637 266.355 317.066C266.355 317.495 266.703 317.843 267.133 317.843Z" fill="#161742"/>
<path d="M249.305 307.443C250.088 307.443 250.723 306.809 250.723 306.027C250.723 305.244 250.088 304.61 249.305 304.61C248.523 304.61 247.888 305.244 247.888 306.027C247.888 306.809 248.523 307.443 249.305 307.443Z" fill="#161742"/>
<path d="M270.858 326.618C271.537 326.618 272.088 326.068 272.088 325.389C272.088 324.71 271.537 324.16 270.858 324.16C270.179 324.16 269.629 324.71 269.629 325.389C269.629 326.068 270.179 326.618 270.858 326.618Z" fill="#161742"/>
<path d="M262.851 295.731C263.687 295.731 264.365 295.053 264.365 294.217C264.365 293.381 263.687 292.703 262.851 292.703C262.015 292.703 261.337 293.381 261.337 294.217C261.337 295.053 262.015 295.731 262.851 295.731Z" fill="#161742"/>
<path d="M292.243 318.955C292.745 318.955 293.151 318.549 293.151 318.047C293.151 317.546 292.745 317.14 292.243 317.14C291.742 317.14 291.335 317.546 291.335 318.047C291.335 318.549 291.742 318.955 292.243 318.955Z" fill="#161742"/>
<path d="M245.339 352.636C245.718 352.636 246.025 352.329 246.025 351.95C246.025 351.57 245.718 351.263 245.339 351.263C244.959 351.263 244.652 351.57 244.652 351.95C244.652 352.329 244.959 352.636 245.339 352.636Z" fill="#161742"/>
<path d="M282.125 340.247C282.558 340.247 282.909 339.896 282.909 339.463C282.909 339.03 282.558 338.679 282.125 338.679C281.692 338.679 281.341 339.03 281.341 339.463C281.341 339.896 281.692 340.247 282.125 340.247Z" fill="#161742"/>
<path d="M265.096 348.299C265.501 348.299 265.829 347.97 265.829 347.565C265.829 347.16 265.501 346.832 265.096 346.832C264.69 346.832 264.362 347.16 264.362 347.565C264.362 347.97 264.69 348.299 265.096 348.299Z" fill="#161742"/>
<path d="M246.28 319.926C246.8 319.926 247.222 319.505 247.222 318.985C247.222 318.465 246.8 318.044 246.28 318.044C245.76 318.044 245.339 318.465 245.339 318.985C245.339 319.505 245.76 319.926 246.28 319.926Z" fill="#161742"/>
<path d="M256.626 313.01C257.246 313.01 257.748 312.508 257.748 311.888C257.748 311.268 257.246 310.766 256.626 310.766C256.006 310.766 255.504 311.268 255.504 311.888C255.504 312.508 256.006 313.01 256.626 313.01Z" fill="#161742"/>
<path d="M284.705 325.393C285.04 325.393 285.312 325.121 285.312 324.786C285.312 324.451 285.04 324.18 284.705 324.18C284.37 324.18 284.099 324.451 284.099 324.786C284.099 325.121 284.37 325.393 284.705 325.393Z" fill="#161742"/>
<path d="M252.941 287.136C253.381 287.136 253.738 286.779 253.738 286.339C253.738 285.899 253.381 285.542 252.941 285.542C252.5 285.542 252.143 285.899 252.143 286.339C252.143 286.779 252.5 287.136 252.941 287.136Z" fill="#161742"/>
<path d="M271.475 290.318C271.815 290.318 272.091 290.042 272.091 289.702C272.091 289.361 271.815 289.086 271.475 289.086C271.134 289.086 270.858 289.361 270.858 289.702C270.858 290.042 271.134 290.318 271.475 290.318Z" fill="#161742"/>
<path d="M278.621 301.384C279.211 301.384 279.69 300.906 279.69 300.316C279.69 299.726 279.211 299.248 278.621 299.248C278.031 299.248 277.552 299.726 277.552 300.316C277.552 300.906 278.031 301.384 278.621 301.384Z" fill="#161742"/>
<path d="M242.776 300.313C243.07 300.313 243.308 300.074 243.308 299.78C243.308 299.486 243.07 299.248 242.776 299.248C242.481 299.248 242.243 299.486 242.243 299.78C242.243 300.074 242.481 300.313 242.776 300.313Z" fill="#161742"/>
<path d="M275.22 344.202C275.74 344.202 276.162 343.781 276.162 343.261C276.162 342.741 275.74 342.32 275.22 342.32C274.7 342.32 274.279 342.741 274.279 343.261C274.279 343.781 274.7 344.202 275.22 344.202Z" fill="#161742"/>
<path d="M253.845 348.299C254.345 348.299 254.75 347.894 254.75 347.394C254.75 346.895 254.345 346.49 253.845 346.49C253.346 346.49 252.941 346.895 252.941 347.394C252.941 347.894 253.346 348.299 253.845 348.299Z" fill="#161742"/>
<path d="M239.931 339.523C240.368 339.523 240.722 339.17 240.722 338.733C240.722 338.296 240.368 337.943 239.931 337.943C239.495 337.943 239.141 338.296 239.141 338.733C239.141 339.17 239.495 339.523 239.931 339.523Z" fill="#161742"/>
</g>
</g>
<path d="M25.3051 105.327L75.3525 129.667L25.3051 140.033V105.327Z" fill="#FFD325"/>
<path d="M56.4901 48.4718L72.5215 74.6135L25.3051 48.5086L56.4901 48.4718Z" fill="#FFD325"/>
<path d="M84.318 48.6694L89.1324 61.7386L73.5567 48.5087L84.318 48.6694Z" fill="#FFD325"/>
<path d="M106.38 48.5086L103.445 61.8826L93.3672 48.3646L106.38 48.5086Z" fill="#FFD325"/>
<path d="M25.3051 61.9965L72.6454 105.263L25.3051 96.699V61.9965Z" fill="#FFD325"/>
<path d="M240.812 344.986C240.802 344.933 240.792 344.879 240.782 344.822C238.544 347.338 236.196 345.663 234.071 343.369C231.944 341.081 230.825 339.738 225.123 339.403C219.42 339.065 217.742 341.526 216.12 343.817C214.656 345.887 212.871 347.043 211.343 346.916C212.948 347.214 216.412 347.505 223.84 347.505C236.309 347.505 240.159 347.019 240.819 344.986H240.812Z" fill="#FFD325"/>
<path d="M240.812 344.986C240.152 347.019 236.306 347.505 223.833 347.505C216.405 347.505 212.941 347.214 211.336 346.916C211.001 346.855 210.75 346.792 210.559 346.731C210.23 346.594 210.093 346.427 210.07 346.256C210.006 345.847 210.582 345.435 210.582 345.435C210.582 345.435 208.847 345.824 208.957 346.775C209.071 347.726 210.408 348.898 213.209 348.898C213.209 348.898 219.417 349.009 229.763 348.898C239.904 348.791 241.342 347.659 240.812 344.98V344.986Z" fill="#AF8E2F"/>
<path d="M215.145 347.381C215.145 347.381 215.3 347.28 215.541 347.073C215.795 346.875 216.114 346.55 216.482 346.158C216.653 345.947 216.861 345.74 217.042 345.489C217.229 345.244 217.434 344.993 217.615 344.712C217.99 344.169 218.389 343.526 218.831 342.933C219.715 341.751 220.744 340.659 221.672 340.016C221.903 339.852 222.124 339.721 222.335 339.617C222.54 339.52 222.724 339.436 222.885 339.396C223.039 339.346 223.169 339.332 223.257 339.329C223.344 339.326 223.387 339.319 223.387 339.319C223.387 339.319 223.344 339.336 223.263 339.363C223.18 339.386 223.066 339.436 222.925 339.51C222.647 339.647 222.285 339.925 221.89 340.287C221.498 340.652 221.069 341.118 220.633 341.63C220.412 341.885 220.198 342.163 219.973 342.441C219.749 342.719 219.531 343.007 219.32 343.298C219.099 343.589 218.888 343.881 218.683 344.172C218.486 344.47 218.258 344.752 218.043 345.03C217.839 345.318 217.598 345.556 217.38 345.793C217.169 346.035 216.924 346.219 216.72 346.413C216.288 346.768 215.889 347.016 215.604 347.173C215.32 347.331 215.142 347.384 215.142 347.384L215.145 347.381Z" fill="#161742"/>
<path d="M223.685 339.353C223.685 339.353 223.706 339.497 223.719 339.751C223.726 340.006 223.742 340.367 223.719 340.809C223.692 341.245 223.635 341.754 223.525 342.293C223.417 342.829 223.257 343.399 223.039 343.951C222.938 344.229 222.794 344.494 222.67 344.752C222.543 345.016 222.365 345.251 222.221 345.489C222.05 345.713 221.88 345.924 221.705 346.115C221.518 346.292 221.333 346.453 221.163 346.597C220.972 346.721 220.797 346.828 220.643 346.919C220.493 347.019 220.332 347.053 220.214 347.106C219.973 347.193 219.836 347.237 219.836 347.237C219.836 347.237 219.956 347.143 220.157 346.999C220.255 346.919 220.395 346.862 220.513 346.734C220.637 346.611 220.774 346.477 220.928 346.339C221.062 346.179 221.206 346.004 221.357 345.823C221.488 345.626 221.625 345.418 221.769 345.204C222.017 344.748 222.278 344.256 222.473 343.73C222.69 343.218 222.851 342.675 223.002 342.173C223.149 341.664 223.27 341.178 223.37 340.763C223.571 339.932 223.685 339.359 223.685 339.359V339.353Z" fill="#161742"/>
<path d="M225.756 339.282C225.756 339.282 225.967 339.765 226.158 340.525C226.255 340.903 226.349 341.352 226.419 341.838C226.493 342.32 226.54 342.843 226.557 343.368C226.567 343.63 226.557 343.891 226.553 344.152C226.553 344.41 226.51 344.668 226.493 344.913C226.433 345.405 226.329 345.857 226.205 346.239C226.151 346.43 226.064 346.597 226.004 346.745C225.95 346.895 225.87 347.019 225.81 347.113C225.686 347.304 225.612 347.414 225.612 347.414C225.612 347.414 225.645 347.287 225.699 347.066C225.729 346.959 225.763 346.825 225.786 346.674C225.806 346.517 225.85 346.353 225.866 346.158C225.91 345.783 225.944 345.341 225.957 344.869C225.967 344.397 225.974 343.891 225.95 343.382C225.95 342.876 225.907 342.367 225.887 341.888C225.86 341.409 225.833 340.96 225.813 340.575C225.766 339.805 225.753 339.282 225.753 339.282H225.756Z" fill="#161742"/>
<path d="M227.605 339.497C227.605 339.497 227.924 340.046 228.399 340.87C228.644 341.275 228.922 341.751 229.237 342.246C229.545 342.745 229.887 343.268 230.255 343.77C230.607 344.286 231.003 344.762 231.371 345.207C231.572 345.422 231.76 345.626 231.941 345.824C232.138 346.001 232.319 346.175 232.487 346.339C232.668 346.48 232.832 346.617 232.979 346.745C233.123 346.872 233.271 346.949 233.385 347.026C233.616 347.177 233.75 347.27 233.75 347.27C233.75 347.27 233.599 347.224 233.331 347.13C233.2 347.076 233.029 347.036 232.862 346.935C232.688 346.848 232.487 346.745 232.276 346.621C232.078 346.483 231.86 346.333 231.639 346.162C231.425 345.984 231.204 345.787 230.982 345.579C230.781 345.358 230.554 345.137 230.349 344.889C230.158 344.638 229.944 344.397 229.76 344.129C229.394 343.596 229.049 343.054 228.775 342.521C228.49 341.989 228.265 341.473 228.091 341.027C227.914 340.582 227.8 340.193 227.719 339.929C227.639 339.661 227.609 339.5 227.609 339.5L227.605 339.497Z" fill="#161742"/>
<path d="M220.09 338.227C220.09 338.227 220.647 340.408 225.682 340.575C230.714 340.743 231.72 338.733 231.72 338.733L220.09 338.231V338.227Z" fill="#AF8E2F"/>
<path d="M235.217 309.108L232.741 300.349C233.649 300.118 234.326 299.304 234.326 298.326C234.326 297.174 233.388 296.236 232.235 296.236C231.083 296.236 230.145 297.171 230.145 298.326C230.145 299.05 230.513 299.683 231.07 300.058L227.237 308.462L227.274 308.519C228.761 308.19 231.743 307.845 235.217 309.108Z" fill="#FFD325"/>
<path d="M227.274 308.519L228.188 309.996L233.06 310.632L235.231 309.152L235.221 309.111C231.743 307.849 228.761 308.194 227.277 308.522L227.274 308.519Z" fill="#AF8E2F"/>
<path d="M230.399 310.203C220.586 308.853 213.658 312.779 213.658 312.779C213.658 312.779 227.341 318.938 245.546 319.092C245.546 319.092 240.209 311.553 230.399 310.203Z" fill="#FFD325"/>
<path d="M212.123 314.31C218.278 316.591 239.66 321.357 246.957 320.134C246.773 318.537 245.546 319.089 245.546 319.089C227.341 318.935 213.658 312.776 213.658 312.776C211.875 312.223 212.123 314.31 212.123 314.31Z" fill="#AF8E2F"/>
<path d="M230.614 302.352C229.79 304.081 228.627 305.956 228.332 307.872C228.302 308.083 228.59 308.003 228.634 307.862C229.25 305.98 229.877 304.191 230.698 302.389C230.795 302.175 230.684 302.198 230.611 302.352H230.614Z" fill="white"/>
<path d="M231.14 298.584C230.952 298.042 231.033 297.094 231.602 296.853C231.696 296.812 231.84 296.732 231.683 296.772C230.413 297.084 230.416 299.14 231.425 299.76C231.565 299.85 231.837 299.562 231.699 299.442C231.408 299.177 231.271 298.949 231.14 298.581V298.584Z" fill="white"/>
<path d="M228.778 310.91C226.392 310.501 223.896 310.582 221.501 310.883C219.615 311.118 217.306 311.674 215.866 312.983C215.765 313.074 215.849 313.238 215.966 313.144C219.31 310.565 224.821 310.588 228.758 310.953C228.922 310.967 228.999 310.95 228.778 310.913V310.91Z" fill="white"/>
<path d="M237.248 319.833C264.415 321.859 267.987 311.637 267.367 307.366C266.747 303.096 262.476 299.877 256.348 300.557C250.217 301.237 250.28 305.943 251.58 307.055C252.88 308.17 254.12 306.187 252.941 305.755C253.993 304.268 256.408 306.432 254.364 308.475C252.324 310.518 248.92 308.602 248.113 306.184C246.736 302.054 250.156 299.683 250.156 299.683C250.156 299.683 249.104 298.815 249.352 297.211C250.032 293.932 253.185 294.796 253.808 295.972C254.428 297.147 252.26 298.015 252.324 296.407C251.58 296.9 250.83 300.162 258.03 298.34C269.89 295.905 274.781 305.333 271.739 314.909C270.118 320.02 266.891 324.401 262.871 327.894C259.299 330.999 255.209 333.083 250.94 334.918C249.208 335.665 247.433 336.288 245.613 336.79C239.254 338.552 232.564 339.024 225.994 338.776C207.239 338.066 198.069 328.661 188.802 319.648C179.535 310.642 170.867 311.406 170.867 311.406L170.944 310.096C170.944 310.096 183.763 304.928 212.127 314.303C225.387 318.101 237.248 319.823 237.248 319.823V319.833Z" fill="#FFD325"/>
<path d="M179.565 312.029C179.565 312.029 179.769 312.055 180.151 312.159C180.523 312.27 181.076 312.437 181.749 312.735C182.426 313.023 183.227 313.415 184.118 313.914C185.009 314.413 185.997 315.013 187.023 315.736C188.058 316.446 189.15 317.264 190.276 318.165C191.398 319.066 192.561 320.044 193.71 321.112C194.889 322.14 196.008 323.356 197.231 324.411C197.844 324.964 198.461 325.51 199.111 326.019L200.076 326.799L201.074 327.54L202.072 328.28L203.098 328.98C203.774 329.455 204.481 329.881 205.175 330.309C206.572 331.164 207.996 331.917 209.393 332.604C210.093 332.939 210.8 333.237 211.48 333.555C212.174 333.833 212.85 334.118 213.517 334.376C214.194 334.613 214.84 334.861 215.48 335.062C216.127 335.256 216.743 335.464 217.347 335.618C217.95 335.772 218.529 335.926 219.085 336.054C219.638 336.167 220.171 336.281 220.667 336.385C221.669 336.549 222.543 336.69 223.27 336.747C223.994 336.834 224.567 336.847 224.959 336.871C225.351 336.891 225.562 336.904 225.562 336.904C225.562 336.904 225.351 336.904 224.959 336.904C224.567 336.904 223.99 336.928 223.26 336.867C222.526 336.841 221.645 336.733 220.63 336.61C220.127 336.526 219.588 336.435 219.022 336.338C218.459 336.234 217.876 336.084 217.259 335.95C216.65 335.806 216.02 335.611 215.367 335.437C214.713 335.25 214.053 335.015 213.366 334.794C212.69 334.553 211.996 334.282 211.289 334.017C210.592 333.716 209.882 333.411 209.168 333.079C207.748 332.399 206.304 331.649 204.887 330.798C204.18 330.366 203.463 329.944 202.776 329.469L201.731 328.769L200.715 328.025L199.71 327.268L198.735 326.468C198.075 325.945 197.466 325.389 196.856 324.833C195.6 323.728 194.531 322.539 193.358 321.501C192.212 320.436 191.09 319.427 189.994 318.506C188.902 317.585 187.837 316.745 186.825 316.014C186.322 315.643 185.833 315.301 185.361 314.99C184.895 314.661 184.436 314.38 184.004 314.109C183.14 313.576 182.359 313.157 181.702 312.843C181.046 312.528 180.513 312.32 180.141 312.189C179.769 312.069 179.565 312.029 179.565 312.029Z" fill="white"/>
<path d="M246.853 319.973C248.25 320.214 249.704 320.251 251.111 320.097C253.651 319.819 256.579 319.226 258.877 318.091C260.475 317.304 262.03 316.403 263.41 315.267C265.357 313.67 266.901 311.69 267.347 309.188C267.635 307.584 267.424 305.862 266.556 304.459C266.392 304.194 265.993 303.816 265.739 303.635" stroke="#161742" stroke-width="1.5" stroke-miterlimit="10"/>
<path d="M214.331 336.874C215.326 337.293 216.372 337.581 217.434 337.785C219.776 338.237 222.124 338.633 224.543 338.74C227.357 338.864 230.309 338.911 233.17 338.696C234.383 338.606 235.593 338.492 236.799 338.348C239.311 338.05 241.704 337.644 244.163 337.092C245.972 336.687 247.577 336.265 249.319 335.605" stroke="#161742" stroke-width="1.5" stroke-miterlimit="10"/>
<path d="M145.056 273.126C143.026 272.265 140.754 271.579 138.744 271.1C135.183 270.249 131.454 269.78 127.842 269.777C122.09 269.777 116.485 270.845 111.034 272.617C108.464 273.451 105.958 274.566 103.81 276.227C101.961 277.654 99.1365 280.173 100.209 282.822C100.852 284.417 103.385 284.715 104.846 284.862C109.291 285.318 113.52 284.711 117.959 284.088C122.666 283.425 127.397 283.218 132.154 283.1C134.419 283.047 136.778 282.906 138.972 283.583C141.756 284.44 144.266 286.115 142.245 289.065C140.748 291.253 138.198 292.398 136.53 294.414C136.061 294.977 135.592 295.55 135.273 296.21C135.032 296.715 134.885 297.265 134.794 297.817C134.586 299.057 135.102 300.222 135.974 301.086C137.414 302.513 139.97 302.6 141.87 302.433C144.53 302.198 147.174 301.522 149.8 301.066C154.963 300.169 160.508 299.589 165.379 301.967C166.532 302.53 167.711 303.223 168.646 304.107C169.306 304.73 169.752 305.092 169.195 305.832C169.058 306.017 166.984 307.544 166.907 307.494C165.798 306.707 165.138 305.373 163.986 304.6C162.92 303.883 161.543 303.726 160.341 303.618C154.903 303.146 148.943 304.921 143.766 306.425C140.838 307.276 137.823 308.147 134.865 308.663C132.094 309.145 129.269 309.483 126.455 309.269C124.566 309.125 122.777 308.79 121.704 307.072C120.766 305.571 120.823 303.669 121.47 302.068C122.442 299.663 124.559 298.025 126.516 296.447C128.234 295.064 130.881 293.45 129.514 290.934C128.998 289.983 127.39 289.916 126.435 290.047C121.765 290.683 117.165 291.594 112.488 292.298C112.367 292.314 112.25 292.334 112.129 292.351C107.844 292.988 103.442 293.527 99.1533 293.406C96.3223 293.326 93.2902 292.777 91.0555 290.898C89.367 289.477 88.3049 287.468 88.2345 285.247C88.1575 282.832 88.7773 280.354 89.9298 278.234C96.3323 266.488 110.075 261.802 122.646 260.693C125.061 260.479 127.487 260.382 129.913 260.362C135.498 260.315 140.775 261.547 145.787 264.032C146.899 264.585 147.928 265.288 148.886 266.079C151.871 268.541 153.553 271.733 155.667 274.918C156.766 276.576 157.912 278.361 159.252 279.895C159.932 280.672 160.635 281.285 161.369 281.844C163.466 283.445 165.949 284.42 168.495 285.043C173.139 286.182 177.545 286.396 182.295 286.349C186.011 286.312 189.773 285.746 193.462 285.281C198.209 284.681 202.947 283.382 207.634 282.37C214.425 280.906 220.948 278.106 227.13 274.948C231.529 272.701 235.79 269.616 239.214 265.975C241.62 263.42 243.349 260.553 244.35 257.196C245.359 253.814 245 250.129 242.31 247.617C241.114 246.502 239.717 245.631 238.216 244.985C237.442 244.65 236.648 244.358 235.871 244.07C234.43 243.534 232.939 243.143 231.428 242.851C226.5 241.91 221.618 242.426 216.69 243.015C211.966 243.578 207.272 244.831 202.642 245.886C192.333 248.234 182.004 251.442 171.336 251.007C168.797 250.903 166.271 250.555 163.825 249.855C159.781 248.696 155.674 246.452 152.32 243.923C151.817 243.545 147.415 239.338 147.324 239.381C148.631 238.795 149.975 239.13 151.331 239.267C155.161 239.656 159.292 238.695 162.518 236.591C166.361 234.086 168.442 229.611 169.427 225.274C169.232 226.121 175.91 228.295 176.663 228.513C180.908 229.722 185.341 229.879 189.713 229.454C195.134 228.928 200.437 227.712 205.718 226.573C211.661 225.291 217.551 223.77 223.521 222.618C226.996 221.948 230.5 221.399 234.028 221.104C238.283 220.746 242.581 220.488 246.84 220.977C253.899 221.787 261.414 223.167 266.834 228.191C268.577 229.805 269.977 231.795 270.959 233.952C271.364 234.843 271.696 235.764 271.957 236.705C272.711 239.411 272.895 242.285 272.694 245.115C272.51 247.741 271.937 250.327 271.063 252.809C269.428 257.464 266.345 261.775 262.804 265.131C258.01 269.669 252.622 273.521 246.917 276.827C244.072 278.475 241.194 280.123 238.32 281.617C235.576 283.043 232.772 284.36 229.89 285.485C224.67 287.525 219.239 288.952 213.809 290.298C209.021 291.484 204.17 292.385 199.308 293.215C196.504 293.694 193.683 294.086 190.852 294.344C188.805 294.532 186.755 294.676 184.701 294.749C180.747 294.893 176.781 294.786 172.851 294.297C170.871 294.049 168.911 293.644 166.974 293.158C163.929 292.398 161.004 291.105 158.427 289.307C156.464 287.937 155.362 286.413 154.313 284.293C153.362 282.367 152.792 280.19 151.74 278.368C150.648 276.472 148.923 275.102 147.02 274.077C146.403 273.746 145.74 273.434 145.05 273.139L145.056 273.126Z" fill="#FFD325"/>
<path d="M204.635 112.364C194.976 108.207 186.141 102.889 178.546 96.6522C173.538 97.6738 168.726 99.2815 164.324 101.405C164.043 101.542 163.744 101.693 163.614 101.931C163.46 102.212 163.574 102.534 163.691 102.825C165.949 108.439 168.398 114.303 173.839 118.376C176.204 120.148 179.039 121.494 181.94 122.687C185.381 124.1 189.043 125.336 192.923 125.55C197.278 125.792 197.797 123.474 199.101 120.868C200.585 117.897 202.964 115.281 204.635 112.361V112.364Z" fill="#161742"/>
<path d="M159.674 218.749C160.753 215.373 160.287 211.726 160.706 208.252C161.506 201.604 165.346 193.974 169.641 188.927C172.74 185.286 176.499 182.174 180.573 179.683C183.964 177.613 188.554 176.765 191.589 174.504C192.283 178.604 192.216 182.787 193.874 186.689C196.568 193.033 200.176 197.913 205.047 202.85C209.376 207.234 215.162 210.091 221.28 210.845C225.84 211.404 233.988 211.197 237.985 208.671C243.71 205.057 248.565 199.882 251.607 193.817C255.088 186.88 251.138 179.411 248.357 172.682C245.081 164.755 241.693 157.118 238.273 149.274C234.38 140.344 231.475 129.878 223.427 123.614C222.305 122.74 221.012 122.117 219.712 121.541C216.301 120.031 212.562 118.791 208.894 119.458C200.997 120.895 192.45 122.593 184.393 120.965C179.257 119.93 174.703 117.03 171.192 113.191C168.09 109.882 166.673 105.91 164.173 102.266C164.036 102.065 163.882 101.854 163.651 101.777C163.43 101.703 163.188 101.777 162.971 101.857C159.774 103.053 157.563 105.35 154.152 106.101C150.243 106.961 146.728 106.432 142.825 105.749C139.632 105.19 136.208 104.922 132.968 104.851C123.875 104.657 113.707 107.829 107.663 114.923C107.606 114.357 107.546 113.787 107.482 113.215C106.95 108.442 106.182 103.411 104.913 98.8326C103.971 95.4397 103.174 92.0971 102.487 88.6473C101.787 89.297 101.113 90.1076 100.292 90.5865C99.4381 91.0822 98.4464 91.4105 97.5049 91.6851C95.4445 92.2914 93.2969 92.3315 91.2029 91.8693C90.1677 91.6382 80.9878 87.0965 81.1955 86.6176C79.9592 89.4478 79.2791 92.211 77.0277 94.5086C72.2534 99.3786 67.4792 104.249 62.705 109.118C58.3395 113.57 53.9706 117.294 52.1916 123.47C50.6236 128.92 50.503 135.381 52.9387 140.606C60.7283 157.295 80.8336 152.844 95.153 150.61C95.2736 150.59 95.3942 150.573 95.5148 150.557C95.5249 152.898 94.2484 155.497 93.7827 157.831C93.2065 160.735 92.7877 163.676 92.5766 166.63C92.1578 172.502 92.5397 178.453 94.0574 184.157C96.788 194.426 103.66 201.045 110.494 208.772C115.992 214.988 123.906 219.52 130.546 224.447C132.6 225.971 134.704 227.521 137.133 228.325C139.686 229.169 142.45 229.122 145.056 228.553C146.276 228.288 147.425 228.017 148.645 227.779C149.965 227.521 151.231 227.009 152.394 226.332C153.238 225.84 154.26 225.538 155.017 224.946C157.034 223.368 158.893 221.214 159.684 218.739L159.674 218.749Z" fill="#1D478E"/>
<path d="M105.656 82.3404C105.211 83.5294 104.584 84.6481 103.971 85.75C103.12 87.2773 102.601 88.4898 101.224 89.5884C100.018 90.5497 98.6909 91.2832 97.1799 91.5009C95.6388 91.7219 94.2451 92.1038 92.6603 91.9865C90.7439 91.8425 88.7036 90.7875 87.0217 89.93C86.2076 89.5147 85.37 89.0826 84.5458 88.6673C83.5206 88.1515 82.5524 87.4683 81.6511 86.7649C79.6443 85.1974 77.7882 83.4457 76.3576 81.3256C75.2118 79.6308 74.3373 77.7418 73.9788 75.7188C73.6338 73.7728 73.5467 71.6995 72.9034 69.8406C72.4377 68.4942 72.2266 67.0808 71.6269 65.7812C71.0473 64.5219 70.2198 63.3998 69.3889 62.2979C68.558 61.196 67.4021 59.5682 68.2498 58.1682C69.7842 55.6361 73.7309 57.4112 75.8081 58.1514C75.7177 57.1768 76.763 56.7514 77.5805 56.7983C78.5956 56.8586 79.6141 57.2873 80.5254 57.7093C82.3748 58.5734 83.9327 59.9902 85.2896 61.4907C86.1808 62.4754 86.9581 63.5573 87.8325 64.5554C88.7873 65.6439 89.6216 66.7827 90.6836 67.7741C91.5514 68.588 92.3488 69.8306 93.7157 69.6397C93.2165 68.0052 92.6503 66.421 92.7977 64.6826C93.0289 62.0434 95.2401 59.7055 97.8199 59.1931C99.9205 58.7777 102.48 59.9467 103.445 61.8826C104.316 63.6343 103.053 64.9037 101.971 66.153C100.557 67.7841 100.493 69.5325 101.411 71.4215C102.299 73.2503 103.613 74.8412 104.611 76.6097C105.697 78.5389 106.48 80.1432 105.656 82.3438V82.3404Z" fill="#1D478E" stroke="#161742" stroke-width="1.5" stroke-miterlimit="10"/>
<path d="M244.545 156.204C244.3 156.485 244.042 156.756 243.864 157.081C243.55 157.664 243.891 158.103 243.751 158.672C243.265 160.625 241.469 162.031 239.543 162.608C237.033 163.358 234.205 163.016 231.632 162.842C231.485 162.832 231.338 162.822 231.194 162.862C230.946 162.926 230.755 163.117 230.574 163.297C228.768 165.096 226.758 165.093 224.57 166.131C222.647 167.042 222.272 168.78 220.868 170.157C219.37 171.627 217.765 172.98 215.933 174.019C214.345 174.92 212.757 175.6 210.947 175.74C208.967 175.894 207.141 176.524 205.111 176.39C203.024 176.253 200.437 175.804 198.558 174.866C195.211 173.195 190.413 171.101 190.862 166.573C191.053 164.661 191.7 162.731 192.722 161.1C193.727 159.496 195.06 158.535 196.373 157.185C197.295 156.234 197.265 154.465 197.653 153.263C198.096 151.88 199.68 150.841 200.836 150.108C202.451 149.08 204.119 148.135 205.828 147.274C206.873 146.748 207.996 146.199 208.575 145.184C208.92 144.585 209.031 143.881 209.142 143.198C209.373 141.721 209.604 140.244 209.838 138.764C209.919 138.248 210.003 137.722 210.227 137.25C210.71 136.238 211.782 135.618 212.871 135.354C216.365 134.503 220.188 137.096 221.072 140.579C221.528 142.374 221.253 144.287 220.476 145.951C220.08 146.799 219.524 147.777 218.801 148.386C218.211 148.882 217.501 149.059 217.005 149.689C217.377 149.22 220.7 149.28 221.384 149.197C222.978 148.996 224.567 148.778 226.158 148.564C229.341 148.135 232.524 147.713 235.727 147.465C237.623 147.318 239.589 147.566 241.409 148.105C243.044 148.59 244.923 149.264 245.925 150.794C247.225 152.787 245.935 154.619 244.548 156.214L244.545 156.204Z" fill="#1D478E" stroke="#161742" stroke-width="1.5" stroke-miterlimit="10"/>
<path d="M194.631 187.162C196.739 190.126 203.935 191.445 207.296 191.884C211.882 192.48 216.78 191.777 220.58 189.138C228.285 183.786 228.46 173.965 225.21 165.89C224.412 165.367 223.401 166.218 223.005 167.086C222.151 168.968 220.08 171.038 218.338 172.264C215.517 174.25 212.411 175.586 208.93 175.797C202.347 176.203 195.898 174.786 191.197 169.882C190.886 172.666 191.683 175.523 192.051 178.269C192.44 181.176 193 184.144 194.383 186.763C194.454 186.897 194.537 187.031 194.628 187.162H194.631Z" fill="#32B353"/>
<path d="M105.181 164.721C111.744 161.767 119.125 159.945 126.351 160.752C135.96 161.824 149.961 170.328 155.436 178.343" stroke="#161742" stroke-width="1.5" stroke-miterlimit="10"/>
<path d="M198.588 70.3062C197.399 68.7621 196.018 67.3789 194.293 66.2903C189.123 63.0314 181.528 63.3496 176.204 65.9554C172.767 67.6401 169.768 70.0818 166.813 72.5101C164.106 74.734 161.915 77.313 162.099 80.8968C162.136 81.5834 164.2 89.0927 164.689 89.1429C163.218 88.9922 161.453 88.3022 159.781 88.1348C159.362 88.0912 158.927 88.0711 158.541 88.2352C157.935 88.4931 157.597 89.1396 157.396 89.7692C156.531 92.4889 157.918 95.1215 159.607 97.1847C161.151 99.0737 163.218 101.83 165.078 103.314C167.567 105.314 168.643 103.87 169.839 101.653C172.244 107.839 175.742 116.611 182.604 119.002C189.391 121.367 197 118.832 203.754 117.596C204.511 117.458 205.289 117.301 205.935 116.882C206.743 116.36 207.252 115.489 207.714 114.642C210.093 110.291 212.914 104.292 214.278 99.556C216.308 92.5023 210.006 87.8769 206.254 82.9399C203.339 79.1049 201.58 74.1881 198.591 70.3028L198.588 70.3062Z" fill="#1D478E"/>
<path d="M191.566 70.9626C190.909 71.7799 190.323 72.6842 189.559 73.4244C189.499 73.4813 189.448 73.5349 189.401 73.5885C189.073 73.9636 189.07 74.2651 189.375 74.9852C190.36 77.2929 192.078 73.7459 192.621 73.0225C194.179 70.9425 196.464 71.2607 198.782 71.4315C199.067 71.455 199.369 71.4717 199.593 71.3076C199.818 71.1435 199.905 70.7181 199.687 70.4736C199.566 70.3363 199.392 70.2961 199.231 70.2626C197.322 69.8506 195.221 68.32 193.425 69.298C192.668 69.71 192.092 70.3095 191.562 70.966L191.566 70.9626Z" fill="#161742"/>
<path d="M179.263 78.8302C180.409 78.5556 181.609 78.4015 182.728 77.9828C182.815 77.9493 182.895 77.9225 182.969 77.9025C183.508 77.7517 183.813 77.8924 184.383 78.5422C186.212 80.6389 181.799 80.6791 180.804 80.88C177.943 81.4595 177.132 83.9145 176.154 86.3395C176.037 86.6376 175.906 86.9524 175.628 87.0998C175.35 87.2471 174.884 87.1333 174.744 86.795C174.667 86.6041 174.71 86.4131 174.757 86.2323C175.29 84.1088 174.797 81.2552 176.667 79.9087C177.454 79.3427 178.342 79.0479 179.26 78.8269L179.263 78.8302Z" fill="#161742"/>
<path d="M136.332 73.8163C136.881 72.8349 137.34 71.7866 137.994 70.8823C139.197 69.221 140.651 67.8009 142.848 67.6267C143.723 67.5564 144.614 67.7707 145.499 67.8109C145.813 67.8243 146.135 67.7104 146.453 67.6569C146.266 67.3755 146.108 67.064 145.877 66.8262C145.619 66.565 145.287 66.3707 144.989 66.1463C145.033 66.0391 145.076 65.9286 145.12 65.8214C145.917 66.2099 146.765 66.5315 147.509 67.0037C149.988 68.5813 151.596 70.9459 153.234 73.3172C154.069 74.5264 155.292 75.4742 156.36 76.5159C156.866 77.0116 157.332 76.7972 157.761 76.3417C158.592 75.4675 159.007 75.1426 160.173 75.2163C161.088 75.2733 161.218 75.5479 162.136 75.2532C164.24 74.5766 165.302 72.7479 167.52 72.3493C167.132 72.4196 165.822 73.6924 165.403 74.0139C164.428 74.7675 163.47 75.6651 162.954 76.8039C162.237 78.3882 162.143 80.438 162.572 82.1193C162.689 82.5782 163.597 86.4266 163.507 86.3797C161.972 85.6027 161.965 83.5931 160.538 82.5715C159.831 82.0657 156.447 80.8064 155.767 81.0576C156.203 80.9236 156.652 80.6557 157.074 80.6892C157.838 80.7495 158.585 81.0408 159.349 81.1346C159.674 81.1748 160.327 80.9437 160.324 80.8566C160.307 80.4179 160.243 79.7179 159.975 79.5973C158.722 79.0346 157.432 78.4685 156.092 78.2173C153.998 77.8221 152.31 76.7001 150.611 75.5848C148.785 74.3857 147.07 73.0125 145.217 71.8536C143.535 70.7985 141.639 70.2995 139.733 71.1502C138.902 71.5186 138.258 72.3325 137.568 72.9823C137.243 73.2871 137.005 73.679 136.727 74.034C136.593 73.9637 136.459 73.89 136.325 73.8197L136.332 73.8163Z" fill="#161742"/>
<path d="M190.182 83.228C191.174 84.3902 192.373 85.3314 193.599 86.2357C194.212 86.6879 194.832 87.13 195.435 87.5955C196.002 88.031 196.538 88.6305 197.231 88.8582L196.94 88.3425C196.655 89.9535 195.707 91.732 193.877 91.8626C193.341 91.8995 193.338 92.7368 193.877 92.7C196.085 92.5425 197.389 90.5832 197.747 88.5669C197.787 88.3358 197.687 88.1281 197.456 88.0511C197.1 87.9338 196.829 87.6424 196.544 87.4113C196.296 87.2104 196.045 87.0128 195.79 86.8185C195.208 86.373 194.615 85.9477 194.025 85.5123C192.856 84.6515 191.723 83.7438 190.778 82.6352C190.427 82.2232 189.837 82.8194 190.185 83.228H190.182Z" fill="#161742"/>
<path d="M176.596 91.3401C185.163 91.7119 187.19 85.8639 187.21 85.8037C187.264 85.6295 187.25 85.4453 187.167 85.2845C187.083 85.1237 186.942 85.0032 186.768 84.9496C186.701 84.9295 186.634 84.9194 186.564 84.9194C186.265 84.9194 186.004 85.1104 185.914 85.395C185.897 85.4453 184.205 90.3387 176.66 89.9803H176.64C176.265 89.9803 175.97 90.2549 175.95 90.6301C175.933 91.0052 176.224 91.3267 176.6 91.3435L176.596 91.3401Z" fill="#161742"/>
<path d="M193.509 81.2686C201.985 79.969 202.836 73.8397 202.843 73.7794C202.863 73.5985 202.813 73.421 202.699 73.277C202.585 73.1363 202.424 73.0459 202.243 73.0258C202.173 73.0191 202.106 73.0225 202.036 73.0359C201.741 73.0928 201.523 73.334 201.489 73.6287C201.483 73.6823 200.776 78.8101 193.305 79.9221H193.284C192.916 79.9992 192.678 80.3274 192.735 80.6958C192.792 81.0676 193.14 81.3255 193.512 81.2686H193.509Z" fill="#161742"/>
<path d="M206.759 87.6927C210.532 87.264 214.502 85.6597 216.288 82.3103C214.308 90.2516 206.686 96.4245 198.508 96.7159C198.293 96.7226 197.459 97.9886 197.268 98.1829C196.43 99.0403 195.522 99.7068 194.464 100.249C192.648 101.177 190.855 102.135 188.989 102.956C185.347 104.557 181.267 105.947 177.233 105.401C179.716 105.16 181.686 103.244 183.257 101.304C185.451 98.5982 189.153 94.1837 192.782 93.5172C195.06 93.0985 197.154 93.8756 198.95 91.9899C199.663 91.2397 200.213 90.3487 200.9 89.5717C202.498 87.763 204.548 87.9439 206.766 87.6927H206.759Z" fill="#161742"/>
<path d="M162.696 93.8052C164.1 94.0296 165.473 94.4416 166.76 95.0478L166.552 94.6861C166.545 96.0392 166.318 97.3789 166.311 98.7321C166.311 99.2713 167.145 99.2713 167.148 98.7321C167.155 97.3789 167.383 96.0392 167.39 94.6861C167.39 94.5488 167.313 94.3846 167.182 94.3243C165.828 93.6846 164.398 93.2325 162.917 92.998C162.692 92.9612 162.468 93.0549 162.401 93.2894C162.347 93.487 162.468 93.7684 162.692 93.8052H162.696Z" fill="#161742"/>
<path d="M202.444 98.357C203.513 98.4809 204.622 98.8259 205.222 99.834C207.842 104.242 198.394 109.728 195.707 105.545C193.12 101.519 199.342 97.9986 202.444 98.357Z" fill="#161742"/>
<path d="M234.339 270.359C237.707 267.593 240.903 264.602 242.936 260.723C244.153 258.406 244.913 255.853 244.849 253.201C244.796 250.973 243.349 248.297 241.603 246.934C239.472 245.266 236.815 244.311 233.88 243.411" stroke="#161742" stroke-width="1.5" stroke-miterlimit="10"/>
<path d="M104.762 147.391C101.318 148.644 97.7797 149.635 94.1881 150.359C90.9684 151.009 87.8995 152 84.6195 152.459C80.7231 153.002 76.7697 153.109 72.8565 152.687C67.5395 152.114 60.8723 150.63 57.2003 146.544C52.6439 141.476 51.4311 135.823 51.4311 129.121" stroke="#161742" stroke-width="1.5" stroke-miterlimit="10"/>
<path d="M100.185 111.329C96.8583 112.749 93.0088 113.275 89.4943 112.274C84.2208 110.77 80.0865 106.58 76.3609 102.782C76.1499 102.567 72.8799 99.2078 72.5952 99.5092C73.6036 98.424 74.4077 97.2149 75.4228 96.1465C76.4715 95.0378 77.5001 93.8957 78.3443 92.6196C79.5538 90.7976 80.3612 88.6573 81.2859 86.6779C82.1235 87.552 83.2894 88.1851 84.3481 88.7478C85.6146 89.421 86.8978 90.064 88.2077 90.6502C90.1174 91.5043 92.2281 91.9363 94.3188 91.9296C95.8465 91.9263 97.2 91.5411 98.6273 91.0588C100.135 90.5497 101.435 89.5081 102.601 88.4564C102.946 89.2435 102.896 90.0607 103.03 90.888C103.549 94.1 104.423 97.2886 105.147 100.481C105.418 101.68 105.75 102.862 106.015 104.061C106.303 105.354 106.608 106.596 106.547 107.926C106.547 107.926 101.472 110.783 100.185 111.329Z" fill="#32B353"/>
<path d="M158.535 220.756C158.062 221.63 157.443 222.46 156.622 223.261C154.474 225.358 151.68 226.684 148.839 227.561C146.269 228.355 143.539 228.536 140.875 228.164C138.63 227.849 136.041 227.304 134.124 226.135C133.558 225.79 132.908 225.612 132.298 225.314C132.154 225.244 132 225.16 131.846 225.203C131.735 225.234 131.648 225.327 131.581 225.418C130.874 226.366 131.538 228.241 132.147 229.139C132.864 230.201 133.843 231.061 134.814 231.885C136.067 232.947 137.22 234.126 138.526 235.121C139.518 235.878 140.567 236.571 141.689 237.117C143.847 238.165 146.457 238.999 148.839 239.321C152.759 239.854 156.947 239.462 160.468 237.549C162.357 236.524 164.17 235.265 165.654 233.697C167.731 231.504 169.39 228.509 169.222 225.404C169.075 223.053 168.164 220.896 166.207 219.506C164.703 218.438 164.679 217.46 164.311 215.665C163.842 213.367 162.904 211.16 161.379 209.361C161.135 209.073 160.632 208.946 160.397 209.24C160.267 209.401 160.263 209.626 160.267 209.833C160.287 211.474 160.19 213.112 160.052 214.747C159.861 217.001 159.506 218.97 158.541 220.756H158.535Z" fill="#AF8E2F" stroke="#161742" stroke-miterlimit="10"/>
<path d="M132.449 283.037C133.089 283.037 133.729 282.986 134.369 282.986C136.248 282.986 138.131 283.345 139.877 284.041C140.681 284.363 141.485 284.778 142.004 285.472C144.755 289.143 138.258 292.813 136.201 294.924C134.483 296.685 133.561 298.815 135.625 300.745C137.26 302.272 139.622 302.406 141.739 302.195" stroke="#161742" stroke-width="1.5" stroke-miterlimit="10"/>
<path d="M269.404 231.792C269.203 230.961 268.644 230.191 268.084 229.544C264.7 225.636 259.062 223.408 254.184 222.115C250.907 221.248 247.402 220.756 244.112 220.632C242.702 220.578 241.291 220.642 239.884 220.702C229.713 221.141 218.894 222.742 209.256 225.944" stroke="#161742" stroke-width="1.5" stroke-miterlimit="10"/>
<path d="M101.194 266.997C100.369 267.409 99.8736 267.613 99.217 268.256C98.5971 268.866 98.7513 268.648 98.0309 269.133C97.2972 269.629 97.7663 269.499 97.066 270.041C92.4593 273.628 87.2596 279.768 88.3082 286.115C89.1224 291.028 94.0876 293.376 98.5301 293.634C100.581 293.755 102.695 293.785 104.725 293.426" stroke="#161742" stroke-width="1.5" stroke-miterlimit="10"/>
<path d="M86.9547 90.1243C84.8608 95.7847 82.9477 101.512 81.2256 107.296" stroke="#161742" stroke-width="1.5" stroke-miterlimit="10"/>
<path d="M95.2602 92.3114C95.019 99.1441 94.4159 105.927 93.8263 112.739" stroke="#161742" stroke-width="1.5" stroke-miterlimit="10"/>
<path d="M198.24 174.501C199.613 180.637 202.015 186.535 205.312 191.874" stroke="#161742" stroke-width="1.5" stroke-miterlimit="10"/>
<path d="M223.659 166.131C224.188 172.036 224.717 177.944 225.243 183.849L223.659 166.131Z" fill="#1D478E"/>
<path d="M223.659 166.131C224.188 172.036 224.717 177.944 225.243 183.849" stroke="#161742" stroke-width="1.5" stroke-miterlimit="10"/>
<path d="M214.023 174.535C214.931 179.95 215.846 185.608 217.052 190.96L214.023 174.535Z" fill="#1D478E"/>
<path d="M214.023 174.535C214.931 179.95 215.846 185.608 217.052 190.96" stroke="#161742" stroke-width="1.5" stroke-miterlimit="10"/>
<path d="M243.66 158.605C243.952 156.894 243.258 155.148 241.925 154.016C240.574 152.871 238.755 152.389 237.067 152.154C234.031 151.736 230.825 152.791 228.634 154.937C228.47 155.098 228.299 155.172 228.148 155.346" stroke="#161742" stroke-width="1.5" stroke-miterlimit="10"/>
<path d="M229.14 164.346C230.276 163.441 231.428 162.497 232.168 161.248C232.909 159.998 233.16 158.357 232.433 157.101C231.9 156.183 230.915 155.591 229.88 155.356C227.166 154.737 223.88 155.587 221.92 157.59C220.777 158.759 219.956 160.219 219.055 161.552C218.074 162.999 215.929 163.669 214.278 164.155" stroke="#161742" stroke-width="1.5" stroke-miterlimit="10"/>
<path d="M217.953 166.074C218.201 164.852 218.332 163.609 218.338 162.363" stroke="#161742" stroke-width="1.5" stroke-miterlimit="10"/>
<path d="M209.805 157.379C205.858 155.745 200.86 154.83 197 157.393C194.966 158.742 192.802 160.263 192.055 162.584" stroke="#161742" stroke-width="1.5" stroke-miterlimit="10"/>
<path d="M99.2806 86.9759C99.0293 82.5045 94.8682 77.9695 90.2648 77.9059" stroke="#161742" stroke-width="1.5" stroke-miterlimit="10"/>
<path d="M75.2185 58.0476C78.7196 59.0993 81.4401 62.5726 83.0214 65.7076C83.8858 67.4191 84.6128 69.221 85.7955 70.7282C85.9295 70.8991 86.0836 71.0766 86.2947 71.1302" stroke="#161742" stroke-width="1.5" stroke-miterlimit="10"/>
<path d="M71.9217 66.1027C71.4694 64.8869 72.4879 63.4601 73.6103 63.0213C74.7762 62.5658 76.6558 63.0247 77.5972 63.785C79.0948 64.9941 79.3729 67.3855 79.4399 69.1573C79.5036 70.8789 79.2188 72.5904 78.934 74.2885" stroke="#161742" stroke-width="1.5" stroke-miterlimit="10"/>
<path d="M80.6628 74.9819C80.2574 73.5685 79.8553 72.1551 79.45 70.745" stroke="#161742" stroke-width="1.5" stroke-miterlimit="10"/>
<path d="M108.732 223.619C108.732 223.619 101.643 235.871 89.1827 245.859C82.8338 250.947 75.0945 255.448 66.186 257.444C66.186 257.444 51.8532 251.452 40.0198 242.054C40.0198 242.054 60.8254 242.453 78.1165 222.105C79.1451 220.893 80.1636 219.607 81.162 218.244L108.732 223.619Z" fill="#5CB05E"/>
<path d="M82.7534 222.3L100.895 226.828C99.3979 229.072 96.5735 232.994 92.6302 237.134C89.0989 240.838 85.37 243.993 81.5506 246.509C76.9506 249.536 72.2065 251.64 67.4423 252.765C66.4975 252.494 63.9345 251.71 60.6411 250.337C57.599 249.068 53.4212 247.068 49.3069 244.285C51.6455 243.719 54.8618 242.761 58.5505 241.166C65.221 238.279 74.7327 232.683 82.6462 222.303H82.7534V222.3ZM81.956 220.37C66.8225 241.012 45.1391 243.344 45.1391 243.344C55.2069 251.342 67.4021 254.524 67.4021 254.524C89.8594 249.493 103.606 225.739 103.606 225.739L81.956 220.37Z" fill="#4F964D"/>
<path d="M79.6845 224.39C79.6845 224.39 83.3263 226.587 87.3434 222.645L82.2609 221.432L79.6811 224.39H79.6845Z" fill="#4F964D"/>
<path d="M52.1145 242.312C52.1145 242.312 53.8199 243.039 51.6656 247.148L48.1544 243.92L52.1112 242.312H52.1145Z" fill="#4F964D"/>
<path d="M99.9909 229.812C99.9909 229.812 96.3256 229.447 95.5349 224.611L101.341 226.493L99.9909 229.812Z" fill="#4F964D"/>
<path d="M72.0993 251.985C72.0993 251.985 68.6853 249.938 62.5709 251.549L67.6166 253.844L72.0993 251.985Z" fill="#4F964D"/>
<path d="M73.9051 242.422C70.987 240.386 71.322 237.074 74.4412 235.144C77.356 233.342 81.6779 233.413 84.2677 235.205C86.8642 237 86.9916 240.014 84.3917 242.051C81.6109 244.234 76.8266 244.462 73.9018 242.422H73.9051Z" fill="#4F964D"/>
<path d="M84.7234 242.278C81.765 244.616 76.6524 244.874 73.5232 242.69C70.404 240.513 70.7793 236.973 74.1196 234.92C77.2287 233.011 81.8186 233.098 84.5693 234.997C87.3266 236.903 87.474 240.105 84.7234 242.278ZM85.7586 242.999C86.5728 242.339 87.1792 241.599 87.5712 240.798C87.9431 240.038 88.1072 239.257 88.067 238.47C88.0268 237.697 87.7889 236.95 87.3601 236.253C86.9212 235.536 86.2947 234.896 85.5007 234.351C84.7066 233.801 83.7853 233.373 82.75 233.071C81.7483 232.78 80.6795 232.619 79.5672 232.595C78.4415 232.572 77.3225 232.689 76.237 232.95C75.0945 233.225 74.0358 233.647 73.0943 234.21C72.1328 234.786 71.3522 235.473 70.7759 236.26C70.2097 237.033 69.868 237.864 69.7708 238.728C69.6703 239.606 69.8278 240.47 70.2399 241.29C70.6687 242.148 71.3589 242.915 72.2802 243.558C73.2049 244.204 74.3038 244.687 75.5367 244.988C76.7194 245.279 77.9624 245.39 79.2288 245.323C80.4785 245.256 81.6779 245.018 82.7969 244.623C83.9327 244.221 84.9277 243.672 85.7586 242.999Z" fill="#4F964D"/>
<path d="M84.395 242.054C81.6143 244.238 76.83 244.466 73.9051 242.426C70.987 240.389 71.322 237.077 74.4412 235.148C77.356 233.346 81.6779 233.416 84.2677 235.208C86.8642 237.003 86.9916 240.018 84.3917 242.054H84.395ZM84.978 242.459C86.3918 241.334 87.1155 239.924 87.0552 238.487C86.9949 237.087 86.1942 235.801 84.8004 234.836C83.41 233.875 81.5573 233.329 79.5471 233.295C77.49 233.259 75.4731 233.764 73.8649 234.746C72.1965 235.764 71.1645 237.171 71.0071 238.711C70.8463 240.296 71.6269 241.796 73.215 242.905C74.8064 244.013 76.9673 244.566 79.2523 244.455C81.4769 244.348 83.5105 243.628 84.978 242.459Z" fill="#A1D681"/>
<path d="M78.475 236.712L78.877 237.053L79.3494 236.544L80.0363 237.117L79.5304 237.666C79.862 238.055 80.0161 238.457 79.9927 238.882C79.9692 239.307 79.7448 239.776 79.3126 240.292L79.5739 240.507C79.7448 240.644 79.9022 240.718 80.0497 240.724C80.1971 240.731 80.3344 240.654 80.4684 240.493C80.5958 240.339 80.6393 240.195 80.6025 240.061C80.5656 239.924 80.4584 239.783 80.2741 239.639L81.1385 238.641C81.5573 238.996 81.7851 239.381 81.822 239.8C81.8588 240.219 81.6913 240.657 81.3194 241.116C80.9207 241.615 80.4919 241.903 80.0295 241.977C79.5672 242.047 79.0814 241.873 78.5688 241.451L77.7145 240.731C78.0864 240.272 78.3544 239.93 78.5118 239.699C78.6727 239.472 78.7631 239.277 78.7866 239.12C78.81 238.963 78.7665 238.808 78.6559 238.654L77.1416 240.453L76.438 239.837L77.9858 238.028L77.5805 237.676L76.0259 239.472L75.2352 238.758L78.1701 235.536L78.944 236.203L78.4683 236.705L78.475 236.712Z" fill="#A1D681"/>
<path d="M63.9414 247.454C65.2603 247.016 66.1352 246.076 65.8957 245.355C65.6561 244.633 64.3928 244.403 63.0739 244.841C61.7551 245.278 60.8801 246.218 61.1196 246.939C61.3592 247.661 62.6225 247.891 63.9414 247.454Z" fill="#4F964D"/>
<path d="M88.3833 230.628C89.5136 230.166 90.1866 229.197 89.8866 228.464C89.5866 227.732 88.4272 227.513 87.297 227.975C86.1667 228.437 85.4937 229.406 85.7937 230.139C86.0937 230.872 87.2531 231.091 88.3833 230.628Z" fill="#4F964D"/>
<path d="M48.5027 72.5502C48.5027 72.5502 47.33 78.157 43.5911 83.9179C39.4266 90.3352 32.076 96.9401 19.616 96.1932L0.0735168 72.1248C0.0735168 72.1248 3.32 73.3741 7.73574 73.6186C15.3176 74.044 26.3502 71.5253 30.3773 54.7115C30.3773 54.7115 37.4566 66.6017 48.5027 72.5502Z" fill="#5CB05E"/>
<path d="M43.5913 83.9145C39.4268 90.3318 32.0762 96.9367 19.6162 96.1898L0.0737152 72.1248C0.0737152 72.1248 5.56157 73.8865 10.5871 73.6253C12.6308 75.8928 15.76 78.7732 20.1825 81.0407C30.2636 86.2155 40.0868 84.6513 43.5913 83.9145Z" fill="#579D53"/>
<path d="M31.7143 63.4734C32.3944 64.3744 33.1952 65.3859 34.1869 66.5414C37.3764 70.2592 40.5425 73.0927 43.6114 74.9784C43.0117 76.6363 41.6615 79.845 39.276 83.0068C37.3094 85.6126 35.0312 87.6825 32.5016 89.1596C29.3657 90.9916 25.8077 91.9194 21.928 91.9194C20.742 91.9194 19.509 91.8323 18.256 91.6615C17.4318 90.6534 15.3948 88.1112 13.455 85.2375C10.6105 81.0307 9.61548 78.5689 9.30055 77.2024C9.57192 77.2124 9.8701 77.2158 10.1884 77.2158C15.1603 77.2158 26.6553 75.799 31.6607 63.4064L31.711 63.4734H31.7143ZM31.1582 59.9465C27.2349 74.0037 15.4216 75.6215 10.1917 75.6215C8.62713 75.6215 7.65218 75.4775 7.65218 75.4775C6.59012 80.3206 17.4218 93.1453 17.4218 93.1453C19.0065 93.3965 20.5074 93.5104 21.9313 93.5104C40.2845 93.5104 45.5311 74.2449 45.5311 74.2449C37.6712 69.9979 31.1582 59.9465 31.1582 59.9465Z" fill="#4F964D"/>
<path d="M26.1089 85.7379C26.6867 83.0089 23.8693 80.1014 19.8162 79.2438C15.7631 78.3862 12.009 79.9033 11.4312 82.6324C10.8535 85.3614 13.6708 88.2689 17.7239 89.1265C21.7771 89.9841 25.5311 88.4669 26.1089 85.7379Z" fill="#4F964D"/>
<path d="M16.7148 78.6962C20.9262 78.3914 25.2616 80.602 26.3973 83.6331C27.5331 86.6643 25.0371 89.3672 20.8257 89.672C16.6143 89.9768 12.279 87.7662 11.1432 84.7351C10.0075 81.7039 12.5035 79.001 16.7148 78.6962ZM16.3162 77.6277C15.0866 77.7182 13.9575 77.9761 12.9625 78.4014C12.0009 78.8101 11.2035 79.3527 10.5938 80.0158C9.98401 80.679 9.58867 81.4259 9.42115 82.2398C9.25028 83.0838 9.33069 83.958 9.65903 84.8456C9.99071 85.7298 10.5536 86.5705 11.3308 87.3476C12.0813 88.0945 13.0027 88.7476 14.0614 89.2902C15.1234 89.8328 16.2726 90.2347 17.4821 90.4859C18.7351 90.7471 19.9915 90.8342 21.221 90.7438C22.4506 90.6534 23.5797 90.3955 24.5747 89.9701C25.5363 89.5615 26.3337 89.0189 26.9434 88.3557C27.5532 87.6925 27.9485 86.9456 28.116 86.1317C28.2869 85.2877 28.2065 84.4135 27.8782 83.5259C27.5465 82.6417 26.9836 81.801 26.2064 81.024C25.4559 80.2771 24.5345 79.624 23.4758 79.0814C22.4138 78.5388 21.2646 78.1368 20.0551 77.8856C18.8021 77.6244 17.5457 77.5373 16.3162 77.6277Z" fill="#4F964D"/>
<path d="M16.8422 79.0345C20.7956 78.7498 24.8662 80.8231 25.9316 83.67C26.997 86.517 24.6552 89.0558 20.7017 89.3405C16.7483 89.6252 12.6777 87.5519 11.6123 84.705C10.5469 81.858 12.8888 79.3192 16.8422 79.0345ZM16.6177 78.4316C14.4835 78.5857 12.6978 79.3293 11.5955 80.525C10.4933 81.7207 10.2018 83.2246 10.778 84.7619C11.3543 86.2993 12.7246 87.6825 14.6443 88.6605C16.5607 89.6385 18.7921 90.0907 20.9296 89.9366C23.0637 89.7826 24.8495 89.039 25.9517 87.8433C27.054 86.6476 27.3455 85.1437 26.7692 83.6064C26.193 82.069 24.8227 80.6857 22.9029 79.7077C20.9865 78.7297 18.7552 78.2776 16.6177 78.4316Z" fill="#A1D681"/>
<path d="M19.5861 82.0221L19.8776 82.481L20.8458 82.2968L21.3551 83.0805L20.3165 83.2848C20.484 83.7571 20.4069 84.159 20.0853 84.4906C19.7603 84.8255 19.1405 85.0935 18.2258 85.2944L18.4202 85.5992C18.5475 85.7968 18.7016 85.9375 18.8892 86.0179C19.0768 86.0983 19.3113 86.1083 19.5961 86.0447C19.8675 85.9844 20.025 85.8873 20.0719 85.7566C20.1188 85.626 20.0719 85.4552 19.9345 85.2442L21.7537 84.8557C22.0586 85.3581 22.0888 85.7935 21.8476 86.1619C21.6063 86.5337 21.0803 86.8117 20.2762 86.9959C19.4085 87.2002 18.6446 87.2136 17.9913 87.0294C17.338 86.8418 16.8254 86.4466 16.4502 85.8437L15.8337 84.8356C16.6344 84.6581 17.2174 84.5174 17.5859 84.4102C17.9511 84.3064 18.2057 84.1958 18.3465 84.082C18.4872 83.9681 18.5374 83.8241 18.4939 83.6466L15.2809 84.3332L14.7917 83.5059L18.0516 82.8327L17.7635 82.3671L14.5103 83.0269L13.9743 82.0992L19.9948 80.957L20.551 81.8379L19.5861 82.0188V82.0221Z" fill="#A1D681"/>
<path d="M19.6162 96.1899C19.6162 96.1899 18.8021 96.0525 17.5022 95.6138C16.9125 95.4162 16.2223 95.1549 15.4618 94.8133C12.671 93.5673 8.94876 91.273 5.82289 87.1634C5.03221 86.1251 4.28174 84.9695 3.59492 83.6901C3.57481 83.6533 3.55471 83.6164 3.53461 83.5796C3.10912 82.7824 2.71043 81.9317 2.34189 81.0307C1.57466 79.1584 0.938098 77.0584 0.482452 74.7038C0.321636 73.8765 0.187622 73.0191 0.0770609 72.1282C-0.204368 69.864 0.217775 67.0304 3.19288 64.6256C3.19288 64.6256 9.42451 78.924 21.1775 87.1332C21.1775 87.1332 15.2306 90.1075 19.6196 96.1932L19.6162 96.1899Z" fill="#5CB05E"/>
<path d="M18.6245 87.2705C7.77614 79.0613 2.62332 67.7706 2.62332 67.7706C0.783985 69.3817 0.43555 72.2822 0.482454 74.7004C0.93475 77.055 1.57131 79.1517 2.34189 81.0273C1.76898 79.1819 1.13912 75.4775 2.49601 70.9525C3.15938 72.1214 4.07067 73.632 5.24664 75.3435C7.53827 78.6795 11.2739 83.392 16.3865 87.5385C15.9845 88.1682 15.5724 88.9888 15.3111 89.9869C14.9794 91.2328 14.8554 92.8874 15.4685 94.8133C16.229 95.1515 16.9159 95.4128 17.5089 95.6138C15.0095 90.5864 18.6312 87.2705 18.6312 87.2705H18.6245Z" fill="#4F964D"/>
<path d="M5.82289 87.1633C5.03221 86.125 4.28173 84.9695 3.59491 83.6901C3.86294 83.5193 4.22477 83.4925 4.63016 83.6465C5.51465 83.9815 6.27518 85.0432 6.32879 86.0179C6.35894 86.5672 6.16127 86.9724 5.82289 87.1633Z" fill="#4F964D"/>
<path d="M35.0445 76.1909C34.485 77.2058 33.4263 77.7082 32.6759 77.3163C31.9287 76.9245 31.7746 75.7857 32.3341 74.7708C32.8936 73.756 33.9523 73.2536 34.7028 73.6454C35.4499 74.0373 35.6041 75.1761 35.0445 76.1909Z" fill="#4F964D"/>
<path d="M1.35019 73.1162C1.35019 73.1162 2.27153 74.6033 4.39565 72.1248L2.87459 69.2946L1.35354 73.1162H1.35019Z" fill="#4F964D"/>
<path d="M15.9342 91.4472C15.9342 91.4472 16.3597 87.6959 17.4921 87.4849L14.8722 85.3547C14.8722 85.3547 13.455 88.8716 15.9342 91.4472Z" fill="#4F964D"/>
<path d="M29.741 65.8246L31.4396 62.0734L33.6877 64.6222C33.6877 64.6222 33.624 66.3136 29.741 65.8246Z" fill="#4F964D"/>
<path d="M43.1926 77.9996L44.6098 74.6737L41.8491 72.5502C41.8491 72.5502 40.4151 76.3684 43.1959 77.9996H43.1926Z" fill="#4F964D"/>
<path d="M56.1282 354.1C30.3742 369.433 26.0489 364.526 26.0489 364.526C25.1409 363.699 22.2597 361.385 18.5274 356.873C17.606 355.758 16.6277 354.508 15.6193 353.112C6.04737 339.885 6.16798 333.404 6.16798 333.404L31.5904 331.046C39.7082 346.745 45.1391 348.835 50.3891 351.802C54.3023 354.013 56.1282 354.103 56.1282 354.103V354.1Z" fill="#5CB05E"/>
<path d="M56.403 354.368C30.6489 369.701 26.0489 364.526 26.0489 364.526C25.141 363.699 22.2597 361.385 18.5274 356.873C28.029 358.099 35.6074 358.042 50.6337 351.936C54.5469 354.147 56.403 354.368 56.403 354.368Z" fill="#579D53"/>
<path d="M29.2217 334.673C36.8872 346.708 38.8673 347.729 44.8778 351.933C48.275 354.307 51.9169 355.399 54.1314 356.361C52.4362 357.352 50.5834 358.229 48.59 358.99C45.9566 359.991 43.0753 360.785 40.0265 361.351C35.6979 362.152 32.2437 362.255 31.1615 362.269C27.848 360.711 24.5948 358.032 21.4857 354.304C18.8524 351.146 16.3229 347.244 13.9709 342.702C11.2203 337.39 12.0311 339.058 11.1097 336.405L26.8463 334.992L29.2217 334.673ZM8.20498 334.673C8.20498 334.673 14.6008 356.913 30.8231 364.161C30.8231 364.161 46.295 364.717 57.5722 356.176C57.5722 356.176 43.1892 356.297 30.1799 332.667L8.20163 334.67L8.20498 334.673Z" fill="#4F964D"/>
<path d="M30.9136 335.862C30.9136 335.862 28.9436 338.338 25.3487 335.032L30.1464 334.184L30.9136 335.862Z" fill="#4F964D"/>
<path d="M51.947 354.1C51.947 354.1 50.1345 354.753 51.813 360.229L55.7899 356.702L51.947 354.1Z" fill="#4F964D"/>
<path d="M11.0126 338.84C11.0126 338.84 14.5606 339.383 14.6242 335.303L9.84331 336.214L11.0126 338.84Z" fill="#4F964D"/>
<path d="M36.0631 357.352C38.8673 356.25 39.5843 353.225 37.8555 350.626C36.1803 348.108 32.696 346.721 29.8884 347.498C26.9233 348.315 25.7005 351.253 27.3689 354.1C29.0977 357.05 33.088 358.524 36.0631 357.355V357.352Z" fill="#4F964D"/>
<path d="M26.987 354.22C25.2147 351.176 26.5347 348.054 29.6974 347.19C32.6826 346.376 36.378 347.85 38.1604 350.519C40.0031 353.282 39.2593 356.504 36.2741 357.69C33.1014 358.953 28.8263 357.379 26.9836 354.217L26.987 354.22ZM25.7608 354.626C26.2901 355.55 27.0104 356.384 27.9016 357.101C28.7627 357.797 29.741 358.347 30.7963 358.732C31.8483 359.117 32.9171 359.318 33.9725 359.331C35.0513 359.345 36.0597 359.161 36.9643 358.789C37.8521 358.424 38.5892 357.898 39.1521 357.235C39.6848 356.608 40.0433 355.885 40.2242 355.088C40.3984 354.304 40.3917 353.49 40.2074 352.659C40.0198 351.812 39.6546 350.988 39.1253 350.201C38.5993 349.421 37.9393 348.721 37.1586 348.114C36.4082 347.528 35.5739 347.053 34.676 346.694C33.7748 346.333 32.8467 346.108 31.912 346.024C30.9337 345.937 29.9889 346.008 29.1011 346.242C28.1965 346.48 27.4024 346.868 26.7357 347.408C26.0824 347.937 25.5832 348.587 25.2549 349.344C24.9232 350.114 24.7858 350.955 24.8562 351.842C24.9299 352.777 25.2314 353.715 25.7574 354.629L25.7608 354.626Z" fill="#4F964D"/>
<path d="M27.3656 354.096C25.7005 351.249 26.92 348.315 29.885 347.495C32.6926 346.721 36.177 348.104 37.8521 350.623C39.5809 353.226 38.8639 356.247 36.0597 357.349C33.0846 358.518 29.0944 357.044 27.3656 354.093V354.096ZM26.6821 354.321C27.6068 355.915 29.1714 357.191 31.0644 357.888C32.9405 358.578 34.8569 358.598 36.4417 357.962C37.9761 357.345 38.9946 356.196 39.3363 354.75C39.6647 353.349 39.3263 351.826 38.3983 350.439C37.487 349.079 36.0999 347.984 34.465 347.334C32.8166 346.678 31.0778 346.54 29.5433 346.952C27.9619 347.378 26.7692 348.349 26.1997 349.705C25.6134 351.112 25.7708 352.757 26.6788 354.317L26.6821 354.321Z" fill="#A1D681"/>
<path d="M36.0061 352.787L35.5069 352.974L35.976 353.416L35.1082 353.748L34.6057 353.272C34.0495 353.406 33.5302 353.413 33.0444 353.296C32.5586 353.175 32.103 352.901 31.6741 352.472L31.3391 352.602C31.1213 352.686 30.9772 352.78 30.9102 352.88C30.8432 352.981 30.8767 353.102 31.0074 353.235C31.1314 353.363 31.2821 353.43 31.453 353.436C31.6239 353.443 31.8282 353.403 32.0661 353.309L32.9238 354.153C32.3408 354.364 31.788 354.435 31.2721 354.361C30.7561 354.287 30.3105 354.063 29.9386 353.684C29.54 353.272 29.4026 352.89 29.5199 352.542C29.6371 352.194 30.0224 351.892 30.6757 351.645L31.7512 351.239C32.1231 351.618 32.4112 351.892 32.6122 352.063C32.8166 352.231 33.0009 352.345 33.1717 352.402C33.3392 352.458 33.5302 352.468 33.7346 352.428L32.2303 350.918L33.088 350.603L34.6258 352.13L35.1216 351.946L33.5805 350.422L34.5219 350.084L37.4267 352.87L36.4718 353.225L35.9994 352.783L36.0061 352.787Z" fill="#A1D681"/>
<path d="M22.2396 342.062C22.598 343.097 23.6702 343.891 24.6418 343.834C25.6133 343.777 26.1058 342.883 25.7407 341.844C25.3755 340.809 24.3 340.022 23.3351 340.086C22.3736 340.146 21.8844 341.031 22.2396 342.062Z" fill="#4F964D"/>
<path d="M57.3779 357.164C57.3779 357.164 57.6191 356.973 56.5738 357.717C55.8066 358.26 56.011 358.142 54.9087 358.752C49.7224 361.619 41.3432 364.891 34.676 365.752C33.8719 365.856 33.0947 365.926 32.3509 365.953C29.6974 366.057 27.4694 365.655 26.0489 364.526C26.0489 364.526 31.9019 365.896 30.8231 360.031C30.8231 360.031 51.2669 354.619 57.8738 349.732C57.8738 349.732 59.1938 353.015 57.3779 357.164Z" fill="#5CB05E"/>
<path d="M33.3727 361.78C33.1717 364.124 32.0762 365.253 31.3458 365.966C32.0628 366.067 34.2338 365.913 35.1283 365.688C35.4298 364.975 35.6912 364.057 35.7414 363.113C37.8622 362.537 41.6347 361.462 46.1241 359.861C50.9654 358.136 52.7477 357.168 54.6373 356.27C54.7747 358.129 53.8132 359.281 53.7093 359.392C54.8484 358.842 55.8569 358.286 56.5772 357.714C57.1936 356.176 56.8151 352.74 56.8151 352.74C52.7779 355.831 33.3761 361.776 33.3761 361.776L33.3727 361.78Z" fill="#4F964D"/>
<path d="M333.322 292.974C307.568 308.308 303.243 303.401 303.243 303.401C302.335 302.573 299.453 300.259 295.721 295.747C294.8 294.632 293.821 293.383 292.813 291.986C283.241 278.76 283.362 272.279 283.362 272.279L308.784 269.921C316.902 285.619 322.333 287.709 327.583 290.677C331.496 292.887 333.322 292.978 333.322 292.978V292.974Z" fill="#5CB05E"/>
<path d="M333.6 293.242C307.846 308.575 303.246 303.401 303.246 303.401C302.338 302.573 299.457 300.259 295.724 295.747C305.226 296.973 312.804 296.916 327.831 290.811C331.744 293.021 333.6 293.242 333.6 293.242Z" fill="#579D53"/>
<path d="M306.419 273.551C314.084 285.586 316.064 286.607 322.075 290.811C325.472 293.185 329.114 294.277 331.328 295.238C329.633 296.23 327.78 297.107 325.787 297.868C323.154 298.869 320.272 299.663 317.224 300.229C312.895 301.029 309.441 301.133 308.359 301.147C305.045 299.589 301.792 296.91 298.683 293.182C296.049 290.023 293.52 286.121 291.168 281.58C288.417 276.268 289.228 277.936 288.307 275.283L304.043 273.869L306.419 273.551ZM285.402 273.551C285.402 273.551 291.798 295.791 308.02 303.039C308.02 303.039 323.492 303.595 334.769 295.054C334.769 295.054 320.386 295.175 307.377 271.545L285.399 273.548L285.402 273.551Z" fill="#4F964D"/>
<path d="M308.107 274.737C308.107 274.737 306.137 277.212 302.542 273.906L307.34 273.059L308.107 274.737Z" fill="#4F964D"/>
<path d="M329.144 292.974C329.144 292.974 327.332 293.627 329.01 299.104L332.987 295.577L329.144 292.974Z" fill="#4F964D"/>
<path d="M288.206 277.718C288.206 277.718 291.754 278.261 291.818 274.181L287.037 275.092L288.206 277.718Z" fill="#4F964D"/>
<path d="M313.257 296.226C316.061 295.125 316.778 292.1 315.049 289.501C313.374 286.982 309.89 285.596 307.082 286.373C304.117 287.19 302.894 290.127 304.563 292.974C306.291 295.925 310.282 297.399 313.257 296.23V296.226Z" fill="#4F964D"/>
<path d="M304.184 293.098C302.412 290.054 303.732 286.932 306.894 286.068C309.88 285.254 313.575 286.728 315.357 289.397C317.2 292.16 316.456 295.382 313.471 296.568C310.298 297.831 306.023 296.257 304.181 293.095L304.184 293.098ZM302.958 293.503C303.487 294.428 304.207 295.262 305.099 295.979C305.96 296.675 306.938 297.225 307.993 297.61C309.045 297.995 310.114 298.196 311.169 298.209C312.248 298.223 313.257 298.038 314.161 297.667C315.049 297.302 315.786 296.776 316.349 296.113C316.882 295.486 317.24 294.763 317.421 293.966C317.595 293.182 317.589 292.368 317.404 291.537C317.217 290.69 316.852 289.866 316.322 289.079C315.796 288.299 315.136 287.599 314.356 286.992C313.605 286.406 312.771 285.931 311.873 285.572C310.972 285.21 310.044 284.986 309.109 284.902C308.131 284.815 307.186 284.886 306.298 285.12C305.393 285.358 304.599 285.746 303.933 286.286C303.279 286.815 302.78 287.465 302.452 288.222C302.12 288.992 301.983 289.833 302.053 290.72C302.127 291.655 302.428 292.592 302.954 293.507L302.958 293.503Z" fill="#4F964D"/>
<path d="M304.563 292.971C302.897 290.124 304.117 287.19 307.082 286.369C309.89 285.596 313.374 286.979 315.049 289.498C316.778 292.1 316.061 295.121 313.257 296.223C310.282 297.392 306.291 295.918 304.563 292.968V292.971ZM303.879 293.195C304.804 294.79 306.368 296.066 308.261 296.762C310.138 297.452 312.054 297.472 313.639 296.836C315.173 296.22 316.192 295.071 316.533 293.624C316.862 292.224 316.523 290.7 315.595 289.313C314.684 287.954 313.297 286.858 311.662 286.209C310.014 285.552 308.275 285.415 306.74 285.827C305.159 286.252 303.966 287.223 303.397 288.58C302.81 289.987 302.968 291.631 303.876 293.192L303.879 293.195Z" fill="#A1D681"/>
<path d="M313.203 291.661L312.704 291.849L313.173 292.291L312.305 292.623L311.803 292.147C311.246 292.281 310.727 292.288 310.241 292.17C309.756 292.05 309.3 291.775 308.871 291.346L308.536 291.477C308.318 291.561 308.174 291.655 308.107 291.755C308.04 291.856 308.074 291.976 308.204 292.11C308.328 292.237 308.479 292.304 308.65 292.311C308.821 292.318 309.025 292.278 309.263 292.184L310.121 293.028C309.538 293.239 308.985 293.309 308.469 293.235C307.953 293.162 307.508 292.937 307.136 292.559C306.737 292.147 306.6 291.765 306.717 291.417C306.834 291.068 307.219 290.767 307.873 290.519L308.948 290.114C309.32 290.492 309.608 290.767 309.809 290.938C310.014 291.105 310.198 291.219 310.369 291.276C310.536 291.333 310.727 291.343 310.932 291.303L309.427 289.792L310.285 289.478L311.823 291.005L312.319 290.821L310.777 289.297L311.719 288.958L314.624 291.745L313.669 292.1L313.196 291.658L313.203 291.661Z" fill="#A1D681"/>
<path d="M299.437 280.937C299.795 281.972 300.867 282.765 301.839 282.708C302.81 282.651 303.303 281.757 302.938 280.719C302.572 279.684 301.497 278.897 300.532 278.961C299.571 279.021 299.081 279.905 299.437 280.937Z" fill="#4F964D"/>
<path d="M334.575 296.039C334.575 296.039 334.816 295.848 333.771 296.592C333.004 297.134 333.208 297.017 332.106 297.626C326.919 300.494 318.54 303.766 311.873 304.627C311.069 304.73 310.292 304.801 309.548 304.828C306.894 304.931 304.666 304.529 303.246 303.401C303.246 303.401 309.099 304.771 308.02 298.906C308.02 298.906 328.464 293.493 335.071 288.607C335.071 288.607 336.391 291.889 334.575 296.039Z" fill="#5CB05E"/>
<path d="M310.57 300.654C310.369 302.999 309.273 304.128 308.543 304.841C309.26 304.941 311.431 304.787 312.325 304.563C312.627 303.85 312.888 302.932 312.938 301.987C315.059 301.411 318.832 300.336 323.321 298.735C328.162 297.01 329.945 296.042 331.834 295.145C331.972 297.003 331.01 298.156 330.906 298.266C332.045 297.717 333.054 297.161 333.774 296.588C334.391 295.051 334.012 291.614 334.012 291.614C329.975 294.706 310.573 300.651 310.573 300.651L310.57 300.654Z" fill="#4F964D"/>
<path d="M291.017 125.42C291.017 125.42 268.094 142.126 277.693 162.075C277.693 162.075 268.714 161.66 252.642 152.65C252.642 152.65 248.994 129.489 273.485 109.896C273.485 109.896 282.001 121.267 291.017 125.42Z" fill="#5CB05E"/>
<path d="M284.946 126.113C276.932 133.91 272.587 141.795 271.897 149.699C271.669 152.305 271.88 154.907 272.5 157.235C269.729 156.354 266.412 154.978 262.734 153.176C260.07 151.87 257.856 150.657 256.73 150.021C256.298 145.543 256.847 140.988 258.361 136.469C259.671 132.567 261.702 128.682 264.395 124.914C266.811 121.538 269.324 118.889 271.006 117.261C271.759 116.531 272.416 115.938 272.932 115.489C273.294 115.908 273.659 116.32 274.031 116.725C277.495 120.52 280.849 123.176 283.053 124.737C283.787 125.256 284.447 125.694 285.013 126.053L284.95 126.113H284.946ZM287.784 125.812C287.784 125.812 281.7 122.757 275.207 115.65C274.49 114.863 273.766 114.029 273.046 113.144C273.046 113.144 252.401 128.937 255.182 150.992C255.182 150.992 266.932 157.875 275.13 159.64C275.13 159.64 266.694 145.151 287.784 125.815V125.812Z" fill="#4F964D"/>
<path d="M268.573 142.501C271.14 142.069 272.765 139.012 272.203 135.674C271.64 132.336 269.103 129.98 266.536 130.413C263.969 130.845 262.344 133.901 262.906 137.24C263.468 140.578 266.005 142.933 268.573 142.501Z" fill="#4F964D"/>
<path d="M272.058 139.926C270.778 142.96 267.722 143.871 265.233 141.962C262.744 140.053 261.762 136.044 263.042 133.009C264.322 129.975 267.377 129.064 269.866 130.973C272.356 132.882 273.337 136.891 272.058 139.926ZM272.935 140.599C273.307 139.715 273.528 138.743 273.589 137.719C273.646 136.727 273.555 135.729 273.314 134.748C273.073 133.766 272.698 132.852 272.195 132.028C271.676 131.177 271.042 130.46 270.315 129.904C269.588 129.348 268.811 128.98 268 128.813C267.22 128.652 266.446 128.682 265.695 128.906C264.948 129.131 264.265 129.533 263.662 130.109C263.038 130.702 262.536 131.452 262.161 132.339C261.789 133.224 261.568 134.195 261.507 135.22C261.45 136.211 261.541 137.209 261.782 138.191C262.023 139.172 262.399 140.086 262.901 140.91C263.42 141.761 264.054 142.478 264.781 143.034C265.508 143.59 266.285 143.958 267.096 144.126C267.876 144.287 268.65 144.256 269.401 144.032C270.148 143.808 270.831 143.406 271.434 142.83C272.058 142.237 272.56 141.487 272.935 140.599Z" fill="#4F964D"/>
<path d="M271.783 139.715C270.58 142.562 267.712 143.419 265.377 141.627C263.042 139.835 262.12 136.071 263.32 133.224C264.523 130.377 267.391 129.519 269.726 131.311C272.061 133.103 272.982 136.868 271.783 139.715ZM272.275 140.093C272.925 138.556 273.043 136.73 272.61 134.959C272.178 133.187 271.243 131.676 269.98 130.708C268.717 129.74 267.28 129.429 265.93 129.831C264.58 130.233 263.477 131.304 262.827 132.842C262.177 134.379 262.06 136.205 262.492 137.976C262.925 139.748 263.859 141.259 265.122 142.227C266.385 143.195 267.823 143.506 269.173 143.104C270.523 142.702 271.625 141.631 272.275 140.093Z" fill="#A1D681"/>
<path d="M268.697 140.904L268.218 140.686L267.86 141.399L267.025 141.004L267.407 140.244C266.975 139.922 266.717 139.527 266.643 139.062C266.566 138.596 266.7 138.047 267.045 137.414L266.717 137.246C266.503 137.136 266.315 137.089 266.154 137.106C265.993 137.122 265.859 137.23 265.749 137.427C265.648 137.615 265.635 137.779 265.705 137.92C265.779 138.06 265.93 138.191 266.158 138.311L265.484 139.611C264.941 139.299 264.593 138.904 264.439 138.429C264.285 137.956 264.359 137.437 264.657 136.878C264.982 136.285 265.397 135.927 265.896 135.793C266.396 135.659 266.965 135.763 267.605 136.094L268.654 136.62C268.345 137.156 268.134 137.561 268.014 137.832C267.893 138.107 267.836 138.328 267.846 138.496C267.853 138.663 267.933 138.814 268.081 138.938L269.307 136.747L270.141 137.139L268.895 139.373L269.374 139.591L270.62 137.357L271.528 137.759L269.24 142.016L268.332 141.614L268.691 140.9L268.697 140.904Z" fill="#A1D681"/>
<path d="M275.964 126.079C276.047 125.171 275.436 124.373 274.599 124.296C273.762 124.22 273.017 124.894 272.934 125.803C272.851 126.711 273.463 127.509 274.299 127.585C275.136 127.661 275.881 126.987 275.964 126.079Z" fill="#4F964D"/>
<path d="M266.178 150.021C266.087 150.989 265.484 151.404 264.828 150.952C264.171 150.5 263.709 149.347 263.799 148.38C263.889 147.412 264.493 146.996 265.149 147.448C265.806 147.901 266.268 149.053 266.178 150.021Z" fill="#4F964D"/>
<path d="M273.89 157.955L269.605 156.93C269.605 156.93 271.317 154.415 272.801 155.38L273.89 157.955Z" fill="#4F964D"/>
<path d="M256.016 150.292L256.003 146.852C256.003 146.852 258.911 149.435 259.537 152.436L256.016 150.295V150.292Z" fill="#4F964D"/>
<path d="M283.395 123.933C283.502 123.836 286.337 126.073 286.337 126.073L283.623 128.575C283.623 128.575 281.506 125.654 283.392 123.933H283.395Z" fill="#4F964D"/>
<path d="M270.325 116.825C270.325 116.825 272.721 118.741 275.636 117.09L273.089 114.303L270.325 116.825Z" fill="#4F964D"/>
<path d="M316.959 0C316.959 0 313.334 32.7868 338.002 40.1888C338.002 40.1888 330.601 47.5708 310.261 54.3063C310.261 54.3063 287.499 39.2778 289.871 2.88044C289.871 2.88044 306.318 4.48478 316.959 0Z" fill="#5CB05E"/>
<path d="M312.798 5.7575C313.213 18.753 316.58 28.6704 322.829 35.4595C324.889 37.6969 327.288 39.5591 329.777 40.8486C326.846 42.5367 323.063 44.3051 318.631 46.0535C315.421 47.3196 312.64 48.2674 311.213 48.7363C307.025 45.5946 303.544 41.552 300.85 36.7055C298.525 32.5221 296.776 27.7292 295.654 22.464C294.649 17.7415 294.341 13.5079 294.264 10.7882C294.227 9.56905 294.234 8.53746 294.254 7.74366C294.897 7.76041 295.54 7.77045 296.177 7.77045C302.154 7.77045 307.069 6.97331 310.134 6.30679C311.156 6.08238 312.051 5.86133 312.801 5.65702V5.7575H312.798ZM314.764 3.08472C314.764 3.08472 307.367 5.91492 296.17 5.91492C294.93 5.91492 293.647 5.88142 292.324 5.80439C292.324 5.80439 289.704 35.915 310.831 50.8263C310.831 50.8263 325.958 46.1372 333.905 40.4802C333.905 40.4802 314.841 36.3605 314.764 3.08807V3.08472Z" fill="#4F964D"/>
<path d="M314.041 32.6791C315.683 30.1364 314.331 26.3448 311.023 24.2101C307.715 22.0754 303.702 22.4061 302.061 24.9488C300.419 27.4914 301.77 31.2831 305.078 33.4178C308.387 35.5524 312.399 35.2217 314.041 32.6791Z" fill="#4F964D"/>
<path d="M314.557 27.6555C316.161 31.1355 314.547 34.4714 310.955 35.1112C307.363 35.7509 303.149 33.4499 301.544 29.9699C299.939 26.4899 301.554 23.154 305.146 22.5143C308.737 21.8745 312.952 24.1755 314.557 27.6555ZM315.823 27.4311C315.354 26.4162 314.694 25.4684 313.863 24.611C313.059 23.7837 312.128 23.0803 311.096 22.5176C310.064 21.9549 308.982 21.5597 307.883 21.3453C306.744 21.1243 305.635 21.1042 304.586 21.2917C303.537 21.4793 302.613 21.8578 301.832 22.4205C301.082 22.9631 300.502 23.653 300.107 24.4703C299.711 25.2875 299.524 26.1918 299.544 27.1565C299.567 28.1579 299.815 29.1795 300.284 30.1943C300.753 31.2092 301.413 32.157 302.244 33.0145C303.048 33.8418 303.98 34.5451 305.012 35.1078C306.043 35.6705 307.126 36.0657 308.225 36.2801C309.364 36.5011 310.473 36.5212 311.521 36.3337C312.57 36.1461 313.495 35.7676 314.275 35.2049C315.026 34.6623 315.605 33.9724 316.001 33.1551C316.396 32.3379 316.584 31.4336 316.564 30.469C316.54 29.4675 316.292 28.446 315.823 27.4311Z" fill="#4F964D"/>
<path d="M314.158 27.7258C315.662 30.9914 314.148 34.1264 310.777 34.726C307.404 35.3255 303.45 33.1652 301.946 29.8995C300.442 26.6339 301.956 23.4989 305.326 22.8994C308.7 22.2999 312.654 24.4602 314.158 27.7258ZM314.872 27.5985C314.057 25.8334 312.583 24.3028 310.721 23.2846C308.858 22.2664 306.827 21.8846 305.005 22.2094C303.182 22.5343 301.789 23.5257 301.075 25.0028C300.361 26.4799 300.418 28.2617 301.229 30.0268C302.043 31.7919 303.517 33.3226 305.38 34.3408C307.243 35.359 309.273 35.7408 311.096 35.4159C312.918 35.091 314.312 34.0996 315.026 32.6226C315.739 31.1455 315.682 29.3637 314.872 27.5985Z" fill="#A1D681"/>
<path d="M311.434 30.2613L310.838 30.4455L311.23 31.2292L310.208 31.5675L309.779 30.7134C309.139 30.7972 308.566 30.6866 308.057 30.3819C307.544 30.0704 307.089 29.5278 306.693 28.7507L306.285 28.8579C306.02 28.9282 305.839 29.0287 305.745 29.1694C305.651 29.3067 305.665 29.501 305.792 29.7488C305.909 29.9833 306.067 30.1307 306.258 30.1876C306.449 30.2479 306.687 30.2345 306.968 30.1541L307.755 31.7082C307.079 31.8958 306.462 31.8656 305.903 31.6077C305.34 31.3465 304.874 30.8575 304.512 30.1474C304.12 29.3804 304.02 28.744 304.211 28.2416C304.408 27.7459 304.911 27.4076 305.722 27.2234L307.059 26.922C307.397 27.5885 307.662 28.0775 307.853 28.3856C308.044 28.6938 308.228 28.9115 308.402 29.0421C308.58 29.1694 308.787 29.2297 309.029 29.223L307.692 26.5803L308.771 26.3425L310.101 28.9785L310.707 28.811L309.394 26.2052L310.587 25.944L312.955 30.6699L311.823 31.0417L311.437 30.268L311.434 30.2613Z" fill="#A1D681"/>
<path d="M305.681 16.0465C306.402 15.3879 306.407 14.2184 305.69 13.4343C304.974 12.6502 303.809 12.5485 303.087 13.2071C302.366 13.8657 302.362 15.0352 303.078 15.8192C303.794 16.6033 304.959 16.7051 305.681 16.0465Z" fill="#4F964D"/>
<path d="M318.617 40.6209C319.378 41.4549 319.261 42.3023 318.356 42.51C317.451 42.7176 316.101 42.2119 315.341 41.3779C314.58 40.5439 314.697 39.6965 315.602 39.4889C316.507 39.2812 317.857 39.7869 318.617 40.6209Z" fill="#4F964D"/>
<path d="M331.483 40.2223L327.238 43.0994C327.238 43.0994 326.42 39.6562 328.414 39.1371L331.483 40.2223Z" fill="#4F964D"/>
<path d="M310.881 49.5603L307.916 46.8742C307.916 46.8742 312.416 46.4019 315.481 48.2173L310.881 49.5603Z" fill="#4F964D"/>
<path d="M309.705 5.379C309.705 5.20818 313.853 4.53162 313.853 4.53162L313.873 8.82213C313.873 8.82213 309.705 8.34987 309.705 5.379Z" fill="#4F964D"/>
<path d="M293.349 11.0261C293.349 11.0261 296.874 10.4701 297.741 6.67529H293.349V11.0261Z" fill="#4F964D"/>
</g>
<defs>
<clipPath id="clip0_100_7303">
<rect width="338.006" height="366" fill="white"/>
</clipPath>
</defs>
</svg>
