<svg width="316" height="354" viewBox="0 0 316 354" fill="none" xmlns="http://www.w3.org/2000/svg">
<g clip-path="url(#clip0_111_4689)">
<g opacity="0.88">
<g opacity="0.54">
<path d="M237.973 94.9287C238.375 94.9287 238.701 94.603 238.701 94.2013C238.701 93.7995 238.375 93.4739 237.973 93.4739C237.571 93.4739 237.245 93.7995 237.245 94.2013C237.245 94.603 237.571 94.9287 237.973 94.9287Z" fill="#161742"/>
<path d="M217.517 127.578C217.873 127.578 218.162 127.29 218.162 126.934C218.162 126.578 217.873 126.29 217.517 126.29C217.161 126.29 216.873 126.578 216.873 126.934C216.873 127.29 217.161 127.578 217.517 127.578Z" fill="#161742"/>
<path d="M252.045 115.949C252.45 115.949 252.779 115.621 252.779 115.216C252.779 114.811 252.45 114.482 252.045 114.482C251.64 114.482 251.311 114.811 251.311 115.216C251.311 115.621 251.64 115.949 252.045 115.949Z" fill="#161742"/>
<path d="M236.061 123.507C236.441 123.507 236.749 123.199 236.749 122.82C236.749 122.44 236.441 122.132 236.061 122.132C235.681 122.132 235.373 122.44 235.373 122.82C235.373 123.199 235.681 123.507 236.061 123.507Z" fill="#161742"/>
<path d="M218.402 96.8859C218.889 96.8859 219.284 96.4913 219.284 96.0044C219.284 95.5176 218.889 95.1229 218.402 95.1229C217.915 95.1229 217.52 95.5176 217.52 96.0044C217.52 96.4913 217.915 96.8859 218.402 96.8859Z" fill="#161742"/>
<path d="M224.65 66.1163C225.062 66.1163 225.397 65.7823 225.397 65.3704C225.397 64.9585 225.062 64.6245 224.65 64.6245C224.238 64.6245 223.904 64.9585 223.904 65.3704C223.904 65.7823 224.238 66.1163 224.65 66.1163Z" fill="#161742"/>
<path d="M215.112 78.4851C215.389 78.4851 215.614 78.2602 215.614 77.9827C215.614 77.7053 215.389 77.4803 215.112 77.4803C214.834 77.4803 214.609 77.7053 214.609 77.9827C214.609 78.2602 214.834 78.4851 215.112 78.4851Z" fill="#161742"/>
<path d="M225.498 123.507C225.967 123.507 226.346 123.127 226.346 122.659C226.346 122.191 225.967 121.812 225.498 121.812C225.03 121.812 224.65 122.191 224.65 122.659C224.65 123.127 225.03 123.507 225.498 123.507Z" fill="#161742"/>
<path d="M212.441 115.274C212.851 115.274 213.184 114.942 213.184 114.532C213.184 114.121 212.851 113.789 212.441 113.789C212.03 113.789 211.698 114.121 211.698 114.532C211.698 114.942 212.03 115.274 212.441 115.274Z" fill="#161742"/>
</g>
<g opacity="0.54">
<path d="M187.365 94.9287C187.767 94.9287 188.093 94.603 188.093 94.2013C188.093 93.7995 187.767 93.4739 187.365 93.4739C186.963 93.4739 186.638 93.7995 186.638 94.2013C186.638 94.603 186.963 94.9287 187.365 94.9287Z" fill="#161742"/>
<path d="M210.933 95.9735C211.405 95.9735 211.787 95.5913 211.787 95.1198C211.787 94.6482 211.405 94.266 210.933 94.266C210.461 94.266 210.079 94.6482 210.079 95.1198C210.079 95.5913 210.461 95.9735 210.933 95.9735Z" fill="#161742"/>
<path d="M166.913 127.578C167.269 127.578 167.557 127.29 167.557 126.934C167.557 126.578 167.269 126.29 166.913 126.29C166.557 126.29 166.268 126.578 166.268 126.934C166.268 127.29 166.557 127.578 166.913 127.578Z" fill="#161742"/>
<path d="M201.437 115.949C201.843 115.949 202.171 115.621 202.171 115.216C202.171 114.811 201.843 114.482 201.437 114.482C201.032 114.482 200.703 114.811 200.703 115.216C200.703 115.621 201.032 115.949 201.437 115.949Z" fill="#161742"/>
<path d="M185.456 123.507C185.836 123.507 186.144 123.199 186.144 122.82C186.144 122.44 185.836 122.132 185.456 122.132C185.077 122.132 184.769 122.44 184.769 122.82C184.769 123.199 185.077 123.507 185.456 123.507Z" fill="#161742"/>
<path d="M167.795 96.8859C168.282 96.8859 168.677 96.4913 168.677 96.0044C168.677 95.5176 168.282 95.1229 167.795 95.1229C167.307 95.1229 166.913 95.5176 166.913 96.0044C166.913 96.4913 167.307 96.8859 167.795 96.8859Z" fill="#161742"/>
<path d="M177.506 90.3948C178.088 90.3948 178.561 89.9229 178.561 89.3407C178.561 88.7586 178.088 88.2866 177.506 88.2866C176.923 88.2866 176.451 88.7586 176.451 89.3407C176.451 89.9229 176.923 90.3948 177.506 90.3948Z" fill="#161742"/>
<path d="M203.858 102.012C204.172 102.012 204.426 101.758 204.426 101.444C204.426 101.131 204.172 100.877 203.858 100.877C203.545 100.877 203.291 101.131 203.291 101.444C203.291 101.758 203.545 102.012 203.858 102.012Z" fill="#161742"/>
<path d="M174.046 66.1163C174.458 66.1163 174.792 65.7823 174.792 65.3704C174.792 64.9585 174.458 64.6245 174.046 64.6245C173.634 64.6245 173.299 64.9585 173.299 65.3704C173.299 65.7823 173.634 66.1163 174.046 66.1163Z" fill="#161742"/>
<path d="M191.439 69.1029C191.758 69.1029 192.016 68.8449 192.016 68.5266C192.016 68.2082 191.758 67.9502 191.439 67.9502C191.121 67.9502 190.862 68.2082 190.862 68.5266C190.862 68.8449 191.121 69.1029 191.439 69.1029Z" fill="#161742"/>
<path d="M164.504 78.4851C164.782 78.4851 165.007 78.2602 165.007 77.9827C165.007 77.7053 164.782 77.4803 164.504 77.4803C164.226 77.4803 164.001 77.7053 164.001 77.9827C164.001 78.2602 164.226 78.4851 164.504 78.4851Z" fill="#161742"/>
<path d="M194.958 119.66C195.445 119.66 195.84 119.266 195.84 118.779C195.84 118.292 195.445 117.897 194.958 117.897C194.471 117.897 194.076 118.292 194.076 118.779C194.076 119.266 194.471 119.66 194.958 119.66Z" fill="#161742"/>
<path d="M174.894 123.507C175.362 123.507 175.742 123.127 175.742 122.659C175.742 122.191 175.362 121.812 174.894 121.812C174.425 121.812 174.046 122.191 174.046 122.659C174.046 123.127 174.425 123.507 174.894 123.507Z" fill="#161742"/>
<path d="M161.836 115.274C162.247 115.274 162.58 114.942 162.58 114.532C162.58 114.121 162.247 113.789 161.836 113.789C161.426 113.789 161.093 114.121 161.093 114.532C161.093 114.942 161.426 115.274 161.836 115.274Z" fill="#161742"/>
</g>
<g opacity="0.54">
<path d="M32.3475 259.401C33.0833 259.401 33.6798 258.805 33.6798 258.07C33.6798 257.334 33.0833 256.738 32.3475 256.738C31.6117 256.738 31.0153 257.334 31.0153 258.07C31.0153 258.805 31.6117 259.401 32.3475 259.401Z" fill="#161742"/>
<path d="M64.9325 153.857C65.5695 153.857 66.0859 153.341 66.0859 152.704C66.0859 152.068 65.5695 151.552 64.9325 151.552C64.2955 151.552 63.7791 152.068 63.7791 152.704C63.7791 153.341 64.2955 153.857 64.9325 153.857Z" fill="#161742"/>
<path d="M34.2873 151.231C34.9482 151.231 35.4839 150.696 35.4839 150.035C35.4839 149.375 34.9482 148.839 34.2873 148.839C33.6265 148.839 33.0908 149.375 33.0908 150.035C33.0908 150.696 33.6265 151.231 34.2873 151.231Z" fill="#161742"/>
<path d="M273.898 60.8519C274.634 60.8519 275.23 60.2557 275.23 59.5204C275.23 58.785 274.634 58.1888 273.898 58.1888C273.162 58.1888 272.566 58.785 272.566 59.5204C272.566 60.2557 273.162 60.8519 273.898 60.8519Z" fill="#161742"/>
<path d="M297.37 270.041C297.838 270.041 298.218 269.661 298.218 269.193C298.218 268.725 297.838 268.346 297.37 268.346C296.901 268.346 296.522 268.725 296.522 269.193C296.522 269.661 296.901 270.041 297.37 270.041Z" fill="#161742"/>
<path d="M33.0908 123.892C33.5012 123.892 33.834 123.56 33.834 123.149C33.834 122.739 33.5012 122.406 33.0908 122.406C32.6803 122.406 32.3475 122.739 32.3475 123.149C32.3475 123.56 32.6803 123.892 33.0908 123.892Z" fill="#161742"/>
</g>
<g opacity="0.54">
<path d="M95.5222 196.749C95.9242 196.749 96.2501 196.423 96.2501 196.022C96.2501 195.62 95.9242 195.294 95.5222 195.294C95.1203 195.294 94.7944 195.62 94.7944 196.022C94.7944 196.423 95.1203 196.749 95.5222 196.749Z" fill="#161742"/>
<path d="M60.9111 240.88C61.2671 240.88 61.5556 240.592 61.5556 240.236C61.5556 239.88 61.2671 239.592 60.9111 239.592C60.5551 239.592 60.2665 239.88 60.2665 240.236C60.2665 240.592 60.5551 240.88 60.9111 240.88Z" fill="#161742"/>
<path d="M95.5223 212.228C95.9276 212.228 96.2562 211.9 96.2562 211.494C96.2562 211.089 95.9276 210.761 95.5223 210.761C95.1169 210.761 94.7883 211.089 94.7883 211.494C94.7883 211.9 95.1169 212.228 95.5223 212.228Z" fill="#161742"/>
<path d="M93.6133 225.327C93.9931 225.327 94.301 225.02 94.301 224.64C94.301 224.26 93.9931 223.953 93.6133 223.953C93.2334 223.953 92.9255 224.26 92.9255 224.64C92.9255 225.02 93.2334 225.327 93.6133 225.327Z" fill="#161742"/>
<path d="M55.3569 214.595C55.844 214.595 56.2389 214.2 56.2389 213.714C56.2389 213.227 55.844 212.832 55.3569 212.832C54.8697 212.832 54.4749 213.227 54.4749 213.714C54.4749 214.2 54.8697 214.595 55.3569 214.595Z" fill="#161742"/>
<path d="M112.015 203.832C112.329 203.832 112.583 203.578 112.583 203.265C112.583 202.952 112.329 202.698 112.015 202.698C111.702 202.698 111.448 202.952 111.448 203.265C111.448 203.578 111.702 203.832 112.015 203.832Z" fill="#161742"/>
<path d="M82.2027 167.937C82.6148 167.937 82.949 167.603 82.949 167.191C82.949 166.779 82.6148 166.445 82.2027 166.445C81.7905 166.445 81.4564 166.779 81.4564 167.191C81.4564 167.603 81.7905 167.937 82.2027 167.937Z" fill="#161742"/>
<path d="M99.5992 170.92C99.9177 170.92 100.176 170.662 100.176 170.344C100.176 170.026 99.9177 169.768 99.5992 169.768C99.2807 169.768 99.0225 170.026 99.0225 170.344C99.0225 170.662 99.2807 170.92 99.5992 170.92Z" fill="#161742"/>
<path d="M46.6879 268.065C46.9655 268.065 47.1906 267.84 47.1906 267.563C47.1906 267.285 46.9655 267.06 46.6879 267.06C46.4102 267.06 46.1852 267.285 46.1852 267.563C46.1852 267.84 46.4102 268.065 46.6879 268.065Z" fill="#161742"/>
<path d="M103.115 221.481C103.602 221.481 103.997 221.086 103.997 220.599C103.997 220.112 103.602 219.718 103.115 219.718C102.628 219.718 102.233 220.112 102.233 220.599C102.233 221.086 102.628 221.481 103.115 221.481Z" fill="#161742"/>
<path d="M48.1065 235.243C48.5749 235.243 48.9546 234.863 48.9546 234.395C48.9546 233.927 48.5749 233.547 48.1065 233.547C47.6381 233.547 47.2584 233.927 47.2584 234.395C47.2584 234.863 47.6381 235.243 48.1065 235.243Z" fill="#161742"/>
<path d="M25.9175 241.626C26.328 241.626 26.6607 241.293 26.6607 240.883C26.6607 240.473 26.328 240.14 25.9175 240.14C25.507 240.14 25.1743 240.473 25.1743 240.883C25.1743 241.293 25.507 241.626 25.9175 241.626Z" fill="#161742"/>
</g>
<g opacity="0.54">
<path d="M227.725 251.6C228.127 251.6 228.453 251.274 228.453 250.873C228.453 250.471 228.127 250.145 227.725 250.145C227.323 250.145 226.997 250.471 226.997 250.873C226.997 251.274 227.323 251.6 227.725 251.6Z" fill="#161742"/>
<path d="M251.292 252.645C251.764 252.645 252.147 252.263 252.147 251.791C252.147 251.32 251.764 250.937 251.292 250.937C250.821 250.937 250.438 251.32 250.438 251.791C250.438 252.263 250.821 252.645 251.292 252.645Z" fill="#161742"/>
<path d="M207.269 284.25C207.625 284.25 207.914 283.961 207.914 283.606C207.914 283.25 207.625 282.961 207.269 282.961C206.913 282.961 206.625 283.25 206.625 283.606C206.625 283.961 206.913 284.25 207.269 284.25Z" fill="#161742"/>
<path d="M241.797 272.621C242.202 272.621 242.531 272.292 242.531 271.887C242.531 271.482 242.202 271.153 241.797 271.153C241.392 271.153 241.063 271.482 241.063 271.887C241.063 272.292 241.392 272.621 241.797 272.621Z" fill="#161742"/>
<path d="M225.813 280.178C226.193 280.178 226.501 279.87 226.501 279.491C226.501 279.111 226.193 278.803 225.813 278.803C225.433 278.803 225.125 279.111 225.125 279.491C225.125 279.87 225.433 280.178 225.813 280.178Z" fill="#161742"/>
<path d="M208.154 253.557C208.641 253.557 209.036 253.163 209.036 252.676C209.036 252.189 208.641 251.794 208.154 251.794C207.667 251.794 207.272 252.189 207.272 252.676C207.272 253.163 207.667 253.557 208.154 253.557Z" fill="#161742"/>
<path d="M217.863 247.066C218.445 247.066 218.917 246.594 218.917 246.012C218.917 245.43 218.445 244.958 217.863 244.958C217.28 244.958 216.808 245.43 216.808 246.012C216.808 246.594 217.28 247.066 217.863 247.066Z" fill="#161742"/>
<path d="M244.215 258.683C244.528 258.683 244.782 258.429 244.782 258.116C244.782 257.803 244.528 257.549 244.215 257.549C243.901 257.549 243.647 257.803 243.647 258.116C243.647 258.429 243.901 258.683 244.215 258.683Z" fill="#161742"/>
<path d="M214.402 222.788C214.814 222.788 215.149 222.454 215.149 222.042C215.149 221.63 214.814 221.296 214.402 221.296C213.99 221.296 213.656 221.63 213.656 222.042C213.656 222.454 213.99 222.788 214.402 222.788Z" fill="#161742"/>
<path d="M231.799 225.774C232.117 225.774 232.376 225.516 232.376 225.198C232.376 224.88 232.117 224.621 231.799 224.621C231.48 224.621 231.222 224.88 231.222 225.198C231.222 225.516 231.48 225.774 231.799 225.774Z" fill="#161742"/>
<path d="M204.864 235.156C205.141 235.156 205.366 234.931 205.366 234.654C205.366 234.377 205.141 234.152 204.864 234.152C204.586 234.152 204.361 234.377 204.361 234.654C204.361 234.931 204.586 235.156 204.864 235.156Z" fill="#161742"/>
<path d="M235.315 276.332C235.802 276.332 236.197 275.937 236.197 275.45C236.197 274.963 235.802 274.569 235.315 274.569C234.827 274.569 234.433 274.963 234.433 275.45C234.433 275.937 234.827 276.332 235.315 276.332Z" fill="#161742"/>
<path d="M215.25 280.178C215.719 280.178 216.098 279.799 216.098 279.331C216.098 278.862 215.719 278.483 215.25 278.483C214.782 278.483 214.402 278.862 214.402 279.331C214.402 279.799 214.782 280.178 215.25 280.178Z" fill="#161742"/>
<path d="M202.193 271.946C202.603 271.946 202.936 271.613 202.936 271.203C202.936 270.793 202.603 270.46 202.193 270.46C201.782 270.46 201.45 270.793 201.45 271.203C201.45 271.613 201.782 271.946 202.193 271.946Z" fill="#161742"/>
</g>
</g>
<path d="M231.626 77.5945L186.582 99.4966L231.626 108.823V77.5945Z" fill="#FFD325"/>
<path d="M65.5648 83.3521L113.095 96.0877L65.5648 108.823V83.3521Z" fill="#FFD325"/>
<path d="M193.166 37.8495L178.736 61.3728L221.233 37.8803L193.166 37.8495Z" fill="#FFD325"/>
<path d="M122.67 38.1547L133.751 56.2164L101.12 38.1793L122.67 38.1547Z" fill="#FFD325"/>
<path d="M95.5439 38.1547L111.331 63.8849L64.8431 38.1886L95.5439 38.1547Z" fill="#FFD325"/>
<path d="M172.007 38.0251L167.674 49.7868L181.694 37.8802L172.007 38.0251Z" fill="#FFD325"/>
<path d="M133.014 37.8802L146.407 51.2447L143.299 37.8802H133.014Z" fill="#FFD325"/>
<path d="M152.15 37.8803L154.793 49.9163L163.863 37.7509L152.15 37.8803Z" fill="#FFD325"/>
<path d="M231.626 38.6602L189.018 77.5945L231.626 69.889V38.6602Z" fill="#FFD325"/>
<path d="M65.2132 44.4176L107.821 83.352L65.2132 75.6465V44.4176Z" fill="#FFD325"/>
<path opacity="0.27" d="M148.992 354C189.959 354 223.17 350.85 223.17 346.963C223.17 343.077 189.959 339.927 148.992 339.927C108.024 339.927 74.8135 343.077 74.8135 346.963C74.8135 350.85 108.024 354 148.992 354Z" fill="#FFD325"/>
<path d="M244.446 311.167C255.8 311.167 265.004 298.359 265.004 282.561C265.004 266.762 255.8 253.955 244.446 253.955C233.093 253.955 223.889 266.762 223.889 282.561C223.889 298.359 233.093 311.167 244.446 311.167Z" fill="#AF8E2F"/>
<path d="M244.042 253.958H239.518V311.167H244.042V253.958Z" fill="#E4AD43"/>
<path d="M239.518 311.167C250.872 311.167 260.076 298.359 260.076 282.561C260.076 266.762 250.872 253.955 239.518 253.955C228.165 253.955 218.961 266.762 218.961 282.561C218.961 298.359 228.165 311.167 239.518 311.167Z" fill="#C39B43"/>
<path d="M222.313 272.303C223.189 272.719 225.165 272.843 226.22 272.599C230.053 271.708 233.301 268.99 235.506 265.399C237.64 261.922 238.833 258.023 239.373 253.964C230.994 254.044 223.808 261.096 220.66 271.163C221.15 271.619 221.69 272.01 222.313 272.306V272.303Z" fill="#D8AF4D"/>
<path d="M243.179 298.628C251.468 293.595 257.935 286 259.625 276.609C258.265 267.683 253.914 260.295 248.098 256.568C247.185 262.289 245.196 267.735 241.64 272.42C237.748 277.543 232.055 281.315 225.52 281.775C223.198 281.938 221.002 281.528 219.007 280.677C218.979 281.3 218.957 281.926 218.957 282.558C218.957 291.921 222.192 300.234 227.191 305.452C232.823 303.809 238.334 301.562 243.179 298.622V298.628Z" fill="#D8AF4D"/>
<path d="M238.405 311.123C238.775 311.151 239.145 311.167 239.518 311.167C245.815 311.167 251.447 307.224 255.218 301.023C250.306 305.335 244.499 308.63 238.405 311.123Z" fill="#D8AF4D"/>
<path d="M255.434 283.282C255.434 295.528 248.375 305.455 239.666 305.455C230.957 305.455 223.898 295.528 223.898 283.282C223.898 271.036 230.957 261.109 239.666 261.109C248.375 261.109 255.434 271.036 255.434 283.282Z" fill="#AF8E2F"/>
<path d="M244.98 270.491L240.989 271.905C241.689 272.636 242.198 273.9 242.343 275.857L244.98 275.262V277.601L242.368 278.027C242.127 282.471 240.166 285.184 237.069 285.181C238.957 288.454 241.011 293.037 243.043 298.184L240.721 297.22C238.833 292.769 237.069 289.043 234.793 285.227V283.125L236.123 283.1C238.735 283.051 240.138 281.195 240.308 278.363L234.793 279.26V277.564L240.237 276.335C239.897 274.069 238.614 273.329 236.511 274.035L234.793 274.612V272.408L244.977 268.151V270.491H244.98Z" fill="#DEA041"/>
<path d="M244.637 270.022L240.647 271.502C241.347 272.214 241.856 273.453 242.001 275.388L244.637 274.75V277.068L242.025 277.534C241.785 281.938 239.823 284.653 236.727 284.697C238.614 287.905 240.668 292.411 242.701 297.482L240.378 296.554C238.491 292.174 236.727 288.515 234.451 284.78V282.702L235.78 282.656C238.392 282.567 239.796 280.705 239.965 277.9L234.451 278.887V277.213L239.894 275.897C239.555 273.662 238.272 272.957 236.169 273.696L234.451 274.3V272.124L244.634 267.704V270.022H244.637Z" fill="#FFD325"/>
<path d="M209.743 238.926C214.563 238.001 219.053 240.436 219.913 244.443L226.652 275.804C227.528 279.879 224.425 284.099 219.605 285.396C214.402 286.796 209.265 284.256 208.379 279.848L202.063 248.394C201.218 244.181 204.691 239.897 209.746 238.926H209.743Z" fill="white"/>
<path d="M216.709 286.093C214.825 286.093 213.015 285.609 211.494 284.669C209.678 283.544 208.463 281.855 208.074 279.91L201.758 248.456C201.385 246.591 201.814 244.619 202.97 242.899C204.435 240.72 206.881 239.163 209.687 238.624C214.695 237.662 219.318 240.19 220.219 244.378L226.957 275.74C227.87 279.981 224.675 284.351 219.688 285.695C218.698 285.963 217.696 286.093 216.712 286.093H216.709ZM209.801 239.228C207.158 239.737 204.854 241.198 203.482 243.241C202.418 244.822 202.02 246.631 202.363 248.333L208.679 279.787C209.036 281.562 210.15 283.109 211.818 284.142C213.983 285.483 216.792 285.834 219.522 285.097C224.191 283.84 227.188 279.787 226.346 275.869L219.608 244.508C218.778 240.649 214.47 238.331 209.795 239.228H209.801Z" fill="#161742"/>
<path d="M203.692 243.296C203.692 243.296 205.009 244.603 206.726 244.391C208.444 244.178 214.606 241.808 214.606 241.808L211.124 239.801L206.131 240.781L203.692 243.3V243.296Z" fill="white"/>
<path d="M224.925 282.551C224.832 282.576 224.73 282.564 224.641 282.511C224.459 282.407 224.397 282.172 224.505 281.99C226.325 278.871 219.031 249.217 217.403 243.398C216.681 240.828 214.729 239.561 214.708 239.552C214.532 239.441 214.479 239.206 214.59 239.028C214.701 238.849 214.939 238.796 215.115 238.907C215.204 238.963 217.332 240.328 218.134 243.192C218.23 243.54 227.457 278.437 225.159 282.373C225.107 282.465 225.02 282.527 224.925 282.548V282.551Z" fill="#161742"/>
<path d="M212.765 242.896C212.598 242.939 212.422 242.865 212.336 242.708C212.237 242.523 212.305 242.292 212.49 242.193C212.509 242.184 214.245 241.225 215.112 239.478C215.204 239.29 215.432 239.213 215.621 239.305C215.809 239.397 215.886 239.626 215.793 239.814C214.816 241.783 212.931 242.816 212.851 242.859C212.823 242.874 212.793 242.886 212.765 242.893V242.896Z" fill="#161742"/>
<path d="M182.419 315.346L214.063 257.66C214.063 257.66 216.823 253.462 214.606 245.941C212.54 238.941 209.172 239.943 206.948 240.889C201.49 243.207 171.128 286.654 171.128 286.654L182.419 315.346Z" fill="#9E5943"/>
<path d="M84.0345 263.482C79.1341 263.765 75.3779 267.23 75.529 271.326L76.6978 303.381C76.8489 307.545 80.892 310.877 85.8849 310.951C91.2726 311.031 95.6302 307.311 95.4051 302.817L93.8076 270.774C93.5948 266.481 89.1724 263.183 84.0345 263.479V263.482Z" fill="white"/>
<path d="M86.0576 311.259C85.999 311.259 85.9404 311.259 85.8788 311.259C80.7162 311.182 76.5467 307.724 76.3894 303.39L75.2206 271.335C75.0634 267.054 78.9306 263.47 84.0161 263.174C86.8656 263.007 89.6227 263.92 91.5748 265.67C93.1168 267.054 94.0173 268.86 94.1129 270.759L95.7104 302.802C95.8091 304.783 95.0474 306.719 93.564 308.254C91.7136 310.168 88.9843 311.259 86.0546 311.259H86.0576ZM84.0531 263.79C79.3038 264.064 75.6925 267.372 75.8374 271.314L77.0062 303.369C77.1512 307.376 81.0555 310.569 85.888 310.643C85.9435 310.643 86.0021 310.643 86.0576 310.643C88.8208 310.643 91.3867 309.622 93.123 307.826C94.4861 306.414 95.1892 304.642 95.0967 302.832L93.4992 270.79C93.4129 269.058 92.5833 267.402 91.1646 266.13C89.3328 264.487 86.7392 263.633 84.0531 263.79Z" fill="#161742"/>
<path d="M142.731 250.435L142.266 323.258C142.21 332.15 137.088 339.23 130.932 338.928C125.39 338.657 120.863 332.452 120.385 324.479L116.098 253.107L142.731 250.435Z" fill="#9E5943"/>
<path d="M142.861 248.074L115.935 250.796L116.549 257.478L142.741 258.362L142.861 248.074Z" fill="#161742"/>
<path d="M124.141 334.542L83.2882 287.693C83.2882 287.693 79.7386 282.342 80.0439 274.507C80.3276 267.214 84.8363 264.326 87.2233 264.696C93.0859 265.605 127.753 305.391 127.753 305.391L124.141 334.539V334.542Z" fill="#9E5943"/>
<path d="M80.7656 309.496C80.8612 309.496 80.9568 309.459 81.0308 309.388C81.1788 309.24 81.1819 309 81.037 308.852C78.5081 306.272 78.2953 275.737 78.4464 269.696C78.5143 267.026 80.0964 265.322 80.1149 265.303C80.2598 265.152 80.2536 264.912 80.0994 264.767C79.9483 264.622 79.7047 264.628 79.5628 264.779C79.4888 264.857 77.7618 266.703 77.6878 269.674C77.6785 270.035 77.3023 306.127 80.4942 309.382C80.5682 309.459 80.6669 309.496 80.7656 309.496Z" fill="#161742"/>
<path d="M121.153 327.456C121.153 327.456 121.178 327.456 121.19 327.456C121.4 327.434 121.551 327.25 121.529 327.04L118.356 294.856C118.337 294.649 118.162 294.498 117.939 294.517C117.73 294.538 117.579 294.723 117.6 294.933L120.774 327.117C120.792 327.314 120.959 327.459 121.153 327.459V327.456Z" fill="#161742"/>
<path d="M161.858 250.093L162.324 308.451C162.379 315.577 167.502 321.252 173.657 321.008C179.199 320.789 183.726 315.821 184.204 309.428L188.491 252.232L161.858 250.09V250.093Z" fill="#9E5943"/>
<path d="M161.729 248.814L188.654 251.532L188.041 258.218L161.849 259.102L161.729 248.814Z" fill="#161742"/>
<path d="M177.697 256.137C161.947 256.461 146.414 256.313 130.658 255.644C122.51 255.299 112.715 256.975 106.621 250.019C100.981 243.58 106.748 233.853 109.218 227.352C112.299 219.246 114.778 210.927 117.261 202.624C118.384 198.873 119.83 195.1 120.465 191.229C132.718 190.052 144.97 188.877 157.223 187.7C169.124 186.556 180.571 186.097 192.442 185.317C192.926 185.286 193.447 185.262 193.86 185.515C194.381 185.835 194.569 186.482 194.717 187.074C197.052 196.358 199.245 205.678 201.447 214.996C202.566 219.736 203.689 224.477 204.83 229.211C205.891 233.609 207.426 238.118 207.988 242.6C208.247 244.674 209.079 248.194 208.019 250.142C207.115 251.803 204.79 252.482 203.115 252.891C200.882 253.44 198.631 253.93 196.37 254.349C190.733 255.394 185.022 255.974 179.292 256.1C178.761 256.112 178.228 256.125 177.697 256.134V256.137Z" fill="#32B353"/>
<path d="M191.717 207.941C191.717 207.941 191.704 207.941 191.701 207.941C185.863 207.685 181.247 203.866 178.351 196.9C176.186 191.694 175.733 186.489 175.727 186.439C175.711 186.23 175.865 186.048 176.075 186.029C176.3 186.005 176.467 186.168 176.485 186.378C176.501 186.578 178.339 206.594 191.735 207.186C191.945 207.195 192.108 207.374 192.099 207.583C192.09 207.787 191.923 207.947 191.72 207.947L191.717 207.941Z" fill="#161742"/>
<path d="M119.95 206.125C119.747 206.125 119.58 205.965 119.571 205.762C119.562 205.552 119.725 205.373 119.935 205.364C133.331 204.775 135.166 184.759 135.185 184.556C135.203 184.346 135.376 184.192 135.595 184.208C135.805 184.226 135.959 184.408 135.944 184.618C135.937 184.67 135.484 189.873 133.319 195.079C130.423 202.044 125.807 205.863 119.969 206.119C119.963 206.119 119.956 206.119 119.953 206.119L119.95 206.125Z" fill="#161742"/>
<path d="M150.879 211.556C150.879 211.556 150.864 211.556 150.858 211.556C150.648 211.544 150.487 211.365 150.5 211.152L151.999 186.119C152.011 185.909 152.165 185.74 152.4 185.761C152.609 185.773 152.77 185.952 152.757 186.162L151.258 211.195C151.246 211.399 151.08 211.553 150.879 211.553V211.556Z" fill="#161742"/>
<path d="M160.887 211.556C160.887 211.556 160.871 211.556 160.865 211.556C160.655 211.544 160.495 211.365 160.507 211.152L162.006 186.119C162.018 185.909 162.173 185.74 162.407 185.761C162.617 185.773 162.777 185.952 162.765 186.162L161.266 211.195C161.254 211.399 161.087 211.553 160.887 211.553V211.556Z" fill="#161742"/>
<path d="M183.834 301.858C183.834 301.858 183.81 301.858 183.797 301.858C183.588 301.837 183.436 301.652 183.458 301.442L186.631 269.258C186.65 269.051 186.826 268.9 187.048 268.919C187.257 268.94 187.409 269.125 187.387 269.335L184.214 301.519C184.195 301.717 184.029 301.861 183.834 301.861V301.858Z" fill="#161742"/>
<path d="M233.11 54.0062L238.087 47.8541C238.087 47.8541 239.632 47.1113 241.001 45.6596C242.371 44.2079 247.472 37.9572 247.472 37.9572L235.981 29.8942C235.981 29.8942 229.992 39.3873 229.344 41.9086C228.696 44.4298 224.971 48.0792 224.971 48.0792L233.11 54.0062Z" fill="#9E5943"/>
<path d="M231.188 43.9767C231.188 43.9767 227.821 37.1651 228.32 33.3955C228.746 30.1808 229.535 27.8075 229.757 26.1893C229.819 25.7455 230.242 25.4527 230.766 25.4989C231.746 25.5821 232.607 26.3065 232.746 27.1633C232.94 28.3654 233.113 30.0637 232.854 31.4568C232.595 32.8407 235.333 36.0493 235.333 36.0493L231.185 43.9736L231.188 43.9767Z" fill="#9E5943"/>
<path d="M235.648 30.4305L241.809 19.3561C242.217 18.6041 243.262 18.3637 244.116 18.8291C244.924 19.2667 245.267 20.1791 244.89 20.8942L238.926 32.249L235.651 30.4305H235.648Z" fill="#9E5943"/>
<path d="M238.858 32.3568L246.694 21.3041C247.231 20.5489 248.341 20.3702 249.146 20.9065C249.908 21.415 250.115 22.3828 249.615 23.101L241.695 34.5082L238.858 32.3568Z" fill="#9E5943"/>
<path d="M241.982 34.2278L249.174 24.7253C249.664 24.075 250.731 23.9918 251.527 24.5373C252.276 25.0551 252.508 25.949 252.051 26.5685L244.792 36.3884L241.985 34.2309L241.982 34.2278Z" fill="#9E5943"/>
<path d="M244.727 36.6257L252.135 31.0685C252.64 30.6894 253.47 30.8435 253.966 31.4106C254.432 31.9469 254.429 32.6558 253.954 33.0195L246.429 38.7956L244.727 36.6226V36.6257Z" fill="#9E5943"/>
<path d="M237.082 37.7538C236.872 36.8754 236.616 36.3021 236.585 36.2373C236.514 36.0802 236.326 36.0123 236.166 36.0832C236.005 36.1541 235.935 36.3421 236.005 36.4993C236.024 36.5425 238.004 40.9932 235.253 44.5531C235.145 44.6918 235.173 44.8891 235.312 44.9908C235.45 45.0956 235.651 45.0679 235.759 44.9292C237.736 42.3709 237.498 39.4737 237.085 37.7538H237.082Z" fill="#161742"/>
<path d="M85.1386 42.2045L79.7293 36.4254C79.7293 36.4254 78.1349 35.7935 76.6639 34.4466C75.1929 33.0966 69.6572 27.2281 69.6572 27.2281L80.5404 18.3606C80.5404 18.3606 87.1987 27.4007 88.0252 29.8695C88.8548 32.3384 92.833 35.7103 92.833 35.7103L85.1417 42.2045H85.1386Z" fill="#9E5943"/>
<path d="M86.3352 32.0641C86.3352 32.0641 89.2033 25.0306 88.4354 21.3042C87.7785 18.1264 86.8194 15.8209 86.4832 14.2213C86.3907 13.7836 85.9466 13.5216 85.4254 13.6048C84.454 13.7559 83.646 14.5418 83.5689 15.4079C83.461 16.6192 83.4116 18.3268 83.7724 19.6983C84.1302 21.0607 81.6291 24.4573 81.6291 24.4573L86.3352 32.0641Z" fill="#9E5943"/>
<path d="M80.9136 18.8723L73.9716 8.26642C73.5121 7.54518 72.4512 7.38183 71.6339 7.9058C70.8599 8.40203 70.5854 9.33286 71.011 10.0202L77.7772 20.9189L80.9136 18.8723Z" fill="#9E5943"/>
<path d="M77.8481 21.0237L69.2378 10.5627C68.6487 9.8476 67.5262 9.74897 66.7614 10.3438C66.0397 10.9048 65.9009 11.8849 66.4499 12.5661L75.1682 23.3754L77.8451 21.0267L77.8481 21.0237Z" fill="#9E5943"/>
<path d="M74.8659 23.1134L67.008 14.1504C66.4714 13.537 65.4013 13.5308 64.6488 14.1319C63.9364 14.7021 63.7699 15.6113 64.2726 16.1939L72.2199 25.4651L74.8659 23.1103V23.1134Z" fill="#9E5943"/>
<path d="M72.3001 25.7025L64.5101 20.6908C63.9765 20.3487 63.1624 20.5644 62.709 21.1655C62.2804 21.7326 62.339 22.4415 62.8386 22.7713L70.7612 27.9925L72.3032 25.7055L72.3001 25.7025Z" fill="#9E5943"/>
<path d="M80.0069 26.2788C80.1549 25.388 80.3677 24.7993 80.3924 24.7315C80.4541 24.5681 80.636 24.488 80.7995 24.5466C80.9629 24.6082 81.0493 24.787 80.9876 24.9503C80.9722 24.9966 79.3192 29.5767 82.3199 32.9302C82.437 33.0596 82.4247 33.2569 82.2921 33.3709C82.1595 33.485 81.959 33.4726 81.8418 33.3401C79.6862 30.9298 79.717 28.0233 80.0038 26.2788H80.0069Z" fill="#161742"/>
<path d="M143.934 108.903C143.934 108.903 124.141 88.154 121.813 99.6414C118.223 117.349 119.608 197.144 119.608 197.144L195.229 191.053C195.229 191.053 195.513 149.496 195.748 143.597C196.482 125.057 203.824 113.986 197.234 106.025C190.644 98.0633 176.053 110.796 176.053 110.796L143.937 108.897L143.934 108.903Z" fill="#1D478E"/>
<path d="M155.043 94.679C144.958 94.2598 139.845 100.772 139.058 104.178C136.955 113.277 167.964 112.266 167.964 112.266C167.964 112.266 184.235 115.139 181.796 105.279C179.412 95.6437 165.843 95.129 155.046 94.679H155.043Z" fill="#1D478E"/>
<path d="M167.838 71.9416C167.326 68.4556 168.889 65.3395 171.332 64.982C173.774 64.6244 176.168 67.1611 176.679 70.644C177.191 74.1299 175.625 77.246 173.185 77.6036C170.743 77.9611 168.35 75.4245 167.838 71.9416Z" fill="#161742"/>
<path d="M139.826 73.2423C137.375 72.8416 135.823 69.8457 136.363 66.5539C136.903 63.2621 139.327 60.9166 141.778 61.3173C144.23 61.718 145.781 64.7139 145.242 68.0057C144.702 71.2974 142.278 73.643 139.826 73.2423Z" fill="#161742"/>
<path d="M142.29 85.3677C139.839 84.967 138.287 81.9711 138.827 78.6793C139.367 75.3875 141.791 73.042 144.243 73.4426C146.694 73.8433 145.143 75.7851 144.603 79.08C144.064 82.3718 144.742 85.7684 142.29 85.3677Z" fill="#161742"/>
<path d="M142.232 64.2638C141.485 59.1812 145.353 54.4069 150.87 53.5994C156.387 52.7918 161.463 56.2562 162.206 61.3357C162.953 66.4183 159.086 71.1926 153.568 72.0001C148.051 72.8077 142.975 69.3433 142.232 64.2638Z" fill="#161742"/>
<path d="M137.322 85.4077C135.984 83.0128 136.412 80.2234 138.284 79.1786C140.153 78.1337 142.756 79.2309 144.094 81.6258C145.433 84.0207 145.004 86.8101 143.132 87.8549C141.263 88.8998 138.661 87.8025 137.322 85.4077Z" fill="#9E5943"/>
<path d="M143.684 84.5632C143.579 84.5847 143.468 84.5693 143.373 84.5108L138.935 81.8108C138.731 81.6875 138.667 81.4224 138.79 81.219C138.913 81.0186 139.179 80.9508 139.379 81.0741L143.817 83.7741C144.02 83.8974 144.085 84.1625 143.962 84.3659C143.897 84.4707 143.795 84.5385 143.684 84.5632Z" fill="#161742"/>
<path d="M141.026 85.9779C140.912 86.0026 140.785 85.9779 140.684 85.904C140.492 85.7653 140.449 85.494 140.591 85.3029L141.859 83.5707C142 83.3796 142.266 83.3365 142.46 83.4783C142.651 83.617 142.694 83.8882 142.552 84.0793L141.285 85.8115C141.22 85.9009 141.128 85.9564 141.026 85.9779Z" fill="#161742"/>
<path d="M181.734 79.7241C182.079 77.0025 180.636 74.5768 178.511 74.3087C176.386 74.0405 174.385 76.0285 174.04 78.7501C173.694 81.4717 175.137 83.8974 177.262 84.1655C179.387 84.4337 181.389 82.4457 181.734 79.7241Z" fill="#9E5943"/>
<path d="M175.532 81.3207C175.415 81.3453 175.289 81.3207 175.184 81.2436C174.996 81.1018 174.956 80.8337 175.097 80.6426L178.203 76.4785C178.345 76.2874 178.613 76.2474 178.804 76.3891C178.992 76.5309 179.033 76.7991 178.891 76.9902L175.785 81.1542C175.72 81.2405 175.628 81.296 175.529 81.3176L175.532 81.3207Z" fill="#161742"/>
<path d="M178.53 81.6381C178.425 81.6597 178.311 81.6443 178.212 81.5826L176.386 80.4484C176.186 80.322 176.121 80.057 176.248 79.8566C176.371 79.6532 176.639 79.5916 176.84 79.7179L178.666 80.8522C178.866 80.9785 178.931 81.2436 178.804 81.4439C178.74 81.5487 178.638 81.6135 178.527 81.6381H178.53Z" fill="#161742"/>
<path d="M154.521 105.618L153.781 92.9436L165.932 93.4953L167.079 107.236L160.254 110.956C160.254 110.956 158.049 108.903 154.521 105.618Z" fill="#9E5943"/>
<path d="M166.055 96.5498L166.065 93.7358L153.914 93.1841L154.342 99.8632C158.321 100.917 162.244 98.6581 166.055 96.5529V96.5498Z" fill="#161742"/>
<path d="M161.109 96.4016C170.476 95.1873 177.045 86.2999 175.78 76.5511C174.514 66.8022 165.895 59.8836 156.527 61.0979C147.16 62.3121 140.591 71.1995 141.857 80.9484C143.122 90.6972 151.741 97.6159 161.109 96.4016Z" fill="#9E5943"/>
<path d="M168.316 75.4707C168.242 75.4768 168.165 75.4522 168.097 75.3967C167.992 75.3073 165.522 73.2607 163.422 75.7635C163.289 75.9238 163.073 75.9114 162.94 75.7358C162.808 75.5601 162.811 75.2888 162.944 75.1286C165.438 72.1542 168.436 74.6662 168.464 74.6909C168.624 74.8265 168.667 75.0947 168.569 75.2888C168.51 75.3998 168.418 75.4645 168.316 75.4707Z" fill="#161742"/>
<path d="M154.805 76.0779C154.731 76.084 154.654 76.0594 154.586 76.0039C154.481 75.9145 152.011 73.8679 149.911 76.3707C149.778 76.5309 149.562 76.5186 149.43 76.3429C149.297 76.1672 149.3 75.896 149.433 75.7357C151.928 72.7614 154.925 75.2734 154.953 75.2981C155.113 75.4337 155.157 75.7018 155.058 75.896C154.999 76.007 154.907 76.0717 154.805 76.0779Z" fill="#161742"/>
<path d="M154.515 79.4991C154.601 80.6211 153.76 81.6012 152.634 81.6875C151.511 81.7738 150.531 80.9324 150.444 79.8074C150.358 78.6854 151.2 77.7053 152.326 77.619C153.448 77.5327 154.429 78.3741 154.515 79.4991Z" fill="#161742"/>
<path d="M167.967 78.8641C168.054 79.9861 167.212 80.9662 166.086 81.0525C164.964 81.1388 163.983 80.2974 163.896 79.1724C163.81 78.0504 164.652 77.0703 165.778 76.984C166.9 76.8977 167.881 77.7391 167.967 78.8641Z" fill="#161742"/>
<path d="M155.801 90.5982C156.717 91.9143 158.2 92.7156 159.949 92.6201C162.379 92.4875 165.414 89.9848 164.976 87.3218C163.163 87.4759 161.349 87.5899 159.53 87.6608C158.114 87.7163 156.446 87.4235 155.061 87.7317C154.894 88.2156 154.962 88.7519 155.123 89.2358C155.289 89.7321 155.517 90.1913 155.801 90.6012V90.5982Z" fill="#161742"/>
<path d="M157.599 82.042C157.633 82.9235 158.207 83.617 159.018 83.9283C159.829 84.2396 160.865 84.0701 161.476 83.4135C161.858 83.0036 162.08 82.455 162.065 81.894C162.052 81.3978 161.281 81.3978 161.294 81.894C161.306 82.3194 161.124 82.7262 160.794 83.0005C160.464 83.2749 160.1 83.3242 159.718 83.3057C159.036 83.2687 158.395 82.7385 158.37 82.0451C158.352 81.5519 157.581 81.5488 157.599 82.0451V82.042Z" fill="#161742"/>
<path d="M163.736 70.6193C161.883 68.4833 162.648 64.7847 165.442 62.3621C168.239 59.9395 172.007 59.7083 173.861 61.8443C175.714 63.9803 174.949 67.6789 172.155 70.1015C169.358 72.5241 165.59 72.7553 163.736 70.6193Z" fill="#161742"/>
<path d="M159.779 63.6258C158.247 61.2494 159.527 57.6957 162.635 55.6922C165.747 53.6888 169.512 53.9909 171.045 56.3703C172.578 58.7467 171.298 62.3005 168.189 64.3039C165.078 66.3073 161.312 66.0053 159.779 63.6258Z" fill="#161742"/>
<path d="M135.944 74.5738C135.398 70.8536 141.886 66.4861 145.121 65.66C148.575 64.7816 151.314 63.5796 148.005 67.5309C145.562 70.4467 144.098 74.3765 142.478 81.2406C141.714 84.4892 136.493 78.2909 135.947 74.5738H135.944Z" fill="#161742"/>
<path d="M177.636 68.5203C177.151 64.7939 171.535 62.1093 169.053 62.0816C166.401 62.0538 164.183 61.5422 167.449 64.5782C169.861 66.8189 171.819 70.2679 174.57 76.5248C175.871 79.4837 178.117 72.2467 177.636 68.5203Z" fill="#161742"/>
<path d="M147.638 70.0306C145.599 66.8714 147.311 62.1433 151.459 59.471C155.607 56.7987 160.621 57.1933 162.66 60.3556C164.698 63.5149 162.987 68.243 158.839 70.9152C154.691 73.5875 149.676 73.193 147.638 70.0306Z" fill="#161742"/>
<path d="M139.768 73.1374C138.38 70.9829 139.425 67.836 142.105 66.11C144.785 64.384 148.085 64.7292 149.476 66.8836C150.864 69.0381 149.818 72.185 147.138 73.911C144.458 75.6371 141.159 75.2919 139.768 73.1374Z" fill="#161742"/>
<path d="M156.328 114.646L156.301 114.636C156.165 114.596 142.21 111.859 139.268 104.049L139.669 103.926C141.165 107.896 145.541 109.976 148.921 111.73C152.424 113.551 156.063 114.152 156.393 114.251C165.781 114.488 172.266 112.503 176.053 110.796C180.161 108.947 182.07 107.011 182.089 106.992L182.409 107.258C182.332 107.338 180.442 109.255 176.272 111.138C172.436 112.87 165.867 114.886 156.362 114.642H156.332L156.328 114.646Z" fill="#161742"/>
<path d="M156.31 114.818C156.31 114.818 156.291 114.818 156.282 114.812L156.254 114.803C156.254 114.803 156.23 114.797 156.199 114.79C154.975 114.525 151.755 113.749 148.35 112.232C143.419 110.035 140.307 107.301 139.105 104.107C139.086 104.061 139.089 104.012 139.111 103.969C139.132 103.926 139.169 103.892 139.216 103.879L139.617 103.756C139.703 103.728 139.799 103.775 139.832 103.861C141.226 107.556 145.229 109.625 148.449 111.286C148.637 111.381 148.819 111.477 149.001 111.573C152.002 113.132 155.095 113.792 156.113 114.007C156.264 114.038 156.362 114.06 156.418 114.075C165.762 114.306 172.214 112.334 175.979 110.636C180.035 108.808 181.944 106.888 181.962 106.869C182.027 106.804 182.129 106.798 182.2 106.857L182.52 107.122C182.557 107.153 182.582 107.199 182.582 107.245C182.582 107.291 182.567 107.341 182.533 107.375C182.453 107.455 180.55 109.393 176.34 111.292C172.488 113.034 165.892 115.055 156.353 114.812H156.325C156.325 114.812 156.316 114.812 156.313 114.812L156.31 114.818ZM139.496 104.163C140.711 107.193 143.737 109.8 148.492 111.918C151.866 113.422 155.058 114.192 156.27 114.454C156.316 114.464 156.341 114.47 156.347 114.473H156.353H156.362C165.836 114.716 172.377 112.71 176.198 110.984C179.773 109.369 181.648 107.741 182.147 107.273L182.098 107.23C181.623 107.67 179.692 109.35 176.127 110.959C172.325 112.673 165.815 114.667 156.39 114.43C156.375 114.43 156.359 114.43 156.344 114.424C156.304 114.411 156.187 114.387 156.042 114.356C155.012 114.137 151.881 113.471 148.841 111.89C148.659 111.794 148.477 111.702 148.289 111.603C145.06 109.936 141.054 107.868 139.564 104.144L139.496 104.166V104.163Z" fill="#161742"/>
<path d="M135.78 102.323C135.78 102.323 107.056 38.8388 93.7613 35.5562L91.3528 30.6185L79.4857 37.4025L81.9961 40.0377C81.9961 40.0377 78.5914 46.7323 86.329 63.2313C89.268 69.4974 119.571 136.329 119.571 136.329L135.777 102.326L135.78 102.323Z" fill="#1D478E"/>
<path d="M179.76 110.327C179.76 110.327 209.78 50.0364 223.219 47.4134L225.73 43.9336L237.643 50.4802L234.92 53.0076C234.92 53.0076 237.988 59.8624 229.443 75.9577C226.198 82.0697 193.647 143.52 193.647 143.52L179.76 110.33V110.327Z" fill="#1D478E"/>
<path d="M154.968 124.595H154.959C154.703 124.579 154.506 124.361 154.521 124.105L155.228 111.995C155.243 111.739 155.471 111.529 155.718 111.557C155.974 111.573 156.171 111.791 156.156 112.047L155.45 124.157C155.434 124.41 155.218 124.604 154.968 124.595Z" fill="#161742"/>
<path d="M195.374 139.556H195.368C195.146 139.688 194.862 139.611 194.733 139.389L188.658 128.885C188.528 128.663 188.605 128.361 188.827 128.25C189.049 128.121 189.333 128.198 189.462 128.42L195.538 138.924C195.664 139.143 195.593 139.423 195.374 139.556Z" fill="#161742"/>
<path d="M160.489 129.465C160.233 129.456 160.032 129.24 160.042 128.981L160.674 113.018C160.683 112.762 160.899 112.562 161.158 112.571C161.417 112.58 161.614 112.796 161.605 113.055L160.973 129.018C160.964 129.274 160.748 129.474 160.489 129.465Z" fill="#161742"/>
<path d="M119.815 136.93C119.586 136.81 119.503 136.529 119.623 136.301L127.123 122.194C127.244 121.966 127.524 121.882 127.753 122.003C127.981 122.123 128.064 122.403 127.944 122.631L120.444 136.739C120.323 136.967 120.043 137.05 119.815 136.93Z" fill="#161742"/>
<path d="M160.553 111.082C160.446 111.079 160.341 111.036 160.254 110.959L150.062 101.466C149.874 101.29 149.865 100.998 150.037 100.81C150.213 100.622 150.506 100.609 150.694 100.788L160.887 110.281C161.075 110.457 161.084 110.75 160.911 110.938C160.816 111.039 160.683 111.092 160.553 111.086V111.082Z" fill="#161742"/>
<path d="M157.232 113.348C157.084 113.342 156.942 113.265 156.856 113.132C156.72 112.916 156.785 112.63 157.001 112.491L172.091 102.976C172.306 102.841 172.596 102.905 172.732 103.121C172.868 103.337 172.803 103.624 172.587 103.762L157.497 113.277C157.414 113.329 157.322 113.351 157.232 113.348Z" fill="#161742"/>
<path d="M71.3996 22.2226C75.8128 33.6268 70.1383 46.4456 58.7277 50.8563C47.3171 55.2669 34.4878 49.5957 30.0778 38.1915C25.6647 26.7874 31.3391 13.9685 42.7497 9.55786C54.1604 5.14723 66.9865 10.8185 71.3996 22.2257V22.2226Z" fill="#C39B43"/>
<path d="M61.4046 10.8063C55.875 7.77345 49.0934 7.10461 42.7497 9.55496C31.3391 13.9656 25.6647 26.7845 30.0778 38.1886C31.0061 40.5835 32.3075 42.7225 33.8865 44.5749C42.8638 33.1615 52.0201 21.8868 61.4076 10.8063H61.4046Z" fill="#D8AF4D"/>
<path d="M61.0623 49.7899C65.5926 47.4135 69.0158 43.6255 70.9864 39.1902C68.3589 41.9857 65.7468 44.7967 63.1285 47.6015C62.4439 48.3351 61.75 49.0594 61.0623 49.793V49.7899Z" fill="#D8AF4D"/>
<path d="M66.6904 24.4202C69.9995 32.9733 65.7437 42.5898 57.1857 45.897C48.6277 49.2042 39.0058 44.9507 35.6967 36.3976C32.3877 27.8445 36.6435 18.228 45.2015 14.9208C53.7594 11.6136 63.3814 15.8671 66.6874 24.4202H66.6904Z" fill="#AF8E2F"/>
<path d="M54.4595 19.014L49.408 20.965C50.5953 21.3996 51.6685 22.2657 52.4549 23.7483L55.7917 22.4599L56.4455 24.1489L53.1395 25.425C54.1665 28.988 52.5351 32.1411 48.6709 33.7901C52.1157 35.6024 56.0508 38.0435 59.9674 40.5308L57.0284 41.6651C53.414 39.412 50.0402 37.3377 45.8583 35.0723L45.0473 32.9764L46.7311 32.326C50.0371 31.05 51.2244 28.8431 50.5367 26.4298L43.5577 29.1267L42.9039 27.4377L49.7904 24.7777C48.6031 22.9839 46.6016 22.6325 43.9401 23.6589L41.7659 24.4972L40.9178 22.3027L53.8026 17.325L54.4564 19.014H54.4595Z" fill="#DEA041"/>
<path d="M53.8612 18.749L48.8097 20.7C49.997 21.1346 51.0733 22.0007 51.8566 23.4832L55.1935 22.1949L55.8473 23.8839L52.5413 25.1599C53.5682 28.723 51.9368 31.876 48.0726 33.525C51.5174 35.3374 55.4525 37.7785 59.3691 40.2658L56.4301 41.4C52.8157 39.147 49.4419 37.0726 45.2601 34.8072L44.449 32.7144L46.1328 32.0641C49.4388 30.788 50.6261 28.5812 49.9384 26.1678L42.9594 28.8647L42.3056 27.1757L49.1921 24.5157C48.0048 22.7219 46.0033 22.3705 43.3418 23.3969L41.1677 24.2353L40.3196 22.0407L53.2043 17.063L53.8581 18.752L53.8612 18.749Z" fill="#FFD325"/>
<path d="M199.569 7.88422C202.023 14.2336 198.865 21.3688 192.512 23.8254C186.16 26.2788 179.02 23.1226 176.562 16.7733C174.107 10.424 177.265 3.28866 183.618 0.832147C189.971 -1.62128 197.111 1.53489 199.569 7.88422Z" fill="#FFD325"/>
<path d="M194.006 1.52879C190.928 -0.16026 187.153 -0.533206 183.622 0.832209C177.269 3.28564 174.111 10.424 176.566 16.7733C177.081 18.1079 177.806 19.2977 178.684 20.3271C183.684 13.9716 188.781 7.69627 194.006 1.52879Z" fill="#D8AF4D"/>
<path d="M193.814 23.2305C196.337 21.9083 198.242 19.797 199.337 17.3281C197.875 18.8846 196.42 20.4504 194.964 22.01C194.582 22.4168 194.196 22.8237 193.814 23.2305Z" fill="#FFD325"/>
<path d="M196.944 9.1079C198.785 13.8699 196.417 19.2237 191.652 21.0638C186.887 22.9038 181.53 20.5367 179.689 15.7747C177.848 11.0127 180.217 5.65892 184.981 3.81884C189.746 1.97877 195.103 4.3459 196.944 9.1079Z" fill="#AF8E2F"/>
<path d="M190.138 6.09657L187.325 7.1815C187.985 7.42191 188.584 7.90582 189.021 8.73185L190.878 8.01369L191.242 8.95377L189.401 9.66575C189.971 11.6507 189.065 13.4045 186.912 14.323C188.83 15.3339 191.02 16.6901 193.2 18.074L191.566 18.7058C189.552 17.4514 187.677 16.2956 185.348 15.0349L184.898 13.8699L185.836 13.5093C187.677 12.7973 188.337 11.5706 187.954 10.2267L184.069 11.7277L183.705 10.7877L187.538 9.30514C186.878 8.3065 185.765 8.10924 184.281 8.68253L183.073 9.15103L182.601 7.92739L189.774 5.15649L190.138 6.09657Z" fill="#DEA041"/>
<path d="M189.805 5.95167L186.992 7.0366C187.652 7.27701 188.25 7.76092 188.688 8.58695L190.545 7.8688L190.909 8.80887L189.068 9.52086C189.638 11.5058 188.732 13.2596 186.579 14.1781C188.497 15.189 190.687 16.5452 192.867 17.9291L191.233 18.561C189.219 17.3065 187.344 16.1507 185.012 14.8901L184.562 13.725L185.5 13.3644C187.341 12.6524 188.001 11.4257 187.618 10.0818L183.732 11.5828L183.369 10.6428L187.202 9.16024C186.542 8.16161 185.429 7.96434 183.945 8.53763L182.736 9.00613L182.265 7.7825L189.438 5.0116L189.802 5.95167H189.805Z" fill="#FFD325"/>
<path d="M23.8389 125.378C26.2938 131.727 23.1358 138.862 16.7829 141.319C10.4299 143.772 3.29059 140.616 0.83268 134.267C-1.62214 127.917 1.53582 120.782 7.88876 118.326C14.2417 115.872 21.381 119.028 23.8389 125.378Z" fill="#FFD325"/>
<path d="M18.2724 119.022C15.1946 117.333 11.4199 116.96 7.88876 118.326C1.53582 120.779 -1.62214 127.918 0.83268 134.267C1.3477 135.602 2.07243 136.791 2.95135 137.821C7.95044 131.465 13.0482 125.19 18.2724 119.022Z" fill="#D8AF4D"/>
<path d="M18.0812 140.724C20.6039 139.402 22.5098 137.29 23.6046 134.822C22.1428 136.378 20.6872 137.944 19.2316 139.504C18.8491 139.91 18.4636 140.317 18.0812 140.724Z" fill="#FFD325"/>
<path d="M21.2145 126.598C23.0556 131.36 20.6872 136.714 15.9225 138.554C11.1578 140.394 5.80094 138.027 3.95982 133.265C2.1187 128.503 4.48718 123.149 9.25188 121.309C14.0166 119.469 19.3734 121.836 21.2145 126.598Z" fill="#AF8E2F"/>
<path d="M14.4052 123.59L11.5926 124.675C12.2526 124.915 12.8508 125.399 13.2888 126.225L15.1453 125.507L15.5092 126.447L13.6681 127.159C14.2386 129.144 13.3319 130.898 11.1793 131.816C13.0976 132.827 15.2872 134.184 17.4675 135.568L15.833 136.199C13.8192 134.945 11.9442 133.789 9.61578 132.528L9.16552 131.363L10.103 131.003C11.9442 130.291 12.6041 129.064 12.2217 127.72L8.33594 129.221L7.97203 128.281L11.8054 126.799C11.1454 125.8 10.0321 125.603 8.54873 126.176L7.33982 126.645L6.86798 125.421L14.0412 122.65L14.4052 123.59Z" fill="#DEA041"/>
<path d="M14.0752 123.442L11.2626 124.527C11.9226 124.767 12.5209 125.251 12.9588 126.077L14.8153 125.359L15.1792 126.299L13.3381 127.011C13.9086 128.996 13.002 130.75 10.8494 131.669C12.7676 132.679 14.9572 134.036 17.1375 135.42L15.503 136.051C13.4892 134.797 11.6142 133.641 9.28271 132.381L8.83245 131.215L9.76998 130.855C11.6111 130.143 12.2711 128.916 11.8886 127.572L8.00287 129.073L7.63897 128.133L11.4723 126.651C10.8124 125.652 9.69904 125.455 8.21566 126.028L7.00676 126.497L6.53491 125.273L13.7082 122.502L14.0721 123.442H14.0752Z" fill="#FFD325"/>
<path d="M314.745 44.763C318.442 54.3179 313.687 65.0593 304.127 68.7549C294.567 72.4504 283.819 67.6977 280.121 58.1429C276.424 48.588 281.179 37.8466 290.739 34.151C300.3 30.4555 311.047 35.2082 314.745 44.763Z" fill="#FFD325"/>
<path d="M306.372 35.1956C301.74 32.6528 296.056 32.0949 290.743 34.1477C281.182 37.8432 276.427 48.5847 280.125 58.1395C280.902 60.146 281.993 61.9399 283.316 63.4902C290.838 53.9262 298.511 44.4823 306.375 35.1956H306.372Z" fill="#D8AF4D"/>
<path d="M306.082 67.8608C309.875 65.8697 312.746 62.695 314.396 58.9779C312.194 61.3204 310.008 63.6752 307.812 66.0238C307.239 66.6372 306.659 67.2474 306.082 67.8577V67.8608Z" fill="#FFD325"/>
<path d="M310.797 46.6028C313.57 53.7689 310.005 61.8258 302.835 64.5967C295.664 67.3676 287.603 63.8045 284.831 56.6384C282.058 49.4723 285.623 41.4154 292.793 38.6445C299.963 35.8736 308.025 39.4367 310.797 46.6028Z" fill="#AF8E2F"/>
<path d="M300.552 42.072L296.321 43.7056C297.317 44.0693 298.218 44.7936 298.875 46.0388L301.669 44.96L302.218 46.3747L299.448 47.4443C300.309 50.4309 298.943 53.0724 295.705 54.4532C298.591 55.9727 301.888 58.0162 305.169 60.0998L302.708 61.0522C299.68 59.1659 296.855 57.4244 293.348 55.5258L292.67 53.772L294.079 53.2265C296.849 52.1569 297.845 50.3076 297.268 48.2857L291.421 50.545L290.872 49.1302L296.642 46.9018C295.649 45.3977 293.971 45.1049 291.742 45.9648L289.922 46.6676L289.21 44.8275L300.007 40.6542L300.556 42.0689L300.552 42.072Z" fill="#DEA041"/>
<path d="M300.05 41.8501L295.819 43.4836C296.815 43.8473 297.715 44.5716 298.372 45.8169L301.166 44.7381L301.715 46.1528L298.946 47.2223C299.806 50.209 298.44 52.8504 295.202 54.2313C298.088 55.7508 301.385 57.7943 304.666 59.8779L302.205 60.8303C299.177 58.944 296.352 57.2025 292.846 55.3039L292.167 53.5501L293.577 53.0045C296.346 51.935 297.342 50.0857 296.765 48.0638L290.918 50.323L290.369 48.9083L296.139 46.6799C295.146 45.1758 293.469 44.883 291.239 45.7429L289.419 46.4456L288.707 44.6056L299.504 40.4323L300.053 41.847L300.05 41.8501Z" fill="#FFD325"/>
<path d="M33.2653 224.438L10.8676 274.107L16.5751 276.678L38.9729 227.008L33.2653 224.438Z" fill="#E4AD43"/>
<path d="M38.9688 256.877C32.7855 270.593 22.7595 279.454 16.5762 276.671C10.3929 273.887 11.2256 260.884 17.4089 247.168C23.5953 233.452 32.7886 224.218 38.9719 227.001C45.1521 229.784 45.1521 243.161 38.9657 256.877H38.9688Z" fill="#AF8E2F"/>
<path d="M33.6675 254.488C27.4842 268.204 17.4613 277.068 11.2873 274.288C5.11011 271.508 5.11936 258.131 11.3027 244.415C17.4891 230.7 27.5088 221.835 33.6829 224.615C39.857 227.396 39.8508 240.769 33.6675 254.488Z" fill="#C39B43"/>
<path d="M14.1677 259.993C16.1784 258.06 18.3218 256.128 20.0426 253.924C26.1828 246.058 28.5296 235.391 25.6862 225.947C20.6532 229.026 15.2131 235.751 11.3027 244.419C7.55878 252.719 6.08465 260.89 6.86798 266.669C9.36598 264.518 11.793 262.28 14.1708 259.996L14.1677 259.993Z" fill="#D8AF4D"/>
<path d="M30.8518 253.221C26.2136 263.51 18.8275 270.217 14.3558 268.201C9.88406 266.188 10.0198 256.214 14.658 245.929C19.2963 235.64 26.6823 228.934 31.1541 230.949C35.6258 232.962 35.4901 242.936 30.8518 253.221Z" fill="#AF8E2F"/>
<path d="M30.8056 240.775L28.4833 240.239C28.471 241.287 28.1626 242.717 27.404 244.585L28.9398 245.047L28.0238 247.032L26.5034 246.524C24.4927 250.194 22.1643 251.933 20.2862 251.36C19.9007 254.26 19.2284 257.734 18.5253 261.099L17.1745 260.282C17.7975 257.311 18.3649 254.463 18.8738 251.03L20.0086 249.106L20.7827 249.356C22.3031 249.877 23.9438 248.619 25.3069 246.151L22.0965 245.281L23.0124 243.485L26.1796 244.243C27.0462 241.906 26.8303 240.578 25.606 240.35L24.6068 240.183L25.7972 237.576L31.7246 238.568L30.8086 240.772L30.8056 240.775Z" fill="#DEA041"/>
<path d="M30.8425 240.171L28.5203 239.663C28.508 240.714 28.1996 242.147 27.4409 244.024L28.9768 244.471L28.0608 246.468L26.5404 245.978C24.5297 249.677 22.2013 251.443 20.3232 250.891C19.9377 253.798 19.2654 257.284 18.5623 260.662L17.2115 259.86C17.8344 256.88 18.4019 254.02 18.9107 250.577L20.0456 248.638L20.8197 248.878C22.3401 249.381 23.9808 248.102 25.3439 245.617L22.1335 244.785L23.0494 242.976L26.2166 243.697C27.0832 241.349 26.8673 240.02 25.643 239.807L24.6438 239.653L25.8342 237.027L31.7616 237.952L30.8456 240.168L30.8425 240.171Z" fill="#FFD325"/>
<path d="M229.795 125.206L224.169 128.242L243.986 164.917L249.611 161.881L229.795 125.206Z" fill="#E4AD43"/>
<path d="M250.734 137.568C256.208 147.696 255.706 158.57 249.612 161.859C243.518 165.147 234.96 159.162 229.486 149.037C224.012 138.909 223.697 128.475 229.791 125.187C235.882 121.898 245.26 127.44 250.731 137.568H250.734Z" fill="#AF8E2F"/>
<path d="M245.507 140.388C250.981 150.516 250.485 161.387 244.397 164.673C238.312 167.958 228.94 162.41 223.466 152.285C217.992 142.157 218.489 131.286 224.576 128.001C230.664 124.715 240.033 130.26 245.507 140.388Z" fill="#C39B43"/>
<path d="M236.305 156.681C236.295 154.437 236.375 152.094 235.984 149.946C234.584 142.274 228.675 136.169 220.151 134.301C218.936 139.192 220.009 145.89 223.466 152.288C226.778 158.416 231.518 162.864 236.092 164.694C236.255 162.007 236.314 159.334 236.305 156.681Z" fill="#D8AF4D"/>
<path d="M242.735 141.886C246.839 149.481 246.596 157.568 242.189 159.945C237.782 162.324 230.883 158.095 226.778 150.498C222.673 142.903 222.917 134.815 227.324 132.439C231.731 130.06 238.63 134.288 242.735 141.886Z" fill="#AF8E2F"/>
<path d="M233.85 138.126L231.561 139.491C232.335 139.765 233.162 140.348 233.992 141.377L235.503 140.524L236.314 141.766L234.815 142.586C236.329 145.264 236.258 147.529 234.55 148.392C236.946 150.18 239.777 152.726 242.614 155.555L241.282 156.024C238.676 153.457 236.252 151.274 233.329 149.037L232.323 147.452L233.085 147.138C234.584 146.488 234.658 144.962 233.637 143.199L230.473 144.712L229.662 143.581L232.783 142.031C231.648 140.813 230.442 140.579 229.236 141.22L228.252 141.723L227.198 140.419L233.039 137.022L233.85 138.132V138.126Z" fill="#DEA041"/>
<path d="M233.449 137.962L231.16 139.331C231.935 139.599 232.761 140.169 233.591 141.186L235.102 140.329L235.913 141.556L234.414 142.376C235.928 145.024 235.857 147.271 234.149 148.134C236.545 149.894 239.376 152.409 242.213 155.207L240.881 155.679C238.275 153.142 235.851 150.985 232.928 148.781L231.922 147.215L232.684 146.901C234.183 146.25 234.257 144.734 233.236 142.992L230.072 144.509L229.261 143.393L232.382 141.837C231.247 140.635 230.041 140.41 228.835 141.054L227.851 141.556L226.797 140.271L232.638 136.868L233.449 137.962Z" fill="#FFD325"/>
<path d="M126.056 152.689C120.857 165.841 105.974 172.289 92.8176 167.09C79.6615 161.89 73.2099 147.018 78.4094 133.87C83.609 120.718 98.4921 114.27 111.648 119.47C124.807 124.666 131.256 139.541 126.056 152.689Z" fill="#C39B43"/>
<path d="M126.519 135.151C124.2 128.238 118.96 122.357 111.645 119.466C98.4859 114.27 83.6059 120.718 78.4063 133.866C77.3146 136.628 76.741 139.467 76.6331 142.278C93.2185 139.614 109.847 137.21 126.522 135.148L126.519 135.151Z" fill="#D8AF4D"/>
<path d="M95.6364 168.014C101.351 169.543 107.232 169.006 112.388 166.784C107.96 167.102 103.534 167.444 99.112 167.773C97.9555 167.86 96.7959 167.934 95.6394 168.017L95.6364 168.014Z" fill="#D8AF4D"/>
<path d="M120.33 150.861C116.428 160.725 105.268 165.56 95.3989 161.661C85.5303 157.763 80.6916 146.608 84.5928 136.745C88.494 126.882 99.6548 122.046 109.523 125.945C119.392 129.844 124.231 140.998 120.33 150.861Z" fill="#AF8E2F"/>
<path d="M114.177 136.68L108.355 134.381C109.024 135.682 109.258 137.26 108.759 139.134L112.604 140.653L111.833 142.601L108.021 141.097C106.097 144.931 102.239 146.334 97.6594 144.703C99.1644 148.944 100.592 154.104 101.971 159.285L98.5815 157.948C97.277 153.198 96.0403 148.793 94.264 143.588L95.22 141.171L97.1598 141.939C100.972 143.443 103.71 142.5 105.021 139.91L96.9748 136.733L97.7458 134.785L105.687 137.922C106.085 135.469 104.663 133.601 101.591 132.387L99.0842 131.397L100.086 128.867L114.945 134.735L114.174 136.683L114.177 136.68Z" fill="#DEA041"/>
<path d="M113.878 135.99L108.055 133.691C108.725 134.991 108.959 136.569 108.459 138.443L112.305 139.963L111.534 141.911L107.722 140.407C105.798 144.241 101.94 145.643 97.3603 144.013C98.8652 148.254 100.293 153.414 101.672 158.595L98.2824 157.257C96.9779 152.507 95.7412 148.103 93.9648 142.897L94.9209 140.484L96.8607 141.251C100.672 142.755 103.411 141.812 104.722 139.223L96.6756 136.045L97.4466 134.097L105.388 137.235C105.786 134.782 104.364 132.914 101.292 131.699L98.7851 130.71L99.7873 128.18L114.646 134.048L113.875 135.996L113.878 135.99Z" fill="#FFD325"/>
</g>
<defs>
<clipPath id="clip0_111_4689">
<rect width="316" height="354" fill="white"/>
</clipPath>
</defs>
</svg>
