<svg id="WIthdrawal_success" data-name="WIthdrawal success" xmlns="http://www.w3.org/2000/svg" xmlns:xlink="http://www.w3.org/1999/xlink" width="307.476" height="241.897" viewBox="0 0 307.476 241.897">
  <defs>
    <linearGradient id="linear-gradient" x1="0.495" y1="-1.689" x2="0.513" y2="6.48" gradientUnits="objectBoundingBox">
      <stop offset="0" stop-color="#010101" stop-opacity="0"/>
      <stop offset="0.95" stop-color="#010101"/>
    </linearGradient>
    <linearGradient id="linear-gradient-2" x1="0.495" y1="-1.689" x2="0.513" y2="6.479" xlink:href="#linear-gradient"/>
    <linearGradient id="linear-gradient-3" x1="0.675" y1="1.499" x2="0.2" y2="-0.72" xlink:href="#linear-gradient"/>
    <linearGradient id="linear-gradient-4" x1="0.282" y1="0.135" x2="0.578" y2="4.561" xlink:href="#linear-gradient"/>
    <linearGradient id="linear-gradient-5" x1="0.599" y1="0.886" x2="0.382" y2="-0.152" gradientUnits="objectBoundingBox">
      <stop offset="0" stop-color="#1a2350"/>
      <stop offset="0.95" stop-color="#010101"/>
      <stop offset="1" stop-color="#010101"/>
    </linearGradient>
    <linearGradient id="linear-gradient-7" x1="0.645" y1="0.132" x2="0.245" y2="1.147" gradientUnits="objectBoundingBox">
      <stop offset="0" stop-color="#6caf4c"/>
      <stop offset="0.95" stop-color="#010101"/>
      <stop offset="1" stop-color="#010101"/>
    </linearGradient>
    <linearGradient id="linear-gradient-8" x1="0.496" y1="-0.532" x2="0.517" y2="5.355" xlink:href="#linear-gradient"/>
    <linearGradient id="linear-gradient-9" x1="0.492" y1="-0.021" x2="0.706" y2="2.901" gradientUnits="objectBoundingBox">
      <stop offset="0" stop-color="#394ca4"/>
      <stop offset="0.95" stop-color="#010101"/>
      <stop offset="1" stop-color="#010101"/>
    </linearGradient>
    <linearGradient id="linear-gradient-11" x1="0.127" y1="-0.09" x2="1.521" y2="1.951" xlink:href="#linear-gradient"/>
    <linearGradient id="linear-gradient-12" x1="0.162" y1="-0.308" x2="1.259" y2="2.114" xlink:href="#linear-gradient"/>
    <linearGradient id="linear-gradient-13" x1="0.415" y1="-0.476" x2="0.741" y2="3.301" xlink:href="#linear-gradient"/>
    <linearGradient id="linear-gradient-15" x1="-0.761" y1="0.307" x2="1.605" y2="0.67" gradientUnits="objectBoundingBox">
      <stop offset="0" stop-color="#32428f"/>
      <stop offset="0.95" stop-color="#010101"/>
      <stop offset="1" stop-color="#010101"/>
    </linearGradient>
    <linearGradient id="linear-gradient-16" x1="0.5" y1="-1.069" x2="0.5" y2="1.444" gradientUnits="objectBoundingBox">
      <stop offset="0" stop-color="#3e8fc2"/>
      <stop offset="0.95" stop-color="#010101"/>
      <stop offset="1" stop-color="#010101"/>
    </linearGradient>
  </defs>
  <path id="Path_6927" data-name="Path 6927" d="M310.332,142.994q-.11,1.962-.291,3.9c-.929,9.658-3.232,19.139-5.585,28.538-4.678,18.688-10.02,38.157-22.75,52.113-15.341,16.787-38.729,22.509-60.858,23.295s-44.341-2.556-66.388-.308c-22.338,2.287-44.176,10.29-66.6,9.449a85.868,85.868,0,0,1-32.111-7.591c-10.086-4.568-19.469-11.164-26.252-20.244-10.586-14.088-13.577-31.765-14.879-48.727a37.738,37.738,0,0,0-.726-4.947h0c-.1-.517-.22-1.028-.357-1.545-2.028-7.888-6.123-14.709-8.558-22.25-.429-1.341-.824-2.7-1.132-4.106a33.491,33.491,0,0,1-.671-10.361c.912-9.537,4.4-18.622,7.97-27.543,1.583-3.969,3.216-7.954,4.985-11.873,4.276-9.449,9.4-18.469,16.82-25.79C47.831,60.336,69.779,54.751,90.8,52.069s42.731-3.144,62.694-10.152c20.667-7.267,39.1-21.393,61.012-23.5,16.012-1.528,32.078,3.71,45.842,11.768,30.407,17.749,47.177,60.721,49.8,96.575A126.019,126.019,0,0,1,310.332,142.994Z" transform="translate(-3.038 -18.148)" fill="#f4e9b5" opacity="0.24" style="mix-blend-mode: normal;isolation: isolate"/>
  <ellipse id="Ellipse_220" data-name="Ellipse 220" cx="41.049" cy="7.849" rx="41.049" ry="7.849" transform="translate(52.521 165.713)" opacity="0.26" fill="url(#linear-gradient)"/>
  <ellipse id="Ellipse_221" data-name="Ellipse 221" cx="51.008" cy="10.048" rx="51.008" ry="10.048" transform="translate(161.849 161.316)" opacity="0.26" fill="url(#linear-gradient-2)"/>
  <path id="Path_6928" data-name="Path 6928" d="M126.485,269.142a63.969,63.969,0,0,1-7.245-.687,6.955,6.955,0,0,0-1.847-.121,7.81,7.81,0,0,0-2.2.753,22.536,22.536,0,0,1-13.346,1.44,2.5,2.5,0,0,1-2.611-2.49,21.365,21.365,0,0,1-.093-4.315,5.761,5.761,0,0,1,.55-2.336,4.562,4.562,0,0,1,1.907-1.726c2.875-1.539,6.343-1.1,9.6-1,3.848.137,7.833-.192,11.543.863a11.2,11.2,0,0,1,6.645,4.788C131.085,267.136,129.816,269.274,126.485,269.142Z" transform="translate(-46.288 -126.4)" fill="#fdb386"/>
  <path id="Path_6929" data-name="Path 6929" d="M126.485,269.142a63.969,63.969,0,0,1-7.245-.687,6.955,6.955,0,0,0-1.847-.121,7.81,7.81,0,0,0-2.2.753,22.536,22.536,0,0,1-13.346,1.44,2.5,2.5,0,0,1-2.611-2.49,21.365,21.365,0,0,1-.093-4.315,5.761,5.761,0,0,1,.55-2.336,4.562,4.562,0,0,1,1.907-1.726c2.875-1.539,6.343-1.1,9.6-1,3.848.137,7.833-.192,11.543.863a11.2,11.2,0,0,1,6.645,4.788C131.085,267.136,129.816,269.274,126.485,269.142Z" transform="translate(-46.288 -126.4)" fill="url(#linear-gradient-3)"/>
  <path id="Path_6930" data-name="Path 6930" d="M302.97,280.75l19.348,13.7,63.86.484-17.9-12.736Z" transform="translate(-136.444 -126.432)" fill="#1a2350"/>
  <path id="Path_6931" data-name="Path 6931" d="M316.17,281.71l14.89,10.548,49.129.374-13.775-9.8Z" transform="translate(-142.388 -126.864)" fill="#ebfbff"/>
  <path id="Path_6932" data-name="Path 6932" d="M290.31,202.554s15.72-7.739,21.041-20.074l16.935,5.321s-18.139,24.185-25.158,24.911Z" transform="translate(-132.408 -92.153)" fill="#6caf4c"/>
  <path id="Path_6933" data-name="Path 6933" d="M319.79,231.337c.967-.6,15.237-5.321,21.167-16.567l14.39,7.618S341.2,241.5,328.5,242.1Z" transform="translate(-145.684 -106.695)" fill="#6caf4c"/>
  <path id="Path_6934" data-name="Path 6934" d="M381.98,261.97l10.641,12.1-39.18,4.513-5-8.872Z" transform="translate(-156.921 -117.974)" fill="#6caf4c"/>
  <path id="Path_6935" data-name="Path 6935" d="M359.018,288.173l25.394-4.9a5.5,5.5,0,0,0,3.622,1.1l4.491,5.205s-1.336,1.792-.577,2.891l-28.126,3.974a8.951,8.951,0,0,0-4.035-1.27l-3.3-4.8S359.475,290.047,359.018,288.173Z" transform="translate(-162.211 -137.543)" fill="url(#linear-gradient-4)"/>
  <path id="Path_6936" data-name="Path 6936" d="M191.668,248.057,190.629,244c-.654-2.342-2.452-.3-4.639.753L124.428,274.43a3.9,3.9,0,0,0-2.105,4.364l.791,3.512a3.875,3.875,0,0,0,1.418,2.226l10.262,7.926a3.9,3.9,0,0,0,4.8-.033l50.739-40.279A3.892,3.892,0,0,0,191.668,248.057Z" transform="translate(-56.714 -119.37)" fill="#68e1fd"/>
  <path id="Path_6937" data-name="Path 6937" d="M191.668,248.057,190.629,244c-.654-2.342-2.452-.3-4.639.753L124.428,274.43a3.9,3.9,0,0,0-2.105,4.364l.791,3.512a3.875,3.875,0,0,0,1.418,2.226l10.262,7.926a3.9,3.9,0,0,0,4.8-.033l50.739-40.279A3.892,3.892,0,0,0,191.668,248.057Z" transform="translate(-56.714 -119.37)" fill="url(#linear-gradient-5)"/>
  <path id="Path_6938" data-name="Path 6938" d="M124.251,268.747l45.5-37.311a2.028,2.028,0,0,1,1.907-.357l18.221,5.9a2.023,2.023,0,0,1,.621,3.518L138.91,280.757a2.023,2.023,0,0,1-2.435.038l-12.148-8.85a2.028,2.028,0,0,1-.077-3.2Z" transform="translate(-57.29 -113.995)" fill="#68e1fd"/>
  <path id="Path_6939" data-name="Path 6939" d="M124.251,268.747l45.5-37.311a2.028,2.028,0,0,1,1.907-.357l18.221,5.9a2.023,2.023,0,0,1,.621,3.518L138.91,280.757a2.023,2.023,0,0,1-2.435.038l-12.148-8.85a2.028,2.028,0,0,1-.077-3.2Z" transform="translate(-57.29 -113.995)" fill="url(#linear-gradient-5)"/>
  <path id="Path_6940" data-name="Path 6940" d="M187.728,225.66l-1.253.978L141.765,261.47l-13.4-8.85-.825-.55,39.982-32.941Z" transform="translate(-57.44 -98.682)" fill="#fff"/>
  <path id="Path_6941" data-name="Path 6941" d="M187.15,227.737l-44.709,34.832-13.4-8.85,39.037-32.15Z" transform="translate(-58.116 -99.781)" fill="#68e1fd" opacity="0.13"/>
  <path id="Path_6942" data-name="Path 6942" d="M163.607,268.394l-14.517-7.53,4.452-3.914,14.517,7.525Z" transform="translate(-67.146 -115.714)" fill="#68e1fd"/>
  <path id="Path_6943" data-name="Path 6943" d="M163.607,268.394l-14.517-7.53,4.452-3.914,14.517,7.525Z" transform="translate(-67.146 -115.714)" fill="url(#linear-gradient-7)"/>
  <path id="Path_6944" data-name="Path 6944" d="M232.513,225.385l-1.583-.676a32,32,0,0,1,1.649-3.139l1.49.863a28.847,28.847,0,0,0-1.556,2.952Z" transform="translate(-105.667 -109.757)" fill="#6caf4c"/>
  <path id="Path_6945" data-name="Path 6945" d="M241.582,202.956l-1.352-1.061a39.922,39.922,0,0,1,4.2-4.6l1.171,1.259A37.9,37.9,0,0,0,241.582,202.956Zm8.718-8.02-.912-1.457a27.709,27.709,0,0,1,5.656-2.748l.55,1.649a26.432,26.432,0,0,0-5.293,2.556Zm16.941-3.7a26.519,26.519,0,0,0-5.892-.115l-.165-1.709a28.654,28.654,0,0,1,6.277.115Z" transform="translate(-109.855 -95.221)" fill="#6caf4c"/>
  <path id="Path_6946" data-name="Path 6946" d="M303.105,195.05c-1.05-.44-2.111-.835-3.155-1.171l.55-1.649c1.1.352,2.2.764,3.3,1.226Z" transform="translate(-136.749 -96.544)" fill="#6caf4c"/>
  <path id="Path_6947" data-name="Path 6947" d="M303.454,286.23l-.484-5.48,19.348,13.7,63.86.484-1.253,3.43-64.459.363Z" transform="translate(-136.444 -126.432)" fill="#1a2350"/>
  <path id="Path_6948" data-name="Path 6948" d="M303.454,286.23l-.484-5.48,19.348,13.7,63.86.484-1.253,3.43-64.459.363Z" transform="translate(-136.444 -126.432)" fill="rgba(26,35,80,0)"/>
  <path id="Path_6949" data-name="Path 6949" d="M471.168,210.079c-.071,2.166-.192,4.326-.33,6.491-.066,1.237-.154,2.457-.258,3.694-.066.912-.236,1.979-1.028,2.408a1.51,1.51,0,0,1-.346.137,4.326,4.326,0,0,1-1.165.049l-5.381-.357a26.808,26.808,0,0,0-5.271,0c-3.474.445-6.667,2.232-10.136,2.627a25.8,25.8,0,0,1-4.606-.033l-14.11-.929A10.268,10.268,0,0,1,425,223.5a3.457,3.457,0,0,1-2.2-2.66c-.088-.846.236-1.687.17-2.545a.23.23,0,0,0,0-.1c-.242-2.287-3.248-4.139-2.336-6.255.2-.495.632-.923.649-1.457a2.094,2.094,0,0,0-.462-1.187c-.792-1.27-1.545-2.748-1.22-4.227.242-1.05.995-2,.962-3.056-.049-1.22-1.1-2.2-1.237-3.4a3.3,3.3,0,0,1,1.973-3.045,9.344,9.344,0,0,1,3.782-.632l6.772-.209a4.738,4.738,0,0,0,3.177-.874,3.639,3.639,0,0,0,.55-3.8c-.429-1.27-1.237-2.408-1.649-3.694a6.728,6.728,0,0,1,1.2-6.134,2.2,2.2,0,0,1,.874-.7c1.22-.445,2.237.995,2.748,2.2A39.763,39.763,0,0,0,446.8,193.6a31.622,31.622,0,0,0,15.462,8.245c1.7.374,4.172.137,6.134.412a5.178,5.178,0,0,1,1.649.462C472.3,203.824,471.234,208.1,471.168,210.079Z" transform="translate(-190.504 -90.78)" fill="#fdb386"/>
  <path id="Path_6950" data-name="Path 6950" d="M534.082,231.959c0,.451-.055.9-.088,1.341-.049.857-.121,1.72-.2,2.561a6.129,6.129,0,0,1-1.358,2.232c-1.55,1.512-3.848,1.649-5.931,1.649q-10,.132-20-.55a10.141,10.141,0,0,1-1.017-.088,5.4,5.4,0,0,1-2.556-.857c-1.6-1.154-2.028-3.386-2.32-5.4-.588-3.881-1.171-7.9-.242-11.719a4.314,4.314,0,0,1,.4-1.149,2.391,2.391,0,0,1,.72-.929,3.446,3.446,0,0,1,1.94-.462h1.292c4.875-.055,9.756.429,14.637.324a39.414,39.414,0,0,0,8.146-.929c1.3-.291,4.584-2.149,6.387-2.287A126.01,126.01,0,0,1,534.082,231.959Z" transform="translate(-226.787 -107.114)" fill="#fdb386"/>
  <path id="Path_6951" data-name="Path 6951" d="M500.555,236.805c-.05.857-.121,1.72-.2,2.561a6.129,6.129,0,0,1-1.358,2.232c-1.55,1.512-3.848,1.649-5.931,1.649q-10,.132-20-.55a10.133,10.133,0,0,1-1.017-.088,4.325,4.325,0,0,1-1.165.049L465.5,242.3a26.807,26.807,0,0,0-5.271,0c-3.474.445-6.667,2.232-10.136,2.627a25.8,25.8,0,0,1-4.606-.033l-14.11-.929a10.267,10.267,0,0,1-3.534-.671,3.457,3.457,0,0,1-2.2-2.66c-.088-.846.236-1.687.17-2.545a.232.232,0,0,0,0-.1c2.919,2.545,7.2,2.561,11.1,2.441,6.772-.2,13.593-.412,20.156-2.078a5.859,5.859,0,0,1,.962-6.046c.616-.7,1.407-1.237,2.078-1.885,1.424-1.413,2.232-3.3,3.54-4.848a5.651,5.651,0,0,1,3.677-2.078,3.21,3.21,0,0,1,1.594.291c2.067.995,2.27,3.815,2.149,6.1s-.049,5.051,1.94,6.2a3.259,3.259,0,0,0,.671.291,8.48,8.48,0,0,0,2.3.291c6.239.159,12.477.137,18.727-.033a36.951,36.951,0,0,1,5.843.17Z" transform="translate(-193.349 -110.619)" fill="url(#linear-gradient-8)"/>
  <path id="Path_6952" data-name="Path 6952" d="M89.072,243.2a29.743,29.743,0,0,1,11.153.55,25.6,25.6,0,0,1,7.624,3.606,43.676,43.676,0,0,1,14.841,16.907c.5,1.022.863,2.474-.077,3.117-.808.55-1.88,0-2.682-.55-3.5-2.4-15.22-14.291-23.608-10.416-.231,1.8,2.1,5.37,2.38,7.146a3.7,3.7,0,0,1-2.567,3.71,10.477,10.477,0,0,1-4.821.258c-4.639-.484-9.262.033-13.928-.077-10.894-.247-17.672-8.091-17.039-12.18C60.924,251.893,69.482,245.627,89.072,243.2Z" transform="translate(-28.828 -119.369)" fill="#fdb386"/>
  <path id="Path_6953" data-name="Path 6953" d="M336.41,255.969,366.4,246.13l9.674,12.093-34.1,8.228Z" transform="translate(-151.503 -110.841)" fill="#6caf4c"/>
  <path id="Path_6954" data-name="Path 6954" d="M44.1,264.545a15.11,15.11,0,0,1-2.506,5.755,8.894,8.894,0,0,0-4.249.17,29.819,29.819,0,0,0-6.046,2.666,146.724,146.724,0,0,1-14.33,6.75c-.907.379-1.852.742-2.814,1.05A88.8,88.8,0,0,0,9,267.31a90.794,90.794,0,0,1-3.386-8.624c-.429-1.341-.824-2.7-1.132-4.106,7.866-3.232,20.623-.841,27.3-2.237a51.734,51.734,0,0,0,5.563-1.594,41.932,41.932,0,0,1,5.947-1.649C44.253,254.151,45.149,259.664,44.1,264.545Z" transform="translate(-3.687 -122.155)" fill="url(#linear-gradient-9)"/>
  <path id="Path_6955" data-name="Path 6955" d="M47.815,277.2a15.11,15.11,0,0,1-2.506,5.755c-3.556-.792-7.08,1.1-10.279,2.836a146.71,146.71,0,0,1-14.33,6.75c-.907.379-1.852.742-2.814,1.05a88.8,88.8,0,0,0-5.156-13.626,24.13,24.13,0,0,0,9.493,1.308c4.639-.209,9.174-1.341,13.742-2.2C39.894,278.3,43.863,277.75,47.815,277.2Z" transform="translate(-7.403 -134.809)" fill="url(#linear-gradient-9)"/>
  <path id="Path_6956" data-name="Path 6956" d="M317.234,186.68l8.283,2.781s-1.1,2.6.242,3.809c0,0-9.493,13.967-17.474,17.353,0,0-1.149-1.27-4.777-.907l-5.689-4.293s2.122-1.028,1.649-2.66c0,0,11.427-5.8,14.571-13.544C314.029,189.219,317.234,189.7,317.234,186.68Z" transform="translate(-135.79 -94.045)" fill="url(#linear-gradient-11)"/>
  <path id="Path_6957" data-name="Path 6957" d="M346.518,221.08l6.992,3.369s-1.248,2.2-.2,3.391c0,0-9.927,11.3-17.353,13.412,0,0-.879-1.248-4.122-1.325l-4.551-4.4s1.984-.676,1.737-2.2c0,0,10.735-3.848,14.368-10.361C343.407,222.971,346.183,223.751,346.518,221.08Z" transform="translate(-149.057 -109.536)" fill="url(#linear-gradient-12)"/>
  <path id="Path_6958" data-name="Path 6958" d="M347.615,276.281l21.047-6.651a4.15,4.15,0,0,0,3.144.726l4.232,4.716s-.967,1.935-.242,2.9l-23.421,6.008a6.547,6.547,0,0,0-3.512-.846L345.68,278.7S348.159,278.078,347.615,276.281Z" transform="translate(-157.343 -131.4)" fill="url(#linear-gradient-13)"/>
  <path id="Path_6959" data-name="Path 6959" d="M71.025,264.545a15.11,15.11,0,0,1-2.506,5.755,8.894,8.894,0,0,0-4.249.17V250.749a41.932,41.932,0,0,1,5.947-1.649C71.179,254.151,72.075,259.664,71.025,264.545Z" transform="translate(-30.613 -122.155)" fill="url(#linear-gradient-9)"/>
  <rect id="Rectangle_2355" data-name="Rectangle 2355" width="8.586" height="22.646" rx="3.72" transform="translate(269.708 109.868) rotate(4.12)" fill="#68e1fd"/>
  <rect id="Rectangle_2356" data-name="Rectangle 2356" width="8.586" height="22.646" rx="3.72" transform="translate(269.708 109.868) rotate(4.12)" fill="url(#linear-gradient-15)"/>
  <circle id="Ellipse_222" data-name="Ellipse 222" cx="7.074" cy="7.074" r="7.074" transform="translate(265.74 114.528)" fill="#68e1fd"/>
  <circle id="Ellipse_223" data-name="Ellipse 223" cx="7.074" cy="7.074" r="7.074" transform="translate(265.74 114.528)" fill="url(#linear-gradient-16)"/>
  <circle id="Ellipse_224" data-name="Ellipse 224" cx="6.063" cy="6.063" r="6.063" transform="translate(266.702 115.584)" fill="#68e1fd"/>
  <circle id="Ellipse_225" data-name="Ellipse 225" cx="6.063" cy="6.063" r="6.063" transform="translate(266.702 115.584)" fill="rgba(198,227,245,0.38)"/>
</svg>
