<svg id="location_1_" data-name="location (1)" xmlns="http://www.w3.org/2000/svg" width="16.449" height="19.009" viewBox="0 0 16.449 19.009">
  <path id="Path_6381" data-name="Path 6381" d="M20.07,17.05l-.67-2A3,3,0,0,0,16.56,13H7.44A3,3,0,0,0,4.6,15.05l-.67,2A3,3,0,0,0,6.77,21H17.23a3,3,0,0,0,2.84-3.95Z" transform="translate(-3.776 -1.991)" fill="#dadde2"/>
  <path id="Path_6382" data-name="Path 6382" d="M17.28,4.41A6.28,6.28,0,0,0,12,2,6.28,6.28,0,0,0,6.72,4.41a5.41,5.41,0,0,0-.67,4.91c1.06,3.18,5.07,7.22,5.24,7.39a1,1,0,0,0,1.4.01c.17-.16,4.12-4,5.26-7.4a5.41,5.41,0,0,0-.67-4.91Z" transform="translate(-3.776 -1.991)" fill="#55abff"/>
  <path id="Path_6383" data-name="Path 6383" d="M12,10a2,2,0,1,1,2-2A2,2,0,0,1,12,10ZM12,8Z" transform="translate(-3.776 -1.991)" fill="#0078ee"/>
</svg>
