<svg width="246" height="200" viewBox="0 0 246 200" fill="none" xmlns="http://www.w3.org/2000/svg">
<path d="M105.738 120.492C105.738 149.011 82.0675 172.131 52.8689 172.131C23.6702 172.131 0 149.011 0 120.492C0 91.9721 23.6702 68.8524 52.8689 68.8524C82.0675 68.8524 105.738 91.9721 105.738 120.492Z" fill="#5BC4F0" fill-opacity="0.1"/>
<path d="M223.77 110.192C226.663 111.557 228.651 113.652 230.008 116.279C231.365 113.652 233.362 111.549 236.255 110.184C233.362 108.82 231.365 106.725 230.008 104.098C228.651 106.725 226.663 108.828 223.77 110.192Z" fill="#FFD325"/>
<path d="M176.23 75.5703C178.641 76.7076 180.298 78.4534 181.429 80.6422C182.56 78.4534 184.224 76.701 186.635 75.5636C184.224 74.4262 182.56 72.6805 181.429 70.4917C180.298 72.6805 178.641 74.4329 176.23 75.5703Z" fill="#AF8E2F"/>
<path d="M94.2617 3.28082C95.9711 4.01559 97.146 5.14338 97.9477 6.55738C98.7495 5.14338 99.9294 4.01131 101.639 3.27654C99.9294 2.54178 98.7495 1.414 97.9477 0C97.146 1.414 95.9711 2.54605 94.2617 3.28082Z" fill="#FFD325"/>
<path d="M7.37695 63.0438C11.2343 64.8636 13.8855 67.6568 15.6947 71.1589C17.5039 67.6568 20.1664 64.853 24.0238 63.0332C20.1664 61.2134 17.5039 58.4202 15.6947 54.9181C13.8855 58.4202 11.2343 61.224 7.37695 63.0438Z" fill="#FFD325"/>
<path d="M215.574 18.8167C217.503 19.7267 218.828 21.1233 219.733 22.8743C220.638 21.1233 221.969 19.7214 223.898 18.8115C221.969 17.9015 220.638 16.505 219.733 14.7539C218.828 16.505 217.503 17.9068 215.574 18.8167Z" fill="#AF8E2F"/>
<path d="M126.229 200C191.87 200 245.082 196.147 245.082 191.393C245.082 186.64 191.87 182.787 126.229 182.787C60.589 182.787 7.37695 186.64 7.37695 191.393C7.37695 196.147 60.589 200 126.229 200Z" fill="#5BC4F0" fill-opacity="0.2"/>
<path d="M215.327 113.455H130.796C128.725 113.455 127.047 115.132 127.047 117.201V174.709C127.047 176.778 128.725 178.456 130.796 178.456H215.327C217.398 178.456 219.076 176.778 219.076 174.709V117.201C219.076 115.132 217.398 113.455 215.327 113.455Z" fill="#1D478E"/>
<path d="M216.281 120.203V171.713C216.281 173.892 214.514 175.662 212.329 175.662H206.366V119.595H132.121C131.199 119.595 130.453 118.85 130.453 117.928C130.453 117.007 131.199 116.261 132.121 116.261H212.329C214.51 116.261 216.281 118.028 216.281 120.211V120.203Z" fill="#161742"/>
<path d="M155.224 92.6282C145.546 92.3644 137.489 99.9911 137.221 109.667C136.958 119.339 144.589 127.394 154.272 127.658C163.95 127.921 172.01 120.295 172.274 110.619C172.538 100.947 164.906 92.8958 155.224 92.6282ZM168.854 110.523C168.751 114.289 167.186 117.787 164.447 120.379C161.712 122.971 158.131 124.343 154.363 124.24C146.586 124.026 140.431 117.534 140.641 109.759C140.745 105.993 142.306 102.495 145.045 99.9032C147.684 97.403 151.112 96.0382 154.738 96.0382C154.872 96.0382 154.998 96.0383 155.132 96.0459C162.783 96.2523 168.858 102.541 168.858 110.137C168.858 110.267 168.858 110.393 168.858 110.523H168.854Z" fill="#FFD325"/>
<path d="M165.666 101.21C165.746 101.309 165.83 101.409 165.907 101.512C168.21 104.49 169.216 108.191 168.738 111.929C168.26 115.664 166.358 118.99 163.375 121.296C157.219 126.051 148.34 124.916 143.582 118.761C141.279 115.783 140.269 112.086 140.747 108.347C141.21 104.742 143 101.516 145.804 99.2259C145.907 99.1418 146.007 99.0653 146.114 98.9812C152.17 94.302 160.854 95.3265 165.67 101.21H165.666Z" fill="#AF8E2F"/>
<path d="M159.928 107.95C159.863 107.884 159.784 107.847 159.681 107.843L157.817 107.783C157.713 107.178 157.499 106.646 157.168 106.193L159.71 106.276C159.813 106.276 159.896 106.249 159.965 106.187C160.033 106.121 160.068 106.042 160.071 105.939L160.108 104.829C160.111 104.726 160.08 104.644 160.018 104.575C159.953 104.506 159.87 104.472 159.77 104.469L150.697 104.175C150.597 104.172 150.511 104.199 150.443 104.265C150.377 104.326 150.34 104.409 150.336 104.512L150.29 105.962C150.286 106.055 150.317 106.141 150.386 106.21C150.452 106.282 150.534 106.319 150.627 106.319L152.209 106.369C153.743 106.419 154.703 106.862 155.093 107.697L150.587 107.55C150.487 107.55 150.401 107.577 150.333 107.639C150.264 107.701 150.229 107.784 150.226 107.887L150.189 108.997C150.189 109.1 150.217 109.182 150.279 109.251C150.341 109.32 150.424 109.354 150.527 109.357L155.184 109.511C155.002 110.102 154.614 110.542 154.019 110.835C153.424 111.128 152.647 111.259 151.688 111.226L150.467 111.186C150.37 111.186 150.288 111.217 150.216 111.282C150.144 111.351 150.106 111.43 150.102 111.523L150.056 112.908C150.052 113.004 150.083 113.083 150.145 113.152C151.495 114.679 153.234 116.812 155.372 119.552C155.434 119.641 155.524 119.686 155.641 119.693L157.766 119.763C157.918 119.769 158.028 119.708 158.089 119.577C158.165 119.446 158.158 119.323 158.058 119.202C156.023 116.531 154.415 114.532 153.244 113.197C154.486 113.092 155.5 112.724 156.294 112.097C157.088 111.468 157.582 110.636 157.784 109.594L159.617 109.654C159.717 109.654 159.803 109.627 159.868 109.565C159.937 109.503 159.971 109.42 159.975 109.317L160.011 108.207C160.011 108.104 159.984 108.022 159.922 107.953L159.928 107.95Z" fill="#DCB414"/>
<path d="M202.551 113.574C202.631 113.674 202.715 113.773 202.792 113.876C205.095 116.854 206.101 120.555 205.623 124.294C205.144 128.029 203.243 131.355 200.259 133.66C194.104 138.416 185.225 137.28 180.466 131.125C178.163 128.147 177.154 124.451 177.632 120.712C178.095 117.107 179.885 113.88 182.689 111.59C182.792 111.506 182.892 111.43 182.999 111.346C189.055 106.666 197.738 107.691 202.555 113.574H202.551Z" fill="#AF8E2F"/>
<path d="M196.821 117.431C196.756 117.365 196.677 117.328 196.573 117.324L194.709 117.264C194.605 116.659 194.392 116.127 194.061 115.674L196.603 115.757C196.706 115.757 196.788 115.729 196.857 115.668C196.926 115.602 196.96 115.523 196.964 115.42L197 114.31C197.004 114.207 196.973 114.124 196.911 114.056C196.845 113.987 196.763 113.953 196.663 113.95L187.59 113.656C187.49 113.653 187.404 113.68 187.335 113.746C187.27 113.807 187.232 113.89 187.229 113.993L187.182 115.443C187.179 115.536 187.21 115.622 187.279 115.691C187.344 115.763 187.427 115.8 187.52 115.8L189.102 115.85C190.636 115.9 191.596 116.343 191.985 117.177L187.48 117.031C187.38 117.031 187.294 117.058 187.225 117.12C187.156 117.182 187.122 117.265 187.119 117.368L187.082 118.478C187.082 118.581 187.11 118.663 187.172 118.732C187.234 118.801 187.316 118.835 187.419 118.838L192.076 118.992C191.895 119.583 191.506 120.023 190.912 120.316C190.317 120.609 189.54 120.74 188.58 120.707L187.359 120.667C187.263 120.667 187.18 120.698 187.108 120.763C187.036 120.832 186.998 120.911 186.995 121.004L186.948 122.389C186.945 122.485 186.976 122.564 187.038 122.632C188.388 124.16 190.126 126.293 192.265 129.033C192.327 129.122 192.416 129.167 192.533 129.174L194.659 129.244C194.81 129.25 194.92 129.188 194.982 129.058C195.058 128.927 195.051 128.803 194.951 128.683C192.915 126.012 191.307 124.013 190.137 122.678C191.378 122.573 192.392 122.205 193.186 121.578C193.98 120.949 194.475 120.117 194.677 119.075L196.51 119.135C196.609 119.135 196.695 119.108 196.761 119.046C196.829 118.984 196.864 118.901 196.867 118.798L196.904 117.688C196.904 117.585 196.876 117.503 196.814 117.434L196.821 117.431Z" fill="#DCB414"/>
<path d="M196.065 105.55C186.701 103.1 177.118 108.7 174.666 118.062C172.214 127.421 177.818 136.997 187.186 139.448C196.551 141.898 206.134 136.298 208.586 126.935C211.038 117.577 205.434 108.001 196.065 105.55ZM205.281 126.071C204.325 129.715 202.01 132.769 198.755 134.669C195.503 136.573 191.704 137.097 188.055 136.141C180.53 134.172 176.008 126.45 177.979 118.926C178.935 115.283 181.246 112.229 184.501 110.325C187.638 108.49 191.287 107.939 194.818 108.758C194.948 108.788 195.071 108.819 195.201 108.853C202.607 110.788 207.098 118.288 205.373 125.689C205.342 125.815 205.315 125.938 205.281 126.064V126.071Z" fill="#FFD325"/>
<path d="M209.443 119.66H130.681C128.674 119.66 127.047 121.286 127.047 123.291V180.207C127.047 182.213 128.674 183.839 130.681 183.839H209.443C211.451 183.839 213.078 182.213 213.078 180.207V123.291C213.078 121.286 211.451 119.66 209.443 119.66Z" fill="#1D478E"/>
<path d="M159.891 181.313H134.015C132.068 181.313 130.484 179.731 130.484 177.785V172.807H130.894V177.785C130.894 179.505 132.294 180.904 134.015 180.904H159.891V181.313Z" fill="#161742"/>
<path d="M209.638 132.57H209.228V125.708C209.228 123.988 207.828 122.589 206.107 122.589H172.32V122.18H206.107C208.054 122.18 209.638 123.762 209.638 125.708V132.57Z" fill="#161742"/>
<path d="M130.894 157.679H130.484V167.366H130.894V157.679Z" fill="#161742"/>
<path d="M218.965 138.568V156.704C218.965 158.983 217.122 160.829 214.838 160.829H199.138C194.119 160.829 190.049 156.761 190.049 151.746C190.049 149.238 191.066 146.967 192.711 145.323C194.356 143.679 196.629 142.663 199.138 142.663H214.838C214.953 142.663 215.067 142.666 215.182 142.678C217.301 142.502 218.962 140.728 218.962 138.568H218.965Z" fill="#161742"/>
<path d="M201.308 154.748C202.965 153.093 202.965 150.408 201.308 148.753C199.651 147.097 196.965 147.097 195.308 148.753C193.652 150.408 193.652 153.093 195.308 154.748C196.965 156.404 199.651 156.404 201.308 154.748Z" fill="white"/>
<path d="M134.424 84.4251C135.184 84.7927 135.704 85.3551 136.063 86.0645C136.422 85.3587 136.943 84.7927 137.703 84.4251C136.943 84.0575 136.418 83.4952 136.063 82.7858C135.704 83.4915 135.184 84.0575 134.424 84.4251Z" fill="#AF8E2F"/>
<path d="M162.82 71.0461L134.121 84.8671L162.82 90.752L162.82 71.0461Z" fill="#FFD325"/>
<path d="M57.0166 74.6799L87.2988 82.7148L57.0166 90.752L57.0166 74.6799Z" fill="#FFD325"/>
<path d="M138.319 45.9627L129.124 60.8081L156.201 45.981L138.319 45.9627Z" fill="#FFD325"/>
<path d="M93.4007 46.1561L100.461 57.5537L79.6696 46.1698L93.4007 46.1561Z" fill="#FFD325"/>
<path d="M76.1149 46.1576L86.1738 62.395L56.5537 46.1783L76.1149 46.1576Z" fill="#FFD325"/>
<path d="M124.836 46.073L122.076 53.4968L131.01 45.9811L124.836 46.073Z" fill="#FFD325"/>
<path d="M99.9879 45.9812L108.523 54.4158L106.542 45.9812L99.9879 45.9812Z" fill="#FFD325"/>
<path d="M112.183 45.9808L113.867 53.5769L119.646 45.9004L112.183 45.9808Z" fill="#FFD325"/>
<path d="M162.82 46.4753L135.672 71.0461L162.82 66.1811L162.82 46.4753Z" fill="#FFD325"/>
<path d="M56.7911 50.1094L83.9395 74.6803L56.7911 69.8153L56.7911 50.1094Z" fill="#FFD325"/>
<path d="M138.5 53.2773H83.4302C78.5004 53.2773 74.5039 57.2609 74.5039 62.1749V182.615C74.5039 187.529 78.5004 191.512 83.4302 191.512H138.5C143.429 191.512 147.426 187.529 147.426 182.615V62.1749C147.426 57.2609 143.429 53.2773 138.5 53.2773Z" fill="#1C004F"/>
<path d="M139.034 56.7002H82.9065C80.0155 56.7002 77.6719 59.0363 77.6719 61.918V182.862C77.6719 185.743 80.0155 188.079 82.9065 188.079H139.034C141.925 188.079 144.269 185.743 144.269 182.862V61.918C144.269 59.0363 141.925 56.7002 139.034 56.7002Z" fill="white"/>
<path d="M95.2028 54.9888H126.995V59.6711C126.995 62.3955 124.778 64.6107 122.04 64.6107H99.895C97.1618 64.6107 94.9395 62.4008 94.9395 59.6711V55.2512C94.9395 55.1043 95.0553 54.9888 95.2028 54.9888Z" fill="#1C004F"/>
<path d="M60.8081 148.735C60.6479 147.848 60.4054 146.97 60.1309 146.102L61.5493 153.812C61.3205 152.117 61.1146 150.417 60.8081 148.735Z" fill="#32B353"/>
<path d="M65.0294 165.435L62.9521 154.164C63.0757 155.051 63.2038 155.933 63.3319 156.806C63.1351 155.709 62.9796 154.608 62.8331 153.506L61.3781 145.613C60.8428 143.931 60.1793 142.272 59.6623 140.594C57.8137 134.621 55.8416 128.683 53.7369 122.792C52.9178 120.502 52.0484 118.162 50.4607 116.325C50.1633 118.811 50.3692 120.95 50.3829 121.892C50.4058 123.88 50.4836 125.868 50.6209 127.852C50.8314 130.955 51.2889 134.026 51.7236 137.102C52.1445 140.082 52.0485 143.172 52.3688 146.202C52.3322 146.111 52.291 146.024 52.2544 145.937L57.3745 164.279C57.9922 164.453 58.6465 164.549 59.2779 164.635C61.1951 164.9 63.1123 165.17 65.0294 165.435Z" fill="#32B353"/>
<path d="M60.4327 167.849C60.2817 167.849 60.1536 167.735 60.1399 167.584C59.4215 159.827 57.6553 152.09 55.9486 144.603C54.3106 137.418 52.613 129.991 51.8398 122.541C51.8214 122.381 51.9404 122.235 52.1006 122.221C52.2607 122.203 52.4071 122.322 52.4209 122.481C53.1896 129.895 54.8825 137.308 56.516 144.475C58.2273 151.98 59.998 159.741 60.721 167.533C60.7347 167.693 60.6158 167.835 60.4556 167.853C60.4465 167.853 60.4373 167.853 60.4282 167.853L60.4327 167.849Z" fill="#161742"/>
<path d="M44.2617 136.042C47.2496 141.645 49.7387 147.514 51.6971 153.556C52.2141 155.147 52.6854 156.755 53.2802 158.319C53.779 159.644 55.2477 161.586 55.2065 162.898C55.3118 162.98 55.4307 163.063 55.5497 163.145C55.6641 163.223 55.7739 163.305 55.8792 163.392C56.3962 163.831 57.0139 164.1 57.6682 164.283L52.5481 145.941C50.8597 141.915 47.9359 138.414 44.2663 136.046L44.2617 136.042Z" fill="#32B353"/>
<path d="M54.7093 159.187C54.5903 159.187 54.4759 159.114 54.4347 158.991L48.9761 143.647C48.9211 143.496 49.0035 143.327 49.1545 143.272C49.3055 143.218 49.4748 143.3 49.5297 143.451L54.9884 158.794C55.0433 158.945 54.9609 159.114 54.8099 159.169C54.7779 159.183 54.7459 159.187 54.7139 159.187H54.7093Z" fill="#161742"/>
<path d="M74.7949 158.396L75.8153 152.55C75.3577 154.479 75.0191 156.431 74.7949 158.396Z" fill="#32B353"/>
<path d="M75.1208 100.171C69.5294 116.772 67.0128 134.4 67.7357 151.901C67.6763 151.261 67.6122 150.616 67.5527 149.977L68.5639 166.124C69.4196 166.243 70.2752 166.362 71.1263 166.481C71.8858 166.586 72.6774 166.682 73.469 166.732L74.8645 158.725C75.4822 149.094 77.1066 139.547 77.8432 129.916C78.6074 119.921 78.3694 109.66 75.1208 100.171Z" fill="#32B353"/>
<path d="M68.8603 175.609C68.8282 175.609 68.8008 175.604 68.7687 175.595C68.6132 175.545 68.5308 175.381 68.5812 175.225C70.5578 169.087 70.9467 162.537 71.3219 156.207L74.0307 110.556C74.0398 110.396 74.1817 110.268 74.3418 110.282C74.502 110.291 74.6255 110.428 74.6164 110.593L71.9076 156.244C71.5278 162.61 71.1389 169.197 69.1394 175.408C69.0982 175.531 68.9838 175.609 68.8603 175.609Z" fill="#161742"/>
<path d="M68.1646 149.977C66.371 131.311 64.2067 112.435 57.1557 95.0804C55.7648 99.6236 56.2132 104.5 56.7073 109.226C58.2219 123.756 60.0567 139.552 62.1294 154.164L64.2067 165.435C65.8631 165.664 67.5195 165.897 69.1804 166.125L68.1692 149.977H68.1646Z" fill="#32B353"/>
<path d="M70.6934 181.925C70.6064 181.925 70.5241 181.889 70.4646 181.82C68.4468 179.366 67.9663 175.965 67.5774 173.237L57.9366 105.433C57.9137 105.273 58.0235 105.126 58.1837 105.104C58.3438 105.081 58.4903 105.19 58.5131 105.35L68.1539 173.155C68.5337 175.815 69.0004 179.124 70.9176 181.45C71.0182 181.574 70.9999 181.761 70.8764 181.861C70.8215 181.907 70.7574 181.93 70.6888 181.93L70.6934 181.925Z" fill="#161742"/>
<path d="M79.9299 154.132C80.0214 153.748 80.1084 153.364 80.1999 152.98L75.4824 166.377C76.1139 166.167 76.7087 165.865 77.244 165.426C78.1912 164.649 78.8135 163.552 79.4037 162.478C83.0093 155.929 86.3815 149.251 89.5204 142.468C90.6551 140.009 91.7807 137.459 91.886 134.758C86.5142 140.21 82.3916 146.892 79.9345 154.141L79.9299 154.132Z" fill="#32B353"/>
<path d="M77.2062 167.277C77.1742 167.277 77.1376 167.273 77.1055 167.259C76.9545 167.204 76.8768 167.035 76.9317 166.884C80.2261 157.885 84.0467 148.958 88.2746 140.357C88.3478 140.21 88.5216 140.151 88.6681 140.224C88.8145 140.297 88.874 140.471 88.8008 140.617C84.5775 149.201 80.7706 158.109 77.4807 167.09C77.4396 167.209 77.3252 167.282 77.2062 167.282V167.277Z" fill="#161742"/>
<path d="M85.2502 133.638C82.6695 134.772 80.972 137.267 79.6313 139.745C77.5082 143.666 75.9114 147.871 74.8819 152.209L73.8386 158.196C73.7791 158.74 73.7197 159.288 73.6785 159.837C73.7014 159.467 73.7242 159.096 73.7471 158.722L72.3516 166.729C73.6282 166.807 74.9002 166.747 76.0441 166.368L80.7615 152.972C82.2577 146.527 83.7585 140.078 85.2548 133.634L85.2502 133.638Z" fill="#32B353"/>
<path d="M75.4413 164.782C75.4413 164.782 75.4139 164.782 75.4001 164.782C75.24 164.759 75.1302 164.613 75.1485 164.453C76.3656 155.618 78.7174 146.961 82.1354 138.725C82.1995 138.574 82.3688 138.506 82.5198 138.565C82.6707 138.629 82.7394 138.798 82.6799 138.949C79.2802 147.139 76.9421 155.75 75.7296 164.535C75.7113 164.681 75.5832 164.786 75.4413 164.786V164.782Z" fill="#161742"/>
<path d="M84.6231 159.37L83.6714 173.53L83.5067 175.943L82.7334 187.452H51.2487L50.631 175.326L50.5304 173.338L49.7754 158.579L84.6231 159.37Z" fill="#1D478E"/>
<g style="mix-blend-mode:multiply">
<path d="M84.6192 159.37L84.4271 162.24L52.1508 161.5L51.1442 185.537L49.7715 158.579L84.6192 159.37Z" fill="#1D478E"/>
</g>
<path d="M96.162 191.546C96.162 192.712 87.6021 193.66 77.0498 193.66C66.4974 193.66 57.9375 192.712 57.9375 191.546C57.9375 191.525 57.9417 191.504 57.9459 191.483V185.775H96.1494V191.471C96.1578 191.496 96.162 191.521 96.162 191.546Z" fill="#AF8E2F"/>
<path d="M77.0458 187.939C87.6013 187.939 96.1581 186.993 96.1581 185.826C96.1581 184.659 87.6013 183.713 77.0458 183.713C66.4904 183.713 57.9336 184.659 57.9336 185.826C57.9336 186.993 66.4904 187.939 77.0458 187.939Z" fill="#FFD325"/>
<path d="M100.676 184.656C100.676 185.822 92.1158 186.769 81.5634 186.769C71.011 186.769 62.4512 185.822 62.4512 184.656C62.4512 184.635 62.4554 184.614 62.4596 184.593V178.884H100.663V184.58C100.671 184.605 100.676 184.631 100.676 184.656Z" fill="#AF8E2F"/>
<path d="M81.5595 181.052C92.1149 181.052 100.672 180.106 100.672 178.939C100.672 177.772 92.1149 176.826 81.5595 176.826C71.0041 176.826 62.4473 177.772 62.4473 178.939C62.4473 180.106 71.0041 181.052 81.5595 181.052Z" fill="#FFD325"/>
<path d="M51.3397 191.546C51.3397 192.712 42.7799 193.659 32.2275 193.659C21.6751 193.659 13.1152 192.712 13.1152 191.546C13.1152 191.525 13.1194 191.504 13.1236 191.483V185.775H51.3271V191.47C51.3355 191.496 51.3397 191.521 51.3397 191.546Z" fill="#AF8E2F"/>
<path d="M32.2236 187.939C42.779 187.939 51.3358 186.993 51.3358 185.826C51.3358 184.659 42.779 183.713 32.2236 183.713C21.6682 183.713 13.1113 184.659 13.1113 185.826C13.1113 186.993 21.6682 187.939 32.2236 187.939Z" fill="#FFD325"/>
<path d="M55.8554 184.656C55.8554 185.822 47.2955 186.769 36.7431 186.769C26.1907 186.769 17.6309 185.822 17.6309 184.656C17.6309 184.635 17.6351 184.614 17.6393 184.593V178.884H55.8427V184.58C55.8512 184.605 55.8554 184.63 55.8554 184.656Z" fill="#AF8E2F"/>
<path d="M36.7392 181.052C47.2946 181.052 55.8515 180.106 55.8515 178.939C55.8515 177.772 47.2946 176.826 36.7392 176.826C26.1838 176.826 17.627 177.772 17.627 178.939C17.627 180.106 26.1838 181.052 36.7392 181.052Z" fill="#FFD325"/>
<path d="M97.0819 176.876C97.0819 178.042 88.5221 178.989 77.9697 178.989C67.4173 178.989 58.8574 178.042 58.8574 176.876C58.8574 176.854 58.8616 176.833 58.8659 176.812V171.104H97.0693V176.8C97.0777 176.825 97.0819 176.85 97.0819 176.876Z" fill="#AF8E2F"/>
<path d="M77.9697 173.269C88.5251 173.269 97.0819 172.322 97.0819 171.155C97.0819 169.988 88.5251 169.042 77.9697 169.042C67.4143 169.042 58.8574 169.988 58.8574 171.155C58.8574 172.322 67.4143 173.269 77.9697 173.269Z" fill="#FFD325"/>
<path d="M101.596 169.99C101.596 171.156 93.0357 172.103 82.4833 172.103C71.931 172.103 63.3711 171.156 63.3711 169.99C63.3711 169.969 63.3753 169.948 63.3795 169.927V164.219H101.583V169.914C101.591 169.94 101.596 169.965 101.596 169.99Z" fill="#AF8E2F"/>
<path d="M82.4833 166.381C93.0388 166.381 101.596 165.435 101.596 164.268C101.596 163.101 93.0388 162.155 82.4833 162.155C71.9279 162.155 63.3711 163.101 63.3711 164.268C63.3711 165.435 71.9279 166.381 82.4833 166.381Z" fill="#FFD325"/>
<path d="M97.0819 163.098C97.0819 164.264 88.5221 165.211 77.9697 165.211C67.4173 165.211 58.8574 164.264 58.8574 163.098C58.8574 163.077 58.8616 163.056 58.8659 163.035V157.326H97.0693V163.022C97.0777 163.047 97.0819 163.073 97.0819 163.098Z" fill="#AF8E2F"/>
<path d="M77.9697 159.494C88.5251 159.494 97.0819 158.548 97.0819 157.381C97.0819 156.214 88.5251 155.268 77.9697 155.268C67.4143 155.268 58.8574 156.214 58.8574 157.381C58.8574 158.548 67.4143 159.494 77.9697 159.494Z" fill="#FFD325"/>
<rect x="108.193" y="95.0811" width="4.91803" height="40.9836" rx="2.45902" fill="#161742"/>
<mask id="mask0_272_261" style="mask-type:alpha" maskUnits="userSpaceOnUse" x="86" y="96" width="25" height="40">
<rect x="86.5449" y="96.6147" width="24.0757" height="38.5212" fill="#D9D9D9"/>
</mask>
<g mask="url(#mask0_272_261)">
<path d="M105.176 99.5687C96.1731 101.911 90.7689 111.109 93.1107 120.115C95.4525 129.119 104.651 134.526 113.657 132.181C122.661 129.839 128.068 120.641 125.723 111.634C123.381 102.631 114.183 97.2269 105.176 99.5687ZM122.543 112.461C123.455 115.965 122.944 119.619 121.109 122.74C119.275 125.865 116.337 128.086 112.83 128.997C105.595 130.876 98.1766 126.523 96.2944 119.285C95.3827 115.781 95.89 112.131 97.7244 109.006C99.4927 105.991 102.294 103.815 105.639 102.848C105.761 102.811 105.882 102.782 106.003 102.749C113.121 100.896 120.411 105.083 122.44 112.101C122.473 112.219 122.51 112.34 122.539 112.458L122.543 112.461Z" fill="#FFD325"/>
<path d="M122.441 112.106C122.475 112.223 122.511 112.345 122.541 112.462C123.452 115.966 122.941 119.62 121.107 122.741C119.272 125.866 116.335 128.086 112.828 128.998C105.593 130.877 98.1743 126.524 96.292 119.285C95.3803 115.782 95.8876 112.131 97.7221 109.006C99.4904 105.992 102.292 103.816 105.637 102.849C105.758 102.812 105.88 102.783 106.001 102.749C113.118 100.897 120.408 105.084 122.438 112.102L122.441 112.106Z" fill="#AF8E2F"/>
<path d="M113.678 113.681C113.615 113.618 113.539 113.582 113.44 113.579L111.648 113.521C111.549 112.939 111.343 112.427 111.025 111.991L113.468 112.072C113.567 112.072 113.647 112.045 113.713 111.985C113.779 111.923 113.812 111.847 113.815 111.747L113.85 110.68C113.853 110.581 113.824 110.502 113.764 110.436C113.701 110.369 113.622 110.337 113.526 110.333L104.807 110.051C104.711 110.048 104.628 110.074 104.562 110.137C104.499 110.197 104.463 110.276 104.46 110.375L104.415 111.77C104.412 111.859 104.442 111.942 104.508 112.008C104.571 112.077 104.65 112.113 104.739 112.113L106.26 112.161C107.734 112.209 108.656 112.635 109.031 113.437L104.701 113.296C104.605 113.296 104.522 113.323 104.456 113.382C104.39 113.442 104.357 113.521 104.354 113.62L104.319 114.688C104.319 114.787 104.345 114.866 104.405 114.932C104.464 114.998 104.544 115.031 104.643 115.035L109.118 115.182C108.944 115.751 108.57 116.174 107.999 116.456C107.427 116.737 106.681 116.863 105.758 116.831L104.585 116.793C104.492 116.793 104.413 116.823 104.344 116.885C104.275 116.952 104.238 117.028 104.235 117.117L104.19 118.449C104.187 118.541 104.217 118.617 104.276 118.683C105.573 120.153 107.244 122.203 109.299 124.838C109.359 124.924 109.445 124.967 109.557 124.973L111.6 125.041C111.745 125.047 111.851 124.988 111.911 124.862C111.983 124.736 111.976 124.618 111.88 124.502C109.925 121.933 108.379 120.011 107.254 118.727C108.447 118.626 109.422 118.272 110.185 117.67C110.948 117.064 111.423 116.264 111.617 115.262L113.379 115.32C113.475 115.32 113.557 115.294 113.62 115.234C113.686 115.174 113.719 115.095 113.722 114.996L113.757 113.929C113.757 113.829 113.731 113.75 113.671 113.684L113.678 113.681Z" fill="#DCB414"/>
</g>
<ellipse opacity="0.4" cx="36.0639" cy="179.098" rx="10.6557" ry="1.22951" fill="#AF8E2F"/>
<path d="M31.0513 144.13C21.6828 146.565 16.0593 156.13 18.4962 165.496C20.933 174.859 30.5043 180.482 39.8767 178.043C49.2452 175.608 54.8725 166.043 52.4318 156.677C49.995 147.315 40.4237 141.695 31.0513 144.13ZM49.1228 157.537C50.0715 161.18 49.5398 164.98 47.6309 168.226C45.722 171.475 42.6654 173.784 39.0159 174.732C31.4874 176.686 23.7676 172.16 21.809 164.632C20.8603 160.989 21.3882 157.193 23.2971 153.943C25.1372 150.809 28.0522 148.546 31.5333 147.54C31.6596 147.502 31.7858 147.471 31.912 147.437C39.3181 145.51 46.904 149.864 49.0157 157.162C49.0501 157.285 49.0884 157.411 49.119 157.533L49.1228 157.537Z" fill="#FFD325"/>
<path d="M49.0185 157.167C49.053 157.289 49.0912 157.415 49.1218 157.538C50.0705 161.181 49.5388 164.981 47.6299 168.227C45.721 171.476 42.6644 173.785 39.015 174.733C31.4864 176.687 23.7667 172.16 21.808 164.633C20.8593 160.99 21.3872 157.194 23.2961 153.944C25.1362 150.809 28.0512 148.546 31.5324 147.541C31.6586 147.503 31.7848 147.472 31.9111 147.438C39.3172 145.511 46.9031 149.865 49.0147 157.163L49.0185 157.167Z" fill="#AF8E2F"/>
<path d="M22.9473 151.231C24.2768 151.874 25.1906 152.86 25.8142 154.098C26.4377 152.86 27.3555 151.87 28.685 151.227C27.3555 150.584 26.4377 149.597 25.8142 148.36C25.1906 149.597 24.2768 150.588 22.9473 151.231Z" fill="#FFF3EB"/>
<path d="M39.8992 158.806C39.8338 158.74 39.7546 158.703 39.6515 158.699L37.7873 158.639C37.6835 158.034 37.4698 157.502 37.1392 157.049L39.6809 157.132C39.7841 157.132 39.8666 157.104 39.9353 157.043C40.004 156.977 40.0383 156.898 40.0417 156.795L40.0785 155.685C40.0818 155.582 40.0508 155.499 39.9888 155.431C39.9234 155.362 39.8408 155.328 39.741 155.325L30.6679 155.031C30.5681 155.028 30.4822 155.055 30.4134 155.121C30.3482 155.182 30.3104 155.265 30.3071 155.368L30.2603 156.818C30.257 156.911 30.288 156.997 30.3569 157.066C30.4223 157.138 30.5049 157.175 30.5977 157.175L32.1798 157.225C33.7138 157.275 34.6738 157.718 35.0633 158.552L30.5576 158.406C30.4579 158.406 30.3719 158.433 30.3032 158.495C30.2345 158.557 30.2002 158.64 30.1968 158.743L30.1601 159.853C30.1602 159.956 30.1878 160.038 30.2497 160.107C30.3117 160.176 30.3943 160.21 30.4975 160.213L35.1544 160.367C34.9727 160.958 34.5845 161.398 33.9898 161.691C33.3951 161.984 32.6179 162.115 31.6583 162.082L30.4373 162.042C30.341 162.042 30.2585 162.073 30.1864 162.138C30.1142 162.207 30.0764 162.286 30.0731 162.379L30.0263 163.764C30.0229 163.86 30.054 163.939 30.1159 164.007C31.4656 165.535 33.2046 167.668 35.343 170.408C35.405 170.497 35.4945 170.542 35.6114 170.549L37.737 170.619C37.8883 170.625 37.9983 170.563 38.0601 170.433C38.1356 170.302 38.1286 170.178 38.0288 170.058C35.9936 167.387 34.3855 165.388 33.2148 164.053C34.4563 163.948 35.4705 163.58 36.2644 162.953C37.0583 162.324 37.5527 161.492 37.7546 160.45L39.5879 160.51C39.6876 160.51 39.7736 160.483 39.8388 160.421C39.9076 160.359 39.9419 160.276 39.9452 160.173L39.982 159.063C39.9819 158.96 39.9543 158.878 39.8923 158.809L39.8992 158.806Z" fill="#DCB414"/>
</svg>
