<svg xmlns="http://www.w3.org/2000/svg" width="361.999" height="317.129" viewBox="0 0 361.999 317.129">
  <g id="Pattern" transform="translate(1 -30.449)">
    <g id="Group_3" data-name="Group 3" transform="translate(319.097 -30.528)" opacity="0.294">
      <path id="Subtraction_6" data-name="Subtraction 6" d="M-9147.694,272.979h0v0a173.676,173.676,0,0,1-17.981-26.189,173.125,173.125,0,0,1-10.248-21.656,182.672,182.672,0,0,1-7.318-23.261,202.817,202.817,0,0,1-4.39-24.867,234.792,234.792,0,0,1-1.463-26.474,228.323,228.323,0,0,1,1.5-26.468,197.839,197.839,0,0,1,4.512-24.866,179.226,179.226,0,0,1,7.52-23.264,171.267,171.267,0,0,1,10.527-21.662,176.482,176.482,0,0,1,17.34-24.913Z" transform="translate(9189.097 33)" fill="#161b4a" stroke="rgba(0,0,0,0)" stroke-width="1"/>
    </g>
    <g id="Group_4" data-name="Group 4" transform="translate(-372.965 17.72)" opacity="0.294">
      <path id="Subtraction_5" data-name="Subtraction 5" d="M-8104.535,235.391V-11.449c3.672,5.157,7.175,10.618,10.414,16.232a192.145,192.145,0,0,1,11.8,24.27,200.877,200.877,0,0,1,8.428,26.065,221.7,221.7,0,0,1,5.059,27.861,255.689,255.689,0,0,1,1.687,29.657,249.361,249.361,0,0,1-1.731,29.663,216.548,216.548,0,0,1-5.191,27.863,197.089,197.089,0,0,1-8.65,26.064,189.906,189.906,0,0,1-12.107,24.266c-3.04,5.131-6.3,10.143-9.7,14.9Z" transform="translate(8477 93)" fill="#161742" stroke="rgba(0,0,0,0)" stroke-width="1"/>
    </g>
  </g>
</svg>
