<svg xmlns="http://www.w3.org/2000/svg" width="63.999" height="57.599" viewBox="0 0 63.999 57.599">
  <g id="world-wide-web" transform="translate(61.14 57.085)">
    <circle id="Ellipse_236" data-name="Ellipse 236" cx="28.769" cy="28.769" r="28.769" transform="translate(-57.939 -57.085)" fill="#80d6fb"/>
    <path id="Path_7425" data-name="Path 7425" d="M112.712,69.177H99.753c2.89-5.538,4.675-11.467,4.675-16.429s-1.785-10.891-4.675-16.429h12.959q-.667-.959-1.408-1.86H98.732a44.585,44.585,0,0,0-8.189-10.45q-.714-.035-1.436-.036t-1.436.036a44.585,44.585,0,0,0-8.189,10.45H66.912q-.741.9-1.408,1.86H78.463c-2.89,5.538-4.674,11.467-4.674,16.429s1.785,10.891,4.674,16.429H65.5q.667.959,1.408,1.86H79.484a44.586,44.586,0,0,0,8.189,10.45q.713.035,1.436.036t1.436-.036a44.585,44.585,0,0,0,8.189-10.45H111.3Q112.045,70.138,112.712,69.177Zm-23.6-43.964a41.691,41.691,0,0,1,7.47,9.246H81.638A41.685,41.685,0,0,1,89.108,25.213Zm0,55.071a41.688,41.688,0,0,1-7.47-9.246H96.578A41.692,41.692,0,0,1,89.108,80.283ZM98.53,67.49q-.425.854-.881,1.687H80.567q-.455-.833-.881-1.687c-2.6-5.24-4.039-10.475-4.039-14.742s1.434-9.5,4.039-14.742q.425-.854.881-1.687H97.649q.455.833.881,1.687c2.6,5.24,4.039,10.475,4.039,14.742S101.135,62.25,98.53,67.49Z" transform="translate(-118.383 -81.009)" fill="#707070"/>
    <path id="Path_7426" data-name="Path 7426" d="M60.341,192.729H3.658A3.679,3.679,0,0,0,0,196.429v8.6a3.679,3.679,0,0,0,3.658,3.7H60.341a3.679,3.679,0,0,0,3.658-3.7v-8.6A3.679,3.679,0,0,0,60.341,192.729Z" transform="translate(-61.14 -229.044)" fill="#ffda86"/>
    <g id="Group_6135" data-name="Group 6135" transform="translate(-49.983 -33.221)">
      <path id="Path_7428" data-name="Path 7428" d="M214.78,228.39a.935.935,0,0,1-.878-.615l-1.777-4.882-1.777,4.882a.935.935,0,0,1-1.756,0l-2.655-7.295a.935.935,0,0,1,1.756-.639l1.777,4.882,1.777-4.882a.935.935,0,0,1,1.756,0l1.777,4.882,1.777-4.882a.935.935,0,1,1,1.756.639l-2.655,7.295a.934.934,0,0,1-.878.615Z" transform="translate(-191.599 -219.226)" fill="#707070"/>
      <path id="Path_7429" data-name="Path 7429" d="M100.173,228.389a.935.935,0,0,1-.878-.615l-1.777-4.882-1.777,4.882a.935.935,0,0,1-1.756,0l-2.655-7.295a.935.935,0,0,1,1.756-.639l1.777,4.882,1.777-4.882a.935.935,0,0,1,1.756,0l1.777,4.882,1.777-4.882a.935.935,0,0,1,1.756.639l-2.655,7.295a.935.935,0,0,1-.878.615Z" transform="translate(-91.273 -219.225)" fill="#707070"/>
      <path id="Path_7430" data-name="Path 7430" d="M329.387,228.389a.934.934,0,0,1-.878-.615l-1.777-4.882-1.777,4.882a.935.935,0,0,1-1.756,0l-2.655-7.295a.934.934,0,1,1,1.756-.639l1.777,4.882,1.777-4.882a.935.935,0,0,1,1.756,0l1.777,4.882,1.777-4.882a.934.934,0,1,1,1.756.639l-2.655,7.295A.934.934,0,0,1,329.387,228.389Z" transform="translate(-291.926 -219.225)" fill="#707070"/>
    </g>
  </g>
</svg>
