<svg width="24" height="24" viewBox="0 0 24 24" fill="none" xmlns="http://www.w3.org/2000/svg">
<mask id="mask0_3632_7710" style="mask-type:alpha" maskUnits="userSpaceOnUse" x="0" y="0" width="24" height="24">
<rect width="24" height="24" fill="#D9D9D9"/>
</mask>
<g mask="url(#mask0_3632_7710)">
<path d="M12 6.6385C12.5795 5.7795 13.2545 5.125 14.025 4.675C14.7955 4.225 15.6205 4 16.5 4C17.7487 4 18.8022 4.41858 19.6605 5.25575C20.5188 6.09292 20.9634 7.13583 20.9943 8.3845C20.9943 8.47433 20.991 8.55767 20.9845 8.6345C20.9782 8.7115 20.9686 8.79483 20.9557 8.8845C20.9596 9.02683 20.9138 9.14575 20.8183 9.24125C20.7227 9.33675 20.6038 9.3865 20.4615 9.3905C20.3192 9.39433 20.2003 9.3485 20.1047 9.253C20.0092 9.15733 19.9596 9.03842 19.9557 8.89625C19.9686 8.80642 19.9782 8.72308 19.9845 8.64625C19.991 8.56925 19.9943 8.48592 19.9943 8.39625C19.9711 7.41925 19.6259 6.609 18.9587 5.9655C18.2914 5.32183 17.4718 5 16.5 5C15.7692 5 15.0919 5.18908 14.4682 5.56725C13.8446 5.94542 13.2699 6.523 12.7443 7.3C12.6456 7.43083 12.5286 7.53208 12.3933 7.60375C12.2581 7.67558 12.1187 7.7115 11.975 7.7115C11.8313 7.7115 11.6961 7.67558 11.5693 7.60375C11.4423 7.53208 11.3313 7.43083 11.2365 7.3C10.7108 6.523 10.1393 5.94542 9.522 5.56725C8.90483 5.18908 8.23083 5 7.5 5C6.52817 5 5.70858 5.32183 5.04125 5.9655C4.37408 6.609 4.02892 7.41925 4.00575 8.39625C4.00575 8.48592 4.009 8.56925 4.0155 8.64625C4.02183 8.72308 4.03142 8.80642 4.04425 8.89625C4.04042 9.03842 3.99075 9.15733 3.89525 9.253C3.79975 9.3485 3.68083 9.39433 3.5385 9.3905C3.39617 9.3865 3.27725 9.33675 3.18175 9.24125C3.08625 9.14575 3.04042 9.02683 3.04425 8.8845C3.03142 8.79483 3.02183 8.7115 3.0155 8.6345C3.009 8.55767 3.00575 8.47433 3.00575 8.3845C3.03658 7.13583 3.48117 6.09292 4.3395 5.25575C5.19783 4.41858 6.25133 4 7.5 4C8.3795 4 9.2045 4.225 9.975 4.675C10.7455 5.125 11.4205 5.7795 12 6.6385ZM12 19.5405C11.818 19.5405 11.6456 19.502 11.4827 19.425C11.3199 19.348 11.1661 19.2435 11.0213 19.1115C10.6508 18.7858 10.094 18.2618 9.351 17.5395C8.608 16.817 7.97625 16.2102 7.45575 15.7192C7.33775 15.6012 7.28483 15.4804 7.297 15.3567C7.30933 15.2331 7.36225 15.1244 7.45575 15.0308C7.54942 14.9373 7.65808 14.8843 7.78175 14.872C7.90542 14.8598 8.02625 14.9108 8.14425 15.025C8.65708 15.534 9.23175 16.0869 9.86825 16.6838C10.5048 17.2804 11.2153 17.9358 12 18.65C12.7847 17.9358 13.4953 17.2836 14.1318 16.6933C14.7683 16.1029 15.3429 15.5468 15.8558 15.025C15.9738 14.907 16.0946 14.856 16.2182 14.872C16.3419 14.8882 16.4506 14.943 16.5443 15.0365C16.6378 15.1302 16.6897 15.243 16.7 15.375C16.7103 15.507 16.6565 15.632 16.5385 15.75C16.018 16.2372 15.3831 16.8378 14.6337 17.552C13.8842 18.266 13.339 18.7858 12.998 19.1115C12.8532 19.2563 12.6993 19.364 12.5365 19.4345C12.3737 19.5052 12.1948 19.5405 12 19.5405ZM11.05 15.5C11.1513 15.5 11.2363 15.4696 11.3048 15.4088C11.3734 15.3478 11.4282 15.2686 11.4692 15.1713L13.1462 10.1345L14.4827 12.1463C14.5661 12.2539 14.6635 12.3398 14.775 12.4038C14.8865 12.4679 15.0128 12.5 15.1538 12.5H22C22.1423 12.5 22.2612 12.4522 22.3568 12.3567C22.4523 12.2612 22.5 12.1423 22.5 12C22.5 11.8577 22.4523 11.7388 22.3568 11.6433C22.2612 11.5478 22.1423 11.5 22 11.5H15.248L13.4078 8.7385C13.3589 8.66533 13.2938 8.6105 13.2125 8.574C13.1312 8.5375 13.0437 8.51925 12.95 8.51925C12.8487 8.51925 12.7605 8.54967 12.6855 8.6105C12.6105 8.6715 12.5589 8.75067 12.5308 8.848L10.8538 13.898L9.4845 11.8537C9.40117 11.7461 9.30375 11.6603 9.19225 11.5963C9.08075 11.5321 8.9545 11.5 8.8135 11.5H2C1.85767 11.5 1.73875 11.5478 1.64325 11.6433C1.54775 11.7388 1.5 11.8577 1.5 12C1.5 12.1423 1.54775 12.2612 1.64325 12.3567C1.73875 12.4522 1.85767 12.5 2 12.5H8.7135L10.573 15.2808C10.6218 15.3666 10.6902 15.4246 10.778 15.4548C10.8657 15.4849 10.9563 15.5 11.05 15.5Z" fill="#1D478E"/>
</g>
</svg>
