<svg width="24" height="24" viewBox="0 0 24 24" fill="none" xmlns="http://www.w3.org/2000/svg">
<mask id="mask0_3632_7722" style="mask-type:alpha" maskUnits="userSpaceOnUse" x="0" y="0" width="24" height="24">
<rect width="24" height="24" fill="#D9D9D9"/>
</mask>
<g mask="url(#mask0_3632_7722)">
<path d="M8.63654 8.99425L11.3038 4.59225C11.391 4.45125 11.4951 4.35283 11.6163 4.297C11.7375 4.24133 11.8654 4.2135 12 4.2135C12.1347 4.2135 12.2626 4.24133 12.3838 4.297C12.505 4.35283 12.6091 4.45125 12.6963 4.59225L15.3635 8.99425C15.4507 9.12892 15.4943 9.27025 15.4943 9.41825C15.4943 9.56642 15.459 9.70267 15.3885 9.827C15.318 9.95133 15.2231 10.0497 15.1038 10.122C14.9846 10.1945 14.8455 10.2307 14.6865 10.2307H9.31354C9.15304 10.2307 9.01262 10.1937 8.89229 10.1197C8.77195 10.0457 8.67837 9.94817 8.61154 9.827C8.54104 9.70667 8.50579 9.57308 8.50579 9.42625C8.50579 9.27925 8.54937 9.13525 8.63654 8.99425ZM17.5 21.2307C16.4552 21.2307 15.5722 20.8702 14.851 20.149C14.1299 19.4278 13.7693 18.5448 13.7693 17.5C13.7693 16.4552 14.1299 15.5722 14.851 14.851C15.5722 14.1298 16.4552 13.7693 17.5 13.7693C18.5449 13.7693 19.4279 14.1298 20.149 14.851C20.8702 15.5722 21.2308 16.4552 21.2308 17.5C21.2308 18.5448 20.8702 19.4278 20.149 20.149C19.4279 20.8702 18.5449 21.2307 17.5 21.2307ZM3.76929 19.9225V15.0725C3.76929 14.8433 3.8467 14.6522 4.00154 14.499C4.15654 14.3458 4.34854 14.2693 4.57754 14.2693H9.42754C9.6567 14.2693 9.84787 14.3467 10.001 14.5015C10.1542 14.6565 10.2308 14.8485 10.2308 15.0775V19.9275C10.2308 20.1567 10.1534 20.3478 9.99854 20.501C9.84354 20.6542 9.65154 20.7307 9.42254 20.7307H4.57254C4.34337 20.7307 4.1522 20.6533 3.99904 20.4985C3.84587 20.3435 3.76929 20.1515 3.76929 19.9225ZM17.4995 20.2307C18.264 20.2307 18.9104 19.9668 19.4385 19.439C19.9667 18.9112 20.2308 18.265 20.2308 17.5005C20.2308 16.736 19.9669 16.0897 19.439 15.5615C18.9112 15.0333 18.265 14.7693 17.5005 14.7693C16.736 14.7693 16.0897 15.0332 15.5615 15.561C15.0334 16.0888 14.7693 16.735 14.7693 17.4995C14.7693 18.264 15.0332 18.9103 15.561 19.4385C16.0889 19.9667 16.735 20.2307 17.4995 20.2307ZM4.76929 19.7307H9.23079V15.2693H4.76929V19.7307ZM9.62704 9.23075H14.373L12 5.427L9.62704 9.23075Z" fill="#1D478E"/>
</g>
</svg>
