<svg width="24" height="24" viewBox="0 0 24 24" fill="none" xmlns="http://www.w3.org/2000/svg">
<mask id="mask0_3632_7719" style="mask-type:alpha" maskUnits="userSpaceOnUse" x="0" y="0" width="24" height="24">
<rect width="24" height="24" fill="#D9D9D9"/>
</mask>
<g mask="url(#mask0_3632_7719)">
<path d="M5.71925 12.5558H8.5885L9.0635 13.8615C9.09683 13.9358 9.14233 13.9926 9.2 14.0318C9.25767 14.0709 9.32558 14.0905 9.40375 14.0905C9.53592 14.0905 9.63692 14.0379 9.70675 13.9328C9.77658 13.8276 9.791 13.7109 9.75 13.5828L7.7385 8.2405C7.70517 8.15317 7.64908 8.08259 7.57025 8.02875C7.49142 7.97492 7.4065 7.948 7.3155 7.948H6.99225C6.90125 7.948 6.81633 7.97492 6.7375 8.02875C6.65867 8.08259 6.60258 8.15317 6.56925 8.2405L4.55775 13.602C4.51675 13.7173 4.53117 13.8276 4.601 13.9328C4.67083 14.0379 4.77175 14.0905 4.90375 14.0905C4.98208 14.0905 5.051 14.0709 5.1105 14.0318C5.17017 13.9926 5.21667 13.9339 5.25 13.8558L5.71925 12.5558ZM6.00575 11.823L7.12875 8.7635H7.17875L8.302 11.823H6.00575ZM6.5 16.0385C7.373 16.0385 8.222 16.1388 9.047 16.3395C9.872 16.5402 10.6897 16.8668 11.5 17.3193V7.50775C10.7782 6.99225 9.98267 6.60567 9.1135 6.348C8.24417 6.09033 7.373 5.9615 6.5 5.9615C5.9 5.9615 5.37467 5.99742 4.924 6.06925C4.47333 6.14109 3.973 6.27442 3.423 6.46925C3.26917 6.52059 3.16025 6.59433 3.09625 6.6905C3.03208 6.7865 3 6.89225 3 7.00775V16.023C3 16.2025 3.06408 16.3339 3.19225 16.4173C3.32042 16.5006 3.4615 16.5103 3.6155 16.4463C3.98083 16.3231 4.40292 16.2243 4.88175 16.15C5.36058 16.0757 5.9 16.0385 6.5 16.0385ZM12.5 17.3193C13.3103 16.8668 14.128 16.5402 14.953 16.3395C15.778 16.1388 16.627 16.0385 17.5 16.0385C18.1 16.0385 18.6394 16.0757 19.1182 16.15C19.5971 16.2243 20.0192 16.3231 20.3845 16.4463C20.5385 16.5103 20.6796 16.5006 20.8078 16.4173C20.9359 16.3339 21 16.2025 21 16.023V7.00775C21 6.89225 20.9679 6.78967 20.9038 6.7C20.8398 6.61033 20.7308 6.53342 20.577 6.46925C20.027 6.27442 19.5267 6.14109 19.076 6.06925C18.6253 5.99742 18.1 5.9615 17.5 5.9615C16.627 5.9615 15.7558 6.09033 14.8865 6.348C14.0173 6.60567 13.2218 6.99225 12.5 7.50775V17.3193ZM12 18.4558C11.8437 18.4558 11.6998 18.4362 11.5683 18.397C11.4369 18.358 11.3116 18.3078 11.1923 18.2463C10.4654 17.8501 9.70842 17.5498 8.92125 17.3453C8.13408 17.1408 7.327 17.0385 6.5 17.0385C5.9795 17.0385 5.46825 17.0821 4.96625 17.1693C4.46442 17.2564 3.97567 17.3962 3.5 17.5885C3.13717 17.7333 2.7965 17.6898 2.478 17.4578C2.15933 17.2258 2 16.9053 2 16.4963V6.83075C2 6.58325 2.06508 6.35375 2.19525 6.14225C2.32542 5.93075 2.50775 5.78333 2.74225 5.7C3.32942 5.441 3.94033 5.25317 4.575 5.1365C5.20967 5.01984 5.85133 4.9615 6.5 4.9615C7.4795 4.9615 8.43492 5.1025 9.36625 5.3845C10.2978 5.66667 11.1757 6.077 12 6.6155C12.8243 6.077 13.7022 5.66667 14.6337 5.3845C15.5651 5.1025 16.5205 4.9615 17.5 4.9615C18.1487 4.9615 18.7903 5.01984 19.425 5.1365C20.0597 5.25317 20.6706 5.441 21.2577 5.7C21.4923 5.78333 21.6746 5.93075 21.8048 6.14225C21.9349 6.35375 22 6.58325 22 6.83075V16.4963C22 16.9053 21.8279 17.2193 21.4837 17.4385C21.1394 17.6577 20.773 17.6948 20.3845 17.55C19.9218 17.3705 19.4491 17.2403 18.9663 17.1595C18.4836 17.0788 17.9948 17.0385 17.5 17.0385C16.673 17.0385 15.8659 17.1408 15.0788 17.3453C14.2916 17.5498 13.5346 17.8501 12.8077 18.2463C12.6884 18.3078 12.5631 18.358 12.4318 18.397C12.3003 18.4362 12.1563 18.4558 12 18.4558ZM13.8845 8.948C13.8845 8.875 13.9098 8.801 13.9605 8.726C14.0112 8.651 14.0712 8.59492 14.1405 8.55775C14.6493 8.32692 15.1871 8.15059 15.7538 8.02875C16.3204 7.90709 16.9025 7.84625 17.5 7.84625C17.8205 7.84625 18.124 7.86384 18.4105 7.899C18.6972 7.93434 18.9924 7.98534 19.2962 8.052C19.3821 8.0725 19.4568 8.11734 19.5203 8.1865C19.5837 8.25584 19.6155 8.34175 19.6155 8.44425C19.6155 8.61225 19.5655 8.734 19.4655 8.8095C19.3655 8.88517 19.2315 8.9025 19.0635 8.8615C18.8173 8.8115 18.5651 8.77725 18.3068 8.75875C18.0484 8.74008 17.7795 8.73075 17.5 8.73075C16.9642 8.73075 16.4398 8.782 15.927 8.8845C15.4142 8.98717 14.9276 9.13084 14.4672 9.3155C14.2954 9.38084 14.1553 9.37884 14.047 9.3095C13.9387 9.24033 13.8845 9.11983 13.8845 8.948ZM13.8845 14.3713C13.8845 14.2981 13.9098 14.2208 13.9605 14.1395C14.0112 14.058 14.0712 13.9987 14.1405 13.9615C14.6238 13.7308 15.1616 13.5578 15.7538 13.4423C16.3461 13.3269 16.9282 13.2693 17.5 13.2693C17.8205 13.2693 18.124 13.2868 18.4105 13.322C18.6972 13.3573 18.9924 13.4083 19.2962 13.475C19.3821 13.4955 19.4568 13.5403 19.5203 13.6095C19.5837 13.6788 19.6155 13.7648 19.6155 13.8673C19.6155 14.0353 19.5655 14.1571 19.4655 14.2328C19.3655 14.3084 19.2315 14.3257 19.0635 14.2845C18.8173 14.2345 18.5651 14.2003 18.3068 14.1818C18.0484 14.1631 17.7795 14.1538 17.5 14.1538C16.977 14.1538 16.4622 14.2073 15.9557 14.3145C15.4494 14.4215 14.9661 14.5738 14.5057 14.7713C14.3339 14.8494 14.1874 14.8484 14.0663 14.7683C13.9451 14.6881 13.8845 14.5558 13.8845 14.3713ZM13.8845 11.6788C13.8845 11.6058 13.9098 11.5318 13.9605 11.4568C14.0112 11.3818 14.0712 11.3257 14.1405 11.2885C14.6493 11.0577 15.1871 10.8813 15.7538 10.7595C16.3204 10.6378 16.9025 10.577 17.5 10.577C17.8205 10.577 18.124 10.5946 18.4105 10.6298C18.6972 10.6651 18.9924 10.7161 19.2962 10.7828C19.3821 10.8033 19.4568 10.8481 19.5203 10.9173C19.5837 10.9866 19.6155 11.0725 19.6155 11.175C19.6155 11.343 19.5655 11.4648 19.4655 11.5405C19.3655 11.616 19.2315 11.6333 19.0635 11.5923C18.8173 11.5423 18.5651 11.508 18.3068 11.4895C18.0484 11.4708 17.7795 11.4615 17.5 11.4615C16.9642 11.4615 16.4398 11.5128 15.927 11.6155C15.4142 11.718 14.9276 11.8616 14.4672 12.0463C14.2954 12.1116 14.1553 12.1097 14.047 12.0405C13.9387 11.9712 13.8845 11.8506 13.8845 11.6788Z" fill="#1D478E"/>
</g>
</svg>
