<svg width="24" height="24" viewBox="0 0 24 24" fill="none" xmlns="http://www.w3.org/2000/svg">
<mask id="mask0_3632_7698" style="mask-type:alpha" maskUnits="userSpaceOnUse" x="0" y="0" width="24" height="24">
<rect width="24" height="24" fill="#D9D9D9"/>
</mask>
<g mask="url(#mask0_3632_7698)">
<path d="M4.72505 19.5C3.84038 19.5 3.09197 19.1929 2.4798 18.5788C1.86763 17.9648 1.55772 17.2108 1.55005 16.317C1.55005 16.1852 1.55522 16.0571 1.56555 15.9327C1.57572 15.8084 1.59747 15.6777 1.6308 15.5405L3.7308 7.1405C3.93513 6.35483 4.35122 5.71833 4.97905 5.231C5.60672 4.74367 6.32205 4.5 7.12505 4.5H16.8751C17.6781 4.5 18.3934 4.74367 19.0211 5.231C19.6489 5.71833 20.065 6.35483 20.2693 7.1405L22.3693 15.5405C22.4026 15.6777 22.4286 15.8126 22.4471 15.9453C22.4657 16.0779 22.475 16.2102 22.475 16.342C22.475 17.2358 22.1638 17.9856 21.5413 18.5913C20.919 19.1971 20.164 19.5 19.2763 19.5C18.6651 19.5 18.1045 19.3391 17.5943 19.0173C17.084 18.6954 16.6916 18.2628 16.4173 17.7193L15.698 16.25C15.5764 16 15.3937 15.8125 15.1501 15.6875C14.9064 15.5625 14.648 15.5 14.375 15.5H9.62505C9.35522 15.5 9.09772 15.5609 8.85255 15.6827C8.60722 15.8046 8.42372 15.9937 8.30205 16.25L7.5828 17.7193C7.3213 18.2756 6.93097 18.7115 6.4118 19.027C5.8928 19.3423 5.33055 19.5 4.72505 19.5ZM4.8053 18.5C5.20813 18.5 5.58038 18.391 5.92205 18.173C6.26372 17.9552 6.52047 17.6661 6.6923 17.3057L7.3923 15.8615C7.6028 15.4352 7.91155 15.1017 8.31855 14.861C8.72538 14.6203 9.16088 14.5 9.62505 14.5H14.375C14.8469 14.5 15.2841 14.6276 15.6866 14.8828C16.0892 15.1379 16.4046 15.4706 16.6328 15.8808L17.3328 17.3057C17.5046 17.6661 17.7614 17.9552 18.1031 18.173C18.4447 18.391 18.8215 18.5 19.2333 18.5C19.8401 18.5 20.3604 18.2946 20.7941 17.8837C21.2276 17.4727 21.4462 16.9698 21.4501 16.375C21.4501 16.3403 21.427 16.1435 21.3808 15.7845L19.2808 7.4095C19.1385 6.857 18.8442 6.40067 18.3981 6.0405C17.9519 5.68017 17.4442 5.5 16.8751 5.5H7.12505C6.54205 5.5 6.0268 5.68017 5.5793 6.0405C5.13163 6.40067 4.84497 6.857 4.7193 7.4095L2.6193 15.7845C2.5988 15.859 2.57572 16.0475 2.55005 16.35C2.55005 16.958 2.77213 17.4683 3.2163 17.881C3.66063 18.2937 4.1903 18.5 4.8053 18.5ZM13.5 10.7693C13.7064 10.7693 13.8862 10.6927 14.0396 10.5395C14.1927 10.3862 14.2693 10.2063 14.2693 10C14.2693 9.79367 14.1927 9.61383 14.0396 9.4605C13.8862 9.30733 13.7064 9.23075 13.5 9.23075C13.2937 9.23075 13.1139 9.30733 12.9605 9.4605C12.8074 9.61383 12.7308 9.79367 12.7308 10C12.7308 10.2063 12.8074 10.3862 12.9605 10.5395C13.1139 10.6927 13.2937 10.7693 13.5 10.7693ZM15.5001 8.76925C15.7064 8.76925 15.8862 8.69267 16.0396 8.5395C16.1927 8.38617 16.2693 8.20633 16.2693 8C16.2693 7.79367 16.1927 7.61383 16.0396 7.4605C15.8862 7.30733 15.7064 7.23075 15.5001 7.23075C15.2937 7.23075 15.1139 7.30733 14.9605 7.4605C14.8074 7.61383 14.7308 7.79367 14.7308 8C14.7308 8.20633 14.8074 8.38617 14.9605 8.5395C15.1139 8.69267 15.2937 8.76925 15.5001 8.76925ZM15.5001 12.7692C15.7064 12.7692 15.8862 12.6927 16.0396 12.5395C16.1927 12.3862 16.2693 12.2063 16.2693 12C16.2693 11.7937 16.1927 11.6138 16.0396 11.4605C15.8862 11.3073 15.7064 11.2308 15.5001 11.2308C15.2937 11.2308 15.1139 11.3073 14.9605 11.4605C14.8074 11.6138 14.7308 11.7937 14.7308 12C14.7308 12.2063 14.8074 12.3862 14.9605 12.5395C15.1139 12.6927 15.2937 12.7692 15.5001 12.7692ZM17.5001 10.7693C17.7064 10.7693 17.8862 10.6927 18.0396 10.5395C18.1927 10.3862 18.2693 10.2063 18.2693 10C18.2693 9.79367 18.1927 9.61383 18.0396 9.4605C17.8862 9.30733 17.7064 9.23075 17.5001 9.23075C17.2937 9.23075 17.1139 9.30733 16.9605 9.4605C16.8074 9.61383 16.7308 9.79367 16.7308 10C16.7308 10.2063 16.8074 10.3862 16.9605 10.5395C17.1139 10.6927 17.2937 10.7693 17.5001 10.7693ZM8.49905 12.1923C8.62672 12.1923 8.73247 12.1505 8.8163 12.067C8.9003 11.9835 8.9423 11.8778 8.9423 11.75V10.4423H10.25C10.3779 10.4423 10.4835 10.4006 10.567 10.3173C10.6505 10.2339 10.6923 10.1285 10.6923 10.001C10.6923 9.87333 10.6505 9.76758 10.567 9.68375C10.4835 9.59975 10.3779 9.55775 10.25 9.55775H8.9423V8.25C8.9423 8.12217 8.90063 8.0165 8.8173 7.933C8.73397 7.8495 8.62855 7.80775 8.50105 7.80775C8.37338 7.80775 8.26763 7.8495 8.1838 7.933C8.0998 8.0165 8.0578 8.12217 8.0578 8.25V9.55775H6.75005C6.62222 9.55775 6.51655 9.59942 6.43305 9.68275C6.34955 9.76608 6.3078 9.8715 6.3078 9.999C6.3078 10.1267 6.34955 10.2324 6.43305 10.3163C6.51655 10.4003 6.62222 10.4423 6.75005 10.4423H8.0578V11.75C8.0578 11.8778 8.09947 11.9835 8.1828 12.067C8.26613 12.1505 8.37155 12.1923 8.49905 12.1923Z" fill="#1D478E"/>
</g>
</svg>
