<svg width="24" height="24" viewBox="0 0 24 24" fill="none" xmlns="http://www.w3.org/2000/svg">
<mask id="mask0_3632_7707" style="mask-type:alpha" maskUnits="userSpaceOnUse" x="0" y="0" width="24" height="24">
<rect width="24" height="24" fill="#D9D9D9"/>
</mask>
<g mask="url(#mask0_3632_7707)">
<path d="M8.69236 11.25V7.5C8.69236 7.27566 8.77095 7.085 8.92811 6.928C9.08511 6.77083 9.27578 6.69225 9.50011 6.69225C9.72445 6.69225 9.91511 6.77083 10.0721 6.928C10.2293 7.085 10.3079 7.27566 10.3079 7.5V11.25C10.3079 11.4743 10.2293 11.665 10.0721 11.822C9.91511 11.9792 9.72445 12.0577 9.50011 12.0577C9.27578 12.0577 9.08511 11.9792 8.92811 11.822C8.77095 11.665 8.69236 11.4743 8.69236 11.25ZM13.0386 12.5442V3.5C13.0386 3.27566 13.1171 3.085 13.2741 2.928C13.4311 2.77083 13.6219 2.69225 13.8464 2.69225C14.0707 2.69225 14.2614 2.77083 14.4184 2.928C14.5754 3.085 14.6539 3.27566 14.6539 3.5V12.5442C14.6539 12.8134 14.5712 13.0153 14.4059 13.15C14.2404 13.2847 14.0548 13.352 13.8491 13.352C13.6434 13.352 13.4569 13.2847 13.2896 13.15C13.1223 13.0153 13.0386 12.8134 13.0386 12.5442ZM4.30786 14.6865V11.5C4.30786 11.2757 4.38636 11.085 4.54336 10.928C4.70036 10.7708 4.89111 10.6922 5.11561 10.6922C5.33994 10.6922 5.53061 10.7708 5.68761 10.928C5.84461 11.085 5.92311 11.2757 5.92311 11.5V14.6865C5.92311 14.9558 5.84044 15.1577 5.67511 15.2922C5.50961 15.4269 5.32403 15.4942 5.11836 15.4942C4.91253 15.4942 4.72603 15.4269 4.55886 15.2922C4.39153 15.1577 4.30786 14.9558 4.30786 14.6865ZM5.39311 20.55C5.16961 20.55 5.01519 20.4484 4.92986 20.2452C4.84469 20.0421 4.88353 19.8591 5.04636 19.6962L8.95386 15.7885C9.09886 15.6437 9.27736 15.5629 9.48936 15.5462C9.70153 15.5296 9.8897 15.5937 10.0539 15.7385L13.0386 18.3037L19.7924 11.55H18.0001C17.8584 11.55 17.7397 11.502 17.6439 11.406C17.548 11.31 17.5001 11.1911 17.5001 11.0492C17.5001 10.9074 17.548 10.7887 17.6439 10.6932C17.7397 10.5977 17.8584 10.55 18.0001 10.55H20.6924C20.9212 10.55 21.113 10.6274 21.2679 10.7822C21.4227 10.9371 21.5001 11.1289 21.5001 11.3577V14.05C21.5001 14.1917 21.4521 14.3104 21.3561 14.4062C21.2601 14.5021 21.1412 14.55 20.9994 14.55C20.8575 14.55 20.7389 14.5021 20.6434 14.4062C20.5479 14.3104 20.5001 14.1917 20.5001 14.05V12.2577L13.5964 19.1615C13.4514 19.3063 13.2729 19.3871 13.0609 19.4037C12.8487 19.4204 12.6605 19.3563 12.4964 19.2115L9.51161 16.6462L5.75386 20.4037C5.71103 20.4444 5.65736 20.4789 5.59286 20.5072C5.52836 20.5357 5.46178 20.55 5.39311 20.55Z" fill="#1D478E"/>
</g>
</svg>
