<svg width="24" height="24" viewBox="0 0 24 24" fill="none" xmlns="http://www.w3.org/2000/svg">
<mask id="mask0_3632_7689" style="mask-type:alpha" maskUnits="userSpaceOnUse" x="0" y="0" width="24" height="24">
<rect width="24" height="24" fill="#D9D9D9"/>
</mask>
<g mask="url(#mask0_3632_7689)">
<path d="M7.46193 20C7.01776 20 6.63751 19.8418 6.32118 19.5255C6.00485 19.2092 5.84668 18.8288 5.84668 18.3845V8C5.84668 7.55583 6.00485 7.17558 6.32118 6.85925C6.63751 6.54275 7.01776 6.3845 7.46193 6.3845H9.61593V4.6155C9.61593 4.17117 9.7741 3.79083 10.0904 3.4745C10.4068 3.15817 10.787 3 11.2312 3H12.7697C13.2138 3 13.5941 3.15817 13.9104 3.4745C14.2268 3.79083 14.3849 4.17117 14.3849 4.6155V6.3845H16.5389C16.9831 6.3845 17.3633 6.54275 17.6797 6.85925C17.996 7.17558 18.1542 7.55583 18.1542 8V18.3845C18.1542 18.8288 17.996 19.2092 17.6797 19.5255C17.3633 19.8418 16.9831 20 16.5389 20V20.2307C16.5389 20.4372 16.4623 20.6171 16.3092 20.7703C16.1558 20.9234 15.976 21 15.7697 21C15.5632 21 15.3833 20.9234 15.2302 20.7703C15.077 20.6171 15.0004 20.4372 15.0004 20.2307V20H9.00043V20.2307C9.00043 20.4372 8.92385 20.6171 8.77068 20.7703C8.61751 20.9234 8.43768 21 8.23118 21C8.02485 21 7.84501 20.9234 7.69168 20.7703C7.53851 20.6171 7.46193 20.4372 7.46193 20.2307V20ZM7.46193 19H16.5389C16.7184 19 16.8658 18.9423 16.9812 18.827C17.0965 18.7115 17.1542 18.564 17.1542 18.3845V8C17.1542 7.8205 17.0965 7.67308 16.9812 7.55775C16.8658 7.44225 16.7184 7.3845 16.5389 7.3845H7.46193C7.28243 7.3845 7.13501 7.44225 7.01968 7.55775C6.90435 7.67308 6.84668 7.8205 6.84668 8V18.3845C6.84668 18.564 6.90435 18.7115 7.01968 18.827C7.13501 18.9423 7.28243 19 7.46193 19ZM10.1152 9.15375C9.97335 9.15375 9.85468 9.20167 9.75918 9.2975C9.66368 9.39333 9.61593 9.51208 9.61593 9.65375V16.7308C9.61593 16.8724 9.66385 16.9912 9.75968 17.087C9.85568 17.1828 9.9746 17.2308 10.1164 17.2308C10.2583 17.2308 10.3769 17.1828 10.4724 17.087C10.5681 16.9912 10.6159 16.8724 10.6159 16.7308V9.65375C10.6159 9.51208 10.5679 9.39333 10.4719 9.2975C10.3759 9.20167 10.257 9.15375 10.1152 9.15375ZM13.8844 9.15375C13.7426 9.15375 13.6239 9.20167 13.5284 9.2975C13.4328 9.39333 13.3849 9.51208 13.3849 9.65375V16.7308C13.3849 16.8724 13.4329 16.9912 13.5289 17.087C13.6249 17.1828 13.7438 17.2308 13.8857 17.2308C14.0275 17.2308 14.1462 17.1828 14.2417 17.087C14.3372 16.9912 14.3849 16.8724 14.3849 16.7308V9.65375C14.3849 9.51208 14.337 9.39333 14.2412 9.2975C14.1452 9.20167 14.0263 9.15375 13.8844 9.15375ZM10.6159 6.3845H13.3849V4.6155C13.3849 4.436 13.3273 4.2885 13.2119 4.173C13.0966 4.05767 12.9492 4 12.7697 4H11.2312C11.0517 4 10.9043 4.05767 10.7889 4.173C10.6736 4.2885 10.6159 4.436 10.6159 4.6155V6.3845Z" fill="#1D478E"/>
</g>
</svg>
