<svg width="56" height="56" viewBox="0 0 56 56" fill="none" xmlns="http://www.w3.org/2000/svg">
<mask id="mask0_3986_35041" style="mask-type:luminance" maskUnits="userSpaceOnUse" x="0" y="0" width="56" height="56">
<path d="M28 56C43.464 56 56 43.464 56 28C56 12.536 43.464 0 28 0C12.536 0 0 12.536 0 28C0 43.464 12.536 56 28 56Z" fill="white"/>
</mask>
<g mask="url(#mask0_3986_35041)">
<path d="M58.1791 14.4272L41.878 22.3589L58.1791 25.7364V14.4272Z" fill="#FFD225"/>
<path d="M-1.91904 16.5126L15.2815 21.1253L-1.91904 25.7365V16.5126Z" fill="#FFD225"/>
<path d="M44.2615 0.0360718L39.0386 8.5539L54.4193 0.0465654L44.2615 0.0360718Z" fill="#FFD225"/>
<path d="M18.7491 0.145447L22.7591 6.68598L10.9478 0.154441L18.7491 0.145447Z" fill="#FFD225"/>
<path d="M8.93126 0.145386L14.6428 9.46373L-2.17999 0.158877L8.93126 0.145386Z" fill="#FFD225"/>
<path d="M36.6029 0.0986105L35.0349 4.35752L40.1093 0.0461426L36.6029 0.0986105Z" fill="#FFD225"/>
<path d="M22.4907 0.0461426L27.3388 4.88521L26.213 0.0461426H22.4907Z" fill="#FFD225"/>
<path d="M29.4163 0.0463494L30.3727 4.4042L33.6557 -0.00012207L29.4163 0.0463494Z" fill="#FFD225"/>
<path d="M58.1792 0.328003L42.7596 14.4269L58.1792 11.6371V0.328003Z" fill="#FFD225"/>
<path d="M-2.04645 2.41321L13.3747 16.5121L-2.04645 13.7223V2.41321Z" fill="#FFD225"/>
<path d="M20.0009 38.6791C20.0009 38.6791 8.51938 26.6339 7.1672 33.3033C5.08347 43.5826 5.88848 89.9 5.88848 89.9L49.7578 86.3651C49.7578 86.3651 49.9227 62.2433 50.0577 58.8193C50.4834 48.0589 54.7438 41.6323 50.9196 37.0106C47.0955 32.3904 38.6316 39.7809 38.6316 39.7809L19.9994 38.6791H20.0009Z" fill="#1D4591"/>
<path d="M26.4437 30.4221C20.5943 30.1793 17.6261 33.96 17.1703 35.9358C15.9516 41.2171 33.9391 40.6294 33.9391 40.6294C33.9391 40.6294 43.3789 42.2964 41.9623 36.5729C40.5786 30.9798 32.7084 30.6815 26.4437 30.4206V30.4221Z" fill="#1D4591"/>
<path d="M16.1644 25.0425C15.3879 23.6529 15.6368 22.0339 16.7221 21.4282C17.8074 20.8226 19.3155 21.4582 20.0936 22.8479C20.8701 24.2375 20.6212 25.8566 19.5359 26.4622C18.4506 27.0678 16.9425 26.4322 16.1644 25.0425Z" fill="#9E5943"/>
<path d="M41.9291 21.7436C42.13 20.1636 41.292 18.7559 40.0597 18.6C38.8275 18.4441 37.6657 19.5984 37.4648 21.1785C37.2639 22.7585 38.1019 24.1662 39.3342 24.3221C40.5664 24.478 41.7282 23.3237 41.9291 21.7436Z" fill="#9E5943"/>
<path d="M26.1424 36.7727L25.7122 29.4166L32.7609 29.7374L33.4265 37.7126L29.4659 39.8713C29.4659 39.8713 28.1872 38.6795 26.1409 36.7727H26.1424Z" fill="#9E5943"/>
<path d="M29.9654 31.422C35.3999 30.7171 39.2105 25.5585 38.4766 19.8998C37.7427 14.2412 32.7422 10.2253 27.3076 10.9302C21.8731 11.635 18.0626 16.7937 18.7965 22.4523C19.5304 28.111 24.5309 32.1268 29.9654 31.422Z" fill="#9E5943"/>
<path d="M14.0806 36.8544C14.238 36.4722 12.8303 34.3959 12.6519 34.0571C11.8769 32.5775 11.3073 31.6706 9.87262 30.8536C5.99898 28.6484 2.22876 26.2634 -1.55644 23.8963C-1.93721 23.6579 -2.33447 23.4046 -2.56083 23.0163C-2.56083 21.7286 -3.58021 19.9612 -3.79458 18.609C-4.11838 16.5627 -4.36573 14.5015 -4.65206 12.4492C-4.98186 10.0807 -5.32965 7.65515 -6.46596 5.55193C-7.63825 3.37975 -9.60805 1.92713 -12.0591 1.6483C-12.224 0.550964 -11.6723 -0.817705 -12.6302 -1.6452C-14.9538 -0.468417 -17.2159 0.859777 -19.5005 2.11601C-19.5005 2.11601 -17.922 3.58213 -17.922 3.58362C-17.7931 3.96889 -18.2803 5.23412 -18.3043 5.72282C-18.3477 6.67325 -18.2143 7.62217 -18.0569 8.55611C-17.4438 12.1899 -17.3703 16.137 -16.8112 19.8323C-16.1756 24.0357 -16.4634 28.1147 -14.5775 32.0813C-13.4037 34.5518 -11.2556 36.3927 -9.21379 38.2126C-5.66545 41.3757 -2.25801 44.6962 0.992014 48.1636C2.12832 49.3763 6.86095 54.0955 6.02146 56.1207C6.02146 56.1207 14.0326 36.9639 14.0776 36.8559L14.0806 36.8544Z" fill="#1D4591"/>
<path d="M41.9187 39.2565C41.7613 38.8743 43.1689 36.798 43.3473 36.4592C44.1223 34.9796 44.692 34.0727 46.1266 33.2557C50.0003 31.0505 53.7705 28.6655 57.5557 26.2984C57.9365 26.06 58.3337 25.8067 58.5601 25.4184C58.5601 24.1307 59.5795 22.3633 59.7938 21.0111C60.1176 18.9648 60.365 16.9036 60.6513 14.8513C60.9811 12.4828 61.3289 10.0573 62.4652 7.95403C63.6375 5.78185 65.6073 4.32923 68.0583 4.0504C68.2232 2.95306 67.6716 1.58439 68.6295 0.756897C70.9531 1.93368 73.2152 3.26188 75.4998 4.51811C75.4998 4.51811 73.9213 5.98422 73.9213 5.98572C73.7923 6.37099 74.2795 7.63622 74.3035 8.12492C74.347 9.07535 74.2136 10.0243 74.0562 10.9582C73.443 14.592 73.3696 18.5391 72.8104 22.2344C72.1748 26.4378 72.4626 30.5168 70.5768 34.4834C69.403 36.9539 67.2548 38.7948 65.213 40.6147C61.6647 43.7778 58.2573 47.0983 55.0072 50.5657C53.8709 51.7784 49.1383 56.4976 49.9778 58.5228C49.9778 58.5228 41.9667 39.366 41.9217 39.258L41.9187 39.2565Z" fill="#1D4591"/>
</g>
<path d="M33.8689 17.2249C33.5721 15.2011 34.4806 13.3932 35.8957 13.1848C37.3124 12.9764 38.7005 14.4486 38.9973 16.4723C39.2942 18.4961 38.3857 20.304 36.9706 20.5124C35.5539 20.7207 34.1658 19.2486 33.8689 17.2249Z" fill="#161742"/>
<path d="M17.6174 17.9819C16.1947 17.7496 15.2953 16.0106 15.6071 14.0993C15.9204 12.1879 17.3266 10.8268 18.7492 11.0606C20.1718 11.293 21.0713 13.0319 20.7595 14.9433C20.4462 16.8546 19.04 18.2158 17.6174 17.9819Z" fill="#161742"/>
<path d="M19.0458 25.0201C17.6232 24.7878 16.7237 23.0488 17.0355 21.1375C17.3489 19.2262 18.755 17.865 20.1776 18.0988C21.6003 18.3312 20.6993 19.46 20.3875 21.3699C20.0742 23.2812 20.4685 25.2525 19.0458 25.0186V25.0201Z" fill="#161742"/>
<path d="M19.0147 12.7695C18.5815 9.81933 20.8256 7.04902 24.0262 6.5798C27.2267 6.11059 30.1709 8.12087 30.6042 11.0711C31.0374 14.0213 28.7933 16.7916 25.5927 17.2608C22.3922 17.73 19.4479 15.7198 19.0147 12.7695Z" fill="#161742"/>
<path d="M16.1644 25.0429C15.3879 23.6533 15.6368 22.0342 16.7221 21.4286C17.8074 20.823 19.3155 21.4586 20.0936 22.8482C20.8701 24.2379 20.6212 25.8569 19.5359 26.4625C18.4506 27.0682 16.9425 26.4326 16.1644 25.0429Z" fill="#9E5943"/>
<path d="M19.8565 24.5523C19.7965 24.5658 19.7321 24.5553 19.6751 24.5209L17.0997 22.9543C16.9812 22.8824 16.9438 22.7294 17.0157 22.611C17.0877 22.4941 17.2406 22.4566 17.3575 22.5271L19.933 24.0936C20.0514 24.1656 20.0889 24.3185 20.0169 24.4369C19.9794 24.4984 19.921 24.5374 19.8565 24.5508V24.5523Z" fill="#161742"/>
<path d="M18.3124 25.3738C18.2449 25.3873 18.173 25.3738 18.113 25.3318C18.0021 25.2509 17.9781 25.0935 18.059 24.9825L18.7951 23.9766C18.876 23.8657 19.0319 23.8417 19.1444 23.9227C19.2553 24.0036 19.2793 24.161 19.1983 24.272L18.4623 25.2779C18.4248 25.3288 18.3708 25.3618 18.3124 25.3753V25.3738Z" fill="#161742"/>
<path d="M41.9292 21.744C42.13 20.164 41.292 18.7563 40.0598 18.6004C38.8275 18.4445 37.6657 19.5988 37.4649 21.1788C37.264 22.7589 38.102 24.1665 39.3342 24.3224C40.5665 24.4783 41.7283 23.324 41.9292 21.744Z" fill="#9E5943"/>
<path d="M38.3317 22.6691C38.2642 22.684 38.1908 22.6691 38.1308 22.6256C38.0214 22.5431 37.9974 22.3872 38.0798 22.2763L39.8817 19.8598C39.9642 19.7488 40.1201 19.7263 40.231 19.8088C40.3405 19.8912 40.3645 20.0471 40.282 20.1581L38.4801 22.5746C38.4426 22.6256 38.3887 22.6571 38.3317 22.6691Z" fill="#161742"/>
<path d="M40.0702 22.8535C40.0087 22.867 39.9428 22.8565 39.8873 22.822L38.8289 22.1639C38.712 22.0905 38.676 21.9376 38.748 21.8206C38.8199 21.7037 38.9743 21.6677 39.0913 21.7397L40.1496 22.3978C40.2666 22.4712 40.3025 22.6241 40.2306 22.7411C40.1931 22.801 40.1346 22.84 40.0702 22.8535Z" fill="#161742"/>
<path d="M26.1425 36.7722L25.7122 29.4161L32.7609 29.7369L33.4265 37.7121L29.4659 39.8708C29.4659 39.8708 28.1872 38.679 26.141 36.7722H26.1425Z" fill="#9E5943"/>
<path d="M32.8341 31.5106L32.8386 29.8766L25.7899 29.5558L26.0388 33.4324C28.3474 34.0441 30.6215 32.7324 32.8341 31.5106Z" fill="#161742"/>
<path d="M29.9654 31.422C35.3999 30.7171 39.2105 25.5585 38.4766 19.8998C37.7427 14.2412 32.7422 10.2253 27.3076 10.9302C21.8731 11.635 18.0626 16.7937 18.7965 22.4523C19.5304 28.111 24.5309 32.1268 29.9654 31.422Z" fill="#9E5943"/>
<path d="M34.1444 19.2734C34.1009 19.2764 34.0574 19.2629 34.017 19.23C33.957 19.179 32.5239 17.9902 31.3036 19.4428C31.2257 19.5358 31.1012 19.5283 31.0233 19.4263C30.9468 19.3244 30.9468 19.167 31.0248 19.0741C32.4729 17.3486 34.2118 18.8057 34.2283 18.8207C34.3213 18.8987 34.3468 19.0546 34.2883 19.167C34.2553 19.2315 34.1999 19.2689 34.1429 19.2734H34.1444Z" fill="#161742"/>
<path d="M32.1625 27.8098C32.1085 27.8143 32.0531 27.7963 32.0051 27.7558C31.9301 27.6913 30.1462 26.2117 28.6291 28.0211C28.5332 28.1381 28.3773 28.1276 28.2814 28.0002C28.1854 27.8727 28.1869 27.6764 28.2844 27.5624C30.0863 25.4142 32.2509 27.2281 32.2719 27.2461C32.3874 27.3436 32.4203 27.5369 32.3469 27.6779C32.3049 27.7588 32.2375 27.8038 32.1655 27.8098H32.1625Z" fill="#161742"/>
<path d="M31.3338 20.9093C31.3757 20.9003 31.4222 20.9093 31.4657 20.9378C31.5316 20.9813 33.0952 21.9931 34.1341 20.4071C34.2 20.3052 34.3244 20.2977 34.4144 20.3906C34.5028 20.4836 34.5208 20.6395 34.4534 20.7399C33.2181 22.6243 31.3203 21.3815 31.3023 21.368C31.2018 21.3006 31.1569 21.1506 31.2018 21.0307C31.2273 20.9618 31.2783 20.9198 31.3338 20.9078V20.9093Z" fill="#161742"/>
<path d="M23.3707 21.1477C23.4141 21.1477 23.4576 21.1627 23.4951 21.1972C23.5521 21.2512 24.9252 22.5104 26.2159 21.1208C26.2984 21.0308 26.4228 21.0458 26.4948 21.1507C26.5667 21.2572 26.5577 21.4146 26.4753 21.5015C24.9417 23.152 23.2792 21.6095 23.2627 21.5945C23.1743 21.512 23.1563 21.3546 23.2193 21.2452C23.2567 21.1822 23.3122 21.1477 23.3707 21.1463V21.1477Z" fill="#161742"/>
<path d="M26.307 19.6273C26.2636 19.6303 26.2201 19.6168 26.1796 19.5838C26.1197 19.5329 24.6865 18.3441 23.4663 19.7967C23.3883 19.8897 23.2639 19.8822 23.1859 19.7802C23.1095 19.6783 23.1095 19.5209 23.1874 19.4279C24.6356 17.7025 26.3745 19.1596 26.391 19.1746C26.4839 19.2525 26.5094 19.4085 26.451 19.5209C26.418 19.5853 26.3625 19.6228 26.3055 19.6273H26.307Z" fill="#161742"/>
<mask id="path-38-inside-1_3986_35041" fill="white">
<path d="M27.9639 23.0888C28.0029 24.1501 29.4405 24.6193 30.1511 23.8593C30.3669 23.6284 30.4914 23.3196 30.4824 23.0018C30.4764 22.7605 30.1016 22.7605 30.1076 23.0018C30.1151 23.2597 30.0042 23.5025 29.8078 23.6704C29.6279 23.8218 29.388 23.8728 29.1572 23.8578C28.7434 23.8293 28.3552 23.5205 28.3387 23.0888C28.3297 22.8489 27.9549 22.8474 27.9639 23.0888Z"/>
</mask>
<path d="M27.9639 23.0888C28.0029 24.1501 29.4405 24.6193 30.1511 23.8593C30.3669 23.6284 30.4914 23.3196 30.4824 23.0018C30.4764 22.7605 30.1016 22.7605 30.1076 23.0018C30.1151 23.2597 30.0042 23.5025 29.8078 23.6704C29.6279 23.8218 29.388 23.8728 29.1572 23.8578C28.7434 23.8293 28.3552 23.5205 28.3387 23.0888C28.3297 22.8489 27.9549 22.8474 27.9639 23.0888Z" fill="#161742"/>
<path d="M27.9639 23.0888L28.817 23.0574L28.817 23.057L27.9639 23.0888ZM30.1511 23.8593L29.5275 23.2763L29.5275 23.2763L30.1511 23.8593ZM30.4824 23.0018L29.629 23.023L29.6291 23.026L30.4824 23.0018ZM30.1076 23.0018L29.2542 23.023L29.2543 23.0266L30.1076 23.0018ZM29.8078 23.6704L30.3575 24.3235L30.3625 24.3193L29.8078 23.6704ZM29.1572 23.8578L29.0986 24.7094L29.1019 24.7097L29.1572 23.8578ZM28.3387 23.0888L27.4856 23.1208L27.4856 23.1213L28.3387 23.0888ZM27.9639 23.0888L27.1108 23.1201C27.146 24.0788 27.8186 24.7217 28.5294 24.9648C29.2333 25.2055 30.145 25.1158 30.7747 24.4423L30.1511 23.8593L29.5275 23.2763C29.4466 23.3628 29.2841 23.4185 29.0819 23.3493C28.8865 23.2825 28.8208 23.1601 28.817 23.0574L27.9639 23.0888ZM30.1511 23.8593L30.7746 24.4423C31.1349 24.057 31.3514 23.5333 31.3357 22.9777L30.4824 23.0018L29.6291 23.026C29.6313 23.106 29.599 23.1999 29.5275 23.2763L30.1511 23.8593ZM30.4824 23.0018L31.3358 22.9806C31.3283 22.6789 31.1954 22.4023 30.9698 22.2126C30.7609 22.037 30.5118 21.9671 30.2905 21.9671C30.07 21.9671 29.8134 22.037 29.5998 22.2244C29.3672 22.4284 29.2467 22.7203 29.2542 23.023L30.1076 23.0018L30.961 22.9806C30.9655 23.1627 30.8896 23.364 30.7258 23.5077C30.581 23.6348 30.4173 23.6745 30.2905 23.6745C30.1629 23.6745 30.0082 23.6348 29.8711 23.5195C29.7173 23.3901 29.6335 23.204 29.629 23.023L30.4824 23.0018ZM30.1076 23.0018L29.2543 23.0266C29.2543 23.0259 29.2543 23.0246 29.2547 23.0229C29.255 23.0213 29.2555 23.02 29.2559 23.0191C29.2568 23.0171 29.2568 23.0183 29.253 23.0216L29.8078 23.6704L30.3625 24.3193C30.7492 23.9887 30.9761 23.5008 30.9609 22.977L30.1076 23.0018ZM29.8078 23.6704L29.2581 23.0173C29.2766 23.0017 29.2884 22.9999 29.2809 23.0019C29.2769 23.0029 29.2689 23.0046 29.2568 23.0057C29.2446 23.0068 29.2297 23.0071 29.2125 23.0059L29.1572 23.8578L29.1019 24.7097C29.4794 24.7342 29.9604 24.6578 30.3575 24.3235L29.8078 23.6704ZM29.1572 23.8578L29.2158 23.0062C29.208 23.0056 29.1976 23.0034 29.1867 22.9989C29.1758 22.9943 29.1694 22.9895 29.1676 22.9878C29.166 22.9864 29.1717 22.991 29.1784 23.0044C29.1859 23.0192 29.191 23.0379 29.1917 23.0562L28.3387 23.0888L27.4856 23.1213C27.5228 24.0941 28.3633 24.6588 29.0986 24.7094L29.1572 23.8578ZM28.3387 23.0888L29.1917 23.0568C29.1658 22.3655 28.5757 22.0555 28.1463 22.0547C27.9267 22.0542 27.6677 22.1231 27.4522 22.3135C27.2167 22.5216 27.0996 22.8178 27.1108 23.1206L27.9639 23.0888L28.817 23.057C28.8238 23.239 28.7501 23.445 28.5827 23.5929C28.4351 23.7233 28.2687 23.7622 28.1428 23.762C28.0158 23.7617 27.8643 23.7221 27.7298 23.6105C27.5791 23.4854 27.4925 23.3031 27.4856 23.1208L28.3387 23.0888Z" fill="#161742" mask="url(#path-38-inside-1_3986_35041)"/>
<path d="M31.4865 16.4586C30.4117 15.2173 30.8539 13.0721 32.4759 11.666C34.0979 10.2598 36.2851 10.1249 37.3615 11.3662C38.4363 12.6074 37.9941 14.7526 36.3721 16.1587C34.75 17.5649 32.5629 17.6998 31.4865 16.4586Z" fill="#161742"/>
<path d="M29.1928 12.3992C28.3038 11.0186 29.0459 8.95731 30.8508 7.79401C32.6557 6.63072 34.8399 6.80611 35.7288 8.18677C36.6178 9.56743 35.8758 11.6287 34.0708 12.792C32.2659 13.9553 30.0818 13.7799 29.1928 12.3992Z" fill="#161742"/>
<path d="M15.3656 18.7538C15.0493 16.5951 18.8135 14.0586 20.6903 13.5804C22.6946 13.0692 24.2822 12.3736 22.3618 14.6673C20.9452 16.3597 20.0937 18.6398 19.1553 22.6244C18.7116 24.5088 15.6819 20.9125 15.3656 18.7538Z" fill="#161742"/>
<path d="M39.5503 15.2396C39.27 13.0764 36.0124 11.5189 34.5718 11.5024C33.0337 11.4859 31.7475 11.1906 33.6424 12.952C35.041 14.2517 36.1773 16.256 37.7739 19.8868C38.5294 21.6048 39.8321 17.4043 39.5518 15.2396H39.5503Z" fill="#161742"/>
<path d="M22.1503 16.1164C20.969 14.283 21.9614 11.5382 24.3674 9.98813C26.7735 8.43807 29.6832 8.66743 30.8645 10.5008C32.0458 12.3342 31.0534 15.079 28.6473 16.6291C26.2413 18.1806 23.3316 17.9498 22.1503 16.1164Z" fill="#161742"/>
<path d="M17.5829 17.9185C16.7764 16.6683 17.385 14.8424 18.9396 13.8395C20.4941 12.8366 22.4085 13.039 23.215 14.2892C24.0215 15.5394 23.4129 17.3653 21.8583 18.3682C20.3038 19.3711 18.3894 19.1687 17.5829 17.9185Z" fill="#161742"/>
<path d="M27.1902 42.0143L27.1737 42.0098C27.0942 41.9873 18.9992 40.3983 17.2917 35.865L17.5255 35.7931C18.3935 38.0972 20.9315 39.304 22.8923 40.3233C24.925 41.3802 27.0358 41.7295 27.2277 41.7865C32.6738 41.9229 36.4351 40.7716 38.6327 39.7807C41.0148 38.7058 42.1226 37.5845 42.1331 37.5725L42.319 37.7269C42.274 37.7734 41.1782 38.8857 38.7586 39.98C36.5325 40.9859 32.7218 42.1552 27.2082 42.0143H27.1917H27.1902Z" fill="#161742"/>
<path d="M27.1798 42.1147C27.1798 42.1147 27.1678 42.1132 27.1633 42.1117L27.1468 42.1072C27.1468 42.1072 27.1333 42.1042 27.1139 42.0997C26.4033 41.9468 24.5369 41.4955 22.5611 40.6156C19.6994 39.3398 17.8945 37.7538 17.1974 35.9009C17.1869 35.8754 17.1884 35.8455 17.2019 35.82C17.2154 35.7945 17.2364 35.7765 17.2633 35.7675L17.4972 35.6955C17.5482 35.6806 17.6021 35.706 17.6216 35.757C18.4296 37.9007 20.7532 39.103 22.6196 40.0669C22.7275 40.1224 22.834 40.1778 22.9404 40.2333C24.6808 41.1372 26.4767 41.521 27.0659 41.6469C27.1528 41.6649 27.2098 41.6769 27.2428 41.6859C32.665 41.8208 36.4067 40.674 38.5909 39.6891C40.943 38.6278 42.0508 37.5139 42.0613 37.5035C42.0988 37.466 42.1572 37.463 42.1977 37.496L42.3836 37.6504C42.4046 37.6684 42.4181 37.6953 42.4196 37.7223C42.4211 37.7493 42.4106 37.7778 42.3911 37.7988C42.3446 37.8467 41.2398 38.9696 38.7993 40.0729C36.5641 41.0833 32.7369 42.2586 27.2038 42.1161H27.1873C27.1873 42.1161 27.1813 42.1161 27.1798 42.1161V42.1147ZM17.4252 35.9294C18.1313 37.6878 19.8852 39.2019 22.6436 40.4312C24.6014 41.3036 26.4513 41.7504 27.1558 41.9033C27.1828 41.9093 27.1978 41.9123 27.2008 41.9138H27.2038H27.2083C32.704 42.0547 36.4982 40.8899 38.7153 39.8885C40.7886 38.9516 41.8769 38.0071 42.1662 37.7343L42.1362 37.7103C41.8619 37.9667 40.7406 38.9411 38.6718 39.875C36.4652 40.8704 32.689 42.0262 27.2233 41.8898C27.2143 41.8898 27.2053 41.8883 27.1978 41.8853C27.1753 41.8793 27.1079 41.8643 27.0209 41.8463C26.4243 41.7189 24.6089 41.3321 22.8444 40.4147C22.7395 40.3607 22.6331 40.3052 22.5251 40.2483C20.6528 39.2799 18.3292 38.0791 17.4642 35.9174L17.4252 35.9294Z" fill="#161742"/>
<path d="M26.4023 47.7878H26.3978C26.2494 47.7788 26.1354 47.6514 26.1444 47.503L26.5537 40.4737C26.5627 40.3253 26.6961 40.2039 26.8385 40.2204C26.9869 40.2294 27.1008 40.3568 27.0918 40.5052L26.6826 47.5344C26.6736 47.6813 26.5492 47.7938 26.4023 47.7878Z" fill="#161742"/>
<path d="M29.6054 50.6158C29.457 50.6098 29.34 50.4838 29.346 50.3354L29.7118 41.0696C29.7178 40.9212 29.8437 40.8042 29.9922 40.8102C30.1406 40.8162 30.2575 40.9421 30.2515 41.0905L29.8857 50.3564C29.8797 50.5048 29.7538 50.6218 29.6054 50.6158Z" fill="#161742"/>
<path d="M29.6416 39.9449C29.5786 39.9419 29.5171 39.9179 29.4677 39.8729L23.5538 34.3623C23.4443 34.2603 23.4383 34.0894 23.5403 33.9815C23.6422 33.8721 23.8131 33.8661 23.921 33.968L29.835 39.4787C29.9444 39.5806 29.9504 39.7515 29.8484 39.8594C29.793 39.9194 29.7165 39.9479 29.6401 39.9449H29.6416Z" fill="#161742"/>
<path d="M27.7155 41.2606C27.63 41.2576 27.5476 41.2127 27.4981 41.1347C27.4187 41.0088 27.4561 40.8424 27.5821 40.7629L36.3367 35.2403C36.4627 35.1608 36.6291 35.1983 36.7085 35.3242C36.788 35.4502 36.7505 35.6166 36.6246 35.696L27.8699 41.2187C27.8219 41.2486 27.7679 41.2621 27.7155 41.2606Z" fill="#161742"/>
</svg>
