<svg width="24" height="24" viewBox="0 0 24 24" fill="none" xmlns="http://www.w3.org/2000/svg">
<mask id="mask0_3632_7716" style="mask-type:alpha" maskUnits="userSpaceOnUse" x="0" y="0" width="24" height="24">
<rect width="24" height="24" fill="#D9D9D9"/>
</mask>
<g mask="url(#mask0_3632_7716)">
<path d="M11.5463 20.8365C10.5718 20.6455 9.59876 20.325 8.6271 19.875C7.65526 19.425 6.78501 18.7987 6.01635 17.9963C5.24785 17.1936 4.62351 16.2044 4.14335 15.0288C3.66318 13.8533 3.4231 12.4463 3.4231 10.8078V10.6463C3.4231 10.4641 3.47893 10.3173 3.5906 10.2058C3.7021 10.0943 3.84885 10.0385 4.03085 10.0385H4.15385C4.85001 10.0385 5.67693 10.2045 6.6346 10.5365C7.59243 10.8685 8.40526 11.2768 9.0731 11.7615C9.15393 10.6435 9.40526 9.47617 9.8271 8.2595C10.2488 7.04283 10.7917 5.95442 11.4558 4.99425C11.6045 4.78775 11.7859 4.6845 12.0001 4.6845C12.2143 4.6845 12.3957 4.78775 12.5443 4.99425C13.2085 5.95442 13.7514 7.04925 14.1731 8.27875C14.5949 9.50825 14.8463 10.682 14.9271 11.8C15.5566 11.3538 16.3373 10.9583 17.2693 10.6135C18.2013 10.2687 19.0475 10.077 19.8078 10.0385L19.9846 10.0193C20.1578 10.0064 20.3062 10.0618 20.4298 10.1855C20.5537 10.3093 20.6092 10.4578 20.5963 10.6308L20.5771 10.8463C20.4873 12.1513 20.2696 13.3307 19.9241 14.3845C19.5786 15.4385 19.0985 16.3732 18.4838 17.1885C17.869 18.0038 17.1142 18.7038 16.2193 19.2885C15.3245 19.8732 14.2873 20.3572 13.1078 20.7405C12.8912 20.8122 12.6309 20.8544 12.3271 20.8673C12.0233 20.8801 11.763 20.8698 11.5463 20.8365ZM12.3346 19.95C12.1513 17.2 11.3221 15.1125 9.8471 13.6875C8.3721 12.2625 6.56793 11.3833 4.4346 11.05C4.40126 11.05 4.40126 11.05 4.4346 11.05C4.61793 13.8667 5.4721 15.9833 6.9971 17.4C8.5221 18.8167 10.3013 19.6667 12.3346 19.95C12.3679 19.9667 12.3679 19.9708 12.3346 19.9625C12.3013 19.9542 12.3013 19.95 12.3346 19.95ZM10.0501 12.45C10.4219 12.759 10.7815 13.1413 11.1288 13.597C11.4763 14.0528 11.7668 14.4898 12.0001 14.9078C12.2244 14.4898 12.5126 14.0528 12.8646 13.597C13.2164 13.1413 13.5783 12.759 13.9501 12.45C13.9424 11.4358 13.7678 10.3673 13.4261 9.24425C13.0844 8.12109 12.6091 7.04867 12.0001 6.027C11.3911 7.04867 10.9158 8.11783 10.5741 9.2345C10.2324 10.3512 10.0578 11.423 10.0501 12.45ZM12.5231 16.0845C12.7231 16.6178 12.8875 17.1563 13.0163 17.7C13.1452 18.2437 13.2513 18.8822 13.3346 19.6155C14.1013 19.3513 14.8436 18.9968 15.5616 18.552C16.2796 18.107 16.9187 17.5416 17.4788 16.8558C18.0392 16.1699 18.5084 15.3523 18.8866 14.403C19.2648 13.4535 19.4911 12.3358 19.5656 11.05C19.5656 11.0167 19.5656 11.0167 19.5656 11.05C17.9476 11.2833 16.5084 11.8523 15.2481 12.7568C13.9879 13.6613 13.0796 14.7705 12.5231 16.0845Z" fill="#1D478E"/>
</g>
</svg>
