<svg width="24" height="24" viewBox="0 0 24 24" fill="none" xmlns="http://www.w3.org/2000/svg">
<mask id="mask0_3632_7683" style="mask-type:alpha" maskUnits="userSpaceOnUse" x="0" y="0" width="24" height="24">
<rect width="24" height="24" fill="#D9D9D9"/>
</mask>
<g mask="url(#mask0_3632_7683)">
<path d="M6.80775 18C6.57892 18 6.38708 17.9226 6.23225 17.7677C6.07742 17.6129 6 17.4211 6 17.1923V9.5C6 9.35833 6.048 9.23958 6.144 9.14375C6.24 9.04792 6.35892 9 6.50075 9C6.64258 9 6.76125 9.04792 6.85675 9.14375C6.95225 9.23958 7 9.35833 7 9.5V16.2923L17.9385 5.35375C18.032 5.26025 18.1468 5.21025 18.2828 5.20375C18.4186 5.19742 18.5398 5.24742 18.6462 5.35375C18.7526 5.46025 18.8057 5.57825 18.8057 5.70775C18.8057 5.83725 18.7526 5.95517 18.6462 6.0615L7.70775 17H14.5C14.6417 17 14.7604 17.048 14.8562 17.144C14.9521 17.24 15 17.3589 15 17.5008C15 17.6426 14.9521 17.7612 14.8562 17.8567C14.7604 17.9522 14.6417 18 14.5 18H6.80775Z" fill="#1D478E"/>
</g>
</svg>
