<svg width="24" height="24" viewBox="0 0 24 24" fill="none" xmlns="http://www.w3.org/2000/svg">
<mask id="mask0_3632_7680" style="mask-type:alpha" maskUnits="userSpaceOnUse" x="0" y="0" width="24" height="24">
<rect width="24" height="24" fill="#D9D9D9"/>
</mask>
<g mask="url(#mask0_3632_7680)">
<path d="M17.0001 7.70775L6.06159 18.6463C5.96809 18.7398 5.85334 18.7898 5.71734 18.7963C5.5815 18.8026 5.46034 18.7526 5.35384 18.6463C5.2475 18.5398 5.19434 18.4218 5.19434 18.2923C5.19434 18.1628 5.2475 18.0448 5.35384 17.9385L16.2923 7H9.50009C9.35842 7 9.23967 6.952 9.14384 6.856C9.048 6.76 9.00009 6.64108 9.00009 6.49925C9.00009 6.35742 9.048 6.23875 9.14384 6.14325C9.23967 6.04775 9.35842 6 9.50009 6H17.1923C17.4212 6 17.613 6.07742 17.7678 6.23225C17.9227 6.38708 18.0001 6.57892 18.0001 6.80775V14.5C18.0001 14.6417 17.9521 14.7604 17.8561 14.8562C17.7601 14.9521 17.6412 15 17.4993 15C17.3575 15 17.2388 14.9521 17.1433 14.8562C17.0478 14.7604 17.0001 14.6417 17.0001 14.5V7.70775Z" fill="#1D478E"/>
</g>
</svg>
