<svg width="24" height="24" viewBox="0 0 24 24" fill="none" xmlns="http://www.w3.org/2000/svg">
<mask id="mask0_3632_7704" style="mask-type:alpha" maskUnits="userSpaceOnUse" x="0" y="0" width="24" height="24">
<rect width="24" height="24" fill="#D9D9D9"/>
</mask>
<g mask="url(#mask0_3632_7704)">
<path d="M11.5 13.6922V17.35C11.5 17.4847 11.5663 17.5661 11.699 17.5942C11.8317 17.6224 11.9262 17.5814 11.9827 17.4712L14.3415 12.9112C14.419 12.7691 14.4151 12.633 14.3298 12.503C14.2446 12.3728 14.1303 12.3077 13.987 12.3077H12.5V8.64999C12.5 8.51533 12.4337 8.43391 12.301 8.40574C12.1683 8.37758 12.0738 8.41858 12.0173 8.52874L9.6585 13.0887C9.581 13.2309 9.58492 13.367 9.67025 13.497C9.75542 13.6272 9.86967 13.6922 10.013 13.6922H11.5ZM11.9965 21C9.9975 21 8.33167 20.3125 6.999 18.9375C5.66633 17.5623 5 15.8507 5 13.8027C5 12.8957 5.20642 11.9824 5.61925 11.0627C6.03208 10.1429 6.54808 9.26016 7.16725 8.41449C7.78658 7.56899 8.45517 6.77166 9.173 6.02249C9.891 5.27333 10.5577 4.62158 11.173 4.06724C11.2935 3.95958 11.4244 3.87658 11.5658 3.81824C11.7073 3.75991 11.852 3.73074 12 3.73074C12.148 3.73074 12.2927 3.75991 12.4342 3.81824C12.5756 3.87658 12.7065 3.95958 12.827 4.06724C13.4423 4.62158 14.109 5.27333 14.827 6.02249C15.5448 6.77166 16.2134 7.56899 16.8328 8.41449C17.4519 9.26016 17.9679 10.1429 18.3807 11.0627C18.7936 11.9824 19 12.8957 19 13.8027C19 15.8507 18.3325 17.5623 16.9975 18.9375C15.6623 20.3125 13.9953 21 11.9965 21ZM12 20C13.7333 20 15.1667 19.4125 16.3 18.2375C17.4333 17.0625 18 15.5833 18 13.8C18 12.5833 17.4958 11.2083 16.4875 9.67499C15.4792 8.14166 13.9833 6.46666 12 4.64999C10.0167 6.46666 8.52083 8.14166 7.5125 9.67499C6.50417 11.2083 6 12.5833 6 13.8C6 15.5833 6.56667 17.0625 7.7 18.2375C8.83333 19.4125 10.2667 20 12 20Z" fill="#1D478E"/>
</g>
</svg>
