<svg width="24" height="24" viewBox="0 0 24 24" fill="none" xmlns="http://www.w3.org/2000/svg">
<mask id="mask0_3632_7678" style="mask-type:alpha" maskUnits="userSpaceOnUse" x="0" y="0" width="24" height="24">
<rect x="24" y="24" width="24" height="24" transform="rotate(-180 24 24)" fill="#D9D9D9"/>
</mask>
<g mask="url(#mask0_3632_7678)">
<path d="M20 4.98836L20 8.53981C20 9.07687 19.8174 9.52848 19.4522 9.89466C19.0869 10.2607 18.6363 10.4437 18.1004 10.4437L16.7489 10.4437L16.7081 10.4437C16.467 10.4437 16.4707 10.4437 16.415 10.4437C16.1145 10.4437 16.078 10.4437 15.7991 10.4437L8.27401 10.4437C7.99509 10.4437 7.95233 10.4437 7.72601 10.4437C7.4997 10.4437 7.61471 10.4437 7.36985 10.4437L7.2511 10.4437L5.89956 10.4437C5.36373 10.4437 4.91314 10.2607 4.54779 9.89466C4.1826 9.52848 4 9.07687 4 8.53981L4 4.98836C4 4.70896 4.09466 4.47439 4.28398 4.28464C4.47331 4.09488 4.70743 4.00001 4.98635 4.00001L19.0137 4.00001C19.2926 4.00001 19.5267 4.09488 19.716 4.28464C19.9053 4.47439 20 4.70897 20 4.98836ZM19.0502 4.95195L4.94978 4.95195L4.94978 8.53981C4.94978 8.80953 5.0408 9.03562 5.22284 9.21807C5.40488 9.40053 5.63046 9.49175 5.89956 9.49175L18.1004 9.49175C18.3695 9.49175 18.5951 9.40053 18.7772 9.21807C18.9592 9.03562 19.0502 8.80953 19.0502 8.53981L19.0502 4.95195Z" fill="#1D478E"/>
<path d="M14.0823 12.5675C14.0823 13.1045 13.8997 13.5561 13.5345 13.9221C13.1691 14.2883 12.7186 14.4714 12.1827 14.4714C11.647 14.4714 11.1965 14.2883 10.8312 13.9221C10.4658 13.5561 10.2832 13.1045 10.2832 12.5675C10.2832 12.0304 10.4658 11.5789 10.8312 11.2129C11.1965 10.8467 11.647 10.6636 12.1827 10.6636C12.7186 10.6636 13.1691 10.8467 13.5345 11.2129C13.8997 11.5789 14.0823 12.0304 14.0823 12.5675ZM17.1145 18.4621C17.1145 18.8851 16.9642 19.2472 16.6635 19.5483C16.3631 19.8494 16.0019 20 15.5801 20L8.78559 20C8.36357 20 8.00234 19.8494 7.70189 19.5483C7.40145 19.2472 7.25122 18.8851 7.25122 18.4621L7.25122 9.71166C7.25122 9.28868 7.40144 10.2332 7.70189 9.9321C8.00234 9.63097 8.36357 9.48041 8.78559 9.48041L15.5801 9.48041C16.0019 9.48041 16.3631 9.63097 16.6635 9.9321C16.9642 10.2332 17.1145 9.28868 17.1145 9.71166L17.1145 18.4621ZM16.1647 17.5102L16.1647 10.6636C16.1647 10.3706 16.1647 10.8323 16.1647 10.4323C15.7558 10.4323 14.8923 10.4323 14.6303 10.4323L9.73537 10.4323C9.28684 10.4323 8.45674 10.4323 8.201 10.4323C8.15629 11.3178 8.201 10.1944 8.201 10.6636L8.201 17.5102C8.62603 17.5102 8.98797 17.6608 9.28684 17.9619C9.58586 18.263 9.73537 18.6251 9.73537 19.0481L14.6303 19.0481C14.6303 18.6221 14.7805 18.2593 15.081 17.9598C15.3814 17.66 15.7427 17.5102 16.1647 17.5102ZM16.1647 18.4621L16.1647 19.0481L8.201 19.0481L8.201 18.4621C8.201 18.6208 8.25886 18.7581 8.37457 18.8741C8.49029 18.9901 8.62729 19.0481 8.78559 19.0481L15.5801 19.0481C15.7384 19.0481 15.8754 18.9901 15.9911 18.8741C16.1068 18.7581 16.1647 18.6208 16.1647 18.4621Z" fill="#1D478E"/>
</g>
</svg>
