<svg width="311" height="192" viewBox="0 0 311 192" fill="none" xmlns="http://www.w3.org/2000/svg">
<path d="M156.632 191.999C241.742 191.999 310.737 187.192 310.737 181.262C310.737 175.332 241.742 170.525 156.632 170.525C71.5217 170.525 2.52637 175.332 2.52637 181.262C2.52637 187.192 71.5217 191.999 156.632 191.999Z" fill="#5BC4F0" fill-opacity="0.2"/>
<path d="M38.1851 160.777C38.741 160.985 39.3464 160.974 40.205 160.738C41.5094 160.382 42.7753 159.818 43.9255 159.017C47.3103 156.666 49.809 152.145 49.8476 147.492C49.8696 144.713 49.7155 141.836 50.6346 139.244C51.972 135.468 55.3238 133.001 57.096 129.45C58.2683 127.11 58.648 124.326 58.2628 121.7C57.8555 118.916 56.5952 116.91 56.6062 114C56.6227 109.484 58.7251 105.341 60.6239 101.335C62.5282 97.3285 64.3334 92.9221 63.717 88.4609C59.5121 89.6831 55.3183 92.7741 52.4894 96.6982C49.677 100.6 49.2697 106.212 46.4297 110.093C43.2871 114.378 38.0475 117.069 36.6386 122.353C35.6314 126.134 37.1064 129.927 35.4057 133.489C34.7233 134.925 33.8317 136.213 33.1107 137.621C31.1569 141.458 30.5735 146.204 31.5146 150.523C32.2741 153.992 34.0133 157.154 36.3744 159.445C37.0734 160.125 37.5962 160.574 38.1796 160.788L38.1851 160.777Z" fill="#207739"/>
<path d="M37.391 148.533C43.3547 143.542 46.6626 136.04 48.4957 128.502C50.3329 120.961 50.8991 113.169 52.4931 105.575" stroke="#161742" stroke-width="0.4" stroke-linecap="round" stroke-linejoin="round"/>
<path d="M41.8892 159.062C41.3113 159.243 40.6839 159.232 39.7923 159.018C38.4384 158.7 37.134 158.19 35.9397 157.473C32.4393 155.368 29.8746 151.34 29.8636 147.213C29.8526 144.747 30.0342 142.193 29.0985 139.891C27.7336 136.531 24.2718 134.323 22.45 131.166C21.2502 129.083 20.8705 126.612 21.2887 124.277C21.729 121.805 23.0444 120.035 23.0499 117.448C23.0554 113.436 20.9035 109.748 18.9552 106.186C17.0068 102.623 15.1576 98.6991 15.8235 94.7422C20.1825 95.8493 24.5139 98.6169 27.4254 102.114C30.3204 105.594 30.7056 110.575 33.6336 114.034C36.8643 117.854 42.291 120.265 43.722 124.967C44.7457 128.332 43.1881 131.687 44.9328 134.854C45.6373 136.131 46.5509 137.277 47.2884 138.532C49.2918 141.946 49.8697 146.161 48.868 149.992C48.0589 153.072 46.2372 155.867 43.7715 157.884C43.0395 158.481 42.4947 158.881 41.8892 159.067V159.062Z" fill="#32B353"/>
<path d="M36.8879 156.62C39.2624 149.232 38.0454 141.128 35.5619 133.777C33.08 126.422 29.3883 119.528 26.6723 112.257" stroke="#161742" stroke-width="0.4" stroke-linecap="round" stroke-linejoin="round"/>
<path d="M34.3984 143.196C32.5932 141.639 30.5072 140.461 28.6029 139.031C26.9133 137.759 25.6199 136.148 24.0624 134.75C21.3215 132.295 19.7749 128.108 15.7847 127.335C14.1391 127.017 12.4495 127.406 10.7763 127.576C8.85552 127.773 6.90169 127.675 5.0084 127.297C3.74805 127.045 1.06222 125.532 0 125.921C1.24935 127.154 2.11344 128.442 2.73536 130.108C3.42883 131.966 4.00122 133.977 5.45421 135.331C6.68154 136.477 8.34918 136.975 9.91774 137.584C13.5667 138.992 14.4143 141.782 15.7517 145.196C16.2801 146.55 16.9295 148.068 18.1018 148.994C19.3952 150.014 21.1068 149.63 22.3947 150.474C23.3524 151.104 23.523 152.184 24.0238 153.143C24.7723 154.584 25.8181 155.774 27.2105 156.634C29.0653 157.779 31.2447 158.295 33.4077 158.58C35.8734 158.903 38.3831 159.122 40.8543 159.237C40.5626 157.062 40.3369 154.716 39.715 152.6C39.0215 150.233 38.0253 147.925 36.7155 145.826C36.099 144.84 35.2955 143.985 34.3929 143.201L34.3984 143.196Z" fill="#207739"/>
<path d="M43.2127 166.122C41.5525 158.543 36.4235 152.135 30.5774 147.012C24.7298 141.882 18.0677 137.757 12.06 132.817" stroke="#161742" stroke-width="0.4" stroke-linecap="round" stroke-linejoin="round"/>
<path d="M42.7531 143.245C44.4428 141.563 46.4461 140.247 48.2404 138.686C49.8365 137.299 51.0143 135.605 52.4727 134.098C55.032 131.457 56.2868 127.171 60.211 126.13C61.8346 125.697 63.5463 125.965 65.2249 126.02C67.1567 126.086 69.094 125.85 70.9598 125.34C72.1982 125.001 74.7684 123.302 75.8581 123.619C74.6968 124.935 73.9263 126.278 73.42 127.987C72.8586 129.889 72.4293 131.933 71.0754 133.386C69.9306 134.613 68.3015 135.227 66.7825 135.94C63.2436 137.6 62.5886 140.439 61.4989 143.936C61.0641 145.322 60.5247 146.879 59.4185 147.887C58.2021 148.989 56.4685 148.726 55.2411 149.663C54.3275 150.359 54.2339 151.444 53.8046 152.436C53.1607 153.927 52.1976 155.187 50.8657 156.141C49.0934 157.413 46.958 158.081 44.817 158.514C42.3789 159.007 39.8912 159.402 37.4365 159.687C37.5741 157.495 37.6347 155.144 38.108 152.99C38.6363 150.578 39.4674 148.211 40.6232 146.024C41.1681 144.994 41.9111 144.089 42.7586 143.245H42.7531Z" fill="#0B531F"/>
<path d="M39.0873 157.211C44.0693 154.952 47.7292 150.495 50.3973 145.737C53.0688 140.977 54.9276 135.808 57.4445 130.967" stroke="#161742" stroke-width="0.4" stroke-linecap="round" stroke-linejoin="round"/>
<path d="M49.859 162.574L49.7214 163.325L47.1512 177.536H29.3851L26.8093 163.325L26.6772 162.574H49.859Z" fill="#FFF3EB"/>
<path d="M52.0271 156.848H24.5029V162.575H52.0271V156.848Z" fill="#FFF3EB"/>
<path d="M49.859 162.574L49.7214 163.325H26.8093L26.6772 162.574H49.859Z" fill="#CC8F66"/>
<path d="M274.819 32.9883H55.7095V177.543H274.819V32.9883Z" fill="#161742"/>
<g opacity="0.52">
<path d="M274.813 121.07H259.617V177.536H274.813V121.07Z" fill="#1D478E"/>
<path d="M259.617 121.07H244.421V177.536H259.617V121.07Z" fill="#161742"/>
<path d="M244.421 121.07H229.226V177.536H244.421V121.07Z" fill="#1D478E"/>
<path d="M229.22 121.07H214.024V177.536H229.22V121.07Z" fill="#161742"/>
<path d="M214.024 121.07H198.828V177.536H214.024V121.07Z" fill="#1D478E"/>
<path d="M198.829 121.07H183.633V177.536H198.829V121.07Z" fill="#161742"/>
<path d="M183.632 121.07H168.437V177.536H183.632V121.07Z" fill="#1D478E"/>
<path d="M168.437 121.07H153.241V177.536H168.437V121.07Z" fill="#161742"/>
<path d="M153.24 121.07H138.044V177.536H153.24V121.07Z" fill="#1D478E"/>
<path d="M138.04 121.07H122.844V177.536H138.04V121.07Z" fill="#161742"/>
</g>
<path d="M122.844 49.0938H59.0332V177.536H122.844V49.0938Z" fill="#1D478E"/>
<path d="M80.4208 0H61.5649V2.395H80.4208V0Z" fill="#0E2C5E"/>
<path d="M99.2767 0H80.4209V2.395H99.2767V0Z" fill="#0E2C5E"/>
<path d="M118.127 0H99.271V2.395H118.127V0Z" fill="#0E2C5E"/>
<path d="M136.983 0H118.127V2.395H136.983V0Z" fill="#0E2C5E"/>
<path d="M155.833 0H136.977V2.395H155.833V0Z" fill="#0E2C5E"/>
<path d="M174.689 0H155.833V2.395H174.689V0Z" fill="#0E2C5E"/>
<path d="M193.544 0H174.688V2.395H193.544V0Z" fill="#0E2C5E"/>
<path d="M212.395 0H193.539V2.395H212.395V0Z" fill="#0E2C5E"/>
<path d="M231.251 0H212.396V2.395H231.251V0Z" fill="#0E2C5E"/>
<path d="M250.107 0H231.251V2.395H250.107V0Z" fill="#0E2C5E"/>
<path d="M268.957 0H250.102V2.395H268.957V0Z" fill="#0E2C5E"/>
<path d="M66.7274 35.3223H44.8335C44.8335 40.759 49.2585 45.1708 54.7237 45.1708H56.8427C62.3024 45.1708 66.7329 40.7644 66.7329 35.3223H66.7274Z" fill="#0E2C5E"/>
<path d="M88.6214 35.3223H66.7275C66.7275 40.759 71.1525 45.1708 76.6178 45.1708H78.7367C84.1964 45.1708 88.6269 40.7644 88.6269 35.3223H88.6214Z" fill="#32B353"/>
<path d="M110.521 35.3223H88.6274C88.6274 40.759 93.0524 45.1708 98.5177 45.1708H100.637C106.096 45.1708 110.527 40.7644 110.527 35.3223H110.521Z" fill="#0E2C5E"/>
<path d="M132.415 35.3223H110.521C110.521 40.759 114.946 45.1708 120.411 45.1708H122.53C127.99 45.1708 132.42 40.7644 132.42 35.3223H132.415Z" fill="#32B353"/>
<path d="M154.314 35.3223H132.42C132.42 40.759 136.845 45.1708 142.311 45.1708H144.43C149.889 45.1708 154.32 40.7644 154.32 35.3223H154.314Z" fill="#0E2C5E"/>
<path d="M176.208 35.3223H154.314C154.314 40.759 158.739 45.1708 164.204 45.1708H166.323C171.783 45.1708 176.213 40.7644 176.213 35.3223H176.208Z" fill="#32B353"/>
<path d="M198.107 35.3223H176.213C176.213 40.759 180.638 45.1708 186.103 45.1708H188.222C193.682 45.1708 198.112 40.7644 198.112 35.3223H198.107Z" fill="#0E2C5E"/>
<path d="M220.001 35.3223H198.107C198.107 40.759 202.532 45.1708 207.998 45.1708H210.117C215.576 45.1708 220.007 40.7644 220.007 35.3223H220.001Z" fill="#32B353"/>
<path d="M241.895 35.3223H220.001C220.001 40.759 224.426 45.1708 229.891 45.1708H232.01C237.47 45.1708 241.9 40.7644 241.9 35.3223H241.895Z" fill="#0E2C5E"/>
<path d="M263.794 35.3223H241.9C241.9 40.759 246.325 45.1708 251.791 45.1708H253.91C259.369 45.1708 263.8 40.7644 263.8 35.3223H263.794Z" fill="#32B353"/>
<path d="M285.688 35.3223H263.794C263.794 40.759 268.219 45.1708 273.684 45.1708H275.803C281.263 45.1708 285.693 40.7644 285.693 35.3223H285.688Z" fill="#0E2C5E"/>
<path d="M80.4207 2.39453L66.7274 35.3217H44.8335L61.5649 2.39453H80.4207Z" fill="#1D478E"/>
<path d="M99.2712 2.39453L88.6214 35.3217H66.7275L80.4208 2.39453H99.2712Z" fill="#32B353"/>
<path d="M118.127 2.39453L110.52 35.3217H88.6211L99.2708 2.39453H118.127Z" fill="#1D478E"/>
<path d="M136.977 2.39453L132.415 35.3217H110.521L118.127 2.39453H136.977Z" fill="#32B353"/>
<path d="M155.833 2.39453L154.314 35.3217H132.415L136.977 2.39453H155.833Z" fill="#1D478E"/>
<path d="M250.102 2.39453L263.795 35.3217H285.689L268.957 2.39453H250.102Z" fill="#1D478E"/>
<path d="M231.252 2.39453L241.896 35.3217H263.796L250.102 2.39453H231.252Z" fill="#32B353"/>
<path d="M212.396 2.39453L220.002 35.3217H241.896L231.251 2.39453H212.396Z" fill="#1D478E"/>
<path d="M193.54 2.39453L198.108 35.3217H220.002L212.396 2.39453H193.54Z" fill="#32B353"/>
<path d="M174.689 2.39453L176.208 35.3217H198.108L193.54 2.39453H174.689Z" fill="#1D478E"/>
<path d="M174.689 2.39453L176.114 35.3217H154.22L155.833 2.39453H174.689Z" fill="#32B353"/>
<path d="M279.827 116.555H118.358V121.071H279.827V116.555Z" fill="#000103"/>
<path d="M134.633 116.555H129.724V138.691H134.633V116.555Z" fill="#000103"/>
<path d="M268.467 116.555H263.558V138.691H268.467V116.555Z" fill="#000103"/>
<path d="M274.819 173.246H55.7095V177.537H274.819V173.246Z" fill="#000103"/>
<path d="M119.245 111.989V52.6836H62.6332L62.6332 111.989H119.245Z" fill="#CAE7ED"/>
<path d="M92.7386 52.6836H89.1392V111.989H92.7386V52.6836Z" fill="#1D478E"/>
<path d="M120.72 80.541H61.1636V84.1253H120.72V80.541Z" fill="#1D478E"/>
<path d="M270.504 49.0938H127.682V116.554H270.504V49.0938Z" fill="#5BC4F0" fill-opacity="0.3"/>
<path d="M266.976 52.9688H190.771V103.658H266.976V52.9688Z" fill="#000103"/>
<path d="M264.774 55.1602H192.973V101.465H264.774V55.1602Z" fill="#161742"/>
<path d="M146.642 67.5387C146.642 68.5416 145.827 69.3527 144.82 69.3527C143.813 69.3527 142.999 68.5416 142.999 67.5387C142.999 66.5357 143.813 65.7246 144.82 65.7246C145.827 65.7246 146.642 66.5357 146.642 67.5387Z" fill="#EBEBEB"/>
<path d="M144.82 64.2327C143.94 64.2327 143.224 63.5203 143.224 62.6434V57.1519C143.224 56.275 143.94 55.5625 144.82 55.5625C145.701 55.5625 146.416 56.275 146.416 57.1519V62.6434C146.416 63.5203 145.701 64.2327 144.82 64.2327Z" fill="#000103"/>
<path d="M144.821 60.8125C141.491 60.8125 138.789 63.5035 138.789 66.8192H150.858C150.858 63.5035 148.156 60.8125 144.826 60.8125H144.821Z" fill="#1D478E"/>
<path d="M151.012 67.5367H138.629C138.431 67.5367 138.271 67.3778 138.271 67.1805C138.271 66.9832 138.431 66.8242 138.629 66.8242H151.012C151.21 66.8242 151.37 66.9832 151.37 67.1805C151.37 67.3778 151.21 67.5367 151.012 67.5367Z" fill="#161742"/>
<path d="M144.82 56.0231V49.0957" stroke="#000103" stroke-width="0.5" stroke-miterlimit="10"/>
<path style="mix-blend-mode:screen" opacity="0.25" d="M158.363 116.267H131.521L138.802 68.1562H151.082L158.363 116.267Z" fill="url(#paint0_linear_906_7706)"/>
<path d="M174.403 67.5387C174.403 68.5416 173.589 69.3527 172.582 69.3527C171.574 69.3527 170.76 68.5416 170.76 67.5387C170.76 66.5357 171.574 65.7246 172.582 65.7246C173.589 65.7246 174.403 66.5357 174.403 67.5387Z" fill="#EBEBEB"/>
<path d="M172.581 64.2327C171.701 64.2327 170.985 63.5203 170.985 62.6434V57.1519C170.985 56.275 171.701 55.5625 172.581 55.5625C173.462 55.5625 174.178 56.275 174.178 57.1519V62.6434C174.178 63.5203 173.462 64.2327 172.581 64.2327Z" fill="#000103"/>
<path d="M172.582 60.8125C169.252 60.8125 166.55 63.5035 166.55 66.8192H178.62C178.62 63.5035 175.917 60.8125 172.587 60.8125H172.582Z" fill="#1D478E"/>
<path d="M178.773 67.5367H166.39C166.192 67.5367 166.032 67.3778 166.032 67.1805C166.032 66.9832 166.192 66.8242 166.39 66.8242H178.773C178.972 66.8242 179.131 66.9832 179.131 67.1805C179.131 67.3778 178.972 67.5367 178.773 67.5367Z" fill="#161742"/>
<path d="M172.582 56.0231V49.0957" stroke="#000103" stroke-width="0.5" stroke-miterlimit="10"/>
<path style="mix-blend-mode:screen" opacity="0.25" d="M185.204 116.267H159.705L166.621 68.1562H178.288L185.204 116.267Z" fill="url(#paint1_linear_906_7706)"/>
<path d="M227.431 67.5387C227.431 68.5416 226.616 69.3527 225.609 69.3527C224.602 69.3527 223.787 68.5416 223.787 67.5387C223.787 66.5357 224.602 65.7246 225.609 65.7246C226.616 65.7246 227.431 66.5357 227.431 67.5387Z" fill="#EBEBEB"/>
<path d="M225.609 64.2327C224.728 64.2327 224.013 63.5203 224.013 62.6434V57.1519C224.013 56.275 224.728 55.5625 225.609 55.5625C226.489 55.5625 227.205 56.275 227.205 57.1519V62.6434C227.205 63.5203 226.489 64.2327 225.609 64.2327Z" fill="#000103"/>
<path d="M225.609 60.8125C222.279 60.8125 219.577 63.5035 219.577 66.8192H231.647C231.647 63.5035 228.945 60.8125 225.615 60.8125H225.609Z" fill="#1D478E"/>
<path d="M231.801 67.5367H219.417C219.219 67.5367 219.06 67.3778 219.06 67.1805C219.06 66.9832 219.219 66.8242 219.417 66.8242H231.801C231.999 66.8242 232.158 66.9832 232.158 67.1805C232.158 67.3778 231.999 67.5367 231.801 67.5367Z" fill="#161742"/>
<path d="M225.609 56.0231V49.0957" stroke="#000103" stroke-width="0.5" stroke-miterlimit="10"/>
<path style="mix-blend-mode:screen" opacity="0.25" d="M238.885 116.267H212.044L219.326 68.1562H231.603L238.885 116.267Z" fill="url(#paint2_linear_906_7706)"/>
<path d="M255.185 67.5387C255.185 68.5416 254.371 69.3527 253.364 69.3527C252.357 69.3527 251.542 68.5416 251.542 67.5387C251.542 66.5357 252.357 65.7246 253.364 65.7246C254.371 65.7246 255.185 66.5357 255.185 67.5387Z" fill="#EBEBEB"/>
<path d="M253.364 64.2327C252.483 64.2327 251.768 63.5203 251.768 62.6434V57.1519C251.768 56.275 252.483 55.5625 253.364 55.5625C254.244 55.5625 254.96 56.275 254.96 57.1519V62.6434C254.96 63.5203 254.244 64.2327 253.364 64.2327Z" fill="#000103"/>
<path d="M253.364 60.8125C250.034 60.8125 247.332 63.5035 247.332 66.8192H259.402C259.402 63.5035 256.699 60.8125 253.37 60.8125H253.364Z" fill="#1D478E"/>
<path d="M259.556 67.5367H247.172C246.974 67.5367 246.814 67.3778 246.814 67.1805C246.814 66.9832 246.974 66.8242 247.172 66.8242H259.556C259.754 66.8242 259.913 66.9832 259.913 67.1805C259.913 67.3778 259.754 67.5367 259.556 67.5367Z" fill="#161742"/>
<path d="M253.364 56.0231V49.0957" stroke="#000103" stroke-width="0.5" stroke-miterlimit="10"/>
<path style="mix-blend-mode:screen" opacity="0.25" d="M267.068 116.267H240.227L247.507 68.1562H259.788L267.068 116.267Z" fill="url(#paint3_linear_906_7706)"/>
<path d="M181.569 108.443H175.493V109.002H181.569V108.443Z" fill="#FFF3EB"/>
<path d="M180.749 116.554H176.313L175.796 109.002H181.267L180.749 116.554Z" fill="#5BC4F0"/>
<path d="M181.267 108.444H175.796L176.055 107.77H181.008L181.267 108.444Z" fill="#FFF3EB"/>
<path d="M178.532 114.428C179.447 114.428 180.188 113.69 180.188 112.779C180.188 111.867 179.447 111.129 178.532 111.129C177.617 111.129 176.875 111.867 176.875 112.779C176.875 113.69 177.617 114.428 178.532 114.428Z" fill="#FFF3EB"/>
<path d="M144 116.556H157.864L159.41 98.2129H145.552L144 116.556Z" fill="#161742"/>
<path d="M160.963 116.556H147.104L145.552 98.2129H159.411L160.963 116.556Z" fill="#5BC4F0"/>
<path d="M159.411 97.127H145.552V98.2176H159.411V97.127Z" fill="#FFF3EB"/>
<path d="M153.258 112.56C156.127 112.56 158.454 110.244 158.454 107.387C158.454 104.529 156.127 102.213 153.258 102.213C150.389 102.213 148.062 104.529 148.062 107.387C148.062 110.244 150.389 112.56 153.258 112.56Z" fill="#FFF3EB"/>
<path d="M155.685 116.555H166.098L167.259 102.777H156.851L155.685 116.555Z" fill="#161742"/>
<path d="M168.426 116.555H158.013L156.852 102.777H167.259L168.426 116.555Z" fill="#5BC4F0"/>
<path d="M167.259 101.961H156.852V102.778H167.259V101.961Z" fill="#FFF3EB"/>
<path d="M166.543 109.667C166.543 111.815 164.792 113.553 162.64 113.553C160.488 113.553 158.738 111.81 158.738 109.667C158.738 107.524 160.488 105.781 162.64 105.781C164.792 105.781 166.543 107.524 166.543 109.667Z" fill="#FFF3EB"/>
<path d="M49.6331 156.69C49.6331 156.69 48.1801 150.535 49.6331 145.663C51.0861 140.791 56.7219 135.074 60.4479 132.427C64.174 129.78 69.9089 125.335 71.2958 122.475C71.2958 122.475 73.6954 132.005 68.8797 138.039C64.0639 144.073 53.3261 151.275 49.6386 156.69H49.6331Z" fill="#207739"/>
<path d="M47.338 169.086C46.9912 161.337 50.299 153.834 54.6304 147.389C58.9619 140.938 64.339 135.25 68.8741 128.941" stroke="#161742" stroke-width="0.4" stroke-linecap="round" stroke-linejoin="round"/>
<path d="M56.7769 155.708C56.7769 155.708 62.3191 147.285 73.5908 147.811C84.8624 148.337 91.8797 151.746 91.8797 151.746C91.8797 151.746 87.2015 157.024 79.3312 157.024C71.4608 157.024 60.2717 160.109 56.7769 155.708Z" fill="#32B353"/>
<path d="M48.7085 171.952C48.7085 171.952 49.5341 157.976 58.3731 155.011C67.2121 152.046 84.015 152.896 84.015 152.896" stroke="#161742" stroke-width="0.4" stroke-linecap="round" stroke-linejoin="round"/>
<path d="M43.4523 161.88C43.4523 161.88 44.1073 153.867 36.7433 148.699C29.3848 143.531 23.2866 142.254 23.2866 142.254C23.2866 142.254 23.6389 147.861 28.5922 151.702C33.5511 155.544 39.0824 162.943 43.4468 161.88H43.4523Z" fill="#32B353"/>
<path d="M47.3104 176.052C47.3104 176.052 46.9031 166.844 42.7919 160.662C38.6806 154.48 27.6841 146.818 27.6841 146.818" stroke="#161742" stroke-width="0.4" stroke-linecap="round" stroke-linejoin="round"/>
<path d="M55.4995 164.363C55.4995 164.363 57.3378 161.738 62.6379 160.477C67.938 159.217 77.7897 162.763 81.8845 166.161C81.8845 166.161 75.5937 164.878 72.1814 166.161C64.7513 168.956 58.378 166.561 55.4995 164.357V164.363Z" fill="#207739"/>
<path d="M50.497 172.354C50.497 172.354 48.411 159.518 72.8587 163.634" stroke="#161742" stroke-width="0.4" stroke-linecap="round" stroke-linejoin="round"/>
<path d="M58.9458 171.355L58.8358 171.953L56.7994 183.215H42.7153L40.6789 171.953L40.5688 171.355H58.9458Z" fill="#FFF3EB"/>
<path d="M60.663 166.818H38.8462V171.356H60.663V166.818Z" fill="#FFF3EB"/>
<path d="M58.9458 171.355L58.8358 171.953H40.6789L40.5688 171.355H58.9458Z" fill="#DB9C72"/>
<path d="M156.466 141.344L156.378 142.577L153.329 183.39H148.717L151.755 142.577L151.848 141.344H156.466Z" fill="#FFF3EB"/>
<path d="M173.864 183.39H169.251L166.208 142.577L166.114 141.344H170.737L170.825 142.577L173.864 183.39Z" fill="#FFF3EB"/>
<path d="M173.621 136.422H148.717V141.349H173.621V136.422Z" fill="#FFF3EB"/>
<path d="M156.466 141.344L156.378 142.577H151.755L151.848 141.344H156.466Z" fill="#D19466"/>
<path d="M170.825 142.577H166.208L166.114 141.344H170.737L170.825 142.577Z" fill="#D19466"/>
<path d="M170.731 166.807H151.848V170.912H170.731V166.807Z" fill="#FFF3EB"/>
<path d="M225.82 141.344L225.732 142.577L222.682 183.39H218.07L221.108 142.577L221.196 141.344H225.82Z" fill="#FFF3EB"/>
<path d="M243.217 183.39H238.605L235.556 142.577L235.468 141.344H240.091L240.179 142.577L243.217 183.39Z" fill="#FFF3EB"/>
<path d="M242.969 136.422H218.064V141.349H242.969V136.422Z" fill="#FFF3EB"/>
<path d="M225.82 141.344L225.732 142.577H221.108L221.196 141.344H225.82Z" fill="#D19466"/>
<path d="M240.179 142.577H235.556L235.468 141.344H240.091L240.179 142.577Z" fill="#D19466"/>
<path d="M240.085 166.807H221.201V170.912H240.085V166.807Z" fill="#FFF3EB"/>
<defs>
<linearGradient id="paint0_linear_906_7706" x1="144.939" y1="54.4192" x2="144.939" y2="101.59" gradientUnits="userSpaceOnUse">
<stop stop-color="#FFE0B2"/>
<stop offset="1" stop-opacity="0"/>
</linearGradient>
<linearGradient id="paint1_linear_906_7706" x1="172.457" y1="-60.0946" x2="172.457" y2="-60.0946" gradientUnits="userSpaceOnUse">
<stop stop-color="#FFE0B2"/>
<stop offset="1" stop-opacity="0"/>
</linearGradient>
<linearGradient id="paint2_linear_906_7706" x1="225.464" y1="-60.0946" x2="225.464" y2="-60.0946" gradientUnits="userSpaceOnUse">
<stop stop-color="#FFE0B2"/>
<stop offset="1" stop-opacity="0"/>
</linearGradient>
<linearGradient id="paint3_linear_906_7706" x1="253.644" y1="-60.0946" x2="253.644" y2="-60.0946" gradientUnits="userSpaceOnUse">
<stop stop-color="#FFE0B2"/>
<stop offset="1" stop-opacity="0"/>
</linearGradient>
</defs>
</svg>
