<svg width="24" height="25" viewBox="0 0 24 25" fill="none" xmlns="http://www.w3.org/2000/svg">
<mask id="mask0_246_409" style="mask-type:alpha" maskUnits="userSpaceOnUse" x="0" y="0" width="24" height="25">
<rect y="0.395508" width="24" height="24" fill="#D9D9D9"/>
</mask>
<g mask="url(#mask0_246_409)">
<path d="M5.6155 21.3953C5.15517 21.3953 4.77083 21.2411 4.4625 20.9328C4.15417 20.6245 4 20.2401 4 19.7798V7.0108C4 6.55047 4.15417 6.16613 4.4625 5.8578C4.77083 5.54947 5.15517 5.3953 5.6155 5.3953H7.3845V3.70305C7.3845 3.54788 7.4355 3.4193 7.5375 3.3173C7.6395 3.21547 7.768 3.16455 7.923 3.16455C8.07817 3.16455 8.20675 3.21547 8.30875 3.3173C8.41058 3.4193 8.4615 3.54788 8.4615 3.70305V5.3953H15.6155V3.66455C15.6155 3.52222 15.6632 3.4033 15.7587 3.3078C15.8542 3.2123 15.9732 3.16455 16.1155 3.16455C16.2577 3.16455 16.3765 3.2123 16.472 3.3078C16.5677 3.4033 16.6155 3.52222 16.6155 3.66455V5.3953H18.3845C18.8448 5.3953 19.2292 5.54947 19.5375 5.8578C19.8458 6.16613 20 6.55047 20 7.0108V19.7798C20 20.2401 19.8458 20.6245 19.5375 20.9328C19.2292 21.2411 18.8448 21.3953 18.3845 21.3953H5.6155ZM5.6155 20.3953H18.3845C18.5385 20.3953 18.6796 20.3312 18.8077 20.2031C18.9359 20.0749 19 19.9338 19 19.7798V11.0108H5V19.7798C5 19.9338 5.06408 20.0749 5.19225 20.2031C5.32042 20.3312 5.4615 20.3953 5.6155 20.3953ZM5 10.0106H19V7.0108C19 6.8568 18.9359 6.71572 18.8077 6.58755C18.6796 6.45938 18.5385 6.3953 18.3845 6.3953H5.6155C5.4615 6.3953 5.32042 6.45938 5.19225 6.58755C5.06408 6.71572 5 6.8568 5 7.0108V10.0106Z" fill="#1D478E"/>
</g>
</svg>
