<svg width="32" height="32" viewBox="0 0 32 32" fill="none" xmlns="http://www.w3.org/2000/svg">
<circle cx="16" cy="16" r="16" fill="url(#paint0_linear_1_12561)"/>
<circle cx="16.4287" cy="16" r="12.8" stroke="#161742" stroke-width="0.4"/>
<mask id="mask0_1_12561" style="mask-type:alpha" maskUnits="userSpaceOnUse" x="8" y="8" width="17" height="16">
<rect x="8.42871" y="8" width="16" height="16" fill="#D9D9D9"/>
</mask>
<g mask="url(#mask0_1_12561)">
<path d="M11.8392 21.3333C11.5323 21.3333 11.2761 21.2306 11.0705 21.025C10.865 20.8194 10.7622 20.5632 10.7622 20.2563V10.3333C10.7622 10.2389 10.7942 10.1597 10.8582 10.0958C10.9222 10.0319 11.0015 10 11.096 10C11.1906 10 11.2697 10.0319 11.3334 10.0958C11.397 10.1597 11.4289 10.2389 11.4289 10.3333V20.2563C11.4289 20.359 11.4716 20.4531 11.557 20.5385C11.6425 20.6239 11.7365 20.6667 11.8392 20.6667H21.7622C21.8567 20.6667 21.9358 20.6987 21.9997 20.7627C22.0636 20.8267 22.0955 20.9059 22.0955 21.0005C22.0955 21.0951 22.0636 21.1742 21.9997 21.2378C21.9358 21.3015 21.8567 21.3333 21.7622 21.3333H11.8392ZM13.8392 19C13.7011 19 13.5854 18.9533 13.492 18.86C13.3986 18.7666 13.3519 18.6508 13.3519 18.5128V14.6153C13.3519 14.4773 13.3986 14.3617 13.492 14.2683C13.5854 14.1749 13.7011 14.1282 13.8392 14.1282H14.1469C14.2994 14.1282 14.4273 14.1801 14.5305 14.284C14.6337 14.3879 14.6852 14.5166 14.6852 14.6702V18.4633C14.6852 18.6169 14.6337 18.7447 14.5305 18.8468C14.4273 18.9489 14.2994 19 14.1469 19H13.8392ZM16.8392 19C16.7011 19 16.5854 18.9533 16.492 18.86C16.3986 18.7666 16.3519 18.6508 16.3519 18.5128V11.3333C16.3519 11.1808 16.4035 11.0529 16.5067 10.9497C16.6099 10.8464 16.7378 10.7948 16.8904 10.7948H17.198C17.3362 10.7948 17.4519 10.8416 17.5452 10.935C17.6385 11.0283 17.6852 11.144 17.6852 11.282V18.4615C17.6852 18.6141 17.6337 18.7419 17.5305 18.8452C17.4273 18.9484 17.2994 19 17.1469 19H16.8392ZM19.8392 19C19.7011 19 19.5854 18.9533 19.492 18.86C19.3986 18.7666 19.3519 18.6508 19.3519 18.5128V17.3333C19.3519 17.1808 19.4035 17.0529 19.5067 16.9497C19.6099 16.8464 19.7378 16.7948 19.8904 16.7948H20.198C20.3362 16.7948 20.4519 16.8416 20.5452 16.935C20.6387 17.0283 20.6854 17.144 20.6854 17.282V18.4615C20.6854 18.6141 20.6338 18.7419 20.5305 18.8452C20.4273 18.9484 20.2994 19 20.1469 19H19.8392Z" fill="#161742"/>
</g>
<defs>
<linearGradient id="paint0_linear_1_12561" x1="-2.07129" y1="-10.5" x2="39.4287" y2="31" gradientUnits="userSpaceOnUse">
<stop stop-color="#AF8E2F"/>
<stop offset="1" stop-color="white"/>
</linearGradient>
</defs>
</svg>
