<svg width="32" height="32" viewBox="0 0 32 32" fill="none" xmlns="http://www.w3.org/2000/svg">
<circle cx="16" cy="16" r="16" fill="url(#paint0_linear_1_12554)"/>
<circle cx="16.4287" cy="16" r="12.8" stroke="#161742" stroke-width="0.4"/>
<mask id="mask0_1_12554" style="mask-type:alpha" maskUnits="userSpaceOnUse" x="8" y="8" width="17" height="16">
<rect x="8.42871" y="8" width="16" height="16" fill="#D9D9D9"/>
</mask>
<g mask="url(#mask0_1_12554)">
<path d="M12.7619 19V14.3333C12.7619 14.2389 12.7939 14.1597 12.8579 14.0958C12.9219 14.0319 13.0012 14 13.0958 14C13.1903 14 13.2694 14.0319 13.3331 14.0958C13.3968 14.1597 13.4286 14.2389 13.4286 14.3333V19C13.4286 19.0944 13.3966 19.1736 13.3326 19.2375C13.2686 19.3014 13.1893 19.3333 13.0948 19.3333C13.0002 19.3333 12.9211 19.3014 12.8574 19.2375C12.7938 19.1736 12.7619 19.0944 12.7619 19ZM16.0953 19V14.3333C16.0953 14.2389 16.1273 14.1597 16.1913 14.0958C16.2553 14.0319 16.3345 14 16.4291 14C16.5237 14 16.6028 14.0319 16.6664 14.0958C16.7301 14.1597 16.7619 14.2389 16.7619 14.3333V19C16.7619 19.0944 16.7299 19.1736 16.6659 19.2375C16.6019 19.3014 16.5227 19.3333 16.4281 19.3333C16.3335 19.3333 16.2544 19.3014 16.1908 19.2375C16.1271 19.1736 16.0953 19.0944 16.0953 19ZM11.1209 21.3333C11.0265 21.3333 10.9473 21.3013 10.8834 21.2373C10.8195 21.1733 10.7876 21.094 10.7876 20.9995C10.7876 20.9049 10.8195 20.8258 10.8834 20.7621C10.9473 20.6985 11.0265 20.6666 11.1209 20.6666H21.7363C21.8307 20.6666 21.9099 20.6986 21.9738 20.7626C22.0377 20.8266 22.0696 20.9059 22.0696 21.0005C22.0696 21.095 22.0377 21.1741 21.9738 21.2378C21.9099 21.3015 21.8307 21.3333 21.7363 21.3333H11.1209ZM19.4286 19V14.3333C19.4286 14.2389 19.4606 14.1597 19.5246 14.0958C19.5886 14.0319 19.6679 14 19.7624 14C19.857 14 19.9361 14.0319 19.9998 14.0958C20.0634 14.1597 20.0953 14.2389 20.0953 14.3333V19C20.0953 19.0944 20.0633 19.1736 19.9993 19.2375C19.9353 19.3014 19.856 19.3333 19.7614 19.3333C19.6669 19.3333 19.5878 19.3014 19.5241 19.2375C19.4604 19.1736 19.4286 19.0944 19.4286 19ZM21.7876 12.6666H11.0414C10.9709 12.6666 10.9109 12.6421 10.8616 12.5931C10.8123 12.544 10.7876 12.4845 10.7876 12.4145V12.2603C10.7876 12.209 10.8005 12.1649 10.8264 12.1281C10.8522 12.0914 10.8863 12.0615 10.9286 12.0385L15.9696 9.6333C16.1136 9.56152 16.266 9.52563 16.4269 9.52563C16.5878 9.52563 16.7414 9.56152 16.8876 9.6333L21.9081 12.0218C21.9534 12.0517 21.9917 12.088 22.0228 12.1308C22.054 12.1735 22.0696 12.222 22.0696 12.2765V12.3878C22.0696 12.472 22.0442 12.5395 21.9933 12.5903C21.9425 12.6412 21.8739 12.6666 21.7876 12.6666ZM12.5491 12H20.3081L16.6081 10.2436C16.5482 10.218 16.4884 10.2051 16.4286 10.2051C16.3688 10.2051 16.309 10.218 16.2491 10.2436L12.5491 12Z" fill="#161742"/>
</g>
<defs>
<linearGradient id="paint0_linear_1_12554" x1="-2.07129" y1="-10.5" x2="39.4287" y2="31" gradientUnits="userSpaceOnUse">
<stop stop-color="#AF8E2F"/>
<stop offset="1" stop-color="white"/>
</linearGradient>
</defs>
</svg>
