<svg width="32" height="33" viewBox="0 0 32 33" fill="none" xmlns="http://www.w3.org/2000/svg">
<g clip-path="url(#clip0_21_46403)">
<path d="M23.8843 26.813C23.9975 27.1538 24.0282 27.5166 23.9738 27.8716C23.9194 28.2266 23.7815 28.5636 23.5714 28.8548C23.3613 29.1461 23.0851 29.3833 22.7654 29.5469C22.4457 29.7105 22.0917 29.7959 21.7326 29.796H3.93721C3.57813 29.7959 3.2242 29.7105 2.90455 29.5469C2.58491 29.3833 2.30867 29.1462 2.09859 28.855C1.8885 28.5638 1.75056 28.2268 1.69613 27.8719C1.6417 27.517 1.67232 27.1542 1.78549 26.8134L3.46058 21.7868C3.57831 21.4433 3.72166 21.1091 3.88941 20.7871L3.76746 20.3234C3.71492 20.1235 3.70893 19.9142 3.74997 19.7116C3.79101 19.509 3.87798 19.3186 4.00418 19.1549C4.13038 18.9912 4.29246 18.8586 4.47793 18.7674C4.66341 18.6761 4.86734 18.6287 5.07404 18.6286H5.57121C6.88725 17.4776 8.57605 16.8427 10.3245 16.8419H10.6014V16.5185C9.7959 16.0965 9.11245 15.4744 8.61676 14.712C8.36078 14.1528 8.19798 13.5554 8.13478 12.9436C7.81638 12.8534 7.53606 12.6619 7.33631 12.3981C7.13656 12.1342 7.02828 11.8125 7.02788 11.4816V8.8014C7.02788 7.26128 7.63968 5.78424 8.72871 4.69522C9.81774 3.60619 11.2948 2.99438 12.8349 2.99438C14.375 2.99438 15.852 3.60619 16.9411 4.69522C18.0301 5.78424 18.6419 7.26128 18.6419 8.8014V11.4816C18.6415 11.8125 18.5332 12.1342 18.3335 12.3981C18.1337 12.6619 17.8534 12.8534 17.535 12.9436C17.4718 13.5555 17.3089 14.1529 17.0526 14.712C16.5571 15.4744 15.8738 16.0965 15.0684 16.5185V16.8419H15.3453C17.0937 16.8427 18.7825 17.4776 20.0986 18.6286H20.5957C20.8025 18.6286 21.0065 18.676 21.192 18.7672C21.3775 18.8584 21.5397 18.991 21.6659 19.1547C21.7922 19.3184 21.8792 19.5089 21.9202 19.7115C21.9613 19.9141 21.9553 20.1235 21.9028 20.3234L21.7804 20.7875C21.9485 21.1098 22.0921 21.4443 22.2101 21.7881L23.8843 26.813ZM19.982 28.9026V28.0092H5.6878V28.9026H19.982ZM2.63242 27.0966C2.56424 27.3031 2.54601 27.5228 2.57924 27.7377C2.61246 27.9526 2.69619 28.1566 2.82354 28.3329C2.95089 28.5091 3.11823 28.6527 3.31183 28.7517C3.50542 28.8508 3.71975 28.9025 3.93721 28.9026H4.79441V28.0092C4.79527 27.7952 4.87288 27.5887 5.01314 27.4271C5.1534 27.2656 5.34699 27.1597 5.5587 27.1288L4.26329 22.2044L2.63242 27.0966ZM7.0855 18.6286H11.0611C10.858 18.3656 10.7168 18.0603 10.6479 17.7353H10.3258C9.18495 17.7357 8.0654 18.0444 7.0855 18.6286ZM12.8349 3.88777C11.5322 3.88931 10.2833 4.40749 9.36213 5.32864C8.44098 6.24979 7.9228 7.49869 7.92126 8.8014V10.0968C7.9914 10.0643 8.06399 10.0375 8.13836 10.0164C8.21852 9.5982 8.43124 9.21694 8.74501 8.92908C9.05878 8.64121 9.45692 8.46205 9.88046 8.41813C10.7694 8.29975 11.6149 7.96203 12.3408 7.43541C12.4858 7.33578 12.6575 7.28244 12.8333 7.28244C13.0092 7.28244 13.1809 7.33578 13.3258 7.43541C14.0446 7.96611 14.887 8.30438 15.7732 8.41813C16.2004 8.45729 16.6031 8.63464 16.9204 8.9233C17.2377 9.21196 17.4522 9.59618 17.5314 10.0177C17.6053 10.0386 17.6775 10.0654 17.7472 10.0977V8.8014C17.7456 7.49892 17.2276 6.25022 16.3068 5.32911C15.3859 4.408 14.1374 3.88966 12.8349 3.88777ZM16.2557 14.3082C16.4973 13.7444 16.6398 13.1431 16.6769 12.5308C16.6827 12.4164 16.7324 12.3085 16.8155 12.2296C16.8987 12.1507 17.009 12.1068 17.1236 12.1069C17.2894 12.1069 17.4485 12.041 17.5658 11.9238C17.6831 11.8065 17.749 11.6474 17.749 11.4816C17.749 11.3157 17.6831 11.1566 17.5658 11.0394C17.4485 10.9221 17.2894 10.8562 17.1236 10.8562C17.0051 10.8562 16.8915 10.8091 16.8077 10.7253C16.724 10.6416 16.6769 10.528 16.6769 10.4095C16.6779 10.1371 16.578 9.87403 16.3966 9.6709C16.2151 9.46777 15.9649 9.33896 15.6942 9.30929C14.6648 9.18092 13.686 8.78921 12.8523 8.172C12.0006 8.78963 11.0063 9.18137 9.9622 9.31063C9.69317 9.34097 9.44502 9.47023 9.26596 9.67331C9.08691 9.87639 8.98974 10.1388 8.99333 10.4095C8.99333 10.528 8.94626 10.6416 8.86249 10.7253C8.77872 10.8091 8.6651 10.8562 8.54663 10.8562C8.38078 10.8562 8.22171 10.9221 8.10443 11.0394C7.98715 11.1566 7.92126 11.3157 7.92126 11.4816C7.92126 11.6474 7.98715 11.8065 8.10443 11.9238C8.22171 12.041 8.38078 12.1069 8.54663 12.1069C8.66126 12.1068 8.77156 12.1507 8.8547 12.2296C8.93785 12.3085 8.98748 12.4164 8.99333 12.5308C9.0304 13.1431 9.17274 13.7444 9.41411 14.3082C9.84874 15.1663 11.8633 16.3952 12.8349 16.3952C13.8064 16.3952 15.821 15.1663 16.2557 14.3082ZM12.8349 17.2886C12.3719 17.2645 11.9174 17.1542 11.4948 16.9634V17.2886C11.4948 17.644 11.636 17.9848 11.8873 18.2361C12.1386 18.4875 12.4795 18.6286 12.8349 18.6286C13.1903 18.6286 13.5312 18.4875 13.7825 18.2361C14.0338 17.9848 14.175 17.644 14.175 17.2886V16.9634C13.7524 17.1542 13.2979 17.2645 12.8349 17.2886ZM15.3453 17.7353H15.0237C14.9548 18.0603 14.8135 18.3656 14.6105 18.6286H18.5861C17.606 18.0443 16.4863 17.7356 15.3453 17.7353ZM20.9584 19.7007C20.9158 19.645 20.8609 19.6 20.798 19.569C20.7351 19.538 20.6659 19.5219 20.5957 19.522H5.07404C5.00406 19.522 4.93499 19.538 4.87217 19.5689C4.80935 19.5997 4.75445 19.6446 4.71169 19.7C4.66892 19.7554 4.63945 19.8198 4.62552 19.8884C4.6116 19.957 4.6136 20.0279 4.63137 20.0956L6.47889 27.1158H19.1909L21.0384 20.0956C21.0563 20.028 21.0584 19.9573 21.0445 19.8888C21.0307 19.8203 21.0012 19.756 20.9584 19.7007ZM20.1097 27.1292C20.3216 27.1598 20.5155 27.2655 20.656 27.427C20.7965 27.5885 20.8744 27.7951 20.8754 28.0092V28.9026H21.7326C21.9501 28.9025 22.1645 28.8508 22.3581 28.7517C22.5517 28.6526 22.7191 28.5091 22.8465 28.3327C22.9738 28.1564 23.0575 27.9524 23.0907 27.7374C23.1239 27.5225 23.1056 27.3027 23.0374 27.0962L21.4074 22.2044L20.1097 27.1292Z" fill="#1D478E"/>
<path d="M12.8349 25.7759C11.6034 25.7759 10.6014 24.9746 10.6014 23.9892C10.6014 23.0038 11.6034 22.2024 12.8349 22.2024C14.0664 22.2024 15.0684 23.0038 15.0684 23.9892C15.0684 24.9746 14.0664 25.7759 12.8349 25.7759ZM12.8349 23.0958C12.1086 23.0958 11.4948 23.5049 11.4948 23.9892C11.4948 24.4734 12.1086 24.8826 12.8349 24.8826C13.5612 24.8826 14.175 24.4734 14.175 23.9892C14.175 23.5049 13.5612 23.0958 12.8349 23.0958Z" fill="#1D478E"/>
<path d="M17.4412 24.352C17.6725 24.352 17.86 24.1645 17.86 23.9332C17.86 23.7019 17.6725 23.5144 17.4412 23.5144C17.21 23.5144 17.0225 23.7019 17.0225 23.9332C17.0225 24.1645 17.21 24.352 17.4412 24.352Z" fill="white"/>
<mask id="mask0_21_46403" style="mask-type:alpha" maskUnits="userSpaceOnUse" x="18" y="2" width="16" height="17">
<rect x="18" y="2.39526" width="16" height="16" fill="#D9D9D9"/>
</mask>
<g mask="url(#mask0_21_46403)">
<path d="M26 16.3953C25.17 16.3953 24.39 16.2378 23.66 15.9229C22.93 15.608 22.295 15.1807 21.755 14.6409C21.215 14.1012 20.7875 13.4664 20.4725 12.7366C20.1575 12.0069 20 11.2272 20 10.3974C20 9.56776 20.1575 8.78771 20.4725 8.05726C20.7875 7.32693 21.215 6.6916 21.755 6.15126C22.295 5.61093 22.93 5.18321 23.66 4.8681C24.39 4.55287 25.17 4.39526 26 4.39526C26.8308 4.39526 27.6083 4.55104 28.3327 4.8626C29.057 5.17415 29.6936 5.60426 30.2423 6.15293C30.791 6.70171 31.2211 7.33826 31.5327 8.0626C31.8442 8.78693 32 9.56449 32 10.3953C32 10.6125 31.9866 10.8243 31.9597 11.0306C31.9327 11.2369 31.8966 11.4414 31.8513 11.6439C31.8291 11.7303 31.7806 11.7978 31.7058 11.8466C31.6311 11.8953 31.5505 11.9072 31.4642 11.8824C31.3778 11.8577 31.309 11.8074 31.2577 11.7316C31.2064 11.6558 31.1919 11.5719 31.2142 11.4799C31.2568 11.3047 31.2874 11.126 31.3058 10.9439C31.3242 10.7619 31.3333 10.579 31.3333 10.3953C31.3333 9.65393 31.1951 8.96243 30.9187 8.32076C30.6421 7.67899 30.2594 7.11365 29.7705 6.62476C29.2816 6.13588 28.7163 5.75315 28.0745 5.4766C27.4328 5.20015 26.7413 5.06193 26 5.06193C24.5111 5.06193 23.25 5.5786 22.2167 6.61193C21.1833 7.64526 20.6667 8.90637 20.6667 10.3953C20.6667 11.8842 21.1833 13.1453 22.2167 14.1786C23.25 15.2119 24.5111 15.7286 26 15.7286C26.5683 15.7286 27.1108 15.6455 27.6275 15.4793C28.1442 15.313 28.6252 15.0765 29.0705 14.7696C29.1492 14.7235 29.2332 14.7058 29.3225 14.7166C29.4117 14.7275 29.4807 14.7708 29.5295 14.8466C29.5893 14.9252 29.6097 15.0091 29.5908 15.0984C29.5718 15.1878 29.5244 15.2568 29.4487 15.3056C28.9436 15.6534 28.4036 15.9219 27.8288 16.1113C27.2541 16.3006 26.6444 16.3953 26 16.3953ZM30.6417 14.0619C30.5019 14.0619 30.3835 14.0137 30.2865 13.9171C30.1895 13.8207 30.141 13.7025 30.141 13.5626C30.141 13.4228 30.1893 13.3044 30.2858 13.2074C30.3824 13.1104 30.5006 13.0619 30.6403 13.0619C30.7801 13.0619 30.8985 13.1102 30.9955 13.2068C31.0925 13.3032 31.141 13.4214 31.141 13.5613C31.141 13.701 31.0927 13.8194 30.9962 13.9164C30.8997 14.0134 30.7816 14.0619 30.6417 14.0619ZM26.3333 10.2568L28.6667 12.5901C28.7291 12.6525 28.7624 12.729 28.7667 12.8196C28.7709 12.9103 28.7376 12.991 28.6667 13.0619C28.5958 13.1328 28.5172 13.1683 28.4308 13.1683C28.3445 13.1683 28.2658 13.1328 28.1948 13.0619L25.8282 10.6953C25.7701 10.6372 25.7286 10.5762 25.7038 10.5124C25.6791 10.4485 25.6667 10.3825 25.6667 10.3144V7.39526C25.6667 7.30082 25.6987 7.22165 25.7627 7.15776C25.8267 7.09387 25.9059 7.06193 26.0005 7.06193C26.0951 7.06193 26.1742 7.09387 26.2378 7.15776C26.3015 7.22165 26.3333 7.30082 26.3333 7.39526V10.2568Z" fill="#1D478E"/>
</g>
</g>
<defs>
<clipPath id="clip0_21_46403">
<rect width="32" height="32" fill="white" transform="translate(0 0.395264)"/>
</clipPath>
</defs>
</svg>
