<svg width="32" height="33" viewBox="0 0 32 33" fill="none" xmlns="http://www.w3.org/2000/svg">
<g clip-path="url(#clip0_1_2999)">
<path d="M1.6 32.3955H30.4C30.8243 32.3955 31.2313 32.2269 31.5314 31.9269C31.8314 31.6268 32 31.2199 32 30.7955V22.2622C32 21.8378 31.8314 21.4309 31.5314 21.1308C31.2313 20.8307 30.8243 20.6622 30.4 20.6622H28.2667V20.1288C28.2667 19.563 28.0419 19.0204 27.6418 18.6203C27.2418 18.2203 26.6991 17.9955 26.1333 17.9955H22.9333C22.3675 17.9955 21.8249 18.2203 21.4248 18.6203C21.0248 19.0204 20.8 19.563 20.8 20.1288V20.6622H18.6667C18.3831 20.6638 18.1052 20.7415 17.8619 20.8872L16 20.276V20.084C16.3733 19.8488 16.7216 19.6072 17.0331 19.387C17.2021 19.2686 17.3621 19.1555 17.5131 19.0542C18.022 18.7085 18.4555 18.2633 18.7874 17.7454C19.1193 17.2274 19.3428 16.6476 19.4443 16.0408L19.6608 14.7454C20.1348 14.6399 20.5588 14.3761 20.8628 13.9974C21.1669 13.6187 21.3328 13.1478 21.3333 12.6622V8.92884C21.3333 6.66566 20.4343 4.49517 18.834 2.89486C17.2337 1.29455 15.0632 0.395508 12.8 0.395508C10.5368 0.395508 8.36633 1.29455 6.76602 2.89486C5.16571 4.49517 4.26667 6.66566 4.26667 8.92884V12.6622C4.26725 13.1479 4.43336 13.619 4.7376 13.9977C5.04183 14.3764 5.46604 14.6401 5.94027 14.7454L6.1568 16.0403C6.25817 16.6472 6.48159 17.2271 6.81352 17.7452C7.14546 18.2632 7.57903 18.7085 8.088 19.0542C8.23787 19.1555 8.39787 19.2675 8.568 19.387C8.88 19.6072 9.22827 19.8488 9.6016 20.084V20.276L4.7024 21.8835C1.6704 22.8803 0 25.8558 0 30.2622V30.7955C0 31.2199 0.168571 31.6268 0.468629 31.9269C0.768687 32.2269 1.17565 32.3955 1.6 32.3955ZM30.4 31.3288H18.6667C18.5252 31.3288 18.3896 31.2727 18.2895 31.1726C18.1895 31.0726 18.1333 30.937 18.1333 30.7955V26.4307C18.3041 26.4939 18.4846 26.5271 18.6667 26.5288H22.4V27.0622C22.4 27.4865 22.5686 27.8935 22.8686 28.1935C23.1687 28.4936 23.5757 28.6622 24 28.6622H25.0667C25.491 28.6622 25.898 28.4936 26.198 28.1935C26.4981 27.8935 26.6667 27.4865 26.6667 27.0622V26.5288H30.4C30.5821 26.5271 30.7625 26.4939 30.9333 26.4307V30.7955C30.9333 30.937 30.8771 31.0726 30.7771 31.1726C30.6771 31.2727 30.5415 31.3288 30.4 31.3288ZM23.4667 26.5288H25.6V27.0622C25.6 27.2036 25.5438 27.3393 25.4438 27.4393C25.3438 27.5393 25.2081 27.5955 25.0667 27.5955H24C23.8586 27.5955 23.7229 27.5393 23.6229 27.4393C23.5229 27.3393 23.4667 27.2036 23.4667 27.0622V26.5288ZM21.8667 20.1288C21.8667 19.8459 21.979 19.5746 22.1791 19.3746C22.3791 19.1746 22.6504 19.0622 22.9333 19.0622H26.1333C26.4162 19.0622 26.6875 19.1746 26.8876 19.3746C27.0876 19.5746 27.2 19.8459 27.2 20.1288V20.6622H21.8667V20.1288ZM18.1333 22.2622C18.1333 22.1207 18.1895 21.9851 18.2895 21.8851C18.3896 21.785 18.5252 21.7288 18.6667 21.7288H30.4C30.5415 21.7288 30.6771 21.785 30.7771 21.8851C30.8771 21.9851 30.9333 22.1207 30.9333 22.2622V24.9288C30.9333 25.0703 30.8771 25.2059 30.7771 25.306C30.6771 25.406 30.5415 25.4622 30.4 25.4622H18.6667C18.5252 25.4622 18.3896 25.406 18.2895 25.306C18.1895 25.2059 18.1333 25.0703 18.1333 24.9288V22.2622ZM12.8 1.46217C14.7796 1.46429 16.6776 2.25164 18.0774 3.65145C19.4772 5.05126 20.2645 6.94921 20.2667 8.92884V10.8216C20.0893 10.716 19.8974 10.637 19.6971 10.587C19.6452 10.0721 19.4305 9.58712 19.0842 9.20259C18.7379 8.81807 18.2779 8.55403 17.7712 8.44884C16.2792 8.26055 14.8411 7.7706 13.5445 7.00884C13.322 6.86723 13.0637 6.79201 12.8 6.79201C12.5363 6.79201 12.278 6.86723 12.0555 7.00884C10.7588 7.77088 9.32049 8.26084 7.82827 8.44884C7.32198 8.55402 6.86238 8.81779 6.51617 9.20188C6.16997 9.58597 5.95516 10.0704 5.90293 10.5848C5.70263 10.6348 5.51072 10.7139 5.33333 10.8195V8.92884C5.33545 6.94921 6.1228 5.05126 7.52261 3.65145C8.92242 2.25164 10.8204 1.46429 12.8 1.46217ZM8.6848 18.1699C8.29564 17.9055 7.96419 17.5649 7.71053 17.1687C7.45687 16.7725 7.28627 16.3289 7.20907 15.8648L6.92587 14.1742C6.90505 14.0497 6.84079 13.9367 6.74451 13.8552C6.64823 13.7736 6.52617 13.7289 6.4 13.7288C6.1171 13.7288 5.84579 13.6165 5.64575 13.4164C5.44571 13.2164 5.33333 12.9451 5.33333 12.6622C5.33333 12.3793 5.44571 12.108 5.64575 11.9079C5.84579 11.7079 6.1171 11.5955 6.4 11.5955C6.54145 11.5955 6.6771 11.5393 6.77712 11.4393C6.87714 11.3393 6.93333 11.2036 6.93333 11.0622C6.90219 10.7223 6.98915 10.382 7.17955 10.0988C7.36996 9.81549 7.65218 9.60649 7.97867 9.50698C9.61932 9.29831 11.2001 8.75676 12.624 7.91551C12.6762 7.88059 12.7375 7.86194 12.8003 7.86194C12.863 7.86194 12.9244 7.88059 12.9765 7.91551C14.4002 8.75635 15.9806 9.29771 17.6208 9.50644C17.9475 9.60587 18.2299 9.81491 18.4204 10.0983C18.6109 10.3817 18.6979 10.7221 18.6667 11.0622C18.6667 11.2036 18.7229 11.3393 18.8229 11.4393C18.9229 11.5393 19.0586 11.5955 19.2 11.5955C19.4829 11.5955 19.7542 11.7079 19.9542 11.9079C20.1543 12.108 20.2667 12.3793 20.2667 12.6622C20.2667 12.9451 20.1543 13.2164 19.9542 13.4164C19.7542 13.6165 19.4829 13.7288 19.2 13.7288C19.0738 13.7289 18.9518 13.7736 18.8555 13.8552C18.7592 13.9367 18.695 14.0497 18.6741 14.1742L18.3909 15.8654C18.3137 16.3294 18.143 16.7728 17.8894 17.169C17.6357 17.5651 17.3043 17.9056 16.9152 18.1699C16.76 18.2766 16.5952 18.3918 16.4187 18.5155C15.3989 19.2339 14.1301 20.1288 12.8 20.1288C11.4699 20.1288 10.2011 19.2339 9.18133 18.5155C9.0064 18.3918 8.84 18.275 8.6848 18.1699ZM14.9333 20.6691C14.9333 21.2349 14.7086 21.7775 14.3085 22.1776C13.9084 22.5777 13.3658 22.8024 12.8 22.8024C12.2342 22.8024 11.6916 22.5777 11.2915 22.1776C10.8914 21.7775 10.6667 21.2349 10.6667 20.6691C11.3309 20.9981 12.059 21.1777 12.8 21.1955C13.541 21.1777 14.2691 20.9981 14.9333 20.6691ZM1.06667 30.2622C1.06667 26.3539 2.47627 23.7384 5.0352 22.8968L9.68213 21.3715C9.84228 22.0788 10.2381 22.7105 10.8047 23.1632C11.3712 23.6158 12.0748 23.8623 12.8 23.8623C13.5252 23.8623 14.2288 23.6158 14.7953 23.1632C15.3619 22.7105 15.7577 22.0788 15.9179 21.3715L17.1504 21.7763C17.0972 21.9329 17.0689 22.0968 17.0667 22.2622V30.7955C17.0684 30.9776 17.1016 31.158 17.1648 31.3288H1.6C1.45855 31.3288 1.3229 31.2727 1.22288 31.1726C1.12286 31.0726 1.06667 30.937 1.06667 30.7955V30.2622Z" fill="#1D478E"/>
<path d="M21.5 25.8955C21.7761 25.8955 22 25.6717 22 25.3955C22 25.1194 21.7761 24.8955 21.5 24.8955C21.2239 24.8955 21 25.1194 21 25.3955C21 25.6717 21.2239 25.8955 21.5 25.8955Z" fill="white"/>
</g>
<defs>
<clipPath id="clip0_1_2999">
<rect width="32" height="32" fill="white" transform="translate(0 0.395508)"/>
</clipPath>
</defs>
</svg>
