<svg width="32" height="33" viewBox="0 0 32 33" fill="none" xmlns="http://www.w3.org/2000/svg">
<path d="M31 12.8955L29.4746 1.84551C29.4237 1.59551 29.2203 1.39551 28.9661 1.39551H3.54237C3.28814 1.39551 3.08475 1.59551 3.0339 1.84551L1.50847 12.8455V12.8955C1.50847 14.1455 2.11864 15.2955 3.0339 15.9955V25.8955H1V31.3955H3.0339H14.2203H19.3051H27.4407H29.4746V15.9955C30.3898 15.2955 30.9492 14.1955 31 12.9955C31 12.9455 31 12.9455 31 12.8955ZM29.8814 12.3955H23.8305L22.9153 2.39551H28.5085L29.8814 12.3955ZM16.7627 2.39551H21.8983L22.8136 12.3955H16.7627V2.39551ZM15.7458 12.3955H9.69492L10.6102 2.39551H15.7458V12.3955ZM15.6949 13.3955C15.4407 14.7955 14.2203 15.8955 12.6949 15.8955C11.1695 15.8955 9.94915 14.7955 9.69492 13.3955H15.6949ZM22.8136 13.3955C22.5593 14.7955 21.339 15.8955 19.8136 15.8955C18.2881 15.8955 17.0678 14.7955 16.8136 13.3955H22.8136ZM4 2.39551H9.59322L8.67797 12.3955H2.57627L4 2.39551ZM2.57627 13.3955H8.57627C8.32203 14.7955 7.1017 15.8955 5.57627 15.8955C4.05085 15.8955 2.83051 14.7955 2.57627 13.3955ZM6.08475 30.3955H2.01695V26.8955H13.2034V30.3955H6.08475ZM20.322 30.3955V20.3955C20.322 19.5455 20.9831 18.8955 21.8475 18.8955H24.8983C25.7627 18.8955 26.4237 19.5455 26.4237 20.3955V30.3955H20.322ZM28.4576 30.3955H27.4407V20.3955C27.4407 18.9955 26.322 17.8955 24.8983 17.8955H21.8475C20.4237 17.8955 19.3051 18.9955 19.3051 20.3955V30.3955H14.2203V25.8955H4.05085V16.5955C4.50847 16.7955 5.01695 16.8955 5.57627 16.8955C7.1017 16.8955 8.42373 16.0455 9.13559 14.8455C9.84746 16.0955 11.1695 16.8955 12.6949 16.8955C14.2203 16.8955 15.5424 16.0455 16.2542 14.8455C16.9661 16.0955 18.2881 16.8955 19.8136 16.8955C21.339 16.8955 22.661 16.0455 23.3729 14.8455C24.0847 16.0955 25.4068 16.8955 26.9322 16.8955C27.4915 16.8955 28 16.7955 28.4576 16.5955V30.3955ZM26.9322 15.8955C25.4068 15.8955 24.1864 14.7955 23.9322 13.3955H29.9322C29.678 14.7955 28.4576 15.8955 26.9322 15.8955Z" fill="#1D478E"/>
<path d="M21.5 25.8955C21.7761 25.8955 22 25.6717 22 25.3955C22 25.1194 21.7761 24.8955 21.5 24.8955C21.2239 24.8955 21 25.1194 21 25.3955C21 25.6717 21.2239 25.8955 21.5 25.8955Z" fill="white"/>
</svg>
