<svg width="24" height="25" viewBox="0 0 24 25" fill="none" xmlns="http://www.w3.org/2000/svg">
<mask id="mask0_246_423" style="mask-type:alpha" maskUnits="userSpaceOnUse" x="0" y="0" width="24" height="25">
<rect y="0.395508" width="24" height="24" fill="#D9D9D9"/>
</mask>
<g mask="url(#mask0_246_423)">
<path d="M7.30764 16.011C6.86331 16.011 6.48297 15.8527 6.16664 15.5362C5.85031 15.2199 5.69214 14.8396 5.69214 14.3955V7.24172C5.69214 6.79739 5.85031 6.41706 6.16664 6.10072C6.48297 5.78439 6.86331 5.62622 7.30764 5.62622H19.6921C20.1365 5.62622 20.5168 5.78439 20.8331 6.10072C21.1495 6.41706 21.3076 6.79739 21.3076 7.24172V14.3955C21.3076 14.8396 21.1495 15.2199 20.8331 15.5362C20.5168 15.8527 20.1365 16.011 19.6921 16.011H7.30764ZM8.30764 15.011H18.6921C18.6921 14.5635 18.8503 14.1823 19.1666 13.8675C19.483 13.5528 19.8633 13.3955 20.3076 13.3955V8.24172C19.8601 8.24172 19.4791 8.08355 19.1644 7.76722C18.8496 7.45072 18.6921 7.07039 18.6921 6.62622H8.30764C8.30764 7.07372 8.14947 7.45481 7.83314 7.76947C7.51681 8.08431 7.13647 8.24172 6.69214 8.24172V13.3955C7.13964 13.3955 7.52072 13.5536 7.83539 13.87C8.15022 14.1863 8.30764 14.5666 8.30764 15.011ZM17.8461 19.011H4.30764C3.86331 19.011 3.48297 18.8527 3.16664 18.5362C2.85031 18.2199 2.69214 17.8396 2.69214 17.3955V9.08772C2.69214 8.94605 2.74014 8.8273 2.83614 8.73147C2.93214 8.63564 3.05106 8.58772 3.19289 8.58772C3.33472 8.58772 3.45339 8.63564 3.54889 8.73147C3.64439 8.8273 3.69214 8.94605 3.69214 9.08772V17.3955C3.69214 17.5493 3.75622 17.6903 3.88439 17.8185C4.01272 17.9468 4.15381 18.011 4.30764 18.011H17.8461C17.9878 18.011 18.1066 18.0589 18.2024 18.1547C18.2982 18.2507 18.3461 18.3696 18.3461 18.5115C18.3461 18.6533 18.2982 18.772 18.2024 18.8675C18.1066 18.9631 17.9878 19.011 17.8461 19.011ZM7.30764 15.011H6.69214V6.62622H7.30764C7.14097 6.62622 6.99672 6.68714 6.87489 6.80897C6.75306 6.9308 6.69214 7.07505 6.69214 7.24172V14.3955C6.69214 14.5621 6.75306 14.7064 6.87489 14.8282C6.99672 14.9501 7.14097 15.011 7.30764 15.011Z" fill="#1D478E"/>
<path d="M15.0236 9.59919C15.1685 9.59919 15.2718 9.73961 15.2287 9.87791C15.2008 9.96771 15.1177 10.0289 15.0236 10.0289H12.2905C12.1461 10.0289 12.0428 9.88922 12.0851 9.75112C12.1127 9.66084 12.1961 9.59919 12.2905 9.59919H15.0236ZM14.1882 13.3736C14.0883 13.3873 13.9883 13.3501 13.9216 13.2745L12.096 11.2049C12.0603 11.1643 12.0402 11.1124 12.0393 11.0584C12.0371 10.9314 12.1395 10.8273 12.2664 10.8273H12.9056C13.1685 10.8273 13.3927 10.7905 13.5783 10.7172C13.7638 10.6426 13.9054 10.5319 14.0031 10.3853C14.1026 10.2389 14.1524 10.0574 14.1524 9.84093C14.1524 9.52188 14.0487 9.27132 13.8411 9.08894C13.6356 8.90497 13.3404 8.81313 12.9562 8.81313H12.2847C12.1437 8.81313 12.0432 8.67613 12.0856 8.54158C12.113 8.45465 12.1936 8.39553 12.2847 8.39553H12.9562C13.327 8.39553 13.6372 8.4573 13.8867 8.5811C14.1379 8.70464 14.3268 8.87571 14.4531 9.09377C14.5814 9.31022 14.6453 9.55917 14.6453 9.84088C14.6453 10.1046 14.5839 10.342 14.4609 10.5536C14.3393 10.7636 14.1513 10.9304 13.8967 11.0542C13.6438 11.1764 13.3211 11.2374 12.9283 11.2374C12.8575 11.2374 12.8198 11.3209 12.8666 11.374L14.3481 13.0535C14.4551 13.1749 14.3721 13.366 14.2104 13.3706L14.1882 13.3736ZM15.0433 8.39551C15.1875 8.39551 15.2906 8.53493 15.2484 8.6728C15.2207 8.76328 15.137 8.82491 15.0424 8.82448L12.7986 8.81436C12.6595 8.81374 12.5597 8.68013 12.5985 8.54652C12.6245 8.45705 12.7064 8.39551 12.7996 8.39551L15.0433 8.39551Z" fill="#1D478E"/>
</g>
</svg>
