<svg width="24" height="25" viewBox="0 0 24 25" fill="none" xmlns="http://www.w3.org/2000/svg">
<mask id="mask0_1_3078" style="mask-type:alpha" maskUnits="userSpaceOnUse" x="0" y="0" width="24" height="25">
<rect y="0.395508" width="24" height="24" fill="#D9D9D9"/>
</mask>
<g mask="url(#mask0_1_3078)">
<path d="M6 21.3955C5.43583 21.3955 4.9615 21.2032 4.577 20.8185C4.19233 20.434 4 19.9597 4 19.3955V18.2032C4 17.9711 4.07658 17.7784 4.22975 17.6252C4.38292 17.4721 4.57558 17.3955 4.80775 17.3955H7V4.1685C7 4.0775 7.034 4.01758 7.102 3.98875C7.16983 3.95991 7.239 3.96791 7.3095 4.01275L8.05375 4.507C8.12825 4.55566 8.20008 4.58 8.26925 4.58C8.33842 4.58 8.41017 4.55566 8.4845 4.507L9.3615 3.93775C9.43583 3.88908 9.50767 3.86475 9.577 3.86475C9.64617 3.86475 9.71792 3.88908 9.79225 3.93775L10.6693 4.507C10.7436 4.55566 10.8153 4.58 10.8845 4.58C10.9538 4.58 11.0257 4.55566 11.1 4.507L11.977 3.93775C12.0513 3.88908 12.1231 3.86475 12.1923 3.86475C12.2616 3.86475 12.3334 3.88908 12.4078 3.93775L13.2845 4.507C13.359 4.55566 13.4308 4.58 13.5 4.58C13.5692 4.58 13.641 4.55566 13.7155 4.507L14.5922 3.93775C14.6666 3.88908 14.7384 3.86475 14.8077 3.86475C14.8769 3.86475 14.9487 3.88908 15.023 3.93775L15.9 4.507C15.9743 4.55566 16.0462 4.58 16.1155 4.58C16.1847 4.58 16.2564 4.55566 16.3307 4.507L17.2078 3.93775C17.2821 3.88908 17.3538 3.86475 17.423 3.86475C17.4923 3.86475 17.5642 3.88908 17.6385 3.93775L18.5155 4.507C18.5898 4.55566 18.6616 4.58 18.7308 4.58C18.7999 4.58 18.8717 4.55566 18.9462 4.507L19.6905 4.01275C19.761 3.96791 19.8302 3.95991 19.898 3.98875C19.966 4.01758 20 4.0775 20 4.1685V19.3955C20 19.9597 19.8077 20.434 19.423 20.8185C19.0385 21.2032 18.5642 21.3955 18 21.3955H6ZM18 20.3955C18.2833 20.3955 18.5208 20.2997 18.7125 20.108C18.9042 19.9163 19 19.6788 19 19.3955V5.3955H8V17.3955H16.1923C16.4244 17.3955 16.6171 17.4721 16.7703 17.6252C16.9234 17.7784 17 17.9711 17 18.2032V19.3955C17 19.6788 17.0958 19.9163 17.2875 20.108C17.4792 20.2997 17.7167 20.3955 18 20.3955ZM9.8845 7.8955H14.2308C14.3731 7.8955 14.492 7.94325 14.5875 8.03875C14.683 8.13425 14.7308 8.25316 14.7308 8.3955C14.7308 8.53783 14.683 8.65675 14.5875 8.75225C14.492 8.84775 14.3731 8.8955 14.2308 8.8955H9.8845C9.74233 8.8955 9.6235 8.84775 9.528 8.75225C9.43233 8.65675 9.3845 8.53783 9.3845 8.3955C9.3845 8.25316 9.43233 8.13425 9.528 8.03875C9.6235 7.94325 9.74233 7.8955 9.8845 7.8955ZM9.8845 10.8955H14.2308C14.3731 10.8955 14.492 10.9432 14.5875 11.0387C14.683 11.1342 14.7308 11.2532 14.7308 11.3955C14.7308 11.5378 14.683 11.6567 14.5875 11.7522C14.492 11.8477 14.3731 11.8955 14.2308 11.8955H9.8845C9.74233 11.8955 9.6235 11.8477 9.528 11.7522C9.43233 11.6567 9.3845 11.5378 9.3845 11.3955C9.3845 11.2532 9.43233 11.1342 9.528 11.0387C9.6235 10.9432 9.74233 10.8955 9.8845 10.8955ZM16.8845 9.16475C16.6782 9.16475 16.4984 9.08816 16.3453 8.935C16.1921 8.78166 16.1155 8.60183 16.1155 8.3955C16.1155 8.18916 16.1921 8.00933 16.3453 7.856C16.4984 7.70283 16.6782 7.62625 16.8845 7.62625C17.091 7.62625 17.2708 7.70283 17.424 7.856C17.5772 8.00933 17.6538 8.18916 17.6538 8.3955C17.6538 8.60183 17.5772 8.78166 17.424 8.935C17.2708 9.08816 17.091 9.16475 16.8845 9.16475ZM16.8845 12.1647C16.6782 12.1647 16.4984 12.0882 16.3453 11.935C16.1921 11.7817 16.1155 11.6018 16.1155 11.3955C16.1155 11.1892 16.1921 11.0093 16.3453 10.856C16.4984 10.7028 16.6782 10.6262 16.8845 10.6262C17.091 10.6262 17.2708 10.7028 17.424 10.856C17.5772 11.0093 17.6538 11.1892 17.6538 11.3955C17.6538 11.6018 17.5772 11.7817 17.424 11.935C17.2708 12.0882 17.091 12.1647 16.8845 12.1647ZM6 20.3955H16V18.3955H5V19.3955C5 19.6788 5.09583 19.9163 5.2875 20.108C5.47917 20.2997 5.71667 20.3955 6 20.3955Z" fill="#1D478E"/>
</g>
</svg>
