<svg width="29" height="34" viewBox="0 0 29 34" fill="none" xmlns="http://www.w3.org/2000/svg">
<path d="M20.7321 24.0805C18.5246 26.8509 15.9422 28.3346 14.4296 29.0274C14.334 29.0716 14.2309 29.0896 14.1279 29.083C14.0514 29.079 13.9758 29.0601 13.9043 29.0274C12.3916 28.3346 9.80924 26.8509 7.60256 24.0805C4.70603 20.4471 3.38783 15.7594 3.67956 10.1417C3.69037 9.91759 3.82751 9.7172 4.03363 9.62068L13.901 5.00824C13.9733 4.97389 14.0497 4.95507 14.1279 4.95098C14.2317 4.9428 14.3373 4.96325 14.4337 5.00824L24.301 9.61986C24.5072 9.71638 24.6426 9.91759 24.6543 10.1409C24.946 15.7594 23.6278 20.4471 20.7329 24.0805H20.7321Z" fill="#161742"/>
<g opacity="0.3">
<path d="M20.7375 24.0804C18.5283 26.8507 15.944 28.3344 14.4301 29.0272C14.3345 29.0714 14.2313 29.0894 14.1282 29.0828V4.95147C14.2321 4.94329 14.3378 4.96374 14.4343 5.00873L24.3092 9.62021C24.5155 9.71672 24.6511 9.91793 24.6627 10.1412C24.9547 15.7596 23.6355 20.4471 20.7384 24.0804H20.7375Z" fill="#1D478E"/>
</g>
<path d="M17.9705 15.3284C17.8145 14.9799 17.469 14.7373 17.0676 14.7373H16.8633V12.8092C16.8633 11.3328 15.6858 10.1362 14.2338 10.1362H14.1808C12.7284 10.1362 11.5513 11.3328 11.5513 12.8092V14.7373H11.3466C10.7998 14.7373 10.356 15.188 10.356 15.7443V20.94C10.356 21.4959 10.7994 21.947 11.3466 21.947H17.068C17.6152 21.947 18.0587 21.4963 18.0587 20.94V15.7443C18.0587 15.596 18.0271 15.4553 17.9705 15.3288V15.3284ZM12.3208 12.8092C12.3208 11.7665 13.1551 10.9189 14.1804 10.9189H14.2334C15.2588 10.9189 16.093 11.7669 16.093 12.8092V14.7373H12.3204V12.8092H12.3208ZM14.6114 18.2892L14.8286 20.0852C14.8395 20.176 14.7701 20.2561 14.68 20.2561H13.7342C13.6441 20.2561 13.5747 20.176 13.5856 20.0852L13.8029 18.2892C13.4569 18.1255 13.2225 17.7587 13.2491 17.3393C13.2799 16.8568 13.6632 16.4647 14.1379 16.431C14.6991 16.3909 15.1671 16.8421 15.1671 17.4043C15.1671 17.7964 14.9394 18.1342 14.6114 18.2896V18.2892Z" fill="white"/>
<path d="M23.7318 26.5962C25.4362 24.8946 25.4362 22.1357 23.7318 20.4341C22.0273 18.7324 19.2638 18.7324 17.5593 20.4341C15.8549 22.1357 15.8549 24.8946 17.5593 26.5962C19.2638 28.2979 22.0273 28.2979 23.7318 26.5962Z" fill="#32B353"/>
<path d="M22.7738 22.1432C22.6911 22.0752 22.5911 22.0396 22.4843 22.0396C22.3468 22.0396 22.2175 22.1009 22.1306 22.2071L20.3408 24.3648L19.4623 23.7037C19.3545 23.6225 19.2196 23.5929 19.0823 23.6234C19.0172 23.6379 18.9557 23.6677 18.9037 23.7098C18.662 23.9062 18.6809 24.2605 18.9127 24.4351L20.3505 25.517C20.4297 25.5767 20.5416 25.5633 20.6047 25.4872L22.8377 22.7874C22.9977 22.5922 22.9688 22.3034 22.7738 22.1432Z" fill="white"/>
</svg>
