<svg width="150" height="176" viewBox="0 0 150 176" fill="none" xmlns="http://www.w3.org/2000/svg">
<ellipse cx="95.5" cy="114" rx="69.5" ry="69" fill="#EFF9FD"/>
<path d="M66.3633 134.82C66.1939 134.72 66.0109 134.684 65.7965 134.732L61.9233 135.597C61.3889 134.406 60.6661 133.422 59.7445 132.663L65.0262 131.488C65.2388 131.433 65.3942 131.332 65.503 131.168C65.6099 130.997 65.6387 130.816 65.5909 130.602L65.0781 128.295C65.0303 128.081 64.9227 127.927 64.7585 127.819C64.5873 127.712 64.399 127.685 64.1917 127.731L45.3398 131.937C45.1325 131.983 44.97 132.085 44.863 132.256C44.7613 132.418 44.7273 132.608 44.7751 132.823L45.4477 135.836C45.49 136.029 45.5995 136.189 45.7778 136.294C45.9508 136.408 46.141 136.442 46.3323 136.393L49.619 135.657C52.8064 134.947 55.0192 135.349 56.2642 136.863L46.902 138.949C46.6966 139.002 46.5341 139.105 46.4253 139.269C46.3165 139.433 46.2895 139.621 46.3373 139.835L46.8501 142.142C46.905 142.354 47.0056 142.51 47.1697 142.618C47.3338 142.727 47.5221 142.754 47.7365 142.706L57.4141 140.553C57.3532 141.868 56.7867 142.981 55.7164 143.899C54.6461 144.818 53.1143 145.5 51.1192 145.94L48.582 146.505C48.3836 146.556 48.2301 146.664 48.116 146.837C48.0038 147.017 47.9679 147.2 48.0102 147.393L48.6481 150.271C48.6922 150.471 48.7981 150.618 48.9622 150.727C52.5535 153.159 57.2674 156.631 63.1268 161.144C63.3019 161.295 63.5099 161.339 63.7545 161.291L68.1716 160.309C68.487 160.242 68.6808 160.056 68.7388 159.754C68.8252 159.445 68.7452 159.194 68.4757 158.999C62.8654 154.573 58.4921 151.308 55.3716 149.176C57.8745 148.303 59.769 147.006 61.0728 145.294C62.3748 143.576 62.9525 141.599 62.8163 139.346L66.6257 138.498C66.8312 138.445 66.9937 138.342 67.0954 138.18C67.2042 138.016 67.2311 137.828 67.1833 137.614L66.6705 135.307C66.6157 135.095 66.5151 134.939 66.351 134.831L66.3633 134.82Z" fill="#E8F6FD"/>
<rect x="84.1" y="37.1" width="15.8" height="15.8" rx="7.9" fill="white"/>
<rect x="84.1" y="37.1" width="15.8" height="15.8" rx="7.9" stroke="#8CD6F5" stroke-width="0.2"/>
<g clip-path="url(#clip0_4486_3851)">
<path d="M88 41H96V49H88V41Z" fill="#ED232A"/>
<path d="M89.4002 42.4002H94.6008V47.6008H89.4002V42.4002Z" fill="white"/>
<path d="M91.6001 41H92.3998V49H91.6001V41Z" fill="white"/>
<path d="M88 44.6011H96V45.4008H88V44.6011Z" fill="white"/>
<path d="M90.8004 43.8004H93.2005V46.2006H90.8004V43.8004Z" fill="#004C8F"/>
</g>
<rect x="20.1" y="84.1" width="15.8" height="15.8" rx="7.9" fill="white"/>
<rect x="20.1" y="84.1" width="15.8" height="15.8" rx="7.9" stroke="#8CD6F5" stroke-width="0.2"/>
<g clip-path="url(#clip1_4486_3851)">
<path d="M28.4735 87.5121C28.3166 87.2434 28.1597 86.9748 28.0031 86.7059C27.0025 88.4223 25.9982 90.1365 24.9938 91.8507C24.3627 92.9279 23.7315 94.0052 23.1012 95.0831C23.0652 95.1469 23.0353 95.2139 23.0055 95.2809L23 95.2932C24.0372 95.2947 25.0744 95.2951 26.1116 95.2888C26.2314 95.0837 26.3504 94.878 26.4694 94.6724C26.6683 94.3287 26.8673 93.9849 27.0697 93.6432C27.7179 92.5494 28.3428 91.442 28.9678 90.3348C29.1558 90.0016 29.3438 89.6685 29.5324 89.3357C29.1827 88.7259 28.8281 88.119 28.4735 87.5121Z" fill="#AE285D"/>
<path d="M28.6934 92.0478C28.4634 92.0482 28.2335 92.0486 28.0035 92.0487C28.36 92.6888 28.7301 93.3209 29.1003 93.9531C29.361 94.3983 29.6217 94.8436 29.8777 95.2917C30.1533 95.2919 30.4288 95.2924 30.7043 95.2928C31.4695 95.294 32.2347 95.2952 33 95.2914C32.6562 94.685 32.3045 94.0832 31.9528 93.4814C31.676 93.0078 31.3991 92.5342 31.1262 92.0583C30.3153 92.0448 29.5043 92.0463 28.6934 92.0478Z" fill="#AE285D"/>
</g>
<rect x="44.1" y="49.1" width="19.8" height="19.8" rx="9.9" fill="white"/>
<rect x="44.1" y="49.1" width="19.8" height="19.8" rx="9.9" stroke="#8CD6F5" stroke-width="0.2"/>
<g clip-path="url(#clip2_4486_3851)">
<path d="M51.5956 55.6066C54.3358 52.8865 57.6601 52.1806 58.9904 54.0346C60.3207 55.8885 59.1515 59.6358 56.4113 62.3558C53.6712 65.096 50.3469 65.8009 48.9964 63.9268C47.6873 62.0537 48.8565 58.3256 51.5956 55.6066Z" fill="#F06321"/>
<path d="M53.4093 54.1554C53.1072 54.377 52.8051 54.6388 52.503 54.9218C50.1052 57.2984 49.0971 60.5622 50.2865 62.1946C51.5151 63.8261 54.4566 63.2218 56.9148 60.8241C58.2451 59.535 59.1313 58.0436 59.4939 56.6539C59.5946 55.6267 59.4536 54.7194 58.9904 54.0346C57.943 52.5844 55.6862 52.7043 53.4093 54.1554Z" fill="#AE282E"/>
<path d="M56.8745 54.4575V54.5179C56.8544 54.8603 56.653 55.2833 56.2905 55.6458C55.7467 56.1695 55.0216 56.3709 54.7185 56.0698C54.3761 55.7475 54.5785 55.0416 55.1223 54.4777C55.6862 53.9339 56.4113 53.7526 56.7134 54.0748C56.8141 54.1755 56.8745 54.2964 56.8745 54.4575ZM54.7799 63.7052C53.4899 64.672 52.1606 65.1564 50.8705 64.955C51.4143 64.9751 51.8585 64.3699 52.221 63.5642C52.5835 62.7384 52.7849 61.9731 52.9662 61.247C53.228 60.099 53.2482 59.2933 53.1072 59.1121C52.8856 58.8291 52.4023 58.8905 51.8373 59.2128C51.5553 59.3739 51.1928 59.2732 51.6168 58.7495C52.0599 58.2259 53.7718 56.9761 54.3761 56.7747C55.0619 56.5935 55.8272 56.8553 55.5654 57.6005C55.3831 58.1443 53.0065 64.3497 54.7799 63.7052Z" fill="white"/>
</g>
<path d="M43 0V176" stroke="url(#paint0_linear_4486_3851)" stroke-width="0.2"/>
<path d="M64 0V176" stroke="url(#paint1_linear_4486_3851)" stroke-width="0.2"/>
<path d="M86 0V176" stroke="url(#paint2_linear_4486_3851)" stroke-width="0.2"/>
<path d="M107 0V176" stroke="url(#paint3_linear_4486_3851)" stroke-width="0.2"/>
<path d="M129 0V176" stroke="url(#paint4_linear_4486_3851)" stroke-width="0.2"/>
<path d="M150 0V176" stroke="url(#paint5_linear_4486_3851)" stroke-width="0.2"/>
<path d="M150 116L-21 116" stroke="url(#paint6_linear_4486_3851)" stroke-width="0.2"/>
<path d="M123.804 60.8827C125.514 61.6619 127.965 60.2034 130.029 57.4436L122.359 53.9383C121.607 57.2962 122.096 60.1022 123.804 60.8827Z" fill="#AF8E2F"/>
<path d="M123.114 51.4636L131.421 55.2574C131.62 54.8953 131.811 54.5247 131.992 54.1368L123.594 50.2997C123.419 50.6874 123.26 51.0758 123.115 51.4598L123.114 51.4636Z" fill="#AF8E2F"/>
<path d="M130.162 42.5515L122.086 60.0979L124.145 61.0383L132.221 43.4918L130.162 42.5515Z" fill="#AF8E2F"/>
<path d="M131.88 43.3376C130.491 42.7044 128.613 43.5486 126.848 45.3682L133.616 48.4598C133.849 45.9403 133.266 43.9721 131.878 43.3351L131.88 43.3376Z" fill="#AF8E2F"/>
<path d="M122.357 53.9397L130.027 57.445C130.519 56.7881 130.985 56.0527 131.419 55.2604L123.112 51.4666C122.792 52.3091 122.537 53.1415 122.358 53.9421L122.357 53.9397Z" fill="#D6B11E"/>
<path d="M123.64 50.1923C123.622 50.2308 123.61 50.2666 123.591 50.3027L131.989 54.1398C132.007 54.1013 132.025 54.069 132.042 54.0305C132.937 52.0851 133.461 50.152 133.618 48.4609L126.85 45.3693C125.666 46.5894 124.538 48.248 123.643 50.1909L123.64 50.1923Z" fill="#D6B11E"/>
<path d="M130.791 53.4562C133.021 48.6109 132.947 43.8237 130.626 42.7637C128.305 41.7037 124.616 44.7723 122.386 49.6176C120.156 54.4629 120.23 59.2501 122.551 60.3101C124.872 61.3702 128.561 58.3015 130.791 53.4562Z" fill="#AF8E2F"/>
<path d="M130.477 53.311C132.707 48.4657 132.633 43.6785 130.312 42.6184C127.991 41.5584 124.302 44.627 122.072 49.4724C119.841 54.3177 119.915 59.1049 122.236 60.1649C124.557 61.2249 128.247 58.1563 130.477 53.311Z" fill="#FFD840"/>
<path d="M129.509 52.8709C131.283 49.0176 131.272 45.2325 129.486 44.4166C127.699 43.6007 124.813 46.063 123.04 49.9163C121.266 53.7696 121.277 57.5547 123.063 58.3706C124.85 59.1865 127.736 56.7242 129.509 52.8709Z" fill="#FFD325"/>
<path d="M125.646 53.5324L124.564 54.3599L124.513 53.3026L125.595 52.4751C126.106 52.0839 126.494 51.2365 126.464 50.5849C126.434 49.9333 125.993 49.721 125.482 50.1122L124.349 50.977L124.298 49.9197L125.431 49.055C126.397 48.3163 127.234 48.7173 127.293 49.9536C127.35 51.1873 126.612 52.7937 125.646 53.5324Z" fill="#AF8E2F"/>
<path d="M128.284 49.7448L124.431 52.6902L124.38 51.6329L128.233 48.6875L128.284 49.7448Z" fill="#AF8E2F"/>
<path d="M128.201 48.0324L124.349 50.9803L124.298 49.923L128.151 46.9776L128.201 48.0324Z" fill="#AF8E2F"/>
<path d="M127.419 54.6799L125.158 53.1863L124.566 54.3568L126.32 55.5169L127.419 54.6799Z" fill="#AF8E2F"/>
<path d="M150 96L-21 96" stroke="url(#paint7_linear_4486_3851)" stroke-width="0.2"/>
<path d="M150 136L-21 136" stroke="url(#paint8_linear_4486_3851)" stroke-width="0.2"/>
<path d="M150 156L-21 156" stroke="url(#paint9_linear_4486_3851)" stroke-width="0.2"/>
<g clip-path="url(#clip3_4486_3851)">
<path d="M152.44 111.492H61.8325V180.235H152.44V111.492Z" fill="#1D478E" fill-opacity="0.9"/>
<path d="M152.44 111.492H61.8325V119.195H152.44V111.492Z" fill="#0E2C5E"/>
<path d="M107.134 71L56.0747 93.6829V95.6372H107.134H158.193V93.6829L107.134 71Z" fill="#0E2C5E"/>
<path d="M107.135 73.4636L61.6821 93.683H65.4624L107.135 74.7522L148.806 93.683H152.587L107.135 73.4636Z" fill="#161742"/>
<path d="M107.136 74.7522L65.4634 93.6829H107.136H148.807L107.136 74.7522Z" fill="#5BC4F0"/>
<path d="M107.134 95.6373H56.0747L58.1137 98.016H107.134H156.155L158.193 95.6373H107.134Z" fill="#161742"/>
<path d="M107.134 109.525H56.0747L58.1137 111.904H107.134H156.155L158.193 109.525H107.134Z" fill="#1D478E"/>
<path d="M156.157 98.0162H58.1157V107.871H156.157V98.0162Z" fill="#1D478E"/>
<path d="M122.073 101.719H91.4478V102.593H122.073V101.719Z" fill="#0E2C5E"/>
<path d="M122.073 103.532H91.4478V104.405H122.073V103.532Z" fill="#0E2C5E"/>
<path d="M158.078 107.871H56.188V109.525H158.078V107.871Z" fill="#0E2C5E"/>
<path d="M156.157 111.904H58.1157V114.396H156.157V111.904Z" fill="#5BC4F0"/>
<path d="M73.8854 123.993H61.7428V170.639H73.8854V123.993Z" fill="#161742"/>
<path d="M73.8867 123.993H67.8052V170.639H73.8867V123.993Z" fill="#161742"/>
<path d="M75.9505 114.396H59.6587V115.395H75.9505V114.396Z" fill="#161742"/>
<path d="M75.9515 114.396H67.8052V115.395H75.9515V114.396Z" fill="#161742"/>
<path d="M74.8515 120.998H60.7759V121.997H74.8515V120.998Z" fill="#0E2C5E"/>
<path d="M74.8528 120.998H67.8052V121.997H74.8528V120.998Z" fill="#0E2C5E"/>
<path d="M67.8043 115.395H59.6588L60.7763 117.39H67.8043H74.8323L75.9507 115.395H67.8043Z" fill="#1D478E"/>
<path d="M67.8133 121.998H60.7759L61.742 123.993H67.8133H73.8845L74.8506 121.998H67.8133Z" fill="#1D478E"/>
<path d="M74.8302 117.391H60.7759V121H74.8302V117.391Z" fill="#0E2C5E"/>
<path d="M74.8343 117.391H67.8071V121H74.8343V117.391Z" fill="#0E2C5E"/>
<path d="M67.8043 115.395H59.6588L60.7763 117.39H67.8043V115.395Z" fill="#161742"/>
<path d="M67.8014 115.395V117.39H74.8294L75.9478 115.395H67.8014Z" fill="#161742"/>
<path d="M67.8152 121.998H60.7778L61.7439 123.993H67.8152V121.998Z" fill="#161742"/>
<path d="M67.815 121.998V123.993H73.8862L74.8523 121.998H67.815Z" fill="#161742"/>
<path d="M74.8516 172.634H60.776V173.633H74.8516V172.634Z" fill="#0E2C5E"/>
<path d="M74.8529 172.634H67.8053V173.633H74.8529V172.634Z" fill="#0E2C5E"/>
<path d="M67.8134 172.634H60.776L61.7421 170.639H67.8134H73.8847L74.8508 172.634H67.8134Z" fill="#1D478E"/>
<path d="M74.8304 173.632H60.776V177.241H74.8304V173.632Z" fill="#0E2C5E"/>
<path d="M74.8344 173.632H67.8073V177.241H74.8344V173.632Z" fill="#0E2C5E"/>
<path d="M67.8154 172.634H60.778L61.7441 170.639H67.8154V172.634Z" fill="#161742"/>
<path d="M67.8151 172.634V170.639H73.8864L74.8525 172.634H67.8151Z" fill="#161742"/>
<path d="M99.8608 123.995H87.7212V170.642H99.8608V123.995Z" fill="#161742"/>
<path d="M99.8579 123.995H93.7779V170.642H99.8579V123.995Z" fill="#161742"/>
<path d="M101.923 114.398H85.6353V115.397H101.923V114.398Z" fill="#161742"/>
<path d="M101.922 114.398H93.7779V115.397H101.922V114.398Z" fill="#161742"/>
<path d="M100.825 121.001H86.7525V122H100.825V121.001Z" fill="#0E2C5E"/>
<path d="M100.824 121.001H93.7779V122H100.824V121.001Z" fill="#0E2C5E"/>
<path d="M93.7796 115.397H93.7788H85.6353L86.7533 117.392H93.7788H93.7796H100.805L101.923 115.397H93.7796Z" fill="#1D478E"/>
<path d="M93.7881 122H93.7873H86.7525L87.7183 123.995H93.7873H93.7881H99.8571L100.823 122H93.7881Z" fill="#1D478E"/>
<path d="M100.803 117.393H86.7525V121.002H100.803V117.393Z" fill="#0E2C5E"/>
<path d="M100.803 117.393H93.7779V121.002H100.803V117.393Z" fill="#0E2C5E"/>
<path d="M93.7807 115.397H85.6372L86.7553 117.392H93.7807H93.7816V115.397H93.7807Z" fill="#161742"/>
<path d="M93.7798 115.397V117.392H100.805L101.923 115.397H93.7798Z" fill="#161742"/>
<path d="M93.7912 122H86.7564L87.7222 123.995H93.7912H93.792V122H93.7912Z" fill="#161742"/>
<path d="M93.7896 122V123.995H99.8585L100.824 122H93.7896Z" fill="#161742"/>
<path d="M100.825 172.636H86.7525V173.635H100.825V172.636Z" fill="#0E2C5E"/>
<path d="M100.824 172.636H93.7779V173.635H100.824V172.636Z" fill="#0E2C5E"/>
<path d="M93.7881 172.636H93.7873H86.7525L87.7183 170.642H93.7873H93.7881H99.8571L100.823 172.636H93.7881Z" fill="#1D478E"/>
<path d="M100.803 173.635H86.7525V177.243H100.803V173.635Z" fill="#0E2C5E"/>
<path d="M100.803 173.635H93.7779V177.243H100.803V173.635Z" fill="#0E2C5E"/>
<path d="M93.7912 172.636H86.7564L87.7222 170.641H93.7912H93.792V172.636H93.7912Z" fill="#161742"/>
<path d="M93.7896 172.636V170.641H99.8585L100.824 172.636H93.7896Z" fill="#161742"/>
<path d="M125.973 123.995H113.831V170.642H125.973V123.995Z" fill="#161742"/>
<path d="M125.975 123.995H119.893V170.642H125.975V123.995Z" fill="#161742"/>
<path d="M128.037 114.398H111.745V115.397H128.037V114.398Z" fill="#161742"/>
<path d="M128.038 114.398H119.891V115.397H128.038V114.398Z" fill="#161742"/>
<path d="M126.939 121.001H112.864V122H126.939V121.001Z" fill="#0E2C5E"/>
<path d="M126.939 121.001H119.891V122H126.939V121.001Z" fill="#0E2C5E"/>
<path d="M119.891 115.397H119.89H111.745L112.863 117.392H119.89H119.891H126.918L128.037 115.397H119.891Z" fill="#1D478E"/>
<path d="M119.903 122H119.902H112.866L113.832 123.995H119.902H119.903H125.974L126.94 122H119.903Z" fill="#1D478E"/>
<path d="M126.92 117.393H112.866V121.002H126.92V117.393Z" fill="#0E2C5E"/>
<path d="M126.918 117.393H119.891V121.002H126.918V117.393Z" fill="#0E2C5E"/>
<path d="M119.89 115.397H111.745L112.863 117.392H119.89H119.891V115.397H119.89Z" fill="#161742"/>
<path d="M119.891 115.397V117.392H126.918L128.037 115.397H119.891Z" fill="#161742"/>
<path d="M119.906 122H112.87L113.836 123.995H119.906H119.907V122H119.906Z" fill="#161742"/>
<path d="M119.907 122V123.995H125.978L126.943 122H119.907Z" fill="#161742"/>
<path d="M126.939 172.636H112.864V173.635H126.939V172.636Z" fill="#0E2C5E"/>
<path d="M126.939 172.636H119.891V173.635H126.939V172.636Z" fill="#0E2C5E"/>
<path d="M119.903 172.636H119.902H112.866L113.832 170.642H119.902H119.903H125.974L126.94 172.636H119.903Z" fill="#161742"/>
<path d="M126.92 173.635H112.866V177.243H126.92V173.635Z" fill="#0E2C5E"/>
<path d="M126.918 173.635H119.891V177.243H126.918V173.635Z" fill="#0E2C5E"/>
<path d="M119.906 172.636H112.87L113.836 170.641H119.906H119.907V172.636H119.906Z" fill="#161742"/>
<path d="M119.907 172.636V170.641H125.978L126.943 172.636H119.907Z" fill="#161742"/>
<path d="M152.084 123.995H139.942V170.642H152.084V123.995Z" fill="#161742"/>
<path d="M152.084 123.995H146.002V170.642H152.084V123.995Z" fill="#161742"/>
<path d="M154.15 114.398H137.858V115.397H154.15V114.398Z" fill="#161742"/>
<path d="M154.151 114.398H146.004V115.397H154.151V114.398Z" fill="#161742"/>
<path d="M153.051 121.001H138.975V122H153.051V121.001Z" fill="#0E2C5E"/>
<path d="M153.052 121.001H146.004V122H153.052V121.001Z" fill="#0E2C5E"/>
<path d="M146.004 115.397H137.858L138.976 117.392H146.004H153.032L154.15 115.397H146.004Z" fill="#1D478E"/>
<path d="M146.012 122H138.975L139.941 123.995H146.012H152.084L153.05 122H146.012Z" fill="#1D478E"/>
<path d="M153.029 117.393H138.975V121.002H153.029V117.393Z" fill="#0E2C5E"/>
<path d="M153.032 117.393H146.004V121.002H153.032V117.393Z" fill="#0E2C5E"/>
<path d="M146.004 115.397H137.858L138.976 117.392H146.004V115.397Z" fill="#161742"/>
<path d="M146.004 115.397V117.392H153.032L154.15 115.397H146.004Z" fill="#161742"/>
<path d="M146.012 122H138.975L139.941 123.995H146.012V122Z" fill="#161742"/>
<path d="M146.012 122V123.995H152.083L153.05 122H146.012Z" fill="#161742"/>
<path d="M153.051 172.637H138.975V173.635H153.051V172.637Z" fill="#0E2C5E"/>
<path d="M153.052 172.637H146.004V173.635H153.052V172.637Z" fill="#0E2C5E"/>
<path d="M146.012 172.636H138.975L139.941 170.641H146.012H152.084L153.05 172.636H146.012Z" fill="#161742"/>
<path d="M153.029 173.635H138.975V177.243H153.029V173.635Z" fill="#0E2C5E"/>
<path d="M153.032 173.635H146.004V177.243H153.032V173.635Z" fill="#0E2C5E"/>
<path d="M146.012 172.636H138.975L139.941 170.642H146.012V172.636Z" fill="#161742"/>
<path d="M146.012 172.636V170.642H152.083L153.05 172.636H146.012Z" fill="#161742"/>
<path d="M136.485 98.9099L134.869 97.2356L131.613 99.5681L133.23 101.242L136.485 98.9099Z" fill="#AF8E2F"/>
<path d="M133.231 101.243L131.615 99.5684L128.338 101.916L129.955 103.59L133.231 101.243Z" fill="#D6B11E"/>
<path d="M129.954 103.591L128.336 101.916L124.05 104.989L125.693 106.642L129.954 103.591Z" fill="#AF8E2F"/>
<path d="M124.05 104.99L120.095 107.824L121.709 109.497L125.693 106.642L124.05 104.99Z" fill="#D6B11E"/>
<path d="M107.334 170.975C108.367 170.113 107.949 168.215 106.47 166.224L101.831 170.091C104.103 171.419 106.299 171.836 107.332 170.974L107.334 170.975Z" fill="#AF8E2F"/>
<path d="M100.213 168.988L105.236 164.801C105.023 164.586 104.8 164.371 104.565 164.159L99.487 168.392C99.7268 168.6 99.9695 168.799 100.213 168.988Z" fill="#AF8E2F"/>
<path d="M95.5374 162.322L106.295 171.84L107.54 170.802L96.7822 161.284L95.5374 162.322Z" fill="#AF8E2F"/>
<path d="M96.5787 161.457C95.7381 162.158 95.8586 163.542 96.7251 165.104L100.818 161.691C99.0253 160.9 97.4174 160.756 96.5768 161.456L96.5787 161.457Z" fill="#AF8E2F"/>
<path d="M101.832 170.09L106.471 166.223C106.119 165.75 105.701 165.269 105.235 164.798L100.212 168.985C100.748 169.399 101.292 169.771 101.833 170.088L101.832 170.09Z" fill="#D6B11E"/>
<path d="M99.4154 168.333C99.4391 168.353 99.4608 168.371 99.4845 168.391L104.562 164.158C104.54 164.137 104.519 164.116 104.497 164.098C103.305 163.042 102.019 162.22 100.818 161.691L96.726 165.105C97.3079 166.153 98.2247 167.28 99.4174 168.334L99.4154 168.333Z" fill="#D6B11E"/>
<path d="M95.8229 162.087C94.4197 163.257 95.6904 166.337 98.6611 168.965C101.632 171.593 105.178 172.775 106.581 171.605C107.984 170.435 106.713 167.356 103.743 164.727C100.772 162.099 97.2261 160.917 95.8229 162.087Z" fill="#AF8E2F"/>
<path d="M95.6315 162.245C94.2282 163.416 95.499 166.495 98.4697 169.123C101.44 171.751 104.986 172.933 106.389 171.763C107.793 170.593 106.522 167.514 103.551 164.885C100.58 162.257 97.0347 161.075 95.6315 162.245Z" fill="#FFD840"/>
<path d="M96.7337 163.218C97.813 162.317 100.604 163.281 102.967 165.372C105.328 167.462 106.369 169.886 105.287 170.788C104.208 171.689 101.416 170.725 99.0536 168.634C96.6929 166.543 95.6514 164.119 96.7337 163.218Z" fill="#FFD325"/>
<path d="M102.417 167.943L102.735 168.827L101.943 168.588L101.625 167.703C101.474 167.286 100.955 166.827 100.468 166.679C99.9796 166.531 99.7043 166.75 99.8546 167.167L100.189 168.093L99.3965 167.853L99.0624 166.927C98.7765 166.137 99.2973 165.722 100.223 166.001C101.148 166.279 102.132 167.151 102.418 167.941L102.417 167.943Z" fill="#AF8E2F"/>
<path d="M100.332 165.328L101.468 168.478L100.676 168.239L99.5403 165.088L100.332 165.328Z" fill="#AF8E2F"/>
<path d="M99.0512 164.941L100.189 168.093L99.3968 167.853L98.259 164.702L99.0512 164.941Z" fill="#AF8E2F"/>
<path d="M103.737 167.132L102.033 168.152L102.735 168.821L104.062 168.027L103.737 167.132Z" fill="#AF8E2F"/>
<path d="M65.3788 76.0153C66.0395 77.7745 68.8053 78.4725 72.2155 77.9756L69.2591 70.0777C66.3554 71.9243 64.7208 74.257 65.3788 76.0153Z" fill="#AF8E2F"/>
<path d="M71.541 68.8583L74.7449 77.4102C75.1413 77.2942 75.5381 77.1666 75.9405 77.02L72.7026 68.3729C72.3048 68.5237 71.9183 68.6867 71.5445 68.8564L71.541 68.8583Z" fill="#AF8E2F"/>
<path d="M82.8284 67.5248L64.7206 74.248L65.5146 76.3677L83.6224 69.6444L82.8284 67.5248Z" fill="#AF8E2F"/>
<path d="M83.4897 69.294C82.9533 67.865 81.0273 67.1367 78.4927 67.1791L81.1025 74.1471C83.0469 72.5278 84.0233 70.7222 83.4905 69.2913L83.4897 69.294Z" fill="#AF8E2F"/>
<path d="M69.257 70.0779L72.2134 77.9758C73.0257 77.8581 73.8746 77.666 74.7416 77.4116L71.5377 68.8596C70.7162 69.2301 69.948 69.6398 69.2562 70.0806L69.257 70.0779Z" fill="#D6B11E"/>
<path d="M72.8146 68.3307C72.7749 68.3456 72.7407 68.362 72.7018 68.3741L75.9397 77.0212C75.9794 77.0064 76.0148 76.9962 76.0545 76.9814C78.0614 76.2352 79.7976 75.2365 81.1028 74.1498L78.493 67.1818C76.7934 67.2101 74.8235 67.5881 72.8173 68.3315L72.8146 68.3307Z" fill="#D6B11E"/>
<path d="M75.5669 75.6894C80.5672 73.8329 83.8951 70.3908 83 68.0013C82.1048 65.6119 77.3256 65.1799 72.3252 67.0365C67.3249 68.893 63.997 72.3351 64.8922 74.7246C65.7873 77.114 70.5666 77.546 75.5669 75.6894Z" fill="#AF8E2F"/>
<path d="M75.4519 75.3663C80.4522 73.5098 83.7801 70.0677 82.885 67.6782C81.9898 65.2888 77.2106 64.8568 72.2102 66.7134C67.2099 68.57 63.882 72.012 64.7772 74.4015C65.6723 76.7909 70.4515 77.2229 75.4519 75.3663Z" fill="#FFD840"/>
<path d="M75.0819 74.3727C79.0585 72.8963 81.7236 70.2084 81.0346 68.3693C80.3456 66.5301 76.5634 66.2361 72.5868 67.7125C68.6102 69.189 65.9451 71.8768 66.6341 73.716C67.3231 75.5552 71.1053 75.8492 75.0819 74.3727Z" fill="#FFD325"/>
<path d="M71.875 72.1138L70.5245 71.9358L71.2346 71.1508L72.585 71.3288C73.2234 71.4128 74.0967 71.0868 74.5356 70.6043C74.9744 70.1218 74.812 69.66 74.1736 69.576L72.7611 69.3887L73.4712 68.6036L74.8837 68.7909C76.0894 68.95 76.399 69.825 75.5678 70.742C74.7374 71.6563 73.0807 72.2728 71.875 72.1138Z" fill="#AF8E2F"/>
<path d="M76.4183 71.2953L71.6099 70.6603L72.3199 69.8753L77.1284 70.5103L76.4183 71.2953Z" fill="#AF8E2F"/>
<path d="M77.5733 70.0247L72.7641 69.3924L73.4742 68.6074L78.2826 69.2424L77.5733 70.0247Z" fill="#AF8E2F"/>
<path d="M72.3229 74.18L71.7768 71.5262L70.531 71.937L70.9535 73.9965L72.3229 74.18Z" fill="#AF8E2F"/>
<path d="M58.0383 121.933L56.2525 123.722L59.2626 126.709L61.0485 124.919L58.0383 121.933Z" fill="#AF8E2F"/>
<path d="M61.05 124.92L59.2642 126.71L62.294 129.716L64.0798 127.926L61.05 124.92Z" fill="#D6B11E"/>
<path d="M64.0848 127.922L62.3001 129.712L66.266 133.646L68.0242 131.829L64.0848 127.922Z" fill="#AF8E2F"/>
<path d="M66.2664 133.646L69.9253 137.276L71.71 135.486L68.0245 131.83L66.2664 133.646Z" fill="#D6B11E"/>
</g>
<defs>
<linearGradient id="paint0_linear_4486_3851" x1="43.5" y1="0" x2="43.5" y2="176" gradientUnits="userSpaceOnUse">
<stop stop-color="#E2E2E2" stop-opacity="0"/>
<stop offset="1" stop-color="#E2E2E2"/>
</linearGradient>
<linearGradient id="paint1_linear_4486_3851" x1="64.5" y1="0" x2="64.5" y2="176" gradientUnits="userSpaceOnUse">
<stop stop-color="#E2E2E2" stop-opacity="0"/>
<stop offset="1" stop-color="#E2E2E2"/>
</linearGradient>
<linearGradient id="paint2_linear_4486_3851" x1="86.5" y1="0" x2="86.5" y2="176" gradientUnits="userSpaceOnUse">
<stop stop-color="#E2E2E2" stop-opacity="0"/>
<stop offset="1" stop-color="#E2E2E2"/>
</linearGradient>
<linearGradient id="paint3_linear_4486_3851" x1="107.5" y1="0" x2="107.5" y2="176" gradientUnits="userSpaceOnUse">
<stop stop-color="#E2E2E2" stop-opacity="0"/>
<stop offset="1" stop-color="#E2E2E2"/>
</linearGradient>
<linearGradient id="paint4_linear_4486_3851" x1="129.5" y1="0" x2="129.5" y2="176" gradientUnits="userSpaceOnUse">
<stop stop-color="#E2E2E2" stop-opacity="0"/>
<stop offset="1" stop-color="#E2E2E2"/>
</linearGradient>
<linearGradient id="paint5_linear_4486_3851" x1="150.5" y1="0" x2="150.5" y2="176" gradientUnits="userSpaceOnUse">
<stop stop-color="#E2E2E2" stop-opacity="0"/>
<stop offset="1" stop-color="#E2E2E2"/>
</linearGradient>
<linearGradient id="paint6_linear_4486_3851" x1="150" y1="116.5" x2="-19.8968" y2="116.502" gradientUnits="userSpaceOnUse">
<stop stop-color="#E2E2E2"/>
<stop offset="1" stop-color="#E2E2E2" stop-opacity="0"/>
</linearGradient>
<linearGradient id="paint7_linear_4486_3851" x1="150" y1="96.5" x2="-19.8968" y2="96.5016" gradientUnits="userSpaceOnUse">
<stop stop-color="#E2E2E2"/>
<stop offset="1" stop-color="#E2E2E2" stop-opacity="0"/>
</linearGradient>
<linearGradient id="paint8_linear_4486_3851" x1="150" y1="136.5" x2="-19.8968" y2="136.502" gradientUnits="userSpaceOnUse">
<stop stop-color="#E2E2E2"/>
<stop offset="1" stop-color="#E2E2E2" stop-opacity="0"/>
</linearGradient>
<linearGradient id="paint9_linear_4486_3851" x1="150" y1="156.5" x2="-19.8968" y2="156.502" gradientUnits="userSpaceOnUse">
<stop stop-color="#E2E2E2"/>
<stop offset="1" stop-color="#E2E2E2" stop-opacity="0"/>
</linearGradient>
<clipPath id="clip0_4486_3851">
<rect width="8" height="8" fill="white" transform="translate(88 41)"/>
</clipPath>
<clipPath id="clip1_4486_3851">
<rect width="10" height="10" fill="white" transform="translate(23 86)"/>
</clipPath>
<clipPath id="clip2_4486_3851">
<rect width="12" height="12" fill="white" transform="translate(48 53)"/>
</clipPath>
<clipPath id="clip3_4486_3851">
<rect width="118" height="126" fill="white" transform="translate(48.0005 62)"/>
</clipPath>
</defs>
</svg>
