<svg width="150" height="60" viewBox="0 0 150 60" fill="none" xmlns="http://www.w3.org/2000/svg">
<g clip-path="url(#clip0_1_7949)">
<path d="M42.75 -24V97.5" stroke="url(#paint0_linear_1_7949)" stroke-width="0.2"/>
<path d="M64.25 -24V97.5" stroke="url(#paint1_linear_1_7949)" stroke-width="0.2"/>
<path d="M85.75 -24V97.5" stroke="url(#paint2_linear_1_7949)" stroke-width="0.2"/>
<path d="M107.25 -24V97.5" stroke="url(#paint3_linear_1_7949)" stroke-width="0.2"/>
<path d="M128.75 -24V97.5" stroke="url(#paint4_linear_1_7949)" stroke-width="0.2"/>
<path d="M174 7.75L3 7.74999" stroke="url(#paint5_linear_1_7949)" stroke-width="0.2"/>
<path d="M174 28.75L3 28.75" stroke="url(#paint6_linear_1_7949)" stroke-width="0.2"/>
<path d="M174 50.75L3 50.75" stroke="url(#paint7_linear_1_7949)" stroke-width="0.2"/>
<path d="M67.7555 50.764H87.6179C88.5878 50.764 89.374 49.9803 89.374 49.0136V28.5642C89.374 27.5974 88.5878 26.8137 87.6179 26.8137L67.7555 26.8137C66.7856 26.8137 65.9994 27.5974 65.9994 28.5642V49.0136C65.9994 49.9803 66.7856 50.764 67.7555 50.764Z" fill="#E8F6FD"/>
<path d="M89.374 33.7074H65.9994V28.5595C65.9994 27.5937 66.7866 26.809 67.7555 26.809L87.6179 26.809C88.5868 26.809 89.374 27.5937 89.374 28.5595V33.7074Z" fill="#ADE1F7"/>
<path d="M82.9439 39.6835H86.0626C86.2513 39.6835 86.4043 39.531 86.4043 39.3429V36.2343C86.4043 36.0462 86.2513 35.8937 86.0626 35.8937H82.9439C82.7552 35.8937 82.6022 36.0462 82.6022 36.2343V39.3429C82.6022 39.531 82.7552 39.6835 82.9439 39.6835Z" fill="#5BC4F0" fill-opacity="0.3"/>
<path d="M78.4879 39.6835H81.6065C81.7953 39.6835 81.9482 39.531 81.9482 39.3429V36.2343C81.9482 36.0462 81.7953 35.8937 81.6065 35.8937H78.4879C78.2992 35.8937 78.1462 36.0462 78.1462 36.2343V39.3429C78.1462 39.531 78.2992 39.6835 78.4879 39.6835Z" fill="white"/>
<path d="M72.1321 28.603C71.7039 28.603 71.3535 28.2538 71.3535 27.827V25.0762C71.3535 24.6494 71.7039 24.3002 72.1321 24.3002C72.5603 24.3002 72.9107 24.6494 72.9107 25.0762V27.827C72.9107 28.2538 72.5603 28.603 72.1321 28.603Z" fill="#E2E2E2"/>
<path d="M76.0794 28.6074C75.6511 28.6074 75.3008 28.2582 75.3008 27.8314V25.0806C75.3008 24.6538 75.6511 24.3046 76.0794 24.3046C76.5076 24.3046 76.8579 24.6538 76.8579 25.0806V27.8314C76.8579 28.2582 76.5076 28.6074 76.0794 28.6074Z" fill="#E2E2E2"/>
<path d="M79.8352 28.603C79.407 28.603 79.0566 28.2538 79.0566 27.827V25.0762C79.0566 24.6494 79.407 24.3002 79.8352 24.3002C80.2634 24.3002 80.6138 24.6494 80.6138 25.0762V27.827C80.6138 28.2538 80.2634 28.603 79.8352 28.603Z" fill="#E2E2E2"/>
<path d="M73.9938 39.6835H77.1124C77.3011 39.6835 77.4541 39.531 77.4541 39.3429V36.2343C77.4541 36.0462 77.3011 35.8937 77.1124 35.8937H73.9938C73.805 35.8937 73.652 36.0462 73.652 36.2343V39.3429C73.652 39.531 73.805 39.6835 73.9938 39.6835Z" fill="#5BC4F0" fill-opacity="0.3"/>
<path d="M69.5309 39.6835H72.6495C72.8382 39.6835 72.9912 39.531 72.9912 39.3429V36.2343C72.9912 36.0462 72.8382 35.8937 72.6495 35.8937H69.5309C69.3421 35.8937 69.1892 36.0462 69.1892 36.2343V39.3429C69.1892 39.531 69.3421 39.6835 69.5309 39.6835Z" fill="#5BC4F0" fill-opacity="0.3"/>
<path d="M82.9137 43.9042H86.0323C86.221 43.9042 86.374 43.7517 86.374 43.5636V40.455C86.374 40.2669 86.221 40.1144 86.0323 40.1144H82.9137C82.725 40.1144 82.572 40.2669 82.572 40.455V43.5636C82.572 43.7517 82.725 43.9042 82.9137 43.9042Z" fill="#5BC4F0" fill-opacity="0.3"/>
<path d="M78.4566 43.9042H81.5753C81.764 43.9042 81.917 43.7517 81.917 43.5636V40.455C81.917 40.2669 81.764 40.1144 81.5753 40.1144H78.4566C78.2679 40.1144 78.1149 40.2669 78.1149 40.455V43.5636C78.1149 43.7517 78.2679 43.9042 78.4566 43.9042Z" fill="white"/>
<path d="M73.9635 43.9042H77.0821C77.2708 43.9042 77.4238 43.7517 77.4238 43.5636V40.455C77.4238 40.2669 77.2708 40.1144 77.0821 40.1144H73.9635C73.7748 40.1144 73.6218 40.2669 73.6218 40.455V43.5636C73.6218 43.7517 73.7748 43.9042 73.9635 43.9042Z" fill="#5BC4F0" fill-opacity="0.3"/>
<path d="M69.5006 43.9042H72.6192C72.8079 43.9042 72.9609 43.7517 72.9609 43.5636V40.455C72.9609 40.2669 72.8079 40.1144 72.6192 40.1144H69.5006C69.3119 40.1144 69.1589 40.2669 69.1589 40.455V43.5636C69.1589 43.7517 69.3119 43.9042 69.5006 43.9042Z" fill="#5BC4F0" fill-opacity="0.3"/>
<path d="M82.8834 48.1639H86.002C86.1908 48.1639 86.3438 48.0114 86.3438 47.8233V44.7147C86.3438 44.5266 86.1908 44.3741 86.002 44.3741H82.8834C82.6947 44.3741 82.5417 44.5266 82.5417 44.7147V47.8233C82.5417 48.0114 82.6947 48.1639 82.8834 48.1639Z" fill="#5BC4F0" fill-opacity="0.3"/>
<path d="M78.4205 48.1639H81.5391C81.7279 48.1639 81.8809 48.0114 81.8809 47.8233V44.7147C81.8809 44.5266 81.7279 44.3741 81.5391 44.3741H78.4205C78.2318 44.3741 78.0788 44.5266 78.0788 44.7147V47.8233C78.0788 48.0114 78.2318 48.1639 78.4205 48.1639Z" fill="white"/>
<path d="M73.9322 48.1639H77.0509C77.2396 48.1639 77.3926 48.0114 77.3926 47.8233V44.7147C77.3926 44.5266 77.2396 44.3741 77.0509 44.3741H73.9322C73.7435 44.3741 73.5905 44.5266 73.5905 44.7147V47.8233C73.5905 48.0114 73.7435 48.1639 73.9322 48.1639Z" fill="#5BC4F0" fill-opacity="0.3"/>
<path d="M69.4664 48.1639H72.5851C72.7738 48.1639 72.9268 48.0114 72.9268 47.8233V44.7147C72.9268 44.5266 72.7738 44.3741 72.5851 44.3741H69.4664C69.2777 44.3741 69.1247 44.5266 69.1247 44.7147V47.8233C69.1247 48.0114 69.2777 48.1639 69.4664 48.1639Z" fill="#5BC4F0" fill-opacity="0.3"/>
<path d="M83.6047 28.603C83.1765 28.603 82.8262 28.2538 82.8262 27.827V25.0762C82.8262 24.6494 83.1765 24.3002 83.6047 24.3002C84.033 24.3002 84.3833 24.6494 84.3833 25.0762V27.827C84.3833 28.2538 84.033 28.603 83.6047 28.603Z" fill="#E2E2E2"/>
<g clip-path="url(#clip1_1_7949)">
<path d="M81.9074 35.218L81.9067 35.219C81.9018 35.2266 81.8966 35.234 81.8912 35.2411C77.3407 42.3158 74.7022 50.7359 74.7022 59.7735C74.7022 60.6551 74.7364 61.5204 74.8029 62.3688C74.8347 62.7751 75.1802 63.0908 75.6022 63.0908H100.424C100.936 63.0908 101.347 62.6149 101.281 62.0698C101.19 61.3167 101.143 60.5506 101.143 59.7735C101.143 56.6365 101.905 53.6756 103.254 51.0675C105.364 46.9868 108.908 43.771 113.221 42.0861C115.362 41.2482 117.711 40.7897 120.13 40.7897C122.546 40.7897 124.861 41.2418 126.987 42.0656C126.991 42.0669 126.997 42.0687 127.003 42.0709C127.01 42.0733 127.019 42.0766 127.029 42.0808C131.326 43.7583 134.863 46.9533 136.977 51.0099C138.343 53.6316 139.117 56.6131 139.117 59.7735C139.117 60.5511 139.07 61.3177 138.979 62.0711C138.913 62.6156 139.324 63.0908 139.836 63.0908H164.664C165.087 63.0908 165.433 62.7731 165.464 62.365C165.527 61.5183 165.559 60.6548 165.559 59.7735C165.559 50.7049 162.901 42.2565 158.321 35.1665L158.321 35.1664C152.88 26.7398 144.725 20.2311 135.091 16.8734L135.091 16.8734C130.408 15.2407 125.391 14.3527 120.131 14.3527C114.872 14.3527 109.823 15.2447 105.126 16.8894L105.126 16.8894C95.494 20.2578 87.3405 26.7796 81.9074 35.218ZM81.9064 35.2174L81.9058 35.2184C81.906 35.2181 81.9062 35.2178 81.9064 35.2174Z" fill="#0E2E6B" stroke="#E8F6FD" stroke-width="0.704866"/>
<path d="M126.888 42.4074C126.888 42.4074 126.888 42.4077 126.888 42.4078C130.677 43.8854 133.865 46.5654 135.979 49.9808C136.359 50.5941 137.182 50.787 137.763 50.3587L157.723 35.6316C158.222 35.2633 158.35 34.5694 158.001 34.0564C152.75 26.3376 145.199 20.3092 136.333 16.9531C135.715 16.7194 135.035 17.0595 134.833 17.6879L126.889 42.4072C126.889 42.4073 126.889 42.4074 126.888 42.4074Z" fill="#1058AD" stroke="#E8F6FD" stroke-width="0.939821"/>
<path d="M105.014 16.5572C105.013 16.5569 105.013 16.5572 105.013 16.5576L112.97 41.2264C113.177 41.8707 113.885 42.203 114.53 41.9995C116.298 41.4425 118.181 41.1427 120.134 41.1427C122.528 41.1427 124.781 41.5875 126.871 42.3974C126.884 42.4043 126.902 42.3942 126.906 42.3796L134.86 17.6326C135.055 17.0256 134.731 16.3722 134.124 16.1775C129.715 14.7643 125.016 14.0009 120.135 14.0009C114.852 14.0009 109.748 14.8997 105.014 16.5573C105.014 16.5573 105.014 16.5573 105.014 16.5572Z" fill="#186BCC" stroke="#E8F6FD" stroke-width="0.939821"/>
<path d="M74.3547 59.7736C74.3547 60.6643 74.3892 61.5387 74.4564 62.3964C74.5032 62.9932 75.0084 63.4433 75.6071 63.4433H100.429C101.171 63.4433 101.725 62.7639 101.636 62.0275C101.546 61.2885 101.501 60.5365 101.501 59.7736C101.501 57.0505 102.086 54.4633 103.136 52.1314C103.373 51.6051 103.231 50.9772 102.766 50.6345L82.6216 35.7698C82.0759 35.3672 81.3024 35.5081 80.9509 36.0881C76.7639 42.9974 74.3547 51.1033 74.3547 59.7722V59.7736Z" fill="#37BDF7" stroke="#E8F6FD" stroke-width="0.939821"/>
<path d="M82.2143 34.1079C81.8664 34.6208 81.9947 35.3139 82.4934 35.6819L102.456 50.4121C103.037 50.8414 103.863 50.6465 104.242 50.0305C106.161 46.9073 108.976 44.3946 112.328 42.8483C112.893 42.5881 113.197 41.9541 113.006 41.3629L105.375 17.7021C105.172 17.0739 104.491 16.7345 103.874 16.9689C95.0086 20.3354 87.4591 26.3769 82.2143 34.1079Z" fill="#2091E3" stroke="#E8F6FD" stroke-width="0.939821"/>
</g>
<path d="M120.127 50.9858C115.287 50.9858 111.363 54.9089 111.363 59.7483C111.363 61.069 111.657 62.3197 112.18 63.4436H128.073C128.596 62.321 128.89 61.069 128.89 59.7483C128.89 54.9089 124.967 50.9858 120.127 50.9858Z" fill="#1D478E"/>
<path d="M120.122 68.4097C124.962 68.4097 128.886 64.4866 128.886 59.6472C128.886 58.3265 128.592 57.0758 128.069 55.9519L112.176 55.9519C111.653 57.0745 111.359 58.3265 111.359 59.6472C111.359 64.4866 115.282 68.4097 120.122 68.4097Z" fill="#1D478E"/>
<path d="M120.617 59.4628L139.085 36.6362L120.248 55.6327L120.617 59.4628Z" fill="#161742"/>
<path d="M120.578 59.432L139.046 36.6055L124.401 58.9922L120.578 59.432Z" fill="#161742"/>
<path d="M121.799 61.4506C122.725 60.5243 122.725 59.0225 121.799 58.0963C120.872 57.17 119.37 57.17 118.444 58.0963C117.518 59.0225 117.518 60.5243 118.444 61.4506C119.37 62.3769 120.872 62.3769 121.799 61.4506Z" fill="#161742"/>
<path d="M121.008 60.6559C121.495 60.1685 121.495 59.3784 121.008 58.891C120.521 58.4037 119.73 58.4037 119.243 58.891C118.755 59.3784 118.755 60.1685 119.243 60.6559C119.73 61.1432 120.521 61.1432 121.008 60.6559Z" fill="#161742"/>
<path d="M0 -4H150V52C150 56.4183 146.418 60 142 60H8C3.58172 60 0 56.4183 0 52V-4Z" fill="url(#paint8_linear_1_7949)"/>
</g>
<defs>
<linearGradient id="paint0_linear_1_7949" x1="43.25" y1="-24" x2="43.25" y2="97.5" gradientUnits="userSpaceOnUse">
<stop stop-color="#E2E2E2" stop-opacity="0"/>
<stop offset="1" stop-color="#E2E2E2"/>
</linearGradient>
<linearGradient id="paint1_linear_1_7949" x1="64.75" y1="-24" x2="64.75" y2="97.5" gradientUnits="userSpaceOnUse">
<stop stop-color="#E2E2E2" stop-opacity="0"/>
<stop offset="1" stop-color="#E2E2E2"/>
</linearGradient>
<linearGradient id="paint2_linear_1_7949" x1="86.25" y1="-24" x2="86.25" y2="97.5" gradientUnits="userSpaceOnUse">
<stop stop-color="#E2E2E2" stop-opacity="0"/>
<stop offset="1" stop-color="#E2E2E2"/>
</linearGradient>
<linearGradient id="paint3_linear_1_7949" x1="107.75" y1="-24" x2="107.75" y2="97.5" gradientUnits="userSpaceOnUse">
<stop stop-color="#E2E2E2" stop-opacity="0"/>
<stop offset="1" stop-color="#E2E2E2"/>
</linearGradient>
<linearGradient id="paint4_linear_1_7949" x1="129.25" y1="-24" x2="129.25" y2="97.5" gradientUnits="userSpaceOnUse">
<stop stop-color="#E2E2E2" stop-opacity="0"/>
<stop offset="1" stop-color="#E2E2E2"/>
</linearGradient>
<linearGradient id="paint5_linear_1_7949" x1="174" y1="8.25" x2="4.10322" y2="8.25161" gradientUnits="userSpaceOnUse">
<stop stop-color="#E2E2E2"/>
<stop offset="1" stop-color="#E2E2E2" stop-opacity="0"/>
</linearGradient>
<linearGradient id="paint6_linear_1_7949" x1="174" y1="29.25" x2="4.10322" y2="29.2516" gradientUnits="userSpaceOnUse">
<stop stop-color="#E2E2E2"/>
<stop offset="1" stop-color="#E2E2E2" stop-opacity="0"/>
</linearGradient>
<linearGradient id="paint7_linear_1_7949" x1="174" y1="51.25" x2="4.10322" y2="51.2516" gradientUnits="userSpaceOnUse">
<stop stop-color="#E2E2E2"/>
<stop offset="1" stop-color="#E2E2E2" stop-opacity="0"/>
</linearGradient>
<linearGradient id="paint8_linear_1_7949" x1="100" y1="10.5" x2="27.8364" y2="83.165" gradientUnits="userSpaceOnUse">
<stop stop-color="white" stop-opacity="0"/>
<stop offset="0.536865" stop-color="white" stop-opacity="0.391637"/>
<stop offset="1" stop-color="white"/>
</linearGradient>
<clipPath id="clip0_1_7949">
<path d="M0 0H150V52C150 56.4183 146.418 60 142 60H8C3.58172 60 0 56.4183 0 52V0Z" fill="white"/>
</clipPath>
<clipPath id="clip1_1_7949">
<rect width="91.3947" height="46.4465" fill="white" transform="translate(74.2598 14)"/>
</clipPath>
</defs>
</svg>
