<svg width="312" height="82" viewBox="0 0 312 82" fill="none" xmlns="http://www.w3.org/2000/svg">
<g clip-path="url(#clip0_20_2305)">
<path d="M170.75 -23V98.5" stroke="url(#paint0_linear_20_2305)" stroke-width="0.2"/>
<path d="M192.25 -23V98.5" stroke="url(#paint1_linear_20_2305)" stroke-width="0.2"/>
<path d="M213.75 -23V98.5" stroke="url(#paint2_linear_20_2305)" stroke-width="0.2"/>
<path d="M235.25 -23V98.5" stroke="url(#paint3_linear_20_2305)" stroke-width="0.2"/>
<path d="M256.75 -23V98.5" stroke="url(#paint4_linear_20_2305)" stroke-width="0.2"/>
<path d="M278.25 -23V98.5" stroke="url(#paint5_linear_20_2305)" stroke-width="0.2"/>
<path d="M302 15L131 15" stroke="url(#paint6_linear_20_2305)" stroke-width="0.2"/>
<path d="M302 39L131 39" stroke="url(#paint7_linear_20_2305)" stroke-width="0.2"/>
<path d="M312 70.541L129.968 70.541" stroke="url(#paint8_linear_20_2305)" stroke-width="0.2"/>
<path d="M188 43.2498C188 38.1341 191.585 34 196.883 34C202.182 34 205.662 38.0825 205.662 43.2498C205.662 48.4172 202.078 52.4997 196.779 52.4997C191.481 52.4997 188 48.4172 188 43.2498ZM218.182 34.4133H224.364L197.819 70.5867H191.637L218.182 34.4133ZM200.208 43.2498C200.208 40.8211 198.857 38.7024 196.779 38.7024C194.597 38.7024 193.454 40.7695 193.454 43.2498C193.454 45.7302 194.805 47.7973 196.883 47.7973C199.065 47.7973 200.207 45.6785 200.207 43.2498H200.208ZM210.338 61.7502C210.338 56.6345 213.922 52.5003 219.221 52.5003C224.519 52.5003 228 56.5828 228 61.7502C228 66.9175 224.415 71 219.117 71C213.818 71 210.338 66.9175 210.338 61.7502ZM222.546 61.7502C222.546 59.3215 221.196 57.2027 219.118 57.2027C216.936 57.2027 215.793 59.2698 215.793 61.7502C215.793 64.2305 217.143 66.2976 219.221 66.2976C221.403 66.2976 222.546 64.1789 222.546 61.7502Z" fill="#CEEDFB"/>
<path d="M285.026 97.7913C285.029 100.42 282.903 102.552 280.274 102.555L225.017 102.635C222.39 102.638 220.256 100.512 220.252 97.8839L220.128 8.27248C220.124 5.64607 222.253 3.51235 224.88 3.50853L280.137 3.42858C282.766 3.42477 284.898 5.55345 284.902 8.17937L285.026 97.7913Z" fill="#161742"/>
<path d="M282.542 97.7952C282.545 100.424 280.569 102.556 278.128 102.559L224.717 102.632C222.276 102.636 220.294 100.51 220.29 97.8813L220.166 8.2691C220.162 5.64302 222.139 3.50914 224.58 3.50585L277.991 3.43278C280.433 3.42884 282.414 5.55722 282.418 8.18379L282.542 97.7952Z" fill="#1D478E"/>
<path d="M280.13 30.9779C280.132 32.3542 279.017 33.4731 277.642 33.4747L225.925 33.5466C224.548 33.5481 223.432 32.4328 223.43 31.0565L223.409 15.8943C223.407 14.518 224.52 13.4006 225.898 13.399L277.615 13.3264C278.99 13.3248 280.108 14.4393 280.11 15.8159L280.13 30.9779Z" fill="#161742"/>
<path d="M262.609 8.67745C262.616 9.51612 261.94 10.2003 261.101 10.2025L240.793 10.2565C239.961 10.2587 239.284 9.58873 239.277 8.75692C239.27 7.91822 239.946 7.23388 240.785 7.23163L261.093 7.17713C261.925 7.1749 262.603 7.84528 262.609 8.67745Z" fill="#161742"/>
<path d="M277.291 30.2239C277.293 31.4612 276.29 32.4666 275.051 32.4684L228.517 32.5329C227.279 32.5345 226.274 31.5316 226.272 30.2943L226.254 16.6507C226.252 15.4133 227.254 14.4073 228.492 14.4062L275.026 14.3412C276.265 14.3399 277.27 15.3425 277.272 16.5805L277.291 30.2239Z" fill="#CEEDFB"/>
<path d="M236.115 48.9867C236.117 49.9903 235.304 50.8069 234.3 50.8083L229.655 50.8144C228.651 50.8162 227.835 50.0014 227.834 48.9987L227.828 44.3552C227.826 43.3498 228.639 42.534 229.643 42.5318L234.288 42.5262C235.293 42.5243 236.108 43.3382 236.11 44.3437L236.115 48.9867Z" fill="#5BC4F0"/>
<path d="M236.129 60.0792C236.13 61.0829 235.318 61.8998 234.312 61.901L229.668 61.9074C228.664 61.9087 227.849 61.0943 227.848 60.0906L227.841 55.4467C227.84 54.4431 228.652 53.6271 229.656 53.6254L234.301 53.619C235.306 53.6178 236.121 54.4322 236.122 55.4349L236.129 60.0792Z" fill="#5BC4F0"/>
<path d="M236.146 71.1723C236.147 72.1765 235.334 72.9912 234.329 72.9931L229.685 72.9995C228.681 73.0003 227.865 72.1885 227.864 71.1837L227.858 66.54C227.856 65.5349 228.67 64.7201 229.673 64.7189L234.318 64.7125C235.322 64.7111 236.138 65.5234 236.139 66.529L236.146 71.1723Z" fill="#5BC4F0"/>
<path d="M236.163 82.2662C236.164 83.27 235.351 84.0866 234.346 84.088L229.701 84.0941C228.698 84.0957 227.882 83.2819 227.881 82.2773L227.874 77.6336C227.873 76.6299 228.686 75.8141 229.69 75.8121L234.334 75.8066C235.339 75.8046 236.155 76.6183 236.156 77.6225L236.163 82.2662Z" fill="#5BC4F0"/>
<path d="M245.953 48.9729C245.954 49.9754 245.141 50.7922 244.136 50.7941L239.493 50.8003C238.488 50.8018 237.672 49.9871 237.671 48.9844L237.664 44.3407C237.663 43.3355 238.476 42.5198 239.481 42.5179L244.125 42.5116C245.129 42.5102 245.944 43.3241 245.946 44.3296L245.953 48.9729Z" fill="#5BC4F0"/>
<path d="M245.973 60.0668C245.974 61.0705 245.162 61.887 244.157 61.8886L239.513 61.8948C238.508 61.8963 237.693 61.0816 237.691 60.0779L237.685 55.4342C237.684 54.4309 238.497 53.6143 239.501 53.6128L244.145 53.6066C245.15 53.6056 245.965 54.4195 245.966 55.4226L245.973 60.0668Z" fill="#5BC4F0"/>
<path d="M245.984 71.1591C245.985 72.1637 245.172 72.9784 244.167 72.9794L239.524 72.9865C238.519 72.9875 237.703 72.1748 237.702 71.1705L237.696 66.5272C237.694 65.5211 238.508 64.7068 239.513 64.7057L244.157 64.699C245.161 64.698 245.976 65.5104 245.978 66.515L245.984 71.1591Z" fill="#5BC4F0"/>
<path d="M245.999 82.252C246.001 83.2562 245.187 84.0719 244.183 84.0738L239.539 84.0801C238.535 84.0815 237.719 83.2677 237.718 82.2636L237.711 77.6198C237.71 76.6161 238.523 75.8004 239.528 75.7985L244.172 75.7927C245.176 75.7912 245.992 76.6046 245.993 77.6083L245.999 82.252Z" fill="#5BC4F0"/>
<path d="M255.798 48.9602C255.799 49.9633 254.986 50.7804 253.982 50.7814L249.337 50.7882C248.333 50.7892 247.517 49.9746 247.516 48.9717L247.509 44.3284C247.508 43.3229 248.321 42.5068 249.326 42.5058L253.97 42.4994C254.974 42.4985 255.79 43.3117 255.791 44.3164L255.798 48.9602Z" fill="#5BC4F0"/>
<path d="M255.808 60.0533C255.809 61.0571 254.996 61.8732 253.992 61.875L249.348 61.8814C248.343 61.8828 247.528 61.0686 247.527 60.0649L247.52 55.4206C247.519 54.4174 248.332 53.6011 249.337 53.5997L253.981 53.5933C254.985 53.5915 255.801 54.4057 255.802 55.409L255.808 60.0533Z" fill="#5BC4F0"/>
<path d="M255.824 71.1467C255.825 72.1515 255.012 72.9656 254.008 72.9669L249.364 72.9733C248.359 72.9753 247.544 72.1625 247.542 71.1579L247.536 66.515C247.534 65.5089 248.347 64.6947 249.353 64.6931L253.997 64.6867C255.001 64.685 255.816 65.4977 255.818 66.5029L255.824 71.1467Z" fill="#5BC4F0"/>
<path d="M255.841 82.238C255.842 83.2422 255.029 84.0584 254.025 84.0592L249.38 84.0667C248.376 84.0677 247.56 83.254 247.559 82.2497L247.552 77.606C247.551 76.6023 248.364 75.7867 249.369 75.7851L254.013 75.7787C255.017 75.777 255.833 76.5912 255.834 77.5949L255.841 82.238Z" fill="#5BC4F0"/>
<path d="M265.635 48.9454C265.636 49.9487 264.823 50.7657 263.819 50.7671L259.174 50.7735C258.17 50.7749 257.354 49.9603 257.353 48.9576L257.347 44.3141C257.345 43.3087 258.158 42.4929 259.163 42.4915L263.807 42.4851C264.812 42.4832 265.627 43.2971 265.628 44.3021L265.635 48.9454Z" fill="#5BC4F0"/>
<path d="M265.65 60.0393C265.651 61.043 264.839 61.8597 263.834 61.8606L259.19 61.8679C258.185 61.8689 257.369 61.0547 257.368 60.0511L257.362 55.4071C257.36 54.4035 258.173 53.5873 259.178 53.5853L263.823 53.5798C264.827 53.5779 265.642 54.3924 265.644 55.3956L265.65 60.0393Z" fill="#5BC4F0"/>
<path d="M265.666 71.1318C265.668 72.1359 264.855 72.9509 263.85 72.9521L259.206 72.9585C258.201 72.9599 257.386 72.1476 257.385 71.1433L257.378 66.4996C257.377 65.4945 258.19 64.6797 259.195 64.6778L263.839 64.6714C264.844 64.6702 265.658 65.4824 265.66 66.4883L265.666 71.1318Z" fill="#5BC4F0"/>
<path d="M265.682 82.2261C265.683 83.2304 264.871 84.0463 263.865 84.0474L259.221 84.0538C258.217 84.0557 257.401 83.2419 257.4 82.2369L257.393 77.5936C257.392 76.5899 258.205 75.7743 259.21 75.7727L263.854 75.7663C264.858 75.7644 265.673 76.5783 265.675 77.5821L265.682 82.2261Z" fill="#5BC4F0"/>
<path d="M275.476 48.9331C275.477 49.9358 274.664 50.7533 273.66 50.7543L269.015 50.7607C268.01 50.7623 267.195 49.9478 267.194 48.9446L267.187 44.3005C267.186 43.2957 267.999 42.4797 269.003 42.4778L273.648 42.4714C274.652 42.4704 275.468 43.2837 275.469 44.2898L275.476 48.9331Z" fill="#5BC4F0"/>
<path d="M275.49 60.0248C275.492 61.0286 274.679 61.845 273.675 61.8465L269.03 61.8524C268.025 61.8544 267.21 61.04 267.209 60.0362L267.203 55.3919C267.202 54.3886 268.014 53.5719 269.019 53.5707L273.663 53.5643C274.668 53.5629 275.483 54.3771 275.484 55.3804L275.49 60.0248Z" fill="#5BC4F0"/>
<path d="M275.507 71.1175C275.509 72.1221 274.696 72.9369 273.691 72.9387L269.047 72.9447C268.042 72.9461 267.228 72.1336 267.226 71.1295L267.219 66.4858C267.218 65.4806 268.03 64.6656 269.035 64.6642L273.679 64.6578C274.684 64.6568 275.5 65.4691 275.501 66.4747L275.507 71.1175Z" fill="#5BC4F0"/>
<path d="M273.694 75.7506L269.049 75.757C268.045 75.7589 267.232 76.5749 267.234 77.5785L267.255 93.3163C267.257 94.3195 268.071 95.1335 269.077 95.1324L273.721 95.126C274.725 95.1241 275.538 94.3079 275.537 93.3048L275.516 77.5669C275.513 76.5631 274.698 75.7492 273.694 75.7506Z" fill="#5BC4F0"/>
<path d="M0 18H312V74C312 78.4183 308.418 82 304 82H8C3.58172 82 0 78.4183 0 74V18Z" fill="url(#paint9_linear_20_2305)"/>
</g>
<defs>
<linearGradient id="paint0_linear_20_2305" x1="171.25" y1="-23" x2="171.25" y2="98.5" gradientUnits="userSpaceOnUse">
<stop stop-color="#E2E2E2" stop-opacity="0"/>
<stop offset="1" stop-color="#E2E2E2"/>
</linearGradient>
<linearGradient id="paint1_linear_20_2305" x1="192.75" y1="-23" x2="192.75" y2="98.5" gradientUnits="userSpaceOnUse">
<stop stop-color="#E2E2E2" stop-opacity="0"/>
<stop offset="1" stop-color="#E2E2E2"/>
</linearGradient>
<linearGradient id="paint2_linear_20_2305" x1="214.25" y1="-23" x2="214.25" y2="98.5" gradientUnits="userSpaceOnUse">
<stop stop-color="#E2E2E2" stop-opacity="0"/>
<stop offset="1" stop-color="#E2E2E2"/>
</linearGradient>
<linearGradient id="paint3_linear_20_2305" x1="235.75" y1="-23" x2="235.75" y2="98.5" gradientUnits="userSpaceOnUse">
<stop stop-color="#E2E2E2" stop-opacity="0"/>
<stop offset="1" stop-color="#E2E2E2"/>
</linearGradient>
<linearGradient id="paint4_linear_20_2305" x1="257.25" y1="-23" x2="257.25" y2="98.5" gradientUnits="userSpaceOnUse">
<stop stop-color="#E2E2E2" stop-opacity="0"/>
<stop offset="1" stop-color="#E2E2E2"/>
</linearGradient>
<linearGradient id="paint5_linear_20_2305" x1="278.75" y1="-23" x2="278.75" y2="98.5" gradientUnits="userSpaceOnUse">
<stop stop-color="#E2E2E2" stop-opacity="0"/>
<stop offset="1" stop-color="#E2E2E2"/>
</linearGradient>
<linearGradient id="paint6_linear_20_2305" x1="302" y1="15.5" x2="132.103" y2="15.5016" gradientUnits="userSpaceOnUse">
<stop stop-color="#E2E2E2"/>
<stop offset="1" stop-color="#E2E2E2" stop-opacity="0"/>
</linearGradient>
<linearGradient id="paint7_linear_20_2305" x1="302" y1="39.5" x2="132.103" y2="39.5016" gradientUnits="userSpaceOnUse">
<stop stop-color="#E2E2E2"/>
<stop offset="1" stop-color="#E2E2E2" stop-opacity="0"/>
</linearGradient>
<linearGradient id="paint8_linear_20_2305" x1="312" y1="71.041" x2="131.142" y2="71.0428" gradientUnits="userSpaceOnUse">
<stop stop-color="#E2E2E2"/>
<stop offset="1" stop-color="#E2E2E2" stop-opacity="0"/>
</linearGradient>
<linearGradient id="paint9_linear_20_2305" x1="208" y1="32.5" x2="151.882" y2="150.037" gradientUnits="userSpaceOnUse">
<stop stop-color="white" stop-opacity="0"/>
<stop offset="0.536865" stop-color="white" stop-opacity="0.391637"/>
<stop offset="1" stop-color="white"/>
</linearGradient>
<clipPath id="clip0_20_2305">
<path d="M0 0H312V74C312 78.4183 308.418 82 304 82H8C3.58172 82 0 78.4183 0 74V0Z" fill="white"/>
</clipPath>
</defs>
</svg>
