<svg width="150" height="155" viewBox="0 0 150 155" fill="none" xmlns="http://www.w3.org/2000/svg">
<g clip-path="url(#clip0_54_187)">
<path d="M0 0H150V147C150 151.418 146.418 155 142 155H8C3.58172 155 0 151.418 0 147V0Z" fill="white"/>
<g clip-path="url(#clip1_54_187)">
<path d="M43 -21V155" stroke="url(#paint0_linear_54_187)" stroke-width="0.2"/>
<path d="M64 -21V155" stroke="url(#paint1_linear_54_187)" stroke-width="0.2"/>
<path d="M86 -21V155" stroke="url(#paint2_linear_54_187)" stroke-width="0.2"/>
<path d="M107 -21V155" stroke="url(#paint3_linear_54_187)" stroke-width="0.2"/>
<path d="M129 -21V155" stroke="url(#paint4_linear_54_187)" stroke-width="0.2"/>
<path d="M150 -21V155" stroke="url(#paint5_linear_54_187)" stroke-width="0.2"/>
<path d="M150 95L-21 95" stroke="url(#paint6_linear_54_187)" stroke-width="0.2"/>
<path d="M150 75L-21 75" stroke="url(#paint7_linear_54_187)" stroke-width="0.2"/>
<path d="M150 115L-21 115" stroke="url(#paint8_linear_54_187)" stroke-width="0.2"/>
<path d="M150 135L-21 135" stroke="url(#paint9_linear_54_187)" stroke-width="0.2"/>
</g>
<path d="M141.244 64.8595L141.571 65.0603L141.85 64.7971L159.69 47.9497L184.047 49.8952L184.047 165.434H20.564L-21.2536 158.056C-21.1494 157.902 -21.0165 157.716 -20.8543 157.498C-20.3275 156.79 -19.5232 155.785 -18.4764 154.521C-16.3844 151.997 -13.3433 148.464 -9.66449 144.259C-2.30775 135.849 7.58875 124.763 17.5187 113.702C25.3135 105.019 33.1278 96.3519 39.7491 89.0082C41.5627 86.9968 43.2867 85.0847 44.8963 83.2987C48.6394 79.1455 51.7642 75.6737 53.9567 73.2219C55.0529 71.9962 55.917 71.0242 56.5092 70.3491C56.7535 70.0706 56.9527 69.8412 57.1033 69.6648C57.2226 69.7613 57.3653 69.873 57.5276 69.9977C58.0185 70.3747 58.7102 70.8857 59.5327 71.483C61.1788 72.6783 63.3614 74.2283 65.5386 75.7627C67.7162 77.2974 69.8901 78.8178 71.5195 79.9544C72.3342 80.5228 73.0128 80.9952 73.4878 81.3256L74.0391 81.7088L74.1844 81.8097L74.2217 81.8356L74.2311 81.8422L74.2335 81.8438L74.2341 81.8442C74.2342 81.8443 74.2343 81.8444 74.5194 81.4336L74.2343 81.8444L74.6107 82.1056L74.9037 81.7534L106.655 43.5865L141.244 64.8595ZM-21.511 158.487C-21.5114 158.489 -21.5116 158.489 -21.5116 158.489L-21.511 158.487Z" stroke="#8CD6F5"/>
<circle cx="106.549" cy="43.4336" r="3" fill="white" stroke="#8CD6F5"/>
<circle cx="142.008" cy="64.9336" r="1.7" fill="white" stroke="#8CD6F5" stroke-width="0.6"/>
<circle cx="75.0205" cy="81.9336" r="1.7" fill="white" stroke="#8CD6F5" stroke-width="0.6"/>
<circle cx="57.0493" cy="69.9336" r="1.7" fill="white" stroke="#8CD6F5" stroke-width="0.6"/>
<path d="M51.0107 155.261C51.0107 157.092 53.6753 158.665 57.4973 159.368V151.153C53.6753 151.857 51.0107 153.43 51.0107 155.261Z" fill="#AF8E2F"/>
<path d="M60.4092 150.812V159.709C60.8773 159.737 61.3519 159.756 61.8328 159.759V150.766C61.3487 150.768 60.8741 150.788 60.4092 150.815V150.812Z" fill="#AF8E2F"/>
<path d="M72.936 153.424H51.0107V155.629H72.936V153.424Z" fill="#AF8E2F"/>
<path d="M72.9355 155.26C72.9355 153.773 71.1752 152.453 68.4658 151.637V158.887C71.1752 158.068 72.9355 156.751 72.9355 155.263V155.26Z" fill="#AF8E2F"/>
<path d="M57.4971 151.153V159.369C58.4077 159.536 59.3888 159.649 60.4085 159.709V150.812C59.3856 150.873 58.4077 150.986 57.4971 151.153Z" fill="#D6B11E"/>
<path d="M61.9738 150.76C61.9289 150.76 61.884 150.76 61.8359 150.76V159.753C61.8808 159.753 61.9257 159.753 61.9738 159.753C64.4043 159.753 66.6487 159.429 68.4667 158.879V151.629C66.6487 151.079 64.4043 150.754 61.9738 150.754V150.76Z" fill="#D6B11E"/>
<path d="M61.9734 158.423C68.0279 158.423 72.936 156.408 72.936 153.922C72.936 151.436 68.0279 149.421 61.9734 149.421C55.9189 149.421 51.0107 151.436 51.0107 153.922C51.0107 156.408 55.9189 158.423 61.9734 158.423Z" fill="#AF8E2F"/>
<path d="M61.9734 158.087C68.0279 158.087 72.936 156.072 72.936 153.586C72.936 151.101 68.0279 149.085 61.9734 149.085C55.9189 149.085 51.0107 151.101 51.0107 153.586C51.0107 156.072 55.9189 158.087 61.9734 158.087Z" fill="#FFD840"/>
<path d="M61.974 157.051C66.7889 157.051 70.6922 155.5 70.6922 153.586C70.6922 151.673 66.7889 150.122 61.974 150.122C57.1591 150.122 53.2559 151.673 53.2559 153.586C53.2559 155.5 57.1591 157.051 61.974 157.051Z" fill="#FFD325"/>
<path d="M59.4655 153.9L58.0996 153.278L59.1673 152.803L60.5333 153.424C61.1777 153.716 62.2359 153.716 62.8932 153.424C63.5505 153.13 63.5633 152.654 62.9188 152.363L61.492 151.714L62.5597 151.238L63.9865 151.887C65.205 152.443 65.1825 153.344 63.9384 153.9C62.6912 154.455 60.6872 154.455 59.4655 153.9Z" fill="#AF8E2F"/>
<path d="M64.6246 154.692L59.7637 152.481L60.8314 152.006L65.6923 154.216L64.6246 154.692Z" fill="#AF8E2F"/>
<path d="M66.3531 153.922L61.4922 151.711L62.5599 151.236L67.4176 153.446L66.3531 153.922Z" fill="#AF8E2F"/>
<path d="M59.1193 155.937L59.5938 153.331L58.106 153.281L57.7373 155.308L59.1193 155.937Z" fill="#AF8E2F"/>
<path d="M51.0107 152.472C51.0107 154.304 53.6753 155.876 57.4973 156.58V148.365C53.6753 149.069 51.0107 150.641 51.0107 152.472Z" fill="#AF8E2F"/>
<path d="M60.4092 148.024V156.921C60.8773 156.948 61.3519 156.968 61.8328 156.97V147.977C61.3487 147.98 60.8741 147.999 60.4092 148.027V148.024Z" fill="#AF8E2F"/>
<path d="M72.936 150.636H51.0107V152.841H72.936V150.636Z" fill="#AF8E2F"/>
<path d="M72.9355 152.472C72.9355 150.985 71.1752 149.665 68.4658 148.849V156.099C71.1752 155.28 72.9355 153.963 72.9355 152.475V152.472Z" fill="#AF8E2F"/>
<path d="M57.4971 148.365V156.58C58.4077 156.748 59.3888 156.861 60.4085 156.921V148.024C59.3856 148.084 58.4077 148.197 57.4971 148.365Z" fill="#D6B11E"/>
<path d="M61.9738 147.972C61.9289 147.972 61.884 147.972 61.8359 147.972V156.965C61.8808 156.965 61.9257 156.965 61.9738 156.965C64.4043 156.965 66.6487 156.641 68.4667 156.091V148.841C66.6487 148.291 64.4043 147.966 61.9738 147.966V147.972Z" fill="#D6B11E"/>
<path d="M61.9734 155.634C68.0279 155.634 72.936 153.619 72.936 151.134C72.936 148.648 68.0279 146.633 61.9734 146.633C55.9189 146.633 51.0107 148.648 51.0107 151.134C51.0107 153.619 55.9189 155.634 61.9734 155.634Z" fill="#AF8E2F"/>
<path d="M61.9734 155.299C68.0279 155.299 72.936 153.284 72.936 150.798C72.936 148.312 68.0279 146.297 61.9734 146.297C55.9189 146.297 51.0107 148.312 51.0107 150.798C51.0107 153.284 55.9189 155.299 61.9734 155.299Z" fill="#FFD840"/>
<path d="M61.974 154.262C66.7889 154.262 70.6922 152.711 70.6922 150.798C70.6922 148.884 66.7889 147.333 61.974 147.333C57.1591 147.333 53.2559 148.884 53.2559 150.798C53.2559 152.711 57.1591 154.262 61.974 154.262Z" fill="#FFD325"/>
<path d="M59.4655 151.111L58.0996 150.49L59.1673 150.014L60.5333 150.636C61.1777 150.927 62.2359 150.927 62.8932 150.636C63.5505 150.342 63.5633 149.866 62.9188 149.574L61.492 148.926L62.5597 148.45L63.9865 149.099C65.205 149.654 65.1825 150.556 63.9384 151.111C62.6912 151.667 60.6872 151.667 59.4655 151.111Z" fill="#AF8E2F"/>
<path d="M64.6246 151.903L59.7637 149.693L60.8314 149.217L65.6923 151.427L64.6246 151.903Z" fill="#AF8E2F"/>
<path d="M66.3531 151.133L61.4922 148.923L62.5599 148.447L67.4176 150.658L66.3531 151.133Z" fill="#AF8E2F"/>
<path d="M59.1193 153.148L59.5938 150.542L58.106 150.493L57.7373 152.519L59.1193 153.148Z" fill="#AF8E2F"/>
<path d="M51.0107 149.685C51.0107 151.516 53.6753 153.089 57.4973 153.792V145.577C53.6753 146.281 51.0107 147.854 51.0107 149.685Z" fill="#AF8E2F"/>
<path d="M60.4092 145.236V154.133C60.8773 154.161 61.3519 154.18 61.8328 154.183V145.189C61.3487 145.192 60.8741 145.211 60.4092 145.239V145.236Z" fill="#AF8E2F"/>
<path d="M72.936 147.848H51.0107V150.053H72.936V147.848Z" fill="#AF8E2F"/>
<path d="M72.9355 149.685C72.9355 148.197 71.1752 146.877 68.4658 146.058V153.308C71.1752 152.489 72.9355 151.172 72.9355 149.685Z" fill="#AF8E2F"/>
<path d="M57.4971 145.577V153.792C58.4077 153.96 59.3888 154.073 60.4085 154.133V145.236C59.3856 145.297 58.4077 145.409 57.4971 145.577Z" fill="#D6B11E"/>
<path d="M61.9738 145.184C61.9289 145.184 61.884 145.184 61.8359 145.184V154.177C61.8808 154.177 61.9257 154.177 61.9738 154.177C64.4043 154.177 66.6487 153.853 68.4667 153.303V146.053C66.6487 145.503 64.4043 145.178 61.9738 145.178V145.184Z" fill="#D6B11E"/>
<path d="M61.9734 152.847C68.0279 152.847 72.936 150.831 72.936 148.346C72.936 145.86 68.0279 143.845 61.9734 143.845C55.9189 143.845 51.0107 145.86 51.0107 148.346C51.0107 150.831 55.9189 152.847 61.9734 152.847Z" fill="#AF8E2F"/>
<path d="M61.9734 152.511C68.0279 152.511 72.936 150.496 72.936 148.01C72.936 145.524 68.0279 143.509 61.9734 143.509C55.9189 143.509 51.0107 145.524 51.0107 148.01C51.0107 150.496 55.9189 152.511 61.9734 152.511Z" fill="#FFD840"/>
<path d="M61.974 151.474C66.7889 151.474 70.6922 149.923 70.6922 148.01C70.6922 146.097 66.7889 144.546 61.974 144.546C57.1591 144.546 53.2559 146.097 53.2559 148.01C53.2559 149.923 57.1591 151.474 61.974 151.474Z" fill="#FFD325"/>
<path d="M59.4655 148.323L58.0996 147.702L59.1673 147.226L60.5333 147.848C61.1777 148.139 62.2359 148.139 62.8932 147.848C63.5505 147.554 63.5633 147.078 62.9188 146.786L61.492 146.138L62.5597 145.662L63.9865 146.311C65.205 146.866 65.1825 147.768 63.9384 148.323C62.6912 148.879 60.6872 148.879 59.4655 148.323Z" fill="#AF8E2F"/>
<path d="M64.6246 149.115L59.7637 146.905L60.8314 146.429L65.6923 148.64L64.6246 149.115Z" fill="#AF8E2F"/>
<path d="M66.3531 148.346L61.4922 146.135L62.5599 145.659L67.4176 147.87L66.3531 148.346Z" fill="#AF8E2F"/>
<path d="M59.1193 150.361L59.5938 147.754L58.106 147.705L57.7373 149.731L59.1193 150.361Z" fill="#AF8E2F"/>
<path d="M51.0107 146.897C51.0107 148.728 53.6753 150.301 57.4973 151.005V142.789C53.6753 143.493 51.0107 145.066 51.0107 146.897Z" fill="#AF8E2F"/>
<path d="M60.4092 142.448V151.345C60.8773 151.373 61.3519 151.392 61.8328 151.395V142.401C61.3487 142.404 60.8741 142.423 60.4092 142.451V142.448Z" fill="#AF8E2F"/>
<path d="M72.936 145.06H51.0107V147.265H72.936V145.06Z" fill="#AF8E2F"/>
<path d="M72.9355 146.897C72.9355 145.409 71.1752 144.09 68.4658 143.273V150.523C71.1752 149.704 72.9355 148.387 72.9355 146.899V146.897Z" fill="#AF8E2F"/>
<path d="M57.4971 142.789V151.005C58.4077 151.172 59.3888 151.285 60.4085 151.346V142.448C59.3856 142.509 58.4077 142.622 57.4971 142.789Z" fill="#D6B11E"/>
<path d="M61.9738 142.396C61.9289 142.396 61.884 142.396 61.8359 142.396V151.389C61.8808 151.389 61.9257 151.389 61.9738 151.389C64.4043 151.389 66.6487 151.065 68.4667 150.515V143.265C66.6487 142.715 64.4043 142.391 61.9738 142.391V142.396Z" fill="#D6B11E"/>
<path d="M61.9734 150.059C68.0279 150.059 72.936 148.044 72.936 145.558C72.936 143.072 68.0279 141.057 61.9734 141.057C55.9189 141.057 51.0107 143.072 51.0107 145.558C51.0107 148.044 55.9189 150.059 61.9734 150.059Z" fill="#AF8E2F"/>
<path d="M61.9734 149.723C68.0279 149.723 72.936 147.708 72.936 145.222C72.936 142.736 68.0279 140.721 61.9734 140.721C55.9189 140.721 51.0107 142.736 51.0107 145.222C51.0107 147.708 55.9189 149.723 61.9734 149.723Z" fill="#FFD840"/>
<path d="M61.974 148.687C66.7889 148.687 70.6922 147.136 70.6922 145.223C70.6922 143.309 66.7889 141.758 61.974 141.758C57.1591 141.758 53.2559 143.309 53.2559 145.223C53.2559 147.136 57.1591 148.687 61.974 148.687Z" fill="#FFD325"/>
<path d="M59.4655 145.536L58.0996 144.914L59.1673 144.439L60.5333 145.06C61.1777 145.351 62.2359 145.351 62.8932 145.06C63.5505 144.766 63.5633 144.29 62.9188 143.999L61.492 143.35L62.5597 142.874L63.9865 143.523C65.205 144.078 65.1825 144.98 63.9384 145.536C62.6912 146.091 60.6872 146.091 59.4655 145.536Z" fill="#AF8E2F"/>
<path d="M64.6246 146.328L59.7637 144.117L60.8314 143.641L65.6923 145.852L64.6246 146.328Z" fill="#AF8E2F"/>
<path d="M66.3531 145.558L61.4922 143.347L62.5599 142.872L67.4176 145.082L66.3531 145.558Z" fill="#AF8E2F"/>
<path d="M59.1193 147.573L59.5938 144.964L58.106 144.917L57.7373 146.943L59.1193 147.573Z" fill="#AF8E2F"/>
<path d="M51.0107 144.109C51.0107 145.94 53.6753 147.513 57.4973 148.217V140.001C53.6753 140.705 51.0107 142.278 51.0107 144.109Z" fill="#AF8E2F"/>
<path d="M60.4092 139.66V148.557C60.8773 148.585 61.3519 148.604 61.8328 148.607V139.614C61.3487 139.616 60.8741 139.636 60.4092 139.663V139.66Z" fill="#AF8E2F"/>
<path d="M72.936 142.272H51.0107V144.477H72.936V142.272Z" fill="#AF8E2F"/>
<path d="M72.9365 144.109C72.9365 142.621 71.1762 141.301 68.4668 140.485V147.735C71.1762 146.916 72.9365 145.599 72.9365 144.111V144.109Z" fill="#AF8E2F"/>
<path d="M57.4971 140.001V148.217C58.4077 148.384 59.3888 148.497 60.4085 148.557V139.66C59.3856 139.721 58.4077 139.834 57.4971 140.001Z" fill="#D6B11E"/>
<path d="M61.9738 139.608C61.9289 139.608 61.884 139.608 61.8359 139.608V148.601C61.8808 148.601 61.9257 148.601 61.9738 148.601C64.4043 148.601 66.6487 148.277 68.4667 147.727V140.477C66.6487 139.927 64.4043 139.603 61.9738 139.603V139.608Z" fill="#D6B11E"/>
<path d="M61.9734 147.271C68.0279 147.271 72.936 145.256 72.936 142.77C72.936 140.284 68.0279 138.269 61.9734 138.269C55.9189 138.269 51.0107 140.284 51.0107 142.77C51.0107 145.256 55.9189 147.271 61.9734 147.271Z" fill="#AF8E2F"/>
<path d="M61.9626 146.935C68.0171 146.935 72.9253 144.92 72.9253 142.434C72.9253 139.949 68.0171 137.934 61.9626 137.934C55.9081 137.934 51 139.949 51 142.434C51 144.92 55.9081 146.935 61.9626 146.935Z" fill="#FFD840"/>
<path d="M61.974 145.899C66.7889 145.899 70.6922 144.348 70.6922 142.434C70.6922 140.521 66.7889 138.97 61.974 138.97C57.1591 138.97 53.2559 140.521 53.2559 142.434C53.2559 144.348 57.1591 145.899 61.974 145.899Z" fill="#FFD325"/>
<path d="M59.4665 142.748L58.1006 142.126L59.1683 141.651L60.5342 142.272C61.1787 142.564 62.2368 142.564 62.8941 142.272C63.5514 141.978 63.5643 141.502 62.9198 141.211L61.4929 140.562L62.5607 140.086L63.9875 140.735C65.2059 141.291 65.1835 142.192 63.9394 142.748C62.6921 143.303 60.6881 143.303 59.4665 142.748Z" fill="#AF8E2F"/>
<path d="M64.6255 143.54L59.7646 141.329L60.8324 140.854L65.6933 143.064L64.6255 143.54Z" fill="#AF8E2F"/>
<path d="M66.354 142.77L61.4932 140.559L62.5609 140.084L67.4186 142.294L66.354 142.77Z" fill="#AF8E2F"/>
<path d="M59.1202 144.782L59.5948 142.176L58.107 142.129L57.7383 144.156L59.1202 144.782Z" fill="#AF8E2F"/>
<path d="M132.979 90.9336L72.1928 99.7745C70.436 99.7745 69.0117 101.198 69.0117 102.953V151.751C69.0117 153.506 70.436 154.93 72.1928 154.93L136.727 135.984C138.484 135.984 136.727 134.261 136.727 132.506L136.443 94.3979C136.443 92.6422 134.736 90.9336 132.979 90.9336Z" fill="#1D478E"/>
<path d="M134.476 96.4704V131.813C134.476 133.662 136.33 135.165 134.476 135.165L136.32 152.554V104.979H73.3205C72.5382 104.979 71.9053 104.346 71.9053 103.565C71.9053 102.783 72.5382 102.15 73.3205 102.15L131.123 93.126C132.973 93.126 134.476 94.6246 134.476 96.4769V96.4704Z" fill="#161742"/>
<path d="M129.72 119.062C134.367 116.322 135.917 110.347 133.184 105.716C130.45 101.085 124.467 99.5517 119.82 102.291C115.174 105.031 113.623 111.006 116.357 115.637C119.091 120.268 125.074 121.802 129.72 119.062Z" fill="#D6B11E"/>
<path d="M133.996 109.616C133.421 104.532 128.826 100.885 123.731 101.471C118.636 102.056 114.971 106.652 115.545 111.736C116.119 116.82 120.715 120.466 125.81 119.881C130.905 119.296 134.57 114.7 133.996 109.616Z" fill="#FFD840"/>
<path d="M128.302 117.12C131.874 115.164 133.189 110.692 131.238 107.132C129.287 103.571 124.809 102.27 121.237 104.225C117.664 106.181 116.35 110.653 118.301 114.214C120.252 117.775 124.73 119.076 128.302 117.12Z" fill="#FFD325"/>
<path d="M123.667 111.855L122.195 111.868L122.197 110.674L123.669 110.66C124.365 110.655 124.931 110.051 124.931 109.312C124.933 108.576 124.37 107.982 123.674 107.987L122.132 108L122.134 106.805L123.676 106.793C124.993 106.78 126.061 107.905 126.061 109.302C126.056 110.697 124.984 111.842 123.667 111.855Z" fill="#AF8E2F"/>
<path d="M127.377 109.888L122.128 109.937L122.133 108.741L127.38 108.693L127.377 109.888Z" fill="#AF8E2F"/>
<path d="M127.382 107.953L122.133 108.003L122.135 106.808L127.384 106.758L127.382 107.953Z" fill="#AF8E2F"/>
<path d="M125.92 114.564L123.056 111.078L122.201 111.87L124.428 114.577L125.92 114.564Z" fill="#AF8E2F"/>
<g style="mix-blend-mode:screen" opacity="0.23">
<path d="M134.37 108.885L126.362 101.061C125.402 100.906 124.401 100.89 123.385 101.041C123.29 101.056 123.195 101.077 123.102 101.094L134.419 112.152C134.565 111.221 134.577 110.253 134.436 109.27C134.417 109.143 134.394 109.014 134.372 108.888L134.37 108.885Z" fill="#FFD325"/>
</g>
<g style="mix-blend-mode:screen" opacity="0.23">
<path d="M115.588 107.395L128.252 119.767C129.849 119.158 131.224 118.147 132.276 116.879L118.399 103.319C117.134 104.413 116.162 105.818 115.591 107.394L115.588 107.395Z" fill="#FFD325"/>
</g>
<path d="M138.928 105.032H72.0954C70.3924 105.032 69.0117 106.412 69.0117 108.114V156.408C69.0117 158.11 70.3924 159.49 72.0954 159.49H138.928C140.631 159.49 142.012 158.11 142.012 156.408V108.114C142.012 106.412 140.631 105.032 138.928 105.032Z" fill="#1D478E"/>
<path d="M96.8829 157.345H74.9267C73.2745 157.345 71.9307 156.002 71.9307 154.351V150.128H72.278V154.351C72.278 155.811 73.466 156.998 74.9267 156.998H96.8829V157.345Z" fill="#161742"/>
<path d="M139.094 115.986H138.746V110.163C138.746 108.704 137.558 107.516 136.098 107.516H107.429V107.169H136.098C137.75 107.169 139.094 108.512 139.094 110.163V115.986Z" fill="#161742"/>
<path d="M72.278 137.291H71.9307V145.511H72.278V137.291Z" fill="#161742"/>
<path d="M141.989 121.076V136.465C141.989 138.398 140.425 139.965 138.487 139.965L130.185 139.965C125.926 139.965 122.473 136.513 122.473 132.258C122.473 130.13 123.336 128.203 124.732 126.808C126.128 125.413 128.056 124.55 130.185 124.55L138.487 124.55C138.584 124.55 138.682 124.553 138.779 124.563C140.577 124.414 141.986 122.908 141.986 121.076H141.989Z" fill="#161742"/>
<path d="M132.028 134.806C133.434 133.401 133.434 131.123 132.028 129.718C130.622 128.313 128.343 128.313 126.937 129.718C125.531 131.123 125.531 133.401 126.937 134.806C128.343 136.211 130.622 136.211 132.028 134.806Z" fill="white"/>
<path d="M92.2333 51.4029C94.2279 49.1071 93.0902 44.6328 89.7553 40.1621L80.7925 50.4555C85.6582 53.1653 90.2378 53.6943 92.2333 51.4029Z" fill="#AF8E2F"/>
<path d="M77.2975 48.1494L87.0005 36.9996C86.5299 36.5249 86.0425 36.0584 85.5238 35.5987L75.7116 46.8702C76.2328 47.32 76.7627 47.7446 77.2921 48.1459L77.2975 48.1494Z" fill="#AF8E2F"/>
<path d="M66.7027 33.1159L90.2246 53.7075L92.6295 50.9441L69.1076 30.3524L66.7027 33.1159Z" fill="#AF8E2F"/>
<path d="M68.713 30.8132C67.0925 32.6777 67.54 35.98 69.5533 39.5548L77.4597 30.4712C73.6569 28.9516 70.3345 28.9532 68.7086 30.8141L68.713 30.8132Z" fill="#AF8E2F"/>
<path d="M80.7938 50.4601L89.7565 40.1667C88.9632 39.1012 88.0356 38.0411 87.0055 37.003L77.3025 48.1528C78.4629 49.0365 79.6378 49.8141 80.7982 50.4591L80.7938 50.4601Z" fill="#D6B11E"/>
<path d="M75.5678 46.7467C75.6194 46.7917 75.6692 46.8279 75.7164 46.8739L85.5286 35.6024C85.4769 35.5573 85.4351 35.5148 85.3834 35.4697C82.775 33.1882 80.0158 31.4868 77.4634 30.4665L69.557 39.5502C70.9069 41.9473 72.9629 44.4597 75.5668 46.7422L75.5678 46.7467Z" fill="#D6B11E"/>
<path d="M83.917 37.1488C77.4216 31.4626 69.9583 29.3784 67.2473 32.4936C64.5362 35.6088 67.604 42.7438 74.0994 48.43C80.5948 54.1162 88.0581 56.2004 90.7692 53.0852C93.4802 49.97 90.4124 42.835 83.917 37.1488Z" fill="#AF8E2F"/>
<path d="M83.5508 37.5697C77.0554 31.8835 69.5921 29.7993 66.8811 32.9145C64.17 36.0297 67.2378 43.1647 73.7332 48.8509C80.2286 54.5371 87.6919 56.6213 90.403 53.5061C93.114 50.3909 90.0462 43.2559 83.5508 37.5697Z" fill="#FFD840"/>
<path d="M82.4204 38.8687C77.2549 34.3467 71.3758 32.6246 69.2891 35.0224C67.2023 37.4202 69.6982 43.0298 74.8638 47.5519C80.0293 52.0739 85.9084 53.796 87.9951 51.3982C90.0818 49.0004 87.5859 43.3907 82.4204 38.8687Z" fill="#FFD325"/>
<path d="M81.6775 45.1679L82.4649 47.227L80.8004 46.8213L80.0131 44.7621C79.6408 43.7888 78.504 42.797 77.479 42.5442C76.4541 42.2914 75.9221 42.8784 76.2943 43.8517L77.1161 46.0065L75.4517 45.6007L74.6299 43.446C73.9272 41.6074 74.934 40.4926 76.8796 40.969C78.8207 41.4464 80.9749 43.3292 81.6775 45.1679Z" fill="#AF8E2F"/>
<path d="M77.0088 39.3312L79.8101 46.6643L78.1456 46.2585L75.3443 38.9255L77.0088 39.3312Z" fill="#AF8E2F"/>
<path d="M74.3149 38.6735L77.1206 46.0056L75.4562 45.5998L72.6549 38.2668L74.3149 38.6735Z" fill="#AF8E2F"/>
<path d="M84.2755 42.9401L80.9192 45.7623L82.4639 47.2189L85.0696 45.0306L84.2755 42.9401Z" fill="#AF8E2F"/>
<path d="M94.0237 98.7044C94.7109 100.769 97.8176 101.261 101.693 100.209L98.607 90.934C95.2625 93.5731 93.3372 96.6346 94.0263 98.702L94.0237 98.7044Z" fill="#AF8E2F"/>
<path d="M101.226 89.1469L104.567 99.1883C105.016 98.9941 105.471 98.7852 105.93 98.5567L102.552 88.4045C102.097 88.6428 101.654 88.8911 101.226 89.1469Z" fill="#AF8E2F"/>
<path d="M114.034 86.0416L93.3369 96.6274L94.1654 99.1163L114.863 88.5305L114.034 86.0416Z" fill="#AF8E2F"/>
<path d="M114.722 88.1221C114.164 86.4415 112.006 85.805 109.14 86.1876L111.866 94.371C114.117 92.1379 115.283 89.8002 114.725 88.1196L114.722 88.1221Z" fill="#AF8E2F"/>
<path d="M98.6052 90.9365L101.691 100.211C102.611 99.9608 103.583 99.615 104.569 99.1906L101.228 89.1493C100.286 89.7116 99.4048 90.3113 98.6071 90.939L98.6052 90.9365Z" fill="#D6B11E"/>
<path d="M102.683 88.3326C102.639 88.3567 102.598 88.3783 102.555 88.4024L105.933 98.5547C105.978 98.533 106.021 98.5138 106.062 98.4922C108.357 97.3204 110.355 95.868 111.861 94.3711L109.136 86.1877C107.212 86.4451 104.973 87.1607 102.68 88.335L102.683 88.3326Z" fill="#D6B11E"/>
<path d="M114.214 86.6104C113.28 83.8047 107.89 83.8999 102.174 86.8231C96.4591 89.7463 92.583 94.3905 93.5169 97.1962C94.4509 100.002 99.8413 99.9066 105.557 96.9834C111.272 94.0602 115.148 89.4161 114.214 86.6104Z" fill="#AF8E2F"/>
<path d="M114.089 86.228C113.155 83.4224 107.765 83.5176 102.049 86.4408C96.3341 89.364 92.458 94.0082 93.3919 96.8139C94.3259 99.6196 99.7162 99.5243 105.432 96.6011C111.147 93.6779 115.023 89.0337 114.089 86.228Z" fill="#FFD840"/>
<path d="M111.973 87.3125C112.692 89.4711 109.591 93.1072 105.044 95.4316C100.499 97.7536 96.2316 97.8906 95.5126 95.7271C94.7929 93.5685 97.8945 89.9324 102.442 87.608C106.986 85.286 111.254 85.149 111.973 87.3125Z" fill="#FFD325"/>
<path d="M101.493 93.0861L99.9719 93.0432L100.801 91.9911L102.322 92.034C103.038 92.0538 104.038 91.5437 104.549 90.8959C105.061 90.2481 104.892 89.7036 104.176 89.6838L102.583 89.6402L103.412 88.588L105.005 88.6317C106.365 88.6681 106.682 89.6978 105.715 90.9277C104.748 92.1577 102.855 93.125 101.494 93.0886L101.493 93.0861Z" fill="#AF8E2F"/>
<path d="M106.662 91.4896L101.244 91.3395L102.073 90.2874L107.491 90.4375L106.662 91.4896Z" fill="#AF8E2F"/>
<path d="M108.004 89.7877L102.584 89.6401L103.413 88.5879L108.833 88.7356L108.004 89.7877Z" fill="#AF8E2F"/>
<path d="M101.932 95.5532L101.402 92.3825L99.9784 93.0453L100.391 95.5125L101.932 95.5532Z" fill="#AF8E2F"/>
<path d="M117.988 27.0183C118.597 28.8386 121.332 29.2793 124.739 28.3622L122.006 20.1862C119.068 22.5022 117.379 25.1937 117.99 27.0162L117.988 27.0183Z" fill="#AF8E2F"/>
<path d="M124.307 18.6187L127.267 27.4703C127.662 27.3004 128.063 27.1176 128.465 26.9175L125.472 17.9682C125.072 18.1769 124.683 18.3945 124.307 18.6187Z" fill="#AF8E2F"/>
<path d="M135.569 15.9154L117.377 25.1874L118.111 27.3814L136.303 18.1094L135.569 15.9154Z" fill="#AF8E2F"/>
<path d="M136.18 17.7493C135.685 16.2679 133.785 15.702 131.264 16.0318L133.678 23.2456C135.655 21.2845 136.677 19.2285 136.182 17.7471L136.18 17.7493Z" fill="#AF8E2F"/>
<path d="M122.003 20.1885L124.737 28.3646C125.547 28.1461 126.401 27.8439 127.268 27.4726L124.307 18.621C123.48 19.1139 122.706 19.6399 122.005 20.1907L122.003 20.1885Z" fill="#D6B11E"/>
<path d="M125.586 17.9052C125.547 17.9263 125.511 17.9453 125.473 17.9664L128.466 26.9157C128.506 26.8968 128.544 26.88 128.58 26.861C130.597 25.8346 132.352 24.5604 133.675 23.2459L131.26 16.0321C129.568 16.254 127.599 16.8787 125.583 17.9073L125.586 17.9052Z" fill="#D6B11E"/>
<path d="M135.731 16.4172C134.904 13.9439 130.16 14.0146 125.137 16.5749C120.113 19.1353 116.711 23.2159 117.539 25.6891C118.366 28.1624 123.11 28.0918 128.133 25.5314C133.157 22.971 136.559 18.8904 135.731 16.4172Z" fill="#AF8E2F"/>
<path d="M135.621 16.0803C134.793 13.607 130.05 13.6776 125.026 16.238C120.003 18.7984 116.601 22.879 117.428 25.3522C118.256 27.8255 122.999 27.7548 128.023 25.1945C133.047 22.6341 136.448 18.5535 135.621 16.0803Z" fill="#FFD840"/>
<path d="M133.759 17.0296C134.396 18.9324 131.674 22.1271 127.677 24.163C123.683 26.1968 119.928 26.3069 119.291 24.3998C118.653 22.4969 121.375 19.3023 125.372 17.2664C129.366 15.2326 133.122 15.1224 133.759 17.0296Z" fill="#FFD325"/>
<path d="M124.55 22.0889L123.212 22.0474L123.939 21.1228L125.278 21.1644C125.909 21.1836 126.787 20.7368 127.236 20.1675C127.685 19.5982 127.536 19.1183 126.905 19.0991L125.503 19.0568L126.231 18.1322L127.632 18.1746C128.829 18.21 129.11 19.1176 128.262 20.1984C127.414 21.2792 125.749 22.1265 124.552 22.0911L124.55 22.0889Z" fill="#AF8E2F"/>
<path d="M129.094 20.696L124.326 20.5505L125.054 19.626L129.822 19.7714L129.094 20.696Z" fill="#AF8E2F"/>
<path d="M130.272 19.1997L125.502 19.0564L126.23 18.1318L131 18.2752L130.272 19.1997Z" fill="#AF8E2F"/>
<path d="M124.942 24.2629L124.469 21.4691L123.218 22.0494L123.586 24.2232L124.942 24.2629Z" fill="#AF8E2F"/>
<mask id="mask0_54_187" style="mask-type:alpha" maskUnits="userSpaceOnUse" x="69" y="8" width="72" height="72">
<circle cx="104.521" cy="44.4336" r="35.5" fill="#D9D9D9"/>
</mask>
<g mask="url(#mask0_54_187)">
<path d="M112.997 30.5815C113.959 33.4593 118.283 34.156 123.671 32.7062L119.349 19.7804C114.704 23.4418 112.035 27.6969 113 30.5781L112.997 30.5815Z" fill="#AF8E2F"/>
<path d="M122.986 17.3026L127.666 31.2964C128.29 31.0277 128.923 30.7387 129.56 30.4224L124.828 16.2741C124.196 16.6041 123.581 16.9481 122.986 17.3026Z" fill="#AF8E2F"/>
<path d="M140.794 13.0286L112.033 27.687L113.194 31.1556L141.955 16.4971L140.794 13.0286Z" fill="#AF8E2F"/>
<path d="M141.758 15.9279C140.976 13.5859 137.972 12.6913 133.987 13.2127L137.804 24.6173C140.929 21.5169 142.544 18.2665 141.762 15.9245L141.758 15.9279Z" fill="#AF8E2F"/>
<path d="M119.345 19.7839L123.668 32.7097C124.948 32.3643 126.298 31.8865 127.668 31.2996L122.988 17.3058C121.68 18.085 120.456 18.9166 119.348 19.7874L119.345 19.7839Z" fill="#D6B11E"/>
<path d="M125.01 16.1741C124.95 16.2075 124.893 16.2375 124.832 16.2709L129.564 30.4192C129.627 30.3893 129.687 30.3627 129.744 30.3327C132.933 28.7101 135.708 26.6956 137.799 24.6174L133.981 13.2129C131.306 13.5637 128.193 14.5514 125.007 16.1775L125.01 16.1741Z" fill="#D6B11E"/>
<path d="M141.049 13.8216C139.74 9.91154 132.241 10.0232 124.299 14.071C116.357 18.1188 110.979 24.5699 112.287 28.48C113.596 32.3901 121.095 32.2784 129.037 28.2306C136.979 24.1828 142.357 17.7317 141.049 13.8216Z" fill="#AF8E2F"/>
<path d="M140.873 13.2889C139.564 9.37882 132.066 9.49048 124.123 13.5383C116.181 17.5861 110.803 24.0372 112.112 27.9473C113.42 31.8574 120.919 31.7457 128.861 27.6979C136.803 23.6501 142.181 17.199 140.873 13.2889Z" fill="#FFD840"/>
<path d="M137.931 14.79C138.939 17.7983 134.636 22.8488 128.317 26.0675C122.002 29.2828 116.065 29.4569 115.058 26.4419C114.05 23.4336 118.353 18.383 124.672 15.1644C130.987 11.9491 136.924 11.7749 137.931 14.79Z" fill="#FFD325"/>
<path d="M123.37 22.7883L121.255 22.7226L122.405 21.261L124.52 21.3267C125.518 21.357 126.907 20.6507 127.616 19.7507C128.325 18.8507 128.09 18.092 127.092 18.0617L124.877 17.9946L126.027 16.533L128.242 16.6C130.135 16.6559 130.579 18.0909 129.238 19.7996C127.897 21.5083 125.266 22.8477 123.373 22.7918L123.37 22.7883Z" fill="#AF8E2F"/>
<path d="M130.556 20.5864L123.018 20.3564L124.168 18.8947L131.706 19.1247L130.556 20.5864Z" fill="#AF8E2F"/>
<path d="M132.419 18.2207L124.878 17.9941L126.028 16.5324L133.569 16.7591L132.419 18.2207Z" fill="#AF8E2F"/>
<path d="M123.989 26.2252L123.242 21.8084L121.264 22.7257L121.845 26.1625L123.989 26.2252Z" fill="#AF8E2F"/>
</g>
<path d="M141.888 76.9071C141.593 77.27 141.404 77.6805 141.298 78.1061L130.229 69.1252L134.416 63.9639L145.485 72.9451C145.091 73.1363 144.728 73.4065 144.434 73.7694L141.888 76.9071Z" fill="#585858"/>
<path d="M190.885 111.456L188.339 114.594C187.264 115.919 185.319 116.122 183.994 115.047L142.341 81.252C141.379 80.4717 141.017 79.2336 141.298 78.1058C141.404 77.6802 141.593 77.2696 141.888 76.9067L144.434 73.769C144.728 73.4061 145.091 73.136 145.485 72.9447C146.531 72.4377 147.817 72.5362 148.779 73.3168L190.432 107.112C191.757 108.186 191.959 110.132 190.885 111.456Z" fill="#161742"/>
<path d="M132.322 66.5444L134.416 63.9638L145.485 72.9451C145.091 73.1363 144.728 73.4065 144.434 73.7694L143.162 75.3371L132.322 66.5677L132.322 66.5444Z" fill="#585858"/>
<path d="M144.434 73.7691C144.729 73.4061 145.091 73.136 145.486 72.9448C146.531 72.4378 147.817 72.5362 148.779 73.3168L190.432 107.112C191.757 108.186 191.959 110.132 190.885 111.457L189.494 113.171L143.162 75.3368L144.434 73.7691Z" fill="#161742"/>
<path d="M134.696 68.4704C122.259 83.7987 99.752 86.143 84.4236 73.7063C69.0953 61.2696 66.751 38.7618 79.1877 23.4335C91.6244 8.10514 114.132 5.76092 129.461 18.1976C144.789 30.6342 147.132 53.142 134.696 68.4704ZM81.5616 25.3598C70.1887 39.377 72.3323 59.9595 86.3496 71.3324C100.367 82.705 120.949 80.5613 132.322 66.5444C143.694 52.5271 141.551 31.9446 127.534 20.5718C113.517 9.1992 92.9341 11.3428 81.5616 25.3598Z" fill="#585858"/>
<path d="M0 91H150V147C150 151.418 146.418 155 142 155H8C3.58172 155 0 151.418 0 147V91Z" fill="url(#paint10_linear_54_187)"/>
</g>
<defs>
<linearGradient id="paint0_linear_54_187" x1="43.5" y1="-21" x2="43.5" y2="155" gradientUnits="userSpaceOnUse">
<stop stop-color="#E2E2E2" stop-opacity="0"/>
<stop offset="1" stop-color="#E2E2E2"/>
</linearGradient>
<linearGradient id="paint1_linear_54_187" x1="64.5" y1="-21" x2="64.5" y2="155" gradientUnits="userSpaceOnUse">
<stop stop-color="#E2E2E2" stop-opacity="0"/>
<stop offset="1" stop-color="#E2E2E2"/>
</linearGradient>
<linearGradient id="paint2_linear_54_187" x1="86.5" y1="-21" x2="86.5" y2="155" gradientUnits="userSpaceOnUse">
<stop stop-color="#E2E2E2" stop-opacity="0"/>
<stop offset="1" stop-color="#E2E2E2"/>
</linearGradient>
<linearGradient id="paint3_linear_54_187" x1="107.5" y1="-21" x2="107.5" y2="155" gradientUnits="userSpaceOnUse">
<stop stop-color="#E2E2E2" stop-opacity="0"/>
<stop offset="1" stop-color="#E2E2E2"/>
</linearGradient>
<linearGradient id="paint4_linear_54_187" x1="129.5" y1="-21" x2="129.5" y2="155" gradientUnits="userSpaceOnUse">
<stop stop-color="#E2E2E2" stop-opacity="0"/>
<stop offset="1" stop-color="#E2E2E2"/>
</linearGradient>
<linearGradient id="paint5_linear_54_187" x1="150.5" y1="-21" x2="150.5" y2="155" gradientUnits="userSpaceOnUse">
<stop stop-color="#E2E2E2" stop-opacity="0"/>
<stop offset="1" stop-color="#E2E2E2"/>
</linearGradient>
<linearGradient id="paint6_linear_54_187" x1="150" y1="95.5" x2="-19.8968" y2="95.5016" gradientUnits="userSpaceOnUse">
<stop stop-color="#E2E2E2"/>
<stop offset="1" stop-color="#E2E2E2" stop-opacity="0"/>
</linearGradient>
<linearGradient id="paint7_linear_54_187" x1="150" y1="75.5" x2="-19.8968" y2="75.5016" gradientUnits="userSpaceOnUse">
<stop stop-color="#E2E2E2"/>
<stop offset="1" stop-color="#E2E2E2" stop-opacity="0"/>
</linearGradient>
<linearGradient id="paint8_linear_54_187" x1="150" y1="115.5" x2="-19.8968" y2="115.502" gradientUnits="userSpaceOnUse">
<stop stop-color="#E2E2E2"/>
<stop offset="1" stop-color="#E2E2E2" stop-opacity="0"/>
</linearGradient>
<linearGradient id="paint9_linear_54_187" x1="150" y1="135.5" x2="-19.8968" y2="135.502" gradientUnits="userSpaceOnUse">
<stop stop-color="#E2E2E2"/>
<stop offset="1" stop-color="#E2E2E2" stop-opacity="0"/>
</linearGradient>
<linearGradient id="paint10_linear_54_187" x1="100" y1="105.5" x2="27.8364" y2="178.165" gradientUnits="userSpaceOnUse">
<stop stop-color="white" stop-opacity="0"/>
<stop offset="0.536865" stop-color="white" stop-opacity="0.391637"/>
<stop offset="1" stop-color="white"/>
</linearGradient>
<clipPath id="clip0_54_187">
<path d="M0 0H150V147C150 151.418 146.418 155 142 155H8C3.58172 155 0 151.418 0 147V0Z" fill="white"/>
</clipPath>
<clipPath id="clip1_54_187">
<rect width="138" height="176" fill="white" transform="translate(12 -21)"/>
</clipPath>
</defs>
</svg>
