<svg width="80" height="80" viewBox="0 0 80 80" fill="none" xmlns="http://www.w3.org/2000/svg">
<mask id="mask0_137_76116" style="mask-type:alpha" maskUnits="userSpaceOnUse" x="0" y="0" width="80" height="80">
<rect width="80" height="80" fill="#D9D9D9"/>
</mask>
<g mask="url(#mask0_137_76116)">
<path d="M13.7523 66.6667C13.2334 66.6667 12.7743 66.5434 12.3748 66.2967C11.9748 66.0501 11.664 65.7248 11.4423 65.3209C11.2001 64.9231 11.0668 64.4926 11.0423 64.0292C11.0184 63.5653 11.1482 63.0978 11.4315 62.6267L37.6707 17.3734C37.954 16.9023 38.2957 16.5598 38.6957 16.3459C39.0951 16.1325 39.5298 16.0259 39.9998 16.0259C40.4698 16.0259 40.9046 16.1325 41.304 16.3459C41.704 16.5598 42.0457 16.9023 42.329 17.3734L68.5682 62.6267C68.8515 63.0978 68.9812 63.5653 68.9573 64.0292C68.9329 64.4926 68.7996 64.9231 68.5573 65.3209C68.3357 65.7248 68.0248 66.0501 67.6248 66.2967C67.2254 66.5434 66.7662 66.6667 66.2473 66.6667H13.7523ZM39.9998 58.7184C40.5809 58.7184 41.0682 58.5217 41.4615 58.1284C41.8548 57.7351 42.0515 57.2478 42.0515 56.6667C42.0515 56.0856 41.8548 55.5984 41.4615 55.2051C41.0682 54.8117 40.5809 54.6151 39.9998 54.6151C39.4187 54.6151 38.9315 54.8117 38.5382 55.2051C38.1448 55.5984 37.9482 56.0856 37.9482 56.6667C37.9482 57.2478 38.1448 57.7351 38.5382 58.1284C38.9315 58.5217 39.4187 58.7184 39.9998 58.7184ZM40.0023 51.2817C40.4751 51.2817 40.8707 51.122 41.189 50.8026C41.5073 50.4831 41.6665 50.0873 41.6665 49.6151V36.2817C41.6665 35.8095 41.5065 35.4137 41.1865 35.0942C40.8665 34.7748 40.4701 34.615 39.9973 34.615C39.5246 34.615 39.129 34.7748 38.8107 35.0942C38.4923 35.4137 38.3332 35.8095 38.3332 36.2817V49.6151C38.3332 50.0873 38.4932 50.4831 38.8132 50.8026C39.1332 51.122 39.5296 51.2817 40.0023 51.2817Z" fill="#EE3D4B"/>
</g>
</svg>
