<svg width="160" height="158" viewBox="0 0 160 158" fill="none" xmlns="http://www.w3.org/2000/svg">
<path opacity="0.3" d="M80.0001 158C123.877 158 159.446 154.203 159.446 149.52C159.446 144.837 123.877 141.04 80.0001 141.04C36.1233 141.04 0.554199 144.837 0.554199 149.52C0.554199 154.203 36.1233 158 80.0001 158Z" fill="#5BC4F0"/>
<g clip-path="url(#clip0_137_36577)">
<path d="M134.444 66.7048H29.1272V146.608H134.444V66.7048Z" fill="#1D478E" fill-opacity="0.9"/>
<path d="M134.444 66.7048H29.1272V75.658H134.444V66.7048Z" fill="#0E2C5E"/>
<path d="M81.786 19.6396L22.4373 46.005V48.2766H81.786H141.134V46.005L81.786 19.6396Z" fill="#0E2C5E"/>
<path d="M81.786 22.5032L28.9546 46.0051H33.3486L81.786 24.001L130.223 46.0051H134.617L81.786 22.5032Z" fill="#161742"/>
<path d="M81.7861 24.001L33.3486 46.0051H81.7861H130.223L81.7861 24.001Z" fill="#32B353"/>
<path d="M81.786 48.2766H22.4373L24.8073 51.0415H81.786H138.765L141.134 48.2766H81.786Z" fill="#161742"/>
<path d="M81.786 64.4192H22.4373L24.8073 67.1841H81.786H138.765L141.134 64.4192H81.786Z" fill="#1D478E"/>
<path d="M138.765 51.0415H24.8074V62.4961H138.765V51.0415Z" fill="#1D478E"/>
<path d="M99.1422 55.3457H63.5449V56.3611H99.1422V55.3457Z" fill="#0E2C5E"/>
<path d="M99.1422 57.4521H63.5449V58.4675H99.1422V57.4521Z" fill="#0E2C5E"/>
<path d="M141.001 62.4961H22.5693V64.4191H141.001V62.4961Z" fill="#0E2C5E"/>
<path d="M138.765 67.1841H24.8074V70.0804H138.765V67.1841Z" fill="#32B353"/>
<path d="M43.1373 81.2351H29.0234V135.454H43.1373V81.2351Z" fill="#161742"/>
<path d="M43.1374 81.2351H36.0686V135.454H43.1374V81.2351Z" fill="#161742"/>
<path d="M45.5376 70.0801H26.6008V71.2411H45.5376V70.0801Z" fill="#161742"/>
<path d="M45.5375 70.0801H36.0686V71.2411H45.5375V70.0801Z" fill="#161742"/>
<path d="M44.2604 77.7544H27.8997V78.9154H44.2604V77.7544Z" fill="#0E2C5E"/>
<path d="M44.2603 77.7544H36.0686V78.9154H44.2603V77.7544Z" fill="#0E2C5E"/>
<path d="M36.0687 71.2412H26.6008L27.8997 73.5599H36.0687H44.2377L45.5376 71.2412H36.0687Z" fill="#1D478E"/>
<path d="M36.0805 78.9163H27.9006L29.0236 81.235H36.0805H43.1374L44.2603 78.9163H36.0805Z" fill="#1D478E"/>
<path d="M44.2366 73.5613H27.9006V77.7558H44.2366V73.5613Z" fill="#0E2C5E"/>
<path d="M44.2378 73.5613H36.0698V77.7558H44.2378V73.5613Z" fill="#0E2C5E"/>
<path d="M36.0687 71.2412H26.6008L27.8997 73.5599H36.0687V71.2412Z" fill="#161742"/>
<path d="M36.0686 71.2412V73.5599H44.2376L45.5375 71.2412H36.0686Z" fill="#161742"/>
<path d="M36.0805 78.9163H27.9006L29.0236 81.235H36.0805V78.9163Z" fill="#161742"/>
<path d="M36.0806 78.9163V81.235H43.1375L44.2604 78.9163H36.0806Z" fill="#161742"/>
<path d="M45.5376 145.447H26.6008V146.608H45.5376V145.447Z" fill="#161742"/>
<path d="M45.5375 145.447H36.0686V146.608H45.5375V145.447Z" fill="#161742"/>
<path d="M44.2604 137.773H27.8997V138.934H44.2604V137.773Z" fill="#0E2C5E"/>
<path d="M44.2603 137.773H36.0686V138.934H44.2603V137.773Z" fill="#0E2C5E"/>
<path d="M36.0687 145.447H26.6008L27.8997 143.128H36.0687H44.2377L45.5376 145.447H36.0687Z" fill="#1D478E"/>
<path d="M36.0805 137.773H27.9006L29.0236 135.454H36.0805H43.1374L44.2603 137.773H36.0805Z" fill="#1D478E"/>
<path d="M44.2366 138.933H27.9006V143.128H44.2366V138.933Z" fill="#0E2C5E"/>
<path d="M44.2378 138.933H36.0698V143.128H44.2378V138.933Z" fill="#0E2C5E"/>
<path d="M36.0687 145.447H26.6008L27.8997 143.128H36.0687V145.447Z" fill="#161742"/>
<path d="M36.0686 145.447V143.128H44.2376L45.5375 145.447H36.0686Z" fill="#161742"/>
<path d="M36.0805 137.773H27.9006L29.0236 135.454H36.0805V137.773Z" fill="#161742"/>
<path d="M36.0806 137.773V135.454H43.1375L44.2604 137.773H36.0806Z" fill="#161742"/>
<path d="M73.3252 81.2383H59.2148V135.458H73.3252V81.2383Z" fill="#161742"/>
<path d="M73.3249 81.2383H66.2578V135.458H73.3249V81.2383Z" fill="#161742"/>
<path d="M75.7236 70.0833H56.7915V71.2443H75.7236V70.0833Z" fill="#161742"/>
<path d="M75.7244 70.0833H66.2578V71.2443H75.7244V70.0833Z" fill="#161742"/>
<path d="M74.4483 77.7576H58.0916V78.9186H74.4483V77.7576Z" fill="#0E2C5E"/>
<path d="M74.4475 77.7576H66.2578V78.9186H74.4475V77.7576Z" fill="#0E2C5E"/>
<path d="M66.2581 71.2446H66.2571H56.7915L58.0911 73.5633H66.2571H66.2581H74.4241L75.7236 71.2446H66.2581Z" fill="#1D478E"/>
<path d="M66.2701 78.9194H66.2692H58.0923L59.2149 81.2381H66.2692H66.2701H73.3244L74.447 78.9194H66.2701Z" fill="#1D478E"/>
<path d="M74.4243 73.5645H58.0923V77.759H74.4243V73.5645Z" fill="#0E2C5E"/>
<path d="M74.4238 73.5645H66.2578V77.759H74.4238V73.5645Z" fill="#0E2C5E"/>
<path d="M66.2571 71.2446H56.7915L58.0911 73.5633H66.2571H66.2581V71.2446H66.2571Z" fill="#161742"/>
<path d="M66.2578 71.2446V73.5633H74.4238L75.7234 71.2446H66.2578Z" fill="#161742"/>
<path d="M66.2689 78.9194H58.092L59.2147 81.2381H66.2689H66.2699V78.9194H66.2689Z" fill="#161742"/>
<path d="M66.27 78.9194V81.2381H73.3242L74.4469 78.9194H66.27Z" fill="#161742"/>
<path d="M75.7236 145.45H56.7915V146.611H75.7236V145.45Z" fill="#161742"/>
<path d="M75.7244 145.45H66.2578V146.611H75.7244V145.45Z" fill="#161742"/>
<path d="M74.4483 137.776H58.0916V138.937H74.4483V137.776Z" fill="#0E2C5E"/>
<path d="M74.4475 137.776H66.2578V138.937H74.4475V137.776Z" fill="#0E2C5E"/>
<path d="M66.2581 145.45H66.2571H56.7915L58.0911 143.132H66.2571H66.2581H74.4241L75.7236 145.45H66.2581Z" fill="#1D478E"/>
<path d="M66.2701 137.776H66.2692H58.0923L59.2149 135.457H66.2692H66.2701H73.3244L74.447 137.776H66.2701Z" fill="#1D478E"/>
<path d="M74.4243 138.936H58.0923V143.131H74.4243V138.936Z" fill="#0E2C5E"/>
<path d="M74.4238 138.936H66.2578V143.131H74.4238V138.936Z" fill="#0E2C5E"/>
<path d="M66.2571 145.45H56.7915L58.0911 143.132H66.2571H66.2581V145.45H66.2571Z" fill="#161742"/>
<path d="M66.2578 145.45V143.132H74.4238L75.7234 145.45H66.2578Z" fill="#161742"/>
<path d="M66.2689 137.776H58.092L59.2147 135.457H66.2689H66.2699V137.776H66.2689Z" fill="#161742"/>
<path d="M66.27 137.776V135.457H73.3242L74.4469 137.776H66.27Z" fill="#161742"/>
<path d="M103.68 81.2383H89.5657V135.458H103.68V81.2383Z" fill="#161742"/>
<path d="M103.679 81.2383H96.6106V135.458H103.679V81.2383Z" fill="#161742"/>
<path d="M106.078 70.0833H87.1416V71.2443H106.078V70.0833Z" fill="#161742"/>
<path d="M106.079 70.0833H96.6106V71.2443H106.079V70.0833Z" fill="#161742"/>
<path d="M104.802 77.7576H88.4417V78.9186H104.802V77.7576Z" fill="#0E2C5E"/>
<path d="M104.802 77.7576H96.6106V78.9186H104.802V77.7576Z" fill="#0E2C5E"/>
<path d="M96.6105 71.2446H96.6095H87.1416L88.4415 73.5633H96.6095H96.6105H104.778L106.078 71.2446H96.6105Z" fill="#1D478E"/>
<path d="M96.6225 78.9194H96.6215H88.4426L89.5656 81.2381H96.6215H96.6225H103.679L104.801 78.9194H96.6225Z" fill="#1D478E"/>
<path d="M104.779 73.5645H88.4426V77.759H104.779V73.5645Z" fill="#0E2C5E"/>
<path d="M104.779 73.5645H96.6106V77.759H104.779V73.5645Z" fill="#0E2C5E"/>
<path d="M96.6095 71.2446H87.1416L88.4415 73.5633H96.6095H96.6105V71.2446H96.6095Z" fill="#161742"/>
<path d="M96.6106 71.2446V73.5633H104.779L106.078 71.2446H96.6106Z" fill="#161742"/>
<path d="M96.6215 78.9194H88.4426L89.5656 81.2381H96.6215H96.6225V78.9194H96.6215Z" fill="#161742"/>
<path d="M96.6221 78.9194V81.2381H103.679L104.801 78.9194H96.6221Z" fill="#161742"/>
<path d="M106.078 145.45H87.1416V146.611H106.078V145.45Z" fill="#161742"/>
<path d="M106.079 145.45H96.6106V146.611H106.079V145.45Z" fill="#161742"/>
<path d="M104.802 137.776H88.4417V138.937H104.802V137.776Z" fill="#0E2C5E"/>
<path d="M104.802 137.776H96.6106V138.937H104.802V137.776Z" fill="#0E2C5E"/>
<path d="M96.6105 145.45H96.6095H87.1416L88.4415 143.132H96.6095H96.6105H104.778L106.078 145.45H96.6105Z" fill="#161742"/>
<path d="M96.6225 137.776H96.6215H88.4426L89.5656 135.457H96.6215H96.6225H103.679L104.801 137.776H96.6225Z" fill="#161742"/>
<path d="M104.779 138.936H88.4426V143.131H104.779V138.936Z" fill="#0E2C5E"/>
<path d="M104.779 138.936H96.6106V143.131H104.779V138.936Z" fill="#0E2C5E"/>
<path d="M96.6095 145.45H87.1416L88.4415 143.132H96.6095H96.6105V145.45H96.6095Z" fill="#161742"/>
<path d="M96.6106 145.45V143.132H104.779L106.078 145.45H96.6106Z" fill="#161742"/>
<path d="M96.6215 137.776H88.4426L89.5656 135.457H96.6215H96.6225V137.776H96.6215Z" fill="#161742"/>
<path d="M96.6221 137.776V135.457H103.679L104.801 137.776H96.6221Z" fill="#161742"/>
<path d="M134.029 81.2383H119.916V135.458H134.029V81.2383Z" fill="#161742"/>
<path d="M134.03 81.2383H126.961V135.458H134.03V81.2383Z" fill="#161742"/>
<path d="M136.428 70.0833H117.492V71.2443H136.428V70.0833Z" fill="#161742"/>
<path d="M136.43 70.0833H126.961V71.2443H136.43V70.0833Z" fill="#161742"/>
<path d="M135.152 77.7576H118.792V78.9186H135.152V77.7576Z" fill="#0E2C5E"/>
<path d="M135.153 77.7576H126.961V78.9186H135.153V77.7576Z" fill="#0E2C5E"/>
<path d="M126.961 71.2446H117.492L118.792 73.5633H126.961H135.13L136.428 71.2446H126.961Z" fill="#1D478E"/>
<path d="M126.972 78.9194H118.792L119.915 81.2381H126.972H134.029L135.152 78.9194H126.972Z" fill="#1D478E"/>
<path d="M135.128 73.5645H118.792V77.759H135.128V73.5645Z" fill="#0E2C5E"/>
<path d="M135.129 73.5645H126.961V77.759H135.129V73.5645Z" fill="#0E2C5E"/>
<path d="M126.961 71.2446H117.492L118.792 73.5633H126.961V71.2446Z" fill="#161742"/>
<path d="M126.961 71.2446V73.5633H135.13L136.429 71.2446H126.961Z" fill="#161742"/>
<path d="M126.972 78.9194H118.792L119.915 81.2381H126.972V78.9194Z" fill="#161742"/>
<path d="M126.973 78.9194V81.2381H134.03L135.153 78.9194H126.973Z" fill="#161742"/>
<path d="M136.428 145.45H117.492V146.611H136.428V145.45Z" fill="#0E2C5E"/>
<path d="M136.43 145.45H126.961V146.611H136.43V145.45Z" fill="#161742"/>
<path d="M135.152 137.776H118.792V138.937H135.152V137.776Z" fill="#0E2C5E"/>
<path d="M135.153 137.776H126.961V138.937H135.153V137.776Z" fill="#0E2C5E"/>
<path d="M126.961 145.45H117.492L118.792 143.132H126.961H135.13L136.428 145.45H126.961Z" fill="#161742"/>
<path d="M126.972 137.776H118.792L119.915 135.457H126.972H134.029L135.152 137.776H126.972Z" fill="#161742"/>
<path d="M135.128 138.936H118.792V143.131H135.128V138.936Z" fill="#0E2C5E"/>
<path d="M135.129 138.936H126.961V143.131H135.129V138.936Z" fill="#0E2C5E"/>
<path d="M126.961 145.45H117.492L118.792 143.132H126.961V145.45Z" fill="#161742"/>
<path d="M126.961 145.45V143.132H135.13L136.429 145.45H126.961Z" fill="#161742"/>
<path d="M126.972 137.776H118.792L119.915 135.457H126.972V137.776Z" fill="#161742"/>
<path d="M126.973 137.776V135.457H134.03L135.153 137.776H126.973Z" fill="#161742"/>
<path d="M49.6892 79.4461C51.1216 77.7972 50.3046 74.5839 47.9095 71.3731L41.4726 78.7656C44.9671 80.7117 48.256 81.0917 49.6892 79.4461Z" fill="#AF8E2F"/>
<path d="M38.9623 77.1092L45.9308 69.1018C45.5928 68.7608 45.2427 68.4258 44.8702 68.0956L37.8233 76.1905C38.1977 76.5136 38.5782 76.8185 38.9584 77.1067L38.9623 77.1092Z" fill="#AF8E2F"/>
<path d="M31.3537 66.3129L48.2466 81.1013L49.9738 79.1167L33.0808 64.3282L31.3537 66.3129Z" fill="#AF8E2F"/>
<path d="M32.7973 64.659C31.6335 65.998 31.9549 68.3697 33.4008 70.937L39.079 64.4133C36.3479 63.322 33.9618 63.3232 32.7941 64.6596L32.7973 64.659Z" fill="#AF8E2F"/>
<path d="M41.4734 78.7687L47.9103 71.3762C47.3405 70.611 46.6744 69.8497 45.9345 69.1041L38.9661 77.1116C39.7994 77.7463 40.6432 78.3048 41.4766 78.768L41.4734 78.7687Z" fill="#D6B11E"/>
<path d="M37.7202 76.102C37.7573 76.1344 37.793 76.1603 37.827 76.1934L44.8738 68.0985C44.8367 68.0661 44.8067 68.0355 44.7696 68.0032C42.8963 66.3646 40.9147 65.1427 39.0816 64.4099L33.4034 70.9336C34.3729 72.6552 35.8494 74.4596 37.7195 76.0988L37.7202 76.102Z" fill="#D6B11E"/>
<path d="M43.7167 69.2092C39.0518 65.1255 33.6918 63.6286 31.7448 65.8659C29.7978 68.1032 32.001 73.2274 36.6659 77.3111C41.3307 81.3948 46.6907 82.8916 48.6377 80.6544C50.5847 78.4171 48.3815 73.2929 43.7167 69.2092Z" fill="#AF8E2F"/>
<path d="M43.4537 69.5114C38.7889 65.4277 33.4289 63.9309 31.4819 66.1682C29.5348 68.4054 31.7381 73.5296 36.4029 77.6133C41.0678 81.6971 46.4277 83.1939 48.3748 80.9566C50.3218 78.7193 48.1186 73.5951 43.4537 69.5114Z" fill="#FFD840"/>
<path d="M42.6418 70.4444C38.932 67.1968 34.7097 65.96 33.2111 67.6821C31.7125 69.4041 33.505 73.4328 37.2147 76.6804C40.9245 79.9281 45.1468 81.1648 46.6454 79.4428C48.144 77.7207 46.3515 73.692 42.6418 70.4444Z" fill="#FFD325"/>
<path d="M42.1084 74.9681L42.6738 76.4469L41.4785 76.1555L40.913 74.6767C40.6457 73.9776 39.8292 73.2654 39.0931 73.0838C38.357 72.9023 37.975 73.3238 38.2423 74.0228L38.8325 75.5703L37.6372 75.2789L37.0469 73.7315C36.5423 72.411 37.2653 71.6104 38.6626 71.9525C40.0567 72.2954 41.6038 73.6476 42.1084 74.9681Z" fill="#AF8E2F"/>
<path d="M38.7555 70.7763L40.7674 76.0428L39.572 75.7514L37.5602 70.4849L38.7555 70.7763Z" fill="#AF8E2F"/>
<path d="M36.8209 70.3041L38.836 75.5699L37.6406 75.2785L35.6288 70.012L36.8209 70.3041Z" fill="#AF8E2F"/>
<path d="M43.9738 73.3681L41.5634 75.3949L42.6727 76.441L44.5441 74.8694L43.9738 73.3681Z" fill="#AF8E2F"/>
<path d="M122.019 91.4864L120.139 89.5403L116.356 92.2515L118.235 94.1975L122.019 91.4864Z" fill="#AF8E2F"/>
<path d="M118.235 94.1978L116.356 92.2517L112.548 94.9806L114.427 96.9266L118.235 94.1978Z" fill="#D6B11E"/>
<path d="M114.426 96.9275L112.545 94.981L107.563 98.553L109.473 100.474L114.426 96.9275Z" fill="#AF8E2F"/>
<path d="M107.563 98.553L102.966 101.847L104.842 103.792L109.473 100.474L107.563 98.553Z" fill="#D6B11E"/>
<path d="M108.22 35.2276C108.911 37.2943 112.016 37.7947 115.886 36.7534L112.782 27.4704C109.446 30.1 107.529 33.1559 108.222 35.2252L108.22 35.2276Z" fill="#AF8E2F"/>
<path d="M115.393 25.6911L118.754 35.7411C119.202 35.5482 119.657 35.3406 120.115 35.1134L116.716 24.9524C116.262 25.1895 115.82 25.4365 115.393 25.6911Z" fill="#AF8E2F"/>
<path d="M128.183 22.6213L107.528 33.1487L108.361 35.6397L129.017 25.1124L128.183 22.6213Z" fill="#AF8E2F"/>
<path d="M128.875 24.7035C128.313 23.0215 126.156 22.3791 123.294 22.7535L126.036 30.944C128.28 28.7174 129.44 26.3831 128.878 24.7011L128.875 24.7035Z" fill="#AF8E2F"/>
<path d="M112.779 27.4728L115.883 36.7558C116.802 36.5077 117.772 36.1646 118.756 35.7431L115.395 25.693C114.456 26.2526 113.577 26.8499 112.781 27.4753L112.779 27.4728Z" fill="#D6B11E"/>
<path d="M116.847 24.8806C116.804 24.9046 116.763 24.9261 116.719 24.9501L120.118 35.1111C120.163 35.0896 120.206 35.0705 120.247 35.049C122.537 33.8837 124.53 32.4369 126.031 30.9444L123.29 22.7539C121.369 23.0058 119.133 23.7152 116.845 24.883L116.847 24.8806Z" fill="#D6B11E"/>
<path d="M128.366 23.1911C127.426 20.383 122.041 20.4631 116.337 23.3702C110.633 26.2772 106.771 30.9103 107.71 33.7184C108.65 36.5265 114.035 36.4464 119.739 33.5393C125.443 30.6323 129.305 25.9992 128.366 23.1911Z" fill="#AF8E2F"/>
<path d="M128.239 22.8083C127.3 20.0001 121.914 20.0803 116.21 22.9874C110.506 25.8944 106.644 30.5275 107.584 33.3356C108.523 36.1437 113.909 36.0635 119.613 33.1565C125.317 30.2494 129.179 25.6164 128.239 22.8083Z" fill="#FFD840"/>
<path d="M126.127 23.8862C126.851 26.0466 123.76 29.6738 119.223 31.9854C114.687 34.2945 110.424 34.4196 109.7 32.2543C108.976 30.0938 112.067 26.4666 116.605 24.155C121.14 21.8459 125.404 21.7208 126.127 23.8862Z" fill="#FFD325"/>
<path d="M115.67 29.6304L114.15 29.5832L114.976 28.5335L116.496 28.5807C117.212 28.6025 118.21 28.0952 118.719 27.4488C119.228 26.8025 119.059 26.2576 118.343 26.2358L116.752 26.1877L117.578 25.138L119.169 25.1861C120.528 25.2262 120.847 26.2568 119.884 27.4839C118.921 28.7111 117.031 29.673 115.672 29.6329L115.67 29.6304Z" fill="#AF8E2F"/>
<path d="M120.83 28.049L115.416 27.8838L116.242 26.8341L121.656 26.9992L120.83 28.049Z" fill="#AF8E2F"/>
<path d="M122.168 26.3503L116.752 26.1875L117.577 25.1378L122.994 25.3005L122.168 26.3503Z" fill="#AF8E2F"/>
<path d="M116.114 32.0988L115.577 28.9268L114.157 29.5856L114.574 32.0538L116.114 32.0988Z" fill="#AF8E2F"/>
<path d="M121.712 135.693C121.291 137.831 123.742 139.802 127.62 140.811L129.513 131.208C125.314 131.843 122.136 133.551 121.716 135.692L121.712 135.693Z" fill="#AF8E2F"/>
<path d="M132.664 130.953L130.614 141.35C131.099 141.404 131.597 141.448 132.107 141.477L134.179 130.965C133.667 130.947 133.161 130.943 132.664 130.953Z" fill="#AF8E2F"/>
<path d="M145.298 134.611L122.139 133.544L121.631 136.121L144.79 137.188L145.298 134.611Z" fill="#AF8E2F"/>
<path d="M144.87 136.763C145.213 135.023 143.656 133.398 140.983 132.308L139.315 140.782C142.367 139.957 144.53 138.502 144.873 136.762L144.87 136.763Z" fill="#AF8E2F"/>
<path d="M129.51 131.208L127.617 140.812C128.539 141.051 129.551 141.232 130.615 141.353L132.665 130.955C131.571 130.977 130.512 131.061 129.511 131.211L129.51 131.208Z" fill="#D6B11E"/>
<path d="M134.328 130.967C134.279 130.966 134.232 130.965 134.183 130.964L132.111 141.476C132.161 141.48 132.207 141.485 132.253 141.486C134.82 141.606 137.268 141.334 139.311 140.78L140.98 132.305C139.185 131.574 136.891 131.085 134.325 130.968L134.328 130.967Z" fill="#D6B11E"/>
<path d="M145.175 135.196C145.747 132.291 141.027 129.697 134.632 129.402C128.236 129.107 122.588 131.224 122.016 134.129C121.443 137.034 126.164 139.628 132.559 139.923C138.954 140.218 144.602 138.101 145.175 135.196Z" fill="#AF8E2F"/>
<path d="M145.254 134.801C145.827 131.896 141.106 129.302 134.711 129.007C128.316 128.712 122.668 130.829 122.095 133.734C121.523 136.639 126.243 139.233 132.639 139.528C139.034 139.823 144.682 137.706 145.254 134.801Z" fill="#FFD840"/>
<path d="M142.885 134.693C142.446 136.929 137.966 138.553 132.878 138.317C127.795 138.081 124.027 136.081 124.469 133.841C124.909 131.605 129.389 129.982 134.476 130.217C139.56 130.453 143.327 132.453 142.885 134.693Z" fill="#FFD325"/>
<path d="M130.956 134.514L129.658 133.721L130.895 133.217L132.193 134.01C132.804 134.383 133.922 134.435 134.685 134.126C135.447 133.816 135.569 133.259 134.958 132.885L133.599 132.056L134.836 131.553L136.195 132.381C137.356 133.089 137.124 134.142 135.68 134.732C134.236 135.322 132.117 135.224 130.956 134.517L130.956 134.514Z" fill="#AF8E2F"/>
<path d="M136.222 135.691L131.599 132.87L132.836 132.366L137.459 135.188L136.222 135.691Z" fill="#AF8E2F"/>
<path d="M138.225 134.877L133.599 132.056L134.836 131.552L139.462 134.373L138.225 134.877Z" fill="#AF8E2F"/>
<path d="M130.121 136.879L131.223 133.856L129.663 133.726L128.805 136.078L130.121 136.879Z" fill="#AF8E2F"/>
<path d="M56.1488 123.353C56.6423 124.836 58.8735 125.19 61.6565 124.434L59.4404 117.773C57.0385 119.668 55.6557 121.867 56.1506 123.352L56.1488 123.353Z" fill="#AF8E2F"/>
<path d="M61.3204 116.49L63.7198 123.701C64.0424 123.561 64.3697 123.411 64.6987 123.247L62.2728 115.956C61.946 116.127 61.6279 116.306 61.3204 116.49Z" fill="#AF8E2F"/>
<path d="M70.5189 114.259L55.6545 121.862L56.2496 123.649L71.1139 116.047L70.5189 114.259Z" fill="#AF8E2F"/>
<path d="M71.0131 115.753C70.6119 114.546 69.0625 114.089 67.0045 114.364L68.9616 120.241C70.5783 118.637 71.416 116.958 71.0149 115.752L71.0131 115.753Z" fill="#AF8E2F"/>
<path d="M59.4386 117.775L61.6547 124.436C62.3158 124.256 63.0134 124.007 63.7216 123.703L61.3221 116.491C60.6459 116.895 60.0129 117.326 59.44 117.776L59.4386 117.775Z" fill="#D6B11E"/>
<path d="M62.3669 115.905C62.3356 115.922 62.3062 115.937 62.2749 115.955L64.7009 123.246C64.7335 123.23 64.7643 123.216 64.7938 123.201C66.4419 122.359 67.8768 121.316 68.9585 120.241L67.0014 114.364C65.62 114.549 64.0118 115.063 62.365 115.906L62.3669 115.905Z" fill="#D6B11E"/>
<path d="M70.6488 114.668C69.9781 112.653 66.1069 112.721 62.0022 114.821C57.8975 116.92 55.1138 120.256 55.7845 122.27C56.4553 124.285 60.3265 124.217 64.4312 122.118C68.5359 120.018 71.3196 116.683 70.6488 114.668Z" fill="#AF8E2F"/>
<path d="M70.559 114.393C69.8883 112.378 66.017 112.447 61.9123 114.546C57.8077 116.645 55.0239 119.981 55.6947 121.996C56.3654 124.011 60.2367 123.942 64.3413 121.843C68.446 119.743 71.2298 116.408 70.559 114.393Z" fill="#FFD840"/>
<path d="M69.039 115.172C69.5559 116.722 67.3284 119.334 64.0628 121.003C60.7991 122.671 57.7341 122.769 57.2177 121.215C56.7009 119.665 58.9284 117.054 62.1939 115.384C65.4577 113.717 68.5226 113.618 69.039 115.172Z" fill="#FFD325"/>
<path d="M61.5128 119.319L60.4207 119.288L61.0161 118.532L62.1082 118.563C62.623 118.577 63.341 118.211 63.7081 117.746C64.0753 117.28 63.9546 116.889 63.4397 116.875L62.2961 116.844L62.8915 116.088L64.0351 116.12C65.012 116.146 65.2397 116.885 64.5454 117.768C63.8511 118.652 62.4911 119.346 61.5142 119.32L61.5128 119.319Z" fill="#AF8E2F"/>
<path d="M65.2248 118.172L61.3338 118.064L61.9292 117.308L65.8201 117.416L65.2248 118.172Z" fill="#AF8E2F"/>
<path d="M66.1888 116.95L62.296 116.844L62.8913 116.088L66.7841 116.194L66.1888 116.95Z" fill="#AF8E2F"/>
<path d="M61.8283 121.091L61.4475 118.813L60.4254 119.289L60.7214 121.061L61.8283 121.091Z" fill="#AF8E2F"/>
</g>
<path d="M32.4179 5.00349e-05L30.0117 1.68726L32.8529 5.71456L35.2591 4.02735L32.4179 5.00349e-05Z" fill="#AF8E2F"/>
<path d="M35.2624 4.02861L32.8562 5.71582L35.7159 9.76939L38.1221 8.08218L35.2624 4.02861Z" fill="#D6B11E"/>
<path d="M38.1242 8.07812L35.7192 9.76573L39.4626 15.0712L41.8425 13.3479L38.1242 8.07812Z" fill="#AF8E2F"/>
<path d="M39.4622 15.0722L42.9157 19.9673L45.3206 18.2797L41.842 13.3489L39.4622 15.0722Z" fill="#D6B11E"/>
<defs>
<clipPath id="clip0_137_36577">
<rect width="137.468" height="135.683" fill="white" transform="translate(13.0515 19.6396)"/>
</clipPath>
</defs>
</svg>
