<svg width="334" height="192" viewBox="0 0 334 192" fill="none" xmlns="http://www.w3.org/2000/svg">
<g opacity="0.88">
<g opacity="0.54">
<path d="M186.387 52.2511C186.726 52.2511 187.001 51.9761 187.001 51.6368C187.001 51.2975 186.726 51.0225 186.387 51.0225C186.048 51.0225 185.772 51.2975 185.772 51.6368C185.772 51.9761 186.048 52.2511 186.387 52.2511Z" fill="#161742"/>
<path d="M206.285 53.1325C206.684 53.1325 207.007 52.8097 207.007 52.4115C207.007 52.0133 206.684 51.6904 206.285 51.6904C205.887 51.6904 205.564 52.0133 205.564 52.4115C205.564 52.8097 205.887 53.1325 206.285 53.1325Z" fill="#161742"/>
<path d="M169.118 79.8232C169.419 79.8232 169.662 79.5796 169.662 79.2791C169.662 78.9787 169.419 78.7351 169.118 78.7351C168.818 78.7351 168.574 78.9787 168.574 79.2791C168.574 79.5796 168.818 79.8232 169.118 79.8232Z" fill="#161742"/>
<path d="M198.268 70.0047C198.61 70.0047 198.888 69.7273 198.888 69.3852C198.888 69.043 198.61 68.7656 198.268 68.7656C197.926 68.7656 197.648 69.043 197.648 69.3852C197.648 69.7273 197.926 70.0047 198.268 70.0047Z" fill="#161742"/>
<path d="M184.773 76.3863C185.093 76.3863 185.353 76.1264 185.353 75.8058C185.353 75.4852 185.093 75.2253 184.773 75.2253C184.452 75.2253 184.192 75.4852 184.192 75.8058C184.192 76.1264 184.452 76.3863 184.773 76.3863Z" fill="#161742"/>
<path d="M169.863 53.9011C170.274 53.9011 170.607 53.5677 170.607 53.1566C170.607 52.7454 170.274 52.4121 169.863 52.4121C169.451 52.4121 169.118 52.7454 169.118 53.1566C169.118 53.5677 169.451 53.9011 169.863 53.9011Z" fill="#161742"/>
<path d="M178.062 48.4216C178.554 48.4216 178.953 48.023 178.953 47.5314C178.953 47.0397 178.554 46.6411 178.062 46.6411C177.57 46.6411 177.172 47.0397 177.172 47.5314C177.172 48.023 177.57 48.4216 178.062 48.4216Z" fill="#161742"/>
<path d="M200.312 58.2299C200.576 58.2299 200.791 58.0155 200.791 57.7509C200.791 57.4864 200.576 57.272 200.312 57.272C200.047 57.272 199.833 57.4864 199.833 57.7509C199.833 58.0155 200.047 58.2299 200.312 58.2299Z" fill="#161742"/>
<path d="M175.141 27.9176C175.489 27.9176 175.771 27.6356 175.771 27.2876C175.771 26.9397 175.489 26.6577 175.141 26.6577C174.793 26.6577 174.51 26.9397 174.51 27.2876C174.51 27.6356 174.793 27.9176 175.141 27.9176Z" fill="#161742"/>
<path d="M189.827 30.4374C190.096 30.4374 190.314 30.2195 190.314 29.9506C190.314 29.6818 190.096 29.4639 189.827 29.4639C189.559 29.4639 189.341 29.6818 189.341 29.9506C189.341 30.2195 189.559 30.4374 189.827 30.4374Z" fill="#161742"/>
<path d="M167.085 38.3652C167.32 38.3652 167.51 38.1752 167.51 37.9409C167.51 37.7066 167.32 37.5166 167.085 37.5166C166.851 37.5166 166.661 37.7066 166.661 37.9409C166.661 38.1752 166.851 38.3652 167.085 38.3652Z" fill="#161742"/>
<path d="M192.798 73.1386C193.209 73.1386 193.543 72.8053 193.543 72.3941C193.543 71.983 193.209 71.6497 192.798 71.6497C192.387 71.6497 192.053 71.983 192.053 72.3941C192.053 72.8053 192.387 73.1386 192.798 73.1386Z" fill="#161742"/>
<path d="M175.857 76.3848C176.253 76.3848 176.573 76.0643 176.573 75.669C176.573 75.2736 176.253 74.9531 175.857 74.9531C175.462 74.9531 175.141 75.2736 175.141 75.669C175.141 76.0643 175.462 76.3848 175.857 76.3848Z" fill="#161742"/>
<path d="M164.832 69.4307C165.179 69.4307 165.46 69.1498 165.46 68.8034C165.46 68.4569 165.179 68.176 164.832 68.176C164.486 68.176 164.205 68.4569 164.205 68.8034C164.205 69.1498 164.486 69.4307 164.832 69.4307Z" fill="#161742"/>
</g>
<g opacity="0.54">
<path d="M223.19 39.9855C223.49 39.9855 223.734 39.742 223.734 39.4415C223.734 39.141 223.49 38.8975 223.19 38.8975C222.889 38.8975 222.646 39.141 222.646 39.4415C222.646 39.742 222.889 39.9855 223.19 39.9855Z" fill="#161742"/>
<path d="M238.847 36.5457C239.168 36.5457 239.428 36.2858 239.428 35.9652C239.428 35.6447 239.168 35.3848 238.847 35.3848C238.527 35.3848 238.267 35.6447 238.267 35.9652C238.267 36.2858 238.527 36.5457 238.847 36.5457Z" fill="#161742"/>
<path d="M229.929 36.5469C230.324 36.5469 230.645 36.2264 230.645 35.8311C230.645 35.4357 230.324 35.1152 229.929 35.1152C229.533 35.1152 229.213 35.4357 229.213 35.8311C229.213 36.2264 229.533 36.5469 229.929 36.5469Z" fill="#161742"/>
<path d="M218.904 29.5931C219.25 29.5931 219.531 29.3122 219.531 28.9657C219.531 28.6192 219.25 28.3384 218.904 28.3384C218.557 28.3384 218.276 28.6192 218.276 28.9657C218.276 29.3122 218.557 29.5931 218.904 29.5931Z" fill="#161742"/>
</g>
<g opacity="0.54">
<path d="M45.1434 161.864C45.7647 161.864 46.2683 161.361 46.2683 160.74C46.2683 160.118 45.7647 159.615 45.1434 159.615C44.5222 159.615 44.0186 160.118 44.0186 160.74C44.0186 161.361 44.5222 161.864 45.1434 161.864Z" fill="#161742"/>
<path d="M72.6555 72.7278C73.1933 72.7278 73.6293 72.292 73.6293 71.7543C73.6293 71.2166 73.1933 70.7808 72.6555 70.7808C72.1176 70.7808 71.6816 71.2166 71.6816 71.7543C71.6816 72.292 72.1176 72.7278 72.6555 72.7278Z" fill="#161742"/>
<path d="M46.7808 70.5129C47.3388 70.5129 47.7911 70.0607 47.7911 69.5029C47.7911 68.9451 47.3388 68.4929 46.7808 68.4929C46.2228 68.4929 45.7705 68.9451 45.7705 69.5029C45.7705 70.0607 46.2228 70.5129 46.7808 70.5129Z" fill="#161742"/>
<path d="M45.7711 47.4192C46.1177 47.4192 46.3986 47.1384 46.3986 46.7919C46.3986 46.4454 46.1177 46.1646 45.7711 46.1646C45.4245 46.1646 45.1436 46.4454 45.1436 46.7919C45.1436 47.1384 45.4245 47.4192 45.7711 47.4192Z" fill="#161742"/>
</g>
<g opacity="0.54">
<path d="M209.4 80.8329C209.739 80.8329 210.014 80.5579 210.014 80.2186C210.014 79.8793 209.739 79.6042 209.4 79.6042C209.061 79.6042 208.785 79.8793 208.785 80.2186C208.785 80.5579 209.061 80.8329 209.4 80.8329Z" fill="#161742"/>
<path d="M232.395 71.1818C232.793 71.1818 233.116 70.859 233.116 70.4608C233.116 70.0626 232.793 69.7397 232.395 69.7397C231.997 69.7397 231.674 70.0626 231.674 70.4608C231.674 70.859 231.997 71.1818 232.395 71.1818Z" fill="#161742"/>
<path d="M192.131 108.405C192.432 108.405 192.675 108.161 192.675 107.861C192.675 107.56 192.432 107.317 192.131 107.317C191.831 107.317 191.587 107.56 191.587 107.861C191.587 108.161 191.831 108.405 192.131 108.405Z" fill="#161742"/>
<path d="M209.4 93.906C209.742 93.906 210.019 93.6287 210.019 93.2865C210.019 92.9444 209.742 92.667 209.4 92.667C209.057 92.667 208.78 92.9444 208.78 93.2865C208.78 93.6287 209.057 93.906 209.4 93.906Z" fill="#161742"/>
<path d="M207.789 104.968C208.109 104.968 208.369 104.708 208.369 104.388C208.369 104.067 208.109 103.807 207.789 103.807C207.468 103.807 207.208 104.067 207.208 104.388C207.208 104.708 207.468 104.968 207.789 104.968Z" fill="#161742"/>
<path d="M192.876 82.4828C193.287 82.4828 193.62 82.1495 193.62 81.7384C193.62 81.3272 193.287 80.9939 192.876 80.9939C192.464 80.9939 192.131 81.3272 192.131 81.7384C192.131 82.1495 192.464 82.4828 192.876 82.4828Z" fill="#161742"/>
<path d="M223.325 86.8119C223.589 86.8119 223.804 86.5975 223.804 86.333C223.804 86.0684 223.589 85.854 223.325 85.854C223.06 85.854 222.846 86.0684 222.846 86.333C222.846 86.5975 223.06 86.8119 223.325 86.8119Z" fill="#161742"/>
<path d="M198.154 56.4996C198.502 56.4996 198.784 56.2176 198.784 55.8697C198.784 55.5218 198.502 55.2397 198.154 55.2397C197.806 55.2397 197.523 55.5218 197.523 55.8697C197.523 56.2176 197.806 56.4996 198.154 56.4996Z" fill="#161742"/>
<path d="M212.84 59.0189C213.109 59.0189 213.327 58.801 213.327 58.5322C213.327 58.2633 213.109 58.0454 212.84 58.0454C212.572 58.0454 212.354 58.2633 212.354 58.5322C212.354 58.801 212.572 59.0189 212.84 59.0189Z" fill="#161742"/>
<path d="M224.968 56.7159C225.436 56.7159 225.815 56.3371 225.815 55.8699C225.815 55.4027 225.436 55.0239 224.968 55.0239C224.501 55.0239 224.122 55.4027 224.122 55.8699C224.122 56.3371 224.501 56.7159 224.968 56.7159Z" fill="#161742"/>
<path d="M190.098 66.9467C190.333 66.9467 190.523 66.7568 190.523 66.5224C190.523 66.2881 190.333 66.0981 190.098 66.0981C189.864 66.0981 189.674 66.2881 189.674 66.5224C189.674 66.7568 189.864 66.9467 190.098 66.9467Z" fill="#161742"/>
<path d="M215.811 101.721C216.222 101.721 216.556 101.387 216.556 100.976C216.556 100.565 216.222 100.232 215.811 100.232C215.4 100.232 215.066 100.565 215.066 100.976C215.066 101.387 215.4 101.721 215.811 101.721Z" fill="#161742"/>
<path d="M198.87 104.966C199.266 104.966 199.586 104.646 199.586 104.251C199.586 103.855 199.266 103.535 198.87 103.535C198.475 103.535 198.154 103.855 198.154 104.251C198.154 104.646 198.475 104.966 198.87 104.966Z" fill="#161742"/>
<path d="M187.845 98.0125C188.192 98.0125 188.473 97.7316 188.473 97.3851C188.473 97.0387 188.192 96.7578 187.845 96.7578C187.499 96.7578 187.218 97.0387 187.218 97.3851C187.218 97.7316 187.499 98.0125 187.845 98.0125Z" fill="#161742"/>
</g>
</g>
<path opacity="0.2" d="M167 183.641C255.918 183.641 328 178.66 328 172.515C328 166.371 255.918 161.39 167 161.39C78.0822 161.39 6 166.371 6 172.515C6 178.66 78.0822 183.641 167 183.641Z" fill="#5BC4F0"/>
<path d="M193.682 7.65332H288.027C291.253 7.65332 293.872 10.2684 293.872 13.4899V159.816C293.872 163.038 291.253 165.653 288.027 165.653H193.682C190.456 165.653 187.838 163.038 187.838 159.816V13.4899C187.838 10.2684 190.456 7.65332 193.682 7.65332Z" fill="#F9E9DE"/>
<path d="M282.314 17.2852H199.403C197.383 17.2852 195.746 18.9202 195.746 20.9371V42.8946C195.746 44.9115 197.383 46.5465 199.403 46.5465H282.314C284.334 46.5465 285.971 44.9115 285.971 42.8946V20.9371C285.971 18.9202 284.334 17.2852 282.314 17.2852Z" fill="white"/>
<g opacity="0.1">
<path d="M234.105 25.2476H205.265C204.325 25.2476 203.562 26.0096 203.562 26.9496C203.562 27.8897 204.325 28.6517 205.265 28.6517H234.105C235.045 28.6517 235.808 27.8897 235.808 26.9496C235.808 26.0096 235.045 25.2476 234.105 25.2476Z" fill="#5BC4F0"/>
<path d="M242.786 28.6519L264.783 28.6519C265.723 28.6519 266.485 27.8898 266.485 26.9498C266.485 26.0097 265.723 25.2477 264.783 25.2477L242.786 25.2477C241.846 25.2477 241.084 26.0097 241.084 26.9498C241.084 27.8898 241.846 28.6519 242.786 28.6519Z" fill="#5BC4F0"/>
<path d="M276.453 25.2476H273.301C272.361 25.2476 271.599 26.0096 271.599 26.9496C271.599 27.8897 272.361 28.6517 273.301 28.6517H276.453C277.393 28.6517 278.155 27.8897 278.155 26.9496C278.155 26.0096 277.393 25.2476 276.453 25.2476Z" fill="#5BC4F0"/>
</g>
<g opacity="0.1">
<path d="M247.605 38.8706L276.445 38.8706C277.385 38.8706 278.147 38.1086 278.147 37.1685C278.147 36.2285 277.385 35.4665 276.445 35.4665H247.605C246.664 35.4665 245.902 36.2285 245.902 37.1685C245.902 38.1086 246.664 38.8706 247.605 38.8706Z" fill="#5BC4F0"/>
<path d="M238.931 35.4663H216.934C215.993 35.4663 215.231 36.2284 215.231 37.1684C215.231 38.1084 215.993 38.8705 216.934 38.8705H238.931C239.871 38.8705 240.633 38.1084 240.633 37.1684C240.633 36.2284 239.871 35.4663 238.931 35.4663Z" fill="#5BC4F0"/>
<path d="M205.264 38.8706H208.416C209.356 38.8706 210.118 38.1086 210.118 37.1685C210.118 36.2285 209.356 35.4665 208.416 35.4665H205.264C204.324 35.4665 203.562 36.2285 203.562 37.1685C203.562 38.1086 204.324 38.8706 205.264 38.8706Z" fill="#5BC4F0"/>
</g>
<path d="M282.314 53.7788H199.403C197.383 53.7788 195.746 55.4139 195.746 57.4308V79.3882C195.746 81.4051 197.383 83.0402 199.403 83.0402H282.314C284.334 83.0402 285.971 81.4051 285.971 79.3882V57.4308C285.971 55.4139 284.334 53.7788 282.314 53.7788Z" fill="white"/>
<g opacity="0.1">
<path d="M234.105 61.7412H205.265C204.325 61.7412 203.562 62.5033 203.562 63.4433C203.562 64.3833 204.325 65.1454 205.265 65.1454H234.105C235.045 65.1454 235.808 64.3833 235.808 63.4433C235.808 62.5033 235.045 61.7412 234.105 61.7412Z" fill="#5BC4F0"/>
<path d="M242.786 65.1455H264.783C265.723 65.1455 266.485 64.3835 266.485 63.4434C266.485 62.5034 265.723 61.7414 264.783 61.7414H242.786C241.846 61.7414 241.084 62.5034 241.084 63.4434C241.084 64.3835 241.846 65.1455 242.786 65.1455Z" fill="#5BC4F0"/>
<path d="M276.453 61.7412H273.301C272.361 61.7412 271.599 62.5033 271.599 63.4433C271.599 64.3833 272.361 65.1454 273.301 65.1454H276.453C277.393 65.1454 278.155 64.3833 278.155 63.4433C278.155 62.5033 277.393 61.7412 276.453 61.7412Z" fill="#5BC4F0"/>
</g>
<g opacity="0.1">
<path d="M247.605 75.3579H276.445C277.385 75.3579 278.147 74.5959 278.147 73.6558C278.147 72.7158 277.385 71.9538 276.445 71.9538H247.605C246.664 71.9538 245.902 72.7158 245.902 73.6558C245.902 74.5959 246.664 75.3579 247.605 75.3579Z" fill="#5BC4F0"/>
<path d="M238.931 71.9604H216.934C215.993 71.9604 215.231 72.7225 215.231 73.6625C215.231 74.6026 215.993 75.3646 216.934 75.3646H238.931C239.871 75.3646 240.633 74.6026 240.633 73.6625C240.633 72.7225 239.871 71.9604 238.931 71.9604Z" fill="#5BC4F0"/>
<path d="M205.264 75.3579H208.416C209.356 75.3579 210.118 74.5959 210.118 73.6558C210.118 72.7158 209.356 71.9538 208.416 71.9538H205.264C204.324 71.9538 203.562 72.7158 203.562 73.6558C203.562 74.5959 204.324 75.3579 205.264 75.3579Z" fill="#5BC4F0"/>
</g>
<path d="M282.314 90.2722H199.403C197.383 90.2722 195.746 91.9073 195.746 93.9242V115.882C195.746 117.899 197.383 119.534 199.403 119.534H282.314C284.334 119.534 285.971 117.899 285.971 115.882V93.9242C285.971 91.9073 284.334 90.2722 282.314 90.2722Z" fill="white"/>
<g opacity="0.1">
<path d="M234.105 98.2349H205.265C204.325 98.2349 203.562 98.9969 203.562 99.9369C203.562 100.877 204.325 101.639 205.265 101.639H234.105C235.045 101.639 235.808 100.877 235.808 99.9369C235.808 98.9969 235.045 98.2349 234.105 98.2349Z" fill="#5BC4F0"/>
<path d="M242.786 101.639H264.783C265.723 101.639 266.485 100.877 266.485 99.9368C266.485 98.9968 265.723 98.2348 264.783 98.2348H242.786C241.846 98.2348 241.084 98.9968 241.084 99.9368C241.084 100.877 241.846 101.639 242.786 101.639Z" fill="#5BC4F0"/>
<path d="M276.453 98.2349H273.301C272.361 98.2349 271.599 98.9969 271.599 99.9369C271.599 100.877 272.361 101.639 273.301 101.639H276.453C277.393 101.639 278.155 100.877 278.155 99.9369C278.155 98.9969 277.393 98.2349 276.453 98.2349Z" fill="#5BC4F0"/>
</g>
<g opacity="0.1">
<path d="M247.605 111.851H276.445C277.385 111.851 278.147 111.089 278.147 110.149C278.147 109.209 277.385 108.447 276.445 108.447H247.605C246.664 108.447 245.902 109.209 245.902 110.149C245.902 111.089 246.664 111.851 247.605 111.851Z" fill="#5BC4F0"/>
<path d="M238.931 108.454H216.934C215.993 108.454 215.231 109.216 215.231 110.156C215.231 111.096 215.993 111.858 216.934 111.858H238.931C239.871 111.858 240.633 111.096 240.633 110.156C240.633 109.216 239.871 108.454 238.931 108.454Z" fill="#5BC4F0"/>
<path d="M205.264 111.851H208.416C209.356 111.851 210.118 111.089 210.118 110.149C210.118 109.209 209.356 108.447 208.416 108.447H205.264C204.324 108.447 203.562 109.209 203.562 110.149C203.562 111.089 204.324 111.851 205.264 111.851Z" fill="#5BC4F0"/>
</g>
<path d="M282.314 126.766H199.403C197.383 126.766 195.746 128.401 195.746 130.418V152.375C195.746 154.392 197.383 156.027 199.403 156.027H282.314C284.334 156.027 285.971 154.392 285.971 152.375V130.418C285.971 128.401 284.334 126.766 282.314 126.766Z" fill="white"/>
<g opacity="0.1">
<path d="M234.105 134.728H205.265C204.325 134.728 203.562 135.49 203.562 136.43C203.562 137.37 204.325 138.132 205.265 138.132H234.105C235.045 138.132 235.808 137.37 235.808 136.43C235.808 135.49 235.045 134.728 234.105 134.728Z" fill="#5BC4F0"/>
<path d="M242.786 138.132H264.783C265.723 138.132 266.485 137.37 266.485 136.43C266.485 135.49 265.723 134.728 264.783 134.728H242.786C241.846 134.728 241.084 135.49 241.084 136.43C241.084 137.37 241.846 138.132 242.786 138.132Z" fill="#5BC4F0"/>
<path d="M276.453 134.728H273.301C272.361 134.728 271.599 135.49 271.599 136.43C271.599 137.37 272.361 138.132 273.301 138.132H276.453C277.393 138.132 278.155 137.37 278.155 136.43C278.155 135.49 277.393 134.728 276.453 134.728Z" fill="#5BC4F0"/>
</g>
<g opacity="0.1">
<path d="M247.605 148.351H276.445C277.385 148.351 278.147 147.589 278.147 146.649C278.147 145.709 277.385 144.947 276.445 144.947H247.605C246.664 144.947 245.902 145.709 245.902 146.649C245.902 147.589 246.664 148.351 247.605 148.351Z" fill="#5BC4F0"/>
<path d="M238.931 144.94H216.934C215.993 144.94 215.231 145.702 215.231 146.643C215.231 147.583 215.993 148.345 216.934 148.345H238.931C239.871 148.345 240.633 147.583 240.633 146.643C240.633 145.702 239.871 144.94 238.931 144.94Z" fill="#5BC4F0"/>
<path d="M205.264 148.351H208.416C209.356 148.351 210.118 147.589 210.118 146.649C210.118 145.709 209.356 144.947 208.416 144.947H205.264C204.324 144.947 203.562 145.709 203.562 146.649C203.562 147.589 204.324 148.351 205.264 148.351Z" fill="#5BC4F0"/>
</g>
<path d="M156.42 126.679L123.799 142.342L156.42 149.011L156.42 126.679Z" fill="#FFD325"/>
<path d="M36.156 130.797L70.5762 139.903L36.156 149.011L36.156 130.797Z" fill="#FFD325"/>
<path d="M128.57 98.2546L118.118 115.078L148.896 98.2754L128.57 98.2546Z" fill="#FFD325"/>
<path d="M77.5128 98.4723L85.5378 111.389L61.9054 98.488L77.5128 98.4723Z" fill="#FFD325"/>
<path d="M57.8673 98.4738L69.3008 116.875L35.6332 98.4972L57.8673 98.4738Z" fill="#FFD325"/>
<path d="M113.243 98.3789L110.106 106.792L120.261 98.2748L113.243 98.3789Z" fill="#FFD325"/>
<path d="M85.0022 98.2756L94.7041 107.834L92.4518 98.2756L85.0022 98.2756Z" fill="#FFD325"/>
<path d="M98.8634 98.2733L100.777 106.882L107.347 98.1822L98.8634 98.2733Z" fill="#FFD325"/>
<path d="M156.42 98.8346L125.562 126.679L156.42 121.166L156.42 98.8346Z" fill="#FFD325"/>
<path d="M35.9024 102.952L66.7605 130.797L35.9024 125.284L35.9024 102.952Z" fill="#FFD325"/>
<path d="M135.323 74.9602C135.323 103.689 111.338 126.978 81.7511 126.978C52.1644 126.978 28.1797 103.689 28.1797 74.9602C28.1797 46.2315 52.1644 22.9424 81.7511 22.9424C111.338 22.9424 135.323 46.2315 135.323 74.9602Z" fill="#5BC4F0" fill-opacity="0.1"/>
<path d="M239.136 62.1714H84.5972C82.5776 62.1714 80.9404 63.8064 80.9404 65.8233V161.577C80.9404 163.594 82.5776 165.229 84.5972 165.229H239.136C241.155 165.229 242.792 163.594 242.792 161.577V65.8233C242.792 63.8064 241.155 62.1714 239.136 62.1714Z" fill="#161742"/>
<path d="M235.505 68.1841H88.2278V153.953H235.505V68.1841Z" fill="white"/>
<path d="M70.1055 159.489V168.6C70.1055 170.227 71.9695 171.564 74.252 171.564H249.499C251.775 171.564 253.646 170.232 253.646 168.6V159.489H70.1055Z" fill="#1D478E"/>
<path d="M129.732 159.489V163.692C129.732 164.447 130.532 165.062 131.513 165.062H192.238C193.218 165.062 194.018 164.447 194.018 163.692V159.489H129.739H129.732Z" fill="#161742"/>
<path opacity="0.1" d="M239.135 62.1714H219.408C223.176 79.7791 231.809 144.608 158.928 159.125H242.792V65.8233C242.792 63.8148 241.147 62.1714 239.135 62.1714Z" fill="#5BC4F0"/>
<path d="M80.3839 148.192C80.2533 147.201 80.2664 146.294 80.3186 145.42C80.3708 144.547 80.4688 143.699 80.619 142.89C80.9194 141.266 81.3634 139.74 81.9446 138.306C83.0938 135.423 84.7263 132.854 86.7114 130.519C88.7031 128.184 91.0539 126.091 93.8879 124.317C95.2984 123.424 96.846 122.622 98.5438 121.917C99.3927 121.565 100.294 121.246 101.241 120.959C102.187 120.672 103.18 120.411 104.303 120.241C104.434 121.239 104.427 122.146 104.382 123.02C104.329 123.893 104.231 124.741 104.088 125.556C103.794 127.18 103.343 128.706 102.762 130.147C101.606 133.03 99.9738 135.599 97.9822 137.921C95.984 140.249 93.6267 142.336 90.7862 144.116C89.3757 145.01 87.8281 145.812 86.1303 146.516C85.2814 146.868 84.3868 147.188 83.4399 147.481C82.4931 147.768 81.5071 148.029 80.3839 148.205V148.192Z" fill="#32B353"/>
<mask id="mask0_189_6265" style="mask-type:luminance" maskUnits="userSpaceOnUse" x="80" y="120" width="25" height="29">
<path d="M80.3839 148.192C80.2533 147.201 80.2664 146.294 80.3186 145.42C80.3708 144.547 80.4688 143.699 80.619 142.89C80.9194 141.266 81.3634 139.74 81.9446 138.306C83.0938 135.423 84.7263 132.854 86.7114 130.519C88.7031 128.184 91.0539 126.091 93.8879 124.317C95.2984 123.424 96.846 122.622 98.5438 121.917C99.3927 121.565 100.294 121.246 101.241 120.959C102.187 120.672 103.18 120.411 104.303 120.241C104.434 121.239 104.427 122.146 104.382 123.02C104.329 123.893 104.231 124.741 104.088 125.556C103.794 127.18 103.343 128.706 102.762 130.147C101.606 133.03 99.9738 135.599 97.9822 137.921C95.984 140.249 93.6267 142.336 90.7862 144.116C89.3757 145.01 87.8281 145.812 86.1303 146.516C85.2814 146.868 84.3868 147.188 83.4399 147.481C82.4931 147.768 81.5071 148.029 80.3839 148.205V148.192Z" fill="white"/>
</mask>
<g mask="url(#mask0_189_6265)">
<path d="M106.04 132.652L105.988 132.378L92.3859 134.393L97.8646 127.989L111.8 125.922L111.741 125.648L98.1454 127.663L102.527 122.537L102.272 122.374L95.9905 129.717L96.1602 116.1H95.8403L95.664 130.095L90.231 136.447L90.4008 122.83H90.0808L89.9045 136.825L84.4716 143.177L84.6414 129.567L84.3214 129.56L84.1451 143.555L81.7812 146.32L82.0359 146.49L86.3457 141.449L100.281 139.382L100.228 139.108L86.6265 141.123L92.1051 134.719L106.04 132.652Z" fill="#32B353"/>
</g>
<path opacity="0.1" d="M83.4395 147.468C84.3864 147.181 85.281 146.855 86.1299 146.503C87.8277 145.799 89.3687 144.99 90.7857 144.103C93.6197 142.329 95.9771 140.236 97.9818 137.908C99.9799 135.58 101.612 133.01 102.762 130.134C103.343 128.693 103.787 127.167 104.087 125.543C104.231 124.728 104.335 123.887 104.381 123.007C104.433 122.133 104.44 121.226 104.303 120.229L80.377 148.186C81.5001 148.016 82.4861 147.755 83.433 147.462L83.4395 147.468Z" fill="#1D478E"/>
<path d="M80.1035 148.375C79.3656 147.305 78.7975 146.236 78.2882 145.173C77.7723 144.11 77.3217 143.047 76.9299 141.984C76.1463 139.864 75.5521 137.751 75.1211 135.639C74.2461 131.419 73.9719 127.226 74.1416 123.039C74.3179 118.859 74.9448 114.685 76.1725 110.538C76.7797 108.464 77.5568 106.397 78.5167 104.329C78.9999 103.299 79.5419 102.269 80.1492 101.238C80.7565 100.208 81.416 99.1841 82.2453 98.1667C82.9898 99.2363 83.5579 100.306 84.0737 101.369C84.5896 102.432 85.0467 103.495 85.4385 104.558C86.2221 106.677 86.8228 108.79 87.2538 110.903C88.1223 115.122 88.3966 119.316 88.2137 123.502C88.0244 127.682 87.3975 131.856 86.1633 136.004C85.556 138.078 84.779 140.145 83.8191 142.212C83.3358 143.242 82.7939 144.273 82.1931 145.303C81.5923 146.334 80.9328 147.357 80.11 148.375H80.1035Z" fill="#32B353"/>
<mask id="mask1_189_6265" style="mask-type:luminance" maskUnits="userSpaceOnUse" x="74" y="98" width="15" height="51">
<path d="M80.1035 148.375C79.3656 147.305 78.7975 146.236 78.2882 145.173C77.7723 144.11 77.3217 143.047 76.9299 141.984C76.1463 139.864 75.5521 137.751 75.1211 135.639C74.2461 131.419 73.9719 127.226 74.1416 123.039C74.3179 118.859 74.9448 114.685 76.1725 110.538C76.7797 108.464 77.5568 106.397 78.5167 104.329C78.9999 103.299 79.5419 102.269 80.1492 101.238C80.7565 100.208 81.416 99.1841 82.2453 98.1667C82.9898 99.2363 83.5579 100.306 84.0737 101.369C84.5896 102.432 85.0467 103.495 85.4385 104.558C86.2221 106.677 86.8228 108.79 87.2538 110.903C88.1223 115.122 88.3966 119.316 88.2137 123.502C88.0244 127.682 87.3975 131.856 86.1633 136.004C85.556 138.078 84.779 140.145 83.8191 142.212C83.3358 143.242 82.7939 144.273 82.1931 145.303C81.5923 146.334 80.9328 147.357 80.11 148.375H80.1035Z" fill="white"/>
</mask>
<g mask="url(#mask1_189_6265)">
<path d="M91.5697 111.47L91.3476 111.183L81.3176 123.457L81.8074 111.96L92.0855 99.3863L91.8635 99.0994L81.8335 111.373L82.2253 102.177L81.9053 102.164L81.3437 115.351L72.8417 99.2754L72.574 99.5037L81.3176 116.035L80.8279 127.441L72.3258 111.36L72.0581 111.588L80.8017 128.119L80.3185 139.525L71.81 123.444L71.5422 123.672L80.2859 140.204L80.0769 145.166L80.3969 145.179L80.7821 136.128L91.0538 123.554L90.8383 123.268L80.8083 135.541L81.298 124.044L91.5697 111.47Z" fill="#32B353"/>
</g>
<path opacity="0.1" d="M82.1868 145.297C82.7876 144.266 83.3296 143.242 83.8128 142.205C84.7727 140.145 85.5498 138.071 86.157 135.997C87.3847 131.85 88.0181 127.682 88.2075 123.496C88.3903 119.315 88.116 115.116 87.2475 110.896C86.8166 108.79 86.2223 106.677 85.4322 104.551C85.0404 103.488 84.5833 102.432 84.0675 101.362C83.5516 100.299 82.9835 99.2297 82.2391 98.1602L80.1038 148.355C80.9331 147.338 81.5861 146.307 82.1868 145.284V145.297Z" fill="#1D478E"/>
<path d="M79.803 147.729C78.608 147.566 77.5371 147.299 76.5119 147.005C75.4867 146.712 74.5072 146.379 73.5669 146.021C71.6993 145.29 69.9689 144.456 68.369 143.53C65.1563 141.678 62.3941 139.486 59.9715 137.034C57.5489 134.582 55.4789 131.869 53.8529 128.817C53.0367 127.291 52.351 125.674 51.8025 123.946C51.5282 123.079 51.3062 122.179 51.1234 121.246C50.9405 120.314 50.8034 119.348 50.7969 118.285C51.9984 118.448 53.0693 118.709 54.0945 119.003C55.1262 119.296 56.1057 119.622 57.0395 119.987C58.9071 120.711 60.6375 121.546 62.2374 122.479C65.4501 124.331 68.2058 126.528 70.6219 128.987C73.0314 131.446 75.1014 134.158 76.7209 137.217C77.5371 138.743 78.2228 140.36 78.7713 142.088C79.0455 142.956 79.2741 143.849 79.4504 144.782C79.6332 145.714 79.7704 146.679 79.7834 147.742L79.803 147.729Z" fill="#32B353"/>
<mask id="mask2_189_6265" style="mask-type:luminance" maskUnits="userSpaceOnUse" x="50" y="118" width="30" height="30">
<path d="M79.803 147.729C78.608 147.566 77.5371 147.299 76.5119 147.005C75.4867 146.712 74.5072 146.379 73.5669 146.021C71.6993 145.29 69.9689 144.456 68.369 143.53C65.1563 141.678 62.3941 139.486 59.9715 137.034C57.5489 134.582 55.4789 131.869 53.8529 128.817C53.0367 127.291 52.351 125.674 51.8025 123.946C51.5282 123.079 51.3062 122.179 51.1234 121.246C50.9405 120.314 50.8034 119.348 50.7969 118.285C51.9984 118.448 53.0693 118.709 54.0945 119.003C55.1262 119.296 56.1057 119.622 57.0395 119.987C58.9071 120.711 60.6375 121.546 62.2374 122.479C65.4501 124.331 68.2058 126.528 70.6219 128.987C73.0314 131.446 75.1014 134.158 76.7209 137.217C77.5371 138.743 78.2228 140.36 78.7713 142.088C79.0455 142.956 79.2741 143.849 79.4504 144.782C79.6332 145.714 79.7704 146.679 79.7834 147.742L79.803 147.729Z" fill="white"/>
</mask>
<g mask="url(#mask2_189_6265)">
<path d="M65.7897 120.235L65.4502 120.203L65.5285 133.024L58.8875 126.274L58.8092 113.146L58.4696 113.114L58.548 125.935L53.2326 120.535L52.991 120.718L60.6115 128.459L44.5412 124.454L44.4824 124.741L61.0033 128.856L67.592 135.547L51.5217 131.543L51.463 131.83L67.9838 135.945L74.5725 142.636L58.5023 138.632L58.4435 138.919L74.9643 143.034L77.831 145.949L78.0726 145.766L72.8486 140.451L72.7703 127.324L72.4307 127.291L72.5091 140.112L65.8681 133.363L65.7897 120.235Z" fill="#32B353"/>
</g>
<path opacity="0.1" d="M79.4631 144.775C79.2802 143.842 79.0517 142.942 78.784 142.082C78.2355 140.353 77.5498 138.736 76.7336 137.21C75.1141 134.152 73.0441 131.439 70.6346 128.98C68.2185 126.522 65.4628 124.33 62.2501 122.472C60.6502 121.539 58.9198 120.711 57.0522 119.981C56.1184 119.622 55.1324 119.289 54.1072 118.996C53.082 118.702 52.0111 118.442 50.8096 118.279L79.8092 147.729C79.7961 146.666 79.659 145.707 79.4761 144.768L79.4631 144.775Z" fill="#1D478E"/>
<path d="M95.6844 176.749H64.7453L61.5979 144.279H98.3094L95.6844 176.749Z" fill="#161742"/>
<path d="M99.9875 144.279H59.9131V149.744H99.9875V144.279Z" fill="#161742"/>
<path opacity="0.1" d="M62.1267 149.744H97.8718L97.1143 159.057L62.4271 152.829L62.1267 149.744Z" fill="#1D478E"/>
<path d="M188.269 139.624H135.618C134.176 139.624 133.003 138.451 133.003 137.009C133.003 135.567 134.176 134.394 135.618 134.394H188.269C189.711 134.394 190.884 135.567 190.884 137.009C190.884 138.451 189.711 139.624 188.269 139.624Z" fill="#1D478E"/>
<path d="M188.269 104.396H135.618C134.445 104.396 133.421 103.619 133.1 102.491C132.779 101.363 133.249 100.167 134.251 99.5548L160.58 83.3866C161.417 82.8711 162.478 82.8711 163.315 83.3866L189.644 99.5548C190.638 100.167 191.108 101.37 190.794 102.491C190.473 103.619 189.45 104.396 188.277 104.396H188.269ZM144.875 99.1663H179.012L161.94 88.6839L144.868 99.1663H144.875Z" fill="#1D478E"/>
<path d="M142.357 131.794C140.915 131.794 139.742 130.621 139.742 129.179V109.619C139.742 108.177 140.915 107.004 142.357 107.004C143.799 107.004 144.972 108.177 144.972 109.619V129.179C144.972 130.621 143.799 131.794 142.357 131.794Z" fill="#1D478E"/>
<path d="M152.743 131.794C151.301 131.794 150.128 130.621 150.128 129.179V109.619C150.128 108.177 151.301 107.004 152.743 107.004C154.185 107.004 155.358 108.177 155.358 109.619V129.179C155.358 130.621 154.185 131.794 152.743 131.794Z" fill="#1D478E"/>
<path d="M163.127 131.794C161.685 131.794 160.512 130.621 160.512 129.179V109.619C160.512 108.177 161.685 107.004 163.127 107.004C164.569 107.004 165.742 108.177 165.742 109.619V129.179C165.742 130.621 164.569 131.794 163.127 131.794Z" fill="#1D478E"/>
<path d="M173.513 131.794C172.071 131.794 170.898 130.621 170.898 129.179V109.619C170.898 108.177 172.071 107.004 173.513 107.004C174.955 107.004 176.128 108.177 176.128 109.619V129.179C176.128 130.621 174.955 131.794 173.513 131.794Z" fill="#1D478E"/>
<path d="M183.898 131.794C182.456 131.794 181.283 130.621 181.283 129.179V109.619C181.283 108.177 182.456 107.004 183.898 107.004C185.34 107.004 186.513 108.177 186.513 109.619V129.179C186.513 130.621 185.34 131.794 183.898 131.794Z" fill="#1D478E"/>
<circle cx="188" cy="131" r="8" fill="white"/>
<mask id="mask3_189_6265" style="mask-type:alpha" maskUnits="userSpaceOnUse" x="172" y="115" width="32" height="32">
<rect x="172" y="115" width="32" height="32" fill="#D9D9D9"/>
</mask>
<g mask="url(#mask3_189_6265)">
<path d="M188 136.949C188.232 136.949 188.427 136.87 188.585 136.713C188.742 136.556 188.821 136.361 188.821 136.128C188.821 135.896 188.742 135.701 188.585 135.544C188.427 135.386 188.232 135.308 188 135.308C187.768 135.308 187.573 135.386 187.415 135.544C187.258 135.701 187.179 135.896 187.179 136.128C187.179 136.361 187.258 136.556 187.415 136.713C187.573 136.87 187.768 136.949 188 136.949ZM188.001 132.538C188.19 132.538 188.348 132.474 188.476 132.347C188.603 132.219 188.667 132.061 188.667 131.872V125.205C188.667 125.016 188.603 124.858 188.475 124.73C188.347 124.602 188.188 124.538 187.999 124.538C187.81 124.538 187.652 124.602 187.524 124.73C187.397 124.858 187.333 125.016 187.333 125.205V131.872C187.333 132.061 187.397 132.219 187.525 132.347C187.653 132.474 187.812 132.538 188.001 132.538ZM188.004 143C186.345 143 184.785 142.685 183.324 142.055C181.863 141.426 180.593 140.571 179.512 139.491C178.431 138.412 177.576 137.142 176.946 135.683C176.315 134.223 176 132.664 176 131.004C176 129.345 176.315 127.785 176.945 126.324C177.574 124.863 178.429 123.593 179.509 122.512C180.588 121.431 181.858 120.576 183.317 119.946C184.777 119.315 186.336 119 187.996 119C189.655 119 191.215 119.315 192.676 119.945C194.137 120.574 195.407 121.429 196.488 122.509C197.569 123.588 198.424 124.858 199.054 126.317C199.685 127.777 200 129.336 200 130.996C200 132.655 199.685 134.215 199.055 135.676C198.426 137.137 197.571 138.407 196.491 139.488C195.412 140.569 194.142 141.424 192.683 142.054C191.223 142.685 189.664 143 188.004 143Z" fill="#EE3D4B"/>
</g>
</svg>
