<svg width="20" height="20" viewBox="0 0 20 20" fill="none" xmlns="http://www.w3.org/2000/svg">
<circle cx="10" cy="10" r="10" fill="#161742"/>
<mask id="mask0_137_75042" style="mask-type:alpha" maskUnits="userSpaceOnUse" x="2" y="2" width="16" height="16">
<rect x="2" y="2" width="16" height="16" fill="#D9D9D9"/>
</mask>
<g mask="url(#mask0_137_75042)">
<path d="M6.33334 13V8.3333C6.33334 8.23886 6.36534 8.15969 6.42934 8.0958C6.49334 8.03191 6.57262 7.99997 6.66718 7.99997C6.76173 7.99997 6.84084 8.03191 6.90451 8.0958C6.96818 8.15969 7.00001 8.23886 7.00001 8.3333V13C7.00001 13.0944 6.96801 13.1736 6.90401 13.2375C6.84001 13.3014 6.76073 13.3333 6.66618 13.3333C6.57162 13.3333 6.49251 13.3014 6.42884 13.2375C6.36518 13.1736 6.33334 13.0944 6.33334 13ZM9.66668 13V8.3333C9.66668 8.23886 9.69868 8.15969 9.76268 8.0958C9.82668 8.03191 9.90595 7.99997 10.0005 7.99997C10.0951 7.99997 10.1742 8.03191 10.2378 8.0958C10.3015 8.15969 10.3333 8.23886 10.3333 8.3333V13C10.3333 13.0944 10.3013 13.1736 10.2373 13.2375C10.1733 13.3014 10.0941 13.3333 9.99951 13.3333C9.90495 13.3333 9.82584 13.3014 9.76218 13.2375C9.69851 13.1736 9.66668 13.0944 9.66668 13ZM4.69234 15.3333C4.5979 15.3333 4.51873 15.3013 4.45484 15.2373C4.39095 15.1733 4.35901 15.094 4.35901 14.9995C4.35901 14.9049 4.39095 14.8258 4.45484 14.7621C4.51873 14.6985 4.5979 14.6666 4.69234 14.6666H15.3077C15.4021 14.6666 15.4813 14.6986 15.5452 14.7626C15.6091 14.8266 15.641 14.9059 15.641 15.0005C15.641 15.095 15.6091 15.1741 15.5452 15.2378C15.4813 15.3015 15.4021 15.3333 15.3077 15.3333H4.69234ZM13 13V8.3333C13 8.23886 13.032 8.15969 13.096 8.0958C13.16 8.03191 13.2393 7.99997 13.3338 7.99997C13.4284 7.99997 13.5075 8.03191 13.5712 8.0958C13.6348 8.15969 13.6667 8.23886 13.6667 8.3333V13C13.6667 13.0944 13.6347 13.1736 13.5707 13.2375C13.5067 13.3014 13.4274 13.3333 13.3328 13.3333C13.2383 13.3333 13.1592 13.3014 13.0955 13.2375C13.0318 13.1736 13 13.0944 13 13ZM15.359 6.66664H4.61284C4.54229 6.66664 4.48234 6.64214 4.43301 6.59314C4.38368 6.54402 4.35901 6.48447 4.35901 6.41447V6.2603C4.35901 6.20897 4.37195 6.16491 4.39784 6.12814C4.42362 6.09136 4.45768 6.06147 4.50001 6.03847L9.54101 3.6333C9.68501 3.56152 9.83745 3.52563 9.99834 3.52563C10.1592 3.52563 10.3128 3.56152 10.459 3.6333L15.4795 6.0218C15.5248 6.05169 15.5631 6.08802 15.5942 6.1308C15.6254 6.17347 15.641 6.22202 15.641 6.27647V6.3878C15.641 6.47202 15.6156 6.53952 15.5647 6.5903C15.5139 6.64119 15.4453 6.66664 15.359 6.66664ZM6.12051 5.99997H13.8795L10.1795 4.24364C10.1196 4.21797 10.0598 4.20514 10 4.20514C9.94023 4.20514 9.8804 4.21797 9.82051 4.24364L6.12051 5.99997Z" fill="url(#paint0_linear_137_75042)"/>
</g>
<defs>
<linearGradient id="paint0_linear_137_75042" x1="4.35901" y1="9.42947" x2="15.641" y2="9.42947" gradientUnits="userSpaceOnUse">
<stop stop-color="#8FD1EC"/>
<stop offset="1" stop-color="#229ACE"/>
</linearGradient>
</defs>
</svg>
