<svg width="156" height="104" viewBox="0 0 156 104" fill="none" xmlns="http://www.w3.org/2000/svg">
<path d="M33.4774 72.1281C33.4788 72.1211 33.4902 72.0999 33.4859 72.0999C33.4746 72.0999 33.4732 72.1112 33.4774 72.1281Z" fill="#1D478E"/>
<path d="M148.39 31.3931C148.39 48.731 134.2 62.7861 116.695 62.7861C99.1903 62.7861 85 48.731 85 31.3931C85 14.0552 99.1903 0 116.695 0C134.2 0 148.39 14.0552 148.39 31.3931Z" fill="#5BC4F0" fill-opacity="0.2"/>
<path d="M36.2682 64.9725H24.0209V88.365H36.2682V64.9725Z" fill="#1D478E"/>
<path d="M55.7197 53.3069H43.4724V88.365H55.7197V53.3069Z" fill="#1D478E"/>
<path d="M75.1716 29.2475H62.9243V88.3651H75.1716V29.2475Z" fill="#1D478E"/>
<path d="M94.6238 46.3285H82.3765V88.365H94.6238V46.3285Z" fill="#1D478E"/>
<path d="M114 33.6762H102V88.1524H114V33.6762Z" fill="#1D478E"/>
<path d="M135 17.8286H123V88.1524H135V17.8286Z" fill="#1D478E"/>
<path d="M29.3265 73.2953L28.9999 72.7036L49.4245 63.1218L70.4893 36.6675L89.7731 55.2792L109.598 36.9991L118.728 39.6082L131.457 22.7809L132 23.216L119.02 40.3086L109.86 37.6969L89.7616 56.2277L70.5612 37.6969L49.9036 63.6418L29.3265 73.2953Z" fill="#FFD325"/>
<path d="M50.0671 91.93C50.0671 92.9559 42.4421 93.7893 33.0421 93.7893C23.642 93.7893 16.017 92.9559 16.017 91.93C16.017 91.9115 16.0207 91.8929 16.0245 91.8744V86.8521H50.0559V91.8633C50.0634 91.8855 50.0671 91.9078 50.0671 91.93Z" fill="#AF8E2F"/>
<path d="M33.0388 88.7566C42.4415 88.7566 50.0639 87.9241 50.0639 86.8973C50.0639 85.8704 42.4415 85.038 33.0388 85.038C23.6361 85.038 16.0137 85.8704 16.0137 86.8973C16.0137 87.9241 23.6361 88.7566 33.0388 88.7566Z" fill="#FFD325"/>
<path d="M54.0884 85.8678C54.0884 86.8938 46.4633 87.7272 37.0633 87.7272C27.6633 87.7272 20.0382 86.8938 20.0382 85.8678C20.0382 85.8493 20.042 85.8308 20.0457 85.8123V80.7899H54.0771V85.8012C54.0846 85.8234 54.0884 85.8456 54.0884 85.8678Z" fill="#AF8E2F"/>
<path d="M37.0601 82.6973C46.4628 82.6973 54.0852 81.8648 54.0852 80.8379C54.0852 79.8111 46.4628 78.9786 37.0601 78.9786C27.6574 78.9786 20.035 79.8111 20.035 80.8379C20.035 81.8648 27.6574 82.6973 37.0601 82.6973Z" fill="#FFD325"/>
<path d="M50.8881 79.0223C50.8881 80.0482 43.263 80.8816 33.863 80.8816C24.463 80.8816 16.8379 80.0482 16.8379 79.0223C16.8379 79.0037 16.8417 78.9852 16.8454 78.9667V73.9443H50.8768V78.9556C50.8843 78.9778 50.8881 79 50.8881 79.0223Z" fill="#AF8E2F"/>
<path d="M33.863 75.8488C43.2657 75.8488 50.8881 75.0164 50.8881 73.9895C50.8881 72.9626 43.2657 72.1302 33.863 72.1302C24.4603 72.1302 16.8379 72.9626 16.8379 73.9895C16.8379 75.0164 24.4603 75.8488 33.863 75.8488Z" fill="#FFD325"/>
<ellipse opacity="0.4" cx="34.1019" cy="73.6067" rx="9.49207" ry="1.08175" fill="#AF8E2F"/>
<path d="M29.6379 42.8412C21.2925 44.9837 16.2832 53.3992 18.4539 61.6397C20.6246 69.8769 29.1506 74.8245 37.4995 72.6786C45.8449 70.5361 50.8577 62.1207 48.6836 53.8801C46.5129 45.643 37.9868 40.6986 29.6379 42.8412ZM45.7359 54.6369C46.581 57.8423 46.1073 61.1856 44.4069 64.0412C42.7065 66.9002 39.9837 68.9317 36.7328 69.7659C30.0264 71.4846 23.1497 67.5022 21.4049 60.8795C20.5598 57.6741 21.0301 54.3342 22.7305 51.4752C24.3696 48.7172 26.9663 46.726 30.0673 45.8414C30.1798 45.8078 30.2922 45.7809 30.4047 45.7506C37.002 44.0554 43.7594 47.8864 45.6405 54.3073C45.6712 54.4149 45.7052 54.5259 45.7325 54.6336L45.7359 54.6369Z" fill="#FFD325"/>
<path d="M45.643 54.3115C45.6736 54.4191 45.7077 54.5301 45.735 54.6377C46.5801 57.8431 46.1064 61.1864 44.406 64.042C42.7055 66.901 39.9828 68.9325 36.7318 69.7667C30.0255 71.4854 23.1487 67.5031 21.404 60.8804C20.5589 57.675 21.0291 54.335 22.7296 51.4761C24.3687 48.718 26.9654 46.7268 30.0664 45.8422C30.1788 45.8086 30.2913 45.7817 30.4037 45.7514C37.001 44.0562 43.7585 47.8872 45.6396 54.3081L45.643 54.3115Z" fill="#AF8E2F"/>
<path d="M22.4576 48.9145C23.642 49.4801 24.456 50.3484 25.0115 51.4369C25.5669 50.3484 26.3844 49.4769 27.5688 48.9112C26.3844 48.3455 25.5669 47.4773 25.0115 46.3888C24.456 47.4773 23.642 48.3488 22.4576 48.9145Z" fill="white"/>
<path d="M37.5194 55.7529C37.4611 55.6955 37.3906 55.6623 37.2987 55.6594L35.6381 55.6065C35.5457 55.0745 35.3553 54.606 35.0608 54.2072L37.3249 54.2806C37.4169 54.2805 37.4904 54.2563 37.5516 54.2018C37.6128 54.1443 37.6434 54.0747 37.6463 53.984L37.6791 53.0074C37.6821 52.9167 37.6544 52.8442 37.5992 52.7837C37.5409 52.7233 37.4674 52.6932 37.3785 52.6902L29.2962 52.4319C29.2073 52.4289 29.1308 52.4532 29.0696 52.5107C29.0114 52.5652 28.9778 52.6378 28.9748 52.7285L28.9331 54.0044C28.9302 54.0861 28.9578 54.1616 29.0191 54.2221C29.0774 54.2855 29.151 54.3187 29.2337 54.3186L30.6431 54.3626C32.0095 54.4066 32.8647 54.7959 33.2116 55.5302L29.198 55.401C29.1092 55.4011 29.0326 55.4254 28.9714 55.4799C28.9101 55.5343 28.8796 55.6069 28.8766 55.6976L28.8439 56.6743C28.8439 56.765 28.8685 56.8375 28.9237 56.8979C28.9789 56.9583 29.0525 56.9885 29.1444 56.9914L33.2928 57.1266C33.1309 57.6467 32.7851 58.0341 32.2554 58.2916C31.7256 58.5491 31.0333 58.6646 30.1785 58.6352L29.0908 58.6C29.0051 58.6001 28.9316 58.6273 28.8673 58.6849C28.803 58.7454 28.7694 58.815 28.7664 58.8966L28.7247 60.1151C28.7217 60.1997 28.7493 60.2693 28.8045 60.3297C30.0068 61.674 31.5559 63.5501 33.4608 65.961C33.516 66.0395 33.5957 66.0788 33.6999 66.0847L35.5933 66.1464C35.7281 66.1523 35.8261 66.0978 35.8812 65.9829C35.9484 65.8679 35.9422 65.7591 35.8533 65.6533C34.0403 63.3028 32.6078 61.5445 31.565 60.3694C32.6709 60.2776 33.5744 59.9532 34.2816 59.4023C34.9887 58.8483 35.4292 58.1162 35.6091 57.1999L37.2421 57.2528C37.3309 57.2527 37.4075 57.2284 37.4656 57.174C37.5269 57.1195 37.5574 57.0469 37.5604 56.9562L37.5932 55.9796C37.5931 55.8889 37.5685 55.8163 37.5133 55.7559L37.5194 55.7529Z" fill="#CCA91E"/>
<path d="M20.1454 77.2368C20.8269 73.69 20.3837 69.9155 18.9013 66.6485C17.419 63.3814 14.9057 60.6401 11.8514 58.9583C13.3982 60.8951 13.797 63.5531 13.9542 66.0741C14.1106 68.596 14.0997 71.1987 15.0261 73.5308C15.9533 75.8628 18.1405 77.8821 20.5334 77.5892L20.1446 77.236L20.1454 77.2368Z" fill="#268E3A"/>
<path d="M20.1959 78.1313C19.5145 74.5846 19.9576 70.81 21.44 67.543C22.9224 64.276 25.4357 61.5346 28.4899 59.8528C26.9432 61.7896 26.5444 64.4476 26.3872 66.9686C26.2308 69.4905 26.2417 72.0932 25.3153 74.4253C24.3881 76.7573 22.2009 78.7766 19.808 78.4837L20.1968 78.1305L20.1959 78.1313Z" fill="#268E3A"/>
<path d="M17.4543 76.4438C15.9126 73.9112 15.492 70.6615 16.334 67.7898C17.1759 64.9181 19.2653 62.4771 21.8965 61.2904C21.343 64.9222 24.077 68.4293 23.5879 72.071C23.2718 74.4287 21.4776 76.49 19.2686 77.0363L17.4543 76.4438Z" fill="#32B353"/>
<path d="M18.5765 81.3174C18.5699 77.6989 19.8307 74.0894 22.1149 71.1896C24.3982 68.2906 27.6916 66.1186 31.3528 65.097C29.2743 66.6781 28.2919 69.2025 27.6013 71.6435C26.9098 74.0836 26.3848 76.6393 24.8974 78.7353C23.41 80.8322 20.6191 82.3622 18.0833 81.5832L18.5774 81.3166L18.5765 81.3174Z" fill="#007A18"/>
<path d="M19.7287 81.5122C19.7345 77.8937 18.5765 74.2842 16.4805 71.3844C14.3844 68.4854 11.3611 66.3134 8 65.2918C9.90879 66.8729 10.8101 69.3973 11.4447 71.8382C12.0793 74.2784 12.5617 76.8341 13.927 78.9301C15.2924 81.027 17.855 82.557 20.1827 81.778L19.7287 81.5114V81.5122Z" fill="#5BC275"/>
<path d="M25.8781 93.8683H12.6369L10.3602 80.2596H28.1547L25.8781 93.8683Z" fill="#161742"/>
<path d="M26.0109 94.0223H12.5031L10.1746 80.1042H28.3386L26.0101 94.0223H26.0109ZM12.7698 93.7129H25.7451L27.9699 80.4137H10.5449L12.7698 93.7129Z" fill="#161742"/>
</svg>
