<svg width="16" height="16" viewBox="0 0 16 16" fill="none" xmlns="http://www.w3.org/2000/svg">
<path d="M7.80725 9.33335L3.84441 8.87185C3.60941 8.84707 3.4588 8.72268 3.39258 8.49868C3.32636 8.27479 3.38041 8.08552 3.55475 7.93085L10.0766 2.07702C10.1065 2.04702 10.1411 2.02457 10.1804 2.00968C10.2196 1.99468 10.276 1.98718 10.3496 1.98718C10.4692 1.98718 10.5639 2.0389 10.6336 2.14235C10.7032 2.24579 10.7039 2.35474 10.6354 2.46918L8.15341 6.67952L12.1419 7.14102C12.3769 7.16579 12.5297 7.28802 12.6002 7.50768C12.6707 7.72735 12.6187 7.91452 12.4444 8.06918L5.92258 13.9359C5.89269 13.9659 5.85808 13.9862 5.81875 13.9969C5.77952 14.0075 5.72314 14.0129 5.64958 14.0129C5.52991 14.0129 5.43952 13.9611 5.37841 13.8577C5.3173 13.7542 5.31669 13.6496 5.37658 13.5437L7.80725 9.33335ZM7.00725 12.0115L11.7932 7.76535L7.07908 7.23718L9.01375 3.96668L4.20591 8.22568L8.90341 8.78852L7.00725 12.0115Z" fill="#1D478E"/>
</svg>
