<svg width="16" height="16" viewBox="0 0 16 16" fill="none" xmlns="http://www.w3.org/2000/svg">
<mask id="mask0_256_9353" style="mask-type:alpha" maskUnits="userSpaceOnUse" x="0" y="0" width="16" height="16">
<rect width="16" height="16" fill="#D9D9D9"/>
</mask>
<g mask="url(#mask0_256_9353)">
<path d="M9.71922 5.94729C9.93889 6.16696 10.1216 6.45879 10.2674 6.82279C10.4131 7.1869 10.4722 7.5429 10.4449 7.89079C10.4449 7.98057 10.4137 8.05601 10.3514 8.11712C10.2889 8.17823 10.2128 8.20879 10.1231 8.20879C10.0334 8.20879 9.958 8.17823 9.89689 8.11712C9.83578 8.05601 9.80523 7.98057 9.80523 7.89079C9.83511 7.59335 9.8035 7.31557 9.71039 7.05746C9.61717 6.79935 9.47611 6.57584 9.28722 6.38696C9.09834 6.19807 8.87056 6.05579 8.60389 5.96012C8.33722 5.86435 8.05817 5.83568 7.76673 5.87412C7.67695 5.88268 7.59723 5.8579 7.52756 5.79979C7.45789 5.74168 7.41884 5.66773 7.41039 5.57796C7.40184 5.48829 7.42595 5.40862 7.48273 5.33896C7.53961 5.26929 7.61289 5.23018 7.70256 5.22162C8.05645 5.17718 8.41972 5.22568 8.79239 5.36712C9.16506 5.50857 9.474 5.70196 9.71922 5.94729ZM8.00006 3.99979C7.73761 3.99979 7.47861 4.01451 7.22306 4.04396C6.9675 4.07351 6.71411 4.11907 6.46289 4.18062C6.368 4.2054 6.28189 4.19257 6.20456 4.14212C6.12723 4.09168 6.07361 4.02457 6.04373 3.94079C6.01372 3.84846 6.02245 3.76384 6.06989 3.68696C6.11734 3.61007 6.18723 3.55923 6.27956 3.53446C6.56078 3.46179 6.84473 3.41007 7.13139 3.37929C7.41817 3.34851 7.70772 3.33312 8.00006 3.33312C9.34284 3.33312 10.5828 3.67757 11.7199 4.36646C12.8571 5.05535 13.7377 5.99212 14.3616 7.17679C14.406 7.25712 14.4372 7.33596 14.4552 7.41329C14.4731 7.49062 14.4821 7.57501 14.4821 7.66646C14.4821 7.7579 14.4737 7.84229 14.4571 7.91962C14.4404 7.99696 14.4098 8.07579 14.3654 8.15612C14.1568 8.56646 13.9075 8.94685 13.6174 9.29729C13.3272 9.64762 13.0086 9.97112 12.6616 10.2678C12.5881 10.3301 12.5073 10.3566 12.4192 10.3473C12.3312 10.3378 12.2573 10.2938 12.1976 10.2151C12.1377 10.1366 12.1139 10.0547 12.1264 9.96962C12.1387 9.88462 12.1817 9.8109 12.2552 9.74846C12.5902 9.45879 12.8945 9.14046 13.1681 8.79346C13.4415 8.44635 13.6744 8.07068 13.8667 7.66646C13.3112 6.54423 12.5084 5.65257 11.4584 4.99146C10.4084 4.33035 9.25561 3.99979 8.00006 3.99979ZM8.00006 11.9998C6.68206 11.9998 5.4705 11.6526 4.36539 10.9581C3.26028 10.2637 2.37356 9.34634 1.70522 8.20612C1.64967 8.12579 1.61011 8.03929 1.58656 7.94662C1.56311 7.85385 1.55139 7.76046 1.55139 7.66646C1.55139 7.57246 1.5625 7.47973 1.58472 7.38829C1.60695 7.29684 1.64584 7.20968 1.70139 7.12679C1.97484 6.66523 2.278 6.2274 2.61089 5.81329C2.94389 5.39918 3.32917 5.03401 3.76673 4.71779L2.13973 3.08696C2.07739 3.02196 2.04472 2.94484 2.04172 2.85562C2.03872 2.76629 2.07272 2.68612 2.14372 2.61512C2.21461 2.54423 2.29322 2.50879 2.37956 2.50879C2.46589 2.50879 2.5445 2.54423 2.61539 2.61512L13.3847 13.3845C13.4471 13.4468 13.481 13.5226 13.4866 13.612C13.4921 13.7013 13.4582 13.7827 13.3847 13.8561C13.3137 13.9271 13.2351 13.9626 13.1487 13.9626C13.0624 13.9626 12.9838 13.9271 12.9129 13.8561L10.5539 11.505C10.1564 11.687 9.74278 11.815 9.31289 11.889C8.883 11.9628 8.44539 11.9998 8.00006 11.9998ZM4.23856 5.18946C3.77956 5.50401 3.37184 5.86984 3.01539 6.28696C2.65906 6.70407 2.36506 7.1639 2.13339 7.66646C2.68895 8.78868 3.49172 9.68035 4.54172 10.3415C5.59172 11.0026 6.7445 11.3331 8.00006 11.3331C8.3505 11.3331 8.6975 11.3086 9.04106 11.2595C9.38461 11.2102 9.71884 11.122 10.0437 10.9946L8.95639 9.89979C8.80861 9.98446 8.65567 10.0393 8.49756 10.0645C8.33945 10.0897 8.17361 10.1023 8.00006 10.1023C7.32061 10.1023 6.74478 9.86618 6.27256 9.39396C5.80034 8.92173 5.56423 8.3459 5.56423 7.66646C5.56423 7.4929 5.57895 7.32707 5.60839 7.16896C5.63784 7.01085 5.69061 6.8579 5.76673 6.71012L4.23856 5.18946Z" fill="white"/>
</g>
</svg>
