<svg width="280" height="160" viewBox="0 0 280 160" fill="none" xmlns="http://www.w3.org/2000/svg">
<g clip-path="url(#clip0_1884_17545)">
<rect width="280" height="160" rx="8" fill="#1D478E"/>
<path d="M126.587 89.7195C126.587 89.7195 117.187 99.87 105.849 118.994C94.5102 138.118 89.5568 145.813 98.9063 154.141C111.334 165.203 133.796 171.784 133.796 171.784L138.572 158.457C138.572 158.457 121.963 147.104 116.288 143.117L123.788 130.689L126.587 89.7195Z" fill="#32B353"/>
<path d="M137.103 160.468C137.103 160.468 140.448 158.063 141.841 158.506C143.235 158.937 138.142 175.605 138.142 175.605C138.142 175.605 133.467 172.163 133.822 169.809C134.177 167.455 137.103 160.468 137.103 160.468Z" fill="#E58F6C"/>
<path d="M211.797 78.6563C211.797 78.6563 209.073 78.0234 206.958 81.3015C204.044 85.8072 206.02 93.2619 206.02 93.2619L214.559 97.0589L222.223 84.9719L211.784 78.6689L211.797 78.6563Z" fill="#E58F6C"/>
<path d="M210.139 82.833C210.95 83.276 211.976 82.9849 212.432 82.1749L218.209 71.7206C218.653 70.9105 218.361 69.8854 217.55 69.4297C216.74 68.9867 215.713 69.2778 215.257 70.0879L209.48 80.5422C209.037 81.3522 209.328 82.3774 210.139 82.833Z" fill="#E58F6C"/>
<path d="M213.342 85.1484C214.28 85.5914 215.407 85.199 215.864 84.2624L217.992 79.7947C218.435 78.8581 218.043 77.7317 217.105 77.276C216.168 76.833 215.04 77.2254 214.584 78.162L212.456 82.6297C212.012 83.5663 212.405 84.6927 213.342 85.1484Z" fill="#E58F6C"/>
<path d="M215.95 87.2627C216.837 87.6804 217.888 87.3134 218.319 86.4274L220.321 82.2381C220.739 81.3521 220.371 80.3017 219.484 79.8713C218.598 79.4537 217.546 79.8207 217.115 80.7067L215.114 84.896C214.696 85.7819 215.063 86.8324 215.95 87.2627Z" fill="#E58F6C"/>
<path d="M217.65 88.6554C218.346 89.1617 219.334 88.9972 219.841 88.301L222.236 84.9724C222.742 84.2763 222.578 83.2891 221.881 82.7828C221.184 82.2765 220.196 82.4411 219.689 83.1372L217.295 86.4658C216.788 87.162 216.953 88.1492 217.65 88.6554Z" fill="#E58F6C"/>
<path d="M211.796 82.5919C211.796 82.5919 211.733 82.5666 211.708 82.5539C211.505 82.4274 211.442 82.1742 211.568 81.9717L214.507 77.2255C214.634 77.023 214.887 76.9597 215.09 77.0863C215.293 77.2129 215.356 77.466 215.23 77.6685L212.29 82.4147C212.189 82.5919 211.974 82.6552 211.796 82.5919Z" fill="#161742"/>
<path d="M214.559 84.9085C214.559 84.9085 214.496 84.8832 214.47 84.8579C214.267 84.7313 214.217 84.4656 214.343 84.2757L217.409 79.5169C217.536 79.3144 217.802 79.2637 217.992 79.3903C218.195 79.5169 218.245 79.7826 218.119 79.9725L215.053 84.7313C214.939 84.8959 214.736 84.9718 214.559 84.9085Z" fill="#161742"/>
<path d="M217.156 86.8708C217.156 86.8708 217.08 86.8328 217.042 86.8075C216.852 86.6683 216.814 86.4025 216.941 86.2127L219.335 82.884C219.475 82.6941 219.741 82.6562 219.931 82.7827C220.121 82.922 220.159 83.1877 220.032 83.3776L217.638 86.7063C217.524 86.8581 217.334 86.9214 217.156 86.8581V86.8708Z" fill="#161742"/>
<path d="M208.542 82.3396C208.542 82.3396 208.491 82.327 208.466 82.3143C208.263 82.2004 208.187 81.9473 208.301 81.7321L210.125 78.4794C210.24 78.2769 210.506 78.2009 210.708 78.3148C210.911 78.4287 210.987 78.6819 210.873 78.897L209.049 82.1498C208.947 82.327 208.732 82.4155 208.542 82.3396Z" fill="#161742"/>
<path d="M161.446 347.364L125.3 344.65C125.3 344.65 130.09 208.594 132.509 193.308C134.928 178.022 141.045 153.481 141.045 153.481L173.265 144.985L170.132 347.364H161.446Z" fill="#1D478E"/>
<path d="M239.342 341.44C239.342 341.44 219.726 259.849 204.878 218.424C194.958 190.744 178.189 144.546 178.189 144.546L144.224 153.343L142.995 196.476L158.464 198.463L190.883 348.177L245.32 340.609L239.342 341.44Z" fill="#1D478E"/>
<path d="M234.462 343.317C234.171 343.317 233.904 343.101 233.841 342.81C233.613 341.659 210.518 226.522 171.942 147.545C171.79 147.229 171.917 146.849 172.233 146.697C172.55 146.545 172.93 146.672 173.082 146.988C211.734 226.117 234.867 341.418 235.095 342.57C235.159 342.912 234.943 343.241 234.601 343.317C234.563 343.317 234.513 343.317 234.475 343.317H234.462Z" fill="#161742"/>
<path d="M147.715 75.9703L145.781 91.3341L135.386 93.4091L136.394 73.2273L147.715 75.9703Z" fill="#E58F6C"/>
<path d="M147.02 81.0763L147.716 76.0487L139.87 75.4702L147.02 81.0763Z" fill="#161742"/>
<path d="M130.071 86.9341C130.071 86.9341 118.201 93.1358 119.62 107.083C121.039 121.018 127.69 156.646 142.968 154.001C150.202 152.748 157.322 150.483 164.378 148.508C167.849 147.534 171.321 146.546 174.792 145.534C175.831 145.23 177.161 144.547 178.225 144.534C177.706 142.041 176.895 139.775 176.097 137.421C175.299 135.067 175.413 132.713 174.956 130.397C174.576 128.486 173.791 126.207 174.31 124.296C174.234 124.575 181.671 127.346 182.317 127.6C185.826 128.992 188.107 129.941 191.983 128.789C197.481 127.144 201.168 122.119 204.88 118.082C207.198 115.563 208.858 112.64 210.72 109.792C212.304 107.374 214.014 105.046 215.712 102.704C217.042 100.869 219.031 98.8945 220.006 96.8821C220.082 96.7176 220.158 96.5278 220.12 96.3506C220.057 96.1101 219.804 95.9835 219.575 95.8823C216.32 94.4521 213.406 92.6422 210.226 91.0855C209.719 90.8323 203.41 88.2757 203.524 88.1365C200.623 91.288 197.887 94.7305 195.062 97.9959C192.262 101.223 188.183 106.071 183.432 105.856C178.681 105.64 175.007 101.844 171.65 98.9705C168.825 96.5531 165.784 94.4015 162.731 92.3005C158.728 89.554 153.458 85.6685 148.352 85.6685C138.851 85.6685 130.071 86.9341 130.071 86.9341Z" fill="#32B353"/>
<path d="M177.465 125.601C177.377 125.601 177.275 125.576 177.187 125.538L156.334 115.4C156.017 115.248 155.891 114.868 156.043 114.552C156.195 114.235 156.575 114.109 156.891 114.261L177.744 124.398C178.061 124.55 178.187 124.93 178.035 125.246C177.921 125.474 177.706 125.601 177.465 125.601Z" fill="#161742"/>
<path d="M118.061 145.522C117.972 145.522 117.896 145.509 117.808 145.471C112.297 143.104 104.316 140.7 104.24 140.674C103.91 140.573 103.72 140.219 103.809 139.89C103.898 139.561 104.265 139.371 104.594 139.459C104.67 139.485 112.728 141.915 118.302 144.307C118.619 144.446 118.771 144.813 118.631 145.142C118.53 145.383 118.289 145.522 118.048 145.522H118.061Z" fill="#161742"/>
<path d="M217.195 99.1097C217.106 99.1097 217.017 99.097 216.929 99.0464L210.151 95.9203C209.834 95.7684 209.695 95.4013 209.834 95.0849C209.986 94.7685 210.354 94.6293 210.67 94.7685L217.448 97.8947C217.765 98.0466 217.904 98.4136 217.765 98.73C217.663 98.9578 217.423 99.0971 217.195 99.0971V99.1097Z" fill="#161742"/>
<path d="M143.179 50.8396C143.179 50.8396 148.944 49.9796 152.942 56.5919C156.941 63.2041 159.343 72.5233 154.709 75.4135C145.863 80.9543 137.936 74.7368 137.936 74.7368L131.465 62.3582L136.919 53.0954L143.193 50.8255L143.179 50.8396Z" fill="#E58F6C"/>
<path d="M154.93 69.6235C154.243 69.9509 153.484 70.0227 152.665 69.8368C152.456 69.7882 152.343 69.5516 152.413 69.3045C152.483 69.0594 152.71 68.8967 152.921 68.9453C153.749 69.1333 154.484 69.0045 155.108 68.5566C156.189 67.7834 156.608 66.3236 156.611 66.3088C156.679 66.0616 156.906 65.8989 157.117 65.9454C157.326 65.9919 157.442 66.2285 157.372 66.4757C157.352 66.5496 156.844 68.3242 155.466 69.3087C155.293 69.4333 155.114 69.539 154.93 69.6256V69.6235Z" fill="#161742"/>
<path d="M144.511 58.6514C144.44 58.6514 144.354 58.6514 144.282 58.6094C143.909 58.4835 143.709 58.0917 143.823 57.7279C144.87 54.6637 147.881 54.1879 148.01 54.1739C148.397 54.118 148.77 54.3838 148.827 54.7616C148.884 55.1394 148.612 55.5032 148.225 55.5591C148.139 55.5731 145.945 55.9369 145.185 58.1756C145.085 58.4695 144.798 58.6514 144.511 58.6514Z" fill="#161742"/>
<path d="M154.418 61.7313C154.109 61.2303 154.218 60.5782 154.672 60.2043C155.529 59.4995 156.796 60.2629 156.573 61.3497C156.359 62.394 154.978 62.6385 154.418 61.7313Z" fill="#E58F6C"/>
<path d="M138.743 67.5876C138.743 67.5876 139.364 68.3346 141.072 64.3035C143.006 59.7368 140.804 56.7205 140.804 56.7205C140.804 56.7205 147.621 54.4653 147.127 50.7866C146.633 47.1079 140.38 47.2347 137.995 50.2087C135.61 53.1968 132.208 56.3258 132.208 56.3258L124.092 73.6906C124.092 73.6906 127.663 83.9657 121.594 86.9397C115.524 89.9137 109.469 94.0716 113.972 98.5679C118.474 103.064 123.965 97.6658 123.965 97.6658C123.965 97.6658 117.952 107.335 127.748 108.491C137.543 109.646 142.131 92.2534 142.667 86.8551C143.909 74.2685 138.757 67.5735 138.757 67.5735L138.743 67.5876Z" fill="#161742"/>
<path d="M139.871 71.4442C139.871 71.4442 126.355 81.3805 119.136 79.0368C119.136 79.0368 123.3 70.8829 124.179 66.827C126.038 58.224 135 53.6067 135 53.6067L139.871 71.4442Z" fill="#FFD325"/>
<path d="M141.943 68.5643C140.404 66.4491 137.708 65.8568 135.902 67.2247C134.109 68.5925 133.897 71.4128 135.422 73.528C136.946 75.6433 139.656 76.2355 141.463 74.8677C143.256 73.4998 143.467 70.6795 141.943 68.5643Z" fill="#E58F6C"/>
<path d="M140.347 72.4C140.234 72.4 140.107 72.3718 139.994 72.3154L136.183 70.1579C135.844 69.9605 135.717 69.5374 135.915 69.199C136.113 68.8606 136.536 68.7478 136.875 68.9311L140.686 71.0886C141.025 71.286 141.152 71.7091 140.954 72.0475C140.827 72.2731 140.587 72.4 140.333 72.4H140.347Z" fill="#161742"/>
<path d="M137.949 73.7254C137.822 73.7254 137.695 73.6972 137.582 73.6126C137.257 73.4011 137.144 72.9639 137.356 72.6396L138.457 70.891C138.669 70.5667 139.106 70.4538 139.431 70.6654C139.755 70.8769 139.868 71.314 139.657 71.6384L138.556 73.387C138.415 73.5985 138.189 73.7254 137.963 73.7254H137.949Z" fill="#161742"/>
<path d="M127.159 138.636C126.918 138.636 126.677 138.497 126.576 138.244C126.335 137.674 120.66 124.094 120.267 114.146C120.254 113.791 120.52 113.5 120.875 113.488C121.217 113.462 121.521 113.741 121.534 114.095C121.927 123.828 127.691 137.624 127.754 137.75C127.894 138.067 127.742 138.446 127.412 138.573C127.336 138.611 127.247 138.624 127.171 138.624L127.159 138.636Z" fill="#161742"/>
<path d="M149.957 59.2121C149.957 60.1482 149.323 60.8939 148.556 60.8939C147.79 60.8939 147.155 60.1323 147.155 59.2121C147.155 58.2919 147.79 57.5303 148.556 57.5303C149.323 57.5303 149.957 58.2919 149.957 59.2121Z" fill="#161742"/>
<path opacity="0.5" d="M164.495 161.732C165.146 157.704 162.408 153.91 158.38 153.259C154.352 152.608 150.558 155.346 149.907 159.374C149.256 163.403 151.994 167.196 156.022 167.847C160.051 168.498 163.844 165.76 164.495 161.732Z" fill="#8CD6F5"/>
<path d="M161.977 161.696C162.596 159.064 160.964 156.428 158.332 155.809C155.7 155.19 153.065 156.822 152.445 159.453C151.826 162.085 153.458 164.721 156.09 165.34C158.722 165.96 161.357 164.328 161.977 161.696Z" fill="#8CD6F5"/>
<path opacity="0.5" d="M174.557 43.4183C175.469 37.768 171.628 32.4481 165.978 31.536C160.328 30.6239 155.008 34.4649 154.096 40.1152C153.184 45.7655 157.025 51.0854 162.675 51.9975C168.325 52.9096 173.645 49.0685 174.557 43.4183Z" fill="#8CD6F5"/>
<path d="M171.1 42.9003C171.726 39.1627 169.203 35.6257 165.465 35.0002C161.728 34.3747 158.191 36.8977 157.565 40.6353C156.94 44.3729 159.463 47.9099 163.2 48.5353C166.938 49.1608 170.475 46.6379 171.1 42.9003Z" fill="#8CD6F5"/>
<path opacity="0.5" d="M63.3885 156.777C67.469 156.777 70.777 153.469 70.777 149.388C70.777 145.308 67.469 142 63.3885 142C59.3079 142 56 145.308 56 149.388C56 153.469 59.3079 156.777 63.3885 156.777Z" fill="#8CD6F5"/>
<path d="M63.3908 154.284C66.0946 154.284 68.2865 152.092 68.2865 149.388C68.2865 146.684 66.0946 144.492 63.3908 144.492C60.687 144.492 58.4951 146.684 58.4951 149.388C58.4951 152.092 60.687 154.284 63.3908 154.284Z" fill="#8CD6F5"/>
<path opacity="0.5" d="M62.1727 37.1735C66.2532 37.1735 69.5612 33.8655 69.5612 29.785C69.5612 25.7044 66.2532 22.3965 62.1727 22.3965C58.0921 22.3965 54.7842 25.7044 54.7842 29.785C54.7842 33.8655 58.0921 37.1735 62.1727 37.1735Z" fill="#8CD6F5"/>
<path d="M62.175 34.68C64.8788 34.68 67.0707 32.4882 67.0707 29.7844C67.0707 27.0805 64.8788 24.8887 62.175 24.8887C59.4712 24.8887 57.2793 27.0805 57.2793 29.7844C57.2793 32.4882 59.4712 34.68 62.175 34.68Z" fill="#8CD6F5"/>
<path opacity="0.5" d="M226.975 154.13C230.222 154.13 232.854 151.498 232.854 148.251C232.854 145.004 230.222 142.372 226.975 142.372C223.729 142.372 221.097 145.004 221.097 148.251C221.097 151.498 223.729 154.13 226.975 154.13Z" fill="#8CD6F5"/>
<path d="M230.867 148.251C230.867 150.403 229.126 152.144 226.973 152.144C224.821 152.144 223.08 150.403 223.08 148.251C223.08 146.099 224.821 144.358 226.973 144.358C229.126 144.358 230.867 146.099 230.867 148.251Z" fill="#8CD6F5"/>
<path opacity="0.5" d="M46.0886 55.0982C46.0886 57.2505 44.3475 58.9917 42.1952 58.9917C40.0429 58.9917 38.3018 57.2505 38.3018 55.0982C38.3018 52.9459 40.0429 51.2048 42.1952 51.2048C44.3475 51.2048 46.0886 52.9459 46.0886 55.0982Z" fill="#8CD6F5"/>
<path d="M42.1877 57.6746C43.6105 57.6746 44.764 56.5212 44.764 55.0983C44.764 53.6754 43.6105 52.522 42.1877 52.522C40.7648 52.522 39.6113 53.6754 39.6113 55.0983C39.6113 56.5212 40.7648 57.6746 42.1877 57.6746Z" fill="#8CD6F5"/>
<path opacity="0.5" d="M226.081 112.561C226.081 114.713 224.34 116.455 222.187 116.455C220.035 116.455 218.294 114.713 218.294 112.561C218.294 110.409 220.035 108.668 222.187 108.668C224.34 108.668 226.081 110.409 226.081 112.561Z" fill="#8CD6F5"/>
<path d="M224.762 112.561C224.762 113.988 223.606 115.138 222.186 115.138C220.766 115.138 219.609 113.981 219.609 112.561C219.609 111.141 220.766 109.985 222.186 109.985C223.606 109.985 224.762 111.141 224.762 112.561Z" fill="#8CD6F5"/>
<path opacity="0.5" d="M174.697 121.646C176.847 121.646 178.591 119.903 178.591 117.753C178.591 115.603 176.847 113.859 174.697 113.859C172.547 113.859 170.804 115.603 170.804 117.753C170.804 119.903 172.547 121.646 174.697 121.646Z" fill="#8CD6F5"/>
<path d="M174.695 120.329C176.118 120.329 177.272 119.176 177.272 117.753C177.272 116.33 176.118 115.177 174.695 115.177C173.273 115.177 172.119 116.33 172.119 117.753C172.119 119.176 173.273 120.329 174.695 120.329Z" fill="#8CD6F5"/>
<path opacity="0.5" d="M140.932 13.652C140.932 15.8043 139.191 17.5454 137.039 17.5454C134.887 17.5454 133.146 15.8043 133.146 13.652C133.146 11.4997 134.887 9.75854 137.039 9.75854C139.191 9.75854 140.932 11.4997 140.932 13.652Z" fill="#8CD6F5"/>
<path d="M139.614 13.652C139.614 15.0783 138.457 16.2284 137.037 16.2284C135.617 16.2284 134.461 15.0719 134.461 13.652C134.461 12.2321 135.617 11.0757 137.037 11.0757C138.457 11.0757 139.614 12.2321 139.614 13.652Z" fill="#8CD6F5"/>
<path d="M207.526 62.1655C207.526 63.1741 206.71 63.9901 205.702 63.9901C204.693 63.9901 203.877 63.1741 203.877 62.1655C203.877 61.1568 204.693 60.3408 205.702 60.3408C206.71 60.3408 207.526 61.1568 207.526 62.1655Z" fill="#8CD6F5"/>
<path d="M177.649 62.8246C177.649 63.8333 176.833 64.6493 175.825 64.6493C174.816 64.6493 174 63.8333 174 62.8246C174 61.8159 174.816 61 175.825 61C176.833 61 177.649 61.8159 177.649 62.8246Z" fill="#8CD6F5"/>
<path d="M81.787 13.6528C81.787 14.6615 80.971 15.4774 79.9623 15.4774C78.9536 15.4774 78.1377 14.6615 78.1377 13.6528C78.1377 12.6441 78.9536 11.8281 79.9623 11.8281C80.971 11.8281 81.787 12.6441 81.787 13.6528Z" fill="#8CD6F5"/>
<path d="M57.5292 81.4396C57.5292 82.4483 56.7132 83.2643 55.7045 83.2643C54.6958 83.2643 53.8799 82.4483 53.8799 81.4396C53.8799 80.4309 54.6958 79.615 55.7045 79.615C56.7132 79.615 57.5292 80.4309 57.5292 81.4396Z" fill="#8CD6F5"/>
<path d="M252.001 99.3659C252.001 100.375 251.185 101.191 250.176 101.191C249.168 101.191 248.352 100.375 248.352 99.3659C248.352 98.3572 249.168 97.5413 250.176 97.5413C251.185 97.5413 252.001 98.3572 252.001 99.3659Z" fill="#8CD6F5"/>
<path d="M99.4364 108.841C99.4364 109.85 98.6204 110.666 97.6117 110.666C96.6031 110.666 95.7871 109.85 95.7871 108.841C95.7871 107.833 96.6031 107.017 97.6117 107.017C98.6204 107.017 99.4364 107.833 99.4364 108.841Z" fill="#8CD6F5"/>
<path d="M32.8246 118.369C33.8324 118.369 34.6493 117.552 34.6493 116.544C34.6493 115.537 33.8324 114.72 32.8246 114.72C31.8169 114.72 31 115.537 31 116.544C31 117.552 31.8169 118.369 32.8246 118.369Z" fill="#8CD6F5"/>
<path d="M143.39 139.392C143.39 140.4 142.575 141.216 141.566 141.216C140.557 141.216 139.741 140.4 139.741 139.392C139.741 138.383 140.557 137.567 141.566 137.567C142.575 137.567 143.39 138.383 143.39 139.392Z" fill="#8CD6F5"/>
<path d="M122.092 46.6113C122.092 47.6199 121.276 48.4359 120.267 48.4359C119.258 48.4359 118.442 47.6199 118.442 46.6113C118.442 45.6026 119.258 44.7866 120.267 44.7866C121.276 44.7866 122.092 45.6026 122.092 46.6113Z" fill="#8CD6F5"/>
<path d="M206.629 19.3632C206.629 20.3719 205.813 21.1878 204.804 21.1878C203.795 21.1878 202.979 20.3719 202.979 19.3632C202.979 18.3545 203.795 17.5386 204.804 17.5386C205.813 17.5386 206.629 18.3545 206.629 19.3632Z" fill="#8CD6F5"/>
<path d="M106.671 192.493L106.626 192.442L81.7297 165.927L32.7344 116.572V116.533L42.1146 55.0671L42.1274 55.0479L62.102 29.7342L79.9051 13.5888L120.869 -9.28345L120.908 -9.22562L137.098 13.6016L164.346 41.6651L204.816 19.2618L204.861 19.3068L231.947 48.4046L250.265 99.366L250.252 99.3981L227.026 148.316H226.988L157.234 160.639L106.664 192.487L106.671 192.493ZM32.9078 116.514L81.8454 165.817L106.696 192.288L157.195 160.491L226.923 148.175L250.097 99.3596L231.813 48.4753L204.796 19.461L164.327 41.8578L164.282 41.8128L136.983 13.698L120.818 -9.07143L80.0015 13.7173L62.2241 29.8435L42.2687 55.1314L32.9078 116.514Z" fill="#8CD6F5"/>
<path d="M207.56 184.135L207.49 184.103L157.151 160.633L157.139 160.614L141.507 139.444L97.658 108.965L81.8017 166.094L81.7117 165.901L63.5938 127.443L55.6143 81.4283V81.4091L79.9064 13.5505L79.977 13.5634L131.035 25.2565L136.984 13.557H137.035L204.875 19.2814V19.3521L205.357 42.2693L231.885 48.3471L231.859 48.5078L205.434 45.8993L205.774 62.1797L205.761 62.199L174.832 117.651L222.247 112.466L222.26 112.544L227.047 148.259L227.034 148.285L207.547 184.128L207.56 184.135ZM157.261 160.505L207.49 183.923L226.892 148.233L222.119 112.646L174.55 117.844L174.627 117.709L205.62 62.1411L205.28 45.8865L164.322 41.8453L120.119 46.7088L120.183 46.5739L130.951 25.4043L80.0027 13.7369L55.7749 81.4412L63.7416 127.404L81.7567 165.638L97.5552 108.708L97.6452 108.772L141.616 139.341L157.241 160.505H157.261ZM205.44 45.7451L230.625 48.2315L205.369 42.4492L205.44 45.7451ZM131.125 25.4492L120.408 46.5225L164.328 41.6911L205.28 45.7323L205.209 42.4171L131.125 25.4492ZM131.202 25.3015L205.209 42.25L204.727 19.4421L137.087 13.7369L131.202 25.3015Z" fill="#8CD6F5"/>
<path d="M204.758 19.4288L172.068 -4.36857L172.165 -4.49707L204.848 19.3003L204.758 19.4288Z" fill="#8CD6F5"/>
<path d="M137.896 207.244L137.87 207.231L106.671 192.473L106.1 192.518L106.492 192.377L57.4705 165.933L57.4576 165.907L32.7672 116.61L32.4717 116.507L32.7801 116.468L55.6137 81.4339L42.0896 55.0602L42.1667 55.028L84.1526 36.6789L79.848 13.4533L80.015 13.5946L99.8548 29.8172L120.453 20.8161L120.767 -9.2583H120.857L172.403 -4.47827L172.159 -4.34977L137.074 13.7296L120.613 20.9253L120.343 46.7915L120.215 46.6887L99.8291 30.01L84.3389 36.7817L97.7153 108.919L97.6318 108.932L33.1784 116.584L63.709 127.365L141.552 139.308L174.729 117.638L174.768 117.721L195.558 159.694L226.898 148.194L228.794 109.536L222.221 112.633L222.15 112.485L228.8 109.35L230.111 82.6867L205.555 62.1467L205.664 62.0889L231.961 48.2949L230.278 82.616L250.329 99.3847L250.214 99.4361L228.961 109.452L227.053 148.297L227.001 148.316L195.629 159.829L207.65 184.089H207.54L137.896 207.231V207.244ZM106.986 192.441L137.902 207.064L206.859 184.16L106.986 192.441ZM57.5861 165.817L106.691 192.3L195.41 159.746L174.665 117.869L141.584 139.475H141.552L63.664 127.519L32.9857 116.687L57.5861 165.817ZM195.481 159.893L107.269 192.261L207.399 183.961L195.481 159.893ZM42.308 55.1373L55.8 81.4467L55.7744 81.4853L32.9857 116.443L97.5226 108.771L84.1847 36.8395L42.308 55.1437V55.1373ZM230.271 82.8216L228.974 109.279L250.034 99.3526L230.271 82.8216ZM205.844 62.1852L230.124 82.4875L231.788 48.5711L205.844 62.1788V62.1852ZM99.9897 29.9264L120.183 46.4445L120.446 20.9831L99.9833 29.9264H99.9897ZM80.0857 13.8516L84.3068 36.6082L99.6877 29.8879L80.0857 13.8516ZM120.922 -9.09126L120.613 20.7326L137.003 13.5689L171.838 -4.38189L120.922 -9.09126Z" fill="#8CD6F5"/>
<path opacity="0.5" d="M73.4055 113.666C74.3125 107.38 69.9518 101.549 63.6656 100.642C57.3794 99.7351 51.5482 104.096 50.6412 110.382C49.7343 116.668 54.095 122.499 60.3812 123.406C66.6673 124.313 72.4985 119.953 73.4055 113.666Z" fill="#8CD6F5"/>
<circle cx="61.999" cy="111.764" r="9" fill="#EFF9FD"/>
<mask id="mask0_1884_17545" style="mask-type:alpha" maskUnits="userSpaceOnUse" x="55" y="105" width="13" height="13">
<rect x="55.999" y="105.764" width="12" height="12" fill="#D9D9D9"/>
</mask>
<g mask="url(#mask0_1884_17545)">
<path d="M59.5356 113.803C58.9716 113.803 58.4908 113.604 58.0933 113.207C57.6958 112.81 57.4971 112.329 57.4971 111.765C57.4971 111.201 57.6958 110.72 58.0933 110.323C58.4908 109.925 58.9716 109.726 59.5356 109.726H61.0548C61.1257 109.726 61.185 109.75 61.2329 109.798C61.2809 109.846 61.3048 109.906 61.3048 109.976C61.3048 110.047 61.2809 110.107 61.2329 110.154C61.185 110.202 61.1257 110.226 61.0548 110.226H59.5344C59.1121 110.226 58.7503 110.377 58.4489 110.678C58.1477 110.979 57.9971 111.341 57.9971 111.765C57.9971 112.188 58.1477 112.55 58.4489 112.851C58.7503 113.152 59.1121 113.303 59.5344 113.303H61.0548C61.1257 113.303 61.185 113.327 61.2329 113.375C61.2809 113.423 61.3048 113.482 61.3048 113.553C61.3048 113.624 61.2809 113.684 61.2329 113.731C61.185 113.779 61.1257 113.803 61.0548 113.803H59.5356ZM60.4971 112.015C60.4262 112.015 60.3669 111.991 60.3189 111.943C60.271 111.895 60.2471 111.835 60.2471 111.764C60.2471 111.693 60.271 111.634 60.3189 111.586C60.3669 111.538 60.4262 111.515 60.4971 111.515H63.4971C63.5679 111.515 63.6273 111.539 63.6752 111.587C63.7231 111.635 63.7471 111.694 63.7471 111.765C63.7471 111.836 63.7231 111.895 63.6752 111.943C63.6273 111.991 63.5679 112.015 63.4971 112.015H60.4971ZM62.9393 113.803C62.8685 113.803 62.8091 113.779 62.7612 113.731C62.7133 113.683 62.6893 113.624 62.6893 113.553C62.6893 113.482 62.7133 113.422 62.7612 113.375C62.8091 113.327 62.8685 113.303 62.9393 113.303H64.4597C64.882 113.303 65.2439 113.152 65.5452 112.851C65.8464 112.55 65.9971 112.188 65.9971 111.765C65.9971 111.341 65.8464 110.979 65.5452 110.678C65.2439 110.377 64.882 110.226 64.4597 110.226H62.9393C62.8685 110.226 62.8091 110.202 62.7612 110.154C62.7133 110.106 62.6893 110.047 62.6893 109.976C62.6893 109.905 62.7133 109.845 62.7612 109.798C62.8091 109.75 62.8685 109.726 62.9393 109.726H64.4586C65.0226 109.726 65.5033 109.925 65.9008 110.322C66.2983 110.72 66.4971 111.2 66.4971 111.764C66.4971 112.328 66.2983 112.809 65.9008 113.206C65.5033 113.604 65.0226 113.803 64.4586 113.803H62.9393Z" fill="#1D478E"/>
</g>
<path d="M164.401 41.6519L164.261 41.73L175.947 62.7256L176.087 62.6475L164.401 41.6519Z" fill="#8CD6F5"/>
<path d="M226.957 148.387L212.938 138.377L213.028 138.249L227.054 148.259L226.957 148.387Z" fill="#8CD6F5"/>
<path opacity="0.5" d="M240.406 51.9018C241.313 45.6156 236.953 39.7844 230.667 38.8775C224.38 37.9705 218.549 42.3312 217.642 48.6174C216.735 54.9036 221.096 60.7348 227.382 61.6417C233.668 62.5487 239.5 58.188 240.406 51.9018Z" fill="#8CD6F5"/>
<circle cx="229" cy="49.9995" r="9" fill="#EFF9FD"/>
<mask id="mask1_1884_17545" style="mask-type:alpha" maskUnits="userSpaceOnUse" x="223" y="44" width="12" height="12">
<rect x="223" y="44" width="12" height="11.2812" fill="#D9D9D9"/>
</mask>
<g mask="url(#mask1_1884_17545)">
<path d="M228 49.3513C227.588 49.3513 227.234 49.2132 226.941 48.9371C226.647 48.6609 226.5 48.3289 226.5 47.9412C226.5 47.5534 226.647 47.2214 226.941 46.9452C227.234 46.6691 227.588 46.531 228 46.531C228.412 46.531 228.766 46.6691 229.059 46.9452C229.353 47.2214 229.5 47.5534 229.5 47.9412C229.5 48.3289 229.353 48.6609 229.059 48.9371C228.766 49.2132 228.412 49.3513 228 49.3513ZM224.5 52.2621V51.9764C224.5 51.76 224.56 51.5729 224.679 51.415C224.798 51.2572 224.96 51.1285 225.165 51.029C225.585 50.826 226.02 50.6703 226.472 50.5621C226.923 50.454 227.385 50.4 227.859 50.4H228.003C228.074 50.4 228.133 50.4233 228.181 50.4699C228.229 50.5165 228.253 50.5728 228.253 50.6389C228.253 50.7049 228.229 50.7604 228.181 50.8054C228.133 50.8503 228.074 50.8727 228.003 50.8727H227.859C227.423 50.8727 227.001 50.92 226.593 51.0146C226.185 51.1092 225.788 51.2544 225.404 51.4503C225.295 51.5076 225.2 51.5805 225.12 51.6691C225.04 51.7576 225 51.8601 225 51.9764V52.2802H228.003C228.074 52.2802 228.133 52.3027 228.181 52.3477C228.229 52.3929 228.253 52.4488 228.253 52.5154C228.253 52.5821 228.229 52.6379 228.181 52.6828C228.133 52.7277 228.074 52.7502 228.003 52.7502H225.019C224.872 52.7502 224.749 52.7033 224.65 52.6096C224.55 52.5159 224.5 52.4 224.5 52.2621ZM231.079 52.808L231.033 52.4338C230.894 52.4066 230.764 52.361 230.641 52.2969C230.518 52.2327 230.408 52.1512 230.31 52.0523L229.928 52.2033C229.877 52.2226 229.83 52.2234 229.786 52.2058C229.742 52.1881 229.707 52.1598 229.683 52.1211L229.65 52.065C229.624 52.0252 229.614 51.9813 229.621 51.9332C229.629 51.8851 229.652 51.8455 229.692 51.8146L230.015 51.5913C229.96 51.4575 229.933 51.3195 229.933 51.1773C229.933 51.0351 229.96 50.8971 230.015 50.7633L229.702 50.522C229.662 50.4936 229.636 50.4567 229.626 50.4113C229.616 50.3657 229.624 50.3231 229.65 50.2833L229.686 50.2245C229.712 50.1857 229.748 50.1575 229.793 50.1398C229.839 50.1222 229.887 50.123 229.938 50.1423L230.31 50.2933C230.401 50.1944 230.51 50.1144 230.636 50.0533C230.762 49.9921 230.894 49.948 231.033 49.9209L231.079 49.5439C231.085 49.4945 231.107 49.4545 231.147 49.4242C231.186 49.3937 231.232 49.3784 231.285 49.3784H231.35C231.403 49.3784 231.449 49.3941 231.488 49.4254C231.527 49.4568 231.55 49.4972 231.556 49.5466L231.592 49.9209C231.731 49.948 231.863 49.9926 231.989 50.0546C232.115 50.1167 232.224 50.198 232.315 50.2987L232.682 50.1477C232.734 50.1266 232.783 50.1251 232.827 50.1432C232.871 50.1613 232.906 50.1888 232.932 50.2257L232.976 50.2903C233.002 50.3272 233.009 50.3689 232.999 50.4152C232.989 50.4617 232.963 50.4991 232.923 50.5274L232.61 50.7687C232.665 50.9008 232.692 51.0384 232.692 51.1814C232.692 51.3245 232.665 51.4611 232.61 51.5913L232.933 51.8146C232.973 51.8429 232.997 51.8814 233.004 51.9299C233.011 51.9784 233.001 52.0225 232.975 52.0623L232.939 52.1211C232.914 52.1598 232.88 52.1881 232.838 52.2058C232.795 52.2234 232.748 52.2226 232.697 52.2033L232.315 52.0523C232.217 52.1512 232.107 52.2327 231.984 52.2969C231.861 52.361 231.731 52.4066 231.592 52.4338L231.556 52.8107C231.55 52.8602 231.527 52.9001 231.488 52.9305C231.449 52.961 231.403 52.9762 231.35 52.9762H231.285C231.232 52.9762 231.186 52.9605 231.147 52.9292C231.107 52.8978 231.085 52.8575 231.079 52.808ZM231.308 52.027C231.557 52.027 231.77 51.9438 231.947 51.7772C232.123 51.6107 232.211 51.4104 232.211 51.1765C232.211 50.9426 232.123 50.7427 231.946 50.5766C231.769 50.4106 231.556 50.3276 231.307 50.3276C231.058 50.3276 230.845 50.4109 230.669 50.5774C230.492 50.744 230.404 50.9442 230.404 51.1781C230.404 51.412 230.492 51.6119 230.67 51.7779C230.847 51.944 231.06 52.027 231.308 52.027ZM228 48.8812C228.275 48.8812 228.51 48.7892 228.706 48.6051C228.902 48.421 229 48.1997 229 47.9412C229 47.6826 228.902 47.4613 228.706 47.2772C228.51 47.0931 228.275 47.0011 228 47.0011C227.725 47.0011 227.49 47.0931 227.294 47.2772C227.098 47.4613 227 47.6826 227 47.9412C227 48.1997 227.098 48.421 227.294 48.6051C227.49 48.7892 227.725 48.8812 228 48.8812Z" fill="#1D478E"/>
</g>
<mask id="mask2_1884_17545" style="mask-type:alpha" maskUnits="userSpaceOnUse" x="223" y="44" width="12" height="12">
<rect x="223" y="44.7188" width="12" height="11.2812" fill="#D9D9D9"/>
</mask>
<g mask="url(#mask2_1884_17545)">
</g>
<path opacity="0.5" d="M110.406 33.9018C111.313 27.6156 106.953 21.7844 100.667 20.8775C94.3804 19.9705 88.5492 24.3312 87.6422 30.6174C86.7352 36.9036 91.096 42.7348 97.3821 43.6417C103.668 44.5487 109.5 40.188 110.406 33.9018Z" fill="#8CD6F5"/>
<circle cx="99" cy="31.9995" r="9" fill="#EFF9FD"/>
<mask id="mask3_1884_17545" style="mask-type:alpha" maskUnits="userSpaceOnUse" x="93" y="26" width="12" height="12">
<rect x="93" y="26.2307" width="12" height="11.7692" fill="#D9D9D9"/>
</mask>
<g mask="url(#mask3_1884_17545)">
<path d="M96.5 32.7188C96.3308 32.7188 96.1859 32.6597 96.0654 32.5415C95.9449 32.4233 95.8846 32.2812 95.8846 32.1152C95.8846 31.9492 95.9449 31.8072 96.0654 31.689C96.1859 31.5708 96.3308 31.5117 96.5 31.5117C96.6693 31.5117 96.8141 31.5708 96.9346 31.689C97.0551 31.8072 97.1154 31.9492 97.1154 32.1152C97.1154 32.2812 97.0551 32.4233 96.9346 32.5415C96.8141 32.6597 96.6693 32.7188 96.5 32.7188ZM96.5 34.5672C95.8056 34.5672 95.2153 34.329 94.7291 33.8527C94.243 33.3763 94 32.7979 94 32.1174C94 31.437 94.243 30.8578 94.7291 30.38C95.2153 29.9022 95.8056 29.6633 96.5 29.6633C97.0135 29.6633 97.4765 29.7997 97.889 30.0726C98.3015 30.3455 98.6026 30.6994 98.7923 31.1345H103.23C103.281 31.1345 103.33 31.1436 103.378 31.1618C103.426 31.18 103.472 31.2105 103.515 31.2533L104.112 31.8379C104.155 31.8808 104.186 31.9249 104.203 31.9703C104.221 32.0158 104.23 32.0645 104.23 32.1165C104.23 32.1684 104.221 32.2168 104.203 32.2614C104.186 32.306 104.155 32.3497 104.112 32.3926L103.053 33.4214C103.02 33.4565 102.98 33.4846 102.933 33.5057C102.887 33.5268 102.841 33.5383 102.795 33.5402C102.75 33.542 102.704 33.5364 102.659 33.5233C102.613 33.51 102.569 33.4893 102.525 33.461L101.942 33.03L101.259 33.5195C101.223 33.5459 101.187 33.5641 101.15 33.5741C101.113 33.5842 101.072 33.5892 101.029 33.5892C100.985 33.5892 100.944 33.5826 100.906 33.5695C100.868 33.5562 100.831 33.5396 100.796 33.5195L100.149 33.096H98.7923C98.6026 33.5248 98.3015 33.8771 97.889 34.1531C97.4765 34.4292 97.0135 34.5672 96.5 34.5672ZM96.5 34.0768C96.9923 34.0768 97.4124 33.9315 97.7601 33.6411C98.1079 33.3506 98.3305 33.0054 98.4279 32.6056H100.308L101.023 33.0799C101.017 33.0799 101.015 33.0804 101.018 33.0814C101.022 33.0823 101.023 33.0818 101.023 33.0799L101.952 32.4264L102.763 33.0253L103.69 32.1152L103.19 31.6249H98.4279C98.3305 31.225 98.1079 30.8799 97.7601 30.5894C97.4124 30.2989 96.9923 30.1537 96.5 30.1537C95.95 30.1537 95.4792 30.3458 95.0875 30.7299C94.6958 31.114 94.5 31.5758 94.5 32.1152C94.5 32.6547 94.6958 33.1164 95.0875 33.5006C95.4792 33.8847 95.95 34.0768 96.5 34.0768Z" fill="#1D478E"/>
</g>
<mask id="mask4_1884_17545" style="mask-type:alpha" maskUnits="userSpaceOnUse" x="93" y="26" width="12" height="12">
<rect x="93" y="26" width="12" height="11.7692" fill="#D9D9D9"/>
</mask>
<g mask="url(#mask4_1884_17545)">
</g>
</g>
<defs>
<clipPath id="clip0_1884_17545">
<rect width="280" height="160" rx="8" fill="white"/>
</clipPath>
</defs>
</svg>
