<svg width="16" height="16" viewBox="0 0 16 16" fill="none" xmlns="http://www.w3.org/2000/svg">
<mask id="mask0_256_11878" style="mask-type:alpha" maskUnits="userSpaceOnUse" x="0" y="0" width="16" height="16">
<rect width="16" height="16" fill="#D9D9D9"/>
</mask>
<g mask="url(#mask0_256_11878)">
<path d="M8.00301 10.1027C8.68045 10.1027 9.25529 9.86555 9.72751 9.39133C10.1997 8.91711 10.4358 8.34127 10.4358 7.66383C10.4358 6.98639 10.1987 6.41155 9.72451 5.93933C9.25029 5.46711 8.67445 5.231 7.99701 5.231C7.31957 5.231 6.74473 5.46811 6.27251 5.94233C5.80029 6.41655 5.56418 6.99238 5.56418 7.66983C5.56418 8.34727 5.80129 8.92211 6.27551 9.39433C6.74973 9.86655 7.32557 10.1027 8.00301 10.1027ZM8.00001 9.46683C7.50001 9.46683 7.07501 9.29183 6.72501 8.94183C6.37501 8.59183 6.20001 8.16683 6.20001 7.66683C6.20001 7.16683 6.37501 6.74183 6.72501 6.39183C7.07501 6.04183 7.50001 5.86683 8.00001 5.86683C8.50001 5.86683 8.92501 6.04183 9.27501 6.39183C9.62501 6.74183 9.80001 7.16683 9.80001 7.66683C9.80001 8.16683 9.62501 8.59183 9.27501 8.94183C8.92501 9.29183 8.50001 9.46683 8.00001 9.46683ZM8.00001 12.0002C6.68201 12.0002 5.47323 11.6514 4.37368 10.954C3.27412 10.2566 2.3859 9.34205 1.70901 8.2105C1.65345 8.11894 1.6139 8.02872 1.59034 7.93983C1.5669 7.85094 1.55518 7.75972 1.55518 7.66616C1.55518 7.57261 1.5669 7.48161 1.59034 7.39316C1.6139 7.30472 1.65345 7.21472 1.70901 7.12316C2.3859 5.99161 3.27412 5.07711 4.37368 4.37966C5.47323 3.68222 6.68201 3.3335 8.00001 3.3335C9.31801 3.3335 10.5268 3.68222 11.6263 4.37966C12.7259 5.07711 13.6141 5.99161 14.291 7.12316C14.3466 7.21472 14.3861 7.30494 14.4097 7.39383C14.4331 7.48272 14.4448 7.57394 14.4448 7.6675C14.4448 7.76105 14.4331 7.85205 14.4097 7.9405C14.3861 8.02894 14.3466 8.11894 14.291 8.2105C13.6141 9.34205 12.7259 10.2566 11.6263 10.954C10.5268 11.6514 9.31801 12.0002 8.00001 12.0002ZM8.00001 11.3335C9.25557 11.3335 10.4083 11.0029 11.4583 10.3418C12.5083 9.68072 13.3111 8.78905 13.8667 7.66683C13.3111 6.54461 12.5083 5.65294 11.4583 4.99183C10.4083 4.33072 9.25557 4.00016 8.00001 4.00016C6.74445 4.00016 5.59168 4.33072 4.54168 4.99183C3.49168 5.65294 2.6889 6.54461 2.13334 7.66683C2.6889 8.78905 3.49168 9.68072 4.54168 10.3418C5.59168 11.0029 6.74445 11.3335 8.00001 11.3335Z" fill="white"/>
</g>
</svg>
