<svg width="16" height="16" viewBox="0 0 16 16" fill="none" xmlns="http://www.w3.org/2000/svg">
<path d="M12.3538 4.35354L5.20687 11.4998H10.5C10.6326 11.4998 10.7598 11.5525 10.8536 11.6462C10.9473 11.74 11 11.8672 11 11.9998C11 12.1324 10.9473 12.2596 10.8536 12.3533C10.7598 12.4471 10.6326 12.4998 10.5 12.4998H4C3.86739 12.4998 3.74021 12.4471 3.64645 12.3533C3.55268 12.2596 3.5 12.1324 3.5 11.9998V5.49979C3.5 5.36718 3.55268 5.24 3.64645 5.14624C3.74021 5.05247 3.86739 4.99979 4 4.99979C4.13261 4.99979 4.25979 5.05247 4.35355 5.14624C4.44732 5.24 4.5 5.36718 4.5 5.49979V10.7929L11.6462 3.64604C11.6927 3.59958 11.7479 3.56273 11.8086 3.53759C11.8692 3.51245 11.9343 3.49951 12 3.49951C12.0657 3.49951 12.1308 3.51245 12.1914 3.53759C12.2521 3.56273 12.3073 3.59958 12.3538 3.64604C12.4002 3.69249 12.4371 3.74764 12.4622 3.80834C12.4873 3.86904 12.5003 3.93409 12.5003 3.99979C12.5003 4.06549 12.4873 4.13054 12.4622 4.19124C12.4371 4.25193 12.4002 4.30708 12.3538 4.35354Z" fill="#32B353"/>
</svg>
