<svg width="16" height="16" viewBox="0 0 16 16" fill="none" xmlns="http://www.w3.org/2000/svg">
<path d="M13.5938 4.19434H3.59375C3.46114 4.19434 3.33396 4.14166 3.2402 4.04789C3.14643 3.95412 3.09375 3.82694 3.09375 3.69434C3.09375 3.56173 3.14643 3.43455 3.2402 3.34078C3.33396 3.24701 3.46114 3.19434 3.59375 3.19434H12.0938C12.2264 3.19434 12.3535 3.14166 12.4473 3.04789C12.5411 2.95412 12.5938 2.82694 12.5938 2.69434C12.5938 2.56173 12.5411 2.43455 12.4473 2.34078C12.3535 2.24701 12.2264 2.19434 12.0938 2.19434H3.59375C3.19593 2.19434 2.81439 2.35237 2.53309 2.63368C2.25179 2.91498 2.09375 3.29651 2.09375 3.69434V11.6943C2.09375 12.0922 2.25179 12.4737 2.53309 12.755C2.81439 13.0363 3.19593 13.1943 3.59375 13.1943H13.5938C13.859 13.1943 14.1133 13.089 14.3009 12.9014C14.4884 12.7139 14.5938 12.4596 14.5938 12.1943V5.19434C14.5938 4.92912 14.4884 4.67477 14.3009 4.48723C14.1133 4.29969 13.859 4.19434 13.5938 4.19434ZM13.5938 12.1943H3.59375C3.46114 12.1943 3.33396 12.1417 3.2402 12.0479C3.14643 11.9541 3.09375 11.8269 3.09375 11.6943V5.10871C3.2543 5.16562 3.42341 5.19458 3.59375 5.19434H13.5938V12.1943ZM10.5938 8.44434C10.5938 8.296 10.6377 8.151 10.7201 8.02766C10.8026 7.90432 10.9197 7.80819 11.0567 7.75143C11.1938 7.69466 11.3446 7.67981 11.4901 7.70875C11.6356 7.73769 11.7692 7.80912 11.8741 7.91401C11.979 8.0189 12.0504 8.15253 12.0793 8.29802C12.1083 8.4435 12.0934 8.5943 12.0367 8.73135C11.9799 8.86839 11.8838 8.98553 11.7604 9.06794C11.6371 9.15035 11.4921 9.19434 11.3438 9.19434C11.1448 9.19434 10.9541 9.11532 10.8134 8.97467C10.6728 8.83401 10.5938 8.64325 10.5938 8.44434Z" fill="#AF8E2F"/>
</svg>
