<svg width="162" height="118" viewBox="0 0 162 118" fill="none" xmlns="http://www.w3.org/2000/svg">
<g opacity="0.88">
<g opacity="0.54">
<path d="M51.3748 70.5066C51.6136 70.5066 51.8072 70.3125 51.8072 70.0731C51.8072 69.8336 51.6136 69.6395 51.3748 69.6395C51.136 69.6395 50.9424 69.8336 50.9424 70.0731C50.9424 70.3125 51.136 70.5066 51.3748 70.5066Z" fill="#161742"/>
<path d="M65.3759 71.1287C65.6562 71.1287 65.8834 70.9009 65.8834 70.6198C65.8834 70.3388 65.6562 70.111 65.3759 70.111C65.0956 70.111 64.8684 70.3388 64.8684 70.6198C64.8684 70.9009 65.0956 71.1287 65.3759 71.1287Z" fill="#161742"/>
<path d="M39.2237 89.9655C39.4352 89.9655 39.6067 89.7936 39.6067 89.5816C39.6067 89.3695 39.4352 89.1976 39.2237 89.1976C39.0123 89.1976 38.8408 89.3695 38.8408 89.5816C38.8408 89.7936 39.0123 89.9655 39.2237 89.9655Z" fill="#161742"/>
<path d="M59.7349 83.0364C59.9757 83.0364 60.1709 82.8407 60.1709 82.5992C60.1709 82.3577 59.9757 82.162 59.7349 82.162C59.494 82.162 59.2988 82.3577 59.2988 82.5992C59.2988 82.8407 59.494 83.0364 59.7349 83.0364Z" fill="#161742"/>
<path d="M50.2389 87.54C50.4645 87.54 50.6475 87.3566 50.6475 87.1304C50.6475 86.9041 50.4645 86.7207 50.2389 86.7207C50.0132 86.7207 49.8303 86.9041 49.8303 87.1304C49.8303 87.3566 50.0132 87.54 50.2389 87.54Z" fill="#161742"/>
<path d="M39.7476 71.671C40.037 71.671 40.2716 71.4358 40.2716 71.1456C40.2716 70.8555 40.037 70.6202 39.7476 70.6202C39.4582 70.6202 39.2236 70.8555 39.2236 71.1456C39.2236 71.4358 39.4582 71.671 39.7476 71.671Z" fill="#161742"/>
<path d="M45.5172 67.8043C45.8633 67.8043 46.1438 67.523 46.1438 67.176C46.1438 66.829 45.8633 66.5477 45.5172 66.5477C45.1712 66.5477 44.8906 66.829 44.8906 67.176C44.8906 67.523 45.1712 67.8043 45.5172 67.8043Z" fill="#161742"/>
<path d="M61.1731 74.7263C61.3592 74.7263 61.5102 74.575 61.5102 74.3883C61.5102 74.2016 61.3592 74.0503 61.1731 74.0503C60.9869 74.0503 60.8359 74.2016 60.8359 74.3883C60.8359 74.575 60.9869 74.7263 61.1731 74.7263Z" fill="#161742"/>
<path d="M43.4614 53.3336C43.7063 53.3336 43.9048 53.1346 43.9048 52.889C43.9048 52.6435 43.7063 52.4445 43.4614 52.4445C43.2166 52.4445 43.0181 52.6435 43.0181 52.889C43.0181 53.1346 43.2166 53.3336 43.4614 53.3336Z" fill="#161742"/>
<path d="M53.7952 55.1119C53.9845 55.1119 54.1379 54.9581 54.1379 54.7683C54.1379 54.5786 53.9845 54.4248 53.7952 54.4248C53.606 54.4248 53.4526 54.5786 53.4526 54.7683C53.4526 54.9581 53.606 55.1119 53.7952 55.1119Z" fill="#161742"/>
<path d="M37.7933 60.7068C37.9582 60.7068 38.0919 60.5727 38.0919 60.4074C38.0919 60.242 37.9582 60.1079 37.7933 60.1079C37.6283 60.1079 37.4946 60.242 37.4946 60.4074C37.4946 60.5727 37.6283 60.7068 37.7933 60.7068Z" fill="#161742"/>
<path d="M55.8856 85.248C56.175 85.248 56.4096 85.0127 56.4096 84.7226C56.4096 84.4324 56.175 84.1971 55.8856 84.1971C55.5962 84.1971 55.3616 84.4324 55.3616 84.7226C55.3616 85.0127 55.5962 85.248 55.8856 85.248Z" fill="#161742"/>
<path d="M43.9658 87.5387C44.244 87.5387 44.4696 87.3125 44.4696 87.0335C44.4696 86.7545 44.244 86.5283 43.9658 86.5283C43.6875 86.5283 43.4619 86.7545 43.4619 87.0335C43.4619 87.3125 43.6875 87.5387 43.9658 87.5387Z" fill="#161742"/>
<path d="M36.2081 82.6311C36.452 82.6311 36.6497 82.4329 36.6497 82.1883C36.6497 81.9438 36.452 81.7456 36.2081 81.7456C35.9643 81.7456 35.7666 81.9438 35.7666 82.1883C35.7666 82.4329 35.9643 82.6311 36.2081 82.6311Z" fill="#161742"/>
</g>
<g opacity="0.54">
<path d="M142.802 107.209C143.013 107.209 143.185 107.037 143.185 106.825C143.185 106.613 143.013 106.441 142.802 106.441C142.59 106.441 142.419 106.613 142.419 106.825C142.419 107.037 142.59 107.209 142.802 107.209Z" fill="#161742"/>
<path d="M153.819 104.781C154.045 104.781 154.228 104.598 154.228 104.371C154.228 104.145 154.045 103.962 153.819 103.962C153.593 103.962 153.41 104.145 153.41 104.371C153.41 104.598 153.593 104.781 153.819 104.781Z" fill="#161742"/>
<path d="M147.544 104.782C147.822 104.782 148.047 104.556 148.047 104.277C148.047 103.998 147.822 103.772 147.544 103.772C147.265 103.772 147.04 103.998 147.04 104.277C147.04 104.556 147.265 104.782 147.544 104.782Z" fill="#161742"/>
<path d="M139.786 99.8742C140.03 99.8742 140.228 99.676 140.228 99.4315C140.228 99.187 140.03 98.9888 139.786 98.9888C139.542 98.9888 139.344 99.187 139.344 99.4315C139.344 99.676 139.542 99.8742 139.786 99.8742Z" fill="#161742"/>
</g>
<g opacity="0.54">
<path d="M22.7915 107.22C23.2286 107.22 23.583 106.865 23.583 106.427C23.583 105.988 23.2286 105.633 22.7915 105.633C22.3544 105.633 22 105.988 22 106.427C22 106.865 22.3544 107.22 22.7915 107.22Z" fill="#161742"/>
<path d="M42.1496 44.3135C42.528 44.3135 42.8348 44.0059 42.8348 43.6264C42.8348 43.2469 42.528 42.9393 42.1496 42.9393C41.7711 42.9393 41.4644 43.2469 41.4644 43.6264C41.4644 44.0059 41.7711 44.3135 42.1496 44.3135Z" fill="#161742"/>
<path d="M23.944 42.7502C24.3366 42.7502 24.6549 42.431 24.6549 42.0374C24.6549 41.6437 24.3366 41.3246 23.944 41.3246C23.5514 41.3246 23.2332 41.6437 23.2332 42.0374C23.2332 42.431 23.5514 42.7502 23.944 42.7502Z" fill="#161742"/>
<path d="M23.2328 26.452C23.4767 26.452 23.6743 26.2538 23.6743 26.0093C23.6743 25.7647 23.4767 25.5665 23.2328 25.5665C22.9889 25.5665 22.7913 25.7647 22.7913 26.0093C22.7913 26.2538 22.9889 26.452 23.2328 26.452Z" fill="#161742"/>
</g>
<g opacity="0.54">
<path d="M133.319 45.7476C133.558 45.7476 133.752 45.5535 133.752 45.314C133.752 45.0746 133.558 44.8805 133.319 44.8805C133.081 44.8805 132.887 45.0746 132.887 45.314C132.887 45.5535 133.081 45.7476 133.319 45.7476Z" fill="#161742"/>
<path d="M149.499 38.9366C149.779 38.9366 150.006 38.7087 150.006 38.4277C150.006 38.1467 149.779 37.9188 149.499 37.9188C149.219 37.9188 148.991 38.1467 148.991 38.4277C148.991 38.7087 149.219 38.9366 149.499 38.9366Z" fill="#161742"/>
<path d="M121.168 65.2065C121.38 65.2065 121.551 65.0346 121.551 64.8225C121.551 64.6105 121.38 64.4386 121.168 64.4386C120.957 64.4386 120.785 64.6105 120.785 64.8225C120.785 65.0346 120.957 65.2065 121.168 65.2065Z" fill="#161742"/>
<path d="M133.319 54.9739C133.56 54.9739 133.755 54.7782 133.755 54.5367C133.755 54.2952 133.56 54.0995 133.319 54.0995C133.078 54.0995 132.883 54.2952 132.883 54.5367C132.883 54.7782 133.078 54.9739 133.319 54.9739Z" fill="#161742"/>
<path d="M132.185 62.7809C132.411 62.7809 132.594 62.5975 132.594 62.3712C132.594 62.145 132.411 61.9615 132.185 61.9615C131.96 61.9615 131.777 62.145 131.777 62.3712C131.777 62.5975 131.96 62.7809 132.185 62.7809Z" fill="#161742"/>
<path d="M121.692 46.912C121.982 46.912 122.216 46.6768 122.216 46.3866C122.216 46.0964 121.982 45.8612 121.692 45.8612C121.403 45.8612 121.168 46.0964 121.168 46.3866C121.168 46.6768 121.403 46.912 121.692 46.912Z" fill="#161742"/>
<path d="M140.337 78.6872C140.523 78.6872 140.674 78.5358 140.674 78.3491C140.674 78.1624 140.523 78.0111 140.337 78.0111C140.151 78.0111 140 78.1624 140 78.3491C140 78.5358 140.151 78.6872 140.337 78.6872Z" fill="#161742"/>
<path d="M131.266 19.9003C131.511 19.9003 131.709 19.7012 131.709 19.4557C131.709 19.2101 131.511 19.0111 131.266 19.0111C131.021 19.0111 130.822 19.2101 130.822 19.4557C130.822 19.7012 131.021 19.9003 131.266 19.9003Z" fill="#161742"/>
<path d="M131.165 36.087C131.354 36.087 131.507 35.9332 131.507 35.7434C131.507 35.5537 131.354 35.3999 131.165 35.3999C130.976 35.3999 130.822 35.5537 130.822 35.7434C130.822 35.9332 130.976 36.087 131.165 36.087Z" fill="#161742"/>
<path d="M148.462 17.583C148.791 17.583 149.058 17.3157 149.058 16.986C149.058 16.6562 148.791 16.3889 148.462 16.3889C148.133 16.3889 147.867 16.6562 147.867 16.986C147.867 17.3157 148.133 17.583 148.462 17.583Z" fill="#161742"/>
<path d="M112.765 39.2766C112.93 39.2766 113.064 39.1426 113.064 38.9772C113.064 38.8118 112.93 38.6777 112.765 38.6777C112.601 38.6777 112.467 38.8118 112.467 38.9772C112.467 39.1426 112.601 39.2766 112.765 39.2766Z" fill="#161742"/>
<path d="M143.802 51.5286C144.091 51.5286 144.326 51.2934 144.326 51.0032C144.326 50.713 144.091 50.4778 143.802 50.4778C143.512 50.4778 143.278 50.713 143.278 51.0032C143.278 51.2934 143.512 51.5286 143.802 51.5286Z" fill="#161742"/>
<path d="M125.91 62.7797C126.188 62.7797 126.414 62.5535 126.414 62.2745C126.414 61.9955 126.188 61.7693 125.91 61.7693C125.632 61.7693 125.406 61.9955 125.406 62.2745C125.406 62.5535 125.632 62.7797 125.91 62.7797Z" fill="#161742"/>
<path d="M118.153 57.872C118.397 57.872 118.594 57.6738 118.594 57.4293C118.594 57.1848 118.397 56.9866 118.153 56.9866C117.909 56.9866 117.711 57.1848 117.711 57.4293C117.711 57.6738 117.909 57.872 118.153 57.872Z" fill="#161742"/>
</g>
</g>
<path d="M105.911 36.7111C105.911 56.9861 89.0347 73.4222 68.2167 73.4222C47.3986 73.4222 30.5222 56.9861 30.5222 36.7111C30.5222 16.4361 47.3986 0 68.2167 0C89.0347 0 105.911 16.4361 105.911 36.7111Z" fill="#E8F6FD"/>
<path opacity="0.2" d="M83.2945 118C126.56 118 161.633 114.478 161.633 110.133C161.633 105.789 126.56 102.267 83.2945 102.267C40.0291 102.267 4.95557 105.789 4.95557 110.133C4.95557 114.478 40.0291 118 83.2945 118Z" fill="#5BC4F0"/>
<path d="M100.597 109.341C96.5133 109.341 93.7871 109.16 93.3912 109.134C90.6046 108.938 88.508 106.521 88.7041 103.738C88.9002 100.952 91.3286 98.8475 94.1001 99.0511C103.233 99.6808 129.104 99.2962 139.074 90.0201C141.676 87.5956 142.946 84.7373 142.958 81.2795C142.969 76.9055 139.986 75.137 133.184 72.143C128.059 69.8881 122.252 67.3315 121.008 61.2003C119.888 55.6799 122.92 49.609 131.136 40.8985C133.052 38.8699 136.253 38.7756 138.282 40.6911C140.311 42.6067 140.405 45.8081 138.489 47.8367C130.454 56.3549 130.895 59.0811 130.918 59.1942C131.118 60.1897 135.111 61.9469 137.256 62.8933C143.565 65.6686 153.097 69.8655 153.067 81.3097C153.052 87.637 150.658 93.0594 145.955 97.4334C134.696 107.901 112.185 109.349 100.601 109.349L100.597 109.341Z" fill="#FFD325"/>
<path d="M110.058 51.5625C110.058 51.5625 119.76 60.2013 121.747 69.5038C123.735 78.8062 125.556 91.442 127.373 94.7565C129.191 98.071 139.881 101.48 139.312 106.819C138.742 112.159 125.469 109.922 118.784 109.922C112.098 109.922 75.4916 109.527 63.1915 109.911C50.8649 110.3 43.0255 109.613 43.6703 107.192C44.3151 104.768 44.5489 103.452 48.4667 101.861C49.76 101.336 48.0104 98.5084 47.6107 95.6916C47.211 92.8711 49.0549 86.0197 55.1107 83.3764C61.1666 80.7331 60.8347 76.4344 61.8227 73.2066C62.8106 69.9789 65.7971 54.5904 68.1048 51.6342C70.4125 48.6817 82.3318 45.7744 82.3318 45.7744L110.054 51.555L110.058 51.5625Z" fill="#FFD325"/>
<path d="M66.5825 93.2027C68.2115 94.2849 71.8842 98.5911 72.8985 100.657C73.9129 102.724 77.529 102.999 78.4453 104.549C83.0758 112.373 90.8737 109.564 92.2085 108.836C93.5434 108.108 95.0555 106.004 91.7938 100.035C88.5321 94.0662 87.8081 85.8497 87.8081 85.8497L66.5825 93.2027Z" fill="#FFD325"/>
<path d="M97.1769 86.8075C97.1769 86.8075 98.0064 89.3905 99.0924 90.3784C99.0924 90.3784 98.4024 94.941 96.8149 98.6099C95.2274 102.279 93.1761 107.592 96.9695 109.066C100.763 110.544 107.094 107.139 110.069 102.335C113.044 97.5315 115.838 91.6114 116.332 91.257C116.826 90.9025 121.189 91.9998 119.541 89.1341L97.1769 86.8037V86.8075Z" fill="#FFD325"/>
<path d="M108.66 104.24C108.076 103.263 106.413 102.384 103.86 100.45C101.33 98.5307 98.3323 98.7193 96.6241 99.0549C95.0706 102.697 93.3285 107.648 96.971 109.07C100.24 110.345 105.395 107.988 108.66 104.24Z" fill="white"/>
<path d="M91.7954 100.035C91.4258 99.3567 91.0865 98.6515 90.781 97.9275C89.1332 97.2827 86.7954 96.7247 84.2577 97.2677C79.4386 98.2971 76.505 100.077 77.4477 102.833C77.5721 103.192 77.6928 103.542 77.8096 103.882C78.0774 104.078 78.2961 104.296 78.4469 104.545C83.0774 112.37 90.8753 109.56 92.2102 108.833C93.545 108.105 95.0571 106.001 91.7954 100.032V100.035Z" fill="white"/>
<path d="M98.9777 109.926C98.1933 109.926 97.4543 109.802 96.7868 109.541C95.765 109.142 95.0485 108.467 94.6601 107.532C93.6873 105.201 94.8977 101.77 96.3532 98.4139C97.688 95.3294 98.3856 91.5511 98.5553 90.5556C97.4882 89.3942 96.7341 87.0677 96.7001 86.9621C96.6134 86.6981 96.7605 86.4116 97.0282 86.3286C97.2921 86.2381 97.5787 86.3889 97.6617 86.6529C97.8804 87.3354 98.627 89.2698 99.4377 90.0051C99.5621 90.1182 99.6225 90.2879 99.5961 90.4538C99.5659 90.6424 98.8796 95.122 97.2846 98.8098C96.4324 100.782 94.6564 104.881 95.599 107.136C95.8819 107.818 96.3947 108.297 97.1601 108.595C100.656 109.964 106.723 106.785 109.645 102.068C111.24 99.4923 112.805 96.5511 113.951 94.4018C115.388 91.7057 115.754 91.0534 116.044 90.8422C116.312 90.6499 116.708 90.6574 117.364 90.6725C117.952 90.6838 119.174 90.7065 119.381 90.3596C119.415 90.303 119.498 90.0579 119.113 89.3829C118.974 89.1416 119.057 88.8324 119.298 88.6929C119.536 88.5533 119.849 88.6363 119.988 88.8776C120.467 89.711 120.55 90.3633 120.252 90.8724C119.747 91.7283 118.412 91.7019 117.345 91.6831C117.1 91.6755 116.768 91.6718 116.621 91.6906C116.361 92.03 115.588 93.478 114.845 94.8769C113.695 97.0375 112.119 99.9976 110.509 102.599C107.843 106.906 102.869 109.918 98.989 109.918L98.9777 109.926Z" fill="#161742"/>
<path d="M87.3563 110.45C84.2907 110.45 80.6293 109.229 78.0124 104.809C77.6731 104.236 76.7643 103.825 75.799 103.392C74.5245 102.818 73.0765 102.166 72.4468 100.88C71.4928 98.9383 67.8766 94.666 66.3042 93.6215C66.0704 93.4669 66.0063 93.1539 66.1609 92.9201C66.3155 92.6864 66.6323 92.626 66.8623 92.7769C68.6044 93.9345 72.3035 98.2972 73.3518 100.431C73.8231 101.389 75.0373 101.936 76.21 102.468C77.3261 102.969 78.3782 103.444 78.8797 104.293C83.6912 112.426 91.885 108.437 91.9642 108.395C92.7033 107.992 93.1218 107.306 93.2199 106.352C93.3707 104.866 92.741 102.826 91.3496 100.277C88.0766 94.2852 87.3337 86.2346 87.3035 85.8952C87.2772 85.6162 87.4846 85.3711 87.7636 85.3485C88.02 85.3334 88.2877 85.5295 88.3104 85.8085C88.3179 85.8877 89.0645 93.991 92.2357 99.7942C93.7251 102.524 94.3964 104.764 94.2267 106.453C94.0645 108.079 93.1708 108.889 92.4506 109.281C91.4816 109.813 89.5735 110.45 87.3563 110.45Z" fill="#161742"/>
<path d="M89.5613 110.209C89.2973 110.209 89.0749 110.005 89.056 109.738C88.9391 108.037 86.9972 105.967 86.9783 105.944C86.786 105.741 86.7936 105.42 86.9972 105.232C87.2008 105.039 87.5213 105.047 87.7099 105.251C87.8004 105.345 89.9233 107.604 90.0628 109.67C90.0817 109.949 89.8705 110.19 89.5915 110.209C89.5801 110.209 89.5688 110.209 89.5575 110.209H89.5613Z" fill="#161742"/>
<path d="M92.1832 109.315C91.9193 109.315 91.6968 109.112 91.6779 108.844C91.561 107.143 89.6191 105.073 89.6003 105.051C89.4079 104.847 89.4193 104.526 89.6191 104.338C89.8227 104.146 90.1432 104.153 90.3318 104.357C90.4223 104.451 92.5452 106.71 92.6847 108.776C92.7036 109.055 92.4924 109.296 92.2134 109.315C92.2021 109.315 92.1907 109.315 92.1794 109.315H92.1832Z" fill="#161742"/>
<path d="M95.6855 108.723C95.6591 108.723 95.6327 108.723 95.6063 108.716C95.331 108.674 95.1425 108.414 95.1839 108.139C95.463 106.321 97.0128 103.949 97.0769 103.851C97.2315 103.618 97.5444 103.553 97.7782 103.704C98.012 103.859 98.0761 104.172 97.9215 104.406C97.9064 104.428 96.4283 106.694 96.1832 108.293C96.1455 108.542 95.9306 108.723 95.6855 108.723Z" fill="#161742"/>
<path d="M97.9826 109.523C97.9562 109.523 97.9298 109.523 97.9034 109.515C97.6281 109.474 97.4396 109.214 97.4811 108.938C97.7676 107.083 99.6568 104.915 99.736 104.821C99.9208 104.609 100.241 104.591 100.449 104.775C100.66 104.96 100.679 105.281 100.498 105.488C100.479 105.507 98.7217 107.528 98.4841 109.093C98.4464 109.342 98.2315 109.523 97.9864 109.523H97.9826Z" fill="#161742"/>
<path d="M138.159 109.308C137.989 109.308 137.827 109.221 137.729 109.07C136.579 107.211 134.644 106.43 134.625 106.423C134.365 106.321 134.237 106.027 134.339 105.767C134.441 105.507 134.731 105.378 134.995 105.48C135.086 105.514 137.254 106.381 138.589 108.535C138.736 108.772 138.664 109.085 138.426 109.232C138.343 109.285 138.249 109.308 138.159 109.308Z" fill="#161742"/>
<path d="M139.163 107.607C138.993 107.607 138.831 107.52 138.733 107.369C137.575 105.499 135.652 104.73 135.63 104.722C135.369 104.62 135.241 104.326 135.343 104.066C135.445 103.806 135.735 103.678 135.999 103.779C136.09 103.813 138.258 104.681 139.593 106.834C139.74 107.071 139.668 107.384 139.431 107.531C139.348 107.584 139.253 107.607 139.163 107.607Z" fill="#161742"/>
<path d="M44.3042 109.202C44.3042 109.202 44.274 109.202 44.2589 109.202C43.9799 109.18 43.7725 108.934 43.7989 108.655C44.0817 105.303 46.9399 103.961 47.0606 103.904C47.317 103.791 47.6149 103.904 47.728 104.153C47.8449 104.406 47.7356 104.707 47.4829 104.824C47.3849 104.87 45.0357 105.99 44.8057 108.742C44.7831 109.006 44.5644 109.206 44.3042 109.206V109.202Z" fill="#161742"/>
<path d="M46.3723 109.998C46.3723 109.998 46.3421 109.998 46.3271 109.998C46.048 109.975 45.8406 109.73 45.867 109.451C46.1536 106.031 49.8942 105.088 50.0563 105.05C50.3316 104.99 50.5993 105.152 50.6672 105.424C50.7351 105.695 50.5691 105.967 50.2976 106.035C50.1657 106.069 47.1038 106.853 46.8776 109.538C46.855 109.802 46.6363 110.001 46.3761 110.001L46.3723 109.998Z" fill="#161742"/>
<path d="M72.9395 29.8804C72.9395 29.8804 101.069 13.7303 111.612 36.7884C118.517 51.8865 115.639 55.25 93.9124 56.5396C66.5631 58.1648 54.048 54.6807 72.9395 29.8842V29.8804Z" fill="#FFD325"/>
<path d="M85.6711 42.3324C85.6184 41.6784 87.0635 41.021 88.9046 40.865C90.7456 40.7091 92.2802 41.115 92.3367 41.7687C92.3894 42.4227 89.1067 44.2647 89.1067 44.2647C89.1067 44.2647 85.7276 42.9861 85.6749 42.3321L85.6711 42.3324Z" fill="#161742"/>
<path d="M84.7616 50.8527C84.4985 50.8739 84.2601 50.6851 84.2198 50.4197C84.1785 50.1431 84.3734 49.8853 84.6466 49.8481C89.011 49.224 88.5032 44.0029 88.4778 43.7817C88.4479 43.5042 88.6512 43.257 88.9287 43.2271C89.2115 43.2157 89.4571 43.4001 89.4833 43.678C89.7187 45.8947 89.0439 50.2428 84.7882 50.8543C84.7769 50.8553 84.7656 50.8562 84.7581 50.8568L84.7616 50.8527Z" fill="#161742"/>
<path d="M93.6397 50.8522C93.5795 50.857 93.5185 50.8506 93.4603 50.8326C91.152 50.1675 89.5926 49.0296 88.8265 47.4571C87.7842 45.3205 88.6224 43.1874 88.6608 43.1011C88.7649 42.8431 89.0574 42.7174 89.3192 42.8211C89.5773 42.9251 89.703 43.2176 89.5992 43.4795C89.5929 43.4951 88.8947 45.2991 89.7414 47.0278C90.3795 48.3269 91.7238 49.2816 93.7416 49.8642C94.0089 49.941 94.164 50.2236 94.0872 50.4908C94.0284 50.6998 93.8467 50.8393 93.6437 50.8557L93.6397 50.8522Z" fill="#161742"/>
<path d="M97.8872 26.5546C97.8872 26.5546 104.531 15.5704 106.398 16.4377C108.264 17.3087 114.433 24.0546 112.933 33.0894C111.432 42.1241 97.8872 26.5509 97.8872 26.5509V26.5546Z" fill="#FFD325"/>
<path d="M69.3483 35.6346C69.3483 35.6346 63.2774 24.3223 64.978 23.1572C66.6787 21.992 74.4728 22.2258 82.6365 26.0154C90.9434 29.8729 69.3483 35.6308 69.3483 35.6308V35.6346Z" fill="#FFD325"/>
<path d="M109.167 31.7999C109.167 31.7999 109.133 31.7999 109.114 31.7999C108.835 31.7698 108.635 31.5209 108.666 31.2457C109.133 26.7622 105.28 20.7366 105.238 20.6762C105.087 20.4424 105.155 20.1295 105.389 19.9786C105.623 19.8278 105.936 19.8957 106.086 20.1295C106.252 20.3897 110.17 26.5209 109.669 31.355C109.642 31.6152 109.424 31.8075 109.167 31.8075V31.7999Z" fill="#161742"/>
<path d="M103.4 26.6755C103.377 26.6755 103.351 26.6755 103.328 26.6717C103.053 26.634 102.86 26.3776 102.898 26.1023C103.309 23.1838 106.077 21.4191 106.197 21.3474C106.439 21.1966 106.748 21.272 106.895 21.5058C107.042 21.7434 106.97 22.0526 106.737 22.2034C106.71 22.2185 104.248 23.7984 103.905 26.2419C103.871 26.4945 103.652 26.6755 103.407 26.6755H103.4Z" fill="#161742"/>
<path d="M69.1241 35.4271C69.0148 35.4271 68.9054 35.3931 68.8111 35.3177C68.5924 35.1443 68.5547 34.8275 68.7244 34.6088C68.8187 34.4882 71.066 31.645 74.3014 29.6918C74.5389 29.5485 74.8481 29.6239 74.9952 29.8652C75.1385 30.1028 75.063 30.4158 74.8217 30.559C71.741 32.418 69.5389 35.2046 69.5163 35.2348C69.4182 35.363 69.2674 35.4271 69.1166 35.4271H69.1241Z" fill="#161742"/>
<path d="M76.515 28.3383C76.3981 28.3383 76.2812 28.2969 76.1832 28.2139C73.34 25.7554 66.9222 25.7365 66.8393 25.7629C66.5602 25.7629 66.334 25.5404 66.334 25.2614C66.334 24.9824 66.5565 24.7561 66.8355 24.7523C67.0806 24.741 73.7096 24.7373 76.8468 27.4484C77.058 27.6294 77.0806 27.95 76.8996 28.1611C76.8016 28.278 76.6583 28.3346 76.5188 28.3346L76.515 28.3383Z" fill="#161742"/>
<path d="M95.6445 37.3945C95.3562 38.9424 95.8529 40.3363 96.7537 40.5012C97.6545 40.6661 98.6173 39.5457 98.9056 37.9977C99.1939 36.4498 98.6972 35.0558 97.7964 34.891C96.8952 34.7223 95.9327 35.8465 95.6445 37.3945Z" fill="#161742"/>
<path d="M79.6539 37.3184C79.5947 38.8919 80.2895 40.1984 81.2048 40.23C82.1209 40.2653 82.909 39.0126 82.9682 37.4392C83.0274 35.8657 82.3325 34.5592 81.4173 34.5276C80.5021 34.496 79.7131 35.745 79.6539 37.3184Z" fill="#161742"/>
<path d="M137.495 103.158C137.344 103.158 137.193 103.09 137.092 102.958C136.089 101.642 129.528 96.8908 127.084 95.1675C126.858 95.0054 126.801 94.6924 126.963 94.4624C127.126 94.2361 127.439 94.1796 127.669 94.3417C128.031 94.5981 136.594 100.639 137.899 102.347C138.068 102.57 138.027 102.886 137.804 103.056C137.714 103.128 137.604 103.162 137.499 103.162L137.495 103.158Z" fill="#161742"/>
<path d="M88.1665 57.3465C76.2057 57.3465 66.7864 54.2243 66.6733 54.1866C66.4093 54.0961 66.266 53.8095 66.3565 53.5456C66.447 53.2816 66.7336 53.1383 66.9975 53.2288C67.1295 53.2741 80.3272 57.6406 95.2367 55.9438C95.5007 55.9136 95.7646 56.1134 95.7948 56.3887C95.8249 56.6677 95.6251 56.9166 95.3498 56.9468C92.8951 57.2258 90.4818 57.3427 88.1665 57.3427V57.3465Z" fill="#161742"/>
<path d="M0.735078 87.1886L24.9541 93.6516L0.735077 100.116L0.735078 87.1886Z" fill="#FFD325"/>
<path d="M29.8348 64.2444L35.4814 73.4124L18.853 64.2555L29.8348 64.2444Z" fill="#FFD325"/>
<path d="M16.0117 64.2455L24.0566 77.3064L0.367107 64.2621L16.0117 64.2455Z" fill="#FFD325"/>
<path d="M0.556394 67.4245L22.269 87.1886L0.556393 83.2753L0.556394 67.4245Z" fill="#FFD325"/>
<path d="M30.0805 89.8057C29.9886 89.1062 29.9978 88.4664 30.0346 87.8497C30.0713 87.233 30.1403 86.6347 30.2459 86.064C30.4573 84.918 30.7697 83.841 31.1787 82.8285C31.9873 80.7942 33.136 78.9809 34.5328 77.3332C35.9342 75.6856 37.5882 74.2082 39.5823 72.9563C40.5748 72.3258 41.6637 71.7597 42.8583 71.2626C43.4557 71.0141 44.0897 70.7886 44.7559 70.5861C45.4222 70.3836 46.1206 70.1995 46.9109 70.0798C47.0027 70.784 46.9982 71.4237 46.966 72.0405C46.9292 72.6572 46.8603 73.2555 46.7592 73.8308C46.5525 74.9768 46.2354 76.0537 45.8265 77.0709C45.0132 79.1051 43.8646 80.9185 42.4632 82.5569C41.0572 84.2 39.3985 85.6728 37.3999 86.9292C36.4074 87.5597 35.3185 88.1258 34.1239 88.6229C33.5265 88.8714 32.8971 89.097 32.2308 89.3041C31.5646 89.5066 30.8708 89.6907 30.0805 89.8149V89.8057Z" fill="#32B353"/>
<mask id="mask0_137_68166" style="mask-type:luminance" maskUnits="userSpaceOnUse" x="30" y="70" width="17" height="20">
<path d="M30.0805 89.8057C29.9886 89.1062 29.9978 88.4664 30.0346 87.8497C30.0713 87.233 30.1403 86.6347 30.2459 86.064C30.4573 84.918 30.7697 83.841 31.1787 82.8285C31.9873 80.7942 33.136 78.9809 34.5328 77.3332C35.9342 75.6856 37.5882 74.2082 39.5823 72.9563C40.5748 72.3258 41.6637 71.7597 42.8583 71.2626C43.4557 71.0141 44.0897 70.7886 44.7559 70.5861C45.4222 70.3836 46.1206 70.1995 46.9109 70.0798C47.0027 70.784 46.9982 71.4237 46.966 72.0405C46.9292 72.6572 46.8603 73.2555 46.7592 73.8308C46.5525 74.9768 46.2354 76.0537 45.8265 77.0709C45.0132 79.1051 43.8646 80.9185 42.4632 82.5569C41.0572 84.2 39.3985 85.6728 37.3999 86.9292C36.4074 87.5597 35.3185 88.1258 34.1239 88.6229C33.5265 88.8714 32.8971 89.097 32.2308 89.3041C31.5646 89.5066 30.8708 89.6907 30.0805 89.8149V89.8057Z" fill="white"/>
</mask>
<g mask="url(#mask0_137_68166)">
<path d="M48.1327 78.8382L48.096 78.6449L38.5252 80.0671L42.3802 75.5475L52.1852 74.0886L52.1439 73.8953L42.5777 75.3174L45.6608 71.6999L45.4816 71.5849L41.0615 76.7672L41.181 67.1573H40.9558L40.8318 77.0341L37.009 81.5168L37.1285 71.907H36.9033L36.7793 81.7838L32.9565 86.2665L33.0759 76.6613L32.8508 76.6567L32.7267 86.5334L31.0635 88.4849L31.2427 88.6045L34.2752 85.0469L44.0802 83.5879L44.0435 83.3946L34.4727 84.8168L38.3277 80.2972L48.1327 78.8382Z" fill="#32B353"/>
</g>
<path opacity="0.1" d="M32.2306 89.2949C32.8968 89.0924 33.5263 88.8623 34.1236 88.6138C35.3182 88.1167 36.4026 87.546 37.3996 86.9201C39.3937 85.6682 41.0524 84.1909 42.4629 82.5478C43.8689 80.9047 45.0176 79.0914 45.8263 77.0617C46.2352 76.0446 46.5476 74.9676 46.759 73.8216C46.8601 73.2463 46.9336 72.6526 46.9657 72.0313C47.0025 71.4146 47.0071 70.7748 46.9106 70.0707L30.0757 89.8012C30.866 89.6815 31.5598 89.4974 32.226 89.2903L32.2306 89.2949Z" fill="#1D478E"/>
<path d="M29.8828 89.9346C29.3636 89.1798 28.9638 88.425 28.6054 87.6748C28.2425 86.9246 27.9254 86.1745 27.6498 85.4243C27.0984 83.9285 26.6803 82.4373 26.377 80.9461C25.7613 77.9684 25.5684 75.009 25.6878 72.0543C25.8119 69.1041 26.253 66.1586 27.1168 63.2315C27.5441 61.7679 28.0908 60.309 28.7663 58.85C29.1063 58.1228 29.4876 57.3956 29.9149 56.6685C30.3422 55.9413 30.8063 55.2187 31.3898 54.5007C31.9136 55.2555 32.3134 56.0103 32.6763 56.7605C33.0393 57.5107 33.3609 58.2609 33.6366 59.0111C34.188 60.5069 34.6107 61.998 34.9139 63.4892C35.525 66.467 35.718 69.4263 35.5894 72.3811C35.4561 75.3312 35.015 78.2767 34.1466 81.2039C33.7193 82.6674 33.1726 84.1264 32.4971 85.5853C32.1571 86.3125 31.7758 87.0397 31.3531 87.7669C30.9304 88.4941 30.4663 89.2166 29.8874 89.9346H29.8828Z" fill="#32B353"/>
<mask id="mask1_137_68166" style="mask-type:luminance" maskUnits="userSpaceOnUse" x="25" y="54" width="11" height="36">
<path d="M29.8828 89.9346C29.3636 89.1798 28.9638 88.425 28.6054 87.6748C28.2425 86.9246 27.9254 86.1745 27.6498 85.4243C27.0984 83.9285 26.6803 82.4373 26.377 80.9461C25.7613 77.9684 25.5684 75.009 25.6878 72.0543C25.8119 69.1041 26.253 66.1586 27.1168 63.2315C27.5441 61.7679 28.0908 60.309 28.7663 58.85C29.1063 58.1228 29.4876 57.3956 29.9149 56.6685C30.3422 55.9413 30.8063 55.2187 31.3898 54.5007C31.9136 55.2555 32.3134 56.0103 32.6763 56.7605C33.0393 57.5107 33.3609 58.2609 33.6366 59.0111C34.188 60.5069 34.6107 61.998 34.9139 63.4892C35.525 66.467 35.718 69.4263 35.5894 72.3811C35.4561 75.3312 35.015 78.2767 34.1466 81.2039C33.7193 82.6674 33.1726 84.1264 32.4971 85.5853C32.1571 86.3125 31.7758 87.0397 31.3531 87.7669C30.9304 88.4941 30.4663 89.2166 29.8874 89.9346H29.8828Z" fill="white"/>
</mask>
<g mask="url(#mask1_137_68166)">
<path d="M37.951 63.8897L37.7948 63.6872L30.7374 72.3489L31.082 64.2349L38.314 55.3614L38.1578 55.1589L31.1003 63.8206L31.376 57.3313L31.1509 57.3221L30.7557 66.6281L24.7735 55.2832L24.5851 55.4443L30.7374 67.1114L30.3928 75.161L24.4105 63.8114L24.2221 63.9725L30.3744 75.6396L30.0344 83.6892L24.0475 72.3397L23.8591 72.5008L30.0114 84.1679L29.8644 87.6703L30.0895 87.6795L30.3606 81.2914L37.588 72.4179L37.4364 72.2154L30.379 80.8771L30.7236 72.7631L37.951 63.8897Z" fill="#32B353"/>
</g>
<path opacity="0.1" d="M31.3485 87.7624C31.7712 87.0352 32.1526 86.3126 32.4926 85.5808C33.168 84.1265 33.7148 82.6629 34.1421 81.1993C35.0059 78.2722 35.4516 75.3313 35.5848 72.3765C35.7135 69.4264 35.5205 66.4625 34.9094 63.4847C34.6061 61.9981 34.188 60.507 33.6321 59.0066C33.3564 58.2564 33.0348 57.5108 32.6718 56.756C32.3088 56.0058 31.9091 55.251 31.3853 54.4962L29.8828 89.9209C30.4663 89.2029 30.9258 88.4757 31.3485 87.7532V87.7624Z" fill="#1D478E"/>
<path d="M29.6713 89.4791C28.8305 89.364 28.0769 89.1753 27.3556 88.9682C26.6342 88.7611 25.945 88.5264 25.2834 88.2732C23.9693 87.7577 22.7517 87.1687 21.626 86.5151C19.3654 85.208 17.4219 83.6616 15.7172 81.9311C14.0126 80.2006 12.5561 78.286 11.412 76.1321C10.8377 75.0551 10.3553 73.9137 9.9693 72.6941C9.77632 72.082 9.6201 71.4468 9.49145 70.7887C9.3628 70.1306 9.26631 69.4494 9.26172 68.6992C10.1071 68.8143 10.8607 68.9984 11.582 69.2055C12.308 69.4126 12.9972 69.6427 13.6542 69.9004C14.9683 70.4113 16.1859 71.0004 17.3116 71.6586C19.5722 72.9656 21.5111 74.5166 23.2112 76.2518C24.9066 77.9869 26.3631 79.9015 27.5026 82.06C28.0769 83.1369 28.5594 84.2783 28.9453 85.498C29.1383 86.1101 29.2991 86.7406 29.4232 87.3988C29.5518 88.0569 29.6483 88.7381 29.6575 89.4883L29.6713 89.4791Z" fill="#32B353"/>
<mask id="mask2_137_68166" style="mask-type:luminance" maskUnits="userSpaceOnUse" x="9" y="68" width="21" height="22">
<path d="M29.6713 89.4791C28.8305 89.364 28.0769 89.1753 27.3556 88.9682C26.6342 88.7611 25.945 88.5264 25.2834 88.2732C23.9693 87.7577 22.7517 87.1687 21.626 86.5151C19.3654 85.208 17.4219 83.6616 15.7172 81.9311C14.0126 80.2006 12.5561 78.286 11.412 76.1321C10.8377 75.0551 10.3553 73.9137 9.9693 72.6941C9.77632 72.082 9.6201 71.4468 9.49145 70.7887C9.3628 70.1306 9.26631 69.4494 9.26172 68.6992C10.1071 68.8143 10.8607 68.9984 11.582 69.2055C12.308 69.4126 12.9972 69.6427 13.6542 69.9004C14.9683 70.4113 16.1859 71.0004 17.3116 71.6586C19.5722 72.9656 21.5111 74.5166 23.2112 76.2518C24.9066 77.9869 26.3631 79.9015 27.5026 82.06C28.0769 83.1369 28.5594 84.2783 28.9453 85.498C29.1383 86.1101 29.2991 86.7406 29.4232 87.3988C29.5518 88.0569 29.6483 88.7381 29.6575 89.4883L29.6713 89.4791Z" fill="white"/>
</mask>
<g mask="url(#mask2_137_68166)">
<path d="M19.8113 70.0754L19.5724 70.0524L19.6275 79.1007L14.9547 74.3372L14.8996 65.0726L14.6607 65.0496L14.7158 74.0979L10.9757 70.2871L10.8057 70.416L16.1677 75.879L4.8602 73.0531L4.81885 73.2556L16.4434 76.1598L21.0794 80.8818L9.77192 78.0559L9.73056 78.2585L21.3551 81.1626L25.9911 85.8846L14.6836 83.0588L14.6423 83.2613L26.2668 86.1654L28.2839 88.2226L28.4539 88.0938L24.7781 84.3428L24.723 75.0782L24.4841 75.0552L24.5392 84.1035L19.8664 79.34L19.8113 70.0754Z" fill="#32B353"/>
</g>
<path opacity="0.1" d="M29.4325 87.3941C29.3038 86.736 29.143 86.1009 28.9546 85.4933C28.5687 84.2737 28.0862 83.1323 27.5119 82.0554C26.3724 79.8968 24.9159 77.9822 23.2205 76.2471C21.5204 74.512 19.5815 72.9656 17.3209 71.6539C16.1952 70.9958 14.9776 70.4113 13.6635 69.8958C13.0065 69.6427 12.3127 69.408 11.5913 69.2008C10.8699 68.9937 10.1164 68.8096 9.271 68.6946L29.676 89.479C29.6668 88.7288 29.5703 88.0523 29.4416 87.3895L29.4325 87.3941Z" fill="#1D478E"/>
<path d="M40.8458 109.96H19.0762L16.8616 87.0444H42.6929L40.8458 109.96Z" fill="#161742"/>
<path d="M43.8736 87.0444H15.676V90.9012H43.8736V87.0444Z" fill="#161742"/>
<path opacity="0.1" d="M17.2336 90.9012H42.3849L41.8519 97.4735L17.445 93.0782L17.2336 90.9012Z" fill="#1D478E"/>
</svg>
