<svg width="280" height="160" viewBox="0 0 280 160" fill="none" xmlns="http://www.w3.org/2000/svg">
<g clip-path="url(#clip0_1884_17682)">
<rect width="280" height="160" rx="8" fill="#1D478E"/>
<path d="M106.9 16.687C80.1542 18.6273 50.963 22.1689 29.5547 30.3918L36.3133 76.1441C36.3133 76.1441 77.8099 61.2924 111.567 62.3239L106.9 16.6942V16.687Z" fill="#CEEDFB"/>
<path d="M47.7285 61.7128L47.533 61.4507L55.8747 55.2291L63.0954 40.7689L73.2783 48.3191L80.6259 37.9218L89.4103 37.4886L96.3423 26.0888L96.6213 26.2583L89.5994 37.8061L80.8013 38.2403L73.3523 48.7803L63.2135 41.263L56.1325 55.4446L47.7285 61.7128Z" fill="#161742"/>
<path d="M41.4443 63.1305L41.2488 62.8685L49.5905 56.6468L56.8113 42.1866L66.9942 49.7368L74.3418 39.3395L83.1261 38.9063L90.0581 27.5065L90.3372 27.676L83.3152 39.2238L74.5172 39.658L67.0681 50.1981L56.9293 42.6807L49.8483 56.8624L41.4443 63.1305Z" fill="#1058AD"/>
<path d="M234.989 29.1006C209.397 21.1013 180.935 13.6863 158.004 13.4844L147.517 58.5226C147.517 58.5226 191.567 59.9219 222.597 73.266L234.989 29.1006Z" fill="#CEEDFB"/>
<g clip-path="url(#clip1_1884_17682)">
<path d="M190.731 38.1476L191.885 28.2585C189.137 27.9411 186.202 28.7418 183.814 30.4945C180.994 32.5502 178.938 35.9115 178.844 40.2682C178.837 40.7443 178.844 41.2347 178.888 41.7324C178.888 41.7469 178.888 41.7541 178.888 41.7685L190.443 40.4702L190.731 38.1476Z" fill="#1058AD"/>
<path d="M190.891 41.7756L179.343 43.074C179.826 48.6713 183.909 53.3093 189.391 53.9801C194.901 54.6581 200.015 51.1093 201.811 45.7572L190.905 41.7756" fill="#5BC4F0"/>
</g>
<path d="M68.726 71.3041L64.8263 60.1141C64.8263 60.1141 63.781 52.3511 64.0446 49.8694C64.3082 47.3878 67.2443 43.0154 68.3897 41.8155C69.1078 41.0611 70.2168 42.3519 73.053 44.3972C74.7528 45.6243 79.0161 45.7698 79.0343 48.1605C79.107 54.5236 77.3344 59.5596 74.1438 60.0777C73.462 60.1868 77.8162 70.4133 77.8162 70.4133L68.726 71.3132V71.3041Z" fill="#E58F6C"/>
<path d="M68.7909 40.3619C66.2547 42.5526 68.4182 49.1703 67.8364 46.0978V42.7526C67.8364 42.7526 73.2269 43.1162 74.2632 43.3162C75.9357 43.6253 78.3901 44.1161 79.9082 44.5616C80.6626 44.7797 81.4808 44.3525 81.7716 43.5707C82.0716 42.7617 81.7262 41.8709 80.9717 41.5345C80.9717 41.5345 76.4084 40.3983 74.8722 40.071C73.3996 39.7529 69.9362 39.3802 68.8 40.3619H68.7909Z" fill="#E58F6C"/>
<path d="M62.9607 35.952L64.2752 34.1768C64.4808 33.8992 64.875 33.8404 65.1526 34.046L82.1082 46.6017L80.0417 49.3923L63.0861 36.8366C62.8085 36.6311 62.7497 36.2369 62.9553 35.9593L62.9607 35.952Z" fill="#FFD325"/>
<path d="M80.0508 49.3964L84.8595 51.1144C85.1049 51.2053 85.3231 50.9145 85.1686 50.7054L82.1233 46.6057L80.0599 49.3964H80.0508Z" fill="#32B353"/>
<path d="M83.6964 48.7242L82.542 50.2877L84.9145 51.1331C85.1509 51.2149 85.3509 50.9422 85.2054 50.7422L83.6964 48.7151V48.7242Z" fill="#FFD325"/>
<path d="M71.2711 46.6238C73.3163 46.5057 74.0526 48.4055 74.3163 49.7963C74.4617 50.5781 75.2071 51.1053 76.0161 51.0053C76.8797 50.9053 77.4978 50.1236 77.3706 49.2873C77.1342 47.6601 76.3888 45.2149 74.0617 43.2423C72.3437 41.7879 70.6893 41.6606 69.4985 41.8788C68.4895 42.0606 67.6168 42.6605 67.0805 43.5059L65.6533 45.7785L71.2711 46.6238Z" fill="#E58F6C"/>
<path d="M73.5424 54.761C72.6152 54.761 71.8244 54.0702 71.7153 53.143C71.5426 51.7067 70.9608 49.9978 69.1882 49.9978C69.0155 49.9978 68.8792 49.8614 68.8792 49.6887C68.8792 49.516 69.0155 49.3797 69.1882 49.3797C70.9245 49.3797 72.0425 50.6977 72.3243 53.0703C72.4062 53.7066 72.9697 54.1884 73.6151 54.1429C73.9606 54.1247 74.2696 53.9702 74.4878 53.7157C74.706 53.4612 74.815 53.143 74.7878 52.8158C74.6605 51.1341 74.0606 48.6979 71.9607 46.6435C69.0337 43.771 66.1157 45.5345 65.9885 45.6163C65.843 45.7072 65.6521 45.6618 65.5703 45.5163C65.4794 45.3709 65.5249 45.18 65.6703 45.0982C65.7067 45.08 69.1155 42.9893 72.3971 46.2072C74.6242 48.3979 75.2605 50.9795 75.4059 52.7703C75.4423 53.2703 75.2877 53.7429 74.9605 54.1247C74.6242 54.5065 74.1696 54.7338 73.6606 54.761C73.6242 54.761 73.5879 54.761 73.5515 54.761H73.5424Z" fill="#161742"/>
<path d="M75.8274 51.3239C74.9548 51.3239 74.1821 50.7149 74.0185 49.8513C73.9821 49.6877 74.1003 49.5241 74.2639 49.4968C74.4366 49.4604 74.5912 49.5786 74.6184 49.7422C74.7366 50.3604 75.3456 50.7876 75.982 50.7058C76.3274 50.6603 76.6274 50.4967 76.8364 50.224C77.0364 49.9695 77.1182 49.6513 77.0728 49.3423C76.8364 47.706 76.091 45.3608 73.864 43.4882C72.5186 42.3519 71.0733 41.9156 69.5552 42.1883C68.6371 42.3519 67.8372 42.8973 67.3463 43.6791C67.2554 43.8245 67.0645 43.8609 66.9281 43.7791C66.7827 43.6882 66.7372 43.4973 66.8281 43.3518C67.4099 42.4246 68.3644 41.7883 69.4461 41.5883C70.6188 41.3702 72.4095 41.452 74.2639 43.0246C76.6274 45.0244 77.4273 47.5242 77.6818 49.2604C77.7545 49.7422 77.6273 50.2149 77.3273 50.6058C77.0182 51.0058 76.5637 51.2603 76.0547 51.3239C75.982 51.3239 75.9002 51.333 75.8274 51.333V51.3239Z" fill="#161742"/>
<path d="M72.0166 46.4788C74.2164 48.6331 74.7164 51.0784 74.8436 52.751L72.0166 46.4788Z" fill="#E58F6C"/>
<path d="M73.5424 54.761C72.6152 54.761 71.8244 54.0702 71.7153 53.143C71.5426 51.7067 70.9608 49.9978 69.1882 49.9978C69.0155 49.9978 68.8792 49.8614 68.8792 49.6887C68.8792 49.516 69.0155 49.3797 69.1882 49.3797C70.9245 49.3797 72.0425 50.6977 72.3243 53.0703C72.4062 53.7066 72.9697 54.1884 73.6151 54.1429C73.9606 54.1247 74.2696 53.9702 74.4878 53.7157C74.706 53.4612 74.815 53.143 74.7878 52.8158C74.6605 51.1341 74.0606 48.6979 71.9607 46.6435C69.0337 43.771 66.1157 45.5345 65.9885 45.6163C65.843 45.7072 65.6521 45.6618 65.5703 45.5163C65.4794 45.3709 65.5249 45.18 65.6703 45.0982C65.7067 45.08 69.1155 42.9893 72.3971 46.2072C74.6242 48.3979 75.2605 50.9795 75.4059 52.7703C75.4423 53.2703 75.2877 53.7429 74.9605 54.1247C74.6242 54.5065 74.1696 54.7338 73.6606 54.761C73.6242 54.761 73.5879 54.761 73.5515 54.761H73.5424Z" fill="#161742"/>
<path d="M64.4551 49.0431C64.4551 49.0431 67.3912 46.7342 70.3728 49.5521C72.4544 51.5247 73.0089 53.8609 73.1271 55.388C73.1907 56.1789 72.5544 56.8697 71.7272 56.9243C70.9546 56.9697 70.2819 56.4334 70.191 55.6971C70.0274 54.3881 68.7093 51.6974 66.7549 51.6974L64.4551 49.0431Z" fill="#E58F6C"/>
<path d="M71.6321 57.2326C70.7503 57.2326 69.9959 56.5963 69.8868 55.7327C69.7322 54.4237 69.1868 52.8693 67.5051 52.8693C67.3324 52.8693 67.1961 52.733 67.1961 52.5603C67.1961 52.3875 67.3324 52.2512 67.5051 52.2512C69.1686 52.2512 70.2231 53.4602 70.4958 55.6509C70.5685 56.2236 71.0867 56.6508 71.7048 56.6054C72.0321 56.5872 72.332 56.4418 72.5502 56.1963C72.7502 55.9691 72.8411 55.6873 72.8229 55.4055C72.7047 53.8692 72.1502 51.6421 70.1686 49.7696C67.3961 47.1516 64.6145 48.7787 64.4963 48.8515C64.3509 48.9424 64.16 48.8969 64.0781 48.7515C63.9872 48.606 64.0327 48.4151 64.1781 48.3333C64.2145 48.3151 67.4688 46.3789 70.5867 49.3332C72.7138 51.3422 73.3047 53.7238 73.4319 55.3691C73.4683 55.8236 73.3138 56.26 73.0138 56.6145C72.6956 56.9781 72.232 57.2053 71.7503 57.2326C71.7139 57.2326 71.6775 57.2326 71.6412 57.2326H71.6321Z" fill="#161742"/>
<path d="M148.047 40.0559L134.149 39.1621L132.786 60.3621L146.683 61.2559L148.047 40.0559Z" fill="#E58F6C"/>
<path d="M147.939 41.7495L148.048 40.0678L134.149 39.177L133.74 45.5765C138.822 47.1218 145.239 43.513 147.948 41.7495H147.939Z" fill="#161742"/>
<path d="M140.769 42.8514C149.512 42.0912 155.967 34.2051 155.187 25.2374C154.407 16.2697 146.688 9.61632 137.945 10.3766C129.203 11.1369 122.747 19.0229 123.527 27.9906C124.307 36.9583 132.027 43.6117 140.769 42.8514Z" fill="#E58F6C"/>
<path d="M108.114 126.49L102.351 283.722L128.721 284.231L133.239 151.751L141.048 149.769L139.929 286.15L165.546 286.859L167.073 128.835L108.114 126.49Z" fill="#161742"/>
<path d="M104.969 94.6003L106.514 129.252L170.864 129.752L179.645 136.879C184.854 141.106 192.335 140.997 197.416 136.615C201.707 132.925 203.325 126.989 201.489 121.625L180.663 60.7485C179 55.8943 174.663 52.4673 169.555 51.9765L147.229 49.8403L140.039 56.4852L132.958 49.2676L109.132 50.6947C105.06 50.9402 101.424 53.3127 99.5604 56.9397L86.816 81.7559L81.7346 64.8482L65.3086 69.2024L73.617 121.398C74.3897 126.225 78.2894 129.943 83.1526 130.461C88.1068 130.997 92.7791 128.079 94.4881 123.398L104.987 94.6003H104.969Z" fill="#32B353"/>
<path d="M171.337 130.243C171.255 130.243 171.164 130.207 171.1 130.143L152.929 112.29C152.802 112.172 152.793 111.972 152.902 111.836L164.074 97.5277C164.128 97.4549 164.219 97.4095 164.31 97.4004C164.401 97.4004 164.501 97.4186 164.564 97.4822L192.735 122.117C192.88 122.244 192.889 122.453 192.771 122.598C192.644 122.744 192.435 122.753 192.289 122.635L164.392 98.2367L153.629 112.027L171.591 129.671C171.727 129.798 171.727 130.016 171.591 130.152C171.527 130.216 171.437 130.252 171.346 130.252L171.337 130.243Z" fill="#161742"/>
<path d="M186.089 115.554C185.907 115.554 185.753 115.409 185.753 115.218C185.753 115.027 185.898 114.873 186.089 114.873L193.525 114.736C193.725 114.764 193.87 114.882 193.87 115.073C193.87 115.264 193.725 115.418 193.534 115.418L186.098 115.554H186.089Z" fill="#161742"/>
<path d="M105.386 96.892C105.205 96.892 105.05 96.7466 105.05 96.5557L104.659 76.1027C104.659 75.9119 104.805 75.7573 104.996 75.7573C105.177 75.7573 105.332 75.9028 105.332 76.0937L105.723 96.5466C105.723 96.7375 105.577 96.892 105.386 96.892Z" fill="#161742"/>
<path d="M92.7966 111.917C92.6421 111.917 92.4967 111.808 92.4603 111.644L86.1335 81.7649C86.0972 81.5831 86.2153 81.4013 86.3971 81.365C86.588 81.3195 86.7607 81.4468 86.8062 81.6286L93.133 111.508C93.1693 111.69 93.0512 111.872 92.8693 111.908C92.8421 111.908 92.8239 111.908 92.7966 111.908V111.917Z" fill="#161742"/>
<path d="M95.0432 104.608C94.9523 104.608 94.8614 104.572 94.7977 104.499L90.5617 99.9451C90.4344 99.8087 90.4435 99.5906 90.5799 99.4633C90.7162 99.3361 90.9344 99.3451 91.0617 99.4815L95.2977 104.036C95.425 104.172 95.4159 104.39 95.2795 104.517C95.2159 104.581 95.1341 104.608 95.0523 104.608H95.0432Z" fill="#161742"/>
<path d="M140.238 129.779C140.047 129.779 139.901 129.624 139.901 129.443L139.547 56.6574C139.547 56.4665 139.701 56.312 139.883 56.312C140.11 56.312 140.229 56.4665 140.229 56.6483L140.583 129.433C140.583 129.624 140.429 129.779 140.247 129.779H140.238Z" fill="#161742"/>
<path d="M172.619 105.318C172.446 105.318 172.291 105.182 172.282 105.009L169.628 74.7935C169.628 74.7935 169.628 74.7753 169.628 74.7662C169.628 74.5935 169.764 74.439 169.937 74.4299C170.146 74.4208 170.292 74.5481 170.31 74.739L172.964 104.955C172.964 104.955 172.964 104.973 172.964 104.982C172.964 105.155 172.828 105.309 172.655 105.318C172.646 105.318 172.637 105.318 172.628 105.318H172.619Z" fill="#161742"/>
<path d="M167.064 130.062L108.023 129.598C107.832 129.598 107.687 129.444 107.687 129.253C107.687 129.062 107.841 128.917 108.023 128.917L167.064 129.38C167.254 129.38 167.4 129.535 167.4 129.726C167.4 129.916 167.245 130.062 167.055 130.062H167.064Z" fill="#161742"/>
<path d="M152.675 24.3164C152.465 21.4802 154.411 19.035 157.011 18.8441C159.61 18.6532 161.892 20.7985 162.101 23.6255C162.31 26.4617 160.365 28.9069 157.765 29.0978C155.165 29.2887 152.884 27.1434 152.675 24.3164Z" fill="#E58F6C"/>
<path d="M155.41 26.6255C155.328 26.6255 155.237 26.6073 155.155 26.5618C154.901 26.4255 154.801 26.0982 154.946 25.8437L157.81 20.5805C157.946 20.326 158.273 20.226 158.528 20.3714C158.782 20.5078 158.882 20.835 158.737 21.0895L155.873 26.3528C155.773 26.5255 155.592 26.6255 155.41 26.6255Z" fill="#161742"/>
<path d="M159.203 26.7054C159.103 26.7054 159.003 26.6782 158.912 26.6145L156.058 24.742C155.812 24.5783 155.749 24.2511 155.903 24.0057C156.067 23.7602 156.394 23.6966 156.639 23.8511L159.494 25.7237C159.739 25.8873 159.803 26.2146 159.648 26.46C159.548 26.6145 159.376 26.6963 159.203 26.6963V26.7054Z" fill="#161742"/>
<path d="M126.267 27.1426C125.449 24.4246 122.767 22.8248 120.267 23.5701C117.768 24.3155 116.395 27.1335 117.213 29.8515C118.031 32.5694 120.713 34.1693 123.213 33.4239C125.712 32.6785 127.085 29.8606 126.267 27.1426Z" fill="#E58F6C"/>
<path d="M124.341 30.3059C124.223 30.3059 124.096 30.2604 123.996 30.1786L119.451 26.2789C119.233 26.088 119.205 25.7517 119.396 25.5335C119.587 25.3154 119.923 25.2881 120.142 25.479L124.687 29.3787C124.905 29.5696 124.932 29.9059 124.741 30.1241C124.632 30.2422 124.487 30.3059 124.341 30.3059Z" fill="#161742"/>
<path d="M120.823 31.734C120.714 31.734 120.605 31.6977 120.514 31.634C120.278 31.4613 120.223 31.1341 120.396 30.8977L122.396 28.1343C122.569 27.898 122.896 27.8434 123.132 28.0161C123.369 28.1888 123.423 28.5161 123.25 28.7524L121.25 31.5159C121.151 31.6613 120.987 31.734 120.823 31.734Z" fill="#161742"/>
<path d="M129.478 153.06C129.324 153.06 129.187 152.96 129.151 152.806C129.105 152.624 129.215 152.442 129.396 152.387L145.213 148.388C145.395 148.342 145.577 148.451 145.631 148.633C145.677 148.815 145.568 148.997 145.386 149.051L129.569 153.051C129.569 153.051 129.515 153.06 129.487 153.06H129.478Z" fill="#161742"/>
<path d="M162.054 102.072C162.054 102.072 159.208 99.9724 158.454 98.0998C157.581 95.9273 156.836 90.4823 152.373 86.7007C147.909 82.9101 148.009 91.4913 148.009 91.4913L144.046 99.5634L156.945 108.617L162.044 102.072H162.054Z" fill="#E58F6C"/>
<path d="M148.862 109.872L123.837 107.354C123.383 107.309 123.055 106.909 123.101 106.454L126.701 70.5753C126.746 70.1208 127.146 69.7935 126.937 70.2208L151.962 72.7387C153.08 72.4024 153.408 72.8024 153.362 73.2569L149.762 109.136C149.717 109.59 149.317 109.918 148.862 109.872Z" fill="white"/>
<path d="M149.707 103.846C149.707 103.846 145.344 103.564 141.099 100.855C138.853 99.419 137.563 98.4918 136.854 97.9373C136.381 97.5737 136.235 96.8828 136.517 96.3283C136.79 95.8011 137.39 95.5829 137.899 95.8374C139.19 96.4737 141.635 97.6009 143.544 98.0373C146.28 98.6645 149.707 103.846 149.707 103.846Z" fill="#E58F6C"/>
<path d="M149.628 100.844C149.628 100.844 143.683 99.7172 139.438 97.0538C137.047 95.5539 135.674 94.7631 134.993 94.2449C134.593 93.9359 134.538 93.2178 134.774 92.7542C135.093 92.1451 135.792 91.8724 136.411 92.1179C138.601 92.9996 143.555 94.954 145.646 95.4267C148.382 96.0448 149.619 100.844 149.619 100.844H149.628Z" fill="#E58F6C"/>
<path d="M149.562 97.7004C149.562 97.7004 143.289 96.3096 138.881 93.4007C136.381 91.7554 134.972 90.8555 134.272 90.2919C133.872 89.9737 133.827 89.2465 134.099 88.792C134.463 88.1739 135.163 87.9284 135.772 88.192C138.026 89.1738 143.308 91.4191 145.544 91.9917C148.425 92.728 149.571 97.7004 149.571 97.7004H149.562Z" fill="#E58F6C"/>
<path d="M152.218 95.0284C152.218 95.0284 146.028 93.6649 141.674 90.8378C139.083 89.1562 137.72 88.2744 137.056 87.7381C136.72 87.4654 136.665 86.8291 136.892 86.4382C137.283 85.7837 138.02 85.511 138.665 85.7928C140.928 86.7654 146.055 88.9198 148.246 89.4743C151.091 90.1924 152.218 95.0466 152.218 95.0466V95.0284Z" fill="#E58F6C"/>
<path d="M147.262 103.436L153.144 105.945L154.244 90.8184C154.244 90.8184 151.744 90.6094 148.571 89.564C145.399 88.5186 143.935 102.018 147.262 103.445V103.436Z" fill="#E58F6C"/>
<path d="M148.081 93.6458C148.081 93.6458 148.062 93.6458 148.053 93.6458C148.008 93.6367 143.899 92.6368 139.572 89.8189C139.499 89.7734 139.481 89.6825 139.527 89.6098C139.572 89.5371 139.663 89.5189 139.736 89.5643C144.017 92.3459 148.081 93.3368 148.126 93.3458C148.208 93.364 148.253 93.4458 148.235 93.5276C148.217 93.6004 148.153 93.6458 148.081 93.6458Z" fill="#161742"/>
<path d="M145.898 97.055C145.898 97.055 145.871 97.055 145.853 97.055C145.808 97.0368 140.981 95.3733 136.763 92.3554C136.699 92.31 136.681 92.21 136.726 92.1463C136.772 92.0827 136.872 92.0645 136.935 92.11C141.117 95.1006 145.898 96.7551 145.944 96.7641C146.026 96.7914 146.062 96.8732 146.035 96.955C146.017 97.0187 145.953 97.055 145.889 97.055H145.898Z" fill="#161742"/>
<path d="M144.782 99.9724C144.782 99.9724 144.755 99.9724 144.736 99.9724C140.909 98.6998 138.037 96.6636 136.982 95.8546C136.919 95.8 136.901 95.7091 136.955 95.6455C137.01 95.5819 137.101 95.5637 137.164 95.6182C138.21 96.4273 141.046 98.4362 144.827 99.6906C144.909 99.7179 144.945 99.7997 144.927 99.8815C144.909 99.9452 144.845 99.9906 144.782 99.9815V99.9724Z" fill="#161742"/>
<g opacity="0.3">
<path d="M136.008 94.7727C135.717 94.7727 135.408 94.6546 135.153 94.4546C134.599 94.0274 134.417 93.3183 134.763 92.882C134.935 92.6638 135.199 92.5457 135.517 92.5457C135.817 92.5457 136.126 92.6638 136.39 92.8638C136.653 93.0638 136.844 93.3365 136.917 93.6274C136.999 93.9274 136.953 94.2182 136.781 94.4364C136.608 94.6546 136.344 94.7727 136.026 94.7727C136.026 94.7727 136.017 94.7727 136.008 94.7727Z" fill="#8CD6F5"/>
</g>
<g opacity="0.3">
<path d="M135.464 90.8084C135.192 90.8084 134.901 90.7175 134.637 90.5539C133.973 90.1539 133.692 89.3994 134.01 88.8904C134.164 88.6358 134.446 88.4722 134.783 88.4359C135.11 88.3995 135.464 88.4904 135.773 88.6813C136.437 89.0813 136.719 89.8357 136.401 90.3448C136.246 90.5993 135.964 90.7629 135.628 90.7993C135.573 90.7993 135.519 90.7993 135.455 90.7993L135.464 90.8084Z" fill="#8CD6F5"/>
</g>
<g opacity="0.3">
<path d="M138.205 88.4384C137.941 88.4384 137.669 88.3475 137.423 88.202C137.105 88.0112 136.869 87.7294 136.76 87.4021C136.641 87.0658 136.669 86.7385 136.841 86.4658C137.178 85.9113 137.996 85.7841 138.65 86.184C138.968 86.3749 139.205 86.6567 139.314 86.984C139.432 87.3203 139.405 87.6475 139.232 87.9202C139.068 88.193 138.778 88.3748 138.432 88.4202C138.359 88.4293 138.278 88.4384 138.205 88.4293V88.4384Z" fill="#8CD6F5"/>
</g>
<g opacity="0.3">
<path d="M137.744 96.6909C137.335 96.3728 136.817 96.3091 136.444 96.4909C136.389 96.6364 136.371 96.7909 136.371 96.9454C136.371 96.9363 136.389 96.9091 136.389 96.9182C136.298 97.8181 137.526 98.4544 137.662 98.5453C137.844 98.4908 137.998 98.3908 138.107 98.2453C138.28 98.0272 138.325 97.7454 138.253 97.4454C138.18 97.1636 137.998 96.8909 137.744 96.6909Z" fill="#8CD6F5"/>
</g>
<path d="M160.811 99.6367L153.784 106.809L156.02 108.381L162.056 100.655L160.811 99.6367Z" fill="#161742"/>
<path d="M129.059 82.9385C128.113 82.9385 127.341 82.1659 127.341 81.2205C127.341 80.2751 128.113 79.5024 129.059 79.5024C130.004 79.5024 130.777 80.2751 130.777 81.2205C130.777 82.1659 130.004 82.9385 129.059 82.9385ZM129.059 80.1751C128.486 80.1751 128.023 80.6387 128.023 81.2114C128.023 81.7841 128.486 82.2477 129.059 82.2477C129.632 82.2477 130.095 81.7841 130.095 81.2114C130.095 80.6387 129.632 80.1751 129.059 80.1751Z" fill="white"/>
<path d="M127.405 95.9188C126.459 95.9188 125.687 95.1461 125.687 94.2007C125.687 93.2553 126.459 92.4827 127.405 92.4827C128.35 92.4827 129.123 93.2553 129.123 94.2007C129.123 95.1461 128.35 95.9188 127.405 95.9188ZM127.405 93.1644C126.832 93.1644 126.368 93.628 126.368 94.2007C126.368 94.7734 126.832 95.237 127.405 95.237C127.977 95.237 128.441 94.7734 128.441 94.2007C128.441 93.628 127.977 93.1644 127.405 93.1644Z" fill="white"/>
<path d="M139.431 10.1077C132.44 10.1077 126.504 14.7073 124.314 21.1159L123.541 24.3156C127.059 24.9247 131.24 18.6797 131.24 18.6797C136.476 20.7159 145.494 14.5164 145.494 14.5164C150.139 15.0345 154.484 21.2431 154.484 21.2431L154.529 21.0977C152.33 14.6982 146.403 10.1077 139.412 10.1077H139.431Z" fill="#161742"/>
<path d="M139.386 38.0699C139.276 38.0699 139.176 38.0699 139.067 38.0608C138.849 38.0518 138.676 37.8609 138.695 37.6427C138.704 37.4245 138.895 37.2518 139.113 37.27C141.922 37.4336 143.149 34.9429 143.167 34.9156C143.258 34.7157 143.494 34.6338 143.694 34.7338C143.894 34.8338 143.976 35.0702 143.876 35.2611C143.822 35.3792 142.485 38.0699 139.386 38.0699Z" fill="#161742"/>
<path d="M143.43 23.1258C143.311 23.1258 143.202 23.0803 143.121 22.9803C142.984 22.8076 143.002 22.5622 143.175 22.4167C146.284 19.8442 149.165 20.6714 149.284 20.7078C149.493 20.7714 149.611 20.9896 149.547 21.1986C149.484 21.4077 149.265 21.5259 149.056 21.4714C148.947 21.4441 146.438 20.7441 143.675 23.0349C143.602 23.0985 143.511 23.1258 143.42 23.1258H143.43Z" fill="#161742"/>
<path d="M129.54 24.8699C129.385 24.8699 129.24 24.779 129.176 24.6336C129.085 24.4336 129.176 24.1972 129.376 24.1063C132.748 22.5792 135.466 23.1973 135.575 23.2246C135.785 23.2791 135.921 23.4882 135.866 23.7064C135.812 23.9245 135.603 24.0518 135.385 23.9973C135.357 23.9973 132.803 23.4155 129.694 24.8245C129.64 24.8517 129.585 24.8608 129.53 24.8608L129.54 24.8699Z" fill="#161742"/>
<path d="M147.083 26.1785C147.806 26.1785 148.392 25.5925 148.392 24.8695C148.392 24.1466 147.806 23.5605 147.083 23.5605C146.36 23.5605 145.774 24.1466 145.774 24.8695C145.774 25.5925 146.36 26.1785 147.083 26.1785Z" fill="#161742"/>
<path d="M133.085 28.0147C133.808 28.0147 134.394 27.4286 134.394 26.7057C134.394 25.9828 133.808 25.3967 133.085 25.3967C132.362 25.3967 131.776 25.9828 131.776 26.7057C131.776 27.4286 132.362 28.0147 133.085 28.0147Z" fill="#161742"/>
<path d="M140.149 28.1158C140.149 28.1158 140.176 28.043 140.204 28.0158C140.331 27.834 140.576 27.7885 140.758 27.9158L142.267 29.4429C142.385 29.5247 142.449 29.6702 142.431 29.8247C142.413 29.9701 142.313 30.0974 142.167 30.1429L140.258 31.27C140.049 31.3428 139.822 31.2337 139.749 31.0246C139.676 30.8155 139.785 30.5883 139.995 30.5156L141.513 29.6429L140.294 28.5612C140.149 28.4612 140.094 28.2703 140.149 28.1067V28.1158Z" fill="#161742"/>
<path d="M83.5399 83.9467C83.5399 83.9467 83.1287 84.0404 82.3281 84.1991C81.5274 84.365 80.3301 84.5814 78.7648 84.9204C75.6344 85.5696 71.0253 86.5722 65.1755 88.1735C59.3401 89.8037 52.2064 91.9676 44.3514 95.5308C42.3967 96.4324 40.3915 97.4134 38.3935 98.5531C36.3955 99.6855 34.3686 100.933 32.4139 102.39C30.4663 103.855 28.5477 105.492 26.8959 107.461C25.2585 109.423 23.8015 111.702 23.1523 114.321C22.4599 116.917 22.6546 119.803 23.7438 122.399C24.8113 125.018 26.6218 127.34 28.7352 129.382C33.0053 133.479 38.4223 136.58 44.1927 139.249C55.813 144.529 69.0777 148.071 83.1576 150.711C97.2591 153.322 112.269 154.937 127.864 155.644C143.459 156.33 159.652 156.135 176.148 154.786C192.644 153.415 208.686 150.992 223.79 147.025C231.328 145.027 238.642 142.639 245.487 139.574C248.906 138.03 252.217 136.335 255.29 134.344C258.362 132.353 261.24 130.096 263.548 127.376C265.849 124.686 267.544 121.39 267.645 117.906C267.682 117.473 267.631 117.047 267.602 116.615C267.552 116.189 267.581 115.749 267.465 115.338L267.184 114.083C267.112 113.657 266.903 113.275 266.773 112.871C266.21 111.255 265.265 109.82 264.299 108.449C262.228 105.773 259.661 103.588 256.985 101.691C254.294 99.8009 251.452 98.2285 248.61 96.7931C242.89 93.9728 237.105 91.8233 231.458 90.0561C225.81 88.2889 220.292 86.8896 214.997 85.7139C193.77 81.1336 176.17 79.8929 164.066 79.2149C158.007 78.8975 153.29 78.8903 150.095 78.8038C148.501 78.7677 147.282 78.7389 146.459 78.7244C145.637 78.7028 145.219 78.6812 145.219 78.6812C145.219 78.6812 145.637 78.6812 146.459 78.6812C147.282 78.6884 148.501 78.7028 150.095 78.7244C153.29 78.7821 158.007 78.7677 164.073 79.0634C176.184 79.691 193.791 80.8956 215.055 85.447C220.357 86.6155 225.882 88.0076 231.544 89.7748C237.206 91.5348 243.013 93.6843 248.747 96.5046C251.604 97.94 254.46 99.5124 257.172 101.417C259.87 103.328 262.467 105.528 264.566 108.24C265.554 109.632 266.513 111.089 267.09 112.748C267.227 113.159 267.436 113.556 267.508 113.989L267.797 115.273C267.912 115.698 267.883 116.146 267.941 116.586C267.97 117.026 268.028 117.466 267.984 117.913C267.934 119.687 267.472 121.447 266.737 123.07C266.008 124.708 264.984 126.208 263.815 127.586C261.471 130.348 258.571 132.62 255.484 134.625C252.39 136.631 249.065 138.34 245.638 139.891C238.764 142.964 231.443 145.366 223.884 147.371C208.758 151.353 192.695 153.776 176.177 155.154C159.659 156.503 143.451 156.697 127.842 156.005C112.233 155.298 97.2158 153.675 83.0927 151.05C68.9912 148.395 55.712 144.839 44.0629 139.53C38.2781 136.847 32.8394 133.724 28.5405 129.591C26.4054 127.528 24.5733 125.169 23.4913 122.5C22.3805 119.853 22.1858 116.896 22.8999 114.249C23.5635 111.573 25.0493 109.272 26.7083 107.288C28.3818 105.304 30.3149 103.653 32.2768 102.188C34.246 100.724 36.28 99.4763 38.2853 98.3511C40.2905 97.2187 42.3029 96.2305 44.2649 95.3361C52.1415 91.78 59.2824 89.6305 65.1322 88.022C70.9964 86.4424 75.6128 85.4614 78.7504 84.8339C81.8881 84.2063 83.5399 83.9395 83.5399 83.9395V83.9467Z" fill="#CEEDFB"/>
<path d="M102.956 148.937C126.551 151.888 158.677 154.144 181.009 148.937L187.861 95.9873C187.861 95.9873 136.251 101.635 102.956 95.9873V148.937Z" fill="#CEEDFB"/>
<path d="M125.067 127.06H120.417V141.467H125.067V127.06Z" fill="#5BC4F0"/>
<path d="M129.719 120.05H125.068V141.467H129.719V120.05Z" fill="#1058AD"/>
<path d="M142.422 117.626H137.771V141.377H142.422V117.626Z" fill="#5BC4F0"/>
<path d="M147.073 132.588H142.423V141.378H147.073V132.588Z" fill="#1058AD"/>
<path d="M159.768 125.002H155.117V141.449H159.768V125.002Z" fill="#5BC4F0"/>
<path d="M164.419 121.365H159.769V141.448H164.419V121.365Z" fill="#1058AD"/>
<path d="M21.6016 57.4697L30.7405 112.772C30.7405 112.772 44.6905 138.898 81.7727 144.791L75.7859 95.4247C75.7859 95.4247 41.5023 84.8144 21.6016 57.4697Z" fill="#CEEDFB"/>
<path d="M255.772 64.0199C254.574 60.1321 251.66 54.5852 244.736 53.4312L236.549 129.009C236.549 129.009 251.92 125.944 252.331 117.519C252.367 116.79 255.44 79.225 256.212 69.9274C256.377 67.8933 256.377 65.9746 255.772 64.0199Z" fill="#8CD6F5"/>
<path d="M256.386 67.4969L252.469 122.495C252.469 122.495 239.096 146.522 202.267 147.438L206.818 90.8658C206.818 90.8658 237.993 89.618 256.206 67.1782C256.415 66.9258 256.407 67.1723 256.386 67.4969Z" fill="#CEEDFB"/>
<g clip-path="url(#clip2_1884_17682)">
<path d="M255.52 80.1194C251.848 85.4282 249.778 91.8334 249.648 98.289C249.612 100.15 249.72 102.083 249.013 103.807C248.307 105.531 246.453 106.974 244.657 106.476C242.781 105.964 241.937 103.742 240.293 102.703C238.829 101.78 236.845 101.939 235.352 102.804C233.859 103.677 232.799 105.163 232.106 106.75C230.764 109.83 230.678 113.307 229.69 116.516C228.702 119.726 226.285 122.965 222.931 123.109C221.705 123.16 220.493 122.792 219.267 122.828C216.677 122.907 214.427 124.833 213.215 127.127C212.003 129.421 211.643 132.053 211.304 134.621C211.304 134.621 231.104 136.439 253.139 110.414L255.52 80.1194Z" fill="white"/>
</g>
<path d="M202.792 36.25C201.652 32.5785 198.904 29.4192 194.562 28.4094C194.446 28.3805 194.331 28.3589 194.208 28.3301C194.136 28.3156 194.057 28.3012 193.985 28.2868C193.761 28.2435 193.538 28.2146 193.314 28.1858C193.307 28.1858 193.292 28.1858 193.285 28.1858C193.278 28.1858 193.263 28.1858 193.256 28.1858L192.102 38.0749L191.828 40.3975L202.734 44.3791H202.749C203.023 43.564 203.21 42.7129 203.311 41.8473C203.528 39.9935 203.355 38.0677 202.792 36.2572V36.25Z" fill="#161742"/>
<path d="M36.0273 93.1023C40.1147 96.9492 50.8141 106.014 60.9123 111.496M38.1913 99.9547C42.2786 103.802 52.978 112.866 63.0762 118.348M41.0765 107.528C45.1639 111.375 55.8632 120.44 65.9615 125.922" stroke="#8CD6F5"/>
</g>
<defs>
<clipPath id="clip0_1884_17682">
<rect width="280" height="160" rx="8" fill="white"/>
</clipPath>
<clipPath id="clip1_1884_17682">
<rect width="24.4378" height="25.8804" fill="white" transform="translate(178.845 28.1863)"/>
</clipPath>
<clipPath id="clip2_1884_17682">
<rect width="44.2159" height="54.5378" fill="white" transform="translate(211.304 80.1194)"/>
</clipPath>
</defs>
</svg>
