<svg width="16" height="16" viewBox="0 0 16 16" fill="none" xmlns="http://www.w3.org/2000/svg">
<path d="M3.64625 11.646L10.7931 4.49972L5.5 4.49972C5.36739 4.49972 5.24022 4.44704 5.14645 4.35327C5.05268 4.25951 5 4.13233 5 3.99972C5 3.86711 5.05268 3.73994 5.14645 3.64617C5.24022 3.5524 5.36739 3.49972 5.5 3.49972L12 3.49972C12.1326 3.49972 12.2598 3.5524 12.3536 3.64617C12.4473 3.73994 12.5 3.86711 12.5 3.99972L12.5 10.4997C12.5 10.6323 12.4473 10.7595 12.3536 10.8533C12.2598 10.947 12.1326 10.9997 12 10.9997C11.8674 10.9997 11.7402 10.947 11.6464 10.8533C11.5527 10.7595 11.5 10.6323 11.5 10.4997L11.5 5.2066L4.35375 12.3535C4.30729 12.3999 4.25214 12.4368 4.19145 12.4619C4.13075 12.4871 4.0657 12.5 4 12.5C3.9343 12.5 3.86925 12.4871 3.80855 12.4619C3.74786 12.4368 3.69271 12.3999 3.64625 12.3535C3.59979 12.307 3.56295 12.2519 3.5378 12.1912C3.51266 12.1305 3.49972 12.0654 3.49972 11.9997C3.49972 11.934 3.51266 11.869 3.5378 11.8083C3.56295 11.7476 3.59979 11.6924 3.64625 11.646Z" fill="#EE3D4B"/>
</svg>
