<svg width="360" height="426" viewBox="0 0 360 426" fill="none" xmlns="http://www.w3.org/2000/svg">
<rect width="360" height="227" fill="url(#paint0_linear_256_9327)"/>
<rect opacity="0.6" x="1" y="112.993" width="359" height="48.0641" fill="url(#paint1_radial_256_9327)"/>
<g opacity="0.3">
<path d="M191.443 161L-14 311.848V426L191.443 161Z" fill="url(#paint2_radial_256_9327)"/>
<path d="M72.7227 426H135.046L191.444 161L72.7227 426Z" fill="url(#paint3_radial_256_9327)"/>
<path d="M-14 161V231.893L191.443 161H-14Z" fill="url(#paint4_radial_256_9327)"/>
<path d="M191.445 426H246.405L191.445 161V426Z" fill="url(#paint5_radial_256_9327)"/>
<path d="M191.445 161L396.888 314.138V233.748L191.445 161Z" fill="url(#paint6_radial_256_9327)"/>
<path d="M191.445 161L308.392 426H396.888L191.445 161Z" fill="url(#paint7_radial_256_9327)"/>
<path d="M-14 7.86084V88.2512L191.443 160.999L-14 7.86084Z" fill="url(#paint8_radial_256_9327)"/>
<path d="M396.888 10.1619V-104L191.445 161L396.888 10.1619Z" fill="url(#paint9_radial_256_9327)"/>
<path d="M191.445 161H396.888V90.1069L191.445 161Z" fill="url(#paint10_radial_256_9327)"/>
<path d="M191.443 161L74.4966 -104H-14L191.443 161Z" fill="url(#paint11_radial_256_9327)"/>
<path d="M191.445 161L310.167 -104H247.844L191.445 161Z" fill="url(#paint12_radial_256_9327)"/>
<path d="M191.444 161V-104H136.484L191.444 161Z" fill="url(#paint13_radial_256_9327)"/>
</g>
<defs>
<linearGradient id="paint0_linear_256_9327" x1="180" y1="0" x2="180" y2="227" gradientUnits="userSpaceOnUse">
<stop stop-color="#CEEDFB"/>
<stop offset="0.89" stop-color="#F7FDFF"/>
</linearGradient>
<radialGradient id="paint1_radial_256_9327" cx="0" cy="0" r="1" gradientUnits="userSpaceOnUse" gradientTransform="translate(180.5 137.025) scale(179.5 24.0321)">
<stop offset="0.195" stop-color="white"/>
<stop offset="0.635" stop-color="white" stop-opacity="0.48"/>
<stop offset="1" stop-color="white" stop-opacity="0"/>
</radialGradient>
<radialGradient id="paint2_radial_256_9327" cx="0" cy="0" r="1" gradientUnits="userSpaceOnUse" gradientTransform="translate(192.059 159.389) scale(319.069 411.566)">
<stop stop-color="white"/>
<stop offset="0.41" stop-color="white" stop-opacity="0"/>
</radialGradient>
<radialGradient id="paint3_radial_256_9327" cx="0" cy="0" r="1" gradientUnits="userSpaceOnUse" gradientTransform="translate(192.06 159.389) scale(319.069 411.566)">
<stop stop-color="white"/>
<stop offset="0.375" stop-color="white" stop-opacity="0"/>
</radialGradient>
<radialGradient id="paint4_radial_256_9327" cx="0" cy="0" r="1" gradientUnits="userSpaceOnUse" gradientTransform="translate(192.059 159.389) scale(319.069 411.566)">
<stop stop-color="white"/>
<stop offset="1" stop-color="white" stop-opacity="0"/>
</radialGradient>
<radialGradient id="paint5_radial_256_9327" cx="0" cy="0" r="1" gradientUnits="userSpaceOnUse" gradientTransform="translate(192.062 159.389) scale(319.069 411.566)">
<stop stop-color="white"/>
<stop offset="0.465" stop-color="white" stop-opacity="0"/>
</radialGradient>
<radialGradient id="paint6_radial_256_9327" cx="0" cy="0" r="1" gradientUnits="userSpaceOnUse" gradientTransform="translate(192.062 159.389) scale(319.069 411.566)">
<stop stop-color="white"/>
<stop offset="0.46" stop-color="white" stop-opacity="0"/>
</radialGradient>
<radialGradient id="paint7_radial_256_9327" cx="0" cy="0" r="1" gradientUnits="userSpaceOnUse" gradientTransform="translate(192.062 159.389) scale(319.069 411.566)">
<stop stop-color="white"/>
<stop offset="0.325" stop-color="white" stop-opacity="0"/>
</radialGradient>
<radialGradient id="paint8_radial_256_9327" cx="0" cy="0" r="1" gradientUnits="userSpaceOnUse" gradientTransform="translate(192.059 159.388) scale(319.053 411.545)">
<stop stop-color="white"/>
<stop offset="1" stop-color="white" stop-opacity="0"/>
</radialGradient>
<radialGradient id="paint9_radial_256_9327" cx="0" cy="0" r="1" gradientUnits="userSpaceOnUse" gradientTransform="translate(192.062 159.389) scale(319.069 411.566)">
<stop stop-color="white"/>
<stop offset="1" stop-color="white" stop-opacity="0"/>
</radialGradient>
<radialGradient id="paint10_radial_256_9327" cx="0" cy="0" r="1" gradientUnits="userSpaceOnUse" gradientTransform="translate(192.062 159.388) scale(319.069 411.566)">
<stop stop-color="white"/>
<stop offset="1" stop-color="white" stop-opacity="0"/>
</radialGradient>
<radialGradient id="paint11_radial_256_9327" cx="0" cy="0" r="1" gradientUnits="userSpaceOnUse" gradientTransform="translate(192.059 159.389) scale(319.053 411.545)">
<stop stop-color="white"/>
<stop offset="1" stop-color="white" stop-opacity="0"/>
</radialGradient>
<radialGradient id="paint12_radial_256_9327" cx="0" cy="0" r="1" gradientUnits="userSpaceOnUse" gradientTransform="translate(192.062 159.389) scale(319.069 411.566)">
<stop stop-color="white"/>
<stop offset="1" stop-color="white" stop-opacity="0"/>
</radialGradient>
<radialGradient id="paint13_radial_256_9327" cx="0" cy="0" r="1" gradientUnits="userSpaceOnUse" gradientTransform="translate(192.061 159.389) scale(319.061 411.555)">
<stop stop-color="white"/>
<stop offset="1" stop-color="white" stop-opacity="0"/>
</radialGradient>
</defs>
</svg>
