<svg width="12" height="12" viewBox="0 0 12 12" fill="none" xmlns="http://www.w3.org/2000/svg">
<path d="M6.0005 9C6.09506 9 6.17417 8.96806 6.23783 8.90417C6.3015 8.84028 6.33333 8.76111 6.33333 8.66667V5.66667C6.33333 5.57222 6.30133 5.49306 6.23733 5.42917C6.17333 5.36528 6.09406 5.33333 5.9995 5.33333C5.90494 5.33333 5.82583 5.36528 5.76217 5.42917C5.6985 5.49306 5.66667 5.57222 5.66667 5.66667V8.66667C5.66667 8.76111 5.69867 8.84028 5.76267 8.90417C5.82667 8.96806 5.90594 9 6.0005 9ZM6 4.38467C6.11622 4.38467 6.21367 4.34533 6.29233 4.26667C6.371 4.188 6.41033 4.09056 6.41033 3.97433C6.41033 3.85811 6.371 3.76067 6.29233 3.682C6.21367 3.60344 6.11622 3.56417 6 3.56417C5.88378 3.56417 5.78633 3.60344 5.70767 3.682C5.629 3.76067 5.58967 3.85811 5.58967 3.97433C5.58967 4.09056 5.629 4.188 5.70767 4.26667C5.78633 4.34533 5.88378 4.38467 6 4.38467ZM6.00217 12C5.1725 12 4.39244 11.8426 3.662 11.5277C2.93167 11.2128 2.29633 10.7854 1.756 10.2457C1.21567 9.70589 0.787944 9.07111 0.472833 8.34133C0.157611 7.61167 0 6.83194 0 6.00217C0 5.1725 0.157444 4.39244 0.472333 3.662C0.787222 2.93167 1.21456 2.29633 1.75433 1.756C2.29411 1.21567 2.92889 0.787944 3.65867 0.472833C4.38833 0.157611 5.16806 0 5.99783 0C6.8275 0 7.60756 0.157445 8.338 0.472334C9.06833 0.787223 9.70367 1.21456 10.244 1.75433C10.7843 2.29411 11.2121 2.92889 11.5272 3.65867C11.8424 4.38833 12 5.16806 12 5.99783C12 6.8275 11.8426 7.60756 11.5277 8.338C11.2128 9.06833 10.7854 9.70367 10.2457 10.244C9.70589 10.7843 9.07111 11.2121 8.34133 11.5272C7.61167 11.8424 6.83194 12 6.00217 12ZM6 11.3333C7.48889 11.3333 8.75 10.8167 9.78333 9.78333C10.8167 8.75 11.3333 7.48889 11.3333 6C11.3333 4.51111 10.8167 3.25 9.78333 2.21667C8.75 1.18333 7.48889 0.666667 6 0.666667C4.51111 0.666667 3.25 1.18333 2.21667 2.21667C1.18333 3.25 0.666667 4.51111 0.666667 6C0.666667 7.48889 1.18333 8.75 2.21667 9.78333C3.25 10.8167 4.51111 11.3333 6 11.3333Z" fill="#1D478E"/>
</svg>
