<svg width="264" height="157" viewBox="0 0 264 157" fill="none" xmlns="http://www.w3.org/2000/svg">
<path d="M197.147 0H139.8C134.666 0 130.505 4.15962 130.505 9.29078V135.053C130.505 140.185 134.666 144.344 139.8 144.344H197.147C202.281 144.344 206.443 140.185 206.443 135.053V9.29078C206.443 4.15962 202.281 0 197.147 0Z" fill="#1C004F"/>
<path d="M197.701 3.57324H139.252C136.242 3.57324 133.801 6.01257 133.801 9.02164V135.311C133.801 138.32 136.242 140.759 139.252 140.759H197.701C200.712 140.759 203.153 138.32 203.153 135.311V9.02164C203.153 6.01257 200.712 3.57324 197.701 3.57324Z" fill="white"/>
<rect x="141.505" y="87" width="53" height="10" rx="5" fill="#E8F6FD"/>
<rect x="141.505" y="52" width="53" height="2" rx="1" fill="#E8F6FD"/>
<rect x="141.505" y="56" width="41" height="2" rx="1" fill="#E8F6FD"/>
<path d="M152.057 1.78662H185.165V6.67593C185.165 9.52072 182.856 11.8338 180.004 11.8338H156.943C154.097 11.8338 151.783 9.5262 151.783 6.67593V2.06069C151.783 1.90721 151.904 1.78662 152.057 1.78662Z" fill="#1C004F"/>
<mask id="mask0_4793_1522" style="mask-type:alpha" maskUnits="userSpaceOnUse" x="155" y="23" width="25" height="24">
<rect x="155.925" y="23" width="24" height="24" fill="#D9D9D9"/>
</mask>
<g mask="url(#mask0_4793_1522)">
<path d="M162.121 40.4845C162.971 39.873 163.873 39.3894 164.827 39.0337C165.78 38.6779 166.813 38.5 167.925 38.5C169.036 38.5 170.069 38.6779 171.023 39.0337C171.976 39.3894 172.878 39.873 173.728 40.4845C174.389 39.8012 174.92 38.9942 175.322 38.0635C175.724 37.1327 175.925 36.1115 175.925 35C175.925 32.7833 175.145 30.8958 173.587 29.3375C172.029 27.7792 170.141 27 167.925 27C165.708 27 163.82 27.7792 162.262 29.3375C160.704 30.8958 159.925 32.7833 159.925 35C159.925 36.1115 160.126 37.1327 160.528 38.0635C160.929 38.9942 161.46 39.8012 162.121 40.4845ZM167.925 35.5C167.082 35.5 166.372 35.2108 165.793 34.6323C165.214 34.0538 164.925 33.3432 164.925 32.5005C164.925 31.6578 165.214 30.9471 165.792 30.3682C166.371 29.7894 167.081 29.5 167.924 29.5C168.767 29.5 169.477 29.7893 170.056 30.3678C170.635 30.9463 170.925 31.6568 170.925 32.4995C170.925 33.3422 170.635 34.0529 170.057 34.6318C169.478 35.2106 168.768 35.5 167.925 35.5ZM167.925 44C166.669 44 165.494 43.7663 164.4 43.299C163.305 42.8317 162.352 42.1929 161.542 41.3828C160.732 40.5724 160.093 39.6198 159.626 38.525C159.158 37.4302 158.925 36.2552 158.925 35C158.925 33.7448 159.158 32.5698 159.626 31.475C160.093 30.3802 160.732 29.4276 161.542 28.6173C162.352 27.8071 163.305 27.1683 164.4 26.701C165.494 26.2337 166.669 26 167.925 26C169.18 26 170.355 26.2337 171.45 26.701C172.544 27.1683 173.497 27.8071 174.307 28.6173C175.117 29.4276 175.756 30.3802 176.224 31.475C176.691 32.5698 176.925 33.7448 176.925 35C176.925 36.2552 176.691 37.4302 176.224 38.525C175.756 39.6198 175.117 40.5724 174.307 41.3828C173.497 42.1929 172.544 42.8317 171.45 43.299C170.355 43.7663 169.18 44 167.925 44ZM167.925 43C168.846 43 169.753 42.8388 170.646 42.5163C171.538 42.1939 172.309 41.7526 172.959 41.1923C172.309 40.6704 171.557 40.2579 170.703 39.9548C169.849 39.6516 168.923 39.5 167.925 39.5C166.926 39.5 165.996 39.6484 165.136 39.9453C164.276 40.2421 163.527 40.6578 162.89 41.1923C163.54 41.7526 164.311 42.1939 165.203 42.5163C166.096 42.8388 167.003 43 167.925 43ZM167.925 34.5C168.486 34.5 168.96 34.3071 169.346 33.9212C169.732 33.5352 169.925 33.0615 169.925 32.5C169.925 31.9385 169.732 31.4648 169.346 31.0788C168.96 30.6929 168.486 30.5 167.925 30.5C167.363 30.5 166.889 30.6929 166.503 31.0788C166.117 31.4648 165.925 31.9385 165.925 32.5C165.925 33.0615 166.117 33.5352 166.503 33.9212C166.889 34.3071 167.363 34.5 167.925 34.5Z" fill="#CEEDFB"/>
</g>
<path d="M141.505 75L194.505 75" stroke="#CEEDFB" stroke-width="0.4"/>
<path d="M143.587 71.574V68.85H144.013V71.574H143.587ZM142.435 70.428V70.002H145.153V70.428H142.435ZM147.265 67.728C147.561 67.728 147.805 67.784 147.997 67.896C148.189 68.004 148.343 68.152 148.459 68.34C148.579 68.528 148.663 68.746 148.711 68.994C148.763 69.238 148.789 69.498 148.789 69.774C148.789 70.134 148.751 70.456 148.675 70.74C148.599 71.024 148.491 71.266 148.351 71.466C148.211 71.662 148.041 71.812 147.841 71.916C147.645 72.02 147.421 72.072 147.169 72.072C146.961 72.072 146.753 72.04 146.545 71.976C146.341 71.908 146.157 71.816 145.993 71.7L146.275 71.34C146.403 71.428 146.541 71.498 146.689 71.55C146.841 71.598 146.985 71.622 147.121 71.622C147.529 71.622 147.839 71.45 148.051 71.106C148.267 70.762 148.361 70.242 148.333 69.546L148.441 69.648C148.345 69.892 148.191 70.086 147.979 70.23C147.767 70.374 147.517 70.446 147.229 70.446C146.957 70.446 146.717 70.388 146.509 70.272C146.301 70.152 146.137 69.99 146.017 69.786C145.901 69.582 145.843 69.346 145.843 69.078C145.843 68.814 145.903 68.582 146.023 68.382C146.143 68.178 146.309 68.018 146.521 67.902C146.737 67.786 146.985 67.728 147.265 67.728ZM147.265 68.172C147.089 68.172 146.931 68.212 146.791 68.292C146.651 68.368 146.541 68.476 146.461 68.616C146.385 68.752 146.347 68.91 146.347 69.09C146.347 69.27 146.385 69.43 146.461 69.57C146.541 69.706 146.651 69.814 146.791 69.894C146.931 69.97 147.089 70.008 147.265 70.008C147.449 70.008 147.609 69.97 147.745 69.894C147.885 69.814 147.993 69.706 148.069 69.57C148.149 69.43 148.189 69.27 148.189 69.09C148.189 68.91 148.149 68.752 148.069 68.616C147.993 68.476 147.885 68.368 147.745 68.292C147.609 68.212 147.449 68.172 147.265 68.172ZM150.363 72V68.07L150.405 67.8H150.861V72H150.363ZM149.421 68.88V68.418C149.505 68.422 149.605 68.394 149.721 68.334C149.837 68.274 149.957 68.196 150.081 68.1C150.205 68.004 150.313 67.904 150.405 67.8L150.717 68.142C150.585 68.282 150.447 68.408 150.303 68.52C150.159 68.632 150.013 68.722 149.865 68.79C149.717 68.854 149.569 68.884 149.421 68.88Z" fill="#CEEDFB"/>
<path d="M132 157C204.391 157 263.075 152.971 263.075 148C263.075 143.03 204.391 139 132 139C59.6089 139 0.924316 143.03 0.924316 148C0.924316 152.971 59.6089 157 132 157Z" fill="#5BC4F0" fill-opacity="0.2"/>
<path d="M159.175 147.755C159.175 148.9 150.792 149.83 140.457 149.83C130.122 149.83 121.739 148.9 121.739 147.755C121.739 147.734 121.743 147.713 121.747 147.693V142.087H159.162V147.68C159.171 147.705 159.175 147.73 159.175 147.755Z" fill="#AF8E2F"/>
<path d="M140.453 144.213C150.79 144.213 159.171 143.283 159.171 142.137C159.171 140.991 150.79 140.062 140.453 140.062C130.115 140.062 121.735 140.991 121.735 142.137C121.735 143.283 130.115 144.213 140.453 144.213Z" fill="#FFD325"/>
<path d="M163.597 140.988C163.597 142.133 155.214 143.063 144.879 143.063C134.544 143.063 126.161 142.133 126.161 140.988C126.161 140.967 126.165 140.947 126.169 140.926V135.32H163.585V140.914C163.593 140.938 163.597 140.963 163.597 140.988Z" fill="#AF8E2F"/>
<path d="M144.875 137.449C155.213 137.449 163.593 136.52 163.593 135.374C163.593 134.228 155.213 133.299 144.875 133.299C134.537 133.299 126.157 134.228 126.157 135.374C126.157 136.52 134.537 137.449 144.875 137.449Z" fill="#FFD325"/>
<path d="M160.076 133.348C160.076 134.493 151.693 135.423 141.358 135.423C131.023 135.423 122.64 134.493 122.64 133.348C122.64 133.327 122.644 133.307 122.648 133.286V127.68H160.064V133.274C160.072 133.298 160.076 133.323 160.076 133.348Z" fill="#AF8E2F"/>
<path d="M141.358 129.806C151.696 129.806 160.076 128.877 160.076 127.73C160.076 126.584 151.696 125.655 141.358 125.655C131.02 125.655 122.64 126.584 122.64 127.73C122.64 128.877 131.02 129.806 141.358 129.806Z" fill="#FFD325"/>
<path d="M164.499 126.585C164.499 127.73 156.116 128.66 145.781 128.66C135.446 128.66 127.063 127.73 127.063 126.585C127.063 126.564 127.067 126.544 127.071 126.523V120.917H164.487V126.51C164.495 126.535 164.499 126.56 164.499 126.585Z" fill="#AF8E2F"/>
<path d="M145.781 123.042C156.119 123.042 164.499 122.113 164.499 120.967C164.499 119.821 156.119 118.892 145.781 118.892C135.443 118.892 127.063 119.821 127.063 120.967C127.063 122.113 135.443 123.042 145.781 123.042Z" fill="#FFD325"/>
<path d="M160.076 119.817C160.076 120.962 151.693 121.892 141.358 121.892C131.023 121.892 122.64 120.962 122.64 119.817C122.64 119.796 122.644 119.775 122.648 119.755V114.149H160.064V119.742C160.072 119.767 160.076 119.792 160.076 119.817Z" fill="#AF8E2F"/>
<path d="M141.358 116.279C151.696 116.279 160.076 115.35 160.076 114.203C160.076 113.057 151.696 112.128 141.358 112.128C131.02 112.128 122.64 113.057 122.64 114.203C122.64 115.35 131.02 116.279 141.358 116.279Z" fill="#FFD325"/>
<path d="M166.71 113.054C166.71 114.199 158.327 115.129 147.992 115.129C137.657 115.129 129.274 114.199 129.274 113.054C129.274 113.033 129.278 113.013 129.282 112.992V107.386H166.698V112.98C166.706 113.004 166.71 113.029 166.71 113.054Z" fill="#AF8E2F"/>
<path d="M147.992 109.511C158.33 109.511 166.71 108.582 166.71 107.436C166.71 106.29 158.33 105.361 147.992 105.361C137.655 105.361 129.274 106.29 129.274 107.436C129.274 108.582 137.655 109.511 147.992 109.511Z" fill="#FFD325"/>
<path d="M163.241 107.436C163.241 108.205 156.413 108.829 147.996 108.829C139.58 108.829 132.752 108.205 132.752 107.436C132.752 106.667 139.58 106.042 147.996 106.042C156.413 106.042 163.241 106.667 163.241 107.436Z" fill="#AF8E2F"/>
<path d="M116.882 86.1464H42.6819C40.8644 86.1464 39.3911 87.6227 39.3911 89.4439V140.061C39.3911 141.882 40.8644 143.359 42.6819 143.359H116.882C118.7 143.359 120.173 141.882 120.173 140.061V89.4439C120.173 87.6227 118.7 86.1464 116.882 86.1464Z" fill="#1D478E"/>
<path d="M117.722 93.2304V138.568C117.722 140.486 116.17 142.044 114.253 142.044H109.018V92.6954H43.8471C43.0379 92.6954 42.3831 92.0392 42.3831 91.2283C42.3831 90.4174 43.0379 89.7612 43.8471 89.7612H114.253C116.167 89.7612 117.722 91.3158 117.722 93.2371V93.2304Z" fill="#161742"/>
<path d="M64.193 69.7104C55.6975 69.4783 48.6257 76.1911 48.3906 84.7075C48.1589 93.2205 54.858 100.31 63.3569 100.542C71.8525 100.775 78.9277 94.0618 79.1594 85.5454C79.3911 77.0323 72.692 69.946 64.193 69.7104ZM76.1574 85.4612C76.0667 88.7756 74.6933 91.8544 72.289 94.1358C69.8881 96.4171 66.7451 97.6251 63.4375 97.5343C56.6108 97.3458 51.2079 91.6323 51.3926 84.7883C51.4833 81.4739 52.8533 78.3951 55.2576 76.1137C57.5746 73.9131 60.5833 72.7119 63.7666 72.7119C63.8841 72.7119 63.9949 72.7119 64.1125 72.7186C70.8283 72.9003 76.1607 78.4355 76.1607 85.1214C76.1607 85.2358 76.1607 85.3468 76.1607 85.4612H76.1574Z" fill="#FFD325"/>
<path d="M73.3603 77.2635C73.4308 77.3509 73.5046 77.4384 73.5718 77.5293C75.5933 80.1505 76.4764 83.4076 76.0567 86.6985C75.6369 89.9859 73.968 92.9133 71.3488 94.9423C65.9459 99.1282 58.1522 98.1288 53.9749 92.7114C51.9534 90.0902 51.0669 86.8364 51.4866 83.5456C51.893 80.3726 53.4645 77.5326 55.9258 75.5171C56.0165 75.4431 56.1038 75.3758 56.1978 75.3018C61.5135 71.1832 69.136 72.085 73.3636 77.2635H73.3603Z" fill="#AF8E2F"/>
<path d="M68.3226 83.196C68.2652 83.1386 68.1957 83.1054 68.1052 83.1025L66.4688 83.0496C66.3777 82.5174 66.1901 82.0487 65.8999 81.6497L68.131 81.7232C68.2216 81.7231 68.294 81.6988 68.3543 81.6443C68.4147 81.5868 68.4448 81.5172 68.4477 81.4265L68.48 80.4495C68.4829 80.3587 68.4557 80.2862 68.4013 80.2257C68.3438 80.1653 68.2714 80.1351 68.1838 80.1322L60.2195 79.8737C60.1319 79.8708 60.0565 79.8951 59.9962 79.9526C59.9389 80.0071 59.9057 80.0797 59.9028 80.1704L59.8618 81.4469C59.8588 81.5286 59.8861 81.6042 59.9465 81.6646C60.0039 81.7281 60.0764 81.7613 60.1579 81.7612L61.5467 81.8052C62.8932 81.8493 63.7359 82.2386 64.0777 82.9733L60.1227 82.8441C60.0352 82.8442 59.9597 82.8684 59.8994 82.9229C59.8391 82.9774 59.809 83.05 59.806 83.1408L59.7738 84.1178C59.7739 84.2085 59.7981 84.2811 59.8525 84.3416C59.9069 84.402 59.9794 84.4322 60.0699 84.4351L64.1578 84.5703C63.9983 85.0907 63.6575 85.4782 63.1355 85.7358C62.6134 85.9934 61.9312 86.109 61.0889 86.0796L60.0171 86.0443C59.9326 86.0444 59.8602 86.0717 59.7968 86.1292C59.7335 86.1898 59.7004 86.2594 59.6974 86.341L59.6563 87.56C59.6534 87.6447 59.6806 87.7143 59.735 87.7747C60.9198 89.1195 62.4462 90.9964 64.3233 93.4083C64.3777 93.4869 64.4562 93.5261 64.5589 93.5321L66.4247 93.5938C66.5575 93.5997 66.6541 93.5451 66.7083 93.4302C66.7746 93.3152 66.7685 93.2063 66.6808 93.1005C64.8943 90.749 63.4828 88.99 62.4552 87.8144C63.5449 87.7226 64.4352 87.3981 65.1321 86.8469C65.8289 86.2927 66.2629 85.5603 66.4402 84.6437L68.0493 84.6966C68.1369 84.6965 68.2123 84.6722 68.2696 84.6177C68.33 84.5632 68.3601 84.4906 68.363 84.3998L68.3953 83.4228C68.3952 83.3321 68.371 83.2595 68.3166 83.1991L68.3226 83.196Z" fill="#DCB414"/>
<path d="M105.669 86.2503C105.74 86.3378 105.814 86.4252 105.881 86.5161C107.902 89.1373 108.785 92.3945 108.366 95.6853C107.946 98.9727 106.277 101.9 103.658 103.929C98.255 108.115 90.4612 107.116 86.284 101.698C84.2625 99.077 83.376 95.8232 83.7957 92.5324C84.202 89.3594 85.7736 86.5195 88.2349 84.5039C88.3256 84.4299 88.4129 84.3626 88.5069 84.2886C93.8225 80.17 101.445 81.0718 105.673 86.2503H105.669Z" fill="#AF8E2F"/>
<path d="M100.638 89.6448C100.58 89.5874 100.511 89.5542 100.42 89.5512L98.784 89.4984C98.6929 88.9661 98.5053 88.4975 98.2151 88.0985L100.446 88.1719C100.537 88.1718 100.609 88.1476 100.67 88.0931C100.73 88.0355 100.76 87.9659 100.763 87.8752L100.795 86.8982C100.798 86.8075 100.771 86.7349 100.716 86.6744C100.659 86.614 100.587 86.5838 100.499 86.5809L92.5347 86.3225C92.4471 86.3195 92.3717 86.3438 92.3114 86.4013C92.254 86.4558 92.2209 86.5284 92.218 86.6192L92.1769 87.8956C92.174 87.9773 92.2012 88.0529 92.2617 88.1133C92.3191 88.1768 92.3916 88.21 92.4731 88.2099L93.8619 88.2539C95.2084 88.298 96.0511 88.6874 96.3929 89.422L92.4379 89.2928C92.3504 89.2929 92.2749 89.3172 92.2146 89.3717C92.1543 89.4262 92.1241 89.4988 92.1212 89.5895L92.0889 90.5665C92.089 90.6573 92.1133 90.7298 92.1677 90.7903C92.2221 90.8507 92.2945 90.8809 92.3851 90.8838L96.4729 91.019C96.3134 91.5394 95.9727 91.9269 95.4506 92.1845C94.9286 92.4421 94.2464 92.5577 93.4041 92.5283L92.3323 92.493C92.2478 92.4931 92.1754 92.5204 92.112 92.5779C92.0487 92.6385 92.0155 92.7081 92.0126 92.7898L91.9715 94.0087C91.9686 94.0934 91.9958 94.163 92.0502 94.2234C93.2349 95.5683 94.7614 97.4451 96.6385 99.857C96.6929 99.9356 96.7714 99.9748 96.8741 99.9808L98.7399 100.042C98.8727 100.048 98.9693 99.9939 99.0235 99.8789C99.0898 99.7639 99.0836 99.655 98.996 99.5492C97.2095 97.1977 95.7979 95.4387 94.7704 94.2631C95.8601 94.1713 96.7504 93.8468 97.4473 93.2956C98.1441 92.7415 98.5781 92.0091 98.7554 91.0924L100.365 91.1453C100.452 91.1452 100.528 91.1209 100.585 91.0664C100.645 91.0119 100.675 90.9393 100.678 90.8486L100.71 89.8716C100.71 89.7808 100.686 89.7082 100.632 89.6478L100.638 89.6448Z" fill="#DCB414"/>
<path d="M99.9741 79.1877C91.7539 77.0308 83.3423 81.9603 81.1898 90.2008C79.0374 98.4379 83.9568 106.867 92.1804 109.024C100.401 111.181 108.812 106.251 110.965 98.0106C113.117 89.7735 108.198 81.3446 99.9741 79.1877ZM108.063 97.2501C107.224 100.457 105.192 103.145 102.335 104.818C99.4805 106.493 96.1461 106.954 92.9426 106.113C86.3376 104.38 82.3685 97.5833 84.0978 90.9613C84.9373 87.7546 86.9655 85.0661 89.8231 83.3904C92.5766 81.7753 95.7801 81.2907 98.8794 82.0108C98.9936 82.0377 99.1011 82.0646 99.2152 82.0949C105.716 83.7975 109.658 90.3993 108.144 96.9137C108.117 97.0247 108.094 97.1324 108.063 97.2434V97.2501Z" fill="#FFD325"/>
<path d="M111.718 91.6079H42.5812C40.8193 91.6079 39.3911 93.0391 39.3911 94.8045V144.9C39.3911 146.666 40.8193 148.097 42.5812 148.097H111.718C113.48 148.097 114.908 146.666 114.908 144.9V94.8045C114.908 93.0391 113.48 91.6079 111.718 91.6079Z" fill="#1D478E"/>
<path d="M68.2224 145.873H45.5093C43.8001 145.873 42.4099 144.48 42.4099 142.767V138.386H42.7692V142.767C42.7692 144.281 43.9982 145.513 45.5093 145.513H68.2224V145.873Z" fill="#161742"/>
<path d="M111.889 102.971H111.53V96.9309C111.53 95.4168 110.301 94.1852 108.79 94.1852H79.1323V93.8252H108.79C110.499 93.8252 111.889 95.2182 111.889 96.9309V102.971Z" fill="#161742"/>
<path d="M42.769 125.071H42.4099V133.598H42.769V125.071Z" fill="#161742"/>
<path d="M120.079 108.25V124.213C120.079 126.218 118.46 127.843 116.456 127.843H102.675C98.2691 127.843 94.6963 124.263 94.6963 119.849C94.6963 117.641 95.5895 115.643 97.0334 114.196C98.4773 112.749 100.472 111.854 102.675 111.854H116.456C116.556 111.854 116.657 111.857 116.758 111.867C118.618 111.712 120.076 110.151 120.076 108.25H120.079Z" fill="#161742"/>
<path d="M104.579 122.492C106.033 121.035 106.033 118.671 104.579 117.214C103.125 115.756 100.768 115.756 99.314 117.214C97.86 118.671 97.86 121.035 99.314 122.492C100.768 123.95 103.125 123.95 104.579 122.492Z" fill="white"/>
<path d="M39.3569 118.893C31.1333 121.037 26.1971 129.456 28.3361 137.699C30.4751 145.94 38.8767 150.89 47.1036 148.743C55.3272 146.599 60.2667 138.181 58.1244 129.937C55.9854 121.696 47.5838 116.75 39.3569 118.893ZM55.2198 130.694C56.0525 133.9 55.5858 137.245 53.9102 140.102C52.2346 142.962 49.5516 144.994 46.3481 145.829C39.7397 147.548 32.9634 143.564 31.2441 136.939C30.4113 133.732 30.8747 130.391 32.5503 127.531C34.1655 124.772 36.7242 122.78 39.78 121.895C39.8908 121.861 40.0016 121.834 40.1124 121.804C46.6134 120.108 53.2722 123.941 55.1257 130.364C55.156 130.472 55.1895 130.583 55.2164 130.69L55.2198 130.694Z" fill="#FFD325"/>
<path d="M55.129 130.367C55.1592 130.475 55.1928 130.586 55.2196 130.693C56.0524 133.9 55.5856 137.245 53.91 140.102C52.2344 142.962 49.5514 144.994 46.348 145.829C39.7395 147.548 32.9632 143.564 31.244 136.939C30.4112 133.732 30.8746 130.391 32.5502 127.531C34.1654 124.771 36.7241 122.779 39.7798 121.894C39.8906 121.861 40.0015 121.834 40.1123 121.804C46.6132 120.108 53.272 123.94 55.1256 130.364L55.129 130.367Z" fill="#AF8E2F"/>
<path d="M54.0923 123.885C54.7538 124.222 55.2071 124.737 55.5194 125.386C55.8317 124.74 56.285 124.222 56.9465 123.885C56.285 123.549 55.8283 123.034 55.5194 122.385C55.2071 123.031 54.7538 123.549 54.0923 123.885Z" fill="#FFF3EB"/>
<path d="M75.7815 91.7575C76.9198 92.3363 77.7022 93.2246 78.2361 94.3384C78.7701 93.2246 79.5558 92.3329 80.6942 91.7542C79.5558 91.1754 78.7701 90.2871 78.2361 89.1733C77.7022 90.2871 76.9198 91.1788 75.7815 91.7575Z" fill="#FFF3EB"/>
<path d="M100.895 82.6575C101.557 82.9939 102.01 83.5088 102.322 84.1582C102.634 83.5121 103.088 82.9939 103.749 82.6575C103.088 82.321 102.631 81.8062 102.322 81.1567C102.01 81.8028 101.557 82.321 100.895 82.6575Z" fill="#FFF3EB"/>
<path d="M47.1217 131.81C47.0643 131.753 46.9948 131.72 46.9042 131.717L45.2679 131.664C45.1768 131.132 44.9892 130.663 44.699 130.264L46.9301 130.337C47.0206 130.337 47.0931 130.313 47.1534 130.259C47.2137 130.201 47.2438 130.131 47.2468 130.041L47.279 129.064C47.282 128.973 47.2547 128.9 47.2003 128.84C47.1429 128.78 47.0704 128.749 46.9829 128.746L39.0186 128.488C38.931 128.485 38.8556 128.509 38.7952 128.567C38.7379 128.621 38.7048 128.694 38.7019 128.785L38.6608 130.061C38.6579 130.143 38.6851 130.218 38.7456 130.279C38.803 130.342 38.8755 130.376 38.957 130.375L40.3458 130.419C41.6923 130.464 42.5349 130.853 42.8768 131.588L38.9218 131.458C38.8343 131.458 38.7588 131.483 38.6985 131.537C38.6381 131.592 38.608 131.664 38.6051 131.755L38.5728 132.732C38.5729 132.823 38.5971 132.895 38.6515 132.956C38.7059 133.016 38.7784 133.046 38.869 133.049L42.9568 133.185C42.7973 133.705 42.4566 134.092 41.9345 134.35C41.4125 134.608 40.7303 134.723 39.888 134.694L38.8162 134.659C38.7317 134.659 38.6593 134.686 38.5959 134.743C38.5326 134.804 38.4994 134.874 38.4965 134.955L38.4554 136.174C38.4525 136.259 38.4797 136.329 38.5341 136.389C39.7188 137.734 41.2452 139.611 43.1224 142.023C43.1768 142.101 43.2553 142.14 43.358 142.146L45.2237 142.208C45.3566 142.214 45.4531 142.159 45.5074 142.044C45.5737 141.929 45.5675 141.821 45.4799 141.715C43.6934 139.363 42.2818 137.604 41.2542 136.429C42.344 136.337 43.2343 136.012 43.9311 135.461C44.628 134.907 45.062 134.175 45.2392 133.258L46.8484 133.311C46.936 133.311 47.0114 133.286 47.0687 133.232C47.129 133.177 47.1592 133.105 47.1621 133.014L47.1944 132.037C47.1943 131.946 47.1701 131.874 47.1157 131.813L47.1217 131.81Z" fill="#DCB414"/>
<path d="M225.013 136.267C225.436 136.426 225.897 136.418 226.551 136.238C227.545 135.965 228.509 135.534 229.386 134.922C231.964 133.126 233.867 129.67 233.897 126.114C233.914 123.991 233.796 121.792 234.496 119.81C235.515 116.925 238.068 115.04 239.419 112.326C240.312 110.537 240.601 108.409 240.307 106.403C239.997 104.275 239.037 102.742 239.045 100.518C239.058 97.067 240.66 93.9005 242.106 90.8387C243.557 87.777 244.932 84.4094 244.462 81C241.259 81.934 238.064 84.2963 235.909 87.2953C233.767 90.2775 233.457 94.5665 231.293 97.5319C228.899 100.807 224.908 102.864 223.835 106.902C223.067 109.792 224.191 112.69 222.895 115.413C222.375 116.51 221.696 117.494 221.147 118.571C219.659 121.503 219.214 125.13 219.931 128.43C220.51 131.082 221.835 133.498 223.633 135.249C224.166 135.769 224.564 136.112 225.008 136.275L225.013 136.267Z" fill="#207739"/>
<path d="M224.408 126.909C228.951 123.095 231.471 117.361 232.867 111.601C234.267 105.838 234.698 99.8828 235.912 94.0792" stroke="#161742" stroke-width="0.4" stroke-linecap="round" stroke-linejoin="round"/>
<path d="M227.835 134.956C227.394 135.094 226.916 135.086 226.237 134.923C225.206 134.68 224.212 134.29 223.302 133.741C220.636 132.133 218.682 129.054 218.674 125.901C218.665 124.016 218.804 122.064 218.091 120.305C217.051 117.737 214.414 116.049 213.026 113.637C212.112 112.045 211.823 110.156 212.142 108.372C212.477 106.483 213.479 105.13 213.483 103.153C213.487 100.087 211.848 97.2681 210.364 94.5456C208.88 91.8231 207.471 88.8241 207.978 85.8C211.299 86.6461 214.598 88.7613 216.816 91.4335C219.022 94.0932 219.315 97.9006 221.546 100.543C224.007 103.463 228.141 105.306 229.231 108.9C230.011 111.471 228.824 114.035 230.153 116.456C230.69 117.431 231.386 118.307 231.948 119.266C233.474 121.875 233.914 125.096 233.151 128.024C232.535 130.378 231.147 132.514 229.268 134.056C228.711 134.512 228.296 134.818 227.835 134.96V134.956Z" fill="#32B353"/>
<path d="M224.025 133.09C225.834 127.444 224.907 121.25 223.015 115.633C221.124 110.011 218.312 104.743 216.243 99.1861" stroke="#161742" stroke-width="0.4" stroke-linecap="round" stroke-linejoin="round"/>
<path d="M222.128 122.83C220.753 121.641 219.164 120.74 217.714 119.647C216.427 118.675 215.441 117.444 214.255 116.376C212.167 114.5 210.989 111.3 207.949 110.709C206.695 110.466 205.408 110.763 204.134 110.893C202.67 111.044 201.182 110.969 199.74 110.68C198.78 110.487 196.734 109.331 195.925 109.628C196.876 110.571 197.535 111.555 198.008 112.828C198.537 114.248 198.973 115.785 200.079 116.82C201.014 117.695 202.285 118.076 203.48 118.541C206.259 119.618 206.905 121.75 207.924 124.359C208.326 125.394 208.821 126.554 209.714 127.262C210.699 128.041 212.003 127.748 212.984 128.393C213.714 128.874 213.844 129.7 214.225 130.433C214.796 131.534 215.592 132.443 216.653 133.101C218.066 133.976 219.726 134.37 221.374 134.587C223.252 134.835 225.164 135.002 227.046 135.09C226.824 133.427 226.652 131.635 226.179 130.018C225.65 128.208 224.891 126.445 223.894 124.841C223.424 124.087 222.812 123.434 222.124 122.835L222.128 122.83Z" fill="#207739"/>
<path d="M228.843 140.352C227.578 134.56 223.671 129.663 219.218 125.747C214.763 121.827 209.688 118.674 205.112 114.899" stroke="#161742" stroke-width="0.4" stroke-linecap="round" stroke-linejoin="round"/>
<path d="M228.493 122.868C229.78 121.582 231.306 120.577 232.673 119.383C233.889 118.323 234.786 117.029 235.897 115.877C237.847 113.859 238.803 110.583 241.792 109.787C243.029 109.456 244.333 109.662 245.611 109.704C247.083 109.754 248.559 109.574 249.98 109.184C250.924 108.924 252.881 107.626 253.712 107.869C252.827 108.874 252.24 109.9 251.854 111.207C251.427 112.661 251.1 114.223 250.068 115.333C249.196 116.271 247.955 116.74 246.798 117.285C244.102 118.554 243.603 120.723 242.773 123.396C242.442 124.455 242.031 125.645 241.188 126.416C240.262 127.257 238.941 127.056 238.006 127.773C237.31 128.305 237.239 129.134 236.912 129.892C236.421 131.031 235.687 131.995 234.673 132.723C233.323 133.695 231.696 134.206 230.065 134.537C228.208 134.914 226.313 135.216 224.443 135.433C224.548 133.758 224.594 131.961 224.954 130.315C225.357 128.472 225.99 126.663 226.87 124.991C227.285 124.204 227.851 123.513 228.497 122.868H228.493Z" fill="#0B531F"/>
<path d="M225.7 133.541C229.495 131.815 232.283 128.408 234.316 124.772C236.351 121.134 237.767 117.184 239.684 113.484" stroke="#161742" stroke-width="0.4" stroke-linecap="round" stroke-linejoin="round"/>
<path d="M233.906 137.641L233.801 138.215L231.843 149.075H218.309L216.347 138.215L216.246 137.641H233.906Z" fill="#1D478E"/>
<path d="M235.557 133.264H214.59V137.641H235.557V133.264Z" fill="#1D478E"/>
<path d="M233.906 137.641L233.801 138.215H216.347L216.246 137.641H233.906Z" fill="#5BC4F0"/>
</svg>
