<svg width="16" height="16" viewBox="0 0 16 16" fill="none" xmlns="http://www.w3.org/2000/svg">
<mask id="mask0_3979_8663" style="mask-type:alpha" maskUnits="userSpaceOnUse" x="0" y="0" width="16" height="17">
<rect y="0.000183105" width="16" height="16" fill="#D9D9D9"/>
</mask>
<g mask="url(#mask0_3979_8663)">
<path d="M8.0005 11.0002C8.09506 11.0002 8.17417 10.9682 8.23783 10.9044C8.3015 10.8405 8.33333 10.7613 8.33333 10.6669V7.66685C8.33333 7.57241 8.30133 7.49324 8.23733 7.42935C8.17333 7.36546 8.09406 7.33352 7.9995 7.33352C7.90494 7.33352 7.82583 7.36546 7.76217 7.42935C7.6985 7.49324 7.66667 7.57241 7.66667 7.66685V10.6669C7.66667 10.7613 7.69867 10.8405 7.76267 10.9044C7.82667 10.9682 7.90594 11.0002 8.0005 11.0002ZM8 6.38485C8.11622 6.38485 8.21367 6.34552 8.29233 6.26685C8.371 6.18818 8.41033 6.09074 8.41033 5.97452C8.41033 5.85829 8.371 5.76085 8.29233 5.68218C8.21367 5.60363 8.11622 5.56435 8 5.56435C7.88378 5.56435 7.78633 5.60363 7.70767 5.68218C7.629 5.76085 7.58967 5.85829 7.58967 5.97452C7.58967 6.09074 7.629 6.18818 7.70767 6.26685C7.78633 6.34552 7.88378 6.38485 8 6.38485ZM8.00217 14.0002C7.1725 14.0002 6.39244 13.8427 5.662 13.5279C4.93167 13.213 4.29633 12.7856 3.756 12.2458C3.21567 11.7061 2.78794 11.0713 2.47283 10.3415C2.15761 9.61185 2 8.83213 2 8.00235C2 7.17268 2.15744 6.39263 2.47233 5.66218C2.78722 4.93185 3.21456 4.29652 3.75433 3.75618C4.29411 3.21585 4.92889 2.78813 5.65867 2.47302C6.38833 2.15779 7.16806 2.00018 7.99783 2.00018C8.8275 2.00018 9.60756 2.15763 10.338 2.47252C11.0683 2.78741 11.7037 3.21474 12.244 3.75452C12.7843 4.29429 13.2121 4.92907 13.5272 5.65885C13.8424 6.38852 14 7.16824 14 7.99802C14 8.82768 13.8426 9.60774 13.5277 10.3382C13.2128 11.0685 12.7854 11.7038 12.2457 12.2442C11.7059 12.7845 11.0711 13.2122 10.3413 13.5274C9.61167 13.8426 8.83194 14.0002 8.00217 14.0002ZM8 13.3335C9.48889 13.3335 10.75 12.8169 11.7833 11.7835C12.8167 10.7502 13.3333 9.48907 13.3333 8.00018C13.3333 6.51129 12.8167 5.25018 11.7833 4.21685C10.75 3.18352 9.48889 2.66685 8 2.66685C6.51111 2.66685 5.25 3.18352 4.21667 4.21685C3.18333 5.25018 2.66667 6.51129 2.66667 8.00018C2.66667 9.48907 3.18333 10.7502 4.21667 11.7835C5.25 12.8169 6.51111 13.3335 8 13.3335Z" fill="#1D478E"/>
</g>
</svg>
