<svg width="16" height="16" viewBox="0 0 16 16" fill="none" xmlns="http://www.w3.org/2000/svg">
<mask id="mask0_3632_7964" style="mask-type:alpha" maskUnits="userSpaceOnUse" x="0" y="0" width="16" height="16">
<rect width="16" height="16" fill="#D9D9D9"/>
</mask>
<g mask="url(#mask0_3632_7964)">
<path d="M3.74375 14C3.44541 14 3.1913 13.8951 2.98141 13.6853C2.77164 13.4754 2.66675 13.2213 2.66675 12.923V5.74367C2.66675 5.44533 2.77164 5.19122 2.98141 4.98133C3.1913 4.77156 3.44541 4.66667 3.74375 4.66667H5.33341C5.33341 3.92389 5.59219 3.29378 6.10975 2.77633C6.62719 2.25878 7.2573 2 8.00008 2C8.74286 2 9.37297 2.25878 9.89041 2.77633C10.408 3.29378 10.6667 3.92389 10.6667 4.66667H12.2564C12.5547 4.66667 12.8089 4.77156 13.0187 4.98133C13.2285 5.19122 13.3334 5.44533 13.3334 5.74367V12.923C13.3334 13.2213 13.2285 13.4754 13.0187 13.6853C12.8089 13.8951 12.5547 14 12.2564 14H3.74375ZM3.74375 13.3333H12.2564C12.3591 13.3333 12.4531 13.2906 12.5386 13.2052C12.624 13.1197 12.6667 13.0257 12.6667 12.923V5.74367C12.6667 5.641 12.624 5.54694 12.5386 5.4615C12.4531 5.37606 12.3591 5.33333 12.2564 5.33333H3.74375C3.64108 5.33333 3.54703 5.37606 3.46158 5.4615C3.37614 5.54694 3.33341 5.641 3.33341 5.74367V12.923C3.33341 13.0257 3.37614 13.1197 3.46158 13.2052C3.54703 13.2906 3.64108 13.3333 3.74375 13.3333ZM6.00008 4.66667H10.0001C10.0001 4.11111 9.80564 3.63889 9.41675 3.25C9.02786 2.86111 8.55564 2.66667 8.00008 2.66667C7.44453 2.66667 6.9723 2.86111 6.58341 3.25C6.19453 3.63889 6.00008 4.11111 6.00008 4.66667ZM7.99625 8.66667C8.68169 8.66667 9.29153 8.42861 9.82575 7.9525C10.36 7.4765 10.6257 6.9295 10.6231 6.3115C10.6231 6.22517 10.5919 6.15167 10.5296 6.091C10.4671 6.03033 10.3885 6 10.2937 6C10.2151 6 10.1445 6.03078 10.0821 6.09233C10.0197 6.15389 9.97786 6.22911 9.95642 6.318C9.88553 6.8 9.66375 7.20083 9.29108 7.5205C8.91842 7.84017 8.4868 8 7.99625 8C7.50569 8 7.07341 7.84017 6.69941 7.5205C6.32553 7.20083 6.10436 6.8 6.03591 6.318C6.01458 6.22656 5.97403 6.15067 5.91425 6.09033C5.85436 6.03011 5.78508 6 5.70641 6C5.61164 6 5.53241 6.03033 5.46875 6.091C5.40497 6.15167 5.37308 6.22517 5.37308 6.3115C5.37308 6.9295 5.63891 7.4765 6.17058 7.9525C6.70225 8.42861 7.3108 8.66667 7.99625 8.66667Z" fill="#1D478E"/>
</g>
</svg>
