<svg width="40" height="40" viewBox="0 0 40 40" fill="none" xmlns="http://www.w3.org/2000/svg">
<circle opacity="0.2" cx="20" cy="20" r="20" fill="url(#paint0_linear_1_1794)"/>
<path d="M29.1753 16.9873C29.1682 16.9469 29.1532 16.9082 29.1311 16.8735C29.1091 16.8389 29.0804 16.8089 29.0468 16.7854C29.0131 16.7618 28.9752 16.7451 28.9351 16.7362C28.895 16.7273 28.8535 16.7264 28.8131 16.7336L27.2751 17.0045C27.2346 17.0116 27.1959 17.0266 27.1612 17.0487C27.1265 17.0707 27.0966 17.0994 27.073 17.1331C27.0494 17.1668 27.0327 17.2048 27.0239 17.2449C27.015 17.2851 27.0141 17.3265 27.0213 17.367L27.0882 17.7455L26.2132 17.8983L25.6867 17.8176V13.1876C25.6867 12.856 25.555 12.5381 25.3206 12.3037C25.0862 12.0692 24.7683 11.9375 24.4368 11.9375H22.2494V11.3125C22.2494 11.0639 22.1507 10.8254 21.9748 10.6496C21.799 10.4738 21.5606 10.375 21.312 10.375H19.4371C19.1885 10.375 18.95 10.4738 18.7742 10.6496C18.5984 10.8254 18.4996 11.0639 18.4996 11.3125V11.9375H16.3123C15.9808 11.9375 15.6629 12.0692 15.4284 12.3037C15.194 12.5381 15.0624 12.856 15.0624 13.1876V17.8186L14.5336 17.8995L13.6612 17.7458L13.7277 17.367C13.7349 17.3265 13.7341 17.2851 13.7252 17.2449C13.7163 17.2048 13.6997 17.1668 13.6761 17.1331C13.6525 17.0994 13.6225 17.0707 13.5879 17.0487C13.5532 17.0266 13.5145 17.0116 13.474 17.0045L11.9375 16.7336C11.8971 16.7264 11.8556 16.7272 11.8155 16.7361C11.7753 16.745 11.7373 16.7617 11.7037 16.7852C11.67 16.8088 11.6413 16.8388 11.6192 16.8735C11.5972 16.9081 11.5822 16.9468 11.5751 16.9873L10.3798 23.7571C10.3726 23.7976 10.3735 23.8391 10.3824 23.8792C10.3912 23.9194 10.4079 23.9574 10.4315 23.991C10.4551 24.0247 10.485 24.0534 10.5197 24.0755C10.5544 24.0975 10.5931 24.1126 10.6336 24.1196L12.1719 24.3906C12.2123 24.3977 12.2538 24.3968 12.2939 24.388C12.334 24.3791 12.3719 24.3624 12.4056 24.3388C12.4392 24.3152 12.4679 24.2853 12.4899 24.2506C12.512 24.216 12.527 24.1773 12.5341 24.1368L12.5625 23.969L12.8206 24.0146C13.0585 24.5387 13.4046 25.0064 13.8362 25.3872C13.8196 25.6693 13.9 25.9487 14.0639 26.179C14.2277 26.4093 14.4654 26.5767 14.7374 26.6535C14.5912 26.8963 14.5324 27.1818 14.5707 27.4626C14.609 27.7434 14.7422 28.0027 14.9481 28.1975C15.154 28.3922 15.4203 28.5108 15.7028 28.5334C15.9853 28.556 16.267 28.4814 16.5013 28.3219C16.5324 28.5294 16.6158 28.7256 16.7436 28.892C16.8714 29.0584 17.0395 29.1895 17.232 29.273C17.4245 29.3565 17.635 29.3896 17.8438 29.3693C18.0527 29.3489 18.2529 29.2757 18.4256 29.1566C18.4548 29.348 18.5286 29.5299 18.641 29.6875C18.7534 29.8452 18.9012 29.9743 19.0726 30.0643C19.244 30.1544 19.4341 30.2029 19.6277 30.206C19.8212 30.2092 20.0128 30.1668 20.187 30.0823V30.0841L20.312 30.1673C20.4489 30.2579 20.6023 30.3207 20.7635 30.352C20.9246 30.3834 21.0904 30.3826 21.2512 30.3499C21.4121 30.3172 21.565 30.2531 21.7011 30.1612C21.8372 30.0694 21.9538 29.9517 22.0444 29.8148C22.1812 29.6065 22.2512 29.3614 22.245 29.1122C22.3464 29.1399 22.4509 29.1544 22.556 29.1554C22.7211 29.1559 22.8847 29.1236 23.0372 29.0604C23.1898 28.9972 23.3283 28.9044 23.4447 28.7873C23.5611 28.6701 23.6531 28.5311 23.7154 28.3781C23.7776 28.2252 23.8089 28.0614 23.8074 27.8963C23.9069 27.9224 24.0093 27.9361 24.1121 27.9369C24.277 27.9369 24.4403 27.9043 24.5925 27.8409C24.7448 27.7775 24.883 27.6846 24.9992 27.5676C25.1154 27.4506 25.2072 27.3117 25.2695 27.159C25.3318 27.0063 25.3632 26.8427 25.362 26.6778C25.5525 26.7275 25.7521 26.731 25.9443 26.6882C26.1364 26.6453 26.3156 26.5573 26.4669 26.4315C26.6183 26.3056 26.7375 26.1455 26.8147 25.9644C26.8918 25.7832 26.9248 25.5864 26.9107 25.39C27.3427 25.0086 27.6888 24.54 27.9263 24.015L28.1866 23.9706L28.2159 24.1368C28.223 24.1773 28.238 24.216 28.2601 24.2507C28.2822 24.2854 28.3109 24.3154 28.3445 24.3389C28.3782 24.3625 28.4162 24.3792 28.4563 24.3881C28.4965 24.3969 28.5379 24.3978 28.5784 24.3906L30.1164 24.1196C30.1569 24.1126 30.1956 24.0975 30.2303 24.0755C30.265 24.0534 30.2949 24.0247 30.3185 23.991C30.3421 23.9574 30.3588 23.9194 30.3676 23.8792C30.3765 23.8391 30.3774 23.7976 30.3702 23.7571L29.1753 16.9873ZM19.1246 11.3125C19.1246 11.2296 19.1575 11.1501 19.2161 11.0915C19.2747 11.0329 19.3542 11 19.4371 11H21.312C21.3949 11 21.4743 11.0329 21.5329 11.0915C21.5915 11.1501 21.6245 11.2296 21.6245 11.3125V11.9375H19.1246V11.3125ZM15.6873 13.1876C15.6873 13.0218 15.7532 12.8628 15.8704 12.7456C15.9876 12.6284 16.1465 12.5625 16.3123 12.5625H24.4368C24.6025 12.5625 24.7615 12.6284 24.8787 12.7456C24.9959 12.8628 25.0617 13.0218 25.0617 13.1876V14.1251C25.0617 14.3737 24.963 14.6122 24.7872 14.788C24.6114 14.9638 24.3729 15.0626 24.1243 15.0626V14.7501C24.1243 14.6672 24.0914 14.5877 24.0328 14.5291C23.9742 14.4705 23.8947 14.4376 23.8118 14.4376H22.5619C22.479 14.4376 22.3995 14.4705 22.3409 14.5291C22.2823 14.5877 22.2494 14.6672 22.2494 14.7501V15.0626H18.4996V14.7501C18.4996 14.6672 18.4667 14.5877 18.4081 14.5291C18.3495 14.4705 18.27 14.4376 18.1872 14.4376H16.9372C16.8544 14.4376 16.7749 14.4705 16.7163 14.5291C16.6577 14.5877 16.6248 14.6672 16.6248 14.7501V15.0626C16.3761 15.0626 16.1377 14.9638 15.9619 14.788C15.7861 14.6122 15.6873 14.3737 15.6873 14.1251V13.1876ZM23.4993 15.0626V15.6876H22.8744V15.0626H23.4993ZM17.8747 15.0626V15.6876H17.2497V15.0626H17.8747ZM15.6873 15.367C15.9562 15.5738 16.2856 15.6865 16.6248 15.6876V16.0001C16.6248 16.083 16.6577 16.1625 16.7163 16.2211C16.7749 16.2797 16.8544 16.3126 16.9372 16.3126H18.1872C18.27 16.3126 18.3495 16.2797 18.4081 16.2211C18.4667 16.1625 18.4996 16.083 18.4996 16.0001V15.6876H22.2494V16.0001C22.2494 16.083 22.2823 16.1625 22.3409 16.2211C22.3995 16.2797 22.479 16.3126 22.5619 16.3126H23.8118C23.8947 16.3126 23.9742 16.2797 24.0328 16.2211C24.0914 16.1625 24.1243 16.083 24.1243 16.0001V15.6876C24.4635 15.6865 24.7929 15.5738 25.0617 15.367V17.722L22.6869 17.3589C22.1705 17.2811 21.6426 17.3481 21.162 17.5523L20.3745 17.888L19.5893 17.5533C19.1079 17.3481 18.5788 17.2813 18.0615 17.3605L15.6873 17.7233V15.367ZM11.9729 23.7212L11.0498 23.5581L12.1347 17.4017L13.0581 17.5645L11.9729 23.7212ZM14.603 25.8534C14.4965 25.7265 14.4448 25.5624 14.4592 25.3974C14.4736 25.2323 14.553 25.0797 14.6799 24.9731L15.877 23.969C16.004 23.8624 16.1681 23.8107 16.3332 23.8251C16.4983 23.8395 16.651 23.9189 16.7576 24.0459C16.8641 24.1729 16.9159 24.337 16.9015 24.5021C16.8871 24.6673 16.8077 24.82 16.6807 24.9265L15.4836 25.9312C15.4207 25.984 15.348 26.0238 15.2697 26.0484C15.1913 26.0731 15.1089 26.082 15.0272 26.0748C14.9454 26.0676 14.8659 26.0443 14.7931 26.0063C14.7203 25.9683 14.6557 25.9164 14.603 25.8534ZM16.2098 27.7688C16.1469 27.8216 16.0742 27.8614 15.9959 27.8861C15.9176 27.9108 15.8352 27.9198 15.7535 27.9127C15.6717 27.9055 15.5921 27.8823 15.5193 27.8444C15.4465 27.8065 15.3818 27.7546 15.3291 27.6918C15.2763 27.6289 15.2364 27.5562 15.2117 27.4779C15.187 27.3996 15.178 27.3172 15.1852 27.2354C15.1923 27.1536 15.2155 27.074 15.2534 27.0012C15.2913 26.9284 15.3432 26.8637 15.4061 26.811L16.8435 25.6056C16.9711 25.5057 17.1326 25.4593 17.2938 25.4762C17.455 25.4931 17.6034 25.5719 17.7075 25.6961C17.8117 25.8204 17.8635 25.9802 17.8521 26.1419C17.8407 26.3036 17.7669 26.4545 17.6463 26.5628L16.2098 27.7688ZM18.1331 28.6026C18.0702 28.6553 17.9976 28.6952 17.9193 28.7198C17.841 28.7445 17.7586 28.7535 17.6768 28.7463C17.5951 28.7392 17.5155 28.716 17.4427 28.6781C17.3699 28.6401 17.3053 28.5883 17.2525 28.5254C17.1998 28.4625 17.1599 28.3898 17.1353 28.3115C17.1106 28.2332 17.1016 28.1508 17.1088 28.0691C17.1159 27.9873 17.1391 27.9077 17.177 27.8349C17.2149 27.7621 17.2668 27.6975 17.3297 27.6447L18.2875 26.8413C18.4147 26.7368 18.5779 26.6868 18.7418 26.702C18.9057 26.7173 19.057 26.7965 19.1627 26.9226C19.2685 27.0487 19.3203 27.2114 19.3069 27.3755C19.2934 27.5395 19.2158 27.6916 19.0909 27.7988L18.1331 28.6026ZM20.0561 29.4379C19.9289 29.5429 19.7654 29.5934 19.6011 29.5784C19.4369 29.5634 19.2852 29.484 19.1792 29.3576C19.0732 29.2312 19.0215 29.068 19.0354 28.9036C19.0492 28.7392 19.1274 28.587 19.253 28.4801L20.2105 27.6766C20.2733 27.6238 20.346 27.5839 20.4243 27.5592C20.5025 27.5345 20.5849 27.5255 20.6667 27.5326C20.7485 27.5398 20.828 27.5629 20.9008 27.6008C20.9736 27.6387 21.0383 27.6906 21.0911 27.7535C21.1438 27.8164 21.1837 27.889 21.2083 27.9673C21.233 28.0456 21.242 28.128 21.2349 28.2098C21.2277 28.2916 21.2045 28.3711 21.1666 28.4439C21.1287 28.5167 21.0768 28.5814 21.0139 28.6341L20.0561 29.4379ZM21.5226 29.471C21.4398 29.5973 21.3136 29.6889 21.168 29.7286C21.0223 29.7683 20.8671 29.7534 20.7317 29.6866L21.4157 29.1129C21.4804 29.0588 21.5395 28.9983 21.592 28.9322C21.6215 29.0212 21.6307 29.1157 21.6186 29.2086C21.6066 29.3016 21.5738 29.3906 21.5226 29.4691V29.471ZM26.1907 25.8128C26.1454 25.8813 26.0871 25.9401 26.0191 25.986C25.951 26.032 25.8746 26.064 25.7942 26.0804C25.7137 26.0967 25.6308 26.0971 25.5503 26.0814C25.4697 26.0658 25.393 26.0344 25.3245 25.9891L22.7181 24.265C22.684 24.2402 22.6451 24.2226 22.604 24.2133C22.5628 24.2039 22.5202 24.203 22.4787 24.2106C22.4372 24.2181 22.3977 24.234 22.3625 24.2573C22.3273 24.2806 22.2971 24.3107 22.2739 24.346C22.2507 24.3812 22.2348 24.4208 22.2273 24.4623C22.2198 24.5038 22.2207 24.5464 22.2301 24.5876C22.2395 24.6287 22.2571 24.6675 22.2819 24.7017C22.3067 24.7358 22.3382 24.7646 22.3744 24.7862L24.4599 26.1666C24.5981 26.2582 24.6942 26.401 24.7271 26.5634C24.76 26.7259 24.727 26.8948 24.6354 27.033C24.5438 27.1712 24.401 27.2673 24.2385 27.3002C24.0761 27.3331 23.9072 27.3001 23.769 27.2085L21.6838 25.8284C21.6491 25.8052 21.61 25.7892 21.5688 25.7816C21.4979 25.7682 21.4245 25.7798 21.3611 25.8144C21.2977 25.8491 21.2483 25.9046 21.2213 25.9715C21.1942 26.0385 21.1911 26.1127 21.2126 26.1817C21.2341 26.2506 21.2788 26.31 21.3392 26.3497L22.9016 27.385C23.0389 27.477 23.1342 27.6196 23.1666 27.7816C23.1991 27.9436 23.1661 28.1119 23.0748 28.2497C22.9835 28.3874 22.8413 28.4834 22.6795 28.5166C22.5176 28.5498 22.3491 28.5176 22.211 28.4269L21.8548 28.1913C21.8634 27.962 21.8081 27.7348 21.6953 27.5351C21.5824 27.3353 21.4162 27.1708 21.2153 27.06C21.0145 26.9491 20.7868 26.8962 20.5576 26.9071C20.3284 26.918 20.1068 26.9924 19.9174 27.1219C19.8931 26.9594 19.8366 26.8034 19.7512 26.6631C19.6658 26.5228 19.5531 26.401 19.4199 26.3049C19.2867 26.2088 19.1356 26.1404 18.9755 26.1036C18.8154 26.0667 18.6496 26.0624 18.4878 26.0906C18.4932 25.7948 18.3915 25.507 18.2013 25.2804C18.0111 25.0538 17.7454 24.9037 17.4531 24.8578C17.5446 24.5998 17.5486 24.3188 17.4644 24.0583C17.3803 23.7978 17.2127 23.5723 16.9876 23.4165C16.7625 23.2608 16.4923 23.1835 16.2189 23.1966C15.9455 23.2097 15.684 23.3125 15.4748 23.489L14.2777 24.4937C14.194 24.5658 14.1204 24.6488 14.059 24.7406C13.7462 24.4182 13.4997 24.0375 13.3334 23.6203C13.3137 23.5706 13.2816 23.5269 13.2402 23.4932C13.1988 23.4595 13.1494 23.437 13.0968 23.4278L12.6716 23.3528L13.5518 18.3605L14.4749 18.5233C14.5085 18.5291 14.5428 18.5291 14.5764 18.5233L18.1559 17.9783C18.558 17.9166 18.9693 17.9686 19.3433 18.1283L19.5758 18.2273L18.3281 18.7586C18.0478 18.8785 17.8087 19.078 17.6406 19.3324L16.4648 21.1052C16.3287 21.3134 16.2804 21.567 16.3304 21.8106C16.3804 22.0543 16.5246 22.2683 16.7316 22.4062C17.0774 22.634 17.4993 22.7155 17.905 22.6327C18.3107 22.5499 18.667 22.3097 18.8959 21.9646L19.4324 21.1565L20.5733 20.923C20.6962 21.3022 20.9051 21.6478 21.1836 21.9329C21.4621 22.218 21.8027 22.435 22.1788 22.5668C22.3121 22.6143 22.4488 22.6516 22.5878 22.6784L26.0142 24.9472C26.1523 25.0386 26.2485 25.1811 26.2816 25.3434C26.3147 25.5058 26.282 25.6746 26.1907 25.8128ZM27.6516 23.4284C27.5988 23.4376 27.5492 23.4602 27.5077 23.4941C27.4662 23.528 27.434 23.5719 27.4144 23.6218C27.248 24.041 27.0006 24.4233 26.6863 24.7469C26.5983 24.6202 26.4874 24.5113 26.3592 24.4256L23.7031 22.6684C24.0482 22.5994 24.377 22.4651 24.6718 22.2727L25.1627 21.9509C25.232 21.9053 25.2803 21.834 25.2971 21.7528C25.3138 21.6716 25.2976 21.587 25.2521 21.5177C25.2065 21.4484 25.1352 21.4001 25.054 21.3833C24.9728 21.3666 24.8882 21.3828 24.819 21.4283L24.3296 21.7502C24.0466 21.9361 23.7242 22.0536 23.3879 22.0932C23.0516 22.1329 22.7107 22.0936 22.3922 21.9787C22.0991 21.8765 21.8343 21.7066 21.6194 21.4826C21.4045 21.2586 21.2457 20.987 21.1557 20.6899C21.1364 20.6274 21.1201 20.5608 21.1064 20.4949C21.0894 20.414 21.0412 20.3431 20.9721 20.2977C20.9031 20.2524 20.8189 20.2362 20.7379 20.2527L19.1815 20.5715C19.1005 20.588 19.0294 20.636 18.9837 20.7049L18.3778 21.6202C18.2404 21.8271 18.0267 21.9712 17.7834 22.0209C17.54 22.0706 17.2869 22.0219 17.0794 21.8855C17.0102 21.8394 16.9619 21.7678 16.945 21.6864C16.9282 21.6049 16.9441 21.52 16.9894 21.4502L18.1647 19.6777C18.2655 19.5255 18.4085 19.406 18.5762 19.3339L21.4076 18.1277C21.7819 17.9687 22.1929 17.9167 22.595 17.9773L26.1729 18.5242C26.2064 18.5294 26.2404 18.5294 26.2739 18.5242L27.1988 18.3623L28.0772 23.3546L27.6516 23.4284ZM28.7765 23.7206L27.6913 17.5642L28.6147 17.4014L29.6996 23.5578L28.7765 23.7206Z" fill="#1D478E"/>
<defs>
<linearGradient id="paint0_linear_1_1794" x1="0" y1="20" x2="40" y2="20" gradientUnits="userSpaceOnUse">
<stop stop-color="#8FD1EC"/>
<stop offset="1" stop-color="#229ACE"/>
</linearGradient>
</defs>
</svg>
