<svg width="40" height="40" viewBox="0 0 40 40" fill="none" xmlns="http://www.w3.org/2000/svg">
<circle opacity="0.2" cx="20" cy="20" r="20" fill="url(#paint0_linear_1_1780)"/>
<path d="M30 16.3939V15.1076C30 14.4974 29.4907 14 28.8661 14H13.887C13.2624 14 12.7531 14.4974 12.7531 15.1076V20.4277C11.1299 21.1816 10 22.7983 10 24.6675C10 27.2596 12.1564 29.3659 14.81 29.3659C17.2648 29.3659 19.2938 27.5549 19.5803 25.2349H28.8621C29.4868 25.2349 29.996 24.7374 29.996 24.1273V19.3551V16.3978L30 16.3939ZM29.3754 18.745H13.3778V17.004H29.3714V18.745H29.3754ZM13.3778 15.1076C13.3778 14.8316 13.6045 14.6101 13.887 14.6101H28.8661C29.1486 14.6101 29.3714 14.8316 29.3714 15.1076V16.3939H13.3778V15.1076ZM14.81 28.7518C12.5025 28.7518 10.6246 26.9176 10.6246 24.6636C10.6246 22.5651 12.2518 20.8319 14.3406 20.6065C14.3525 20.6065 14.3684 20.6026 14.3803 20.5987C14.5196 20.587 14.6628 20.5793 14.806 20.5793C17.1136 20.5793 18.9914 22.4135 18.9914 24.6675C18.9914 26.9215 17.1176 28.7518 14.81 28.7518ZM29.3754 24.1234C29.3754 24.3993 29.1486 24.6209 28.8701 24.6209H19.624C19.624 24.5431 19.6161 24.4732 19.6121 24.3955C19.6081 24.3177 19.6041 24.24 19.6002 24.1662C19.5922 24.0846 19.5763 24.0068 19.5644 23.9252C19.5524 23.8514 19.5445 23.7776 19.5285 23.7037C19.5126 23.626 19.4888 23.5483 19.4649 23.4744C19.445 23.4006 19.4291 23.3268 19.4052 23.2568C19.3813 23.183 19.3495 23.1091 19.3217 23.0392C19.2938 22.9692 19.2699 22.8993 19.2421 22.8293C19.2103 22.7594 19.1745 22.6894 19.1387 22.6234C19.1028 22.5573 19.075 22.4874 19.0392 22.4213C19.0034 22.3552 18.9596 22.2931 18.9198 22.227C18.88 22.1609 18.8403 22.0987 18.8005 22.0366C18.7567 21.9744 18.709 21.9161 18.6612 21.8539C18.6175 21.7917 18.5737 21.7334 18.522 21.6752C18.4703 21.6169 18.4185 21.5625 18.3668 21.508C18.3151 21.4536 18.2674 21.3954 18.2117 21.3448C18.156 21.2943 18.0963 21.2438 18.0406 21.1933C17.9849 21.1428 17.9292 21.0922 17.8735 21.0456C17.8138 20.9951 17.7501 20.9523 17.6865 20.9096C17.6228 20.8668 17.5671 20.8163 17.5035 20.7775C17.4358 20.7347 17.3682 20.6958 17.3006 20.657C17.2369 20.6181 17.1733 20.5793 17.1096 20.5443C17.038 20.5054 16.9624 20.4743 16.8908 20.4432C16.8232 20.4122 16.7595 20.3772 16.6919 20.35C16.6123 20.315 16.5327 20.2917 16.4492 20.2645C16.3815 20.2412 16.3179 20.214 16.2502 20.1945C16.1627 20.1673 16.0712 20.1479 15.9797 20.1285C15.9161 20.1129 15.8524 20.0935 15.7887 20.0818C15.6893 20.0624 15.5819 20.0507 15.4784 20.0352C15.4227 20.0274 15.367 20.0158 15.3113 20.0119C15.1522 19.9963 14.9851 19.9886 14.822 19.9886C14.6748 19.9886 14.5236 19.9963 14.3764 20.0119L14.261 20.0235C14.1456 20.0352 14.0342 20.0507 13.9188 20.0741C13.887 20.0818 13.8512 20.0857 13.8194 20.0935C13.6761 20.1207 13.5329 20.1596 13.3897 20.2023V19.3784H29.3833V24.139L29.3754 24.1234ZM25.6197 23.7776H27.6487C28.0028 23.7776 28.2892 23.4978 28.2892 23.1519V21.17C28.2892 20.8241 28.0028 20.5443 27.6487 20.5443H25.6197C25.2656 20.5443 24.9791 20.8241 24.9791 21.17V23.1519C24.9791 23.4939 25.2656 23.7776 25.6197 23.7776ZM25.6197 21.1544H27.6487L27.6646 21.17L27.6487 23.1674L25.6037 23.1519L25.6197 21.1544ZM17.3364 23.0936C17.4557 23.2102 17.4557 23.4045 17.3364 23.525L14.5594 26.2414C14.4957 26.3036 14.4162 26.3308 14.3366 26.3308C14.257 26.3308 14.1774 26.3036 14.1138 26.2414L12.2837 24.4538C12.1643 24.3372 12.1643 24.1429 12.2837 24.0224C12.403 23.9019 12.6019 23.9058 12.7253 24.0224L14.3326 25.5924L16.8908 23.0936C17.0141 22.977 17.2091 22.977 17.3324 23.0936H17.3364Z" fill="#1D478E"/>
<defs>
<linearGradient id="paint0_linear_1_1780" x1="0" y1="20" x2="40" y2="20" gradientUnits="userSpaceOnUse">
<stop stop-color="#8FD1EC"/>
<stop offset="1" stop-color="#229ACE"/>
</linearGradient>
</defs>
</svg>
