<svg width="81" height="63" viewBox="0 0 81 63" fill="none" xmlns="http://www.w3.org/2000/svg">
<g clip-path="url(#clip0_351_5931)">
<path d="M36.8637 53.89L36.9504 53.7105C24.9541 48.0671 22.814 43.3453 19.5753 36.1987C18.4283 33.668 17.131 30.8048 15.2147 27.479C20.0455 27.8509 24.3643 29.2429 28.0547 31.6178C31.0457 33.5427 33.634 36.1139 35.747 39.2607C39.348 44.6232 40.3315 49.8681 40.3412 49.9205L40.5381 49.884C40.5287 49.8312 39.5398 44.5523 35.9179 39.1563C33.79 35.9855 31.1826 33.3942 28.1684 31.4535C24.4007 29.028 19.9842 27.6195 15.0415 27.2673L14.8527 27.2536L14.9471 27.4161C16.9103 30.8033 18.2292 33.7136 19.3931 36.2813C22.6497 43.468 24.8015 48.2158 36.8642 53.8902L36.8637 53.89Z" fill="#1D478E"/>
<path d="M37.802 51.3787L37.9671 51.2649C37.8831 51.1449 29.509 39.17 22.4201 33.4252L22.2925 33.5794C29.3605 39.3068 37.7184 51.2586 37.802 51.3787Z" fill="#1D478E"/>
<path d="M27.6016 38.5917L27.7871 38.5155C27.7761 38.4892 26.7136 35.8569 27.1719 32.7761L26.974 32.7486C26.5077 35.8855 27.5907 38.5654 27.6018 38.5921L27.6016 38.5917Z" fill="#1D478E"/>
<path d="M31.5992 43.2419L31.6826 43.0612C28.9593 41.8372 26.125 42.1961 26.0969 42.1997L26.1224 42.3964C26.15 42.3926 28.9297 42.0423 31.5992 43.2419Z" fill="#1D478E"/>
<path d="M32.3328 62.0246L32.2828 61.8326C28.7605 62.7563 25.1697 61.5222 21.3058 58.06C17.8826 54.9925 14.6981 50.633 11.6185 46.4172C9.62204 43.684 7.73337 41.099 5.85114 38.952C16.5282 37.7535 23.4196 43.9262 23.4884 43.989L23.6246 43.8428C23.5545 43.7788 16.5183 37.4723 5.63907 38.7771L5.45002 38.7998L5.57505 38.9414C7.49283 41.1093 9.41793 43.7447 11.456 46.5349C14.5415 50.7588 17.7323 55.1264 21.171 58.2077C25.0888 61.7184 28.7399 62.9669 32.3325 62.0248L32.3328 62.0246Z" fill="#1D478E"/>
<path d="M31.4765 57.1482L31.6203 57.0096C31.5159 56.9031 21.1207 46.356 14.9594 44.45L14.8986 44.6394C17.4243 45.4207 21.0899 47.83 25.5001 51.6065C28.8372 54.4641 31.4503 57.122 31.4765 57.1482Z" fill="#1D478E"/>
<path d="M20.8686 47.8713L21.0407 47.7689C21.0327 47.7559 20.2375 46.4202 18.7209 43.0437L18.538 43.1257C20.0606 46.5152 20.8605 47.8583 20.8686 47.8713Z" fill="#1D478E"/>
<path d="M26.0661 52.0787L26.116 51.886C26.0836 51.878 22.8219 51.0821 19.1092 51.5759L19.1347 51.7727C22.8096 51.2836 26.034 52.0706 26.066 52.0783L26.0661 52.0787Z" fill="#1D478E"/>
</g>
<path d="M81.2882 13.8239C81.2882 21.4586 74.9443 27.6478 67.1187 27.6478C59.2931 27.6478 52.9492 21.4586 52.9492 13.8239C52.9492 6.18917 59.2931 0 67.1187 0C74.9443 0 81.2882 6.18917 81.2882 13.8239Z" fill="#5BC4F0" fill-opacity="0.1"/>
<path d="M55.1864 61.0804C55.1864 75.948 42.8325 88.0006 27.5932 88.0006C12.3539 88.0006 0 75.948 0 61.0804C0 46.2127 12.3539 34.1602 27.5932 34.1602C42.8325 34.1602 55.1864 46.2127 55.1864 61.0804Z" fill="#5BC4F0" fill-opacity="0.1"/>
<g clip-path="url(#clip1_351_5931)">
<path d="M61.7341 16.418H30.9302C29.8642 16.418 29 17.2839 29 18.3521V63.4702C29 64.5384 29.8642 65.4044 30.9302 65.4044H61.7341C62.8001 65.4044 63.6643 64.5384 63.6643 63.4702V18.3521C63.6643 17.2839 62.8001 16.418 61.7341 16.418Z" fill="#1D478E"/>
<path d="M52.441 18.5742H40.2231V20.6296H52.441V18.5742Z" fill="#5BC4F0" fill-opacity="0.5"/>
<path d="M60.2068 23.7617H32.458V29.9286H60.2068V23.7617Z" fill="#5BC4F0" fill-opacity="0.5"/>
<path d="M58.9927 24.6055H33.6724V29.0853H58.9927V24.6055Z" fill="#FFF3EB"/>
<path d="M52.9695 32.7891H51.0843C50.5184 32.7891 50.0596 33.2488 50.0596 33.816V34.2525C50.0596 34.8197 50.5184 35.2794 51.0843 35.2794H52.9695C53.5355 35.2794 53.9943 34.8197 53.9943 34.2525V33.816C53.9943 33.2488 53.5355 32.7891 52.9695 32.7891Z" fill="#5BC4F0" fill-opacity="0.5"/>
<path d="M59.1819 32.7891H57.2968C56.7308 32.7891 56.272 33.2488 56.272 33.816V34.2525C56.272 34.8197 56.7308 35.2794 57.2968 35.2794H59.1819C59.7479 35.2794 60.2067 34.8197 60.2067 34.2525V33.816C60.2067 33.2488 59.7479 32.7891 59.1819 32.7891Z" fill="#5BC4F0" fill-opacity="0.5"/>
<path d="M59.7183 38.2891H55.932C55.6624 38.2891 55.4438 38.5081 55.4438 38.7782V41.0512C55.4438 41.3214 55.6624 41.5404 55.932 41.5404H59.7183C59.9879 41.5404 60.2064 41.3214 60.2064 41.0512V38.7782C60.2064 38.5081 59.9879 38.2891 59.7183 38.2891Z" fill="#5BC4F0" fill-opacity="0.5"/>
<path d="M52.1197 38.2891H48.3333C48.0638 38.2891 47.8452 38.5081 47.8452 38.7782V41.0512C47.8452 41.3214 48.0638 41.5404 48.3333 41.5404H52.1197C52.3893 41.5404 52.6078 41.3214 52.6078 41.0512V38.7782C52.6078 38.5081 52.3893 38.2891 52.1197 38.2891Z" fill="#5BC4F0" fill-opacity="0.5"/>
<path d="M44.521 38.2891H40.7347C40.4651 38.2891 40.2466 38.5081 40.2466 38.7782V41.0512C40.2466 41.3214 40.4651 41.5404 40.7347 41.5404H44.521C44.7906 41.5404 45.0092 41.3214 45.0092 41.0512V38.7782C45.0092 38.5081 44.7906 38.2891 44.521 38.2891Z" fill="#5BC4F0" fill-opacity="0.5"/>
<path d="M36.9224 38.2891H33.1361C32.8665 38.2891 32.6479 38.5081 32.6479 38.7782V41.0512C32.6479 41.3214 32.8665 41.5404 33.1361 41.5404H36.9224C37.192 41.5404 37.4105 41.3214 37.4105 41.0512V38.7782C37.4105 38.5081 37.192 38.2891 36.9224 38.2891Z" fill="#5BC4F0" fill-opacity="0.5"/>
<path d="M59.7183 44.168H55.932C55.6624 44.168 55.4438 44.387 55.4438 44.6571V46.9301C55.4438 47.2003 55.6624 47.4193 55.932 47.4193H59.7183C59.9879 47.4193 60.2064 47.2003 60.2064 46.9301V44.6571C60.2064 44.387 59.9879 44.168 59.7183 44.168Z" fill="#5BC4F0" fill-opacity="0.5"/>
<path d="M52.1197 44.168H48.3333C48.0638 44.168 47.8452 44.387 47.8452 44.6571V46.9301C47.8452 47.2003 48.0638 47.4193 48.3333 47.4193H52.1197C52.3893 47.4193 52.6078 47.2003 52.6078 46.9301V44.6571C52.6078 44.387 52.3893 44.168 52.1197 44.168Z" fill="#5BC4F0" fill-opacity="0.5"/>
<path d="M44.521 44.168H40.7347C40.4651 44.168 40.2466 44.387 40.2466 44.6571V46.9301C40.2466 47.2003 40.4651 47.4193 40.7347 47.4193H44.521C44.7906 47.4193 45.0092 47.2003 45.0092 46.9301V44.6571C45.0092 44.387 44.7906 44.168 44.521 44.168Z" fill="#5BC4F0" fill-opacity="0.5"/>
<path d="M36.9224 44.168H33.1361C32.8665 44.168 32.6479 44.387 32.6479 44.6571V46.9301C32.6479 47.2003 32.8665 47.4193 33.1361 47.4193H36.9224C37.192 47.4193 37.4105 47.2003 37.4105 46.9301V44.6571C37.4105 44.387 37.192 44.168 36.9224 44.168Z" fill="#5BC4F0" fill-opacity="0.5"/>
<path d="M59.7183 50.0469H55.932C55.6624 50.0469 55.4438 50.2659 55.4438 50.536V52.809C55.4438 53.0792 55.6624 53.2982 55.932 53.2982H59.7183C59.9879 53.2982 60.2064 53.0792 60.2064 52.809V50.536C60.2064 50.2659 59.9879 50.0469 59.7183 50.0469Z" fill="#5BC4F0" fill-opacity="0.5"/>
<path d="M52.1197 50.0469H48.3333C48.0638 50.0469 47.8452 50.2659 47.8452 50.536V52.809C47.8452 53.0792 48.0638 53.2982 48.3333 53.2982H52.1197C52.3893 53.2982 52.6078 53.0792 52.6078 52.809V50.536C52.6078 50.2659 52.3893 50.0469 52.1197 50.0469Z" fill="#5BC4F0" fill-opacity="0.5"/>
<path d="M44.521 50.0469H40.7347C40.4651 50.0469 40.2466 50.2659 40.2466 50.536V52.809C40.2466 53.0792 40.4651 53.2982 40.7347 53.2982H44.521C44.7906 53.2982 45.0092 53.0792 45.0092 52.809V50.536C45.0092 50.2659 44.7906 50.0469 44.521 50.0469Z" fill="#5BC4F0" fill-opacity="0.5"/>
<path d="M36.9224 50.0469H33.1361C32.8665 50.0469 32.6479 50.2659 32.6479 50.536V52.809C32.6479 53.0792 32.8665 53.2982 33.1361 53.2982H36.9224C37.192 53.2982 37.4105 53.0792 37.4105 52.809V50.536C37.4105 50.2659 37.192 50.0469 36.9224 50.0469Z" fill="#5BC4F0" fill-opacity="0.5"/>
<path d="M59.7183 56.1348H55.932C55.6624 56.1348 55.4438 56.3538 55.4438 56.6239V58.8969C55.4438 59.1671 55.6624 59.3861 55.932 59.3861H59.7183C59.9879 59.3861 60.2064 59.1671 60.2064 58.8969V56.6239C60.2064 56.3538 59.9879 56.1348 59.7183 56.1348Z" fill="#FFD325"/>
<path d="M52.1197 56.1348H48.3333C48.0638 56.1348 47.8452 56.3538 47.8452 56.6239V58.8969C47.8452 59.1671 48.0638 59.3861 48.3333 59.3861H52.1197C52.3893 59.3861 52.6078 59.1671 52.6078 58.8969V56.6239C52.6078 56.3538 52.3893 56.1348 52.1197 56.1348Z" fill="#5BC4F0" fill-opacity="0.5"/>
<path d="M44.521 56.1348H40.7347C40.4651 56.1348 40.2466 56.3538 40.2466 56.6239V58.8969C40.2466 59.1671 40.4651 59.3861 40.7347 59.3861H44.521C44.7906 59.3861 45.0092 59.1671 45.0092 58.8969V56.6239C45.0092 56.3538 44.7906 56.1348 44.521 56.1348Z" fill="#5BC4F0" fill-opacity="0.5"/>
<path d="M36.9224 56.1348H33.1361C32.8665 56.1348 32.6479 56.3538 32.6479 56.6239V58.8969C32.6479 59.1671 32.8665 59.3861 33.1361 59.3861H36.9224C37.192 59.3861 37.4105 59.1671 37.4105 58.8969V56.6239C37.4105 56.3538 37.192 56.1348 36.9224 56.1348Z" fill="#5BC4F0" fill-opacity="0.5"/>
<path d="M72.2631 38.1286L71.1157 41.6603L71.0308 41.9213L70.4984 43.5612L70.4945 43.5727L68.7787 43.5348L62.1948 43.3853L61.7135 42.0046L61.6325 41.774L60.3584 38.129C64.3109 39.5004 67.5688 36.5022 72.2631 38.129V38.1286Z" fill="#FFD325"/>
<path d="M71.0303 41.921L70.4979 43.561L68.7786 43.5345L62.1947 43.3851L61.7134 42.0043C63.9765 41.9646 67.8705 41.9117 71.0303 41.921Z" fill="#AF8E2F"/>
<path d="M78.3861 61.8646C78.0483 62.9465 77.3782 63.8546 76.5119 64.4938C75.6435 65.1331 74.5792 65.5003 73.4485 65.5003H58.5371C56.3817 65.5003 54.4904 64.0569 53.9163 61.9726C53.5859 60.7677 53.4086 59.5457 53.3804 58.3293C53.3786 58.2121 53.3765 58.0948 53.3765 57.9775C53.3765 57.8388 53.3783 57.7004 53.3822 57.5621C53.5038 53.1538 55.6535 49.0483 59.1033 46.3107L62.6705 43.4805L70.8339 43.6696L75.3213 47.9725C75.9525 48.5778 76.5148 49.2542 76.9661 50.0039C77.507 50.9024 77.9448 51.8506 78.2766 52.8302C79.2564 55.7169 79.3206 58.8796 78.3861 61.8642V61.8646Z" fill="#FFD325"/>
<path d="M72.1849 42.8965H60.637C60.1574 42.8965 59.7686 43.2861 59.7686 43.7667V44.1371C59.7686 44.6177 60.1574 45.0073 60.637 45.0073H72.1849C72.6645 45.0073 73.0533 44.6177 73.0533 44.1371V43.7667C73.0533 43.2861 72.6645 42.8965 72.1849 42.8965Z" fill="#AF8E2F"/>
<path opacity="0.4" d="M78.3861 61.8641C78.0482 62.946 77.3782 63.8541 76.5119 64.4934C75.6435 65.1326 74.5792 65.4998 73.4485 65.4998H58.5371C56.3817 65.4998 54.4903 64.0565 53.9163 61.9721C53.5859 60.7672 53.4086 59.5452 53.3804 58.3289C55.8472 60.6857 58.754 63.7672 65.5491 63.8616C73.9872 63.9789 77.6237 60.016 78.2766 52.8301C79.2563 55.7168 79.3206 58.8795 78.3861 61.8641Z" fill="#AF8E2F"/>
<path d="M70.3734 51.7335C70.329 51.689 70.2754 51.6632 70.2055 51.6609L68.9418 51.6199C68.8714 51.207 68.7265 50.8434 68.5024 50.5339L70.2254 50.5909C70.2954 50.5908 70.3513 50.572 70.3979 50.5297C70.4445 50.485 70.4677 50.4311 70.47 50.3607L70.4949 49.6027C70.4972 49.5323 70.4761 49.476 70.4341 49.4291C70.3898 49.3822 70.3338 49.3588 70.2662 49.3565L64.1156 49.156C64.048 49.1537 63.9897 49.1726 63.9432 49.2172C63.8989 49.2595 63.8733 49.3158 63.871 49.3862L63.8394 50.3765C63.8371 50.4399 63.8581 50.4985 63.9048 50.5454C63.9491 50.5946 64.0051 50.6204 64.0681 50.6203L65.1406 50.6545C66.1804 50.6887 66.8312 50.9907 67.0952 51.5607L64.0409 51.4604C63.9733 51.4605 63.915 51.4793 63.8684 51.5216C63.8218 51.5639 63.7986 51.6202 63.7963 51.6906L63.7714 52.4486C63.7715 52.519 63.7902 52.5753 63.8322 52.6222C63.8742 52.6691 63.9302 52.6925 64.0001 52.6948L67.157 52.7996C67.0338 53.2034 66.7707 53.504 66.3675 53.7038C65.9644 53.9037 65.4375 53.9934 64.787 53.9706L63.9594 53.9432C63.8941 53.9433 63.8381 53.9644 63.7892 54.0091C63.7403 54.0561 63.7147 54.11 63.7124 54.1734L63.6807 55.1191C63.6784 55.1848 63.6995 55.2388 63.7415 55.2857C64.6564 56.329 65.8352 57.7851 67.2848 59.6562C67.3269 59.7172 67.3875 59.7477 67.4668 59.7523L68.9077 59.8001C69.0103 59.8047 69.0848 59.7624 69.1267 59.6732C69.1779 59.584 69.1732 59.4995 69.1055 59.4175C67.7258 57.5932 66.6357 56.2285 65.8422 55.3165C66.6837 55.2452 67.3713 54.9935 67.9094 54.5659C68.4476 54.1359 68.7828 53.5677 68.9196 52.8566L70.1623 52.8976C70.23 52.8975 70.2882 52.8787 70.3325 52.8364C70.3791 52.7942 70.4023 52.7378 70.4046 52.6674L70.4295 51.9094C70.4294 51.839 70.4107 51.7827 70.3687 51.7359L70.3734 51.7335Z" fill="#DCB414"/>
</g>
<path d="M26.8306 27.8326C27.8674 28.3217 28.58 29.0725 29.0663 30.0139C29.5526 29.0725 30.2683 28.3189 31.3051 27.8297C30.2683 27.3406 29.5526 26.5898 29.0663 25.6484C28.58 26.5898 27.8674 27.3434 26.8306 27.8326Z" fill="#FFD325"/>
<path d="M63.3896 29.4314C64.2537 29.8391 64.8475 30.4647 65.2528 31.2492C65.658 30.4647 66.2544 29.8367 67.1185 29.4291C66.2544 29.0214 65.658 28.3958 65.2528 27.6113C64.8475 28.3958 64.2537 29.0238 63.3896 29.4314Z" fill="#AF8E2F"/>
<path d="M3 27.9122C4.38244 28.5644 5.33261 29.5655 5.98101 30.8206C6.62941 29.5655 7.58366 28.5606 8.9661 27.9084C7.58366 27.2562 6.62941 26.2551 5.98101 25C5.33261 26.2551 4.38244 27.26 3 27.9122Z" fill="#FFD325"/>
<path d="M8.20312 58.2061C8.89435 58.5322 9.36943 59.0327 9.69363 59.6603C10.0178 59.0327 10.495 58.5303 11.1862 58.2042C10.495 57.8781 10.0178 57.3776 9.69363 56.75C9.36943 57.3776 8.89435 57.88 8.20312 58.2061Z" fill="#AF8E2F"/>
<defs>
<clipPath id="clip0_351_5931">
<rect width="29.3395" height="38.6748" fill="white" transform="matrix(-0.937933 0.346817 0.346817 0.937933 30.3438 21.5254)"/>
</clipPath>
<clipPath id="clip1_351_5931">
<rect width="50" height="50" fill="white" transform="translate(29 15)"/>
</clipPath>
</defs>
</svg>
