<svg width="24" height="24" viewBox="0 0 24 24" fill="none" xmlns="http://www.w3.org/2000/svg">
<mask id="mask0_1_2803" style="mask-type:alpha" maskUnits="userSpaceOnUse" x="0" y="0" width="24" height="24">
<rect width="24" height="24" fill="#D9D9D9"/>
</mask>
<g mask="url(#mask0_1_2803)">
<path d="M13 21C11.7615 21 10.5948 20.7632 9.5 20.2895C8.40517 19.8157 7.45167 19.1727 6.6395 18.3605C5.82733 17.5483 5.18433 16.5948 4.7105 15.5C4.23683 14.4052 4 13.2385 4 12C4 10.7577 4.23683 9.59 4.7105 8.497C5.18433 7.40417 5.82733 6.45167 6.6395 5.6395C7.45167 4.82733 8.40517 4.18433 9.5 3.7105C10.5948 3.23683 11.7615 3 13 3C14.2423 3 15.41 3.23683 16.503 3.7105C17.5958 4.18433 18.5483 4.82733 19.3605 5.6395C20.1727 6.45167 20.8157 7.40417 21.2895 8.497C21.7632 9.59 22 10.7577 22 12C22 13.2385 21.7632 14.4052 21.2895 15.5C20.8157 16.5948 20.1727 17.5483 19.3605 18.3605C18.5483 19.1727 17.5958 19.8157 16.503 20.2895C15.41 20.7632 14.2423 21 13 21ZM13 20.0077C13.5872 19.2539 14.0712 18.5135 14.452 17.7865C14.8327 17.0597 15.1423 16.2463 15.3807 15.3463H10.6192C10.8834 16.2974 11.1994 17.1365 11.5673 17.8635C11.9353 18.5903 12.4128 19.3051 13 20.0077ZM11.727 19.8577C11.2603 19.3078 10.8343 18.6279 10.449 17.8182C10.0638 17.0086 9.777 16.1846 9.5885 15.3463H5.75375C6.32692 16.5898 7.13942 17.6096 8.19125 18.4057C9.24325 19.2019 10.4218 19.6859 11.727 19.8577ZM14.273 19.8577C15.5782 19.6859 16.7567 19.2019 17.8087 18.4057C18.8606 17.6096 19.6731 16.5898 20.2463 15.3463H16.4115C16.159 16.1974 15.8401 17.0278 15.4548 17.8375C15.0696 18.6472 14.6757 19.3206 14.273 19.8577ZM5.34625 14.3463H9.38075C9.30508 13.9359 9.25158 13.5362 9.22025 13.147C9.18875 12.758 9.173 12.3757 9.173 12C9.173 11.6243 9.18875 11.242 9.22025 10.853C9.25158 10.4638 9.30508 10.0641 9.38075 9.65375H5.34625C5.23725 9.99992 5.15225 10.3772 5.09125 10.7855C5.03042 11.1938 5 11.5987 5 12C5 12.4013 5.03042 12.8062 5.09125 13.2145C5.15225 13.6228 5.23725 14.0001 5.34625 14.3463ZM10.3808 14.3463H15.6193C15.6949 13.9359 15.7484 13.5426 15.7797 13.1663C15.8112 12.7901 15.827 12.4013 15.827 12C15.827 11.5987 15.8112 11.2099 15.7797 10.8337C15.7484 10.4574 15.6949 10.0641 15.6193 9.65375H10.3808C10.3051 10.0641 10.2516 10.4574 10.2203 10.8337C10.1888 11.2099 10.173 11.5987 10.173 12C10.173 12.4013 10.1888 12.7901 10.2203 13.1663C10.2516 13.5426 10.3051 13.9359 10.3808 14.3463ZM16.6193 14.3463H20.6538C20.7628 14.0001 20.8477 13.6228 20.9088 13.2145C20.9696 12.8062 21 12.4013 21 12C21 11.5987 20.9696 11.1938 20.9088 10.7855C20.8477 10.3772 20.7628 9.99992 20.6538 9.65375H16.6193C16.6949 10.0641 16.7484 10.4638 16.7797 10.853C16.8112 11.242 16.827 11.6243 16.827 12C16.827 12.3757 16.8112 12.758 16.7797 13.147C16.7484 13.5362 16.6949 13.9359 16.6193 14.3463ZM16.4115 8.65375H20.2463C19.6602 7.38458 18.8573 6.36475 17.8375 5.59425C16.8177 4.82375 15.6295 4.33333 14.273 4.123C14.7397 4.73717 15.1593 5.43942 15.5318 6.22975C15.9043 7.02025 16.1975 7.82825 16.4115 8.65375ZM10.6192 8.65375H15.3807C15.1166 7.71542 14.7909 6.86675 14.4038 6.10775C14.0166 5.34875 13.5487 4.64358 13 3.99225C12.4513 4.64358 11.9834 5.34875 11.5963 6.10775C11.2091 6.86675 10.8834 7.71542 10.6192 8.65375ZM5.75375 8.65375H9.5885C9.8025 7.82825 10.0958 7.02025 10.4683 6.22975C10.8408 5.43942 11.2603 4.73717 11.727 4.123C10.3577 4.33333 9.16633 4.82692 8.153 5.60375C7.1395 6.38075 6.33975 7.39742 5.75375 8.65375Z" fill="#004098"/>
</g>
</svg>
