<svg width="40" height="40" viewBox="0 0 40 40" fill="none" xmlns="http://www.w3.org/2000/svg">
<circle opacity="0.2" cx="20" cy="20" r="20" fill="url(#paint0_linear_19_2053)"/>
<path d="M29.4816 20.1746C29.1693 19.8646 28.7486 19.6885 28.3086 19.6835C27.8687 19.6786 27.4441 19.8452 27.1249 20.1482C26.8179 20.4284 26.4308 20.7681 26.0004 21.1461L25.9645 21.1776V17.1421L26.7623 17.6913C26.8182 17.7299 26.8844 17.7505 26.9523 17.7505C26.9727 17.7504 26.993 17.7485 27.0131 17.7449C27.0564 17.7369 27.0977 17.7205 27.1346 17.6965C27.1715 17.6726 27.2034 17.6416 27.2283 17.6053L27.9884 16.5003C28.0386 16.4271 28.0578 16.337 28.0416 16.2497C28.0255 16.1624 27.9754 16.0851 27.9024 16.0346L25.9645 14.7011V12.9689C25.9642 12.7026 25.8582 12.4472 25.6699 12.2589C25.4816 12.0706 25.2263 11.9647 24.9599 11.9644H24.2903C24.0426 11.9651 23.804 12.0576 23.6205 12.2238C23.4369 12.3901 23.3214 12.6184 23.2962 12.8648L20.1273 10.6839C20.0714 10.6455 20.0051 10.625 19.9373 10.625C19.8695 10.625 19.8033 10.6455 19.7473 10.6839L11.9724 16.0346C11.8993 16.085 11.8492 16.1624 11.8331 16.2497C11.817 16.337 11.8361 16.4271 11.8864 16.5003L12.6465 17.6052C12.6714 17.6415 12.7032 17.6725 12.7401 17.6965C12.7771 17.7204 12.8183 17.7369 12.8616 17.7449C12.949 17.7606 13.0391 17.7413 13.1124 17.6913L13.9102 17.1421V22.2911L12.7888 23.3209L12.374 22.8686C12.314 22.8031 12.2304 22.7642 12.1417 22.7604C12.053 22.7565 11.9663 22.788 11.9008 22.848L10.0461 24.5487C10.0137 24.5784 9.98746 24.6142 9.96887 24.654C9.95029 24.6939 9.93973 24.737 9.93782 24.781C9.9359 24.8249 9.94266 24.8688 9.95771 24.9101C9.97276 24.9514 9.9958 24.9894 10.0255 25.0218L15.1452 30.607C15.2053 30.6724 15.2889 30.7113 15.3777 30.7152C15.3823 30.7155 15.3872 30.7155 15.3921 30.7155C15.4759 30.7155 15.5566 30.6841 15.6184 30.6276L17.4737 28.9266C17.5392 28.8665 17.5781 28.783 17.582 28.6942C17.5858 28.6055 17.5543 28.5189 17.4943 28.4534L17.0811 28.0027L17.4298 27.6809L23.2778 27.936C23.8592 27.9593 24.438 27.8454 24.9673 27.6035C25.4965 27.3615 25.9614 26.9983 26.3241 26.5433L26.4605 26.3713C27.4009 25.1824 28.689 23.5543 29.4979 22.5079C29.7575 22.1789 29.9102 21.7783 29.9355 21.36C29.9466 21.1417 29.912 20.9235 29.8338 20.7193C29.7556 20.5152 29.6357 20.3297 29.4816 20.1746ZM23.9554 12.9689C23.9555 12.8801 23.9908 12.795 24.0535 12.7322C24.1163 12.6694 24.2015 12.6341 24.2903 12.634H24.9599C25.0487 12.6341 25.1339 12.6694 25.1966 12.7322C25.2594 12.795 25.2947 12.8801 25.2948 12.9689V14.2402L23.9554 13.3185V12.9689ZM13.0083 16.9497L12.6281 16.3967L19.9373 11.3663L27.2466 16.3967L26.8663 16.9497L20.1273 12.3113C20.0714 12.273 20.0051 12.2525 19.9373 12.2525C19.8695 12.2525 19.8033 12.273 19.7473 12.3113L13.0083 16.9497ZM19.9373 12.9937L25.2948 16.6812V21.7589L25.179 21.8588C24.874 22.122 24.5596 22.3928 24.2458 22.6622C24.1018 22.434 23.9046 22.2441 23.6711 22.1089C23.4376 21.9737 23.1747 21.8972 22.9051 21.886L15.7096 21.5746C15.3195 21.5565 14.931 21.6367 14.5799 21.8078V16.6814L19.9373 12.9937ZM15.4127 29.9074L10.7456 24.8161L12.1065 23.568L16.7742 28.659L15.4127 29.9074ZM28.9676 22.0995C28.1615 23.1416 26.8748 24.7682 25.935 25.9557L25.7993 26.1277C25.5034 26.501 25.1233 26.7988 24.6901 26.9969C24.2569 27.1949 23.7829 27.2875 23.307 27.267L17.3201 27.0058C17.2758 27.0037 17.2317 27.0104 17.1901 27.0256C17.1485 27.0408 17.1104 27.0642 17.0781 27.0944L16.6287 27.5092L13.2413 23.8145L14.4752 22.6809C14.6374 22.5321 14.8274 22.4169 15.0343 22.3419C15.2412 22.2668 15.4608 22.2335 15.6807 22.2437L22.8758 22.5551C23.0886 22.5639 23.293 22.6405 23.4591 22.7737C23.6253 22.9068 23.7445 23.0896 23.7994 23.2954L23.8013 23.2999C23.8425 23.4523 23.8472 23.6122 23.8149 23.7666C23.7827 23.9211 23.7144 24.0657 23.6157 24.1889C23.517 24.312 23.3906 24.41 23.2469 24.4751C23.1031 24.5401 22.946 24.5703 22.7884 24.5631L19.1087 24.4035C19.0202 24.4006 18.9341 24.4325 18.8689 24.4924C18.8037 24.5522 18.7645 24.6353 18.7598 24.7237C18.7579 24.7676 18.7647 24.8115 18.7797 24.8528C18.7948 24.8941 18.8179 24.9321 18.8476 24.9645C18.8773 24.9969 18.9131 25.0231 18.953 25.0417C18.9929 25.0602 19.036 25.0707 19.08 25.0726L22.7593 25.2321C22.7841 25.2331 22.8087 25.2338 22.8332 25.2338C23.2646 25.2338 23.6794 25.0671 23.9909 24.7685C24.3024 24.47 24.4865 24.0626 24.5048 23.6315C24.508 23.5328 24.5024 23.434 24.488 23.3363C24.8664 23.0123 25.2478 22.6837 25.6161 22.3661L25.844 22.1695C25.9473 22.0835 26.0471 21.9975 26.142 21.9128L26.4422 21.6493C26.8764 21.268 27.2666 20.9253 27.5765 20.6428C27.7683 20.4572 28.0249 20.3537 28.2918 20.3543C28.5587 20.3548 28.8148 20.4594 29.0058 20.6458C29.0952 20.7355 29.1646 20.8431 29.2095 20.9616C29.2544 21.08 29.2738 21.2066 29.2664 21.3331C29.2469 21.613 29.1427 21.8803 28.9676 22.0995ZM18.9328 17.3218C19.1315 17.3218 19.3257 17.2629 19.4909 17.1525C19.6561 17.0421 19.7848 16.8852 19.8609 16.7017C19.9369 16.5181 19.9568 16.3162 19.918 16.1213C19.8793 15.9265 19.7836 15.7475 19.6431 15.607C19.5026 15.4665 19.3236 15.3708 19.1288 15.3321C18.9339 15.2933 18.7319 15.3132 18.5484 15.3892C18.3648 15.4653 18.208 15.594 18.0976 15.7592C17.9872 15.9244 17.9283 16.1186 17.9283 16.3173C17.9286 16.5836 18.0345 16.8389 18.2228 17.0273C18.4112 17.2156 18.6665 17.3215 18.9328 17.3218ZM18.9328 15.9824C18.999 15.9824 19.0638 16.0021 19.1188 16.0389C19.1739 16.0757 19.2168 16.128 19.2422 16.1891C19.2675 16.2503 19.2741 16.3177 19.2612 16.3826C19.2483 16.4476 19.2164 16.5072 19.1696 16.554C19.1228 16.6009 19.0631 16.6328 18.9981 16.6457C18.9332 16.6586 18.8659 16.652 18.8047 16.6266C18.7435 16.6013 18.6912 16.5584 18.6544 16.5033C18.6176 16.4482 18.598 16.3835 18.598 16.3173C18.598 16.2285 18.6333 16.1434 18.6961 16.0806C18.7589 16.0178 18.844 15.9825 18.9328 15.9824ZM19.9373 19.6657C19.9373 19.8644 19.9962 20.0586 20.1066 20.2238C20.217 20.389 20.3739 20.5177 20.5574 20.5937C20.741 20.6698 20.943 20.6897 21.1378 20.6509C21.3327 20.6121 21.5117 20.5165 21.6522 20.376C21.7926 20.2355 21.8883 20.0565 21.9271 19.8617C21.9658 19.6668 21.9459 19.4648 21.8699 19.2813C21.7939 19.0977 21.6651 18.9408 21.4999 18.8305C21.3347 18.7201 21.1405 18.6612 20.9419 18.6612C20.6755 18.6615 20.4202 18.7674 20.2319 18.9557C20.0436 19.144 19.9376 19.3994 19.9373 19.6657ZM21.2767 19.6657C21.2767 19.7319 21.2571 19.7966 21.2203 19.8517C21.1835 19.9068 21.1312 19.9497 21.07 19.975C21.0088 20.0004 20.9415 20.007 20.8765 19.9941C20.8116 19.9812 20.7519 19.9493 20.7051 19.9025C20.6583 19.8556 20.6264 19.796 20.6134 19.731C20.6005 19.6661 20.6072 19.5987 20.6325 19.5375C20.6578 19.4764 20.7008 19.4241 20.7558 19.3873C20.8109 19.3505 20.8756 19.3308 20.9419 19.3308C21.0306 19.3309 21.1158 19.3662 21.1786 19.429C21.2413 19.4918 21.2766 19.5769 21.2767 19.6657ZM18.3364 19.4564L21.0151 16.108C21.0706 16.0386 21.1514 15.9941 21.2397 15.9843C21.328 15.9745 21.4166 16.0002 21.486 16.0557C21.5553 16.1112 21.5998 16.192 21.6096 16.2803C21.6194 16.3686 21.5938 16.4572 21.5383 16.5266L18.8595 19.875C18.8321 19.9093 18.7981 19.9379 18.7596 19.9591C18.721 19.9804 18.6787 19.9938 18.635 19.9986C18.5467 20.0084 18.4581 19.9828 18.3887 19.9273C18.3193 19.8718 18.2748 19.791 18.265 19.7027C18.2552 19.6144 18.2809 19.5258 18.3364 19.4564Z" fill="#1D478E"/>
<defs>
<linearGradient id="paint0_linear_19_2053" x1="0" y1="20" x2="40" y2="20" gradientUnits="userSpaceOnUse">
<stop stop-color="#8FD1EC"/>
<stop offset="1" stop-color="#229ACE"/>
</linearGradient>
</defs>
</svg>
