<svg width="40" height="40" viewBox="0 0 40 40" fill="none" xmlns="http://www.w3.org/2000/svg">
<circle opacity="0.2" cx="20" cy="20" r="20" fill="url(#paint0_linear_1_1764)"/>
<path d="M30.37 18.5217L29.949 16.177C29.9477 16.1694 29.9458 16.162 29.9439 16.1546C29.9429 16.1507 29.9419 16.1469 29.9407 16.143C29.9377 16.1329 29.9343 16.1231 29.9303 16.1135C29.9288 16.1098 29.9273 16.1061 29.9256 16.1025C29.9206 16.0914 29.915 16.0806 29.9089 16.0703C29.9072 16.0675 29.9053 16.0648 29.9036 16.0621C29.8974 16.0526 29.8908 16.0434 29.8838 16.0346C29.8827 16.0333 29.8818 16.0318 29.8807 16.0304L27.5235 13.2071V10.6908C27.5235 10.5163 27.3822 10.375 27.2077 10.375H13.5422C13.3677 10.375 13.2264 10.5164 13.2264 10.6908V13.2073L10.8712 16.0284L10.8706 16.0291L10.8695 16.0305C10.8691 16.0309 10.8685 16.0319 10.8685 16.0319C10.86 16.0421 10.8523 16.053 10.8451 16.0644C10.8441 16.066 10.843 16.0675 10.842 16.0691C10.8352 16.0804 10.8291 16.092 10.8237 16.1042C10.8227 16.1065 10.8217 16.1089 10.8207 16.1113C10.8157 16.1233 10.8111 16.1356 10.8076 16.1484L10.8074 16.1491C10.8048 16.1583 10.8027 16.1676 10.801 16.1771L10.38 18.5218C10.3766 18.5402 10.375 18.5588 10.375 18.5775C10.375 19.5368 11.0063 20.3511 11.8752 20.6274V30.0592C11.8752 30.2337 12.0165 30.375 12.1909 30.375H15.0913C15.2657 30.375 14.7755 30.2337 14.7755 30.0592C14.7755 29.8848 15.2657 29.7434 15.0913 29.7434H12.5068V20.7277C12.5131 20.7278 12.5193 20.7282 12.5257 20.7282H12.7295C13.5051 20.7282 14.1861 20.3154 14.5645 19.6981C14.9429 20.3154 15.6238 20.7282 16.3993 20.7282H16.6032C17.3788 20.7282 18.0598 20.3155 18.4382 19.6982C18.8166 20.3154 19.4975 20.7282 20.273 20.7282H20.4769C21.2525 20.7282 21.9333 20.3154 22.3118 19.6982C22.6902 20.3155 23.3711 20.7282 24.1466 20.7282H24.3506C25.1262 20.7282 25.8071 20.3154 26.1855 19.6981C26.5639 20.3154 27.2449 20.7282 28.0205 20.7282H28.2243C28.2307 20.7282 28.2369 20.7278 28.2432 20.7277V29.7434H27.1095V24.1885V22.5043C27.1095 22.3298 26.9682 22.1885 26.7938 22.1885H22.3118C22.1374 22.1885 21.9961 22.3298 21.9961 22.5043V24.1885V29.7434H15.0913C14.9168 29.7434 14.7755 29.8848 14.7755 30.0592C14.7755 30.2337 14.9168 30.375 15.0913 30.375H22.3118H26.7936H28.5589C28.7334 30.375 28.8747 30.2337 28.8747 30.0592V20.6274C29.7437 20.3511 30.375 19.5367 30.375 18.5775C30.375 18.5588 30.3734 18.5402 30.37 18.5217ZM26.4779 29.7434H22.6276V24.5043H26.4779V29.7434ZM26.4779 23.8727H22.6276V22.8201H26.4779V23.8727ZM13.858 11.0066H26.892V12.9443H13.858V11.0066ZM21.8182 15.917H18.9318L19.2873 13.5759H21.4627L21.8182 15.917ZM14.2512 18.5382C14.2495 18.5512 14.2487 18.5643 14.2487 18.5775C14.2487 19.4152 13.5671 20.0966 12.7295 20.0966H12.5257C11.697 20.0966 11.0212 19.4297 11.0068 18.6043L11.376 16.5486H14.5013L14.2512 18.5382ZM11.7869 15.917L13.7414 13.5759H15.8139L14.6626 15.917H11.7869ZM18.1228 18.5605C18.1225 18.5661 18.1223 18.5718 18.1223 18.5775C18.1223 19.4152 17.4408 20.0966 16.6032 20.0966H16.3993C15.568 20.0966 14.8905 19.4254 14.8804 18.5964L15.0017 17.6309L15.1378 16.5486H18.2312L18.1228 18.5605ZM18.293 15.917H15.3664L16.5178 13.5759H18.6485L18.293 15.917ZM20.4769 20.0966H20.273C19.4381 20.0966 18.7584 19.4195 18.754 18.5856L18.78 18.1024L18.8638 16.5486H21.8863L21.9789 18.2682L21.9961 18.5856C21.9917 19.4195 21.3118 20.0966 20.4769 20.0966ZM22.1015 13.5759H24.2322L25.3836 15.917H22.457L22.1015 13.5759ZM24.3506 20.0966H24.1466C23.309 20.0966 22.6277 19.4152 22.6277 18.5775C22.6277 18.5718 22.6275 18.5662 22.6272 18.5606L22.5188 16.5487H25.6122L25.8696 18.5964C25.8595 19.4254 25.182 20.0966 24.3506 20.0966ZM26.0874 15.917L24.9361 13.5759H27.0087L28.9633 15.917H26.0874ZM28.2243 20.0966H28.0204C27.1827 20.0966 26.5013 19.4152 26.5013 18.5775C26.5013 18.5644 26.5005 18.5512 26.4988 18.5381L26.2488 16.5486H29.374L29.7432 18.6043C29.7288 19.4297 29.053 20.0966 28.2243 20.0966Z" fill="#1D478E"/>
<path d="M20.6159 22.1885H14.0779C13.9034 22.1885 13.7621 22.3298 13.7621 22.5043V26.4923C13.7621 26.6667 13.9034 26.808 14.0779 26.808H20.6158C20.7903 26.808 20.9317 26.6667 20.9317 26.4923V22.5043C20.9317 22.3298 20.7903 22.1885 20.6159 22.1885ZM14.3936 26.1765V22.8201H20.3001V26.1765H14.3936Z" fill="#1D478E"/>
<path d="M25.9329 11.6597H14.9013C14.7268 11.6597 14.5855 11.8011 14.5855 11.9755C14.5855 12.1499 14.7268 12.2913 14.9013 12.2913H25.9329C26.1073 12.2913 26.2486 12.1499 26.2486 11.9755C26.2486 11.8011 26.1073 11.6597 25.9329 11.6597Z" fill="#1D478E"/>
<defs>
<linearGradient id="paint0_linear_1_1764" x1="0" y1="20" x2="40" y2="20" gradientUnits="userSpaceOnUse">
<stop stop-color="#8FD1EC"/>
<stop offset="1" stop-color="#229ACE"/>
</linearGradient>
</defs>
</svg>
