<svg width="40" height="40" viewBox="0 0 40 40" fill="none" xmlns="http://www.w3.org/2000/svg">
<circle opacity="0.2" cx="20" cy="20" r="20" fill="url(#paint0_linear_50_163)"/>
<mask id="mask0_50_163" style="mask-type:alpha" maskUnits="userSpaceOnUse" x="8" y="8" width="24" height="24">
<rect x="8" y="8" width="24" height="24" fill="#D9D9D9"/>
</mask>
<g mask="url(#mask0_50_163)">
<path d="M16.6808 28.5C15.8384 28.5 15.2388 28.3333 14.8818 28C14.5248 27.6667 14.0142 27.5 13.35 27.5C13.0654 27.5 12.7987 27.5448 12.55 27.6345C12.3014 27.7243 11.8533 27.9552 11.2058 28.327C11.0391 28.4205 10.8766 28.4195 10.7183 28.324C10.5599 28.2285 10.4808 28.0853 10.4808 27.8943C10.4808 27.8006 10.5042 27.7163 10.551 27.6413C10.5979 27.5663 10.6597 27.5063 10.7365 27.4615C11.5237 27.0282 12.0554 26.7596 12.3318 26.6557C12.6081 26.5519 12.9475 26.5 13.35 26.5C14.1847 26.5 14.7774 26.6667 15.128 27C15.4785 27.3333 15.9923 27.5 16.6693 27.5C17.3539 27.5 17.8696 27.3333 18.2163 27C18.5631 26.6667 19.1577 26.5 20 26.5C20.8347 26.5 21.4283 26.6667 21.7808 27C22.1333 27.3333 22.6461 27.5 23.3193 27.5C24.0039 27.5 24.5196 27.3333 24.8663 27C25.2131 26.6667 25.8077 26.5 26.65 26.5C27.0525 26.5 27.3897 26.5519 27.6615 26.6557C27.9334 26.7596 28.4674 27.0282 29.2635 27.4615C29.3404 27.5063 29.4022 27.5663 29.449 27.6413C29.4959 27.7163 29.5193 27.8006 29.5193 27.8943C29.5193 28.0853 29.4391 28.2285 29.2788 28.324C29.1186 28.4195 28.9552 28.4205 28.7885 28.327C28.1539 27.968 27.7099 27.7404 27.4568 27.6443C27.2036 27.5481 26.9347 27.5 26.65 27.5C25.9859 27.5 25.4772 27.6667 25.124 28C24.7709 28.3333 24.1731 28.5 23.3308 28.5C22.4961 28.5 21.9015 28.3333 21.547 28C21.1927 27.6667 20.677 27.5 20 27.5C19.3154 27.5 18.8016 27.6667 18.4588 28C18.1158 28.3333 17.5231 28.5 16.6808 28.5ZM16.6808 24.5C15.8384 24.5 15.2388 24.3333 14.8818 24C14.5248 23.6667 14.0142 23.5 13.35 23.5C13.0654 23.5 12.7987 23.5448 12.55 23.6345C12.3014 23.7243 11.8533 23.9552 11.2058 24.327C11.0391 24.4205 10.8766 24.4195 10.7183 24.324C10.5599 24.2285 10.4808 24.0852 10.4808 23.8942C10.4808 23.8006 10.5042 23.7162 10.551 23.6412C10.5979 23.5662 10.6597 23.5063 10.7365 23.4615C11.5237 23.0282 12.0554 22.7596 12.3318 22.6558C12.6081 22.5519 12.9475 22.5 13.35 22.5C14.1847 22.5 14.7774 22.6667 15.128 23C15.4785 23.3333 15.9923 23.5 16.6693 23.5C17.3539 23.5 17.8696 23.3333 18.2163 23C18.5631 22.6667 19.1577 22.5 20 22.5C20.8347 22.5 21.4283 22.6667 21.7808 23C22.1333 23.3333 22.6461 23.5 23.3193 23.5C24.0039 23.5 24.5196 23.3333 24.8663 23C25.2131 22.6667 25.8077 22.5 26.65 22.5C27.0525 22.5 27.3897 22.5519 27.6615 22.6558C27.9334 22.7596 28.4674 23.0282 29.2635 23.4615C29.3404 23.5063 29.4022 23.5662 29.449 23.6412C29.4959 23.7162 29.5193 23.8006 29.5193 23.8942C29.5193 24.0852 29.4391 24.2285 29.2788 24.324C29.1186 24.4195 28.9552 24.4205 28.7885 24.327C28.1539 23.968 27.7099 23.7404 27.4568 23.6442C27.2036 23.5481 26.9347 23.5 26.65 23.5C25.9859 23.5 25.4772 23.6667 25.124 24C24.7709 24.3333 24.1731 24.5 23.3308 24.5C22.4961 24.5 21.9015 24.3333 21.547 24C21.1927 23.6667 20.677 23.5 20 23.5C19.3154 23.5 18.8016 23.6667 18.4588 24C18.1158 24.3333 17.5231 24.5 16.6808 24.5Z" fill="#1D478E"/>
<path d="M20.2025 20.2461C20.5573 19.7248 20.8255 19.1538 21.007 18.5333C21.1887 17.9127 21.2795 17.3037 21.2795 16.7063C21.2795 15.9115 21.1342 15.1621 20.8435 14.4583C20.553 13.7544 20.1082 13.105 19.509 12.5103C18.9098 11.911 18.2427 11.4672 17.5077 11.1788C16.7727 10.8903 16.012 10.7461 15.2257 10.7461C14.624 10.7461 14.0279 10.8358 13.4372 11.0153C12.8467 11.1948 12.2941 11.4619 11.7795 11.8166C11.63 11.9209 11.5385 12.0705 11.5052 12.2653C11.4719 12.4601 11.5322 12.6345 11.686 12.7884L19.2309 20.3333C19.3847 20.487 19.5579 20.5511 19.7507 20.5256C19.9434 20.4999 20.094 20.4068 20.2025 20.2461ZM19.6359 19.5461L18.6654 18.5589C18.832 18.3393 18.9936 18.1098 19.15 17.8704C19.3065 17.6311 19.4514 17.3749 19.5847 17.1018C19.718 16.8288 19.8293 16.5433 19.9185 16.2454C20.0079 15.9475 20.0688 15.6289 20.1014 15.2896C20.3757 15.9999 20.4569 16.7234 20.3449 17.4601C20.233 18.1969 19.9967 18.8922 19.6359 19.5461ZM18.0462 17.9398L14.0962 13.9729C14.5629 13.6174 15.0383 13.3383 15.5225 13.1358C16.0067 12.9332 16.4679 12.799 16.9064 12.7333C17.3449 12.6675 17.739 12.6666 18.0885 12.7308C18.4381 12.7949 18.7094 12.9235 18.9025 13.1166C19.0847 13.3055 19.2105 13.5775 19.2802 13.9326C19.3499 14.2877 19.3501 14.6834 19.2809 15.1198C19.2117 15.5561 19.0785 16.0185 18.8815 16.5069C18.6844 16.9955 18.406 17.4731 18.0462 17.9398ZM12.473 12.3666C13.1227 11.993 13.8198 11.7518 14.5642 11.6429C15.3087 11.5339 16.0415 11.6158 16.7629 11.8884C16.4235 11.9166 16.1022 11.9775 15.7987 12.0711C15.4954 12.1646 15.2072 12.2792 14.934 12.4148C14.6609 12.5502 14.3998 12.6989 14.1507 12.8608C13.9016 13.0228 13.6672 13.1871 13.4475 13.3538L12.473 12.3666Z" fill="#1D478E"/>
<path d="M27.4798 15.923C26.8009 15.923 26.2179 15.6807 25.7308 15.1962C25.2436 14.7116 25 14.1348 25 13.466C25 12.7835 25.2436 12.2019 25.7308 11.7212C26.2179 11.2404 26.8009 11 27.4798 11C28.1584 11 28.7353 11.2399 29.2105 11.7197C29.6855 12.1994 29.923 12.782 29.923 13.4675C29.923 14.1392 29.6855 14.7163 29.2105 15.199C28.7353 15.6817 28.1584 15.923 27.4798 15.923ZM27.4777 14.923C27.8872 14.923 28.2305 14.7791 28.5075 14.4913C28.7845 14.2034 28.923 13.857 28.923 13.452C28.923 13.0468 28.7845 12.7035 28.5075 12.422C28.2305 12.1407 27.8872 12 27.4777 12C27.0682 12 26.7196 12.1401 26.4318 12.4202C26.1439 12.7004 26 13.0475 26 13.4615C26 13.8602 26.1439 14.2034 26.4318 14.4913C26.7196 14.7791 27.0682 14.923 27.4777 14.923Z" fill="#1D478E"/>
<path d="M15.1468 17.497C15.1531 17.3567 15.1012 17.2378 14.991 17.1405C14.8935 17.0468 14.7778 17 14.6438 17C14.5099 17 14.3962 17.0468 14.3025 17.1405L11.1563 20.2865C11.0588 20.384 11.0069 20.5029 11.0005 20.6433C10.9942 20.7838 11.0461 20.9027 11.1563 21C11.2538 21.0937 11.3695 21.1405 11.5035 21.1405C11.6374 21.1405 11.7511 21.0937 11.8448 21L14.991 17.8538C15.0883 17.7564 15.1403 17.6375 15.1468 17.497Z" fill="#1D478E"/>
</g>
<defs>
<linearGradient id="paint0_linear_50_163" x1="0" y1="20" x2="40" y2="20" gradientUnits="userSpaceOnUse">
<stop stop-color="#8FD1EC"/>
<stop offset="1" stop-color="#229ACE"/>
</linearGradient>
</defs>
</svg>
