<svg width="40" height="40" viewBox="0 0 40 40" fill="none" xmlns="http://www.w3.org/2000/svg">
<circle opacity="0.2" cx="20" cy="20" r="20" fill="url(#paint0_linear_99_287)"/>
<path d="M12.7543 19.7407H16.3113C16.505 19.7407 16.6842 19.6775 16.83 19.5708C16.9759 19.6775 17.1551 19.7407 17.3488 19.7407H20.9059C21.0996 19.7407 21.2789 19.6775 21.4247 19.5708C21.5705 19.6775 21.7498 19.7407 21.9434 19.7407H25.5004C25.9878 19.7407 26.3842 19.3421 26.3842 18.8523V17.1853C26.3842 16.4365 25.9672 15.7861 25.3431 15.4652C25.6456 15.0987 25.8276 14.6286 25.8276 14.1163C25.8276 12.9494 24.883 12 23.7219 12C22.5609 12 21.6162 12.9494 21.6162 14.1163C21.6162 14.6286 21.7983 15.0988 22.1007 15.4652C21.831 15.6041 21.6001 15.8046 21.4247 16.0478C21.2493 15.8045 21.0184 15.604 20.7485 15.4652C21.0509 15.0988 21.233 14.6286 21.233 14.1163C21.233 12.9494 20.2884 12 19.1273 12C17.9662 12 17.0216 12.9494 17.0216 14.1163C17.0216 14.6286 17.2038 15.0988 17.5062 15.4654C17.2364 15.6041 17.0055 15.8046 16.83 16.0479C16.6546 15.8046 16.4237 15.6041 16.1539 15.4652C16.4563 15.0988 16.6384 14.6286 16.6384 14.1164C16.6384 12.9494 15.6937 12 14.5327 12C13.3717 12 12.4271 12.9494 12.4271 14.1164C12.4271 14.6286 12.6092 15.0988 12.9116 15.4654C12.2875 15.7862 11.8704 16.4368 11.8704 17.1854V18.8523C11.8704 19.3421 12.267 19.7407 12.7543 19.7407ZM23.7221 12.7338C24.4805 12.7338 25.0977 13.3539 25.0977 14.1163C25.0977 14.8786 24.4805 15.4988 23.7221 15.4988C22.9635 15.4988 22.3465 14.8787 22.3465 14.1163C22.3464 13.3539 22.9635 12.7338 23.7221 12.7338ZM22.7736 16.0049C23.0589 16.1502 23.381 16.2326 23.7219 16.2326C24.063 16.2326 24.3851 16.1502 24.6702 16.0049C25.2375 16.1043 25.6542 16.5956 25.6542 17.1853V18.8523C25.6542 18.9376 25.5852 19.0069 25.5004 19.0069H21.9434C21.8588 19.0069 21.7898 18.9376 21.7898 18.8523V17.1853C21.7897 16.5957 22.2065 16.1043 22.7736 16.0049ZM19.1274 12.7338C19.8859 12.7338 20.503 13.3539 20.503 14.1163C20.503 14.8786 19.8859 15.4988 19.1274 15.4988C18.3689 15.4988 17.7519 14.8787 17.7519 14.1163C17.7519 13.3539 18.3689 12.7338 19.1274 12.7338ZM18.1791 16.0049C18.4643 16.1502 18.7864 16.2326 19.1274 16.2326C19.4685 16.2326 19.7905 16.1502 20.0757 16.0049C20.6429 16.1043 21.0597 16.5956 21.0597 17.1853V18.8523C21.0597 18.9376 20.9908 19.0069 20.9059 19.0069H17.3489C17.2641 19.0069 17.1952 18.9376 17.1952 18.8523V17.1853C17.1952 16.5957 17.612 16.1043 18.1791 16.0049ZM14.5328 12.7338C15.2912 12.7338 15.9084 13.3539 15.9084 14.1163C15.9084 14.8786 15.2912 15.4988 14.5328 15.4988C13.7744 15.4988 13.1572 14.8786 13.1572 14.1163C13.1572 13.3539 13.7744 12.7338 14.5328 12.7338ZM12.6005 17.1853C12.6005 16.5957 13.0173 16.1043 13.5845 16.0049C13.8698 16.1502 14.1917 16.2326 14.5328 16.2326C14.8739 16.2326 15.1958 16.1502 15.4811 16.0049C16.0484 16.1043 16.4651 16.5956 16.4651 17.1853V18.8523C16.4651 18.9376 16.3961 19.0069 16.3113 19.0069H12.7543C12.6695 19.0069 12.6005 18.9376 12.6005 18.8523V17.1853Z" fill="#1D478E"/>
<path d="M28.5274 19.6371C28.2281 19.3609 27.8208 19.1903 27.41 19.169C26.9436 19.1449 26.5066 19.3112 26.1811 19.6368L23.9573 21.8373C23.9133 21.7612 23.8631 21.6893 23.8068 21.6226C23.5332 21.2977 23.1331 21.1189 22.6804 21.1189H19.5673C18.9803 21.1189 18.4076 21.0428 17.8653 20.8928C16.4514 20.5017 15.1007 20.7873 13.9589 21.7193C13.4946 22.0984 13.1558 22.5107 12.9416 22.8113L12.3834 22.2696C12.31 22.1983 12.2106 22.1579 12.1082 22.1579C12.1073 22.1579 12.1065 22.1579 12.1056 22.1579C11.9995 22.1586 11.897 22.2027 11.8234 22.279L9.10996 25.096C9.03733 25.1714 8.99781 25.2727 9.00009 25.3774C9.00238 25.4822 9.04618 25.5817 9.12201 25.6538L13.7114 30.0238C13.7876 30.0963 13.8852 30.1325 13.9827 30.1325C14.0851 30.1325 14.1875 30.0926 14.2645 30.0136L16.9527 27.2557C17.0261 27.1803 17.0668 27.0773 17.0649 26.9721C17.0629 26.8683 17.0194 26.7682 16.9449 26.6959L16.7108 26.4688L17.2466 26.4085C17.5707 26.3709 17.9003 26.3518 18.2265 26.3518H22.963C23.7327 26.3518 24.3864 26.1835 24.9061 25.8514C24.9103 25.8487 24.9146 25.8458 24.9189 25.8429C25.105 25.7135 25.274 25.5602 25.4207 25.3873L28.6126 21.6322C29.1589 20.9897 29.1247 20.1878 28.5274 19.6371ZM13.9725 29.186L9.95118 25.3569L12.1175 23.1079L16.1153 26.9875L13.9725 29.186ZM28.0131 21.1226L24.8212 24.8778C24.7199 24.9969 24.6038 25.1028 24.4758 25.1926C24.0856 25.4396 23.5767 25.565 22.963 25.565H18.2264C17.8701 25.565 17.5098 25.5859 17.1572 25.627L15.9795 25.7591L13.5137 23.3662C13.685 23.1122 14.0001 22.7016 14.4565 22.3289C15.4053 21.5544 16.4817 21.3263 17.6555 21.6511C18.2662 21.8201 18.9093 21.9058 19.5673 21.9058H22.6804C23.2395 21.9058 23.3887 22.3901 23.3887 22.6762C23.3887 22.8853 23.3216 23.0843 23.2046 23.2222C23.0776 23.3716 22.8971 23.4473 22.6681 23.4473H19.9581C19.7408 23.4473 19.5647 23.6235 19.5647 23.8408C19.5647 24.0581 19.7408 24.2342 19.9581 24.2342H22.6681C23.1255 24.2342 23.529 24.0556 23.8042 23.7315C24.0333 23.4621 24.1639 23.1077 24.1749 22.729L26.7361 20.1947C27.1021 19.8286 27.674 19.9205 27.994 20.2156C28.1594 20.3682 28.3819 20.6888 28.0131 21.1226Z" fill="#1D478E"/>
<defs>
<linearGradient id="paint0_linear_99_287" x1="0" y1="20" x2="40" y2="20" gradientUnits="userSpaceOnUse">
<stop stop-color="#8FD1EC"/>
<stop offset="1" stop-color="#229ACE"/>
</linearGradient>
</defs>
</svg>
