<svg width="350" height="361" viewBox="0 0 350 361" fill="none" xmlns="http://www.w3.org/2000/svg">
<g clip-path="url(#clip0_912_1437)">
<path d="M96.2282 289.051C96.2282 289.051 96.2074 289.051 96.1949 289.051C96.0327 289.034 95.9162 288.889 95.937 288.726C95.9495 288.618 97.1811 277.718 100.06 266.378C103.942 251.082 108.823 242.307 114.561 240.307C116.912 239.483 119.026 239.691 120.831 240.914C125.596 244.141 127.023 253.519 127.426 257.607C128.333 253.839 130.672 244.935 134.462 235.849C139.069 224.807 146.829 211.229 157.63 209.241C174.919 206.068 182.479 225.61 184.538 232.301C184.547 229.556 184.713 224.691 185.595 219.796C187.372 209.923 191.246 204.413 196.801 203.856C200.47 203.481 203.82 206.625 206.475 212.934C207.731 215.924 208.563 218.985 209.004 220.827C209.824 214.427 213.311 192.769 223.401 188.889C227.479 187.321 232.143 188.889 237.261 193.555C237.382 193.663 237.39 193.85 237.282 193.966C237.173 194.087 236.986 194.095 236.866 193.987C231.922 189.483 227.462 187.953 223.609 189.433C217.742 191.687 214.189 200.566 212.242 207.619C210.115 215.309 209.391 222.553 209.387 222.628C209.375 222.774 209.254 222.886 209.108 222.89C208.959 222.907 208.834 222.794 208.809 222.653C208.771 222.462 205.139 203.623 196.863 204.442C184.056 205.723 185.146 234.26 185.158 234.547C185.167 234.697 185.054 234.83 184.905 234.85C184.751 234.875 184.613 234.771 184.58 234.626C184.563 234.555 182.907 227.377 178.767 220.765C173.25 211.953 166.177 208.268 157.738 209.823C137.504 213.545 127.668 259.146 127.572 259.607C127.543 259.753 127.418 259.853 127.26 259.84C127.114 259.828 126.998 259.707 126.99 259.561C126.981 259.42 126.291 245.322 120.503 241.405C118.855 240.29 116.92 240.107 114.757 240.864C101.492 245.493 96.5736 288.36 96.5237 288.793C96.507 288.943 96.378 289.055 96.2324 289.055L96.2282 289.051Z" fill="#32B353"/>
<path d="M93.3243 289.872C93.3243 289.872 89.1817 216.451 108.149 227.558C108.149 227.558 108.244 189.223 118.501 189.223C128.759 189.223 129.51 236.382 129.51 236.382C129.51 236.382 128.833 206.428 138.472 206.903C153.107 207.623 150.293 269.864 150.293 269.864C150.293 269.864 157.076 249.298 172.677 259.497C183.528 266.59 179.41 289.971 179.41 289.971L93.3284 289.877L93.3243 289.872Z" fill="#32B353"/>
<path d="M237.739 291.409H93.1492C92.8246 291.409 92.5625 291.147 92.5625 290.822V163.654C92.5625 163.329 92.8246 163.067 93.1492 163.067H237.739C238.064 163.067 238.326 163.329 238.326 163.654V290.822C238.326 291.147 238.064 291.409 237.739 291.409ZM93.7359 290.236H237.153V164.24H93.7359V290.236Z" fill="#161742"/>
<path d="M165.444 291.409C165.12 291.409 164.857 291.147 164.857 290.822V163.654C164.857 163.329 165.12 163.067 165.444 163.067C165.769 163.067 166.031 163.329 166.031 163.654V290.822C166.031 291.147 165.769 291.409 165.444 291.409Z" fill="#161742"/>
<path d="M237.739 215.48H93.1492C92.8246 215.48 92.5625 215.218 92.5625 214.893C92.5625 214.569 92.8246 214.307 93.1492 214.307H237.739C238.064 214.307 238.326 214.569 238.326 214.893C238.326 215.218 238.064 215.48 237.739 215.48Z" fill="#161742"/>
<path d="M143.387 326.105C151.208 317.455 150.512 304.126 141.831 296.332C133.15 288.539 119.772 289.233 111.951 297.882C104.129 306.531 104.825 319.861 113.506 327.654C122.187 335.448 135.565 334.754 143.387 326.105Z" fill="#AF8E2F"/>
<path d="M147.176 316.89C149.897 306.152 143.366 295.249 132.589 292.537C121.811 289.826 110.869 296.333 108.148 307.072C105.427 317.81 111.958 328.713 122.735 331.425C133.512 334.136 144.455 327.629 147.176 316.89Z" fill="#FFD840"/>
<path d="M143.296 315.237C145.102 306.631 139.564 298.196 130.927 296.396C122.29 294.597 113.824 300.115 112.018 308.721C110.212 317.327 115.75 325.762 124.387 327.561C133.024 329.361 141.49 323.843 143.296 315.237Z" fill="#FFD325"/>
<path d="M124.414 313.262L121.523 311.91L122.652 309.576L125.542 310.928C126.906 311.565 128.582 310.922 129.274 309.485C129.966 308.049 129.424 306.359 128.061 305.722L125.033 304.304L126.162 301.971L129.189 303.388C131.773 304.597 132.803 307.795 131.492 310.519C130.174 313.243 127.004 314.471 124.42 313.256L124.414 313.262Z" fill="#AF8E2F"/>
<path d="M133.509 312.898L123.214 308.075L124.336 305.741L134.637 310.564L133.509 312.898Z" fill="#AF8E2F"/>
<path d="M135.328 309.128L125.033 304.304L126.162 301.971L136.457 306.794L135.328 309.128Z" fill="#AF8E2F"/>
<path d="M126.273 320.653L123.943 311.169L121.536 311.916L123.343 319.281L126.273 320.653Z" fill="#AF8E2F"/>
<g style="mix-blend-mode:screen" opacity="0.23">
<path d="M148.096 317.487L139.791 294.703C138.062 293.501 136.118 292.532 133.997 291.869C133.795 291.804 133.593 291.759 133.391 291.707L145.127 323.897C146.282 322.213 147.222 320.334 147.861 318.287C147.946 318.02 148.017 317.747 148.089 317.481L148.096 317.487Z" fill="#FFD325"/>
</g>
<g style="mix-blend-mode:screen" opacity="0.23">
<path d="M112.814 296.979L125.947 332.997C129.64 333.303 133.267 332.62 136.516 331.132L122.124 291.655C118.627 292.604 115.411 294.43 112.814 296.979Z" fill="#FFD325"/>
</g>
<path d="M137.396 270.477C137.396 270.477 155.488 270.847 165.578 273.534C175.668 276.216 202.847 305.909 208.643 318.103C216.366 334.346 210.553 346.307 189.786 346.581C167.925 346.872 111 345.937 111 345.937C111 345.937 67.1652 348.39 62.738 339.769C56.4301 327.489 61.6146 316.967 71.7171 299.48C81.2455 282.991 95.1803 264.88 109.531 269.841C123.882 274.798 137.392 270.481 137.392 270.481L137.396 270.477Z" fill="#1D478E"/>
<path d="M161.571 290.892C161.538 290.892 161.5 290.884 161.467 290.871C161.317 290.813 161.238 290.647 161.297 290.493L167.08 275.189C167.138 275.039 167.305 274.964 167.459 275.019C167.609 275.077 167.688 275.243 167.629 275.397L161.846 290.701C161.8 290.817 161.692 290.892 161.571 290.892Z" fill="#161742"/>
<path d="M109.574 288.538C109.544 288.552 109.506 288.56 109.471 288.563C109.31 288.573 109.169 288.455 109.157 288.291L107.981 271.974C107.971 271.814 108.091 271.676 108.253 271.66C108.413 271.65 108.555 271.768 108.567 271.932L109.743 288.249C109.75 288.374 109.683 288.487 109.574 288.538Z" fill="#161742"/>
<path d="M135.023 280.74C134.873 280.775 134.721 280.692 134.676 280.54C134.626 280.385 134.715 280.219 134.871 280.173C140.549 278.406 139.539 271.284 139.53 271.21C139.504 271.049 139.62 270.906 139.776 270.877C139.936 270.852 140.087 270.962 140.108 271.123C140.118 271.202 141.199 278.819 135.043 280.735C135.035 280.737 135.031 280.738 135.023 280.74Z" fill="#161742"/>
<path d="M182.75 322.461C182.671 322.461 182.588 322.428 182.53 322.361L168.844 306.866C168.736 306.745 168.749 306.558 168.869 306.454C168.99 306.346 169.177 306.358 169.281 306.479L182.966 321.974C183.075 322.095 183.062 322.282 182.941 322.386C182.887 322.436 182.817 322.461 182.746 322.461H182.75Z" fill="#161742"/>
<path d="M311.418 342.283H28.5867C28.2621 342.283 28 342.021 28 341.696C28 341.371 28.2621 341.109 28.5867 341.109H311.418C311.742 341.109 312.004 341.371 312.004 341.696C312.004 342.021 311.742 342.283 311.418 342.283Z" fill="#161742"/>
<path d="M231.73 296.227C231.54 295.179 231.253 294.142 230.929 293.115L232.606 302.228C232.336 300.224 232.092 298.215 231.73 296.227Z" fill="#32B353"/>
<path d="M236.722 315.965L234.265 302.644C234.411 303.692 234.563 304.734 234.714 305.766C234.482 304.47 234.298 303.168 234.125 301.866L232.404 292.537C231.771 290.55 230.986 288.589 230.375 286.606C228.189 279.546 225.857 272.529 223.368 265.567C222.399 262.86 221.371 260.095 219.494 257.923C219.142 260.862 219.386 263.39 219.402 264.503C219.429 266.852 219.521 269.202 219.683 271.546C219.932 275.214 220.473 278.844 220.987 282.479C221.485 286.001 221.371 289.653 221.75 293.234C221.707 293.126 221.658 293.024 221.615 292.921L227.669 314.598C228.4 314.803 229.174 314.917 229.92 315.019C232.187 315.333 234.455 315.651 236.722 315.965Z" fill="#32B353"/>
<path d="M231.286 318.817C231.107 318.817 230.956 318.682 230.939 318.504C230.09 309.337 228.001 300.192 225.983 291.344C224.046 282.853 222.039 274.075 221.124 265.27C221.103 265.081 221.243 264.908 221.433 264.892C221.622 264.87 221.795 265.011 221.811 265.2C222.72 273.961 224.722 282.723 226.654 291.193C228.678 300.062 230.772 309.235 231.627 318.444C231.643 318.633 231.502 318.801 231.313 318.823C231.302 318.823 231.291 318.823 231.28 318.823L231.286 318.817Z" fill="#161742"/>
<path d="M212.164 281.226C215.697 287.848 218.641 294.784 220.957 301.925C221.568 303.805 222.125 305.706 222.829 307.554C223.418 309.12 225.155 311.416 225.107 312.966C225.231 313.063 225.372 313.161 225.512 313.258C225.648 313.35 225.778 313.447 225.902 313.55C226.513 314.068 227.244 314.387 228.018 314.603L221.963 292.926C219.966 288.167 216.509 284.029 212.169 281.231L212.164 281.226Z" fill="#32B353"/>
<path d="M224.519 308.58C224.378 308.58 224.243 308.494 224.194 308.348L217.739 290.214C217.674 290.036 217.771 289.836 217.95 289.771C218.129 289.707 218.329 289.804 218.394 289.982L224.849 308.116C224.914 308.294 224.816 308.494 224.638 308.558C224.6 308.575 224.562 308.58 224.524 308.58H224.519Z" fill="#161742"/>
<path d="M248.27 307.645L249.476 300.736C248.935 303.016 248.535 305.322 248.27 307.645Z" fill="#32B353"/>
<path d="M248.654 238.832C242.043 258.451 239.067 279.286 239.921 299.969C239.851 299.213 239.775 298.451 239.705 297.695L240.901 316.779C241.913 316.919 242.924 317.06 243.931 317.2C244.829 317.325 245.765 317.438 246.701 317.497L248.351 308.034C249.082 296.652 251.003 285.368 251.874 273.987C252.777 262.173 252.496 250.046 248.654 238.832Z" fill="#32B353"/>
<path d="M241.253 327.988C241.215 327.988 241.182 327.983 241.145 327.972C240.961 327.913 240.863 327.718 240.923 327.535C243.26 320.28 243.72 312.539 244.164 305.058L247.367 251.106C247.378 250.917 247.545 250.766 247.735 250.782C247.924 250.793 248.07 250.955 248.06 251.149L244.856 305.101C244.407 312.626 243.947 320.41 241.583 327.751C241.534 327.897 241.399 327.988 241.253 327.988Z" fill="#161742"/>
<path d="M240.429 297.696C238.308 275.635 235.749 253.326 227.411 232.816C225.766 238.185 226.296 243.949 226.88 249.534C228.671 266.706 230.841 285.374 233.292 302.644L235.749 315.964C237.707 316.234 239.666 316.51 241.63 316.78L240.434 297.696H240.429Z" fill="#32B353"/>
<path d="M243.42 335.453C243.317 335.453 243.22 335.41 243.149 335.329C240.763 332.428 240.195 328.41 239.735 325.185L228.335 245.051C228.308 244.862 228.437 244.689 228.627 244.662C228.816 244.635 228.989 244.764 229.016 244.953L240.417 325.088C240.866 328.231 241.418 332.142 243.685 334.892C243.804 335.038 243.782 335.259 243.636 335.378C243.571 335.432 243.496 335.459 243.414 335.459L243.42 335.453Z" fill="#161742"/>
<path d="M254.343 302.606C254.451 302.152 254.554 301.699 254.663 301.245L249.084 317.077C249.831 316.829 250.534 316.472 251.167 315.954C252.287 315.035 253.023 313.739 253.721 312.47C257.985 304.729 261.972 296.837 265.684 288.821C267.026 285.915 268.357 282.901 268.482 279.708C262.129 286.152 257.254 294.05 254.349 302.617L254.343 302.606Z" fill="#32B353"/>
<path d="M251.122 318.141C251.084 318.141 251.041 318.136 251.003 318.12C250.824 318.055 250.732 317.855 250.797 317.677C254.693 307.041 259.211 296.491 264.21 286.325C264.297 286.153 264.503 286.082 264.676 286.169C264.849 286.255 264.919 286.46 264.833 286.633C259.839 296.778 255.337 307.306 251.446 317.92C251.398 318.06 251.263 318.147 251.122 318.147V318.141Z" fill="#161742"/>
<path d="M260.634 278.385C257.582 279.725 255.575 282.674 253.989 285.602C251.479 290.237 249.59 295.206 248.373 300.333L247.139 307.409C247.069 308.052 246.999 308.7 246.95 309.348C246.977 308.91 247.004 308.473 247.031 308.03L245.381 317.494C246.89 317.586 248.395 317.515 249.747 317.067L255.326 301.235C257.095 293.618 258.87 285.996 260.639 278.38L260.634 278.385Z" fill="#32B353"/>
<path d="M249.035 315.192C249.035 315.192 249.003 315.192 248.986 315.192C248.797 315.165 248.667 314.992 248.689 314.803C250.128 304.362 252.909 294.131 256.951 284.397C257.027 284.219 257.227 284.138 257.406 284.208C257.584 284.284 257.665 284.484 257.595 284.662C253.575 294.342 250.81 304.519 249.376 314.901C249.354 315.073 249.203 315.198 249.035 315.198V315.192Z" fill="#161742"/>
<path d="M259.892 308.796L258.767 325.531L258.572 328.383L257.657 341.984H220.426L219.695 327.654L219.576 325.304L218.684 307.862L259.892 308.796Z" fill="#161742"/>
<g style="mix-blend-mode:multiply">
<path d="M259.889 308.796L259.662 312.189L221.494 311.314L220.304 339.721L218.681 307.862L259.889 308.796Z" fill="#1D478E"/>
</g>
<path d="M163.363 251.473C161.276 254.061 162.725 258.895 166.582 263.63L175.957 252.005C170.498 249.262 165.457 248.881 163.368 251.474L163.363 251.473Z" fill="#AF8E2F"/>
<path d="M179.889 254.37L169.74 266.956C170.276 267.448 170.834 267.939 171.419 268.418L181.68 255.693C181.086 255.226 180.487 254.784 179.889 254.37Z" fill="#AF8E2F"/>
<path d="M192.183 270.311L165.464 248.873L162.948 251.994L189.667 273.432L192.183 270.311Z" fill="#AF8E2F"/>
<path d="M190.077 272.913C191.776 270.807 191.133 267.222 188.767 263.412L180.497 273.673C184.734 275.165 188.383 275.02 190.082 272.915L190.077 272.913Z" fill="#AF8E2F"/>
<path d="M175.954 252.004L166.579 263.629C167.497 264.753 168.564 265.877 169.739 266.96L179.888 254.374C178.573 253.461 177.253 252.664 175.953 252.009L175.954 252.004Z" fill="#D6B11E"/>
<path d="M181.856 255.824C181.797 255.781 181.744 255.739 181.685 255.695L171.423 268.421C171.48 268.469 171.532 268.516 171.586 268.558C174.545 270.936 177.654 272.671 180.492 273.666L188.763 263.405C187.174 260.849 184.813 258.196 181.851 255.822L181.856 255.824Z" fill="#D6B11E"/>
<path d="M191.602 271.012C194.438 267.495 190.756 259.845 183.378 253.925C176 248.006 167.72 246.058 164.884 249.576C162.048 253.094 165.73 260.744 173.108 266.663C180.486 272.583 188.766 274.53 191.602 271.012Z" fill="#AF8E2F"/>
<path d="M191.989 270.535C194.825 267.018 191.143 259.368 183.766 253.448C176.388 247.529 168.108 245.582 165.272 249.099C162.436 252.617 166.118 260.267 173.495 266.186C180.873 272.106 189.153 274.053 191.989 270.535Z" fill="#FFD840"/>
<path d="M189.255 268.345C187.074 271.053 180.547 269.433 174.68 264.722C168.816 260.014 165.826 254.004 168.013 251.293C170.194 248.585 176.721 250.206 182.589 254.916C188.452 259.625 191.442 265.634 189.255 268.345Z" fill="#FFD325"/>
<path d="M175.218 257.813L174.266 255.601L176.109 255.971L177.061 258.184C177.511 259.227 178.8 260.263 179.935 260.493C181.071 260.722 181.63 260.058 181.18 259.015L180.181 256.699L182.024 257.07L183.023 259.386C183.878 261.364 182.82 262.618 180.667 262.188C178.514 261.758 176.071 259.796 175.217 257.818L175.218 257.813Z" fill="#AF8E2F"/>
<path d="M180.6 263.98L177.203 256.099L179.046 256.47L182.444 264.35L180.6 263.98Z" fill="#AF8E2F"/>
<path d="M183.585 264.582L180.183 256.7L182.026 257.07L185.428 264.952L183.585 264.582Z" fill="#AF8E2F"/>
<path d="M172.471 260.358L176.023 257.135L174.267 255.611L171.502 258.118L172.471 260.358Z" fill="#AF8E2F"/>
</g>
<path d="M168.987 316.417C176.809 307.768 176.113 294.438 167.432 286.645C158.751 278.851 145.373 279.545 137.551 288.195C129.729 296.844 130.426 310.174 139.107 317.967C147.788 325.761 161.166 325.067 168.987 316.417Z" fill="#AF8E2F"/>
<path d="M172.777 307.203C175.498 296.464 168.967 285.561 158.189 282.85C147.412 280.139 136.469 286.646 133.748 297.384C131.027 308.123 137.558 319.026 148.335 321.737C159.113 324.448 170.056 317.941 172.777 307.203Z" fill="#FFD840"/>
<path d="M168.897 305.549C170.703 296.943 165.165 288.508 156.528 286.709C147.891 284.909 139.425 290.427 137.619 299.033C135.813 307.639 141.35 316.074 149.988 317.874C158.625 319.673 167.091 314.155 168.897 305.549Z" fill="#FFD325"/>
<path d="M150.014 303.575L147.124 302.222L148.253 299.889L151.143 301.241C152.506 301.878 154.183 301.234 154.875 299.798C155.566 298.361 155.025 296.671 153.661 296.034L150.634 294.617L151.763 292.283L154.79 293.7C157.373 294.91 158.404 298.108 157.093 300.831C155.775 303.555 152.604 304.784 150.021 303.568L150.014 303.575Z" fill="#AF8E2F"/>
<path d="M159.109 303.211L148.814 298.388L149.937 296.054L160.238 300.878L159.109 303.211Z" fill="#AF8E2F"/>
<path d="M160.929 299.441L150.634 294.617L151.762 292.284L162.057 297.107L160.929 299.441Z" fill="#AF8E2F"/>
<path d="M151.873 310.966L149.544 301.482L147.137 302.229L148.944 309.594L151.873 310.966Z" fill="#AF8E2F"/>
<g style="mix-blend-mode:screen" opacity="0.23">
<path d="M173.696 307.8L165.391 285.016C163.662 283.813 161.718 282.845 159.598 282.182C159.396 282.117 159.193 282.071 158.991 282.019L170.728 314.209C171.883 312.526 172.822 310.647 173.461 308.599C173.546 308.333 173.618 308.06 173.69 307.793L173.696 307.8Z" fill="#FFD325"/>
</g>
<g style="mix-blend-mode:screen" opacity="0.23">
<path d="M138.415 287.291L151.548 323.31C155.24 323.615 158.868 322.933 162.117 321.444L147.725 281.967C144.228 282.916 141.012 284.743 138.415 287.291Z" fill="#FFD325"/>
</g>
<path d="M191.438 329.772C196.461 324.219 196.013 315.66 190.44 310.656C184.866 305.652 176.276 306.098 171.254 311.651C166.231 317.205 166.679 325.764 172.252 330.768C177.826 335.772 186.416 335.326 191.438 329.772Z" fill="#AF8E2F"/>
<path d="M193.872 323.856C195.619 316.961 191.425 309.96 184.505 308.219C177.585 306.479 170.559 310.657 168.812 317.552C167.065 324.447 171.258 331.447 178.178 333.188C185.098 334.929 192.124 330.751 193.872 323.856Z" fill="#FFD840"/>
<path d="M191.38 322.794C192.54 317.269 188.984 311.852 183.438 310.697C177.892 309.542 172.456 313.085 171.297 318.61C170.137 324.136 173.693 329.552 179.239 330.708C184.785 331.863 190.221 328.32 191.38 322.794Z" fill="#FFD325"/>
<path d="M179.256 321.526L177.4 320.658L178.125 319.16L179.981 320.028C180.856 320.437 181.933 320.024 182.377 319.101C182.821 318.179 182.473 317.093 181.598 316.684L179.654 315.775L180.379 314.276L182.322 315.186C183.981 315.962 184.643 318.016 183.801 319.765C182.955 321.514 180.919 322.302 179.26 321.522L179.256 321.526Z" fill="#AF8E2F"/>
<path d="M185.096 321.293L178.485 318.196L179.206 316.697L185.82 319.794L185.096 321.293Z" fill="#AF8E2F"/>
<path d="M186.264 318.872L179.654 315.775L180.379 314.276L186.989 317.373L186.264 318.872Z" fill="#AF8E2F"/>
<path d="M180.449 326.272L178.954 320.183L177.408 320.663L178.569 325.392L180.449 326.272Z" fill="#AF8E2F"/>
<g style="mix-blend-mode:screen" opacity="0.23">
<path d="M194.462 324.239L189.13 309.61C188.02 308.838 186.771 308.216 185.41 307.79C185.28 307.748 185.15 307.719 185.021 307.686L192.556 328.354C193.298 327.273 193.901 326.067 194.312 324.752C194.366 324.581 194.412 324.406 194.458 324.235L194.462 324.239Z" fill="#FFD325"/>
</g>
<g style="mix-blend-mode:screen" opacity="0.23">
<path d="M171.809 311.071L180.241 334.198C182.612 334.394 184.941 333.956 187.027 333L177.786 307.653C175.541 308.262 173.476 309.435 171.809 311.071Z" fill="#FFD325"/>
</g>
<path d="M132.155 318.355C139.977 309.705 139.281 296.376 130.6 288.582C121.919 280.789 108.541 281.483 100.719 290.132C92.8974 298.781 93.5938 312.111 102.275 319.904C110.956 327.698 124.334 327.004 132.155 318.355Z" fill="#AF8E2F"/>
<path d="M135.945 309.14C138.666 298.402 132.135 287.498 121.357 284.787C110.58 282.076 99.6373 288.583 96.9162 299.322C94.1951 310.06 100.726 320.963 111.503 323.674C122.281 326.386 133.224 319.878 135.945 309.14Z" fill="#FFD840"/>
<path d="M132.065 307.487C133.871 298.881 128.333 290.445 119.696 288.646C111.059 286.846 102.593 292.364 100.787 300.97C98.9806 309.576 104.518 318.011 113.156 319.811C121.793 321.61 130.259 316.092 132.065 307.487Z" fill="#FFD325"/>
<path d="M113.182 305.512L110.292 304.16L111.421 301.827L114.311 303.179C115.674 303.816 117.351 303.172 118.043 301.736C118.734 300.299 118.193 298.609 116.829 297.972L113.802 296.555L114.931 294.221L117.958 295.638C120.541 296.847 121.572 300.045 120.261 302.769C118.943 305.493 115.772 306.721 113.189 305.506L113.182 305.512Z" fill="#AF8E2F"/>
<path d="M122.277 305.148L111.982 300.325L113.105 297.991L123.406 302.815L122.277 305.148Z" fill="#AF8E2F"/>
<path d="M124.097 301.378L113.802 296.555L114.93 294.221L125.225 299.044L124.097 301.378Z" fill="#AF8E2F"/>
<path d="M115.041 312.903L112.712 303.419L110.305 304.166L112.112 311.531L115.041 312.903Z" fill="#AF8E2F"/>
<g style="mix-blend-mode:screen" opacity="0.23">
<path d="M136.864 309.737L128.559 286.953C126.83 285.751 124.886 284.782 122.766 284.119C122.564 284.054 122.361 284.008 122.159 283.956L133.896 316.146C135.051 314.463 135.99 312.584 136.629 310.537C136.714 310.27 136.786 309.997 136.858 309.731L136.864 309.737Z" fill="#FFD325"/>
</g>
<g style="mix-blend-mode:screen" opacity="0.23">
<path d="M101.583 289.229L114.716 325.247C118.408 325.553 122.036 324.87 125.285 323.382L110.893 283.905C107.396 284.854 104.18 286.68 101.583 289.229Z" fill="#FFD325"/>
</g>
<path d="M165.11 335.792C172.932 327.142 172.236 313.813 163.555 306.019C154.874 298.226 141.496 298.92 133.674 307.569C125.852 316.218 126.549 329.548 135.23 337.341C143.911 345.135 157.289 344.441 165.11 335.792Z" fill="#AF8E2F"/>
<path d="M168.9 326.577C171.621 315.838 165.09 304.935 154.312 302.224C143.535 299.513 132.592 306.02 129.871 316.758C127.15 327.497 133.681 338.4 144.459 341.111C155.236 343.822 166.179 337.315 168.9 326.577Z" fill="#FFD840"/>
<path d="M165.02 324.924C166.826 316.318 161.288 307.882 152.651 306.083C144.014 304.283 135.548 309.801 133.742 318.407C131.936 327.013 137.474 335.448 146.111 337.248C154.748 339.047 163.214 333.53 165.02 324.924Z" fill="#FFD325"/>
<path d="M146.137 322.949L143.247 321.597L144.376 319.263L147.266 320.615C148.629 321.252 150.306 320.609 150.998 319.172C151.689 317.736 151.148 316.045 149.784 315.408L146.757 313.991L147.886 311.658L150.913 313.075C153.496 314.284 154.527 317.482 153.216 320.206C151.898 322.929 148.727 324.158 146.144 322.942L146.137 322.949Z" fill="#AF8E2F"/>
<path d="M155.232 322.585L144.938 317.762L146.06 315.428L156.361 320.252L155.232 322.585Z" fill="#AF8E2F"/>
<path d="M157.052 318.815L146.757 313.991L147.885 311.658L158.18 316.481L157.052 318.815Z" fill="#AF8E2F"/>
<path d="M147.996 330.34L145.667 320.856L143.26 321.604L145.067 328.969L147.996 330.34Z" fill="#AF8E2F"/>
<g style="mix-blend-mode:screen" opacity="0.23">
<path d="M169.819 327.174L161.514 304.39C159.785 303.188 157.841 302.219 155.721 301.556C155.519 301.491 155.317 301.446 155.114 301.394L166.851 333.584C168.006 331.9 168.945 330.021 169.585 327.974C169.669 327.707 169.741 327.434 169.813 327.168L169.819 327.174Z" fill="#FFD325"/>
</g>
<g style="mix-blend-mode:screen" opacity="0.23">
<path d="M134.538 306.665L147.671 342.684C151.364 342.989 154.991 342.307 158.24 340.818L143.848 301.341C140.351 302.29 137.135 304.117 134.538 306.665Z" fill="#FFD325"/>
</g>
<path d="M123.935 337.676C129.848 331.137 129.321 321.06 122.759 315.169C116.197 309.277 106.083 309.802 100.17 316.34C94.2573 322.879 94.7838 332.956 101.346 338.847C107.909 344.739 118.022 344.214 123.935 337.676Z" fill="#AF8E2F"/>
<path d="M126.799 330.71C128.856 322.592 123.919 314.35 115.772 312.3C107.624 310.251 99.352 315.17 97.2949 323.288C95.2379 331.406 100.175 339.648 108.322 341.698C116.47 343.747 124.742 338.828 126.799 330.71Z" fill="#FFD840"/>
<path d="M123.866 329.46C125.232 322.955 121.045 316.578 114.516 315.217C107.986 313.857 101.586 318.028 100.221 324.534C98.8558 331.04 103.042 337.417 109.572 338.777C116.101 340.137 122.501 335.966 123.866 329.46Z" fill="#FFD325"/>
<path d="M109.592 327.967L107.407 326.945L108.26 325.181L110.445 326.203C111.476 326.684 112.744 326.198 113.266 325.112C113.789 324.026 113.38 322.748 112.349 322.267L110.061 321.195L110.914 319.431L113.202 320.502C115.155 321.416 115.935 323.834 114.943 325.893C113.947 327.952 111.55 328.881 109.597 327.962L109.592 327.967Z" fill="#AF8E2F"/>
<path d="M116.467 327.692L108.685 324.046L109.533 322.282L117.32 325.928L116.467 327.692Z" fill="#AF8E2F"/>
<path d="M117.843 324.842L110.061 321.196L110.914 319.431L118.696 323.078L117.843 324.842Z" fill="#AF8E2F"/>
<path d="M110.998 333.555L109.237 326.385L107.417 326.95L108.783 332.518L110.998 333.555Z" fill="#AF8E2F"/>
<g style="mix-blend-mode:screen" opacity="0.23">
<path d="M127.495 331.161L121.217 313.937C119.91 313.028 118.44 312.296 116.838 311.795C116.685 311.746 116.532 311.711 116.379 311.672L125.251 336.006C126.124 334.734 126.835 333.314 127.318 331.766C127.382 331.564 127.436 331.358 127.491 331.156L127.495 331.161Z" fill="#FFD325"/>
</g>
<g style="mix-blend-mode:screen" opacity="0.23">
<path d="M100.823 315.658L110.751 342.887C113.543 343.117 116.285 342.601 118.741 341.476L107.861 311.633C105.218 312.35 102.786 313.731 100.823 315.658Z" fill="#FFD325"/>
</g>
<path d="M146.329 338.237C147.508 331.293 142.827 324.727 135.873 323.569C128.92 322.412 122.328 327.103 121.15 334.046C119.971 340.99 124.652 347.556 131.605 348.714C138.559 349.871 145.151 345.18 146.329 338.237Z" fill="#AF8E2F"/>
<path d="M145.269 332.313C143.171 325.958 136.304 322.52 129.932 324.632C123.56 326.744 120.096 333.608 122.194 339.962C124.293 346.317 131.16 349.755 137.532 347.643C143.904 345.531 147.368 338.667 145.269 332.313Z" fill="#FFD840"/>
<path d="M142.756 332.728C140.883 327.757 135.323 325.254 130.337 327.137C125.352 329.02 122.829 334.577 124.702 339.548C126.574 344.519 132.134 347.022 137.12 345.139C142.105 343.256 144.629 337.699 142.756 332.728Z" fill="#FFD325"/>
<path d="M132.493 337.844L130.581 338.091L130.399 336.536L132.311 336.288C133.212 336.171 133.858 335.299 133.744 334.343C133.63 333.387 132.806 332.701 131.904 332.819L129.902 333.078L129.719 331.523L131.722 331.264C133.431 331.042 134.994 332.338 135.21 334.151C135.422 335.966 134.205 337.62 132.494 337.838L132.493 337.844Z" fill="#AF8E2F"/>
<path d="M137.009 334.709L130.198 335.589L130.012 334.036L136.827 333.154L137.009 334.709Z" fill="#AF8E2F"/>
<path d="M136.713 332.199L129.901 333.078L129.719 331.523L136.53 330.644L136.713 332.199Z" fill="#AF8E2F"/>
<path d="M135.839 341.008L131.574 336.93L130.59 338.091L133.902 341.258L135.839 341.008Z" fill="#AF8E2F"/>
<g style="mix-blend-mode:screen" opacity="0.23">
<path d="M145.932 332.319L134.305 323.401C133.034 323.349 131.729 323.485 130.433 323.835C130.309 323.867 130.191 323.91 130.071 323.949L146.5 336.547C146.542 335.315 146.411 334.053 146.072 332.803C146.029 332.639 145.977 332.477 145.927 332.318L145.932 332.319Z" fill="#FFD325"/>
</g>
<g style="mix-blend-mode:screen" opacity="0.23">
<path d="M121.296 333.306L139.679 347.404C141.66 346.362 143.287 344.838 144.459 343.026L124.313 327.575C122.839 329.193 121.792 331.166 121.296 333.306Z" fill="#FFD325"/>
</g>
<path d="M155.434 248.007C156.41 239.643 148.894 231.949 138.647 230.817C128.401 229.69 119.836 238.276 119.546 248.247C119.301 256.661 127.557 270.239 140.113 267.147C154.469 263.614 155.238 249.698 155.434 248.007Z" fill="#161742"/>
<path d="M150.679 257.636L150.507 274.38C150.507 274.38 148.507 280.584 142.305 280.133C137.049 279.751 135.976 274.14 135.976 274.14L135.25 261.88L150.679 257.641V257.636Z" fill="#E27B60"/>
<path d="M150.605 264.923C146.227 268.956 139.354 271.426 135.878 272.484L135.25 261.88L150.679 257.642L150.605 264.923Z" fill="#161742"/>
<path d="M151.331 241.794C146.262 234.292 134.216 232.033 126.881 236.982C119.552 241.931 119.709 252.217 124.778 259.714C129.848 267.216 140.379 270.005 147.713 265.055C155.043 260.106 156.401 249.291 151.331 241.789V241.794Z" fill="#E27B60"/>
<path d="M143.511 239.981C143.251 239.53 141.972 239.775 140.658 240.535C139.344 241.294 138.491 242.274 138.751 242.73C139.011 243.181 140.29 242.936 141.604 242.176C142.918 241.417 143.771 240.437 143.511 239.981Z" fill="#161742"/>
<path d="M132.137 247.228C131.852 246.792 130.587 247.106 129.318 247.939C128.048 248.767 127.249 249.796 127.533 250.232C127.817 250.668 129.082 250.355 130.352 249.522C131.622 248.694 132.421 247.665 132.137 247.228Z" fill="#161742"/>
<path d="M130.754 251.292C130.174 252.039 130.311 253.114 131.059 253.694C131.806 254.274 132.882 254.136 133.462 253.389C134.042 252.642 133.904 251.567 133.157 250.987C132.409 250.407 131.334 250.545 130.754 251.292Z" fill="#161742"/>
<path d="M126.93 236.203C133.721 231.45 144.502 233.072 150.174 239.442C148.949 239.829 138.025 239.633 134.741 233.513C134.741 233.513 129.058 249.757 123.901 250.536C123.901 250.536 126.705 254.461 122.896 258.043C118.248 249.154 121.224 240.202 126.935 236.203H126.93Z" fill="#161742"/>
<path d="M147.604 244.303C147.128 241.279 148.893 238.511 151.546 238.119C154.198 237.727 156.738 239.858 157.213 242.882C157.689 245.905 155.924 248.674 153.271 249.066C150.619 249.458 148.079 247.326 147.604 244.303Z" fill="#E27B60"/>
<path d="M151.55 245.876C151.521 245.876 151.487 245.876 151.457 245.861C151.276 245.812 151.168 245.621 151.217 245.435L152.609 240.461C152.663 240.275 152.854 240.172 153.036 240.221C153.217 240.27 153.325 240.461 153.276 240.647L151.884 245.621C151.84 245.773 151.702 245.871 151.55 245.871V245.876Z" fill="#161742"/>
<path d="M154.679 244.95C154.679 244.95 154.63 244.95 154.605 244.94L152.218 244.426C152.031 244.386 151.914 244.2 151.953 244.014C151.992 243.827 152.178 243.715 152.365 243.749L154.752 244.264C154.939 244.303 155.056 244.489 155.017 244.676C154.983 244.837 154.841 244.95 154.679 244.95Z" fill="#161742"/>
<path d="M128.83 258.294C126.766 256.031 123.501 255.678 121.54 257.506C119.574 259.328 119.652 262.641 121.716 264.905C123.78 267.169 127.046 267.522 129.007 265.694C130.973 263.871 130.894 260.558 128.83 258.294Z" fill="#E27B60"/>
<path d="M127.59 262.357C127.59 262.357 127.625 262.308 127.639 262.273C127.713 262.097 127.634 261.896 127.458 261.823L122.702 259.804C122.526 259.73 122.325 259.814 122.251 259.985C122.178 260.161 122.256 260.362 122.433 260.436L127.188 262.455C127.335 262.518 127.497 262.469 127.595 262.352L127.59 262.357Z" fill="#161742"/>
<path d="M124.908 264.214C124.908 264.214 124.937 264.175 124.947 264.15L126.035 261.965C126.119 261.793 126.05 261.588 125.879 261.499C125.707 261.416 125.501 261.49 125.413 261.656L124.324 263.842C124.241 264.013 124.31 264.219 124.481 264.307C124.628 264.381 124.805 264.337 124.903 264.214H124.908Z" fill="#161742"/>
<path d="M143.502 247.15C144.433 247.15 145.188 246.396 145.188 245.465C145.188 244.534 144.433 243.78 143.502 243.78C142.57 243.78 141.815 244.534 141.815 245.465C141.815 246.396 142.57 247.15 143.502 247.15Z" fill="#161742"/>
<path d="M141.118 260.888C140.87 260.888 140.674 260.679 140.674 260.417C140.674 260.155 140.87 259.946 141.118 259.946C145.037 259.946 146.647 255.542 146.66 255.501C146.749 255.253 147.003 255.132 147.237 255.226C147.465 255.32 147.586 255.589 147.497 255.838C147.421 256.046 145.645 260.901 141.118 260.901V260.888Z" fill="#161742"/>
<path d="M123.214 241.794C120.87 245.538 115.649 246.498 111.555 243.936C107.456 241.373 106.035 236.262 108.378 232.518C110.722 228.774 115.943 227.814 120.037 230.377C124.136 232.94 125.557 238.051 123.214 241.794Z" fill="#161742"/>
<path d="M118.326 245.514C118.145 245.514 117.988 245.372 117.983 245.185L117.248 229.309C117.238 229.118 117.385 228.956 117.576 228.946C117.757 228.917 117.929 229.083 117.939 229.275L118.674 245.151C118.684 245.342 118.537 245.504 118.346 245.514C118.341 245.514 118.336 245.514 118.331 245.514H118.326Z" fill="#FFF3EB"/>
<path d="M117.983 238.183C117.983 238.183 117.963 238.183 117.948 238.183L107.226 237.188C107.035 237.168 106.898 237.002 106.912 236.811C106.932 236.619 107.099 236.482 107.29 236.497L118.012 237.492C118.203 237.512 118.34 237.678 118.326 237.87C118.311 238.051 118.159 238.183 117.983 238.183Z" fill="#FFF3EB"/>
<path d="M140.094 254.052C139.917 254.052 139.802 254.033 139.79 254.033C139.626 254.007 139.51 253.84 139.534 253.666C139.559 253.492 139.717 253.369 139.881 253.395C139.887 253.395 140.574 253.498 140.945 253.124C141.152 252.918 141.231 252.583 141.194 252.125C141.176 251.951 141.297 251.79 141.468 251.771C141.626 251.758 141.784 251.88 141.802 252.061C141.863 252.725 141.717 253.24 141.364 253.595C140.975 253.982 140.434 254.052 140.1 254.052H140.094Z" fill="#161742"/>
<path d="M113.261 305.208C118.545 304.294 123.853 303.503 129.173 302.834C131.833 302.5 134.497 302.194 137.165 301.921C139.124 301.721 140.828 301.019 142.694 300.628C143.089 300.542 145.576 308.186 145.798 308.891C146.354 310.649 146.854 312.423 147.297 314.214C147.539 315.201 148.845 317.457 148.546 318.44C148.345 319.096 145.85 320.116 145.213 320.471C143.823 321.25 142.388 321.943 140.937 322.604C138.116 323.893 135.23 325.039 132.425 326.377C126.339 329.281 119.879 331.569 113.6 333.992C110.903 335.032 108.098 335.75 105.41 336.81C102.891 337.805 100.304 338.625 97.6518 339.164C94.1776 339.869 90.6834 340.473 87.177 340.995C85.8752 341.191 84.5654 341.37 83.2515 341.297C80.3054 341.134 76.5894 339.531 75.473 336.618C74.9531 335.26 74.4372 333.914 73.9415 332.56C73.47 331.263 72.9904 329.929 72.9863 328.543C72.9863 327.735 73.1395 326.94 73.3007 326.152C74.0141 322.579 75.0216 319.202 77.4035 316.372C79.6283 313.733 82.5462 311.673 85.6616 310.262C89.8451 308.369 94.7177 307.79 99.2437 307.362C103.955 306.917 108.554 306.02 113.257 305.208H113.261Z" fill="#1D478E"/>
<path d="M80.8736 342.259C80.7904 342.205 80.7363 342.109 80.7405 342.001C80.7488 341.839 80.8861 341.714 81.0442 341.722C100.446 342.583 144.839 320.621 148.396 318.841L142.712 301.246L88.4297 309.006C88.2716 309.027 88.1218 308.918 88.0969 308.756C88.0719 308.598 88.1843 308.448 88.3465 308.424L142.875 300.63C143.016 300.609 143.153 300.693 143.195 300.83L149.029 318.903C149.074 319.041 149.012 319.19 148.883 319.257C148.409 319.498 101.287 343.211 81.0151 342.309C80.961 342.309 80.9111 342.288 80.8694 342.263L80.8736 342.259Z" fill="#161742"/>
<path d="M156.221 317.051L147.233 319.58C145.74 320.002 144.22 319.052 143.863 317.469C143.494 315.843 144.497 314.206 146.059 313.891L155.187 312.037C156.529 311.764 157.806 312.706 158.026 314.122C158.227 315.437 157.444 316.709 156.225 317.051H156.221Z" fill="#E27B60"/>
<path d="M154.757 306.598L143.87 308.976C142.688 309.234 141.829 310.339 141.806 311.63V311.896C141.772 313.655 143.281 314.965 144.888 314.578L155.78 311.938C157.087 311.623 157.953 310.278 157.763 308.862C157.554 307.319 156.186 306.294 154.757 306.605V306.598Z" fill="#E27B60"/>
<path d="M154.24 304.588C154.362 305.758 153.613 306.844 152.485 307.137L145.295 308.994C144.132 309.294 142.931 308.66 142.509 307.524L142.3 306.958C141.787 305.564 142.653 304.045 144.105 303.791L151.504 302.499C152.846 302.264 154.1 303.225 154.24 304.588Z" fill="#E27B60"/>
<path d="M151.812 300.771C151.759 301.702 151.144 302.495 150.323 302.693L144.36 304.106C143.387 304.338 142.456 303.658 142.266 302.583L142.149 301.903C141.943 300.722 142.711 299.571 143.79 299.438L149.871 298.701C150.965 298.568 151.877 299.544 151.809 300.767L151.812 300.771Z" fill="#E27B60"/>
<path d="M144.306 314.741C144.306 314.741 144.31 314.749 144.314 314.753C144.394 314.848 144.538 314.859 144.633 314.779C144.949 314.506 145.671 314.206 146.1 314.118L155.741 312.041C155.817 312.022 157.322 311.6 157.961 310.404C158.291 309.788 158.329 309.086 158.075 308.315C157.14 305.458 153.077 306.579 152.823 306.651L147.058 307.798C146.625 307.885 144.287 308.467 143.702 308.657C143.584 308.695 143.52 308.824 143.558 308.945C143.596 309.067 143.721 309.131 143.843 309.093C144.42 308.907 146.723 308.334 147.149 308.246L152.925 307.099C152.925 307.099 152.941 307.099 152.948 307.095C152.986 307.084 156.828 305.948 157.653 308.463C157.866 309.109 157.839 309.693 157.569 310.191C157.022 311.217 155.658 311.596 155.642 311.6L146.017 313.674C145.522 313.773 144.732 314.103 144.348 314.437C144.257 314.517 144.242 314.654 144.314 314.749L144.306 314.741Z" fill="#161742"/>
<path d="M143.033 304.099C143.09 304.175 143.189 304.209 143.28 304.178C143.85 303.992 147.396 303.316 147.993 303.225C148.551 303.141 150.364 302.8 150.44 302.784C150.474 302.777 153.852 302.184 154.259 304.383C154.404 305.158 154.088 305.796 153.32 306.279C152.712 306.662 152.044 306.799 152.04 306.803C151.918 306.83 151.838 306.947 151.861 307.073C151.884 307.198 152.006 307.278 152.127 307.251C153.168 307.042 155.05 306.153 154.704 304.3C154.312 302.181 151.69 302.089 150.356 302.336C150.337 302.336 148.475 302.689 147.924 302.773C147.362 302.857 143.763 303.54 143.14 303.742C143.022 303.78 142.957 303.909 142.995 304.03C143.003 304.057 143.014 304.08 143.029 304.099H143.033Z" fill="#161742"/>
<path d="M146.799 319.911C146.852 319.983 146.943 320.017 147.034 319.994C147.091 319.979 152.845 318.505 155.178 317.883C157.641 317.225 158.849 315.767 158.5 313.875C158.082 311.612 155.718 311.585 155.695 311.585C155.57 311.585 155.467 311.688 155.467 311.813C155.467 311.938 155.566 312.041 155.691 312.041C155.775 312.041 157.702 312.071 158.055 313.959C158.363 315.607 157.299 316.846 155.064 317.442C152.731 318.065 146.981 319.539 146.924 319.55C146.803 319.58 146.73 319.706 146.761 319.827C146.768 319.858 146.784 319.884 146.799 319.911Z" fill="#161742"/>
<rect x="162.16" y="321.939" width="44.587" height="19.3746" fill="#1D478E"/>
<path d="M162.452 342.282C162.289 342.282 162.16 342.174 162.16 342.044V322.177C162.16 322.043 162.289 321.939 162.452 321.939H207.424C207.587 321.939 207.716 322.047 207.716 322.177C207.716 322.307 207.583 322.415 207.424 322.415H162.744V342.044C162.744 342.177 162.611 342.282 162.452 342.282Z" fill="#161742"/>
<path d="M159.185 321.449L168.794 322.04C170.392 322.138 171.548 323.579 171.356 325.239C171.16 326.946 169.628 328.198 167.999 327.975L158.484 326.679C157.086 326.487 156.161 325.141 156.432 323.688C156.682 322.341 157.877 321.371 159.181 321.449H159.185Z" fill="#E27B60"/>
<path d="M157.055 332.118L168.458 333.508C169.695 333.656 170.91 332.873 171.368 331.628L171.462 331.374C172.089 329.671 171.066 327.882 169.37 327.717L157.874 326.586C156.491 326.449 155.191 327.463 154.897 328.907C154.576 330.477 155.559 331.942 157.055 332.126V332.118Z" fill="#E27B60"/>
<path d="M156.871 334.247C157.153 333.065 158.25 332.266 159.448 332.364L167.075 332.998C168.309 333.1 169.264 334.126 169.284 335.374L169.296 335.997C169.319 337.528 167.96 338.714 166.46 338.467L158.822 337.211C157.439 336.984 156.542 335.625 156.871 334.247Z" fill="#E27B60"/>
<path d="M157.936 338.785C158.304 337.896 159.174 337.332 160.039 337.422L166.322 338.072C167.348 338.178 168.022 339.157 167.842 340.265L167.728 340.965C167.529 342.183 166.389 343.044 165.292 342.805L159.127 341.455C158.018 341.212 157.458 339.955 157.944 338.785H157.936Z" fill="#E27B60"/>
<path d="M169.989 327.744C169.989 327.744 169.989 327.736 169.985 327.732C169.938 327.611 169.805 327.552 169.683 327.599C169.284 327.756 168.481 327.807 168.03 327.744L157.944 326.487C157.866 326.479 156.256 326.378 155.229 327.325C154.701 327.814 154.423 328.484 154.407 329.318C154.348 332.415 158.68 332.704 158.951 332.72L164.952 333.566C165.402 333.628 167.874 333.855 168.512 333.871C168.641 333.871 168.747 333.769 168.751 333.64C168.751 333.511 168.653 333.401 168.524 333.401C167.897 333.386 165.465 333.162 165.018 333.1L159.009 332.254C159.009 332.254 158.994 332.254 158.986 332.254C158.943 332.254 154.818 332.05 154.873 329.326C154.885 328.625 155.112 328.069 155.543 327.67C156.424 326.859 157.881 326.949 157.897 326.953L167.972 328.21C168.485 328.28 169.366 328.226 169.856 328.034C169.973 327.987 170.032 327.858 169.993 327.74L169.989 327.744Z" fill="#161742"/>
<path d="M167.608 338.534C167.576 338.444 167.494 338.373 167.392 338.373C166.773 338.361 163.095 337.817 162.484 337.7C161.912 337.59 160.032 337.308 159.954 337.297C159.919 337.293 156.428 336.721 156.781 334.442C156.906 333.64 157.431 333.127 158.34 332.92C159.061 332.755 159.758 332.845 159.766 332.845C159.895 332.861 160.013 332.771 160.028 332.646C160.048 332.516 159.958 332.399 159.832 332.383C158.747 332.234 156.616 332.458 156.319 334.376C155.982 336.572 158.501 337.551 159.879 337.766C159.899 337.766 161.83 338.06 162.394 338.17C162.97 338.279 166.703 338.839 167.38 338.851C167.51 338.851 167.615 338.749 167.619 338.62C167.619 338.592 167.619 338.565 167.608 338.541V338.534Z" fill="#161742"/>
<path d="M169.323 321.868C169.295 321.782 169.217 321.715 169.123 321.707C169.06 321.703 162.961 321.183 160.478 320.995C157.861 320.795 156.185 321.805 155.883 323.767C155.523 326.112 157.81 326.938 157.834 326.95C157.955 326.993 158.089 326.926 158.132 326.805C158.175 326.683 158.112 326.55 157.991 326.507C157.912 326.48 156.044 325.795 156.345 323.837C156.608 322.126 158.061 321.285 160.439 321.465C162.922 321.653 169.017 322.173 169.08 322.177C169.209 322.189 169.323 322.091 169.334 321.962C169.334 321.931 169.334 321.899 169.323 321.868Z" fill="#161742"/>
<path d="M51.5837 200.703C48.8674 204.072 50.7544 210.363 55.7761 216.527L67.9778 201.398C60.8706 197.827 54.3085 197.331 51.5898 200.705L51.5837 200.703Z" fill="#AF8E2F"/>
<path d="M73.0943 204.475L59.8849 220.855C60.5827 221.496 61.3096 222.135 62.0701 222.759L75.4254 206.198C74.6518 205.59 73.8728 205.015 73.0943 204.475Z" fill="#AF8E2F"/>
<path d="M89.096 225.224L54.3184 197.32L51.0446 201.381L85.8222 229.285L89.096 225.224Z" fill="#AF8E2F"/>
<path d="M86.3557 228.61C88.567 225.87 87.7291 221.203 84.6492 216.245L73.8859 229.598C79.4012 231.54 84.1505 231.353 86.3618 228.612L86.3557 228.61Z" fill="#AF8E2F"/>
<path d="M67.9718 201.396L55.7702 216.525C56.9643 217.988 58.3546 219.45 59.8833 220.861L73.0928 204.481C71.3814 203.293 69.6618 202.255 67.9695 201.402L67.9718 201.396Z" fill="#D6B11E"/>
<path d="M75.653 206.368C75.577 206.311 75.507 206.257 75.4309 206.2L62.0756 222.761C62.1494 222.824 62.217 222.884 62.287 222.939C66.1401 226.035 70.1869 228.293 73.8816 229.59L84.6449 216.236C82.5767 212.909 79.5023 209.456 75.6469 206.366L75.653 206.368Z" fill="#D6B11E"/>
<path d="M88.3398 226.137C92.0304 221.56 87.2369 211.602 77.6333 203.897C68.0298 196.191 57.2527 193.656 53.5622 198.233C49.8717 202.811 54.6651 212.768 64.2687 220.474C73.8723 228.179 84.6493 230.715 88.3398 226.137Z" fill="#AF8E2F"/>
<path d="M88.8447 225.517C92.5352 220.939 87.7418 210.982 78.1382 203.276C68.5346 195.571 57.7576 193.035 54.0671 197.613C50.3765 202.19 55.17 212.148 64.7736 219.853C74.3771 227.558 85.1542 230.094 88.8447 225.517Z" fill="#FFD840"/>
<path d="M85.2862 222.665C82.4478 226.189 73.9525 224.079 66.3141 217.948C58.6818 211.818 54.788 203.997 57.6348 200.47C60.4732 196.946 68.9685 199.056 76.6069 205.187C84.2392 211.316 88.133 219.137 85.2862 222.665Z" fill="#FFD325"/>
<path d="M67.0143 208.955L65.7738 206.075L68.173 206.558L69.4135 209.438C69.999 210.795 71.6768 212.144 73.1547 212.443C74.6327 212.742 75.3601 211.878 74.7746 210.521L73.4737 207.507L75.8729 207.99L77.1738 211.004C78.2867 213.577 76.91 215.209 74.1074 214.649C71.3048 214.089 68.1249 211.535 67.012 208.961L67.0143 208.955Z" fill="#AF8E2F"/>
<path d="M74.0207 216.982L69.5966 206.725L71.9958 207.208L76.4198 217.464L74.0207 216.982Z" fill="#AF8E2F"/>
<path d="M77.9047 217.765L73.4745 207.506L75.8737 207.989L80.3039 218.248L77.9047 217.765Z" fill="#AF8E2F"/>
<path d="M63.4402 212.268L68.0632 208.074L65.776 206.09L62.1786 209.352L63.4402 212.268Z" fill="#AF8E2F"/>
<path d="M229.238 221.97C233.365 223.278 238.546 219.237 242.471 212.324L223.937 206.45C223.187 214.365 225.105 220.657 229.238 221.964L229.238 221.97Z" fill="#AF8E2F"/>
<path d="M224.949 200.569L245.014 206.927C245.359 206.044 245.691 205.136 245.997 204.201L225.709 197.773C225.423 198.714 225.17 199.648 224.949 200.569Z" fill="#AF8E2F"/>
<path d="M238.488 178.137L225.092 220.651L230.066 222.227L243.462 179.712L238.488 178.137Z" fill="#AF8E2F"/>
<path d="M242.64 179.46C239.282 178.395 235.235 180.869 231.73 185.537L248.086 190.715C247.895 184.874 245.997 180.519 242.64 179.454L242.64 179.46Z" fill="#AF8E2F"/>
<path d="M223.938 206.457L242.471 212.33C243.403 210.687 244.261 208.862 245.021 206.926L224.956 200.568C224.469 202.593 224.126 204.571 223.944 206.457L223.938 206.457Z" fill="#D6B11E"/>
<path d="M225.786 197.499C225.761 197.59 225.735 197.675 225.71 197.767L245.997 204.195C246.029 204.103 246.061 204.018 246.086 203.933C247.575 199.221 248.212 194.633 248.08 190.722L231.724 185.544C229.372 188.677 227.268 192.793 225.786 197.505L225.786 197.499Z" fill="#D6B11E"/>
<path d="M239.607 178.505C234 176.729 226.458 184.806 222.76 196.547C219.063 208.287 220.611 219.245 226.218 221.022C231.825 222.799 239.367 214.722 243.065 202.981C246.762 191.24 245.214 180.282 239.607 178.505Z" fill="#AF8E2F"/>
<path d="M238.846 178.261C233.239 176.484 225.696 184.561 221.999 196.302C218.301 208.043 219.849 219.001 225.456 220.777C231.063 222.554 238.606 214.477 242.303 202.736C246 190.996 244.452 180.038 238.846 178.261Z" fill="#FFD840"/>
<path d="M237.485 182.614C241.801 183.979 242.916 192.656 239.972 201.995C237.027 211.327 231.147 217.792 226.825 216.42C222.51 215.056 221.394 206.378 224.339 197.04C227.284 187.708 233.163 181.243 237.485 182.614Z" fill="#FFD325"/>
<path d="M231.333 204.605L229.098 206.805L228.678 204.396L230.912 202.196C231.965 201.158 232.614 199.106 232.356 197.621C232.099 196.136 231.029 195.772 229.976 196.81L227.638 199.115L227.218 196.706L229.556 194.4C231.552 192.43 233.573 193.12 234.068 195.933C234.563 198.746 233.335 202.635 231.339 204.605L231.333 204.605Z" fill="#AF8E2F"/>
<path d="M236.274 195.167L228.316 203.01L227.896 200.6L235.853 192.758L236.274 195.167Z" fill="#AF8E2F"/>
<path d="M235.596 191.266L227.639 199.115L227.218 196.705L235.175 188.857L235.596 191.266Z" fill="#AF8E2F"/>
<path d="M235.719 206.733L230.132 203.95L229.111 206.8L233.459 208.966L235.719 206.733Z" fill="#AF8E2F"/>
<path d="M299.599 303.735C307.42 295.086 306.724 281.756 298.043 273.963C289.362 266.169 275.984 266.863 268.163 275.513C260.341 284.162 261.037 297.492 269.718 305.285C278.399 313.078 291.777 312.385 299.599 303.735Z" fill="#AF8E2F"/>
<path d="M303.388 294.52C306.109 283.782 299.578 272.879 288.801 270.168C278.023 267.457 267.081 273.964 264.36 284.702C261.639 295.441 268.169 306.344 278.947 309.055C289.724 311.766 300.667 305.259 303.388 294.52Z" fill="#FFD840"/>
<path d="M299.508 292.868C301.314 284.262 295.776 275.826 287.139 274.027C278.502 272.227 270.036 277.745 268.23 286.351C266.424 294.957 271.962 303.392 280.599 305.192C289.236 306.991 297.702 301.474 299.508 292.868Z" fill="#FFD325"/>
<path d="M280.625 290.893L277.735 289.541L278.864 287.207L281.754 288.559C283.118 289.196 284.794 288.553 285.486 287.116C286.177 285.68 285.636 283.989 284.272 283.352L281.245 281.935L282.374 279.602L285.401 281.019C287.985 282.228 289.015 285.426 287.704 288.15C286.386 290.873 283.216 292.102 280.632 290.886L280.625 290.893Z" fill="#AF8E2F"/>
<path d="M289.721 290.529L279.426 285.706L280.548 283.372L290.849 288.195L289.721 290.529Z" fill="#AF8E2F"/>
<path d="M291.54 286.758L281.245 281.935L282.374 279.602L292.669 284.425L291.54 286.758Z" fill="#AF8E2F"/>
<path d="M282.484 298.284L280.155 288.8L277.748 289.547L279.555 296.912L282.484 298.284Z" fill="#AF8E2F"/>
<g style="mix-blend-mode:screen" opacity="0.23">
<path d="M304.308 295.118L296.003 272.334C294.274 271.131 292.33 270.163 290.209 269.5C290.007 269.435 289.805 269.389 289.603 269.337L301.339 301.527C302.494 299.843 303.433 297.965 304.073 295.917C304.158 295.651 304.229 295.378 304.301 295.111L304.308 295.118Z" fill="#FFD325"/>
</g>
<g style="mix-blend-mode:screen" opacity="0.23">
<path d="M269.026 274.609L282.159 310.628C285.852 310.933 289.479 310.251 292.728 308.762L278.336 269.285C274.839 270.234 271.623 272.061 269.026 274.609Z" fill="#FFD325"/>
</g>
<path d="M117.386 135.922L113 138.996L118.179 146.333L122.566 143.259L117.386 135.922Z" fill="#AF8E2F"/>
<path d="M122.572 143.261L118.186 146.335L123.399 153.721L127.785 150.647L122.572 143.261Z" fill="#D6B11E"/>
<path d="M127.788 150.639L123.404 153.713L130.228 163.379L134.567 160.24L127.788 150.639Z" fill="#AF8E2F"/>
<path d="M130.229 163.38L136.524 172.298L140.908 169.224L134.567 160.24L130.229 163.38Z" fill="#D6B11E"/>
<path d="M358.52 4.57683L355.469 0.175903L348.101 5.31553L351.153 9.71645L358.52 4.57683Z" fill="#AF8E2F"/>
<path d="M351.15 9.71956L348.098 5.31946L340.681 10.4906L343.733 14.8907L351.15 9.71956Z" fill="#D6B11E"/>
<path d="M343.742 14.8944L340.688 10.4966L330.981 17.2657L334.099 21.6182L343.742 14.8944Z" fill="#AF8E2F"/>
<path d="M330.981 17.2658L322.024 23.5107L325.077 27.9085L334.099 21.6183L330.981 17.2658Z" fill="#D6B11E"/>
<path d="M6.79663 76.6381C8.81233 79.321 13.9046 79.1297 19.5021 76.5676L10.4693 64.5172C6.41774 69.1381 4.78598 73.9552 6.79663 76.6381Z" fill="#AF8E2F"/>
<path d="M13.7676 61.281L23.5531 74.3281C24.1744 73.9304 24.7908 73.5126 25.4071 73.0596L15.5155 59.8666C14.9093 60.3246 14.3283 60.7978 13.7726 61.276L13.7676 61.281Z" fill="#AF8E2F"/>
<path d="M32.4463 53.3348L4.77441 73.9386L7.19973 77.1724L34.8716 56.5686L32.4463 53.3348Z" fill="#AF8E2F"/>
<path d="M34.4658 56.0362C32.829 53.8566 29.1613 53.5747 24.8369 54.9187L32.8088 65.5497C35.3297 61.7996 36.0976 58.2157 34.4658 56.0311V56.0362Z" fill="#AF8E2F"/>
<path d="M10.4639 64.5172L19.4966 76.5676C20.8303 75.9586 22.1893 75.2035 23.5482 74.3327L13.7627 61.2856C12.5402 62.3326 11.4288 63.4199 10.4639 64.5222V64.5172Z" fill="#D6B11E"/>
<path d="M15.6825 59.7407C15.6219 59.786 15.5714 59.8313 15.5107 59.8716L25.4023 73.0647C25.4629 73.0194 25.5185 72.9841 25.5791 72.9388C28.6456 70.6536 31.1211 68.0713 32.8134 65.5545L24.8416 54.9236C21.9418 55.8246 18.7541 57.4605 15.6876 59.7407H15.6825Z" fill="#D6B11E"/>
<path d="M24.1069 70.9683C31.7483 65.2787 35.7265 57.7112 32.9924 54.0658C30.2584 50.4204 21.8474 52.0775 14.2061 57.7671C6.56468 63.4567 2.58649 71.0242 5.32053 74.6696C8.05457 78.315 16.4655 76.6579 24.1069 70.9683Z" fill="#AF8E2F"/>
<path d="M23.7368 70.4763C31.3782 64.7868 35.3563 57.2193 32.6223 53.5739C29.8883 49.9284 21.4773 51.5856 13.836 57.2751C6.19457 62.9647 2.21638 70.5322 4.95041 74.1776C7.68445 77.823 16.0954 76.1659 23.7368 70.4763Z" fill="#FFD840"/>
<path d="M22.5965 68.9558C28.6734 64.4311 31.8938 58.4885 29.7894 55.6826C27.685 52.8768 21.0528 54.2701 14.9759 58.7948C8.89896 63.3196 5.6786 69.2622 7.783 72.068C9.88739 74.8739 16.5196 73.4805 22.5965 68.9558Z" fill="#FFD325"/>
<path d="M15.9701 66.6971L13.5654 67.0696L14.3889 65.3682L16.7936 64.9958C17.9303 64.8196 19.264 63.8229 19.7742 62.7759C20.2844 61.729 19.7742 61.0192 18.6375 61.1954L16.1217 61.583L16.9451 59.8816L19.461 59.494C21.608 59.1618 22.578 60.5058 21.6131 62.4941C20.6482 64.4773 18.1172 66.3649 15.9701 66.6971Z" fill="#AF8E2F"/>
<path d="M23.351 63.012L14.7881 64.3359L15.6115 62.6345L24.1745 61.3107L23.351 63.012Z" fill="#AF8E2F"/>
<path d="M24.685 60.2596L16.1221 61.5884L16.9455 59.8871L25.5085 58.5632L24.685 60.2596Z" fill="#AF8E2F"/>
<path d="M17.7733 70.0144L15.505 65.7408L13.5752 67.0697L15.3332 70.3869L17.7733 70.0144Z" fill="#AF8E2F"/>
<defs>
<clipPath id="clip0_912_1437">
<rect width="284" height="179.215" fill="white" transform="translate(28 163.067)"/>
</clipPath>
</defs>
</svg>
