<svg width="24" height="24" viewBox="0 0 24 24" fill="none" xmlns="http://www.w3.org/2000/svg">
<g clip-path="url(#clip0_1567_4889)">
<g clip-path="url(#clip1_1567_4889)">
<mask id="mask0_1567_4889" style="mask-type:luminance" maskUnits="userSpaceOnUse" x="0" y="2" width="24" height="20">
<path d="M24 2H0V21.9802H24V2Z" fill="white"/>
</mask>
<g mask="url(#mask0_1567_4889)">
<path d="M3.19565 18.8306H2.81104V21.8766H3.19565V18.8306Z" fill="#034EA2"/>
<path d="M8.30184 21.0261L6.0812 18.6543L6.06787 18.642V21.8446H6.45369V19.5949L8.67433 21.9666L8.68643 21.9802V18.7973H8.30184V21.0261Z" fill="#034EA2"/>
<path d="M16.3959 18.8306H16.0112V21.8766H16.3959V18.8306Z" fill="#034EA2"/>
<path d="M13.0748 19.204C12.7773 18.96 12.3697 18.8306 11.8944 18.8306H11.2715V21.8766H11.8823C12.3685 21.8766 12.7821 21.7448 13.0785 21.4969C13.399 21.2282 13.5695 20.8276 13.5695 20.3382C13.5695 19.8488 13.3977 19.4703 13.0748 19.204ZM13.1849 20.3542C13.1849 20.761 13.0434 21.0667 12.7664 21.2627C12.5281 21.4304 12.1967 21.5167 11.7806 21.5167H11.6573V19.1917H11.7806C12.1979 19.1917 12.5293 19.2768 12.7664 19.4432C13.0446 19.6392 13.1849 19.945 13.1849 20.3542Z" fill="#034EA2"/>
<path d="M20.2992 18.6568L20.2932 18.642L18.8442 21.8668L18.8394 21.8779H19.2603L19.605 21.1062H20.9814L21.3237 21.8742L21.3261 21.8791H21.747L20.2992 18.658V18.6568ZM20.8181 20.7389H19.767L20.2932 19.5197L20.8193 20.7389H20.8181Z" fill="#034EA2"/>
<path d="M24 2H0V17.117H24V2Z" fill="#034EA2"/>
<path d="M23.6481 9.72803H0.352051V16.7534H23.6481V9.72803Z" fill="#00A651"/>
<path d="M22.2802 11.1493V14.3877L22.2778 14.3815L19.6641 11.0925V15.3467H20.0136V12.0984L22.631 15.3936V11.1493H22.2802Z" fill="white"/>
<path d="M16.4706 11.0704C15.2902 11.0704 14.3311 12.048 14.3311 13.2511C14.3311 14.4543 15.2902 15.4306 16.4706 15.4306C17.6511 15.4306 18.6091 14.453 18.6091 13.2511C18.6091 12.0492 17.6511 11.0704 16.4706 11.0704ZM16.4706 15.0743C15.4825 15.0743 14.6818 14.2583 14.6818 13.2511C14.6818 12.244 15.4825 11.4267 16.4706 11.4267C17.4588 11.4267 18.2595 12.244 18.2595 13.2511C18.2595 14.2583 17.4588 15.0743 16.4706 15.0743Z" fill="white"/>
<path d="M16.4708 12.4104C16.0149 12.4104 15.646 12.7864 15.646 13.2512C15.646 13.7159 16.0149 14.0919 16.4708 14.0919C16.9268 14.0919 17.2969 13.7147 17.2969 13.2512C17.2969 12.7876 16.9256 12.4104 16.4708 12.4104ZM16.4708 13.7344C16.2084 13.7344 15.9955 13.5174 15.9955 13.2512C15.9955 12.9849 16.2084 12.7679 16.4708 12.7679C16.7333 12.7679 16.945 12.9836 16.945 13.2512C16.945 13.5187 16.7345 13.7344 16.4708 13.7344Z" fill="white"/>
<path d="M3.18465 13.1859C2.9113 13.1033 2.60046 13.0244 2.36098 12.9467C2.08038 12.8444 1.87839 12.5745 1.87839 12.2564C1.87839 12.1011 1.92677 11.9581 2.00902 11.841C2.19649 11.5328 2.62344 11.3812 2.95484 11.5032C3.18465 11.5895 3.37212 11.772 3.4846 11.9753L3.7773 11.8471C3.66119 11.5241 3.40115 11.269 3.07821 11.1617C2.8097 11.0545 2.47588 11.0668 2.21705 11.195C1.79494 11.3639 1.50466 11.7892 1.50466 12.2589C1.50466 12.6743 1.74656 13.0416 2.09247 13.2302C2.34526 13.3437 2.64038 13.4189 2.87985 13.4744C3.25359 13.5372 3.57773 13.8244 3.57773 14.2177V14.23C3.57168 14.8168 2.93065 15.162 2.40694 15.0646C2.03079 14.9832 1.72358 14.7108 1.58811 14.3521L1.27002 14.479C1.41999 14.924 1.778 15.2692 2.22794 15.39C2.67424 15.5096 3.18102 15.4023 3.52088 15.1015C3.77125 14.8994 3.93454 14.5875 3.93454 14.2337C3.93454 13.7653 3.60555 13.34 3.18344 13.1883" fill="white"/>
<path d="M12.6441 13.1859C12.372 13.1033 12.0611 13.0244 11.8205 12.9467C11.5411 12.8444 11.3391 12.5745 11.3391 12.2564C11.3391 12.1011 11.3875 11.9581 11.4697 11.841C11.6596 11.5328 12.0817 11.3812 12.4155 11.5032C12.6441 11.5895 12.834 11.772 12.9453 11.9753L13.238 11.8471C13.1207 11.5241 12.8654 11.269 12.5413 11.1617C12.2728 11.0545 11.9378 11.0668 11.6777 11.195C11.2569 11.3639 10.9678 11.7892 10.9678 12.2589C10.9678 12.6743 11.2072 13.0416 11.5532 13.2302C11.8047 13.3437 12.0986 13.4189 12.3405 13.4744C12.7143 13.5372 13.0372 13.8244 13.0372 14.2177V14.23C13.0312 14.8168 12.3913 15.162 11.8664 15.0646C11.4903 14.9832 11.1855 14.7108 11.0488 14.3521L10.7295 14.479C10.8795 14.924 11.2399 15.2692 11.6886 15.39C12.1337 15.5096 12.6429 15.4023 12.9791 15.1015C13.2295 14.8994 13.3928 14.5875 13.3928 14.2337C13.3928 13.7653 13.0638 13.34 12.6417 13.1883" fill="white"/>
<path d="M9.36148 11.1567H9.01318V15.3308H9.36148V11.1567Z" fill="white"/>
<path d="M6.2978 10.9336L4.55371 15.3369H4.93108L5.48987 13.9217H7.10574L7.66693 15.3357H8.04311L6.29903 10.9324L6.2978 10.9336ZM5.63136 13.5655L6.2978 11.8853L6.96425 13.5655H5.63136Z" fill="white"/>
<path d="M2.79155 5.83263C2.79155 4.84275 3.56684 3.99586 4.52355 3.99586C4.70013 3.99586 4.87067 4.02421 5.02911 4.07722V3.7C4.86584 3.65563 4.6965 3.6322 4.52355 3.6322C3.97323 3.6322 3.45315 3.86519 3.05885 4.28802C2.66939 4.70592 2.4541 5.25448 2.4541 5.83263C2.4541 6.41079 2.67665 6.97415 3.0649 7.39203C3.45919 7.81363 3.97686 8.04541 4.52355 8.04541C4.71828 8.04541 4.90696 8.01579 5.08597 7.95789V7.58065C4.90938 7.64596 4.7207 7.68421 4.52355 7.68421C3.56684 7.68421 2.79155 6.82375 2.79155 5.83263Z" fill="white"/>
<path d="M8.72886 4.99308C8.72886 4.6701 8.61151 4.36808 8.39984 4.14126C8.18822 3.9132 7.90636 3.7887 7.60641 3.7887H6.28809V7.9208H6.62551V6.19623H7.43709L8.25594 7.9208H8.64904L7.81932 6.17527C8.33699 6.06679 8.72886 5.57739 8.72886 4.99431M7.60641 5.83257H6.62674V4.14865H7.60641C8.04063 4.14865 8.39138 4.5271 8.39138 4.99308C8.39138 5.45905 8.04063 5.8338 7.60641 5.8338" fill="white"/>
<path d="M10.2069 5.75618H11.9546V5.39622H10.2069V4.16842H11.9606V3.79736H9.84766V7.9591H11.9727V7.5991H10.2069V5.75618Z" fill="white"/>
<path d="M18.7979 4.1462H19.9856V7.89249H20.3593V4.1462H21.5458V3.76282H18.7979V4.1462Z" fill="white"/>
<path d="M17.6755 3.70984H17.3018V7.87524H17.6755V3.70984Z" fill="white"/>
<path d="M14.4001 3.77031L13.2632 3.76538V7.90243H14.4001C15.4306 7.86298 16.2445 6.95076 16.2445 5.83514C16.2445 4.71952 15.4282 3.80852 14.4001 3.77031ZM14.4001 7.53757H13.6006V4.12657H14.4001C15.248 4.16602 15.9071 4.91306 15.9071 5.83391C15.9071 6.75476 15.2467 7.49812 14.4001 7.53757Z" fill="white"/>
</g>
</g>
</g>
<defs>
<clipPath id="clip0_1567_4889">
<rect width="24" height="24" fill="white"/>
</clipPath>
<clipPath id="clip1_1567_4889">
<rect width="24" height="20" fill="white" transform="translate(0 2)"/>
</clipPath>
</defs>
</svg>
