<svg width="12" height="12" viewBox="0 0 12 12" fill="none" xmlns="http://www.w3.org/2000/svg">
<path fill-rule="evenodd" clip-rule="evenodd" d="M11.9998 11.7779C11.9998 11.6551 11.9003 11.5557 11.7775 11.5557H0.222218C0.0994426 11.5557 0 11.6551 0 11.7779C0 11.9007 0.0994426 12.0001 0.222218 12.0001H11.7775C11.9003 12.0001 11.9998 11.9007 11.9998 11.7779Z" fill="#AF8E2F"/>
<path fill-rule="evenodd" clip-rule="evenodd" d="M3.11134 10.8887V11.111H0.88916V10.8887C0.88916 10.7659 0.988603 10.6665 1.11138 10.6665H2.88912C3.0119 10.6665 3.11134 10.7659 3.11134 10.8887Z" fill="#AF8E2F"/>
<path fill-rule="evenodd" clip-rule="evenodd" d="M7.11085 10.8887V11.111H4.88867V10.8887C4.88867 10.7659 4.98811 10.6665 5.11089 10.6665H6.88863C7.01141 10.6665 7.11085 10.7659 7.11085 10.8887Z" fill="#AF8E2F"/>
<path fill-rule="evenodd" clip-rule="evenodd" d="M11.1109 10.8887V11.111H8.88867V10.8887C8.88867 10.7659 8.98811 10.6665 9.11089 10.6665H10.8886C11.0114 10.6665 11.1109 10.7659 11.1109 10.8887Z" fill="#AF8E2F"/>
<path fill-rule="evenodd" clip-rule="evenodd" d="M1.3335 10.2222H2.6668V4.44434H1.3335V10.2222Z" fill="#AF8E2F"/>
<path fill-rule="evenodd" clip-rule="evenodd" d="M5.3335 10.2222H6.6668V4.44434H5.3335V10.2222Z" fill="#AF8E2F"/>
<path fill-rule="evenodd" clip-rule="evenodd" d="M9.3335 10.2222H10.6668V4.44434H9.3335V10.2222Z" fill="#AF8E2F"/>
<path fill-rule="evenodd" clip-rule="evenodd" d="M3.11134 3.55518V3.7774C3.11134 3.90018 3.0119 3.99963 2.88912 3.99963H1.11138C0.988603 3.99963 0.88916 3.90018 0.88916 3.7774V3.55518H3.11134Z" fill="#AF8E2F"/>
<path fill-rule="evenodd" clip-rule="evenodd" d="M7.11085 3.55518V3.7774C7.11085 3.90018 7.01141 3.99963 6.88863 3.99963H5.11089C4.98811 3.99963 4.88867 3.90018 4.88867 3.7774V3.55518H7.11085Z" fill="#AF8E2F"/>
<path fill-rule="evenodd" clip-rule="evenodd" d="M11.1109 3.55518V3.7774C11.1109 3.90018 11.0114 3.99963 10.8886 3.99963H9.11089C8.98811 3.99963 8.88867 3.90018 8.88867 3.7774V3.55518H11.1109Z" fill="#AF8E2F"/>
<path fill-rule="evenodd" clip-rule="evenodd" d="M6.09333 0.0204173L11.871 2.68711C11.9654 2.731 12.0171 2.83434 11.9949 2.93656C11.9721 3.03823 11.8821 3.11101 11.7777 3.11101H0.222335C0.117892 3.11101 0.0278929 3.03823 0.0051236 2.93656C-0.0170982 2.83434 0.0345674 2.731 0.12901 2.68711L5.90667 0.0204173C5.96612 -0.00680576 6.03388 -0.00680576 6.09333 0.0204173Z" fill="#AF8E2F"/>
</svg>
