<svg width="24" height="24" viewBox="0 0 24 24" fill="none" xmlns="http://www.w3.org/2000/svg">
<g clip-path="url(#clip0_942_370)">
<path d="M23.365 0.307739L22.79 3.78298C22.515 5.45232 21.236 6.66308 19.744 6.66308H6.00798C4.50498 6.66308 3.31098 7.89546 3.07898 8.82629L4.26498 1.60498C4.33898 1.13046 4.59198 0.739015 4.94098 0.512567C5.14298 0.381705 5.37498 0.307739 5.61998 0.307739H23.364H23.365Z" fill="#004E96"/>
<path d="M17.894 6.663L17.466 9.42476C17.122 11.5072 15.524 13.0149 13.665 13.0149H5.50599C4.00599 13.0149 2.17899 14.2371 1.91499 15.9189L0.635986 23.6921L2.38899 13.0138L3.07599 8.83076L3.07899 8.82507C3.31099 7.89425 4.50499 6.66187 6.00799 6.66187H17.895L17.894 6.663Z" fill="#FBA51C"/>
<path d="M3.07598 8.83203L2.38898 13.0151L3.04298 9.01182C3.04798 8.95265 3.05898 8.89348 3.07598 8.83203Z" fill="black"/>
<path d="M9.21401 13.015L7.96201 20.63C7.67001 22.4052 6.30901 23.6934 4.72501 23.6934H0.63501L1.91401 15.9202C2.17901 14.2383 4.00601 13.0162 5.50501 13.0162H9.21401V13.015Z" fill="#004F97"/>
</g>
<defs>
<clipPath id="clip0_942_370">
<rect width="24" height="24" fill="white"/>
</clipPath>
</defs>
</svg>
