<svg width="16" height="16" viewBox="0 0 16 16" fill="none" xmlns="http://www.w3.org/2000/svg">
<path fill-rule="evenodd" clip-rule="evenodd" d="M15.5 15.2222C15.5 15.0688 15.3756 14.9445 15.2222 14.9445H0.778016C0.624547 14.9445 0.500244 15.0688 0.500244 15.2222C0.500244 15.3757 0.624547 15.5 0.778016 15.5H15.2222C15.3756 15.5 15.5 15.3757 15.5 15.2222Z" fill="#161742"/>
<path fill-rule="evenodd" clip-rule="evenodd" d="M4.38905 14.1112V14.3889H1.61133V14.1112C1.61133 13.9577 1.73563 13.8334 1.8891 13.8334H4.11128C4.26475 13.8334 4.38905 13.9577 4.38905 14.1112Z" fill="#161742"/>
<path fill-rule="evenodd" clip-rule="evenodd" d="M9.38881 14.1112V14.3889H6.61108V14.1112C6.61108 13.9577 6.73539 13.8334 6.88886 13.8334H9.11104C9.2645 13.8334 9.38881 13.9577 9.38881 14.1112Z" fill="#161742"/>
<path fill-rule="evenodd" clip-rule="evenodd" d="M14.3888 14.1112V14.3889H11.6111V14.1112C11.6111 13.9577 11.7354 13.8334 11.8889 13.8334H14.111C14.2645 13.8334 14.3888 13.9577 14.3888 14.1112Z" fill="#161742"/>
<path fill-rule="evenodd" clip-rule="evenodd" d="M2.16687 13.2778H3.8335V6.05554H2.16687V13.2778Z" fill="#161742"/>
<path fill-rule="evenodd" clip-rule="evenodd" d="M7.16663 13.2778H8.83326V6.05554H7.16663V13.2778Z" fill="#161742"/>
<path fill-rule="evenodd" clip-rule="evenodd" d="M12.1667 13.2778H13.8334V6.05554H12.1667V13.2778Z" fill="#161742"/>
<path fill-rule="evenodd" clip-rule="evenodd" d="M4.38905 4.94421V5.22199C4.38905 5.37547 4.26475 5.49978 4.11128 5.49978H1.8891C1.73563 5.49978 1.61133 5.37547 1.61133 5.22199V4.94421H4.38905Z" fill="#161742"/>
<path fill-rule="evenodd" clip-rule="evenodd" d="M9.38881 4.94421V5.22199C9.38881 5.37547 9.2645 5.49978 9.11104 5.49978H6.88886C6.73539 5.49978 6.61108 5.37547 6.61108 5.22199V4.94421H9.38881Z" fill="#161742"/>
<path fill-rule="evenodd" clip-rule="evenodd" d="M14.3888 4.94421V5.22199C14.3888 5.37547 14.2645 5.49978 14.111 5.49978H11.8889C11.7354 5.49978 11.6111 5.37547 11.6111 5.22199V4.94421H14.3888Z" fill="#161742"/>
<path fill-rule="evenodd" clip-rule="evenodd" d="M8.11666 0.525522L15.3387 3.85889C15.4568 3.91375 15.5214 4.04293 15.4936 4.1707C15.4651 4.29778 15.3526 4.38876 15.2221 4.38876H0.777919C0.647365 4.38876 0.534866 4.29779 0.506404 4.1707C0.478627 4.04292 0.543209 3.91376 0.661262 3.85889L7.88334 0.525522C7.95765 0.491493 8.04235 0.491493 8.11666 0.525522Z" fill="#161742"/>
</svg>
