<svg width="24" height="24" viewBox="0 0 24 24" fill="none" xmlns="http://www.w3.org/2000/svg">
<g clip-path="url(#clip0_845_5737)">
<path d="M24.0001 11.9987C24.0001 18.6275 18.6292 24.0003 11.9991 24.0003C5.37289 24.0003 6.10352e-05 18.6275 6.10352e-05 11.9987C6.10352e-05 5.37508 5.37289 -0.000326157 11.9991 -0.000326157C18.6292 -0.000326157 24.0001 5.37508 24.0001 11.9987Z" fill="white"/>
<path d="M11.9119 20.9805C13.0408 20.9824 14.1754 20.6763 15.1286 20.0659C15.7057 19.7313 16.2203 19.2831 16.6421 18.7668C16.9225 18.466 17.1243 18.1104 17.3403 17.763C17.6986 17.0676 17.9639 16.317 18.0366 15.5337C18.1409 14.66 18.0572 13.7648 17.8045 12.9234C17.6194 12.2839 17.326 11.6783 16.9559 11.1254C16.4467 10.3738 15.7894 9.70948 15.0034 9.25283C14.8265 9.14227 14.6745 9.03092 14.4956 8.92191C14.2323 8.73975 13.8066 8.51132 13.4942 8.75471C13.1767 9.06723 13.1915 9.55948 13.164 9.97924C13.1621 12.9503 13.1482 15.9211 13.1543 18.8924C13.1359 19.1418 13.2131 19.4441 12.9573 19.5901C12.6927 19.7507 12.3957 19.8554 12.0864 19.9041C11.8327 19.9767 11.5933 19.8668 11.346 19.8201C11.1347 19.7469 10.9045 19.6553 10.7503 19.5081C10.5265 19.3108 10.6609 18.9627 10.6243 18.6862C10.6204 15.6472 10.6321 12.6075 10.6184 9.56889C10.5741 9.24265 10.5383 8.84358 10.2336 8.64875C10.0926 8.57694 9.9355 8.58672 9.791 8.64745C9.44534 8.74858 9.15162 9.04099 8.85867 9.21466C8.34902 9.51455 7.87909 9.88597 7.48299 10.3295C7.133 10.6829 6.85548 11.0979 6.59936 11.5244C6.23368 12.19 5.95502 12.906 5.82875 13.6568C5.70077 14.3504 5.68785 15.0631 5.79688 15.7614C5.96135 16.8244 6.42098 17.8383 7.08901 18.6787C7.74997 19.5204 8.6586 20.1382 9.63788 20.5567C10.3637 20.8248 11.1346 20.9903 11.9119 20.9805Z" fill="#F58220"/>
<path d="M11.9352 7.06129C12.0185 7.05806 12.1046 7.0704 12.1848 7.04966C12.2357 7.04643 12.2812 7.00849 12.3351 7.01799C12.3696 6.99021 12.4083 6.96144 12.4525 6.95983C12.493 6.93482 12.5562 6.94386 12.5767 6.8894C12.6212 6.87383 12.6576 6.84834 12.6979 6.82579C12.7365 6.80699 12.765 6.76645 12.8016 6.74133C12.8583 6.71716 12.8766 6.65267 12.9311 6.62515C12.9588 6.59059 12.9833 6.55368 13.0186 6.52436C13.0535 6.47306 13.0891 6.42359 13.1097 6.36414C13.1453 6.33668 13.1514 6.28793 13.1756 6.25081C13.1943 6.20946 13.219 6.17302 13.2282 6.12892C13.2465 6.09061 13.2637 6.05143 13.2583 6.0075C13.2785 5.95433 13.2642 5.89272 13.3016 5.84468C13.299 5.72193 13.3068 5.59639 13.2978 5.47539C13.2578 5.42467 13.2776 5.35821 13.2584 5.30054C13.2526 5.25854 13.2441 5.21358 13.2184 5.17932C13.1877 5.06035 13.1096 4.96238 13.0546 4.85509C13.0275 4.81911 13.0134 4.78164 12.974 4.7573C12.9364 4.70458 12.8799 4.66914 12.8501 4.61065C12.7959 4.60742 12.7686 4.55166 12.7268 4.52496C12.6977 4.49427 12.6519 4.48116 12.6197 4.45603C12.5809 4.4402 12.5617 4.39936 12.513 4.40098C12.4444 4.37197 12.3781 4.32902 12.3022 4.31537C12.2606 4.29547 12.226 4.26756 12.1765 4.27984C12.1222 4.27854 12.0693 4.26678 12.0147 4.26678C11.9212 4.25561 11.8262 4.26807 11.7333 4.27195C11.6766 4.29301 11.6084 4.25983 11.5591 4.30531C11.4994 4.33438 11.4322 4.33747 11.3751 4.37128C11.338 4.39984 11.2862 4.39754 11.2575 4.43591C11.2074 4.44515 11.1729 4.48695 11.1252 4.5037C11.0854 4.53652 11.0427 4.57441 11.0067 4.60718C10.9556 4.60071 10.9471 4.66597 10.9112 4.69239C10.8731 4.71946 10.8643 4.76488 10.8285 4.79188C10.7609 4.86784 10.7025 4.95508 10.6632 5.04958C10.6568 5.09474 10.6163 5.12057 10.6145 5.16753C10.5937 5.21146 10.5745 5.24879 10.5651 5.29494C10.554 5.34223 10.5677 5.39698 10.5332 5.43927C10.5384 5.55108 10.5111 5.66316 10.5332 5.77406C10.5312 5.83337 10.5286 5.89295 10.559 5.94642C10.5522 6.01992 10.5839 6.08596 10.6146 6.14986C10.6101 6.20142 10.6552 6.21984 10.6621 6.26489C10.6786 6.30339 10.6891 6.34473 10.716 6.3785C10.7392 6.45592 10.8058 6.50362 10.8535 6.56431C10.8846 6.59209 10.8934 6.64094 10.9357 6.66037C10.9656 6.693 10.9882 6.73173 11.0333 6.7476C11.0593 6.7894 11.1145 6.799 11.1445 6.83944C11.192 6.88266 11.2659 6.87543 11.3037 6.93183C11.3371 6.95535 11.3888 6.95058 11.4197 6.97138C11.4534 6.98954 11.4977 7.00065 11.5336 7.01764C11.5854 7.02151 11.6269 7.05809 11.6794 7.0493C11.7602 7.07437 11.8509 7.05483 11.9352 7.06129Z" fill="#F58220"/>
<path d="M14.951 4.57002C15.1057 4.22976 15.5149 3.96978 15.8626 4.22951C16.5511 4.66838 17.0729 5.33386 17.6692 5.89081C18.4468 6.64575 19.1547 7.49003 19.6405 8.46559C20.1458 9.46446 20.4435 10.5639 20.4802 11.6846C20.5981 12.8164 20.4079 13.9769 20.0706 15.0585C19.3768 17.0928 17.944 18.8955 16.0442 19.9248C13.4162 21.4093 10.0118 21.3104 7.44769 19.7369C5.00693 18.2802 3.42349 15.5334 3.29895 12.7029C3.23347 11.4023 3.43918 10.0867 3.96183 8.8884C4.46653 7.69047 5.30766 6.66358 6.24634 5.7733C6.77825 5.23837 7.26988 4.64829 7.90098 4.23467C8.16893 4.02889 8.59969 4.06745 8.74285 4.39233C9.05968 4.89418 9.27833 5.5168 9.26033 6.12705C9.18191 7.13212 8.30174 7.74838 7.59927 8.34571C6.76668 9.03149 6.18573 9.96533 5.70432 10.9223C5.26926 11.8553 5.04053 12.8774 5.07374 13.9235C5.07956 16.1648 6.18486 18.3869 7.99854 19.7142C9.18789 20.547 10.6283 21.0282 12.0889 20.9805C14.0857 20.9551 15.998 19.9193 17.2007 18.3444C18.2763 16.9568 18.8242 15.1699 18.7099 13.4153C18.6622 12.3451 18.3283 11.307 17.8312 10.3783C17.3686 9.54309 16.7406 8.79036 16.001 8.19026C15.449 7.67665 14.7741 7.19256 14.5963 6.42229C14.4629 5.78819 14.6803 5.13984 14.951 4.57002Z" fill="#F58220"/>
</g>
<defs>
<clipPath id="clip0_845_5737">
<rect width="24" height="24" fill="white"/>
</clipPath>
</defs>
</svg>
