<svg width="24" height="24" viewBox="0 0 24 24" fill="none" xmlns="http://www.w3.org/2000/svg">
<g clip-path="url(#clip0_845_5491)">
<path d="M12.003 1.19666C13.872 2.96349 15.7415 4.72933 17.611 6.49517C17.441 6.67011 17.2676 6.84156 17.0956 7.01401C15.4016 5.41413 13.707 3.81426 12.0144 2.2124C10.3617 3.87108 8.6906 5.51082 7.0369 7.16851C6.86047 6.99856 6.67955 6.83259 6.50311 6.66164C7.92705 5.24119 9.35945 3.82971 10.7814 2.40678C11.1995 2.01503 11.5988 1.60285 12.003 1.19666Z" fill="#013CC8"/>
<path d="M7.43207 7.47945C8.96814 5.95135 10.5197 4.43919 12.0572 2.91309C13.6252 4.38686 15.1877 5.86662 16.7552 7.34039C16.5827 7.51284 16.4098 7.68529 16.2378 7.85873C14.8508 6.54694 13.4637 5.23514 12.0692 3.93182C10.7041 5.28149 9.33297 6.62419 7.97084 7.97685C7.78793 7.81437 7.61099 7.64542 7.43207 7.47945Z" fill="#013CC8"/>
<path d="M8.31818 8.32479C9.55571 7.09971 10.8077 5.88909 12.0417 4.66003C13.3067 5.83128 14.5602 7.01399 15.8221 8.18773C15.6492 8.36017 15.4762 8.53262 15.3038 8.70606C14.2242 7.6958 13.1397 6.69152 12.0612 5.68026C10.9876 6.72491 9.92153 7.77804 8.85246 8.82767C8.67304 8.66171 8.4981 8.49026 8.31818 8.32479Z" fill="#013CC8"/>
<path d="M15.9647 8.58647C16.6081 7.97393 17.2257 7.33448 17.8566 6.70898C19.7221 8.47981 21.5931 10.2442 23.4631 12.01C23.2917 12.1809 23.1198 12.3514 22.9508 12.5248C21.2542 10.9334 19.5652 9.33357 17.8776 7.7327C16.2029 9.37145 14.5522 11.0346 12.8856 12.6818C12.7116 12.5094 12.5317 12.3439 12.3528 12.177C13.5584 10.9818 14.7645 9.78712 15.9647 8.58647Z" fill="#013CC8"/>
<path d="M3.48692 9.41776C4.32174 8.57147 5.17501 7.74512 6.01431 6.90332C7.88083 8.67215 9.75482 10.4345 11.6208 12.2043C11.4494 12.3763 11.2779 12.5477 11.106 12.7192C9.41291 11.1208 7.71835 9.52292 6.02927 7.92006C5.03545 8.90391 4.03865 9.88426 3.05281 10.8761C2.3705 11.5295 1.72208 12.2173 1.03678 12.8677C0.862837 12.6987 0.683911 12.5363 0.508972 12.3688C1.08612 11.7832 1.67972 11.214 2.25886 10.6304C2.66655 10.2247 3.06777 9.8115 3.48692 9.41776Z" fill="#013CC8"/>
<path d="M13.2833 12.9879C14.8239 11.4708 16.3629 9.95166 17.906 8.43701C18.0595 8.54068 18.1801 8.68621 18.3182 8.80882C19.7486 10.1555 21.1735 11.5082 22.6094 12.8489C22.4365 13.0233 22.2625 13.1968 22.0886 13.3707C20.7055 12.0574 19.3115 10.7556 17.9284 9.44229C16.5588 10.791 15.1867 12.1376 13.8216 13.4918C13.6382 13.3283 13.4623 13.1564 13.2833 12.9879Z" fill="#013CC8"/>
<path d="M6.06797 8.61487C7.63046 10.0956 9.20092 11.5679 10.7654 13.0462C10.5915 13.2171 10.4225 13.3931 10.2441 13.5585C8.85602 12.2497 7.46698 10.9424 6.07893 9.6341C4.71331 10.9858 3.33922 12.3285 1.9731 13.6801C1.80315 13.5087 1.60877 13.3612 1.45526 13.1743C2.5667 12.0419 3.71701 10.9484 4.83741 9.82499C5.25408 9.42776 5.6513 9.0116 6.06797 8.61487Z" fill="#013CC8"/>
<path d="M15.6861 12.3499C16.4232 11.6252 17.1624 10.9015 17.9005 10.1779C19.164 11.3516 20.4199 12.5333 21.6814 13.709C21.5044 13.8785 21.3245 14.045 21.1516 14.2184C20.076 13.2066 18.99 12.2059 17.9145 11.1941C16.8419 12.2392 15.7768 13.2919 14.7058 14.3385C14.5238 14.1726 14.3464 14.0021 14.1705 13.8301C14.6873 13.3487 15.1772 12.8393 15.6861 12.3499Z" fill="#013CC8"/>
<path d="M2.3266 14.0285C3.56313 12.8024 4.81711 11.5948 6.05016 10.3647C7.31659 11.5335 8.56658 12.7202 9.83203 13.8904C9.66107 14.0669 9.48613 14.2393 9.31269 14.4133C8.23016 13.402 7.14813 12.3898 6.06162 11.383C5.00551 12.4411 3.92298 13.4728 2.86736 14.5314C2.68545 14.3654 2.50353 14.2 2.3266 14.0285Z" fill="#013CC8"/>
<path d="M0 12.8702C2.03298 14.6605 4.07044 16.4458 6.10043 18.2395C7.96944 16.5161 9.83745 14.7916 11.702 13.0631C11.6825 13.3961 11.7309 13.728 11.7214 14.0609C9.85041 15.7784 7.98389 17.5004 6.11688 19.2224C4.12228 17.462 2.13715 15.6907 0.143539 13.9288C0.0946961 13.8805 0.02492 13.8346 0.0343896 13.7559C0.0264152 13.4608 0.00598082 13.1658 0 12.8702Z" fill="#013CC8"/>
<path d="M12.28 12.9575C14.3015 14.7288 16.3445 16.4762 18.3755 18.2366C20.1842 16.4847 21.9949 14.7343 23.7981 12.9775C23.7941 13.3079 23.827 13.6373 23.835 13.9673C22.0323 15.7286 20.2091 17.4691 18.4024 19.2259C16.3779 17.4526 14.3454 15.6883 12.3189 13.9169C12.3069 13.597 12.3015 13.277 12.28 12.9575Z" fill="#013CC8"/>
<path d="M18.4618 20.1435C20.2824 18.3278 22.0767 16.4867 23.8799 14.6536C23.8938 14.9696 23.8933 15.2865 23.9073 15.603C22.1046 17.4456 20.2969 19.2832 18.4971 21.1283C16.4652 19.3535 14.4392 17.5717 12.4057 15.7984C12.4012 15.4515 12.3718 15.1061 12.3618 14.7592C14.3933 16.5565 16.4298 18.3472 18.4618 20.1435Z" fill="#013CC8"/>
<path d="M0.0567017 14.6685C2.09118 16.4941 4.12266 18.3237 6.16162 20.1439C8.03711 18.3576 9.88817 16.5454 11.7492 14.7442C11.7357 15.0507 11.7951 15.3572 11.7642 15.6638C11.6361 15.8442 11.4561 15.9822 11.3006 16.1387C9.5976 17.8089 7.87861 19.4621 6.17857 21.1352C4.2986 19.4631 2.42162 17.788 0.543141 16.1138C0.391627 15.9723 0.222171 15.8482 0.0866057 15.6907C0.0821201 15.3503 0.0616857 15.0094 0.0567017 14.6685Z" fill="#013CC8"/>
<path d="M18.5499 21.8166C20.3541 19.9805 22.1524 18.1389 23.9491 16.2953C23.9765 16.6272 23.9925 16.9597 24 17.2926C22.1928 19.1282 20.3826 20.9613 18.5739 22.7959C16.5504 21.0461 14.5169 19.3076 12.4919 17.5592C12.458 17.2263 12.4669 16.8919 12.4505 16.5584C14.479 18.3163 16.5219 20.0577 18.5499 21.8166Z" fill="#013CC8"/>
<path d="M6.21355 21.813C8.08804 20.0143 9.9406 18.1936 11.7966 16.377C11.8191 16.7119 11.831 17.0473 11.8285 17.3832C9.96004 19.1884 8.09003 20.9927 6.22701 22.8034C4.202 21.0236 2.17152 19.2492 0.143024 17.4739C0.128072 17.138 0.133554 16.8021 0.124084 16.4667C0.929501 17.1988 1.75984 17.9031 2.57522 18.6242C3.78883 19.6863 5.00094 20.7499 6.21355 21.813Z" fill="#013CC8"/>
</g>
<defs>
<clipPath id="clip0_845_5491">
<rect width="24" height="24" fill="white"/>
</clipPath>
</defs>
</svg>
