<svg width="24" height="24" viewBox="0 0 24 24" fill="none" xmlns="http://www.w3.org/2000/svg">
<g clip-path="url(#clip0_845_5478)">
<path fill-rule="evenodd" clip-rule="evenodd" d="M20.7192 0.311279H3.27934C1.64954 0.311279 0.30957 1.6649 0.30957 3.31889V20.6823C0.30957 22.3355 1.64954 23.6895 3.27934 23.6895H20.7192C22.3587 23.6895 23.6897 22.3355 23.6897 20.6823V3.31928C23.6897 1.66529 22.3587 0.311279 20.7192 0.311279Z" fill="#9E173B"/>
<path d="M3.27956 0.621198C1.81204 0.621198 0.619917 1.83126 0.619917 3.31946V20.6824C0.619917 22.1703 1.81204 23.3799 3.27956 23.3799H20.7194C22.1861 23.3799 23.3825 22.1703 23.3825 20.6821V3.31946C23.3825 1.83126 22.1857 0.621198 20.7194 0.621198H3.27956ZM20.7194 23.9986H3.27956C1.47071 23.9986 6.10352e-05 22.5104 6.10352e-05 20.6821V3.31946C6.10352e-05 1.49032 1.47071 0.00134277 3.27956 0.00134277H20.7194C22.5271 0.00134277 24.0001 1.49032 24.0001 3.31946V20.6824C24.0001 22.5104 22.5271 23.9986 20.7194 23.9986Z" fill="white"/>
<path fill-rule="evenodd" clip-rule="evenodd" d="M16.3838 3.36479H20.6409V20.6404H16.3838V15.7486C12.6338 17.1198 9.1273 17.2407 5.90592 14.0845C4.57141 12.6958 3.81893 10.8038 4.13373 7.50756C4.18756 7.00278 3.95156 4.66145 3.35901 3.36011H7.14017C8.91157 6.17267 6.59014 9.76229 9.30401 12.0537C13.0029 14.4481 16.2277 11.5848 16.3838 8.99966V3.36479ZM12.1423 5.14751C14.1583 5.14751 15.7869 6.77848 15.7869 8.75547C15.7869 10.7508 14.1583 12.3658 12.1423 12.3658C10.1267 12.3658 8.48052 10.7508 8.48052 8.75547C8.48052 6.77848 10.1267 5.14751 12.1423 5.14751Z" fill="#FAB90C"/>
</g>
<defs>
<clipPath id="clip0_845_5478">
<rect width="24" height="24" fill="white"/>
</clipPath>
</defs>
</svg>
