<svg width="24" height="24" viewBox="0 0 24 24" fill="none" xmlns="http://www.w3.org/2000/svg">
<path d="M14.4699 9.47387C14.1669 10.5126 14.2532 10.1229 13.805 11.8265C13.3998 13.4444 12.9793 15.0464 12.662 16.1144C12.5603 16.3167 12.4438 16.5205 12.2862 16.7218C12.0977 16.9672 11.88 17.2126 11.6351 17.4293C10.2596 18.6277 8.20626 19.3363 6.42869 19.0616C6.28287 19.0452 6.10881 19.0169 5.90805 18.9599C4.79231 18.6996 4.05551 18.1497 3.63601 17.4591C3.18777 16.7218 3.07173 15.7544 3.23039 14.7142C3.24579 14.5704 3.28892 14.3825 3.3454 14.1658C4.02573 11.4209 4.72043 8.69342 5.40127 5.96442C5.67545 4.57912 2.75236 4.21662 2.13108 6.02141L0.250305 13.4156C0.208716 13.6457 0.150182 13.9342 0.105512 14.2367C-0.169186 15.9983 0.0911351 17.6758 0.902391 19.0616C1.75524 20.4895 3.15902 21.56 5.16867 22.034C5.38586 22.0925 5.6467 22.1361 5.94963 22.1798C8.62421 22.5839 11.7065 21.5724 13.7187 19.7968C14.1218 19.4354 14.4991 19.0451 14.8175 18.6277C15.1353 18.1938 15.41 17.7317 15.6282 17.2404V17.2265L15.6852 17.0684C16.0036 16.0271 16.4379 14.3245 16.8857 12.6059C17.3046 10.9747 17.4638 10.4114 17.7816 9.34242C18.0866 7.88473 15.2508 7.26345 14.4699 9.47387Z" fill="#ED1D24"/>
<path d="M9.50984 14.5127C9.82562 13.4888 9.74038 13.876 10.1743 12.159C10.5948 10.5565 11.0137 8.93759 11.3151 7.88398C11.4183 7.68271 11.5488 7.46603 11.7064 7.27862C11.8953 7.01779 12.112 6.78776 12.3569 6.57159C13.7325 5.3583 15.8012 4.66412 17.5654 4.92495C17.7102 4.95319 17.8837 4.98194 18.0855 5.02559C19.2002 5.3008 19.9519 5.8353 20.3725 6.54233C20.8048 7.27862 20.9378 8.23261 20.7765 9.28417C20.7473 9.42999 20.7196 9.60251 20.661 9.83407C19.9365 12.7217 19.2146 15.594 18.5066 18.4832C18.3166 20.2017 21.3552 20.3742 21.7891 18.4396L23.7423 10.5847C23.7992 10.3393 23.8578 10.0656 23.9009 9.74833C24.1607 8.00002 23.9158 6.32616 23.0902 4.93984C22.2532 3.50987 20.8495 2.44086 18.8383 1.96489C18.6216 1.92176 18.3592 1.86323 18.0429 1.81958C15.3673 1.41652 12.2866 2.44086 10.2754 4.20355C9.85591 4.56399 9.49392 4.95319 9.17456 5.37217C8.85724 5.79063 8.58152 6.2666 8.38076 6.75901L8.30733 6.93152C8.0044 7.95689 7.55513 9.67542 7.12126 11.3796C6.68739 13.0257 6.54362 13.589 6.22425 14.6421C6.19601 16.6204 9.16018 16.4474 9.50984 14.5127Z" fill="#006CB7"/>
</svg>
