<svg width="24" height="24" viewBox="0 0 24 24" fill="none" xmlns="http://www.w3.org/2000/svg">
<g clip-path="url(#clip0_845_5670)">
<path d="M17.1257 9.47479C13.4242 13.1003 10.2462 16.177 10.0578 16.3206C9.62844 16.6385 8.99494 16.9462 8.4871 17.0847C7.84313 17.259 7.27245 17.2642 5.51855 17.1103C4.64422 17.0385 3.89554 16.9821 3.84318 16.9924C3.72277 17.0129 7.08398 20.1973 7.5447 20.4999C7.96354 20.7768 8.58657 21.0024 9.14154 21.0845C10.2934 21.2537 11.597 20.8127 12.4294 19.9666C12.7226 19.6743 24.0314 3.03408 24 2.95203C23.9843 2.91101 23.9476 2.88024 23.911 2.88024C23.8795 2.88024 20.8272 5.84933 17.1257 9.47479Z" fill="#CB2448"/>
<path d="M2.96629 13.0519C2.54861 13.1456 0.199148 13.906 0.0477385 13.9945C-0.0827872 14.0778 0.0581806 14.1924 0.423652 14.307C1.25902 14.557 1.94819 15.0153 3.00284 16.0308L3.47273 16.4787L5.40451 16.6454C7.5608 16.8276 7.86362 16.8381 8.11423 16.7339C8.4797 16.5829 8.71986 16.0569 8.61545 15.6559C8.52669 15.3278 8.47448 15.2705 7.8584 14.7809C6.72543 13.8852 5.96838 13.4216 5.16957 13.156C4.51694 12.9373 3.67113 12.9009 2.96629 13.0519Z" fill="#CB2448"/>
</g>
<defs>
<clipPath id="clip0_845_5670">
<rect width="24" height="24" fill="white" transform="translate(0 0.000244141)"/>
</clipPath>
</defs>
</svg>
