<svg width="48" height="48" viewBox="0 0 48 48" fill="none" xmlns="http://www.w3.org/2000/svg">
<circle cx="24" cy="24" r="23.8" fill="#5BC4F0" fill-opacity="0.1" stroke="url(#paint0_linear_137_28065)" stroke-width="0.4"/>
<mask id="mask0_137_28065" style="mask-type:alpha" maskUnits="userSpaceOnUse" x="12" y="12" width="24" height="24">
<rect x="12" y="12" width="24" height="24" fill="#D9D9D9"/>
</mask>
<g mask="url(#mask0_137_28065)">
<path d="M19 25.2308C18.6615 25.2308 18.3718 25.1102 18.1308 24.8692C17.8898 24.6282 17.7693 24.3385 17.7693 24C17.7693 23.6615 17.8898 23.3717 18.1308 23.1307C18.3718 22.8897 18.6615 22.7693 19 22.7693C19.3385 22.7693 19.6283 22.8897 19.8693 23.1307C20.1103 23.3717 20.2308 23.6615 20.2308 24C20.2308 24.3385 20.1103 24.6282 19.8693 24.8692C19.6283 25.1102 19.3385 25.2308 19 25.2308ZM19 29C17.6112 29 16.4306 28.5143 15.4583 27.543C14.4861 26.5717 14 25.3922 14 24.0045C14 22.6168 14.4861 21.4358 15.4583 20.4615C16.4306 19.4872 17.6112 19 19 19C20.027 19 20.953 19.2782 21.778 19.8345C22.603 20.391 23.2052 21.1128 23.5845 22H32.4595C32.5617 22 32.6607 22.0186 32.7565 22.0557C32.8522 22.0929 32.9436 22.1551 33.0308 22.2423L34.223 23.4345C34.3102 23.5218 34.3714 23.6118 34.4068 23.7045C34.4419 23.7972 34.4595 23.8965 34.4595 24.0025C34.4595 24.1085 34.4419 24.207 34.4068 24.298C34.3714 24.389 34.3102 24.4782 34.223 24.5655L32.1058 26.6635C32.0393 26.7352 31.9595 26.7925 31.8665 26.8355C31.7735 26.8785 31.6815 26.9019 31.5905 26.9058C31.4993 26.9096 31.4083 26.8981 31.3173 26.8713C31.2263 26.8443 31.1372 26.8019 31.05 26.7442L29.8845 25.8655L28.5173 26.8635C28.4468 26.9173 28.3743 26.9545 28.3 26.975C28.2257 26.9955 28.1449 27.0058 28.0578 27.0058C27.9706 27.0058 27.8888 26.9923 27.8125 26.9655C27.7362 26.9385 27.6628 26.9045 27.5923 26.8635L26.298 26H23.5845C23.2052 26.8743 22.603 27.5929 21.778 28.1558C20.953 28.7186 20.027 29 19 29ZM19 28C19.9847 28 20.8248 27.7038 21.5203 27.1115C22.2158 26.5192 22.6609 25.8153 22.8558 25H26.6155L28.0463 25.9673C28.0334 25.9673 28.0302 25.9683 28.0365 25.9703C28.043 25.9721 28.0463 25.9711 28.0463 25.9673L29.9038 24.6345L31.525 25.8558L33.3808 24L32.3808 23H22.8558C22.6609 22.1847 22.2158 21.4808 21.5203 20.8885C20.8248 20.2962 19.9847 20 19 20C17.9 20 16.9583 20.3917 16.175 21.175C15.3917 21.9583 15 22.9 15 24C15 25.1 15.3917 26.0417 16.175 26.825C16.9583 27.6083 17.9 28 19 28Z" fill="#1D478E"/>
</g>
<defs>
<linearGradient id="paint0_linear_137_28065" x1="0" y1="24" x2="48" y2="24" gradientUnits="userSpaceOnUse">
<stop stop-color="#8FD1EC"/>
<stop offset="1" stop-color="#229ACE"/>
</linearGradient>
</defs>
</svg>
