<svg width="48" height="48" viewBox="0 0 48 48" fill="none" xmlns="http://www.w3.org/2000/svg">
<circle cx="24" cy="24" r="23.8" fill="#5BC4F0" fill-opacity="0.1" stroke="url(#paint0_linear_137_28056)" stroke-width="0.4"/>
<mask id="mask0_137_28056" style="mask-type:alpha" maskUnits="userSpaceOnUse" x="12" y="12" width="25" height="25">
<rect x="12.2539" y="12.2751" width="24" height="24" fill="#D9D9D9"/>
</mask>
<g mask="url(#mask0_137_28056)">
<path d="M19.3309 28.3522C18.2029 28.3522 17.2414 27.9548 16.4464 27.16C15.6514 26.3652 15.2539 25.4039 15.2539 24.2762C15.2539 23.1486 15.6514 22.187 16.4464 21.3915C17.2414 20.596 18.2029 20.1982 19.3309 20.1982H22.3694C22.5111 20.1982 22.6298 20.2462 22.7257 20.3422C22.8215 20.4382 22.8694 20.5572 22.8694 20.699C22.8694 20.8408 22.8215 20.9595 22.7257 21.055C22.6298 21.1505 22.5111 21.1982 22.3694 21.1982H19.3287C18.484 21.1982 17.7603 21.4996 17.1577 22.1022C16.5552 22.7047 16.2539 23.4291 16.2539 24.2752C16.2539 25.1214 16.5552 25.8457 17.1577 26.4482C17.7603 27.0509 18.484 27.3522 19.3287 27.3522H22.3694C22.5111 27.3522 22.6298 27.4002 22.7257 27.496C22.8215 27.592 22.8694 27.7109 22.8694 27.8527C22.8694 27.9947 22.8215 28.1135 22.7257 28.209C22.6298 28.3045 22.5111 28.3522 22.3694 28.3522H19.3309ZM21.2539 24.7752C21.1122 24.7752 20.9935 24.7272 20.8977 24.6312C20.8018 24.5352 20.7539 24.4163 20.7539 24.2745C20.7539 24.1327 20.8018 24.014 20.8977 23.9185C20.9935 23.823 21.1122 23.7752 21.2539 23.7752H27.2539C27.3956 23.7752 27.5143 23.8232 27.6102 23.9192C27.706 24.0152 27.7539 24.1342 27.7539 24.276C27.7539 24.4178 27.706 24.5365 27.6102 24.632C27.5143 24.7275 27.3956 24.7752 27.2539 24.7752H21.2539ZM26.1384 28.3522C25.9967 28.3522 25.878 28.3042 25.7822 28.2082C25.6863 28.1122 25.6384 27.9933 25.6384 27.8515C25.6384 27.7097 25.6863 27.591 25.7822 27.4955C25.878 27.4 25.9967 27.3522 26.1384 27.3522H29.1792C30.0238 27.3522 30.7475 27.0509 31.3502 26.4482C31.9527 25.8457 32.2539 25.1214 32.2539 24.2752C32.2539 23.4291 31.9527 22.7047 31.3502 22.1022C30.7475 21.4996 30.0238 21.1982 29.1792 21.1982H26.1384C25.9967 21.1982 25.878 21.1503 25.7822 21.0545C25.6863 20.9585 25.6384 20.8396 25.6384 20.6977C25.6384 20.5557 25.6863 20.437 25.7822 20.3415C25.878 20.246 25.9967 20.1982 26.1384 20.1982H29.1769C30.3049 20.1982 31.2664 20.5957 32.0614 21.3905C32.8564 22.1853 33.2539 23.1466 33.2539 24.2742C33.2539 25.4019 32.8564 26.3635 32.0614 27.159C31.2664 27.9545 30.3049 28.3522 29.1769 28.3522H26.1384Z" fill="#1D478E"/>
</g>
<defs>
<linearGradient id="paint0_linear_137_28056" x1="0" y1="24" x2="48" y2="24" gradientUnits="userSpaceOnUse">
<stop stop-color="#8FD1EC"/>
<stop offset="1" stop-color="#229ACE"/>
</linearGradient>
</defs>
</svg>
