<svg width="48" height="48" viewBox="0 0 48 48" fill="none" xmlns="http://www.w3.org/2000/svg">
<circle cx="24" cy="24" r="23.8" fill="#5BC4F0" fill-opacity="0.1" stroke="url(#paint0_linear_137_28072)" stroke-width="0.4"/>
<mask id="mask0_137_28072" style="mask-type:alpha" maskUnits="userSpaceOnUse" x="12" y="12" width="24" height="24">
<rect x="12" y="12" width="24" height="24" fill="#D9D9D9"/>
</mask>
<g mask="url(#mask0_137_28072)">
<path d="M22 23.3845C21.175 23.3845 20.4688 23.0908 19.8812 22.5033C19.2937 21.9158 19 21.2095 19 20.3845C19 19.5595 19.2937 18.8533 19.8812 18.2658C20.4688 17.6783 21.175 17.3845 22 17.3845C22.825 17.3845 23.5313 17.6783 24.1188 18.2658C24.7063 18.8533 25 19.5595 25 20.3845C25 21.2095 24.7063 21.9158 24.1188 22.5033C23.5313 23.0908 22.825 23.3845 22 23.3845ZM15 29.577V28.9693C15 28.5089 15.1192 28.1109 15.3577 27.775C15.5962 27.4392 15.9206 27.1654 16.3307 26.9538C17.1693 26.5218 18.04 26.1907 18.943 25.9605C19.8458 25.7305 20.7706 25.6155 21.7173 25.6155H22.0058C22.1474 25.6155 22.2662 25.6651 22.362 25.7643C22.4578 25.8634 22.5058 25.9833 22.5058 26.1238C22.5058 26.2643 22.4578 26.3824 22.362 26.478C22.2662 26.5735 22.1474 26.6213 22.0058 26.6213H21.7173C20.8464 26.6213 20.0028 26.7219 19.1863 26.923C18.3698 27.1244 17.5769 27.4334 16.8077 27.85C16.5897 27.9719 16.4007 28.127 16.2405 28.3155C16.0802 28.5039 16 28.7218 16 28.9693V29.6155H22.0058C22.1474 29.6155 22.2662 29.6634 22.362 29.7593C22.4578 29.8553 22.5058 29.9742 22.5058 30.116C22.5058 30.2579 22.4578 30.3765 22.362 30.472C22.2662 30.5677 22.1474 30.6155 22.0058 30.6155H16.0385C15.7448 30.6155 15.4983 30.5158 15.299 30.3163C15.0997 30.1169 15 29.8705 15 29.577ZM28.1578 30.7385L28.0655 29.9423C27.7885 29.8846 27.5273 29.7875 27.2818 29.651C27.0363 29.5145 26.8154 29.3411 26.6193 29.1308L25.8558 29.452C25.7544 29.493 25.6597 29.4948 25.5717 29.4573C25.4836 29.4196 25.4148 29.3595 25.3655 29.277L25.3 29.1578C25.2475 29.0731 25.2285 28.9796 25.243 28.8773C25.2575 28.7749 25.3047 28.6909 25.3845 28.625L26.0307 28.15C25.9206 27.8654 25.8655 27.5718 25.8655 27.2693C25.8655 26.9668 25.9206 26.6732 26.0307 26.3885L25.4038 25.875C25.3231 25.8147 25.2725 25.7362 25.252 25.6395C25.2315 25.5427 25.2475 25.4519 25.3 25.3673L25.3712 25.2423C25.4241 25.1598 25.4959 25.0997 25.5867 25.062C25.6776 25.0245 25.7737 25.0263 25.875 25.0673L26.6193 25.3885C26.8026 25.1782 27.0202 25.008 27.272 24.878C27.524 24.7479 27.7885 24.6539 28.0655 24.5963L28.1578 23.7943C28.1693 23.6891 28.2144 23.6042 28.2933 23.5395C28.3721 23.4747 28.4641 23.4423 28.5693 23.4423H28.7C28.8052 23.4423 28.8972 23.4756 28.976 23.5423C29.0548 23.6089 29.1 23.6949 29.1115 23.8L29.1845 24.5963C29.4615 24.6539 29.726 24.7488 29.978 24.8808C30.2298 25.0128 30.4474 25.1859 30.6307 25.4L31.3635 25.0788C31.4687 25.0339 31.5654 25.0308 31.6538 25.0693C31.7423 25.1078 31.8123 25.1663 31.8638 25.2448L31.9517 25.3823C32.0031 25.4608 32.0185 25.5494 31.998 25.648C31.9775 25.7469 31.9269 25.8264 31.8463 25.8865L31.2193 26.4C31.3294 26.681 31.3845 26.9737 31.3845 27.278C31.3845 27.5824 31.3294 27.873 31.2193 28.15L31.8655 28.625C31.9462 28.6854 31.9936 28.7671 32.0077 28.8703C32.0217 28.9734 32.0025 29.0674 31.95 29.152L31.8788 29.277C31.8288 29.3595 31.7608 29.4196 31.675 29.4573C31.5892 29.4948 31.4956 29.493 31.3943 29.452L30.6307 29.1308C30.4346 29.3411 30.2137 29.5145 29.9682 29.651C29.7227 29.7875 29.4615 29.8846 29.1845 29.9423L29.1115 30.7443C29.1 30.8494 29.0548 30.9344 28.976 30.999C28.8972 31.0639 28.8052 31.0963 28.7 31.0963H28.5693C28.4641 31.0963 28.3721 31.0629 28.2933 30.9963C28.2144 30.9296 28.1693 30.8437 28.1578 30.7385ZM28.617 29.077C29.1147 29.077 29.5401 28.8999 29.8932 28.5455C30.2464 28.1912 30.423 27.7652 30.423 27.2675C30.423 26.77 30.2458 26.3446 29.8915 25.9913C29.5372 25.6381 29.1112 25.4615 28.6137 25.4615C28.1161 25.4615 27.6907 25.6387 27.3375 25.993C26.9843 26.3474 26.8077 26.7734 26.8077 27.271C26.8077 27.7685 26.9849 28.1939 27.3393 28.547C27.6936 28.9004 28.1195 29.077 28.617 29.077ZM22 22.3845C22.55 22.3845 23.0208 22.1887 23.4125 21.797C23.8042 21.4054 24 20.9345 24 20.3845C24 19.8345 23.8042 19.3637 23.4125 18.972C23.0208 18.5804 22.55 18.3845 22 18.3845C21.45 18.3845 20.9792 18.5804 20.5875 18.972C20.1958 19.3637 20 19.8345 20 20.3845C20 20.9345 20.1958 21.4054 20.5875 21.797C20.9792 22.1887 21.45 22.3845 22 22.3845Z" fill="#1D478E"/>
</g>
<defs>
<linearGradient id="paint0_linear_137_28072" x1="0" y1="24" x2="48" y2="24" gradientUnits="userSpaceOnUse">
<stop stop-color="#8FD1EC"/>
<stop offset="1" stop-color="#229ACE"/>
</linearGradient>
</defs>
</svg>
