<svg width="24" height="24" viewBox="0 0 24 24" fill="none" xmlns="http://www.w3.org/2000/svg">
<circle cx="12" cy="12" r="12" fill="#5BC4F0" fill-opacity="0.2"/>
<path d="M14.8824 7.88235H9.23529C9.14169 7.88235 9.05192 7.91954 8.98573 7.98573C8.91954 8.05192 8.88235 8.14169 8.88235 8.23529V11.0588C8.88235 11.1524 8.91954 11.2422 8.98573 11.3084C9.05192 11.3746 9.14169 11.4118 9.23529 11.4118H14.8824C14.976 11.4118 15.0657 11.3746 15.1319 11.3084C15.1981 11.2422 15.2353 11.1524 15.2353 11.0588V8.23529C15.2353 8.14169 15.1981 8.05192 15.1319 7.98573C15.0657 7.91954 14.976 7.88235 14.8824 7.88235ZM14.5294 10.7059H9.58824V8.58824H14.5294V10.7059ZM16.2941 6H7.82353C7.60512 6 7.39565 6.08676 7.24121 6.24121C7.08676 6.39565 7 6.60512 7 6.82353V17.1765C7 17.3949 7.08676 17.6044 7.24121 17.7588C7.39565 17.9132 7.60512 18 7.82353 18H16.2941C16.5125 18 16.722 17.9132 16.8764 17.7588C17.0309 17.6044 17.1176 17.3949 17.1176 17.1765V6.82353C17.1176 6.60512 17.0309 6.39565 16.8764 6.24121C16.722 6.08676 16.5125 6 16.2941 6ZM16.4118 17.1765C16.4118 17.2077 16.3994 17.2376 16.3773 17.2597C16.3552 17.2817 16.3253 17.2941 16.2941 17.2941H7.82353C7.79233 17.2941 7.7624 17.2817 7.74034 17.2597C7.71828 17.2376 7.70588 17.2077 7.70588 17.1765V6.82353C7.70588 6.79233 7.71828 6.7624 7.74034 6.74034C7.7624 6.71828 7.79233 6.70588 7.82353 6.70588H16.2941C16.3253 6.70588 16.3552 6.71828 16.3773 6.74034C16.3994 6.7624 16.4118 6.79233 16.4118 6.82353V17.1765ZM10.2941 13.1765C10.2941 13.2928 10.2596 13.4065 10.195 13.5033C10.1303 13.6 10.0385 13.6754 9.93099 13.7199C9.8235 13.7645 9.70523 13.7761 9.59112 13.7534C9.47702 13.7307 9.3722 13.6747 9.28994 13.5924C9.20767 13.5101 9.15165 13.4053 9.12895 13.2912C9.10625 13.1771 9.1179 13.0588 9.16242 12.9514C9.20695 12.8439 9.28234 12.752 9.37908 12.6874C9.47581 12.6227 9.58954 12.5882 9.70588 12.5882C9.86189 12.5882 10.0115 12.6502 10.1218 12.7605C10.2321 12.8708 10.2941 13.0205 10.2941 13.1765ZM12.6471 13.1765C12.6471 13.2928 12.6126 13.4065 12.5479 13.5033C12.4833 13.6 12.3914 13.6754 12.2839 13.7199C12.1764 13.7645 12.0582 13.7761 11.9441 13.7534C11.83 13.7307 11.7251 13.6747 11.6429 13.5924C11.5606 13.5101 11.5046 13.4053 11.4819 13.2912C11.4592 13.1771 11.4708 13.0588 11.5154 12.9514C11.5599 12.8439 11.6353 12.752 11.732 12.6874C11.8288 12.6227 11.9425 12.5882 12.0588 12.5882C12.2148 12.5882 12.3645 12.6502 12.4748 12.7605C12.5851 12.8708 12.6471 13.0205 12.6471 13.1765ZM15 13.1765C15 13.2928 14.9655 13.4065 14.9009 13.5033C14.8362 13.6 14.7444 13.6754 14.6369 13.7199C14.5294 13.7645 14.4111 13.7761 14.297 13.7534C14.1829 13.7307 14.0781 13.6747 13.9958 13.5924C13.9136 13.5101 13.8575 13.4053 13.8348 13.2912C13.8121 13.1771 13.8238 13.0588 13.8683 12.9514C13.9128 12.8439 13.9882 12.752 14.085 12.6874C14.1817 12.6227 14.2954 12.5882 14.4118 12.5882C14.5678 12.5882 14.7174 12.6502 14.8277 12.7605C14.938 12.8708 15 13.0205 15 13.1765ZM10.2941 15.5294C10.2941 15.6458 10.2596 15.7595 10.195 15.8562C10.1303 15.953 10.0385 16.0283 9.93099 16.0729C9.8235 16.1174 9.70523 16.129 9.59112 16.1063C9.47702 16.0836 9.3722 16.0276 9.28994 15.9454C9.20767 15.8631 9.15165 15.7583 9.12895 15.6442C9.10625 15.5301 9.1179 15.4118 9.16242 15.3043C9.20695 15.1968 9.28234 15.1049 9.37908 15.0403C9.47581 14.9757 9.58954 14.9412 9.70588 14.9412C9.86189 14.9412 10.0115 15.0032 10.1218 15.1135C10.2321 15.2238 10.2941 15.3734 10.2941 15.5294ZM12.6471 15.5294C12.6471 15.6458 12.6126 15.7595 12.5479 15.8562C12.4833 15.953 12.3914 16.0283 12.2839 16.0729C12.1764 16.1174 12.0582 16.129 11.9441 16.1063C11.83 16.0836 11.7251 16.0276 11.6429 15.9454C11.5606 15.8631 11.5046 15.7583 11.4819 15.6442C11.4592 15.5301 11.4708 15.4118 11.5154 15.3043C11.5599 15.1968 11.6353 15.1049 11.732 15.0403C11.8288 14.9757 11.9425 14.9412 12.0588 14.9412C12.2148 14.9412 12.3645 15.0032 12.4748 15.1135C12.5851 15.2238 12.6471 15.3734 12.6471 15.5294ZM15 15.5294C15 15.6458 14.9655 15.7595 14.9009 15.8562C14.8362 15.953 14.7444 16.0283 14.6369 16.0729C14.5294 16.1174 14.4111 16.129 14.297 16.1063C14.1829 16.0836 14.0781 16.0276 13.9958 15.9454C13.9136 15.8631 13.8575 15.7583 13.8348 15.6442C13.8121 15.5301 13.8238 15.4118 13.8683 15.3043C13.9128 15.1968 13.9882 15.1049 14.085 15.0403C14.1817 14.9757 14.2954 14.9412 14.4118 14.9412C14.5678 14.9412 14.7174 15.0032 14.8277 15.1135C14.938 15.2238 15 15.3734 15 15.5294Z" fill="#1D478E"/>
</svg>
