<svg width="187" height="187" viewBox="0 0 187 187" fill="none" xmlns="http://www.w3.org/2000/svg">
<path d="M94.8301 187.009C138.703 187.009 174.27 181.125 174.27 173.866C174.27 166.607 138.703 160.723 94.8301 160.723C50.9569 160.723 15.3906 166.607 15.3906 173.866C15.3906 181.125 50.9569 187.009 94.8301 187.009Z" fill="#5BC4F0" fill-opacity="0.2"/>
<path d="M37.5464 113.625L93.0111 101.762L148.142 114.84L92.721 128.175L37.5464 113.625Z" fill="#161742" stroke="black" stroke-width="0.0547373" stroke-linecap="round" stroke-linejoin="round"/>
<path opacity="0.1" d="M0.000582989 17.3869L44.0449 -13.1744L71.5907 133.926L51.4385 147.909L0.000582989 17.3869Z" fill="url(#paint0_linear_55_636)"/>
<path opacity="0.1" d="M186.737 17.9799L142.571 -12.6657L114.949 134.841L135.157 148.862L186.737 17.9799Z" fill="url(#paint1_linear_55_636)"/>
<path opacity="0.1" d="M64.9977 -9L121.998 -9L106.538 131L80.4578 131L64.9977 -9Z" fill="url(#paint2_linear_55_636)"/>
<path d="M88.1091 158.986L107.913 149.445L88.1091 145.383V158.986Z" fill="#FFD325"/>
<path d="M161.119 156.478L140.222 150.931L161.119 145.383V156.478Z" fill="#FFD325"/>
<path d="M105.015 176.301L111.36 166.053L92.6755 176.289L105.015 176.301Z" fill="#FFD325"/>
<path d="M136.012 176.168L131.14 168.301L145.487 176.159L136.012 176.168Z" fill="#FFD325"/>
<path d="M147.941 176.167L141 164.958L161.439 176.153L147.941 176.167Z" fill="#FFD325"/>
<path d="M114.319 176.225L116.223 171.101L110.058 176.289L114.319 176.225Z" fill="#FFD325"/>
<path d="M131.464 176.289L125.574 170.466L126.941 176.289H131.464Z" fill="#FFD325"/>
<path d="M123.052 176.289L121.89 171.046L117.902 176.345L123.052 176.289Z" fill="#FFD325"/>
<path d="M88.109 175.948L106.843 158.986L88.109 162.344V175.948Z" fill="#FFD325"/>
<path d="M161.276 173.439L142.543 156.478L161.276 159.836V173.439Z" fill="#FFD325"/>
<path d="M37.5507 113.625L36.9691 166.58L92.1194 183.344L92.7253 128.175L37.5507 113.625ZM148.205 114.841L147.623 167.796L92.1194 183.344L92.7253 128.175L148.205 114.841Z" fill="#194084"/>
<path d="M92.1194 183.344L36.9691 166.58L37.5507 113.625L92.7253 128.175M92.1194 183.344L92.7253 128.175M92.1194 183.344L147.623 167.796L148.205 114.841L92.7253 128.175" stroke="black" stroke-width="0.1" stroke-miterlimit="10"/>
<path d="M37.539 113.162L36.9574 166.117L92.1077 182.881L92.7136 127.712L37.539 113.162Z" fill="#161742" stroke="black" stroke-width="0.1" stroke-miterlimit="10"/>
<path d="M125.589 122.395V174.056L118.578 175.979V122.017L125.589 122.395Z" fill="#32B353"/>
<path d="M59.5472 122.01V173.445L66.5585 175.595V121.632L59.5472 122.01Z" fill="#32B353"/>
<path d="M37.7968 118.594L37.565 145.162L69.8813 154.853L92.7264 128.175L37.7968 118.594ZM147.974 119.805L147.682 146.373L115.161 155.351L92.9064 128.177L147.974 119.805Z" fill="#000003" stroke="black" stroke-width="0.0547373" stroke-linecap="round" stroke-linejoin="round"/>
<path d="M148.387 114.842L174.545 135.177L115.93 150.631L92.8468 128.175L148.387 114.842L148.387 114.842ZM37.5523 113.624L12.16 132.555L69.1554 150.117L92.7265 128.174L37.5519 113.624L37.5523 113.624Z" fill="#2E61B8" stroke="black" stroke-width="0.0547373" stroke-linecap="round" stroke-linejoin="round"/>
<path d="M127.265 87.9775C128.115 88.3887 128.697 89.0178 129.099 89.8114C129.5 89.0219 130.082 88.3887 130.932 87.9775C130.082 87.5663 129.495 86.9372 129.099 86.1436C128.697 86.933 128.115 87.5663 127.265 87.9775Z" fill="#AF8E2F"/>
<path d="M107.664 98.672C108.37 99.0135 108.855 99.5378 109.186 100.195C109.517 99.5378 110.005 99.0116 110.711 98.67C110.005 98.3285 109.517 97.8042 109.186 97.147C108.855 97.8042 108.37 98.3305 107.664 98.672Z" fill="#AF8E2F"/>
<path d="M130.32 111.509C131.026 111.851 131.511 112.375 131.842 113.032C132.174 112.375 132.661 111.849 133.367 111.507C132.661 111.166 132.174 110.641 131.842 109.984C131.511 110.641 131.026 111.168 130.32 111.509Z" fill="#AF8E2F"/>
<path d="M168 74.0585C169.416 74.7435 170.389 75.7949 171.053 77.1131C171.718 75.7949 172.695 74.7395 174.111 74.0545C172.695 73.3696 171.718 72.3182 171.053 71C170.389 72.3182 169.416 73.3735 168 74.0585Z" fill="#FFD325"/>
<path d="M19.0001 101.528C19.7082 101.871 20.1935 102.395 20.5278 103.057C20.8621 102.399 21.3473 101.871 22.0555 101.528C21.3473 101.186 20.8585 100.661 20.5278 100C20.1935 100.658 19.7082 101.186 19.0001 101.528Z" fill="#AF8E2F"/>
<path d="M9.00011 45.8339C9.84986 46.2451 10.4322 46.8742 10.8333 47.6678C11.2345 46.8784 11.8168 46.2451 12.6665 45.8339C11.8168 45.4227 11.2302 44.7936 10.8333 44C10.4322 44.7895 9.84986 45.4227 9.00011 45.8339Z" fill="#AF8E2F"/>
<path d="M96.7029 17.066C97.5526 17.4772 98.1349 18.1063 98.5361 18.8999C98.9373 18.1104 99.5196 17.4772 100.369 17.066C99.5196 16.6548 98.9329 16.0257 98.5361 15.2321C98.1349 16.0215 97.5526 16.6548 96.7029 17.066Z" fill="#AF8E2F"/>
<path d="M90.3945 69.1531L103.914 85.0179L96.9379 88.3411L89.9615 91.6646L90.3945 69.1531Z" fill="#C4A116"/>
<path d="M92.838 67.6258C93.5068 69.0296 92.9115 70.7078 91.5077 71.3766C90.4887 71.862 89.3217 71.6815 88.5067 71.0063C88.1999 70.7543 87.9403 70.4311 87.7569 70.0463C87.0882 68.6425 87.6834 66.9642 89.0872 66.2955C89.5955 66.0533 90.14 65.9772 90.6581 66.044C91.5742 66.1637 92.4114 66.7302 92.838 67.6258Z" fill="#C4A116"/>
<path d="M91.4092 67.0071C92.078 68.4109 91.4828 70.0891 90.079 70.7579C89.5707 71 89.0262 71.0762 88.5067 71.0065C88.2 70.7545 87.9403 70.4313 87.757 70.0465C87.0882 68.6427 87.6834 66.9645 89.0873 66.2957C89.5955 66.0536 90.14 65.9774 90.6581 66.0442C90.966 66.2986 91.2259 66.6223 91.4092 67.0071Z" fill="#CCA91E"/>
<path d="M70.6896 78.5411L74.491 99.0354L81.4669 95.7122L88.4429 92.389L70.6896 78.5411Z" fill="#C4A116"/>
<path d="M72.9497 77.1011C73.6184 78.5049 73.0232 80.1832 71.6194 80.8519C70.6004 81.3373 69.4333 81.1569 68.6184 80.4816C68.3116 80.2296 68.0519 79.9064 67.8686 79.5216C67.1998 78.1178 67.795 76.4396 69.1989 75.7708C69.7072 75.5287 70.2516 75.4525 70.7697 75.5193C71.6863 75.6388 72.5231 76.2056 72.9497 77.1011Z" fill="#C4A116"/>
<path d="M71.5209 76.4822C72.1896 77.886 71.5944 79.5642 70.1906 80.233C69.6823 80.4751 69.1378 80.5513 68.6184 80.4816C68.3116 80.2296 68.0519 79.9064 67.8686 79.5216C67.1998 78.1178 67.795 76.4396 69.1989 75.7708C69.7072 75.5287 70.2516 75.4525 70.7697 75.5193C71.0776 75.7737 71.3375 76.0974 71.5209 76.4822Z" fill="#CCA91E"/>
<path d="M100.114 57.1755L98.7032 84.1673L76.3075 94.8362L54.4583 78.925L65.5226 99.9738L65.513 99.9784L74.3296 118.486L118.314 97.5327L109.497 79.0253L109.488 79.0296L100.114 57.1755Z" fill="#CCA91E"/>
<path d="M103.297 57.7079C103.966 59.1117 103.371 60.79 101.967 61.4587C100.948 61.9441 99.7811 61.7637 98.9661 61.0884C98.6593 60.8364 98.3997 60.5132 98.2163 60.1284C97.5476 58.7246 98.1428 57.0464 99.5466 56.3776C100.055 56.1355 100.599 56.0593 101.117 56.1261C102.034 56.2458 102.871 56.8119 103.297 57.7079Z" fill="#CCA91E"/>
<path d="M101.869 57.089C102.537 58.4928 101.942 60.171 100.538 60.8398C100.03 61.0819 99.4855 61.1581 98.9661 61.0884C98.6593 60.8364 98.3997 60.5132 98.2163 60.1284C97.5476 58.7246 98.1428 57.0464 99.5466 56.3776C100.055 56.1355 100.599 56.0593 101.117 56.1261C101.425 56.3805 101.685 56.7042 101.869 57.089Z" fill="#F0C61C"/>
<path d="M58.7533 78.9278C59.422 80.3316 58.8268 82.0098 57.423 82.6786C56.404 83.164 55.237 82.9835 54.422 82.3083C54.1152 82.0563 53.8555 81.7331 53.6722 81.3483C53.0035 79.9445 53.5987 78.2662 55.0025 77.5975C55.5108 77.3553 56.0553 77.2792 56.5733 77.346C57.4895 77.4656 58.3265 78.0318 58.7533 78.9278Z" fill="#CCA91E"/>
<path d="M57.3245 78.3091C57.9932 79.7129 57.398 81.3911 55.9942 82.0599C55.4859 82.302 54.9414 82.3782 54.422 82.3085C54.1152 82.0565 53.8556 81.7333 53.6722 81.3485C53.0035 79.9447 53.5987 78.2665 55.0025 77.5977C55.5108 77.3556 56.0553 77.2794 56.5734 77.3462C56.8813 77.6006 57.1412 77.9243 57.3245 78.3091Z" fill="#F0C61C"/>
<path d="M86.8131 78.0278L80.0087 70.4441L78.1055 66.449L82.2379 65.1299L80.8885 62.2974L77.2605 64.6752L76.2287 61.1459L73.3962 62.4953L75.4867 65.5202L71.3548 66.8391L72.7042 69.6716L76.3317 67.294L78.2349 71.2891L79.8371 81.351L81.9852 94.8443L95.9371 88.1979L86.8131 78.0278Z" fill="#CCA91E"/>
<path d="M115.502 90.4604L119.254 98.3362L75.1597 119.342L71.3953 111.44C70.5018 107.82 78.868 100.626 90.6234 95.0262C102.411 89.4111 113.294 87.4474 115.502 90.4604Z" fill="#AF8E2F"/>
<path d="M90.6967 98.785C90.4269 98.2188 90.6675 97.5416 91.2333 97.2721C91.799 97.0026 92.4766 97.2429 92.7461 97.8087C93.0159 98.3749 92.7753 99.0521 92.2096 99.3216C91.6438 99.5911 90.9664 99.3512 90.6967 98.785Z" fill="#FFD325"/>
<path d="M82.6377 102.848C82.368 102.282 82.6085 101.605 83.1743 101.335C83.7405 101.065 84.4177 101.306 84.6872 101.872C84.9569 102.438 84.7163 103.115 84.1506 103.385C83.5851 103.655 82.9074 103.414 82.6377 102.848Z" fill="#FFD325"/>
<path d="M75.24 108.302C74.9702 107.736 75.2108 107.058 75.7765 106.789C76.3428 106.519 77.0199 106.76 77.2894 107.325C77.5589 107.891 77.3186 108.569 76.7529 108.838C76.1867 109.108 75.5097 108.868 75.24 108.302Z" fill="#FFD325"/>
<path d="M100.982 94.1088C100.712 93.5426 100.035 93.3028 99.4693 93.5723C98.9031 93.842 98.6632 94.5194 98.9327 95.0852C99.2025 95.6514 99.8799 95.8912 100.446 95.6217C101.012 95.3527 101.252 94.675 100.982 94.1088Z" fill="#FFD325"/>
<path d="M109.879 91.7996C109.609 91.2334 108.932 90.9935 108.366 91.2631C107.8 91.5328 107.56 92.2102 107.83 92.776C108.099 93.3417 108.777 93.582 109.343 93.3125C109.908 93.043 110.149 92.3658 109.879 91.7996Z" fill="#FFD325"/>
<path d="M98.6176 111.218C111.752 104.961 121.602 100.407 119.821 96.6699C118.64 91.7858 106.958 95.4838 93.8234 101.741C80.6888 107.998 71.069 114.585 72.849 118.322C74.6291 122.059 85.4829 117.475 98.6176 111.218Z" fill="#FFD325"/>
<path d="M98.549 110.723C112.79 104.206 119.866 99.6813 118.968 97.7977C117.841 95.4301 107.12 97.8836 95.0433 103.637C82.9665 109.39 73.9328 116.164 74.8302 118.047C75.958 120.415 85.3679 117.597 98.549 110.723Z" fill="black" fill-opacity="0.7"/>
<path d="M130 46.83C130.847 47.2399 131.43 47.869 131.827 48.6577C132.224 47.869 132.809 47.2375 133.656 46.8277C132.809 46.4178 132.224 45.7887 131.827 45C131.43 45.7887 130.847 46.4202 130 46.83Z" fill="#FFD325"/>
<path d="M55.0001 55.0007C55.4635 55.2248 55.7821 55.5687 55.9994 56C56.2168 55.5687 56.5367 55.2235 57.0001 54.9993C56.5367 54.7752 56.2168 54.4313 55.9994 54C55.7821 54.4313 55.4635 54.7765 55.0001 55.0007Z" fill="#FFD325"/>
<path d="M60.0001 92.5293C60.7081 92.8718 61.1947 93.3974 61.5267 94.0565C61.8588 93.3974 62.3475 92.8698 63.0555 92.5273C62.3475 92.1848 61.8588 91.6591 61.5267 91C61.1947 91.6591 60.7081 92.1868 60.0001 92.5293Z" fill="#FFD325"/>
<defs>
<linearGradient id="paint0_linear_55_636" x1="61.5146" y1="140.918" x2="-16.3352" y2="28.7218" gradientUnits="userSpaceOnUse">
<stop offset="0.341346" stop-color="#5BC4F0"/>
<stop offset="1" stop-color="white"/>
</linearGradient>
<linearGradient id="paint1_linear_55_636" x1="125.053" y1="141.851" x2="203.118" y2="29.3461" gradientUnits="userSpaceOnUse">
<stop offset="0.341346" stop-color="#5BC4F0"/>
<stop offset="1" stop-color="white"/>
</linearGradient>
<linearGradient id="paint2_linear_55_636" x1="93.4977" y1="131" x2="93.4977" y2="-9" gradientUnits="userSpaceOnUse">
<stop offset="0.341346" stop-color="#5BC4F0"/>
<stop offset="1" stop-color="white"/>
</linearGradient>
</defs>
</svg>
