<svg width="24" height="24" viewBox="0 0 24 24" fill="none" xmlns="http://www.w3.org/2000/svg">
<circle cx="12" cy="12" r="12" fill="#E8F6FD"/>
<mask id="mask0_268_4257" style="mask-type:alpha" maskUnits="userSpaceOnUse" x="4" y="3" width="16" height="17">
<rect x="4" y="3.5" width="16" height="16" fill="#D9D9D9"/>
</mask>
<g mask="url(#mask0_268_4257)">
<path d="M15.8134 11.1795C15.3854 10.5111 14.8934 9.99712 14.3784 9.66559C14.5913 9.49907 14.7285 9.24019 14.7285 8.94973C14.7285 8.61236 14.5435 8.31756 14.2696 8.16074L15.0473 6.31332C15.0954 6.19902 15.0776 6.0676 15.0008 5.9702C14.0808 4.80267 13.6034 5.1192 12.9468 5.37358C12.6416 5.49178 12.3534 5.60345 12.062 5.57842L12.0352 5.57613L12.0085 5.57842C11.7162 5.60353 11.4399 5.491 11.1474 5.37188C10.5261 5.11899 9.92867 4.80423 9.00984 5.97022C8.93597 6.06396 8.91878 6.19041 8.96497 6.30046L9.74286 8.15426C9.46279 8.30939 9.27268 8.60775 9.27268 8.94973C9.27268 9.24019 9.40992 9.49907 9.62281 9.66559C9.10792 9.9971 8.61596 10.511 8.18805 11.1794C7.46492 12.3087 7.0332 13.6965 7.0332 14.8916C7.0332 15.7322 7.25052 16.4425 7.66164 16.9458C8.14102 17.5327 8.85159 17.8302 9.77365 17.8302H14.2283C15.1502 17.8302 15.8608 17.5327 16.3401 16.946C16.7512 16.4428 16.9685 15.7325 16.9685 14.892C16.9685 13.6969 16.5367 12.309 15.8134 11.1795ZM10.9117 5.95074C11.237 6.08313 11.6047 6.2329 12.0353 6.20316C12.4602 6.23238 12.8382 6.08589 13.1726 5.95634C13.6921 5.75508 13.7978 5.61036 14.2104 6.02171C14.319 6.13004 14.3455 6.29507 14.2872 6.43698L13.6283 8.04079H10.3804L9.71814 6.44046C9.65979 6.29947 9.6848 6.13483 9.79419 6.02845C10.2213 5.61317 10.4154 5.74868 10.9117 5.95074ZM10.1824 9.23368C10.0254 9.23368 9.89763 9.10631 9.89763 8.94973C9.89763 8.79582 10.028 8.66577 10.1824 8.66577H13.8188C13.9731 8.66577 14.1035 8.79582 14.1035 8.94973C14.1035 9.10631 13.9758 9.23368 13.8188 9.23368H13.0405H10.9607H10.1824ZM15.8561 16.5506C15.5012 16.985 14.9535 17.2052 14.2283 17.2052H9.77365C8.02521 17.2052 7.6582 15.947 7.6582 14.8916C7.6582 13.8271 8.06292 12.5338 8.71438 11.5163C9.38893 10.4629 10.2077 9.85866 10.9607 9.85866H13.0405C14.7105 9.85866 16.3435 12.7408 16.3435 14.892C16.3435 15.5868 16.1749 16.1603 15.8561 16.5506Z" fill="#1D478E"/>
<path d="M12.6973 11.9888C12.8267 11.989 12.9195 12.114 12.8818 12.2378C12.8569 12.3191 12.7813 12.3748 12.6963 12.3745L12.2734 12.3726C12.3003 12.4061 12.3249 12.4414 12.3467 12.479L12.4053 12.5972C12.4308 12.6588 12.4483 12.7238 12.4609 12.7915H12.6836C12.8138 12.7915 12.9068 12.9172 12.8682 13.0415C12.843 13.1223 12.7682 13.1772 12.6836 13.1772H12.4658C12.4468 13.2934 12.4099 13.4021 12.3516 13.5024C12.2647 13.6524 12.1311 13.7699 11.9541 13.856C11.7766 13.9417 11.5536 13.9829 11.2871 13.9829C11.2831 13.9829 11.2808 13.9876 11.2832 13.9907L12.2705 15.1108C12.3689 15.2224 12.2947 15.3961 12.1475 15.4038L12.1484 15.4048H12.1475C12.146 15.4049 12.1441 15.4057 12.1426 15.4058L12.1416 15.4048C12.0514 15.4149 11.9616 15.3813 11.9014 15.313L10.6943 13.9448C10.6627 13.909 10.6454 13.8627 10.6445 13.8149C10.6426 13.7024 10.7331 13.6099 10.8457 13.6099H11.2715C11.4421 13.6099 11.5849 13.5854 11.7012 13.5396C11.8168 13.493 11.9031 13.4257 11.9619 13.3374L12.001 13.2671C12.0138 13.2391 12.0241 13.2091 12.0322 13.1772H10.8613C10.7316 13.1771 10.6388 13.0514 10.6768 12.9272C10.7017 12.8463 10.7767 12.7916 10.8613 12.7915H12.0205C12.0025 12.7319 11.9798 12.6773 11.9453 12.6294L11.8623 12.5386C11.7413 12.4303 11.5653 12.3712 11.3281 12.3677H11.2002C11.1976 12.3677 11.195 12.3668 11.1924 12.3667H10.8574C10.7298 12.3665 10.6394 12.2424 10.6777 12.1206C10.7026 12.0422 10.7751 11.9889 10.8574 11.9888H12.6973Z" fill="#1D478E" stroke="#1D478E" stroke-width="0.1"/>
</g>
</svg>
