<svg width="80" height="80" viewBox="0 0 80 80" fill="none" xmlns="http://www.w3.org/2000/svg">
<circle cx="40" cy="40" r="40" fill="#161742"/>
<mask id="mask0_298_2452" style="mask-type:alpha" maskUnits="userSpaceOnUse" x="15" y="15" width="50" height="50">
<rect x="15" y="15" width="50" height="50" fill="#D9D9D9"/>
</mask>
<g mask="url(#mask0_298_2452)">
<path d="M37.412 46.6504C38.0582 47.2969 38.8875 47.5913 39.9 47.5337C40.9122 47.4764 41.6507 47.1125 42.1156 46.442L50.1188 35.2769C50.4028 34.8651 50.3785 34.4929 50.0458 34.1603C49.7135 33.828 49.3408 33.8031 48.9276 34.0858L37.7245 42.0509C37.0273 42.5158 36.6392 43.237 36.5604 44.2144C36.4816 45.1922 36.7655 46.0042 37.412 46.6504ZM40 25.4165C41.4903 25.4165 42.8766 25.5608 44.1589 25.8493C45.4408 26.1379 46.6948 26.5745 47.9208 27.1592C48.209 27.2873 48.4587 27.4978 48.6698 27.7905C48.8809 28.0828 48.921 28.3559 48.7901 28.6097C48.6592 28.8636 48.4014 29.0304 48.0167 29.1103C47.6323 29.1905 47.2918 29.1665 46.9953 29.0384C45.9134 28.512 44.803 28.124 43.6641 27.8743C42.5248 27.6247 41.3035 27.4998 40 27.4998C35.3819 27.4998 31.4497 29.1231 28.2031 32.3696C24.9566 35.6162 23.3333 39.5484 23.3333 44.1665C23.3333 45.6248 23.533 47.0658 23.9323 48.4894C24.3316 49.913 24.8958 51.2498 25.625 52.4998H54.375C55.1736 51.1804 55.7552 49.8089 56.1198 48.3853C56.4844 46.9616 56.6667 45.4859 56.6667 43.9582C56.6667 42.895 56.5484 41.7625 56.312 40.5608C56.0755 39.3587 55.6943 38.2208 55.1682 37.1472C55.0401 36.8507 55.0054 36.5582 55.0641 36.2696C55.1227 35.9814 55.2774 35.7512 55.5281 35.579C55.7611 35.4228 56.013 35.3873 56.2839 35.4728C56.555 35.5582 56.7547 35.737 56.8828 36.0092C57.5641 37.4116 58.0436 38.7465 58.3214 40.0139C58.5991 41.2813 58.742 42.588 58.75 43.9342C58.758 45.7262 58.559 47.3983 58.1531 48.9504C57.7472 50.5021 57.1155 52.0672 56.2578 53.6457C56.0898 53.9234 55.8361 54.1491 55.4969 54.3228C55.1576 54.4964 54.7837 54.5832 54.375 54.5832H25.625C25.2431 54.5832 24.8892 54.4898 24.5635 54.303C24.2375 54.1158 23.9637 53.8432 23.7422 53.4853C23.053 52.27 22.4653 50.8991 21.9792 49.3728C21.4931 47.8464 21.25 46.1109 21.25 44.1665C21.25 41.605 21.7358 39.1877 22.7073 36.9144C23.6788 34.6408 25.0049 32.6495 26.6854 30.9405C28.3663 29.2318 30.354 27.8839 32.6484 26.8967C34.9425 25.9099 37.3931 25.4165 40 25.4165Z" fill="#AF8E2F"/>
</g>
</svg>
