<svg width="16" height="16" viewBox="0 0 16 16" fill="none" xmlns="http://www.w3.org/2000/svg">
<mask id="mask0_264_15689" style="mask-type:alpha" maskUnits="userSpaceOnUse" x="0" y="0" width="16" height="16">
<rect width="16" height="16" fill="#D9D9D9"/>
</mask>
<g mask="url(#mask0_264_15689)">
<path d="M4.87192 10.4105C4.5757 10.4105 4.32214 10.305 4.11125 10.094C3.90037 9.88308 3.79492 9.62958 3.79492 9.33347V4.5643C3.79492 4.26808 3.90037 4.01453 4.11125 3.80364C4.32214 3.59275 4.5757 3.4873 4.87192 3.4873H13.1283C13.4245 3.4873 13.678 3.59275 13.8889 3.80364C14.0998 4.01453 14.2053 4.26808 14.2053 4.5643V9.33347C14.2053 9.62958 14.0998 9.88308 13.8889 10.094C13.678 10.305 13.4245 10.4105 13.1283 10.4105H4.87192ZM5.53859 9.7438H12.4616C12.4616 9.44547 12.567 9.19136 12.7779 8.98147C12.9888 8.77169 13.2424 8.66681 13.5386 8.66681V5.23097C13.2403 5.23097 12.9862 5.12553 12.7764 4.91464C12.5665 4.70364 12.4616 4.45008 12.4616 4.15397H5.53859C5.53859 4.4523 5.43314 4.70636 5.22225 4.91614C5.01137 5.12603 4.75781 5.23097 4.46159 5.23097V8.66681C4.75992 8.66681 5.01398 8.77225 5.22376 8.98314C5.43364 9.19403 5.53859 9.44758 5.53859 9.7438ZM11.8976 12.4105H2.87192C2.5757 12.4105 2.32214 12.305 2.11126 12.094C1.90037 11.8831 1.79492 11.6296 1.79492 11.3335V5.79497C1.79492 5.70053 1.82692 5.62136 1.89092 5.55747C1.95492 5.49358 2.0342 5.46164 2.12876 5.46164C2.22331 5.46164 2.30242 5.49358 2.36609 5.55747C2.42976 5.62136 2.46159 5.70053 2.46159 5.79497V11.3335C2.46159 11.436 2.50431 11.53 2.58976 11.6155C2.67531 11.701 2.76937 11.7438 2.87192 11.7438H11.8976C11.992 11.7438 12.0712 11.7758 12.1351 11.8396C12.199 11.9036 12.2309 11.9829 12.2309 12.0775C12.2309 12.172 12.199 12.2511 12.1351 12.3148C12.0712 12.3786 11.992 12.4105 11.8976 12.4105ZM4.87192 9.7438H4.46159V4.15397H4.87192C4.76081 4.15397 4.66464 4.19458 4.58342 4.2758C4.5022 4.35703 4.46159 4.45319 4.46159 4.5643V9.33347C4.46159 9.44458 4.5022 9.54075 4.58342 9.62197C4.66464 9.70319 4.76081 9.7438 4.87192 9.7438Z" fill="#AF8E2F"/>
<path d="M10.0157 6.1357C10.1123 6.1357 10.1812 6.22932 10.1525 6.32152C10.1338 6.38138 10.0784 6.42216 10.0157 6.42216H8.19366C8.09737 6.42216 8.02851 6.32906 8.05671 6.23699C8.07514 6.1768 8.13071 6.1357 8.19366 6.1357H10.0157ZM9.47361 8.64998C9.39779 8.66035 9.32181 8.6321 9.27118 8.57471L8.06403 7.20616C8.0402 7.17914 8.02677 7.14452 8.02617 7.1085C8.02475 7.02385 8.09297 6.95447 8.17763 6.95447H8.60372C8.77898 6.95447 8.92846 6.92994 9.05217 6.88106C9.17587 6.83129 9.27027 6.75753 9.33537 6.65977C9.40176 6.5622 9.43496 6.44117 9.43496 6.29686C9.43496 6.08417 9.36579 5.91712 9.22743 5.79554C9.09037 5.6729 8.8936 5.61167 8.63746 5.61167H8.18983C8.09578 5.61167 8.0288 5.52033 8.05706 5.43063C8.07532 5.37268 8.12907 5.33327 8.18983 5.33327H8.63745C8.88467 5.33327 9.09146 5.37444 9.2578 5.45698C9.42527 5.53934 9.5512 5.65339 9.6354 5.79876C9.7209 5.94306 9.76356 6.10903 9.76356 6.29683C9.76356 6.47265 9.72257 6.63092 9.6406 6.77199C9.55955 6.912 9.43417 7.02318 9.26448 7.10571C9.09589 7.18717 8.88076 7.22782 8.61887 7.22782C8.57165 7.22782 8.54652 7.28351 8.57775 7.31892L9.56539 8.4386C9.63674 8.51949 9.58142 8.64689 9.47361 8.64998ZM10.0289 5.33325C10.125 5.33325 10.1938 5.4262 10.1656 5.51811C10.1471 5.57843 10.0913 5.61952 10.0282 5.61923L8.53243 5.61249C8.43968 5.61207 8.37311 5.523 8.39898 5.43393C8.4163 5.37428 8.47095 5.33325 8.53306 5.33325L10.0289 5.33325Z" fill="#AF8E2F"/>
</g>
</svg>
