<svg width="24" height="24" viewBox="0 0 24 24" fill="none" xmlns="http://www.w3.org/2000/svg">
<mask id="mask0_264_18872" style="mask-type:alpha" maskUnits="userSpaceOnUse" x="0" y="0" width="24" height="24">
<rect width="24" height="24" fill="#D9D9D9"/>
</mask>
<g mask="url(#mask0_264_18872)">
<path d="M13.3865 12L10.6463 14.7405C10.5526 14.8308 10.5058 14.9438 10.5058 15.0793C10.5058 15.2149 10.5526 15.3314 10.6463 15.4288C10.7436 15.5391 10.8625 15.591 11.003 15.5845C11.1433 15.5782 11.2622 15.5262 11.3595 15.4288L14.223 12.5655C14.3847 12.4038 14.4655 12.2153 14.4655 12C14.4655 11.7847 14.3847 11.5962 14.223 11.4345L11.3538 8.5655C11.2564 8.468 11.1385 8.417 11 8.4125C10.8615 8.408 10.7436 8.46092 10.6463 8.57125C10.5526 8.66858 10.508 8.7865 10.5125 8.925C10.517 9.0635 10.568 9.18142 10.6655 9.27875L13.3865 12ZM12.0033 21C10.7587 21 9.58867 20.7638 8.493 20.2915C7.3975 19.8192 6.4445 19.1782 5.634 18.3685C4.8235 17.5588 4.18192 16.6067 3.70925 15.512C3.23642 14.4175 3 13.2479 3 12.0033C3 10.7587 3.23617 9.58867 3.7085 8.493C4.18083 7.3975 4.82183 6.4445 5.6315 5.634C6.44117 4.8235 7.39333 4.18192 8.488 3.70925C9.5825 3.23642 10.7521 3 11.9967 3C13.2413 3 14.4113 3.23617 15.507 3.7085C16.6025 4.18083 17.5555 4.82183 18.366 5.6315C19.1765 6.44117 19.8181 7.39333 20.2908 8.488C20.7636 9.5825 21 10.7521 21 11.9967C21 13.2413 20.7638 14.4113 20.2915 15.507C19.8192 16.6025 19.1782 17.5555 18.3685 18.366C17.5588 19.1765 16.6067 19.8181 15.512 20.2908C14.4175 20.7636 13.2479 21 12.0033 21ZM12 20C14.2333 20 16.125 19.225 17.675 17.675C19.225 16.125 20 14.2333 20 12C20 9.76667 19.225 7.875 17.675 6.325C16.125 4.775 14.2333 4 12 4C9.76667 4 7.875 4.775 6.325 6.325C4.775 7.875 4 9.76667 4 12C4 14.2333 4.775 16.125 6.325 17.675C7.875 19.225 9.76667 20 12 20Z" fill="#161742"/>
</g>
</svg>
