<svg width="16" height="16" viewBox="0 0 16 16" fill="none" xmlns="http://www.w3.org/2000/svg">
<mask id="mask0_264_15673" style="mask-type:alpha" maskUnits="userSpaceOnUse" x="0" y="0" width="16" height="16">
<rect width="16" height="16" fill="#D9D9D9"/>
</mask>
<g mask="url(#mask0_264_15673)">
<path d="M7.17183 10.1281C7.37861 10.335 7.644 10.4292 7.968 10.4108C8.29189 10.3924 8.52822 10.276 8.677 10.0614L11.238 6.48859C11.3289 6.35681 11.3211 6.2377 11.2147 6.13125C11.1083 6.02492 10.9891 6.01697 10.8568 6.10742L7.27183 8.65625C7.04872 8.80503 6.92456 9.03581 6.89933 9.34859C6.87411 9.66147 6.96494 9.92131 7.17183 10.1281ZM8 3.33325C8.47689 3.33325 8.9205 3.37942 9.33083 3.47175C9.74106 3.56409 10.1423 3.70381 10.5347 3.89092C10.6269 3.93192 10.7068 3.99925 10.7743 4.09292C10.8419 4.18647 10.8547 4.27386 10.8128 4.35509C10.7709 4.43631 10.6884 4.4897 10.5653 4.51525C10.4423 4.54092 10.3334 4.53325 10.2385 4.49225C9.89228 4.32381 9.53694 4.19964 9.1725 4.11975C8.80794 4.03986 8.41711 3.99992 8 3.99992C6.52222 3.99992 5.26389 4.51936 4.225 5.55825C3.18611 6.59714 2.66667 7.85547 2.66667 9.33325C2.66667 9.79992 2.73056 10.261 2.85833 10.7166C2.98611 11.1721 3.16667 11.5999 3.4 11.9999H12.6C12.8556 11.5777 13.0417 11.1388 13.1583 10.6833C13.275 10.2277 13.3333 9.75547 13.3333 9.26659C13.3333 8.92636 13.2955 8.56397 13.2198 8.17942C13.1442 7.79475 13.0222 7.43064 12.8538 7.08708C12.8128 6.9922 12.8017 6.89859 12.8205 6.80625C12.8393 6.71403 12.8888 6.64036 12.969 6.58525C13.0436 6.53525 13.1242 6.52392 13.2108 6.55125C13.2976 6.57859 13.3615 6.63581 13.4025 6.72292C13.6205 7.1717 13.7739 7.59886 13.8628 8.00442C13.9517 8.40997 13.9974 8.82814 14 9.25892C14.0026 9.83236 13.9389 10.3674 13.809 10.8641C13.6791 11.3606 13.4769 11.8615 13.2025 12.3666C13.1487 12.4555 13.0676 12.5277 12.959 12.5833C12.8504 12.6388 12.7308 12.6666 12.6 12.6666H3.4C3.27778 12.6666 3.16456 12.6367 3.06033 12.5769C2.956 12.517 2.86839 12.4298 2.7975 12.3153C2.57694 11.9264 2.38889 11.4877 2.23333 10.9993C2.07778 10.5108 2 9.95547 2 9.33325C2 8.51359 2.15544 7.74003 2.46633 7.01259C2.77722 6.28503 3.20156 5.64781 3.73933 5.10092C4.27722 4.55414 4.91328 4.12281 5.6475 3.80692C6.38161 3.49114 7.16578 3.33325 8 3.33325Z" fill="#AF8E2F"/>
</g>
</svg>
