<svg width="16" height="16" viewBox="0 0 16 16" fill="none" xmlns="http://www.w3.org/2000/svg">
<mask id="mask0_264_15640" style="mask-type:alpha" maskUnits="userSpaceOnUse" x="0" y="0" width="16" height="16">
<rect width="16" height="16" fill="#D9D9D9"/>
</mask>
<g mask="url(#mask0_264_15640)">
<path d="M3.7435 14C3.43661 14 3.18039 13.8972 2.97484 13.6917C2.76928 13.4861 2.6665 13.2299 2.6665 12.923V4.41036C2.6665 4.10347 2.76928 3.84725 2.97484 3.64169C3.18039 3.43614 3.43661 3.33336 3.7435 3.33336H4.92284V2.20519C4.92284 2.10175 4.95684 2.01602 5.02484 1.94802C5.09284 1.88014 5.1785 1.84619 5.28184 1.84619C5.38528 1.84619 5.471 1.88014 5.539 1.94802C5.60689 2.01602 5.64084 2.10175 5.64084 2.20519V3.33336H10.4102V2.17952C10.4102 2.08464 10.442 2.00536 10.5057 1.94169C10.5693 1.87802 10.6486 1.84619 10.7435 1.84619C10.8383 1.84619 10.9175 1.87802 10.9812 1.94169C11.0449 2.00536 11.0768 2.08464 11.0768 2.17952V3.33336H12.2562C12.5631 3.33336 12.8193 3.43614 13.0248 3.64169C13.2304 3.84725 13.3332 4.10347 13.3332 4.41036V12.923C13.3332 13.2299 13.2304 13.4861 13.0248 13.6917C12.8193 13.8972 12.5631 14 12.2562 14H3.7435ZM3.7435 13.3334H12.2562C12.3588 13.3334 12.4529 13.2906 12.5383 13.2052C12.6238 13.1197 12.6665 13.0257 12.6665 12.923V7.07702H3.33317V12.923C3.33317 13.0257 3.37589 13.1197 3.46134 13.2052C3.54678 13.2906 3.64084 13.3334 3.7435 13.3334ZM3.33317 6.41019H12.6665V4.41036C12.6665 4.30769 12.6238 4.21364 12.5383 4.12819C12.4529 4.04275 12.3588 4.00002 12.2562 4.00002H3.7435C3.64084 4.00002 3.54678 4.04275 3.46134 4.12819C3.37589 4.21364 3.33317 4.30769 3.33317 4.41036V6.41019Z" fill="#AF8E2F"/>
</g>
</svg>
