<svg width="52" height="16" viewBox="0 0 52 16" fill="none" xmlns="http://www.w3.org/2000/svg">
<path d="M7.5869 3.65638H5.8312C5.29966 3.65638 4.88086 3.23759 4.88086 2.70604V0.950341C4.88086 0.434903 5.29966 0 5.8312 0H7.5869C8.10234 0 8.53724 0.418794 8.53724 0.950341V2.70604C8.53724 3.23759 8.11844 3.65638 7.5869 3.65638Z" fill="#406EB3"/>
<path d="M3.02819 7.60251H1.06308C0.467117 7.60251 0 7.11928 0 6.53941V4.5582C0 3.97834 0.483219 3.49512 1.06308 3.49512H3.0443C3.64027 3.49512 4.10738 3.97834 4.10738 4.5582V6.53941C4.10738 7.13539 3.62416 7.60251 3.02819 7.60251Z" fill="#632678"/>
<path d="M2.85137 11.7095H1.64331C1.28895 11.7095 0.999023 11.4196 0.999023 11.0652V9.85719C0.999023 9.50282 1.28895 9.21289 1.64331 9.21289H2.85137C3.20573 9.21289 3.49566 9.50282 3.49566 9.85719V11.0652C3.49566 11.4196 3.20573 11.7095 2.85137 11.7095Z" fill="#982881"/>
<path d="M6.08855 15.5277H4.65499C4.2362 15.5277 3.88184 15.1895 3.88184 14.7546V13.321C3.88184 12.9022 4.2201 12.5479 4.65499 12.5479H6.08855C6.50734 12.5479 6.8617 12.8861 6.8617 13.321V14.7546C6.8617 15.1895 6.52345 15.5277 6.08855 15.5277Z" fill="#BA2F7D"/>
<path d="M11.3237 4.38158H10.3411C10.0512 4.38158 9.80957 4.13997 9.80957 3.85004V2.86748C9.80957 2.57755 10.0512 2.33594 10.3411 2.33594H11.3237C11.6136 2.33594 11.8552 2.57755 11.8552 2.86748V3.85004C11.8713 4.13997 11.6297 4.38158 11.3237 4.38158Z" fill="#BA2F7D"/>
<path d="M33.0037 5.04158C33.3258 5.04158 33.5675 4.78386 33.5675 4.47782C33.5675 4.15568 33.3097 3.91406 33.0037 3.91406C32.6815 3.91406 32.4238 4.17178 32.4238 4.47782C32.4238 4.78386 32.6815 5.04158 33.0037 5.04158Z" fill="#26478D"/>
<path d="M12.1769 11.1299C12.0964 11.2587 11.9514 11.3232 11.7904 11.3232C11.7098 11.3232 11.5971 11.307 11.5326 11.2587C11.4038 11.1782 11.3232 11.0171 11.3232 10.856C11.3232 10.7755 11.3394 10.695 11.3877 10.6305L12.7085 8.55269L11.3877 6.47485C11.3393 6.41041 11.3232 6.31377 11.3232 6.24934C11.3232 6.08827 11.4038 5.92718 11.5487 5.84665C11.6293 5.79831 11.7098 5.78223 11.7904 5.78223C11.9514 5.78223 12.0964 5.84665 12.193 5.97551L13.2722 7.68289L14.3675 5.97551C14.4481 5.84665 14.6092 5.78223 14.7702 5.78223C14.8508 5.78223 14.9313 5.79835 15.0118 5.84665C15.1568 5.92718 15.2373 6.08827 15.2373 6.24934C15.2373 6.32987 15.2212 6.41041 15.1729 6.47485L13.8521 8.55269L15.1729 10.6305C15.2212 10.695 15.2373 10.7755 15.2373 10.856C15.2373 11.0171 15.1568 11.1943 15.0279 11.2587C14.9474 11.3071 14.8508 11.3232 14.7702 11.3232C14.6092 11.3232 14.4803 11.2587 14.3837 11.1299L13.2883 9.4386L12.1769 11.1299Z" fill="#26478D"/>
<path d="M16.8971 6.41037C17.3964 5.95937 18.073 5.68555 18.7978 5.68555C20.3924 5.68555 21.6488 6.95803 21.6488 8.53655C21.6488 10.099 20.3763 11.3714 18.7978 11.3714C18.073 11.3714 17.3964 11.0976 16.8971 10.6466V13.0788C16.8971 13.3204 16.6716 13.5298 16.43 13.5298C16.2045 13.5298 15.9629 13.3204 15.9629 13.0788V6.18487C15.9629 5.94326 16.1884 5.73386 16.43 5.73386C16.6877 5.73386 16.8971 5.94326 16.8971 6.18487V6.41037ZM18.7817 6.63588C17.7186 6.63588 16.881 7.47346 16.881 8.53655C16.881 9.59964 17.7186 10.4372 18.7817 10.4372C19.8448 10.4372 20.6824 9.59964 20.6824 8.53655C20.6985 7.47346 19.8609 6.63588 18.7817 6.63588Z" fill="#26478D"/>
<path d="M29.7184 8.02161V10.8726C29.7184 11.1142 29.4929 11.3236 29.2513 11.3236C28.9936 11.3236 28.7842 11.1142 28.7842 10.8726V6.18537C28.7842 5.94375 29.0097 5.73435 29.2513 5.73435C29.4768 5.73435 29.7023 5.92765 29.7184 6.16926C30.105 5.87933 30.6043 5.70215 31.1359 5.70215C31.4258 5.70215 31.6513 5.92765 31.6513 6.16926C31.6513 6.42698 31.4258 6.65248 31.1359 6.65248C30.411 6.66861 29.7184 6.92631 29.7184 8.02161Z" fill="#26478D"/>
<path d="M33.0042 5.73438C32.7465 5.73438 32.5371 5.94377 32.5371 6.18539V10.8887C32.5371 11.1304 32.7626 11.3397 33.0042 11.3397C33.2297 11.3397 33.4713 11.1304 33.4713 10.8887V6.18539C33.4713 5.94377 33.2458 5.73438 33.0042 5.73438Z" fill="#26478D"/>
<path d="M38.9958 6.18537C38.9958 5.94375 39.2213 5.73435 39.4629 5.73435C39.6884 5.73435 39.93 5.94375 39.93 6.18537V10.8887C39.93 11.1303 39.7045 11.3397 39.4629 11.3397C39.2052 11.3397 38.9958 11.1303 38.9958 10.8887V10.6632C38.4804 11.1142 37.82 11.388 37.0951 11.388C35.5005 11.388 34.2441 10.1156 34.2441 8.53704C34.2441 6.97463 35.5166 5.70215 37.0951 5.70215C37.82 5.70215 38.4804 5.97597 38.9958 6.42697V6.18537ZM37.0951 10.4377C38.1582 10.4377 38.9958 9.60013 38.9958 8.53704C38.9958 7.47396 38.1582 6.63637 37.0951 6.63637C36.0321 6.63637 35.1945 7.47396 35.1945 8.53704C35.1945 9.60013 36.0321 10.4377 37.0951 10.4377Z" fill="#26478D"/>
<path d="M44.7144 8.08604C44.7144 7.29678 44.0379 6.62026 43.2486 6.62026C42.4916 6.62026 41.7829 6.92631 41.7829 8.03772V10.8887C41.7829 11.1303 41.5574 11.3397 41.3157 11.3397C41.058 11.3397 40.8486 11.1303 40.8486 10.8887V6.18537C40.8486 5.94375 41.0741 5.73435 41.3157 5.73435C41.5413 5.73435 41.7668 5.92765 41.7829 6.16926C42.1855 5.86322 42.6849 5.70215 43.2325 5.70215C44.505 5.70215 45.6486 6.7008 45.6486 7.95718V10.8887C45.6486 11.1303 45.4231 11.3397 45.1815 11.3397C44.9238 11.3397 44.7144 11.1303 44.7144 10.8887V8.08604Z" fill="#26478D"/>
<path d="M11.0492 8.37597C11.0331 6.9263 9.74449 5.70215 8.21429 5.70215C6.61966 5.70215 5.36328 6.97463 5.36328 8.53704C5.36328 10.1317 6.63577 11.388 8.21429 11.388C8.97134 11.388 9.68006 11.0981 10.1955 10.5827C10.2921 10.5022 10.3566 10.3572 10.3566 10.2283C10.3566 9.9706 10.1311 9.76121 9.88945 9.76121C9.74449 9.76121 9.61563 9.84174 9.51899 9.9545C9.19684 10.2927 8.72972 10.4538 8.23039 10.4538C7.28006 10.4538 6.5069 9.80953 6.34583 8.90751H10.5982C10.5982 8.90751 10.5982 8.90751 10.6143 8.90751H10.6304H10.6465C10.6627 8.90751 10.6787 8.90751 10.6949 8.89138C10.8881 8.81083 11.0492 8.61758 11.0492 8.37597ZM8.21429 6.63637C9.06798 6.63637 9.7767 7.18403 10.0183 7.95718H6.39415C6.63576 7.18403 7.34449 6.63637 8.21429 6.63637Z" fill="#26478D"/>
<path d="M27.9945 8.37597C27.9784 6.9263 26.6737 5.70215 25.1596 5.70215C23.565 5.70215 22.3086 6.97463 22.3086 8.53704C22.3086 10.1317 23.5811 11.388 25.1596 11.388C25.9166 11.388 26.6254 11.0981 27.1408 10.5827C27.2375 10.5022 27.3019 10.3572 27.3019 10.2283C27.3019 9.9706 27.0764 9.76121 26.8348 9.76121C26.6898 9.76121 26.5609 9.84174 26.4643 9.9545C26.1422 10.2927 25.675 10.4538 25.1757 10.4538C24.2254 10.4538 23.4522 9.80953 23.2911 8.90751H27.5435C27.5435 8.90751 27.5435 8.90751 27.5596 8.90751H27.5757C27.5918 8.90751 27.6079 8.90751 27.6079 8.90751H27.624C27.8173 8.82698 27.9945 8.61758 27.9945 8.37597ZM25.1596 6.63637C26.0133 6.63637 26.722 7.18403 26.9636 7.95718H23.3395C23.5811 7.18403 24.2898 6.63637 25.1596 6.63637Z" fill="#26478D"/>
<path d="M46.6468 11.3395C46.5985 11.3395 46.5663 11.3073 46.5663 11.2589V10.4697H46.3891C46.3408 10.4697 46.3086 10.4375 46.3086 10.3891C46.3086 10.3408 46.3408 10.3086 46.3891 10.3086H46.9046C46.9529 10.3086 46.9851 10.3408 46.9851 10.3891C46.9851 10.4375 46.9529 10.4697 46.9046 10.4697H46.7274V11.2589C46.7274 11.3073 46.6952 11.3395 46.6468 11.3395Z" fill="#26478D"/>
<path d="M47.5648 11.3395C47.5164 11.3395 47.5003 11.3073 47.4842 11.275L47.2587 10.6307V11.2589C47.2587 11.3073 47.2265 11.3395 47.1782 11.3395C47.1299 11.3395 47.0977 11.3073 47.0977 11.2589V10.4213C47.0977 10.3569 47.146 10.3086 47.2104 10.3086C47.2587 10.3086 47.3071 10.3408 47.3232 10.3891L47.5487 11.0495L47.7742 10.3891C47.7903 10.3408 47.8386 10.3086 47.8869 10.3086C47.9513 10.3086 47.9997 10.3569 47.9997 10.4213V11.2589C47.9997 11.3073 47.9675 11.3395 47.9191 11.3395C47.8708 11.3395 47.8386 11.3073 47.8386 11.2589V10.6307C47.8064 10.7274 47.7581 10.8885 47.7097 11.0173C47.6292 11.275 47.6131 11.275 47.6131 11.275C47.6292 11.3234 47.597 11.3395 47.5648 11.3395Z" fill="#26478D"/>
</svg>
