<svg width="144" height="66" viewBox="0 0 144 66" fill="none" xmlns="http://www.w3.org/2000/svg">
<g clip-path="url(#clip0_791_322)">
<path d="M2.98219 52.704L31.4564 52.704C32.8468 52.704 33.9739 51.5805 33.9739 50.1946L33.9739 20.8789C33.9739 19.4929 32.8468 18.3694 31.4564 18.3694L2.98219 18.3694C1.5918 18.3694 0.464657 19.4929 0.464657 20.8789L0.464657 50.1946C0.464657 51.5805 1.5918 52.704 2.98219 52.704Z" fill="#E8F6FD"/>
<path d="M33.9739 28.252L0.464657 28.252V20.872C0.464657 19.4875 1.59321 18.3626 2.98219 18.3626L31.4564 18.3626C32.8454 18.3626 33.9739 19.4875 33.9739 20.872V28.252Z" fill="#ADE1F7"/>
<path d="M24.756 36.8191H29.2267C29.4973 36.8191 29.7166 36.6005 29.7166 36.3308V31.8744C29.7166 31.6047 29.4973 31.3861 29.2267 31.3861H24.756C24.4854 31.3861 24.2661 31.6047 24.2661 31.8744V36.3308C24.2661 36.6005 24.4854 36.8191 24.756 36.8191Z" fill="#5BC4F0" fill-opacity="0.3"/>
<path d="M18.3679 36.8191H22.8387C23.1092 36.8191 23.3286 36.6005 23.3286 36.3308V31.8744C23.3286 31.6047 23.1092 31.3861 22.8387 31.3861H18.3679C18.0973 31.3861 17.878 31.6047 17.878 31.8744V36.3308C17.878 36.6005 18.0973 36.8191 18.3679 36.8191Z" fill="white"/>
<path d="M9.2564 20.9345C8.64252 20.9345 8.14026 20.4338 8.14026 19.8219V15.8785C8.14026 15.2666 8.64252 14.766 9.2564 14.766C9.87028 14.766 10.3726 15.2666 10.3726 15.8785V19.8219C10.3726 20.4338 9.87028 20.9345 9.2564 20.9345Z" fill="#E2E2E2"/>
<path d="M14.9151 20.9408C14.3012 20.9408 13.799 20.4402 13.799 19.8283V15.8849C13.799 15.273 14.3012 14.7723 14.9151 14.7723C15.529 14.7723 16.0313 15.273 16.0313 15.8849V19.8283C16.0313 20.4402 15.529 20.9408 14.9151 20.9408Z" fill="#E2E2E2"/>
<path d="M20.2994 20.9345C19.6855 20.9345 19.1832 20.4338 19.1832 19.8219V15.8785C19.1832 15.2666 19.6855 14.766 20.2994 14.766C20.9133 14.766 21.4155 15.2666 21.4155 15.8785V19.8219C21.4155 20.4338 20.9133 20.9345 20.2994 20.9345Z" fill="#E2E2E2"/>
<path d="M11.9252 36.8191H16.396C16.6665 36.8191 16.8859 36.6005 16.8859 36.3308V31.8744C16.8859 31.6047 16.6665 31.3861 16.396 31.3861H11.9252C11.6547 31.3861 11.4353 31.6047 11.4353 31.8744V36.3308C11.4353 36.6005 11.6547 36.8191 11.9252 36.8191Z" fill="#5BC4F0" fill-opacity="0.3"/>
<path d="M5.52731 36.8191H9.99811C10.2687 36.8191 10.488 36.6005 10.488 36.3308V31.8744C10.488 31.6047 10.2687 31.3861 9.99811 31.3861H5.52731C5.25677 31.3861 5.03744 31.6047 5.03744 31.8744L5.03744 36.3308C5.03744 36.6005 5.25677 36.8191 5.52731 36.8191Z" fill="#5BC4F0" fill-opacity="0.3"/>
<path d="M24.7126 42.8699H29.1834C29.4539 42.8699 29.6732 42.6513 29.6732 42.3816V37.9252C29.6732 37.6555 29.4539 37.4369 29.1834 37.4369H24.7126C24.442 37.4369 24.2227 37.6555 24.2227 37.9252V42.3816C24.2227 42.6513 24.442 42.8699 24.7126 42.8699Z" fill="#5BC4F0" fill-opacity="0.3"/>
<path d="M18.3231 42.8699H22.7939C23.0644 42.8699 23.2838 42.6513 23.2838 42.3816V37.9252C23.2838 37.6555 23.0644 37.4369 22.7939 37.4369H18.3231C18.0525 37.4369 17.8332 37.6555 17.8332 37.9252V42.3816C17.8332 42.6513 18.0525 42.8699 18.3231 42.8699Z" fill="white"/>
<path d="M11.8818 42.8699H16.3526C16.6231 42.8699 16.8425 42.6513 16.8425 42.3816V37.9252C16.8425 37.6555 16.6231 37.4369 16.3526 37.4369H11.8818C11.6113 37.4369 11.3919 37.6555 11.3919 37.9252V42.3816C11.3919 42.6513 11.6113 42.8699 11.8818 42.8699Z" fill="#5BC4F0" fill-opacity="0.3"/>
<path d="M5.48392 42.8699H9.95471C10.2253 42.8699 10.4446 42.6513 10.4446 42.3816V37.9252C10.4446 37.6555 10.2253 37.4369 9.95471 37.4369H5.48392C5.21337 37.4369 4.99405 37.6555 4.99405 37.9252L4.99405 42.3816C4.99405 42.6513 5.21337 42.8699 5.48392 42.8699Z" fill="#5BC4F0" fill-opacity="0.3"/>
<path d="M24.6692 48.9766H29.14C29.4105 48.9766 29.6298 48.758 29.6298 48.4883V44.0319C29.6298 43.7622 29.4105 43.5436 29.14 43.5436H24.6692C24.3986 43.5436 24.1793 43.7622 24.1793 44.0319V48.4883C24.1793 48.758 24.3986 48.9766 24.6692 48.9766Z" fill="#5BC4F0" fill-opacity="0.3"/>
<path d="M18.2713 48.9766H22.7421C23.0126 48.9766 23.2319 48.758 23.2319 48.4883V44.0319C23.2319 43.7622 23.0126 43.5436 22.7421 43.5436H18.2713C18.0007 43.5436 17.7814 43.7622 17.7814 44.0319V48.4883C17.7814 48.758 18.0007 48.9766 18.2713 48.9766Z" fill="white"/>
<path d="M11.837 48.9766H16.3078C16.5784 48.9766 16.7977 48.758 16.7977 48.4883V44.0319C16.7977 43.7622 16.5784 43.5436 16.3078 43.5436H11.837C11.5665 43.5436 11.3472 43.7622 11.3472 44.0319V48.4883C11.3472 48.758 11.5665 48.9766 11.837 48.9766Z" fill="#5BC4F0" fill-opacity="0.3"/>
<path d="M5.43491 48.9766H9.90572C10.1763 48.9766 10.3956 48.758 10.3956 48.4883V44.0319C10.3956 43.7622 10.1763 43.5436 9.90572 43.5436H5.43491C5.16436 43.5436 4.94505 43.7622 4.94505 44.0319L4.94505 48.4883C4.94505 48.758 5.16436 48.9766 5.43491 48.9766Z" fill="#5BC4F0" fill-opacity="0.3"/>
<path d="M25.7033 20.9345C25.0894 20.9345 24.5872 20.4338 24.5872 19.8219V15.8785C24.5872 15.2666 25.0894 14.766 25.7033 14.766C26.3172 14.766 26.8195 15.2666 26.8195 15.8785V19.8219C26.8195 20.4338 26.3172 20.9345 25.7033 20.9345Z" fill="#E2E2E2"/>
<g clip-path="url(#clip1_791_322)">
<path d="M56.5052 3.99795L56.505 3.998C42.6644 8.83822 30.9485 18.2096 23.1415 30.3349C23.1354 30.3445 23.1288 30.3537 23.1218 30.3625C16.5809 40.5296 12.788 52.631 12.788 65.6198C12.788 67.0441 12.8501 68.4388 12.9704 69.8032C13.0065 70.2126 13.354 70.5281 13.7751 70.5281H50.4368C50.9507 70.5281 51.3556 70.0525 51.2782 69.5178C51.0937 68.2444 50.9989 66.9432 50.9989 65.6198C50.9989 61.1475 52.0854 56.9268 54.0081 53.2092C57.0151 47.3919 62.0676 42.8077 68.2153 40.4058C71.2682 39.2115 74.6158 38.5578 78.0648 38.5578C81.512 38.5578 84.8133 39.2031 87.8452 40.3786C87.85 40.3801 87.8586 40.3827 87.8681 40.386C87.876 40.3888 87.886 40.3925 87.8974 40.3974C94.0234 42.7884 99.0668 47.3435 102.08 53.127C104.029 56.8642 105.131 61.1143 105.131 65.6198C105.131 66.9437 105.036 68.2452 104.852 69.519C104.775 70.0532 105.179 70.5281 105.693 70.5281H142.365C142.788 70.5281 143.136 70.2106 143.171 69.7994C143.285 68.4369 143.343 67.0444 143.343 65.6198C143.343 52.5889 139.525 40.4488 132.943 30.2608L132.942 30.2607C125.124 18.1524 113.406 8.7999 99.563 3.97493L99.679 3.64214L99.563 3.97493C92.833 1.62879 85.6243 0.352799 78.0667 0.352799C70.5092 0.352799 63.2542 1.63459 56.5052 3.99795ZM23.1396 30.3349L23.1385 30.3365L23.1396 30.3349Z" fill="#0E2E6B" stroke="#E8F6FD" stroke-width="0.704866"/>
<path d="M87.7536 40.7241C87.7533 40.7241 87.7532 40.7246 87.7535 40.7247C93.3721 42.9159 98.0689 46.9516 101.093 52.0907C101.459 52.7124 102.283 52.9046 102.864 52.4764L132.342 30.7265C132.841 30.3582 132.968 29.6645 132.623 29.149C124.991 17.7511 113.877 8.8801 100.803 4.05057C100.184 3.82184 99.5037 4.16152 99.3018 4.78992L87.7539 40.7239C87.7539 40.724 87.7538 40.7241 87.7536 40.7241Z" fill="#1058AD" stroke="#E8F6FD" stroke-width="0.939821"/>
<path d="M56.3945 3.66604C56.394 3.66562 56.3933 3.66605 56.3935 3.66662L67.9662 39.5465C68.1741 40.1908 68.8815 40.5242 69.5229 40.3075C72.2051 39.4014 75.08 38.9112 78.0708 38.9112C81.5025 38.9112 84.7332 39.5488 87.7282 40.7099C87.7479 40.7197 87.7727 40.7053 87.7794 40.6844L99.3343 4.73453C99.5294 4.12749 99.205 3.47458 98.5994 3.27531C92.1427 1.15114 85.2437 0.00134277 78.0727 0.00134277C70.4984 0.00134277 63.1811 1.28993 56.3951 3.66618C56.3949 3.66625 56.3946 3.6662 56.3945 3.66604Z" fill="#186BCC" stroke="#E8F6FD" stroke-width="0.939821"/>
<path d="M12.4427 65.6198C12.4427 67.0544 12.5052 68.4595 12.6264 69.8342C12.679 70.4306 13.1835 70.8806 13.7822 70.8806H50.4438C51.1856 70.8806 51.7404 70.2015 51.634 69.4674C51.452 68.2107 51.3584 66.9265 51.3584 65.6198C51.3584 61.5618 52.2646 57.7143 53.8848 54.2696C54.1305 53.7472 53.9865 53.119 53.522 52.7762L23.8571 30.8864C23.3115 30.4837 22.5383 30.6249 22.182 31.202C16.0053 41.207 12.4427 52.9963 12.4427 65.6179V65.6198Z" fill="#37BDF7" stroke="#E8F6FD" stroke-width="0.939821"/>
<path d="M23.4432 29.2226C23.099 29.738 23.2269 30.4308 23.7256 30.7988L53.2083 52.5543C53.7901 52.9835 54.6164 52.7893 54.981 52.165C57.8148 47.3128 62.1361 43.437 67.3181 41.1593C67.8869 40.9093 68.1908 40.2743 68.0001 39.683L56.7522 4.81048C56.5496 4.18231 55.8689 3.84336 55.25 4.07272C42.1774 8.91732 31.0669 17.8072 23.4432 29.2226Z" fill="#2091E3" stroke="#E8F6FD" stroke-width="0.939821"/>
</g>
<path d="M78.0608 53.022C71.1221 53.022 65.4973 58.646 65.4973 65.5837C65.4973 67.477 65.9185 69.2698 66.6682 70.8811H89.4515C90.2012 69.2718 90.6224 67.477 90.6224 65.5837C90.6224 58.646 84.9996 53.022 78.0608 53.022Z" fill="#1D478E"/>
<path d="M78.0534 78.0002C84.9921 78.0002 90.6169 72.3763 90.6169 65.4386C90.6169 63.5452 90.1957 61.7524 89.446 60.1411L66.6627 60.1411C65.913 61.7504 65.4918 63.5452 65.4918 65.4385C65.4918 72.3763 71.1146 78.0002 78.0534 78.0002Z" fill="#1D478E"/>
<path d="M78.7629 65.1742L105.238 32.4506L78.2345 59.6835L78.7629 65.1742Z" fill="#161742"/>
<path d="M78.7066 65.1301L105.182 32.4066L84.1882 64.4995L78.7066 65.1301Z" fill="#161742"/>
<path d="M80.4574 68.024C81.7855 66.6961 81.7855 64.5432 80.4574 63.2153C79.1293 61.8874 76.9761 61.8874 75.648 63.2153C74.3199 64.5432 74.3199 66.6961 75.648 68.024C76.9761 69.3519 79.1293 69.3519 80.4574 68.024Z" fill="#161742"/>
<path d="M79.3237 66.8846C80.0225 66.186 80.0225 65.0533 79.3237 64.3546C78.6249 63.656 77.492 63.656 76.7933 64.3546C76.0945 65.0533 76.0945 66.186 76.7933 66.8846C77.492 67.5833 78.6249 67.5833 79.3237 66.8846Z" fill="#161742"/>
</g>
<defs>
<clipPath id="clip0_791_322">
<rect width="143" height="66" fill="white" transform="translate(0.5)"/>
</clipPath>
<clipPath id="clip1_791_322">
<rect width="131.021" height="66.5844" fill="white" transform="translate(12.3066)"/>
</clipPath>
</defs>
</svg>
