<svg width="32" height="32" viewBox="0 0 32 32" fill="none" xmlns="http://www.w3.org/2000/svg">
<rect width="32" height="32" rx="16" fill="#EFF9FD"/>
<mask id="mask0_1_1037" style="mask-type:alpha" maskUnits="userSpaceOnUse" x="4" y="4" width="24" height="24">
<rect x="4" y="4" width="24" height="24" fill="#D9D9D9"/>
</mask>
<g mask="url(#mask0_1_1037)">
<path d="M9 13.6152H23V10.6155C23 10.4615 22.9359 10.3204 22.8077 10.1922C22.6796 10.0641 22.5385 9.99998 22.3845 9.99998H9.6155C9.4615 9.99998 9.32042 10.0641 9.19225 10.1922C9.06408 10.3204 9 10.4615 9 10.6155V13.6152ZM9.6155 25C9.15517 25 8.77083 24.8458 8.4625 24.5375C8.15417 24.2291 8 23.8448 8 23.3845V10.6155C8 10.1551 8.15417 9.77081 8.4625 9.46248C8.77083 9.15414 9.15517 8.99998 9.6155 8.99998H11.3845V7.30773C11.3845 7.15256 11.4355 7.02398 11.5375 6.92198C11.6395 6.82014 11.768 6.76923 11.923 6.76923C12.0782 6.76923 12.2067 6.82014 12.3088 6.92198C12.4106 7.02398 12.4615 7.15256 12.4615 7.30773V8.99998H19.6155V7.26923C19.6155 7.12689 19.6632 7.00798 19.7587 6.91248C19.8542 6.81698 19.9732 6.76923 20.1155 6.76923C20.2577 6.76923 20.3765 6.81698 20.472 6.91248C20.5677 7.00798 20.6155 7.12689 20.6155 7.26923V8.99998H22.3845C22.8448 8.99998 23.2292 9.15414 23.5375 9.46248C23.8458 9.77081 24 10.1551 24 10.6155V15.3672C24 15.5096 23.9523 15.6285 23.8568 15.724C23.7613 15.8195 23.6423 15.8672 23.5 15.8672C23.3577 15.8672 23.2387 15.8195 23.1432 15.724C23.0477 15.6285 23 15.5096 23 15.3672V14.6155H9V23.3845C9 23.5385 9.06408 23.6796 9.19225 23.8077C9.32042 23.9359 9.4615 24 9.6155 24H16.05C16.1923 24 16.3112 24.0477 16.4067 24.1432C16.5022 24.2387 16.55 24.3576 16.55 24.5C16.55 24.6423 16.5022 24.7612 16.4067 24.8567C16.3112 24.9522 16.1923 25 16.05 25H9.6155Z" fill="#1D478E"/>
<circle cx="23.1943" cy="21.9619" r="4.5" fill="#1D478E"/>
<path d="M24.7209 20.691C24.8838 20.691 25.0001 20.849 24.9517 21.0046C24.9202 21.1056 24.8267 21.1744 24.7209 21.1744H21.6461C21.4837 21.1744 21.3675 21.0173 21.415 20.8619C21.4461 20.7603 21.5399 20.691 21.6461 20.691H24.7209ZM23.7511 24.9414C23.6575 24.9542 23.5637 24.9193 23.5012 24.8484L21.4274 22.4974C21.3872 22.4518 21.3645 22.3934 21.3635 22.3326C21.3611 22.1897 21.4762 22.0727 21.6191 22.0727H22.3381C22.6339 22.0727 22.8861 22.0313 23.0949 21.9488C23.3036 21.8648 23.4629 21.7403 23.5728 21.5754C23.6848 21.4107 23.7408 21.2065 23.7408 20.9629C23.7408 20.604 23.6241 20.3221 23.3906 20.117C23.1593 19.91 22.8273 19.8067 22.3951 19.8067H21.6397C21.481 19.8067 21.3679 19.6526 21.4156 19.5012C21.4464 19.4034 21.5371 19.3369 21.6397 19.3369H22.395C22.8122 19.3369 23.1612 19.4064 23.4419 19.5456C23.7245 19.6846 23.937 19.8771 24.0791 20.1224C24.2234 20.3659 24.2953 20.646 24.2953 20.9629C24.2953 21.2596 24.2262 21.5267 24.0878 21.7647C23.9511 22.001 23.7395 22.1886 23.4531 22.3279C23.1687 22.4653 22.8056 22.5339 22.3637 22.5339C22.284 22.5339 22.2416 22.6279 22.2943 22.6877L23.9609 24.5771C24.0813 24.7136 23.988 24.9286 23.8061 24.9338L23.7511 24.9414ZM24.7431 19.3369C24.9053 19.3369 25.0213 19.4937 24.9738 19.6488C24.9426 19.7506 24.8484 19.8199 24.742 19.8194L22.2178 19.8081C22.0613 19.8074 21.949 19.6571 21.9926 19.5067C22.0219 19.4061 22.1141 19.3369 22.2189 19.3369L24.7431 19.3369Z" fill="white"/>
</g>
</svg>
