<svg width="258" height="46" viewBox="0 0 258 46" fill="none" xmlns="http://www.w3.org/2000/svg">
<g opacity="0.1" clip-path="url(#clip0_754_3481)">
<path d="M12.6872 -212.105C49.1083 -311.251 159.341 -362.066 259.053 -325.608C358.764 -289.155 410.228 -179.224 374.113 -79.9648C337.688 19.1815 227.459 69.9924 127.747 33.5385C28.0359 -2.91907 -23.4276 -112.849 12.6872 -212.105ZM303.199 -105.879L303.316 -105.835C325.245 -166.603 294.205 -233.622 233.799 -255.708C173.392 -277.794 106.445 -246.598 84.0055 -186.016L83.8888 -186.06C61.9596 -125.292 92.9996 -58.2726 153.406 -36.1866C213.813 -14.1006 280.76 -45.2973 303.199 -105.879Z" fill="url(#paint0_linear_754_3481)"/>
<path d="M385.48 -145.479C385.48 -169.274 381.138 -192.56 372.56 -214.748C363.249 -238.832 349.325 -260.553 331.184 -279.303C313.032 -297.948 291.777 -312.513 268.003 -322.597C245.035 -332.338 220.7 -337.508 195.668 -337.967C170.632 -338.423 146.162 -334.146 122.935 -325.247C98.884 -316.034 77.2246 -302.246 58.551 -284.269C39.9321 -266.339 25.3892 -245.307 15.3342 -221.755C5.61829 -199.002 0.470483 -174.86 0.0329933 -149.996C-0.411788 -124.989 3.92666 -100.519 12.9244 -77.252C22.2356 -53.1681 36.1588 -31.4467 54.3001 -12.6966C72.4523 5.94779 93.707 20.5126 117.481 30.5967C140.446 40.3382 164.781 45.5079 189.813 45.9672C214.848 46.4229 239.318 42.1465 262.546 33.2472C286.597 24.0344 308.256 10.2462 326.93 -7.73108C345.548 -25.6609 360.091 -46.6933 370.146 -70.2449C379.859 -92.9944 385.006 -117.137 385.448 -142.004C385.469 -143.164 385.477 -144.323 385.477 -145.479L385.48 -145.479ZM0.364757 -146.521C0.364757 -147.677 0.375694 -148.829 0.393923 -149.988C0.835058 -174.809 5.97193 -198.904 15.666 -221.609C25.7027 -245.117 40.2165 -266.109 58.8025 -284.003C77.4396 -301.947 99.059 -315.71 123.063 -324.904C146.25 -333.785 170.676 -338.058 195.661 -337.603C220.645 -337.147 244.937 -331.984 267.857 -322.261C291.584 -312.195 312.802 -297.656 330.918 -279.048C349.027 -260.331 362.92 -238.653 372.217 -214.613C381.197 -191.39 385.531 -166.956 385.083 -142.008C384.642 -117.188 379.505 -93.0928 369.811 -70.387C359.774 -46.8792 345.26 -25.8869 326.678 -7.9936C308.041 9.95083 286.422 23.7136 262.418 32.9081C239.231 41.7892 214.808 46.062 189.82 45.6063C164.836 45.1506 140.544 39.9882 117.623 30.265C93.8966 20.199 72.6783 5.6598 54.5626 -12.9481C36.4541 -31.6654 22.5601 -53.3431 13.2634 -77.3796C4.69956 -99.5275 0.364758 -122.773 0.364757 -146.521Z" fill="url(#paint1_linear_754_3481)"/>
<path d="M380.453 -145.493C380.453 -168.866 376.158 -191.721 367.678 -213.483C358.563 -236.867 344.994 -257.943 327.334 -276.132L327.217 -276.263C309.492 -294.371 288.755 -308.495 265.582 -318.251C243.197 -327.672 219.489 -332.641 195.117 -333.013C170.745 -333.388 146.931 -329.148 124.346 -320.413C100.958 -311.371 79.9111 -297.878 61.7845 -280.313C43.7088 -262.799 29.6143 -242.27 19.8911 -219.302C10.4996 -197.117 5.55599 -173.587 5.19506 -149.365C4.82319 -125.008 9.12518 -101.179 17.9479 -78.5389C27.0623 -55.1514 40.6354 -34.0754 58.2955 -15.883L58.4049 -15.7591C76.1305 2.34939 96.8676 16.4731 120.04 26.2291C142.425 35.6497 166.133 40.6189 190.505 40.9907C214.877 41.3662 238.691 37.1262 261.277 28.391C284.664 19.3495 305.711 5.85659 323.838 -11.7087C341.913 -29.2229 356.008 -49.7521 365.731 -72.7203C375.122 -94.9048 380.066 -118.434 380.427 -142.657C380.442 -143.601 380.449 -144.549 380.449 -145.493L380.453 -145.493ZM326.845 -276.121L326.951 -276C344.633 -257.819 358.221 -236.739 367.335 -213.348C376.143 -190.752 380.416 -166.974 380.062 -142.66C379.705 -118.486 374.769 -95.0032 365.396 -72.8625C355.691 -49.938 341.625 -29.4525 323.586 -11.9711C305.496 5.5613 284.489 19.025 261.145 28.0483C238.6 36.7653 214.837 40.9944 190.509 40.6225C166.184 40.2506 142.523 35.2924 120.179 25.89C97.0972 16.1741 76.4368 2.11243 58.7694 -15.9049L58.6673 -16.0216C40.9854 -34.2029 27.3977 -55.2827 18.2833 -78.6738C9.47518 -101.27 5.19871 -125.051 5.55599 -149.361C5.91327 -173.536 10.8496 -197.019 20.2229 -219.159C29.9279 -242.084 43.9932 -262.569 62.0324 -280.051C80.1226 -297.583 101.129 -311.047 124.473 -320.07C147.019 -328.787 170.782 -333.016 195.11 -332.644C219.434 -332.272 243.095 -327.314 265.44 -317.908C288.518 -308.196 309.178 -294.134 326.845 -276.117L326.845 -276.121Z" fill="url(#paint2_linear_754_3481)"/>
<path d="M375.429 -145.508C375.429 -168.454 371.185 -190.883 362.8 -212.218C353.864 -234.953 340.601 -255.431 323.367 -273.087L323.258 -273.222C305.959 -290.791 285.74 -304.477 263.165 -313.902C241.356 -323.005 218.279 -327.766 194.57 -328.058C170.858 -328.346 147.708 -324.15 125.76 -315.579C103.036 -306.708 82.6019 -293.511 65.0221 -276.361C47.4933 -259.259 33.8436 -239.236 24.4558 -216.852C15.3851 -195.232 10.6456 -172.315 10.3686 -148.738C10.0988 -125.022 14.3352 -101.843 22.9865 -79.8295C31.9223 -57.0946 45.1855 -36.6164 62.419 -18.96L62.5284 -18.8251C79.8275 -1.25626 100.047 12.4299 122.621 21.8542C144.43 30.9576 167.508 35.719 191.216 36.0107C214.928 36.2987 238.079 32.1024 260.026 23.5312C282.75 14.6611 303.185 1.46349 320.764 -15.6861C338.293 -32.7884 351.943 -52.8109 361.331 -75.1921C370.401 -96.8115 375.141 -119.729 375.418 -143.306C375.425 -144.039 375.433 -144.775 375.433 -145.504L375.429 -145.508ZM322.883 -273.08L322.985 -272.952C340.24 -255.303 353.518 -234.825 362.457 -212.083C371.09 -190.114 375.327 -166.974 375.05 -143.313C374.773 -119.783 370.04 -96.9135 360.992 -75.338C351.622 -53.0004 337.998 -33.0181 320.506 -15.9486C302.962 1.16817 282.564 14.3366 259.888 23.1922C237.984 31.7451 214.877 35.9341 191.213 35.6461C167.552 35.3581 144.518 30.604 122.753 21.5188C100.273 12.1346 80.1337 -1.48227 62.8929 -18.9637L62.7909 -19.0913C45.5355 -36.7404 32.2577 -57.2185 23.3183 -79.9608C14.6851 -101.93 10.4488 -125.062 10.7259 -148.731C11.0029 -172.26 15.7351 -195.13 24.7839 -216.706C34.1535 -239.043 47.7776 -259.026 65.27 -276.095C82.8133 -293.212 103.208 -306.38 125.888 -315.236C147.792 -323.789 170.898 -327.978 194.563 -327.69C218.224 -327.402 241.258 -322.648 263.023 -313.562C285.503 -304.178 305.642 -290.561 322.883 -273.08Z" fill="url(#paint3_linear_754_3481)"/>
<path d="M370.405 -145.511C370.405 -168.111 366.179 -190.183 357.842 -211.142C349.085 -233.152 336.153 -252.966 319.397 -270.036L319.295 -270.174C302.419 -287.207 282.721 -300.452 260.744 -309.545C239.515 -318.327 217.064 -322.885 194.016 -323.092C170.964 -323.3 148.473 -319.14 127.167 -310.737C105.107 -302.035 85.2851 -289.136 68.2484 -272.398C51.2118 -255.661 37.985 -236.079 28.9253 -214.205C20.1755 -193.074 15.6657 -170.7 15.5235 -147.699C15.3704 -124.698 19.6031 -102.233 28.0832 -80.9196C36.8403 -58.9102 49.7718 -39.0955 66.5277 -22.0261L66.6297 -21.8875C83.5059 -4.85459 103.204 8.39044 125.181 17.483C146.41 26.2656 168.86 30.8228 191.909 31.0306C214.961 31.2384 237.452 27.0786 258.757 18.6751C280.818 9.97271 300.64 -2.92598 317.676 -19.6637C334.713 -36.4013 347.94 -55.9827 356.999 -77.8572C365.749 -98.988 370.259 -121.362 370.401 -144.363C370.401 -144.746 370.401 -145.129 370.401 -145.511L370.405 -145.511ZM318.92 -270.039L319.018 -269.905C335.796 -252.842 348.742 -233.028 357.503 -211.011C365.822 -190.095 370.037 -168.064 370.037 -145.515C370.037 -145.132 370.037 -144.753 370.037 -144.37C369.891 -121.417 365.392 -99.0864 356.66 -78.003C347.623 -56.1722 334.421 -36.6346 317.421 -19.9298C300.421 -3.22493 280.639 9.64821 258.626 18.3288C237.364 26.7176 214.917 30.8665 191.912 30.6587C168.911 30.4546 146.508 25.9047 125.323 17.1403C103.445 8.08786 83.8231 -5.09156 67.0089 -22.0334L66.9105 -22.1683C50.1327 -39.2304 37.1866 -59.0451 28.4259 -81.0618C19.9641 -102.331 15.7386 -124.756 15.8954 -147.703C16.0412 -170.656 20.5401 -192.986 29.2717 -214.07C38.3095 -235.901 51.5144 -255.438 68.5109 -272.143C85.5111 -288.848 105.293 -301.721 127.306 -310.402C148.568 -318.79 171.015 -322.939 194.02 -322.732C217.021 -322.527 239.424 -317.977 260.609 -309.213C282.488 -300.161 302.105 -286.981 318.923 -270.039L318.92 -270.039Z" fill="url(#paint4_linear_754_3481)"/>
<path d="M365.385 -145.522C365.385 -167.7 361.207 -189.344 352.964 -209.877C344.389 -231.241 331.764 -250.454 315.434 -266.988L315.336 -267.134C298.886 -283.631 279.706 -296.435 258.331 -305.199C237.681 -313.665 215.861 -318.018 193.473 -318.138C171.084 -318.262 149.25 -314.146 128.586 -305.903C107.189 -297.372 87.9792 -284.768 71.4895 -268.443C54.9997 -252.117 42.2177 -233.046 33.4934 -211.751C25.0681 -191.185 20.7624 -169.424 20.6968 -147.068C20.6421 -124.727 24.8129 -102.893 33.1179 -82.2066C41.6927 -60.8461 54.3216 -41.6293 70.6473 -25.0958L70.7458 -24.95C87.1954 -8.45299 106.376 4.35093 127.751 13.1153C148.4 21.5808 170.22 25.9338 192.609 26.0541C214.997 26.178 236.828 22.0583 257.496 13.8189C278.893 5.28788 298.102 -7.31549 314.592 -23.6412C331.082 -39.9669 343.864 -59.0378 352.588 -80.3327C361.013 -100.898 365.319 -122.66 365.385 -145.016C365.385 -145.183 365.385 -145.355 365.385 -145.526L365.385 -145.522ZM314.96 -266.999L315.055 -266.857C331.406 -250.327 344.046 -231.114 352.624 -209.742C360.849 -189.257 365.02 -167.652 365.02 -145.526C365.02 -145.355 365.02 -145.187 365.02 -145.019C364.954 -122.711 360.66 -100.997 352.253 -80.4748C343.547 -59.2274 330.79 -40.1965 314.337 -23.9073C297.884 -7.6181 278.714 4.95975 257.365 13.4726C236.741 21.6938 214.957 25.8025 192.612 25.6822C170.271 25.5619 148.495 21.2162 127.889 12.769C106.609 4.04832 87.5126 -8.69359 71.1213 -25.0958L71.0265 -25.238C54.6753 -41.7679 42.0354 -60.981 33.457 -82.3524C25.2321 -102.838 21.0614 -124.443 21.0614 -146.572C21.0614 -146.744 21.0614 -146.911 21.0614 -147.079C21.127 -169.387 25.4217 -191.102 33.8288 -211.624C42.5349 -232.871 55.2914 -251.902 71.7447 -268.191C88.198 -284.48 107.367 -297.058 128.717 -305.571C149.341 -313.792 171.124 -317.901 193.469 -317.781C215.81 -317.66 237.586 -313.315 258.192 -304.867C279.469 -296.147 298.569 -283.405 314.96 -267.003L314.96 -266.999Z" fill="url(#paint5_linear_754_3481)"/>
<path d="M360.365 -145.533L360.365 -145.665C360.347 -167.371 356.216 -188.55 348.082 -208.612C339.686 -229.324 327.367 -247.943 311.468 -263.94L311.497 -263.973L311.373 -264.093C295.346 -280.051 276.688 -292.417 255.91 -300.85C235.84 -308.994 214.648 -313.143 192.919 -313.183C171.19 -313.223 150.019 -309.147 129.993 -301.072C109.26 -292.712 90.6629 -280.404 74.72 -264.491C58.7772 -248.581 46.4399 -230.013 38.051 -209.305C29.9648 -189.344 25.8633 -168.243 25.8633 -146.58L25.8633 -146.448C25.8815 -124.742 30.0122 -103.563 38.1458 -83.5008C46.542 -62.7856 58.861 -44.1704 74.7602 -28.1692L74.731 -28.1364L74.8513 -28.0161C90.878 -12.0586 109.537 0.307788 130.314 8.74044C150.384 16.885 171.577 21.0339 193.305 21.074C215.034 21.1141 236.205 17.0382 256.231 8.96281C276.965 0.6031 295.562 -11.705 311.505 -27.6187C327.447 -43.5288 339.785 -62.0966 348.173 -82.8045C356.26 -102.765 360.361 -123.867 360.361 -145.53L360.365 -145.533ZM310.969 -263.929L311.089 -263.809C327.014 -247.815 339.347 -229.2 347.747 -208.477C355.862 -188.458 359.986 -167.328 360 -145.668L360 -145.537C360 -123.921 355.91 -102.863 347.838 -82.9467C339.467 -62.2862 327.156 -43.7584 311.249 -27.8812C295.343 -12.0039 276.786 0.274975 256.096 8.6201C236.114 16.6772 214.987 20.7459 193.305 20.7058C171.628 20.6657 150.479 16.5278 130.453 8.40139C109.774 0.00883799 91.1952 -12.2883 75.2341 -28.1546L75.2596 -28.1838L75.1393 -28.3041C59.2147 -44.298 46.8811 -62.9132 38.4812 -83.6357C30.3658 -103.655 26.2424 -124.785 26.2279 -146.445C26.2279 -168.115 30.3038 -189.209 38.3901 -209.166C46.7607 -229.827 59.0725 -248.355 74.9789 -264.232C90.8853 -280.109 109.442 -292.388 130.132 -300.733C150.114 -308.79 171.241 -312.859 192.923 -312.819C214.6 -312.779 235.749 -308.641 255.775 -300.514C276.454 -292.122 295.029 -279.825 310.994 -263.958L310.969 -263.929Z" fill="url(#paint6_linear_754_3481)"/>
<path d="M355.348 -145.544C355.348 -145.803 355.348 -146.058 355.348 -146.317C355.25 -167.379 351.167 -187.912 343.204 -207.347C334.987 -227.413 322.974 -245.427 307.505 -260.896L307.538 -260.932L307.414 -261.056C291.814 -276.478 273.673 -288.403 253.497 -296.504C234.007 -304.328 213.441 -308.276 192.376 -308.229C171.307 -308.185 150.796 -304.149 131.412 -296.238C111.342 -288.046 93.3572 -276.037 77.9612 -260.539C62.5652 -245.041 50.6728 -226.979 42.6156 -206.855C34.8356 -187.419 30.9456 -166.872 31.0367 -145.821C31.1352 -124.76 35.2221 -104.227 43.1807 -84.7914C51.3983 -64.7252 63.411 -46.7115 78.88 -31.2426L78.8472 -31.2061L78.9711 -31.0858C94.5713 -15.6642 112.713 -3.73898 132.888 4.36188C152.378 12.1893 172.944 16.134 194.009 16.0866C215.078 16.0428 235.589 12.007 254.974 4.09573C275.043 -4.09629 293.028 -16.1054 308.424 -31.6035C323.82 -47.1016 335.712 -65.1627 343.77 -85.2872C351.455 -104.486 355.352 -124.756 355.352 -145.548L355.348 -145.544ZM307.002 -260.881L307.126 -260.757C322.624 -245.296 334.648 -227.278 342.869 -207.209C350.809 -187.817 354.889 -167.328 354.984 -146.314C355.09 -125.277 351.196 -104.807 343.43 -85.4148C335.392 -65.3377 323.528 -47.3167 308.165 -31.8551C292.802 -16.3934 274.861 -4.40619 254.835 3.76394C235.494 11.657 215.027 15.6819 194.006 15.7293C172.988 15.7731 152.47 11.8393 133.019 4.03009C112.942 -4.03067 94.8848 -15.8903 79.343 -31.217L79.3758 -31.2535L79.2555 -31.3738C63.7574 -46.8355 51.7337 -64.8528 43.5125 -84.9227C35.5684 -104.314 31.4925 -124.804 31.3977 -145.818C31.3102 -166.843 35.1856 -187.325 42.9511 -206.716C50.9899 -226.794 62.8532 -244.814 78.2164 -260.276C93.5796 -275.738 111.52 -287.725 131.547 -295.895C150.887 -303.788 171.355 -307.813 192.376 -307.861C213.394 -307.904 233.912 -303.971 253.362 -296.161C273.439 -288.101 291.497 -276.241 307.035 -260.914L307.002 -260.878L307.002 -260.881Z" fill="url(#paint7_linear_754_3481)"/>
<path d="M350.335 -145.552C350.335 -146.022 350.335 -146.496 350.328 -146.966C350.149 -167.382 346.11 -187.27 338.322 -206.082C330.283 -225.499 318.581 -242.915 303.534 -257.848L303.575 -257.892L303.451 -258.012C288.273 -272.898 270.653 -284.382 251.076 -292.155C232.162 -299.661 212.227 -303.402 191.825 -303.274C171.42 -303.147 151.565 -299.151 132.822 -291.404C113.416 -283.383 96.0437 -271.669 81.1945 -256.583C66.3454 -241.497 54.8977 -223.943 47.176 -204.405C39.7168 -185.535 36.02 -165.607 36.2059 -145.194C36.3845 -124.778 40.424 -104.89 48.2114 -86.0783C56.2503 -66.6611 67.9531 -49.2453 82.9992 -34.3123L82.9591 -34.2685L83.083 -34.1482C98.2603 -19.2626 115.88 -7.77847 135.458 -0.00573601C154.372 7.50089 174.307 11.2414 194.712 11.1138C215.118 10.9862 234.972 6.99048 253.715 -0.756748C273.122 -8.77741 290.494 -20.4912 305.343 -35.5774C320.192 -50.6635 331.64 -68.2178 339.361 -87.7554C346.649 -106.188 350.339 -125.627 350.339 -145.552L350.335 -145.552ZM303.035 -257.83L303.155 -257.71C318.223 -242.784 329.944 -225.368 337.987 -205.94C345.756 -187.175 349.785 -167.331 349.963 -146.962C350.124 -126.594 346.46 -106.717 339.019 -87.8903C331.315 -68.3964 319.897 -50.8822 305.08 -35.8326C290.264 -20.7829 272.936 -9.09461 253.573 -1.09217C234.87 6.63681 215.067 10.6216 194.705 10.7492C174.347 10.8769 154.46 7.14722 135.589 -0.344786C116.11 -8.07379 98.5702 -19.4959 83.4585 -34.2867L83.495 -34.3305L83.371 -34.4508C68.3031 -49.3765 56.582 -66.7923 48.5395 -86.2205C40.7704 -104.985 36.7418 -124.829 36.5632 -145.198C36.37 -165.57 40.0668 -185.443 47.5077 -204.27C55.2112 -223.764 66.6297 -241.278 81.4461 -256.328C96.2624 -271.377 113.591 -283.066 132.953 -291.068C151.656 -298.797 171.46 -302.782 191.821 -302.91C212.179 -303.037 232.067 -299.308 250.937 -291.816C270.416 -284.083 287.956 -272.664 303.068 -257.874L303.031 -257.83L303.035 -257.83Z" fill="url(#paint8_linear_754_3481)"/>
<path d="M345.326 -145.559C345.326 -146.244 345.322 -146.93 345.311 -147.615C345.052 -167.386 341.06 -186.628 333.444 -204.813C325.584 -223.582 314.187 -240.399 299.572 -254.797L299.615 -254.848L299.491 -254.968C284.741 -269.314 267.638 -280.361 248.659 -287.802C230.324 -294.987 211.016 -298.524 191.274 -298.312C171.529 -298.101 152.338 -294.149 134.233 -286.566C115.486 -278.716 98.7306 -267.298 84.4246 -252.624C70.1187 -237.953 59.1195 -220.902 51.7332 -201.951C44.5984 -183.646 41.1021 -164.338 41.3719 -144.564C41.6308 -124.793 45.6229 -105.55 53.2389 -87.3653C61.0991 -68.597 72.4957 -51.7791 87.1116 -37.382L87.0678 -37.331L87.1918 -37.2107C101.942 -22.8646 119.045 -11.818 138.025 -4.37702C156.359 2.80874 175.667 6.34515 195.409 6.13369C215.154 5.92223 234.345 1.97023 252.45 -5.61293C271.197 -13.4622 287.952 -24.8808 302.258 -39.5549C316.564 -54.2291 327.564 -71.2766 334.95 -90.2272C341.837 -107.898 345.326 -126.503 345.326 -145.555L345.326 -145.559ZM299.068 -254.782L299.192 -254.662C313.834 -240.268 325.245 -223.45 333.109 -204.675C340.707 -186.533 344.688 -167.335 344.947 -147.611C345.22 -127.881 341.727 -108.624 334.607 -90.3621C327.235 -71.4553 316.262 -54.4478 301.992 -39.8101C287.723 -25.1761 271.003 -13.7831 252.304 -5.95198C234.243 1.61297 215.096 5.55401 195.398 5.76546C175.703 5.97692 156.443 2.45147 138.152 -4.71973C119.274 -12.1206 102.256 -23.098 87.5673 -37.3529L87.611 -37.4002L87.4871 -37.5206C72.8457 -51.914 61.4345 -68.7319 53.5706 -87.5075C45.9729 -105.649 41.9917 -124.847 41.7329 -144.571C41.4667 -164.294 44.9521 -183.559 52.0722 -201.82C59.4439 -220.727 70.4176 -237.734 84.6871 -252.372C98.9566 -267.006 115.676 -278.399 134.375 -286.23C152.436 -293.795 171.584 -297.736 191.282 -297.948C210.976 -298.159 230.237 -294.634 248.527 -287.463C267.405 -280.062 284.423 -269.084 299.112 -254.829L299.068 -254.782Z" fill="url(#paint9_linear_754_3481)"/>
<path d="M340.316 -145.57C340.316 -146.47 340.309 -147.367 340.291 -148.271C339.948 -167.397 336.003 -185.998 328.562 -203.552C320.881 -221.671 309.794 -237.888 295.601 -251.752L295.652 -251.811L295.525 -251.931C281.197 -265.741 264.616 -276.347 246.238 -283.456C228.483 -290.324 209.806 -293.657 190.724 -293.358C171.638 -293.062 153.107 -289.151 135.644 -281.731C117.561 -274.05 101.417 -262.927 87.6582 -248.672C73.8991 -234.413 63.3447 -217.869 56.2901 -199.501C49.4762 -181.758 46.1987 -163.066 46.5341 -143.936C46.8768 -124.811 50.8215 -106.21 58.2625 -88.6559C65.9441 -70.5365 77.0308 -54.3202 91.2238 -40.4554L91.1727 -40.3971L91.3003 -40.2768C105.628 -26.4666 122.209 -15.8612 140.587 -8.75194C158.342 -1.88335 177.019 1.4489 196.101 1.14995C215.187 0.854627 233.718 -3.05727 251.181 -10.4764C269.264 -18.1544 285.408 -29.2812 299.167 -43.5361C312.926 -57.7946 323.48 -74.3391 330.535 -92.7064C337.028 -109.612 340.313 -127.385 340.313 -145.57L340.316 -145.57ZM295.102 -251.734L295.226 -251.614C309.44 -237.756 320.545 -221.536 328.231 -203.41C335.653 -185.895 339.591 -167.342 339.93 -148.264C340.265 -129.182 336.995 -110.534 330.199 -92.8376C323.163 -74.514 312.634 -58.0134 298.911 -43.7913C285.185 -29.5692 269.082 -18.4715 251.046 -10.8118C233.627 -3.41454 215.139 0.490064 196.101 0.785353C177.067 1.08067 158.433 -2.24062 140.722 -9.09465C122.442 -16.1637 105.945 -26.7036 91.6831 -40.4226L91.7305 -40.4773L91.6066 -40.5976C77.3918 -54.4551 66.2868 -70.675 58.6016 -88.8017C51.1788 -106.316 47.2414 -124.869 46.9023 -143.947C46.5633 -163.029 49.8372 -181.677 56.6328 -199.374C63.6691 -217.697 74.1981 -234.198 87.9207 -248.42C101.643 -262.642 117.75 -273.74 135.786 -281.4C153.205 -288.797 171.693 -292.701 190.731 -292.997C209.765 -293.292 228.399 -289.971 246.11 -283.117C264.39 -276.048 280.887 -265.508 295.149 -251.789L295.102 -251.734Z" fill="url(#paint10_linear_754_3481)"/>
</g>
<defs>
<linearGradient id="paint0_linear_754_3481" x1="310.604" y1="-318.045" x2="61.5537" y2="47.4733" gradientUnits="userSpaceOnUse">
<stop offset="0.1" stop-color="#00E7FF"/>
<stop offset="0.15" stop-color="#08D4F5"/>
<stop offset="0.25" stop-color="#19AFE1"/>
<stop offset="0.4" stop-color="#196EDC"/>
<stop offset="0.5" stop-color="#1947DA"/>
<stop offset="0.52" stop-color="#1345CC"/>
<stop offset="0.58" stop-color="#0742AC"/>
<stop offset="0.61" stop-color="#0341A0"/>
<stop offset="0.65" stop-color="#02409F" stop-opacity="0.9604"/>
<stop offset="0.68" stop-color="#02409F" stop-opacity="0.8464"/>
<stop offset="0.7" stop-color="#02409E" stop-opacity="0.6724"/>
<stop offset="0.73" stop-color="#02409D" stop-opacity="0.4624"/>
<stop offset="0.75" stop-color="#01409B" stop-opacity="0.2401"/>
<stop offset="0.77" stop-color="#00409A" stop-opacity="0.0729"/>
<stop offset="0.79" stop-color="#004098" stop-opacity="0"/>
</linearGradient>
<linearGradient id="paint1_linear_754_3481" x1="96.9298" y1="-313.044" x2="288.518" y2="20.9373" gradientUnits="userSpaceOnUse">
<stop offset="0.17" stop-color="#10DEFA" stop-opacity="0"/>
<stop offset="0.23" stop-color="#10DDF9" stop-opacity="0.01"/>
<stop offset="0.3" stop-color="#10DAF7" stop-opacity="0.01"/>
<stop offset="0.38" stop-color="#11D5F5" stop-opacity="0.0324"/>
<stop offset="0.46" stop-color="#12CEF1" stop-opacity="0.1089"/>
<stop offset="0.53" stop-color="#14C6ED" stop-opacity="0.2601"/>
<stop offset="0.62" stop-color="#16BBE7" stop-opacity="0.5329"/>
<stop offset="0.7" stop-color="#19AFE1"/>
<stop offset="0.77" stop-color="#1499D2"/>
<stop offset="0.92" stop-color="#0761AD"/>
<stop offset="1" stop-color="#004098"/>
</linearGradient>
<linearGradient id="paint2_linear_754_3481" x1="238.647" y1="-327.278" x2="146.982" y2="35.256" gradientUnits="userSpaceOnUse">
<stop offset="0.17" stop-color="#10DEFA" stop-opacity="0"/>
<stop offset="0.23" stop-color="#10DDF9" stop-opacity="0.01"/>
<stop offset="0.3" stop-color="#10DAF7" stop-opacity="0.01"/>
<stop offset="0.38" stop-color="#11D5F5" stop-opacity="0.0324"/>
<stop offset="0.46" stop-color="#12CEF1" stop-opacity="0.1089"/>
<stop offset="0.53" stop-color="#14C6ED" stop-opacity="0.2601"/>
<stop offset="0.62" stop-color="#16BBE7" stop-opacity="0.5329"/>
<stop offset="0.7" stop-color="#19AFE1"/>
<stop offset="0.77" stop-color="#1499D2"/>
<stop offset="0.92" stop-color="#0761AD"/>
<stop offset="1" stop-color="#004098"/>
</linearGradient>
<linearGradient id="paint3_linear_754_3481" x1="237.503" y1="-322.462" x2="148.28" y2="30.4181" gradientUnits="userSpaceOnUse">
<stop offset="0.17" stop-color="#10DEFA" stop-opacity="0"/>
<stop offset="0.23" stop-color="#10DDF9" stop-opacity="0.01"/>
<stop offset="0.3" stop-color="#10DAF7" stop-opacity="0.01"/>
<stop offset="0.38" stop-color="#11D5F5" stop-opacity="0.0324"/>
<stop offset="0.46" stop-color="#12CEF1" stop-opacity="0.1089"/>
<stop offset="0.53" stop-color="#14C6ED" stop-opacity="0.2601"/>
<stop offset="0.62" stop-color="#16BBE7" stop-opacity="0.5329"/>
<stop offset="0.7" stop-color="#19AFE1"/>
<stop offset="0.77" stop-color="#1499D2"/>
<stop offset="0.92" stop-color="#0761AD"/>
<stop offset="1" stop-color="#004098"/>
</linearGradient>
<linearGradient id="paint4_linear_754_3481" x1="236.358" y1="-317.649" x2="149.574" y2="25.5802" gradientUnits="userSpaceOnUse">
<stop offset="0.17" stop-color="#10DEFA" stop-opacity="0"/>
<stop offset="0.23" stop-color="#10DDF9" stop-opacity="0.01"/>
<stop offset="0.3" stop-color="#10DAF7" stop-opacity="0.01"/>
<stop offset="0.38" stop-color="#11D5F5" stop-opacity="0.0324"/>
<stop offset="0.46" stop-color="#12CEF1" stop-opacity="0.1089"/>
<stop offset="0.53" stop-color="#14C6ED" stop-opacity="0.2601"/>
<stop offset="0.62" stop-color="#16BBE7" stop-opacity="0.5329"/>
<stop offset="0.7" stop-color="#19AFE1"/>
<stop offset="0.77" stop-color="#1499D2"/>
<stop offset="0.92" stop-color="#0761AD"/>
<stop offset="1" stop-color="#004098"/>
</linearGradient>
<linearGradient id="paint5_linear_754_3481" x1="235.213" y1="-312.837" x2="150.868" y2="20.7459" gradientUnits="userSpaceOnUse">
<stop offset="0.17" stop-color="#10DEFA" stop-opacity="0"/>
<stop offset="0.23" stop-color="#10DDF9" stop-opacity="0.01"/>
<stop offset="0.3" stop-color="#10DAF7" stop-opacity="0.01"/>
<stop offset="0.38" stop-color="#11D5F5" stop-opacity="0.0324"/>
<stop offset="0.46" stop-color="#12CEF1" stop-opacity="0.1089"/>
<stop offset="0.53" stop-color="#14C6ED" stop-opacity="0.2601"/>
<stop offset="0.62" stop-color="#16BBE7" stop-opacity="0.5329"/>
<stop offset="0.7" stop-color="#19AFE1"/>
<stop offset="0.77" stop-color="#1499D2"/>
<stop offset="0.92" stop-color="#0761AD"/>
<stop offset="1" stop-color="#004098"/>
</linearGradient>
<linearGradient id="paint6_linear_754_3481" x1="234.069" y1="-308.028" x2="152.163" y2="15.9153" gradientUnits="userSpaceOnUse">
<stop offset="0.17" stop-color="#10DEFA" stop-opacity="0"/>
<stop offset="0.23" stop-color="#10DDF9" stop-opacity="0.01"/>
<stop offset="0.3" stop-color="#10DAF7" stop-opacity="0.01"/>
<stop offset="0.38" stop-color="#11D5F5" stop-opacity="0.0324"/>
<stop offset="0.46" stop-color="#12CEF1" stop-opacity="0.1089"/>
<stop offset="0.53" stop-color="#14C6ED" stop-opacity="0.2601"/>
<stop offset="0.62" stop-color="#16BBE7" stop-opacity="0.5329"/>
<stop offset="0.7" stop-color="#19AFE1"/>
<stop offset="0.77" stop-color="#1499D2"/>
<stop offset="0.92" stop-color="#0761AD"/>
<stop offset="1" stop-color="#004098"/>
</linearGradient>
<linearGradient id="paint7_linear_754_3481" x1="232.928" y1="-303.219" x2="153.458" y2="11.0846" gradientUnits="userSpaceOnUse">
<stop offset="0.17" stop-color="#10DEFA" stop-opacity="0"/>
<stop offset="0.23" stop-color="#10DDF9" stop-opacity="0.01"/>
<stop offset="0.3" stop-color="#10DAF7" stop-opacity="0.01"/>
<stop offset="0.38" stop-color="#11D5F5" stop-opacity="0.0324"/>
<stop offset="0.46" stop-color="#12CEF1" stop-opacity="0.1089"/>
<stop offset="0.53" stop-color="#14C6ED" stop-opacity="0.2601"/>
<stop offset="0.62" stop-color="#16BBE7" stop-opacity="0.5329"/>
<stop offset="0.7" stop-color="#19AFE1"/>
<stop offset="0.77" stop-color="#1499D2"/>
<stop offset="0.92" stop-color="#0761AD"/>
<stop offset="1" stop-color="#004098"/>
</linearGradient>
<linearGradient id="paint8_linear_754_3481" x1="231.782" y1="-298.418" x2="154.748" y2="6.25768" gradientUnits="userSpaceOnUse">
<stop offset="0.17" stop-color="#10DEFA" stop-opacity="0"/>
<stop offset="0.23" stop-color="#10DDF9" stop-opacity="0.01"/>
<stop offset="0.3" stop-color="#10DAF7" stop-opacity="0.01"/>
<stop offset="0.38" stop-color="#11D5F5" stop-opacity="0.0324"/>
<stop offset="0.46" stop-color="#12CEF1" stop-opacity="0.1089"/>
<stop offset="0.53" stop-color="#14C6ED" stop-opacity="0.2601"/>
<stop offset="0.62" stop-color="#16BBE7" stop-opacity="0.5329"/>
<stop offset="0.7" stop-color="#19AFE1"/>
<stop offset="0.77" stop-color="#1499D2"/>
<stop offset="0.92" stop-color="#0761AD"/>
<stop offset="1" stop-color="#004098"/>
</linearGradient>
<linearGradient id="paint9_linear_754_3481" x1="230.641" y1="-293.617" x2="156.038" y2="1.43065" gradientUnits="userSpaceOnUse">
<stop offset="0.17" stop-color="#10DEFA" stop-opacity="0"/>
<stop offset="0.23" stop-color="#10DDF9" stop-opacity="0.01"/>
<stop offset="0.3" stop-color="#10DAF7" stop-opacity="0.01"/>
<stop offset="0.38" stop-color="#11D5F5" stop-opacity="0.0324"/>
<stop offset="0.46" stop-color="#12CEF1" stop-opacity="0.1089"/>
<stop offset="0.53" stop-color="#14C6ED" stop-opacity="0.2601"/>
<stop offset="0.62" stop-color="#16BBE7" stop-opacity="0.5329"/>
<stop offset="0.7" stop-color="#19AFE1"/>
<stop offset="0.77" stop-color="#1499D2"/>
<stop offset="0.92" stop-color="#0761AD"/>
<stop offset="1" stop-color="#004098"/>
</linearGradient>
<linearGradient id="paint10_linear_754_3481" x1="229.5" y1="-288.815" x2="157.332" y2="-3.39267" gradientUnits="userSpaceOnUse">
<stop offset="0.17" stop-color="#10DEFA" stop-opacity="0"/>
<stop offset="0.23" stop-color="#10DDF9" stop-opacity="0.01"/>
<stop offset="0.3" stop-color="#10DAF7" stop-opacity="0.01"/>
<stop offset="0.38" stop-color="#11D5F5" stop-opacity="0.0324"/>
<stop offset="0.46" stop-color="#12CEF1" stop-opacity="0.1089"/>
<stop offset="0.53" stop-color="#14C6ED" stop-opacity="0.2601"/>
<stop offset="0.62" stop-color="#16BBE7" stop-opacity="0.5329"/>
<stop offset="0.7" stop-color="#19AFE1"/>
<stop offset="0.77" stop-color="#1499D2"/>
<stop offset="0.92" stop-color="#0761AD"/>
<stop offset="1" stop-color="#004098"/>
</linearGradient>
<clipPath id="clip0_754_3481">
<rect width="384" height="385.651" fill="white" transform="matrix(4.37114e-08 1 1 -4.37114e-08 0 -338)"/>
</clipPath>
</defs>
</svg>
