<svg width="24" height="24" viewBox="0 0 24 24" fill="none" xmlns="http://www.w3.org/2000/svg">
<mask id="mask0_453_14460" style="mask-type:alpha" maskUnits="userSpaceOnUse" x="0" y="0" width="24" height="24">
<rect width="24" height="24" fill="#D9D9D9"/>
</mask>
<g mask="url(#mask0_453_14460)">
<path d="M12 10.1078L7.75372 14.3538C7.66022 14.4474 7.54548 14.4974 7.40947 14.5038C7.27364 14.5103 7.15256 14.4603 7.04622 14.3538C6.93972 14.2474 6.88647 14.1295 6.88647 14C6.88647 13.8705 6.93972 13.7526 7.04622 13.6463L11.4345 9.25775C11.5961 9.09625 11.7846 9.0155 12 9.0155C12.2153 9.0155 12.4038 9.09625 12.5655 9.25775L16.9537 13.6463C17.0474 13.7398 17.0974 13.8545 17.1037 13.9905C17.1102 14.1263 17.0602 14.2474 16.9537 14.3538C16.8474 14.4603 16.7295 14.5135 16.6 14.5135C16.4705 14.5135 16.3526 14.4603 16.2462 14.3538L12 10.1078Z" fill="#1D478E"/>
</g>
</svg>
