<svg width="24" height="24" viewBox="0 0 24 24" fill="none" xmlns="http://www.w3.org/2000/svg">
<mask id="mask0_39_3242" style="mask-type:alpha" maskUnits="userSpaceOnUse" x="0" y="0" width="24" height="24">
<rect width="24" height="24" fill="#D9D9D9"/>
</mask>
<g mask="url(#mask0_39_3242)">
<path d="M13.2923 12L9.04626 7.75372C8.95259 7.66022 8.90259 7.54547 8.89626 7.40947C8.88976 7.27364 8.93976 7.15256 9.04626 7.04622C9.15259 6.93972 9.27051 6.88647 9.40001 6.88647C9.52951 6.88647 9.64742 6.93972 9.75376 7.04622L14.1423 11.4345C14.2294 11.5218 14.2907 11.611 14.326 11.702C14.3612 11.793 14.3788 11.8923 14.3788 12C14.3788 12.1076 14.3612 12.207 14.326 12.298C14.2907 12.389 14.2294 12.4781 14.1423 12.5655L9.75376 16.9537C9.66026 17.0474 9.54551 17.0974 9.40951 17.1037C9.27367 17.1102 9.15259 17.0602 9.04626 16.9537C8.93976 16.8474 8.88651 16.7295 8.88651 16.6C8.88651 16.4705 8.93976 16.3526 9.04626 16.2462L13.2923 12Z" fill="#1D478E"/>
</g>
</svg>
