<svg width="24" height="24" viewBox="0 0 24 24" fill="none" xmlns="http://www.w3.org/2000/svg">
<mask id="mask0_2054_5135" style="mask-type:alpha" maskUnits="userSpaceOnUse" x="0" y="0" width="24" height="24">
<rect width="24" height="24" fill="#D9D9D9"/>
</mask>
<g mask="url(#mask0_2054_5135)">
<path d="M6.50056 16.5001V9.50007C6.50056 9.35841 6.54856 9.23966 6.64456 9.14383C6.74056 9.04799 6.85948 9.00007 7.00131 9.00007C7.14315 9.00007 7.26181 9.04799 7.35731 9.14383C7.45281 9.23966 7.50056 9.35841 7.50056 9.50007V16.5001C7.50056 16.6417 7.45256 16.7605 7.35656 16.8563C7.26056 16.9522 7.14165 17.0001 6.99981 17.0001C6.85798 17.0001 6.73931 16.9522 6.64381 16.8563C6.54831 16.7605 6.50056 16.6417 6.50056 16.5001ZM11.5006 16.5001V9.50007C11.5006 9.35841 11.5486 9.23966 11.6446 9.14383C11.7406 9.04799 11.8595 9.00007 12.0013 9.00007C12.1431 9.00007 12.2618 9.04799 12.3573 9.14383C12.4528 9.23966 12.5006 9.35841 12.5006 9.50007V16.5001C12.5006 16.6417 12.4526 16.7605 12.3566 16.8563C12.2606 16.9522 12.1416 17.0001 11.9998 17.0001C11.858 17.0001 11.7393 16.9522 11.6438 16.8563C11.5483 16.7605 11.5006 16.6417 11.5006 16.5001ZM4.03906 20.0001C3.8974 20.0001 3.77865 19.9521 3.68281 19.8561C3.58698 19.7601 3.53906 19.6412 3.53906 19.4993C3.53906 19.3575 3.58698 19.2388 3.68281 19.1433C3.77865 19.0478 3.8974 19.0001 4.03906 19.0001H19.9621C20.1037 19.0001 20.2225 19.0481 20.3183 19.1441C20.4141 19.2401 20.4621 19.359 20.4621 19.5008C20.4621 19.6427 20.4141 19.7613 20.3183 19.8568C20.2225 19.9523 20.1037 20.0001 19.9621 20.0001H4.03906ZM16.5006 16.5001V9.50007C16.5006 9.35841 16.5486 9.23966 16.6446 9.14383C16.7406 9.04799 16.8595 9.00007 17.0013 9.00007C17.1431 9.00007 17.2618 9.04799 17.3573 9.14383C17.4528 9.23966 17.5006 9.35841 17.5006 9.50007V16.5001C17.5006 16.6417 17.4526 16.7605 17.3566 16.8563C17.2606 16.9522 17.1416 17.0001 16.9998 17.0001C16.858 17.0001 16.7393 16.9522 16.6438 16.8563C16.5483 16.7605 16.5006 16.6417 16.5006 16.5001ZM20.0391 7.00007H3.91981C3.81398 7.00007 3.72406 6.96333 3.65006 6.88983C3.57606 6.81616 3.53906 6.72682 3.53906 6.62182V6.39057C3.53906 6.31357 3.55848 6.24749 3.59731 6.19232C3.63598 6.13716 3.68706 6.09232 3.75056 6.05782L11.3121 2.45007C11.5281 2.34241 11.7567 2.28857 11.9981 2.28857C12.2394 2.28857 12.4697 2.34241 12.6891 2.45007L20.2198 6.03282C20.2878 6.07766 20.3451 6.13216 20.3918 6.19632C20.4386 6.26032 20.4621 6.33316 20.4621 6.41483V6.58183C20.4621 6.70816 20.4239 6.80941 20.3476 6.88557C20.2714 6.96191 20.1686 7.00007 20.0391 7.00007ZM6.18131 6.00007H17.8198L12.2698 3.36557C12.18 3.32707 12.0902 3.30782 12.0006 3.30782C11.9109 3.30782 11.8211 3.32707 11.7313 3.36557L6.18131 6.00007Z" fill="#1D478E"/>
</g>
</svg>
