<svg width="25" height="24" viewBox="0 0 25 24" fill="none" xmlns="http://www.w3.org/2000/svg">
<mask id="mask0_60_56" style="mask-type:alpha" maskUnits="userSpaceOnUse" x="0" y="0" width="25" height="24">
<rect x="0.5" width="24" height="24" fill="#D9D9D9"/>
</mask>
<g mask="url(#mask0_60_56)">
<path d="M15.316 19C13.3595 19 11.7023 18.3211 10.3445 16.9633C8.98668 15.6054 8.30776 13.9482 8.30776 11.9918C8.30776 10.0498 8.98668 8.399 10.3445 7.0395C11.7023 5.67983 13.3595 5 15.316 5C17.2578 5 18.9086 5.67983 20.2683 7.0395C21.6279 8.399 22.3078 10.0498 22.3078 11.9918C22.3078 13.9482 21.6279 15.6054 20.2683 16.9633C18.9086 18.3211 17.2578 19 15.316 19ZM15.3078 18C16.9744 18 18.3911 17.4167 19.5578 16.25C20.7244 15.0833 21.3078 13.6667 21.3078 12C21.3078 10.3333 20.7244 8.91667 19.5578 7.75C18.3911 6.58333 16.9744 6 15.3078 6C13.6411 6 12.2244 6.58333 11.0578 7.75C9.89109 8.91667 9.30776 10.3333 9.30776 12C9.30776 13.6667 9.89109 15.0833 11.0578 16.25C12.2244 17.4167 13.6411 18 15.3078 18ZM15.8078 11.8115V8.80775C15.8078 8.66608 15.7598 8.54733 15.6638 8.4515C15.5678 8.35567 15.4488 8.30775 15.307 8.30775C15.1652 8.30775 15.0465 8.35567 14.951 8.4515C14.8555 8.54733 14.8078 8.66608 14.8078 8.80775V11.8905C14.8078 11.9925 14.8273 12.0914 14.8663 12.1872C14.9054 12.2829 14.9683 12.3744 15.055 12.4618L17.4213 14.8463C17.5186 14.9564 17.6343 15.0115 17.7683 15.0115C17.9023 15.0115 18.0243 14.9564 18.1345 14.8463C18.2448 14.7359 18.3 14.617 18.3 14.4895C18.3 14.3618 18.2448 14.2429 18.1345 14.1328L15.8078 11.8115ZM4.19226 8.5C4.05059 8.5 3.93184 8.452 3.83601 8.356C3.74018 8.26 3.69226 8.14108 3.69226 7.99925C3.69226 7.85742 3.74018 7.73875 3.83601 7.64325C3.93184 7.54775 4.05059 7.5 4.19226 7.5H6.80776C6.94943 7.5 7.06818 7.548 7.16401 7.644C7.25984 7.74 7.30776 7.85892 7.30776 8.00075C7.30776 8.14258 7.25984 8.26125 7.16401 8.35675C7.06818 8.45225 6.94943 8.5 6.80776 8.5H4.19226ZM3.19226 12.5C3.05059 12.5 2.93184 12.452 2.83601 12.356C2.74018 12.26 2.69226 12.1411 2.69226 11.9992C2.69226 11.8574 2.74018 11.7388 2.83601 11.6433C2.93184 11.5478 3.05059 11.5 3.19226 11.5H6.80776C6.94943 11.5 7.06818 11.548 7.16401 11.644C7.25984 11.74 7.30776 11.8589 7.30776 12.0008C7.30776 12.1426 7.25984 12.2613 7.16401 12.3568C7.06818 12.4523 6.94943 12.5 6.80776 12.5H3.19226ZM4.19226 16.5C4.05059 16.5 3.93184 16.452 3.83601 16.356C3.74018 16.26 3.69226 16.1411 3.69226 15.9993C3.69226 15.8574 3.74018 15.7388 3.83601 15.6433C3.93184 15.5478 4.05059 15.5 4.19226 15.5H6.80776C6.94943 15.5 7.06818 15.548 7.16401 15.644C7.25984 15.74 7.30776 15.8589 7.30776 16.0008C7.30776 16.1426 7.25984 16.2612 7.16401 16.3567C7.06818 16.4522 6.94943 16.5 6.80776 16.5H4.19226Z" fill="#1D478E"/>
</g>
</svg>
