<svg width="17" height="16" viewBox="0 0 17 16" fill="none" xmlns="http://www.w3.org/2000/svg">
<mask id="mask0_1932_23774" style="mask-type:alpha" maskUnits="userSpaceOnUse" x="0" y="0" width="17" height="16">
<rect x="0.5" width="16" height="16" fill="#D9D9D9"/>
</mask>
<g mask="url(#mask0_1932_23774)">
<path d="M7.08902 1.66667C6.99457 1.66667 6.9154 1.63467 6.85152 1.57067C6.78763 1.50667 6.75568 1.42739 6.75568 1.33283C6.75568 1.23828 6.78763 1.15917 6.85152 1.0955C6.9154 1.03183 6.99457 1 7.08902 1H9.90968C10.0041 1 10.0833 1.032 10.1472 1.096C10.2111 1.16 10.243 1.23928 10.243 1.33383C10.243 1.42839 10.2111 1.5075 10.1472 1.57117C10.0833 1.63483 10.0041 1.66667 9.90968 1.66667H7.08902ZM8.49985 9.077C8.59441 9.077 8.67352 9.04506 8.73718 8.98117C8.80085 8.91728 8.83268 8.83811 8.83268 8.74367V5.923C8.83268 5.82856 8.80068 5.74939 8.73668 5.6855C8.67268 5.62161 8.5934 5.58967 8.49885 5.58967C8.40429 5.58967 8.32518 5.62161 8.26152 5.6855C8.19785 5.74939 8.16602 5.82856 8.16602 5.923V8.74367C8.16602 8.83811 8.19802 8.91728 8.26202 8.98117C8.32602 9.04506 8.40529 9.077 8.49985 9.077ZM8.49935 14C7.76657 14 7.0759 13.8609 6.42735 13.5827C5.77879 13.3044 5.21218 12.9231 4.72752 12.4385C4.24296 11.9538 3.86157 11.3872 3.58335 10.7387C3.30513 10.0901 3.16602 9.39944 3.16602 8.66667C3.16602 7.93389 3.30513 7.24322 3.58335 6.59467C3.86157 5.94611 4.24296 5.3795 4.72752 4.89483C5.21218 4.41028 5.77879 4.02889 6.42735 3.75067C7.0759 3.47244 7.76657 3.33333 8.49935 3.33333C9.14546 3.33333 9.77024 3.44872 10.3737 3.6795C10.9771 3.91028 11.531 4.23678 12.0352 4.659L12.5275 4.16667C12.59 4.10422 12.6665 4.07089 12.757 4.06667C12.8477 4.06244 12.9285 4.09578 12.9993 4.16667C13.0702 4.23756 13.1057 4.31617 13.1057 4.4025C13.1057 4.48883 13.0702 4.5675 12.9993 4.6385L12.507 5.13083C12.9292 5.63506 13.2557 6.18889 13.4865 6.79233C13.7173 7.39578 13.8327 8.02056 13.8327 8.66667C13.8327 9.39944 13.6936 10.0901 13.4153 10.7387C13.1371 11.3872 12.7557 11.9538 12.2712 12.4385C11.7865 12.9231 11.2199 13.3044 10.5713 13.5827C9.92279 13.8609 9.23213 14 8.49935 14ZM8.49935 13.3333C9.78824 13.3333 10.8882 12.8778 11.7993 11.9667C12.7105 11.0556 13.166 9.95556 13.166 8.66667C13.166 7.37778 12.7105 6.27778 11.7993 5.36667C10.8882 4.45556 9.78824 4 8.49935 4C7.21046 4 6.11046 4.45556 5.19935 5.36667C4.28824 6.27778 3.83268 7.37778 3.83268 8.66667C3.83268 9.95556 4.28824 11.0556 5.19935 11.9667C6.11046 12.8778 7.21046 13.3333 8.49935 13.3333Z" fill="#1D478E"/>
</g>
</svg>
