<svg width="24" height="25" viewBox="0 0 24 25" fill="none" xmlns="http://www.w3.org/2000/svg">
<mask id="mask0_2_37178" style="mask-type:alpha" maskUnits="userSpaceOnUse" x="0" y="0" width="24" height="25">
<rect y="0.738037" width="24" height="24" fill="#D9D9D9"/>
</mask>
<g mask="url(#mask0_2_37178)">
<path d="M9.1155 17.738C8.65517 17.738 8.27083 17.5839 7.9625 17.2755C7.65417 16.9672 7.5 16.5829 7.5 16.1225V5.35354C7.5 4.8932 7.65417 4.50887 7.9625 4.20054C8.27083 3.8922 8.65517 3.73804 9.1155 3.73804H16.8845C17.3448 3.73804 17.7292 3.8922 18.0375 4.20054C18.3458 4.50887 18.5 4.8932 18.5 5.35354V16.1225C18.5 16.5829 18.3458 16.9672 18.0375 17.2755C17.7292 17.5839 17.3448 17.738 16.8845 17.738H9.1155ZM9.1155 16.738H16.8845C17.0385 16.738 17.1796 16.674 17.3077 16.5458C17.4359 16.4176 17.5 16.2765 17.5 16.1225V5.35354C17.5 5.19954 17.4359 5.05845 17.3077 4.93029C17.1796 4.80212 17.0385 4.73804 16.8845 4.73804H9.1155C8.9615 4.73804 8.82042 4.80212 8.69225 4.93029C8.56408 5.05845 8.5 5.19954 8.5 5.35354V16.1225C8.5 16.2765 8.56408 16.4176 8.69225 16.5458C8.82042 16.674 8.9615 16.738 9.1155 16.738ZM6.1155 20.738C5.65517 20.738 5.27083 20.5839 4.9625 20.2755C4.65417 19.9672 4.5 19.583 4.5 19.1228V7.85354C4.5 7.7112 4.54775 7.59229 4.64325 7.49679C4.73875 7.40129 4.85767 7.35354 5 7.35354C5.14233 7.35354 5.26125 7.40129 5.35675 7.49679C5.45225 7.59229 5.5 7.7112 5.5 7.85354V19.1228C5.5 19.2766 5.56408 19.4176 5.69225 19.5458C5.82042 19.674 5.9615 19.738 6.1155 19.738H14.3845C14.5268 19.738 14.6458 19.7858 14.7413 19.8813C14.8368 19.9768 14.8845 20.0957 14.8845 20.238C14.8845 20.3804 14.8368 20.4993 14.7413 20.5948C14.6458 20.6903 14.5268 20.738 14.3845 20.738H6.1155Z" fill="#1D478E"/>
</g>
</svg>
