<svg width="16" height="16" viewBox="0 0 16 16" fill="none" xmlns="http://www.w3.org/2000/svg">
<mask id="mask0_507_347" style="mask-type:alpha" maskUnits="userSpaceOnUse" x="0" y="0" width="16" height="16">
<rect width="16" height="16" fill="#D9D9D9"/>
</mask>
<g mask="url(#mask0_507_347)">
<path d="M6.00016 11.6667H10.0002C10.0951 11.6667 10.1743 11.6348 10.238 11.5712C10.3017 11.5075 10.3335 11.4282 10.3335 11.3333C10.3335 11.2384 10.3017 11.1592 10.238 11.0955C10.1743 11.0318 10.0951 11 10.0002 11H6.00016C5.90527 11 5.826 11.0318 5.76233 11.0955C5.69866 11.1592 5.66683 11.2384 5.66683 11.3333C5.66683 11.4282 5.69866 11.5075 5.76233 11.5712C5.826 11.6348 5.90527 11.6667 6.00016 11.6667ZM6.00016 9H10.0002C10.0951 9 10.1743 8.96817 10.238 8.9045C10.3017 8.84083 10.3335 8.76156 10.3335 8.66667C10.3335 8.57178 10.3017 8.4925 10.238 8.42883C10.1743 8.36517 10.0951 8.33333 10.0002 8.33333H6.00016C5.90527 8.33333 5.826 8.36517 5.76233 8.42883C5.69866 8.4925 5.66683 8.57178 5.66683 8.66667C5.66683 8.76156 5.69866 8.84083 5.76233 8.9045C5.826 8.96817 5.90527 9 6.00016 9ZM4.4105 14C4.10361 14 3.84738 13.8972 3.64183 13.6917C3.43627 13.4861 3.3335 13.2299 3.3335 12.923V3.077C3.3335 2.77011 3.43627 2.51389 3.64183 2.30833C3.84738 2.10278 4.10361 2 4.4105 2H9.21933C9.363 2 9.50255 2.02906 9.638 2.08717C9.77344 2.14528 9.88944 2.22261 9.986 2.31917L12.3477 4.68083C12.4442 4.77739 12.5216 4.89339 12.5797 5.02883C12.6378 5.16428 12.6668 5.30383 12.6668 5.4475V12.923C12.6668 13.2299 12.5641 13.4861 12.3585 13.6917C12.1529 13.8972 11.8967 14 11.5898 14H4.4105ZM9.3335 4.79483V2.66667H4.4105C4.30783 2.66667 4.21377 2.70939 4.12833 2.79483C4.04289 2.88028 4.00016 2.97433 4.00016 3.077V12.923C4.00016 13.0257 4.04289 13.1197 4.12833 13.2052C4.21377 13.2906 4.30783 13.3333 4.4105 13.3333H11.5898C11.6925 13.3333 11.7866 13.2906 11.872 13.2052C11.9574 13.1197 12.0002 13.0257 12.0002 12.923V5.33333H9.872C9.71722 5.33333 9.58877 5.28228 9.48666 5.18017C9.38455 5.07806 9.3335 4.94961 9.3335 4.79483Z" fill="#1D478E"/>
</g>
</svg>
