<svg width="16" height="16" viewBox="0 0 16 16" fill="none" xmlns="http://www.w3.org/2000/svg">
<mask id="mask0_507_159" style="mask-type:alpha" maskUnits="userSpaceOnUse" x="0" y="0" width="16" height="16">
<rect width="16" height="16" fill="#D9D9D9"/>
</mask>
<g mask="url(#mask0_507_159)">
<path d="M8.00016 10.1653C7.92838 10.1653 7.86216 10.1536 7.8015 10.1302C7.74083 10.1066 7.68139 10.0658 7.62316 10.0077L5.87716 8.26149C5.81216 8.19661 5.77816 8.12011 5.77516 8.03199C5.77216 7.94399 5.80616 7.86322 5.87716 7.78966C5.95061 7.71622 6.02983 7.67883 6.11483 7.67749C6.19994 7.67627 6.27922 7.71238 6.35266 7.78583L7.66683 9.1V3.66666C7.66683 3.57177 7.69866 3.49249 7.76233 3.42883C7.826 3.36516 7.90527 3.33333 8.00016 3.33333C8.09505 3.33333 8.17433 3.36516 8.238 3.42883C8.30166 3.49249 8.3335 3.57177 8.3335 3.66666V9.1L9.64766 7.78583C9.71255 7.72094 9.78966 7.687 9.879 7.68399C9.96833 7.68099 10.0497 7.71622 10.1232 7.78966C10.1942 7.86322 10.2303 7.94188 10.2315 8.02566C10.2328 8.10944 10.1967 8.18805 10.1232 8.26149L8.37716 10.0077C8.31894 10.0658 8.2595 10.1066 8.19883 10.1302C8.13816 10.1536 8.07194 10.1653 8.00016 10.1653ZM4.4105 12.6667C4.10361 12.6667 3.84738 12.5639 3.64183 12.3583C3.43627 12.1528 3.3335 11.8966 3.3335 11.5897V10.3077C3.3335 10.2128 3.36533 10.1335 3.429 10.0698C3.49266 10.0062 3.57194 9.97433 3.66683 9.97433C3.76172 9.97433 3.841 10.0062 3.90466 10.0698C3.96833 10.1335 4.00016 10.2128 4.00016 10.3077V11.5897C4.00016 11.6923 4.04289 11.7864 4.12833 11.8718C4.21377 11.9573 4.30783 12 4.4105 12H11.5898C11.6925 12 11.7866 11.9573 11.872 11.8718C11.9574 11.7864 12.0002 11.6923 12.0002 11.5897V10.3077C12.0002 10.2128 12.032 10.1335 12.0957 10.0698C12.1593 10.0062 12.2386 9.97433 12.3335 9.97433C12.4284 9.97433 12.5077 10.0062 12.5713 10.0698C12.635 10.1335 12.6668 10.2128 12.6668 10.3077V11.5897C12.6668 11.8966 12.5641 12.1528 12.3585 12.3583C12.1529 12.5639 11.8967 12.6667 11.5898 12.6667H4.4105Z" fill="#1D478E"/>
</g>
</svg>
