<svg width="16" height="16" viewBox="0 0 16 16" fill="none" xmlns="http://www.w3.org/2000/svg">
<mask id="mask0_8124_471" style="mask-type:alpha" maskUnits="userSpaceOnUse" x="0" y="0" width="16" height="16">
<rect width="16" height="16" fill="#D9D9D9"/>
</mask>
<g mask="url(#mask0_8124_471)">
<path d="M8 10.9743C8.11622 10.9743 8.21367 10.935 8.29233 10.8563C8.371 10.7778 8.41033 10.6804 8.41033 10.5642C8.41033 10.4478 8.371 10.3504 8.29233 10.2718C8.21367 10.1932 8.11622 10.1538 8 10.1538C7.88378 10.1538 7.78633 10.1932 7.70767 10.2718C7.629 10.3504 7.58967 10.4478 7.58967 10.5642C7.58967 10.6804 7.629 10.7778 7.70767 10.8563C7.78633 10.935 7.88378 10.9743 8 10.9743ZM8.0005 8.76917C8.09506 8.76917 8.17417 8.73722 8.23783 8.67333C8.3015 8.60944 8.33333 8.53028 8.33333 8.43583V5.1025C8.33333 5.00806 8.30133 4.92889 8.23733 4.865C8.17333 4.80111 8.09406 4.76917 7.9995 4.76917C7.90494 4.76917 7.82583 4.80111 7.76217 4.865C7.6985 4.92889 7.66667 5.00806 7.66667 5.1025V8.43583C7.66667 8.53028 7.69867 8.60944 7.76267 8.67333C7.82667 8.73722 7.90594 8.76917 8.0005 8.76917ZM8.00217 14C7.1725 14 6.39244 13.8426 5.662 13.5277C4.93167 13.2128 4.29633 12.7854 3.756 12.2457C3.21567 11.7059 2.78794 11.0711 2.47283 10.3413C2.15761 9.61167 2 8.83194 2 8.00217C2 7.1725 2.15744 6.39244 2.47233 5.662C2.78722 4.93167 3.21456 4.29633 3.75433 3.756C4.29411 3.21567 4.92889 2.78794 5.65867 2.47283C6.38833 2.15761 7.16806 2 7.99783 2C8.8275 2 9.60756 2.15744 10.338 2.47233C11.0683 2.78722 11.7037 3.21456 12.244 3.75433C12.7843 4.29411 13.2121 4.92889 13.5272 5.65867C13.8424 6.38833 14 7.16806 14 7.99783C14 8.8275 13.8426 9.60756 13.5277 10.338C13.2128 11.0683 12.7854 11.7037 12.2457 12.244C11.7059 12.7843 11.0711 13.2121 10.3413 13.5272C9.61167 13.8424 8.83194 14 8.00217 14Z" fill="#FF5267"/>
</g>
</svg>
