<svg width="24" height="25" viewBox="0 0 24 25" fill="none" xmlns="http://www.w3.org/2000/svg">
<mask id="mask0_62_263" style="mask-type:alpha" maskUnits="userSpaceOnUse" x="0" y="0" width="24" height="25">
<rect y="0.522247" width="24" height="24" fill="#D9D9D9"/>
</mask>
<g mask="url(#mask0_62_263)">
<path d="M5.1155 20.5222C4.65517 20.5222 4.27083 20.3681 3.9625 20.0597C3.65417 19.7514 3.5 19.3671 3.5 18.9067V4.02225C3.5 3.88058 3.548 3.76183 3.644 3.666C3.74 3.57016 3.85892 3.52225 4.00075 3.52225C4.14258 3.52225 4.26125 3.57016 4.35675 3.666C4.45225 3.76183 4.5 3.88058 4.5 4.02225V18.9067C4.5 19.0607 4.56408 19.2018 4.69225 19.33C4.82042 19.4582 4.9615 19.5222 5.1155 19.5222H20C20.1417 19.5222 20.2604 19.5702 20.3563 19.6662C20.4521 19.7622 20.5 19.8812 20.5 20.023C20.5 20.1648 20.4521 20.2835 20.3563 20.379C20.2604 20.4745 20.1417 20.5222 20 20.5222H5.1155ZM8.1155 17.0222C7.90833 17.0222 7.73475 16.9522 7.59475 16.8122C7.45458 16.6721 7.3845 16.4985 7.3845 16.2915V10.4452C7.3845 10.2382 7.45458 10.0647 7.59475 9.92475C7.73475 9.78458 7.90833 9.7145 8.1155 9.7145H8.577C8.80583 9.7145 8.99767 9.79241 9.1525 9.94825C9.30717 10.1041 9.3845 10.2972 9.3845 10.5275V16.2172C9.3845 16.4476 9.30717 16.6393 9.1525 16.7925C8.99767 16.9457 8.80583 17.0222 8.577 17.0222H8.1155ZM12.6155 17.0222C12.4083 17.0222 12.2348 16.9522 12.0948 16.8122C11.9546 16.6721 11.8845 16.4985 11.8845 16.2915V5.52225C11.8845 5.29341 11.9619 5.10158 12.1168 4.94675C12.2716 4.79191 12.4634 4.7145 12.6923 4.7145H13.1538C13.3609 4.7145 13.5345 4.78458 13.6745 4.92475C13.8145 5.06475 13.8845 5.23825 13.8845 5.44525V16.2145C13.8845 16.4433 13.8072 16.6352 13.6525 16.79C13.4977 16.9448 13.3058 17.0222 13.077 17.0222H12.6155ZM17.1155 17.0222C16.9083 17.0222 16.7347 16.9522 16.5947 16.8122C16.4546 16.6721 16.3845 16.4985 16.3845 16.2915V14.5222C16.3845 14.2934 16.4619 14.1016 16.6167 13.9467C16.7716 13.7919 16.9634 13.7145 17.1923 13.7145H17.6538C17.8609 13.7145 18.0345 13.7846 18.1745 13.9247C18.3147 14.0647 18.3848 14.2382 18.3848 14.4452V16.2145C18.3848 16.4433 18.3073 16.6352 18.1525 16.79C17.9977 16.9448 17.8058 17.0222 17.577 17.0222H17.1155Z" fill="#1D478E"/>
</g>
</svg>
