<svg width="24" height="24" viewBox="0 0 24 24" fill="none" xmlns="http://www.w3.org/2000/svg">
<mask id="mask0_35_18962" style="mask-type:alpha" maskUnits="userSpaceOnUse" x="0" y="0" width="24" height="24">
<rect width="24" height="24" fill="#D9D9D9"/>
</mask>
<g mask="url(#mask0_35_18962)">
<path d="M12.028 17.2308C12.249 17.2308 12.4355 17.1544 12.5875 17.0017C12.7395 16.8491 12.8155 16.6623 12.8155 16.4413C12.8155 16.2201 12.7392 16.0336 12.5865 15.8818C12.4338 15.7298 12.2469 15.6538 12.0258 15.6538C11.8048 15.6538 11.6183 15.7301 11.4663 15.8828C11.3144 16.0354 11.2385 16.2223 11.2385 16.4435C11.2385 16.6645 11.3148 16.851 11.4675 17.003C11.6202 17.1548 11.807 17.2308 12.028 17.2308ZM12.0033 21C10.7587 21 9.58867 20.7638 8.493 20.2915C7.3975 19.8192 6.4445 19.1782 5.634 18.3685C4.8235 17.5588 4.18192 16.6067 3.70925 15.512C3.23642 14.4175 3 13.2479 3 12.0033C3 10.7587 3.23617 9.58867 3.7085 8.493C4.18083 7.3975 4.82183 6.4445 5.6315 5.634C6.44117 4.8235 7.39333 4.18192 8.488 3.70925C9.5825 3.23642 10.7521 3 11.9967 3C13.2413 3 14.4113 3.23617 15.507 3.7085C16.6025 4.18083 17.5555 4.82183 18.366 5.6315C19.1765 6.44117 19.8181 7.39333 20.2908 8.488C20.7636 9.5825 21 10.7521 21 11.9967C21 13.2413 20.7638 14.4113 20.2915 15.507C19.8192 16.6025 19.1782 17.5555 18.3685 18.366C17.5588 19.1765 16.6067 19.8181 15.512 20.2908C14.4175 20.7636 13.2479 21 12.0033 21ZM12 20C14.2333 20 16.125 19.225 17.675 17.675C19.225 16.125 20 14.2333 20 12C20 9.76667 19.225 7.875 17.675 6.325C16.125 4.775 14.2333 4 12 4C9.76667 4 7.875 4.775 6.325 6.325C4.775 7.875 4 9.76667 4 12C4 14.2333 4.775 16.125 6.325 17.675C7.875 19.225 9.76667 20 12 20ZM12.062 7.7385C12.5682 7.7385 13.0042 7.89567 13.3702 8.21C13.7362 8.52417 13.9193 8.917 13.9193 9.3885C13.9193 9.75517 13.8163 10.0866 13.6105 10.3828C13.4048 10.6789 13.1667 10.952 12.8962 11.202C12.5536 11.5127 12.2518 11.8544 11.991 12.2273C11.7303 12.6001 11.5808 13.0108 11.5423 13.4595C11.5294 13.5903 11.5702 13.6997 11.6645 13.7875C11.7587 13.8753 11.8686 13.9192 11.9943 13.9192C12.1289 13.9192 12.2421 13.8743 12.3338 13.7845C12.4254 13.6948 12.4834 13.5891 12.5078 13.4672C12.5744 13.1301 12.7083 12.8304 12.9095 12.5683C13.1108 12.3061 13.3317 12.0578 13.572 11.8235C13.9177 11.4797 14.2247 11.1049 14.4932 10.6992C14.7619 10.2937 14.8962 9.84142 14.8962 9.34225C14.8962 8.60775 14.6177 8.00167 14.0605 7.524C13.5035 7.0465 12.85 6.80775 12.1 6.80775C11.5437 6.80775 11.026 6.93783 10.547 7.198C10.0682 7.45833 9.68517 7.81858 9.398 8.27875C9.33267 8.38908 9.31175 8.50317 9.33525 8.621C9.35875 8.73883 9.42225 8.82833 9.52575 8.8895C9.65725 8.95933 9.79033 8.97567 9.925 8.9385C10.0597 8.90133 10.1783 8.82375 10.2808 8.70575C10.5026 8.43008 10.7638 8.2 11.0645 8.0155C11.3652 7.83083 11.6977 7.7385 12.062 7.7385Z" fill="#1D478E"/>
</g>
</svg>
