<svg width="56" height="56" viewBox="0 0 56 56" fill="none" xmlns="http://www.w3.org/2000/svg">
<mask id="mask0_500_4244" style="mask-type:alpha" maskUnits="userSpaceOnUse" x="0" y="0" width="56" height="56">
<rect width="56" height="56" fill="#D9D9D9"/>
</mask>
<g mask="url(#mask0_500_4244)">
<path d="M28.0018 38.5C28.3327 38.5 28.6096 38.3882 28.8324 38.1646C29.0552 37.941 29.1667 37.6639 29.1667 37.3333V26.8333C29.1667 26.5028 29.0547 26.2257 28.8307 26.0021C28.6067 25.7785 28.3292 25.6667 27.9983 25.6667C27.6673 25.6667 27.3904 25.7785 27.1676 26.0021C26.9447 26.2257 26.8333 26.5028 26.8333 26.8333V37.3333C26.8333 37.6639 26.9453 37.941 27.1693 38.1646C27.3933 38.3882 27.6708 38.5 28.0018 38.5ZM28 22.3463C28.4068 22.3463 28.7478 22.2087 29.0232 21.9333C29.2985 21.658 29.4362 21.3169 29.4362 20.9102C29.4362 20.5034 29.2985 20.1623 29.0232 19.887C28.7478 19.6121 28.4068 19.4746 28 19.4746C27.5932 19.4746 27.2522 19.6121 26.9768 19.887C26.7015 20.1623 26.5638 20.5034 26.5638 20.9102C26.5638 21.3169 26.7015 21.658 26.9768 21.9333C27.2522 22.2087 27.5932 22.3463 28 22.3463ZM28.0076 49C25.1038 49 22.3736 48.4489 19.817 47.3468C17.2608 46.2447 15.0372 44.7491 13.146 42.8598C11.2548 40.9706 9.75781 38.7489 8.65492 36.1947C7.55164 33.6408 7 30.9118 7 28.0076C7 25.1038 7.55106 22.3736 8.65317 19.817C9.75528 17.2608 11.2509 15.0372 13.1402 13.146C15.0294 11.2548 17.2511 9.75781 19.8053 8.65492C22.3592 7.55164 25.0882 7 27.9924 7C30.8962 7 33.6264 7.55106 36.183 8.65317C38.7392 9.75528 40.9628 11.2509 42.854 13.1402C44.7452 15.0294 46.2422 17.2511 47.3451 19.8053C48.4484 22.3592 49 25.0882 49 27.9924C49 30.8962 48.4489 33.6264 47.3468 36.183C46.2447 38.7392 44.7491 40.9628 42.8598 42.854C40.9706 44.7452 38.7489 46.2422 36.1947 47.3451C33.6408 48.4484 30.9118 49 28.0076 49ZM28 46.6667C33.2111 46.6667 37.625 44.8583 41.2417 41.2417C44.8583 37.625 46.6667 33.2111 46.6667 28C46.6667 22.7889 44.8583 18.375 41.2417 14.7583C37.625 11.1417 33.2111 9.33333 28 9.33333C22.7889 9.33333 18.375 11.1417 14.7583 14.7583C11.1417 18.375 9.33333 22.7889 9.33333 28C9.33333 33.2111 11.1417 37.625 14.7583 41.2417C18.375 44.8583 22.7889 46.6667 28 46.6667Z" fill="#1D478E"/>
</g>
</svg>
