<svg width="25" height="24" viewBox="0 0 25 24" fill="none" xmlns="http://www.w3.org/2000/svg">
<mask id="mask0_26_6161" style="mask-type:alpha" maskUnits="userSpaceOnUse" x="0" y="0" width="25" height="24">
<rect x="0.5" width="24" height="24" fill="#D9D9D9"/>
</mask>
<g mask="url(#mask0_26_6161)">
<path d="M18.2204 11.5194C17.5783 10.5167 16.8403 9.74574 16.0678 9.24844C16.3872 8.99867 16.593 8.61035 16.593 8.17465C16.593 7.66859 16.3154 7.22641 15.9046 6.99117L17.0711 4.22005C17.1433 4.04859 17.1166 3.85146 17.0015 3.70536C15.6214 1.95407 14.9054 2.42886 13.9204 2.81043C13.4627 2.98773 13.0303 3.15523 12.5932 3.11769L12.5531 3.11425L12.513 3.11769C12.0745 3.15535 11.6602 2.98656 11.2213 2.80789C10.2894 2.42855 9.39325 1.95641 8.01501 3.70539C7.9042 3.846 7.87842 4.03567 7.94769 4.20075L9.11454 6.98145C8.69442 7.21414 8.40927 7.66168 8.40927 8.17465C8.40927 8.61035 8.61513 8.99867 8.93446 9.24844C8.16212 9.7457 7.42419 10.5166 6.78231 11.5191C5.69763 13.2131 5.05005 15.2948 5.05005 17.0875C5.05005 18.3484 5.37603 19.4139 5.99271 20.1688C6.71177 21.0491 7.77763 21.4954 9.16071 21.4954H15.8427C17.2256 21.4954 18.2914 21.0491 19.0104 20.1691C19.627 19.4142 19.953 18.3488 19.953 17.0881C19.9529 15.2954 19.3052 13.2136 18.2204 11.5194ZM10.8678 3.67617C11.3557 3.87476 11.9073 4.09941 12.5531 4.0548C13.1905 4.09863 13.7575 3.8789 14.2591 3.68457C15.0739 3.3689 15.2102 3.14596 15.9035 3.87242C16.0095 3.98341 16.037 4.14759 15.9787 4.2895L14.9427 6.81125H10.0709L9.02979 4.29558C8.97144 4.15459 8.99762 3.99103 9.10355 3.8812C9.80703 3.15186 10.0901 3.35955 10.8678 3.67617ZM9.7738 8.60059C9.53829 8.60059 9.34669 8.40953 9.34669 8.17465C9.34669 7.94379 9.54228 7.74871 9.7738 7.74871H15.2284C15.4599 7.74871 15.6555 7.94379 15.6555 8.17465C15.6555 8.40953 15.464 8.60059 15.2284 8.60059H14.061H10.9412H9.7738ZM18.2843 19.5759C17.752 20.2275 16.9306 20.5579 15.8427 20.5579H9.16071C6.53806 20.5579 5.98755 18.6706 5.98755 17.0874C5.98755 15.4907 6.59462 13.5508 7.57181 12.0246C8.58364 10.4443 9.81173 9.53805 10.9413 9.53805H14.061C16.566 9.53805 19.0155 13.8613 19.0155 17.0881C19.0155 18.1302 18.7626 18.9905 18.2843 19.5759Z" fill="#1D478E"/>
<path d="M13.0056 14.9911C13.095 14.8373 13.1529 14.6706 13.1796 14.4912H13.5251C13.641 14.4912 13.7435 14.4158 13.7779 14.3051C13.831 14.1346 13.7036 13.9615 13.5251 13.9615H13.1726C13.1426 13.7876 13.0844 13.6272 12.9977 13.4808C12.9569 13.4103 12.9098 13.3446 12.8565 13.2837L13.5436 13.2868C13.6603 13.2873 13.7635 13.2113 13.7977 13.0998C13.8498 12.9298 13.7226 12.7578 13.5448 12.7578L11.3011 12.7578C11.3 12.7578 11.2989 12.7578 11.2979 12.7579H10.7862C10.6732 12.7579 10.5733 12.8311 10.5394 12.9389C10.4868 13.1056 10.6114 13.2755 10.7862 13.2755H11.2754C11.2835 13.2762 11.2916 13.2766 11.2999 13.2767L11.5621 13.2779C11.8869 13.2932 12.1342 13.3819 12.3093 13.5385L12.3093 13.5385L12.3096 13.5388C12.4376 13.6513 12.5243 13.7916 12.5689 13.9615H10.792C10.6756 13.9615 10.5728 14.0375 10.5387 14.1488C10.4866 14.319 10.6139 14.4912 10.792 14.4912H12.5799C12.5571 14.5964 12.5179 14.689 12.4632 14.7695L12.4632 14.7695L12.4629 14.7699C12.3716 14.907 12.2386 15.0117 12.0612 15.0831C11.883 15.1535 11.6654 15.1897 11.407 15.1897H10.7679C10.613 15.1897 10.4881 15.3166 10.4907 15.4715C10.4918 15.5375 10.5164 15.6008 10.56 15.6503L12.3856 17.7199C12.4633 17.808 12.58 17.8514 12.6964 17.8355L12.7161 17.8328C12.9184 17.8248 13.0215 17.5852 12.8871 17.4328L11.4056 15.7533C11.3872 15.7324 11.402 15.6997 11.4298 15.6997C11.8273 15.6997 12.1581 15.638 12.4199 15.5115L12.42 15.5115C12.682 15.3841 12.8782 15.211 13.0056 14.9911Z" fill="#1D478E" stroke="#1D478E" stroke-width="0.1"/>
</g>
</svg>
