<svg width="24" height="24" viewBox="0 0 24 24" fill="none" xmlns="http://www.w3.org/2000/svg">
<mask id="mask0_2004_884" style="mask-type:alpha" maskUnits="userSpaceOnUse" x="0" y="0" width="24" height="24">
<rect width="24" height="24" fill="#D9D9D9"/>
</mask>
<g mask="url(#mask0_2004_884)">
<path d="M12.0017 21.5C10.6877 21.5 9.45267 21.2507 8.2965 20.752C7.14033 20.2533 6.13467 19.5766 5.2795 18.7218C4.42433 17.8669 3.74725 16.8617 3.24825 15.706C2.74942 14.5503 2.5 13.3156 2.5 12.0017C2.5 10.6877 2.74933 9.45267 3.248 8.2965C3.74667 7.14033 4.42342 6.13467 5.27825 5.2795C6.13308 4.42433 7.13833 3.74725 8.294 3.24825C9.44967 2.74942 10.6844 2.5 11.9983 2.5C13.3123 2.5 14.5473 2.74933 15.7035 3.248C16.8597 3.74667 17.8653 4.42342 18.7205 5.27825C19.5757 6.13308 20.2528 7.13833 20.7518 8.294C21.2506 9.44967 21.5 10.6844 21.5 11.9983C21.5 13.3123 21.2507 14.5473 20.752 15.7035C20.2533 16.8597 19.5766 17.8653 18.7218 18.7205C17.8669 19.5757 16.8617 20.2528 15.706 20.7518C14.5503 21.2506 13.3156 21.5 12.0017 21.5ZM12 20C14.2333 20 16.125 19.225 17.675 17.675C19.225 16.125 20 14.2333 20 12C20 9.76667 19.225 7.875 17.675 6.325C16.125 4.775 14.2333 4 12 4C9.76667 4 7.875 4.775 6.325 6.325C4.775 7.875 4 9.76667 4 12C4 14.2333 4.775 16.125 6.325 17.675C7.875 19.225 9.76667 20 12 20Z" fill="#161742"/>
<path d="M11.695 14.8711C11.6929 14.8711 11.6909 14.8711 11.6888 14.8711C11.3066 14.8677 10.9991 14.5549 11.0026 14.1721L11.0057 13.8257C11.0057 13.8059 11.0067 13.7858 11.0088 13.7661C11.1047 12.7584 11.7733 12.1407 12.3109 11.6443C12.493 11.4759 12.6655 11.3169 12.8122 11.151C12.9912 10.949 13.2509 10.5354 12.9777 10.0362C12.663 9.45981 11.8944 9.29664 11.2972 9.43348C10.6733 9.5762 10.4435 10.1093 10.3618 10.4142C10.2627 10.7838 9.88294 11.0031 9.51353 10.9043C9.14413 10.8053 8.92497 10.4253 9.02364 10.0556C9.29957 9.02436 10.0155 8.30555 10.9877 8.08281C12.296 7.78386 13.6137 8.31283 14.1923 9.37112C14.6738 10.2524 14.5419 11.2864 13.8478 12.07C13.6549 12.2876 13.4489 12.4781 13.2495 12.6621C12.7527 13.1211 12.4421 13.428 12.3895 13.871L12.3868 14.1838C12.384 14.5652 12.0745 14.8711 11.695 14.8711Z" fill="#161742"/>
<path d="M11.6963 16.9497C11.5163 16.9497 11.3363 16.877 11.2082 16.7488C11.0766 16.6206 11.0039 16.4405 11.0039 16.2569C11.0039 16.0767 11.0766 15.8966 11.2082 15.7684C11.4644 15.5121 11.9283 15.5121 12.1845 15.7684C12.3161 15.8966 12.3888 16.0767 12.3888 16.2569C12.3888 16.4405 12.3161 16.6171 12.188 16.7488C12.0564 16.877 11.8798 16.9497 11.6963 16.9497Z" fill="#161742"/>
</g>
</svg>
