<svg width="100" height="100" viewBox="0 0 100 100" fill="none" xmlns="http://www.w3.org/2000/svg">
<circle opacity="0.1" cx="50" cy="50" r="50" fill="#32B353"/>
<circle cx="50" cy="50" r="28" fill="#32B353"/>
<path d="M47.3375 58.6319C46.8229 58.6319 46.3313 58.4427 45.9684 58.1032L38.8834 51.4717C38.1403 50.775 38.1499 49.6574 38.9065 48.9712C39.663 48.2887 40.8784 48.2957 41.6214 48.9925L47.2818 54.2905L58.9923 42.4123C59.7085 41.6891 60.922 41.6378 61.7034 42.2921C62.4887 42.9482 62.5463 44.0658 61.834 44.7908L48.7583 58.0536C48.4032 58.4143 47.9039 58.623 47.3759 58.6336C47.3625 58.6319 47.3509 58.6319 47.3375 58.6319Z" fill="white"/>
</svg>
