<svg width="24" height="24" viewBox="0 0 24 24" fill="none" xmlns="http://www.w3.org/2000/svg">
<circle cx="12" cy="12" r="12" fill="#5BC4F0" fill-opacity="0.2"/>
<mask id="mask0_137_28095" style="mask-type:alpha" maskUnits="userSpaceOnUse" x="4" y="3" width="16" height="17">
<rect x="4" y="3.5" width="16" height="16" fill="#D9D9D9"/>
</mask>
<g mask="url(#mask0_137_28095)">
<path d="M7.4105 16.8333C7.10361 16.8333 6.84738 16.7306 6.64183 16.525C6.43627 16.3194 6.3335 16.0632 6.3335 15.7563V5.83333C6.3335 5.73889 6.3655 5.65972 6.4295 5.59583C6.4935 5.53194 6.57277 5.5 6.66733 5.5C6.76188 5.5 6.841 5.53194 6.90466 5.59583C6.96833 5.65972 7.00016 5.73889 7.00016 5.83333V15.7563C7.00016 15.859 7.04289 15.9531 7.12833 16.0385C7.21377 16.1239 7.30783 16.1667 7.4105 16.1667H17.3335C17.4279 16.1667 17.5071 16.1987 17.571 16.2627C17.6349 16.3267 17.6668 16.4059 17.6668 16.5005C17.6668 16.5951 17.6349 16.6742 17.571 16.7378C17.5071 16.8015 17.4279 16.8333 17.3335 16.8333H7.4105ZM9.4105 14.5C9.27238 14.5 9.15666 14.4533 9.06333 14.36C8.96989 14.2666 8.92316 14.1508 8.92316 14.0128V10.1153C8.92316 9.97733 8.96989 9.86167 9.06333 9.76833C9.15666 9.67489 9.27238 9.62817 9.4105 9.62817H9.71816C9.87072 9.62817 9.99861 9.68011 10.1018 9.784C10.2049 9.88789 10.2565 10.0166 10.2565 10.1702V13.9633C10.2565 14.1169 10.2049 14.2447 10.1018 14.3468C9.99861 14.4489 9.87072 14.5 9.71816 14.5H9.4105ZM12.4105 14.5C12.2724 14.5 12.1567 14.4533 12.0633 14.36C11.9699 14.2666 11.9232 14.1508 11.9232 14.0128V6.83333C11.9232 6.68078 11.9748 6.55289 12.078 6.44967C12.1812 6.34644 12.3091 6.29483 12.4617 6.29483H12.7693C12.9074 6.29483 13.0232 6.34156 13.1165 6.435C13.2098 6.52833 13.2565 6.644 13.2565 6.782V13.9615C13.2565 14.1141 13.2049 14.2419 13.1018 14.3452C12.9986 14.4484 12.8707 14.5 12.7182 14.5H12.4105ZM15.4105 14.5C15.2724 14.5 15.1567 14.4533 15.0633 14.36C14.9699 14.2666 14.9232 14.1508 14.9232 14.0128V12.8333C14.9232 12.6808 14.9748 12.5529 15.078 12.4497C15.1812 12.3464 15.3091 12.2948 15.4617 12.2948H15.7693C15.9074 12.2948 16.0232 12.3416 16.1165 12.435C16.2099 12.5283 16.2567 12.644 16.2567 12.782V13.9615C16.2567 14.1141 16.2051 14.2419 16.1018 14.3452C15.9986 14.4484 15.8707 14.5 15.7182 14.5H15.4105Z" fill="#1D478E"/>
</g>
</svg>
