<svg width="24" height="24" viewBox="0 0 24 24" fill="none" xmlns="http://www.w3.org/2000/svg">
<circle cx="12" cy="12" r="12" fill="#5BC4F0" fill-opacity="0.2"/>
<mask id="mask0_137_28112" style="mask-type:alpha" maskUnits="userSpaceOnUse" x="4" y="3" width="16" height="17">
<rect x="4" y="3.5" width="16" height="16" fill="#D9D9D9"/>
</mask>
<g mask="url(#mask0_137_28112)">
<path d="M10.5895 5.16667C10.4951 5.16667 10.4159 5.13467 10.352 5.07067C10.2881 5.00667 10.2562 4.92739 10.2562 4.83283C10.2562 4.73828 10.2881 4.65917 10.352 4.5955C10.4159 4.53183 10.4951 4.5 10.5895 4.5H13.4102C13.5046 4.5 13.5838 4.532 13.6477 4.596C13.7116 4.66 13.7435 4.73928 13.7435 4.83383C13.7435 4.92839 13.7116 5.0075 13.6477 5.07117C13.5838 5.13483 13.5046 5.16667 13.4102 5.16667H10.5895ZM12.0003 12.577C12.0949 12.577 12.174 12.5451 12.2377 12.4812C12.3013 12.4173 12.3332 12.3381 12.3332 12.2437V9.423C12.3332 9.32856 12.3012 9.24939 12.2372 9.1855C12.1732 9.12161 12.0939 9.08967 11.9993 9.08967C11.9048 9.08967 11.8257 9.12161 11.762 9.1855C11.6983 9.24939 11.6665 9.32856 11.6665 9.423V12.2437C11.6665 12.3381 11.6985 12.4173 11.7625 12.4812C11.8265 12.5451 11.9058 12.577 12.0003 12.577ZM11.9998 17.5C11.2671 17.5 10.5764 17.3609 9.92784 17.0827C9.27928 16.8044 8.71267 16.4231 8.228 15.9385C7.74345 15.4538 7.36206 14.8872 7.08384 14.2387C6.80561 13.5901 6.6665 12.8994 6.6665 12.1667C6.6665 11.4339 6.80561 10.7432 7.08384 10.0947C7.36206 9.44611 7.74345 8.8795 8.228 8.39483C8.71267 7.91028 9.27928 7.52889 9.92784 7.25067C10.5764 6.97244 11.2671 6.83333 11.9998 6.83333C12.6459 6.83333 13.2707 6.94872 13.8742 7.1795C14.4776 7.41028 15.0314 7.73678 15.5357 8.159L16.028 7.66667C16.0904 7.60422 16.1669 7.57089 16.2575 7.56667C16.3482 7.56244 16.4289 7.59578 16.4998 7.66667C16.5707 7.73756 16.6062 7.81617 16.6062 7.9025C16.6062 7.98883 16.5707 8.0675 16.4998 8.1385L16.0075 8.63083C16.4297 9.13506 16.7562 9.68889 16.987 10.2923C17.2178 10.8958 17.3332 11.5206 17.3332 12.1667C17.3332 12.8994 17.1941 13.5901 16.9158 14.2387C16.6376 14.8872 16.2562 15.4538 15.7717 15.9385C15.287 16.4231 14.7204 16.8044 14.0718 17.0827C13.4233 17.3609 12.7326 17.5 11.9998 17.5ZM11.9998 16.8333C13.2887 16.8333 14.3887 16.3778 15.2998 15.4667C16.2109 14.5556 16.6665 13.4556 16.6665 12.1667C16.6665 10.8778 16.2109 9.77778 15.2998 8.86667C14.3887 7.95556 13.2887 7.5 11.9998 7.5C10.7109 7.5 9.61095 7.95556 8.69984 8.86667C7.78873 9.77778 7.33317 10.8778 7.33317 12.1667C7.33317 13.4556 7.78873 14.5556 8.69984 15.4667C9.61095 16.3778 10.7109 16.8333 11.9998 16.8333Z" fill="#1D478E"/>
</g>
</svg>
