<svg width="68" height="63" viewBox="0 0 68 63" fill="none" xmlns="http://www.w3.org/2000/svg">
<g clip-path="url(#clip0_137_28120)">
<path d="M27.9923 26.5712L28.0636 26.4239C18.1981 21.7906 16.4381 17.914 13.7747 12.0466C12.8314 9.96885 11.7645 7.61821 10.1886 4.88768C14.1614 5.19306 17.713 6.33584 20.748 8.2857C23.2077 9.86602 25.3363 11.977 27.074 14.5605C30.0354 18.9632 30.8442 23.2693 30.8522 23.3123L31.0141 23.2823C31.0063 23.2389 30.1932 18.905 27.2146 14.4748C25.4646 11.8715 23.3203 9.74409 20.8415 8.15081C17.743 6.15945 14.1109 5.00306 10.0462 4.71391L9.89091 4.70268L9.96854 4.83606C11.5831 7.61697 12.6676 10.0063 13.6248 12.1144C16.303 18.0147 18.0726 21.9127 27.9927 26.5714L27.9923 26.5712Z" fill="#1D478E"/>
<path d="M28.7643 24.5089L28.9001 24.4155C28.8311 24.317 21.9443 14.4856 16.1145 9.76902L16.0096 9.89564C21.8222 14.5979 28.6956 24.4103 28.7643 24.5089Z" fill="#1D478E"/>
<path d="M20.3764 14.011L20.5289 13.9484C20.5199 13.9268 19.6461 11.7657 20.023 9.23629L19.8602 9.21372C19.4768 11.7891 20.3674 13.9893 20.3765 14.0112L20.3764 14.011Z" fill="#1D478E"/>
<path d="M23.6636 17.8287L23.7322 17.6804C21.4926 16.6755 19.1618 16.9701 19.1386 16.9731L19.1596 17.1346C19.1823 17.1314 21.4683 16.8439 23.6636 17.8287Z" fill="#1D478E"/>
<path d="M24.2671 33.2498L24.226 33.0921C21.3293 33.8504 18.3763 32.8373 15.1986 29.9948C12.3835 27.4763 9.7646 23.8972 7.23195 20.436C5.59012 18.192 4.03691 16.0697 2.489 14.307C11.2696 13.323 16.937 18.3908 16.9936 18.4424L17.1056 18.3224C17.0479 18.2699 11.2615 13.0922 2.3146 14.1634L2.15912 14.1821L2.26195 14.2983C3.8391 16.0781 5.42227 18.2418 7.09834 20.5326C9.63582 24.0005 12.2598 27.5863 15.0878 30.116C18.3097 32.9983 21.3123 34.0233 24.2668 33.2499L24.2671 33.2498Z" fill="#1D478E"/>
<path d="M23.5635 29.2469L23.6818 29.1331C23.5959 29.0457 15.0471 20.3864 9.98014 18.8216L9.93015 18.9771C12.0072 19.6185 15.0218 21.5966 18.6486 24.6971C21.393 27.0432 23.5419 29.2254 23.5635 29.2469Z" fill="#1D478E"/>
<path d="M14.8383 21.6306L14.9799 21.5465C14.9732 21.5358 14.3193 20.4392 13.0721 17.6671L12.9216 17.7344C14.1739 20.5172 14.8317 21.6199 14.8383 21.6306Z" fill="#1D478E"/>
<path d="M19.1139 25.0849L19.155 24.9268C19.1283 24.9202 16.446 24.2667 13.3927 24.6722L13.4136 24.8337C16.4358 24.4322 19.0875 25.0783 19.1138 25.0847L19.1139 25.0849Z" fill="#1D478E"/>
</g>
<path d="M67.2003 32.0396C67.2003 49.1385 53.3157 62.9999 36.1881 62.9999C19.0604 62.9999 5.17578 49.1385 5.17578 32.0396C5.17578 14.9407 19.0604 1.07935 36.1881 1.07935C53.3157 1.07935 67.2003 14.9407 67.2003 32.0396Z" fill="#5BC4F0" fill-opacity="0.1"/>
<path d="M47.1762 44.5623C43.573 49.0767 39.358 51.4944 36.889 52.6234C36.733 52.6953 36.5648 52.7247 36.3965 52.714C36.2717 52.7073 36.1483 52.6767 36.0316 52.6234C33.5626 51.4944 29.3476 49.0767 25.7458 44.5623C21.018 38.6418 18.8664 31.0033 19.3426 21.8493C19.3602 21.4841 19.5841 21.1575 19.9205 21.0003L36.0262 13.4844C36.1442 13.4284 36.269 13.3977 36.3965 13.3911C36.5661 13.3777 36.7384 13.4111 36.8958 13.4844L53.0015 20.9989C53.3379 21.1562 53.559 21.4841 53.578 21.848C54.0542 31.0033 51.9026 38.6418 47.1775 44.5623H47.1762Z" fill="#161742"/>
<g opacity="0.3">
<path d="M47.1849 44.5614C43.579 49.0756 39.3607 51.4933 36.8898 52.6222C36.7337 52.6941 36.5653 52.7235 36.397 52.7128V13.3911C36.5667 13.3777 36.7391 13.4111 36.8966 13.4844L53.0147 20.9987C53.3514 21.156 53.5727 21.4839 53.5917 21.8477C54.0682 31.0027 51.915 38.641 47.1863 44.5614H47.1849Z" fill="#1D478E"/>
</g>
<path d="M42.6684 30.3007C42.4138 29.7328 41.8498 29.3374 41.1947 29.3374H40.8612V26.1957C40.8612 23.7898 38.9393 21.8401 36.5693 21.8401H36.4827C34.1121 21.8401 32.1909 23.7898 32.1909 26.1957V29.3374H31.8567C30.9642 29.3374 30.2397 30.072 30.2397 30.9783V39.4447C30.2397 40.3505 30.9635 41.0857 31.8567 41.0857H41.1954C42.0885 41.0857 42.8123 40.3511 42.8123 39.4447V30.9783C42.8123 30.7367 42.7607 30.5074 42.6684 30.3013V30.3007ZM33.4469 26.1957C33.4469 24.4966 34.8085 23.1154 36.4821 23.1154H36.5687C38.2422 23.1154 39.6039 24.4973 39.6039 26.1957V29.3374H33.4462V26.1957H33.4469ZM37.1855 35.1253L37.5401 38.0519C37.5579 38.1998 37.4446 38.3303 37.2976 38.3303H35.7538C35.6068 38.3303 35.4935 38.1998 35.5113 38.0519L35.8659 35.1253C35.3012 34.8585 34.9186 34.2609 34.9619 33.5774C35.0122 32.7911 35.638 32.1522 36.4127 32.0973C37.3288 32.032 38.0927 32.7672 38.0927 33.6833C38.0927 34.3223 37.7209 34.8727 37.1855 35.1259V35.1253Z" fill="white"/>
<path d="M52.0721 48.6619C54.8542 45.8892 54.8542 41.3936 52.0721 38.6208C49.29 35.848 44.7794 35.848 41.9973 38.6208C39.2153 41.3936 39.2153 45.8892 41.9973 48.6619C44.7794 51.4347 49.29 51.4347 52.0721 48.6619Z" fill="#32B353"/>
<path d="M50.5089 41.4055C50.3739 41.2946 50.2106 41.2366 50.0363 41.2366C49.8118 41.2366 49.6009 41.3365 49.459 41.5096L46.5377 45.0256L45.1037 43.9482C44.9278 43.8159 44.7075 43.7678 44.4835 43.8175C44.3772 43.841 44.2768 43.8897 44.192 43.9582C43.7974 44.2782 43.8282 44.8556 44.2066 45.1401L46.5534 46.9031C46.6826 47.0004 46.8653 46.9784 46.9684 46.8545L50.613 42.4551C50.8742 42.1372 50.8271 41.6665 50.5089 41.4055Z" fill="white"/>
<defs>
<clipPath id="clip0_137_28120">
<rect width="24.1234" height="31.7586" fill="white" transform="matrix(-0.938122 0.346305 0.347329 0.937743 22.6309 0)"/>
</clipPath>
</defs>
</svg>
