<svg width="348" height="317" viewBox="0 0 348 317" fill="none" xmlns="http://www.w3.org/2000/svg">
<path d="M236 248.5C236 286.332 205.332 317 167.5 317C129.668 317 99 286.332 99 248.5C99 210.668 129.668 180 167.5 180C205.332 180 236 210.668 236 248.5Z" fill="#5BC4F0" fill-opacity="0.2"/>
<path d="M397 226.5C397 252.734 375.734 274 349.5 274C323.266 274 302 252.734 302 226.5C302 200.266 323.266 179 349.5 179C375.734 179 397 200.266 397 226.5Z" fill="#5BC4F0" fill-opacity="0.2"/>
<path d="M6 261.005C9.24402 262.573 11.4737 264.981 12.9952 268C14.5168 264.981 16.756 262.564 20 260.995C16.756 259.427 14.5168 257.019 12.9952 254C11.4737 257.019 9.24402 259.436 6 261.005Z" fill="#FFD325"/>
<path d="M288 186.004C290.549 187.349 292.301 189.412 293.496 192C294.692 189.412 296.451 187.341 299 185.996C296.451 184.651 294.692 182.588 293.496 180C292.301 182.588 290.549 184.659 288 186.004Z" fill="#AF8E2F"/>
<path d="M54 144.506C58.1709 146.635 61.0376 149.903 62.9939 154C64.9501 149.903 67.8291 146.623 72 144.494C67.8291 142.365 64.9501 139.097 62.9939 135C61.0376 139.097 58.1709 142.377 54 144.506Z" fill="#FFD325"/>
<path d="M122 241.503C124.085 242.511 125.519 244.059 126.497 246C127.475 244.059 128.915 242.506 131 241.497C128.915 240.489 127.475 238.941 126.497 237C125.519 238.941 124.085 240.494 122 241.503Z" fill="#AF8E2F"/>
<path d="M0 48.5029C2.31716 49.5114 3.90978 51.0593 4.99658 53C6.08339 51.0593 7.68284 49.5055 10 48.4971C7.68284 47.4886 6.08339 45.9407 4.99658 44C3.90978 45.9407 2.31716 47.4945 0 48.5029Z" fill="#AF8E2F"/>
<path d="M281 4.50293C283.317 5.51139 284.91 7.05928 285.997 9C287.083 7.05928 288.683 5.50553 291 4.49706C288.683 3.48859 287.083 1.94072 285.997 0C284.91 1.94072 283.317 3.49446 281 4.50293Z" fill="#AF8E2F"/>
<path d="M256 253.005C259.244 254.573 261.474 256.981 262.995 260C264.517 256.981 266.756 254.564 270 252.995C266.756 251.427 264.517 249.019 262.995 246C261.474 249.019 259.244 251.436 256 253.005Z" fill="#FFD325"/>
</svg>
