<svg width="263" height="190" viewBox="0 0 263 190" fill="none" xmlns="http://www.w3.org/2000/svg">
<path d="M196.223 33H138.876C133.742 33 129.58 37.1596 129.58 42.2908V168.053C129.58 173.185 133.742 177.344 138.876 177.344H196.223C201.356 177.344 205.518 173.185 205.518 168.053V42.2908C205.518 37.1596 201.356 33 196.223 33Z" fill="#1C004F"/>
<path d="M196.776 36.5732H138.327C135.317 36.5732 132.876 39.0126 132.876 42.0216V168.311C132.876 171.32 135.317 173.759 138.327 173.759H196.776C199.787 173.759 202.228 171.32 202.228 168.311V42.0216C202.228 39.0126 199.787 36.5732 196.776 36.5732Z" fill="white"/>
<path d="M151.133 34.7866H184.24V39.6759C184.24 42.5207 181.931 44.8338 179.079 44.8338H156.019C153.173 44.8338 150.858 42.5262 150.858 39.6759V35.0607C150.858 34.9072 150.979 34.7866 151.133 34.7866Z" fill="#1C004F"/>
<path d="M131.076 190C203.467 190 262.151 185.971 262.151 181C262.151 176.03 203.467 172 131.076 172C58.6845 172 0 176.03 0 181C0 185.971 58.6845 190 131.076 190Z" fill="#5BC4F0" fill-opacity="0.2"/>
<path d="M158.251 180.755C158.251 181.9 149.867 182.83 139.532 182.83C129.198 182.83 120.814 181.9 120.814 180.755C120.814 180.734 120.819 180.713 120.823 180.693V175.087H158.238V180.68C158.246 180.705 158.251 180.73 158.251 180.755Z" fill="#AF8E2F"/>
<path d="M139.529 177.213C149.866 177.213 158.247 176.283 158.247 175.137C158.247 173.991 149.866 173.062 139.529 173.062C129.191 173.062 120.811 173.991 120.811 175.137C120.811 176.283 129.191 177.213 139.529 177.213Z" fill="#FFD325"/>
<path d="M162.673 173.988C162.673 175.133 154.29 176.063 143.955 176.063C133.621 176.063 125.237 175.133 125.237 173.988C125.237 173.967 125.241 173.947 125.246 173.926V168.32H162.661V173.914C162.669 173.938 162.673 173.963 162.673 173.988Z" fill="#AF8E2F"/>
<path d="M143.951 170.449C154.289 170.449 162.669 169.52 162.669 168.374C162.669 167.228 154.289 166.299 143.951 166.299C133.614 166.299 125.233 167.228 125.233 168.374C125.233 169.52 133.614 170.449 143.951 170.449Z" fill="#FFD325"/>
<path d="M159.152 166.348C159.152 167.493 150.769 168.423 140.434 168.423C130.099 168.423 121.716 167.493 121.716 166.348C121.716 166.327 121.72 166.307 121.724 166.286V160.68H159.14V166.274C159.148 166.298 159.152 166.323 159.152 166.348Z" fill="#AF8E2F"/>
<path d="M140.434 162.806C150.772 162.806 159.152 161.877 159.152 160.73C159.152 159.584 150.772 158.655 140.434 158.655C130.096 158.655 121.716 159.584 121.716 160.73C121.716 161.877 130.096 162.806 140.434 162.806Z" fill="#FFD325"/>
<path d="M163.575 159.585C163.575 160.73 155.191 161.66 144.857 161.66C134.522 161.66 126.139 160.73 126.139 159.585C126.139 159.564 126.143 159.544 126.147 159.523V153.917H163.562V159.51C163.571 159.535 163.575 159.56 163.575 159.585Z" fill="#AF8E2F"/>
<path d="M144.857 156.042C155.194 156.042 163.575 155.113 163.575 153.967C163.575 152.821 155.194 151.892 144.857 151.892C134.519 151.892 126.139 152.821 126.139 153.967C126.139 155.113 134.519 156.042 144.857 156.042Z" fill="#FFD325"/>
<path d="M159.152 152.817C159.152 153.962 150.769 154.892 140.434 154.892C130.099 154.892 121.716 153.962 121.716 152.817C121.716 152.796 121.72 152.775 121.724 152.755V147.149H159.14V152.742C159.148 152.767 159.152 152.792 159.152 152.817Z" fill="#AF8E2F"/>
<path d="M140.434 149.279C150.772 149.279 159.152 148.35 159.152 147.203C159.152 146.057 150.772 145.128 140.434 145.128C130.096 145.128 121.716 146.057 121.716 147.203C121.716 148.35 130.096 149.279 140.434 149.279Z" fill="#FFD325"/>
<path d="M165.786 146.054C165.786 147.199 157.402 148.129 147.068 148.129C136.733 148.129 128.35 147.199 128.35 146.054C128.35 146.033 128.354 146.013 128.358 145.992V140.386H165.773V145.98C165.782 146.004 165.786 146.029 165.786 146.054Z" fill="#AF8E2F"/>
<path d="M147.068 142.511C157.405 142.511 165.786 141.582 165.786 140.436C165.786 139.29 157.405 138.361 147.068 138.361C136.73 138.361 128.35 139.29 128.35 140.436C128.35 141.582 136.73 142.511 147.068 142.511Z" fill="#FFD325"/>
<path d="M162.316 140.436C162.316 141.205 155.488 141.829 147.071 141.829C138.655 141.829 131.827 141.205 131.827 140.436C131.827 139.667 138.655 139.042 147.071 139.042C155.488 139.042 162.316 139.667 162.316 140.436Z" fill="#AF8E2F"/>
<path d="M115.958 119.146H41.7576C39.9401 119.146 38.4668 120.623 38.4668 122.444V173.061C38.4668 174.882 39.9401 176.359 41.7576 176.359H115.958C117.775 176.359 119.249 174.882 119.249 173.061V122.444C119.249 120.623 117.775 119.146 115.958 119.146Z" fill="#1D478E"/>
<path d="M116.798 126.23V171.568C116.798 173.486 115.246 175.044 113.329 175.044H108.094V125.695H42.923C42.1138 125.695 41.459 125.039 41.459 124.228C41.459 123.417 42.1138 122.761 42.923 122.761H113.329C115.243 122.761 116.798 124.316 116.798 126.237V126.23Z" fill="#161742"/>
<path d="M63.2682 102.71C54.7727 102.478 47.7008 109.191 47.4658 117.708C47.2341 126.221 53.9332 133.31 62.4321 133.542C70.9277 133.775 78.0029 127.062 78.2346 118.545C78.4663 110.032 71.7672 102.946 63.2682 102.71ZM75.2326 118.461C75.1419 121.776 73.7685 124.854 71.3642 127.136C68.9633 129.417 65.8203 130.625 62.5127 130.534C55.686 130.346 50.2831 124.632 50.4678 117.788C50.5584 114.474 51.9285 111.395 54.3328 109.114C56.6498 106.913 59.6585 105.712 62.8418 105.712C62.9593 105.712 63.0701 105.712 63.1877 105.719C69.9035 105.9 75.2359 111.435 75.2359 118.121C75.2359 118.236 75.2359 118.347 75.2359 118.461H75.2326Z" fill="#FFD325"/>
<path d="M72.4354 110.263C72.506 110.351 72.5798 110.438 72.647 110.529C74.6685 113.15 75.5516 116.408 75.1319 119.698C74.7121 122.986 73.0432 125.913 70.424 127.942C65.0211 132.128 57.2273 131.129 53.0501 125.711C51.0286 123.09 50.1421 119.836 50.5618 116.546C50.9682 113.373 52.5397 110.533 55.001 108.517C55.0917 108.443 55.179 108.376 55.273 108.302C60.5886 104.183 68.2112 105.085 72.4388 110.263H72.4354Z" fill="#AF8E2F"/>
<path d="M67.3976 116.196C67.3402 116.139 67.2707 116.105 67.1801 116.102L65.5438 116.05C65.4527 115.517 65.2651 115.049 64.9749 114.65L67.206 114.723C67.2965 114.723 67.369 114.699 67.4293 114.644C67.4896 114.587 67.5197 114.517 67.5227 114.426L67.5549 113.449C67.5579 113.359 67.5306 113.286 67.4762 113.226C67.4188 113.165 67.3463 113.135 67.2588 113.132L59.2944 112.874C59.2069 112.871 59.1314 112.895 59.0711 112.953C59.0138 113.007 58.9807 113.08 58.9777 113.17L58.9367 114.447C58.9338 114.529 58.961 114.604 59.0214 114.665C59.0789 114.728 59.1514 114.761 59.2329 114.761L60.6216 114.805C61.9682 114.849 62.8108 115.239 63.1527 115.973L59.1977 115.844C59.1101 115.844 59.0347 115.868 58.9744 115.923C58.914 115.977 58.8839 116.05 58.881 116.141L58.8487 117.118C58.8488 117.209 58.873 117.281 58.9274 117.342C58.9818 117.402 59.0543 117.432 59.1449 117.435L63.2327 117.57C63.0732 118.091 62.7324 118.478 62.2104 118.736C61.6884 118.993 61.0062 119.109 60.1639 119.08L59.0921 119.044C59.0076 119.044 58.9351 119.072 58.8718 119.129C58.8085 119.19 58.7753 119.259 58.7724 119.341L58.7313 120.56C58.7283 120.645 58.7556 120.714 58.81 120.775C59.9947 122.12 61.5211 123.996 63.3982 126.408C63.4527 126.487 63.5312 126.526 63.6338 126.532L65.4996 126.594C65.6325 126.6 65.729 126.545 65.7832 126.43C65.8496 126.315 65.8434 126.206 65.7558 126.1C63.9693 123.749 62.5577 121.99 61.5301 120.814C62.6199 120.723 63.5102 120.398 64.207 119.847C64.9039 119.293 65.3379 118.56 65.5151 117.644L67.1243 117.697C67.2118 117.696 67.2873 117.672 67.3446 117.618C67.4049 117.563 67.435 117.491 67.438 117.4L67.4702 116.423C67.4702 116.332 67.4459 116.26 67.3915 116.199L67.3976 116.196Z" fill="#DCB414"/>
<path d="M104.746 119.25C104.817 119.338 104.89 119.425 104.958 119.516C106.979 122.137 107.862 125.394 107.442 128.685C107.023 131.973 105.354 134.9 102.735 136.929C97.3317 141.115 89.5379 140.116 85.3606 134.698C83.3391 132.077 82.4526 128.823 82.8724 125.532C83.2787 122.359 84.8502 119.519 87.3116 117.504C87.4022 117.43 87.4896 117.363 87.5836 117.289C92.8992 113.17 100.522 114.072 104.749 119.25H104.746Z" fill="#AF8E2F"/>
<path d="M99.714 122.645C99.6566 122.587 99.5871 122.554 99.4965 122.551L97.8602 122.498C97.7691 121.966 97.5815 121.497 97.2913 121.098L99.5224 121.172C99.6129 121.172 99.6854 121.148 99.7457 121.093C99.806 121.036 99.8361 120.966 99.8391 120.875L99.8713 119.898C99.8743 119.807 99.847 119.735 99.7926 119.674C99.7352 119.614 99.6627 119.584 99.5752 119.581L91.6108 119.322C91.5233 119.32 91.4478 119.344 91.3875 119.401C91.3302 119.456 91.2971 119.528 91.2941 119.619L91.2531 120.896C91.2502 120.977 91.2774 121.053 91.3378 121.113C91.3953 121.177 91.4678 121.21 91.5493 121.21L92.938 121.254C94.2846 121.298 95.1272 121.687 95.4691 122.422L91.5141 122.293C91.4265 122.293 91.3511 122.317 91.2908 122.372C91.2304 122.426 91.2003 122.499 91.1974 122.59L91.1651 123.567C91.1652 123.657 91.1894 123.73 91.2438 123.79C91.2982 123.851 91.3707 123.881 91.4613 123.884L95.5491 124.019C95.3896 124.539 95.0488 124.927 94.5268 125.185C94.0048 125.442 93.3226 125.558 92.4803 125.528L91.4085 125.493C91.324 125.493 91.2515 125.52 91.1882 125.578C91.1249 125.638 91.0917 125.708 91.0888 125.79L91.0477 127.009C91.0448 127.093 91.072 127.163 91.1264 127.223C92.3111 128.568 93.8375 130.445 95.7146 132.857C95.7691 132.936 95.8476 132.975 95.9502 132.981L97.816 133.042C97.9489 133.048 98.0454 132.994 98.0997 132.879C98.166 132.764 98.1598 132.655 98.0722 132.549C96.2857 130.198 94.8741 128.439 93.8465 127.263C94.9363 127.171 95.8266 126.847 96.5234 126.296C97.2203 125.741 97.6543 125.009 97.8315 124.092L99.4407 124.145C99.5283 124.145 99.6037 124.121 99.661 124.066C99.7213 124.012 99.7515 123.939 99.7544 123.849L99.7867 122.872C99.7866 122.781 99.7623 122.708 99.7079 122.648L99.714 122.645Z" fill="#DCB414"/>
<path d="M99.0506 112.188C90.8303 110.031 82.4187 114.96 80.2663 123.201C78.1138 131.438 83.0332 139.867 91.2568 142.024C99.477 144.181 107.889 139.251 110.041 131.011C112.194 122.773 107.274 114.345 99.0506 112.188ZM107.14 130.25C106.3 133.457 104.269 136.145 101.411 137.818C98.5569 139.493 95.2225 139.954 92.019 139.113C85.414 137.38 81.4449 130.583 83.1742 123.961C84.0137 120.755 86.0419 118.066 88.8995 116.39C91.653 114.775 94.8565 114.291 97.9559 115.011C98.07 115.038 98.1775 115.065 98.2917 115.095C104.793 116.798 108.735 123.399 107.22 129.914C107.194 130.025 107.17 130.132 107.14 130.243V130.25Z" fill="#FFD325"/>
<path d="M110.793 124.608H41.6568C39.895 124.608 38.4668 126.039 38.4668 127.805V177.9C38.4668 179.666 39.895 181.097 41.6568 181.097H110.793C112.555 181.097 113.983 179.666 113.983 177.9V127.805C113.983 126.039 112.555 124.608 110.793 124.608Z" fill="#1D478E"/>
<path d="M67.2978 178.873H44.5847C42.8755 178.873 41.4854 177.48 41.4854 175.767V171.386H41.8446V175.767C41.8446 177.281 43.0737 178.513 44.5847 178.513H67.2978V178.873Z" fill="#161742"/>
<path d="M110.965 135.971H110.605V129.931C110.605 128.417 109.376 127.185 107.865 127.185H78.208V126.825H107.865C109.574 126.825 110.965 128.218 110.965 129.931V135.971Z" fill="#161742"/>
<path d="M41.8445 158.071H41.4854V166.598H41.8445V158.071Z" fill="#161742"/>
<path d="M119.155 141.25V157.213C119.155 159.218 117.537 160.843 115.532 160.843H101.751C97.3453 160.843 93.7725 157.263 93.7725 152.849C93.7725 150.641 94.6657 148.643 96.1096 147.196C97.5535 145.749 99.5481 144.854 101.751 144.854H115.532C115.633 144.854 115.733 144.857 115.834 144.867C117.694 144.712 119.152 143.151 119.152 141.25H119.155Z" fill="#161742"/>
<path d="M103.655 155.492C105.109 154.035 105.109 151.671 103.655 150.214C102.202 148.756 99.8443 148.756 98.3904 150.214C96.9364 151.671 96.9365 154.035 98.3904 155.492C99.8443 156.95 102.202 156.95 103.655 155.492Z" fill="white"/>
<path d="M38.4328 151.893C30.2092 154.037 25.273 162.456 27.412 170.699C29.551 178.94 37.9526 183.89 46.1796 181.743C54.4031 179.599 59.3427 171.181 57.2003 162.937C55.0613 154.696 46.6597 149.75 38.4328 151.893ZM54.2957 163.694C55.1285 166.9 54.6617 170.245 52.9861 173.102C51.3105 175.962 48.6275 177.994 45.424 178.829C38.8156 180.548 32.0393 176.564 30.32 169.939C29.4872 166.732 29.9506 163.391 31.6263 160.531C33.2414 157.772 35.8002 155.78 38.8559 154.895C38.9667 154.861 39.0775 154.834 39.1883 154.804C45.6893 153.108 52.3481 156.941 54.2017 163.364C54.2319 163.472 54.2655 163.583 54.2923 163.69L54.2957 163.694Z" fill="#FFD325"/>
<path d="M54.2051 163.367C54.2354 163.475 54.2689 163.586 54.2958 163.693C55.1286 166.9 54.6618 170.245 52.9862 173.102C51.3106 175.962 48.6276 177.994 45.4241 178.829C38.8157 180.548 32.0394 176.564 30.3201 169.939C29.4874 166.732 29.9508 163.391 31.6264 160.531C33.2415 157.771 35.8003 155.779 38.856 154.894C38.9668 154.861 39.0776 154.834 39.1884 154.804C45.6894 153.108 52.3482 156.94 54.2018 163.364L54.2051 163.367Z" fill="#AF8E2F"/>
<path d="M53.168 156.885C53.8295 157.222 54.2828 157.737 54.5951 158.386C54.9074 157.74 55.3607 157.222 56.0222 156.885C55.3607 156.549 54.904 156.034 54.5951 155.385C54.2828 156.031 53.8295 156.549 53.168 156.885Z" fill="#FFF3EB"/>
<path d="M74.8574 124.758C75.9958 125.336 76.7782 126.225 77.3121 127.338C77.846 126.225 78.6317 125.333 79.7701 124.754C78.6317 124.175 77.846 123.287 77.3121 122.173C76.7782 123.287 75.9958 124.179 74.8574 124.758Z" fill="#FFF3EB"/>
<path d="M99.9707 115.657C100.632 115.994 101.086 116.509 101.398 117.158C101.71 116.512 102.163 115.994 102.825 115.657C102.163 115.321 101.707 114.806 101.398 114.157C101.086 114.803 100.632 115.321 99.9707 115.657Z" fill="#FFF3EB"/>
<path d="M147.522 2.58419C148.661 3.16294 149.443 4.05127 149.977 5.16503C150.511 4.05127 151.297 3.15958 152.435 2.58083C151.297 2.00208 150.511 1.11376 149.977 0C149.443 1.11376 148.661 2.00544 147.522 2.58419Z" fill="#FFD325"/>
<path d="M46.1974 164.81C46.14 164.753 46.0705 164.72 45.9799 164.717L44.3436 164.664C44.2525 164.132 44.0649 163.663 43.7747 163.264L46.0058 163.337C46.0963 163.337 46.1688 163.313 46.2291 163.259C46.2894 163.201 46.3195 163.131 46.3225 163.041L46.3547 162.064C46.3577 161.973 46.3304 161.9 46.276 161.84C46.2186 161.78 46.1461 161.749 46.0586 161.746L38.0942 161.488C38.0067 161.485 37.9312 161.509 37.8709 161.567C37.8136 161.621 37.7805 161.694 37.7775 161.785L37.7365 163.061C37.7336 163.143 37.7608 163.218 37.8212 163.279C37.8787 163.342 37.9512 163.376 38.0327 163.375L39.4214 163.419C40.768 163.464 41.6106 163.853 41.9525 164.588L37.9975 164.458C37.9099 164.458 37.8345 164.483 37.7742 164.537C37.7138 164.592 37.6837 164.664 37.6808 164.755L37.6485 165.732C37.6486 165.823 37.6728 165.895 37.7272 165.956C37.7816 166.016 37.8541 166.046 37.9447 166.049L42.0325 166.185C41.873 166.705 41.5322 167.092 41.0102 167.35C40.4882 167.608 39.806 167.723 38.9637 167.694L37.8919 167.659C37.8074 167.659 37.7349 167.686 37.6716 167.743C37.6083 167.804 37.5751 167.874 37.5722 167.955L37.5311 169.174C37.5281 169.259 37.5554 169.329 37.6098 169.389C38.7945 170.734 40.3209 172.611 42.198 175.023C42.2525 175.101 42.331 175.14 42.4336 175.146L44.2994 175.208C44.4323 175.214 44.5288 175.159 44.5831 175.044C44.6494 174.929 44.6432 174.821 44.5556 174.715C42.7691 172.363 41.3575 170.604 40.3299 169.429C41.4197 169.337 42.31 169.012 43.0068 168.461C43.7037 167.907 44.1377 167.175 44.3149 166.258L45.9241 166.311C46.0117 166.311 46.0871 166.286 46.1444 166.232C46.2047 166.177 46.2349 166.105 46.2378 166.014L46.2701 165.037C46.27 164.946 46.2457 164.874 46.1913 164.813L46.1974 164.81Z" fill="#DCB414"/>
<path d="M165.513 113.961C164.768 114.379 164.16 114.019 164.16 113.165V95.3852C164.16 94.5307 163.565 93.4664 162.836 93.0219L156.54 89.1702C155.812 88.7246 155.823 88.015 156.564 87.5921L160.224 85.5046C160.965 85.0817 162.174 85.0882 162.911 85.5176L169.043 89.0956C169.78 89.525 170.383 90.5763 170.383 91.4308V109.677C170.383 110.531 169.773 111.572 169.03 111.989L165.513 113.961Z" fill="#1D478E"/>
<path d="M162.072 82.0014C161.33 81.5817 161.327 80.8905 162.067 80.4655L166.27 78.0491C167.01 77.624 168.221 77.623 168.962 78.0459L178.669 83.5924C179.41 84.0154 180.015 85.0613 180.015 85.9158V96.9505C180.015 97.805 179.413 98.8585 178.679 99.2912L174.432 101.791C173.696 102.223 173.095 101.878 173.095 101.024V89.788C173.095 88.9335 172.488 87.8908 171.745 87.4701L162.072 82.0014Z" fill="#1D478E"/>
<path d="M224.089 169.267C224.512 169.426 224.973 169.418 225.628 169.238C226.621 168.965 227.585 168.534 228.462 167.922C231.04 166.126 232.944 162.67 232.973 159.114C232.99 156.991 232.872 154.792 233.573 152.81C234.591 149.925 237.145 148.04 238.495 145.326C239.388 143.537 239.677 141.409 239.384 139.403C239.073 137.275 238.113 135.742 238.122 133.518C238.134 130.067 239.736 126.901 241.182 123.839C242.633 120.777 244.008 117.409 243.538 114C240.335 114.934 237.14 117.296 234.985 120.295C232.843 123.277 232.533 127.566 230.369 130.532C227.975 133.807 223.984 135.864 222.911 139.902C222.143 142.792 223.267 145.69 221.972 148.413C221.452 149.51 220.772 150.494 220.223 151.571C218.735 154.503 218.29 158.13 219.007 161.43C219.586 164.082 220.911 166.498 222.709 168.249C223.242 168.769 223.64 169.112 224.085 169.275L224.089 169.267Z" fill="#207739"/>
<path d="M223.484 159.909C228.027 156.095 230.546 150.361 231.943 144.601C233.342 138.838 233.774 132.883 234.988 127.079" stroke="#161742" stroke-width="0.4" stroke-linecap="round" stroke-linejoin="round"/>
<path d="M226.91 167.956C226.47 168.094 225.992 168.086 225.313 167.923C224.281 167.68 223.288 167.29 222.378 166.741C219.711 165.133 217.757 162.054 217.749 158.901C217.741 157.016 217.879 155.064 217.166 153.305C216.127 150.737 213.489 149.049 212.102 146.637C211.188 145.045 210.898 143.156 211.217 141.372C211.552 139.483 212.554 138.13 212.559 136.153C212.563 133.087 210.924 130.268 209.439 127.546C207.955 124.823 206.546 121.824 207.054 118.8C210.374 119.646 213.674 121.761 215.892 124.434C218.097 127.093 218.391 130.901 220.621 133.543C223.082 136.463 227.216 138.306 228.306 141.9C229.086 144.471 227.899 147.035 229.229 149.456C229.765 150.431 230.461 151.307 231.023 152.266C232.549 154.875 232.989 158.096 232.226 161.024C231.61 163.378 230.222 165.514 228.344 167.056C227.786 167.512 227.371 167.818 226.91 167.96V167.956Z" fill="#32B353"/>
<path d="M223.101 166.09C224.909 160.444 223.982 154.25 222.09 148.633C220.2 143.011 217.387 137.743 215.318 132.186" stroke="#161742" stroke-width="0.4" stroke-linecap="round" stroke-linejoin="round"/>
<path d="M221.204 155.83C219.829 154.641 218.24 153.74 216.789 152.647C215.502 151.675 214.517 150.444 213.33 149.376C211.242 147.5 210.064 144.3 207.024 143.709C205.771 143.466 204.484 143.763 203.209 143.893C201.746 144.044 200.258 143.969 198.815 143.68C197.855 143.487 195.809 142.331 195 142.628C195.952 143.571 196.61 144.555 197.084 145.828C197.612 147.248 198.048 148.785 199.155 149.82C200.09 150.695 201.36 151.076 202.555 151.541C205.335 152.618 205.98 154.75 206.999 157.359C207.402 158.394 207.897 159.554 208.79 160.262C209.775 161.041 211.079 160.748 212.06 161.393C212.789 161.874 212.919 162.7 213.301 163.433C213.871 164.534 214.668 165.443 215.728 166.101C217.141 166.976 218.802 167.37 220.449 167.587C222.328 167.835 224.239 168.002 226.122 168.09C225.9 166.427 225.728 164.635 225.254 163.018C224.726 161.208 223.967 159.445 222.969 157.841C222.499 157.087 221.887 156.434 221.2 155.835L221.204 155.83Z" fill="#207739"/>
<path d="M227.918 173.352C226.653 167.56 222.746 162.663 218.293 158.747C213.838 154.827 208.763 151.674 204.187 147.899" stroke="#161742" stroke-width="0.4" stroke-linecap="round" stroke-linejoin="round"/>
<path d="M227.569 155.868C228.856 154.582 230.382 153.577 231.749 152.383C232.965 151.323 233.862 150.029 234.973 148.877C236.922 146.859 237.878 143.583 240.868 142.787C242.104 142.456 243.408 142.662 244.687 142.704C246.159 142.754 247.635 142.574 249.056 142.184C249.999 141.924 251.957 140.626 252.787 140.869C251.903 141.874 251.316 142.9 250.93 144.207C250.502 145.661 250.175 147.223 249.144 148.333C248.272 149.271 247.031 149.74 245.874 150.285C243.178 151.554 242.679 153.723 241.849 156.396C241.518 157.455 241.107 158.645 240.264 159.416C239.337 160.257 238.017 160.056 237.082 160.773C236.386 161.305 236.314 162.134 235.987 162.892C235.497 164.031 234.763 164.995 233.749 165.723C232.399 166.695 230.772 167.206 229.141 167.537C227.284 167.914 225.388 168.216 223.519 168.433C223.623 166.758 223.669 164.961 224.03 163.315C224.433 161.472 225.066 159.663 225.946 157.991C226.361 157.204 226.927 156.513 227.573 155.868H227.569Z" fill="#0B531F"/>
<path d="M224.775 166.541C228.571 164.815 231.359 161.408 233.391 157.772C235.426 154.134 236.842 150.184 238.76 146.484" stroke="#161742" stroke-width="0.4" stroke-linecap="round" stroke-linejoin="round"/>
<path d="M232.982 170.641L232.877 171.215L230.919 182.075H217.385L215.423 171.215L215.322 170.641H232.982Z" fill="#1D478E"/>
<path d="M234.633 166.264H213.666V170.641H234.633V166.264Z" fill="#1D478E"/>
<path d="M232.982 170.641L232.877 171.215H215.423L215.322 170.641H232.982Z" fill="#5BC4F0"/>
</svg>
