<svg width="16" height="16" viewBox="0 0 16 16" fill="none" xmlns="http://www.w3.org/2000/svg">
<g clip-path="url(#clip0_49_68)">
<path d="M8.86587 0.0134611C8.83494 0.022233 8.76204 0.0310049 8.7046 0.0331974C8.47485 0.0375834 7.73258 0.223984 7.46307 0.342402C7.43877 0.353367 7.37028 0.381876 7.30843 0.405998C7.14716 0.4674 6.7208 0.669151 6.65452 0.717396C6.6236 0.737132 6.57279 0.763447 6.53965 0.770026C6.50651 0.778798 6.48 0.794148 6.48 0.80292C6.48 0.811692 6.46233 0.82485 6.44245 0.833622C6.42036 0.8402 6.37396 0.866516 6.33641 0.890638C6.30106 0.914761 6.24804 0.943269 6.21932 0.956426C6.1906 0.967391 6.13538 1.00248 6.09561 1.03318C6.05585 1.06388 6.01608 1.088 6.00946 1.088C5.95865 1.088 5.2473 1.60115 5.04627 1.78097C4.8828 1.9279 4.58014 2.24807 4.58014 2.27438C4.58014 2.28096 4.56026 2.31166 4.53375 2.34017C4.46748 2.41473 4.26866 2.72613 4.21122 2.84236C4.18692 2.89718 4.13832 2.99367 4.10739 3.05946C3.99914 3.27875 3.95496 3.51778 3.966 3.79629C3.97926 4.0704 4.04111 4.21295 4.22889 4.40154C4.4255 4.59671 4.63537 4.68224 4.96674 4.69978C5.19428 4.71074 5.35776 4.6932 5.5853 4.6296C5.6582 4.60987 5.7554 4.58575 5.8018 4.57259C5.84819 4.56162 5.90121 4.54408 5.9233 4.53092C5.97411 4.50461 6.25909 4.37742 6.27234 4.37742C6.31211 4.37742 6.77824 4.09453 7.20902 3.80944C7.494 3.62085 7.74363 3.45638 7.76572 3.44542C7.7856 3.43226 7.92036 3.35331 8.06395 3.26779C8.20755 3.18446 8.38428 3.08358 8.45718 3.0463C8.53008 3.00902 8.63391 2.9542 8.68914 2.92569C8.74437 2.89937 8.8482 2.85113 8.9211 2.82481C8.994 2.7963 9.08458 2.75902 9.11992 2.74367C9.15748 2.72832 9.2105 2.7042 9.24142 2.69104C9.32758 2.65596 9.52198 2.62087 9.71197 2.60771C10.1229 2.5814 10.4101 2.76122 10.5581 3.1384C10.5934 3.22831 10.6 3.30287 10.6 3.56603C10.6 3.8862 10.5713 4.06163 10.4852 4.26777C10.4675 4.30943 10.4432 4.36864 10.4299 4.39935C10.3195 4.6625 10.0919 5.03968 9.83126 5.38178C9.58384 5.71073 9.05144 6.25677 8.70019 6.54404C8.57868 6.64492 8.44393 6.75457 8.40195 6.78965C8.30917 6.86641 8.20092 6.94316 8.08163 7.0221C8.03303 7.05281 7.9535 7.10544 7.9049 7.14052C7.76793 7.23263 7.40342 7.42561 7.19797 7.51332C7.13832 7.53964 7.05659 7.57473 7.01682 7.59227C6.97927 7.60981 6.92846 7.62297 6.90416 7.62297C6.88207 7.62297 6.83125 7.63394 6.79149 7.64709C6.6479 7.69753 6.50209 7.60104 6.50209 7.45411C6.50209 7.27429 6.58825 7.16026 7.1317 6.62518C7.71933 6.04625 7.78339 5.96072 7.78339 5.74143C7.78339 5.51555 7.67515 5.36205 7.43214 5.23924C7.3261 5.18442 7.28634 5.17784 7.10077 5.17784C6.88427 5.17784 6.75835 5.20854 6.6015 5.30284C6.56616 5.32477 6.51093 5.35328 6.48 5.36863C6.44907 5.38398 6.42036 5.40152 6.41373 5.4081C6.4071 5.41468 6.36292 5.44757 6.31432 5.48485C6.19723 5.57257 5.99178 5.7809 5.8747 5.93221C5.79296 6.03747 5.73331 6.13616 5.59414 6.39492C5.47926 6.60983 5.37543 7.00895 5.37543 7.2414C5.37543 7.71288 5.62286 8.09007 6.00504 8.19752C6.11991 8.23042 6.58825 8.23042 6.74952 8.19971C6.90857 8.16682 7.32389 8.03963 7.3504 8.01551C7.36366 8.00454 7.38575 7.99577 7.40342 7.99577C7.46086 7.99577 8.11697 7.66464 8.3423 7.5199C8.39312 7.48701 8.45055 7.44973 8.47264 7.43657C8.49253 7.42561 8.59636 7.36201 8.7046 7.29622C8.81064 7.23043 8.90343 7.16903 8.91005 7.16245C8.91668 7.15368 8.99179 7.09886 9.07574 7.04184C9.16189 6.98263 9.26131 6.91465 9.29665 6.89053C9.33421 6.86421 9.43804 6.78527 9.52861 6.7129C10.103 6.25896 10.6111 5.77432 10.9071 5.39713C10.9557 5.33792 10.9999 5.2831 11.0065 5.27652C11.0242 5.26336 11.1744 5.04846 11.2782 4.88618C11.3246 4.8182 11.3953 4.69759 11.4351 4.61864C11.4771 4.53969 11.5345 4.43224 11.5632 4.37742C11.5919 4.32259 11.6538 4.18005 11.7024 4.05944C11.7488 3.93883 11.7952 3.82041 11.804 3.79629C11.8659 3.64059 11.9609 3.23928 12.0028 2.952C12.0492 2.62745 12.0139 2.09456 11.9233 1.80071C11.8858 1.6801 11.8769 1.65817 11.7952 1.48273C11.6185 1.10555 11.3357 0.763447 11.0109 0.539767C10.9668 0.509066 10.9115 0.4674 10.8872 0.443278C10.8077 0.373104 10.4034 0.193282 10.1671 0.125301C10.0411 0.0880213 9.85335 0.0485487 9.74953 0.0331974C9.51094 0.00249672 8.93877 -0.0128546 8.86587 0.0134611Z" fill="#FF0000"/>
<path d="M15.2701 10.8575C15.2635 10.8619 15.1619 10.8817 15.0404 10.9014C14.9189 10.9189 14.7201 10.9518 14.5986 10.9738L14.3776 11.011V13.0285C14.3776 15.2193 14.3732 15.1272 14.5036 15.4013C14.5477 15.4956 14.6096 15.5767 14.7046 15.6623C14.9388 15.875 15.1575 15.9408 15.6236 15.943C16.0212 15.943 16.0058 15.9583 15.9969 15.5943L15.9903 15.3311L15.8202 15.3158C15.5176 15.2895 15.3718 15.1689 15.3386 14.9189C15.3298 14.8443 15.3232 13.9057 15.3254 12.8356C15.3276 10.9825 15.3232 10.8049 15.2701 10.8575Z" fill="#FF0000"/>
<path d="M9.15308 10.9014C8.66265 10.9738 8.49917 11.0045 8.47929 11.0286C8.46383 11.0461 8.46162 11.7457 8.46824 13.0834C8.47929 14.9518 8.48371 15.1206 8.51905 15.2105C8.603 15.4232 8.64718 15.4978 8.75985 15.6096C8.99181 15.8399 9.28783 15.9342 9.77384 15.9342C10.0434 15.9342 10.0809 15.9298 10.0986 15.8947C10.1207 15.8531 10.1317 15.4715 10.1141 15.3838C10.1008 15.329 10.092 15.3268 9.92627 15.3136C9.71641 15.3004 9.5927 15.2303 9.50654 15.079L9.45131 14.9803L9.44468 13.8443C9.44026 12.9979 9.44468 12.6996 9.46457 12.6755C9.48445 12.6514 9.55956 12.6448 9.79594 12.6448C10.1604 12.6448 10.1295 12.6799 10.1207 12.261L10.1141 11.9759L9.80477 11.965C9.63467 11.9584 9.48224 11.9452 9.46898 11.9365C9.44689 11.9233 9.44026 11.7895 9.44026 11.3926V10.8685L9.39166 10.8707C9.36294 10.8729 9.25691 10.8861 9.15308 10.9014Z" fill="#FF0000"/>
<path d="M1.4984 11.8904C1.33271 11.9058 0.93507 12.0001 0.813567 12.0527C0.789267 12.0637 0.745084 12.079 0.714156 12.0878C0.616954 12.1141 0.29442 12.2742 0.29442 12.2961C0.29442 12.3071 0.314302 12.3575 0.336393 12.4102C0.482196 12.7282 0.537425 12.8422 0.548471 12.8422C0.555098 12.8422 0.577189 12.8334 0.599281 12.8224C0.711947 12.7654 0.848913 12.7106 0.957161 12.6777C1.02344 12.658 1.10296 12.6317 1.13389 12.6207C1.2576 12.5768 1.58677 12.5549 1.7392 12.579C2.03964 12.6273 2.1501 12.7654 2.16777 13.1185C2.1766 13.3137 2.1766 13.3181 2.12579 13.3312C2.09708 13.34 1.89384 13.3466 1.67513 13.3466C1.14936 13.3466 0.988089 13.3773 0.647882 13.5417C0.356276 13.6821 0.13978 13.9474 0.0359507 14.2895C-0.0170686 14.4715 -0.0104412 14.8114 0.0492055 14.9913C0.248028 15.5877 0.720783 15.9364 1.37911 15.9715C1.97778 16.0044 2.59413 15.8268 2.98957 15.511L3.13316 15.3948L3.13979 14.2347C3.14642 12.8904 3.14421 12.8444 2.98073 12.5154C2.90783 12.3663 2.66262 12.1295 2.51018 12.0637C2.43949 12.0308 2.36217 11.9979 2.33787 11.9869C2.17219 11.9146 1.75245 11.8663 1.4984 11.8904ZM2.1501 14.0044C2.16335 14.022 2.17219 14.2829 2.17219 14.5987C2.17219 15.2215 2.18102 15.1821 2.01755 15.2676C1.95569 15.3005 1.88721 15.3071 1.67292 15.3092H1.40562L1.29516 15.2347C1.23551 15.1952 1.16482 15.1294 1.14052 15.0921C0.977043 14.8553 0.988089 14.4321 1.1604 14.2237C1.21121 14.1601 1.40562 14.0264 1.44096 14.0264C1.46305 14.0264 1.48735 14.0176 1.50061 14.0066C1.53154 13.9737 1.63316 13.965 1.89163 13.9694C2.07719 13.9715 2.13463 13.9781 2.1501 14.0044Z" fill="#FF0000"/>
<path d="M7.01019 11.943C6.57057 12.0461 6.21932 12.2325 5.86586 12.5527L5.77307 12.636V14.2369C5.77307 15.1162 5.77307 15.8531 5.77307 15.875C5.77307 15.9101 5.80621 15.9123 6.25466 15.9079L6.73405 15.9013L6.74067 14.3728L6.74509 12.8465L6.82904 12.7807C6.92845 12.7018 6.97705 12.6777 7.10518 12.6338C7.25761 12.5834 7.4962 12.5593 7.67514 12.579C7.7635 12.5878 7.84745 12.5922 7.86071 12.5856C7.87617 12.5812 7.91593 12.5066 7.95128 12.4189C7.98442 12.3312 8.03744 12.2172 8.06395 12.1645C8.13685 12.0264 8.13022 11.9913 8.03302 11.9694C7.98663 11.9584 7.90268 11.9387 7.84303 11.9255C7.68618 11.886 7.2068 11.897 7.01019 11.943Z" fill="#FF0000"/>
<path d="M11.815 11.9474C11.7421 11.9584 11.6737 11.9781 11.6626 11.9891C11.6494 12.0001 11.6273 12.0088 11.6096 12.0088C11.5919 12.0088 11.5124 12.0395 11.4351 12.079C11.265 12.1624 11.0043 12.4014 10.8938 12.579C10.7966 12.7347 10.684 12.9672 10.6663 13.0505C10.6575 13.0856 10.6442 13.136 10.6332 13.1601C10.6243 13.1843 10.5978 13.2786 10.5757 13.3685C10.5161 13.6053 10.5161 14.3641 10.5735 14.5856C10.6265 14.7895 10.7458 15.1009 10.7679 15.1009C10.779 15.1009 10.7878 15.1119 10.7878 15.125C10.7878 15.2083 11.0507 15.5395 11.2362 15.6886C11.318 15.7544 11.5013 15.8487 11.6383 15.8947C11.7863 15.9452 12.1133 16 12.2591 16C12.5728 16 13.1383 15.8662 13.3261 15.7478C13.3703 15.7215 13.4299 15.6908 13.4608 15.682C13.5271 15.6623 13.6729 15.5724 13.6906 15.5417C13.7105 15.511 13.4631 15.0132 13.4299 15.0132C13.4145 15.0132 13.3747 15.0329 13.3438 15.057C13.3128 15.0812 13.2753 15.1009 13.2576 15.1009C13.2421 15.1009 13.209 15.1141 13.1847 15.1316C13.1604 15.1469 13.0455 15.193 12.9307 15.2325C12.734 15.3005 12.7009 15.3048 12.4115 15.307C12.1376 15.307 12.0912 15.3026 12.0028 15.261C11.6935 15.1141 11.5168 14.7434 11.5168 14.2435C11.5168 14.136 11.519 14.0461 11.5234 14.0439C11.5256 14.0395 12.0161 14.0329 12.6103 14.0264L13.6928 14.0154L13.6862 13.7961C13.6729 13.3663 13.5581 12.7873 13.4586 12.6558C13.4498 12.6426 13.4189 12.5878 13.3902 12.533C13.2709 12.2983 13.019 12.0966 12.7208 11.9979C12.5021 11.9233 12.1022 11.9014 11.815 11.9474ZM12.29 12.6448C12.3828 12.6689 12.5772 12.8246 12.5772 12.8729C12.5772 12.886 12.5927 12.9255 12.6103 12.9584C12.6611 13.0571 12.7009 13.3816 12.6656 13.4233C12.6435 13.4518 12.5573 13.4562 12.1111 13.4562H11.5831L11.5698 13.4014C11.5411 13.2895 11.6184 12.9891 11.7068 12.8729C11.804 12.7435 11.8902 12.6777 12.0183 12.6404C12.089 12.6207 12.1575 12.6075 12.1729 12.6119C12.1862 12.6163 12.2392 12.6316 12.29 12.6448Z" fill="#FF0000"/>
<path d="M4.2046 10.4036C4.0367 10.4891 3.98589 10.5308 3.91299 10.6383C3.8423 10.7457 3.84009 10.7545 3.84009 10.9782V11.2106L3.92404 11.3247C4.02345 11.4584 4.08972 11.5067 4.23552 11.5571C4.43214 11.6207 4.60224 11.5966 4.79885 11.4738C5.03523 11.3247 5.11697 10.9431 4.97338 10.6624C4.92257 10.5637 4.87838 10.5177 4.74583 10.4343C4.62654 10.3576 4.32389 10.34 4.2046 10.4036Z" fill="#FF0000"/>
<path d="M4.74581 11.9869C4.71047 11.9979 4.61106 12.0176 4.5249 12.0286C4.44095 12.0396 4.28631 12.0615 4.18248 12.0768C4.07865 12.09 3.98808 12.1097 3.97703 12.1163C3.95715 12.1339 3.95494 15.8597 3.97262 15.8926C3.98145 15.9035 4.17807 15.9123 4.43653 15.9123C4.8872 15.9123 4.88941 15.9123 4.90045 15.8619C4.90708 15.8355 4.90929 14.9496 4.90708 13.8948C4.90045 11.9935 4.90045 11.976 4.85627 11.9716C4.83197 11.9694 4.78337 11.976 4.74581 11.9869Z" fill="#FF0000"/>
</g>
<defs>
<clipPath id="clip0_49_68">
<rect width="16" height="16" fill="white"/>
</clipPath>
</defs>
</svg>
