<svg width="80" height="8" viewBox="0 0 80 8" fill="none" xmlns="http://www.w3.org/2000/svg">
<path fill-rule="evenodd" clip-rule="evenodd" d="M73.9654 0.108642V1.48148H76.1383V7.89136H77.8272V1.48148H80V0.108642H73.9654ZM60.9975 4.66173C61.5605 2.8642 61.9062 1.73827 62.0247 1.28395C62.0543 1.41235 62.1037 1.59012 62.1728 1.80741C62.242 2.02469 62.5383 2.97284 63.0815 4.65185H60.9975V4.66173ZM60.9778 0.0790123L58.163 7.89136H59.9901L60.5728 6.03457H63.4864L64.0691 7.89136H65.8963L63.0519 0.0790123H60.9778ZM57.284 0.108642H55.4074L53.2346 2.75556L52.5728 3.67407V0.108642H50.884V7.89136H52.5728V5.11605L53.284 4.61235L55.3778 7.89136H57.3037L54.4889 3.55556L57.284 0.108642ZM45.8074 4.89877H47.3185V6.51852C46.9531 6.58765 46.5975 6.62716 46.242 6.62716C45.5605 6.62716 45.0469 6.4 44.6914 5.95556C44.3358 5.51111 44.158 4.86914 44.158 4.01975C44.158 3.20988 44.3753 2.5679 44.8198 2.08395C45.2642 1.60988 45.8469 1.36296 46.5778 1.36296C47.2099 1.36296 47.8123 1.50123 48.3951 1.78765L48.958 0.464198C48.1975 0.158025 47.4074 0 46.5877 0C45.284 0 44.2568 0.355556 43.516 1.05679C42.7753 1.75802 42.4099 2.7358 42.4099 3.99012C42.4099 5.28395 42.7259 6.27161 43.3679 6.96296C44 7.65432 44.9284 8 46.1333 8C46.6074 8 47.0716 7.97037 47.5259 7.90123C47.9802 7.8321 48.4642 7.72346 48.9778 7.55556V3.52593H45.8074V4.89877ZM39.2395 3.79259C39.2395 4.20741 39.2691 4.92839 39.3185 5.9358H39.279L35.8123 0.108642H33.679V7.89136H35.1901V4.22716C35.1901 3.78272 35.1605 3.04198 35.0815 2.00494H35.1309L38.6074 7.89136H40.7605V0.108642H39.2395V3.79259ZM29.9753 7.89136H31.6642V0.108642H29.9753V7.89136ZM24.1086 6.5284H23.3778V1.46173H24.2765C25.7877 1.46173 26.5481 2.30123 26.5481 3.97037C26.558 5.67901 25.7383 6.5284 24.1086 6.5284ZM24.1975 0.108642H21.6889V7.89136H23.9506C25.363 7.89136 26.4494 7.55556 27.1901 6.87407C27.9407 6.19259 28.3161 5.21481 28.3161 3.93086C28.3161 2.72593 27.9506 1.78765 27.2296 1.11605C26.5086 0.444444 25.5012 0.108642 24.1975 0.108642ZM18.1531 3.79259C18.1531 4.20741 18.1827 4.92839 18.2321 5.9358H18.1926L14.7259 0.108642H12.5926V7.89136H14.1037V4.22716C14.1037 3.78272 14.0642 3.04198 13.9951 2.00494H14.0444L17.521 7.89136H19.6741V0.108642H18.1531V3.79259ZM6.32099 7.89136H10.9235V6.5284H8.01975V4.52346H10.7259V3.17037H8.01975V1.46173H10.9235V0.108642H6.32099V7.89136ZM1.69877 0.108642H0V7.89136H4.93827V6.5284H1.69877V0.108642Z" fill="#294E9B"/>
<path fill-rule="evenodd" clip-rule="evenodd" d="M67.4864 0L66.9037 0.740741H68.4148C68.5629 0.750617 69.5506 0.849383 69.9259 1.6H67.4864L66.9037 2.33086H70.0741C70.0741 2.34074 70.0741 2.36049 70.0741 2.37037C70.0741 2.37037 70.1136 3.98025 67.2592 3.69383V4.55309L70.2815 8H71.4469V7.75309L68.5333 4.30617C68.5333 4.30617 70.8247 4.3358 71.2099 2.34074C71.2099 2.34074 71.2099 2.34074 71.2099 2.33086H72.1876L72.721 1.6H71.2099C71.1506 1.32346 70.9728 0.987654 70.7457 0.740741H72.2568L72.721 0L67.4864 0Z" fill="#FF7000"/>
</svg>
