<svg width="79" height="16" viewBox="0 0 79 16" fill="none" xmlns="http://www.w3.org/2000/svg">
<path fill-rule="evenodd" clip-rule="evenodd" d="M48.4176 6.29144C48.14 5.85959 47.7824 5.52795 47.346 5.29086C46.9097 5.05376 46.4457 4.93945 45.9569 4.93945C45.4349 4.93945 44.9503 5.07493 44.5125 5.34589C44.0762 5.61686 43.7324 5.98096 43.481 6.43397C43.2297 6.88698 43.1041 7.38798 43.0972 7.92708C43.0972 8.46195 43.2228 8.95588 43.481 9.4089C43.7324 9.86191 44.0831 10.2204 44.5263 10.4843C44.9696 10.7482 45.4598 10.8837 45.9886 10.8837C46.5507 10.8837 47.074 10.7355 47.5435 10.4306C48.0116 10.1272 48.3761 9.72784 48.6205 9.22685L48.6675 9.13229L47.248 9.11818L47.2286 9.13935C46.9055 9.50063 46.4844 9.67986 45.9569 9.67986C45.5302 9.67986 45.1712 9.55285 44.8798 9.29882C44.6064 9.05467 44.4421 8.75125 44.3869 8.38291H48.8139L48.8208 8.32505C48.8401 8.16982 48.8539 7.99623 48.8539 7.80712C48.8401 7.23274 48.6951 6.72469 48.4162 6.29002L48.4176 6.29144ZM44.4062 7.34564C44.5112 6.99988 44.6976 6.71622 44.9627 6.49748C45.2485 6.26321 45.5896 6.14184 45.9956 6.14184C46.3684 6.14184 46.7039 6.2618 46.9967 6.50453C47.2673 6.72892 47.4537 7.00694 47.5587 7.34564H44.4062Z" fill="#009944"/>
<path fill-rule="evenodd" clip-rule="evenodd" d="M35.0573 5.33676C34.6072 5.07286 34.1239 4.94443 33.6033 4.93738C33.0813 4.93738 32.5911 5.07286 32.1479 5.33676C31.6977 5.60067 31.347 5.96618 31.0888 6.4192C30.8306 6.87221 30.698 7.3732 30.698 7.90666C30.698 8.44011 30.8306 8.94111 31.0888 9.39412C31.347 9.85419 31.7046 10.2126 32.1479 10.4766C32.5911 10.7405 33.0813 10.8759 33.6033 10.8759C34.1252 10.8759 34.6154 10.7405 35.0587 10.4766C35.5088 10.2126 35.8596 9.84713 36.1178 9.39412C36.376 8.94111 36.5086 8.44011 36.5086 7.90666C36.5086 7.3732 36.376 6.87221 36.1178 6.4192C35.8596 5.95913 35.5019 5.60067 35.0587 5.33676H35.0573ZM35.078 8.79857C34.9275 9.06671 34.7287 9.28263 34.4746 9.43505C34.2205 9.59452 33.9347 9.67073 33.6157 9.67073C33.2967 9.67073 33.004 9.58746 32.7485 9.43505C32.4876 9.28263 32.2818 9.06671 32.1327 8.79857C31.978 8.53043 31.9021 8.23266 31.9021 7.90525C31.9021 7.57784 31.9767 7.28006 32.1258 7.01192C32.2763 6.74378 32.4807 6.52786 32.7416 6.37545C33.0026 6.21597 33.2885 6.13977 33.6143 6.13977C33.9402 6.13977 34.226 6.22303 34.4815 6.37545C34.737 6.52786 34.9413 6.74378 35.0849 7.01192C35.2285 7.28006 35.3031 7.57925 35.3031 7.90525C35.3031 8.23125 35.2285 8.53043 35.0794 8.79857H35.078Z" fill="#009944"/>
<path fill-rule="evenodd" clip-rule="evenodd" d="M29.2088 5.65941C28.7545 5.1824 28.1621 4.94531 27.4358 4.94531C27.0188 4.94531 26.6405 5.03281 26.3063 5.21768C26.0039 5.37857 25.7622 5.61707 25.5855 5.9219C25.4046 5.61848 25.1685 5.38421 24.8661 5.21768C24.5319 5.03281 24.1522 4.94531 23.7352 4.94531C23.0019 4.94531 22.4027 5.1824 21.9553 5.65941C21.5065 6.13923 21.2842 6.84486 21.2842 7.76077V10.7823H22.4869V7.76077C22.4869 7.20614 22.6015 6.80111 22.8142 6.54003C23.0323 6.2733 23.3306 6.14065 23.7352 6.14065C24.1398 6.14065 24.4435 6.28036 24.6562 6.54003C24.8688 6.80111 24.9779 7.20473 24.9779 7.76077V10.7823H26.1806V7.76077C26.1806 7.20614 26.2953 6.80111 26.5079 6.54003C26.7261 6.2733 27.0243 6.14065 27.4289 6.14065C27.8335 6.14065 28.1373 6.28036 28.3499 6.54003C28.5626 6.80111 28.6717 7.20473 28.6717 7.76077V10.7823H29.8813V7.76077C29.8813 6.84486 29.659 6.13782 29.2102 5.65941H29.2088Z" fill="#009944"/>
<path fill-rule="evenodd" clip-rule="evenodd" d="M39.7916 4.93738C39.046 4.93738 38.4398 5.17447 37.9855 5.65147C37.5298 6.1313 37.3075 6.83834 37.3075 7.75989V10.7814H38.5171V7.75989C38.5171 7.20526 38.6317 6.80023 38.8513 6.54056C39.0694 6.27384 39.3788 6.14118 39.7985 6.14118C40.2183 6.14118 40.5276 6.28089 40.7458 6.54056C40.964 6.80165 41.08 7.20526 41.08 7.75989V10.7814H42.2771V10.7151V7.75989C42.2771 6.83693 42.0548 6.12989 41.5992 5.65147C41.1449 5.17306 40.5387 4.93738 39.793 4.93738H39.7916Z" fill="#009944"/>
<path fill-rule="evenodd" clip-rule="evenodd" d="M68.9385 6.29144C68.6609 5.85959 68.3033 5.52795 67.8669 5.29086C67.4306 5.05376 66.9666 4.93945 66.4778 4.93945C65.9559 4.93945 65.4712 5.07493 65.0335 5.34589C64.5971 5.61686 64.2533 5.98096 64.002 6.43397C63.7507 6.88698 63.625 7.38798 63.625 7.92143C63.625 8.45489 63.7507 8.94883 64.0089 9.40184C64.2602 9.85485 64.6109 10.2133 65.0542 10.4772C65.4974 10.7411 65.9876 10.8766 66.5165 10.8766C67.0785 10.8766 67.6018 10.7284 68.0713 10.4236C68.5394 10.1202 68.904 9.72078 69.1484 9.21979L69.1953 9.12523L67.7689 9.11818L67.7496 9.13935C67.4265 9.50063 67.0053 9.67986 66.4778 9.67986C66.0511 9.67986 65.6921 9.55285 65.4008 9.29882C65.1274 9.05467 64.963 8.75125 64.9078 8.38291H69.3348L69.3417 8.32505C69.361 8.16982 69.3748 7.99623 69.3748 7.80712C69.361 7.23274 69.216 6.72469 68.9371 6.29002L68.9385 6.29144ZM64.9271 7.34564C65.0321 6.99988 65.2185 6.71622 65.4836 6.49748C65.7694 6.26321 66.1105 6.14184 66.5165 6.14184C66.8893 6.14184 67.2249 6.2618 67.5176 6.50453C67.7882 6.72892 67.9747 7.00694 68.0796 7.34564H64.9271Z" fill="#009944"/>
<path fill-rule="evenodd" clip-rule="evenodd" d="M77.6119 4.94672V7.96822C77.6119 8.52284 77.5028 8.92787 77.2902 9.18896C77.0858 9.45568 76.782 9.58834 76.3705 9.58834C75.9591 9.58834 75.6622 9.44863 75.4495 9.18896C75.2369 8.92787 75.1223 8.52284 75.1223 7.96822V4.94672H73.9127V7.96822C73.9127 8.52284 73.8036 8.92787 73.5909 9.18896C73.3865 9.45568 73.0828 9.58834 72.6713 9.58834C72.2598 9.58834 71.9629 9.44863 71.7503 9.18896C71.5376 8.92787 71.423 8.52284 71.423 7.96822V4.94672H70.2134V7.96822C70.2134 8.88412 70.4357 9.59116 70.8845 10.0696C71.3388 10.548 71.9311 10.7837 72.6644 10.7837C73.0814 10.7837 73.4597 10.6962 73.7939 10.5113C74.0963 10.3504 74.3379 10.1119 74.5147 9.80708C74.6956 10.1105 74.9317 10.3448 75.2341 10.5113C75.5683 10.6962 75.948 10.7837 76.365 10.7837C77.0983 10.7837 77.6906 10.5466 78.1518 10.0696C78.6006 9.58975 78.8229 8.88271 78.8229 7.96681V4.94531H77.6133L77.6119 4.94672Z" fill="#009944"/>
<path fill-rule="evenodd" clip-rule="evenodd" d="M53.4547 8.11895C53.4547 8.65241 53.3401 9.03768 53.1219 9.29171C52.9037 9.54573 52.5944 9.67274 52.1746 9.67274C51.7549 9.67274 51.4455 9.53303 51.2274 9.27336C51.0092 9.01228 50.8932 8.60866 50.8932 8.05403V5.03254H49.6836V8.04698C49.6836 8.96994 49.9059 9.67698 50.3616 10.1554C50.8159 10.6338 51.4221 10.8695 52.1677 10.8695C52.4398 10.8695 52.7007 10.8215 52.941 10.7255C53.1246 10.6507 53.2876 10.5505 53.4284 10.4235V10.5703C53.4284 10.9457 53.3166 11.2519 53.0915 11.482C52.8733 11.712 52.5613 11.8334 52.1677 11.8334C51.6996 11.8334 51.3447 11.6217 51.0907 11.1913L51.0713 11.1588H49.7333L49.7651 11.2477C49.957 11.7882 50.2677 12.2215 50.6861 12.5475C51.1059 12.8749 51.5988 13.0301 52.1871 13.0372C52.6565 13.0372 53.0818 12.9215 53.4616 12.6971C53.833 12.4656 54.1327 12.1537 54.3453 11.76C54.558 11.3592 54.6643 10.9189 54.6643 10.4391V5.03113H53.4547V8.11895Z" fill="#009944"/>
<path fill-rule="evenodd" clip-rule="evenodd" d="M62.0916 2.90943C61.8927 2.90943 61.7229 2.98282 61.5807 3.11971C61.4371 3.25942 61.3666 3.44289 61.3666 3.65034C61.3666 3.85779 61.4384 4.02856 61.5793 4.1725C61.7201 4.31645 61.8927 4.38984 62.0902 4.38984C62.2877 4.38984 62.4603 4.31645 62.597 4.17109C62.7309 4.02714 62.8027 3.85215 62.8027 3.64893C62.8027 3.44571 62.7309 3.27212 62.597 3.12676C62.4616 2.98141 62.289 2.90802 62.0902 2.90802L62.0916 2.90943Z" fill="#009944"/>
<path d="M62.7007 5.03113H61.4907V10.7834H62.7007V5.03113Z" fill="#009944"/>
<path fill-rule="evenodd" clip-rule="evenodd" d="M58.0038 9.10965L56.4297 5.03113H55.1579L57.4225 10.7834H58.5907L60.8608 5.03113H59.589L58.0038 9.10965Z" fill="#009944"/>
<path fill-rule="evenodd" clip-rule="evenodd" d="M7.82799 0C3.50457 0 0 3.58177 0 8.00041C0 9.5542 0.434964 11.0036 1.18476 12.2313L3.87464 6.06699C4.02239 5.72828 4.35103 5.50813 4.71557 5.50813H4.71833C5.08288 5.50813 5.41152 5.72264 5.56203 6.06134L7.07543 9.46952L9.63689 3.72854C9.7874 3.38984 10.116 3.17532 10.4778 3.17532H10.4833C10.8479 3.17815 11.1765 3.3983 11.3243 3.73983L14.7515 11.7346C15.3287 10.6197 15.656 9.34956 15.656 8.00182C15.656 3.58318 12.1514 0.00140984 7.82799 0.00140984V0Z" fill="#009944"/>
<path fill-rule="evenodd" clip-rule="evenodd" d="M10.1897 7.02073L7.90859 12.1323C7.75807 12.471 7.42943 12.6855 7.06765 12.6855C6.70587 12.6855 6.37723 12.4682 6.22672 12.1323L4.98811 9.33942C4.88731 9.11221 4.56971 9.11221 4.46753 9.34224L2.49707 13.8583C3.89448 15.1863 5.7669 16.0005 7.82574 16.0005C10.0572 16.0005 12.0677 15.0451 13.4941 13.5153L10.7117 7.02355C10.6109 6.79352 10.2905 6.7907 10.1884 7.02073H10.1897Z" fill="#009944"/>
</svg>
