<svg width="246" height="180" viewBox="0 0 246 180" fill="none" xmlns="http://www.w3.org/2000/svg">
<g opacity="0.88">
<g opacity="0.54">
<path d="M77.809 107.552C78.1732 107.552 78.4686 107.256 78.4686 106.891C78.4686 106.526 78.1732 106.23 77.809 106.23C77.4447 106.23 77.1494 106.526 77.1494 106.891C77.1494 107.256 77.4447 107.552 77.809 107.552Z" fill="#161742"/>
<path d="M99.1667 108.501C99.5943 108.501 99.9409 108.154 99.9409 107.725C99.9409 107.296 99.5943 106.949 99.1667 106.949C98.7392 106.949 98.3926 107.296 98.3926 107.725C98.3926 108.154 98.7392 108.501 99.1667 108.501Z" fill="#161742"/>
<path d="M59.2736 137.236C59.5962 137.236 59.8577 136.973 59.8577 136.65C59.8577 136.326 59.5962 136.064 59.2736 136.064C58.951 136.064 58.6895 136.326 58.6895 136.65C58.6895 136.973 58.951 137.236 59.2736 137.236Z" fill="#161742"/>
<path d="M90.5616 126.666C90.929 126.666 91.2268 126.367 91.2268 125.999C91.2268 125.63 90.929 125.332 90.5616 125.332C90.1943 125.332 89.8965 125.63 89.8965 125.999C89.8965 126.367 90.1943 126.666 90.5616 126.666Z" fill="#161742"/>
<path d="M76.0764 133.536C76.4206 133.536 76.6996 133.256 76.6996 132.911C76.6996 132.566 76.4206 132.286 76.0764 132.286C75.7322 132.286 75.4531 132.566 75.4531 132.911C75.4531 133.256 75.7322 133.536 76.0764 133.536Z" fill="#161742"/>
<path d="M60.0728 109.329C60.5142 109.329 60.8721 108.97 60.8721 108.527C60.8721 108.085 60.5142 107.726 60.0728 107.726C59.6313 107.726 59.2734 108.085 59.2734 108.527C59.2734 108.97 59.6313 109.329 60.0728 109.329Z" fill="#161742"/>
<path d="M68.8738 103.43C69.4017 103.43 69.8296 103.001 69.8296 102.472C69.8296 101.943 69.4017 101.513 68.8738 101.513C68.3459 101.513 67.918 101.943 67.918 102.472C67.918 103.001 68.3459 103.43 68.8738 103.43Z" fill="#161742"/>
<path d="M92.7555 113.989C93.0395 113.989 93.2697 113.759 93.2697 113.474C93.2697 113.189 93.0395 112.958 92.7555 112.958C92.4715 112.958 92.2412 113.189 92.2412 113.474C92.2412 113.759 92.4715 113.989 92.7555 113.989Z" fill="#161742"/>
<path d="M65.7379 81.3563C66.1114 81.3563 66.4142 81.0527 66.4142 80.6782C66.4142 80.3036 66.1114 80 65.7379 80C65.3643 80 65.0615 80.3036 65.0615 80.6782C65.0615 81.0527 65.3643 81.3563 65.7379 81.3563Z" fill="#161742"/>
<path d="M81.5011 84.0689C81.7898 84.0689 82.0238 83.8343 82.0238 83.5449C82.0238 83.2555 81.7898 83.0209 81.5011 83.0209C81.2125 83.0209 80.9785 83.2555 80.9785 83.5449C80.9785 83.8343 81.2125 84.0689 81.5011 84.0689Z" fill="#161742"/>
<path d="M57.0913 92.6035C57.3429 92.6035 57.5468 92.399 57.5468 92.1467C57.5468 91.8944 57.3429 91.6899 57.0913 91.6899C56.8397 91.6899 56.6357 91.8944 56.6357 92.1467C56.6357 92.399 56.8397 92.6035 57.0913 92.6035Z" fill="#161742"/>
<path d="M84.6899 130.039C85.1314 130.039 85.4892 129.681 85.4892 129.238C85.4892 128.795 85.1314 128.436 84.6899 128.436C84.2485 128.436 83.8906 128.795 83.8906 129.238C83.8906 129.681 84.2485 130.039 84.6899 130.039Z" fill="#161742"/>
<path d="M66.5068 133.534C66.9313 133.534 67.2754 133.189 67.2754 132.763C67.2754 132.337 66.9313 131.992 66.5068 131.992C66.0824 131.992 65.7383 132.337 65.7383 132.763C65.7383 133.189 66.0824 133.534 66.5068 133.534Z" fill="#161742"/>
<path d="M54.6735 126.047C55.0455 126.047 55.3471 125.745 55.3471 125.372C55.3471 124.999 55.0455 124.697 54.6735 124.697C54.3016 124.697 54 124.999 54 125.372C54 125.745 54.3016 126.047 54.6735 126.047Z" fill="#161742"/>
</g>
<g opacity="0.54">
<path d="M217.274 163.539C217.596 163.539 217.858 163.276 217.858 162.953C217.858 162.63 217.596 162.367 217.274 162.367C216.951 162.367 216.689 162.63 216.689 162.953C216.689 163.276 216.951 163.539 217.274 163.539Z" fill="#161742"/>
<path d="M234.079 159.836C234.423 159.836 234.703 159.556 234.703 159.211C234.703 158.865 234.423 158.586 234.079 158.586C233.735 158.586 233.456 158.865 233.456 159.211C233.456 159.556 233.735 159.836 234.079 159.836Z" fill="#161742"/>
<path d="M224.507 159.837C224.931 159.837 225.275 159.492 225.275 159.066C225.275 158.641 224.931 158.296 224.507 158.296C224.082 158.296 223.738 158.641 223.738 159.066C223.738 159.492 224.082 159.837 224.507 159.837Z" fill="#161742"/>
<path d="M212.674 152.35C213.046 152.35 213.347 152.048 213.347 151.675C213.347 151.302 213.046 151 212.674 151C212.302 151 212 151.302 212 151.675C212 152.048 212.302 152.35 212.674 152.35Z" fill="#161742"/>
</g>
<g opacity="0.54">
<path d="M34.2073 163.557C34.8741 163.557 35.4147 163.015 35.4147 162.346C35.4147 161.677 34.8741 161.135 34.2073 161.135C33.5405 161.135 33 161.677 33 162.346C33 163.015 33.5405 163.557 34.2073 163.557Z" fill="#161742"/>
<path d="M63.7367 67.5966C64.3139 67.5966 64.7819 67.1274 64.7819 66.5486C64.7819 65.9697 64.3139 65.5005 63.7367 65.5005C63.1594 65.5005 62.6914 65.9697 62.6914 66.5486C62.6914 67.1274 63.1594 67.5966 63.7367 67.5966Z" fill="#161742"/>
<path d="M35.9652 65.2121C36.5641 65.2121 37.0496 64.7253 37.0496 64.1248C37.0496 63.5243 36.5641 63.0375 35.9652 63.0375C35.3664 63.0375 34.8809 63.5243 34.8809 64.1248C34.8809 64.7253 35.3664 65.2121 35.9652 65.2121Z" fill="#161742"/>
<path d="M34.8806 40.3505C35.2526 40.3505 35.5541 40.0481 35.5541 39.6751C35.5541 39.3021 35.2526 38.9998 34.8806 38.9998C34.5086 38.9998 34.207 39.3021 34.207 39.6751C34.207 40.0481 34.5086 40.3505 34.8806 40.3505Z" fill="#161742"/>
</g>
<g opacity="0.54">
<path d="M202.809 69.7846C203.173 69.7846 203.469 69.4885 203.469 69.1233C203.469 68.758 203.173 68.4619 202.809 68.4619C202.445 68.4619 202.149 68.758 202.149 69.1233C202.149 69.4885 202.445 69.7846 202.809 69.7846Z" fill="#161742"/>
<path d="M227.49 59.3947C227.918 59.3947 228.264 59.0471 228.264 58.6184C228.264 58.1897 227.918 57.8422 227.49 57.8422C227.062 57.8422 226.716 58.1897 226.716 58.6184C226.716 59.0471 227.062 59.3947 227.49 59.3947Z" fill="#161742"/>
<path d="M184.274 99.4675C184.596 99.4675 184.858 99.2053 184.858 98.8818C184.858 98.5584 184.596 98.2961 184.274 98.2961C183.951 98.2961 183.689 98.5584 183.689 98.8818C183.689 99.2053 183.951 99.4675 184.274 99.4675Z" fill="#161742"/>
<path d="M202.809 83.8586C203.176 83.8586 203.474 83.56 203.474 83.1916C203.474 82.8233 203.176 82.5247 202.809 82.5247C202.441 82.5247 202.144 82.8233 202.144 83.1916C202.144 83.56 202.441 83.8586 202.809 83.8586Z" fill="#161742"/>
<path d="M201.079 95.7675C201.423 95.7675 201.703 95.4878 201.703 95.1426C201.703 94.7975 201.423 94.5177 201.079 94.5177C200.735 94.5177 200.456 94.7975 200.456 95.1426C200.456 95.4878 200.735 95.7675 201.079 95.7675Z" fill="#161742"/>
<path d="M185.073 71.5607C185.514 71.5607 185.872 71.2019 185.872 70.7592C185.872 70.3166 185.514 69.9578 185.073 69.9578C184.631 69.9578 184.273 70.3166 184.273 70.7592C184.273 71.2019 184.631 71.5607 185.073 71.5607Z" fill="#161742"/>
<path d="M213.514 120.031C213.798 120.031 214.028 119.8 214.028 119.516C214.028 119.231 213.798 119 213.514 119C213.23 119 213 119.231 213 119.516C213 119.8 213.23 120.031 213.514 120.031Z" fill="#161742"/>
<path d="M199.676 30.3563C200.05 30.3563 200.353 30.0527 200.353 29.6782C200.353 29.3036 200.05 29 199.676 29C199.303 29 199 29.3036 199 29.6782C199 30.0527 199.303 30.3563 199.676 30.3563Z" fill="#161742"/>
<path d="M199.523 55.0478C199.811 55.0478 200.045 54.8132 200.045 54.5238C200.045 54.2344 199.811 53.9998 199.523 53.9998C199.234 53.9998 199 54.2344 199 54.5238C199 54.8132 199.234 55.0478 199.523 55.0478Z" fill="#161742"/>
<path d="M225.908 26.8215C226.41 26.8215 226.817 26.4138 226.817 25.9108C226.817 25.4078 226.41 25 225.908 25C225.407 25 225 25.4078 225 25.9108C225 26.4138 225.407 26.8215 225.908 26.8215Z" fill="#161742"/>
<path d="M171.456 59.9136C171.707 59.9136 171.911 59.7091 171.911 59.4568C171.911 59.2045 171.707 59 171.456 59C171.204 59 171 59.2045 171 59.4568C171 59.7091 171.204 59.9136 171.456 59.9136Z" fill="#161742"/>
<path d="M218.799 78.6029C219.241 78.6029 219.599 78.2441 219.599 77.8015C219.599 77.3588 219.241 77 218.799 77C218.358 77 218 77.3588 218 77.8015C218 78.2441 218.358 78.6029 218.799 78.6029Z" fill="#161742"/>
<path d="M191.507 95.7656C191.931 95.7656 192.275 95.4206 192.275 94.995C192.275 94.5694 191.931 94.2244 191.507 94.2244C191.082 94.2244 190.738 94.5694 190.738 94.995C190.738 95.4206 191.082 95.7656 191.507 95.7656Z" fill="#161742"/>
<path d="M179.674 88.2793C180.046 88.2793 180.347 87.9769 180.347 87.6039C180.347 87.231 180.046 86.9286 179.674 86.9286C179.302 86.9286 179 87.231 179 87.6039C179 87.9769 179.302 88.2793 179.674 88.2793Z" fill="#161742"/>
</g>
</g>
<path d="M161 56C161 86.9279 135.256 112 103.5 112C71.7436 112 46 86.9279 46 56C46 25.0721 71.7436 0 103.5 0C135.256 0 161 25.0721 161 56Z" fill="#5BC4F0" fill-opacity="0.1"/>
<path opacity="0.2" d="M126.5 180C192.498 180 246 174.627 246 168C246 161.373 192.498 156 126.5 156C60.502 156 7 161.373 7 168C7 174.627 60.502 180 126.5 180Z" fill="#5BC4F0"/>
<path d="M152.894 166.792C146.664 166.792 142.505 166.516 141.902 166.476C137.651 166.177 134.453 162.49 134.752 158.245C135.051 153.994 138.755 150.784 142.983 151.095C156.914 152.056 196.379 151.469 211.587 137.319C215.556 133.62 217.494 129.26 217.511 123.986C217.529 117.314 212.979 114.616 202.602 110.049C194.785 106.609 185.927 102.709 184.029 93.3564C182.321 84.9355 186.945 75.6748 199.479 62.3877C202.401 59.2931 207.285 59.1493 210.379 62.0713C213.474 64.9933 213.617 69.8768 210.695 72.9714C198.438 85.9651 199.111 90.1238 199.145 90.2964C199.45 91.8149 205.542 94.4953 208.814 95.9391C218.438 100.173 232.979 106.575 232.933 124.032C232.91 133.684 229.257 141.955 222.084 148.627C204.909 164.595 170.569 166.804 152.899 166.804L152.894 166.792Z" fill="#FFD325"/>
<path d="M167.326 78.6548C167.326 78.6548 182.126 91.8326 185.157 106.023C188.189 120.213 190.967 139.488 193.739 144.544C196.512 149.6 212.819 154.8 211.95 162.945C211.081 171.089 190.834 167.678 180.636 167.678C170.438 167.678 114.597 167.074 95.8345 167.661C77.0312 168.254 65.0728 167.207 66.0564 163.514C67.04 159.815 67.3966 157.808 73.3729 155.381C75.3459 154.581 72.6769 150.267 72.0672 145.97C71.4575 141.668 74.2702 131.217 83.5079 127.184C92.7456 123.152 92.2395 116.595 93.7465 111.671C95.2535 106.748 99.8091 83.2736 103.329 78.7641C106.85 74.2603 125.032 69.8254 125.032 69.8254L167.32 78.6433L167.326 78.6548Z" fill="#FFD325"/>
<path d="M101.007 142.174C103.492 143.824 109.095 150.393 110.642 153.545C112.189 156.697 117.705 157.117 119.103 159.481C126.167 171.417 138.062 167.132 140.098 166.021C142.134 164.911 144.441 161.702 139.465 152.596C134.49 143.491 133.385 130.957 133.385 130.957L101.007 142.174Z" fill="#FFD325"/>
<path d="M147.676 132.418C147.676 132.418 148.942 136.358 150.598 137.865C150.598 137.865 149.546 144.825 147.124 150.422C144.703 156.019 141.574 164.123 147.36 166.372C153.147 168.627 162.804 163.433 167.342 156.105C171.881 148.777 176.143 139.746 176.897 139.206C177.65 138.665 184.305 140.339 181.791 135.967L147.676 132.412V132.418Z" fill="#FFD325"/>
<path d="M165.194 159.01C164.302 157.52 161.765 156.18 157.871 153.229C154.012 150.301 149.439 150.589 146.833 151.101C144.463 156.657 141.806 164.21 147.362 166.378C152.349 168.322 160.212 164.727 165.194 159.01Z" fill="white"/>
<path d="M139.467 152.597C138.904 151.561 138.386 150.486 137.92 149.381C135.406 148.398 131.84 147.546 127.969 148.375C120.618 149.945 116.143 152.66 117.581 156.864C117.771 157.411 117.955 157.946 118.133 158.464C118.542 158.763 118.875 159.096 119.105 159.476C126.169 171.411 138.064 167.126 140.1 166.016C142.136 164.906 144.443 161.696 139.467 152.591V152.597Z" fill="white"/>
<path d="M150.424 167.684C149.227 167.684 148.1 167.494 147.082 167.097C145.523 166.487 144.43 165.458 143.837 164.031C142.353 160.476 144.2 155.242 146.42 150.123C148.456 145.418 149.52 139.654 149.779 138.136C148.152 136.364 147.001 132.815 146.949 132.654C146.817 132.251 147.041 131.814 147.45 131.688C147.852 131.55 148.29 131.78 148.416 132.182C148.75 133.223 149.889 136.174 151.125 137.296C151.315 137.468 151.407 137.727 151.367 137.98C151.321 138.268 150.274 145.101 147.841 150.727C146.541 153.735 143.832 159.988 145.27 163.427C145.701 164.468 146.483 165.199 147.651 165.653C152.983 167.741 162.238 162.892 166.696 155.697C169.129 151.768 171.516 147.281 173.265 144.003C175.456 139.89 176.014 138.895 176.457 138.573C176.865 138.279 177.469 138.291 178.47 138.314C179.368 138.331 181.231 138.366 181.548 137.837C181.599 137.75 181.726 137.376 181.139 136.347C180.926 135.979 181.053 135.507 181.421 135.294C181.783 135.081 182.261 135.208 182.474 135.576C183.204 136.847 183.331 137.842 182.876 138.619C182.106 139.925 180.069 139.884 178.442 139.855C178.068 139.844 177.561 139.838 177.337 139.867C176.94 140.385 175.761 142.593 174.628 144.727C172.874 148.023 170.469 152.539 168.013 156.508C163.946 163.076 156.36 167.672 150.441 167.672L150.424 167.684Z" fill="#161742"/>
<path d="M132.696 168.484C128.02 168.484 122.434 166.62 118.442 159.879C117.925 159.004 116.539 158.377 115.066 157.716C113.122 156.842 110.913 155.847 109.953 153.885C108.497 150.923 102.981 144.406 100.582 142.813C100.226 142.577 100.128 142.099 100.364 141.743C100.6 141.386 101.083 141.294 101.434 141.524C104.091 143.29 109.734 149.945 111.333 153.201C112.052 154.662 113.904 155.496 115.693 156.307C117.396 157.072 119 157.796 119.765 159.091C127.105 171.498 139.604 165.412 139.725 165.349C140.852 164.733 141.491 163.687 141.64 162.231C141.87 159.965 140.91 156.853 138.787 152.965C133.795 143.825 132.661 131.544 132.615 131.027C132.575 130.601 132.891 130.227 133.317 130.193C133.708 130.17 134.117 130.469 134.151 130.894C134.163 131.015 135.302 143.376 140.139 152.229C142.411 156.393 143.435 159.81 143.176 162.387C142.929 164.866 141.565 166.102 140.467 166.701C138.989 167.512 136.078 168.484 132.696 168.484Z" fill="#161742"/>
<path d="M136.06 168.116C135.657 168.116 135.318 167.805 135.289 167.397C135.111 164.802 132.148 161.645 132.12 161.61C131.826 161.299 131.838 160.811 132.148 160.523C132.459 160.23 132.948 160.241 133.235 160.552C133.374 160.695 136.612 164.141 136.825 167.293C136.853 167.719 136.531 168.087 136.106 168.116C136.088 168.116 136.071 168.116 136.054 168.116H136.06Z" fill="#161742"/>
<path d="M140.059 166.752C139.656 166.752 139.317 166.442 139.288 166.033C139.11 163.439 136.148 160.281 136.119 160.247C135.826 159.936 135.843 159.447 136.148 159.159C136.458 158.866 136.947 158.878 137.235 159.188C137.373 159.332 140.611 162.778 140.824 165.93C140.853 166.355 140.531 166.723 140.105 166.752C140.088 166.752 140.071 166.752 140.053 166.752H140.059Z" fill="#161742"/>
<path d="M145.402 165.849C145.361 165.849 145.321 165.849 145.281 165.837C144.861 165.774 144.573 165.377 144.637 164.957C145.062 162.185 147.426 158.567 147.524 158.417C147.76 158.061 148.237 157.963 148.594 158.193C148.951 158.429 149.048 158.906 148.813 159.263C148.79 159.297 146.535 162.754 146.161 165.193C146.103 165.573 145.776 165.849 145.402 165.849Z" fill="#161742"/>
<path d="M148.906 167.069C148.865 167.069 148.825 167.069 148.785 167.057C148.365 166.994 148.077 166.597 148.141 166.177C148.578 163.347 151.459 160.04 151.58 159.896C151.862 159.574 152.351 159.545 152.667 159.827C152.99 160.109 153.018 160.598 152.742 160.914C152.713 160.943 150.033 164.026 149.671 166.413C149.613 166.793 149.285 167.069 148.911 167.069H148.906Z" fill="#161742"/>
<path d="M210.191 166.74C209.932 166.74 209.685 166.608 209.535 166.378C207.781 163.542 204.83 162.352 204.801 162.34C204.405 162.185 204.209 161.736 204.364 161.339C204.52 160.942 204.963 160.747 205.365 160.902C205.503 160.954 208.811 162.277 210.847 165.561C211.071 165.924 210.962 166.401 210.6 166.625C210.473 166.706 210.329 166.74 210.191 166.74Z" fill="#161742"/>
<path d="M211.723 164.146C211.464 164.146 211.217 164.014 211.067 163.784C209.301 160.931 206.368 159.757 206.333 159.746C205.936 159.59 205.741 159.142 205.896 158.745C206.051 158.348 206.494 158.152 206.897 158.308C207.035 158.359 210.342 159.682 212.379 162.967C212.603 163.329 212.494 163.807 212.131 164.031C212.005 164.111 211.861 164.146 211.723 164.146Z" fill="#161742"/>
<path d="M67.0233 166.58C67.0233 166.58 66.9772 166.58 66.9542 166.58C66.5286 166.545 66.2122 166.171 66.2525 165.745C66.6839 160.632 71.0439 158.584 71.228 158.498C71.6191 158.325 72.0735 158.498 72.2461 158.878C72.4244 159.263 72.2576 159.723 71.8722 159.901C71.7226 159.97 68.1392 161.679 67.7883 165.878C67.7538 166.28 67.4201 166.585 67.0233 166.585V166.58Z" fill="#161742"/>
<path d="M70.178 167.793C70.178 167.793 70.132 167.793 70.109 167.793C69.6834 167.758 69.367 167.385 69.4073 166.959C69.8444 161.742 75.5504 160.304 75.7978 160.246C76.2177 160.154 76.626 160.402 76.7296 160.816C76.8331 161.23 76.58 161.644 76.1659 161.748C75.9645 161.799 71.2939 162.996 70.9488 167.091C70.9143 167.494 70.5807 167.799 70.1838 167.799L70.178 167.793Z" fill="#161742"/>
<path d="M110.704 45.5803C110.704 45.5803 153.614 20.9445 169.697 56.118C180.229 79.149 175.84 84.2798 142.697 86.2469C100.978 88.7261 81.8867 83.4112 110.704 45.5861V45.5803Z" fill="#FFD325"/>
<path d="M130.125 64.5748C130.045 63.5772 132.249 62.5743 135.058 62.3365C137.866 62.0986 140.207 62.7179 140.293 63.715C140.374 64.7126 135.366 67.5225 135.366 67.5225C135.366 67.5225 130.212 65.572 130.131 64.5743L130.125 64.5748Z" fill="#161742"/>
<path d="M128.738 77.5719C128.337 77.6042 127.973 77.3162 127.912 76.9114C127.849 76.4895 128.146 76.0962 128.563 76.0395C135.22 75.0875 134.446 67.123 134.407 66.7856C134.361 66.3623 134.671 65.9853 135.095 65.9396C135.526 65.9222 135.901 66.2036 135.941 66.6274C136.3 70.0089 135.27 76.6415 128.779 77.5744C128.761 77.5758 128.744 77.5772 128.733 77.5781L128.738 77.5719Z" fill="#161742"/>
<path d="M142.281 77.5712C142.189 77.5786 142.096 77.5688 142.007 77.5413C138.486 76.5267 136.107 74.791 134.939 72.3922C133.349 69.133 134.627 65.8792 134.686 65.7475C134.845 65.3539 135.291 65.1621 135.69 65.3204C136.084 65.4791 136.276 65.9252 136.117 66.3246C136.108 66.3485 135.043 69.1003 136.334 71.7373C137.308 73.719 139.358 75.1753 142.436 76.0641C142.844 76.1813 143.081 76.6123 142.963 77.0199C142.874 77.3388 142.597 77.5515 142.287 77.5765L142.281 77.5712Z" fill="#161742"/>
<path d="M148.76 40.507C148.76 40.507 158.895 23.7515 161.743 25.0744C164.59 26.4031 174 36.6935 171.711 50.4752C169.421 64.257 148.76 40.5013 148.76 40.5013V40.507Z" fill="#FFD325"/>
<path d="M105.226 54.3579C105.226 54.3579 95.9654 37.1019 98.5596 35.3246C101.154 33.5472 113.043 33.9038 125.496 39.6846C138.168 45.5689 105.226 54.3522 105.226 54.3522V54.3579Z" fill="#FFD325"/>
<path d="M165.967 48.5083C165.967 48.5083 165.915 48.5083 165.886 48.5083C165.461 48.4623 165.156 48.0827 165.202 47.6628C165.915 40.8236 160.036 31.6319 159.973 31.5399C159.743 31.1833 159.847 30.7059 160.203 30.4758C160.56 30.2457 161.037 30.3493 161.267 30.7059C161.52 31.1028 167.497 40.4555 166.732 47.8296C166.691 48.2264 166.358 48.5198 165.967 48.5198V48.5083Z" fill="#161742"/>
<path d="M157.169 40.6915C157.134 40.6915 157.094 40.6915 157.059 40.6857C156.639 40.6282 156.346 40.2371 156.404 39.8172C157.031 35.3651 161.253 32.6732 161.437 32.5639C161.805 32.3338 162.276 32.4488 162.501 32.8055C162.725 33.1678 162.616 33.6395 162.259 33.8696C162.219 33.8926 158.463 36.3027 157.939 40.03C157.888 40.4154 157.554 40.6915 157.18 40.6915H157.169Z" fill="#161742"/>
<path d="M104.884 54.0413C104.717 54.0413 104.551 53.9896 104.407 53.8745C104.073 53.6099 104.016 53.1268 104.275 52.7931C104.418 52.6091 107.846 48.2721 112.782 45.2926C113.144 45.074 113.616 45.189 113.84 45.5571C114.059 45.9195 113.944 46.3969 113.575 46.6155C108.876 49.4512 105.517 53.702 105.482 53.748C105.333 53.9436 105.103 54.0413 104.873 54.0413H104.884Z" fill="#161742"/>
<path d="M116.158 43.228C115.98 43.228 115.802 43.1647 115.652 43.0382C111.315 39.2879 101.525 39.2591 101.399 39.2994C100.973 39.2994 100.628 38.96 100.628 38.5344C100.628 38.1087 100.967 37.7636 101.393 37.7578C101.767 37.7406 111.879 37.7348 116.664 41.8705C116.987 42.1466 117.021 42.6355 116.745 42.9577C116.595 43.136 116.377 43.2222 116.164 43.2222L116.158 43.228Z" fill="#161742"/>
<path d="M145.339 57.0424C144.899 59.4037 145.657 61.53 147.031 61.7815C148.405 62.033 149.874 60.3239 150.314 57.9626C150.753 55.6013 149.996 53.475 148.622 53.2235C147.247 52.9662 145.779 54.681 145.339 57.0424Z" fill="#161742"/>
<path d="M120.946 56.9264C120.856 59.3266 121.916 61.3196 123.312 61.3678C124.71 61.4216 125.912 59.5108 126.002 57.1106C126.092 54.7104 125.032 52.7174 123.636 52.6692C122.24 52.621 121.037 54.5262 120.946 56.9264Z" fill="#161742"/>
<path d="M209.179 157.359C208.949 157.359 208.719 157.256 208.564 157.055C207.034 155.047 197.025 147.8 193.298 145.171C192.953 144.924 192.866 144.446 193.114 144.095C193.361 143.75 193.839 143.664 194.189 143.911C194.742 144.302 207.804 153.517 209.795 156.123C210.053 156.462 209.99 156.945 209.651 157.204C209.513 157.313 209.346 157.365 209.185 157.365L209.179 157.359Z" fill="#161742"/>
<path d="M133.932 87.4777C115.687 87.4777 101.318 82.7151 101.146 82.6576C100.743 82.5195 100.524 82.0824 100.663 81.6798C100.801 81.2771 101.238 81.0585 101.64 81.1966C101.842 81.2656 121.974 87.9264 144.717 85.338C145.12 85.292 145.522 85.5969 145.568 86.0168C145.614 86.4424 145.31 86.822 144.89 86.868C141.145 87.2937 137.464 87.472 133.932 87.472V87.4777Z" fill="#161742"/>
<path d="M0.561586 133L37.5059 142.858L0.561584 152.72L0.561586 133Z" fill="#FFD325"/>
<path d="M44.9509 98L53.5645 111.985L28.199 98.0169L44.9509 98Z" fill="#FFD325"/>
<path d="M23.8648 98.0018L36.1367 117.925L0.000142873 98.0271L23.8648 98.0018Z" fill="#FFD325"/>
<path d="M0.289168 102.851L33.4102 133L0.289166 127.03L0.289168 102.851Z" fill="#FFD325"/>
<path d="M45.326 136.992C45.1858 135.925 45.1998 134.949 45.2559 134.008C45.312 133.067 45.4171 132.155 45.5783 131.284C45.9007 129.536 46.3773 127.893 47.0011 126.349C48.2347 123.246 49.9869 120.479 52.1176 117.966C54.2553 115.453 56.7784 113.199 59.8203 111.289C61.3342 110.328 62.9953 109.464 64.8176 108.706C65.7287 108.327 66.6959 107.983 67.7122 107.674C68.7285 107.365 69.7939 107.084 70.9994 106.902C71.1395 107.976 71.1325 108.952 71.0835 109.892C71.0274 110.833 70.9223 111.746 70.7681 112.623C70.4527 114.372 69.9691 116.014 69.3453 117.566C68.1047 120.669 66.3525 123.435 64.2148 125.934C62.0701 128.441 59.5399 130.687 56.4911 132.604C54.9772 133.566 53.3161 134.429 51.4938 135.188C50.5826 135.567 49.6224 135.911 48.6061 136.227C47.5899 136.536 46.5315 136.816 45.326 137.006V136.992Z" fill="#32B353"/>
<mask id="mask0_1_9458" style="mask-type:luminance" maskUnits="userSpaceOnUse" x="45" y="106" width="27" height="32">
<path d="M45.326 136.992C45.1858 135.925 45.1998 134.949 45.2559 134.008C45.312 133.067 45.4171 132.155 45.5783 131.284C45.9007 129.536 46.3773 127.893 47.0011 126.349C48.2347 123.246 49.9869 120.479 52.1176 117.966C54.2553 115.453 56.7784 113.199 59.8203 111.289C61.3342 110.328 62.9953 109.464 64.8176 108.706C65.7287 108.327 66.6959 107.983 67.7122 107.674C68.7285 107.365 69.7939 107.084 70.9994 106.902C71.1395 107.976 71.1325 108.952 71.0835 109.892C71.0274 110.833 70.9223 111.746 70.7681 112.623C70.4527 114.372 69.9691 116.014 69.3453 117.566C68.1047 120.669 66.3525 123.435 64.2148 125.934C62.0701 128.441 59.5399 130.687 56.4911 132.604C54.9772 133.566 53.3161 134.429 51.4938 135.188C50.5826 135.567 49.6224 135.911 48.6061 136.227C47.5899 136.536 46.5315 136.816 45.326 137.006V136.992Z" fill="white"/>
</mask>
<g mask="url(#mask0_1_9458)">
<path d="M72.8635 120.262L72.8074 119.967L58.208 122.136L64.0884 115.242L79.0453 113.017L78.9822 112.722L64.3898 114.891L69.0928 109.373L68.8194 109.197L62.0769 117.103L62.2591 102.443H61.9157L61.7265 117.51L55.8951 124.348L56.0773 109.689H55.7339L55.5447 124.755L49.7133 131.593L49.8956 116.941L49.5521 116.934L49.3629 132L46.8257 134.977L47.099 135.16L51.7249 129.733L66.6817 127.507L66.6256 127.212L52.0262 129.382L57.9067 122.487L72.8635 120.262Z" fill="#32B353"/>
</g>
<path opacity="0.1" d="M48.606 136.213C49.6223 135.904 50.5825 135.553 51.4936 135.174C53.3159 134.415 54.97 133.545 56.4909 132.59C59.5328 130.68 62.063 128.427 64.2147 125.92C66.3594 123.414 68.1116 120.648 69.3451 117.552C69.9689 116 70.4455 114.357 70.7679 112.609C70.9221 111.732 71.0343 110.826 71.0833 109.878C71.1394 108.938 71.1464 107.962 70.9992 106.888L45.3188 136.985C46.5244 136.802 47.5827 136.522 48.599 136.206L48.606 136.213Z" fill="#1D478E"/>
<path d="M45.0244 137.189C44.2324 136.037 43.6227 134.886 43.076 133.741C42.5223 132.597 42.0387 131.453 41.6181 130.308C40.7771 128.027 40.1393 125.752 39.6767 123.477C38.7375 118.935 38.4431 114.421 38.6254 109.913C38.8146 105.413 39.4874 100.92 40.8051 96.4549C41.4569 94.2224 42.291 91.9968 43.3213 89.7713C43.8399 88.6621 44.4217 87.5528 45.0735 86.4436C45.7253 85.3343 46.4332 84.2321 47.3233 83.1368C48.1223 84.2882 48.7321 85.4396 49.2858 86.584C49.8395 87.7283 50.3301 88.8727 50.7506 90.017C51.5917 92.2987 52.2365 94.5734 52.6991 96.8481C53.6313 101.39 53.9256 105.905 53.7294 110.412C53.5261 114.912 52.8533 119.405 51.5286 123.87C50.8768 126.103 50.0428 128.329 49.0125 130.554C48.4938 131.663 47.9121 132.773 47.2673 133.882C46.6224 134.991 45.9145 136.093 45.0314 137.189H45.0244Z" fill="#32B353"/>
<mask id="mask1_1_9458" style="mask-type:luminance" maskUnits="userSpaceOnUse" x="38" y="83" width="16" height="55">
<path d="M45.0244 137.189C44.2324 136.037 43.6227 134.886 43.076 133.741C42.5223 132.597 42.0387 131.453 41.6181 130.308C40.7771 128.027 40.1393 125.752 39.6767 123.477C38.7375 118.935 38.4431 114.421 38.6254 109.913C38.8146 105.413 39.4874 100.92 40.8051 96.4549C41.4569 94.2224 42.291 91.9968 43.3213 89.7713C43.8399 88.6621 44.4217 87.5528 45.0735 86.4436C45.7253 85.3343 46.4332 84.2321 47.3233 83.1368C48.1223 84.2882 48.7321 85.4396 49.2858 86.584C49.8395 87.7283 50.3301 88.8727 50.7506 90.017C51.5917 92.2987 52.2365 94.5734 52.6991 96.8481C53.6313 101.39 53.9256 105.905 53.7294 110.412C53.5261 114.912 52.8533 119.405 51.5286 123.87C50.8768 126.103 50.0428 128.329 49.0125 130.554C48.4938 131.663 47.9121 132.773 47.2673 133.882C46.6224 134.991 45.9145 136.093 45.0314 137.189H45.0244Z" fill="white"/>
</mask>
<g mask="url(#mask1_1_9458)">
<path d="M57.332 97.4588L57.0937 97.1499L46.3282 110.363L46.8538 97.9854L57.8857 84.4497L57.6474 84.1407L46.8819 97.3535L47.3024 87.4545L46.959 87.4404L46.3562 101.636L37.2307 84.3303L36.9433 84.576L46.3282 102.373L45.8025 114.652L36.677 97.3395L36.3896 97.5852L45.7745 115.382L45.2558 127.662L36.1233 110.349L35.8359 110.594L45.2208 128.392L44.9965 133.734L45.3399 133.748L45.7534 124.004L56.7783 110.468L56.5471 110.159L45.7815 123.372L46.3071 110.995L57.332 97.4588Z" fill="#32B353"/>
</g>
<path opacity="0.1" d="M47.2602 133.875C47.905 132.766 48.4868 131.663 49.0054 130.547C50.0357 128.329 50.8698 126.096 51.5216 123.863C52.8393 119.398 53.5191 114.912 53.7224 110.405C53.9186 105.905 53.6243 101.383 52.6921 96.8411C52.2295 94.5735 51.5917 92.2988 50.7436 90.0101C50.3231 88.8657 49.8325 87.7284 49.2788 86.577C48.7251 85.4326 48.1153 84.2813 47.3163 83.1299L45.0244 137.168C45.9145 136.072 46.6154 134.963 47.2602 133.861V133.875Z" fill="#1D478E"/>
<path d="M44.7021 136.494C43.4195 136.318 42.27 136.03 41.1697 135.714C40.0693 135.398 39.0179 135.04 38.0087 134.654C36.0041 133.868 34.1468 132.969 32.4296 131.972C28.9813 129.978 26.0165 127.62 23.4163 124.98C20.816 122.34 18.5942 119.419 16.849 116.134C15.9729 114.491 15.237 112.75 14.6482 110.889C14.3538 109.956 14.1155 108.987 13.9193 107.983C13.723 106.979 13.5759 105.94 13.5688 104.796C14.8585 104.971 16.0079 105.252 17.1083 105.568C18.2157 105.884 19.267 106.235 20.2693 106.628C22.2738 107.407 24.1312 108.306 25.8483 109.31C29.2967 111.304 32.2544 113.67 34.8477 116.316C37.4339 118.963 39.6557 121.884 41.3939 125.176C42.27 126.819 43.006 128.56 43.5947 130.421C43.8891 131.354 44.1344 132.316 44.3236 133.32C44.5199 134.324 44.6671 135.363 44.6811 136.508L44.7021 136.494Z" fill="#32B353"/>
<mask id="mask2_1_9458" style="mask-type:luminance" maskUnits="userSpaceOnUse" x="13" y="104" width="32" height="33">
<path d="M44.7021 136.494C43.4195 136.318 42.27 136.03 41.1697 135.714C40.0693 135.398 39.0179 135.04 38.0087 134.654C36.0041 133.868 34.1468 132.969 32.4296 131.972C28.9813 129.978 26.0165 127.62 23.4163 124.98C20.816 122.34 18.5942 119.419 16.849 116.134C15.9729 114.491 15.237 112.75 14.6482 110.889C14.3538 109.956 14.1155 108.987 13.9193 107.983C13.723 106.979 13.5759 105.94 13.5688 104.796C14.8585 104.971 16.0079 105.252 17.1083 105.568C18.2157 105.884 19.267 106.235 20.2693 106.628C22.2738 107.407 24.1312 108.306 25.8483 109.31C29.2967 111.304 32.2544 113.67 34.8477 116.316C37.4339 118.963 39.6557 121.884 41.3939 125.176C42.27 126.819 43.006 128.56 43.5947 130.421C43.8891 131.354 44.1344 132.316 44.3236 133.32C44.5199 134.324 44.6671 135.363 44.6811 136.508L44.7021 136.494Z" fill="white"/>
</mask>
<g mask="url(#mask2_1_9458)">
<path d="M29.6613 106.895L29.2969 106.86L29.381 120.662L22.253 113.396L22.1689 99.2633L21.8044 99.2281L21.8885 113.031L16.1833 107.218L15.924 107.414L24.1033 115.748L6.85458 111.437L6.7915 111.746L24.5239 116.176L31.5958 123.379L14.347 119.068L14.284 119.377L32.0163 123.807L39.0882 131.01L21.8395 126.7L21.7764 127.009L39.5088 131.439L42.5856 134.577L42.845 134.38L37.2379 128.659L37.1538 114.526L36.7893 114.491L36.8734 128.293L29.7454 121.027L29.6613 106.895Z" fill="#32B353"/>
</g>
<path opacity="0.1" d="M44.3378 133.313C44.1415 132.309 43.8962 131.34 43.6089 130.414C43.0201 128.553 42.2842 126.812 41.4081 125.169C39.6699 121.877 37.4481 118.956 34.8618 116.309C32.2686 113.663 29.3108 111.304 25.8625 109.303C24.1453 108.299 22.288 107.407 20.2835 106.621C19.2812 106.235 18.2229 105.877 17.1225 105.561C16.0221 105.245 14.8726 104.964 13.583 104.788L44.7092 136.494C44.6952 135.349 44.548 134.317 44.3518 133.306L44.3378 133.313Z" fill="#1D478E"/>
<path d="M61.7473 167.735H28.5394L25.1611 132.78H64.5648L61.7473 167.735Z" fill="#161742"/>
<path d="M66.3663 132.78H23.353V138.663H66.3663V132.78Z" fill="#161742"/>
<path opacity="0.1" d="M25.729 138.663H64.0954L63.2823 148.688L26.0514 141.984L25.729 138.663Z" fill="#1D478E"/>
</svg>
