<svg width="24" height="25" viewBox="0 0 24 25" fill="none" xmlns="http://www.w3.org/2000/svg">
<ellipse cx="11.9518" cy="12" rx="11.9518" ry="12" fill="#FFD325"/>
<path d="M11.9497 23.9995C8.75768 23.9995 5.75703 22.7511 3.49958 20.4848C1.24214 18.2185 0 15.2048 0 11.9995C0 8.79412 1.24323 5.78098 3.50013 3.51414C5.75703 1.24786 8.75768 0 11.9497 0C15.1418 0 18.1424 1.2484 20.3999 3.51469C22.6568 5.78098 23.9 8.79467 23.9 12C23.9 15.2053 22.6568 18.2185 20.3999 20.4853C18.143 22.7521 15.1418 24 11.9497 24V23.9995ZM11.9497 0.547545C5.6616 0.547545 0.545276 5.68516 0.545276 11.9995C0.545276 18.3137 5.6616 23.4514 11.9497 23.4514C18.2379 23.4514 23.3542 18.3137 23.3542 11.9995C23.3542 5.68516 18.2384 0.547545 11.9497 0.547545Z" fill="#161742"/>
<path d="M11.95 24.028C8.75772 24.028 5.75706 22.7784 3.50005 20.5093C1.24304 18.2403 0 15.2231 0 12.0143C0 8.80553 1.24304 5.78832 3.50005 3.51927C5.75706 1.24967 8.75827 0 11.95 0C15.1417 0 18.1429 1.24967 20.4 3.51872C22.657 5.78777 23.9 8.80499 23.9 12.0137C23.9 15.2225 22.657 18.2397 20.4 20.5088C18.1429 22.7778 15.1417 24.0275 11.95 24.0275V24.028ZM11.95 0.109141C8.78704 0.109141 5.81297 1.34735 3.57659 3.59621C1.3402 5.84452 0.10802 8.83446 0.10802 12.0143C0.10802 15.1941 1.33966 18.1841 3.57659 20.4324C5.81297 22.6807 8.78704 23.9189 11.95 23.9189C15.113 23.9189 18.087 22.6807 20.3234 20.4324C22.5598 18.1835 23.792 15.1941 23.792 12.0143C23.792 8.83446 22.5603 5.84452 20.3234 3.59621C18.087 1.3479 15.113 0.109141 11.95 0.109141ZM11.95 23.4823C5.6599 23.4823 0.542812 18.3379 0.542812 12.0143C0.542812 5.69064 5.6599 0.545707 11.95 0.545707C18.2401 0.545707 23.3572 5.69064 23.3572 12.0143C23.3572 18.3379 18.2401 23.4823 11.95 23.4823ZM11.95 0.654849C5.72015 0.654849 0.651374 5.75066 0.651374 12.0143C0.651374 18.2779 5.72015 23.3732 11.95 23.3732C18.1798 23.3732 23.2486 18.2774 23.2486 12.0143C23.2486 5.75121 18.1804 0.654849 11.95 0.654849Z" fill="#161742"/>
<path d="M16.4448 15.9587H7.92172C7.77942 15.9587 7.66394 15.8426 7.66394 15.6996C7.66394 15.5565 7.77942 15.4404 7.92172 15.4404H16.4448C16.5871 15.4404 16.7026 15.5565 16.7026 15.6996C16.7026 15.8426 16.5871 15.9587 16.4448 15.9587Z" fill="#161742"/>
<path d="M16.4448 16.0106H7.92164C7.75099 16.0106 7.6123 15.8712 7.6123 15.6997C7.6123 15.5281 7.75099 15.3887 7.92164 15.3887H16.4448C16.6154 15.3887 16.7541 15.5281 16.7541 15.6997C16.7541 15.8712 16.6154 16.0106 16.4448 16.0106ZM7.92164 15.4923C7.8077 15.4923 7.71542 15.5851 7.71542 15.6997C7.71542 15.8142 7.8077 15.907 7.92164 15.907H16.4448C16.5587 15.907 16.651 15.8142 16.651 15.6997C16.651 15.5851 16.5587 15.4923 16.4448 15.4923H7.92164Z" fill="#161742"/>
<path d="M15.6397 10.0651C14.8349 10.0651 14.1802 9.40526 14.1802 8.59463C14.1802 7.78401 14.8349 7.12421 15.6397 7.12421C16.4445 7.12421 17.1023 7.78401 17.1023 8.59463C17.1023 9.40577 16.446 10.0651 15.6397 10.0651ZM15.6397 7.64251C15.1195 7.64251 14.6957 8.06959 14.6957 8.59463C14.6957 9.11967 15.119 9.54675 15.6397 9.54675C16.1604 9.54675 16.5868 9.11967 16.5868 8.59463C16.5868 8.06959 16.162 7.64251 15.6397 7.64251Z" fill="#161742"/>
<path d="M15.6396 10.1179C14.8065 10.1179 14.1285 9.43481 14.1285 8.59568C14.1285 7.75655 14.8065 7.07343 15.6396 7.07343C16.4728 7.07343 17.1538 7.75603 17.1538 8.59568C17.1538 9.00151 16.996 9.38402 16.7099 9.67168C16.4238 9.95933 16.0433 10.1179 15.6396 10.1179ZM15.6396 7.17709C14.8632 7.17709 14.2317 7.81356 14.2317 8.59568C14.2317 9.3778 14.8632 10.0143 15.6396 10.0143C16.016 10.0143 16.3702 9.86656 16.6372 9.59808C16.9043 9.3296 17.0512 8.97352 17.0512 8.59516C17.0512 7.81304 16.4181 7.17657 15.6401 7.17657L15.6396 7.17709ZM15.6396 9.59963C15.0906 9.59963 14.6441 9.14923 14.6441 8.59568C14.6441 8.04213 15.0906 7.59173 15.6396 7.59173C15.9062 7.59173 16.1567 7.69642 16.3454 7.88612C16.5341 8.07582 16.6382 8.32772 16.6382 8.59568C16.6382 9.14923 16.1902 9.59963 15.6396 9.59963ZM15.6396 7.69539C15.1478 7.69539 14.7472 8.09915 14.7472 8.59568C14.7472 9.09221 15.1473 9.49597 15.6396 9.49597C16.132 9.49597 16.5351 9.09221 16.5351 8.59568C16.5351 8.35571 16.4418 8.12973 16.2727 7.95972C16.1031 7.78972 15.8783 7.69591 15.6396 7.69591V7.69539Z" fill="#161742"/>
<path d="M8.72418 10.0648C7.9194 10.0648 7.26465 9.40504 7.26465 8.59442C7.26465 7.78379 7.9194 7.12399 8.72418 7.12399C9.52895 7.12399 10.1868 7.78379 10.1868 8.59442C10.1868 9.40556 9.5305 10.0648 8.72418 10.0648ZM8.72418 7.6423C8.20399 7.6423 7.7802 8.06938 7.7802 8.59442C7.7802 9.11946 8.20347 9.54654 8.72418 9.54654C9.24489 9.54654 9.67125 9.11946 9.67125 8.59442C9.67125 8.06938 9.24643 7.6423 8.72418 7.6423Z" fill="#161742"/>
<path d="M8.72434 10.1179C7.89121 10.1179 7.21326 9.43481 7.21326 8.59568C7.21326 7.75655 7.89121 7.07343 8.72434 7.07343C9.55747 7.07343 10.2385 7.75603 10.2385 8.59568C10.2385 9.00151 10.0808 9.38402 9.79463 9.67168C9.5085 9.95933 9.12802 10.1179 8.72434 10.1179ZM8.72434 7.17709C7.94792 7.17709 7.31637 7.81356 7.31637 8.59568C7.31637 9.3778 7.94792 10.0143 8.72434 10.0143C9.10069 10.0143 9.45488 9.86656 9.72194 9.59808C9.98899 9.3296 10.1359 8.97352 10.1359 8.59516C10.1359 7.81304 9.50283 7.17657 8.72486 7.17657L8.72434 7.17709ZM8.72434 9.59963C8.17528 9.59963 7.72881 9.14923 7.72881 8.59568C7.72881 8.04213 8.17528 7.59173 8.72434 7.59173C8.99088 7.59173 9.24144 7.69642 9.43013 7.88612C9.61882 8.07582 9.72297 8.32772 9.72297 8.59568C9.72297 9.14923 9.27495 9.59963 8.72434 9.59963ZM8.72434 7.69539C8.2325 7.69539 7.83192 8.09915 7.83192 8.59568C7.83192 9.09221 8.23199 9.49597 8.72434 9.49597C9.21669 9.49597 9.61986 9.09221 9.61986 8.59568C9.61986 8.35571 9.52654 8.12973 9.35744 7.95972C9.18834 7.78972 8.96304 7.69591 8.72434 7.69591V7.69539Z" fill="#161742"/>
<path d="M22.6049 2.75419C21.8635 2.75419 21.2609 2.14829 21.2609 1.40297C21.2609 0.657654 21.8641 0.0517578 22.6049 0.0517578C23.3458 0.0517578 23.949 0.657654 23.949 1.40297C23.949 2.14829 23.3458 2.75419 22.6049 2.75419ZM22.6049 0.57006C22.1481 0.57006 21.7764 0.943757 21.7764 1.40297C21.7764 1.86219 22.1481 2.23588 22.6049 2.23588C23.0617 2.23588 23.4334 1.86219 23.4334 1.40297C23.4334 0.943757 23.0617 0.57006 22.6049 0.57006Z" fill="#161742"/>
<path d="M22.6048 2.80609C21.8351 2.80609 21.2092 2.17687 21.2092 1.40305C21.2092 0.629219 21.8356 0 22.6048 0C23.374 0 24.0004 0.629219 24.0004 1.40305C24.0004 2.17687 23.3745 2.80609 22.6048 2.80609ZM22.6048 0.103661C21.8923 0.103661 21.3123 0.686751 21.3123 1.40305C21.3123 2.11934 21.8923 2.70243 22.6048 2.70243C23.3173 2.70243 23.8973 2.11934 23.8973 1.40305C23.8973 0.686751 23.3173 0.103661 22.6048 0.103661ZM22.6048 2.28779C22.1197 2.28779 21.7248 1.89077 21.7248 1.40305C21.7248 0.915322 22.1197 0.518303 22.6048 0.518303C23.09 0.518303 23.4849 0.915322 23.4849 1.40305C23.4849 1.89077 23.09 2.28779 22.6048 2.28779ZM22.6048 0.621963C22.1764 0.621963 21.8279 0.972336 21.8279 1.40305C21.8279 1.83375 22.1764 2.18413 22.6048 2.18413C23.0333 2.18413 23.3818 1.83375 23.3818 1.40305C23.3818 0.972336 23.0333 0.621963 22.6048 0.621963Z" fill="#161742"/>
<path d="M1.21936 23.9485C0.575437 23.9485 0.0516357 23.4219 0.0516357 22.7745C0.0516357 22.1272 0.575437 21.6006 1.21936 21.6006C1.86329 21.6006 2.38709 22.1272 2.38709 22.7745C2.38709 23.4219 1.86329 23.9485 1.21936 23.9485ZM1.21936 22.1184C0.859506 22.1184 0.567188 22.4128 0.567188 22.774C0.567188 23.1353 0.860022 23.4297 1.21936 23.4297C1.5787 23.4297 1.87154 23.1353 1.87154 22.774C1.87154 22.4128 1.57922 22.1184 1.21936 22.1184Z" fill="#161742"/>
<path d="M1.21928 24.0004C0.547001 24.0004 0 23.4505 0 22.7746C0 22.0987 0.547001 21.5488 1.21928 21.5488C1.89156 21.5488 2.43856 22.0987 2.43856 22.7746C2.43856 23.4505 1.89156 24.0004 1.21928 24.0004ZM1.21928 21.652C0.603712 21.652 0.10311 22.1552 0.10311 22.7741C0.10311 23.3929 0.603712 23.8962 1.21928 23.8962C1.83485 23.8962 2.33545 23.3929 2.33545 22.7741C2.33545 22.1552 1.83485 21.652 1.21928 21.652ZM1.21928 23.4821C0.831071 23.4821 0.515553 23.1649 0.515553 22.7746C0.515553 22.3843 0.831586 22.0671 1.21928 22.0671C1.60698 22.0671 1.92301 22.3843 1.92301 22.7746C1.92301 23.1649 1.60749 23.4821 1.21928 23.4821ZM1.21928 22.1703C0.887781 22.1703 0.618663 22.4413 0.618663 22.7741C0.618663 23.1068 0.888297 23.3779 1.21928 23.3779C1.55027 23.3779 1.8199 23.1068 1.8199 22.7741C1.8199 22.4413 1.55027 22.1703 1.21928 22.1703Z" fill="#161742"/>
<path d="M21.9667 22.7748C22.2141 22.7748 22.4147 22.5732 22.4147 22.3244C22.4147 22.0757 22.2141 21.874 21.9667 21.874C21.7193 21.874 21.5187 22.0757 21.5187 22.3244C21.5187 22.5732 21.7193 22.7748 21.9667 22.7748Z" fill="#161742"/>
<path d="M21.9666 22.8267C21.6913 22.8267 21.467 22.6013 21.467 22.3245C21.467 22.0477 21.6913 21.8223 21.9666 21.8223C22.2419 21.8223 22.4662 22.0477 22.4662 22.3245C22.4662 22.6013 22.2419 22.8267 21.9666 22.8267ZM21.9666 21.9259C21.748 21.9259 21.5702 22.1047 21.5702 22.3245C21.5702 22.5443 21.748 22.7231 21.9666 22.7231C22.1852 22.7231 22.3631 22.5443 22.3631 22.3245C22.3631 22.1047 22.1852 21.9259 21.9666 21.9259Z" fill="#161742"/>
<path d="M2.12978 2.30401C2.37721 2.30401 2.57779 2.10235 2.57779 1.8536C2.57779 1.60485 2.37721 1.4032 2.12978 1.4032C1.88235 1.4032 1.68176 1.60485 1.68176 1.8536C1.68176 2.10235 1.88235 2.30401 2.12978 2.30401Z" fill="#161742"/>
<path d="M2.1297 2.35603C1.85439 2.35603 1.63013 2.13057 1.63013 1.8538C1.63013 1.57702 1.85439 1.35156 2.1297 1.35156C2.405 1.35156 2.62927 1.57702 2.62927 1.8538C2.62927 2.13057 2.405 2.35603 2.1297 2.35603ZM2.1297 1.45522C1.9111 1.45522 1.73324 1.63404 1.73324 1.8538C1.73324 2.07356 1.9111 2.25237 2.1297 2.25237C2.34829 2.25237 2.52616 2.07356 2.52616 1.8538C2.52616 1.63404 2.34829 1.45522 2.1297 1.45522Z" fill="#161742"/>
</svg>
