<svg width="25" height="25" viewBox="0 0 25 25" fill="none" xmlns="http://www.w3.org/2000/svg">
<path d="M8.38972 13.028L6.32085 10.948C5.69725 10.321 5.69725 9.30639 6.32085 8.67997C6.94235 8.05512 7.95367 8.05459 8.5757 8.67838C9.19772 8.05459 10.209 8.05512 10.8305 8.67997C11.4541 9.30692 11.4541 10.3216 10.8305 10.948L8.76167 13.028C8.65923 13.131 8.49269 13.131 8.39024 13.028H8.38972ZM6.69228 9.05287C6.27409 9.4733 6.27409 10.1536 6.69228 10.574L8.5757 12.4676L10.4591 10.574C10.8773 10.1536 10.8773 9.4733 10.4591 9.05287C10.0409 8.63243 9.36321 8.63349 8.94607 9.05287L8.76167 9.23826C8.65923 9.34125 8.49269 9.34125 8.39024 9.23826L8.20584 9.05287C7.78871 8.63349 7.10994 8.63349 6.69281 9.05287H6.69228Z" fill="#161742"/>
<path fill-rule="evenodd" clip-rule="evenodd" d="M8.53864 8.71586C7.93714 8.11266 6.95905 8.11316 6.35805 8.7174C5.75499 9.32319 5.75495 10.3044 6.35805 10.9107L8.41153 12.9753H8.41205L8.42744 12.9907C8.50937 13.0731 8.64264 13.0731 8.72457 12.9907L10.7934 10.9107C11.3965 10.3049 11.3965 9.32374 10.7934 8.7174C10.1924 8.11316 9.21434 8.11266 8.61284 8.71586L8.57574 8.75307L8.53864 8.71586ZM8.57574 8.605C7.9307 7.99696 6.91355 8.00953 6.28376 8.64269C5.63962 9.28975 5.63964 10.3379 6.28375 10.9854L8.368 13.0809H8.36966C8.49339 13.1888 8.68127 13.1837 8.79887 13.0654L10.8677 10.9854C10.8677 10.9854 10.8677 10.9854 10.8677 10.9854C11.5119 10.3384 11.5118 9.29027 10.8677 8.6427C10.2379 8.00953 9.22079 7.99695 8.57574 8.605ZM8.90897 9.0156C9.34659 8.57563 10.0576 8.5745 10.4963 9.0156C10.935 9.45666 10.935 10.1704 10.4963 10.6115L8.57574 12.5424L6.65518 10.6115C6.21647 10.1704 6.21647 9.45666 6.65518 9.0156L6.67057 9.00013H6.67139C7.11021 8.57566 7.81058 8.58081 8.24304 9.0156L8.42744 9.20099C8.50937 9.28336 8.64264 9.28336 8.72457 9.20099L8.90897 9.0156ZM10.422 9.0903C10.0244 8.69052 9.37992 8.69151 8.98327 9.0903L8.79887 9.27569C8.67591 9.39931 8.4761 9.39931 8.35314 9.27569L8.16874 9.0903C7.77212 8.69155 7.12662 8.69155 6.73 9.0903L6.71461 9.10577H6.7144C6.33187 9.50662 6.33689 10.1421 6.72947 10.5368L8.57574 12.393L10.422 10.5368C10.8197 10.137 10.8197 9.49011 10.422 9.0903Z" fill="#161742"/>
<path d="M17.1591 13.028L15.0903 10.948C14.4667 10.321 14.4667 9.30639 15.0903 8.67997C15.7118 8.05512 16.7226 8.05459 17.3451 8.67838C17.9671 8.05459 18.9784 8.05512 19.5999 8.67997C20.2236 9.30692 20.2236 10.3216 19.5999 10.948L17.5311 13.028C17.4286 13.131 17.2621 13.131 17.1597 13.028H17.1591ZM15.4617 9.05287C15.0435 9.4733 15.0435 10.1536 15.4617 10.574L17.3451 12.4676L19.2285 10.574C19.6467 10.1536 19.6467 9.4733 19.2285 9.05287C18.8114 8.63349 18.1326 8.63349 17.7155 9.05287L17.5311 9.23826C17.4286 9.34125 17.2621 9.34125 17.1597 9.23826L16.9753 9.05287C16.5581 8.63349 15.8794 8.63349 15.4622 9.05287H15.4617Z" fill="#161742"/>
<path fill-rule="evenodd" clip-rule="evenodd" d="M17.3083 8.71588C16.7063 8.11264 15.7287 8.11317 15.1277 8.7174C14.5246 9.32319 14.5246 10.3044 15.1277 10.9107L17.1812 12.9753H17.1817L17.1971 12.9907C17.279 13.0731 17.4123 13.0731 17.4942 12.9907L19.5631 10.9107C20.1661 10.3049 20.1662 9.32374 19.5631 8.7174C18.9621 8.11316 17.984 8.11266 17.3825 8.71586L17.3454 8.75305L17.3083 8.71588ZM17.3454 8.60501C16.6999 7.99697 15.6832 8.00951 15.0534 8.64269C14.4093 9.28975 14.4093 10.3379 15.0534 10.9854L17.1377 13.0809H17.1393C17.263 13.1888 17.4509 13.1837 17.5685 13.0654L19.6374 10.9854C19.6374 10.9854 19.6374 10.9854 19.6374 10.9854C20.2815 10.3384 20.2815 9.29027 19.6374 8.6427C19.0076 8.00953 17.9904 7.99695 17.3454 8.60501ZM15.441 9.00013C15.8799 8.57566 16.5802 8.58081 17.0127 9.0156L17.1971 9.20099C17.279 9.28336 17.4123 9.28336 17.4942 9.20099L17.6786 9.0156C18.1163 8.5756 18.8283 8.5756 19.266 9.0156C19.7047 9.45666 19.7047 10.1704 19.266 10.6115L17.3454 12.5424L15.4248 10.6115C14.9861 10.1704 14.9861 9.45666 15.4248 9.0156L15.4402 9.00013H15.441ZM16.9384 9.0903C16.5418 8.69155 15.8963 8.69155 15.4997 9.0903L15.4843 9.10577H15.4841C15.1015 9.50662 15.1065 10.1421 15.4991 10.5368L17.3454 12.393L19.1917 10.5368C19.5893 10.137 19.5893 9.49011 19.1917 9.0903C18.795 8.69155 18.1495 8.69155 17.7529 9.0903L17.5685 9.27569C17.4456 9.39931 17.2458 9.39931 17.1228 9.27569L16.9384 9.0903Z" fill="#161742"/>
<path d="M11.1188 19.6911C10.9806 19.6462 10.905 19.4978 10.9491 19.3589C11.2312 18.4784 12.0392 17.8868 12.9602 17.8868C13.8811 17.8868 14.6886 18.4784 14.9713 19.3589C15.0159 19.4978 14.9397 19.6468 14.8016 19.6911C14.6634 19.7355 14.5152 19.6594 14.4711 19.5205C14.2589 18.8592 13.6521 18.4145 12.9602 18.4145C12.2683 18.4145 11.6615 18.8592 11.4492 19.5205C11.4051 19.6589 11.257 19.7355 11.1188 19.6911Z" fill="#161742"/>
<path fill-rule="evenodd" clip-rule="evenodd" d="M12.9602 17.9389C12.0621 17.9389 11.2743 18.5156 10.9992 19.3743C10.9639 19.4854 11.0244 19.6041 11.1349 19.6401C11.2456 19.6755 11.364 19.6141 11.3993 19.5036L11.3993 19.5035C11.6185 18.8204 12.2455 18.3609 12.9602 18.3609C13.675 18.3609 14.3019 18.8204 14.5212 19.5035L14.5212 19.5037C14.5564 19.6146 14.6749 19.6756 14.7856 19.64C14.8961 19.6046 14.957 19.4855 14.9213 19.3744L14.9213 19.3743C14.6457 18.5157 13.8584 17.9389 12.9602 17.9389ZM10.8992 19.3419C11.1883 18.4396 12.0165 17.8333 12.9602 17.8333C13.904 17.8333 14.7317 18.4396 15.0213 19.3419C15.0749 19.5086 14.9835 19.6874 14.8176 19.7407C14.6521 19.7938 14.4743 19.7028 14.4212 19.536C14.2159 18.8965 13.6293 18.4665 12.9602 18.4665C12.2912 18.4665 11.7046 18.8965 11.4993 19.5359C11.4463 19.7021 11.2685 19.7939 11.1029 19.7407L11.1027 19.7406C10.9369 19.6868 10.8462 19.5087 10.8991 19.3421L10.8992 19.3419Z" fill="#161742"/>
<path d="M12.9603 20.195C10.9324 20.195 9.28223 18.5359 9.28223 16.4971V15.8005C9.28223 15.6547 9.39991 15.5364 9.54491 15.5364H16.3756C16.5206 15.5364 16.6383 15.6547 16.6383 15.8005V16.4971C16.6383 18.5365 14.9882 20.195 12.9603 20.195ZM9.80759 16.0646V16.4971C9.80759 18.2449 11.2219 19.6668 12.9603 19.6668C14.6987 19.6668 16.113 18.2449 16.113 16.4971V16.0646H9.80759Z" fill="#161742"/>
<path fill-rule="evenodd" clip-rule="evenodd" d="M9.54483 15.589C9.42885 15.589 9.33469 15.6837 9.33469 15.8003V16.497C9.33469 18.5066 10.9613 20.142 12.9602 20.142C14.9591 20.142 16.5857 18.5071 16.5857 16.497V15.8003C16.5857 15.6837 16.4915 15.589 16.3756 15.589H9.54483ZM9.22961 15.8003C9.22961 15.6254 9.37082 15.4834 9.54483 15.4834H16.3756C16.5496 15.4834 16.6908 15.6254 16.6908 15.8003V16.497C16.6908 18.5655 15.0171 20.2476 12.9602 20.2476C10.9033 20.2476 9.22961 18.565 9.22961 16.497V15.8003ZM9.75497 16.0116H16.1654V16.497C16.1654 18.2739 14.7276 19.7194 12.9602 19.7194C11.1928 19.7194 9.75497 18.2739 9.75497 16.497V16.0116ZM9.86005 16.1172V16.497C9.86005 18.2156 11.2508 19.6138 12.9602 19.6138C14.6696 19.6138 16.0603 18.2156 16.0603 16.497V16.1172H9.86005Z" fill="#161742"/>
<path d="M12.6271 24.8682C6.0228 24.8682 0.677124 19.5014 0.677124 12.8684C0.677124 6.23552 6.02224 0.868164 12.6271 0.868164C19.232 0.868164 24.5771 6.23496 24.5771 12.8679C24.5771 19.5008 19.2326 24.8676 12.6271 24.8676V24.8682ZM12.6271 1.42747C6.34497 1.42691 1.23356 6.55959 1.23356 12.8679C1.23356 19.1762 6.34441 24.3089 12.6271 24.3089C18.9098 24.3089 24.0207 19.1762 24.0207 12.8679C24.0207 6.55959 18.9098 1.42691 12.6271 1.42691V1.42747Z" fill="#161742"/>
<path fill-rule="evenodd" clip-rule="evenodd" d="M12.5745 0.926662C6.03083 0.926662 0.735283 6.24424 0.735283 12.8157C0.735283 19.3686 6.00152 24.6742 12.5191 24.7041V24.7036H12.5745C19.1187 24.7036 24.4137 19.3866 24.4137 12.8152C24.4137 6.24369 19.1182 0.926662 12.5745 0.926662ZM12.6299 24.8147C19.2098 24.7848 24.5245 19.4295 24.5245 12.8152C24.5245 6.18225 19.1794 0.81543 12.5745 0.81543C5.96965 0.81543 0.624512 6.18281 0.624512 12.8157C0.624512 19.4486 5.97021 24.8154 12.5745 24.8154H12.6299V24.8147ZM12.5191 1.37159H12.5745C18.8587 1.37159 23.9707 6.50538 23.9707 12.8152C23.9707 19.1249 18.8587 24.2587 12.5745 24.2587C6.29033 24.2587 1.17837 19.1249 1.17837 12.8152C1.17837 6.52393 6.26087 1.40178 12.5191 1.37227V1.37159ZM12.6299 1.48296V1.48338L12.5745 1.48338C6.35206 1.48283 1.28914 6.56681 1.28914 12.8152C1.28914 19.0635 6.35151 24.1475 12.5745 24.1475C18.7975 24.1475 23.8599 19.0635 23.8599 12.8152C23.8599 6.58536 18.8275 1.51301 12.6299 1.48296Z" fill="#161742"/>
<path d="M23.5802 3.80669C22.8247 3.80669 22.2106 3.18924 22.2106 2.42971C22.2106 1.67018 22.8252 1.05273 23.5802 1.05273C24.3351 1.05273 24.9498 1.67018 24.9498 2.42971C24.9498 3.18924 24.3351 3.80669 23.5802 3.80669ZM23.5802 1.58092C23.1147 1.58092 22.7359 1.96174 22.7359 2.42971C22.7359 2.89769 23.1147 3.27851 23.5802 3.27851C24.0457 3.27851 24.4244 2.89769 24.4244 2.42971C24.4244 1.96174 24.0457 1.58092 23.5802 1.58092Z" fill="#161742"/>
<path fill-rule="evenodd" clip-rule="evenodd" d="M23.5802 1.10564C22.8543 1.10564 22.2632 1.69945 22.2632 2.4298C22.2632 3.16016 22.8538 3.75396 23.5802 3.75396C24.3062 3.75396 24.8973 3.16015 24.8973 2.4298C24.8973 1.69945 24.3062 1.10564 23.5802 1.10564ZM22.1581 2.4298C22.1581 1.64108 22.7963 1 23.5802 1C24.3642 1 25.0024 1.64108 25.0024 2.4298C25.0024 3.21851 24.3642 3.8596 23.5802 3.8596C22.7957 3.8596 22.1581 3.2185 22.1581 2.4298ZM22.6834 2.4298C22.6834 1.93265 23.0857 1.52819 23.5802 1.52819C24.0747 1.52819 24.477 1.93266 24.477 2.4298C24.477 2.92694 24.0747 3.33141 23.5802 3.33141C23.0857 3.33141 22.6834 2.92694 22.6834 2.4298ZM23.5802 1.63382C23.1438 1.63382 22.7885 1.991 22.7885 2.4298C22.7885 2.8686 23.1438 3.22577 23.5802 3.22577C24.0167 3.22577 24.3719 2.8686 24.3719 2.4298C24.3719 1.991 24.0167 1.63382 23.5802 1.63382Z" fill="#161742"/>
<path d="M2.24402 24.9463C1.58784 24.9463 1.05408 24.4097 1.05408 23.75C1.05408 23.0903 1.58784 22.5536 2.24402 22.5536C2.90019 22.5536 3.43396 23.0903 3.43396 23.75C3.43396 24.4097 2.90019 24.9463 2.24402 24.9463ZM2.24402 23.0813C1.87732 23.0813 1.57944 23.3813 1.57944 23.7495C1.57944 24.1176 1.87784 24.4176 2.24402 24.4176C2.61019 24.4176 2.9086 24.1176 2.9086 23.7495C2.9086 23.3813 2.61019 23.0813 2.24402 23.0813Z" fill="#161742"/>
<path fill-rule="evenodd" clip-rule="evenodd" d="M2.24394 22.6075C1.61678 22.6075 1.10654 23.1205 1.10654 23.7511C1.10654 24.3816 1.61678 24.8946 2.24394 24.8946C2.8711 24.8946 3.38135 24.3816 3.38135 23.7511C3.38135 23.1205 2.8711 22.6075 2.24394 22.6075ZM1.00146 23.7511C1.00146 23.0622 1.55875 22.5019 2.24394 22.5019C2.92913 22.5019 3.48642 23.0622 3.48642 23.7511C3.48642 24.4399 2.92913 25.0002 2.24394 25.0002C1.55875 25.0002 1.00146 24.4399 1.00146 23.7511ZM1.52682 23.7505C1.52682 23.3532 1.8482 23.0295 2.24394 23.0295C2.63913 23.0295 2.96106 23.3532 2.96106 23.7505C2.96106 24.1478 2.63913 24.4715 2.24394 24.4715C1.84875 24.4715 1.52682 24.1478 1.52682 23.7505ZM2.24394 23.1352C1.90628 23.1352 1.6319 23.4115 1.6319 23.7505C1.6319 24.0895 1.90678 24.3659 2.24394 24.3659C2.5811 24.3659 2.85599 24.0895 2.85599 23.7505C2.85599 23.4115 2.5811 23.1352 2.24394 23.1352Z" fill="#161742"/>
<path d="M22.166 23.2763C22.4181 23.2763 22.6225 23.0708 22.6225 22.8173C22.6225 22.5638 22.4181 22.3583 22.166 22.3583C21.9139 22.3583 21.7095 22.5638 21.7095 22.8173C21.7095 23.0708 21.9139 23.2763 22.166 23.2763Z" fill="#161742"/>
<path fill-rule="evenodd" clip-rule="evenodd" d="M22.1661 22.4122C21.9429 22.4122 21.7621 22.5941 21.7621 22.8184C21.7621 23.0427 21.9429 23.2246 22.1661 23.2246C22.3892 23.2246 22.5701 23.0427 22.5701 22.8184C22.5701 22.5941 22.3892 22.4122 22.1661 22.4122ZM21.657 22.8184C21.657 22.5357 21.8849 22.3066 22.1661 22.3066C22.4472 22.3066 22.6751 22.5357 22.6751 22.8184C22.6751 23.1011 22.4472 23.3302 22.1661 23.3302C21.8849 23.3302 21.657 23.1011 21.657 22.8184Z" fill="#161742"/>
<path d="M3.17175 4.46004C3.42389 4.46004 3.62829 4.25454 3.62829 4.00105C3.62829 3.74755 3.42389 3.54205 3.17175 3.54205C2.91961 3.54205 2.71521 3.74755 2.71521 4.00105C2.71521 4.25454 2.91961 4.46004 3.17175 4.46004Z" fill="#161742"/>
<path fill-rule="evenodd" clip-rule="evenodd" d="M3.17167 3.59486C2.94855 3.59486 2.76767 3.77672 2.76767 4.00104C2.76767 4.22536 2.94855 4.40721 3.17167 4.40721C3.3948 4.40721 3.57567 4.22536 3.57567 4.00104C3.57567 3.77672 3.3948 3.59486 3.17167 3.59486ZM2.6626 4.00104C2.6626 3.71837 2.89052 3.48923 3.17167 3.48923C3.45283 3.48923 3.68075 3.71837 3.68075 4.00104C3.68075 4.28371 3.45283 4.51285 3.17167 4.51285C2.89052 4.51285 2.6626 4.28371 2.6626 4.00104Z" fill="#161742"/>
</svg>
