<svg width="25" height="25" viewBox="0 0 25 25" fill="none" xmlns="http://www.w3.org/2000/svg">
<path d="M12.097 24.8887C8.90517 24.8887 5.90372 23.6404 3.6469 21.3741C1.39009 19.1078 0.146973 16.0938 0.146973 12.8887C0.146973 9.68351 1.39009 6.6695 3.6469 4.40325C5.90372 2.13699 8.90517 0.888672 12.097 0.888672C15.2888 0.888672 18.2902 2.13699 20.547 4.40325C22.8039 6.6695 24.047 9.68351 24.047 12.8887C24.047 16.0938 22.8039 19.1078 20.547 21.3741C18.2902 23.6404 15.2888 24.8887 12.097 24.8887ZM12.097 1.44865C5.81552 1.44865 0.705175 6.58038 0.705175 12.8887C0.705175 19.197 5.81552 24.3281 12.097 24.3281C18.3784 24.3281 23.4888 19.1964 23.4888 12.8887C23.4888 6.58094 18.379 1.44865 12.097 1.44865Z" fill="#161742"/>
<path fill-rule="evenodd" clip-rule="evenodd" d="M12.0456 0.947524C8.88335 0.947524 5.90998 2.18416 3.67409 4.42942C1.43819 6.67467 0.206702 9.66048 0.206702 12.8359C0.206702 16.0114 1.43819 18.9972 3.67409 21.2425C5.90998 23.4877 8.88335 24.7243 12.0456 24.7243C15.2078 24.7243 18.1812 23.4877 20.4171 21.2425C22.653 18.9972 23.8845 16.0114 23.8845 12.8359C23.8845 9.66048 22.653 6.67467 20.4171 4.42942C18.1812 2.18416 15.2078 0.947524 12.0456 0.947524ZM3.59551 4.35051C5.85225 2.08433 8.85389 0.835938 12.0456 0.835938C15.2373 0.835938 18.2389 2.08433 20.4956 4.35051C22.7524 6.6167 23.9956 9.63089 23.9956 12.8359C23.9956 16.041 22.7524 19.0552 20.4956 21.3214C18.2389 23.5875 15.2373 24.8359 12.0456 24.8359C8.85389 24.8359 5.85225 23.5875 3.59551 21.3214C1.33877 19.0552 0.0955811 16.041 0.0955811 12.8359C0.0955811 9.63089 1.33877 6.6167 3.59551 4.35051ZM0.651188 12.8359C0.651188 6.52616 5.76265 1.39331 12.0456 1.39331C18.3291 1.39331 23.44 6.52672 23.44 12.8359C23.44 19.1452 18.3285 24.278 12.0456 24.278C5.76265 24.278 0.651188 19.1457 0.651188 12.8359ZM12.0456 1.5049C5.82402 1.5049 0.76231 6.58778 0.76231 12.8359C0.76231 19.0841 5.82402 24.1664 12.0456 24.1664C18.2671 24.1664 23.3289 19.0835 23.3289 12.8359C23.3289 6.58834 18.2677 1.5049 12.0456 1.5049Z" fill="#161742"/>
<path d="M17.4456 10.2277C17.3796 10.2277 17.3136 10.2023 17.2631 10.152L15.8247 8.70598L14.3863 10.152C14.2858 10.2531 14.1223 10.2531 14.0218 10.152C13.9213 10.051 13.9213 9.88667 14.0218 9.78561L15.6427 8.15606C15.7432 8.05499 15.9067 8.05499 16.0072 8.15606L17.6281 9.78561C17.7286 9.88667 17.7286 10.051 17.6281 10.152C17.5776 10.2028 17.5116 10.2277 17.4456 10.2277Z" fill="#161742"/>
<path d="M10.3056 10.1974C10.2396 10.1974 10.1736 10.172 10.1231 10.1218L8.68468 8.67571L7.24629 10.1218C7.14576 10.2228 6.98233 10.2228 6.8818 10.1218C6.78126 10.0207 6.78126 9.8564 6.8818 9.75533L8.50269 8.12579C8.60323 8.02472 8.76666 8.02472 8.86719 8.12579L10.4881 9.75533C10.5886 9.8564 10.5886 10.0207 10.4881 10.1218C10.4376 10.1726 10.3716 10.1974 10.3056 10.1974Z" fill="#161742"/>
<path fill-rule="evenodd" clip-rule="evenodd" d="M15.9707 8.19376C15.8903 8.11293 15.7595 8.11293 15.6791 8.19376L14.0582 9.8233C13.9778 9.90413 13.9778 10.0356 14.0582 10.1164C14.1386 10.1973 14.2694 10.1973 14.3498 10.1164L15.8246 8.63373L17.2993 10.1163C17.2993 10.1163 17.2993 10.1163 17.2994 10.1164C17.3399 10.1567 17.3927 10.1769 17.4455 10.1769C17.4986 10.1769 17.5512 10.157 17.5916 10.1164C17.672 10.0356 17.672 9.90413 17.5916 9.8233L15.9707 8.19376ZM15.6062 8.12046C15.7268 7.99915 15.9229 7.99915 16.0436 8.12046L17.6645 9.75001C17.7851 9.87132 17.7851 10.0684 17.6645 10.1897C17.6038 10.2508 17.5244 10.2806 17.4455 10.2806C17.3664 10.2806 17.2872 10.2501 17.2267 10.1899L17.2266 10.1897L15.8246 8.78033L14.4227 10.1897C14.302 10.3111 14.1059 10.3111 13.9853 10.1897C13.8646 10.0684 13.8646 9.87132 13.9853 9.75001L15.6062 8.12046Z" fill="#161742"/>
<path fill-rule="evenodd" clip-rule="evenodd" d="M8.83053 8.16135C8.75013 8.08052 8.61935 8.08052 8.53895 8.16135L6.91805 9.79089C6.83765 9.87172 6.83765 10.0032 6.91805 10.084C6.99845 10.1649 7.12923 10.1649 7.20963 10.084L8.68448 8.60132L10.1591 10.0838C10.1592 10.0839 10.1592 10.0839 10.1592 10.084C10.1998 10.1243 10.2526 10.1445 10.3054 10.1445C10.3585 10.1445 10.4111 10.1246 10.4514 10.084C10.5318 10.0032 10.5318 9.87172 10.4514 9.79089L8.83053 8.16135ZM8.46604 8.08805C8.5867 7.96674 8.78277 7.96674 8.90344 8.08805L10.5243 9.7176C10.645 9.83891 10.645 10.036 10.5243 10.1573C10.4636 10.2184 10.3843 10.2482 10.3054 10.2482C10.2262 10.2482 10.1471 10.2177 10.0866 10.1575L10.0864 10.1573L8.68448 8.74792L7.28254 10.1573C7.16188 10.2786 6.9658 10.2786 6.84514 10.1573C6.72447 10.036 6.72447 9.83891 6.84514 9.7176L8.46604 8.08805Z" fill="#161742"/>
<path d="M12.0635 17.8874C11.9898 17.8874 11.9155 17.8864 11.8418 17.8843C9.53111 17.8138 7.48488 16.6891 6.22848 14.7983C6.1496 14.6791 6.18105 14.5185 6.29963 14.4392C6.4182 14.3599 6.57802 14.3915 6.6569 14.5107C7.81947 16.26 9.71465 17.3007 11.8573 17.3665C14.1541 17.4381 16.29 16.3911 17.7212 14.4982C17.8073 14.3842 17.9692 14.3619 18.0826 14.4485C18.196 14.535 18.2182 14.6978 18.1321 14.8118C17.351 15.8453 16.3797 16.6399 15.2445 17.1748C14.25 17.6433 13.1549 17.8879 12.064 17.8879L12.0635 17.8874Z" fill="#161742"/>
<path d="M12.0714 18.0524C11.9969 18.0524 11.922 18.0513 11.8475 18.0492C9.5145 17.9759 7.4485 16.8075 6.17995 14.8433C6.10031 14.7194 6.13206 14.5525 6.25178 14.4702C6.37151 14.3878 6.53287 14.4206 6.61252 14.5445C7.78632 16.3617 9.69982 17.4429 11.8632 17.5113C14.1822 17.5856 16.3387 16.4979 17.7837 14.5315C17.8707 14.4131 18.0341 14.3899 18.1486 14.4798C18.2632 14.5698 18.2855 14.7388 18.1986 14.8573C17.41 15.9309 16.4293 16.7564 15.2831 17.312C14.279 17.7988 13.1734 18.0529 12.0719 18.0529L12.0714 18.0524Z" fill="#161742"/>
<path d="M22.6059 3.75419C21.8645 3.75419 21.2618 3.14829 21.2618 2.40297C21.2618 1.65765 21.865 1.05176 22.6059 1.05176C23.3467 1.05176 23.9499 1.65765 23.9499 2.40297C23.9499 3.14829 23.3467 3.75419 22.6059 3.75419ZM22.6059 1.57006C22.1491 1.57006 21.7774 1.94376 21.7774 2.40297C21.7774 2.86219 22.1491 3.23588 22.6059 3.23588C23.0627 3.23588 23.4344 2.86219 23.4344 2.40297C23.4344 1.94376 23.0627 1.57006 22.6059 1.57006Z" fill="#161742"/>
<path fill-rule="evenodd" clip-rule="evenodd" d="M22.6058 1.10366C21.8934 1.10366 21.3133 1.68636 21.3133 2.40305C21.3133 3.11974 21.8929 3.70243 22.6058 3.70243C23.3182 3.70243 23.8983 3.11973 23.8983 2.40305C23.8983 1.68636 23.3182 1.10366 22.6058 1.10366ZM21.2102 2.40305C21.2102 1.62909 21.8365 1 22.6058 1C23.3751 1 24.0014 1.62909 24.0014 2.40305C24.0014 3.177 23.3751 3.80609 22.6058 3.80609C21.836 3.80609 21.2102 3.17699 21.2102 2.40305ZM21.7258 2.40305C21.7258 1.9152 22.1206 1.5183 22.6058 1.5183C23.0911 1.5183 23.4859 1.9152 23.4859 2.40305C23.4859 2.89089 23.0911 3.28779 22.6058 3.28779C22.1206 3.28779 21.7258 2.89089 21.7258 2.40305ZM22.6058 1.62196C22.1775 1.62196 21.8289 1.97245 21.8289 2.40305C21.8289 2.83364 22.1775 3.18413 22.6058 3.18413C23.0341 3.18413 23.3827 2.83364 23.3827 2.40305C23.3827 1.97245 23.0341 1.62196 22.6058 1.62196Z" fill="#161742"/>
<path d="M1.22034 24.9495C0.576414 24.9495 0.0526123 24.4229 0.0526123 23.7755C0.0526123 23.1282 0.576414 22.6016 1.22034 22.6016C1.86426 22.6016 2.38807 23.1282 2.38807 23.7755C2.38807 24.4229 1.86426 24.9495 1.22034 24.9495ZM1.22034 23.1193C0.860483 23.1193 0.568165 23.4137 0.568165 23.775C0.568165 24.1363 0.860999 24.4307 1.22034 24.4307C1.57968 24.4307 1.87251 24.1363 1.87251 23.775C1.87251 23.4137 1.58019 23.1193 1.22034 23.1193Z" fill="#161742"/>
<path fill-rule="evenodd" clip-rule="evenodd" d="M1.22026 22.6525C0.604806 22.6525 0.104087 23.1559 0.104087 23.7746C0.104087 24.3933 0.604806 24.8967 1.22026 24.8967C1.83571 24.8967 2.33643 24.3933 2.33643 23.7746C2.33643 23.1559 1.83571 22.6525 1.22026 22.6525ZM0.000976562 23.7746C0.000976562 23.0986 0.54786 22.5488 1.22026 22.5488C1.89266 22.5488 2.43954 23.0986 2.43954 23.7746C2.43954 24.4506 1.89266 25.0004 1.22026 25.0004C0.54786 25.0004 0.000976562 24.4506 0.000976562 23.7746ZM0.516529 23.7741C0.516529 23.3842 0.831903 23.0666 1.22026 23.0666C1.60861 23.0666 1.92399 23.3842 1.92399 23.7741C1.92399 24.164 1.60807 24.4816 1.22026 24.4816C0.832445 24.4816 0.516529 24.164 0.516529 23.7741ZM1.22026 23.1703C0.888902 23.1703 0.61964 23.4414 0.61964 23.7741C0.61964 24.1067 0.889391 24.3779 1.22026 24.3779C1.55113 24.3779 1.82088 24.1067 1.82088 23.7741C1.82088 23.4414 1.55161 23.1703 1.22026 23.1703Z" fill="#161742"/>
<path d="M21.9677 23.7748C22.2151 23.7748 22.4157 23.5732 22.4157 23.3244C22.4157 23.0757 22.2151 22.874 21.9677 22.874C21.7202 22.874 21.5197 23.0757 21.5197 23.3244C21.5197 23.5732 21.7202 23.7748 21.9677 23.7748Z" fill="#161742"/>
<path fill-rule="evenodd" clip-rule="evenodd" d="M21.9676 22.9259C21.7486 22.9259 21.5711 23.1044 21.5711 23.3245C21.5711 23.5446 21.7486 23.7231 21.9676 23.7231C22.1865 23.7231 22.364 23.5446 22.364 23.3245C22.364 23.1044 22.1865 22.9259 21.9676 22.9259ZM21.468 23.3245C21.468 23.0471 21.6917 22.8223 21.9676 22.8223C22.2435 22.8223 22.4672 23.0471 22.4672 23.3245C22.4672 23.6019 22.2435 23.8267 21.9676 23.8267C21.6917 23.8267 21.468 23.6019 21.468 23.3245Z" fill="#161742"/>
<path d="M2.13075 3.30401C2.37819 3.30401 2.57877 3.10235 2.57877 2.8536C2.57877 2.60485 2.37819 2.4032 2.13075 2.4032C1.88332 2.4032 1.68274 2.60485 1.68274 2.8536C1.68274 3.10235 1.88332 3.30401 2.13075 3.30401Z" fill="#161742"/>
<path fill-rule="evenodd" clip-rule="evenodd" d="M2.13067 2.45522C1.91172 2.45522 1.73421 2.63367 1.73421 2.8538C1.73421 3.07392 1.91172 3.25237 2.13067 3.25237C2.34963 3.25237 2.52713 3.07392 2.52713 2.8538C2.52713 2.63367 2.34963 2.45522 2.13067 2.45522ZM1.6311 2.8538C1.6311 2.57642 1.85477 2.35156 2.13067 2.35156C2.40658 2.35156 2.63024 2.57642 2.63024 2.8538C2.63024 3.13117 2.40658 3.35603 2.13067 3.35603C1.85477 3.35603 1.6311 3.13117 1.6311 2.8538Z" fill="#161742"/>
</svg>
