<svg width="25" height="25" viewBox="0 0 25 25" fill="none" xmlns="http://www.w3.org/2000/svg">
<ellipse cx="12.2766" cy="12" rx="11.9518" ry="12" fill="#FFD325"/>
<path d="M12.4217 24.0527C9.22988 24.0527 6.22842 22.8044 3.97161 20.5382C1.7148 18.2719 0.47168 15.2579 0.47168 12.0527C0.47168 8.84758 1.7148 5.83356 3.97161 3.56731C6.22842 1.30105 9.22988 0.0527344 12.4217 0.0527344C15.6135 0.0527344 18.6149 1.30105 20.8717 3.56731C23.1286 5.83356 24.3717 8.84758 24.3717 12.0527C24.3717 15.2579 23.1286 18.2719 20.8717 20.5382C18.6149 22.8044 15.6135 24.0527 12.4217 24.0527ZM12.4217 0.612712C6.14023 0.612712 1.02988 5.74444 1.02988 12.0527C1.02988 18.361 6.14023 23.4922 12.4217 23.4922C18.7031 23.4922 23.8135 18.3605 23.8135 12.0527C23.8135 5.745 18.7037 0.612712 12.4217 0.612712Z" fill="#161742"/>
<path fill-rule="evenodd" clip-rule="evenodd" d="M12.3703 0.111586C9.20806 0.111586 6.23469 1.34822 3.99879 3.59348C1.76289 5.83873 0.53141 8.82454 0.53141 12C0.53141 15.1755 1.76289 18.1613 3.99879 20.4065C6.23469 22.6518 9.20806 23.8884 12.3703 23.8884C15.5325 23.8884 18.5059 22.6518 20.7418 20.4065C22.9777 18.1613 24.2092 15.1755 24.2092 12C24.2092 8.82454 22.9777 5.83873 20.7418 3.59348C18.5059 1.34822 15.5325 0.111586 12.3703 0.111586ZM3.92022 3.51457C6.17696 1.24839 9.17859 0 12.3703 0C15.562 0 18.5636 1.24839 20.8204 3.51457C23.0771 5.78076 24.3203 8.79495 24.3203 12C24.3203 15.205 23.0771 18.2192 20.8204 20.4854C18.5636 22.7516 15.562 24 12.3703 24C9.17859 24 6.17696 22.7516 3.92022 20.4854C1.66348 18.2192 0.420288 15.205 0.420288 12C0.420288 8.79495 1.66348 5.78076 3.92022 3.51457ZM0.975895 12C0.975895 5.69022 6.08735 0.557374 12.3703 0.557374C18.6538 0.557374 23.7647 5.69078 23.7647 12C23.7647 18.3092 18.6532 23.4421 12.3703 23.4421C6.08736 23.4421 0.975895 18.3098 0.975895 12ZM12.3703 0.66896C6.14873 0.66896 1.08702 5.75185 1.08702 12C1.08702 18.2481 6.14872 23.3305 12.3703 23.3305C18.5919 23.3305 23.6536 18.2476 23.6536 12C23.6536 5.7524 18.5924 0.66896 12.3703 0.66896Z" fill="#161742"/>
<path d="M17.7703 9.39178C17.7043 9.39178 17.6383 9.36638 17.5878 9.31611L16.1494 7.87004L14.711 9.31611C14.6105 9.41718 14.4471 9.41718 14.3465 9.31611C14.246 9.21504 14.246 9.05074 14.3465 8.94967L15.9674 7.32013C16.0679 7.21906 16.2314 7.21906 16.3319 7.32013L17.9528 8.94967C18.0533 9.05074 18.0533 9.21504 17.9528 9.31611C17.9023 9.3669 17.8363 9.39178 17.7703 9.39178Z" fill="#161742"/>
<path d="M10.6303 9.36151C10.5643 9.36151 10.4983 9.33611 10.4478 9.28583L9.00939 7.83977L7.571 9.28583C7.47046 9.3869 7.30704 9.3869 7.2065 9.28583C7.10597 9.18477 7.10597 9.02046 7.2065 8.91939L8.8274 7.28985C8.92793 7.18878 9.09136 7.18878 9.1919 7.28985L10.8128 8.91939C10.9133 9.02046 10.9133 9.18477 10.8128 9.28583C10.7623 9.33663 10.6963 9.36151 10.6303 9.36151Z" fill="#161742"/>
<path fill-rule="evenodd" clip-rule="evenodd" d="M16.2954 7.35782C16.215 7.277 16.0842 7.277 16.0038 7.35782L14.3829 8.98737C14.3025 9.06819 14.3025 9.19968 14.3829 9.28051C14.4633 9.36134 14.5941 9.36134 14.6745 9.28051L16.1493 7.79779L17.624 9.28032C17.624 9.28036 17.6241 9.28039 17.6241 9.28043C17.6646 9.32073 17.7174 9.341 17.7702 9.341C17.8233 9.341 17.8759 9.32106 17.9163 9.28051C17.9967 9.19968 17.9967 9.06819 17.9163 8.98737L16.2954 7.35782ZM15.9309 7.28452C16.0515 7.16321 16.2476 7.16321 16.3683 7.28452L17.9892 8.91407C18.1098 9.03538 18.1098 9.2325 17.9892 9.35381C17.9285 9.41485 17.8491 9.44466 17.7702 9.44466C17.6911 9.44466 17.6119 9.41417 17.5514 9.35399L17.5513 9.35381L16.1493 7.94439L14.7474 9.35381C14.6267 9.47512 14.4306 9.47512 14.31 9.35381C14.1893 9.2325 14.1893 9.03538 14.31 8.91407L15.9309 7.28452Z" fill="#161742"/>
<path fill-rule="evenodd" clip-rule="evenodd" d="M9.15524 7.32541C9.07484 7.24459 8.94405 7.24459 8.86365 7.32541L7.24276 8.95496C7.16236 9.03579 7.16236 9.16727 7.24276 9.2481C7.32315 9.32893 7.45394 9.32893 7.53434 9.2481L9.00919 7.76538L10.4838 9.24791C10.4839 9.24795 10.4839 9.24798 10.484 9.24802C10.5245 9.28832 10.5773 9.30859 10.6301 9.30859C10.6832 9.30859 10.7358 9.28865 10.7761 9.2481C10.8565 9.16727 10.8565 9.03579 10.7761 8.95496L9.15524 7.32541ZM8.79074 7.25212C8.91141 7.13081 9.10748 7.13081 9.22815 7.25212L10.849 8.88166C10.9697 9.00297 10.9697 9.20009 10.849 9.3214C10.7883 9.38244 10.709 9.41225 10.6301 9.41225C10.5509 9.41225 10.4718 9.38176 10.4113 9.32158L10.4111 9.3214L9.00919 7.91198L7.60725 9.3214C7.48658 9.44271 7.29051 9.44271 7.16985 9.3214C7.04918 9.20009 7.04918 9.00297 7.16985 8.88166L8.79074 7.25212Z" fill="#161742"/>
<path d="M12.3882 17.0515C12.3145 17.0515 12.2402 17.0505 12.1665 17.0484C9.85582 16.9779 7.80959 15.8532 6.55319 13.9624C6.47431 13.8432 6.50576 13.6825 6.62433 13.6032C6.74291 13.5239 6.90273 13.5555 6.98161 13.6747C8.14418 15.424 10.0394 16.4648 12.182 16.5306C14.4788 16.6021 16.6147 15.5552 18.0459 13.6623C18.132 13.5483 18.2939 13.526 18.4073 13.6126C18.5207 13.6991 18.5429 13.8619 18.4568 13.9759C17.6757 15.0094 16.7044 15.8039 15.5692 16.3388C14.5747 16.8074 13.4796 17.052 12.3887 17.052L12.3882 17.0515Z" fill="#161742"/>
<path d="M12.3961 17.2164C12.3216 17.2164 12.2467 17.2154 12.1723 17.2132C9.83921 17.14 7.7732 15.9716 6.50466 14.0074C6.42501 13.8835 6.45677 13.7166 6.57649 13.6342C6.69621 13.5518 6.85758 13.5847 6.93722 13.7085C8.11103 15.5257 10.0245 16.6069 12.1879 16.6753C14.5069 16.7496 16.6634 15.662 18.1085 13.6956C18.1954 13.5771 18.3588 13.554 18.4733 13.6439C18.5879 13.7338 18.6102 13.9029 18.5233 14.0214C17.7347 15.095 16.754 15.9204 15.6078 16.4761C14.6037 16.9628 13.4981 17.217 12.3966 17.217L12.3961 17.2164Z" fill="#161742"/>
<path d="M22.9306 2.91825C22.1892 2.91825 21.5865 2.31235 21.5865 1.56704C21.5865 0.821716 22.1897 0.21582 22.9306 0.21582C23.6714 0.21582 24.2746 0.821716 24.2746 1.56704C24.2746 2.31235 23.6714 2.91825 22.9306 2.91825ZM22.9306 0.734123C22.4738 0.734123 22.1021 1.10782 22.1021 1.56704C22.1021 2.02625 22.4738 2.39995 22.9306 2.39995C23.3874 2.39995 23.7591 2.02625 23.7591 1.56704C23.7591 1.10782 23.3874 0.734123 22.9306 0.734123Z" fill="#161742"/>
<path fill-rule="evenodd" clip-rule="evenodd" d="M22.9305 0.267723C22.2181 0.267723 21.638 0.850426 21.638 1.56711C21.638 2.2838 22.2176 2.86649 22.9305 2.86649C23.6429 2.86649 24.223 2.28379 24.223 1.56711C24.223 0.850426 23.6429 0.267723 22.9305 0.267723ZM21.5349 1.56711C21.5349 0.79315 22.1612 0.164062 22.9305 0.164062C23.6998 0.164062 24.3261 0.793151 24.3261 1.56711C24.3261 2.34106 23.6998 2.97015 22.9305 2.97015C22.1607 2.97015 21.5349 2.34105 21.5349 1.56711ZM22.0505 1.56711C22.0505 1.07927 22.4453 0.682365 22.9305 0.682365C23.4158 0.682365 23.8106 1.07927 23.8106 1.56711C23.8106 2.05495 23.4158 2.45185 22.9305 2.45185C22.4453 2.45185 22.0505 2.05495 22.0505 1.56711ZM22.9305 0.786026C22.5022 0.786026 22.1536 1.13652 22.1536 1.56711C22.1536 1.9977 22.5022 2.34819 22.9305 2.34819C23.3588 2.34819 23.7074 1.9977 23.7074 1.56711C23.7074 1.13652 23.3588 0.786026 22.9305 0.786026Z" fill="#161742"/>
<path d="M1.54505 24.1135C0.901121 24.1135 0.377319 23.5869 0.377319 22.9396C0.377319 22.2922 0.901121 21.7656 1.54505 21.7656C2.18897 21.7656 2.71277 22.2922 2.71277 22.9396C2.71277 23.5869 2.18897 24.1135 1.54505 24.1135ZM1.54505 22.2834C1.18519 22.2834 0.892872 22.5778 0.892872 22.9391C0.892872 23.3003 1.18571 23.5947 1.54505 23.5947C1.90439 23.5947 2.19722 23.3003 2.19722 22.9391C2.19722 22.5778 1.9049 22.2834 1.54505 22.2834Z" fill="#161742"/>
<path fill-rule="evenodd" clip-rule="evenodd" d="M1.54497 21.8166C0.929513 21.8166 0.428794 22.3199 0.428794 22.9387C0.428794 23.5574 0.929513 24.0608 1.54497 24.0608C2.16042 24.0608 2.66114 23.5574 2.66114 22.9387C2.66114 22.3199 2.16042 21.8166 1.54497 21.8166ZM0.325684 22.9387C0.325684 22.2627 0.872567 21.7129 1.54497 21.7129C2.21736 21.7129 2.76425 22.2627 2.76425 22.9387C2.76425 23.6147 2.21736 24.1645 1.54497 24.1645C0.872567 24.1645 0.325684 23.6147 0.325684 22.9387ZM0.841236 22.9382C0.841236 22.5483 1.15661 22.2307 1.54497 22.2307C1.93332 22.2307 2.24869 22.5483 2.24869 22.9382C2.24869 23.328 1.93278 23.6456 1.54497 23.6456C1.15715 23.6456 0.841236 23.328 0.841236 22.9382ZM1.54497 22.3343C1.21361 22.3343 0.944347 22.6055 0.944347 22.9382C0.944347 23.2708 1.2141 23.542 1.54497 23.542C1.87583 23.542 2.14558 23.2708 2.14558 22.9382C2.14558 22.6055 1.87632 22.3343 1.54497 22.3343Z" fill="#161742"/>
<path d="M22.2924 22.9389C22.5398 22.9389 22.7404 22.7372 22.7404 22.4885C22.7404 22.2397 22.5398 22.0381 22.2924 22.0381C22.0449 22.0381 21.8444 22.2397 21.8444 22.4885C21.8444 22.7372 22.0449 22.9389 22.2924 22.9389Z" fill="#161742"/>
<path fill-rule="evenodd" clip-rule="evenodd" d="M22.2923 22.09C22.0733 22.09 21.8958 22.2684 21.8958 22.4886C21.8958 22.7087 22.0733 22.8871 22.2923 22.8871C22.5113 22.8871 22.6888 22.7087 22.6888 22.4886C22.6888 22.2684 22.5113 22.09 22.2923 22.09ZM21.7927 22.4886C21.7927 22.2112 22.0164 21.9863 22.2923 21.9863C22.5682 21.9863 22.7919 22.2112 22.7919 22.4886C22.7919 22.7659 22.5682 22.9908 22.2923 22.9908C22.0164 22.9908 21.7927 22.7659 21.7927 22.4886Z" fill="#161742"/>
<path d="M2.45546 2.46807C2.70289 2.46807 2.90348 2.26642 2.90348 2.01767C2.90348 1.76891 2.70289 1.56726 2.45546 1.56726C2.20803 1.56726 2.00745 1.76891 2.00745 2.01767C2.00745 2.26642 2.20803 2.46807 2.45546 2.46807Z" fill="#161742"/>
<path fill-rule="evenodd" clip-rule="evenodd" d="M2.45538 1.61929C2.23642 1.61929 2.05892 1.79773 2.05892 2.01786C2.05892 2.23799 2.23642 2.41643 2.45538 2.41643C2.67434 2.41643 2.85184 2.23799 2.85184 2.01786C2.85184 1.79773 2.67434 1.61929 2.45538 1.61929ZM1.95581 2.01786C1.95581 1.74048 2.17948 1.51562 2.45538 1.51562C2.73129 1.51562 2.95495 1.74048 2.95495 2.01786C2.95495 2.29524 2.73129 2.5201 2.45538 2.5201C2.17948 2.5201 1.95581 2.29524 1.95581 2.01786Z" fill="#161742"/>
</svg>
