<svg width="25" height="25" viewBox="0 0 25 25" fill="none" xmlns="http://www.w3.org/2000/svg">
<path d="M12.678 24.4663C9.48606 24.4663 6.48505 23.2182 4.22784 20.9516C1.97063 18.685 0.728271 15.672 0.728271 12.4663C0.728271 9.2605 1.97116 6.24754 4.22838 3.98093C6.48505 1.71486 9.48606 0.466797 12.678 0.466797C15.8699 0.466797 18.871 1.71486 21.1282 3.98147C23.3854 6.24808 24.6283 9.26158 24.6283 12.4668C24.6283 15.672 23.3854 18.6855 21.1282 20.9521C18.871 23.2187 15.8705 24.4668 12.678 24.4668V24.4663ZM12.678 1.00685C6.38556 1.00685 1.26609 6.14763 1.26609 12.4668C1.26609 18.786 6.38556 23.9267 12.6785 23.9267C18.9715 23.9267 24.091 18.786 24.091 12.4668C24.091 6.14763 18.971 1.00685 12.678 1.00685Z" fill="#161742"/>
<path fill-rule="evenodd" clip-rule="evenodd" d="M12.6265 0.522566C9.46305 0.522566 6.4891 1.75938 4.25258 4.00521C2.01552 6.25157 0.783839 9.23736 0.783839 12.4145C0.783839 15.5916 2.01499 18.5774 4.25205 20.8238C6.4891 23.0702 9.46305 24.307 12.6265 24.307H12.68V24.3074C15.824 24.2935 18.7765 23.058 21.0009 20.8243C23.238 18.578 24.4697 15.5916 24.4697 12.415C24.4697 9.23844 23.238 6.25211 21.0009 4.00574C18.7639 1.75938 15.7899 0.522566 12.6265 0.522566ZM12.5729 24.4144V24.415H12.6265C15.8189 24.415 18.8195 23.1669 21.0767 20.9004C23.3338 18.6338 24.5768 15.6202 24.5768 12.415C24.5768 9.20992 23.3338 6.19625 21.0767 3.92971C18.8195 1.66318 15.8183 0.415039 12.6265 0.415039C9.43466 0.415039 6.43347 1.66317 4.17686 3.92917C1.91972 6.19571 0.676758 9.20885 0.676758 12.4145C0.676758 15.6202 1.91918 18.6333 4.17633 20.8998C6.42084 23.1537 9.40111 24.4005 12.5729 24.4144ZM1.21216 12.415C1.21216 6.09449 6.33267 0.952673 12.6265 0.952673C18.9208 0.952673 24.0419 6.09448 24.0419 12.415C24.0419 18.7356 18.9214 23.8774 12.627 23.8774C6.33267 23.8774 1.21216 18.7356 1.21216 12.415ZM12.6265 1.0602C6.39181 1.0602 1.31925 6.15387 1.31925 12.415C1.31925 18.6762 6.39181 23.7699 12.627 23.7699C18.8622 23.7699 23.9348 18.6762 23.9348 12.415C23.9348 6.15388 18.8617 1.0602 12.6265 1.0602Z" fill="#161742"/>
<path d="M11.0819 11.0981C11.0159 11.0981 10.95 11.0727 10.8994 11.0225L9.29503 9.4095L7.69063 11.0225C7.5901 11.1235 7.42666 11.1235 7.32613 11.0225C7.2256 10.9214 7.2256 10.7571 7.32613 10.656L9.11252 8.8601C9.21305 8.75903 9.37648 8.75903 9.47702 8.8601L11.2634 10.656C11.3639 10.7571 11.3639 10.9214 11.2634 11.0225C11.2129 11.0733 11.1469 11.0981 11.0809 11.0981H11.0819Z" fill="#161742"/>
<path fill-rule="evenodd" clip-rule="evenodd" d="M9.44073 8.89591C9.36033 8.81508 9.22954 8.81508 9.14914 8.89591L7.36275 10.6918C7.28235 10.7727 7.28235 10.9041 7.36275 10.985C7.44315 11.0658 7.57394 11.0658 7.65434 10.985L9.29519 9.33536L10.9359 10.9848C10.9359 10.9848 10.9359 10.9849 10.936 10.9849C10.9764 11.0251 11.029 11.0453 11.0816 11.0455C11.1345 11.0453 11.1869 11.0254 11.2271 10.985C11.3075 10.9041 11.3075 10.7727 11.2271 10.6918L9.44073 8.89591ZM11.0816 11.1491C11.0818 11.1491 11.0819 11.1491 11.0821 11.1491C11.1607 11.1489 11.2396 11.119 11.3 11.0583C11.4207 10.937 11.4207 10.7398 11.3 10.6185L9.51364 8.82261C9.39297 8.7013 9.1969 8.7013 9.07623 8.82261L7.28984 10.6185C7.16917 10.7398 7.16917 10.937 7.28984 11.0583C7.41051 11.1796 7.60658 11.1796 7.72725 11.0583L9.29519 9.48196L10.8631 11.0583L10.8633 11.0585C10.9235 11.1184 11.0023 11.1489 11.0811 11.1491" fill="#161742"/>
<path d="M18.8584 11.0982C18.7924 11.0982 18.7264 11.0728 18.6759 11.0225L17.0715 9.40957L15.4671 11.0225C15.3666 11.1236 15.2032 11.1236 15.1026 11.0225C15.0021 10.9215 15.0021 10.7572 15.1026 10.6561L16.889 8.86016C16.9895 8.7591 17.153 8.7591 17.2535 8.86016L19.0399 10.6561C19.1404 10.7572 19.1404 10.9215 19.0399 11.0225C18.9894 11.0733 18.9234 11.0982 18.8574 11.0982H18.8584Z" fill="#161742"/>
<path fill-rule="evenodd" clip-rule="evenodd" d="M17.2171 8.89591C17.1367 8.81508 17.0059 8.81508 16.9255 8.89591L15.1391 10.6918C15.0587 10.7727 15.0587 10.9041 15.1391 10.985C15.2195 11.0658 15.3503 11.0658 15.4307 10.985L17.0716 9.33536L18.7122 10.9848C18.7123 10.9848 18.7123 10.9849 18.7123 10.9849C18.7528 11.0251 18.8053 11.0453 18.858 11.0455C18.9108 11.0453 18.9633 11.0254 19.0035 10.985C19.0839 10.9041 19.0839 10.7727 19.0035 10.6918L17.2171 8.89591ZM18.8579 11.1491C18.8581 11.1491 18.8583 11.1491 18.8585 11.1491C18.937 11.1489 19.0159 11.119 19.0764 11.0583C19.1971 10.937 19.1971 10.7398 19.0764 10.6185L17.29 8.82261C17.1693 8.7013 16.9733 8.7013 16.8526 8.82261L15.0662 10.6185C14.9455 10.7398 14.9455 10.937 15.0662 11.0583C15.1869 11.1796 15.3829 11.1796 15.5036 11.0583L17.0716 9.48196L18.6395 11.0583L18.6397 11.0585C18.6999 11.1184 18.7786 11.1489 18.8574 11.1491" fill="#161742"/>
<path d="M17.3914 17.1833H8.74716C8.60486 17.1833 8.48938 17.0672 8.48938 16.9242C8.48938 16.7811 8.60486 16.665 8.74716 16.665H17.3914C17.5337 16.665 17.6492 16.7811 17.6492 16.9242C17.6492 17.0672 17.5337 17.1833 17.3914 17.1833Z" fill="#161742"/>
<path fill-rule="evenodd" clip-rule="evenodd" d="M8.7472 16.716C8.63338 16.716 8.54098 16.8089 8.54098 16.9233C8.54098 17.0377 8.63338 17.1306 8.7472 17.1306H17.3915C17.5053 17.1306 17.5977 17.0377 17.5977 16.9233C17.5977 16.8089 17.5053 16.716 17.3915 16.716H8.7472ZM8.43787 16.9233C8.43787 16.7516 8.57643 16.6123 8.7472 16.6123H17.3915C17.5622 16.6123 17.7008 16.7516 17.7008 16.9233C17.7008 17.095 17.5622 17.2343 17.3915 17.2343H8.7472C8.57643 17.2343 8.43787 17.095 8.43787 16.9233Z" fill="#161742"/>
<path d="M23.6053 3.75419C22.8639 3.75419 22.2612 3.14829 22.2612 2.40297C22.2612 1.65765 22.8644 1.05176 23.6053 1.05176C24.3461 1.05176 24.9493 1.65765 24.9493 2.40297C24.9493 3.14829 24.3461 3.75419 23.6053 3.75419ZM23.6053 1.57006C23.1485 1.57006 22.7768 1.94376 22.7768 2.40297C22.7768 2.86219 23.1485 3.23588 23.6053 3.23588C24.0621 3.23588 24.4338 2.86219 24.4338 2.40297C24.4338 1.94376 24.0621 1.57006 23.6053 1.57006Z" fill="#161742"/>
<path fill-rule="evenodd" clip-rule="evenodd" d="M23.6052 1.10366C22.8928 1.10366 22.3127 1.68636 22.3127 2.40305C22.3127 3.11974 22.8923 3.70243 23.6052 3.70243C24.3176 3.70243 24.8977 3.11973 24.8977 2.40305C24.8977 1.68636 24.3176 1.10366 23.6052 1.10366ZM22.2096 2.40305C22.2096 1.62909 22.8359 1 23.6052 1C24.3745 1 25.0008 1.62909 25.0008 2.40305C25.0008 3.177 24.3745 3.80609 23.6052 3.80609C22.8354 3.80609 22.2096 3.17699 22.2096 2.40305ZM22.7251 2.40305C22.7251 1.9152 23.1199 1.5183 23.6052 1.5183C24.0904 1.5183 24.4852 1.9152 24.4852 2.40305C24.4852 2.89089 24.0904 3.28779 23.6052 3.28779C23.1199 3.28779 22.7251 2.89089 22.7251 2.40305ZM23.6052 1.62196C23.1769 1.62196 22.8283 1.97245 22.8283 2.40305C22.8283 2.83364 23.1769 3.18413 23.6052 3.18413C24.0335 3.18413 24.3821 2.83364 24.3821 2.40305C24.3821 1.97245 24.0335 1.62196 23.6052 1.62196Z" fill="#161742"/>
<path d="M2.21973 24.9495C1.5758 24.9495 1.052 24.4229 1.052 23.7755C1.052 23.1282 1.5758 22.6016 2.21973 22.6016C2.86365 22.6016 3.38745 23.1282 3.38745 23.7755C3.38745 24.4229 2.86365 24.9495 2.21973 24.9495ZM2.21973 23.1193C1.85987 23.1193 1.56755 23.4137 1.56755 23.775C1.56755 24.1363 1.86039 24.4307 2.21973 24.4307C2.57907 24.4307 2.8719 24.1363 2.8719 23.775C2.8719 23.4137 2.57958 23.1193 2.21973 23.1193Z" fill="#161742"/>
<path fill-rule="evenodd" clip-rule="evenodd" d="M2.21965 22.6525C1.6042 22.6525 1.10348 23.1559 1.10348 23.7746C1.10348 24.3933 1.6042 24.8967 2.21965 24.8967C2.8351 24.8967 3.33582 24.3933 3.33582 23.7746C3.33582 23.1559 2.8351 22.6525 2.21965 22.6525ZM1.00037 23.7746C1.00037 23.0986 1.54725 22.5488 2.21965 22.5488C2.89205 22.5488 3.43893 23.0986 3.43893 23.7746C3.43893 24.4506 2.89205 25.0004 2.21965 25.0004C1.54725 25.0004 1.00037 24.4506 1.00037 23.7746ZM1.51592 23.7741C1.51592 23.3842 1.83129 23.0666 2.21965 23.0666C2.608 23.0666 2.92338 23.3842 2.92338 23.7741C2.92338 24.164 2.60746 24.4816 2.21965 24.4816C1.83183 24.4816 1.51592 24.164 1.51592 23.7741ZM2.21965 23.1703C1.88829 23.1703 1.61903 23.4414 1.61903 23.7741C1.61903 24.1067 1.88878 24.3779 2.21965 24.3779C2.55051 24.3779 2.82027 24.1067 2.82027 23.7741C2.82027 23.4414 2.551 23.1703 2.21965 23.1703Z" fill="#161742"/>
<path d="M22.9671 23.7748C23.2145 23.7748 23.4151 23.5732 23.4151 23.3244C23.4151 23.0757 23.2145 22.874 22.9671 22.874C22.7196 22.874 22.519 23.0757 22.519 23.3244C22.519 23.5732 22.7196 23.7748 22.9671 23.7748Z" fill="#161742"/>
<path fill-rule="evenodd" clip-rule="evenodd" d="M22.967 22.9259C22.748 22.9259 22.5705 23.1044 22.5705 23.3245C22.5705 23.5446 22.748 23.7231 22.967 23.7231C23.1859 23.7231 23.3634 23.5446 23.3634 23.3245C23.3634 23.1044 23.1859 22.9259 22.967 22.9259ZM22.4674 23.3245C22.4674 23.0471 22.6911 22.8223 22.967 22.8223C23.2429 22.8223 23.4665 23.0471 23.4665 23.3245C23.4665 23.6019 23.2429 23.8267 22.967 23.8267C22.6911 23.8267 22.4674 23.6019 22.4674 23.3245Z" fill="#161742"/>
<path d="M3.13014 3.30401C3.37758 3.30401 3.57816 3.10235 3.57816 2.8536C3.57816 2.60485 3.37758 2.4032 3.13014 2.4032C2.88271 2.4032 2.68213 2.60485 2.68213 2.8536C2.68213 3.10235 2.88271 3.30401 3.13014 3.30401Z" fill="#161742"/>
<path fill-rule="evenodd" clip-rule="evenodd" d="M3.13006 2.45522C2.9111 2.45522 2.7336 2.63367 2.7336 2.8538C2.7336 3.07392 2.9111 3.25237 3.13006 3.25237C3.34902 3.25237 3.52652 3.07392 3.52652 2.8538C3.52652 2.63367 3.34902 2.45522 3.13006 2.45522ZM2.63049 2.8538C2.63049 2.57642 2.85416 2.35156 3.13006 2.35156C3.40597 2.35156 3.62963 2.57642 3.62963 2.8538C3.62963 3.13117 3.40597 3.35603 3.13006 3.35603C2.85416 3.35603 2.63049 3.13117 2.63049 2.8538Z" fill="#161742"/>
</svg>
