<svg width="25" height="25" viewBox="0 0 25 25" fill="none" xmlns="http://www.w3.org/2000/svg">
<ellipse cx="11.9523" cy="12" rx="11.9518" ry="12" fill="#FFD325"/>
<path d="M12.0017 24.0512C8.8098 24.0512 5.80878 22.8032 3.55157 20.5365C1.29436 18.2699 0.052002 15.257 0.052002 12.0512C0.052002 8.84546 1.29489 5.8325 3.55211 3.56589C5.80878 1.29982 8.8098 0.0517578 12.0017 0.0517578C15.1937 0.0517578 18.1947 1.29982 20.4519 3.56643C22.7091 5.83304 23.952 8.84654 23.952 12.0518C23.952 15.257 22.7091 18.2705 20.4519 20.5371C18.1947 22.8037 15.1942 24.0518 12.0017 24.0518V24.0512ZM12.0017 0.591812C5.70929 0.591812 0.589818 5.73259 0.589818 12.0518C0.589818 18.3709 5.70929 23.5117 12.0023 23.5117C18.2953 23.5117 23.4147 18.3709 23.4147 12.0518C23.4147 5.73259 18.2947 0.591812 12.0017 0.591812Z" fill="#161742"/>
<path fill-rule="evenodd" clip-rule="evenodd" d="M11.9502 0.107527C8.78678 0.107527 5.81283 1.34434 3.57631 3.59017C1.33925 5.83654 0.10757 8.82232 0.10757 11.9995C0.10757 15.1766 1.33872 18.1624 3.57578 20.4088C5.81283 22.6551 8.78678 23.8919 11.9502 23.8919H12.0038V23.8924C15.1477 23.8785 18.1002 22.643 20.3247 20.4093C22.5617 18.1629 23.7934 15.1766 23.7934 12C23.7934 8.8234 22.5617 5.83707 20.3247 3.5907C18.0876 1.34434 15.1137 0.107527 11.9502 0.107527ZM11.8967 23.9993V24H11.9502C15.1426 24 18.1432 22.7519 20.4004 20.4853C22.6575 18.2188 23.9005 15.2051 23.9005 12C23.9005 8.79488 22.6575 5.78121 20.4004 3.51467C18.1432 1.24814 15.1421 0 11.9502 0C8.75839 0 5.7572 1.24814 3.50059 3.51413C1.24345 5.78067 0.000488281 8.79381 0.000488281 11.9995C0.000488281 15.2051 1.24291 18.2183 3.50006 20.4848C5.74458 22.7386 8.72484 23.9855 11.8967 23.9993ZM0.535895 12C0.535895 5.67945 5.6564 0.537634 11.9502 0.537634C18.2446 0.537634 23.3656 5.67944 23.3656 12C23.3656 18.3206 18.2451 23.4624 11.9508 23.4624C5.6564 23.4624 0.535895 18.3206 0.535895 12ZM11.9502 0.645161C5.71554 0.645161 0.642976 5.73883 0.642976 12C0.642976 18.2612 5.71554 23.3548 11.9508 23.3548C18.186 23.3548 23.2585 18.2612 23.2585 12C23.2585 5.73884 18.1854 0.645161 11.9502 0.645161Z" fill="#161742"/>
<path d="M10.4057 10.6831C10.3397 10.6831 10.2737 10.6577 10.2232 10.6074L8.61876 8.99447L7.01436 10.6074C6.91383 10.7085 6.7504 10.7085 6.64986 10.6074C6.54933 10.5064 6.54933 10.3421 6.64986 10.241L8.43625 8.44506C8.53679 8.344 8.70021 8.344 8.80075 8.44506L10.5871 10.241C10.6877 10.3421 10.6877 10.5064 10.5871 10.6074C10.5366 10.6582 10.4706 10.6831 10.4046 10.6831H10.4057Z" fill="#161742"/>
<path fill-rule="evenodd" clip-rule="evenodd" d="M8.76446 8.48087C8.68406 8.40004 8.55327 8.40004 8.47287 8.48087L6.68648 10.2768C6.60608 10.3576 6.60608 10.4891 6.68648 10.5699C6.76688 10.6508 6.89767 10.6508 6.97807 10.5699L8.61892 8.92032L10.2596 10.5697C10.2596 10.5698 10.2597 10.5698 10.2597 10.5699C10.3001 10.61 10.3527 10.6303 10.4053 10.6304C10.4582 10.6303 10.5106 10.6103 10.5508 10.5699C10.6312 10.4891 10.6312 10.3576 10.5508 10.2768L8.76446 8.48087ZM10.4053 10.7341C10.4055 10.7341 10.4057 10.7341 10.4058 10.7341C10.4844 10.7338 10.5633 10.704 10.6238 10.6432C10.7444 10.5219 10.7444 10.3248 10.6238 10.2035L8.83737 8.40757C8.7167 8.28626 8.52063 8.28626 8.39996 8.40757L6.61357 10.2035C6.4929 10.3248 6.4929 10.5219 6.61357 10.6432C6.73424 10.7645 6.93031 10.7645 7.05098 10.6432L8.61892 9.06692L10.1869 10.6432L10.1871 10.6434C10.2473 10.7033 10.326 10.7338 10.4048 10.7341" fill="#161742"/>
<path d="M18.1822 10.6832C18.1162 10.6832 18.0502 10.6578 17.9996 10.6075L16.3952 8.99453L14.7908 10.6075C14.6903 10.7086 14.5269 10.7086 14.4264 10.6075C14.3258 10.5064 14.3258 10.3421 14.4264 10.241L16.2127 8.44513C16.3133 8.34406 16.4767 8.34406 16.5772 8.44513L18.3636 10.241C18.4642 10.3421 18.4642 10.5064 18.3636 10.6075C18.3131 10.6583 18.2471 10.6832 18.1811 10.6832H18.1822Z" fill="#161742"/>
<path fill-rule="evenodd" clip-rule="evenodd" d="M16.5408 8.48087C16.4604 8.40004 16.3296 8.40004 16.2492 8.48087L14.4628 10.2768C14.3824 10.3576 14.3824 10.4891 14.4628 10.5699C14.5432 10.6508 14.674 10.6508 14.7544 10.5699L16.3953 8.92032L18.036 10.5697C18.036 10.5698 18.036 10.5698 18.0361 10.5699C18.0765 10.61 18.1291 10.6303 18.1817 10.6304C18.2346 10.6303 18.287 10.6103 18.3272 10.5699C18.4076 10.4891 18.4076 10.3576 18.3272 10.2768L16.5408 8.48087ZM18.1817 10.7341C18.1819 10.7341 18.182 10.7341 18.1822 10.7341C18.2608 10.7338 18.3397 10.704 18.4001 10.6432C18.5208 10.5219 18.5208 10.3248 18.4001 10.2035L16.6137 8.40757C16.4931 8.28626 16.297 8.28626 16.1763 8.40757L14.3899 10.2035C14.2693 10.3248 14.2693 10.5219 14.3899 10.6432C14.5106 10.7645 14.7067 10.7645 14.8273 10.6432L16.3953 9.06692L17.9632 10.6432L17.9634 10.6434C18.0236 10.7033 18.1024 10.7338 18.1812 10.7341" fill="#161742"/>
<path d="M16.7152 16.7683H8.07089C7.92859 16.7683 7.81311 16.6522 7.81311 16.5092C7.81311 16.3661 7.92859 16.25 8.07089 16.25H16.7152C16.8574 16.25 16.9729 16.3661 16.9729 16.5092C16.9729 16.6522 16.8574 16.7683 16.7152 16.7683Z" fill="#161742"/>
<path fill-rule="evenodd" clip-rule="evenodd" d="M8.07093 16.3009C7.95711 16.3009 7.86471 16.3938 7.86471 16.5082C7.86471 16.6227 7.95711 16.7156 8.07093 16.7156H16.7152C16.829 16.7156 16.9214 16.6227 16.9214 16.5082C16.9214 16.3938 16.829 16.3009 16.7152 16.3009H8.07093ZM7.7616 16.5082C7.7616 16.3366 7.90016 16.1973 8.07093 16.1973H16.7152C16.886 16.1973 17.0245 16.3366 17.0245 16.5082C17.0245 16.6799 16.886 16.8192 16.7152 16.8192H8.07093C7.90016 16.8192 7.7616 16.6799 7.7616 16.5082Z" fill="#161742"/>
<path d="M22.929 3.33915C22.1876 3.33915 21.585 2.73325 21.585 1.98793C21.585 1.24261 22.1882 0.636719 22.929 0.636719C23.6699 0.636719 24.2731 1.24261 24.2731 1.98793C24.2731 2.73325 23.6699 3.33915 22.929 3.33915ZM22.929 1.15502C22.4722 1.15502 22.1005 1.52872 22.1005 1.98793C22.1005 2.44715 22.4722 2.82085 22.929 2.82085C23.3858 2.82085 23.7575 2.44715 23.7575 1.98793C23.7575 1.52872 23.3858 1.15502 22.929 1.15502Z" fill="#161742"/>
<path fill-rule="evenodd" clip-rule="evenodd" d="M22.9289 0.688621C22.2165 0.688621 21.6364 1.27132 21.6364 1.98801C21.6364 2.7047 22.216 3.28739 22.9289 3.28739C23.6413 3.28739 24.2214 2.70469 24.2214 1.98801C24.2214 1.27132 23.6413 0.688621 22.9289 0.688621ZM21.5333 1.98801C21.5333 1.21405 22.1596 0.584961 22.9289 0.584961C23.6982 0.584961 24.3245 1.21405 24.3245 1.98801C24.3245 2.76196 23.6982 3.39105 22.9289 3.39105C22.1591 3.39105 21.5333 2.76195 21.5333 1.98801ZM22.0489 1.98801C22.0489 1.50016 22.4437 1.10326 22.9289 1.10326C23.4142 1.10326 23.809 1.50016 23.809 1.98801C23.809 2.47585 23.4142 2.87275 22.9289 2.87275C22.4437 2.87275 22.0489 2.47585 22.0489 1.98801ZM22.9289 1.20692C22.5006 1.20692 22.152 1.55742 22.152 1.98801C22.152 2.4186 22.5006 2.76909 22.9289 2.76909C23.3572 2.76909 23.7059 2.4186 23.7059 1.98801C23.7059 1.55741 23.3572 1.20692 22.9289 1.20692Z" fill="#161742"/>
<path d="M1.54346 24.5344C0.899534 24.5344 0.375732 24.0078 0.375732 23.3605C0.375732 22.7131 0.899534 22.1865 1.54346 22.1865C2.18738 22.1865 2.71119 22.7131 2.71119 23.3605C2.71119 24.0078 2.18738 24.5344 1.54346 24.5344ZM1.54346 22.7043C1.1836 22.7043 0.891285 22.9987 0.891285 23.36C0.891285 23.7212 1.18412 24.0156 1.54346 24.0156C1.9028 24.0156 2.19563 23.7212 2.19563 23.36C2.19563 22.9987 1.90331 22.7043 1.54346 22.7043Z" fill="#161742"/>
<path fill-rule="evenodd" clip-rule="evenodd" d="M1.54338 22.2374C0.927926 22.2374 0.427207 22.7408 0.427207 23.3596C0.427207 23.9783 0.927926 24.4817 1.54338 24.4817C2.15883 24.4817 2.65955 23.9783 2.65955 23.3596C2.65955 22.7408 2.15883 22.2374 1.54338 22.2374ZM0.324097 23.3596C0.324097 22.6836 0.87098 22.1338 1.54338 22.1338C2.21578 22.1338 2.76266 22.6836 2.76266 23.3596C2.76266 24.0356 2.21578 24.5854 1.54338 24.5854C0.87098 24.5854 0.324097 24.0356 0.324097 23.3596ZM0.839649 23.3591C0.839649 22.9692 1.15502 22.6516 1.54338 22.6516C1.93173 22.6516 2.24711 22.9692 2.24711 23.3591C2.24711 23.7489 1.93119 24.0665 1.54338 24.0665C1.15557 24.0665 0.839649 23.7489 0.839649 23.3591ZM1.54338 22.7552C1.21202 22.7552 0.94276 23.0264 0.94276 23.3591C0.94276 23.6917 1.21251 23.9629 1.54338 23.9629C1.87425 23.9629 2.144 23.6917 2.144 23.3591C2.144 23.0264 1.87473 22.7552 1.54338 22.7552Z" fill="#161742"/>
<path d="M22.2908 23.3598C22.5382 23.3598 22.7388 23.1581 22.7388 22.9094C22.7388 22.6606 22.5382 22.459 22.2908 22.459C22.0434 22.459 21.8428 22.6606 21.8428 22.9094C21.8428 23.1581 22.0434 23.3598 22.2908 23.3598Z" fill="#161742"/>
<path fill-rule="evenodd" clip-rule="evenodd" d="M22.2907 22.5109C22.0717 22.5109 21.8942 22.6893 21.8942 22.9095C21.8942 23.1296 22.0717 23.308 22.2907 23.308C22.5097 23.308 22.6872 23.1296 22.6872 22.9095C22.6872 22.6893 22.5097 22.5109 22.2907 22.5109ZM21.7911 22.9095C21.7911 22.6321 22.0148 22.4072 22.2907 22.4072C22.5666 22.4072 22.7903 22.6321 22.7903 22.9095C22.7903 23.1868 22.5666 23.4117 22.2907 23.4117C22.0148 23.4117 21.7911 23.1868 21.7911 22.9095Z" fill="#161742"/>
<path d="M2.45387 2.88897C2.70131 2.88897 2.90189 2.68732 2.90189 2.43856C2.90189 2.18981 2.70131 1.98816 2.45387 1.98816C2.20644 1.98816 2.00586 2.18981 2.00586 2.43856C2.00586 2.68732 2.20644 2.88897 2.45387 2.88897Z" fill="#161742"/>
<path fill-rule="evenodd" clip-rule="evenodd" d="M2.45379 2.04018C2.23484 2.04018 2.05733 2.21863 2.05733 2.43876C2.05733 2.65889 2.23484 2.83733 2.45379 2.83733C2.67275 2.83733 2.85025 2.65889 2.85025 2.43876C2.85025 2.21863 2.67275 2.04018 2.45379 2.04018ZM1.95422 2.43876C1.95422 2.16138 2.17789 1.93652 2.45379 1.93652C2.7297 1.93652 2.95336 2.16138 2.95336 2.43876C2.95336 2.71614 2.7297 2.94099 2.45379 2.94099C2.17789 2.94099 1.95422 2.71614 1.95422 2.43876Z" fill="#161742"/>
</svg>
